<svg height="100" width="100" preserveAspectRatio="xMidYMid meet"><polyline points="49.49186991869919,50.45731707317073 49.49186991869919,50.45731707317073 49.49186991869919,50.45731707317073 49.49186991869919,50.45731707317073 49.49186991869919,50.40650406504065 49.49186991869919,50.40650406504065 49.49186991869919,50.40650406504065 49.4410569105691,50.40650406504065 49.4410569105691,50.40650406504065 49.4410569105691,50.355691056910565 49.4410569105691,50.355691056910565 49.4410569105691,50.355691056910565 49.4410569105691,50.355691056910565 49.390243902439025,50.355691056910565 49.390243902439025,50.355691056910565 49.390243902439025,50.30487804878049 49.390243902439025,50.30487804878049 49.390243902439025,50.30487804878049 49.33943089430894,50.30487804878049 49.33943089430894,50.30487804878049 49.33943089430894,50.2540650406504 49.33943089430894,50.2540650406504 49.33943089430894,50.2540650406504 49.33943089430894,50.2540650406504 49.33943089430894,50.2540650406504 49.28861788617886,50.2540650406504 49.28861788617886,50.203252032520325 49.28861788617886,50.203252032520325 49.28861788617886,50.203252032520325 49.28861788617886,50.203252032520325 49.28861788617886,50.203252032520325 49.28861788617886,50.203252032520325 49.28861788617886,50.203252032520325 49.23780487804878,50.203252032520325 49.23780487804878,50.203252032520325 49.23780487804878,50.203252032520325 49.23780487804878,50.203252032520325 49.23780487804878,50.203252032520325 49.23780487804878,50.203252032520325 49.23780487804878,50.203252032520325 49.23780487804878,50.203252032520325 49.23780487804878,50.203252032520325 49.23780487804878,50.203252032520325 49.23780487804878,50.203252032520325 49.23780487804878,50.203252032520325 49.23780487804878,50.203252032520325 49.23780487804878,50.203252032520325 49.23780487804878,50.203252032520325 49.23780487804878,50.203252032520325 49.23780487804878,50.203252032520325 49.23780487804878,50.203252032520325" fill="none" stroke="black" stroke-width="0.6"></polyline><polyline points="49.23780487804878,50.203252032520325 49.23780487804878,50.203252032520325 49.23780487804878,50.203252032520325 49.23780487804878,50.203252032520325 49.23780487804878,50.203252032520325 49.23780487804878,50.203252032520325 49.23780487804878,50.203252032520325 49.23780487804878,50.203252032520325 49.23780487804878,50.203252032520325 49.23780487804878,50.203252032520325 49.23780487804878,50.203252032520325 49.23780487804878,50.203252032520325 49.23780487804878,50.203252032520325 49.23780487804878,50.203252032520325 49.23780487804878,50.203252032520325 49.23780487804878,50.203252032520325 49.23780487804878,50.203252032520325 49.23780487804878,50.203252032520325 49.23780487804878,50.203252032520325 49.23780487804878,50.203252032520325 49.23780487804878,50.203252032520325 49.23780487804878,50.2540650406504 49.23780487804878,50.2540650406504 49.23780487804878,50.2540650406504 49.23780487804878,50.2540650406504 49.23780487804878,50.2540650406504 49.23780487804878,50.2540650406504 49.23780487804878,50.2540650406504 49.23780487804878,50.30487804878049 49.23780487804878,50.30487804878049 49.23780487804878,50.355691056910565 49.23780487804878,50.355691056910565 49.23780487804878,50.40650406504065 49.28861788617886,50.45731707317073 49.28861788617886,50.50813008130081 49.28861788617886,50.55894308943089 49.28861788617886,50.55894308943089 49.33943089430894,50.609756097560975 49.33943089430894,50.66056910569105 49.390243902439025,50.71138211382114 49.390243902439025,50.762195121951216 49.4410569105691,50.8130081300813 49.4410569105691,50.8130081300813 49.49186991869919,50.86382113821138 49.49186991869919,50.91463414634146 49.542682926829265,50.96544715447154 49.59349593495935,50.96544715447154 49.59349593495935,51.016260162601625 49.64430894308943,51.016260162601625 49.64430894308943,51.0670731707317 49.69512195121951,51.0670731707317" fill="none" stroke="black" stroke-width="0.6"></polyline><polyline points="49.69512195121951,51.0670731707317 49.74593495934959,51.11788617886179 49.74593495934959,51.11788617886179 49.796747967479675,51.168699186991866 49.796747967479675,51.168699186991866 49.84756097560975,51.168699186991866 49.84756097560975,51.21951219512195 49.89837398373984,51.21951219512195 49.89837398373984,51.21951219512195 49.949186991869915,51.27032520325203 50,51.27032520325203 50,51.32113821138211 50.05081300813008,51.32113821138211 50.10162601626016,51.37195121951219 50.15243902439024,51.422764227642276 50.203252032520325,51.47357723577235 50.203252032520325,51.52439024390244 50.2540650406504,51.52439024390244 50.355691056910565,51.575203252032516 50.40650406504065,51.6260162601626 50.45731707317073,51.67682926829268 50.50813008130081,51.72764227642276 50.55894308943089,51.77845528455284 50.66056910569105,51.829268292682926 50.762195121951216,51.880081300813 50.8130081300813,51.880081300813 50.91463414634146,51.93089430894309 50.96544715447154,51.981707317073166 51.0670731707317,51.981707317073166 51.168699186991866,52.03252032520325 51.21951219512195,52.03252032520325 51.32113821138211,52.03252032520325 51.422764227642276,52.083333333333336 51.52439024390244,52.083333333333336 51.6260162601626,52.083333333333336 51.67682926829268,52.083333333333336 51.77845528455284,52.083333333333336 51.880081300813,52.13414634146341 51.93089430894309,52.13414634146341 52.03252032520325,52.13414634146341 52.13414634146341,52.13414634146341 52.235772357723576,52.13414634146341 52.33739837398374,52.13414634146341 52.4390243902439,52.13414634146341 52.540650406504064,52.13414634146341 52.642276422764226,52.13414634146341 52.69308943089431,52.13414634146341 52.79471544715447,52.13414634146341 52.84552845528455,52.13414634146341 52.896341463414636,52.083333333333336 52.947154471544714,52.083333333333336" fill="none" stroke="black" stroke-width="0.6"></polyline><polyline points="52.947154471544714,52.083333333333336 52.9979674796748,52.083333333333336 53.048780487804876,52.083333333333336 53.09959349593496,52.03252032520325 53.09959349593496,52.03252032520325 53.15040650406504,52.03252032520325 53.15040650406504,52.03252032520325 53.201219512195124,52.03252032520325 53.201219512195124,51.981707317073166 53.2520325203252,51.981707317073166 53.2520325203252,51.981707317073166 53.302845528455286,51.93089430894309 53.353658536585364,51.93089430894309 53.353658536585364,51.93089430894309 53.40447154471545,51.880081300813 53.45528455284553,51.880081300813 53.50609756097561,51.829268292682926 53.55691056910569,51.829268292682926 53.55691056910569,51.829268292682926 53.607723577235774,51.77845528455284 53.65853658536585,51.77845528455284 53.709349593495936,51.77845528455284 53.709349593495936,51.72764227642276 53.760162601626014,51.72764227642276 53.760162601626014,51.72764227642276 53.8109756097561,51.67682926829268 53.8109756097561,51.67682926829268 53.86178861788618,51.67682926829268 53.86178861788618,51.6260162601626 53.91260162601626,51.6260162601626 53.91260162601626,51.6260162601626 53.96341463414634,51.575203252032516 53.96341463414634,51.575203252032516 54.014227642276424,51.52439024390244 54.014227642276424,51.52439024390244 54.0650406504065,51.47357723577235 54.11585365853659,51.47357723577235 54.11585365853659,51.422764227642276 54.166666666666664,51.37195121951219 54.21747967479675,51.37195121951219 54.21747967479675,51.32113821138211 54.26829268292683,51.32113821138211 54.26829268292683,51.27032520325203 54.31910569105691,51.21951219512195 54.31910569105691,51.21951219512195 54.36991869918699,51.168699186991866 54.36991869918699,51.11788617886179 54.420731707317074,51.11788617886179 54.420731707317074,51.0670731707317 54.47154471544715,51.016260162601625 54.47154471544715,50.96544715447154" fill="none" stroke="black" stroke-width="0.6"></polyline><polyline points="54.47154471544715,50.96544715447154 54.52235772357724,50.91463414634146 54.52235772357724,50.91463414634146 54.573170731707314,50.8130081300813 54.573170731707314,50.762195121951216 54.6239837398374,50.71138211382114 54.6239837398374,50.66056910569105 54.67479674796748,50.609756097560975 54.67479674796748,50.50813008130081 54.72560975609756,50.45731707317073 54.72560975609756,50.355691056910565 54.72560975609756,50.30487804878049 54.72560975609756,50.203252032520325 54.77642276422764,50.10162601626016 54.77642276422764,50 54.77642276422764,49.89837398373984 54.827235772357724,49.796747967479675 54.827235772357724,49.69512195121951 54.827235772357724,49.64430894308943 54.827235772357724,49.542682926829265 54.827235772357724,49.4410569105691 54.827235772357724,49.390243902439025 54.827235772357724,49.33943089430894 54.827235772357724,49.23780487804878 54.827235772357724,49.1869918699187 54.827235772357724,49.08536585365854 54.827235772357724,49.03455284552845 54.827235772357724,48.93292682926829 54.77642276422764,48.83130081300813 54.77642276422764,48.78048780487805 54.72560975609756,48.67886178861789 54.72560975609756,48.577235772357724 54.67479674796748,48.47560975609756 54.6239837398374,48.323170731707314 54.6239837398374,48.22154471544715 54.573170731707314,48.11991869918699 54.52235772357724,47.96747967479675 54.47154471544715,47.86585365853659 54.420731707317074,47.71341463414634 54.36991869918699,47.5609756097561 54.31910569105691,47.459349593495936 54.26829268292683,47.357723577235774 54.21747967479675,47.20528455284553 54.21747967479675,47.103658536585364 54.166666666666664,47.0020325203252 54.11585365853659,46.90040650406504 54.0650406504065,46.798780487804876 53.96341463414634,46.7479674796748 53.91260162601626,46.59552845528455 53.86178861788618,46.54471544715447 53.760162601626014,46.44308943089431" fill="none" stroke="black" stroke-width="0.6"></polyline><polyline points="53.760162601626014,46.44308943089431 53.65853658536585,46.34146341463415 53.55691056910569,46.290650406504064 53.45528455284553,46.1890243902439 53.353658536585364,46.08739837398374 53.2520325203252,45.985772357723576 53.09959349593496,45.88414634146341 52.947154471544714,45.78252032520325 52.74390243902439,45.68089430894309 52.540650406504064,45.52845528455285 52.33739837398374,45.3760162601626 52.13414634146341,45.27439024390244 51.93089430894309,45.172764227642276 51.77845528455284,45.12195121951219 51.575203252032516,45.02032520325203 51.37195121951219,44.96951219512195 51.168699186991866,44.918699186991866 50.96544715447154,44.86788617886179 50.71138211382114,44.86788617886179 50.55894308943089,44.86788617886179 50.355691056910565,44.86788617886179 50.203252032520325,44.8170731707317 50.05081300813008,44.8170731707317 49.89837398373984,44.8170731707317 49.796747967479675,44.8170731707317 49.64430894308943,44.8170731707317 49.49186991869919,44.8170731707317 49.33943089430894,44.8170731707317 49.23780487804878,44.766260162601625 49.03455284552845,44.766260162601625 48.88211382113821,44.766260162601625 48.729674796747965,44.766260162601625 48.577235772357724,44.766260162601625 48.3739837398374,44.766260162601625 48.170731707317074,44.766260162601625 47.916666666666664,44.766260162601625 47.764227642276424,44.766260162601625 47.5609756097561,44.766260162601625 47.40853658536585,44.8170731707317 47.25609756097561,44.8170731707317 47.103658536585364,44.86788617886179 47.0020325203252,44.86788617886179 46.90040650406504,44.86788617886179 46.84959349593496,44.918699186991866 46.7479674796748,44.918699186991866 46.697154471544714,44.96951219512195 46.59552845528455,44.96951219512195 46.49390243902439,45.02032520325203 46.392276422764226,45.07113821138211 46.239837398373986,45.12195121951219 46.03658536585366,45.172764227642276" fill="none" stroke="black" stroke-width="0.6"></polyline><polyline points="46.03658536585366,45.172764227642276 45.833333333333336,45.22357723577235 45.63008130081301,45.325203252032516 45.3760162601626,45.42682926829268 45.12195121951219,45.47764227642276 44.86788617886179,45.579268292682926 44.61382113821138,45.68089430894309 44.359756097560975,45.78252032520325 44.15650406504065,45.9349593495935 43.85162601626016,46.03658536585366 43.546747967479675,46.1890243902439 43.24186991869919,46.290650406504064 42.886178861788615,46.44308943089431 42.63211382113821,46.54471544715447 42.3780487804878,46.646341463414636 42.073170731707314,46.798780487804876 41.81910569105691,46.951219512195124 41.5650406504065,47.052845528455286 41.36178861788618,47.20528455284553 41.15853658536585,47.30691056910569 41.00609756097561,47.40853658536585 40.90447154471545,47.5609756097561 40.802845528455286,47.66260162601626 40.701219512195124,47.8150406504065 40.59959349593496,47.96747967479675 40.548780487804876,48.11991869918699 40.447154471544714,48.27235772357724 40.396341463414636,48.42479674796748 40.29471544715447,48.52642276422764 40.24390243902439,48.67886178861789 40.19308943089431,48.78048780487805 40.142276422764226,48.93292682926829 40.040650406504064,49.08536585365854 39.989837398373986,49.1869918699187 39.9390243902439,49.33943089430894 39.88821138211382,49.4410569105691 39.83739837398374,49.542682926829265 39.78658536585366,49.69512195121951 39.735772357723576,49.796747967479675 39.735772357723576,49.949186991869915 39.6849593495935,50.05081300813008 39.6849593495935,50.203252032520325 39.6849593495935,50.355691056910565 39.63414634146341,50.45731707317073 39.63414634146341,50.609756097560975 39.63414634146341,50.71138211382114 39.63414634146341,50.8130081300813 39.63414634146341,50.91463414634146 39.63414634146341,51.016260162601625 39.63414634146341,51.11788617886179 39.63414634146341,51.21951219512195" fill="none" stroke="black" stroke-width="0.6"></polyline><polyline points="39.63414634146341,51.21951219512195 39.6849593495935,51.32113821138211 39.6849593495935,51.422764227642276 39.6849593495935,51.575203252032516 39.6849593495935,51.67682926829268 39.735772357723576,51.77845528455284 39.735772357723576,51.93089430894309 39.735772357723576,52.03252032520325 39.78658536585366,52.13414634146341 39.78658536585366,52.28658536585366 39.83739837398374,52.38821138211382 39.88821138211382,52.489837398373986 39.88821138211382,52.642276422764226 39.9390243902439,52.74390243902439 39.989837398373986,52.896341463414636 40.040650406504064,53.048780487804876 40.142276422764226,53.15040650406504 40.19308943089431,53.302845528455286 40.24390243902439,53.45528455284553 40.34552845528455,53.607723577235774 40.396341463414636,53.709349593495936 40.4979674796748,53.86178861788618 40.548780487804876,53.96341463414634 40.59959349593496,54.11585365853659 40.701219512195124,54.21747967479675 40.7520325203252,54.36991869918699 40.802845528455286,54.52235772357724 40.90447154471545,54.67479674796748 40.95528455284553,54.827235772357724 41.05691056910569,54.92886178861789 41.15853658536585,55.08130081300813 41.209349593495936,55.233739837398375 41.3109756097561,55.386178861788615 41.41260162601626,55.53861788617886 41.5650406504065,55.6910569105691 41.71747967479675,55.84349593495935 41.86991869918699,55.99593495934959 42.073170731707314,56.14837398373984 42.22560975609756,56.30081300813008 42.3780487804878,56.453252032520325 42.53048780487805,56.605691056910565 42.63211382113821,56.75813008130081 42.78455284552845,56.91056910569105 42.9369918699187,57.0630081300813 43.03861788617886,57.16463414634146 43.140243902439025,57.266260162601625 43.1910569105691,57.3170731707317 43.24186991869919,57.36788617886179 43.292682926829265,57.418699186991866 43.34349593495935,57.418699186991866 43.39430894308943,57.46951219512195" fill="none" stroke="black" stroke-width="0.6"></polyline><polyline points="43.39430894308943,57.46951219512195 43.44512195121951,57.46951219512195 43.49593495934959,57.52032520325203 43.546747967479675,57.57113821138211 43.59756097560975,57.62195121951219 43.64837398373984,57.672764227642276 43.75,57.72357723577235 43.80081300813008,57.825203252032516 43.90243902439024,57.8760162601626 44.0040650406504,57.97764227642276 44.105691056910565,58.079268292682926 44.20731707317073,58.130081300813 44.30894308943089,58.231707317073166 44.359756097560975,58.28252032520325 44.46138211382114,58.38414634146341 44.512195121951216,58.43495934959349 44.5630081300813,58.485772357723576 44.66463414634146,58.485772357723576 44.71544715447154,58.536585365853654 44.766260162601625,58.58739837398374 44.766260162601625,58.63821138211382 44.86788617886179,58.63821138211382 44.918699186991866,58.6890243902439 44.96951219512195,58.739837398373986 45.02032520325203,58.790650406504064 45.07113821138211,58.790650406504064 45.12195121951219,58.84146341463415 45.172764227642276,58.892276422764226 45.27439024390244,58.94308943089431 45.325203252032516,58.99390243902439 45.3760162601626,59.04471544715447 45.42682926829268,59.04471544715447 45.47764227642276,59.09552845528455 45.579268292682926,59.146341463414636 45.63008130081301,59.197154471544714 45.73170731707317,59.197154471544714 45.78252032520325,59.2479674796748 45.88414634146341,59.298780487804876 45.9349593495935,59.34959349593496 46.03658536585366,59.40040650406504 46.13821138211382,59.451219512195124 46.239837398373986,59.5020325203252 46.392276422764226,59.552845528455286 46.49390243902439,59.603658536585364 46.646341463414636,59.65447154471545 46.798780487804876,59.70528455284553 46.951219512195124,59.70528455284553 47.15447154471545,59.75609756097561 47.30691056910569,59.80691056910569 47.510162601626014,59.857723577235774 47.66260162601626,59.857723577235774" fill="none" stroke="black" stroke-width="0.6"></polyline><polyline points="47.66260162601626,59.857723577235774 47.86585365853659,59.857723577235774 48.01829268292683,59.857723577235774 48.22154471544715,59.857723577235774 48.47560975609756,59.857723577235774 48.83130081300813,59.857723577235774 49.23780487804878,59.80691056910569 49.64430894308943,59.75609756097561 50,59.75609756097561 50.30487804878049,59.75609756097561 50.609756097560975,59.75609756097561 50.86382113821138,59.75609756097561 51.0670731707317,59.75609756097561 51.27032520325203,59.75609756097561 51.422764227642276,59.75609756097561 51.6260162601626,59.75609756097561 51.72764227642276,59.75609756097561 51.880081300813,59.75609756097561 52.083333333333336,59.75609756097561 52.235772357723576,59.70528455284553 52.4390243902439,59.65447154471545 52.642276422764226,59.603658536585364 52.79471544715447,59.552845528455286 52.947154471544714,59.5020325203252 53.09959349593496,59.451219512195124 53.201219512195124,59.40040650406504 53.40447154471545,59.34959349593496 53.55691056910569,59.298780487804876 53.709349593495936,59.2479674796748 53.8109756097561,59.197154471544714 53.96341463414634,59.146341463414636 54.0650406504065,59.09552845528455 54.21747967479675,59.04471544715447 54.31910569105691,58.99390243902439 54.420731707317074,58.94308943089431 54.52235772357724,58.892276422764226 54.6239837398374,58.790650406504064 54.72560975609756,58.739837398373986 54.827235772357724,58.6890243902439 54.92886178861789,58.58739837398374 55.03048780487805,58.536585365853654 55.13211382113821,58.43495934959349 55.28455284552845,58.38414634146341 55.386178861788615,58.28252032520325 55.4369918699187,58.231707317073166 55.53861788617886,58.18089430894309 55.58943089430894,58.079268292682926 55.640243902439025,58.02845528455284 55.74186991869919,57.92682926829268 55.84349593495935,57.8760162601626 55.94512195121951,57.77439024390244" fill="none" stroke="black" stroke-width="0.6"></polyline><polyline points="55.94512195121951,57.77439024390244 56.09756097560975,57.672764227642276 56.199186991869915,57.52032520325203 56.35162601626016,57.418699186991866 56.5040650406504,57.3170731707317 56.605691056910565,57.21544715447154 56.70731707317073,57.11382113821138 56.80894308943089,57.012195121951216 56.91056910569105,56.91056910569105 57.012195121951216,56.80894308943089 57.11382113821138,56.70731707317073 57.21544715447154,56.605691056910565 57.3170731707317,56.5040650406504 57.418699186991866,56.35162601626016 57.57113821138211,56.25 57.672764227642276,56.09756097560975 57.825203252032516,55.99593495934959 57.8760162601626,55.89430894308943 57.97764227642276,55.792682926829265 58.02845528455284,55.640243902439025 58.130081300813,55.53861788617886 58.231707317073166,55.386178861788615 58.33333333333333,55.233739837398375 58.43495934959349,55.08130081300813 58.536585365853654,54.8780487804878 58.63821138211382,54.67479674796748 58.739837398373986,54.52235772357724 58.84146341463415,54.36991869918699 58.892276422764226,54.21747967479675 58.94308943089431,54.0650406504065 58.94308943089431,53.91260162601626 58.99390243902439,53.8109756097561 59.04471544715447,53.65853658536585 59.04471544715447,53.45528455284553 59.09552845528455,53.2520325203252 59.146341463414636,53.048780487804876 59.197154471544714,52.84552845528455 59.2479674796748,52.59146341463415 59.298780487804876,52.38821138211382 59.34959349593496,52.083333333333336 59.40040650406504,51.880081300813 59.451219512195124,51.67682926829268 59.5020325203252,51.47357723577235 59.5020325203252,51.32113821138211 59.552845528455286,51.21951219512195 59.552845528455286,51.0670731707317 59.552845528455286,50.96544715447154 59.552845528455286,50.86382113821138 59.552845528455286,50.762195121951216 59.552845528455286,50.609756097560975 59.552845528455286,50.45731707317073" fill="none" stroke="black" stroke-width="0.6"></polyline><polyline points="59.552845528455286,50.45731707317073 59.552845528455286,50.30487804878049 59.552845528455286,50.10162601626016 59.5020325203252,49.84756097560975 59.5020325203252,49.64430894308943 59.5020325203252,49.390243902439025 59.451219512195124,49.23780487804878 59.451219512195124,49.03455284552845 59.451219512195124,48.88211382113821 59.40040650406504,48.729674796747965 59.40040650406504,48.577235772357724 59.40040650406504,48.42479674796748 59.34959349593496,48.27235772357724 59.34959349593496,48.11991869918699 59.298780487804876,47.916666666666664 59.2479674796748,47.764227642276424 59.197154471544714,47.61178861788618 59.146341463414636,47.459349593495936 59.04471544715447,47.30691056910569 58.99390243902439,47.15447154471545 58.94308943089431,47.052845528455286 58.892276422764226,46.90040650406504 58.790650406504064,46.7479674796748 58.739837398373986,46.54471544715447 58.63821138211382,46.392276422764226 58.536585365853654,46.1890243902439 58.43495934959349,45.985772357723576 58.33333333333333,45.833333333333336 58.231707317073166,45.63008130081301 58.130081300813,45.52845528455285 58.02845528455284,45.3760162601626 57.92682926829268,45.22357723577235 57.77439024390244,45.12195121951219 57.672764227642276,45.02032520325203 57.57113821138211,44.86788617886179 57.46951219512195,44.766260162601625 57.3170731707317,44.61382113821138 57.16463414634146,44.512195121951216 57.0630081300813,44.359756097560975 56.91056910569105,44.20731707317073 56.75813008130081,44.105691056910565 56.605691056910565,43.953252032520325 56.40243902439024,43.80081300813008 56.14837398373984,43.64837398373984 55.94512195121951,43.49593495934959 55.74186991869919,43.39430894308943 55.53861788617886,43.24186991869919 55.33536585365854,43.08943089430894 55.13211382113821,42.98780487804878 54.979674796747965,42.886178861788615 54.8780487804878,42.78455284552845" fill="none" stroke="black" stroke-width="0.6"></polyline><polyline points="54.8780487804878,42.78455284552845 54.72560975609756,42.68292682926829 54.6239837398374,42.58130081300813 54.52235772357724,42.53048780487805 54.420731707317074,42.42886178861789 54.31910569105691,42.327235772357724 54.166666666666664,42.22560975609756 54.014227642276424,42.073170731707314 53.91260162601626,42.02235772357724 53.8109756097561,41.86991869918699 53.65853658536585,41.76829268292683 53.55691056910569,41.666666666666664 53.45528455284553,41.61585365853659 53.353658536585364,41.514227642276424 53.201219512195124,41.46341463414634 53.048780487804876,41.36178861788618 52.79471544715447,41.260162601626014 52.59146341463415,41.15853658536585 52.33739837398374,41.05691056910569 52.03252032520325,40.95528455284553 51.72764227642276,40.853658536585364 51.47357723577235,40.853658536585364 51.168699186991866,40.802845528455286 50.91463414634146,40.7520325203252 50.66056910569105,40.7520325203252 50.30487804878049,40.701219512195124 49.949186991869915,40.65040650406504 49.69512195121951,40.59959349593496 49.390243902439025,40.548780487804876 49.136178861788615,40.548780487804876 48.93292682926829,40.548780487804876 48.6280487804878,40.548780487804876 48.3739837398374,40.548780487804876 48.11991869918699,40.548780487804876 47.8150406504065,40.548780487804876 47.510162601626014,40.4979674796748 47.15447154471545,40.4979674796748 46.84959349593496,40.447154471544714 46.59552845528455,40.447154471544714 46.290650406504064,40.447154471544714 45.985772357723576,40.447154471544714 45.68089430894309,40.4979674796748 45.3760162601626,40.548780487804876 44.96951219512195,40.65040650406504 44.66463414634146,40.701219512195124 44.359756097560975,40.7520325203252 44.105691056910565,40.802845528455286 43.85162601626016,40.90447154471545 43.64837398373984,40.95528455284553 43.39430894308943,41.05691056910569 43.1910569105691,41.107723577235774" fill="none" stroke="black" stroke-width="0.6"></polyline><polyline points="43.1910569105691,41.107723577235774 42.98780487804878,41.209349593495936 42.733739837398375,41.260162601626014 42.3780487804878,41.41260162601626 42.02235772357724,41.5650406504065 41.61585365853659,41.71747967479675 41.260162601626014,41.86991869918699 40.90447154471545,42.02235772357724 40.548780487804876,42.1239837398374 40.24390243902439,42.22560975609756 39.989837398373986,42.327235772357724 39.735772357723576,42.42886178861789 39.53252032520325,42.53048780487805 39.27845528455285,42.63211382113821 39.02439024390244,42.733739837398375 38.71951219512195,42.886178861788615 38.36382113821138,43.03861788617886 38.00813008130081,43.24186991869919 37.65243902439024,43.44512195121951 37.296747967479675,43.64837398373984 37.09349593495935,43.80081300813008 36.890243902439025,43.953252032520325 36.73780487804878,44.105691056910565 36.58536585365854,44.25813008130081 36.483739837398375,44.41056910569105 36.33130081300813,44.5630081300813 36.17886178861789,44.766260162601625 36.02642276422764,44.918699186991866 35.823170731707314,45.12195121951219 35.61991869918699,45.3760162601626 35.46747967479675,45.579268292682926 35.264227642276424,45.88414634146341 35.16260162601626,46.13821138211382 35.010162601626014,46.392276422764226 34.857723577235774,46.697154471544714 34.75609756097561,46.951219512195124 34.603658536585364,47.15447154471545 34.5020325203252,47.459349593495936 34.40040650406504,47.71341463414634 34.298780487804876,48.01829268292683 34.197154471544714,48.323170731707314 34.146341463414636,48.577235772357724 34.04471544715447,48.83130081300813 33.99390243902439,49.08536585365854 33.99390243902439,49.28861788617886 33.94308943089431,49.542682926829265 33.84146341463415,49.84756097560975 33.84146341463415,50.15243902439024 33.790650406504064,50.45731707317073 33.739837398373986,50.762195121951216 33.739837398373986,50.96544715447154" fill="none" stroke="black" stroke-width="0.6"></polyline><polyline points="33.739837398373986,50.96544715447154 33.739837398373986,51.11788617886179 33.739837398373986,51.32113821138211 33.739837398373986,51.52439024390244 33.790650406504064,51.72764227642276 33.790650406504064,51.93089430894309 33.790650406504064,52.13414634146341 33.790650406504064,52.38821138211382 33.790650406504064,52.59146341463415 33.790650406504064,52.84552845528455 33.790650406504064,53.048780487804876 33.790650406504064,53.2520325203252 33.84146341463415,53.45528455284553 33.84146341463415,53.607723577235774 33.892276422764226,53.86178861788618 33.94308943089431,54.0650406504065 33.99390243902439,54.36991869918699 34.04471544715447,54.67479674796748 34.04471544715447,54.979674796747965 34.146341463414636,55.233739837398375 34.197154471544714,55.48780487804878 34.2479674796748,55.6910569105691 34.34959349593496,55.84349593495935 34.40040650406504,56.046747967479675 34.5020325203252,56.199186991869915 34.552845528455286,56.35162601626016 34.65447154471545,56.605691056910565 34.70528455284553,56.859756097560975 34.80691056910569,57.16463414634146 34.857723577235774,57.46951219512195 34.90853658536585,57.72357723577235 35.010162601626014,57.97764227642276 35.11178861788618,58.231707317073166 35.16260162601626,58.485772357723576 35.264227642276424,58.6890243902439 35.36585365853659,58.99390243902439 35.46747967479675,59.2479674796748 35.56910569105691,59.552845528455286 35.670731707317074,59.80691056910569 35.823170731707314,60.0609756097561 35.92479674796748,60.264227642276424 36.02642276422764,60.46747967479675 36.1280487804878,60.61991869918699 36.17886178861789,60.77235772357724 36.28048780487805,60.8739837398374 36.38211382113821,61.02642276422764 36.483739837398375,61.17886178861789 36.58536585365854,61.33130081300813 36.6869918699187,61.43292682926829 36.78861788617886,61.58536585365854 36.890243902439025,61.6869918699187" fill="none" stroke="black" stroke-width="0.6"></polyline><polyline points="36.890243902439025,61.6869918699187 36.99186991869919,61.83943089430894 37.09349593495935,61.9410569105691 37.14430894308943,62.042682926829265 37.19512195121951,62.09349593495935 37.296747967479675,62.19512195121951 37.34756097560975,62.296747967479675 37.449186991869915,62.34756097560975 37.55081300813008,62.449186991869915 37.60162601626016,62.55081300813008 37.65243902439024,62.60162601626016 37.7540650406504,62.65243902439024 37.80487804878049,62.703252032520325 37.855691056910565,62.7540650406504 37.90650406504065,62.855691056910565 38.00813008130081,62.90650406504065 38.05894308943089,63.00813008130081 38.16056910569105,63.109756097560975 38.262195121951216,63.21138211382114 38.3130081300813,63.3130081300813 38.41463414634146,63.41463414634146 38.516260162601625,63.516260162601625 38.5670731707317,63.61788617886179 38.668699186991866,63.71951219512195 38.77032520325203,63.82113821138211 38.87195121951219,63.922764227642276 38.97357723577235,64.02439024390243 39.02439024390244,64.1260162601626 39.1260162601626,64.22764227642276 39.176829268292686,64.32926829268293 39.27845528455285,64.380081300813 39.329268292682926,64.48170731707317 39.43089430894309,64.58333333333333 39.48170731707317,64.6341463414634 39.583333333333336,64.73577235772358 39.63414634146341,64.78658536585365 39.735772357723576,64.83739837398373 39.78658536585366,64.9390243902439 39.88821138211382,64.98983739837398 39.989837398373986,65.04065040650406 40.09146341463415,65.09146341463415 40.24390243902439,65.1930894308943 40.34552845528455,65.29471544715447 40.4979674796748,65.34552845528455 40.65040650406504,65.39634146341463 40.7520325203252,65.4979674796748 40.853658536585364,65.54878048780488 41.00609756097561,65.59959349593495 41.15853658536585,65.65040650406505 41.260162601626014,65.70121951219512 41.41260162601626,65.70121951219512" fill="none" stroke="black" stroke-width="0.6"></polyline><polyline points="41.41260162601626,65.70121951219512 41.5650406504065,65.7520325203252 41.666666666666664,65.7520325203252 41.76829268292683,65.7520325203252 41.86991869918699,65.7520325203252 41.920731707317074,65.7520325203252 42.02235772357724,65.80284552845528 42.073170731707314,65.80284552845528 42.17479674796748,65.85365853658537 42.22560975609756,65.85365853658537 42.327235772357724,65.90447154471545 42.3780487804878,65.95528455284553 42.479674796747965,66.0060975609756 42.53048780487805,66.0060975609756 42.68292682926829,66.0569105691057 42.78455284552845,66.10772357723577 42.886178861788615,66.15853658536585 43.03861788617886,66.20934959349593 43.1910569105691,66.26016260162602 43.292682926829265,66.3109756097561 43.44512195121951,66.3109756097561 43.59756097560975,66.36178861788618 43.75,66.36178861788618 43.953252032520325,66.36178861788618 44.20731707317073,66.36178861788618 44.46138211382114,66.3109756097561 44.71544715447154,66.3109756097561 44.918699186991866,66.26016260162602 45.07113821138211,66.26016260162602 45.27439024390244,66.26016260162602 45.42682926829268,66.20934959349593 45.579268292682926,66.20934959349593 45.78252032520325,66.20934959349593 45.9349593495935,66.20934959349593 46.1890243902439,66.15853658536585 46.54471544715447,66.10772357723577 46.90040650406504,66.10772357723577 47.25609756097561,66.0569105691057 47.61178861788618,66.0569105691057 47.96747967479675,66.0060975609756 48.27235772357724,65.95528455284553 48.67886178861789,65.90447154471545 48.983739837398375,65.85365853658537 49.33943089430894,65.80284552845528 49.69512195121951,65.7520325203252 50.05081300813008,65.70121951219512 50.40650406504065,65.65040650406505 50.71138211382114,65.59959349593495 50.96544715447154,65.54878048780488 51.168699186991866,65.4979674796748 51.422764227642276,65.44715447154472" fill="none" stroke="black" stroke-width="0.6"></polyline><polyline points="51.422764227642276,65.44715447154472 51.575203252032516,65.44715447154472 51.72764227642276,65.39634146341463 51.93089430894309,65.34552845528455 52.13414634146341,65.2439024390244 52.33739837398374,65.14227642276423 52.59146341463415,65.04065040650406 52.74390243902439,64.98983739837398 52.947154471544714,64.88821138211382 53.15040650406504,64.78658536585365 53.353658536585364,64.6849593495935 53.50609756097561,64.58333333333333 53.709349593495936,64.53252032520325 53.91260162601626,64.43089430894308 54.11585365853659,64.32926829268293 54.36991869918699,64.27845528455285 54.573170731707314,64.17682926829268 54.77642276422764,64.07520325203252 54.979674796747965,64.02439024390243 55.18292682926829,63.97357723577235 55.33536585365854,63.922764227642276 55.53861788617886,63.82113821138211 55.74186991869919,63.77032520325203 55.99593495934959,63.668699186991866 56.40243902439024,63.516260162601625 56.80894308943089,63.36382113821138 57.266260162601625,63.16056910569105 57.672764227642276,63.00813008130081 57.97764227642276,62.90650406504065 58.33333333333333,62.7540650406504 58.58739837398374,62.703252032520325 58.84146341463415,62.60162601626016 59.09552845528455,62.449186991869915 59.34959349593496,62.34756097560975 59.603658536585364,62.19512195121951 59.90853658536585,62.042682926829265 60.21341463414634,61.83943089430894 60.46747967479675,61.636178861788615 60.77235772357724,61.38211382113821 60.97560975609756,61.229674796747965 61.17886178861789,60.97560975609756 61.38211382113821,60.77235772357724 61.483739837398375,60.56910569105691 61.636178861788615,60.416666666666664 61.78861788617886,60.21341463414634 61.9410569105691,60.010162601626014 62.14430894308943,59.75609756097561 62.296747967479675,59.5020325203252 62.449186991869915,59.298780487804876 62.60162601626016,59.04471544715447 62.7540650406504,58.739837398373986" fill="none" stroke="black" stroke-width="0.6"></polyline><polyline points="62.7540650406504,58.739837398373986 62.90650406504065,58.485772357723576 63.00813008130081,58.18089430894309 63.109756097560975,57.92682926829268 63.16056910569105,57.72357723577235 63.21138211382114,57.52032520325203 63.262195121951216,57.266260162601625 63.36382113821138,57.012195121951216 63.41463414634146,56.75813008130081 63.516260162601625,56.453252032520325 63.61788617886179,56.14837398373984 63.71951219512195,55.89430894308943 63.77032520325203,55.640243902439025 63.82113821138211,55.4369918699187 63.87195121951219,55.233739837398375 63.87195121951219,55.08130081300813 63.922764227642276,54.8780487804878 63.922764227642276,54.67479674796748 63.922764227642276,54.420731707317074 63.922764227642276,54.166666666666664 63.97357723577235,53.91260162601626 63.97357723577235,53.65853658536585 63.97357723577235,53.45528455284553 64.02439024390243,53.201219512195124 64.02439024390243,52.9979674796748 64.07520325203252,52.74390243902439 64.1260162601626,52.4390243902439 64.1260162601626,52.083333333333336 64.1260162601626,51.77845528455284 64.1260162601626,51.52439024390244 64.1260162601626,51.27032520325203 64.1260162601626,51.016260162601625 64.1260162601626,50.8130081300813 64.1260162601626,50.609756097560975 64.07520325203252,50.355691056910565 64.07520325203252,50.10162601626016 64.07520325203252,49.796747967479675 64.07520325203252,49.542682926829265 64.07520325203252,49.28861788617886 64.02439024390243,48.983739837398375 63.97357723577235,48.67886178861789 63.922764227642276,48.3739837398374 63.922764227642276,48.06910569105691 63.87195121951219,47.66260162601626 63.82113821138211,47.30691056910569 63.82113821138211,46.951219512195124 63.77032520325203,46.697154471544714 63.71951219512195,46.392276422764226 63.668699186991866,46.08739837398374 63.5670731707317,45.833333333333336 63.516260162601625,45.47764227642276" fill="none" stroke="black" stroke-width="0.6"></polyline><polyline points="63.516260162601625,45.47764227642276 63.46544715447154,45.172764227642276 63.36382113821138,44.86788617886179 63.262195121951216,44.5630081300813 63.21138211382114,44.30894308943089 63.109756097560975,44.05487804878049 63.00813008130081,43.75 62.90650406504065,43.49593495934959 62.7540650406504,43.1910569105691 62.60162601626016,42.83536585365854 62.39837398373984,42.58130081300813 62.24593495934959,42.3780487804878 62.09349593495935,42.1239837398374 61.9410569105691,41.920731707317074 61.78861788617886,41.71747967479675 61.636178861788615,41.514227642276424 61.483739837398375,41.3109756097561 61.28048780487805,41.15853658536585 61.077235772357724,40.90447154471545 60.8739837398374,40.7520325203252 60.670731707317074,40.59959349593496 60.46747967479675,40.447154471544714 60.264227642276424,40.34552845528455 60.010162601626014,40.19308943089431 59.75609756097561,39.989837398373986 59.552845528455286,39.83739837398374 59.40040650406504,39.6849593495935 59.197154471544714,39.53252032520325 58.99390243902439,39.38008130081301 58.790650406504064,39.176829268292686 58.58739837398374,38.97357723577235 58.38414634146341,38.82113821138211 58.18089430894309,38.668699186991866 57.97764227642276,38.5670731707317 57.77439024390244,38.41463414634146 57.57113821138211,38.262195121951216 57.36788617886179,38.16056910569105 57.21544715447154,38.05894308943089 57.0630081300813,37.95731707317073 56.859756097560975,37.855691056910565 56.65650406504065,37.7540650406504 56.453252032520325,37.65243902439024 56.25,37.55081300813008 55.99593495934959,37.449186991869915 55.74186991869919,37.34756097560975 55.4369918699187,37.19512195121951 55.13211382113821,37.09349593495935 54.8780487804878,36.99186991869919 54.6239837398374,36.890243902439025 54.36991869918699,36.83943089430894 54.0650406504065,36.73780487804878" fill="none" stroke="black" stroke-width="0.6"></polyline><polyline points="54.0650406504065,36.73780487804878 53.760162601626014,36.636178861788615 53.45528455284553,36.483739837398375 53.201219512195124,36.38211382113821 52.947154471544714,36.33130081300813 52.69308943089431,36.28048780487805 52.38821138211382,36.229674796747965 52.083333333333336,36.17886178861789 51.72764227642276,36.1280487804878 51.32113821138211,36.077235772357724 50.96544715447154,35.97560975609756 50.609756097560975,35.8739837398374 50.203252032520325,35.72154471544715 49.84756097560975,35.61991869918699 49.49186991869919,35.56910569105691 49.08536585365854,35.51829268292683 48.729674796747965,35.416666666666664 48.3739837398374,35.3150406504065 47.96747967479675,35.264227642276424 47.61178861788618,35.21341463414634 47.25609756097561,35.16260162601626 46.90040650406504,35.11178861788618 46.646341463414636,35.11178861788618 46.392276422764226,35.0609756097561 46.13821138211382,35.010162601626014 45.833333333333336,35.010162601626014 45.42682926829268,35.010162601626014 45.02032520325203,35.010162601626014 44.66463414634146,35.0609756097561 44.30894308943089,35.0609756097561 44.0040650406504,35.11178861788618 43.75,35.16260162601626 43.39430894308943,35.21341463414634 42.9369918699187,35.264227642276424 42.53048780487805,35.3150406504065 42.17479674796748,35.416666666666664 41.666666666666664,35.51829268292683 41.209349593495936,35.61991869918699 40.65040650406504,35.77235772357724 40.040650406504064,35.92479674796748 39.53252032520325,36.077235772357724 39.07520325203252,36.17886178861789 38.61788617886179,36.33130081300813 38.21138211382114,36.43292682926829 37.7540650406504,36.58536585365854 37.24593495934959,36.73780487804878 36.78861788617886,36.9410569105691 36.28048780487805,37.09349593495935 35.77235772357724,37.296747967479675 35.36585365853659,37.449186991869915 35.0609756097561,37.60162601626016" fill="none" stroke="black" stroke-width="0.6"></polyline><polyline points="35.0609756097561,37.60162601626016 34.70528455284553,37.7540650406504 34.451219512195124,37.855691056910565 34.197154471544714,38.00813008130081 33.94308943089431,38.16056910569105 33.739837398373986,38.3130081300813 33.53658536585366,38.46544715447154 33.38414634146341,38.668699186991866 33.28252032520325,38.82113821138211 32.77439024390244,39.63414634146341 32.418699186991866,40.09146341463415 32.266260162601625,40.29471544715447 32.0630081300813,40.4979674796748 31.910569105691057,40.701219512195124 31.70731707317073,40.853658536585364 31.554878048780488,41.05691056910569 31.402439024390244,41.260162601626014 31.25,41.46341463414634 31.097560975609756,41.666666666666664 30.995934959349594,41.86991869918699 30.89430894308943,42.073170731707314 30.741869918699187,42.22560975609756 30.640243902439025,42.42886178861789 30.48780487804878,42.63211382113821 30.335365853658537,42.83536585365854 30.233739837398375,43.03861788617886 30.08130081300813,43.292682926829265 29.928861788617887,43.546747967479675 29.776422764227643,43.80081300813008 29.67479674796748,44.05487804878049 29.573170731707318,44.30894308943089 29.471544715447155,44.512195121951216 29.420731707317074,44.766260162601625 29.31910569105691,44.918699186991866 29.268292682926827,45.12195121951219 29.217479674796746,45.3760162601626 29.115853658536583,45.579268292682926 29.0650406504065,45.833333333333336 29.01422764227642,46.13821138211382 28.96341463414634,46.34146341463415 28.912601626016258,46.59552845528455 28.861788617886177,46.84959349593496 28.861788617886177,47.052845528455286 28.810975609756095,47.30691056910569 28.760162601626014,47.61178861788618 28.709349593495933,47.916666666666664 28.65853658536585,48.22154471544715 28.65853658536585,48.6280487804878 28.60772357723577,48.93292682926829 28.55691056910569,49.23780487804878 28.455284552845526,49.542682926829265" fill="none" stroke="black" stroke-width="0.6"></polyline><polyline points="28.455284552845526,49.542682926829265 28.404471544715445,49.84756097560975 28.353658536585364,50.203252032520325 28.2520325203252,50.55894308943089 28.2520325203252,50.86382113821138 28.20121951219512,51.21951219512195 28.15040650406504,51.52439024390244 28.15040650406504,51.829268292682926 28.099593495934958,52.1849593495935 28.099593495934958,52.540650406504064 28.099593495934958,52.84552845528455 28.048780487804876,53.201219512195124 28.048780487804876,53.50609756097561 28.048780487804876,53.8109756097561 28.048780487804876,54.11585365853659 28.048780487804876,54.47154471544715 28.048780487804876,54.827235772357724 28.048780487804876,55.13211382113821 28.048780487804876,55.4369918699187 28.099593495934958,55.74186991869919 28.15040650406504,55.99593495934959 28.20121951219512,56.35162601626016 28.2520325203252,56.605691056910565 28.302845528455283,56.91056910569105 28.353658536585364,57.266260162601625 28.404471544715445,57.52032520325203 28.455284552845526,57.77439024390244 28.506097560975608,58.079268292682926 28.55691056910569,58.33333333333333 28.60772357723577,58.63821138211382 28.65853658536585,58.94308943089431 28.760162601626014,59.2479674796748 28.810975609756095,59.5020325203252 28.912601626016258,59.75609756097561 29.01422764227642,59.959349593495936 29.0650406504065,60.16260162601626 29.166666666666664,60.36585365853659 29.268292682926827,60.56910569105691 29.31910569105691,60.72154471544715 29.420731707317074,60.92479674796748 29.522357723577237,61.1280487804878 29.573170731707318,61.28048780487805 29.67479674796748,61.43292682926829 29.776422764227643,61.58536585365854 29.827235772357724,61.73780487804878 29.928861788617887,61.9410569105691 30.03048780487805,62.09349593495935 30.132113821138212,62.296747967479675 30.233739837398375,62.449186991869915 30.284552845528456,62.65243902439024 30.38617886178862,62.855691056910565" fill="none" stroke="black" stroke-width="0.6"></polyline><polyline points="30.38617886178862,62.855691056910565 30.48780487804878,63.05894308943089 30.589430894308943,63.262195121951216 30.691056910569106,63.516260162601625 30.79268292682927,63.71951219512195 30.89430894308943,63.922764227642276 30.995934959349594,64.1260162601626 31.097560975609756,64.27845528455285 31.25,64.48170731707317 31.402439024390244,64.6341463414634 31.504065040650406,64.83739837398373 31.60569105691057,64.98983739837398 31.758130081300813,65.1930894308943 31.859756097560975,65.39634146341463 31.961382113821138,65.59959349593495 32.11382113821138,65.80284552845528 32.21544715447154,65.95528455284553 32.36788617886179,66.15853658536585 32.52032520325203,66.3109756097561 32.6219512195122,66.46341463414635 32.77439024390244,66.61585365853658 32.926829268292686,66.8191056910569 33.02845528455285,66.97154471544715 33.18089430894309,67.07317073170732 33.333333333333336,67.27642276422765 33.4349593495935,67.42886178861788 33.58739837398374,67.58130081300813 33.790650406504064,67.78455284552845 33.94308943089431,67.9369918699187 34.146341463414636,68.08943089430895 34.40040650406504,68.24186991869918 34.603658536585364,68.39430894308943 34.857723577235774,68.54674796747967 35.0609756097561,68.69918699186992 35.264227642276424,68.80081300813008 35.46747967479675,68.95325203252033 35.670731707317074,69.10569105691057 35.8739837398374,69.20731707317073 36.1280487804878,69.35975609756098 36.38211382113821,69.51219512195122 36.58536585365854,69.66463414634146 36.78861788617886,69.76626016260163 37.042682926829265,69.91869918699187 37.24593495934959,70.02032520325203 37.39837398373984,70.1219512195122 37.60162601626016,70.22357723577235 37.80487804878049,70.32520325203252 38.00813008130081,70.42682926829268 38.21138211382114,70.52845528455285 38.41463414634146,70.630081300813 38.61788617886179,70.68089430894308" fill="none" stroke="black" stroke-width="0.6"></polyline><polyline points="38.61788617886179,70.68089430894308 38.87195121951219,70.78252032520325 39.07520325203252,70.83333333333333 39.329268292682926,70.9349593495935 39.63414634146341,70.98577235772358 39.88821138211382,71.03658536585365 40.19308943089431,71.08739837398373 40.4979674796748,71.13821138211382 40.7520325203252,71.1890243902439 41.00609756097561,71.29065040650406 41.3109756097561,71.34146341463415 41.5650406504065,71.39227642276423 41.76829268292683,71.4430894308943 42.073170731707314,71.49390243902438 42.327235772357724,71.54471544715447 42.58130081300813,71.59552845528455 42.83536585365854,71.59552845528455 43.140243902439025,71.64634146341463 43.49593495934959,71.69715447154472 43.80081300813008,71.69715447154472 44.15650406504065,71.69715447154472 44.512195121951216,71.69715447154472 44.86788617886179,71.64634146341463 45.22357723577235,71.64634146341463 45.73170731707317,71.59552845528455 46.239837398373986,71.49390243902438 46.84959349593496,71.39227642276423 47.459349593495936,71.34146341463415 47.916666666666664,71.29065040650406 48.27235772357724,71.29065040650406 48.6280487804878,71.23983739837398 48.93292682926829,71.1890243902439 49.33943089430894,71.08739837398373 49.69512195121951,71.03658536585365 50,70.9349593495935 50.2540650406504,70.8841463414634 50.50813008130081,70.83333333333333 50.71138211382114,70.73170731707317 50.96544715447154,70.68089430894308 51.21951219512195,70.57926829268293 51.422764227642276,70.52845528455285 51.6260162601626,70.42682926829268 51.880081300813,70.32520325203252 52.13414634146341,70.27439024390243 52.33739837398374,70.17276422764228 52.642276422764226,70.0711382113821 52.84552845528455,69.96951219512195 53.048780487804876,69.91869918699187 53.2520325203252,69.8170731707317 53.45528455284553,69.71544715447155 53.65853658536585,69.66463414634146" fill="none" stroke="black" stroke-width="0.6"></polyline><polyline points="53.65853658536585,69.66463414634146 53.91260162601626,69.5630081300813 54.166666666666664,69.46138211382113 54.36991869918699,69.41056910569105 54.6239837398374,69.3089430894309 54.827235772357724,69.2581300813008 55.03048780487805,69.15650406504065 55.28455284552845,69.05487804878048 55.58943089430894,68.90243902439025 55.84349593495935,68.80081300813008 56.14837398373984,68.69918699186992 56.40243902439024,68.59756097560975 56.70731707317073,68.4959349593496 56.96138211382114,68.34349593495935 57.21544715447154,68.24186991869918 57.46951219512195,68.08943089430895 57.72357723577235,67.9369918699187 57.97764227642276,67.83536585365853 58.18089430894309,67.6829268292683 58.43495934959349,67.58130081300813 58.58739837398374,67.42886178861788 58.739837398373986,67.32723577235772 58.892276422764226,67.22560975609755 58.99390243902439,67.1239837398374 59.09552845528455,66.97154471544715 59.2479674796748,66.869918699187 59.34959349593496,66.71747967479675 59.5020325203252,66.61585365853658 59.65447154471545,66.46341463414635 59.80691056910569,66.3109756097561 59.959349593495936,66.15853658536585 60.11178861788618,66.0060975609756 60.3150406504065,65.85365853658537 60.46747967479675,65.70121951219512 60.61991869918699,65.54878048780488 60.823170731707314,65.39634146341463 60.97560975609756,65.2439024390244 61.1280487804878,65.09146341463415 61.28048780487805,64.9390243902439 61.483739837398375,64.78658536585365 61.636178861788615,64.6341463414634 61.73780487804878,64.48170731707317 61.9410569105691,64.32926829268293 62.19512195121951,64.1260162601626 62.449186991869915,63.922764227642276 62.7540650406504,63.71951219512195 63.00813008130081,63.46544715447154 63.262195121951216,63.262195121951216 63.516260162601625,63.00813008130081 63.77032520325203,62.7540650406504 64.02439024390243,62.55081300813008" fill="none" stroke="black" stroke-width="0.6"></polyline><polyline points="64.02439024390243,62.55081300813008 64.27845528455285,62.296747967479675 64.48170731707317,62.09349593495935 64.6849593495935,61.83943089430894 64.98983739837398,61.53455284552845 65.2439024390244,61.28048780487805 65.4979674796748,61.02642276422764 65.7520325203252,60.670731707317074 65.95528455284553,60.416666666666664 66.20934959349593,60.16260162601626 66.41260162601625,59.90853658536585 66.66666666666667,59.65447154471545 66.869918699187,59.40040650406504 67.07317073170732,59.09552845528455 67.27642276422765,58.790650406504064 67.47967479674797,58.485772357723576 67.73373983739837,58.18089430894309 67.9369918699187,57.92682926829268 68.14024390243902,57.62195121951219 68.34349593495935,57.36788617886179 68.54674796747967,57.11382113821138 68.75,56.80894308943089 68.95325203252033,56.5040650406504 69.05487804878048,56.25 69.15650406504065,55.99593495934959 69.3089430894309,55.6910569105691 69.41056910569105,55.4369918699187 69.5630081300813,55.18292682926829 69.66463414634146,54.8780487804878 69.76626016260163,54.6239837398374 69.86788617886178,54.31910569105691 69.96951219512195,53.96341463414634 70.02032520325203,53.65853658536585 70.1219512195122,53.40447154471545 70.17276422764228,53.048780487804876 70.22357723577235,52.74390243902439 70.22357723577235,52.4390243902439 70.27439024390243,52.083333333333336 70.27439024390243,51.77845528455284 70.27439024390243,51.422764227642276 70.32520325203252,51.11788617886179 70.32520325203252,50.8130081300813 70.32520325203252,50.55894308943089 70.32520325203252,50.203252032520325 70.32520325203252,49.89837398373984 70.27439024390243,49.542682926829265 70.27439024390243,49.1869918699187 70.22357723577235,48.83130081300813 70.17276422764228,48.52642276422764 70.1219512195122,48.170731707317074 70.02032520325203,47.8150406504065" fill="none" stroke="black" stroke-width="0.6"></polyline><polyline points="70.02032520325203,47.8150406504065 69.96951219512195,47.459349593495936 69.91869918699187,47.103658536585364 69.8170731707317,46.798780487804876 69.76626016260163,46.44308943089431 69.66463414634146,46.13821138211382 69.61382113821138,45.78252032520325 69.46138211382113,45.325203252032516 69.35975609756098,44.96951219512195 69.2581300813008,44.5630081300813 69.15650406504065,44.15650406504065 69.05487804878048,43.80081300813008 68.95325203252033,43.39430894308943 68.80081300813008,42.9369918699187 68.69918699186992,42.53048780487805 68.54674796747967,42.1239837398374 68.39430894308943,41.71747967479675 68.24186991869918,41.3109756097561 68.08943089430895,40.853658536585364 67.88617886178862,40.447154471544714 67.6829268292683,40.09146341463415 67.47967479674797,39.735772357723576 67.22560975609755,39.329268292682926 66.97154471544715,38.922764227642276 66.66666666666667,38.516260162601625 66.36178861788618,38.109756097560975 66.10772357723577,37.80487804878049 65.80284552845528,37.449186991869915 65.4979674796748,37.09349593495935 65.1930894308943,36.73780487804878 64.83739837398373,36.38211382113821 64.48170731707317,36.02642276422764 64.17682926829268,35.72154471544715 63.82113821138211,35.36585365853659 63.46544715447154,35.010162601626014 63.109756097560975,34.70528455284553 62.7540650406504,34.34959349593496 62.34756097560975,34.04471544715447 61.9410569105691,33.790650406504064 61.53455284552845,33.53658536585366 61.1280487804878,33.23170731707317 60.72154471544715,32.97764227642276 60.3150406504065,32.72357723577236 59.857723577235774,32.418699186991866 59.451219512195124,32.16463414634146 58.99390243902439,31.910569105691057 58.58739837398374,31.65650406504065 58.130081300813,31.453252032520325 57.672764227642276,31.30081300813008 57.21544715447154,31.097560975609756 56.80894308943089,30.945121951219512" fill="none" stroke="black" stroke-width="0.6"></polyline><polyline points="56.80894308943089,30.945121951219512 56.35162601626016,30.741869918699187 55.84349593495935,30.538617886178862 55.33536585365854,30.38617886178862 54.8780487804878,30.182926829268293 54.36991869918699,30.03048780487805 53.86178861788618,29.878048780487806 53.353658536585364,29.776422764227643 52.84552845528455,29.6239837398374 52.33739837398374,29.522357723577237 51.77845528455284,29.420731707317074 51.21951219512195,29.31910569105691 50.66056910569105,29.268292682926827 50.10162601626016,29.217479674796746 49.542682926829265,29.115853658536583 49.03455284552845,29.0650406504065 48.577235772357724,29.01422764227642 48.01829268292683,28.96341463414634 47.510162601626014,28.912601626016258 47.0020325203252,28.912601626016258 46.44308943089431,28.861788617886177 45.9349593495935,28.861788617886177 45.42682926829268,28.810975609756095 45.02032520325203,28.810975609756095 44.512195121951216,28.810975609756095 43.953252032520325,28.810975609756095 43.44512195121951,28.861788617886177 42.9369918699187,28.861788617886177 42.479674796747965,28.912601626016258 42.1239837398374,28.96341463414634 41.71747967479675,28.96341463414634 41.260162601626014,29.01422764227642 40.853658536585364,29.0650406504065 40.34552845528455,29.166666666666664 39.83739837398374,29.217479674796746 39.329268292682926,29.31910569105691 38.82113821138211,29.420731707317074 38.3130081300813,29.522357723577237 37.90650406504065,29.6239837398374 37.449186991869915,29.725609756097562 36.9410569105691,29.827235772357724 36.53455284552845,29.928861788617887 36.17886178861789,30.03048780487805 35.72154471544715,30.132113821138212 35.36585365853659,30.233739837398375 35.010162601626014,30.38617886178862 34.552845528455286,30.538617886178862 34.146341463414636,30.691056910569106 33.739837398373986,30.89430894308943 33.38414634146341,31.046747967479675 33.079268292682926,31.19918699186992" fill="none" stroke="black" stroke-width="0.6"></polyline><polyline points="33.079268292682926,31.19918699186992 32.72357723577236,31.351626016260163 32.36788617886179,31.504065040650406 31.961382113821138,31.70731707317073 31.65650406504065,31.859756097560975 31.25,32.0630081300813 30.945121951219512,32.266260162601625 30.640243902439025,32.46951219512195 30.335365853658537,32.72357723577236 30.03048780487805,32.97764227642276 29.725609756097562,33.23170731707317 29.420731707317074,33.4349593495935 29.217479674796746,33.63821138211382 28.96341463414634,33.84146341463415 28.65853658536585,34.09552845528455 28.404471544715445,34.298780487804876 28.15040650406504,34.552845528455286 27.896341463414632,34.80691056910569 27.693089430894307,35.0609756097561 27.489837398373982,35.3150406504065 27.286585365853657,35.56910569105691 27.083333333333332,35.823170731707314 26.880081300813007,36.1280487804878 26.6260162601626,36.43292682926829 26.321138211382113,36.78861788617886 26.067073170731707,37.14430894308943 25.711382113821138,37.55081300813008 25.40650406504065,37.90650406504065 25.05081300813008,38.262195121951216 24.695121951219512,38.668699186991866 24.288617886178862,39.07520325203252 23.882113821138212,39.583333333333336 23.475609756097562,39.989837398373986 23.221544715447155,40.29471544715447 23.06910569105691,40.548780487804876 22.916666666666668,40.853658536585364 22.815040650406505,41.107723577235774 22.662601626016258,41.41260162601626 22.560975609756095,41.76829268292683 22.459349593495933,42.073170731707314 22.30691056910569,42.42886178861789 22.205284552845526,42.733739837398375 22.052845528455283,43.140243902439025 21.90040650406504,43.546747967479675 21.747967479674795,44.0040650406504 21.646341463414632,44.359756097560975 21.49390243902439,44.766260162601625 21.392276422764226,45.12195121951219 21.290650406504064,45.47764227642276 21.1890243902439,45.833333333333336 21.13821138211382,46.1890243902439" fill="none" stroke="black" stroke-width="0.6"></polyline><polyline points="21.13821138211382,46.1890243902439 21.08739837398374,46.54471544715447 20.985772357723576,46.90040650406504 20.934959349593495,47.20528455284553 20.884146341463413,47.61178861788618 20.78252032520325,48.06910569105691 20.68089430894309,48.52642276422764 20.630081300813007,48.93292682926829 20.579268292682926,49.33943089430894 20.528455284552845,49.69512195121951 20.528455284552845,50.05081300813008 20.528455284552845,50.45731707317073 20.528455284552845,50.8130081300813 20.477642276422763,51.21951219512195 20.477642276422763,51.575203252032516 20.477642276422763,51.981707317073166 20.477642276422763,52.33739837398374 20.426829268292682,52.79471544715447 20.426829268292682,53.15040650406504 20.426829268292682,53.55691056910569 20.477642276422763,53.91260162601626 20.477642276422763,54.26829268292683 20.528455284552845,54.6239837398374 20.579268292682926,55.03048780487805 20.579268292682926,55.386178861788615 20.630081300813007,55.74186991869919 20.630081300813007,56.14837398373984 20.68089430894309,56.55487804878049 20.73170731707317,56.96138211382114 20.73170731707317,57.46951219512195 20.78252032520325,57.8760162601626 20.833333333333332,58.231707317073166 20.884146341463413,58.63821138211382 20.934959349593495,59.04471544715447 20.985772357723576,59.451219512195124 21.08739837398374,59.80691056910569 21.13821138211382,60.16260162601626 21.239837398373982,60.56910569105691 21.341463414634145,60.97560975609756 21.443089430894307,61.38211382113821 21.49390243902439,61.78861788617886 21.646341463414632,62.19512195121951 21.747967479674795,62.55081300813008 21.849593495934958,62.90650406504065 22.0020325203252,63.3130081300813 22.103658536585364,63.668699186991866 22.256097560975608,64.02439024390243 22.35772357723577,64.380081300813 22.510162601626014,64.6849593495935 22.611788617886177,65.04065040650406 22.764227642276424,65.39634146341463" fill="none" stroke="black" stroke-width="0.6"></polyline><polyline points="22.764227642276424,65.39634146341463 22.916666666666668,65.70121951219512 23.119918699186993,66.0060975609756 23.272357723577237,66.3109756097561 23.475609756097562,66.61585365853658 23.678861788617887,66.869918699187 23.932926829268293,67.1239837398374 24.13617886178862,67.42886178861788 24.339430894308943,67.6829268292683 24.491869918699187,67.98780487804878 24.695121951219512,68.24186991869918 24.898373983739837,68.54674796747967 25.101626016260163,68.80081300813008 25.304878048780488,69.05487804878048 25.558943089430894,69.3089430894309 25.76219512195122,69.5630081300813 25.965447154471544,69.8170731707317 26.21951219512195,70.0711382113821 26.422764227642276,70.32520325203252 26.6260162601626,70.52845528455285 26.829268292682926,70.78252032520325 27.03252032520325,70.98577235772358 27.235772357723576,71.1890243902439 27.489837398373982,71.4430894308943 27.693089430894307,71.64634146341463 27.947154471544714,71.90040650406505 28.15040650406504,72.10365853658537 28.404471544715445,72.3069105691057 28.60772357723577,72.51016260162602 28.861788617886177,72.71341463414635 29.01422764227642,72.91666666666667 29.268292682926827,73.0691056910569 29.522357723577237,73.22154471544715 29.725609756097562,73.3739837398374 29.979674796747968,73.52642276422765 30.233739837398375,73.67886178861788 30.4369918699187,73.83130081300813 30.691056910569106,73.9329268292683 30.995934959349594,74.08536585365853 31.19918699186992,74.1869918699187 31.504065040650406,74.33943089430895 31.758130081300813,74.4410569105691 32.0630081300813,74.54268292682927 32.3170731707317,74.64430894308943 32.6219512195122,74.7459349593496 32.8760162601626,74.84756097560975 33.18089430894309,74.94918699186992 33.4349593495935,75.05081300813008 33.739837398373986,75.15243902439025 33.99390243902439,75.2540650406504 34.298780487804876,75.35569105691057" fill="none" stroke="black" stroke-width="0.6"></polyline><polyline points="34.298780487804876,75.35569105691057 34.552845528455286,75.45731707317073 34.857723577235774,75.5589430894309 35.11178861788618,75.60975609756098 35.36585365853659,75.71138211382113 35.61991869918699,75.8130081300813 35.92479674796748,75.91463414634146 36.229674796747965,76.01626016260163 36.53455284552845,76.0670731707317 36.83943089430894,76.16869918699187 37.14430894308943,76.21951219512195 37.39837398373984,76.27032520325203 37.703252032520325,76.3719512195122 37.95731707317073,76.42276422764228 38.21138211382114,76.47357723577235 38.46544715447154,76.57520325203252 38.71951219512195,76.6260162601626 38.922764227642276,76.67682926829268 39.176829268292686,76.77845528455285 39.38008130081301,76.82926829268293 39.583333333333336,76.880081300813 39.78658536585366,76.93089430894308 39.9390243902439,76.98170731707317 40.142276422764226,77.03252032520325 40.29471544715447,77.08333333333333 40.447154471544714,77.1341463414634 40.65040650406504,77.1849593495935 40.853658536585364,77.28658536585365 41.05691056910569,77.33739837398373 41.260162601626014,77.38821138211382 41.46341463414634,77.4390243902439 41.666666666666664,77.48983739837398 41.86991869918699,77.54065040650406 42.073170731707314,77.54065040650406 42.327235772357724,77.59146341463415 42.58130081300813,77.6930894308943 42.78455284552845,77.74390243902438 43.03861788617886,77.79471544715447 43.34349593495935,77.84552845528455 43.59756097560975,77.84552845528455 43.80081300813008,77.89634146341463 44.105691056910565,77.89634146341463 44.30894308943089,77.89634146341463 44.512195121951216,77.9471544715447 44.766260162601625,77.9471544715447 44.96951219512195,77.9471544715447 45.172764227642276,77.9471544715447 45.3760162601626,77.9471544715447 45.579268292682926,77.9471544715447 45.78252032520325,77.9471544715447 46.03658536585366,77.9471544715447" fill="none" stroke="black" stroke-width="0.6"></polyline><polyline points="46.03658536585366,77.9471544715447 46.239837398373986,77.9471544715447 46.49390243902439,77.9471544715447 46.7479674796748,77.9471544715447 47.052845528455286,77.89634146341463 47.357723577235774,77.89634146341463 47.66260162601626,77.84552845528455 47.916666666666664,77.84552845528455 48.170731707317074,77.79471544715447 48.42479674796748,77.79471544715447 48.6280487804878,77.74390243902438 48.88211382113821,77.6930894308943 49.136178861788615,77.64227642276423 49.4410569105691,77.59146341463415 49.69512195121951,77.54065040650406 49.949186991869915,77.48983739837398 50.15243902439024,77.4390243902439 50.355691056910565,77.38821138211382 50.55894308943089,77.33739837398373 50.762195121951216,77.28658536585365 50.96544715447154,77.1849593495935 51.11788617886179,77.1341463414634 51.32113821138211,77.03252032520325 51.575203252032516,76.93089430894308 51.880081300813,76.77845528455285 52.235772357723576,76.57520325203252 52.540650406504064,76.42276422764228 52.896341463414636,76.21951219512195 53.201219512195124,76.0670731707317 53.45528455284553,75.91463414634146 53.709349593495936,75.8130081300813 53.96341463414634,75.66056910569105 54.21747967479675,75.5081300813008 54.47154471544715,75.35569105691057 54.72560975609756,75.20325203252033 55.08130081300813,75 55.4369918699187,74.7459349593496 55.792682926829265,74.54268292682927 56.14837398373984,74.33943089430895 56.5040650406504,74.03455284552845 56.91056910569105,73.78048780487805 57.266260162601625,73.52642276422765 57.62195121951219,73.32317073170732 58.02845528455284,73.0691056910569 58.485772357723576,72.76422764227642 59.04471544715447,72.51016260162602 59.5020325203252,72.2560975609756 59.90853658536585,72.0020325203252 60.21341463414634,71.7479674796748 60.56910569105691,71.4430894308943 61.02642276422764,71.13821138211382" fill="none" stroke="black" stroke-width="0.6"></polyline><polyline points="61.02642276422764,71.13821138211382 61.38211382113821,70.8841463414634 61.636178861788615,70.68089430894308 61.83943089430894,70.47764227642276 61.99186991869919,70.32520325203252 62.14430894308943,70.1219512195122 62.34756097560975,69.86788617886178 62.60162601626016,69.66463414634146 62.855691056910565,69.41056910569105 63.05894308943089,69.20731707317073 63.16056910569105,69.0040650406504 63.3130081300813,68.85162601626016 63.5670731707317,68.59756097560975 63.77032520325203,68.39430894308943 64.02439024390243,68.14024390243902 64.32926829268293,67.88617886178862 64.53252032520325,67.6321138211382 64.6849593495935,67.42886178861788 64.83739837398373,67.22560975609755 64.9390243902439,67.02235772357723 65.09146341463415,66.8191056910569 65.29471544715447,66.5650406504065 65.59959349593495,66.3109756097561 65.90447154471545,66.0060975609756 66.20934959349593,65.7520325203252 66.46341463414635,65.54878048780488 66.66666666666667,65.2439024390244 67.02235772357723,64.9390243902439 67.27642276422765,64.6849593495935 67.58130081300813,64.43089430894308 67.83536585365853,64.17682926829268 68.08943089430895,63.97357723577235 68.24186991869918,63.71951219512195 68.4451219512195,63.46544715447154 68.64837398373983,63.21138211382114 68.80081300813008,62.90650406504065 69.0040650406504,62.65243902439024 69.10569105691057,62.39837398373984 69.20731707317073,62.14430894308943 69.2581300813008,61.890243902439025 69.35975609756098,61.6869918699187 69.41056910569105,61.483739837398375 69.46138211382113,61.229674796747965 69.51219512195122,60.97560975609756 69.61382113821138,60.72154471544715 69.71544715447155,60.416666666666664 69.8170731707317,60.21341463414634 69.86788617886178,59.959349593495936 69.91869918699187,59.75609756097561 69.96951219512195,59.5020325203252 70.02032520325203,59.2479674796748" fill="none" stroke="black" stroke-width="0.6"></polyline><polyline points="70.02032520325203,59.2479674796748 70.0711382113821,58.94308943089431 70.1219512195122,58.6890243902439 70.22357723577235,58.33333333333333 70.3760162601626,58.02845528455284 70.42682926829268,57.72357723577235 70.52845528455285,57.46951219512195 70.57926829268293,57.16463414634146 70.630081300813,56.91056910569105 70.68089430894308,56.605691056910565 70.73170731707317,56.30081300813008 70.83333333333333,55.94512195121951 70.9349593495935,55.640243902439025 71.03658536585365,55.33536585365854 71.08739837398373,55.03048780487805 71.1890243902439,54.72560975609756 71.23983739837398,54.420731707317074 71.29065040650406,54.0650406504065 71.39227642276423,53.65853658536585 71.4430894308943,53.353658536585364 71.54471544715447,53.048780487804876 71.59552845528455,52.69308943089431 71.64634146341463,52.38821138211382 71.69715447154472,52.03252032520325 71.69715447154472,51.67682926829268 71.7479674796748,51.32113821138211 71.79878048780488,51.016260162601625 71.84959349593495,50.609756097560975 71.84959349593495,50.30487804878049 71.84959349593495,49.949186991869915 71.84959349593495,49.542682926829265 71.79878048780488,49.23780487804878 71.7479674796748,48.93292682926829 71.69715447154472,48.6280487804878 71.64634146341463,48.323170731707314 71.64634146341463,48.01829268292683 71.59552845528455,47.61178861788618 71.54471544715447,47.25609756097561 71.4430894308943,46.90040650406504 71.39227642276423,46.54471544715447 71.34146341463415,46.1890243902439 71.23983739837398,45.78252032520325 71.1890243902439,45.325203252032516 71.08739837398373,44.96951219512195 71.03658536585365,44.5630081300813 70.98577235772358,44.105691056910565 70.8841463414634,43.699186991869915 70.83333333333333,43.24186991869919 70.73170731707317,42.68292682926829 70.630081300813,42.27642276422764 70.52845528455285,41.86991869918699" fill="none" stroke="black" stroke-width="0.6"></polyline><polyline points="70.52845528455285,41.86991869918699 70.42682926829268,41.41260162601626 70.27439024390243,40.95528455284553 70.17276422764228,40.4979674796748 70.02032520325203,40.040650406504064 69.86788617886178,39.63414634146341 69.71544715447155,39.176829268292686 69.51219512195122,38.668699186991866 69.35975609756098,38.262195121951216 69.15650406504065,37.80487804878049 68.95325203252033,37.34756097560975 68.75,36.890243902439025 68.54674796747967,36.38211382113821 68.29268292682927,35.92479674796748 68.08943089430895,35.51829268292683 67.83536585365853,35.0609756097561 67.58130081300813,34.603658536585364 67.27642276422765,34.146341463414636 66.97154471544715,33.739837398373986 66.61585365853658,33.28252032520325 66.3109756097561,32.8760162601626 65.95528455284553,32.418699186991866 65.59959349593495,31.961382113821138 65.29471544715447,31.60569105691057 64.9390243902439,31.19918699186992 64.53252032520325,30.741869918699187 64.1260162601626,30.335365853658537 63.668699186991866,29.928861788617887 63.21138211382114,29.522357723577237 62.80487804878049,29.166666666666664 62.34756097560975,28.760162601626014 61.83943089430894,28.353658536585364 61.43292682926829,27.997967479674795 61.077235772357724,27.642276422764226 60.72154471544715,27.286585365853657 60.3150406504065,27.03252032520325 59.857723577235774,26.676829268292682 59.451219512195124,26.422764227642276 59.04471544715447,26.067073170731707 58.58739837398374,25.76219512195122 58.18089430894309,25.508130081300813 57.72357723577235,25.254065040650406 57.266260162601625,25 56.859756097560975,24.745934959349594 56.40243902439024,24.54268292682927 55.84349593495935,24.288617886178862 55.33536585365854,24.085365853658537 54.827235772357724,23.882113821138212 54.26829268292683,23.678861788617887 53.760162601626014,23.475609756097562 53.2520325203252,23.323170731707318" fill="none" stroke="black" stroke-width="0.6"></polyline><polyline points="53.2520325203252,23.323170731707318 52.642276422764226,23.170731707317074 52.1849593495935,23.01829268292683 51.67682926829268,22.916666666666668 51.168699186991866,22.764227642276424 50.71138211382114,22.71341463414634 50.203252032520325,22.611788617886177 49.59349593495935,22.560975609756095 49.08536585365854,22.510162601626014 48.52642276422764,22.459349593495933 47.96747967479675,22.40853658536585 47.40853658536585,22.35772357723577 46.84959349593496,22.35772357723577 46.239837398373986,22.30691056910569 45.73170731707317,22.30691056910569 45.22357723577235,22.256097560975608 44.61382113821138,22.256097560975608 44.105691056910565,22.256097560975608 43.59756097560975,22.256097560975608 43.03861788617886,22.256097560975608 42.53048780487805,22.256097560975608 41.97154471544715,22.256097560975608 41.46341463414634,22.30691056910569 41.00609756097561,22.30691056910569 40.447154471544714,22.35772357723577 39.78658536585366,22.40853658536585 39.176829268292686,22.510162601626014 38.5670731707317,22.611788617886177 38.05894308943089,22.662601626016258 37.65243902439024,22.71341463414634 37.24593495934959,22.764227642276424 36.73780487804878,22.815040650406505 36.229674796747965,22.916666666666668 35.77235772357724,22.96747967479675 35.3150406504065,23.06910569105691 34.90853658536585,23.170731707317074 34.451219512195124,23.272357723577237 33.94308943089431,23.3739837398374 33.485772357723576,23.526422764227643 33.02845528455285,23.678861788617887 32.6219512195122,23.78048780487805 32.16463414634146,23.932926829268293 31.70731707317073,24.085365853658537 31.30081300813008,24.23780487804878 30.945121951219512,24.390243902439025 30.589430894308943,24.54268292682927 30.08130081300813,24.745934959349594 29.573170731707318,24.94918699186992 29.0650406504065,25.152439024390244 28.506097560975608,25.40650406504065 28.048780487804876,25.609756097560975" fill="none" stroke="black" stroke-width="0.6"></polyline><polyline points="28.048780487804876,25.609756097560975 27.591463414634145,25.86382113821138 27.184959349593495,26.117886178861788 26.778455284552845,26.321138211382113 26.321138211382113,26.57520325203252 25.914634146341463,26.829268292682926 25.508130081300813,27.03252032520325 25.101626016260163,27.286585365853657 24.745934959349594,27.489837398373982 24.390243902439025,27.74390243902439 23.983739837398375,27.997967479674795 23.678861788617887,28.2520325203252 23.323170731707318,28.55691056910569 22.916666666666668,28.861788617886177 22.560975609756095,29.115853658536583 22.205284552845526,29.369918699186993 21.849593495934958,29.67479674796748 21.49390243902439,29.928861788617887 21.13821138211382,30.182926829268293 20.73170731707317,30.538617886178862 20.3760162601626,30.89430894308943 20.071138211382113,31.19918699186992 19.715447154471544,31.504065040650406 19.410569105691057,31.808943089430894 19.004065040650406,32.16463414634146 18.546747967479675,32.57113821138211 18.191056910569106,32.926829268292686 17.835365853658537,33.333333333333336 17.479674796747968,33.6890243902439 17.1239837398374,34.04471544715447 16.76829268292683,34.40040650406504 16.41260162601626,34.80691056910569 16.10772357723577,35.16260162601626 15.802845528455284,35.56910569105691 15.497967479674797,35.97560975609756 15.142276422764228,36.38211382113821 14.888211382113822,36.73780487804878 14.583333333333332,37.14430894308943 14.380081300813007,37.5 14.1260162601626,37.90650406504065 13.871951219512194,38.262195121951216 13.66869918699187,38.61788617886179 13.465447154471544,38.97357723577235 13.262195121951219,39.38008130081301 13.109756097560975,39.78658536585366 12.855691056910569,40.19308943089431 12.550813008130081,40.701219512195124 12.296747967479675,41.209349593495936 12.042682926829269,41.71747967479675 11.788617886178862,42.27642276422764 11.585365853658537,42.733739837398375" fill="none" stroke="black" stroke-width="0.6"></polyline><polyline points="11.585365853658537,42.733739837398375 11.432926829268293,43.1910569105691 11.280487804878048,43.699186991869915 11.026422764227641,44.20731707317073 10.823170731707316,44.71544715447154 10.670731707317072,45.12195121951219 10.56910569105691,45.52845528455285 10.467479674796747,45.985772357723576 10.365853658536585,46.44308943089431 10.264227642276422,46.84959349593496 10.213414634146341,47.20528455284553 10.111788617886178,47.66260162601626 10.060975609756097,48.06910569105691 9.959349593495935,48.52642276422764 9.908536585365853,48.983739837398375 9.80691056910569,49.390243902439025 9.75609756097561,49.796747967479675 9.705284552845528,50.203252032520325 9.705284552845528,50.66056910569105 9.705284552845528,51.016260162601625 9.705284552845528,51.47357723577235 9.705284552845528,51.829268292682926 9.654471544715447,52.33739837398374 9.654471544715447,52.74390243902439 9.654471544715447,53.15040650406504 9.654471544715447,53.55691056910569 9.654471544715447,53.91260162601626 9.705284552845528,54.31910569105691 9.705284552845528,54.77642276422764 9.75609756097561,55.13211382113821 9.75609756097561,55.53861788617886 9.75609756097561,55.94512195121951 9.75609756097561,56.35162601626016 9.80691056910569,56.70731707317073 9.80691056910569,57.16463414634146 9.857723577235772,57.52032520325203 9.857723577235772,57.8760162601626 9.908536585365853,58.231707317073166 9.959349593495935,58.536585365853654 9.959349593495935,58.892276422764226 10.010162601626016,59.2479674796748 10.060975609756097,59.552845528455286 10.16260162601626,59.857723577235774 10.213414634146341,60.21341463414634 10.315040650406504,60.51829268292683 10.365853658536585,60.8739837398374 10.467479674796747,61.229674796747965 10.56910569105691,61.53455284552845 10.670731707317072,61.890243902439025 10.772357723577235,62.24593495934959 10.873983739837398,62.55081300813008" fill="none" stroke="black" stroke-width="0.6"></polyline><polyline points="10.873983739837398,62.55081300813008 10.97560975609756,62.855691056910565 11.077235772357723,63.21138211382114 11.178861788617885,63.5670731707317 11.331300813008129,63.87195121951219 11.483739837398375,64.22764227642276 11.636178861788618,64.53252032520325 11.788617886178862,64.83739837398373 11.941056910569106,65.14227642276423 12.144308943089431,65.4979674796748 12.347560975609756,65.85365853658537 12.550813008130081,66.15853658536585 12.754065040650406,66.51422764227642 13.008130081300813,66.869918699187 13.211382113821138,67.22560975609755 13.414634146341463,67.58130081300813 13.617886178861788,67.9369918699187 13.871951219512194,68.34349593495935 14.024390243902438,68.69918699186992 14.278455284552845,69.05487804878048 14.48170731707317,69.41056910569105 14.735772357723578,69.76626016260163 14.939024390243903,70.1219512195122 15.19308943089431,70.47764227642276 15.447154471544716,70.78252032520325 15.701219512195122,71.13821138211382 15.955284552845528,71.4430894308943 16.15853658536585,71.7479674796748 16.41260162601626,72.10365853658537 16.666666666666668,72.45934959349593 16.920731707317074,72.8150406504065 17.225609756097562,73.119918699187 17.479674796747968,73.47560975609755 17.733739837398375,73.78048780487805 17.98780487804878,74.13617886178862 18.29268292682927,74.4410569105691 18.546747967479675,74.79674796747967 18.851626016260163,75.10162601626016 19.10569105691057,75.35569105691057 19.410569105691057,75.66056910569105 19.664634146341463,75.96544715447155 19.91869918699187,76.27032520325203 20.172764227642276,76.57520325203252 20.426829268292682,76.880081300813 20.68089430894309,77.1341463414634 20.934959349593495,77.38821138211382 21.239837398373982,77.64227642276423 21.49390243902439,77.89634146341463 21.747967479674795,78.15040650406505 22.052845528455283,78.40447154471545 22.30691056910569,78.65853658536585" fill="none" stroke="black" stroke-width="0.6"></polyline><polyline points="22.30691056910569,78.65853658536585 22.560975609756095,78.91260162601625 22.865853658536587,79.16666666666667 23.170731707317074,79.369918699187 23.42479674796748,79.6239837398374 23.729674796747968,79.82723577235772 24.034552845528456,80.03048780487805 24.339430894308943,80.23373983739837 24.64430894308943,80.4369918699187 24.898373983739837,80.64024390243902 25.203252032520325,80.84349593495935 25.508130081300813,81.04674796747967 25.76219512195122,81.25 26.016260162601625,81.45325203252033 26.321138211382113,81.65650406504065 26.57520325203252,81.8089430894309 26.829268292682926,82.01219512195122 27.184959349593495,82.16463414634146 27.4390243902439,82.36788617886178 27.74390243902439,82.52032520325203 28.099593495934958,82.72357723577235 28.404471544715445,82.8760162601626 28.709349593495933,83.02845528455285 29.0650406504065,83.23170731707317 29.369918699186993,83.33333333333333 29.67479674796748,83.48577235772358 30.03048780487805,83.63821138211382 30.335365853658537,83.73983739837398 30.691056910569106,83.89227642276423 31.046747967479675,84.04471544715447 31.351626016260163,84.14634146341463 31.70731707317073,84.29878048780488 32.0630081300813,84.45121951219512 32.418699186991866,84.55284552845528 32.77439024390244,84.70528455284553 33.13008130081301,84.85772357723577 33.485772357723576,84.95934959349593 33.84146341463415,85.11178861788618 34.2479674796748,85.21341463414635 34.552845528455286,85.36585365853658 34.90853658536585,85.46747967479675 35.264227642276424,85.619918699187 35.56910569105691,85.72154471544715 35.92479674796748,85.82317073170732 36.33130081300813,85.92479674796748 36.73780487804878,86.02642276422765 37.19512195121951,86.07723577235772 37.65243902439024,86.1280487804878 38.05894308943089,86.22967479674797 38.41463414634146,86.28048780487805 38.82113821138211,86.33130081300813" fill="none" stroke="black" stroke-width="0.6"></polyline><polyline points="38.82113821138211,86.33130081300813 39.176829268292686,86.3821138211382 39.53252032520325,86.4329268292683 39.9390243902439,86.48373983739837 40.29471544715447,86.53455284552845 40.65040650406504,86.58536585365853 41.05691056910569,86.58536585365853 41.41260162601626,86.58536585365853 41.76829268292683,86.63617886178862 42.1239837398374,86.63617886178862 42.42886178861789,86.63617886178862 42.78455284552845,86.63617886178862 43.08943089430894,86.63617886178862 43.39430894308943,86.63617886178862 43.699186991869915,86.58536585365853 44.0040650406504,86.58536585365853 44.30894308943089,86.58536585365853 44.61382113821138,86.53455284552845 44.918699186991866,86.48373983739837 45.27439024390244,86.3821138211382 45.68089430894309,86.33130081300813 46.03658536585366,86.28048780487805 46.34146341463415,86.22967479674797 46.697154471544714,86.17886178861788 46.951219512195124,86.1280487804878 47.25609756097561,86.07723577235772 47.510162601626014,86.02642276422765 47.764227642276424,85.92479674796748 48.01829268292683,85.8739837398374 48.323170731707314,85.77235772357723 48.52642276422764,85.72154471544715 48.83130081300813,85.619918699187 49.136178861788615,85.51829268292683 49.390243902439025,85.41666666666667 49.796747967479675,85.26422764227642 50.203252032520325,85.0609756097561 50.55894308943089,84.90853658536585 50.91463414634146,84.7560975609756 51.27032520325203,84.60365853658537 51.575203252032516,84.5020325203252 51.880081300813,84.34959349593495 52.1849593495935,84.2479674796748 52.489837398373986,84.09552845528455 52.84552845528455,83.9430894308943 53.15040650406504,83.79065040650406 53.45528455284553,83.63821138211382 53.8109756097561,83.4349593495935 54.11585365853659,83.28252032520325 54.420731707317074,83.07926829268293 54.77642276422764,82.8760162601626 55.13211382113821,82.67276422764228" fill="none" stroke="black" stroke-width="0.6"></polyline><polyline points="55.13211382113821,82.67276422764228 55.4369918699187,82.46951219512195 55.6910569105691,82.26626016260163 55.99593495934959,82.11382113821138 56.30081300813008,81.96138211382113 56.55487804878049,81.7581300813008 56.859756097560975,81.60569105691057 57.16463414634146,81.40243902439025 57.46951219512195,81.19918699186992 57.825203252032516,80.9451219512195 58.18089430894309,80.74186991869918 58.536585365853654,80.48780487804878 58.94308943089431,80.1829268292683 59.298780487804876,79.97967479674797 59.70528455284553,79.67479674796748 60.0609756097561,79.47154471544715 60.36585365853659,79.21747967479675 60.670731707317074,79.01422764227642 61.02642276422764,78.76016260162602 61.38211382113821,78.5060975609756 61.73780487804878,78.2520325203252 62.14430894308943,77.9471544715447 62.55081300813008,77.6930894308943 62.855691056910565,77.4390243902439 63.21138211382114,77.1849593495935 63.516260162601625,76.93089430894308 63.82113821138211,76.6260162601626 64.32926829268293,76.27032520325203 64.78658536585365,75.86382113821138 65.2439024390244,75.5081300813008 65.59959349593495,75.20325203252033 65.95528455284553,74.89837398373983 66.36178861788618,74.59349593495935 66.71747967479675,74.28861788617886 67.07317073170732,73.98373983739837 67.42886178861788,73.6280487804878 67.6829268292683,73.32317073170732 67.9369918699187,73.0691056910569 68.1910569105691,72.76422764227642 68.4451219512195,72.45934959349593 68.69918699186992,72.15447154471545 68.95325203252033,71.84959349593495 69.15650406504065,71.54471544715447 69.35975609756098,71.23983739837398 69.5630081300813,70.9349593495935 69.71544715447155,70.68089430894308 69.91869918699187,70.42682926829268 70.1219512195122,70.1219512195122 70.27439024390243,69.8170731707317 70.47764227642276,69.51219512195122 70.68089430894308,69.15650406504065" fill="none" stroke="black" stroke-width="0.6"></polyline><polyline points="70.68089430894308,69.15650406504065 70.83333333333333,68.90243902439025 71.03658536585365,68.59756097560975 71.1890243902439,68.24186991869918 71.39227642276423,67.98780487804878 71.54471544715447,67.6829268292683 71.69715447154472,67.32723577235772 71.84959349593495,67.02235772357723 72.0020325203252,66.76829268292683 72.15447154471545,66.46341463414635 72.3069105691057,66.20934959349593 72.40853658536585,65.95528455284553 72.5609756097561,65.70121951219512 72.66260162601625,65.39634146341463 72.8150406504065,65.14227642276423 72.96747967479675,64.83739837398373 73.0691056910569,64.58333333333333 73.22154471544715,64.27845528455285 73.32317073170732,64.02439024390243 73.47560975609755,63.77032520325203 73.57723577235772,63.46544715447154 73.67886178861788,63.16056910569105 73.83130081300813,62.855691056910565 73.98373983739837,62.55081300813008 74.13617886178862,62.19512195121951 74.28861788617886,61.9410569105691 74.39024390243902,61.6869918699187 74.49186991869918,61.43292682926829 74.59349593495935,61.1280487804878 74.6951219512195,60.8739837398374 74.79674796747967,60.56910569105691 74.89837398373983,60.36585365853659 74.94918699186992,60.11178861788618 75.05081300813008,59.857723577235774 75.10162601626016,59.65447154471545 75.15243902439025,59.40040650406504 75.20325203252033,59.197154471544714 75.2540650406504,58.94308943089431 75.30487804878048,58.6890243902439 75.35569105691057,58.43495934959349 75.40650406504065,58.18089430894309 75.45731707317073,57.92682926829268 75.5081300813008,57.72357723577235 75.5081300813008,57.52032520325203 75.5081300813008,57.3170731707317 75.5589430894309,57.0630081300813 75.60975609756098,56.91056910569105 75.60975609756098,56.65650406504065 75.66056910569105,56.453252032520325 75.66056910569105,56.25 75.71138211382113,56.046747967479675" fill="none" stroke="black" stroke-width="0.6"></polyline><polyline points="75.71138211382113,56.046747967479675 75.71138211382113,55.89430894308943 75.71138211382113,55.6910569105691 75.76219512195122,55.48780487804878 75.76219512195122,55.33536585365854 75.76219512195122,55.13211382113821 75.8130081300813,54.8780487804878 75.8130081300813,54.67479674796748 75.8130081300813,54.420731707317074 75.8130081300813,54.11585365853659 75.8130081300813,53.86178861788618 75.8130081300813,53.65853658536585 75.8130081300813,53.40447154471545 75.8130081300813,53.201219512195124 75.86382113821138,52.9979674796748 75.86382113821138,52.79471544715447 75.86382113821138,52.59146341463415 75.91463414634146,52.38821138211382 75.91463414634146,52.1849593495935 75.96544715447155,51.981707317073166 75.96544715447155,51.829268292682926 76.01626016260163,51.6260162601626 76.01626016260163,51.47357723577235 76.01626016260163,51.32113821138211 76.01626016260163,51.11788617886179 76.0670731707317,51.016260162601625 76.0670731707317,50.86382113821138 76.0670731707317,50.66056910569105 76.11788617886178,50.55894308943089 76.11788617886178,50.40650406504065 76.11788617886178,50.203252032520325 76.11788617886178,50.10162601626016 76.11788617886178,49.949186991869915 76.11788617886178,49.84756097560975 76.11788617886178,49.796747967479675 76.11788617886178,49.74593495934959 76.11788617886178,49.74593495934959 76.11788617886178,49.796747967479675" fill="none" stroke="black" stroke-width="0.6"></polyline></svg>