<svg height="100" width="100" preserveAspectRatio="xMidYMid meet"><polyline points="50.66056910569105,49.796747967479675 50.66056910569105,49.796747967479675 50.66056910569105,49.796747967479675 50.66056910569105,49.796747967479675 50.609756097560975,49.796747967479675 50.609756097560975,49.796747967479675 50.609756097560975,49.74593495934959 50.609756097560975,49.74593495934959 50.609756097560975,49.74593495934959 50.609756097560975,49.74593495934959 50.609756097560975,49.74593495934959 50.609756097560975,49.74593495934959 50.609756097560975,49.69512195121951" fill="none" stroke="black" stroke-width="0.6"></polyline><polyline points="49.59349593495935,50.10162601626016 49.59349593495935,50.10162601626016 49.59349593495935,50.05081300813008 49.59349593495935,50 49.59349593495935,49.949186991869915 49.59349593495935,49.89837398373984 49.59349593495935,49.89837398373984 49.64430894308943,49.84756097560975 49.69512195121951,49.84756097560975 49.74593495934959,49.796747967479675 49.796747967479675,49.796747967479675 49.796747967479675,49.74593495934959 49.796747967479675,49.74593495934959 49.84756097560975,49.74593495934959 49.84756097560975,49.74593495934959 49.84756097560975,49.74593495934959 49.84756097560975,49.74593495934959 49.84756097560975,49.74593495934959 49.84756097560975,49.74593495934959 49.84756097560975,49.74593495934959 49.84756097560975,49.74593495934959 49.84756097560975,49.74593495934959 49.84756097560975,49.74593495934959 49.84756097560975,49.74593495934959 49.84756097560975,49.796747967479675 49.84756097560975,49.796747967479675 49.84756097560975,49.796747967479675 49.84756097560975,49.796747967479675 49.84756097560975,49.796747967479675 49.84756097560975,49.796747967479675 49.84756097560975,49.796747967479675 49.84756097560975,49.796747967479675 49.84756097560975,49.796747967479675 49.84756097560975,49.796747967479675 49.84756097560975,49.796747967479675 49.84756097560975,49.796747967479675 49.84756097560975,49.796747967479675 49.84756097560975,49.796747967479675 49.84756097560975,49.796747967479675 49.84756097560975,49.796747967479675 49.84756097560975,49.796747967479675 49.84756097560975,49.796747967479675 49.796747967479675,49.74593495934959 49.796747967479675,49.69512195121951 49.74593495934959,49.64430894308943 49.69512195121951,49.59349593495935 49.64430894308943,49.49186991869919 49.59349593495935,49.390243902439025 49.542682926829265,49.28861788617886 49.49186991869919,49.1869918699187 49.390243902439025,49.08536585365854" fill="none" stroke="black" stroke-width="0.6"></polyline><polyline points="49.390243902439025,49.08536585365854 49.33943089430894,48.93292682926829 49.28861788617886,48.83130081300813 49.23780487804878,48.729674796747965 49.136178861788615,48.577235772357724 49.08536585365854,48.52642276422764 49.03455284552845,48.42479674796748 48.93292682926829,48.27235772357724 48.88211382113821,48.170731707317074 48.83130081300813,48.11991869918699 48.729674796747965,48.01829268292683 48.67886178861789,47.916666666666664 48.6280487804878,47.8150406504065 48.52642276422764,47.71341463414634 48.47560975609756,47.61178861788618 48.3739837398374,47.510162601626014 48.27235772357724,47.459349593495936 48.170731707317074,47.357723577235774 48.11991869918699,47.30691056910569 48.01829268292683,47.20528455284553 47.916666666666664,47.15447154471545 47.86585365853659,47.103658536585364 47.8150406504065,47.103658536585364 47.764227642276424,47.052845528455286 47.71341463414634,47.052845528455286 47.61178861788618,47.0020325203252 47.5609756097561,47.0020325203252 47.510162601626014,47.0020325203252 47.510162601626014,47.0020325203252 47.459349593495936,47.0020325203252 47.459349593495936,47.0020325203252 47.40853658536585,47.0020325203252 47.40853658536585,47.0020325203252 47.40853658536585,47.0020325203252 47.357723577235774,47.0020325203252 47.357723577235774,47.0020325203252 47.30691056910569,47.052845528455286 47.25609756097561,47.052845528455286 47.20528455284553,47.103658536585364 47.15447154471545,47.15447154471545 47.052845528455286,47.15447154471545 47.0020325203252,47.20528455284553 46.90040650406504,47.25609756097561 46.798780487804876,47.30691056910569 46.697154471544714,47.357723577235774 46.59552845528455,47.40853658536585 46.54471544715447,47.40853658536585 46.49390243902439,47.459349593495936 46.392276422764226,47.510162601626014 46.34146341463415,47.5609756097561 46.290650406504064,47.5609756097561" fill="none" stroke="black" stroke-width="0.6"></polyline><polyline points="46.290650406504064,47.5609756097561 46.13821138211382,47.66260162601626 46.08739837398374,47.71341463414634 46.03658536585366,47.764227642276424 45.88414634146341,47.8150406504065 45.78252032520325,47.916666666666664 45.68089430894309,48.01829268292683 45.579268292682926,48.06910569105691 45.47764227642276,48.170731707317074 45.325203252032516,48.27235772357724 45.27439024390244,48.323170731707314 45.172764227642276,48.42479674796748 45.07113821138211,48.52642276422764 45.02032520325203,48.577235772357724 44.96951219512195,48.67886178861789 44.918699186991866,48.78048780487805 44.86788617886179,48.83130081300813 44.8170731707317,48.93292682926829 44.766260162601625,49.03455284552845 44.71544715447154,49.08536585365854 44.71544715447154,49.136178861788615 44.66463414634146,49.1869918699187 44.66463414634146,49.23780487804878 44.61382113821138,49.33943089430894 44.5630081300813,49.4410569105691 44.512195121951216,49.542682926829265 44.46138211382114,49.64430894308943 44.46138211382114,49.74593495934959 44.41056910569105,49.84756097560975 44.359756097560975,49.949186991869915 44.30894308943089,50.10162601626016 44.30894308943089,50.203252032520325 44.25813008130081,50.355691056910565 44.25813008130081,50.45731707317073 44.20731707317073,50.55894308943089 44.20731707317073,50.66056910569105 44.15650406504065,50.762195121951216 44.15650406504065,50.86382113821138 44.15650406504065,50.96544715447154 44.15650406504065,51.0670731707317 44.15650406504065,51.11788617886179 44.15650406504065,51.21951219512195 44.15650406504065,51.32113821138211 44.15650406504065,51.37195121951219 44.15650406504065,51.47357723577235 44.20731707317073,51.52439024390244 44.20731707317073,51.6260162601626 44.20731707317073,51.67682926829268 44.25813008130081,51.77845528455284 44.25813008130081,51.829268292682926 44.30894308943089,51.93089430894309" fill="none" stroke="black" stroke-width="0.6"></polyline><polyline points="44.30894308943089,51.93089430894309 44.30894308943089,52.03252032520325 44.359756097560975,52.083333333333336 44.41056910569105,52.1849593495935 44.41056910569105,52.28658536585366 44.46138211382114,52.33739837398374 44.512195121951216,52.4390243902439 44.512195121951216,52.540650406504064 44.5630081300813,52.642276422764226 44.61382113821138,52.74390243902439 44.66463414634146,52.84552845528455 44.71544715447154,52.947154471544714 44.766260162601625,53.048780487804876 44.8170731707317,53.15040650406504 44.86788617886179,53.201219512195124 44.918699186991866,53.302845528455286 45.02032520325203,53.40447154471545 45.07113821138211,53.50609756097561 45.172764227642276,53.607723577235774 45.22357723577235,53.65853658536585 45.325203252032516,53.760162601626014 45.3760162601626,53.8109756097561 45.47764227642276,53.91260162601626 45.52845528455285,53.96341463414634 45.63008130081301,54.014227642276424 45.68089430894309,54.0650406504065 45.78252032520325,54.11585365853659 45.833333333333336,54.166666666666664 45.9349593495935,54.21747967479675 46.08739837398374,54.26829268292683 46.1890243902439,54.31910569105691 46.290650406504064,54.420731707317074 46.392276422764226,54.47154471544715 46.49390243902439,54.52235772357724 46.59552845528455,54.573170731707314 46.697154471544714,54.6239837398374 46.7479674796748,54.67479674796748 46.84959349593496,54.72560975609756 46.951219512195124,54.77642276422764 47.052845528455286,54.77642276422764 47.15447154471545,54.827235772357724 47.25609756097561,54.8780487804878 47.357723577235774,54.8780487804878 47.459349593495936,54.8780487804878 47.5609756097561,54.8780487804878 47.71341463414634,54.8780487804878 47.8150406504065,54.8780487804878 47.96747967479675,54.8780487804878 48.06910569105691,54.8780487804878 48.22154471544715,54.8780487804878 48.323170731707314,54.8780487804878" fill="none" stroke="black" stroke-width="0.6"></polyline><polyline points="48.323170731707314,54.8780487804878 48.47560975609756,54.8780487804878 48.577235772357724,54.8780487804878 48.67886178861789,54.8780487804878 48.83130081300813,54.827235772357724 48.93292682926829,54.827235772357724 49.03455284552845,54.77642276422764 49.136178861788615,54.77642276422764 49.28861788617886,54.72560975609756 49.390243902439025,54.72560975609756 49.542682926829265,54.67479674796748 49.69512195121951,54.6239837398374 49.84756097560975,54.573170731707314 50.05081300813008,54.52235772357724 50.2540650406504,54.420731707317074 50.40650406504065,54.36991869918699 50.609756097560975,54.31910569105691 50.762195121951216,54.26829268292683 51.016260162601625,54.166666666666664 51.27032520325203,54.0650406504065 51.52439024390244,54.014227642276424 51.72764227642276,53.91260162601626 51.981707317073166,53.8109756097561 52.13414634146341,53.760162601626014 52.235772357723576,53.709349593495936 52.38821138211382,53.607723577235774 52.489837398373986,53.55691056910569 52.59146341463415,53.50609756097561 52.69308943089431,53.45528455284553 52.74390243902439,53.40447154471545 52.84552845528455,53.353658536585364 52.896341463414636,53.302845528455286 52.947154471544714,53.2520325203252 53.048780487804876,53.15040650406504 53.09959349593496,53.09959349593496 53.15040650406504,52.9979674796748 53.2520325203252,52.947154471544714 53.302845528455286,52.896341463414636 53.40447154471545,52.79471544715447 53.45528455284553,52.74390243902439 53.50609756097561,52.642276422764226 53.55691056910569,52.540650406504064 53.607723577235774,52.489837398373986 53.65853658536585,52.38821138211382 53.65853658536585,52.28658536585366 53.709349593495936,52.1849593495935 53.709349593495936,52.083333333333336 53.760162601626014,51.93089430894309 53.760162601626014,51.829268292682926 53.8109756097561,51.67682926829268 53.8109756097561,51.575203252032516" fill="none" stroke="black" stroke-width="0.6"></polyline><polyline points="53.8109756097561,51.575203252032516 53.86178861788618,51.47357723577235 53.86178861788618,51.32113821138211 53.91260162601626,51.21951219512195 53.91260162601626,51.11788617886179 53.96341463414634,51.016260162601625 53.96341463414634,50.91463414634146 53.96341463414634,50.8130081300813 53.96341463414634,50.71138211382114 54.014227642276424,50.66056910569105 54.014227642276424,50.55894308943089 54.014227642276424,50.45731707317073 54.014227642276424,50.355691056910565 54.014227642276424,50.2540650406504 54.014227642276424,50.203252032520325 54.014227642276424,50.10162601626016 54.014227642276424,50 54.014227642276424,49.949186991869915 54.014227642276424,49.84756097560975 54.014227642276424,49.74593495934959 53.96341463414634,49.64430894308943 53.96341463414634,49.542682926829265 53.96341463414634,49.4410569105691 53.96341463414634,49.33943089430894 53.91260162601626,49.23780487804878 53.91260162601626,49.136178861788615 53.91260162601626,49.03455284552845 53.86178861788618,48.88211382113821 53.86178861788618,48.729674796747965 53.86178861788618,48.6280487804878 53.8109756097561,48.47560975609756 53.760162601626014,48.323170731707314 53.760162601626014,48.11991869918699 53.709349593495936,47.96747967479675 53.709349593495936,47.764227642276424 53.65853658536585,47.61178861788618 53.607723577235774,47.459349593495936 53.55691056910569,47.30691056910569 53.50609756097561,47.20528455284553 53.45528455284553,47.052845528455286 53.40447154471545,46.951219512195124 53.40447154471545,46.84959349593496 53.302845528455286,46.7479674796748 53.2520325203252,46.59552845528455 53.201219512195124,46.49390243902439 53.15040650406504,46.392276422764226 53.09959349593496,46.239837398373986 53.048780487804876,46.13821138211382 52.947154471544714,45.985772357723576 52.84552845528455,45.833333333333336 52.74390243902439,45.63008130081301" fill="none" stroke="black" stroke-width="0.6"></polyline><polyline points="52.74390243902439,45.63008130081301 52.59146341463415,45.42682926829268 52.4390243902439,45.22357723577235 52.28658536585366,45.02032520325203 52.13414634146341,44.8170731707317 51.981707317073166,44.61382113821138 51.829268292682926,44.512195121951216 51.67682926829268,44.359756097560975 51.575203252032516,44.25813008130081 51.47357723577235,44.15650406504065 51.37195121951219,44.105691056910565 51.27032520325203,44.0040650406504 51.168699186991866,43.90243902439024 51.0670731707317,43.85162601626016 51.016260162601625,43.75 50.91463414634146,43.64837398373984 50.8130081300813,43.59756097560975 50.71138211382114,43.49593495934959 50.66056910569105,43.44512195121951 50.55894308943089,43.34349593495935 50.40650406504065,43.292682926829265 50.30487804878049,43.292682926829265 50.203252032520325,43.24186991869919 50.10162601626016,43.1910569105691 50,43.1910569105691 49.89837398373984,43.1910569105691 49.796747967479675,43.140243902439025 49.69512195121951,43.140243902439025 49.59349593495935,43.08943089430894 49.49186991869919,43.08943089430894 49.390243902439025,43.08943089430894 49.28861788617886,43.03861788617886 49.1869918699187,43.03861788617886 49.08536585365854,43.03861788617886 48.93292682926829,42.98780487804878 48.78048780487805,42.9369918699187 48.67886178861789,42.9369918699187 48.577235772357724,42.886178861788615 48.47560975609756,42.886178861788615 48.42479674796748,42.886178861788615 48.42479674796748,42.886178861788615 48.323170731707314,42.886178861788615 48.22154471544715,42.886178861788615 48.170731707317074,42.886178861788615 48.01829268292683,42.886178861788615 47.96747967479675,42.886178861788615 47.916666666666664,42.886178861788615 47.71341463414634,42.886178861788615 47.510162601626014,42.9369918699187 47.357723577235774,42.9369918699187 47.15447154471545,42.98780487804878" fill="none" stroke="black" stroke-width="0.6"></polyline><polyline points="47.15447154471545,42.98780487804878 46.90040650406504,43.03861788617886 46.697154471544714,43.08943089430894 46.49390243902439,43.140243902439025 46.239837398373986,43.1910569105691 46.03658536585366,43.1910569105691 45.88414634146341,43.24186991869919 45.73170731707317,43.292682926829265 45.579268292682926,43.34349593495935 45.42682926829268,43.39430894308943 45.27439024390244,43.44512195121951 45.07113821138211,43.546747967479675 44.86788617886179,43.59756097560975 44.61382113821138,43.699186991869915 44.41056910569105,43.80081300813008 44.25813008130081,43.90243902439024 44.05487804878049,44.0040650406504 43.90243902439024,44.05487804878049 43.80081300813008,44.105691056910565 43.699186991869915,44.20731707317073 43.546747967479675,44.25813008130081 43.44512195121951,44.30894308943089 43.292682926829265,44.41056910569105 43.140243902439025,44.46138211382114 42.98780487804878,44.61382113821138 42.78455284552845,44.71544715447154 42.63211382113821,44.8170731707317 42.42886178861789,44.918699186991866 42.27642276422764,45.07113821138211 42.073170731707314,45.172764227642276 41.86991869918699,45.325203252032516 41.666666666666664,45.47764227642276 41.514227642276424,45.68089430894309 41.3109756097561,45.833333333333336 41.107723577235774,46.03658536585366 40.90447154471545,46.1890243902439 40.7520325203252,46.34146341463415 40.59959349593496,46.49390243902439 40.447154471544714,46.646341463414636 40.29471544715447,46.798780487804876 40.19308943089431,46.951219512195124 40.09146341463415,47.103658536585364 40.040650406504064,47.25609756097561 39.9390243902439,47.40853658536585 39.88821138211382,47.61178861788618 39.83739837398374,47.8150406504065 39.78658536585366,48.01829268292683 39.735772357723576,48.22154471544715 39.6849593495935,48.42479674796748 39.63414634146341,48.67886178861789 39.583333333333336,48.83130081300813" fill="none" stroke="black" stroke-width="0.6"></polyline><polyline points="39.583333333333336,48.83130081300813 39.53252032520325,49.03455284552845 39.53252032520325,49.23780487804878 39.48170731707317,49.390243902439025 39.48170731707317,49.59349593495935 39.48170731707317,49.796747967479675 39.43089430894309,50 39.43089430894309,50.2540650406504 39.43089430894309,50.45731707317073 39.43089430894309,50.66056910569105 39.43089430894309,50.86382113821138 39.43089430894309,51.0670731707317 39.43089430894309,51.21951219512195 39.48170731707317,51.422764227642276 39.48170731707317,51.575203252032516 39.53252032520325,51.72764227642276 39.53252032520325,51.880081300813 39.583333333333336,52.03252032520325 39.583333333333336,52.235772357723576 39.63414634146341,52.38821138211382 39.6849593495935,52.59146341463415 39.735772357723576,52.74390243902439 39.735772357723576,52.947154471544714 39.83739837398374,53.09959349593496 39.88821138211382,53.302845528455286 39.9390243902439,53.45528455284553 39.989837398373986,53.607723577235774 40.09146341463415,53.760162601626014 40.142276422764226,53.91260162601626 40.24390243902439,54.0650406504065 40.29471544715447,54.166666666666664 40.396341463414636,54.36991869918699 40.447154471544714,54.47154471544715 40.4979674796748,54.6239837398374 40.548780487804876,54.77642276422764 40.59959349593496,54.8780487804878 40.701219512195124,54.979674796747965 40.7520325203252,55.08130081300813 40.802845528455286,55.18292682926829 40.853658536585364,55.28455284552845 40.90447154471545,55.4369918699187 40.95528455284553,55.53861788617886 41.05691056910569,55.640243902439025 41.107723577235774,55.74186991869919 41.209349593495936,55.84349593495935 41.3109756097561,55.94512195121951 41.41260162601626,56.09756097560975 41.5650406504065,56.199186991869915 41.666666666666664,56.30081300813008 41.71747967479675,56.40243902439024 41.81910569105691,56.453252032520325" fill="none" stroke="black" stroke-width="0.6"></polyline><polyline points="41.81910569105691,56.453252032520325 41.920731707317074,56.55487804878049 42.02235772357724,56.65650406504065 42.1239837398374,56.75813008130081 42.27642276422764,56.859756097560975 42.3780487804878,56.96138211382114 42.479674796747965,57.0630081300813 42.58130081300813,57.16463414634146 42.63211382113821,57.266260162601625 42.733739837398375,57.36788617886179 42.83536585365854,57.418699186991866 42.886178861788615,57.52032520325203 42.98780487804878,57.57113821138211 43.03861788617886,57.62195121951219 43.08943089430894,57.672764227642276 43.140243902439025,57.72357723577235 43.1910569105691,57.77439024390244 43.24186991869919,57.825203252032516 43.34349593495935,57.825203252032516 43.39430894308943,57.8760162601626 43.44512195121951,57.92682926829268 43.49593495934959,57.97764227642276 43.59756097560975,58.02845528455284 43.64837398373984,58.079268292682926 43.75,58.130081300813 43.80081300813008,58.18089430894309 43.90243902439024,58.231707317073166 43.953252032520325,58.28252032520325 44.05487804878049,58.33333333333333 44.105691056910565,58.38414634146341 44.20731707317073,58.38414634146341 44.25813008130081,58.43495934959349 44.359756097560975,58.485772357723576 44.46138211382114,58.536585365853654 44.5630081300813,58.536585365853654 44.5630081300813,58.58739837398374 44.71544715447154,58.63821138211382 44.8170731707317,58.63821138211382 44.918699186991866,58.6890243902439 44.96951219512195,58.739837398373986 45.07113821138211,58.739837398373986 45.172764227642276,58.790650406504064 45.22357723577235,58.84146341463415 45.325203252032516,58.84146341463415 45.42682926829268,58.892276422764226 45.47764227642276,58.892276422764226 45.579268292682926,58.94308943089431 45.68089430894309,58.94308943089431 45.833333333333336,58.99390243902439 45.9349593495935,58.99390243902439 46.08739837398374,59.04471544715447" fill="none" stroke="black" stroke-width="0.6"></polyline><polyline points="46.08739837398374,59.04471544715447 46.239837398373986,59.04471544715447 46.392276422764226,59.04471544715447 46.59552845528455,59.04471544715447 46.7479674796748,59.09552845528455 46.951219512195124,59.09552845528455 47.103658536585364,59.09552845528455 47.25609756097561,59.09552845528455 47.40853658536585,59.09552845528455 47.61178861788618,59.09552845528455 47.8150406504065,59.09552845528455 48.01829268292683,59.09552845528455 48.27235772357724,59.04471544715447 48.47560975609756,59.04471544715447 48.67886178861789,59.04471544715447 48.93292682926829,59.04471544715447 49.28861788617886,58.99390243902439 49.69512195121951,58.94308943089431 50.10162601626016,58.892276422764226 50.45731707317073,58.84146341463415 50.86382113821138,58.790650406504064 51.21951219512195,58.739837398373986 51.575203252032516,58.63821138211382 51.93089430894309,58.58739837398374 52.28658536585366,58.485772357723576 52.59146341463415,58.43495934959349 52.896341463414636,58.33333333333333 53.201219512195124,58.231707317073166 53.40447154471545,58.130081300813 53.65853658536585,58.02845528455284 53.91260162601626,57.92682926829268 54.11585365853659,57.825203252032516 54.36991869918699,57.72357723577235 54.6239837398374,57.62195121951219 54.827235772357724,57.52032520325203 55.03048780487805,57.418699186991866 55.233739837398375,57.266260162601625 55.386178861788615,57.16463414634146 55.53861788617886,57.11382113821138 55.640243902439025,57.012195121951216 55.74186991869919,56.96138211382114 55.792682926829265,56.859756097560975 55.84349593495935,56.80894308943089 55.94512195121951,56.70731707317073 56.046747967479675,56.605691056910565 56.09756097560975,56.5040650406504 56.199186991869915,56.40243902439024 56.35162601626016,56.25 56.453252032520325,56.14837398373984 56.5040650406504,56.046747967479675 56.605691056910565,55.89430894308943" fill="none" stroke="black" stroke-width="0.6"></polyline><polyline points="56.605691056910565,55.89430894308943 56.70731707317073,55.792682926829265 56.80894308943089,55.6910569105691 56.91056910569105,55.53861788617886 57.012195121951216,55.386178861788615 57.11382113821138,55.28455284552845 57.21544715447154,55.08130081300813 57.3170731707317,54.979674796747965 57.418699186991866,54.827235772357724 57.52032520325203,54.6239837398374 57.57113821138211,54.52235772357724 57.672764227642276,54.36991869918699 57.72357723577235,54.21747967479675 57.77439024390244,54.0650406504065 57.825203252032516,53.96341463414634 57.825203252032516,53.8109756097561 57.8760162601626,53.709349593495936 57.8760162601626,53.55691056910569 57.92682926829268,53.40447154471545 57.97764227642276,53.2520325203252 58.02845528455284,53.09959349593496 58.079268292682926,52.947154471544714 58.130081300813,52.79471544715447 58.18089430894309,52.642276422764226 58.231707317073166,52.489837398373986 58.231707317073166,52.38821138211382 58.28252032520325,52.235772357723576 58.28252032520325,52.03252032520325 58.33333333333333,51.880081300813 58.33333333333333,51.72764227642276 58.38414634146341,51.47357723577235 58.43495934959349,51.27032520325203 58.43495934959349,51.0670731707317 58.43495934959349,50.86382113821138 58.485772357723576,50.66056910569105 58.485772357723576,50.55894308943089 58.485772357723576,50.50813008130081 58.485772357723576,50.30487804878049 58.485772357723576,50.203252032520325 58.43495934959349,49.89837398373984 58.43495934959349,49.69512195121951 58.43495934959349,49.542682926829265 58.43495934959349,49.33943089430894 58.43495934959349,49.136178861788615 58.43495934959349,48.93292682926829 58.43495934959349,48.67886178861789 58.43495934959349,48.47560975609756 58.43495934959349,48.22154471544715 58.38414634146341,48.01829268292683 58.38414634146341,47.764227642276424 58.33333333333333,47.5609756097561" fill="none" stroke="black" stroke-width="0.6"></polyline><polyline points="58.33333333333333,47.5609756097561 58.28252032520325,47.357723577235774 58.231707317073166,47.15447154471545 58.18089430894309,47.0020325203252 58.130081300813,46.798780487804876 58.079268292682926,46.646341463414636 58.02845528455284,46.44308943089431 57.97764227642276,46.239837398373986 57.92682926829268,46.03658536585366 57.825203252032516,45.78252032520325 57.77439024390244,45.579268292682926 57.672764227642276,45.3760162601626 57.62195121951219,45.172764227642276 57.52032520325203,44.96951219512195 57.46951219512195,44.8170731707317 57.36788617886179,44.66463414634146 57.3170731707317,44.46138211382114 57.16463414634146,44.25813008130081 57.0630081300813,44.05487804878049 56.91056910569105,43.80081300813008 56.75813008130081,43.546747967479675 56.605691056910565,43.34349593495935 56.453252032520325,43.08943089430894 56.35162601626016,42.9369918699187 56.25,42.733739837398375 56.09756097560975,42.53048780487805 55.94512195121951,42.3780487804878 55.84349593495935,42.22560975609756 55.74186991869919,42.1239837398374 55.640243902439025,42.02235772357724 55.53861788617886,41.86991869918699 55.4369918699187,41.71747967479675 55.386178861788615,41.5650406504065 55.28455284552845,41.41260162601626 55.233739837398375,41.209349593495936 55.13211382113821,41.05691056910569 55.08130081300813,40.90447154471545 54.979674796747965,40.802845528455286 54.92886178861789,40.65040650406504 54.827235772357724,40.548780487804876 54.72560975609756,40.396341463414636 54.6239837398374,40.24390243902439 54.52235772357724,40.09146341463415 54.420731707317074,39.88821138211382 54.26829268292683,39.6849593495935 54.11585365853659,39.43089430894309 54.014227642276424,39.176829268292686 53.86178861788618,38.97357723577235 53.760162601626014,38.77032520325203 53.607723577235774,38.5670731707317 53.50609756097561,38.41463414634146" fill="none" stroke="black" stroke-width="0.6"></polyline><polyline points="53.50609756097561,38.41463414634146 53.353658536585364,38.3130081300813 53.201219512195124,38.16056910569105 53.048780487804876,38.05894308943089 52.896341463414636,37.95731707317073 52.69308943089431,37.855691056910565 52.540650406504064,37.7540650406504 52.38821138211382,37.703252032520325 52.235772357723576,37.60162601626016 52.13414634146341,37.55081300813008 51.981707317073166,37.5 51.880081300813,37.449186991869915 51.77845528455284,37.39837398373984 51.6260162601626,37.34756097560975 51.47357723577235,37.296747967479675 51.37195121951219,37.19512195121951 51.21951219512195,37.14430894308943 51.016260162601625,37.09349593495935 50.86382113821138,37.042682926829265 50.71138211382114,37.042682926829265 50.50813008130081,36.99186991869919 50.355691056910565,36.9410569105691 50.203252032520325,36.9410569105691 50,36.890243902439025 49.796747967479675,36.890243902439025 49.64430894308943,36.890243902439025 49.49186991869919,36.890243902439025 49.28861788617886,36.890243902439025 49.136178861788615,36.890243902439025 48.93292682926829,36.890243902439025 48.729674796747965,36.9410569105691 48.52642276422764,36.9410569105691 48.323170731707314,36.99186991869919 48.11991869918699,36.99186991869919 47.916666666666664,37.042682926829265 47.71341463414634,37.09349593495935 47.510162601626014,37.14430894308943 47.30691056910569,37.19512195121951 47.103658536585364,37.24593495934959 46.90040650406504,37.296747967479675 46.646341463414636,37.34756097560975 46.392276422764226,37.449186991869915 46.13821138211382,37.5 45.88414634146341,37.55081300813008 45.63008130081301,37.65243902439024 45.42682926829268,37.703252032520325 45.27439024390244,37.703252032520325 44.918699186991866,37.80487804878049 44.66463414634146,37.855691056910565 44.41056910569105,37.90650406504065 44.20731707317073,38.00813008130081" fill="none" stroke="black" stroke-width="0.6"></polyline><polyline points="44.20731707317073,38.00813008130081 44.0040650406504,38.05894308943089 43.75,38.16056910569105 43.546747967479675,38.21138211382114 43.34349593495935,38.262195121951216 43.03861788617886,38.36382113821138 42.78455284552845,38.46544715447154 42.53048780487805,38.516260162601625 42.327235772357724,38.61788617886179 42.073170731707314,38.71951219512195 41.81910569105691,38.82113821138211 41.5650406504065,38.97357723577235 41.260162601626014,39.1260162601626 40.90447154471545,39.27845528455285 40.548780487804876,39.48170731707317 40.29471544715447,39.63414634146341 40.040650406504064,39.78658536585366 39.83739837398374,39.9390243902439 39.583333333333336,40.09146341463415 39.38008130081301,40.24390243902439 39.1260162601626,40.396341463414636 38.87195121951219,40.59959349593496 38.61788617886179,40.7520325203252 38.36382113821138,41.00609756097561 38.109756097560975,41.260162601626014 37.90650406504065,41.5650406504065 37.703252032520325,41.86991869918699 37.55081300813008,42.1239837398374 37.39837398373984,42.3780487804878 37.24593495934959,42.58130081300813 37.14430894308943,42.78455284552845 36.99186991869919,42.98780487804878 36.83943089430894,43.1910569105691 36.73780487804878,43.44512195121951 36.58536585365854,43.75 36.43292682926829,44.05487804878049 36.28048780487805,44.359756097560975 36.1280487804878,44.66463414634146 36.02642276422764,44.96951219512195 35.92479674796748,45.22357723577235 35.823170731707314,45.579268292682926 35.72154471544715,45.9349593495935 35.61991869918699,46.290650406504064 35.51829268292683,46.646341463414636 35.46747967479675,47.0020325203252 35.36585365853659,47.30691056910569 35.3150406504065,47.71341463414634 35.264227642276424,48.06910569105691 35.21341463414634,48.42479674796748 35.21341463414634,48.83130081300813 35.21341463414634,49.08536585365854" fill="none" stroke="black" stroke-width="0.6"></polyline><polyline points="35.21341463414634,49.08536585365854 35.21341463414634,49.33943089430894 35.21341463414634,49.64430894308943 35.264227642276424,49.949186991869915 35.3150406504065,50.2540650406504 35.36585365853659,50.609756097560975 35.416666666666664,50.91463414634146 35.46747967479675,51.21951219512195 35.51829268292683,51.52439024390244 35.56910569105691,51.829268292682926 35.61991869918699,52.083333333333336 35.670731707317074,52.4390243902439 35.72154471544715,52.69308943089431 35.823170731707314,52.947154471544714 35.8739837398374,53.201219512195124 35.92479674796748,53.40447154471545 35.97560975609756,53.607723577235774 36.077235772357724,53.8109756097561 36.1280487804878,54.014227642276424 36.229674796747965,54.21747967479675 36.28048780487805,54.52235772357724 36.38211382113821,54.77642276422764 36.43292682926829,55.08130081300813 36.483739837398375,55.33536585365854 36.58536585365854,55.53861788617886 36.636178861788615,55.74186991869919 36.6869918699187,55.99593495934959 36.78861788617886,56.14837398373984 36.83943089430894,56.35162601626016 36.9410569105691,56.605691056910565 37.042682926829265,56.80894308943089 37.14430894308943,57.012195121951216 37.24593495934959,57.266260162601625 37.34756097560975,57.418699186991866 37.449186991869915,57.62195121951219 37.55081300813008,57.825203252032516 37.65243902439024,57.92682926829268 37.7540650406504,58.079268292682926 37.90650406504065,58.231707317073166 38.00813008130081,58.38414634146341 38.109756097560975,58.485772357723576 38.21138211382114,58.63821138211382 38.3130081300813,58.790650406504064 38.46544715447154,58.94308943089431 38.5670731707317,59.09552845528455 38.71951219512195,59.2479674796748 38.82113821138211,59.298780487804876 38.922764227642276,59.40040650406504 39.07520325203252,59.552845528455286 39.176829268292686,59.70528455284553 39.329268292682926,59.857723577235774" fill="none" stroke="black" stroke-width="0.6"></polyline><polyline points="39.329268292682926,59.857723577235774 39.48170731707317,59.959349593495936 39.583333333333336,60.11178861788618 39.735772357723576,60.21341463414634 39.83739837398374,60.36585365853659 39.989837398373986,60.46747967479675 40.09146341463415,60.61991869918699 40.24390243902439,60.77235772357724 40.396341463414636,60.92479674796748 40.4979674796748,61.02642276422764 40.59959349593496,61.1280487804878 40.701219512195124,61.17886178861789 40.853658536585364,61.28048780487805 40.95528455284553,61.33130081300813 41.05691056910569,61.38211382113821 41.15853658536585,61.43292682926829 41.260162601626014,61.43292682926829 41.36178861788618,61.483739837398375 41.514227642276424,61.53455284552845 41.61585365853659,61.58536585365854 41.76829268292683,61.636178861788615 41.920731707317074,61.6869918699187 42.1239837398374,61.78861788617886 42.327235772357724,61.83943089430894 42.58130081300813,61.890243902439025 42.78455284552845,61.9410569105691 42.9369918699187,61.99186991869919 43.140243902439025,61.99186991869919 43.292682926829265,62.042682926829265 43.44512195121951,62.09349593495935 43.59756097560975,62.14430894308943 43.75,62.19512195121951 43.90243902439024,62.24593495934959 44.05487804878049,62.296747967479675 44.20731707317073,62.34756097560975 44.359756097560975,62.39837398373984 44.512195121951216,62.449186991869915 44.66463414634146,62.449186991869915 44.8170731707317,62.5 44.96951219512195,62.55081300813008 45.12195121951219,62.55081300813008 45.27439024390244,62.60162601626016 45.325203252032516,62.60162601626016 45.42682926829268,62.60162601626016 45.579268292682926,62.60162601626016 45.78252032520325,62.60162601626016 46.03658536585366,62.60162601626016 46.290650406504064,62.60162601626016 46.59552845528455,62.60162601626016 46.90040650406504,62.55081300813008 47.15447154471545,62.55081300813008" fill="none" stroke="black" stroke-width="0.6"></polyline><polyline points="47.15447154471545,62.55081300813008 47.459349593495936,62.5 47.8150406504065,62.5 48.170731707317074,62.5 48.577235772357724,62.449186991869915 48.983739837398375,62.34756097560975 49.390243902439025,62.296747967479675 49.796747967479675,62.19512195121951 50.30487804878049,62.09349593495935 50.71138211382114,61.99186991869919 51.0670731707317,61.9410569105691 51.37195121951219,61.83943089430894 51.575203252032516,61.78861788617886 51.77845528455284,61.73780487804878 51.93089430894309,61.6869918699187 52.083333333333336,61.636178861788615 52.1849593495935,61.53455284552845 52.33739837398374,61.43292682926829 52.540650406504064,61.28048780487805 52.69308943089431,61.1280487804878 52.896341463414636,60.97560975609756 53.048780487804876,60.823170731707314 53.09959349593496,60.77235772357724 53.15040650406504,60.72154471544715 53.302845528455286,60.61991869918699 53.353658536585364,60.51829268292683 53.45528455284553,60.416666666666664 53.55691056910569,60.3150406504065 53.709349593495936,60.16260162601626 53.86178861788618,60.010162601626014 54.014227642276424,59.857723577235774 54.166666666666664,59.75609756097561 54.31910569105691,59.603658536585364 54.47154471544715,59.5020325203252 54.573170731707314,59.34959349593496 54.67479674796748,59.2479674796748 54.827235772357724,59.146341463414636 54.8780487804878,59.04471544715447 55.03048780487805,58.892276422764226 55.13211382113821,58.790650406504064 55.18292682926829,58.63821138211382 55.33536585365854,58.485772357723576 55.4369918699187,58.33333333333333 55.58943089430894,58.18089430894309 55.6910569105691,58.02845528455284 55.84349593495935,57.8760162601626 55.99593495934959,57.72357723577235 56.14837398373984,57.57113821138211 56.30081300813008,57.418699186991866 56.40243902439024,57.266260162601625 56.55487804878049,57.0630081300813" fill="none" stroke="black" stroke-width="0.6"></polyline><polyline points="56.55487804878049,57.0630081300813 56.65650406504065,56.91056910569105 56.75813008130081,56.70731707317073 56.859756097560975,56.453252032520325 56.96138211382114,56.199186991869915 57.11382113821138,55.99593495934959 57.3170731707317,55.74186991869919 57.52032520325203,55.48780487804878 57.672764227642276,55.28455284552845 57.825203252032516,55.08130081300813 57.8760162601626,54.8780487804878 57.97764227642276,54.67479674796748 58.02845528455284,54.420731707317074 58.079268292682926,54.166666666666664 58.130081300813,53.91260162601626 58.18089430894309,53.709349593495936 58.28252032520325,53.50609756097561 58.38414634146341,53.2520325203252 58.43495934959349,52.9979674796748 58.536585365853654,52.79471544715447 58.63821138211382,52.489837398373986 58.6890243902439,52.1849593495935 58.739837398373986,51.880081300813 58.790650406504064,51.575203252032516 58.84146341463415,51.27032520325203 58.892276422764226,51.016260162601625 58.94308943089431,50.762195121951216 58.94308943089431,50.55894308943089 58.99390243902439,50.355691056910565 58.99390243902439,50.15243902439024 58.99390243902439,49.89837398373984 59.04471544715447,49.64430894308943 59.04471544715447,49.4410569105691 59.04471544715447,49.1869918699187 59.09552845528455,48.93292682926829 59.09552845528455,48.67886178861789 59.09552845528455,48.42479674796748 59.09552845528455,48.11991869918699 59.09552845528455,47.764227642276424 59.09552845528455,47.459349593495936 59.09552845528455,47.15447154471545 59.09552845528455,46.84959349593496 59.09552845528455,46.54471544715447 59.09552845528455,46.290650406504064 59.09552845528455,45.985772357723576 59.09552845528455,45.63008130081301 59.09552845528455,45.325203252032516 59.09552845528455,45.02032520325203 59.04471544715447,44.66463414634146 58.99390243902439,44.359756097560975 58.892276422764226,44.0040650406504" fill="none" stroke="black" stroke-width="0.6"></polyline><polyline points="58.892276422764226,44.0040650406504 58.84146341463415,43.64837398373984 58.739837398373986,43.292682926829265 58.63821138211382,42.9369918699187 58.536585365853654,42.58130081300813 58.43495934959349,42.22560975609756 58.28252032520325,41.86991869918699 58.130081300813,41.514227642276424 58.02845528455284,41.107723577235774 57.8760162601626,40.701219512195124 57.72357723577235,40.34552845528455 57.57113821138211,40.040650406504064 57.36788617886179,39.735772357723576 57.16463414634146,39.43089430894309 57.012195121951216,39.07520325203252 56.75813008130081,38.71951219512195 56.55487804878049,38.41463414634146 56.30081300813008,38.109756097560975 55.99593495934959,37.80487804878049 55.74186991869919,37.55081300813008 55.48780487804878,37.296747967479675 55.18292682926829,36.99186991869919 54.979674796747965,36.78861788617886 54.72560975609756,36.53455284552845 54.420731707317074,36.28048780487805 54.166666666666664,36.077235772357724 53.86178861788618,35.92479674796748 53.55691056910569,35.77235772357724 53.2520325203252,35.61991869918699 53.09959349593496,35.51829268292683 52.947154471544714,35.46747967479675 52.59146341463415,35.3150406504065 52.235772357723576,35.16260162601626 51.880081300813,35.0609756097561 51.47357723577235,34.90853658536585 51.11788617886179,34.80691056910569 50.8130081300813,34.70528455284553 50.45731707317073,34.552845528455286 50.10162601626016,34.5020325203252 49.74593495934959,34.40040650406504 49.390243902439025,34.298780487804876 49.03455284552845,34.2479674796748 48.729674796747965,34.197154471544714 48.42479674796748,34.146341463414636 48.11991869918699,34.09552845528455 47.8150406504065,34.04471544715447 47.459349593495936,33.99390243902439 47.052845528455286,33.94308943089431 46.697154471544714,33.892276422764226 46.34146341463415,33.84146341463415 46.08739837398374,33.84146341463415" fill="none" stroke="black" stroke-width="0.6"></polyline><polyline points="46.08739837398374,33.84146341463415 45.833333333333336,33.790650406504064 45.579268292682926,33.790650406504064 45.27439024390244,33.790650406504064 44.96951219512195,33.790650406504064 44.66463414634146,33.790650406504064 44.359756097560975,33.790650406504064 44.05487804878049,33.790650406504064 43.75,33.84146341463415 43.39430894308943,33.892276422764226 43.08943089430894,33.94308943089431 42.733739837398375,33.99390243902439 42.42886178861789,34.04471544715447 42.17479674796748,34.146341463414636 41.920731707317074,34.2479674796748 41.666666666666664,34.298780487804876 41.41260162601626,34.40040650406504 41.107723577235774,34.5020325203252 40.853658536585364,34.65447154471545 40.548780487804876,34.75609756097561 40.24390243902439,34.90853658536585 39.9390243902439,35.0609756097561 39.583333333333336,35.21341463414634 39.176829268292686,35.416666666666664 38.77032520325203,35.56910569105691 38.41463414634146,35.72154471544715 38.00813008130081,35.92479674796748 37.703252032520325,36.077235772357724 37.296747967479675,36.28048780487805 36.9410569105691,36.43292682926829 36.53455284552845,36.636178861788615 36.1280487804878,36.890243902439025 35.77235772357724,37.09349593495935 35.416666666666664,37.34756097560975 35.0609756097561,37.55081300813008 34.80691056910569,37.7540650406504 34.552845528455286,37.95731707317073 34.298780487804876,38.16056910569105 34.09552845528455,38.3130081300813 33.892276422764226,38.46544715447154 33.739837398373986,38.668699186991866 33.58739837398374,38.82113821138211 33.4349593495935,39.02439024390244 33.23170731707317,39.22764227642276 33.079268292682926,39.43089430894309 32.926829268292686,39.63414634146341 32.72357723577236,39.88821138211382 32.57113821138211,40.09146341463415 32.418699186991866,40.24390243902439 32.3170731707317,40.447154471544714 32.16463414634146,40.65040650406504" fill="none" stroke="black" stroke-width="0.6"></polyline><polyline points="32.16463414634146,40.65040650406504 32.0630081300813,40.853658536585364 31.961382113821138,41.05691056910569 31.859756097560975,41.260162601626014 31.758130081300813,41.46341463414634 31.60569105691057,41.666666666666664 31.504065040650406,41.86991869918699 31.351626016260163,42.1239837398374 31.25,42.327235772357724 31.097560975609756,42.58130081300813 31.046747967479675,42.78455284552845 30.945121951219512,42.98780487804878 30.84349593495935,43.1910569105691 30.79268292682927,43.44512195121951 30.741869918699187,43.699186991869915 30.640243902439025,43.953252032520325 30.589430894308943,44.20731707317073 30.48780487804878,44.46138211382114 30.4369918699187,44.66463414634146 30.335365853658537,44.86788617886179 30.335365853658537,45.02032520325203 30.284552845528456,45.07113821138211 30.233739837398375,45.27439024390244 30.182926829268293,45.3760162601626 30.182926829268293,45.52845528455285 30.132113821138212,45.78252032520325 30.08130081300813,45.985772357723576 30.03048780487805,46.239837398373986 29.979674796747968,46.49390243902439 29.928861788617887,46.7479674796748 29.928861788617887,46.951219512195124 29.878048780487806,47.15447154471545 29.827235772357724,47.357723577235774 29.776422764227643,47.5609756097561 29.776422764227643,47.764227642276424 29.776422764227643,47.96747967479675 29.725609756097562,48.170731707317074 29.725609756097562,48.42479674796748 29.67479674796748,48.6280487804878 29.67479674796748,48.88211382113821 29.67479674796748,49.08536585365854 29.6239837398374,49.28861788617886 29.6239837398374,49.390243902439025 29.6239837398374,49.49186991869919 29.573170731707318,49.74593495934959 29.573170731707318,49.89837398373984 29.573170731707318,50.15243902439024 29.573170731707318,50.40650406504065 29.573170731707318,50.609756097560975 29.573170731707318,50.86382113821138 29.573170731707318,51.0670731707317" fill="none" stroke="black" stroke-width="0.6"></polyline><polyline points="29.573170731707318,51.0670731707317 29.573170731707318,51.27032520325203 29.573170731707318,51.52439024390244 29.573170731707318,51.72764227642276 29.6239837398374,51.93089430894309 29.6239837398374,52.13414634146341 29.6239837398374,52.33739837398374 29.67479674796748,52.540650406504064 29.67479674796748,52.79471544715447 29.725609756097562,52.9979674796748 29.776422764227643,53.201219512195124 29.827235772357724,53.40447154471545 29.878048780487806,53.607723577235774 29.979674796747968,53.760162601626014 30.03048780487805,54.014227642276424 30.132113821138212,54.21747967479675 30.182926829268293,54.420731707317074 30.284552845528456,54.67479674796748 30.335365853658537,54.8780487804878 30.4369918699187,55.13211382113821 30.48780487804878,55.33536585365854 30.589430894308943,55.53861788617886 30.640243902439025,55.74186991869919 30.741869918699187,55.99593495934959 30.79268292682927,56.199186991869915 30.89430894308943,56.40243902439024 30.995934959349594,56.70731707317073 31.046747967479675,56.91056910569105 31.148373983739837,57.16463414634146 31.19918699186992,57.418699186991866 31.30081300813008,57.672764227642276 31.402439024390244,57.8760162601626 31.504065040650406,58.079268292682926 31.60569105691057,58.33333333333333 31.70731707317073,58.536585365853654 31.859756097560975,58.790650406504064 32.012195121951216,59.04471544715447 32.16463414634146,59.298780487804876 32.3170731707317,59.552845528455286 32.418699186991866,59.75609756097561 32.57113821138211,59.959349593495936 32.72357723577236,60.21341463414634 32.82520325203252,60.416666666666664 32.97764227642276,60.61991869918699 33.13008130081301,60.8739837398374 33.23170731707317,61.1280487804878 33.38414634146341,61.33130081300813 33.53658536585366,61.58536585365854 33.6890243902439,61.78861788617886 33.84146341463415,61.99186991869919 34.04471544715447,62.19512195121951" fill="none" stroke="black" stroke-width="0.6"></polyline><polyline points="34.04471544715447,62.19512195121951 34.2479674796748,62.34756097560975 34.40040650406504,62.5 34.603658536585364,62.703252032520325 34.80691056910569,62.855691056910565 35.010162601626014,63.00813008130081 35.21341463414634,63.21138211382114 35.416666666666664,63.36382113821138 35.61991869918699,63.516260162601625 35.823170731707314,63.668699186991866 36.02642276422764,63.82113821138211 36.229674796747965,63.97357723577235 36.43292682926829,64.1260162601626 36.636178861788615,64.22764227642276 36.890243902439025,64.380081300813 37.09349593495935,64.48170731707317 37.24593495934959,64.58333333333333 37.449186991869915,64.73577235772358 37.65243902439024,64.83739837398373 37.80487804878049,64.9390243902439 38.00813008130081,65.09146341463415 38.21138211382114,65.1930894308943 38.36382113821138,65.29471544715447 38.5670731707317,65.39634146341463 38.71951219512195,65.54878048780488 38.922764227642276,65.59959349593495 39.1260162601626,65.7520325203252 39.27845528455285,65.80284552845528 39.43089430894309,65.90447154471545 39.63414634146341,65.95528455284553 39.83739837398374,66.0569105691057 40.040650406504064,66.10772357723577 40.24390243902439,66.15853658536585 40.34552845528455,66.15853658536585 40.396341463414636,66.15853658536585 40.59959349593496,66.20934959349593 40.7520325203252,66.26016260162602 40.95528455284553,66.26016260162602 41.107723577235774,66.3109756097561 41.36178861788618,66.3109756097561 41.514227642276424,66.36178861788618 41.71747967479675,66.41260162601625 41.86991869918699,66.41260162601625 42.02235772357724,66.46341463414635 42.17479674796748,66.51422764227642 42.3780487804878,66.5650406504065 42.53048780487805,66.61585365853658 42.733739837398375,66.66666666666667 42.9369918699187,66.76829268292683 43.140243902439025,66.8191056910569 43.292682926829265,66.869918699187" fill="none" stroke="black" stroke-width="0.6"></polyline><polyline points="43.292682926829265,66.869918699187 43.49593495934959,66.92073170731707 43.64837398373984,66.97154471544715 43.80081300813008,67.02235772357723 43.90243902439024,67.02235772357723 44.05487804878049,67.07317073170732 44.20731707317073,67.07317073170732 44.30894308943089,67.07317073170732 44.46138211382114,67.07317073170732 44.61382113821138,67.07317073170732 44.8170731707317,67.07317073170732 44.96951219512195,67.02235772357723 45.22357723577235,67.02235772357723 45.47764227642276,66.97154471544715 45.833333333333336,66.92073170731707 46.1890243902439,66.869918699187 46.59552845528455,66.76829268292683 47.0020325203252,66.66666666666667 47.40853658536585,66.5650406504065 47.86585365853659,66.51422764227642 48.27235772357724,66.46341463414635 48.6280487804878,66.41260162601625 49.03455284552845,66.36178861788618 49.33943089430894,66.3109756097561 49.74593495934959,66.20934959349593 50.10162601626016,66.10772357723577 50.45731707317073,66.0569105691057 50.762195121951216,65.95528455284553 51.016260162601625,65.85365853658537 51.21951219512195,65.7520325203252 51.47357723577235,65.65040650406505 51.72764227642276,65.54878048780488 51.981707317073166,65.44715447154472 52.235772357723576,65.29471544715447 52.4390243902439,65.14227642276423 52.59146341463415,65.04065040650406 52.74390243902439,64.9390243902439 52.896341463414636,64.83739837398373 52.9979674796748,64.73577235772358 53.15040650406504,64.6341463414634 53.201219512195124,64.53252032520325 53.353658536585364,64.380081300813 53.45528455284553,64.22764227642276 53.607723577235774,64.07520325203252 53.760162601626014,63.87195121951219 53.96341463414634,63.668699186991866 54.11585365853659,63.46544715447154 54.31910569105691,63.262195121951216 54.573170731707314,63.00813008130081 54.72560975609756,62.855691056910565 54.8780487804878,62.65243902439024" fill="none" stroke="black" stroke-width="0.6"></polyline><polyline points="54.8780487804878,62.65243902439024 55.03048780487805,62.5 55.13211382113821,62.34756097560975 55.28455284552845,62.19512195121951 55.4369918699187,62.042682926829265 55.58943089430894,61.83943089430894 55.74186991869919,61.6869918699187 55.89430894308943,61.43292682926829 55.99593495934959,61.229674796747965 56.14837398373984,61.02642276422764 56.25,60.77235772357724 56.30081300813008,60.51829268292683 56.40243902439024,60.264227642276424 56.453252032520325,60.010162601626014 56.55487804878049,59.75609756097561 56.605691056910565,59.552845528455286 56.70731707317073,59.2479674796748 56.75813008130081,59.04471544715447 56.859756097560975,58.790650406504064 56.96138211382114,58.485772357723576 57.012195121951216,58.231707317073166 57.11382113821138,57.92682926829268 57.266260162601625,57.62195121951219 57.36788617886179,57.3170731707317 57.46951219512195,57.012195121951216 57.62195121951219,56.70731707317073 57.77439024390244,56.35162601626016 57.92682926829268,56.046747967479675 58.079268292682926,55.74186991869919 58.231707317073166,55.48780487804878 58.43495934959349,55.18292682926829 58.58739837398374,54.8780487804878 58.6890243902439,54.573170731707314 58.790650406504064,54.26829268292683 58.84146341463415,53.86178861788618 58.94308943089431,53.55691056910569 59.04471544715447,53.201219512195124 59.146341463414636,52.84552845528455 59.2479674796748,52.489837398373986 59.40040650406504,52.083333333333336 59.5020325203252,51.67682926829268 59.603658536585364,51.27032520325203 59.70528455284553,50.91463414634146 59.75609756097561,50.55894308943089 59.857723577235774,50.15243902439024 59.90853658536585,49.74593495934959 59.959349593495936,49.33943089430894 60.010162601626014,48.983739837398375 60.0609756097561,48.577235772357724 60.16260162601626,48.22154471544715 60.21341463414634,47.8150406504065" fill="none" stroke="black" stroke-width="0.6"></polyline><polyline points="60.21341463414634,47.8150406504065 60.264227642276424,47.357723577235774 60.3150406504065,46.951219512195124 60.3150406504065,46.59552845528455 60.36585365853659,46.1890243902439 60.416666666666664,45.78252032520325 60.416666666666664,45.3760162601626 60.416666666666664,44.918699186991866 60.46747967479675,44.5630081300813 60.46747967479675,44.20731707317073 60.46747967479675,43.75 60.46747967479675,43.292682926829265 60.46747967479675,42.83536585365854 60.46747967479675,42.3780487804878 60.46747967479675,42.17479674796748 60.46747967479675,41.97154471544715 60.416666666666664,41.61585365853659 60.416666666666664,41.15853658536585 60.36585365853659,40.802845528455286 60.3150406504065,40.447154471544714 60.264227642276424,40.040650406504064 60.16260162601626,39.735772357723576 60.11178861788618,39.43089430894309 60.010162601626014,39.07520325203252 59.90853658536585,38.77032520325203 59.80691056910569,38.46544715447154 59.70528455284553,38.16056910569105 59.603658536585364,37.90650406504065 59.5020325203252,37.65243902439024 59.34959349593496,37.34756097560975 59.197154471544714,37.09349593495935 59.04471544715447,36.83943089430894 58.892276422764226,36.53455284552845 58.739837398373986,36.33130081300813 58.58739837398374,36.1280487804878 58.43495934959349,35.92479674796748 58.28252032520325,35.72154471544715 58.079268292682926,35.51829268292683 57.8760162601626,35.264227642276424 57.72357723577235,35.0609756097561 57.57113821138211,34.857723577235774 57.36788617886179,34.65447154471545 57.21544715447154,34.451219512195124 57.0630081300813,34.2479674796748 56.859756097560975,34.04471544715447 56.75813008130081,33.94308943089431 56.65650406504065,33.84146341463415 56.40243902439024,33.63821138211382 56.14837398373984,33.485772357723576 55.94512195121951,33.28252032520325 55.74186991869919,33.13008130081301" fill="none" stroke="black" stroke-width="0.6"></polyline><polyline points="55.74186991869919,33.13008130081301 55.48780487804878,32.926829268292686 55.233739837398375,32.77439024390244 54.979674796747965,32.57113821138211 54.67479674796748,32.36788617886179 54.36991869918699,32.21544715447154 54.0650406504065,32.0630081300813 53.760162601626014,31.910569105691057 53.45528455284553,31.758130081300813 53.15040650406504,31.60569105691057 52.74390243902439,31.453252032520325 52.4390243902439,31.351626016260163 52.083333333333336,31.19918699186992 51.67682926829268,31.097560975609756 51.37195121951219,30.945121951219512 50.96544715447154,30.84349593495935 50.762195121951216,30.741869918699187 50.55894308943089,30.691056910569106 50.203252032520325,30.538617886178862 49.74593495934959,30.4369918699187 49.33943089430894,30.284552845528456 48.983739837398375,30.233739837398375 48.577235772357724,30.132113821138212 48.170731707317074,30.08130081300813 47.764227642276424,29.979674796747968 47.357723577235774,29.928861788617887 46.951219512195124,29.878048780487806 46.59552845528455,29.827235772357724 46.1890243902439,29.776422764227643 45.78252032520325,29.725609756097562 45.3760162601626,29.725609756097562 44.96951219512195,29.67479674796748 44.66463414634146,29.6239837398374 44.30894308943089,29.6239837398374 44.0040650406504,29.573170731707318 43.64837398373984,29.573170731707318 43.1910569105691,29.573170731707318 42.733739837398375,29.573170731707318 42.327235772357724,29.573170731707318 41.920731707317074,29.573170731707318 41.46341463414634,29.573170731707318 41.107723577235774,29.573170731707318 40.7520325203252,29.573170731707318 40.34552845528455,29.6239837398374 39.989837398373986,29.67479674796748 39.53252032520325,29.725609756097562 39.02439024390244,29.827235772357724 38.61788617886179,29.878048780487806 38.21138211382114,29.979674796747968 37.7540650406504,30.08130081300813 37.34756097560975,30.182926829268293" fill="none" stroke="black" stroke-width="0.6"></polyline><polyline points="37.34756097560975,30.182926829268293 36.890243902439025,30.284552845528456 36.483739837398375,30.38617886178862 36.1280487804878,30.48780487804878 35.77235772357724,30.640243902439025 35.3150406504065,30.79268292682927 34.90853658536585,30.995934959349594 34.552845528455286,31.148373983739837 34.146341463414636,31.30081300813008 33.790650406504064,31.504065040650406 33.485772357723576,31.65650406504065 33.18089430894309,31.859756097560975 32.926829268292686,32.012195121951216 32.672764227642276,32.16463414634146 32.36788617886179,32.418699186991866 32.0630081300813,32.672764227642276 31.758130081300813,32.926829268292686 31.453252032520325,33.18089430894309 31.19918699186992,33.4349593495935 30.945121951219512,33.63821138211382 30.691056910569106,33.892276422764226 30.4369918699187,34.146341463414636 30.233739837398375,34.40040650406504 29.979674796747968,34.603658536585364 29.776422764227643,34.90853658536585 29.573170731707318,35.16260162601626 29.369918699186993,35.416666666666664 29.166666666666664,35.670731707317074 29.01422764227642,35.92479674796748 28.810975609756095,36.17886178861789 28.60772357723577,36.43292682926829 28.404471544715445,36.73780487804878 28.20121951219512,37.042682926829265 27.997967479674795,37.39837398373984 27.74390243902439,37.7540650406504 27.4390243902439,38.109756097560975 27.184959349593495,38.46544715447154 26.880081300813007,38.82113821138211 26.57520325203252,39.22764227642276 26.371951219512194,39.63414634146341 26.117886178861788,39.989837398373986 25.914634146341463,40.396341463414636 25.660569105691057,40.701219512195124 25.508130081300813,41.00609756097561 25.35569105691057,41.36178861788618 25.254065040650406,41.666666666666664 25.152439024390244,41.97154471544715 25.05081300813008,42.22560975609756 24.94918699186992,42.53048780487805 24.898373983739837,42.78455284552845 24.796747967479675,43.08943089430894" fill="none" stroke="black" stroke-width="0.6"></polyline><polyline points="24.796747967479675,43.08943089430894 24.745934959349594,43.39430894308943 24.64430894308943,43.80081300813008 24.59349593495935,44.15650406504065 24.54268292682927,44.46138211382114 24.491869918699187,44.8170731707317 24.441056910569106,45.07113821138211 24.390243902439025,45.3760162601626 24.390243902439025,45.73170731707317 24.339430894308943,46.03658536585366 24.288617886178862,46.392276422764226 24.288617886178862,46.697154471544714 24.288617886178862,47.0020325203252 24.288617886178862,47.30691056910569 24.288617886178862,47.66260162601626 24.288617886178862,48.01829268292683 24.288617886178862,48.42479674796748 24.288617886178862,48.78048780487805 24.288617886178862,49.136178861788615 24.288617886178862,49.4410569105691 24.288617886178862,49.796747967479675 24.288617886178862,50.10162601626016 24.288617886178862,50.45731707317073 24.339430894308943,50.86382113821138 24.390243902439025,51.168699186991866 24.441056910569106,51.52439024390244 24.491869918699187,51.880081300813 24.54268292682927,52.1849593495935 24.59349593495935,52.540650406504064 24.64430894308943,52.947154471544714 24.695121951219512,53.2520325203252 24.745934959349594,53.55691056910569 24.847560975609756,53.91260162601626 24.898373983739837,54.21747967479675 24.94918699186992,54.52235772357724 25,54.8780487804878 25.05081300813008,55.233739837398375 25.152439024390244,55.58943089430894 25.254065040650406,55.89430894308943 25.304878048780488,56.199186991869915 25.40650406504065,56.55487804878049 25.508130081300813,56.91056910569105 25.609756097560975,57.21544715447154 25.76219512195122,57.52032520325203 25.86382113821138,57.8760162601626 26.016260162601625,58.130081300813 26.117886178861788,58.43495934959349 26.270325203252032,58.790650406504064 26.422764227642276,59.09552845528455 26.57520325203252,59.451219512195124 26.778455284552845,59.75609756097561" fill="none" stroke="black" stroke-width="0.6"></polyline><polyline points="26.778455284552845,59.75609756097561 26.93089430894309,60.0609756097561 27.134146341463413,60.3150406504065 27.33739837398374,60.61991869918699 27.540650406504064,60.92479674796748 27.642276422764226,61.077235772357724 27.74390243902439,61.229674796747965 27.947154471544714,61.53455284552845 28.099593495934958,61.78861788617886 28.302845528455283,62.042682926829265 28.506097560975608,62.296747967479675 28.65853658536585,62.55081300813008 28.861788617886177,62.80487804878049 29.0650406504065,63.05894308943089 29.268292682926827,63.36382113821138 29.420731707317074,63.5670731707317 29.6239837398374,63.82113821138211 29.776422764227643,64.02439024390243 29.979674796747968,64.27845528455285 30.182926829268293,64.43089430894308 30.335365853658537,64.6341463414634 30.538617886178862,64.83739837398373 30.741869918699187,65.04065040650406 30.89430894308943,65.29471544715447 31.097560975609756,65.4979674796748 31.25,65.70121951219512 31.453252032520325,65.90447154471545 31.60569105691057,66.10772357723577 31.758130081300813,66.3109756097561 31.961382113821138,66.51422764227642 32.16463414634146,66.71747967479675 32.3170731707317,66.869918699187 32.46951219512195,67.07317073170732 32.672764227642276,67.27642276422765 32.82520325203252,67.42886178861788 33.02845528455285,67.6321138211382 33.18089430894309,67.83536585365853 33.333333333333336,67.98780487804878 33.485772357723576,68.14024390243902 33.63821138211382,68.34349593495935 33.790650406504064,68.4451219512195 33.94308943089431,68.59756097560975 34.09552845528455,68.75 34.2479674796748,68.85162601626016 34.40040650406504,68.95325203252033 34.552845528455286,69.10569105691057 34.70528455284553,69.20731707317073 34.90853658536585,69.3089430894309 35.0609756097561,69.41056910569105 35.21341463414634,69.51219512195122 35.36585365853659,69.61382113821138" fill="none" stroke="black" stroke-width="0.6"></polyline><polyline points="35.36585365853659,69.61382113821138 35.51829268292683,69.71544715447155 35.670731707317074,69.8170731707317 35.823170731707314,69.91869918699187 35.97560975609756,70.02032520325203 36.1280487804878,70.1219512195122 36.33130081300813,70.22357723577235 36.53455284552845,70.32520325203252 36.6869918699187,70.3760162601626 36.890243902439025,70.47764227642276 37.14430894308943,70.52845528455285 37.34756097560975,70.57926829268293 37.55081300813008,70.68089430894308 37.7540650406504,70.73170731707317 37.95731707317073,70.83333333333333 38.21138211382114,70.8841463414634 38.46544715447154,70.9349593495935 38.71951219512195,70.98577235772358 38.97357723577235,71.03658536585365 39.27845528455285,71.08739837398373 39.53252032520325,71.13821138211382 39.78658536585366,71.1890243902439 40.09146341463415,71.23983739837398 40.396341463414636,71.29065040650406 40.65040650406504,71.29065040650406 40.95528455284553,71.29065040650406 41.260162601626014,71.29065040650406 41.61585365853659,71.29065040650406 41.920731707317074,71.29065040650406 42.27642276422764,71.29065040650406 42.58130081300813,71.29065040650406 42.886178861788615,71.29065040650406 43.1910569105691,71.29065040650406 43.44512195121951,71.29065040650406 43.75,71.29065040650406 44.05487804878049,71.29065040650406 44.359756097560975,71.29065040650406 44.61382113821138,71.29065040650406 44.918699186991866,71.23983739837398 45.22357723577235,71.1890243902439 45.63008130081301,71.13821138211382 46.08739837398374,71.03658536585365 46.59552845528455,70.9349593495935 47.052845528455286,70.83333333333333 47.459349593495936,70.78252032520325 47.86585365853659,70.73170731707317 48.170731707317074,70.68089430894308 48.52642276422764,70.57926829268293 48.88211382113821,70.52845528455285 49.23780487804878,70.42682926829268 49.64430894308943,70.32520325203252" fill="none" stroke="black" stroke-width="0.6"></polyline><polyline points="49.64430894308943,70.32520325203252 50.10162601626016,70.22357723577235 50.45731707317073,70.1219512195122 50.71138211382114,70.02032520325203 51.016260162601625,69.91869918699187 51.32113821138211,69.8170731707317 51.575203252032516,69.66463414634146 51.880081300813,69.51219512195122 52.1849593495935,69.35975609756098 52.4390243902439,69.2581300813008 52.69308943089431,69.10569105691057 52.896341463414636,68.95325203252033 53.15040650406504,68.85162601626016 53.40447154471545,68.69918699186992 53.607723577235774,68.54674796747967 53.86178861788618,68.39430894308943 54.0650406504065,68.24186991869918 54.31910569105691,68.08943089430895 54.52235772357724,67.88617886178862 54.72560975609756,67.73373983739837 54.92886178861789,67.58130081300813 55.13211382113821,67.42886178861788 55.33536585365854,67.22560975609755 55.53861788617886,67.07317073170732 55.792682926829265,66.92073170731707 56.046747967479675,66.76829268292683 56.25,66.61585365853658 56.5040650406504,66.46341463414635 56.70731707317073,66.26016260162602 56.91056910569105,66.10772357723577 57.16463414634146,65.90447154471545 57.36788617886179,65.70121951219512 57.62195121951219,65.4979674796748 57.825203252032516,65.29471544715447 58.079268292682926,65.04065040650406 58.231707317073166,64.83739837398373 58.43495934959349,64.6341463414634 58.6890243902439,64.43089430894308 58.94308943089431,64.17682926829268 59.197154471544714,63.922764227642276 59.5020325203252,63.668699186991866 59.75609756097561,63.36382113821138 60.010162601626014,63.109756097560975 60.3150406504065,62.80487804878049 60.56910569105691,62.55081300813008 60.823170731707314,62.296747967479675 61.077235772357724,62.042682926829265 61.33130081300813,61.78861788617886 61.58536585365854,61.53455284552845 61.78861788617886,61.28048780487805 62.042682926829265,61.02642276422764" fill="none" stroke="black" stroke-width="0.6"></polyline><polyline points="62.042682926829265,61.02642276422764 62.24593495934959,60.77235772357724 62.449186991869915,60.46747967479675 62.60162601626016,60.21341463414634 62.7540650406504,59.959349593495936 62.90650406504065,59.75609756097561 63.109756097560975,59.5020325203252 63.262195121951216,59.197154471544714 63.46544715447154,58.94308943089431 63.61788617886179,58.63821138211382 63.82113821138211,58.33333333333333 63.922764227642276,58.079268292682926 64.07520325203252,57.825203252032516 64.17682926829268,57.57113821138211 64.27845528455285,57.36788617886179 64.380081300813,57.11382113821138 64.48170731707317,56.859756097560975 64.58333333333333,56.55487804878049 64.6849593495935,56.25 64.78658536585365,55.94512195121951 64.88821138211382,55.6910569105691 64.98983739837398,55.4369918699187 65.09146341463415,55.13211382113821 65.1930894308943,54.827235772357724 65.34552845528455,54.52235772357724 65.44715447154472,54.166666666666664 65.54878048780488,53.86178861788618 65.65040650406505,53.55691056910569 65.7520325203252,53.2520325203252 65.80284552845528,52.947154471544714 65.90447154471545,52.642276422764226 65.95528455284553,52.33739837398374 66.0060975609756,52.03252032520325 66.0569105691057,51.72764227642276 66.10772357723577,51.37195121951219 66.10772357723577,51.11788617886179 66.15853658536585,50.8130081300813 66.15853658536585,50.45731707317073 66.20934959349593,50.15243902439024 66.20934959349593,49.796747967479675 66.26016260162602,49.4410569105691 66.26016260162602,49.136178861788615 66.26016260162602,48.78048780487805 66.26016260162602,48.42479674796748 66.3109756097561,48.11991869918699 66.3109756097561,47.764227642276424 66.3109756097561,47.40853658536585 66.3109756097561,47.052845528455286 66.3109756097561,46.7479674796748 66.3109756097561,46.392276422764226 66.3109756097561,46.08739837398374" fill="none" stroke="black" stroke-width="0.6"></polyline><polyline points="66.3109756097561,46.08739837398374 66.3109756097561,45.73170731707317 66.3109756097561,45.325203252032516 66.26016260162602,44.96951219512195 66.20934959349593,44.61382113821138 66.20934959349593,44.25813008130081 66.15853658536585,43.953252032520325 66.0569105691057,43.59756097560975 66.0060975609756,43.24186991869919 65.90447154471545,42.886178861788615 65.85365853658537,42.53048780487805 65.7520325203252,42.17479674796748 65.65040650406505,41.86991869918699 65.54878048780488,41.514227642276424 65.44715447154472,41.15853658536585 65.34552845528455,40.802845528455286 65.2439024390244,40.4979674796748 65.14227642276423,40.142276422764226 65.04065040650406,39.88821138211382 64.9390243902439,39.583333333333336 64.78658536585365,39.22764227642276 64.6849593495935,38.922764227642276 64.58333333333333,38.5670731707317 64.48170731707317,38.262195121951216 64.380081300813,37.95731707317073 64.22764227642276,37.65243902439024 64.1260162601626,37.34756097560975 63.97357723577235,37.042682926829265 63.82113821138211,36.6869918699187 63.668699186991866,36.38211382113821 63.5670731707317,36.077235772357724 63.41463414634146,35.77235772357724 63.3130081300813,35.51829268292683 63.16056910569105,35.21341463414634 63.00813008130081,34.90853658536585 62.90650406504065,34.603658536585364 62.7540650406504,34.34959349593496 62.60162601626016,34.04471544715447 62.449186991869915,33.84146341463415 62.34756097560975,33.58739837398374 62.14430894308943,33.333333333333336 62.042682926829265,33.079268292682926 61.83943089430894,32.82520325203252 61.6869918699187,32.52032520325203 61.483739837398375,32.266260162601625 61.33130081300813,31.961382113821138 61.1280487804878,31.70731707317073 60.97560975609756,31.504065040650406 60.77235772357724,31.25 60.61991869918699,30.995934959349594 60.416666666666664,30.741869918699187" fill="none" stroke="black" stroke-width="0.6"></polyline><polyline points="60.416666666666664,30.741869918699187 60.264227642276424,30.48780487804878 60.0609756097561,30.233739837398375 59.857723577235774,29.979674796747968 59.65447154471545,29.725609756097562 59.40040650406504,29.471544715447155 59.197154471544714,29.268292682926827 59.04471544715447,29.01422764227642 58.84146341463415,28.810975609756095 58.63821138211382,28.60772357723577 58.43495934959349,28.353658536585364 58.18089430894309,28.15040650406504 57.97764227642276,27.947154471544714 57.72357723577235,27.74390243902439 57.46951219512195,27.591463414634145 57.21544715447154,27.38821138211382 56.96138211382114,27.235772357723576 56.65650406504065,27.03252032520325 56.35162601626016,26.829268292682926 56.046747967479675,26.6260162601626 55.74186991869919,26.422764227642276 55.48780487804878,26.270325203252032 55.18292682926829,26.067073170731707 54.8780487804878,25.86382113821138 54.573170731707314,25.711382113821138 54.26829268292683,25.558943089430894 53.91260162601626,25.40650406504065 53.55691056910569,25.254065040650406 53.15040650406504,25.101626016260163 52.79471544715447,24.94918699186992 52.4390243902439,24.796747967479675 52.083333333333336,24.695121951219512 51.72764227642276,24.54268292682927 51.37195121951219,24.441056910569106 51.016260162601625,24.288617886178862 50.66056910569105,24.1869918699187 50.30487804878049,24.034552845528456 49.949186991869915,23.882113821138212 49.542682926829265,23.78048780487805 49.1869918699187,23.678861788617887 48.78048780487805,23.577235772357724 48.3739837398374,23.475609756097562 48.01829268292683,23.3739837398374 47.5609756097561,23.272357723577237 47.20528455284553,23.221544715447155 46.798780487804876,23.170731707317074 46.34146341463415,23.119918699186993 45.985772357723576,23.06910569105691 45.78252032520325,23.01829268292683 45.579268292682926,23.01829268292683 45.172764227642276,22.96747967479675" fill="none" stroke="black" stroke-width="0.6"></polyline><polyline points="45.172764227642276,22.96747967479675 44.96951219512195,22.96747967479675 44.41056910569105,22.916666666666668 44.0040650406504,22.865853658536587 43.64837398373984,22.815040650406505 43.292682926829265,22.815040650406505 42.886178861788615,22.815040650406505 42.53048780487805,22.815040650406505 42.17479674796748,22.815040650406505 41.81910569105691,22.815040650406505 41.514227642276424,22.815040650406505 41.15853658536585,22.815040650406505 40.701219512195124,22.865853658536587 40.29471544715447,22.916666666666668 39.88821138211382,22.96747967479675 39.43089430894309,23.01829268292683 38.97357723577235,23.06910569105691 38.5670731707317,23.170731707317074 38.16056910569105,23.221544715447155 37.90650406504065,23.272357723577237 37.65243902439024,23.323170731707318 37.34756097560975,23.42479674796748 37.042682926829265,23.475609756097562 36.73780487804878,23.526422764227643 36.38211382113821,23.628048780487806 36.077235772357724,23.729674796747968 35.823170731707314,23.78048780487805 35.56910569105691,23.83130081300813 35.416666666666664,23.932926829268293 35.3150406504065,23.932926829268293 35.21341463414634,23.983739837398375 35.010162601626014,24.034552845528456 34.80691056910569,24.13617886178862 34.603658536585364,24.23780487804878 34.34959349593496,24.339430894308943 34.04471544715447,24.441056910569106 33.790650406504064,24.59349593495935 33.53658536585366,24.695121951219512 33.38414634146341,24.745934959349594 33.23170731707317,24.847560975609756 33.13008130081301,24.898373983739837 33.02845528455285,25 32.8760162601626,25.101626016260163 32.72357723577236,25.203252032520325 32.57113821138211,25.304878048780488 32.36788617886179,25.35569105691057 32.16463414634146,25.45731707317073 32.012195121951216,25.558943089430894 31.859756097560975,25.660569105691057 31.70731707317073,25.76219512195122 31.554878048780488,25.86382113821138" fill="none" stroke="black" stroke-width="0.6"></polyline><polyline points="31.554878048780488,25.86382113821138 31.402439024390244,25.965447154471544 31.30081300813008,26.117886178861788 31.148373983739837,26.21951219512195 30.995934959349594,26.321138211382113 30.79268292682927,26.422764227642276 30.640243902439025,26.57520325203252 30.48780487804878,26.676829268292682 30.335365853658537,26.778455284552845 30.182926829268293,26.880081300813007 29.979674796747968,26.98170731707317 29.827235772357724,27.083333333333332 29.67479674796748,27.184959349593495 29.522357723577237,27.286585365853657 29.369918699186993,27.38821138211382 29.268292682926827,27.4390243902439 29.115853658536583,27.540650406504064 29.01422764227642,27.642276422764226 28.861788617886177,27.74390243902439 28.760162601626014,27.84552845528455 28.60772357723577,27.947154471544714 28.506097560975608,27.997967479674795 28.404471544715445,28.099593495934958 28.302845528455283,28.15040650406504 28.2520325203252,28.2520325203252 28.15040650406504,28.353658536585364 28.048780487804876,28.455284552845526 27.947154471544714,28.55691056910569 27.84552845528455,28.709349593495933 27.74390243902439,28.810975609756095 27.642276422764226,28.96341463414634 27.489837398373982,29.0650406504065 27.38821138211382,29.166666666666664 27.286585365853657,29.31910569105691 27.184959349593495,29.420731707317074 27.083333333333332,29.522357723577237 27.03252032520325,29.6239837398374 26.93089430894309,29.725609756097562 26.880081300813007,29.827235772357724 26.829268292682926,29.928861788617887 26.778455284552845,30.08130081300813 26.676829268292682,30.182926829268293 26.6260162601626,30.284552845528456 26.524390243902438,30.4369918699187 26.473577235772357,30.589430894308943 26.371951219512194,30.691056910569106 26.270325203252032,30.84349593495935 26.21951219512195,30.995934959349594 26.117886178861788,31.097560975609756 26.016260162601625,31.25 25.965447154471544,31.402439024390244" fill="none" stroke="black" stroke-width="0.6"></polyline><polyline points="25.965447154471544,31.402439024390244 25.86382113821138,31.554878048780488 25.76219512195122,31.70731707317073 25.609756097560975,31.859756097560975 25.508130081300813,32.012195121951216 25.40650406504065,32.21544715447154 25.304878048780488,32.36788617886179 25.203252032520325,32.57113821138211 25.101626016260163,32.77439024390244 25,32.97764227642276 24.898373983739837,33.18089430894309 24.796747967479675,33.38414634146341 24.695121951219512,33.58739837398374 24.59349593495935,33.790650406504064 24.441056910569106,33.99390243902439 24.339430894308943,34.197154471544714 24.1869918699187,34.40040650406504 23.983739837398375,34.65447154471545 23.83130081300813,34.90853658536585 23.678861788617887,35.21341463414634 23.475609756097562,35.51829268292683 23.323170731707318,35.77235772357724 23.170731707317074,36.02642276422764 23.01829268292683,36.28048780487805 22.865853658536587,36.53455284552845 22.764227642276424,36.78861788617886 22.662601626016258,37.042682926829265 22.560975609756095,37.296747967479675 22.459349593495933,37.60162601626016 22.35772357723577,37.855691056910565 22.256097560975608,38.16056910569105 22.103658536585364,38.46544715447154 22.0020325203252,38.71951219512195 21.90040650406504,39.02439024390244 21.747967479674795,39.43089430894309 21.646341463414632,39.735772357723576 21.54471544715447,40.09146341463415 21.443089430894307,40.447154471544714 21.341463414634145,40.7520325203252 21.239837398373982,41.05691056910569 21.13821138211382,41.41260162601626 21.036585365853657,41.76829268292683 20.985772357723576,42.073170731707314 20.884146341463413,42.479674796747965 20.833333333333332,42.78455284552845 20.78252032520325,43.08943089430894 20.73170731707317,43.49593495934959 20.73170731707317,43.85162601626016 20.68089430894309,44.25813008130081 20.68089430894309,44.66463414634146 20.630081300813007,44.96951219512195" fill="none" stroke="black" stroke-width="0.6"></polyline><polyline points="20.630081300813007,44.96951219512195 20.630081300813007,45.3760162601626 20.579268292682926,45.78252032520325 20.528455284552845,46.1890243902439 20.426829268292682,46.59552845528455 20.3760162601626,47.052845528455286 20.32520325203252,47.459349593495936 20.274390243902438,47.86585365853659 20.223577235772357,48.42479674796748 20.223577235772357,48.83130081300813 20.172764227642276,49.28861788617886 20.172764227642276,49.796747967479675 20.172764227642276,50.2540650406504 20.172764227642276,50.762195121951216 20.172764227642276,51.32113821138211 20.172764227642276,51.77845528455284 20.172764227642276,52.28658536585366 20.172764227642276,52.79471544715447 20.223577235772357,53.302845528455286 20.223577235772357,53.760162601626014 20.274390243902438,54.26829268292683 20.3760162601626,54.72560975609756 20.426829268292682,55.18292682926829 20.477642276422763,55.58943089430894 20.579268292682926,55.99593495934959 20.68089430894309,56.40243902439024 20.78252032520325,56.859756097560975 20.884146341463413,57.266260162601625 20.985772357723576,57.672764227642276 21.13821138211382,58.079268292682926 21.239837398373982,58.43495934959349 21.341463414634145,58.790650406504064 21.49390243902439,59.197154471544714 21.59552845528455,59.603658536585364 21.697154471544714,59.959349593495936 21.849593495934958,60.3150406504065 21.95121951219512,60.670731707317074 22.103658536585364,61.077235772357724 22.30691056910569,61.483739837398375 22.40853658536585,61.83943089430894 22.560975609756095,62.19512195121951 22.764227642276424,62.5 22.865853658536587,62.80487804878049 23.01829268292683,63.16056910569105 23.119918699186993,63.516260162601625 23.272357723577237,63.82113821138211 23.42479674796748,64.1260162601626 23.577235772357724,64.48170731707317 23.729674796747968,64.78658536585365 23.882113821138212,65.09146341463415 24.085365853658537,65.39634146341463" fill="none" stroke="black" stroke-width="0.6"></polyline><polyline points="24.085365853658537,65.39634146341463 24.23780487804878,65.70121951219512 24.390243902439025,66.0060975609756 24.54268292682927,66.3109756097561 24.745934959349594,66.5650406504065 24.898373983739837,66.869918699187 25.101626016260163,67.1239837398374 25.304878048780488,67.3780487804878 25.508130081300813,67.6829268292683 25.711382113821138,67.98780487804878 25.965447154471544,68.24186991869918 26.21951219512195,68.54674796747967 26.422764227642276,68.75 26.676829268292682,69.0040650406504 26.93089430894309,69.3089430894309 27.184959349593495,69.51219512195122 27.4390243902439,69.8170731707317 27.74390243902439,70.0711382113821 27.997967479674795,70.32520325203252 28.302845528455283,70.52845528455285 28.60772357723577,70.83333333333333 28.912601626016258,71.03658536585365 29.268292682926827,71.29065040650406 29.573170731707318,71.59552845528455 29.928861788617887,71.84959349593495 30.284552845528456,72.10365853658537 30.640243902439025,72.40853658536585 30.995934959349594,72.61178861788618 31.30081300813008,72.86585365853658 31.70731707317073,73.119918699187 32.012195121951216,73.32317073170732 32.36788617886179,73.57723577235772 32.72357723577236,73.8821138211382 33.079268292682926,74.1869918699187 33.4349593495935,74.49186991869918 33.790650406504064,74.7459349593496 34.09552845528455,75.05081300813008 34.451219512195124,75.30487804878048 34.80691056910569,75.5589430894309 35.11178861788618,75.8130081300813 35.46747967479675,76.11788617886178 35.823170731707314,76.3719512195122 36.17886178861789,76.6260162601626 36.58536585365854,76.880081300813 36.99186991869919,77.1341463414634 37.34756097560975,77.33739837398373 37.7540650406504,77.54065040650406 38.16056910569105,77.74390243902438 38.516260162601625,77.9471544715447 38.922764227642276,78.15040650406505 39.329268292682926,78.35365853658537" fill="none" stroke="black" stroke-width="0.6"></polyline><polyline points="39.329268292682926,78.35365853658537 39.6849593495935,78.5569105691057 40.040650406504064,78.70934959349593 40.447154471544714,78.86178861788618 40.853658536585364,79.01422764227642 41.260162601626014,79.16666666666667 41.61585365853659,79.26829268292683 41.97154471544715,79.369918699187 42.327235772357724,79.47154471544715 42.733739837398375,79.57317073170732 43.08943089430894,79.6239837398374 43.44512195121951,79.72560975609755 43.80081300813008,79.77642276422765 44.105691056910565,79.82723577235772 44.41056910569105,79.8780487804878 44.766260162601625,79.97967479674797 45.07113821138211,79.97967479674797 45.3760162601626,80.03048780487805 45.73170731707317,80.08130081300813 46.03658536585366,80.08130081300813 46.392276422764226,80.08130081300813 46.697154471544714,80.08130081300813 47.0020325203252,80.08130081300813 47.30691056910569,80.08130081300813 47.61178861788618,80.03048780487805 47.916666666666664,79.97967479674797 48.27235772357724,79.8780487804878 48.577235772357724,79.82723577235772 48.88211382113821,79.72560975609755 49.23780487804878,79.67479674796748 49.49186991869919,79.57317073170732 49.84756097560975,79.47154471544715 50.203252032520325,79.369918699187 50.50813008130081,79.3191056910569 50.8130081300813,79.21747967479675 51.11788617886179,79.11585365853658 51.422764227642276,79.01422764227642 51.77845528455284,78.86178861788618 52.13414634146341,78.76016260162602 52.489837398373986,78.60772357723577 52.84552845528455,78.45528455284553 53.201219512195124,78.30284552845528 53.50609756097561,78.15040650406505 53.8109756097561,77.9979674796748 54.166666666666664,77.84552845528455 54.47154471544715,77.6930894308943 54.827235772357724,77.54065040650406 55.13211382113821,77.33739837398373 55.48780487804878,77.1849593495935 55.89430894308943,76.93089430894308 56.35162601626016,76.67682926829268" fill="none" stroke="black" stroke-width="0.6"></polyline><polyline points="56.35162601626016,76.67682926829268 56.75813008130081,76.47357723577235 57.16463414634146,76.27032520325203 57.57113821138211,76.01626016260163 57.92682926829268,75.8130081300813 58.28252032520325,75.5589430894309 58.6890243902439,75.35569105691057 58.99390243902439,75.20325203252033 59.34959349593496,75 59.70528455284553,74.7459349593496 60.0609756097561,74.54268292682927 60.416666666666664,74.28861788617886 60.77235772357724,74.08536585365853 61.1280487804878,73.83130081300813 61.483739837398375,73.57723577235772 61.83943089430894,73.3739837398374 62.19512195121951,73.17073170731707 62.5,72.96747967479675 62.80487804878049,72.76422764227642 63.05894308943089,72.61178861788618 63.3130081300813,72.45934959349593 63.5670731707317,72.2560975609756 63.87195121951219,72.0020325203252 64.17682926829268,71.7479674796748 64.53252032520325,71.49390243902438 64.78658536585365,71.29065040650406 65.04065040650406,71.03658536585365 65.2439024390244,70.83333333333333 65.4979674796748,70.630081300813 65.7520325203252,70.3760162601626 66.0060975609756,70.1219512195122 66.26016260162602,69.86788617886178 66.51422764227642,69.61382113821138 66.8191056910569,69.3089430894309 67.07317073170732,69.05487804878048 67.32723577235772,68.80081300813008 67.58130081300813,68.54674796747967 67.83536585365853,68.29268292682927 68.08943089430895,67.98780487804878 68.34349593495935,67.6829268292683 68.64837398373983,67.3780487804878 68.90243902439025,67.07317073170732 69.15650406504065,66.76829268292683 69.35975609756098,66.46341463414635 69.66463414634146,66.15853658536585 69.86788617886178,65.90447154471545 70.1219512195122,65.59959349593495 70.3760162601626,65.2439024390244 70.630081300813,64.9390243902439 70.83333333333333,64.58333333333333 71.08739837398373,64.27845528455285" fill="none" stroke="black" stroke-width="0.6"></polyline><polyline points="71.08739837398373,64.27845528455285 71.29065040650406,63.97357723577235 71.54471544715447,63.668699186991866 71.79878048780488,63.3130081300813 72.0020325203252,63.00813008130081 72.15447154471545,62.703252032520325 72.35772357723577,62.34756097560975 72.5609756097561,62.09349593495935 72.71341463414635,61.83943089430894 72.86585365853658,61.53455284552845 73.01829268292683,61.229674796747965 73.17073170731707,60.92479674796748 73.32317073170732,60.56910569105691 73.47560975609755,60.264227642276424 73.67886178861788,60.010162601626014 73.83130081300813,59.70528455284553 73.9329268292683,59.451219512195124 74.08536585365853,59.146341463414636 74.23780487804878,58.84146341463415 74.39024390243902,58.536585365853654 74.49186991869918,58.231707317073166 74.59349593495935,57.92682926829268 74.6951219512195,57.672764227642276 74.79674796747967,57.36788617886179 74.89837398373983,57.0630081300813 75,56.75813008130081 75.10162601626016,56.453252032520325 75.20325203252033,56.09756097560975 75.30487804878048,55.84349593495935 75.35569105691057,55.58943089430894 75.45731707317073,55.33536585365854 75.5589430894309,55.08130081300813 75.60975609756098,54.827235772357724 75.71138211382113,54.52235772357724 75.71138211382113,54.21747967479675 75.76219512195122,53.91260162601626 75.8130081300813,53.607723577235774 75.8130081300813,53.353658536585364 75.86382113821138,53.048780487804876 75.91463414634146,52.74390243902439 75.96544715447155,52.489837398373986 76.01626016260163,52.1849593495935 76.0670731707317,51.880081300813 76.11788617886178,51.6260162601626 76.16869918699187,51.37195121951219 76.21951219512195,51.11788617886179 76.21951219512195,50.91463414634146 76.27032520325203,50.66056910569105 76.3211382113821,50.45731707317073 76.3211382113821,50.2540650406504 76.3211382113821,50.10162601626016" fill="none" stroke="black" stroke-width="0.6"></polyline><polyline points="76.3211382113821,50.10162601626016 76.3211382113821,49.949186991869915 76.3211382113821,49.796747967479675 76.3211382113821,49.69512195121951 76.3211382113821,49.542682926829265 76.3211382113821,49.49186991869919 76.3211382113821,49.4410569105691 76.3211382113821,49.4410569105691" fill="none" stroke="black" stroke-width="0.6"></polyline></svg>