<svg height="100" width="100" preserveAspectRatio="xMidYMid meet"><polyline points="50.30487804878049,51.27032520325203 50.30487804878049,51.21951219512195 50.30487804878049,51.168699186991866 50.30487804878049,51.11788617886179 50.30487804878049,51.0670731707317 50.2540650406504,51.016260162601625 50.2540650406504,50.91463414634146 50.2540650406504,50.91463414634146 50.2540650406504,50.86382113821138 50.2540650406504,50.8130081300813 50.30487804878049,50.762195121951216 50.30487804878049,50.71138211382114 50.30487804878049,50.71138211382114 50.30487804878049,50.66056910569105 50.355691056910565,50.66056910569105 50.355691056910565,50.609756097560975 50.355691056910565,50.609756097560975 50.355691056910565,50.55894308943089 50.355691056910565,50.50813008130081 50.355691056910565,50.45731707317073 50.355691056910565,50.40650406504065 50.355691056910565,50.355691056910565 50.355691056910565,50.30487804878049 50.355691056910565,50.2540650406504 50.355691056910565,50.15243902439024 50.355691056910565,50.10162601626016 50.355691056910565,50 50.355691056910565,49.89837398373984 50.355691056910565,49.84756097560975 50.355691056910565,49.74593495934959 50.355691056910565,49.64430894308943 50.30487804878049,49.542682926829265 50.2540650406504,49.4410569105691 50.203252032520325,49.33943089430894 50.10162601626016,49.28861788617886 50,49.1869918699187 49.949186991869915,49.136178861788615 49.84756097560975,49.08536585365854 49.74593495934959,48.983739837398375 49.64430894308943,48.93292682926829 49.542682926829265,48.88211382113821 49.4410569105691,48.78048780487805 49.33943089430894,48.729674796747965 49.23780487804878,48.67886178861789 49.136178861788615,48.6280487804878 49.03455284552845,48.577235772357724 48.983739837398375,48.52642276422764 48.88211382113821,48.42479674796748 48.83130081300813,48.3739837398374 48.78048780487805,48.323170731707314 48.67886178861789,48.323170731707314" fill="none" stroke="black" stroke-width="0.6"></polyline><polyline points="48.67886178861789,48.323170731707314 48.6280487804878,48.27235772357724 48.577235772357724,48.22154471544715 48.47560975609756,48.22154471544715 48.3739837398374,48.22154471544715 48.27235772357724,48.22154471544715 48.22154471544715,48.22154471544715 48.11991869918699,48.22154471544715 48.01829268292683,48.22154471544715 47.96747967479675,48.27235772357724 47.86585365853659,48.323170731707314 47.764227642276424,48.3739837398374 47.61178861788618,48.47560975609756 47.510162601626014,48.52642276422764 47.40853658536585,48.6280487804878 47.30691056910569,48.67886178861789 47.20528455284553,48.78048780487805 47.103658536585364,48.83130081300813 47.052845528455286,48.88211382113821 46.951219512195124,48.983739837398375 46.90040650406504,49.03455284552845 46.90040650406504,49.08536585365854 46.84959349593496,49.1869918699187 46.84959349593496,49.28861788617886 46.798780487804876,49.33943089430894 46.798780487804876,49.49186991869919 46.798780487804876,49.59349593495935 46.798780487804876,49.74593495934959 46.798780487804876,49.84756097560975 46.798780487804876,50 46.798780487804876,50.15243902439024 46.798780487804876,50.30487804878049 46.798780487804876,50.45731707317073 46.798780487804876,50.609756097560975 46.798780487804876,50.762195121951216 46.798780487804876,50.96544715447154 46.798780487804876,51.11788617886179 46.798780487804876,51.27032520325203 46.84959349593496,51.422764227642276 46.84959349593496,51.575203252032516 46.84959349593496,51.72764227642276 46.84959349593496,51.93089430894309 46.84959349593496,52.083333333333336 46.84959349593496,52.28658536585366 46.90040650406504,52.489837398373986 46.90040650406504,52.642276422764226 46.951219512195124,52.74390243902439 47.0020325203252,52.896341463414636 47.052845528455286,53.048780487804876 47.103658536585364,53.15040650406504 47.20528455284553,53.2520325203252" fill="none" stroke="black" stroke-width="0.6"></polyline><polyline points="47.20528455284553,53.2520325203252 47.30691056910569,53.353658536585364 47.40853658536585,53.40447154471545 47.510162601626014,53.50609756097561 47.5609756097561,53.607723577235774 47.66260162601626,53.65853658536585 47.764227642276424,53.760162601626014 47.86585365853659,53.8109756097561 47.96747967479675,53.86178861788618 48.06910569105691,53.96341463414634 48.170731707317074,54.0650406504065 48.323170731707314,54.11585365853659 48.42479674796748,54.21747967479675 48.52642276422764,54.26829268292683 48.67886178861789,54.31910569105691 48.83130081300813,54.420731707317074 48.983739837398375,54.47154471544715 49.136178861788615,54.47154471544715 49.28861788617886,54.52235772357724 49.4410569105691,54.52235772357724 49.64430894308943,54.573170731707314 49.796747967479675,54.573170731707314 49.949186991869915,54.573170731707314 50.15243902439024,54.573170731707314 50.30487804878049,54.573170731707314 50.45731707317073,54.52235772357724 50.609756097560975,54.52235772357724 50.762195121951216,54.52235772357724 50.86382113821138,54.52235772357724 51.016260162601625,54.47154471544715 51.21951219512195,54.420731707317074 51.32113821138211,54.420731707317074 51.47357723577235,54.36991869918699 51.6260162601626,54.26829268292683 51.77845528455284,54.21747967479675 51.93089430894309,54.166666666666664 52.083333333333336,54.0650406504065 52.235772357723576,54.014227642276424 52.38821138211382,53.91260162601626 52.540650406504064,53.86178861788618 52.642276422764226,53.760162601626014 52.79471544715447,53.709349593495936 52.947154471544714,53.607723577235774 53.09959349593496,53.55691056910569 53.201219512195124,53.45528455284553 53.353658536585364,53.40447154471545 53.50609756097561,53.302845528455286 53.607723577235774,53.2520325203252 53.709349593495936,53.15040650406504 53.760162601626014,53.09959349593496 53.86178861788618,52.9979674796748" fill="none" stroke="black" stroke-width="0.6"></polyline><polyline points="53.86178861788618,52.9979674796748 53.91260162601626,52.947154471544714 54.014227642276424,52.84552845528455 54.11585365853659,52.74390243902439 54.166666666666664,52.642276422764226 54.26829268292683,52.540650406504064 54.31910569105691,52.4390243902439 54.420731707317074,52.33739837398374 54.52235772357724,52.235772357723576 54.6239837398374,52.083333333333336 54.67479674796748,52.03252032520325 54.72560975609756,51.93089430894309 54.827235772357724,51.77845528455284 54.92886178861789,51.67682926829268 54.979674796747965,51.575203252032516 55.08130081300813,51.47357723577235 55.13211382113821,51.32113821138211 55.18292682926829,51.21951219512195 55.28455284552845,51.0670731707317 55.33536585365854,50.96544715447154 55.386178861788615,50.8130081300813 55.48780487804878,50.66056910569105 55.53861788617886,50.55894308943089 55.58943089430894,50.40650406504065 55.640243902439025,50.2540650406504 55.6910569105691,50.10162601626016 55.6910569105691,49.949186991869915 55.74186991869919,49.796747967479675 55.792682926829265,49.64430894308943 55.792682926829265,49.49186991869919 55.84349593495935,49.33943089430894 55.84349593495935,49.1869918699187 55.84349593495935,49.03455284552845 55.89430894308943,48.88211382113821 55.89430894308943,48.729674796747965 55.89430894308943,48.577235772357724 55.94512195121951,48.42479674796748 55.94512195121951,48.27235772357724 55.94512195121951,48.11991869918699 55.94512195121951,47.96747967479675 55.94512195121951,47.764227642276424 55.94512195121951,47.61178861788618 55.94512195121951,47.459349593495936 55.94512195121951,47.30691056910569 55.89430894308943,47.15447154471545 55.84349593495935,47.0020325203252 55.792682926829265,46.90040650406504 55.792682926829265,46.7479674796748 55.74186991869919,46.59552845528455 55.6910569105691,46.44308943089431 55.6910569105691,46.290650406504064" fill="none" stroke="black" stroke-width="0.6"></polyline><polyline points="55.6910569105691,46.290650406504064 55.640243902439025,46.08739837398374 55.640243902439025,45.9349593495935 55.58943089430894,45.78252032520325 55.53861788617886,45.579268292682926 55.53861788617886,45.42682926829268 55.48780487804878,45.27439024390244 55.386178861788615,45.12195121951219 55.33536585365854,45.02032520325203 55.233739837398375,44.86788617886179 55.13211382113821,44.766260162601625 55.03048780487805,44.61382113821138 54.979674796747965,44.512195121951216 54.8780487804878,44.41056910569105 54.77642276422764,44.30894308943089 54.72560975609756,44.20731707317073 54.6239837398374,44.05487804878049 54.52235772357724,43.953252032520325 54.420731707317074,43.85162601626016 54.36991869918699,43.75 54.26829268292683,43.64837398373984 54.166666666666664,43.546747967479675 54.014227642276424,43.44512195121951 53.91260162601626,43.34349593495935 53.760162601626014,43.24186991869919 53.607723577235774,43.1910569105691 53.45528455284553,43.08943089430894 53.302845528455286,43.03861788617886 53.15040650406504,42.9369918699187 52.947154471544714,42.886178861788615 52.79471544715447,42.78455284552845 52.642276422764226,42.733739837398375 52.4390243902439,42.63211382113821 52.235772357723576,42.58130081300813 52.083333333333336,42.53048780487805 51.880081300813,42.479674796747965 51.6260162601626,42.42886178861789 51.422764227642276,42.3780487804878 51.21951219512195,42.3780487804878 50.96544715447154,42.327235772357724 50.762195121951216,42.27642276422764 50.50813008130081,42.22560975609756 50.2540650406504,42.22560975609756 50,42.17479674796748 49.796747967479675,42.17479674796748 49.49186991869919,42.1239837398374 49.28861788617886,42.1239837398374 49.03455284552845,42.073170731707314 48.78048780487805,42.073170731707314 48.52642276422764,42.02235772357724 48.323170731707314,42.02235772357724" fill="none" stroke="black" stroke-width="0.6"></polyline><polyline points="48.323170731707314,42.02235772357724 48.06910569105691,41.97154471544715 47.86585365853659,41.97154471544715 47.66260162601626,41.97154471544715 47.40853658536585,41.97154471544715 47.20528455284553,41.97154471544715 47.0020325203252,41.97154471544715 46.7479674796748,41.97154471544715 46.49390243902439,41.97154471544715 46.290650406504064,42.02235772357724 46.03658536585366,42.02235772357724 45.833333333333336,42.073170731707314 45.63008130081301,42.1239837398374 45.42682926829268,42.17479674796748 45.22357723577235,42.27642276422764 45.02032520325203,42.327235772357724 44.8170731707317,42.42886178861789 44.66463414634146,42.53048780487805 44.46138211382114,42.58130081300813 44.25813008130081,42.68292682926829 44.105691056910565,42.78455284552845 43.953252032520325,42.886178861788615 43.75,42.98780487804878 43.64837398373984,43.08943089430894 43.49593495934959,43.24186991869919 43.34349593495935,43.34349593495935 43.1910569105691,43.49593495934959 43.08943089430894,43.64837398373984 42.9369918699187,43.80081300813008 42.78455284552845,43.953252032520325 42.68292682926829,44.15650406504065 42.53048780487805,44.30894308943089 42.42886178861789,44.46138211382114 42.327235772357724,44.61382113821138 42.22560975609756,44.8170731707317 42.1239837398374,44.96951219512195 42.02235772357724,45.12195121951219 41.920731707317074,45.325203252032516 41.81910569105691,45.47764227642276 41.71747967479675,45.68089430894309 41.666666666666664,45.88414634146341 41.514227642276424,46.08739837398374 41.41260162601626,46.34146341463415 41.260162601626014,46.54471544715447 41.15853658536585,46.7479674796748 41.05691056910569,46.951219512195124 40.95528455284553,47.103658536585364 40.853658536585364,47.30691056910569 40.7520325203252,47.510162601626014 40.701219512195124,47.66260162601626 40.59959349593496,47.8150406504065" fill="none" stroke="black" stroke-width="0.6"></polyline><polyline points="40.59959349593496,47.8150406504065 40.59959349593496,48.01829268292683 40.548780487804876,48.22154471544715 40.4979674796748,48.3739837398374 40.447154471544714,48.577235772357724 40.396341463414636,48.78048780487805 40.34552845528455,48.983739837398375 40.29471544715447,49.1869918699187 40.24390243902439,49.33943089430894 40.19308943089431,49.542682926829265 40.19308943089431,49.74593495934959 40.142276422764226,49.89837398373984 40.142276422764226,50.15243902439024 40.09146341463415,50.355691056910565 40.09146341463415,50.55894308943089 40.09146341463415,50.762195121951216 40.09146341463415,50.96544715447154 40.09146341463415,51.168699186991866 40.09146341463415,51.32113821138211 40.09146341463415,51.52439024390244 40.09146341463415,51.72764227642276 40.09146341463415,51.93089430894309 40.09146341463415,52.13414634146341 40.09146341463415,52.33739837398374 40.09146341463415,52.540650406504064 40.09146341463415,52.74390243902439 40.142276422764226,52.947154471544714 40.19308943089431,53.15040650406504 40.24390243902439,53.353658536585364 40.29471544715447,53.55691056910569 40.34552845528455,53.760162601626014 40.447154471544714,53.91260162601626 40.4979674796748,54.11585365853659 40.548780487804876,54.31910569105691 40.65040650406504,54.52235772357724 40.701219512195124,54.72560975609756 40.7520325203252,54.92886178861789 40.802845528455286,55.13211382113821 40.853658536585364,55.386178861788615 40.90447154471545,55.58943089430894 41.00609756097561,55.792682926829265 41.05691056910569,55.99593495934959 41.15853658536585,56.199186991869915 41.260162601626014,56.40243902439024 41.36178861788618,56.605691056910565 41.46341463414634,56.80894308943089 41.5650406504065,57.012195121951216 41.666666666666664,57.21544715447154 41.81910569105691,57.418699186991866 41.920731707317074,57.62195121951219 42.073170731707314,57.77439024390244" fill="none" stroke="black" stroke-width="0.6"></polyline><polyline points="42.073170731707314,57.77439024390244 42.17479674796748,57.92682926829268 42.327235772357724,58.130081300813 42.42886178861789,58.33333333333333 42.58130081300813,58.536585365853654 42.68292682926829,58.6890243902439 42.78455284552845,58.892276422764226 42.9369918699187,59.09552845528455 43.08943089430894,59.298780487804876 43.24186991869919,59.451219512195124 43.39430894308943,59.65447154471545 43.546747967479675,59.80691056910569 43.699186991869915,59.959349593495936 43.90243902439024,60.11178861788618 44.05487804878049,60.264227642276424 44.25813008130081,60.416666666666664 44.512195121951216,60.56910569105691 44.71544715447154,60.670731707317074 44.918699186991866,60.823170731707314 45.172764227642276,60.92479674796748 45.3760162601626,61.02642276422764 45.63008130081301,61.1280487804878 45.88414634146341,61.229674796747965 46.13821138211382,61.33130081300813 46.392276422764226,61.43292682926829 46.646341463414636,61.53455284552845 46.90040650406504,61.636178861788615 47.15447154471545,61.6869918699187 47.40853658536585,61.78861788617886 47.71341463414634,61.83943089430894 47.96747967479675,61.890243902439025 48.22154471544715,61.99186991869919 48.47560975609756,62.042682926829265 48.78048780487805,62.042682926829265 49.03455284552845,62.09349593495935 49.28861788617886,62.14430894308943 49.59349593495935,62.14430894308943 49.84756097560975,62.14430894308943 50.10162601626016,62.19512195121951 50.40650406504065,62.19512195121951 50.66056910569105,62.19512195121951 50.91463414634146,62.19512195121951 51.21951219512195,62.19512195121951 51.47357723577235,62.19512195121951 51.72764227642276,62.19512195121951 52.03252032520325,62.19512195121951 52.28658536585366,62.14430894308943 52.540650406504064,62.09349593495935 52.79471544715447,62.042682926829265 53.09959349593496,61.99186991869919 53.302845528455286,61.890243902439025" fill="none" stroke="black" stroke-width="0.6"></polyline><polyline points="53.302845528455286,61.890243902439025 53.55691056910569,61.83943089430894 53.8109756097561,61.73780487804878 54.014227642276424,61.6869918699187 54.21747967479675,61.58536585365854 54.420731707317074,61.483739837398375 54.6239837398374,61.43292682926829 54.77642276422764,61.33130081300813 55.03048780487805,61.28048780487805 55.18292682926829,61.17886178861789 55.386178861788615,61.077235772357724 55.640243902439025,60.92479674796748 55.84349593495935,60.823170731707314 56.046747967479675,60.670731707317074 56.30081300813008,60.51829268292683 56.5040650406504,60.36585365853659 56.75813008130081,60.21341463414634 56.96138211382114,60.0609756097561 57.16463414634146,59.90853658536585 57.36788617886179,59.75609756097561 57.57113821138211,59.603658536585364 57.77439024390244,59.451219512195124 57.92682926829268,59.298780487804876 58.130081300813,59.09552845528455 58.28252032520325,58.94308943089431 58.43495934959349,58.739837398373986 58.63821138211382,58.58739837398374 58.790650406504064,58.38414634146341 58.94308943089431,58.18089430894309 59.09552845528455,58.02845528455284 59.2479674796748,57.8760162601626 59.40040650406504,57.672764227642276 59.5020325203252,57.52032520325203 59.65447154471545,57.3170731707317 59.80691056910569,57.11382113821138 59.90853658536585,56.91056910569105 60.0609756097561,56.70731707317073 60.21341463414634,56.453252032520325 60.36585365853659,56.25 60.51829268292683,55.99593495934959 60.670731707317074,55.74186991869919 60.823170731707314,55.48780487804878 60.97560975609756,55.28455284552845 61.077235772357724,55.03048780487805 61.17886178861789,54.827235772357724 61.33130081300813,54.573170731707314 61.43292682926829,54.26829268292683 61.483739837398375,54.0650406504065 61.58536585365854,53.8109756097561 61.636178861788615,53.55691056910569 61.6869918699187,53.353658536585364" fill="none" stroke="black" stroke-width="0.6"></polyline><polyline points="61.6869918699187,53.353658536585364 61.73780487804878,53.09959349593496 61.78861788617886,52.896341463414636 61.83943089430894,52.642276422764226 61.890243902439025,52.4390243902439 61.99186991869919,52.13414634146341 62.042682926829265,51.93089430894309 62.09349593495935,51.67682926829268 62.14430894308943,51.422764227642276 62.19512195121951,51.21951219512195 62.19512195121951,50.96544715447154 62.24593495934959,50.762195121951216 62.24593495934959,50.50813008130081 62.24593495934959,50.30487804878049 62.296747967479675,50.05081300813008 62.296747967479675,49.796747967479675 62.296747967479675,49.542682926829265 62.34756097560975,49.23780487804878 62.34756097560975,48.983739837398375 62.39837398373984,48.78048780487805 62.39837398373984,48.47560975609756 62.449186991869915,48.22154471544715 62.449186991869915,48.01829268292683 62.449186991869915,47.71341463414634 62.449186991869915,47.510162601626014 62.449186991869915,47.25609756097561 62.449186991869915,47.052845528455286 62.449186991869915,46.84959349593496 62.39837398373984,46.697154471544714 62.39837398373984,46.49390243902439 62.34756097560975,46.290650406504064 62.296747967479675,46.13821138211382 62.296747967479675,45.9349593495935 62.296747967479675,45.73170731707317 62.296747967479675,45.579268292682926 62.24593495934959,45.3760162601626 62.24593495934959,45.172764227642276 62.24593495934959,44.96951219512195 62.24593495934959,44.766260162601625 62.19512195121951,44.61382113821138 62.19512195121951,44.46138211382114 62.19512195121951,44.30894308943089 62.14430894308943,44.15650406504065 62.14430894308943,44.0040650406504 62.14430894308943,43.85162601626016 62.09349593495935,43.699186991869915 62.042682926829265,43.546747967479675 62.042682926829265,43.39430894308943 61.99186991869919,43.24186991869919 61.9410569105691,43.08943089430894 61.9410569105691,42.98780487804878" fill="none" stroke="black" stroke-width="0.6"></polyline><polyline points="61.9410569105691,42.98780487804878 61.890243902439025,42.83536585365854 61.83943089430894,42.68292682926829 61.83943089430894,42.53048780487805 61.78861788617886,42.3780487804878 61.73780487804878,42.22560975609756 61.6869918699187,42.1239837398374 61.636178861788615,42.02235772357724 61.53455284552845,41.86991869918699 61.483739837398375,41.71747967479675 61.43292682926829,41.61585365853659 61.38211382113821,41.46341463414634 61.28048780487805,41.36178861788618 61.229674796747965,41.209349593495936 61.17886178861789,41.05691056910569 61.077235772357724,40.95528455284553 61.02642276422764,40.802845528455286 60.97560975609756,40.701219512195124 60.8739837398374,40.548780487804876 60.77235772357724,40.447154471544714 60.72154471544715,40.34552845528455 60.61991869918699,40.19308943089431 60.51829268292683,40.09146341463415 60.416666666666664,39.989837398373986 60.3150406504065,39.88821138211382 60.21341463414634,39.735772357723576 60.16260162601626,39.63414634146341 60.0609756097561,39.53252032520325 59.959349593495936,39.38008130081301 59.80691056910569,39.27845528455285 59.70528455284553,39.176829268292686 59.603658536585364,39.02439024390244 59.451219512195124,38.922764227642276 59.298780487804876,38.82113821138211 59.197154471544714,38.668699186991866 59.04471544715447,38.5670731707317 58.892276422764226,38.46544715447154 58.790650406504064,38.36382113821138 58.63821138211382,38.262195121951216 58.485772357723576,38.16056910569105 58.38414634146341,38.05894308943089 58.231707317073166,37.95731707317073 58.079268292682926,37.90650406504065 57.92682926829268,37.80487804878049 57.72357723577235,37.703252032520325 57.57113821138211,37.60162601626016 57.418699186991866,37.55081300813008 57.21544715447154,37.449186991869915 57.0630081300813,37.34756097560975 56.91056910569105,37.296747967479675 56.75813008130081,37.19512195121951" fill="none" stroke="black" stroke-width="0.6"></polyline><polyline points="56.75813008130081,37.19512195121951 56.55487804878049,37.14430894308943 56.40243902439024,37.042682926829265 56.199186991869915,36.99186991869919 56.046747967479675,36.890243902439025 55.89430894308943,36.83943089430894 55.6910569105691,36.78861788617886 55.53861788617886,36.73780487804878 55.33536585365854,36.6869918699187 55.13211382113821,36.58536585365854 54.979674796747965,36.53455284552845 54.77642276422764,36.483739837398375 54.573170731707314,36.43292682926829 54.420731707317074,36.38211382113821 54.21747967479675,36.33130081300813 54.014227642276424,36.28048780487805 53.8109756097561,36.229674796747965 53.607723577235774,36.17886178861789 53.40447154471545,36.17886178861789 53.201219512195124,36.1280487804878 52.947154471544714,36.077235772357724 52.74390243902439,36.077235772357724 52.540650406504064,36.02642276422764 52.28658536585366,35.97560975609756 52.083333333333336,35.97560975609756 51.880081300813,35.92479674796748 51.67682926829268,35.8739837398374 51.47357723577235,35.8739837398374 51.27032520325203,35.823170731707314 51.0670731707317,35.77235772357724 50.86382113821138,35.77235772357724 50.66056910569105,35.72154471544715 50.45731707317073,35.670731707317074 50.2540650406504,35.670731707317074 50.05081300813008,35.61991869918699 49.796747967479675,35.61991869918699 49.59349593495935,35.61991869918699 49.33943089430894,35.61991869918699 49.08536585365854,35.61991869918699 48.88211382113821,35.61991869918699 48.67886178861789,35.61991869918699 48.42479674796748,35.61991869918699 48.170731707317074,35.56910569105691 47.96747967479675,35.56910569105691 47.71341463414634,35.56910569105691 47.510162601626014,35.56910569105691 47.25609756097561,35.56910569105691 47.0020325203252,35.56910569105691 46.798780487804876,35.56910569105691 46.54471544715447,35.61991869918699 46.290650406504064,35.61991869918699" fill="none" stroke="black" stroke-width="0.6"></polyline><polyline points="46.290650406504064,35.61991869918699 46.08739837398374,35.61991869918699 45.88414634146341,35.61991869918699 45.63008130081301,35.670731707317074 45.42682926829268,35.670731707317074 45.172764227642276,35.670731707317074 44.96951219512195,35.72154471544715 44.766260162601625,35.72154471544715 44.512195121951216,35.77235772357724 44.30894308943089,35.823170731707314 44.105691056910565,35.823170731707314 43.90243902439024,35.8739837398374 43.64837398373984,35.97560975609756 43.44512195121951,36.02642276422764 43.24186991869919,36.077235772357724 42.98780487804878,36.1280487804878 42.78455284552845,36.17886178861789 42.53048780487805,36.229674796747965 42.327235772357724,36.33130081300813 42.073170731707314,36.38211382113821 41.81910569105691,36.483739837398375 41.5650406504065,36.58536585365854 41.36178861788618,36.6869918699187 41.15853658536585,36.78861788617886 40.95528455284553,36.890243902439025 40.7520325203252,36.99186991869919 40.4979674796748,37.14430894308943 40.29471544715447,37.296747967479675 40.09146341463415,37.39837398373984 39.83739837398374,37.55081300813008 39.63414634146341,37.703252032520325 39.48170731707317,37.80487804878049 39.22764227642276,37.95731707317073 39.02439024390244,38.109756097560975 38.82113821138211,38.262195121951216 38.5670731707317,38.46544715447154 38.3130081300813,38.668699186991866 38.05894308943089,38.87195121951219 37.80487804878049,39.07520325203252 37.60162601626016,39.27845528455285 37.39837398373984,39.48170731707317 37.19512195121951,39.735772357723576 37.042682926829265,39.88821138211382 36.890243902439025,40.09146341463415 36.6869918699187,40.29471544715447 36.53455284552845,40.4979674796748 36.38211382113821,40.701219512195124 36.17886178861789,40.90447154471545 36.02642276422764,41.107723577235774 35.8739837398374,41.3109756097561 35.72154471544715,41.5650406504065" fill="none" stroke="black" stroke-width="0.6"></polyline><polyline points="35.72154471544715,41.5650406504065 35.56910569105691,41.71747967479675 35.416666666666664,41.97154471544715 35.3150406504065,42.17479674796748 35.21341463414634,42.3780487804878 35.11178861788618,42.58130081300813 35.010162601626014,42.78455284552845 34.959349593495936,42.98780487804878 34.857723577235774,43.1910569105691 34.80691056910569,43.44512195121951 34.70528455284553,43.64837398373984 34.65447154471545,43.90243902439024 34.603658536585364,44.15650406504065 34.5020325203252,44.359756097560975 34.451219512195124,44.61382113821138 34.34959349593496,44.86788617886179 34.298780487804876,45.12195121951219 34.2479674796748,45.3760162601626 34.197154471544714,45.63008130081301 34.146341463414636,45.88414634146341 34.09552845528455,46.13821138211382 34.09552845528455,46.44308943089431 34.04471544715447,46.697154471544714 34.04471544715447,46.90040650406504 33.99390243902439,47.15447154471545 33.99390243902439,47.40853658536585 33.94308943089431,47.66260162601626 33.94308943089431,47.96747967479675 33.892276422764226,48.22154471544715 33.892276422764226,48.52642276422764 33.84146341463415,48.78048780487805 33.790650406504064,49.08536585365854 33.790650406504064,49.33943089430894 33.739837398373986,49.64430894308943 33.6890243902439,49.949186991869915 33.63821138211382,50.2540650406504 33.63821138211382,50.55894308943089 33.58739837398374,50.8130081300813 33.58739837398374,51.0670731707317 33.53658536585366,51.37195121951219 33.53658536585366,51.6260162601626 33.485772357723576,51.93089430894309 33.485772357723576,52.1849593495935 33.4349593495935,52.489837398373986 33.4349593495935,52.74390243902439 33.4349593495935,53.048780487804876 33.4349593495935,53.302845528455286 33.4349593495935,53.55691056910569 33.4349593495935,53.8109756097561 33.4349593495935,54.11585365853659 33.4349593495935,54.36991869918699" fill="none" stroke="black" stroke-width="0.6"></polyline><polyline points="33.4349593495935,54.36991869918699 33.4349593495935,54.67479674796748 33.4349593495935,54.92886178861789 33.4349593495935,55.233739837398375 33.485772357723576,55.4369918699187 33.53658536585366,55.6910569105691 33.58739837398374,55.94512195121951 33.63821138211382,56.199186991869915 33.6890243902439,56.453252032520325 33.739837398373986,56.70731707317073 33.790650406504064,56.96138211382114 33.84146341463415,57.21544715447154 33.94308943089431,57.46951219512195 34.04471544715447,57.72357723577235 34.09552845528455,57.92682926829268 34.197154471544714,58.18089430894309 34.2479674796748,58.38414634146341 34.34959349593496,58.58739837398374 34.451219512195124,58.84146341463415 34.552845528455286,59.04471544715447 34.65447154471545,59.2479674796748 34.80691056910569,59.451219512195124 34.90853658536585,59.65447154471545 35.0609756097561,59.80691056910569 35.21341463414634,60.010162601626014 35.3150406504065,60.16260162601626 35.416666666666664,60.3150406504065 35.56910569105691,60.51829268292683 35.72154471544715,60.670731707317074 35.8739837398374,60.823170731707314 36.02642276422764,61.02642276422764 36.17886178861789,61.17886178861789 36.33130081300813,61.33130081300813 36.483739837398375,61.53455284552845 36.636178861788615,61.6869918699187 36.78861788617886,61.890243902439025 36.9410569105691,62.09349593495935 37.09349593495935,62.24593495934959 37.19512195121951,62.39837398373984 37.39837398373984,62.60162601626016 37.55081300813008,62.7540650406504 37.703252032520325,62.90650406504065 37.855691056910565,63.05894308943089 38.00813008130081,63.21138211382114 38.16056910569105,63.41463414634146 38.36382113821138,63.5670731707317 38.516260162601625,63.71951219512195 38.668699186991866,63.87195121951219 38.82113821138211,64.07520325203252 39.02439024390244,64.22764227642276 39.176829268292686,64.380081300813" fill="none" stroke="black" stroke-width="0.6"></polyline><polyline points="39.176829268292686,64.380081300813 39.38008130081301,64.48170731707317 39.583333333333336,64.6341463414634 39.78658536585366,64.73577235772358 39.989837398373986,64.88821138211382 40.19308943089431,64.98983739837398 40.396341463414636,65.09146341463415 40.59959349593496,65.2439024390244 40.802845528455286,65.39634146341463 41.00609756097561,65.4979674796748 41.209349593495936,65.65040650406505 41.41260162601626,65.7520325203252 41.61585365853659,65.85365853658537 41.81910569105691,65.95528455284553 42.073170731707314,66.0569105691057 42.27642276422764,66.15853658536585 42.53048780487805,66.26016260162602 42.733739837398375,66.36178861788618 42.98780487804878,66.46341463414635 43.1910569105691,66.5650406504065 43.44512195121951,66.61585365853658 43.699186991869915,66.71747967479675 43.90243902439024,66.8191056910569 44.105691056910565,66.869918699187 44.359756097560975,66.97154471544715 44.5630081300813,67.02235772357723 44.8170731707317,67.07317073170732 45.07113821138211,67.1239837398374 45.27439024390244,67.17479674796748 45.52845528455285,67.22560975609755 45.78252032520325,67.27642276422765 45.985772357723576,67.32723577235772 46.239837398373986,67.32723577235772 46.49390243902439,67.3780487804878 46.697154471544714,67.3780487804878 46.951219512195124,67.3780487804878 47.20528455284553,67.42886178861788 47.40853658536585,67.42886178861788 47.61178861788618,67.42886178861788 47.86585365853659,67.42886178861788 48.06910569105691,67.42886178861788 48.323170731707314,67.42886178861788 48.577235772357724,67.42886178861788 48.78048780487805,67.42886178861788 49.03455284552845,67.42886178861788 49.28861788617886,67.42886178861788 49.542682926829265,67.42886178861788 49.74593495934959,67.42886178861788 50,67.3780487804878 50.2540650406504,67.32723577235772 50.50813008130081,67.32723577235772" fill="none" stroke="black" stroke-width="0.6"></polyline><polyline points="50.50813008130081,67.32723577235772 50.762195121951216,67.27642276422765 50.96544715447154,67.22560975609755 51.21951219512195,67.17479674796748 51.47357723577235,67.1239837398374 51.67682926829268,67.1239837398374 51.93089430894309,67.07317073170732 52.13414634146341,67.07317073170732 52.38821138211382,67.02235772357723 52.59146341463415,67.02235772357723 52.84552845528455,66.97154471544715 53.048780487804876,66.92073170731707 53.2520325203252,66.92073170731707 53.50609756097561,66.869918699187 53.709349593495936,66.8191056910569 53.91260162601626,66.8191056910569 54.166666666666664,66.76829268292683 54.36991869918699,66.71747967479675 54.573170731707314,66.71747967479675 54.827235772357724,66.66666666666667 55.03048780487805,66.61585365853658 55.18292682926829,66.61585365853658 55.386178861788615,66.5650406504065 55.53861788617886,66.5650406504065 55.74186991869919,66.51422764227642 55.89430894308943,66.51422764227642 56.046747967479675,66.46341463414635 56.199186991869915,66.46341463414635 56.35162601626016,66.41260162601625 56.5040650406504,66.41260162601625 56.605691056910565,66.41260162601625 56.75813008130081,66.36178861788618 56.91056910569105,66.36178861788618 57.012195121951216,66.3109756097561 57.16463414634146,66.3109756097561 57.3170731707317,66.26016260162602 57.46951219512195,66.20934959349593 57.62195121951219,66.15853658536585 57.825203252032516,66.10772357723577 57.97764227642276,66.0569105691057 58.130081300813,66.0060975609756 58.28252032520325,65.95528455284553 58.485772357723576,65.90447154471545 58.63821138211382,65.85365853658537 58.790650406504064,65.7520325203252 58.99390243902439,65.70121951219512 59.146341463414636,65.65040650406505 59.298780487804876,65.54878048780488 59.451219512195124,65.4979674796748 59.603658536585364,65.39634146341463 59.80691056910569,65.34552845528455" fill="none" stroke="black" stroke-width="0.6"></polyline><polyline points="59.80691056910569,65.34552845528455 59.959349593495936,65.2439024390244 60.11178861788618,65.14227642276423 60.3150406504065,65.04065040650406 60.46747967479675,64.9390243902439 60.670731707317074,64.83739837398373 60.823170731707314,64.73577235772358 60.97560975609756,64.58333333333333 61.1280487804878,64.48170731707317 61.28048780487805,64.380081300813 61.43292682926829,64.27845528455285 61.58536585365854,64.17682926829268 61.73780487804878,64.07520325203252 61.890243902439025,63.922764227642276 62.042682926829265,63.82113821138211 62.24593495934959,63.668699186991866 62.39837398373984,63.5670731707317 62.55081300813008,63.41463414634146 62.7540650406504,63.262195121951216 62.90650406504065,63.109756097560975 63.05894308943089,62.95731707317073 63.262195121951216,62.80487804878049 63.41463414634146,62.65243902439024 63.5670731707317,62.55081300813008 63.77032520325203,62.39837398373984 63.922764227642276,62.24593495934959 64.1260162601626,62.09349593495935 64.32926829268293,61.9410569105691 64.53252032520325,61.73780487804878 64.73577235772358,61.58536585365854 64.9390243902439,61.38211382113821 65.1930894308943,61.17886178861789 65.39634146341463,60.97560975609756 65.59959349593495,60.77235772357724 65.80284552845528,60.56910569105691 66.0060975609756,60.416666666666664 66.15853658536585,60.21341463414634 66.36178861788618,60.0609756097561 66.51422764227642,59.90853658536585 66.61585365853658,59.70528455284553 66.76829268292683,59.552845528455286 66.869918699187,59.40040650406504 66.97154471544715,59.197154471544714 67.1239837398374,58.99390243902439 67.22560975609755,58.790650406504064 67.32723577235772,58.58739837398374 67.42886178861788,58.38414634146341 67.47967479674797,58.18089430894309 67.58130081300813,57.97764227642276 67.6321138211382,57.77439024390244 67.73373983739837,57.57113821138211" fill="none" stroke="black" stroke-width="0.6"></polyline><polyline points="67.73373983739837,57.57113821138211 67.78455284552845,57.36788617886179 67.88617886178862,57.16463414634146 67.9369918699187,56.91056910569105 67.98780487804878,56.70731707317073 68.08943089430895,56.5040650406504 68.14024390243902,56.25 68.24186991869918,55.99593495934959 68.29268292682927,55.792682926829265 68.34349593495935,55.53861788617886 68.39430894308943,55.28455284552845 68.4451219512195,55.03048780487805 68.4959349593496,54.77642276422764 68.59756097560975,54.52235772357724 68.64837398373983,54.26829268292683 68.69918699186992,54.014227642276424 68.75,53.709349593495936 68.80081300813008,53.45528455284553 68.85162601626016,53.201219512195124 68.90243902439025,52.947154471544714 68.95325203252033,52.69308943089431 69.0040650406504,52.38821138211382 69.0040650406504,52.083333333333336 69.05487804878048,51.829268292682926 69.10569105691057,51.52439024390244 69.10569105691057,51.21951219512195 69.15650406504065,50.91463414634146 69.20731707317073,50.66056910569105 69.20731707317073,50.30487804878049 69.2581300813008,50.05081300813008 69.2581300813008,49.74593495934959 69.2581300813008,49.390243902439025 69.3089430894309,49.08536585365854 69.35975609756098,48.83130081300813 69.35975609756098,48.47560975609756 69.41056910569105,48.22154471544715 69.41056910569105,47.916666666666664 69.41056910569105,47.5609756097561 69.41056910569105,47.30691056910569 69.41056910569105,47.0020325203252 69.41056910569105,46.7479674796748 69.41056910569105,46.49390243902439 69.35975609756098,46.239837398373986 69.35975609756098,45.9349593495935 69.3089430894309,45.73170731707317 69.2581300813008,45.42682926829268 69.2581300813008,45.172764227642276 69.2581300813008,44.918699186991866 69.20731707317073,44.66463414634146 69.20731707317073,44.41056910569105 69.15650406504065,44.15650406504065" fill="none" stroke="black" stroke-width="0.6"></polyline><polyline points="69.15650406504065,44.15650406504065 69.15650406504065,43.90243902439024 69.10569105691057,43.59756097560975 69.10569105691057,43.39430894308943 69.05487804878048,43.140243902439025 69.0040650406504,42.886178861788615 68.95325203252033,42.68292682926829 68.90243902439025,42.53048780487805 68.85162601626016,42.327235772357724 68.80081300813008,42.17479674796748 68.75,41.97154471544715 68.64837398373983,41.76829268292683 68.59756097560975,41.61585365853659 68.4959349593496,41.41260162601626 68.4451219512195,41.209349593495936 68.34349593495935,41.00609756097561 68.29268292682927,40.802845528455286 68.24186991869918,40.59959349593496 68.14024390243902,40.447154471544714 68.08943089430895,40.29471544715447 67.98780487804878,40.09146341463415 67.9369918699187,39.989837398373986 67.83536585365853,39.83739837398374 67.73373983739837,39.6849593495935 67.6829268292683,39.53252032520325 67.58130081300813,39.38008130081301 67.47967479674797,39.27845528455285 67.3780487804878,39.1260162601626 67.27642276422765,38.97357723577235 67.17479674796748,38.87195121951219 67.07317073170732,38.71951219512195 66.92073170731707,38.5670731707317 66.8191056910569,38.46544715447154 66.71747967479675,38.36382113821138 66.5650406504065,38.21138211382114 66.46341463414635,38.109756097560975 66.36178861788618,38.00813008130081 66.20934959349593,37.90650406504065 66.10772357723577,37.80487804878049 65.95528455284553,37.65243902439024 65.80284552845528,37.55081300813008 65.70121951219512,37.449186991869915 65.54878048780488,37.34756097560975 65.39634146341463,37.19512195121951 65.29471544715447,37.09349593495935 65.1930894308943,36.99186991869919 65.04065040650406,36.83943089430894 64.9390243902439,36.6869918699187 64.78658536585365,36.58536585365854 64.6849593495935,36.43292682926829 64.58333333333333,36.33130081300813" fill="none" stroke="black" stroke-width="0.6"></polyline><polyline points="64.58333333333333,36.33130081300813 64.48170731707317,36.17886178861789 64.32926829268293,36.077235772357724 64.22764227642276,35.97560975609756 64.1260162601626,35.8739837398374 63.97357723577235,35.72154471544715 63.87195121951219,35.61991869918699 63.71951219512195,35.51829268292683 63.61788617886179,35.36585365853659 63.46544715447154,35.264227642276424 63.36382113821138,35.16260162601626 63.21138211382114,35.0609756097561 63.05894308943089,34.959349593495936 62.95731707317073,34.80691056910569 62.80487804878049,34.70528455284553 62.703252032520325,34.603658536585364 62.60162601626016,34.451219512195124 62.449186991869915,34.34959349593496 62.34756097560975,34.2479674796748 62.24593495934959,34.09552845528455 62.09349593495935,33.99390243902439 61.9410569105691,33.892276422764226 61.78861788617886,33.790650406504064 61.636178861788615,33.6890243902439 61.483739837398375,33.58739837398374 61.33130081300813,33.485772357723576 61.17886178861789,33.333333333333336 61.02642276422764,33.23170731707317 60.8739837398374,33.13008130081301 60.72154471544715,32.97764227642276 60.61991869918699,32.8760162601626 60.46747967479675,32.77439024390244 60.3150406504065,32.6219512195122 60.16260162601626,32.52032520325203 60.010162601626014,32.418699186991866 59.857723577235774,32.3170731707317 59.75609756097561,32.16463414634146 59.603658536585364,32.0630081300813 59.451219512195124,31.961382113821138 59.298780487804876,31.859756097560975 59.197154471544714,31.758130081300813 59.04471544715447,31.65650406504065 58.892276422764226,31.554878048780488 58.739837398373986,31.453252032520325 58.63821138211382,31.402439024390244 58.485772357723576,31.30081300813008 58.33333333333333,31.25 58.231707317073166,31.148373983739837 58.079268292682926,31.046747967479675 57.92682926829268,30.945121951219512 57.77439024390244,30.89430894308943" fill="none" stroke="black" stroke-width="0.6"></polyline><polyline points="57.77439024390244,30.89430894308943 57.672764227642276,30.79268292682927 57.52032520325203,30.691056910569106 57.36788617886179,30.640243902439025 57.266260162601625,30.538617886178862 57.11382113821138,30.4369918699187 57.012195121951216,30.335365853658537 56.859756097560975,30.233739837398375 56.75813008130081,30.182926829268293 56.605691056910565,30.08130081300813 56.5040650406504,30.03048780487805 56.35162601626016,29.979674796747968 56.25,29.878048780487806 56.09756097560975,29.827235772357724 55.99593495934959,29.776422764227643 55.84349593495935,29.725609756097562 55.74186991869919,29.67479674796748 55.58943089430894,29.6239837398374 55.48780487804878,29.573170731707318 55.33536585365854,29.522357723577237 55.18292682926829,29.420731707317074 55.03048780487805,29.369918699186993 54.8780487804878,29.31910569105691 54.72560975609756,29.268292682926827 54.573170731707314,29.268292682926827 54.47154471544715,29.217479674796746 54.26829268292683,29.166666666666664 54.11585365853659,29.166666666666664 53.96341463414634,29.115853658536583 53.760162601626014,29.115853658536583 53.607723577235774,29.0650406504065 53.40447154471545,29.0650406504065 53.201219512195124,29.0650406504065 53.048780487804876,29.0650406504065 52.896341463414636,29.0650406504065 52.69308943089431,29.0650406504065 52.489837398373986,29.0650406504065 52.33739837398374,29.0650406504065 52.13414634146341,29.01422764227642 51.93089430894309,29.01422764227642 51.72764227642276,29.01422764227642 51.52439024390244,29.01422764227642 51.32113821138211,29.01422764227642 51.168699186991866,29.01422764227642 50.96544715447154,29.01422764227642 50.762195121951216,29.01422764227642 50.55894308943089,29.01422764227642 50.355691056910565,29.01422764227642 50.10162601626016,29.01422764227642 49.89837398373984,29.01422764227642 49.64430894308943,29.01422764227642" fill="none" stroke="black" stroke-width="0.6"></polyline><polyline points="49.64430894308943,29.01422764227642 49.4410569105691,29.01422764227642 49.1869918699187,29.0650406504065 48.983739837398375,29.0650406504065 48.729674796747965,29.0650406504065 48.47560975609756,29.115853658536583 48.22154471544715,29.115853658536583 48.01829268292683,29.115853658536583 47.764227642276424,29.166666666666664 47.510162601626014,29.166666666666664 47.30691056910569,29.166666666666664 47.052845528455286,29.166666666666664 46.84959349593496,29.166666666666664 46.59552845528455,29.166666666666664 46.392276422764226,29.166666666666664 46.1890243902439,29.166666666666664 45.985772357723576,29.166666666666664 45.73170731707317,29.166666666666664 45.52845528455285,29.166666666666664 45.325203252032516,29.166666666666664 45.07113821138211,29.166666666666664 44.86788617886179,29.166666666666664 44.66463414634146,29.217479674796746 44.41056910569105,29.217479674796746 44.20731707317073,29.268292682926827 44.0040650406504,29.268292682926827 43.75,29.31910569105691 43.546747967479675,29.31910569105691 43.34349593495935,29.369918699186993 43.08943089430894,29.420731707317074 42.886178861788615,29.420731707317074 42.68292682926829,29.471544715447155 42.42886178861789,29.471544715447155 42.22560975609756,29.522357723577237 42.02235772357724,29.573170731707318 41.81910569105691,29.6239837398374 41.61585365853659,29.67479674796748 41.41260162601626,29.725609756097562 41.15853658536585,29.827235772357724 40.95528455284553,29.878048780487806 40.7520325203252,29.928861788617887 40.4979674796748,30.03048780487805 40.24390243902439,30.132113821138212 40.040650406504064,30.182926829268293 39.78658536585366,30.284552845528456 39.583333333333336,30.335365853658537 39.38008130081301,30.4369918699187 39.176829268292686,30.538617886178862 38.97357723577235,30.640243902439025 38.71951219512195,30.741869918699187 38.516260162601625,30.84349593495935" fill="none" stroke="black" stroke-width="0.6"></polyline><polyline points="38.516260162601625,30.84349593495935 38.3130081300813,30.945121951219512 38.05894308943089,31.046747967479675 37.80487804878049,31.148373983739837 37.55081300813008,31.30081300813008 37.34756097560975,31.402439024390244 37.042682926829265,31.554878048780488 36.83943089430894,31.65650406504065 36.58536585365854,31.808943089430894 36.33130081300813,31.910569105691057 36.1280487804878,32.0630081300813 35.8739837398374,32.21544715447154 35.670731707317074,32.36788617886179 35.416666666666664,32.57113821138211 35.21341463414634,32.72357723577236 34.959349593495936,32.926829268292686 34.75609756097561,33.079268292682926 34.552845528455286,33.23170731707317 34.298780487804876,33.38414634146341 34.09552845528455,33.58739837398374 33.892276422764226,33.739837398373986 33.63821138211382,33.94308943089431 33.4349593495935,34.09552845528455 33.23170731707317,34.298780487804876 33.02845528455285,34.5020325203252 32.77439024390244,34.65447154471545 32.57113821138211,34.90853658536585 32.36788617886179,35.11178861788618 32.21544715447154,35.3150406504065 32.0630081300813,35.51829268292683 31.859756097560975,35.72154471544715 31.758130081300813,35.92479674796748 31.60569105691057,36.1280487804878 31.453252032520325,36.33130081300813 31.30081300813008,36.53455284552845 31.148373983739837,36.78861788617886 30.995934959349594,37.042682926829265 30.84349593495935,37.296747967479675 30.691056910569106,37.55081300813008 30.589430894308943,37.80487804878049 30.4369918699187,38.05894308943089 30.284552845528456,38.3130081300813 30.182926829268293,38.516260162601625 30.08130081300813,38.71951219512195 30.03048780487805,38.97357723577235 29.928861788617887,39.22764227642276 29.878048780487806,39.48170731707317 29.776422764227643,39.78658536585366 29.725609756097562,40.040650406504064 29.67479674796748,40.29471544715447 29.573170731707318,40.548780487804876" fill="none" stroke="black" stroke-width="0.6"></polyline><polyline points="29.573170731707318,40.548780487804876 29.522357723577237,40.802845528455286 29.420731707317074,41.05691056910569 29.31910569105691,41.41260162601626 29.268292682926827,41.666666666666664 29.166666666666664,41.97154471544715 29.0650406504065,42.27642276422764 28.96341463414634,42.53048780487805 28.912601626016258,42.78455284552845 28.810975609756095,43.08943089430894 28.760162601626014,43.34349593495935 28.709349593495933,43.64837398373984 28.60772357723577,43.953252032520325 28.55691056910569,44.20731707317073 28.55691056910569,44.46138211382114 28.506097560975608,44.766260162601625 28.455284552845526,45.02032520325203 28.404471544715445,45.325203252032516 28.353658536585364,45.63008130081301 28.353658536585364,45.9349593495935 28.302845528455283,46.1890243902439 28.2520325203252,46.49390243902439 28.20121951219512,46.798780487804876 28.15040650406504,47.052845528455286 28.099593495934958,47.357723577235774 28.048780487804876,47.66260162601626 27.997967479674795,47.916666666666664 27.947154471544714,48.27235772357724 27.947154471544714,48.577235772357724 27.896341463414632,48.88211382113821 27.84552845528455,49.1869918699187 27.79471544715447,49.4410569105691 27.79471544715447,49.74593495934959 27.74390243902439,50.10162601626016 27.693089430894307,50.40650406504065 27.642276422764226,50.71138211382114 27.591463414634145,51.016260162601625 27.591463414634145,51.32113821138211 27.540650406504064,51.6260162601626 27.489837398373982,51.93089430894309 27.489837398373982,52.235772357723576 27.489837398373982,52.540650406504064 27.489837398373982,52.84552845528455 27.489837398373982,53.09959349593496 27.489837398373982,53.40447154471545 27.540650406504064,53.709349593495936 27.591463414634145,53.96341463414634 27.591463414634145,54.26829268292683 27.642276422764226,54.573170731707314 27.642276422764226,54.8780487804878 27.642276422764226,55.233739837398375" fill="none" stroke="black" stroke-width="0.6"></polyline><polyline points="27.642276422764226,55.233739837398375 27.642276422764226,55.53861788617886 27.642276422764226,55.84349593495935 27.642276422764226,56.199186991869915 27.642276422764226,56.453252032520325 27.693089430894307,56.75813008130081 27.74390243902439,57.11382113821138 27.79471544715447,57.36788617886179 27.84552845528455,57.672764227642276 27.896341463414632,57.97764227642276 27.947154471544714,58.28252032520325 27.997967479674795,58.536585365853654 28.20121951219512,59.40040650406504 28.353658536585364,59.959349593495936 28.455284552845526,60.21341463414634 28.55691056910569,60.51829268292683 28.65853658536585,60.72154471544715 28.760162601626014,60.97560975609756 28.861788617886177,61.229674796747965 28.96341463414634,61.483739837398375 29.115853658536583,61.6869918699187 29.268292682926827,61.9410569105691 29.420731707317074,62.14430894308943 29.573170731707318,62.34756097560975 29.725609756097562,62.60162601626016 29.827235772357724,62.855691056910565 29.979674796747968,63.109756097560975 30.08130081300813,63.36382113821138 30.233739837398375,63.61788617886179 30.38617886178862,63.87195121951219 30.48780487804878,64.1260162601626 30.640243902439025,64.32926829268293 30.79268292682927,64.53252032520325 30.945121951219512,64.78658536585365 31.097560975609756,64.98983739837398 31.30081300813008,65.1930894308943 31.453252032520325,65.39634146341463 31.65650406504065,65.65040650406505 31.808943089430894,65.85365853658537 31.961382113821138,66.0569105691057 32.11382113821138,66.26016260162602 32.3170731707317,66.46341463414635 32.46951219512195,66.66666666666667 32.672764227642276,66.869918699187 32.82520325203252,67.07317073170732 33.02845528455285,67.27642276422765 33.18089430894309,67.47967479674797 33.38414634146341,67.6829268292683 33.58739837398374,67.88617886178862 33.739837398373986,68.08943089430895 33.94308943089431,68.29268292682927" fill="none" stroke="black" stroke-width="0.6"></polyline><polyline points="33.94308943089431,68.29268292682927 34.09552845528455,68.4959349593496 34.2479674796748,68.64837398373983 34.451219512195124,68.85162601626016 34.65447154471545,69.05487804878048 34.80691056910569,69.20731707317073 35.010162601626014,69.41056910569105 35.21341463414634,69.61382113821138 35.416666666666664,69.76626016260163 35.670731707317074,69.91869918699187 35.8739837398374,70.02032520325203 36.077235772357724,70.17276422764228 36.33130081300813,70.27439024390243 36.53455284552845,70.42682926829268 36.73780487804878,70.52845528455285 36.99186991869919,70.630081300813 37.19512195121951,70.73170731707317 37.39837398373984,70.83333333333333 37.65243902439024,70.98577235772358 37.90650406504065,71.03658536585365 38.16056910569105,71.13821138211382 38.41463414634146,71.23983739837398 38.668699186991866,71.34146341463415 38.922764227642276,71.4430894308943 39.176829268292686,71.54471544715447 39.43089430894309,71.64634146341463 39.6849593495935,71.7479674796748 39.9390243902439,71.84959349593495 40.142276422764226,71.95121951219512 40.396341463414636,72.05284552845528 40.59959349593496,72.15447154471545 40.853658536585364,72.2560975609756 41.05691056910569,72.35772357723577 41.3109756097561,72.51016260162602 41.514227642276424,72.5609756097561 41.71747967479675,72.66260162601625 41.97154471544715,72.8150406504065 42.22560975609756,72.86585365853658 42.42886178861789,72.96747967479675 42.68292682926829,73.0691056910569 42.9369918699187,73.119918699187 43.140243902439025,73.22154471544715 43.39430894308943,73.27235772357723 43.59756097560975,73.3739837398374 43.80081300813008,73.42479674796748 44.05487804878049,73.52642276422765 44.25813008130081,73.6280487804878 44.512195121951216,73.72967479674797 44.766260162601625,73.78048780487805 44.96951219512195,73.8821138211382 45.22357723577235,73.9329268292683" fill="none" stroke="black" stroke-width="0.6"></polyline><polyline points="45.22357723577235,73.9329268292683 45.47764227642276,74.03455284552845 45.68089430894309,74.08536585365853 45.9349593495935,74.13617886178862 46.1890243902439,74.1869918699187 46.44308943089431,74.23780487804878 46.646341463414636,74.28861788617886 46.951219512195124,74.33943089430895 47.20528455284553,74.39024390243902 47.40853658536585,74.4410569105691 47.71341463414634,74.49186991869918 47.916666666666664,74.54268292682927 48.170731707317074,74.59349593495935 48.42479674796748,74.64430894308943 48.6280487804878,74.6951219512195 48.88211382113821,74.79674796747967 49.136178861788615,74.84756097560975 49.390243902439025,74.84756097560975 49.64430894308943,74.89837398373983 49.89837398373984,74.94918699186992 50.15243902439024,75 50.40650406504065,75.05081300813008 50.66056910569105,75.10162601626016 50.91463414634146,75.10162601626016 51.11788617886179,75.15243902439025 51.422764227642276,75.15243902439025 51.6260162601626,75.20325203252033 51.880081300813,75.20325203252033 52.13414634146341,75.20325203252033 52.33739837398374,75.20325203252033 52.59146341463415,75.20325203252033 52.84552845528455,75.20325203252033 53.09959349593496,75.20325203252033 53.353658536585364,75.20325203252033 53.607723577235774,75.20325203252033 53.8109756097561,75.15243902439025 54.0650406504065,75.15243902439025 54.31910569105691,75.10162601626016 54.52235772357724,75.10162601626016 54.77642276422764,75.05081300813008 54.979674796747965,75 55.233739837398375,74.94918699186992 55.48780487804878,74.89837398373983 55.6910569105691,74.84756097560975 55.94512195121951,74.79674796747967 56.199186991869915,74.6951219512195 56.40243902439024,74.64430894308943 56.65650406504065,74.59349593495935 56.91056910569105,74.54268292682927 57.11382113821138,74.4410569105691 57.36788617886179,74.39024390243902" fill="none" stroke="black" stroke-width="0.6"></polyline><polyline points="57.36788617886179,74.39024390243902 57.62195121951219,74.33943089430895 57.8760162601626,74.23780487804878 58.079268292682926,74.1869918699187 58.33333333333333,74.08536585365853 58.536585365853654,73.98373983739837 58.739837398373986,73.8821138211382 58.99390243902439,73.78048780487805 59.197154471544714,73.67886178861788 59.40040650406504,73.57723577235772 59.603658536585364,73.42479674796748 59.80691056910569,73.32317073170732 60.010162601626014,73.22154471544715 60.21341463414634,73.119918699187 60.416666666666664,73.01829268292683 60.61991869918699,72.91666666666667 60.823170731707314,72.8150406504065 61.02642276422764,72.71341463414635 61.229674796747965,72.61178861788618 61.43292682926829,72.51016260162602 61.636178861788615,72.40853658536585 61.78861788617886,72.2560975609756 62.042682926829265,72.10365853658537 62.24593495934959,72.0020325203252 62.449186991869915,71.84959349593495 62.703252032520325,71.64634146341463 62.90650406504065,71.49390243902438 63.109756097560975,71.34146341463415 63.36382113821138,71.1890243902439 63.5670731707317,71.08739837398373 63.77032520325203,70.9349593495935 64.02439024390243,70.78252032520325 64.17682926829268,70.630081300813 64.380081300813,70.52845528455285 64.58333333333333,70.3760162601626 64.78658536585365,70.22357723577235 64.9390243902439,70.0711382113821 65.14227642276423,69.96951219512195 65.34552845528455,69.8170731707317 65.54878048780488,69.71544715447155 65.70121951219512,69.5630081300813 65.90447154471545,69.41056910569105 66.10772357723577,69.3089430894309 66.3109756097561,69.15650406504065 66.46341463414635,69.0040650406504 66.66666666666667,68.85162601626016 66.869918699187,68.69918699186992 67.07317073170732,68.59756097560975 67.27642276422765,68.4451219512195 67.47967479674797,68.29268292682927 67.6321138211382,68.14024390243902" fill="none" stroke="black" stroke-width="0.6"></polyline><polyline points="67.6321138211382,68.14024390243902 67.83536585365853,67.98780487804878 68.03861788617886,67.83536585365853 68.24186991869918,67.6829268292683 68.4451219512195,67.53048780487805 68.59756097560975,67.3780487804878 68.75,67.22560975609755 68.95325203252033,67.02235772357723 69.15650406504065,66.869918699187 69.3089430894309,66.66666666666667 69.51219512195122,66.46341463414635 69.66463414634146,66.3109756097561 69.86788617886178,66.10772357723577 70.0711382113821,65.90447154471545 70.22357723577235,65.7520325203252 70.3760162601626,65.54878048780488 70.57926829268293,65.29471544715447 70.73170731707317,65.09146341463415 70.8841463414634,64.83739837398373 71.08739837398373,64.58333333333333 71.23983739837398,64.380081300813 71.39227642276423,64.17682926829268 71.59552845528455,63.922764227642276 71.7479674796748,63.71951219512195 71.90040650406505,63.46544715447154 72.10365853658537,63.21138211382114 72.2560975609756,63.00813008130081 72.40853658536585,62.7540650406504 72.5609756097561,62.449186991869915 72.71341463414635,62.24593495934959 72.86585365853658,61.99186991869919 72.96747967479675,61.73780487804878 73.119918699187,61.483739837398375 73.27235772357723,61.229674796747965 73.42479674796748,60.97560975609756 73.52642276422765,60.670731707317074 73.67886178861788,60.416666666666664 73.78048780487805,60.11178861788618 73.8821138211382,59.857723577235774 73.98373983739837,59.603658536585364 74.13617886178862,59.298780487804876 74.23780487804878,59.04471544715447 74.33943089430895,58.739837398373986 74.4410569105691,58.43495934959349 74.59349593495935,58.130081300813 74.6951219512195,57.825203252032516 74.84756097560975,57.57113821138211 74.94918699186992,57.3170731707317 75.05081300813008,57.012195121951216 75.20325203252033,56.75813008130081 75.30487804878048,56.5040650406504" fill="none" stroke="black" stroke-width="0.6"></polyline><polyline points="75.30487804878048,56.5040650406504 75.40650406504065,56.199186991869915 75.5081300813008,55.89430894308943 75.60975609756098,55.58943089430894 75.71138211382113,55.33536585365854 75.8130081300813,55.03048780487805 75.91463414634146,54.72560975609756 76.01626016260163,54.420731707317074 76.11788617886178,54.0650406504065 76.21951219512195,53.760162601626014 76.27032520325203,53.50609756097561 76.3719512195122,53.201219512195124 76.42276422764228,52.947154471544714 76.47357723577235,52.69308943089431 76.52439024390243,52.38821138211382 76.57520325203252,52.083333333333336 76.6260162601626,51.77845528455284 76.72764227642276,51.47357723577235 76.77845528455285,51.21951219512195 76.82926829268293,50.96544715447154 76.93089430894308,50.71138211382114 77.03252032520325,50.50813008130081 77.1341463414634,50.2540650406504 77.23577235772358,50.10162601626016 77.28658536585365,49.89837398373984 77.33739837398373,49.84756097560975" fill="none" stroke="black" stroke-width="0.6"></polyline></svg>