<svg height="100" width="100" preserveAspectRatio="xMidYMid meet"><polyline points="49.69512195121951,51.32113821138211 49.69512195121951,51.32113821138211 49.69512195121951,51.21951219512195 49.74593495934959,51.21951219512195 49.74593495934959,51.168699186991866 49.74593495934959,51.11788617886179 49.796747967479675,51.0670731707317 49.796747967479675,51.0670731707317 49.84756097560975,51.0670731707317 49.84756097560975,51.016260162601625 49.89837398373984,51.016260162601625 49.949186991869915,51.016260162601625 49.949186991869915,51.016260162601625 50,50.96544715447154 50.05081300813008,50.91463414634146 50.05081300813008,50.91463414634146 50.10162601626016,50.86382113821138 50.10162601626016,50.8130081300813 50.15243902439024,50.762195121951216 50.203252032520325,50.66056910569105 50.203252032520325,50.609756097560975 50.203252032520325,50.55894308943089 50.203252032520325,50.45731707317073 50.203252032520325,50.40650406504065 50.203252032520325,50.30487804878049 50.203252032520325,50.203252032520325 50.203252032520325,50.15243902439024 50.203252032520325,50.05081300813008 50.203252032520325,49.949186991869915 50.203252032520325,49.84756097560975 50.203252032520325,49.69512195121951 50.203252032520325,49.59349593495935 50.15243902439024,49.49186991869919 50.10162601626016,49.33943089430894 50.10162601626016,49.23780487804878 50.05081300813008,49.136178861788615 50,49.03455284552845 49.89837398373984,48.93292682926829 49.84756097560975,48.83130081300813 49.796747967479675,48.78048780487805 49.69512195121951,48.729674796747965 49.542682926829265,48.67886178861789 49.4410569105691,48.67886178861789 49.28861788617886,48.67886178861789 49.136178861788615,48.67886178861789 48.93292682926829,48.67886178861789 48.78048780487805,48.67886178861789 48.6280487804878,48.67886178861789 48.42479674796748,48.67886178861789 48.27235772357724,48.67886178861789 48.170731707317074,48.729674796747965" fill="none" stroke="black" stroke-width="0.6"></polyline><polyline points="48.170731707317074,48.729674796747965 48.01829268292683,48.729674796747965 47.916666666666664,48.78048780487805 47.8150406504065,48.78048780487805 47.71341463414634,48.83130081300813 47.61178861788618,48.88211382113821 47.510162601626014,48.983739837398375 47.459349593495936,49.08536585365854 47.40853658536585,49.1869918699187 47.357723577235774,49.28861788617886 47.25609756097561,49.390243902439025 47.20528455284553,49.542682926829265 47.103658536585364,49.64430894308943 47.052845528455286,49.796747967479675 46.951219512195124,49.949186991869915 46.90040650406504,50.10162601626016 46.84959349593496,50.2540650406504 46.798780487804876,50.355691056910565 46.798780487804876,50.50813008130081 46.7479674796748,50.66056910569105 46.7479674796748,50.762195121951216 46.7479674796748,50.91463414634146 46.798780487804876,51.0670731707317 46.798780487804876,51.21951219512195 46.84959349593496,51.37195121951219 46.84959349593496,51.575203252032516 46.84959349593496,51.72764227642276 46.90040650406504,51.880081300813 46.90040650406504,52.083333333333336 46.951219512195124,52.235772357723576 46.951219512195124,52.38821138211382 47.0020325203252,52.540650406504064 47.052845528455286,52.69308943089431 47.103658536585364,52.84552845528455 47.15447154471545,52.9979674796748 47.20528455284553,53.09959349593496 47.30691056910569,53.201219512195124 47.40853658536585,53.302845528455286 47.459349593495936,53.40447154471545 47.5609756097561,53.45528455284553 47.66260162601626,53.55691056910569 47.764227642276424,53.607723577235774 47.86585365853659,53.709349593495936 48.01829268292683,53.760162601626014 48.11991869918699,53.86178861788618 48.22154471544715,53.91260162601626 48.3739837398374,53.96341463414634 48.47560975609756,54.014227642276424 48.6280487804878,54.0650406504065 48.729674796747965,54.11585365853659 48.83130081300813,54.166666666666664" fill="none" stroke="black" stroke-width="0.6"></polyline><polyline points="48.83130081300813,54.166666666666664 48.983739837398375,54.21747967479675 49.08536585365854,54.26829268292683 49.23780487804878,54.26829268292683 49.33943089430894,54.31910569105691 49.49186991869919,54.31910569105691 49.59349593495935,54.36991869918699 49.74593495934959,54.36991869918699 49.89837398373984,54.36991869918699 50.05081300813008,54.420731707317074 50.15243902439024,54.420731707317074 50.30487804878049,54.420731707317074 50.40650406504065,54.420731707317074 50.55894308943089,54.420731707317074 50.66056910569105,54.420731707317074 50.8130081300813,54.420731707317074 50.96544715447154,54.420731707317074 51.11788617886179,54.420731707317074 51.27032520325203,54.36991869918699 51.422764227642276,54.36991869918699 51.575203252032516,54.31910569105691 51.72764227642276,54.26829268292683 51.880081300813,54.26829268292683 52.083333333333336,54.21747967479675 52.235772357723576,54.166666666666664 52.38821138211382,54.11585365853659 52.540650406504064,54.0650406504065 52.69308943089431,54.014227642276424 52.84552845528455,53.91260162601626 53.048780487804876,53.86178861788618 53.201219512195124,53.760162601626014 53.353658536585364,53.709349593495936 53.50609756097561,53.607723577235774 53.65853658536585,53.50609756097561 53.8109756097561,53.45528455284553 53.91260162601626,53.353658536585364 54.0650406504065,53.2520325203252 54.166666666666664,53.201219512195124 54.31910569105691,53.09959349593496 54.420731707317074,52.9979674796748 54.52235772357724,52.896341463414636 54.6239837398374,52.79471544715447 54.67479674796748,52.69308943089431 54.77642276422764,52.540650406504064 54.827235772357724,52.4390243902439 54.92886178861789,52.28658536585366 55.03048780487805,52.13414634146341 55.13211382113821,51.981707317073166 55.233739837398375,51.880081300813 55.33536585365854,51.72764227642276 55.386178861788615,51.575203252032516" fill="none" stroke="black" stroke-width="0.6"></polyline><polyline points="55.386178861788615,51.575203252032516 55.4369918699187,51.47357723577235 55.48780487804878,51.32113821138211 55.53861788617886,51.168699186991866 55.58943089430894,51.0670731707317 55.640243902439025,50.91463414634146 55.6910569105691,50.762195121951216 55.6910569105691,50.609756097560975 55.74186991869919,50.40650406504065 55.792682926829265,50.2540650406504 55.84349593495935,50.05081300813008 55.89430894308943,49.84756097560975 55.94512195121951,49.69512195121951 55.94512195121951,49.49186991869919 55.99593495934959,49.33943089430894 56.046747967479675,49.136178861788615 56.046747967479675,48.983739837398375 56.09756097560975,48.78048780487805 56.09756097560975,48.6280487804878 56.09756097560975,48.42479674796748 56.09756097560975,48.27235772357724 56.09756097560975,48.06910569105691 56.09756097560975,47.916666666666664 56.046747967479675,47.71341463414634 55.99593495934959,47.510162601626014 55.94512195121951,47.357723577235774 55.89430894308943,47.15447154471545 55.89430894308943,47.0020325203252 55.84349593495935,46.798780487804876 55.792682926829265,46.646341463414636 55.74186991869919,46.44308943089431 55.6910569105691,46.290650406504064 55.640243902439025,46.08739837398374 55.53861788617886,45.88414634146341 55.48780487804878,45.73170731707317 55.386178861788615,45.52845528455285 55.33536585365854,45.325203252032516 55.233739837398375,45.12195121951219 55.13211382113821,44.96951219512195 55.03048780487805,44.766260162601625 54.92886178861789,44.61382113821138 54.827235772357724,44.41056910569105 54.72560975609756,44.25813008130081 54.6239837398374,44.105691056910565 54.52235772357724,43.953252032520325 54.420731707317074,43.80081300813008 54.26829268292683,43.699186991869915 54.11585365853659,43.546747967479675 53.96341463414634,43.44512195121951 53.760162601626014,43.34349593495935 53.55691056910569,43.1910569105691" fill="none" stroke="black" stroke-width="0.6"></polyline><polyline points="53.55691056910569,43.1910569105691 53.40447154471545,43.140243902439025 53.15040650406504,42.98780487804878 52.947154471544714,42.9369918699187 52.74390243902439,42.83536585365854 52.540650406504064,42.733739837398375 52.33739837398374,42.63211382113821 52.13414634146341,42.58130081300813 51.93089430894309,42.479674796747965 51.77845528455284,42.42886178861789 51.575203252032516,42.3780487804878 51.37195121951219,42.327235772357724 51.168699186991866,42.27642276422764 50.96544715447154,42.22560975609756 50.71138211382114,42.17479674796748 50.50813008130081,42.1239837398374 50.30487804878049,42.073170731707314 50.05081300813008,42.073170731707314 49.796747967479675,42.02235772357724 49.542682926829265,42.02235772357724 49.28861788617886,42.02235772357724 49.03455284552845,42.02235772357724 48.78048780487805,42.02235772357724 48.47560975609756,42.02235772357724 48.22154471544715,42.02235772357724 47.96747967479675,42.02235772357724 47.66260162601626,42.02235772357724 47.40853658536585,42.02235772357724 47.20528455284553,42.02235772357724 46.951219512195124,42.02235772357724 46.697154471544714,42.073170731707314 46.49390243902439,42.1239837398374 46.239837398373986,42.17479674796748 45.985772357723576,42.22560975609756 45.78252032520325,42.22560975609756 45.52845528455285,42.327235772357724 45.325203252032516,42.3780487804878 45.07113821138211,42.42886178861789 44.8170731707317,42.53048780487805 44.61382113821138,42.58130081300813 44.359756097560975,42.68292682926829 44.15650406504065,42.733739837398375 43.90243902439024,42.83536585365854 43.699186991869915,42.886178861788615 43.44512195121951,42.98780487804878 43.24186991869919,43.08943089430894 43.03861788617886,43.1910569105691 42.83536585365854,43.292682926829265 42.68292682926829,43.34349593495935 42.479674796747965,43.49593495934959 42.327235772357724,43.59756097560975" fill="none" stroke="black" stroke-width="0.6"></polyline><polyline points="42.327235772357724,43.59756097560975 42.17479674796748,43.75 42.02235772357724,43.85162601626016 41.81910569105691,44.0040650406504 41.71747967479675,44.15650406504065 41.5650406504065,44.30894308943089 41.41260162601626,44.46138211382114 41.260162601626014,44.61382113821138 41.107723577235774,44.8170731707317 41.00609756097561,44.96951219512195 40.90447154471545,45.12195121951219 40.802845528455286,45.27439024390244 40.7520325203252,45.47764227642276 40.65040650406504,45.63008130081301 40.59959349593496,45.833333333333336 40.548780487804876,46.03658536585366 40.4979674796748,46.239837398373986 40.447154471544714,46.44308943089431 40.396341463414636,46.646341463414636 40.396341463414636,46.84959349593496 40.34552845528455,47.052845528455286 40.34552845528455,47.25609756097561 40.29471544715447,47.459349593495936 40.29471544715447,47.71341463414634 40.29471544715447,47.916666666666664 40.29471544715447,48.11991869918699 40.29471544715447,48.323170731707314 40.29471544715447,48.577235772357724 40.29471544715447,48.78048780487805 40.29471544715447,48.983739837398375 40.34552845528455,49.1869918699187 40.34552845528455,49.390243902439025 40.34552845528455,49.59349593495935 40.34552845528455,49.84756097560975 40.34552845528455,50.05081300813008 40.34552845528455,50.355691056910565 40.34552845528455,50.55894308943089 40.34552845528455,50.8130081300813 40.34552845528455,51.11788617886179 40.34552845528455,51.32113821138211 40.34552845528455,51.575203252032516 40.34552845528455,51.829268292682926 40.34552845528455,52.03252032520325 40.34552845528455,52.28658536585366 40.34552845528455,52.489837398373986 40.34552845528455,52.74390243902439 40.34552845528455,52.947154471544714 40.34552845528455,53.201219512195124 40.34552845528455,53.40447154471545 40.396341463414636,53.607723577235774 40.396341463414636,53.8109756097561" fill="none" stroke="black" stroke-width="0.6"></polyline><polyline points="40.396341463414636,53.8109756097561 40.396341463414636,54.014227642276424 40.447154471544714,54.26829268292683 40.447154471544714,54.47154471544715 40.4979674796748,54.72560975609756 40.4979674796748,54.92886178861789 40.548780487804876,55.18292682926829 40.59959349593496,55.386178861788615 40.65040650406504,55.58943089430894 40.7520325203252,55.792682926829265 40.802845528455286,55.94512195121951 40.90447154471545,56.14837398373984 40.95528455284553,56.30081300813008 41.05691056910569,56.5040650406504 41.15853658536585,56.65650406504065 41.3109756097561,56.80894308943089 41.41260162601626,56.96138211382114 41.5650406504065,57.11382113821138 41.666666666666664,57.3170731707317 41.81910569105691,57.418699186991866 41.920731707317074,57.57113821138211 42.073170731707314,57.72357723577235 42.22560975609756,57.8760162601626 42.3780487804878,58.02845528455284 42.53048780487805,58.18089430894309 42.68292682926829,58.28252032520325 42.83536585365854,58.43495934959349 42.98780487804878,58.58739837398374 43.140243902439025,58.6890243902439 43.24186991869919,58.84146341463415 43.44512195121951,58.94308943089431 43.546747967479675,59.09552845528455 43.699186991869915,59.197154471544714 43.85162601626016,59.34959349593496 44.0040650406504,59.5020325203252 44.15650406504065,59.603658536585364 44.359756097560975,59.70528455284553 44.512195121951216,59.80691056910569 44.71544715447154,59.90853658536585 44.918699186991866,60.010162601626014 45.07113821138211,60.11178861788618 45.27439024390244,60.21341463414634 45.47764227642276,60.3150406504065 45.68089430894309,60.416666666666664 45.88414634146341,60.46747967479675 46.03658536585366,60.56910569105691 46.239837398373986,60.670731707317074 46.44308943089431,60.72154471544715 46.59552845528455,60.823170731707314 46.798780487804876,60.8739837398374 47.0020325203252,60.97560975609756" fill="none" stroke="black" stroke-width="0.6"></polyline><polyline points="47.0020325203252,60.97560975609756 47.20528455284553,61.02642276422764 47.40853658536585,61.077235772357724 47.61178861788618,61.1280487804878 47.764227642276424,61.229674796747965 47.96747967479675,61.28048780487805 48.170731707317074,61.33130081300813 48.3739837398374,61.38211382113821 48.577235772357724,61.43292682926829 48.78048780487805,61.483739837398375 48.983739837398375,61.483739837398375 49.23780487804878,61.53455284552845 49.4410569105691,61.58536585365854 49.64430894308943,61.636178861788615 49.84756097560975,61.636178861788615 50.05081300813008,61.6869918699187 50.2540650406504,61.6869918699187 50.45731707317073,61.73780487804878 50.66056910569105,61.78861788617886 50.86382113821138,61.78861788617886 51.0670731707317,61.78861788617886 51.27032520325203,61.78861788617886 51.47357723577235,61.78861788617886 51.67682926829268,61.78861788617886 51.880081300813,61.78861788617886 52.083333333333336,61.78861788617886 52.28658536585366,61.78861788617886 52.489837398373986,61.78861788617886 52.69308943089431,61.78861788617886 52.896341463414636,61.78861788617886 53.15040650406504,61.73780487804878 53.353658536585364,61.6869918699187 53.55691056910569,61.636178861788615 53.760162601626014,61.58536585365854 53.96341463414634,61.58536585365854 54.166666666666664,61.53455284552845 54.36991869918699,61.483739837398375 54.52235772357724,61.43292682926829 54.72560975609756,61.33130081300813 54.92886178861789,61.28048780487805 55.08130081300813,61.229674796747965 55.28455284552845,61.17886178861789 55.4369918699187,61.077235772357724 55.58943089430894,61.02642276422764 55.74186991869919,60.97560975609756 55.89430894308943,60.8739837398374 56.046747967479675,60.77235772357724 56.199186991869915,60.670731707317074 56.40243902439024,60.56910569105691 56.55487804878049,60.51829268292683 56.70731707317073,60.416666666666664" fill="none" stroke="black" stroke-width="0.6"></polyline><polyline points="56.70731707317073,60.416666666666664 56.859756097560975,60.264227642276424 57.012195121951216,60.16260162601626 57.21544715447154,60.0609756097561 57.36788617886179,59.90853658536585 57.57113821138211,59.80691056910569 57.72357723577235,59.65447154471545 57.92682926829268,59.5020325203252 58.079268292682926,59.40040650406504 58.28252032520325,59.197154471544714 58.43495934959349,59.09552845528455 58.58739837398374,58.94308943089431 58.739837398373986,58.739837398373986 58.892276422764226,58.58739837398374 59.04471544715447,58.38414634146341 59.197154471544714,58.18089430894309 59.40040650406504,57.97764227642276 59.552845528455286,57.825203252032516 59.75609756097561,57.57113821138211 59.90853658536585,57.418699186991866 60.0609756097561,57.21544715447154 60.264227642276424,57.012195121951216 60.416666666666664,56.80894308943089 60.51829268292683,56.605691056910565 60.670731707317074,56.35162601626016 60.823170731707314,56.14837398373984 60.92479674796748,55.94512195121951 61.077235772357724,55.6910569105691 61.229674796747965,55.48780487804878 61.33130081300813,55.28455284552845 61.483739837398375,55.03048780487805 61.58536585365854,54.77642276422764 61.73780487804878,54.573170731707314 61.83943089430894,54.26829268292683 61.9410569105691,54.0650406504065 62.042682926829265,53.8109756097561 62.14430894308943,53.55691056910569 62.19512195121951,53.353658536585364 62.24593495934959,53.15040650406504 62.296747967479675,52.896341463414636 62.34756097560975,52.642276422764226 62.39837398373984,52.4390243902439 62.449186991869915,52.1849593495935 62.449186991869915,51.93089430894309 62.5,51.67682926829268 62.5,51.422764227642276 62.55081300813008,51.21951219512195 62.55081300813008,50.96544715447154 62.60162601626016,50.71138211382114 62.60162601626016,50.50813008130081 62.60162601626016,50.30487804878049" fill="none" stroke="black" stroke-width="0.6"></polyline><polyline points="62.60162601626016,50.30487804878049 62.65243902439024,50.05081300813008 62.703252032520325,49.796747967479675 62.703252032520325,49.542682926829265 62.703252032520325,49.33943089430894 62.7540650406504,49.08536585365854 62.7540650406504,48.88211382113821 62.7540650406504,48.67886178861789 62.80487804878049,48.47560975609756 62.80487804878049,48.27235772357724 62.80487804878049,48.06910569105691 62.80487804878049,47.916666666666664 62.80487804878049,47.71341463414634 62.80487804878049,47.5609756097561 62.80487804878049,47.357723577235774 62.80487804878049,47.20528455284553 62.80487804878049,47.0020325203252 62.80487804878049,46.84959349593496 62.80487804878049,46.697154471544714 62.80487804878049,46.49390243902439 62.80487804878049,46.290650406504064 62.855691056910565,46.13821138211382 62.855691056910565,45.9349593495935 62.90650406504065,45.73170731707317 62.90650406504065,45.579268292682926 62.90650406504065,45.3760162601626 62.90650406504065,45.22357723577235 62.90650406504065,45.02032520325203 62.90650406504065,44.86788617886179 62.90650406504065,44.71544715447154 62.90650406504065,44.512195121951216 62.90650406504065,44.359756097560975 62.855691056910565,44.20731707317073 62.855691056910565,44.05487804878049 62.855691056910565,43.85162601626016 62.80487804878049,43.699186991869915 62.80487804878049,43.49593495934959 62.80487804878049,43.34349593495935 62.7540650406504,43.140243902439025 62.703252032520325,42.9369918699187 62.703252032520325,42.78455284552845 62.65243902439024,42.63211382113821 62.60162601626016,42.42886178861789 62.55081300813008,42.27642276422764 62.449186991869915,42.1239837398374 62.39837398373984,41.97154471544715 62.296747967479675,41.81910569105691 62.24593495934959,41.71747967479675 62.14430894308943,41.514227642276424 62.042682926829265,41.36178861788618 61.9410569105691,41.209349593495936" fill="none" stroke="black" stroke-width="0.6"></polyline><polyline points="61.9410569105691,41.209349593495936 61.83943089430894,41.05691056910569 61.73780487804878,40.90447154471545 61.636178861788615,40.7520325203252 61.53455284552845,40.59959349593496 61.43292682926829,40.4979674796748 61.28048780487805,40.34552845528455 61.17886178861789,40.19308943089431 61.077235772357724,40.09146341463415 60.92479674796748,39.989837398373986 60.77235772357724,39.83739837398374 60.670731707317074,39.735772357723576 60.51829268292683,39.63414634146341 60.416666666666664,39.53252032520325 60.264227642276424,39.43089430894309 60.16260162601626,39.27845528455285 60.010162601626014,39.176829268292686 59.90853658536585,39.07520325203252 59.80691056910569,38.97357723577235 59.65447154471545,38.87195121951219 59.552845528455286,38.77032520325203 59.451219512195124,38.71951219512195 59.34959349593496,38.61788617886179 59.2479674796748,38.516260162601625 59.146341463414636,38.46544715447154 59.04471544715447,38.36382113821138 58.99390243902439,38.262195121951216 58.892276422764226,38.21138211382114 58.790650406504064,38.109756097560975 58.6890243902439,38.00813008130081 58.58739837398374,37.95731707317073 58.485772357723576,37.855691056910565 58.38414634146341,37.7540650406504 58.28252032520325,37.703252032520325 58.18089430894309,37.60162601626016 58.079268292682926,37.5 57.97764227642276,37.449186991869915 57.825203252032516,37.34756097560975 57.672764227642276,37.296747967479675 57.57113821138211,37.19512195121951 57.418699186991866,37.14430894308943 57.3170731707317,37.09349593495935 57.16463414634146,36.99186991869919 57.012195121951216,36.9410569105691 56.859756097560975,36.83943089430894 56.70731707317073,36.78861788617886 56.55487804878049,36.6869918699187 56.40243902439024,36.636178861788615 56.199186991869915,36.58536585365854 56.046747967479675,36.483739837398375 55.84349593495935,36.43292682926829" fill="none" stroke="black" stroke-width="0.6"></polyline><polyline points="55.84349593495935,36.43292682926829 55.640243902439025,36.38211382113821 55.48780487804878,36.33130081300813 55.233739837398375,36.28048780487805 55.03048780487805,36.229674796747965 54.827235772357724,36.17886178861789 54.573170731707314,36.1280487804878 54.36991869918699,36.077235772357724 54.166666666666664,36.02642276422764 53.91260162601626,35.97560975609756 53.709349593495936,35.97560975609756 53.50609756097561,35.92479674796748 53.2520325203252,35.8739837398374 52.9979674796748,35.8739837398374 52.79471544715447,35.823170731707314 52.540650406504064,35.823170731707314 52.28658536585366,35.77235772357724 52.083333333333336,35.77235772357724 51.829268292682926,35.72154471544715 51.575203252032516,35.72154471544715 51.37195121951219,35.670731707317074 51.11788617886179,35.670731707317074 50.86382113821138,35.61991869918699 50.66056910569105,35.61991869918699 50.40650406504065,35.61991869918699 50.15243902439024,35.61991869918699 49.89837398373984,35.61991869918699 49.69512195121951,35.61991869918699 49.4410569105691,35.61991869918699 49.1869918699187,35.61991869918699 48.93292682926829,35.61991869918699 48.67886178861789,35.61991869918699 48.47560975609756,35.61991869918699 48.22154471544715,35.61991869918699 47.916666666666664,35.61991869918699 47.66260162601626,35.61991869918699 47.40853658536585,35.670731707317074 47.15447154471545,35.670731707317074 46.90040650406504,35.72154471544715 46.646341463414636,35.72154471544715 46.392276422764226,35.77235772357724 46.13821138211382,35.823170731707314 45.88414634146341,35.823170731707314 45.63008130081301,35.8739837398374 45.42682926829268,35.92479674796748 45.22357723577235,35.92479674796748 44.96951219512195,35.92479674796748 44.766260162601625,35.97560975609756 44.5630081300813,35.97560975609756 44.30894308943089,36.02642276422764 44.05487804878049,36.077235772357724" fill="none" stroke="black" stroke-width="0.6"></polyline><polyline points="44.05487804878049,36.077235772357724 43.85162601626016,36.1280487804878 43.59756097560975,36.17886178861789 43.34349593495935,36.229674796747965 43.08943089430894,36.28048780487805 42.83536585365854,36.38211382113821 42.58130081300813,36.43292682926829 42.3780487804878,36.483739837398375 42.17479674796748,36.58536585365854 41.97154471544715,36.636178861788615 41.76829268292683,36.6869918699187 41.5650406504065,36.78861788617886 41.41260162601626,36.83943089430894 41.209349593495936,36.890243902439025 41.05691056910569,36.9410569105691 40.90447154471545,37.042682926829265 40.701219512195124,37.09349593495935 40.548780487804876,37.19512195121951 40.396341463414636,37.24593495934959 40.24390243902439,37.34756097560975 40.09146341463415,37.449186991869915 39.9390243902439,37.55081300813008 39.78658536585366,37.65243902439024 39.63414634146341,37.7540650406504 39.43089430894309,37.855691056910565 39.27845528455285,38.00813008130081 39.07520325203252,38.16056910569105 38.87195121951219,38.262195121951216 38.668699186991866,38.41463414634146 38.46544715447154,38.5670731707317 38.262195121951216,38.71951219512195 38.05894308943089,38.922764227642276 37.855691056910565,39.07520325203252 37.65243902439024,39.27845528455285 37.449186991869915,39.48170731707317 37.24593495934959,39.63414634146341 37.09349593495935,39.83739837398374 36.9410569105691,39.989837398373986 36.78861788617886,40.19308943089431 36.636178861788615,40.34552845528455 36.483739837398375,40.548780487804876 36.33130081300813,40.7520325203252 36.229674796747965,40.95528455284553 36.02642276422764,41.15853658536585 35.92479674796748,41.36178861788618 35.77235772357724,41.61585365853659 35.56910569105691,41.86991869918699 35.416666666666664,42.073170731707314 35.264227642276424,42.327235772357724 35.11178861788618,42.58130081300813 34.959349593495936,42.78455284552845" fill="none" stroke="black" stroke-width="0.6"></polyline><polyline points="34.959349593495936,42.78455284552845 34.857723577235774,43.03861788617886 34.75609756097561,43.24186991869919 34.65447154471545,43.49593495934959 34.552845528455286,43.699186991869915 34.5020325203252,43.953252032520325 34.40040650406504,44.20731707317073 34.34959349593496,44.46138211382114 34.2479674796748,44.71544715447154 34.197154471544714,44.918699186991866 34.09552845528455,45.172764227642276 33.99390243902439,45.42682926829268 33.94308943089431,45.68089430894309 33.84146341463415,45.985772357723576 33.739837398373986,46.239837398373986 33.63821138211382,46.54471544715447 33.53658536585366,46.84959349593496 33.485772357723576,47.15447154471545 33.38414634146341,47.40853658536585 33.28252032520325,47.71341463414634 33.23170731707317,48.06910569105691 33.18089430894309,48.3739837398374 33.13008130081301,48.67886178861789 33.02845528455285,48.983739837398375 33.02845528455285,49.28861788617886 32.97764227642276,49.542682926829265 32.926829268292686,49.84756097560975 32.926829268292686,50.10162601626016 32.926829268292686,50.40650406504065 32.8760162601626,50.71138211382114 32.8760162601626,50.96544715447154 32.8760162601626,51.21951219512195 32.8760162601626,51.52439024390244 32.8760162601626,51.77845528455284 32.8760162601626,52.083333333333336 32.8760162601626,52.33739837398374 32.8760162601626,52.642276422764226 32.8760162601626,52.947154471544714 32.8760162601626,53.201219512195124 32.8760162601626,53.45528455284553 32.8760162601626,53.709349593495936 32.8760162601626,53.96341463414634 32.926829268292686,54.166666666666664 32.97764227642276,54.420731707317074 33.02845528455285,54.67479674796748 33.13008130081301,54.92886178861789 33.18089430894309,55.233739837398375 33.28252032520325,55.4369918699187 33.333333333333336,55.6910569105691 33.4349593495935,55.94512195121951 33.53658536585366,56.14837398373984" fill="none" stroke="black" stroke-width="0.6"></polyline><polyline points="33.53658536585366,56.14837398373984 33.63821138211382,56.35162601626016 33.790650406504064,56.605691056910565 33.84146341463415,56.80894308943089 33.94308943089431,57.0630081300813 34.04471544715447,57.266260162601625 34.146341463414636,57.52032520325203 34.2479674796748,57.72357723577235 34.34959349593496,57.97764227642276 34.451219512195124,58.18089430894309 34.603658536585364,58.38414634146341 34.70528455284553,58.63821138211382 34.857723577235774,58.84146341463415 34.959349593495936,59.09552845528455 35.11178861788618,59.34959349593496 35.21341463414634,59.552845528455286 35.3150406504065,59.75609756097561 35.416666666666664,60.010162601626014 35.56910569105691,60.21341463414634 35.670731707317074,60.46747967479675 35.823170731707314,60.72154471544715 35.97560975609756,60.92479674796748 36.1280487804878,61.17886178861789 36.33130081300813,61.43292682926829 36.483739837398375,61.636178861788615 36.636178861788615,61.83943089430894 36.83943089430894,62.09349593495935 36.99186991869919,62.24593495934959 37.14430894308943,62.449186991869915 37.34756097560975,62.703252032520325 37.5,62.90650406504065 37.65243902439024,63.109756097560975 37.855691056910565,63.3130081300813 38.05894308943089,63.46544715447154 38.3130081300813,63.668699186991866 38.516260162601625,63.82113821138211 38.71951219512195,64.02439024390243 38.922764227642276,64.17682926829268 39.1260162601626,64.32926829268293 39.27845528455285,64.48170731707317 39.48170731707317,64.6341463414634 39.6849593495935,64.78658536585365 39.88821138211382,64.9390243902439 40.09146341463415,65.09146341463415 40.34552845528455,65.2439024390244 40.548780487804876,65.39634146341463 40.802845528455286,65.4979674796748 41.00609756097561,65.65040650406505 41.260162601626014,65.7520325203252 41.46341463414634,65.85365853658537 41.71747967479675,65.95528455284553" fill="none" stroke="black" stroke-width="0.6"></polyline><polyline points="41.71747967479675,65.95528455284553 41.920731707317074,66.0569105691057 42.1239837398374,66.15853658536585 42.327235772357724,66.26016260162602 42.53048780487805,66.3109756097561 42.78455284552845,66.41260162601625 42.98780487804878,66.51422764227642 43.1910569105691,66.5650406504065 43.39430894308943,66.61585365853658 43.59756097560975,66.71747967479675 43.80081300813008,66.76829268292683 44.0040650406504,66.8191056910569 44.15650406504065,66.869918699187 44.359756097560975,66.92073170731707 44.5630081300813,67.02235772357723 44.766260162601625,67.07317073170732 44.96951219512195,67.07317073170732 45.172764227642276,67.1239837398374 45.325203252032516,67.17479674796748 45.52845528455285,67.17479674796748 45.78252032520325,67.22560975609755 45.985772357723576,67.22560975609755 46.1890243902439,67.27642276422765 46.392276422764226,67.32723577235772 46.59552845528455,67.3780487804878 46.7479674796748,67.42886178861788 46.951219512195124,67.42886178861788 47.103658536585364,67.47967479674797 47.30691056910569,67.53048780487805 47.510162601626014,67.58130081300813 47.66260162601626,67.6321138211382 47.8150406504065,67.6829268292683 48.01829268292683,67.6829268292683 48.170731707317074,67.73373983739837 48.323170731707314,67.73373983739837 48.52642276422764,67.73373983739837 48.729674796747965,67.73373983739837 48.88211382113821,67.78455284552845 49.08536585365854,67.78455284552845 49.28861788617886,67.78455284552845 49.49186991869919,67.78455284552845 49.74593495934959,67.83536585365853 49.949186991869915,67.83536585365853 50.203252032520325,67.83536585365853 50.40650406504065,67.83536585365853 50.66056910569105,67.83536585365853 50.86382113821138,67.83536585365853 51.11788617886179,67.83536585365853 51.32113821138211,67.78455284552845 51.52439024390244,67.78455284552845 51.77845528455284,67.78455284552845" fill="none" stroke="black" stroke-width="0.6"></polyline><polyline points="51.77845528455284,67.78455284552845 51.981707317073166,67.78455284552845 52.1849593495935,67.78455284552845 52.4390243902439,67.78455284552845 52.642276422764226,67.78455284552845 52.84552845528455,67.78455284552845 53.048780487804876,67.73373983739837 53.2520325203252,67.73373983739837 53.45528455284553,67.73373983739837 53.709349593495936,67.73373983739837 53.86178861788618,67.73373983739837 54.0650406504065,67.73373983739837 54.31910569105691,67.6829268292683 54.52235772357724,67.6829268292683 54.72560975609756,67.6829268292683 54.92886178861789,67.6321138211382 55.13211382113821,67.6321138211382 55.386178861788615,67.58130081300813 55.58943089430894,67.53048780487805 55.792682926829265,67.47967479674797 56.046747967479675,67.42886178861788 56.25,67.3780487804878 56.453252032520325,67.32723577235772 56.65650406504065,67.22560975609755 56.859756097560975,67.17479674796748 57.0630081300813,67.07317073170732 57.266260162601625,67.02235772357723 57.46951219512195,66.92073170731707 57.72357723577235,66.869918699187 57.92682926829268,66.76829268292683 58.130081300813,66.66666666666667 58.38414634146341,66.5650406504065 58.58739837398374,66.46341463414635 58.790650406504064,66.36178861788618 58.99390243902439,66.26016260162602 59.2479674796748,66.10772357723577 59.451219512195124,66.0060975609756 59.65447154471545,65.85365853658537 59.90853658536585,65.70121951219512 60.11178861788618,65.54878048780488 60.36585365853659,65.39634146341463 60.61991869918699,65.2439024390244 60.8739837398374,65.09146341463415 61.077235772357724,64.88821138211382 61.33130081300813,64.73577235772358 61.58536585365854,64.53252032520325 61.83943089430894,64.380081300813 62.09349593495935,64.17682926829268 62.39837398373984,63.97357723577235 62.65243902439024,63.82113821138211 62.90650406504065,63.61788617886179" fill="none" stroke="black" stroke-width="0.6"></polyline><polyline points="62.90650406504065,63.61788617886179 63.16056910569105,63.41463414634146 63.41463414634146,63.21138211382114 63.61788617886179,63.00813008130081 63.82113821138211,62.80487804878049 64.07520325203252,62.60162601626016 64.32926829268293,62.34756097560975 64.53252032520325,62.14430894308943 64.78658536585365,61.890243902439025 65.04065040650406,61.6869918699187 65.2439024390244,61.43292682926829 65.44715447154472,61.229674796747965 65.70121951219512,61.02642276422764 65.85365853658537,60.77235772357724 66.0060975609756,60.56910569105691 66.20934959349593,60.3150406504065 66.41260162601625,60.11178861788618 66.61585365853658,59.90853658536585 66.76829268292683,59.65447154471545 66.97154471544715,59.451219512195124 67.1239837398374,59.197154471544714 67.27642276422765,58.94308943089431 67.3780487804878,58.6890243902439 67.53048780487805,58.485772357723576 67.6829268292683,58.231707317073166 67.83536585365853,57.97764227642276 67.9369918699187,57.77439024390244 68.03861788617886,57.52032520325203 68.1910569105691,57.266260162601625 68.29268292682927,57.0630081300813 68.34349593495935,56.80894308943089 68.4451219512195,56.55487804878049 68.4959349593496,56.30081300813008 68.54674796747967,56.09756097560975 68.54674796747967,55.84349593495935 68.54674796747967,55.640243902439025 68.54674796747967,55.386178861788615 68.54674796747967,55.18292682926829 68.54674796747967,54.92886178861789 68.59756097560975,54.67479674796748 68.59756097560975,54.420731707317074 68.59756097560975,54.11585365853659 68.64837398373983,53.86178861788618 68.64837398373983,53.607723577235774 68.69918699186992,53.302845528455286 68.69918699186992,53.048780487804876 68.69918699186992,52.79471544715447 68.75,52.489837398373986 68.75,52.235772357723576 68.75,51.981707317073166 68.80081300813008,51.6260162601626" fill="none" stroke="black" stroke-width="0.6"></polyline><polyline points="68.80081300813008,51.6260162601626 68.80081300813008,51.37195121951219 68.80081300813008,51.0670731707317 68.85162601626016,50.762195121951216 68.85162601626016,50.50813008130081 68.85162601626016,50.203252032520325 68.90243902439025,49.89837398373984 68.90243902439025,49.59349593495935 68.95325203252033,49.28861788617886 68.95325203252033,48.983739837398375 68.95325203252033,48.67886178861789 68.95325203252033,48.42479674796748 68.95325203252033,48.11991869918699 68.95325203252033,47.8150406504065 68.95325203252033,47.5609756097561 68.90243902439025,47.20528455284553 68.90243902439025,46.951219512195124 68.85162601626016,46.697154471544714 68.85162601626016,46.44308943089431 68.85162601626016,46.1890243902439 68.80081300813008,45.9349593495935 68.75,45.63008130081301 68.75,45.3760162601626 68.69918699186992,45.12195121951219 68.64837398373983,44.86788617886179 68.64837398373983,44.61382113821138 68.59756097560975,44.359756097560975 68.59756097560975,44.105691056910565 68.54674796747967,43.90243902439024 68.54674796747967,43.699186991869915 68.4959349593496,43.44512195121951 68.4959349593496,43.24186991869919 68.4451219512195,42.98780487804878 68.39430894308943,42.78455284552845 68.39430894308943,42.58130081300813 68.34349593495935,42.3780487804878 68.34349593495935,42.17479674796748 68.29268292682927,41.97154471544715 68.24186991869918,41.81910569105691 68.24186991869918,41.61585365853659 68.1910569105691,41.46341463414634 68.1910569105691,41.260162601626014 68.14024390243902,41.05691056910569 68.08943089430895,40.90447154471545 68.08943089430895,40.701219512195124 68.03861788617886,40.548780487804876 67.98780487804878,40.396341463414636 67.9369918699187,40.24390243902439 67.88617886178862,40.09146341463415 67.83536585365853,39.9390243902439 67.78455284552845,39.83739837398374" fill="none" stroke="black" stroke-width="0.6"></polyline><polyline points="67.78455284552845,39.83739837398374 67.73373983739837,39.6849593495935 67.6321138211382,39.583333333333336 67.58130081300813,39.43089430894309 67.53048780487805,39.329268292682926 67.47967479674797,39.22764227642276 67.42886178861788,39.07520325203252 67.32723577235772,38.922764227642276 67.27642276422765,38.82113821138211 67.22560975609755,38.71951219512195 67.17479674796748,38.61788617886179 67.07317073170732,38.46544715447154 67.02235772357723,38.36382113821138 66.92073170731707,38.262195121951216 66.869918699187,38.16056910569105 66.76829268292683,38.05894308943089 66.71747967479675,37.90650406504065 66.61585365853658,37.80487804878049 66.51422764227642,37.703252032520325 66.46341463414635,37.55081300813008 66.36178861788618,37.449186991869915 66.26016260162602,37.296747967479675 66.20934959349593,37.19512195121951 66.10772357723577,37.042682926829265 65.95528455284553,36.9410569105691 65.85365853658537,36.78861788617886 65.7520325203252,36.6869918699187 65.59959349593495,36.58536585365854 65.44715447154472,36.483739837398375 65.34552845528455,36.33130081300813 65.1930894308943,36.229674796747965 65.04065040650406,36.1280487804878 64.88821138211382,35.97560975609756 64.73577235772358,35.823170731707314 64.58333333333333,35.670731707317074 64.48170731707317,35.56910569105691 64.27845528455285,35.416666666666664 64.1260162601626,35.264227642276424 63.97357723577235,35.11178861788618 63.77032520325203,34.959349593495936 63.61788617886179,34.80691056910569 63.46544715447154,34.65447154471545 63.262195121951216,34.5020325203252 63.109756097560975,34.298780487804876 62.90650406504065,34.146341463414636 62.703252032520325,33.99390243902439 62.55081300813008,33.84146341463415 62.34756097560975,33.6890243902439 62.19512195121951,33.53658536585366 61.99186991869919,33.38414634146341 61.83943089430894,33.23170731707317" fill="none" stroke="black" stroke-width="0.6"></polyline><polyline points="61.83943089430894,33.23170731707317 61.636178861788615,33.079268292682926 61.483739837398375,32.926829268292686 61.28048780487805,32.77439024390244 61.077235772357724,32.6219512195122 60.8739837398374,32.46951219512195 60.72154471544715,32.3170731707317 60.51829268292683,32.16463414634146 60.3150406504065,32.0630081300813 60.16260162601626,31.910569105691057 59.959349593495936,31.758130081300813 59.80691056910569,31.65650406504065 59.603658536585364,31.554878048780488 59.40040650406504,31.402439024390244 59.2479674796748,31.25 59.09552845528455,31.148373983739837 58.892276422764226,31.046747967479675 58.739837398373986,30.89430894308943 58.536585365853654,30.79268292682927 58.38414634146341,30.691056910569106 58.18089430894309,30.589430894308943 58.02845528455284,30.48780487804878 57.8760162601626,30.38617886178862 57.672764227642276,30.284552845528456 57.52032520325203,30.182926829268293 57.36788617886179,30.08130081300813 57.21544715447154,30.03048780487805 57.012195121951216,29.928861788617887 56.859756097560975,29.878048780487806 56.70731707317073,29.827235772357724 56.55487804878049,29.725609756097562 56.40243902439024,29.67479674796748 56.25,29.6239837398374 56.09756097560975,29.573170731707318 55.94512195121951,29.522357723577237 55.792682926829265,29.471544715447155 55.640243902439025,29.420731707317074 55.48780487804878,29.369918699186993 55.33536585365854,29.31910569105691 55.13211382113821,29.268292682926827 54.979674796747965,29.217479674796746 54.827235772357724,29.166666666666664 54.67479674796748,29.115853658536583 54.52235772357724,29.115853658536583 54.31910569105691,29.0650406504065 54.11585365853659,29.0650406504065 53.96341463414634,29.01422764227642 53.760162601626014,29.01422764227642 53.55691056910569,29.01422764227642 53.40447154471545,28.96341463414634 53.201219512195124,28.96341463414634" fill="none" stroke="black" stroke-width="0.6"></polyline><polyline points="53.201219512195124,28.96341463414634 52.9979674796748,28.96341463414634 52.84552845528455,28.96341463414634 52.642276422764226,28.96341463414634 52.4390243902439,28.96341463414634 52.235772357723576,28.912601626016258 52.03252032520325,28.912601626016258 51.829268292682926,28.912601626016258 51.6260162601626,28.912601626016258 51.37195121951219,28.861788617886177 51.168699186991866,28.861788617886177 50.91463414634146,28.861788617886177 50.71138211382114,28.861788617886177 50.45731707317073,28.810975609756095 50.2540650406504,28.810975609756095 50,28.810975609756095 49.74593495934959,28.810975609756095 49.49186991869919,28.810975609756095 49.28861788617886,28.810975609756095 49.03455284552845,28.810975609756095 48.83130081300813,28.810975609756095 48.577235772357724,28.810975609756095 48.323170731707314,28.810975609756095 48.06910569105691,28.810975609756095 47.86585365853659,28.810975609756095 47.61178861788618,28.810975609756095 47.357723577235774,28.810975609756095 47.103658536585364,28.810975609756095 46.84959349593496,28.810975609756095 46.59552845528455,28.810975609756095 46.34146341463415,28.861788617886177 46.03658536585366,28.861788617886177 45.78252032520325,28.861788617886177 45.52845528455285,28.861788617886177 45.22357723577235,28.912601626016258 44.96951219512195,28.912601626016258 44.71544715447154,28.96341463414634 44.41056910569105,28.96341463414634 44.105691056910565,29.01422764227642 43.85162601626016,29.0650406504065 43.546747967479675,29.0650406504065 43.24186991869919,29.115853658536583 42.98780487804878,29.166666666666664 42.68292682926829,29.217479674796746 42.3780487804878,29.268292682926827 42.073170731707314,29.31910569105691 41.76829268292683,29.369918699186993 41.514227642276424,29.420731707317074 41.15853658536585,29.522357723577237 40.90447154471545,29.573170731707318 40.65040650406504,29.6239837398374" fill="none" stroke="black" stroke-width="0.6"></polyline><polyline points="40.65040650406504,29.6239837398374 40.34552845528455,29.67479674796748 40.09146341463415,29.725609756097562 39.83739837398374,29.827235772357724 39.48170731707317,29.928861788617887 39.22764227642276,30.03048780487805 38.97357723577235,30.132113821138212 38.61788617886179,30.284552845528456 38.36382113821138,30.38617886178862 38.109756097560975,30.48780487804878 37.80487804878049,30.640243902439025 37.55081300813008,30.741869918699187 37.296747967479675,30.84349593495935 37.042682926829265,30.995934959349594 36.83943089430894,31.097560975609756 36.58536585365854,31.19918699186992 36.33130081300813,31.351626016260163 36.1280487804878,31.453252032520325 35.97560975609756,31.554878048780488 35.72154471544715,31.70731707317073 35.51829268292683,31.859756097560975 35.3150406504065,32.012195121951216 35.11178861788618,32.16463414634146 34.90853658536585,32.3170731707317 34.75609756097561,32.46951219512195 34.552845528455286,32.672764227642276 34.34959349593496,32.82520325203252 34.197154471544714,33.02845528455285 33.99390243902439,33.23170731707317 33.84146341463415,33.4349593495935 33.6890243902439,33.63821138211382 33.485772357723576,33.84146341463415 33.333333333333336,34.04471544715447 33.18089430894309,34.2479674796748 33.02845528455285,34.451219512195124 32.8760162601626,34.65447154471545 32.72357723577236,34.90853658536585 32.57113821138211,35.11178861788618 32.418699186991866,35.3150406504065 32.21544715447154,35.56910569105691 32.012195121951216,35.823170731707314 31.859756097560975,36.02642276422764 31.65650406504065,36.229674796747965 31.402439024390244,36.483739837398375 31.19918699186992,36.73780487804878 31.046747967479675,36.99186991869919 30.84349593495935,37.296747967479675 30.691056910569106,37.5 30.589430894308943,37.7540650406504 30.4369918699187,38.00813008130081 30.284552845528456,38.21138211382114" fill="none" stroke="black" stroke-width="0.6"></polyline><polyline points="30.284552845528456,38.21138211382114 30.132113821138212,38.46544715447154 29.979674796747968,38.71951219512195 29.878048780487806,38.97357723577235 29.67479674796748,39.27845528455285 29.522357723577237,39.583333333333336 29.369918699186993,39.88821138211382 29.166666666666664,40.19308943089431 28.96341463414634,40.4979674796748 28.810975609756095,40.802845528455286 28.60772357723577,41.107723577235774 28.455284552845526,41.46341463414634 28.2520325203252,41.76829268292683 28.15040650406504,42.073170731707314 27.997967479674795,42.3780487804878 27.896341463414632,42.63211382113821 27.74390243902439,42.9369918699187 27.642276422764226,43.1910569105691 27.540650406504064,43.49593495934959 27.4390243902439,43.80081300813008 27.38821138211382,44.105691056910565 27.33739837398374,44.359756097560975 27.235772357723576,44.66463414634146 27.184959349593495,44.918699186991866 27.134146341463413,45.22357723577235 27.083333333333332,45.52845528455285 27.03252032520325,45.833333333333336 26.98170731707317,46.13821138211382 26.93089430894309,46.44308943089431 26.880081300813007,46.7479674796748 26.829268292682926,47.052845528455286 26.778455284552845,47.357723577235774 26.727642276422763,47.61178861788618 26.676829268292682,47.96747967479675 26.6260162601626,48.27235772357724 26.57520325203252,48.577235772357724 26.57520325203252,48.88211382113821 26.524390243902438,49.23780487804878 26.524390243902438,49.49186991869919 26.524390243902438,49.796747967479675 26.524390243902438,50.10162601626016 26.524390243902438,50.40650406504065 26.524390243902438,50.66056910569105 26.524390243902438,50.96544715447154 26.524390243902438,51.21951219512195 26.524390243902438,51.47357723577235 26.524390243902438,51.77845528455284 26.524390243902438,52.083333333333336 26.473577235772357,52.33739837398374 26.473577235772357,52.642276422764226 26.422764227642276,52.947154471544714" fill="none" stroke="black" stroke-width="0.6"></polyline><polyline points="26.422764227642276,52.947154471544714 26.422764227642276,53.2520325203252 26.371951219512194,53.607723577235774 26.321138211382113,53.91260162601626 26.321138211382113,54.21747967479675 26.270325203252032,54.52235772357724 26.270325203252032,54.827235772357724 26.270325203252032,55.13211382113821 26.270325203252032,55.4369918699187 26.270325203252032,55.6910569105691 26.321138211382113,55.94512195121951 26.321138211382113,56.25 26.371951219512194,56.5040650406504 26.371951219512194,56.80894308943089 26.422764227642276,57.11382113821138 26.473577235772357,57.36788617886179 26.473577235772357,57.672764227642276 26.524390243902438,57.92682926829268 26.57520325203252,58.231707317073166 26.6260162601626,58.536585365853654 26.676829268292682,58.84146341463415 26.727642276422763,59.146341463414636 26.778455284552845,59.451219512195124 26.829268292682926,59.75609756097561 26.93089430894309,60.0609756097561 26.98170731707317,60.3150406504065 27.083333333333332,60.61991869918699 27.184959349593495,60.8739837398374 27.33739837398374,61.1280487804878 27.4390243902439,61.43292682926829 27.540650406504064,61.636178861788615 27.693089430894307,61.890243902439025 27.896341463414632,62.09349593495935 28.048780487804876,62.296747967479675 28.2520325203252,62.55081300813008 28.455284552845526,62.703252032520325 28.60772357723577,62.90650406504065 28.810975609756095,63.109756097560975 29.01422764227642,63.3130081300813 29.166666666666664,63.516260162601625 29.31910569105691,63.71951219512195 29.471544715447155,63.87195121951219 29.6239837398374,64.07520325203252 29.776422764227643,64.27845528455285 29.878048780487806,64.43089430894308 30.03048780487805,64.6341463414634 30.233739837398375,64.78658536585365 30.38617886178862,64.98983739837398 30.589430894308943,65.14227642276423 30.79268292682927,65.29471544715447 30.945121951219512,65.44715447154472" fill="none" stroke="black" stroke-width="0.6"></polyline><polyline points="30.945121951219512,65.44715447154472 31.148373983739837,65.65040650406505 31.30081300813008,65.80284552845528 31.504065040650406,65.90447154471545 31.65650406504065,66.0569105691057 31.808943089430894,66.20934959349593 31.961382113821138,66.36178861788618 32.11382113821138,66.51422764227642 32.3170731707317,66.66666666666667 32.418699186991866,66.8191056910569 32.6219512195122,66.97154471544715 32.77439024390244,67.1239837398374 32.926829268292686,67.32723577235772 33.13008130081301,67.47967479674797 33.28252032520325,67.6321138211382 33.4349593495935,67.78455284552845 33.58739837398374,67.9369918699187 33.739837398373986,68.08943089430895 33.892276422764226,68.24186991869918 33.99390243902439,68.39430894308943 34.146341463414636,68.54674796747967 34.298780487804876,68.69918699186992 34.451219512195124,68.85162601626016 34.603658536585364,69.0040650406504 34.75609756097561,69.15650406504065 34.90853658536585,69.2581300813008 35.0609756097561,69.41056910569105 35.21341463414634,69.5630081300813 35.36585365853659,69.71544715447155 35.56910569105691,69.91869918699187 35.72154471544715,70.0711382113821 35.8739837398374,70.22357723577235 36.02642276422764,70.3760162601626 36.17886178861789,70.52845528455285 36.33130081300813,70.73170731707317 36.483739837398375,70.83333333333333 36.6869918699187,70.98577235772358 36.83943089430894,71.13821138211382 37.042682926829265,71.23983739837398 37.19512195121951,71.34146341463415 37.39837398373984,71.4430894308943 37.60162601626016,71.59552845528455 37.80487804878049,71.69715447154472 37.95731707317073,71.79878048780488 38.16056910569105,71.90040650406505 38.36382113821138,72.05284552845528 38.5670731707317,72.15447154471545 38.71951219512195,72.2560975609756 38.922764227642276,72.40853658536585 39.07520325203252,72.51016260162602 39.22764227642276,72.66260162601625" fill="none" stroke="black" stroke-width="0.6"></polyline><polyline points="39.22764227642276,72.66260162601625 39.38008130081301,72.76422764227642 39.583333333333336,72.91666666666667 39.735772357723576,73.01829268292683 39.88821138211382,73.17073170731707 40.040650406504064,73.27235772357723 40.19308943089431,73.42479674796748 40.34552845528455,73.52642276422765 40.548780487804876,73.67886178861788 40.701219512195124,73.78048780487805 40.90447154471545,73.8821138211382 41.05691056910569,73.98373983739837 41.260162601626014,74.08536585365853 41.41260162601626,74.1869918699187 41.61585365853659,74.23780487804878 41.81910569105691,74.33943089430895 41.97154471544715,74.39024390243902 42.22560975609756,74.4410569105691 42.42886178861789,74.54268292682927 42.63211382113821,74.59349593495935 42.83536585365854,74.64430894308943 43.03861788617886,74.6951219512195 43.1910569105691,74.7459349593496 43.44512195121951,74.79674796747967 43.59756097560975,74.84756097560975 43.80081300813008,74.94918699186992 44.05487804878049,75 44.25813008130081,75.10162601626016 44.46138211382114,75.15243902439025 44.71544715447154,75.20325203252033 44.918699186991866,75.2540650406504 45.172764227642276,75.30487804878048 45.42682926829268,75.35569105691057 45.63008130081301,75.35569105691057 45.88414634146341,75.40650406504065 46.13821138211382,75.45731707317073 46.392276422764226,75.45731707317073 46.59552845528455,75.45731707317073 46.90040650406504,75.5081300813008 47.15447154471545,75.5081300813008 47.40853658536585,75.5081300813008 47.71341463414634,75.5589430894309 47.96747967479675,75.5589430894309 48.22154471544715,75.5589430894309 48.52642276422764,75.5589430894309 48.78048780487805,75.5589430894309 49.08536585365854,75.5589430894309 49.390243902439025,75.5081300813008 49.64430894308943,75.5081300813008 49.89837398373984,75.5081300813008 50.15243902439024,75.5081300813008" fill="none" stroke="black" stroke-width="0.6"></polyline><polyline points="50.15243902439024,75.5081300813008 50.45731707317073,75.45731707317073 50.71138211382114,75.45731707317073 50.96544715447154,75.45731707317073 51.21951219512195,75.45731707317073 51.422764227642276,75.45731707317073 51.67682926829268,75.45731707317073 51.93089430894309,75.40650406504065 52.1849593495935,75.40650406504065 52.4390243902439,75.35569105691057 52.69308943089431,75.30487804878048 52.896341463414636,75.2540650406504 53.15040650406504,75.2540650406504 53.353658536585364,75.20325203252033 53.607723577235774,75.15243902439025 53.8109756097561,75.15243902439025 54.0650406504065,75.10162601626016 54.26829268292683,75.10162601626016 54.47154471544715,75.05081300813008 54.72560975609756,75 54.92886178861789,74.94918699186992 55.13211382113821,74.89837398373983 55.28455284552845,74.84756097560975 55.48780487804878,74.84756097560975 55.6910569105691,74.79674796747967 55.84349593495935,74.7459349593496 56.046747967479675,74.6951219512195 56.199186991869915,74.64430894308943 56.35162601626016,74.59349593495935 56.55487804878049,74.54268292682927 56.75813008130081,74.49186991869918 56.91056910569105,74.4410569105691 57.11382113821138,74.39024390243902 57.266260162601625,74.28861788617886 57.46951219512195,74.23780487804878 57.672764227642276,74.13617886178862 57.825203252032516,74.08536585365853 58.02845528455284,73.98373983739837 58.231707317073166,73.8821138211382 58.43495934959349,73.83130081300813 58.63821138211382,73.72967479674797 58.84146341463415,73.67886178861788 59.04471544715447,73.57723577235772 59.2479674796748,73.52642276422765 59.451219512195124,73.42479674796748 59.65447154471545,73.32317073170732 59.857723577235774,73.27235772357723 60.0609756097561,73.17073170731707 60.21341463414634,73.119918699187 60.416666666666664,73.01829268292683 60.56910569105691,72.96747967479675" fill="none" stroke="black" stroke-width="0.6"></polyline><polyline points="60.56910569105691,72.96747967479675 60.72154471544715,72.86585365853658 60.8739837398374,72.8150406504065 61.077235772357724,72.71341463414635 61.229674796747965,72.66260162601625 61.38211382113821,72.5609756097561 61.58536585365854,72.51016260162602 61.73780487804878,72.40853658536585 61.890243902439025,72.3069105691057 62.042682926829265,72.20528455284553 62.19512195121951,72.15447154471545 62.34756097560975,72.05284552845528 62.5,71.95121951219512 62.65243902439024,71.90040650406505 62.80487804878049,71.79878048780488 62.95731707317073,71.69715447154472 63.109756097560975,71.59552845528455 63.3130081300813,71.49390243902438 63.46544715447154,71.39227642276423 63.61788617886179,71.29065040650406 63.77032520325203,71.1890243902439 63.97357723577235,71.08739837398373 64.1260162601626,70.98577235772358 64.27845528455285,70.8841463414634 64.48170731707317,70.73170731707317 64.6341463414634,70.630081300813 64.83739837398373,70.52845528455285 65.04065040650406,70.3760162601626 65.2439024390244,70.27439024390243 65.44715447154472,70.17276422764228 65.65040650406505,70.02032520325203 65.85365853658537,69.91869918699187 66.0569105691057,69.8170731707317 66.20934959349593,69.66463414634146 66.41260162601625,69.5630081300813 66.5650406504065,69.46138211382113 66.71747967479675,69.3089430894309 66.869918699187,69.20731707317073 66.97154471544715,69.05487804878048 67.1239837398374,68.95325203252033 67.27642276422765,68.80081300813008 67.42886178861788,68.69918699186992 67.58130081300813,68.59756097560975 67.73373983739837,68.4451219512195 67.9369918699187,68.34349593495935 68.08943089430895,68.1910569105691 68.24186991869918,68.08943089430895 68.39430894308943,67.9369918699187 68.59756097560975,67.78455284552845 68.75,67.6321138211382 68.95325203252033,67.47967479674797" fill="none" stroke="black" stroke-width="0.6"></polyline><polyline points="68.95325203252033,67.47967479674797 69.05487804878048,67.32723577235772 69.20731707317073,67.17479674796748 69.35975609756098,67.02235772357723 69.51219512195122,66.869918699187 69.66463414634146,66.71747967479675 69.8170731707317,66.51422764227642 69.96951219512195,66.36178861788618 70.1219512195122,66.20934959349593 70.32520325203252,66.0569105691057 70.47764227642276,65.85365853658537 70.630081300813,65.70121951219512 70.83333333333333,65.4979674796748 70.98577235772358,65.34552845528455 71.13821138211382,65.14227642276423 71.34146341463415,64.9390243902439 71.49390243902438,64.78658536585365 71.64634146341463,64.58333333333333 71.79878048780488,64.380081300813 71.95121951219512,64.22764227642276 72.10365853658537,64.02439024390243 72.3069105691057,63.82113821138211 72.45934959349593,63.5670731707317 72.61178861788618,63.36382113821138 72.8150406504065,63.16056910569105 72.96747967479675,62.90650406504065 73.17073170731707,62.703252032520325 73.32317073170732,62.449186991869915 73.47560975609755,62.24593495934959 73.6280487804878,62.042682926829265 73.83130081300813,61.78861788617886 73.9329268292683,61.58536585365854 74.08536585365853,61.38211382113821 74.1869918699187,61.1280487804878 74.28861788617886,60.92479674796748 74.39024390243902,60.670731707317074 74.49186991869918,60.416666666666664 74.59349593495935,60.21341463414634 74.6951219512195,59.959349593495936 74.79674796747967,59.75609756097561 74.89837398373983,59.5020325203252 75,59.298780487804876 75.10162601626016,59.04471544715447 75.20325203252033,58.790650406504064 75.2540650406504,58.536585365853654 75.35569105691057,58.28252032520325 75.45731707317073,58.02845528455284 75.5081300813008,57.77439024390244 75.60975609756098,57.52032520325203 75.66056910569105,57.3170731707317 75.71138211382113,57.0630081300813" fill="none" stroke="black" stroke-width="0.6"></polyline><polyline points="75.71138211382113,57.0630081300813 75.8130081300813,56.80894308943089 75.8130081300813,56.55487804878049 75.86382113821138,56.35162601626016 75.91463414634146,56.046747967479675 75.96544715447155,55.792682926829265 76.0670731707317,55.58943089430894 76.11788617886178,55.33536585365854 76.16869918699187,55.08130081300813 76.27032520325203,54.827235772357724 76.3211382113821,54.573170731707314 76.3719512195122,54.31910569105691 76.42276422764228,54.0650406504065 76.47357723577235,53.8109756097561 76.52439024390243,53.607723577235774 76.57520325203252,53.353658536585364 76.6260162601626,53.15040650406504 76.6260162601626,52.947154471544714 76.67682926829268,52.69308943089431 76.67682926829268,52.489837398373986 76.72764227642276,52.235772357723576 76.72764227642276,51.981707317073166 76.77845528455285,51.77845528455284 76.82926829268293,51.575203252032516 76.82926829268293,51.32113821138211 76.880081300813,51.168699186991866 76.880081300813,50.96544715447154 76.93089430894308,50.762195121951216 76.93089430894308,50.609756097560975 76.98170731707317,50.45731707317073 76.98170731707317,50.2540650406504 76.98170731707317,50.10162601626016 76.98170731707317,49.89837398373984 76.98170731707317,49.69512195121951 77.03252032520325,49.542682926829265 77.03252032520325,49.390243902439025 77.03252032520325,49.23780487804878 77.03252032520325,49.136178861788615 77.03252032520325,49.08536585365854 77.03252032520325,49.03455284552845 77.03252032520325,49.03455284552845 77.03252032520325,48.983739837398375 76.98170731707317,48.983739837398375 76.98170731707317,48.983739837398375 76.98170731707317,49.03455284552845 77.03252032520325,49.03455284552845 77.08333333333333,49.136178861788615 77.1849593495935,49.1869918699187 77.23577235772358,49.33943089430894" fill="none" stroke="black" stroke-width="0.6"></polyline></svg>