<svg height="100" width="100" preserveAspectRatio="xMidYMid meet"><polyline points="50.2540650406504,50.355691056910565 50.2540650406504,50.30487804878049 50.2540650406504,50.2540650406504 50.2540650406504,50.203252032520325 50.2540650406504,50.203252032520325 50.2540650406504,50.15243902439024 50.2540650406504,50.10162601626016 50.2540650406504,50.10162601626016 50.2540650406504,50.10162601626016 50.2540650406504,50.10162601626016 50.2540650406504,50.10162601626016 50.2540650406504,50.10162601626016 50.2540650406504,50.10162601626016 50.2540650406504,50.10162601626016 50.2540650406504,50.10162601626016 50.2540650406504,50.10162601626016 50.203252032520325,50.10162601626016 50.203252032520325,50.10162601626016 50.203252032520325,50.15243902439024 50.15243902439024,50.15243902439024 50.15243902439024,50.15243902439024 50.15243902439024,50.203252032520325 50.10162601626016,50.203252032520325 50.10162601626016,50.203252032520325 50.10162601626016,50.2540650406504 50.10162601626016,50.2540650406504 50.10162601626016,50.2540650406504 50.05081300813008,50.30487804878049 50.05081300813008,50.30487804878049 50.05081300813008,50.30487804878049 50.05081300813008,50.30487804878049 50.05081300813008,50.30487804878049 50.05081300813008,50.355691056910565 50.05081300813008,50.355691056910565 50.05081300813008,50.355691056910565 50.05081300813008,50.355691056910565 50.05081300813008,50.355691056910565 50.05081300813008,50.355691056910565 50.05081300813008,50.355691056910565 50.05081300813008,50.355691056910565 50.05081300813008,50.355691056910565 50.05081300813008,50.355691056910565 50.05081300813008,50.355691056910565 50.05081300813008,50.355691056910565 50.05081300813008,50.355691056910565 50.05081300813008,50.355691056910565 50.05081300813008,50.355691056910565 50.05081300813008,50.355691056910565 50.05081300813008,50.355691056910565 50.05081300813008,50.355691056910565 50.05081300813008,50.355691056910565" fill="none" stroke="black" stroke-width="0.6"></polyline><polyline points="50.05081300813008,50.355691056910565 50.05081300813008,50.355691056910565 50.05081300813008,50.355691056910565 50.05081300813008,50.355691056910565 50.05081300813008,50.355691056910565 50.05081300813008,50.355691056910565 50.05081300813008,50.355691056910565 50.05081300813008,50.355691056910565 50.05081300813008,50.355691056910565 50.05081300813008,50.355691056910565 50.05081300813008,50.355691056910565 50.05081300813008,50.355691056910565 50.05081300813008,50.355691056910565 50.05081300813008,50.355691056910565 50.05081300813008,50.355691056910565 50.05081300813008,50.355691056910565 50.05081300813008,50.355691056910565 50.05081300813008,50.355691056910565 50.05081300813008,50.355691056910565 50.05081300813008,50.355691056910565 50.05081300813008,50.355691056910565 50.05081300813008,50.355691056910565 50.05081300813008,50.355691056910565 50.05081300813008,50.355691056910565 50.05081300813008,50.355691056910565 50.05081300813008,50.355691056910565 50.05081300813008,50.355691056910565 50.05081300813008,50.355691056910565 50.05081300813008,50.355691056910565 50.05081300813008,50.355691056910565 50.05081300813008,50.355691056910565 50.05081300813008,50.30487804878049 50.05081300813008,50.30487804878049 50.05081300813008,50.2540650406504 50.05081300813008,50.2540650406504 50.05081300813008,50.203252032520325 50.05081300813008,50.203252032520325 50.05081300813008,50.15243902439024 50.05081300813008,50.10162601626016 50.05081300813008,50.10162601626016 50.05081300813008,50.05081300813008 50.05081300813008,50.05081300813008 50.05081300813008,50 50.10162601626016,49.949186991869915 50.10162601626016,49.949186991869915 50.10162601626016,49.89837398373984 50.10162601626016,49.89837398373984 50.10162601626016,49.84756097560975 50.10162601626016,49.84756097560975 50.10162601626016,49.796747967479675 50.10162601626016,49.796747967479675" fill="none" stroke="black" stroke-width="0.6"></polyline><polyline points="50.10162601626016,49.796747967479675 50.10162601626016,49.74593495934959 50.10162601626016,49.74593495934959 50.10162601626016,49.74593495934959 50.10162601626016,49.74593495934959 50.10162601626016,49.69512195121951 50.10162601626016,49.69512195121951 50.10162601626016,49.69512195121951 50.10162601626016,49.69512195121951 50.10162601626016,49.69512195121951 50.10162601626016,49.69512195121951 50.10162601626016,49.69512195121951 50.10162601626016,49.69512195121951 50.10162601626016,49.69512195121951 50.10162601626016,49.69512195121951 50.10162601626016,49.69512195121951 50.10162601626016,49.69512195121951 50.10162601626016,49.69512195121951 50.10162601626016,49.69512195121951 50.10162601626016,49.69512195121951 50.10162601626016,49.69512195121951 50.10162601626016,49.69512195121951 50.10162601626016,49.69512195121951 50.10162601626016,49.69512195121951 50.10162601626016,49.69512195121951 50.10162601626016,49.69512195121951 50.10162601626016,49.69512195121951 50.10162601626016,49.69512195121951 50.10162601626016,49.69512195121951 50.10162601626016,49.69512195121951 50.10162601626016,49.69512195121951 50.10162601626016,49.69512195121951 50.10162601626016,49.69512195121951 50.10162601626016,49.69512195121951 50.10162601626016,49.69512195121951 50.10162601626016,49.69512195121951 50.10162601626016,49.69512195121951 50.10162601626016,49.69512195121951 50.10162601626016,49.69512195121951 50.10162601626016,49.69512195121951 50.10162601626016,49.69512195121951 50.10162601626016,49.69512195121951 50.10162601626016,49.69512195121951 50.10162601626016,49.69512195121951 50.10162601626016,49.69512195121951 50.10162601626016,49.69512195121951 50.10162601626016,49.69512195121951 50.10162601626016,49.69512195121951 50.10162601626016,49.69512195121951 50.10162601626016,49.69512195121951 50.10162601626016,49.69512195121951" fill="none" stroke="black" stroke-width="0.6"></polyline><polyline points="50.10162601626016,49.69512195121951 50.10162601626016,49.69512195121951 50.10162601626016,49.69512195121951 50.10162601626016,49.69512195121951 50.10162601626016,49.69512195121951 50.10162601626016,49.69512195121951 50.10162601626016,49.69512195121951 50.10162601626016,49.69512195121951 50.10162601626016,49.69512195121951 50.10162601626016,49.69512195121951 50.10162601626016,49.69512195121951 50.10162601626016,49.69512195121951 50.10162601626016,49.64430894308943 50.15243902439024,49.59349593495935 50.15243902439024,49.49186991869919 50.15243902439024,49.4410569105691 50.15243902439024,49.33943089430894 50.15243902439024,49.23780487804878 50.15243902439024,49.136178861788615 50.15243902439024,49.03455284552845 50.203252032520325,48.88211382113821 50.203252032520325,48.78048780487805 50.203252032520325,48.6280487804878 50.203252032520325,48.52642276422764 50.203252032520325,48.3739837398374 50.203252032520325,48.27235772357724 50.203252032520325,48.11991869918699 50.203252032520325,48.01829268292683 50.203252032520325,47.916666666666664 50.203252032520325,47.8150406504065 50.15243902439024,47.66260162601626 50.10162601626016,47.61178861788618 50.05081300813008,47.510162601626014 50,47.40853658536585 49.949186991869915,47.357723577235774 49.89837398373984,47.25609756097561 49.84756097560975,47.20528455284553 49.796747967479675,47.103658536585364 49.69512195121951,47.052845528455286 49.59349593495935,47.0020325203252 49.542682926829265,46.951219512195124 49.4410569105691,46.951219512195124 49.33943089430894,46.90040650406504 49.1869918699187,46.84959349593496 49.08536585365854,46.84959349593496 48.93292682926829,46.798780487804876 48.78048780487805,46.798780487804876 48.6280487804878,46.798780487804876 48.47560975609756,46.7479674796748 48.27235772357724,46.7479674796748 48.11991869918699,46.7479674796748" fill="none" stroke="black" stroke-width="0.6"></polyline><polyline points="48.11991869918699,46.7479674796748 47.96747967479675,46.7479674796748 47.8150406504065,46.7479674796748 47.61178861788618,46.7479674796748 47.459349593495936,46.7479674796748 47.30691056910569,46.7479674796748 47.15447154471545,46.7479674796748 47.0020325203252,46.7479674796748 46.84959349593496,46.7479674796748 46.697154471544714,46.7479674796748 46.54471544715447,46.798780487804876 46.392276422764226,46.84959349593496 46.1890243902439,46.84959349593496 46.03658536585366,46.90040650406504 45.88414634146341,46.951219512195124 45.73170731707317,47.0020325203252 45.52845528455285,47.103658536585364 45.3760162601626,47.15447154471545 45.22357723577235,47.25609756097561 45.07113821138211,47.30691056910569 44.918699186991866,47.40853658536585 44.766260162601625,47.459349593495936 44.5630081300813,47.5609756097561 44.41056910569105,47.66260162601626 44.25813008130081,47.764227642276424 44.105691056910565,47.86585365853659 43.953252032520325,47.916666666666664 43.85162601626016,48.01829268292683 43.699186991869915,48.170731707317074 43.546747967479675,48.27235772357724 43.44512195121951,48.3739837398374 43.292682926829265,48.52642276422764 43.1910569105691,48.6280487804878 43.08943089430894,48.78048780487805 42.98780487804878,48.88211382113821 42.886178861788615,48.983739837398375 42.83536585365854,49.136178861788615 42.733739837398375,49.28861788617886 42.68292682926829,49.390243902439025 42.58130081300813,49.542682926829265 42.53048780487805,49.64430894308943 42.42886178861789,49.796747967479675 42.3780487804878,49.949186991869915 42.327235772357724,50.05081300813008 42.27642276422764,50.203252032520325 42.22560975609756,50.355691056910565 42.22560975609756,50.50813008130081 42.17479674796748,50.609756097560975 42.1239837398374,50.8130081300813 42.1239837398374,50.91463414634146 42.073170731707314,51.0670731707317" fill="none" stroke="black" stroke-width="0.6"></polyline><polyline points="42.073170731707314,51.0670731707317 42.073170731707314,51.21951219512195 42.073170731707314,51.37195121951219 42.02235772357724,51.52439024390244 42.02235772357724,51.67682926829268 42.02235772357724,51.829268292682926 42.02235772357724,51.981707317073166 42.02235772357724,52.13414634146341 42.073170731707314,52.235772357723576 42.1239837398374,52.38821138211382 42.17479674796748,52.540650406504064 42.22560975609756,52.69308943089431 42.327235772357724,52.84552845528455 42.3780487804878,52.9979674796748 42.479674796747965,53.15040650406504 42.58130081300813,53.302845528455286 42.68292682926829,53.45528455284553 42.78455284552845,53.607723577235774 42.886178861788615,53.760162601626014 43.03861788617886,53.91260162601626 43.140243902439025,54.014227642276424 43.292682926829265,54.11585365853659 43.44512195121951,54.26829268292683 43.64837398373984,54.36991869918699 43.80081300813008,54.52235772357724 44.0040650406504,54.67479674796748 44.20731707317073,54.77642276422764 44.46138211382114,54.92886178861789 44.66463414634146,55.03048780487805 44.86788617886179,55.13211382113821 45.07113821138211,55.233739837398375 45.27439024390244,55.33536585365854 45.47764227642276,55.4369918699187 45.68089430894309,55.48780487804878 45.88414634146341,55.53861788617886 46.08739837398374,55.58943089430894 46.34146341463415,55.640243902439025 46.59552845528455,55.640243902439025 46.798780487804876,55.640243902439025 47.052845528455286,55.6910569105691 47.30691056910569,55.6910569105691 47.5609756097561,55.6910569105691 47.8150406504065,55.6910569105691 48.06910569105691,55.6910569105691 48.3739837398374,55.640243902439025 48.6280487804878,55.58943089430894 48.88211382113821,55.58943089430894 49.136178861788615,55.53861788617886 49.390243902439025,55.48780487804878 49.64430894308943,55.4369918699187 49.89837398373984,55.386178861788615" fill="none" stroke="black" stroke-width="0.6"></polyline><polyline points="49.89837398373984,55.386178861788615 50.10162601626016,55.28455284552845 50.355691056910565,55.233739837398375 50.55894308943089,55.18292682926829 50.762195121951216,55.08130081300813 51.016260162601625,55.03048780487805 51.168699186991866,54.92886178861789 51.422764227642276,54.827235772357724 51.575203252032516,54.72560975609756 51.72764227642276,54.6239837398374 51.93089430894309,54.52235772357724 52.083333333333336,54.420731707317074 52.235772357723576,54.26829268292683 52.4390243902439,54.11585365853659 52.540650406504064,54.014227642276424 52.69308943089431,53.86178861788618 52.84552845528455,53.709349593495936 52.947154471544714,53.55691056910569 53.09959349593496,53.353658536585364 53.201219512195124,53.15040650406504 53.353658536585364,52.9979674796748 53.45528455284553,52.79471544715447 53.55691056910569,52.59146341463415 53.65853658536585,52.4390243902439 53.760162601626014,52.235772357723576 53.91260162601626,52.03252032520325 54.014227642276424,51.829268292682926 54.11585365853659,51.6260162601626 54.21747967479675,51.422764227642276 54.26829268292683,51.21951219512195 54.36991869918699,51.016260162601625 54.420731707317074,50.8130081300813 54.47154471544715,50.609756097560975 54.52235772357724,50.40650406504065 54.573170731707314,50.203252032520325 54.6239837398374,50 54.67479674796748,49.796747967479675 54.67479674796748,49.59349593495935 54.72560975609756,49.4410569105691 54.72560975609756,49.23780487804878 54.77642276422764,49.03455284552845 54.77642276422764,48.83130081300813 54.827235772357724,48.6280487804878 54.827235772357724,48.42479674796748 54.827235772357724,48.22154471544715 54.827235772357724,48.01829268292683 54.827235772357724,47.764227642276424 54.827235772357724,47.5609756097561 54.827235772357724,47.357723577235774 54.827235772357724,47.15447154471545 54.827235772357724,46.951219512195124" fill="none" stroke="black" stroke-width="0.6"></polyline><polyline points="54.827235772357724,46.951219512195124 54.77642276422764,46.7479674796748 54.72560975609756,46.54471544715447 54.67479674796748,46.34146341463415 54.6239837398374,46.08739837398374 54.52235772357724,45.88414634146341 54.420731707317074,45.73170731707317 54.31910569105691,45.52845528455285 54.21747967479675,45.325203252032516 54.11585365853659,45.172764227642276 54.014227642276424,45.02032520325203 53.86178861788618,44.8170731707317 53.760162601626014,44.66463414634146 53.607723577235774,44.512195121951216 53.40447154471545,44.30894308943089 53.302845528455286,44.15650406504065 53.09959349593496,44.0040650406504 52.896341463414636,43.85162601626016 52.74390243902439,43.75 52.540650406504064,43.64837398373984 52.33739837398374,43.546747967479675 52.083333333333336,43.44512195121951 51.880081300813,43.34349593495935 51.67682926829268,43.24186991869919 51.422764227642276,43.1910569105691 51.168699186991866,43.08943089430894 50.91463414634146,43.03861788617886 50.66056910569105,42.98780487804878 50.355691056910565,42.9369918699187 50.10162601626016,42.9369918699187 49.84756097560975,42.886178861788615 49.542682926829265,42.886178861788615 49.28861788617886,42.83536585365854 49.03455284552845,42.83536585365854 48.67886178861789,42.83536585365854 48.42479674796748,42.83536585365854 48.11991869918699,42.78455284552845 47.764227642276424,42.78455284552845 47.510162601626014,42.78455284552845 47.20528455284553,42.78455284552845 46.84959349593496,42.78455284552845 46.54471544715447,42.83536585365854 46.239837398373986,42.886178861788615 45.88414634146341,42.9369918699187 45.579268292682926,42.98780487804878 45.22357723577235,43.03861788617886 44.86788617886179,43.08943089430894 44.512195121951216,43.1910569105691 44.20731707317073,43.292682926829265 43.80081300813008,43.34349593495935 43.49593495934959,43.44512195121951" fill="none" stroke="black" stroke-width="0.6"></polyline><polyline points="43.49593495934959,43.44512195121951 43.1910569105691,43.546747967479675 42.83536585365854,43.699186991869915 42.53048780487805,43.80081300813008 42.22560975609756,43.90243902439024 41.920731707317074,44.0040650406504 41.666666666666664,44.15650406504065 41.36178861788618,44.30894308943089 41.05691056910569,44.46138211382114 40.853658536585364,44.5630081300813 40.59959349593496,44.71544715447154 40.396341463414636,44.86788617886179 40.142276422764226,45.02032520325203 39.9390243902439,45.172764227642276 39.6849593495935,45.3760162601626 39.53252032520325,45.52845528455285 39.329268292682926,45.68089430894309 39.1260162601626,45.833333333333336 38.922764227642276,46.03658536585366 38.71951219512195,46.239837398373986 38.516260162601625,46.44308943089431 38.36382113821138,46.646341463414636 38.16056910569105,46.84959349593496 38.00813008130081,47.052845528455286 37.80487804878049,47.30691056910569 37.65243902439024,47.510162601626014 37.5,47.71341463414634 37.39837398373984,47.916666666666664 37.296747967479675,48.11991869918699 37.14430894308943,48.3739837398374 37.09349593495935,48.577235772357724 36.99186991869919,48.83130081300813 36.890243902439025,49.03455284552845 36.83943089430894,49.28861788617886 36.73780487804878,49.49186991869919 36.636178861788615,49.74593495934959 36.58536585365854,50 36.483739837398375,50.2540650406504 36.43292682926829,50.50813008130081 36.33130081300813,50.762195121951216 36.28048780487805,51.0670731707317 36.229674796747965,51.37195121951219 36.17886178861789,51.6260162601626 36.1280487804878,51.93089430894309 36.1280487804878,52.1849593495935 36.1280487804878,52.4390243902439 36.1280487804878,52.74390243902439 36.1280487804878,53.048780487804876 36.1280487804878,53.302845528455286 36.17886178861789,53.607723577235774 36.229674796747965,53.86178861788618" fill="none" stroke="black" stroke-width="0.6"></polyline><polyline points="36.229674796747965,53.86178861788618 36.28048780487805,54.0650406504065 36.38211382113821,54.36991869918699 36.43292682926829,54.573170731707314 36.53455284552845,54.827235772357724 36.636178861788615,55.08130081300813 36.6869918699187,55.33536585365854 36.78861788617886,55.58943089430894 36.890243902439025,55.89430894308943 37.042682926829265,56.09756097560975 37.14430894308943,56.35162601626016 37.296747967479675,56.55487804878049 37.449186991869915,56.80894308943089 37.60162601626016,57.012195121951216 37.80487804878049,57.266260162601625 37.95731707317073,57.46951219512195 38.16056910569105,57.72357723577235 38.36382113821138,57.97764227642276 38.61788617886179,58.18089430894309 38.87195121951219,58.38414634146341 39.1260162601626,58.58739837398374 39.38008130081301,58.790650406504064 39.63414634146341,58.99390243902439 39.989837398373986,59.146341463414636 40.29471544715447,59.298780487804876 40.59959349593496,59.451219512195124 40.95528455284553,59.603658536585364 41.260162601626014,59.70528455284553 41.5650406504065,59.80691056910569 41.920731707317074,59.90853658536585 42.27642276422764,59.959349593495936 42.63211382113821,60.010162601626014 42.98780487804878,60.0609756097561 43.34349593495935,60.11178861788618 43.75,60.16260162601626 44.105691056910565,60.16260162601626 44.512195121951216,60.16260162601626 44.86788617886179,60.16260162601626 45.27439024390244,60.16260162601626 45.68089430894309,60.16260162601626 46.08739837398374,60.16260162601626 46.49390243902439,60.16260162601626 46.951219512195124,60.11178861788618 47.357723577235774,60.0609756097561 47.8150406504065,60.010162601626014 48.170731707317074,59.90853658536585 48.6280487804878,59.80691056910569 49.03455284552845,59.70528455284553 49.4410569105691,59.603658536585364 49.796747967479675,59.451219512195124 50.15243902439024,59.298780487804876" fill="none" stroke="black" stroke-width="0.6"></polyline><polyline points="50.15243902439024,59.298780487804876 50.50813008130081,59.197154471544714 50.86382113821138,59.04471544715447 51.21951219512195,58.892276422764226 51.52439024390244,58.790650406504064 51.880081300813,58.63821138211382 52.235772357723576,58.485772357723576 52.540650406504064,58.33333333333333 52.79471544715447,58.130081300813 53.09959349593496,57.97764227642276 53.353658536585364,57.77439024390244 53.607723577235774,57.62195121951219 53.86178861788618,57.418699186991866 54.11585365853659,57.16463414634146 54.36991869918699,56.96138211382114 54.573170731707314,56.75813008130081 54.77642276422764,56.55487804878049 55.03048780487805,56.35162601626016 55.233739837398375,56.14837398373984 55.4369918699187,55.94512195121951 55.6910569105691,55.6910569105691 55.84349593495935,55.4369918699187 56.046747967479675,55.18292682926829 56.25,54.8780487804878 56.40243902439024,54.6239837398374 56.5040650406504,54.420731707317074 56.65650406504065,54.11585365853659 56.80894308943089,53.91260162601626 56.91056910569105,53.65853658536585 57.012195121951216,53.353658536585364 57.11382113821138,53.09959349593496 57.266260162601625,52.79471544715447 57.36788617886179,52.489837398373986 57.52032520325203,52.235772357723576 57.672764227642276,51.981707317073166 57.77439024390244,51.67682926829268 57.92682926829268,51.422764227642276 58.02845528455284,51.11788617886179 58.130081300813,50.8130081300813 58.28252032520325,50.50813008130081 58.38414634146341,50.2540650406504 58.485772357723576,49.89837398373984 58.58739837398374,49.64430894308943 58.6890243902439,49.390243902439025 58.739837398373986,49.08536585365854 58.84146341463415,48.78048780487805 58.892276422764226,48.52642276422764 58.94308943089431,48.22154471544715 58.99390243902439,47.916666666666664 58.99390243902439,47.66260162601626 58.99390243902439,47.40853658536585" fill="none" stroke="black" stroke-width="0.6"></polyline><polyline points="58.99390243902439,47.40853658536585 58.99390243902439,47.15447154471545 58.99390243902439,46.90040650406504 58.99390243902439,46.59552845528455 58.94308943089431,46.34146341463415 58.892276422764226,46.08739837398374 58.84146341463415,45.833333333333336 58.739837398373986,45.579268292682926 58.63821138211382,45.3760162601626 58.536585365853654,45.12195121951219 58.43495934959349,44.918699186991866 58.33333333333333,44.71544715447154 58.18089430894309,44.46138211382114 58.02845528455284,44.25813008130081 57.8760162601626,44.0040650406504 57.672764227642276,43.75 57.46951219512195,43.546747967479675 57.21544715447154,43.34349593495935 56.96138211382114,43.140243902439025 56.75813008130081,42.98780487804878 56.453252032520325,42.83536585365854 56.199186991869915,42.63211382113821 55.89430894308943,42.479674796747965 55.58943089430894,42.327235772357724 55.28455284552845,42.17479674796748 54.92886178861789,42.02235772357724 54.573170731707314,41.86991869918699 54.21747967479675,41.71747967479675 53.86178861788618,41.61585365853659 53.50609756097561,41.514227642276424 53.15040650406504,41.36178861788618 52.79471544715447,41.260162601626014 52.38821138211382,41.15853658536585 51.981707317073166,41.05691056910569 51.6260162601626,41.00609756097561 51.168699186991866,40.90447154471545 50.8130081300813,40.802845528455286 50.40650406504065,40.7520325203252 50,40.65040650406504 49.59349593495935,40.548780487804876 49.23780487804878,40.4979674796748 48.78048780487805,40.447154471544714 48.3739837398374,40.396341463414636 47.96747967479675,40.34552845528455 47.510162601626014,40.29471544715447 47.15447154471545,40.29471544715447 46.7479674796748,40.24390243902439 46.34146341463415,40.24390243902439 45.9349593495935,40.24390243902439 45.52845528455285,40.24390243902439 45.07113821138211,40.24390243902439" fill="none" stroke="black" stroke-width="0.6"></polyline><polyline points="45.07113821138211,40.24390243902439 44.66463414634146,40.24390243902439 44.25813008130081,40.29471544715447 43.85162601626016,40.34552845528455 43.44512195121951,40.34552845528455 43.08943089430894,40.447154471544714 42.68292682926829,40.4979674796748 42.327235772357724,40.548780487804876 41.97154471544715,40.65040650406504 41.61585365853659,40.701219512195124 41.3109756097561,40.802845528455286 41.00609756097561,40.853658536585364 40.701219512195124,40.95528455284553 40.396341463414636,41.05691056910569 40.142276422764226,41.107723577235774 39.78658536585366,41.260162601626014 39.53252032520325,41.36178861788618 39.22764227642276,41.46341463414634 38.87195121951219,41.61585365853659 38.61788617886179,41.76829268292683 38.3130081300813,41.97154471544715 37.95731707317073,42.1239837398374 37.65243902439024,42.327235772357724 37.34756097560975,42.53048780487805 37.042682926829265,42.733739837398375 36.78861788617886,42.886178861788615 36.483739837398375,43.08943089430894 36.229674796747965,43.292682926829265 35.92479674796748,43.49593495934959 35.670731707317074,43.64837398373984 35.416666666666664,43.85162601626016 35.16260162601626,44.05487804878049 34.90853658536585,44.30894308943089 34.70528455284553,44.5630081300813 34.451219512195124,44.766260162601625 34.2479674796748,44.96951219512195 34.04471544715447,45.22357723577235 33.790650406504064,45.42682926829268 33.58739837398374,45.68089430894309 33.38414634146341,45.9349593495935 33.13008130081301,46.1890243902439 32.926829268292686,46.49390243902439 32.72357723577236,46.798780487804876 32.52032520325203,47.103658536585364 32.3170731707317,47.357723577235774 32.11382113821138,47.66260162601626 31.910569105691057,47.96747967479675 31.70731707317073,48.27235772357724 31.504065040650406,48.577235772357724 31.351626016260163,48.88211382113821 31.19918699186992,49.1869918699187" fill="none" stroke="black" stroke-width="0.6"></polyline><polyline points="31.19918699186992,49.1869918699187 31.097560975609756,49.4410569105691 30.995934959349594,49.74593495934959 30.89430894308943,50 30.84349593495935,50.30487804878049 30.741869918699187,50.55894308943089 30.691056910569106,50.91463414634146 30.640243902439025,51.21951219512195 30.589430894308943,51.52439024390244 30.538617886178862,51.880081300813 30.48780487804878,52.13414634146341 30.48780487804878,52.4390243902439 30.48780487804878,52.74390243902439 30.48780487804878,53.048780487804876 30.48780487804878,53.353658536585364 30.538617886178862,53.709349593495936 30.589430894308943,54.014227642276424 30.640243902439025,54.31910569105691 30.691056910569106,54.6239837398374 30.79268292682927,54.92886178861789 30.84349593495935,55.28455284552845 30.995934959349594,55.640243902439025 31.097560975609756,55.94512195121951 31.25,56.25 31.402439024390244,56.605691056910565 31.554878048780488,56.91056910569105 31.758130081300813,57.21544715447154 31.961382113821138,57.57113821138211 32.16463414634146,57.8760162601626 32.418699186991866,58.130081300813 32.672764227642276,58.43495934959349 32.8760162601626,58.739837398373986 33.13008130081301,58.99390243902439 33.4349593495935,59.2479674796748 33.739837398373986,59.552845528455286 33.99390243902439,59.80691056910569 34.34959349593496,60.0609756097561 34.65447154471545,60.264227642276424 34.959349593495936,60.51829268292683 35.3150406504065,60.72154471544715 35.61991869918699,60.97560975609756 35.97560975609756,61.17886178861789 36.38211382113821,61.38211382113821 36.73780487804878,61.58536585365854 37.09349593495935,61.78861788617886 37.55081300813008,61.99186991869919 37.95731707317073,62.14430894308943 38.36382113821138,62.296747967479675 38.82113821138211,62.449186991869915 39.22764227642276,62.55081300813008 39.6849593495935,62.60162601626016" fill="none" stroke="black" stroke-width="0.6"></polyline><polyline points="39.6849593495935,62.60162601626016 40.142276422764226,62.703252032520325 40.59959349593496,62.7540650406504 41.107723577235774,62.80487804878049 41.5650406504065,62.80487804878049 42.02235772357724,62.855691056910565 42.479674796747965,62.855691056910565 42.98780487804878,62.90650406504065 43.44512195121951,62.90650406504065 43.90243902439024,62.90650406504065 44.41056910569105,62.90650406504065 44.86788617886179,62.855691056910565 45.3760162601626,62.855691056910565 45.833333333333336,62.7540650406504 46.290650406504064,62.703252032520325 46.798780487804876,62.65243902439024 47.30691056910569,62.55081300813008 47.71341463414634,62.449186991869915 48.170731707317074,62.34756097560975 48.67886178861789,62.24593495934959 49.08536585365854,62.14430894308943 49.542682926829265,62.042682926829265 49.949186991869915,61.890243902439025 50.40650406504065,61.73780487804878 50.86382113821138,61.58536585365854 51.27032520325203,61.38211382113821 51.72764227642276,61.17886178861789 52.13414634146341,60.97560975609756 52.540650406504064,60.77235772357724 52.947154471544714,60.56910569105691 53.40447154471545,60.36585365853659 53.760162601626014,60.16260162601626 54.166666666666664,59.90853658536585 54.573170731707314,59.65447154471545 54.92886178861789,59.40040650406504 55.28455284552845,59.146341463414636 55.6910569105691,58.84146341463415 56.046747967479675,58.58739837398374 56.40243902439024,58.28252032520325 56.75813008130081,57.97764227642276 57.0630081300813,57.672764227642276 57.36788617886179,57.36788617886179 57.72357723577235,57.012195121951216 58.02845528455284,56.70731707317073 58.33333333333333,56.40243902439024 58.63821138211382,56.046747967479675 58.94308943089431,55.74186991869919 59.197154471544714,55.4369918699187 59.5020325203252,55.08130081300813 59.75609756097561,54.72560975609756 60.010162601626014,54.420731707317074" fill="none" stroke="black" stroke-width="0.6"></polyline><polyline points="60.010162601626014,54.420731707317074 60.3150406504065,54.0650406504065 60.56910569105691,53.709349593495936 60.77235772357724,53.40447154471545 60.97560975609756,53.048780487804876 61.17886178861789,52.69308943089431 61.38211382113821,52.33739837398374 61.53455284552845,51.981707317073166 61.6869918699187,51.67682926829268 61.83943089430894,51.37195121951219 61.9410569105691,51.016260162601625 62.042682926829265,50.71138211382114 62.14430894308943,50.355691056910565 62.19512195121951,49.949186991869915 62.296747967479675,49.59349593495935 62.296747967479675,49.23780487804878 62.34756097560975,48.88211382113821 62.39837398373984,48.52642276422764 62.39837398373984,48.11991869918699 62.39837398373984,47.764227642276424 62.39837398373984,47.40853658536585 62.34756097560975,47.103658536585364 62.296747967479675,46.7479674796748 62.24593495934959,46.44308943089431 62.14430894308943,46.08739837398374 61.99186991869919,45.78252032520325 61.83943089430894,45.47764227642276 61.636178861788615,45.172764227642276 61.38211382113821,44.86788617886179 61.17886178861789,44.61382113821138 60.92479674796748,44.30894308943089 60.670731707317074,44.0040650406504 60.416666666666664,43.75 60.11178861788618,43.44512195121951 59.80691056910569,43.1910569105691 59.552845528455286,42.9369918699187 59.2479674796748,42.68292682926829 58.892276422764226,42.42886178861789 58.58739837398374,42.17479674796748 58.231707317073166,41.86991869918699 57.8760162601626,41.61585365853659 57.52032520325203,41.36178861788618 57.11382113821138,41.107723577235774 56.75813008130081,40.90447154471545 56.40243902439024,40.701219512195124 55.94512195121951,40.447154471544714 55.58943089430894,40.24390243902439 55.18292682926829,40.09146341463415 54.77642276422764,39.83739837398374 54.36991869918699,39.6849593495935 53.96341463414634,39.48170731707317" fill="none" stroke="black" stroke-width="0.6"></polyline><polyline points="53.96341463414634,39.48170731707317 53.50609756097561,39.27845528455285 53.09959349593496,39.1260162601626 52.642276422764226,38.97357723577235 52.1849593495935,38.82113821138211 51.77845528455284,38.668699186991866 51.32113821138211,38.5670731707317 50.8130081300813,38.46544715447154 50.40650406504065,38.36382113821138 49.949186991869915,38.262195121951216 49.4410569105691,38.21138211382114 48.983739837398375,38.109756097560975 48.52642276422764,38.05894308943089 48.01829268292683,38.00813008130081 47.5609756097561,37.95731707317073 47.103658536585364,37.90650406504065 46.59552845528455,37.855691056910565 46.13821138211382,37.855691056910565 45.63008130081301,37.855691056910565 45.12195121951219,37.855691056910565 44.66463414634146,37.855691056910565 44.15650406504065,37.90650406504065 43.64837398373984,37.95731707317073 43.24186991869919,37.95731707317073 42.78455284552845,38.00813008130081 42.327235772357724,38.05894308943089 41.86991869918699,38.109756097560975 41.41260162601626,38.21138211382114 40.90447154471545,38.3130081300813 40.447154471544714,38.46544715447154 39.9390243902439,38.5670731707317 39.48170731707317,38.71951219512195 39.02439024390244,38.87195121951219 38.61788617886179,39.02439024390244 38.16056910569105,39.22764227642276 37.703252032520325,39.38008130081301 37.24593495934959,39.583333333333336 36.78861788617886,39.83739837398374 36.33130081300813,40.040650406504064 35.92479674796748,40.29471544715447 35.51829268292683,40.4979674796748 35.16260162601626,40.7520325203252 34.80691056910569,40.95528455284553 34.40040650406504,41.209349593495936 34.09552845528455,41.41260162601626 33.739837398373986,41.666666666666664 33.4349593495935,41.920731707317074 33.13008130081301,42.17479674796748 32.82520325203252,42.479674796747965 32.52032520325203,42.733739837398375 32.266260162601625,42.98780487804878" fill="none" stroke="black" stroke-width="0.6"></polyline><polyline points="32.266260162601625,42.98780487804878 31.961382113821138,43.292682926829265 31.70731707317073,43.546747967479675 31.453252032520325,43.85162601626016 31.19918699186992,44.105691056910565 30.995934959349594,44.41056910569105 30.79268292682927,44.66463414634146 30.640243902439025,44.96951219512195 30.48780487804878,45.22357723577235 30.335365853658537,45.47764227642276 30.132113821138212,45.73170731707317 30.03048780487805,45.985772357723576 29.878048780487806,46.239837398373986 29.725609756097562,46.54471544715447 29.6239837398374,46.84959349593496 29.522357723577237,47.103658536585364 29.369918699186993,47.40853658536585 29.31910569105691,47.66260162601626 29.217479674796746,47.916666666666664 29.115853658536583,48.22154471544715 29.0650406504065,48.47560975609756 29.01422764227642,48.78048780487805 28.912601626016258,49.08536585365854 28.861788617886177,49.33943089430894 28.810975609756095,49.59349593495935 28.760162601626014,49.84756097560975 28.709349593495933,50.10162601626016 28.65853658536585,50.355691056910565 28.60772357723577,50.66056910569105 28.60772357723577,50.96544715447154 28.55691056910569,51.21951219512195 28.55691056910569,51.47357723577235 28.55691056910569,51.72764227642276 28.506097560975608,52.03252032520325 28.506097560975608,52.28658536585366 28.506097560975608,52.540650406504064 28.506097560975608,52.84552845528455 28.506097560975608,53.15040650406504 28.506097560975608,53.45528455284553 28.506097560975608,53.709349593495936 28.55691056910569,54.014227642276424 28.60772357723577,54.26829268292683 28.65853658536585,54.573170731707314 28.709349593495933,54.8780487804878 28.760162601626014,55.13211382113821 28.861788617886177,55.4369918699187 28.912601626016258,55.74186991869919 29.01422764227642,56.046747967479675 29.0650406504065,56.35162601626016 29.166666666666664,56.65650406504065 29.268292682926827,56.96138211382114" fill="none" stroke="black" stroke-width="0.6"></polyline><polyline points="29.268292682926827,56.96138211382114 29.420731707317074,57.266260162601625 29.522357723577237,57.57113821138211 29.6239837398374,57.8760162601626 29.776422764227643,58.130081300813 29.928861788617887,58.43495934959349 30.03048780487805,58.6890243902439 30.182926829268293,58.94308943089431 30.335365853658537,59.2479674796748 30.48780487804878,59.5020325203252 30.640243902439025,59.80691056910569 30.84349593495935,60.11178861788618 30.995934959349594,60.36585365853659 31.19918699186992,60.670731707317074 31.402439024390244,60.92479674796748 31.554878048780488,61.1280487804878 31.758130081300813,61.38211382113821 31.961382113821138,61.636178861788615 32.16463414634146,61.890243902439025 32.36788617886179,62.09349593495935 32.6219512195122,62.34756097560975 32.8760162601626,62.5 33.13008130081301,62.703252032520325 33.38414634146341,62.90650406504065 33.63821138211382,63.05894308943089 33.94308943089431,63.21138211382114 34.2479674796748,63.36382113821138 34.5020325203252,63.516260162601625 34.857723577235774,63.668699186991866 35.11178861788618,63.82113821138211 35.416666666666664,63.97357723577235 35.77235772357724,64.1260162601626 36.077235772357724,64.22764227642276 36.38211382113821,64.380081300813 36.73780487804878,64.48170731707317 37.042682926829265,64.58333333333333 37.39837398373984,64.6849593495935 37.7540650406504,64.78658536585365 38.16056910569105,64.88821138211382 38.516260162601625,64.9390243902439 38.97357723577235,65.04065040650406 39.38008130081301,65.09146341463415 39.78658536585366,65.14227642276423 40.24390243902439,65.14227642276423 40.65040650406504,65.1930894308943 41.107723577235774,65.1930894308943 41.5650406504065,65.1930894308943 41.97154471544715,65.1930894308943 42.42886178861789,65.1930894308943 42.9369918699187,65.1930894308943 43.39430894308943,65.14227642276423" fill="none" stroke="black" stroke-width="0.6"></polyline><polyline points="43.39430894308943,65.14227642276423 43.85162601626016,65.14227642276423 44.359756097560975,65.09146341463415 44.8170731707317,65.04065040650406 45.27439024390244,64.98983739837398 45.78252032520325,64.88821138211382 46.239837398373986,64.83739837398373 46.7479674796748,64.73577235772358 47.30691056910569,64.6341463414634 47.764227642276424,64.48170731707317 48.27235772357724,64.380081300813 48.83130081300813,64.22764227642276 49.33943089430894,64.07520325203252 49.89837398373984,63.87195121951219 50.45731707317073,63.668699186991866 50.96544715447154,63.46544715447154 51.52439024390244,63.3130081300813 52.083333333333336,63.109756097560975 52.59146341463415,62.90650406504065 53.09959349593496,62.65243902439024 53.65853658536585,62.449186991869915 54.166666666666664,62.19512195121951 54.72560975609756,61.9410569105691 55.28455284552845,61.636178861788615 55.84349593495935,61.38211382113821 56.35162601626016,61.1280487804878 56.91056910569105,60.823170731707314 57.418699186991866,60.56910569105691 57.97764227642276,60.3150406504065 58.536585365853654,60.0609756097561 59.04471544715447,59.75609756097561 59.552845528455286,59.5020325203252 60.11178861788618,59.197154471544714 60.61991869918699,58.892276422764226 61.077235772357724,58.63821138211382 61.53455284552845,58.38414634146341 61.99186991869919,58.079268292682926 62.449186991869915,57.825203252032516 62.95731707317073,57.52032520325203 63.41463414634146,57.21544715447154 63.87195121951219,56.96138211382114 64.380081300813,56.65650406504065 64.83739837398373,56.40243902439024 65.29471544715447,56.09756097560975 65.70121951219512,55.84349593495935 66.10772357723577,55.640243902439025 66.5650406504065,55.33536585365854 66.92073170731707,55.08130081300813 67.32723577235772,54.827235772357724 67.73373983739837,54.573170731707314 68.08943089430895,54.31910569105691" fill="none" stroke="black" stroke-width="0.6"></polyline><polyline points="68.08943089430895,54.31910569105691 68.4451219512195,54.0650406504065 68.85162601626016,53.8109756097561 69.15650406504065,53.607723577235774 69.51219512195122,53.353658536585364 69.86788617886178,53.09959349593496 70.17276422764228,52.84552845528455 70.52845528455285,52.59146341463415 70.8841463414634,52.33739837398374 71.1890243902439,52.13414634146341 71.49390243902438,51.880081300813 71.79878048780488,51.67682926829268 72.05284552845528,51.47357723577235 72.3069105691057,51.21951219512195 72.5609756097561,51.016260162601625 72.8150406504065,50.8130081300813 73.0691056910569,50.609756097560975 73.32317073170732,50.40650406504065 73.52642276422765,50.2540650406504 73.78048780487805,50.05081300813008 74.03455284552845,49.89837398373984 74.1869918699187,49.796747967479675 74.39024390243902,49.69512195121951 74.59349593495935,49.59349593495935 74.7459349593496,49.542682926829265 74.94918699186992,49.49186991869919 75.15243902439025,49.49186991869919 75.35569105691057,49.4410569105691" fill="none" stroke="black" stroke-width="0.6"></polyline><polyline points="74.33943089430895,50.45731707317073 74.39024390243902,50.40650406504065 74.39024390243902,50.355691056910565 74.4410569105691,50.30487804878049 74.4410569105691,50.2540650406504 74.49186991869918,50.203252032520325 74.49186991869918,50.15243902439024 74.54268292682927,50.15243902439024 74.59349593495935,50.10162601626016 74.59349593495935,50.10162601626016 74.64430894308943,50.05081300813008 74.64430894308943,50.05081300813008 74.64430894308943,50.05081300813008 74.6951219512195,50 74.6951219512195,50 74.6951219512195,50 74.6951219512195,50 74.6951219512195,49.949186991869915 74.6951219512195,49.949186991869915 74.7459349593496,49.949186991869915 74.79674796747967,49.949186991869915 74.84756097560975,49.89837398373984 74.94918699186992,49.89837398373984 75.10162601626016,49.84756097560975 75.2540650406504,49.84756097560975 75.5081300813008,49.796747967479675 75.8130081300813,49.74593495934959 76.16869918699187,49.74593495934959 76.3719512195122,49.69512195121951" fill="none" stroke="black" stroke-width="0.6"></polyline></svg>