<svg height="100" width="100" preserveAspectRatio="xMidYMid meet"><polyline points="49.74593495934959,51.016260162601625 49.74593495934959,51.016260162601625 49.74593495934959,50.91463414634146 49.69512195121951,50.91463414634146 49.69512195121951,50.86382113821138 49.69512195121951,50.8130081300813 49.69512195121951,50.762195121951216 49.69512195121951,50.762195121951216 49.69512195121951,50.71138211382114 49.69512195121951,50.71138211382114 49.69512195121951,50.71138211382114 49.69512195121951,50.66056910569105 49.69512195121951,50.66056910569105 49.64430894308943,50.609756097560975 49.64430894308943,50.609756097560975 49.64430894308943,50.55894308943089 49.59349593495935,50.50813008130081 49.59349593495935,50.45731707317073 49.59349593495935,50.40650406504065 49.542682926829265,50.355691056910565 49.542682926829265,50.30487804878049 49.49186991869919,50.203252032520325 49.49186991869919,50.15243902439024 49.4410569105691,50.05081300813008 49.4410569105691,49.949186991869915 49.4410569105691,49.84756097560975 49.390243902439025,49.74593495934959 49.390243902439025,49.64430894308943 49.390243902439025,49.542682926829265 49.390243902439025,49.4410569105691 49.33943089430894,49.28861788617886 49.33943089430894,49.1869918699187 49.33943089430894,49.08536585365854 49.28861788617886,48.983739837398375 49.28861788617886,48.88211382113821 49.23780487804878,48.78048780487805 49.1869918699187,48.67886178861789 49.136178861788615,48.6280487804878 49.08536585365854,48.52642276422764 48.983739837398375,48.47560975609756 48.93292682926829,48.42479674796748 48.83130081300813,48.3739837398374 48.729674796747965,48.323170731707314 48.6280487804878,48.27235772357724 48.52642276422764,48.22154471544715 48.42479674796748,48.22154471544715 48.323170731707314,48.170731707317074 48.22154471544715,48.170731707317074 48.06910569105691,48.11991869918699 47.96747967479675,48.11991869918699 47.86585365853659,48.11991869918699" fill="none" stroke="black" stroke-width="0.6"></polyline><polyline points="47.86585365853659,48.11991869918699 47.764227642276424,48.11991869918699 47.66260162601626,48.11991869918699 47.510162601626014,48.11991869918699 47.40853658536585,48.11991869918699 47.30691056910569,48.170731707317074 47.20528455284553,48.22154471544715 47.103658536585364,48.323170731707314 47.0020325203252,48.3739837398374 46.84959349593496,48.47560975609756 46.798780487804876,48.577235772357724 46.697154471544714,48.67886178861789 46.59552845528455,48.78048780487805 46.54471544715447,48.88211382113821 46.49390243902439,48.983739837398375 46.44308943089431,49.136178861788615 46.392276422764226,49.23780487804878 46.34146341463415,49.390243902439025 46.290650406504064,49.542682926829265 46.239837398373986,49.69512195121951 46.1890243902439,49.89837398373984 46.1890243902439,50.05081300813008 46.13821138211382,50.2540650406504 46.13821138211382,50.45731707317073 46.13821138211382,50.609756097560975 46.13821138211382,50.8130081300813 46.13821138211382,50.96544715447154 46.13821138211382,51.11788617886179 46.1890243902439,51.27032520325203 46.1890243902439,51.47357723577235 46.239837398373986,51.575203252032516 46.290650406504064,51.72764227642276 46.34146341463415,51.93089430894309 46.392276422764226,52.083333333333336 46.49390243902439,52.1849593495935 46.54471544715447,52.38821138211382 46.59552845528455,52.489837398373986 46.646341463414636,52.642276422764226 46.7479674796748,52.79471544715447 46.798780487804876,52.896341463414636 46.90040650406504,52.9979674796748 47.0020325203252,53.09959349593496 47.052845528455286,53.201219512195124 47.15447154471545,53.2520325203252 47.30691056910569,53.353658536585364 47.40853658536585,53.40447154471545 47.510162601626014,53.45528455284553 47.66260162601626,53.55691056910569 47.764227642276424,53.607723577235774 47.916666666666664,53.65853658536585 48.01829268292683,53.760162601626014" fill="none" stroke="black" stroke-width="0.6"></polyline><polyline points="48.01829268292683,53.760162601626014 48.170731707317074,53.8109756097561 48.27235772357724,53.86178861788618 48.42479674796748,53.96341463414634 48.577235772357724,54.014227642276424 48.67886178861789,54.0650406504065 48.83130081300813,54.11585365853659 48.983739837398375,54.166666666666664 49.08536585365854,54.21747967479675 49.28861788617886,54.26829268292683 49.390243902439025,54.31910569105691 49.542682926829265,54.31910569105691 49.69512195121951,54.36991869918699 49.84756097560975,54.420731707317074 50,54.47154471544715 50.15243902439024,54.52235772357724 50.30487804878049,54.52235772357724 50.45731707317073,54.573170731707314 50.609756097560975,54.573170731707314 50.71138211382114,54.573170731707314 50.86382113821138,54.6239837398374 51.016260162601625,54.6239837398374 51.11788617886179,54.6239837398374 51.27032520325203,54.6239837398374 51.422764227642276,54.6239837398374 51.52439024390244,54.6239837398374 51.6260162601626,54.6239837398374 51.77845528455284,54.573170731707314 51.880081300813,54.52235772357724 52.03252032520325,54.52235772357724 52.1849593495935,54.47154471544715 52.28658536585366,54.420731707317074 52.4390243902439,54.36991869918699 52.540650406504064,54.31910569105691 52.642276422764226,54.26829268292683 52.79471544715447,54.21747967479675 52.947154471544714,54.166666666666664 53.048780487804876,54.0650406504065 53.201219512195124,54.014227642276424 53.302845528455286,53.91260162601626 53.45528455284553,53.86178861788618 53.607723577235774,53.760162601626014 53.709349593495936,53.65853658536585 53.86178861788618,53.55691056910569 53.96341463414634,53.40447154471545 54.11585365853659,53.302845528455286 54.21747967479675,53.201219512195124 54.31910569105691,53.09959349593496 54.420731707317074,52.9979674796748 54.52235772357724,52.896341463414636 54.6239837398374,52.79471544715447" fill="none" stroke="black" stroke-width="0.6"></polyline><polyline points="54.6239837398374,52.79471544715447 54.67479674796748,52.69308943089431 54.77642276422764,52.59146341463415 54.8780487804878,52.489837398373986 54.92886178861789,52.38821138211382 54.979674796747965,52.28658536585366 55.03048780487805,52.1849593495935 55.08130081300813,52.083333333333336 55.13211382113821,52.03252032520325 55.18292682926829,51.880081300813 55.233739837398375,51.77845528455284 55.28455284552845,51.67682926829268 55.386178861788615,51.52439024390244 55.4369918699187,51.422764227642276 55.48780487804878,51.27032520325203 55.58943089430894,51.168699186991866 55.640243902439025,51.016260162601625 55.6910569105691,50.86382113821138 55.74186991869919,50.762195121951216 55.792682926829265,50.609756097560975 55.84349593495935,50.45731707317073 55.89430894308943,50.355691056910565 55.89430894308943,50.203252032520325 55.94512195121951,50.05081300813008 55.94512195121951,49.89837398373984 55.99593495934959,49.69512195121951 55.99593495934959,49.542682926829265 56.046747967479675,49.33943089430894 56.046747967479675,49.1869918699187 56.09756097560975,49.03455284552845 56.09756097560975,48.83130081300813 56.14837398373984,48.67886178861789 56.14837398373984,48.52642276422764 56.14837398373984,48.3739837398374 56.14837398373984,48.22154471544715 56.14837398373984,48.06910569105691 56.14837398373984,47.916666666666664 56.14837398373984,47.8150406504065 56.09756097560975,47.66260162601626 56.09756097560975,47.510162601626014 56.046747967479675,47.40853658536585 55.99593495934959,47.25609756097561 55.94512195121951,47.103658536585364 55.89430894308943,46.951219512195124 55.84349593495935,46.84959349593496 55.792682926829265,46.697154471544714 55.6910569105691,46.54471544715447 55.640243902439025,46.44308943089431 55.53861788617886,46.290650406504064 55.48780487804878,46.13821138211382 55.386178861788615,45.985772357723576" fill="none" stroke="black" stroke-width="0.6"></polyline><polyline points="55.386178861788615,45.985772357723576 55.28455284552845,45.88414634146341 55.18292682926829,45.73170731707317 55.08130081300813,45.579268292682926 54.979674796747965,45.47764227642276 54.8780487804878,45.325203252032516 54.77642276422764,45.172764227642276 54.67479674796748,45.02032520325203 54.573170731707314,44.918699186991866 54.420731707317074,44.766260162601625 54.31910569105691,44.61382113821138 54.21747967479675,44.46138211382114 54.0650406504065,44.359756097560975 53.96341463414634,44.20731707317073 53.86178861788618,44.105691056910565 53.709349593495936,43.953252032520325 53.607723577235774,43.85162601626016 53.50609756097561,43.699186991869915 53.40447154471545,43.546747967479675 53.2520325203252,43.44512195121951 53.15040650406504,43.292682926829265 52.9979674796748,43.1910569105691 52.84552845528455,43.08943089430894 52.74390243902439,42.9369918699187 52.540650406504064,42.83536585365854 52.38821138211382,42.733739837398375 52.235772357723576,42.68292682926829 51.981707317073166,42.58130081300813 51.829268292682926,42.53048780487805 51.6260162601626,42.479674796747965 51.422764227642276,42.42886178861789 51.21951219512195,42.3780487804878 51.016260162601625,42.327235772357724 50.8130081300813,42.27642276422764 50.609756097560975,42.27642276422764 50.40650406504065,42.22560975609756 50.203252032520325,42.17479674796748 50,42.17479674796748 49.796747967479675,42.1239837398374 49.59349593495935,42.1239837398374 49.390243902439025,42.1239837398374 49.1869918699187,42.1239837398374 48.93292682926829,42.1239837398374 48.729674796747965,42.1239837398374 48.52642276422764,42.1239837398374 48.323170731707314,42.17479674796748 48.11991869918699,42.17479674796748 47.916666666666664,42.22560975609756 47.66260162601626,42.27642276422764 47.510162601626014,42.27642276422764 47.30691056910569,42.327235772357724" fill="none" stroke="black" stroke-width="0.6"></polyline><polyline points="47.30691056910569,42.327235772357724 47.103658536585364,42.327235772357724 46.90040650406504,42.3780487804878 46.646341463414636,42.42886178861789 46.44308943089431,42.42886178861789 46.239837398373986,42.479674796747965 45.985772357723576,42.53048780487805 45.78252032520325,42.58130081300813 45.579268292682926,42.63211382113821 45.3760162601626,42.68292682926829 45.12195121951219,42.78455284552845 44.918699186991866,42.83536585365854 44.71544715447154,42.9369918699187 44.512195121951216,43.03861788617886 44.30894308943089,43.08943089430894 44.105691056910565,43.1910569105691 43.85162601626016,43.292682926829265 43.64837398373984,43.39430894308943 43.44512195121951,43.49593495934959 43.1910569105691,43.64837398373984 42.98780487804878,43.75 42.78455284552845,43.85162601626016 42.58130081300813,44.0040650406504 42.3780487804878,44.105691056910565 42.17479674796748,44.25813008130081 42.02235772357724,44.359756097560975 41.86991869918699,44.512195121951216 41.71747967479675,44.66463414634146 41.61585365853659,44.8170731707317 41.46341463414634,44.96951219512195 41.36178861788618,45.12195121951219 41.209349593495936,45.27439024390244 41.107723577235774,45.47764227642276 40.95528455284553,45.68089430894309 40.853658536585364,45.833333333333336 40.7520325203252,46.03658536585366 40.59959349593496,46.239837398373986 40.548780487804876,46.392276422764226 40.447154471544714,46.59552845528455 40.34552845528455,46.798780487804876 40.29471544715447,47.0020325203252 40.19308943089431,47.20528455284553 40.142276422764226,47.459349593495936 40.09146341463415,47.66260162601626 39.989837398373986,47.916666666666664 39.9390243902439,48.170731707317074 39.88821138211382,48.42479674796748 39.83739837398374,48.67886178861789 39.78658536585366,48.983739837398375 39.735772357723576,49.23780487804878 39.6849593495935,49.49186991869919" fill="none" stroke="black" stroke-width="0.6"></polyline><polyline points="39.6849593495935,49.49186991869919 39.6849593495935,49.796747967479675 39.6849593495935,50.05081300813008 39.6849593495935,50.30487804878049 39.6849593495935,50.609756097560975 39.6849593495935,50.8130081300813 39.6849593495935,51.0670731707317 39.6849593495935,51.32113821138211 39.6849593495935,51.575203252032516 39.6849593495935,51.829268292682926 39.735772357723576,52.083333333333336 39.735772357723576,52.33739837398374 39.78658536585366,52.59146341463415 39.83739837398374,52.84552845528455 39.88821138211382,53.15040650406504 39.9390243902439,53.40447154471545 39.989837398373986,53.65853658536585 40.040650406504064,53.91260162601626 40.142276422764226,54.11585365853659 40.19308943089431,54.420731707317074 40.29471544715447,54.6239837398374 40.34552845528455,54.8780487804878 40.447154471544714,55.13211382113821 40.4979674796748,55.386178861788615 40.59959349593496,55.58943089430894 40.701219512195124,55.84349593495935 40.802845528455286,56.046747967479675 40.90447154471545,56.30081300813008 41.00609756097561,56.55487804878049 41.107723577235774,56.75813008130081 41.209349593495936,57.012195121951216 41.3109756097561,57.21544715447154 41.41260162601626,57.46951219512195 41.514227642276424,57.672764227642276 41.61585365853659,57.8760162601626 41.71747967479675,58.02845528455284 41.81910569105691,58.231707317073166 41.97154471544715,58.43495934959349 42.073170731707314,58.63821138211382 42.22560975609756,58.84146341463415 42.3780487804878,58.99390243902439 42.53048780487805,59.146341463414636 42.733739837398375,59.298780487804876 42.886178861788615,59.451219512195124 43.03861788617886,59.552845528455286 43.24186991869919,59.70528455284553 43.39430894308943,59.80691056910569 43.546747967479675,59.90853658536585 43.75,60.010162601626014 43.953252032520325,60.11178861788618 44.15650406504065,60.21341463414634" fill="none" stroke="black" stroke-width="0.6"></polyline><polyline points="44.15650406504065,60.21341463414634 44.359756097560975,60.3150406504065 44.5630081300813,60.36585365853659 44.8170731707317,60.46747967479675 45.07113821138211,60.51829268292683 45.27439024390244,60.61991869918699 45.52845528455285,60.670731707317074 45.73170731707317,60.77235772357724 45.985772357723576,60.823170731707314 46.1890243902439,60.92479674796748 46.44308943089431,60.97560975609756 46.646341463414636,61.02642276422764 46.90040650406504,61.1280487804878 47.15447154471545,61.17886178861789 47.40853658536585,61.229674796747965 47.66260162601626,61.229674796747965 47.96747967479675,61.28048780487805 48.22154471544715,61.28048780487805 48.52642276422764,61.28048780487805 48.83130081300813,61.28048780487805 49.08536585365854,61.28048780487805 49.33943089430894,61.28048780487805 49.64430894308943,61.28048780487805 49.89837398373984,61.28048780487805 50.203252032520325,61.28048780487805 50.50813008130081,61.28048780487805 50.762195121951216,61.28048780487805 51.0670731707317,61.28048780487805 51.37195121951219,61.229674796747965 51.67682926829268,61.17886178861789 51.93089430894309,61.1280487804878 52.235772357723576,61.077235772357724 52.540650406504064,61.02642276422764 52.79471544715447,60.97560975609756 53.09959349593496,60.92479674796748 53.40447154471545,60.8739837398374 53.65853658536585,60.823170731707314 53.96341463414634,60.72154471544715 54.21747967479675,60.670731707317074 54.47154471544715,60.61991869918699 54.77642276422764,60.51829268292683 55.03048780487805,60.46747967479675 55.28455284552845,60.36585365853659 55.53861788617886,60.264227642276424 55.74186991869919,60.16260162601626 55.99593495934959,60.0609756097561 56.199186991869915,59.959349593495936 56.40243902439024,59.857723577235774 56.605691056910565,59.75609756097561 56.859756097560975,59.65447154471545 57.0630081300813,59.552845528455286" fill="none" stroke="black" stroke-width="0.6"></polyline><polyline points="57.0630081300813,59.552845528455286 57.266260162601625,59.451219512195124 57.46951219512195,59.298780487804876 57.672764227642276,59.197154471544714 57.92682926829268,59.04471544715447 58.130081300813,58.892276422764226 58.33333333333333,58.739837398373986 58.536585365853654,58.58739837398374 58.739837398373986,58.43495934959349 58.94308943089431,58.28252032520325 59.146341463414636,58.079268292682926 59.298780487804876,57.92682926829268 59.451219512195124,57.77439024390244 59.65447154471545,57.57113821138211 59.80691056910569,57.418699186991866 59.959349593495936,57.21544715447154 60.11178861788618,57.012195121951216 60.264227642276424,56.859756097560975 60.36585365853659,56.65650406504065 60.51829268292683,56.453252032520325 60.61991869918699,56.25 60.77235772357724,56.046747967479675 60.92479674796748,55.792682926829265 61.02642276422764,55.58943089430894 61.17886178861789,55.386178861788615 61.33130081300813,55.18292682926829 61.43292682926829,54.979674796747965 61.58536585365854,54.72560975609756 61.6869918699187,54.47154471544715 61.83943089430894,54.21747967479675 61.9410569105691,54.014227642276424 62.042682926829265,53.709349593495936 62.14430894308943,53.50609756097561 62.24593495934959,53.2520325203252 62.34756097560975,52.9979674796748 62.449186991869915,52.74390243902439 62.55081300813008,52.489837398373986 62.65243902439024,52.1849593495935 62.703252032520325,51.93089430894309 62.80487804878049,51.6260162601626 62.855691056910565,51.37195121951219 62.90650406504065,51.11788617886179 62.95731707317073,50.86382113821138 62.95731707317073,50.609756097560975 63.00813008130081,50.355691056910565 63.00813008130081,50.10162601626016 63.00813008130081,49.84756097560975 63.00813008130081,49.59349593495935 63.00813008130081,49.390243902439025 62.95731707317073,49.136178861788615 62.95731707317073,48.88211382113821" fill="none" stroke="black" stroke-width="0.6"></polyline><polyline points="62.95731707317073,48.88211382113821 62.90650406504065,48.67886178861789 62.90650406504065,48.42479674796748 62.855691056910565,48.170731707317074 62.855691056910565,47.916666666666664 62.80487804878049,47.61178861788618 62.7540650406504,47.357723577235774 62.703252032520325,47.103658536585364 62.65243902439024,46.84959349593496 62.60162601626016,46.59552845528455 62.55081300813008,46.34146341463415 62.5,46.08739837398374 62.39837398373984,45.88414634146341 62.34756097560975,45.63008130081301 62.24593495934959,45.3760162601626 62.14430894308943,45.172764227642276 62.042682926829265,44.96951219512195 61.890243902439025,44.766260162601625 61.83943089430894,44.512195121951216 61.73780487804878,44.30894308943089 61.636178861788615,44.05487804878049 61.53455284552845,43.85162601626016 61.483739837398375,43.59756097560975 61.38211382113821,43.34349593495935 61.28048780487805,43.08943089430894 61.229674796747965,42.83536585365854 61.1280487804878,42.63211382113821 61.02642276422764,42.42886178861789 60.92479674796748,42.17479674796748 60.823170731707314,42.02235772357724 60.72154471544715,41.81910569105691 60.61991869918699,41.61585365853659 60.51829268292683,41.41260162601626 60.416666666666664,41.209349593495936 60.3150406504065,40.95528455284553 60.21341463414634,40.802845528455286 60.11178861788618,40.59959349593496 59.959349593495936,40.396341463414636 59.857723577235774,40.19308943089431 59.75609756097561,40.040650406504064 59.603658536585364,39.83739837398374 59.5020325203252,39.63414634146341 59.34959349593496,39.48170731707317 59.197154471544714,39.329268292682926 59.09552845528455,39.1260162601626 58.892276422764226,38.97357723577235 58.739837398373986,38.82113821138211 58.58739837398374,38.668699186991866 58.38414634146341,38.516260162601625 58.18089430894309,38.36382113821138 57.97764227642276,38.262195121951216" fill="none" stroke="black" stroke-width="0.6"></polyline><polyline points="57.97764227642276,38.262195121951216 57.77439024390244,38.16056910569105 57.57113821138211,38.00813008130081 57.36788617886179,37.90650406504065 57.16463414634146,37.80487804878049 56.91056910569105,37.65243902439024 56.70731707317073,37.55081300813008 56.5040650406504,37.449186991869915 56.25,37.296747967479675 56.046747967479675,37.19512195121951 55.84349593495935,37.09349593495935 55.58943089430894,36.9410569105691 55.386178861788615,36.78861788617886 55.13211382113821,36.6869918699187 54.8780487804878,36.53455284552845 54.6239837398374,36.43292682926829 54.420731707317074,36.33130081300813 54.166666666666664,36.229674796747965 53.91260162601626,36.1280487804878 53.65853658536585,36.077235772357724 53.40447154471545,35.97560975609756 53.15040650406504,35.8739837398374 52.896341463414636,35.823170731707314 52.642276422764226,35.72154471544715 52.38821138211382,35.670731707317074 52.13414634146341,35.61991869918699 51.880081300813,35.56910569105691 51.6260162601626,35.51829268292683 51.422764227642276,35.46747967479675 51.168699186991866,35.416666666666664 50.91463414634146,35.36585365853659 50.71138211382114,35.3150406504065 50.45731707317073,35.264227642276424 50.203252032520325,35.21341463414634 49.949186991869915,35.21341463414634 49.69512195121951,35.16260162601626 49.4410569105691,35.16260162601626 49.1869918699187,35.16260162601626 48.88211382113821,35.16260162601626 48.6280487804878,35.16260162601626 48.323170731707314,35.16260162601626 48.06910569105691,35.16260162601626 47.764227642276424,35.16260162601626 47.510162601626014,35.16260162601626 47.20528455284553,35.21341463414634 46.951219512195124,35.264227642276424 46.646341463414636,35.3150406504065 46.392276422764226,35.36585365853659 46.08739837398374,35.416666666666664 45.833333333333336,35.46747967479675 45.579268292682926,35.51829268292683" fill="none" stroke="black" stroke-width="0.6"></polyline><polyline points="45.579268292682926,35.51829268292683 45.325203252032516,35.56910569105691 45.07113821138211,35.61991869918699 44.8170731707317,35.670731707317074 44.5630081300813,35.77235772357724 44.359756097560975,35.823170731707314 44.15650406504065,35.8739837398374 43.90243902439024,35.92479674796748 43.699186991869915,36.02642276422764 43.44512195121951,36.077235772357724 43.24186991869919,36.17886178861789 42.98780487804878,36.28048780487805 42.78455284552845,36.33130081300813 42.53048780487805,36.43292682926829 42.327235772357724,36.53455284552845 42.073170731707314,36.58536585365854 41.86991869918699,36.6869918699187 41.666666666666664,36.78861788617886 41.46341463414634,36.890243902439025 41.260162601626014,36.99186991869919 41.107723577235774,37.09349593495935 40.90447154471545,37.19512195121951 40.7520325203252,37.296747967479675 40.548780487804876,37.449186991869915 40.34552845528455,37.55081300813008 40.142276422764226,37.65243902439024 39.88821138211382,37.80487804878049 39.6849593495935,37.90650406504065 39.53252032520325,38.05894308943089 39.329268292682926,38.16056910569105 39.07520325203252,38.3130081300813 38.87195121951219,38.46544715447154 38.61788617886179,38.61788617886179 38.36382113821138,38.77032520325203 38.16056910569105,38.922764227642276 37.90650406504065,39.1260162601626 37.65243902439024,39.27845528455285 37.449186991869915,39.48170731707317 37.24593495934959,39.6849593495935 37.042682926829265,39.83739837398374 36.78861788617886,40.040650406504064 36.58536585365854,40.24390243902439 36.38211382113821,40.447154471544714 36.17886178861789,40.65040650406504 35.97560975609756,40.853658536585364 35.77235772357724,41.05691056910569 35.56910569105691,41.260162601626014 35.36585365853659,41.514227642276424 35.16260162601626,41.71747967479675 35.010162601626014,41.920731707317074 34.857723577235774,42.1239837398374" fill="none" stroke="black" stroke-width="0.6"></polyline><polyline points="34.857723577235774,42.1239837398374 34.70528455284553,42.3780487804878 34.552845528455286,42.58130081300813 34.40040650406504,42.83536585365854 34.2479674796748,43.08943089430894 34.09552845528455,43.34349593495935 33.94308943089431,43.59756097560975 33.84146341463415,43.85162601626016 33.739837398373986,44.105691056910565 33.58739837398374,44.359756097560975 33.53658536585366,44.5630081300813 33.485772357723576,44.8170731707317 33.38414634146341,45.02032520325203 33.333333333333336,45.27439024390244 33.28252032520325,45.52845528455285 33.28252032520325,45.78252032520325 33.23170731707317,46.03658536585366 33.18089430894309,46.34146341463415 33.18089430894309,46.59552845528455 33.13008130081301,46.84959349593496 33.079268292682926,47.15447154471545 33.079268292682926,47.40853658536585 33.079268292682926,47.66260162601626 33.02845528455285,48.01829268292683 33.02845528455285,48.27235772357724 33.02845528455285,48.577235772357724 32.97764227642276,48.93292682926829 32.97764227642276,49.23780487804878 32.97764227642276,49.542682926829265 32.926829268292686,49.84756097560975 32.926829268292686,50.15243902439024 32.926829268292686,50.45731707317073 32.926829268292686,50.8130081300813 32.926829268292686,51.11788617886179 32.97764227642276,51.422764227642276 33.02845528455285,51.72764227642276 33.079268292682926,52.03252032520325 33.13008130081301,52.33739837398374 33.18089430894309,52.69308943089431 33.23170731707317,52.9979674796748 33.28252032520325,53.302845528455286 33.333333333333336,53.65853658536585 33.38414634146341,53.96341463414634 33.4349593495935,54.26829268292683 33.485772357723576,54.6239837398374 33.53658536585366,54.92886178861789 33.58739837398374,55.233739837398375 33.6890243902439,55.58943089430894 33.739837398373986,55.89430894308943 33.84146341463415,56.14837398373984 33.94308943089431,56.453252032520325" fill="none" stroke="black" stroke-width="0.6"></polyline><polyline points="33.94308943089431,56.453252032520325 34.04471544715447,56.75813008130081 34.09552845528455,57.0630081300813 34.197154471544714,57.36788617886179 34.298780487804876,57.62195121951219 34.40040650406504,57.92682926829268 34.5020325203252,58.231707317073166 34.603658536585364,58.485772357723576 34.70528455284553,58.790650406504064 34.80691056910569,59.09552845528455 34.90853658536585,59.34959349593496 35.010162601626014,59.65447154471545 35.16260162601626,59.90853658536585 35.264227642276424,60.16260162601626 35.416666666666664,60.416666666666664 35.51829268292683,60.670731707317074 35.670731707317074,60.8739837398374 35.823170731707314,61.1280487804878 35.97560975609756,61.38211382113821 36.077235772357724,61.58536585365854 36.229674796747965,61.78861788617886 36.38211382113821,61.99186991869919 36.53455284552845,62.19512195121951 36.6869918699187,62.34756097560975 36.890243902439025,62.55081300813008 37.042682926829265,62.7540650406504 37.24593495934959,62.90650406504065 37.39837398373984,63.109756097560975 37.60162601626016,63.262195121951216 37.80487804878049,63.41463414634146 38.00813008130081,63.5670731707317 38.16056910569105,63.71951219512195 38.36382113821138,63.87195121951219 38.5670731707317,64.02439024390243 38.71951219512195,64.1260162601626 38.922764227642276,64.27845528455285 39.07520325203252,64.43089430894308 39.27845528455285,64.58333333333333 39.48170731707317,64.73577235772358 39.63414634146341,64.88821138211382 39.83739837398374,64.98983739837398 39.989837398373986,65.1930894308943 40.19308943089431,65.29471544715447 40.396341463414636,65.44715447154472 40.59959349593496,65.54878048780488 40.7520325203252,65.70121951219512 40.95528455284553,65.80284552845528 41.15853658536585,65.90447154471545 41.3109756097561,66.0060975609756 41.514227642276424,66.10772357723577 41.666666666666664,66.20934959349593" fill="none" stroke="black" stroke-width="0.6"></polyline><polyline points="41.666666666666664,66.20934959349593 41.86991869918699,66.3109756097561 42.073170731707314,66.36178861788618 42.27642276422764,66.46341463414635 42.479674796747965,66.51422764227642 42.733739837398375,66.5650406504065 42.9369918699187,66.66666666666667 43.140243902439025,66.71747967479675 43.34349593495935,66.76829268292683 43.59756097560975,66.869918699187 43.80081300813008,66.92073170731707 44.0040650406504,66.97154471544715 44.25813008130081,67.02235772357723 44.512195121951216,67.07317073170732 44.71544715447154,67.1239837398374 45.02032520325203,67.17479674796748 45.27439024390244,67.22560975609755 45.52845528455285,67.22560975609755 45.78252032520325,67.27642276422765 46.03658536585366,67.32723577235772 46.290650406504064,67.32723577235772 46.59552845528455,67.3780487804878 46.84959349593496,67.42886178861788 47.103658536585364,67.47967479674797 47.357723577235774,67.53048780487805 47.61178861788618,67.53048780487805 47.86585365853659,67.58130081300813 48.11991869918699,67.58130081300813 48.323170731707314,67.6321138211382 48.577235772357724,67.6321138211382 48.83130081300813,67.6829268292683 49.03455284552845,67.6829268292683 49.28861788617886,67.6829268292683 49.542682926829265,67.73373983739837 49.796747967479675,67.73373983739837 50,67.73373983739837 50.2540650406504,67.73373983739837 50.50813008130081,67.73373983739837 50.762195121951216,67.73373983739837 51.016260162601625,67.73373983739837 51.21951219512195,67.73373983739837 51.47357723577235,67.73373983739837 51.72764227642276,67.73373983739837 51.93089430894309,67.73373983739837 52.13414634146341,67.73373983739837 52.38821138211382,67.73373983739837 52.59146341463415,67.73373983739837 52.79471544715447,67.73373983739837 52.9979674796748,67.6829268292683 53.201219512195124,67.6829268292683 53.40447154471545,67.6829268292683" fill="none" stroke="black" stroke-width="0.6"></polyline><polyline points="53.40447154471545,67.6829268292683 53.607723577235774,67.6829268292683 53.8109756097561,67.6321138211382 54.014227642276424,67.6321138211382 54.166666666666664,67.6321138211382 54.36991869918699,67.58130081300813 54.573170731707314,67.58130081300813 54.77642276422764,67.53048780487805 54.979674796747965,67.53048780487805 55.18292682926829,67.47967479674797 55.33536585365854,67.42886178861788 55.53861788617886,67.3780487804878 55.74186991869919,67.32723577235772 55.94512195121951,67.27642276422765 56.14837398373984,67.22560975609755 56.35162601626016,67.17479674796748 56.55487804878049,67.1239837398374 56.75813008130081,67.07317073170732 56.96138211382114,67.02235772357723 57.16463414634146,66.97154471544715 57.36788617886179,66.869918699187 57.57113821138211,66.8191056910569 57.77439024390244,66.76829268292683 57.97764227642276,66.66666666666667 58.18089430894309,66.5650406504065 58.38414634146341,66.51422764227642 58.536585365853654,66.41260162601625 58.790650406504064,66.3109756097561 58.99390243902439,66.20934959349593 59.146341463414636,66.10772357723577 59.40040650406504,65.95528455284553 59.603658536585364,65.85365853658537 59.80691056910569,65.7520325203252 60.0609756097561,65.59959349593495 60.21341463414634,65.44715447154472 60.416666666666664,65.29471544715447 60.670731707317074,65.14227642276423 60.8739837398374,64.9390243902439 61.077235772357724,64.78658536585365 61.28048780487805,64.6341463414634 61.483739837398375,64.48170731707317 61.636178861788615,64.32926829268293 61.83943089430894,64.17682926829268 62.042682926829265,64.02439024390243 62.24593495934959,63.87195121951219 62.449186991869915,63.668699186991866 62.65243902439024,63.516260162601625 62.855691056910565,63.3130081300813 63.05894308943089,63.109756097560975 63.262195121951216,62.90650406504065 63.46544715447154,62.703252032520325" fill="none" stroke="black" stroke-width="0.6"></polyline><polyline points="63.46544715447154,62.703252032520325 63.668699186991866,62.5 63.87195121951219,62.34756097560975 64.07520325203252,62.14430894308943 64.27845528455285,61.9410569105691 64.48170731707317,61.73780487804878 64.6849593495935,61.483739837398375 64.88821138211382,61.28048780487805 65.09146341463415,61.02642276422764 65.29471544715447,60.823170731707314 65.4979674796748,60.56910569105691 65.65040650406505,60.3150406504065 65.80284552845528,60.0609756097561 66.0060975609756,59.857723577235774 66.10772357723577,59.603658536585364 66.3109756097561,59.40040650406504 66.46341463414635,59.146341463414636 66.61585365853658,58.892276422764226 66.76829268292683,58.58739837398374 66.97154471544715,58.28252032520325 67.1239837398374,58.02845528455284 67.27642276422765,57.72357723577235 67.42886178861788,57.46951219512195 67.58130081300813,57.21544715447154 67.73373983739837,56.91056910569105 67.88617886178862,56.605691056910565 67.98780487804878,56.35162601626016 68.14024390243902,56.046747967479675 68.24186991869918,55.74186991869919 68.39430894308943,55.48780487804878 68.4959349593496,55.18292682926829 68.59756097560975,54.92886178861789 68.69918699186992,54.67479674796748 68.80081300813008,54.36991869918699 68.85162601626016,54.0650406504065 68.90243902439025,53.8109756097561 68.95325203252033,53.50609756097561 69.0040650406504,53.2520325203252 69.05487804878048,52.9979674796748 69.10569105691057,52.69308943089431 69.15650406504065,52.38821138211382 69.15650406504065,52.083333333333336 69.20731707317073,51.77845528455284 69.2581300813008,51.52439024390244 69.3089430894309,51.21951219512195 69.35975609756098,50.91463414634146 69.41056910569105,50.609756097560975 69.41056910569105,50.30487804878049 69.46138211382113,50 69.46138211382113,49.69512195121951 69.51219512195122,49.390243902439025" fill="none" stroke="black" stroke-width="0.6"></polyline><polyline points="69.51219512195122,49.390243902439025 69.51219512195122,49.03455284552845 69.51219512195122,48.78048780487805 69.51219512195122,48.47560975609756 69.51219512195122,48.170731707317074 69.51219512195122,47.86585365853659 69.46138211382113,47.61178861788618 69.46138211382113,47.30691056910569 69.41056910569105,47.0020325203252 69.41056910569105,46.7479674796748 69.41056910569105,46.44308943089431 69.35975609756098,46.13821138211382 69.35975609756098,45.833333333333336 69.35975609756098,45.52845528455285 69.3089430894309,45.22357723577235 69.3089430894309,44.918699186991866 69.2581300813008,44.5630081300813 69.2581300813008,44.30894308943089 69.20731707317073,44.0040650406504 69.20731707317073,43.699186991869915 69.15650406504065,43.34349593495935 69.10569105691057,43.03861788617886 69.05487804878048,42.733739837398375 69.0040650406504,42.479674796747965 68.95325203252033,42.17479674796748 68.85162601626016,41.920731707317074 68.75,41.61585365853659 68.69918699186992,41.36178861788618 68.59756097560975,41.05691056910569 68.4959349593496,40.802845528455286 68.4451219512195,40.4979674796748 68.34349593495935,40.24390243902439 68.24186991869918,39.989837398373986 68.14024390243902,39.735772357723576 67.98780487804878,39.48170731707317 67.88617886178862,39.22764227642276 67.73373983739837,38.97357723577235 67.58130081300813,38.71951219512195 67.42886178861788,38.46544715447154 67.27642276422765,38.262195121951216 67.1239837398374,38.05894308943089 66.97154471544715,37.855691056910565 66.76829268292683,37.65243902439024 66.61585365853658,37.5 66.41260162601625,37.296747967479675 66.26016260162602,37.09349593495935 66.0569105691057,36.890243902439025 65.90447154471545,36.6869918699187 65.70121951219512,36.483739837398375 65.54878048780488,36.33130081300813 65.39634146341463,36.17886178861789" fill="none" stroke="black" stroke-width="0.6"></polyline><polyline points="65.39634146341463,36.17886178861789 65.2439024390244,35.97560975609756 65.09146341463415,35.823170731707314 64.9390243902439,35.670731707317074 64.73577235772358,35.51829268292683 64.58333333333333,35.36585365853659 64.43089430894308,35.21341463414634 64.27845528455285,35.0609756097561 64.1260162601626,34.90853658536585 63.97357723577235,34.75609756097561 63.82113821138211,34.603658536585364 63.668699186991866,34.451219512195124 63.516260162601625,34.298780487804876 63.36382113821138,34.146341463414636 63.21138211382114,33.99390243902439 63.109756097560975,33.84146341463415 62.95731707317073,33.739837398373986 62.855691056910565,33.58739837398374 62.7540650406504,33.485772357723576 62.65243902439024,33.333333333333336 62.55081300813008,33.23170731707317 62.449186991869915,33.13008130081301 62.34756097560975,32.97764227642276 62.24593495934959,32.8760162601626 62.14430894308943,32.77439024390244 61.99186991869919,32.672764227642276 61.890243902439025,32.57113821138211 61.78861788617886,32.46951219512195 61.636178861788615,32.36788617886179 61.53455284552845,32.266260162601625 61.43292682926829,32.21544715447154 61.28048780487805,32.11382113821138 61.17886178861789,32.012195121951216 61.02642276422764,31.910569105691057 60.92479674796748,31.808943089430894 60.823170731707314,31.758130081300813 60.670731707317074,31.65650406504065 60.51829268292683,31.554878048780488 60.416666666666664,31.453252032520325 60.264227642276424,31.402439024390244 60.16260162601626,31.30081300813008 60.010162601626014,31.19918699186992 59.857723577235774,31.097560975609756 59.70528455284553,30.995934959349594 59.552845528455286,30.945121951219512 59.40040650406504,30.84349593495935 59.2479674796748,30.79268292682927 59.09552845528455,30.691056910569106 58.892276422764226,30.640243902439025 58.739837398373986,30.538617886178862 58.536585365853654,30.48780487804878" fill="none" stroke="black" stroke-width="0.6"></polyline><polyline points="58.536585365853654,30.48780487804878 58.33333333333333,30.38617886178862 58.130081300813,30.284552845528456 57.92682926829268,30.182926829268293 57.672764227642276,30.08130081300813 57.46951219512195,29.979674796747968 57.21544715447154,29.878048780487806 56.96138211382114,29.776422764227643 56.70731707317073,29.725609756097562 56.453252032520325,29.6239837398374 56.199186991869915,29.573170731707318 55.94512195121951,29.522357723577237 55.6910569105691,29.420731707317074 55.386178861788615,29.369918699186993 55.13211382113821,29.31910569105691 54.8780487804878,29.217479674796746 54.6239837398374,29.166666666666664 54.36991869918699,29.0650406504065 54.0650406504065,29.01422764227642 53.8109756097561,28.912601626016258 53.55691056910569,28.861788617886177 53.302845528455286,28.810975609756095 52.9979674796748,28.760162601626014 52.74390243902439,28.709349593495933 52.489837398373986,28.65853658536585 52.1849593495935,28.60772357723577 51.93089430894309,28.55691056910569 51.6260162601626,28.55691056910569 51.32113821138211,28.506097560975608 51.0670731707317,28.455284552845526 50.8130081300813,28.455284552845526 50.55894308943089,28.404471544715445 50.30487804878049,28.404471544715445 50.05081300813008,28.404471544715445 49.74593495934959,28.353658536585364 49.49186991869919,28.353658536585364 49.23780487804878,28.353658536585364 48.93292682926829,28.353658536585364 48.67886178861789,28.353658536585364 48.42479674796748,28.353658536585364 48.11991869918699,28.404471544715445 47.86585365853659,28.404471544715445 47.61178861788618,28.455284552845526 47.30691056910569,28.506097560975608 47.0020325203252,28.55691056910569 46.7479674796748,28.60772357723577 46.44308943089431,28.65853658536585 46.13821138211382,28.709349593495933 45.88414634146341,28.760162601626014 45.579268292682926,28.810975609756095 45.3760162601626,28.861788617886177" fill="none" stroke="black" stroke-width="0.6"></polyline><polyline points="45.3760162601626,28.861788617886177 45.12195121951219,28.912601626016258 44.86788617886179,28.912601626016258 44.61382113821138,28.96341463414634 44.41056910569105,29.01422764227642 44.15650406504065,29.0650406504065 43.90243902439024,29.115853658536583 43.699186991869915,29.166666666666664 43.44512195121951,29.217479674796746 43.1910569105691,29.268292682926827 42.98780487804878,29.31910569105691 42.68292682926829,29.31910569105691 42.479674796747965,29.420731707317074 42.22560975609756,29.471544715447155 41.920731707317074,29.522357723577237 41.666666666666664,29.573170731707318 41.41260162601626,29.6239837398374 41.15853658536585,29.67479674796748 40.90447154471545,29.725609756097562 40.65040650406504,29.827235772357724 40.34552845528455,29.878048780487806 40.09146341463415,29.979674796747968 39.83739837398374,30.08130081300813 39.53252032520325,30.182926829268293 39.27845528455285,30.284552845528456 39.02439024390244,30.38617886178862 38.71951219512195,30.48780487804878 38.46544715447154,30.589430894308943 38.21138211382114,30.691056910569106 37.95731707317073,30.79268292682927 37.703252032520325,30.89430894308943 37.39837398373984,30.995934959349594 37.14430894308943,31.097560975609756 36.890243902439025,31.19918699186992 36.636178861788615,31.30081300813008 36.38211382113821,31.402439024390244 36.1280487804878,31.554878048780488 35.823170731707314,31.65650406504065 35.56910569105691,31.758130081300813 35.3150406504065,31.910569105691057 35.0609756097561,32.0630081300813 34.857723577235774,32.16463414634146 34.65447154471545,32.3170731707317 34.40040650406504,32.46951219512195 34.197154471544714,32.57113821138211 34.04471544715447,32.72357723577236 33.84146341463415,32.926829268292686 33.63821138211382,33.02845528455285 33.485772357723576,33.18089430894309 33.333333333333336,33.333333333333336 33.18089430894309,33.485772357723576" fill="none" stroke="black" stroke-width="0.6"></polyline><polyline points="33.18089430894309,33.485772357723576 33.02845528455285,33.63821138211382 32.926829268292686,33.790650406504064 32.77439024390244,33.94308943089431 32.672764227642276,34.09552845528455 32.57113821138211,34.2479674796748 32.46951219512195,34.40040650406504 32.36788617886179,34.603658536585364 32.266260162601625,34.75609756097561 32.16463414634146,34.959349593495936 32.0630081300813,35.16260162601626 31.910569105691057,35.36585365853659 31.808943089430894,35.56910569105691 31.70731707317073,35.77235772357724 31.60569105691057,35.92479674796748 31.504065040650406,36.1280487804878 31.453252032520325,36.33130081300813 31.30081300813008,36.53455284552845 31.19918699186992,36.73780487804878 31.097560975609756,36.9410569105691 30.995934959349594,37.19512195121951 30.89430894308943,37.39837398373984 30.79268292682927,37.65243902439024 30.691056910569106,37.855691056910565 30.538617886178862,38.109756097560975 30.4369918699187,38.36382113821138 30.284552845528456,38.61788617886179 30.132113821138212,38.87195121951219 30.03048780487805,39.1260162601626 29.878048780487806,39.48170731707317 29.725609756097562,39.735772357723576 29.573170731707318,40.040650406504064 29.420731707317074,40.34552845528455 29.31910569105691,40.65040650406504 29.166666666666664,40.90447154471545 29.0650406504065,41.209349593495936 28.96341463414634,41.514227642276424 28.861788617886177,41.81910569105691 28.760162601626014,42.17479674796748 28.65853658536585,42.479674796747965 28.506097560975608,42.733739837398375 28.404471544715445,43.08943089430894 28.302845528455283,43.34349593495935 28.20121951219512,43.699186991869915 28.099593495934958,44.0040650406504 27.997967479674795,44.30894308943089 27.896341463414632,44.66463414634146 27.79471544715447,44.96951219512195 27.693089430894307,45.27439024390244 27.540650406504064,45.68089430894309 27.4390243902439,46.03658536585366" fill="none" stroke="black" stroke-width="0.6"></polyline><polyline points="27.4390243902439,46.03658536585366 27.33739837398374,46.392276422764226 27.235772357723576,46.7479674796748 27.184959349593495,47.052845528455286 27.134146341463413,47.357723577235774 27.083333333333332,47.66260162601626 27.03252032520325,47.96747967479675 26.98170731707317,48.323170731707314 26.98170731707317,48.67886178861789 26.98170731707317,48.983739837398375 26.93089430894309,49.28861788617886 26.93089430894309,49.59349593495935 26.93089430894309,49.89837398373984 26.93089430894309,50.203252032520325 26.93089430894309,50.55894308943089 26.93089430894309,50.8130081300813 26.98170731707317,51.11788617886179 26.98170731707317,51.37195121951219 27.03252032520325,51.6260162601626 27.03252032520325,51.93089430894309 27.03252032520325,52.235772357723576 27.083333333333332,52.540650406504064 27.083333333333332,52.84552845528455 27.083333333333332,53.15040650406504 27.134146341463413,53.45528455284553 27.184959349593495,53.760162601626014 27.235772357723576,54.0650406504065 27.286585365853657,54.31910569105691 27.33739837398374,54.6239837398374 27.38821138211382,54.92886178861789 27.4390243902439,55.233739837398375 27.489837398373982,55.48780487804878 27.540650406504064,55.792682926829265 27.591463414634145,56.046747967479675 27.693089430894307,56.35162601626016 27.74390243902439,56.65650406504065 27.79471544715447,56.96138211382114 27.84552845528455,57.21544715447154 27.896341463414632,57.52032520325203 27.997967479674795,57.825203252032516 28.048780487804876,58.130081300813 28.099593495934958,58.43495934959349 28.20121951219512,58.739837398373986 28.2520325203252,59.09552845528455 28.353658536585364,59.40040650406504 28.404471544715445,59.70528455284553 28.455284552845526,60.010162601626014 28.55691056910569,60.3150406504065 28.65853658536585,60.61991869918699 28.760162601626014,60.8739837398374 28.912601626016258,61.17886178861789" fill="none" stroke="black" stroke-width="0.6"></polyline><polyline points="28.912601626016258,61.17886178861789 29.01422764227642,61.483739837398375 29.166666666666664,61.73780487804878 29.268292682926827,62.042682926829265 29.420731707317074,62.296747967479675 29.522357723577237,62.55081300813008 29.67479674796748,62.855691056910565 29.776422764227643,63.16056910569105 29.878048780487806,63.46544715447154 29.979674796747968,63.77032520325203 30.132113821138212,64.07520325203252 30.233739837398375,64.380081300813 30.38617886178862,64.6849593495935 30.538617886178862,64.9390243902439 30.691056910569106,65.2439024390244 30.84349593495935,65.54878048780488 30.995934959349594,65.80284552845528 31.19918699186992,66.10772357723577 31.351626016260163,66.36178861788618 31.504065040650406,66.61585365853658 31.70731707317073,66.869918699187 31.910569105691057,67.1239837398374 32.11382113821138,67.3780487804878 32.3170731707317,67.6321138211382 32.52032520325203,67.88617886178862 32.72357723577236,68.14024390243902 32.926829268292686,68.39430894308943 33.13008130081301,68.59756097560975 33.28252032520325,68.85162601626016 33.485772357723576,69.10569105691057 33.6890243902439,69.3089430894309 33.892276422764226,69.51219512195122 34.146341463414636,69.76626016260163 34.34959349593496,69.96951219512195 34.552845528455286,70.17276422764228 34.75609756097561,70.42682926829268 34.959349593495936,70.57926829268293 35.21341463414634,70.78252032520325 35.416666666666664,70.98577235772358 35.61991869918699,71.1890243902439 35.823170731707314,71.39227642276423 36.077235772357724,71.59552845528455 36.28048780487805,71.79878048780488 36.53455284552845,72.0020325203252 36.78861788617886,72.20528455284553 37.042682926829265,72.35772357723577 37.296747967479675,72.51016260162602 37.55081300813008,72.71341463414635 37.80487804878049,72.86585365853658 38.109756097560975,73.01829268292683 38.41463414634146,73.17073170731707" fill="none" stroke="black" stroke-width="0.6"></polyline><polyline points="38.41463414634146,73.17073170731707 38.668699186991866,73.32317073170732 38.922764227642276,73.47560975609755 39.22764227642276,73.67886178861788 39.48170731707317,73.78048780487805 39.735772357723576,73.9329268292683 40.040650406504064,74.13617886178862 40.29471544715447,74.23780487804878 40.548780487804876,74.39024390243902 40.853658536585364,74.54268292682927 41.107723577235774,74.64430894308943 41.41260162601626,74.79674796747967 41.71747967479675,74.89837398373983 42.02235772357724,75 42.3780487804878,75.10162601626016 42.733739837398375,75.20325203252033 43.03861788617886,75.30487804878048 43.39430894308943,75.35569105691057 43.75,75.45731707317073 44.05487804878049,75.5589430894309 44.41056910569105,75.66056910569105 44.71544715447154,75.76219512195122 45.07113821138211,75.8130081300813 45.3760162601626,75.91463414634146 45.73170731707317,76.01626016260163 46.08739837398374,76.0670731707317 46.44308943089431,76.16869918699187 46.84959349593496,76.21951219512195 47.15447154471545,76.27032520325203 47.510162601626014,76.27032520325203 47.86585365853659,76.3211382113821 48.170731707317074,76.3719512195122 48.52642276422764,76.3719512195122 48.78048780487805,76.42276422764228 49.136178861788615,76.42276422764228 49.49186991869919,76.47357723577235 49.796747967479675,76.47357723577235 50.10162601626016,76.47357723577235 50.45731707317073,76.52439024390243 50.8130081300813,76.52439024390243 51.11788617886179,76.52439024390243 51.52439024390244,76.52439024390243 51.829268292682926,76.47357723577235 52.13414634146341,76.47357723577235 52.489837398373986,76.42276422764228 52.84552845528455,76.3719512195122 53.15040650406504,76.3211382113821 53.55691056910569,76.27032520325203 53.86178861788618,76.27032520325203 54.21747967479675,76.16869918699187 54.573170731707314,76.11788617886178" fill="none" stroke="black" stroke-width="0.6"></polyline><polyline points="54.573170731707314,76.11788617886178 54.8780487804878,76.0670731707317 55.233739837398375,75.96544715447155 55.58943089430894,75.86382113821138 55.89430894308943,75.76219512195122 56.14837398373984,75.71138211382113 56.5040650406504,75.60975609756098 56.75813008130081,75.5081300813008 57.0630081300813,75.40650406504065 57.418699186991866,75.2540650406504 57.72357723577235,75.10162601626016 58.02845528455284,75 58.33333333333333,74.84756097560975 58.63821138211382,74.6951219512195 58.94308943089431,74.54268292682927 59.298780487804876,74.39024390243902 59.603658536585364,74.23780487804878 59.90853658536585,74.13617886178862 60.21341463414634,73.9329268292683 60.51829268292683,73.78048780487805 60.823170731707314,73.6280487804878 61.1280487804878,73.47560975609755 61.38211382113821,73.27235772357723 61.6869918699187,73.0691056910569 61.99186991869919,72.86585365853658 62.296747967479675,72.66260162601625 62.60162601626016,72.40853658536585 62.90650406504065,72.20528455284553 63.21138211382114,71.95121951219512 63.516260162601625,71.69715447154472 63.82113821138211,71.4430894308943 64.17682926829268,71.1890243902439 64.48170731707317,70.98577235772358 64.78658536585365,70.73170731707317 65.09146341463415,70.47764227642276 65.34552845528455,70.17276422764228 65.65040650406505,69.91869918699187 65.90447154471545,69.61382113821138 66.15853658536585,69.2581300813008 66.41260162601625,68.95325203252033 66.66666666666667,68.64837398373983 66.97154471544715,68.34349593495935 67.22560975609755,68.03861788617886 67.53048780487805,67.6829268292683 67.83536585365853,67.3780487804878 68.08943089430895,67.02235772357723 68.39430894308943,66.71747967479675 68.69918699186992,66.41260162601625 69.0040650406504,66.0569105691057 69.2581300813008,65.70121951219512 69.5630081300813,65.39634146341463" fill="none" stroke="black" stroke-width="0.6"></polyline><polyline points="69.5630081300813,65.39634146341463 69.86788617886178,65.04065040650406 70.1219512195122,64.6849593495935 70.3760162601626,64.32926829268293 70.630081300813,64.02439024390243 70.83333333333333,63.668699186991866 71.13821138211382,63.3130081300813 71.34146341463415,62.95731707317073 71.59552845528455,62.55081300813008 71.84959349593495,62.14430894308943 72.10365853658537,61.83943089430894 72.35772357723577,61.483739837398375 72.61178861788618,61.1280487804878 72.8150406504065,60.77235772357724 73.01829268292683,60.416666666666664 73.22154471544715,60.0609756097561 73.42479674796748,59.75609756097561 73.57723577235772,59.451219512195124 73.78048780487805,59.09552845528455 73.8821138211382,58.790650406504064 74.03455284552845,58.485772357723576 74.1869918699187,58.18089430894309 74.28861788617886,57.92682926829268 74.4410569105691,57.62195121951219 74.59349593495935,57.3170731707317 74.6951219512195,57.0630081300813 74.84756097560975,56.80894308943089 74.94918699186992,56.5040650406504 75.05081300813008,56.25 75.20325203252033,55.94512195121951 75.30487804878048,55.6910569105691 75.35569105691057,55.4369918699187 75.45731707317073,55.18292682926829 75.5589430894309,54.8780487804878 75.66056910569105,54.67479674796748 75.71138211382113,54.420731707317074 75.8130081300813,54.166666666666664 75.86382113821138,53.96341463414634 75.86382113821138,53.709349593495936 75.91463414634146,53.50609756097561 75.96544715447155,53.302845528455286 75.96544715447155,53.048780487804876 76.01626016260163,52.84552845528455 76.01626016260163,52.59146341463415 76.0670731707317,52.38821138211382 76.0670731707317,52.13414634146341 76.11788617886178,51.93089430894309 76.11788617886178,51.72764227642276 76.16869918699187,51.52439024390244 76.16869918699187,51.37195121951219 76.16869918699187,51.168699186991866" fill="none" stroke="black" stroke-width="0.6"></polyline><polyline points="76.16869918699187,51.168699186991866 76.21951219512195,51.016260162601625 76.27032520325203,50.86382113821138 76.27032520325203,50.762195121951216 76.27032520325203,50.609756097560975 76.27032520325203,50.50813008130081 76.27032520325203,50.40650406504065 76.27032520325203,50.30487804878049 76.27032520325203,50.203252032520325 76.21951219512195,50.05081300813008 76.21951219512195,49.949186991869915 76.21951219512195,49.84756097560975 76.21951219512195,49.796747967479675 76.21951219512195,49.74593495934959 76.21951219512195,49.74593495934959" fill="none" stroke="black" stroke-width="0.6"></polyline></svg>