<svg height="100" width="100" preserveAspectRatio="xMidYMid meet"><polyline points="14.53252032520325,16.666666666666668 14.53252032520325,16.666666666666668 14.53252032520325,16.666666666666668 14.53252032520325,16.666666666666668 14.53252032520325,16.615853658536587 14.583333333333332,16.565040650406505 14.634146341463413,16.514227642276424 14.786585365853659,16.463414634146343 14.939024390243903,16.36178861788618 15.142276422764228,16.3109756097561 15.345528455284553,16.209349593495933 15.548780487804878,16.15853658536585 15.701219512195122,16.10772357723577 15.904471544715447,16.05691056910569 16.05691056910569,16.006097560975608 16.260162601626014,15.955284552845528 16.41260162601626,15.853658536585366 16.615853658536587,15.752032520325203 16.81910569105691,15.59959349593496 17.022357723577237,15.447154471544716 17.276422764227643,15.294715447154472 17.53048780487805,15.091463414634147 17.733739837398375,14.83739837398374 17.98780487804878,14.583333333333332 18.241869918699187,14.329268292682926 18.445121951219512,14.1260162601626 18.69918699186992,13.871951219512194 18.902439024390244,13.617886178861788 19.10569105691057,13.414634146341463 19.308943089430894,13.160569105691057 19.51219512195122,12.90650406504065 19.715447154471544,12.652439024390244 19.867886178861788,12.347560975609756 20.071138211382113,12.042682926829269 20.274390243902438,11.788617886178862 20.477642276422763,11.534552845528456 20.630081300813007,11.280487804878048 20.78252032520325,11.026422764227641 20.985772357723576,10.721544715447154 21.08739837398374,10.416666666666666 21.239837398373982,10.16260162601626 21.341463414634145,9.857723577235772 21.443089430894307,9.552845528455284 21.59552845528455,9.298780487804878 21.697154471544714,8.99390243902439 21.798780487804876,8.689024390243903 21.849593495934958,8.434959349593496 21.95121951219512,8.18089430894309 22.0020325203252,7.876016260162602 22.052845528455283,7.621951219512195 22.103658536585364,7.367886178861789" fill="none" stroke="black" stroke-width="0.6"></polyline><polyline points="22.103658536585364,7.367886178861789 22.103658536585364,7.215447154471544 22.154471544715445,7.0630081300813 22.154471544715445,6.859756097560975 22.154471544715445,6.7073170731707314 22.154471544715445,6.605691056910569 22.154471544715445,6.453252032520325 22.103658536585364,6.3516260162601625 22.103658536585364,6.25 22.052845528455283,6.1483739837398375 22.0020325203252,6.097560975609756 21.90040650406504,6.046747967479675 21.849593495934958,5.995934959349594 21.747967479674795,5.995934959349594 21.646341463414632,5.945121951219512 21.54471544715447,5.945121951219512 21.392276422764226,5.945121951219512 21.239837398373982,5.995934959349594 21.08739837398374,6.097560975609756 20.934959349593495,6.1483739837398375 20.73170731707317,6.300813008130081 20.579268292682926,6.402439024390244 20.426829268292682,6.504065040650406 20.32520325203252,6.65650406504065 20.172764227642276,6.808943089430894 20.071138211382113,7.012195121951219 19.96951219512195,7.164634146341463 19.867886178861788,7.367886178861789 19.766260162601625,7.571138211382114 19.664634146341463,7.774390243902439 19.5630081300813,8.079268292682926 19.410569105691057,8.333333333333334 19.308943089430894,8.58739837398374 19.15650406504065,8.892276422764228 19.054878048780488,9.146341463414634 18.902439024390244,9.40040650406504 18.75,9.654471544715447 18.597560975609756,9.857723577235772 18.495934959349594,10.111788617886178 18.34349593495935,10.365853658536585 18.29268292682927,10.619918699186991 18.191056910569106,10.924796747967479 18.140243902439025,11.178861788617885 18.089430894308943,11.483739837398375 18.038617886178862,11.737804878048781 17.98780487804878,12.09349593495935 17.9369918699187,12.398373983739837 17.88617886178862,12.754065040650406 17.835365853658537,13.109756097560975 17.835365853658537,13.414634146341463 17.835365853658537,13.71951219512195" fill="none" stroke="black" stroke-width="0.6"></polyline><polyline points="17.835365853658537,13.71951219512195 17.835365853658537,13.973577235772357 17.835365853658537,14.227642276422763 17.88617886178862,14.430894308943088 17.98780487804878,14.684959349593496 18.089430894308943,14.888211382113822 18.241869918699187,15.040650406504065 18.445121951219512,15.24390243902439 18.597560975609756,15.345528455284553 18.80081300813008,15.497967479674797 19.054878048780488,15.59959349593496 19.258130081300813,15.701219512195122 19.461382113821138,15.752032520325203 19.664634146341463,15.802845528455284 19.867886178861788,15.853658536585366 20.071138211382113,15.904471544715447 20.32520325203252,15.955284552845528 20.528455284552845,15.955284552845528 20.78252032520325,15.955284552845528 21.036585365853657,15.955284552845528 21.290650406504064,15.955284552845528 21.59552845528455,15.904471544715447 21.849593495934958,15.853658536585366 22.154471544715445,15.752032520325203 22.459349593495933,15.65040650406504 22.764227642276424,15.497967479674797 23.06910569105691,15.345528455284553 23.42479674796748,15.142276422764228 23.729674796747968,14.989837398373984 24.034552845528456,14.786585365853659 24.390243902439025,14.53252032520325 24.695121951219512,14.278455284552845 25,14.024390243902438 25.40650406504065,13.770325203252032 25.711382113821138,13.465447154471544 26.067073170731707,13.211382113821138 26.473577235772357,12.855691056910569 26.829268292682926,12.550813008130081 27.184959349593495,12.245934959349594 27.591463414634145,11.941056910569106 27.896341463414632,11.636178861788618 28.20121951219512,11.382113821138212 28.55691056910569,11.077235772357723 28.760162601626014,10.772357723577235 29.01422764227642,10.518292682926829 29.31910569105691,10.16260162601626 29.522357723577237,9.908536585365853 29.776422764227643,9.603658536585366 29.979674796747968,9.298780487804878 30.182926829268293,9.044715447154472 30.38617886178862,8.790650406504065" fill="none" stroke="black" stroke-width="0.6"></polyline><polyline points="30.38617886178862,8.790650406504065 30.538617886178862,8.536585365853659 30.640243902439025,8.282520325203253 30.79268292682927,8.028455284552845 30.84349593495935,7.774390243902439 30.945121951219512,7.571138211382114 30.945121951219512,7.367886178861789 30.995934959349594,7.215447154471544 31.046747967479675,7.0630081300813 31.046747967479675,6.9105691056910565 31.046747967479675,6.7073170731707314 31.046747967479675,6.554878048780488 31.046747967479675,6.402439024390244 31.046747967479675,6.25 31.046747967479675,6.097560975609756 30.995934959349594,5.995934959349594 30.995934959349594,5.84349593495935 30.89430894308943,5.741869918699187 30.84349593495935,5.691056910569106 30.79268292682927,5.589430894308943 30.691056910569106,5.538617886178861 30.640243902439025,5.48780487804878 30.538617886178862,5.436991869918699 30.4369918699187,5.436991869918699 30.335365853658537,5.3861788617886175 30.233739837398375,5.3861788617886175 30.132113821138212,5.3861788617886175 30.03048780487805,5.436991869918699 29.878048780487806,5.436991869918699 29.776422764227643,5.48780487804878 29.6239837398374,5.538617886178861 29.522357723577237,5.589430894308943 29.420731707317074,5.640243902439024 29.31910569105691,5.691056910569106 29.217479674796746,5.7926829268292686 29.115853658536583,5.894308943089431 29.01422764227642,5.945121951219512 28.96341463414634,6.046747967479675 28.861788617886177,6.1483739837398375 28.760162601626014,6.300813008130081 28.65853658536585,6.402439024390244 28.55691056910569,6.605691056910569 28.404471544715445,6.758130081300813 28.2520325203252,6.9105691056910565 28.048780487804876,7.113821138211382 27.84552845528455,7.317073170731707 27.642276422764226,7.520325203252033 27.4390243902439,7.774390243902439 27.235772357723576,8.028455284552845 27.03252032520325,8.282520325203253 26.829268292682926,8.536585365853659" fill="none" stroke="black" stroke-width="0.6"></polyline><polyline points="26.829268292682926,8.536585365853659 26.57520325203252,8.790650406504065 26.473577235772357,8.99390243902439 26.321138211382113,9.197154471544716 26.21951219512195,9.451219512195122 26.16869918699187,9.603658536585366 26.117886178861788,9.80691056910569 26.067073170731707,10.010162601626016 26.016260162601625,10.16260162601626 25.965447154471544,10.365853658536585 25.914634146341463,10.56910569105691 25.914634146341463,10.772357723577235 25.8130081300813,10.97560975609756 25.76219512195122,11.178861788617885 25.660569105691057,11.382113821138212 25.609756097560975,11.534552845528456 25.508130081300813,11.788617886178862 25.45731707317073,11.941056910569106 25.40650406504065,12.144308943089431 25.35569105691057,12.347560975609756 25.304878048780488,12.550813008130081 25.304878048780488,12.804878048780488 25.254065040650406,13.058943089430894 25.254065040650406,13.262195121951219 25.254065040650406,13.465447154471544 25.254065040650406,13.66869918699187 25.254065040650406,13.821138211382113 25.254065040650406,13.973577235772357 25.304878048780488,14.1260162601626 25.40650406504065,14.227642276422763 25.508130081300813,14.380081300813007 25.609756097560975,14.53252032520325 25.711382113821138,14.634146341463413 25.86382113821138,14.735772357723578 25.965447154471544,14.888211382113822 26.117886178861788,14.939024390243903 26.270325203252032,15.040650406504065 26.422764227642276,15.091463414634147 26.57520325203252,15.19308943089431 26.727642276422763,15.24390243902439 26.93089430894309,15.294715447154472 27.134146341463413,15.345528455284553 27.33739837398374,15.396341463414634 27.540650406504064,15.396341463414634 27.74390243902439,15.447154471544716 27.947154471544714,15.447154471544716 28.20121951219512,15.447154471544716 28.455284552845526,15.447154471544716 28.709349593495933,15.396341463414634 29.01422764227642,15.294715447154472 29.369918699186993,15.19308943089431" fill="none" stroke="black" stroke-width="0.6"></polyline><polyline points="29.369918699186993,15.19308943089431 29.67479674796748,15.040650406504065 30.08130081300813,14.83739837398374 30.4369918699187,14.634146341463413 30.84349593495935,14.430894308943088 31.25,14.227642276422763 31.65650406504065,13.973577235772357 32.16463414634146,13.71951219512195 32.52032520325203,13.516260162601625 32.97764227642276,13.262195121951219 33.4349593495935,12.957317073170731 33.892276422764226,12.652439024390244 34.34959349593496,12.347560975609756 34.857723577235774,11.991869918699187 35.3150406504065,11.6869918699187 35.77235772357724,11.382113821138212 36.229674796747965,11.026422764227641 36.58536585365854,10.721544715447154 36.99186991869919,10.365853658536585 37.449186991869915,9.908536585365853 37.80487804878049,9.552845528455284 38.109756097560975,9.197154471544716 38.46544715447154,8.790650406504065 38.77032520325203,8.434959349593496 39.02439024390244,8.079268292682926 39.27845528455285,7.6727642276422765 39.48170731707317,7.367886178861789 39.6849593495935,7.0630081300813 39.83739837398374,6.758130081300813 39.989837398373986,6.504065040650406 40.09146341463415,6.199186991869919 40.24390243902439,5.894308943089431 40.29471544715447,5.691056910569106 40.34552845528455,5.436991869918699 40.34552845528455,5.233739837398374 40.396341463414636,5.08130081300813 40.396341463414636,4.928861788617886 40.396341463414636,4.776422764227642 40.34552845528455,4.67479674796748 40.24390243902439,4.573170731707317 40.142276422764226,4.522357723577236 40.040650406504064,4.471544715447155 39.9390243902439,4.420731707317073 39.78658536585366,4.369918699186992 39.6849593495935,4.369918699186992 39.583333333333336,4.369918699186992 39.43089430894309,4.369918699186992 39.329268292682926,4.369918699186992 39.176829268292686,4.420731707317073 39.02439024390244,4.471544715447155 38.87195121951219,4.573170731707317" fill="none" stroke="black" stroke-width="0.6"></polyline><polyline points="38.87195121951219,4.573170731707317 38.668699186991866,4.67479674796748 38.516260162601625,4.776422764227642 38.36382113821138,4.878048780487805 38.16056910569105,5.030487804878049 38.00813008130081,5.182926829268292 37.80487804878049,5.3861788617886175 37.60162601626016,5.538617886178861 37.39837398373984,5.7926829268292686 37.14430894308943,6.046747967479675 36.890243902439025,6.300813008130081 36.636178861788615,6.605691056910569 36.38211382113821,6.9105691056910565 36.1280487804878,7.164634146341463 35.8739837398374,7.469512195121951 35.61991869918699,7.723577235772358 35.416666666666664,7.977642276422764 35.21341463414634,8.282520325203253 35.0609756097561,8.58739837398374 34.857723577235774,8.841463414634147 34.603658536585364,9.146341463414634 34.40040650406504,9.34959349593496 34.197154471544714,9.654471544715447 34.04471544715447,9.908536585365853 33.892276422764226,10.16260162601626 33.739837398373986,10.467479674796747 33.6890243902439,10.721544715447154 33.58739837398374,10.97560975609756 33.53658536585366,11.331300813008129 33.485772357723576,11.585365853658537 33.4349593495935,11.890243902439025 33.38414634146341,12.245934959349594 33.38414634146341,12.550813008130081 33.38414634146341,12.90650406504065 33.333333333333336,13.262195121951219 33.333333333333336,13.516260162601625 33.333333333333336,13.821138211382113 33.38414634146341,14.07520325203252 33.4349593495935,14.278455284552845 33.58739837398374,14.53252032520325 33.739837398373986,14.786585365853659 33.892276422764226,14.989837398373984 34.09552845528455,15.19308943089431 34.40040650406504,15.447154471544716 34.65447154471545,15.65040650406504 35.010162601626014,15.802845528455284 35.416666666666664,16.006097560975608 35.8739837398374,16.10772357723577 36.43292682926829,16.209349593495933 36.99186991869919,16.3109756097561 37.55081300813008,16.36178861788618" fill="none" stroke="black" stroke-width="0.6"></polyline><polyline points="37.55081300813008,16.36178861788618 38.109756097560975,16.41260162601626 38.71951219512195,16.514227642276424 39.176829268292686,16.615853658536587 39.6849593495935,16.76829268292683 40.142276422764226,16.920731707317074 40.548780487804876,17.1239837398374 40.90447154471545,17.378048780487806 41.3109756097561,17.58130081300813 41.61585365853659,17.835365853658537 41.97154471544715,18.089430894308943" fill="none" stroke="black" stroke-width="0.6"></polyline><polyline points="15.802845528455284,36.78861788617886 15.853658536585366,36.636178861788615 16.05691056910569,36.33130081300813 16.3109756097561,36.1280487804878 16.565040650406505,35.92479674796748 16.869918699186993,35.670731707317074 17.17479674796748,35.416666666666664 17.479674796747968,35.16260162601626 17.784552845528456,34.857723577235774 18.038617886178862,34.552845528455286 18.34349593495935,34.197154471544714 18.648373983739837,33.84146341463415 18.902439024390244,33.53658536585366 19.20731707317073,33.18089430894309 19.461382113821138,32.82520325203252 19.715447154471544,32.418699186991866 19.96951219512195,32.012195121951216 20.223577235772357,31.554878048780488 20.426829268292682,31.148373983739837 20.630081300813007,30.79268292682927 20.833333333333332,30.38617886178862 21.036585365853657,29.979674796747968 21.239837398373982,29.573170731707318 21.443089430894307,29.166666666666664 21.646341463414632,28.810975609756095 21.849593495934958,28.353658536585364 22.052845528455283,27.947154471544714 22.205284552845526,27.540650406504064 22.35772357723577,27.083333333333332 22.510162601626014,26.727642276422763 22.560975609756095,26.422764227642276 22.662601626016258,26.067073170731707 22.662601626016258,25.8130081300813 22.662601626016258,25.508130081300813 22.662601626016258,25.203252032520325 22.662601626016258,25 22.611788617886177,24.796747967479675 22.560975609756095,24.59349593495935 22.510162601626014,24.441056910569106 22.40853658536585,24.288617886178862 22.35772357723577,24.1869918699187 22.256097560975608,24.085365853658537 22.154471544715445,24.034552845528456 22.0020325203252,23.932926829268293 21.90040650406504,23.932926829268293 21.798780487804876,23.882113821138212 21.646341463414632,23.882113821138212 21.49390243902439,23.932926829268293 21.341463414634145,24.034552845528456 21.13821138211382,24.13617886178862 20.934959349593495,24.288617886178862" fill="none" stroke="black" stroke-width="0.6"></polyline><polyline points="20.934959349593495,24.288617886178862 20.78252032520325,24.491869918699187 20.528455284552845,24.745934959349594 20.32520325203252,25 20.121951219512194,25.254065040650406 19.867886178861788,25.660569105691057 19.61382113821138,26.016260162601625 19.359756097560975,26.422764227642276 19.15650406504065,26.880081300813007 18.902439024390244,27.286585365853657 18.69918699186992,27.74390243902439 18.495934959349594,28.20121951219512 18.34349593495935,28.65853658536585 18.140243902439025,29.0650406504065 17.98780487804878,29.522357723577237 17.835365853658537,29.928861788617887 17.733739837398375,30.38617886178862 17.632113821138212,30.84349593495935 17.58130081300813,31.25 17.53048780487805,31.65650406504065 17.53048780487805,32.0630081300813 17.53048780487805,32.418699186991866 17.53048780487805,32.82520325203252 17.53048780487805,33.18089430894309 17.632113821138212,33.485772357723576 17.733739837398375,33.790650406504064 17.88617886178862,34.09552845528455 18.038617886178862,34.34959349593496 18.191056910569106,34.603658536585364 18.39430894308943,34.80691056910569 18.597560975609756,34.959349593495936 18.851626016260163,35.11178861788618 19.10569105691057,35.21341463414634 19.359756097560975,35.3150406504065 19.61382113821138,35.36585365853659 19.91869918699187,35.416666666666664 20.223577235772357,35.416666666666664 20.579268292682926,35.416666666666664 20.985772357723576,35.3150406504065 21.392276422764226,35.21341463414634 21.747967479674795,35.11178861788618 22.154471544715445,34.959349593495936 22.510162601626014,34.75609756097561 22.916666666666668,34.552845528455286 23.272357723577237,34.34959349593496 23.678861788617887,34.09552845528455 24.034552845528456,33.84146341463415 24.390243902439025,33.58739837398374 24.796747967479675,33.28252032520325 25.203252032520325,32.97764227642276 25.609756097560975,32.672764227642276" fill="none" stroke="black" stroke-width="0.6"></polyline><polyline points="25.609756097560975,32.672764227642276 26.016260162601625,32.3170731707317 26.422764227642276,31.910569105691057 26.727642276422763,31.554878048780488 27.083333333333332,31.148373983739837 27.489837398373982,30.741869918699187 27.79471544715447,30.38617886178862 28.099593495934958,29.979674796747968 28.455284552845526,29.522357723577237 28.760162601626014,29.115853658536583 29.0650406504065,28.709349593495933 29.420731707317074,28.2520325203252 29.67479674796748,27.84552845528455 29.979674796747968,27.38821138211382 30.233739837398375,26.98170731707317 30.4369918699187,26.57520325203252 30.640243902439025,26.21951219512195 30.84349593495935,25.8130081300813 30.995934959349594,25.45731707317073 31.148373983739837,25.05081300813008 31.30081300813008,24.695121951219512 31.351626016260163,24.441056910569106 31.453252032520325,24.1869918699187 31.504065040650406,23.983739837398375 31.504065040650406,23.78048780487805 31.504065040650406,23.577235772357724 31.504065040650406,23.42479674796748 31.504065040650406,23.272357723577237 31.402439024390244,23.170731707317074 31.351626016260163,23.06910569105691 31.25,22.96747967479675 31.148373983739837,22.916666666666668 31.046747967479675,22.916666666666668 30.89430894308943,22.916666666666668 30.741869918699187,22.916666666666668 30.589430894308943,22.916666666666668 30.4369918699187,22.96747967479675 30.233739837398375,23.01829268292683 30.03048780487805,23.170731707317074 29.827235772357724,23.323170731707318 29.6239837398374,23.526422764227643 29.369918699186993,23.729674796747968 29.115853658536583,23.983739837398375 28.861788617886177,24.288617886178862 28.55691056910569,24.59349593495935 28.353658536585364,24.847560975609756 28.099593495934958,25.203252032520325 27.84552845528455,25.558943089430894 27.642276422764226,25.914634146341463 27.4390243902439,26.270325203252032 27.184959349593495,26.6260162601626" fill="none" stroke="black" stroke-width="0.6"></polyline><polyline points="27.184959349593495,26.6260162601626 26.98170731707317,26.98170731707317 26.778455284552845,27.33739837398374 26.524390243902438,27.79471544715447 26.321138211382113,28.20121951219512 26.067073170731707,28.65853658536585 25.86382113821138,29.0650406504065 25.660569105691057,29.471544715447155 25.508130081300813,29.928861788617887 25.304878048780488,30.38617886178862 25.152439024390244,30.79268292682927 25,31.19918699186992 24.847560975609756,31.554878048780488 24.695121951219512,31.910569105691057 24.59349593495935,32.3170731707317 24.54268292682927,32.6219512195122 24.491869918699187,32.926829268292686 24.441056910569106,33.28252032520325 24.441056910569106,33.53658536585366 24.441056910569106,33.790650406504064 24.491869918699187,34.04471544715447 24.59349593495935,34.2479674796748 24.745934959349594,34.40040650406504 24.898373983739837,34.603658536585364 25.05081300813008,34.75609756097561 25.254065040650406,34.857723577235774 25.508130081300813,34.959349593495936 25.76219512195122,35.0609756097561 26.067073170731707,35.11178861788618 26.371951219512194,35.11178861788618 26.676829268292682,35.16260162601626 26.98170731707317,35.16260162601626 27.33739837398374,35.11178861788618 27.642276422764226,35.010162601626014 27.997967479674795,34.90853658536585 28.404471544715445,34.70528455284553 28.810975609756095,34.552845528455286 29.217479674796746,34.298780487804876 29.725609756097562,33.99390243902439 30.132113821138212,33.739837398373986 30.589430894308943,33.4349593495935 31.097560975609756,33.079268292682926 31.554878048780488,32.82520325203252 32.0630081300813,32.46951219512195 32.57113821138211,32.11382113821138 33.02845528455285,31.758130081300813 33.485772357723576,31.402439024390244 33.94308943089431,30.995934959349594 34.34959349593496,30.640243902439025 34.75609756097561,30.233739837398375 35.16260162601626,29.827235772357724" fill="none" stroke="black" stroke-width="0.6"></polyline><polyline points="35.16260162601626,29.827235772357724 35.56910569105691,29.420731707317074 35.97560975609756,29.01422764227642 36.33130081300813,28.60772357723577 36.6869918699187,28.20121951219512 37.042682926829265,27.74390243902439 37.39837398373984,27.286585365853657 37.65243902439024,26.880081300813007 37.90650406504065,26.473577235772357 38.16056910569105,26.067073170731707 38.36382113821138,25.660569105691057 38.516260162601625,25.304878048780488 38.668699186991866,24.94918699186992 38.77032520325203,24.64430894308943 38.87195121951219,24.339430894308943 38.922764227642276,24.034552845528456 38.97357723577235,23.78048780487805 39.02439024390244,23.526422764227643 39.02439024390244,23.221544715447155 39.02439024390244,23.01829268292683 39.02439024390244,22.815040650406505 38.97357723577235,22.611788617886177 38.922764227642276,22.40853658536585 38.87195121951219,22.30691056910569 38.82113821138211,22.154471544715445 38.71951219512195,22.052845528455283 38.61788617886179,22.0020325203252 38.516260162601625,21.90040650406504 38.36382113821138,21.90040650406504 38.21138211382114,21.90040650406504 38.00813008130081,21.90040650406504 37.80487804878049,21.90040650406504 37.55081300813008,22.0020325203252 37.34756097560975,22.154471544715445 37.042682926829265,22.30691056910569 36.73780487804878,22.459349593495933 36.43292682926829,22.662601626016258 36.1280487804878,22.865853658536587 35.77235772357724,23.119918699186993 35.46747967479675,23.3739837398374 35.16260162601626,23.628048780487806 34.90853658536585,23.932926829268293 34.65447154471545,24.1869918699187 34.40040650406504,24.441056910569106 34.146341463414636,24.796747967479675 33.892276422764226,25.152439024390244 33.63821138211382,25.508130081300813 33.38414634146341,25.965447154471544 33.079268292682926,26.422764227642276 32.82520325203252,26.829268292682926 32.52032520325203,27.286585365853657" fill="none" stroke="black" stroke-width="0.6"></polyline><polyline points="32.52032520325203,27.286585365853657 32.3170731707317,27.74390243902439 32.0630081300813,28.20121951219512 31.808943089430894,28.709349593495933 31.60569105691057,29.166666666666664 31.453252032520325,29.573170731707318 31.30081300813008,30.08130081300813 31.19918699186992,30.48780487804878 31.148373983739837,30.945121951219512 31.097560975609756,31.453252032520325 31.046747967479675,31.859756097560975 30.995934959349594,32.36788617886179 30.945121951219512,32.8760162601626 30.945121951219512,33.28252032520325 30.995934959349594,33.6890243902439 31.046747967479675,34.04471544715447 31.25,34.34959349593496 31.453252032520325,34.70528455284553 31.758130081300813,35.0609756097561 32.0630081300813,35.3150406504065 32.418699186991866,35.61991869918699 32.77439024390244,35.92479674796748 33.18089430894309,36.1280487804878 33.63821138211382,36.33130081300813 34.197154471544714,36.483739837398375 34.70528455284553,36.58536585365854 35.264227642276424,36.636178861788615 35.823170731707314,36.6869918699187 36.43292682926829,36.6869918699187 36.99186991869919,36.6869918699187 37.60162601626016,36.6869918699187 38.109756097560975,36.6869918699187 38.668699186991866,36.78861788617886 39.176829268292686,36.890243902439025 39.583333333333336,36.99186991869919 39.989837398373986,37.14430894308943" fill="none" stroke="black" stroke-width="0.6"></polyline><polyline points="16.209349593495933,56.09756097560975 16.41260162601626,55.792682926829265 16.71747967479675,55.48780487804878 17.022357723577237,55.233739837398375 17.428861788617887,54.92886178861789 17.784552845528456,54.6239837398374 18.140243902439025,54.26829268292683 18.495934959349594,53.91260162601626 18.851626016260163,53.50609756097561 19.20731707317073,53.15040650406504 19.51219512195122,52.79471544715447 19.817073170731707,52.489837398373986 20.071138211382113,52.083333333333336 20.274390243902438,51.72764227642276 20.477642276422763,51.32113821138211 20.68089430894309,50.86382113821138 20.884146341463413,50.50813008130081 21.08739837398374,50.10162601626016 21.239837398373982,49.64430894308943 21.341463414634145,49.23780487804878 21.49390243902439,48.83130081300813 21.59552845528455,48.47560975609756 21.697154471544714,48.11991869918699 21.798780487804876,47.8150406504065 21.90040650406504,47.40853658536585 21.95121951219512,47.103658536585364 22.0020325203252,46.7479674796748 22.052845528455283,46.392276422764226 22.052845528455283,46.13821138211382 22.103658536585364,45.88414634146341 22.103658536585364,45.579268292682926 22.154471544715445,45.27439024390244 22.154471544715445,44.96951219512195 22.154471544715445,44.66463414634146 22.154471544715445,44.41056910569105 22.154471544715445,44.20731707317073 22.103658536585364,44.05487804878049 22.0020325203252,43.953252032520325 21.849593495934958,43.85162601626016 21.697154471544714,43.75 21.54471544715447,43.75 21.392276422764226,43.75 21.13821138211382,43.75 20.934959349593495,43.75 20.73170731707317,43.80081300813008 20.528455284552845,43.85162601626016 20.32520325203252,43.953252032520325 20.121951219512194,44.05487804878049 19.867886178861788,44.20731707317073 19.715447154471544,44.30894308943089 19.51219512195122,44.512195121951216" fill="none" stroke="black" stroke-width="0.6"></polyline><polyline points="19.51219512195122,44.512195121951216 19.308943089430894,44.71544715447154 19.10569105691057,44.96951219512195 18.902439024390244,45.27439024390244 18.69918699186992,45.63008130081301 18.495934959349594,45.985772357723576 18.29268292682927,46.392276422764226 18.038617886178862,46.84959349593496 17.835365853658537,47.30691056910569 17.58130081300813,47.764227642276424 17.378048780487806,48.22154471544715 17.225609756097562,48.6280487804878 17.073170731707318,49.03455284552845 16.971544715447155,49.4410569105691 16.920731707317074,49.84756097560975 16.920731707317074,50.203252032520325 16.920731707317074,50.55894308943089 16.920731707317074,50.91463414634146 16.971544715447155,51.21951219512195 17.022357723577237,51.575203252032516 17.073170731707318,51.93089430894309 17.17479674796748,52.28658536585366 17.276422764227643,52.642276422764226 17.428861788617887,52.947154471544714 17.53048780487805,53.2520325203252 17.682926829268293,53.55691056910569 17.835365853658537,53.86178861788618 18.038617886178862,54.0650406504065 18.241869918699187,54.31910569105691 18.445121951219512,54.47154471544715 18.69918699186992,54.6239837398374 18.902439024390244,54.72560975609756 19.15650406504065,54.827235772357724 19.461382113821138,54.8780487804878 19.766260162601625,54.92886178861789 20.071138211382113,54.92886178861789 20.426829268292682,54.92886178861789 20.78252032520325,54.92886178861789 21.13821138211382,54.8780487804878 21.59552845528455,54.827235772357724 21.95121951219512,54.72560975609756 22.35772357723577,54.573170731707314 22.815040650406505,54.420731707317074 23.221544715447155,54.21747967479675 23.678861788617887,53.96341463414634 24.13617886178862,53.709349593495936 24.54268292682927,53.45528455284553 24.94918699186992,53.15040650406504 25.40650406504065,52.84552845528455 25.76219512195122,52.59146341463415 26.16869918699187,52.28658536585366" fill="none" stroke="black" stroke-width="0.6"></polyline><polyline points="26.16869918699187,52.28658536585366 26.57520325203252,51.981707317073166 26.98170731707317,51.6260162601626 27.38821138211382,51.27032520325203 27.84552845528455,50.86382113821138 28.2520325203252,50.50813008130081 28.60772357723577,50.15243902439024 29.01422764227642,49.74593495934959 29.31910569105691,49.390243902439025 29.67479674796748,48.983739837398375 29.979674796747968,48.577235772357724 30.284552845528456,48.27235772357724 30.538617886178862,47.916666666666664 30.79268292682927,47.510162601626014 30.995934959349594,47.15447154471545 31.148373983739837,46.798780487804876 31.30081300813008,46.49390243902439 31.453252032520325,46.13821138211382 31.554878048780488,45.833333333333336 31.65650406504065,45.52845528455285 31.70731707317073,45.172764227642276 31.758130081300813,44.86788617886179 31.808943089430894,44.512195121951216 31.808943089430894,44.25813008130081 31.808943089430894,44.0040650406504 31.808943089430894,43.75 31.808943089430894,43.546747967479675 31.758130081300813,43.34349593495935 31.70731707317073,43.140243902439025 31.60569105691057,42.9369918699187 31.554878048780488,42.733739837398375 31.453252032520325,42.58130081300813 31.402439024390244,42.3780487804878 31.30081300813008,42.22560975609756 31.19918699186992,42.073170731707314 31.097560975609756,41.920731707317074 30.995934959349594,41.81910569105691 30.89430894308943,41.76829268292683 30.741869918699187,41.71747967479675 30.640243902439025,41.71747967479675 30.48780487804878,41.71747967479675 30.38617886178862,41.81910569105691 30.233739837398375,41.920731707317074 30.08130081300813,42.073170731707314 29.878048780487806,42.27642276422764 29.725609756097562,42.479674796747965 29.522357723577237,42.68292682926829 29.31910569105691,42.9369918699187 29.0650406504065,43.1910569105691 28.861788617886177,43.44512195121951 28.65853658536585,43.699186991869915" fill="none" stroke="black" stroke-width="0.6"></polyline><polyline points="28.65853658536585,43.699186991869915 28.455284552845526,44.0040650406504 28.2520325203252,44.30894308943089 28.099593495934958,44.61382113821138 27.896341463414632,44.96951219512195 27.693089430894307,45.325203252032516 27.540650406504064,45.68089430894309 27.33739837398374,46.08739837398374 27.134146341463413,46.44308943089431 26.93089430894309,46.798780487804876 26.727642276422763,47.20528455284553 26.57520325203252,47.5609756097561 26.422764227642276,47.916666666666664 26.270325203252032,48.27235772357724 26.21951219512195,48.577235772357724 26.16869918699187,48.83130081300813 26.117886178861788,49.136178861788615 26.117886178861788,49.4410569105691 26.117886178861788,49.69512195121951 26.117886178861788,50.05081300813008 26.117886178861788,50.30487804878049 26.117886178861788,50.55894308943089 26.117886178861788,50.86382113821138 26.117886178861788,51.11788617886179 26.117886178861788,51.422764227642276 26.117886178861788,51.72764227642276 26.16869918699187,51.981707317073166 26.21951219512195,52.235772357723576 26.270325203252032,52.540650406504064 26.371951219512194,52.74390243902439 26.473577235772357,52.896341463414636 26.6260162601626,53.09959349593496 26.778455284552845,53.2520325203252 26.93089430894309,53.40447154471545 27.134146341463413,53.55691056910569 27.38821138211382,53.65853658536585 27.642276422764226,53.760162601626014 27.997967479674795,53.8109756097561 28.302845528455283,53.8109756097561 28.65853658536585,53.8109756097561 29.0650406504065,53.760162601626014 29.471544715447155,53.709349593495936 29.827235772357724,53.55691056910569 30.284552845528456,53.45528455284553 30.640243902439025,53.353658536585364 30.995934959349594,53.2520325203252 31.351626016260163,53.15040650406504 31.65650406504065,53.09959349593496 31.961382113821138,52.9979674796748 32.266260162601625,52.947154471544714 32.57113821138211,52.84552845528455" fill="none" stroke="black" stroke-width="0.6"></polyline><polyline points="32.57113821138211,52.84552845528455 32.926829268292686,52.69308943089431 33.28252032520325,52.489837398373986 33.63821138211382,52.28658536585366 33.99390243902439,52.03252032520325 34.40040650406504,51.72764227642276 34.75609756097561,51.422764227642276 35.16260162601626,51.0670731707317 35.56910569105691,50.71138211382114 35.92479674796748,50.355691056910565 36.28048780487805,50 36.636178861788615,49.64430894308943 36.9410569105691,49.23780487804878 37.24593495934959,48.83130081300813 37.55081300813008,48.42479674796748 37.7540650406504,48.06910569105691 38.05894308943089,47.66260162601626 38.3130081300813,47.20528455284553 38.516260162601625,46.798780487804876 38.77032520325203,46.34146341463415 38.97357723577235,45.985772357723576 39.1260162601626,45.579268292682926 39.329268292682926,45.12195121951219 39.43089430894309,44.766260162601625 39.53252032520325,44.359756097560975 39.583333333333336,44.0040650406504 39.63414634146341,43.64837398373984 39.63414634146341,43.34349593495935 39.63414634146341,43.03861788617886 39.63414634146341,42.733739837398375 39.63414634146341,42.42886178861789 39.53252032520325,42.1239837398374 39.48170731707317,41.920731707317074 39.38008130081301,41.666666666666664 39.329268292682926,41.46341463414634 39.22764227642276,41.260162601626014 39.1260162601626,41.05691056910569 39.02439024390244,40.90447154471545 38.922764227642276,40.7520325203252 38.77032520325203,40.65040650406504 38.61788617886179,40.59959349593496 38.46544715447154,40.548780487804876 38.262195121951216,40.548780487804876 38.00813008130081,40.548780487804876 37.7540650406504,40.59959349593496 37.5,40.7520325203252 37.24593495934959,40.90447154471545 36.99186991869919,41.05691056910569 36.73780487804878,41.260162601626014 36.43292682926829,41.514227642276424 36.229674796747965,41.76829268292683" fill="none" stroke="black" stroke-width="0.6"></polyline><polyline points="36.229674796747965,41.76829268292683 35.97560975609756,42.02235772357724 35.72154471544715,42.327235772357724 35.46747967479675,42.63211382113821 35.21341463414634,43.03861788617886 34.959349593495936,43.39430894308943 34.75609756097561,43.80081300813008 34.5020325203252,44.20731707317073 34.298780487804876,44.61382113821138 34.09552845528455,45.02032520325203 33.892276422764226,45.47764227642276 33.739837398373986,45.9349593495935 33.63821138211382,46.34146341463415 33.58739837398374,46.798780487804876 33.485772357723576,47.20528455284553 33.4349593495935,47.61178861788618 33.4349593495935,48.06910569105691 33.38414634146341,48.47560975609756 33.333333333333336,48.88211382113821 33.23170731707317,49.33943089430894 33.18089430894309,49.84756097560975 33.13008130081301,50.30487804878049 33.079268292682926,50.762195121951216 33.079268292682926,51.27032520325203 33.079268292682926,51.67682926829268 33.18089430894309,52.083333333333336 33.333333333333336,52.489837398373986 33.485772357723576,52.84552845528455 33.739837398373986,53.201219512195124 33.99390243902439,53.55691056910569 34.2479674796748,53.86178861788618 34.603658536585364,54.11585365853659 35.010162601626014,54.36991869918699 35.416666666666664,54.573170731707314 35.97560975609756,54.72560975609756 36.53455284552845,54.827235772357724 37.14430894308943,54.8780487804878 37.7540650406504,54.92886178861789 38.36382113821138,54.979674796747965 38.97357723577235,55.03048780487805 39.53252032520325,55.08130081300813 40.040650406504064,55.13211382113821 40.4979674796748,55.233739837398375 40.90447154471545,55.33536585365854 41.209349593495936,55.48780487804878 41.514227642276424,55.58943089430894 41.76829268292683,55.792682926829265 41.920731707317074,55.94512195121951 41.97154471544715,55.99593495934959" fill="none" stroke="black" stroke-width="0.6"></polyline><polyline points="16.3109756097561,75.05081300813008 16.41260162601626,74.94918699186992 16.565040650406505,74.79674796747967 16.76829268292683,74.64430894308943 17.073170731707318,74.4410569105691 17.327235772357724,74.28861788617886 17.632113821138212,74.08536585365853 17.9369918699187,73.83130081300813 18.191056910569106,73.57723577235772 18.495934959349594,73.3739837398374 18.80081300813008,73.0691056910569 19.054878048780488,72.8150406504065 19.258130081300813,72.61178861788618 19.51219512195122,72.35772357723577 19.664634146341463,72.10365853658537 19.817073170731707,71.84959349593495 20.020325203252032,71.59552845528455 20.172764227642276,71.29065040650406 20.3760162601626,70.98577235772358 20.579268292682926,70.630081300813 20.73170731707317,70.32520325203252 20.934959349593495,69.96951219512195 21.13821138211382,69.61382113821138 21.290650406504064,69.2581300813008 21.443089430894307,68.90243902439025 21.59552845528455,68.54674796747967 21.646341463414632,68.1910569105691 21.747967479674795,67.88617886178862 21.747967479674795,67.53048780487805 21.798780487804876,67.27642276422765 21.798780487804876,66.97154471544715 21.798780487804876,66.61585365853658 21.798780487804876,66.36178861788618 21.747967479674795,66.0569105691057 21.697154471544714,65.80284552845528 21.646341463414632,65.59959349593495 21.59552845528455,65.39634146341463 21.54471544715447,65.1930894308943 21.443089430894307,65.04065040650406 21.341463414634145,64.88821138211382 21.239837398373982,64.78658536585365 21.1890243902439,64.6849593495935 21.08739837398374,64.58333333333333 20.985772357723576,64.53252032520325 20.884146341463413,64.53252032520325 20.78252032520325,64.53252032520325 20.68089430894309,64.53252032520325 20.579268292682926,64.58333333333333 20.477642276422763,64.6341463414634 20.32520325203252,64.73577235772358 20.172764227642276,64.88821138211382" fill="none" stroke="black" stroke-width="0.6"></polyline><polyline points="20.172764227642276,64.88821138211382 20.020325203252032,65.04065040650406 19.867886178861788,65.2439024390244 19.715447154471544,65.44715447154472 19.51219512195122,65.70121951219512 19.308943089430894,65.95528455284553 19.15650406504065,66.20934959349593 18.953252032520325,66.51422764227642 18.75,66.869918699187 18.546747967479675,67.22560975609755 18.39430894308943,67.6321138211382 18.241869918699187,67.9369918699187 18.089430894308943,68.29268292682927 17.9369918699187,68.59756097560975 17.835365853658537,68.90243902439025 17.784552845528456,69.20731707317073 17.682926829268293,69.5630081300813 17.632113821138212,69.86788617886178 17.632113821138212,70.1219512195122 17.58130081300813,70.42682926829268 17.58130081300813,70.68089430894308 17.58130081300813,70.9349593495935 17.58130081300813,71.23983739837398 17.58130081300813,71.54471544715447 17.58130081300813,71.84959349593495 17.58130081300813,72.15447154471545 17.58130081300813,72.40853658536585 17.58130081300813,72.66260162601625 17.632113821138212,72.91666666666667 17.682926829268293,73.119918699187 17.784552845528456,73.32317073170732 17.88617886178862,73.52642276422765 17.98780487804878,73.67886178861788 18.089430894308943,73.83130081300813 18.191056910569106,73.9329268292683 18.34349593495935,74.03455284552845 18.445121951219512,74.13617886178862 18.597560975609756,74.23780487804878 18.75,74.28861788617886 18.851626016260163,74.33943089430895 19.004065040650406,74.39024390243902 19.15650406504065,74.4410569105691 19.258130081300813,74.49186991869918 19.410569105691057,74.49186991869918 19.51219512195122,74.54268292682927 19.61382113821138,74.59349593495935 19.715447154471544,74.59349593495935 19.817073170731707,74.64430894308943 19.867886178861788,74.64430894308943 19.91869918699187,74.6951219512195 19.96951219512195,74.6951219512195" fill="none" stroke="black" stroke-width="0.6"></polyline><polyline points="19.96951219512195,74.6951219512195 20.020325203252032,74.6951219512195 20.071138211382113,74.7459349593496 20.121951219512194,74.7459349593496 20.172764227642276,74.7459349593496 20.172764227642276,74.79674796747967 20.223577235772357,74.79674796747967 20.223577235772357,74.79674796747967 20.274390243902438,74.79674796747967 20.274390243902438,74.79674796747967 20.32520325203252,74.79674796747967 20.32520325203252,74.79674796747967 20.32520325203252,74.79674796747967 20.3760162601626,74.79674796747967 20.3760162601626,74.79674796747967 20.3760162601626,74.79674796747967 20.3760162601626,74.79674796747967 20.3760162601626,74.79674796747967 20.426829268292682,74.79674796747967 20.426829268292682,74.79674796747967 20.426829268292682,74.79674796747967 20.426829268292682,74.79674796747967 20.477642276422763,74.79674796747967 20.477642276422763,74.79674796747967 20.477642276422763,74.79674796747967 20.528455284552845,74.79674796747967 20.528455284552845,74.79674796747967 20.579268292682926,74.79674796747967 20.630081300813007,74.79674796747967 20.68089430894309,74.79674796747967 20.73170731707317,74.7459349593496 20.78252032520325,74.7459349593496 20.833333333333332,74.7459349593496 20.934959349593495,74.6951219512195 20.985772357723576,74.6951219512195 21.08739837398374,74.64430894308943 21.1890243902439,74.64430894308943 21.290650406504064,74.59349593495935 21.392276422764226,74.54268292682927 21.49390243902439,74.49186991869918 21.646341463414632,74.4410569105691 21.747967479674795,74.33943089430895 21.90040650406504,74.28861788617886 22.103658536585364,74.13617886178862 22.256097560975608,74.03455284552845 22.459349593495933,73.8821138211382 22.71341463414634,73.67886178861788 22.916666666666668,73.52642276422765 23.170731707317074,73.27235772357723 23.475609756097562,73.0691056910569 23.729674796747968,72.86585365853658" fill="none" stroke="black" stroke-width="0.6"></polyline><polyline points="23.729674796747968,72.86585365853658 23.983739837398375,72.66260162601625 24.23780487804878,72.40853658536585 24.491869918699187,72.20528455284553 24.796747967479675,71.95121951219512 25.152439024390244,71.64634146341463 25.40650406504065,71.34146341463415 25.76219512195122,71.03658536585365 26.067073170731707,70.73170731707317 26.371951219512194,70.42682926829268 26.676829268292682,70.1219512195122 26.98170731707317,69.76626016260163 27.286585365853657,69.46138211382113 27.540650406504064,69.10569105691057 27.84552845528455,68.75 28.048780487804876,68.4451219512195 28.302845528455283,68.08943089430895 28.506097560975608,67.73373983739837 28.709349593495933,67.42886178861788 28.912601626016258,67.07317073170732 29.115853658536583,66.71747967479675 29.268292682926827,66.36178861788618 29.369918699186993,66.0060975609756 29.522357723577237,65.70121951219512 29.6239837398374,65.39634146341463 29.67479674796748,65.04065040650406 29.776422764227643,64.73577235772358 29.776422764227643,64.43089430894308 29.827235772357724,64.1260162601626 29.878048780487806,63.87195121951219 29.878048780487806,63.668699186991866 29.878048780487806,63.46544715447154 29.878048780487806,63.21138211382114 29.878048780487806,63.00813008130081 29.827235772357724,62.855691056910565 29.776422764227643,62.703252032520325 29.67479674796748,62.55081300813008 29.573170731707318,62.449186991869915 29.471544715447155,62.39837398373984 29.369918699186993,62.34756097560975 29.217479674796746,62.296747967479675 29.0650406504065,62.296747967479675 28.861788617886177,62.296747967479675 28.709349593495933,62.39837398373984 28.506097560975608,62.5 28.302845528455283,62.65243902439024 28.099593495934958,62.855691056910565 27.896341463414632,63.05894308943089 27.693089430894307,63.262195121951216 27.489837398373982,63.46544715447154 27.286585365853657,63.71951219512195" fill="none" stroke="black" stroke-width="0.6"></polyline><polyline points="27.286585365853657,63.71951219512195 27.134146341463413,63.922764227642276 26.93089430894309,64.22764227642276 26.727642276422763,64.53252032520325 26.57520325203252,64.83739837398373 26.371951219512194,65.2439024390244 26.16869918699187,65.59959349593495 26.016260162601625,65.95528455284553 25.8130081300813,66.36178861788618 25.660569105691057,66.71747967479675 25.508130081300813,67.07317073170732 25.304878048780488,67.47967479674797 25.203252032520325,67.83536585365853 25.101626016260163,68.14024390243902 25,68.4959349593496 24.898373983739837,68.85162601626016 24.847560975609756,69.15650406504065 24.847560975609756,69.51219512195122 24.796747967479675,69.8170731707317 24.796747967479675,70.1219512195122 24.796747967479675,70.42682926829268 24.796747967479675,70.68089430894308 24.847560975609756,70.98577235772358 24.94918699186992,71.23983739837398 25,71.49390243902438 25.101626016260163,71.79878048780488 25.203252032520325,72.05284552845528 25.304878048780488,72.2560975609756 25.45731707317073,72.51016260162602 25.558943089430894,72.71341463414635 25.711382113821138,72.91666666666667 25.86382113821138,73.119918699187 26.016260162601625,73.32317073170732 26.21951219512195,73.47560975609755 26.371951219512194,73.6280487804878 26.57520325203252,73.83130081300813 26.829268292682926,73.9329268292683 27.03252032520325,74.03455284552845 27.286585365853657,74.13617886178862 27.540650406504064,74.23780487804878 27.79471544715447,74.28861788617886 28.099593495934958,74.33943089430895 28.353658536585364,74.33943089430895 28.65853658536585,74.33943089430895 28.96341463414634,74.33943089430895 29.268292682926827,74.28861788617886 29.6239837398374,74.1869918699187 29.979674796747968,74.03455284552845 30.284552845528456,73.8821138211382 30.640243902439025,73.72967479674797 30.995934959349594,73.57723577235772" fill="none" stroke="black" stroke-width="0.6"></polyline><polyline points="30.995934959349594,73.57723577235772 31.351626016260163,73.3739837398374 31.70731707317073,73.17073170731707 32.0630081300813,72.91666666666667 32.36788617886179,72.71341463414635 32.72357723577236,72.45934959349593 33.02845528455285,72.20528455284553 33.333333333333336,71.90040650406505 33.6890243902439,71.54471544715447 33.99390243902439,71.23983739837398 34.34959349593496,70.83333333333333 34.70528455284553,70.3760162601626 35.010162601626014,70.02032520325203 35.3150406504065,69.61382113821138 35.61991869918699,69.15650406504065 35.8739837398374,68.75 36.17886178861789,68.29268292682927 36.43292682926829,67.83536585365853 36.6869918699187,67.42886178861788 36.9410569105691,67.02235772357723 37.19512195121951,66.51422764227642 37.39837398373984,66.15853658536585 37.60162601626016,65.7520325203252 37.80487804878049,65.34552845528455 37.95731707317073,64.9390243902439 38.109756097560975,64.53252032520325 38.262195121951216,64.07520325203252 38.36382113821138,63.71951219512195 38.46544715447154,63.41463414634146 38.516260162601625,63.00813008130081 38.516260162601625,62.703252032520325 38.5670731707317,62.39837398373984 38.5670731707317,62.09349593495935 38.516260162601625,61.83943089430894 38.41463414634146,61.636178861788615 38.3130081300813,61.483739837398375 38.21138211382114,61.38211382113821 38.109756097560975,61.28048780487805 37.90650406504065,61.229674796747965 37.7540650406504,61.17886178861789 37.55081300813008,61.1280487804878 37.34756097560975,61.1280487804878 37.09349593495935,61.1280487804878 36.890243902439025,61.17886178861789 36.636178861788615,61.28048780487805 36.38211382113821,61.38211382113821 36.17886178861789,61.53455284552845 35.92479674796748,61.6869918699187 35.72154471544715,61.83943089430894 35.46747967479675,62.09349593495935 35.21341463414634,62.34756097560975" fill="none" stroke="black" stroke-width="0.6"></polyline><polyline points="35.21341463414634,62.34756097560975 35.010162601626014,62.60162601626016 34.80691056910569,62.90650406504065 34.552845528455286,63.262195121951216 34.298780487804876,63.5670731707317 34.04471544715447,63.97357723577235 33.790650406504064,64.380081300813 33.58739837398374,64.78658536585365 33.38414634146341,65.2439024390244 33.18089430894309,65.70121951219512 33.079268292682926,66.15853658536585 32.926829268292686,66.61585365853658 32.82520325203252,67.07317073170732 32.72357723577236,67.53048780487805 32.6219512195122,67.98780487804878 32.57113821138211,68.4451219512195 32.57113821138211,68.90243902439025 32.57113821138211,69.35975609756098 32.57113821138211,69.86788617886178 32.57113821138211,70.32520325203252 32.672764227642276,70.78252032520325 32.82520325203252,71.1890243902439 32.97764227642276,71.59552845528455 33.23170731707317,72.05284552845528 33.485772357723576,72.35772357723577 33.739837398373986,72.66260162601625 34.09552845528455,72.96747967479675 34.40040650406504,73.22154471544715 34.70528455284553,73.52642276422765 35.0609756097561,73.78048780487805 35.36585365853659,74.03455284552845 35.670731707317074,74.28861788617886 36.02642276422764,74.54268292682927 36.28048780487805,74.7459349593496 36.58536585365854,74.89837398373983 36.9410569105691,75.10162601626016 37.24593495934959,75.2540650406504 37.5,75.45731707317073 37.60162601626016,75.5081300813008" fill="none" stroke="black" stroke-width="0.6"></polyline><polyline points="13.262195121951219,95.9349593495935 13.262195121951219,95.8841463414634 13.3130081300813,95.78252032520325 13.363821138211382,95.73170731707317 13.516260162601625,95.57926829268293 13.66869918699187,95.47764227642276 13.871951219512194,95.27439024390243 14.07520325203252,95.0711382113821 14.329268292682926,94.8170731707317 14.583333333333332,94.61382113821138 14.888211382113822,94.35975609756098 15.142276422764228,94.15650406504065 15.396341463414634,93.90243902439025 15.701219512195122,93.69918699186992 15.955284552845528,93.4451219512195 16.209349593495933,93.14024390243902 16.514227642276424,92.83536585365853 16.76829268292683,92.53048780487805 17.073170731707318,92.17479674796748 17.428861788617887,91.869918699187 17.682926829268293,91.5650406504065 17.9369918699187,91.20934959349593 18.241869918699187,90.85365853658536 18.495934959349594,90.4471544715447 18.80081300813008,90.09146341463415 19.054878048780488,89.6849593495935 19.258130081300813,89.32926829268293 19.461382113821138,88.92276422764228 19.664634146341463,88.51626016260163 19.867886178861788,88.10975609756098 20.020325203252032,87.70325203252033 20.172764227642276,87.29674796747967 20.223577235772357,86.99186991869918 20.274390243902438,86.6869918699187 20.32520325203252,86.3821138211382 20.32520325203252,86.1280487804878 20.32520325203252,85.92479674796748 20.32520325203252,85.72154471544715 20.274390243902438,85.51829268292683 20.223577235772357,85.36585365853658 20.121951219512194,85.16260162601625 20.071138211382113,84.95934959349593 20.020325203252032,84.8069105691057 19.91869918699187,84.60365853658537 19.867886178861788,84.45121951219512 19.766260162601625,84.29878048780488 19.715447154471544,84.1971544715447 19.61382113821138,84.04471544715447 19.5630081300813,83.99390243902438 19.461382113821138,83.89227642276423 19.359756097560975,83.84146341463415" fill="none" stroke="black" stroke-width="0.6"></polyline><polyline points="19.359756097560975,83.84146341463415 19.258130081300813,83.84146341463415 19.15650406504065,83.84146341463415 19.054878048780488,83.84146341463415 18.902439024390244,83.89227642276423 18.75,83.9430894308943 18.597560975609756,84.09552845528455 18.445121951219512,84.2479674796748 18.29268292682927,84.40040650406503 18.140243902439025,84.60365853658537 18.038617886178862,84.8069105691057 17.88617886178862,84.95934959349593 17.784552845528456,85.16260162601625 17.682926829268293,85.36585365853658 17.58130081300813,85.5691056910569 17.53048780487805,85.82317073170732 17.428861788617887,86.07723577235772 17.327235772357724,86.33130081300813 17.225609756097562,86.63617886178862 17.17479674796748,86.9410569105691 17.073170731707318,87.1951219512195 17.022357723577237,87.5 16.920731707317074,87.80487804878048 16.869918699186993,88.10975609756098 16.81910569105691,88.41463414634146 16.71747967479675,88.77032520325203 16.615853658536587,89.1260162601626 16.565040650406505,89.48170731707317 16.463414634146343,89.83739837398373 16.41260162601626,90.14227642276423 16.36178861788618,90.4979674796748 16.260162601626014,90.85365853658536 16.209349593495933,91.15853658536585 16.15853658536585,91.46341463414635 16.10772357723577,91.76829268292683 16.05691056910569,92.07317073170732 16.006097560975608,92.3780487804878 15.955284552845528,92.6829268292683 15.955284552845528,92.9369918699187 15.955284552845528,93.24186991869918 16.006097560975608,93.4959349593496 16.10772357723577,93.75 16.209349593495933,93.95325203252033 16.36178861788618,94.15650406504065 16.463414634146343,94.3089430894309 16.666666666666668,94.46138211382113 16.81910569105691,94.5630081300813 17.022357723577237,94.71544715447155 17.17479674796748,94.76626016260163 17.428861788617887,94.86788617886178 17.632113821138212,94.96951219512195" fill="none" stroke="black" stroke-width="0.6"></polyline><polyline points="17.632113821138212,94.96951219512195 17.835365853658537,95.02032520325203 18.140243902439025,95.0711382113821 18.39430894308943,95.0711382113821 18.69918699186992,95.0711382113821 19.054878048780488,95.02032520325203 19.410569105691057,94.96951219512195 19.766260162601625,94.8170731707317 20.121951219512194,94.66463414634146 20.528455284552845,94.46138211382113 20.884146341463413,94.3089430894309 21.290650406504064,94.05487804878048 21.697154471544714,93.80081300813008 22.103658536585364,93.54674796747967 22.510162601626014,93.24186991869918 22.916666666666668,92.9369918699187 23.272357723577237,92.6321138211382 23.628048780487806,92.27642276422765 23.983739837398375,91.97154471544715 24.390243902439025,91.5650406504065 24.695121951219512,91.20934959349593 25.05081300813008,90.80284552845528 25.40650406504065,90.39634146341463 25.711382113821138,89.98983739837398 26.016260162601625,89.58333333333333 26.321138211382113,89.17682926829268 26.57520325203252,88.77032520325203 26.778455284552845,88.36382113821138 27.03252032520325,87.90650406504065 27.235772357723576,87.55081300813008 27.38821138211382,87.1951219512195 27.591463414634145,86.73780487804878 27.74390243902439,86.33130081300813 27.896341463414632,85.97560975609755 27.997967479674795,85.5691056910569 28.099593495934958,85.21341463414635 28.15040650406504,84.90853658536585 28.2520325203252,84.55284552845528 28.2520325203252,84.1971544715447 28.302845528455283,83.89227642276423 28.302845528455283,83.53658536585365 28.302845528455283,83.23170731707317 28.302845528455283,82.97764227642276 28.302845528455283,82.67276422764228 28.302845528455283,82.41869918699187 28.2520325203252,82.16463414634146 28.15040650406504,81.96138211382113 28.048780487804876,81.8089430894309 27.947154471544714,81.65650406504065 27.79471544715447,81.5040650406504 27.693089430894307,81.45325203252033" fill="none" stroke="black" stroke-width="0.6"></polyline><polyline points="27.693089430894307,81.45325203252033 27.540650406504064,81.40243902439025 27.33739837398374,81.35162601626016 27.184959349593495,81.35162601626016 26.98170731707317,81.35162601626016 26.778455284552845,81.35162601626016 26.6260162601626,81.40243902439025 26.371951219512194,81.5040650406504 26.16869918699187,81.60569105691057 25.914634146341463,81.8089430894309 25.711382113821138,82.01219512195122 25.45731707317073,82.21544715447155 25.203252032520325,82.46951219512195 25,82.77439024390243 24.745934959349594,83.07926829268293 24.59349593495935,83.33333333333333 24.390243902439025,83.6890243902439 24.23780487804878,83.99390243902438 24.085365853658537,84.34959349593495 23.932926829268293,84.7560975609756 23.729674796747968,85.16260162601625 23.577235772357724,85.5691056910569 23.3739837398374,85.97560975609755 23.221544715447155,86.4329268292683 23.06910569105691,86.83943089430895 22.96747967479675,87.2459349593496 22.865853658536587,87.65243902439025 22.815040650406505,88.0589430894309 22.71341463414634,88.46544715447155 22.662601626016258,88.92276422764228 22.662601626016258,89.32926829268293 22.662601626016258,89.73577235772358 22.662601626016258,90.09146341463415 22.662601626016258,90.39634146341463 22.71341463414634,90.7520325203252 22.815040650406505,91.10772357723577 22.916666666666668,91.41260162601625 23.06910569105691,91.71747967479675 23.221544715447155,91.97154471544715 23.3739837398374,92.22560975609755 23.577235772357724,92.53048780487805 23.78048780487805,92.73373983739837 23.983739837398375,92.98780487804878 24.23780487804878,93.24186991869918 24.491869918699187,93.39430894308943 24.745934959349594,93.59756097560975 25.101626016260163,93.69918699186992 25.40650406504065,93.80081300813008 25.711382113821138,93.90243902439025 26.067073170731707,93.95325203252033 26.422764227642276,93.95325203252033" fill="none" stroke="black" stroke-width="0.6"></polyline><polyline points="26.422764227642276,93.95325203252033 26.829268292682926,93.95325203252033 27.286585365853657,93.85162601626016 27.693089430894307,93.75 28.099593495934958,93.59756097560975 28.60772357723577,93.4451219512195 29.01422764227642,93.24186991869918 29.420731707317074,93.03861788617886 29.928861788617887,92.78455284552845 30.284552845528456,92.58130081300813 30.691056910569106,92.3780487804878 31.046747967479675,92.17479674796748 31.351626016260163,91.97154471544715 31.65650406504065,91.71747967479675 31.961382113821138,91.41260162601625 32.266260162601625,91.15853658536585 32.52032520325203,90.85365853658536 32.82520325203252,90.4471544715447 33.13008130081301,90.09146341463415 33.4349593495935,89.6849593495935 33.790650406504064,89.27845528455285 34.09552845528455,88.8719512195122 34.34959349593496,88.41463414634146 34.65447154471545,87.95731707317073 34.90853658536585,87.55081300813008 35.16260162601626,87.09349593495935 35.36585365853659,86.63617886178862 35.56910569105691,86.22967479674797 35.72154471544715,85.82317073170732 35.8739837398374,85.41666666666667 36.02642276422764,85.0609756097561 36.1280487804878,84.65447154471545 36.229674796747965,84.29878048780488 36.33130081300813,83.89227642276423 36.43292682926829,83.48577235772358 36.53455284552845,83.130081300813 36.53455284552845,82.82520325203252 36.53455284552845,82.52032520325203 36.53455284552845,82.26626016260163 36.483739837398375,81.96138211382113 36.43292682926829,81.7581300813008 36.33130081300813,81.5040650406504 36.229674796747965,81.30081300813008 36.077235772357724,81.14837398373983 35.97560975609756,80.9959349593496 35.823170731707314,80.89430894308943 35.670731707317074,80.79268292682927 35.51829268292683,80.6910569105691 35.36585365853659,80.6910569105691 35.21341463414634,80.64024390243902 35.0609756097561,80.64024390243902" fill="none" stroke="black" stroke-width="0.6"></polyline><polyline points="35.0609756097561,80.64024390243902 34.857723577235774,80.64024390243902 34.70528455284553,80.6910569105691 34.5020325203252,80.74186991869918 34.298780487804876,80.84349593495935 34.146341463414636,80.9451219512195 33.94308943089431,81.04674796747967 33.790650406504064,81.19918699186992 33.58739837398374,81.40243902439025 33.4349593495935,81.60569105691057 33.23170731707317,81.85975609756098 32.97764227642276,82.16463414634146 32.77439024390244,82.52032520325203 32.52032520325203,82.82520325203252 32.266260162601625,83.23170731707317 32.012195121951216,83.63821138211382 31.758130081300813,84.04471544715447 31.453252032520325,84.5020325203252 31.25,84.90853658536585 31.046747967479675,85.3150406504065 30.84349593495935,85.77235772357723 30.691056910569106,86.17886178861788 30.538617886178862,86.63617886178862 30.4369918699187,87.09349593495935 30.38617886178862,87.5 30.335365853658537,87.95731707317073 30.284552845528456,88.41463414634146 30.284552845528456,88.8211382113821 30.284552845528456,89.22764227642276 30.335365853658537,89.6849593495935 30.4369918699187,90.04065040650406 30.538617886178862,90.4471544715447 30.640243902439025,90.90447154471545 30.79268292682927,91.3109756097561 30.995934959349594,91.71747967479675 31.25,92.1239837398374 31.504065040650406,92.47967479674797 31.808943089430894,92.73373983739837 32.266260162601625,93.03861788617886 32.672764227642276,93.24186991869918 33.18089430894309,93.4451219512195 33.790650406504064,93.59756097560975 34.40040650406504,93.69918699186992 35.0609756097561,93.80081300813008 35.77235772357724,93.85162601626016 36.43292682926829,93.85162601626016 37.14430894308943,93.90243902439025 37.80487804878049,93.95325203252033 38.46544715447154,94.0040650406504 39.07520325203252,94.10569105691057 39.6849593495935,94.15650406504065" fill="none" stroke="black" stroke-width="0.6"></polyline><polyline points="39.6849593495935,94.15650406504065 40.24390243902439,94.20731707317073 40.802845528455286,94.2581300813008 41.107723577235774,94.3089430894309" fill="none" stroke="black" stroke-width="0.6"></polyline></svg>