<svg height="100" width="100" preserveAspectRatio="xMidYMid meet"><polyline points="17.9369918699187,15.19308943089431 17.9369918699187,15.142276422764228 17.98780487804878,15.142276422764228 17.98780487804878,15.091463414634147 17.98780487804878,15.040650406504065 18.038617886178862,15.040650406504065 18.038617886178862,14.989837398373984 18.038617886178862,14.939024390243903 18.038617886178862,14.939024390243903 18.089430894308943,14.888211382113822 18.089430894308943,14.83739837398374 18.089430894308943,14.83739837398374 18.140243902439025,14.786585365853659 18.191056910569106,14.735772357723578 18.191056910569106,14.684959349593496 18.241869918699187,14.634146341463413 18.29268292682927,14.583333333333332 18.34349593495935,14.53252032520325 18.39430894308943,14.430894308943088 18.445121951219512,14.380081300813007 18.495934959349594,14.278455284552845 18.495934959349594,14.176829268292682 18.546747967479675,14.07520325203252 18.597560975609756,14.024390243902438 18.597560975609756,13.922764227642276 18.648373983739837,13.871951219512194 18.648373983739837,13.770325203252032 18.648373983739837,13.71951219512195 18.648373983739837,13.66869918699187 18.648373983739837,13.617886178861788 18.597560975609756,13.567073170731707 18.597560975609756,13.516260162601625 18.546747967479675,13.465447154471544 18.495934959349594,13.465447154471544 18.495934959349594,13.414634146341463 18.445121951219512,13.414634146341463 18.39430894308943,13.414634146341463 18.34349593495935,13.414634146341463 18.29268292682927,13.414634146341463 18.241869918699187,13.414634146341463 18.191056910569106,13.465447154471544 18.089430894308943,13.567073170731707 18.038617886178862,13.617886178861788 17.9369918699187,13.71951219512195 17.88617886178862,13.821138211382113 17.784552845528456,13.871951219512194 17.733739837398375,13.973577235772357 17.632113821138212,14.07520325203252 17.58130081300813,14.176829268292682 17.479674796747968,14.278455284552845 17.428861788617887,14.380081300813007" fill="none" stroke="black" stroke-width="0.6"></polyline><polyline points="17.428861788617887,14.380081300813007 17.378048780487806,14.53252032520325 17.327235772357724,14.634146341463413 17.276422764227643,14.786585365853659 17.276422764227643,14.888211382113822 17.276422764227643,15.040650406504065 17.276422764227643,15.142276422764228 17.276422764227643,15.19308943089431 17.276422764227643,15.294715447154472 17.276422764227643,15.345528455284553 17.327235772357724,15.396341463414634 17.378048780487806,15.447154471544716 17.378048780487806,15.447154471544716 17.428861788617887,15.447154471544716 17.479674796747968,15.447154471544716 17.479674796747968,15.447154471544716 17.479674796747968,15.447154471544716 17.53048780487805,15.447154471544716 17.53048780487805,15.447154471544716 17.53048780487805,15.396341463414634 17.58130081300813,15.396341463414634 17.58130081300813,15.396341463414634 17.58130081300813,15.345528455284553 17.632113821138212,15.345528455284553 17.632113821138212,15.294715447154472 17.682926829268293,15.24390243902439 17.682926829268293,15.24390243902439 17.733739837398375,15.19308943089431 17.733739837398375,15.142276422764228 17.733739837398375,15.142276422764228 17.784552845528456,15.091463414634147 17.784552845528456,15.040650406504065 17.835365853658537,15.040650406504065 17.835365853658537,14.989837398373984 17.835365853658537,14.989837398373984 17.835365853658537,14.939024390243903 17.88617886178862,14.939024390243903 17.88617886178862,14.888211382113822 17.9369918699187,14.83739837398374 17.9369918699187,14.786585365853659 17.9369918699187,14.786585365853659 17.98780487804878,14.735772357723578 17.98780487804878,14.684959349593496 17.98780487804878,14.634146341463413 18.038617886178862,14.583333333333332 18.038617886178862,14.48170731707317 18.089430894308943,14.430894308943088 18.089430894308943,14.380081300813007 18.089430894308943,14.329268292682926 18.089430894308943,14.329268292682926 18.140243902439025,14.278455284552845" fill="none" stroke="black" stroke-width="0.6"></polyline><polyline points="18.140243902439025,14.278455284552845 18.140243902439025,14.227642276422763 18.140243902439025,14.227642276422763 18.140243902439025,14.227642276422763 18.140243902439025,14.176829268292682 18.140243902439025,14.176829268292682 18.140243902439025,14.176829268292682 18.140243902439025,14.176829268292682 18.140243902439025,14.176829268292682 18.089430894308943,14.176829268292682 18.089430894308943,14.176829268292682 18.038617886178862,14.227642276422763 18.038617886178862,14.278455284552845 17.98780487804878,14.329268292682926 17.98780487804878,14.430894308943088 17.98780487804878,14.48170731707317 17.98780487804878,14.583333333333332 17.98780487804878,14.684959349593496 17.98780487804878,14.786585365853659 18.038617886178862,14.83739837398374 18.089430894308943,14.939024390243903 18.191056910569106,15.040650406504065 18.29268292682927,15.142276422764228 18.39430894308943,15.24390243902439 18.495934959349594,15.294715447154472 18.597560975609756,15.345528455284553 18.80081300813008,15.345528455284553 19.004065040650406,15.345528455284553 19.20731707317073,15.294715447154472 19.51219512195122,15.24390243902439 19.766260162601625,15.19308943089431 19.867886178861788,15.142276422764228" fill="none" stroke="black" stroke-width="0.6"></polyline><polyline points="32.21544715447154,13.567073170731707 32.21544715447154,13.567073170731707 32.21544715447154,13.516260162601625 32.21544715447154,13.516260162601625 32.21544715447154,13.465447154471544 32.21544715447154,13.465447154471544 32.266260162601625,13.414634146341463 32.266260162601625,13.414634146341463 32.266260162601625,13.363821138211382 32.266260162601625,13.363821138211382 32.3170731707317,13.363821138211382 32.3170731707317,13.3130081300813 32.3170731707317,13.3130081300813 32.3170731707317,13.3130081300813 32.36788617886179,13.3130081300813 32.36788617886179,13.3130081300813 32.36788617886179,13.3130081300813 32.36788617886179,13.363821138211382 32.36788617886179,13.414634146341463 32.36788617886179,13.465447154471544 32.36788617886179,13.567073170731707 32.36788617886179,13.71951219512195 32.3170731707317,13.821138211382113 32.3170731707317,13.973577235772357 32.266260162601625,14.1260162601626 32.266260162601625,14.329268292682926 32.21544715447154,14.53252032520325 32.16463414634146,14.735772357723578 32.16463414634146,14.939024390243903 32.11382113821138,15.142276422764228 32.11382113821138,15.294715447154472 32.11382113821138,15.497967479674797 32.11382113821138,15.59959349593496 32.11382113821138,15.65040650406504 32.11382113821138,15.701219512195122 32.11382113821138,15.701219512195122 32.11382113821138,15.701219512195122 32.16463414634146,15.701219512195122 32.16463414634146,15.701219512195122 32.16463414634146,15.701219512195122 32.21544715447154,15.701219512195122 32.21544715447154,15.701219512195122 32.21544715447154,15.701219512195122 32.21544715447154,15.65040650406504 32.21544715447154,15.65040650406504 32.21544715447154,15.65040650406504 32.266260162601625,15.59959349593496 32.266260162601625,15.59959349593496 32.3170731707317,15.548780487804878 32.36788617886179,15.497967479674797 32.418699186991866,15.447154471544716" fill="none" stroke="black" stroke-width="0.6"></polyline><polyline points="32.418699186991866,15.447154471544716 32.46951219512195,15.396341463414634 32.57113821138211,15.345528455284553 32.6219512195122,15.24390243902439 32.72357723577236,15.19308943089431 32.82520325203252,15.142276422764228 32.926829268292686,15.091463414634147 33.02845528455285,15.091463414634147 33.079268292682926,15.040650406504065 33.13008130081301,15.040650406504065 33.18089430894309,15.040650406504065 33.23170731707317,15.040650406504065 33.23170731707317,15.091463414634147 33.28252032520325,15.142276422764228 33.28252032520325,15.24390243902439 33.28252032520325,15.294715447154472 33.28252032520325,15.396341463414634 33.28252032520325,15.497967479674797 33.28252032520325,15.548780487804878 33.23170731707317,15.65040650406504 33.23170731707317,15.752032520325203 33.18089430894309,15.802845528455284 33.13008130081301,15.904471544715447 33.079268292682926,15.955284552845528 33.02845528455285,16.05691056910569 32.926829268292686,16.10772357723577 32.8760162601626,16.10772357723577 32.82520325203252,16.15853658536585 32.77439024390244,16.15853658536585 32.72357723577236,16.15853658536585 32.672764227642276,16.15853658536585 32.6219512195122,16.15853658536585 32.6219512195122,16.10772357723577 32.57113821138211,16.006097560975608 32.52032520325203,15.955284552845528 32.52032520325203,15.853658536585366 32.46951219512195,15.802845528455284 32.46951219512195,15.752032520325203 32.46951219512195,15.752032520325203 32.46951219512195,15.701219512195122 32.46951219512195,15.701219512195122 32.46951219512195,15.701219512195122 32.46951219512195,15.701219512195122 32.46951219512195,15.701219512195122 32.52032520325203,15.752032520325203 32.52032520325203,15.752032520325203" fill="none" stroke="black" stroke-width="0.6"></polyline><polyline points="48.11991869918699,13.770325203252032 48.11991869918699,13.770325203252032 48.11991869918699,13.770325203252032 48.11991869918699,13.770325203252032 48.11991869918699,13.770325203252032 48.11991869918699,13.770325203252032 48.11991869918699,13.770325203252032 48.11991869918699,13.770325203252032 48.11991869918699,13.770325203252032 48.11991869918699,13.770325203252032 48.11991869918699,13.770325203252032 48.11991869918699,13.770325203252032 48.11991869918699,13.770325203252032 48.11991869918699,13.770325203252032 48.11991869918699,13.770325203252032 48.11991869918699,13.770325203252032 48.11991869918699,13.770325203252032 48.11991869918699,13.770325203252032 48.11991869918699,13.770325203252032 48.11991869918699,13.770325203252032 48.11991869918699,13.770325203252032 48.11991869918699,13.770325203252032 48.11991869918699,13.770325203252032 48.170731707317074,13.770325203252032 48.170731707317074,13.770325203252032 48.170731707317074,13.770325203252032 48.170731707317074,13.770325203252032 48.170731707317074,13.770325203252032 48.11991869918699,13.770325203252032 48.06910569105691,13.770325203252032 48.01829268292683,13.821138211382113 47.86585365853659,13.871951219512194 47.764227642276424,13.922764227642276 47.5609756097561,14.024390243902438 47.40853658536585,14.1260162601626 47.25609756097561,14.278455284552845 47.15447154471545,14.430894308943088 47.103658536585364,14.634146341463413 47.052845528455286,14.786585365853659 47.052845528455286,14.939024390243903 47.103658536585364,15.040650406504065 47.20528455284553,15.142276422764228 47.357723577235774,15.24390243902439 47.510162601626014,15.345528455284553 47.66260162601626,15.396341463414634 47.86585365853659,15.497967479674797 48.01829268292683,15.497967479674797 48.22154471544715,15.548780487804878 48.42479674796748,15.548780487804878 48.6280487804878,15.548780487804878 48.83130081300813,15.497967479674797" fill="none" stroke="black" stroke-width="0.6"></polyline><polyline points="48.83130081300813,15.497967479674797 49.03455284552845,15.447154471544716 49.136178861788615,15.396341463414634 49.23780487804878,15.396341463414634 49.28861788617886,15.396341463414634 49.28861788617886,15.396341463414634 49.33943089430894,15.396341463414634 49.33943089430894,15.396341463414634 49.33943089430894,15.447154471544716 49.33943089430894,15.497967479674797 49.390243902439025,15.548780487804878" fill="none" stroke="black" stroke-width="0.6"></polyline><polyline points="64.32926829268293,14.735772357723578 64.32926829268293,14.684959349593496 64.32926829268293,14.684959349593496 64.32926829268293,14.684959349593496 64.32926829268293,14.684959349593496 64.32926829268293,14.684959349593496 64.380081300813,14.634146341463413 64.380081300813,14.634146341463413 64.380081300813,14.634146341463413 64.380081300813,14.634146341463413 64.380081300813,14.634146341463413 64.43089430894308,14.583333333333332 64.43089430894308,14.583333333333332 64.43089430894308,14.583333333333332" fill="none" stroke="black" stroke-width="0.6"></polyline><polyline points="64.6341463414634,14.634146341463413 64.6341463414634,14.634146341463413 64.6341463414634,14.634146341463413 64.6341463414634,14.634146341463413 64.6341463414634,14.634146341463413 64.6341463414634,14.634146341463413 64.6341463414634,14.634146341463413 64.6341463414634,14.634146341463413 64.6341463414634,14.634146341463413 64.6341463414634,14.634146341463413 64.6341463414634,14.634146341463413 64.6341463414634,14.634146341463413 64.6341463414634,14.634146341463413 64.6341463414634,14.634146341463413 64.6341463414634,14.634146341463413 64.6341463414634,14.634146341463413 64.6341463414634,14.634146341463413 64.6341463414634,14.634146341463413 64.6341463414634,14.634146341463413 64.6341463414634,14.634146341463413 64.6341463414634,14.634146341463413 64.6341463414634,14.634146341463413 64.6341463414634,14.634146341463413 64.6341463414634,14.634146341463413 64.6341463414634,14.634146341463413 64.6341463414634,14.634146341463413 64.6341463414634,14.634146341463413 64.6341463414634,14.634146341463413 64.6341463414634,14.634146341463413 64.6341463414634,14.634146341463413 64.6341463414634,14.634146341463413 64.6341463414634,14.634146341463413 64.6341463414634,14.634146341463413 64.6341463414634,14.634146341463413 64.6341463414634,14.634146341463413 64.6341463414634,14.634146341463413 64.6341463414634,14.634146341463413 64.6341463414634,14.634146341463413 64.6341463414634,14.634146341463413 64.6341463414634,14.634146341463413 64.6341463414634,14.634146341463413 64.6341463414634,14.634146341463413 64.6341463414634,14.634146341463413 64.6341463414634,14.634146341463413 64.6341463414634,14.634146341463413 64.6341463414634,14.634146341463413 64.6341463414634,14.634146341463413 64.6341463414634,14.634146341463413 64.6341463414634,14.634146341463413 64.6341463414634,14.634146341463413 64.6341463414634,14.634146341463413" fill="none" stroke="black" stroke-width="0.6"></polyline><polyline points="64.6341463414634,14.634146341463413 64.6341463414634,14.634146341463413 64.6341463414634,14.634146341463413 64.6341463414634,14.634146341463413 64.6341463414634,14.634146341463413 64.6341463414634,14.634146341463413 64.6341463414634,14.634146341463413 64.6341463414634,14.634146341463413 64.6341463414634,14.634146341463413 64.6341463414634,14.634146341463413 64.6341463414634,14.634146341463413 64.6341463414634,14.634146341463413 64.6341463414634,14.634146341463413 64.58333333333333,14.634146341463413 64.48170731707317,14.634146341463413 64.43089430894308,14.684959349593496 64.32926829268293,14.735772357723578 64.22764227642276,14.83739837398374 64.17682926829268,14.888211382113822 64.07520325203252,14.989837398373984 64.02439024390243,15.040650406504065 64.02439024390243,15.142276422764228 63.97357723577235,15.24390243902439 63.97357723577235,15.345528455284553 63.97357723577235,15.447154471544716 64.02439024390243,15.497967479674797 64.07520325203252,15.59959349593496 64.17682926829268,15.65040650406504 64.27845528455285,15.701219512195122 64.43089430894308,15.752032520325203 64.53252032520325,15.752032520325203 64.6849593495935,15.802845528455284 64.78658536585365,15.802845528455284 64.9390243902439,15.802845528455284 65.09146341463415,15.752032520325203 65.1930894308943,15.752032520325203 65.2439024390244,15.701219512195122 65.34552845528455,15.65040650406504 65.39634146341463,15.59959349593496 65.4979674796748,15.497967479674797 65.54878048780488,15.447154471544716 65.59959349593495,15.345528455284553 65.65040650406505,15.24390243902439 65.70121951219512,15.142276422764228 65.7520325203252,15.040650406504065 65.7520325203252,14.888211382113822 65.80284552845528,14.735772357723578 65.85365853658537,14.583333333333332 65.85365853658537,14.380081300813007 65.90447154471545,14.176829268292682 65.95528455284553,14.024390243902438" fill="none" stroke="black" stroke-width="0.6"></polyline><polyline points="65.95528455284553,14.024390243902438 66.0060975609756,13.821138211382113 66.0060975609756,13.66869918699187 66.0569105691057,13.465447154471544 66.10772357723577,13.363821138211382 66.10772357723577,13.211382113821138 66.10772357723577,13.109756097560975 66.15853658536585,13.008130081300813 66.15853658536585,12.957317073170731 66.15853658536585,12.855691056910569 66.15853658536585,12.804878048780488 66.15853658536585,12.754065040650406 66.15853658536585,12.703252032520325 66.20934959349593,12.652439024390244 66.20934959349593,12.652439024390244 66.20934959349593,12.601626016260163 66.20934959349593,12.601626016260163 66.20934959349593,12.601626016260163 66.20934959349593,12.601626016260163 66.20934959349593,12.601626016260163 66.20934959349593,12.652439024390244 66.20934959349593,12.703252032520325 66.20934959349593,12.804878048780488 66.15853658536585,12.90650406504065 66.10772357723577,13.058943089430894 66.10772357723577,13.211382113821138 66.0569105691057,13.363821138211382 66.0060975609756,13.567073170731707 66.0060975609756,13.71951219512195 66.0060975609756,13.922764227642276 66.0060975609756,14.1260162601626 66.0060975609756,14.329268292682926 66.0060975609756,14.53252032520325 66.0569105691057,14.735772357723578 66.15853658536585,14.888211382113822 66.20934959349593,15.040650406504065 66.3109756097561,15.142276422764228 66.41260162601625,15.142276422764228 66.46341463414635,15.19308943089431 66.5650406504065,15.19308943089431 66.61585365853658,15.19308943089431 66.66666666666667,15.19308943089431 66.76829268292683,15.19308943089431 66.8191056910569,15.142276422764228 66.869918699187,15.142276422764228 66.869918699187,15.142276422764228 66.92073170731707,15.142276422764228 66.97154471544715,15.142276422764228 66.97154471544715,15.142276422764228 67.02235772357723,15.142276422764228 67.02235772357723,15.142276422764228" fill="none" stroke="black" stroke-width="0.6"></polyline><polyline points="67.02235772357723,15.142276422764228" fill="none" stroke="black" stroke-width="0.6"></polyline><polyline points="78.86178861788618,14.888211382113822 78.86178861788618,14.888211382113822 78.86178861788618,14.888211382113822 78.86178861788618,14.888211382113822 78.86178861788618,14.888211382113822 78.86178861788618,14.888211382113822 78.91260162601625,14.888211382113822 78.91260162601625,14.888211382113822 78.91260162601625,14.888211382113822 78.91260162601625,14.888211382113822 78.96341463414635,14.888211382113822 79.01422764227642,14.888211382113822 79.01422764227642,14.888211382113822 79.0650406504065,14.888211382113822 79.0650406504065,14.83739837398374 79.11585365853658,14.83739837398374 79.11585365853658,14.83739837398374 79.16666666666667,14.83739837398374 79.21747967479675,14.786585365853659 79.21747967479675,14.786585365853659 79.26829268292683,14.786585365853659 79.3191056910569,14.735772357723578 79.3191056910569,14.735772357723578 79.369918699187,14.735772357723578 79.47154471544715,14.684959349593496 79.52235772357723,14.684959349593496 79.57317073170732,14.684959349593496 79.67479674796748,14.634146341463413 79.72560975609755,14.634146341463413 79.82723577235772,14.634146341463413 79.8780487804878,14.583333333333332 79.97967479674797,14.583333333333332 80.08130081300813,14.583333333333332 80.1829268292683,14.53252032520325 80.28455284552845,14.53252032520325 80.33536585365853,14.48170731707317 80.4369918699187,14.48170731707317 80.53861788617886,14.430894308943088 80.64024390243902,14.380081300813007 80.6910569105691,14.329268292682926 80.79268292682927,14.329268292682926 80.84349593495935,14.227642276422763 80.89430894308943,14.176829268292682 80.89430894308943,14.1260162601626 80.89430894308943,14.07520325203252 80.89430894308943,14.024390243902438 80.89430894308943,14.024390243902438 80.84349593495935,13.973577235772357 80.74186991869918,13.922764227642276 80.64024390243902,13.922764227642276 80.53861788617886,13.922764227642276" fill="none" stroke="black" stroke-width="0.6"></polyline><polyline points="80.53861788617886,13.922764227642276 80.4369918699187,13.922764227642276 80.28455284552845,13.922764227642276 80.1829268292683,13.922764227642276 80.08130081300813,13.922764227642276 79.92886178861788,13.973577235772357 79.82723577235772,14.024390243902438 79.72560975609755,14.1260162601626 79.67479674796748,14.227642276422763 79.57317073170732,14.278455284552845 79.52235772357723,14.380081300813007 79.47154471544715,14.430894308943088 79.42073170731707,14.53252032520325 79.42073170731707,14.634146341463413 79.42073170731707,14.684959349593496 79.42073170731707,14.786585365853659 79.42073170731707,14.888211382113822 79.47154471544715,14.939024390243903 79.52235772357723,15.040650406504065 79.6239837398374,15.142276422764228 79.67479674796748,15.24390243902439 79.77642276422765,15.294715447154472 79.8780487804878,15.396341463414634 80.03048780487805,15.447154471544716 80.1829268292683,15.447154471544716 80.28455284552845,15.497967479674797 80.38617886178862,15.497967479674797 80.64024390243902,15.497967479674797 80.89430894308943,15.497967479674797 81.19918699186992,15.497967479674797 81.5040650406504,15.497967479674797 81.7581300813008,15.447154471544716 82.01219512195122,15.447154471544716 82.16463414634146,15.396341463414634 82.36788617886178,15.396341463414634 82.46951219512195,15.396341463414634 82.52032520325203,15.396341463414634 82.5711382113821,15.396341463414634 82.5711382113821,15.396341463414634 82.5711382113821,15.396341463414634 82.52032520325203,15.396341463414634" fill="none" stroke="black" stroke-width="0.6"></polyline><polyline points="17.479674796747968,30.538617886178862 17.479674796747968,30.48780487804878 17.479674796747968,30.4369918699187 17.479674796747968,30.38617886178862 17.479674796747968,30.335365853658537 17.479674796747968,30.284552845528456 17.53048780487805,30.233739837398375 17.53048780487805,30.182926829268293 17.53048780487805,30.182926829268293 17.53048780487805,30.182926829268293 17.53048780487805,30.182926829268293 17.53048780487805,30.182926829268293 17.53048780487805,30.182926829268293 17.53048780487805,30.233739837398375 17.53048780487805,30.335365853658537 17.53048780487805,30.48780487804878 17.479674796747968,30.589430894308943 17.428861788617887,30.741869918699187 17.428861788617887,30.89430894308943 17.378048780487806,30.995934959349594 17.327235772357724,31.097560975609756 17.327235772357724,31.25 17.276422764227643,31.351626016260163 17.276422764227643,31.504065040650406 17.225609756097562,31.60569105691057 17.225609756097562,31.70731707317073 17.225609756097562,31.758130081300813 17.225609756097562,31.859756097560975 17.225609756097562,31.859756097560975 17.225609756097562,31.910569105691057 17.225609756097562,31.910569105691057 17.225609756097562,31.961382113821138 17.225609756097562,31.961382113821138 17.225609756097562,31.961382113821138 17.225609756097562,31.961382113821138 17.225609756097562,31.961382113821138 17.225609756097562,31.961382113821138 17.225609756097562,31.961382113821138 17.225609756097562,31.961382113821138 17.225609756097562,31.961382113821138 17.225609756097562,31.961382113821138 17.225609756097562,31.961382113821138 17.225609756097562,31.961382113821138 17.225609756097562,31.961382113821138 17.225609756097562,31.961382113821138 17.225609756097562,31.961382113821138 17.225609756097562,31.910569105691057 17.225609756097562,31.910569105691057 17.225609756097562,31.808943089430894 17.276422764227643,31.808943089430894 17.276422764227643,31.70731707317073" fill="none" stroke="black" stroke-width="0.6"></polyline><polyline points="17.276422764227643,31.70731707317073 17.276422764227643,31.65650406504065 17.327235772357724,31.60569105691057 17.327235772357724,31.554878048780488 17.327235772357724,31.504065040650406 17.378048780487806,31.453252032520325 17.378048780487806,31.402439024390244 17.378048780487806,31.30081300813008 17.378048780487806,31.25 17.378048780487806,31.148373983739837 17.378048780487806,31.046747967479675 17.378048780487806,30.945121951219512 17.378048780487806,30.89430894308943 17.378048780487806,30.79268292682927 17.428861788617887,30.691056910569106 17.428861788617887,30.640243902439025 17.428861788617887,30.589430894308943 17.428861788617887,30.538617886178862 17.479674796747968,30.48780487804878 17.479674796747968,30.48780487804878 17.53048780487805,30.4369918699187 17.53048780487805,30.4369918699187 17.53048780487805,30.38617886178862 17.58130081300813,30.38617886178862 17.58130081300813,30.38617886178862 17.58130081300813,30.335365853658537 17.58130081300813,30.335365853658537 17.58130081300813,30.335365853658537 17.58130081300813,30.335365853658537 17.58130081300813,30.335365853658537 17.58130081300813,30.335365853658537 17.58130081300813,30.335365853658537 17.58130081300813,30.335365853658537 17.58130081300813,30.335365853658537 17.58130081300813,30.335365853658537 17.58130081300813,30.335365853658537 17.58130081300813,30.335365853658537 17.632113821138212,30.335365853658537 17.632113821138212,30.335365853658537 17.682926829268293,30.335365853658537 17.682926829268293,30.335365853658537 17.784552845528456,30.284552845528456 17.835365853658537,30.284552845528456 17.9369918699187,30.233739837398375 18.038617886178862,30.182926829268293 18.191056910569106,30.132113821138212 18.29268292682927,30.08130081300813 18.39430894308943,30.03048780487805 18.495934959349594,29.979674796747968 18.597560975609756,29.928861788617887 18.648373983739837,29.928861788617887" fill="none" stroke="black" stroke-width="0.6"></polyline><polyline points="18.648373983739837,29.928861788617887 18.69918699186992,29.878048780487806 18.69918699186992,29.878048780487806 18.69918699186992,29.878048780487806 18.69918699186992,29.878048780487806 18.69918699186992,29.928861788617887 18.648373983739837,29.979674796747968 18.597560975609756,30.08130081300813 18.546747967479675,30.08130081300813" fill="none" stroke="black" stroke-width="0.6"></polyline><polyline points="17.733739837398375,30.945121951219512 17.733739837398375,30.945121951219512 17.733739837398375,30.945121951219512 17.733739837398375,30.945121951219512 17.733739837398375,30.945121951219512 17.733739837398375,30.945121951219512 17.784552845528456,30.945121951219512 17.784552845528456,30.945121951219512 17.784552845528456,30.995934959349594 17.784552845528456,30.995934959349594 17.835365853658537,30.995934959349594 17.835365853658537,30.995934959349594 17.88617886178862,30.995934959349594 17.9369918699187,30.995934959349594 17.98780487804878,30.995934959349594 18.089430894308943,30.995934959349594 18.191056910569106,30.945121951219512 18.29268292682927,30.945121951219512 18.495934959349594,30.89430894308943 18.648373983739837,30.84349593495935 18.80081300813008,30.79268292682927 18.953252032520325,30.79268292682927 19.10569105691057,30.741869918699187 19.20731707317073,30.741869918699187" fill="none" stroke="black" stroke-width="0.6"></polyline><polyline points="32.8760162601626,30.89430894308943 32.8760162601626,30.89430894308943 32.926829268292686,30.89430894308943 32.97764227642276,30.89430894308943 32.97764227642276,30.89430894308943 33.02845528455285,30.84349593495935 33.02845528455285,30.84349593495935 33.079268292682926,30.79268292682927 33.13008130081301,30.79268292682927 33.13008130081301,30.79268292682927 33.18089430894309,30.741869918699187 33.18089430894309,30.741869918699187 33.23170731707317,30.691056910569106 33.23170731707317,30.640243902439025 33.23170731707317,30.640243902439025 33.28252032520325,30.640243902439025 33.28252032520325,30.589430894308943 33.28252032520325,30.589430894308943 33.28252032520325,30.538617886178862 33.28252032520325,30.538617886178862 33.28252032520325,30.48780487804878 33.28252032520325,30.48780487804878 33.28252032520325,30.4369918699187 33.23170731707317,30.4369918699187 33.18089430894309,30.4369918699187 33.13008130081301,30.4369918699187 33.02845528455285,30.4369918699187 32.926829268292686,30.4369918699187 32.82520325203252,30.4369918699187 32.72357723577236,30.4369918699187 32.6219512195122,30.48780487804878 32.57113821138211,30.538617886178862 32.52032520325203,30.640243902439025 32.46951219512195,30.691056910569106 32.418699186991866,30.741869918699187 32.418699186991866,30.79268292682927 32.36788617886179,30.89430894308943 32.36788617886179,30.945121951219512 32.36788617886179,30.945121951219512 32.418699186991866,30.995934959349594 32.418699186991866,30.995934959349594 32.52032520325203,30.995934959349594 32.57113821138211,30.995934959349594 32.672764227642276,30.995934959349594 32.72357723577236,30.945121951219512 32.82520325203252,30.945121951219512 32.926829268292686,30.89430894308943 32.97764227642276,30.84349593495935 32.97764227642276,30.84349593495935 33.02845528455285,30.79268292682927 33.02845528455285,30.79268292682927" fill="none" stroke="black" stroke-width="0.6"></polyline><polyline points="33.02845528455285,30.79268292682927 33.02845528455285,30.79268292682927 33.02845528455285,30.79268292682927 33.02845528455285,30.79268292682927 33.02845528455285,30.84349593495935 33.02845528455285,30.89430894308943 32.97764227642276,30.945121951219512 32.97764227642276,30.995934959349594 32.926829268292686,31.046747967479675 32.926829268292686,31.148373983739837 32.926829268292686,31.25 32.926829268292686,31.351626016260163 32.926829268292686,31.453252032520325 32.926829268292686,31.65650406504065 32.97764227642276,31.808943089430894 33.079268292682926,31.961382113821138 33.13008130081301,32.16463414634146 33.23170731707317,32.36788617886179 33.28252032520325,32.52032520325203 33.333333333333336,32.672764227642276 33.333333333333336,32.82520325203252 33.333333333333336,32.97764227642276 33.333333333333336,33.079268292682926 33.28252032520325,33.23170731707317 33.23170731707317,33.333333333333336 33.18089430894309,33.4349593495935 33.079268292682926,33.53658536585366 32.97764227642276,33.58739837398374 32.8760162601626,33.6890243902439 32.77439024390244,33.790650406504064 32.672764227642276,33.84146341463415 32.57113821138211,33.94308943089431 32.46951219512195,33.94308943089431 32.418699186991866,33.94308943089431 32.36788617886179,33.94308943089431 32.36788617886179,33.892276422764226 32.36788617886179,33.739837398373986 32.36788617886179,33.58739837398374 32.46951219512195,33.4349593495935 32.57113821138211,33.23170731707317 32.672764227642276,32.97764227642276 32.77439024390244,32.82520325203252 32.926829268292686,32.6219512195122 33.079268292682926,32.46951219512195 33.23170731707317,32.36788617886179 33.4349593495935,32.21544715447154 33.63821138211382,32.11382113821138 33.790650406504064,31.961382113821138 33.99390243902439,31.859756097560975 34.197154471544714,31.70731707317073 34.34959349593496,31.60569105691057" fill="none" stroke="black" stroke-width="0.6"></polyline><polyline points="34.34959349593496,31.60569105691057 34.451219512195124,31.504065040650406 34.552845528455286,31.402439024390244 34.603658536585364,31.351626016260163 34.65447154471545,31.351626016260163 34.70528455284553,31.351626016260163 34.70528455284553,31.351626016260163 34.70528455284553,31.351626016260163 34.70528455284553,31.402439024390244 34.75609756097561,31.402439024390244" fill="none" stroke="black" stroke-width="0.6"></polyline><polyline points="48.88211382113821,29.115853658536583 48.88211382113821,29.115853658536583 48.88211382113821,29.0650406504065 48.88211382113821,28.96341463414634 48.88211382113821,28.912601626016258 48.88211382113821,28.861788617886177 48.88211382113821,28.810975609756095 48.88211382113821,28.760162601626014 48.88211382113821,28.709349593495933 48.88211382113821,28.709349593495933 48.88211382113821,28.65853658536585 48.88211382113821,28.65853658536585 48.88211382113821,28.65853658536585 48.88211382113821,28.709349593495933 48.88211382113821,28.810975609756095 48.83130081300813,28.96341463414634 48.78048780487805,29.166666666666664 48.729674796747965,29.420731707317074 48.6280487804878,29.67479674796748 48.52642276422764,29.928861788617887 48.42479674796748,30.233739837398375 48.323170731707314,30.48780487804878 48.22154471544715,30.741869918699187 48.06910569105691,30.945121951219512 48.01829268292683,31.097560975609756 47.916666666666664,31.19918699186992 47.8150406504065,31.351626016260163 47.8150406504065,31.402439024390244 47.764227642276424,31.402439024390244 47.764227642276424,31.402439024390244 47.764227642276424,31.453252032520325 47.764227642276424,31.453252032520325 47.764227642276424,31.402439024390244 47.764227642276424,31.351626016260163 47.8150406504065,31.30081300813008 47.86585365853659,31.19918699186992 47.916666666666664,31.148373983739837 47.96747967479675,31.046747967479675 48.01829268292683,30.995934959349594 48.06910569105691,30.945121951219512 48.170731707317074,30.89430894308943 48.22154471544715,30.84349593495935 48.27235772357724,30.79268292682927 48.3739837398374,30.79268292682927 48.42479674796748,30.741869918699187 48.52642276422764,30.741869918699187 48.6280487804878,30.741869918699187 48.729674796747965,30.741869918699187 48.83130081300813,30.741869918699187 48.93292682926829,30.741869918699187 48.983739837398375,30.741869918699187" fill="none" stroke="black" stroke-width="0.6"></polyline><polyline points="48.983739837398375,30.741869918699187 49.03455284552845,30.741869918699187 49.03455284552845,30.79268292682927 49.03455284552845,30.89430894308943 49.03455284552845,30.995934959349594 48.983739837398375,31.097560975609756 48.93292682926829,31.19918699186992 48.88211382113821,31.25 48.88211382113821,31.351626016260163 48.83130081300813,31.402439024390244 48.83130081300813,31.504065040650406 48.83130081300813,31.554878048780488 48.83130081300813,31.554878048780488 48.83130081300813,31.60569105691057 48.83130081300813,31.60569105691057 48.83130081300813,31.60569105691057 48.88211382113821,31.60569105691057" fill="none" stroke="black" stroke-width="0.6"></polyline><polyline points="65.44715447154472,29.878048780487806 65.44715447154472,29.827235772357724 65.44715447154472,29.827235772357724 65.4979674796748,29.776422764227643 65.4979674796748,29.725609756097562 65.4979674796748,29.725609756097562 65.4979674796748,29.725609756097562 65.4979674796748,29.725609756097562 65.4979674796748,29.725609756097562 65.4979674796748,29.827235772357724 65.44715447154472,29.979674796747968 65.39634146341463,30.132113821138212 65.34552845528455,30.284552845528456 65.2439024390244,30.4369918699187 65.1930894308943,30.589430894308943 65.14227642276423,30.741869918699187 65.09146341463415,30.89430894308943 65.04065040650406,30.995934959349594 64.98983739837398,31.097560975609756 64.9390243902439,31.148373983739837 64.9390243902439,31.25 64.9390243902439,31.30081300813008 64.9390243902439,31.351626016260163 64.9390243902439,31.351626016260163 64.9390243902439,31.351626016260163 64.9390243902439,31.402439024390244 64.9390243902439,31.402439024390244" fill="none" stroke="black" stroke-width="0.6"></polyline><polyline points="65.80284552845528,28.506097560975608 65.80284552845528,28.404471544715445 65.85365853658537,28.20121951219512 65.85365853658537,28.048780487804876 65.90447154471545,27.947154471544714 66.0060975609756,27.896341463414632 66.0569105691057,27.84552845528455 66.15853658536585,27.84552845528455 66.20934959349593,27.896341463414632 66.26016260162602,27.947154471544714 66.3109756097561,28.048780487804876 66.36178861788618,28.15040650406504 66.36178861788618,28.20121951219512" fill="none" stroke="black" stroke-width="0.6"></polyline><polyline points="80.6910569105691,29.776422764227643 80.6910569105691,29.725609756097562 80.6910569105691,29.67479674796748 80.6910569105691,29.6239837398374 80.6910569105691,29.573170731707318 80.74186991869918,29.522357723577237 80.74186991869918,29.522357723577237 80.74186991869918,29.522357723577237 80.74186991869918,29.522357723577237 80.74186991869918,29.522357723577237 80.74186991869918,29.522357723577237 80.74186991869918,29.522357723577237 80.74186991869918,29.573170731707318 80.6910569105691,29.6239837398374 80.64024390243902,29.725609756097562 80.58943089430895,29.776422764227643 80.53861788617886,29.878048780487806 80.53861788617886,29.979674796747968 80.48780487804878,30.08130081300813 80.48780487804878,30.182926829268293 80.4369918699187,30.335365853658537 80.4369918699187,30.4369918699187 80.4369918699187,30.589430894308943 80.4369918699187,30.741869918699187 80.4369918699187,30.89430894308943 80.48780487804878,31.046747967479675 80.53861788617886,31.19918699186992 80.58943089430895,31.351626016260163 80.64024390243902,31.504065040650406 80.6910569105691,31.65650406504065 80.74186991869918,31.808943089430894 80.79268292682927,31.961382113821138 80.84349593495935,32.0630081300813 80.84349593495935,32.16463414634146 80.84349593495935,32.266260162601625 80.84349593495935,32.3170731707317 80.74186991869918,32.36788617886179 80.58943089430895,32.36788617886179 80.4369918699187,32.418699186991866 80.1829268292683,32.46951219512195 79.92886178861788,32.46951219512195 79.6239837398374,32.52032520325203 79.369918699187,32.6219512195122 79.16666666666667,32.672764227642276 78.96341463414635,32.72357723577236 78.86178861788618,32.82520325203252 78.8109756097561,32.8760162601626 78.76016260162602,32.926829268292686 78.76016260162602,32.926829268292686 78.76016260162602,32.926829268292686 78.76016260162602,32.926829268292686" fill="none" stroke="black" stroke-width="0.6"></polyline><polyline points="78.76016260162602,32.926829268292686 78.76016260162602,32.926829268292686" fill="none" stroke="black" stroke-width="0.6"></polyline><polyline points="80.48780487804878,29.01422764227642 80.53861788617886,28.810975609756095 80.58943089430895,28.65853658536585 80.64024390243902,28.55691056910569 80.6910569105691,28.506097560975608 80.6910569105691,28.506097560975608 80.74186991869918,28.506097560975608 80.74186991869918,28.506097560975608 80.74186991869918,28.506097560975608" fill="none" stroke="black" stroke-width="0.6"></polyline><polyline points="17.1239837398374,45.3760162601626 17.1239837398374,45.3760162601626 17.1239837398374,45.3760162601626 17.1239837398374,45.3760162601626 17.1239837398374,45.325203252032516 17.1239837398374,45.325203252032516 17.1239837398374,45.325203252032516 17.1239837398374,45.325203252032516 17.073170731707318,45.325203252032516 17.073170731707318,45.3760162601626 17.073170731707318,45.47764227642276 17.022357723577237,45.52845528455285 16.971544715447155,45.63008130081301 16.971544715447155,45.78252032520325 16.920731707317074,45.88414634146341 16.920731707317074,46.03658536585366 16.869918699186993,46.239837398373986 16.869918699186993,46.44308943089431 16.81910569105691,46.646341463414636 16.76829268292683,46.90040650406504 16.666666666666668,47.15447154471545 16.615853658536587,47.357723577235774 16.514227642276424,47.5609756097561 16.41260162601626,47.764227642276424 16.36178861788618,47.86585365853659 16.3109756097561,47.96747967479675 16.260162601626014,48.01829268292683 16.260162601626014,48.01829268292683 16.209349593495933,48.01829268292683 16.209349593495933,48.01829268292683 16.209349593495933,48.01829268292683 16.209349593495933,47.96747967479675 16.209349593495933,47.96747967479675 16.260162601626014,47.916666666666664 16.3109756097561,47.86585365853659 16.36178861788618,47.86585365853659 16.41260162601626,47.8150406504065 16.41260162601626,47.764227642276424 16.463414634146343,47.764227642276424 16.463414634146343,47.764227642276424" fill="none" stroke="black" stroke-width="0.6"></polyline><polyline points="18.038617886178862,46.49390243902439 18.038617886178862,46.49390243902439 18.038617886178862,46.49390243902439 18.038617886178862,46.49390243902439 18.038617886178862,46.49390243902439 17.98780487804878,46.49390243902439 17.9369918699187,46.54471544715447 17.835365853658537,46.59552845528455 17.733739837398375,46.646341463414636 17.58130081300813,46.7479674796748 17.428861788617887,46.798780487804876 17.276422764227643,46.90040650406504 17.17479674796748,46.951219512195124 17.073170731707318,47.0020325203252 17.022357723577237,47.052845528455286 16.971544715447155,47.15447154471545 16.971544715447155,47.20528455284553 16.971544715447155,47.25609756097561 16.971544715447155,47.30691056910569 17.022357723577237,47.357723577235774 17.073170731707318,47.459349593495936 17.17479674796748,47.510162601626014 17.225609756097562,47.5609756097561 17.276422764227643,47.61178861788618 17.378048780487806,47.66260162601626 17.428861788617887,47.66260162601626 17.53048780487805,47.66260162601626 17.632113821138212,47.66260162601626 17.733739837398375,47.66260162601626 17.88617886178862,47.66260162601626 18.038617886178862,47.66260162601626 18.191056910569106,47.66260162601626 18.29268292682927,47.66260162601626 18.39430894308943,47.66260162601626" fill="none" stroke="black" stroke-width="0.6"></polyline><polyline points="32.418699186991866,46.44308943089431 32.418699186991866,46.44308943089431 32.418699186991866,46.392276422764226 32.418699186991866,46.392276422764226 32.46951219512195,46.392276422764226 32.46951219512195,46.34146341463415 32.46951219512195,46.34146341463415 32.46951219512195,46.34146341463415 32.46951219512195,46.34146341463415 32.46951219512195,46.34146341463415 32.46951219512195,46.34146341463415 32.46951219512195,46.34146341463415 32.46951219512195,46.34146341463415 32.46951219512195,46.34146341463415 32.46951219512195,46.34146341463415 32.46951219512195,46.34146341463415 32.46951219512195,46.34146341463415 32.46951219512195,46.34146341463415 32.46951219512195,46.34146341463415 32.46951219512195,46.34146341463415 32.46951219512195,46.34146341463415 32.46951219512195,46.392276422764226 32.46951219512195,46.392276422764226 32.46951219512195,46.44308943089431 32.46951219512195,46.49390243902439 32.46951219512195,46.54471544715447 32.46951219512195,46.59552845528455 32.46951219512195,46.646341463414636 32.46951219512195,46.7479674796748 32.418699186991866,46.84959349593496 32.418699186991866,46.951219512195124 32.36788617886179,47.052845528455286 32.3170731707317,47.15447154471545 32.21544715447154,47.25609756097561 32.16463414634146,47.357723577235774 32.11382113821138,47.510162601626014 32.0630081300813,47.61178861788618 32.012195121951216,47.71341463414634 31.961382113821138,47.764227642276424 31.961382113821138,47.8150406504065 31.910569105691057,47.86585365853659 31.910569105691057,47.916666666666664 31.859756097560975,47.96747967479675 31.859756097560975,48.01829268292683 31.859756097560975,48.06910569105691 31.859756097560975,48.11991869918699 31.808943089430894,48.170731707317074 31.808943089430894,48.22154471544715 31.758130081300813,48.27235772357724 31.758130081300813,48.323170731707314 31.758130081300813,48.323170731707314" fill="none" stroke="black" stroke-width="0.6"></polyline><polyline points="31.758130081300813,48.323170731707314 31.70731707317073,48.323170731707314 31.70731707317073,48.3739837398374 31.70731707317073,48.3739837398374 31.70731707317073,48.3739837398374 31.70731707317073,48.42479674796748 31.70731707317073,48.42479674796748 31.70731707317073,48.42479674796748 31.70731707317073,48.42479674796748 31.70731707317073,48.42479674796748 31.70731707317073,48.42479674796748 31.70731707317073,48.42479674796748 31.758130081300813,48.42479674796748 31.758130081300813,48.42479674796748 31.859756097560975,48.42479674796748 31.910569105691057,48.42479674796748 31.961382113821138,48.42479674796748 32.0630081300813,48.42479674796748 32.16463414634146,48.42479674796748 32.266260162601625,48.42479674796748 32.418699186991866,48.42479674796748 32.52032520325203,48.42479674796748 32.6219512195122,48.3739837398374 32.72357723577236,48.3739837398374 32.82520325203252,48.3739837398374 32.8760162601626,48.3739837398374 32.926829268292686,48.3739837398374 32.97764227642276,48.3739837398374 33.02845528455285,48.3739837398374 33.02845528455285,48.3739837398374 33.079268292682926,48.3739837398374 33.079268292682926,48.3739837398374 33.13008130081301,48.3739837398374 33.18089430894309,48.3739837398374 33.23170731707317,48.3739837398374 33.28252032520325,48.3739837398374" fill="none" stroke="black" stroke-width="0.6"></polyline><polyline points="46.54471544715447,47.5609756097561 46.54471544715447,47.5609756097561 46.54471544715447,47.5609756097561 46.54471544715447,47.5609756097561 46.54471544715447,47.510162601626014 46.54471544715447,47.510162601626014 46.54471544715447,47.510162601626014 46.54471544715447,47.510162601626014 46.54471544715447,47.459349593495936 46.59552845528455,47.459349593495936 46.59552845528455,47.459349593495936 46.59552845528455,47.459349593495936 46.59552845528455,47.459349593495936 46.59552845528455,47.40853658536585 46.646341463414636,47.40853658536585 46.646341463414636,47.40853658536585 46.646341463414636,47.40853658536585 46.646341463414636,47.40853658536585 46.646341463414636,47.459349593495936 46.646341463414636,47.510162601626014 46.646341463414636,47.61178861788618 46.646341463414636,47.66260162601626 46.646341463414636,47.764227642276424 46.646341463414636,47.916666666666664 46.59552845528455,48.01829268292683 46.59552845528455,48.11991869918699 46.54471544715447,48.170731707317074 46.49390243902439,48.27235772357724 46.49390243902439,48.323170731707314 46.49390243902439,48.42479674796748 46.44308943089431,48.42479674796748 46.44308943089431,48.47560975609756 46.44308943089431,48.52642276422764 46.44308943089431,48.52642276422764 46.44308943089431,48.52642276422764 46.44308943089431,48.52642276422764 46.44308943089431,48.52642276422764 46.44308943089431,48.52642276422764 46.49390243902439,48.47560975609756 46.59552845528455,48.42479674796748 46.646341463414636,48.3739837398374 46.697154471544714,48.27235772357724 46.798780487804876,48.22154471544715 46.84959349593496,48.170731707317074 46.951219512195124,48.11991869918699 47.0020325203252,48.01829268292683 47.052845528455286,47.96747967479675 47.103658536585364,47.916666666666664 47.15447154471545,47.86585365853659 47.25609756097561,47.86585365853659 47.30691056910569,47.8150406504065" fill="none" stroke="black" stroke-width="0.6"></polyline><polyline points="47.30691056910569,47.8150406504065 47.357723577235774,47.764227642276424 47.357723577235774,47.764227642276424 47.40853658536585,47.764227642276424 47.40853658536585,47.764227642276424 47.40853658536585,47.764227642276424 47.40853658536585,47.764227642276424 47.40853658536585,47.764227642276424 47.40853658536585,47.8150406504065 47.357723577235774,47.86585365853659 47.30691056910569,47.916666666666664 47.25609756097561,48.01829268292683 47.25609756097561,48.06910569105691 47.20528455284553,48.11991869918699 47.20528455284553,48.170731707317074 47.20528455284553,48.22154471544715 47.20528455284553,48.22154471544715 47.20528455284553,48.27235772357724 47.20528455284553,48.27235772357724 47.20528455284553,48.27235772357724 47.25609756097561,48.27235772357724 47.357723577235774,48.27235772357724 47.459349593495936,48.22154471544715 47.61178861788618,48.11991869918699 47.764227642276424,48.01829268292683 47.916666666666664,47.916666666666664 48.11991869918699,47.8150406504065 48.27235772357724,47.71341463414634 48.42479674796748,47.61178861788618 48.52642276422764,47.5609756097561 48.577235772357724,47.5609756097561 48.6280487804878,47.5609756097561 48.67886178861789,47.5609756097561 48.67886178861789,47.61178861788618 48.67886178861789,47.66260162601626 48.6280487804878,47.764227642276424 48.6280487804878,47.8150406504065 48.577235772357724,47.86585365853659 48.577235772357724,47.916666666666664 48.52642276422764,47.96747967479675 48.52642276422764,48.01829268292683 48.52642276422764,48.06910569105691 48.47560975609756,48.11991869918699 48.47560975609756,48.170731707317074 48.47560975609756,48.22154471544715 48.47560975609756,48.27235772357724 48.47560975609756,48.323170731707314 48.47560975609756,48.323170731707314 48.47560975609756,48.3739837398374 48.47560975609756,48.3739837398374 48.47560975609756,48.42479674796748" fill="none" stroke="black" stroke-width="0.6"></polyline><polyline points="48.47560975609756,48.42479674796748 48.47560975609756,48.42479674796748 48.47560975609756,48.42479674796748" fill="none" stroke="black" stroke-width="0.6"></polyline><polyline points="64.58333333333333,47.86585365853659 64.58333333333333,47.86585365853659 64.58333333333333,47.86585365853659 64.58333333333333,47.86585365853659 64.58333333333333,47.86585365853659 64.58333333333333,47.86585365853659 64.58333333333333,47.86585365853659 64.58333333333333,47.8150406504065 64.58333333333333,47.8150406504065 64.58333333333333,47.8150406504065 64.58333333333333,47.8150406504065 64.58333333333333,47.8150406504065 64.58333333333333,47.8150406504065 64.58333333333333,47.8150406504065 64.58333333333333,47.8150406504065 64.58333333333333,47.8150406504065 64.58333333333333,47.8150406504065 64.53252032520325,47.86585365853659 64.48170731707317,47.916666666666664 64.43089430894308,47.96747967479675 64.380081300813,48.06910569105691 64.32926829268293,48.11991869918699 64.27845528455285,48.170731707317074 64.22764227642276,48.27235772357724 64.1260162601626,48.323170731707314 64.07520325203252,48.42479674796748 64.02439024390243,48.47560975609756 63.97357723577235,48.577235772357724 63.922764227642276,48.6280487804878 63.87195121951219,48.67886178861789 63.87195121951219,48.67886178861789 63.87195121951219,48.729674796747965 63.87195121951219,48.729674796747965 63.87195121951219,48.729674796747965 63.87195121951219,48.729674796747965 63.87195121951219,48.729674796747965 63.87195121951219,48.67886178861789 63.922764227642276,48.6280487804878 63.97357723577235,48.577235772357724 64.02439024390243,48.52642276422764 64.1260162601626,48.42479674796748 64.22764227642276,48.3739837398374 64.32926829268293,48.27235772357724 64.43089430894308,48.22154471544715 64.48170731707317,48.170731707317074 64.58333333333333,48.11991869918699 64.6849593495935,48.06910569105691 64.73577235772358,48.01829268292683 64.78658536585365,48.01829268292683 64.83739837398373,47.96747967479675 64.83739837398373,47.96747967479675" fill="none" stroke="black" stroke-width="0.6"></polyline><polyline points="64.83739837398373,47.96747967479675 64.88821138211382,47.96747967479675 64.88821138211382,47.96747967479675 64.88821138211382,47.96747967479675 64.88821138211382,47.96747967479675 64.88821138211382,47.96747967479675 64.88821138211382,47.96747967479675 64.88821138211382,47.96747967479675 64.88821138211382,47.96747967479675 64.88821138211382,48.01829268292683 64.88821138211382,48.06910569105691 64.88821138211382,48.11991869918699 64.88821138211382,48.170731707317074 64.88821138211382,48.22154471544715 64.88821138211382,48.27235772357724 64.88821138211382,48.323170731707314 64.88821138211382,48.3739837398374 64.88821138211382,48.3739837398374 64.9390243902439,48.42479674796748 64.98983739837398,48.42479674796748 65.09146341463415,48.42479674796748 65.1930894308943,48.3739837398374 65.29471544715447,48.323170731707314 65.44715447154472,48.27235772357724 65.59959349593495,48.22154471544715 65.7520325203252,48.170731707317074 65.90447154471545,48.11991869918699 66.0569105691057,48.06910569105691 66.20934959349593,48.01829268292683 66.3109756097561,47.96747967479675 66.41260162601625,47.916666666666664 66.51422764227642,47.86585365853659 66.61585365853658,47.8150406504065 66.61585365853658,47.764227642276424" fill="none" stroke="black" stroke-width="0.6"></polyline><polyline points="80.48780487804878,47.40853658536585 80.48780487804878,47.40853658536585 80.48780487804878,47.40853658536585 80.48780487804878,47.40853658536585 80.48780487804878,47.40853658536585 80.48780487804878,47.40853658536585 80.48780487804878,47.40853658536585 80.48780487804878,47.357723577235774 80.48780487804878,47.357723577235774 80.48780487804878,47.357723577235774 80.48780487804878,47.357723577235774 80.48780487804878,47.357723577235774 80.48780487804878,47.357723577235774 80.48780487804878,47.357723577235774 80.48780487804878,47.30691056910569 80.48780487804878,47.30691056910569 80.48780487804878,47.30691056910569 80.48780487804878,47.30691056910569 80.48780487804878,47.30691056910569 80.48780487804878,47.30691056910569 80.48780487804878,47.30691056910569 80.48780487804878,47.30691056910569 80.48780487804878,47.357723577235774 80.4369918699187,47.40853658536585 80.33536585365853,47.459349593495936 80.28455284552845,47.5609756097561 80.1829268292683,47.61178861788618 80.08130081300813,47.71341463414634 79.92886178861788,47.764227642276424 79.82723577235772,47.86585365853659 79.77642276422765,47.916666666666664 79.67479674796748,47.96747967479675 79.6239837398374,48.01829268292683 79.57317073170732,48.06910569105691 79.57317073170732,48.11991869918699 79.57317073170732,48.170731707317074 79.57317073170732,48.170731707317074 79.57317073170732,48.22154471544715 79.57317073170732,48.27235772357724 79.57317073170732,48.27235772357724 79.57317073170732,48.323170731707314 79.6239837398374,48.323170731707314 79.67479674796748,48.3739837398374 79.72560975609755,48.3739837398374 79.72560975609755,48.3739837398374 79.77642276422765,48.42479674796748 79.8780487804878,48.42479674796748 79.92886178861788,48.42479674796748 79.97967479674797,48.42479674796748 80.08130081300813,48.42479674796748 80.1829268292683,48.42479674796748" fill="none" stroke="black" stroke-width="0.6"></polyline><polyline points="80.1829268292683,48.42479674796748 80.33536585365853,48.42479674796748 80.4369918699187,48.3739837398374 80.58943089430895,48.3739837398374 80.74186991869918,48.323170731707314 80.89430894308943,48.323170731707314 80.9959349593496,48.27235772357724 81.09756097560975,48.27235772357724 81.19918699186992,48.22154471544715 81.25,48.22154471544715 81.30081300813008,48.170731707317074 81.30081300813008,48.11991869918699 81.35162601626016,48.06910569105691 81.35162601626016,48.01829268292683 81.40243902439025,47.916666666666664 81.40243902439025,47.86585365853659 81.40243902439025,47.764227642276424 81.40243902439025,47.71341463414634 81.35162601626016,47.66260162601626 81.35162601626016,47.66260162601626 81.25,47.66260162601626 81.19918699186992,47.66260162601626 81.04674796747967,47.66260162601626 80.89430894308943,47.71341463414634 80.74186991869918,47.764227642276424 80.53861788617886,47.8150406504065" fill="none" stroke="black" stroke-width="0.6"></polyline><polyline points="14.786585365853659,63.36382113821138 14.786585365853659,63.36382113821138 14.786585365853659,63.36382113821138 14.786585365853659,63.36382113821138 14.786585365853659,63.3130081300813 14.83739837398374,63.3130081300813 14.83739837398374,63.3130081300813 14.83739837398374,63.3130081300813 14.83739837398374,63.3130081300813 14.83739837398374,63.3130081300813 14.83739837398374,63.3130081300813 14.83739837398374,63.3130081300813 14.83739837398374,63.36382113821138 14.83739837398374,63.41463414634146 14.83739837398374,63.516260162601625 14.786585365853659,63.61788617886179 14.786585365853659,63.77032520325203 14.735772357723578,63.922764227642276 14.684959349593496,64.07520325203252 14.634146341463413,64.27845528455285 14.583333333333332,64.43089430894308 14.583333333333332,64.6341463414634 14.583333333333332,64.78658536585365 14.53252032520325,64.9390243902439 14.53252032520325,65.09146341463415 14.53252032520325,65.1930894308943 14.53252032520325,65.29471544715447 14.53252032520325,65.34552845528455 14.53252032520325,65.39634146341463 14.53252032520325,65.39634146341463 14.53252032520325,65.39634146341463 14.53252032520325,65.39634146341463 14.53252032520325,65.39634146341463 14.53252032520325,65.39634146341463 14.53252032520325,65.39634146341463 14.53252032520325,65.34552845528455 14.53252032520325,65.29471544715447 14.53252032520325,65.29471544715447 14.53252032520325,65.2439024390244 14.53252032520325,65.1930894308943 14.53252032520325,65.14227642276423 14.53252032520325,65.04065040650406 14.53252032520325,64.98983739837398 14.53252032520325,64.9390243902439 14.53252032520325,64.83739837398373 14.53252032520325,64.73577235772358 14.53252032520325,64.6341463414634 14.583333333333332,64.53252032520325 14.583333333333332,64.48170731707317 14.634146341463413,64.43089430894308 14.684959349593496,64.27845528455285" fill="none" stroke="black" stroke-width="0.6"></polyline><polyline points="14.684959349593496,64.27845528455285 14.735772357723578,64.1260162601626 14.786585365853659,63.97357723577235 14.83739837398374,63.82113821138211 14.888211382113822,63.61788617886179 14.939024390243903,63.516260162601625 15.040650406504065,63.36382113821138 15.091463414634147,63.262195121951216 15.142276422764228,63.16056910569105 15.19308943089431,63.109756097560975 15.19308943089431,63.05894308943089 15.24390243902439,63.05894308943089 15.24390243902439,63.05894308943089 15.294715447154472,63.05894308943089 15.294715447154472,63.05894308943089 15.294715447154472,63.05894308943089 15.294715447154472,63.05894308943089 15.294715447154472,63.109756097560975 15.345528455284553,63.16056910569105 15.345528455284553,63.16056910569105 15.345528455284553,63.262195121951216 15.345528455284553,63.3130081300813 15.345528455284553,63.41463414634146 15.345528455284553,63.46544715447154 15.345528455284553,63.5670731707317 15.345528455284553,63.61788617886179 15.345528455284553,63.668699186991866 15.345528455284553,63.71951219512195 15.345528455284553,63.77032520325203 15.294715447154472,63.82113821138211 15.24390243902439,63.87195121951219 15.19308943089431,63.922764227642276 15.142276422764228,63.922764227642276 15.091463414634147,63.97357723577235 15.040650406504065,63.97357723577235 14.989837398373984,63.97357723577235 14.939024390243903,63.97357723577235 14.888211382113822,64.02439024390243 14.83739837398374,64.02439024390243 14.786585365853659,64.02439024390243 14.786585365853659,64.02439024390243 14.786585365853659,64.02439024390243" fill="none" stroke="black" stroke-width="0.6"></polyline><polyline points="31.097560975609756,62.7540650406504 31.097560975609756,62.7540650406504 31.148373983739837,62.703252032520325 31.148373983739837,62.703252032520325 31.19918699186992,62.65243902439024 31.19918699186992,62.60162601626016 31.19918699186992,62.55081300813008 31.25,62.5 31.25,62.449186991869915 31.25,62.39837398373984 31.25,62.34756097560975 31.25,62.34756097560975 31.25,62.296747967479675 31.25,62.24593495934959 31.19918699186992,62.19512195121951 31.19918699186992,62.19512195121951 31.148373983739837,62.14430894308943 31.097560975609756,62.14430894308943 31.046747967479675,62.14430894308943 30.995934959349594,62.14430894308943 30.945121951219512,62.14430894308943 30.84349593495935,62.14430894308943 30.79268292682927,62.19512195121951 30.640243902439025,62.24593495934959 30.48780487804878,62.34756097560975 30.335365853658537,62.449186991869915 30.182926829268293,62.55081300813008 30.03048780487805,62.65243902439024 29.827235772357724,62.7540650406504 29.725609756097562,62.855691056910565 29.6239837398374,62.90650406504065 29.522357723577237,63.00813008130081 29.522357723577237,63.05894308943089 29.522357723577237,63.16056910569105 29.522357723577237,63.262195121951216 29.522357723577237,63.3130081300813 29.573170731707318,63.36382113821138 29.6239837398374,63.46544715447154 29.725609756097562,63.516260162601625 29.776422764227643,63.5670731707317 29.878048780487806,63.61788617886179 29.979674796747968,63.668699186991866 30.08130081300813,63.71951219512195 30.233739837398375,63.71951219512195 30.335365853658537,63.71951219512195 30.538617886178862,63.71951219512195 30.691056910569106,63.71951219512195 30.89430894308943,63.668699186991866 31.046747967479675,63.5670731707317 31.25,63.516260162601625 31.351626016260163,63.46544715447154" fill="none" stroke="black" stroke-width="0.6"></polyline><polyline points="31.351626016260163,63.46544715447154 31.504065040650406,63.36382113821138 31.60569105691057,63.262195121951216 31.65650406504065,63.21138211382114 31.70731707317073,63.109756097560975 31.758130081300813,63.05894308943089 31.758130081300813,63.00813008130081 31.758130081300813,62.95731707317073 31.758130081300813,62.95731707317073 31.758130081300813,62.95731707317073 31.758130081300813,62.90650406504065 31.758130081300813,62.90650406504065 31.758130081300813,62.90650406504065 31.758130081300813,62.90650406504065 31.758130081300813,62.90650406504065 31.758130081300813,62.90650406504065" fill="none" stroke="black" stroke-width="0.6"></polyline><polyline points="30.741869918699187,63.00813008130081 30.741869918699187,63.00813008130081 30.741869918699187,63.00813008130081 30.741869918699187,63.05894308943089 30.741869918699187,63.05894308943089 30.741869918699187,63.05894308943089 30.691056910569106,63.05894308943089 30.691056910569106,63.05894308943089 30.691056910569106,63.05894308943089 30.691056910569106,63.05894308943089 30.640243902439025,63.109756097560975 30.640243902439025,63.109756097560975 30.640243902439025,63.109756097560975 30.640243902439025,63.109756097560975 30.640243902439025,63.109756097560975 30.640243902439025,63.109756097560975 30.640243902439025,63.109756097560975 30.640243902439025,63.109756097560975 30.640243902439025,63.109756097560975 30.640243902439025,63.109756097560975 30.640243902439025,63.109756097560975 30.640243902439025,63.109756097560975 30.640243902439025,63.109756097560975 30.640243902439025,63.109756097560975 30.640243902439025,63.109756097560975 30.640243902439025,63.109756097560975 30.640243902439025,63.109756097560975 30.640243902439025,63.109756097560975 30.640243902439025,63.109756097560975 30.691056910569106,63.109756097560975 30.691056910569106,63.109756097560975 30.691056910569106,63.109756097560975 30.691056910569106,63.109756097560975 30.741869918699187,63.05894308943089 30.741869918699187,63.05894308943089 30.741869918699187,63.05894308943089 30.741869918699187,63.05894308943089 30.741869918699187,63.05894308943089 30.741869918699187,63.05894308943089 30.741869918699187,63.05894308943089 30.741869918699187,63.05894308943089 30.741869918699187,63.05894308943089 30.79268292682927,63.05894308943089 30.79268292682927,63.05894308943089 30.79268292682927,63.05894308943089 30.79268292682927,63.05894308943089 30.79268292682927,63.05894308943089 30.79268292682927,63.00813008130081 30.79268292682927,63.00813008130081 30.79268292682927,63.00813008130081 30.79268292682927,63.00813008130081" fill="none" stroke="black" stroke-width="0.6"></polyline><polyline points="30.79268292682927,63.00813008130081 30.79268292682927,63.00813008130081 30.79268292682927,63.00813008130081 30.79268292682927,63.00813008130081 30.79268292682927,63.00813008130081 30.79268292682927,63.00813008130081 30.79268292682927,63.00813008130081 30.79268292682927,63.00813008130081 30.79268292682927,63.00813008130081 30.79268292682927,63.00813008130081 30.79268292682927,63.00813008130081 30.79268292682927,63.00813008130081 30.79268292682927,63.00813008130081 30.79268292682927,63.00813008130081 30.79268292682927,63.00813008130081 30.79268292682927,63.00813008130081 30.79268292682927,63.00813008130081 30.79268292682927,63.00813008130081 30.79268292682927,63.00813008130081 30.79268292682927,63.00813008130081 30.79268292682927,63.00813008130081 30.79268292682927,63.00813008130081 30.79268292682927,63.00813008130081 30.79268292682927,63.00813008130081 30.79268292682927,63.00813008130081 30.79268292682927,63.00813008130081 30.79268292682927,63.00813008130081 30.79268292682927,63.00813008130081 30.79268292682927,63.00813008130081 30.79268292682927,63.00813008130081 30.79268292682927,63.00813008130081" fill="none" stroke="black" stroke-width="0.6"></polyline><polyline points="31.097560975609756,62.65243902439024 31.097560975609756,62.65243902439024 31.097560975609756,62.60162601626016 31.097560975609756,62.60162601626016 31.097560975609756,62.55081300813008 31.097560975609756,62.55081300813008 31.097560975609756,62.55081300813008 31.097560975609756,62.5 31.046747967479675,62.5 31.046747967479675,62.5 30.995934959349594,62.5 30.995934959349594,62.5 30.945121951219512,62.5 30.945121951219512,62.5 30.89430894308943,62.5 30.84349593495935,62.5 30.79268292682927,62.5 30.741869918699187,62.5 30.640243902439025,62.55081300813008 30.589430894308943,62.60162601626016 30.48780487804878,62.65243902439024 30.38617886178862,62.703252032520325 30.284552845528456,62.7540650406504 30.182926829268293,62.80487804878049 30.08130081300813,62.855691056910565 29.979674796747968,62.95731707317073 29.928861788617887,63.00813008130081 29.827235772357724,63.05894308943089 29.776422764227643,63.109756097560975 29.776422764227643,63.16056910569105 29.725609756097562,63.21138211382114 29.67479674796748,63.21138211382114 29.67479674796748,63.262195121951216 29.67479674796748,63.3130081300813 29.67479674796748,63.36382113821138 29.67479674796748,63.41463414634146 29.67479674796748,63.46544715447154 29.725609756097562,63.516260162601625 29.776422764227643,63.5670731707317 29.776422764227643,63.5670731707317 29.827235772357724,63.61788617886179 29.878048780487806,63.61788617886179 29.979674796747968,63.61788617886179 30.03048780487805,63.61788617886179 30.08130081300813,63.61788617886179 30.182926829268293,63.61788617886179 30.233739837398375,63.61788617886179 30.284552845528456,63.61788617886179 30.335365853658537,63.61788617886179 30.4369918699187,63.61788617886179 30.48780487804878,63.5670731707317" fill="none" stroke="black" stroke-width="0.6"></polyline><polyline points="30.48780487804878,63.5670731707317 30.48780487804878,63.5670731707317 30.538617886178862,63.516260162601625 30.589430894308943,63.46544715447154 30.589430894308943,63.46544715447154 30.640243902439025,63.41463414634146 30.640243902439025,63.36382113821138 30.691056910569106,63.36382113821138 30.691056910569106,63.3130081300813 30.741869918699187,63.3130081300813 30.741869918699187,63.262195121951216 30.741869918699187,63.262195121951216 30.741869918699187,63.262195121951216 30.741869918699187,63.262195121951216 30.741869918699187,63.262195121951216 30.741869918699187,63.262195121951216 30.741869918699187,63.262195121951216 30.691056910569106,63.3130081300813 30.640243902439025,63.36382113821138 30.589430894308943,63.46544715447154 30.538617886178862,63.5670731707317 30.48780487804878,63.668699186991866 30.38617886178862,63.77032520325203 30.284552845528456,63.922764227642276 30.132113821138212,64.1260162601626 30.03048780487805,64.27845528455285 29.878048780487806,64.48170731707317 29.725609756097562,64.6849593495935 29.573170731707318,64.83739837398373 29.420731707317074,64.9390243902439 29.31910569105691,65.09146341463415 29.217479674796746,65.1930894308943 29.115853658536583,65.2439024390244 29.0650406504065,65.29471544715447 29.01422764227642,65.34552845528455 29.01422764227642,65.39634146341463 28.96341463414634,65.44715447154472 28.96341463414634,65.4979674796748 28.96341463414634,65.54878048780488 28.96341463414634,65.59959349593495 28.96341463414634,65.59959349593495 29.01422764227642,65.59959349593495 29.01422764227642,65.59959349593495 29.01422764227642,65.59959349593495 29.0650406504065,65.59959349593495 29.0650406504065,65.59959349593495 29.0650406504065,65.59959349593495 29.0650406504065,65.59959349593495 29.115853658536583,65.59959349593495 29.115853658536583,65.59959349593495 29.115853658536583,65.59959349593495" fill="none" stroke="black" stroke-width="0.6"></polyline><polyline points="29.115853658536583,65.59959349593495 29.115853658536583,65.59959349593495 29.166666666666664,65.59959349593495 29.166666666666664,65.59959349593495 29.166666666666664,65.59959349593495 29.166666666666664,65.59959349593495 29.217479674796746,65.59959349593495 29.217479674796746,65.59959349593495" fill="none" stroke="black" stroke-width="0.6"></polyline><polyline points="30.03048780487805,64.32926829268293 30.03048780487805,64.32926829268293 30.03048780487805,64.32926829268293 30.03048780487805,64.27845528455285 30.03048780487805,64.27845528455285 30.03048780487805,64.27845528455285 30.03048780487805,64.27845528455285 30.03048780487805,64.27845528455285 30.03048780487805,64.27845528455285 30.03048780487805,64.27845528455285 30.03048780487805,64.27845528455285 30.03048780487805,64.27845528455285 30.08130081300813,64.27845528455285 30.132113821138212,64.27845528455285 30.182926829268293,64.27845528455285 30.284552845528456,64.27845528455285 30.38617886178862,64.27845528455285 30.538617886178862,64.27845528455285 30.691056910569106,64.22764227642276 30.89430894308943,64.17682926829268 31.097560975609756,64.1260162601626 31.30081300813008,64.02439024390243 31.554878048780488,63.97357723577235 31.758130081300813,63.922764227642276 31.910569105691057,63.87195121951219 32.0630081300813,63.87195121951219 32.21544715447154,63.87195121951219 32.36788617886179,63.87195121951219" fill="none" stroke="black" stroke-width="0.6"></polyline><polyline points="47.0020325203252,63.82113821138211 47.0020325203252,63.82113821138211 46.951219512195124,63.77032520325203 46.951219512195124,63.77032520325203 46.951219512195124,63.77032520325203 46.951219512195124,63.71951219512195 46.951219512195124,63.71951219512195 46.951219512195124,63.71951219512195 46.951219512195124,63.71951219512195 46.951219512195124,63.71951219512195 46.951219512195124,63.71951219512195 46.951219512195124,63.77032520325203 46.951219512195124,63.82113821138211 46.951219512195124,63.87195121951219 46.951219512195124,63.922764227642276 47.0020325203252,64.02439024390243 47.0020325203252,64.1260162601626 47.0020325203252,64.22764227642276 47.0020325203252,64.32926829268293 47.0020325203252,64.48170731707317 47.0020325203252,64.6341463414634 47.0020325203252,64.73577235772358 47.0020325203252,64.88821138211382 46.951219512195124,64.98983739837398 46.90040650406504,65.09146341463415 46.90040650406504,65.1930894308943 46.84959349593496,65.2439024390244 46.84959349593496,65.2439024390244 46.798780487804876,65.29471544715447 46.798780487804876,65.29471544715447 46.798780487804876,65.29471544715447 46.798780487804876,65.29471544715447 46.798780487804876,65.2439024390244 46.798780487804876,65.1930894308943 46.798780487804876,65.14227642276423 46.798780487804876,65.09146341463415 46.798780487804876,65.04065040650406 46.798780487804876,64.9390243902439 46.798780487804876,64.88821138211382 46.84959349593496,64.78658536585365 46.951219512195124,64.73577235772358 47.0020325203252,64.6341463414634 47.103658536585364,64.58333333333333 47.20528455284553,64.48170731707317 47.30691056910569,64.43089430894308 47.40853658536585,64.32926829268293 47.5609756097561,64.27845528455285 47.66260162601626,64.17682926829268 47.764227642276424,64.1260162601626 47.86585365853659,64.1260162601626 47.916666666666664,64.07520325203252" fill="none" stroke="black" stroke-width="0.6"></polyline><polyline points="47.916666666666664,64.07520325203252 47.96747967479675,64.02439024390243 48.06910569105691,64.02439024390243 48.06910569105691,63.97357723577235" fill="none" stroke="black" stroke-width="0.6"></polyline><polyline points="64.32926829268293,63.82113821138211 64.32926829268293,63.82113821138211 64.32926829268293,63.82113821138211 64.32926829268293,63.82113821138211 64.32926829268293,63.77032520325203 64.32926829268293,63.77032520325203 64.380081300813,63.77032520325203 64.380081300813,63.77032520325203 64.380081300813,63.71951219512195 64.380081300813,63.71951219512195 64.380081300813,63.71951219512195 64.380081300813,63.71951219512195 64.380081300813,63.71951219512195 64.380081300813,63.668699186991866 64.380081300813,63.668699186991866 64.43089430894308,63.668699186991866 64.43089430894308,63.668699186991866 64.43089430894308,63.668699186991866 64.380081300813,63.668699186991866 64.32926829268293,63.668699186991866 64.22764227642276,63.71951219512195 64.1260162601626,63.77032520325203 64.02439024390243,63.82113821138211 63.87195121951219,63.922764227642276 63.77032520325203,63.97357723577235 63.668699186991866,64.02439024390243 63.5670731707317,64.07520325203252 63.516260162601625,64.1260162601626 63.516260162601625,64.17682926829268 63.516260162601625,64.22764227642276 63.516260162601625,64.22764227642276 63.516260162601625,64.22764227642276 63.516260162601625,64.27845528455285 63.5670731707317,64.27845528455285 63.61788617886179,64.27845528455285 63.668699186991866,64.27845528455285 63.71951219512195,64.27845528455285 63.77032520325203,64.32926829268293 63.82113821138211,64.32926829268293 63.922764227642276,64.32926829268293 63.97357723577235,64.32926829268293 64.02439024390243,64.380081300813 64.07520325203252,64.380081300813 64.1260162601626,64.43089430894308 64.17682926829268,64.48170731707317 64.17682926829268,64.53252032520325 64.17682926829268,64.58333333333333 64.17682926829268,64.6849593495935 64.1260162601626,64.73577235772358 64.07520325203252,64.83739837398373 64.02439024390243,64.9390243902439" fill="none" stroke="black" stroke-width="0.6"></polyline><polyline points="64.02439024390243,64.9390243902439 63.922764227642276,64.98983739837398 63.82113821138211,65.09146341463415 63.77032520325203,65.14227642276423 63.668699186991866,65.1930894308943 63.5670731707317,65.2439024390244 63.46544715447154,65.29471544715447 63.36382113821138,65.34552845528455 63.262195121951216,65.39634146341463 63.21138211382114,65.39634146341463 63.05894308943089,65.39634146341463 63.00813008130081,65.39634146341463 62.90650406504065,65.39634146341463 62.80487804878049,65.39634146341463 62.7540650406504,65.39634146341463 62.703252032520325,65.39634146341463 62.703252032520325,65.39634146341463 62.703252032520325,65.39634146341463 62.703252032520325,65.39634146341463 62.703252032520325,65.34552845528455 62.703252032520325,65.34552845528455" fill="none" stroke="black" stroke-width="0.6"></polyline><polyline points="81.04674796747967,62.95731707317073 81.04674796747967,62.95731707317073 81.04674796747967,62.95731707317073 81.04674796747967,62.90650406504065 81.04674796747967,62.855691056910565 81.04674796747967,62.855691056910565 81.04674796747967,62.80487804878049 81.09756097560975,62.80487804878049 81.09756097560975,62.80487804878049 81.09756097560975,62.7540650406504 81.09756097560975,62.7540650406504 81.14837398373983,62.7540650406504 81.14837398373983,62.703252032520325 81.14837398373983,62.703252032520325 81.19918699186992,62.703252032520325 81.19918699186992,62.703252032520325 81.19918699186992,62.703252032520325 81.19918699186992,62.7540650406504 81.19918699186992,62.80487804878049 81.19918699186992,62.855691056910565 81.19918699186992,62.95731707317073 81.14837398373983,63.05894308943089 81.14837398373983,63.16056910569105 81.09756097560975,63.262195121951216 81.04674796747967,63.41463414634146 81.04674796747967,63.5670731707317 80.9959349593496,63.71951219512195 80.9959349593496,63.87195121951219 80.9959349593496,63.97357723577235 80.9451219512195,64.07520325203252 80.9451219512195,64.22764227642276 80.9451219512195,64.32926829268293 80.89430894308943,64.43089430894308 80.89430894308943,64.48170731707317 80.89430894308943,64.53252032520325 80.89430894308943,64.58333333333333 80.89430894308943,64.6341463414634 80.89430894308943,64.6341463414634 80.89430894308943,64.6849593495935 80.89430894308943,64.6849593495935 80.89430894308943,64.6849593495935 80.89430894308943,64.6849593495935 80.89430894308943,64.73577235772358 80.89430894308943,64.73577235772358 80.89430894308943,64.73577235772358 80.89430894308943,64.73577235772358 80.89430894308943,64.73577235772358" fill="none" stroke="black" stroke-width="0.6"></polyline><polyline points="80.1829268292683,64.380081300813 80.1321138211382,64.27845528455285 80.1321138211382,64.22764227642276 80.1321138211382,64.17682926829268 80.1321138211382,64.1260162601626 80.1829268292683,64.07520325203252 80.28455284552845,64.02439024390243 80.38617886178862,63.97357723577235 80.58943089430895,63.922764227642276 80.79268292682927,63.82113821138211 80.9959349593496,63.77032520325203 81.25,63.71951219512195 81.45325203252033,63.668699186991866 81.60569105691057,63.61788617886179 81.70731707317073,63.61788617886179 81.8089430894309,63.61788617886179 81.85975609756098,63.61788617886179 81.85975609756098,63.668699186991866 81.91056910569105,63.668699186991866" fill="none" stroke="black" stroke-width="0.6"></polyline><polyline points="14.380081300813007,80.23373983739837 14.380081300813007,80.23373983739837 14.380081300813007,80.23373983739837 14.380081300813007,80.1829268292683 14.380081300813007,80.1829268292683 14.380081300813007,80.1321138211382 14.380081300813007,80.1321138211382 14.380081300813007,80.1321138211382 14.430894308943088,80.1321138211382 14.430894308943088,80.08130081300813 14.430894308943088,80.08130081300813 14.430894308943088,80.08130081300813 14.430894308943088,80.08130081300813 14.430894308943088,80.08130081300813 14.430894308943088,80.08130081300813 14.430894308943088,80.08130081300813 14.430894308943088,80.08130081300813 14.430894308943088,80.08130081300813 14.430894308943088,80.08130081300813 14.430894308943088,80.08130081300813 14.430894308943088,80.08130081300813 14.430894308943088,80.08130081300813 14.430894308943088,80.08130081300813 14.430894308943088,80.08130081300813 14.430894308943088,80.08130081300813 14.430894308943088,80.08130081300813 14.430894308943088,80.08130081300813 14.430894308943088,80.08130081300813 14.430894308943088,80.08130081300813 14.430894308943088,80.08130081300813 14.430894308943088,80.08130081300813 14.430894308943088,80.08130081300813 14.430894308943088,80.08130081300813 14.430894308943088,80.1321138211382 14.430894308943088,80.1321138211382 14.380081300813007,80.1829268292683 14.380081300813007,80.23373983739837 14.329268292682926,80.28455284552845 14.329268292682926,80.33536585365853 14.329268292682926,80.38617886178862 14.329268292682926,80.48780487804878 14.278455284552845,80.53861788617886 14.278455284552845,80.58943089430895 14.278455284552845,80.64024390243902 14.278455284552845,80.6910569105691 14.278455284552845,80.79268292682927 14.278455284552845,80.84349593495935 14.278455284552845,80.89430894308943 14.278455284552845,80.89430894308943 14.329268292682926,80.9451219512195 14.329268292682926,80.9959349593496" fill="none" stroke="black" stroke-width="0.6"></polyline><polyline points="14.329268292682926,80.9959349593496 14.380081300813007,80.9959349593496 14.430894308943088,80.9959349593496 14.430894308943088,81.04674796747967 14.48170731707317,81.04674796747967 14.53252032520325,81.04674796747967 14.583333333333332,81.04674796747967 14.583333333333332,81.04674796747967 14.634146341463413,81.04674796747967 14.684959349593496,81.04674796747967 14.735772357723578,81.04674796747967 14.735772357723578,81.04674796747967 14.786585365853659,81.04674796747967 14.83739837398374,81.04674796747967 14.83739837398374,81.04674796747967 14.888211382113822,81.04674796747967 14.939024390243903,81.04674796747967 14.989837398373984,80.9959349593496 15.040650406504065,80.9959349593496 15.091463414634147,80.9451219512195 15.142276422764228,80.89430894308943 15.19308943089431,80.89430894308943 15.24390243902439,80.84349593495935 15.294715447154472,80.79268292682927 15.345528455284553,80.79268292682927 15.345528455284553,80.74186991869918 15.396341463414634,80.74186991869918 15.396341463414634,80.6910569105691 15.447154471544716,80.6910569105691 15.447154471544716,80.64024390243902 15.447154471544716,80.64024390243902 15.447154471544716,80.64024390243902 15.447154471544716,80.58943089430895 15.447154471544716,80.58943089430895 15.447154471544716,80.58943089430895 15.447154471544716,80.58943089430895 15.447154471544716,80.53861788617886 15.447154471544716,80.53861788617886 15.447154471544716,80.48780487804878 15.447154471544716,80.48780487804878 15.447154471544716,80.48780487804878 15.447154471544716,80.4369918699187 15.447154471544716,80.4369918699187 15.447154471544716,80.4369918699187 15.447154471544716,80.4369918699187 15.447154471544716,80.4369918699187 15.447154471544716,80.38617886178862 15.447154471544716,80.38617886178862 15.447154471544716,80.38617886178862 15.447154471544716,80.38617886178862 15.447154471544716,80.38617886178862" fill="none" stroke="black" stroke-width="0.6"></polyline><polyline points="15.447154471544716,80.38617886178862 15.447154471544716,80.38617886178862 15.447154471544716,80.38617886178862 15.447154471544716,80.38617886178862 15.447154471544716,80.38617886178862 15.447154471544716,80.38617886178862 15.447154471544716,80.38617886178862 15.447154471544716,80.38617886178862 15.447154471544716,80.38617886178862 15.447154471544716,80.38617886178862 15.447154471544716,80.38617886178862 15.447154471544716,80.38617886178862 15.447154471544716,80.38617886178862 15.396341463414634,80.4369918699187 15.396341463414634,80.4369918699187 15.396341463414634,80.48780487804878 15.345528455284553,80.53861788617886 15.345528455284553,80.58943089430895 15.345528455284553,80.64024390243902 15.345528455284553,80.6910569105691 15.345528455284553,80.6910569105691 15.345528455284553,80.74186991869918 15.345528455284553,80.79268292682927 15.345528455284553,80.84349593495935 15.396341463414634,80.89430894308943 15.396341463414634,80.89430894308943 15.447154471544716,80.9451219512195 15.497967479674797,80.9451219512195 15.59959349593496,80.9959349593496 15.701219512195122,80.9959349593496 15.802845528455284,80.9959349593496 15.904471544715447,80.9959349593496 16.05691056910569,80.9959349593496 16.15853658536585,80.9959349593496 16.260162601626014,80.9451219512195 16.41260162601626,80.9451219512195 16.514227642276424,80.9451219512195 16.615853658536587,80.9451219512195" fill="none" stroke="black" stroke-width="0.6"></polyline><polyline points="31.60569105691057,80.4369918699187 31.60569105691057,80.4369918699187 31.60569105691057,80.4369918699187 31.554878048780488,80.4369918699187 31.554878048780488,80.38617886178862 31.554878048780488,80.38617886178862 31.554878048780488,80.38617886178862 31.554878048780488,80.33536585365853 31.504065040650406,80.33536585365853 31.504065040650406,80.33536585365853 31.504065040650406,80.33536585365853 31.504065040650406,80.28455284552845 31.504065040650406,80.28455284552845 31.504065040650406,80.28455284552845 31.504065040650406,80.28455284552845 31.504065040650406,80.28455284552845 31.504065040650406,80.28455284552845 31.504065040650406,80.28455284552845 31.504065040650406,80.28455284552845 31.504065040650406,80.28455284552845 31.504065040650406,80.28455284552845 31.504065040650406,80.28455284552845 31.504065040650406,80.28455284552845 31.504065040650406,80.28455284552845 31.504065040650406,80.28455284552845 31.504065040650406,80.33536585365853 31.504065040650406,80.38617886178862 31.504065040650406,80.38617886178862 31.504065040650406,80.4369918699187 31.554878048780488,80.48780487804878 31.554878048780488,80.58943089430895 31.554878048780488,80.64024390243902 31.60569105691057,80.6910569105691 31.60569105691057,80.74186991869918 31.60569105691057,80.79268292682927 31.65650406504065,80.84349593495935 31.65650406504065,80.89430894308943 31.65650406504065,80.9451219512195 31.70731707317073,80.9959349593496 31.70731707317073,81.04674796747967 31.758130081300813,81.04674796747967 31.808943089430894,81.09756097560975 31.859756097560975,81.09756097560975 31.910569105691057,81.09756097560975 31.961382113821138,81.09756097560975 32.0630081300813,81.09756097560975 32.16463414634146,81.04674796747967 32.266260162601625,80.9959349593496 32.418699186991866,80.89430894308943 32.52032520325203,80.84349593495935 32.6219512195122,80.74186991869918" fill="none" stroke="black" stroke-width="0.6"></polyline><polyline points="32.6219512195122,80.74186991869918 32.77439024390244,80.64024390243902 32.8760162601626,80.58943089430895 32.97764227642276,80.48780487804878 33.079268292682926,80.38617886178862 33.18089430894309,80.28455284552845 33.28252032520325,80.23373983739837 33.333333333333336,80.1321138211382 33.38414634146341,80.08130081300813 33.4349593495935,79.97967479674797 33.4349593495935,79.97967479674797 33.4349593495935,79.92886178861788 33.485772357723576,79.92886178861788 33.485772357723576,79.8780487804878 33.53658536585366,79.8780487804878 33.58739837398374,79.8780487804878 33.58739837398374,79.8780487804878" fill="none" stroke="black" stroke-width="0.6"></polyline><polyline points="47.510162601626014,80.53861788617886 47.510162601626014,80.53861788617886 47.510162601626014,80.48780487804878 47.510162601626014,80.48780487804878 47.510162601626014,80.4369918699187 47.510162601626014,80.4369918699187 47.510162601626014,80.38617886178862 47.5609756097561,80.38617886178862 47.5609756097561,80.38617886178862 47.5609756097561,80.38617886178862 47.5609756097561,80.38617886178862 47.5609756097561,80.38617886178862 47.5609756097561,80.38617886178862 47.5609756097561,80.38617886178862 47.5609756097561,80.38617886178862 47.5609756097561,80.38617886178862 47.5609756097561,80.38617886178862 47.5609756097561,80.38617886178862 47.5609756097561,80.4369918699187 47.5609756097561,80.48780487804878 47.5609756097561,80.58943089430895 47.5609756097561,80.64024390243902 47.5609756097561,80.6910569105691 47.5609756097561,80.74186991869918 47.5609756097561,80.84349593495935 47.5609756097561,80.89430894308943 47.61178861788618,80.9451219512195 47.61178861788618,80.9451219512195 47.66260162601626,80.9959349593496 47.71341463414634,80.9959349593496 47.8150406504065,81.04674796747967 47.86585365853659,81.04674796747967 47.96747967479675,81.04674796747967 48.06910569105691,81.04674796747967 48.170731707317074,80.9959349593496 48.27235772357724,80.9451219512195 48.3739837398374,80.89430894308943 48.47560975609756,80.84349593495935 48.577235772357724,80.79268292682927 48.67886178861789,80.74186991869918 48.729674796747965,80.6910569105691 48.78048780487805,80.64024390243902 48.83130081300813,80.58943089430895 48.83130081300813,80.58943089430895 48.83130081300813,80.53861788617886 48.88211382113821,80.53861788617886 48.88211382113821,80.53861788617886 48.88211382113821,80.48780487804878 48.88211382113821,80.48780487804878 48.83130081300813,80.48780487804878 48.83130081300813,80.48780487804878" fill="none" stroke="black" stroke-width="0.6"></polyline><polyline points="48.83130081300813,80.48780487804878 48.83130081300813,80.48780487804878 48.83130081300813,80.53861788617886 48.83130081300813,80.58943089430895 48.83130081300813,80.64024390243902 48.83130081300813,80.6910569105691 48.83130081300813,80.74186991869918 48.88211382113821,80.79268292682927 48.88211382113821,80.84349593495935 48.93292682926829,80.89430894308943 48.983739837398375,80.89430894308943 49.03455284552845,80.9451219512195 49.03455284552845,80.9451219512195 49.08536585365854,80.9959349593496 49.136178861788615,80.9959349593496 49.23780487804878,80.9959349593496 49.28861788617886,80.9451219512195 49.390243902439025,80.89430894308943 49.4410569105691,80.84349593495935 49.542682926829265,80.79268292682927 49.64430894308943,80.6910569105691 49.74593495934959,80.64024390243902 49.796747967479675,80.58943089430895 49.89837398373984,80.53861788617886 50,80.48780487804878 50.05081300813008,80.4369918699187 50.10162601626016,80.38617886178862 50.10162601626016,80.33536585365853 50.10162601626016,80.33536585365853 50.10162601626016,80.28455284552845 50.10162601626016,80.28455284552845 50.10162601626016,80.23373983739837 50.10162601626016,80.23373983739837 50.05081300813008,80.23373983739837 50.05081300813008,80.23373983739837 50.05081300813008,80.23373983739837 50.05081300813008,80.23373983739837 50.05081300813008,80.1829268292683 50.05081300813008,80.1829268292683 50.10162601626016,80.1829268292683" fill="none" stroke="black" stroke-width="0.6"></polyline><polyline points="64.02439024390243,80.23373983739837 64.02439024390243,80.23373983739837 64.02439024390243,80.23373983739837 63.97357723577235,80.23373983739837 63.97357723577235,80.23373983739837 63.97357723577235,80.1829268292683 63.922764227642276,80.1829268292683 63.922764227642276,80.1829268292683 63.922764227642276,80.1829268292683 63.922764227642276,80.1321138211382 63.922764227642276,80.1321138211382 63.922764227642276,80.1321138211382 63.87195121951219,80.1321138211382 63.87195121951219,80.08130081300813 63.87195121951219,80.08130081300813 63.87195121951219,80.08130081300813 63.87195121951219,80.08130081300813 63.87195121951219,80.08130081300813 63.87195121951219,80.08130081300813 63.87195121951219,80.08130081300813 63.87195121951219,80.08130081300813 63.922764227642276,80.08130081300813 63.922764227642276,80.08130081300813 63.97357723577235,80.08130081300813 64.07520325203252,80.1321138211382 64.1260162601626,80.1321138211382 64.17682926829268,80.1829268292683 64.27845528455285,80.23373983739837 64.380081300813,80.28455284552845 64.53252032520325,80.33536585365853 64.6341463414634,80.4369918699187 64.78658536585365,80.48780487804878 64.9390243902439,80.58943089430895 65.09146341463415,80.64024390243902 65.29471544715447,80.6910569105691 65.44715447154472,80.74186991869918 65.59959349593495,80.79268292682927 65.7520325203252,80.79268292682927 65.90447154471545,80.79268292682927 66.0060975609756,80.79268292682927 66.0569105691057,80.79268292682927 66.10772357723577,80.79268292682927 66.10772357723577,80.79268292682927 66.10772357723577,80.79268292682927 66.10772357723577,80.79268292682927 66.0569105691057,80.79268292682927 66.0060975609756,80.79268292682927 65.90447154471545,80.84349593495935" fill="none" stroke="black" stroke-width="0.6"></polyline><polyline points="65.7520325203252,79.92886178861788 65.7520325203252,79.8780487804878 65.7520325203252,79.82723577235772 65.7520325203252,79.77642276422765 65.7520325203252,79.72560975609755 65.7520325203252,79.67479674796748 65.7520325203252,79.6239837398374 65.7520325203252,79.6239837398374 65.7520325203252,79.6239837398374 65.70121951219512,79.6239837398374 65.65040650406505,79.72560975609755 65.59959349593495,79.77642276422765 65.4979674796748,79.92886178861788 65.39634146341463,80.03048780487805 65.2439024390244,80.1829268292683 65.14227642276423,80.33536585365853 64.98983739837398,80.53861788617886 64.78658536585365,80.6910569105691 64.6341463414634,80.79268292682927 64.48170731707317,80.9451219512195 64.380081300813,81.04674796747967 64.27845528455285,81.14837398373983 64.22764227642276,81.25 64.1260162601626,81.30081300813008 64.1260162601626,81.35162601626016 64.1260162601626,81.40243902439025 64.1260162601626,81.45325203252033 64.1260162601626,81.45325203252033" fill="none" stroke="black" stroke-width="0.6"></polyline><polyline points="79.52235772357723,79.8780487804878 79.52235772357723,79.8780487804878 79.52235772357723,79.8780487804878 79.52235772357723,79.8780487804878 79.52235772357723,79.82723577235772 79.52235772357723,79.82723577235772 79.52235772357723,79.82723577235772 79.52235772357723,79.77642276422765 79.57317073170732,79.77642276422765 79.57317073170732,79.77642276422765 79.57317073170732,79.77642276422765 79.57317073170732,79.77642276422765 79.57317073170732,79.77642276422765 79.57317073170732,79.72560975609755 79.57317073170732,79.72560975609755 79.57317073170732,79.72560975609755 79.57317073170732,79.72560975609755 79.57317073170732,79.72560975609755 79.57317073170732,79.72560975609755 79.57317073170732,79.72560975609755 79.57317073170732,79.72560975609755 79.6239837398374,79.77642276422765 79.67479674796748,79.82723577235772 79.72560975609755,79.8780487804878 79.77642276422765,79.97967479674797 79.8780487804878,80.03048780487805 79.97967479674797,80.08130081300813 80.08130081300813,80.1829268292683 80.1321138211382,80.23373983739837 80.23373983739837,80.28455284552845 80.33536585365853,80.33536585365853 80.4369918699187,80.38617886178862 80.48780487804878,80.4369918699187 80.58943089430895,80.48780487804878 80.64024390243902,80.53861788617886 80.74186991869918,80.53861788617886 80.79268292682927,80.58943089430895 80.89430894308943,80.58943089430895 80.9451219512195,80.58943089430895 81.04674796747967,80.58943089430895 81.09756097560975,80.58943089430895 81.19918699186992,80.53861788617886 81.25,80.53861788617886 81.35162601626016,80.48780487804878 81.40243902439025,80.4369918699187 81.45325203252033,80.38617886178862 81.45325203252033,80.38617886178862 81.5040650406504,80.33536585365853 81.55487804878048,80.28455284552845 81.55487804878048,80.23373983739837 81.55487804878048,80.1321138211382" fill="none" stroke="black" stroke-width="0.6"></polyline><polyline points="81.55487804878048,80.1321138211382 81.60569105691057,80.08130081300813 81.60569105691057,80.03048780487805 81.60569105691057,79.92886178861788 81.65650406504065,79.8780487804878 81.65650406504065,79.82723577235772 81.65650406504065,79.77642276422765 81.65650406504065,79.72560975609755 81.65650406504065,79.72560975609755 81.60569105691057,79.67479674796748 81.60569105691057,79.67479674796748 81.55487804878048,79.67479674796748 81.55487804878048,79.67479674796748 81.5040650406504,79.67479674796748 81.5040650406504,79.67479674796748 81.45325203252033,79.72560975609755 81.40243902439025,79.77642276422765 81.35162601626016,79.82723577235772 81.30081300813008,79.92886178861788 81.25,79.97967479674797 81.14837398373983,80.08130081300813 81.09756097560975,80.1829268292683 80.9959349593496,80.28455284552845 80.89430894308943,80.38617886178862 80.74186991869918,80.53861788617886 80.64024390243902,80.6910569105691 80.4369918699187,80.89430894308943 80.28455284552845,81.09756097560975 80.1321138211382,81.30081300813008 79.92886178861788,81.55487804878048 79.77642276422765,81.8089430894309 79.67479674796748,82.0630081300813 79.57317073170732,82.3170731707317 79.42073170731707,82.52032520325203 79.369918699187,82.72357723577235 79.26829268292683,82.82520325203252 79.16666666666667,82.97764227642276 79.0650406504065,83.07926829268293 79.01422764227642,83.130081300813 78.91260162601625,83.23170731707317 78.8109756097561,83.28252032520325 78.76016260162602,83.33333333333333 78.70934959349593,83.3841463414634 78.65853658536585,83.4349593495935 78.65853658536585,83.4349593495935 78.65853658536585,83.48577235772358 78.65853658536585,83.48577235772358 78.60772357723577,83.53658536585365 78.60772357723577,83.53658536585365 78.60772357723577,83.53658536585365 78.5569105691057,83.58739837398373" fill="none" stroke="black" stroke-width="0.6"></polyline><polyline points="78.5569105691057,83.58739837398373 78.5569105691057,83.58739837398373" fill="none" stroke="black" stroke-width="0.6"></polyline><polyline points="79.11585365853658,82.21544715447155 79.3191056910569,82.11382113821138 79.47154471544715,82.01219512195122 79.67479674796748,81.96138211382113 79.8780487804878,81.85975609756098 80.08130081300813,81.7581300813008 80.33536585365853,81.65650406504065 80.64024390243902,81.55487804878048 80.89430894308943,81.5040650406504 81.14837398373983,81.40243902439025 81.40243902439025,81.30081300813008 81.60569105691057,81.25 81.8089430894309,81.14837398373983 81.96138211382113,81.09756097560975 82.0630081300813,81.09756097560975 82.16463414634146,81.09756097560975 82.26626016260163,81.09756097560975 82.3170731707317,81.09756097560975 82.36788617886178,81.09756097560975 82.41869918699187,81.09756097560975" fill="none" stroke="black" stroke-width="0.6"></polyline><polyline points="14.735772357723578,96.23983739837398 14.735772357723578,96.23983739837398 14.735772357723578,96.23983739837398 14.735772357723578,96.23983739837398 14.735772357723578,96.23983739837398 14.735772357723578,96.23983739837398 14.735772357723578,96.1890243902439 14.83739837398374,96.1890243902439 14.888211382113822,96.13821138211382 15.040650406504065,96.13821138211382 15.19308943089431,96.08739837398373 15.396341463414634,96.03658536585365 15.548780487804878,96.03658536585365 15.701219512195122,95.98577235772358 15.853658536585366,95.98577235772358 16.006097560975608,95.98577235772358 16.10772357723577,95.98577235772358 16.15853658536585,96.08739837398373 16.209349593495933,96.13821138211382 16.209349593495933,96.23983739837398 16.209349593495933,96.34146341463415 16.209349593495933,96.4430894308943 16.15853658536585,96.54471544715447 16.05691056910569,96.6971544715447 15.955284552845528,96.84959349593495 15.853658536585366,96.95121951219512 15.701219512195122,97.10365853658536 15.59959349593496,97.2560975609756 15.447154471544716,97.35772357723577 15.345528455284553,97.45934959349593 15.24390243902439,97.61178861788618 15.091463414634147,97.71341463414635 14.989837398373984,97.8150406504065 14.888211382113822,97.91666666666667 14.888211382113822,98.01829268292683 14.888211382113822,98.0691056910569 14.888211382113822,98.119918699187 14.989837398373984,98.119918699187 15.19308943089431,98.119918699187 15.447154471544716,98.119918699187 15.752032520325203,98.0691056910569 16.10772357723577,98.01829268292683 16.514227642276424,97.91666666666667 16.869918699186993,97.76422764227642 17.225609756097562,97.66260162601625 17.632113821138212,97.5609756097561 17.9369918699187,97.510162601626 18.191056910569106,97.45934959349593 18.445121951219512,97.40853658536585 18.597560975609756,97.40853658536585 18.80081300813008,97.40853658536585" fill="none" stroke="black" stroke-width="0.6"></polyline><polyline points="18.80081300813008,97.40853658536585" fill="none" stroke="black" stroke-width="0.6"></polyline></svg>