<svg height="100" width="100" preserveAspectRatio="xMidYMid meet"><polyline points="16.76829268292683,8.130081300813007 16.920731707317074,8.282520325203253" fill="none" stroke="black" stroke-width="0.6"></polyline><polyline points="16.920731707317074,14.634146341463413 16.920731707317074,14.634146341463413 16.920731707317074,14.583333333333332 16.920731707317074,14.583333333333332 16.920731707317074,14.53252032520325 16.920731707317074,14.53252032520325 16.920731707317074,14.53252032520325 16.920731707317074,14.53252032520325 16.920731707317074,14.48170731707317 16.920731707317074,14.48170731707317 16.920731707317074,14.48170731707317 16.920731707317074,14.48170731707317 16.920731707317074,14.48170731707317 16.920731707317074,14.430894308943088 16.920731707317074,14.430894308943088 16.920731707317074,14.430894308943088 16.920731707317074,14.430894308943088 16.920731707317074,14.430894308943088 16.920731707317074,14.430894308943088 16.920731707317074,14.430894308943088 16.920731707317074,14.430894308943088 16.971544715447155,14.430894308943088 16.971544715447155,14.430894308943088 16.971544715447155,14.430894308943088 16.971544715447155,14.430894308943088 17.022357723577237,14.430894308943088 17.022357723577237,14.430894308943088 17.073170731707318,14.430894308943088 17.073170731707318,14.430894308943088 17.1239837398374,14.430894308943088 17.1239837398374,14.430894308943088 17.17479674796748,14.430894308943088 17.17479674796748,14.430894308943088 17.17479674796748,14.430894308943088 17.225609756097562,14.430894308943088 17.225609756097562,14.430894308943088 17.225609756097562,14.430894308943088 17.276422764227643,14.430894308943088 17.276422764227643,14.430894308943088 17.276422764227643,14.430894308943088 17.276422764227643,14.430894308943088 17.276422764227643,14.430894308943088 17.276422764227643,14.430894308943088 17.276422764227643,14.430894308943088 17.276422764227643,14.430894308943088 17.276422764227643,14.430894308943088 17.276422764227643,14.380081300813007 17.276422764227643,14.380081300813007 17.276422764227643,14.380081300813007 17.276422764227643,14.380081300813007 17.276422764227643,14.380081300813007" fill="none" stroke="black" stroke-width="0.6"></polyline><polyline points="17.276422764227643,14.380081300813007 17.276422764227643,14.380081300813007 17.276422764227643,14.380081300813007 17.276422764227643,14.380081300813007 17.276422764227643,14.380081300813007 17.276422764227643,14.380081300813007 17.276422764227643,14.380081300813007 17.276422764227643,14.380081300813007 17.276422764227643,14.380081300813007 17.276422764227643,14.380081300813007 17.276422764227643,14.380081300813007 17.276422764227643,14.380081300813007 17.276422764227643,14.380081300813007 17.276422764227643,14.380081300813007 17.276422764227643,14.380081300813007 17.276422764227643,14.380081300813007 17.276422764227643,14.380081300813007 17.276422764227643,14.380081300813007 17.276422764227643,14.380081300813007 17.276422764227643,14.380081300813007 17.276422764227643,14.380081300813007 17.276422764227643,14.380081300813007 17.276422764227643,14.380081300813007 17.276422764227643,14.380081300813007 17.276422764227643,14.380081300813007 17.276422764227643,14.380081300813007 17.276422764227643,14.380081300813007 17.276422764227643,14.380081300813007 17.276422764227643,14.380081300813007 17.276422764227643,14.380081300813007 17.276422764227643,14.380081300813007 17.276422764227643,14.380081300813007 17.276422764227643,14.380081300813007 17.276422764227643,14.380081300813007 17.276422764227643,14.380081300813007 17.276422764227643,14.380081300813007 17.276422764227643,14.380081300813007 17.276422764227643,14.380081300813007 17.276422764227643,14.380081300813007 17.276422764227643,14.380081300813007 17.276422764227643,14.380081300813007 17.276422764227643,14.380081300813007 17.276422764227643,14.380081300813007 17.276422764227643,14.380081300813007 17.276422764227643,14.380081300813007 17.276422764227643,14.380081300813007 17.276422764227643,14.380081300813007 17.276422764227643,14.380081300813007 17.276422764227643,14.380081300813007 17.276422764227643,14.380081300813007 17.276422764227643,14.380081300813007" fill="none" stroke="black" stroke-width="0.6"></polyline><polyline points="17.276422764227643,14.380081300813007 17.276422764227643,14.380081300813007 17.276422764227643,14.380081300813007 17.276422764227643,14.380081300813007 17.276422764227643,14.380081300813007 17.327235772357724,14.380081300813007 17.378048780487806,14.380081300813007 17.428861788617887,14.380081300813007 17.53048780487805,14.380081300813007 17.632113821138212,14.380081300813007 17.733739837398375,14.380081300813007 17.835365853658537,14.380081300813007 17.9369918699187,14.430894308943088 18.038617886178862,14.430894308943088 18.140243902439025,14.430894308943088 18.191056910569106,14.48170731707317 18.29268292682927,14.48170731707317 18.34349593495935,14.53252032520325 18.39430894308943,14.583333333333332 18.445121951219512,14.634146341463413 18.445121951219512,14.684959349593496 18.495934959349594,14.735772357723578 18.495934959349594,14.735772357723578 18.546747967479675,14.786585365853659 18.546747967479675,14.83739837398374 18.546747967479675,14.888211382113822 18.546747967479675,14.888211382113822 18.546747967479675,14.939024390243903 18.597560975609756,14.939024390243903 18.597560975609756,14.989837398373984 18.597560975609756,14.989837398373984 18.597560975609756,15.040650406504065 18.597560975609756,15.091463414634147 18.597560975609756,15.091463414634147 18.546747967479675,15.142276422764228 18.495934959349594,15.19308943089431 18.445121951219512,15.24390243902439 18.39430894308943,15.294715447154472 18.34349593495935,15.345528455284553 18.29268292682927,15.396341463414634 18.241869918699187,15.447154471544716 18.191056910569106,15.497967479674797 18.140243902439025,15.548780487804878 18.089430894308943,15.59959349593496 18.038617886178862,15.59959349593496 18.038617886178862,15.65040650406504 18.038617886178862,15.65040650406504 18.038617886178862,15.701219512195122 18.038617886178862,15.701219512195122 18.038617886178862,15.701219512195122 18.089430894308943,15.752032520325203" fill="none" stroke="black" stroke-width="0.6"></polyline><polyline points="18.089430894308943,15.752032520325203 18.140243902439025,15.752032520325203 18.241869918699187,15.802845528455284 18.34349593495935,15.802845528455284 18.445121951219512,15.853658536585366 18.597560975609756,15.853658536585366 18.69918699186992,15.904471544715447 18.851626016260163,15.904471544715447 19.004065040650406,15.904471544715447 19.15650406504065,15.904471544715447 19.308943089430894,15.904471544715447 19.51219512195122,15.904471544715447 19.664634146341463,15.904471544715447 19.817073170731707,15.904471544715447 19.91869918699187,15.904471544715447 20.020325203252032,15.904471544715447 20.121951219512194,15.904471544715447 20.223577235772357,15.904471544715447 20.274390243902438,15.955284552845528 20.32520325203252,15.955284552845528 20.32520325203252,16.006097560975608" fill="none" stroke="black" stroke-width="0.6"></polyline><polyline points="33.13008130081301,15.19308943089431 33.13008130081301,15.19308943089431 33.13008130081301,15.142276422764228 33.13008130081301,15.142276422764228 33.13008130081301,15.091463414634147 33.13008130081301,15.091463414634147 33.13008130081301,15.040650406504065 33.13008130081301,15.040650406504065 33.13008130081301,14.989837398373984 33.13008130081301,14.939024390243903 33.13008130081301,14.939024390243903 33.13008130081301,14.888211382113822 33.13008130081301,14.83739837398374 33.13008130081301,14.786585365853659 33.13008130081301,14.786585365853659 33.13008130081301,14.735772357723578 33.13008130081301,14.735772357723578 33.13008130081301,14.684959349593496 33.13008130081301,14.684959349593496 33.13008130081301,14.684959349593496 33.13008130081301,14.634146341463413 33.13008130081301,14.634146341463413 33.13008130081301,14.634146341463413 33.13008130081301,14.634146341463413 33.18089430894309,14.634146341463413 33.18089430894309,14.684959349593496 33.23170731707317,14.684959349593496 33.28252032520325,14.786585365853659 33.333333333333336,14.83739837398374 33.38414634146341,14.939024390243903 33.485772357723576,15.040650406504065 33.53658536585366,15.142276422764228 33.63821138211382,15.24390243902439 33.739837398373986,15.396341463414634 33.790650406504064,15.497967479674797 33.94308943089431,15.59959349593496 34.04471544715447,15.65040650406504 34.146341463414636,15.752032520325203 34.2479674796748,15.802845528455284 34.34959349593496,15.853658536585366 34.5020325203252,15.955284552845528 34.552845528455286,16.006097560975608 34.65447154471545,16.05691056910569 34.70528455284553,16.10772357723577 34.75609756097561,16.15853658536585 34.80691056910569,16.260162601626014 34.80691056910569,16.3109756097561 34.857723577235774,16.36178861788618 34.857723577235774,16.41260162601626 34.857723577235774,16.514227642276424 34.857723577235774,16.565040650406505" fill="none" stroke="black" stroke-width="0.6"></polyline><polyline points="34.857723577235774,16.565040650406505" fill="none" stroke="black" stroke-width="0.6"></polyline><polyline points="35.56910569105691,14.53252032520325 35.56910569105691,14.53252032520325 35.56910569105691,14.48170731707317 35.61991869918699,14.430894308943088 35.61991869918699,14.430894308943088 35.61991869918699,14.380081300813007 35.61991869918699,14.380081300813007 35.61991869918699,14.430894308943088 35.61991869918699,14.48170731707317 35.61991869918699,14.634146341463413 35.56910569105691,14.786585365853659 35.51829268292683,14.989837398373984 35.416666666666664,15.24390243902439 35.36585365853659,15.447154471544716 35.21341463414634,15.752032520325203 35.11178861788618,16.006097560975608 34.959349593495936,16.260162601626014 34.80691056910569,16.514227642276424 34.65447154471545,16.76829268292683 34.451219512195124,17.022357723577237 34.298780487804876,17.276422764227643 34.146341463414636,17.53048780487805 34.04471544715447,17.733739837398375 33.94308943089431,17.9369918699187 33.84146341463415,18.140243902439025 33.84146341463415,18.29268292682927 33.790650406504064,18.445121951219512 33.790650406504064,18.546747967479675 33.790650406504064,18.597560975609756" fill="none" stroke="black" stroke-width="0.6"></polyline><polyline points="48.78048780487805,14.939024390243903 48.78048780487805,14.939024390243903 48.83130081300813,14.888211382113822 48.83130081300813,14.786585365853659 48.88211382113821,14.735772357723578 48.88211382113821,14.634146341463413 48.93292682926829,14.583333333333332 48.93292682926829,14.53252032520325 48.93292682926829,14.430894308943088 48.983739837398375,14.380081300813007 48.983739837398375,14.329268292682926 49.03455284552845,14.278455284552845 49.03455284552845,14.278455284552845 49.08536585365854,14.278455284552845 49.08536585365854,14.278455284552845 49.136178861788615,14.278455284552845 49.136178861788615,14.278455284552845 49.136178861788615,14.380081300813007 49.1869918699187,14.430894308943088 49.23780487804878,14.53252032520325 49.28861788617886,14.684959349593496 49.33943089430894,14.786585365853659 49.390243902439025,14.888211382113822 49.4410569105691,15.040650406504065 49.49186991869919,15.142276422764228 49.59349593495935,15.294715447154472 49.69512195121951,15.396341463414634 49.796747967479675,15.548780487804878 49.89837398373984,15.701219512195122 50,15.802845528455284 50.10162601626016,15.955284552845528 50.2540650406504,16.05691056910569 50.355691056910565,16.15853658536585 50.45731707317073,16.209349593495933 50.55894308943089,16.260162601626014 50.66056910569105,16.3109756097561 50.71138211382114,16.36178861788618 50.762195121951216,16.36178861788618 50.8130081300813,16.41260162601626 50.8130081300813,16.41260162601626 50.86382113821138,16.41260162601626 50.86382113821138,16.41260162601626 50.91463414634146,16.41260162601626 50.91463414634146,16.41260162601626 50.91463414634146,16.41260162601626 50.96544715447154,16.41260162601626 50.96544715447154,16.36178861788618 50.96544715447154,16.3109756097561" fill="none" stroke="black" stroke-width="0.6"></polyline><polyline points="50.71138211382114,14.380081300813007 50.71138211382114,14.380081300813007 50.71138211382114,14.380081300813007 50.71138211382114,14.329268292682926 50.71138211382114,14.329268292682926 50.71138211382114,14.278455284552845 50.71138211382114,14.278455284552845 50.71138211382114,14.278455284552845 50.66056910569105,14.329268292682926 50.609756097560975,14.430894308943088 50.50813008130081,14.583333333333332 50.355691056910565,14.786585365853659 50.2540650406504,14.989837398373984 50.05081300813008,15.24390243902439 49.89837398373984,15.497967479674797 49.69512195121951,15.752032520325203 49.542682926829265,16.006097560975608 49.390243902439025,16.15853658536585 49.23780487804878,16.3109756097561 49.136178861788615,16.463414634146343 49.03455284552845,16.565040650406505 48.93292682926829,16.666666666666668 48.83130081300813,16.71747967479675 48.83130081300813,16.71747967479675" fill="none" stroke="black" stroke-width="0.6"></polyline><polyline points="63.36382113821138,14.939024390243903 63.36382113821138,14.939024390243903 63.36382113821138,14.888211382113822 63.36382113821138,14.83739837398374 63.36382113821138,14.786585365853659 63.36382113821138,14.735772357723578 63.41463414634146,14.684959349593496 63.41463414634146,14.634146341463413 63.41463414634146,14.634146341463413 63.46544715447154,14.583333333333332 63.516260162601625,14.53252032520325 63.5670731707317,14.48170731707317 63.61788617886179,14.430894308943088 63.668699186991866,14.430894308943088 63.71951219512195,14.430894308943088 63.77032520325203,14.430894308943088 63.82113821138211,14.430894308943088 63.87195121951219,14.430894308943088 63.87195121951219,14.48170731707317 63.922764227642276,14.53252032520325 63.922764227642276,14.634146341463413 63.922764227642276,14.786585365853659 63.922764227642276,14.939024390243903 63.97357723577235,15.091463414634147 63.97357723577235,15.24390243902439 64.02439024390243,15.396341463414634 64.07520325203252,15.548780487804878 64.1260162601626,15.65040650406504 64.17682926829268,15.752032520325203 64.22764227642276,15.802845528455284 64.32926829268293,15.853658536585366 64.380081300813,15.904471544715447 64.43089430894308,15.955284552845528 64.48170731707317,15.955284552845528 64.53252032520325,16.006097560975608 64.53252032520325,16.006097560975608 64.58333333333333,16.006097560975608 64.58333333333333,16.006097560975608 64.58333333333333,16.006097560975608 64.6341463414634,16.006097560975608 64.6341463414634,15.955284552845528 64.6341463414634,15.904471544715447 64.6341463414634,15.853658536585366 64.6341463414634,15.802845528455284 64.6849593495935,15.752032520325203 64.6849593495935,15.65040650406504 64.6849593495935,15.548780487804878 64.73577235772358,15.497967479674797 64.73577235772358,15.396341463414634 64.78658536585365,15.345528455284553 64.78658536585365,15.294715447154472" fill="none" stroke="black" stroke-width="0.6"></polyline><polyline points="64.78658536585365,15.294715447154472 64.78658536585365,15.24390243902439 64.83739837398373,15.19308943089431 64.83739837398373,15.19308943089431 64.88821138211382,15.19308943089431 64.88821138211382,15.19308943089431 64.88821138211382,15.19308943089431 64.9390243902439,15.19308943089431 64.9390243902439,15.19308943089431 64.9390243902439,15.24390243902439 64.98983739837398,15.294715447154472 64.98983739837398,15.396341463414634 64.98983739837398,15.447154471544716 64.98983739837398,15.548780487804878 65.04065040650406,15.59959349593496 65.04065040650406,15.701219512195122 65.04065040650406,15.752032520325203 65.09146341463415,15.752032520325203 65.14227642276423,15.802845528455284 65.2439024390244,15.802845528455284 65.39634146341463,15.802845528455284 65.54878048780488,15.752032520325203 65.7520325203252,15.65040650406504 65.95528455284553,15.548780487804878 66.10772357723577,15.447154471544716 66.3109756097561,15.396341463414634 66.51422764227642,15.294715447154472 66.66666666666667,15.19308943089431 66.76829268292683,15.142276422764228 66.869918699187,15.040650406504065 66.97154471544715,14.989837398373984 67.02235772357723,14.888211382113822 67.07317073170732,14.83739837398374 67.07317073170732,14.735772357723578 67.07317073170732,14.634146341463413 67.1239837398374,14.53252032520325 67.1239837398374,14.48170731707317 67.17479674796748,14.430894308943088 67.17479674796748,14.380081300813007 67.22560975609755,14.329268292682926 67.22560975609755,14.329268292682926 67.22560975609755,14.329268292682926 67.27642276422765,14.329268292682926 67.27642276422765,14.329268292682926" fill="none" stroke="black" stroke-width="0.6"></polyline><polyline points="81.70731707317073,14.786585365853659 81.70731707317073,14.786585365853659 81.70731707317073,14.786585365853659 81.70731707317073,14.786585365853659 81.7581300813008,14.735772357723578 81.7581300813008,14.735772357723578 81.7581300813008,14.684959349593496 81.7581300813008,14.684959349593496 81.8089430894309,14.684959349593496 81.8089430894309,14.634146341463413 81.8089430894309,14.634146341463413 81.8089430894309,14.634146341463413 81.8089430894309,14.634146341463413 81.85975609756098,14.634146341463413 81.85975609756098,14.583333333333332 81.85975609756098,14.583333333333332 81.85975609756098,14.583333333333332 81.85975609756098,14.583333333333332 81.85975609756098,14.583333333333332 81.85975609756098,14.53252032520325 81.85975609756098,14.53252032520325 81.85975609756098,14.53252032520325 81.85975609756098,14.53252032520325 81.85975609756098,14.53252032520325 81.85975609756098,14.53252032520325 81.85975609756098,14.53252032520325 81.85975609756098,14.53252032520325 81.85975609756098,14.53252032520325 81.85975609756098,14.53252032520325 81.85975609756098,14.53252032520325 81.85975609756098,14.53252032520325 81.85975609756098,14.53252032520325 81.85975609756098,14.53252032520325 81.85975609756098,14.53252032520325 81.85975609756098,14.583333333333332 81.85975609756098,14.583333333333332 81.85975609756098,14.634146341463413 81.85975609756098,14.684959349593496 81.85975609756098,14.735772357723578 81.85975609756098,14.83739837398374 81.85975609756098,14.888211382113822 81.85975609756098,14.989837398373984 81.85975609756098,15.040650406504065 81.8089430894309,15.142276422764228 81.8089430894309,15.24390243902439 81.7581300813008,15.345528455284553 81.7581300813008,15.447154471544716 81.7581300813008,15.548780487804878 81.70731707317073,15.65040650406504 81.70731707317073,15.701219512195122 81.70731707317073,15.802845528455284" fill="none" stroke="black" stroke-width="0.6"></polyline><polyline points="81.70731707317073,15.802845528455284 81.70731707317073,15.853658536585366 81.65650406504065,15.904471544715447 81.65650406504065,15.955284552845528 81.65650406504065,16.006097560975608 81.65650406504065,16.006097560975608 81.65650406504065,16.006097560975608 81.65650406504065,16.006097560975608 81.65650406504065,16.006097560975608 81.60569105691057,16.006097560975608 81.60569105691057,16.006097560975608 81.60569105691057,16.006097560975608 81.60569105691057,16.006097560975608 81.60569105691057,16.006097560975608 81.60569105691057,15.955284552845528 81.60569105691057,15.955284552845528 81.60569105691057,15.955284552845528 81.60569105691057,15.955284552845528 81.55487804878048,15.955284552845528 81.55487804878048,15.955284552845528" fill="none" stroke="black" stroke-width="0.6"></polyline><polyline points="80.89430894308943,15.548780487804878 80.89430894308943,15.548780487804878 80.89430894308943,15.548780487804878 80.89430894308943,15.548780487804878 80.89430894308943,15.497967479674797 80.89430894308943,15.497967479674797 80.89430894308943,15.447154471544716 80.89430894308943,15.447154471544716 80.89430894308943,15.447154471544716 80.89430894308943,15.396341463414634 80.89430894308943,15.396341463414634 80.89430894308943,15.396341463414634 80.89430894308943,15.396341463414634 80.89430894308943,15.345528455284553 80.89430894308943,15.345528455284553 80.89430894308943,15.345528455284553 80.89430894308943,15.345528455284553 80.89430894308943,15.345528455284553 80.89430894308943,15.345528455284553 80.89430894308943,15.345528455284553 80.9451219512195,15.345528455284553 80.9451219512195,15.345528455284553 80.9451219512195,15.396341463414634 80.9959349593496,15.396341463414634 81.04674796747967,15.396341463414634 81.04674796747967,15.396341463414634 81.09756097560975,15.396341463414634 81.19918699186992,15.396341463414634 81.30081300813008,15.396341463414634 81.45325203252033,15.345528455284553 81.65650406504065,15.345528455284553 81.8089430894309,15.294715447154472 82.01219512195122,15.294715447154472 82.21544715447155,15.24390243902439 82.41869918699187,15.19308943089431 82.5711382113821,15.19308943089431 82.72357723577235,15.142276422764228 82.8760162601626,15.091463414634147 82.97764227642276,15.040650406504065 83.07926829268293,15.040650406504065 83.130081300813,14.989837398373984 83.130081300813,14.989837398373984 83.18089430894308,14.989837398373984 83.18089430894308,14.989837398373984" fill="none" stroke="black" stroke-width="0.6"></polyline><polyline points="17.88617886178862,31.046747967479675 17.88617886178862,31.046747967479675 17.88617886178862,31.046747967479675 17.88617886178862,31.046747967479675 17.88617886178862,30.995934959349594 17.88617886178862,30.995934959349594 17.88617886178862,30.995934959349594 17.88617886178862,30.995934959349594 17.88617886178862,30.945121951219512 17.88617886178862,30.945121951219512 17.88617886178862,30.945121951219512 17.9369918699187,30.945121951219512 17.9369918699187,30.945121951219512 17.9369918699187,30.89430894308943 17.9369918699187,30.89430894308943 17.9369918699187,30.89430894308943 17.9369918699187,30.89430894308943 17.9369918699187,30.89430894308943 17.9369918699187,30.89430894308943 17.88617886178862,30.89430894308943 17.88617886178862,30.89430894308943 17.835365853658537,30.89430894308943 17.835365853658537,30.89430894308943 17.784552845528456,30.89430894308943 17.733739837398375,30.89430894308943 17.733739837398375,30.945121951219512 17.682926829268293,30.945121951219512 17.632113821138212,30.945121951219512 17.58130081300813,30.995934959349594 17.53048780487805,30.995934959349594 17.53048780487805,31.046747967479675 17.479674796747968,31.046747967479675 17.428861788617887,31.097560975609756 17.378048780487806,31.097560975609756 17.327235772357724,31.148373983739837 17.276422764227643,31.19918699186992 17.225609756097562,31.25 17.17479674796748,31.30081300813008 17.1239837398374,31.30081300813008 17.073170731707318,31.351626016260163 17.073170731707318,31.402439024390244 17.073170731707318,31.453252032520325 17.022357723577237,31.453252032520325 17.022357723577237,31.504065040650406 17.022357723577237,31.504065040650406 17.022357723577237,31.554878048780488 17.073170731707318,31.554878048780488 17.1239837398374,31.554878048780488 17.225609756097562,31.60569105691057 17.327235772357724,31.60569105691057 17.378048780487806,31.60569105691057" fill="none" stroke="black" stroke-width="0.6"></polyline><polyline points="17.378048780487806,31.60569105691057 17.479674796747968,31.60569105691057 17.58130081300813,31.65650406504065 17.682926829268293,31.65650406504065 17.784552845528456,31.70731707317073 17.88617886178862,31.70731707317073 17.9369918699187,31.758130081300813 18.038617886178862,31.808943089430894 18.038617886178862,31.808943089430894 18.089430894308943,31.859756097560975 18.140243902439025,31.910569105691057 18.140243902439025,31.961382113821138 18.140243902439025,32.012195121951216 18.038617886178862,32.0630081300813 17.9369918699187,32.16463414634146 17.835365853658537,32.21544715447154 17.733739837398375,32.266260162601625 17.58130081300813,32.3170731707317 17.428861788617887,32.36788617886179 17.276422764227643,32.418699186991866 17.17479674796748,32.46951219512195 17.022357723577237,32.52032520325203 16.869918699186993,32.52032520325203 16.71747967479675,32.57113821138211 16.615853658536587,32.57113821138211 16.463414634146343,32.57113821138211 16.36178861788618,32.6219512195122 16.260162601626014,32.6219512195122 16.15853658536585,32.6219512195122 16.10772357723577,32.6219512195122 16.006097560975608,32.6219512195122 15.955284552845528,32.6219512195122 15.853658536585366,32.6219512195122 15.853658536585366,32.6219512195122 15.802845528455284,32.6219512195122" fill="none" stroke="black" stroke-width="0.6"></polyline><polyline points="31.758130081300813,31.504065040650406 31.758130081300813,31.504065040650406 31.808943089430894,31.504065040650406 31.859756097560975,31.453252032520325 31.910569105691057,31.453252032520325 31.961382113821138,31.402439024390244 31.961382113821138,31.402439024390244 32.012195121951216,31.351626016260163 32.012195121951216,31.351626016260163 32.0630081300813,31.30081300813008 32.0630081300813,31.30081300813008 32.0630081300813,31.30081300813008 32.0630081300813,31.25 32.0630081300813,31.25 32.0630081300813,31.19918699186992 32.0630081300813,31.19918699186992 32.0630081300813,31.19918699186992 32.0630081300813,31.19918699186992 32.0630081300813,31.148373983739837 32.0630081300813,31.148373983739837 32.0630081300813,31.148373983739837 32.0630081300813,31.148373983739837 32.0630081300813,31.097560975609756 32.0630081300813,31.097560975609756 32.0630081300813,31.097560975609756 32.0630081300813,31.097560975609756 32.0630081300813,31.097560975609756 32.0630081300813,31.097560975609756 32.0630081300813,31.097560975609756 32.0630081300813,31.097560975609756 32.0630081300813,31.097560975609756 32.0630081300813,31.097560975609756 32.0630081300813,31.097560975609756 32.0630081300813,31.097560975609756 32.0630081300813,31.097560975609756 32.0630081300813,31.097560975609756 32.0630081300813,31.097560975609756 32.0630081300813,31.097560975609756 32.0630081300813,31.148373983739837 32.0630081300813,31.148373983739837 32.0630081300813,31.19918699186992 32.0630081300813,31.25 32.0630081300813,31.25 32.0630081300813,31.30081300813008 32.0630081300813,31.351626016260163 32.0630081300813,31.402439024390244 32.0630081300813,31.453252032520325 32.0630081300813,31.504065040650406 32.0630081300813,31.504065040650406 32.0630081300813,31.554878048780488 32.0630081300813,31.60569105691057" fill="none" stroke="black" stroke-width="0.6"></polyline><polyline points="32.0630081300813,31.60569105691057 32.0630081300813,31.60569105691057 32.0630081300813,31.65650406504065 32.012195121951216,31.65650406504065 32.012195121951216,31.70731707317073 32.012195121951216,31.70731707317073 32.012195121951216,31.758130081300813 31.961382113821138,31.758130081300813 31.961382113821138,31.808943089430894 31.961382113821138,31.808943089430894 31.961382113821138,31.859756097560975 31.961382113821138,31.859756097560975 31.961382113821138,31.859756097560975 31.910569105691057,31.910569105691057 31.910569105691057,31.910569105691057 31.910569105691057,31.910569105691057 31.910569105691057,31.961382113821138 31.910569105691057,31.961382113821138 31.910569105691057,31.961382113821138 31.910569105691057,31.961382113821138 31.910569105691057,32.012195121951216 31.910569105691057,32.012195121951216 31.910569105691057,32.012195121951216 31.910569105691057,32.0630081300813 31.910569105691057,32.0630081300813 31.910569105691057,32.0630081300813 31.910569105691057,32.0630081300813 31.910569105691057,32.0630081300813 31.910569105691057,32.11382113821138 31.910569105691057,32.11382113821138 31.910569105691057,32.11382113821138 31.910569105691057,32.16463414634146 31.910569105691057,32.16463414634146 31.910569105691057,32.16463414634146 31.910569105691057,32.21544715447154 31.910569105691057,32.21544715447154 31.859756097560975,32.266260162601625 31.859756097560975,32.266260162601625 31.859756097560975,32.266260162601625 31.859756097560975,32.266260162601625 31.859756097560975,32.3170731707317 31.859756097560975,32.3170731707317 31.859756097560975,32.3170731707317 31.859756097560975,32.3170731707317 31.859756097560975,32.36788617886179 31.859756097560975,32.36788617886179 31.859756097560975,32.36788617886179 31.859756097560975,32.418699186991866 31.859756097560975,32.418699186991866 31.859756097560975,32.418699186991866 31.859756097560975,32.46951219512195" fill="none" stroke="black" stroke-width="0.6"></polyline><polyline points="31.859756097560975,32.46951219512195 31.859756097560975,32.46951219512195 31.859756097560975,32.46951219512195 31.859756097560975,32.52032520325203 31.859756097560975,32.52032520325203 31.859756097560975,32.52032520325203 31.859756097560975,32.57113821138211 31.859756097560975,32.57113821138211 31.859756097560975,32.57113821138211 31.859756097560975,32.6219512195122 31.859756097560975,32.6219512195122 31.859756097560975,32.6219512195122 31.859756097560975,32.6219512195122 31.859756097560975,32.6219512195122 31.859756097560975,32.672764227642276 31.859756097560975,32.672764227642276 31.859756097560975,32.672764227642276 31.859756097560975,32.672764227642276 31.859756097560975,32.672764227642276 31.859756097560975,32.672764227642276 31.808943089430894,32.672764227642276 31.808943089430894,32.672764227642276 31.808943089430894,32.672764227642276 31.808943089430894,32.672764227642276 31.808943089430894,32.6219512195122 31.808943089430894,32.6219512195122 31.808943089430894,32.57113821138211 31.808943089430894,32.52032520325203 31.808943089430894,32.418699186991866 31.808943089430894,32.36788617886179 31.859756097560975,32.3170731707317 31.859756097560975,32.266260162601625 31.910569105691057,32.16463414634146 31.961382113821138,32.11382113821138 32.0630081300813,32.0630081300813 32.16463414634146,31.961382113821138 32.266260162601625,31.859756097560975 32.36788617886179,31.808943089430894 32.46951219512195,31.70731707317073 32.57113821138211,31.60569105691057 32.672764227642276,31.504065040650406 32.72357723577236,31.453252032520325 32.82520325203252,31.351626016260163 32.8760162601626,31.30081300813008 32.926829268292686,31.30081300813008 32.97764227642276,31.25 33.02845528455285,31.25 33.02845528455285,31.25 33.079268292682926,31.25 33.079268292682926,31.25 33.13008130081301,31.30081300813008" fill="none" stroke="black" stroke-width="0.6"></polyline><polyline points="33.13008130081301,31.30081300813008 33.13008130081301,31.351626016260163 33.18089430894309,31.402439024390244 33.23170731707317,31.402439024390244" fill="none" stroke="black" stroke-width="0.6"></polyline><polyline points="48.27235772357724,31.504065040650406 48.27235772357724,31.504065040650406 48.27235772357724,31.504065040650406 48.27235772357724,31.504065040650406 48.27235772357724,31.504065040650406 48.27235772357724,31.504065040650406 48.27235772357724,31.504065040650406 48.27235772357724,31.504065040650406 48.27235772357724,31.504065040650406 48.323170731707314,31.504065040650406 48.323170731707314,31.453252032520325 48.323170731707314,31.453252032520325 48.323170731707314,31.453252032520325 48.323170731707314,31.402439024390244 48.323170731707314,31.402439024390244 48.323170731707314,31.402439024390244 48.323170731707314,31.351626016260163 48.323170731707314,31.351626016260163 48.323170731707314,31.30081300813008 48.323170731707314,31.30081300813008 48.323170731707314,31.25 48.323170731707314,31.25 48.323170731707314,31.25 48.323170731707314,31.19918699186992 48.27235772357724,31.19918699186992 48.22154471544715,31.19918699186992 48.170731707317074,31.19918699186992 48.06910569105691,31.19918699186992 47.96747967479675,31.25 47.8150406504065,31.30081300813008 47.71341463414634,31.351626016260163 47.61178861788618,31.402439024390244 47.510162601626014,31.453252032520325 47.459349593495936,31.504065040650406 47.357723577235774,31.60569105691057 47.357723577235774,31.65650406504065 47.30691056910569,31.70731707317073 47.30691056910569,31.70731707317073 47.30691056910569,31.758130081300813 47.30691056910569,31.808943089430894 47.357723577235774,31.808943089430894 47.459349593495936,31.808943089430894 47.510162601626014,31.808943089430894 47.61178861788618,31.808943089430894 47.71341463414634,31.758130081300813 47.8150406504065,31.758130081300813 47.916666666666664,31.70731707317073 47.96747967479675,31.70731707317073 48.06910569105691,31.65650406504065 48.11991869918699,31.65650406504065 48.170731707317074,31.60569105691057" fill="none" stroke="black" stroke-width="0.6"></polyline><polyline points="48.170731707317074,31.60569105691057 48.22154471544715,31.60569105691057 48.27235772357724,31.60569105691057 48.323170731707314,31.60569105691057 48.323170731707314,31.60569105691057 48.3739837398374,31.60569105691057 48.3739837398374,31.60569105691057 48.3739837398374,31.60569105691057 48.3739837398374,31.60569105691057 48.3739837398374,31.60569105691057 48.3739837398374,31.65650406504065 48.323170731707314,31.758130081300813 48.27235772357724,31.808943089430894 48.22154471544715,31.961382113821138 48.11991869918699,32.0630081300813 48.06910569105691,32.21544715447154 47.96747967479675,32.36788617886179 47.86585365853659,32.57113821138211 47.8150406504065,32.72357723577236 47.71341463414634,32.8760162601626 47.61178861788618,33.079268292682926 47.510162601626014,33.18089430894309 47.459349593495936,33.333333333333336 47.40853658536585,33.4349593495935 47.357723577235774,33.53658536585366 47.357723577235774,33.63821138211382 47.30691056910569,33.6890243902439 47.25609756097561,33.739837398373986 47.25609756097561,33.790650406504064 47.20528455284553,33.892276422764226 47.15447154471545,33.94308943089431 47.103658536585364,33.99390243902439 47.0020325203252,34.04471544715447 46.951219512195124,34.04471544715447 46.90040650406504,34.04471544715447 46.84959349593496,34.09552845528455" fill="none" stroke="black" stroke-width="0.6"></polyline><polyline points="64.73577235772358,31.402439024390244 64.73577235772358,31.402439024390244 64.73577235772358,31.402439024390244 64.73577235772358,31.402439024390244 64.73577235772358,31.351626016260163 64.73577235772358,31.30081300813008 64.73577235772358,31.30081300813008 64.73577235772358,31.25 64.73577235772358,31.19918699186992 64.73577235772358,31.19918699186992 64.73577235772358,31.148373983739837 64.78658536585365,31.148373983739837 64.78658536585365,31.148373983739837 64.83739837398373,31.097560975609756 64.83739837398373,31.097560975609756 64.88821138211382,31.097560975609756 64.88821138211382,31.097560975609756 64.88821138211382,31.097560975609756 64.9390243902439,31.097560975609756 64.9390243902439,31.097560975609756 64.9390243902439,31.148373983739837 64.9390243902439,31.148373983739837 64.98983739837398,31.148373983739837 64.98983739837398,31.148373983739837 64.98983739837398,31.19918699186992 64.98983739837398,31.19918699186992 64.98983739837398,31.19918699186992 64.98983739837398,31.19918699186992 64.98983739837398,31.19918699186992 64.98983739837398,31.19918699186992 64.98983739837398,31.25 64.98983739837398,31.25 64.98983739837398,31.30081300813008 64.98983739837398,31.30081300813008 64.98983739837398,31.351626016260163 64.98983739837398,31.402439024390244 64.9390243902439,31.453252032520325 64.9390243902439,31.504065040650406 64.88821138211382,31.554878048780488 64.88821138211382,31.60569105691057 64.88821138211382,31.65650406504065 64.83739837398373,31.758130081300813 64.83739837398373,31.808943089430894 64.78658536585365,31.859756097560975 64.78658536585365,31.910569105691057 64.73577235772358,31.961382113821138 64.73577235772358,32.012195121951216 64.73577235772358,32.0630081300813 64.6849593495935,32.0630081300813 64.6849593495935,32.11382113821138 64.6849593495935,32.11382113821138" fill="none" stroke="black" stroke-width="0.6"></polyline><polyline points="64.6849593495935,32.11382113821138 64.6849593495935,32.11382113821138 64.6849593495935,32.16463414634146 64.6849593495935,32.16463414634146 64.6849593495935,32.16463414634146 64.6849593495935,32.16463414634146 64.6849593495935,32.21544715447154 64.6849593495935,32.21544715447154 64.6849593495935,32.21544715447154 64.6849593495935,32.21544715447154 64.6849593495935,32.21544715447154 64.6849593495935,32.21544715447154 64.6849593495935,32.21544715447154 64.6849593495935,32.21544715447154 64.6849593495935,32.21544715447154 64.6849593495935,32.21544715447154 64.6849593495935,32.21544715447154 64.73577235772358,32.21544715447154 64.73577235772358,32.21544715447154 64.73577235772358,32.21544715447154 64.73577235772358,32.21544715447154 64.73577235772358,32.21544715447154 64.73577235772358,32.21544715447154 64.73577235772358,32.21544715447154 64.73577235772358,32.21544715447154 64.73577235772358,32.21544715447154 64.73577235772358,32.21544715447154 64.73577235772358,32.21544715447154 64.73577235772358,32.21544715447154 64.73577235772358,32.21544715447154 64.73577235772358,32.21544715447154 64.73577235772358,32.21544715447154 64.73577235772358,32.21544715447154 64.73577235772358,32.21544715447154 64.73577235772358,32.21544715447154 64.73577235772358,32.16463414634146 64.73577235772358,32.16463414634146 64.73577235772358,32.11382113821138 64.73577235772358,32.0630081300813 64.73577235772358,32.012195121951216 64.73577235772358,31.910569105691057 64.78658536585365,31.859756097560975 64.78658536585365,31.758130081300813 64.78658536585365,31.65650406504065 64.83739837398373,31.554878048780488 64.83739837398373,31.402439024390244 64.88821138211382,31.30081300813008 64.9390243902439,31.19918699186992 64.9390243902439,31.097560975609756 64.98983739837398,30.995934959349594 65.04065040650406,30.89430894308943" fill="none" stroke="black" stroke-width="0.6"></polyline><polyline points="65.04065040650406,30.89430894308943 65.09146341463415,30.79268292682927 65.14227642276423,30.741869918699187 65.14227642276423,30.640243902439025 65.1930894308943,30.589430894308943 65.2439024390244,30.538617886178862 65.29471544715447,30.538617886178862 65.34552845528455,30.48780487804878 65.39634146341463,30.48780487804878 65.44715447154472,30.48780487804878 65.54878048780488,30.4369918699187 65.59959349593495,30.4369918699187 65.70121951219512,30.4369918699187 65.7520325203252,30.4369918699187 65.85365853658537,30.4369918699187 65.90447154471545,30.4369918699187 65.95528455284553,30.48780487804878 66.0060975609756,30.538617886178862 66.0569105691057,30.589430894308943 66.0569105691057,30.640243902439025 66.0569105691057,30.741869918699187 66.0569105691057,30.84349593495935 66.0569105691057,30.945121951219512 66.0060975609756,30.995934959349594 65.95528455284553,31.097560975609756 65.90447154471545,31.148373983739837 65.85365853658537,31.19918699186992 65.7520325203252,31.25 65.65040650406505,31.30081300813008 65.54878048780488,31.30081300813008 65.44715447154472,31.30081300813008 65.34552845528455,31.351626016260163 65.1930894308943,31.351626016260163 65.04065040650406,31.351626016260163 64.9390243902439,31.351626016260163 64.83739837398373,31.351626016260163 64.73577235772358,31.351626016260163 64.73577235772358,31.351626016260163" fill="none" stroke="black" stroke-width="0.6"></polyline><polyline points="80.53861788617886,31.402439024390244 80.53861788617886,31.402439024390244 80.53861788617886,31.402439024390244 80.58943089430895,31.402439024390244 80.58943089430895,31.351626016260163 80.58943089430895,31.351626016260163 80.64024390243902,31.351626016260163 80.64024390243902,31.351626016260163 80.64024390243902,31.30081300813008 80.64024390243902,31.30081300813008 80.6910569105691,31.30081300813008 80.6910569105691,31.30081300813008 80.6910569105691,31.30081300813008 80.74186991869918,31.25 80.74186991869918,31.25 80.74186991869918,31.25 80.74186991869918,31.25 80.79268292682927,31.25 80.79268292682927,31.19918699186992 80.79268292682927,31.19918699186992 80.84349593495935,31.19918699186992 80.84349593495935,31.19918699186992 80.84349593495935,31.19918699186992 80.84349593495935,31.19918699186992 80.84349593495935,31.19918699186992 80.84349593495935,31.19918699186992 80.84349593495935,31.19918699186992 80.84349593495935,31.19918699186992 80.84349593495935,31.19918699186992 80.84349593495935,31.19918699186992 80.84349593495935,31.19918699186992 80.84349593495935,31.19918699186992 80.79268292682927,31.19918699186992 80.74186991869918,31.25 80.6910569105691,31.25 80.64024390243902,31.30081300813008 80.58943089430895,31.30081300813008 80.53861788617886,31.351626016260163 80.48780487804878,31.351626016260163 80.4369918699187,31.402439024390244 80.33536585365853,31.453252032520325 80.28455284552845,31.504065040650406 80.23373983739837,31.504065040650406 80.1829268292683,31.554878048780488 80.1321138211382,31.60569105691057 80.08130081300813,31.65650406504065 80.03048780487805,31.70731707317073 80.03048780487805,31.758130081300813 80.03048780487805,31.808943089430894 79.97967479674797,31.808943089430894 79.97967479674797,31.859756097560975" fill="none" stroke="black" stroke-width="0.6"></polyline><polyline points="79.97967479674797,31.859756097560975 79.97967479674797,31.859756097560975 79.97967479674797,31.910569105691057 79.97967479674797,31.910569105691057 80.03048780487805,31.961382113821138 80.03048780487805,31.961382113821138 80.08130081300813,32.012195121951216 80.1321138211382,32.012195121951216 80.1321138211382,32.012195121951216 80.1829268292683,32.0630081300813 80.23373983739837,32.0630081300813 80.28455284552845,32.0630081300813 80.33536585365853,32.0630081300813 80.38617886178862,32.0630081300813 80.4369918699187,32.0630081300813 80.4369918699187,32.0630081300813 80.48780487804878,32.0630081300813 80.53861788617886,32.0630081300813 80.58943089430895,32.0630081300813 80.64024390243902,32.0630081300813 80.6910569105691,32.0630081300813 80.74186991869918,32.0630081300813 80.79268292682927,32.0630081300813 80.84349593495935,32.0630081300813 80.89430894308943,32.0630081300813 80.9451219512195,32.012195121951216 80.9959349593496,32.012195121951216 81.04674796747967,31.961382113821138 81.09756097560975,31.961382113821138 81.14837398373983,31.961382113821138 81.19918699186992,31.910569105691057 81.19918699186992,31.910569105691057 81.25,31.859756097560975 81.25,31.859756097560975 81.30081300813008,31.808943089430894 81.30081300813008,31.758130081300813 81.30081300813008,31.70731707317073 81.30081300813008,31.65650406504065 81.30081300813008,31.60569105691057 81.30081300813008,31.554878048780488 81.30081300813008,31.554878048780488 81.30081300813008,31.504065040650406 81.30081300813008,31.453252032520325 81.30081300813008,31.453252032520325 81.25,31.402439024390244 81.25,31.402439024390244 81.19918699186992,31.351626016260163 81.14837398373983,31.351626016260163 81.14837398373983,31.30081300813008 81.09756097560975,31.30081300813008 81.04674796747967,31.30081300813008" fill="none" stroke="black" stroke-width="0.6"></polyline><polyline points="81.04674796747967,31.30081300813008 81.04674796747967,31.25 80.9959349593496,31.25 80.9959349593496,31.25 80.9959349593496,31.25 80.9959349593496,31.25 80.9451219512195,31.25 80.9451219512195,31.25 80.89430894308943,31.25 80.89430894308943,31.25 80.84349593495935,31.25 80.84349593495935,31.25 80.79268292682927,31.25 80.79268292682927,31.30081300813008 80.74186991869918,31.30081300813008 80.74186991869918,31.30081300813008" fill="none" stroke="black" stroke-width="0.6"></polyline><polyline points="15.396341463414634,48.323170731707314 15.396341463414634,48.323170731707314 15.396341463414634,48.27235772357724 15.447154471544716,48.27235772357724 15.447154471544716,48.22154471544715 15.447154471544716,48.22154471544715 15.447154471544716,48.170731707317074 15.447154471544716,48.170731707317074 15.447154471544716,48.11991869918699 15.447154471544716,48.11991869918699 15.447154471544716,48.11991869918699 15.447154471544716,48.11991869918699 15.447154471544716,48.06910569105691 15.447154471544716,48.06910569105691 15.447154471544716,48.06910569105691 15.447154471544716,48.06910569105691 15.447154471544716,48.06910569105691 15.447154471544716,48.06910569105691 15.447154471544716,48.06910569105691 15.447154471544716,48.06910569105691 15.447154471544716,48.06910569105691 15.447154471544716,48.06910569105691 15.447154471544716,48.06910569105691 15.447154471544716,48.06910569105691 15.447154471544716,48.06910569105691 15.447154471544716,48.06910569105691 15.447154471544716,48.06910569105691 15.447154471544716,48.06910569105691 15.447154471544716,48.06910569105691 15.497967479674797,48.06910569105691 15.497967479674797,48.06910569105691 15.497967479674797,48.06910569105691 15.497967479674797,48.06910569105691 15.497967479674797,48.11991869918699 15.497967479674797,48.170731707317074 15.447154471544716,48.22154471544715 15.447154471544716,48.323170731707314 15.396341463414634,48.3739837398374 15.345528455284553,48.47560975609756 15.294715447154472,48.52642276422764 15.294715447154472,48.577235772357724 15.24390243902439,48.6280487804878 15.19308943089431,48.67886178861789 15.19308943089431,48.67886178861789 15.19308943089431,48.67886178861789 15.19308943089431,48.729674796747965 15.142276422764228,48.729674796747965 15.142276422764228,48.729674796747965 15.142276422764228,48.67886178861789 15.142276422764228,48.67886178861789 15.19308943089431,48.6280487804878" fill="none" stroke="black" stroke-width="0.6"></polyline><polyline points="15.19308943089431,48.6280487804878 15.19308943089431,48.577235772357724 15.24390243902439,48.52642276422764 15.294715447154472,48.42479674796748 15.294715447154472,48.3739837398374 15.345528455284553,48.3739837398374 15.396341463414634,48.27235772357724 15.396341463414634,48.27235772357724 15.447154471544716,48.22154471544715 15.497967479674797,48.170731707317074 15.548780487804878,48.11991869918699 15.59959349593496,48.11991869918699 15.65040650406504,48.11991869918699 15.701219512195122,48.11991869918699 15.752032520325203,48.11991869918699 15.802845528455284,48.11991869918699 15.853658536585366,48.11991869918699 15.904471544715447,48.170731707317074 15.904471544715447,48.22154471544715 15.955284552845528,48.323170731707314 15.955284552845528,48.3739837398374 16.006097560975608,48.42479674796748 16.006097560975608,48.47560975609756 16.006097560975608,48.52642276422764 16.05691056910569,48.52642276422764 16.10772357723577,48.577235772357724 16.10772357723577,48.6280487804878 16.15853658536585,48.6280487804878 16.260162601626014,48.6280487804878 16.3109756097561,48.6280487804878 16.41260162601626,48.6280487804878 16.463414634146343,48.577235772357724 16.565040650406505,48.52642276422764 16.666666666666668,48.42479674796748 16.81910569105691,48.3739837398374 16.920731707317074,48.27235772357724 17.022357723577237,48.170731707317074 17.1239837398374,48.06910569105691 17.225609756097562,48.01829268292683 17.327235772357724,47.916666666666664 17.378048780487806,47.86585365853659 17.428861788617887,47.8150406504065 17.428861788617887,47.764227642276424" fill="none" stroke="black" stroke-width="0.6"></polyline><polyline points="30.4369918699187,47.96747967479675 30.4369918699187,47.96747967479675 30.4369918699187,47.96747967479675 30.4369918699187,47.916666666666664 30.4369918699187,47.916666666666664 30.4369918699187,47.916666666666664 30.4369918699187,47.86585365853659 30.4369918699187,47.86585365853659 30.4369918699187,47.86585365853659 30.4369918699187,47.86585365853659 30.4369918699187,47.86585365853659 30.4369918699187,47.86585365853659 30.4369918699187,47.86585365853659 30.4369918699187,47.916666666666664 30.4369918699187,47.96747967479675 30.38617886178862,48.01829268292683 30.38617886178862,48.11991869918699 30.335365853658537,48.22154471544715 30.284552845528456,48.27235772357724 30.233739837398375,48.3739837398374 30.233739837398375,48.47560975609756 30.182926829268293,48.577235772357724 30.132113821138212,48.6280487804878 30.132113821138212,48.729674796747965 30.08130081300813,48.78048780487805 30.08130081300813,48.83130081300813 30.08130081300813,48.83130081300813 30.08130081300813,48.88211382113821 30.08130081300813,48.88211382113821 30.08130081300813,48.88211382113821 30.08130081300813,48.88211382113821 30.08130081300813,48.88211382113821 30.132113821138212,48.88211382113821 30.132113821138212,48.83130081300813 30.182926829268293,48.78048780487805 30.182926829268293,48.729674796747965 30.233739837398375,48.6280487804878 30.284552845528456,48.577235772357724 30.335365853658537,48.52642276422764 30.38617886178862,48.42479674796748 30.4369918699187,48.3739837398374 30.538617886178862,48.323170731707314 30.589430894308943,48.27235772357724 30.640243902439025,48.22154471544715 30.741869918699187,48.22154471544715 30.79268292682927,48.170731707317074 30.84349593495935,48.170731707317074 30.89430894308943,48.170731707317074 30.945121951219512,48.170731707317074 30.945121951219512,48.170731707317074 30.945121951219512,48.170731707317074" fill="none" stroke="black" stroke-width="0.6"></polyline><polyline points="30.945121951219512,48.170731707317074 30.995934959349594,48.22154471544715 30.995934959349594,48.27235772357724 30.995934959349594,48.323170731707314 30.995934959349594,48.323170731707314 30.995934959349594,48.3739837398374 30.995934959349594,48.42479674796748 30.995934959349594,48.42479674796748 30.995934959349594,48.47560975609756 30.995934959349594,48.47560975609756 30.995934959349594,48.52642276422764 30.995934959349594,48.52642276422764 30.995934959349594,48.52642276422764 31.046747967479675,48.52642276422764 31.097560975609756,48.52642276422764 31.148373983739837,48.47560975609756 31.19918699186992,48.42479674796748 31.30081300813008,48.3739837398374 31.453252032520325,48.27235772357724 31.554878048780488,48.170731707317074 31.65650406504065,48.11991869918699 31.808943089430894,48.06910569105691 31.859756097560975,48.01829268292683 31.910569105691057,48.01829268292683 31.961382113821138,48.01829268292683 31.961382113821138,48.01829268292683 31.961382113821138,48.06910569105691 31.910569105691057,48.170731707317074 31.859756097560975,48.27235772357724 31.808943089430894,48.3739837398374 31.70731707317073,48.47560975609756 31.65650406504065,48.577235772357724 31.65650406504065,48.6280487804878 31.60569105691057,48.729674796747965 31.554878048780488,48.78048780487805 31.554878048780488,48.83130081300813 31.504065040650406,48.88211382113821 31.504065040650406,48.93292682926829" fill="none" stroke="black" stroke-width="0.6"></polyline><polyline points="48.78048780487805,47.66260162601626 48.78048780487805,47.66260162601626 48.78048780487805,47.66260162601626 48.78048780487805,47.66260162601626 48.78048780487805,47.66260162601626 48.78048780487805,47.66260162601626 48.78048780487805,47.66260162601626 48.78048780487805,47.66260162601626 48.78048780487805,47.66260162601626 48.78048780487805,47.66260162601626 48.78048780487805,47.66260162601626 48.78048780487805,47.66260162601626 48.78048780487805,47.66260162601626 48.78048780487805,47.66260162601626 48.78048780487805,47.66260162601626 48.78048780487805,47.66260162601626 48.78048780487805,47.66260162601626 48.78048780487805,47.66260162601626 48.78048780487805,47.66260162601626 48.78048780487805,47.66260162601626 48.78048780487805,47.66260162601626 48.78048780487805,47.66260162601626 48.78048780487805,47.66260162601626 48.78048780487805,47.61178861788618 48.78048780487805,47.61178861788618 48.78048780487805,47.61178861788618 48.78048780487805,47.5609756097561 48.78048780487805,47.5609756097561 48.78048780487805,47.510162601626014 48.78048780487805,47.510162601626014 48.78048780487805,47.510162601626014 48.78048780487805,47.459349593495936 48.78048780487805,47.459349593495936 48.78048780487805,47.459349593495936 48.78048780487805,47.459349593495936 48.78048780487805,47.40853658536585 48.78048780487805,47.40853658536585 48.78048780487805,47.40853658536585 48.78048780487805,47.40853658536585 48.78048780487805,47.357723577235774 48.78048780487805,47.357723577235774 48.78048780487805,47.357723577235774 48.78048780487805,47.357723577235774 48.78048780487805,47.357723577235774 48.78048780487805,47.357723577235774 48.78048780487805,47.357723577235774 48.78048780487805,47.357723577235774 48.78048780487805,47.357723577235774 48.78048780487805,47.357723577235774 48.78048780487805,47.357723577235774 48.78048780487805,47.357723577235774" fill="none" stroke="black" stroke-width="0.6"></polyline><polyline points="48.78048780487805,47.357723577235774 48.78048780487805,47.357723577235774 48.78048780487805,47.357723577235774 48.78048780487805,47.357723577235774 48.78048780487805,47.357723577235774 48.78048780487805,47.357723577235774 48.729674796747965,47.40853658536585 48.67886178861789,47.510162601626014 48.6280487804878,47.61178861788618 48.577235772357724,47.71341463414634 48.52642276422764,47.8150406504065 48.47560975609756,47.916666666666664 48.42479674796748,48.01829268292683 48.42479674796748,48.11991869918699 48.3739837398374,48.22154471544715 48.323170731707314,48.323170731707314 48.323170731707314,48.3739837398374 48.323170731707314,48.47560975609756 48.323170731707314,48.52642276422764 48.323170731707314,48.577235772357724 48.323170731707314,48.6280487804878 48.323170731707314,48.6280487804878 48.323170731707314,48.67886178861789 48.323170731707314,48.67886178861789 48.323170731707314,48.67886178861789 48.323170731707314,48.729674796747965 48.323170731707314,48.729674796747965 48.27235772357724,48.729674796747965 48.27235772357724,48.729674796747965 48.27235772357724,48.78048780487805 48.27235772357724,48.78048780487805 48.22154471544715,48.78048780487805 48.22154471544715,48.78048780487805 48.22154471544715,48.83130081300813 48.170731707317074,48.83130081300813 48.170731707317074,48.83130081300813 48.170731707317074,48.88211382113821 48.11991869918699,48.88211382113821 48.11991869918699,48.88211382113821 48.06910569105691,48.93292682926829 48.06910569105691,48.93292682926829 48.06910569105691,48.93292682926829" fill="none" stroke="black" stroke-width="0.6"></polyline><polyline points="65.59959349593495,47.30691056910569 65.59959349593495,47.30691056910569 65.59959349593495,47.25609756097561 65.59959349593495,47.25609756097561 65.59959349593495,47.25609756097561 65.59959349593495,47.20528455284553 65.59959349593495,47.20528455284553 65.59959349593495,47.15447154471545 65.59959349593495,47.15447154471545 65.59959349593495,47.15447154471545 65.59959349593495,47.103658536585364 65.59959349593495,47.103658536585364 65.59959349593495,47.103658536585364 65.59959349593495,47.052845528455286 65.59959349593495,47.052845528455286 65.59959349593495,47.052845528455286 65.59959349593495,47.052845528455286 65.59959349593495,47.052845528455286 65.59959349593495,47.0020325203252 65.59959349593495,47.0020325203252 65.59959349593495,47.0020325203252 65.59959349593495,47.0020325203252 65.59959349593495,47.0020325203252 65.59959349593495,47.0020325203252 65.59959349593495,47.0020325203252 65.59959349593495,47.0020325203252 65.59959349593495,47.0020325203252 65.59959349593495,47.0020325203252 65.59959349593495,47.0020325203252 65.59959349593495,47.0020325203252 65.59959349593495,47.0020325203252 65.59959349593495,47.0020325203252 65.59959349593495,47.0020325203252 65.59959349593495,47.0020325203252 65.59959349593495,47.0020325203252 65.59959349593495,47.0020325203252 65.59959349593495,47.0020325203252 65.59959349593495,47.0020325203252 65.59959349593495,47.0020325203252 65.59959349593495,47.0020325203252 65.65040650406505,47.0020325203252 65.65040650406505,47.052845528455286 65.65040650406505,47.052845528455286 65.65040650406505,47.15447154471545 65.65040650406505,47.20528455284553 65.65040650406505,47.30691056910569 65.65040650406505,47.40853658536585 65.65040650406505,47.5609756097561 65.65040650406505,47.71341463414634 65.65040650406505,47.86585365853659 65.65040650406505,47.96747967479675" fill="none" stroke="black" stroke-width="0.6"></polyline><polyline points="65.65040650406505,47.96747967479675 65.65040650406505,48.11991869918699 65.65040650406505,48.22154471544715 65.59959349593495,48.3739837398374 65.59959349593495,48.47560975609756 65.54878048780488,48.577235772357724 65.54878048780488,48.67886178861789 65.54878048780488,48.78048780487805 65.4979674796748,48.83130081300813 65.4979674796748,48.93292682926829 65.4979674796748,48.983739837398375 65.4979674796748,48.983739837398375 65.4979674796748,49.03455284552845 65.44715447154472,49.03455284552845 65.44715447154472,49.03455284552845 65.44715447154472,49.03455284552845" fill="none" stroke="black" stroke-width="0.6"></polyline><polyline points="67.17479674796748,47.61178861788618 67.17479674796748,47.61178861788618 67.17479674796748,47.61178861788618 67.17479674796748,47.61178861788618 67.17479674796748,47.61178861788618 67.17479674796748,47.61178861788618 67.17479674796748,47.61178861788618 67.17479674796748,47.61178861788618 67.1239837398374,47.61178861788618 67.07317073170732,47.61178861788618 66.97154471544715,47.61178861788618 66.869918699187,47.66260162601626 66.76829268292683,47.71341463414634 66.61585365853658,47.764227642276424 66.46341463414635,47.8150406504065 66.3109756097561,47.916666666666664 66.20934959349593,47.96747967479675 66.0569105691057,48.01829268292683 65.95528455284553,48.06910569105691 65.85365853658537,48.06910569105691 65.7520325203252,48.11991869918699 65.70121951219512,48.11991869918699 65.65040650406505,48.170731707317074 65.65040650406505,48.170731707317074 65.65040650406505,48.170731707317074 65.65040650406505,48.170731707317074 65.65040650406505,48.170731707317074 65.70121951219512,48.22154471544715 65.7520325203252,48.27235772357724 65.85365853658537,48.323170731707314 65.90447154471545,48.3739837398374 66.0060975609756,48.42479674796748 66.10772357723577,48.47560975609756 66.20934959349593,48.52642276422764 66.3109756097561,48.577235772357724 66.41260162601625,48.6280487804878 66.51422764227642,48.6280487804878 66.61585365853658,48.67886178861789 66.71747967479675,48.67886178861789 66.8191056910569,48.67886178861789 66.869918699187,48.67886178861789 66.92073170731707,48.67886178861789 66.97154471544715,48.67886178861789 67.02235772357723,48.67886178861789 67.07317073170732,48.67886178861789 67.1239837398374,48.67886178861789 67.17479674796748,48.67886178861789" fill="none" stroke="black" stroke-width="0.6"></polyline><polyline points="80.23373983739837,47.357723577235774 80.23373983739837,47.357723577235774 80.23373983739837,47.357723577235774 80.28455284552845,47.357723577235774 80.33536585365853,47.30691056910569 80.33536585365853,47.30691056910569 80.38617886178862,47.25609756097561 80.38617886178862,47.25609756097561 80.4369918699187,47.25609756097561 80.48780487804878,47.25609756097561 80.48780487804878,47.20528455284553 80.53861788617886,47.20528455284553 80.53861788617886,47.20528455284553 80.58943089430895,47.20528455284553 80.58943089430895,47.20528455284553 80.64024390243902,47.20528455284553 80.64024390243902,47.20528455284553 80.64024390243902,47.20528455284553 80.64024390243902,47.20528455284553 80.64024390243902,47.20528455284553 80.64024390243902,47.20528455284553 80.64024390243902,47.20528455284553 80.64024390243902,47.20528455284553 80.64024390243902,47.20528455284553 80.64024390243902,47.20528455284553 80.64024390243902,47.20528455284553 80.64024390243902,47.20528455284553 80.64024390243902,47.20528455284553 80.64024390243902,47.20528455284553 80.64024390243902,47.20528455284553 80.64024390243902,47.25609756097561 80.58943089430895,47.25609756097561 80.58943089430895,47.30691056910569 80.58943089430895,47.357723577235774 80.58943089430895,47.40853658536585 80.58943089430895,47.40853658536585 80.53861788617886,47.459349593495936 80.53861788617886,47.510162601626014 80.53861788617886,47.5609756097561 80.53861788617886,47.61178861788618 80.53861788617886,47.66260162601626 80.53861788617886,47.71341463414634 80.53861788617886,47.764227642276424 80.53861788617886,47.8150406504065 80.53861788617886,47.916666666666664 80.58943089430895,47.96747967479675 80.64024390243902,48.06910569105691 80.64024390243902,48.170731707317074 80.6910569105691,48.27235772357724 80.74186991869918,48.3739837398374 80.74186991869918,48.47560975609756" fill="none" stroke="black" stroke-width="0.6"></polyline><polyline points="80.74186991869918,48.47560975609756 80.74186991869918,48.577235772357724 80.74186991869918,48.729674796747965 80.74186991869918,48.88211382113821 80.6910569105691,48.983739837398375 80.58943089430895,49.08536585365854 80.53861788617886,49.23780487804878 80.4369918699187,49.28861788617886 80.28455284552845,49.390243902439025 80.1829268292683,49.49186991869919 80.03048780487805,49.59349593495935 79.8780487804878,49.64430894308943 79.67479674796748,49.74593495934959 79.52235772357723,49.796747967479675 79.369918699187,49.84756097560975 79.16666666666667,49.89837398373984 79.01422764227642,49.89837398373984 78.91260162601625,49.949186991869915 78.76016260162602,49.949186991869915 78.65853658536585,49.949186991869915 78.5569105691057,49.89837398373984 78.5060975609756,49.84756097560975" fill="none" stroke="black" stroke-width="0.6"></polyline><polyline points="80.9959349593496,46.798780487804876 81.04674796747967,46.697154471544714 81.14837398373983,46.54471544715447 81.25,46.392276422764226 81.30081300813008,46.290650406504064 81.35162601626016,46.1890243902439 81.35162601626016,46.1890243902439 81.35162601626016,46.1890243902439 81.35162601626016,46.1890243902439 81.35162601626016,46.1890243902439" fill="none" stroke="black" stroke-width="0.6"></polyline><polyline points="16.514227642276424,64.27845528455285 16.514227642276424,64.27845528455285 16.514227642276424,64.27845528455285 16.514227642276424,64.22764227642276 16.565040650406505,64.22764227642276 16.565040650406505,64.17682926829268 16.565040650406505,64.17682926829268 16.565040650406505,64.17682926829268 16.615853658536587,64.17682926829268 16.615853658536587,64.17682926829268 16.615853658536587,64.17682926829268 16.615853658536587,64.17682926829268 16.615853658536587,64.17682926829268 16.565040650406505,64.27845528455285 16.514227642276424,64.380081300813 16.463414634146343,64.53252032520325 16.36178861788618,64.6849593495935 16.3109756097561,64.88821138211382 16.209349593495933,65.04065040650406 16.15853658536585,65.2439024390244 16.10772357723577,65.39634146341463 16.05691056910569,65.4979674796748 16.006097560975608,65.59959349593495 16.006097560975608,65.70121951219512 16.006097560975608,65.7520325203252 16.006097560975608,65.80284552845528 16.006097560975608,65.85365853658537" fill="none" stroke="black" stroke-width="0.6"></polyline><polyline points="31.60569105691057,63.516260162601625 31.60569105691057,63.46544715447154 31.65650406504065,63.46544715447154 31.70731707317073,63.41463414634146 31.70731707317073,63.41463414634146 31.758130081300813,63.36382113821138 31.758130081300813,63.36382113821138 31.758130081300813,63.36382113821138 31.758130081300813,63.3130081300813 31.758130081300813,63.3130081300813 31.758130081300813,63.3130081300813 31.758130081300813,63.3130081300813 31.758130081300813,63.3130081300813 31.758130081300813,63.3130081300813 31.758130081300813,63.3130081300813 31.758130081300813,63.3130081300813 31.758130081300813,63.3130081300813 31.758130081300813,63.3130081300813 31.758130081300813,63.3130081300813 31.758130081300813,63.3130081300813 31.758130081300813,63.3130081300813 31.758130081300813,63.3130081300813 31.758130081300813,63.36382113821138 31.758130081300813,63.41463414634146 31.758130081300813,63.41463414634146 31.70731707317073,63.46544715447154 31.70731707317073,63.516260162601625 31.70731707317073,63.5670731707317 31.65650406504065,63.61788617886179 31.60569105691057,63.71951219512195 31.60569105691057,63.77032520325203 31.554878048780488,63.87195121951219 31.504065040650406,63.922764227642276 31.504065040650406,64.02439024390243 31.453252032520325,64.1260162601626 31.402439024390244,64.17682926829268 31.351626016260163,64.27845528455285 31.30081300813008,64.380081300813 31.25,64.43089430894308 31.19918699186992,64.53252032520325 31.148373983739837,64.58333333333333 31.148373983739837,64.6849593495935 31.097560975609756,64.73577235772358 31.046747967479675,64.78658536585365 31.046747967479675,64.83739837398373 30.995934959349594,64.83739837398373 30.995934959349594,64.88821138211382 30.995934959349594,64.88821138211382 30.995934959349594,64.88821138211382 30.995934959349594,64.88821138211382 30.995934959349594,64.88821138211382" fill="none" stroke="black" stroke-width="0.6"></polyline><polyline points="30.995934959349594,64.88821138211382 30.995934959349594,64.88821138211382 30.995934959349594,64.83739837398373 30.995934959349594,64.78658536585365 31.046747967479675,64.78658536585365 31.046747967479675,64.73577235772358 31.097560975609756,64.6849593495935 31.148373983739837,64.6849593495935 31.19918699186992,64.6341463414634 31.25,64.58333333333333 31.30081300813008,64.58333333333333 31.402439024390244,64.53252032520325 31.453252032520325,64.48170731707317 31.554878048780488,64.43089430894308 31.60569105691057,64.380081300813 31.70731707317073,64.380081300813 31.808943089430894,64.32926829268293 31.910569105691057,64.32926829268293 32.012195121951216,64.27845528455285 32.0630081300813,64.27845528455285 32.11382113821138,64.27845528455285 32.16463414634146,64.27845528455285 32.21544715447154,64.27845528455285 32.21544715447154,64.32926829268293 32.21544715447154,64.380081300813 32.21544715447154,64.48170731707317 32.21544715447154,64.53252032520325 32.21544715447154,64.6341463414634 32.16463414634146,64.6849593495935 32.16463414634146,64.78658536585365 32.16463414634146,64.83739837398373 32.11382113821138,64.9390243902439 32.11382113821138,64.98983739837398 32.11382113821138,65.04065040650406 32.0630081300813,65.09146341463415 32.0630081300813,65.14227642276423 32.0630081300813,65.1930894308943 32.0630081300813,65.2439024390244 32.012195121951216,65.29471544715447 32.012195121951216,65.29471544715447" fill="none" stroke="black" stroke-width="0.6"></polyline><polyline points="48.22154471544715,64.98983739837398 48.27235772357724,64.98983739837398 48.323170731707314,64.9390243902439 48.3739837398374,64.9390243902439 48.42479674796748,64.88821138211382 48.47560975609756,64.88821138211382 48.52642276422764,64.88821138211382 48.577235772357724,64.83739837398373 48.6280487804878,64.83739837398373 48.67886178861789,64.78658536585365 48.729674796747965,64.78658536585365 48.78048780487805,64.73577235772358 48.83130081300813,64.6849593495935 48.83130081300813,64.6849593495935 48.88211382113821,64.6341463414634 48.93292682926829,64.58333333333333 48.93292682926829,64.58333333333333 48.93292682926829,64.53252032520325 48.93292682926829,64.53252032520325 48.93292682926829,64.53252032520325 48.93292682926829,64.48170731707317 48.93292682926829,64.48170731707317 48.88211382113821,64.48170731707317 48.83130081300813,64.48170731707317 48.78048780487805,64.48170731707317 48.67886178861789,64.48170731707317 48.577235772357724,64.48170731707317 48.47560975609756,64.53252032520325 48.3739837398374,64.58333333333333 48.22154471544715,64.6341463414634 48.11991869918699,64.6849593495935 48.01829268292683,64.73577235772358 47.916666666666664,64.83739837398373 47.8150406504065,64.88821138211382 47.764227642276424,64.98983739837398 47.71341463414634,65.04065040650406 47.66260162601626,65.14227642276423 47.66260162601626,65.1930894308943 47.71341463414634,65.2439024390244 47.764227642276424,65.29471544715447 47.8150406504065,65.34552845528455 47.916666666666664,65.34552845528455 48.06910569105691,65.34552845528455 48.170731707317074,65.34552845528455 48.27235772357724,65.34552845528455 48.42479674796748,65.34552845528455 48.52642276422764,65.29471544715447 48.6280487804878,65.2439024390244 48.67886178861789,65.2439024390244 48.729674796747965,65.1930894308943 48.78048780487805,65.1930894308943" fill="none" stroke="black" stroke-width="0.6"></polyline><polyline points="48.78048780487805,65.1930894308943 48.78048780487805,65.14227642276423 48.78048780487805,65.14227642276423 48.78048780487805,65.14227642276423 48.78048780487805,65.14227642276423 48.78048780487805,65.14227642276423 48.78048780487805,65.14227642276423 48.78048780487805,65.14227642276423 48.78048780487805,65.1930894308943 48.78048780487805,65.2439024390244 48.78048780487805,65.29471544715447 48.729674796747965,65.39634146341463 48.729674796747965,65.4979674796748 48.729674796747965,65.59959349593495 48.67886178861789,65.7520325203252 48.67886178861789,65.85365853658537 48.6280487804878,66.0569105691057 48.6280487804878,66.26016260162602 48.577235772357724,66.41260162601625 48.52642276422764,66.61585365853658 48.52642276422764,66.76829268292683 48.52642276422764,66.97154471544715 48.47560975609756,67.1239837398374 48.47560975609756,67.22560975609755 48.47560975609756,67.32723577235772 48.47560975609756,67.42886178861788 48.42479674796748,67.47967479674797 48.3739837398374,67.58130081300813 48.323170731707314,67.6321138211382 48.27235772357724,67.73373983739837 48.170731707317074,67.78455284552845 48.06910569105691,67.88617886178862 47.96747967479675,67.9369918699187 47.916666666666664,67.98780487804878 47.8150406504065,68.08943089430895 47.764227642276424,68.08943089430895 47.71341463414634,68.14024390243902 47.71341463414634,68.14024390243902" fill="none" stroke="black" stroke-width="0.6"></polyline><polyline points="64.27845528455285,64.98983739837398 64.27845528455285,64.98983739837398 64.27845528455285,64.98983739837398 64.27845528455285,64.98983739837398 64.27845528455285,64.98983739837398 64.22764227642276,64.98983739837398 64.22764227642276,64.98983739837398 64.22764227642276,64.98983739837398 64.22764227642276,64.98983739837398 64.22764227642276,64.98983739837398 64.22764227642276,64.98983739837398 64.22764227642276,64.98983739837398 64.22764227642276,65.04065040650406 64.22764227642276,65.04065040650406 64.22764227642276,65.04065040650406 64.22764227642276,65.04065040650406 64.22764227642276,65.09146341463415 64.22764227642276,65.09146341463415 64.22764227642276,65.09146341463415 64.22764227642276,65.09146341463415 64.22764227642276,65.09146341463415 64.22764227642276,65.14227642276423 64.22764227642276,65.14227642276423 64.22764227642276,65.14227642276423 64.22764227642276,65.14227642276423 64.22764227642276,65.14227642276423 64.22764227642276,65.14227642276423 64.22764227642276,65.14227642276423 64.22764227642276,65.14227642276423 64.22764227642276,65.09146341463415 64.22764227642276,65.09146341463415 64.22764227642276,65.04065040650406 64.27845528455285,64.98983739837398 64.27845528455285,64.9390243902439 64.32926829268293,64.88821138211382 64.32926829268293,64.78658536585365 64.32926829268293,64.73577235772358 64.380081300813,64.6341463414634 64.43089430894308,64.58333333333333 64.43089430894308,64.48170731707317 64.48170731707317,64.43089430894308 64.53252032520325,64.32926829268293 64.58333333333333,64.22764227642276 64.6341463414634,64.17682926829268 64.6849593495935,64.07520325203252 64.78658536585365,63.97357723577235 64.88821138211382,63.87195121951219 64.9390243902439,63.82113821138211 65.04065040650406,63.71951219512195 65.09146341463415,63.668699186991866 65.14227642276423,63.61788617886179" fill="none" stroke="black" stroke-width="0.6"></polyline><polyline points="65.14227642276423,63.61788617886179 65.1930894308943,63.61788617886179 65.1930894308943,63.5670731707317 65.2439024390244,63.5670731707317 65.2439024390244,63.5670731707317 65.29471544715447,63.5670731707317 65.29471544715447,63.5670731707317 65.29471544715447,63.5670731707317 65.29471544715447,63.5670731707317 65.29471544715447,63.5670731707317 65.29471544715447,63.5670731707317 65.34552845528455,63.5670731707317 65.34552845528455,63.5670731707317 65.34552845528455,63.5670731707317 65.34552845528455,63.61788617886179 65.39634146341463,63.61788617886179 65.39634146341463,63.61788617886179 65.39634146341463,63.61788617886179 65.39634146341463,63.668699186991866 65.44715447154472,63.668699186991866 65.44715447154472,63.71951219512195 65.44715447154472,63.71951219512195 65.44715447154472,63.77032520325203 65.4979674796748,63.77032520325203 65.4979674796748,63.82113821138211 65.4979674796748,63.82113821138211 65.54878048780488,63.87195121951219 65.54878048780488,63.87195121951219 65.54878048780488,63.87195121951219 65.54878048780488,63.922764227642276 65.59959349593495,63.922764227642276 65.59959349593495,63.922764227642276 65.59959349593495,63.97357723577235 65.59959349593495,63.97357723577235 65.59959349593495,63.97357723577235 65.59959349593495,64.02439024390243" fill="none" stroke="black" stroke-width="0.6"></polyline><polyline points="64.32926829268293,64.6849593495935 64.32926829268293,64.6849593495935 64.32926829268293,64.6849593495935 64.32926829268293,64.6849593495935 64.32926829268293,64.6849593495935 64.32926829268293,64.6849593495935 64.32926829268293,64.6849593495935 64.32926829268293,64.6341463414634 64.380081300813,64.6341463414634 64.43089430894308,64.58333333333333 64.48170731707317,64.58333333333333 64.58333333333333,64.53252032520325 64.6341463414634,64.53252032520325 64.73577235772358,64.53252032520325 64.78658536585365,64.48170731707317 64.88821138211382,64.48170731707317 64.9390243902439,64.48170731707317 64.9390243902439,64.48170731707317 64.98983739837398,64.48170731707317 65.04065040650406,64.48170731707317 65.09146341463415,64.48170731707317 65.09146341463415,64.48170731707317" fill="none" stroke="black" stroke-width="0.6"></polyline><polyline points="79.42073170731707,64.43089430894308 79.42073170731707,64.43089430894308 79.42073170731707,64.43089430894308 79.42073170731707,64.48170731707317 79.42073170731707,64.48170731707317 79.47154471544715,64.48170731707317 79.47154471544715,64.48170731707317 79.52235772357723,64.48170731707317 79.57317073170732,64.48170731707317 79.6239837398374,64.48170731707317 79.72560975609755,64.48170731707317 79.77642276422765,64.48170731707317 79.8780487804878,64.48170731707317 79.97967479674797,64.48170731707317 80.08130081300813,64.48170731707317 80.1829268292683,64.48170731707317 80.28455284552845,64.43089430894308 80.38617886178862,64.380081300813 80.48780487804878,64.380081300813 80.58943089430895,64.32926829268293 80.6910569105691,64.27845528455285 80.74186991869918,64.22764227642276 80.84349593495935,64.17682926829268 80.9451219512195,64.1260162601626 80.9959349593496,64.02439024390243 81.04674796747967,63.97357723577235 81.09756097560975,63.922764227642276 81.09756097560975,63.922764227642276 81.09756097560975,63.87195121951219 81.09756097560975,63.87195121951219 81.04674796747967,63.82113821138211 80.9451219512195,63.82113821138211 80.84349593495935,63.82113821138211 80.6910569105691,63.82113821138211 80.53861788617886,63.82113821138211 80.38617886178862,63.82113821138211 80.28455284552845,63.82113821138211 80.1321138211382,63.82113821138211 80.03048780487805,63.82113821138211 79.92886178861788,63.82113821138211 79.82723577235772,63.82113821138211 79.72560975609755,63.87195121951219 79.6239837398374,63.922764227642276 79.52235772357723,63.97357723577235 79.47154471544715,64.07520325203252 79.42073170731707,64.17682926829268 79.369918699187,64.32926829268293 79.3191056910569,64.43089430894308 79.3191056910569,64.58333333333333 79.3191056910569,64.73577235772358 79.42073170731707,64.88821138211382" fill="none" stroke="black" stroke-width="0.6"></polyline><polyline points="79.42073170731707,64.88821138211382 79.52235772357723,64.98983739837398 79.72560975609755,65.09146341463415 79.97967479674797,65.1930894308943 80.33536585365853,65.1930894308943 80.74186991869918,65.2439024390244 81.14837398373983,65.2439024390244 81.55487804878048,65.2439024390244 81.91056910569105,65.1930894308943 82.11382113821138,65.1930894308943 82.21544715447155,65.14227642276423 82.26626016260163,65.14227642276423 82.26626016260163,65.14227642276423" fill="none" stroke="black" stroke-width="0.6"></polyline><polyline points="16.006097560975608,81.14837398373983 16.006097560975608,81.14837398373983 16.006097560975608,81.14837398373983 16.006097560975608,81.14837398373983 16.006097560975608,81.14837398373983 16.006097560975608,81.14837398373983 15.955284552845528,81.14837398373983 15.955284552845528,81.14837398373983 15.955284552845528,81.14837398373983 15.955284552845528,81.14837398373983 15.955284552845528,81.14837398373983 15.955284552845528,81.09756097560975 15.904471544715447,81.09756097560975 15.904471544715447,81.09756097560975 15.904471544715447,81.09756097560975 15.904471544715447,81.04674796747967 15.853658536585366,81.04674796747967 15.853658536585366,81.04674796747967 15.853658536585366,81.04674796747967 15.853658536585366,80.9959349593496 15.853658536585366,80.9959349593496 15.802845528455284,80.9959349593496 15.802845528455284,80.9959349593496 15.802845528455284,80.9451219512195 15.752032520325203,80.9451219512195 15.752032520325203,80.9451219512195 15.701219512195122,80.9451219512195 15.701219512195122,80.9451219512195 15.65040650406504,80.9959349593496 15.59959349593496,81.04674796747967 15.548780487804878,81.09756097560975 15.497967479674797,81.14837398373983 15.447154471544716,81.25 15.396341463414634,81.35162601626016 15.345528455284553,81.45325203252033 15.294715447154472,81.55487804878048 15.294715447154472,81.65650406504065 15.294715447154472,81.70731707317073 15.294715447154472,81.8089430894309 15.294715447154472,81.85975609756098 15.345528455284553,81.91056910569105 15.447154471544716,81.91056910569105 15.497967479674797,81.96138211382113 15.59959349593496,81.96138211382113 15.65040650406504,81.96138211382113 15.752032520325203,81.91056910569105 15.853658536585366,81.85975609756098 15.904471544715447,81.8089430894309 16.006097560975608,81.7581300813008 16.05691056910569,81.65650406504065 16.10772357723577,81.60569105691057" fill="none" stroke="black" stroke-width="0.6"></polyline><polyline points="16.10772357723577,81.60569105691057 16.15853658536585,81.5040650406504 16.209349593495933,81.40243902439025 16.260162601626014,81.30081300813008 16.260162601626014,81.25 16.3109756097561,81.09756097560975 16.3109756097561,80.9959349593496 16.36178861788618,80.89430894308943 16.36178861788618,80.79268292682927 16.36178861788618,80.6910569105691 16.36178861788618,80.58943089430895 16.36178861788618,80.48780487804878 16.36178861788618,80.38617886178862 16.36178861788618,80.28455284552845 16.36178861788618,80.1829268292683 16.3109756097561,80.03048780487805 16.3109756097561,79.92886178861788 16.260162601626014,79.82723577235772 16.260162601626014,79.72560975609755 16.260162601626014,79.67479674796748 16.209349593495933,79.6239837398374 16.209349593495933,79.6239837398374 16.209349593495933,79.6239837398374 16.209349593495933,79.6239837398374 16.209349593495933,79.6239837398374 16.209349593495933,79.6239837398374 16.209349593495933,79.72560975609755 16.15853658536585,79.82723577235772 16.15853658536585,80.03048780487805 16.15853658536585,80.23373983739837 16.15853658536585,80.48780487804878 16.15853658536585,80.74186991869918 16.10772357723577,81.04674796747967 16.10772357723577,81.30081300813008 16.10772357723577,81.55487804878048 16.15853658536585,81.8089430894309 16.209349593495933,81.91056910569105 16.260162601626014,82.0630081300813 16.36178861788618,82.11382113821138 16.463414634146343,82.16463414634146 16.615853658536587,82.16463414634146 16.71747967479675,82.21544715447155 16.76829268292683,82.21544715447155" fill="none" stroke="black" stroke-width="0.6"></polyline><polyline points="31.554878048780488,80.9959349593496 31.554878048780488,80.9959349593496 31.554878048780488,80.9959349593496 31.554878048780488,80.9959349593496 31.554878048780488,80.9959349593496 31.554878048780488,80.9451219512195 31.554878048780488,80.9451219512195 31.554878048780488,80.9451219512195 31.554878048780488,80.9451219512195 31.554878048780488,80.9451219512195 31.554878048780488,80.9451219512195 31.554878048780488,80.89430894308943 31.554878048780488,80.89430894308943 31.554878048780488,80.89430894308943 31.554878048780488,80.89430894308943 31.554878048780488,80.89430894308943 31.554878048780488,80.84349593495935 31.554878048780488,80.84349593495935 31.554878048780488,80.84349593495935 31.554878048780488,80.84349593495935 31.504065040650406,80.79268292682927 31.504065040650406,80.79268292682927 31.453252032520325,80.79268292682927 31.402439024390244,80.79268292682927 31.30081300813008,80.79268292682927 31.19918699186992,80.79268292682927 31.097560975609756,80.79268292682927 30.995934959349594,80.79268292682927 30.89430894308943,80.84349593495935 30.79268292682927,80.89430894308943 30.640243902439025,80.9959349593496 30.538617886178862,81.09756097560975 30.4369918699187,81.19918699186992 30.335365853658537,81.35162601626016 30.233739837398375,81.45325203252033 30.233739837398375,81.60569105691057 30.182926829268293,81.65650406504065 30.182926829268293,81.7581300813008 30.233739837398375,81.7581300813008 30.335365853658537,81.8089430894309 30.4369918699187,81.8089430894309 30.640243902439025,81.8089430894309 30.79268292682927,81.7581300813008 30.995934959349594,81.7581300813008 31.19918699186992,81.7581300813008 31.351626016260163,81.70731707317073 31.504065040650406,81.70731707317073 31.60569105691057,81.70731707317073 31.70731707317073,81.70731707317073 31.808943089430894,81.7581300813008 31.859756097560975,81.8089430894309" fill="none" stroke="black" stroke-width="0.6"></polyline><polyline points="31.859756097560975,81.8089430894309 31.859756097560975,81.85975609756098 31.910569105691057,81.91056910569105 31.961382113821138,81.91056910569105" fill="none" stroke="black" stroke-width="0.6"></polyline><polyline points="48.52642276422764,81.14837398373983 48.52642276422764,81.14837398373983 48.52642276422764,81.14837398373983 48.577235772357724,81.14837398373983 48.577235772357724,81.14837398373983 48.577235772357724,81.14837398373983 48.577235772357724,81.09756097560975 48.577235772357724,81.09756097560975 48.577235772357724,81.09756097560975 48.577235772357724,81.09756097560975 48.577235772357724,81.09756097560975 48.577235772357724,81.09756097560975 48.577235772357724,81.04674796747967 48.6280487804878,81.04674796747967 48.6280487804878,81.04674796747967 48.6280487804878,81.04674796747967 48.6280487804878,81.04674796747967 48.6280487804878,81.04674796747967 48.6280487804878,80.9959349593496 48.6280487804878,80.9959349593496 48.6280487804878,80.9959349593496 48.6280487804878,80.9959349593496 48.6280487804878,80.9959349593496 48.6280487804878,80.9959349593496 48.6280487804878,80.9959349593496 48.6280487804878,80.9959349593496 48.6280487804878,80.9959349593496 48.6280487804878,80.9959349593496 48.6280487804878,80.9959349593496 48.6280487804878,80.9959349593496 48.6280487804878,80.9451219512195 48.6280487804878,80.9451219512195 48.6280487804878,80.9451219512195 48.6280487804878,80.9451219512195 48.6280487804878,80.9451219512195 48.6280487804878,80.9451219512195 48.6280487804878,80.9451219512195 48.6280487804878,80.9451219512195 48.6280487804878,80.9451219512195 48.6280487804878,80.9451219512195 48.6280487804878,80.9451219512195 48.6280487804878,80.9451219512195 48.6280487804878,80.9451219512195 48.6280487804878,80.9451219512195 48.6280487804878,80.9451219512195 48.6280487804878,80.9451219512195 48.6280487804878,80.9451219512195 48.577235772357724,80.9451219512195 48.577235772357724,80.9451219512195 48.577235772357724,80.9451219512195 48.577235772357724,80.89430894308943" fill="none" stroke="black" stroke-width="0.6"></polyline><polyline points="48.577235772357724,80.89430894308943 48.577235772357724,80.89430894308943 48.52642276422764,80.89430894308943 48.52642276422764,80.89430894308943 48.52642276422764,80.89430894308943 48.47560975609756,80.89430894308943 48.47560975609756,80.89430894308943 48.47560975609756,80.89430894308943 48.42479674796748,80.89430894308943 48.42479674796748,80.89430894308943 48.42479674796748,80.89430894308943 48.42479674796748,80.89430894308943 48.3739837398374,80.89430894308943 48.3739837398374,80.89430894308943 48.3739837398374,80.89430894308943 48.3739837398374,80.89430894308943 48.3739837398374,80.89430894308943 48.3739837398374,80.89430894308943 48.3739837398374,80.89430894308943 48.3739837398374,80.89430894308943 48.3739837398374,80.89430894308943" fill="none" stroke="black" stroke-width="0.6"></polyline><polyline points="48.6280487804878,79.82723577235772 48.6280487804878,79.82723577235772 48.6280487804878,79.82723577235772 48.6280487804878,79.77642276422765 48.6280487804878,79.77642276422765 48.6280487804878,79.72560975609755 48.6280487804878,79.72560975609755 48.6280487804878,79.72560975609755 48.6280487804878,79.72560975609755 48.6280487804878,79.72560975609755 48.6280487804878,79.72560975609755 48.6280487804878,79.72560975609755 48.6280487804878,79.77642276422765 48.6280487804878,79.77642276422765 48.577235772357724,79.82723577235772 48.577235772357724,79.82723577235772 48.52642276422764,79.8780487804878 48.52642276422764,79.92886178861788 48.47560975609756,79.97967479674797 48.42479674796748,80.03048780487805 48.42479674796748,80.1321138211382 48.3739837398374,80.23373983739837 48.323170731707314,80.28455284552845 48.27235772357724,80.38617886178862 48.27235772357724,80.48780487804878 48.22154471544715,80.58943089430895 48.22154471544715,80.6910569105691 48.170731707317074,80.74186991869918 48.170731707317074,80.79268292682927 48.170731707317074,80.84349593495935 48.170731707317074,80.89430894308943 48.170731707317074,80.9451219512195 48.170731707317074,80.9959349593496 48.170731707317074,80.9959349593496 48.170731707317074,81.04674796747967 48.170731707317074,81.04674796747967 48.170731707317074,81.09756097560975 48.170731707317074,81.09756097560975 48.170731707317074,81.09756097560975 48.22154471544715,81.14837398373983 48.22154471544715,81.14837398373983 48.22154471544715,81.14837398373983 48.22154471544715,81.14837398373983 48.22154471544715,81.14837398373983 48.27235772357724,81.14837398373983 48.27235772357724,81.14837398373983 48.27235772357724,81.14837398373983 48.27235772357724,81.14837398373983 48.27235772357724,81.14837398373983 48.323170731707314,81.14837398373983 48.323170731707314,81.09756097560975" fill="none" stroke="black" stroke-width="0.6"></polyline><polyline points="48.323170731707314,81.09756097560975 48.3739837398374,81.04674796747967 48.42479674796748,81.04674796747967 48.47560975609756,80.9959349593496 48.52642276422764,80.9959349593496 48.577235772357724,80.9451219512195 48.6280487804878,80.9451219512195 48.67886178861789,80.9451219512195 48.729674796747965,80.89430894308943 48.83130081300813,80.89430894308943 48.88211382113821,80.89430894308943 48.93292682926829,80.89430894308943 48.983739837398375,80.89430894308943 49.03455284552845,80.89430894308943 49.03455284552845,80.89430894308943 49.08536585365854,80.89430894308943 49.08536585365854,80.89430894308943 49.08536585365854,80.89430894308943 49.136178861788615,80.89430894308943 49.136178861788615,80.9451219512195 49.136178861788615,80.9959349593496 49.136178861788615,80.9959349593496 49.08536585365854,81.04674796747967 49.03455284552845,81.09756097560975 48.983739837398375,81.14837398373983 48.93292682926829,81.19918699186992 48.88211382113821,81.30081300813008 48.78048780487805,81.35162601626016 48.729674796747965,81.40243902439025 48.67886178861789,81.45325203252033 48.577235772357724,81.55487804878048 48.577235772357724,81.60569105691057 48.52642276422764,81.60569105691057 48.47560975609756,81.65650406504065 48.42479674796748,81.65650406504065 48.3739837398374,81.70731707317073 48.27235772357724,81.70731707317073 48.22154471544715,81.70731707317073 48.11991869918699,81.70731707317073 48.06910569105691,81.70731707317073 47.96747967479675,81.70731707317073 47.916666666666664,81.70731707317073 47.86585365853659,81.65650406504065 47.8150406504065,81.65650406504065 47.8150406504065,81.60569105691057 47.8150406504065,81.60569105691057" fill="none" stroke="black" stroke-width="0.6"></polyline><polyline points="64.22764227642276,81.14837398373983 64.32926829268293,81.09756097560975 64.43089430894308,81.04674796747967 64.48170731707317,80.9959349593496 64.58333333333333,80.9959349593496 64.6849593495935,80.9451219512195 64.78658536585365,80.89430894308943 64.83739837398373,80.89430894308943 64.9390243902439,80.84349593495935 64.98983739837398,80.84349593495935 64.98983739837398,80.79268292682927 65.04065040650406,80.79268292682927 65.04065040650406,80.74186991869918 65.09146341463415,80.74186991869918 65.09146341463415,80.6910569105691 65.09146341463415,80.6910569105691 65.04065040650406,80.6910569105691 64.9390243902439,80.64024390243902 64.83739837398373,80.64024390243902 64.73577235772358,80.64024390243902 64.58333333333333,80.64024390243902 64.43089430894308,80.6910569105691 64.27845528455285,80.6910569105691 64.07520325203252,80.74186991869918 63.922764227642276,80.84349593495935 63.71951219512195,80.89430894308943 63.5670731707317,80.9959349593496 63.41463414634146,81.09756097560975 63.262195121951216,81.19918699186992 63.21138211382114,81.35162601626016 63.21138211382114,81.45325203252033 63.21138211382114,81.55487804878048 63.41463414634146,81.60569105691057 63.668699186991866,81.65650406504065 63.97357723577235,81.65650406504065 64.32926829268293,81.70731707317073 64.6341463414634,81.70731707317073 64.9390243902439,81.70731707317073 65.2439024390244,81.7581300813008 65.54878048780488,81.7581300813008 65.80284552845528,81.7581300813008 66.10772357723577,81.7581300813008" fill="none" stroke="black" stroke-width="0.6"></polyline></svg>