<svg height="100" width="100" preserveAspectRatio="xMidYMid meet"><polyline points="13.871951219512194,10.97560975609756 13.871951219512194,10.823170731707316 13.871951219512194,10.56910569105691 13.871951219512194,10.365853658536585 13.871951219512194,10.16260162601626 13.871951219512194,9.959349593495935 13.821138211382113,9.80691056910569 13.770325203252032,9.654471544715447 13.71951219512195,9.451219512195122 13.617886178861788,9.34959349593496 13.465447154471544,9.197154471544716 13.3130081300813,9.044715447154472 13.160569105691057,8.99390243902439 12.957317073170731,8.892276422764228 12.703252032520325,8.790650406504065 12.5,8.739837398373984 12.195121951219512,8.638211382113822 11.941056910569106,8.58739837398374 11.585365853658537,8.58739837398374 11.280487804878048,8.58739837398374 10.924796747967479,8.58739837398374 10.56910569105691,8.689024390243903 10.213414634146341,8.841463414634147 9.80691056910569,8.99390243902439 9.40040650406504,9.146341463414634 8.99390243902439,9.298780487804878 8.638211382113822,9.502032520325203 8.282520325203253,9.75609756097561 8.028455284552845,10.010162601626016 7.774390243902439,10.315040650406504 7.571138211382114,10.670731707317072 7.41869918699187,11.026422764227641 7.317073170731707,11.432926829268293 7.164634146341463,11.890243902439025 7.113821138211382,12.296747967479675 7.0630081300813,12.804878048780488 7.0630081300813,13.3130081300813 7.0630081300813,13.770325203252032 7.113821138211382,14.1260162601626 7.266260162601625,14.48170731707317 7.520325203252033,14.786585365853659 7.774390243902439,15.040650406504065 8.130081300813007,15.24390243902439 8.434959349593496,15.396341463414634 8.841463414634147,15.447154471544716 9.298780487804878,15.447154471544716 9.75609756097561,15.447154471544716 10.264227642276422,15.294715447154472 10.772357723577235,15.091463414634147 11.229674796747966,14.888211382113822 11.6869918699187,14.634146341463413" fill="none" stroke="black" stroke-width="0.6"></polyline><polyline points="11.6869918699187,14.634146341463413 12.144308943089431,14.329268292682926 12.550813008130081,14.07520325203252 12.957317073170731,13.770325203252032 13.363821138211382,13.465447154471544 13.617886178861788,13.160569105691057 13.821138211382113,12.804878048780488 13.973577235772357,12.5 13.973577235772357,12.144308943089431 13.973577235772357,11.839430894308943 13.871951219512194,11.585365853658537 13.71951219512195,11.382113821138212 13.516260162601625,11.229674796747966 13.262195121951219,11.077235772357723 13.008130081300813,11.026422764227641 12.652439024390244,10.97560975609756 12.5,10.97560975609756" fill="none" stroke="black" stroke-width="0.6"></polyline><polyline points="10.111788617886178,12.957317073170731 10.16260162601626,13.008130081300813 10.264227642276422,13.160569105691057 10.365853658536585,13.363821138211382 10.518292682926829,13.66869918699187 10.56910569105691,14.024390243902438 10.619918699186991,14.48170731707317 10.619918699186991,14.939024390243903 10.619918699186991,15.396341463414634 10.56910569105691,15.853658536585366 10.56910569105691,16.260162601626014 10.56910569105691,16.615853658536587 10.56910569105691,17.022357723577237 10.56910569105691,17.428861788617887 10.518292682926829,17.784552845528456 10.518292682926829,18.140243902439025 10.416666666666666,18.39430894308943 10.365853658536585,18.69918699186992 10.315040650406504,18.80081300813008" fill="none" stroke="black" stroke-width="0.6"></polyline><polyline points="15.701219512195122,13.363821138211382 15.701219512195122,13.262195121951219 15.701219512195122,13.211382113821138 15.701219512195122,13.211382113821138 15.701219512195122,13.211382113821138 15.701219512195122,13.211382113821138 15.701219512195122,13.211382113821138 15.65040650406504,13.3130081300813 15.65040650406504,13.414634146341463 15.65040650406504,13.516260162601625 15.59959349593496,13.66869918699187 15.59959349593496,13.871951219512194 15.59959349593496,14.024390243902438 15.59959349593496,14.278455284552845 15.65040650406504,14.48170731707317 15.701219512195122,14.684959349593496 15.752032520325203,14.939024390243903 15.802845528455284,15.091463414634147 15.904471544715447,15.294715447154472 16.006097560975608,15.447154471544716 16.15853658536585,15.548780487804878 16.3109756097561,15.59959349593496 16.514227642276424,15.65040650406504 16.666666666666668,15.701219512195122 16.869918699186993,15.701219512195122 17.022357723577237,15.701219512195122 17.17479674796748,15.65040650406504 17.327235772357724,15.59959349593496 17.479674796747968,15.497967479674797 17.632113821138212,15.447154471544716 17.733739837398375,15.345528455284553 17.835365853658537,15.24390243902439 17.9369918699187,15.142276422764228 18.038617886178862,15.040650406504065 18.089430894308943,14.888211382113822 18.089430894308943,14.786585365853659 18.140243902439025,14.684959349593496 18.140243902439025,14.583333333333332 18.140243902439025,14.48170731707317 18.089430894308943,14.329268292682926 18.038617886178862,14.227642276422763 17.98780487804878,14.176829268292682 17.9369918699187,14.07520325203252 17.88617886178862,14.024390243902438 17.835365853658537,13.973577235772357 17.784552845528456,13.922764227642276 17.733739837398375,13.871951219512194 17.733739837398375,13.871951219512194 17.682926829268293,13.821138211382113 17.632113821138212,13.821138211382113 17.632113821138212,13.821138211382113" fill="none" stroke="black" stroke-width="0.6"></polyline><polyline points="17.632113821138212,13.821138211382113 17.58130081300813,13.821138211382113 17.58130081300813,13.821138211382113 17.58130081300813,13.821138211382113 17.53048780487805,13.871951219512194 17.53048780487805,13.871951219512194 17.53048780487805,13.973577235772357 17.53048780487805,14.024390243902438 17.53048780487805,14.1260162601626 17.53048780487805,14.227642276422763 17.53048780487805,14.329268292682926 17.53048780487805,14.430894308943088 17.58130081300813,14.583333333333332 17.632113821138212,14.735772357723578 17.733739837398375,14.888211382113822 17.784552845528456,14.989837398373984 17.88617886178862,15.142276422764228 17.98780487804878,15.294715447154472 18.089430894308943,15.396341463414634 18.191056910569106,15.447154471544716 18.29268292682927,15.497967479674797 18.39430894308943,15.548780487804878 18.546747967479675,15.548780487804878 18.648373983739837,15.548780487804878 18.80081300813008,15.548780487804878 18.902439024390244,15.548780487804878 19.054878048780488,15.497967479674797 19.20731707317073,15.396341463414634 19.359756097560975,15.345528455284553 19.461382113821138,15.294715447154472 19.5630081300813,15.19308943089431 19.664634146341463,15.142276422764228 19.766260162601625,15.091463414634147 19.817073170731707,14.989837398373984 19.867886178861788,14.888211382113822 19.91869918699187,14.83739837398374 19.91869918699187,14.735772357723578 19.96951219512195,14.634146341463413 20.020325203252032,14.53252032520325 20.020325203252032,14.48170731707317 20.020325203252032,14.380081300813007 20.071138211382113,14.329268292682926 20.071138211382113,14.278455284552845 20.071138211382113,14.278455284552845 20.071138211382113,14.278455284552845 20.071138211382113,14.278455284552845 20.071138211382113,14.278455284552845 20.071138211382113,14.278455284552845 20.071138211382113,14.278455284552845 20.020325203252032,14.329268292682926 20.020325203252032,14.380081300813007" fill="none" stroke="black" stroke-width="0.6"></polyline><polyline points="20.020325203252032,14.380081300813007 20.020325203252032,14.430894308943088 20.020325203252032,14.48170731707317 20.020325203252032,14.53252032520325 20.020325203252032,14.634146341463413 20.020325203252032,14.634146341463413 20.020325203252032,14.684959349593496 20.020325203252032,14.735772357723578 20.071138211382113,14.786585365853659 20.172764227642276,14.786585365853659 20.223577235772357,14.786585365853659 20.32520325203252,14.786585365853659 20.477642276422763,14.786585365853659 20.579268292682926,14.786585365853659 20.73170731707317,14.786585365853659 20.884146341463413,14.83739837398374 21.036585365853657,14.83739837398374 21.13821138211382,14.83739837398374 21.239837398373982,14.83739837398374 21.392276422764226,14.83739837398374 21.54471544715447,14.786585365853659 21.646341463414632,14.735772357723578 21.798780487804876,14.684959349593496 21.95121951219512,14.583333333333332 22.103658536585364,14.53252032520325 22.30691056910569,14.48170731707317 22.459349593495933,14.430894308943088 22.611788617886177,14.380081300813007 22.764227642276424,14.329268292682926 22.916666666666668,14.329268292682926 22.96747967479675,14.329268292682926 23.06910569105691,14.329268292682926 23.119918699186993,14.329268292682926 23.119918699186993,14.380081300813007 23.119918699186993,14.380081300813007 23.119918699186993,14.380081300813007 23.119918699186993,14.380081300813007 23.119918699186993,14.430894308943088 23.06910569105691,14.430894308943088 23.01829268292683,14.430894308943088 22.96747967479675,14.430894308943088 22.916666666666668,14.430894308943088 22.865853658536587,14.48170731707317 22.764227642276424,14.48170731707317 22.71341463414634,14.53252032520325 22.662601626016258,14.583333333333332 22.611788617886177,14.634146341463413 22.560975609756095,14.735772357723578 22.560975609756095,14.786585365853659 22.560975609756095,14.888211382113822 22.560975609756095,14.989837398373984" fill="none" stroke="black" stroke-width="0.6"></polyline><polyline points="22.560975609756095,14.989837398373984 22.560975609756095,15.091463414634147 22.560975609756095,15.19308943089431 22.662601626016258,15.294715447154472 22.71341463414634,15.396341463414634 22.815040650406505,15.447154471544716 22.96747967479675,15.548780487804878 23.119918699186993,15.548780487804878 23.323170731707318,15.548780487804878 23.526422764227643,15.548780487804878 23.729674796747968,15.447154471544716 23.983739837398375,15.345528455284553 24.1869918699187,15.24390243902439 24.390243902439025,15.142276422764228 24.59349593495935,14.989837398373984 24.796747967479675,14.888211382113822 25,14.735772357723578 25.203252032520325,14.583333333333332 25.35569105691057,14.430894308943088 25.508130081300813,14.278455284552845 25.660569105691057,14.176829268292682 25.76219512195122,14.024390243902438 25.86382113821138,13.821138211382113 25.965447154471544,13.71951219512195 26.067073170731707,13.567073170731707 26.117886178861788,13.414634146341463 26.16869918699187,13.262195121951219 26.21951219512195,13.109756097560975 26.21951219512195,12.957317073170731 26.21951219512195,12.804878048780488 26.21951219512195,12.652439024390244 26.21951219512195,12.5 26.16869918699187,12.347560975609756 26.16869918699187,12.245934959349594 26.117886178861788,12.144308943089431 26.067073170731707,12.09349593495935 26.016260162601625,12.042682926829269 26.016260162601625,12.042682926829269 25.965447154471544,12.042682926829269 25.914634146341463,12.042682926829269 25.86382113821138,12.042682926829269 25.8130081300813,12.042682926829269 25.8130081300813,12.144308943089431 25.76219512195122,12.195121951219512 25.711382113821138,12.296747967479675 25.660569105691057,12.398373983739837 25.609756097560975,12.550813008130081 25.609756097560975,12.703252032520325 25.558943089430894,12.804878048780488 25.508130081300813,13.008130081300813 25.508130081300813,13.160569105691057" fill="none" stroke="black" stroke-width="0.6"></polyline><polyline points="25.508130081300813,13.160569105691057 25.45731707317073,13.3130081300813 25.40650406504065,13.516260162601625 25.40650406504065,13.71951219512195 25.35569105691057,13.922764227642276 25.35569105691057,14.1260162601626 25.35569105691057,14.278455284552845 25.35569105691057,14.430894308943088 25.40650406504065,14.634146341463413 25.45731707317073,14.735772357723578 25.45731707317073,14.83739837398374 25.508130081300813,14.939024390243903 25.558943089430894,14.989837398373984 25.558943089430894,14.989837398373984 25.609756097560975,15.040650406504065 25.609756097560975,15.040650406504065 25.609756097560975,15.040650406504065 25.609756097560975,14.989837398373984 25.660569105691057,14.939024390243903 25.711382113821138,14.83739837398374 25.711382113821138,14.786585365853659 25.76219512195122,14.684959349593496 25.8130081300813,14.583333333333332 25.8130081300813,14.48170731707317 25.8130081300813,14.380081300813007 25.86382113821138,14.329268292682926 25.86382113821138,14.227642276422763 25.914634146341463,14.176829268292682 25.914634146341463,14.1260162601626 25.914634146341463,14.07520325203252 25.965447154471544,13.973577235772357 25.965447154471544,13.922764227642276 25.965447154471544,13.922764227642276 26.016260162601625,13.871951219512194 26.016260162601625,13.821138211382113 26.016260162601625,13.770325203252032 26.016260162601625,13.770325203252032 26.067073170731707,13.71951219512195 26.067073170731707,13.71951219512195 26.067073170731707,13.71951219512195 26.067073170731707,13.71951219512195 26.067073170731707,13.71951219512195 26.016260162601625,13.71951219512195 25.965447154471544,13.821138211382113 25.914634146341463,13.871951219512194 25.8130081300813,13.973577235772357 25.711382113821138,14.07520325203252 25.660569105691057,14.176829268292682 25.609756097560975,14.329268292682926 25.609756097560975,14.430894308943088 25.609756097560975,14.53252032520325" fill="none" stroke="black" stroke-width="0.6"></polyline><polyline points="25.609756097560975,14.53252032520325 25.609756097560975,14.684959349593496 25.660569105691057,14.786585365853659 25.76219512195122,14.888211382113822 25.86382113821138,14.989837398373984 26.016260162601625,15.040650406504065 26.117886178861788,15.091463414634147 26.270325203252032,15.142276422764228 26.371951219512194,15.19308943089431 26.524390243902438,15.19308943089431 26.6260162601626,15.19308943089431 26.778455284552845,15.19308943089431 26.880081300813007,15.19308943089431 26.98170731707317,15.142276422764228 27.134146341463413,15.091463414634147 27.286585365853657,15.040650406504065 27.38821138211382,14.989837398373984 27.540650406504064,14.888211382113822 27.591463414634145,14.888211382113822" fill="none" stroke="black" stroke-width="0.6"></polyline><polyline points="23.221544715447155,12.652439024390244 23.221544715447155,12.652439024390244 23.170731707317074,12.601626016260163 23.119918699186993,12.550813008130081 23.119918699186993,12.5 23.170731707317074,12.5 23.272357723577237,12.550813008130081 23.475609756097562,12.652439024390244 23.678861788617887,12.754065040650406" fill="none" stroke="black" stroke-width="0.6"></polyline><polyline points="31.046747967479675,16.41260162601626 31.097560975609756,16.36178861788618 31.19918699186992,16.3109756097561 31.30081300813008,16.209349593495933 31.402439024390244,16.15853658536585 31.504065040650406,16.10772357723577 31.70731707317073,16.006097560975608 31.859756097560975,15.904471544715447 32.0630081300813,15.752032520325203 32.3170731707317,15.497967479674797 32.6219512195122,15.24390243902439 32.8760162601626,14.939024390243903 33.18089430894309,14.583333333333332 33.485772357723576,14.278455284552845 33.790650406504064,13.973577235772357 34.04471544715447,13.66869918699187 34.2479674796748,13.414634146341463 34.40040650406504,13.109756097560975 34.552845528455286,12.804878048780488 34.603658536585364,12.550813008130081 34.65447154471545,12.347560975609756 34.65447154471545,12.09349593495935 34.65447154471545,11.991869918699187 34.65447154471545,11.839430894308943 34.603658536585364,11.737804878048781 34.451219512195124,11.6869918699187 34.34959349593496,11.6869918699187 34.146341463414636,11.6869918699187 33.99390243902439,11.6869918699187 33.84146341463415,11.788617886178862 33.6890243902439,11.890243902439025 33.53658536585366,12.042682926829269 33.38414634146341,12.245934959349594 33.23170731707317,12.449186991869919 33.079268292682926,12.652439024390244 32.97764227642276,12.90650406504065 32.8760162601626,13.160569105691057 32.82520325203252,13.414634146341463 32.77439024390244,13.66869918699187 32.77439024390244,13.973577235772357 32.82520325203252,14.278455284552845 32.926829268292686,14.634146341463413 33.02845528455285,15.040650406504065 33.13008130081301,15.447154471544716 33.18089430894309,15.853658536585366 33.23170731707317,16.209349593495933 33.28252032520325,16.615853658536587 33.28252032520325,17.073170731707318 33.28252032520325,17.428861788617887 33.23170731707317,17.835365853658537 33.13008130081301,18.191056910569106" fill="none" stroke="black" stroke-width="0.6"></polyline><polyline points="33.13008130081301,18.191056910569106 33.02845528455285,18.495934959349594 32.926829268292686,18.80081300813008 32.82520325203252,19.10569105691057 32.72357723577236,19.359756097560975 32.6219512195122,19.61382113821138 32.52032520325203,19.867886178861788 32.418699186991866,20.071138211382113 32.266260162601625,20.223577235772357 32.16463414634146,20.32520325203252 32.0630081300813,20.3760162601626 31.910569105691057,20.3760162601626 31.808943089430894,20.3760162601626 31.70731707317073,20.3760162601626 31.60569105691057,20.32520325203252 31.554878048780488,20.172764227642276 31.453252032520325,20.071138211382113 31.453252032520325,19.867886178861788 31.402439024390244,19.664634146341463 31.402439024390244,19.51219512195122 31.402439024390244,19.308943089430894 31.402439024390244,19.054878048780488 31.402439024390244,18.851626016260163 31.453252032520325,18.648373983739837 31.504065040650406,18.39430894308943 31.60569105691057,18.191056910569106 31.758130081300813,18.038617886178862 31.859756097560975,17.835365853658537 32.012195121951216,17.682926829268293 32.16463414634146,17.479674796747968 32.36788617886179,17.327235772357724 32.52032520325203,17.17479674796748 32.72357723577236,17.022357723577237 32.97764227642276,16.869918699186993 33.18089430894309,16.666666666666668 33.38414634146341,16.514227642276424 33.63821138211382,16.36178861788618 33.84146341463415,16.209349593495933 34.04471544715447,16.10772357723577 34.2479674796748,16.006097560975608 34.451219512195124,15.853658536585366 34.65447154471545,15.752032520325203 34.857723577235774,15.65040650406504 35.010162601626014,15.497967479674797 35.16260162601626,15.396341463414634 35.3150406504065,15.294715447154472 35.416666666666664,15.19308943089431 35.51829268292683,15.142276422764228 35.56910569105691,15.091463414634147 35.61991869918699,15.040650406504065 35.670731707317074,14.989837398373984" fill="none" stroke="black" stroke-width="0.6"></polyline><polyline points="35.670731707317074,14.989837398373984 35.670731707317074,14.939024390243903 35.670731707317074,14.939024390243903 35.670731707317074,14.888211382113822 35.61991869918699,14.888211382113822 35.56910569105691,14.888211382113822 35.46747967479675,14.888211382113822 35.416666666666664,14.888211382113822 35.36585365853659,14.888211382113822 35.3150406504065,14.888211382113822 35.21341463414634,14.939024390243903 35.16260162601626,14.989837398373984 35.11178861788618,15.040650406504065 35.0609756097561,15.091463414634147 35.010162601626014,15.19308943089431 34.90853658536585,15.294715447154472 34.857723577235774,15.396341463414634 34.80691056910569,15.497967479674797 34.75609756097561,15.65040650406504 34.75609756097561,15.752032520325203 34.70528455284553,15.853658536585366 34.70528455284553,15.955284552845528 34.70528455284553,16.05691056910569 34.70528455284553,16.10772357723577 34.75609756097561,16.10772357723577 34.75609756097561,16.15853658536585 34.80691056910569,16.15853658536585 34.90853658536585,16.15853658536585 34.959349593495936,16.15853658536585 35.0609756097561,16.15853658536585 35.16260162601626,16.15853658536585 35.3150406504065,16.10772357723577 35.416666666666664,16.10772357723577 35.56910569105691,16.05691056910569 35.72154471544715,16.006097560975608 35.8739837398374,15.904471544715447 36.02642276422764,15.853658536585366 36.1280487804878,15.752032520325203 36.28048780487805,15.65040650406504 36.43292682926829,15.497967479674797 36.58536585365854,15.345528455284553 36.6869918699187,15.19308943089431 36.83943089430894,15.040650406504065 36.99186991869919,14.888211382113822 37.14430894308943,14.786585365853659 37.296747967479675,14.634146341463413 37.449186991869915,14.583333333333332 37.60162601626016,14.48170731707317 37.7540650406504,14.430894308943088 37.855691056910565,14.430894308943088 37.95731707317073,14.430894308943088" fill="none" stroke="black" stroke-width="0.6"></polyline><polyline points="37.95731707317073,14.430894308943088 38.05894308943089,14.430894308943088 38.05894308943089,14.430894308943088 38.109756097560975,14.430894308943088 38.109756097560975,14.48170731707317 38.16056910569105,14.53252032520325 38.21138211382114,14.583333333333332 38.262195121951216,14.684959349593496 38.3130081300813,14.735772357723578 38.36382113821138,14.83739837398374 38.41463414634146,14.939024390243903 38.516260162601625,15.040650406504065 38.61788617886179,15.142276422764228 38.668699186991866,15.24390243902439 38.77032520325203,15.294715447154472 38.87195121951219,15.345528455284553 39.02439024390244,15.396341463414634 39.176829268292686,15.396341463414634 39.38008130081301,15.396341463414634 39.53252032520325,15.396341463414634 39.735772357723576,15.294715447154472 39.9390243902439,15.24390243902439 40.09146341463415,15.142276422764228 40.24390243902439,15.091463414634147 40.34552845528455,14.989837398373984 40.447154471544714,14.939024390243903 40.4979674796748,14.888211382113822 40.548780487804876,14.786585365853659" fill="none" stroke="black" stroke-width="0.6"></polyline><polyline points="39.329268292682926,13.821138211382113 39.176829268292686,13.770325203252032 39.02439024390244,13.71951219512195 38.87195121951219,13.71951219512195 38.71951219512195,13.71951219512195 38.61788617886179,13.71951219512195 38.46544715447154,13.821138211382113 38.3130081300813,13.973577235772357 38.109756097560975,14.176829268292682 37.95731707317073,14.430894308943088 37.703252032520325,14.786585365853659 37.55081300813008,15.142276422764228 37.39837398373984,15.497967479674797 37.19512195121951,15.853658536585366 37.09349593495935,16.10772357723577 36.99186991869919,16.3109756097561 36.83943089430894,16.514227642276424 36.73780487804878,16.666666666666668 36.636178861788615,16.81910569105691 36.58536585365854,16.920731707317074 36.58536585365854,17.073170731707318 36.58536585365854,17.1239837398374" fill="none" stroke="black" stroke-width="0.6"></polyline><polyline points="43.59756097560975,16.41260162601626 43.699186991869915,16.36178861788618 43.80081300813008,16.260162601626014 43.953252032520325,16.209349593495933 44.15650406504065,16.10772357723577 44.359756097560975,16.05691056910569 44.61382113821138,15.955284552845528 44.86788617886179,15.853658536585366 45.172764227642276,15.752032520325203 45.42682926829268,15.65040650406504 45.68089430894309,15.548780487804878 45.9349593495935,15.396341463414634 46.13821138211382,15.294715447154472 46.34146341463415,15.142276422764228 46.49390243902439,15.040650406504065 46.646341463414636,14.888211382113822 46.697154471544714,14.735772357723578 46.798780487804876,14.583333333333332 46.798780487804876,14.430894308943088 46.798780487804876,14.278455284552845 46.84959349593496,14.176829268292682 46.84959349593496,14.07520325203252 46.84959349593496,14.024390243902438 46.84959349593496,13.973577235772357 46.84959349593496,13.922764227642276 46.798780487804876,13.922764227642276 46.798780487804876,13.922764227642276 46.7479674796748,13.922764227642276 46.697154471544714,13.922764227642276 46.646341463414636,13.922764227642276 46.59552845528455,14.024390243902438 46.49390243902439,14.07520325203252 46.392276422764226,14.176829268292682 46.34146341463415,14.329268292682926 46.239837398373986,14.430894308943088 46.1890243902439,14.53252032520325 46.13821138211382,14.684959349593496 46.08739837398374,14.83739837398374 46.03658536585366,15.040650406504065 45.985772357723576,15.24390243902439 45.9349593495935,15.447154471544716 45.88414634146341,15.701219512195122 45.833333333333336,15.955284552845528 45.78252032520325,16.209349593495933 45.73170731707317,16.514227642276424 45.68089430894309,16.76829268292683 45.63008130081301,17.073170731707318 45.579268292682926,17.378048780487806 45.52845528455285,17.632113821138212 45.42682926829268,17.9369918699187 45.3760162601626,18.140243902439025" fill="none" stroke="black" stroke-width="0.6"></polyline><polyline points="45.3760162601626,18.140243902439025 45.27439024390244,18.29268292682927 45.12195121951219,18.495934959349594 45.02032520325203,18.648373983739837 44.86788617886179,18.80081300813008 44.66463414634146,18.953252032520325 44.512195121951216,19.054878048780488 44.30894308943089,19.15650406504065 44.15650406504065,19.20731707317073 44.05487804878049,19.20731707317073 44.0040650406504,19.20731707317073 43.953252032520325,19.15650406504065 43.90243902439024,19.054878048780488 43.90243902439024,18.953252032520325 43.90243902439024,18.851626016260163 43.953252032520325,18.69918699186992 44.0040650406504,18.597560975609756 44.105691056910565,18.445121951219512 44.20731707317073,18.34349593495935 44.25813008130081,18.241869918699187 44.359756097560975,18.089430894308943 44.41056910569105,17.9369918699187 44.512195121951216,17.784552845528456 44.61382113821138,17.632113821138212 44.766260162601625,17.479674796747968 44.918699186991866,17.327235772357724 45.07113821138211,17.1239837398374 45.27439024390244,16.971544715447155 45.47764227642276,16.76829268292683 45.63008130081301,16.565040650406505 45.833333333333336,16.41260162601626 45.985772357723576,16.260162601626014 46.13821138211382,16.10772357723577 46.290650406504064,16.006097560975608 46.392276422764226,15.853658536585366 46.54471544715447,15.752032520325203 46.646341463414636,15.65040650406504 46.7479674796748,15.548780487804878 46.84959349593496,15.447154471544716 46.951219512195124,15.345528455284553 47.0020325203252,15.294715447154472 47.052845528455286,15.24390243902439 47.103658536585364,15.19308943089431 47.103658536585364,15.142276422764228 47.15447154471545,15.091463414634147 47.15447154471545,15.040650406504065 47.15447154471545,14.989837398373984 47.15447154471545,14.939024390243903 47.20528455284553,14.888211382113822 47.20528455284553,14.888211382113822 47.20528455284553,14.83739837398374" fill="none" stroke="black" stroke-width="0.6"></polyline><polyline points="47.20528455284553,14.83739837398374 47.20528455284553,14.786585365853659 47.20528455284553,14.786585365853659 47.20528455284553,14.786585365853659 47.20528455284553,14.786585365853659 47.20528455284553,14.786585365853659 47.20528455284553,14.786585365853659 47.20528455284553,14.83739837398374 47.20528455284553,14.939024390243903 47.20528455284553,14.989837398373984 47.20528455284553,15.091463414634147 47.20528455284553,15.19308943089431 47.20528455284553,15.24390243902439 47.20528455284553,15.345528455284553 47.25609756097561,15.447154471544716 47.25609756097561,15.497967479674797 47.357723577235774,15.548780487804878 47.40853658536585,15.65040650406504 47.459349593495936,15.65040650406504 47.5609756097561,15.701219512195122 47.66260162601626,15.701219512195122 47.764227642276424,15.701219512195122 47.8150406504065,15.701219512195122 47.916666666666664,15.701219512195122 48.01829268292683,15.701219512195122 48.06910569105691,15.65040650406504 48.11991869918699,15.65040650406504 48.170731707317074,15.59959349593496 48.22154471544715,15.59959349593496 48.27235772357724,15.548780487804878 48.323170731707314,15.497967479674797 48.323170731707314,15.497967479674797 48.3739837398374,15.447154471544716 48.42479674796748,15.396341463414634 48.42479674796748,15.345528455284553 48.47560975609756,15.294715447154472 48.47560975609756,15.294715447154472 48.47560975609756,15.24390243902439 48.47560975609756,15.24390243902439 48.47560975609756,15.19308943089431 48.47560975609756,15.19308943089431 48.47560975609756,15.142276422764228 48.47560975609756,15.142276422764228 48.47560975609756,15.142276422764228 48.47560975609756,15.142276422764228 48.42479674796748,15.142276422764228 48.42479674796748,15.142276422764228 48.42479674796748,15.19308943089431 48.3739837398374,15.24390243902439 48.3739837398374,15.294715447154472 48.3739837398374,15.345528455284553" fill="none" stroke="black" stroke-width="0.6"></polyline><polyline points="48.3739837398374,15.345528455284553 48.3739837398374,15.396341463414634 48.42479674796748,15.447154471544716 48.42479674796748,15.497967479674797 48.52642276422764,15.497967479674797 48.577235772357724,15.548780487804878 48.67886178861789,15.548780487804878 48.78048780487805,15.548780487804878 48.88211382113821,15.548780487804878 49.03455284552845,15.548780487804878 49.1869918699187,15.548780487804878 49.33943089430894,15.497967479674797 49.4410569105691,15.447154471544716 49.59349593495935,15.345528455284553 49.74593495934959,15.294715447154472 49.89837398373984,15.24390243902439 50,15.19308943089431 50.10162601626016,15.142276422764228 50.203252032520325,15.091463414634147 50.30487804878049,15.040650406504065 50.355691056910565,15.040650406504065 50.45731707317073,14.989837398373984 50.50813008130081,14.989837398373984 50.55894308943089,14.989837398373984 50.55894308943089,14.989837398373984 50.609756097560975,14.989837398373984 50.66056910569105,14.989837398373984 50.66056910569105,15.040650406504065 50.66056910569105,15.040650406504065 50.71138211382114,15.091463414634147 50.71138211382114,15.091463414634147 50.71138211382114,15.142276422764228 50.71138211382114,15.19308943089431 50.71138211382114,15.24390243902439 50.71138211382114,15.294715447154472 50.71138211382114,15.345528455284553 50.71138211382114,15.345528455284553 50.71138211382114,15.396341463414634 50.71138211382114,15.447154471544716 50.71138211382114,15.497967479674797 50.71138211382114,15.497967479674797 50.71138211382114,15.548780487804878 50.71138211382114,15.548780487804878 50.71138211382114,15.548780487804878 50.71138211382114,15.548780487804878 50.71138211382114,15.548780487804878 50.71138211382114,15.548780487804878 50.71138211382114,15.497967479674797 50.762195121951216,15.447154471544716 50.8130081300813,15.396341463414634 50.86382113821138,15.345528455284553" fill="none" stroke="black" stroke-width="0.6"></polyline><polyline points="50.86382113821138,15.345528455284553 50.96544715447154,15.294715447154472 51.0670731707317,15.19308943089431 51.168699186991866,15.142276422764228 51.27032520325203,15.040650406504065 51.422764227642276,14.989837398373984 51.52439024390244,14.939024390243903 51.6260162601626,14.888211382113822 51.67682926829268,14.83739837398374 51.72764227642276,14.83739837398374 51.72764227642276,14.83739837398374 51.72764227642276,14.83739837398374 51.72764227642276,14.83739837398374 51.72764227642276,14.888211382113822 51.72764227642276,14.939024390243903 51.72764227642276,14.939024390243903 51.72764227642276,14.989837398373984 51.72764227642276,14.989837398373984 51.77845528455284,15.040650406504065 51.77845528455284,15.040650406504065 51.77845528455284,15.040650406504065 51.77845528455284,15.091463414634147 51.77845528455284,15.091463414634147 51.77845528455284,15.091463414634147 51.77845528455284,15.091463414634147 51.77845528455284,15.091463414634147 51.77845528455284,15.091463414634147 51.77845528455284,15.142276422764228 51.829268292682926,15.142276422764228 51.880081300813,15.142276422764228 51.880081300813,15.142276422764228 51.93089430894309,15.142276422764228 51.981707317073166,15.19308943089431 52.03252032520325,15.19308943089431 52.083333333333336,15.19308943089431 52.13414634146341,15.19308943089431 52.1849593495935,15.24390243902439 52.28658536585366,15.24390243902439 52.38821138211382,15.24390243902439 52.4390243902439,15.24390243902439 52.540650406504064,15.24390243902439 52.69308943089431,15.24390243902439 52.79471544715447,15.24390243902439 52.896341463414636,15.19308943089431 53.048780487804876,15.19308943089431 53.15040650406504,15.142276422764228 53.2520325203252,15.142276422764228 53.40447154471545,15.091463414634147 53.50609756097561,15.040650406504065 53.65853658536585,14.989837398373984 53.8109756097561,14.939024390243903" fill="none" stroke="black" stroke-width="0.6"></polyline><polyline points="53.8109756097561,14.939024390243903 53.91260162601626,14.888211382113822 54.0650406504065,14.888211382113822 54.166666666666664,14.888211382113822 54.26829268292683,14.888211382113822 54.36991869918699,14.888211382113822 54.52235772357724,14.888211382113822 54.6239837398374,14.888211382113822 54.72560975609756,14.939024390243903 54.827235772357724,14.989837398373984 54.979674796747965,15.091463414634147 55.08130081300813,15.19308943089431 55.18292682926829,15.345528455284553 55.28455284552845,15.447154471544716 55.386178861788615,15.65040650406504 55.4369918699187,15.802845528455284 55.48780487804878,16.006097560975608 55.53861788617886,16.209349593495933 55.53861788617886,16.41260162601626 55.53861788617886,16.615853658536587 55.53861788617886,16.81910569105691 55.53861788617886,17.022357723577237 55.48780487804878,17.225609756097562 55.48780487804878,17.378048780487806 55.48780487804878,17.58130081300813 55.4369918699187,17.682926829268293 55.4369918699187,17.784552845528456 55.386178861788615,17.835365853658537 55.386178861788615,17.835365853658537 55.386178861788615,17.835365853658537 55.33536585365854,17.88617886178862 55.33536585365854,17.88617886178862 55.33536585365854,17.835365853658537 55.28455284552845,17.784552845528456 55.28455284552845,17.733739837398375 55.28455284552845,17.632113821138212 55.28455284552845,17.53048780487805 55.28455284552845,17.428861788617887 55.28455284552845,17.276422764227643 55.28455284552845,17.1239837398374 55.33536585365854,16.920731707317074 55.33536585365854,16.76829268292683 55.386178861788615,16.514227642276424 55.4369918699187,16.3109756097561 55.48780487804878,16.05691056910569 55.53861788617886,15.802845528455284 55.58943089430894,15.59959349593496 55.640243902439025,15.447154471544716 55.6910569105691,15.294715447154472 55.792682926829265,15.19308943089431 55.84349593495935,15.142276422764228" fill="none" stroke="black" stroke-width="0.6"></polyline><polyline points="55.84349593495935,15.142276422764228 55.89430894308943,15.091463414634147 55.94512195121951,15.091463414634147 55.94512195121951,15.040650406504065 55.99593495934959,15.040650406504065 55.99593495934959,15.040650406504065 56.046747967479675,15.040650406504065 56.046747967479675,15.040650406504065 56.09756097560975,15.040650406504065 56.09756097560975,15.040650406504065 56.09756097560975,15.040650406504065 56.09756097560975,15.040650406504065 56.09756097560975,15.091463414634147 56.09756097560975,15.091463414634147 56.09756097560975,15.091463414634147 56.09756097560975,15.091463414634147 56.09756097560975,15.142276422764228 56.09756097560975,15.142276422764228 56.09756097560975,15.19308943089431 56.09756097560975,15.19308943089431 56.09756097560975,15.24390243902439 56.09756097560975,15.294715447154472 56.14837398373984,15.294715447154472 56.14837398373984,15.345528455284553 56.14837398373984,15.396341463414634 56.199186991869915,15.447154471544716 56.25,15.497967479674797 56.25,15.497967479674797 56.35162601626016,15.548780487804878 56.40243902439024,15.548780487804878 56.55487804878049,15.59959349593496 56.65650406504065,15.59959349593496 56.859756097560975,15.59959349593496 57.012195121951216,15.548780487804878 57.21544715447154,15.497967479674797 57.36788617886179,15.447154471544716 57.57113821138211,15.396341463414634 57.77439024390244,15.294715447154472 57.92682926829268,15.24390243902439 58.079268292682926,15.142276422764228 58.231707317073166,15.040650406504065 58.38414634146341,14.939024390243903 58.536585365853654,14.888211382113822 58.6890243902439,14.786585365853659 58.84146341463415,14.735772357723578 58.99390243902439,14.684959349593496 59.09552845528455,14.634146341463413 59.197154471544714,14.634146341463413 59.2479674796748,14.634146341463413 59.298780487804876,14.634146341463413 59.40040650406504,14.634146341463413" fill="none" stroke="black" stroke-width="0.6"></polyline><polyline points="59.40040650406504,14.634146341463413 59.40040650406504,14.634146341463413 59.451219512195124,14.684959349593496 59.451219512195124,14.735772357723578 59.5020325203252,14.786585365853659 59.5020325203252,14.786585365853659 59.5020325203252,14.83739837398374 59.5020325203252,14.888211382113822 59.451219512195124,14.939024390243903 59.40040650406504,14.989837398373984 59.34959349593496,15.040650406504065 59.298780487804876,15.091463414634147 59.197154471544714,15.091463414634147 59.09552845528455,15.142276422764228 58.99390243902439,15.142276422764228 58.892276422764226,15.19308943089431 58.84146341463415,15.19308943089431 58.790650406504064,15.24390243902439 58.739837398373986,15.24390243902439 58.6890243902439,15.294715447154472 58.6890243902439,15.345528455284553 58.6890243902439,15.396341463414634 58.739837398373986,15.447154471544716 58.84146341463415,15.497967479674797 58.94308943089431,15.548780487804878 59.146341463414636,15.59959349593496 59.34959349593496,15.65040650406504 59.552845528455286,15.65040650406504 59.80691056910569,15.65040650406504 60.010162601626014,15.65040650406504 60.264227642276424,15.59959349593496 60.46747967479675,15.548780487804878 60.61991869918699,15.447154471544716 60.823170731707314,15.396341463414634 60.97560975609756,15.294715447154472 61.1280487804878,15.24390243902439 61.28048780487805,15.142276422764228 61.33130081300813,15.091463414634147 61.38211382113821,15.091463414634147 61.43292682926829,15.040650406504065 61.43292682926829,14.989837398373984" fill="none" stroke="black" stroke-width="0.6"></polyline><polyline points="50.86382113821138,12.601626016260163 50.762195121951216,12.449186991869919 50.71138211382114,12.245934959349594 50.66056910569105,12.144308943089431 50.66056910569105,12.144308943089431 50.762195121951216,12.195121951219512 50.91463414634146,12.245934959349594 51.11788617886179,12.347560975609756" fill="none" stroke="black" stroke-width="0.6"></polyline><polyline points="65.70121951219512,16.3109756097561 65.7520325203252,16.260162601626014 65.90447154471545,16.10772357723577 65.95528455284553,16.05691056910569 66.0569105691057,16.006097560975608 66.15853658536585,15.955284552845528 66.26016260162602,15.904471544715447 66.3109756097561,15.904471544715447 66.46341463414635,15.853658536585366 66.5650406504065,15.802845528455284 66.71747967479675,15.752032520325203 66.76829268292683,15.701219512195122 66.869918699187,15.59959349593496 67.02235772357723,15.497967479674797 67.17479674796748,15.396341463414634 67.32723577235772,15.24390243902439 67.47967479674797,15.142276422764228 67.6829268292683,14.989837398373984 67.83536585365853,14.888211382113822 68.03861788617886,14.735772357723578 68.24186991869918,14.583333333333332 68.4451219512195,14.430894308943088 68.59756097560975,14.329268292682926 68.75,14.278455284552845 68.90243902439025,14.227642276422763 69.0040650406504,14.227642276422763 69.10569105691057,14.227642276422763 69.20731707317073,14.227642276422763 69.2581300813008,14.227642276422763 69.3089430894309,14.278455284552845 69.3089430894309,14.329268292682926 69.35975609756098,14.380081300813007 69.35975609756098,14.48170731707317 69.41056910569105,14.583333333333332 69.41056910569105,14.735772357723578 69.41056910569105,14.888211382113822 69.41056910569105,15.040650406504065 69.35975609756098,15.19308943089431 69.3089430894309,15.345528455284553 69.3089430894309,15.447154471544716 69.2581300813008,15.59959349593496 69.2581300813008,15.701219512195122 69.20731707317073,15.802845528455284 69.20731707317073,15.904471544715447 69.20731707317073,15.955284552845528 69.20731707317073,16.05691056910569 69.20731707317073,16.10772357723577 69.20731707317073,16.10772357723577 69.20731707317073,16.10772357723577 69.20731707317073,16.10772357723577 69.2581300813008,16.10772357723577" fill="none" stroke="black" stroke-width="0.6"></polyline><polyline points="69.2581300813008,16.10772357723577 69.2581300813008,16.10772357723577 69.2581300813008,16.10772357723577 69.3089430894309,16.05691056910569 69.35975609756098,16.006097560975608 69.35975609756098,15.955284552845528 69.41056910569105,15.904471544715447 69.46138211382113,15.904471544715447 69.51219512195122,15.853658536585366 69.5630081300813,15.802845528455284 69.61382113821138,15.802845528455284 69.66463414634146,15.752032520325203 69.71544715447155,15.752032520325203 69.76626016260163,15.701219512195122 69.8170731707317,15.701219512195122 69.86788617886178,15.701219512195122 69.91869918699187,15.701219512195122 69.96951219512195,15.701219512195122 69.96951219512195,15.65040650406504 69.96951219512195,15.65040650406504 70.02032520325203,15.65040650406504 70.02032520325203,15.65040650406504 70.02032520325203,15.65040650406504 70.02032520325203,15.65040650406504 70.02032520325203,15.65040650406504 70.02032520325203,15.65040650406504 70.02032520325203,15.59959349593496 70.02032520325203,15.59959349593496 70.02032520325203,15.548780487804878 70.02032520325203,15.497967479674797 70.02032520325203,15.497967479674797 70.02032520325203,15.447154471544716 70.02032520325203,15.396341463414634 70.02032520325203,15.345528455284553 70.02032520325203,15.24390243902439 70.0711382113821,15.19308943089431 70.1219512195122,15.142276422764228 70.17276422764228,15.091463414634147 70.27439024390243,14.989837398373984 70.32520325203252,14.939024390243903 70.42682926829268,14.888211382113822 70.57926829268293,14.786585365853659 70.68089430894308,14.684959349593496 70.78252032520325,14.634146341463413 70.9349593495935,14.53252032520325 71.03658536585365,14.48170731707317 71.08739837398373,14.430894308943088 71.1890243902439,14.380081300813007 71.23983739837398,14.380081300813007 71.23983739837398,14.380081300813007 71.23983739837398,14.380081300813007" fill="none" stroke="black" stroke-width="0.6"></polyline><polyline points="71.23983739837398,14.380081300813007 71.23983739837398,14.380081300813007 71.23983739837398,14.380081300813007 71.23983739837398,14.430894308943088 71.23983739837398,14.430894308943088 71.23983739837398,14.53252032520325 71.23983739837398,14.583333333333332 71.1890243902439,14.634146341463413 71.1890243902439,14.735772357723578 71.1890243902439,14.786585365853659 71.1890243902439,14.83739837398374 71.1890243902439,14.888211382113822 71.1890243902439,14.989837398373984 71.23983739837398,15.040650406504065 71.23983739837398,15.142276422764228 71.29065040650406,15.19308943089431 71.34146341463415,15.24390243902439 71.4430894308943,15.294715447154472 71.49390243902438,15.345528455284553 71.59552845528455,15.345528455284553 71.64634146341463,15.396341463414634 71.7479674796748,15.396341463414634 71.84959349593495,15.396341463414634 71.95121951219512,15.396341463414634 72.05284552845528,15.396341463414634 72.15447154471545,15.396341463414634 72.2560975609756,15.396341463414634 72.35772357723577,15.345528455284553 72.45934959349593,15.345528455284553 72.5609756097561,15.345528455284553 72.61178861788618,15.294715447154472 72.71341463414635,15.294715447154472 72.8150406504065,15.24390243902439 72.86585365853658,15.24390243902439 72.91666666666667,15.19308943089431 72.96747967479675,15.19308943089431 73.01829268292683,15.19308943089431 73.0691056910569,15.19308943089431 73.119918699187,15.142276422764228 73.17073170731707,15.142276422764228 73.22154471544715,15.091463414634147 73.27235772357723,15.091463414634147 73.32317073170732,15.040650406504065 73.3739837398374,14.989837398373984 73.42479674796748,14.939024390243903 73.42479674796748,14.888211382113822 73.47560975609755,14.83739837398374 73.52642276422765,14.786585365853659 73.57723577235772,14.735772357723578 73.6280487804878,14.684959349593496 73.6280487804878,14.634146341463413" fill="none" stroke="black" stroke-width="0.6"></polyline><polyline points="73.6280487804878,14.634146341463413 73.67886178861788,14.634146341463413 73.67886178861788,14.583333333333332 73.72967479674797,14.53252032520325 73.78048780487805,14.53252032520325 73.78048780487805,14.48170731707317 73.83130081300813,14.48170731707317 73.83130081300813,14.48170731707317 73.83130081300813,14.48170731707317 73.83130081300813,14.48170731707317 73.83130081300813,14.48170731707317 73.83130081300813,14.48170731707317 73.83130081300813,14.48170731707317 73.83130081300813,14.48170731707317 73.83130081300813,14.53252032520325 73.83130081300813,14.53252032520325 73.83130081300813,14.583333333333332 73.83130081300813,14.634146341463413 73.83130081300813,14.634146341463413 73.8821138211382,14.684959349593496 73.9329268292683,14.735772357723578 73.98373983739837,14.786585365853659 73.98373983739837,14.83739837398374 74.08536585365853,14.888211382113822 74.13617886178862,14.939024390243903 74.1869918699187,14.989837398373984 74.28861788617886,15.091463414634147 74.39024390243902,15.142276422764228 74.4410569105691,15.19308943089431 74.54268292682927,15.19308943089431 74.64430894308943,15.24390243902439 74.7459349593496,15.24390243902439 74.89837398373983,15.24390243902439 75.05081300813008,15.24390243902439 75.20325203252033,15.24390243902439 75.40650406504065,15.24390243902439 75.5589430894309,15.24390243902439 75.71138211382113,15.24390243902439 75.86382113821138,15.24390243902439 76.0670731707317,15.19308943089431 76.21951219512195,15.19308943089431 76.3719512195122,15.19308943089431 76.47357723577235,15.142276422764228 76.57520325203252,15.142276422764228 76.6260162601626,15.091463414634147 76.67682926829268,15.091463414634147 76.67682926829268,15.040650406504065 76.72764227642276,15.040650406504065 76.72764227642276,15.040650406504065 76.72764227642276,15.040650406504065 76.67682926829268,15.040650406504065" fill="none" stroke="black" stroke-width="0.6"></polyline><polyline points="76.67682926829268,15.040650406504065 76.57520325203252,15.040650406504065 76.47357723577235,15.040650406504065 76.3719512195122,15.040650406504065 76.21951219512195,15.040650406504065 76.11788617886178,15.091463414634147 75.96544715447155,15.142276422764228 75.86382113821138,15.19308943089431 75.76219512195122,15.24390243902439 75.71138211382113,15.345528455284553 75.60975609756098,15.396341463414634 75.5589430894309,15.497967479674797 75.5589430894309,15.59959349593496 75.5589430894309,15.701219512195122 75.5589430894309,15.802845528455284 75.5589430894309,15.904471544715447 75.66056910569105,16.05691056910569 75.71138211382113,16.209349593495933 75.76219512195122,16.36178861788618 75.86382113821138,16.565040650406505 75.91463414634146,16.76829268292683 75.96544715447155,16.971544715447155 75.96544715447155,17.17479674796748 76.01626016260163,17.378048780487806 76.01626016260163,17.632113821138212 76.0670731707317,17.835365853658537 76.0670731707317,18.038617886178862 76.0670731707317,18.241869918699187 76.0670731707317,18.34349593495935 76.0670731707317,18.495934959349594 76.0670731707317,18.597560975609756 75.96544715447155,18.69918699186992 75.8130081300813,18.80081300813008 75.66056910569105,18.851626016260163 75.5081300813008,18.902439024390244 75.35569105691057,18.902439024390244 75.2540650406504,18.902439024390244 75.20325203252033,18.902439024390244 75.20325203252033,18.851626016260163 75.20325203252033,18.80081300813008 75.20325203252033,18.75 75.2540650406504,18.69918699186992 75.30487804878048,18.597560975609756 75.40650406504065,18.546747967479675 75.5081300813008,18.445121951219512 75.66056910569105,18.34349593495935 75.76219512195122,18.241869918699187 75.91463414634146,18.089430894308943 76.0670731707317,17.98780487804878 76.21951219512195,17.835365853658537 76.42276422764228,17.682926829268293" fill="none" stroke="black" stroke-width="0.6"></polyline><polyline points="76.42276422764228,17.682926829268293 76.6260162601626,17.479674796747968 76.77845528455285,17.327235772357724 76.98170731707317,17.1239837398374 77.1341463414634,16.920731707317074 77.28658536585365,16.71747967479675 77.38821138211382,16.565040650406505 77.54065040650406,16.36178861788618 77.64227642276423,16.15853658536585 77.6930894308943,16.006097560975608 77.74390243902438,15.802845528455284 77.79471544715447,15.65040650406504 77.79471544715447,15.447154471544716 77.84552845528455,15.24390243902439 77.89634146341463,15.040650406504065 77.89634146341463,14.83739837398374 77.89634146341463,14.583333333333332 77.9471544715447,14.380081300813007 77.9471544715447,14.176829268292682 77.9471544715447,13.973577235772357 77.9471544715447,13.821138211382113 77.9471544715447,13.66869918699187 77.9471544715447,13.516260162601625 77.9471544715447,13.465447154471544 77.9471544715447,13.414634146341463 77.89634146341463,13.363821138211382 77.89634146341463,13.363821138211382 77.84552845528455,13.363821138211382 77.84552845528455,13.363821138211382 77.84552845528455,13.363821138211382 77.84552845528455,13.363821138211382 77.79471544715447,13.363821138211382 77.79471544715447,13.363821138211382 77.79471544715447,13.363821138211382 77.79471544715447,13.414634146341463 77.79471544715447,13.465447154471544 77.74390243902438,13.567073170731707 77.74390243902438,13.66869918699187 77.6930894308943,13.770325203252032 77.6930894308943,13.871951219512194 77.6930894308943,14.024390243902438 77.6930894308943,14.176829268292682 77.6930894308943,14.329268292682926 77.6930894308943,14.53252032520325 77.6930894308943,14.684959349593496 77.6930894308943,14.888211382113822 77.6930894308943,15.091463414634147 77.6930894308943,15.24390243902439 77.74390243902438,15.396341463414634 77.74390243902438,15.497967479674797 77.79471544715447,15.59959349593496" fill="none" stroke="black" stroke-width="0.6"></polyline><polyline points="77.79471544715447,15.59959349593496 77.79471544715447,15.701219512195122 77.84552845528455,15.752032520325203 77.89634146341463,15.802845528455284 77.9979674796748,15.802845528455284 78.04878048780488,15.853658536585366 78.15040650406505,15.904471544715447 78.2520325203252,15.904471544715447 78.30284552845528,15.904471544715447 78.35365853658537,15.955284552845528 78.40447154471545,15.955284552845528 78.45528455284553,15.955284552845528 78.5060975609756,15.955284552845528 78.60772357723577,15.955284552845528 78.65853658536585,15.955284552845528 78.70934959349593,15.955284552845528 78.8109756097561,15.904471544715447 78.91260162601625,15.853658536585366 79.01422764227642,15.752032520325203 79.11585365853658,15.65040650406504 79.21747967479675,15.548780487804878 79.3191056910569,15.447154471544716 79.42073170731707,15.294715447154472 79.52235772357723,15.142276422764228 79.6239837398374,14.939024390243903 79.72560975609755,14.735772357723578 79.82723577235772,14.48170731707317 79.92886178861788,14.227642276422763 80.03048780487805,13.973577235772357 80.08130081300813,13.770325203252032 80.1321138211382,13.567073170731707 80.23373983739837,13.3130081300813 80.23373983739837,13.109756097560975 80.28455284552845,12.957317073170731 80.33536585365853,12.804878048780488 80.33536585365853,12.703252032520325 80.33536585365853,12.652439024390244 80.33536585365853,12.601626016260163 80.33536585365853,12.601626016260163 80.33536585365853,12.601626016260163 80.33536585365853,12.652439024390244 80.28455284552845,12.754065040650406 80.23373983739837,12.855691056910569 80.1321138211382,12.957317073170731 80.08130081300813,13.109756097560975 80.03048780487805,13.262195121951219 79.97967479674797,13.414634146341463 79.92886178861788,13.567073170731707 79.8780487804878,13.770325203252032 79.82723577235772,13.922764227642276 79.82723577235772,14.1260162601626" fill="none" stroke="black" stroke-width="0.6"></polyline><polyline points="79.82723577235772,14.1260162601626 79.82723577235772,14.329268292682926 79.82723577235772,14.53252032520325 79.8780487804878,14.786585365853659 79.92886178861788,14.989837398373984 80.03048780487805,15.19308943089431 80.1829268292683,15.345528455284553 80.28455284552845,15.497967479674797 80.4369918699187,15.59959349593496 80.53861788617886,15.701219512195122 80.6910569105691,15.752032520325203 80.84349593495935,15.752032520325203 80.9959349593496,15.802845528455284 81.19918699186992,15.802845528455284 81.35162601626016,15.802845528455284 81.55487804878048,15.752032520325203 81.8089430894309,15.701219512195122 81.96138211382113,15.65040650406504 82.16463414634146,15.59959349593496 82.36788617886178,15.497967479674797 82.5711382113821,15.396341463414634 82.72357723577235,15.294715447154472 82.92682926829268,15.142276422764228 83.07926829268293,14.989837398373984 83.23170731707317,14.786585365853659 83.4349593495935,14.53252032520325 83.58739837398373,14.329268292682926 83.6890243902439,14.07520325203252 83.79065040650406,13.770325203252032 83.89227642276423,13.516260162601625 83.9430894308943,13.3130081300813 83.99390243902438,13.058943089430894 83.99390243902438,12.804878048780488 83.99390243902438,12.601626016260163 84.04471544715447,12.398373983739837 84.04471544715447,12.245934959349594 84.04471544715447,12.144308943089431 84.04471544715447,12.042682926829269 83.99390243902438,11.991869918699187 83.9430894308943,11.991869918699187 83.84146341463415,11.991869918699187 83.73983739837398,11.991869918699187 83.63821138211382,11.991869918699187 83.53658536585365,12.09349593495935 83.4349593495935,12.144308943089431 83.33333333333333,12.245934959349594 83.23170731707317,12.347560975609756 83.130081300813,12.5 83.07926829268293,12.652439024390244 82.97764227642276,12.804878048780488 82.97764227642276,13.008130081300813" fill="none" stroke="black" stroke-width="0.6"></polyline><polyline points="82.97764227642276,13.008130081300813 82.92682926829268,13.211382113821138 82.92682926829268,13.414634146341463 82.92682926829268,13.617886178861788 82.92682926829268,13.871951219512194 82.92682926829268,14.1260162601626 82.97764227642276,14.380081300813007 83.02845528455285,14.583333333333332 83.07926829268293,14.83739837398374 83.07926829268293,15.040650406504065 83.18089430894308,15.19308943089431 83.28252032520325,15.345528455284553 83.33333333333333,15.497967479674797 83.48577235772358,15.59959349593496 83.58739837398373,15.65040650406504 83.73983739837398,15.701219512195122 83.89227642276423,15.752032520325203 83.99390243902438,15.752032520325203 84.14634146341463,15.802845528455284 84.2479674796748,15.802845528455284 84.34959349593495,15.802845528455284 84.45121951219512,15.802845528455284 84.55284552845528,15.802845528455284 84.65447154471545,15.752032520325203 84.7560975609756,15.752032520325203 84.85772357723577,15.701219512195122 84.90853658536585,15.701219512195122 84.90853658536585,15.65040650406504 84.95934959349593,15.59959349593496 85.01016260162602,15.59959349593496 85.01016260162602,15.59959349593496 85.01016260162602,15.548780487804878 85.01016260162602,15.548780487804878 85.01016260162602,15.548780487804878 85.01016260162602,15.497967479674797 85.01016260162602,15.497967479674797 85.01016260162602,15.497967479674797 85.01016260162602,15.447154471544716 85.01016260162602,15.447154471544716 85.01016260162602,15.396341463414634 85.01016260162602,15.345528455284553 85.01016260162602,15.345528455284553 85.01016260162602,15.294715447154472 85.01016260162602,15.24390243902439 85.01016260162602,15.24390243902439 85.01016260162602,15.19308943089431 85.01016260162602,15.142276422764228 85.01016260162602,15.142276422764228 85.01016260162602,15.091463414634147 85.01016260162602,15.040650406504065 85.01016260162602,15.040650406504065" fill="none" stroke="black" stroke-width="0.6"></polyline><polyline points="85.01016260162602,15.040650406504065 85.01016260162602,14.989837398373984 85.01016260162602,14.989837398373984 85.01016260162602,14.989837398373984 85.01016260162602,14.939024390243903 85.01016260162602,14.939024390243903 85.01016260162602,14.939024390243903 85.01016260162602,14.939024390243903 85.01016260162602,14.939024390243903 85.01016260162602,14.939024390243903 85.01016260162602,14.939024390243903 85.01016260162602,14.939024390243903 85.01016260162602,14.989837398373984 84.95934959349593,15.040650406504065 84.95934959349593,15.091463414634147 84.95934959349593,15.142276422764228 84.95934959349593,15.19308943089431 84.95934959349593,15.24390243902439 84.95934959349593,15.294715447154472 84.95934959349593,15.345528455284553 84.95934959349593,15.447154471544716 85.01016260162602,15.497967479674797 85.01016260162602,15.548780487804878 85.0609756097561,15.59959349593496 85.11178861788618,15.59959349593496 85.16260162601625,15.65040650406504 85.21341463414635,15.65040650406504 85.26422764227642,15.701219512195122 85.36585365853658,15.701219512195122 85.41666666666667,15.701219512195122 85.51829268292683,15.701219512195122 85.5691056910569,15.701219512195122 85.67073170731707,15.65040650406504 85.77235772357723,15.59959349593496 85.8739837398374,15.548780487804878 85.92479674796748,15.497967479674797 85.97560975609755,15.447154471544716 86.02642276422765,15.396341463414634 86.07723577235772,15.345528455284553 86.1280487804878,15.345528455284553 86.17886178861788,15.294715447154472 86.22967479674797,15.294715447154472 86.22967479674797,15.294715447154472 86.22967479674797,15.24390243902439 86.28048780487805,15.24390243902439 86.28048780487805,15.24390243902439 86.28048780487805,15.24390243902439 86.28048780487805,15.294715447154472 86.28048780487805,15.396341463414634 86.28048780487805,15.447154471544716 86.33130081300813,15.548780487804878" fill="none" stroke="black" stroke-width="0.6"></polyline><polyline points="86.33130081300813,15.548780487804878 86.33130081300813,15.701219512195122 86.3821138211382,15.853658536585366 86.4329268292683,16.006097560975608 86.4329268292683,16.209349593495933 86.48373983739837,16.463414634146343 86.53455284552845,16.71747967479675 86.53455284552845,16.971544715447155 86.53455284552845,17.276422764227643 86.53455284552845,17.58130081300813 86.53455284552845,17.835365853658537 86.53455284552845,18.038617886178862 86.53455284552845,18.241869918699187 86.53455284552845,18.39430894308943 86.53455284552845,18.495934959349594 86.53455284552845,18.597560975609756 86.53455284552845,18.69918699186992 86.4329268292683,18.80081300813008 86.33130081300813,18.902439024390244 86.22967479674797,19.004065040650406 86.17886178861788,19.10569105691057 86.07723577235772,19.15650406504065 86.02642276422765,19.20731707317073 86.02642276422765,19.258130081300813 86.02642276422765,19.258130081300813 86.02642276422765,19.258130081300813 86.02642276422765,19.258130081300813 85.97560975609755,19.258130081300813 85.97560975609755,19.15650406504065 85.92479674796748,19.054878048780488 85.92479674796748,18.953252032520325 85.8739837398374,18.851626016260163 85.8739837398374,18.75 85.8739837398374,18.648373983739837 85.8739837398374,18.495934959349594 85.8739837398374,18.39430894308943 85.92479674796748,18.29268292682927 86.02642276422765,18.191056910569106 86.17886178861788,18.038617886178862 86.33130081300813,17.88617886178862 86.53455284552845,17.733739837398375 86.78861788617886,17.53048780487805 87.04268292682927,17.378048780487806 87.29674796747967,17.225609756097562 87.55081300813008,17.073170731707318 87.65243902439025,16.971544715447155 87.7540650406504,16.869918699186993 87.80487804878048,16.81910569105691 87.80487804878048,16.81910569105691 87.80487804878048,16.81910569105691 87.80487804878048,16.81910569105691" fill="none" stroke="black" stroke-width="0.6"></polyline><polyline points="87.80487804878048,16.81910569105691 87.80487804878048,16.81910569105691 87.70325203252033,16.81910569105691 87.55081300813008,16.81910569105691 87.39837398373983,16.81910569105691 87.1951219512195,16.81910569105691 86.99186991869918,16.81910569105691 86.73780487804878,16.81910569105691 86.4329268292683,16.81910569105691 86.33130081300813,16.76829268292683" fill="none" stroke="black" stroke-width="0.6"></polyline><polyline points="79.67479674796748,15.955284552845528 79.67479674796748,15.853658536585366 79.67479674796748,15.752032520325203 79.67479674796748,15.65040650406504 79.72560975609755,15.59959349593496 79.8780487804878,15.548780487804878 80.1321138211382,15.497967479674797 80.48780487804878,15.497967479674797 80.84349593495935,15.497967479674797 81.19918699186992,15.497967479674797 81.55487804878048,15.497967479674797 81.85975609756098,15.497967479674797 82.0630081300813,15.497967479674797 82.21544715447155,15.497967479674797" fill="none" stroke="black" stroke-width="0.6"></polyline><polyline points="6.25,37.34756097560975 6.453252032520325,37.09349593495935 6.605691056910569,36.890243902439025 6.808943089430894,36.636178861788615 7.012195121951219,36.43292682926829 7.266260162601625,36.1280487804878 7.520325203252033,35.8739837398374 7.774390243902439,35.56910569105691 8.079268292682926,35.3150406504065 8.333333333333334,35.010162601626014 8.58739837398374,34.70528455284553 8.841463414634147,34.40040650406504 9.044715447154472,34.09552845528455 9.247967479674797,33.84146341463415 9.40040650406504,33.53658536585366 9.502032520325203,33.333333333333336 9.552845528455284,33.13008130081301 9.552845528455284,32.926829268292686 9.603658536585366,32.77439024390244 9.603658536585366,32.6219512195122 9.552845528455284,32.418699186991866 9.502032520325203,32.266260162601625 9.451219512195122,32.16463414634146 9.40040650406504,32.012195121951216 9.34959349593496,31.961382113821138 9.298780487804878,31.910569105691057 9.247967479674797,31.859756097560975 9.146341463414634,31.859756097560975 9.044715447154472,31.859756097560975 8.892276422764228,31.910569105691057 8.739837398373984,32.012195121951216 8.58739837398374,32.11382113821138 8.384146341463415,32.3170731707317 8.18089430894309,32.46951219512195 8.028455284552845,32.672764227642276 7.82520325203252,32.926829268292686 7.6727642276422765,33.13008130081301 7.571138211382114,33.38414634146341 7.41869918699187,33.63821138211382 7.367886178861789,33.892276422764226 7.317073170731707,34.197154471544714 7.317073170731707,34.5020325203252 7.317073170731707,34.75609756097561 7.367886178861789,34.959349593495936 7.41869918699187,35.16260162601626 7.469512195121951,35.264227642276424 7.571138211382114,35.36585365853659 7.6727642276422765,35.416666666666664 7.774390243902439,35.416666666666664 7.926829268292683,35.416666666666664 8.079268292682926,35.36585365853659" fill="none" stroke="black" stroke-width="0.6"></polyline><polyline points="8.079268292682926,35.36585365853659 8.282520325203253,35.3150406504065 8.434959349593496,35.21341463414634 8.638211382113822,35.11178861788618 8.841463414634147,35.010162601626014 8.99390243902439,34.857723577235774 9.146341463414634,34.70528455284553 9.298780487804878,34.603658536585364 9.451219512195122,34.40040650406504 9.552845528455284,34.2479674796748 9.705284552845528,34.09552845528455 9.80691056910569,33.94308943089431 9.857723577235772,33.790650406504064 9.857723577235772,33.63821138211382 9.908536585365853,33.53658536585366 9.908536585365853,33.4349593495935 9.908536585365853,33.38414634146341 9.908536585365853,33.28252032520325 9.908536585365853,33.28252032520325 9.908536585365853,33.23170731707317 9.908536585365853,33.23170731707317 9.908536585365853,33.23170731707317 9.908536585365853,33.23170731707317 9.908536585365853,33.23170731707317 9.908536585365853,33.28252032520325 9.908536585365853,33.333333333333336 9.857723577235772,33.38414634146341 9.857723577235772,33.4349593495935 9.857723577235772,33.53658536585366 9.857723577235772,33.63821138211382 9.857723577235772,33.739837398373986 9.857723577235772,33.84146341463415 9.80691056910569,33.99390243902439 9.80691056910569,34.146341463414636 9.80691056910569,34.298780487804876 9.80691056910569,34.5020325203252 9.80691056910569,34.65447154471545 9.857723577235772,34.857723577235774 9.959349593495935,35.010162601626014 10.010162601626016,35.11178861788618 10.111788617886178,35.21341463414634 10.213414634146341,35.3150406504065 10.315040650406504,35.36585365853659 10.416666666666666,35.36585365853659 10.56910569105691,35.416666666666664 10.772357723577235,35.416666666666664 10.924796747967479,35.36585365853659 11.178861788617885,35.3150406504065 11.382113821138212,35.21341463414634 11.585365853658537,35.11178861788618 11.839430894308943,34.959349593495936" fill="none" stroke="black" stroke-width="0.6"></polyline><polyline points="11.839430894308943,34.959349593495936 12.042682926829269,34.80691056910569 12.296747967479675,34.65447154471545 12.601626016260163,34.40040650406504 12.855691056910569,34.197154471544714 13.109756097560975,33.892276422764226 13.414634146341463,33.63821138211382 13.66869918699187,33.38414634146341 13.922764227642276,33.13008130081301 14.1260162601626,32.82520325203252 14.329268292682926,32.57113821138211 14.48170731707317,32.3170731707317 14.583333333333332,32.012195121951216 14.634146341463413,31.758130081300813 14.735772357723578,31.504065040650406 14.786585365853659,31.30081300813008 14.83739837398374,31.097560975609756 14.83739837398374,30.995934959349594 14.83739837398374,30.84349593495935 14.83739837398374,30.79268292682927 14.83739837398374,30.741869918699187 14.786585365853659,30.741869918699187 14.786585365853659,30.741869918699187 14.684959349593496,30.741869918699187 14.634146341463413,30.741869918699187 14.583333333333332,30.84349593495935 14.48170731707317,30.945121951219512 14.430894308943088,31.046747967479675 14.329268292682926,31.19918699186992 14.227642276422763,31.351626016260163 14.1260162601626,31.554878048780488 14.07520325203252,31.758130081300813 13.973577235772357,31.961382113821138 13.922764227642276,32.21544715447154 13.871951219512194,32.52032520325203 13.821138211382113,32.8760162601626 13.821138211382113,33.18089430894309 13.821138211382113,33.485772357723576 13.821138211382113,33.790650406504064 13.821138211382113,33.99390243902439 13.871951219512194,34.197154471544714 13.922764227642276,34.34959349593496 13.973577235772357,34.5020325203252 14.07520325203252,34.603658536585364 14.1260162601626,34.70528455284553 14.227642276422763,34.75609756097561 14.329268292682926,34.80691056910569 14.430894308943088,34.857723577235774 14.48170731707317,34.90853658536585 14.53252032520325,34.90853658536585 14.634146341463413,34.90853658536585" fill="none" stroke="black" stroke-width="0.6"></polyline><polyline points="14.634146341463413,34.90853658536585 14.684959349593496,34.90853658536585 14.735772357723578,34.90853658536585 14.786585365853659,34.90853658536585 14.83739837398374,34.90853658536585 14.83739837398374,34.90853658536585 14.888211382113822,34.857723577235774 14.888211382113822,34.75609756097561 14.888211382113822,34.70528455284553 14.888211382113822,34.552845528455286 14.888211382113822,34.451219512195124 14.83739837398374,34.34959349593496 14.786585365853659,34.197154471544714 14.735772357723578,34.09552845528455 14.684959349593496,33.99390243902439 14.634146341463413,33.892276422764226 14.583333333333332,33.84146341463415 14.48170731707317,33.790650406504064 14.430894308943088,33.739837398373986 14.380081300813007,33.739837398373986 14.380081300813007,33.6890243902439 14.329268292682926,33.6890243902439 14.329268292682926,33.6890243902439 14.329268292682926,33.739837398373986 14.380081300813007,33.739837398373986 14.48170731707317,33.790650406504064 14.583333333333332,33.84146341463415 14.786585365853659,33.892276422764226 14.989837398373984,33.892276422764226 15.24390243902439,33.892276422764226 15.548780487804878,33.892276422764226 15.853658536585366,33.892276422764226 16.209349593495933,33.84146341463415 16.514227642276424,33.739837398373986 16.81910569105691,33.6890243902439 17.022357723577237,33.63821138211382 17.276422764227643,33.63821138211382 17.378048780487806,33.63821138211382 17.53048780487805,33.63821138211382 17.632113821138212,33.63821138211382 17.632113821138212,33.63821138211382 17.682926829268293,33.63821138211382 17.682926829268293,33.6890243902439 17.733739837398375,33.6890243902439 17.733739837398375,33.739837398373986 17.733739837398375,33.790650406504064 17.733739837398375,33.790650406504064 17.733739837398375,33.84146341463415 17.733739837398375,33.892276422764226 17.733739837398375,33.892276422764226 17.733739837398375,33.99390243902439" fill="none" stroke="black" stroke-width="0.6"></polyline><polyline points="17.733739837398375,33.99390243902439 17.682926829268293,34.04471544715447 17.632113821138212,34.09552845528455 17.53048780487805,34.197154471544714 17.428861788617887,34.298780487804876 17.378048780487806,34.34959349593496 17.276422764227643,34.451219512195124 17.225609756097562,34.5020325203252 17.225609756097562,34.603658536585364 17.17479674796748,34.65447154471545 17.17479674796748,34.70528455284553 17.17479674796748,34.75609756097561 17.17479674796748,34.75609756097561 17.17479674796748,34.80691056910569 17.17479674796748,34.80691056910569 17.225609756097562,34.80691056910569 17.276422764227643,34.80691056910569 17.378048780487806,34.80691056910569 17.479674796747968,34.80691056910569 17.58130081300813,34.80691056910569 17.682926829268293,34.75609756097561 17.784552845528456,34.70528455284553 17.88617886178862,34.65447154471545 17.9369918699187,34.65447154471545 17.98780487804878,34.603658536585364 18.038617886178862,34.552845528455286 18.038617886178862,34.5020325203252 18.089430894308943,34.451219512195124 18.089430894308943,34.34959349593496 18.089430894308943,34.34959349593496 18.089430894308943,34.2479674796748 18.089430894308943,34.2479674796748 18.038617886178862,34.197154471544714 17.98780487804878,34.146341463414636 17.9369918699187,34.09552845528455 17.88617886178862,34.09552845528455 17.835365853658537,34.04471544715447 17.835365853658537,34.04471544715447 17.835365853658537,33.99390243902439 17.835365853658537,33.94308943089431 17.835365853658537,33.892276422764226 17.9369918699187,33.892276422764226 18.038617886178862,33.84146341463415 18.140243902439025,33.790650406504064 18.29268292682927,33.739837398373986 18.445121951219512,33.739837398373986 18.597560975609756,33.739837398373986 18.75,33.739837398373986 18.902439024390244,33.739837398373986 19.004065040650406,33.739837398373986 19.10569105691057,33.790650406504064" fill="none" stroke="black" stroke-width="0.6"></polyline><polyline points="19.10569105691057,33.790650406504064 19.20731707317073,33.84146341463415 19.258130081300813,33.892276422764226 19.308943089430894,33.94308943089431 19.359756097560975,33.99390243902439 19.410569105691057,34.09552845528455 19.461382113821138,34.146341463414636 19.461382113821138,34.197154471544714 19.461382113821138,34.298780487804876 19.51219512195122,34.40040650406504 19.51219512195122,34.451219512195124 19.51219512195122,34.552845528455286 19.51219512195122,34.65447154471545 19.5630081300813,34.75609756097561 19.5630081300813,34.80691056910569 19.61382113821138,34.90853658536585 19.715447154471544,34.959349593495936 19.766260162601625,35.010162601626014 19.867886178861788,35.0609756097561 19.96951219512195,35.0609756097561 20.071138211382113,35.0609756097561 20.121951219512194,35.0609756097561 20.223577235772357,35.0609756097561 20.274390243902438,35.0609756097561 20.3760162601626,35.010162601626014 20.477642276422763,34.959349593495936 20.630081300813007,34.857723577235774 20.73170731707317,34.75609756097561 20.78252032520325,34.65447154471545 20.884146341463413,34.552845528455286 20.934959349593495,34.451219512195124 20.985772357723576,34.34959349593496 20.985772357723576,34.2479674796748 20.985772357723576,34.197154471544714 20.985772357723576,34.09552845528455 20.934959349593495,34.09552845528455 20.884146341463413,34.04471544715447 20.833333333333332,33.99390243902439 20.833333333333332,33.99390243902439 20.78252032520325,33.99390243902439 20.78252032520325,33.99390243902439 20.78252032520325,33.99390243902439 20.78252032520325,33.99390243902439 20.78252032520325,33.99390243902439 20.78252032520325,33.99390243902439 20.78252032520325,34.04471544715447 20.833333333333332,34.04471544715447 20.884146341463413,34.04471544715447 20.934959349593495,34.09552845528455 21.036585365853657,34.09552845528455 21.08739837398374,34.09552845528455" fill="none" stroke="black" stroke-width="0.6"></polyline><polyline points="21.08739837398374,34.09552845528455 21.1890243902439,34.04471544715447 21.341463414634145,33.99390243902439 21.443089430894307,33.94308943089431 21.54471544715447,33.892276422764226 21.646341463414632,33.790650406504064 21.747967479674795,33.739837398373986 21.849593495934958,33.6890243902439 21.90040650406504,33.58739837398374 21.95121951219512,33.53658536585366 21.95121951219512,33.485772357723576 21.95121951219512,33.4349593495935 21.95121951219512,33.38414634146341 21.95121951219512,33.38414634146341 21.95121951219512,33.38414634146341 21.90040650406504,33.38414634146341 21.90040650406504,33.38414634146341 21.90040650406504,33.38414634146341 21.849593495934958,33.38414634146341 21.849593495934958,33.4349593495935 21.798780487804876,33.485772357723576 21.798780487804876,33.58739837398374 21.747967479674795,33.739837398373986 21.697154471544714,33.84146341463415 21.697154471544714,33.94308943089431 21.697154471544714,34.09552845528455 21.697154471544714,34.197154471544714 21.697154471544714,34.298780487804876 21.798780487804876,34.34959349593496 21.90040650406504,34.451219512195124 22.0020325203252,34.5020325203252 22.154471544715445,34.5020325203252 22.30691056910569,34.552845528455286 22.40853658536585,34.552845528455286 22.560975609756095,34.603658536585364 22.662601626016258,34.603658536585364 22.815040650406505,34.65447154471545 22.916666666666668,34.70528455284553 22.96747967479675,34.80691056910569 23.01829268292683,34.857723577235774" fill="none" stroke="black" stroke-width="0.6"></polyline><polyline points="28.2520325203252,35.72154471544715 28.302845528455283,35.72154471544715 28.302845528455283,35.670731707317074 28.353658536585364,35.61991869918699 28.353658536585364,35.56910569105691 28.404471544715445,35.51829268292683 28.506097560975608,35.46747967479675 28.55691056910569,35.416666666666664 28.65853658536585,35.3150406504065 28.810975609756095,35.21341463414634 28.96341463414634,35.11178861788618 29.115853658536583,35.010162601626014 29.31910569105691,34.857723577235774 29.522357723577237,34.70528455284553 29.725609756097562,34.552845528455286 29.928861788617887,34.34959349593496 30.182926829268293,34.146341463414636 30.38617886178862,33.94308943089431 30.589430894308943,33.739837398373986 30.741869918699187,33.58739837398374 30.945121951219512,33.38414634146341 31.046747967479675,33.28252032520325 31.097560975609756,33.18089430894309 31.148373983739837,33.079268292682926 31.19918699186992,33.02845528455285 31.19918699186992,33.02845528455285 31.19918699186992,32.97764227642276 31.19918699186992,32.97764227642276 31.19918699186992,32.97764227642276 31.148373983739837,33.02845528455285 31.097560975609756,33.079268292682926 30.995934959349594,33.13008130081301 30.89430894308943,33.23170731707317 30.79268292682927,33.333333333333336 30.640243902439025,33.4349593495935 30.538617886178862,33.58739837398374 30.4369918699187,33.6890243902439 30.335365853658537,33.84146341463415 30.233739837398375,33.99390243902439 30.132113821138212,34.197154471544714 30.08130081300813,34.40040650406504 30.03048780487805,34.65447154471545 29.979674796747968,34.857723577235774 29.979674796747968,35.0609756097561 30.03048780487805,35.21341463414634 30.08130081300813,35.3150406504065 30.182926829268293,35.416666666666664 30.284552845528456,35.46747967479675 30.38617886178862,35.46747967479675 30.538617886178862,35.46747967479675 30.741869918699187,35.46747967479675" fill="none" stroke="black" stroke-width="0.6"></polyline><polyline points="30.741869918699187,35.46747967479675 30.89430894308943,35.416666666666664 31.097560975609756,35.3150406504065 31.30081300813008,35.264227642276424 31.554878048780488,35.16260162601626 31.758130081300813,35.0609756097561 31.961382113821138,34.959349593495936 32.11382113821138,34.857723577235774 32.3170731707317,34.75609756097561 32.46951219512195,34.70528455284553 32.6219512195122,34.603658536585364 32.72357723577236,34.552845528455286 32.72357723577236,34.552845528455286 32.77439024390244,34.5020325203252 32.77439024390244,34.5020325203252 32.77439024390244,34.5020325203252 32.77439024390244,34.5020325203252 32.72357723577236,34.5020325203252 32.672764227642276,34.552845528455286 32.6219512195122,34.552845528455286 32.57113821138211,34.65447154471545 32.52032520325203,34.70528455284553 32.46951219512195,34.75609756097561 32.418699186991866,34.857723577235774 32.418699186991866,34.90853658536585 32.418699186991866,35.010162601626014 32.36788617886179,35.0609756097561 32.36788617886179,35.11178861788618 32.36788617886179,35.16260162601626 32.36788617886179,35.21341463414634 32.418699186991866,35.21341463414634 32.46951219512195,35.21341463414634 32.52032520325203,35.21341463414634 32.6219512195122,35.21341463414634 32.72357723577236,35.21341463414634 32.82520325203252,35.16260162601626 32.926829268292686,35.11178861788618 33.02845528455285,35.0609756097561 33.13008130081301,35.010162601626014 33.18089430894309,34.90853658536585 33.28252032520325,34.857723577235774 33.333333333333336,34.80691056910569 33.38414634146341,34.70528455284553 33.4349593495935,34.65447154471545 33.485772357723576,34.603658536585364 33.485772357723576,34.5020325203252 33.53658536585366,34.40040650406504 33.53658536585366,34.34959349593496 33.53658536585366,34.2479674796748 33.53658536585366,34.146341463414636 33.53658536585366,34.09552845528455" fill="none" stroke="black" stroke-width="0.6"></polyline><polyline points="33.53658536585366,34.09552845528455 33.53658536585366,34.04471544715447 33.53658536585366,33.99390243902439 33.53658536585366,33.99390243902439 33.53658536585366,33.99390243902439 33.53658536585366,33.99390243902439 33.53658536585366,33.99390243902439 33.53658536585366,33.99390243902439 33.58739837398374,33.99390243902439 33.6890243902439,33.99390243902439 33.790650406504064,33.99390243902439 33.94308943089431,33.99390243902439 34.04471544715447,33.99390243902439 34.197154471544714,33.99390243902439 34.34959349593496,33.99390243902439 34.5020325203252,33.94308943089431 34.603658536585364,33.892276422764226 34.75609756097561,33.892276422764226 34.857723577235774,33.84146341463415 35.010162601626014,33.84146341463415 35.11178861788618,33.790650406504064 35.16260162601626,33.790650406504064 35.264227642276424,33.790650406504064 35.3150406504065,33.790650406504064 35.36585365853659,33.790650406504064 35.36585365853659,33.790650406504064 35.416666666666664,33.790650406504064 35.416666666666664,33.84146341463415 35.416666666666664,33.84146341463415 35.416666666666664,33.84146341463415 35.416666666666664,33.892276422764226 35.36585365853659,33.892276422764226 35.3150406504065,33.94308943089431 35.264227642276424,33.99390243902439 35.21341463414634,34.04471544715447 35.16260162601626,34.09552845528455 35.11178861788618,34.197154471544714 35.0609756097561,34.2479674796748 34.959349593495936,34.34959349593496 34.90853658536585,34.40040650406504 34.90853658536585,34.451219512195124 34.857723577235774,34.552845528455286 34.80691056910569,34.603658536585364 34.80691056910569,34.65447154471545 34.80691056910569,34.65447154471545 34.80691056910569,34.70528455284553 34.80691056910569,34.75609756097561 34.80691056910569,34.75609756097561 34.80691056910569,34.80691056910569 34.857723577235774,34.80691056910569 34.90853658536585,34.80691056910569" fill="none" stroke="black" stroke-width="0.6"></polyline><polyline points="34.90853658536585,34.80691056910569 35.010162601626014,34.80691056910569 35.11178861788618,34.80691056910569 35.21341463414634,34.80691056910569 35.36585365853659,34.80691056910569 35.51829268292683,34.75609756097561 35.670731707317074,34.70528455284553 35.823170731707314,34.65447154471545 35.97560975609756,34.603658536585364 36.1280487804878,34.552845528455286 36.28048780487805,34.451219512195124 36.43292682926829,34.40040650406504 36.58536585365854,34.298780487804876 36.6869918699187,34.197154471544714 36.83943089430894,34.09552845528455 36.99186991869919,33.99390243902439 37.14430894308943,33.94308943089431 37.296747967479675,33.84146341463415 37.39837398373984,33.790650406504064 37.55081300813008,33.739837398373986 37.65243902439024,33.6890243902439 37.7540650406504,33.6890243902439 37.855691056910565,33.6890243902439 37.95731707317073,33.6890243902439 38.00813008130081,33.6890243902439 38.00813008130081,33.6890243902439 38.05894308943089,33.6890243902439 38.05894308943089,33.6890243902439 38.05894308943089,33.739837398373986 38.00813008130081,33.790650406504064 37.90650406504065,33.892276422764226 37.855691056910565,33.99390243902439 37.7540650406504,34.09552845528455 37.65243902439024,34.197154471544714 37.55081300813008,34.2479674796748 37.5,34.34959349593496 37.449186991869915,34.40040650406504 37.39837398373984,34.451219512195124 37.39837398373984,34.5020325203252 37.39837398373984,34.552845528455286 37.39837398373984,34.552845528455286 37.449186991869915,34.552845528455286 37.55081300813008,34.552845528455286 37.65243902439024,34.552845528455286 37.80487804878049,34.552845528455286 37.90650406504065,34.552845528455286 38.05894308943089,34.552845528455286 38.16056910569105,34.552845528455286 38.21138211382114,34.552845528455286 38.262195121951216,34.65447154471545 38.3130081300813,34.75609756097561" fill="none" stroke="black" stroke-width="0.6"></polyline><polyline points="38.3130081300813,34.75609756097561 38.3130081300813,34.857723577235774 38.36382113821138,35.010162601626014 38.36382113821138,35.16260162601626 38.36382113821138,35.36585365853659 38.36382113821138,35.51829268292683 38.36382113821138,35.670731707317074 38.3130081300813,35.823170731707314 38.3130081300813,36.02642276422764 38.262195121951216,36.17886178861789 38.21138211382114,36.33130081300813 38.109756097560975,36.483739837398375 38.05894308943089,36.636178861788615 38.00813008130081,36.73780487804878 37.90650406504065,36.83943089430894 37.80487804878049,36.99186991869919 37.703252032520325,37.09349593495935 37.60162601626016,37.14430894308943 37.5,37.19512195121951 37.39837398373984,37.24593495934959 37.296747967479675,37.24593495934959 37.19512195121951,37.24593495934959 37.09349593495935,37.24593495934959 37.042682926829265,37.19512195121951 36.99186991869919,37.09349593495935 36.99186991869919,36.99186991869919 36.99186991869919,36.890243902439025 36.99186991869919,36.78861788617886 36.99186991869919,36.6869918699187 36.99186991869919,36.53455284552845 37.042682926829265,36.43292682926829 37.09349593495935,36.33130081300813 37.14430894308943,36.229674796747965 37.24593495934959,36.1280487804878 37.39837398373984,35.97560975609756 37.55081300813008,35.8739837398374 37.703252032520325,35.72154471544715 37.95731707317073,35.61991869918699 38.21138211382114,35.46747967479675 38.46544715447154,35.264227642276424 38.71951219512195,35.11178861788618 38.97357723577235,34.959349593495936 39.1260162601626,34.857723577235774 39.27845528455285,34.75609756097561 39.43089430894309,34.65447154471545 39.48170731707317,34.603658536585364 39.53252032520325,34.552845528455286 39.583333333333336,34.552845528455286 39.583333333333336,34.552845528455286 39.63414634146341,34.5020325203252 39.63414634146341,34.5020325203252" fill="none" stroke="black" stroke-width="0.6"></polyline><polyline points="39.63414634146341,34.5020325203252 39.63414634146341,34.5020325203252 39.63414634146341,34.5020325203252 39.63414634146341,34.451219512195124 39.63414634146341,34.451219512195124 39.63414634146341,34.451219512195124 39.63414634146341,34.451219512195124 39.583333333333336,34.451219512195124 39.53252032520325,34.451219512195124 39.48170731707317,34.5020325203252 39.43089430894309,34.552845528455286 39.38008130081301,34.65447154471545 39.27845528455285,34.75609756097561 39.22764227642276,34.857723577235774 39.176829268292686,35.010162601626014 39.1260162601626,35.11178861788618 39.1260162601626,35.16260162601626 39.07520325203252,35.264227642276424 39.07520325203252,35.36585365853659 39.07520325203252,35.46747967479675 39.07520325203252,35.46747967479675 39.1260162601626,35.51829268292683 39.176829268292686,35.51829268292683 39.27845528455285,35.51829268292683 39.38008130081301,35.51829268292683 39.48170731707317,35.51829268292683 39.583333333333336,35.46747967479675 39.6849593495935,35.416666666666664 39.78658536585366,35.36585365853659 39.88821138211382,35.3150406504065 39.989837398373986,35.264227642276424 40.040650406504064,35.21341463414634 40.09146341463415,35.21341463414634 40.142276422764226,35.16260162601626 40.142276422764226,35.16260162601626 40.142276422764226,35.11178861788618 40.19308943089431,35.0609756097561 40.19308943089431,35.0609756097561 40.19308943089431,35.010162601626014 40.19308943089431,34.959349593495936 40.19308943089431,34.90853658536585 40.19308943089431,34.857723577235774 40.19308943089431,34.80691056910569 40.19308943089431,34.75609756097561 40.19308943089431,34.70528455284553 40.19308943089431,34.603658536585364 40.19308943089431,34.552845528455286 40.24390243902439,34.5020325203252 40.29471544715447,34.451219512195124 40.34552845528455,34.34959349593496 40.447154471544714,34.298780487804876" fill="none" stroke="black" stroke-width="0.6"></polyline><polyline points="40.447154471544714,34.298780487804876 40.4979674796748,34.2479674796748 40.59959349593496,34.197154471544714 40.65040650406504,34.197154471544714 40.701219512195124,34.146341463414636 40.701219512195124,34.146341463414636 40.701219512195124,34.146341463414636 40.701219512195124,34.146341463414636 40.701219512195124,34.146341463414636 40.701219512195124,34.146341463414636 40.701219512195124,34.197154471544714 40.701219512195124,34.197154471544714 40.701219512195124,34.2479674796748 40.701219512195124,34.34959349593496 40.701219512195124,34.40040650406504 40.701219512195124,34.451219512195124 40.701219512195124,34.5020325203252 40.701219512195124,34.552845528455286 40.701219512195124,34.603658536585364 40.701219512195124,34.65447154471545 40.7520325203252,34.70528455284553 40.802845528455286,34.75609756097561 40.90447154471545,34.80691056910569 40.95528455284553,34.80691056910569 41.107723577235774,34.80691056910569 41.260162601626014,34.857723577235774 41.41260162601626,34.857723577235774 41.61585365853659,34.857723577235774 41.81910569105691,34.857723577235774 42.073170731707314,34.80691056910569 42.327235772357724,34.75609756097561 42.58130081300813,34.70528455284553 42.78455284552845,34.65447154471545 42.98780487804878,34.552845528455286 43.140243902439025,34.5020325203252 43.292682926829265,34.5020325203252 43.39430894308943,34.451219512195124 43.49593495934959,34.451219512195124 43.546747967479675,34.451219512195124 43.59756097560975,34.451219512195124 43.64837398373984,34.451219512195124 43.699186991869915,34.451219512195124 43.699186991869915,34.5020325203252 43.75,34.5020325203252 43.75,34.5020325203252 43.75,34.5020325203252 43.75,34.5020325203252 43.75,34.5020325203252 43.699186991869915,34.5020325203252 43.59756097560975,34.5020325203252 43.49593495934959,34.552845528455286" fill="none" stroke="black" stroke-width="0.6"></polyline><polyline points="43.49593495934959,34.552845528455286 43.39430894308943,34.552845528455286 43.292682926829265,34.603658536585364 43.1910569105691,34.65447154471545 43.03861788617886,34.70528455284553 42.9369918699187,34.75609756097561 42.83536585365854,34.80691056910569 42.733739837398375,34.857723577235774 42.63211382113821,34.959349593495936 42.58130081300813,35.010162601626014 42.53048780487805,35.0609756097561 42.53048780487805,35.11178861788618 42.479674796747965,35.11178861788618 42.479674796747965,35.16260162601626 42.53048780487805,35.16260162601626 42.53048780487805,35.16260162601626 42.63211382113821,35.16260162601626 42.68292682926829,35.16260162601626 42.78455284552845,35.16260162601626 42.886178861788615,35.16260162601626 42.98780487804878,35.16260162601626 43.08943089430894,35.11178861788618 43.140243902439025,35.11178861788618 43.24186991869919,35.0609756097561 43.34349593495935,35.010162601626014 43.44512195121951,34.959349593495936 43.59756097560975,34.90853658536585 43.75,34.80691056910569 43.90243902439024,34.65447154471545 44.05487804878049,34.451219512195124 44.25813008130081,34.2479674796748 44.41056910569105,34.04471544715447 44.5630081300813,33.84146341463415 44.766260162601625,33.58739837398374 44.86788617886179,33.38414634146341 44.918699186991866,33.23170731707317 44.918699186991866,33.079268292682926 44.918699186991866,32.926829268292686 44.918699186991866,32.77439024390244 44.86788617886179,32.672764227642276 44.8170731707317,32.57113821138211 44.766260162601625,32.46951219512195 44.766260162601625,32.418699186991866 44.766260162601625,32.418699186991866 44.766260162601625,32.418699186991866 44.766260162601625,32.418699186991866 44.766260162601625,32.57113821138211 44.8170731707317,32.72357723577236 44.86788617886179,32.97764227642276 44.86788617886179,33.23170731707317 44.918699186991866,33.485772357723576" fill="none" stroke="black" stroke-width="0.6"></polyline><polyline points="44.918699186991866,33.485772357723576 44.96951219512195,33.790650406504064 45.02032520325203,34.146341463414636 45.07113821138211,34.451219512195124 45.12195121951219,34.75609756097561 45.172764227642276,35.010162601626014 45.27439024390244,35.16260162601626 45.3760162601626,35.264227642276424 45.42682926829268,35.264227642276424 45.52845528455285,35.3150406504065 45.579268292682926,35.3150406504065 45.68089430894309,35.264227642276424 45.73170731707317,35.21341463414634 45.833333333333336,35.16260162601626 45.833333333333336,35.11178861788618" fill="none" stroke="black" stroke-width="0.6"></polyline><polyline points="37.39837398373984,31.65650406504065 37.19512195121951,31.60569105691057 37.042682926829265,31.453252032520325 36.890243902439025,31.402439024390244 36.78861788617886,31.504065040650406 36.73780487804878,31.65650406504065 36.6869918699187,31.859756097560975" fill="none" stroke="black" stroke-width="0.6"></polyline></svg>