<svg height="100" width="100" preserveAspectRatio="xMidYMid meet"><polyline points="18.597560975609756,16.71747967479675 18.648373983739837,16.666666666666668 18.69918699186992,16.565040650406505 18.80081300813008,16.514227642276424 18.953252032520325,16.463414634146343 19.10569105691057,16.41260162601626 19.359756097560975,16.3109756097561 19.664634146341463,16.209349593495933 19.96951219512195,16.05691056910569 20.3760162601626,15.904471544715447 20.78252032520325,15.701219512195122 21.1890243902439,15.497967479674797 21.646341463414632,15.294715447154472 22.0020325203252,15.091463414634147 22.40853658536585,14.888211382113822 22.815040650406505,14.583333333333332 23.119918699186993,14.329268292682926 23.475609756097562,14.07520325203252 23.83130081300813,13.821138211382113 24.1869918699187,13.567073170731707 24.491869918699187,13.3130081300813 24.898373983739837,13.008130081300813 25.203252032520325,12.703252032520325 25.558943089430894,12.347560975609756 25.965447154471544,11.941056910569106 26.321138211382113,11.585365853658537 26.6260162601626,11.178861788617885 26.98170731707317,10.823170731707316 27.235772357723576,10.467479674796747 27.489837398373982,10.111788617886178 27.693089430894307,9.75609756097561 27.896341463414632,9.451219512195122 28.099593495934958,9.146341463414634 28.302845528455283,8.892276422764228 28.455284552845526,8.58739837398374 28.60772357723577,8.282520325203253 28.810975609756095,7.977642276422764 29.01422764227642,7.723577235772358 29.166666666666664,7.41869918699187 29.31910569105691,7.164634146341463 29.420731707317074,6.961382113821138 29.522357723577237,6.758130081300813 29.573170731707318,6.554878048780488 29.573170731707318,6.402439024390244 29.573170731707318,6.25 29.573170731707318,6.1483739837398375 29.573170731707318,5.995934959349594 29.573170731707318,5.894308943089431 29.522357723577237,5.741869918699187 29.471544715447155,5.691056910569106 29.420731707317074,5.589430894308943" fill="none" stroke="black" stroke-width="0.6"></polyline><polyline points="29.420731707317074,5.589430894308943 29.369918699186993,5.538617886178861 29.31910569105691,5.48780487804878 29.217479674796746,5.48780487804878 29.115853658536583,5.48780487804878 29.01422764227642,5.48780487804878 28.861788617886177,5.48780487804878 28.709349593495933,5.538617886178861 28.55691056910569,5.640243902439024 28.404471544715445,5.741869918699187 28.2520325203252,5.894308943089431 28.048780487804876,6.097560975609756 27.84552845528455,6.300813008130081 27.642276422764226,6.504065040650406 27.4390243902439,6.7073170731707314 27.235772357723576,6.961382113821138 27.03252032520325,7.215447154471544 26.829268292682926,7.469512195121951 26.6260162601626,7.723577235772358 26.473577235772357,8.028455284552845 26.321138211382113,8.282520325203253 26.16869918699187,8.638211382113822 26.067073170731707,8.94308943089431 25.965447154471544,9.247967479674797 25.86382113821138,9.603658536585366 25.76219512195122,9.908536585365853 25.660569105691057,10.315040650406504 25.558943089430894,10.721544715447154 25.40650406504065,11.128048780487804 25.304878048780488,11.483739837398375 25.203252032520325,11.941056910569106 25.152439024390244,12.296747967479675 25.101626016260163,12.652439024390244 25.05081300813008,13.058943089430894 25.05081300813008,13.414634146341463 25.05081300813008,13.71951219512195 25.05081300813008,14.024390243902438 25.101626016260163,14.329268292682926 25.152439024390244,14.634146341463413 25.203252032520325,14.888211382113822 25.304878048780488,15.142276422764228 25.45731707317073,15.345528455284553 25.609756097560975,15.59959349593496 25.76219512195122,15.701219512195122 25.965447154471544,15.853658536585366 26.16869918699187,15.955284552845528 26.422764227642276,16.05691056910569 26.676829268292682,16.10772357723577 26.93089430894309,16.209349593495933 27.235772357723576,16.260162601626014 27.489837398373982,16.260162601626014" fill="none" stroke="black" stroke-width="0.6"></polyline><polyline points="27.489837398373982,16.260162601626014 27.79471544715447,16.3109756097561 28.048780487804876,16.3109756097561 28.353658536585364,16.3109756097561 28.60772357723577,16.260162601626014 28.912601626016258,16.209349593495933 29.217479674796746,16.10772357723577 29.522357723577237,15.955284552845528 29.878048780487806,15.802845528455284 30.233739837398375,15.65040650406504 30.640243902439025,15.447154471544716 30.945121951219512,15.24390243902439 31.30081300813008,15.040650406504065 31.60569105691057,14.786585365853659 31.910569105691057,14.53252032520325 32.16463414634146,14.278455284552845 32.36788617886179,14.024390243902438 32.57113821138211,13.821138211382113 32.72357723577236,13.617886178861788 32.82520325203252,13.414634146341463 32.926829268292686,13.262195121951219 32.97764227642276,13.058943089430894 33.02845528455285,12.90650406504065 33.02845528455285,12.754065040650406 33.079268292682926,12.601626016260163 33.079268292682926,12.5 33.079268292682926,12.398373983739837 33.02845528455285,12.296747967479675 32.97764227642276,12.195121951219512 32.926829268292686,12.144308943089431 32.82520325203252,12.09349593495935 32.672764227642276,12.09349593495935 32.57113821138211,12.09349593495935 32.418699186991866,12.144308943089431 32.266260162601625,12.195121951219512 32.11382113821138,12.296747967479675 31.910569105691057,12.398373983739837 31.758130081300813,12.5 31.60569105691057,12.652439024390244 31.402439024390244,12.855691056910569 31.25,13.008130081300813 31.097560975609756,13.211382113821138 30.995934959349594,13.414634146341463 30.945121951219512,13.567073170731707 30.89430894308943,13.770325203252032 30.89430894308943,13.973577235772357 30.89430894308943,14.176829268292682 30.945121951219512,14.380081300813007 30.995934959349594,14.583333333333332 31.097560975609756,14.786585365853659 31.19918699186992,14.989837398373984" fill="none" stroke="black" stroke-width="0.6"></polyline><polyline points="31.19918699186992,14.989837398373984 31.30081300813008,15.19308943089431 31.453252032520325,15.345528455284553 31.60569105691057,15.497967479674797 31.808943089430894,15.65040650406504 32.012195121951216,15.752032520325203 32.21544715447154,15.802845528455284 32.46951219512195,15.904471544715447 32.72357723577236,15.904471544715447 32.97764227642276,15.904471544715447 33.23170731707317,15.955284552845528 33.485772357723576,15.955284552845528 33.790650406504064,15.955284552845528 34.04471544715447,15.955284552845528 34.34959349593496,15.955284552845528 34.65447154471545,15.904471544715447 34.959349593495936,15.853658536585366 35.264227642276424,15.802845528455284 35.51829268292683,15.752032520325203 35.8739837398374,15.65040650406504 36.1280487804878,15.548780487804878 36.43292682926829,15.447154471544716 36.6869918699187,15.294715447154472 36.9410569105691,15.19308943089431 37.19512195121951,15.040650406504065 37.39837398373984,14.888211382113822 37.60162601626016,14.735772357723578 37.7540650406504,14.53252032520325 37.95731707317073,14.380081300813007 38.109756097560975,14.176829268292682 38.262195121951216,14.024390243902438 38.46544715447154,13.821138211382113 38.5670731707317,13.66869918699187 38.71951219512195,13.516260162601625 38.87195121951219,13.3130081300813 38.97357723577235,13.160569105691057 39.07520325203252,13.058943089430894 39.22764227642276,12.90650406504065 39.27845528455285,12.804878048780488 39.38008130081301,12.754065040650406 39.43089430894309,12.703252032520325 39.48170731707317,12.652439024390244 39.48170731707317,12.652439024390244 39.53252032520325,12.652439024390244 39.53252032520325,12.652439024390244 39.53252032520325,12.652439024390244 39.53252032520325,12.652439024390244 39.583333333333336,12.652439024390244 39.63414634146341,12.652439024390244 39.63414634146341,12.652439024390244 39.6849593495935,12.703252032520325" fill="none" stroke="black" stroke-width="0.6"></polyline><polyline points="39.6849593495935,12.703252032520325 39.735772357723576,12.754065040650406 39.78658536585366,12.804878048780488 39.78658536585366,12.90650406504065 39.83739837398374,13.008130081300813 39.83739837398374,13.160569105691057 39.83739837398374,13.3130081300813 39.83739837398374,13.465447154471544 39.83739837398374,13.66869918699187 39.83739837398374,13.871951219512194 39.78658536585366,14.1260162601626 39.735772357723576,14.380081300813007 39.6849593495935,14.634146341463413 39.583333333333336,14.888211382113822 39.53252032520325,15.142276422764228 39.48170731707317,15.345528455284553 39.38008130081301,15.548780487804878 39.27845528455285,15.752032520325203 39.22764227642276,15.853658536585366 39.176829268292686,15.955284552845528 39.1260162601626,16.006097560975608 39.07520325203252,16.05691056910569 38.97357723577235,16.05691056910569 38.922764227642276,16.05691056910569 38.82113821138211,16.05691056910569 38.668699186991866,16.05691056910569 38.5670731707317,16.006097560975608 38.41463414634146,16.006097560975608 38.3130081300813,15.955284552845528 38.262195121951216,15.904471544715447 38.21138211382114,15.853658536585366 38.21138211382114,15.802845528455284 38.21138211382114,15.752032520325203 38.21138211382114,15.752032520325203 38.21138211382114,15.701219512195122 38.21138211382114,15.701219512195122 38.21138211382114,15.701219512195122 38.21138211382114,15.701219512195122 38.21138211382114,15.65040650406504 38.262195121951216,15.65040650406504 38.262195121951216,15.65040650406504 38.3130081300813,15.65040650406504 38.36382113821138,15.65040650406504 38.46544715447154,15.701219512195122 38.5670731707317,15.701219512195122 38.668699186991866,15.752032520325203 38.82113821138211,15.752032520325203 39.02439024390244,15.752032520325203 39.22764227642276,15.752032520325203 39.53252032520325,15.752032520325203 39.83739837398374,15.701219512195122" fill="none" stroke="black" stroke-width="0.6"></polyline><polyline points="39.83739837398374,15.701219512195122 40.19308943089431,15.59959349593496 40.548780487804876,15.548780487804878 40.90447154471545,15.396341463414634 41.209349593495936,15.294715447154472 41.514227642276424,15.142276422764228 41.76829268292683,14.989837398373984 42.073170731707314,14.888211382113822 42.327235772357724,14.735772357723578 42.53048780487805,14.634146341463413 42.78455284552845,14.53252032520325 42.9369918699187,14.380081300813007" fill="none" stroke="black" stroke-width="0.6"></polyline><polyline points="21.08739837398374,36.38211382113821 21.1890243902439,36.33130081300813 21.341463414634145,36.077235772357724 21.54471544715447,35.823170731707314 21.697154471544714,35.72154471544715 21.95121951219512,35.56910569105691 22.256097560975608,35.36585365853659 22.611788617886177,35.16260162601626 22.865853658536587,34.959349593495936 23.170731707317074,34.65447154471545 23.526422764227643,34.34959349593496 23.83130081300813,34.09552845528455 24.13617886178862,33.739837398373986 24.441056910569106,33.4349593495935 24.695121951219512,33.13008130081301 25,32.77439024390244 25.254065040650406,32.36788617886179 25.508130081300813,31.961382113821138 25.76219512195122,31.554878048780488 26.016260162601625,31.097560975609756 26.21951219512195,30.691056910569106 26.422764227642276,30.284552845528456 26.676829268292682,29.827235772357724 26.829268292682926,29.420731707317074 27.03252032520325,29.01422764227642 27.235772357723576,28.60772357723577 27.33739837398374,28.2520325203252 27.4390243902439,27.947154471544714 27.489837398373982,27.540650406504064 27.489837398373982,27.286585365853657 27.489837398373982,26.98170731707317 27.489837398373982,26.778455284552845 27.489837398373982,26.6260162601626 27.38821138211382,26.473577235772357 27.286585365853657,26.321138211382113 27.184959349593495,26.270325203252032 27.083333333333332,26.270325203252032 26.93089430894309,26.21951219512195 26.778455284552845,26.270325203252032 26.57520325203252,26.371951219512194 26.371951219512194,26.524390243902438 26.16869918699187,26.676829268292682 25.965447154471544,26.93089430894309 25.711382113821138,27.184959349593495 25.45731707317073,27.540650406504064 25.203252032520325,27.896341463414632 24.898373983739837,28.353658536585364 24.64430894308943,28.760162601626014 24.390243902439025,29.268292682926827 24.1869918699187,29.776422764227643 24.034552845528456,30.284552845528456" fill="none" stroke="black" stroke-width="0.6"></polyline><polyline points="24.034552845528456,30.284552845528456 23.983739837398375,30.741869918699187 23.932926829268293,31.25 23.932926829268293,31.70731707317073 23.932926829268293,32.16463414634146 23.932926829268293,32.6219512195122 23.983739837398375,33.02845528455285 24.085365853658537,33.38414634146341 24.23780487804878,33.790650406504064 24.390243902439025,34.09552845528455 24.59349593495935,34.451219512195124 24.847560975609756,34.80691056910569 25.05081300813008,35.11178861788618 25.304878048780488,35.416666666666664 25.609756097560975,35.61991869918699 25.914634146341463,35.823170731707314 26.21951219512195,35.92479674796748 26.6260162601626,36.02642276422764 26.98170731707317,36.077235772357724 27.38821138211382,36.077235772357724 27.79471544715447,36.02642276422764 28.20121951219512,35.92479674796748 28.65853658536585,35.77235772357724 29.0650406504065,35.61991869918699 29.471544715447155,35.416666666666664 29.928861788617887,35.21341463414634 30.284552845528456,34.959349593495936 30.640243902439025,34.70528455284553 30.995934959349594,34.451219512195124 31.30081300813008,34.146341463414636 31.60569105691057,33.84146341463415 31.910569105691057,33.53658536585366 32.11382113821138,33.23170731707317 32.266260162601625,32.97764227642276 32.418699186991866,32.672764227642276 32.46951219512195,32.418699186991866 32.57113821138211,32.16463414634146 32.57113821138211,31.859756097560975 32.6219512195122,31.70731707317073 32.57113821138211,31.554878048780488 32.52032520325203,31.402439024390244 32.418699186991866,31.30081300813008 32.3170731707317,31.25 32.16463414634146,31.19918699186992 32.012195121951216,31.19918699186992 31.859756097560975,31.19918699186992 31.60569105691057,31.25 31.402439024390244,31.30081300813008 31.19918699186992,31.402439024390244 30.945121951219512,31.554878048780488 30.691056910569106,31.70731707317073" fill="none" stroke="black" stroke-width="0.6"></polyline><polyline points="30.691056910569106,31.70731707317073 30.48780487804878,31.961382113821138 30.233739837398375,32.21544715447154 30.08130081300813,32.418699186991866 29.878048780487806,32.72357723577236 29.776422764227643,33.02845528455285 29.67479674796748,33.28252032520325 29.6239837398374,33.58739837398374 29.6239837398374,33.94308943089431 29.6239837398374,34.197154471544714 29.725609756097562,34.451219512195124 29.827235772357724,34.65447154471545 30.03048780487805,34.857723577235774 30.182926829268293,35.010162601626014 30.4369918699187,35.21341463414634 30.691056910569106,35.3150406504065 30.945121951219512,35.46747967479675 31.25,35.56910569105691 31.60569105691057,35.61991869918699 31.961382113821138,35.670731707317074 32.36788617886179,35.670731707317074 32.77439024390244,35.670731707317074 33.18089430894309,35.61991869918699 33.63821138211382,35.51829268292683 34.09552845528455,35.36585365853659 34.552845528455286,35.21341463414634 35.010162601626014,35.010162601626014 35.416666666666664,34.80691056910569 35.8739837398374,34.552845528455286 36.28048780487805,34.2479674796748 36.636178861788615,33.99390243902439 36.99186991869919,33.6890243902439 37.34756097560975,33.38414634146341 37.60162601626016,33.079268292682926 37.90650406504065,32.77439024390244 38.16056910569105,32.46951219512195 38.41463414634146,32.16463414634146 38.668699186991866,31.910569105691057 38.87195121951219,31.70731707317073 39.07520325203252,31.554878048780488 39.27845528455285,31.402439024390244 39.38008130081301,31.30081300813008 39.53252032520325,31.19918699186992 39.63414634146341,31.148373983739837 39.735772357723576,31.097560975609756 39.78658536585366,31.046747967479675 39.88821138211382,30.995934959349594 39.88821138211382,30.995934959349594 39.9390243902439,30.995934959349594 39.989837398373986,30.995934959349594 39.989837398373986,31.046747967479675" fill="none" stroke="black" stroke-width="0.6"></polyline><polyline points="39.989837398373986,31.046747967479675 40.040650406504064,31.097560975609756 40.040650406504064,31.19918699186992 40.040650406504064,31.30081300813008 40.040650406504064,31.504065040650406 40.040650406504064,31.65650406504065 39.989837398373986,31.859756097560975 39.9390243902439,32.11382113821138 39.83739837398374,32.36788617886179 39.735772357723576,32.57113821138211 39.63414634146341,32.82520325203252 39.48170731707317,33.079268292682926 39.329268292682926,33.28252032520325 39.176829268292686,33.485772357723576 39.02439024390244,33.6890243902439 38.87195121951219,33.892276422764226 38.77032520325203,33.99390243902439 38.61788617886179,34.197154471544714 38.46544715447154,34.298780487804876 38.36382113821138,34.40040650406504 38.21138211382114,34.5020325203252 38.16056910569105,34.603658536585364 38.109756097560975,34.603658536585364 38.05894308943089,34.65447154471545 38.00813008130081,34.65447154471545 37.95731707317073,34.65447154471545 37.95731707317073,34.65447154471545 37.90650406504065,34.65447154471545 37.855691056910565,34.603658536585364 37.855691056910565,34.603658536585364 37.855691056910565,34.603658536585364 37.855691056910565,34.552845528455286 37.80487804878049,34.552845528455286 37.80487804878049,34.552845528455286 37.80487804878049,34.603658536585364 37.7540650406504,34.65447154471545 37.7540650406504,34.70528455284553 37.7540650406504,34.80691056910569 37.7540650406504,34.90853658536585 37.7540650406504,34.959349593495936 37.80487804878049,35.0609756097561 37.855691056910565,35.11178861788618 38.00813008130081,35.16260162601626 38.109756097560975,35.21341463414634 38.3130081300813,35.21341463414634 38.516260162601625,35.21341463414634 38.82113821138211,35.21341463414634 39.1260162601626,35.11178861788618 39.38008130081301,35.010162601626014 39.6849593495935,34.90853658536585 39.989837398373986,34.80691056910569" fill="none" stroke="black" stroke-width="0.6"></polyline><polyline points="39.989837398373986,34.80691056910569 40.24390243902439,34.65447154471545 40.4979674796748,34.552845528455286 40.7520325203252,34.40040650406504 40.90447154471545,34.298780487804876 41.107723577235774,34.146341463414636 41.260162601626014,34.04471544715447 41.41260162601626,33.94308943089431 41.5650406504065,33.84146341463415" fill="none" stroke="black" stroke-width="0.6"></polyline><polyline points="19.766260162601625,56.91056910569105 19.817073170731707,56.80894308943089 19.96951219512195,56.605691056910565 20.121951219512194,56.453252032520325 20.3760162601626,56.25 20.68089430894309,56.046747967479675 21.036585365853657,55.792682926829265 21.392276422764226,55.48780487804878 21.747967479674795,55.18292682926829 22.103658536585364,54.8780487804878 22.459349593495933,54.573170731707314 22.865853658536587,54.26829268292683 23.170731707317074,53.96341463414634 23.475609756097562,53.607723577235774 23.78048780487805,53.2520325203252 24.034552845528456,52.896341463414636 24.339430894308943,52.540650406504064 24.59349593495935,52.13414634146341 24.898373983739837,51.77845528455284 25.152439024390244,51.32113821138211 25.40650406504065,50.91463414634146 25.609756097560975,50.50813008130081 25.76219512195122,50.15243902439024 25.965447154471544,49.74593495934959 26.16869918699187,49.33943089430894 26.321138211382113,48.93292682926829 26.473577235772357,48.52642276422764 26.6260162601626,48.22154471544715 26.727642276422763,47.86585365853659 26.778455284552845,47.5609756097561 26.829268292682926,47.25609756097561 26.829268292682926,47.052845528455286 26.829268292682926,46.798780487804876 26.778455284552845,46.646341463414636 26.727642276422763,46.49390243902439 26.6260162601626,46.34146341463415 26.524390243902438,46.239837398373986 26.422764227642276,46.13821138211382 26.270325203252032,46.08739837398374 26.16869918699187,46.08739837398374 26.016260162601625,46.08739837398374 25.86382113821138,46.13821138211382 25.711382113821138,46.290650406504064 25.45731707317073,46.44308943089431 25.254065040650406,46.697154471544714 25,46.951219512195124 24.695121951219512,47.30691056910569 24.441056910569106,47.66260162601626 24.1869918699187,48.01829268292683 23.932926829268293,48.47560975609756 23.729674796747968,48.88211382113821" fill="none" stroke="black" stroke-width="0.6"></polyline><polyline points="23.729674796747968,48.88211382113821 23.577235772357724,49.28861788617886 23.42479674796748,49.796747967479675 23.3739837398374,50.2540650406504 23.272357723577237,50.71138211382114 23.221544715447155,51.168699186991866 23.221544715447155,51.575203252032516 23.221544715447155,52.03252032520325 23.221544715447155,52.489837398373986 23.221544715447155,52.84552845528455 23.3739837398374,53.201219512195124 23.526422764227643,53.55691056910569 23.678861788617887,53.91260162601626 23.882113821138212,54.21747967479675 24.085365853658537,54.573170731707314 24.288617886178862,54.827235772357724 24.54268292682927,55.08130081300813 24.847560975609756,55.28455284552845 25.203252032520325,55.386178861788615 25.558943089430894,55.4369918699187 26.016260162601625,55.48780487804878 26.422764227642276,55.48780487804878 26.829268292682926,55.48780487804878 27.286585365853657,55.48780487804878 27.693089430894307,55.386178861788615 28.099593495934958,55.33536585365854 28.455284552845526,55.233739837398375 28.810975609756095,55.13211382113821 29.166666666666664,54.979674796747965 29.522357723577237,54.827235772357724 29.878048780487806,54.6239837398374 30.182926829268293,54.36991869918699 30.538617886178862,54.166666666666664 30.84349593495935,53.91260162601626 31.046747967479675,53.65853658536585 31.30081300813008,53.40447154471545 31.402439024390244,53.201219512195124 31.554878048780488,52.947154471544714 31.65650406504065,52.74390243902439 31.70731707317073,52.540650406504064 31.70731707317073,52.33739837398374 31.70731707317073,52.13414634146341 31.65650406504065,51.981707317073166 31.554878048780488,51.880081300813 31.453252032520325,51.72764227642276 31.30081300813008,51.67682926829268 31.148373983739837,51.575203252032516 30.945121951219512,51.52439024390244 30.741869918699187,51.52439024390244 30.538617886178862,51.52439024390244 30.335365853658537,51.52439024390244" fill="none" stroke="black" stroke-width="0.6"></polyline><polyline points="30.335365853658537,51.52439024390244 30.08130081300813,51.6260162601626 29.878048780487806,51.72764227642276 29.573170731707318,51.880081300813 29.369918699186993,52.03252032520325 29.115853658536583,52.28658536585366 28.861788617886177,52.540650406504064 28.65853658536585,52.74390243902439 28.506097560975608,52.9979674796748 28.404471544715445,53.2520325203252 28.353658536585364,53.50609756097561 28.353658536585364,53.760162601626014 28.353658536585364,53.96341463414634 28.404471544715445,54.166666666666664 28.506097560975608,54.420731707317074 28.65853658536585,54.573170731707314 28.810975609756095,54.72560975609756 29.01422764227642,54.8780487804878 29.268292682926827,54.979674796747965 29.522357723577237,55.08130081300813 29.827235772357724,55.18292682926829 30.132113821138212,55.233739837398375 30.538617886178862,55.233739837398375 30.945121951219512,55.233739837398375 31.402439024390244,55.18292682926829 31.808943089430894,55.13211382113821 32.266260162601625,55.03048780487805 32.672764227642276,54.92886178861789 33.13008130081301,54.827235772357724 33.58739837398374,54.67479674796748 34.04471544715447,54.52235772357724 34.451219512195124,54.36991869918699 34.90853658536585,54.166666666666664 35.3150406504065,53.96341463414634 35.670731707317074,53.65853658536585 36.1280487804878,53.40447154471545 36.43292682926829,53.09959349593496 36.78861788617886,52.84552845528455 37.09349593495935,52.59146341463415 37.34756097560975,52.33739837398374 37.60162601626016,52.13414634146341 37.80487804878049,51.880081300813 38.05894308943089,51.6260162601626 38.262195121951216,51.422764227642276 38.41463414634146,51.168699186991866 38.5670731707317,51.016260162601625 38.668699186991866,50.86382113821138 38.77032520325203,50.762195121951216 38.82113821138211,50.71138211382114 38.87195121951219,50.71138211382114 38.87195121951219,50.71138211382114" fill="none" stroke="black" stroke-width="0.6"></polyline><polyline points="38.87195121951219,50.71138211382114 38.87195121951219,50.71138211382114 38.87195121951219,50.71138211382114 38.87195121951219,50.71138211382114 38.87195121951219,50.8130081300813 38.82113821138211,50.91463414634146 38.77032520325203,51.016260162601625 38.71951219512195,51.168699186991866 38.668699186991866,51.37195121951219 38.61788617886179,51.575203252032516 38.5670731707317,51.72764227642276 38.516260162601625,51.93089430894309 38.46544715447154,52.1849593495935 38.36382113821138,52.4390243902439 38.3130081300813,52.642276422764226 38.262195121951216,52.896341463414636 38.16056910569105,53.09959349593496 38.05894308943089,53.353658536585364 37.95731707317073,53.55691056910569 37.7540650406504,53.760162601626014 37.60162601626016,54.014227642276424 37.39837398373984,54.21747967479675 37.24593495934959,54.36991869918699 37.09349593495935,54.52235772357724 36.9410569105691,54.6239837398374 36.890243902439025,54.67479674796748 36.78861788617886,54.72560975609756 36.6869918699187,54.72560975609756 36.636178861788615,54.72560975609756 36.53455284552845,54.72560975609756 36.483739837398375,54.72560975609756 36.38211382113821,54.67479674796748 36.28048780487805,54.6239837398374 36.229674796747965,54.573170731707314 36.1280487804878,54.573170731707314 36.077235772357724,54.52235772357724 36.02642276422764,54.52235772357724 35.92479674796748,54.52235772357724 35.8739837398374,54.52235772357724 35.8739837398374,54.573170731707314 35.823170731707314,54.6239837398374 35.823170731707314,54.67479674796748 35.823170731707314,54.72560975609756 35.823170731707314,54.827235772357724 35.8739837398374,54.8780487804878 35.97560975609756,54.92886178861789 36.1280487804878,54.979674796747965 36.28048780487805,55.03048780487805 36.483739837398375,55.03048780487805 36.73780487804878,55.03048780487805 36.99186991869919,55.03048780487805" fill="none" stroke="black" stroke-width="0.6"></polyline><polyline points="36.99186991869919,55.03048780487805 37.24593495934959,55.03048780487805 37.60162601626016,54.979674796747965 37.95731707317073,54.92886178861789 38.3130081300813,54.827235772357724 38.61788617886179,54.72560975609756 39.02439024390244,54.573170731707314 39.329268292682926,54.420731707317074 39.583333333333336,54.26829268292683 39.83739837398374,54.11585365853659 39.989837398373986,54.014227642276424 40.09146341463415,53.91260162601626 40.19308943089431,53.86178861788618 40.24390243902439,53.86178861788618 40.24390243902439,53.91260162601626 40.24390243902439,53.96341463414634" fill="none" stroke="black" stroke-width="0.6"></polyline><polyline points="21.697154471544714,75.45731707317073 21.697154471544714,75.45731707317073 21.697154471544714,75.45731707317073 21.697154471544714,75.40650406504065 21.697154471544714,75.40650406504065 21.747967479674795,75.35569105691057 21.798780487804876,75.30487804878048 21.95121951219512,75.20325203252033 22.205284552845526,75.05081300813008 22.459349593495933,74.84756097560975 22.815040650406505,74.59349593495935 23.221544715447155,74.28861788617886 23.526422764227643,73.98373983739837 23.83130081300813,73.57723577235772 24.13617886178862,73.17073170731707 24.390243902439025,72.8150406504065 24.59349593495935,72.40853658536585 24.898373983739837,72.0020325203252 25.152439024390244,71.59552845528455 25.40650406504065,71.13821138211382 25.660569105691057,70.68089430894308 25.86382113821138,70.22357723577235 26.067073170731707,69.8170731707317 26.270325203252032,69.35975609756098 26.422764227642276,68.85162601626016 26.6260162601626,68.39430894308943 26.778455284552845,67.88617886178862 26.93089430894309,67.47967479674797 27.03252032520325,67.07317073170732 27.083333333333332,66.66666666666667 27.083333333333332,66.36178861788618 27.083333333333332,66.10772357723577 26.98170731707317,65.90447154471545 26.880081300813007,65.7520325203252 26.727642276422763,65.65040650406505 26.57520325203252,65.59959349593495 26.422764227642276,65.59959349593495 26.21951219512195,65.59959349593495 26.016260162601625,65.59959349593495 25.76219512195122,65.70121951219512 25.508130081300813,65.85365853658537 25.254065040650406,66.0060975609756 25,66.15853658536585 24.745934959349594,66.36178861788618 24.54268292682927,66.61585365853658 24.339430894308943,66.869918699187 24.1869918699187,67.17479674796748 24.085365853658537,67.47967479674797 23.983739837398375,67.78455284552845 23.83130081300813,68.1910569105691 23.78048780487805,68.59756097560975" fill="none" stroke="black" stroke-width="0.6"></polyline><polyline points="23.78048780487805,68.59756097560975 23.678861788617887,69.05487804878048 23.577235772357724,69.61382113821138 23.475609756097562,70.0711382113821 23.3739837398374,70.52845528455285 23.323170731707318,71.03658536585365 23.272357723577237,71.4430894308943 23.272357723577237,71.84959349593495 23.323170731707318,72.2560975609756 23.42479674796748,72.5609756097561 23.628048780487806,72.86585365853658 23.78048780487805,73.17073170731707 23.983739837398375,73.42479674796748 24.23780487804878,73.67886178861788 24.54268292682927,73.9329268292683 24.847560975609756,74.08536585365853 25.254065040650406,74.23780487804878 25.660569105691057,74.33943089430895 26.067073170731707,74.39024390243902 26.473577235772357,74.4410569105691 26.880081300813007,74.4410569105691 27.286585365853657,74.49186991869918 27.693089430894307,74.49186991869918 28.15040650406504,74.4410569105691 28.506097560975608,74.33943089430895 28.861788617886177,74.23780487804878 29.268292682926827,74.08536585365853 29.573170731707318,73.8821138211382 29.928861788617887,73.67886178861788 30.233739837398375,73.42479674796748 30.48780487804878,73.22154471544715 30.741869918699187,72.96747967479675 30.945121951219512,72.71341463414635 31.097560975609756,72.45934959349593 31.19918699186992,72.2560975609756 31.30081300813008,72.10365853658537 31.351626016260163,71.95121951219512 31.351626016260163,71.79878048780488 31.351626016260163,71.69715447154472 31.30081300813008,71.59552845528455 31.25,71.54471544715447 31.148373983739837,71.49390243902438 30.995934959349594,71.49390243902438 30.84349593495935,71.49390243902438 30.691056910569106,71.49390243902438 30.48780487804878,71.54471544715447 30.335365853658537,71.59552845528455 30.132113821138212,71.69715447154472 29.979674796747968,71.79878048780488 29.827235772357724,71.90040650406505 29.67479674796748,72.0020325203252" fill="none" stroke="black" stroke-width="0.6"></polyline><polyline points="29.67479674796748,72.0020325203252 29.522357723577237,72.15447154471545 29.31910569105691,72.35772357723577 29.166666666666664,72.5609756097561 29.0650406504065,72.8150406504065 29.01422764227642,73.01829268292683 28.96341463414634,73.27235772357723 29.01422764227642,73.52642276422765 29.115853658536583,73.72967479674797 29.217479674796746,73.9329268292683 29.369918699186993,74.08536585365853 29.573170731707318,74.23780487804878 29.776422764227643,74.4410569105691 29.928861788617887,74.54268292682927 30.182926829268293,74.6951219512195 30.4369918699187,74.79674796747967 30.741869918699187,74.79674796747967 31.097560975609756,74.79674796747967 31.504065040650406,74.79674796747967 31.910569105691057,74.6951219512195 32.3170731707317,74.59349593495935 32.72357723577236,74.4410569105691 33.079268292682926,74.28861788617886 33.485772357723576,74.13617886178862 33.84146341463415,73.98373983739837 34.197154471544714,73.83130081300813 34.552845528455286,73.6280487804878 34.90853658536585,73.42479674796748 35.264227642276424,73.22154471544715 35.61991869918699,73.01829268292683 35.97560975609756,72.8150406504065 36.33130081300813,72.5609756097561 36.6869918699187,72.3069105691057 36.9410569105691,72.15447154471545 37.19512195121951,71.90040650406505 37.449186991869915,71.69715447154472 37.60162601626016,71.49390243902438 37.7540650406504,71.39227642276423 37.90650406504065,71.23983739837398 38.00813008130081,71.13821138211382 38.109756097560975,71.08739837398373 38.16056910569105,70.98577235772358 38.21138211382114,70.9349593495935 38.3130081300813,70.9349593495935 38.36382113821138,70.8841463414634 38.36382113821138,70.8841463414634 38.41463414634146,70.8841463414634 38.41463414634146,70.8841463414634 38.41463414634146,70.8841463414634 38.41463414634146,70.8841463414634 38.41463414634146,70.9349593495935" fill="none" stroke="black" stroke-width="0.6"></polyline><polyline points="38.41463414634146,70.9349593495935 38.41463414634146,71.03658536585365 38.41463414634146,71.1890243902439 38.41463414634146,71.29065040650406 38.41463414634146,71.4430894308943 38.36382113821138,71.59552845528455 38.36382113821138,71.7479674796748 38.36382113821138,71.95121951219512 38.3130081300813,72.15447154471545 38.3130081300813,72.35772357723577 38.262195121951216,72.5609756097561 38.16056910569105,72.8150406504065 38.05894308943089,73.0691056910569 37.95731707317073,73.27235772357723 37.80487804878049,73.52642276422765 37.60162601626016,73.72967479674797 37.39837398373984,73.8821138211382 37.19512195121951,74.03455284552845 36.99186991869919,74.13617886178862 36.83943089430894,74.1869918699187 36.636178861788615,74.23780487804878 36.483739837398375,74.28861788617886 36.33130081300813,74.28861788617886 36.229674796747965,74.28861788617886 36.077235772357724,74.28861788617886 36.02642276422764,74.28861788617886 35.92479674796748,74.28861788617886 35.8739837398374,74.23780487804878 35.8739837398374,74.23780487804878 35.8739837398374,74.23780487804878 35.8739837398374,74.23780487804878 35.8739837398374,74.23780487804878 35.8739837398374,74.23780487804878 35.92479674796748,74.28861788617886 35.97560975609756,74.33943089430895 36.077235772357724,74.33943089430895 36.1280487804878,74.39024390243902 36.28048780487805,74.4410569105691 36.43292682926829,74.49186991869918 36.58536585365854,74.54268292682927 36.83943089430894,74.54268292682927 37.14430894308943,74.54268292682927 37.5,74.54268292682927 37.95731707317073,74.4410569105691 38.46544715447154,74.28861788617886 38.87195121951219,74.13617886178862 39.27845528455285,73.9329268292683 39.63414634146341,73.72967479674797 39.88821138211382,73.57723577235772 40.040650406504064,73.47560975609755 40.142276422764226,73.3739837398374" fill="none" stroke="black" stroke-width="0.6"></polyline><polyline points="40.142276422764226,73.3739837398374 40.19308943089431,73.3739837398374 40.19308943089431,73.3739837398374 40.19308943089431,73.3739837398374 40.142276422764226,73.3739837398374" fill="none" stroke="black" stroke-width="0.6"></polyline><polyline points="20.833333333333332,95.42682926829268 20.985772357723576,95.27439024390243 21.13821138211382,95.1219512195122 21.341463414634145,94.96951219512195 21.59552845528455,94.8170731707317 21.849593495934958,94.61382113821138 22.256097560975608,94.3089430894309 22.611788617886177,94.0040650406504 23.01829268292683,93.64837398373983 23.42479674796748,93.29268292682927 23.729674796747968,92.88617886178862 23.983739837398375,92.53048780487805 24.288617886178862,92.1239837398374 24.491869918699187,91.76829268292683 24.695121951219512,91.41260162601625 24.94918699186992,91.0060975609756 25.203252032520325,90.54878048780488 25.508130081300813,90.14227642276423 25.76219512195122,89.6849593495935 26.016260162601625,89.27845528455285 26.270325203252032,88.8211382113821 26.473577235772357,88.36382113821138 26.676829268292682,87.90650406504065 26.93089430894309,87.5 27.083333333333332,87.14430894308943 27.235772357723576,86.73780487804878 27.33739837398374,86.3821138211382 27.4390243902439,86.02642276422765 27.4390243902439,85.72154471544715 27.4390243902439,85.51829268292683 27.4390243902439,85.3150406504065 27.38821138211382,85.16260162601625 27.33739837398374,85.01016260162602 27.235772357723576,84.90853658536585 27.083333333333332,84.85772357723577 26.98170731707317,84.7560975609756 26.829268292682926,84.7560975609756 26.676829268292682,84.7560975609756 26.524390243902438,84.7560975609756 26.321138211382113,84.7560975609756 26.16869918699187,84.85772357723577 26.016260162601625,85.01016260162602 25.8130081300813,85.16260162601625 25.609756097560975,85.36585365853658 25.40650406504065,85.619918699187 25.254065040650406,85.8739837398374 25.05081300813008,86.17886178861788 24.847560975609756,86.48373983739837 24.64430894308943,86.83943089430895 24.441056910569106,87.2459349593496 24.23780487804878,87.70325203252033" fill="none" stroke="black" stroke-width="0.6"></polyline><polyline points="24.23780487804878,87.70325203252033 24.034552845528456,88.16056910569105 23.882113821138212,88.61788617886178 23.678861788617887,89.1260162601626 23.526422764227643,89.53252032520325 23.3739837398374,89.98983739837398 23.221544715447155,90.4471544715447 23.06910569105691,90.85365853658536 22.96747967479675,91.3109756097561 22.865853658536587,91.76829268292683 22.865853658536587,92.07317073170732 22.865853658536587,92.3780487804878 22.916666666666668,92.6829268292683 23.01829268292683,92.9369918699187 23.170731707317074,93.1910569105691 23.3739837398374,93.39430894308943 23.577235772357724,93.59756097560975 23.78048780487805,93.75 24.034552845528456,93.90243902439025 24.288617886178862,94.0040650406504 24.54268292682927,94.10569105691057 24.847560975609756,94.20731707317073 25.152439024390244,94.2581300813008 25.45731707317073,94.2581300813008 25.86382113821138,94.2581300813008 26.270325203252032,94.20731707317073 26.6260162601626,94.10569105691057 27.083333333333332,93.95325203252033 27.489837398373982,93.80081300813008 27.947154471544714,93.54674796747967 28.353658536585364,93.34349593495935 28.709349593495933,93.08943089430895 29.0650406504065,92.88617886178862 29.420731707317074,92.6321138211382 29.67479674796748,92.3780487804878 29.979674796747968,92.17479674796748 30.182926829268293,91.97154471544715 30.38617886178862,91.76829268292683 30.538617886178862,91.5650406504065 30.640243902439025,91.41260162601625 30.691056910569106,91.26016260162602 30.691056910569106,91.10772357723577 30.691056910569106,91.0060975609756 30.640243902439025,90.95528455284553 30.538617886178862,90.90447154471545 30.4369918699187,90.85365853658536 30.284552845528456,90.85365853658536 30.132113821138212,90.85365853658536 29.928861788617887,90.85365853658536 29.725609756097562,90.95528455284553 29.522357723577237,91.0060975609756" fill="none" stroke="black" stroke-width="0.6"></polyline><polyline points="29.522357723577237,91.0060975609756 29.268292682926827,91.10772357723577 29.0650406504065,91.20934959349593 28.861788617886177,91.36178861788618 28.60772357723577,91.51422764227642 28.404471544715445,91.71747967479675 28.20121951219512,91.92073170731707 27.997967479674795,92.1239837398374 27.79471544715447,92.3780487804878 27.642276422764226,92.6321138211382 27.489837398373982,92.88617886178862 27.4390243902439,93.14024390243902 27.38821138211382,93.34349593495935 27.33739837398374,93.54674796747967 27.38821138211382,93.75 27.4390243902439,93.90243902439025 27.540650406504064,94.0040650406504 27.693089430894307,94.15650406504065 27.896341463414632,94.2581300813008 28.15040650406504,94.3089430894309 28.353658536585364,94.35975609756098 28.65853658536585,94.41056910569105 28.96341463414634,94.41056910569105 29.31910569105691,94.41056910569105 29.776422764227643,94.3089430894309 30.233739837398375,94.20731707317073 30.741869918699187,94.0040650406504 31.25,93.80081300813008 31.758130081300813,93.59756097560975 32.266260162601625,93.34349593495935 32.82520325203252,93.08943089430895 33.28252032520325,92.88617886178862 33.790650406504064,92.6321138211382 34.298780487804876,92.32723577235772 34.70528455284553,92.07317073170732 35.16260162601626,91.8191056910569 35.61991869918699,91.5650406504065 36.02642276422764,91.3109756097561 36.38211382113821,91.0569105691057 36.73780487804878,90.7520325203252 36.99186991869919,90.54878048780488 37.24593495934959,90.34552845528455 37.449186991869915,90.1930894308943 37.55081300813008,90.09146341463415 37.65243902439024,90.04065040650406 37.703252032520325,89.98983739837398 37.7540650406504,89.98983739837398 37.7540650406504,89.98983739837398 37.7540650406504,89.98983739837398 37.7540650406504,89.98983739837398 37.7540650406504,89.98983739837398" fill="none" stroke="black" stroke-width="0.6"></polyline><polyline points="37.7540650406504,89.98983739837398 37.703252032520325,90.04065040650406 37.703252032520325,90.09146341463415 37.65243902439024,90.1930894308943 37.65243902439024,90.29471544715447 37.60162601626016,90.39634146341463 37.55081300813008,90.54878048780488 37.5,90.70121951219512 37.449186991869915,90.90447154471545 37.39837398373984,91.0569105691057 37.34756097560975,91.3109756097561 37.24593495934959,91.51422764227642 37.14430894308943,91.71747967479675 37.042682926829265,91.97154471544715 36.890243902439025,92.22560975609755 36.78861788617886,92.42886178861788 36.636178861788615,92.6321138211382 36.53455284552845,92.83536585365853 36.38211382113821,93.03861788617886 36.229674796747965,93.24186991869918 36.077235772357724,93.39430894308943 35.92479674796748,93.54674796747967 35.72154471544715,93.69918699186992 35.46747967479675,93.85162601626016 35.21341463414634,93.95325203252033 34.959349593495936,94.05487804878048 34.75609756097561,94.10569105691057 34.552845528455286,94.15650406504065 34.40040650406504,94.15650406504065 34.298780487804876,94.15650406504065 34.197154471544714,94.15650406504065 34.09552845528455,94.10569105691057 34.09552845528455,94.05487804878048 34.04471544715447,94.05487804878048 34.04471544715447,94.05487804878048 34.04471544715447,94.0040650406504 34.04471544715447,94.0040650406504 34.04471544715447,94.0040650406504 34.04471544715447,94.0040650406504 34.04471544715447,94.0040650406504 34.146341463414636,94.0040650406504 34.197154471544714,94.0040650406504 34.34959349593496,94.0040650406504 34.5020325203252,94.0040650406504 34.65447154471545,94.0040650406504 34.90853658536585,93.95325203252033 35.11178861788618,93.90243902439025 35.416666666666664,93.85162601626016 35.77235772357724,93.75 36.17886178861789,93.64837398373983 36.636178861788615,93.4959349593496" fill="none" stroke="black" stroke-width="0.6"></polyline><polyline points="36.636178861788615,93.4959349593496 37.14430894308943,93.34349593495935 37.60162601626016,93.14024390243902 38.00813008130081,92.98780487804878 38.41463414634146,92.78455284552845 38.77032520325203,92.6829268292683 39.02439024390244,92.53048780487805 39.329268292682926,92.42886178861788 39.53252032520325,92.32723577235772 39.78658536585366,92.17479674796748 40.040650406504064,92.07317073170732 40.142276422764226,92.02235772357723" fill="none" stroke="black" stroke-width="0.6"></polyline></svg>