<svg height="100" width="100" preserveAspectRatio="xMidYMid meet"><polyline points="50.15243902439024,51.11788617886179 50.15243902439024,51.016260162601625 50.10162601626016,50.96544715447154 50.10162601626016,50.91463414634146 50.10162601626016,50.86382113821138 50.10162601626016,50.86382113821138 50.10162601626016,50.86382113821138 50.10162601626016,50.8130081300813 50.10162601626016,50.762195121951216 50.15243902439024,50.762195121951216 50.203252032520325,50.71138211382114 50.203252032520325,50.66056910569105 50.203252032520325,50.609756097560975 50.2540650406504,50.55894308943089 50.2540650406504,50.50813008130081 50.2540650406504,50.40650406504065 50.2540650406504,50.355691056910565 50.2540650406504,50.30487804878049 50.2540650406504,50.2540650406504 50.2540650406504,50.15243902439024 50.2540650406504,50.05081300813008 50.2540650406504,50 50.2540650406504,49.89837398373984 50.2540650406504,49.796747967479675 50.2540650406504,49.69512195121951 50.2540650406504,49.59349593495935 50.2540650406504,49.49186991869919 50.2540650406504,49.390243902439025 50.30487804878049,49.23780487804878 50.30487804878049,49.136178861788615 50.355691056910565,49.03455284552845 50.355691056910565,48.88211382113821 50.40650406504065,48.78048780487805 50.40650406504065,48.67886178861789 50.40650406504065,48.577235772357724 50.40650406504065,48.47560975609756 50.40650406504065,48.3739837398374 50.40650406504065,48.323170731707314 50.355691056910565,48.27235772357724 50.30487804878049,48.22154471544715 50.2540650406504,48.170731707317074 50.203252032520325,48.11991869918699 50.10162601626016,48.11991869918699 50.05081300813008,48.11991869918699 49.949186991869915,48.11991869918699 49.84756097560975,48.11991869918699 49.74593495934959,48.11991869918699 49.69512195121951,48.11991869918699 49.542682926829265,48.11991869918699 49.49186991869919,48.11991869918699 49.390243902439025,48.170731707317074" fill="none" stroke="black" stroke-width="0.6"></polyline><polyline points="49.390243902439025,48.170731707317074 49.28861788617886,48.170731707317074 49.1869918699187,48.22154471544715 49.08536585365854,48.27235772357724 48.983739837398375,48.27235772357724 48.88211382113821,48.323170731707314 48.78048780487805,48.3739837398374 48.6280487804878,48.47560975609756 48.52642276422764,48.52642276422764 48.42479674796748,48.6280487804878 48.27235772357724,48.67886178861789 48.11991869918699,48.78048780487805 48.01829268292683,48.83130081300813 47.86585365853659,48.93292682926829 47.71341463414634,48.983739837398375 47.61178861788618,49.08536585365854 47.510162601626014,49.136178861788615 47.40853658536585,49.23780487804878 47.30691056910569,49.28861788617886 47.25609756097561,49.390243902439025 47.15447154471545,49.4410569105691 47.052845528455286,49.542682926829265 46.951219512195124,49.64430894308943 46.84959349593496,49.69512195121951 46.7479674796748,49.796747967479675 46.646341463414636,49.89837398373984 46.49390243902439,50 46.392276422764226,50.10162601626016 46.290650406504064,50.203252032520325 46.1890243902439,50.30487804878049 46.08739837398374,50.355691056910565 46.03658536585366,50.50813008130081 45.985772357723576,50.55894308943089 45.9349593495935,50.71138211382114 45.88414634146341,50.8130081300813 45.833333333333336,50.91463414634146 45.78252032520325,51.016260162601625 45.73170731707317,51.168699186991866 45.68089430894309,51.27032520325203 45.68089430894309,51.37195121951219 45.63008130081301,51.47357723577235 45.63008130081301,51.575203252032516 45.63008130081301,51.67682926829268 45.63008130081301,51.77845528455284 45.63008130081301,51.829268292682926 45.63008130081301,51.93089430894309 45.63008130081301,52.03252032520325 45.68089430894309,52.083333333333336 45.73170731707317,52.1849593495935 45.78252032520325,52.28658536585366 45.78252032520325,52.33739837398374" fill="none" stroke="black" stroke-width="0.6"></polyline><polyline points="45.78252032520325,52.33739837398374 45.833333333333336,52.4390243902439 45.88414634146341,52.540650406504064 45.9349593495935,52.642276422764226 45.985772357723576,52.74390243902439 46.03658536585366,52.84552845528455 46.08739837398374,52.947154471544714 46.1890243902439,53.09959349593496 46.239837398373986,53.201219512195124 46.290650406504064,53.302845528455286 46.392276422764226,53.45528455284553 46.49390243902439,53.55691056910569 46.646341463414636,53.65853658536585 46.798780487804876,53.8109756097561 46.90040650406504,53.91260162601626 47.052845528455286,54.014227642276424 47.25609756097561,54.0650406504065 47.357723577235774,54.166666666666664 47.510162601626014,54.21747967479675 47.71341463414634,54.26829268292683 47.86585365853659,54.31910569105691 48.01829268292683,54.420731707317074 48.170731707317074,54.47154471544715 48.323170731707314,54.52235772357724 48.42479674796748,54.573170731707314 48.577235772357724,54.67479674796748 48.67886178861789,54.72560975609756 48.78048780487805,54.827235772357724 48.83130081300813,54.8780487804878 48.93292682926829,54.92886178861789 49.03455284552845,54.979674796747965 49.136178861788615,55.08130081300813 49.1869918699187,55.13211382113821 49.28861788617886,55.18292682926829 49.4410569105691,55.18292682926829 49.542682926829265,55.233739837398375 49.69512195121951,55.28455284552845 49.89837398373984,55.28455284552845 50.05081300813008,55.28455284552845 50.203252032520325,55.33536585365854 50.40650406504065,55.33536585365854 50.55894308943089,55.386178861788615 50.71138211382114,55.386178861788615 50.86382113821138,55.386178861788615 51.016260162601625,55.4369918699187 51.168699186991866,55.4369918699187 51.32113821138211,55.4369918699187 51.47357723577235,55.4369918699187 51.6260162601626,55.4369918699187 51.77845528455284,55.4369918699187 51.880081300813,55.4369918699187" fill="none" stroke="black" stroke-width="0.6"></polyline><polyline points="51.880081300813,55.4369918699187 51.981707317073166,55.386178861788615 52.13414634146341,55.33536585365854 52.235772357723576,55.28455284552845 52.33739837398374,55.233739837398375 52.4390243902439,55.18292682926829 52.540650406504064,55.13211382113821 52.642276422764226,55.08130081300813 52.79471544715447,55.03048780487805 52.896341463414636,54.979674796747965 52.9979674796748,54.92886178861789 53.15040650406504,54.827235772357724 53.2520325203252,54.77642276422764 53.353658536585364,54.72560975609756 53.50609756097561,54.6239837398374 53.607723577235774,54.573170731707314 53.709349593495936,54.47154471544715 53.8109756097561,54.36991869918699 53.86178861788618,54.31910569105691 53.96341463414634,54.21747967479675 54.0650406504065,54.11585365853659 54.11585365853659,54.0650406504065 54.166666666666664,53.96341463414634 54.21747967479675,53.86178861788618 54.26829268292683,53.8109756097561 54.31910569105691,53.760162601626014 54.31910569105691,53.65853658536585 54.36991869918699,53.55691056910569 54.420731707317074,53.45528455284553 54.47154471544715,53.353658536585364 54.47154471544715,53.2520325203252 54.52235772357724,53.15040650406504 54.6239837398374,53.048780487804876 54.67479674796748,52.947154471544714 54.77642276422764,52.79471544715447 54.8780487804878,52.69308943089431 54.979674796747965,52.59146341463415 55.08130081300813,52.489837398373986 55.13211382113821,52.38821138211382 55.233739837398375,52.28658536585366 55.28455284552845,52.1849593495935 55.386178861788615,52.083333333333336 55.4369918699187,52.03252032520325 55.48780487804878,51.93089430894309 55.53861788617886,51.829268292682926 55.53861788617886,51.72764227642276 55.58943089430894,51.6260162601626 55.58943089430894,51.52439024390244 55.640243902439025,51.422764227642276 55.640243902439025,51.32113821138211 55.6910569105691,51.21951219512195" fill="none" stroke="black" stroke-width="0.6"></polyline><polyline points="55.6910569105691,51.21951219512195 55.6910569105691,51.11788617886179 55.74186991869919,50.96544715447154 55.792682926829265,50.86382113821138 55.84349593495935,50.71138211382114 55.89430894308943,50.609756097560975 55.94512195121951,50.45731707317073 55.99593495934959,50.355691056910565 56.09756097560975,50.203252032520325 56.14837398373984,50.10162601626016 56.199186991869915,49.949186991869915 56.25,49.84756097560975 56.25,49.74593495934959 56.30081300813008,49.64430894308943 56.30081300813008,49.542682926829265 56.35162601626016,49.4410569105691 56.35162601626016,49.28861788617886 56.35162601626016,49.1869918699187 56.35162601626016,49.08536585365854 56.35162601626016,48.93292682926829 56.35162601626016,48.78048780487805 56.40243902439024,48.67886178861789 56.40243902439024,48.47560975609756 56.453252032520325,48.323170731707314 56.453252032520325,48.170731707317074 56.5040650406504,48.01829268292683 56.5040650406504,47.86585365853659 56.5040650406504,47.71341463414634 56.5040650406504,47.61178861788618 56.5040650406504,47.459349593495936 56.453252032520325,47.357723577235774 56.40243902439024,47.25609756097561 56.35162601626016,47.103658536585364 56.30081300813008,47.0020325203252 56.25,46.84959349593496 56.199186991869915,46.7479674796748 56.14837398373984,46.59552845528455 56.09756097560975,46.44308943089431 56.046747967479675,46.290650406504064 55.94512195121951,46.1890243902439 55.89430894308943,46.03658536585366 55.84349593495935,45.88414634146341 55.792682926829265,45.78252032520325 55.6910569105691,45.63008130081301 55.640243902439025,45.52845528455285 55.53861788617886,45.3760162601626 55.48780487804878,45.27439024390244 55.386178861788615,45.172764227642276 55.28455284552845,45.02032520325203 55.18292682926829,44.918699186991866 55.13211382113821,44.766260162601625" fill="none" stroke="black" stroke-width="0.6"></polyline><polyline points="55.13211382113821,44.766260162601625 55.03048780487805,44.66463414634146 54.92886178861789,44.5630081300813 54.8780487804878,44.46138211382114 54.827235772357724,44.30894308943089 54.72560975609756,44.20731707317073 54.67479674796748,44.15650406504065 54.573170731707314,44.05487804878049 54.52235772357724,43.953252032520325 54.420731707317074,43.90243902439024 54.31910569105691,43.80081300813008 54.166666666666664,43.75 54.0650406504065,43.64837398373984 53.96341463414634,43.59756097560975 53.86178861788618,43.546747967479675 53.760162601626014,43.44512195121951 53.65853658536585,43.39430894308943 53.50609756097561,43.34349593495935 53.40447154471545,43.24186991869919 53.2520325203252,43.1910569105691 53.15040650406504,43.08943089430894 52.9979674796748,43.03861788617886 52.84552845528455,42.98780487804878 52.69308943089431,42.9369918699187 52.540650406504064,42.886178861788615 52.33739837398374,42.83536585365854 52.13414634146341,42.78455284552845 51.981707317073166,42.733739837398375 51.77845528455284,42.68292682926829 51.575203252032516,42.68292682926829 51.422764227642276,42.63211382113821 51.21951219512195,42.58130081300813 51.0670731707317,42.53048780487805 50.91463414634146,42.479674796747965 50.762195121951216,42.42886178861789 50.609756097560975,42.3780487804878 50.45731707317073,42.27642276422764 50.30487804878049,42.22560975609756 50.10162601626016,42.17479674796748 49.949186991869915,42.1239837398374 49.74593495934959,42.073170731707314 49.59349593495935,42.02235772357724 49.390243902439025,42.02235772357724 49.23780487804878,41.97154471544715 49.03455284552845,41.97154471544715 48.83130081300813,41.920731707317074 48.67886178861789,41.920731707317074 48.52642276422764,41.920731707317074 48.323170731707314,41.86991869918699 48.170731707317074,41.86991869918699 48.01829268292683,41.86991869918699" fill="none" stroke="black" stroke-width="0.6"></polyline><polyline points="48.01829268292683,41.86991869918699 47.86585365853659,41.86991869918699 47.71341463414634,41.86991869918699 47.5609756097561,41.86991869918699 47.40853658536585,41.86991869918699 47.30691056910569,41.86991869918699 47.103658536585364,41.86991869918699 47.0020325203252,41.86991869918699 46.84959349593496,41.86991869918699 46.697154471544714,41.86991869918699 46.54471544715447,41.86991869918699 46.44308943089431,41.920731707317074 46.290650406504064,41.920731707317074 46.13821138211382,41.97154471544715 45.985772357723576,42.02235772357724 45.88414634146341,42.073170731707314 45.73170731707317,42.1239837398374 45.579268292682926,42.17479674796748 45.42682926829268,42.22560975609756 45.27439024390244,42.27642276422764 45.07113821138211,42.327235772357724 44.918699186991866,42.42886178861789 44.766260162601625,42.479674796747965 44.5630081300813,42.58130081300813 44.41056910569105,42.63211382113821 44.25813008130081,42.68292682926829 44.105691056910565,42.78455284552845 43.953252032520325,42.83536585365854 43.85162601626016,42.9369918699187 43.699186991869915,42.98780487804878 43.546747967479675,43.03861788617886 43.44512195121951,43.08943089430894 43.34349593495935,43.1910569105691 43.24186991869919,43.24186991869919 43.140243902439025,43.292682926829265 43.03861788617886,43.39430894308943 42.9369918699187,43.44512195121951 42.83536585365854,43.546747967479675 42.733739837398375,43.59756097560975 42.63211382113821,43.699186991869915 42.58130081300813,43.80081300813008 42.42886178861789,43.85162601626016 42.327235772357724,43.953252032520325 42.22560975609756,44.05487804878049 42.1239837398374,44.20731707317073 42.02235772357724,44.30894308943089 41.920731707317074,44.46138211382114 41.81910569105691,44.5630081300813 41.71747967479675,44.71544715447154 41.61585365853659,44.8170731707317 41.514227642276424,44.96951219512195" fill="none" stroke="black" stroke-width="0.6"></polyline><polyline points="41.514227642276424,44.96951219512195 41.41260162601626,45.07113821138211 41.36178861788618,45.172764227642276 41.260162601626014,45.27439024390244 41.209349593495936,45.42682926829268 41.15853658536585,45.52845528455285 41.107723577235774,45.63008130081301 41.05691056910569,45.73170731707317 41.00609756097561,45.833333333333336 40.95528455284553,45.985772357723576 40.90447154471545,46.08739837398374 40.802845528455286,46.1890243902439 40.7520325203252,46.34146341463415 40.7520325203252,46.44308943089431 40.701219512195124,46.59552845528455 40.65040650406504,46.7479674796748 40.59959349593496,46.84959349593496 40.548780487804876,47.0020325203252 40.4979674796748,47.15447154471545 40.447154471544714,47.25609756097561 40.34552845528455,47.40853658536585 40.29471544715447,47.5609756097561 40.24390243902439,47.71341463414634 40.19308943089431,47.8150406504065 40.142276422764226,47.96747967479675 40.09146341463415,48.06910569105691 40.040650406504064,48.170731707317074 40.040650406504064,48.323170731707314 40.040650406504064,48.42479674796748 39.989837398373986,48.577235772357724 39.989837398373986,48.729674796747965 39.989837398373986,48.88211382113821 39.9390243902439,48.983739837398375 39.9390243902439,49.136178861788615 39.88821138211382,49.28861788617886 39.88821138211382,49.4410569105691 39.83739837398374,49.542682926829265 39.83739837398374,49.69512195121951 39.78658536585366,49.84756097560975 39.78658536585366,49.949186991869915 39.78658536585366,50.05081300813008 39.78658536585366,50.15243902439024 39.78658536585366,50.2540650406504 39.78658536585366,50.355691056910565 39.83739837398374,50.50813008130081 39.83739837398374,50.609756097560975 39.88821138211382,50.71138211382114 39.88821138211382,50.86382113821138 39.9390243902439,50.96544715447154 39.9390243902439,51.11788617886179 39.9390243902439,51.27032520325203" fill="none" stroke="black" stroke-width="0.6"></polyline><polyline points="39.9390243902439,51.27032520325203 39.9390243902439,51.422764227642276 39.9390243902439,51.575203252032516 39.9390243902439,51.72764227642276 39.9390243902439,51.880081300813 39.9390243902439,51.981707317073166 39.9390243902439,52.13414634146341 39.9390243902439,52.28658536585366 39.9390243902439,52.38821138211382 39.9390243902439,52.540650406504064 39.989837398373986,52.642276422764226 40.040650406504064,52.74390243902439 40.09146341463415,52.84552845528455 40.142276422764226,52.947154471544714 40.19308943089431,53.048780487804876 40.24390243902439,53.15040650406504 40.24390243902439,53.2520325203252 40.29471544715447,53.353658536585364 40.34552845528455,53.45528455284553 40.34552845528455,53.55691056910569 40.396341463414636,53.65853658536585 40.396341463414636,53.760162601626014 40.396341463414636,53.91260162601626 40.447154471544714,54.014227642276424 40.4979674796748,54.11585365853659 40.4979674796748,54.21747967479675 40.548780487804876,54.31910569105691 40.548780487804876,54.47154471544715 40.59959349593496,54.573170731707314 40.65040650406504,54.67479674796748 40.65040650406504,54.77642276422764 40.701219512195124,54.92886178861789 40.7520325203252,55.03048780487805 40.802845528455286,55.13211382113821 40.802845528455286,55.233739837398375 40.853658536585364,55.33536585365854 40.90447154471545,55.4369918699187 40.95528455284553,55.53861788617886 41.00609756097561,55.640243902439025 41.05691056910569,55.74186991869919 41.107723577235774,55.84349593495935 41.15853658536585,55.94512195121951 41.260162601626014,55.99593495934959 41.3109756097561,56.09756097560975 41.36178861788618,56.14837398373984 41.41260162601626,56.25 41.46341463414634,56.30081300813008 41.514227642276424,56.40243902439024 41.5650406504065,56.5040650406504 41.61585365853659,56.605691056910565 41.666666666666664,56.65650406504065" fill="none" stroke="black" stroke-width="0.6"></polyline><polyline points="41.666666666666664,56.65650406504065 41.666666666666664,56.75813008130081 41.71747967479675,56.859756097560975 41.76829268292683,56.96138211382114 41.81910569105691,57.012195121951216 41.81910569105691,57.11382113821138 41.86991869918699,57.21544715447154 41.920731707317074,57.3170731707317 41.97154471544715,57.36788617886179 42.02235772357724,57.46951219512195 42.1239837398374,57.57113821138211 42.17479674796748,57.672764227642276 42.22560975609756,57.77439024390244 42.27642276422764,57.8760162601626 42.3780487804878,57.97764227642276 42.42886178861789,58.079268292682926 42.479674796747965,58.18089430894309 42.53048780487805,58.28252032520325 42.63211382113821,58.38414634146341 42.68292682926829,58.43495934959349 42.733739837398375,58.536585365853654 42.83536585365854,58.63821138211382 42.886178861788615,58.6890243902439 42.98780487804878,58.790650406504064 43.08943089430894,58.892276422764226 43.140243902439025,58.94308943089431 43.24186991869919,59.04471544715447 43.34349593495935,59.146341463414636 43.44512195121951,59.197154471544714 43.546747967479675,59.2479674796748 43.64837398373984,59.34959349593496 43.75,59.451219512195124 43.80081300813008,59.5020325203252 43.90243902439024,59.603658536585364 44.0040650406504,59.65447154471545 44.105691056910565,59.70528455284553 44.20731707317073,59.80691056910569 44.25813008130081,59.857723577235774 44.359756097560975,59.90853658536585 44.46138211382114,59.959349593495936 44.5630081300813,60.0609756097561 44.61382113821138,60.11178861788618 44.71544715447154,60.16260162601626 44.8170731707317,60.21341463414634 44.918699186991866,60.264227642276424 45.02032520325203,60.3150406504065 45.12195121951219,60.36585365853659 45.172764227642276,60.416666666666664 45.27439024390244,60.46747967479675 45.3760162601626,60.51829268292683 45.47764227642276,60.56910569105691" fill="none" stroke="black" stroke-width="0.6"></polyline><polyline points="45.47764227642276,60.56910569105691 45.52845528455285,60.61991869918699 45.63008130081301,60.670731707317074 45.73170731707317,60.72154471544715 45.833333333333336,60.77235772357724 45.9349593495935,60.823170731707314 46.03658536585366,60.823170731707314 46.1890243902439,60.92479674796748 46.290650406504064,60.97560975609756 46.392276422764226,61.02642276422764 46.54471544715447,61.1280487804878 46.646341463414636,61.17886178861789 46.7479674796748,61.229674796747965 46.90040650406504,61.28048780487805 47.052845528455286,61.38211382113821 47.20528455284553,61.43292682926829 47.357723577235774,61.483739837398375 47.459349593495936,61.58536585365854 47.61178861788618,61.636178861788615 47.71341463414634,61.6869918699187 47.8150406504065,61.78861788617886 47.96747967479675,61.83943089430894 48.06910569105691,61.890243902439025 48.170731707317074,61.9410569105691 48.27235772357724,61.99186991869919 48.3739837398374,62.042682926829265 48.52642276422764,62.042682926829265 48.6280487804878,62.09349593495935 48.729674796747965,62.09349593495935 48.83130081300813,62.09349593495935 48.983739837398375,62.09349593495935 49.136178861788615,62.09349593495935 49.28861788617886,62.09349593495935 49.4410569105691,62.09349593495935 49.542682926829265,62.09349593495935 49.69512195121951,62.09349593495935 49.84756097560975,62.09349593495935 50,62.09349593495935 50.15243902439024,62.042682926829265 50.30487804878049,62.042682926829265 50.45731707317073,62.042682926829265 50.609756097560975,62.042682926829265 50.762195121951216,61.99186991869919 50.91463414634146,61.99186991869919 51.0670731707317,61.9410569105691 51.27032520325203,61.9410569105691 51.422764227642276,61.890243902439025 51.575203252032516,61.890243902439025 51.72764227642276,61.83943089430894 51.880081300813,61.83943089430894 52.083333333333336,61.78861788617886" fill="none" stroke="black" stroke-width="0.6"></polyline><polyline points="52.083333333333336,61.78861788617886 52.235772357723576,61.73780487804878 52.38821138211382,61.6869918699187 52.540650406504064,61.636178861788615 52.69308943089431,61.636178861788615 52.84552845528455,61.58536585365854 52.947154471544714,61.53455284552845 53.09959349593496,61.483739837398375 53.2520325203252,61.43292682926829 53.353658536585364,61.38211382113821 53.50609756097561,61.38211382113821 53.65853658536585,61.33130081300813 53.760162601626014,61.33130081300813 53.91260162601626,61.28048780487805 54.014227642276424,61.28048780487805 54.166666666666664,61.229674796747965 54.26829268292683,61.229674796747965 54.36991869918699,61.17886178861789 54.47154471544715,61.17886178861789 54.573170731707314,61.17886178861789 54.67479674796748,61.1280487804878 54.77642276422764,61.1280487804878 54.827235772357724,61.1280487804878 54.92886178861789,61.077235772357724 55.03048780487805,61.02642276422764 55.08130081300813,61.02642276422764 55.18292682926829,60.97560975609756 55.28455284552845,60.92479674796748 55.4369918699187,60.823170731707314 55.58943089430894,60.77235772357724 55.74186991869919,60.72154471544715 55.94512195121951,60.61991869918699 56.14837398373984,60.56910569105691 56.30081300813008,60.51829268292683 56.5040650406504,60.416666666666664 56.65650406504065,60.36585365853659 56.859756097560975,60.3150406504065 57.012195121951216,60.264227642276424 57.16463414634146,60.21341463414634 57.3170731707317,60.11178861788618 57.418699186991866,60.0609756097561 57.57113821138211,60.010162601626014 57.72357723577235,59.959349593495936 57.825203252032516,59.857723577235774 57.97764227642276,59.80691056910569 58.130081300813,59.70528455284553 58.28252032520325,59.65447154471545 58.43495934959349,59.552845528455286 58.58739837398374,59.451219512195124 58.739837398373986,59.34959349593496 58.892276422764226,59.298780487804876" fill="none" stroke="black" stroke-width="0.6"></polyline><polyline points="58.892276422764226,59.298780487804876 58.99390243902439,59.146341463414636 59.146341463414636,59.04471544715447 59.298780487804876,58.94308943089431 59.451219512195124,58.84146341463415 59.603658536585364,58.6890243902439 59.80691056910569,58.58739837398374 59.959349593495936,58.485772357723576 60.11178861788618,58.33333333333333 60.21341463414634,58.231707317073166 60.36585365853659,58.130081300813 60.416666666666664,58.02845528455284 60.51829268292683,57.92682926829268 60.61991869918699,57.77439024390244 60.670731707317074,57.672764227642276 60.72154471544715,57.57113821138211 60.77235772357724,57.46951219512195 60.823170731707314,57.36788617886179 60.8739837398374,57.266260162601625 60.92479674796748,57.16463414634146 60.97560975609756,57.0630081300813 61.02642276422764,56.96138211382114 61.077235772357724,56.859756097560975 61.1280487804878,56.75813008130081 61.17886178861789,56.605691056910565 61.229674796747965,56.5040650406504 61.28048780487805,56.35162601626016 61.33130081300813,56.25 61.38211382113821,56.09756097560975 61.38211382113821,55.99593495934959 61.43292682926829,55.84349593495935 61.43292682926829,55.74186991869919 61.483739837398375,55.58943089430894 61.483739837398375,55.4369918699187 61.53455284552845,55.28455284552845 61.58536585365854,55.13211382113821 61.58536585365854,54.979674796747965 61.636178861788615,54.827235772357724 61.6869918699187,54.67479674796748 61.73780487804878,54.52235772357724 61.73780487804878,54.31910569105691 61.78861788617886,54.166666666666664 61.83943089430894,54.0650406504065 61.83943089430894,53.91260162601626 61.83943089430894,53.760162601626014 61.890243902439025,53.65853658536585 61.9410569105691,53.50609756097561 61.9410569105691,53.353658536585364 61.99186991869919,53.201219512195124 62.042682926829265,53.048780487804876 62.042682926829265,52.896341463414636" fill="none" stroke="black" stroke-width="0.6"></polyline><polyline points="62.042682926829265,52.896341463414636 62.09349593495935,52.74390243902439 62.14430894308943,52.59146341463415 62.19512195121951,52.4390243902439 62.24593495934959,52.28658536585366 62.296747967479675,52.083333333333336 62.34756097560975,51.93089430894309 62.449186991869915,51.77845528455284 62.5,51.6260162601626 62.60162601626016,51.47357723577235 62.65243902439024,51.32113821138211 62.703252032520325,51.21951219512195 62.7540650406504,51.0670731707317 62.7540650406504,50.96544715447154 62.80487804878049,50.86382113821138 62.855691056910565,50.71138211382114 62.855691056910565,50.609756097560975 62.855691056910565,50.50813008130081 62.90650406504065,50.40650406504065 62.90650406504065,50.2540650406504 62.90650406504065,50.15243902439024 62.95731707317073,50 63.00813008130081,49.84756097560975 63.05894308943089,49.74593495934959 63.109756097560975,49.59349593495935 63.16056910569105,49.4410569105691 63.21138211382114,49.28861788617886 63.262195121951216,49.1869918699187 63.3130081300813,49.03455284552845 63.36382113821138,48.88211382113821 63.36382113821138,48.78048780487805 63.41463414634146,48.6280487804878 63.41463414634146,48.47560975609756 63.46544715447154,48.323170731707314 63.46544715447154,48.170731707317074 63.46544715447154,48.01829268292683 63.46544715447154,47.916666666666664 63.46544715447154,47.764227642276424 63.46544715447154,47.61178861788618 63.46544715447154,47.459349593495936 63.41463414634146,47.357723577235774 63.36382113821138,47.20528455284553 63.36382113821138,47.103658536585364 63.3130081300813,46.951219512195124 63.262195121951216,46.84959349593496 63.21138211382114,46.697154471544714 63.16056910569105,46.54471544715447 63.109756097560975,46.44308943089431 63.109756097560975,46.290650406504064 63.05894308943089,46.13821138211382 63.00813008130081,45.985772357723576" fill="none" stroke="black" stroke-width="0.6"></polyline><polyline points="63.00813008130081,45.985772357723576 62.95731707317073,45.88414634146341 62.90650406504065,45.73170731707317 62.855691056910565,45.63008130081301 62.80487804878049,45.52845528455285 62.703252032520325,45.3760162601626 62.65243902439024,45.27439024390244 62.60162601626016,45.172764227642276 62.55081300813008,45.07113821138211 62.449186991869915,44.918699186991866 62.39837398373984,44.8170731707317 62.34756097560975,44.71544715447154 62.296747967479675,44.5630081300813 62.24593495934959,44.46138211382114 62.14430894308943,44.359756097560975 62.09349593495935,44.20731707317073 62.042682926829265,44.105691056910565 61.99186991869919,44.0040650406504 61.9410569105691,43.90243902439024 61.890243902439025,43.80081300813008 61.83943089430894,43.699186991869915 61.78861788617886,43.59756097560975 61.73780487804878,43.44512195121951 61.6869918699187,43.34349593495935 61.636178861788615,43.24186991869919 61.53455284552845,43.140243902439025 61.483739837398375,43.03861788617886 61.38211382113821,42.9369918699187 61.33130081300813,42.78455284552845 61.28048780487805,42.68292682926829 61.229674796747965,42.58130081300813 61.1280487804878,42.42886178861789 61.077235772357724,42.27642276422764 61.02642276422764,42.17479674796748 60.97560975609756,42.02235772357724 60.8739837398374,41.920731707317074 60.823170731707314,41.76829268292683 60.72154471544715,41.666666666666664 60.61991869918699,41.514227642276424 60.56910569105691,41.41260162601626 60.46747967479675,41.3109756097561 60.36585365853659,41.209349593495936 60.3150406504065,41.107723577235774 60.21341463414634,41.00609756097561 60.16260162601626,40.90447154471545 60.0609756097561,40.802845528455286 59.959349593495936,40.701219512195124 59.90853658536585,40.59959349593496 59.80691056910569,40.4979674796748 59.70528455284553,40.396341463414636 59.65447154471545,40.34552845528455" fill="none" stroke="black" stroke-width="0.6"></polyline><polyline points="59.65447154471545,40.34552845528455 59.603658536585364,40.24390243902439 59.5020325203252,40.142276422764226 59.451219512195124,40.040650406504064 59.34959349593496,39.9390243902439 59.298780487804876,39.78658536585366 59.2479674796748,39.6849593495935 59.146341463414636,39.583333333333336 59.09552845528455,39.48170731707317 59.04471544715447,39.38008130081301 58.94308943089431,39.27845528455285 58.892276422764226,39.22764227642276 58.790650406504064,39.1260162601626 58.739837398373986,39.07520325203252 58.63821138211382,38.97357723577235 58.58739837398374,38.922764227642276 58.485772357723576,38.87195121951219 58.43495934959349,38.77032520325203 58.38414634146341,38.71951219512195 58.33333333333333,38.668699186991866 58.231707317073166,38.61788617886179 58.18089430894309,38.5670731707317 58.130081300813,38.46544715447154 58.079268292682926,38.41463414634146 58.02845528455284,38.36382113821138 57.97764227642276,38.3130081300813 57.92682926829268,38.21138211382114 57.8760162601626,38.16056910569105 57.825203252032516,38.109756097560975 57.72357723577235,38.00813008130081 57.672764227642276,37.95731707317073 57.57113821138211,37.90650406504065 57.46951219512195,37.855691056910565 57.418699186991866,37.80487804878049 57.3170731707317,37.7540650406504 57.16463414634146,37.703252032520325 57.0630081300813,37.65243902439024 56.96138211382114,37.60162601626016 56.859756097560975,37.55081300813008 56.75813008130081,37.5 56.65650406504065,37.449186991869915 56.55487804878049,37.39837398373984 56.453252032520325,37.34756097560975 56.35162601626016,37.296747967479675 56.25,37.24593495934959 56.14837398373984,37.24593495934959 56.046747967479675,37.19512195121951 55.94512195121951,37.14430894308943 55.84349593495935,37.09349593495935 55.74186991869919,37.042682926829265 55.640243902439025,36.99186991869919" fill="none" stroke="black" stroke-width="0.6"></polyline><polyline points="55.640243902439025,36.99186991869919 55.53861788617886,36.9410569105691 55.4369918699187,36.890243902439025 55.28455284552845,36.83943089430894 55.18292682926829,36.78861788617886 55.03048780487805,36.73780487804878 54.8780487804878,36.6869918699187 54.72560975609756,36.636178861788615 54.573170731707314,36.58536585365854 54.420731707317074,36.53455284552845 54.26829268292683,36.483739837398375 54.0650406504065,36.483739837398375 53.91260162601626,36.43292682926829 53.709349593495936,36.43292682926829 53.55691056910569,36.38211382113821 53.40447154471545,36.38211382113821 53.201219512195124,36.38211382113821 53.048780487804876,36.38211382113821 52.896341463414636,36.38211382113821 52.74390243902439,36.33130081300813 52.59146341463415,36.33130081300813 52.489837398373986,36.28048780487805 52.38821138211382,36.28048780487805 52.235772357723576,36.229674796747965 52.13414634146341,36.229674796747965 51.981707317073166,36.17886178861789 51.880081300813,36.1280487804878 51.77845528455284,36.1280487804878 51.6260162601626,36.077235772357724 51.52439024390244,36.077235772357724 51.37195121951219,36.02642276422764 51.27032520325203,36.02642276422764 51.168699186991866,36.02642276422764 51.016260162601625,35.97560975609756 50.91463414634146,35.97560975609756 50.8130081300813,35.97560975609756 50.66056910569105,35.92479674796748 50.55894308943089,35.92479674796748 50.45731707317073,35.92479674796748 50.355691056910565,35.92479674796748 50.2540650406504,35.92479674796748 50.10162601626016,35.8739837398374 50.05081300813008,35.8739837398374 49.949186991869915,35.8739837398374 49.796747967479675,35.823170731707314 49.69512195121951,35.823170731707314 49.59349593495935,35.823170731707314 49.49186991869919,35.823170731707314 49.390243902439025,35.823170731707314 49.23780487804878,35.77235772357724 49.08536585365854,35.77235772357724" fill="none" stroke="black" stroke-width="0.6"></polyline><polyline points="49.08536585365854,35.77235772357724 48.983739837398375,35.77235772357724 48.83130081300813,35.77235772357724 48.67886178861789,35.77235772357724 48.52642276422764,35.77235772357724 48.3739837398374,35.77235772357724 48.170731707317074,35.77235772357724 48.01829268292683,35.77235772357724 47.86585365853659,35.77235772357724 47.71341463414634,35.77235772357724 47.5609756097561,35.77235772357724 47.357723577235774,35.77235772357724 47.20528455284553,35.77235772357724 47.052845528455286,35.77235772357724 46.84959349593496,35.77235772357724 46.697154471544714,35.77235772357724 46.49390243902439,35.77235772357724 46.290650406504064,35.77235772357724 46.13821138211382,35.77235772357724 45.9349593495935,35.77235772357724 45.73170731707317,35.77235772357724 45.52845528455285,35.77235772357724 45.325203252032516,35.823170731707314 45.12195121951219,35.823170731707314 44.96951219512195,35.823170731707314 44.766260162601625,35.823170731707314 44.5630081300813,35.8739837398374 44.41056910569105,35.8739837398374 44.20731707317073,35.92479674796748 44.0040650406504,35.92479674796748 43.85162601626016,35.92479674796748 43.699186991869915,35.97560975609756 43.546747967479675,36.02642276422764 43.39430894308943,36.02642276422764 43.24186991869919,36.077235772357724 43.140243902439025,36.1280487804878 42.98780487804878,36.1280487804878 42.886178861788615,36.17886178861789 42.78455284552845,36.229674796747965 42.63211382113821,36.28048780487805 42.53048780487805,36.33130081300813 42.42886178861789,36.38211382113821 42.327235772357724,36.43292682926829 42.17479674796748,36.483739837398375 42.02235772357724,36.58536585365854 41.86991869918699,36.636178861788615 41.76829268292683,36.73780487804878 41.61585365853659,36.78861788617886 41.514227642276424,36.83943089430894 41.36178861788618,36.890243902439025 41.260162601626014,36.99186991869919" fill="none" stroke="black" stroke-width="0.6"></polyline><polyline points="41.260162601626014,36.99186991869919 41.15853658536585,37.042682926829265 41.05691056910569,37.09349593495935 40.90447154471545,37.19512195121951 40.802845528455286,37.296747967479675 40.701219512195124,37.39837398373984 40.548780487804876,37.55081300813008 40.396341463414636,37.65243902439024 40.19308943089431,37.80487804878049 39.989837398373986,37.95731707317073 39.83739837398374,38.05894308943089 39.63414634146341,38.16056910569105 39.43089430894309,38.3130081300813 39.27845528455285,38.41463414634146 39.07520325203252,38.516260162601625 38.922764227642276,38.61788617886179 38.77032520325203,38.71951219512195 38.5670731707317,38.87195121951219 38.41463414634146,38.97357723577235 38.262195121951216,39.07520325203252 38.109756097560975,39.176829268292686 37.95731707317073,39.27845528455285 37.80487804878049,39.38008130081301 37.65243902439024,39.48170731707317 37.5,39.63414634146341 37.39837398373984,39.735772357723576 37.24593495934959,39.83739837398374 37.14430894308943,39.989837398373986 36.99186991869919,40.09146341463415 36.890243902439025,40.19308943089431 36.78861788617886,40.29471544715447 36.6869918699187,40.447154471544714 36.58536585365854,40.548780487804876 36.483739837398375,40.65040650406504 36.33130081300813,40.802845528455286 36.229674796747965,40.90447154471545 36.1280487804878,41.05691056910569 35.97560975609756,41.15853658536585 35.8739837398374,41.3109756097561 35.77235772357724,41.46341463414634 35.61991869918699,41.61585365853659 35.51829268292683,41.81910569105691 35.416666666666664,41.97154471544715 35.3150406504065,42.1239837398374 35.21341463414634,42.327235772357724 35.11178861788618,42.479674796747965 35.010162601626014,42.63211382113821 34.90853658536585,42.78455284552845 34.80691056910569,42.9369918699187 34.75609756097561,43.08943089430894 34.65447154471545,43.292682926829265" fill="none" stroke="black" stroke-width="0.6"></polyline><polyline points="34.65447154471545,43.292682926829265 34.603658536585364,43.44512195121951 34.552845528455286,43.59756097560975 34.5020325203252,43.80081300813008 34.451219512195124,43.953252032520325 34.451219512195124,44.15650406504065 34.40040650406504,44.30894308943089 34.34959349593496,44.512195121951216 34.298780487804876,44.66463414634146 34.2479674796748,44.8170731707317 34.2479674796748,44.96951219512195 34.197154471544714,45.172764227642276 34.146341463414636,45.325203252032516 34.09552845528455,45.47764227642276 34.04471544715447,45.63008130081301 34.04471544715447,45.833333333333336 33.99390243902439,45.985772357723576 33.99390243902439,46.13821138211382 33.94308943089431,46.290650406504064 33.94308943089431,46.44308943089431 33.94308943089431,46.59552845528455 33.892276422764226,46.798780487804876 33.84146341463415,47.0020325203252 33.84146341463415,47.15447154471545 33.790650406504064,47.357723577235774 33.790650406504064,47.510162601626014 33.739837398373986,47.71341463414634 33.739837398373986,47.916666666666664 33.6890243902439,48.11991869918699 33.6890243902439,48.323170731707314 33.63821138211382,48.52642276422764 33.58739837398374,48.729674796747965 33.58739837398374,48.93292682926829 33.53658536585366,49.136178861788615 33.53658536585366,49.33943089430894 33.485772357723576,49.49186991869919 33.485772357723576,49.69512195121951 33.485772357723576,49.84756097560975 33.485772357723576,50.05081300813008 33.485772357723576,50.2540650406504 33.485772357723576,50.40650406504065 33.485772357723576,50.609756097560975 33.485772357723576,50.8130081300813 33.485772357723576,51.016260162601625 33.485772357723576,51.21951219512195 33.485772357723576,51.47357723577235 33.485772357723576,51.67682926829268 33.485772357723576,51.880081300813 33.485772357723576,52.083333333333336 33.485772357723576,52.28658536585366 33.485772357723576,52.4390243902439" fill="none" stroke="black" stroke-width="0.6"></polyline><polyline points="33.485772357723576,52.4390243902439 33.53658536585366,52.69308943089431 33.53658536585366,52.84552845528455 33.53658536585366,53.09959349593496 33.58739837398374,53.2520325203252 33.58739837398374,53.45528455284553 33.58739837398374,53.709349593495936 33.63821138211382,53.86178861788618 33.63821138211382,54.0650406504065 33.63821138211382,54.21747967479675 33.63821138211382,54.420731707317074 33.6890243902439,54.573170731707314 33.6890243902439,54.77642276422764 33.6890243902439,54.92886178861789 33.6890243902439,55.13211382113821 33.739837398373986,55.33536585365854 33.739837398373986,55.48780487804878 33.739837398373986,55.6910569105691 33.739837398373986,55.89430894308943 33.790650406504064,56.046747967479675 33.84146341463415,56.199186991869915 33.892276422764226,56.35162601626016 33.94308943089431,56.5040650406504 33.99390243902439,56.65650406504065 34.04471544715447,56.80894308943089 34.09552845528455,56.96138211382114 34.09552845528455,57.0630081300813 34.146341463414636,57.21544715447154 34.197154471544714,57.36788617886179 34.2479674796748,57.52032520325203 34.298780487804876,57.672764227642276 34.34959349593496,57.77439024390244 34.34959349593496,57.92682926829268 34.451219512195124,58.02845528455284 34.5020325203252,58.18089430894309 34.552845528455286,58.28252032520325 34.603658536585364,58.38414634146341 34.65447154471545,58.536585365853654 34.70528455284553,58.63821138211382 34.80691056910569,58.790650406504064 34.80691056910569,58.892276422764226 34.857723577235774,58.99390243902439 34.90853658536585,59.146341463414636 34.959349593495936,59.2479674796748 35.010162601626014,59.40040650406504 35.0609756097561,59.552845528455286 35.11178861788618,59.70528455284553 35.21341463414634,59.80691056910569 35.264227642276424,59.959349593495936 35.3150406504065,60.0609756097561 35.36585365853659,60.16260162601626" fill="none" stroke="black" stroke-width="0.6"></polyline><polyline points="35.36585365853659,60.16260162601626 35.46747967479675,60.3150406504065 35.56910569105691,60.416666666666664 35.670731707317074,60.51829268292683 35.77235772357724,60.670731707317074 35.823170731707314,60.77235772357724 35.97560975609756,60.8739837398374 36.077235772357724,60.97560975609756 36.17886178861789,61.1280487804878 36.28048780487805,61.229674796747965 36.38211382113821,61.38211382113821 36.43292682926829,61.53455284552845 36.53455284552845,61.6869918699187 36.636178861788615,61.83943089430894 36.73780487804878,61.99186991869919 36.78861788617886,62.14430894308943 36.890243902439025,62.296747967479675 36.99186991869919,62.449186991869915 37.09349593495935,62.55081300813008 37.19512195121951,62.703252032520325 37.296747967479675,62.855691056910565 37.39837398373984,63.00813008130081 37.5,63.109756097560975 37.60162601626016,63.262195121951216 37.703252032520325,63.41463414634146 37.80487804878049,63.516260162601625 37.855691056910565,63.61788617886179 38.00813008130081,63.77032520325203 38.05894308943089,63.922764227642276 38.16056910569105,64.02439024390243 38.3130081300813,64.17682926829268 38.41463414634146,64.27845528455285 38.516260162601625,64.43089430894308 38.61788617886179,64.53252032520325 38.77032520325203,64.6849593495935 38.87195121951219,64.78658536585365 38.97357723577235,64.88821138211382 39.07520325203252,64.98983739837398 39.176829268292686,65.14227642276423 39.329268292682926,65.2439024390244 39.43089430894309,65.34552845528455 39.53252032520325,65.44715447154472 39.6849593495935,65.54878048780488 39.78658536585366,65.65040650406505 39.88821138211382,65.70121951219512 39.989837398373986,65.80284552845528 40.142276422764226,65.90447154471545 40.24390243902439,66.0060975609756 40.34552845528455,66.10772357723577 40.447154471544714,66.15853658536585 40.548780487804876,66.26016260162602" fill="none" stroke="black" stroke-width="0.6"></polyline><polyline points="40.548780487804876,66.26016260162602 40.701219512195124,66.3109756097561 40.7520325203252,66.41260162601625 40.853658536585364,66.46341463414635 40.95528455284553,66.51422764227642 41.05691056910569,66.61585365853658 41.107723577235774,66.66666666666667 41.209349593495936,66.76829268292683 41.3109756097561,66.8191056910569 41.36178861788618,66.869918699187 41.514227642276424,66.97154471544715 41.61585365853659,67.02235772357723 41.71747967479675,67.07317073170732 41.81910569105691,67.1239837398374 41.920731707317074,67.17479674796748 42.073170731707314,67.22560975609755 42.22560975609756,67.22560975609755 42.327235772357724,67.27642276422765 42.42886178861789,67.32723577235772 42.58130081300813,67.32723577235772 42.733739837398375,67.3780487804878 42.83536585365854,67.3780487804878 42.98780487804878,67.42886178861788 43.140243902439025,67.42886178861788 43.24186991869919,67.47967479674797 43.39430894308943,67.47967479674797 43.546747967479675,67.53048780487805 43.64837398373984,67.53048780487805 43.80081300813008,67.58130081300813 43.90243902439024,67.58130081300813 44.0040650406504,67.6321138211382 44.15650406504065,67.6321138211382 44.25813008130081,67.6829268292683 44.41056910569105,67.73373983739837 44.5630081300813,67.73373983739837 44.66463414634146,67.78455284552845 44.86788617886179,67.78455284552845 45.02032520325203,67.83536585365853 45.172764227642276,67.83536585365853 45.325203252032516,67.88617886178862 45.52845528455285,67.88617886178862 45.73170731707317,67.9369918699187 45.9349593495935,67.9369918699187 46.08739837398374,67.98780487804878 46.290650406504064,67.98780487804878 46.49390243902439,68.03861788617886 46.697154471544714,68.03861788617886 46.90040650406504,68.08943089430895 47.103658536585364,68.08943089430895 47.30691056910569,68.08943089430895 47.510162601626014,68.14024390243902" fill="none" stroke="black" stroke-width="0.6"></polyline><polyline points="47.510162601626014,68.14024390243902 47.71341463414634,68.14024390243902 47.86585365853659,68.14024390243902 48.01829268292683,68.14024390243902 48.22154471544715,68.1910569105691 48.42479674796748,68.1910569105691 48.577235772357724,68.1910569105691 48.78048780487805,68.1910569105691 48.983739837398375,68.1910569105691 49.1869918699187,68.1910569105691 49.4410569105691,68.1910569105691 49.59349593495935,68.14024390243902 49.84756097560975,68.14024390243902 50.05081300813008,68.08943089430895 50.2540650406504,68.03861788617886 50.50813008130081,68.03861788617886 50.71138211382114,67.98780487804878 50.91463414634146,67.98780487804878 51.168699186991866,67.98780487804878 51.422764227642276,67.9369918699187 51.6260162601626,67.9369918699187 51.829268292682926,67.9369918699187 52.083333333333336,67.88617886178862 52.28658536585366,67.88617886178862 52.489837398373986,67.83536585365853 52.69308943089431,67.83536585365853 52.896341463414636,67.78455284552845 53.09959349593496,67.73373983739837 53.302845528455286,67.73373983739837 53.50609756097561,67.6829268292683 53.65853658536585,67.6321138211382 53.86178861788618,67.58130081300813 54.0650406504065,67.58130081300813 54.21747967479675,67.53048780487805 54.420731707317074,67.47967479674797 54.573170731707314,67.42886178861788 54.77642276422764,67.3780487804878 54.92886178861789,67.32723577235772 55.08130081300813,67.27642276422765 55.28455284552845,67.22560975609755 55.4369918699187,67.17479674796748 55.58943089430894,67.17479674796748 55.792682926829265,67.1239837398374 55.94512195121951,67.07317073170732 56.09756097560975,67.02235772357723 56.25,66.97154471544715 56.453252032520325,66.869918699187 56.605691056910565,66.8191056910569 56.80894308943089,66.76829268292683 57.012195121951216,66.66666666666667 57.21544715447154,66.61585365853658" fill="none" stroke="black" stroke-width="0.6"></polyline><polyline points="57.21544715447154,66.61585365853658 57.418699186991866,66.51422764227642 57.62195121951219,66.46341463414635 57.825203252032516,66.36178861788618 57.97764227642276,66.26016260162602 58.18089430894309,66.20934959349593 58.33333333333333,66.10772357723577 58.485772357723576,66.0569105691057 58.6890243902439,65.95528455284553 58.84146341463415,65.85365853658537 58.99390243902439,65.7520325203252 59.197154471544714,65.70121951219512 59.40040650406504,65.59959349593495 59.603658536585364,65.4979674796748 59.75609756097561,65.39634146341463 59.959349593495936,65.34552845528455 60.16260162601626,65.2439024390244 60.3150406504065,65.14227642276423 60.51829268292683,65.09146341463415 60.72154471544715,64.98983739837398 60.8739837398374,64.9390243902439 61.02642276422764,64.83739837398373 61.229674796747965,64.73577235772358 61.38211382113821,64.6849593495935 61.53455284552845,64.58333333333333 61.6869918699187,64.53252032520325 61.83943089430894,64.43089430894308 62.042682926829265,64.32926829268293 62.19512195121951,64.22764227642276 62.39837398373984,64.17682926829268 62.55081300813008,64.07520325203252 62.703252032520325,63.922764227642276 62.90650406504065,63.82113821138211 63.05894308943089,63.71951219512195 63.262195121951216,63.5670731707317 63.41463414634146,63.46544715447154 63.61788617886179,63.3130081300813 63.82113821138211,63.21138211382114 64.02439024390243,63.05894308943089 64.22764227642276,62.95731707317073 64.43089430894308,62.855691056910565 64.58333333333333,62.7540650406504 64.73577235772358,62.60162601626016 64.9390243902439,62.5 65.09146341463415,62.34756097560975 65.2439024390244,62.19512195121951 65.39634146341463,62.042682926829265 65.4979674796748,61.9410569105691 65.65040650406505,61.78861788617886 65.80284552845528,61.636178861788615 65.90447154471545,61.43292682926829" fill="none" stroke="black" stroke-width="0.6"></polyline><polyline points="65.90447154471545,61.43292682926829 66.0569105691057,61.28048780487805 66.20934959349593,61.1280487804878 66.36178861788618,60.92479674796748 66.46341463414635,60.77235772357724 66.61585365853658,60.56910569105691 66.71747967479675,60.416666666666664 66.869918699187,60.264227642276424 66.97154471544715,60.0609756097561 67.07317073170732,59.90853658536585 67.1239837398374,59.75609756097561 67.22560975609755,59.603658536585364 67.27642276422765,59.451219512195124 67.3780487804878,59.2479674796748 67.42886178861788,59.09552845528455 67.53048780487805,58.892276422764226 67.6321138211382,58.739837398373986 67.73373983739837,58.536585365853654 67.78455284552845,58.38414634146341 67.83536585365853,58.18089430894309 67.9369918699187,58.02845528455284 67.98780487804878,57.8760162601626 68.03861788617886,57.672764227642276 68.08943089430895,57.46951219512195 68.14024390243902,57.3170731707317 68.1910569105691,57.16463414634146 68.24186991869918,56.96138211382114 68.24186991869918,56.80894308943089 68.29268292682927,56.605691056910565 68.34349593495935,56.453252032520325 68.39430894308943,56.30081300813008 68.39430894308943,56.09756097560975 68.4959349593496,55.94512195121951 68.54674796747967,55.74186991869919 68.59756097560975,55.53861788617886 68.64837398373983,55.386178861788615 68.69918699186992,55.18292682926829 68.80081300813008,54.979674796747965 68.85162601626016,54.77642276422764 68.90243902439025,54.573170731707314 68.95325203252033,54.36991869918699 69.0040650406504,54.166666666666664 69.05487804878048,54.014227642276424 69.10569105691057,53.8109756097561 69.15650406504065,53.607723577235774 69.2581300813008,53.40447154471545 69.3089430894309,53.15040650406504 69.35975609756098,52.947154471544714 69.41056910569105,52.74390243902439 69.51219512195122,52.489837398373986 69.51219512195122,52.28658536585366" fill="none" stroke="black" stroke-width="0.6"></polyline><polyline points="69.51219512195122,52.28658536585366 69.5630081300813,52.13414634146341 69.61382113821138,51.93089430894309 69.61382113821138,51.72764227642276 69.61382113821138,51.575203252032516 69.66463414634146,51.37195121951219 69.66463414634146,51.168699186991866 69.66463414634146,51.016260162601625 69.66463414634146,50.8130081300813 69.66463414634146,50.609756097560975 69.66463414634146,50.40650406504065 69.66463414634146,50.203252032520325 69.71544715447155,50.05081300813008 69.71544715447155,49.84756097560975 69.71544715447155,49.64430894308943 69.76626016260163,49.4410569105691 69.8170731707317,49.23780487804878 69.8170731707317,49.03455284552845 69.8170731707317,48.83130081300813 69.8170731707317,48.6280487804878 69.86788617886178,48.3739837398374 69.86788617886178,48.170731707317074 69.86788617886178,47.916666666666664 69.86788617886178,47.71341463414634 69.91869918699187,47.510162601626014 69.91869918699187,47.30691056910569 69.96951219512195,47.052845528455286 69.96951219512195,46.90040650406504 69.96951219512195,46.697154471544714 69.96951219512195,46.49390243902439 69.96951219512195,46.290650406504064 69.96951219512195,46.13821138211382 69.96951219512195,45.9349593495935 69.91869918699187,45.78252032520325 69.91869918699187,45.63008130081301 69.86788617886178,45.42682926829268 69.86788617886178,45.27439024390244 69.8170731707317,45.172764227642276 69.76626016260163,45.02032520325203 69.71544715447155,44.86788617886179 69.66463414634146,44.71544715447154 69.61382113821138,44.5630081300813 69.5630081300813,44.41056910569105 69.51219512195122,44.30894308943089 69.46138211382113,44.15650406504065 69.41056910569105,44.0040650406504 69.35975609756098,43.85162601626016 69.3089430894309,43.699186991869915 69.2581300813008,43.59756097560975 69.20731707317073,43.39430894308943 69.15650406504065,43.292682926829265" fill="none" stroke="black" stroke-width="0.6"></polyline><polyline points="69.15650406504065,43.292682926829265 69.15650406504065,43.140243902439025 69.10569105691057,42.98780487804878 69.05487804878048,42.886178861788615 69.0040650406504,42.733739837398375 68.95325203252033,42.58130081300813 68.90243902439025,42.42886178861789 68.85162601626016,42.27642276422764 68.80081300813008,42.1239837398374 68.75,41.97154471544715 68.75,41.81910569105691 68.69918699186992,41.666666666666664 68.64837398373983,41.46341463414634 68.64837398373983,41.3109756097561 68.59756097560975,41.15853658536585 68.54674796747967,41.00609756097561 68.54674796747967,40.802845528455286 68.4959349593496,40.65040650406504 68.4451219512195,40.4979674796748 68.39430894308943,40.29471544715447 68.34349593495935,40.142276422764226 68.29268292682927,39.9390243902439 68.29268292682927,39.735772357723576 68.24186991869918,39.53252032520325 68.1910569105691,39.38008130081301 68.14024390243902,39.176829268292686 68.08943089430895,38.97357723577235 68.03861788617886,38.82113821138211 67.98780487804878,38.668699186991866 67.9369918699187,38.516260162601625 67.88617886178862,38.36382113821138 67.88617886178862,38.16056910569105 67.83536585365853,38.00813008130081 67.78455284552845,37.855691056910565 67.73373983739837,37.65243902439024 67.73373983739837,37.5 67.6829268292683,37.296747967479675 67.6321138211382,37.14430894308943 67.53048780487805,36.99186991869919 67.47967479674797,36.83943089430894 67.42886178861788,36.73780487804878 67.3780487804878,36.636178861788615 67.32723577235772,36.53455284552845 67.27642276422765,36.43292682926829 67.22560975609755,36.33130081300813 67.17479674796748,36.229674796747965 67.1239837398374,36.1280487804878 67.07317073170732,36.02642276422764 67.02235772357723,35.92479674796748 66.97154471544715,35.8739837398374 66.92073170731707,35.77235772357724" fill="none" stroke="black" stroke-width="0.6"></polyline><polyline points="66.92073170731707,35.77235772357724 66.869918699187,35.670731707317074 66.8191056910569,35.61991869918699 66.71747967479675,35.51829268292683 66.66666666666667,35.416666666666664 66.61585365853658,35.36585365853659 66.51422764227642,35.264227642276424 66.46341463414635,35.21341463414634 66.36178861788618,35.16260162601626 66.3109756097561,35.0609756097561 66.20934959349593,35.010162601626014 66.15853658536585,34.959349593495936 66.0569105691057,34.90853658536585 66.0060975609756,34.857723577235774 65.90447154471545,34.80691056910569 65.85365853658537,34.70528455284553 65.7520325203252,34.65447154471545 65.70121951219512,34.603658536585364 65.59959349593495,34.552845528455286 65.4979674796748,34.5020325203252 65.39634146341463,34.451219512195124 65.29471544715447,34.40040650406504 65.1930894308943,34.34959349593496 65.09146341463415,34.2479674796748 64.98983739837398,34.2479674796748 64.88821138211382,34.146341463414636 64.73577235772358,34.09552845528455 64.6341463414634,34.04471544715447 64.53252032520325,33.99390243902439 64.43089430894308,33.94308943089431 64.32926829268293,33.892276422764226 64.22764227642276,33.790650406504064 64.07520325203252,33.6890243902439 63.97357723577235,33.63821138211382 63.82113821138211,33.53658536585366 63.71951219512195,33.485772357723576 63.5670731707317,33.38414634146341 63.46544715447154,33.333333333333336 63.3130081300813,33.23170731707317 63.21138211382114,33.18089430894309 63.109756097560975,33.079268292682926 63.00813008130081,33.02845528455285 62.90650406504065,32.926829268292686 62.80487804878049,32.8760162601626 62.65243902439024,32.77439024390244 62.60162601626016,32.72357723577236 62.5,32.6219512195122 62.34756097560975,32.52032520325203 62.24593495934959,32.46951219512195 62.14430894308943,32.36788617886179 62.042682926829265,32.3170731707317" fill="none" stroke="black" stroke-width="0.6"></polyline><polyline points="62.042682926829265,32.3170731707317 61.9410569105691,32.21544715447154 61.78861788617886,32.16463414634146 61.6869918699187,32.0630081300813 61.53455284552845,32.012195121951216 61.38211382113821,31.961382113821138 61.28048780487805,31.859756097560975 61.1280487804878,31.808943089430894 60.97560975609756,31.758130081300813 60.8739837398374,31.65650406504065 60.72154471544715,31.60569105691057 60.61991869918699,31.504065040650406 60.46747967479675,31.453252032520325 60.3150406504065,31.402439024390244 60.16260162601626,31.30081300813008 60.010162601626014,31.25 59.857723577235774,31.19918699186992 59.70528455284553,31.148373983739837 59.552845528455286,31.046747967479675 59.40040650406504,30.995934959349594 59.2479674796748,30.945121951219512 59.04471544715447,30.89430894308943 58.892276422764226,30.84349593495935 58.739837398373986,30.79268292682927 58.536585365853654,30.741869918699187 58.38414634146341,30.691056910569106 58.231707317073166,30.640243902439025 58.02845528455284,30.589430894308943 57.825203252032516,30.538617886178862 57.62195121951219,30.48780487804878 57.418699186991866,30.4369918699187 57.21544715447154,30.38617886178862 57.012195121951216,30.335365853658537 56.80894308943089,30.284552845528456 56.605691056910565,30.233739837398375 56.40243902439024,30.182926829268293 56.25,30.132113821138212 56.046747967479675,30.132113821138212 55.84349593495935,30.08130081300813 55.6910569105691,30.03048780487805 55.48780487804878,29.979674796747968 55.28455284552845,29.928861788617887 55.13211382113821,29.878048780487806 54.92886178861789,29.827235772357724 54.72560975609756,29.827235772357724 54.573170731707314,29.776422764227643 54.36991869918699,29.725609756097562 54.166666666666664,29.725609756097562 53.96341463414634,29.67479674796748 53.8109756097561,29.67479674796748 53.607723577235774,29.6239837398374" fill="none" stroke="black" stroke-width="0.6"></polyline><polyline points="53.607723577235774,29.6239837398374 53.40447154471545,29.6239837398374 53.2520325203252,29.573170731707318 53.048780487804876,29.573170731707318 52.896341463414636,29.522357723577237 52.69308943089431,29.522357723577237 52.540650406504064,29.471544715447155 52.38821138211382,29.471544715447155 52.1849593495935,29.471544715447155 52.03252032520325,29.420731707317074 51.880081300813,29.420731707317074 51.67682926829268,29.369918699186993 51.52439024390244,29.369918699186993 51.37195121951219,29.369918699186993 51.21951219512195,29.31910569105691 51.016260162601625,29.31910569105691 50.86382113821138,29.31910569105691 50.71138211382114,29.268292682926827 50.50813008130081,29.268292682926827 50.355691056910565,29.268292682926827 50.203252032520325,29.268292682926827 50,29.268292682926827 49.84756097560975,29.268292682926827 49.69512195121951,29.268292682926827 49.49186991869919,29.268292682926827 49.33943089430894,29.268292682926827 49.1869918699187,29.268292682926827 49.03455284552845,29.268292682926827 48.88211382113821,29.268292682926827 48.729674796747965,29.217479674796746 48.577235772357724,29.217479674796746 48.47560975609756,29.217479674796746 48.323170731707314,29.217479674796746 48.170731707317074,29.217479674796746 48.01829268292683,29.217479674796746 47.916666666666664,29.166666666666664 47.764227642276424,29.166666666666664 47.61178861788618,29.166666666666664 47.510162601626014,29.166666666666664 47.357723577235774,29.115853658536583 47.20528455284553,29.115853658536583 47.052845528455286,29.115853658536583 46.84959349593496,29.115853658536583 46.697154471544714,29.115853658536583 46.54471544715447,29.115853658536583 46.34146341463415,29.115853658536583 46.1890243902439,29.115853658536583 45.985772357723576,29.115853658536583 45.833333333333336,29.115853658536583 45.63008130081301,29.115853658536583 45.47764227642276,29.115853658536583" fill="none" stroke="black" stroke-width="0.6"></polyline><polyline points="45.47764227642276,29.115853658536583 45.27439024390244,29.115853658536583 45.07113821138211,29.115853658536583 44.918699186991866,29.166666666666664 44.71544715447154,29.166666666666664 44.5630081300813,29.166666666666664 44.30894308943089,29.166666666666664 44.15650406504065,29.217479674796746 43.953252032520325,29.217479674796746 43.75,29.268292682926827 43.546747967479675,29.268292682926827 43.39430894308943,29.31910569105691 43.1910569105691,29.31910569105691 43.03861788617886,29.369918699186993 42.83536585365854,29.369918699186993 42.68292682926829,29.420731707317074 42.53048780487805,29.471544715447155 42.327235772357724,29.522357723577237 42.17479674796748,29.573170731707318 41.97154471544715,29.573170731707318 41.81910569105691,29.6239837398374 41.666666666666664,29.67479674796748 41.46341463414634,29.725609756097562 41.3109756097561,29.776422764227643 41.107723577235774,29.827235772357724 40.95528455284553,29.878048780487806 40.7520325203252,29.928861788617887 40.548780487804876,30.03048780487805 40.396341463414636,30.08130081300813 40.19308943089431,30.182926829268293 39.989837398373986,30.284552845528456 39.78658536585366,30.38617886178862 39.583333333333336,30.48780487804878 39.38008130081301,30.589430894308943 39.176829268292686,30.691056910569106 38.97357723577235,30.79268292682927 38.77032520325203,30.89430894308943 38.5670731707317,30.995934959349594 38.36382113821138,31.046747967479675 38.21138211382114,31.148373983739837 38.00813008130081,31.25 37.855691056910565,31.351626016260163 37.65243902439024,31.402439024390244 37.5,31.453252032520325 37.34756097560975,31.554878048780488 37.19512195121951,31.60569105691057 37.042682926829265,31.70731707317073 36.890243902439025,31.808943089430894 36.73780487804878,31.859756097560975 36.58536585365854,31.961382113821138 36.43292682926829,32.0630081300813" fill="none" stroke="black" stroke-width="0.6"></polyline><polyline points="36.43292682926829,32.0630081300813 36.229674796747965,32.16463414634146 36.077235772357724,32.266260162601625 35.92479674796748,32.36788617886179 35.72154471544715,32.46951219512195 35.56910569105691,32.57113821138211 35.36585365853659,32.672764227642276 35.16260162601626,32.82520325203252 35.010162601626014,32.926829268292686 34.80691056910569,33.02845528455285 34.65447154471545,33.18089430894309 34.451219512195124,33.333333333333336 34.298780487804876,33.4349593495935 34.09552845528455,33.58739837398374 33.94308943089431,33.6890243902439 33.790650406504064,33.84146341463415 33.58739837398374,33.99390243902439 33.4349593495935,34.09552845528455 33.28252032520325,34.2479674796748 33.13008130081301,34.40040650406504 33.02845528455285,34.5020325203252 32.926829268292686,34.65447154471545 32.77439024390244,34.80691056910569 32.672764227642276,34.90853658536585 32.57113821138211,35.0609756097561 32.46951219512195,35.21341463414634 32.36788617886179,35.36585365853659 32.266260162601625,35.56910569105691 32.16463414634146,35.670731707317074 32.0630081300813,35.823170731707314 31.961382113821138,36.02642276422764 31.859756097560975,36.17886178861789 31.758130081300813,36.33130081300813 31.65650406504065,36.483739837398375 31.60569105691057,36.636178861788615 31.504065040650406,36.78861788617886 31.453252032520325,36.9410569105691 31.351626016260163,37.09349593495935 31.30081300813008,37.24593495934959 31.19918699186992,37.449186991869915 31.097560975609756,37.65243902439024 30.995934959349594,37.80487804878049 30.945121951219512,38.00813008130081 30.84349593495935,38.16056910569105 30.79268292682927,38.3130081300813 30.691056910569106,38.46544715447154 30.640243902439025,38.61788617886179 30.538617886178862,38.77032520325203 30.48780487804878,38.97357723577235 30.38617886178862,39.1260162601626 30.335365853658537,39.27845528455285" fill="none" stroke="black" stroke-width="0.6"></polyline><polyline points="30.335365853658537,39.27845528455285 30.233739837398375,39.43089430894309 30.132113821138212,39.63414634146341 30.08130081300813,39.78658536585366 29.979674796747968,40.040650406504064 29.878048780487806,40.19308943089431 29.776422764227643,40.396341463414636 29.725609756097562,40.59959349593496 29.6239837398374,40.7520325203252 29.573170731707318,40.95528455284553 29.522357723577237,41.15853658536585 29.471544715447155,41.3109756097561 29.369918699186993,41.514227642276424 29.31910569105691,41.71747967479675 29.217479674796746,41.920731707317074 29.166666666666664,42.1239837398374 29.0650406504065,42.327235772357724 28.96341463414634,42.53048780487805 28.912601626016258,42.733739837398375 28.810975609756095,42.9369918699187 28.709349593495933,43.08943089430894 28.65853658536585,43.292682926829265 28.55691056910569,43.49593495934959 28.506097560975608,43.64837398373984 28.404471544715445,43.85162601626016 28.353658536585364,44.05487804878049 28.2520325203252,44.20731707317073 28.20121951219512,44.41056910569105 28.099593495934958,44.61382113821138 27.997967479674795,44.86788617886179 27.84552845528455,45.07113821138211 27.74390243902439,45.27439024390244 27.693089430894307,45.42682926829268 27.591463414634145,45.63008130081301 27.489837398373982,45.833333333333336 27.4390243902439,45.985772357723576 27.38821138211382,46.1890243902439 27.33739837398374,46.392276422764226 27.286585365853657,46.59552845528455 27.235772357723576,46.7479674796748 27.184959349593495,46.951219512195124 27.134146341463413,47.15447154471545 27.083333333333332,47.357723577235774 27.03252032520325,47.510162601626014 26.98170731707317,47.66260162601626 26.93089430894309,47.86585365853659 26.880081300813007,48.01829268292683 26.829268292682926,48.22154471544715 26.778455284552845,48.47560975609756 26.727642276422763,48.6280487804878 26.727642276422763,48.83130081300813" fill="none" stroke="black" stroke-width="0.6"></polyline><polyline points="26.727642276422763,48.83130081300813 26.676829268292682,49.08536585365854 26.676829268292682,49.23780487804878 26.676829268292682,49.4410569105691 26.676829268292682,49.64430894308943 26.676829268292682,49.84756097560975 26.676829268292682,50.05081300813008 26.676829268292682,50.2540650406504 26.6260162601626,50.45731707317073 26.6260162601626,50.66056910569105 26.6260162601626,50.91463414634146 26.6260162601626,51.11788617886179 26.6260162601626,51.32113821138211 26.6260162601626,51.52439024390244 26.676829268292682,51.72764227642276 26.676829268292682,51.93089430894309 26.676829268292682,52.13414634146341 26.727642276422763,52.33739837398374 26.727642276422763,52.540650406504064 26.727642276422763,52.74390243902439 26.778455284552845,52.947154471544714 26.778455284552845,53.15040650406504 26.778455284552845,53.40447154471545 26.829268292682926,53.607723577235774 26.829268292682926,53.86178861788618 26.829268292682926,54.0650406504065 26.880081300813007,54.26829268292683 26.880081300813007,54.47154471544715 26.93089430894309,54.67479674796748 26.93089430894309,54.92886178861789 26.98170731707317,55.08130081300813 27.03252032520325,55.33536585365854 27.03252032520325,55.53861788617886 27.083333333333332,55.74186991869919 27.134146341463413,55.99593495934959 27.184959349593495,56.199186991869915 27.235772357723576,56.40243902439024 27.286585365853657,56.605691056910565 27.33739837398374,56.80894308943089 27.33739837398374,57.012195121951216 27.4390243902439,57.21544715447154 27.4390243902439,57.418699186991866 27.489837398373982,57.62195121951219 27.591463414634145,57.825203252032516 27.642276422764226,58.02845528455284 27.693089430894307,58.231707317073166 27.79471544715447,58.43495934959349 27.84552845528455,58.58739837398374 27.947154471544714,58.790650406504064 28.048780487804876,58.99390243902439 28.099593495934958,59.197154471544714" fill="none" stroke="black" stroke-width="0.6"></polyline><polyline points="28.099593495934958,59.197154471544714 28.15040650406504,59.40040650406504 28.20121951219512,59.65447154471545 28.2520325203252,59.90853658536585 28.302845528455283,60.11178861788618 28.404471544715445,60.36585365853659 28.455284552845526,60.56910569105691 28.55691056910569,60.77235772357724 28.65853658536585,60.97560975609756 28.760162601626014,61.1280487804878 28.912601626016258,61.33130081300813 29.01422764227642,61.483739837398375 29.115853658536583,61.6869918699187 29.217479674796746,61.890243902439025 29.31910569105691,62.042682926829265 29.420731707317074,62.19512195121951 29.522357723577237,62.39837398373984 29.67479674796748,62.55081300813008 29.776422764227643,62.7540650406504 29.878048780487806,62.90650406504065 29.979674796747968,63.109756097560975 30.08130081300813,63.262195121951216 30.182926829268293,63.46544715447154 30.233739837398375,63.71951219512195 30.335365853658537,63.922764227642276 30.38617886178862,64.17682926829268 30.4369918699187,64.380081300813 30.538617886178862,64.58333333333333 30.589430894308943,64.83739837398373 30.691056910569106,64.98983739837398 30.79268292682927,65.1930894308943 30.89430894308943,65.39634146341463 30.945121951219512,65.54878048780488 31.046747967479675,65.7520325203252 31.148373983739837,65.90447154471545 31.25,66.10772357723577 31.351626016260163,66.26016260162602 31.453252032520325,66.46341463414635 31.554878048780488,66.61585365853658 31.65650406504065,66.76829268292683 31.808943089430894,66.92073170731707 31.910569105691057,67.07317073170732 32.012195121951216,67.27642276422765 32.11382113821138,67.42886178861788 32.21544715447154,67.58130081300813 32.36788617886179,67.73373983739837 32.46951219512195,67.88617886178862 32.57113821138211,67.98780487804878 32.72357723577236,68.14024390243902 32.82520325203252,68.29268292682927 32.926829268292686,68.39430894308943" fill="none" stroke="black" stroke-width="0.6"></polyline><polyline points="32.926829268292686,68.39430894308943 33.079268292682926,68.54674796747967 33.18089430894309,68.64837398373983 33.333333333333336,68.80081300813008 33.485772357723576,68.90243902439025 33.63821138211382,69.0040650406504 33.790650406504064,69.10569105691057 33.94308943089431,69.20731707317073 34.09552845528455,69.3089430894309 34.2479674796748,69.41056910569105 34.40040650406504,69.46138211382113 34.552845528455286,69.5630081300813 34.65447154471545,69.66463414634146 34.80691056910569,69.71544715447155 34.959349593495936,69.8170731707317 35.0609756097561,69.91869918699187 35.21341463414634,70.02032520325203 35.36585365853659,70.1219512195122 35.51829268292683,70.22357723577235 35.670731707317074,70.27439024390243 35.823170731707314,70.3760162601626 35.97560975609756,70.47764227642276 36.1280487804878,70.52845528455285 36.28048780487805,70.630081300813 36.43292682926829,70.68089430894308 36.53455284552845,70.78252032520325 36.6869918699187,70.8841463414634 36.83943089430894,70.9349593495935 36.99186991869919,71.03658536585365 37.14430894308943,71.08739837398373 37.296747967479675,71.13821138211382 37.449186991869915,71.23983739837398 37.60162601626016,71.29065040650406 37.7540650406504,71.34146341463415 37.90650406504065,71.4430894308943 38.05894308943089,71.49390243902438 38.21138211382114,71.59552845528455 38.3130081300813,71.69715447154472 38.46544715447154,71.79878048780488 38.5670731707317,71.90040650406505 38.71951219512195,72.0020325203252 38.87195121951219,72.10365853658537 38.97357723577235,72.20528455284553 39.1260162601626,72.3069105691057 39.27845528455285,72.40853658536585 39.38008130081301,72.51016260162602 39.53252032520325,72.61178861788618 39.6849593495935,72.71341463414635 39.83739837398374,72.8150406504065 39.989837398373986,72.96747967479675 40.19308943089431,73.01829268292683" fill="none" stroke="black" stroke-width="0.6"></polyline><polyline points="40.19308943089431,73.01829268292683 40.34552845528455,73.119918699187 40.548780487804876,73.22154471544715 40.7520325203252,73.32317073170732 40.90447154471545,73.3739837398374 41.107723577235774,73.47560975609755 41.3109756097561,73.57723577235772 41.46341463414634,73.6280487804878 41.666666666666664,73.72967479674797 41.81910569105691,73.83130081300813 41.97154471544715,73.8821138211382 42.17479674796748,73.98373983739837 42.327235772357724,74.03455284552845 42.53048780487805,74.13617886178862 42.733739837398375,74.1869918699187 42.886178861788615,74.28861788617886 43.03861788617886,74.33943089430895 43.24186991869919,74.39024390243902 43.39430894308943,74.4410569105691 43.59756097560975,74.49186991869918 43.80081300813008,74.54268292682927 43.953252032520325,74.59349593495935 44.15650406504065,74.64430894308943 44.359756097560975,74.64430894308943 44.512195121951216,74.6951219512195 44.71544715447154,74.7459349593496 44.918699186991866,74.7459349593496 45.07113821138211,74.79674796747967 45.22357723577235,74.84756097560975 45.3760162601626,74.84756097560975 45.52845528455285,74.89837398373983 45.68089430894309,74.89837398373983 45.833333333333336,74.94918699186992 45.985772357723576,75 46.08739837398374,75 46.239837398373986,75.05081300813008 46.392276422764226,75.10162601626016 46.54471544715447,75.10162601626016 46.697154471544714,75.15243902439025 46.84959349593496,75.20325203252033 47.0020325203252,75.2540650406504 47.15447154471545,75.30487804878048 47.30691056910569,75.30487804878048 47.459349593495936,75.35569105691057 47.61178861788618,75.35569105691057 47.764227642276424,75.40650406504065 47.916666666666664,75.40650406504065 48.06910569105691,75.45731707317073 48.22154471544715,75.45731707317073 48.3739837398374,75.45731707317073 48.52642276422764,75.5081300813008" fill="none" stroke="black" stroke-width="0.6"></polyline><polyline points="48.52642276422764,75.5081300813008 48.67886178861789,75.5081300813008 48.88211382113821,75.5081300813008 49.03455284552845,75.5589430894309 49.1869918699187,75.5589430894309 49.390243902439025,75.5589430894309 49.542682926829265,75.5589430894309 49.69512195121951,75.5589430894309 49.89837398373984,75.5589430894309 50.05081300813008,75.5589430894309 50.2540650406504,75.5589430894309 50.45731707317073,75.5589430894309 50.609756097560975,75.5589430894309 50.8130081300813,75.5589430894309 51.0670731707317,75.5589430894309 51.27032520325203,75.5589430894309 51.47357723577235,75.5589430894309 51.72764227642276,75.5589430894309 51.93089430894309,75.5589430894309 52.13414634146341,75.5589430894309 52.38821138211382,75.5589430894309 52.59146341463415,75.5589430894309 52.79471544715447,75.5589430894309 52.9979674796748,75.5589430894309 53.201219512195124,75.5589430894309 53.353658536585364,75.5589430894309 53.55691056910569,75.5589430894309 53.760162601626014,75.5589430894309 53.91260162601626,75.5589430894309 54.11585365853659,75.5589430894309 54.26829268292683,75.5589430894309 54.420731707317074,75.5081300813008 54.6239837398374,75.45731707317073 54.77642276422764,75.45731707317073 54.979674796747965,75.40650406504065 55.13211382113821,75.40650406504065 55.33536585365854,75.35569105691057 55.48780487804878,75.35569105691057 55.6910569105691,75.30487804878048 55.89430894308943,75.30487804878048 56.046747967479675,75.2540650406504 56.25,75.2540650406504 56.453252032520325,75.20325203252033 56.605691056910565,75.15243902439025 56.80894308943089,75.10162601626016 57.012195121951216,75.05081300813008 57.16463414634146,75 57.36788617886179,74.94918699186992 57.57113821138211,74.94918699186992 57.77439024390244,74.84756097560975 58.02845528455284,74.79674796747967" fill="none" stroke="black" stroke-width="0.6"></polyline><polyline points="58.02845528455284,74.79674796747967 58.231707317073166,74.7459349593496 58.38414634146341,74.6951219512195 58.58739837398374,74.64430894308943 58.790650406504064,74.59349593495935 58.94308943089431,74.54268292682927 59.146341463414636,74.49186991869918 59.298780487804876,74.4410569105691 59.451219512195124,74.39024390243902 59.603658536585364,74.39024390243902 59.75609756097561,74.33943089430895 59.857723577235774,74.28861788617886 60.010162601626014,74.23780487804878 60.11178861788618,74.1869918699187 60.264227642276424,74.13617886178862 60.36585365853659,74.08536585365853 60.51829268292683,74.03455284552845 60.670731707317074,73.9329268292683 60.823170731707314,73.8821138211382 60.97560975609756,73.83130081300813 61.17886178861789,73.78048780487805 61.33130081300813,73.67886178861788 61.483739837398375,73.6280487804878 61.636178861788615,73.57723577235772 61.83943089430894,73.47560975609755 61.99186991869919,73.42479674796748 62.14430894308943,73.32317073170732 62.296747967479675,73.27235772357723 62.449186991869915,73.17073170731707 62.60162601626016,73.0691056910569 62.7540650406504,73.01829268292683 62.90650406504065,72.91666666666667 63.05894308943089,72.8150406504065 63.21138211382114,72.76422764227642 63.36382113821138,72.71341463414635 63.5670731707317,72.61178861788618 63.71951219512195,72.51016260162602 63.87195121951219,72.40853658536585 64.07520325203252,72.3069105691057 64.22764227642276,72.20528455284553 64.43089430894308,72.05284552845528 64.58333333333333,71.95121951219512 64.78658536585365,71.79878048780488 64.9390243902439,71.69715447154472 65.09146341463415,71.54471544715447 65.2439024390244,71.4430894308943 65.39634146341463,71.34146341463415 65.59959349593495,71.1890243902439 65.7520325203252,71.03658536585365 65.90447154471545,70.9349593495935 66.10772357723577,70.78252032520325" fill="none" stroke="black" stroke-width="0.6"></polyline><polyline points="66.10772357723577,70.78252032520325 66.26016260162602,70.630081300813 66.46341463414635,70.47764227642276 66.61585365853658,70.32520325203252 66.76829268292683,70.17276422764228 66.92073170731707,70.02032520325203 67.07317073170732,69.86788617886178 67.17479674796748,69.71544715447155 67.32723577235772,69.5630081300813 67.47967479674797,69.41056910569105 67.58130081300813,69.2581300813008 67.6829268292683,69.10569105691057 67.83536585365853,68.95325203252033 67.98780487804878,68.80081300813008 68.08943089430895,68.59756097560975 68.24186991869918,68.4451219512195 68.39430894308943,68.29268292682927 68.4959349593496,68.14024390243902 68.64837398373983,67.98780487804878 68.75,67.83536585365853 68.85162601626016,67.6829268292683 69.0040650406504,67.53048780487805 69.10569105691057,67.42886178861788 69.20731707317073,67.27642276422765 69.3089430894309,67.17479674796748 69.41056910569105,67.02235772357723 69.51219512195122,66.869918699187 69.61382113821138,66.71747967479675 69.76626016260163,66.5650406504065 69.91869918699187,66.41260162601625 70.02032520325203,66.20934959349593 70.17276422764228,66.0569105691057 70.32520325203252,65.90447154471545 70.47764227642276,65.70121951219512 70.630081300813,65.4979674796748 70.78252032520325,65.34552845528455 70.9349593495935,65.1930894308943 71.03658536585365,65.04065040650406 71.13821138211382,64.88821138211382 71.23983739837398,64.73577235772358 71.39227642276423,64.58333333333333 71.49390243902438,64.380081300813 71.64634146341463,64.22764227642276 71.7479674796748,64.07520325203252 71.90040650406505,63.87195121951219 72.0020325203252,63.71951219512195 72.10365853658537,63.516260162601625 72.2560975609756,63.3130081300813 72.35772357723577,63.16056910569105 72.45934959349593,63.00813008130081 72.5609756097561,62.80487804878049" fill="none" stroke="black" stroke-width="0.6"></polyline><polyline points="72.5609756097561,62.80487804878049 72.66260162601625,62.65243902439024 72.76422764227642,62.5 72.86585365853658,62.296747967479675 72.96747967479675,62.14430894308943 73.0691056910569,61.9410569105691 73.17073170731707,61.73780487804878 73.22154471544715,61.53455284552845 73.32317073170732,61.33130081300813 73.3739837398374,61.1280487804878 73.47560975609755,60.92479674796748 73.52642276422765,60.72154471544715 73.6280487804878,60.51829268292683 73.72967479674797,60.3150406504065 73.83130081300813,60.16260162601626 73.9329268292683,59.90853658536585 74.03455284552845,59.75609756097561 74.08536585365853,59.552845528455286 74.1869918699187,59.34959349593496 74.23780487804878,59.146341463414636 74.33943089430895,58.94308943089431 74.39024390243902,58.739837398373986 74.4410569105691,58.536585365853654 74.49186991869918,58.33333333333333 74.59349593495935,58.130081300813 74.64430894308943,57.92682926829268 74.7459349593496,57.72357723577235 74.84756097560975,57.52032520325203 74.94918699186992,57.3170731707317 75.05081300813008,57.0630081300813 75.15243902439025,56.80894308943089 75.2540650406504,56.605691056910565 75.35569105691057,56.40243902439024 75.45731707317073,56.199186991869915 75.5589430894309,55.99593495934959 75.60975609756098,55.84349593495935 75.71138211382113,55.640243902439025 75.76219512195122,55.48780487804878 75.8130081300813,55.28455284552845 75.91463414634146,55.08130081300813 76.01626016260163,54.8780487804878 76.0670731707317,54.67479674796748 76.16869918699187,54.47154471544715 76.27032520325203,54.31910569105691 76.3211382113821,54.11585365853659 76.42276422764228,53.96341463414634 76.47357723577235,53.8109756097561 76.57520325203252,53.607723577235774 76.6260162601626,53.45528455284553 76.67682926829268,53.2520325203252 76.77845528455285,53.048780487804876" fill="none" stroke="black" stroke-width="0.6"></polyline><polyline points="76.77845528455285,53.048780487804876 76.82926829268293,52.84552845528455 76.93089430894308,52.642276422764226 77.03252032520325,52.4390243902439 77.08333333333333,52.1849593495935 77.1849593495935,51.981707317073166 77.28658536585365,51.77845528455284 77.38821138211382,51.575203252032516 77.48983739837398,51.37195121951219 77.54065040650406,51.168699186991866 77.64227642276423,51.016260162601625 77.6930894308943,50.8130081300813 77.74390243902438,50.609756097560975 77.74390243902438,50.40650406504065 77.79471544715447,50.2540650406504 77.79471544715447,50.05081300813008 77.84552845528455,49.89837398373984 77.89634146341463,49.74593495934959 77.9471544715447,49.542682926829265 77.9979674796748,49.390243902439025 78.04878048780488,49.23780487804878 78.09959349593495,49.03455284552845 78.15040650406505,48.88211382113821 78.20121951219512,48.729674796747965 78.2520325203252,48.577235772357724 78.30284552845528,48.42479674796748 78.35365853658537,48.27235772357724 78.45528455284553,48.06910569105691 78.5569105691057,47.916666666666664 78.65853658536585,47.764227642276424 78.76016260162602,47.5609756097561 78.86178861788618,47.40853658536585" fill="none" stroke="black" stroke-width="0.6"></polyline></svg>