<svg height="100" width="100" preserveAspectRatio="xMidYMid meet"><polyline points="50,51.168699186991866 50,51.11788617886179 50,51.016260162601625 50,50.91463414634146 50,50.86382113821138 50,50.86382113821138 50,50.8130081300813 50,50.8130081300813 50,50.762195121951216 50,50.762195121951216 50,50.71138211382114 50,50.71138211382114 50,50.66056910569105 50,50.609756097560975 49.949186991869915,50.55894308943089 49.949186991869915,50.50813008130081 49.89837398373984,50.45731707317073 49.84756097560975,50.355691056910565 49.84756097560975,50.30487804878049 49.796747967479675,50.2540650406504 49.74593495934959,50.15243902439024 49.69512195121951,50.10162601626016 49.64430894308943,50 49.59349593495935,49.949186991869915 49.59349593495935,49.84756097560975 49.542682926829265,49.74593495934959 49.542682926829265,49.69512195121951 49.542682926829265,49.59349593495935 49.49186991869919,49.49186991869919 49.49186991869919,49.390243902439025 49.4410569105691,49.33943089430894 49.4410569105691,49.23780487804878 49.4410569105691,49.1869918699187 49.390243902439025,49.136178861788615 49.33943089430894,49.08536585365854 49.33943089430894,49.03455284552845 49.28861788617886,48.983739837398375 49.23780487804878,48.93292682926829 49.136178861788615,48.88211382113821 49.08536585365854,48.83130081300813 49.03455284552845,48.78048780487805 48.983739837398375,48.78048780487805 48.93292682926829,48.729674796747965 48.88211382113821,48.67886178861789 48.83130081300813,48.6280487804878 48.78048780487805,48.577235772357724 48.729674796747965,48.577235772357724 48.67886178861789,48.52642276422764 48.67886178861789,48.52642276422764 48.6280487804878,48.47560975609756 48.577235772357724,48.42479674796748" fill="none" stroke="black" stroke-width="0.6"></polyline><polyline points="48.577235772357724,48.42479674796748 48.577235772357724,48.42479674796748 48.52642276422764,48.42479674796748 48.47560975609756,48.42479674796748 48.47560975609756,48.3739837398374 48.42479674796748,48.3739837398374 48.3739837398374,48.3739837398374 48.323170731707314,48.42479674796748 48.27235772357724,48.42479674796748 48.170731707317074,48.47560975609756 48.11991869918699,48.52642276422764 48.01829268292683,48.6280487804878 47.916666666666664,48.67886178861789 47.8150406504065,48.78048780487805 47.71341463414634,48.88211382113821 47.61178861788618,48.93292682926829 47.510162601626014,49.03455284552845 47.459349593495936,49.136178861788615 47.357723577235774,49.23780487804878 47.30691056910569,49.33943089430894 47.25609756097561,49.4410569105691 47.20528455284553,49.542682926829265 47.15447154471545,49.64430894308943 47.15447154471545,49.796747967479675 47.103658536585364,49.89837398373984 47.103658536585364,50.05081300813008 47.052845528455286,50.203252032520325 47.052845528455286,50.355691056910565 47.0020325203252,50.45731707317073 47.0020325203252,50.66056910569105 46.951219512195124,50.8130081300813 46.90040650406504,50.96544715447154 46.84959349593496,51.168699186991866 46.798780487804876,51.32113821138211 46.7479674796748,51.47357723577235 46.697154471544714,51.67682926829268 46.646341463414636,51.829268292682926 46.646341463414636,52.03252032520325 46.646341463414636,52.1849593495935 46.59552845528455,52.33739837398374 46.59552845528455,52.4390243902439 46.646341463414636,52.59146341463415 46.646341463414636,52.69308943089431 46.697154471544714,52.79471544715447 46.7479674796748,52.896341463414636 46.798780487804876,52.9979674796748 46.84959349593496,53.048780487804876 46.90040650406504,53.15040650406504 46.951219512195124,53.2520325203252 47.0020325203252,53.353658536585364 47.052845528455286,53.45528455284553" fill="none" stroke="black" stroke-width="0.6"></polyline><polyline points="47.052845528455286,53.45528455284553 47.052845528455286,53.55691056910569 47.103658536585364,53.65853658536585 47.15447154471545,53.709349593495936 47.20528455284553,53.8109756097561 47.25609756097561,53.91260162601626 47.30691056910569,54.014227642276424 47.357723577235774,54.0650406504065 47.40853658536585,54.166666666666664 47.510162601626014,54.21747967479675 47.5609756097561,54.31910569105691 47.61178861788618,54.36991869918699 47.71341463414634,54.420731707317074 47.764227642276424,54.47154471544715 47.86585365853659,54.52235772357724 47.96747967479675,54.52235772357724 48.01829268292683,54.573170731707314 48.11991869918699,54.6239837398374 48.22154471544715,54.67479674796748 48.323170731707314,54.67479674796748 48.42479674796748,54.72560975609756 48.52642276422764,54.77642276422764 48.67886178861789,54.827235772357724 48.78048780487805,54.8780487804878 48.88211382113821,54.92886178861789 48.983739837398375,54.92886178861789 49.136178861788615,54.979674796747965 49.23780487804878,54.979674796747965 49.390243902439025,54.979674796747965 49.542682926829265,54.979674796747965 49.69512195121951,54.979674796747965 49.84756097560975,54.979674796747965 50,54.92886178861789 50.15243902439024,54.92886178861789 50.355691056910565,54.8780487804878 50.50813008130081,54.8780487804878 50.71138211382114,54.8780487804878 50.86382113821138,54.8780487804878 51.0670731707317,54.827235772357724 51.27032520325203,54.827235772357724 51.422764227642276,54.827235772357724 51.6260162601626,54.827235772357724 51.829268292682926,54.827235772357724 51.981707317073166,54.77642276422764 52.13414634146341,54.77642276422764 52.33739837398374,54.72560975609756 52.489837398373986,54.67479674796748 52.642276422764226,54.6239837398374 52.84552845528455,54.573170731707314 52.9979674796748,54.52235772357724 53.15040650406504,54.47154471544715" fill="none" stroke="black" stroke-width="0.6"></polyline><polyline points="53.15040650406504,54.47154471544715 53.353658536585364,54.420731707317074 53.50609756097561,54.36991869918699 53.709349593495936,54.31910569105691 53.86178861788618,54.26829268292683 54.014227642276424,54.21747967479675 54.166666666666664,54.166666666666664 54.26829268292683,54.11585365853659 54.36991869918699,54.0650406504065 54.47154471544715,54.014227642276424 54.573170731707314,53.96341463414634 54.67479674796748,53.86178861788618 54.72560975609756,53.8109756097561 54.827235772357724,53.709349593495936 54.92886178861789,53.65853658536585 54.979674796747965,53.55691056910569 55.08130081300813,53.45528455284553 55.18292682926829,53.40447154471545 55.28455284552845,53.302845528455286 55.33536585365854,53.201219512195124 55.4369918699187,53.15040650406504 55.48780487804878,53.048780487804876 55.58943089430894,52.896341463414636 55.6910569105691,52.79471544715447 55.74186991869919,52.69308943089431 55.792682926829265,52.59146341463415 55.792682926829265,52.489837398373986 55.84349593495935,52.33739837398374 55.84349593495935,52.235772357723576 55.89430894308943,52.13414634146341 55.89430894308943,51.981707317073166 55.89430894308943,51.880081300813 55.89430894308943,51.77845528455284 55.94512195121951,51.6260162601626 55.94512195121951,51.52439024390244 55.99593495934959,51.37195121951219 55.99593495934959,51.21951219512195 56.046747967479675,51.11788617886179 56.09756097560975,50.96544715447154 56.14837398373984,50.8130081300813 56.14837398373984,50.71138211382114 56.199186991869915,50.55894308943089 56.25,50.40650406504065 56.25,50.2540650406504 56.30081300813008,50.10162601626016 56.30081300813008,49.949186991869915 56.30081300813008,49.796747967479675 56.35162601626016,49.64430894308943 56.35162601626016,49.4410569105691 56.40243902439024,49.28861788617886 56.40243902439024,49.136178861788615" fill="none" stroke="black" stroke-width="0.6"></polyline><polyline points="56.40243902439024,49.136178861788615 56.453252032520325,48.983739837398375 56.453252032520325,48.83130081300813 56.5040650406504,48.67886178861789 56.5040650406504,48.52642276422764 56.5040650406504,48.42479674796748 56.5040650406504,48.323170731707314 56.5040650406504,48.170731707317074 56.5040650406504,48.06910569105691 56.5040650406504,47.916666666666664 56.5040650406504,47.764227642276424 56.453252032520325,47.61178861788618 56.453252032520325,47.459349593495936 56.453252032520325,47.30691056910569 56.453252032520325,47.20528455284553 56.40243902439024,47.052845528455286 56.40243902439024,46.951219512195124 56.40243902439024,46.84959349593496 56.35162601626016,46.7479674796748 56.35162601626016,46.646341463414636 56.30081300813008,46.54471544715447 56.25,46.49390243902439 56.199186991869915,46.392276422764226 56.14837398373984,46.290650406504064 56.09756097560975,46.239837398373986 56.046747967479675,46.13821138211382 56.046747967479675,46.03658536585366 55.99593495934959,45.9349593495935 55.94512195121951,45.833333333333336 55.89430894308943,45.73170731707317 55.84349593495935,45.63008130081301 55.792682926829265,45.52845528455285 55.792682926829265,45.47764227642276 55.74186991869919,45.3760162601626 55.6910569105691,45.27439024390244 55.640243902439025,45.22357723577235 55.58943089430894,45.12195121951219 55.53861788617886,45.02032520325203 55.48780487804878,44.96951219512195 55.4369918699187,44.918699186991866 55.386178861788615,44.8170731707317 55.33536585365854,44.766260162601625 55.28455284552845,44.71544715447154 55.18292682926829,44.61382113821138 55.13211382113821,44.5630081300813 55.03048780487805,44.512195121951216 54.979674796747965,44.46138211382114 54.92886178861789,44.41056910569105 54.827235772357724,44.359756097560975 54.77642276422764,44.30894308943089 54.72560975609756,44.25813008130081" fill="none" stroke="black" stroke-width="0.6"></polyline><polyline points="54.72560975609756,44.25813008130081 54.6239837398374,44.15650406504065 54.573170731707314,44.105691056910565 54.52235772357724,44.05487804878049 54.47154471544715,44.0040650406504 54.36991869918699,43.953252032520325 54.31910569105691,43.90243902439024 54.21747967479675,43.80081300813008 54.11585365853659,43.75 54.0650406504065,43.699186991869915 53.96341463414634,43.59756097560975 53.86178861788618,43.546747967479675 53.8109756097561,43.44512195121951 53.709349593495936,43.39430894308943 53.607723577235774,43.34349593495935 53.55691056910569,43.24186991869919 53.45528455284553,43.1910569105691 53.353658536585364,43.140243902439025 53.2520325203252,43.08943089430894 53.15040650406504,43.03861788617886 53.048780487804876,42.98780487804878 52.947154471544714,42.9369918699187 52.84552845528455,42.886178861788615 52.74390243902439,42.83536585365854 52.59146341463415,42.78455284552845 52.489837398373986,42.733739837398375 52.38821138211382,42.68292682926829 52.28658536585366,42.63211382113821 52.13414634146341,42.58130081300813 52.03252032520325,42.53048780487805 51.880081300813,42.479674796747965 51.77845528455284,42.42886178861789 51.6260162601626,42.3780487804878 51.47357723577235,42.327235772357724 51.32113821138211,42.27642276422764 51.21951219512195,42.22560975609756 51.0670731707317,42.17479674796748 50.91463414634146,42.1239837398374 50.762195121951216,42.1239837398374 50.609756097560975,42.073170731707314 50.45731707317073,42.073170731707314 50.2540650406504,42.073170731707314 50.10162601626016,42.02235772357724 49.949186991869915,42.02235772357724 49.796747967479675,42.02235772357724 49.64430894308943,42.02235772357724 49.542682926829265,41.97154471544715 49.4410569105691,41.97154471544715 49.28861788617886,41.97154471544715 49.1869918699187,41.920731707317074 49.08536585365854,41.920731707317074" fill="none" stroke="black" stroke-width="0.6"></polyline><polyline points="49.08536585365854,41.920731707317074 48.983739837398375,41.86991869918699 48.83130081300813,41.86991869918699 48.729674796747965,41.86991869918699 48.6280487804878,41.86991869918699 48.47560975609756,41.81910569105691 48.323170731707314,41.81910569105691 48.11991869918699,41.81910569105691 47.96747967479675,41.86991869918699 47.764227642276424,41.86991869918699 47.5609756097561,41.920731707317074 47.357723577235774,41.920731707317074 47.20528455284553,41.97154471544715 47.0020325203252,42.02235772357724 46.84959349593496,42.073170731707314 46.697154471544714,42.073170731707314 46.49390243902439,42.1239837398374 46.34146341463415,42.17479674796748 46.1890243902439,42.22560975609756 46.03658536585366,42.27642276422764 45.9349593495935,42.327235772357724 45.78252032520325,42.3780487804878 45.63008130081301,42.42886178861789 45.47764227642276,42.479674796747965 45.325203252032516,42.53048780487805 45.172764227642276,42.58130081300813 45.02032520325203,42.63211382113821 44.86788617886179,42.68292682926829 44.66463414634146,42.78455284552845 44.512195121951216,42.83536585365854 44.41056910569105,42.9369918699187 44.25813008130081,43.03861788617886 44.105691056910565,43.140243902439025 44.0040650406504,43.24186991869919 43.85162601626016,43.34349593495935 43.75,43.49593495934959 43.64837398373984,43.59756097560975 43.49593495934959,43.699186991869915 43.39430894308943,43.85162601626016 43.24186991869919,43.953252032520325 43.140243902439025,44.105691056910565 42.98780487804878,44.20731707317073 42.83536585365854,44.359756097560975 42.68292682926829,44.46138211382114 42.58130081300813,44.5630081300813 42.479674796747965,44.66463414634146 42.3780487804878,44.8170731707317 42.27642276422764,44.918699186991866 42.17479674796748,45.02032520325203 42.073170731707314,45.12195121951219 42.02235772357724,45.27439024390244" fill="none" stroke="black" stroke-width="0.6"></polyline><polyline points="42.02235772357724,45.27439024390244 41.920731707317074,45.3760162601626 41.81910569105691,45.579268292682926 41.71747967479675,45.68089430894309 41.666666666666664,45.833333333333336 41.5650406504065,45.985772357723576 41.46341463414634,46.13821138211382 41.41260162601626,46.290650406504064 41.3109756097561,46.44308943089431 41.260162601626014,46.59552845528455 41.15853658536585,46.697154471544714 41.05691056910569,46.84959349593496 41.00609756097561,46.951219512195124 40.90447154471545,47.103658536585364 40.853658536585364,47.25609756097561 40.7520325203252,47.40853658536585 40.65040650406504,47.5609756097561 40.548780487804876,47.71341463414634 40.4979674796748,47.86585365853659 40.396341463414636,48.01829268292683 40.29471544715447,48.22154471544715 40.24390243902439,48.3739837398374 40.142276422764226,48.52642276422764 40.09146341463415,48.67886178861789 40.040650406504064,48.83130081300813 39.989837398373986,48.983739837398375 39.9390243902439,49.1869918699187 39.88821138211382,49.33943089430894 39.83739837398374,49.49186991869919 39.83739837398374,49.69512195121951 39.78658536585366,49.84756097560975 39.735772357723576,50.05081300813008 39.735772357723576,50.2540650406504 39.6849593495935,50.45731707317073 39.6849593495935,50.609756097560975 39.6849593495935,50.8130081300813 39.6849593495935,50.96544715447154 39.6849593495935,51.168699186991866 39.6849593495935,51.32113821138211 39.6849593495935,51.52439024390244 39.6849593495935,51.67682926829268 39.6849593495935,51.880081300813 39.735772357723576,52.083333333333336 39.735772357723576,52.28658536585366 39.78658536585366,52.489837398373986 39.83739837398374,52.69308943089431 39.88821138211382,52.896341463414636 39.88821138211382,53.09959349593496 39.9390243902439,53.302845528455286 40.040650406504064,53.50609756097561 40.09146341463415,53.65853658536585" fill="none" stroke="black" stroke-width="0.6"></polyline><polyline points="40.09146341463415,53.65853658536585 40.19308943089431,53.86178861788618 40.24390243902439,54.0650406504065 40.34552845528455,54.21747967479675 40.447154471544714,54.36991869918699 40.548780487804876,54.573170731707314 40.65040650406504,54.77642276422764 40.701219512195124,54.92886178861789 40.802845528455286,55.13211382113821 40.853658536585364,55.33536585365854 40.95528455284553,55.48780487804878 41.00609756097561,55.6910569105691 41.05691056910569,55.84349593495935 41.15853658536585,56.046747967479675 41.209349593495936,56.25 41.260162601626014,56.40243902439024 41.36178861788618,56.605691056910565 41.46341463414634,56.80894308943089 41.5650406504065,56.96138211382114 41.61585365853659,57.16463414634146 41.71747967479675,57.3170731707317 41.81910569105691,57.52032520325203 41.920731707317074,57.672764227642276 42.02235772357724,57.825203252032516 42.1239837398374,58.02845528455284 42.22560975609756,58.18089430894309 42.327235772357724,58.38414634146341 42.42886178861789,58.536585365853654 42.53048780487805,58.6890243902439 42.68292682926829,58.892276422764226 42.78455284552845,59.04471544715447 42.9369918699187,59.197154471544714 43.03861788617886,59.34959349593496 43.1910569105691,59.5020325203252 43.34349593495935,59.65447154471545 43.44512195121951,59.75609756097561 43.59756097560975,59.90853658536585 43.75,60.010162601626014 43.90243902439024,60.11178861788618 44.05487804878049,60.21341463414634 44.20731707317073,60.3150406504065 44.41056910569105,60.416666666666664 44.5630081300813,60.51829268292683 44.71544715447154,60.61991869918699 44.86788617886179,60.72154471544715 45.07113821138211,60.77235772357724 45.22357723577235,60.8739837398374 45.42682926829268,60.97560975609756 45.579268292682926,61.02642276422764 45.78252032520325,61.077235772357724 45.985772357723576,61.1280487804878" fill="none" stroke="black" stroke-width="0.6"></polyline><polyline points="45.985772357723576,61.1280487804878 46.1890243902439,61.17886178861789 46.392276422764226,61.229674796747965 46.646341463414636,61.229674796747965 46.84959349593496,61.28048780487805 47.103658536585364,61.28048780487805 47.30691056910569,61.28048780487805 47.510162601626014,61.33130081300813 47.764227642276424,61.33130081300813 47.96747967479675,61.33130081300813 48.170731707317074,61.33130081300813 48.3739837398374,61.33130081300813 48.6280487804878,61.38211382113821 48.83130081300813,61.38211382113821 49.08536585365854,61.43292682926829 49.33943089430894,61.43292682926829 49.542682926829265,61.43292682926829 49.796747967479675,61.43292682926829 49.949186991869915,61.43292682926829 50.15243902439024,61.43292682926829 50.355691056910565,61.38211382113821 50.55894308943089,61.38211382113821 50.762195121951216,61.38211382113821 50.96544715447154,61.33130081300813 51.168699186991866,61.33130081300813 51.37195121951219,61.28048780487805 51.6260162601626,61.229674796747965 51.77845528455284,61.229674796747965 51.981707317073166,61.17886178861789 52.235772357723576,61.1280487804878 52.4390243902439,61.1280487804878 52.59146341463415,61.077235772357724 52.79471544715447,61.02642276422764 52.9979674796748,60.97560975609756 53.15040650406504,60.92479674796748 53.302845528455286,60.8739837398374 53.45528455284553,60.8739837398374 53.607723577235774,60.823170731707314 53.8109756097561,60.77235772357724 53.91260162601626,60.72154471544715 54.0650406504065,60.670731707317074 54.21747967479675,60.670731707317074 54.36991869918699,60.61991869918699 54.52235772357724,60.56910569105691 54.67479674796748,60.51829268292683 54.827235772357724,60.46747967479675 54.979674796747965,60.416666666666664 55.13211382113821,60.36585365853659 55.28455284552845,60.264227642276424 55.386178861788615,60.21341463414634 55.58943089430894,60.11178861788618" fill="none" stroke="black" stroke-width="0.6"></polyline><polyline points="55.58943089430894,60.11178861788618 55.6910569105691,60.0609756097561 55.84349593495935,60.010162601626014 55.99593495934959,59.90853658536585 56.14837398373984,59.857723577235774 56.25,59.75609756097561 56.40243902439024,59.70528455284553 56.5040650406504,59.65447154471545 56.605691056910565,59.552845528455286 56.75813008130081,59.5020325203252 56.859756097560975,59.40040650406504 56.96138211382114,59.298780487804876 57.0630081300813,59.146341463414636 57.16463414634146,59.04471544715447 57.3170731707317,58.94308943089431 57.46951219512195,58.790650406504064 57.57113821138211,58.6890243902439 57.72357723577235,58.536585365853654 57.8760162601626,58.43495934959349 58.02845528455284,58.28252032520325 58.18089430894309,58.18089430894309 58.28252032520325,58.079268292682926 58.43495934959349,57.92682926829268 58.536585365853654,57.825203252032516 58.63821138211382,57.72357723577235 58.790650406504064,57.57113821138211 58.94308943089431,57.418699186991866 59.04471544715447,57.3170731707317 59.197154471544714,57.16463414634146 59.40040650406504,57.012195121951216 59.552845528455286,56.859756097560975 59.70528455284553,56.70731707317073 59.90853658536585,56.55487804878049 60.0609756097561,56.40243902439024 60.21341463414634,56.25 60.416666666666664,56.09756097560975 60.56910569105691,55.94512195121951 60.72154471544715,55.84349593495935 60.823170731707314,55.6910569105691 60.97560975609756,55.58943089430894 61.077235772357724,55.4369918699187 61.229674796747965,55.28455284552845 61.33130081300813,55.18292682926829 61.43292682926829,55.03048780487805 61.58536585365854,54.827235772357724 61.6869918699187,54.67479674796748 61.78861788617886,54.52235772357724 61.9410569105691,54.36991869918699 62.042682926829265,54.166666666666664 62.14430894308943,54.014227642276424 62.296747967479675,53.8109756097561" fill="none" stroke="black" stroke-width="0.6"></polyline><polyline points="62.296747967479675,53.8109756097561 62.39837398373984,53.65853658536585 62.5,53.50609756097561 62.60162601626016,53.302845528455286 62.703252032520325,53.15040650406504 62.7540650406504,52.9979674796748 62.80487804878049,52.79471544715447 62.855691056910565,52.642276422764226 62.90650406504065,52.489837398373986 62.90650406504065,52.33739837398374 62.90650406504065,52.1849593495935 62.95731707317073,52.03252032520325 62.95731707317073,51.829268292682926 62.95731707317073,51.67682926829268 62.95731707317073,51.47357723577235 62.95731707317073,51.27032520325203 63.00813008130081,51.11788617886179 63.00813008130081,50.91463414634146 63.00813008130081,50.71138211382114 63.00813008130081,50.55894308943089 63.00813008130081,50.355691056910565 63.00813008130081,50.10162601626016 63.00813008130081,49.89837398373984 63.00813008130081,49.69512195121951 63.00813008130081,49.49186991869919 63.00813008130081,49.28861788617886 63.00813008130081,49.08536585365854 63.00813008130081,48.88211382113821 63.00813008130081,48.67886178861789 62.95731707317073,48.47560975609756 62.90650406504065,48.27235772357724 62.90650406504065,48.06910569105691 62.855691056910565,47.86585365853659 62.80487804878049,47.61178861788618 62.7540650406504,47.40853658536585 62.703252032520325,47.20528455284553 62.65243902439024,47.0020325203252 62.60162601626016,46.798780487804876 62.60162601626016,46.59552845528455 62.5,46.392276422764226 62.5,46.239837398373986 62.449186991869915,46.03658536585366 62.34756097560975,45.833333333333336 62.296747967479675,45.68089430894309 62.24593495934959,45.47764227642276 62.19512195121951,45.325203252032516 62.14430894308943,45.12195121951219 62.14430894308943,44.918699186991866 62.09349593495935,44.766260162601625 62.042682926829265,44.5630081300813 61.99186991869919,44.359756097560975" fill="none" stroke="black" stroke-width="0.6"></polyline><polyline points="61.99186991869919,44.359756097560975 61.99186991869919,44.20731707317073 61.9410569105691,44.05487804878049 61.890243902439025,43.85162601626016 61.83943089430894,43.64837398373984 61.83943089430894,43.49593495934959 61.78861788617886,43.292682926829265 61.73780487804878,43.140243902439025 61.6869918699187,42.98780487804878 61.58536585365854,42.78455284552845 61.53455284552845,42.63211382113821 61.483739837398375,42.479674796747965 61.43292682926829,42.327235772357724 61.33130081300813,42.17479674796748 61.28048780487805,42.073170731707314 61.17886178861789,41.920731707317074 61.077235772357724,41.76829268292683 61.02642276422764,41.666666666666664 60.92479674796748,41.514227642276424 60.823170731707314,41.41260162601626 60.77235772357724,41.260162601626014 60.670731707317074,41.15853658536585 60.56910569105691,41.00609756097561 60.51829268292683,40.90447154471545 60.416666666666664,40.7520325203252 60.3150406504065,40.59959349593496 60.21341463414634,40.4979674796748 60.16260162601626,40.396341463414636 60.0609756097561,40.29471544715447 59.959349593495936,40.142276422764226 59.857723577235774,40.040650406504064 59.75609756097561,39.9390243902439 59.603658536585364,39.83739837398374 59.5020325203252,39.735772357723576 59.40040650406504,39.63414634146341 59.298780487804876,39.583333333333336 59.146341463414636,39.48170731707317 59.04471544715447,39.38008130081301 58.892276422764226,39.27845528455285 58.790650406504064,39.176829268292686 58.6890243902439,39.1260162601626 58.536585365853654,39.02439024390244 58.38414634146341,38.922764227642276 58.231707317073166,38.82113821138211 58.079268292682926,38.77032520325203 57.92682926829268,38.668699186991866 57.77439024390244,38.61788617886179 57.62195121951219,38.516260162601625 57.46951219512195,38.41463414634146 57.3170731707317,38.36382113821138 57.16463414634146,38.262195121951216" fill="none" stroke="black" stroke-width="0.6"></polyline><polyline points="57.16463414634146,38.262195121951216 57.012195121951216,38.21138211382114 56.859756097560975,38.109756097560975 56.70731707317073,38.05894308943089 56.5040650406504,37.95731707317073 56.35162601626016,37.90650406504065 56.199186991869915,37.80487804878049 56.046747967479675,37.7540650406504 55.89430894308943,37.65243902439024 55.6910569105691,37.55081300813008 55.53861788617886,37.5 55.386178861788615,37.39837398373984 55.18292682926829,37.296747967479675 55.03048780487805,37.24593495934959 54.8780487804878,37.19512195121951 54.67479674796748,37.09349593495935 54.52235772357724,37.042682926829265 54.36991869918699,36.9410569105691 54.166666666666664,36.890243902439025 54.0650406504065,36.78861788617886 53.91260162601626,36.73780487804878 53.760162601626014,36.636178861788615 53.607723577235774,36.58536585365854 53.45528455284553,36.53455284552845 53.302845528455286,36.43292682926829 53.15040650406504,36.38211382113821 52.947154471544714,36.33130081300813 52.79471544715447,36.229674796747965 52.642276422764226,36.17886178861789 52.4390243902439,36.1280487804878 52.28658536585366,36.077235772357724 52.083333333333336,36.02642276422764 51.93089430894309,35.97560975609756 51.72764227642276,35.92479674796748 51.52439024390244,35.8739837398374 51.37195121951219,35.823170731707314 51.168699186991866,35.77235772357724 51.016260162601625,35.72154471544715 50.8130081300813,35.670731707317074 50.609756097560975,35.670731707317074 50.40650406504065,35.61991869918699 50.2540650406504,35.56910569105691 50,35.56910569105691 49.84756097560975,35.51829268292683 49.64430894308943,35.51829268292683 49.4410569105691,35.46747967479675 49.23780487804878,35.46747967479675 49.03455284552845,35.46747967479675 48.78048780487805,35.416666666666664 48.577235772357724,35.416666666666664 48.3739837398374,35.416666666666664" fill="none" stroke="black" stroke-width="0.6"></polyline><polyline points="48.3739837398374,35.416666666666664 48.11991869918699,35.36585365853659 47.916666666666664,35.36585365853659 47.71341463414634,35.36585365853659 47.459349593495936,35.3150406504065 47.25609756097561,35.3150406504065 47.052845528455286,35.3150406504065 46.798780487804876,35.3150406504065 46.59552845528455,35.3150406504065 46.392276422764226,35.3150406504065 46.1890243902439,35.3150406504065 45.985772357723576,35.3150406504065 45.78252032520325,35.3150406504065 45.52845528455285,35.3150406504065 45.325203252032516,35.36585365853659 45.12195121951219,35.416666666666664 44.918699186991866,35.416666666666664 44.71544715447154,35.51829268292683 44.512195121951216,35.56910569105691 44.359756097560975,35.61991869918699 44.20731707317073,35.670731707317074 44.05487804878049,35.72154471544715 43.90243902439024,35.77235772357724 43.75,35.823170731707314 43.59756097560975,35.8739837398374 43.44512195121951,35.92479674796748 43.292682926829265,36.02642276422764 43.08943089430894,36.077235772357724 42.9369918699187,36.17886178861789 42.733739837398375,36.28048780487805 42.58130081300813,36.33130081300813 42.42886178861789,36.43292682926829 42.22560975609756,36.53455284552845 42.073170731707314,36.636178861788615 41.920731707317074,36.73780487804878 41.76829268292683,36.83943089430894 41.61585365853659,36.99186991869919 41.46341463414634,37.09349593495935 41.3109756097561,37.24593495934959 41.107723577235774,37.34756097560975 40.95528455284553,37.5 40.802845528455286,37.60162601626016 40.59959349593496,37.80487804878049 40.447154471544714,37.90650406504065 40.24390243902439,38.05894308943089 40.09146341463415,38.262195121951216 39.9390243902439,38.41463414634146 39.735772357723576,38.5670731707317 39.583333333333336,38.77032520325203 39.43089430894309,38.97357723577235 39.27845528455285,39.176829268292686" fill="none" stroke="black" stroke-width="0.6"></polyline><polyline points="39.27845528455285,39.176829268292686 39.1260162601626,39.38008130081301 38.97357723577235,39.583333333333336 38.82113821138211,39.735772357723576 38.668699186991866,39.9390243902439 38.5670731707317,40.09146341463415 38.41463414634146,40.29471544715447 38.262195121951216,40.447154471544714 38.16056910569105,40.59959349593496 38.05894308943089,40.7520325203252 37.90650406504065,40.95528455284553 37.80487804878049,41.107723577235774 37.65243902439024,41.260162601626014 37.5,41.46341463414634 37.39837398373984,41.666666666666664 37.296747967479675,41.81910569105691 37.19512195121951,41.97154471544715 37.09349593495935,42.1239837398374 36.9410569105691,42.27642276422764 36.83943089430894,42.479674796747965 36.73780487804878,42.63211382113821 36.636178861788615,42.78455284552845 36.53455284552845,42.98780487804878 36.38211382113821,43.1910569105691 36.28048780487805,43.34349593495935 36.1280487804878,43.59756097560975 35.97560975609756,43.80081300813008 35.823170731707314,44.0040650406504 35.670731707317074,44.20731707317073 35.56910569105691,44.41056910569105 35.46747967479675,44.61382113821138 35.36585365853659,44.766260162601625 35.264227642276424,44.96951219512195 35.21341463414634,45.172764227642276 35.11178861788618,45.3760162601626 35.0609756097561,45.579268292682926 35.010162601626014,45.833333333333336 34.90853658536585,46.03658536585366 34.857723577235774,46.290650406504064 34.75609756097561,46.49390243902439 34.70528455284553,46.7479674796748 34.603658536585364,47.0020325203252 34.552845528455286,47.25609756097561 34.451219512195124,47.510162601626014 34.40040650406504,47.764227642276424 34.34959349593496,48.01829268292683 34.2479674796748,48.27235772357724 34.2479674796748,48.52642276422764 34.197154471544714,48.78048780487805 34.146341463414636,49.08536585365854 34.09552845528455,49.33943089430894" fill="none" stroke="black" stroke-width="0.6"></polyline><polyline points="34.09552845528455,49.33943089430894 34.09552845528455,49.59349593495935 34.04471544715447,49.84756097560975 34.04471544715447,50.10162601626016 34.04471544715447,50.40650406504065 34.04471544715447,50.66056910569105 34.04471544715447,50.91463414634146 34.04471544715447,51.21951219512195 34.04471544715447,51.47357723577235 34.04471544715447,51.72764227642276 34.04471544715447,52.03252032520325 34.04471544715447,52.28658536585366 34.04471544715447,52.59146341463415 34.04471544715447,52.896341463414636 34.09552845528455,53.15040650406504 34.09552845528455,53.40447154471545 34.09552845528455,53.709349593495936 34.146341463414636,53.96341463414634 34.146341463414636,54.26829268292683 34.146341463414636,54.573170731707314 34.197154471544714,54.827235772357724 34.2479674796748,55.13211382113821 34.2479674796748,55.4369918699187 34.298780487804876,55.6910569105691 34.34959349593496,55.89430894308943 34.451219512195124,56.199186991869915 34.5020325203252,56.40243902439024 34.552845528455286,56.65650406504065 34.65447154471545,56.91056910569105 34.70528455284553,57.16463414634146 34.80691056910569,57.36788617886179 34.857723577235774,57.62195121951219 34.90853658536585,57.825203252032516 35.010162601626014,58.02845528455284 35.0609756097561,58.28252032520325 35.16260162601626,58.485772357723576 35.21341463414634,58.739837398373986 35.3150406504065,58.99390243902439 35.416666666666664,59.197154471544714 35.46747967479675,59.451219512195124 35.56910569105691,59.65447154471545 35.670731707317074,59.857723577235774 35.72154471544715,60.11178861788618 35.823170731707314,60.3150406504065 35.92479674796748,60.51829268292683 36.02642276422764,60.72154471544715 36.17886178861789,60.92479674796748 36.28048780487805,61.077235772357724 36.43292682926829,61.28048780487805 36.53455284552845,61.483739837398375 36.6869918699187,61.636178861788615" fill="none" stroke="black" stroke-width="0.6"></polyline><polyline points="36.6869918699187,61.636178861788615 36.78861788617886,61.78861788617886 36.99186991869919,61.99186991869919 37.09349593495935,62.14430894308943 37.24593495934959,62.296747967479675 37.39837398373984,62.5 37.55081300813008,62.65243902439024 37.703252032520325,62.855691056910565 37.855691056910565,63.00813008130081 38.00813008130081,63.21138211382114 38.16056910569105,63.36382113821138 38.3130081300813,63.5670731707317 38.46544715447154,63.71951219512195 38.61788617886179,63.922764227642276 38.77032520325203,64.07520325203252 38.87195121951219,64.27845528455285 39.02439024390244,64.43089430894308 39.176829268292686,64.6341463414634 39.329268292682926,64.78658536585365 39.48170731707317,64.98983739837398 39.6849593495935,65.1930894308943 39.83739837398374,65.34552845528455 40.040650406504064,65.4979674796748 40.24390243902439,65.65040650406505 40.447154471544714,65.80284552845528 40.65040650406504,65.95528455284553 40.802845528455286,66.10772357723577 41.00609756097561,66.20934959349593 41.260162601626014,66.36178861788618 41.41260162601626,66.46341463414635 41.666666666666664,66.5650406504065 41.86991869918699,66.66666666666667 42.073170731707314,66.71747967479675 42.327235772357724,66.8191056910569 42.53048780487805,66.869918699187 42.733739837398375,66.97154471544715 42.9369918699187,67.02235772357723 43.140243902439025,67.1239837398374 43.34349593495935,67.17479674796748 43.546747967479675,67.22560975609755 43.80081300813008,67.32723577235772 44.0040650406504,67.3780487804878 44.20731707317073,67.42886178861788 44.46138211382114,67.47967479674797 44.71544715447154,67.47967479674797 44.918699186991866,67.53048780487805 45.172764227642276,67.58130081300813 45.3760162601626,67.58130081300813 45.63008130081301,67.58130081300813 45.833333333333336,67.58130081300813 46.08739837398374,67.58130081300813" fill="none" stroke="black" stroke-width="0.6"></polyline><polyline points="46.08739837398374,67.58130081300813 46.290650406504064,67.58130081300813 46.54471544715447,67.58130081300813 46.798780487804876,67.58130081300813 47.052845528455286,67.58130081300813 47.30691056910569,67.58130081300813 47.510162601626014,67.58130081300813 47.764227642276424,67.58130081300813 48.01829268292683,67.53048780487805 48.22154471544715,67.53048780487805 48.42479674796748,67.53048780487805 48.67886178861789,67.53048780487805 48.93292682926829,67.53048780487805 49.136178861788615,67.53048780487805 49.390243902439025,67.47967479674797 49.64430894308943,67.47967479674797 49.84756097560975,67.42886178861788 50.10162601626016,67.42886178861788 50.30487804878049,67.3780487804878 50.50813008130081,67.3780487804878 50.71138211382114,67.32723577235772 50.96544715447154,67.27642276422765 51.168699186991866,67.27642276422765 51.422764227642276,67.22560975609755 51.6260162601626,67.17479674796748 51.880081300813,67.17479674796748 52.083333333333336,67.1239837398374 52.33739837398374,67.07317073170732 52.540650406504064,67.07317073170732 52.79471544715447,67.02235772357723 52.9979674796748,66.97154471544715 53.2520325203252,66.92073170731707 53.45528455284553,66.869918699187 53.709349593495936,66.8191056910569 53.86178861788618,66.76829268292683 54.11585365853659,66.76829268292683 54.31910569105691,66.71747967479675 54.52235772357724,66.66666666666667 54.72560975609756,66.61585365853658 54.92886178861789,66.61585365853658 55.13211382113821,66.5650406504065 55.33536585365854,66.51422764227642 55.53861788617886,66.51422764227642 55.74186991869919,66.46341463414635 55.94512195121951,66.41260162601625 56.14837398373984,66.3109756097561 56.35162601626016,66.26016260162602 56.55487804878049,66.20934959349593 56.75813008130081,66.15853658536585 57.012195121951216,66.0569105691057 57.21544715447154,66.0060975609756" fill="none" stroke="black" stroke-width="0.6"></polyline><polyline points="57.21544715447154,66.0060975609756 57.418699186991866,65.90447154471545 57.62195121951219,65.80284552845528 57.825203252032516,65.70121951219512 58.02845528455284,65.65040650406505 58.28252032520325,65.54878048780488 58.43495934959349,65.44715447154472 58.63821138211382,65.39634146341463 58.790650406504064,65.29471544715447 58.99390243902439,65.1930894308943 59.146341463414636,65.09146341463415 59.34959349593496,64.98983739837398 59.552845528455286,64.88821138211382 59.70528455284553,64.78658536585365 59.90853658536585,64.6849593495935 60.11178861788618,64.58333333333333 60.264227642276424,64.43089430894308 60.46747967479675,64.32926829268293 60.61991869918699,64.17682926829268 60.77235772357724,64.07520325203252 60.97560975609756,63.922764227642276 61.1280487804878,63.77032520325203 61.28048780487805,63.668699186991866 61.483739837398375,63.516260162601625 61.636178861788615,63.36382113821138 61.83943089430894,63.16056910569105 62.042682926829265,63.00813008130081 62.19512195121951,62.855691056910565 62.39837398373984,62.65243902439024 62.60162601626016,62.449186991869915 62.7540650406504,62.296747967479675 62.95731707317073,62.14430894308943 63.109756097560975,61.9410569105691 63.3130081300813,61.78861788617886 63.46544715447154,61.58536585365854 63.61788617886179,61.43292682926829 63.71951219512195,61.229674796747965 63.87195121951219,61.02642276422764 64.02439024390243,60.8739837398374 64.1260162601626,60.670731707317074 64.27845528455285,60.416666666666664 64.43089430894308,60.21341463414634 64.58333333333333,60.010162601626014 64.73577235772358,59.80691056910569 64.88821138211382,59.603658536585364 65.04065040650406,59.451219512195124 65.1930894308943,59.2479674796748 65.34552845528455,59.04471544715447 65.4979674796748,58.892276422764226 65.59959349593495,58.6890243902439 65.7520325203252,58.485772357723576" fill="none" stroke="black" stroke-width="0.6"></polyline><polyline points="65.7520325203252,58.485772357723576 65.85365853658537,58.28252032520325 66.0060975609756,58.079268292682926 66.10772357723577,57.8760162601626 66.20934959349593,57.72357723577235 66.36178861788618,57.52032520325203 66.46341463414635,57.3170731707317 66.61585365853658,57.11382113821138 66.71747967479675,56.859756097560975 66.8191056910569,56.65650406504065 66.92073170731707,56.453252032520325 67.07317073170732,56.199186991869915 67.17479674796748,55.99593495934959 67.27642276422765,55.792682926829265 67.3780487804878,55.58943089430894 67.47967479674797,55.386178861788615 67.58130081300813,55.18292682926829 67.6829268292683,55.03048780487805 67.73373983739837,54.827235772357724 67.83536585365853,54.6239837398374 67.98780487804878,54.420731707317074 68.03861788617886,54.21747967479675 68.14024390243902,54.014227642276424 68.1910569105691,53.760162601626014 68.24186991869918,53.607723577235774 68.29268292682927,53.40447154471545 68.34349593495935,53.201219512195124 68.39430894308943,53.048780487804876 68.4959349593496,52.84552845528455 68.59756097560975,52.59146341463415 68.64837398373983,52.38821138211382 68.75,52.13414634146341 68.85162601626016,51.880081300813 68.95325203252033,51.67682926829268 69.0040650406504,51.47357723577235 69.10569105691057,51.21951219512195 69.15650406504065,51.016260162601625 69.20731707317073,50.86382113821138 69.2581300813008,50.66056910569105 69.3089430894309,50.45731707317073 69.35975609756098,50.2540650406504 69.41056910569105,50 69.41056910569105,49.796747967479675 69.46138211382113,49.542682926829265 69.51219512195122,49.33943089430894 69.51219512195122,49.136178861788615 69.5630081300813,48.88211382113821 69.5630081300813,48.67886178861789 69.5630081300813,48.47560975609756 69.5630081300813,48.27235772357724 69.5630081300813,48.01829268292683" fill="none" stroke="black" stroke-width="0.6"></polyline><polyline points="69.5630081300813,48.01829268292683 69.5630081300813,47.8150406504065 69.5630081300813,47.61178861788618 69.5630081300813,47.40853658536585 69.5630081300813,47.20528455284553 69.5630081300813,47.0020325203252 69.5630081300813,46.798780487804876 69.51219512195122,46.59552845528455 69.51219512195122,46.392276422764226 69.51219512195122,46.1890243902439 69.46138211382113,45.985772357723576 69.46138211382113,45.78252032520325 69.41056910569105,45.579268292682926 69.41056910569105,45.3760162601626 69.35975609756098,45.172764227642276 69.35975609756098,44.96951219512195 69.3089430894309,44.766260162601625 69.2581300813008,44.5630081300813 69.2581300813008,44.359756097560975 69.20731707317073,44.15650406504065 69.10569105691057,43.953252032520325 69.05487804878048,43.80081300813008 69.0040650406504,43.59756097560975 68.90243902439025,43.39430894308943 68.85162601626016,43.1910569105691 68.80081300813008,43.03861788617886 68.75,42.83536585365854 68.75,42.63211382113821 68.69918699186992,42.42886178861789 68.64837398373983,42.22560975609756 68.64837398373983,42.073170731707314 68.59756097560975,41.86991869918699 68.54674796747967,41.61585365853659 68.4959349593496,41.41260162601626 68.4959349593496,41.209349593495936 68.4451219512195,41.00609756097561 68.39430894308943,40.802845528455286 68.34349593495935,40.65040650406504 68.24186991869918,40.447154471544714 68.1910569105691,40.29471544715447 68.14024390243902,40.142276422764226 68.08943089430895,39.9390243902439 67.98780487804878,39.78658536585366 67.9369918699187,39.63414634146341 67.83536585365853,39.48170731707317 67.78455284552845,39.329268292682926 67.73373983739837,39.176829268292686 67.6321138211382,38.97357723577235 67.58130081300813,38.82113821138211 67.47967479674797,38.668699186991866 67.42886178861788,38.46544715447154" fill="none" stroke="black" stroke-width="0.6"></polyline><polyline points="67.42886178861788,38.46544715447154 67.32723577235772,38.3130081300813 67.22560975609755,38.16056910569105 67.1239837398374,38.00813008130081 67.02235772357723,37.855691056910565 66.92073170731707,37.703252032520325 66.8191056910569,37.55081300813008 66.71747967479675,37.39837398373984 66.61585365853658,37.24593495934959 66.46341463414635,37.09349593495935 66.36178861788618,36.9410569105691 66.26016260162602,36.78861788617886 66.10772357723577,36.636178861788615 66.0060975609756,36.483739837398375 65.90447154471545,36.38211382113821 65.7520325203252,36.229674796747965 65.59959349593495,36.077235772357724 65.44715447154472,35.97560975609756 65.34552845528455,35.823170731707314 65.1930894308943,35.670731707317074 65.09146341463415,35.56910569105691 64.9390243902439,35.416666666666664 64.83739837398373,35.264227642276424 64.6849593495935,35.11178861788618 64.58333333333333,34.959349593495936 64.43089430894308,34.80691056910569 64.32926829268293,34.65447154471545 64.17682926829268,34.5020325203252 64.02439024390243,34.40040650406504 63.87195121951219,34.2479674796748 63.71951219512195,34.146341463414636 63.61788617886179,34.04471544715447 63.46544715447154,33.892276422764226 63.3130081300813,33.790650406504064 63.16056910569105,33.6890243902439 63.00813008130081,33.53658536585366 62.90650406504065,33.4349593495935 62.7540650406504,33.28252032520325 62.60162601626016,33.18089430894309 62.449186991869915,33.02845528455285 62.296747967479675,32.926829268292686 62.14430894308943,32.77439024390244 61.99186991869919,32.672764227642276 61.83943089430894,32.52032520325203 61.636178861788615,32.418699186991866 61.483739837398375,32.3170731707317 61.33130081300813,32.16463414634146 61.17886178861789,32.0630081300813 61.02642276422764,31.910569105691057 60.8739837398374,31.808943089430894 60.72154471544715,31.70731707317073" fill="none" stroke="black" stroke-width="0.6"></polyline><polyline points="60.72154471544715,31.70731707317073 60.56910569105691,31.60569105691057 60.36585365853659,31.504065040650406 60.16260162601626,31.402439024390244 60.010162601626014,31.30081300813008 59.857723577235774,31.19918699186992 59.65447154471545,31.148373983739837 59.451219512195124,31.046747967479675 59.298780487804876,30.945121951219512 59.09552845528455,30.84349593495935 58.892276422764226,30.79268292682927 58.739837398373986,30.691056910569106 58.536585365853654,30.640243902439025 58.33333333333333,30.538617886178862 58.130081300813,30.48780487804878 57.92682926829268,30.38617886178862 57.72357723577235,30.335365853658537 57.52032520325203,30.284552845528456 57.3170731707317,30.182926829268293 57.11382113821138,30.132113821138212 56.96138211382114,30.08130081300813 56.75813008130081,30.03048780487805 56.605691056910565,29.979674796747968 56.40243902439024,29.928861788617887 56.199186991869915,29.878048780487806 56.046747967479675,29.878048780487806 55.84349593495935,29.827235772357724 55.640243902439025,29.776422764227643 55.4369918699187,29.725609756097562 55.28455284552845,29.725609756097562 55.08130081300813,29.67479674796748 54.8780487804878,29.67479674796748 54.67479674796748,29.6239837398374 54.47154471544715,29.6239837398374 54.26829268292683,29.6239837398374 54.11585365853659,29.573170731707318 53.91260162601626,29.573170731707318 53.760162601626014,29.522357723577237 53.55691056910569,29.471544715447155 53.40447154471545,29.471544715447155 53.201219512195124,29.420731707317074 53.048780487804876,29.369918699186993 52.84552845528455,29.31910569105691 52.69308943089431,29.268292682926827 52.540650406504064,29.268292682926827 52.38821138211382,29.217479674796746 52.235772357723576,29.166666666666664 52.03252032520325,29.166666666666664 51.880081300813,29.115853658536583 51.72764227642276,29.0650406504065 51.575203252032516,29.0650406504065" fill="none" stroke="black" stroke-width="0.6"></polyline><polyline points="51.575203252032516,29.0650406504065 51.37195121951219,29.01422764227642 51.21951219512195,29.01422764227642 51.0670731707317,28.96341463414634 50.86382113821138,28.96341463414634 50.71138211382114,28.912601626016258 50.55894308943089,28.912601626016258 50.355691056910565,28.861788617886177 50.203252032520325,28.861788617886177 50,28.810975609756095 49.796747967479675,28.810975609756095 49.59349593495935,28.810975609756095 49.390243902439025,28.810975609756095 49.1869918699187,28.810975609756095 48.983739837398375,28.810975609756095 48.729674796747965,28.810975609756095 48.52642276422764,28.810975609756095 48.27235772357724,28.810975609756095 48.06910569105691,28.810975609756095 47.8150406504065,28.810975609756095 47.61178861788618,28.810975609756095 47.40853658536585,28.810975609756095 47.20528455284553,28.810975609756095 46.951219512195124,28.810975609756095 46.7479674796748,28.810975609756095 46.54471544715447,28.810975609756095 46.34146341463415,28.810975609756095 46.08739837398374,28.810975609756095 45.88414634146341,28.810975609756095 45.68089430894309,28.810975609756095 45.47764227642276,28.861788617886177 45.27439024390244,28.861788617886177 45.07113821138211,28.861788617886177 44.8170731707317,28.912601626016258 44.61382113821138,28.912601626016258 44.41056910569105,28.96341463414634 44.15650406504065,28.96341463414634 43.953252032520325,28.96341463414634 43.75,29.01422764227642 43.49593495934959,29.0650406504065 43.292682926829265,29.0650406504065 43.08943089430894,29.115853658536583 42.83536585365854,29.166666666666664 42.63211382113821,29.217479674796746 42.42886178861789,29.268292682926827 42.22560975609756,29.268292682926827 41.97154471544715,29.31910569105691 41.76829268292683,29.369918699186993 41.5650406504065,29.369918699186993 41.3109756097561,29.420731707317074 41.107723577235774,29.471544715447155" fill="none" stroke="black" stroke-width="0.6"></polyline><polyline points="41.107723577235774,29.471544715447155 40.853658536585364,29.522357723577237 40.65040650406504,29.522357723577237 40.396341463414636,29.573170731707318 40.19308943089431,29.6239837398374 39.989837398373986,29.67479674796748 39.78658536585366,29.67479674796748 39.53252032520325,29.725609756097562 39.38008130081301,29.776422764227643 39.176829268292686,29.827235772357724 38.97357723577235,29.878048780487806 38.77032520325203,29.979674796747968 38.61788617886179,30.03048780487805 38.41463414634146,30.08130081300813 38.21138211382114,30.132113821138212 38.05894308943089,30.233739837398375 37.855691056910565,30.335365853658537 37.703252032520325,30.38617886178862 37.5,30.48780487804878 37.34756097560975,30.640243902439025 37.19512195121951,30.741869918699187 37.042682926829265,30.84349593495935 36.83943089430894,30.995934959349594 36.6869918699187,31.097560975609756 36.53455284552845,31.25 36.38211382113821,31.402439024390244 36.229674796747965,31.504065040650406 36.077235772357724,31.65650406504065 35.92479674796748,31.808943089430894 35.77235772357724,31.961382113821138 35.61991869918699,32.0630081300813 35.51829268292683,32.21544715447154 35.36585365853659,32.36788617886179 35.264227642276424,32.57113821138211 35.16260162601626,32.72357723577236 35.010162601626014,32.8760162601626 34.90853658536585,33.079268292682926 34.75609756097561,33.23170731707317 34.603658536585364,33.4349593495935 34.5020325203252,33.58739837398374 34.34959349593496,33.739837398373986 34.2479674796748,33.94308943089431 34.09552845528455,34.09552845528455 33.94308943089431,34.2479674796748 33.84146341463415,34.40040650406504 33.739837398373986,34.552845528455286 33.63821138211382,34.70528455284553 33.485772357723576,34.857723577235774 33.38414634146341,35.010162601626014 33.28252032520325,35.16260162601626 33.18089430894309,35.3150406504065" fill="none" stroke="black" stroke-width="0.6"></polyline><polyline points="33.18089430894309,35.3150406504065 33.079268292682926,35.51829268292683 32.97764227642276,35.670731707317074 32.82520325203252,35.8739837398374 32.72357723577236,36.02642276422764 32.6219512195122,36.17886178861789 32.46951219512195,36.38211382113821 32.36788617886179,36.53455284552845 32.21544715447154,36.73780487804878 32.0630081300813,36.890243902439025 31.961382113821138,37.09349593495935 31.808943089430894,37.296747967479675 31.70731707317073,37.449186991869915 31.60569105691057,37.60162601626016 31.453252032520325,37.80487804878049 31.351626016260163,37.95731707317073 31.25,38.16056910569105 31.148373983739837,38.3130081300813 31.046747967479675,38.46544715447154 30.995934959349594,38.61788617886179 30.89430894308943,38.71951219512195 30.79268292682927,38.922764227642276 30.691056910569106,39.07520325203252 30.589430894308943,39.27845528455285 30.48780487804878,39.43089430894309 30.38617886178862,39.63414634146341 30.284552845528456,39.78658536585366 30.182926829268293,39.9390243902439 30.03048780487805,40.142276422764226 29.928861788617887,40.34552845528455 29.827235772357724,40.4979674796748 29.725609756097562,40.701219512195124 29.6239837398374,40.853658536585364 29.573170731707318,41.05691056910569 29.471544715447155,41.209349593495936 29.369918699186993,41.41260162601626 29.268292682926827,41.61585365853659 29.166666666666664,41.76829268292683 29.01422764227642,41.97154471544715 28.912601626016258,42.17479674796748 28.810975609756095,42.3780487804878 28.65853658536585,42.58130081300813 28.55691056910569,42.733739837398375 28.404471544715445,42.98780487804878 28.302845528455283,43.1910569105691 28.20121951219512,43.39430894308943 28.099593495934958,43.64837398373984 27.997967479674795,43.85162601626016 27.947154471544714,44.05487804878049 27.84552845528455,44.25813008130081 27.74390243902439,44.46138211382114" fill="none" stroke="black" stroke-width="0.6"></polyline><polyline points="27.74390243902439,44.46138211382114 27.693089430894307,44.66463414634146 27.591463414634145,44.86788617886179 27.540650406504064,45.02032520325203 27.4390243902439,45.27439024390244 27.33739837398374,45.47764227642276 27.286585365853657,45.68089430894309 27.184959349593495,45.9349593495935 27.134146341463413,46.13821138211382 27.083333333333332,46.34146341463415 27.03252032520325,46.54471544715447 26.98170731707317,46.7479674796748 26.93089430894309,46.951219512195124 26.93089430894309,47.15447154471545 26.880081300813007,47.357723577235774 26.829268292682926,47.5609756097561 26.829268292682926,47.8150406504065 26.778455284552845,48.01829268292683 26.778455284552845,48.22154471544715 26.727642276422763,48.47560975609756 26.727642276422763,48.67886178861789 26.727642276422763,48.88211382113821 26.676829268292682,49.08536585365854 26.676829268292682,49.33943089430894 26.676829268292682,49.542682926829265 26.676829268292682,49.796747967479675 26.676829268292682,50 26.6260162601626,50.2540650406504 26.6260162601626,50.50813008130081 26.6260162601626,50.762195121951216 26.6260162601626,50.96544715447154 26.6260162601626,51.21951219512195 26.6260162601626,51.422764227642276 26.6260162601626,51.6260162601626 26.6260162601626,51.880081300813 26.6260162601626,52.13414634146341 26.6260162601626,52.38821138211382 26.6260162601626,52.642276422764226 26.676829268292682,52.896341463414636 26.676829268292682,53.09959349593496 26.727642276422763,53.353658536585364 26.727642276422763,53.55691056910569 26.778455284552845,53.760162601626014 26.778455284552845,54.014227642276424 26.829268292682926,54.21747967479675 26.829268292682926,54.47154471544715 26.829268292682926,54.72560975609756 26.880081300813007,54.92886178861789 26.880081300813007,55.13211382113821 26.93089430894309,55.386178861788615 26.98170731707317,55.58943089430894" fill="none" stroke="black" stroke-width="0.6"></polyline><polyline points="26.98170731707317,55.58943089430894 27.03252032520325,55.792682926829265 27.083333333333332,55.99593495934959 27.184959349593495,56.14837398373984 27.235772357723576,56.35162601626016 27.286585365853657,56.55487804878049 27.33739837398374,56.75813008130081 27.38821138211382,56.96138211382114 27.489837398373982,57.16463414634146 27.540650406504064,57.36788617886179 27.591463414634145,57.57113821138211 27.642276422764226,57.77439024390244 27.693089430894307,57.97764227642276 27.74390243902439,58.130081300813 27.79471544715447,58.33333333333333 27.84552845528455,58.536585365853654 27.896341463414632,58.739837398373986 27.947154471544714,58.94308943089431 27.997967479674795,59.09552845528455 28.099593495934958,59.298780487804876 28.15040650406504,59.451219512195124 28.2520325203252,59.65447154471545 28.353658536585364,59.857723577235774 28.404471544715445,60.010162601626014 28.506097560975608,60.16260162601626 28.60772357723577,60.36585365853659 28.65853658536585,60.56910569105691 28.760162601626014,60.77235772357724 28.810975609756095,60.97560975609756 28.912601626016258,61.17886178861789 28.96341463414634,61.43292682926829 29.01422764227642,61.636178861788615 29.0650406504065,61.83943089430894 29.115853658536583,62.042682926829265 29.166666666666664,62.24593495934959 29.217479674796746,62.449186991869915 29.268292682926827,62.65243902439024 29.31910569105691,62.90650406504065 29.420731707317074,63.109756097560975 29.471544715447155,63.3130081300813 29.522357723577237,63.5670731707317 29.573170731707318,63.71951219512195 29.67479674796748,63.922764227642276 29.776422764227643,64.1260162601626 29.827235772357724,64.32926829268293 29.928861788617887,64.48170731707317 30.03048780487805,64.6849593495935 30.08130081300813,64.88821138211382 30.182926829268293,65.09146341463415 30.284552845528456,65.29471544715447 30.38617886178862,65.44715447154472" fill="none" stroke="black" stroke-width="0.6"></polyline><polyline points="30.38617886178862,65.44715447154472 30.48780487804878,65.65040650406505 30.589430894308943,65.80284552845528 30.741869918699187,65.95528455284553 30.84349593495935,66.10772357723577 30.995934959349594,66.26016260162602 31.097560975609756,66.36178861788618 31.25,66.51422764227642 31.402439024390244,66.66666666666667 31.554878048780488,66.76829268292683 31.65650406504065,66.92073170731707 31.808943089430894,67.07317073170732 31.961382113821138,67.17479674796748 32.11382113821138,67.32723577235772 32.266260162601625,67.47967479674797 32.418699186991866,67.6321138211382 32.52032520325203,67.78455284552845 32.72357723577236,67.9369918699187 32.8760162601626,68.08943089430895 33.02845528455285,68.1910569105691 33.18089430894309,68.34349593495935 33.38414634146341,68.4959349593496 33.53658536585366,68.59756097560975 33.739837398373986,68.75 33.892276422764226,68.85162601626016 34.04471544715447,69.0040650406504 34.2479674796748,69.15650406504065 34.40040650406504,69.2581300813008 34.552845528455286,69.41056910569105 34.75609756097561,69.5630081300813 34.90853658536585,69.71544715447155 35.0609756097561,69.86788617886178 35.264227642276424,70.02032520325203 35.416666666666664,70.1219512195122 35.61991869918699,70.27439024390243 35.77235772357724,70.42682926829268 35.97560975609756,70.52845528455285 36.1280487804878,70.68089430894308 36.33130081300813,70.78252032520325 36.483739837398375,70.9349593495935 36.636178861788615,71.08739837398373 36.78861788617886,71.1890243902439 36.99186991869919,71.34146341463415 37.14430894308943,71.4430894308943 37.34756097560975,71.59552845528455 37.5,71.69715447154472 37.703252032520325,71.79878048780488 37.855691056910565,71.90040650406505 38.05894308943089,72.0020325203252 38.262195121951216,72.10365853658537 38.46544715447154,72.20528455284553" fill="none" stroke="black" stroke-width="0.6"></polyline><polyline points="38.46544715447154,72.20528455284553 38.61788617886179,72.3069105691057 38.87195121951219,72.35772357723577 39.02439024390244,72.40853658536585 39.22764227642276,72.51016260162602 39.43089430894309,72.5609756097561 39.583333333333336,72.61178861788618 39.78658536585366,72.71341463414635 39.9390243902439,72.76422764227642 40.142276422764226,72.8150406504065 40.29471544715447,72.91666666666667 40.548780487804876,72.96747967479675 40.7520325203252,73.01829268292683 40.95528455284553,73.01829268292683 41.15853658536585,73.0691056910569 41.36178861788618,73.119918699187 41.514227642276424,73.119918699187 41.71747967479675,73.17073170731707 41.86991869918699,73.22154471544715 42.02235772357724,73.22154471544715 42.22560975609756,73.27235772357723 42.3780487804878,73.32317073170732 42.53048780487805,73.3739837398374 42.733739837398375,73.42479674796748 42.9369918699187,73.47560975609755 43.140243902439025,73.52642276422765 43.292682926829265,73.57723577235772 43.49593495934959,73.57723577235772 43.64837398373984,73.6280487804878 43.80081300813008,73.67886178861788 44.0040650406504,73.67886178861788 44.15650406504065,73.72967479674797 44.359756097560975,73.78048780487805 44.512195121951216,73.78048780487805 44.71544715447154,73.83130081300813 44.918699186991866,73.8821138211382 45.07113821138211,73.9329268292683 45.27439024390244,73.98373983739837 45.42682926829268,74.03455284552845 45.63008130081301,74.03455284552845 45.78252032520325,74.08536585365853 45.9349593495935,74.13617886178862 46.08739837398374,74.1869918699187 46.290650406504064,74.1869918699187 46.44308943089431,74.23780487804878 46.59552845528455,74.28861788617886 46.798780487804876,74.33943089430895 46.951219512195124,74.33943089430895 47.15447154471545,74.39024390243902 47.30691056910569,74.4410569105691 47.510162601626014,74.4410569105691" fill="none" stroke="black" stroke-width="0.6"></polyline><polyline points="47.510162601626014,74.4410569105691 47.71341463414634,74.49186991869918 47.86585365853659,74.54268292682927 48.06910569105691,74.59349593495935 48.27235772357724,74.59349593495935 48.47560975609756,74.64430894308943 48.67886178861789,74.64430894308943 48.88211382113821,74.6951219512195 49.136178861788615,74.6951219512195 49.33943089430894,74.7459349593496 49.542682926829265,74.7459349593496 49.74593495934959,74.79674796747967 50,74.79674796747967 50.203252032520325,74.79674796747967 50.45731707317073,74.79674796747967 50.66056910569105,74.84756097560975 50.86382113821138,74.84756097560975 51.11788617886179,74.84756097560975 51.32113821138211,74.84756097560975 51.52439024390244,74.89837398373983 51.72764227642276,74.94918699186992 51.93089430894309,74.94918699186992 52.13414634146341,75 52.38821138211382,75 52.59146341463415,75.05081300813008 52.79471544715447,75.05081300813008 52.9979674796748,75.05081300813008 53.201219512195124,75.10162601626016 53.40447154471545,75.10162601626016 53.607723577235774,75.10162601626016 53.8109756097561,75.10162601626016 53.96341463414634,75.10162601626016 54.166666666666664,75.10162601626016 54.36991869918699,75.10162601626016 54.52235772357724,75.10162601626016 54.72560975609756,75.10162601626016 54.92886178861789,75.10162601626016 55.08130081300813,75.10162601626016 55.28455284552845,75.05081300813008 55.4369918699187,75.05081300813008 55.640243902439025,75 55.84349593495935,75 55.99593495934959,74.94918699186992 56.14837398373984,74.89837398373983 56.35162601626016,74.84756097560975 56.5040650406504,74.84756097560975 56.70731707317073,74.79674796747967 56.859756097560975,74.79674796747967 57.012195121951216,74.7459349593496 57.16463414634146,74.6951219512195 57.3170731707317,74.64430894308943" fill="none" stroke="black" stroke-width="0.6"></polyline><polyline points="57.3170731707317,74.64430894308943 57.418699186991866,74.59349593495935 57.57113821138211,74.54268292682927 57.72357723577235,74.49186991869918 57.8760162601626,74.4410569105691 57.97764227642276,74.39024390243902 58.130081300813,74.33943089430895 58.231707317073166,74.28861788617886 58.38414634146341,74.23780487804878 58.536585365853654,74.13617886178862 58.6890243902439,74.08536585365853 58.892276422764226,73.98373983739837 59.04471544715447,73.8821138211382 59.2479674796748,73.78048780487805 59.40040650406504,73.6280487804878 59.603658536585364,73.47560975609755 59.80691056910569,73.3739837398374 60.010162601626014,73.27235772357723 60.21341463414634,73.119918699187 60.416666666666664,73.01829268292683 60.61991869918699,72.91666666666667 60.823170731707314,72.76422764227642 61.02642276422764,72.66260162601625 61.229674796747965,72.51016260162602 61.43292682926829,72.40853658536585 61.58536585365854,72.2560975609756 61.78861788617886,72.10365853658537 61.99186991869919,71.95121951219512 62.19512195121951,71.84959349593495 62.39837398373984,71.64634146341463 62.60162601626016,71.54471544715447 62.80487804878049,71.34146341463415 63.05894308943089,71.1890243902439 63.262195121951216,71.03658536585365 63.46544715447154,70.8841463414634 63.71951219512195,70.68089430894308 63.87195121951219,70.52845528455285 64.07520325203252,70.3760162601626 64.27845528455285,70.17276422764228 64.48170731707317,70.02032520325203 64.6849593495935,69.8170731707317 64.88821138211382,69.66463414634146 65.04065040650406,69.51219512195122 65.1930894308943,69.35975609756098 65.39634146341463,69.20731707317073 65.54878048780488,69.05487804878048 65.7520325203252,68.90243902439025 65.90447154471545,68.75 66.10772357723577,68.59756097560975 66.26016260162602,68.4959349593496 66.41260162601625,68.34349593495935" fill="none" stroke="black" stroke-width="0.6"></polyline><polyline points="66.41260162601625,68.34349593495935 66.5650406504065,68.1910569105691 66.71747967479675,68.08943089430895 66.869918699187,67.9369918699187 67.02235772357723,67.78455284552845 67.17479674796748,67.6321138211382 67.32723577235772,67.53048780487805 67.47967479674797,67.3780487804878 67.6321138211382,67.22560975609755 67.78455284552845,67.1239837398374 67.88617886178862,66.97154471544715 67.98780487804878,66.8191056910569 68.14024390243902,66.66666666666667 68.29268292682927,66.5650406504065 68.39430894308943,66.41260162601625 68.54674796747967,66.3109756097561 68.64837398373983,66.15853658536585 68.80081300813008,66.0569105691057 68.95325203252033,65.90447154471545 69.05487804878048,65.7520325203252 69.20731707317073,65.65040650406505 69.3089430894309,65.4979674796748 69.41056910569105,65.34552845528455 69.5630081300813,65.1930894308943 69.66463414634146,65.04065040650406 69.8170731707317,64.88821138211382 69.91869918699187,64.73577235772358 70.0711382113821,64.53252032520325 70.22357723577235,64.380081300813 70.3760162601626,64.22764227642276 70.57926829268293,64.07520325203252 70.73170731707317,63.922764227642276 70.83333333333333,63.77032520325203 71.03658536585365,63.5670731707317 71.13821138211382,63.41463414634146 71.29065040650406,63.262195121951216 71.4430894308943,63.05894308943089 71.54471544715447,62.90650406504065 71.69715447154472,62.703252032520325 71.84959349593495,62.55081300813008 72.0020325203252,62.34756097560975 72.10365853658537,62.19512195121951 72.2560975609756,62.042682926829265 72.40853658536585,61.890243902439025 72.51016260162602,61.6869918699187 72.66260162601625,61.53455284552845 72.76422764227642,61.33130081300813 72.91666666666667,61.1280487804878 73.01829268292683,60.97560975609756 73.119918699187,60.72154471544715 73.27235772357723,60.51829268292683" fill="none" stroke="black" stroke-width="0.6"></polyline><polyline points="73.27235772357723,60.51829268292683 73.42479674796748,60.3150406504065 73.52642276422765,60.0609756097561 73.67886178861788,59.857723577235774 73.78048780487805,59.65447154471545 73.9329268292683,59.451219512195124 74.03455284552845,59.2479674796748 74.1869918699187,59.04471544715447 74.28861788617886,58.790650406504064 74.4410569105691,58.58739837398374 74.54268292682927,58.33333333333333 74.64430894308943,58.130081300813 74.7459349593496,57.92682926829268 74.84756097560975,57.72357723577235 74.89837398373983,57.52032520325203 75.05081300813008,57.3170731707317 75.10162601626016,57.0630081300813 75.20325203252033,56.859756097560975 75.30487804878048,56.605691056910565 75.40650406504065,56.35162601626016 75.5081300813008,56.046747967479675 75.60975609756098,55.74186991869919 75.71138211382113,55.48780487804878 75.8130081300813,55.233739837398375 75.91463414634146,54.92886178861789 76.01626016260163,54.6239837398374 76.11788617886178,54.31910569105691 76.21951219512195,54.014227642276424 76.27032520325203,53.709349593495936 76.3719512195122,53.40447154471545 76.42276422764228,53.15040650406504 76.47357723577235,52.896341463414636 76.47357723577235,52.642276422764226 76.52439024390243,52.38821138211382 76.52439024390243,52.13414634146341 76.52439024390243,51.880081300813 76.52439024390243,51.6260162601626 76.52439024390243,51.37195121951219 76.47357723577235,51.168699186991866 76.42276422764228,50.96544715447154 76.3211382113821,50.8130081300813 76.27032520325203,50.66056910569105 76.21951219512195,50.50813008130081 76.16869918699187,50.355691056910565 76.16869918699187,50.2540650406504 76.11788617886178,50.10162601626016 76.11788617886178,50.05081300813008" fill="none" stroke="black" stroke-width="0.6"></polyline></svg>