<svg height="100" width="100" preserveAspectRatio="xMidYMid meet"><polyline points="49.1869918699187,51.6260162601626 49.08536585365854,51.6260162601626 48.93292682926829,51.575203252032516 48.83130081300813,51.52439024390244 48.729674796747965,51.47357723577235 48.6280487804878,51.47357723577235 48.6280487804878,51.422764227642276 48.6280487804878,51.422764227642276 48.6280487804878,51.37195121951219 48.6280487804878,51.37195121951219 48.67886178861789,51.27032520325203 48.729674796747965,51.21951219512195 48.83130081300813,51.11788617886179 48.93292682926829,51.016260162601625 49.03455284552845,50.91463414634146 49.136178861788615,50.8130081300813 49.1869918699187,50.71138211382114 49.23780487804878,50.609756097560975 49.33943089430894,50.45731707317073 49.390243902439025,50.355691056910565 49.4410569105691,50.2540650406504 49.4410569105691,50.15243902439024 49.49186991869919,50.05081300813008 49.49186991869919,49.949186991869915 49.49186991869919,49.84756097560975 49.49186991869919,49.74593495934959 49.542682926829265,49.64430894308943 49.542682926829265,49.542682926829265 49.542682926829265,49.4410569105691 49.542682926829265,49.33943089430894 49.49186991869919,49.28861788617886 49.49186991869919,49.1869918699187 49.4410569105691,49.136178861788615 49.390243902439025,49.03455284552845 49.33943089430894,48.93292682926829 49.23780487804878,48.88211382113821 49.1869918699187,48.78048780487805 49.08536585365854,48.67886178861789 49.03455284552845,48.6280487804878 48.93292682926829,48.577235772357724 48.83130081300813,48.52642276422764 48.729674796747965,48.47560975609756 48.6280487804878,48.47560975609756 48.52642276422764,48.42479674796748 48.42479674796748,48.42479674796748 48.323170731707314,48.42479674796748 48.22154471544715,48.47560975609756 48.11991869918699,48.52642276422764 48.01829268292683,48.6280487804878 47.916666666666664,48.729674796747965 47.8150406504065,48.83130081300813" fill="none" stroke="black" stroke-width="0.6"></polyline><polyline points="47.8150406504065,48.83130081300813 47.66260162601626,48.93292682926829 47.5609756097561,49.03455284552845 47.459349593495936,49.1869918699187 47.357723577235774,49.28861788617886 47.20528455284553,49.390243902439025 47.103658536585364,49.49186991869919 47.052845528455286,49.64430894308943 46.951219512195124,49.74593495934959 46.84959349593496,49.89837398373984 46.798780487804876,50.05081300813008 46.697154471544714,50.203252032520325 46.646341463414636,50.30487804878049 46.59552845528455,50.45731707317073 46.59552845528455,50.609756097560975 46.54471544715447,50.71138211382114 46.54471544715447,50.8130081300813 46.49390243902439,50.96544715447154 46.49390243902439,51.11788617886179 46.49390243902439,51.27032520325203 46.49390243902439,51.37195121951219 46.54471544715447,51.52439024390244 46.54471544715447,51.67682926829268 46.59552845528455,51.880081300813 46.646341463414636,52.03252032520325 46.697154471544714,52.1849593495935 46.7479674796748,52.38821138211382 46.84959349593496,52.540650406504064 46.951219512195124,52.74390243902439 47.0020325203252,52.896341463414636 47.103658536585364,53.048780487804876 47.20528455284553,53.2520325203252 47.25609756097561,53.302845528455286 47.30691056910569,53.353658536585364 47.459349593495936,53.50609756097561 47.61178861788618,53.607723577235774 47.71341463414634,53.709349593495936 47.86585365853659,53.8109756097561 47.96747967479675,53.86178861788618 48.01829268292683,53.91260162601626 48.170731707317074,54.014227642276424 48.27235772357724,54.0650406504065 48.42479674796748,54.166666666666664 48.577235772357724,54.26829268292683 48.67886178861789,54.36991869918699 48.83130081300813,54.47154471544715 48.93292682926829,54.52235772357724 49.08536585365854,54.6239837398374 49.23780487804878,54.67479674796748 49.33943089430894,54.72560975609756 49.4410569105691,54.77642276422764" fill="none" stroke="black" stroke-width="0.6"></polyline><polyline points="49.4410569105691,54.77642276422764 49.59349593495935,54.827235772357724 49.69512195121951,54.8780487804878 49.796747967479675,54.92886178861789 49.949186991869915,54.979674796747965 50.05081300813008,55.03048780487805 50.203252032520325,55.03048780487805 50.355691056910565,55.08130081300813 50.50813008130081,55.08130081300813 50.66056910569105,55.08130081300813 50.8130081300813,55.08130081300813 50.96544715447154,55.08130081300813 51.11788617886179,55.08130081300813 51.32113821138211,55.08130081300813 51.47357723577235,55.08130081300813 51.67682926829268,55.03048780487805 51.880081300813,54.979674796747965 52.03252032520325,54.8780487804878 52.235772357723576,54.827235772357724 52.4390243902439,54.77642276422764 52.69308943089431,54.67479674796748 52.947154471544714,54.573170731707314 53.201219512195124,54.47154471544715 53.50609756097561,54.31910569105691 53.8109756097561,54.11585365853659 54.21747967479675,53.91260162601626 54.52235772357724,53.709349593495936 54.827235772357724,53.55691056910569 55.08130081300813,53.40447154471545 55.33536585365854,53.2520325203252 55.53861788617886,53.09959349593496 55.792682926829265,52.896341463414636 55.99593495934959,52.69308943089431 56.199186991869915,52.489837398373986 56.35162601626016,52.28658536585366 56.453252032520325,52.083333333333336 56.55487804878049,51.880081300813 56.65650406504065,51.67682926829268 56.75813008130081,51.47357723577235 56.80894308943089,51.27032520325203 56.91056910569105,51.016260162601625 56.91056910569105,50.762195121951216 56.96138211382114,50.50813008130081 57.012195121951216,50.203252032520325 57.012195121951216,49.949186991869915 57.012195121951216,49.59349593495935 57.012195121951216,49.28861788617886 57.012195121951216,49.03455284552845 56.96138211382114,48.729674796747965 56.91056910569105,48.47560975609756 56.859756097560975,48.27235772357724" fill="none" stroke="black" stroke-width="0.6"></polyline><polyline points="56.859756097560975,48.27235772357724 56.80894308943089,47.96747967479675 56.70731707317073,47.71341463414634 56.605691056910565,47.459349593495936 56.5040650406504,47.103658536585364 56.40243902439024,46.84959349593496 56.30081300813008,46.59552845528455 56.14837398373984,46.34146341463415 56.046747967479675,46.08739837398374 55.89430894308943,45.833333333333336 55.74186991869919,45.579268292682926 55.58943089430894,45.325203252032516 55.48780487804878,45.07113821138211 55.33536585365854,44.86788617886179 55.18292682926829,44.66463414634146 55.08130081300813,44.46138211382114 54.92886178861789,44.30894308943089 54.77642276422764,44.15650406504065 54.6239837398374,43.953252032520325 54.47154471544715,43.80081300813008 54.31910569105691,43.64837398373984 54.166666666666664,43.49593495934959 54.014227642276424,43.34349593495935 53.91260162601626,43.1910569105691 53.760162601626014,43.03861788617886 53.55691056910569,42.886178861788615 53.40447154471545,42.733739837398375 53.201219512195124,42.63211382113821 52.9979674796748,42.53048780487805 52.84552845528455,42.42886178861789 52.642276422764226,42.327235772357724 52.489837398373986,42.27642276422764 52.33739837398374,42.22560975609756 52.1849593495935,42.1239837398374 51.981707317073166,42.073170731707314 51.77845528455284,41.97154471544715 51.575203252032516,41.920731707317074 51.32113821138211,41.86991869918699 51.11788617886179,41.81910569105691 50.86382113821138,41.76829268292683 50.609756097560975,41.71747967479675 50.355691056910565,41.666666666666664 50.15243902439024,41.61585365853659 49.89837398373984,41.61585365853659 49.64430894308943,41.61585365853659 49.390243902439025,41.61585365853659 49.08536585365854,41.61585365853659 48.78048780487805,41.61585365853659 48.47560975609756,41.71747967479675 48.11991869918699,41.76829268292683 47.764227642276424,41.86991869918699" fill="none" stroke="black" stroke-width="0.6"></polyline><polyline points="47.764227642276424,41.86991869918699 47.40853658536585,41.97154471544715 47.103658536585364,42.02235772357724 46.798780487804876,42.073170731707314 46.49390243902439,42.1239837398374 46.13821138211382,42.17479674796748 45.9349593495935,42.22560975609756 45.73170731707317,42.27642276422764 45.52845528455285,42.327235772357724 45.325203252032516,42.327235772357724 45.12195121951219,42.42886178861789 44.918699186991866,42.479674796747965 44.766260162601625,42.53048780487805 44.61382113821138,42.58130081300813 44.46138211382114,42.68292682926829 44.30894308943089,42.733739837398375 44.15650406504065,42.83536585365854 44.0040650406504,42.9369918699187 43.85162601626016,43.08943089430894 43.699186991869915,43.1910569105691 43.59756097560975,43.292682926829265 43.44512195121951,43.39430894308943 43.34349593495935,43.546747967479675 43.24186991869919,43.64837398373984 43.08943089430894,43.80081300813008 42.98780487804878,43.90243902439024 42.886178861788615,44.0040650406504 42.78455284552845,44.105691056910565 42.63211382113821,44.25813008130081 42.53048780487805,44.359756097560975 42.3780487804878,44.512195121951216 42.22560975609756,44.66463414634146 42.073170731707314,44.8170731707317 41.86991869918699,44.96951219512195 41.71747967479675,45.172764227642276 41.514227642276424,45.3760162601626 41.36178861788618,45.579268292682926 41.15853658536585,45.833333333333336 41.00609756097561,45.985772357723576 40.90447154471545,46.13821138211382 40.7520325203252,46.34146341463415 40.59959349593496,46.49390243902439 40.4979674796748,46.697154471544714 40.29471544715447,46.90040650406504 40.19308943089431,47.052845528455286 40.09146341463415,47.25609756097561 39.989837398373986,47.459349593495936 39.88821138211382,47.71341463414634 39.78658536585366,47.96747967479675 39.735772357723576,48.27235772357724 39.6849593495935,48.52642276422764" fill="none" stroke="black" stroke-width="0.6"></polyline><polyline points="39.6849593495935,48.52642276422764 39.6849593495935,48.78048780487805 39.6849593495935,49.03455284552845 39.6849593495935,49.28861788617886 39.6849593495935,49.542682926829265 39.6849593495935,49.84756097560975 39.6849593495935,50.15243902439024 39.735772357723576,50.45731707317073 39.78658536585366,50.762195121951216 39.83739837398374,51.0670731707317 39.88821138211382,51.37195121951219 39.9390243902439,51.6260162601626 40.040650406504064,51.93089430894309 40.142276422764226,52.1849593495935 40.24390243902439,52.540650406504064 40.34552845528455,52.79471544715447 40.447154471544714,53.09959349593496 40.548780487804876,53.40447154471545 40.65040650406504,53.65853658536585 40.7520325203252,53.96341463414634 40.90447154471545,54.21747967479675 41.00609756097561,54.52235772357724 41.107723577235774,54.77642276422764 41.209349593495936,55.08130081300813 41.36178861788618,55.386178861788615 41.46341463414634,55.640243902439025 41.5650406504065,55.89430894308943 41.666666666666664,56.14837398373984 41.76829268292683,56.453252032520325 41.86991869918699,56.75813008130081 41.97154471544715,57.012195121951216 42.073170731707314,57.3170731707317 42.22560975609756,57.57113821138211 42.327235772357724,57.77439024390244 42.42886178861789,57.97764227642276 42.58130081300813,58.130081300813 42.733739837398375,58.28252032520325 42.886178861788615,58.485772357723576 43.03861788617886,58.63821138211382 43.140243902439025,58.790650406504064 43.292682926829265,58.94308943089431 43.39430894308943,59.04471544715447 43.546747967479675,59.146341463414636 43.64837398373984,59.298780487804876 43.80081300813008,59.40040650406504 43.90243902439024,59.5020325203252 44.105691056910565,59.603658536585364 44.25813008130081,59.70528455284553 44.41056910569105,59.80691056910569 44.61382113821138,59.959349593495936 44.766260162601625,60.010162601626014" fill="none" stroke="black" stroke-width="0.6"></polyline><polyline points="44.766260162601625,60.010162601626014 44.96951219512195,60.11178861788618 45.172764227642276,60.21341463414634 45.3760162601626,60.3150406504065 45.52845528455285,60.36585365853659 45.73170731707317,60.46747967479675 45.9349593495935,60.51829268292683 46.13821138211382,60.56910569105691 46.34146341463415,60.670731707317074 46.54471544715447,60.670731707317074 46.798780487804876,60.72154471544715 47.052845528455286,60.77235772357724 47.30691056910569,60.77235772357724 47.5609756097561,60.823170731707314 47.86585365853659,60.823170731707314 48.170731707317074,60.823170731707314 48.47560975609756,60.823170731707314 48.83130081300813,60.823170731707314 49.136178861788615,60.823170731707314 49.4410569105691,60.77235772357724 49.796747967479675,60.77235772357724 50.10162601626016,60.72154471544715 50.40650406504065,60.670731707317074 50.71138211382114,60.670731707317074 50.96544715447154,60.61991869918699 51.11788617886179,60.61991869918699 51.27032520325203,60.61991869918699 51.575203252032516,60.56910569105691 51.67682926829268,60.56910569105691 52.083333333333336,60.46747967479675 52.235772357723576,60.46747967479675 52.38821138211382,60.416666666666664 52.642276422764226,60.36585365853659 52.84552845528455,60.3150406504065 53.09959349593496,60.264227642276424 53.353658536585364,60.21341463414634 53.55691056910569,60.21341463414634 53.8109756097561,60.11178861788618 53.96341463414634,60.0609756097561 54.21747967479675,60.010162601626014 54.420731707317074,59.959349593495936 54.67479674796748,59.857723577235774 54.979674796747965,59.70528455284553 55.28455284552845,59.552845528455286 55.640243902439025,59.34959349593496 55.99593495934959,59.197154471544714 56.35162601626016,59.04471544715447 56.65650406504065,58.892276422764226 56.96138211382114,58.790650406504064 57.266260162601625,58.63821138211382 57.52032520325203,58.536585365853654" fill="none" stroke="black" stroke-width="0.6"></polyline><polyline points="57.52032520325203,58.536585365853654 57.825203252032516,58.485772357723576 58.079268292682926,58.38414634146341 58.33333333333333,58.231707317073166 58.63821138211382,58.130081300813 58.892276422764226,58.02845528455284 59.146341463414636,57.8760162601626 59.34959349593496,57.77439024390244 59.5020325203252,57.72357723577235 59.70528455284553,57.62195121951219 59.857723577235774,57.52032520325203 60.010162601626014,57.418699186991866 60.16260162601626,57.3170731707317 60.3150406504065,57.21544715447154 60.46747967479675,57.11382113821138 60.56910569105691,57.012195121951216 60.72154471544715,56.91056910569105 60.823170731707314,56.80894308943089 60.92479674796748,56.65650406504065 61.229674796747965,56.25 61.33130081300813,56.046747967479675 61.43292682926829,55.6910569105691 61.483739837398375,55.53861788617886 61.53455284552845,55.33536585365854 61.58536585365854,55.13211382113821 61.636178861788615,54.8780487804878 61.73780487804878,54.573170731707314 61.83943089430894,54.26829268292683 61.9410569105691,53.91260162601626 62.042682926829265,53.607723577235774 62.14430894308943,53.302845528455286 62.24593495934959,52.947154471544714 62.296747967479675,52.69308943089431 62.39837398373984,52.4390243902439 62.449186991869915,52.13414634146341 62.5,51.93089430894309 62.55081300813008,51.67682926829268 62.60162601626016,51.37195121951219 62.65243902439024,51.11788617886179 62.703252032520325,50.8130081300813 62.7540650406504,50.50813008130081 62.80487804878049,50.203252032520325 62.855691056910565,49.89837398373984 62.90650406504065,49.542682926829265 62.90650406504065,49.28861788617886 62.95731707317073,49.03455284552845 62.95731707317073,48.729674796747965 62.95731707317073,48.47560975609756 62.95731707317073,48.170731707317074 62.95731707317073,47.8150406504065 62.95731707317073,47.459349593495936" fill="none" stroke="black" stroke-width="0.6"></polyline><polyline points="62.95731707317073,47.459349593495936 62.95731707317073,47.103658536585364 62.95731707317073,46.7479674796748 62.90650406504065,46.44308943089431 62.855691056910565,46.1890243902439 62.80487804878049,45.88414634146341 62.703252032520325,45.63008130081301 62.65243902439024,45.3760162601626 62.55081300813008,45.12195121951219 62.39837398373984,44.86788617886179 62.296747967479675,44.66463414634146 62.14430894308943,44.41056910569105 61.99186991869919,44.20731707317073 61.83943089430894,44.0040650406504 61.636178861788615,43.75 61.483739837398375,43.49593495934959 61.33130081300813,43.292682926829265 61.17886178861789,43.03861788617886 61.02642276422764,42.83536585365854 60.8739837398374,42.63211382113821 60.670731707317074,42.42886178861789 60.51829268292683,42.22560975609756 60.3150406504065,42.02235772357724 60.16260162601626,41.81910569105691 59.90853658536585,41.61585365853659 59.70528455284553,41.41260162601626 59.451219512195124,41.209349593495936 59.2479674796748,41.00609756097561 59.04471544715447,40.802845528455286 58.84146341463415,40.65040650406504 58.63821138211382,40.4979674796748 58.43495934959349,40.29471544715447 58.28252032520325,40.142276422764226 58.130081300813,39.989837398373986 57.92682926829268,39.83739837398374 57.77439024390244,39.6849593495935 57.57113821138211,39.53252032520325 57.418699186991866,39.38008130081301 57.266260162601625,39.27845528455285 57.11382113821138,39.176829268292686 56.96138211382114,39.02439024390244 56.80894308943089,38.922764227642276 56.65650406504065,38.82113821138211 56.5040650406504,38.668699186991866 56.35162601626016,38.5670731707317 56.199186991869915,38.516260162601625 56.046747967479675,38.41463414634146 55.94512195121951,38.3130081300813 55.792682926829265,38.262195121951216 55.6910569105691,38.16056910569105 55.58943089430894,38.109756097560975" fill="none" stroke="black" stroke-width="0.6"></polyline><polyline points="55.58943089430894,38.109756097560975 55.48780487804878,38.05894308943089 55.33536585365854,37.95731707317073 55.233739837398375,37.90650406504065 55.13211382113821,37.80487804878049 54.979674796747965,37.703252032520325 54.8780487804878,37.65243902439024 54.77642276422764,37.55081300813008 54.6239837398374,37.449186991869915 54.47154471544715,37.34756097560975 54.36991869918699,37.24593495934959 54.21747967479675,37.14430894308943 54.11585365853659,37.09349593495935 54.0650406504065,37.042682926829265 53.91260162601626,36.9410569105691 53.709349593495936,36.83943089430894 53.55691056910569,36.73780487804878 53.50609756097561,36.6869918699187 53.40447154471545,36.636178861788615 53.2520325203252,36.53455284552845 53.09959349593496,36.483739837398375 52.947154471544714,36.38211382113821 52.74390243902439,36.28048780487805 52.59146341463415,36.229674796747965 52.4390243902439,36.17886178861789 52.235772357723576,36.077235772357724 52.03252032520325,36.02642276422764 51.829268292682926,35.97560975609756 51.575203252032516,35.92479674796748 51.37195121951219,35.8739837398374 51.11788617886179,35.8739837398374 50.86382113821138,35.823170731707314 50.609756097560975,35.77235772357724 50.355691056910565,35.77235772357724 50.10162601626016,35.77235772357724 49.84756097560975,35.72154471544715 49.542682926829265,35.72154471544715 49.23780487804878,35.72154471544715 48.983739837398375,35.72154471544715 48.67886178861789,35.72154471544715 48.3739837398374,35.77235772357724 48.06910569105691,35.77235772357724 47.764227642276424,35.77235772357724 47.510162601626014,35.77235772357724 47.30691056910569,35.77235772357724 47.052845528455286,35.77235772357724 46.798780487804876,35.823170731707314 46.54471544715447,35.823170731707314 46.290650406504064,35.8739837398374 46.03658536585366,35.8739837398374 45.78252032520325,35.92479674796748" fill="none" stroke="black" stroke-width="0.6"></polyline><polyline points="45.78252032520325,35.92479674796748 45.47764227642276,36.02642276422764 45.22357723577235,36.077235772357724 44.96951219512195,36.17886178861789 44.66463414634146,36.28048780487805 44.41056910569105,36.43292682926829 44.105691056910565,36.58536585365854 43.80081300813008,36.73780487804878 43.49593495934959,36.890243902439025 43.24186991869919,36.99186991869919 42.98780487804878,37.14430894308943 42.78455284552845,37.24593495934959 42.479674796747965,37.39837398373984 42.1239837398374,37.60162601626016 41.81910569105691,37.7540650406504 41.514227642276424,37.90650406504065 41.260162601626014,38.05894308943089 41.00609756097561,38.21138211382114 40.7520325203252,38.36382113821138 40.447154471544714,38.516260162601625 40.19308943089431,38.668699186991866 39.9390243902439,38.82113821138211 39.6849593495935,38.97357723577235 39.43089430894309,39.176829268292686 39.176829268292686,39.38008130081301 38.922764227642276,39.583333333333336 38.668699186991866,39.78658536585366 38.41463414634146,39.989837398373986 38.109756097560975,40.19308943089431 37.90650406504065,40.396341463414636 37.7540650406504,40.4979674796748 37.60162601626016,40.65040650406504 37.449186991869915,40.802845528455286 37.24593495934959,41.00609756097561 37.09349593495935,41.209349593495936 36.9410569105691,41.3109756097561 36.83943089430894,41.514227642276424 36.73780487804878,41.666666666666664 36.636178861788615,41.86991869918699 36.53455284552845,42.073170731707314 36.43292682926829,42.27642276422764 36.33130081300813,42.479674796747965 36.229674796747965,42.68292682926829 36.1280487804878,42.886178861788615 36.02642276422764,43.08943089430894 35.92479674796748,43.34349593495935 35.8739837398374,43.59756097560975 35.77235772357724,43.85162601626016 35.670731707317074,44.105691056910565 35.61991869918699,44.30894308943089 35.51829268292683,44.5630081300813" fill="none" stroke="black" stroke-width="0.6"></polyline><polyline points="35.51829268292683,44.5630081300813 35.416666666666664,44.8170731707317 35.36585365853659,45.02032520325203 35.264227642276424,45.27439024390244 35.16260162601626,45.52845528455285 35.0609756097561,45.833333333333336 34.959349593495936,46.13821138211382 34.90853658536585,46.392276422764226 34.80691056910569,46.646341463414636 34.70528455284553,46.90040650406504 34.603658536585364,47.15447154471545 34.552845528455286,47.357723577235774 34.451219512195124,47.61178861788618 34.40040650406504,47.71341463414634 34.34959349593496,47.86585365853659 34.298780487804876,48.11991869918699 34.197154471544714,48.323170731707314 34.146341463414636,48.577235772357724 34.09552845528455,48.78048780487805 33.99390243902439,49.03455284552845 33.94308943089431,49.23780487804878 33.892276422764226,49.4410569105691 33.84146341463415,49.69512195121951 33.790650406504064,49.949186991869915 33.790650406504064,50.203252032520325 33.739837398373986,50.45731707317073 33.739837398373986,50.71138211382114 33.6890243902439,51.016260162601625 33.6890243902439,51.27032520325203 33.6890243902439,51.575203252032516 33.63821138211382,51.829268292682926 33.58739837398374,52.13414634146341 33.58739837398374,52.489837398373986 33.53658536585366,52.79471544715447 33.485772357723576,53.09959349593496 33.485772357723576,53.40447154471545 33.4349593495935,53.709349593495936 33.4349593495935,54.014227642276424 33.4349593495935,54.420731707317074 33.38414634146341,54.77642276422764 33.38414634146341,55.13211382113821 33.38414634146341,55.48780487804878 33.38414634146341,55.792682926829265 33.38414634146341,56.09756097560975 33.4349593495935,56.453252032520325 33.4349593495935,56.75813008130081 33.485772357723576,57.11382113821138 33.53658536585366,57.418699186991866 33.63821138211382,57.77439024390244 33.6890243902439,58.079268292682926 33.790650406504064,58.38414634146341" fill="none" stroke="black" stroke-width="0.6"></polyline><polyline points="33.790650406504064,58.38414634146341 33.892276422764226,58.6890243902439 33.99390243902439,59.04471544715447 34.09552845528455,59.34959349593496 34.197154471544714,59.603658536585364 34.298780487804876,59.857723577235774 34.40040650406504,60.11178861788618 34.552845528455286,60.3150406504065 34.65447154471545,60.51829268292683 34.80691056910569,60.77235772357724 34.90853658536585,61.02642276422764 35.0609756097561,61.229674796747965 35.21341463414634,61.43292682926829 35.3150406504065,61.58536585365854 35.46747967479675,61.78861788617886 35.670731707317074,61.99186991869919 35.823170731707314,62.19512195121951 35.97560975609756,62.34756097560975 36.1280487804878,62.60162601626016 36.33130081300813,62.80487804878049 36.43292682926829,62.95731707317073 36.58536585365854,63.16056910569105 36.73780487804878,63.3130081300813 36.890243902439025,63.516260162601625 37.042682926829265,63.668699186991866 37.19512195121951,63.82113821138211 37.296747967479675,64.02439024390243 37.449186991869915,64.17682926829268 37.60162601626016,64.27845528455285 37.80487804878049,64.43089430894308 37.95731707317073,64.58333333333333 38.109756097560975,64.6849593495935 38.3130081300813,64.83739837398373 38.46544715447154,64.98983739837398 38.668699186991866,65.14227642276423 38.87195121951219,65.34552845528455 39.02439024390244,65.44715447154472 39.22764227642276,65.59959349593495 39.43089430894309,65.7520325203252 39.583333333333336,65.85365853658537 39.735772357723576,65.95528455284553 39.9390243902439,66.10772357723577 40.142276422764226,66.20934959349593 40.34552845528455,66.3109756097561 40.548780487804876,66.41260162601625 40.7520325203252,66.51422764227642 40.95528455284553,66.5650406504065 41.15853658536585,66.66666666666667 41.36178861788618,66.76829268292683 41.5650406504065,66.8191056910569 41.81910569105691,66.92073170731707" fill="none" stroke="black" stroke-width="0.6"></polyline><polyline points="41.81910569105691,66.92073170731707 42.02235772357724,66.97154471544715 42.27642276422764,67.02235772357723 42.53048780487805,67.1239837398374 42.78455284552845,67.17479674796748 42.98780487804878,67.22560975609755 43.292682926829265,67.27642276422765 43.546747967479675,67.27642276422765 43.80081300813008,67.32723577235772 44.105691056910565,67.3780487804878 44.359756097560975,67.42886178861788 44.66463414634146,67.42886178861788 44.96951219512195,67.47967479674797 45.27439024390244,67.47967479674797 45.63008130081301,67.47967479674797 45.9349593495935,67.53048780487805 46.290650406504064,67.53048780487805 46.59552845528455,67.53048780487805 46.951219512195124,67.53048780487805 47.30691056910569,67.53048780487805 47.61178861788618,67.53048780487805 48.01829268292683,67.53048780487805 48.3739837398374,67.47967479674797 48.729674796747965,67.47967479674797 49.08536585365854,67.42886178861788 49.390243902439025,67.42886178861788 49.69512195121951,67.42886178861788 50.05081300813008,67.42886178861788 50.30487804878049,67.42886178861788 50.609756097560975,67.42886178861788 50.91463414634146,67.42886178861788 51.168699186991866,67.47967479674797 51.422764227642276,67.47967479674797 51.72764227642276,67.47967479674797 51.981707317073166,67.47967479674797 52.235772357723576,67.47967479674797 52.540650406504064,67.53048780487805 52.74390243902439,67.53048780487805 53.048780487804876,67.53048780487805 53.302845528455286,67.53048780487805 53.55691056910569,67.58130081300813 53.8109756097561,67.58130081300813 54.0650406504065,67.58130081300813 54.31910569105691,67.58130081300813 54.52235772357724,67.53048780487805 54.77642276422764,67.53048780487805 55.03048780487805,67.47967479674797 55.28455284552845,67.42886178861788 55.48780487804878,67.32723577235772 55.74186991869919,67.27642276422765 55.99593495934959,67.22560975609755" fill="none" stroke="black" stroke-width="0.6"></polyline><polyline points="55.99593495934959,67.22560975609755 56.199186991869915,67.17479674796748 56.453252032520325,67.07317073170732 56.70731707317073,67.02235772357723 56.91056910569105,66.92073170731707 57.16463414634146,66.8191056910569 57.418699186991866,66.71747967479675 57.62195121951219,66.66666666666667 57.8760162601626,66.5650406504065 58.130081300813,66.46341463414635 58.38414634146341,66.36178861788618 58.63821138211382,66.26016260162602 58.892276422764226,66.15853658536585 59.09552845528455,66.0569105691057 59.34959349593496,66.0060975609756 59.603658536585364,65.85365853658537 59.857723577235774,65.7520325203252 60.0609756097561,65.65040650406505 60.3150406504065,65.54878048780488 60.56910569105691,65.39634146341463 60.823170731707314,65.2439024390244 61.1280487804878,65.09146341463415 61.38211382113821,64.9390243902439 61.636178861788615,64.78658536585365 61.890243902439025,64.6341463414634 62.09349593495935,64.53252032520325 62.24593495934959,64.43089430894308 62.39837398373984,64.32926829268293 62.5,64.22764227642276 62.65243902439024,64.1260162601626 62.80487804878049,64.02439024390243 62.90650406504065,63.922764227642276 63.05894308943089,63.82113821138211 63.16056910569105,63.71951219512195 63.21138211382114,63.61788617886179 63.3130081300813,63.5670731707317 63.36382113821138,63.46544715447154 63.46544715447154,63.36382113821138 63.61788617886179,63.262195121951216 63.71951219512195,63.16056910569105 63.82113821138211,63.00813008130081 63.97357723577235,62.855691056910565 64.1260162601626,62.703252032520325 64.32926829268293,62.55081300813008 64.48170731707317,62.34756097560975 64.6341463414634,62.19512195121951 64.78658536585365,61.99186991869919 64.98983739837398,61.83943089430894 65.14227642276423,61.58536585365854 65.34552845528455,61.38211382113821 65.4979674796748,61.17886178861789" fill="none" stroke="black" stroke-width="0.6"></polyline><polyline points="65.4979674796748,61.17886178861789 65.70121951219512,60.92479674796748 65.90447154471545,60.670731707317074 66.15853658536585,60.416666666666664 66.41260162601625,60.16260162601626 66.61585365853658,59.90853658536585 66.869918699187,59.65447154471545 67.07317073170732,59.34959349593496 67.32723577235772,59.09552845528455 67.53048780487805,58.84146341463415 67.73373983739837,58.536585365853654 67.9369918699187,58.231707317073166 68.14024390243902,57.97764227642276 68.29268292682927,57.672764227642276 68.4959349593496,57.418699186991866 68.64837398373983,57.16463414634146 68.80081300813008,56.859756097560975 68.90243902439025,56.605691056910565 69.0040650406504,56.30081300813008 69.15650406504065,55.99593495934959 69.3089430894309,55.6910569105691 69.46138211382113,55.386178861788615 69.5630081300813,55.13211382113821 69.66463414634146,54.8780487804878 69.76626016260163,54.573170731707314 69.86788617886178,54.26829268292683 69.91869918699187,54.014227642276424 70.02032520325203,53.709349593495936 70.02032520325203,53.45528455284553 70.0711382113821,53.201219512195124 70.1219512195122,52.947154471544714 70.17276422764228,52.69308943089431 70.17276422764228,52.4390243902439 70.22357723577235,52.13414634146341 70.22357723577235,51.880081300813 70.27439024390243,51.67682926829268 70.27439024390243,51.422764227642276 70.27439024390243,51.21951219512195 70.27439024390243,51.016260162601625 70.27439024390243,50.762195121951216 70.27439024390243,50.609756097560975 70.22357723577235,50.355691056910565 70.17276422764228,50.10162601626016 70.1219512195122,49.89837398373984 70.1219512195122,49.64430894308943 70.0711382113821,49.33943089430894 70.02032520325203,49.08536585365854 70.02032520325203,48.88211382113821 69.96951219512195,48.577235772357724 69.96951219512195,48.323170731707314 69.91869918699187,48.06910569105691" fill="none" stroke="black" stroke-width="0.6"></polyline><polyline points="69.91869918699187,48.06910569105691 69.91869918699187,47.764227642276424 69.86788617886178,47.459349593495936 69.8170731707317,47.15447154471545 69.8170731707317,46.84959349593496 69.8170731707317,46.54471544715447 69.76626016260163,46.290650406504064 69.71544715447155,45.985772357723576 69.71544715447155,45.68089430894309 69.66463414634146,45.52845528455285 69.66463414634146,45.3760162601626 69.61382113821138,45.07113821138211 69.61382113821138,44.918699186991866 69.5630081300813,44.8170731707317 69.51219512195122,44.512195121951216 69.46138211382113,44.25813008130081 69.41056910569105,44.0040650406504 69.35975609756098,43.699186991869915 69.3089430894309,43.39430894308943 69.20731707317073,43.140243902439025 69.15650406504065,42.886178861788615 69.05487804878048,42.58130081300813 68.95325203252033,42.327235772357724 68.85162601626016,42.1239837398374 68.75,41.86991869918699 68.64837398373983,41.61585365853659 68.54674796747967,41.36178861788618 68.39430894308943,41.05691056910569 68.29268292682927,40.853658536585364 68.1910569105691,40.59959349593496 68.08943089430895,40.34552845528455 67.98780487804878,40.142276422764226 67.9369918699187,39.9390243902439 67.83536585365853,39.6849593495935 67.73373983739837,39.48170731707317 67.6321138211382,39.22764227642276 67.53048780487805,39.02439024390244 67.42886178861788,38.82113821138211 67.32723577235772,38.5670731707317 67.22560975609755,38.41463414634146 67.07317073170732,38.21138211382114 66.92073170731707,38.05894308943089 66.8191056910569,37.90650406504065 66.66666666666667,37.7540650406504 66.51422764227642,37.55081300813008 66.41260162601625,37.39837398373984 66.20934959349593,37.24593495934959 66.0569105691057,37.09349593495935 65.90447154471545,36.890243902439025 65.7520325203252,36.73780487804878 65.59959349593495,36.53455284552845" fill="none" stroke="black" stroke-width="0.6"></polyline><polyline points="65.59959349593495,36.53455284552845 65.44715447154472,36.38211382113821 65.29471544715447,36.17886178861789 65.14227642276423,36.02642276422764 64.98983739837398,35.8739837398374 64.78658536585365,35.72154471544715 64.6341463414634,35.51829268292683 64.48170731707317,35.36585365853659 64.27845528455285,35.21341463414634 64.1260162601626,35.010162601626014 63.922764227642276,34.857723577235774 63.71951219512195,34.65447154471545 63.5670731707317,34.5020325203252 63.36382113821138,34.298780487804876 63.21138211382114,34.197154471544714 63.00813008130081,33.99390243902439 62.80487804878049,33.892276422764226 62.60162601626016,33.739837398373986 62.39837398373984,33.63821138211382 62.14430894308943,33.485772357723576 61.9410569105691,33.333333333333336 61.636178861788615,33.18089430894309 61.43292682926829,33.079268292682926 61.17886178861789,32.926829268292686 60.92479674796748,32.77439024390244 60.72154471544715,32.6219512195122 60.46747967479675,32.418699186991866 60.21341463414634,32.266260162601625 60.010162601626014,32.11382113821138 59.75609756097561,31.961382113821138 59.552845528455286,31.808943089430894 59.34959349593496,31.70731707317073 59.09552845528455,31.554878048780488 58.892276422764226,31.402439024390244 58.739837398373986,31.30081300813008 58.536585365853654,31.19918699186992 58.33333333333333,31.046747967479675 58.130081300813,30.945121951219512 57.92682926829268,30.84349593495935 57.72357723577235,30.741869918699187 57.52032520325203,30.640243902439025 57.3170731707317,30.538617886178862 57.11382113821138,30.4369918699187 56.91056910569105,30.335365853658537 56.70731707317073,30.233739837398375 56.5040650406504,30.132113821138212 56.30081300813008,30.08130081300813 56.09756097560975,29.979674796747968 55.84349593495935,29.928861788617887 55.640243902439025,29.827235772357724 55.4369918699187,29.776422764227643" fill="none" stroke="black" stroke-width="0.6"></polyline><polyline points="55.4369918699187,29.776422764227643 55.18292682926829,29.725609756097562 54.979674796747965,29.67479674796748 54.77642276422764,29.573170731707318 54.52235772357724,29.522357723577237 54.31910569105691,29.471544715447155 54.0650406504065,29.369918699186993 53.760162601626014,29.31910569105691 53.55691056910569,29.217479674796746 53.302845528455286,29.166666666666664 53.048780487804876,29.0650406504065 52.79471544715447,29.01422764227642 52.540650406504064,28.912601626016258 52.28658536585366,28.861788617886177 51.981707317073166,28.810975609756095 51.67682926829268,28.709349593495933 51.37195121951219,28.709349593495933 51.0670731707317,28.65853658536585 50.71138211382114,28.60772357723577 50.355691056910565,28.60772357723577 50,28.60772357723577 49.542682926829265,28.60772357723577 49.1869918699187,28.60772357723577 48.83130081300813,28.65853658536585 48.3739837398374,28.709349593495933 47.96747967479675,28.760162601626014 47.510162601626014,28.861788617886177 47.052845528455286,28.96341463414634 46.59552845528455,29.0650406504065 46.1890243902439,29.166666666666664 45.833333333333336,29.268292682926827 45.47764227642276,29.31910569105691 45.172764227642276,29.369918699186993 44.86788617886179,29.420731707317074 44.61382113821138,29.471544715447155 44.359756097560975,29.522357723577237 44.0040650406504,29.6239837398374 43.75,29.67479674796748 43.49593495934959,29.776422764227643 43.1910569105691,29.827235772357724 42.9369918699187,29.928861788617887 42.63211382113821,30.08130081300813 42.22560975609756,30.233739837398375 41.97154471544715,30.335365853658537 41.71747967479675,30.4369918699187 41.514227642276424,30.538617886178862 41.3109756097561,30.640243902439025 41.05691056910569,30.79268292682927 40.7520325203252,30.945121951219512 40.4979674796748,31.046747967479675 40.29471544715447,31.19918699186992" fill="none" stroke="black" stroke-width="0.6"></polyline><polyline points="40.29471544715447,31.19918699186992 40.040650406504064,31.30081300813008 39.78658536585366,31.453252032520325 39.48170731707317,31.65650406504065 39.27845528455285,31.758130081300813 39.07520325203252,31.859756097560975 38.87195121951219,32.012195121951216 38.61788617886179,32.16463414634146 38.36382113821138,32.3170731707317 38.16056910569105,32.418699186991866 37.95731707317073,32.57113821138211 37.7540650406504,32.672764227642276 37.55081300813008,32.82520325203252 37.34756097560975,32.97764227642276 37.14430894308943,33.079268292682926 36.99186991869919,33.18089430894309 36.78861788617886,33.333333333333336 36.58536585365854,33.485772357723576 36.43292682926829,33.58739837398374 36.229674796747965,33.739837398373986 36.077235772357724,33.892276422764226 35.8739837398374,34.04471544715447 35.670731707317074,34.2479674796748 35.46747967479675,34.451219512195124 35.264227642276424,34.70528455284553 35.010162601626014,34.959349593495936 34.75609756097561,35.264227642276424 34.451219512195124,35.56910569105691 34.2479674796748,35.77235772357724 33.99390243902439,36.02642276422764 33.6890243902439,36.33130081300813 33.4349593495935,36.58536585365854 33.13008130081301,36.9410569105691 32.82520325203252,37.296747967479675 32.6219512195122,37.55081300813008 32.36788617886179,37.90650406504065 32.0630081300813,38.21138211382114 31.859756097560975,38.516260162601625 31.554878048780488,38.87195121951219 31.25,39.27845528455285 30.995934959349594,39.583333333333336 30.79268292682927,39.88821138211382 30.589430894308943,40.19308943089431 30.38617886178862,40.4979674796748 30.08130081300813,40.90447154471545 29.776422764227643,41.3109756097561 29.573170731707318,41.61585365853659 29.420731707317074,41.86991869918699 29.217479674796746,42.1239837398374 29.01422764227642,42.3780487804878 28.861788617886177,42.63211382113821" fill="none" stroke="black" stroke-width="0.6"></polyline><polyline points="28.861788617886177,42.63211382113821 28.709349593495933,42.886178861788615 28.55691056910569,43.08943089430894 28.353658536585364,43.39430894308943 28.15040650406504,43.699186991869915 28.048780487804876,43.90243902439024 27.947154471544714,44.05487804878049 27.84552845528455,44.25813008130081 27.74390243902439,44.46138211382114 27.642276422764226,44.66463414634146 27.540650406504064,44.918699186991866 27.489837398373982,45.07113821138211 27.4390243902439,45.22357723577235 27.38821138211382,45.42682926829268 27.33739837398374,45.63008130081301 27.286585365853657,45.88414634146341 27.235772357723576,46.13821138211382 27.184959349593495,46.44308943089431 27.134146341463413,46.697154471544714 27.083333333333332,47.0020325203252 27.03252032520325,47.20528455284553 26.98170731707317,47.459349593495936 26.98170731707317,47.764227642276424 26.93089430894309,48.06910569105691 26.93089430894309,48.3739837398374 26.880081300813007,48.67886178861789 26.829268292682926,48.983739837398375 26.829268292682926,49.28861788617886 26.778455284552845,49.64430894308943 26.778455284552845,49.949186991869915 26.727642276422763,50.355691056910565 26.727642276422763,50.71138211382114 26.727642276422763,51.0670731707317 26.727642276422763,51.422764227642276 26.727642276422763,51.72764227642276 26.727642276422763,52.03252032520325 26.727642276422763,52.38821138211382 26.778455284552845,52.79471544715447 26.829268292682926,53.15040650406504 26.880081300813007,53.55691056910569 26.880081300813007,53.96341463414634 26.93089430894309,54.31910569105691 26.98170731707317,54.72560975609756 27.083333333333332,55.18292682926829 27.134146341463413,55.58943089430894 27.184959349593495,56.09756097560975 27.235772357723576,56.453252032520325 27.286585365853657,56.859756097560975 27.38821138211382,57.21544715447154 27.489837398373982,57.52032520325203 27.540650406504064,57.77439024390244" fill="none" stroke="black" stroke-width="0.6"></polyline><polyline points="27.540650406504064,57.77439024390244 27.642276422764226,58.02845528455284 27.693089430894307,58.33333333333333 27.79471544715447,58.63821138211382 27.84552845528455,58.99390243902439 27.947154471544714,59.34959349593496 28.048780487804876,59.65447154471545 28.15040650406504,59.959349593495936 28.2520325203252,60.21341463414634 28.353658536585364,60.51829268292683 28.506097560975608,60.77235772357724 28.60772357723577,61.02642276422764 28.760162601626014,61.33130081300813 28.912601626016258,61.58536585365854 29.01422764227642,61.83943089430894 29.166666666666664,62.09349593495935 29.31910569105691,62.34756097560975 29.471544715447155,62.55081300813008 29.6239837398374,62.80487804878049 29.776422764227643,63.00813008130081 29.979674796747968,63.21138211382114 30.132113821138212,63.41463414634146 30.335365853658537,63.668699186991866 30.48780487804878,63.87195121951219 30.691056910569106,64.07520325203252 30.84349593495935,64.27845528455285 31.046747967479675,64.43089430894308 31.25,64.6341463414634 31.453252032520325,64.88821138211382 31.65650406504065,65.09146341463415 31.859756097560975,65.29471544715447 32.0630081300813,65.54878048780488 32.266260162601625,65.7520325203252 32.46951219512195,65.95528455284553 32.72357723577236,66.15853658536585 32.926829268292686,66.36178861788618 33.13008130081301,66.5650406504065 33.333333333333336,66.76829268292683 33.53658536585366,66.97154471544715 33.790650406504064,67.1239837398374 33.99390243902439,67.32723577235772 34.197154471544714,67.53048780487805 34.40040650406504,67.6829268292683 34.603658536585364,67.88617886178862 34.80691056910569,68.03861788617886 35.0609756097561,68.1910569105691 35.264227642276424,68.34349593495935 35.46747967479675,68.4959349593496 35.670731707317074,68.64837398373983 35.92479674796748,68.85162601626016 36.1280487804878,69.0040650406504" fill="none" stroke="black" stroke-width="0.6"></polyline><polyline points="36.1280487804878,69.0040650406504 36.38211382113821,69.20731707317073 36.636178861788615,69.41056910569105 36.83943089430894,69.5630081300813 37.042682926829265,69.76626016260163 37.24593495934959,69.91869918699187 37.449186991869915,70.0711382113821 37.65243902439024,70.22357723577235 37.855691056910565,70.3760162601626 38.00813008130081,70.52845528455285 38.21138211382114,70.630081300813 38.36382113821138,70.78252032520325 38.516260162601625,70.9349593495935 38.71951219512195,71.03658536585365 38.87195121951219,71.13821138211382 39.02439024390244,71.23983739837398 39.176829268292686,71.34146341463415 39.329268292682926,71.39227642276423 39.43089430894309,71.49390243902438 39.583333333333336,71.59552845528455 39.6849593495935,71.64634146341463 39.83739837398374,71.7479674796748 39.9390243902439,71.79878048780488 40.09146341463415,71.90040650406505 40.19308943089431,71.95121951219512 40.34552845528455,72.05284552845528 40.447154471544714,72.10365853658537 40.59959349593496,72.15447154471545 40.7520325203252,72.20528455284553 40.853658536585364,72.3069105691057 40.95528455284553,72.35772357723577 41.107723577235774,72.40853658536585 41.260162601626014,72.51016260162602 41.41260162601626,72.5609756097561 41.5650406504065,72.66260162601625 41.71747967479675,72.71341463414635 41.920731707317074,72.8150406504065 42.1239837398374,72.91666666666667 42.27642276422764,72.96747967479675 42.479674796747965,73.0691056910569 42.68292682926829,73.17073170731707 42.886178861788615,73.22154471544715 43.03861788617886,73.32317073170732 43.292682926829265,73.42479674796748 43.49593495934959,73.47560975609755 43.75,73.57723577235772 44.0040650406504,73.6280487804878 44.20731707317073,73.72967479674797 44.41056910569105,73.78048780487805 44.66463414634146,73.83130081300813 44.918699186991866,73.8821138211382" fill="none" stroke="black" stroke-width="0.6"></polyline><polyline points="44.918699186991866,73.8821138211382 45.12195121951219,73.9329268292683 45.3760162601626,73.98373983739837 45.63008130081301,74.03455284552845 45.88414634146341,74.03455284552845 46.1890243902439,74.08536585365853 46.44308943089431,74.08536585365853 46.7479674796748,74.13617886178862 47.052845528455286,74.13617886178862 47.357723577235774,74.13617886178862 47.66260162601626,74.1869918699187 47.96747967479675,74.1869918699187 48.22154471544715,74.1869918699187 48.52642276422764,74.1869918699187 48.78048780487805,74.1869918699187 49.03455284552845,74.1869918699187 49.33943089430894,74.1869918699187 49.59349593495935,74.1869918699187 49.84756097560975,74.1869918699187 50.15243902439024,74.1869918699187 50.40650406504065,74.23780487804878 50.71138211382114,74.23780487804878 51.016260162601625,74.23780487804878 51.32113821138211,74.23780487804878 51.6260162601626,74.28861788617886 51.93089430894309,74.28861788617886 52.235772357723576,74.28861788617886 52.540650406504064,74.28861788617886 52.84552845528455,74.28861788617886 53.201219512195124,74.28861788617886 53.45528455284553,74.23780487804878 53.760162601626014,74.23780487804878 54.0650406504065,74.23780487804878 54.31910569105691,74.1869918699187 54.6239837398374,74.1869918699187 54.8780487804878,74.13617886178862 55.13211382113821,74.13617886178862 55.4369918699187,74.08536585365853 55.6910569105691,74.03455284552845 55.99593495934959,74.03455284552845 56.30081300813008,73.98373983739837 56.605691056910565,73.9329268292683 56.859756097560975,73.9329268292683 57.21544715447154,73.8821138211382 57.46951219512195,73.83130081300813 57.825203252032516,73.78048780487805 58.18089430894309,73.72967479674797 58.485772357723576,73.67886178861788 58.790650406504064,73.57723577235772 59.146341463414636,73.52642276422765 59.40040650406504,73.42479674796748" fill="none" stroke="black" stroke-width="0.6"></polyline><polyline points="59.40040650406504,73.42479674796748 59.70528455284553,73.32317073170732 60.0609756097561,73.22154471544715 60.36585365853659,73.17073170731707 60.670731707317074,73.0691056910569 60.97560975609756,72.96747967479675 61.229674796747965,72.86585365853658 61.483739837398375,72.76422764227642 61.83943089430894,72.61178861788618 62.09349593495935,72.51016260162602 62.34756097560975,72.40853658536585 62.60162601626016,72.3069105691057 62.855691056910565,72.20528455284553 63.109756097560975,72.05284552845528 63.36382113821138,71.95121951219512 63.61788617886179,71.79878048780488 63.87195121951219,71.64634146341463 64.17682926829268,71.49390243902438 64.43089430894308,71.34146341463415 64.73577235772358,71.1890243902439 65.09146341463415,70.98577235772358 65.39634146341463,70.78252032520325 65.65040650406505,70.630081300813 65.95528455284553,70.47764227642276 66.20934959349593,70.27439024390243 66.51422764227642,70.0711382113821 66.8191056910569,69.8170731707317 67.07317073170732,69.61382113821138 67.27642276422765,69.46138211382113 67.53048780487805,69.2581300813008 67.73373983739837,69.05487804878048 67.9369918699187,68.85162601626016 68.1910569105691,68.59756097560975 68.4451219512195,68.34349593495935 68.69918699186992,68.08943089430895 68.95325203252033,67.83536585365853 69.20731707317073,67.53048780487805 69.46138211382113,67.17479674796748 69.71544715447155,66.8191056910569 69.96951219512195,66.46341463414635 70.22357723577235,66.15853658536585 70.47764227642276,65.80284552845528 70.68089430894308,65.44715447154472 70.9349593495935,65.04065040650406 71.1890243902439,64.58333333333333 71.4430894308943,64.17682926829268 71.69715447154472,63.71951219512195 72.0020325203252,63.262195121951216 72.2560975609756,62.7540650406504 72.51016260162602,62.296747967479675 72.76422764227642,61.78861788617886" fill="none" stroke="black" stroke-width="0.6"></polyline><polyline points="72.76422764227642,61.78861788617886 73.01829268292683,61.43292682926829 73.22154471544715,61.02642276422764 73.32317073170732,60.670731707317074 73.47560975609755,60.264227642276424 73.67886178861788,59.75609756097561 73.8821138211382,59.298780487804876 74.08536585365853,58.790650406504064 74.28861788617886,58.28252032520325 74.49186991869918,57.825203252032516 74.6951219512195,57.36788617886179 74.89837398373983,56.91056910569105 75.10162601626016,56.5040650406504 75.30487804878048,56.046747967479675 75.5081300813008,55.58943089430894 75.66056910569105,55.233739837398375 75.8130081300813,54.77642276422764 76.01626016260163,54.26829268292683 76.16869918699187,53.86178861788618 76.27032520325203,53.50609756097561 76.42276422764228,53.048780487804876 76.52439024390243,52.69308943089431 76.6260162601626,52.33739837398374 76.67682926829268,51.93089430894309 76.72764227642276,51.6260162601626 76.77845528455285,51.32113821138211 76.77845528455285,51.016260162601625 76.77845528455285,50.8130081300813 76.77845528455285,50.609756097560975 76.72764227642276,50.45731707317073 76.72764227642276,50.30487804878049 76.67682926829268,50.2540650406504 76.6260162601626,50.15243902439024 76.6260162601626,50.15243902439024 76.6260162601626,50.15243902439024 76.6260162601626,50.15243902439024 76.6260162601626,50.15243902439024 76.67682926829268,50.2540650406504 76.72764227642276,50.355691056910565" fill="none" stroke="black" stroke-width="0.6"></polyline></svg>