<svg height="100" width="100" preserveAspectRatio="xMidYMid meet"><polyline points="18.140243902439025,7.164634146341463 17.98780487804878,7.0630081300813 17.479674796747968,6.7073170731707314 17.378048780487806,6.605691056910569 16.869918699186993,6.453252032520325 16.71747967479675,6.402439024390244 16.36178861788618,6.402439024390244 16.05691056910569,6.402439024390244 15.701219512195122,6.554878048780488 15.345528455284553,6.808943089430894 14.989837398373984,7.215447154471544 14.634146341463413,7.723577235772358 14.278455284552845,8.434959349593496 14.024390243902438,9.095528455284553 13.871951219512194,9.908536585365853 13.821138211382113,10.365853658536585 13.821138211382113,11.483739837398375 13.922764227642276,12.09349593495935 14.1260162601626,12.601626016260163 14.380081300813007,13.008130081300813 14.684959349593496,13.3130081300813 14.989837398373984,13.516260162601625 15.294715447154472,13.617886178861788 15.59959349593496,13.617886178861788 15.853658536585366,13.617886178861788 16.10772357723577,13.516260162601625 16.41260162601626,13.3130081300813 16.666666666666668,13.109756097560975 16.869918699186993,12.754065040650406 17.073170731707318,12.296747967479675 17.276422764227643,11.788617886178862 17.428861788617887,11.331300813008129 17.58130081300813,10.772357723577235 17.682926829268293,10.264227642276422 17.733739837398375,9.705284552845528 17.733739837398375,9.197154471544716 17.733739837398375,8.841463414634147 17.733739837398375,8.638211382113822 17.733739837398375,8.485772357723578 17.733739837398375,8.434959349593496 17.733739837398375,8.434959349593496 17.733739837398375,8.434959349593496 17.733739837398375,8.434959349593496 17.733739837398375,8.485772357723578 17.733739837398375,8.536585365853659 17.733739837398375,8.638211382113822 17.784552845528456,8.790650406504065 17.835365853658537,8.94308943089431 17.88617886178862,9.095528455284553 17.9369918699187,9.247967479674797 17.9369918699187,9.40040650406504" fill="none" stroke="black" stroke-width="0.6"></polyline><polyline points="17.9369918699187,9.40040650406504 17.98780487804878,9.552845528455284 18.038617886178862,9.705284552845528 18.089430894308943,9.959349593495935 18.140243902439025,10.213414634146341 18.241869918699187,10.56910569105691 18.39430894308943,11.026422764227641 18.546747967479675,11.585365853658537 18.69918699186992,12.245934959349594 18.851626016260163,12.90650406504065 19.004065040650406,13.414634146341463 19.15650406504065,13.871951219512194 19.308943089430894,14.227642276422763 19.410569105691057,14.430894308943088 19.51219512195122,14.583333333333332 19.61382113821138,14.684959349593496 19.817073170731707,14.684959349593496" fill="none" stroke="black" stroke-width="0.6"></polyline><polyline points="30.945121951219512,3.3028455284552845 30.89430894308943,3.201219512195122 30.89430894308943,3.1504065040650406 30.89430894308943,3.1504065040650406 30.89430894308943,3.201219512195122 30.945121951219512,3.4552845528455283 31.046747967479675,3.8109756097560976 31.148373983739837,4.369918699186992 31.25,5.030487804878049 31.402439024390244,5.995934959349594 31.554878048780488,7.164634146341463 31.65650406504065,8.282520325203253 31.70731707317073,9.247967479674797 31.808943089430894,10.111788617886178 31.859756097560975,10.823170731707316 31.910569105691057,11.534552845528456 31.961382113821138,12.195121951219512 32.012195121951216,12.754065040650406 32.0630081300813,13.262195121951219 32.0630081300813,13.66869918699187 32.0630081300813,13.922764227642276 32.11382113821138,14.1260162601626 32.11382113821138,14.278455284552845 32.11382113821138,14.329268292682926 32.11382113821138,14.329268292682926 32.11382113821138,14.278455284552845 32.0630081300813,14.07520325203252 32.012195121951216,13.770325203252032 32.012195121951216,13.414634146341463 32.012195121951216,12.957317073170731 32.012195121951216,12.5 32.0630081300813,11.991869918699187 32.16463414634146,11.483739837398375 32.266260162601625,11.026422764227641 32.46951219512195,10.518292682926829 32.77439024390244,10.111788617886178 33.18089430894309,9.705284552845528 33.63821138211382,9.40040650406504 34.09552845528455,9.247967479674797 34.603658536585364,9.247967479674797 35.11178861788618,9.247967479674797 35.670731707317074,9.40040650406504 36.229674796747965,9.654471544715447 36.73780487804878,10.010162601626016 37.14430894308943,10.416666666666666 37.449186991869915,10.873983739837398 37.703252032520325,11.382113821138212 37.80487804878049,11.890243902439025 37.80487804878049,12.5 37.7540650406504,12.957317073170731 37.55081300813008,13.414634146341463" fill="none" stroke="black" stroke-width="0.6"></polyline><polyline points="37.55081300813008,13.414634146341463 37.19512195121951,13.871951219512194 36.78861788617886,14.176829268292682 36.33130081300813,14.48170731707317 35.72154471544715,14.735772357723578 35.21341463414634,14.83739837398374 34.65447154471545,14.888211382113822 34.09552845528455,14.83739837398374 33.6890243902439,14.735772357723578 33.28252032520325,14.53252032520325 32.97764227642276,14.329268292682926 32.77439024390244,14.1260162601626 32.672764227642276,13.922764227642276 32.6219512195122,13.66869918699187 32.6219512195122,13.516260162601625 32.72357723577236,13.414634146341463 32.926829268292686,13.3130081300813 33.18089430894309,13.3130081300813 33.58739837398374,13.3130081300813" fill="none" stroke="black" stroke-width="0.6"></polyline><polyline points="51.93089430894309,8.99390243902439 51.880081300813,8.94308943089431 51.880081300813,8.94308943089431 51.77845528455284,8.892276422764228 51.77845528455284,8.841463414634147 51.72764227642276,8.841463414634147 51.72764227642276,8.892276422764228 51.72764227642276,8.99390243902439 51.72764227642276,9.095528455284553 51.67682926829268,9.146341463414634 51.67682926829268,9.247967479674797 51.67682926829268,9.298780487804878 51.67682926829268,9.34959349593496 51.67682926829268,9.34959349593496 51.6260162601626,9.40040650406504 51.575203252032516,9.34959349593496 51.422764227642276,9.247967479674797 51.27032520325203,9.095528455284553 51.016260162601625,8.892276422764228 50.71138211382114,8.638211382113822 50.355691056910565,8.434959349593496 50,8.282520325203253 49.59349593495935,8.18089430894309 49.23780487804878,8.18089430894309 48.88211382113821,8.333333333333334 48.52642276422764,8.638211382113822 48.27235772357724,8.99390243902439 48.06910569105691,9.502032520325203 47.86585365853659,10.16260162601626 47.8150406504065,10.823170731707316 47.764227642276424,11.534552845528456 47.86585365853659,12.347560975609756 48.06910569105691,12.957317073170731 48.42479674796748,13.465447154471544 48.78048780487805,13.871951219512194 49.1869918699187,14.1260162601626 49.59349593495935,14.227642276422763 50.10162601626016,14.329268292682926 50.55894308943089,14.329268292682926 51.016260162601625,14.278455284552845 51.575203252032516,14.07520325203252 51.93089430894309,13.922764227642276 52.235772357723576,13.71951219512195 52.4390243902439,13.516260162601625 52.540650406504064,13.414634146341463" fill="none" stroke="black" stroke-width="0.6"></polyline><polyline points="66.41260162601625,2.9471544715447155 66.41260162601625,2.74390243902439 66.36178861788618,2.388211382113821 66.36178861788618,2.1341463414634148 66.36178861788618,2.0325203252032518 66.36178861788618,1.9817073170731707 66.36178861788618,1.9817073170731707 66.36178861788618,2.0833333333333335 66.36178861788618,2.2865853658536586 66.36178861788618,2.6930894308943087 66.36178861788618,3.252032520325203 66.36178861788618,4.115853658536586 66.36178861788618,4.928861788617886 66.36178861788618,5.995934959349594 66.41260162601625,7.317073170731707 66.51422764227642,8.536585365853659 66.66666666666667,9.654471544715447 66.76829268292683,10.721544715447154 66.869918699187,11.382113821138212 66.92073170731707,11.941056910569106 66.92073170731707,12.449186991869919 66.92073170731707,12.855691056910569 66.92073170731707,13.160569105691057 66.869918699187,13.414634146341463 66.8191056910569,13.516260162601625 66.76829268292683,13.567073170731707 66.66666666666667,13.567073170731707 66.61585365853658,13.567073170731707 66.5650406504065,13.465447154471544 66.51422764227642,13.262195121951219 66.41260162601625,13.058943089430894 66.36178861788618,12.754065040650406 66.26016260162602,12.347560975609756 66.20934959349593,11.991869918699187 66.15853658536585,11.585365853658537 66.0569105691057,11.178861788617885 66.0060975609756,10.772357723577235 65.90447154471545,10.315040650406504 65.80284552845528,9.857723577235772 65.65040650406505,9.451219512195122 65.44715447154472,9.146341463414634 65.1930894308943,8.892276422764228 64.9390243902439,8.790650406504065 64.6849593495935,8.790650406504065 64.32926829268293,8.790650406504065 64.02439024390243,8.94308943089431 63.668699186991866,9.247967479674797 63.3130081300813,9.654471544715447 63.05894308943089,10.16260162601626 62.855691056910565,10.772357723577235 62.65243902439024,11.432926829268293" fill="none" stroke="black" stroke-width="0.6"></polyline><polyline points="62.65243902439024,11.432926829268293 62.60162601626016,12.144308943089431 62.60162601626016,12.804878048780488 62.703252032520325,13.363821138211382 62.95731707317073,13.770325203252032 63.262195121951216,14.024390243902438 63.61788617886179,14.227642276422763 64.07520325203252,14.278455284552845 64.58333333333333,14.329268292682926 65.1930894308943,14.329268292682926 65.85365853658537,14.1260162601626 66.5650406504065,13.821138211382113 67.22560975609755,13.465447154471544 67.6321138211382,13.211382113821138 67.9369918699187,12.90650406504065 68.24186991869918,12.550813008130081" fill="none" stroke="black" stroke-width="0.6"></polyline><polyline points="80.1829268292683,11.534552845528456 80.08130081300813,11.483739837398375 79.92886178861788,11.331300813008129 79.77642276422765,11.178861788617885 79.6239837398374,11.077235772357723 79.47154471544715,11.026422764227641 79.369918699187,10.97560975609756 79.21747967479675,10.97560975609756 79.11585365853658,10.97560975609756 79.11585365853658,11.026422764227641 79.0650406504065,11.077235772357723 79.0650406504065,11.229674796747966 79.16666666666667,11.331300813008129 79.369918699187,11.483739837398375 79.67479674796748,11.585365853658537 80.03048780487805,11.636178861788618 80.48780487804878,11.6869918699187 80.9451219512195,11.6869918699187 81.5040650406504,11.6869918699187 82.11382113821138,11.534552845528456 82.67276422764228,11.382113821138212 83.130081300813,11.229674796747966 83.48577235772358,11.077235772357723 83.79065040650406,10.924796747967479 84.04471544715447,10.772357723577235 84.1971544715447,10.619918699186991 84.29878048780488,10.416666666666666 84.34959349593495,10.16260162601626 84.34959349593495,9.959349593495935 84.2479674796748,9.705284552845528 83.99390243902438,9.451219512195122 83.6890243902439,9.247967479674797 83.23170731707317,9.044715447154472 82.72357723577235,8.94308943089431 82.16463414634146,8.841463414634147 81.60569105691057,8.739837398373984 81.14837398373983,8.739837398373984 80.74186991869918,8.892276422764228 80.33536585365853,9.095528455284553 79.97967479674797,9.34959349593496 79.6239837398374,9.654471544715447 79.3191056910569,10.060975609756097 79.01422764227642,10.56910569105691 78.76016260162602,11.128048780487804 78.65853658536585,11.737804878048781 78.60772357723577,12.449186991869919 78.65853658536585,13.160569105691057 78.86178861788618,13.71951219512195 79.16666666666667,14.176829268292682 79.6239837398374,14.583333333333332 80.08130081300813,14.786585365853659" fill="none" stroke="black" stroke-width="0.6"></polyline><polyline points="80.08130081300813,14.786585365853659 80.64024390243902,14.888211382113822 81.35162601626016,14.888211382113822 82.11382113821138,14.83739837398374 83.02845528455285,14.583333333333332 84.04471544715447,14.329268292682926 84.70528455284553,14.1260162601626 85.21341463414635,13.922764227642276 85.619918699187,13.66869918699187 85.92479674796748,13.516260162601625 86.07723577235772,13.363821138211382 86.1280487804878,13.3130081300813" fill="none" stroke="black" stroke-width="0.6"></polyline><polyline points="21.443089430894307,24.034552845528456 21.443089430894307,23.882113821138212 21.443089430894307,23.526422764227643 21.443089430894307,23.272357723577237 21.443089430894307,22.96747967479675 21.392276422764226,22.662601626016258 21.341463414634145,22.35772357723577 21.239837398373982,22.052845528455283 21.036585365853657,21.798780487804876 20.833333333333332,21.54471544715447 20.528455284552845,21.290650406504064 20.121951219512194,20.985772357723576 19.715447154471544,20.78252032520325 19.308943089430894,20.630081300813007 18.902439024390244,20.579268292682926 18.597560975609756,20.579268292682926 18.39430894308943,20.630081300813007 18.191056910569106,20.78252032520325 18.038617886178862,21.036585365853657 17.88617886178862,21.392276422764226 17.733739837398375,21.90040650406504 17.632113821138212,22.40853658536585 17.53048780487805,23.170731707317074 17.53048780487805,24.085365853658537 17.53048780487805,25.152439024390244 17.682926829268293,26.321138211382113 17.88617886178862,27.489837398373982 18.089430894308943,28.404471544715445 18.29268292682927,29.166666666666664 18.445121951219512,29.827235772357724 18.546747967479675,30.284552845528456 18.648373983739837,30.640243902439025 18.69918699186992,30.945121951219512 18.75,31.148373983739837 18.80081300813008,31.30081300813008 18.80081300813008,31.453252032520325 18.80081300813008,31.504065040650406" fill="none" stroke="black" stroke-width="0.6"></polyline><polyline points="16.006097560975608,26.778455284552845 16.006097560975608,26.727642276422763 16.006097560975608,26.6260162601626 16.006097560975608,26.524390243902438 16.15853658536585,26.422764227642276 16.41260162601626,26.422764227642276 16.76829268292683,26.422764227642276 17.225609756097562,26.473577235772357 17.784552845528456,26.524390243902438 18.39430894308943,26.57520325203252 19.004065040650406,26.57520325203252 19.51219512195122,26.57520325203252 19.96951219512195,26.57520325203252 20.528455284552845,26.57520325203252 20.985772357723576,26.473577235772357 21.239837398373982,26.422764227642276" fill="none" stroke="black" stroke-width="0.6"></polyline><polyline points="35.0609756097561,25.152439024390244 34.90853658536585,24.847560975609756 34.75609756097561,24.59349593495935 34.552845528455286,24.339430894308943 34.2479674796748,24.085365853658537 33.892276422764226,23.882113821138212 33.485772357723576,23.729674796747968 33.079268292682926,23.628048780487806 32.672764227642276,23.628048780487806 32.21544715447154,23.78048780487805 31.910569105691057,24.085365853658537 31.60569105691057,24.441056910569106 31.351626016260163,24.898373983739837 31.19918699186992,25.40650406504065 31.148373983739837,26.016260162601625 31.148373983739837,26.727642276422763 31.25,27.33739837398374 31.504065040650406,27.947154471544714 31.859756097560975,28.404471544715445 32.16463414634146,28.55691056910569 32.46951219512195,28.60772357723577 32.82520325203252,28.55691056910569 33.13008130081301,28.404471544715445 33.485772357723576,28.15040650406504 33.892276422764226,27.79471544715447 34.197154471544714,27.38821138211382 34.5020325203252,26.93089430894309 34.80691056910569,26.422764227642276 35.010162601626014,26.016260162601625 35.16260162601626,25.609756097560975 35.21341463414634,25.203252032520325 35.21341463414634,24.898373983739837 35.21341463414634,24.695121951219512 35.16260162601626,24.54268292682927 35.11178861788618,24.54268292682927 35.0609756097561,24.54268292682927 35.0609756097561,24.54268292682927 35.0609756097561,24.64430894308943 35.0609756097561,24.796747967479675 35.0609756097561,25.101626016260163 35.11178861788618,25.558943089430894 35.21341463414634,26.16869918699187 35.416666666666664,26.880081300813007 35.670731707317074,27.79471544715447 35.97560975609756,28.810975609756095 36.33130081300813,29.878048780487806 36.58536585365854,30.84349593495935 36.83943089430894,31.70731707317073 36.9410569105691,32.57113821138211 36.9410569105691,33.23170731707317 36.890243902439025,33.790650406504064" fill="none" stroke="black" stroke-width="0.6"></polyline><polyline points="36.890243902439025,33.790650406504064 36.73780487804878,34.298780487804876 36.483739837398375,34.70528455284553 36.1280487804878,35.0609756097561 35.670731707317074,35.3150406504065 35.16260162601626,35.51829268292683 34.552845528455286,35.61991869918699 33.892276422764226,35.670731707317074 33.13008130081301,35.670731707317074 32.418699186991866,35.61991869918699 31.808943089430894,35.51829268292683 31.402439024390244,35.416666666666664 31.148373983739837,35.264227642276424" fill="none" stroke="black" stroke-width="0.6"></polyline><polyline points="47.357723577235774,20.426829268292682 47.25609756097561,20.32520325203252 47.15447154471545,20.223577235772357 47.103658536585364,20.223577235772357 47.052845528455286,20.426829268292682 47.0020325203252,20.833333333333332 47.0020325203252,21.392276422764226 46.951219512195124,22.205284552845526 46.951219512195124,23.272357723577237 47.0020325203252,24.491869918699187 47.052845528455286,25.8130081300813 47.103658536585364,26.93089430894309 47.15447154471545,27.997967479674795 47.103658536585364,29.01422764227642 47.0020325203252,29.6239837398374 46.90040650406504,30.132113821138212 46.84959349593496,30.538617886178862 46.84959349593496,30.691056910569106 46.84959349593496,30.79268292682927 46.84959349593496,30.79268292682927 46.84959349593496,30.79268292682927 46.84959349593496,30.741869918699187 46.84959349593496,30.589430894308943 46.84959349593496,30.284552845528456 46.84959349593496,29.776422764227643 46.951219512195124,29.166666666666664 47.15447154471545,28.55691056910569 47.459349593495936,27.896341463414632 47.86585365853659,27.235772357723576 48.3739837398374,26.6260162601626 49.03455284552845,26.16869918699187 49.64430894308943,25.86382113821138 50.15243902439024,25.8130081300813 50.50813008130081,25.8130081300813 50.86382113821138,26.016260162601625 51.168699186991866,26.270325203252032 51.422764227642276,26.676829268292682 51.67682926829268,27.184959349593495 51.880081300813,27.74390243902439 51.981707317073166,28.302845528455283 52.03252032520325,28.96341463414634 52.083333333333336,29.573170731707318 52.03252032520325,30.132113821138212 51.93089430894309,30.691056910569106 51.880081300813,31.097560975609756 51.77845528455284,31.554878048780488" fill="none" stroke="black" stroke-width="0.6"></polyline><polyline points="64.07520325203252,25.660569105691057 64.07520325203252,25.660569105691057 64.02439024390243,25.508130081300813 63.922764227642276,25.45731707317073 63.922764227642276,25.45731707317073 63.87195121951219,25.711382113821138 63.82113821138211,26.067073170731707 63.82113821138211,26.473577235772357 63.82113821138211,26.98170731707317 63.82113821138211,27.693089430894307 63.77032520325203,28.404471544715445 63.77032520325203,29.115853658536583 63.668699186991866,29.725609756097562 63.61788617886179,30.182926829268293 63.516260162601625,30.538617886178862 63.46544715447154,30.741869918699187 63.46544715447154,30.79268292682927 63.46544715447154,30.79268292682927 63.46544715447154,30.691056910569106" fill="none" stroke="black" stroke-width="0.6"></polyline><polyline points="63.5670731707317,23.577235772357724 63.5670731707317,23.323170731707318 63.516260162601625,22.764227642276424 63.46544715447154,22.40853658536585 63.46544715447154,22.30691056910569 63.46544715447154,22.30691056910569 63.46544715447154,22.30691056910569 63.41463414634146,22.35772357723577 63.36382113821138,22.510162601626014 63.3130081300813,22.764227642276424" fill="none" stroke="black" stroke-width="0.6"></polyline><polyline points="80.33536585365853,25.965447154471544 80.33536585365853,25.914634146341463 80.33536585365853,25.914634146341463 80.33536585365853,25.965447154471544 80.38617886178862,26.270325203252032 80.64024390243902,26.829268292682926 80.9959349593496,27.693089430894307 81.55487804878048,28.65853658536585 82.0630081300813,29.725609756097562 82.5711382113821,30.84349593495935 82.92682926829268,31.859756097560975 83.130081300813,32.82520325203252 83.18089430894308,33.6890243902439 83.18089430894308,34.451219512195124 83.02845528455285,35.16260162601626 82.82520325203252,35.77235772357724 82.5711382113821,36.229674796747965 82.26626016260163,36.58536585365854 81.85975609756098,36.83943089430894 81.45325203252033,36.9410569105691 80.9451219512195,36.9410569105691 80.38617886178862,36.78861788617886 79.8780487804878,36.636178861788615 79.42073170731707,36.38211382113821 78.96341463414635,36.077235772357724 78.60772357723577,35.823170731707314 78.2520325203252,35.56910569105691 77.9979674796748,35.3150406504065 77.79471544715447,35.010162601626014" fill="none" stroke="black" stroke-width="0.6"></polyline><polyline points="80.33536585365853,22.40853658536585 80.23373983739837,22.205284552845526 80.08130081300813,21.747967479674795 79.97967479674797,21.697154471544714 79.97967479674797,21.697154471544714 80.03048780487805,21.798780487804876 80.03048780487805,22.0020325203252 80.03048780487805,22.256097560975608 80.03048780487805,22.40853658536585" fill="none" stroke="black" stroke-width="0.6"></polyline><polyline points="17.9369918699187,36.17886178861789 17.784552845528456,36.077235772357724 17.53048780487805,35.823170731707314 17.428861788617887,35.77235772357724 17.428861788617887,35.77235772357724 17.428861788617887,35.8739837398374 17.428861788617887,36.229674796747965 17.428861788617887,36.73780487804878 17.479674796747968,37.5 17.479674796747968,38.5670731707317 17.53048780487805,39.9390243902439 17.53048780487805,41.46341463414634 17.632113821138212,42.78455284552845 17.682926829268293,44.0040650406504 17.733739837398375,45.02032520325203 17.733739837398375,45.73170731707317 17.835365853658537,46.1890243902439 17.835365853658537,46.54471544715447 17.88617886178862,46.646341463414636" fill="none" stroke="black" stroke-width="0.6"></polyline><polyline points="17.632113821138212,42.3780487804878 17.632113821138212,42.22560975609756 17.632113821138212,41.81910569105691 17.632113821138212,41.36178861788618 17.733739837398375,40.95528455284553 17.98780487804878,40.396341463414636 18.495934959349594,39.6849593495935 19.10569105691057,38.97357723577235 19.766260162601625,38.41463414634146 20.274390243902438,38.00813008130081 20.579268292682926,37.80487804878049 20.884146341463413,37.65243902439024 21.13821138211382,37.65243902439024" fill="none" stroke="black" stroke-width="0.6"></polyline><polyline points="19.15650406504065,40.34552845528455 18.953252032520325,40.4979674796748 18.495934959349594,40.7520325203252 18.191056910569106,41.00609756097561 17.98780487804878,41.3109756097561 17.835365853658537,41.61585365853659 17.784552845528456,41.81910569105691 17.784552845528456,42.073170731707314 17.835365853658537,42.27642276422764 17.9369918699187,42.479674796747965 18.29268292682927,42.9369918699187 18.75,43.39430894308943 19.308943089430894,43.953252032520325 19.61382113821138,44.15650406504065 19.91869918699187,44.41056910569105 20.630081300813007,44.96951219512195 21.392276422764226,45.52845528455285 22.052845528455283,45.985772357723576 22.611788617886177,46.392276422764226 22.865853658536587,46.59552845528455 23.170731707317074,46.798780487804876 23.3739837398374,46.951219512195124" fill="none" stroke="black" stroke-width="0.6"></polyline><polyline points="34.451219512195124,37.7540650406504 34.451219512195124,37.7540650406504 34.40040650406504,37.7540650406504 34.34959349593496,37.80487804878049 34.2479674796748,38.262195121951216 34.09552845528455,39.176829268292686 33.790650406504064,40.4979674796748 33.4349593495935,41.86991869918699 33.079268292682926,43.24186991869919 32.82520325203252,44.512195121951216 32.6219512195122,45.73170731707317 32.57113821138211,46.239837398373986" fill="none" stroke="black" stroke-width="0.6"></polyline><polyline points="46.392276422764226,42.42886178861789 46.34146341463415,42.42886178861789 46.1890243902439,42.479674796747965 45.985772357723576,42.78455284552845 45.88414634146341,43.39430894308943 45.833333333333336,44.15650406504065 45.73170731707317,45.02032520325203 45.73170731707317,45.73170731707317 45.73170731707317,46.239837398373986 45.833333333333336,46.646341463414636 45.985772357723576,46.90040650406504 46.13821138211382,47.0020325203252 46.290650406504064,47.0020325203252 46.44308943089431,46.697154471544714 46.59552845528455,46.239837398373986 46.798780487804876,45.63008130081301 47.052845528455286,44.918699186991866 47.30691056910569,44.105691056910565 47.61178861788618,43.1910569105691 47.916666666666664,42.327235772357724 48.22154471544715,41.61585365853659 48.52642276422764,41.15853658536585 48.78048780487805,41.00609756097561 48.983739837398375,41.05691056910569 49.23780487804878,41.209349593495936 49.49186991869919,41.5650406504065 49.74593495934959,42.02235772357724 49.949186991869915,42.63211382113821 50,43.34349593495935 50,44.15650406504065 49.89837398373984,44.96951219512195 49.74593495934959,45.579268292682926 49.64430894308943,45.985772357723576 49.542682926829265,46.1890243902439 49.542682926829265,46.1890243902439 49.59349593495935,46.13821138211382 49.69512195121951,45.9349593495935 49.89837398373984,45.47764227642276 50.2540650406504,44.86788617886179 50.71138211382114,44.105691056910565 51.21951219512195,43.24186991869919 51.93089430894309,42.17479674796748 52.642276422764226,41.46341463414634 53.302845528455286,41.107723577235774 53.91260162601626,41.05691056910569 54.31910569105691,41.15853658536585 54.77642276422764,41.514227642276424 55.233739837398375,42.073170731707314 55.53861788617886,42.733739837398375 55.74186991869919,43.546747967479675 55.792682926829265,44.41056910569105" fill="none" stroke="black" stroke-width="0.6"></polyline><polyline points="55.792682926829265,44.41056910569105 55.6910569105691,45.22357723577235 55.48780487804878,45.9349593495935 55.233739837398375,46.646341463414636 55.03048780487805,47.15447154471545" fill="none" stroke="black" stroke-width="0.6"></polyline><polyline points="64.98983739837398,42.22560975609756 64.98983739837398,42.327235772357724 64.98983739837398,42.42886178861789 64.98983739837398,42.63211382113821 64.98983739837398,43.08943089430894 64.9390243902439,43.80081300813008 64.88821138211382,44.61382113821138 64.73577235772358,45.3760162601626 64.6341463414634,46.03658536585366 64.58333333333333,46.49390243902439 64.53252032520325,46.84959349593496 64.48170731707317,47.052845528455286 64.48170731707317,47.052845528455286 64.48170731707317,46.951219512195124 64.48170731707317,46.59552845528455 64.48170731707317,46.03658536585366 64.58333333333333,45.325203252032516 64.78658536585365,44.5630081300813 65.04065040650406,43.90243902439024 65.44715447154472,43.1910569105691 66.0060975609756,42.479674796747965 66.71747967479675,41.97154471544715 67.42886178861788,41.76829268292683 68.14024390243902,41.76829268292683 68.64837398373983,42.073170731707314 69.15650406504065,42.63211382113821 69.51219512195122,43.292682926829265 69.76626016260163,44.105691056910565 69.91869918699187,45.02032520325203 69.91869918699187,45.833333333333336 69.86788617886178,46.59552845528455 69.66463414634146,47.40853658536585 69.51219512195122,47.916666666666664 69.35975609756098,48.22154471544715 69.2581300813008,48.323170731707314" fill="none" stroke="black" stroke-width="0.6"></polyline><polyline points="82.01219512195122,42.98780487804878 81.91056910569105,42.886178861788615 81.65650406504065,42.68292682926829 81.45325203252033,42.68292682926829 81.30081300813008,42.9369918699187 81.09756097560975,43.39430894308943 80.84349593495935,43.90243902439024 80.58943089430895,44.5630081300813 80.33536585365853,45.325203252032516 80.28455284552845,46.08739837398374 80.28455284552845,46.7479674796748 80.53861788617886,47.30691056910569 80.9959349593496,47.510162601626014 81.65650406504065,47.5609756097561 82.36788617886178,47.40853658536585 83.07926829268293,47.052845528455286 83.84146341463415,46.49390243902439 84.70528455284553,45.78252032520325 85.51829268292683,45.02032520325203 86.22967479674797,44.15650406504065 86.63617886178862,43.39430894308943 86.6869918699187,42.733739837398375 86.63617886178862,42.42886178861789 86.17886178861788,41.76829268292683 85.97560975609755,41.666666666666664 85.0609756097561,41.666666666666664 84.1971544715447,41.86991869918699 83.28252032520325,42.27642276422764 82.26626016260163,42.78455284552845 81.40243902439025,43.34349593495935 80.74186991869918,43.85162601626016" fill="none" stroke="black" stroke-width="0.6"></polyline><polyline points="16.36178861788618,57.62195121951219 16.209349593495933,57.57113821138211 16.006097560975608,57.57113821138211 15.904471544715447,57.97764227642276 15.853658536585366,58.739837398373986 15.904471544715447,59.80691056910569 16.006097560975608,61.1280487804878 16.209349593495933,62.60162601626016 16.41260162601626,64.27845528455285 16.71747967479675,66.0060975609756 16.920731707317074,67.6321138211382 17.17479674796748,68.90243902439025 17.378048780487806,69.86788617886178 17.53048780487805,70.42682926829268 17.58130081300813,70.57926829268293" fill="none" stroke="black" stroke-width="0.6"></polyline><polyline points="15.904471544715447,59.603658536585364 16.006097560975608,59.298780487804876 16.260162601626014,58.6890243902439 16.666666666666668,58.33333333333333 17.276422764227643,58.130081300813 17.98780487804878,58.130081300813 18.69918699186992,58.28252032520325 19.461382113821138,58.63821138211382 20.121951219512194,59.09552845528455 20.579268292682926,59.5020325203252 20.884146341463413,59.90853658536585 21.036585365853657,60.416666666666664 20.985772357723576,60.8739837398374 20.630081300813007,61.43292682926829 20.071138211382113,62.09349593495935 19.359756097560975,62.65243902439024 18.546747967479675,63.21138211382114 17.58130081300813,63.668699186991866 16.81910569105691,63.97357723577235 16.3109756097561,64.17682926829268 15.955284552845528,64.22764227642276 15.904471544715447,64.22764227642276 16.006097560975608,64.17682926829268 16.41260162601626,64.1260162601626 17.1239837398374,63.922764227642276" fill="none" stroke="black" stroke-width="0.6"></polyline><polyline points="32.57113821138211,58.485772357723576 32.21544715447154,58.231707317073166 31.70731707317073,58.079268292682926 31.402439024390244,58.079268292682926 31.148373983739837,58.33333333333333 30.79268292682927,58.739837398373986 30.4369918699187,59.298780487804876 30.03048780487805,60.11178861788618 29.67479674796748,60.97560975609756 29.471544715447155,61.73780487804878 29.31910569105691,62.449186991869915 29.31910569105691,63.16056910569105 29.31910569105691,63.61788617886179 29.471544715447155,63.922764227642276 29.6239837398374,63.97357723577235 29.776422764227643,63.922764227642276 29.979674796747968,63.71951219512195 30.284552845528456,63.36382113821138 30.691056910569106,62.80487804878049 31.097560975609756,62.09349593495935 31.504065040650406,61.43292682926829 31.910569105691057,60.77235772357724 32.36788617886179,60.010162601626014 32.72357723577236,59.40040650406504 33.02845528455285,58.94308943089431 33.28252032520325,58.63821138211382 33.38414634146341,58.63821138211382 33.485772357723576,58.63821138211382 33.58739837398374,58.84146341463415 33.6890243902439,59.146341463414636 33.790650406504064,59.552845528455286 33.84146341463415,60.21341463414634 33.892276422764226,60.92479674796748 33.892276422764226,61.6869918699187 33.892276422764226,62.703252032520325 33.84146341463415,63.71951219512195 33.739837398373986,64.9390243902439 33.63821138211382,66.20934959349593 33.485772357723576,67.3780487804878 33.38414634146341,68.4451219512195 33.23170731707317,69.3089430894309 33.18089430894309,69.91869918699187 33.18089430894309,70.32520325203252 33.18089430894309,70.630081300813 33.23170731707317,70.68089430894308 33.23170731707317,70.68089430894308 33.28252032520325,70.630081300813 33.38414634146341,70.57926829268293 33.58739837398374,70.42682926829268 33.99390243902439,69.96951219512195 34.603658536585364,69.10569105691057" fill="none" stroke="black" stroke-width="0.6"></polyline><polyline points="34.603658536585364,69.10569105691057 35.36585365853659,68.14024390243902 36.1280487804878,67.27642276422765 36.83943089430894,66.5650406504065 37.5,66.0569105691057 37.855691056910565,65.80284552845528" fill="none" stroke="black" stroke-width="0.6"></polyline><polyline points="48.729674796747965,58.58739837398374 48.6280487804878,58.43495934959349 48.52642276422764,58.28252032520325 48.47560975609756,58.28252032520325 48.42479674796748,58.33333333333333 48.3739837398374,58.63821138211382 48.323170731707314,59.146341463414636 48.27235772357724,59.90853658536585 48.22154471544715,60.823170731707314 48.11991869918699,61.78861788617886 48.01829268292683,62.60162601626016 47.96747967479675,63.05894308943089 47.86585365853659,63.262195121951216 47.8150406504065,63.262195121951216 47.8150406504065,63.262195121951216 47.764227642276424,63.21138211382114 47.764227642276424,63.109756097560975 47.66260162601626,62.855691056910565 47.61178861788618,62.296747967479675 47.66260162601626,61.53455284552845 47.86585365853659,60.670731707317074 48.27235772357724,59.70528455284553 48.983739837398375,58.739837398373986 49.74593495934959,58.18089430894309 50.50813008130081,57.92682926829268 51.168699186991866,57.8760162601626 51.67682926829268,57.92682926829268 51.93089430894309,58.02845528455284 52.13414634146341,58.18089430894309" fill="none" stroke="black" stroke-width="0.6"></polyline><polyline points="66.15853658536585,56.40243902439024 66.15853658536585,56.35162601626016 66.15853658536585,56.09756097560975 66.10772357723577,55.94512195121951 66.0569105691057,55.89430894308943 65.95528455284553,55.89430894308943 65.65040650406505,56.046747967479675 65.09146341463415,56.40243902439024 64.380081300813,56.96138211382114 63.516260162601625,57.672764227642276 62.65243902439024,58.43495934959349 61.9410569105691,59.197154471544714 61.483739837398375,59.70528455284553 61.229674796747965,60.11178861788618 61.17886178861789,60.46747967479675 61.33130081300813,60.77235772357724 61.58536585365854,61.02642276422764 61.99186991869919,61.229674796747965 62.449186991869915,61.33130081300813 63.00813008130081,61.43292682926829 63.61788617886179,61.53455284552845 64.32926829268293,61.636178861788615 65.14227642276423,61.73780487804878 65.7520325203252,61.83943089430894 66.20934959349593,61.890243902439025 66.46341463414635,61.9410569105691 66.46341463414635,62.042682926829265 66.41260162601625,62.09349593495935 66.3109756097561,62.14430894308943 66.15853658536585,62.296747967479675 65.80284552845528,62.55081300813008 65.34552845528455,62.855691056910565 64.83739837398373,63.16056910569105 64.380081300813,63.46544715447154 64.02439024390243,63.668699186991866" fill="none" stroke="black" stroke-width="0.6"></polyline><polyline points="79.01422764227642,55.33536585365854 79.01422764227642,55.28455284552845 79.01422764227642,55.233739837398375 79.01422764227642,55.28455284552845 79.01422764227642,55.640243902439025 79.01422764227642,56.25 79.0650406504065,57.11382113821138 79.11585365853658,57.62195121951219 79.21747967479675,58.231707317073166 79.47154471544715,59.5020325203252 79.6239837398374,60.61991869918699 79.77642276422765,61.53455284552845 79.92886178861788,62.296747967479675 80.08130081300813,62.855691056910565 80.23373983739837,63.262195121951216 80.33536585365853,63.46544715447154 80.38617886178862,63.61788617886179 80.38617886178862,63.668699186991866 80.23373983739837,63.668699186991866" fill="none" stroke="black" stroke-width="0.6"></polyline><polyline points="75.86382113821138,60.670731707317074 76.0670731707317,59.959349593495936 76.6260162601626,59.298780487804876 77.89634146341463,58.739837398373986 79.47154471544715,58.18089430894309 81.14837398373983,57.72357723577235 82.52032520325203,57.418699186991866 83.33333333333333,57.266260162601625 83.9430894308943,57.21544715447154 84.40040650406503,57.21544715447154 84.55284552845528,57.21544715447154" fill="none" stroke="black" stroke-width="0.6"></polyline><polyline points="16.76829268292683,74.59349593495935 16.514227642276424,74.59349593495935 16.3109756097561,74.59349593495935 16.10772357723577,74.79674796747967 15.955284552845528,75.10162601626016 15.802845528455284,75.60975609756098 15.701219512195122,76.21951219512195 15.65040650406504,76.93089430894308 15.59959349593496,77.64227642276423 15.59959349593496,78.40447154471545 15.701219512195122,78.91260162601625 15.904471544715447,79.3191056910569 16.15853658536585,79.57317073170732 16.463414634146343,79.67479674796748 16.76829268292683,79.6239837398374 17.17479674796748,79.369918699187 17.53048780487805,79.01422764227642 17.9369918699187,78.45528455284553 18.39430894308943,77.74390243902438 18.851626016260163,76.93089430894308 19.308943089430894,76.11788617886178 19.766260162601625,75.20325203252033 20.121951219512194,74.49186991869918 20.426829268292682,73.8821138211382 20.630081300813007,73.3739837398374 20.833333333333332,73.17073170731707 20.934959349593495,73.0691056910569 21.036585365853657,73.0691056910569 21.13821138211382,73.17073170731707 21.239837398373982,73.42479674796748 21.392276422764226,73.9329268292683 21.443089430894307,74.54268292682927 21.54471544715447,75.35569105691057 21.59552845528455,76.3211382113821 21.646341463414632,77.23577235772358 21.646341463414632,78.09959349593495 21.646341463414632,78.91260162601625 21.646341463414632,79.369918699187 21.646341463414632,79.67479674796748 21.697154471544714,79.8780487804878 21.747967479674795,79.97967479674797 21.90040650406504,79.97967479674797 22.0020325203252,79.97967479674797" fill="none" stroke="black" stroke-width="0.6"></polyline><polyline points="32.418699186991866,74.08536585365853 32.418699186991866,74.08536585365853 32.36788617886179,74.03455284552845 32.3170731707317,73.98373983739837 32.3170731707317,73.98373983739837 32.3170731707317,74.1869918699187 32.46951219512195,74.64430894308943 32.77439024390244,75.35569105691057 33.18089430894309,76.3719512195122 33.739837398373986,77.59146341463415 34.90853658536585,79.92886178861788 35.11178861788618,79.92886178861788 35.16260162601626,79.77642276422765 35.264227642276424,79.369918699187 35.36585365853659,78.60772357723577 35.51829268292683,77.79471544715447 35.670731707317074,76.880081300813 35.8739837398374,75.86382113821138 36.077235772357724,75.05081300813008 36.229674796747965,74.39024390243902 36.43292682926829,73.9329268292683 36.636178861788615,73.78048780487805 36.9410569105691,73.72967479674797 37.449186991869915,73.78048780487805 37.7540650406504,73.83130081300813" fill="none" stroke="black" stroke-width="0.6"></polyline><polyline points="47.459349593495936,73.47560975609755 47.459349593495936,73.47560975609755 47.459349593495936,73.47560975609755 47.459349593495936,73.47560975609755 47.459349593495936,73.47560975609755 47.459349593495936,73.57723577235772 47.510162601626014,73.98373983739837 47.61178861788618,74.79674796747967 47.71341463414634,75.8130081300813 47.86585365853659,76.77845528455285 48.01829268292683,77.38821138211382 48.11991869918699,77.64227642276423 48.27235772357724,77.6930894308943 48.3739837398374,77.6930894308943 48.42479674796748,77.64227642276423 48.52642276422764,77.48983739837398 48.577235772357724,77.28658536585365 48.6280487804878,77.03252032520325 48.67886178861789,76.77845528455285 48.67886178861789,76.52439024390243 48.729674796747965,76.47357723577235 48.729674796747965,76.42276422764228 48.729674796747965,76.42276422764228 48.78048780487805,76.47357723577235 48.88211382113821,76.72764227642276 49.08536585365854,77.1849593495935 49.390243902439025,77.74390243902438 49.796747967479675,78.30284552845528 50.10162601626016,78.65853658536585 50.40650406504065,78.76016260162602 50.762195121951216,78.76016260162602 51.11788617886179,78.5060975609756 51.47357723577235,78.04878048780488 51.880081300813,77.33739837398373 52.235772357723576,76.6260162601626 52.59146341463415,75.8130081300813 52.947154471544714,74.89837398373983 53.201219512195124,74.08536585365853 53.40447154471545,73.47560975609755 53.55691056910569,73.01829268292683 53.65853658536585,72.86585365853658 53.65853658536585,72.86585365853658 53.65853658536585,72.86585365853658 53.709349593495936,73.0691056910569 53.8109756097561,73.3739837398374 53.96341463414634,73.52642276422765" fill="none" stroke="black" stroke-width="0.6"></polyline><polyline points="62.703252032520325,73.47560975609755 62.65243902439024,73.47560975609755 62.60162601626016,73.52642276422765 62.449186991869915,73.52642276422765" fill="none" stroke="black" stroke-width="0.6"></polyline><polyline points="62.7540650406504,72.91666666666667 62.7540650406504,72.91666666666667 62.7540650406504,72.91666666666667 62.80487804878049,72.96747967479675 63.05894308943089,73.22154471544715 63.516260162601625,73.9329268292683 64.22764227642276,74.94918699186992 64.78658536585365,75.96544715447155 65.1930894308943,76.82926829268293 65.44715447154472,77.59146341463415 65.54878048780488,78.15040650406505 65.54878048780488,78.5569105691057 65.54878048780488,78.8109756097561 65.39634146341463,78.86178861788618 65.29471544715447,78.76016260162602 65.2439024390244,78.5060975609756 65.2439024390244,78.20121951219512 65.2439024390244,77.6930894308943 65.34552845528455,77.03252032520325 65.4979674796748,76.3719512195122 65.70121951219512,75.5589430894309 65.80284552845528,75.15243902439025" fill="none" stroke="black" stroke-width="0.6"></polyline><polyline points="67.9369918699187,71.1890243902439 67.98780487804878,71.03658536585365 68.03861788617886,70.9349593495935 68.03861788617886,70.8841463414634 68.03861788617886,70.8841463414634 68.03861788617886,70.8841463414634 68.03861788617886,70.8841463414634 68.03861788617886,70.8841463414634 68.03861788617886,70.9349593495935 67.98780487804878,70.98577235772358 67.98780487804878,70.98577235772358 67.9369918699187,71.03658536585365 67.88617886178862,71.08739837398373 67.83536585365853,71.13821138211382 67.83536585365853,71.13821138211382 67.78455284552845,71.1890243902439 67.73373983739837,71.1890243902439 67.73373983739837,71.1890243902439 67.6829268292683,71.23983739837398 67.6321138211382,71.23983739837398 67.6321138211382,71.23983739837398 67.6321138211382,71.29065040650406 67.58130081300813,71.29065040650406 67.58130081300813,71.29065040650406" fill="none" stroke="black" stroke-width="0.6"></polyline><polyline points="67.83536585365853,71.7479674796748 67.83536585365853,71.7479674796748 67.83536585365853,71.7479674796748 67.78455284552845,71.7479674796748 67.6829268292683,71.7479674796748 67.42886178861788,72.15447154471545 66.869918699187,73.01829268292683 66.10772357723577,74.1869918699187 65.14227642276423,75.66056910569105 64.02439024390243,77.1341463414634 63.05894308943089,78.40447154471545 62.09349593495935,79.57317073170732 61.43292682926829,80.4369918699187 61.1280487804878,80.9451219512195 60.92479674796748,81.30081300813008 60.77235772357724,81.55487804878048 60.72154471544715,81.55487804878048 60.72154471544715,81.5040650406504 60.823170731707314,81.35162601626016" fill="none" stroke="black" stroke-width="0.6"></polyline><polyline points="78.2520325203252,74.7459349593496 78.2520325203252,74.7459349593496 78.2520325203252,74.6951219512195 78.2520325203252,74.6951219512195 78.2520325203252,74.64430894308943 78.2520325203252,74.64430894308943 78.40447154471545,74.6951219512195 78.76016260162602,75.05081300813008 79.26829268292683,75.60975609756098 79.82723577235772,76.27032520325203 80.38617886178862,76.93089430894308 80.74186991869918,77.59146341463415 80.89430894308943,78.09959349593495 80.9451219512195,78.35365853658537" fill="none" stroke="black" stroke-width="0.6"></polyline><polyline points="82.67276422764228,72.91666666666667 82.67276422764228,72.91666666666667 82.6219512195122,72.91666666666667 82.5711382113821,73.0691056910569 82.26626016260163,73.78048780487805 81.70731707317073,75.15243902439025 80.9959349593496,76.82926829268293 80.33536585365853,78.45528455284553 79.67479674796748,79.92886178861788 79.11585365853658,81.35162601626016 78.5569105691057,82.67276422764228 78.09959349593495,83.79065040650406 77.74390243902438,84.70528455284553 77.38821138211382,85.36585365853658" fill="none" stroke="black" stroke-width="0.6"></polyline><polyline points="14.380081300813007,90.04065040650406 14.329268292682926,90.04065040650406 14.024390243902438,89.98983739837398 13.871951219512194,89.88821138211382 13.821138211382113,89.88821138211382 13.821138211382113,89.88821138211382 13.922764227642276,89.88821138211382 14.227642276422763,89.88821138211382 14.735772357723578,89.88821138211382 15.396341463414634,89.73577235772358 16.05691056910569,89.58333333333333 16.81910569105691,89.32926829268293 17.632113821138212,89.02439024390243 18.29268292682927,88.77032520325203 18.851626016260163,88.5670731707317 19.258130081300813,88.46544715447155 19.359756097560975,88.46544715447155 19.410569105691057,88.51626016260163 19.410569105691057,88.66869918699187 19.410569105691057,88.92276422764228 19.359756097560975,89.27845528455285 19.15650406504065,89.83739837398373 18.851626016260163,90.4979674796748 18.39430894308943,91.36178861788618 17.88617886178862,92.17479674796748 17.479674796747968,92.98780487804878 17.17479674796748,93.80081300813008 16.869918699186993,94.5630081300813 16.71747967479675,95.17276422764228 16.666666666666668,95.57926829268293 16.666666666666668,95.83333333333333 16.71747967479675,95.8841463414634 16.869918699186993,95.9349593495935 17.1239837398374,95.9349593495935 17.479674796747968,95.9349593495935 18.089430894308943,95.68089430894308 18.902439024390244,95.22357723577235 19.817073170731707,94.61382113821138 20.68089430894309,94.05487804878048 21.49390243902439,93.54674796747967 22.154471544715445,93.03861788617886 22.71341463414634,92.6321138211382 23.221544715447155,92.32723577235772 23.628048780487806,92.1239837398374" fill="none" stroke="black" stroke-width="0.6"></polyline></svg>