<svg height="100" width="100" preserveAspectRatio="xMidYMid meet"><polyline points="13.871951219512194,8.18089430894309 13.871951219512194,8.18089430894309 13.871951219512194,8.130081300813007 13.973577235772357,8.079268292682926 13.973577235772357,8.079268292682926 14.1260162601626,7.977642276422764 14.278455284552845,7.926829268292683 14.48170731707317,7.876016260162602 14.735772357723578,7.774390243902439 14.989837398373984,7.6727642276422765 15.24390243902439,7.621951219512195 15.548780487804878,7.520325203252033 15.802845528455284,7.469512195121951 16.05691056910569,7.41869918699187 16.3109756097561,7.367886178861789 16.514227642276424,7.317073170731707 16.71747967479675,7.317073170731707 16.869918699186993,7.317073170731707 16.971544715447155,7.317073170731707 17.073170731707318,7.317073170731707 17.225609756097562,7.317073170731707 17.276422764227643,7.317073170731707 17.378048780487806,7.317073170731707 17.428861788617887,7.317073170731707 17.479674796747968,7.317073170731707 17.53048780487805,7.367886178861789 17.58130081300813,7.367886178861789 17.58130081300813,7.367886178861789 17.632113821138212,7.41869918699187 17.632113821138212,7.41869918699187 17.632113821138212,7.41869918699187 17.632113821138212,7.469512195121951 17.632113821138212,7.469512195121951 17.632113821138212,7.520325203252033 17.632113821138212,7.571138211382114 17.632113821138212,7.621951219512195 17.58130081300813,7.6727642276422765 17.479674796747968,7.774390243902439 17.378048780487806,7.977642276422764 17.225609756097562,8.18089430894309 17.073170731707318,8.434959349593496 16.81910569105691,8.790650406504065 16.615853658536587,9.095528455284553 16.36178861788618,9.502032520325203 16.10772357723577,9.857723577235772 15.853658536585366,10.213414634146341 15.65040650406504,10.518292682926829 15.497967479674797,10.873983739837398 15.345528455284553,11.178861788617885 15.24390243902439,11.432926829268293 15.142276422764228,11.6869918699187" fill="none" stroke="black" stroke-width="0.6"></polyline><polyline points="15.142276422764228,11.6869918699187 15.040650406504065,11.839430894308943 14.939024390243903,12.042682926829269 14.83739837398374,12.195121951219512 14.83739837398374,12.296747967479675 14.786585365853659,12.398373983739837 14.786585365853659,12.5 14.786585365853659,12.550813008130081 14.786585365853659,12.601626016260163 14.786585365853659,12.652439024390244 14.786585365853659,12.703252032520325 14.83739837398374,12.754065040650406 14.888211382113822,12.754065040650406 14.989837398373984,12.754065040650406 15.142276422764228,12.804878048780488 15.447154471544716,12.804878048780488 15.853658536585366,12.703252032520325 16.514227642276424,12.601626016260163 17.327235772357724,12.398373983739837 18.140243902439025,12.245934959349594 19.054878048780488,12.09349593495935 20.020325203252032,11.941056910569106 20.884146341463413,11.839430894308943 21.697154471544714,11.737804878048781 22.30691056910569,11.6869918699187 22.71341463414634,11.6869918699187 23.01829268292683,11.6869918699187 23.221544715447155,11.6869918699187 23.323170731707318,11.6869918699187 23.42479674796748,11.788617886178862 23.42479674796748,11.839430894308943 23.42479674796748,12.042682926829269 23.221544715447155,12.296747967479675 23.06910569105691,12.449186991869919" fill="none" stroke="black" stroke-width="0.6"></polyline><polyline points="29.827235772357724,8.99390243902439 29.878048780487806,8.94308943089431 29.979674796747968,8.790650406504065 30.284552845528456,8.689024390243903 30.691056910569106,8.638211382113822 31.30081300813008,8.739837398373984 32.012195121951216,8.94308943089431 32.77439024390244,9.197154471544716 33.485772357723576,9.502032520325203 34.146341463414636,9.857723577235772 34.80691056910569,10.264227642276422 35.21341463414634,10.670731707317072 35.46747967479675,11.128048780487804 35.56910569105691,11.585365853658537 35.61991869918699,11.991869918699187 35.46747967479675,12.5 35.11178861788618,13.109756097560975 34.90853658536585,13.363821138211382" fill="none" stroke="black" stroke-width="0.6"></polyline><polyline points="36.077235772357724,7.621951219512195 36.077235772357724,7.621951219512195 36.02642276422764,7.520325203252033 36.02642276422764,7.520325203252033 35.97560975609756,7.6727642276422765 35.92479674796748,8.028455284552845 35.77235772357724,8.638211382113822 35.56910569105691,9.451219512195122 35.11178861788618,10.721544715447154 34.552845528455286,12.144308943089431 33.94308943089431,13.71951219512195 33.333333333333336,15.24390243902439 32.72357723577236,16.565040650406505 32.418699186991866,17.17479674796748 32.11382113821138,17.835365853658537 31.554878048780488,18.953252032520325 31.097560975609756,19.867886178861788 30.79268292682927,20.73170731707317 30.538617886178862,21.392276422764226 30.335365853658537,22.052845528455283 30.233739837398375,22.560975609756095 30.182926829268293,22.764227642276424" fill="none" stroke="black" stroke-width="0.6"></polyline><polyline points="52.03252032520325,7.926829268292683 51.981707317073166,7.774390243902439 51.880081300813,7.6727642276422765 51.829268292682926,7.621951219512195 51.77845528455284,7.621951219512195 51.67682926829268,7.723577235772358 51.52439024390244,7.926829268292683 51.27032520325203,8.282520325203253 50.91463414634146,8.689024390243903 50.50813008130081,9.247967479674797 50,9.908536585365853 49.390243902439025,10.670731707317072 48.78048780487805,11.432926829268293 48.170731707317074,12.144308943089431 47.61178861788618,12.754065040650406 47.25609756097561,13.3130081300813 46.951219512195124,13.71951219512195 46.697154471544714,14.07520325203252 46.392276422764226,14.380081300813007 46.08739837398374,14.634146341463413 45.78252032520325,14.83739837398374 45.63008130081301,14.939024390243903" fill="none" stroke="black" stroke-width="0.6"></polyline><polyline points="46.239837398373986,8.130081300813007 46.290650406504064,8.079268292682926 46.392276422764226,8.028455284552845 46.59552845528455,7.977642276422764 47.0020325203252,8.18089430894309 47.66260162601626,8.536585365853659 48.42479674796748,8.99390243902439 49.28861788617886,9.603658536585366 50.05081300813008,10.16260162601626 50.762195121951216,10.873983739837398 51.37195121951219,11.585365853658537 51.77845528455284,12.042682926829269 52.083333333333336,12.550813008130081 52.33739837398374,13.058943089430894 52.489837398373986,13.465447154471544 52.540650406504064,13.821138211382113 52.59146341463415,14.1260162601626 52.540650406504064,14.380081300813007 52.38821138211382,14.583333333333332 52.28658536585366,14.684959349593496" fill="none" stroke="black" stroke-width="0.6"></polyline><polyline points="62.855691056910565,7.977642276422764 62.80487804878049,7.774390243902439 62.80487804878049,7.621951219512195 62.80487804878049,7.621951219512195 62.80487804878049,7.621951219512195 62.80487804878049,7.723577235772358 62.855691056910565,7.977642276422764 62.95731707317073,8.333333333333334 63.05894308943089,8.841463414634147 63.16056910569105,9.34959349593496 63.262195121951216,9.959349593495935 63.41463414634146,10.619918699186991 63.46544715447154,11.280487804878048 63.5670731707317,11.839430894308943 63.61788617886179,12.296747967479675 63.668699186991866,12.601626016260163 63.77032520325203,12.804878048780488 63.87195121951219,12.90650406504065 63.922764227642276,12.90650406504065 64.07520325203252,12.804878048780488 64.22764227642276,12.550813008130081 64.48170731707317,12.195121951219512 64.78658536585365,11.737804878048781 65.04065040650406,11.280487804878048 65.29471544715447,10.721544715447154 65.4979674796748,10.111788617886178 65.59959349593495,9.603658536585366 65.70121951219512,9.197154471544716 65.7520325203252,8.892276422764228 65.80284552845528,8.790650406504065 65.80284552845528,8.790650406504065 65.80284552845528,8.841463414634147 65.80284552845528,9.044715447154472 65.90447154471545,9.34959349593496 66.0060975609756,9.75609756097561 66.10772357723577,10.315040650406504 66.26016260162602,10.97560975609756 66.41260162601625,11.737804878048781 66.51422764227642,12.296747967479675 66.66666666666667,12.754065040650406 66.8191056910569,13.160569105691057 66.97154471544715,13.3130081300813 67.07317073170732,13.363821138211382 67.22560975609755,13.3130081300813 67.3780487804878,13.109756097560975 67.58130081300813,12.754065040650406 67.83536585365853,12.195121951219512 68.08943089430895,11.636178861788618 68.34349593495935,10.924796747967479 68.64837398373983,10.010162601626016 68.90243902439025,9.197154471544716" fill="none" stroke="black" stroke-width="0.6"></polyline><polyline points="68.90243902439025,9.197154471544716 69.15650406504065,8.384146341463415 69.3089430894309,7.723577235772358 69.35975609756098,7.317073170731707 69.35975609756098,7.0630081300813 69.35975609756098,6.9105691056910565 69.35975609756098,6.859756097560975 69.35975609756098,6.859756097560975 69.35975609756098,6.859756097560975 69.2581300813008,6.961382113821138 69.10569105691057,7.266260162601625 68.80081300813008,7.571138211382114" fill="none" stroke="black" stroke-width="0.6"></polyline><polyline points="78.91260162601625,7.774390243902439 78.91260162601625,7.723577235772358 78.96341463414635,7.520325203252033 78.96341463414635,7.317073170731707 79.01422764227642,7.266260162601625 79.0650406504065,7.215447154471544 79.11585365853658,7.215447154471544 79.16666666666667,7.367886178861789 79.3191056910569,7.621951219512195 79.52235772357723,7.977642276422764 79.67479674796748,8.434959349593496 79.82723577235772,9.044715447154472 80.03048780487805,9.705284552845528 80.1829268292683,10.416666666666666 80.33536585365853,11.128048780487804 80.48780487804878,11.839430894308943 80.58943089430895,12.296747967479675 80.6910569105691,12.754065040650406 80.79268292682927,13.058943089430894 80.84349593495935,13.211382113821138 80.89430894308943,13.3130081300813 80.9959349593496,13.363821138211382 81.04674796747967,13.363821138211382 81.09756097560975,13.3130081300813 81.25,13.109756097560975 81.5040650406504,12.754065040650406 81.85975609756098,12.245934959349594 82.26626016260163,11.534552845528456 82.67276422764228,10.772357723577235 83.18089430894308,9.80691056910569 83.79065040650406,8.841463414634147 84.40040650406503,7.977642276422764 84.95934959349593,7.266260162601625 85.21341463414635,6.859756097560975 85.41666666666667,6.554878048780488 85.51829268292683,6.300813008130081 85.5691056910569,6.097560975609756 85.5691056910569,6.046747967479675 85.5691056910569,6.046747967479675 85.5691056910569,6.046747967479675 85.36585365853658,6.199186991869919" fill="none" stroke="black" stroke-width="0.6"></polyline><polyline points="15.548780487804878,23.932926829268293 15.497967479674797,23.678861788617887 15.447154471544716,23.475609756097562 15.396341463414634,23.323170731707318 15.396341463414634,23.221544715447155 15.396341463414634,23.221544715447155 15.396341463414634,23.272357723577237 15.497967479674797,23.42479674796748 15.59959349593496,23.729674796747968 15.752032520325203,24.13617886178862 15.853658536585366,24.695121951219512 16.006097560975608,25.304878048780488 16.10772357723577,25.660569105691057 16.209349593495933,26.067073170731707 16.41260162601626,26.98170731707317 16.615853658536587,27.896341463414632 16.869918699186993,28.65853658536585 17.17479674796748,29.166666666666664 17.53048780487805,29.369918699186993 17.835365853658537,29.522357723577237 18.089430894308943,29.573170731707318 18.29268292682927,29.6239837398374 18.495934959349594,29.6239837398374 18.648373983739837,29.6239837398374 18.80081300813008,29.522357723577237 18.953252032520325,29.31910569105691 19.15650406504065,29.0650406504065 19.359756097560975,28.65853658536585 19.61382113821138,28.15040650406504 19.766260162601625,27.540650406504064 19.91869918699187,27.03252032520325 20.020325203252032,26.422764227642276 20.071138211382113,25.914634146341463 20.071138211382113,25.35569105691057 20.071138211382113,24.847560975609756 20.071138211382113,24.54268292682927 20.071138211382113,24.288617886178862 20.020325203252032,24.034552845528456 20.020325203252032,23.83130081300813 20.020325203252032,23.678861788617887 20.020325203252032,23.475609756097562 20.020325203252032,23.42479674796748 20.020325203252032,23.323170731707318 20.020325203252032,23.323170731707318 20.020325203252032,23.323170731707318 20.020325203252032,23.323170731707318 20.020325203252032,23.323170731707318 20.020325203252032,23.323170731707318 20.020325203252032,23.323170731707318 20.020325203252032,23.3739837398374 20.020325203252032,23.3739837398374" fill="none" stroke="black" stroke-width="0.6"></polyline><polyline points="20.020325203252032,23.3739837398374 20.020325203252032,23.3739837398374 20.020325203252032,23.42479674796748 20.020325203252032,23.526422764227643 20.020325203252032,23.678861788617887 20.071138211382113,23.882113821138212 20.172764227642276,24.23780487804878 20.223577235772357,24.745934959349594 20.32520325203252,25.45731707317073 20.3760162601626,26.422764227642276 20.477642276422763,27.642276422764226 20.630081300813007,28.760162601626014 20.73170731707317,29.522357723577237 20.884146341463413,29.979674796747968 21.036585365853657,30.335365853658537 21.13821138211382,30.538617886178862 21.239837398373982,30.741869918699187 21.341463414634145,30.84349593495935" fill="none" stroke="black" stroke-width="0.6"></polyline><polyline points="34.298780487804876,20.3760162601626 34.2479674796748,20.3760162601626 34.09552845528455,20.3760162601626 34.04471544715447,20.3760162601626 33.99390243902439,20.630081300813007 33.892276422764226,21.1890243902439 33.739837398373986,21.90040650406504 33.63821138211382,22.815040650406505 33.53658536585366,23.78048780487805 33.485772357723576,24.64430894308943 33.4349593495935,25.558943089430894 33.38414634146341,26.6260162601626 33.38414634146341,27.540650406504064 33.38414634146341,28.353658536585364 33.28252032520325,29.166666666666664 33.23170731707317,29.67479674796748 33.18089430894309,30.03048780487805 33.079268292682926,30.38617886178862 33.02845528455285,30.48780487804878" fill="none" stroke="black" stroke-width="0.6"></polyline><polyline points="29.776422764227643,26.270325203252032 29.471544715447155,26.016260162601625 29.217479674796746,25.8130081300813 29.115853658536583,25.76219512195122 29.0650406504065,25.76219512195122 29.0650406504065,25.76219512195122 29.115853658536583,25.76219512195122 29.268292682926827,25.76219512195122 29.67479674796748,25.76219512195122 30.335365853658537,25.76219512195122 31.097560975609756,25.711382113821138 32.0630081300813,25.609756097560975 32.926829268292686,25.609756097560975 33.63821138211382,25.558943089430894 34.34959349593496,25.508130081300813 34.857723577235774,25.508130081300813 35.264227642276424,25.508130081300813 35.670731707317074,25.508130081300813 35.97560975609756,25.45731707317073 36.17886178861789,25.45731707317073 36.38211382113821,25.40650406504065 36.483739837398375,25.35569105691057 36.53455284552845,25.35569105691057 36.53455284552845,25.304878048780488 36.53455284552845,25.304878048780488 36.58536585365854,25.304878048780488 36.58536585365854,25.304878048780488 36.58536585365854,25.304878048780488" fill="none" stroke="black" stroke-width="0.6"></polyline><polyline points="50.8130081300813,23.678861788617887 50.8130081300813,23.475609756097562 50.8130081300813,23.221544715447155 50.8130081300813,23.01829268292683 50.762195121951216,22.815040650406505 50.762195121951216,22.71341463414634 50.71138211382114,22.560975609756095 50.66056910569105,22.459349593495933 50.55894308943089,22.40853658536585 50.45731707317073,22.35772357723577 50.30487804878049,22.30691056910569 50.15243902439024,22.256097560975608 49.89837398373984,22.256097560975608 49.59349593495935,22.256097560975608 49.23780487804878,22.35772357723577 48.83130081300813,22.459349593495933 48.42479674796748,22.662601626016258 48.06910569105691,22.865853658536587 47.8150406504065,23.01829268292683 47.61178861788618,23.221544715447155 47.510162601626014,23.3739837398374 47.459349593495936,23.577235772357724 47.459349593495936,23.83130081300813 47.459349593495936,24.13617886178862 47.5609756097561,24.441056910569106 47.8150406504065,24.796747967479675 48.11991869918699,25.152439024390244 48.6280487804878,25.508130081300813 49.23780487804878,25.914634146341463 49.796747967479675,26.270325203252032 50.40650406504065,26.57520325203252 51.016260162601625,26.880081300813007 51.422764227642276,27.134146341463413 51.72764227642276,27.33739837398374 51.93089430894309,27.591463414634145 51.981707317073166,27.84552845528455 51.981707317073166,28.099593495934958 51.829268292682926,28.353658536585364 51.575203252032516,28.55691056910569 51.21951219512195,28.709349593495933 50.762195121951216,28.861788617886177 50.30487804878049,28.96341463414634 49.796747967479675,29.01422764227642 49.28861788617886,29.0650406504065 48.83130081300813,29.0650406504065 48.3739837398374,29.01422764227642 48.01829268292683,28.912601626016258 47.764227642276424,28.861788617886177 47.61178861788618,28.760162601626014 47.459349593495936,28.709349593495933 47.459349593495936,28.709349593495933" fill="none" stroke="black" stroke-width="0.6"></polyline><polyline points="47.459349593495936,28.709349593495933 47.459349593495936,28.709349593495933" fill="none" stroke="black" stroke-width="0.6"></polyline><polyline points="63.21138211382114,23.882113821138212 63.262195121951216,23.882113821138212 63.262195121951216,23.882113821138212 63.262195121951216,23.882113821138212 63.262195121951216,23.932926829268293 63.3130081300813,24.13617886178862 63.41463414634146,24.54268292682927 63.516260162601625,25.101626016260163 63.668699186991866,25.86382113821138 63.77032520325203,26.676829268292682 63.87195121951219,27.33739837398374 63.922764227642276,27.693089430894307 63.922764227642276,27.947154471544714 63.97357723577235,28.506097560975608 63.97357723577235,28.861788617886177 63.922764227642276,29.115853658536583 63.87195121951219,29.268292682926827 63.87195121951219,29.268292682926827 63.82113821138211,29.268292682926827 63.77032520325203,29.166666666666664 63.668699186991866,28.912601626016258 63.61788617886179,28.55691056910569 63.516260162601625,28.099593495934958 63.46544715447154,27.540650406504064 63.46544715447154,26.98170731707317 63.46544715447154,26.371951219512194 63.668699186991866,25.711382113821138 64.02439024390243,25 64.58333333333333,24.288617886178862 65.29471544715447,23.678861788617887 66.15853658536585,23.170731707317074 66.92073170731707,22.916666666666668 67.53048780487805,22.815040650406505 68.03861788617886,22.815040650406505 68.34349593495935,22.815040650406505 68.4959349593496,22.96747967479675 68.4959349593496,23.170731707317074 68.4959349593496,23.42479674796748 68.34349593495935,23.729674796747968" fill="none" stroke="black" stroke-width="0.6"></polyline><polyline points="82.3170731707317,24.034552845528456 82.36788617886178,23.882113821138212 82.36788617886178,23.526422764227643 82.41869918699187,23.272357723577237 82.46951219512195,23.01829268292683 82.46951219512195,22.764227642276424 82.46951219512195,22.510162601626014 82.46951219512195,22.30691056910569 82.36788617886178,22.052845528455283 82.26626016260163,21.90040650406504 82.11382113821138,21.798780487804876 81.91056910569105,21.697154471544714 81.65650406504065,21.697154471544714 81.30081300813008,21.747967479674795 80.89430894308943,21.95121951219512 80.4369918699187,22.256097560975608 79.97967479674797,22.662601626016258 79.52235772357723,23.170731707317074 79.21747967479675,23.678861788617887 78.96341463414635,24.288617886178862 78.8109756097561,24.94918699186992 78.8109756097561,25.609756097560975 78.8109756097561,26.270325203252032 78.91260162601625,26.880081300813007 79.11585365853658,27.286585365853657 79.3191056910569,27.540650406504064 79.52235772357723,27.693089430894307 79.77642276422765,27.74390243902439 80.08130081300813,27.693089430894307 80.4369918699187,27.540650406504064 80.79268292682927,27.33739837398374 81.14837398373983,27.03252032520325 81.45325203252033,26.676829268292682 81.70731707317073,26.21951219512195 81.91056910569105,25.76219512195122 82.11382113821138,25.254065040650406 82.26626016260163,24.796747967479675 82.3170731707317,24.390243902439025 82.41869918699187,24.034552845528456 82.46951219512195,23.729674796747968 82.52032520325203,23.475609756097562 82.52032520325203,23.323170731707318 82.52032520325203,23.272357723577237 82.52032520325203,23.272357723577237 82.52032520325203,23.272357723577237 82.52032520325203,23.272357723577237 82.52032520325203,23.323170731707318 82.52032520325203,23.42479674796748 82.52032520325203,23.628048780487806 82.52032520325203,23.882113821138212 82.5711382113821,24.1869918699187" fill="none" stroke="black" stroke-width="0.6"></polyline><polyline points="82.5711382113821,24.1869918699187 82.5711382113821,24.59349593495935 82.5711382113821,25.05081300813008 82.6219512195122,25.558943089430894 82.72357723577235,26.321138211382113 82.77439024390243,27.184959349593495 82.8760162601626,28.099593495934958 82.97764227642276,29.166666666666664 83.02845528455285,30.284552845528456 83.07926829268293,31.351626016260163 83.07926829268293,32.418699186991866 83.07926829268293,33.53658536585366 83.07926829268293,34.451219512195124 83.02845528455285,35.36585365853659 82.97764227642276,36.17886178861789 82.97764227642276,36.6869918699187 82.97764227642276,37.19512195121951 82.97764227642276,37.60162601626016 82.97764227642276,37.95731707317073 82.92682926829268,38.21138211382114 82.92682926829268,38.36382113821138 82.92682926829268,38.46544715447154 82.8760162601626,38.46544715447154 82.8760162601626,38.46544715447154 82.8760162601626,38.46544715447154 82.8760162601626,38.46544715447154 82.8760162601626,38.36382113821138 82.8760162601626,38.109756097560975 83.02845528455285,37.7540650406504 83.28252032520325,37.24593495934959 83.63821138211382,36.73780487804878 84.14634146341463,36.229674796747965 84.70528455284553,35.670731707317074 85.26422764227642,35.3150406504065 85.77235772357723,35.0609756097561 86.17886178861788,34.90853658536585 86.3821138211382,34.90853658536585 86.48373983739837,34.90853658536585 86.53455284552845,34.90853658536585 86.53455284552845,34.90853658536585" fill="none" stroke="black" stroke-width="0.6"></polyline><polyline points="17.073170731707318,40.142276422764226 17.022357723577237,40.142276422764226 16.971544715447155,40.09146341463415 16.920731707317074,40.040650406504064 16.869918699186993,40.040650406504064 16.869918699186993,40.19308943089431 16.920731707317074,40.59959349593496 16.971544715447155,41.209349593495936 17.073170731707318,42.02235772357724 17.1239837398374,43.08943089430894 17.17479674796748,44.30894308943089 17.276422764227643,45.52845528455285 17.378048780487806,46.84959349593496 17.53048780487805,48.06910569105691 17.58130081300813,49.1869918699187 17.632113821138212,50.203252032520325 17.682926829268293,51.0670731707317 17.733739837398375,51.6260162601626 17.784552845528456,52.083333333333336 17.835365853658537,52.33739837398374 17.88617886178862,52.4390243902439 17.88617886178862,52.4390243902439 17.88617886178862,52.33739837398374 17.835365853658537,52.13414634146341 17.682926829268293,51.67682926829268 17.58130081300813,51.0670731707317 17.428861788617887,50.355691056910565 17.276422764227643,49.49186991869919 17.1239837398374,48.6280487804878 16.971544715447155,47.66260162601626 16.81910569105691,46.49390243902439 16.76829268292683,45.325203252032516 16.76829268292683,44.20731707317073 16.869918699186993,43.1910569105691 17.073170731707318,42.42886178861789 17.276422764227643,41.76829268292683 17.58130081300813,41.15853658536585 17.835365853658537,40.802845528455286 18.038617886178862,40.59959349593496 18.29268292682927,40.4979674796748 18.597560975609756,40.4979674796748 18.953252032520325,40.59959349593496 19.359756097560975,40.90447154471545 19.766260162601625,41.3109756097561 20.121951219512194,41.86991869918699 20.477642276422763,42.53048780487805 20.73170731707317,43.140243902439025 20.884146341463413,43.80081300813008 20.934959349593495,44.512195121951216 20.884146341463413,45.02032520325203 20.630081300813007,45.52845528455285" fill="none" stroke="black" stroke-width="0.6"></polyline><polyline points="20.630081300813007,45.52845528455285 20.223577235772357,46.03658536585366 19.817073170731707,46.44308943089431 19.308943089430894,46.798780487804876 18.69918699186992,47.0020325203252 18.191056910569106,47.103658536585364 17.682926829268293,47.103658536585364 17.17479674796748,47.0020325203252 16.76829268292683,46.798780487804876 16.463414634146343,46.646341463414636 16.260162601626014,46.49390243902439 16.15853658536585,46.34146341463415 16.15853658536585,46.239837398373986 16.36178861788618,46.08739837398374 16.76829268292683,45.833333333333336 17.073170731707318,45.68089430894309" fill="none" stroke="black" stroke-width="0.6"></polyline><polyline points="32.16463414634146,41.81910569105691 31.961382113821138,41.81910569105691 31.758130081300813,41.81910569105691 31.60569105691057,41.920731707317074 31.453252032520325,42.1239837398374 31.351626016260163,42.479674796747965 31.30081300813008,42.98780487804878 31.30081300813008,43.59756097560975 31.351626016260163,44.25813008130081 31.504065040650406,44.96951219512195 31.758130081300813,45.52845528455285 32.0630081300813,46.08739837398374 32.46951219512195,46.54471544715447 32.82520325203252,46.798780487804876 33.13008130081301,46.90040650406504 33.4349593495935,46.90040650406504 33.739837398373986,46.84959349593496 34.04471544715447,46.59552845528455 34.298780487804876,46.290650406504064 34.552845528455286,45.833333333333336 34.75609756097561,45.22357723577235 34.959349593495936,44.5630081300813 35.010162601626014,43.953252032520325 35.010162601626014,43.39430894308943 34.80691056910569,42.83536585365854 34.451219512195124,42.42886178861789 33.99390243902439,42.02235772357724 33.485772357723576,41.71747967479675 33.02845528455285,41.514227642276424 32.6219512195122,41.41260162601626 32.21544715447154,41.41260162601626 31.859756097560975,41.61585365853659 31.453252032520325,42.02235772357724 31.148373983739837,42.479674796747965 30.995934959349594,42.98780487804878 30.995934959349594,43.24186991869919" fill="none" stroke="black" stroke-width="0.6"></polyline><polyline points="47.916666666666664,41.41260162601626 47.916666666666664,41.3109756097561 47.86585365853659,41.260162601626014 47.8150406504065,41.209349593495936 47.8150406504065,41.209349593495936 47.8150406504065,41.209349593495936 47.8150406504065,41.41260162601626 47.86585365853659,41.81910569105691 47.916666666666664,42.3780487804878 47.96747967479675,43.140243902439025 48.01829268292683,44.05487804878049 48.06910569105691,45.07113821138211 48.06910569105691,46.03658536585366 48.06910569105691,46.7479674796748 48.06910569105691,47.25609756097561 48.06910569105691,47.61178861788618 48.06910569105691,47.8150406504065 48.06910569105691,47.86585365853659 48.06910569105691,47.86585365853659 48.06910569105691,47.8150406504065 48.01829268292683,47.61178861788618 48.01829268292683,47.20528455284553 48.01829268292683,46.7479674796748 48.06910569105691,46.1890243902439 48.22154471544715,45.47764227642276 48.3739837398374,44.71544715447154 48.67886178861789,43.85162601626016 49.136178861788615,42.886178861788615 49.64430894308943,42.17479674796748 50.203252032520325,41.81910569105691 50.66056910569105,41.666666666666664 51.0670731707317,41.71747967479675 51.47357723577235,41.97154471544715 51.93089430894309,42.3780487804878 52.38821138211382,42.98780487804878 52.79471544715447,43.75 53.201219512195124,44.5630081300813 53.50609756097561,45.325203252032516 53.709349593495936,45.985772357723576 53.91260162601626,46.59552845528455 54.014227642276424,47.052845528455286 54.11585365853659,47.5609756097561 54.21747967479675,47.96747967479675 54.31910569105691,48.323170731707314 54.36991869918699,48.47560975609756" fill="none" stroke="black" stroke-width="0.6"></polyline><polyline points="62.14430894308943,42.63211382113821 62.042682926829265,42.63211382113821 61.9410569105691,42.63211382113821 61.890243902439025,42.68292682926829 61.83943089430894,42.9369918699187 61.78861788617886,43.39430894308943 61.78861788617886,44.15650406504065 61.78861788617886,44.86788617886179 61.78861788617886,45.63008130081301 61.83943089430894,46.34146341463415 61.890243902439025,46.798780487804876 61.9410569105691,47.103658536585364 61.99186991869919,47.30691056910569 61.99186991869919,47.357723577235774 62.042682926829265,47.357723577235774 62.042682926829265,47.357723577235774 62.042682926829265,47.25609756097561 62.042682926829265,46.951219512195124 62.09349593495935,46.54471544715447 62.14430894308943,45.985772357723576 62.24593495934959,45.325203252032516 62.39837398373984,44.5630081300813 62.60162601626016,43.85162601626016 62.90650406504065,43.24186991869919 63.262195121951216,42.78455284552845 63.5670731707317,42.63211382113821 63.87195121951219,42.68292682926829 64.17682926829268,42.886178861788615 64.43089430894308,43.292682926829265 64.73577235772358,43.75 64.98983739837398,44.25813008130081 65.1930894308943,44.766260162601625 65.39634146341463,45.22357723577235 65.4979674796748,45.63008130081301 65.59959349593495,45.9349593495935 65.65040650406505,46.08739837398374 65.70121951219512,46.1890243902439 65.70121951219512,46.1890243902439 65.7520325203252,46.13821138211382 65.85365853658537,45.985772357723576 65.95528455284553,45.73170731707317 66.0569105691057,45.52845528455285 66.10772357723577,45.22357723577235 66.41260162601625,44.61382113821138 66.71747967479675,43.90243902439024 67.22560975609755,42.98780487804878 67.83536585365853,42.27642276422764 68.54674796747967,41.76829268292683 69.2581300813008,41.61585365853659 69.71544715447155,41.76829268292683 70.1219512195122,42.17479674796748" fill="none" stroke="black" stroke-width="0.6"></polyline><polyline points="70.1219512195122,42.17479674796748 70.57926829268293,42.78455284552845 70.8841463414634,43.44512195121951 71.1890243902439,44.20731707317073 71.49390243902438,44.96951219512195 71.59552845528455,45.63008130081301 71.69715447154472,46.290650406504064 71.7479674796748,46.90040650406504 71.7479674796748,47.30691056910569" fill="none" stroke="black" stroke-width="0.6"></polyline><polyline points="78.35365853658537,37.24593495934959 78.35365853658537,37.24593495934959 78.35365853658537,37.296747967479675 78.35365853658537,37.39837398373984 78.35365853658537,37.7540650406504 78.35365853658537,38.61788617886179 78.35365853658537,39.22764227642276 78.40447154471545,39.88821138211382 78.45528455284553,41.260162601626014 78.5060975609756,42.53048780487805 78.5060975609756,43.699186991869915 78.5569105691057,44.71544715447154 78.5569105691057,45.63008130081301 78.5569105691057,46.34146341463415 78.5569105691057,46.90040650406504 78.5569105691057,47.25609756097561 78.5569105691057,47.510162601626014 78.5569105691057,47.61178861788618 78.5060975609756,47.66260162601626 78.45528455284553,47.459349593495936" fill="none" stroke="black" stroke-width="0.6"></polyline><polyline points="16.76829268292683,53.65853658536585 16.666666666666668,53.607723577235774 16.463414634146343,53.50609756097561 16.3109756097561,53.45528455284553 16.260162601626014,53.50609756097561 16.209349593495933,53.760162601626014 16.10772357723577,54.31910569105691 16.006097560975608,55.03048780487805 15.955284552845528,55.94512195121951 15.802845528455284,57.11382113821138 15.701219512195122,58.33333333333333 15.59959349593496,59.451219512195124 15.59959349593496,60.46747967479675 15.548780487804878,61.43292682926829 15.548780487804878,62.19512195121951 15.59959349593496,62.80487804878049 15.65040650406504,63.36382113821138 15.752032520325203,63.71951219512195 15.802845528455284,63.922764227642276 15.853658536585366,63.97357723577235" fill="none" stroke="black" stroke-width="0.6"></polyline><polyline points="14.83739837398374,59.146341463414636 14.83739837398374,59.09552845528455 14.735772357723578,58.892276422764226 14.684959349593496,58.739837398373986 14.684959349593496,58.536585365853654 14.786585365853659,58.33333333333333 15.040650406504065,58.079268292682926 15.497967479674797,57.72357723577235 16.10772357723577,57.21544715447154 16.869918699186993,56.605691056910565 17.632113821138212,55.99593495934959 18.39430894308943,55.386178861788615 19.054878048780488,54.979674796747965 19.61382113821138,54.67479674796748 20.020325203252032,54.47154471544715 20.426829268292682,54.26829268292683 20.73170731707317,54.11585365853659" fill="none" stroke="black" stroke-width="0.6"></polyline><polyline points="15.752032520325203,58.079268292682926 15.752032520325203,58.079268292682926 15.752032520325203,58.079268292682926 15.752032520325203,58.079268292682926 15.853658536585366,58.18089430894309 16.209349593495933,58.38414634146341 16.81910569105691,58.790650406504064 17.682926829268293,59.34959349593496 18.546747967479675,59.959349593495936 19.359756097560975,60.51829268292683 19.91869918699187,60.92479674796748 20.426829268292682,61.38211382113821 20.934959349593495,61.83943089430894 21.341463414634145,62.19512195121951 21.697154471544714,62.55081300813008 22.0020325203252,62.90650406504065 22.205284552845526,63.16056910569105 22.256097560975608,63.21138211382114" fill="none" stroke="black" stroke-width="0.6"></polyline><polyline points="32.57113821138211,58.33333333333333 32.52032520325203,58.231707317073166 32.418699186991866,58.079268292682926 32.266260162601625,57.92682926829268 32.16463414634146,57.8760162601626 32.11382113821138,57.825203252032516 32.11382113821138,57.825203252032516 32.11382113821138,57.97764227642276 32.21544715447154,58.28252032520325 32.36788617886179,58.790650406504064 32.57113821138211,59.40040650406504 32.8760162601626,60.11178861788618 33.28252032520325,61.1280487804878 33.6890243902439,62.19512195121951 34.146341463414636,63.46544715447154 34.552845528455286,64.6849593495935 34.80691056910569,65.80284552845528 34.90853658536585,66.76829268292683 34.959349593495936,67.6321138211382 34.959349593495936,68.34349593495935 34.857723577235774,68.85162601626016 34.75609756097561,69.20731707317073 34.552845528455286,69.46138211382113 34.34959349593496,69.66463414634146 34.146341463414636,69.71544715447155 33.892276422764226,69.71544715447155 33.485772357723576,69.71544715447155 32.926829268292686,69.5630081300813 32.36788617886179,69.3089430894309 31.758130081300813,68.95325203252033 31.19918699186992,68.54674796747967 30.84349593495935,68.08943089430895 30.538617886178862,67.53048780487805 30.38617886178862,67.1239837398374" fill="none" stroke="black" stroke-width="0.6"></polyline><polyline points="30.538617886178862,56.453252032520325 30.48780487804878,55.792682926829265 30.4369918699187,55.33536585365854 30.335365853658537,55.18292682926829 30.335365853658537,55.18292682926829 30.284552845528456,55.18292682926829 30.284552845528456,55.18292682926829 30.284552845528456,55.28455284552845 30.284552845528456,55.48780487804878" fill="none" stroke="black" stroke-width="0.6"></polyline><polyline points="47.61178861788618,57.825203252032516 47.61178861788618,57.825203252032516 47.61178861788618,57.77439024390244 47.5609756097561,57.77439024390244 47.5609756097561,57.72357723577235 47.510162601626014,57.672764227642276 47.510162601626014,57.672764227642276 47.510162601626014,57.825203252032516 47.510162601626014,58.18089430894309 47.5609756097561,58.739837398373986 47.66260162601626,59.451219512195124 47.8150406504065,60.3150406504065 47.916666666666664,61.17886178861789 48.06910569105691,62.042682926829265 48.170731707317074,62.7540650406504 48.27235772357724,63.262195121951216 48.3739837398374,63.71951219512195 48.47560975609756,64.02439024390243 48.52642276422764,64.17682926829268 48.6280487804878,64.22764227642276 48.67886178861789,64.22764227642276 48.67886178861789,64.1260162601626" fill="none" stroke="black" stroke-width="0.6"></polyline><polyline points="47.71341463414634,54.166666666666664 47.5609756097561,53.760162601626014 47.30691056910569,53.353658536585364 47.15447154471545,53.201219512195124 47.15447154471545,53.201219512195124 47.15447154471545,53.201219512195124 47.103658536585364,53.2520325203252 47.103658536585364,53.2520325203252 47.103658536585364,53.302845528455286 47.103658536585364,53.45528455284553 47.103658536585364,53.55691056910569" fill="none" stroke="black" stroke-width="0.6"></polyline><polyline points="64.58333333333333,51.168699186991866 64.58333333333333,51.168699186991866 64.53252032520325,51.11788617886179 64.48170731707317,51.11788617886179 64.48170731707317,51.168699186991866 64.48170731707317,51.47357723577235 64.48170731707317,52.13414634146341 64.43089430894308,53.048780487804876 64.380081300813,54.26829268292683 64.27845528455285,55.58943089430894 64.17682926829268,56.96138211382114 64.1260162601626,58.28252032520325 64.07520325203252,59.552845528455286 64.02439024390243,60.670731707317074 63.97357723577235,61.636178861788615 63.97357723577235,62.296747967479675 63.97357723577235,62.80487804878049 63.97357723577235,63.16056910569105 64.02439024390243,63.36382113821138 64.07520325203252,63.46544715447154 64.07520325203252,63.46544715447154 64.07520325203252,63.46544715447154 64.07520325203252,63.41463414634146 64.07520325203252,63.3130081300813 64.1260162601626,63.05894308943089 64.22764227642276,62.55081300813008 64.380081300813,61.9410569105691 64.6341463414634,61.229674796747965 64.9390243902439,60.416666666666664 65.2439024390244,59.80691056910569 65.65040650406505,59.2479674796748 66.15853658536585,58.739837398373986 66.5650406504065,58.536585365853654 66.92073170731707,58.485772357723576 67.27642276422765,58.536585365853654 67.6321138211382,58.790650406504064 67.98780487804878,59.197154471544714 68.39430894308943,59.70528455284553 68.75,60.3150406504065 69.10569105691057,61.02642276422764 69.41056910569105,61.78861788617886 69.61382113821138,62.39837398373984 69.71544715447155,62.90650406504065 69.8170731707317,63.41463414634146 69.86788617886178,63.82113821138211 69.86788617886178,64.17682926829268 69.91869918699187,64.48170731707317 69.91869918699187,64.6849593495935 69.91869918699187,64.73577235772358 69.91869918699187,64.73577235772358" fill="none" stroke="black" stroke-width="0.6"></polyline><polyline points="83.73983739837398,58.38414634146341 83.73983739837398,58.28252032520325 83.73983739837398,58.02845528455284 83.63821138211382,57.77439024390244 83.58739837398373,57.57113821138211 83.58739837398373,57.3170731707317 83.53658536585365,57.11382113821138 83.48577235772358,56.91056910569105 83.3841463414634,56.65650406504065 83.23170731707317,56.453252032520325 83.02845528455285,56.199186991869915 82.82520325203252,55.99593495934959 82.5711382113821,55.89430894308943 82.3170731707317,55.84349593495935 82.11382113821138,55.84349593495935 81.85975609756098,55.94512195121951 81.60569105691057,56.199186991869915 81.40243902439025,56.605691056910565 81.25,57.11382113821138 81.14837398373983,57.72357723577235 81.14837398373983,58.33333333333333 81.19918699186992,58.99390243902439 81.35162601626016,59.65447154471545 81.55487804878048,60.0609756097561 81.8089430894309,60.36585365853659 82.11382113821138,60.56910569105691 82.36788617886178,60.61991869918699 82.6219512195122,60.61991869918699 82.92682926829268,60.46747967479675 83.23170731707317,60.21341463414634 83.48577235772358,59.857723577235774 83.79065040650406,59.40040650406504 83.99390243902438,58.99390243902439 84.14634146341463,58.58739837398374 84.1971544715447,58.18089430894309 84.1971544715447,57.92682926829268 84.14634146341463,57.672764227642276 84.09552845528455,57.57113821138211 84.04471544715447,57.57113821138211 83.99390243902438,57.57113821138211 83.99390243902438,57.672764227642276 83.99390243902438,58.02845528455284 83.99390243902438,58.6890243902439 84.04471544715447,59.603658536585364 84.1971544715447,60.77235772357724 84.40040650406503,62.296747967479675 84.60365853658537,64.02439024390243 84.7560975609756,65.70121951219512 84.8069105691057,67.22560975609755 84.7560975609756,68.4451219512195 84.60365853658537,69.2581300813008" fill="none" stroke="black" stroke-width="0.6"></polyline><polyline points="84.60365853658537,69.2581300813008 84.40040650406503,70.0711382113821 84.14634146341463,70.78252032520325 83.73983739837398,71.4430894308943 83.33333333333333,71.95121951219512 82.8760162601626,72.3069105691057 82.3170731707317,72.45934959349593 81.7581300813008,72.51016260162602 81.25,72.45934959349593 80.6910569105691,72.2560975609756 80.08130081300813,71.90040650406505 79.47154471544715,71.4430894308943 78.96341463414635,71.08739837398373 78.60772357723577,70.83333333333333 78.35365853658537,70.57926829268293 78.15040650406505,70.42682926829268 78.04878048780488,70.27439024390243 77.9471544715447,70.0711382113821 77.9471544715447,69.96951219512195" fill="none" stroke="black" stroke-width="0.6"></polyline><polyline points="18.241869918699187,72.3069105691057 18.140243902439025,72.15447154471545 17.98780487804878,72.05284552845528 17.835365853658537,71.90040650406505 17.733739837398375,71.7479674796748 17.682926829268293,71.59552845528455 17.632113821138212,71.39227642276423 17.58130081300813,71.13821138211382 17.53048780487805,70.83333333333333 17.479674796747968,70.57926829268293 17.378048780487806,70.22357723577235 17.276422764227643,69.91869918699187 17.1239837398374,69.61382113821138 16.971544715447155,69.3089430894309 16.71747967479675,69.15650406504065 16.463414634146343,69.05487804878048 16.10772357723577,69.05487804878048 15.802845528455284,69.10569105691057 15.497967479674797,69.35975609756098 15.19308943089431,69.76626016260163 14.939024390243903,70.32520325203252 14.684959349593496,71.03658536585365 14.53252032520325,72.0020325203252 14.48170731707317,73.01829268292683 14.48170731707317,74.23780487804878 14.53252032520325,75.60975609756098 14.634146341463413,76.82926829268293 14.786585365853659,77.9979674796748 14.939024390243903,79.11585365853658 15.040650406504065,79.92886178861788 15.19308943089431,80.64024390243902 15.294715447154472,81.25 15.396341463414634,81.70731707317073 15.548780487804878,82.0630081300813 15.65040650406504,82.3170731707317 15.752032520325203,82.41869918699187 15.853658536585366,82.41869918699187 15.904471544715447,82.41869918699187 16.006097560975608,82.21544715447155 16.006097560975608,81.8089430894309" fill="none" stroke="black" stroke-width="0.6"></polyline><polyline points="13.160569105691057,75.91463414634146 13.109756097560975,75.91463414634146 12.957317073170731,75.96544715447155 12.855691056910569,75.96544715447155 12.804878048780488,75.96544715447155 12.804878048780488,75.96544715447155 13.008130081300813,75.96544715447155 13.363821138211382,75.96544715447155 13.922764227642276,75.91463414634146 14.634146341463413,75.86382113821138 15.497967479674797,75.76219512195122 16.3109756097561,75.66056910569105 17.073170731707318,75.5589430894309 17.835365853658537,75.5081300813008 18.445121951219512,75.45731707317073 19.004065040650406,75.45731707317073 19.51219512195122,75.40650406504065 19.91869918699187,75.35569105691057 20.121951219512194,75.35569105691057" fill="none" stroke="black" stroke-width="0.6"></polyline><polyline points="30.79268292682927,77.89634146341463 30.79268292682927,77.89634146341463 30.691056910569106,77.89634146341463 30.640243902439025,77.89634146341463 30.589430894308943,77.89634146341463 30.589430894308943,77.89634146341463 30.640243902439025,77.9471544715447 30.84349593495935,77.9979674796748 31.19918699186992,77.9979674796748 31.65650406504065,77.9979674796748 32.16463414634146,77.84552845528455 32.72357723577236,77.64227642276423 33.333333333333336,77.28658536585365 33.84146341463415,76.93089430894308 34.2479674796748,76.47357723577235 34.65447154471545,75.91463414634146 34.857723577235774,75.5081300813008 34.959349593495936,75.10162601626016 35.010162601626014,74.79674796747967 35.010162601626014,74.64430894308943 34.90853658536585,74.49186991869918 34.80691056910569,74.33943089430895 34.65447154471545,74.23780487804878 34.5020325203252,74.13617886178862 34.298780487804876,74.08536585365853 34.09552845528455,74.08536585365853 33.892276422764226,74.08536585365853 33.63821138211382,74.1869918699187 33.333333333333336,74.39024390243902 32.97764227642276,74.7459349593496 32.6219512195122,75.2540650406504 32.36788617886179,75.8130081300813 32.0630081300813,76.47357723577235 31.808943089430894,77.23577235772358 31.70731707317073,77.9979674796748 31.60569105691057,78.65853658536585 31.60569105691057,79.369918699187 31.60569105691057,79.8780487804878 31.70731707317073,80.33536585365853 31.808943089430894,80.53861788617886 32.16463414634146,80.9959349593496 32.3170731707317,81.14837398373983 32.46951219512195,81.19918699186992 32.8760162601626,81.35162601626016 33.333333333333336,81.35162601626016 33.892276422764226,81.25 34.5020325203252,80.9959349593496 35.11178861788618,80.64024390243902 35.72154471544715,80.1829268292683 36.28048780487805,79.67479674796748 36.73780487804878,79.26829268292683" fill="none" stroke="black" stroke-width="0.6"></polyline><polyline points="36.73780487804878,79.26829268292683 37.14430894308943,78.8109756097561 37.39837398373984,78.40447154471545 37.55081300813008,78.15040650406505 37.60162601626016,77.9979674796748 37.60162601626016,77.84552845528455 37.60162601626016,77.74390243902438 37.60162601626016,77.64227642276423 37.60162601626016,77.54065040650406 37.60162601626016,77.48983739837398 37.60162601626016,77.38821138211382 37.55081300813008,77.33739837398373 37.5,77.28658536585365" fill="none" stroke="black" stroke-width="0.6"></polyline><polyline points="50.50813008130081,69.20731707317073 50.50813008130081,69.15650406504065 50.45731707317073,69.10569105691057 50.40650406504065,69.05487804878048 50.40650406504065,69.0040650406504 50.40650406504065,69.0040650406504 50.40650406504065,69.0040650406504 50.40650406504065,69.10569105691057 50.45731707317073,69.41056910569105 50.609756097560975,69.8170731707317 50.8130081300813,70.47764227642276 51.0670731707317,71.34146341463415 51.21951219512195,71.95121951219512 51.32113821138211,72.61178861788618 51.6260162601626,74.23780487804878 51.829268292682926,75.66056910569105 52.03252032520325,77.03252032520325 52.13414634146341,78.30284552845528 52.1849593495935,79.3191056910569 52.235772357723576,80.08130081300813 52.28658536585366,80.74186991869918 52.33739837398374,80.9959349593496 52.33739837398374,81.14837398373983 52.38821138211382,81.14837398373983 52.38821138211382,81.14837398373983 52.33739837398374,80.9959349593496 52.1849593495935,80.6910569105691 52.13414634146341,80.4369918699187 52.03252032520325,80.1829268292683 51.829268292682926,79.6239837398374 51.6260162601626,79.01422764227642 51.422764227642276,78.40447154471545 51.21951219512195,77.6930894308943 51.016260162601625,77.03252032520325 50.86382113821138,76.3719512195122 50.71138211382114,75.8130081300813 50.55894308943089,75.30487804878048 50.355691056910565,75.05081300813008 50.203252032520325,74.84756097560975 50,74.7459349593496 49.796747967479675,74.6951219512195 49.59349593495935,74.6951219512195 49.390243902439025,74.7459349593496 49.1869918699187,74.89837398373983 48.983739837398375,75.20325203252033 48.78048780487805,75.5589430894309 48.6280487804878,76.0670731707317 48.577235772357724,76.67682926829268 48.52642276422764,77.33739837398373 48.6280487804878,78.04878048780488 48.729674796747965,78.40447154471545" fill="none" stroke="black" stroke-width="0.6"></polyline><polyline points="48.729674796747965,78.40447154471545 48.83130081300813,78.8109756097561 49.136178861788615,79.57317073170732 49.33943089430894,79.92886178861788 49.542682926829265,80.23373983739837 50,80.84349593495935 50.55894308943089,81.30081300813008 51.168699186991866,81.45325203252033 51.77845528455284,81.5040650406504 52.4390243902439,81.45325203252033 53.048780487804876,81.14837398373983 53.65853658536585,80.64024390243902 54.166666666666664,80.08130081300813 54.6239837398374,79.47154471544715 55.03048780487805,78.86178861788618" fill="none" stroke="black" stroke-width="0.6"></polyline><polyline points="67.22560975609755,75.2540650406504 67.17479674796748,75.2540650406504 67.07317073170732,75.10162601626016 66.97154471544715,75 66.92073170731707,74.84756097560975 66.869918699187,74.6951219512195 66.8191056910569,74.54268292682927 66.76829268292683,74.39024390243902 66.71747967479675,74.13617886178862 66.66666666666667,73.9329268292683 66.5650406504065,73.67886178861788 66.51422764227642,73.47560975609755 66.36178861788618,73.32317073170732 66.20934959349593,73.27235772357723 65.95528455284553,73.27235772357723 65.65040650406505,73.32317073170732 65.34552845528455,73.52642276422765 64.88821138211382,73.8821138211382 64.53252032520325,74.33943089430895 64.27845528455285,74.89837398373983 64.07520325203252,75.66056910569105 64.02439024390243,76.57520325203252 64.17682926829268,77.64227642276423 64.53252032520325,78.8109756097561 64.98983739837398,79.57317073170732 65.44715447154472,80.1321138211382 65.95528455284553,80.53861788617886 66.5650406504065,80.74186991869918 67.22560975609755,80.79268292682927 67.98780487804878,80.74186991869918 68.64837398373983,80.53861788617886 69.2581300813008,80.33536585365853 69.91869918699187,79.97967479674797 70.42682926829268,79.47154471544715 70.98577235772358,78.8109756097561" fill="none" stroke="black" stroke-width="0.6"></polyline><polyline points="77.84552845528455,70.32520325203252 77.6930894308943,70.22357723577235 77.59146341463415,70.0711382113821 77.4390243902439,69.96951219512195 77.38821138211382,69.91869918699187 77.38821138211382,69.91869918699187 77.38821138211382,69.96951219512195 77.4390243902439,70.22357723577235 77.59146341463415,70.78252032520325 77.79471544715447,71.64634146341463 77.9979674796748,72.61178861788618 78.20121951219512,73.83130081300813 78.40447154471545,75.10162601626016 78.45528455284553,76.16869918699187 78.45528455284553,77.08333333333333 78.40447154471545,77.74390243902438 78.35365853658537,78.20121951219512 78.35365853658537,78.45528455284553 78.30284552845528,78.5569105691057 78.30284552845528,78.5569105691057 78.30284552845528,78.5060975609756 78.30284552845528,78.5060975609756 78.30284552845528,78.40447154471545 78.30284552845528,78.20121951219512 78.2520325203252,77.84552845528455 78.20121951219512,77.23577235772358 78.15040650406505,76.47357723577235 78.20121951219512,75.71138211382113 78.30284552845528,75.10162601626016 78.40447154471545,74.84756097560975 78.5569105691057,74.64430894308943 78.96341463414635,74.39024390243902 79.52235772357723,74.4410569105691 80.1829268292683,74.79674796747967 80.84349593495935,75.35569105691057 81.40243902439025,76.0670731707317 81.85975609756098,76.77845528455285 82.16463414634146,77.48983739837398 82.26626016260163,78.09959349593495 82.3170731707317,78.65853658536585 82.21544715447155,79.21747967479675 81.96138211382113,79.57317073170732 81.60569105691057,79.92886178861788 81.09756097560975,80.1829268292683 80.48780487804878,80.28455284552845 79.77642276422765,80.33536585365853 78.96341463414635,80.08130081300813 78.04878048780488,79.67479674796748 77.1849593495935,79.21747967479675 76.57520325203252,78.86178861788618 76.16869918699187,78.60772357723577" fill="none" stroke="black" stroke-width="0.6"></polyline><polyline points="76.16869918699187,78.60772357723577 75.8130081300813,78.35365853658537 75.5589430894309,78.15040650406505 75.2540650406504,77.84552845528455 74.89837398373983,77.4390243902439" fill="none" stroke="black" stroke-width="0.6"></polyline><polyline points="18.953252032520325,91.8191056910569 18.851626016260163,91.92073170731707 18.75,91.92073170731707 18.597560975609756,91.97154471544715 18.495934959349594,91.97154471544715 18.445121951219512,91.97154471544715 18.34349593495935,91.92073170731707 18.241869918699187,91.76829268292683 18.140243902439025,91.5650406504065 17.98780487804878,91.20934959349593 17.835365853658537,90.80284552845528 17.632113821138212,90.39634146341463 17.378048780487806,89.9390243902439 17.1239837398374,89.6849593495935 16.81910569105691,89.53252032520325 16.41260162601626,89.48170731707317 16.006097560975608,89.6341463414634 15.548780487804878,90.04065040650406 15.040650406504065,90.59959349593495 14.735772357723578,91.3109756097561 14.53252032520325,92.17479674796748 14.430894308943088,93.14024390243902 14.430894308943088,93.95325203252033 14.583333333333332,94.71544715447155 14.786585365853659,95.42682926829268 14.989837398373984,95.9349593495935 15.24390243902439,96.1890243902439 15.447154471544716,96.34146341463415 15.65040650406504,96.34146341463415 15.904471544715447,96.29065040650406 16.15853658536585,96.08739837398373 16.463414634146343,95.73170731707317 16.76829268292683,95.27439024390243 17.073170731707318,94.66463414634146 17.327235772357724,94.0040650406504 17.58130081300813,93.29268292682927 17.784552845528456,92.53048780487805 17.9369918699187,91.8191056910569 18.089430894308943,91.26016260162602 18.191056910569106,90.80284552845528 18.29268292682927,90.54878048780488 18.39430894308943,90.4471544715447 18.495934959349594,90.4471544715447 18.597560975609756,90.4979674796748 18.80081300813008,90.70121951219512 19.10569105691057,91.15853658536585 19.461382113821138,91.8191056910569 19.817073170731707,92.6321138211382 20.121951219512194,93.4451219512195 20.3760162601626,94.2581300813008 20.579268292682926,94.96951219512195" fill="none" stroke="black" stroke-width="0.6"></polyline><polyline points="20.579268292682926,94.96951219512195 20.73170731707317,95.52845528455285 20.884146341463413,95.83333333333333 21.08739837398374,95.98577235772358 21.239837398373982,95.98577235772358" fill="none" stroke="black" stroke-width="0.6"></polyline></svg>