<svg height="100" width="100" preserveAspectRatio="xMidYMid meet"><polyline points="16.15853658536585,16.81910569105691 16.15853658536585,16.76829268292683 16.10772357723577,16.76829268292683 16.10772357723577,16.71747967479675 16.10772357723577,16.666666666666668 16.10772357723577,16.666666666666668 16.10772357723577,16.666666666666668 16.10772357723577,16.666666666666668 16.10772357723577,16.615853658536587 16.10772357723577,16.615853658536587 16.10772357723577,16.615853658536587 16.10772357723577,16.615853658536587 16.10772357723577,16.615853658536587 16.10772357723577,16.615853658536587 16.10772357723577,16.615853658536587 16.10772357723577,16.615853658536587 16.10772357723577,16.565040650406505 16.10772357723577,16.565040650406505 16.10772357723577,16.565040650406505 16.10772357723577,16.514227642276424 16.15853658536585,16.514227642276424 16.209349593495933,16.463414634146343 16.260162601626014,16.41260162601626 16.3109756097561,16.3109756097561 16.41260162601626,16.260162601626014 16.565040650406505,16.10772357723577 16.76829268292683,16.006097560975608 16.971544715447155,15.802845528455284 17.17479674796748,15.59959349593496 17.428861788617887,15.396341463414634 17.682926829268293,15.142276422764228 17.9369918699187,14.888211382113822 18.140243902439025,14.583333333333332 18.39430894308943,14.278455284552845 18.648373983739837,13.973577235772357 18.902439024390244,13.66869918699187 19.20731707317073,13.363821138211382 19.51219512195122,12.957317073170731 19.817073170731707,12.550813008130081 20.172764227642276,12.042682926829269 20.426829268292682,11.6869918699187 20.73170731707317,11.280487804878048 21.036585365853657,10.873983739837398 21.290650406504064,10.467479674796747 21.54471544715447,10.010162601626016 21.798780487804876,9.603658536585366 22.0020325203252,9.247967479674797 22.205284552845526,8.892276422764228 22.40853658536585,8.434959349593496 22.560975609756095,8.028455284552845 22.71341463414634,7.571138211382114" fill="none" stroke="black" stroke-width="0.6"></polyline><polyline points="22.71341463414634,7.571138211382114 22.865853658536587,7.164634146341463 22.96747967479675,6.808943089430894 23.06910569105691,6.453252032520325 23.06910569105691,6.097560975609756 23.119918699186993,5.741869918699187 23.119918699186993,5.335365853658536 23.06910569105691,4.979674796747967 23.01829268292683,4.725609756097561 22.916666666666668,4.420731707317073 22.865853658536587,4.217479674796748 22.764227642276424,4.014227642276422 22.662601626016258,3.8109756097560976 22.560975609756095,3.6585365853658534 22.459349593495933,3.5060975609756095 22.35772357723577,3.404471544715447 22.256097560975608,3.3028455284552845 22.154471544715445,3.252032520325203 22.052845528455283,3.201219512195122 21.95121951219512,3.201219512195122 21.849593495934958,3.201219512195122 21.697154471544714,3.252032520325203 21.54471544715447,3.3536585365853657 21.392276422764226,3.4552845528455283 21.1890243902439,3.6585365853658534 20.985772357723576,3.861788617886179 20.78252032520325,4.166666666666667 20.579268292682926,4.471544715447155 20.3760162601626,4.725609756097561 20.223577235772357,5.030487804878049 20.020325203252032,5.3861788617886175 19.867886178861788,5.691056910569106 19.715447154471544,6.046747967479675 19.5630081300813,6.402439024390244 19.51219512195122,6.758130081300813 19.410569105691057,7.0630081300813 19.359756097560975,7.367886178861789 19.308943089430894,7.621951219512195 19.20731707317073,7.926829268292683 19.15650406504065,8.231707317073171 19.054878048780488,8.58739837398374 19.004065040650406,8.94308943089431 18.953252032520325,9.298780487804878 18.902439024390244,9.552845528455284 18.851626016260163,9.908536585365853 18.80081300813008,10.315040650406504 18.80081300813008,10.721544715447154 18.75,11.077235772357723 18.75,11.432926829268293 18.75,11.737804878048781 18.69918699186992,12.042682926829269" fill="none" stroke="black" stroke-width="0.6"></polyline><polyline points="18.69918699186992,12.042682926829269 18.69918699186992,12.398373983739837 18.69918699186992,12.703252032520325 18.69918699186992,13.008130081300813 18.69918699186992,13.3130081300813 18.69918699186992,13.567073170731707 18.69918699186992,13.821138211382113 18.75,14.024390243902438 18.80081300813008,14.176829268292682 18.851626016260163,14.380081300813007 18.851626016260163,14.53252032520325 18.953252032520325,14.684959349593496 19.004065040650406,14.786585365853659 19.054878048780488,14.939024390243903 19.15650406504065,15.091463414634147 19.20731707317073,15.24390243902439 19.308943089430894,15.345528455284553 19.410569105691057,15.497967479674797 19.51219512195122,15.59959349593496 19.664634146341463,15.752032520325203 19.817073170731707,15.853658536585366 19.96951219512195,16.006097560975608 20.121951219512194,16.10772357723577 20.223577235772357,16.15853658536585 20.426829268292682,16.260162601626014 20.579268292682926,16.3109756097561 20.73170731707317,16.36178861788618 20.934959349593495,16.41260162601626 21.08739837398374,16.463414634146343 21.239837398373982,16.463414634146343 21.443089430894307,16.463414634146343 21.646341463414632,16.463414634146343 21.798780487804876,16.463414634146343 22.052845528455283,16.41260162601626 22.256097560975608,16.36178861788618 22.510162601626014,16.260162601626014 22.764227642276424,16.15853658536585 23.01829268292683,16.006097560975608 23.323170731707318,15.853658536585366 23.628048780487806,15.701219512195122 23.932926829268293,15.497967479674797 24.288617886178862,15.24390243902439 24.64430894308943,14.989837398373984 24.94918699186992,14.684959349593496 25.304878048780488,14.430894308943088 25.609756097560975,14.1260162601626 25.914634146341463,13.821138211382113 26.270325203252032,13.567073170731707 26.676829268292682,13.211382113821138 27.134146341463413,12.804878048780488 27.591463414634145,12.296747967479675" fill="none" stroke="black" stroke-width="0.6"></polyline><polyline points="27.591463414634145,12.296747967479675 28.099593495934958,11.839430894308943 28.2520325203252,11.636178861788618 28.455284552845526,11.432926829268293 28.861788617886177,11.026422764227641 29.217479674796746,10.56910569105691 29.573170731707318,10.111788617886178 29.928861788617887,9.603658536585366 30.284552845528456,9.146341463414634 30.48780487804878,8.790650406504065 30.691056910569106,8.384146341463415 30.89430894308943,7.926829268292683 31.097560975609756,7.520325203252033 31.25,7.113821138211382 31.453252032520325,6.7073170731707314 31.60569105691057,6.300813008130081 31.70731707317073,5.894308943089431 31.808943089430894,5.436991869918699 31.859756097560975,5.132113821138211 31.859756097560975,4.776422764227642 31.859756097560975,4.420731707317073 31.859756097560975,4.0650406504065035 31.859756097560975,3.6585365853658534 31.808943089430894,3.3028455284552845 31.70731707317073,2.997967479674797 31.65650406504065,2.6930894308943087 31.554878048780488,2.388211382113821 31.402439024390244,2.184959349593496 31.30081300813008,1.9308943089430894 31.148373983739837,1.7276422764227641 30.995934959349594,1.6260162601626016 30.84349593495935,1.524390243902439 30.640243902439025,1.4227642276422765 30.48780487804878,1.4227642276422765 30.284552845528456,1.4227642276422765 30.03048780487805,1.4735772357723578 29.827235772357724,1.6260162601626016 29.573170731707318,1.7784552845528454 29.31910569105691,2.0325203252032518 29.01422764227642,2.2865853658536586 28.709349593495933,2.6422764227642275 28.353658536585364,2.9471544715447155 28.099593495934958,3.3028455284552845 27.79471544715447,3.6585365853658534 27.489837398373982,4.0650406504065035 27.286585365853657,4.522357723577236 27.083333333333332,4.979674796747967 26.880081300813007,5.436991869918699 26.727642276422763,5.894308943089431 26.57520325203252,6.453252032520325 26.473577235772357,6.961382113821138" fill="none" stroke="black" stroke-width="0.6"></polyline><polyline points="26.473577235772357,6.961382113821138 26.321138211382113,7.469512195121951 26.21951219512195,8.028455284552845 26.117886178861788,8.536585365853659 26.067073170731707,9.095528455284553 26.016260162601625,9.603658536585366 25.965447154471544,10.060975609756097 25.965447154471544,10.619918699186991 25.965447154471544,11.178861788617885 25.965447154471544,11.6869918699187 26.016260162601625,12.144308943089431 26.016260162601625,12.652439024390244 26.067073170731707,13.058943089430894 26.16869918699187,13.414634146341463 26.270325203252032,13.71951219512195 26.371951219512194,13.922764227642276 26.473577235772357,14.176829268292682 26.57520325203252,14.48170731707317 26.727642276422763,14.735772357723578 26.880081300813007,15.040650406504065 27.083333333333332,15.345528455284553 27.235772357723576,15.548780487804878 27.4390243902439,15.752032520325203 27.642276422764226,15.904471544715447 27.79471544715447,16.05691056910569 28.048780487804876,16.15853658536585 28.302845528455283,16.260162601626014 28.506097560975608,16.36178861788618 28.810975609756095,16.41260162601626 29.0650406504065,16.41260162601626 29.420731707317074,16.41260162601626 29.776422764227643,16.41260162601626 30.182926829268293,16.3109756097561 30.538617886178862,16.209349593495933 30.995934959349594,16.006097560975608 31.402439024390244,15.853658536585366 31.808943089430894,15.65040650406504 32.21544715447154,15.447154471544716 32.6219512195122,15.24390243902439 33.02845528455285,14.989837398373984 33.38414634146341,14.735772357723578 33.84146341463415,14.380081300813007 34.197154471544714,14.024390243902438 34.552845528455286,13.66869918699187 34.90853658536585,13.262195121951219 35.21341463414634,12.804878048780488 35.46747967479675,12.195121951219512 35.823170731707314,11.585365853658537 36.1280487804878,11.026422764227641 36.43292682926829,10.365853658536585 36.6869918699187,9.654471544715447" fill="none" stroke="black" stroke-width="0.6"></polyline><polyline points="36.6869918699187,9.654471544715447 36.890243902439025,9.095528455284553 37.09349593495935,8.485772357723578 37.24593495934959,7.876016260162602 37.34756097560975,7.266260162601625 37.449186991869915,6.758130081300813 37.5,6.25 37.55081300813008,5.741869918699187 37.55081300813008,5.284552845528455 37.60162601626016,4.878048780487805 37.60162601626016,4.573170731707317 37.60162601626016,4.2682926829268295 37.55081300813008,3.9634146341463414 37.55081300813008,3.7601626016260163 37.449186991869915,3.556910569105691 37.34756097560975,3.404471544715447 37.24593495934959,3.3028455284552845 37.09349593495935,3.201219512195122 36.9410569105691,3.201219512195122 36.73780487804878,3.1504065040650406 36.43292682926829,3.1504065040650406 36.17886178861789,3.201219512195122 35.8739837398374,3.3028455284552845 35.56910569105691,3.5060975609756095 35.36585365853659,3.709349593495935 35.16260162601626,3.9634146341463414 34.90853658536585,4.2682926829268295 34.75609756097561,4.623983739837398 34.603658536585364,5.030487804878049 34.40040650406504,5.48780487804878 34.298780487804876,6.046747967479675 34.197154471544714,6.7073170731707314 34.09552845528455,7.41869918699187 33.99390243902439,8.130081300813007 33.892276422764226,8.892276422764228 33.84146341463415,9.552845528455284 33.84146341463415,10.111788617886178 33.84146341463415,10.670731707317072 33.892276422764226,11.280487804878048 33.892276422764226,11.788617886178862 33.94308943089431,12.296747967479675 33.99390243902439,12.855691056910569 34.09552845528455,13.363821138211382 34.197154471544714,13.821138211382113 34.298780487804876,14.227642276422763 34.451219512195124,14.53252032520325 34.603658536585364,14.83739837398374 34.80691056910569,15.091463414634147 35.010162601626014,15.294715447154472 35.264227642276424,15.497967479674797 35.56910569105691,15.65040650406504" fill="none" stroke="black" stroke-width="0.6"></polyline><polyline points="35.56910569105691,15.65040650406504 35.8739837398374,15.752032520325203 36.229674796747965,15.853658536585366 36.636178861788615,15.955284552845528 36.99186991869919,16.05691056910569 37.449186991869915,16.10772357723577 37.90650406504065,16.10772357723577 38.3130081300813,16.10772357723577 38.77032520325203,16.10772357723577 39.176829268292686,16.006097560975608 39.583333333333336,15.904471544715447 39.88821138211382,15.853658536585366 40.19308943089431,15.752032520325203 40.447154471544714,15.65040650406504 40.65040650406504,15.548780487804878 40.7520325203252,15.548780487804878" fill="none" stroke="black" stroke-width="0.6"></polyline><polyline points="15.802845528455284,35.36585365853659 15.752032520325203,35.36585365853659 15.752032520325203,35.36585365853659 15.701219512195122,35.36585365853659 15.65040650406504,35.3150406504065 15.65040650406504,35.3150406504065 15.59959349593496,35.3150406504065 15.59959349593496,35.3150406504065 15.59959349593496,35.3150406504065 15.59959349593496,35.3150406504065 15.59959349593496,35.3150406504065 15.59959349593496,35.3150406504065 15.59959349593496,35.3150406504065 15.59959349593496,35.3150406504065 15.59959349593496,35.3150406504065 15.59959349593496,35.3150406504065 15.65040650406504,35.3150406504065 15.752032520325203,35.3150406504065 15.853658536585366,35.264227642276424 16.006097560975608,35.21341463414634 16.209349593495933,35.11178861788618 16.463414634146343,34.90853658536585 16.71747967479675,34.65447154471545 17.073170731707318,34.298780487804876 17.428861788617887,33.84146341463415 17.835365853658537,33.38414634146341 18.191056910569106,32.8760162601626 18.597560975609756,32.3170731707317 18.902439024390244,31.808943089430894 19.20731707317073,31.30081300813008 19.461382113821138,30.79268292682927 19.664634146341463,30.284552845528456 19.867886178861788,29.67479674796748 20.121951219512194,29.01422764227642 20.3760162601626,28.404471544715445 20.579268292682926,27.74390243902439 20.78252032520325,27.03252032520325 20.934959349593495,26.473577235772357 21.13821138211382,25.86382113821138 21.290650406504064,25.254065040650406 21.341463414634145,24.796747967479675 21.392276422764226,24.390243902439025 21.392276422764226,23.983739837398375 21.392276422764226,23.729674796747968 21.392276422764226,23.526422764227643 21.392276422764226,23.272357723577237 21.341463414634145,23.170731707317074 21.341463414634145,23.06910569105691 21.239837398373982,22.96747967479675 21.1890243902439,22.916666666666668 21.13821138211382,22.916666666666668" fill="none" stroke="black" stroke-width="0.6"></polyline><polyline points="21.13821138211382,22.916666666666668 21.036585365853657,22.916666666666668 20.884146341463413,22.916666666666668 20.630081300813007,23.06910569105691 20.32520325203252,23.272357723577237 20.071138211382113,23.526422764227643 19.766260162601625,23.83130081300813 19.461382113821138,24.1869918699187 19.15650406504065,24.54268292682927 18.902439024390244,24.898373983739837 18.597560975609756,25.304878048780488 18.39430894308943,25.8130081300813 18.191056910569106,26.371951219512194 18.038617886178862,26.93089430894309 17.9369918699187,27.540650406504064 17.835365853658537,28.15040650406504 17.835365853658537,28.760162601626014 17.835365853658537,29.369918699186993 17.835365853658537,29.979674796747968 17.835365853658537,30.589430894308943 17.88617886178862,31.046747967479675 17.98780487804878,31.504065040650406 18.089430894308943,31.961382113821138 18.241869918699187,32.36788617886179 18.39430894308943,32.82520325203252 18.597560975609756,33.28252032520325 18.80081300813008,33.6890243902439 19.004065040650406,34.146341463414636 19.20731707317073,34.552845528455286 19.359756097560975,34.857723577235774 19.5630081300813,35.11178861788618 19.817073170731707,35.3150406504065 20.020325203252032,35.46747967479675 20.630081300813007,35.72154471544715 20.884146341463413,35.77235772357724 21.49390243902439,35.77235772357724 21.747967479674795,35.670731707317074 22.0020325203252,35.56910569105691 22.35772357723577,35.36585365853659 22.611788617886177,35.16260162601626 22.916666666666668,34.959349593495936 23.170731707317074,34.70528455284553 23.42479674796748,34.40040650406504 23.729674796747968,34.04471544715447 24.034552845528456,33.58739837398374 24.288617886178862,33.079268292682926 24.64430894308943,32.52032520325203 25.05081300813008,31.808943089430894 25.35569105691057,31.19918699186992 25.660569105691057,30.538617886178862 26.067073170731707,29.725609756097562" fill="none" stroke="black" stroke-width="0.6"></polyline><polyline points="26.067073170731707,29.725609756097562 26.371951219512194,29.01422764227642 26.676829268292682,28.353658536585364 26.93089430894309,27.591463414634145 27.184959349593495,26.93089430894309 27.38821138211382,26.371951219512194 27.540650406504064,25.711382113821138 27.642276422764226,25.152439024390244 27.693089430894307,24.695121951219512 27.74390243902439,24.23780487804878 27.74390243902439,23.882113821138212 27.74390243902439,23.577235772357724 27.693089430894307,23.221544715447155 27.642276422764226,23.01829268292683 27.540650406504064,22.865853658536587 27.4390243902439,22.71341463414634 27.286585365853657,22.662601626016258 27.134146341463413,22.662601626016258 26.880081300813007,22.662601626016258 26.57520325203252,22.71341463414634 26.270325203252032,22.916666666666668 25.914634146341463,23.170731707317074 25.558943089430894,23.526422764227643 25.254065040650406,23.882113821138212 24.94918699186992,24.288617886178862 24.695121951219512,24.695121951219512 24.441056910569106,25.152439024390244 24.23780487804878,25.711382113821138 24.13617886178862,26.21951219512195 24.034552845528456,26.829268292682926 23.983739837398375,27.4390243902439 23.983739837398375,28.15040650406504 23.983739837398375,28.810975609756095 24.085365853658537,29.420731707317074 24.23780487804878,30.03048780487805 24.441056910569106,30.589430894308943 24.64430894308943,31.148373983739837 24.847560975609756,31.65650406504065 25.152439024390244,32.11382113821138 25.508130081300813,32.57113821138211 25.8130081300813,32.97764227642276 26.16869918699187,33.28252032520325 26.524390243902438,33.53658536585366 26.829268292682926,33.739837398373986 27.134146341463413,33.892276422764226 27.4390243902439,33.99390243902439 27.693089430894307,34.04471544715447 27.997967479674795,34.09552845528455 28.302845528455283,34.09552845528455 28.60772357723577,34.04471544715447 28.96341463414634,33.99390243902439" fill="none" stroke="black" stroke-width="0.6"></polyline><polyline points="28.96341463414634,33.99390243902439 29.31910569105691,33.892276422764226 29.471544715447155,33.84146341463415 29.6239837398374,33.790650406504064 29.928861788617887,33.6890243902439 30.284552845528456,33.53658536585366 30.589430894308943,33.38414634146341 30.945121951219512,33.18089430894309 31.19918699186992,33.02845528455285 31.453252032520325,32.82520325203252 31.70731707317073,32.57113821138211 31.961382113821138,32.266260162601625 32.266260162601625,31.859756097560975 32.57113821138211,31.25 32.926829268292686,30.640243902439025 33.28252032520325,29.928861788617887 33.58739837398374,29.115853658536583 33.84146341463415,28.455284552845526 34.146341463414636,27.693089430894307 34.34959349593496,26.98170731707317 34.552845528455286,26.371951219512194 34.603658536585364,25.914634146341463 34.65447154471545,25.45731707317073 34.65447154471545,25.05081300813008 34.65447154471545,24.695121951219512 34.65447154471545,24.390243902439025 34.603658536585364,24.1869918699187 34.552845528455286,23.983739837398375 34.5020325203252,23.932926829268293 34.451219512195124,23.83130081300813 34.40040650406504,23.729674796747968 34.298780487804876,23.678861788617887 34.197154471544714,23.628048780487806 34.146341463414636,23.628048780487806 34.04471544715447,23.628048780487806 33.892276422764226,23.678861788617887 33.739837398373986,23.83130081300813 33.53658536585366,24.085365853658537 33.28252032520325,24.441056910569106 33.079268292682926,24.898373983739837 32.82520325203252,25.40650406504065 32.6219512195122,26.016260162601625 32.418699186991866,26.6260162601626 32.266260162601625,27.33739837398374 32.11382113821138,28.20121951219512 32.012195121951216,29.01422764227642 31.910569105691057,29.776422764227643 31.859756097560975,30.589430894308943 31.859756097560975,31.19918699186992 31.859756097560975,31.758130081300813 31.859756097560975,32.3170731707317" fill="none" stroke="black" stroke-width="0.6"></polyline><polyline points="31.859756097560975,32.3170731707317 31.859756097560975,32.77439024390244 31.910569105691057,33.18089430894309 32.012195121951216,33.58739837398374 32.11382113821138,33.892276422764226 32.266260162601625,34.197154471544714 32.52032520325203,34.5020325203252 32.72357723577236,34.70528455284553 33.02845528455285,34.90853658536585 33.38414634146341,35.010162601626014 33.739837398373986,35.0609756097561 34.197154471544714,35.11178861788618 34.80691056910569,35.11178861788618 35.11178861788618,35.010162601626014" fill="none" stroke="black" stroke-width="0.6"></polyline><polyline points="18.29268292682927,56.859756097560975 18.29268292682927,56.75813008130081 18.29268292682927,56.65650406504065 18.29268292682927,56.5040650406504 18.39430894308943,56.35162601626016 18.597560975609756,56.14837398373984 18.902439024390244,55.94512195121951 19.258130081300813,55.6910569105691 19.664634146341463,55.386178861788615 20.121951219512194,55.08130081300813 20.579268292682926,54.72560975609756 21.08739837398374,54.26829268292683 21.646341463414632,53.709349593495936 22.103658536585364,53.09959349593496 22.560975609756095,52.540650406504064 23.01829268292683,51.880081300813 23.3739837398374,51.168699186991866 23.729674796747968,50.40650406504065 24.034552845528456,49.64430894308943 24.288617886178862,48.83130081300813 24.491869918699187,48.01829268292683 24.695121951219512,47.25609756097561 24.847560975609756,46.49390243902439 24.94918699186992,45.78252032520325 24.94918699186992,45.22357723577235 24.94918699186992,44.66463414634146 24.94918699186992,44.15650406504065 24.847560975609756,43.85162601626016 24.796747967479675,43.59756097560975 24.695121951219512,43.34349593495935 24.64430894308943,43.24186991869919 24.54268292682927,43.1910569105691 24.491869918699187,43.1910569105691 24.390243902439025,43.1910569105691 24.23780487804878,43.34349593495935 24.034552845528456,43.64837398373984 23.78048780487805,44.0040650406504 23.526422764227643,44.46138211382114 23.221544715447155,45.02032520325203 22.96747967479675,45.579268292682926 22.764227642276424,46.1890243902439 22.510162601626014,46.798780487804876 22.30691056910569,47.459349593495936 22.154471544715445,48.11991869918699 22.0020325203252,48.78048780487805 21.90040650406504,49.390243902439025 21.798780487804876,50 21.697154471544714,50.609756097560975 21.646341463414632,51.0670731707317 21.646341463414632,51.52439024390244 21.646341463414632,52.03252032520325" fill="none" stroke="black" stroke-width="0.6"></polyline><polyline points="21.646341463414632,52.03252032520325 21.646341463414632,52.4390243902439 21.697154471544714,52.84552845528455 21.849593495934958,53.2520325203252 22.0020325203252,53.607723577235774 22.154471544715445,53.96341463414634 22.35772357723577,54.26829268292683 22.560975609756095,54.52235772357724 22.815040650406505,54.72560975609756 23.01829268292683,54.827235772357724 23.170731707317074,54.8780487804878 23.42479674796748,54.92886178861789 23.628048780487806,54.979674796747965 23.882113821138212,54.979674796747965 24.13617886178862,54.979674796747965 24.390243902439025,54.979674796747965 24.64430894308943,54.979674796747965 24.94918699186992,54.92886178861789 25.254065040650406,54.8780487804878 25.558943089430894,54.827235772357724 25.86382113821138,54.72560975609756 26.16869918699187,54.573170731707314 26.524390243902438,54.420731707317074 26.880081300813007,54.166666666666664 27.33739837398374,53.86178861788618 27.693089430894307,53.607723577235774 28.048780487804876,53.2520325203252 28.455284552845526,52.896341463414636 28.810975609756095,52.4390243902439 29.217479674796746,51.880081300813 29.67479674796748,51.21951219512195 30.03048780487805,50.50813008130081 30.4369918699187,49.74593495934959 30.79268292682927,48.88211382113821 31.097560975609756,48.06910569105691 31.453252032520325,47.15447154471545 31.65650406504065,46.392276422764226 31.859756097560975,45.68089430894309 32.012195121951216,44.918699186991866 32.0630081300813,44.359756097560975 32.11382113821138,43.90243902439024 32.11382113821138,43.49593495934959 32.11382113821138,43.1910569105691 32.0630081300813,42.9369918699187 32.012195121951216,42.733739837398375 31.961382113821138,42.63211382113821 31.910569105691057,42.58130081300813 31.808943089430894,42.53048780487805 31.65650406504065,42.53048780487805 31.453252032520325,42.58130081300813 31.097560975609756,42.733739837398375" fill="none" stroke="black" stroke-width="0.6"></polyline><polyline points="31.097560975609756,42.733739837398375 30.79268292682927,42.98780487804878 30.48780487804878,43.292682926829265 30.182926829268293,43.75 29.878048780487806,44.15650406504065 29.573170731707318,44.66463414634146 29.31910569105691,45.325203252032516 29.0650406504065,45.985772357723576 28.861788617886177,46.697154471544714 28.60772357723577,47.5609756097561 28.455284552845526,48.3739837398374 28.2520325203252,49.136178861788615 28.099593495934958,49.949186991869915 27.947154471544714,50.609756097560975 27.84552845528455,51.21951219512195 27.693089430894307,51.93089430894309 27.642276422764226,52.489837398373986 27.591463414634145,53.048780487804876 27.591463414634145,53.50609756097561 27.591463414634145,53.86178861788618 27.693089430894307,54.26829268292683 27.79471544715447,54.67479674796748 27.947154471544714,54.979674796747965 28.15040650406504,55.233739837398375 28.353658536585364,55.53861788617886 28.55691056910569,55.74186991869919 28.810975609756095,55.89430894308943 29.115853658536583,56.046747967479675 29.522357723577237,56.09756097560975 29.878048780487806,56.14837398373984 30.335365853658537,56.14837398373984 30.84349593495935,56.14837398373984 31.30081300813008,56.046747967479675 31.859756097560975,55.84349593495935 32.36788617886179,55.6910569105691 32.8760162601626,55.4369918699187 33.4349593495935,55.13211382113821 33.99390243902439,54.827235772357724 34.451219512195124,54.52235772357724 34.959349593495936,54.166666666666664 35.36585365853659,53.760162601626014 35.8739837398374,53.302845528455286 36.33130081300813,52.74390243902439 36.78861788617886,52.1849593495935 37.24593495934959,51.52439024390244 37.65243902439024,50.8130081300813 37.95731707317073,50.10162601626016 38.262195121951216,49.33943089430894 38.46544715447154,48.52642276422764 38.61788617886179,47.8150406504065 38.668699186991866,47.103658536585364" fill="none" stroke="black" stroke-width="0.6"></polyline><polyline points="38.668699186991866,47.103658536585364 38.668699186991866,46.44308943089431 38.61788617886179,45.88414634146341 38.516260162601625,45.325203252032516 38.41463414634146,44.918699186991866 38.262195121951216,44.5630081300813 38.109756097560975,44.20731707317073 37.95731707317073,43.953252032520325 37.80487804878049,43.75 37.60162601626016,43.59756097560975 37.449186991869915,43.546747967479675 37.24593495934959,43.49593495934959 36.99186991869919,43.49593495934959 36.6869918699187,43.64837398373984 36.33130081300813,43.85162601626016 36.077235772357724,44.105691056910565 35.823170731707314,44.41056910569105 35.61991869918699,44.766260162601625 35.416666666666664,45.27439024390244 35.21341463414634,45.78252032520325 35.11178861788618,46.34146341463415 34.959349593495936,46.951219512195124 34.857723577235774,47.61178861788618 34.857723577235774,48.3739837398374 34.80691056910569,49.1869918699187 34.80691056910569,49.84756097560975 34.80691056910569,50.50813008130081 34.857723577235774,51.168699186991866 34.959349593495936,51.6260162601626 35.010162601626014,52.083333333333336 35.16260162601626,52.540650406504064 35.264227642276424,52.947154471544714 35.416666666666664,53.2520325203252 35.61991869918699,53.607723577235774 35.823170731707314,53.8109756097561 36.077235772357724,54.11585365853659 36.33130081300813,54.36991869918699 36.636178861788615,54.573170731707314 36.9410569105691,54.77642276422764 37.296747967479675,54.979674796747965 37.7540650406504,55.13211382113821 38.3130081300813,55.18292682926829 38.922764227642276,55.233739837398375 39.43089430894309,55.28455284552845 39.88821138211382,55.28455284552845 40.396341463414636,55.28455284552845 40.90447154471545,55.18292682926829" fill="none" stroke="black" stroke-width="0.6"></polyline><polyline points="16.71747967479675,76.3719512195122 16.666666666666668,76.3719512195122 16.565040650406505,76.3719512195122 16.463414634146343,76.3719512195122 16.41260162601626,76.3719512195122 16.3109756097561,76.3211382113821 16.3109756097561,76.27032520325203 16.260162601626014,76.21951219512195 16.260162601626014,76.16869918699187 16.260162601626014,76.11788617886178 16.3109756097561,76.01626016260163 16.41260162601626,75.86382113821138 16.565040650406505,75.66056910569105 16.81910569105691,75.45731707317073 17.1239837398374,75.20325203252033 17.479674796747968,74.94918699186992 17.9369918699187,74.64430894308943 18.445121951219512,74.23780487804878 19.004065040650406,73.8821138211382 19.61382113821138,73.47560975609755 20.172764227642276,73.01829268292683 20.73170731707317,72.51016260162602 21.290650406504064,72.0020325203252 21.90040650406504,71.39227642276423 22.40853658536585,70.73170731707317 23.01829268292683,70.0711382113821 23.526422764227643,69.46138211382113 24.034552845528456,68.75 24.54268292682927,68.03861788617886 24.94918699186992,67.47967479674797 25.35569105691057,66.8191056910569 25.8130081300813,66.10772357723577 26.16869918699187,65.4979674796748 26.524390243902438,64.83739837398373 26.829268292682926,64.22764227642276 27.03252032520325,63.71951219512195 27.235772357723576,63.262195121951216 27.33739837398374,62.855691056910565 27.33739837398374,62.5 27.38821138211382,62.19512195121951 27.38821138211382,61.99186991869919 27.286585365853657,61.83943089430894 27.235772357723576,61.78861788617886 27.083333333333332,61.73780487804878 26.98170731707317,61.6869918699187 26.778455284552845,61.73780487804878 26.524390243902438,61.890243902439025 26.21951219512195,62.14430894308943 25.914634146341463,62.5 25.558943089430894,62.90650406504065 25.254065040650406,63.262195121951216" fill="none" stroke="black" stroke-width="0.6"></polyline><polyline points="25.254065040650406,63.262195121951216 25,63.668699186991866 24.695121951219512,64.1260162601626 24.491869918699187,64.58333333333333 24.23780487804878,65.14227642276423 23.983739837398375,65.85365853658537 23.78048780487805,66.41260162601625 23.577235772357724,67.07317073170732 23.3739837398374,67.73373983739837 23.221544715447155,68.24186991869918 23.06910569105691,68.75 23.01829268292683,69.2581300813008 22.96747967479675,69.76626016260163 22.916666666666668,70.22357723577235 22.916666666666668,70.73170731707317 22.916666666666668,71.1890243902439 22.916666666666668,71.64634146341463 22.96747967479675,72.10365853658537 23.01829268292683,72.40853658536585 23.119918699186993,72.66260162601625 23.221544715447155,72.91666666666667 23.3739837398374,73.17073170731707 23.475609756097562,73.3739837398374 23.628048780487806,73.6280487804878 23.729674796747968,73.8821138211382 23.882113821138212,74.03455284552845 24.034552845528456,74.23780487804878 24.1869918699187,74.39024390243902 24.288617886178862,74.49186991869918 24.491869918699187,74.64430894308943 24.64430894308943,74.7459349593496 24.796747967479675,74.79674796747967 25,74.89837398373983 25.203252032520325,74.94918699186992 25.40650406504065,75 25.609756097560975,75.05081300813008 25.86382113821138,75.10162601626016 26.067073170731707,75.10162601626016 26.371951219512194,75.15243902439025 26.6260162601626,75.15243902439025 26.93089430894309,75.15243902439025 27.235772357723576,75.10162601626016 27.540650406504064,75.05081300813008 27.947154471544714,75 28.2520325203252,74.89837398373983 28.60772357723577,74.79674796747967 28.912601626016258,74.6951219512195 29.268292682926827,74.59349593495935 29.573170731707318,74.4410569105691 29.928861788617887,74.28861788617886 30.233739837398375,74.03455284552845" fill="none" stroke="black" stroke-width="0.6"></polyline><polyline points="30.233739837398375,74.03455284552845 30.589430894308943,73.78048780487805 30.89430894308943,73.42479674796748 31.097560975609756,73.0691056910569 31.30081300813008,72.71341463414635 31.554878048780488,72.20528455284553 31.808943089430894,71.69715447154472 32.0630081300813,71.03658536585365 32.36788617886179,70.32520325203252 32.6219512195122,69.66463414634146 32.926829268292686,68.90243902439025 33.18089430894309,68.1910569105691 33.38414634146341,67.58130081300813 33.58739837398374,66.869918699187 33.84146341463415,66.15853658536585 33.94308943089431,65.85365853658537 34.04471544715447,65.4979674796748 34.197154471544714,64.88821138211382 34.34959349593496,64.17682926829268 34.451219512195124,63.668699186991866 34.5020325203252,63.41463414634146 34.552845528455286,63.16056910569105 34.552845528455286,62.703252032520325 34.552845528455286,62.34756097560975 34.552845528455286,61.99186991869919 34.5020325203252,61.6869918699187 34.451219512195124,61.53455284552845 34.34959349593496,61.483739837398375 34.2479674796748,61.43292682926829 34.146341463414636,61.38211382113821 34.04471544715447,61.38211382113821 33.892276422764226,61.43292682926829 33.63821138211382,61.58536585365854 33.333333333333336,61.78861788617886 32.97764227642276,62.09349593495935 32.672764227642276,62.449186991869915 32.36788617886179,62.855691056910565 32.0630081300813,63.262195121951216 31.758130081300813,63.668699186991866 31.554878048780488,64.1260162601626 31.25,64.6849593495935 31.046747967479675,65.2439024390244 30.84349593495935,65.90447154471545 30.589430894308943,66.61585365853658 30.4369918699187,67.32723577235772 30.233739837398375,68.03861788617886 30.08130081300813,68.64837398373983 29.928861788617887,69.20731707317073 29.827235772357724,69.76626016260163 29.725609756097562,70.22357723577235 29.67479674796748,70.68089430894308" fill="none" stroke="black" stroke-width="0.6"></polyline><polyline points="29.67479674796748,70.68089430894308 29.6239837398374,71.03658536585365 29.6239837398374,71.4430894308943 29.6239837398374,71.79878048780488 29.6239837398374,72.15447154471545 29.6239837398374,72.51016260162602 29.67479674796748,72.8150406504065 29.776422764227643,73.0691056910569 29.878048780487806,73.3739837398374 30.03048780487805,73.6280487804878 30.182926829268293,73.9329268292683 30.335365853658537,74.1869918699187 30.538617886178862,74.4410569105691 30.741869918699187,74.64430894308943 30.945121951219512,74.89837398373983 31.19918699186992,75.10162601626016 31.453252032520325,75.35569105691057 31.70731707317073,75.5589430894309 31.961382113821138,75.76219512195122 32.266260162601625,76.01626016260163 32.57113821138211,76.16869918699187 32.8760162601626,76.3211382113821 33.18089430894309,76.47357723577235 33.485772357723576,76.52439024390243 33.790650406504064,76.57520325203252 34.197154471544714,76.57520325203252 34.552845528455286,76.47357723577235 34.90853658536585,76.3719512195122 35.264227642276424,76.21951219512195 35.670731707317074,76.11788617886178 36.077235772357724,75.91463414634146 36.483739837398375,75.71138211382113 36.83943089430894,75.5589430894309 37.19512195121951,75.40650406504065 37.5,75.20325203252033 37.80487804878049,74.94918699186992 38.16056910569105,74.6951219512195 38.516260162601625,74.28861788617886 38.87195121951219,73.8821138211382 39.176829268292686,73.3739837398374 39.48170731707317,72.76422764227642 39.735772357723576,72.20528455284553 40.040650406504064,71.54471544715447 40.34552845528455,70.73170731707317 40.59959349593496,70.02032520325203 40.90447154471545,69.20731707317073 41.15853658536585,68.39430894308943 41.3109756097561,67.6829268292683 41.514227642276424,66.92073170731707 41.61585365853659,66.26016260162602 41.71747967479675,65.65040650406505" fill="none" stroke="black" stroke-width="0.6"></polyline><polyline points="41.71747967479675,65.65040650406505 41.81910569105691,65.04065040650406 41.920731707317074,64.43089430894308 41.97154471544715,63.87195121951219 41.97154471544715,63.36382113821138 42.02235772357724,62.90650406504065 42.02235772357724,62.5 42.02235772357724,62.09349593495935 41.920731707317074,61.78861788617886 41.81910569105691,61.636178861788615 41.71747967479675,61.53455284552845 41.61585365853659,61.53455284552845 41.46341463414634,61.53455284552845 41.260162601626014,61.58536585365854 41.00609756097561,61.83943089430894 40.701219512195124,62.14430894308943 40.34552845528455,62.55081300813008 40.040650406504064,63.05894308943089 39.735772357723576,63.61788617886179 39.43089430894309,64.17682926829268 39.176829268292686,64.78658536585365 38.97357723577235,65.44715447154472 38.77032520325203,66.10772357723577 38.5670731707317,66.8191056910569 38.3130081300813,67.47967479674797 38.109756097560975,68.08943089430895 37.95731707317073,68.64837398373983 37.855691056910565,69.20731707317073 37.80487804878049,69.51219512195122 37.7540650406504,69.76626016260163 37.703252032520325,70.32520325203252 37.703252032520325,70.83333333333333 37.703252032520325,71.39227642276423 37.80487804878049,71.95121951219512 37.90650406504065,72.40853658536585 38.05894308943089,72.86585365853658 38.262195121951216,73.17073170731707 38.41463414634146,73.47560975609755 38.668699186991866,73.78048780487805 38.87195121951219,74.03455284552845 39.07520325203252,74.23780487804878 39.329268292682926,74.4410569105691 39.53252032520325,74.64430894308943 39.78658536585366,74.79674796747967 40.040650406504064,74.89837398373983 40.29471544715447,75.05081300813008 40.548780487804876,75.15243902439025 40.853658536585364,75.2540650406504 41.107723577235774,75.30487804878048 41.36178861788618,75.35569105691057 41.666666666666664,75.40650406504065" fill="none" stroke="black" stroke-width="0.6"></polyline><polyline points="41.666666666666664,75.40650406504065 41.86991869918699,75.40650406504065 42.17479674796748,75.40650406504065 42.479674796747965,75.45731707317073 42.78455284552845,75.45731707317073 43.03861788617886,75.45731707317073 43.34349593495935,75.45731707317073 43.64837398373984,75.40650406504065 44.0040650406504,75.30487804878048 44.20731707317073,75.20325203252033" fill="none" stroke="black" stroke-width="0.6"></polyline><polyline points="17.225609756097562,96.13821138211382 17.225609756097562,96.08739837398373 17.225609756097562,95.98577235772358 17.276422764227643,95.8841463414634 17.327235772357724,95.73170731707317 17.53048780487805,95.57926829268293 17.784552845528456,95.3760162601626 18.140243902439025,95.1219512195122 18.597560975609756,94.76626016260163 19.054878048780488,94.41056910569105 19.5630081300813,93.95325203252033 20.020325203252032,93.39430894308943 20.579268292682926,92.73373983739837 21.08739837398374,92.07317073170732 21.646341463414632,91.3109756097561 22.052845528455283,90.70121951219512 22.510162601626014,90.04065040650406 22.96747967479675,89.32926829268293 23.3739837398374,88.61788617886178 23.78048780487805,87.85569105691057 24.23780487804878,87.04268292682927 24.59349593495935,86.28048780487805 25,85.46747967479675 25.35569105691057,84.65447154471545 25.558943089430894,83.9430894308943 25.76219512195122,83.28252032520325 25.914634146341463,82.67276422764228 25.965447154471544,82.21544715447155 26.016260162601625,81.7581300813008 26.016260162601625,81.40243902439025 25.914634146341463,81.19918699186992 25.76219512195122,81.09756097560975 25.558943089430894,81.04674796747967 25.254065040650406,81.09756097560975 24.847560975609756,81.30081300813008 24.390243902439025,81.60569105691057 24.034552845528456,81.96138211382113 23.678861788617887,82.41869918699187 23.272357723577237,82.97764227642276 22.916666666666668,83.53658536585365 22.510162601626014,84.1971544715447 22.154471544715445,84.95934959349593 21.849593495934958,85.72154471544715 21.54471544715447,86.58536585365853 21.341463414634145,87.55081300813008 21.239837398373982,88.36382113821138 21.13821138211382,89.17682926829268 21.13821138211382,89.98983739837398 21.13821138211382,90.59959349593495 21.13821138211382,91.26016260162602 21.239837398373982,91.8191056910569" fill="none" stroke="black" stroke-width="0.6"></polyline><polyline points="21.239837398373982,91.8191056910569 21.392276422764226,92.22560975609755 21.59552845528455,92.6321138211382 21.798780487804876,93.03861788617886 22.0020325203252,93.39430894308943 22.205284552845526,93.75 22.510162601626014,94.05487804878048 22.764227642276424,94.2581300813008 23.06910569105691,94.46138211382113 23.42479674796748,94.61382113821138 23.729674796747968,94.71544715447155 23.983739837398375,94.76626016260163 24.339430894308943,94.8170731707317 24.64430894308943,94.8170731707317 24.94918699186992,94.8170731707317 25.304878048780488,94.76626016260163 25.609756097560975,94.66463414634146 25.914634146341463,94.51219512195122 26.270325203252032,94.35975609756098 26.57520325203252,94.20731707317073 26.93089430894309,94.0040650406504 27.286585365853657,93.69918699186992 27.642276422764226,93.39430894308943 28.048780487804876,92.9369918699187 28.506097560975608,92.42886178861788 28.912601626016258,91.869918699187 29.369918699186993,91.20934959349593 29.827235772357724,90.4471544715447 30.284552845528456,89.6849593495935 30.741869918699187,88.8719512195122 31.19918699186992,88.0589430894309 31.60569105691057,87.39837398373983 31.961382113821138,86.73780487804878 32.266260162601625,86.07723577235772 32.52032520325203,85.46747967479675 32.82520325203252,84.8069105691057 33.02845528455285,84.1971544715447 33.18089430894309,83.58739837398373 33.333333333333336,83.02845528455285 33.4349593495935,82.52032520325203 33.485772357723576,82.01219512195122 33.485772357723576,81.5040650406504 33.485772357723576,81.19918699186992 33.38414634146341,80.89430894308943 33.23170731707317,80.6910569105691 33.079268292682926,80.58943089430895 32.926829268292686,80.48780487804878 32.672764227642276,80.48780487804878 32.418699186991866,80.53861788617886 32.11382113821138,80.74186991869918 31.758130081300813,80.9959349593496" fill="none" stroke="black" stroke-width="0.6"></polyline><polyline points="31.758130081300813,80.9959349593496 31.402439024390244,81.30081300813008 31.097560975609756,81.70731707317073 30.741869918699187,82.21544715447155 30.4369918699187,82.77439024390243 30.132113821138212,83.33333333333333 29.827235772357724,84.04471544715447 29.6239837398374,84.7560975609756 29.420731707317074,85.51829268292683 29.166666666666664,86.3821138211382 28.96341463414634,87.14430894308943 28.810975609756095,87.90650406504065 28.65853658536585,88.61788617886178 28.60772357723577,89.27845528455285 28.55691056910569,89.9390243902439 28.55691056910569,90.54878048780488 28.55691056910569,91.0569105691057 28.55691056910569,91.51422764227642 28.60772357723577,91.97154471544715 28.709349593495933,92.32723577235772 28.760162601626014,92.73373983739837 28.912601626016258,93.08943089430895 29.01422764227642,93.4451219512195 29.166666666666664,93.80081300813008 29.369918699186993,94.10569105691057 29.573170731707318,94.35975609756098 29.776422764227643,94.5630081300813 29.979674796747968,94.76626016260163 30.233739837398375,94.91869918699187 30.538617886178862,95.02032520325203 30.84349593495935,95.1219512195122 31.148373983739837,95.17276422764228 31.504065040650406,95.22357723577235 31.859756097560975,95.27439024390243 32.21544715447154,95.27439024390243 32.6219512195122,95.32520325203252 33.02845528455285,95.32520325203252 33.4349593495935,95.27439024390243 33.84146341463415,95.22357723577235 34.2479674796748,95.1219512195122 34.603658536585364,94.96951219512195 35.0609756097561,94.76626016260163 35.56910569105691,94.51219512195122 36.077235772357724,94.20731707317073 36.58536585365854,93.90243902439025 37.042682926829265,93.59756097560975 37.5,93.24186991869918 37.95731707317073,92.78455284552845 38.41463414634146,92.32723577235772 38.87195121951219,91.8191056910569 39.27845528455285,91.26016260162602" fill="none" stroke="black" stroke-width="0.6"></polyline><polyline points="39.27845528455285,91.26016260162602 39.735772357723576,90.54878048780488 40.040650406504064,89.88821138211382 40.396341463414636,89.17682926829268 40.65040650406504,88.36382113821138 40.90447154471545,87.55081300813008 41.15853658536585,86.63617886178862 41.3109756097561,85.82317073170732 41.46341463414634,84.95934959349593 41.5650406504065,84.04471544715447 41.5650406504065,83.33333333333333 41.5650406504065,82.67276422764228 41.514227642276424,82.0630081300813 41.41260162601626,81.55487804878048 41.260162601626014,81.19918699186992 41.107723577235774,80.84349593495935 40.90447154471545,80.6910569105691 40.65040650406504,80.53861788617886 40.34552845528455,80.48780487804878 39.989837398373986,80.48780487804878 39.63414634146341,80.53861788617886 39.176829268292686,80.74186991869918 38.77032520325203,80.9959349593496 38.36382113821138,81.30081300813008 37.90650406504065,81.7581300813008 37.55081300813008,82.26626016260163 37.19512195121951,82.82520325203252 36.890243902439025,83.48577235772358 36.58536585365854,84.14634146341463 36.33130081300813,84.85772357723577 36.077235772357724,85.72154471544715 35.92479674796748,86.53455284552845 35.823170731707314,87.34756097560975 35.72154471544715,88.21138211382113 35.670731707317074,88.97357723577235 35.61991869918699,89.73577235772358 35.61991869918699,90.4979674796748 35.670731707317074,91.15853658536585 35.823170731707314,91.71747967479675 36.02642276422764,92.22560975609755 36.229674796747965,92.6829268292683 36.483739837398375,93.14024390243902 36.78861788617886,93.59756097560975 37.042682926829265,93.95325203252033 37.34756097560975,94.2581300813008 37.703252032520325,94.51219512195122 38.05894308943089,94.71544715447155 38.41463414634146,94.91869918699187 38.87195121951219,95.0711382113821 39.27845528455285,95.1219512195122 39.78658536585366,95.1219512195122" fill="none" stroke="black" stroke-width="0.6"></polyline><polyline points="39.78658536585366,95.1219512195122 40.29471544715447,95.1219512195122 40.802845528455286,95.1219512195122 41.3109756097561,95.1219512195122 41.86991869918699,95.02032520325203 42.3780487804878,94.86788617886178 42.9369918699187,94.71544715447155 43.49593495934959,94.46138211382113 44.0040650406504,94.2581300813008 44.512195121951216,94.0040650406504 44.8170731707317,93.90243902439025" fill="none" stroke="black" stroke-width="0.6"></polyline></svg>