<svg height="100" width="100" preserveAspectRatio="xMidYMid meet"><polyline points="50.45731707317073,49.59349593495935 50.50813008130081,49.59349593495935 50.55894308943089,49.59349593495935 50.609756097560975,49.59349593495935 50.71138211382114,49.59349593495935 50.762195121951216,49.59349593495935 50.86382113821138,49.59349593495935 50.91463414634146,49.59349593495935 51.016260162601625,49.542682926829265 51.11788617886179,49.542682926829265 51.27032520325203,49.49186991869919 51.37195121951219,49.4410569105691 51.52439024390244,49.33943089430894 51.6260162601626,49.1869918699187 51.77845528455284,48.983739837398375 51.93089430894309,48.78048780487805 52.083333333333336,48.52642276422764 52.1849593495935,48.27235772357724 52.28658536585366,48.01829268292683 52.38821138211382,47.71341463414634 52.4390243902439,47.459349593495936 52.4390243902439,47.20528455284553 52.489837398373986,46.90040650406504 52.489837398373986,46.646341463414636 52.4390243902439,46.392276422764226 52.33739837398374,46.08739837398374 52.28658536585366,45.833333333333336 52.1849593495935,45.52845528455285 52.03252032520325,45.172764227642276 51.880081300813,44.918699186991866 51.72764227642276,44.66463414634146 51.52439024390244,44.359756097560975 51.32113821138211,44.15650406504065 51.0670731707317,44.0040650406504 50.8130081300813,43.80081300813008 50.609756097560975,43.64837398373984 50.30487804878049,43.49593495934959 50,43.292682926829265 49.74593495934959,43.1910569105691 49.4410569105691,43.08943089430894 49.136178861788615,42.98780487804878 48.78048780487805,42.9369918699187 48.47560975609756,42.886178861788615 48.170731707317074,42.83536585365854 47.86585365853659,42.83536585365854 47.5609756097561,42.83536585365854 47.25609756097561,42.83536585365854 47.0020325203252,42.886178861788615 46.697154471544714,42.98780487804878 46.44308943089431,43.08943089430894 46.1890243902439,43.1910569105691" fill="none" stroke="black" stroke-width="0.6"></polyline><polyline points="46.1890243902439,43.1910569105691 45.9349593495935,43.34349593495935 45.73170731707317,43.546747967479675 45.52845528455285,43.699186991869915 45.325203252032516,43.953252032520325 45.07113821138211,44.20731707317073 44.8170731707317,44.46138211382114 44.5630081300813,44.766260162601625 44.30894308943089,45.12195121951219 44.105691056910565,45.42682926829268 43.90243902439024,45.73170731707317 43.75,46.08739837398374 43.546747967479675,46.392276422764226 43.34349593495935,46.7479674796748 43.140243902439025,47.103658536585364 42.98780487804878,47.357723577235774 42.886178861788615,47.71341463414634 42.78455284552845,48.11991869918699 42.68292682926829,48.47560975609756 42.58130081300813,48.88211382113821 42.58130081300813,49.28861788617886 42.58130081300813,49.64430894308943 42.58130081300813,50.10162601626016 42.63211382113821,50.55894308943089 42.733739837398375,51.016260162601625 42.83536585365854,51.52439024390244 43.03861788617886,52.03252032520325 43.24186991869919,52.59146341463415 43.44512195121951,53.09959349593496 43.75,53.65853658536585 44.0040650406504,54.166666666666664 44.359756097560975,54.67479674796748 44.71544715447154,55.13211382113821 45.07113821138211,55.53861788617886 45.47764227642276,55.94512195121951 45.833333333333336,56.25 46.239837398373986,56.605691056910565 46.646341463414636,56.96138211382114 47.103658536585364,57.266260162601625 47.5609756097561,57.52032520325203 48.06910569105691,57.825203252032516 48.52642276422764,57.97764227642276 49.03455284552845,58.18089430894309 49.59349593495935,58.33333333333333 50.10162601626016,58.43495934959349 50.66056910569105,58.485772357723576 51.168699186991866,58.485772357723576 51.575203252032516,58.43495934959349 51.981707317073166,58.28252032520325 52.489837398373986,58.02845528455284 52.9979674796748,57.72357723577235" fill="none" stroke="black" stroke-width="0.6"></polyline><polyline points="52.9979674796748,57.72357723577235 53.607723577235774,57.21544715447154 54.21747967479675,56.70731707317073 54.67479674796748,56.199186991869915 55.13211382113821,55.6910569105691 55.53861788617886,55.18292682926829 55.89430894308943,54.72560975609756 56.199186991869915,54.21747967479675 56.5040650406504,53.709349593495936 56.75813008130081,53.2520325203252 57.012195121951216,52.74390243902439 57.266260162601625,52.1849593495935 57.46951219512195,51.72764227642276 57.62195121951219,51.27032520325203 57.72357723577235,50.8130081300813 57.825203252032516,50.355691056910565 57.92682926829268,49.89837398373984 57.97764227642276,49.390243902439025 57.97764227642276,48.983739837398375 57.97764227642276,48.52642276422764 57.97764227642276,47.96747967479675 57.97764227642276,47.459349593495936 57.92682926829268,46.951219512195124 57.825203252032516,46.392276422764226 57.72357723577235,45.88414634146341 57.52032520325203,45.325203252032516 57.36788617886179,44.8170731707317 57.16463414634146,44.359756097560975 56.96138211382114,43.85162601626016 56.75813008130081,43.292682926829265 56.5040650406504,42.78455284552845 56.25,42.22560975609756 55.94512195121951,41.71747967479675 55.640243902439025,41.260162601626014 55.33536585365854,40.7520325203252 54.92886178861789,40.24390243902439 54.6239837398374,39.83739837398374 54.21747967479675,39.43089430894309 53.8109756097561,39.02439024390244 53.40447154471545,38.668699186991866 52.84552845528455,38.3130081300813 52.28658536585366,37.95731707317073 51.67682926829268,37.703252032520325 51.0670731707317,37.449186991869915 50.40650406504065,37.19512195121951 49.796747967479675,36.99186991869919 49.1869918699187,36.83943089430894 48.52642276422764,36.73780487804878 47.916666666666664,36.636178861788615 47.30691056910569,36.58536585365854 46.646341463414636,36.58536585365854" fill="none" stroke="black" stroke-width="0.6"></polyline><polyline points="46.646341463414636,36.58536585365854 46.03658536585366,36.58536585365854 45.3760162601626,36.636178861788615 44.71544715447154,36.78861788617886 44.105691056910565,36.9410569105691 43.39430894308943,37.14430894308943 42.83536585365854,37.34756097560975 42.22560975609756,37.55081300813008 41.46341463414634,37.90650406504065 40.802845528455286,38.21138211382114 40.09146341463415,38.5670731707317 39.38008130081301,38.97357723577235 38.82113821138211,39.38008130081301 38.16056910569105,39.83739837398374 37.55081300813008,40.34552845528455 37.09349593495935,40.701219512195124 36.6869918699187,41.107723577235774 36.33130081300813,41.5650406504065 35.97560975609756,42.02235772357724 35.61991869918699,42.53048780487805 35.264227642276424,43.08943089430894 35.010162601626014,43.59756097560975 34.80691056910569,44.20731707317073 34.552845528455286,44.8170731707317 34.40040650406504,45.47764227642276 34.197154471544714,46.239837398373986 34.09552845528455,47.0020325203252 34.04471544715447,47.66260162601626 34.04471544715447,48.42479674796748 34.04471544715447,49.23780487804878 34.04471544715447,49.949186991869915 34.146341463414636,50.8130081300813 34.2479674796748,51.67682926829268 34.34959349593496,52.489837398373986 34.5020325203252,53.353658536585364 34.70528455284553,54.31910569105691 34.90853658536585,55.13211382113821 35.11178861788618,55.99593495934959 35.36585365853659,56.859756097560975 35.670731707317074,57.672764227642276 35.97560975609756,58.485772357723576 36.33130081300813,59.298780487804876 36.73780487804878,60.11178861788618 37.19512195121951,60.97560975609756 37.65243902439024,61.83943089430894 38.16056910569105,62.703252032520325 38.71951219512195,63.41463414634146 39.22764227642276,64.07520325203252 39.78658536585366,64.6341463414634 40.396341463414636,65.2439024390244 41.05691056910569,65.80284552845528" fill="none" stroke="black" stroke-width="0.6"></polyline><polyline points="41.05691056910569,65.80284552845528 41.666666666666664,66.26016260162602 42.27642276422764,66.66666666666667 42.98780487804878,67.07317073170732 43.59756097560975,67.42886178861788 44.25813008130081,67.6829268292683 44.96951219512195,67.9369918699187 45.63008130081301,68.14024390243902 46.34146341463415,68.29268292682927 47.0020325203252,68.34349593495935 47.71341463414634,68.39430894308943 48.42479674796748,68.4451219512195 49.136178861788615,68.4451219512195 49.84756097560975,68.39430894308943 50.50813008130081,68.29268292682927 51.21951219512195,68.14024390243902 51.829268292682926,67.98780487804878 52.489837398373986,67.78455284552845 53.09959349593496,67.53048780487805 53.65853658536585,67.27642276422765 54.31910569105691,66.92073170731707 54.8780487804878,66.61585365853658 55.4369918699187,66.26016260162602 56.046747967479675,65.80284552845528 56.605691056910565,65.29471544715447 57.11382113821138,64.78658536585365 57.672764227642276,64.17682926829268 58.18089430894309,63.61788617886179 58.6890243902439,62.95731707317073 59.197154471544714,62.296747967479675 59.552845528455286,61.73780487804878 59.90853658536585,61.17886178861789 60.21341463414634,60.51829268292683 60.51829268292683,59.90853658536585 60.823170731707314,59.2479674796748 61.1280487804878,58.485772357723576 61.28048780487805,58.130081300813 61.38211382113821,57.77439024390244 61.636178861788615,56.96138211382114 61.890243902439025,56.14837398373984 62.09349593495935,55.4369918699187 62.24593495934959,54.6239837398374 62.39837398373984,53.760162601626014 62.55081300813008,52.947154471544714 62.65243902439024,52.03252032520325 62.7540650406504,51.11788617886179 62.855691056910565,50.30487804878049 62.90650406504065,49.390243902439025 62.90650406504065,48.47560975609756 62.90650406504065,47.66260162601626 62.90650406504065,46.646341463414636" fill="none" stroke="black" stroke-width="0.6"></polyline><polyline points="62.90650406504065,46.646341463414636 62.90650406504065,45.63008130081301 62.855691056910565,44.86788617886179 62.703252032520325,44.105691056910565 62.5,43.24186991869919 62.296747967479675,42.53048780487805 62.042682926829265,41.76829268292683 61.78861788617886,40.90447154471545 61.43292682926829,39.989837398373986 61.1280487804878,39.1260162601626 60.77235772357724,38.3130081300813 60.36585365853659,37.60162601626016 59.959349593495936,36.890243902439025 59.451219512195124,36.17886178861789 58.94308943089431,35.61991869918699 58.43495934959349,35.010162601626014 57.8760162601626,34.451219512195124 57.266260162601625,33.94308943089431 56.70731707317073,33.53658536585366 56.09756097560975,33.079268292682926 55.386178861788615,32.6219512195122 54.6239837398374,32.21544715447154 53.8109756097561,31.808943089430894 52.9979674796748,31.504065040650406 52.1849593495935,31.19918699186992 51.21951219512195,30.89430894308943 50.355691056910565,30.691056910569106 49.49186991869919,30.538617886178862 48.577235772357724,30.38617886178862 47.71341463414634,30.335365853658537 46.7479674796748,30.284552845528456 45.78252032520325,30.284552845528456 44.918699186991866,30.284552845528456 44.0040650406504,30.284552845528456 43.08943089430894,30.284552845528456 42.1239837398374,30.38617886178862 41.15853658536585,30.589430894308943 40.24390243902439,30.741869918699187 39.38008130081301,30.89430894308943 38.5670731707317,31.046747967479675 37.703252032520325,31.30081300813008 36.890243902439025,31.554878048780488 36.02642276422764,31.910569105691057 35.264227642276424,32.266260162601625 34.451219512195124,32.672764227642276 33.63821138211382,33.13008130081301 32.926829268292686,33.63821138211382 32.16463414634146,34.146341463414636 31.453252032520325,34.75609756097561 30.79268292682927,35.3150406504065 30.132113821138212,35.97560975609756" fill="none" stroke="black" stroke-width="0.6"></polyline><polyline points="30.132113821138212,35.97560975609756 29.420731707317074,36.6869918699187 28.810975609756095,37.449186991869915 28.15040650406504,38.3130081300813 27.540650406504064,39.22764227642276 26.98170731707317,40.040650406504064 26.422764227642276,40.90447154471545 25.914634146341463,41.81910569105691 25.45731707317073,42.68292682926829 25.05081300813008,43.546747967479675 24.695121951219512,44.41056910569105 24.441056910569106,45.172764227642276 24.1869918699187,46.03658536585366 23.932926829268293,46.951219512195124 23.729674796747968,47.8150406504065 23.628048780487806,48.67886178861789 23.526422764227643,49.542682926829265 23.475609756097562,50.40650406504065 23.475609756097562,51.27032520325203 23.475609756097562,52.1849593495935 23.475609756097562,53.09959349593496 23.526422764227643,54.0650406504065 23.628048780487806,55.233739837398375 23.729674796747968,56.199186991869915 23.83130081300813,57.266260162601625 23.983739837398375,58.33333333333333 24.13617886178862,59.298780487804876 24.339430894308943,60.3150406504065 24.59349593495935,61.229674796747965 24.796747967479675,62.09349593495935 25.101626016260163,63.00813008130081 25.40650406504065,63.97357723577235 25.711382113821138,64.88821138211382 26.016260162601625,65.80284552845528 26.371951219512194,66.66666666666667 26.727642276422763,67.53048780487805 27.134146341463413,68.34349593495935 27.591463414634145,69.10569105691057 27.997967479674795,69.8170731707317 28.455284552845526,70.47764227642276 28.912601626016258,71.1890243902439 29.420731707317074,71.79878048780488 29.928861788617887,72.45934959349593 30.4369918699187,73.0691056910569 30.945121951219512,73.67886178861788 31.504065040650406,74.28861788617886 32.0630081300813,74.89837398373983 32.6219512195122,75.40650406504065 33.13008130081301,75.91463414634146 33.6890243902439,76.47357723577235 34.2479674796748,76.98170731707317" fill="none" stroke="black" stroke-width="0.6"></polyline><polyline points="34.2479674796748,76.98170731707317 34.80691056910569,77.48983739837398 35.36585365853659,77.9471544715447 35.92479674796748,78.35365853658537 36.483739837398375,78.76016260162602 37.042682926829265,79.16666666666667 37.60162601626016,79.52235772357723 38.16056910569105,79.8780487804878 38.77032520325203,80.1829268292683 39.27845528455285,80.48780487804878 39.83739837398374,80.79268292682927 40.34552845528455,81.04674796747967 40.853658536585364,81.25 41.41260162601626,81.45325203252033 41.86991869918699,81.60569105691057 42.3780487804878,81.7581300813008 42.9369918699187,81.91056910569105 43.44512195121951,82.01219512195122 43.953252032520325,82.11382113821138 44.5630081300813,82.21544715447155 45.07113821138211,82.26626016260163 45.579268292682926,82.36788617886178 46.1890243902439,82.41869918699187 46.697154471544714,82.46951219512195 47.25609756097561,82.52032520325203 47.86585365853659,82.5711382113821 48.3739837398374,82.5711382113821 48.93292682926829,82.6219512195122 49.542682926829265,82.6219512195122 50.10162601626016,82.6219512195122 50.8130081300813,82.6219512195122 51.575203252032516,82.5711382113821 52.28658536585366,82.46951219512195 52.9979674796748,82.36788617886178 53.760162601626014,82.21544715447155 54.47154471544715,82.0630081300813 55.18292682926829,81.91056910569105 55.99593495934959,81.70731707317073 56.65650406504065,81.5040650406504 57.36788617886179,81.25 58.18089430894309,80.9451219512195 58.84146341463415,80.58943089430895 59.603658536585364,80.23373983739837 60.36585365853659,79.82723577235772 60.97560975609756,79.42073170731707 61.6869918699187,79.01422764227642 62.34756097560975,78.65853658536585 62.95731707317073,78.2520325203252 63.5670731707317,77.84552845528455 64.17682926829268,77.48983739837398 64.6849593495935,77.1341463414634" fill="none" stroke="black" stroke-width="0.6"></polyline><polyline points="64.6849593495935,77.1341463414634 65.14227642276423,76.82926829268293 65.59959349593495,76.42276422764228 66.0060975609756,76.01626016260163 66.41260162601625,75.5589430894309 66.8191056910569,75.10162601626016 67.17479674796748,74.64430894308943 67.47967479674797,74.13617886178862 67.83536585365853,73.52642276422765 68.1910569105691,72.91666666666667 68.4959349593496,72.2560975609756 68.85162601626016,71.59552845528455 69.15650406504065,71.03658536585365 69.41056910569105,70.42682926829268 69.71544715447155,69.66463414634146 70.02032520325203,68.95325203252033 70.32520325203252,68.24186991869918 70.57926829268293,67.53048780487805 70.83333333333333,66.869918699187 71.13821138211382,66.15853658536585 71.39227642276423,65.34552845528455 71.69715447154472,64.53252032520325 72.0020325203252,63.668699186991866 72.35772357723577,62.855691056910565 72.66260162601625,62.042682926829265 72.96747967479675,61.28048780487805 73.22154471544715,60.56910569105691 73.47560975609755,59.857723577235774 73.72967479674797,59.04471544715447 73.9329268292683,58.28252032520325 74.1869918699187,57.57113821138211 74.39024390243902,56.859756097560975 74.59349593495935,56.25 74.79674796747967,55.53861788617886 75.05081300813008,54.827235772357724 75.2540650406504,54.21747967479675 75.40650406504065,53.607723577235774 75.5589430894309,53.048780487804876 75.66056910569105,52.540650406504064 75.71138211382113,52.13414634146341 75.71138211382113,51.67682926829268 75.71138211382113,51.32113821138211 75.71138211382113,51.016260162601625 75.71138211382113,50.762195121951216 75.71138211382113,50.55894308943089 75.66056910569105,50.40650406504065 75.60975609756098,50.2540650406504 75.60975609756098,50.203252032520325 75.5589430894309,50.15243902439024 75.5081300813008,50.15243902439024 75.5081300813008,50.15243902439024" fill="none" stroke="black" stroke-width="0.6"></polyline><polyline points="75.5081300813008,50.15243902439024 75.5081300813008,50.15243902439024 75.5081300813008,50.15243902439024 75.5081300813008,50.15243902439024 75.5081300813008,50.355691056910565" fill="none" stroke="black" stroke-width="0.6"></polyline></svg>