<svg height="100" width="100" preserveAspectRatio="xMidYMid meet"><polyline points="21.697154471544714,7.0630081300813 21.646341463414632,7.012195121951219 21.646341463414632,6.961382113821138 21.646341463414632,6.9105691056910565 21.59552845528455,6.859756097560975 21.54471544715447,6.758130081300813 21.54471544715447,6.7073170731707314 21.54471544715447,6.65650406504065 21.49390243902439,6.554878048780488 21.49390243902439,6.504065040650406 21.443089430894307,6.402439024390244 21.443089430894307,6.300813008130081 21.392276422764226,6.25 21.341463414634145,6.1483739837398375 21.290650406504064,6.046747967479675 21.239837398373982,5.995934959349594 21.1890243902439,5.945121951219512 21.13821138211382,5.945121951219512 21.08739837398374,5.945121951219512 20.985772357723576,5.995934959349594 20.833333333333332,6.097560975609756 20.630081300813007,6.300813008130081 20.426829268292682,6.605691056910569 20.223577235772357,6.9105691056910565 19.96951219512195,7.266260162601625 19.715447154471544,7.774390243902439 19.51219512195122,8.333333333333334 19.308943089430894,8.94308943089431 19.10569105691057,9.603658536585366 19.004065040650406,10.16260162601626 18.953252032520325,10.721544715447154 18.902439024390244,11.331300813008129 18.851626016260163,11.737804878048781 18.851626016260163,12.144308943089431 18.851626016260163,12.550813008130081 18.902439024390244,12.90650406504065 18.953252032520325,13.262195121951219 19.054878048780488,13.617886178861788 19.15650406504065,13.922764227642276 19.258130081300813,14.176829268292682 19.359756097560975,14.48170731707317 19.461382113821138,14.786585365853659 19.61382113821138,15.091463414634147 19.715447154471544,15.345528455284553 19.867886178861788,15.548780487804878 20.020325203252032,15.701219512195122 20.172764227642276,15.802845528455284 20.32520325203252,15.853658536585366 20.477642276422763,15.904471544715447 20.630081300813007,15.904471544715447 20.78252032520325,15.904471544715447" fill="none" stroke="black" stroke-width="0.6"></polyline><polyline points="20.78252032520325,15.904471544715447 20.934959349593495,15.904471544715447 21.08739837398374,15.904471544715447 21.239837398373982,15.853658536585366 21.392276422764226,15.752032520325203 21.54471544715447,15.65040650406504 21.697154471544714,15.548780487804878 21.849593495934958,15.396341463414634 22.0020325203252,15.24390243902439 22.154471544715445,14.989837398373984 22.35772357723577,14.735772357723578 22.510162601626014,14.430894308943088 22.662601626016258,14.07520325203252 22.865853658536587,13.66869918699187 23.06910569105691,13.262195121951219 23.221544715447155,12.754065040650406 23.42479674796748,12.195121951219512 23.577235772357724,11.737804878048781 23.678861788617887,11.331300813008129 23.78048780487805,10.924796747967479 23.882113821138212,10.56910569105691 23.932926829268293,10.213414634146341 23.983739837398375,9.80691056910569 23.983739837398375,9.552845528455284 23.983739837398375,9.298780487804878 24.034552845528456,9.044715447154472 24.034552845528456,8.790650406504065 24.034552845528456,8.58739837398374 24.034552845528456,8.333333333333334 23.932926829268293,8.079268292682926 23.882113821138212,7.876016260162602 23.83130081300813,7.6727642276422765 23.729674796747968,7.520325203252033 23.628048780487806,7.41869918699187 23.577235772357724,7.317073170731707 23.526422764227643,7.215447154471544 23.42479674796748,7.164634146341463 23.323170731707318,7.0630081300813 23.272357723577237,7.012195121951219 23.170731707317074,6.961382113821138 23.01829268292683,6.859756097560975 22.916666666666668,6.758130081300813 22.815040650406505,6.7073170731707314 22.662601626016258,6.65650406504065 22.560975609756095,6.554878048780488 22.40853658536585,6.504065040650406 22.30691056910569,6.453252032520325 22.205284552845526,6.402439024390244 22.103658536585364,6.3516260162601625 22.0020325203252,6.300813008130081 21.90040650406504,6.300813008130081" fill="none" stroke="black" stroke-width="0.6"></polyline><polyline points="21.90040650406504,6.300813008130081 21.849593495934958,6.300813008130081 21.798780487804876,6.300813008130081 21.747967479674795,6.25 21.697154471544714,6.25 21.646341463414632,6.25 21.646341463414632,6.25 21.59552845528455,6.25 21.54471544715447,6.25 21.49390243902439,6.25 21.49390243902439,6.25 21.443089430894307,6.25 21.392276422764226,6.25 21.392276422764226,6.25 21.341463414634145,6.300813008130081 21.341463414634145,6.300813008130081 21.341463414634145,6.300813008130081 21.290650406504064,6.300813008130081 21.290650406504064,6.300813008130081 21.290650406504064,6.300813008130081 21.290650406504064,6.300813008130081 21.290650406504064,6.300813008130081 21.290650406504064,6.300813008130081 21.290650406504064,6.300813008130081 21.290650406504064,6.300813008130081 21.290650406504064,6.3516260162601625 21.290650406504064,6.3516260162601625 21.290650406504064,6.3516260162601625 21.290650406504064,6.3516260162601625 21.290650406504064,6.3516260162601625 21.290650406504064,6.3516260162601625 21.290650406504064,6.3516260162601625 21.290650406504064,6.402439024390244 21.239837398373982,6.402439024390244 21.239837398373982,6.402439024390244 21.1890243902439,6.402439024390244 21.1890243902439,6.453252032520325 21.1890243902439,6.453252032520325 21.13821138211382,6.504065040650406 21.13821138211382,6.504065040650406 21.13821138211382,6.504065040650406 21.08739837398374,6.504065040650406 21.08739837398374,6.554878048780488 21.08739837398374,6.554878048780488 21.08739837398374,6.554878048780488 21.036585365853657,6.554878048780488 21.036585365853657,6.605691056910569 21.036585365853657,6.605691056910569 21.036585365853657,6.605691056910569 21.036585365853657,6.605691056910569 21.036585365853657,6.605691056910569" fill="none" stroke="black" stroke-width="0.6"></polyline><polyline points="21.036585365853657,6.605691056910569 21.036585365853657,6.605691056910569 21.036585365853657,6.65650406504065 21.036585365853657,6.7073170731707314" fill="none" stroke="black" stroke-width="0.6"></polyline><polyline points="19.766260162601625,15.091463414634147 19.766260162601625,15.040650406504065 19.715447154471544,14.939024390243903 19.715447154471544,14.888211382113822 19.664634146341463,14.83739837398374 19.664634146341463,14.786585365853659 19.664634146341463,14.735772357723578 19.664634146341463,14.735772357723578 19.664634146341463,14.684959349593496 19.664634146341463,14.684959349593496 19.664634146341463,14.634146341463413 19.664634146341463,14.634146341463413 19.664634146341463,14.634146341463413 19.664634146341463,14.634146341463413 19.664634146341463,14.634146341463413 19.664634146341463,14.583333333333332 19.664634146341463,14.583333333333332 19.664634146341463,14.53252032520325 19.664634146341463,14.48170731707317 19.664634146341463,14.430894308943088 19.664634146341463,14.329268292682926 19.664634146341463,14.227642276422763 19.664634146341463,14.1260162601626 19.664634146341463,13.973577235772357 19.766260162601625,13.821138211382113 19.867886178861788,13.66869918699187 20.020325203252032,13.465447154471544 20.223577235772357,13.262195121951219 20.426829268292682,13.058943089430894 20.78252032520325,12.804878048780488 21.13821138211382,12.550813008130081 21.49390243902439,12.347560975609756 21.849593495934958,12.195121951219512 22.154471544715445,12.09349593495935 22.40853658536585,12.09349593495935 22.662601626016258,12.042682926829269 22.865853658536587,12.042682926829269 23.119918699186993,12.042682926829269 23.272357723577237,12.09349593495935 23.42479674796748,12.195121951219512 23.577235772357724,12.245934959349594 23.628048780487806,12.398373983739837 23.729674796747968,12.5 23.78048780487805,12.703252032520325 23.83130081300813,12.90650406504065 23.882113821138212,13.109756097560975 23.882113821138212,13.3130081300813 23.882113821138212,13.567073170731707 23.882113821138212,13.770325203252032 23.882113821138212,13.973577235772357 23.882113821138212,14.176829268292682" fill="none" stroke="black" stroke-width="0.6"></polyline><polyline points="23.882113821138212,14.176829268292682 23.882113821138212,14.380081300813007 23.882113821138212,14.583333333333332 23.882113821138212,14.735772357723578 23.932926829268293,14.888211382113822 23.983739837398375,15.040650406504065 24.034552845528456,15.19308943089431 24.085365853658537,15.24390243902439 24.1869918699187,15.294715447154472 24.288617886178862,15.345528455284553 24.390243902439025,15.396341463414634 24.54268292682927,15.447154471544716 24.64430894308943,15.447154471544716 24.796747967479675,15.447154471544716 24.94918699186992,15.447154471544716 25.152439024390244,15.396341463414634 25.35569105691057,15.294715447154472 25.508130081300813,15.19308943089431 25.76219512195122,15.040650406504065 25.914634146341463,14.939024390243903 26.067073170731707,14.786585365853659 26.270325203252032,14.583333333333332 26.422764227642276,14.430894308943088 26.524390243902438,14.227642276422763 26.676829268292682,13.973577235772357 26.778455284552845,13.770325203252032 26.829268292682926,13.567073170731707 26.93089430894309,13.363821138211382 26.93089430894309,13.160569105691057 26.93089430894309,13.008130081300813 26.93089430894309,12.855691056910569 26.93089430894309,12.754065040650406 26.93089430894309,12.652439024390244 26.93089430894309,12.550813008130081 26.93089430894309,12.5 26.93089430894309,12.5 26.93089430894309,12.449186991869919 26.93089430894309,12.449186991869919 26.93089430894309,12.449186991869919 26.93089430894309,12.449186991869919 26.93089430894309,12.449186991869919 26.93089430894309,12.449186991869919 26.93089430894309,12.449186991869919 26.93089430894309,12.449186991869919 26.93089430894309,12.449186991869919 26.93089430894309,12.449186991869919 26.93089430894309,12.449186991869919 26.93089430894309,12.449186991869919 26.93089430894309,12.449186991869919 26.93089430894309,12.449186991869919 26.93089430894309,12.449186991869919" fill="none" stroke="black" stroke-width="0.6"></polyline><polyline points="26.93089430894309,12.449186991869919 26.93089430894309,12.449186991869919 26.93089430894309,12.449186991869919 26.93089430894309,12.449186991869919 26.93089430894309,12.449186991869919 26.880081300813007,12.449186991869919 26.880081300813007,12.449186991869919 26.880081300813007,12.449186991869919 26.880081300813007,12.449186991869919 26.880081300813007,12.449186991869919 26.880081300813007,12.449186991869919 26.880081300813007,12.449186991869919 26.880081300813007,12.449186991869919 26.880081300813007,12.449186991869919 26.880081300813007,12.5 26.880081300813007,12.601626016260163 26.829268292682926,12.754065040650406 26.778455284552845,13.008130081300813 26.727642276422763,13.3130081300813 26.6260162601626,13.617886178861788 26.57520325203252,13.973577235772357 26.473577235772357,14.329268292682926 26.422764227642276,14.634146341463413 26.371951219512194,14.939024390243903 26.371951219512194,15.19308943089431 26.371951219512194,15.396341463414634 26.371951219512194,15.497967479674797 26.422764227642276,15.65040650406504 26.473577235772357,15.752032520325203 26.57520325203252,15.802845528455284 26.57520325203252,15.853658536585366 26.6260162601626,15.853658536585366 26.676829268292682,15.904471544715447 26.778455284552845,15.904471544715447 26.93089430894309,15.904471544715447 27.03252032520325,15.904471544715447 27.134146341463413,15.853658536585366 27.235772357723576,15.802845528455284 27.4390243902439,15.701219512195122 27.642276422764226,15.59959349593496 27.84552845528455,15.447154471544716 28.099593495934958,15.294715447154472 28.302845528455283,15.19308943089431 28.506097560975608,14.989837398373984 28.709349593495933,14.786585365853659 28.912601626016258,14.634146341463413 29.0650406504065,14.380081300813007 29.217479674796746,14.176829268292682 29.31910569105691,13.922764227642276 29.369918699186993,13.71951219512195 29.471544715447155,13.516260162601625" fill="none" stroke="black" stroke-width="0.6"></polyline><polyline points="29.471544715447155,13.516260162601625 29.471544715447155,13.363821138211382 29.471544715447155,13.211382113821138 29.471544715447155,13.109756097560975 29.471544715447155,12.957317073170731 29.471544715447155,12.90650406504065 29.471544715447155,12.804878048780488 29.471544715447155,12.754065040650406 29.471544715447155,12.754065040650406 29.471544715447155,12.754065040650406 29.471544715447155,12.754065040650406 29.471544715447155,12.754065040650406 29.471544715447155,12.754065040650406 29.471544715447155,12.754065040650406 29.420731707317074,12.804878048780488 29.420731707317074,12.957317073170731 29.420731707317074,13.058943089430894 29.420731707317074,13.211382113821138 29.369918699186993,13.414634146341463 29.369918699186993,13.617886178861788 29.31910569105691,13.821138211382113 29.31910569105691,14.1260162601626 29.31910569105691,14.430894308943088 29.268292682926827,14.786585365853659 29.268292682926827,15.142276422764228 29.268292682926827,15.497967479674797 29.268292682926827,15.752032520325203 29.268292682926827,16.006097560975608 29.31910569105691,16.209349593495933 29.420731707317074,16.3109756097561 29.522357723577237,16.36178861788618 29.6239837398374,16.36178861788618 29.725609756097562,16.36178861788618 29.827235772357724,16.260162601626014 29.979674796747968,16.10772357723577 30.182926829268293,15.955284552845528 30.335365853658537,15.752032520325203 30.538617886178862,15.548780487804878 30.691056910569106,15.294715447154472 30.79268292682927,15.091463414634147 30.945121951219512,14.83739837398374 31.046747967479675,14.53252032520325 31.148373983739837,14.278455284552845 31.19918699186992,14.07520325203252 31.25,13.821138211382113 31.25,13.71951219512195 31.25,13.567073170731707 31.30081300813008,13.465447154471544 31.30081300813008,13.414634146341463 31.30081300813008,13.414634146341463 31.30081300813008,13.414634146341463" fill="none" stroke="black" stroke-width="0.6"></polyline><polyline points="31.30081300813008,13.414634146341463 31.30081300813008,13.414634146341463 31.30081300813008,13.414634146341463 31.30081300813008,13.414634146341463 31.30081300813008,13.465447154471544 31.30081300813008,13.567073170731707 31.25,13.66869918699187 31.19918699186992,13.821138211382113 31.19918699186992,14.024390243902438 31.148373983739837,14.278455284552845 31.097560975609756,14.53252032520325 31.097560975609756,14.786585365853659 31.046747967479675,15.091463414634147 31.046747967479675,15.396341463414634 31.097560975609756,15.65040650406504 31.19918699186992,15.904471544715447 31.30081300813008,16.006097560975608 31.453252032520325,16.10772357723577 31.65650406504065,16.10772357723577 31.859756097560975,16.10772357723577 32.11382113821138,15.955284552845528 32.418699186991866,15.752032520325203 32.72357723577236,15.447154471544716 33.02845528455285,15.142276422764228 33.38414634146341,14.735772357723578 33.739837398373986,14.329268292682926 34.09552845528455,13.973577235772357 34.451219512195124,13.66869918699187 34.70528455284553,13.363821138211382 34.959349593495936,13.160569105691057 35.21341463414634,13.008130081300813 35.3150406504065,12.957317073170731 35.46747967479675,12.957317073170731 35.61991869918699,12.957317073170731 35.670731707317074,13.008130081300813 35.823170731707314,13.160569105691057 35.92479674796748,13.262195121951219 36.02642276422764,13.414634146341463 36.1280487804878,13.567073170731707 36.17886178861789,13.71951219512195 36.229674796747965,13.821138211382113 36.229674796747965,13.821138211382113 36.229674796747965,13.871951219512194 36.229674796747965,13.871951219512194 36.229674796747965,13.821138211382113 36.17886178861789,13.770325203252032 36.077235772357724,13.66869918699187 35.97560975609756,13.516260162601625 35.823170731707314,13.363821138211382 35.72154471544715,13.262195121951219 35.56910569105691,13.109756097560975" fill="none" stroke="black" stroke-width="0.6"></polyline><polyline points="35.56910569105691,13.109756097560975 35.416666666666664,12.957317073170731 35.21341463414634,12.804878048780488 35.010162601626014,12.703252032520325 34.80691056910569,12.703252032520325 34.603658536585364,12.703252032520325 34.34959349593496,12.804878048780488 34.09552845528455,13.008130081300813 33.84146341463415,13.262195121951219 33.58739837398374,13.567073170731707 33.4349593495935,13.871951219512194 33.28252032520325,14.227642276422763 33.18089430894309,14.684959349593496 33.13008130081301,15.091463414634147 33.13008130081301,15.548780487804878 33.13008130081301,15.904471544715447 33.23170731707317,16.15853658536585 33.4349593495935,16.36178861788618 33.6890243902439,16.463414634146343 33.94308943089431,16.514227642276424 34.197154471544714,16.565040650406505 34.603658536585364,16.514227642276424 34.959349593495936,16.3109756097561 35.416666666666664,16.05691056910569 35.92479674796748,15.65040650406504 36.33130081300813,15.24390243902439 36.73780487804878,14.83739837398374 37.14430894308943,14.329268292682926 37.5,13.821138211382113 37.855691056910565,13.363821138211382 38.21138211382114,12.754065040650406 38.516260162601625,12.195121951219512 38.77032520325203,11.636178861788618 39.02439024390244,11.077235772357723 39.176829268292686,10.56910569105691 39.329268292682926,10.010162601626016 39.38008130081301,9.552845528455284 39.38008130081301,9.197154471544716 39.38008130081301,8.94308943089431 39.38008130081301,8.739837398373984 39.38008130081301,8.58739837398374 39.38008130081301,8.485772357723578 39.38008130081301,8.384146341463415 39.329268292682926,8.333333333333334 39.27845528455285,8.333333333333334 39.22764227642276,8.333333333333334 39.07520325203252,8.333333333333334 38.87195121951219,8.434959349593496 38.668699186991866,8.689024390243903 38.46544715447154,8.892276422764228 38.262195121951216,9.197154471544716" fill="none" stroke="black" stroke-width="0.6"></polyline><polyline points="38.262195121951216,9.197154471544716 38.05894308943089,9.552845528455284 37.90650406504065,9.908536585365853 37.7540650406504,10.416666666666666 37.55081300813008,10.97560975609756 37.39837398373984,11.585365853658537 37.296747967479675,12.245934959349594 37.14430894308943,12.957317073170731 36.99186991869919,13.567073170731707 36.83943089430894,14.1260162601626 36.73780487804878,14.634146341463413 36.636178861788615,15.040650406504065 36.53455284552845,15.396341463414634 36.43292682926829,15.752032520325203 36.38211382113821,16.006097560975608 36.28048780487805,16.209349593495933 36.229674796747965,16.36178861788618 36.1280487804878,16.463414634146343 36.1280487804878,16.514227642276424 36.1280487804878,16.514227642276424 36.1280487804878,16.514227642276424 36.1280487804878,16.514227642276424 36.077235772357724,16.463414634146343 36.077235772357724,16.3109756097561 36.077235772357724,16.10772357723577 36.077235772357724,15.853658536585366 36.1280487804878,15.548780487804878 36.229674796747965,15.142276422764228 36.43292682926829,14.735772357723578 36.636178861788615,14.329268292682926 36.890243902439025,13.821138211382113 37.296747967479675,13.3130081300813 37.7540650406504,12.754065040650406 38.3130081300813,12.245934959349594 38.82113821138211,11.941056910569106 39.27845528455285,11.788617886178862 39.6849593495935,11.737804878048781 39.9390243902439,11.737804878048781 40.142276422764226,11.890243902439025 40.34552845528455,12.144308943089431 40.396341463414636,12.398373983739837 40.447154471544714,12.703252032520325 40.447154471544714,13.008130081300813 40.29471544715447,13.262195121951219 40.040650406504064,13.516260162601625 39.78658536585366,13.71951219512195 39.48170731707317,13.922764227642276 39.1260162601626,14.024390243902438 38.77032520325203,14.176829268292682 38.46544715447154,14.227642276422763 38.16056910569105,14.278455284552845" fill="none" stroke="black" stroke-width="0.6"></polyline><polyline points="38.16056910569105,14.278455284552845 37.855691056910565,14.278455284552845 37.65243902439024,14.278455284552845 37.5,14.227642276422763 37.39837398373984,14.1260162601626 37.34756097560975,14.07520325203252 37.34756097560975,14.024390243902438 37.34756097560975,13.973577235772357 37.34756097560975,13.973577235772357 37.34756097560975,13.973577235772357 37.39837398373984,13.973577235772357 37.449186991869915,14.024390243902438 37.55081300813008,14.1260162601626 37.80487804878049,14.329268292682926 38.109756097560975,14.583333333333332 38.41463414634146,14.83739837398374 38.87195121951219,15.091463414634147 39.329268292682926,15.345528455284553 39.83739837398374,15.59959349593496 40.396341463414636,15.802845528455284 40.90447154471545,15.853658536585366 41.46341463414634,15.802845528455284 42.02235772357724,15.59959349593496 42.3780487804878,15.396341463414634 42.733739837398375,15.19308943089431 42.98780487804878,14.989837398373984 43.140243902439025,14.83739837398374 43.1910569105691,14.786585365853659 43.292682926829265,14.48170731707317 43.292682926829265,14.278455284552845 43.24186991869919,14.024390243902438" fill="none" stroke="black" stroke-width="0.6"></polyline><polyline points="28.55691056910569,10.365853658536585 28.506097560975608,10.111788617886178 28.404471544715445,9.80691056910569 28.353658536585364,9.705284552845528 28.353658536585364,9.705284552845528 28.353658536585364,9.705284552845528 28.404471544715445,9.705284552845528 28.455284552845526,9.75609756097561 28.55691056910569,9.908536585365853 28.60772357723577,10.010162601626016" fill="none" stroke="black" stroke-width="0.6"></polyline><polyline points="47.357723577235774,14.53252032520325 47.357723577235774,14.53252032520325 47.357723577235774,14.48170731707317 47.357723577235774,14.430894308943088 47.357723577235774,14.430894308943088 47.357723577235774,14.380081300813007 47.459349593495936,14.329268292682926 47.5609756097561,14.278455284552845 47.71341463414634,14.1260162601626 47.916666666666664,13.973577235772357 48.170731707317074,13.71951219512195 48.47560975609756,13.3130081300813 48.83130081300813,12.855691056910569 49.1869918699187,12.296747967479675 49.542682926829265,11.6869918699187 49.796747967479675,11.178861788617885 49.949186991869915,10.670731707317072 50.10162601626016,10.213414634146341 50.203252032520325,9.75609756097561 50.203252032520325,9.451219512195122 50.2540650406504,9.146341463414634 50.2540650406504,8.99390243902439 50.2540650406504,8.892276422764228 50.2540650406504,8.841463414634147 50.2540650406504,8.841463414634147 50.203252032520325,8.892276422764228 50.15243902439024,8.99390243902439 50.05081300813008,9.247967479674797 49.89837398373984,9.654471544715447 49.69512195121951,10.213414634146341 49.49186991869919,10.873983739837398 49.28861788617886,11.534552845528456 49.23780487804878,11.991869918699187 49.136178861788615,12.5 48.983739837398375,13.516260162601625 48.88211382113821,14.583333333333332 48.78048780487805,15.701219512195122 48.729674796747965,16.463414634146343 48.729674796747965,17.1239837398374 48.729674796747965,17.632113821138212 48.78048780487805,17.98780487804878 48.83130081300813,18.191056910569106 48.88211382113821,18.39430894308943 48.93292682926829,18.445121951219512 48.983739837398375,18.495934959349594 48.983739837398375,18.495934959349594 49.03455284552845,18.39430894308943 49.03455284552845,18.241869918699187 49.136178861788615,17.98780487804878 49.23780487804878,17.632113821138212 49.390243902439025,17.17479674796748" fill="none" stroke="black" stroke-width="0.6"></polyline><polyline points="49.390243902439025,17.17479674796748 49.542682926829265,16.666666666666668 49.69512195121951,16.209349593495933 49.89837398373984,15.752032520325203 50.10162601626016,15.294715447154472 50.2540650406504,14.888211382113822 50.40650406504065,14.48170731707317 50.50813008130081,14.1260162601626 50.50813008130081,13.922764227642276 50.50813008130081,13.71951219512195 50.45731707317073,13.567073170731707 50.30487804878049,13.465447154471544 50.15243902439024,13.363821138211382 50,13.262195121951219 49.796747967479675,13.160569105691057 49.59349593495935,13.160569105691057 49.4410569105691,13.109756097560975 49.28861788617886,13.109756097560975 49.136178861788615,13.109756097560975 49.03455284552845,13.160569105691057 48.88211382113821,13.262195121951219 48.78048780487805,13.363821138211382 48.729674796747965,13.465447154471544 48.6280487804878,13.617886178861788 48.6280487804878,13.71951219512195 48.6280487804878,13.871951219512194 48.6280487804878,13.973577235772357 48.67886178861789,14.1260162601626 48.83130081300813,14.227642276422763 49.03455284552845,14.278455284552845 49.28861788617886,14.329268292682926 49.542682926829265,14.329268292682926 49.84756097560975,14.227642276422763 50.203252032520325,14.07520325203252 50.45731707317073,13.871951219512194 50.762195121951216,13.66869918699187 50.96544715447154,13.465447154471544 51.11788617886179,13.262195121951219 51.168699186991866,13.160569105691057 51.168699186991866,13.109756097560975 51.168699186991866,13.058943089430894 51.11788617886179,13.058943089430894 51.11788617886179,13.058943089430894 51.0670731707317,13.058943089430894 51.016260162601625,13.109756097560975 50.96544715447154,13.211382113821138 50.96544715447154,13.363821138211382 50.91463414634146,13.567073170731707 50.91463414634146,13.821138211382113 50.91463414634146,14.07520325203252 50.91463414634146,14.329268292682926" fill="none" stroke="black" stroke-width="0.6"></polyline><polyline points="50.91463414634146,14.329268292682926 51.016260162601625,14.634146341463413 51.168699186991866,14.786585365853659 51.37195121951219,14.939024390243903 51.6260162601626,15.040650406504065 51.829268292682926,15.040650406504065 52.083333333333336,14.888211382113822 52.33739837398374,14.684959349593496 52.59146341463415,14.430894308943088 52.74390243902439,14.227642276422763 52.896341463414636,13.922764227642276 52.947154471544714,13.71951219512195 52.947154471544714,13.465447154471544 52.947154471544714,13.211382113821138 52.84552845528455,12.957317073170731 52.74390243902439,12.703252032520325 52.59146341463415,12.449186991869919 52.489837398373986,12.245934959349594 52.38821138211382,12.144308943089431 52.33739837398374,12.09349593495935 52.33739837398374,12.09349593495935 52.28658536585366,12.09349593495935 52.28658536585366,12.144308943089431 52.28658536585366,12.245934959349594 52.235772357723576,12.398373983739837 52.235772357723576,12.550813008130081 52.235772357723576,12.754065040650406 52.235772357723576,12.957317073170731 52.28658536585366,13.109756097560975 52.33739837398374,13.262195121951219 52.38821138211382,13.414634146341463 52.489837398373986,13.567073170731707 52.59146341463415,13.617886178861788 52.74390243902439,13.71951219512195 52.896341463414636,13.71951219512195 52.9979674796748,13.71951219512195 53.15040650406504,13.71951219512195 53.302845528455286,13.66869918699187 53.45528455284553,13.567073170731707 53.65853658536585,13.465447154471544 53.86178861788618,13.3130081300813 54.0650406504065,13.109756097560975 54.31910569105691,12.90650406504065 54.52235772357724,12.754065040650406 54.77642276422764,12.601626016260163 55.03048780487805,12.449186991869919 55.233739837398375,12.347560975609756 55.4369918699187,12.347560975609756 55.58943089430894,12.347560975609756 55.74186991869919,12.449186991869919 55.84349593495935,12.652439024390244" fill="none" stroke="black" stroke-width="0.6"></polyline><polyline points="55.84349593495935,12.652439024390244 55.99593495934959,12.90650406504065 56.09756097560975,13.160569105691057 56.199186991869915,13.414634146341463 56.35162601626016,13.66869918699187 56.453252032520325,13.871951219512194 56.55487804878049,14.1260162601626 56.70731707317073,14.329268292682926 56.91056910569105,14.48170731707317 57.0630081300813,14.634146341463413 57.3170731707317,14.735772357723578 57.57113821138211,14.735772357723578 57.8760162601626,14.735772357723578 58.18089430894309,14.735772357723578 58.43495934959349,14.634146341463413 58.63821138211382,14.53252032520325 58.892276422764226,14.430894308943088 59.04471544715447,14.278455284552845 59.197154471544714,14.1260162601626 59.298780487804876,13.922764227642276 59.40040650406504,13.66869918699187" fill="none" stroke="black" stroke-width="0.6"></polyline><polyline points="59.451219512195124,12.144308943089431 59.451219512195124,11.991869918699187 59.451219512195124,11.788617886178862 59.40040650406504,11.534552845528456 59.34959349593496,11.382113821138212 59.2479674796748,11.280487804878048 59.09552845528455,11.229674796747966 58.84146341463415,11.229674796747966 58.58739837398374,11.280487804878048 58.28252032520325,11.382113821138212 57.97764227642276,11.636178861788618 57.62195121951219,11.941056910569106 57.3170731707317,12.296747967479675 56.96138211382114,12.754065040650406 56.70731707317073,13.160569105691057 56.5040650406504,13.567073170731707 56.30081300813008,13.973577235772357 56.14837398373984,14.329268292682926 56.09756097560975,14.735772357723578 56.046747967479675,15.091463414634147 56.046747967479675,15.396341463414634 56.046747967479675,15.65040650406504 56.046747967479675,15.802845528455284 56.046747967479675,15.955284552845528 56.046747967479675,16.006097560975608 56.046747967479675,16.05691056910569 56.046747967479675,16.05691056910569 56.046747967479675,16.05691056910569 56.046747967479675,16.006097560975608 56.046747967479675,16.006097560975608 56.046747967479675,16.006097560975608 56.046747967479675,16.006097560975608 56.046747967479675,16.006097560975608 56.046747967479675,15.955284552845528 56.046747967479675,15.955284552845528 56.046747967479675,15.955284552845528 56.046747967479675,15.955284552845528 56.046747967479675,15.955284552845528 56.046747967479675,15.955284552845528 56.046747967479675,15.904471544715447 56.046747967479675,15.904471544715447 56.046747967479675,15.904471544715447 56.046747967479675,15.904471544715447 56.046747967479675,15.904471544715447 56.046747967479675,15.904471544715447 56.046747967479675,15.904471544715447 56.046747967479675,15.904471544715447 56.046747967479675,15.904471544715447 56.046747967479675,15.904471544715447 56.046747967479675,15.904471544715447 56.046747967479675,15.904471544715447" fill="none" stroke="black" stroke-width="0.6"></polyline><polyline points="56.046747967479675,15.904471544715447 56.046747967479675,15.904471544715447 56.046747967479675,15.904471544715447" fill="none" stroke="black" stroke-width="0.6"></polyline><polyline points="63.109756097560975,16.05691056910569 63.109756097560975,16.05691056910569 63.109756097560975,16.006097560975608 63.109756097560975,15.904471544715447 63.109756097560975,15.904471544715447 63.16056910569105,15.853658536585366 63.21138211382114,15.752032520325203 63.41463414634146,15.701219512195122 63.668699186991866,15.548780487804878 64.02439024390243,15.396341463414634 64.380081300813,15.142276422764228 64.78658536585365,14.83739837398374 65.2439024390244,14.430894308943088 65.54878048780488,14.024390243902438 65.80284552845528,13.66869918699187 66.0569105691057,13.3130081300813 66.20934959349593,13.008130081300813 66.3109756097561,12.754065040650406 66.41260162601625,12.5 66.41260162601625,12.347560975609756 66.41260162601625,12.245934959349594 66.41260162601625,12.144308943089431 66.36178861788618,12.144308943089431 66.36178861788618,12.144308943089431 66.36178861788618,12.144308943089431 66.3109756097561,12.245934959349594 66.20934959349593,12.449186991869919 66.15853658536585,12.703252032520325 66.10772357723577,13.058943089430894 66.0060975609756,13.516260162601625 65.95528455284553,14.024390243902438 65.95528455284553,14.583333333333332 65.95528455284553,15.24390243902439 65.95528455284553,16.05691056910569 66.0060975609756,16.463414634146343 66.0060975609756,16.869918699186993 66.0060975609756,17.682926829268293 65.95528455284553,18.140243902439025 65.90447154471545,18.445121951219512 65.7520325203252,19.054878048780488 65.4979674796748,19.61382113821138 65.2439024390244,20.071138211382113 64.98983739837398,20.32520325203252 64.6849593495935,20.528455284552845 64.43089430894308,20.68089430894309 64.17682926829268,20.68089430894309 63.97357723577235,20.68089430894309 63.71951219512195,20.528455284552845 63.516260162601625,20.32520325203252 63.36382113821138,20.071138211382113 63.262195121951216,19.715447154471544" fill="none" stroke="black" stroke-width="0.6"></polyline><polyline points="63.262195121951216,19.715447154471544 63.262195121951216,19.308943089430894 63.262195121951216,18.851626016260163 63.41463414634146,18.34349593495935 63.61788617886179,17.835365853658537 63.97357723577235,17.225609756097562 64.43089430894308,16.666666666666668 64.9390243902439,16.006097560975608 65.4979674796748,15.345528455284553 66.0060975609756,14.786585365853659 66.51422764227642,14.278455284552845 66.869918699187,13.821138211382113 67.17479674796748,13.516260162601625 67.3780487804878,13.262195121951219 67.58130081300813,13.058943089430894 67.6829268292683,12.957317073170731 67.6829268292683,12.957317073170731 67.73373983739837,12.957317073170731 67.73373983739837,12.957317073170731 67.73373983739837,12.957317073170731 67.6829268292683,13.109756097560975 67.6321138211382,13.3130081300813 67.53048780487805,13.567073170731707 67.42886178861788,13.973577235772357 67.32723577235772,14.329268292682926 67.22560975609755,14.735772357723578 67.1239837398374,15.142276422764228 67.07317073170732,15.497967479674797 67.07317073170732,15.802845528455284 67.07317073170732,16.10772357723577 67.1239837398374,16.209349593495933 67.22560975609755,16.209349593495933 67.42886178861788,16.15853658536585 67.6829268292683,15.904471544715447 67.98780487804878,15.59959349593496 68.29268292682927,15.19308943089431 68.64837398373983,14.786585365853659 68.95325203252033,14.380081300813007 69.2581300813008,13.922764227642276 69.41056910569105,13.617886178861788 69.5630081300813,13.363821138211382 69.66463414634146,13.160569105691057 69.66463414634146,13.160569105691057 69.66463414634146,13.160569105691057 69.66463414634146,13.211382113821138 69.61382113821138,13.363821138211382 69.5630081300813,13.567073170731707 69.46138211382113,13.871951219512194 69.41056910569105,14.227642276422763 69.35975609756098,14.634146341463413 69.3089430894309,15.040650406504065" fill="none" stroke="black" stroke-width="0.6"></polyline><polyline points="69.3089430894309,15.040650406504065 69.2581300813008,15.396341463414634 69.2581300813008,15.701219512195122 69.3089430894309,15.904471544715447 69.41056910569105,16.006097560975608 69.5630081300813,16.006097560975608 69.8170731707317,15.904471544715447 70.0711382113821,15.65040650406504 70.32520325203252,15.396341463414634 70.630081300813,15.040650406504065 70.9349593495935,14.684959349593496 71.23983739837398,14.278455284552845 71.59552845528455,13.922764227642276 71.84959349593495,13.66869918699187 72.05284552845528,13.414634146341463 72.2560975609756,13.211382113821138 72.40853658536585,13.109756097560975 72.45934959349593,13.109756097560975 72.45934959349593,13.160569105691057 72.45934959349593,13.211382113821138 72.45934959349593,13.414634146341463 72.45934959349593,13.617886178861788 72.45934959349593,13.871951219512194 72.40853658536585,14.176829268292682 72.35772357723577,14.48170731707317 72.2560975609756,14.786585365853659 72.20528455284553,15.091463414634147 72.15447154471545,15.24390243902439 72.15447154471545,15.345528455284553 72.15447154471545,15.396341463414634 72.15447154471545,15.396341463414634 72.20528455284553,15.294715447154472 72.35772357723577,15.142276422764228 72.5609756097561,14.888211382113822 72.76422764227642,14.53252032520325 73.01829268292683,14.176829268292682 73.27235772357723,13.821138211382113 73.52642276422765,13.465447154471544 73.83130081300813,13.211382113821138 73.98373983739837,13.058943089430894 74.03455284552845,13.008130081300813 74.08536585365853,13.008130081300813 74.08536585365853,13.058943089430894 74.08536585365853,13.211382113821138 74.03455284552845,13.363821138211382 73.98373983739837,13.617886178861788 73.9329268292683,13.871951219512194 73.83130081300813,14.1260162601626 73.78048780487805,14.380081300813007 73.78048780487805,14.583333333333332 73.78048780487805,14.735772357723578" fill="none" stroke="black" stroke-width="0.6"></polyline><polyline points="73.78048780487805,14.735772357723578 73.78048780487805,14.83739837398374 73.78048780487805,14.83739837398374 73.78048780487805,14.83739837398374 73.8821138211382,14.83739837398374 73.98373983739837,14.684959349593496 74.13617886178862,14.48170731707317 74.33943089430895,14.227642276422763 74.54268292682927,13.973577235772357 74.7459349593496,13.71951219512195 75,13.465447154471544 75.20325203252033,13.211382113821138 75.40650406504065,13.008130081300813 75.5589430894309,12.855691056910569 75.66056910569105,12.804878048780488 75.76219512195122,12.754065040650406 75.8130081300813,12.754065040650406 75.86382113821138,12.804878048780488 75.91463414634146,12.90650406504065 75.96544715447155,13.058943089430894 76.01626016260163,13.262195121951219 76.0670731707317,13.465447154471544 76.0670731707317,13.66869918699187 76.11788617886178,13.821138211382113 76.11788617886178,13.973577235772357 76.16869918699187,14.024390243902438 76.16869918699187,14.07520325203252 76.21951219512195,14.07520325203252 76.27032520325203,14.07520325203252 76.3211382113821,14.024390243902438 76.42276422764228,13.871951219512194 76.52439024390243,13.71951219512195 76.67682926829268,13.516260162601625 76.77845528455285,13.363821138211382 76.93089430894308,13.160569105691057 76.98170731707317,13.058943089430894 77.08333333333333,12.957317073170731 77.08333333333333,12.90650406504065 77.08333333333333,12.90650406504065 77.08333333333333,12.90650406504065 77.08333333333333,12.90650406504065 77.08333333333333,12.90650406504065 77.08333333333333,13.008130081300813 77.03252032520325,13.109756097560975 76.98170731707317,13.3130081300813 76.93089430894308,13.516260162601625 76.880081300813,13.71951219512195 76.77845528455285,14.024390243902438 76.67682926829268,14.329268292682926 76.52439024390243,14.786585365853659 76.3719512195122,15.294715447154472" fill="none" stroke="black" stroke-width="0.6"></polyline><polyline points="76.3719512195122,15.294715447154472 76.21951219512195,15.802845528455284 76.01626016260163,16.36178861788618 75.8130081300813,16.920731707317074 75.60975609756098,17.428861788617887 75.40650406504065,17.9369918699187 75.15243902439025,18.445121951219512 74.94918699186992,18.80081300813008 74.79674796747967,19.15650406504065 74.59349593495935,19.410569105691057 74.49186991869918,19.61382113821138 74.39024390243902,19.766260162601625 74.23780487804878,19.867886178861788 74.1869918699187,19.867886178861788 74.1869918699187,19.91869918699187 74.1869918699187,19.91869918699187 74.1869918699187,19.91869918699187 74.1869918699187,19.867886178861788 74.1869918699187,19.867886178861788 74.1869918699187,19.867886178861788 74.1869918699187,19.817073170731707 74.1869918699187,19.715447154471544 74.23780487804878,19.61382113821138 74.33943089430895,19.461382113821138 74.49186991869918,19.20731707317073 74.64430894308943,18.953252032520325 74.89837398373983,18.648373983739837 75.15243902439025,18.29268292682927 75.45731707317073,17.835365853658537 75.76219512195122,17.276422764227643 76.11788617886178,16.514227642276424 76.42276422764228,15.802845528455284 76.67682926829268,15.142276422764228 76.880081300813,14.430894308943088 77.03252032520325,13.871951219512194 77.23577235772358,13.465447154471544 77.4390243902439,13.160569105691057 77.6930894308943,13.008130081300813 77.89634146341463,12.90650406504065 78.09959349593495,12.855691056910569 78.30284552845528,12.90650406504065 78.5060975609756,13.008130081300813 78.65853658536585,13.211382113821138 78.8109756097561,13.516260162601625 78.86178861788618,13.821138211382113 78.91260162601625,14.1260162601626 78.8109756097561,14.48170731707317 78.60772357723577,14.83739837398374 78.35365853658537,15.19308943089431 78.09959349593495,15.447154471544716 77.74390243902438,15.59959349593496" fill="none" stroke="black" stroke-width="0.6"></polyline><polyline points="77.74390243902438,15.59959349593496 77.38821138211382,15.701219512195122 77.08333333333333,15.752032520325203 76.82926829268293,15.752032520325203 76.6260162601626,15.65040650406504 76.52439024390243,15.497967479674797 76.47357723577235,15.396341463414634 76.42276422764228,15.294715447154472 76.42276422764228,15.24390243902439 76.42276422764228,15.19308943089431 76.47357723577235,15.19308943089431 76.6260162601626,15.19308943089431 76.82926829268293,15.24390243902439 77.1341463414634,15.294715447154472 77.48983739837398,15.396341463414634 77.89634146341463,15.396341463414634 78.30284552845528,15.447154471544716 78.76016260162602,15.396341463414634 79.26829268292683,15.24390243902439 79.72560975609755,14.989837398373984 80.08130081300813,14.735772357723578 80.4369918699187,14.430894308943088 80.64024390243902,14.176829268292682 80.79268292682927,13.871951219512194 80.9451219512195,13.617886178861788 81.09756097560975,13.363821138211382 81.25,13.160569105691057 81.40243902439025,12.957317073170731 81.45325203252033,12.90650406504065 81.60569105691057,12.855691056910569 81.65650406504065,12.855691056910569 81.70731707317073,12.855691056910569 81.8089430894309,12.957317073170731 81.85975609756098,13.160569105691057 81.91056910569105,13.465447154471544 81.96138211382113,13.821138211382113 81.91056910569105,14.176829268292682 81.7581300813008,14.583333333333332 81.5040650406504,14.939024390243903 81.14837398373983,15.294715447154472 80.84349593495935,15.548780487804878 80.48780487804878,15.701219512195122 80.1321138211382,15.752032520325203 79.8780487804878,15.752032520325203 79.67479674796748,15.59959349593496 79.52235772357723,15.345528455284553 79.42073170731707,15.142276422764228 79.42073170731707,14.939024390243903 79.42073170731707,14.735772357723578 79.52235772357723,14.583333333333332 79.67479674796748,14.48170731707317" fill="none" stroke="black" stroke-width="0.6"></polyline><polyline points="79.67479674796748,14.48170731707317 79.92886178861788,14.380081300813007 80.23373983739837,14.329268292682926 80.6910569105691,14.329268292682926 81.30081300813008,14.329268292682926 81.96138211382113,14.380081300813007 82.72357723577235,14.380081300813007 83.48577235772358,14.430894308943088 84.14634146341463,14.380081300813007 84.70528455284553,14.278455284552845 85.21341463414635,14.1260162601626 85.5691056910569,13.922764227642276 85.8739837398374,13.770325203252032 86.1280487804878,13.617886178861788 86.28048780487805,13.465447154471544 86.4329268292683,13.3130081300813 86.53455284552845,13.109756097560975 86.58536585365853,12.957317073170731 86.58536585365853,12.804878048780488 86.58536585365853,12.652439024390244 86.58536585365853,12.601626016260163 86.53455284552845,12.550813008130081 86.3821138211382,12.449186991869919 86.1280487804878,12.449186991869919 85.72154471544715,12.398373983739837 85.26422764227642,12.398373983739837" fill="none" stroke="black" stroke-width="0.6"></polyline><polyline points="72.96747967479675,10.111788617886178 72.76422764227642,9.705284552845528 72.61178861788618,9.552845528455284 72.45934959349593,9.552845528455284 72.35772357723577,9.603658536585366 72.20528455284553,9.75609756097561 71.90040650406505,9.908536585365853" fill="none" stroke="black" stroke-width="0.6"></polyline><polyline points="13.821138211382113,32.0630081300813 13.821138211382113,32.0630081300813 13.770325203252032,32.012195121951216 13.770325203252032,31.961382113821138 13.770325203252032,31.961382113821138 13.770325203252032,31.961382113821138 13.770325203252032,31.961382113821138 13.770325203252032,31.961382113821138 13.770325203252032,31.961382113821138 13.770325203252032,31.961382113821138 13.770325203252032,31.961382113821138 13.770325203252032,31.961382113821138 13.871951219512194,31.859756097560975 14.024390243902438,31.70731707317073 14.227642276422763,31.554878048780488 14.48170731707317,31.351626016260163 14.83739837398374,31.097560975609756 15.19308943089431,30.84349593495935 15.548780487804878,30.589430894308943 15.853658536585366,30.38617886178862 16.15853658536585,30.284552845528456 16.41260162601626,30.284552845528456 16.666666666666668,30.284552845528456 16.81910569105691,30.38617886178862 17.022357723577237,30.538617886178862 17.225609756097562,30.79268292682927 17.378048780487806,31.097560975609756 17.479674796747968,31.453252032520325 17.632113821138212,31.910569105691057 17.682926829268293,32.418699186991866 17.733739837398375,33.02845528455285 17.733739837398375,33.63821138211382 17.733739837398375,34.09552845528455 17.733739837398375,34.552845528455286 17.682926829268293,34.857723577235774 17.632113821138212,35.0609756097561 17.58130081300813,35.21341463414634 17.53048780487805,35.264227642276424 17.479674796747968,35.264227642276424 17.428861788617887,35.21341463414634 17.378048780487806,35.16260162601626 17.378048780487806,34.959349593495936 17.378048780487806,34.75609756097561 17.378048780487806,34.40040650406504 17.378048780487806,33.99390243902439 17.479674796747968,33.58739837398374 17.632113821138212,33.079268292682926 17.835365853658537,32.6219512195122 18.089430894308943,32.11382113821138 18.34349593495935,31.65650406504065 18.648373983739837,31.351626016260163" fill="none" stroke="black" stroke-width="0.6"></polyline><polyline points="18.648373983739837,31.351626016260163 18.851626016260163,31.148373983739837 19.10569105691057,30.995934959349594 19.258130081300813,30.995934959349594 19.359756097560975,30.995934959349594 19.51219512195122,30.995934959349594 19.664634146341463,31.097560975609756 19.766260162601625,31.19918699186992 19.867886178861788,31.351626016260163 19.96951219512195,31.554878048780488 20.020325203252032,31.758130081300813 20.020325203252032,32.11382113821138 20.071138211382113,32.418699186991866 20.071138211382113,32.82520325203252 20.071138211382113,33.28252032520325 20.020325203252032,33.6890243902439 20.020325203252032,34.09552845528455 20.020325203252032,34.5020325203252 20.020325203252032,34.75609756097561 20.071138211382113,34.959349593495936 20.172764227642276,35.11178861788618 20.32520325203252,35.11178861788618 20.426829268292682,35.16260162601626 20.630081300813007,35.11178861788618 20.78252032520325,35.010162601626014 20.985772357723576,34.80691056910569 21.239837398373982,34.552845528455286 21.49390243902439,34.298780487804876 21.697154471544714,33.99390243902439 21.95121951219512,33.63821138211382 22.154471544715445,33.28252032520325 22.30691056910569,32.97764227642276 22.459349593495933,32.672764227642276 22.611788617886177,32.36788617886179 22.71341463414634,32.11382113821138 22.764227642276424,31.910569105691057 22.764227642276424,31.859756097560975 22.764227642276424,31.808943089430894 22.764227642276424,31.808943089430894 22.764227642276424,31.859756097560975 22.764227642276424,31.910569105691057 22.764227642276424,32.012195121951216 22.764227642276424,32.16463414634146 22.71341463414634,32.418699186991866 22.71341463414634,32.72357723577236 22.71341463414634,33.02845528455285 22.662601626016258,33.38414634146341 22.662601626016258,33.739837398373986 22.662601626016258,33.99390243902439 22.764227642276424,34.298780487804876 22.865853658536587,34.552845528455286" fill="none" stroke="black" stroke-width="0.6"></polyline><polyline points="22.865853658536587,34.552845528455286 23.06910569105691,34.70528455284553 23.272357723577237,34.80691056910569 23.475609756097562,34.80691056910569 23.678861788617887,34.70528455284553 23.983739837398375,34.5020325203252 24.23780487804878,34.2479674796748 24.54268292682927,33.892276422764226 24.898373983739837,33.53658536585366 25.254065040650406,33.18089430894309 25.609756097560975,32.82520325203252 25.965447154471544,32.46951219512195 26.21951219512195,32.266260162601625 26.422764227642276,32.0630081300813 26.6260162601626,31.859756097560975 26.778455284552845,31.758130081300813 26.93089430894309,31.70731707317073 27.03252032520325,31.65650406504065 27.083333333333332,31.60569105691057 27.134146341463413,31.554878048780488 27.184959349593495,31.504065040650406 27.184959349593495,31.504065040650406 27.184959349593495,31.402439024390244 27.184959349593495,31.351626016260163 27.134146341463413,31.30081300813008 27.03252032520325,31.25 26.93089430894309,31.19918699186992 26.778455284552845,31.148373983739837 26.524390243902438,31.148373983739837 26.270325203252032,31.25 25.965447154471544,31.402439024390244 25.660569105691057,31.60569105691057 25.304878048780488,31.859756097560975 25.05081300813008,32.21544715447154 24.796747967479675,32.6219512195122 24.64430894308943,33.02845528455285 24.59349593495935,33.4349593495935 24.59349593495935,33.84146341463415 24.745934959349594,34.197154471544714 24.898373983739837,34.451219512195124 25.101626016260163,34.65447154471545 25.304878048780488,34.70528455284553 25.508130081300813,34.70528455284553 25.711382113821138,34.70528455284553 25.965447154471544,34.5020325203252 26.270325203252032,34.197154471544714 26.57520325203252,33.790650406504064 26.880081300813007,33.38414634146341 27.184959349593495,32.926829268292686 27.4390243902439,32.57113821138211 27.642276422764226,32.21544715447154" fill="none" stroke="black" stroke-width="0.6"></polyline><polyline points="27.642276422764226,32.21544715447154 27.74390243902439,31.961382113821138 27.79471544715447,31.758130081300813 27.84552845528455,31.65650406504065 27.84552845528455,31.65650406504065 27.84552845528455,31.65650406504065 27.84552845528455,31.65650406504065 27.84552845528455,31.70731707317073 27.84552845528455,31.808943089430894 27.84552845528455,32.012195121951216 27.84552845528455,32.3170731707317 27.896341463414632,32.72357723577236 27.947154471544714,33.13008130081301 27.997967479674795,33.6890243902439 28.048780487804876,34.34959349593496 28.048780487804876,35.0609756097561 28.048780487804876,35.77235772357724 27.997967479674795,36.53455284552845 27.84552845528455,37.19512195121951 27.642276422764226,37.80487804878049 27.4390243902439,38.41463414634146 27.184959349593495,38.87195121951219 26.880081300813007,39.176829268292686 26.6260162601626,39.43089430894309 26.371951219512194,39.48170731707317 26.21951219512195,39.48170731707317 26.016260162601625,39.38008130081301 25.914634146341463,39.22764227642276 25.76219512195122,38.97357723577235 25.660569105691057,38.61788617886179 25.609756097560975,38.262195121951216 25.609756097560975,37.855691056910565 25.609756097560975,37.39837398373984 25.711382113821138,36.9410569105691 25.914634146341463,36.38211382113821 26.21951219512195,35.670731707317074 26.676829268292682,35.010162601626014 27.184959349593495,34.298780487804876 27.693089430894307,33.53658536585366 28.20121951219512,32.926829268292686 28.65853658536585,32.3170731707317 29.115853658536583,31.70731707317073 29.471544715447155,31.148373983739837 29.878048780487806,30.538617886178862 30.182926829268293,29.979674796747968 30.4369918699187,29.471544715447155 30.640243902439025,29.0650406504065 30.79268292682927,28.709349593495933 30.89430894308943,28.455284552845526 30.945121951219512,28.20121951219512 30.995934959349594,28.048780487804876" fill="none" stroke="black" stroke-width="0.6"></polyline><polyline points="30.995934959349594,28.048780487804876 30.995934959349594,27.997967479674795 30.995934959349594,27.997967479674795 30.995934959349594,27.997967479674795 30.995934959349594,28.048780487804876 30.945121951219512,28.20121951219512 30.89430894308943,28.55691056910569 30.741869918699187,28.96341463414634 30.640243902439025,29.471544715447155 30.538617886178862,30.08130081300813 30.4369918699187,30.640243902439025 30.335365853658537,31.19918699186992 30.233739837398375,31.758130081300813 30.233739837398375,32.266260162601625 30.182926829268293,32.72357723577236 30.182926829268293,33.13008130081301 30.132113821138212,33.485772357723576 30.132113821138212,33.739837398373986 30.08130081300813,33.94308943089431 30.03048780487805,34.146341463414636 29.928861788617887,34.298780487804876 29.878048780487806,34.451219512195124 29.827235772357724,34.552845528455286 29.776422764227643,34.603658536585364 29.776422764227643,34.65447154471545 29.776422764227643,34.65447154471545 29.776422764227643,34.65447154471545 29.776422764227643,34.65447154471545 29.776422764227643,34.65447154471545 29.776422764227643,34.65447154471545 29.776422764227643,34.65447154471545 29.776422764227643,34.603658536585364 29.776422764227643,34.603658536585364 29.776422764227643,34.603658536585364 29.776422764227643,34.552845528455286 29.776422764227643,34.5020325203252 29.776422764227643,34.34959349593496 29.776422764227643,34.197154471544714 29.776422764227643,33.94308943089431 29.878048780487806,33.6890243902439 29.979674796747968,33.38414634146341 30.132113821138212,33.079268292682926 30.335365853658537,32.77439024390244 30.589430894308943,32.52032520325203 30.84349593495935,32.266260162601625 30.995934959349594,32.16463414634146 31.148373983739837,32.11382113821138 31.30081300813008,32.11382113821138 31.402439024390244,32.16463414634146 31.504065040650406,32.3170731707317 31.60569105691057,32.52032520325203" fill="none" stroke="black" stroke-width="0.6"></polyline><polyline points="31.60569105691057,32.52032520325203 31.70731707317073,32.77439024390244 31.758130081300813,33.02845528455285 31.808943089430894,33.333333333333336 31.808943089430894,33.6890243902439 31.859756097560975,33.99390243902439 31.859756097560975,34.34959349593496 31.859756097560975,34.603658536585364 31.910569105691057,34.80691056910569 32.012195121951216,34.959349593495936 32.11382113821138,35.010162601626014 32.21544715447154,35.0609756097561 32.418699186991866,35.0609756097561 32.57113821138211,35.010162601626014 32.77439024390244,34.857723577235774 33.02845528455285,34.65447154471545 33.28252032520325,34.34959349593496 33.53658536585366,33.99390243902439 33.84146341463415,33.53658536585366 34.09552845528455,33.079268292682926 34.34959349593496,32.52032520325203 34.603658536585364,31.910569105691057 34.80691056910569,31.30081300813008 34.959349593495936,30.741869918699187 35.0609756097561,30.233739837398375 35.11178861788618,29.776422764227643 35.11178861788618,29.31910569105691 35.11178861788618,28.96341463414634 35.11178861788618,28.810975609756095 35.11178861788618,28.65853658536585 35.11178861788618,28.506097560975608 35.11178861788618,28.455284552845526 35.11178861788618,28.455284552845526 35.11178861788618,28.455284552845526 35.11178861788618,28.455284552845526 35.11178861788618,28.506097560975608 35.0609756097561,28.65853658536585 35.010162601626014,28.96341463414634 34.959349593495936,29.31910569105691 34.857723577235774,29.725609756097562 34.75609756097561,30.233739837398375 34.65447154471545,30.79268292682927 34.552845528455286,31.351626016260163 34.5020325203252,31.961382113821138 34.40040650406504,32.6219512195122 34.40040650406504,33.23170731707317 34.34959349593496,33.739837398373986 34.34959349593496,34.197154471544714 34.40040650406504,34.5020325203252 34.451219512195124,34.70528455284553 34.552845528455286,34.80691056910569" fill="none" stroke="black" stroke-width="0.6"></polyline><polyline points="34.552845528455286,34.80691056910569 34.603658536585364,34.857723577235774 34.70528455284553,34.857723577235774 34.75609756097561,34.857723577235774 34.80691056910569,34.857723577235774 34.90853658536585,34.80691056910569 34.959349593495936,34.75609756097561 35.0609756097561,34.65447154471545 35.21341463414634,34.5020325203252 35.36585365853659,34.34959349593496 35.77235772357724,33.790650406504064 35.97560975609756,33.38414634146341 36.229674796747965,32.926829268292686 36.483739837398375,32.36788617886179 36.6869918699187,31.859756097560975 36.890243902439025,31.25 37.042682926829265,30.691056910569106 37.09349593495935,30.284552845528456 37.14430894308943,29.878048780487806 37.19512195121951,29.522357723577237 37.19512195121951,29.268292682926827 37.14430894308943,29.115853658536583 37.09349593495935,29.01422764227642 37.09349593495935,28.96341463414634 37.042682926829265,28.96341463414634 37.042682926829265,29.01422764227642 36.99186991869919,29.01422764227642 36.9410569105691,29.166666666666664 36.83943089430894,29.420731707317074 36.6869918699187,29.776422764227643 36.53455284552845,30.182926829268293 36.38211382113821,30.691056910569106 36.28048780487805,31.148373983739837 36.17886178861789,31.65650406504065 36.1280487804878,32.266260162601625 36.1280487804878,32.82520325203252 36.1280487804878,33.333333333333336 36.229674796747965,33.739837398373986 36.38211382113821,33.99390243902439 36.58536585365854,34.146341463414636 36.73780487804878,34.197154471544714 36.9410569105691,34.197154471544714 37.14430894308943,34.09552845528455 37.39837398373984,33.892276422764226 37.65243902439024,33.63821138211382 37.90650406504065,33.333333333333336 38.16056910569105,32.97764227642276 38.36382113821138,32.6219512195122 38.516260162601625,32.3170731707317 38.61788617886179,32.16463414634146 38.61788617886179,32.11382113821138" fill="none" stroke="black" stroke-width="0.6"></polyline><polyline points="38.61788617886179,32.11382113821138 38.61788617886179,32.11382113821138 38.5670731707317,32.16463414634146 38.516260162601625,32.266260162601625 38.46544715447154,32.46951219512195 38.46544715447154,32.77439024390244 38.46544715447154,33.079268292682926 38.46544715447154,33.38414634146341 38.46544715447154,33.6890243902439 38.5670731707317,33.892276422764226 38.668699186991866,34.04471544715447 38.82113821138211,34.146341463414636 38.97357723577235,34.146341463414636 39.1260162601626,34.09552845528455 39.329268292682926,33.99390243902439 39.583333333333336,33.790650406504064 39.83739837398374,33.53658536585366 40.09146341463415,33.28252032520325 40.29471544715447,33.02845528455285 40.4979674796748,32.82520325203252 40.59959349593496,32.672764227642276 40.65040650406504,32.6219512195122 40.65040650406504,32.6219512195122 40.65040650406504,32.6219512195122 40.701219512195124,32.77439024390244 40.7520325203252,33.02845528455285 40.853658536585364,33.333333333333336 40.95528455284553,33.790650406504064 41.05691056910569,34.451219512195124 41.107723577235774,35.16260162601626 41.107723577235774,35.92479674796748 41.05691056910569,36.78861788617886 40.853658536585364,37.5 40.548780487804876,38.262195121951216 40.19308943089431,39.02439024390244 39.78658536585366,39.53252032520325 39.329268292682926,39.88821138211382 38.82113821138211,40.142276422764226 38.46544715447154,40.24390243902439 38.21138211382114,40.24390243902439 37.95731707317073,40.142276422764226 37.703252032520325,39.989837398373986 37.449186991869915,39.6849593495935 37.24593495934959,39.176829268292686 37.09349593495935,38.61788617886179 37.09349593495935,38.00813008130081 37.09349593495935,37.39837398373984 37.24593495934959,36.83943089430894 37.449186991869915,36.28048780487805 37.80487804878049,35.72154471544715 38.21138211382114,35.264227642276424" fill="none" stroke="black" stroke-width="0.6"></polyline><polyline points="38.21138211382114,35.264227642276424 38.668699186991866,34.90853658536585 39.1260162601626,34.603658536585364 39.48170731707317,34.451219512195124 39.78658536585366,34.451219512195124 40.040650406504064,34.5020325203252 40.19308943089431,34.603658536585364 40.29471544715447,34.70528455284553 40.34552845528455,34.857723577235774 40.34552845528455,34.90853658536585" fill="none" stroke="black" stroke-width="0.6"></polyline><polyline points="39.78658536585366,34.5020325203252 39.583333333333336,34.34959349593496 39.329268292682926,34.09552845528455" fill="none" stroke="black" stroke-width="0.6"></polyline><polyline points="33.333333333333336,31.453252032520325 33.28252032520325,31.453252032520325 33.18089430894309,31.351626016260163 33.13008130081301,31.25 33.079268292682926,31.19918699186992 33.079268292682926,31.19918699186992 33.079268292682926,31.19918699186992 33.13008130081301,31.19918699186992 33.28252032520325,31.19918699186992 33.58739837398374,31.097560975609756 34.04471544715447,30.995934959349594 34.603658536585364,30.84349593495935 35.36585365853659,30.640243902439025 36.1280487804878,30.38617886178862 36.83943089430894,30.233739837398375 37.34756097560975,30.08130081300813 37.60162601626016,29.979674796747968 37.65243902439024,29.928861788617887" fill="none" stroke="black" stroke-width="0.6"></polyline><polyline points="22.0020325203252,30.132113821138212 21.798780487804876,30.08130081300813 21.49390243902439,29.979674796747968 21.290650406504064,29.979674796747968 21.239837398373982,30.182926829268293 21.1890243902439,30.38617886178862 21.13821138211382,30.538617886178862" fill="none" stroke="black" stroke-width="0.6"></polyline><polyline points="49.390243902439025,31.859756097560975 49.390243902439025,31.758130081300813 49.390243902439025,31.504065040650406 49.390243902439025,31.402439024390244 49.4410569105691,31.30081300813008 49.542682926829265,31.19918699186992 49.64430894308943,31.148373983739837 49.69512195121951,31.046747967479675 49.74593495934959,30.945121951219512 49.796747967479675,30.89430894308943 49.796747967479675,30.84349593495935 49.69512195121951,30.79268292682927 49.542682926829265,30.79268292682927 49.28861788617886,30.79268292682927 48.983739837398375,30.79268292682927 48.6280487804878,30.945121951219512 48.323170731707314,31.097560975609756 48.01829268292683,31.351626016260163 47.71341463414634,31.65650406504065 47.510162601626014,32.012195121951216 47.357723577235774,32.418699186991866 47.30691056910569,32.8760162601626 47.25609756097561,33.28252032520325 47.25609756097561,33.739837398373986 47.357723577235774,34.09552845528455 47.459349593495936,34.34959349593496 47.61178861788618,34.5020325203252 47.764227642276424,34.552845528455286 47.916666666666664,34.552845528455286 48.06910569105691,34.451219512195124 48.22154471544715,34.298780487804876 48.3739837398374,34.09552845528455 48.52642276422764,33.84146341463415 48.67886178861789,33.53658536585366 48.78048780487805,33.23170731707317 48.88211382113821,32.8760162601626 48.93292682926829,32.6219512195122 48.93292682926829,32.3170731707317 48.93292682926829,32.11382113821138 48.88211382113821,31.961382113821138 48.83130081300813,31.910569105691057 48.83130081300813,31.910569105691057 48.78048780487805,31.910569105691057 48.78048780487805,32.0630081300813 48.78048780487805,32.266260162601625 48.78048780487805,32.57113821138211 48.83130081300813,32.8760162601626 48.983739837398375,33.23170731707317 49.136178861788615,33.53658536585366 49.33943089430894,33.84146341463415 49.64430894308943,34.09552845528455" fill="none" stroke="black" stroke-width="0.6"></polyline><polyline points="49.64430894308943,34.09552845528455 49.949186991869915,34.197154471544714 50.2540650406504,34.197154471544714 50.50813008130081,34.146341463414636 50.762195121951216,33.892276422764226 51.0670731707317,33.58739837398374 51.422764227642276,33.18089430894309 51.72764227642276,32.72357723577236 52.03252032520325,32.16463414634146 52.38821138211382,31.554878048780488 52.642276422764226,30.995934959349594 52.84552845528455,30.4369918699187 52.9979674796748,29.827235772357724 53.09959349593496,29.31910569105691 53.201219512195124,28.861788617886177 53.201219512195124,28.455284552845526 53.201219512195124,28.099593495934958 53.201219512195124,27.896341463414632 53.201219512195124,27.74390243902439 53.201219512195124,27.693089430894307 53.15040650406504,27.693089430894307 53.15040650406504,27.693089430894307 53.048780487804876,27.84552845528455 52.947154471544714,28.15040650406504 52.74390243902439,28.60772357723577 52.59146341463415,29.115853658536583 52.4390243902439,29.776422764227643 52.235772357723576,30.48780487804878 52.083333333333336,31.30081300813008 51.981707317073166,32.21544715447154 51.93089430894309,33.079268292682926 51.93089430894309,33.63821138211382 51.981707317073166,34.04471544715447 52.13414634146341,34.34959349593496 52.235772357723576,34.5020325203252 52.33739837398374,34.603658536585364 52.4390243902439,34.603658536585364 52.4390243902439,34.603658536585364 52.489837398373986,34.552845528455286 52.489837398373986,34.5020325203252 52.540650406504064,34.34959349593496 52.540650406504064,34.197154471544714 52.540650406504064,33.94308943089431 52.489837398373986,33.739837398373986 52.4390243902439,33.4349593495935 52.28658536585366,33.18089430894309 52.1849593495935,32.97764227642276 52.083333333333336,32.72357723577236 51.981707317073166,32.52032520325203 51.93089430894309,32.418699186991866 51.93089430894309,32.36788617886179" fill="none" stroke="black" stroke-width="0.6"></polyline><polyline points="51.93089430894309,32.36788617886179 51.981707317073166,32.36788617886179 52.1849593495935,32.36788617886179 52.489837398373986,32.418699186991866 52.896341463414636,32.46951219512195 53.353658536585364,32.46951219512195 53.91260162601626,32.46951219512195 54.420731707317074,32.3170731707317 54.8780487804878,32.16463414634146 55.33536585365854,31.961382113821138 55.6910569105691,31.808943089430894 55.89430894308943,31.65650406504065 56.09756097560975,31.60569105691057 56.14837398373984,31.60569105691057 56.14837398373984,31.60569105691057 56.14837398373984,31.70731707317073 56.09756097560975,31.910569105691057 56.09756097560975,32.21544715447154 56.046747967479675,32.57113821138211 55.99593495934959,32.97764227642276 55.94512195121951,33.4349593495935 55.94512195121951,33.94308943089431 55.94512195121951,34.298780487804876 55.94512195121951,34.603658536585364 55.94512195121951,34.80691056910569 55.99593495934959,34.90853658536585 56.046747967479675,34.90853658536585 56.14837398373984,34.857723577235774 56.25,34.65447154471545 56.35162601626016,34.34959349593496 56.5040650406504,33.99390243902439 56.55487804878049,33.63821138211382 56.605691056910565,33.333333333333336 56.65650406504065,32.97764227642276 56.605691056910565,32.6219512195122 56.5040650406504,32.3170731707317 56.30081300813008,32.012195121951216 56.14837398373984,31.808943089430894 55.99593495934959,31.758130081300813 55.94512195121951,31.70731707317073 55.89430894308943,31.70731707317073 55.89430894308943,31.758130081300813 55.89430894308943,31.859756097560975 55.89430894308943,32.012195121951216 55.89430894308943,32.16463414634146 55.89430894308943,32.266260162601625 55.99593495934959,32.36788617886179 56.14837398373984,32.46951219512195 56.35162601626016,32.52032520325203 56.55487804878049,32.52032520325203 56.80894308943089,32.52032520325203" fill="none" stroke="black" stroke-width="0.6"></polyline><polyline points="56.80894308943089,32.52032520325203 57.11382113821138,32.418699186991866 57.36788617886179,32.3170731707317 57.57113821138211,32.16463414634146 57.825203252032516,32.012195121951216 57.92682926829268,31.859756097560975 58.079268292682926,31.758130081300813 58.130081300813,31.65650406504065 58.130081300813,31.65650406504065 58.130081300813,31.65650406504065 58.130081300813,31.65650406504065 58.079268292682926,31.65650406504065 58.079268292682926,31.70731707317073 58.02845528455284,31.859756097560975 58.02845528455284,32.0630081300813 57.97764227642276,32.36788617886179 57.97764227642276,32.72357723577236 57.97764227642276,33.079268292682926 58.02845528455284,33.53658536585366 58.079268292682926,33.94308943089431 58.18089430894309,34.34959349593496 58.33333333333333,34.65447154471545 58.43495934959349,34.857723577235774 58.536585365853654,34.90853658536585 58.58739837398374,34.959349593495936 58.58739837398374,34.959349593495936 58.63821138211382,34.90853658536585 58.6890243902439,34.70528455284553 58.739837398373986,34.5020325203252 58.790650406504064,34.2479674796748 58.790650406504064,34.09552845528455 58.84146341463415,33.892276422764226 58.84146341463415,33.63821138211382 58.84146341463415,33.333333333333336 58.84146341463415,33.02845528455285 58.84146341463415,32.72357723577236 58.790650406504064,32.52032520325203 58.790650406504064,32.418699186991866 58.790650406504064,32.36788617886179 58.790650406504064,32.36788617886179 58.892276422764226,32.418699186991866 59.09552845528455,32.52032520325203 59.34959349593496,32.6219512195122 59.65447154471545,32.72357723577236 60.010162601626014,32.77439024390244 60.36585365853659,32.77439024390244 60.77235772357724,32.72357723577236 61.1280487804878,32.57113821138211 61.483739837398375,32.36788617886179 61.73780487804878,32.16463414634146 61.890243902439025,31.910569105691057" fill="none" stroke="black" stroke-width="0.6"></polyline><polyline points="61.890243902439025,31.910569105691057 61.99186991869919,31.70731707317073 62.042682926829265,31.554878048780488 62.042682926829265,31.402439024390244 61.9410569105691,31.351626016260163 61.83943089430894,31.30081300813008 61.636178861788615,31.30081300813008 61.483739837398375,31.30081300813008 61.229674796747965,31.402439024390244 61.02642276422764,31.60569105691057 60.8739837398374,31.859756097560975 60.670731707317074,32.16463414634146 60.51829268292683,32.46951219512195 60.416666666666664,32.8760162601626 60.3150406504065,33.38414634146341 60.3150406504065,33.892276422764226 60.3150406504065,34.298780487804876 60.46747967479675,34.65447154471545 60.56910569105691,34.857723577235774 60.72154471544715,34.90853658536585 60.8739837398374,34.959349593495936 61.02642276422764,34.959349593495936 61.17886178861789,34.857723577235774 61.43292682926829,34.65447154471545 61.6869918699187,34.40040650406504 61.9410569105691,34.04471544715447 62.19512195121951,33.739837398373986 62.39837398373984,33.4349593495935 62.55081300813008,33.13008130081301 62.60162601626016,32.8760162601626 62.60162601626016,32.672764227642276" fill="none" stroke="black" stroke-width="0.6"></polyline><polyline points="66.8191056910569,33.02845528455285 66.76829268292683,33.02845528455285 66.66666666666667,32.82520325203252 66.51422764227642,32.672764227642276 66.46341463414635,32.52032520325203 66.41260162601625,32.418699186991866 66.41260162601625,32.36788617886179 66.41260162601625,32.3170731707317 66.46341463414635,32.266260162601625 66.61585365853658,32.16463414634146 66.8191056910569,32.11382113821138 67.07317073170732,32.0630081300813 67.27642276422765,32.0630081300813 67.47967479674797,32.11382113821138 67.6321138211382,32.21544715447154 67.78455284552845,32.3170731707317 67.88617886178862,32.52032520325203 67.98780487804878,32.72357723577236 67.98780487804878,32.97764227642276 68.03861788617886,33.23170731707317 68.08943089430895,33.485772357723576 68.08943089430895,33.739837398373986 68.1910569105691,33.94308943089431 68.29268292682927,34.146341463414636 68.39430894308943,34.298780487804876 68.59756097560975,34.40040650406504 68.75,34.451219512195124 68.95325203252033,34.451219512195124 69.20731707317073,34.298780487804876 69.41056910569105,34.146341463414636 69.61382113821138,33.892276422764226 69.8170731707317,33.63821138211382 69.91869918699187,33.333333333333336 70.02032520325203,33.13008130081301 70.02032520325203,32.8760162601626 70.02032520325203,32.72357723577236 70.02032520325203,32.6219512195122 69.96951219512195,32.6219512195122 69.91869918699187,32.6219512195122 69.91869918699187,32.672764227642276 69.91869918699187,32.82520325203252 70.02032520325203,33.02845528455285 70.1219512195122,33.28252032520325 70.3760162601626,33.58739837398374 70.630081300813,33.790650406504064 70.9349593495935,33.99390243902439 71.34146341463415,34.146341463414636 71.64634146341463,34.197154471544714 71.90040650406505,34.197154471544714 72.15447154471545,34.04471544715447 72.3069105691057,33.84146341463415" fill="none" stroke="black" stroke-width="0.6"></polyline><polyline points="72.3069105691057,33.84146341463415 72.35772357723577,33.58739837398374 72.35772357723577,33.28252032520325 72.35772357723577,32.97764227642276 72.20528455284553,32.672764227642276 72.0020325203252,32.266260162601625 71.79878048780488,31.910569105691057 71.64634146341463,31.60569105691057 71.49390243902438,31.402439024390244 71.4430894308943,31.30081300813008 71.4430894308943,31.30081300813008 71.4430894308943,31.30081300813008 71.4430894308943,31.402439024390244 71.4430894308943,31.504065040650406 71.4430894308943,31.65650406504065 71.49390243902438,31.859756097560975 71.64634146341463,32.0630081300813 71.79878048780488,32.266260162601625 72.0020325203252,32.418699186991866 72.2560975609756,32.57113821138211 72.5609756097561,32.6219512195122 72.86585365853658,32.6219512195122 73.22154471544715,32.6219512195122 73.52642276422765,32.46951219512195 73.78048780487805,32.3170731707317 73.9329268292683,32.16463414634146 74.08536585365853,31.961382113821138 74.1869918699187,31.808943089430894 74.23780487804878,31.758130081300813 74.23780487804878,31.70731707317073 74.23780487804878,31.70731707317073 74.23780487804878,31.70731707317073 74.1869918699187,31.758130081300813 74.08536585365853,31.910569105691057 73.9329268292683,32.11382113821138 73.78048780487805,32.418699186991866 73.67886178861788,32.672764227642276 73.57723577235772,33.02845528455285 73.47560975609755,33.38414634146341 73.42479674796748,33.6890243902439 73.42479674796748,33.94308943089431 73.42479674796748,34.197154471544714 73.47560975609755,34.34959349593496 73.6280487804878,34.40040650406504 73.78048780487805,34.451219512195124 73.98373983739837,34.34959349593496 74.1869918699187,34.197154471544714 74.4410569105691,33.99390243902439 74.64430894308943,33.6890243902439 74.89837398373983,33.4349593495935 75.15243902439025,33.13008130081301" fill="none" stroke="black" stroke-width="0.6"></polyline><polyline points="75.15243902439025,33.13008130081301 75.35569105691057,32.8760162601626 75.5589430894309,32.52032520325203 75.76219512195122,32.266260162601625 75.91463414634146,32.012195121951216 76.11788617886178,31.808943089430894 76.27032520325203,31.70731707317073 76.42276422764228,31.60569105691057 76.57520325203252,31.554878048780488 76.72764227642276,31.554878048780488 76.880081300813,31.554878048780488 76.98170731707317,31.60569105691057 77.08333333333333,31.70731707317073 77.1849593495935,31.808943089430894 77.23577235772358,31.910569105691057 77.23577235772358,32.0630081300813 77.23577235772358,32.21544715447154 77.1341463414634,32.36788617886179 77.03252032520325,32.57113821138211 76.880081300813,32.77439024390244 76.72764227642276,32.97764227642276 76.57520325203252,33.18089430894309 76.42276422764228,33.333333333333336 76.27032520325203,33.485772357723576 76.16869918699187,33.53658536585366 76.11788617886178,33.58739837398374 76.0670731707317,33.58739837398374 76.0670731707317,33.58739837398374 76.0670731707317,33.53658536585366 76.11788617886178,33.4349593495935 76.16869918699187,33.23170731707317 76.3211382113821,33.079268292682926 76.47357723577235,32.8760162601626 76.57520325203252,32.72357723577236 76.77845528455285,32.6219512195122 76.93089430894308,32.52032520325203 77.1341463414634,32.52032520325203 77.38821138211382,32.52032520325203 77.64227642276423,32.672764227642276 77.89634146341463,32.926829268292686 78.15040650406505,33.23170731707317 78.35365853658537,33.63821138211382 78.45528455284553,34.146341463414636 78.5060975609756,34.70528455284553 78.45528455284553,35.3150406504065 78.2520325203252,35.8739837398374 77.9471544715447,36.483739837398375 77.54065040650406,37.09349593495935 77.08333333333333,37.60162601626016 76.52439024390243,38.05894308943089 75.96544715447155,38.41463414634146" fill="none" stroke="black" stroke-width="0.6"></polyline><polyline points="75.96544715447155,38.41463414634146 75.45731707317073,38.61788617886179 74.94918699186992,38.77032520325203 74.49186991869918,38.77032520325203 74.08536585365853,38.71951219512195 73.72967479674797,38.516260162601625 73.42479674796748,38.262195121951216 73.27235772357723,37.95731707317073 73.17073170731707,37.60162601626016 73.17073170731707,37.24593495934959 73.22154471544715,36.890243902439025 73.3739837398374,36.483739837398375 73.6280487804878,36.02642276422764 73.98373983739837,35.61991869918699 74.49186991869918,35.16260162601626 75.10162601626016,34.80691056910569 75.66056910569105,34.451219512195124 76.27032520325203,34.09552845528455 76.77845528455285,33.84146341463415 77.28658536585365,33.58739837398374 77.79471544715447,33.28252032520325 78.15040650406505,33.079268292682926 78.5569105691057,32.8760162601626 79.01422764227642,32.6219512195122 79.3191056910569,32.46951219512195 79.57317073170732,32.266260162601625 79.82723577235772,32.16463414634146 79.92886178861788,32.0630081300813 79.97967479674797,32.012195121951216 79.97967479674797,32.012195121951216 79.97967479674797,32.012195121951216 79.97967479674797,32.012195121951216 79.92886178861788,32.0630081300813 79.77642276422765,32.16463414634146 79.57317073170732,32.3170731707317 79.3191056910569,32.57113821138211 79.11585365853658,32.82520325203252 78.91260162601625,33.13008130081301 78.70934959349593,33.38414634146341 78.60772357723577,33.63821138211382 78.5060975609756,33.892276422764226 78.45528455284553,34.197154471544714 78.45528455284553,34.40040650406504 78.5060975609756,34.552845528455286 78.65853658536585,34.603658536585364 78.8109756097561,34.603658536585364 79.01422764227642,34.451219512195124 79.26829268292683,34.2479674796748 79.47154471544715,33.99390243902439 79.72560975609755,33.739837398373986 79.92886178861788,33.4349593495935" fill="none" stroke="black" stroke-width="0.6"></polyline><polyline points="79.92886178861788,33.4349593495935 80.08130081300813,33.13008130081301 80.1829268292683,32.8760162601626 80.23373983739837,32.672764227642276 80.23373983739837,32.57113821138211 80.23373983739837,32.52032520325203 80.1829268292683,32.52032520325203 80.1829268292683,32.57113821138211 80.1321138211382,32.72357723577236 80.1321138211382,32.926829268292686 80.1321138211382,33.02845528455285 80.08130081300813,33.4349593495935 80.1321138211382,33.739837398373986 80.1829268292683,33.94308943089431 80.28455284552845,34.146341463414636 80.38617886178862,34.2479674796748 80.48780487804878,34.298780487804876 80.58943089430895,34.298780487804876 80.6910569105691,34.2479674796748 80.74186991869918,34.09552845528455 80.84349593495935,33.892276422764226 80.9451219512195,33.63821138211382 80.9959349593496,33.38414634146341 81.09756097560975,33.079268292682926 81.14837398373983,32.82520325203252 81.30081300813008,32.57113821138211 81.40243902439025,32.36788617886179 81.55487804878048,32.21544715447154 81.70731707317073,32.11382113821138 81.85975609756098,32.11382113821138 81.96138211382113,32.11382113821138 82.01219512195122,32.21544715447154 82.0630081300813,32.36788617886179 82.0630081300813,32.52032520325203 82.0630081300813,32.72357723577236 82.0630081300813,32.97764227642276 82.01219512195122,33.23170731707317 81.96138211382113,33.4349593495935 81.96138211382113,33.6890243902439 81.96138211382113,33.892276422764226 81.96138211382113,34.09552845528455 82.01219512195122,34.2479674796748 82.11382113821138,34.40040650406504 82.21544715447155,34.451219512195124 82.36788617886178,34.451219512195124 82.5711382113821,34.451219512195124 82.77439024390243,34.298780487804876 82.97764227642276,34.09552845528455 83.23170731707317,33.84146341463415 83.48577235772358,33.58739837398374 83.73983739837398,33.28252032520325" fill="none" stroke="black" stroke-width="0.6"></polyline><polyline points="83.73983739837398,33.28252032520325 83.99390243902438,33.02845528455285 84.2479674796748,32.72357723577236 84.5020325203252,32.36788617886179 84.70528455284553,32.11382113821138 84.85772357723577,31.910569105691057 84.95934959349593,31.808943089430894 85.0609756097561,31.758130081300813 85.16260162601625,31.758130081300813 85.26422764227642,31.808943089430894 85.36585365853658,31.910569105691057 85.41666666666667,31.961382113821138 85.51829268292683,32.0630081300813 85.51829268292683,32.0630081300813 85.5691056910569,32.11382113821138 85.5691056910569,32.11382113821138 85.5691056910569,32.11382113821138 85.5691056910569,32.11382113821138 85.46747967479675,32.11382113821138 85.36585365853658,32.0630081300813 85.16260162601625,32.012195121951216 84.90853658536585,32.012195121951216 84.65447154471545,32.012195121951216 84.40040650406503,32.0630081300813 84.14634146341463,32.21544715447154 83.89227642276423,32.418699186991866 83.73983739837398,32.72357723577236 83.53658536585365,33.079268292682926 83.4349593495935,33.4349593495935 83.4349593495935,33.790650406504064 83.4349593495935,34.09552845528455 83.48577235772358,34.2479674796748 83.58739837398373,34.298780487804876 83.73983739837398,34.298780487804876 83.99390243902438,34.197154471544714 84.2479674796748,33.99390243902439 84.55284552845528,33.739837398373986 84.85772357723577,33.4349593495935 85.11178861788618,33.02845528455285 85.41666666666667,32.6219512195122 85.619918699187,32.11382113821138 85.72154471544715,31.60569105691057 85.82317073170732,31.046747967479675 85.82317073170732,30.48780487804878 85.82317073170732,29.979674796747968 85.77235772357723,29.471544715447155 85.72154471544715,29.166666666666664 85.67073170731707,28.96341463414634 85.67073170731707,28.912601626016258 85.619918699187,28.96341463414634 85.619918699187,29.115853658536583" fill="none" stroke="black" stroke-width="0.6"></polyline><polyline points="85.619918699187,29.115853658536583 85.51829268292683,29.31910569105691 85.36585365853658,29.67479674796748 85.26422764227642,30.182926829268293 85.16260162601625,30.691056910569106 85.0609756097561,31.25 84.95934959349593,31.859756097560975 84.85772357723577,32.46951219512195 84.85772357723577,33.02845528455285 84.85772357723577,33.58739837398374 84.90853658536585,33.99390243902439 85.01016260162602,34.2479674796748 85.16260162601625,34.552845528455286 85.41666666666667,34.65447154471545 85.67073170731707,34.75609756097561 85.97560975609755,34.80691056910569 86.22967479674797,34.80691056910569 86.4329268292683,34.75609756097561 86.53455284552845,34.70528455284553 86.58536585365853,34.65447154471545 86.78861788617886,34.552845528455286 86.99186991869918,34.451219512195124 87.2459349593496,34.2479674796748 87.55081300813008,34.09552845528455 87.85569105691057,33.892276422764226 88.10975609756098,33.6890243902439 88.36382113821138,33.58739837398374 88.5670731707317,33.4349593495935 88.66869918699187,33.38414634146341 88.77032520325203,33.38414634146341 88.77032520325203,33.38414634146341 88.77032520325203,33.38414634146341 88.77032520325203,33.38414634146341 88.71951219512195,33.4349593495935 88.66869918699187,33.485772357723576 88.61788617886178,33.58739837398374 88.46544715447155,33.6890243902439 88.3130081300813,33.790650406504064 88.0081300813008,33.84146341463415 87.65243902439025,33.892276422764226 87.5,33.892276422764226" fill="none" stroke="black" stroke-width="0.6"></polyline><polyline points="72.05284552845528,29.878048780487806 72.0020325203252,29.6239837398374 71.95121951219512,29.166666666666664 71.90040650406505,29.01422764227642 71.90040650406505,29.01422764227642 71.90040650406505,29.115853658536583 71.95121951219512,29.268292682926827 71.95121951219512,29.369918699186993" fill="none" stroke="black" stroke-width="0.6"></polyline><polyline points="92.1239837398374,33.6890243902439 91.869918699187,33.23170731707317 91.869918699187,33.18089430894309 91.869918699187,33.38414634146341 91.869918699187,33.4349593495935 91.869918699187,33.53658536585366 91.869918699187,33.63821138211382" fill="none" stroke="black" stroke-width="0.6"></polyline></svg>