<svg height="100" width="100" preserveAspectRatio="xMidYMid meet"><polyline points="49.74593495934959,50.45731707317073 49.74593495934959,50.45731707317073 49.74593495934959,50.45731707317073 49.74593495934959,50.45731707317073 49.74593495934959,50.45731707317073 49.74593495934959,50.45731707317073 49.74593495934959,50.40650406504065 49.74593495934959,50.40650406504065 49.74593495934959,50.355691056910565 49.74593495934959,50.355691056910565 49.74593495934959,50.355691056910565 49.796747967479675,50.355691056910565 49.796747967479675,50.30487804878049 49.84756097560975,50.30487804878049 49.89837398373984,50.2540650406504 49.89837398373984,50.2540650406504 50,50.203252032520325 50.05081300813008,50.203252032520325 50.10162601626016,50.15243902439024 50.203252032520325,50.10162601626016 50.2540650406504,50.10162601626016 50.355691056910565,50.05081300813008 50.40650406504065,49.949186991869915 50.45731707317073,49.89837398373984 50.50813008130081,49.84756097560975 50.55894308943089,49.796747967479675 50.55894308943089,49.74593495934959 50.609756097560975,49.69512195121951 50.609756097560975,49.64430894308943 50.609756097560975,49.64430894308943 50.66056910569105,49.59349593495935 50.66056910569105,49.542682926829265 50.66056910569105,49.542682926829265 50.71138211382114,49.49186991869919 50.71138211382114,49.4410569105691 50.71138211382114,49.390243902439025 50.71138211382114,49.33943089430894 50.71138211382114,49.28861788617886 50.71138211382114,49.23780487804878 50.71138211382114,49.1869918699187 50.71138211382114,49.136178861788615 50.71138211382114,49.08536585365854 50.71138211382114,49.08536585365854 50.71138211382114,49.03455284552845 50.71138211382114,49.03455284552845 50.66056910569105,48.983739837398375 50.66056910569105,48.983739837398375 50.609756097560975,48.93292682926829 50.609756097560975,48.88211382113821 50.55894308943089,48.88211382113821 50.55894308943089,48.83130081300813" fill="none" stroke="black" stroke-width="0.6"></polyline><polyline points="50.55894308943089,48.83130081300813 50.55894308943089,48.83130081300813 50.55894308943089,48.78048780487805 50.55894308943089,48.729674796747965 50.50813008130081,48.729674796747965 50.50813008130081,48.67886178861789 50.50813008130081,48.67886178861789 50.45731707317073,48.6280487804878 50.45731707317073,48.6280487804878 50.45731707317073,48.577235772357724 50.45731707317073,48.52642276422764 50.40650406504065,48.52642276422764 50.40650406504065,48.47560975609756 50.355691056910565,48.47560975609756 50.355691056910565,48.42479674796748 50.355691056910565,48.3739837398374 50.30487804878049,48.323170731707314 50.30487804878049,48.323170731707314 50.2540650406504,48.27235772357724 50.2540650406504,48.22154471544715 50.203252032520325,48.22154471544715 50.203252032520325,48.170731707317074 50.15243902439024,48.11991869918699 50.15243902439024,48.11991869918699 50.10162601626016,48.06910569105691 50.05081300813008,48.01829268292683 50.05081300813008,48.01829268292683 50,47.96747967479675 49.949186991869915,47.96747967479675 49.89837398373984,47.916666666666664 49.84756097560975,47.916666666666664 49.796747967479675,47.86585365853659 49.74593495934959,47.86585365853659 49.69512195121951,47.86585365853659 49.64430894308943,47.86585365853659 49.59349593495935,47.86585365853659 49.542682926829265,47.8150406504065 49.4410569105691,47.8150406504065 49.4410569105691,47.8150406504065 49.33943089430894,47.8150406504065 49.28861788617886,47.8150406504065 49.23780487804878,47.8150406504065 49.1869918699187,47.8150406504065 49.136178861788615,47.8150406504065 49.08536585365854,47.8150406504065 49.03455284552845,47.8150406504065 48.983739837398375,47.8150406504065 48.93292682926829,47.86585365853659 48.83130081300813,47.86585365853659 48.78048780487805,47.86585365853659 48.729674796747965,47.916666666666664" fill="none" stroke="black" stroke-width="0.6"></polyline><polyline points="48.729674796747965,47.916666666666664 48.67886178861789,47.916666666666664 48.6280487804878,47.916666666666664 48.577235772357724,47.96747967479675 48.47560975609756,47.96747967479675 48.42479674796748,48.01829268292683 48.3739837398374,48.01829268292683 48.323170731707314,48.06910569105691 48.27235772357724,48.06910569105691 48.170731707317074,48.11991869918699 48.11991869918699,48.170731707317074 48.06910569105691,48.22154471544715 48.01829268292683,48.27235772357724 47.96747967479675,48.323170731707314 47.916666666666664,48.3739837398374 47.8150406504065,48.42479674796748 47.764227642276424,48.52642276422764 47.71341463414634,48.577235772357724 47.66260162601626,48.6280487804878 47.61178861788618,48.67886178861789 47.510162601626014,48.729674796747965 47.459349593495936,48.83130081300813 47.40853658536585,48.88211382113821 47.40853658536585,48.93292682926829 47.357723577235774,48.983739837398375 47.30691056910569,48.983739837398375 47.30691056910569,49.08536585365854 47.25609756097561,49.08536585365854 47.25609756097561,49.136178861788615 47.20528455284553,49.1869918699187 47.15447154471545,49.23780487804878 47.15447154471545,49.28861788617886 47.103658536585364,49.33943089430894 47.103658536585364,49.33943089430894 47.052845528455286,49.390243902439025 47.052845528455286,49.4410569105691 47.0020325203252,49.4410569105691 47.0020325203252,49.49186991869919 46.951219512195124,49.542682926829265 46.90040650406504,49.59349593495935 46.90040650406504,49.64430894308943 46.84959349593496,49.74593495934959 46.798780487804876,49.796747967479675 46.798780487804876,49.84756097560975 46.7479674796748,49.89837398373984 46.7479674796748,50 46.697154471544714,50.05081300813008 46.646341463414636,50.15243902439024 46.59552845528455,50.203252032520325 46.59552845528455,50.30487804878049 46.54471544715447,50.355691056910565" fill="none" stroke="black" stroke-width="0.6"></polyline><polyline points="46.54471544715447,50.355691056910565 46.49390243902439,50.45731707317073 46.44308943089431,50.50813008130081 46.44308943089431,50.55894308943089 46.392276422764226,50.609756097560975 46.34146341463415,50.71138211382114 46.34146341463415,50.762195121951216 46.290650406504064,50.8130081300813 46.290650406504064,50.91463414634146 46.290650406504064,50.96544715447154 46.290650406504064,51.016260162601625 46.290650406504064,51.11788617886179 46.290650406504064,51.168699186991866 46.290650406504064,51.21951219512195 46.290650406504064,51.27032520325203 46.290650406504064,51.32113821138211 46.290650406504064,51.422764227642276 46.290650406504064,51.47357723577235 46.290650406504064,51.52439024390244 46.290650406504064,51.575203252032516 46.290650406504064,51.67682926829268 46.34146341463415,51.72764227642276 46.34146341463415,51.829268292682926 46.34146341463415,51.880081300813 46.34146341463415,51.93089430894309 46.392276422764226,52.03252032520325 46.392276422764226,52.13414634146341 46.44308943089431,52.1849593495935 46.49390243902439,52.28658536585366 46.49390243902439,52.38821138211382 46.54471544715447,52.489837398373986 46.54471544715447,52.59146341463415 46.59552845528455,52.642276422764226 46.646341463414636,52.74390243902439 46.697154471544714,52.84552845528455 46.7479674796748,52.896341463414636 46.7479674796748,52.9979674796748 46.84959349593496,53.048780487804876 46.84959349593496,53.09959349593496 46.951219512195124,53.201219512195124 46.951219512195124,53.2520325203252 47.052845528455286,53.353658536585364 47.103658536585364,53.40447154471545 47.15447154471545,53.50609756097561 47.20528455284553,53.55691056910569 47.25609756097561,53.607723577235774 47.30691056910569,53.709349593495936 47.357723577235774,53.760162601626014 47.40853658536585,53.8109756097561 47.459349593495936,53.86178861788618 47.5609756097561,53.91260162601626" fill="none" stroke="black" stroke-width="0.6"></polyline><polyline points="47.5609756097561,53.91260162601626 47.61178861788618,53.96341463414634 47.66260162601626,54.014227642276424 47.71341463414634,54.0650406504065 47.764227642276424,54.11585365853659 47.8150406504065,54.166666666666664 47.86585365853659,54.166666666666664 47.916666666666664,54.21747967479675 47.96747967479675,54.26829268292683 48.01829268292683,54.31910569105691 48.01829268292683,54.31910569105691 48.06910569105691,54.36991869918699 48.06910569105691,54.420731707317074 48.11991869918699,54.420731707317074 48.170731707317074,54.47154471544715 48.170731707317074,54.47154471544715 48.22154471544715,54.52235772357724 48.27235772357724,54.52235772357724 48.27235772357724,54.573170731707314 48.323170731707314,54.573170731707314 48.3739837398374,54.6239837398374 48.3739837398374,54.6239837398374 48.42479674796748,54.6239837398374 48.47560975609756,54.67479674796748 48.52642276422764,54.67479674796748 48.577235772357724,54.67479674796748 48.6280487804878,54.72560975609756 48.67886178861789,54.72560975609756 48.729674796747965,54.72560975609756 48.78048780487805,54.77642276422764 48.83130081300813,54.77642276422764 48.88211382113821,54.827235772357724 48.93292682926829,54.827235772357724 49.03455284552845,54.8780487804878 49.08536585365854,54.8780487804878 49.1869918699187,54.92886178861789 49.23780487804878,54.92886178861789 49.28861788617886,54.92886178861789 49.33943089430894,54.92886178861789 49.4410569105691,54.979674796747965 49.49186991869919,54.979674796747965 49.542682926829265,54.979674796747965 49.59349593495935,54.979674796747965 49.64430894308943,54.979674796747965 49.69512195121951,54.979674796747965 49.796747967479675,54.979674796747965 49.84756097560975,54.979674796747965 49.89837398373984,54.979674796747965 49.949186991869915,54.979674796747965 50,54.979674796747965 50.10162601626016,55.03048780487805" fill="none" stroke="black" stroke-width="0.6"></polyline><polyline points="50.10162601626016,55.03048780487805 50.15243902439024,55.03048780487805 50.203252032520325,55.03048780487805 50.2540650406504,55.03048780487805 50.30487804878049,55.03048780487805 50.355691056910565,55.03048780487805 50.40650406504065,55.03048780487805 50.40650406504065,55.03048780487805 50.45731707317073,55.03048780487805 50.50813008130081,55.03048780487805 50.55894308943089,55.03048780487805 50.609756097560975,55.03048780487805 50.66056910569105,55.03048780487805 50.66056910569105,55.03048780487805 50.71138211382114,55.03048780487805 50.762195121951216,55.03048780487805 50.8130081300813,55.03048780487805 50.86382113821138,55.03048780487805 50.91463414634146,55.03048780487805 50.96544715447154,55.03048780487805 51.016260162601625,55.03048780487805 51.11788617886179,55.03048780487805 51.168699186991866,55.03048780487805 51.21951219512195,55.03048780487805 51.27032520325203,55.03048780487805 51.37195121951219,54.979674796747965 51.422764227642276,54.979674796747965 51.52439024390244,54.979674796747965 51.575203252032516,54.92886178861789 51.67682926829268,54.92886178861789 51.72764227642276,54.8780487804878 51.829268292682926,54.8780487804878 51.93089430894309,54.827235772357724 51.981707317073166,54.827235772357724 52.083333333333336,54.77642276422764 52.1849593495935,54.77642276422764 52.28658536585366,54.72560975609756 52.33739837398374,54.67479674796748 52.4390243902439,54.6239837398374 52.540650406504064,54.573170731707314 52.642276422764226,54.52235772357724 52.69308943089431,54.47154471544715 52.74390243902439,54.420731707317074 52.84552845528455,54.420731707317074 52.896341463414636,54.36991869918699 52.947154471544714,54.31910569105691 53.048780487804876,54.31910569105691 53.09959349593496,54.26829268292683 53.15040650406504,54.21747967479675 53.201219512195124,54.21747967479675 53.2520325203252,54.166666666666664" fill="none" stroke="black" stroke-width="0.6"></polyline><polyline points="53.2520325203252,54.166666666666664 53.302845528455286,54.11585365853659 53.353658536585364,54.11585365853659 53.40447154471545,54.0650406504065 53.45528455284553,54.0650406504065 53.50609756097561,54.014227642276424 53.50609756097561,54.014227642276424 53.55691056910569,54.014227642276424 53.607723577235774,53.96341463414634 53.607723577235774,53.96341463414634 53.65853658536585,53.91260162601626 53.709349593495936,53.91260162601626 53.760162601626014,53.86178861788618 53.8109756097561,53.86178861788618 53.86178861788618,53.8109756097561 53.91260162601626,53.760162601626014 53.96341463414634,53.760162601626014 54.014227642276424,53.709349593495936 54.0650406504065,53.65853658536585 54.166666666666664,53.607723577235774 54.21747967479675,53.55691056910569 54.26829268292683,53.50609756097561 54.36991869918699,53.40447154471545 54.420731707317074,53.353658536585364 54.52235772357724,53.302845528455286 54.573170731707314,53.2520325203252 54.6239837398374,53.201219512195124 54.72560975609756,53.15040650406504 54.827235772357724,53.09959349593496 54.8780487804878,53.048780487804876 54.92886178861789,52.947154471544714 55.03048780487805,52.896341463414636 55.08130081300813,52.84552845528455 55.13211382113821,52.79471544715447 55.233739837398375,52.69308943089431 55.28455284552845,52.59146341463415 55.386178861788615,52.540650406504064 55.4369918699187,52.4390243902439 55.53861788617886,52.33739837398374 55.58943089430894,52.235772357723576 55.6910569105691,52.13414634146341 55.74186991869919,52.03252032520325 55.84349593495935,51.93089430894309 55.89430894308943,51.829268292682926 55.99593495934959,51.72764227642276 56.046747967479675,51.6260162601626 56.14837398373984,51.47357723577235 56.25,51.37195121951219 56.30081300813008,51.27032520325203 56.35162601626016,51.168699186991866 56.40243902439024,51.0670731707317" fill="none" stroke="black" stroke-width="0.6"></polyline><polyline points="56.40243902439024,51.0670731707317 56.453252032520325,51.016260162601625 56.453252032520325,50.91463414634146 56.5040650406504,50.86382113821138 56.55487804878049,50.762195121951216 56.605691056910565,50.66056910569105 56.605691056910565,50.55894308943089 56.65650406504065,50.45731707317073 56.70731707317073,50.30487804878049 56.70731707317073,50.15243902439024 56.70731707317073,50 56.70731707317073,49.84756097560975 56.75813008130081,49.69512195121951 56.75813008130081,49.59349593495935 56.75813008130081,49.4410569105691 56.75813008130081,49.33943089430894 56.75813008130081,49.23780487804878 56.75813008130081,49.136178861788615 56.75813008130081,49.03455284552845 56.75813008130081,48.93292682926829 56.75813008130081,48.78048780487805 56.75813008130081,48.67886178861789 56.75813008130081,48.52642276422764 56.75813008130081,48.42479674796748 56.75813008130081,48.323170731707314 56.75813008130081,48.22154471544715 56.75813008130081,48.170731707317074 56.75813008130081,48.06910569105691 56.75813008130081,47.96747967479675 56.75813008130081,47.8150406504065 56.75813008130081,47.66260162601626 56.75813008130081,47.510162601626014 56.75813008130081,47.40853658536585 56.75813008130081,47.25609756097561 56.75813008130081,47.103658536585364 56.75813008130081,47.0020325203252 56.75813008130081,46.90040650406504 56.75813008130081,46.798780487804876 56.70731707317073,46.697154471544714 56.70731707317073,46.59552845528455 56.70731707317073,46.49390243902439 56.70731707317073,46.44308943089431 56.70731707317073,46.290650406504064 56.65650406504065,46.1890243902439 56.65650406504065,46.08739837398374 56.605691056910565,45.985772357723576 56.605691056910565,45.88414634146341 56.55487804878049,45.78252032520325 56.5040650406504,45.68089430894309 56.453252032520325,45.579268292682926 56.453252032520325,45.47764227642276" fill="none" stroke="black" stroke-width="0.6"></polyline><polyline points="56.453252032520325,45.47764227642276 56.35162601626016,45.3760162601626 56.35162601626016,45.325203252032516 56.30081300813008,45.22357723577235 56.25,45.12195121951219 56.199186991869915,45.07113821138211 56.14837398373984,44.96951219512195 56.14837398373984,44.918699186991866 56.09756097560975,44.8170731707317 56.046747967479675,44.766260162601625 56.046747967479675,44.71544715447154 55.99593495934959,44.61382113821138 55.99593495934959,44.5630081300813 55.94512195121951,44.512195121951216 55.89430894308943,44.46138211382114 55.89430894308943,44.41056910569105 55.84349593495935,44.359756097560975 55.792682926829265,44.30894308943089 55.74186991869919,44.25813008130081 55.74186991869919,44.20731707317073 55.6910569105691,44.15650406504065 55.640243902439025,44.105691056910565 55.58943089430894,44.05487804878049 55.58943089430894,44.0040650406504 55.53861788617886,43.953252032520325 55.48780487804878,43.90243902439024 55.4369918699187,43.85162601626016 55.386178861788615,43.80081300813008 55.33536585365854,43.75 55.28455284552845,43.699186991869915 55.233739837398375,43.64837398373984 55.18292682926829,43.59756097560975 55.13211382113821,43.546747967479675 55.08130081300813,43.49593495934959 55.03048780487805,43.44512195121951 54.979674796747965,43.34349593495935 54.92886178861789,43.292682926829265 54.8780487804878,43.24186991869919 54.827235772357724,43.1910569105691 54.77642276422764,43.08943089430894 54.72560975609756,43.03861788617886 54.67479674796748,42.98780487804878 54.6239837398374,42.9369918699187 54.52235772357724,42.886178861788615 54.47154471544715,42.83536585365854 54.420731707317074,42.78455284552845 54.36991869918699,42.733739837398375 54.26829268292683,42.68292682926829 54.21747967479675,42.63211382113821 54.11585365853659,42.58130081300813 54.0650406504065,42.53048780487805" fill="none" stroke="black" stroke-width="0.6"></polyline><polyline points="54.0650406504065,42.53048780487805 53.96341463414634,42.479674796747965 53.91260162601626,42.479674796747965 53.8109756097561,42.42886178861789 53.709349593495936,42.42886178861789 53.65853658536585,42.3780487804878 53.55691056910569,42.3780487804878 53.45528455284553,42.327235772357724 53.353658536585364,42.327235772357724 53.2520325203252,42.327235772357724 53.15040650406504,42.27642276422764 53.048780487804876,42.27642276422764 52.947154471544714,42.27642276422764 52.84552845528455,42.22560975609756 52.69308943089431,42.22560975609756 52.59146341463415,42.22560975609756 52.4390243902439,42.17479674796748 52.33739837398374,42.17479674796748 52.1849593495935,42.1239837398374 52.03252032520325,42.073170731707314 51.880081300813,42.073170731707314 51.72764227642276,42.02235772357724 51.52439024390244,41.97154471544715 51.37195121951219,41.97154471544715 51.21951219512195,41.920731707317074 51.0670731707317,41.920731707317074 50.91463414634146,41.86991869918699 50.762195121951216,41.86991869918699 50.609756097560975,41.86991869918699 50.45731707317073,41.86991869918699 50.30487804878049,41.81910569105691 50.203252032520325,41.81910569105691 50.10162601626016,41.81910569105691 50,41.76829268292683 49.89837398373984,41.76829268292683 49.796747967479675,41.76829268292683 49.69512195121951,41.76829268292683 49.64430894308943,41.71747967479675 49.542682926829265,41.71747967479675 49.49186991869919,41.71747967479675 49.4410569105691,41.666666666666664 49.33943089430894,41.666666666666664 49.28861788617886,41.61585365853659 49.23780487804878,41.61585365853659 49.1869918699187,41.61585365853659 49.136178861788615,41.61585365853659 49.08536585365854,41.5650406504065 49.03455284552845,41.5650406504065 48.983739837398375,41.5650406504065 48.88211382113821,41.514227642276424 48.83130081300813,41.514227642276424" fill="none" stroke="black" stroke-width="0.6"></polyline><polyline points="48.83130081300813,41.514227642276424 48.78048780487805,41.514227642276424 48.729674796747965,41.46341463414634 48.6280487804878,41.46341463414634 48.577235772357724,41.46341463414634 48.47560975609756,41.46341463414634 48.42479674796748,41.46341463414634 48.323170731707314,41.46341463414634 48.27235772357724,41.46341463414634 48.170731707317074,41.46341463414634 48.11991869918699,41.46341463414634 48.01829268292683,41.46341463414634 47.96747967479675,41.46341463414634 47.86585365853659,41.46341463414634 47.764227642276424,41.46341463414634 47.66260162601626,41.46341463414634 47.510162601626014,41.46341463414634 47.40853658536585,41.514227642276424 47.25609756097561,41.514227642276424 47.15447154471545,41.5650406504065 47.0020325203252,41.61585365853659 46.84959349593496,41.666666666666664 46.697154471544714,41.666666666666664 46.54471544715447,41.71747967479675 46.392276422764226,41.76829268292683 46.239837398373986,41.86991869918699 46.08739837398374,41.920731707317074 45.9349593495935,41.97154471544715 45.78252032520325,42.02235772357724 45.68089430894309,42.073170731707314 45.52845528455285,42.17479674796748 45.3760162601626,42.22560975609756 45.27439024390244,42.27642276422764 45.12195121951219,42.327235772357724 44.96951219512195,42.3780487804878 44.86788617886179,42.42886178861789 44.766260162601625,42.479674796747965 44.61382113821138,42.53048780487805 44.512195121951216,42.58130081300813 44.41056910569105,42.63211382113821 44.30894308943089,42.68292682926829 44.20731707317073,42.733739837398375 44.105691056910565,42.78455284552845 44.0040650406504,42.886178861788615 43.953252032520325,42.9369918699187 43.85162601626016,42.98780487804878 43.80081300813008,43.03861788617886 43.699186991869915,43.140243902439025 43.64837398373984,43.1910569105691 43.59756097560975,43.292682926829265 43.546747967479675,43.34349593495935" fill="none" stroke="black" stroke-width="0.6"></polyline><polyline points="43.546747967479675,43.34349593495935 43.49593495934959,43.39430894308943 43.44512195121951,43.49593495934959 43.39430894308943,43.546747967479675 43.34349593495935,43.64837398373984 43.292682926829265,43.699186991869915 43.24186991869919,43.75 43.1910569105691,43.85162601626016 43.140243902439025,43.90243902439024 43.08943089430894,44.0040650406504 43.03861788617886,44.05487804878049 42.98780487804878,44.105691056910565 42.98780487804878,44.20731707317073 42.9369918699187,44.25813008130081 42.886178861788615,44.30894308943089 42.83536585365854,44.41056910569105 42.78455284552845,44.46138211382114 42.733739837398375,44.5630081300813 42.68292682926829,44.66463414634146 42.63211382113821,44.766260162601625 42.53048780487805,44.86788617886179 42.479674796747965,44.918699186991866 42.3780487804878,45.07113821138211 42.327235772357724,45.172764227642276 42.22560975609756,45.27439024390244 42.1239837398374,45.42682926829268 42.02235772357724,45.579268292682926 41.920731707317074,45.68089430894309 41.81910569105691,45.833333333333336 41.71747967479675,45.985772357723576 41.61585365853659,46.08739837398374 41.514227642276424,46.239837398373986 41.46341463414634,46.34146341463415 41.36178861788618,46.44308943089431 41.260162601626014,46.59552845528455 41.15853658536585,46.697154471544714 41.05691056910569,46.7479674796748 41.00609756097561,46.84959349593496 40.95528455284553,46.90040650406504 40.90447154471545,46.951219512195124 40.802845528455286,47.0020325203252 40.802845528455286,47.052845528455286 40.7520325203252,47.103658536585364 40.701219512195124,47.20528455284553 40.65040650406504,47.25609756097561 40.59959349593496,47.30691056910569 40.59959349593496,47.357723577235774 40.548780487804876,47.459349593495936 40.4979674796748,47.510162601626014 40.4979674796748,47.61178861788618 40.447154471544714,47.66260162601626" fill="none" stroke="black" stroke-width="0.6"></polyline><polyline points="40.447154471544714,47.66260162601626 40.396341463414636,47.764227642276424 40.396341463414636,47.8150406504065 40.34552845528455,47.916666666666664 40.29471544715447,48.01829268292683 40.24390243902439,48.11991869918699 40.19308943089431,48.22154471544715 40.142276422764226,48.323170731707314 40.142276422764226,48.47560975609756 40.09146341463415,48.577235772357724 40.040650406504064,48.67886178861789 39.989837398373986,48.83130081300813 39.989837398373986,48.93292682926829 39.9390243902439,49.03455284552845 39.88821138211382,49.136178861788615 39.88821138211382,49.23780487804878 39.83739837398374,49.33943089430894 39.83739837398374,49.4410569105691 39.78658536585366,49.542682926829265 39.78658536585366,49.64430894308943 39.78658536585366,49.796747967479675 39.735772357723576,49.89837398373984 39.735772357723576,50.05081300813008 39.735772357723576,50.15243902439024 39.735772357723576,50.30487804878049 39.6849593495935,50.45731707317073 39.6849593495935,50.609756097560975 39.6849593495935,50.762195121951216 39.6849593495935,50.91463414634146 39.6849593495935,51.0670731707317 39.6849593495935,51.21951219512195 39.6849593495935,51.37195121951219 39.6849593495935,51.47357723577235 39.6849593495935,51.575203252032516 39.735772357723576,51.72764227642276 39.735772357723576,51.829268292682926 39.78658536585366,51.981707317073166 39.83739837398374,52.13414634146341 39.83739837398374,52.28658536585366 39.88821138211382,52.38821138211382 39.9390243902439,52.540650406504064 39.9390243902439,52.69308943089431 39.989837398373986,52.84552845528455 40.040650406504064,52.9979674796748 40.09146341463415,53.15040650406504 40.09146341463415,53.302845528455286 40.142276422764226,53.45528455284553 40.19308943089431,53.607723577235774 40.24390243902439,53.760162601626014 40.29471544715447,53.91260162601626 40.29471544715447,54.014227642276424" fill="none" stroke="black" stroke-width="0.6"></polyline><polyline points="40.29471544715447,54.014227642276424 40.34552845528455,54.166666666666664 40.396341463414636,54.31910569105691 40.447154471544714,54.420731707317074 40.4979674796748,54.573170731707314 40.548780487804876,54.67479674796748 40.59959349593496,54.827235772357724 40.65040650406504,54.979674796747965 40.701219512195124,55.08130081300813 40.7520325203252,55.233739837398375 40.802845528455286,55.33536585365854 40.853658536585364,55.48780487804878 40.90447154471545,55.58943089430894 40.95528455284553,55.6910569105691 41.00609756097561,55.792682926829265 41.05691056910569,55.89430894308943 41.05691056910569,55.94512195121951 41.107723577235774,56.046747967479675 41.15853658536585,56.09756097560975 41.209349593495936,56.14837398373984 41.260162601626014,56.25 41.3109756097561,56.30081300813008 41.36178861788618,56.40243902439024 41.41260162601626,56.5040650406504 41.46341463414634,56.55487804878049 41.514227642276424,56.65650406504065 41.5650406504065,56.70731707317073 41.61585365853659,56.80894308943089 41.666666666666664,56.859756097560975 41.71747967479675,56.96138211382114 41.76829268292683,57.012195121951216 41.81910569105691,57.0630081300813 41.920731707317074,57.16463414634146 41.97154471544715,57.21544715447154 42.02235772357724,57.266260162601625 42.073170731707314,57.3170731707317 42.1239837398374,57.418699186991866 42.22560975609756,57.46951219512195 42.27642276422764,57.57113821138211 42.3780487804878,57.62195121951219 42.42886178861789,57.72357723577235 42.53048780487805,57.77439024390244 42.58130081300813,57.825203252032516 42.68292682926829,57.92682926829268 42.733739837398375,57.97764227642276 42.78455284552845,58.02845528455284 42.886178861788615,58.130081300813 42.9369918699187,58.130081300813 42.98780487804878,58.18089430894309 43.03861788617886,58.231707317073166 43.08943089430894,58.28252032520325" fill="none" stroke="black" stroke-width="0.6"></polyline><polyline points="43.08943089430894,58.28252032520325 43.140243902439025,58.33333333333333 43.24186991869919,58.38414634146341 43.292682926829265,58.485772357723576 43.34349593495935,58.536585365853654 43.39430894308943,58.58739837398374 43.44512195121951,58.63821138211382 43.49593495934959,58.6890243902439 43.546747967479675,58.739837398373986 43.59756097560975,58.790650406504064 43.64837398373984,58.84146341463415 43.699186991869915,58.892276422764226 43.75,58.94308943089431 43.80081300813008,58.99390243902439 43.90243902439024,59.04471544715447 43.953252032520325,59.09552845528455 44.0040650406504,59.146341463414636 44.05487804878049,59.197154471544714 44.105691056910565,59.2479674796748 44.20731707317073,59.298780487804876 44.25813008130081,59.40040650406504 44.30894308943089,59.451219512195124 44.41056910569105,59.552845528455286 44.46138211382114,59.603658536585364 44.5630081300813,59.70528455284553 44.61382113821138,59.75609756097561 44.71544715447154,59.857723577235774 44.8170731707317,59.90853658536585 44.918699186991866,59.959349593495936 45.02032520325203,60.0609756097561 45.07113821138211,60.11178861788618 45.172764227642276,60.16260162601626 45.27439024390244,60.21341463414634 45.325203252032516,60.264227642276424 45.42682926829268,60.3150406504065 45.52845528455285,60.36585365853659 45.579268292682926,60.416666666666664 45.68089430894309,60.46747967479675 45.78252032520325,60.51829268292683 45.833333333333336,60.56910569105691 45.9349593495935,60.61991869918699 46.03658536585366,60.670731707317074 46.13821138211382,60.72154471544715 46.1890243902439,60.77235772357724 46.290650406504064,60.77235772357724 46.392276422764226,60.823170731707314 46.49390243902439,60.823170731707314 46.59552845528455,60.8739837398374 46.697154471544714,60.8739837398374 46.798780487804876,60.8739837398374 46.90040650406504,60.92479674796748" fill="none" stroke="black" stroke-width="0.6"></polyline><polyline points="46.90040650406504,60.92479674796748 47.0020325203252,60.92479674796748 47.052845528455286,60.92479674796748 47.20528455284553,60.97560975609756 47.25609756097561,60.97560975609756 47.40853658536585,60.97560975609756 47.510162601626014,61.02642276422764 47.5609756097561,61.02642276422764 47.71341463414634,61.02642276422764 47.8150406504065,61.077235772357724 47.916666666666664,61.077235772357724 48.01829268292683,61.1280487804878 48.11991869918699,61.17886178861789 48.22154471544715,61.17886178861789 48.323170731707314,61.229674796747965 48.42479674796748,61.28048780487805 48.52642276422764,61.33130081300813 48.67886178861789,61.38211382113821 48.78048780487805,61.43292682926829 48.88211382113821,61.483739837398375 48.983739837398375,61.483739837398375 49.08536585365854,61.53455284552845 49.1869918699187,61.58536585365854 49.33943089430894,61.58536585365854 49.4410569105691,61.636178861788615 49.542682926829265,61.636178861788615 49.64430894308943,61.636178861788615 49.74593495934959,61.636178861788615 49.84756097560975,61.636178861788615 49.949186991869915,61.636178861788615 50.05081300813008,61.636178861788615 50.10162601626016,61.636178861788615 50.203252032520325,61.636178861788615 50.2540650406504,61.636178861788615 50.355691056910565,61.636178861788615 50.45731707317073,61.636178861788615 50.50813008130081,61.636178861788615 50.55894308943089,61.636178861788615 50.66056910569105,61.636178861788615 50.71138211382114,61.636178861788615 50.8130081300813,61.636178861788615 50.86382113821138,61.636178861788615 50.91463414634146,61.636178861788615 51.016260162601625,61.636178861788615 51.11788617886179,61.636178861788615 51.168699186991866,61.636178861788615 51.27032520325203,61.636178861788615 51.32113821138211,61.636178861788615 51.422764227642276,61.636178861788615 51.52439024390244,61.636178861788615 51.6260162601626,61.636178861788615" fill="none" stroke="black" stroke-width="0.6"></polyline><polyline points="51.6260162601626,61.636178861788615 51.67682926829268,61.636178861788615 51.77845528455284,61.636178861788615 51.880081300813,61.636178861788615 51.981707317073166,61.58536585365854 52.083333333333336,61.58536585365854 52.1849593495935,61.58536585365854 52.28658536585366,61.58536585365854 52.38821138211382,61.53455284552845 52.489837398373986,61.53455284552845 52.59146341463415,61.483739837398375 52.69308943089431,61.483739837398375 52.79471544715447,61.43292682926829 52.896341463414636,61.43292682926829 52.9979674796748,61.38211382113821 53.15040650406504,61.33130081300813 53.2520325203252,61.33130081300813 53.353658536585364,61.28048780487805 53.50609756097561,61.229674796747965 53.607723577235774,61.17886178861789 53.760162601626014,61.1280487804878 53.86178861788618,61.1280487804878 53.96341463414634,61.077235772357724 54.11585365853659,61.02642276422764 54.21747967479675,61.02642276422764 54.36991869918699,61.02642276422764 54.47154471544715,60.97560975609756 54.573170731707314,60.92479674796748 54.72560975609756,60.92479674796748 54.827235772357724,60.8739837398374 54.92886178861789,60.823170731707314 55.03048780487805,60.823170731707314 55.18292682926829,60.77235772357724 55.28455284552845,60.77235772357724 55.386178861788615,60.72154471544715 55.53861788617886,60.670731707317074 55.640243902439025,60.61991869918699 55.74186991869919,60.61991869918699 55.89430894308943,60.56910569105691 55.99593495934959,60.51829268292683 56.09756097560975,60.46747967479675 56.199186991869915,60.416666666666664 56.25,60.416666666666664 56.35162601626016,60.416666666666664 56.453252032520325,60.36585365853659 56.55487804878049,60.3150406504065 56.605691056910565,60.3150406504065 56.70731707317073,60.3150406504065 56.75813008130081,60.264227642276424 56.80894308943089,60.264227642276424 56.91056910569105,60.21341463414634" fill="none" stroke="black" stroke-width="0.6"></polyline><polyline points="56.91056910569105,60.21341463414634 56.96138211382114,60.21341463414634 57.012195121951216,60.16260162601626 57.11382113821138,60.16260162601626 57.21544715447154,60.11178861788618 57.3170731707317,60.0609756097561 57.418699186991866,60.010162601626014 57.46951219512195,59.959349593495936 57.57113821138211,59.90853658536585 57.672764227642276,59.857723577235774 57.77439024390244,59.80691056910569 57.8760162601626,59.70528455284553 58.02845528455284,59.65447154471545 58.130081300813,59.603658536585364 58.231707317073166,59.5020325203252 58.33333333333333,59.40040650406504 58.43495934959349,59.34959349593496 58.536585365853654,59.2479674796748 58.63821138211382,59.146341463414636 58.739837398373986,58.99390243902439 58.892276422764226,58.892276422764226 58.99390243902439,58.790650406504064 59.09552845528455,58.63821138211382 59.197154471544714,58.536585365853654 59.298780487804876,58.43495934959349 59.40040650406504,58.28252032520325 59.5020325203252,58.18089430894309 59.603658536585364,58.02845528455284 59.75609756097561,57.8760162601626 59.857723577235774,57.77439024390244 60.010162601626014,57.57113821138211 60.11178861788618,57.46951219512195 60.21341463414634,57.3170731707317 60.3150406504065,57.16463414634146 60.36585365853659,57.0630081300813 60.46747967479675,56.96138211382114 60.51829268292683,56.80894308943089 60.61991869918699,56.70731707317073 60.670731707317074,56.605691056910565 60.77235772357724,56.5040650406504 60.823170731707314,56.40243902439024 60.92479674796748,56.30081300813008 61.02642276422764,56.14837398373984 61.077235772357724,56.046747967479675 61.17886178861789,55.94512195121951 61.229674796747965,55.89430894308943 61.28048780487805,55.792682926829265 61.33130081300813,55.74186991869919 61.38211382113821,55.640243902439025 61.43292682926829,55.58943089430894 61.483739837398375,55.48780487804878" fill="none" stroke="black" stroke-width="0.6"></polyline><polyline points="61.483739837398375,55.48780487804878 61.53455284552845,55.4369918699187 61.58536585365854,55.33536585365854 61.636178861788615,55.233739837398375 61.73780487804878,55.13211382113821 61.78861788617886,55.08130081300813 61.890243902439025,54.92886178861789 61.9410569105691,54.827235772357724 62.042682926829265,54.67479674796748 62.09349593495935,54.573170731707314 62.19512195121951,54.420731707317074 62.296747967479675,54.31910569105691 62.39837398373984,54.166666666666664 62.5,54.014227642276424 62.55081300813008,53.86178861788618 62.65243902439024,53.709349593495936 62.7540650406504,53.55691056910569 62.855691056910565,53.353658536585364 62.95731707317073,53.201219512195124 63.00813008130081,52.9979674796748 63.05894308943089,52.84552845528455 63.16056910569105,52.69308943089431 63.21138211382114,52.540650406504064 63.262195121951216,52.33739837398374 63.3130081300813,52.1849593495935 63.36382113821138,52.03252032520325 63.41463414634146,51.829268292682926 63.46544715447154,51.67682926829268 63.516260162601625,51.47357723577235 63.5670731707317,51.27032520325203 63.5670731707317,51.11788617886179 63.61788617886179,50.91463414634146 63.61788617886179,50.71138211382114 63.61788617886179,50.55894308943089 63.61788617886179,50.355691056910565 63.61788617886179,50.15243902439024 63.61788617886179,49.949186991869915 63.61788617886179,49.796747967479675 63.61788617886179,49.59349593495935 63.61788617886179,49.390243902439025 63.668699186991866,49.1869918699187 63.668699186991866,48.983739837398375 63.668699186991866,48.78048780487805 63.668699186991866,48.6280487804878 63.71951219512195,48.47560975609756 63.71951219512195,48.323170731707314 63.71951219512195,48.22154471544715 63.71951219512195,48.06910569105691 63.71951219512195,47.96747967479675 63.71951219512195,47.8150406504065 63.71951219512195,47.66260162601626" fill="none" stroke="black" stroke-width="0.6"></polyline><polyline points="63.71951219512195,47.66260162601626 63.668699186991866,47.5609756097561 63.668699186991866,47.40853658536585 63.61788617886179,47.25609756097561 63.61788617886179,47.15447154471545 63.5670731707317,47.0020325203252 63.516260162601625,46.90040650406504 63.46544715447154,46.798780487804876 63.46544715447154,46.646341463414636 63.41463414634146,46.49390243902439 63.36382113821138,46.34146341463415 63.36382113821138,46.1890243902439 63.36382113821138,45.985772357723576 63.36382113821138,45.833333333333336 63.36382113821138,45.63008130081301 63.36382113821138,45.47764227642276 63.3130081300813,45.325203252032516 63.3130081300813,45.12195121951219 63.3130081300813,44.96951219512195 63.262195121951216,44.8170731707317 63.262195121951216,44.66463414634146 63.262195121951216,44.512195121951216 63.21138211382114,44.41056910569105 63.16056910569105,44.30894308943089 63.109756097560975,44.15650406504065 63.05894308943089,44.05487804878049 63.00813008130081,43.953252032520325 62.95731707317073,43.85162601626016 62.90650406504065,43.699186991869915 62.855691056910565,43.59756097560975 62.80487804878049,43.39430894308943 62.80487804878049,43.24186991869919 62.7540650406504,43.08943089430894 62.703252032520325,42.9369918699187 62.65243902439024,42.78455284552845 62.60162601626016,42.68292682926829 62.55081300813008,42.53048780487805 62.5,42.479674796747965 62.449186991869915,42.3780487804878 62.39837398373984,42.27642276422764 62.34756097560975,42.22560975609756 62.296747967479675,42.1239837398374 62.24593495934959,42.073170731707314 62.14430894308943,41.97154471544715 62.09349593495935,41.86991869918699 61.99186991869919,41.81910569105691 61.9410569105691,41.71747967479675 61.83943089430894,41.61585365853659 61.73780487804878,41.514227642276424 61.6869918699187,41.46341463414634 61.58536585365854,41.36178861788618" fill="none" stroke="black" stroke-width="0.6"></polyline><polyline points="61.58536585365854,41.36178861788618 61.483739837398375,41.260162601626014 61.43292682926829,41.209349593495936 61.33130081300813,41.107723577235774 61.17886178861789,41.00609756097561 61.077235772357724,40.90447154471545 60.97560975609756,40.802845528455286 60.823170731707314,40.701219512195124 60.670731707317074,40.59959349593496 60.51829268292683,40.4979674796748 60.36585365853659,40.396341463414636 60.21341463414634,40.29471544715447 60.0609756097561,40.19308943089431 59.959349593495936,40.09146341463415 59.80691056910569,39.989837398373986 59.70528455284553,39.88821138211382 59.603658536585364,39.83739837398374 59.5020325203252,39.735772357723576 59.40040650406504,39.6849593495935 59.298780487804876,39.583333333333336 59.197154471544714,39.53252032520325 59.146341463414636,39.48170731707317 59.04471544715447,39.43089430894309 58.99390243902439,39.38008130081301 58.892276422764226,39.27845528455285 58.84146341463415,39.22764227642276 58.790650406504064,39.1260162601626 58.739837398373986,39.02439024390244 58.63821138211382,38.922764227642276 58.58739837398374,38.82113821138211 58.536585365853654,38.77032520325203 58.485772357723576,38.668699186991866 58.43495934959349,38.5670731707317 58.33333333333333,38.516260162601625 58.28252032520325,38.41463414634146 58.231707317073166,38.36382113821138 58.18089430894309,38.3130081300813 58.079268292682926,38.262195121951216 58.02845528455284,38.21138211382114 57.97764227642276,38.109756097560975 57.92682926829268,38.05894308943089 57.825203252032516,38.00813008130081 57.77439024390244,37.95731707317073 57.672764227642276,37.90650406504065 57.57113821138211,37.80487804878049 57.52032520325203,37.7540650406504 57.418699186991866,37.703252032520325 57.3170731707317,37.60162601626016 57.21544715447154,37.55081300813008 57.11382113821138,37.5 57.012195121951216,37.39837398373984" fill="none" stroke="black" stroke-width="0.6"></polyline><polyline points="57.012195121951216,37.39837398373984 56.859756097560975,37.34756097560975 56.75813008130081,37.296747967479675 56.65650406504065,37.296747967479675 56.55487804878049,37.19512195121951 56.453252032520325,37.19512195121951 56.35162601626016,37.14430894308943 56.25,37.042682926829265 56.14837398373984,36.99186991869919 56.046747967479675,36.9410569105691 55.89430894308943,36.83943089430894 55.792682926829265,36.78861788617886 55.6910569105691,36.6869918699187 55.53861788617886,36.636178861788615 55.386178861788615,36.53455284552845 55.233739837398375,36.483739837398375 55.08130081300813,36.43292682926829 54.979674796747965,36.38211382113821 54.827235772357724,36.33130081300813 54.67479674796748,36.28048780487805 54.52235772357724,36.229674796747965 54.420731707317074,36.17886178861789 54.26829268292683,36.077235772357724 54.166666666666664,36.02642276422764 54.014227642276424,35.97560975609756 53.91260162601626,35.92479674796748 53.760162601626014,35.8739837398374 53.65853658536585,35.823170731707314 53.55691056910569,35.77235772357724 53.40447154471545,35.77235772357724 53.302845528455286,35.72154471544715 53.201219512195124,35.72154471544715 53.09959349593496,35.670731707317074 52.9979674796748,35.670731707317074 52.896341463414636,35.61991869918699 52.79471544715447,35.56910569105691 52.69308943089431,35.56910569105691 52.59146341463415,35.51829268292683 52.489837398373986,35.51829268292683 52.4390243902439,35.46747967479675 52.28658536585366,35.416666666666664 52.235772357723576,35.416666666666664 52.13414634146341,35.416666666666664 51.981707317073166,35.36585365853659 51.880081300813,35.36585365853659 51.77845528455284,35.36585365853659 51.67682926829268,35.36585365853659 51.52439024390244,35.3150406504065 51.422764227642276,35.3150406504065 51.27032520325203,35.3150406504065 51.168699186991866,35.3150406504065" fill="none" stroke="black" stroke-width="0.6"></polyline><polyline points="51.168699186991866,35.3150406504065 51.016260162601625,35.3150406504065 50.86382113821138,35.3150406504065 50.762195121951216,35.3150406504065 50.609756097560975,35.3150406504065 50.45731707317073,35.264227642276424 50.30487804878049,35.264227642276424 50.203252032520325,35.264227642276424 50.05081300813008,35.21341463414634 49.89837398373984,35.21341463414634 49.74593495934959,35.21341463414634 49.59349593495935,35.16260162601626 49.4410569105691,35.16260162601626 49.23780487804878,35.16260162601626 49.08536585365854,35.16260162601626 48.93292682926829,35.16260162601626 48.78048780487805,35.16260162601626 48.6280487804878,35.16260162601626 48.52642276422764,35.16260162601626 48.323170731707314,35.16260162601626 48.170731707317074,35.16260162601626 48.06910569105691,35.16260162601626 47.86585365853659,35.16260162601626 47.71341463414634,35.16260162601626 47.5609756097561,35.16260162601626 47.40853658536585,35.16260162601626 47.25609756097561,35.16260162601626 47.103658536585364,35.16260162601626 46.951219512195124,35.16260162601626 46.7479674796748,35.16260162601626 46.59552845528455,35.16260162601626 46.44308943089431,35.16260162601626 46.290650406504064,35.16260162601626 46.13821138211382,35.16260162601626 45.9349593495935,35.21341463414634 45.833333333333336,35.21341463414634 45.68089430894309,35.21341463414634 45.52845528455285,35.264227642276424 45.3760162601626,35.264227642276424 45.22357723577235,35.3150406504065 45.07113821138211,35.3150406504065 44.918699186991866,35.36585365853659 44.766260162601625,35.36585365853659 44.5630081300813,35.416666666666664 44.41056910569105,35.416666666666664 44.25813008130081,35.46747967479675 44.105691056910565,35.46747967479675 43.953252032520325,35.51829268292683 43.85162601626016,35.51829268292683 43.699186991869915,35.56910569105691 43.59756097560975,35.61991869918699" fill="none" stroke="black" stroke-width="0.6"></polyline><polyline points="43.59756097560975,35.61991869918699 43.44512195121951,35.670731707317074 43.34349593495935,35.670731707317074 43.24186991869919,35.72154471544715 43.140243902439025,35.77235772357724 43.03861788617886,35.823170731707314 42.9369918699187,35.8739837398374 42.83536585365854,35.92479674796748 42.733739837398375,35.97560975609756 42.63211382113821,36.02642276422764 42.479674796747965,36.077235772357724 42.3780487804878,36.17886178861789 42.22560975609756,36.229674796747965 42.1239837398374,36.33130081300813 41.97154471544715,36.38211382113821 41.81910569105691,36.483739837398375 41.666666666666664,36.58536585365854 41.514227642276424,36.6869918699187 41.36178861788618,36.78861788617886 41.209349593495936,36.9410569105691 41.107723577235774,37.042682926829265 40.95528455284553,37.14430894308943 40.7520325203252,37.296747967479675 40.59959349593496,37.39837398373984 40.447154471544714,37.5 40.29471544715447,37.65243902439024 40.142276422764226,37.7540650406504 39.989837398373986,37.855691056910565 39.78658536585366,38.00813008130081 39.63414634146341,38.109756097560975 39.48170731707317,38.21138211382114 39.329268292682926,38.36382113821138 39.176829268292686,38.46544715447154 39.02439024390244,38.61788617886179 38.87195121951219,38.77032520325203 38.71951219512195,38.922764227642276 38.5670731707317,39.02439024390244 38.41463414634146,39.176829268292686 38.262195121951216,39.329268292682926 38.109756097560975,39.43089430894309 37.90650406504065,39.583333333333336 37.7540650406504,39.735772357723576 37.60162601626016,39.88821138211382 37.449186991869915,40.09146341463415 37.34756097560975,40.19308943089431 37.24593495934959,40.34552845528455 37.14430894308943,40.447154471544714 37.042682926829265,40.59959349593496 36.99186991869919,40.701219512195124 36.890243902439025,40.802845528455286 36.83943089430894,40.90447154471545" fill="none" stroke="black" stroke-width="0.6"></polyline><polyline points="36.83943089430894,40.90447154471545 36.73780487804878,41.00609756097561 36.6869918699187,41.05691056910569 36.636178861788615,41.15853658536585 36.53455284552845,41.3109756097561 36.43292682926829,41.41260162601626 36.38211382113821,41.514227642276424 36.28048780487805,41.666666666666664 36.17886178861789,41.76829268292683 36.1280487804878,41.920731707317074 36.02642276422764,42.02235772357724 35.97560975609756,42.1239837398374 35.92479674796748,42.27642276422764 35.823170731707314,42.3780487804878 35.72154471544715,42.479674796747965 35.670731707317074,42.63211382113821 35.56910569105691,42.733739837398375 35.51829268292683,42.886178861788615 35.416666666666664,42.98780487804878 35.36585365853659,43.1910569105691 35.264227642276424,43.34349593495935 35.16260162601626,43.546747967479675 35.11178861788618,43.699186991869915 35.010162601626014,43.90243902439024 34.959349593495936,44.105691056910565 34.90853658536585,44.30894308943089 34.80691056910569,44.512195121951216 34.75609756097561,44.71544715447154 34.65447154471545,44.918699186991866 34.552845528455286,45.172764227642276 34.5020325203252,45.325203252032516 34.451219512195124,45.47764227642276 34.34959349593496,45.68089430894309 34.298780487804876,45.78252032520325 34.2479674796748,45.985772357723576 34.197154471544714,46.1890243902439 34.146341463414636,46.392276422764226 34.04471544715447,46.54471544715447 34.04471544715447,46.697154471544714 33.99390243902439,46.84959349593496 33.94308943089431,47.0020325203252 33.94308943089431,47.103658536585364 33.94308943089431,47.20528455284553 33.892276422764226,47.357723577235774 33.892276422764226,47.459349593495936 33.892276422764226,47.5609756097561 33.84146341463415,47.71341463414634 33.790650406504064,47.86585365853659 33.790650406504064,47.96747967479675 33.739837398373986,48.11991869918699 33.6890243902439,48.27235772357724" fill="none" stroke="black" stroke-width="0.6"></polyline><polyline points="33.6890243902439,48.27235772357724 33.63821138211382,48.42479674796748 33.58739837398374,48.52642276422764 33.58739837398374,48.6280487804878 33.53658536585366,48.729674796747965 33.53658536585366,48.83130081300813 33.485772357723576,48.93292682926829 33.485772357723576,49.03455284552845 33.485772357723576,49.136178861788615 33.4349593495935,49.23780487804878 33.4349593495935,49.33943089430894 33.4349593495935,49.4410569105691 33.38414634146341,49.542682926829265 33.38414634146341,49.64430894308943 33.38414634146341,49.74593495934959 33.333333333333336,49.89837398373984 33.28252032520325,50 33.28252032520325,50.15243902439024 33.23170731707317,50.2540650406504 33.23170731707317,50.355691056910565 33.23170731707317,50.45731707317073 33.23170731707317,50.55894308943089 33.23170731707317,50.66056910569105 33.23170731707317,50.762195121951216 33.23170731707317,50.86382113821138 33.23170731707317,50.96544715447154 33.23170731707317,51.11788617886179 33.23170731707317,51.21951219512195 33.23170731707317,51.37195121951219 33.23170731707317,51.52439024390244 33.28252032520325,51.6260162601626 33.28252032520325,51.77845528455284 33.28252032520325,51.93089430894309 33.28252032520325,52.083333333333336 33.28252032520325,52.28658536585366 33.28252032520325,52.4390243902439 33.28252032520325,52.642276422764226 33.333333333333336,52.79471544715447 33.333333333333336,52.947154471544714 33.333333333333336,53.09959349593496 33.333333333333336,53.302845528455286 33.38414634146341,53.45528455284553 33.4349593495935,53.607723577235774 33.485772357723576,53.8109756097561 33.485772357723576,53.96341463414634 33.58739837398374,54.166666666666664 33.63821138211382,54.31910569105691 33.6890243902439,54.52235772357724 33.739837398373986,54.67479674796748 33.790650406504064,54.827235772357724 33.892276422764226,54.979674796747965" fill="none" stroke="black" stroke-width="0.6"></polyline><polyline points="33.892276422764226,54.979674796747965 33.94308943089431,55.08130081300813 33.99390243902439,55.233739837398375 34.04471544715447,55.386178861788615 34.146341463414636,55.53861788617886 34.197154471544714,55.6910569105691 34.2479674796748,55.84349593495935 34.34959349593496,55.99593495934959 34.451219512195124,56.199186991869915 34.5020325203252,56.40243902439024 34.603658536585364,56.55487804878049 34.70528455284553,56.75813008130081 34.75609756097561,56.96138211382114 34.857723577235774,57.16463414634146 34.90853658536585,57.36788617886179 35.010162601626014,57.52032520325203 35.0609756097561,57.72357723577235 35.11178861788618,57.8760162601626 35.16260162601626,58.02845528455284 35.21341463414634,58.18089430894309 35.264227642276424,58.33333333333333 35.3150406504065,58.485772357723576 35.36585365853659,58.63821138211382 35.416666666666664,58.739837398373986 35.46747967479675,58.84146341463415 35.51829268292683,58.94308943089431 35.56910569105691,59.04471544715447 35.61991869918699,59.146341463414636 35.670731707317074,59.2479674796748 35.77235772357724,59.34959349593496 35.77235772357724,59.451219512195124 35.8739837398374,59.5020325203252 35.92479674796748,59.603658536585364 35.97560975609756,59.65447154471545 35.97560975609756,59.70528455284553 36.077235772357724,59.80691056910569 36.1280487804878,59.90853658536585 36.17886178861789,59.959349593495936 36.229674796747965,60.0609756097561 36.33130081300813,60.16260162601626 36.38211382113821,60.264227642276424 36.483739837398375,60.36585365853659 36.53455284552845,60.46747967479675 36.636178861788615,60.61991869918699 36.73780487804878,60.77235772357724 36.83943089430894,60.8739837398374 36.9410569105691,60.97560975609756 37.042682926829265,61.1280487804878 37.09349593495935,61.229674796747965 37.19512195121951,61.33130081300813 37.296747967479675,61.43292682926829" fill="none" stroke="black" stroke-width="0.6"></polyline><polyline points="37.296747967479675,61.43292682926829 37.39837398373984,61.53455284552845 37.449186991869915,61.636178861788615 37.55081300813008,61.78861788617886 37.65243902439024,61.890243902439025 37.7540650406504,61.99186991869919 37.855691056910565,62.14430894308943 37.95731707317073,62.24593495934959 38.05894308943089,62.39837398373984 38.16056910569105,62.55081300813008 38.262195121951216,62.65243902439024 38.36382113821138,62.80487804878049 38.46544715447154,62.95731707317073 38.61788617886179,63.05894308943089 38.71951219512195,63.21138211382114 38.87195121951219,63.3130081300813 38.97357723577235,63.41463414634146 39.1260162601626,63.516260162601625 39.27845528455285,63.61788617886179 39.38008130081301,63.71951219512195 39.53252032520325,63.77032520325203 39.63414634146341,63.87195121951219 39.735772357723576,63.97357723577235 39.83739837398374,64.07520325203252 39.9390243902439,64.17682926829268 40.040650406504064,64.22764227642276 40.142276422764226,64.32926829268293 40.24390243902439,64.380081300813 40.29471544715447,64.48170731707317 40.396341463414636,64.53252032520325 40.4979674796748,64.58333333333333 40.548780487804876,64.6849593495935 40.59959349593496,64.73577235772358 40.701219512195124,64.78658536585365 40.7520325203252,64.83739837398373 40.853658536585364,64.9390243902439 40.90447154471545,64.98983739837398 40.95528455284553,65.09146341463415 41.05691056910569,65.1930894308943 41.15853658536585,65.2439024390244 41.209349593495936,65.34552845528455 41.3109756097561,65.39634146341463 41.41260162601626,65.4979674796748 41.46341463414634,65.54878048780488 41.5650406504065,65.65040650406505 41.61585365853659,65.7520325203252 41.71747967479675,65.80284552845528 41.81910569105691,65.90447154471545 41.86991869918699,65.95528455284553 41.97154471544715,66.0569105691057 42.073170731707314,66.10772357723577" fill="none" stroke="black" stroke-width="0.6"></polyline><polyline points="42.073170731707314,66.10772357723577 42.17479674796748,66.15853658536585 42.22560975609756,66.20934959349593 42.327235772357724,66.26016260162602 42.42886178861789,66.3109756097561 42.479674796747965,66.36178861788618 42.58130081300813,66.41260162601625 42.68292682926829,66.46341463414635 42.733739837398375,66.51422764227642 42.83536585365854,66.5650406504065 42.9369918699187,66.61585365853658 42.98780487804878,66.61585365853658 43.08943089430894,66.66666666666667 43.1910569105691,66.71747967479675 43.292682926829265,66.76829268292683 43.39430894308943,66.76829268292683 43.49593495934959,66.8191056910569 43.59756097560975,66.869918699187 43.699186991869915,66.92073170731707 43.80081300813008,66.92073170731707 43.953252032520325,66.97154471544715 44.05487804878049,67.02235772357723 44.15650406504065,67.07317073170732 44.30894308943089,67.07317073170732 44.41056910569105,67.1239837398374 44.5630081300813,67.17479674796748 44.66463414634146,67.17479674796748 44.8170731707317,67.22560975609755 44.96951219512195,67.27642276422765 45.07113821138211,67.27642276422765 45.22357723577235,67.32723577235772 45.3760162601626,67.3780487804878 45.52845528455285,67.3780487804878 45.68089430894309,67.42886178861788 45.78252032520325,67.47967479674797 45.9349593495935,67.53048780487805 46.03658536585366,67.53048780487805 46.13821138211382,67.58130081300813 46.239837398373986,67.58130081300813 46.34146341463415,67.6321138211382 46.44308943089431,67.6321138211382 46.54471544715447,67.6829268292683 46.646341463414636,67.73373983739837 46.7479674796748,67.78455284552845 46.84959349593496,67.83536585365853 46.951219512195124,67.88617886178862 47.052845528455286,67.88617886178862 47.15447154471545,67.9369918699187 47.20528455284553,67.9369918699187 47.30691056910569,67.9369918699187 47.357723577235774,67.98780487804878" fill="none" stroke="black" stroke-width="0.6"></polyline><polyline points="47.357723577235774,67.98780487804878 47.459349593495936,67.98780487804878 47.510162601626014,67.98780487804878 47.61178861788618,67.98780487804878 47.66260162601626,67.98780487804878 47.71341463414634,67.98780487804878 47.764227642276424,67.98780487804878 47.8150406504065,67.98780487804878 47.86585365853659,67.98780487804878 47.916666666666664,67.98780487804878 47.96747967479675,67.98780487804878 48.01829268292683,67.98780487804878 48.06910569105691,68.03861788617886 48.170731707317074,68.03861788617886 48.22154471544715,68.03861788617886 48.27235772357724,68.03861788617886 48.3739837398374,68.03861788617886 48.42479674796748,68.08943089430895 48.52642276422764,68.08943089430895 48.577235772357724,68.08943089430895 48.67886178861789,68.08943089430895 48.78048780487805,68.14024390243902 48.88211382113821,68.14024390243902 48.983739837398375,68.14024390243902 49.08536585365854,68.14024390243902 49.1869918699187,68.1910569105691 49.28861788617886,68.1910569105691 49.390243902439025,68.1910569105691 49.542682926829265,68.24186991869918 49.64430894308943,68.24186991869918 49.74593495934959,68.24186991869918 49.84756097560975,68.24186991869918 50,68.24186991869918 50.10162601626016,68.29268292682927 50.203252032520325,68.29268292682927 50.355691056910565,68.29268292682927 50.50813008130081,68.29268292682927 50.609756097560975,68.29268292682927 50.762195121951216,68.29268292682927 50.86382113821138,68.29268292682927 51.016260162601625,68.29268292682927 51.11788617886179,68.29268292682927 51.27032520325203,68.29268292682927 51.37195121951219,68.29268292682927 51.47357723577235,68.29268292682927 51.6260162601626,68.29268292682927 51.72764227642276,68.29268292682927 51.880081300813,68.29268292682927 51.981707317073166,68.29268292682927 52.13414634146341,68.29268292682927 52.235772357723576,68.29268292682927" fill="none" stroke="black" stroke-width="0.6"></polyline><polyline points="52.235772357723576,68.29268292682927 52.38821138211382,68.29268292682927 52.489837398373986,68.29268292682927 52.642276422764226,68.29268292682927 52.74390243902439,68.29268292682927 52.896341463414636,68.29268292682927 52.9979674796748,68.29268292682927 53.15040650406504,68.29268292682927 53.2520325203252,68.29268292682927 53.40447154471545,68.29268292682927 53.55691056910569,68.24186991869918 53.65853658536585,68.24186991869918 53.8109756097561,68.24186991869918 53.91260162601626,68.24186991869918 54.0650406504065,68.1910569105691 54.21747967479675,68.1910569105691 54.36991869918699,68.1910569105691 54.47154471544715,68.14024390243902 54.6239837398374,68.14024390243902 54.77642276422764,68.08943089430895 54.92886178861789,68.03861788617886 55.03048780487805,68.03861788617886 55.18292682926829,67.98780487804878 55.28455284552845,67.98780487804878 55.4369918699187,67.9369918699187 55.53861788617886,67.88617886178862 55.6910569105691,67.88617886178862 55.84349593495935,67.83536585365853 55.99593495934959,67.78455284552845 56.09756097560975,67.78455284552845 56.30081300813008,67.73373983739837 56.40243902439024,67.6829268292683 56.55487804878049,67.6321138211382 56.75813008130081,67.58130081300813 56.859756097560975,67.53048780487805 57.012195121951216,67.47967479674797 57.16463414634146,67.42886178861788 57.3170731707317,67.3780487804878 57.46951219512195,67.32723577235772 57.62195121951219,67.27642276422765 57.72357723577235,67.22560975609755 57.8760162601626,67.17479674796748 58.02845528455284,67.07317073170732 58.130081300813,67.02235772357723 58.28252032520325,66.97154471544715 58.43495934959349,66.869918699187 58.58739837398374,66.8191056910569 58.739837398373986,66.71747967479675 58.892276422764226,66.66666666666667 59.04471544715447,66.5650406504065 59.2479674796748,66.51422764227642" fill="none" stroke="black" stroke-width="0.6"></polyline><polyline points="59.2479674796748,66.51422764227642 59.40040650406504,66.41260162601625 59.603658536585364,66.36178861788618 59.80691056910569,66.26016260162602 60.010162601626014,66.10772357723577 60.16260162601626,66.0060975609756 60.36585365853659,65.90447154471545 60.56910569105691,65.7520325203252 60.72154471544715,65.65040650406505 60.8739837398374,65.54878048780488 61.02642276422764,65.44715447154472 61.17886178861789,65.34552845528455 61.33130081300813,65.2439024390244 61.483739837398375,65.14227642276423 61.636178861788615,65.04065040650406 61.78861788617886,64.9390243902439 61.9410569105691,64.83739837398373 62.09349593495935,64.73577235772358 62.19512195121951,64.6341463414634 62.34756097560975,64.53252032520325 62.449186991869915,64.43089430894308 62.60162601626016,64.32926829268293 62.703252032520325,64.17682926829268 62.80487804878049,64.07520325203252 62.95731707317073,64.02439024390243 63.05894308943089,63.87195121951219 63.16056910569105,63.77032520325203 63.262195121951216,63.668699186991866 63.36382113821138,63.5670731707317 63.46544715447154,63.46544715447154 63.5670731707317,63.36382113821138 63.668699186991866,63.262195121951216 63.77032520325203,63.21138211382114 63.922764227642276,63.109756097560975 63.97357723577235,63.00813008130081 64.07520325203252,62.95731707317073 64.17682926829268,62.855691056910565 64.27845528455285,62.80487804878049 64.32926829268293,62.703252032520325 64.43089430894308,62.65243902439024 64.53252032520325,62.55081300813008 64.58333333333333,62.5 64.6849593495935,62.39837398373984 64.78658536585365,62.296747967479675 64.88821138211382,62.19512195121951 64.98983739837398,62.042682926829265 65.09146341463415,61.9410569105691 65.1930894308943,61.83943089430894 65.29471544715447,61.6869918699187 65.34552845528455,61.58536585365854 65.44715447154472,61.483739837398375" fill="none" stroke="black" stroke-width="0.6"></polyline><polyline points="65.44715447154472,61.483739837398375 65.54878048780488,61.33130081300813 65.65040650406505,61.229674796747965 65.7520325203252,61.1280487804878 65.85365853658537,60.97560975609756 65.90447154471545,60.8739837398374 66.0060975609756,60.72154471544715 66.15853658536585,60.51829268292683 66.26016260162602,60.36585365853659 66.36178861788618,60.16260162601626 66.46341463414635,59.959349593495936 66.5650406504065,59.80691056910569 66.66666666666667,59.603658536585364 66.76829268292683,59.40040650406504 66.8191056910569,59.2479674796748 66.92073170731707,59.04471544715447 67.02235772357723,58.84146341463415 67.07317073170732,58.63821138211382 67.17479674796748,58.43495934959349 67.27642276422765,58.28252032520325 67.32723577235772,58.130081300813 67.42886178861788,57.97764227642276 67.53048780487805,57.825203252032516 67.58130081300813,57.72357723577235 67.6829268292683,57.57113821138211 67.78455284552845,57.46951219512195 67.83536585365853,57.3170731707317 67.9369918699187,57.16463414634146 68.03861788617886,57.012195121951216 68.08943089430895,56.859756097560975 68.14024390243902,56.70731707317073 68.1910569105691,56.5040650406504 68.24186991869918,56.35162601626016 68.29268292682927,56.199186991869915 68.34349593495935,56.09756097560975 68.39430894308943,55.94512195121951 68.39430894308943,55.84349593495935 68.4451219512195,55.74186991869919 68.4959349593496,55.640243902439025 68.54674796747967,55.58943089430894 68.59756097560975,55.4369918699187 68.59756097560975,55.33536585365854 68.64837398373983,55.233739837398375 68.69918699186992,55.08130081300813 68.75,54.979674796747965 68.80081300813008,54.8780487804878 68.80081300813008,54.77642276422764 68.85162601626016,54.72560975609756 68.90243902439025,54.6239837398374 68.95325203252033,54.47154471544715 68.95325203252033,54.36991869918699" fill="none" stroke="black" stroke-width="0.6"></polyline><polyline points="68.95325203252033,54.36991869918699 69.0040650406504,54.21747967479675 69.05487804878048,54.014227642276424 69.10569105691057,53.86178861788618 69.15650406504065,53.65853658536585 69.15650406504065,53.50609756097561 69.20731707317073,53.353658536585364 69.2581300813008,53.201219512195124 69.35975609756098,52.9979674796748 69.41056910569105,52.84552845528455 69.51219512195122,52.642276422764226 69.5630081300813,52.489837398373986 69.66463414634146,52.235772357723576 69.76626016260163,51.981707317073166 69.86788617886178,51.72764227642276 69.96951219512195,51.47357723577235 70.0711382113821,51.21951219512195 70.17276422764228,51.016260162601625 70.22357723577235,50.8130081300813 70.32520325203252,50.609756097560975 70.3760162601626,50.40650406504065 70.3760162601626,50.203252032520325 70.42682926829268,50 70.47764227642276,49.796747967479675 70.47764227642276,49.542682926829265 70.47764227642276,49.33943089430894 70.47764227642276,49.136178861788615 70.47764227642276,48.983739837398375 70.47764227642276,48.83130081300813 70.47764227642276,48.67886178861789 70.47764227642276,48.47560975609756 70.47764227642276,48.27235772357724 70.47764227642276,48.06910569105691 70.47764227642276,47.8150406504065 70.47764227642276,47.61178861788618 70.47764227642276,47.40853658536585 70.47764227642276,47.15447154471545 70.47764227642276,46.951219512195124 70.47764227642276,46.7479674796748 70.47764227642276,46.54471544715447 70.42682926829268,46.290650406504064 70.42682926829268,46.03658536585366 70.42682926829268,45.78252032520325 70.3760162601626,45.52845528455285 70.3760162601626,45.325203252032516 70.3760162601626,45.12195121951219 70.32520325203252,44.918699186991866 70.27439024390243,44.766260162601625 70.22357723577235,44.61382113821138 70.22357723577235,44.46138211382114 70.17276422764228,44.359756097560975" fill="none" stroke="black" stroke-width="0.6"></polyline><polyline points="70.17276422764228,44.359756097560975 70.1219512195122,44.20731707317073 70.1219512195122,44.05487804878049 70.1219512195122,43.85162601626016 70.0711382113821,43.699186991869915 70.0711382113821,43.49593495934959 70.02032520325203,43.292682926829265 70.02032520325203,43.08943089430894 69.96951219512195,42.886178861788615 69.91869918699187,42.68292682926829 69.8170731707317,42.479674796747965 69.76626016260163,42.27642276422764 69.71544715447155,42.073170731707314 69.66463414634146,41.86991869918699 69.5630081300813,41.61585365853659 69.51219512195122,41.41260162601626 69.41056910569105,41.209349593495936 69.3089430894309,40.95528455284553 69.20731707317073,40.7520325203252 69.15650406504065,40.548780487804876 69.05487804878048,40.34552845528455 69.0040650406504,40.142276422764226 68.90243902439025,39.88821138211382 68.85162601626016,39.6849593495935 68.75,39.43089430894309 68.64837398373983,39.176829268292686 68.54674796747967,38.922764227642276 68.4959349593496,38.77032520325203 68.39430894308943,38.5670731707317 68.29268292682927,38.46544715447154 68.1910569105691,38.3130081300813 68.14024390243902,38.16056910569105 68.03861788617886,38.00813008130081 67.98780487804878,37.855691056910565 67.9369918699187,37.703252032520325 67.83536585365853,37.55081300813008 67.78455284552845,37.39837398373984 67.73373983739837,37.24593495934959 67.6829268292683,37.09349593495935 67.6321138211382,36.99186991869919 67.53048780487805,36.890243902439025 67.47967479674797,36.78861788617886 67.42886178861788,36.636178861788615 67.32723577235772,36.53455284552845 67.27642276422765,36.38211382113821 67.22560975609755,36.28048780487805 67.1239837398374,36.17886178861789 67.07317073170732,36.077235772357724 66.97154471544715,35.97560975609756 66.869918699187,35.8739837398374 66.8191056910569,35.823170731707314" fill="none" stroke="black" stroke-width="0.6"></polyline><polyline points="66.8191056910569,35.823170731707314 66.76829268292683,35.72154471544715 66.66666666666667,35.61991869918699 66.5650406504065,35.51829268292683 66.46341463414635,35.36585365853659 66.36178861788618,35.264227642276424 66.26016260162602,35.16260162601626 66.15853658536585,35.010162601626014 66.0569105691057,34.90853658536585 65.95528455284553,34.857723577235774 65.85365853658537,34.75609756097561 65.7520325203252,34.65447154471545 65.65040650406505,34.603658536585364 65.54878048780488,34.5020325203252 65.44715447154472,34.40040650406504 65.34552845528455,34.34959349593496 65.1930894308943,34.2479674796748 65.09146341463415,34.146341463414636 64.9390243902439,34.09552845528455 64.78658536585365,33.99390243902439 64.6341463414634,33.84146341463415 64.48170731707317,33.739837398373986 64.32926829268293,33.63821138211382 64.1260162601626,33.485772357723576 63.922764227642276,33.333333333333336 63.71951219512195,33.23170731707317 63.46544715447154,33.079268292682926 63.262195121951216,32.926829268292686 63.05894308943089,32.82520325203252 62.855691056910565,32.72357723577236 62.65243902439024,32.6219512195122 62.39837398373984,32.46951219512195 62.19512195121951,32.36788617886179 61.99186991869919,32.266260162601625 61.78861788617886,32.16463414634146 61.53455284552845,32.0630081300813 61.33130081300813,31.961382113821138 61.077235772357724,31.859756097560975 60.92479674796748,31.758130081300813 60.72154471544715,31.60569105691057 60.56910569105691,31.504065040650406 60.416666666666664,31.351626016260163 60.264227642276424,31.25 60.11178861788618,31.148373983739837 60.010162601626014,31.097560975609756 59.90853658536585,30.995934959349594 59.80691056910569,30.89430894308943 59.70528455284553,30.84349593495935 59.603658536585364,30.741869918699187 59.552845528455286,30.691056910569106 59.451219512195124,30.640243902439025" fill="none" stroke="black" stroke-width="0.6"></polyline><polyline points="59.451219512195124,30.640243902439025 59.34959349593496,30.538617886178862 59.298780487804876,30.48780487804878 59.197154471544714,30.38617886178862 59.146341463414636,30.335365853658537 59.04471544715447,30.284552845528456 58.99390243902439,30.233739837398375 58.892276422764226,30.182926829268293 58.790650406504064,30.08130081300813 58.739837398373986,30.08130081300813 58.6890243902439,30.03048780487805 58.63821138211382,29.979674796747968 58.58739837398374,29.928861788617887 58.536585365853654,29.878048780487806 58.485772357723576,29.878048780487806 58.43495934959349,29.827235772357724 58.38414634146341,29.776422764227643 58.33333333333333,29.725609756097562 58.28252032520325,29.725609756097562 58.18089430894309,29.67479674796748 58.130081300813,29.6239837398374 58.02845528455284,29.6239837398374 57.92682926829268,29.573170731707318 57.825203252032516,29.573170731707318 57.72357723577235,29.522357723577237 57.62195121951219,29.522357723577237 57.46951219512195,29.471544715447155 57.3170731707317,29.471544715447155 57.21544715447154,29.420731707317074 57.0630081300813,29.420731707317074 56.91056910569105,29.420731707317074 56.80894308943089,29.369918699186993 56.65650406504065,29.369918699186993 56.5040650406504,29.31910569105691 56.40243902439024,29.31910569105691 56.25,29.268292682926827 56.09756097560975,29.217479674796746 55.94512195121951,29.217479674796746 55.792682926829265,29.166666666666664 55.640243902439025,29.115853658536583 55.48780487804878,29.115853658536583 55.33536585365854,29.0650406504065 55.18292682926829,29.0650406504065 55.03048780487805,29.01422764227642 54.92886178861789,29.01422764227642 54.77642276422764,28.96341463414634 54.67479674796748,28.912601626016258 54.52235772357724,28.861788617886177 54.36991869918699,28.760162601626014 54.21747967479675,28.709349593495933 54.0650406504065,28.65853658536585" fill="none" stroke="black" stroke-width="0.6"></polyline><polyline points="54.0650406504065,28.65853658536585 53.91260162601626,28.65853658536585 53.709349593495936,28.60772357723577 53.55691056910569,28.60772357723577 53.40447154471545,28.55691056910569 53.201219512195124,28.55691056910569 53.048780487804876,28.55691056910569 52.896341463414636,28.55691056910569 52.74390243902439,28.506097560975608 52.540650406504064,28.506097560975608 52.38821138211382,28.506097560975608 52.1849593495935,28.455284552845526 52.03252032520325,28.404471544715445 51.880081300813,28.404471544715445 51.67682926829268,28.353658536585364 51.47357723577235,28.353658536585364 51.32113821138211,28.353658536585364 51.11788617886179,28.302845528455283 50.91463414634146,28.302845528455283 50.762195121951216,28.302845528455283 50.55894308943089,28.302845528455283 50.355691056910565,28.302845528455283 50.203252032520325,28.302845528455283 50,28.302845528455283 49.84756097560975,28.302845528455283 49.64430894308943,28.302845528455283 49.49186991869919,28.302845528455283 49.33943089430894,28.302845528455283 49.1869918699187,28.2520325203252 48.983739837398375,28.2520325203252 48.83130081300813,28.20121951219512 48.6280487804878,28.20121951219512 48.47560975609756,28.20121951219512 48.323170731707314,28.20121951219512 48.170731707317074,28.20121951219512 47.96747967479675,28.20121951219512 47.8150406504065,28.20121951219512 47.66260162601626,28.20121951219512 47.510162601626014,28.2520325203252 47.357723577235774,28.302845528455283 47.20528455284553,28.302845528455283 47.052845528455286,28.353658536585364 46.90040650406504,28.353658536585364 46.7479674796748,28.404471544715445 46.54471544715447,28.404471544715445 46.392276422764226,28.404471544715445 46.1890243902439,28.455284552845526 46.03658536585366,28.455284552845526 45.833333333333336,28.455284552845526 45.68089430894309,28.506097560975608 45.47764227642276,28.55691056910569" fill="none" stroke="black" stroke-width="0.6"></polyline><polyline points="45.47764227642276,28.55691056910569 45.325203252032516,28.60772357723577 45.12195121951219,28.65853658536585 44.918699186991866,28.709349593495933 44.766260162601625,28.760162601626014 44.5630081300813,28.810975609756095 44.41056910569105,28.861788617886177 44.20731707317073,28.861788617886177 44.05487804878049,28.912601626016258 43.85162601626016,28.912601626016258 43.64837398373984,28.96341463414634 43.44512195121951,29.01422764227642 43.24186991869919,29.0650406504065 43.03861788617886,29.166666666666664 42.83536585365854,29.217479674796746 42.63211382113821,29.268292682926827 42.42886178861789,29.31910569105691 42.22560975609756,29.369918699186993 42.073170731707314,29.420731707317074 41.86991869918699,29.471544715447155 41.666666666666664,29.522357723577237 41.46341463414634,29.573170731707318 41.3109756097561,29.6239837398374 41.107723577235774,29.67479674796748 40.90447154471545,29.725609756097562 40.7520325203252,29.776422764227643 40.548780487804876,29.827235772357724 40.34552845528455,29.878048780487806 40.19308943089431,29.979674796747968 39.9390243902439,30.08130081300813 39.78658536585366,30.182926829268293 39.583333333333336,30.284552845528456 39.43089430894309,30.335365853658537 39.27845528455285,30.4369918699187 39.1260162601626,30.48780487804878 38.97357723577235,30.589430894308943 38.82113821138211,30.691056910569106 38.668699186991866,30.79268292682927 38.46544715447154,30.84349593495935 38.36382113821138,30.945121951219512 38.21138211382114,31.046747967479675 38.05894308943089,31.148373983739837 37.90650406504065,31.19918699186992 37.80487804878049,31.30081300813008 37.65243902439024,31.402439024390244 37.5,31.453252032520325 37.39837398373984,31.554878048780488 37.24593495934959,31.65650406504065 37.09349593495935,31.70731707317073 36.99186991869919,31.808943089430894 36.83943089430894,31.910569105691057" fill="none" stroke="black" stroke-width="0.6"></polyline><polyline points="36.83943089430894,31.910569105691057 36.6869918699187,31.961382113821138 36.58536585365854,32.0630081300813 36.483739837398375,32.16463414634146 36.33130081300813,32.266260162601625 36.229674796747965,32.36788617886179 36.077235772357724,32.46951219512195 35.97560975609756,32.57113821138211 35.8739837398374,32.72357723577236 35.72154471544715,32.82520325203252 35.61991869918699,32.926829268292686 35.51829268292683,33.02845528455285 35.36585365853659,33.13008130081301 35.264227642276424,33.23170731707317 35.16260162601626,33.28252032520325 35.010162601626014,33.38414634146341 34.90853658536585,33.485772357723576 34.80691056910569,33.53658536585366 34.70528455284553,33.63821138211382 34.603658536585364,33.739837398373986 34.451219512195124,33.84146341463415 34.34959349593496,33.892276422764226 34.2479674796748,33.99390243902439 34.09552845528455,34.09552845528455 33.94308943089431,34.197154471544714 33.84146341463415,34.298780487804876 33.6890243902439,34.34959349593496 33.53658536585366,34.5020325203252 33.38414634146341,34.603658536585364 33.23170731707317,34.70528455284553 33.079268292682926,34.80691056910569 32.97764227642276,34.90853658536585 32.82520325203252,35.010162601626014 32.672764227642276,35.11178861788618 32.57113821138211,35.16260162601626 32.418699186991866,35.3150406504065 32.3170731707317,35.416666666666664 32.16463414634146,35.51829268292683 32.012195121951216,35.61991869918699 31.910569105691057,35.72154471544715 31.808943089430894,35.823170731707314 31.70731707317073,35.8739837398374 31.60569105691057,35.97560975609756 31.504065040650406,36.077235772357724 31.402439024390244,36.17886178861789 31.30081300813008,36.28048780487805 31.25,36.33130081300813 31.148373983739837,36.43292682926829 31.097560975609756,36.53455284552845 31.046747967479675,36.636178861788615 30.945121951219512,36.78861788617886" fill="none" stroke="black" stroke-width="0.6"></polyline><polyline points="30.945121951219512,36.78861788617886 30.89430894308943,36.890243902439025 30.84349593495935,37.042682926829265 30.741869918699187,37.19512195121951 30.691056910569106,37.296747967479675 30.640243902439025,37.449186991869915 30.538617886178862,37.60162601626016 30.48780487804878,37.7540650406504 30.38617886178862,37.90650406504065 30.335365853658537,38.109756097560975 30.233739837398375,38.262195121951216 30.132113821138212,38.46544715447154 30.03048780487805,38.668699186991866 29.979674796747968,38.82113821138211 29.878048780487806,39.02439024390244 29.776422764227643,39.22764227642276 29.725609756097562,39.38008130081301 29.6239837398374,39.583333333333336 29.522357723577237,39.78658536585366 29.420731707317074,39.9390243902439 29.31910569105691,40.142276422764226 29.217479674796746,40.29471544715447 29.115853658536583,40.447154471544714 29.01422764227642,40.59959349593496 28.912601626016258,40.7520325203252 28.861788617886177,40.90447154471545 28.760162601626014,41.05691056910569 28.65853658536585,41.209349593495936 28.55691056910569,41.36178861788618 28.506097560975608,41.514227642276424 28.404471544715445,41.666666666666664 28.353658536585364,41.86991869918699 28.302845528455283,42.02235772357724 28.20121951219512,42.22560975609756 28.15040650406504,42.42886178861789 28.099593495934958,42.58130081300813 27.997967479674795,42.733739837398375 27.947154471544714,42.83536585365854 27.896341463414632,42.9369918699187 27.84552845528455,43.08943089430894 27.79471544715447,43.1910569105691 27.693089430894307,43.34349593495935 27.642276422764226,43.49593495934959 27.591463414634145,43.699186991869915 27.489837398373982,43.85162601626016 27.4390243902439,44.0040650406504 27.38821138211382,44.15650406504065 27.33739837398374,44.30894308943089 27.286585365853657,44.46138211382114 27.235772357723576,44.5630081300813 27.184959349593495,44.71544715447154" fill="none" stroke="black" stroke-width="0.6"></polyline><polyline points="27.184959349593495,44.71544715447154 27.083333333333332,44.918699186991866 27.03252032520325,45.07113821138211 26.98170731707317,45.22357723577235 26.880081300813007,45.42682926829268 26.829268292682926,45.579268292682926 26.778455284552845,45.78252032520325 26.676829268292682,45.985772357723576 26.676829268292682,46.1890243902439 26.6260162601626,46.44308943089431 26.57520325203252,46.646341463414636 26.524390243902438,46.90040650406504 26.473577235772357,47.15447154471545 26.422764227642276,47.357723577235774 26.371951219512194,47.61178861788618 26.321138211382113,47.86585365853659 26.321138211382113,48.11991869918699 26.270325203252032,48.323170731707314 26.21951219512195,48.577235772357724 26.16869918699187,48.78048780487805 26.16869918699187,49.03455284552845 26.117886178861788,49.23780487804878 26.117886178861788,49.390243902439025 26.067073170731707,49.542682926829265 26.067073170731707,49.69512195121951 26.067073170731707,49.796747967479675 26.067073170731707,49.949186991869915 26.067073170731707,50.10162601626016 26.067073170731707,50.2540650406504 26.117886178861788,50.45731707317073 26.117886178861788,50.71138211382114 26.117886178861788,50.91463414634146 26.16869918699187,51.11788617886179 26.21951219512195,51.32113821138211 26.21951219512195,51.52439024390244 26.270325203252032,51.77845528455284 26.321138211382113,52.03252032520325 26.371951219512194,52.33739837398374 26.422764227642276,52.69308943089431 26.473577235772357,53.048780487804876 26.524390243902438,53.353658536585364 26.524390243902438,53.65853658536585 26.57520325203252,53.96341463414634 26.57520325203252,54.21747967479675 26.6260162601626,54.47154471544715 26.676829268292682,54.77642276422764 26.676829268292682,55.03048780487805 26.727642276422763,55.28455284552845 26.778455284552845,55.53861788617886 26.778455284552845,55.74186991869919 26.829268292682926,55.94512195121951" fill="none" stroke="black" stroke-width="0.6"></polyline><polyline points="26.829268292682926,55.94512195121951 26.829268292682926,56.14837398373984 26.880081300813007,56.35162601626016 26.880081300813007,56.5040650406504 26.93089430894309,56.70731707317073 26.98170731707317,56.859756097560975 26.98170731707317,57.012195121951216 27.03252032520325,57.16463414634146 27.083333333333332,57.266260162601625 27.134146341463413,57.418699186991866 27.184959349593495,57.52032520325203 27.235772357723576,57.672764227642276 27.286585365853657,57.77439024390244 27.33739837398374,57.8760162601626 27.33739837398374,57.97764227642276 27.38821138211382,58.079268292682926 27.4390243902439,58.231707317073166 27.489837398373982,58.33333333333333 27.540650406504064,58.485772357723576 27.591463414634145,58.63821138211382 27.642276422764226,58.790650406504064 27.693089430894307,58.94308943089431 27.74390243902439,59.09552845528455 27.79471544715447,59.2479674796748 27.896341463414632,59.40040650406504 27.947154471544714,59.552845528455286 27.997967479674795,59.65447154471545 28.099593495934958,59.80691056910569 28.15040650406504,59.959349593495936 28.2520325203252,60.11178861788618 28.302845528455283,60.21341463414634 28.404471544715445,60.416666666666664 28.455284552845526,60.56910569105691 28.55691056910569,60.72154471544715 28.60772357723577,60.8739837398374 28.709349593495933,61.02642276422764 28.760162601626014,61.17886178861789 28.861788617886177,61.33130081300813 28.912601626016258,61.483739837398375 29.01422764227642,61.636178861788615 29.115853658536583,61.78861788617886 29.217479674796746,61.9410569105691 29.31910569105691,62.09349593495935 29.369918699186993,62.19512195121951 29.471544715447155,62.34756097560975 29.573170731707318,62.5 29.67479674796748,62.65243902439024 29.776422764227643,62.80487804878049 29.878048780487806,62.95731707317073 29.979674796747968,63.109756097560975 30.08130081300813,63.262195121951216" fill="none" stroke="black" stroke-width="0.6"></polyline><polyline points="30.08130081300813,63.262195121951216 30.182926829268293,63.41463414634146 30.284552845528456,63.5670731707317 30.38617886178862,63.71951219512195 30.48780487804878,63.82113821138211 30.589430894308943,63.97357723577235 30.691056910569106,64.07520325203252 30.84349593495935,64.22764227642276 30.945121951219512,64.380081300813 31.046747967479675,64.48170731707317 31.148373983739837,64.6341463414634 31.25,64.78658536585365 31.351626016260163,64.88821138211382 31.402439024390244,65.04065040650406 31.504065040650406,65.1930894308943 31.60569105691057,65.29471544715447 31.70731707317073,65.4979674796748 31.808943089430894,65.65040650406505 31.910569105691057,65.80284552845528 32.012195121951216,65.95528455284553 32.11382113821138,66.0569105691057 32.21544715447154,66.20934959349593 32.3170731707317,66.3109756097561 32.36788617886179,66.41260162601625 32.46951219512195,66.51422764227642 32.57113821138211,66.61585365853658 32.6219512195122,66.71747967479675 32.72357723577236,66.8191056910569 32.77439024390244,66.92073170731707 32.8760162601626,67.02235772357723 32.97764227642276,67.17479674796748 33.079268292682926,67.27642276422765 33.18089430894309,67.42886178861788 33.28252032520325,67.53048780487805 33.4349593495935,67.6321138211382 33.53658536585366,67.73373983739837 33.63821138211382,67.83536585365853 33.739837398373986,67.9369918699187 33.84146341463415,68.03861788617886 33.94308943089431,68.08943089430895 34.04471544715447,68.1910569105691 34.146341463414636,68.24186991869918 34.197154471544714,68.29268292682927 34.298780487804876,68.34349593495935 34.40040650406504,68.39430894308943 34.451219512195124,68.4451219512195 34.552845528455286,68.54674796747967 34.65447154471545,68.59756097560975 34.75609756097561,68.69918699186992 34.857723577235774,68.75 34.959349593495936,68.85162601626016" fill="none" stroke="black" stroke-width="0.6"></polyline><polyline points="34.959349593495936,68.85162601626016 35.0609756097561,68.95325203252033 35.16260162601626,69.05487804878048 35.264227642276424,69.15650406504065 35.36585365853659,69.2581300813008 35.51829268292683,69.35975609756098 35.61991869918699,69.46138211382113 35.77235772357724,69.5630081300813 35.8739837398374,69.66463414634146 36.02642276422764,69.76626016260163 36.1280487804878,69.8170731707317 36.229674796747965,69.91869918699187 36.33130081300813,69.96951219512195 36.483739837398375,70.0711382113821 36.58536585365854,70.1219512195122 36.6869918699187,70.17276422764228 36.78861788617886,70.27439024390243 36.890243902439025,70.32520325203252 36.99186991869919,70.3760162601626 37.09349593495935,70.42682926829268 37.19512195121951,70.47764227642276 37.296747967479675,70.52845528455285 37.39837398373984,70.630081300813 37.449186991869915,70.68089430894308 37.55081300813008,70.73170731707317 37.703252032520325,70.83333333333333 37.80487804878049,70.8841463414634 37.90650406504065,70.9349593495935 38.00813008130081,71.03658536585365 38.109756097560975,71.08739837398373 38.21138211382114,71.13821138211382 38.3130081300813,71.23983739837398 38.41463414634146,71.29065040650406 38.516260162601625,71.39227642276423 38.61788617886179,71.4430894308943 38.71951219512195,71.49390243902438 38.82113821138211,71.59552845528455 38.922764227642276,71.64634146341463 39.02439024390244,71.69715447154472 39.1260162601626,71.7479674796748 39.176829268292686,71.79878048780488 39.27845528455285,71.84959349593495 39.329268292682926,71.90040650406505 39.43089430894309,71.95121951219512 39.48170731707317,72.0020325203252 39.583333333333336,72.10365853658537 39.63414634146341,72.15447154471545 39.735772357723576,72.20528455284553 39.78658536585366,72.2560975609756 39.88821138211382,72.3069105691057 39.9390243902439,72.35772357723577" fill="none" stroke="black" stroke-width="0.6"></polyline><polyline points="39.9390243902439,72.35772357723577 40.040650406504064,72.35772357723577 40.09146341463415,72.40853658536585 40.19308943089431,72.45934959349593 40.29471544715447,72.51016260162602 40.34552845528455,72.5609756097561 40.447154471544714,72.66260162601625 40.548780487804876,72.71341463414635 40.65040650406504,72.76422764227642 40.7520325203252,72.86585365853658 40.853658536585364,72.91666666666667 40.95528455284553,72.96747967479675 41.05691056910569,73.01829268292683 41.15853658536585,73.01829268292683 41.260162601626014,73.0691056910569 41.36178861788618,73.119918699187 41.46341463414634,73.17073170731707 41.5650406504065,73.22154471544715 41.666666666666664,73.22154471544715 41.81910569105691,73.27235772357723 41.920731707317074,73.32317073170732 42.02235772357724,73.3739837398374 42.17479674796748,73.42479674796748 42.327235772357724,73.42479674796748 42.42886178861789,73.42479674796748 42.58130081300813,73.47560975609755 42.733739837398375,73.47560975609755 42.83536585365854,73.52642276422765 42.98780487804878,73.52642276422765 43.140243902439025,73.57723577235772 43.292682926829265,73.57723577235772 43.44512195121951,73.6280487804878 43.59756097560975,73.67886178861788 43.75,73.72967479674797 43.90243902439024,73.78048780487805 44.05487804878049,73.83130081300813 44.20731707317073,73.8821138211382 44.359756097560975,73.9329268292683 44.512195121951216,73.98373983739837 44.61382113821138,74.08536585365853 44.8170731707317,74.13617886178862 44.918699186991866,74.1869918699187 45.07113821138211,74.23780487804878 45.22357723577235,74.23780487804878 45.325203252032516,74.28861788617886 45.47764227642276,74.33943089430895 45.63008130081301,74.33943089430895 45.73170731707317,74.33943089430895 45.833333333333336,74.39024390243902 45.9349593495935,74.4410569105691 46.08739837398374,74.49186991869918" fill="none" stroke="black" stroke-width="0.6"></polyline><polyline points="46.08739837398374,74.49186991869918 46.1890243902439,74.49186991869918 46.34146341463415,74.54268292682927 46.44308943089431,74.59349593495935 46.59552845528455,74.64430894308943 46.697154471544714,74.6951219512195 46.84959349593496,74.6951219512195 46.951219512195124,74.7459349593496 47.103658536585364,74.79674796747967 47.20528455284553,74.79674796747967 47.30691056910569,74.84756097560975 47.459349593495936,74.89837398373983 47.5609756097561,74.89837398373983 47.66260162601626,74.94918699186992 47.8150406504065,74.94918699186992 47.916666666666664,74.94918699186992 48.01829268292683,74.94918699186992 48.11991869918699,75 48.170731707317074,75 48.27235772357724,75.05081300813008 48.3739837398374,75.05081300813008 48.47560975609756,75.10162601626016 48.577235772357724,75.10162601626016 48.729674796747965,75.15243902439025 48.83130081300813,75.15243902439025 48.93292682926829,75.15243902439025 49.03455284552845,75.20325203252033 49.1869918699187,75.20325203252033 49.28861788617886,75.2540650406504 49.4410569105691,75.2540650406504 49.542682926829265,75.2540650406504 49.69512195121951,75.2540650406504 49.84756097560975,75.2540650406504 49.949186991869915,75.30487804878048 50.10162601626016,75.30487804878048 50.2540650406504,75.30487804878048 50.40650406504065,75.30487804878048 50.55894308943089,75.30487804878048 50.762195121951216,75.30487804878048 50.91463414634146,75.30487804878048 51.11788617886179,75.35569105691057 51.27032520325203,75.35569105691057 51.422764227642276,75.35569105691057 51.6260162601626,75.35569105691057 51.829268292682926,75.35569105691057 51.981707317073166,75.35569105691057 52.1849593495935,75.35569105691057 52.33739837398374,75.30487804878048 52.489837398373986,75.30487804878048 52.642276422764226,75.30487804878048 52.79471544715447,75.30487804878048" fill="none" stroke="black" stroke-width="0.6"></polyline><polyline points="52.79471544715447,75.30487804878048 52.896341463414636,75.30487804878048 53.048780487804876,75.30487804878048 53.201219512195124,75.30487804878048 53.353658536585364,75.30487804878048 53.50609756097561,75.30487804878048 53.607723577235774,75.30487804878048 53.760162601626014,75.2540650406504 53.91260162601626,75.2540650406504 54.014227642276424,75.20325203252033 54.11585365853659,75.20325203252033 54.21747967479675,75.15243902439025 54.36991869918699,75.15243902439025 54.47154471544715,75.15243902439025 54.6239837398374,75.15243902439025 54.77642276422764,75.15243902439025 54.8780487804878,75.15243902439025 55.03048780487805,75.15243902439025 55.18292682926829,75.15243902439025 55.28455284552845,75.10162601626016 55.4369918699187,75.10162601626016 55.58943089430894,75.05081300813008 55.74186991869919,74.94918699186992 55.89430894308943,74.89837398373983 56.046747967479675,74.79674796747967 56.199186991869915,74.6951219512195 56.35162601626016,74.59349593495935 56.5040650406504,74.54268292682927 56.70731707317073,74.4410569105691 56.859756097560975,74.33943089430895 57.012195121951216,74.28861788617886 57.21544715447154,74.1869918699187 57.418699186991866,74.08536585365853 57.57113821138211,73.98373983739837 57.77439024390244,73.8821138211382 58.02845528455284,73.78048780487805 58.231707317073166,73.67886178861788 58.43495934959349,73.57723577235772 58.63821138211382,73.47560975609755 58.84146341463415,73.3739837398374 59.04471544715447,73.32317073170732 59.298780487804876,73.22154471544715 59.5020325203252,73.119918699187 59.75609756097561,73.01829268292683 59.959349593495936,72.91666666666667 60.21341463414634,72.76422764227642 60.416666666666664,72.66260162601625 60.670731707317074,72.5609756097561 60.8739837398374,72.40853658536585 61.1280487804878,72.3069105691057 61.33130081300813,72.20528455284553" fill="none" stroke="black" stroke-width="0.6"></polyline><polyline points="61.33130081300813,72.20528455284553 61.53455284552845,72.10365853658537 61.73780487804878,72.0020325203252 61.9410569105691,71.90040650406505 62.14430894308943,71.84959349593495 62.34756097560975,71.7479674796748 62.55081300813008,71.64634146341463 62.703252032520325,71.54471544715447 62.90650406504065,71.4430894308943 63.109756097560975,71.34146341463415 63.262195121951216,71.23983739837398 63.46544715447154,71.13821138211382 63.61788617886179,71.03658536585365 63.77032520325203,70.9349593495935 63.922764227642276,70.83333333333333 64.07520325203252,70.73170731707317 64.22764227642276,70.68089430894308 64.43089430894308,70.630081300813 64.58333333333333,70.52845528455285 64.73577235772358,70.47764227642276 64.9390243902439,70.3760162601626 65.09146341463415,70.27439024390243 65.2439024390244,70.17276422764228 65.39634146341463,70.0711382113821 65.54878048780488,69.96951219512195 65.70121951219512,69.86788617886178 65.85365853658537,69.71544715447155 66.0060975609756,69.66463414634146 66.15853658536585,69.5630081300813 66.3109756097561,69.46138211382113 66.46341463414635,69.35975609756098 66.61585365853658,69.20731707317073 66.76829268292683,69.05487804878048 66.92073170731707,68.95325203252033 67.07317073170732,68.85162601626016 67.22560975609755,68.75 67.32723577235772,68.69918699186992 67.47967479674797,68.59756097560975 67.6321138211382,68.4451219512195 67.78455284552845,68.34349593495935 67.9369918699187,68.24186991869918 68.08943089430895,68.08943089430895 68.24186991869918,67.9369918699187 68.39430894308943,67.78455284552845 68.59756097560975,67.58130081300813 68.75,67.42886178861788 68.90243902439025,67.27642276422765 69.10569105691057,67.1239837398374 69.2581300813008,66.97154471544715 69.46138211382113,66.76829268292683 69.66463414634146,66.5650406504065" fill="none" stroke="black" stroke-width="0.6"></polyline><polyline points="69.66463414634146,66.5650406504065 69.86788617886178,66.36178861788618 70.0711382113821,66.10772357723577 70.27439024390243,65.85365853658537 70.47764227642276,65.65040650406505 70.630081300813,65.39634146341463 70.83333333333333,65.14227642276423 70.98577235772358,64.9390243902439 71.1890243902439,64.78658536585365 71.34146341463415,64.58333333333333 71.49390243902438,64.43089430894308 71.69715447154472,64.27845528455285 71.84959349593495,64.1260162601626 72.0020325203252,63.97357723577235 72.15447154471545,63.82113821138211 72.3069105691057,63.61788617886179 72.40853658536585,63.46544715447154 72.5609756097561,63.262195121951216 72.66260162601625,63.05894308943089 72.76422764227642,62.90650406504065 72.86585365853658,62.7540650406504 72.96747967479675,62.60162601626016 73.0691056910569,62.5 73.17073170731707,62.34756097560975 73.27235772357723,62.19512195121951 73.32317073170732,62.09349593495935 73.47560975609755,61.9410569105691 73.52642276422765,61.83943089430894 73.6280487804878,61.6869918699187 73.78048780487805,61.58536585365854 73.83130081300813,61.43292682926829 73.9329268292683,61.28048780487805 74.08536585365853,61.1280487804878 74.13617886178862,60.92479674796748 74.23780487804878,60.77235772357724 74.33943089430895,60.56910569105691 74.4410569105691,60.36585365853659 74.49186991869918,60.21341463414634 74.59349593495935,59.959349593495936 74.6951219512195,59.75609756097561 74.79674796747967,59.552845528455286 74.89837398373983,59.298780487804876 75,59.09552845528455 75.10162601626016,58.892276422764226 75.20325203252033,58.63821138211382 75.30487804878048,58.43495934959349 75.40650406504065,58.231707317073166 75.5081300813008,57.97764227642276 75.60975609756098,57.77439024390244 75.71138211382113,57.57113821138211 75.8130081300813,57.266260162601625" fill="none" stroke="black" stroke-width="0.6"></polyline><polyline points="75.8130081300813,57.266260162601625 75.91463414634146,57.0630081300813 76.01626016260163,56.80894308943089 76.11788617886178,56.55487804878049 76.21951219512195,56.35162601626016 76.27032520325203,56.14837398373984 76.3719512195122,55.94512195121951 76.47357723577235,55.792682926829265 76.52439024390243,55.58943089430894 76.6260162601626,55.386178861788615 76.67682926829268,55.18292682926829 76.72764227642276,54.979674796747965 76.72764227642276,54.67479674796748 76.77845528455285,54.420731707317074 76.82926829268293,54.21747967479675 76.82926829268293,54.014227642276424 76.880081300813,53.91260162601626 76.93089430894308,53.8109756097561 76.93089430894308,53.65853658536585 76.98170731707317,53.55691056910569 76.98170731707317,53.353658536585364 77.03252032520325,53.15040650406504 77.08333333333333,52.947154471544714 77.1341463414634,52.74390243902439 77.1341463414634,52.489837398373986 77.1849593495935,52.33739837398374 77.1849593495935,52.13414634146341 77.23577235772358,51.981707317073166 77.23577235772358,51.829268292682926 77.23577235772358,51.67682926829268 77.28658536585365,51.52439024390244 77.28658536585365,51.37195121951219 77.28658536585365,51.168699186991866 77.28658536585365,50.96544715447154 77.33739837398373,50.8130081300813 77.38821138211382,50.609756097560975 77.38821138211382,50.40650406504065 77.4390243902439,50.2540650406504 77.48983739837398,50.10162601626016 77.48983739837398,49.949186991869915 77.54065040650406,49.84756097560975 77.54065040650406,49.796747967479675 77.54065040650406,49.796747967479675 77.59146341463415,49.796747967479675 77.59146341463415,49.796747967479675 77.59146341463415,49.796747967479675 77.59146341463415,49.796747967479675 77.59146341463415,49.796747967479675 77.59146341463415,49.796747967479675 77.59146341463415,49.796747967479675 77.59146341463415,49.796747967479675" fill="none" stroke="black" stroke-width="0.6"></polyline><polyline points="77.59146341463415,49.796747967479675 77.59146341463415,49.796747967479675 77.59146341463415,49.796747967479675 77.59146341463415,49.796747967479675 77.59146341463415,49.796747967479675 77.59146341463415,49.84756097560975 77.59146341463415,49.84756097560975 77.59146341463415,49.84756097560975 77.59146341463415,49.84756097560975 77.59146341463415,49.84756097560975 77.59146341463415,49.84756097560975 77.59146341463415,49.84756097560975 77.59146341463415,49.84756097560975 77.59146341463415,49.796747967479675" fill="none" stroke="black" stroke-width="0.6"></polyline></svg>