<svg height="100" width="100" preserveAspectRatio="xMidYMid meet"><polyline points="50.10162601626016,50.40650406504065 50.10162601626016,50.40650406504065 50.05081300813008,50.40650406504065 50.05081300813008,50.40650406504065 50,50.40650406504065 50,50.355691056910565 50,50.355691056910565 49.949186991869915,50.355691056910565 49.949186991869915,50.355691056910565 49.949186991869915,50.355691056910565 49.949186991869915,50.355691056910565 49.949186991869915,50.355691056910565 49.949186991869915,50.355691056910565 50,50.30487804878049 50.05081300813008,50.30487804878049 50.10162601626016,50.30487804878049 50.15243902439024,50.2540650406504 50.203252032520325,50.203252032520325 50.30487804878049,50.203252032520325 50.355691056910565,50.15243902439024 50.45731707317073,50.05081300813008 50.50813008130081,50 50.609756097560975,49.89837398373984 50.71138211382114,49.74593495934959 50.762195121951216,49.59349593495935 50.86382113821138,49.49186991869919 50.91463414634146,49.33943089430894 51.016260162601625,49.1869918699187 51.0670731707317,49.08536585365854 51.11788617886179,48.983739837398375 51.168699186991866,48.83130081300813 51.168699186991866,48.729674796747965 51.21951219512195,48.577235772357724 51.27032520325203,48.42479674796748 51.27032520325203,48.323170731707314 51.27032520325203,48.170731707317074 51.32113821138211,48.06910569105691 51.32113821138211,47.916666666666664 51.32113821138211,47.8150406504065 51.32113821138211,47.71341463414634 51.32113821138211,47.61178861788618 51.32113821138211,47.510162601626014 51.32113821138211,47.40853658536585 51.32113821138211,47.357723577235774 51.32113821138211,47.30691056910569 51.32113821138211,47.25609756097561 51.32113821138211,47.25609756097561 51.32113821138211,47.20528455284553 51.32113821138211,47.15447154471545 51.32113821138211,47.15447154471545 51.32113821138211,47.052845528455286" fill="none" stroke="black" stroke-width="0.6"></polyline><polyline points="51.32113821138211,47.052845528455286 51.32113821138211,47.0020325203252 51.32113821138211,46.951219512195124 51.32113821138211,46.84959349593496 51.32113821138211,46.798780487804876 51.32113821138211,46.7479674796748 51.32113821138211,46.646341463414636 51.32113821138211,46.59552845528455 51.32113821138211,46.54471544715447 51.32113821138211,46.44308943089431 51.32113821138211,46.392276422764226 51.32113821138211,46.34146341463415 51.32113821138211,46.239837398373986 51.32113821138211,46.1890243902439 51.32113821138211,46.13821138211382 51.32113821138211,46.03658536585366 51.32113821138211,45.985772357723576 51.32113821138211,45.88414634146341 51.32113821138211,45.78252032520325 51.32113821138211,45.68089430894309 51.32113821138211,45.579268292682926 51.27032520325203,45.47764227642276 51.27032520325203,45.325203252032516 51.21951219512195,45.22357723577235 51.21951219512195,45.12195121951219 51.168699186991866,45.02032520325203 51.11788617886179,44.918699186991866 51.0670731707317,44.86788617886179 51.016260162601625,44.766260162601625 50.96544715447154,44.66463414634146 50.91463414634146,44.61382113821138 50.8130081300813,44.512195121951216 50.71138211382114,44.41056910569105 50.609756097560975,44.30894308943089 50.45731707317073,44.15650406504065 50.355691056910565,44.0040650406504 50.203252032520325,43.90243902439024 50.05081300813008,43.80081300813008 49.89837398373984,43.699186991869915 49.69512195121951,43.64837398373984 49.49186991869919,43.59756097560975 49.28861788617886,43.546747967479675 49.08536585365854,43.49593495934959 48.93292682926829,43.44512195121951 48.729674796747965,43.44512195121951 48.577235772357724,43.44512195121951 48.42479674796748,43.44512195121951 48.22154471544715,43.44512195121951 48.11991869918699,43.44512195121951 47.96747967479675,43.44512195121951 47.86585365853659,43.49593495934959" fill="none" stroke="black" stroke-width="0.6"></polyline><polyline points="47.86585365853659,43.49593495934959 47.71341463414634,43.546747967479675 47.61178861788618,43.64837398373984 47.510162601626014,43.699186991869915 47.40853658536585,43.80081300813008 47.30691056910569,43.90243902439024 47.15447154471545,44.0040650406504 47.052845528455286,44.15650406504065 46.951219512195124,44.359756097560975 46.84959349593496,44.512195121951216 46.798780487804876,44.71544715447154 46.697154471544714,44.86788617886179 46.646341463414636,45.07113821138211 46.59552845528455,45.22357723577235 46.49390243902439,45.42682926829268 46.392276422764226,45.68089430894309 46.34146341463415,45.88414634146341 46.290650406504064,46.03658536585366 46.1890243902439,46.239837398373986 46.13821138211382,46.392276422764226 46.08739837398374,46.59552845528455 45.985772357723576,46.7479674796748 45.9349593495935,46.951219512195124 45.88414634146341,47.103658536585364 45.833333333333336,47.25609756097561 45.833333333333336,47.459349593495936 45.78252032520325,47.61178861788618 45.73170731707317,47.86585365853659 45.73170731707317,48.06910569105691 45.68089430894309,48.27235772357724 45.63008130081301,48.52642276422764 45.63008130081301,48.78048780487805 45.579268292682926,49.03455284552845 45.579268292682926,49.23780487804878 45.52845528455285,49.4410569105691 45.52845528455285,49.64430894308943 45.52845528455285,49.89837398373984 45.52845528455285,50.10162601626016 45.52845528455285,50.30487804878049 45.52845528455285,50.55894308943089 45.579268292682926,50.762195121951216 45.579268292682926,50.91463414634146 45.63008130081301,51.168699186991866 45.63008130081301,51.32113821138211 45.68089430894309,51.52439024390244 45.73170731707317,51.72764227642276 45.78252032520325,51.880081300813 45.833333333333336,52.03252032520325 45.88414634146341,52.1849593495935 45.985772357723576,52.33739837398374 46.08739837398374,52.489837398373986" fill="none" stroke="black" stroke-width="0.6"></polyline><polyline points="46.08739837398374,52.489837398373986 46.13821138211382,52.642276422764226 46.239837398373986,52.84552845528455 46.34146341463415,52.9979674796748 46.44308943089431,53.15040650406504 46.54471544715447,53.302845528455286 46.697154471544714,53.40447154471545 46.798780487804876,53.55691056910569 46.90040650406504,53.65853658536585 47.0020325203252,53.8109756097561 47.15447154471545,53.91260162601626 47.25609756097561,54.0650406504065 47.357723577235774,54.166666666666664 47.459349593495936,54.26829268292683 47.61178861788618,54.31910569105691 47.764227642276424,54.420731707317074 47.86585365853659,54.47154471544715 48.01829268292683,54.52235772357724 48.170731707317074,54.573170731707314 48.323170731707314,54.6239837398374 48.47560975609756,54.67479674796748 48.67886178861789,54.72560975609756 48.88211382113821,54.72560975609756 49.08536585365854,54.77642276422764 49.33943089430894,54.77642276422764 49.49186991869919,54.827235772357724 49.74593495934959,54.8780487804878 49.949186991869915,54.8780487804878 50.15243902439024,54.8780487804878 50.355691056910565,54.8780487804878 50.609756097560975,54.8780487804878 50.8130081300813,54.827235772357724 51.016260162601625,54.77642276422764 51.27032520325203,54.67479674796748 51.47357723577235,54.573170731707314 51.67682926829268,54.47154471544715 51.93089430894309,54.31910569105691 52.13414634146341,54.166666666666664 52.33739837398374,54.014227642276424 52.540650406504064,53.86178861788618 52.74390243902439,53.65853658536585 52.947154471544714,53.50609756097561 53.15040650406504,53.302845528455286 53.353658536585364,53.15040650406504 53.55691056910569,52.947154471544714 53.760162601626014,52.79471544715447 53.91260162601626,52.59146341463415 54.11585365853659,52.38821138211382 54.31910569105691,52.1849593495935 54.47154471544715,51.981707317073166 54.6239837398374,51.77845528455284" fill="none" stroke="black" stroke-width="0.6"></polyline><polyline points="54.6239837398374,51.77845528455284 54.827235772357724,51.52439024390244 54.979674796747965,51.32113821138211 55.13211382113821,51.0670731707317 55.233739837398375,50.86382113821138 55.386178861788615,50.609756097560975 55.48780487804878,50.355691056910565 55.58943089430894,50.15243902439024 55.6910569105691,49.89837398373984 55.792682926829265,49.64430894308943 55.84349593495935,49.390243902439025 55.94512195121951,49.136178861788615 55.99593495934959,48.88211382113821 56.046747967479675,48.6280487804878 56.046747967479675,48.3739837398374 56.09756097560975,48.11991869918699 56.14837398373984,47.916666666666664 56.14837398373984,47.71341463414634 56.14837398373984,47.510162601626014 56.14837398373984,47.30691056910569 56.14837398373984,47.15447154471545 56.09756097560975,46.951219512195124 56.046747967479675,46.798780487804876 55.99593495934959,46.59552845528455 55.94512195121951,46.392276422764226 55.89430894308943,46.1890243902439 55.792682926829265,45.985772357723576 55.74186991869919,45.78252032520325 55.6910569105691,45.63008130081301 55.58943089430894,45.47764227642276 55.53861788617886,45.325203252032516 55.4369918699187,45.172764227642276 55.386178861788615,45.02032520325203 55.28455284552845,44.86788617886179 55.233739837398375,44.71544715447154 55.18292682926829,44.5630081300813 55.08130081300813,44.41056910569105 55.03048780487805,44.25813008130081 54.979674796747965,44.15650406504065 54.92886178861789,43.953252032520325 54.8780487804878,43.80081300813008 54.827235772357724,43.699186991869915 54.72560975609756,43.546747967479675 54.67479674796748,43.39430894308943 54.573170731707314,43.24186991869919 54.47154471544715,43.08943089430894 54.36991869918699,42.9369918699187 54.26829268292683,42.83536585365854 54.166666666666664,42.68292682926829 54.014227642276424,42.53048780487805 53.86178861788618,42.42886178861789" fill="none" stroke="black" stroke-width="0.6"></polyline><polyline points="53.86178861788618,42.42886178861789 53.760162601626014,42.327235772357724 53.607723577235774,42.22560975609756 53.45528455284553,42.1239837398374 53.2520325203252,42.02235772357724 53.09959349593496,41.920731707317074 52.896341463414636,41.81910569105691 52.69308943089431,41.76829268292683 52.540650406504064,41.666666666666664 52.33739837398374,41.61585365853659 52.13414634146341,41.514227642276424 51.93089430894309,41.46341463414634 51.72764227642276,41.36178861788618 51.47357723577235,41.260162601626014 51.21951219512195,41.209349593495936 50.96544715447154,41.107723577235774 50.71138211382114,41.05691056910569 50.45731707317073,41.00609756097561 50.2540650406504,41.00609756097561 50,40.95528455284553 49.796747967479675,40.95528455284553 49.542682926829265,40.90447154471545 49.33943089430894,40.90447154471545 49.08536585365854,40.90447154471545 48.83130081300813,40.90447154471545 48.577235772357724,40.90447154471545 48.323170731707314,40.90447154471545 48.11991869918699,40.90447154471545 47.86585365853659,40.90447154471545 47.61178861788618,40.95528455284553 47.357723577235774,41.00609756097561 47.103658536585364,41.05691056910569 46.84959349593496,41.107723577235774 46.59552845528455,41.209349593495936 46.392276422764226,41.260162601626014 46.1890243902439,41.36178861788618 45.9349593495935,41.46341463414634 45.78252032520325,41.5650406504065 45.63008130081301,41.71747967479675 45.42682926829268,41.81910569105691 45.27439024390244,41.97154471544715 45.12195121951219,42.1239837398374 44.96951219512195,42.27642276422764 44.766260162601625,42.42886178861789 44.61382113821138,42.63211382113821 44.46138211382114,42.78455284552845 44.30894308943089,42.98780487804878 44.20731707317073,43.140243902439025 44.05487804878049,43.34349593495935 43.953252032520325,43.49593495934959 43.85162601626016,43.699186991869915" fill="none" stroke="black" stroke-width="0.6"></polyline><polyline points="43.85162601626016,43.699186991869915 43.699186991869915,43.90243902439024 43.59756097560975,44.15650406504065 43.49593495934959,44.41056910569105 43.34349593495935,44.66463414634146 43.24186991869919,44.918699186991866 43.140243902439025,45.172764227642276 43.03861788617886,45.42682926829268 42.886178861788615,45.68089430894309 42.78455284552845,45.985772357723576 42.63211382113821,46.290650406504064 42.479674796747965,46.59552845528455 42.3780487804878,46.90040650406504 42.22560975609756,47.25609756097561 42.1239837398374,47.5609756097561 41.97154471544715,47.916666666666664 41.86991869918699,48.27235772357724 41.76829268292683,48.577235772357724 41.71747967479675,48.88211382113821 41.666666666666664,49.1869918699187 41.61585365853659,49.4410569105691 41.5650406504065,49.74593495934959 41.514227642276424,50.05081300813008 41.46341463414634,50.30487804878049 41.46341463414634,50.609756097560975 41.46341463414634,50.91463414634146 41.46341463414634,51.168699186991866 41.514227642276424,51.52439024390244 41.5650406504065,51.829268292682926 41.61585365853659,52.083333333333336 41.71747967479675,52.33739837398374 41.81910569105691,52.642276422764226 41.920731707317074,52.896341463414636 42.073170731707314,53.09959349593496 42.22560975609756,53.353658536585364 42.3780487804878,53.607723577235774 42.58130081300813,53.8109756097561 42.78455284552845,54.11585365853659 43.03861788617886,54.36991869918699 43.24186991869919,54.67479674796748 43.546747967479675,54.979674796747965 43.80081300813008,55.28455284552845 44.05487804878049,55.640243902439025 44.30894308943089,55.94512195121951 44.5630081300813,56.25 44.86788617886179,56.55487804878049 45.172764227642276,56.80894308943089 45.47764227642276,57.0630081300813 45.78252032520325,57.3170731707317 46.08739837398374,57.52032520325203 46.392276422764226,57.72357723577235" fill="none" stroke="black" stroke-width="0.6"></polyline><polyline points="46.392276422764226,57.72357723577235 46.7479674796748,57.8760162601626 47.052845528455286,58.02845528455284 47.40853658536585,58.18089430894309 47.764227642276424,58.33333333333333 48.06910569105691,58.43495934959349 48.3739837398374,58.536585365853654 48.729674796747965,58.63821138211382 48.983739837398375,58.6890243902439 49.28861788617886,58.6890243902439 49.59349593495935,58.739837398373986 49.84756097560975,58.739837398373986 50.10162601626016,58.790650406504064 50.355691056910565,58.84146341463415 50.55894308943089,58.84146341463415 50.8130081300813,58.892276422764226 51.0670731707317,58.94308943089431 51.32113821138211,58.94308943089431 51.52439024390244,58.94308943089431 51.829268292682926,58.94308943089431 52.083333333333336,58.94308943089431 52.28658536585366,58.94308943089431 52.540650406504064,58.892276422764226 52.79471544715447,58.84146341463415 52.9979674796748,58.790650406504064 53.2520325203252,58.739837398373986 53.50609756097561,58.63821138211382 53.709349593495936,58.58739837398374 54.014227642276424,58.485772357723576 54.26829268292683,58.38414634146341 54.47154471544715,58.33333333333333 54.77642276422764,58.18089430894309 55.03048780487805,58.079268292682926 55.28455284552845,57.97764227642276 55.53861788617886,57.825203252032516 55.792682926829265,57.72357723577235 56.09756097560975,57.57113821138211 56.35162601626016,57.46951219512195 56.65650406504065,57.3170731707317 56.91056910569105,57.21544715447154 57.21544715447154,57.012195121951216 57.46951219512195,56.859756097560975 57.72357723577235,56.70731707317073 57.97764227642276,56.5040650406504 58.231707317073166,56.30081300813008 58.43495934959349,56.14837398373984 58.63821138211382,55.94512195121951 58.84146341463415,55.792682926829265 58.99390243902439,55.58943089430894 59.197154471544714,55.386178861788615 59.34959349593496,55.18292682926829" fill="none" stroke="black" stroke-width="0.6"></polyline><polyline points="59.34959349593496,55.18292682926829 59.552845528455286,54.979674796747965 59.70528455284553,54.72560975609756 59.857723577235774,54.420731707317074 59.959349593495936,54.11585365853659 60.0609756097561,53.760162601626014 60.16260162601626,53.40447154471545 60.264227642276424,52.9979674796748 60.36585365853659,52.642276422764226 60.416666666666664,52.33739837398374 60.51829268292683,52.03252032520325 60.61991869918699,51.72764227642276 60.72154471544715,51.422764227642276 60.823170731707314,51.11788617886179 60.8739837398374,50.71138211382114 60.92479674796748,50.355691056910565 60.97560975609756,49.89837398373984 60.97560975609756,49.390243902439025 60.97560975609756,48.93292682926829 60.97560975609756,48.47560975609756 60.92479674796748,48.06910569105691 60.8739837398374,47.61178861788618 60.77235772357724,47.20528455284553 60.670731707317074,46.84959349593496 60.56910569105691,46.49390243902439 60.416666666666664,46.03658536585366 60.3150406504065,45.68089430894309 60.21341463414634,45.27439024390244 60.11178861788618,44.8170731707317 59.959349593495936,44.46138211382114 59.857723577235774,44.105691056910565 59.70528455284553,43.699186991869915 59.552845528455286,43.44512195121951 59.40040650406504,43.140243902439025 59.197154471544714,42.83536585365854 59.04471544715447,42.58130081300813 58.84146341463415,42.327235772357724 58.58739837398374,42.02235772357724 58.38414634146341,41.76829268292683 58.130081300813,41.514227642276424 57.92682926829268,41.260162601626014 57.72357723577235,41.107723577235774 57.52032520325203,41.00609756097561 57.3170731707317,40.853658536585364 57.11382113821138,40.7520325203252 56.859756097560975,40.59959349593496 56.605691056910565,40.447154471544714 56.40243902439024,40.29471544715447 56.199186991869915,40.142276422764226 55.99593495934959,39.989837398373986 55.792682926829265,39.83739837398374" fill="none" stroke="black" stroke-width="0.6"></polyline><polyline points="55.792682926829265,39.83739837398374 55.58943089430894,39.6849593495935 55.386178861788615,39.48170731707317 55.18292682926829,39.329268292682926 54.979674796747965,39.176829268292686 54.77642276422764,39.02439024390244 54.573170731707314,38.87195121951219 54.36991869918699,38.77032520325203 54.11585365853659,38.668699186991866 53.91260162601626,38.5670731707317 53.709349593495936,38.41463414634146 53.50609756097561,38.3130081300813 53.2520325203252,38.21138211382114 52.9979674796748,38.05894308943089 52.74390243902439,37.95731707317073 52.489837398373986,37.855691056910565 52.235772357723576,37.7540650406504 51.93089430894309,37.703252032520325 51.67682926829268,37.65243902439024 51.37195121951219,37.60162601626016 51.0670731707317,37.60162601626016 50.762195121951216,37.55081300813008 50.45731707317073,37.5 50.10162601626016,37.5 49.796747967479675,37.449186991869915 49.49186991869919,37.449186991869915 49.136178861788615,37.449186991869915 48.78048780487805,37.39837398373984 48.42479674796748,37.39837398373984 48.06910569105691,37.39837398373984 47.71341463414634,37.39837398373984 47.30691056910569,37.449186991869915 46.90040650406504,37.5 46.54471544715447,37.55081300813008 46.13821138211382,37.65243902439024 45.73170731707317,37.7540650406504 45.325203252032516,37.855691056910565 44.918699186991866,38.00813008130081 44.5630081300813,38.16056910569105 44.15650406504065,38.3130081300813 43.75,38.516260162601625 43.39430894308943,38.71951219512195 42.98780487804878,38.97357723577235 42.58130081300813,39.22764227642276 42.22560975609756,39.48170731707317 41.81910569105691,39.735772357723576 41.46341463414634,40.040650406504064 41.15853658536585,40.29471544715447 40.853658536585364,40.548780487804876 40.548780487804876,40.853658536585364 40.24390243902439,41.107723577235774" fill="none" stroke="black" stroke-width="0.6"></polyline><polyline points="40.24390243902439,41.107723577235774 39.989837398373986,41.41260162601626 39.6849593495935,41.76829268292683 39.48170731707317,42.073170731707314 39.27845528455285,42.42886178861789 39.02439024390244,42.83536585365854 38.87195121951219,43.24186991869919 38.668699186991866,43.699186991869915 38.46544715447154,44.20731707317073 38.3130081300813,44.71544715447154 38.16056910569105,45.22357723577235 38.00813008130081,45.78252032520325 37.90650406504065,46.290650406504064 37.80487804878049,46.7479674796748 37.7540650406504,47.30691056910569 37.703252032520325,47.86585365853659 37.703252032520325,48.42479674796748 37.703252032520325,49.08536585365854 37.703252032520325,49.64430894308943 37.7540650406504,50.30487804878049 37.80487804878049,51.0670731707317 37.855691056910565,51.6260162601626 37.95731707317073,52.1849593495935 38.05894308943089,52.74390243902439 38.21138211382114,53.201219512195124 38.36382113821138,53.709349593495936 38.516260162601625,54.166666666666664 38.71951219512195,54.6239837398374 38.922764227642276,55.08130081300813 39.176829268292686,55.53861788617886 39.43089430894309,55.99593495934959 39.6849593495935,56.453252032520325 39.989837398373986,56.91056910569105 40.24390243902439,57.266260162601625 40.59959349593496,57.672764227642276 40.90447154471545,58.02845528455284 41.260162601626014,58.38414634146341 41.5650406504065,58.6890243902439 41.920731707317074,58.99390243902439 42.27642276422764,59.298780487804876 42.63211382113821,59.65447154471545 43.03861788617886,59.959349593495936 43.39430894308943,60.21341463414634 43.75,60.51829268292683 44.105691056910565,60.77235772357724 44.46138211382114,60.92479674796748 44.8170731707317,61.1280487804878 45.22357723577235,61.33130081300813 45.63008130081301,61.483739837398375 46.03658536585366,61.6869918699187 46.392276422764226,61.83943089430894" fill="none" stroke="black" stroke-width="0.6"></polyline><polyline points="46.392276422764226,61.83943089430894 46.798780487804876,61.99186991869919 47.15447154471545,62.19512195121951 47.5609756097561,62.34756097560975 47.96747967479675,62.55081300813008 48.323170731707314,62.703252032520325 48.729674796747965,62.80487804878049 49.136178861788615,62.90650406504065 49.542682926829265,63.00813008130081 49.949186991869915,63.05894308943089 50.355691056910565,63.109756097560975 50.762195121951216,63.16056910569105 51.11788617886179,63.16056910569105 51.47357723577235,63.21138211382114 51.880081300813,63.21138211382114 52.28658536585366,63.21138211382114 52.642276422764226,63.21138211382114 53.09959349593496,63.21138211382114 53.50609756097561,63.16056910569105 53.91260162601626,63.109756097560975 54.36991869918699,63.00813008130081 54.77642276422764,62.95731707317073 55.18292682926829,62.855691056910565 55.58943089430894,62.7540650406504 55.99593495934959,62.65243902439024 56.40243902439024,62.60162601626016 56.859756097560975,62.5 57.266260162601625,62.39837398373984 57.672764227642276,62.296747967479675 58.130081300813,62.19512195121951 58.536585365853654,62.09349593495935 58.94308943089431,61.99186991869919 59.40040650406504,61.83943089430894 59.80691056910569,61.6869918699187 60.21341463414634,61.53455284552845 60.61991869918699,61.33130081300813 60.97560975609756,61.1280487804878 61.38211382113821,60.8739837398374 61.73780487804878,60.670731707317074 62.09349593495935,60.416666666666664 62.449186991869915,60.11178861788618 62.855691056910565,59.80691056910569 63.16056910569105,59.5020325203252 63.46544715447154,59.146341463414636 63.77032520325203,58.739837398373986 64.02439024390243,58.43495934959349 64.27845528455285,58.130081300813 64.53252032520325,57.77439024390244 64.78658536585365,57.46951219512195 64.98983739837398,57.11382113821138 65.1930894308943,56.70731707317073" fill="none" stroke="black" stroke-width="0.6"></polyline><polyline points="65.1930894308943,56.70731707317073 65.39634146341463,56.35162601626016 65.59959349593495,55.94512195121951 65.7520325203252,55.53861788617886 65.90447154471545,55.18292682926829 66.0569105691057,54.8780487804878 66.20934959349593,54.573170731707314 66.36178861788618,54.26829268292683 66.46341463414635,53.96341463414634 66.5650406504065,53.65853658536585 66.66666666666667,53.353658536585364 66.71747967479675,52.9979674796748 66.76829268292683,52.59146341463415 66.8191056910569,52.1849593495935 66.869918699187,51.72764227642276 66.92073170731707,51.32113821138211 66.97154471544715,51.016260162601625 66.97154471544715,50.66056910569105 67.02235772357723,50.30487804878049 67.02235772357723,49.949186991869915 67.07317073170732,49.542682926829265 67.1239837398374,49.136178861788615 67.1239837398374,48.729674796747965 67.17479674796748,48.27235772357724 67.17479674796748,47.764227642276424 67.17479674796748,47.25609756097561 67.17479674796748,46.7479674796748 67.17479674796748,46.392276422764226 67.1239837398374,45.985772357723576 67.07317073170732,45.63008130081301 67.02235772357723,45.325203252032516 66.97154471544715,45.02032520325203 66.869918699187,44.61382113821138 66.76829268292683,44.25813008130081 66.66666666666667,43.85162601626016 66.5650406504065,43.39430894308943 66.41260162601625,42.98780487804878 66.26016260162602,42.53048780487805 66.10772357723577,42.1239837398374 65.90447154471545,41.76829268292683 65.70121951219512,41.41260162601626 65.44715447154472,41.05691056910569 65.2439024390244,40.7520325203252 64.98983739837398,40.447154471544714 64.73577235772358,40.09146341463415 64.48170731707317,39.735772357723576 64.17682926829268,39.38008130081301 63.82113821138211,38.97357723577235 63.5670731707317,38.668699186991866 63.262195121951216,38.3130081300813 62.90650406504065,38.00813008130081" fill="none" stroke="black" stroke-width="0.6"></polyline><polyline points="62.90650406504065,38.00813008130081 62.60162601626016,37.7540650406504 62.24593495934959,37.39837398373984 61.890243902439025,37.09349593495935 61.53455284552845,36.78861788617886 61.1280487804878,36.43292682926829 60.670731707317074,36.077235772357724 60.3150406504065,35.77235772357724 59.90853658536585,35.416666666666664 59.451219512195124,35.11178861788618 59.04471544715447,34.857723577235774 58.63821138211382,34.603658536585364 58.231707317073166,34.40040650406504 57.77439024390244,34.197154471544714 57.3170731707317,33.99390243902439 56.859756097560975,33.790650406504064 56.453252032520325,33.58739837398374 55.99593495934959,33.38414634146341 55.48780487804878,33.18089430894309 55.03048780487805,33.02845528455285 54.52235772357724,32.8760162601626 54.0650406504065,32.77439024390244 53.607723577235774,32.77439024390244 53.15040650406504,32.72357723577236 52.642276422764226,32.72357723577236 52.1849593495935,32.672764227642276 51.72764227642276,32.672764227642276 51.27032520325203,32.672764227642276 50.8130081300813,32.672764227642276 50.355691056910565,32.672764227642276 49.949186991869915,32.672764227642276 49.49186991869919,32.72357723577236 49.08536585365854,32.72357723577236 48.6280487804878,32.72357723577236 48.170731707317074,32.77439024390244 47.71341463414634,32.82520325203252 47.25609756097561,32.8760162601626 46.798780487804876,32.926829268292686 46.34146341463415,32.97764227642276 45.833333333333336,33.079268292682926 45.42682926829268,33.18089430894309 44.918699186991866,33.28252032520325 44.46138211382114,33.38414634146341 44.0040650406504,33.485772357723576 43.49593495934959,33.63821138211382 43.08943089430894,33.790650406504064 42.63211382113821,33.99390243902439 42.17479674796748,34.197154471544714 41.76829268292683,34.40040650406504 41.36178861788618,34.603658536585364 40.90447154471545,34.857723577235774" fill="none" stroke="black" stroke-width="0.6"></polyline><polyline points="40.90447154471545,34.857723577235774 40.4979674796748,35.0609756097561 40.09146341463415,35.264227642276424 39.63414634146341,35.51829268292683 39.22764227642276,35.72154471544715 38.82113821138211,36.02642276422764 38.36382113821138,36.33130081300813 37.95731707317073,36.6869918699187 37.5,37.042682926829265 37.042682926829265,37.449186991869915 36.6869918699187,37.7540650406504 36.28048780487805,38.109756097560975 35.8739837398374,38.516260162601625 35.51829268292683,38.87195121951219 35.11178861788618,39.27845528455285 34.75609756097561,39.735772357723576 34.40040650406504,40.09146341463415 34.09552845528455,40.447154471544714 33.790650406504064,40.853658536585364 33.485772357723576,41.260162601626014 33.28252032520325,41.61585365853659 33.02845528455285,42.02235772357724 32.8760162601626,42.327235772357724 32.672764227642276,42.733739837398375 32.52032520325203,43.140243902439025 32.418699186991866,43.546747967479675 32.266260162601625,44.0040650406504 32.16463414634146,44.46138211382114 32.0630081300813,44.86788617886179 31.961382113821138,45.3760162601626 31.910569105691057,45.9349593495935 31.910569105691057,46.54471544715447 31.859756097560975,47.103658536585364 31.808943089430894,47.71341463414634 31.808943089430894,48.27235772357724 31.758130081300813,48.83130081300813 31.758130081300813,49.390243902439025 31.758130081300813,49.89837398373984 31.808943089430894,50.40650406504065 31.859756097560975,50.96544715447154 31.910569105691057,51.52439024390244 31.961382113821138,52.03252032520325 32.0630081300813,52.59146341463415 32.16463414634146,53.15040650406504 32.3170731707317,53.65853658536585 32.418699186991866,54.166666666666664 32.57113821138211,54.6239837398374 32.72357723577236,55.13211382113821 32.926829268292686,55.640243902439025 33.13008130081301,56.09756097560975 33.38414634146341,56.55487804878049" fill="none" stroke="black" stroke-width="0.6"></polyline><polyline points="33.38414634146341,56.55487804878049 33.58739837398374,57.012195121951216 33.84146341463415,57.46951219512195 34.146341463414636,57.92682926829268 34.451219512195124,58.43495934959349 34.75609756097561,58.84146341463415 35.0609756097561,59.197154471544714 35.416666666666664,59.603658536585364 35.72154471544715,59.959349593495936 36.077235772357724,60.3150406504065 36.483739837398375,60.72154471544715 36.890243902439025,61.17886178861789 37.34756097560975,61.636178861788615 37.703252032520325,61.99186991869919 38.109756097560975,62.39837398373984 38.5670731707317,62.855691056910565 39.02439024390244,63.262195121951216 39.53252032520325,63.668699186991866 39.989837398373986,64.07520325203252 40.447154471544714,64.380081300813 40.95528455284553,64.73577235772358 41.46341463414634,65.09146341463415 41.920731707317074,65.39634146341463 42.42886178861789,65.7520325203252 43.03861788617886,66.0569105691057 43.546747967479675,66.3109756097561 44.105691056910565,66.5650406504065 44.66463414634146,66.8191056910569 45.22357723577235,67.02235772357723 45.78252032520325,67.22560975609755 46.392276422764226,67.42886178861788 46.90040650406504,67.58130081300813 47.459349593495936,67.73373983739837 48.06910569105691,67.88617886178862 48.577235772357724,68.03861788617886 49.136178861788615,68.14024390243902 49.74593495934959,68.24186991869918 50.355691056910565,68.39430894308943 50.91463414634146,68.4959349593496 51.575203252032516,68.59756097560975 52.13414634146341,68.69918699186992 52.74390243902439,68.75 53.353658536585364,68.80081300813008 53.96341463414634,68.85162601626016 54.52235772357724,68.85162601626016 55.18292682926829,68.85162601626016 55.74186991869919,68.85162601626016 56.30081300813008,68.80081300813008 56.859756097560975,68.69918699186992 57.418699186991866,68.64837398373983 57.97764227642276,68.54674796747967" fill="none" stroke="black" stroke-width="0.6"></polyline><polyline points="57.97764227642276,68.54674796747967 58.536585365853654,68.4451219512195 59.09552845528455,68.34349593495935 59.603658536585364,68.1910569105691 60.16260162601626,68.03861788617886 60.61991869918699,67.83536585365853 61.17886178861789,67.6829268292683 61.6869918699187,67.47967479674797 62.19512195121951,67.27642276422765 62.703252032520325,67.07317073170732 63.16056910569105,66.76829268292683 63.668699186991866,66.51422764227642 64.1260162601626,66.26016260162602 64.58333333333333,66.0060975609756 65.09146341463415,65.7520325203252 65.4979674796748,65.44715447154472 65.95528455284553,65.14227642276423 66.36178861788618,64.88821138211382 66.76829268292683,64.58333333333333 67.17479674796748,64.27845528455285 67.53048780487805,63.922764227642276 67.88617886178862,63.61788617886179 68.24186991869918,63.262195121951216 68.59756097560975,62.95731707317073 68.90243902439025,62.65243902439024 69.2581300813008,62.296747967479675 69.5630081300813,61.99186991869919 69.8170731707317,61.6869918699187 70.1219512195122,61.38211382113821 70.32520325203252,61.077235772357724 70.57926829268293,60.77235772357724 70.83333333333333,60.46747967479675 71.03658536585365,60.21341463414634 71.29065040650406,59.90853658536585 71.4430894308943,59.65447154471545 71.64634146341463,59.451219512195124 71.84959349593495,59.2479674796748 72.0020325203252,59.04471544715447 72.15447154471545,58.84146341463415 72.3069105691057,58.58739837398374 72.45934959349593,58.33333333333333 72.61178861788618,58.079268292682926 72.76422764227642,57.77439024390244 72.86585365853658,57.52032520325203 73.01829268292683,57.3170731707317 73.17073170731707,57.11382113821138 73.27235772357723,56.91056910569105 73.3739837398374,56.75813008130081 73.52642276422765,56.55487804878049 73.6280487804878,56.35162601626016 73.78048780487805,56.14837398373984" fill="none" stroke="black" stroke-width="0.6"></polyline><polyline points="73.78048780487805,56.14837398373984 73.8821138211382,55.89430894308943 74.03455284552845,55.640243902439025 74.13617886178862,55.33536585365854 74.28861788617886,55.08130081300813 74.39024390243902,54.827235772357724 74.54268292682927,54.6239837398374 74.64430894308943,54.36991869918699 74.7459349593496,54.166666666666664 74.89837398373983,53.96341463414634 75.05081300813008,53.65853658536585 75.15243902439025,53.40447154471545 75.30487804878048,53.15040650406504 75.45731707317073,52.79471544715447 75.5589430894309,52.540650406504064 75.71138211382113,52.235772357723576 75.86382113821138,51.93089430894309 75.96544715447155,51.72764227642276 76.0670731707317,51.47357723577235 76.21951219512195,51.27032520325203 76.27032520325203,51.11788617886179 76.3719512195122,50.96544715447154 76.47357723577235,50.8130081300813 76.52439024390243,50.66056910569105 76.52439024390243,50.50813008130081 76.57520325203252,50.40650406504065 76.57520325203252,50.30487804878049 76.6260162601626,50.2540650406504 76.6260162601626,50.203252032520325 76.6260162601626,50.203252032520325 76.6260162601626,50.203252032520325 76.6260162601626,50.203252032520325 76.6260162601626,50.203252032520325 76.6260162601626,50.203252032520325 76.6260162601626,50.203252032520325 76.6260162601626,50.203252032520325 76.6260162601626,50.203252032520325 76.6260162601626,50.203252032520325 76.67682926829268,50.203252032520325 76.72764227642276,50.15243902439024" fill="none" stroke="black" stroke-width="0.6"></polyline></svg>