<svg height="100" width="100" preserveAspectRatio="xMidYMid meet"><polyline points="50.203252032520325,49.64430894308943 50.203252032520325,49.64430894308943 50.203252032520325,49.64430894308943 50.203252032520325,49.64430894308943 50.203252032520325,49.64430894308943 50.203252032520325,49.64430894308943 50.203252032520325,49.64430894308943 50.203252032520325,49.64430894308943 50.203252032520325,49.64430894308943 50.203252032520325,49.64430894308943 50.203252032520325,49.64430894308943 50.203252032520325,49.64430894308943 50.2540650406504,49.64430894308943 50.2540650406504,49.64430894308943 50.2540650406504,49.64430894308943 50.2540650406504,49.64430894308943 50.2540650406504,49.64430894308943 50.2540650406504,49.64430894308943 50.2540650406504,49.59349593495935 50.2540650406504,49.59349593495935 50.2540650406504,49.59349593495935 50.2540650406504,49.59349593495935 50.2540650406504,49.59349593495935 50.2540650406504,49.59349593495935 50.2540650406504,49.59349593495935 50.2540650406504,49.59349593495935 50.2540650406504,49.59349593495935 50.2540650406504,49.59349593495935 50.2540650406504,49.59349593495935 50.2540650406504,49.59349593495935 50.2540650406504,49.59349593495935 50.2540650406504,49.59349593495935 50.2540650406504,49.59349593495935 50.2540650406504,49.59349593495935 50.2540650406504,49.59349593495935 50.2540650406504,49.59349593495935 50.2540650406504,49.59349593495935 50.2540650406504,49.59349593495935 50.2540650406504,49.59349593495935 50.2540650406504,49.59349593495935 50.2540650406504,49.59349593495935 50.2540650406504,49.59349593495935 50.2540650406504,49.59349593495935 50.2540650406504,49.59349593495935 50.2540650406504,49.59349593495935 50.2540650406504,49.59349593495935 50.2540650406504,49.542682926829265 50.2540650406504,49.542682926829265 50.2540650406504,49.542682926829265 50.2540650406504,49.542682926829265 50.2540650406504,49.542682926829265" fill="none" stroke="black" stroke-width="0.6"></polyline><polyline points="50.2540650406504,49.542682926829265 50.2540650406504,49.542682926829265 50.2540650406504,49.542682926829265 50.2540650406504,49.542682926829265 50.2540650406504,49.542682926829265 50.2540650406504,49.542682926829265 50.2540650406504,49.542682926829265 50.2540650406504,49.542682926829265 50.2540650406504,49.542682926829265 50.2540650406504,49.542682926829265 50.2540650406504,49.542682926829265 50.2540650406504,49.542682926829265 50.2540650406504,49.542682926829265 50.2540650406504,49.542682926829265 50.2540650406504,49.542682926829265 50.2540650406504,49.542682926829265 50.2540650406504,49.542682926829265 50.2540650406504,49.542682926829265 50.2540650406504,49.542682926829265 50.2540650406504,49.542682926829265 50.2540650406504,49.542682926829265 50.2540650406504,49.542682926829265 50.2540650406504,49.542682926829265 50.2540650406504,49.542682926829265 50.2540650406504,49.542682926829265 50.2540650406504,49.542682926829265 50.2540650406504,49.542682926829265 50.2540650406504,49.542682926829265 50.2540650406504,49.542682926829265 50.2540650406504,49.542682926829265 50.2540650406504,49.542682926829265 50.2540650406504,49.542682926829265 50.2540650406504,49.542682926829265 50.2540650406504,49.542682926829265 50.2540650406504,49.542682926829265 50.2540650406504,49.542682926829265 50.2540650406504,49.542682926829265 50.2540650406504,49.542682926829265 50.2540650406504,49.542682926829265 50.2540650406504,49.542682926829265 50.2540650406504,49.542682926829265 50.2540650406504,49.542682926829265 50.2540650406504,49.542682926829265 50.2540650406504,49.542682926829265 50.2540650406504,49.542682926829265 50.2540650406504,49.542682926829265 50.2540650406504,49.542682926829265 50.2540650406504,49.542682926829265 50.2540650406504,49.542682926829265 50.2540650406504,49.542682926829265 50.2540650406504,49.542682926829265" fill="none" stroke="black" stroke-width="0.6"></polyline><polyline points="50.2540650406504,49.542682926829265 50.2540650406504,49.542682926829265 50.2540650406504,49.542682926829265 50.2540650406504,49.542682926829265 50.2540650406504,49.542682926829265 50.2540650406504,49.542682926829265 50.2540650406504,49.542682926829265 50.2540650406504,49.542682926829265 50.2540650406504,49.542682926829265 50.2540650406504,49.542682926829265 50.2540650406504,49.542682926829265 50.2540650406504,49.542682926829265 50.2540650406504,49.542682926829265 50.2540650406504,49.542682926829265 50.2540650406504,49.542682926829265 50.2540650406504,49.542682926829265 50.2540650406504,49.542682926829265 50.2540650406504,49.542682926829265 50.2540650406504,49.542682926829265 50.2540650406504,49.542682926829265 50.2540650406504,49.542682926829265 50.2540650406504,49.542682926829265 50.2540650406504,49.542682926829265 50.2540650406504,49.542682926829265 50.2540650406504,49.542682926829265 50.2540650406504,49.542682926829265 50.2540650406504,49.542682926829265 50.2540650406504,49.542682926829265 50.2540650406504,49.542682926829265 50.2540650406504,49.542682926829265 50.2540650406504,49.542682926829265 50.2540650406504,49.542682926829265 50.2540650406504,49.542682926829265 50.2540650406504,49.542682926829265 50.2540650406504,49.542682926829265 50.2540650406504,49.542682926829265 50.2540650406504,49.542682926829265 50.2540650406504,49.542682926829265 50.2540650406504,49.542682926829265 50.2540650406504,49.542682926829265 50.2540650406504,49.542682926829265 50.2540650406504,49.542682926829265 50.2540650406504,49.542682926829265 50.2540650406504,49.542682926829265 50.2540650406504,49.542682926829265 50.2540650406504,49.542682926829265 50.2540650406504,49.542682926829265 50.2540650406504,49.542682926829265 50.2540650406504,49.542682926829265 50.2540650406504,49.542682926829265 50.2540650406504,49.542682926829265" fill="none" stroke="black" stroke-width="0.6"></polyline><polyline points="50.2540650406504,49.542682926829265 50.2540650406504,49.542682926829265 50.2540650406504,49.542682926829265 50.2540650406504,49.542682926829265 50.30487804878049,49.59349593495935 50.30487804878049,49.59349593495935 50.30487804878049,49.59349593495935" fill="none" stroke="black" stroke-width="0.6"></polyline><polyline points="50.86382113821138,50.30487804878049 50.86382113821138,50.30487804878049 50.86382113821138,50.30487804878049 50.86382113821138,50.30487804878049 50.86382113821138,50.30487804878049 50.86382113821138,50.30487804878049 50.86382113821138,50.30487804878049 50.86382113821138,50.30487804878049 50.86382113821138,50.30487804878049 50.86382113821138,50.30487804878049 50.86382113821138,50.30487804878049 50.86382113821138,50.30487804878049 50.86382113821138,50.30487804878049 50.86382113821138,50.30487804878049 50.86382113821138,50.30487804878049 50.86382113821138,50.30487804878049 50.86382113821138,50.30487804878049 50.86382113821138,50.30487804878049 50.86382113821138,50.30487804878049 50.86382113821138,50.30487804878049 50.86382113821138,50.30487804878049 50.8130081300813,50.30487804878049 50.8130081300813,50.30487804878049 50.8130081300813,50.30487804878049 50.8130081300813,50.30487804878049 50.8130081300813,50.30487804878049 50.8130081300813,50.30487804878049 50.8130081300813,50.30487804878049 50.8130081300813,50.30487804878049 50.8130081300813,50.2540650406504 50.762195121951216,50.2540650406504 50.762195121951216,50.2540650406504 50.762195121951216,50.203252032520325 50.762195121951216,50.203252032520325 50.762195121951216,50.203252032520325 50.762195121951216,50.203252032520325 50.762195121951216,50.15243902439024 50.762195121951216,50.15243902439024 50.762195121951216,50.15243902439024 50.762195121951216,50.15243902439024 50.762195121951216,50.10162601626016 50.762195121951216,50.10162601626016 50.762195121951216,50.10162601626016 50.762195121951216,50.10162601626016 50.762195121951216,50.10162601626016 50.762195121951216,50.05081300813008 50.762195121951216,50.05081300813008 50.762195121951216,50.05081300813008 50.762195121951216,50.05081300813008 50.762195121951216,50.05081300813008 50.762195121951216,50.05081300813008" fill="none" stroke="black" stroke-width="0.6"></polyline><polyline points="50.762195121951216,50.05081300813008 50.762195121951216,50.05081300813008 50.762195121951216,50.05081300813008 50.762195121951216,50.05081300813008 50.762195121951216,50.05081300813008 50.762195121951216,50.05081300813008 50.762195121951216,50 50.762195121951216,50 50.762195121951216,50 50.762195121951216,50 50.762195121951216,50 50.762195121951216,50 50.762195121951216,50 50.762195121951216,50 50.762195121951216,50 50.762195121951216,50 50.762195121951216,50 50.762195121951216,50 50.762195121951216,50 50.762195121951216,50 50.762195121951216,50 50.762195121951216,50 50.762195121951216,50 50.762195121951216,50 50.762195121951216,50 50.762195121951216,50 50.762195121951216,50 50.762195121951216,50 50.762195121951216,50 50.762195121951216,50 50.762195121951216,50 50.762195121951216,50 50.762195121951216,50 50.762195121951216,50 50.762195121951216,50 50.762195121951216,50 50.762195121951216,50 50.762195121951216,50 50.762195121951216,50 50.762195121951216,50 50.762195121951216,50 50.762195121951216,50 50.762195121951216,50 50.762195121951216,50 50.762195121951216,50 50.762195121951216,50 50.762195121951216,50 50.762195121951216,50 50.762195121951216,50 50.762195121951216,50 50.762195121951216,50" fill="none" stroke="black" stroke-width="0.6"></polyline><polyline points="50.762195121951216,50 50.762195121951216,50 50.762195121951216,50 50.8130081300813,50 50.8130081300813,50 50.8130081300813,50 50.8130081300813,50 50.86382113821138,50 50.86382113821138,50 50.86382113821138,50 50.91463414634146,50 50.91463414634146,50 50.91463414634146,50 50.96544715447154,49.949186991869915 50.96544715447154,49.949186991869915 50.96544715447154,49.949186991869915 50.96544715447154,49.949186991869915 51.016260162601625,49.949186991869915 51.016260162601625,49.949186991869915 51.016260162601625,49.949186991869915 51.016260162601625,49.949186991869915 51.016260162601625,49.949186991869915 51.016260162601625,49.949186991869915 51.016260162601625,49.949186991869915 51.0670731707317,49.949186991869915 51.0670731707317,49.949186991869915 51.0670731707317,49.949186991869915 51.0670731707317,49.949186991869915 51.0670731707317,49.949186991869915 51.0670731707317,49.949186991869915 51.0670731707317,49.949186991869915 51.0670731707317,49.949186991869915 51.0670731707317,49.949186991869915 51.0670731707317,49.949186991869915 51.0670731707317,49.949186991869915 51.0670731707317,49.949186991869915 51.0670731707317,49.949186991869915 51.0670731707317,49.949186991869915 51.0670731707317,49.949186991869915 51.0670731707317,49.949186991869915 51.0670731707317,49.949186991869915 51.0670731707317,49.949186991869915 51.0670731707317,49.949186991869915 51.0670731707317,49.949186991869915 51.0670731707317,49.949186991869915 51.0670731707317,49.949186991869915 51.0670731707317,49.949186991869915 51.0670731707317,49.949186991869915 51.0670731707317,49.949186991869915 51.0670731707317,49.949186991869915 51.0670731707317,49.949186991869915" fill="none" stroke="black" stroke-width="0.6"></polyline><polyline points="51.0670731707317,49.949186991869915 51.0670731707317,49.949186991869915 51.0670731707317,49.949186991869915 51.0670731707317,49.949186991869915 51.0670731707317,49.949186991869915 51.0670731707317,49.949186991869915 51.0670731707317,49.949186991869915 51.0670731707317,49.949186991869915 51.0670731707317,49.949186991869915 51.0670731707317,49.949186991869915 51.0670731707317,49.949186991869915 51.0670731707317,49.949186991869915 51.0670731707317,49.949186991869915 51.0670731707317,49.949186991869915 51.0670731707317,49.949186991869915 51.0670731707317,49.949186991869915 51.0670731707317,49.949186991869915 51.0670731707317,49.949186991869915 51.0670731707317,49.949186991869915 51.0670731707317,49.949186991869915 51.0670731707317,49.949186991869915 51.0670731707317,49.949186991869915 51.0670731707317,49.949186991869915 51.0670731707317,49.949186991869915 51.0670731707317,49.949186991869915 51.0670731707317,49.949186991869915 51.0670731707317,49.949186991869915 51.0670731707317,49.949186991869915 51.0670731707317,49.949186991869915 51.0670731707317,49.949186991869915 51.0670731707317,49.949186991869915 51.0670731707317,49.949186991869915 51.0670731707317,49.949186991869915 51.0670731707317,49.949186991869915 51.0670731707317,49.949186991869915 51.0670731707317,49.949186991869915 51.0670731707317,49.949186991869915 51.0670731707317,49.949186991869915 51.0670731707317,49.949186991869915 51.0670731707317,49.89837398373984 51.0670731707317,49.89837398373984 51.0670731707317,49.84756097560975 51.0670731707317,49.84756097560975 51.11788617886179,49.796747967479675 51.11788617886179,49.74593495934959 51.168699186991866,49.69512195121951 51.21951219512195,49.64430894308943 51.21951219512195,49.59349593495935 51.27032520325203,49.542682926829265 51.27032520325203,49.49186991869919 51.32113821138211,49.49186991869919" fill="none" stroke="black" stroke-width="0.6"></polyline><polyline points="51.32113821138211,49.49186991869919 51.32113821138211,49.4410569105691 51.37195121951219,49.390243902439025 51.422764227642276,49.33943089430894 51.422764227642276,49.28861788617886 51.47357723577235,49.1869918699187 51.52439024390244,49.136178861788615 51.52439024390244,49.03455284552845 51.575203252032516,48.93292682926829 51.6260162601626,48.88211382113821 51.6260162601626,48.78048780487805 51.67682926829268,48.67886178861789 51.72764227642276,48.6280487804878 51.72764227642276,48.52642276422764 51.77845528455284,48.42479674796748 51.829268292682926,48.3739837398374 51.829268292682926,48.27235772357724 51.880081300813,48.22154471544715 51.93089430894309,48.11991869918699 51.93089430894309,48.06910569105691 51.981707317073166,47.96747967479675 51.981707317073166,47.916666666666664 51.981707317073166,47.8150406504065 52.03252032520325,47.764227642276424 52.03252032520325,47.71341463414634 52.083333333333336,47.61178861788618 52.083333333333336,47.5609756097561 52.083333333333336,47.459349593495936 52.083333333333336,47.40853658536585 52.13414634146341,47.30691056910569 52.13414634146341,47.20528455284553 52.1849593495935,47.103658536585364 52.1849593495935,47.0020325203252 52.235772357723576,46.90040650406504 52.235772357723576,46.798780487804876 52.28658536585366,46.697154471544714 52.28658536585366,46.59552845528455 52.33739837398374,46.54471544715447 52.33739837398374,46.44308943089431 52.33739837398374,46.34146341463415 52.33739837398374,46.239837398373986 52.33739837398374,46.1890243902439 52.33739837398374,46.08739837398374 52.33739837398374,45.985772357723576 52.33739837398374,45.9349593495935 52.28658536585366,45.833333333333336 52.28658536585366,45.78252032520325 52.235772357723576,45.68089430894309 52.1849593495935,45.63008130081301 52.13414634146341,45.579268292682926 52.03252032520325,45.52845528455285" fill="none" stroke="black" stroke-width="0.6"></polyline><polyline points="52.03252032520325,45.52845528455285 51.93089430894309,45.47764227642276 51.880081300813,45.42682926829268 51.77845528455284,45.3760162601626 51.67682926829268,45.3760162601626 51.575203252032516,45.325203252032516 51.422764227642276,45.325203252032516 51.37195121951219,45.27439024390244 51.27032520325203,45.27439024390244 51.168699186991866,45.22357723577235 51.0670731707317,45.22357723577235 50.96544715447154,45.172764227642276 50.86382113821138,45.172764227642276 50.71138211382114,45.172764227642276 50.609756097560975,45.12195121951219 50.45731707317073,45.12195121951219 50.355691056910565,45.12195121951219 50.2540650406504,45.12195121951219 50.10162601626016,45.07113821138211 50,45.07113821138211 49.89837398373984,45.07113821138211 49.796747967479675,45.07113821138211 49.69512195121951,45.07113821138211 49.59349593495935,45.07113821138211 49.49186991869919,45.12195121951219 49.390243902439025,45.12195121951219 49.28861788617886,45.172764227642276 49.1869918699187,45.172764227642276 49.08536585365854,45.22357723577235 48.983739837398375,45.27439024390244 48.88211382113821,45.325203252032516 48.83130081300813,45.3760162601626 48.729674796747965,45.42682926829268 48.6280487804878,45.47764227642276 48.52642276422764,45.52845528455285 48.42479674796748,45.579268292682926 48.3739837398374,45.63008130081301 48.27235772357724,45.73170731707317 48.170731707317074,45.78252032520325 48.11991869918699,45.833333333333336 48.06910569105691,45.9349593495935 48.01829268292683,46.03658536585366 47.916666666666664,46.08739837398374 47.86585365853659,46.1890243902439 47.8150406504065,46.290650406504064 47.764227642276424,46.392276422764226 47.66260162601626,46.49390243902439 47.61178861788618,46.59552845528455 47.510162601626014,46.697154471544714 47.459349593495936,46.798780487804876 47.40853658536585,46.90040650406504" fill="none" stroke="black" stroke-width="0.6"></polyline><polyline points="47.40853658536585,46.90040650406504 47.30691056910569,46.951219512195124 47.25609756097561,47.052845528455286 47.20528455284553,47.15447154471545 47.15447154471545,47.20528455284553 47.103658536585364,47.30691056910569 47.052845528455286,47.40853658536585 47.0020325203252,47.510162601626014 46.951219512195124,47.61178861788618 46.90040650406504,47.71341463414634 46.84959349593496,47.8150406504065 46.798780487804876,47.916666666666664 46.7479674796748,48.01829268292683 46.7479674796748,48.11991869918699 46.697154471544714,48.22154471544715 46.697154471544714,48.323170731707314 46.646341463414636,48.42479674796748 46.646341463414636,48.52642276422764 46.646341463414636,48.67886178861789 46.59552845528455,48.83130081300813 46.59552845528455,49.03455284552845 46.59552845528455,49.23780487804878 46.54471544715447,49.4410569105691 46.54471544715447,49.64430894308943 46.49390243902439,49.796747967479675 46.49390243902439,49.949186991869915 46.49390243902439,50.10162601626016 46.44308943089431,50.2540650406504 46.44308943089431,50.40650406504065 46.44308943089431,50.50813008130081 46.392276422764226,50.66056910569105 46.392276422764226,50.762195121951216 46.392276422764226,50.86382113821138 46.392276422764226,51.016260162601625 46.392276422764226,51.11788617886179 46.392276422764226,51.21951219512195 46.44308943089431,51.32113821138211 46.49390243902439,51.422764227642276 46.49390243902439,51.575203252032516 46.54471544715447,51.67682926829268 46.59552845528455,51.829268292682926 46.646341463414636,51.981707317073166 46.697154471544714,52.083333333333336 46.7479674796748,52.235772357723576 46.84959349593496,52.33739837398374 46.90040650406504,52.4390243902439 46.951219512195124,52.489837398373986 47.0020325203252,52.59146341463415 47.103658536585364,52.69308943089431 47.15447154471545,52.79471544715447 47.20528455284553,52.896341463414636" fill="none" stroke="black" stroke-width="0.6"></polyline><polyline points="47.20528455284553,52.896341463414636 47.25609756097561,53.048780487804876 47.30691056910569,53.15040650406504 47.357723577235774,53.2520325203252 47.40853658536585,53.353658536585364 47.459349593495936,53.50609756097561 47.5609756097561,53.607723577235774 47.61178861788618,53.709349593495936 47.71341463414634,53.8109756097561 47.764227642276424,53.96341463414634 47.86585365853659,54.0650406504065 47.96747967479675,54.166666666666664 48.06910569105691,54.26829268292683 48.170731707317074,54.36991869918699 48.27235772357724,54.47154471544715 48.42479674796748,54.573170731707314 48.52642276422764,54.67479674796748 48.6280487804878,54.77642276422764 48.78048780487805,54.8780487804878 48.93292682926829,54.979674796747965 49.08536585365854,55.08130081300813 49.23780487804878,55.18292682926829 49.390243902439025,55.233739837398375 49.542682926829265,55.28455284552845 49.74593495934959,55.386178861788615 49.89837398373984,55.4369918699187 50.10162601626016,55.48780487804878 50.2540650406504,55.53861788617886 50.45731707317073,55.58943089430894 50.609756097560975,55.640243902439025 50.8130081300813,55.640243902439025 50.96544715447154,55.6910569105691 51.168699186991866,55.74186991869919 51.37195121951219,55.74186991869919 51.52439024390244,55.74186991869919 51.72764227642276,55.74186991869919 51.93089430894309,55.74186991869919 52.083333333333336,55.74186991869919 52.235772357723576,55.74186991869919 52.4390243902439,55.74186991869919 52.59146341463415,55.6910569105691 52.74390243902439,55.640243902439025 52.896341463414636,55.58943089430894 53.048780487804876,55.53861788617886 53.201219512195124,55.48780487804878 53.353658536585364,55.386178861788615 53.50609756097561,55.33536585365854 53.65853658536585,55.233739837398375 53.8109756097561,55.18292682926829 53.96341463414634,55.08130081300813 54.0650406504065,54.979674796747965" fill="none" stroke="black" stroke-width="0.6"></polyline><polyline points="54.0650406504065,54.979674796747965 54.21747967479675,54.92886178861789 54.31910569105691,54.827235772357724 54.47154471544715,54.72560975609756 54.6239837398374,54.6239837398374 54.72560975609756,54.52235772357724 54.827235772357724,54.420731707317074 54.979674796747965,54.26829268292683 55.13211382113821,54.166666666666664 55.233739837398375,54.014227642276424 55.33536585365854,53.91260162601626 55.48780487804878,53.8109756097561 55.58943089430894,53.65853658536585 55.6910569105691,53.55691056910569 55.792682926829265,53.40447154471545 55.89430894308943,53.2520325203252 55.99593495934959,53.09959349593496 56.09756097560975,52.947154471544714 56.199186991869915,52.74390243902439 56.30081300813008,52.59146341463415 56.40243902439024,52.4390243902439 56.453252032520325,52.28658536585366 56.5040650406504,52.13414634146341 56.55487804878049,51.981707317073166 56.605691056910565,51.77845528455284 56.65650406504065,51.575203252032516 56.70731707317073,51.37195121951219 56.80894308943089,51.168699186991866 56.859756097560975,50.96544715447154 56.859756097560975,50.8130081300813 56.91056910569105,50.609756097560975 56.96138211382114,50.45731707317073 56.96138211382114,50.30487804878049 57.012195121951216,50.10162601626016 57.012195121951216,49.949186991869915 57.0630081300813,49.74593495934959 57.0630081300813,49.59349593495935 57.0630081300813,49.390243902439025 57.11382113821138,49.23780487804878 57.11382113821138,49.08536585365854 57.11382113821138,48.93292682926829 57.11382113821138,48.78048780487805 57.11382113821138,48.6280487804878 57.11382113821138,48.47560975609756 57.11382113821138,48.323170731707314 57.0630081300813,48.170731707317074 57.0630081300813,48.01829268292683 57.012195121951216,47.86585365853659 57.012195121951216,47.66260162601626 57.012195121951216,47.510162601626014 56.96138211382114,47.357723577235774" fill="none" stroke="black" stroke-width="0.6"></polyline><polyline points="56.96138211382114,47.357723577235774 56.96138211382114,47.20528455284553 56.96138211382114,47.0020325203252 56.91056910569105,46.84959349593496 56.91056910569105,46.697154471544714 56.859756097560975,46.49390243902439 56.80894308943089,46.34146341463415 56.80894308943089,46.13821138211382 56.75813008130081,45.985772357723576 56.75813008130081,45.833333333333336 56.70731707317073,45.68089430894309 56.70731707317073,45.579268292682926 56.70731707317073,45.47764227642276 56.65650406504065,45.325203252032516 56.65650406504065,45.27439024390244 56.605691056910565,45.172764227642276 56.605691056910565,45.07113821138211 56.55487804878049,45.02032520325203 56.55487804878049,44.918699186991866 56.5040650406504,44.8170731707317 56.453252032520325,44.766260162601625 56.453252032520325,44.66463414634146 56.40243902439024,44.5630081300813 56.35162601626016,44.46138211382114 56.35162601626016,44.41056910569105 56.30081300813008,44.30894308943089 56.25,44.25813008130081 56.14837398373984,44.15650406504065 56.09756097560975,44.105691056910565 55.99593495934959,44.0040650406504 55.94512195121951,43.90243902439024 55.84349593495935,43.80081300813008 55.6910569105691,43.699186991869915 55.58943089430894,43.546747967479675 55.4369918699187,43.39430894308943 55.233739837398375,43.24186991869919 55.03048780487805,43.03861788617886 54.8780487804878,42.886178861788615 54.67479674796748,42.78455284552845 54.47154471544715,42.63211382113821 54.31910569105691,42.53048780487805 54.166666666666664,42.42886178861789 53.96341463414634,42.327235772357724 53.8109756097561,42.22560975609756 53.65853658536585,42.1239837398374 53.45528455284553,42.02235772357724 53.2520325203252,41.920731707317074 53.048780487804876,41.81910569105691 52.74390243902439,41.71747967479675 52.540650406504064,41.666666666666664 52.28658536585366,41.61585365853659" fill="none" stroke="black" stroke-width="0.6"></polyline><polyline points="52.28658536585366,41.61585365853659 52.03252032520325,41.5650406504065 51.829268292682926,41.514227642276424 51.67682926829268,41.514227642276424 51.47357723577235,41.46341463414634 51.27032520325203,41.46341463414634 51.0670731707317,41.41260162601626 50.86382113821138,41.41260162601626 50.66056910569105,41.36178861788618 50.40650406504065,41.36178861788618 50.15243902439024,41.36178861788618 49.89837398373984,41.3109756097561 49.69512195121951,41.3109756097561 49.4410569105691,41.3109756097561 49.23780487804878,41.3109756097561 48.983739837398375,41.3109756097561 48.78048780487805,41.3109756097561 48.577235772357724,41.36178861788618 48.42479674796748,41.36178861788618 48.170731707317074,41.41260162601626 48.01829268292683,41.46341463414634 47.8150406504065,41.514227642276424 47.5609756097561,41.61585365853659 47.357723577235774,41.666666666666664 47.103658536585364,41.76829268292683 46.84959349593496,41.86991869918699 46.59552845528455,41.920731707317074 46.392276422764226,42.02235772357724 46.1890243902439,42.1239837398374 46.03658536585366,42.22560975609756 45.833333333333336,42.327235772357724 45.68089430894309,42.42886178861789 45.47764227642276,42.53048780487805 45.27439024390244,42.733739837398375 45.02032520325203,42.886178861788615 44.766260162601625,43.08943089430894 44.46138211382114,43.34349593495935 44.15650406504065,43.59756097560975 43.90243902439024,43.85162601626016 43.64837398373984,44.105691056910565 43.34349593495935,44.41056910569105 43.140243902439025,44.66463414634146 42.886178861788615,44.918699186991866 42.68292682926829,45.22357723577235 42.42886178861789,45.47764227642276 42.22560975609756,45.78252032520325 42.02235772357724,46.08739837398374 41.81910569105691,46.392276422764226 41.61585365853659,46.7479674796748 41.46341463414634,47.103658536585364 41.3109756097561,47.40853658536585" fill="none" stroke="black" stroke-width="0.6"></polyline><polyline points="41.3109756097561,47.40853658536585 41.15853658536585,47.71341463414634 41.00609756097561,47.96747967479675 40.95528455284553,48.22154471544715 40.853658536585364,48.47560975609756 40.802845528455286,48.729674796747965 40.701219512195124,48.983739837398375 40.701219512195124,49.23780487804878 40.65040650406504,49.49186991869919 40.59959349593496,49.796747967479675 40.59959349593496,50.15243902439024 40.59959349593496,50.45731707317073 40.59959349593496,50.762195121951216 40.59959349593496,51.11788617886179 40.65040650406504,51.422764227642276 40.7520325203252,51.72764227642276 40.802845528455286,52.03252032520325 40.90447154471545,52.33739837398374 41.00609756097561,52.642276422764226 41.107723577235774,53.048780487804876 41.209349593495936,53.353658536585364 41.36178861788618,53.65853658536585 41.514227642276424,54.014227642276424 41.666666666666664,54.31910569105691 41.81910569105691,54.6239837398374 42.073170731707314,55.03048780487805 42.27642276422764,55.386178861788615 42.53048780487805,55.74186991869919 42.83536585365854,56.09756097560975 43.08943089430894,56.40243902439024 43.34349593495935,56.65650406504065 43.59756097560975,56.91056910569105 43.85162601626016,57.21544715447154 44.105691056910565,57.418699186991866 44.359756097560975,57.672764227642276 44.61382113821138,57.8760162601626 44.96951219512195,58.130081300813 45.325203252032516,58.38414634146341 45.63008130081301,58.63821138211382 45.985772357723576,58.892276422764226 46.34146341463415,59.09552845528455 46.697154471544714,59.34959349593496 47.052845528455286,59.552845528455286 47.40853658536585,59.75609756097561 47.71341463414634,59.90853658536585 48.01829268292683,60.010162601626014 48.323170731707314,60.16260162601626 48.6280487804878,60.264227642276424 48.983739837398375,60.36585365853659 49.28861788617886,60.416666666666664 49.59349593495935,60.51829268292683" fill="none" stroke="black" stroke-width="0.6"></polyline><polyline points="49.59349593495935,60.51829268292683 49.89837398373984,60.61991869918699 50.2540650406504,60.670731707317074 50.50813008130081,60.72154471544715 50.8130081300813,60.77235772357724 51.11788617886179,60.823170731707314 51.37195121951219,60.823170731707314 51.6260162601626,60.8739837398374 51.93089430894309,60.8739837398374 52.1849593495935,60.8739837398374 52.38821138211382,60.8739837398374 52.642276422764226,60.8739837398374 52.84552845528455,60.8739837398374 53.048780487804876,60.823170731707314 53.2520325203252,60.77235772357724 53.40447154471545,60.72154471544715 53.607723577235774,60.670731707317074 53.760162601626014,60.61991869918699 53.96341463414634,60.56910569105691 54.166666666666664,60.51829268292683 54.31910569105691,60.416666666666664 54.47154471544715,60.36585365853659 54.67479674796748,60.3150406504065 54.827235772357724,60.264227642276424 54.979674796747965,60.16260162601626 55.13211382113821,60.0609756097561 55.28455284552845,60.010162601626014 55.48780487804878,59.90853658536585 55.640243902439025,59.857723577235774 55.84349593495935,59.75609756097561 55.99593495934959,59.65447154471545 56.199186991869915,59.603658536585364 56.35162601626016,59.5020325203252 56.5040650406504,59.40040650406504 56.70731707317073,59.2479674796748 56.91056910569105,59.146341463414636 57.11382113821138,59.04471544715447 57.3170731707317,58.892276422764226 57.52032520325203,58.739837398373986 57.72357723577235,58.58739837398374 57.92682926829268,58.43495934959349 58.130081300813,58.33333333333333 58.28252032520325,58.18089430894309 58.485772357723576,58.02845528455284 58.6890243902439,57.92682926829268 58.84146341463415,57.77439024390244 59.04471544715447,57.57113821138211 59.197154471544714,57.36788617886179 59.34959349593496,57.16463414634146 59.5020325203252,56.96138211382114 59.65447154471545,56.75813008130081" fill="none" stroke="black" stroke-width="0.6"></polyline><polyline points="59.65447154471545,56.75813008130081 59.80691056910569,56.55487804878049 59.959349593495936,56.35162601626016 60.0609756097561,56.199186991869915 60.16260162601626,55.99593495934959 60.264227642276424,55.84349593495935 60.36585365853659,55.6910569105691 60.46747967479675,55.53861788617886 60.61991869918699,55.28455284552845 60.72154471544715,55.03048780487805 60.823170731707314,54.67479674796748 60.92479674796748,54.31910569105691 60.97560975609756,54.014227642276424 61.077235772357724,53.709349593495936 61.1280487804878,53.40447154471545 61.229674796747965,53.15040650406504 61.28048780487805,52.84552845528455 61.33130081300813,52.59146341463415 61.43292682926829,52.28658536585366 61.483739837398375,51.981707317073166 61.53455284552845,51.67682926829268 61.58536585365854,51.32113821138211 61.58536585365854,51.016260162601625 61.636178861788615,50.609756097560975 61.6869918699187,50.2540650406504 61.6869918699187,49.89837398373984 61.6869918699187,49.49186991869919 61.73780487804878,49.136178861788615 61.73780487804878,48.78048780487805 61.73780487804878,48.3739837398374 61.73780487804878,48.11991869918699 61.73780487804878,47.8150406504065 61.73780487804878,47.5609756097561 61.78861788617886,47.30691056910569 61.78861788617886,47.052845528455286 61.78861788617886,46.798780487804876 61.78861788617886,46.49390243902439 61.78861788617886,46.1890243902439 61.78861788617886,45.9349593495935 61.78861788617886,45.68089430894309 61.78861788617886,45.47764227642276 61.78861788617886,45.325203252032516 61.78861788617886,45.12195121951219 61.73780487804878,44.96951219512195 61.73780487804878,44.8170731707317 61.6869918699187,44.61382113821138 61.58536585365854,44.41056910569105 61.53455284552845,44.20731707317073 61.483739837398375,43.953252032520325 61.38211382113821,43.75 61.33130081300813,43.546747967479675" fill="none" stroke="black" stroke-width="0.6"></polyline><polyline points="61.33130081300813,43.546747967479675 61.229674796747965,43.34349593495935 61.1280487804878,43.08943089430894 61.02642276422764,42.9369918699187 60.92479674796748,42.733739837398375 60.823170731707314,42.53048780487805 60.72154471544715,42.327235772357724 60.56910569105691,42.1239837398374 60.46747967479675,41.86991869918699 60.3150406504065,41.61585365853659 60.21341463414634,41.36178861788618 60.0609756097561,41.107723577235774 59.959349593495936,40.90447154471545 59.80691056910569,40.7520325203252 59.70528455284553,40.59959349593496 59.552845528455286,40.396341463414636 59.40040650406504,40.24390243902439 59.2479674796748,39.989837398373986 59.09552845528455,39.78658536585366 58.94308943089431,39.53252032520325 58.739837398373986,39.27845528455285 58.58739837398374,39.07520325203252 58.38414634146341,38.87195121951219 58.231707317073166,38.668699186991866 58.02845528455284,38.46544715447154 57.825203252032516,38.262195121951216 57.57113821138211,38.05894308943089 57.3170731707317,37.855691056910565 57.0630081300813,37.65243902439024 56.75813008130081,37.5 56.5040650406504,37.296747967479675 56.199186991869915,37.14430894308943 55.84349593495935,36.99186991869919 55.53861788617886,36.83943089430894 55.18292682926829,36.6869918699187 54.827235772357724,36.483739837398375 54.47154471544715,36.38211382113821 54.11585365853659,36.229674796747965 53.760162601626014,36.1280487804878 53.45528455284553,36.02642276422764 53.09959349593496,35.92479674796748 52.74390243902439,35.823170731707314 52.38821138211382,35.72154471544715 52.03252032520325,35.670731707317074 51.6260162601626,35.61991869918699 51.27032520325203,35.56910569105691 50.91463414634146,35.51829268292683 50.50813008130081,35.46747967479675 50.15243902439024,35.46747967479675 49.796747967479675,35.46747967479675 49.4410569105691,35.46747967479675" fill="none" stroke="black" stroke-width="0.6"></polyline><polyline points="49.4410569105691,35.46747967479675 49.08536585365854,35.46747967479675 48.67886178861789,35.46747967479675 48.323170731707314,35.51829268292683 47.916666666666664,35.56910569105691 47.510162601626014,35.670731707317074 47.052845528455286,35.77235772357724 46.59552845528455,35.8739837398374 46.08739837398374,36.02642276422764 45.68089430894309,36.1280487804878 45.22357723577235,36.28048780487805 44.766260162601625,36.38211382113821 44.41056910569105,36.53455284552845 44.0040650406504,36.6869918699187 43.59756097560975,36.83943089430894 43.24186991869919,36.9410569105691 42.83536585365854,37.14430894308943 42.42886178861789,37.296747967479675 42.073170731707314,37.449186991869915 41.666666666666664,37.65243902439024 41.3109756097561,37.855691056910565 41.00609756097561,38.05894308943089 40.65040650406504,38.21138211382114 40.29471544715447,38.46544715447154 39.989837398373986,38.668699186991866 39.6849593495935,38.87195121951219 39.38008130081301,39.1260162601626 39.1260162601626,39.329268292682926 38.922764227642276,39.53252032520325 38.668699186991866,39.78658536585366 38.46544715447154,40.040650406504064 38.262195121951216,40.34552845528455 38.05894308943089,40.59959349593496 37.90650406504065,40.853658536585364 37.7540650406504,41.107723577235774 37.60162601626016,41.36178861788618 37.449186991869915,41.61585365853659 37.34756097560975,41.920731707317074 37.19512195121951,42.22560975609756 37.042682926829265,42.58130081300813 36.890243902439025,42.9369918699187 36.73780487804878,43.292682926829265 36.58536585365854,43.64837398373984 36.483739837398375,43.953252032520325 36.33130081300813,44.25813008130081 36.229674796747965,44.5630081300813 36.1280487804878,44.86788617886179 36.02642276422764,45.22357723577235 35.92479674796748,45.579268292682926 35.823170731707314,45.985772357723576 35.670731707317074,46.44308943089431" fill="none" stroke="black" stroke-width="0.6"></polyline><polyline points="35.670731707317074,46.44308943089431 35.61991869918699,46.84959349593496 35.51829268292683,47.20528455284553 35.46747967479675,47.61178861788618 35.416666666666664,47.916666666666664 35.416666666666664,48.27235772357724 35.416666666666664,48.729674796747965 35.416666666666664,49.1869918699187 35.416666666666664,49.59349593495935 35.416666666666664,50.10162601626016 35.46747967479675,50.609756097560975 35.51829268292683,51.11788617886179 35.61991869918699,51.6260162601626 35.72154471544715,52.083333333333336 35.823170731707314,52.59146341463415 36.02642276422764,53.09959349593496 36.17886178861789,53.65853658536585 36.38211382113821,54.166666666666664 36.58536585365854,54.72560975609756 36.78861788617886,55.233739837398375 37.042682926829265,55.74186991869919 37.296747967479675,56.199186991869915 37.55081300813008,56.65650406504065 37.90650406504065,57.11382113821138 38.16056910569105,57.46951219512195 38.46544715447154,57.77439024390244 38.82113821138211,58.18089430894309 39.1260162601626,58.536585365853654 39.43089430894309,58.892276422764226 39.78658536585366,59.2479674796748 40.09146341463415,59.552845528455286 40.396341463414636,59.857723577235774 40.7520325203252,60.16260162601626 41.107723577235774,60.416666666666664 41.46341463414634,60.72154471544715 41.81910569105691,60.97560975609756 42.17479674796748,61.229674796747965 42.58130081300813,61.483739837398375 42.98780487804878,61.73780487804878 43.34349593495935,61.99186991869919 43.75,62.19512195121951 44.105691056910565,62.449186991869915 44.46138211382114,62.65243902439024 44.86788617886179,62.90650406504065 45.27439024390244,63.16056910569105 45.68089430894309,63.36382113821138 46.03658536585366,63.61788617886179 46.44308943089431,63.82113821138211 46.798780487804876,63.97357723577235 47.15447154471545,64.1260162601626 47.5609756097561,64.32926829268293" fill="none" stroke="black" stroke-width="0.6"></polyline><polyline points="47.5609756097561,64.32926829268293 47.96747967479675,64.48170731707317 48.323170731707314,64.6849593495935 48.78048780487805,64.88821138211382 49.136178861788615,65.04065040650406 49.542682926829265,65.1930894308943 49.949186991869915,65.29471544715447 50.355691056910565,65.44715447154472 50.762195121951216,65.54878048780488 51.21951219512195,65.65040650406505 51.6260162601626,65.70121951219512 52.03252032520325,65.7520325203252 52.489837398373986,65.85365853658537 52.896341463414636,65.90447154471545 53.302845528455286,65.95528455284553 53.760162601626014,66.0060975609756 54.11585365853659,66.0060975609756 54.52235772357724,66.0060975609756 54.8780487804878,65.95528455284553 55.233739837398375,65.90447154471545 55.58943089430894,65.85365853658537 55.94512195121951,65.80284552845528 56.30081300813008,65.70121951219512 56.605691056910565,65.59959349593495 56.96138211382114,65.44715447154472 57.3170731707317,65.34552845528455 57.62195121951219,65.1930894308943 57.97764227642276,64.98983739837398 58.28252032520325,64.83739837398373 58.58739837398374,64.6849593495935 58.94308943089431,64.48170731707317 59.197154471544714,64.27845528455285 59.5020325203252,64.1260162601626 59.857723577235774,63.922764227642276 60.16260162601626,63.71951219512195 60.46747967479675,63.46544715447154 60.823170731707314,63.21138211382114 61.1280487804878,62.95731707317073 61.43292682926829,62.703252032520325 61.73780487804878,62.449186991869915 62.09349593495935,62.19512195121951 62.39837398373984,61.890243902439025 62.703252032520325,61.636178861788615 63.05894308943089,61.33130081300813 63.41463414634146,61.02642276422764 63.71951219512195,60.72154471544715 64.02439024390243,60.416666666666664 64.32926829268293,60.0609756097561 64.6341463414634,59.75609756097561 64.9390243902439,59.40040650406504 65.2439024390244,59.04471544715447" fill="none" stroke="black" stroke-width="0.6"></polyline><polyline points="65.2439024390244,59.04471544715447 65.54878048780488,58.6890243902439 65.80284552845528,58.38414634146341 66.10772357723577,58.02845528455284 66.36178861788618,57.72357723577235 66.61585365853658,57.36788617886179 66.869918699187,56.96138211382114 67.1239837398374,56.55487804878049 67.32723577235772,56.09756097560975 67.53048780487805,55.640243902439025 67.73373983739837,55.233739837398375 67.88617886178862,54.77642276422764 68.08943089430895,54.31910569105691 68.1910569105691,53.91260162601626 68.34349593495935,53.45528455284553 68.4451219512195,52.947154471544714 68.54674796747967,52.540650406504064 68.64837398373983,52.03252032520325 68.69918699186992,51.47357723577235 68.80081300813008,51.016260162601625 68.85162601626016,50.50813008130081 68.90243902439025,49.949186991869915 68.90243902439025,49.49186991869919 68.90243902439025,49.03455284552845 68.95325203252033,48.52642276422764 68.95325203252033,48.01829268292683 68.90243902439025,47.510162601626014 68.85162601626016,47.0020325203252 68.80081300813008,46.49390243902439 68.75,46.03658536585366 68.64837398373983,45.52845528455285 68.54674796747967,45.12195121951219 68.4451219512195,44.71544715447154 68.29268292682927,44.30894308943089 68.1910569105691,43.90243902439024 68.03861788617886,43.49593495934959 67.88617886178862,43.08943089430894 67.73373983739837,42.78455284552845 67.58130081300813,42.42886178861789 67.42886178861788,42.073170731707314 67.27642276422765,41.76829268292683 67.07317073170732,41.46341463414634 66.92073170731707,41.15853658536585 66.71747967479675,40.853658536585364 66.51422764227642,40.548780487804876 66.26016260162602,40.24390243902439 66.0060975609756,39.9390243902439 65.7520325203252,39.63414634146341 65.4979674796748,39.27845528455285 65.2439024390244,39.02439024390244 64.98983739837398,38.71951219512195" fill="none" stroke="black" stroke-width="0.6"></polyline><polyline points="64.98983739837398,38.71951219512195 64.6849593495935,38.41463414634146 64.380081300813,38.16056910569105 64.07520325203252,37.855691056910565 63.71951219512195,37.55081300813008 63.41463414634146,37.296747967479675 63.109756097560975,37.042682926829265 62.80487804878049,36.78861788617886 62.5,36.53455284552845 62.19512195121951,36.33130081300813 61.890243902439025,36.077235772357724 61.58536585365854,35.823170731707314 61.229674796747965,35.51829268292683 60.8739837398374,35.264227642276424 60.51829268292683,35.010162601626014 60.16260162601626,34.70528455284553 59.80691056910569,34.451219512195124 59.40040650406504,34.197154471544714 58.99390243902439,33.94308943089431 58.63821138211382,33.6890243902439 58.231707317073166,33.485772357723576 57.825203252032516,33.28252032520325 57.418699186991866,33.13008130081301 56.96138211382114,33.02845528455285 56.5040650406504,32.8760162601626 56.09756097560975,32.72357723577236 55.6910569105691,32.6219512195122 55.233739837398375,32.46951219512195 54.827235772357724,32.36788617886179 54.47154471544715,32.266260162601625 54.014227642276424,32.16463414634146 53.607723577235774,32.0630081300813 53.15040650406504,32.012195121951216 52.74390243902439,31.910569105691057 52.33739837398374,31.859756097560975 51.880081300813,31.808943089430894 51.422764227642276,31.70731707317073 51.016260162601625,31.65650406504065 50.55894308943089,31.60569105691057 50.10162601626016,31.504065040650406 49.69512195121951,31.453252032520325 49.23780487804878,31.402439024390244 48.78048780487805,31.351626016260163 48.3739837398374,31.30081300813008 47.916666666666664,31.30081300813008 47.459349593495936,31.25 47.0020325203252,31.25 46.59552845528455,31.25 46.08739837398374,31.25 45.68089430894309,31.25 45.22357723577235,31.25" fill="none" stroke="black" stroke-width="0.6"></polyline><polyline points="45.22357723577235,31.25 44.766260162601625,31.25 44.359756097560975,31.30081300813008 43.90243902439024,31.351626016260163 43.49593495934959,31.402439024390244 43.08943089430894,31.504065040650406 42.63211382113821,31.60569105691057 42.17479674796748,31.70731707317073 41.76829268292683,31.808943089430894 41.36178861788618,31.910569105691057 40.90447154471545,32.0630081300813 40.4979674796748,32.16463414634146 40.09146341463415,32.3170731707317 39.63414634146341,32.52032520325203 39.27845528455285,32.72357723577236 38.87195121951219,32.926829268292686 38.41463414634146,33.18089430894309 38.00813008130081,33.4349593495935 37.55081300813008,33.739837398373986 37.042682926829265,34.04471544715447 36.636178861788615,34.40040650406504 36.17886178861789,34.80691056910569 35.72154471544715,35.16260162601626 35.264227642276424,35.51829268292683 34.90853658536585,35.823170731707314 34.5020325203252,36.17886178861789 34.09552845528455,36.53455284552845 33.6890243902439,36.890243902439025 33.333333333333336,37.24593495934959 33.02845528455285,37.60162601626016 32.672764227642276,38.00813008130081 32.36788617886179,38.36382113821138 32.0630081300813,38.77032520325203 31.758130081300813,39.176829268292686 31.504065040650406,39.53252032520325 31.25,39.88821138211382 31.046747967479675,40.29471544715447 30.84349593495935,40.65040650406504 30.640243902439025,41.107723577235774 30.4369918699187,41.61585365853659 30.284552845528456,42.073170731707314 30.132113821138212,42.53048780487805 29.979674796747968,43.03861788617886 29.827235772357724,43.546747967479675 29.67479674796748,44.15650406504065 29.573170731707318,44.71544715447154 29.471544715447155,45.22357723577235 29.369918699186993,45.73170731707317 29.268292682926827,46.34146341463415 29.217479674796746,46.84959349593496 29.115853658536583,47.40853658536585" fill="none" stroke="black" stroke-width="0.6"></polyline><polyline points="29.115853658536583,47.40853658536585 29.115853658536583,48.01829268292683 29.0650406504065,48.52642276422764 29.0650406504065,49.08536585365854 29.0650406504065,49.64430894308943 29.0650406504065,50.203252032520325 29.0650406504065,50.762195121951216 29.0650406504065,51.37195121951219 29.115853658536583,51.829268292682926 29.115853658536583,52.33739837398374 29.166666666666664,52.896341463414636 29.166666666666664,53.353658536585364 29.268292682926827,53.86178861788618 29.31910569105691,54.47154471544715 29.420731707317074,54.979674796747965 29.522357723577237,55.48780487804878 29.67479674796748,56.046747967479675 29.776422764227643,56.55487804878049 29.979674796747968,57.0630081300813 30.132113821138212,57.52032520325203 30.335365853658537,57.97764227642276 30.589430894308943,58.43495934959349 30.84349593495935,58.892276422764226 31.097560975609756,59.298780487804876 31.402439024390244,59.70528455284553 31.70731707317073,60.16260162601626 32.0630081300813,60.56910569105691 32.36788617886179,60.97560975609756 32.72357723577236,61.33130081300813 33.079268292682926,61.6869918699187 33.38414634146341,62.042682926829265 33.790650406504064,62.39837398373984 34.146341463414636,62.80487804878049 34.603658536585364,63.21138211382114 35.11178861788618,63.61788617886179 35.51829268292683,63.97357723577235 35.97560975609756,64.32926829268293 36.43292682926829,64.6849593495935 36.890243902439025,64.98983739837398 37.39837398373984,65.34552845528455 37.855691056910565,65.65040650406505 38.36382113821138,66.0060975609756 38.87195121951219,66.3109756097561 39.38008130081301,66.66666666666667 39.88821138211382,66.97154471544715 40.447154471544714,67.27642276422765 40.95528455284553,67.53048780487805 41.46341463414634,67.78455284552845 42.02235772357724,68.03861788617886 42.53048780487805,68.29268292682927 43.08943089430894,68.54674796747967" fill="none" stroke="black" stroke-width="0.6"></polyline><polyline points="43.08943089430894,68.54674796747967 43.699186991869915,68.80081300813008 44.20731707317073,69.0040650406504 44.766260162601625,69.20731707317073 45.3760162601626,69.35975609756098 45.9349593495935,69.51219512195122 46.49390243902439,69.61382113821138 47.103658536585364,69.71544715447155 47.66260162601626,69.8170731707317 48.22154471544715,69.86788617886178 48.83130081300813,69.96951219512195 49.390243902439025,70.02032520325203 50,70.0711382113821 50.609756097560975,70.0711382113821 51.11788617886179,70.0711382113821 51.67682926829268,70.0711382113821 52.28658536585366,70.0711382113821 52.84552845528455,70.0711382113821 53.353658536585364,70.0711382113821 53.96341463414634,70.0711382113821 54.47154471544715,70.0711382113821 55.03048780487805,70.0711382113821 55.58943089430894,70.02032520325203 56.09756097560975,70.02032520325203 56.605691056910565,69.96951219512195 57.11382113821138,69.96951219512195 57.57113821138211,69.91869918699187 58.02845528455284,69.86788617886178 58.536585365853654,69.8170731707317 58.99390243902439,69.76626016260163 59.451219512195124,69.66463414634146 59.90853658536585,69.5630081300813 60.36585365853659,69.46138211382113 60.823170731707314,69.35975609756098 61.28048780487805,69.2581300813008 61.6869918699187,69.15650406504065 62.14430894308943,69.05487804878048 62.60162601626016,68.95325203252033 63.05894308943089,68.80081300813008 63.46544715447154,68.59756097560975 63.87195121951219,68.39430894308943 64.27845528455285,68.1910569105691 64.6849593495935,67.98780487804878 65.09146341463415,67.78455284552845 65.44715447154472,67.58130081300813 65.80284552845528,67.3780487804878 66.20934959349593,67.22560975609755 66.5650406504065,67.02235772357723 66.92073170731707,66.8191056910569 67.27642276422765,66.61585365853658 67.6321138211382,66.41260162601625" fill="none" stroke="black" stroke-width="0.6"></polyline><polyline points="67.6321138211382,66.41260162601625 67.9369918699187,66.20934959349593 68.29268292682927,65.95528455284553 68.59756097560975,65.7520325203252 68.90243902439025,65.54878048780488 69.2581300813008,65.29471544715447 69.51219512195122,65.09146341463415 69.8170731707317,64.83739837398373 70.0711382113821,64.58333333333333 70.32520325203252,64.380081300813 70.57926829268293,64.07520325203252 70.83333333333333,63.82113821138211 71.03658536585365,63.5670731707317 71.23983739837398,63.36382113821138 71.4430894308943,63.16056910569105 71.64634146341463,62.95731707317073 71.84959349593495,62.703252032520325 72.0020325203252,62.5 72.20528455284553,62.296747967479675 72.35772357723577,62.042682926829265 72.51016260162602,61.83943089430894 72.66260162601625,61.58536585365854 72.8150406504065,61.33130081300813 72.96747967479675,61.1280487804878 73.119918699187,60.92479674796748 73.27235772357723,60.72154471544715 73.42479674796748,60.56910569105691 73.57723577235772,60.36585365853659 73.72967479674797,60.16260162601626 73.8821138211382,59.959349593495936 73.98373983739837,59.70528455284553 74.13617886178862,59.451219512195124 74.23780487804878,59.146341463414636 74.33943089430895,58.84146341463415 74.4410569105691,58.536585365853654 74.54268292682927,58.231707317073166 74.64430894308943,57.97764227642276 74.79674796747967,57.672764227642276 74.89837398373983,57.36788617886179 75,57.0630081300813 75.15243902439025,56.70731707317073 75.2540650406504,56.35162601626016 75.40650406504065,55.99593495934959 75.5081300813008,55.640243902439025 75.60975609756098,55.28455284552845 75.76219512195122,54.979674796747965 75.91463414634146,54.6239837398374 76.01626016260163,54.36991869918699 76.11788617886178,54.0650406504065 76.27032520325203,53.760162601626014 76.3719512195122,53.45528455284553" fill="none" stroke="black" stroke-width="0.6"></polyline><polyline points="76.3719512195122,53.45528455284553 76.47357723577235,53.15040650406504 76.52439024390243,52.84552845528455 76.6260162601626,52.489837398373986 76.67682926829268,52.13414634146341 76.72764227642276,51.77845528455284 76.77845528455285,51.47357723577235 76.77845528455285,51.168699186991866 76.82926829268293,50.91463414634146 76.82926829268293,50.762195121951216 76.82926829268293,50.66056910569105 76.82926829268293,50.50813008130081 76.82926829268293,50.40650406504065 76.82926829268293,50.30487804878049 76.880081300813,50.15243902439024 76.880081300813,50.05081300813008 76.880081300813,49.949186991869915 76.93089430894308,49.84756097560975 76.93089430894308,49.84756097560975 76.93089430894308,49.84756097560975 76.93089430894308,49.84756097560975 76.93089430894308,49.84756097560975 76.93089430894308,49.84756097560975 76.93089430894308,49.84756097560975 76.93089430894308,49.84756097560975 76.93089430894308,49.84756097560975 76.93089430894308,49.84756097560975 76.93089430894308,49.84756097560975 76.93089430894308,49.89837398373984 76.93089430894308,49.89837398373984 77.03252032520325,49.89837398373984 77.08333333333333,49.84756097560975" fill="none" stroke="black" stroke-width="0.6"></polyline></svg>