<svg height="100" width="100" preserveAspectRatio="xMidYMid meet"><polyline points="18.140243902439025,29.573170731707318 18.140243902439025,29.573170731707318 18.089430894308943,29.573170731707318 18.089430894308943,29.573170731707318 18.038617886178862,29.573170731707318 18.038617886178862,29.573170731707318 18.038617886178862,29.573170731707318 18.038617886178862,29.573170731707318 18.038617886178862,29.573170731707318 18.038617886178862,29.573170731707318 18.038617886178862,29.573170731707318 18.089430894308943,29.67479674796748 18.089430894308943,29.725609756097562 18.140243902439025,29.776422764227643 18.140243902439025,29.878048780487806 18.191056910569106,29.979674796747968 18.191056910569106,30.08130081300813 18.191056910569106,30.233739837398375 18.241869918699187,30.48780487804878 18.241869918699187,30.741869918699187 18.29268292682927,31.046747967479675 18.29268292682927,31.402439024390244 18.29268292682927,31.808943089430894 18.34349593495935,32.16463414634146 18.34349593495935,32.57113821138211 18.39430894308943,32.97764227642276 18.39430894308943,33.28252032520325 18.445121951219512,33.58739837398374 18.495934959349594,33.99390243902439 18.495934959349594,34.40040650406504 18.546747967479675,34.80691056910569 18.597560975609756,35.264227642276424 18.648373983739837,35.670731707317074 18.69918699186992,36.1280487804878 18.75,36.6869918699187 18.75,37.24593495934959 18.75,37.855691056910565 18.80081300813008,38.41463414634146 18.80081300813008,38.922764227642276 18.80081300813008,39.38008130081301 18.80081300813008,39.735772357723576 18.80081300813008,40.142276422764226 18.80081300813008,40.548780487804876 18.80081300813008,40.90447154471545 18.80081300813008,41.36178861788618 18.902439024390244,41.86991869918699 18.953252032520325,42.479674796747965 19.054878048780488,43.08943089430894 19.20731707317073,43.80081300813008 19.308943089430894,44.359756097560975 19.359756097560975,44.918699186991866" fill="none" stroke="black" stroke-width="0.6"></polyline><polyline points="19.359756097560975,44.918699186991866 19.461382113821138,45.3760162601626 19.51219512195122,45.833333333333336 19.5630081300813,46.290650406504064 19.61382113821138,46.84959349593496 19.61382113821138,47.30691056910569 19.664634146341463,47.764227642276424 19.715447154471544,48.170731707317074 19.817073170731707,48.52642276422764 19.867886178861788,48.93292682926829 19.96951219512195,49.390243902439025 20.020325203252032,49.84756097560975 20.121951219512194,50.355691056910565 20.172764227642276,50.86382113821138 20.172764227642276,51.21951219512195 20.223577235772357,51.575203252032516 20.223577235772357,51.981707317073166 20.223577235772357,52.33739837398374 20.223577235772357,52.642276422764226 20.223577235772357,52.9979674796748 20.223577235772357,53.2520325203252 20.223577235772357,53.55691056910569 20.223577235772357,53.760162601626014 20.223577235772357,53.96341463414634 20.223577235772357,54.11585365853659 20.223577235772357,54.166666666666664 20.172764227642276,54.26829268292683 20.172764227642276,54.26829268292683 20.172764227642276,54.31910569105691 20.172764227642276,54.36991869918699 20.172764227642276,54.36991869918699 20.172764227642276,54.36991869918699 20.172764227642276,54.420731707317074 20.172764227642276,54.420731707317074 20.172764227642276,54.420731707317074 20.172764227642276,54.420731707317074 20.172764227642276,54.420731707317074 20.172764227642276,54.420731707317074 20.172764227642276,54.420731707317074 20.172764227642276,54.420731707317074 20.172764227642276,54.420731707317074 20.172764227642276,54.420731707317074 20.172764227642276,54.420731707317074 20.172764227642276,54.420731707317074 20.172764227642276,54.420731707317074 20.172764227642276,54.420731707317074 20.172764227642276,54.420731707317074 20.172764227642276,54.420731707317074 20.172764227642276,54.420731707317074 20.172764227642276,54.420731707317074 20.172764227642276,54.420731707317074" fill="none" stroke="black" stroke-width="0.6"></polyline><polyline points="20.172764227642276,54.420731707317074 20.172764227642276,54.420731707317074 20.223577235772357,54.420731707317074 20.223577235772357,54.420731707317074 20.223577235772357,54.420731707317074 20.223577235772357,54.47154471544715 20.274390243902438,54.47154471544715 20.32520325203252,54.47154471544715 20.3760162601626,54.47154471544715 20.477642276422763,54.47154471544715 20.579268292682926,54.52235772357724 20.73170731707317,54.573170731707314 20.934959349593495,54.573170731707314 21.13821138211382,54.6239837398374 21.392276422764226,54.67479674796748 21.646341463414632,54.67479674796748 21.95121951219512,54.67479674796748 22.205284552845526,54.72560975609756 22.459349593495933,54.72560975609756 22.71341463414634,54.72560975609756 22.96747967479675,54.72560975609756 23.221544715447155,54.72560975609756 23.475609756097562,54.72560975609756 23.729674796747968,54.77642276422764 23.983739837398375,54.827235772357724 24.288617886178862,54.8780487804878 24.59349593495935,54.92886178861789 24.847560975609756,55.03048780487805 25.203252032520325,55.08130081300813 25.508130081300813,55.13211382113821 25.8130081300813,55.18292682926829 26.16869918699187,55.233739837398375 26.473577235772357,55.28455284552845 26.778455284552845,55.33536585365854 27.134146341463413,55.386178861788615 27.489837398373982,55.48780487804878 27.896341463414632,55.58943089430894 28.353658536585364,55.640243902439025 28.709349593495933,55.74186991869919 29.115853658536583,55.792682926829265 29.573170731707318,55.792682926829265 29.979674796747968,55.84349593495935 30.4369918699187,55.84349593495935 30.89430894308943,55.84349593495935 31.351626016260163,55.84349593495935 31.808943089430894,55.84349593495935 32.3170731707317,55.792682926829265 32.77439024390244,55.792682926829265 33.28252032520325,55.792682926829265 33.790650406504064,55.74186991869919 34.34959349593496,55.74186991869919" fill="none" stroke="black" stroke-width="0.6"></polyline><polyline points="34.34959349593496,55.74186991869919 34.90853658536585,55.74186991869919 35.46747967479675,55.74186991869919 36.077235772357724,55.74186991869919 36.6869918699187,55.74186991869919 37.296747967479675,55.74186991869919 37.90650406504065,55.6910569105691 38.516260162601625,55.640243902439025 39.176829268292686,55.58943089430894 39.78658536585366,55.53861788617886 40.396341463414636,55.48780487804878 41.107723577235774,55.4369918699187 41.71747967479675,55.386178861788615 42.327235772357724,55.33536585365854 43.03861788617886,55.233739837398375 43.64837398373984,55.13211382113821 44.30894308943089,55.03048780487805 44.96951219512195,54.8780487804878 45.63008130081301,54.77642276422764 46.239837398373986,54.67479674796748 46.90040650406504,54.573170731707314 47.510162601626014,54.52235772357724 48.11991869918699,54.52235772357724 48.78048780487805,54.47154471544715 49.390243902439025,54.420731707317074 50.05081300813008,54.36991869918699 50.609756097560975,54.31910569105691 51.21951219512195,54.31910569105691 51.880081300813,54.26829268292683 52.4390243902439,54.26829268292683 52.9979674796748,54.26829268292683 53.607723577235774,54.26829268292683 54.11585365853659,54.26829268292683 54.67479674796748,54.26829268292683 55.233739837398375,54.26829268292683 55.792682926829265,54.21747967479675 56.30081300813008,54.166666666666664 56.859756097560975,54.11585365853659 57.3170731707317,54.11585365853659 57.77439024390244,54.11585365853659 58.231707317073166,54.11585365853659 58.63821138211382,54.11585365853659 58.99390243902439,54.11585365853659 59.40040650406504,54.11585365853659 59.70528455284553,54.11585365853659 60.010162601626014,54.11585365853659 60.264227642276424,54.11585365853659 60.51829268292683,54.11585365853659 60.77235772357724,54.11585365853659 61.02642276422764,54.11585365853659 61.229674796747965,54.11585365853659" fill="none" stroke="black" stroke-width="0.6"></polyline><polyline points="61.229674796747965,54.11585365853659 61.38211382113821,54.11585365853659 61.636178861788615,54.11585365853659 61.78861788617886,54.11585365853659 61.99186991869919,54.11585365853659 62.14430894308943,54.0650406504065 62.24593495934959,54.0650406504065 62.39837398373984,54.014227642276424 62.5,53.96341463414634 62.55081300813008,53.96341463414634 62.60162601626016,53.91260162601626 62.60162601626016,53.86178861788618 62.65243902439024,53.86178861788618 62.65243902439024,53.8109756097561 62.65243902439024,53.8109756097561 62.65243902439024,53.8109756097561 62.65243902439024,53.760162601626014 62.65243902439024,53.709349593495936 62.60162601626016,53.65853658536585 62.60162601626016,53.50609756097561 62.55081300813008,53.201219512195124 62.5,52.84552845528455 62.449186991869915,52.4390243902439 62.39837398373984,51.77845528455284 62.296747967479675,51.0670731707317 62.19512195121951,50.203252032520325 62.14430894308943,49.33943089430894 62.09349593495935,48.52642276422764 61.99186991869919,47.764227642276424 61.9410569105691,46.951219512195124 61.9410569105691,46.290650406504064 61.890243902439025,45.63008130081301 61.890243902439025,44.918699186991866 61.890243902439025,44.25813008130081 61.890243902439025,43.546747967479675 61.890243902439025,42.68292682926829 61.890243902439025,41.81910569105691 61.9410569105691,40.90447154471545 61.99186991869919,40.09146341463415 62.042682926829265,39.38008130081301 62.09349593495935,38.668699186991866 62.09349593495935,37.80487804878049 62.14430894308943,36.83943089430894 62.14430894308943,35.72154471544715 62.14430894308943,34.80691056910569 62.042682926829265,33.892276422764226 61.99186991869919,32.97764227642276 61.99186991869919,32.21544715447154 61.9410569105691,31.402439024390244 61.9410569105691,30.640243902439025 61.9410569105691,30.03048780487805" fill="none" stroke="black" stroke-width="0.6"></polyline><polyline points="61.9410569105691,30.03048780487805 61.890243902439025,29.420731707317074 61.78861788617886,28.810975609756095 61.73780487804878,28.302845528455283 61.636178861788615,27.74390243902439 61.53455284552845,27.134146341463413 61.43292682926829,26.57520325203252 61.33130081300813,25.965447154471544 61.229674796747965,25.35569105691057 61.077235772357724,24.94918699186992 60.97560975609756,24.64430894308943 60.823170731707314,24.390243902439025 60.72154471544715,24.288617886178862 60.61991869918699,24.1869918699187 60.46747967479675,24.085365853658537 60.416666666666664,24.034552845528456 60.3150406504065,23.983739837398375 60.3150406504065,23.932926829268293 60.3150406504065,23.932926829268293 60.3150406504065,23.932926829268293 60.3150406504065,23.932926829268293 60.3150406504065,23.932926829268293 60.3150406504065,23.932926829268293 60.3150406504065,23.932926829268293 60.3150406504065,23.932926829268293 60.3150406504065,23.932926829268293 60.3150406504065,23.932926829268293 60.3150406504065,23.932926829268293 60.264227642276424,23.932926829268293 60.264227642276424,23.932926829268293 60.21341463414634,23.932926829268293 60.11178861788618,23.882113821138212 60.010162601626014,23.882113821138212 59.857723577235774,23.83130081300813 59.70528455284553,23.78048780487805 59.451219512195124,23.78048780487805 59.197154471544714,23.729674796747968 58.892276422764226,23.729674796747968 58.536585365853654,23.678861788617887 58.130081300813,23.678861788617887 57.72357723577235,23.678861788617887 57.266260162601625,23.729674796747968 56.80894308943089,23.729674796747968 56.35162601626016,23.78048780487805 55.84349593495935,23.78048780487805 55.33536585365854,23.83130081300813 54.77642276422764,23.882113821138212 54.166666666666664,23.932926829268293 53.55691056910569,24.034552845528456 52.896341463414636,24.13617886178862 52.1849593495935,24.23780487804878" fill="none" stroke="black" stroke-width="0.6"></polyline><polyline points="52.1849593495935,24.23780487804878 51.47357723577235,24.339430894308943 50.8130081300813,24.390243902439025 50.10162601626016,24.491869918699187 49.4410569105691,24.491869918699187 48.729674796747965,24.491869918699187 47.96747967479675,24.491869918699187 47.25609756097561,24.491869918699187 46.49390243902439,24.491869918699187 45.68089430894309,24.54268292682927 44.918699186991866,24.54268292682927 44.105691056910565,24.59349593495935 43.292682926829265,24.59349593495935 42.53048780487805,24.64430894308943 41.61585365853659,24.695121951219512 40.853658536585364,24.695121951219512 39.989837398373986,24.745934959349594 39.1260162601626,24.745934959349594 38.3130081300813,24.745934959349594 37.5,24.695121951219512 36.636178861788615,24.695121951219512 35.823170731707314,24.695121951219512 35.010162601626014,24.695121951219512 34.146341463414636,24.695121951219512 33.38414634146341,24.745934959349594 32.57113821138211,24.796747967479675 31.70731707317073,24.796747967479675 30.995934959349594,24.796747967479675 30.284552845528456,24.796747967479675 29.573170731707318,24.796747967479675 28.912601626016258,24.796747967479675 28.302845528455283,24.796747967479675 27.642276422764226,24.796747967479675 27.03252032520325,24.796747967479675 26.473577235772357,24.796747967479675 25.86382113821138,24.796747967479675 25.35569105691057,24.796747967479675 24.847560975609756,24.796747967479675 24.339430894308943,24.796747967479675 23.882113821138212,24.796747967479675 23.475609756097562,24.796747967479675 23.119918699186993,24.796747967479675 22.764227642276424,24.796747967479675 22.459349593495933,24.796747967479675 22.103658536585364,24.796747967479675 21.798780487804876,24.796747967479675 21.54471544715447,24.796747967479675 21.239837398373982,24.796747967479675 20.985772357723576,24.796747967479675 20.73170731707317,24.796747967479675 20.477642276422763,24.796747967479675" fill="none" stroke="black" stroke-width="0.6"></polyline><polyline points="20.477642276422763,24.796747967479675 20.274390243902438,24.847560975609756 20.071138211382113,24.898373983739837 19.817073170731707,24.898373983739837 19.664634146341463,24.94918699186992 19.461382113821138,25 19.308943089430894,25.05081300813008 19.15650406504065,25.101626016260163 19.054878048780488,25.152439024390244 18.953252032520325,25.203252032520325 18.851626016260163,25.203252032520325 18.80081300813008,25.203252032520325 18.69918699186992,25.254065040650406 18.648373983739837,25.254065040650406 18.597560975609756,25.254065040650406 18.495934959349594,25.304878048780488 18.445121951219512,25.304878048780488 18.39430894308943,25.304878048780488 18.39430894308943,25.35569105691057 18.34349593495935,25.35569105691057 18.34349593495935,25.35569105691057 18.29268292682927,25.35569105691057 18.29268292682927,25.40650406504065 18.241869918699187,25.40650406504065 18.191056910569106,25.40650406504065 18.191056910569106,25.45731707317073 18.140243902439025,25.45731707317073 18.089430894308943,25.45731707317073 18.089430894308943,25.45731707317073 18.038617886178862,25.508130081300813 17.98780487804878,25.508130081300813 17.9369918699187,25.508130081300813 17.88617886178862,25.558943089430894 17.835365853658537,25.558943089430894 17.835365853658537,25.609756097560975 17.733739837398375,25.609756097560975 17.682926829268293,25.660569105691057 17.632113821138212,25.711382113821138 17.58130081300813,25.76219512195122 17.479674796747968,25.76219512195122 17.428861788617887,25.8130081300813 17.378048780487806,25.86382113821138 17.327235772357724,25.86382113821138 17.276422764227643,25.914634146341463 17.225609756097562,25.965447154471544 17.225609756097562,25.965447154471544 17.17479674796748,25.965447154471544 17.17479674796748,26.016260162601625 17.17479674796748,26.016260162601625 17.17479674796748,26.067073170731707 17.17479674796748,26.067073170731707" fill="none" stroke="black" stroke-width="0.6"></polyline><polyline points="17.17479674796748,26.067073170731707 17.17479674796748,26.117886178861788 17.17479674796748,26.16869918699187 17.17479674796748,26.270325203252032 17.17479674796748,26.422764227642276 17.225609756097562,26.6260162601626 17.225609756097562,26.93089430894309 17.276422764227643,27.33739837398374 17.327235772357724,27.896341463414632 17.378048780487806,28.55691056910569 17.378048780487806,29.217479674796746 17.428861788617887,29.878048780487806 17.479674796747968,30.48780487804878 17.53048780487805,30.995934959349594 17.58130081300813,31.554878048780488 17.682926829268293,32.16463414634146 17.835365853658537,32.77439024390244 17.9369918699187,33.333333333333336 18.089430894308943,33.84146341463415 18.241869918699187,34.197154471544714 18.445121951219512,34.451219512195124 18.597560975609756,34.65447154471545 18.851626016260163,34.80691056910569 19.15650406504065,34.90853658536585" fill="none" stroke="black" stroke-width="0.6"></polyline><polyline points="37.296747967479675,25.304878048780488 37.296747967479675,25.254065040650406 37.34756097560975,25.203252032520325 37.34756097560975,25.152439024390244 37.34756097560975,25.101626016260163 37.39837398373984,25.101626016260163 37.39837398373984,25.05081300813008 37.39837398373984,25.05081300813008 37.39837398373984,25.05081300813008 37.39837398373984,25.05081300813008 37.39837398373984,25 37.39837398373984,25 37.449186991869915,24.94918699186992 37.5,24.898373983739837 37.55081300813008,24.898373983739837 37.55081300813008,24.847560975609756 37.60162601626016,24.847560975609756 37.60162601626016,24.796747967479675 37.60162601626016,24.796747967479675 37.65243902439024,24.796747967479675 37.65243902439024,24.796747967479675 37.65243902439024,24.796747967479675 37.65243902439024,24.796747967479675 37.65243902439024,24.796747967479675 37.65243902439024,24.796747967479675 37.65243902439024,24.796747967479675 37.65243902439024,24.847560975609756 37.65243902439024,24.898373983739837 37.65243902439024,25.05081300813008 37.65243902439024,25.254065040650406 37.65243902439024,25.558943089430894 37.65243902439024,25.914634146341463 37.65243902439024,26.422764227642276 37.703252032520325,26.98170731707317 37.7540650406504,27.693089430894307 37.80487804878049,28.404471544715445 37.90650406504065,29.115853658536583 38.00813008130081,29.725609756097562 38.05894308943089,30.38617886178862 38.16056910569105,30.995934959349594 38.262195121951216,31.554878048780488 38.3130081300813,32.0630081300813 38.3130081300813,32.6219512195122 38.36382113821138,33.18089430894309 38.36382113821138,33.790650406504064 38.41463414634146,34.451219512195124 38.41463414634146,35.010162601626014 38.46544715447154,35.56910569105691 38.516260162601625,36.17886178861789 38.5670731707317,36.73780487804878 38.668699186991866,37.39837398373984" fill="none" stroke="black" stroke-width="0.6"></polyline><polyline points="38.668699186991866,37.39837398373984 38.71951219512195,38.00813008130081 38.82113821138211,38.61788617886179 38.87195121951219,39.22764227642276 38.87195121951219,39.83739837398374 38.922764227642276,40.396341463414636 38.922764227642276,40.90447154471545 38.97357723577235,41.514227642276424 38.97357723577235,42.073170731707314 38.97357723577235,42.63211382113821 39.02439024390244,43.1910569105691 39.07520325203252,43.699186991869915 39.07520325203252,44.20731707317073 39.1260162601626,44.71544715447154 39.22764227642276,45.172764227642276 39.27845528455285,45.68089430894309 39.329268292682926,46.239837398373986 39.38008130081301,46.697154471544714 39.48170731707317,47.15447154471545 39.53252032520325,47.5609756097561 39.583333333333336,47.96747967479675 39.6849593495935,48.42479674796748 39.735772357723576,48.78048780487805 39.83739837398374,49.136178861788615 39.9390243902439,49.4410569105691 39.989837398373986,49.74593495934959 40.09146341463415,50.10162601626016 40.19308943089431,50.45731707317073 40.24390243902439,50.762195121951216 40.34552845528455,51.0670731707317 40.396341463414636,51.37195121951219 40.447154471544714,51.6260162601626 40.4979674796748,51.880081300813 40.548780487804876,52.13414634146341 40.59959349593496,52.33739837398374 40.65040650406504,52.540650406504064 40.701219512195124,52.74390243902439 40.701219512195124,52.896341463414636 40.7520325203252,53.09959349593496 40.7520325203252,53.353658536585364 40.802845528455286,53.55691056910569 40.802845528455286,53.65853658536585 40.802845528455286,53.8109756097561 40.802845528455286,53.86178861788618 40.802845528455286,53.86178861788618 40.802845528455286,53.91260162601626 40.802845528455286,53.91260162601626 40.802845528455286,53.91260162601626 40.802845528455286,53.91260162601626 40.802845528455286,53.91260162601626 40.802845528455286,53.91260162601626" fill="none" stroke="black" stroke-width="0.6"></polyline><polyline points="40.802845528455286,53.91260162601626 40.802845528455286,53.91260162601626 40.802845528455286,54.014227642276424 40.802845528455286,54.11585365853659 40.802845528455286,54.31910569105691 40.802845528455286,54.6239837398374 40.802845528455286,54.8780487804878 40.802845528455286,55.18292682926829 40.802845528455286,55.33536585365854 40.802845528455286,55.48780487804878 40.802845528455286,55.53861788617886 40.802845528455286,55.53861788617886 40.802845528455286,55.53861788617886 40.802845528455286,55.53861788617886 40.802845528455286,55.53861788617886 40.802845528455286,55.48780487804878 40.802845528455286,55.48780487804878 40.802845528455286,55.4369918699187 40.802845528455286,55.4369918699187 40.802845528455286,55.4369918699187 40.802845528455286,55.4369918699187 40.802845528455286,55.4369918699187 40.802845528455286,55.4369918699187 40.802845528455286,55.4369918699187 40.802845528455286,55.4369918699187 40.853658536585364,55.4369918699187 40.853658536585364,55.4369918699187 40.90447154471545,55.386178861788615 40.95528455284553,55.233739837398375 41.00609756097561,54.8780487804878" fill="none" stroke="black" stroke-width="0.6"></polyline><polyline points="18.597560975609756,40.447154471544714 18.546747967479675,40.447154471544714 18.495934959349594,40.4979674796748 18.445121951219512,40.4979674796748 18.39430894308943,40.548780487804876 18.34349593495935,40.548780487804876 18.29268292682927,40.548780487804876 18.29268292682927,40.59959349593496 18.29268292682927,40.59959349593496 18.29268292682927,40.59959349593496 18.29268292682927,40.59959349593496 18.29268292682927,40.59959349593496 18.29268292682927,40.59959349593496 18.34349593495935,40.59959349593496 18.39430894308943,40.65040650406504 18.445121951219512,40.65040650406504 18.495934959349594,40.701219512195124 18.597560975609756,40.701219512195124 18.69918699186992,40.7520325203252 18.75,40.802845528455286 18.80081300813008,40.853658536585364 18.902439024390244,40.90447154471545 18.953252032520325,40.90447154471545 19.054878048780488,40.95528455284553 19.10569105691057,41.00609756097561 19.20731707317073,41.05691056910569 19.308943089430894,41.05691056910569 19.410569105691057,41.107723577235774 19.461382113821138,41.107723577235774 19.5630081300813,41.15853658536585 19.715447154471544,41.15853658536585 19.817073170731707,41.15853658536585 19.96951219512195,41.15853658536585 20.121951219512194,41.15853658536585 20.32520325203252,41.15853658536585 20.528455284552845,41.15853658536585 20.833333333333332,41.15853658536585 21.13821138211382,41.15853658536585 21.443089430894307,41.15853658536585 21.798780487804876,41.15853658536585 22.103658536585364,41.107723577235774 22.459349593495933,41.107723577235774 22.815040650406505,41.107723577235774 23.170731707317074,41.05691056910569 23.526422764227643,41.05691056910569 23.932926829268293,41.05691056910569 24.288617886178862,41.05691056910569 24.695121951219512,41.05691056910569 25.101626016260163,41.05691056910569 25.508130081300813,41.00609756097561 25.965447154471544,41.00609756097561" fill="none" stroke="black" stroke-width="0.6"></polyline><polyline points="25.965447154471544,41.00609756097561 26.422764227642276,41.00609756097561 26.829268292682926,40.95528455284553 27.286585365853657,40.95528455284553 27.74390243902439,40.95528455284553 28.15040650406504,40.95528455284553 28.60772357723577,40.95528455284553 29.0650406504065,40.95528455284553 29.522357723577237,40.95528455284553 29.979674796747968,40.95528455284553 30.48780487804878,40.90447154471545 30.945121951219512,40.853658536585364 31.402439024390244,40.802845528455286 31.859756097560975,40.7520325203252 32.3170731707317,40.7520325203252 32.77439024390244,40.7520325203252 33.23170731707317,40.7520325203252 33.6890243902439,40.7520325203252 34.146341463414636,40.7520325203252 34.65447154471545,40.7520325203252 35.16260162601626,40.701219512195124 35.61991869918699,40.701219512195124 36.17886178861789,40.65040650406504 36.636178861788615,40.65040650406504 37.19512195121951,40.59959349593496 37.703252032520325,40.548780487804876 38.21138211382114,40.4979674796748 38.77032520325203,40.447154471544714 39.27845528455285,40.396341463414636 39.78658536585366,40.34552845528455 40.34552845528455,40.24390243902439 40.853658536585364,40.19308943089431 41.41260162601626,40.09146341463415 41.97154471544715,40.040650406504064 42.42886178861789,40.040650406504064 42.9369918699187,39.989837398373986 43.49593495934959,39.989837398373986 43.953252032520325,39.9390243902439 44.41056910569105,39.88821138211382 44.96951219512195,39.78658536585366 45.42682926829268,39.735772357723576 45.9349593495935,39.63414634146341 46.49390243902439,39.53252032520325 46.951219512195124,39.48170731707317 47.459349593495936,39.43089430894309 47.96747967479675,39.38008130081301 48.42479674796748,39.38008130081301 48.93292682926829,39.38008130081301 49.49186991869919,39.38008130081301 50,39.38008130081301 50.55894308943089,39.38008130081301" fill="none" stroke="black" stroke-width="0.6"></polyline><polyline points="50.55894308943089,39.38008130081301 51.168699186991866,39.329268292682926 51.72764227642276,39.27845528455285 52.33739837398374,39.176829268292686 52.947154471544714,39.1260162601626 53.50609756097561,39.02439024390244 54.0650406504065,38.97357723577235 54.67479674796748,38.87195121951219 55.18292682926829,38.82113821138211 55.74186991869919,38.82113821138211 56.30081300813008,38.71951219512195 56.80894308943089,38.668699186991866 57.3170731707317,38.61788617886179 57.825203252032516,38.516260162601625 58.33333333333333,38.46544715447154 58.790650406504064,38.41463414634146 59.197154471544714,38.41463414634146 59.552845528455286,38.36382113821138 59.90853658536585,38.36382113821138 60.264227642276424,38.3130081300813 60.56910569105691,38.3130081300813 60.823170731707314,38.262195121951216 61.077235772357724,38.262195121951216 61.28048780487805,38.262195121951216 61.483739837398375,38.262195121951216 61.636178861788615,38.262195121951216 61.73780487804878,38.262195121951216 61.890243902439025,38.262195121951216 61.99186991869919,38.262195121951216 62.09349593495935,38.262195121951216 62.14430894308943,38.262195121951216 62.19512195121951,38.262195121951216 62.24593495934959,38.262195121951216 62.24593495934959,38.262195121951216 62.296747967479675,38.262195121951216 62.296747967479675,38.262195121951216 62.296747967479675,38.262195121951216 62.296747967479675,38.262195121951216 62.296747967479675,38.262195121951216 62.296747967479675,38.262195121951216 62.296747967479675,38.262195121951216 62.296747967479675,38.262195121951216 62.296747967479675,38.262195121951216 62.296747967479675,38.262195121951216 62.296747967479675,38.262195121951216 62.296747967479675,38.262195121951216 62.296747967479675,38.262195121951216 62.296747967479675,38.16056910569105 62.24593495934959,38.109756097560975" fill="none" stroke="black" stroke-width="0.6"></polyline><polyline points="17.88617886178862,26.16869918699187 17.784552845528456,26.16869918699187 17.682926829268293,26.16869918699187 17.632113821138212,26.117886178861788 17.53048780487805,26.067073170731707 17.479674796747968,26.067073170731707 17.428861788617887,26.016260162601625 17.378048780487806,25.965447154471544 17.327235772357724,25.914634146341463 17.276422764227643,25.914634146341463 17.276422764227643,25.914634146341463 17.276422764227643,25.86382113821138 17.225609756097562,25.86382113821138 17.225609756097562,25.86382113821138 17.225609756097562,25.86382113821138 17.225609756097562,25.86382113821138 17.225609756097562,25.86382113821138 17.276422764227643,25.86382113821138 17.327235772357724,25.86382113821138 17.378048780487806,25.914634146341463 17.53048780487805,26.016260162601625 17.682926829268293,26.117886178861788 17.88617886178862,26.270325203252032 18.089430894308943,26.422764227642276 18.39430894308943,26.57520325203252 18.69918699186992,26.829268292682926 19.10569105691057,27.134146341463413 19.5630081300813,27.4390243902439 19.96951219512195,27.84552845528455 20.426829268292682,28.20121951219512 20.884146341463413,28.55691056910569 21.341463414634145,28.861788617886177 21.798780487804876,29.166666666666664 22.205284552845526,29.471544715447155 22.611788617886177,29.725609756097562 23.01829268292683,30.03048780487805 23.3739837398374,30.335365853658537 23.78048780487805,30.640243902439025 24.1869918699187,30.945121951219512 24.54268292682927,31.30081300813008 24.94918699186992,31.70731707317073 25.40650406504065,32.11382113821138 25.8130081300813,32.52032520325203 26.21951219512195,32.926829268292686 26.676829268292682,33.333333333333336 27.134146341463413,33.6890243902439 27.591463414634145,33.99390243902439 28.048780487804876,34.298780487804876 28.455284552845526,34.552845528455286 28.912601626016258,34.857723577235774 29.369918699186993,35.16260162601626" fill="none" stroke="black" stroke-width="0.6"></polyline><polyline points="29.369918699186993,35.16260162601626 29.776422764227643,35.416666666666664 30.233739837398375,35.670731707317074 30.691056910569106,35.97560975609756 31.148373983739837,36.229674796747965 31.60569105691057,36.43292682926829 32.11382113821138,36.636178861788615 32.57113821138211,36.78861788617886 33.02845528455285,36.9410569105691 33.4349593495935,37.09349593495935 33.892276422764226,37.296747967479675 34.34959349593496,37.5 34.70528455284553,37.703252032520325 35.0609756097561,37.90650406504065 35.416666666666664,38.16056910569105 35.77235772357724,38.36382113821138 36.1280487804878,38.5670731707317 36.53455284552845,38.82113821138211 36.83943089430894,39.02439024390244 37.19512195121951,39.22764227642276 37.55081300813008,39.43089430894309 37.80487804878049,39.63414634146341 38.109756097560975,39.83739837398374 38.41463414634146,40.09146341463415 38.71951219512195,40.29471544715447 38.97357723577235,40.4979674796748 39.27845528455285,40.7520325203252 39.53252032520325,40.95528455284553 39.83739837398374,41.209349593495936 40.19308943089431,41.41260162601626 40.4979674796748,41.61585365853659 40.802845528455286,41.76829268292683 41.15853658536585,41.97154471544715 41.46341463414634,42.073170731707314 41.71747967479675,42.22560975609756 42.073170731707314,42.3780487804878 42.3780487804878,42.53048780487805 42.68292682926829,42.68292682926829 43.03861788617886,42.9369918699187 43.34349593495935,43.140243902439025 43.64837398373984,43.34349593495935 43.953252032520325,43.59756097560975 44.30894308943089,43.85162601626016 44.66463414634146,44.105691056910565 45.02032520325203,44.41056910569105 45.3760162601626,44.61382113821138 45.68089430894309,44.918699186991866 46.03658536585366,45.172764227642276 46.392276422764226,45.42682926829268 46.7479674796748,45.73170731707317 47.20528455284553,46.03658536585366" fill="none" stroke="black" stroke-width="0.6"></polyline><polyline points="47.20528455284553,46.03658536585366 47.61178861788618,46.34146341463415 48.01829268292683,46.646341463414636 48.47560975609756,46.951219512195124 48.88211382113821,47.15447154471545 49.33943089430894,47.40853658536585 49.796747967479675,47.61178861788618 50.2540650406504,47.8150406504065 50.71138211382114,48.01829268292683 51.168699186991866,48.27235772357724 51.575203252032516,48.47560975609756 52.03252032520325,48.67886178861789 52.489837398373986,48.83130081300813 52.896341463414636,49.03455284552845 53.353658536585364,49.23780487804878 53.760162601626014,49.4410569105691 54.166666666666664,49.69512195121951 54.573170731707314,49.949186991869915 54.92886178861789,50.203252032520325 55.28455284552845,50.40650406504065 55.640243902439025,50.609756097560975 55.99593495934959,50.86382113821138 56.30081300813008,51.016260162601625 56.55487804878049,51.21951219512195 56.80894308943089,51.422764227642276 57.012195121951216,51.575203252032516 57.21544715447154,51.77845528455284 57.418699186991866,51.93089430894309 57.62195121951219,52.083333333333336 57.825203252032516,52.28658536585366 58.02845528455284,52.489837398373986 58.231707317073166,52.642276422764226 58.485772357723576,52.84552845528455 58.6890243902439,52.9979674796748 58.84146341463415,53.09959349593496 59.04471544715447,53.2520325203252 59.2479674796748,53.353658536585364 59.451219512195124,53.50609756097561 59.65447154471545,53.607723577235774 59.80691056910569,53.709349593495936 59.959349593495936,53.8109756097561 60.16260162601626,53.96341463414634 60.36585365853659,54.0650406504065 60.51829268292683,54.166666666666664 60.670731707317074,54.26829268292683 60.77235772357724,54.31910569105691 60.823170731707314,54.36991869918699 60.8739837398374,54.36991869918699 60.92479674796748,54.36991869918699 60.92479674796748,54.36991869918699 60.92479674796748,54.36991869918699" fill="none" stroke="black" stroke-width="0.6"></polyline><polyline points="60.92479674796748,54.36991869918699 60.92479674796748,54.36991869918699 60.92479674796748,54.36991869918699 60.92479674796748,54.36991869918699 60.92479674796748,54.36991869918699 60.92479674796748,54.36991869918699 60.92479674796748,54.26829268292683 60.97560975609756,54.11585365853659 61.02642276422764,53.91260162601626 61.17886178861789,53.607723577235774 61.229674796747965,53.45528455284553" fill="none" stroke="black" stroke-width="0.6"></polyline><polyline points="19.96951219512195,54.67479674796748 19.96951219512195,54.67479674796748 19.91869918699187,54.67479674796748 19.91869918699187,54.67479674796748 19.91869918699187,54.67479674796748 19.91869918699187,54.67479674796748 19.91869918699187,54.67479674796748 19.91869918699187,54.67479674796748 19.91869918699187,54.67479674796748 19.91869918699187,54.67479674796748 19.91869918699187,54.67479674796748 19.91869918699187,54.67479674796748 19.91869918699187,54.6239837398374 19.91869918699187,54.6239837398374 19.91869918699187,54.6239837398374 19.96951219512195,54.573170731707314 20.020325203252032,54.52235772357724 20.121951219512194,54.52235772357724 20.223577235772357,54.420731707317074 20.32520325203252,54.36991869918699 20.477642276422763,54.26829268292683 20.68089430894309,54.166666666666664 20.884146341463413,54.014227642276424 21.1890243902439,53.86178861788618 21.49390243902439,53.65853658536585 21.798780487804876,53.40447154471545 22.154471544715445,53.15040650406504 22.611788617886177,52.896341463414636 22.96747967479675,52.59146341463415 23.42479674796748,52.33739837398374 23.882113821138212,51.981707317073166 24.288617886178862,51.67682926829268 24.695121951219512,51.37195121951219 25.152439024390244,51.0670731707317 25.609756097560975,50.762195121951216 26.016260162601625,50.40650406504065 26.524390243902438,50.05081300813008 26.93089430894309,49.74593495934959 27.38821138211382,49.390243902439025 27.84552845528455,49.08536585365854 28.2520325203252,48.78048780487805 28.709349593495933,48.47560975609756 29.166666666666664,48.22154471544715 29.6239837398374,47.916666666666664 30.08130081300813,47.61178861788618 30.589430894308943,47.25609756097561 31.046747967479675,46.90040650406504 31.504065040650406,46.54471544715447 32.012195121951216,46.13821138211382 32.418699186991866,45.88414634146341 32.82520325203252,45.579268292682926" fill="none" stroke="black" stroke-width="0.6"></polyline><polyline points="32.82520325203252,45.579268292682926 33.28252032520325,45.27439024390244 33.6890243902439,45.02032520325203 34.09552845528455,44.71544715447154 34.552845528455286,44.359756097560975 35.010162601626014,44.05487804878049 35.46747967479675,43.64837398373984 35.97560975609756,43.1910569105691 36.38211382113821,42.78455284552845 36.83943089430894,42.42886178861789 37.24593495934959,42.073170731707314 37.65243902439024,41.76829268292683 38.00813008130081,41.46341463414634 38.46544715447154,41.107723577235774 38.87195121951219,40.802845528455286 39.27845528455285,40.4979674796748 39.735772357723576,40.142276422764226 40.19308943089431,39.83739837398374 40.701219512195124,39.43089430894309 41.15853658536585,39.07520325203252 41.61585365853659,38.71951219512195 42.02235772357724,38.36382113821138 42.479674796747965,38.00813008130081 42.83536585365854,37.7540650406504 43.24186991869919,37.5 43.64837398373984,37.19512195121951 44.05487804878049,36.9410569105691 44.46138211382114,36.58536585365854 44.918699186991866,36.229674796747965 45.325203252032516,35.92479674796748 45.78252032520325,35.61991869918699 46.1890243902439,35.36585365853659 46.54471544715447,35.11178861788618 46.951219512195124,34.857723577235774 47.357723577235774,34.552845528455286 47.764227642276424,34.298780487804876 48.170731707317074,33.99390243902439 48.577235772357724,33.6890243902439 48.93292682926829,33.38414634146341 49.33943089430894,33.079268292682926 49.74593495934959,32.8760162601626 50.10162601626016,32.6219512195122 50.45731707317073,32.36788617886179 50.8130081300813,32.16463414634146 51.21951219512195,31.859756097560975 51.6260162601626,31.554878048780488 51.981707317073166,31.30081300813008 52.33739837398374,31.046747967479675 52.69308943089431,30.79268292682927 52.9979674796748,30.589430894308943 53.302845528455286,30.38617886178862" fill="none" stroke="black" stroke-width="0.6"></polyline><polyline points="53.302845528455286,30.38617886178862 53.607723577235774,30.233739837398375 53.86178861788618,30.03048780487805 54.166666666666664,29.878048780487806 54.47154471544715,29.6239837398374 54.77642276422764,29.369918699186993 55.03048780487805,29.115853658536583 55.33536585365854,28.912601626016258 55.58943089430894,28.760162601626014 55.792682926829265,28.60772357723577 55.99593495934959,28.455284552845526 56.199186991869915,28.353658536585364 56.40243902439024,28.15040650406504 56.605691056910565,27.997967479674795 56.80894308943089,27.79471544715447 56.96138211382114,27.693089430894307 57.16463414634146,27.540650406504064 57.266260162601625,27.4390243902439 57.418699186991866,27.33739837398374 57.52032520325203,27.235772357723576 57.62195121951219,27.184959349593495 57.72357723577235,27.134146341463413 57.77439024390244,27.083333333333332 57.825203252032516,27.03252032520325 57.92682926829268,26.98170731707317 57.97764227642276,26.880081300813007 58.079268292682926,26.829268292682926 58.130081300813,26.727642276422763 58.231707317073166,26.676829268292682 58.28252032520325,26.6260162601626 58.38414634146341,26.57520325203252 58.43495934959349,26.524390243902438 58.485772357723576,26.473577235772357 58.58739837398374,26.371951219512194 58.6890243902439,26.321138211382113 58.790650406504064,26.21951219512195 58.892276422764226,26.16869918699187 58.99390243902439,26.067073170731707 59.04471544715447,26.016260162601625 59.09552845528455,25.965447154471544 59.197154471544714,25.914634146341463 59.197154471544714,25.86382113821138 59.2479674796748,25.8130081300813 59.298780487804876,25.8130081300813 59.34959349593496,25.76219512195122 59.451219512195124,25.711382113821138 59.5020325203252,25.660569105691057 59.552845528455286,25.609756097560975 59.603658536585364,25.558943089430894 59.65447154471545,25.508130081300813 59.65447154471545,25.508130081300813" fill="none" stroke="black" stroke-width="0.6"></polyline><polyline points="59.65447154471545,25.508130081300813 59.70528455284553,25.45731707317073 59.70528455284553,25.40650406504065 59.75609756097561,25.35569105691057 59.80691056910569,25.304878048780488 59.857723577235774,25.254065040650406 59.90853658536585,25.203252032520325 60.010162601626014,25.152439024390244 60.0609756097561,25.05081300813008 60.11178861788618,25 60.16260162601626,25 60.21341463414634,24.94918699186992 60.21341463414634,24.94918699186992 60.264227642276424,24.94918699186992 60.264227642276424,24.94918699186992 60.264227642276424,24.94918699186992 60.264227642276424,24.94918699186992 60.264227642276424,24.94918699186992 60.264227642276424,24.94918699186992 60.264227642276424,24.94918699186992 60.264227642276424,24.94918699186992 60.21341463414634,24.94918699186992 60.21341463414634,24.94918699186992 60.21341463414634,24.94918699186992 60.21341463414634,24.94918699186992 60.21341463414634,25 60.21341463414634,25 60.21341463414634,25 60.21341463414634,25 60.21341463414634,25 60.21341463414634,25 60.21341463414634,25 60.21341463414634,25 60.21341463414634,25 60.21341463414634,25 60.21341463414634,25 60.21341463414634,25 60.264227642276424,25 60.264227642276424,24.94918699186992 60.264227642276424,24.94918699186992 60.3150406504065,24.94918699186992 60.3150406504065,24.94918699186992 60.3150406504065,24.898373983739837 60.3150406504065,24.898373983739837 60.36585365853659,24.898373983739837 60.36585365853659,24.898373983739837 60.36585365853659,24.898373983739837 60.416666666666664,24.847560975609756 60.416666666666664,24.847560975609756 60.46747967479675,24.847560975609756 60.46747967479675,24.796747967479675" fill="none" stroke="black" stroke-width="0.6"></polyline><polyline points="60.46747967479675,24.796747967479675 60.46747967479675,24.796747967479675 60.51829268292683,24.796747967479675 60.51829268292683,24.796747967479675 60.51829268292683,24.796747967479675 60.51829268292683,24.796747967479675 60.56910569105691,24.745934959349594 60.56910569105691,24.745934959349594 60.56910569105691,24.745934959349594 60.61991869918699,24.745934959349594 60.61991869918699,24.695121951219512 60.670731707317074,24.695121951219512 60.72154471544715,24.695121951219512 60.72154471544715,24.64430894308943 60.77235772357724,24.64430894308943 60.823170731707314,24.64430894308943 60.823170731707314,24.59349593495935 60.8739837398374,24.59349593495935 60.8739837398374,24.59349593495935 60.92479674796748,24.59349593495935 60.92479674796748,24.59349593495935 60.92479674796748,24.59349593495935 60.97560975609756,24.59349593495935 60.97560975609756,24.59349593495935 60.97560975609756,24.59349593495935 60.97560975609756,24.59349593495935 60.97560975609756,24.59349593495935 60.97560975609756,24.59349593495935 60.97560975609756,24.59349593495935 60.97560975609756,24.59349593495935 60.97560975609756,24.59349593495935 60.97560975609756,24.59349593495935 60.97560975609756,24.59349593495935 60.97560975609756,24.59349593495935 60.97560975609756,24.59349593495935 60.97560975609756,24.59349593495935 60.97560975609756,24.59349593495935 60.97560975609756,24.59349593495935 60.97560975609756,24.59349593495935 60.97560975609756,24.59349593495935 60.97560975609756,24.59349593495935 60.97560975609756,24.59349593495935 60.97560975609756,24.59349593495935 60.97560975609756,24.59349593495935 60.97560975609756,24.59349593495935 60.97560975609756,24.59349593495935 60.97560975609756,24.59349593495935 60.97560975609756,24.59349593495935 60.97560975609756,24.59349593495935 60.97560975609756,24.59349593495935 60.97560975609756,24.59349593495935" fill="none" stroke="black" stroke-width="0.6"></polyline><polyline points="60.97560975609756,24.59349593495935 60.97560975609756,24.59349593495935 60.97560975609756,24.59349593495935 60.97560975609756,24.59349593495935 60.97560975609756,24.59349593495935 60.97560975609756,24.59349593495935 60.97560975609756,24.59349593495935 60.97560975609756,24.59349593495935 60.97560975609756,24.59349593495935 60.97560975609756,24.59349593495935 60.97560975609756,24.59349593495935 60.97560975609756,24.59349593495935 60.97560975609756,24.59349593495935 60.97560975609756,24.59349593495935 60.97560975609756,24.59349593495935 60.97560975609756,24.59349593495935 60.97560975609756,24.59349593495935 60.97560975609756,24.59349593495935 60.97560975609756,24.59349593495935 60.97560975609756,24.59349593495935 60.97560975609756,24.59349593495935 60.97560975609756,24.59349593495935 60.97560975609756,24.59349593495935 60.97560975609756,24.59349593495935 60.97560975609756,24.59349593495935 60.97560975609756,24.59349593495935 60.97560975609756,24.59349593495935 60.97560975609756,24.59349593495935 60.97560975609756,24.59349593495935 60.97560975609756,24.59349593495935 60.97560975609756,24.59349593495935 60.97560975609756,24.59349593495935 60.97560975609756,24.59349593495935 60.97560975609756,24.59349593495935" fill="none" stroke="black" stroke-width="0.6"></polyline><polyline points="48.93292682926829,33.02845528455285 48.93292682926829,33.02845528455285 48.93292682926829,33.02845528455285 48.93292682926829,33.02845528455285 48.93292682926829,33.02845528455285 48.93292682926829,33.02845528455285 48.93292682926829,33.02845528455285 48.93292682926829,33.02845528455285 48.93292682926829,33.02845528455285 48.93292682926829,33.02845528455285 48.93292682926829,33.02845528455285 48.93292682926829,32.97764227642276 48.93292682926829,32.97764227642276 48.93292682926829,32.926829268292686 48.983739837398375,32.926829268292686 48.983739837398375,32.8760162601626 48.983739837398375,32.82520325203252 48.983739837398375,32.77439024390244 48.983739837398375,32.672764227642276 48.983739837398375,32.6219512195122 48.983739837398375,32.52032520325203 48.983739837398375,32.36788617886179 48.93292682926829,32.266260162601625 48.93292682926829,32.11382113821138 48.88211382113821,31.961382113821138 48.83130081300813,31.808943089430894 48.729674796747965,31.65650406504065 48.67886178861789,31.504065040650406 48.577235772357724,31.351626016260163 48.47560975609756,31.19918699186992 48.3739837398374,31.046747967479675 48.22154471544715,30.945121951219512 48.06910569105691,30.84349593495935 47.916666666666664,30.691056910569106 47.71341463414634,30.589430894308943 47.5609756097561,30.48780487804878 47.357723577235774,30.38617886178862 47.15447154471545,30.284552845528456 46.90040650406504,30.182926829268293 46.646341463414636,30.08130081300813 46.34146341463415,29.979674796747968 46.03658536585366,29.878048780487806 45.73170731707317,29.725609756097562 45.47764227642276,29.67479674796748 45.22357723577235,29.573170731707318 44.918699186991866,29.471544715447155 44.61382113821138,29.369918699186993 44.359756097560975,29.268292682926827 44.05487804878049,29.217479674796746 43.80081300813008,29.115853658536583 43.546747967479675,29.0650406504065" fill="none" stroke="black" stroke-width="0.6"></polyline><polyline points="43.546747967479675,29.0650406504065 43.24186991869919,29.01422764227642 42.9369918699187,29.01422764227642 42.63211382113821,28.96341463414634 42.327235772357724,28.96341463414634 42.073170731707314,28.912601626016258 41.81910569105691,28.912601626016258 41.5650406504065,28.861788617886177 41.36178861788618,28.861788617886177 41.107723577235774,28.861788617886177 40.853658536585364,28.861788617886177 40.65040650406504,28.861788617886177 40.396341463414636,28.861788617886177 40.19308943089431,28.912601626016258 39.989837398373986,28.96341463414634 39.735772357723576,29.0650406504065 39.53252032520325,29.217479674796746 39.38008130081301,29.31910569105691 39.176829268292686,29.471544715447155 39.07520325203252,29.573170731707318 38.97357723577235,29.725609756097562 38.82113821138211,29.878048780487806 38.71951219512195,29.979674796747968 38.61788617886179,30.132113821138212 38.516260162601625,30.284552845528456 38.41463414634146,30.48780487804878 38.36382113821138,30.691056910569106 38.3130081300813,30.89430894308943 38.262195121951216,31.046747967479675 38.262195121951216,31.25 38.21138211382114,31.453252032520325 38.16056910569105,31.60569105691057 38.109756097560975,31.808943089430894 38.05894308943089,32.0630081300813 38.00813008130081,32.3170731707317 37.95731707317073,32.52032520325203 37.95731707317073,32.72357723577236 37.95731707317073,32.8760162601626 37.95731707317073,33.079268292682926 37.95731707317073,33.38414634146341 37.95731707317073,33.63821138211382 38.00813008130081,33.892276422764226 38.00813008130081,34.197154471544714 38.05894308943089,34.40040650406504 38.05894308943089,34.65447154471545 38.05894308943089,34.90853658536585 38.109756097560975,35.0609756097561 38.16056910569105,35.264227642276424 38.21138211382114,35.416666666666664 38.3130081300813,35.56910569105691 38.46544715447154,35.72154471544715" fill="none" stroke="black" stroke-width="0.6"></polyline><polyline points="38.46544715447154,35.72154471544715 38.61788617886179,35.92479674796748 38.77032520325203,36.077235772357724 38.922764227642276,36.229674796747965 39.1260162601626,36.38211382113821 39.27845528455285,36.483739837398375 39.53252032520325,36.636178861788615 39.78658536585366,36.78861788617886 40.040650406504064,36.890243902439025 40.29471544715447,37.042682926829265 40.59959349593496,37.14430894308943 40.853658536585364,37.24593495934959 41.15853658536585,37.34756097560975 41.3109756097561,37.39837398373984 41.41260162601626,37.449186991869915 41.666666666666664,37.5 41.920731707317074,37.55081300813008 42.17479674796748,37.55081300813008 42.42886178861789,37.60162601626016 42.53048780487805,37.60162601626016 42.83536585365854,37.60162601626016 42.9369918699187,37.60162601626016 43.08943089430894,37.60162601626016 43.1910569105691,37.60162601626016 43.292682926829265,37.60162601626016 43.39430894308943,37.60162601626016 43.64837398373984,37.60162601626016 43.80081300813008,37.60162601626016 44.0040650406504,37.60162601626016 44.25813008130081,37.60162601626016 44.46138211382114,37.55081300813008 44.66463414634146,37.5 44.86788617886179,37.39837398373984 45.07113821138211,37.34756097560975 45.27439024390244,37.296747967479675 45.42682926829268,37.296747967479675 45.579268292682926,37.24593495934959 45.78252032520325,37.19512195121951 45.88414634146341,37.19512195121951 46.03658536585366,37.14430894308943 46.1890243902439,37.09349593495935 46.290650406504064,37.042682926829265 46.44308943089431,36.9410569105691 46.54471544715447,36.890243902439025 46.646341463414636,36.83943089430894 46.798780487804876,36.78861788617886 46.90040650406504,36.73780487804878 47.0020325203252,36.636178861788615 47.103658536585364,36.58536585365854 47.20528455284553,36.53455284552845 47.30691056910569,36.43292682926829" fill="none" stroke="black" stroke-width="0.6"></polyline><polyline points="47.30691056910569,36.43292682926829 47.357723577235774,36.38211382113821 47.459349593495936,36.28048780487805 47.510162601626014,36.17886178861789 47.61178861788618,36.077235772357724 47.71341463414634,35.97560975609756 47.764227642276424,35.823170731707314 47.86585365853659,35.72154471544715 47.916666666666664,35.61991869918699 47.96747967479675,35.51829268292683 48.01829268292683,35.416666666666664 48.06910569105691,35.3150406504065 48.170731707317074,35.21341463414634 48.22154471544715,35.11178861788618 48.27235772357724,34.959349593495936 48.3739837398374,34.80691056910569 48.42479674796748,34.603658536585364 48.47560975609756,34.40040650406504 48.52642276422764,34.2479674796748 48.577235772357724,34.09552845528455 48.6280487804878,33.892276422764226 48.67886178861789,33.739837398373986 48.78048780487805,33.53658536585366 48.83130081300813,33.38414634146341 48.88211382113821,33.28252032520325 48.93292682926829,33.18089430894309 48.93292682926829,33.079268292682926 48.93292682926829,33.02845528455285 48.93292682926829,32.926829268292686 48.93292682926829,32.82520325203252 48.83130081300813,32.72357723577236 48.78048780487805,32.57113821138211 48.67886178861789,32.418699186991866 48.6280487804878,32.266260162601625 48.52642276422764,32.16463414634146 48.47560975609756,32.012195121951216 48.3739837398374,31.859756097560975 48.27235772357724,31.758130081300813 48.170731707317074,31.60569105691057 48.06910569105691,31.504065040650406 47.96747967479675,31.402439024390244 47.8150406504065,31.25 47.71341463414634,31.148373983739837 47.61178861788618,31.046747967479675 47.510162601626014,30.945121951219512 47.40853658536585,30.84349593495935 47.357723577235774,30.741869918699187 47.357723577235774,30.691056910569106 47.30691056910569,30.691056910569106 47.30691056910569,30.640243902439025 47.25609756097561,30.538617886178862" fill="none" stroke="black" stroke-width="0.6"></polyline><polyline points="47.25609756097561,30.538617886178862" fill="none" stroke="black" stroke-width="0.6"></polyline><polyline points="41.5650406504065,32.3170731707317 41.514227642276424,32.3170731707317 41.514227642276424,32.3170731707317 41.46341463414634,32.3170731707317 41.41260162601626,32.36788617886179 41.41260162601626,32.418699186991866 41.36178861788618,32.52032520325203 41.36178861788618,32.6219512195122 41.36178861788618,32.72357723577236 41.41260162601626,32.82520325203252 41.46341463414634,32.8760162601626 41.5650406504065,32.926829268292686 41.61585365853659,32.926829268292686 41.666666666666664,32.926829268292686 41.71747967479675,32.926829268292686 41.71747967479675,32.8760162601626 41.76829268292683,32.77439024390244 41.76829268292683,32.72357723577236 41.76829268292683,32.6219512195122 41.76829268292683,32.52032520325203 41.71747967479675,32.46951219512195 41.666666666666664,32.418699186991866 41.666666666666664,32.36788617886179 41.5650406504065,32.3170731707317 41.514227642276424,32.3170731707317 41.46341463414634,32.3170731707317 41.41260162601626,32.3170731707317 41.36178861788618,32.418699186991866 41.3109756097561,32.52032520325203 41.3109756097561,32.6219512195122 41.3109756097561,32.77439024390244 41.3109756097561,32.8760162601626 41.3109756097561,32.926829268292686 41.36178861788618,32.97764227642276 41.46341463414634,32.97764227642276 41.514227642276424,32.97764227642276" fill="none" stroke="black" stroke-width="0.6"></polyline><polyline points="44.41056910569105,32.11382113821138 44.359756097560975,32.11382113821138 44.30894308943089,32.11382113821138 44.25813008130081,32.11382113821138 44.20731707317073,32.11382113821138 44.20731707317073,32.11382113821138 44.15650406504065,32.11382113821138 44.15650406504065,32.11382113821138 44.15650406504065,32.16463414634146 44.15650406504065,32.21544715447154 44.20731707317073,32.21544715447154 44.20731707317073,32.266260162601625 44.25813008130081,32.3170731707317 44.30894308943089,32.3170731707317 44.359756097560975,32.3170731707317 44.41056910569105,32.3170731707317 44.41056910569105,32.3170731707317 44.46138211382114,32.3170731707317 44.46138211382114,32.3170731707317 44.512195121951216,32.3170731707317 44.512195121951216,32.3170731707317 44.512195121951216,32.3170731707317 44.512195121951216,32.3170731707317 44.512195121951216,32.3170731707317 44.512195121951216,32.36788617886179 44.46138211382114,32.46951219512195 44.41056910569105,32.57113821138211 44.359756097560975,32.72357723577236 44.359756097560975,32.82520325203252 44.359756097560975,32.926829268292686 44.359756097560975,32.97764227642276 44.359756097560975,32.97764227642276 44.41056910569105,33.02845528455285 44.46138211382114,32.97764227642276 44.5630081300813,32.8760162601626 44.61382113821138,32.72357723577236 44.71544715447154,32.57113821138211 44.71544715447154,32.46951219512195 44.766260162601625,32.36788617886179 44.766260162601625,32.266260162601625 44.766260162601625,32.21544715447154 44.71544715447154,32.21544715447154 44.61382113821138,32.21544715447154 44.512195121951216,32.266260162601625 44.41056910569105,32.418699186991866 44.30894308943089,32.57113821138211 44.25813008130081,32.72357723577236 44.20731707317073,32.8760162601626 44.20731707317073,32.97764227642276 44.20731707317073,33.079268292682926 44.20731707317073,33.18089430894309" fill="none" stroke="black" stroke-width="0.6"></polyline><polyline points="44.20731707317073,33.18089430894309 44.25813008130081,33.23170731707317" fill="none" stroke="black" stroke-width="0.6"></polyline><polyline points="42.733739837398375,35.21341463414634 42.68292682926829,35.21341463414634 42.63211382113821,35.264227642276424 42.58130081300813,35.264227642276424 42.53048780487805,35.3150406504065 42.479674796747965,35.36585365853659 42.479674796747965,35.36585365853659 42.479674796747965,35.416666666666664 42.479674796747965,35.416666666666664 42.479674796747965,35.46747967479675 42.479674796747965,35.46747967479675 42.479674796747965,35.46747967479675 42.53048780487805,35.46747967479675 42.58130081300813,35.46747967479675 42.63211382113821,35.416666666666664 42.68292682926829,35.36585365853659 42.733739837398375,35.264227642276424 42.78455284552845,35.21341463414634 42.78455284552845,35.16260162601626 42.83536585365854,35.11178861788618 42.83536585365854,35.0609756097561 42.83536585365854,35.010162601626014 42.83536585365854,34.959349593495936 42.83536585365854,34.959349593495936 42.83536585365854,34.959349593495936 42.78455284552845,34.959349593495936 42.78455284552845,34.959349593495936 42.733739837398375,35.0609756097561 42.68292682926829,35.16260162601626 42.63211382113821,35.264227642276424 42.63211382113821,35.3150406504065 42.63211382113821,35.36585365853659 42.63211382113821,35.46747967479675 42.63211382113821,35.46747967479675 42.63211382113821,35.46747967479675 42.63211382113821,35.51829268292683 42.68292682926829,35.51829268292683 42.733739837398375,35.416666666666664 42.78455284552845,35.36585365853659 42.83536585365854,35.3150406504065 42.886178861788615,35.21341463414634 42.886178861788615,35.16260162601626 42.886178861788615,35.11178861788618 42.886178861788615,35.0609756097561 42.886178861788615,35.010162601626014 42.886178861788615,35.010162601626014 42.83536585365854,35.010162601626014 42.78455284552845,35.010162601626014 42.68292682926829,35.010162601626014 42.58130081300813,35.0609756097561 42.53048780487805,35.16260162601626" fill="none" stroke="black" stroke-width="0.6"></polyline><polyline points="42.53048780487805,35.16260162601626 42.479674796747965,35.264227642276424 42.479674796747965,35.36585365853659 42.479674796747965,35.46747967479675 42.479674796747965,35.56910569105691 42.53048780487805,35.61991869918699 42.58130081300813,35.61991869918699 42.63211382113821,35.61991869918699 42.733739837398375,35.61991869918699 42.78455284552845,35.61991869918699 42.83536585365854,35.51829268292683 42.886178861788615,35.416666666666664 42.9369918699187,35.36585365853659 42.98780487804878,35.264227642276424 42.98780487804878,35.16260162601626 42.98780487804878,35.11178861788618 42.9369918699187,35.0609756097561 42.886178861788615,35.010162601626014 42.83536585365854,35.010162601626014 42.733739837398375,35.010162601626014 42.68292682926829,35.010162601626014 42.63211382113821,35.0609756097561 42.63211382113821,35.11178861788618 42.58130081300813,35.16260162601626 42.58130081300813,35.16260162601626" fill="none" stroke="black" stroke-width="0.6"></polyline><polyline points="18.140243902439025,33.23170731707317 18.140243902439025,33.23170731707317 18.140243902439025,33.23170731707317 18.140243902439025,33.18089430894309 18.140243902439025,33.18089430894309 18.191056910569106,33.13008130081301 18.241869918699187,33.079268292682926 18.241869918699187,33.079268292682926" fill="none" stroke="black" stroke-width="0.6"></polyline><polyline points="18.80081300813008,32.8760162601626 18.80081300813008,32.926829268292686 18.80081300813008,33.02845528455285 18.75,33.079268292682926 18.75,33.13008130081301 18.69918699186992,33.18089430894309 18.69918699186992,33.18089430894309 18.69918699186992,33.23170731707317 18.69918699186992,33.23170731707317 18.648373983739837,33.23170731707317 18.597560975609756,33.23170731707317 18.546747967479675,33.23170731707317 18.495934959349594,33.23170731707317 18.39430894308943,33.23170731707317 18.241869918699187,33.23170731707317 18.089430894308943,33.23170731707317 17.835365853658537,33.23170731707317 17.632113821138212,33.23170731707317 17.378048780487806,33.23170731707317 17.073170731707318,33.18089430894309 16.81910569105691,33.18089430894309 16.514227642276424,33.18089430894309 16.209349593495933,33.13008130081301 15.955284552845528,33.13008130081301 15.752032520325203,33.13008130081301 15.548780487804878,33.18089430894309 15.447154471544716,33.23170731707317 15.345528455284553,33.28252032520325 15.294715447154472,33.333333333333336 15.294715447154472,33.38414634146341 15.294715447154472,33.38414634146341 15.294715447154472,33.38414634146341 15.294715447154472,33.38414634146341 15.294715447154472,33.38414634146341 15.294715447154472,33.38414634146341 15.294715447154472,33.38414634146341 15.294715447154472,33.38414634146341 15.345528455284553,33.38414634146341 15.345528455284553,33.38414634146341 15.396341463414634,33.333333333333336 15.447154471544716,33.333333333333336" fill="none" stroke="black" stroke-width="0.6"></polyline><polyline points="15.853658536585366,43.39430894308943 15.853658536585366,43.39430894308943 15.853658536585366,43.39430894308943 15.853658536585366,43.39430894308943 15.853658536585366,43.39430894308943 15.853658536585366,43.39430894308943 15.853658536585366,43.39430894308943 15.853658536585366,43.39430894308943 15.802845528455284,43.39430894308943 15.802845528455284,43.34349593495935 15.802845528455284,43.34349593495935 15.802845528455284,43.34349593495935 15.802845528455284,43.292682926829265 15.802845528455284,43.292682926829265 15.802845528455284,43.24186991869919 15.802845528455284,43.24186991869919 15.802845528455284,43.1910569105691" fill="none" stroke="black" stroke-width="0.6"></polyline><polyline points="16.260162601626014,47.40853658536585 16.260162601626014,47.40853658536585 16.260162601626014,47.459349593495936 16.260162601626014,47.459349593495936 16.209349593495933,47.510162601626014 16.209349593495933,47.510162601626014 16.209349593495933,47.5609756097561 16.209349593495933,47.5609756097561 16.15853658536585,47.5609756097561 16.15853658536585,47.61178861788618 16.15853658536585,47.61178861788618 16.15853658536585,47.61178861788618 16.15853658536585,47.61178861788618 16.15853658536585,47.61178861788618 16.15853658536585,47.61178861788618 16.15853658536585,47.61178861788618 16.15853658536585,47.61178861788618 16.15853658536585,47.61178861788618 16.15853658536585,47.61178861788618 16.15853658536585,47.5609756097561 16.15853658536585,47.459349593495936 16.15853658536585,47.357723577235774 16.15853658536585,47.25609756097561 16.15853658536585,47.052845528455286 16.15853658536585,46.84959349593496 16.15853658536585,46.59552845528455 16.15853658536585,46.34146341463415 16.10772357723577,46.08739837398374 16.10772357723577,45.78252032520325 16.10772357723577,45.47764227642276 16.05691056910569,45.22357723577235 16.05691056910569,44.918699186991866 16.006097560975608,44.66463414634146 16.006097560975608,44.41056910569105 15.955284552845528,44.20731707317073 15.955284552845528,43.953252032520325 15.955284552845528,43.80081300813008 15.955284552845528,43.59756097560975 15.955284552845528,43.39430894308943 15.955284552845528,43.24186991869919 15.955284552845528,43.03861788617886 15.955284552845528,42.83536585365854 15.955284552845528,42.63211382113821 15.955284552845528,42.42886178861789 15.955284552845528,42.17479674796748 15.955284552845528,41.920731707317074 15.904471544715447,41.666666666666664 15.904471544715447,41.41260162601626 15.904471544715447,41.209349593495936 15.904471544715447,40.95528455284553 15.904471544715447,40.65040650406504" fill="none" stroke="black" stroke-width="0.6"></polyline><polyline points="15.904471544715447,40.65040650406504 15.904471544715447,40.447154471544714 15.904471544715447,40.24390243902439 15.904471544715447,39.989837398373986 15.955284552845528,39.78658536585366 15.955284552845528,39.583333333333336 15.955284552845528,39.38008130081301 16.006097560975608,39.176829268292686 16.006097560975608,38.922764227642276 16.006097560975608,38.61788617886179 16.006097560975608,38.36382113821138 16.006097560975608,38.05894308943089 16.006097560975608,37.703252032520325 16.006097560975608,37.39837398373984 16.006097560975608,37.14430894308943 16.006097560975608,36.83943089430894 16.006097560975608,36.58536585365854 16.006097560975608,36.33130081300813 16.006097560975608,36.02642276422764 16.006097560975608,35.77235772357724 16.006097560975608,35.46747967479675 16.006097560975608,35.16260162601626 16.006097560975608,34.90853658536585 16.006097560975608,34.552845528455286 16.006097560975608,34.2479674796748 15.955284552845528,33.94308943089431 15.904471544715447,33.58739837398374 15.853658536585366,33.28252032520325 15.853658536585366,33.02845528455285 15.802845528455284,32.77439024390244 15.752032520325203,32.52032520325203 15.701219512195122,32.3170731707317 15.701219512195122,32.11382113821138 15.701219512195122,31.859756097560975 15.701219512195122,31.60569105691057 15.701219512195122,31.351626016260163 15.701219512195122,31.046747967479675 15.701219512195122,30.741869918699187 15.701219512195122,30.4369918699187 15.701219512195122,30.08130081300813 15.701219512195122,29.776422764227643 15.701219512195122,29.420731707317074 15.701219512195122,29.115853658536583 15.701219512195122,28.810975609756095 15.701219512195122,28.455284552845526 15.701219512195122,28.15040650406504 15.701219512195122,27.84552845528455 15.701219512195122,27.489837398373982 15.701219512195122,27.184959349593495 15.65040650406504,26.829268292682926 15.65040650406504,26.473577235772357" fill="none" stroke="black" stroke-width="0.6"></polyline><polyline points="15.65040650406504,26.473577235772357 15.59959349593496,26.16869918699187 15.59959349593496,25.76219512195122 15.59959349593496,25.35569105691057 15.548780487804878,25 15.548780487804878,24.64430894308943 15.548780487804878,24.23780487804878 15.548780487804878,23.932926829268293 15.548780487804878,23.577235772357724 15.548780487804878,23.221544715447155 15.548780487804878,22.764227642276424 15.497967479674797,22.30691056910569 15.497967479674797,21.747967479674795 15.447154471544716,21.239837398373982 15.447154471544716,20.78252032520325 15.447154471544716,20.274390243902438 15.396341463414634,19.867886178861788 15.396341463414634,19.461382113821138 15.396341463414634,19.054878048780488 15.396341463414634,18.69918699186992 15.396341463414634,18.34349593495935 15.396341463414634,17.98780487804878 15.396341463414634,17.682926829268293 15.396341463414634,17.327235772357724 15.396341463414634,16.971544715447155 15.396341463414634,16.615853658536587 15.447154471544716,16.260162601626014 15.447154471544716,15.904471544715447 15.497967479674797,15.59959349593496 15.497967479674797,15.294715447154472 15.497967479674797,14.939024390243903 15.497967479674797,14.684959349593496 15.497967479674797,14.48170731707317 15.497967479674797,14.227642276422763 15.497967479674797,14.024390243902438 15.497967479674797,13.871951219512194 15.497967479674797,13.71951219512195 15.497967479674797,13.66869918699187 15.447154471544716,13.617886178861788 15.447154471544716,13.567073170731707 15.447154471544716,13.516260162601625 15.447154471544716,13.465447154471544 15.447154471544716,13.414634146341463 15.447154471544716,13.414634146341463 15.447154471544716,13.363821138211382 15.396341463414634,13.363821138211382 15.396341463414634,13.363821138211382 15.396341463414634,13.3130081300813 15.396341463414634,13.3130081300813 15.396341463414634,13.3130081300813 15.396341463414634,13.3130081300813" fill="none" stroke="black" stroke-width="0.6"></polyline><polyline points="15.396341463414634,13.3130081300813 15.396341463414634,13.3130081300813" fill="none" stroke="black" stroke-width="0.6"></polyline><polyline points="13.008130081300813,16.869918699186993 12.90650406504065,16.869918699186993 12.855691056910569,16.869918699186993 12.754065040650406,16.869918699186993 12.703252032520325,16.920731707317074 12.652439024390244,16.920731707317074 12.652439024390244,16.920731707317074 12.652439024390244,16.920731707317074 12.652439024390244,16.920731707317074 12.652439024390244,16.971544715447155 12.652439024390244,16.971544715447155 12.754065040650406,16.971544715447155 12.804878048780488,16.971544715447155 12.957317073170731,16.971544715447155 13.109756097560975,16.971544715447155 13.3130081300813,16.920731707317074 13.567073170731707,16.920731707317074 13.821138211382113,16.869918699186993 14.176829268292682,16.76829268292683 14.583333333333332,16.71747967479675 14.989837398373984,16.666666666666668 15.447154471544716,16.666666666666668 15.904471544715447,16.666666666666668 16.260162601626014,16.666666666666668 16.666666666666668,16.666666666666668 17.022357723577237,16.666666666666668 17.327235772357724,16.666666666666668 17.58130081300813,16.615853658536587 17.784552845528456,16.565040650406505 17.9369918699187,16.514227642276424 18.038617886178862,16.514227642276424 18.038617886178862,16.514227642276424 18.038617886178862,16.514227642276424 18.038617886178862,16.514227642276424 18.038617886178862,16.514227642276424 17.98780487804878,16.514227642276424 17.98780487804878,16.514227642276424 17.98780487804878,16.514227642276424 17.9369918699187,16.514227642276424 17.88617886178862,16.514227642276424 17.835365853658537,16.514227642276424 17.784552845528456,16.565040650406505" fill="none" stroke="black" stroke-width="0.6"></polyline><polyline points="44.25813008130081,55.233739837398375 44.25813008130081,55.233739837398375 44.25813008130081,55.233739837398375 44.30894308943089,55.18292682926829 44.30894308943089,55.18292682926829 44.30894308943089,55.13211382113821 44.30894308943089,55.13211382113821 44.359756097560975,55.08130081300813 44.359756097560975,55.08130081300813 44.359756097560975,55.03048780487805 44.359756097560975,55.03048780487805 44.359756097560975,55.03048780487805 44.359756097560975,55.03048780487805 44.359756097560975,54.979674796747965 44.359756097560975,54.979674796747965 44.359756097560975,54.979674796747965 44.41056910569105,54.979674796747965 44.41056910569105,55.03048780487805 44.41056910569105,55.13211382113821 44.41056910569105,55.28455284552845 44.46138211382114,55.48780487804878 44.46138211382114,55.792682926829265 44.512195121951216,56.199186991869915 44.5630081300813,56.605691056910565 44.66463414634146,57.0630081300813 44.766260162601625,57.52032520325203 44.86788617886179,57.825203252032516 44.918699186991866,58.079268292682926 44.96951219512195,58.231707317073166 44.96951219512195,58.38414634146341 44.96951219512195,58.43495934959349 44.96951219512195,58.485772357723576 44.96951219512195,58.536585365853654 44.96951219512195,58.536585365853654 44.96951219512195,58.58739837398374 44.96951219512195,58.63821138211382 44.96951219512195,58.63821138211382 44.96951219512195,58.6890243902439 44.96951219512195,58.6890243902439 44.918699186991866,58.6890243902439 44.918699186991866,58.6890243902439 44.918699186991866,58.6890243902439 44.918699186991866,58.6890243902439 44.918699186991866,58.6890243902439 44.918699186991866,58.6890243902439 44.918699186991866,58.6890243902439 44.86788617886179,58.6890243902439 44.86788617886179,58.6890243902439 44.86788617886179,58.63821138211382" fill="none" stroke="black" stroke-width="0.6"></polyline><polyline points="31.30081300813008,59.552845528455286 31.30081300813008,59.552845528455286 31.30081300813008,59.552845528455286 31.30081300813008,59.552845528455286 31.30081300813008,59.552845528455286 31.30081300813008,59.603658536585364 31.30081300813008,59.603658536585364 31.351626016260163,59.603658536585364 31.351626016260163,59.603658536585364 31.402439024390244,59.603658536585364 31.402439024390244,59.603658536585364 31.402439024390244,59.603658536585364 31.453252032520325,59.603658536585364 31.504065040650406,59.603658536585364 31.504065040650406,59.603658536585364 31.554878048780488,59.603658536585364 31.60569105691057,59.603658536585364 31.65650406504065,59.603658536585364 31.758130081300813,59.603658536585364 31.808943089430894,59.603658536585364 31.910569105691057,59.603658536585364 32.0630081300813,59.552845528455286 32.16463414634146,59.552845528455286 32.21544715447154,59.552845528455286 32.266260162601625,59.552845528455286 32.418699186991866,59.552845528455286 32.46951219512195,59.552845528455286 32.57113821138211,59.552845528455286 32.672764227642276,59.552845528455286 32.72357723577236,59.552845528455286 32.82520325203252,59.552845528455286 32.97764227642276,59.5020325203252 33.13008130081301,59.5020325203252 33.28252032520325,59.451219512195124 33.4349593495935,59.40040650406504 33.58739837398374,59.40040650406504 33.790650406504064,59.34959349593496 33.84146341463415,59.298780487804876 33.94308943089431,59.298780487804876 34.09552845528455,59.2479674796748 34.2479674796748,59.197154471544714 34.451219512195124,59.197154471544714 34.5020325203252,59.146341463414636 34.603658536585364,59.146341463414636 34.75609756097561,59.146341463414636 34.80691056910569,59.09552845528455 34.90853658536585,59.09552845528455 35.010162601626014,59.09552845528455 35.16260162601626,59.09552845528455 35.21341463414634,59.09552845528455 35.3150406504065,59.09552845528455" fill="none" stroke="black" stroke-width="0.6"></polyline><polyline points="35.3150406504065,59.09552845528455 35.416666666666664,59.09552845528455 35.56910569105691,59.09552845528455 35.670731707317074,59.146341463414636 35.823170731707314,59.146341463414636 35.97560975609756,59.197154471544714 36.1280487804878,59.2479674796748 36.28048780487805,59.2479674796748 36.33130081300813,59.2479674796748 36.43292682926829,59.298780487804876 36.58536585365854,59.298780487804876 36.6869918699187,59.34959349593496 36.78861788617886,59.34959349593496 36.890243902439025,59.34959349593496 37.042682926829265,59.40040650406504 37.19512195121951,59.40040650406504 37.34756097560975,59.40040650406504 37.55081300813008,59.40040650406504 37.703252032520325,59.40040650406504 37.90650406504065,59.451219512195124 38.109756097560975,59.451219512195124 38.3130081300813,59.451219512195124 38.516260162601625,59.451219512195124 38.77032520325203,59.451219512195124 38.97357723577235,59.451219512195124 39.176829268292686,59.451219512195124 39.38008130081301,59.451219512195124 39.583333333333336,59.451219512195124 39.78658536585366,59.40040650406504 39.989837398373986,59.40040650406504 40.19308943089431,59.34959349593496 40.396341463414636,59.34959349593496 40.59959349593496,59.298780487804876 40.802845528455286,59.298780487804876 41.05691056910569,59.2479674796748 41.260162601626014,59.2479674796748 41.46341463414634,59.197154471544714 41.666666666666664,59.146341463414636 41.86991869918699,59.09552845528455 42.1239837398374,59.04471544715447 42.327235772357724,58.99390243902439 42.53048780487805,58.892276422764226 42.733739837398375,58.84146341463415 42.9369918699187,58.790650406504064 43.140243902439025,58.739837398373986 43.34349593495935,58.6890243902439 43.546747967479675,58.63821138211382 43.75,58.63821138211382 44.0040650406504,58.58739837398374 44.20731707317073,58.58739837398374 44.46138211382114,58.58739837398374" fill="none" stroke="black" stroke-width="0.6"></polyline><polyline points="44.46138211382114,58.58739837398374 44.71544715447154,58.536585365853654 44.96951219512195,58.536585365853654 45.172764227642276,58.485772357723576 45.47764227642276,58.43495934959349 45.68089430894309,58.43495934959349 45.9349593495935,58.43495934959349 46.1890243902439,58.38414634146341 46.44308943089431,58.38414634146341 46.697154471544714,58.38414634146341 46.951219512195124,58.38414634146341 47.20528455284553,58.38414634146341 47.510162601626014,58.38414634146341 47.8150406504065,58.38414634146341 48.06910569105691,58.38414634146341 48.323170731707314,58.38414634146341 48.6280487804878,58.38414634146341 48.93292682926829,58.38414634146341 49.23780487804878,58.33333333333333 49.542682926829265,58.33333333333333 49.84756097560975,58.33333333333333 50.15243902439024,58.28252032520325 50.50813008130081,58.231707317073166 50.8130081300813,58.231707317073166 51.168699186991866,58.130081300813 51.52439024390244,58.130081300813 51.880081300813,58.079268292682926 52.235772357723576,58.02845528455284 52.59146341463415,57.97764227642276 52.947154471544714,57.92682926829268 53.302845528455286,57.92682926829268 53.65853658536585,57.8760162601626 54.014227642276424,57.8760162601626 54.36991869918699,57.825203252032516 54.72560975609756,57.77439024390244 55.08130081300813,57.672764227642276 55.4369918699187,57.62195121951219 55.84349593495935,57.52032520325203 56.199186991869915,57.418699186991866 56.55487804878049,57.36788617886179 56.96138211382114,57.266260162601625 57.3170731707317,57.21544715447154 57.672764227642276,57.16463414634146 58.02845528455284,57.16463414634146 58.43495934959349,57.11382113821138 58.84146341463415,57.11382113821138 59.2479674796748,57.11382113821138 59.603658536585364,57.0630081300813 60.0609756097561,57.0630081300813 60.46747967479675,57.0630081300813 60.8739837398374,57.0630081300813" fill="none" stroke="black" stroke-width="0.6"></polyline><polyline points="60.8739837398374,57.0630081300813 61.28048780487805,57.012195121951216 61.73780487804878,57.012195121951216 62.14430894308943,57.012195121951216 62.60162601626016,56.96138211382114 63.05894308943089,56.91056910569105 63.516260162601625,56.859756097560975 63.97357723577235,56.80894308943089 64.43089430894308,56.75813008130081 64.88821138211382,56.65650406504065 65.39634146341463,56.605691056910565 65.85365853658537,56.5040650406504 66.3109756097561,56.453252032520325 66.8191056910569,56.35162601626016 67.27642276422765,56.25 67.73373983739837,56.14837398373984 68.24186991869918,56.09756097560975 68.69918699186992,55.99593495934959 69.15650406504065,55.94512195121951 69.66463414634146,55.89430894308943 70.0711382113821,55.792682926829265 70.47764227642276,55.74186991869919 70.9349593495935,55.640243902439025 71.29065040650406,55.58943089430894 71.64634146341463,55.48780487804878 72.0020325203252,55.4369918699187 72.2560975609756,55.386178861788615 72.5609756097561,55.33536585365854 72.8150406504065,55.33536585365854 73.01829268292683,55.28455284552845 73.22154471544715,55.28455284552845 73.3739837398374,55.28455284552845 73.47560975609755,55.28455284552845 73.52642276422765,55.28455284552845 73.57723577235772,55.28455284552845 73.57723577235772,55.28455284552845 73.57723577235772,55.28455284552845 73.57723577235772,55.28455284552845 73.57723577235772,55.28455284552845 73.57723577235772,55.28455284552845 73.52642276422765,55.28455284552845 73.52642276422765,55.28455284552845 73.52642276422765,55.28455284552845 73.47560975609755,55.28455284552845 73.47560975609755,55.28455284552845 73.47560975609755,55.28455284552845 73.47560975609755,55.28455284552845 73.47560975609755,55.28455284552845" fill="none" stroke="black" stroke-width="0.6"></polyline><polyline points="68.75,54.67479674796748 68.75,54.67479674796748 68.69918699186992,54.67479674796748 68.69918699186992,54.6239837398374 68.69918699186992,54.6239837398374 68.69918699186992,54.6239837398374 68.69918699186992,54.6239837398374 68.64837398373983,54.573170731707314 68.64837398373983,54.573170731707314 68.64837398373983,54.573170731707314 68.64837398373983,54.52235772357724 68.64837398373983,54.52235772357724 68.64837398373983,54.52235772357724 68.64837398373983,54.52235772357724 68.64837398373983,54.52235772357724 68.64837398373983,54.47154471544715 68.64837398373983,54.47154471544715 68.64837398373983,54.47154471544715 68.64837398373983,54.47154471544715 68.64837398373983,54.47154471544715 68.64837398373983,54.47154471544715 68.64837398373983,54.47154471544715 68.64837398373983,54.47154471544715 68.64837398373983,54.47154471544715 68.64837398373983,54.6239837398374 68.64837398373983,54.92886178861789 68.69918699186992,55.48780487804878 68.80081300813008,56.199186991869915 68.95325203252033,57.012195121951216 69.05487804878048,57.77439024390244 69.20731707317073,58.38414634146341 69.2581300813008,58.790650406504064 69.3089430894309,59.09552845528455 69.35975609756098,59.40040650406504 69.35975609756098,59.552845528455286 69.35975609756098,59.70528455284553 69.35975609756098,59.80691056910569 69.35975609756098,59.857723577235774 69.35975609756098,59.857723577235774 69.35975609756098,59.90853658536585 69.35975609756098,59.90853658536585 69.35975609756098,59.90853658536585 69.35975609756098,59.90853658536585 69.35975609756098,59.90853658536585 69.35975609756098,59.90853658536585 69.35975609756098,59.857723577235774 69.35975609756098,59.857723577235774 69.3089430894309,59.80691056910569 69.2581300813008,59.75609756097561 69.2581300813008,59.603658536585364 69.20731707317073,59.40040650406504" fill="none" stroke="black" stroke-width="0.6"></polyline><polyline points="69.20731707317073,59.40040650406504" fill="none" stroke="black" stroke-width="0.6"></polyline><polyline points="21.849593495934958,29.471544715447155 21.849593495934958,29.471544715447155 21.798780487804876,29.471544715447155 21.747967479674795,29.522357723577237 21.697154471544714,29.522357723577237 21.697154471544714,29.522357723577237 21.646341463414632,29.522357723577237 21.646341463414632,29.522357723577237 21.646341463414632,29.522357723577237 21.646341463414632,29.471544715447155 21.646341463414632,29.420731707317074 21.697154471544714,29.369918699186993 21.747967479674795,29.268292682926827 21.798780487804876,29.217479674796746 21.849593495934958,29.0650406504065 21.95121951219512,28.912601626016258 22.103658536585364,28.709349593495933 22.30691056910569,28.455284552845526 22.510162601626014,28.15040650406504 22.815040650406505,27.693089430894307 23.119918699186993,27.235772357723576 23.42479674796748,26.778455284552845 23.729674796747968,26.321138211382113 24.034552845528456,25.914634146341463 24.288617886178862,25.558943089430894 24.491869918699187,25.304878048780488 24.695121951219512,25.101626016260163 24.796747967479675,25 24.94918699186992,24.94918699186992 25,24.94918699186992 25.05081300813008,24.94918699186992 25.05081300813008,24.94918699186992 25.05081300813008,24.94918699186992 25.05081300813008,24.94918699186992 25.05081300813008,24.94918699186992 25.05081300813008,24.94918699186992 25.05081300813008,24.94918699186992 25.05081300813008,24.94918699186992 25,24.94918699186992 25,24.94918699186992 25,24.94918699186992 25,25 25,25.05081300813008" fill="none" stroke="black" stroke-width="0.6"></polyline><polyline points="24.085365853658537,30.691056910569106 24.085365853658537,30.691056910569106 24.085365853658537,30.640243902439025 24.085365853658537,30.589430894308943 24.085365853658537,30.538617886178862 24.13617886178862,30.48780487804878 24.13617886178862,30.4369918699187 24.1869918699187,30.38617886178862 24.1869918699187,30.335365853658537 24.23780487804878,30.284552845528456 24.288617886178862,30.233739837398375 24.339430894308943,30.132113821138212 24.390243902439025,30.08130081300813 24.441056910569106,30.03048780487805 24.491869918699187,29.928861788617887 24.59349593495935,29.827235772357724 24.745934959349594,29.6239837398374 24.898373983739837,29.420731707317074 25.101626016260163,29.217479674796746 25.304878048780488,28.912601626016258 25.558943089430894,28.60772357723577 25.86382113821138,28.2520325203252 26.16869918699187,27.79471544715447 26.473577235772357,27.38821138211382 26.727642276422763,26.98170731707317 27.03252032520325,26.6260162601626 27.235772357723576,26.422764227642276 27.489837398373982,26.21951219512195 27.693089430894307,26.016260162601625 27.84552845528455,25.8130081300813 27.997967479674795,25.660569105691057 28.099593495934958,25.508130081300813 28.20121951219512,25.40650406504065 28.2520325203252,25.35569105691057 28.2520325203252,25.35569105691057 28.2520325203252,25.35569105691057 28.2520325203252,25.35569105691057 28.2520325203252,25.35569105691057 28.20121951219512,25.35569105691057 28.15040650406504,25.40650406504065 28.15040650406504,25.40650406504065 28.15040650406504,25.45731707317073 28.15040650406504,25.45731707317073 28.15040650406504,25.508130081300813" fill="none" stroke="black" stroke-width="0.6"></polyline><polyline points="26.371951219512194,33.4349593495935 26.371951219512194,33.4349593495935 26.371951219512194,33.4349593495935 26.371951219512194,33.38414634146341 26.371951219512194,33.38414634146341 26.371951219512194,33.333333333333336 26.371951219512194,33.333333333333336 26.371951219512194,33.28252032520325 26.422764227642276,33.18089430894309 26.473577235772357,33.02845528455285 26.57520325203252,32.8760162601626 26.727642276422763,32.6219512195122 26.93089430894309,32.36788617886179 27.184959349593495,32.012195121951216 27.4390243902439,31.60569105691057 27.74390243902439,31.19918699186992 28.048780487804876,30.84349593495935 28.353658536585364,30.38617886178862 28.65853658536585,30.03048780487805 28.96341463414634,29.67479674796748 29.268292682926827,29.268292682926827 29.573170731707318,28.861788617886177 29.928861788617887,28.506097560975608 30.284552845528456,28.099593495934958 30.589430894308943,27.79471544715447 30.89430894308943,27.4390243902439 31.148373983739837,27.134146341463413 31.402439024390244,26.93089430894309 31.60569105691057,26.727642276422763 31.758130081300813,26.57520325203252 31.910569105691057,26.473577235772357 32.012195121951216,26.371951219512194 32.16463414634146,26.21951219512195 32.266260162601625,26.117886178861788 32.36788617886179,26.016260162601625 32.46951219512195,25.86382113821138 32.57113821138211,25.76219512195122 32.672764227642276,25.660569105691057 32.672764227642276,25.609756097560975 32.672764227642276,25.609756097560975 32.672764227642276,25.609756097560975 32.672764227642276,25.609756097560975 32.672764227642276,25.609756097560975 32.672764227642276,25.660569105691057 32.672764227642276,25.660569105691057 32.672764227642276,25.660569105691057 32.672764227642276,25.660569105691057 32.72357723577236,25.609756097560975 32.82520325203252,25.508130081300813 32.8760162601626,25.45731707317073 32.97764227642276,25.35569105691057" fill="none" stroke="black" stroke-width="0.6"></polyline><polyline points="32.97764227642276,25.35569105691057 33.02845528455285,25.304878048780488 33.079268292682926,25.254065040650406 33.079268292682926,25.254065040650406 33.13008130081301,25.203252032520325 33.13008130081301,25.203252032520325 33.13008130081301,25.203252032520325" fill="none" stroke="black" stroke-width="0.6"></polyline><polyline points="29.217479674796746,34.90853658536585 29.217479674796746,34.90853658536585 29.217479674796746,34.90853658536585 29.217479674796746,34.90853658536585 29.217479674796746,34.90853658536585 29.217479674796746,34.857723577235774 29.217479674796746,34.857723577235774 29.217479674796746,34.80691056910569 29.217479674796746,34.70528455284553 29.268292682926827,34.603658536585364 29.369918699186993,34.451219512195124 29.573170731707318,34.197154471544714 29.776422764227643,33.84146341463415 30.03048780487805,33.485772357723576 30.335365853658537,32.97764227642276 30.741869918699187,32.46951219512195 31.097560975609756,31.910569105691057 31.504065040650406,31.351626016260163 32.012195121951216,30.79268292682927 32.418699186991866,30.284552845528456 32.8760162601626,29.878048780487806 33.23170731707317,29.471544715447155 33.58739837398374,29.115853658536583 33.94308943089431,28.810975609756095 34.2479674796748,28.455284552845526 34.603658536585364,28.099593495934958 34.90853658536585,27.74390243902439 35.21341463414634,27.4390243902439 35.416666666666664,27.184959349593495 35.61991869918699,27.03252032520325 35.77235772357724,26.880081300813007 35.8739837398374,26.778455284552845 35.92479674796748,26.727642276422763 35.97560975609756,26.676829268292682 36.02642276422764,26.6260162601626 36.02642276422764,26.57520325203252 36.077235772357724,26.524390243902438 36.1280487804878,26.473577235772357 36.1280487804878,26.473577235772357 36.1280487804878,26.422764227642276 36.1280487804878,26.422764227642276 36.1280487804878,26.422764227642276 36.1280487804878,26.422764227642276 36.1280487804878,26.422764227642276 36.1280487804878,26.422764227642276 36.1280487804878,26.371951219512194 36.17886178861789,26.321138211382113 36.28048780487805,26.16869918699187 36.38211382113821,26.067073170731707 36.43292682926829,25.965447154471544 36.53455284552845,25.86382113821138" fill="none" stroke="black" stroke-width="0.6"></polyline><polyline points="36.53455284552845,25.86382113821138 36.58536585365854,25.8130081300813 36.636178861788615,25.76219512195122 36.6869918699187,25.711382113821138 36.73780487804878,25.660569105691057 36.78861788617886,25.558943089430894 36.890243902439025,25.508130081300813 36.9410569105691,25.40650406504065 36.99186991869919,25.35569105691057 37.042682926829265,25.254065040650406 37.09349593495935,25.254065040650406 37.09349593495935,25.254065040650406 37.09349593495935,25.203252032520325 37.09349593495935,25.203252032520325 37.09349593495935,25.203252032520325 37.09349593495935,25.203252032520325 37.09349593495935,25.254065040650406 37.09349593495935,25.254065040650406" fill="none" stroke="black" stroke-width="0.6"></polyline><polyline points="32.266260162601625,36.53455284552845 32.266260162601625,36.53455284552845 32.266260162601625,36.53455284552845 32.266260162601625,36.53455284552845 32.21544715447154,36.53455284552845 32.21544715447154,36.53455284552845 32.21544715447154,36.53455284552845 32.16463414634146,36.53455284552845 32.16463414634146,36.53455284552845 32.16463414634146,36.53455284552845 32.16463414634146,36.53455284552845 32.16463414634146,36.53455284552845 32.16463414634146,36.53455284552845 32.16463414634146,36.53455284552845 32.16463414634146,36.53455284552845 32.16463414634146,36.53455284552845 32.16463414634146,36.483739837398375 32.16463414634146,36.43292682926829 32.21544715447154,36.33130081300813 32.3170731707317,36.17886178861789 32.46951219512195,35.97560975609756 32.672764227642276,35.670731707317074 32.926829268292686,35.3150406504065 33.23170731707317,34.90853658536585 33.53658536585366,34.5020325203252 33.94308943089431,34.09552845528455 34.2479674796748,33.739837398373986 34.65447154471545,33.333333333333336 35.010162601626014,32.926829268292686 35.3150406504065,32.57113821138211 35.61991869918699,32.21544715447154 35.92479674796748,31.859756097560975 36.17886178861789,31.60569105691057 36.38211382113821,31.351626016260163 36.636178861788615,31.097560975609756 36.78861788617886,30.89430894308943 36.99186991869919,30.741869918699187 37.14430894308943,30.538617886178862 37.296747967479675,30.38617886178862 37.39837398373984,30.284552845528456 37.5,30.182926829268293 37.55081300813008,30.132113821138212 37.55081300813008,30.08130081300813 37.60162601626016,30.03048780487805 37.60162601626016,30.03048780487805 37.60162601626016,29.979674796747968 37.60162601626016,29.979674796747968 37.60162601626016,29.928861788617887 37.60162601626016,29.928861788617887 37.65243902439024,29.878048780487806 37.65243902439024,29.827235772357724" fill="none" stroke="black" stroke-width="0.6"></polyline><polyline points="37.65243902439024,29.827235772357724 37.7540650406504,29.725609756097562 37.80487804878049,29.6239837398374 37.90650406504065,29.522357723577237 38.05894308943089,29.420731707317074 38.16056910569105,29.268292682926827 38.262195121951216,29.166666666666664 38.36382113821138,29.115853658536583 38.46544715447154,29.0650406504065 38.46544715447154,29.01422764227642 38.516260162601625,29.01422764227642 38.516260162601625,29.01422764227642 38.516260162601625,29.01422764227642 38.516260162601625,29.01422764227642 38.516260162601625,29.01422764227642 38.46544715447154,29.01422764227642 38.46544715447154,29.01422764227642 38.46544715447154,29.0650406504065 38.46544715447154,29.0650406504065 38.46544715447154,29.0650406504065 38.46544715447154,29.0650406504065 38.46544715447154,29.0650406504065 38.46544715447154,29.0650406504065 38.46544715447154,29.0650406504065 38.46544715447154,29.0650406504065" fill="none" stroke="black" stroke-width="0.6"></polyline><polyline points="45.02032520325203,44.41056910569105 45.02032520325203,44.41056910569105 45.02032520325203,44.41056910569105 45.02032520325203,44.41056910569105 45.02032520325203,44.41056910569105 45.02032520325203,44.359756097560975 45.02032520325203,44.359756097560975 45.02032520325203,44.359756097560975 45.02032520325203,44.359756097560975 45.02032520325203,44.359756097560975 45.02032520325203,44.359756097560975 45.02032520325203,44.359756097560975 45.02032520325203,44.359756097560975 45.02032520325203,44.359756097560975 45.02032520325203,44.359756097560975 45.02032520325203,44.359756097560975 45.02032520325203,44.30894308943089 45.02032520325203,44.30894308943089 45.07113821138211,44.25813008130081 45.172764227642276,44.20731707317073 45.27439024390244,44.15650406504065 45.42682926829268,44.0040650406504 45.63008130081301,43.85162601626016 45.88414634146341,43.59756097560975 46.1890243902439,43.292682926829265 46.59552845528455,42.9369918699187 46.90040650406504,42.63211382113821 47.20528455284553,42.327235772357724 47.459349593495936,42.073170731707314 47.61178861788618,41.920731707317074 47.71341463414634,41.81910569105691 47.8150406504065,41.76829268292683 47.8150406504065,41.76829268292683 47.8150406504065,41.76829268292683 47.8150406504065,41.76829268292683 47.8150406504065,41.76829268292683 47.8150406504065,41.76829268292683 47.764227642276424,41.76829268292683 47.764227642276424,41.76829268292683 47.764227642276424,41.76829268292683 47.764227642276424,41.76829268292683 47.764227642276424,41.76829268292683 47.764227642276424,41.76829268292683 47.764227642276424,41.81910569105691 47.764227642276424,41.86991869918699" fill="none" stroke="black" stroke-width="0.6"></polyline><polyline points="47.8150406504065,46.290650406504064 47.764227642276424,46.290650406504064 47.764227642276424,46.290650406504064 47.71341463414634,46.290650406504064 47.71341463414634,46.290650406504064 47.66260162601626,46.290650406504064 47.66260162601626,46.290650406504064 47.61178861788618,46.239837398373986 47.61178861788618,46.239837398373986 47.61178861788618,46.239837398373986 47.61178861788618,46.239837398373986 47.61178861788618,46.239837398373986 47.61178861788618,46.239837398373986 47.5609756097561,46.239837398373986 47.5609756097561,46.239837398373986 47.5609756097561,46.239837398373986 47.5609756097561,46.239837398373986 47.5609756097561,46.239837398373986 47.5609756097561,46.239837398373986 47.5609756097561,46.1890243902439 47.5609756097561,46.1890243902439 47.61178861788618,46.13821138211382 47.61178861788618,46.08739837398374 47.71341463414634,46.03658536585366 47.8150406504065,45.9349593495935 47.96747967479675,45.78252032520325 48.11991869918699,45.63008130081301 48.323170731707314,45.3760162601626 48.577235772357724,45.12195121951219 48.83130081300813,44.766260162601625 49.136178861788615,44.512195121951216 49.4410569105691,44.15650406504065 49.796747967479675,43.85162601626016 50.10162601626016,43.546747967479675 50.355691056910565,43.292682926829265 50.66056910569105,43.03861788617886 50.86382113821138,42.78455284552845 51.0670731707317,42.58130081300813 51.27032520325203,42.327235772357724 51.47357723577235,42.073170731707314 51.6260162601626,41.920731707317074 51.72764227642276,41.76829268292683 51.829268292682926,41.666666666666664 51.829268292682926,41.61585365853659 51.880081300813,41.61585365853659 51.880081300813,41.61585365853659 51.880081300813,41.61585365853659 51.880081300813,41.61585365853659 51.829268292682926,41.61585365853659 51.829268292682926,41.61585365853659 51.829268292682926,41.61585365853659" fill="none" stroke="black" stroke-width="0.6"></polyline><polyline points="51.829268292682926,41.61585365853659 51.829268292682926,41.61585365853659 51.829268292682926,41.5650406504065 51.77845528455284,41.5650406504065 51.77845528455284,41.5650406504065 51.77845528455284,41.5650406504065 51.77845528455284,41.5650406504065 51.77845528455284,41.666666666666664 51.77845528455284,41.71747967479675" fill="none" stroke="black" stroke-width="0.6"></polyline><polyline points="51.0670731707317,48.27235772357724 51.0670731707317,48.27235772357724 51.0670731707317,48.27235772357724 51.016260162601625,48.27235772357724 50.96544715447154,48.27235772357724 50.96544715447154,48.22154471544715 50.96544715447154,48.22154471544715 50.96544715447154,48.22154471544715 50.91463414634146,48.22154471544715 50.91463414634146,48.170731707317074 50.91463414634146,48.170731707317074 50.91463414634146,48.11991869918699 50.91463414634146,48.11991869918699 50.96544715447154,48.06910569105691 50.96544715447154,48.01829268292683 51.016260162601625,47.96747967479675 51.11788617886179,47.86585365853659 51.21951219512195,47.764227642276424 51.422764227642276,47.5609756097561 51.6260162601626,47.25609756097561 51.93089430894309,46.90040650406504 52.33739837398374,46.49390243902439 52.79471544715447,46.03658536585366 53.2520325203252,45.579268292682926 53.709349593495936,45.07113821138211 54.0650406504065,44.66463414634146 54.420731707317074,44.25813008130081 54.77642276422764,43.90243902439024 55.13211382113821,43.546747967479675 55.4369918699187,43.24186991869919 55.74186991869919,42.9369918699187 55.94512195121951,42.68292682926829 56.09756097560975,42.53048780487805 56.25,42.3780487804878 56.35162601626016,42.327235772357724 56.40243902439024,42.22560975609756 56.40243902439024,42.17479674796748 56.453252032520325,42.17479674796748 56.453252032520325,42.17479674796748 56.453252032520325,42.17479674796748 56.453252032520325,42.17479674796748 56.453252032520325,42.17479674796748 56.453252032520325,42.17479674796748 56.453252032520325,42.17479674796748 56.453252032520325,42.17479674796748 56.453252032520325,42.22560975609756 56.453252032520325,42.27642276422764 56.453252032520325,42.327235772357724 56.453252032520325,42.3780487804878" fill="none" stroke="black" stroke-width="0.6"></polyline><polyline points="54.77642276422764,49.89837398373984 54.77642276422764,49.84756097560975 54.77642276422764,49.796747967479675 54.72560975609756,49.796747967479675 54.72560975609756,49.74593495934959 54.72560975609756,49.64430894308943 54.77642276422764,49.59349593495935 54.827235772357724,49.542682926829265 54.8780487804878,49.4410569105691 54.979674796747965,49.33943089430894 55.08130081300813,49.23780487804878 55.18292682926829,49.136178861788615 55.28455284552845,48.983739837398375 55.4369918699187,48.83130081300813 55.640243902439025,48.6280487804878 55.89430894308943,48.3739837398374 56.14837398373984,48.01829268292683 56.453252032520325,47.66260162601626 56.80894308943089,47.30691056910569 57.11382113821138,46.90040650406504 57.418699186991866,46.54471544715447 57.72357723577235,46.239837398373986 58.079268292682926,45.9349593495935 58.38414634146341,45.63008130081301 58.6890243902439,45.42682926829268 58.94308943089431,45.172764227642276 59.197154471544714,45.02032520325203 59.34959349593496,44.86788617886179 59.5020325203252,44.71544715447154 59.603658536585364,44.61382113821138 59.65447154471545,44.5630081300813 59.70528455284553,44.46138211382114 59.75609756097561,44.46138211382114 59.75609756097561,44.41056910569105 59.75609756097561,44.41056910569105 59.75609756097561,44.41056910569105 59.75609756097561,44.41056910569105 59.75609756097561,44.41056910569105 59.75609756097561,44.41056910569105" fill="none" stroke="black" stroke-width="0.6"></polyline></svg>