<svg height="100" width="100" preserveAspectRatio="xMidYMid meet"><polyline points="12.90650406504065,5.995934959349594 12.90650406504065,5.995934959349594 12.90650406504065,5.995934959349594 12.855691056910569,5.995934959349594 12.855691056910569,5.945121951219512 12.855691056910569,5.945121951219512 12.804878048780488,5.945121951219512 12.804878048780488,5.945121951219512 12.804878048780488,5.945121951219512 12.804878048780488,5.945121951219512 12.804878048780488,5.945121951219512 12.855691056910569,5.894308943089431 12.957317073170731,5.84349593495935 13.058943089430894,5.7926829268292686 13.211382113821138,5.741869918699187 13.414634146341463,5.640243902439024 13.617886178861788,5.589430894308943 13.922764227642276,5.538617886178861 14.227642276422763,5.538617886178861 14.634146341463413,5.48780487804878 15.040650406504065,5.48780487804878 15.447154471544716,5.48780487804878 15.904471544715447,5.48780487804878 16.209349593495933,5.48780487804878 16.514227642276424,5.48780487804878 16.81910569105691,5.48780487804878 16.971544715447155,5.48780487804878 17.1239837398374,5.538617886178861 17.276422764227643,5.640243902439024 17.327235772357724,5.741869918699187 17.378048780487806,5.84349593495935 17.428861788617887,6.046747967479675 17.428861788617887,6.25 17.428861788617887,6.504065040650406 17.276422764227643,6.859756097560975 17.073170731707318,7.215447154471544 16.76829268292683,7.621951219512195 16.36178861788618,8.028455284552845 15.955284552845528,8.384146341463415 15.59959349593496,8.790650406504065 15.142276422764228,9.146341463414634 14.786585365853659,9.40040650406504 14.48170731707317,9.603658536585366 14.176829268292682,9.80691056910569 13.973577235772357,9.908536585365853 13.821138211382113,10.010162601626016 13.71951219512195,10.060975609756097 13.66869918699187,10.060975609756097 13.66869918699187,10.111788617886178 13.66869918699187,10.111788617886178 13.71951219512195,10.111788617886178" fill="none" stroke="black" stroke-width="0.6"></polyline><polyline points="13.71951219512195,10.111788617886178 13.770325203252032,10.111788617886178 13.922764227642276,10.213414634146341 14.1260162601626,10.365853658536585 14.430894308943088,10.518292682926829 14.786585365853659,10.772357723577235 15.142276422764228,10.97560975609756 15.59959349593496,11.229674796747966 16.10772357723577,11.382113821138212 16.666666666666668,11.534552845528456 17.17479674796748,11.585365853658537 17.682926829268293,11.585365853658537 18.038617886178862,11.585365853658537 18.34349593495935,11.585365853658537 18.546747967479675,11.534552845528456 18.648373983739837,11.534552845528456 18.69918699186992,11.534552845528456 18.69918699186992,11.534552845528456 18.69918699186992,11.534552845528456 18.69918699186992,11.534552845528456 18.69918699186992,11.534552845528456 18.69918699186992,11.534552845528456 18.69918699186992,11.534552845528456 18.69918699186992,11.534552845528456 18.69918699186992,11.534552845528456" fill="none" stroke="black" stroke-width="0.6"></polyline><polyline points="31.859756097560975,6.808943089430894 31.758130081300813,6.758130081300813 31.70731707317073,6.7073170731707314 31.70731707317073,6.65650406504065 31.70731707317073,6.65650406504065 31.70731707317073,6.65650406504065 31.70731707317073,6.65650406504065 31.758130081300813,6.7073170731707314 31.910569105691057,6.859756097560975 32.11382113821138,7.164634146341463 32.418699186991866,7.571138211382114 32.672764227642276,8.079268292682926 33.02845528455285,8.739837398373984 33.38414634146341,9.34959349593496 33.63821138211382,9.80691056910569 33.790650406504064,10.111788617886178 33.94308943089431,10.315040650406504 33.99390243902439,10.416666666666666 34.09552845528455,10.56910569105691 34.146341463414636,10.619918699186991 34.197154471544714,10.670731707317072 34.298780487804876,10.721544715447154 34.34959349593496,10.721544715447154" fill="none" stroke="black" stroke-width="0.6"></polyline><polyline points="35.21341463414634,6.504065040650406 35.21341463414634,6.504065040650406 35.16260162601626,6.402439024390244 35.16260162601626,6.3516260162601625 35.11178861788618,6.3516260162601625 35.11178861788618,6.3516260162601625 35.11178861788618,6.3516260162601625 35.11178861788618,6.3516260162601625 35.11178861788618,6.453252032520325 35.11178861788618,6.605691056910569 35.16260162601626,6.9105691056910565 35.16260162601626,7.317073170731707 35.11178861788618,7.82520325203252 34.959349593495936,8.536585365853659 34.80691056910569,9.34959349593496 34.65447154471545,10.264227642276422 34.451219512195124,11.178861788617885 34.34959349593496,11.941056910569106 34.2479674796748,12.398373983739837 34.2479674796748,12.703252032520325 34.197154471544714,12.90650406504065 34.197154471544714,13.109756097560975 34.197154471544714,13.3130081300813 34.197154471544714,13.516260162601625 34.197154471544714,13.617886178861788 34.197154471544714,13.617886178861788 34.197154471544714,13.617886178861788 34.298780487804876,13.617886178861788 34.34959349593496,13.617886178861788" fill="none" stroke="black" stroke-width="0.6"></polyline><polyline points="46.84959349593496,7.012195121951219 46.798780487804876,7.012195121951219 46.697154471544714,6.9105691056910565 46.697154471544714,6.9105691056910565 46.697154471544714,6.9105691056910565 46.697154471544714,6.9105691056910565 46.798780487804876,7.0630081300813 47.052845528455286,7.317073170731707 47.357723577235774,7.6727642276422765 47.764227642276424,8.130081300813007 48.323170731707314,8.790650406504065 49.03455284552845,9.552845528455284 49.69512195121951,10.16260162601626 50.2540650406504,10.670731707317072 50.71138211382114,11.026422764227641 51.0670731707317,11.280487804878048 51.37195121951219,11.483739837398375 51.6260162601626,11.636178861788618 51.77845528455284,11.788617886178862 51.981707317073166,11.839430894308943 52.083333333333336,11.890243902439025 52.13414634146341,11.941056910569106" fill="none" stroke="black" stroke-width="0.6"></polyline><polyline points="47.71341463414634,12.804878048780488 47.71341463414634,12.754065040650406 47.71341463414634,12.601626016260163 47.71341463414634,12.449186991869919 47.8150406504065,12.245934959349594 48.01829268292683,11.839430894308943 48.27235772357724,11.331300813008129 48.67886178861789,10.670731707317072 49.136178861788615,9.857723577235772 49.49186991869919,9.247967479674797 49.84756097560975,8.739837398373984 50.10162601626016,8.333333333333334 50.2540650406504,8.130081300813007 50.40650406504065,7.926829268292683 50.55894308943089,7.774390243902439 50.762195121951216,7.621951219512195 50.86382113821138,7.469512195121951 51.016260162601625,7.367886178861789 51.11788617886179,7.266260162601625 51.168699186991866,7.164634146341463 51.27032520325203,7.0630081300813 51.37195121951219,6.961382113821138 51.422764227642276,6.859756097560975 51.52439024390244,6.808943089430894 51.575203252032516,6.758130081300813 51.72764227642276,6.758130081300813" fill="none" stroke="black" stroke-width="0.6"></polyline><polyline points="63.00813008130081,7.520325203252033 62.90650406504065,7.469512195121951 62.855691056910565,7.41869918699187 62.80487804878049,7.367886178861789 62.7540650406504,7.367886178861789 62.7540650406504,7.367886178861789 62.703252032520325,7.367886178861789 62.703252032520325,7.317073170731707 62.65243902439024,7.317073170731707 62.65243902439024,7.317073170731707 62.65243902439024,7.317073170731707 62.65243902439024,7.317073170731707 62.65243902439024,7.317073170731707 62.65243902439024,7.317073170731707 62.65243902439024,7.317073170731707 62.65243902439024,7.317073170731707 62.65243902439024,7.317073170731707 62.65243902439024,7.317073170731707 62.65243902439024,7.317073170731707 62.65243902439024,7.317073170731707 62.65243902439024,7.317073170731707 62.65243902439024,7.317073170731707 62.65243902439024,7.266260162601625 62.65243902439024,7.266260162601625 62.65243902439024,7.215447154471544 62.65243902439024,7.215447154471544 62.65243902439024,7.164634146341463 62.65243902439024,7.164634146341463 62.65243902439024,7.164634146341463 62.65243902439024,7.113821138211382 62.65243902439024,7.113821138211382 62.65243902439024,7.113821138211382 62.65243902439024,7.113821138211382 62.65243902439024,7.113821138211382 62.65243902439024,7.0630081300813 62.65243902439024,7.0630081300813 62.65243902439024,7.0630081300813 62.703252032520325,7.164634146341463 62.7540650406504,7.367886178861789 62.855691056910565,7.82520325203252 63.00813008130081,8.434959349593496 63.16056910569105,9.197154471544716 63.36382113821138,10.010162601626016 63.5670731707317,10.721544715447154 63.77032520325203,11.178861788617885 63.97357723577235,11.483739837398375 64.1260162601626,11.636178861788618 64.27845528455285,11.6869918699187 64.380081300813,11.737804878048781 64.48170731707317,11.788617886178862 64.58333333333333,11.788617886178862" fill="none" stroke="black" stroke-width="0.6"></polyline><polyline points="64.58333333333333,11.788617886178862 64.6341463414634,11.788617886178862 64.6849593495935,11.788617886178862 64.6849593495935,11.788617886178862 64.73577235772358,11.6869918699187 64.78658536585365,11.534552845528456 64.83739837398373,11.280487804878048 64.9390243902439,10.823170731707316 65.09146341463415,10.264227642276422 65.1930894308943,9.654471544715447 65.29471544715447,9.044715447154472 65.39634146341463,8.485772357723578 65.44715447154472,8.079268292682926 65.44715447154472,7.774390243902439 65.44715447154472,7.6727642276422765 65.44715447154472,7.6727642276422765 65.44715447154472,7.6727642276422765 65.44715447154472,7.6727642276422765 65.44715447154472,7.6727642276422765 65.44715447154472,7.723577235772358 65.44715447154472,7.82520325203252 65.54878048780488,7.977642276422764 65.70121951219512,8.333333333333334 65.90447154471545,8.892276422764228 66.10772357723577,9.502032520325203 66.36178861788618,10.213414634146341 66.66666666666667,10.823170731707316 66.97154471544715,11.280487804878048 67.27642276422765,11.585365853658537 67.53048780487805,11.6869918699187 67.78455284552845,11.6869918699187 67.98780487804878,11.6869918699187 68.08943089430895,11.6869918699187 68.24186991869918,11.534552845528456 68.34349593495935,11.382113821138212 68.4451219512195,11.280487804878048 68.54674796747967,10.97560975609756 68.69918699186992,10.467479674796747 68.85162601626016,9.80691056910569 69.0040650406504,8.99390243902439 69.10569105691057,8.028455284552845 69.15650406504065,7.215447154471544 69.15650406504065,6.504065040650406 69.15650406504065,5.945121951219512 69.05487804878048,5.589430894308943 68.95325203252033,5.335365853658536 68.85162601626016,5.132113821138211 68.80081300813008,5.08130081300813 68.75,5.08130081300813 68.75,5.08130081300813 68.75,5.08130081300813" fill="none" stroke="black" stroke-width="0.6"></polyline><polyline points="68.75,5.08130081300813 68.75,5.08130081300813 68.75,5.08130081300813 68.75,5.132113821138211 68.75,5.132113821138211 68.75,5.132113821138211 68.75,5.132113821138211 68.75,5.132113821138211 68.75,5.132113821138211 68.75,5.132113821138211 68.80081300813008,5.182926829268292 68.85162601626016,5.233739837398374 68.90243902439025,5.335365853658536" fill="none" stroke="black" stroke-width="0.6"></polyline><polyline points="79.6239837398374,7.926829268292683 79.6239837398374,7.876016260162602 79.52235772357723,7.774390243902439 79.42073170731707,7.723577235772358 79.3191056910569,7.621951219512195 79.3191056910569,7.621951219512195 79.26829268292683,7.571138211382114 79.26829268292683,7.571138211382114 79.26829268292683,7.571138211382114 79.3191056910569,7.571138211382114 79.42073170731707,7.723577235772358 79.67479674796748,7.926829268292683 79.97967479674797,8.333333333333334 80.33536585365853,8.841463414634147 80.74186991869918,9.451219512195122 81.25,10.16260162601626 81.70731707317073,10.873983739837398 82.0630081300813,11.382113821138212 82.36788617886178,11.737804878048781 82.5711382113821,11.839430894308943 82.72357723577235,11.890243902439025 82.8760162601626,11.941056910569106 83.02845528455285,11.941056910569106 83.130081300813,11.941056910569106 83.23170731707317,11.941056910569106 83.33333333333333,11.890243902439025 83.48577235772358,11.737804878048781 83.6890243902439,11.483739837398375 83.89227642276423,11.026422764227641 84.09552845528455,10.416666666666666 84.2479674796748,9.654471544715447 84.40040650406503,8.790650406504065 84.5020325203252,7.774390243902439 84.5020325203252,7.0630081300813 84.5020325203252,6.605691056910569 84.34959349593495,6.453252032520325 84.2479674796748,6.402439024390244 84.1971544715447,6.3516260162601625 84.09552845528455,6.300813008130081 84.09552845528455,6.300813008130081 84.09552845528455,6.300813008130081 84.09552845528455,6.300813008130081 84.09552845528455,6.300813008130081 84.09552845528455,6.300813008130081 84.04471544715447,6.402439024390244" fill="none" stroke="black" stroke-width="0.6"></polyline><polyline points="13.414634146341463,22.916666666666668 13.363821138211382,22.865853658536587 13.3130081300813,22.815040650406505 13.262195121951219,22.815040650406505 13.262195121951219,22.764227642276424 13.211382113821138,22.764227642276424 13.211382113821138,22.764227642276424 13.211382113821138,22.764227642276424 13.211382113821138,22.764227642276424 13.211382113821138,22.865853658536587 13.211382113821138,23.01829268292683 13.211382113821138,23.272357723577237 13.211382113821138,23.678861788617887 13.262195121951219,24.23780487804878 13.363821138211382,25 13.516260162601625,25.914634146341463 13.821138211382113,26.778455284552845 14.176829268292682,27.4390243902439 14.583333333333332,27.84552845528455 14.989837398373984,28.048780487804876 15.396341463414634,28.099593495934958 15.752032520325203,28.15040650406504 16.15853658536585,28.15040650406504 16.463414634146343,27.997967479674795 16.76829268292683,27.84552845528455 17.073170731707318,27.642276422764226 17.327235772357724,27.4390243902439 17.53048780487805,27.134146341463413 17.784552845528456,26.829268292682926 17.88617886178862,26.473577235772357 17.98780487804878,26.067073170731707 18.089430894308943,25.609756097560975 18.089430894308943,25.152439024390244 18.089430894308943,24.695121951219512 18.038617886178862,24.13617886178862 17.88617886178862,23.678861788617887 17.784552845528456,23.221544715447155 17.632113821138212,22.916666666666668 17.53048780487805,22.815040650406505 17.479674796747968,22.815040650406505 17.479674796747968,22.815040650406505 17.479674796747968,22.865853658536587 17.479674796747968,22.865853658536587 17.479674796747968,22.916666666666668 17.479674796747968,22.96747967479675 17.479674796747968,23.170731707317074 17.53048780487805,23.526422764227643 17.58130081300813,24.034552845528456 17.632113821138212,24.64430894308943 17.733739837398375,25.35569105691057 17.835365853658537,26.067073170731707" fill="none" stroke="black" stroke-width="0.6"></polyline><polyline points="17.835365853658537,26.067073170731707 18.038617886178862,26.676829268292682 18.34349593495935,27.134146341463413 18.69918699186992,27.33739837398374 19.054878048780488,27.38821138211382 19.410569105691057,27.38821138211382 19.664634146341463,27.286585365853657 19.91869918699187,27.134146341463413 20.121951219512194,27.03252032520325 20.274390243902438,26.93089430894309 20.3760162601626,26.880081300813007 20.426829268292682,26.778455284552845 20.477642276422763,26.727642276422763 20.477642276422763,26.676829268292682 20.477642276422763,26.6260162601626 20.477642276422763,26.6260162601626 20.477642276422763,26.6260162601626 20.477642276422763,26.6260162601626 20.477642276422763,26.6260162601626 20.426829268292682,26.6260162601626 20.426829268292682,26.6260162601626 20.426829268292682,26.6260162601626 20.426829268292682,26.6260162601626" fill="none" stroke="black" stroke-width="0.6"></polyline><polyline points="32.82520325203252,22.459349593495933 32.672764227642276,22.30691056910569 32.57113821138211,22.205284552845526 32.46951219512195,22.103658536585364 32.418699186991866,22.052845528455283 32.418699186991866,22.052845528455283 32.418699186991866,22.052845528455283 32.418699186991866,22.052845528455283 32.418699186991866,22.052845528455283 32.36788617886179,22.052845528455283 32.36788617886179,22.052845528455283 32.36788617886179,22.052845528455283 32.36788617886179,22.154471544715445 32.36788617886179,22.30691056910569 32.36788617886179,22.560975609756095 32.418699186991866,23.01829268292683 32.46951219512195,23.628048780487806 32.6219512195122,24.54268292682927 32.72357723577236,25.609756097560975 32.926829268292686,26.778455284552845 33.079268292682926,27.84552845528455 33.28252032520325,28.455284552845526 33.4349593495935,28.810975609756095 33.58739837398374,29.0650406504065 33.63821138211382,29.115853658536583 33.63821138211382,29.166666666666664 33.6890243902439,29.166666666666664 33.6890243902439,29.166666666666664 33.6890243902439,29.166666666666664 33.6890243902439,29.166666666666664" fill="none" stroke="black" stroke-width="0.6"></polyline><polyline points="29.369918699186993,26.016260162601625 29.31910569105691,25.914634146341463 29.217479674796746,25.8130081300813 29.217479674796746,25.8130081300813 29.217479674796746,25.8130081300813 29.31910569105691,25.8130081300813 29.573170731707318,25.76219512195122 29.928861788617887,25.711382113821138 30.38617886178862,25.660569105691057 31.046747967479675,25.558943089430894 31.758130081300813,25.40650406504065 32.52032520325203,25.254065040650406 33.23170731707317,25.101626016260163 33.84146341463415,25 34.34959349593496,24.898373983739837 34.75609756097561,24.847560975609756 35.0609756097561,24.796747967479675 35.3150406504065,24.796747967479675 35.51829268292683,24.745934959349594 35.670731707317074,24.745934959349594 35.77235772357724,24.745934959349594 35.8739837398374,24.745934959349594 35.97560975609756,24.745934959349594" fill="none" stroke="black" stroke-width="0.6"></polyline><polyline points="50.10162601626016,23.526422764227643 50.10162601626016,23.526422764227643 50.05081300813008,23.3739837398374 49.949186991869915,23.272357723577237 49.89837398373984,23.221544715447155 49.796747967479675,23.119918699186993 49.74593495934959,23.01829268292683 49.69512195121951,22.96747967479675 49.59349593495935,22.916666666666668 49.49186991869919,22.916666666666668 49.4410569105691,22.865853658536587 49.28861788617886,22.815040650406505 49.136178861788615,22.764227642276424 48.93292682926829,22.764227642276424 48.6280487804878,22.764227642276424 48.27235772357724,22.764227642276424 47.86585365853659,22.865853658536587 47.357723577235774,22.96747967479675 46.90040650406504,23.119918699186993 46.49390243902439,23.272357723577237 46.13821138211382,23.42479674796748 45.985772357723576,23.526422764227643 45.88414634146341,23.678861788617887 45.88414634146341,23.882113821138212 45.985772357723576,24.085365853658537 46.1890243902439,24.390243902439025 46.54471544715447,24.745934959349594 46.951219512195124,25.05081300813008 47.510162601626014,25.40650406504065 48.170731707317074,25.8130081300813 48.83130081300813,26.117886178861788 49.49186991869919,26.473577235772357 50.10162601626016,26.829268292682926 50.55894308943089,27.184959349593495 50.762195121951216,27.540650406504064 50.86382113821138,27.947154471544714 50.91463414634146,28.302845528455283 50.86382113821138,28.60772357723577 50.762195121951216,28.810975609756095 50.609756097560975,29.01422764227642 50.30487804878049,29.166666666666664 49.84756097560975,29.31910569105691 49.28861788617886,29.369918699186993 48.67886178861789,29.369918699186993 48.01829268292683,29.268292682926827 47.357723577235774,29.0650406504065 46.798780487804876,28.760162601626014 46.239837398373986,28.404471544715445 45.833333333333336,28.099593495934958 45.52845528455285,27.84552845528455 45.325203252032516,27.591463414634145" fill="none" stroke="black" stroke-width="0.6"></polyline><polyline points="45.325203252032516,27.591463414634145 45.27439024390244,27.489837398373982 45.27439024390244,27.4390243902439" fill="none" stroke="black" stroke-width="0.6"></polyline><polyline points="62.55081300813008,24.390243902439025 62.55081300813008,24.390243902439025 62.55081300813008,24.288617886178862 62.5,24.288617886178862 62.5,24.23780487804878 62.5,24.23780487804878 62.5,24.1869918699187 62.5,24.1869918699187 62.5,24.1869918699187 62.5,24.1869918699187 62.5,24.1869918699187 62.5,24.1869918699187 62.5,24.23780487804878 62.55081300813008,24.441056910569106 62.65243902439024,24.695121951219512 62.7540650406504,25.101626016260163 62.855691056910565,25.609756097560975 62.95731707317073,26.21951219512195 63.05894308943089,26.778455284552845 63.16056910569105,27.235772357723576 63.21138211382114,27.540650406504064 63.262195121951216,27.74390243902439 63.3130081300813,27.84552845528455 63.36382113821138,27.84552845528455 63.41463414634146,27.84552845528455 63.41463414634146,27.84552845528455 63.41463414634146,27.84552845528455 63.41463414634146,27.79471544715447 63.41463414634146,27.74390243902439 63.41463414634146,27.693089430894307 63.3130081300813,27.540650406504064 63.21138211382114,27.38821138211382 63.109756097560975,27.184959349593495 62.95731707317073,26.98170731707317 62.80487804878049,26.727642276422763 62.65243902439024,26.473577235772357 62.5,26.117886178861788 62.449186991869915,25.609756097560975 62.449186991869915,25.05081300813008 62.60162601626016,24.390243902439025 62.855691056910565,23.678861788617887 63.16056910569105,23.119918699186993 63.46544715447154,22.662601626016258 63.82113821138211,22.30691056910569 64.07520325203252,22.154471544715445 64.380081300813,22.0020325203252 64.6341463414634,21.95121951219512 64.83739837398373,21.95121951219512 65.04065040650406,21.95121951219512 65.2439024390244,21.95121951219512 65.39634146341463,21.95121951219512" fill="none" stroke="black" stroke-width="0.6"></polyline><polyline points="65.39634146341463,21.95121951219512 65.4979674796748,22.0020325203252 65.59959349593495,22.052845528455283 65.65040650406505,22.052845528455283 65.70121951219512,22.103658536585364 65.7520325203252,22.154471544715445 65.7520325203252,22.154471544715445 65.80284552845528,22.205284552845526 65.85365853658537,22.35772357723577" fill="none" stroke="black" stroke-width="0.6"></polyline><polyline points="82.16463414634146,22.052845528455283 82.11382113821138,22.0020325203252 82.01219512195122,21.849593495934958 81.85975609756098,21.798780487804876 81.7581300813008,21.697154471544714 81.65650406504065,21.697154471544714 81.5040650406504,21.646341463414632 81.40243902439025,21.646341463414632 81.30081300813008,21.646341463414632 81.19918699186992,21.646341463414632 81.04674796747967,21.747967479674795 80.89430894308943,21.95121951219512 80.64024390243902,22.256097560975608 80.33536585365853,22.611788617886177 80.03048780487805,23.06910569105691 79.72560975609755,23.577235772357724 79.42073170731707,24.085365853658537 79.16666666666667,24.54268292682927 79.0650406504065,24.898373983739837 79.01422764227642,25.101626016260163 79.01422764227642,25.304878048780488 79.0650406504065,25.558943089430894 79.16666666666667,25.8130081300813 79.3191056910569,26.117886178861788 79.52235772357723,26.371951219512194 79.77642276422765,26.676829268292682 80.1321138211382,26.93089430894309 80.53861788617886,27.083333333333332 80.9451219512195,27.235772357723576 81.40243902439025,27.286585365853657 81.7581300813008,27.33739837398374 82.0630081300813,27.33739837398374 82.3170731707317,27.286585365853657 82.46951219512195,27.184959349593495 82.6219512195122,27.083333333333332 82.72357723577235,26.98170731707317 82.8760162601626,26.829268292682926 83.02845528455285,26.6260162601626 83.130081300813,26.473577235772357 83.23170731707317,26.321138211382113 83.28252032520325,26.21951219512195 83.28252032520325,26.117886178861788 83.33333333333333,26.016260162601625 83.33333333333333,25.914634146341463 83.33333333333333,25.8130081300813 83.28252032520325,25.711382113821138 83.28252032520325,25.558943089430894 83.28252032520325,25.45731707317073 83.23170731707317,25.35569105691057 83.23170731707317,25.254065040650406 83.18089430894308,25.152439024390244" fill="none" stroke="black" stroke-width="0.6"></polyline><polyline points="83.18089430894308,25.152439024390244 83.18089430894308,25.101626016260163 83.130081300813,25.05081300813008 83.130081300813,25 83.130081300813,25 83.07926829268293,24.94918699186992 83.07926829268293,24.898373983739837 83.07926829268293,24.847560975609756 83.07926829268293,24.796747967479675 83.07926829268293,24.745934959349594 83.07926829268293,24.64430894308943 83.07926829268293,24.59349593495935 83.07926829268293,24.491869918699187 83.02845528455285,24.441056910569106 83.02845528455285,24.390243902439025 82.97764227642276,24.339430894308943 82.97764227642276,24.288617886178862 82.97764227642276,24.23780487804878 82.92682926829268,24.1869918699187 82.92682926829268,24.13617886178862 82.8760162601626,24.085365853658537 82.8760162601626,23.983739837398375 82.82520325203252,23.932926829268293 82.82520325203252,23.83130081300813 82.77439024390243,23.678861788617887 82.72357723577235,23.577235772357724 82.6219512195122,23.3739837398374 82.5711382113821,23.221544715447155 82.46951219512195,23.01829268292683 82.36788617886178,22.815040650406505 82.3170731707317,22.611788617886177 82.21544715447155,22.459349593495933 82.16463414634146,22.30691056910569 82.0630081300813,22.205284552845526 82.01219512195122,22.154471544715445 81.91056910569105,22.103658536585364 81.85975609756098,22.052845528455283 81.8089430894309,22.052845528455283 81.7581300813008,22.052845528455283 81.70731707317073,22.0020325203252 81.65650406504065,22.0020325203252 81.60569105691057,21.95121951219512 81.55487804878048,21.95121951219512 81.5040650406504,21.90040650406504 81.5040650406504,21.90040650406504 81.5040650406504,21.90040650406504 81.5040650406504,21.90040650406504 81.5040650406504,21.90040650406504" fill="none" stroke="black" stroke-width="0.6"></polyline><polyline points="80.33536585365853,24.847560975609756 80.33536585365853,24.847560975609756 80.38617886178862,24.796747967479675 80.48780487804878,24.745934959349594 80.64024390243902,24.745934959349594 80.89430894308943,24.796747967479675 81.30081300813008,24.847560975609756 81.7581300813008,25 82.21544715447155,25.152439024390244 82.67276422764228,25.35569105691057 83.07926829268293,25.558943089430894 83.4349593495935,25.76219512195122 83.73983739837398,25.965447154471544 84.04471544715447,26.21951219512195 84.2479674796748,26.524390243902438" fill="none" stroke="black" stroke-width="0.6"></polyline><polyline points="14.53252032520325,46.59552845528455 14.53252032520325,46.59552845528455 14.430894308943088,46.59552845528455 14.329268292682926,46.59552845528455 14.278455284552845,46.59552845528455 14.227642276422763,46.59552845528455 14.176829268292682,46.59552845528455 14.1260162601626,46.54471544715447 14.1260162601626,46.54471544715447 14.1260162601626,46.49390243902439 14.1260162601626,46.44308943089431 14.1260162601626,46.392276422764226 14.1260162601626,46.290650406504064 14.1260162601626,46.13821138211382 14.1260162601626,45.88414634146341 14.176829268292682,45.47764227642276 14.176829268292682,44.96951219512195 14.176829268292682,44.359756097560975 14.07520325203252,43.64837398373984 13.922764227642276,42.9369918699187 13.71951219512195,42.27642276422764 13.567073170731707,41.5650406504065 13.516260162601625,40.90447154471545 13.465447154471544,40.29471544715447 13.465447154471544,39.735772357723576 13.567073170731707,39.22764227642276 13.66869918699187,38.82113821138211 13.770325203252032,38.5670731707317 13.770325203252032,38.516260162601625 13.871951219512194,38.516260162601625 14.024390243902438,38.516260162601625 14.278455284552845,38.61788617886179 14.583333333333332,38.77032520325203 15.040650406504065,39.1260162601626 15.447154471544716,39.583333333333336 15.802845528455284,40.09146341463415 16.10772357723577,40.59959349593496 16.3109756097561,41.05691056910569 16.36178861788618,41.514227642276424 16.3109756097561,41.86991869918699 16.05691056910569,42.1239837398374 15.802845528455284,42.327235772357724 15.497967479674797,42.42886178861789 15.19308943089431,42.42886178861789 14.888211382113822,42.479674796747965 14.583333333333332,42.479674796747965 14.278455284552845,42.479674796747965 14.024390243902438,42.42886178861789 13.770325203252032,42.327235772357724 13.567073170731707,42.22560975609756 13.414634146341463,42.1239837398374" fill="none" stroke="black" stroke-width="0.6"></polyline><polyline points="13.414634146341463,42.1239837398374 13.363821138211382,42.073170731707314" fill="none" stroke="black" stroke-width="0.6"></polyline><polyline points="32.6219512195122,40.29471544715447 32.57113821138211,40.24390243902439 32.418699186991866,40.142276422764226 32.266260162601625,40.040650406504064 32.16463414634146,40.040650406504064 32.0630081300813,40.040650406504064 31.961382113821138,40.040650406504064 31.859756097560975,40.09146341463415 31.70731707317073,40.24390243902439 31.60569105691057,40.447154471544714 31.453252032520325,40.802845528455286 31.30081300813008,41.209349593495936 31.30081300813008,41.666666666666664 31.351626016260163,42.27642276422764 31.60569105691057,42.9369918699187 31.961382113821138,43.44512195121951 32.46951219512195,43.75 33.02845528455285,43.90243902439024 33.485772357723576,43.90243902439024 33.94308943089431,43.75 34.34959349593496,43.49593495934959 34.70528455284553,43.24186991869919 35.010162601626014,42.9369918699187 35.3150406504065,42.58130081300813 35.56910569105691,42.27642276422764 35.77235772357724,42.02235772357724 35.97560975609756,41.71747967479675 36.02642276422764,41.46341463414634 36.02642276422764,41.209349593495936 36.02642276422764,40.802845528455286 35.8739837398374,40.447154471544714 35.670731707317074,40.09146341463415 35.36585365853659,39.735772357723576 35.0609756097561,39.48170731707317 34.70528455284553,39.27845528455285 34.34959349593496,39.07520325203252 33.99390243902439,38.97357723577235 33.63821138211382,38.922764227642276 33.333333333333336,38.87195121951219 33.02845528455285,38.922764227642276 32.72357723577236,38.97357723577235 32.46951219512195,39.1260162601626 32.16463414634146,39.27845528455285 31.910569105691057,39.583333333333336 31.60569105691057,40.040650406504064" fill="none" stroke="black" stroke-width="0.6"></polyline><polyline points="47.916666666666664,41.666666666666664 47.86585365853659,41.5650406504065 47.764227642276424,41.41260162601626 47.71341463414634,41.260162601626014 47.71341463414634,41.15853658536585 47.66260162601626,41.107723577235774 47.66260162601626,41.05691056910569 47.66260162601626,41.05691056910569 47.66260162601626,41.05691056910569 47.66260162601626,41.05691056910569 47.71341463414634,41.05691056910569 47.71341463414634,41.107723577235774 47.8150406504065,41.15853658536585 47.86585365853659,41.209349593495936 47.96747967479675,41.36178861788618 48.06910569105691,41.61585365853659 48.22154471544715,41.97154471544715 48.3739837398374,42.479674796747965 48.52642276422764,42.98780487804878 48.67886178861789,43.59756097560975 48.83130081300813,44.15650406504065 48.93292682926829,44.46138211382114 48.983739837398375,44.5630081300813 49.03455284552845,44.61382113821138 49.03455284552845,44.61382113821138 49.03455284552845,44.5630081300813 49.03455284552845,44.46138211382114 49.03455284552845,44.41056910569105 49.03455284552845,44.20731707317073 49.03455284552845,43.953252032520325 49.03455284552845,43.59756097560975 49.1869918699187,43.08943089430894 49.390243902439025,42.479674796747965 49.74593495934959,41.76829268292683 50.2540650406504,40.95528455284553 50.71138211382114,40.396341463414636 51.016260162601625,40.19308943089431 51.27032520325203,40.19308943089431 51.52439024390244,40.396341463414636 51.77845528455284,40.65040650406504 52.03252032520325,40.95528455284553 52.235772357723576,41.46341463414634 52.33739837398374,42.02235772357724 52.33739837398374,42.63211382113821 52.33739837398374,43.24186991869919 52.235772357723576,43.64837398373984 52.1849593495935,43.90243902439024 52.13414634146341,44.105691056910565 52.13414634146341,44.15650406504065 52.13414634146341,44.20731707317073 52.13414634146341,44.20731707317073" fill="none" stroke="black" stroke-width="0.6"></polyline><polyline points="52.13414634146341,44.20731707317073 52.13414634146341,44.25813008130081 52.13414634146341,44.25813008130081 52.1849593495935,44.25813008130081 52.28658536585366,44.30894308943089 52.33739837398374,44.30894308943089" fill="none" stroke="black" stroke-width="0.6"></polyline><polyline points="61.890243902439025,40.29471544715447 61.83943089430894,40.24390243902439 61.73780487804878,40.142276422764226 61.6869918699187,40.09146341463415 61.636178861788615,40.09146341463415 61.636178861788615,40.142276422764226 61.73780487804878,40.24390243902439 61.83943089430894,40.447154471544714 61.99186991869919,40.7520325203252 62.14430894308943,41.209349593495936 62.296747967479675,41.666666666666664 62.449186991869915,42.22560975609756 62.60162601626016,42.733739837398375 62.703252032520325,43.08943089430894 62.7540650406504,43.34349593495935 62.7540650406504,43.44512195121951 62.80487804878049,43.44512195121951 62.80487804878049,43.44512195121951 62.80487804878049,43.44512195121951 62.7540650406504,43.39430894308943 62.7540650406504,43.34349593495935 62.703252032520325,43.34349593495935 62.65243902439024,43.292682926829265 62.60162601626016,43.24186991869919 62.55081300813008,43.24186991869919 62.5,43.1910569105691 62.5,43.140243902439025 62.449186991869915,43.08943089430894 62.449186991869915,42.9369918699187 62.55081300813008,42.63211382113821 62.7540650406504,42.1239837398374 63.05894308943089,41.46341463414634 63.41463414634146,40.7520325203252 63.77032520325203,40.09146341463415 64.02439024390243,39.735772357723576 64.17682926829268,39.583333333333336 64.32926829268293,39.583333333333336 64.48170731707317,39.735772357723576 64.6849593495935,39.989837398373986 64.9390243902439,40.29471544715447 65.14227642276423,40.65040650406504 65.29471544715447,41.15853658536585 65.39634146341463,41.61585365853659 65.39634146341463,42.1239837398374 65.39634146341463,42.58130081300813 65.29471544715447,42.886178861788615 65.1930894308943,43.03861788617886 65.14227642276423,43.08943089430894 65.14227642276423,43.08943089430894 65.1930894308943,42.886178861788615 65.34552845528455,42.53048780487805" fill="none" stroke="black" stroke-width="0.6"></polyline><polyline points="65.34552845528455,42.53048780487805 65.65040650406505,41.920731707317074 66.0060975609756,41.15853658536585 66.3109756097561,40.447154471544714 66.5650406504065,39.989837398373986 66.71747967479675,39.83739837398374 66.869918699187,39.83739837398374 67.07317073170732,39.88821138211382 67.32723577235772,39.989837398373986 67.6321138211382,40.24390243902439 67.9369918699187,40.59959349593496 68.14024390243902,41.107723577235774 68.34349593495935,41.71747967479675 68.39430894308943,42.327235772357724 68.39430894308943,42.98780487804878 68.34349593495935,43.59756097560975 68.1910569105691,44.05487804878049 68.08943089430895,44.359756097560975 67.98780487804878,44.5630081300813 67.9369918699187,44.61382113821138 67.88617886178862,44.61382113821138 67.83536585365853,44.61382113821138 67.83536585365853,44.61382113821138 67.83536585365853,44.61382113821138" fill="none" stroke="black" stroke-width="0.6"></polyline><polyline points="81.65650406504065,38.87195121951219 81.55487804878048,38.77032520325203 81.45325203252033,38.668699186991866 81.40243902439025,38.61788617886179 81.35162601626016,38.5670731707317 81.35162601626016,38.516260162601625 81.35162601626016,38.516260162601625 81.35162601626016,38.516260162601625 81.35162601626016,38.5670731707317 81.40243902439025,38.77032520325203 81.5040650406504,39.1260162601626 81.55487804878048,39.735772357723576 81.65650406504065,40.59959349593496 81.7581300813008,41.76829268292683 81.85975609756098,43.08943089430894 82.01219512195122,44.20731707317073 82.16463414634146,44.918699186991866 82.3170731707317,45.27439024390244 82.41869918699187,45.3760162601626 82.41869918699187,45.3760162601626 82.41869918699187,45.3760162601626 82.41869918699187,45.3760162601626 82.41869918699187,45.325203252032516" fill="none" stroke="black" stroke-width="0.6"></polyline><polyline points="13.66869918699187,55.792682926829265 13.617886178861788,55.792682926829265 13.516260162601625,55.89430894308943 13.465447154471544,55.99593495934959 13.414634146341463,56.30081300813008 13.414634146341463,56.75813008130081 13.414634146341463,57.36788617886179 13.414634146341463,58.079268292682926 13.414634146341463,58.63821138211382 13.414634146341463,59.09552845528455 13.414634146341463,59.5020325203252 13.363821138211382,59.80691056910569 13.3130081300813,60.010162601626014 13.262195121951219,60.264227642276424 13.211382113821138,60.46747967479675 13.160569105691057,60.670731707317074 13.160569105691057,60.8739837398374 13.160569105691057,61.02642276422764 13.160569105691057,61.1280487804878 13.160569105691057,61.1280487804878" fill="none" stroke="black" stroke-width="0.6"></polyline><polyline points="15.853658536585366,55.89430894308943 15.853658536585366,55.89430894308943 15.853658536585366,55.84349593495935 15.853658536585366,55.84349593495935 15.853658536585366,55.792682926829265 15.853658536585366,55.792682926829265 15.802845528455284,55.792682926829265 15.802845528455284,55.792682926829265 15.802845528455284,55.89430894308943 15.752032520325203,56.14837398373984 15.65040650406504,56.55487804878049 15.447154471544716,57.11382113821138 15.19308943089431,57.825203252032516 14.888211382113822,58.58739837398374 14.53252032520325,59.2479674796748 14.176829268292682,59.75609756097561 13.871951219512194,60.010162601626014 13.567073170731707,60.21341463414634 13.3130081300813,60.3150406504065 13.109756097560975,60.3150406504065 13.008130081300813,60.3150406504065 12.90650406504065,60.21341463414634 12.90650406504065,60.16260162601626 12.90650406504065,60.010162601626014 12.957317073170731,59.80691056910569 13.109756097560975,59.603658536585364 13.3130081300813,59.34959349593496 13.516260162601625,59.2479674796748 13.770325203252032,59.197154471544714 14.1260162601626,59.197154471544714 14.430894308943088,59.197154471544714 14.786585365853659,59.34959349593496 15.142276422764228,59.603658536585364 15.447154471544716,59.857723577235774 15.701219512195122,60.16260162601626 15.904471544715447,60.46747967479675 16.05691056910569,60.77235772357724 16.15853658536585,61.1280487804878" fill="none" stroke="black" stroke-width="0.6"></polyline><polyline points="32.72357723577236,53.91260162601626 32.6219512195122,53.8109756097561 32.57113821138211,53.709349593495936 32.52032520325203,53.709349593495936 32.52032520325203,53.709349593495936 32.52032520325203,53.709349593495936 32.57113821138211,53.8109756097561 32.6219512195122,54.11585365853659 32.77439024390244,54.6239837398374 32.8760162601626,55.33536585365854 32.97764227642276,56.35162601626016 33.02845528455285,57.418699186991866 33.079268292682926,58.33333333333333 33.13008130081301,58.99390243902439 33.18089430894309,59.40040650406504 33.18089430894309,59.70528455284553 33.13008130081301,60.0609756097561 33.02845528455285,60.264227642276424 32.97764227642276,60.416666666666664 32.926829268292686,60.46747967479675 32.8760162601626,60.51829268292683 32.8760162601626,60.51829268292683 32.82520325203252,60.56910569105691 32.77439024390244,60.56910569105691 32.72357723577236,60.61991869918699 32.672764227642276,60.61991869918699 32.672764227642276,60.61991869918699 32.6219512195122,60.61991869918699 32.6219512195122,60.61991869918699" fill="none" stroke="black" stroke-width="0.6"></polyline><polyline points="47.61178861788618,55.53861788617886 47.61178861788618,55.48780487804878 47.510162601626014,55.33536585365854 47.40853658536585,55.18292682926829 47.357723577235774,55.08130081300813 47.30691056910569,55.03048780487805 47.30691056910569,55.03048780487805 47.30691056910569,55.03048780487805 47.30691056910569,55.08130081300813 47.357723577235774,55.233739837398375 47.357723577235774,55.53861788617886 47.40853658536585,55.99593495934959 47.40853658536585,56.55487804878049 47.40853658536585,57.3170731707317 47.40853658536585,58.02845528455284 47.40853658536585,58.739837398373986 47.40853658536585,59.298780487804876 47.40853658536585,59.603658536585364 47.40853658536585,59.857723577235774 47.357723577235774,60.11178861788618 47.30691056910569,60.3150406504065 47.25609756097561,60.46747967479675 47.25609756097561,60.61991869918699 47.30691056910569,60.72154471544715 47.40853658536585,60.72154471544715 47.510162601626014,60.72154471544715 47.5609756097561,60.61991869918699" fill="none" stroke="black" stroke-width="0.6"></polyline><polyline points="49.84756097560975,55.640243902439025 49.84756097560975,55.640243902439025 49.84756097560975,55.58943089430894 49.84756097560975,55.53861788617886 49.84756097560975,55.53861788617886 49.84756097560975,55.640243902439025 49.84756097560975,55.89430894308943 49.74593495934959,56.40243902439024 49.542682926829265,57.012195121951216 49.1869918699187,57.672764227642276 48.78048780487805,58.231707317073166 48.3739837398374,58.6890243902439 48.06910569105691,58.99390243902439 47.71341463414634,59.2479674796748 47.357723577235774,59.451219512195124 47.052845528455286,59.5020325203252 46.798780487804876,59.552845528455286 46.54471544715447,59.552845528455286 46.392276422764226,59.603658536585364 46.34146341463415,59.603658536585364 46.290650406504064,59.603658536585364 46.34146341463415,59.5020325203252 46.49390243902439,59.34959349593496 46.84959349593496,59.146341463414636 47.357723577235774,58.892276422764226 47.96747967479675,58.6890243902439 48.52642276422764,58.536585365853654 49.1869918699187,58.536585365853654 49.89837398373984,58.790650406504064 50.45731707317073,59.197154471544714 50.86382113821138,59.80691056910569 51.168699186991866,60.36585365853659 51.27032520325203,60.77235772357724 51.32113821138211,61.077235772357724 51.37195121951219,61.28048780487805 51.422764227642276,61.38211382113821 51.52439024390244,61.483739837398375 51.72764227642276,61.53455284552845" fill="none" stroke="black" stroke-width="0.6"></polyline><polyline points="64.07520325203252,56.199186991869915 64.02439024390243,56.25 63.97357723577235,56.25 63.97357723577235,56.40243902439024 64.02439024390243,56.65650406504065 64.22764227642276,57.11382113821138 64.48170731707317,57.672764227642276 64.73577235772358,58.231707317073166 64.9390243902439,58.94308943089431 65.04065040650406,59.603658536585364 65.04065040650406,60.264227642276424 64.9390243902439,60.8739837398374 64.73577235772358,61.33130081300813 64.48170731707317,61.6869918699187 64.22764227642276,61.99186991869919 63.922764227642276,62.14430894308943 63.61788617886179,62.24593495934959 63.262195121951216,62.34756097560975 62.90650406504065,62.34756097560975 62.5,62.34756097560975 62.042682926829265,62.24593495934959 61.58536585365854,62.14430894308943 61.077235772357724,61.9410569105691 60.670731707317074,61.73780487804878 60.3150406504065,61.53455284552845 60.0609756097561,61.33130081300813 59.857723577235774,61.17886178861789 59.70528455284553,61.02642276422764 59.65447154471545,60.8739837398374 59.603658536585364,60.72154471544715 59.65447154471545,60.51829268292683" fill="none" stroke="black" stroke-width="0.6"></polyline><polyline points="63.3130081300813,54.36991869918699 63.3130081300813,54.36991869918699 63.36382113821138,54.36991869918699 63.41463414634146,54.36991869918699 63.516260162601625,54.36991869918699 63.61788617886179,54.36991869918699 63.71951219512195,54.26829268292683 63.82113821138211,54.166666666666664 63.87195121951219,54.0650406504065 63.922764227642276,53.91260162601626 63.97357723577235,53.709349593495936 63.97357723577235,53.55691056910569 63.922764227642276,53.40447154471545 63.77032520325203,53.302845528455286 63.61788617886179,53.2520325203252 63.46544715447154,53.2520325203252 63.262195121951216,53.2520325203252 63.05894308943089,53.353658536585364 62.90650406504065,53.50609756097561 62.7540650406504,53.709349593495936 62.703252032520325,54.014227642276424 62.65243902439024,54.420731707317074 62.65243902439024,54.77642276422764 62.7540650406504,55.13211382113821 62.855691056910565,55.28455284552845" fill="none" stroke="black" stroke-width="0.6"></polyline><polyline points="81.55487804878048,57.62195121951219 81.55487804878048,57.62195121951219 81.45325203252033,57.57113821138211 81.40243902439025,57.52032520325203 81.40243902439025,57.52032520325203 81.40243902439025,57.52032520325203 81.40243902439025,57.672764227642276 81.40243902439025,57.97764227642276 81.45325203252033,58.485772357723576 81.45325203252033,59.146341463414636 81.5040650406504,59.75609756097561 81.55487804878048,60.21341463414634 81.55487804878048,60.61991869918699 81.55487804878048,60.823170731707314 81.55487804878048,60.97560975609756 81.55487804878048,61.077235772357724 81.55487804878048,61.1280487804878" fill="none" stroke="black" stroke-width="0.6"></polyline><polyline points="81.45325203252033,53.91260162601626 81.40243902439025,53.96341463414634 81.19918699186992,54.014227642276424 81.09756097560975,54.014227642276424 81.04674796747967,54.0650406504065 80.9959349593496,54.166666666666664 80.9959349593496,54.36991869918699 81.04674796747967,54.47154471544715 81.19918699186992,54.6239837398374 81.40243902439025,54.67479674796748 81.55487804878048,54.72560975609756 81.7581300813008,54.72560975609756 81.96138211382113,54.67479674796748 82.11382113821138,54.573170731707314 82.26626016260163,54.420731707317074 82.36788617886178,54.26829268292683 82.41869918699187,54.0650406504065 82.41869918699187,53.86178861788618 82.41869918699187,53.65853658536585 82.41869918699187,53.50609756097561 82.3170731707317,53.40447154471545 82.16463414634146,53.353658536585364 81.96138211382113,53.353658536585364 81.70731707317073,53.353658536585364 81.45325203252033,53.50609756097561 81.19918699186992,53.709349593495936 80.9959349593496,53.91260162601626 80.84349593495935,54.11585365853659 80.74186991869918,54.36991869918699 80.74186991869918,54.67479674796748 80.74186991869918,55.03048780487805" fill="none" stroke="black" stroke-width="0.6"></polyline><polyline points="14.329268292682926,70.8841463414634 14.278455284552845,70.8841463414634 14.176829268292682,70.8841463414634 14.1260162601626,70.8841463414634 14.07520325203252,70.8841463414634 14.024390243902438,71.03658536585365 14.024390243902438,71.23983739837398 14.024390243902438,71.59552845528455 14.024390243902438,72.15447154471545 14.07520325203252,72.8150406504065 14.176829268292682,73.67886178861788 14.227642276422763,74.64430894308943 14.329268292682926,75.66056910569105 14.380081300813007,76.67682926829268 14.48170731707317,77.54065040650406 14.583333333333332,78.15040650406505 14.634146341463413,78.5060975609756 14.684959349593496,78.8109756097561 14.684959349593496,79.0650406504065 14.634146341463413,79.26829268292683 14.634146341463413,79.42073170731707 14.583333333333332,79.42073170731707 14.583333333333332,79.42073170731707 14.583333333333332,79.42073170731707 14.583333333333332,79.42073170731707 14.634146341463413,79.26829268292683 14.684959349593496,78.96341463414635 14.786585365853659,78.5060975609756 14.888211382113822,77.9471544715447 14.989837398373984,77.4390243902439 15.142276422764228,76.98170731707317 15.294715447154472,76.52439024390243 15.447154471544716,76.16869918699187 15.701219512195122,75.91463414634146 16.05691056910569,75.8130081300813 16.514227642276424,75.76219512195122 16.971544715447155,75.76219512195122 17.428861788617887,75.96544715447155 17.835365853658537,76.3211382113821 18.089430894308943,76.72764227642276 18.29268292682927,77.28658536585365 18.445121951219512,77.84552845528455 18.495934959349594,78.35365853658537 18.495934959349594,78.8109756097561 18.495934959349594,79.16666666666667 18.445121951219512,79.369918699187 18.39430894308943,79.47154471544715 18.29268292682927,79.47154471544715 18.191056910569106,79.52235772357723 18.038617886178862,79.52235772357723 17.88617886178862,79.52235772357723" fill="none" stroke="black" stroke-width="0.6"></polyline><polyline points="17.88617886178862,79.52235772357723 17.733739837398375,79.52235772357723 17.58130081300813,79.47154471544715 17.53048780487805,79.369918699187" fill="none" stroke="black" stroke-width="0.6"></polyline><polyline points="33.18089430894309,74.08536585365853 33.18089430894309,74.03455284552845 33.18089430894309,73.98373983739837 33.13008130081301,73.8821138211382 33.13008130081301,73.8821138211382 33.079268292682926,73.78048780487805 33.079268292682926,73.78048780487805 33.02845528455285,73.72967479674797 33.02845528455285,73.67886178861788 32.97764227642276,73.6280487804878 32.97764227642276,73.57723577235772 32.926829268292686,73.47560975609755 32.82520325203252,73.42479674796748 32.72357723577236,73.32317073170732 32.6219512195122,73.27235772357723 32.46951219512195,73.17073170731707 32.266260162601625,73.0691056910569 32.012195121951216,72.96747967479675 31.758130081300813,72.91666666666667 31.504065040650406,72.86585365853658 31.19918699186992,72.86585365853658 30.945121951219512,72.86585365853658 30.691056910569106,72.96747967479675 30.4369918699187,73.119918699187 30.233739837398375,73.3739837398374 30.08130081300813,73.72967479674797 29.979674796747968,74.08536585365853 29.979674796747968,74.54268292682927 29.979674796747968,74.94918699186992 30.08130081300813,75.35569105691057 30.335365853658537,75.76219512195122 30.589430894308943,76.0670731707317 30.945121951219512,76.27032520325203 31.351626016260163,76.3211382113821 31.70731707317073,76.3211382113821 32.11382113821138,76.16869918699187 32.418699186991866,75.96544715447155 32.72357723577236,75.71138211382113 32.926829268292686,75.45731707317073 33.079268292682926,75.20325203252033 33.18089430894309,74.94918699186992 33.28252032520325,74.64430894308943 33.28252032520325,74.4410569105691 33.23170731707317,74.23780487804878 33.13008130081301,73.98373983739837 32.97764227642276,73.83130081300813 32.82520325203252,73.72967479674797 32.672764227642276,73.6280487804878 32.57113821138211,73.6280487804878 32.52032520325203,73.6280487804878 32.52032520325203,73.6280487804878" fill="none" stroke="black" stroke-width="0.6"></polyline><polyline points="32.52032520325203,73.6280487804878 32.52032520325203,73.67886178861788 32.52032520325203,73.83130081300813 32.672764227642276,74.1869918699187 32.926829268292686,74.6951219512195 33.23170731707317,75.40650406504065 33.6890243902439,76.27032520325203 34.2479674796748,77.28658536585365 34.70528455284553,78.35365853658537 35.0609756097561,79.369918699187 35.11178861788618,80.03048780487805 35.11178861788618,80.64024390243902 34.90853658536585,81.04674796747967 34.603658536585364,81.35162601626016 34.197154471544714,81.55487804878048 33.739837398373986,81.65650406504065 33.28252032520325,81.65650406504065 32.77439024390244,81.65650406504065 32.3170731707317,81.5040650406504 31.910569105691057,81.25 31.504065040650406,80.89430894308943 31.25,80.4369918699187 31.097560975609756,79.92886178861788 30.995934959349594,79.369918699187 31.046747967479675,78.91260162601625 31.30081300813008,78.40447154471545 31.70731707317073,77.79471544715447 32.16463414634146,77.33739837398373 32.672764227642276,76.880081300813 33.18089430894309,76.42276422764228 33.6890243902439,76.11788617886178 34.09552845528455,75.86382113821138 34.451219512195124,75.71138211382113 34.603658536585364,75.66056910569105 34.70528455284553,75.66056910569105 34.80691056910569,75.66056910569105 34.80691056910569,75.66056910569105 34.80691056910569,75.66056910569105 34.80691056910569,75.71138211382113 34.80691056910569,75.86382113821138" fill="none" stroke="black" stroke-width="0.6"></polyline><polyline points="49.33943089430894,78.5060975609756 49.33943089430894,78.5060975609756 49.33943089430894,78.45528455284553 49.28861788617886,78.40447154471545 49.28861788617886,78.30284552845528 49.23780487804878,78.15040650406505 49.23780487804878,77.89634146341463 49.1869918699187,77.54065040650406 49.08536585365854,77.1341463414634 48.983739837398375,76.6260162601626 48.78048780487805,76.01626016260163 48.577235772357724,75.2540650406504 48.27235772357724,74.54268292682927 48.01829268292683,73.67886178861788 47.764227642276424,72.76422764227642 47.61178861788618,71.95121951219512 47.510162601626014,71.34146341463415 47.510162601626014,70.8841463414634 47.510162601626014,70.73170731707317 47.61178861788618,70.68089430894308 47.764227642276424,70.68089430894308 47.96747967479675,70.68089430894308 48.323170731707314,70.68089430894308 48.729674796747965,70.73170731707317 49.1869918699187,70.83333333333333 49.59349593495935,70.98577235772358 49.89837398373984,71.13821138211382 50.10162601626016,71.23983739837398 50.15243902439024,71.29065040650406 50.203252032520325,71.34146341463415 50.203252032520325,71.34146341463415 50.15243902439024,71.34146341463415 50.10162601626016,71.34146341463415 50,71.4430894308943 49.949186991869915,71.49390243902438" fill="none" stroke="black" stroke-width="0.6"></polyline><polyline points="45.63008130081301,75.5081300813008 45.68089430894309,75.45731707317073 45.78252032520325,75.35569105691057 46.03658536585366,75.20325203252033 46.59552845528455,75.10162601626016 47.30691056910569,74.94918699186992 48.170731707317074,74.84756097560975 49.08536585365854,74.6951219512195 49.84756097560975,74.64430894308943 50.50813008130081,74.64430894308943 51.0670731707317,74.59349593495935 51.47357723577235,74.54268292682927 51.72764227642276,74.49186991869918 51.93089430894309,74.4410569105691 51.981707317073166,74.4410569105691 51.981707317073166,74.4410569105691 51.981707317073166,74.4410569105691 51.981707317073166,74.4410569105691 51.93089430894309,74.39024390243902 51.93089430894309,74.39024390243902 51.829268292682926,74.39024390243902 51.77845528455284,74.39024390243902 51.67682926829268,74.39024390243902" fill="none" stroke="black" stroke-width="0.6"></polyline><polyline points="63.516260162601625,75.05081300813008 63.3130081300813,75.05081300813008 63.109756097560975,75.10162601626016 63.00813008130081,75.15243902439025 62.95731707317073,75.20325203252033 62.90650406504065,75.30487804878048 62.855691056910565,75.40650406504065" fill="none" stroke="black" stroke-width="0.6"></polyline><polyline points="62.90650406504065,75.60975609756098 62.95731707317073,75.60975609756098 62.95731707317073,75.60975609756098 63.00813008130081,75.60975609756098 63.109756097560975,75.5589430894309 63.3130081300813,75.5589430894309 63.71951219512195,75.5589430894309 64.32926829268293,75.60975609756098 64.98983739837398,75.66056910569105 65.59959349593495,75.66056910569105 66.20934959349593,75.60975609756098 66.66666666666667,75.45731707317073 67.02235772357723,75.20325203252033 67.32723577235772,74.94918699186992 67.53048780487805,74.64430894308943 67.6321138211382,74.39024390243902 67.73373983739837,74.13617886178862 67.73373983739837,73.9329268292683 67.73373983739837,73.72967479674797 67.6321138211382,73.52642276422765 67.47967479674797,73.32317073170732 67.32723577235772,73.17073170731707 67.07317073170732,73.01829268292683 66.8191056910569,72.91666666666667 66.51422764227642,72.86585365853658 66.20934959349593,72.86585365853658 65.85365853658537,72.91666666666667 65.44715447154472,73.119918699187 64.98983739837398,73.42479674796748 64.58333333333333,73.8821138211382 64.17682926829268,74.33943089430895 63.77032520325203,74.89837398373983 63.516260162601625,75.45731707317073 63.36382113821138,76.11788617886178 63.36382113821138,76.77845528455285 63.5670731707317,77.33739837398373 63.922764227642276,77.9471544715447 64.380081300813,78.45528455284553 64.88821138211382,78.8109756097561 65.54878048780488,79.01422764227642 66.10772357723577,79.0650406504065 66.71747967479675,79.01422764227642 67.22560975609755,78.91260162601625 67.6321138211382,78.8109756097561 67.98780487804878,78.60772357723577 68.29268292682927,78.45528455284553 68.4959349593496,78.30284552845528 68.69918699186992,78.20121951219512 68.85162601626016,78.09959349593495 68.90243902439025,78.04878048780488 68.95325203252033,77.9979674796748" fill="none" stroke="black" stroke-width="0.6"></polyline><polyline points="68.95325203252033,77.9979674796748 69.05487804878048,77.9471544715447 69.15650406504065,77.89634146341463" fill="none" stroke="black" stroke-width="0.6"></polyline><polyline points="83.99390243902438,75.40650406504065 83.9430894308943,75.40650406504065 83.89227642276423,75.40650406504065 83.84146341463415,75.35569105691057 83.79065040650406,75.30487804878048 83.79065040650406,75.2540650406504 83.73983739837398,75.20325203252033 83.6890243902439,75.10162601626016 83.63821138211382,75 83.53658536585365,74.89837398373983 83.4349593495935,74.7459349593496 83.28252032520325,74.59349593495935 83.07926829268293,74.4410569105691 82.8760162601626,74.33943089430895 82.5711382113821,74.23780487804878 82.26626016260163,74.13617886178862 81.96138211382113,74.13617886178862 81.60569105691057,74.13617886178862 81.25,74.23780487804878 80.89430894308943,74.4410569105691 80.58943089430895,74.64430894308943 80.33536585365853,74.94918699186992 80.1321138211382,75.35569105691057 79.97967479674797,75.76219512195122 79.97967479674797,76.27032520325203 79.97967479674797,76.82926829268293 80.08130081300813,77.28658536585365 80.28455284552845,77.64227642276423 80.53861788617886,77.84552845528455 80.84349593495935,77.9471544715447 81.09756097560975,77.9471544715447 81.35162601626016,77.9471544715447 81.60569105691057,77.89634146341463 81.8089430894309,77.79471544715447 82.0630081300813,77.64227642276423 82.26626016260163,77.48983739837398 82.41869918699187,77.28658536585365 82.6219512195122,77.03252032520325 82.72357723577235,76.72764227642276 82.77439024390243,76.3719512195122 82.82520325203252,75.86382113821138 82.8760162601626,75.30487804878048 82.8760162601626,74.64430894308943 82.82520325203252,73.8821138211382 82.77439024390243,73.0691056910569 82.67276422764228,72.35772357723577 82.6219512195122,71.59552845528455 82.52032520325203,71.03658536585365 82.36788617886178,70.52845528455285 82.26626016260163,70.22357723577235 82.16463414634146,69.96951219512195" fill="none" stroke="black" stroke-width="0.6"></polyline><polyline points="82.16463414634146,69.96951219512195 82.0630081300813,69.8170731707317 81.96138211382113,69.71544715447155 81.96138211382113,69.71544715447155 81.91056910569105,69.71544715447155 81.91056910569105,69.8170731707317 81.85975609756098,70.22357723577235 81.8089430894309,70.98577235772358 81.8089430894309,71.95121951219512 81.8089430894309,73.01829268292683 81.96138211382113,74.13617886178862 82.16463414634146,75.10162601626016 82.46951219512195,75.8130081300813 82.77439024390243,76.3719512195122 82.92682926829268,76.6260162601626 83.02845528455285,76.880081300813 83.02845528455285,77.1341463414634 83.02845528455285,77.4390243902439 83.02845528455285,77.74390243902438 82.97764227642276,78.04878048780488 82.92682926829268,78.35365853658537 82.8760162601626,78.65853658536585" fill="none" stroke="black" stroke-width="0.6"></polyline><polyline points="17.784552845528456,88.8211382113821 17.733739837398375,88.77032520325203 17.632113821138212,88.71951219512195 17.58130081300813,88.61788617886178 17.479674796747968,88.5670731707317 17.378048780487806,88.46544715447155 17.225609756097562,88.41463414634146 17.022357723577237,88.3130081300813 16.81910569105691,88.26219512195122 16.514227642276424,88.16056910569105 16.209349593495933,88.10975609756098 15.853658536585366,88.0589430894309 15.548780487804878,88.0081300813008 15.19308943089431,88.0081300813008 14.888211382113822,88.0081300813008 14.634146341463413,88.10975609756098 14.380081300813007,88.3130081300813 14.176829268292682,88.5670731707317 13.973577235772357,89.02439024390243 13.821138211382113,89.53252032520325 13.71951219512195,90.09146341463415 13.71951219512195,90.70121951219512 13.922764227642276,91.3109756097561 14.278455284552845,91.97154471544715 14.83739837398374,92.6829268292683 15.497967479674797,93.29268292682927 16.209349593495933,93.64837398373983 16.971544715447155,93.69918699186992 17.682926829268293,93.59756097560975 18.29268292682927,93.4451219512195 18.80081300813008,93.24186991869918 19.258130081300813,93.08943089430895 19.51219512195122,92.88617886178862 19.715447154471544,92.73373983739837 19.867886178861788,92.58130081300813 19.96951219512195,92.42886178861788 20.071138211382113,92.27642276422765 20.223577235772357,92.07317073170732 20.3760162601626,91.869918699187 20.630081300813007,91.66666666666667 20.78252032520325,91.5650406504065" fill="none" stroke="black" stroke-width="0.6"></polyline><polyline points="30.741869918699187,86.63617886178862 30.589430894308943,86.63617886178862 30.4369918699187,86.58536585365853 30.335365853658537,86.53455284552845 30.284552845528456,86.53455284552845 30.284552845528456,86.53455284552845 30.335365853658537,86.6869918699187 30.4369918699187,87.04268292682927 30.640243902439025,87.60162601626016 30.84349593495935,88.36382113821138 31.097560975609756,89.27845528455285 31.351626016260163,90.34552845528455 31.554878048780488,91.26016260162602 31.70731707317073,92.07317073170732 31.758130081300813,92.6321138211382 31.758130081300813,92.88617886178862 31.758130081300813,92.98780487804878 31.758130081300813,93.03861788617886 31.758130081300813,93.03861788617886 31.758130081300813,93.03861788617886 31.758130081300813,93.03861788617886 31.758130081300813,92.9369918699187 31.808943089430894,92.73373983739837 31.961382113821138,92.32723577235772 32.16463414634146,91.92073170731707 32.418699186991866,91.61585365853658 32.72357723577236,91.3109756097561 33.079268292682926,91.15853658536585 33.485772357723576,91.0569105691057 33.94308943089431,91.0569105691057 34.40040650406504,91.15853658536585 34.80691056910569,91.36178861788618 35.0609756097561,91.61585365853658 35.21341463414634,91.97154471544715 35.21341463414634,92.3780487804878 35.11178861788618,92.73373983739837 34.857723577235774,93.03861788617886 34.5020325203252,93.4451219512195 34.09552845528455,93.80081300813008 33.6890243902439,94.05487804878048 33.18089430894309,94.35975609756098 32.672764227642276,94.51219512195122 32.11382113821138,94.5630081300813 31.453252032520325,94.5630081300813 30.945121951219512,94.41056910569105 30.48780487804878,94.10569105691057 30.132113821138212,93.69918699186992 29.979674796747968,93.29268292682927 29.928861788617887,92.83536585365853 30.03048780487805,92.32723577235772 30.4369918699187,91.869918699187" fill="none" stroke="black" stroke-width="0.6"></polyline><polyline points="30.4369918699187,91.869918699187 30.995934959349594,91.41260162601625" fill="none" stroke="black" stroke-width="0.6"></polyline><polyline points="50.40650406504065,90.90447154471545 50.203252032520325,90.70121951219512 50.05081300813008,90.59959349593495 50,90.4979674796748 50,90.4471544715447 50,90.29471544715447 49.949186991869915,90.1930894308943 49.949186991869915,89.98983739837398 49.84756097560975,89.83739837398373 49.796747967479675,89.6341463414634 49.64430894308943,89.43089430894308 49.49186991869919,89.27845528455285 49.23780487804878,89.07520325203252 48.983739837398375,88.97357723577235 48.67886178861789,88.8719512195122 48.27235772357724,88.8719512195122 47.96747967479675,88.8719512195122 47.61178861788618,89.02439024390243 47.25609756097561,89.22764227642276 46.951219512195124,89.53252032520325 46.697154471544714,89.9390243902439 46.49390243902439,90.4979674796748 46.44308943089431,91.0060975609756 46.44308943089431,91.61585365853658 46.646341463414636,92.27642276422765 46.90040650406504,92.6829268292683 47.25609756097561,92.98780487804878 47.61178861788618,93.24186991869918 47.916666666666664,93.29268292682927 48.22154471544715,93.29268292682927 48.52642276422764,93.29268292682927 48.83130081300813,93.14024390243902 49.136178861788615,92.9369918699187 49.49186991869919,92.6829268292683 49.74593495934959,92.42886178861788 50,92.1239837398374 50.15243902439024,91.8191056910569 50.30487804878049,91.46341463414635 50.355691056910565,91.10772357723577 50.355691056910565,90.59959349593495 50.355691056910565,90.1930894308943 50.30487804878049,89.88821138211382 50.203252032520325,89.6849593495935 50.15243902439024,89.6849593495935 50.15243902439024,89.6849593495935 50.15243902439024,89.6849593495935 50.15243902439024,89.73577235772358 50.15243902439024,89.83739837398373 50.30487804878049,89.98983739837398 50.50813008130081,90.24390243902438 50.8130081300813,90.65040650406503" fill="none" stroke="black" stroke-width="0.6"></polyline><polyline points="50.8130081300813,90.65040650406503 51.0670731707317,91.15853658536585 51.37195121951219,91.61585365853658 51.575203252032516,92.07317073170732 51.72764227642276,92.47967479674797 51.880081300813,92.73373983739837 52.083333333333336,92.9369918699187 52.28658536585366,93.03861788617886" fill="none" stroke="black" stroke-width="0.6"></polyline></svg>