<svg height="100" width="100" preserveAspectRatio="xMidYMid meet"><polyline points="23.42479674796748,6.25 23.323170731707318,6.25 23.170731707317074,6.25 23.01829268292683,6.25 22.865853658536587,6.25 22.71341463414634,6.3516260162601625 22.510162601626014,6.504065040650406 22.30691056910569,6.758130081300813 22.0020325203252,6.961382113821138 21.747967479674795,7.215447154471544 21.49390243902439,7.520325203252033 21.1890243902439,7.876016260162602 20.884146341463413,8.282520325203253 20.630081300813007,8.739837398373984 20.32520325203252,9.298780487804878 20.172764227642276,9.908536585365853 20.172764227642276,10.518292682926829 20.172764227642276,11.229674796747966 20.274390243902438,11.839430894308943 20.528455284552845,12.449186991869919 20.884146341463413,13.211382113821138 21.239837398373982,13.871951219512194 21.697154471544714,14.53252032520325 22.205284552845526,15.091463414634147 22.71341463414634,15.396341463414634 23.221544715447155,15.59959349593496 23.729674796747968,15.65040650406504 24.1869918699187,15.65040650406504 24.695121951219512,15.548780487804878 25.254065040650406,15.294715447154472 25.8130081300813,14.989837398373984 26.371951219512194,14.634146341463413 26.880081300813007,14.176829268292682 27.286585365853657,13.821138211382113 27.591463414634145,13.465447154471544 27.84552845528455,13.058943089430894 27.997967479674795,12.550813008130081 28.15040650406504,11.941056910569106 28.20121951219512,11.229674796747966 28.20121951219512,10.56910569105691 28.15040650406504,9.857723577235772 27.997967479674795,9.197154471544716 27.74390243902439,8.536585365853659 27.4390243902439,7.926829268292683 26.98170731707317,7.41869918699187 26.524390243902438,7.0630081300813 26.016260162601625,6.808943089430894 25.508130081300813,6.554878048780488 25.101626016260163,6.300813008130081 24.695121951219512,6.097560975609756 24.339430894308943,5.945121951219512" fill="none" stroke="black" stroke-width="0.6"></polyline><polyline points="24.339430894308943,5.945121951219512 24.034552845528456,5.84349593495935 23.729674796747968,5.7926829268292686 23.42479674796748,5.84349593495935 23.170731707317074,5.995934959349594 22.916666666666668,6.199186991869919 22.662601626016258,6.453252032520325 22.510162601626014,6.65650406504065 22.35772357723577,6.859756097560975 22.30691056910569,6.961382113821138 22.30691056910569,7.012195121951219" fill="none" stroke="black" stroke-width="0.6"></polyline><polyline points="23.678861788617887,12.144308943089431 23.78048780487805,12.347560975609756 23.983739837398375,12.754065040650406 24.441056910569106,13.414634146341463 25.05081300813008,14.1260162601626 25.508130081300813,14.583333333333332 25.914634146341463,14.939024390243903 26.21951219512195,15.24390243902439 26.473577235772357,15.497967479674797 26.6260162601626,15.701219512195122 26.778455284552845,15.904471544715447 26.880081300813007,16.05691056910569 26.93089430894309,16.10772357723577 27.03252032520325,16.209349593495933 27.235772357723576,16.260162601626014 27.489837398373982,16.260162601626014 27.693089430894307,16.209349593495933" fill="none" stroke="black" stroke-width="0.6"></polyline><polyline points="29.725609756097562,10.619918699186991 29.6239837398374,10.670731707317072 29.471544715447155,10.823170731707316 29.369918699186993,11.382113821138212 29.369918699186993,12.245934959349594 29.522357723577237,13.160569105691057 29.67479674796748,13.922764227642276 29.878048780487806,14.48170731707317 30.132113821138212,14.939024390243903 30.4369918699187,15.294715447154472 30.741869918699187,15.548780487804878 31.046747967479675,15.65040650406504 31.351626016260163,15.65040650406504 31.65650406504065,15.65040650406504 31.910569105691057,15.65040650406504 32.21544715447154,15.497967479674797 32.52032520325203,15.294715447154472 32.82520325203252,15.040650406504065 32.97764227642276,14.735772357723578 33.13008130081301,14.380081300813007 33.13008130081301,13.922764227642276 33.18089430894309,13.414634146341463 33.13008130081301,12.804878048780488 33.079268292682926,12.09349593495935 32.926829268292686,11.280487804878048 32.72357723577236,10.721544715447154 32.52032520325203,10.213414634146341 32.266260162601625,9.908536585365853 32.16463414634146,9.857723577235772 32.11382113821138,9.857723577235772 32.11382113821138,9.908536585365853 32.21544715447154,10.010162601626016 32.418699186991866,10.264227642276422" fill="none" stroke="black" stroke-width="0.6"></polyline><polyline points="34.146341463414636,12.09349593495935 34.146341463414636,12.09349593495935 34.09552845528455,12.144308943089431 34.09552845528455,12.296747967479675 34.09552845528455,12.601626016260163 34.197154471544714,13.109756097560975 34.34959349593496,13.66869918699187 34.5020325203252,14.176829268292682 34.65447154471545,14.684959349593496 34.70528455284553,15.19308943089431 34.80691056910569,15.59959349593496 34.857723577235774,15.955284552845528 34.959349593495936,16.006097560975608 35.0609756097561,15.955284552845528" fill="none" stroke="black" stroke-width="0.6"></polyline><polyline points="36.02642276422764,8.94308943089431 35.92479674796748,8.892276422764228 35.670731707317074,8.739837398373984 35.51829268292683,8.689024390243903 35.51829268292683,8.689024390243903 35.51829268292683,8.739837398373984 35.61991869918699,8.892276422764228 35.77235772357724,9.095528455284553 35.92479674796748,9.40040650406504 35.97560975609756,9.603658536585366" fill="none" stroke="black" stroke-width="0.6"></polyline><polyline points="38.82113821138211,14.176829268292682 38.82113821138211,14.1260162601626 38.87195121951219,13.973577235772357 38.922764227642276,13.821138211382113 38.97357723577235,13.516260162601625 38.97357723577235,13.109756097560975 38.97357723577235,12.652439024390244 38.922764227642276,12.245934959349594 38.87195121951219,11.890243902439025 38.77032520325203,11.6869918699187 38.668699186991866,11.483739837398375 38.516260162601625,11.432926829268293 38.36382113821138,11.432926829268293 38.109756097560975,11.432926829268293 37.80487804878049,11.6869918699187 37.449186991869915,12.245934959349594 37.09349593495935,13.008130081300813 36.890243902439025,13.821138211382113 36.78861788617886,14.684959349593496 36.78861788617886,15.497967479674797 37.042682926829265,16.006097560975608 37.39837398373984,16.3109756097561 37.855691056910565,16.463414634146343 38.262195121951216,16.463414634146343 38.71951219512195,16.41260162601626 39.22764227642276,16.209349593495933 39.6849593495935,16.006097560975608 40.142276422764226,15.752032520325203 40.65040650406504,15.447154471544716 41.107723577235774,15.091463414634147 41.514227642276424,14.786585365853659 41.920731707317074,14.380081300813007 42.1239837398374,13.973577235772357" fill="none" stroke="black" stroke-width="0.6"></polyline><polyline points="41.71747967479675,7.215447154471544 41.666666666666664,7.215447154471544 41.514227642276424,7.215447154471544 41.46341463414634,7.317073170731707 41.46341463414634,7.82520325203252 41.514227642276424,8.892276422764228 41.514227642276424,10.315040650406504 41.514227642276424,11.636178861788618 41.514227642276424,12.754065040650406 41.514227642276424,13.71951219512195 41.514227642276424,14.53252032520325 41.5650406504065,15.294715447154472 41.61585365853659,15.802845528455284 41.61585365853659,16.209349593495933 41.666666666666664,16.514227642276424 41.71747967479675,16.615853658536587 41.81910569105691,16.666666666666668 41.86991869918699,16.666666666666668 41.97154471544715,16.615853658536587 42.1239837398374,16.36178861788618 42.3780487804878,15.904471544715447 42.479674796747965,15.548780487804878" fill="none" stroke="black" stroke-width="0.6"></polyline><polyline points="44.512195121951216,8.58739837398374 44.512195121951216,8.536585365853659 44.46138211382114,8.536585365853659 44.46138211382114,8.536585365853659 44.41056910569105,8.790650406504065 44.30894308943089,9.502032520325203 44.105691056910565,10.670731707317072 43.75,11.737804878048781 43.292682926829265,12.652439024390244 42.886178861788615,13.414634146341463 42.53048780487805,13.821138211382113 42.327235772357724,14.024390243902438 42.17479674796748,14.07520325203252 42.1239837398374,14.07520325203252 42.1239837398374,14.024390243902438 42.1239837398374,13.973577235772357 42.27642276422764,13.922764227642276 42.53048780487805,13.871951219512194 42.886178861788615,13.871951219512194 43.1910569105691,13.922764227642276 43.546747967479675,14.1260162601626 43.85162601626016,14.430894308943088 44.105691056910565,14.786585365853659 44.30894308943089,15.142276422764228 44.512195121951216,15.497967479674797 44.66463414634146,15.752032520325203 44.766260162601625,15.904471544715447 44.86788617886179,16.006097560975608 44.96951219512195,16.10772357723577 45.07113821138211,16.260162601626014 45.22357723577235,16.41260162601626 45.42682926829268,16.666666666666668" fill="none" stroke="black" stroke-width="0.6"></polyline><polyline points="47.86585365853659,16.10772357723577 47.916666666666664,16.15853658536585 47.916666666666664,16.209349593495933 48.01829268292683,16.209349593495933 48.170731707317074,16.260162601626014 48.42479674796748,16.209349593495933 48.78048780487805,16.05691056910569 49.23780487804878,15.701219512195122 49.74593495934959,15.040650406504065 50.355691056910565,14.1260162601626 50.86382113821138,13.160569105691057 51.37195121951219,12.195121951219512 51.829268292682926,11.229674796747966 52.1849593495935,10.365853658536585 52.489837398373986,9.34959349593496 52.74390243902439,8.282520325203253 52.896341463414636,7.317073170731707 52.947154471544714,6.402439024390244 52.947154471544714,5.48780487804878 52.79471544715447,4.928861788617886 52.59146341463415,4.67479674796748 52.33739837398374,4.623983739837398 52.083333333333336,4.776422764227642 51.77845528455284,5.182926829268292 51.37195121951219,5.995934959349594 51.0670731707317,7.012195121951219 50.762195121951216,8.282520325203253 50.50813008130081,9.75609756097561 50.40650406504065,11.382113821138212 50.355691056910565,13.363821138211382 50.355691056910565,15.497967479674797 50.40650406504065,17.17479674796748 50.609756097560975,18.445121951219512 50.96544715447154,19.410569105691057 51.37195121951219,19.96951219512195 51.77845528455284,20.426829268292682 52.1849593495935,20.78252032520325 52.540650406504064,20.985772357723576 52.896341463414636,21.1890243902439 53.2520325203252,21.239837398373982 53.55691056910569,21.290650406504064 53.8109756097561,21.290650406504064 54.014227642276424,21.239837398373982 54.0650406504065,21.1890243902439 54.0650406504065,21.08739837398374 53.91260162601626,20.934959349593495 53.65853658536585,20.579268292682926 53.201219512195124,19.96951219512195 52.69308943089431,19.15650406504065 52.1849593495935,18.241869918699187 51.67682926829268,17.276422764227643" fill="none" stroke="black" stroke-width="0.6"></polyline><polyline points="51.67682926829268,17.276422764227643 51.0670731707317,16.209349593495933 50.50813008130081,15.345528455284553 50.10162601626016,14.786585365853659 49.74593495934959,14.430894308943088 49.59349593495935,14.329268292682926 49.49186991869919,14.278455284552845 49.49186991869919,14.278455284552845 49.69512195121951,14.278455284552845 50.05081300813008,14.227642276422763 50.50813008130081,14.227642276422763 51.11788617886179,14.227642276422763 51.77845528455284,14.227642276422763 52.489837398373986,14.176829268292682 53.15040650406504,13.973577235772357 53.86178861788618,13.71951219512195 54.52235772357724,13.3130081300813 54.979674796747965,12.90650406504065 55.386178861788615,12.5 55.640243902439025,12.144308943089431 55.792682926829265,11.941056910569106 55.792682926829265,11.839430894308943 55.792682926829265,11.788617886178862 55.74186991869919,11.788617886178862 55.58943089430894,11.941056910569106 55.28455284552845,12.347560975609756 54.92886178861789,12.957317073170731 54.6239837398374,13.71951219512195 54.36991869918699,14.380081300813007 54.26829268292683,15.040650406504065 54.26829268292683,15.701219512195122 54.420731707317074,16.10772357723577 54.67479674796748,16.3109756097561 54.92886178861789,16.41260162601626 55.18292682926829,16.41260162601626 55.4369918699187,16.36178861788618 55.6910569105691,16.209349593495933 55.94512195121951,16.006097560975608 56.25,15.65040650406504 56.5040650406504,15.19308943089431 56.65650406504065,14.735772357723578 56.80894308943089,14.329268292682926 56.80894308943089,13.973577235772357 56.75813008130081,13.617886178861788 56.55487804878049,13.3130081300813 56.25,12.957317073170731 55.94512195121951,12.652439024390244 55.640243902439025,12.449186991869919 55.28455284552845,12.245934959349594 55.03048780487805,12.195121951219512 54.827235772357724,12.245934959349594" fill="none" stroke="black" stroke-width="0.6"></polyline><polyline points="54.827235772357724,12.245934959349594 54.72560975609756,12.347560975609756 54.72560975609756,12.449186991869919 54.77642276422764,12.550813008130081 54.979674796747965,12.601626016260163 55.28455284552845,12.652439024390244 55.640243902439025,12.703252032520325 56.046747967479675,12.703252032520325 56.5040650406504,12.703252032520325 56.96138211382114,12.703252032520325 57.418699186991866,12.652439024390244 57.825203252032516,12.601626016260163 58.130081300813,12.550813008130081 58.43495934959349,12.550813008130081 58.58739837398374,12.652439024390244 58.6890243902439,12.90650406504065 58.790650406504064,13.3130081300813 58.790650406504064,13.922764227642276 58.790650406504064,14.634146341463413 58.790650406504064,15.19308943089431 58.892276422764226,15.59959349593496 58.99390243902439,15.853658536585366 59.197154471544714,16.006097560975608 59.40040650406504,16.10772357723577 59.70528455284553,16.15853658536585 60.0609756097561,16.10772357723577 60.46747967479675,15.955284552845528 60.97560975609756,15.59959349593496 61.483739837398375,15.19308943089431 61.9410569105691,14.888211382113822 62.34756097560975,14.684959349593496 62.703252032520325,14.48170731707317 63.00813008130081,14.430894308943088 63.16056910569105,14.430894308943088 63.36382113821138,14.380081300813007 63.46544715447154,14.278455284552845 63.61788617886179,14.176829268292682 63.77032520325203,13.922764227642276 63.87195121951219,13.66869918699187 63.97357723577235,13.262195121951219 64.07520325203252,12.855691056910569 64.17682926829268,12.550813008130081 64.27845528455285,12.296747967479675 64.32926829268293,12.144308943089431 64.380081300813,12.09349593495935 64.43089430894308,12.09349593495935 64.48170731707317,12.042682926829269 64.48170731707317,12.042682926829269" fill="none" stroke="black" stroke-width="0.6"></polyline><polyline points="62.24593495934959,9.959349593495935 62.14430894308943,9.959349593495935 62.042682926829265,9.959349593495935 61.99186991869919,9.959349593495935 61.99186991869919,9.959349593495935 61.9410569105691,10.060975609756097 61.9410569105691,10.365853658536585 61.83943089430894,11.077235772357723 61.6869918699187,12.144308943089431 61.43292682926829,13.414634146341463 61.28048780487805,14.583333333333332 61.1280487804878,15.447154471544716 61.077235772357724,16.05691056910569 60.92479674796748,16.565040650406505 60.823170731707314,16.971544715447155 60.670731707317074,17.225609756097562 60.61991869918699,17.428861788617887 60.61991869918699,17.58130081300813 60.61991869918699,17.632113821138212 60.72154471544715,17.682926829268293 60.92479674796748,17.682926829268293" fill="none" stroke="black" stroke-width="0.6"></polyline><polyline points="69.10569105691057,11.382113821138212 69.10569105691057,11.331300813008129 69.10569105691057,11.178861788617885 69.05487804878048,11.077235772357723 69.05487804878048,11.026422764227641 69.05487804878048,11.026422764227641 69.05487804878048,11.026422764227641 69.05487804878048,11.280487804878048 69.10569105691057,11.890243902439025 69.20731707317073,13.008130081300813 69.3089430894309,14.227642276422763 69.51219512195122,15.548780487804878 69.71544715447155,16.76829268292683 69.8170731707317,17.682926829268293 69.86788617886178,18.495934959349594 69.86788617886178,19.308943089430894 69.76626016260163,19.96951219512195 69.5630081300813,20.630081300813007 69.2581300813008,21.1890243902439 68.85162601626016,21.59552845528455 68.34349593495935,21.95121951219512 67.78455284552845,22.205284552845526 67.17479674796748,22.35772357723577 66.5650406504065,22.35772357723577 66.0060975609756,22.30691056910569 65.59959349593495,22.052845528455283 65.29471544715447,21.646341463414632 65.14227642276423,20.934959349593495 65.09146341463415,19.96951219512195 65.04065040650406,18.80081300813008 65.04065040650406,18.089430894308943" fill="none" stroke="black" stroke-width="0.6"></polyline><polyline points="68.34349593495935,8.689024390243903 68.29268292682927,8.638211382113822 68.24186991869918,8.638211382113822 68.14024390243902,8.58739837398374 68.08943089430895,8.58739837398374 68.03861788617886,8.536585365853659 67.98780487804878,8.536585365853659 67.98780487804878,8.536585365853659 67.98780487804878,8.536585365853659 68.08943089430895,8.638211382113822 68.24186991869918,8.739837398373984 68.4451219512195,8.892276422764228 68.59756097560975,9.095528455284553 68.80081300813008,9.247967479674797 68.85162601626016,9.298780487804878" fill="none" stroke="black" stroke-width="0.6"></polyline><polyline points="71.69715447154472,12.703252032520325 71.64634146341463,12.601626016260163 71.54471544715447,12.398373983739837 71.49390243902438,12.195121951219512 71.39227642276423,11.890243902439025 71.34146341463415,11.6869918699187 71.29065040650406,11.483739837398375 71.29065040650406,11.229674796747966 71.29065040650406,11.077235772357723 71.29065040650406,10.97560975609756 71.29065040650406,10.873983739837398 71.29065040650406,10.873983739837398 71.29065040650406,10.873983739837398 71.29065040650406,10.924796747967479 71.29065040650406,11.178861788617885 71.29065040650406,11.534552845528456 71.29065040650406,12.09349593495935 71.29065040650406,12.703252032520325 71.39227642276423,13.363821138211382 71.49390243902438,14.024390243902438 71.69715447154472,14.684959349593496 71.95121951219512,15.294715447154472 72.2560975609756,15.802845528455284 72.66260162601625,16.05691056910569 73.01829268292683,16.10772357723577 73.32317073170732,16.006097560975608 73.6280487804878,15.752032520325203 73.9329268292683,15.447154471544716 74.1869918699187,14.989837398373984 74.39024390243902,14.53252032520325 74.59349593495935,14.024390243902438 74.7459349593496,13.567073170731707 74.79674796747967,13.160569105691057 74.84756097560975,12.804878048780488 74.84756097560975,12.347560975609756 74.79674796747967,11.941056910569106 74.7459349593496,11.585365853658537 74.6951219512195,11.483739837398375 74.64430894308943,11.483739837398375 74.54268292682927,11.6869918699187 74.49186991869918,12.09349593495935 74.4410569105691,12.652439024390244 74.4410569105691,13.211382113821138 74.4410569105691,13.821138211382113 74.49186991869918,14.430894308943088 74.64430894308943,15.040650406504065 74.84756097560975,15.65040650406504 75.05081300813008,16.05691056910569 75.30487804878048,16.3109756097561 75.5081300813008,16.41260162601626 75.71138211382113,16.41260162601626" fill="none" stroke="black" stroke-width="0.6"></polyline><polyline points="75.71138211382113,16.41260162601626 75.96544715447155,16.41260162601626 76.16869918699187,16.260162601626014 76.3719512195122,16.10772357723577 76.57520325203252,15.853658536585366 76.77845528455285,15.59959349593496 76.93089430894308,15.294715447154472 77.1341463414634,14.888211382113822 77.28658536585365,14.48170731707317 77.38821138211382,14.024390243902438 77.48983739837398,13.516260162601625 77.59146341463415,13.008130081300813 77.6930894308943,12.550813008130081 77.79471544715447,12.195121951219512 77.89634146341463,12.09349593495935 77.9979674796748,12.09349593495935 78.04878048780488,12.245934959349594 78.15040650406505,12.550813008130081 78.20121951219512,13.008130081300813 78.2520325203252,13.516260162601625 78.30284552845528,13.922764227642276 78.35365853658537,14.329268292682926 78.35365853658537,14.786585365853659 78.35365853658537,15.091463414634147 78.30284552845528,15.396341463414634 78.2520325203252,15.59959349593496 78.20121951219512,15.802845528455284 78.15040650406505,15.904471544715447 78.15040650406505,15.955284552845528 78.15040650406505,15.955284552845528 78.15040650406505,15.955284552845528 78.15040650406505,15.955284552845528 78.15040650406505,15.904471544715447 78.15040650406505,15.853658536585366 78.2520325203252,15.701219512195122 78.40447154471545,15.396341463414634 78.65853658536585,15.040650406504065 78.96341463414635,14.684959349593496 79.16666666666667,14.430894308943088 79.369918699187,14.329268292682926 79.52235772357723,14.278455284552845 79.6239837398374,14.380081300813007 79.72560975609755,14.684959349593496 79.77642276422765,14.989837398373984 79.82723577235772,15.345528455284553 79.82723577235772,15.65040650406504 79.82723577235772,15.904471544715447 79.82723577235772,16.006097560975608 79.77642276422765,16.006097560975608 79.77642276422765,16.05691056910569 79.77642276422765,16.05691056910569" fill="none" stroke="black" stroke-width="0.6"></polyline><polyline points="79.77642276422765,16.05691056910569 79.77642276422765,16.006097560975608 79.77642276422765,15.904471544715447 79.77642276422765,15.802845528455284 79.92886178861788,15.548780487804878 80.1321138211382,15.24390243902439 80.4369918699187,14.888211382113822 80.64024390243902,14.634146341463413 80.84349593495935,14.53252032520325 80.9959349593496,14.48170731707317 81.09756097560975,14.634146341463413 81.14837398373983,14.888211382113822 81.19918699186992,15.24390243902439 81.25,15.548780487804878 81.35162601626016,15.802845528455284 81.5040650406504,15.955284552845528 81.65650406504065,16.05691056910569 81.8089430894309,16.05691056910569 81.96138211382113,16.006097560975608 82.11382113821138,15.853658536585366 82.26626016260163,15.65040650406504 82.41869918699187,15.396341463414634 82.5711382113821,15.091463414634147 82.72357723577235,14.735772357723578 82.8760162601626,14.227642276422763 83.07926829268293,13.617886178861788 83.28252032520325,12.957317073170731 83.58739837398373,12.144308943089431 83.89227642276423,11.229674796747966 84.14634146341463,10.467479674796747 84.2479674796748,9.959349593495935 84.29878048780488,9.908536585365853 84.29878048780488,10.010162601626016 84.1971544715447,10.365853658536585 84.04471544715447,11.178861788617885 83.84146341463415,12.144308943089431 83.6890243902439,13.211382113821138 83.53658536585365,14.380081300813007 83.3841463414634,15.396341463414634 83.28252032520325,16.36178861788618 83.130081300813,17.225609756097562 82.97764227642276,17.88617886178862 82.8760162601626,18.39430894308943 82.67276422764228,18.80081300813008 82.46951219512195,19.15650406504065 82.26626016260163,19.461382113821138 82.0630081300813,19.61382113821138 81.96138211382113,19.664634146341463 81.91056910569105,19.664634146341463 81.91056910569105,19.664634146341463 81.91056910569105,19.664634146341463" fill="none" stroke="black" stroke-width="0.6"></polyline><polyline points="81.91056910569105,19.664634146341463 81.91056910569105,19.61382113821138 81.85975609756098,19.410569105691057 81.91056910569105,18.902439024390244 82.0630081300813,17.9369918699187 82.36788617886178,16.666666666666668 82.77439024390243,15.345528455284553 83.33333333333333,13.922764227642276 83.89227642276423,12.855691056910569 84.2479674796748,12.5 84.40040650406503,12.550813008130081 84.55284552845528,12.754065040650406 84.60365853658537,13.109756097560975 84.60365853658537,13.66869918699187 84.5020325203252,14.278455284552845 84.29878048780488,14.83739837398374 84.04471544715447,15.294715447154472 83.73983739837398,15.752032520325203 83.48577235772358,16.10772357723577 83.28252032520325,16.36178861788618 83.130081300813,16.565040650406505 83.07926829268293,16.615853658536587 83.07926829268293,16.666666666666668 83.130081300813,16.71747967479675 83.28252032520325,16.76829268292683 83.48577235772358,16.81910569105691 83.79065040650406,16.81910569105691 84.14634146341463,16.76829268292683 84.5020325203252,16.514227642276424 84.90853658536585,16.15853658536585 85.26422764227642,15.802845528455284 85.5691056910569,15.345528455284553 85.8739837398374,14.888211382113822 86.1280487804878,14.380081300813007 86.3821138211382,13.871951219512194 86.63617886178862,13.211382113821138 86.83943089430895,12.601626016260163 86.99186991869918,12.144308943089431 87.04268292682927,11.941056910569106 87.04268292682927,11.991869918699187 87.04268292682927,12.042682926829269 86.99186991869918,12.195121951219512 86.99186991869918,12.5 86.99186991869918,13.058943089430894 86.99186991869918,13.567073170731707 86.99186991869918,14.07520325203252 86.99186991869918,14.583333333333332 86.99186991869918,14.989837398373984 86.9410569105691,15.294715447154472 86.83943089430895,15.65040650406504 86.6869918699187,15.853658536585366" fill="none" stroke="black" stroke-width="0.6"></polyline><polyline points="86.6869918699187,15.853658536585366 86.48373983739837,16.006097560975608 86.28048780487805,16.10772357723577 86.02642276422765,16.209349593495933 85.82317073170732,16.209349593495933 85.619918699187,16.209349593495933 85.46747967479675,16.10772357723577 85.36585365853658,16.006097560975608 85.3150406504065,15.802845528455284 85.3150406504065,15.497967479674797 85.36585365853658,15.142276422764228 85.46747967479675,14.83739837398374 85.619918699187,14.684959349593496 85.77235772357723,14.684959349593496 85.92479674796748,14.684959349593496 86.17886178861788,14.888211382113822 86.48373983739837,15.091463414634147 86.83943089430895,15.294715447154472 87.1951219512195,15.396341463414634 87.65243902439025,15.447154471544716 88.16056910569105,15.19308943089431 88.77032520325203,14.684959349593496 89.32926829268293,13.973577235772357 89.78658536585365,13.363821138211382 90.09146341463415,12.855691056910569 90.24390243902438,12.296747967479675 90.34552845528455,11.839430894308943 90.34552845528455,11.432926829268293 90.14227642276423,10.924796747967479 89.83739837398373,10.416666666666666 89.53252032520325,10.010162601626016 89.27845528455285,9.80691056910569 89.02439024390243,9.705284552845528 88.92276422764228,9.654471544715447 88.92276422764228,9.654471544715447 88.97357723577235,9.705284552845528 89.22764227642276,9.705284552845528" fill="none" stroke="black" stroke-width="0.6"></polyline><polyline points="14.430894308943088,35.264227642276424 14.278455284552845,35.3150406504065 14.1260162601626,35.416666666666664 14.1260162601626,35.46747967479675 14.1260162601626,35.51829268292683 14.278455284552845,35.51829268292683 14.430894308943088,35.56910569105691 14.583333333333332,35.51829268292683 14.786585365853659,35.46747967479675 14.939024390243903,35.36585365853659 15.091463414634147,35.264227642276424 15.24390243902439,35.11178861788618 15.345528455284553,34.857723577235774 15.497967479674797,34.603658536585364 15.59959349593496,34.2479674796748 15.701219512195122,33.790650406504064 15.802845528455284,33.28252032520325 15.853658536585366,32.672764227642276 15.904471544715447,32.11382113821138 15.955284552845528,31.554878048780488 15.955284552845528,31.19918699186992 16.006097560975608,30.995934959349594 16.10772357723577,30.945121951219512 16.260162601626014,30.995934959349594 16.514227642276424,31.25 16.81910569105691,31.758130081300813 17.1239837398374,32.36788617886179 17.428861788617887,33.02845528455285 17.733739837398375,33.6890243902439 17.88617886178862,34.298780487804876 17.98780487804878,34.80691056910569 17.98780487804878,35.21341463414634 17.98780487804878,35.36585365853659 17.98780487804878,35.36585365853659 17.98780487804878,35.36585365853659 17.98780487804878,35.3150406504065 17.98780487804878,35.264227642276424 17.98780487804878,35.11178861788618 17.98780487804878,34.75609756097561 18.038617886178862,34.2479674796748 18.191056910569106,33.63821138211382 18.34349593495935,33.13008130081301 18.546747967479675,32.672764227642276 18.80081300813008,32.21544715447154 19.054878048780488,32.012195121951216 19.258130081300813,32.012195121951216 19.461382113821138,32.0630081300813 19.61382113821138,32.21544715447154 19.817073170731707,32.52032520325203 20.020325203252032,32.97764227642276 20.223577235772357,33.4349593495935" fill="none" stroke="black" stroke-width="0.6"></polyline><polyline points="20.223577235772357,33.4349593495935 20.3760162601626,33.94308943089431 20.528455284552845,34.603658536585364 20.630081300813007,35.16260162601626 20.78252032520325,35.61991869918699 20.884146341463413,35.823170731707314 21.08739837398374,35.823170731707314 21.239837398373982,35.72154471544715 21.49390243902439,35.416666666666664 21.747967479674795,34.959349593495936 21.95121951219512,34.451219512195124 22.103658536585364,33.892276422764226 22.154471544715445,33.485772357723576 22.154471544715445,33.079268292682926 22.154471544715445,32.72357723577236 22.052845528455283,32.46951219512195 22.0020325203252,32.418699186991866 21.95121951219512,32.36788617886179 21.90040650406504,32.52032520325203 21.90040650406504,32.82520325203252 21.90040650406504,33.333333333333336 21.90040650406504,33.84146341463415 22.0020325203252,34.40040650406504 22.103658536585364,34.90853658536585 22.30691056910569,35.416666666666664 22.560975609756095,35.77235772357724 22.865853658536587,35.97560975609756 23.119918699186993,36.02642276422764 23.3739837398374,35.8739837398374 23.628048780487806,35.670731707317074 23.882113821138212,35.3150406504065 24.13617886178862,34.90853658536585 24.390243902439025,34.451219512195124 24.59349593495935,33.94308943089431 24.745934959349594,33.333333333333336 24.94918699186992,32.72357723577236 25.152439024390244,32.3170731707317 25.254065040650406,32.0630081300813 25.40650406504065,32.012195121951216 25.558943089430894,32.11382113821138 25.711382113821138,32.36788617886179 25.86382113821138,32.672764227642276 26.016260162601625,32.926829268292686 26.16869918699187,33.18089430894309 26.270325203252032,33.38414634146341 26.371951219512194,33.485772357723576 26.371951219512194,33.53658536585366 26.371951219512194,33.53658536585366 26.371951219512194,33.53658536585366 26.371951219512194,33.53658536585366 26.371951219512194,33.485772357723576" fill="none" stroke="black" stroke-width="0.6"></polyline><polyline points="26.371951219512194,33.485772357723576 26.371951219512194,33.4349593495935 26.321138211382113,33.38414634146341 26.270325203252032,33.28252032520325 26.21951219512195,33.13008130081301 26.117886178861788,33.02845528455285 26.016260162601625,32.8760162601626 25.914634146341463,32.77439024390244 25.711382113821138,32.672764227642276 25.558943089430894,32.672764227642276 25.35569105691057,32.82520325203252 25.203252032520325,33.28252032520325 25.05081300813008,33.892276422764226 25.05081300813008,34.603658536585364 25.05081300813008,35.264227642276424 25.254065040650406,35.670731707317074 25.45731707317073,35.8739837398374 25.660569105691057,35.92479674796748 25.8130081300813,35.8739837398374 25.914634146341463,35.77235772357724 25.965447154471544,35.56910569105691 26.016260162601625,35.3150406504065 26.067073170731707,35.010162601626014 26.117886178861788,34.65447154471545 26.117886178861788,34.34959349593496 26.117886178861788,33.99390243902439 26.117886178861788,33.63821138211382 26.117886178861788,33.38414634146341 26.16869918699187,33.28252032520325 26.21951219512195,33.23170731707317 26.371951219512194,33.333333333333336 26.524390243902438,33.63821138211382 26.727642276422763,34.197154471544714 26.880081300813007,34.857723577235774 27.083333333333332,35.56910569105691 27.184959349593495,36.38211382113821 27.235772357723576,37.19512195121951 27.235772357723576,38.05894308943089 27.134146341463413,38.922764227642276 26.93089430894309,39.63414634146341 26.727642276422763,40.24390243902439 26.473577235772357,40.7520325203252 26.270325203252032,41.05691056910569 26.067073170731707,41.260162601626014 25.914634146341463,41.260162601626014 25.76219512195122,41.260162601626014 25.660569105691057,41.00609756097561 25.609756097560975,40.548780487804876 25.609756097560975,39.78658536585366 25.609756097560975,38.922764227642276 25.76219512195122,37.90650406504065" fill="none" stroke="black" stroke-width="0.6"></polyline><polyline points="25.76219512195122,37.90650406504065 25.965447154471544,36.9410569105691 26.321138211382113,35.823170731707314 26.727642276422763,34.552845528455286 27.184959349593495,33.23170731707317 27.591463414634145,31.859756097560975 27.896341463414632,30.640243902439025 28.099593495934958,29.573170731707318 28.20121951219512,28.55691056910569 28.302845528455283,27.79471544715447 28.302845528455283,27.03252032520325 28.2520325203252,26.422764227642276 28.048780487804876,26.016260162601625 27.74390243902439,25.711382113821138 27.489837398373982,25.609756097560975 27.286585365853657,25.660569105691057 27.134146341463413,26.117886178861788 26.98170731707317,26.98170731707317 26.880081300813007,28.048780487804876 26.880081300813007,29.31910569105691 26.880081300813007,30.640243902439025 26.98170731707317,31.859756097560975 27.134146341463413,33.02845528455285 27.235772357723576,34.197154471544714 27.286585365853657,35.010162601626014 27.286585365853657,35.670731707317074 27.286585365853657,36.17886178861789 27.235772357723576,36.43292682926829 27.235772357723576,36.53455284552845 27.235772357723576,36.53455284552845 27.235772357723576,36.483739837398375 27.235772357723576,36.28048780487805 27.33739837398374,35.77235772357724 27.540650406504064,34.857723577235774 27.79471544715447,33.6890243902439 28.099593495934958,32.46951219512195 28.302845528455283,31.60569105691057 28.404471544715445,31.19918699186992 28.506097560975608,31.19918699186992 28.65853658536585,31.60569105691057 28.760162601626014,32.266260162601625 28.96341463414634,33.079268292682926 29.217479674796746,33.6890243902439 29.573170731707318,34.197154471544714 29.979674796747968,34.603658536585364 30.38617886178862,34.75609756097561 30.79268292682927,34.75609756097561 31.097560975609756,34.70528455284553 31.351626016260163,34.5020325203252 31.554878048780488,34.197154471544714 31.758130081300813,33.84146341463415" fill="none" stroke="black" stroke-width="0.6"></polyline><polyline points="31.758130081300813,33.84146341463415 31.961382113821138,33.38414634146341 32.11382113821138,32.82520325203252 32.21544715447154,32.16463414634146 32.3170731707317,31.402439024390244 32.36788617886179,30.48780487804878 32.418699186991866,29.31910569105691 32.418699186991866,28.099593495934958 32.418699186991866,26.880081300813007 32.36788617886179,25.965447154471544 32.266260162601625,25.508130081300813 32.16463414634146,25.45731707317073 32.11382113821138,25.45731707317073 32.11382113821138,25.508130081300813 32.11382113821138,25.76219512195122 32.012195121951216,26.422764227642276 31.859756097560975,27.4390243902439 31.758130081300813,28.65853658536585 31.65650406504065,29.928861788617887 31.554878048780488,31.30081300813008 31.504065040650406,32.72357723577236 31.453252032520325,33.892276422764226 31.453252032520325,34.552845528455286 31.453252032520325,34.90853658536585 31.504065040650406,35.21341463414634 31.554878048780488,35.36585365853659 31.60569105691057,35.46747967479675 31.65650406504065,35.46747967479675 31.65650406504065,35.416666666666664 31.70731707317073,35.36585365853659 31.758130081300813,35.16260162601626 31.961382113821138,34.65447154471545 32.21544715447154,33.790650406504064 32.46951219512195,32.8760162601626 32.672764227642276,31.961382113821138 32.926829268292686,31.046747967479675 33.02845528455285,30.538617886178862 33.02845528455285,30.38617886178862 33.079268292682926,30.48780487804878 33.079268292682926,30.741869918699187 33.13008130081301,31.19918699186992 33.18089430894309,31.859756097560975 33.28252032520325,32.52032520325203 33.38414634146341,33.02845528455285 33.53658536585366,33.485772357723576 33.739837398373986,33.63821138211382 33.94308943089431,33.739837398373986 34.146341463414636,33.739837398373986 34.298780487804876,33.6890243902439 34.451219512195124,33.63821138211382 34.603658536585364,33.485772357723576" fill="none" stroke="black" stroke-width="0.6"></polyline><polyline points="34.603658536585364,33.485772357723576 34.70528455284553,33.333333333333336 34.857723577235774,33.18089430894309 35.010162601626014,32.97764227642276 35.11178861788618,32.82520325203252 35.21341463414634,32.6219512195122 35.3150406504065,32.36788617886179 35.416666666666664,32.11382113821138 35.46747967479675,31.859756097560975 35.51829268292683,31.504065040650406 35.51829268292683,31.097560975609756 35.56910569105691,30.589430894308943 35.670731707317074,30.03048780487805 35.72154471544715,29.573170731707318 35.823170731707314,29.0650406504065 35.8739837398374,28.60772357723577 35.97560975609756,28.20121951219512 36.02642276422764,27.84552845528455 36.077235772357724,27.489837398373982 36.1280487804878,27.184959349593495 36.1280487804878,26.880081300813007 36.1280487804878,26.524390243902438 36.077235772357724,26.16869918699187 36.02642276422764,25.8130081300813 35.92479674796748,25.558943089430894 35.8739837398374,25.45731707317073 35.823170731707314,25.45731707317073 35.823170731707314,25.45731707317073 35.77235772357724,25.45731707317073 35.77235772357724,25.508130081300813 35.77235772357724,25.508130081300813 35.77235772357724,25.558943089430894 35.72154471544715,25.609756097560975 35.670731707317074,25.711382113821138 35.61991869918699,25.86382113821138 35.56910569105691,26.067073170731707 35.46747967479675,26.422764227642276 35.36585365853659,26.829268292682926 35.21341463414634,27.489837398373982 35.11178861788618,28.2520325203252 35.010162601626014,29.166666666666664 34.959349593495936,30.08130081300813 34.90853658536585,30.945121951219512 34.90853658536585,31.65650406504065 34.857723577235774,32.266260162601625 34.857723577235774,32.8760162601626 34.857723577235774,33.4349593495935 34.857723577235774,33.94308943089431 34.857723577235774,34.2479674796748 34.959349593495936,34.552845528455286 35.0609756097561,34.75609756097561" fill="none" stroke="black" stroke-width="0.6"></polyline><polyline points="35.0609756097561,34.75609756097561 35.11178861788618,34.80691056910569 35.16260162601626,34.80691056910569 35.21341463414634,34.75609756097561 35.264227642276424,34.603658536585364 35.416666666666664,34.298780487804876 35.61991869918699,33.739837398373986 35.823170731707314,33.23170731707317 35.97560975609756,32.72357723577236 36.1280487804878,32.11382113821138 36.28048780487805,31.554878048780488 36.38211382113821,31.148373983739837 36.38211382113821,30.945121951219512 36.38211382113821,30.995934959349594 36.38211382113821,31.30081300813008 36.38211382113821,31.910569105691057 36.38211382113821,32.52032520325203 36.483739837398375,33.079268292682926 36.58536585365854,33.53658536585366 36.78861788617886,33.790650406504064 36.99186991869919,33.94308943089431 37.24593495934959,33.94308943089431 37.449186991869915,33.84146341463415 37.703252032520325,33.58739837398374 37.95731707317073,33.18089430894309 38.16056910569105,32.82520325203252 38.36382113821138,32.418699186991866 38.46544715447154,32.0630081300813 38.516260162601625,31.859756097560975 38.516260162601625,31.65650406504065 38.516260162601625,31.504065040650406 38.516260162601625,31.504065040650406 38.516260162601625,31.504065040650406 38.46544715447154,31.808943089430894 38.46544715447154,32.57113821138211 38.41463414634146,33.53658536585366 38.41463414634146,34.65447154471545 38.36382113821138,35.77235772357724 38.21138211382114,36.890243902439025 38.00813008130081,37.90650406504065 37.703252032520325,38.77032520325203 37.34756097560975,39.53252032520325 36.99186991869919,40.19308943089431 36.636178861788615,40.701219512195124 36.229674796747965,41.107723577235774 35.72154471544715,41.36178861788618 35.21341463414634,41.514227642276424 34.65447154471545,41.5650406504065 34.09552845528455,41.41260162601626 33.63821138211382,41.00609756097561 33.28252032520325,40.34552845528455" fill="none" stroke="black" stroke-width="0.6"></polyline><polyline points="33.28252032520325,40.34552845528455 32.97764227642276,39.38008130081301 32.8760162601626,38.16056910569105 32.926829268292686,37.042682926829265 33.28252032520325,36.02642276422764 33.790650406504064,35.264227642276424 34.40040650406504,34.603658536585364 35.11178861788618,34.04471544715447 35.72154471544715,33.6890243902439 36.38211382113821,33.38414634146341 37.042682926829265,33.13008130081301 37.65243902439024,32.8760162601626 38.3130081300813,32.57113821138211 38.87195121951219,32.3170731707317 39.22764227642276,32.0630081300813 39.53252032520325,31.859756097560975 39.583333333333336,31.70731707317073 39.53252032520325,31.60569105691057 39.38008130081301,31.504065040650406 39.22764227642276,31.453252032520325" fill="none" stroke="black" stroke-width="0.6"></polyline><polyline points="29.31910569105691,29.01422764227642 29.268292682926827,29.01422764227642 29.268292682926827,29.01422764227642 29.31910569105691,29.01422764227642 29.67479674796748,29.01422764227642 30.182926829268293,28.96341463414634 30.945121951219512,28.912601626016258 31.910569105691057,28.861788617886177 32.672764227642276,28.810975609756095 33.28252032520325,28.709349593495933 33.790650406504064,28.709349593495933 34.09552845528455,28.65853658536585 34.40040650406504,28.60772357723577 34.603658536585364,28.506097560975608 34.75609756097561,28.455284552845526 34.75609756097561,28.404471544715445 34.70528455284553,28.353658536585364 34.451219512195124,28.2520325203252" fill="none" stroke="black" stroke-width="0.6"></polyline><polyline points="23.06910569105691,25.711382113821138 22.611788617886177,25.660569105691057 22.459349593495933,25.609756097560975 22.459349593495933,25.609756097560975 22.560975609756095,25.609756097560975 22.611788617886177,25.660569105691057 22.71341463414634,25.76219512195122 22.865853658536587,25.914634146341463" fill="none" stroke="black" stroke-width="0.6"></polyline><polyline points="45.02032520325203,32.012195121951216 45.02032520325203,32.11382113821138 45.02032520325203,32.16463414634146 45.02032520325203,32.21544715447154 45.02032520325203,32.266260162601625 45.07113821138211,32.3170731707317 45.12195121951219,32.3170731707317 45.172764227642276,32.3170731707317 45.22357723577235,32.3170731707317 45.22357723577235,32.266260162601625 45.27439024390244,32.16463414634146 45.27439024390244,32.012195121951216 45.325203252032516,31.808943089430894 45.325203252032516,31.60569105691057 45.27439024390244,31.402439024390244 45.172764227642276,31.19918699186992 44.96951219512195,31.046747967479675 44.71544715447154,30.89430894308943 44.359756097560975,30.741869918699187 43.953252032520325,30.741869918699187 43.546747967479675,30.84349593495935 43.08943089430894,31.148373983739837 42.78455284552845,31.60569105691057 42.53048780487805,32.266260162601625 42.42886178861789,33.02845528455285 42.42886178861789,33.6890243902439 42.63211382113821,34.2479674796748 42.886178861788615,34.603658536585364 43.24186991869919,34.75609756097561 43.64837398373984,34.75609756097561 44.0040650406504,34.70528455284553 44.30894308943089,34.451219512195124 44.66463414634146,34.146341463414636 44.86788617886179,33.84146341463415 45.07113821138211,33.53658536585366 45.22357723577235,33.23170731707317 45.325203252032516,33.02845528455285 45.325203252032516,32.8760162601626 45.325203252032516,32.82520325203252 45.325203252032516,32.82520325203252 45.325203252032516,32.8760162601626 45.325203252032516,32.97764227642276 45.325203252032516,33.18089430894309 45.325203252032516,33.485772357723576 45.47764227642276,33.739837398373986 45.63008130081301,33.99390243902439 45.833333333333336,34.197154471544714 46.13821138211382,34.34959349593496 46.392276422764226,34.34959349593496 46.646341463414636,34.2479674796748 47.0020325203252,33.99390243902439" fill="none" stroke="black" stroke-width="0.6"></polyline><polyline points="47.0020325203252,33.99390243902439 47.357723577235774,33.53658536585366 47.71341463414634,33.02845528455285 48.01829268292683,32.418699186991866 48.22154471544715,31.859756097560975 48.323170731707314,31.25 48.42479674796748,30.691056910569106 48.47560975609756,30.132113821138212 48.47560975609756,29.522357723577237 48.47560975609756,28.810975609756095 48.47560975609756,28.2520325203252 48.3739837398374,27.642276422764226 48.170731707317074,27.134146341463413 47.96747967479675,26.829268292682926 47.764227642276424,26.727642276422763 47.61178861788618,26.727642276422763 47.459349593495936,27.03252032520325 47.357723577235774,27.79471544715447 47.25609756097561,28.912601626016258 47.25609756097561,30.233739837398375 47.357723577235774,31.60569105691057 47.61178861788618,33.18089430894309 47.916666666666664,34.552845528455286 48.27235772357724,35.61991869918699 48.6280487804878,36.28048780487805 48.93292682926829,36.636178861788615 49.23780487804878,36.890243902439025 49.49186991869919,37.042682926829265 49.74593495934959,37.09349593495935 50,37.14430894308943 50.203252032520325,37.042682926829265 50.45731707317073,36.78861788617886 50.66056910569105,36.38211382113821 50.86382113821138,35.8739837398374 51.016260162601625,35.3150406504065 51.0670731707317,34.75609756097561 51.11788617886179,34.146341463414636 51.11788617886179,33.63821138211382 51.016260162601625,33.13008130081301 50.86382113821138,32.72357723577236 50.762195121951216,32.52032520325203 50.762195121951216,32.46951219512195 50.71138211382114,32.52032520325203 50.762195121951216,32.672764227642276 50.91463414634146,33.02845528455285 51.0670731707317,33.485772357723576 51.27032520325203,33.94308943089431 51.52439024390244,34.40040650406504 51.77845528455284,34.70528455284553 52.03252032520325,34.90853658536585 52.33739837398374,34.959349593495936" fill="none" stroke="black" stroke-width="0.6"></polyline><polyline points="52.33739837398374,34.959349593495936 52.59146341463415,34.90853658536585 52.79471544715447,34.70528455284553 53.048780487804876,34.451219512195124 53.201219512195124,34.146341463414636 53.353658536585364,33.739837398373986 53.55691056910569,33.23170731707317 53.709349593495936,32.82520325203252 53.760162601626014,32.36788617886179 53.8109756097561,31.961382113821138 53.8109756097561,31.65650406504065 53.8109756097561,31.554878048780488 53.8109756097561,31.504065040650406 53.760162601626014,31.554878048780488 53.709349593495936,31.859756097560975 53.65853658536585,32.52032520325203 53.607723577235774,33.18089430894309 53.607723577235774,33.892276422764226 53.709349593495936,34.552845528455286 53.86178861788618,35.0609756097561 54.0650406504065,35.416666666666664 54.31910569105691,35.61991869918699 54.47154471544715,35.61991869918699 54.6239837398374,35.61991869918699 54.72560975609756,35.56910569105691 54.827235772357724,35.46747967479675 54.8780487804878,35.36585365853659 54.979674796747965,35.11178861788618 55.03048780487805,34.857723577235774 55.03048780487805,34.603658536585364 55.03048780487805,34.2479674796748 54.92886178861789,33.94308943089431 54.77642276422764,33.53658536585366 54.52235772357724,33.18089430894309 54.26829268292683,32.82520325203252 54.014227642276424,32.6219512195122 53.760162601626014,32.46951219512195 53.607723577235774,32.46951219512195 53.50609756097561,32.57113821138211 53.50609756097561,32.72357723577236 53.55691056910569,32.82520325203252 53.607723577235774,32.926829268292686 53.760162601626014,32.97764227642276 54.0650406504065,33.02845528455285 54.21747967479675,32.926829268292686 54.420731707317074,32.77439024390244 54.6239837398374,32.52032520325203 54.92886178861789,32.266260162601625 55.18292682926829,31.961382113821138 55.386178861788615,31.65650406504065 55.640243902439025,31.453252032520325" fill="none" stroke="black" stroke-width="0.6"></polyline><polyline points="55.640243902439025,31.453252032520325 55.74186991869919,31.402439024390244 55.84349593495935,31.402439024390244 55.89430894308943,31.60569105691057 55.94512195121951,32.0630081300813 55.99593495934959,32.6219512195122 56.09756097560975,33.18089430894309 56.199186991869915,33.63821138211382 56.35162601626016,34.04471544715447 56.55487804878049,34.34959349593496 56.70731707317073,34.451219512195124 56.80894308943089,34.552845528455286 56.91056910569105,34.552845528455286 56.96138211382114,34.5020325203252 57.012195121951216,34.451219512195124 57.0630081300813,34.34959349593496 57.0630081300813,34.2479674796748 57.11382113821138,34.09552845528455 57.16463414634146,33.94308943089431 57.21544715447154,33.6890243902439 57.266260162601625,33.4349593495935 57.266260162601625,33.13008130081301 57.266260162601625,32.72357723577236 57.21544715447154,32.21544715447154 57.16463414634146,31.65650406504065 57.0630081300813,31.148373983739837 56.96138211382114,30.79268292682927 56.91056910569105,30.640243902439025 56.91056910569105,30.640243902439025 56.91056910569105,30.691056910569106 56.91056910569105,30.741869918699187 56.91056910569105,30.84349593495935 56.96138211382114,30.945121951219512 57.0630081300813,31.097560975609756 57.16463414634146,31.19918699186992 57.3170731707317,31.402439024390244 57.418699186991866,31.554878048780488 57.62195121951219,31.70731707317073 57.825203252032516,31.961382113821138 58.02845528455284,32.16463414634146 58.231707317073166,32.36788617886179 58.536585365853654,32.52032520325203 58.84146341463415,32.57113821138211 59.197154471544714,32.6219512195122 59.5020325203252,32.52032520325203 59.75609756097561,32.36788617886179 59.959349593495936,32.11382113821138 60.11178861788618,31.808943089430894 60.21341463414634,31.554878048780488 60.264227642276424,31.30081300813008 60.264227642276424,31.046747967479675" fill="none" stroke="black" stroke-width="0.6"></polyline><polyline points="60.264227642276424,31.046747967479675 60.21341463414634,30.89430894308943 60.11178861788618,30.741869918699187 59.959349593495936,30.589430894308943 59.75609756097561,30.538617886178862 59.451219512195124,30.589430894308943 59.146341463414636,30.945121951219512 58.84146341463415,31.453252032520325 58.58739837398374,32.16463414634146 58.38414634146341,32.97764227642276 58.33333333333333,33.790650406504064 58.43495934959349,34.451219512195124 58.6890243902439,34.959349593495936 58.99390243902439,35.11178861788618 59.298780487804876,35.21341463414634 59.552845528455286,35.21341463414634 59.857723577235774,35.16260162601626 60.11178861788618,35.0609756097561 60.36585365853659,34.90853658536585 60.670731707317074,34.75609756097561 60.92479674796748,34.603658536585364 61.17886178861789,34.552845528455286 61.38211382113821,34.5020325203252 61.53455284552845,34.552845528455286" fill="none" stroke="black" stroke-width="0.6"></polyline><polyline points="66.15853658536585,30.691056910569106 66.10772357723577,30.284552845528456 66.0060975609756,30.08130081300813 65.90447154471545,30.03048780487805 65.90447154471545,30.132113821138212 65.90447154471545,30.589430894308943 65.90447154471545,31.554878048780488 65.95528455284553,32.77439024390244 66.0569105691057,33.99390243902439 66.20934959349593,35.010162601626014 66.41260162601625,35.72154471544715 66.5650406504065,36.077235772357724 66.66666666666667,36.17886178861789 66.76829268292683,36.229674796747965 66.869918699187,36.229674796747965 67.02235772357723,36.1280487804878 67.22560975609755,35.97560975609756 67.42886178861788,35.77235772357724 67.6321138211382,35.51829268292683 67.88617886178862,35.21341463414634 68.08943089430895,34.959349593495936 68.29268292682927,34.80691056910569 68.4451219512195,34.70528455284553 68.54674796747967,34.70528455284553 68.64837398373983,34.90853658536585 68.80081300813008,35.264227642276424 68.95325203252033,35.72154471544715 69.20731707317073,36.1280487804878 69.46138211382113,36.38211382113821 69.71544715447155,36.53455284552845 69.96951219512195,36.53455284552845 70.1219512195122,36.483739837398375 70.17276422764228,36.38211382113821 70.22357723577235,36.229674796747965 70.22357723577235,36.077235772357724 70.27439024390243,35.823170731707314 70.27439024390243,35.56910569105691 70.27439024390243,35.264227642276424 70.27439024390243,34.90853658536585 70.27439024390243,34.5020325203252 70.27439024390243,33.94308943089431 70.32520325203252,33.38414634146341 70.42682926829268,32.672764227642276 70.47764227642276,32.012195121951216 70.47764227642276,31.351626016260163 70.52845528455285,30.84349593495935 70.52845528455285,30.589430894308943 70.57926829268293,30.48780487804878 70.68089430894308,30.48780487804878 70.9349593495935,30.48780487804878" fill="none" stroke="black" stroke-width="0.6"></polyline><polyline points="72.5609756097561,30.995934959349594 72.51016260162602,31.046747967479675 72.45934959349593,31.097560975609756 72.40853658536585,31.25 72.35772357723577,31.504065040650406 72.35772357723577,31.961382113821138 72.3069105691057,32.6219512195122 72.3069105691057,33.23170731707317 72.3069105691057,33.790650406504064 72.3069105691057,34.298780487804876 72.3069105691057,34.65447154471545 72.3069105691057,34.90853658536585 72.3069105691057,35.16260162601626 72.40853658536585,35.3150406504065 72.61178861788618,35.416666666666664 72.8150406504065,35.51829268292683" fill="none" stroke="black" stroke-width="0.6"></polyline><polyline points="73.22154471544715,31.148373983739837 72.91666666666667,30.945121951219512 72.66260162601625,30.79268292682927 72.45934959349593,30.640243902439025 72.35772357723577,30.538617886178862 72.2560975609756,30.4369918699187 72.2560975609756,30.4369918699187 72.3069105691057,30.4369918699187 72.40853658536585,30.38617886178862 72.61178861788618,30.38617886178862 72.71341463414635,30.4369918699187" fill="none" stroke="black" stroke-width="0.6"></polyline><polyline points="73.3739837398374,31.19918699186992 73.3739837398374,31.19918699186992 73.3739837398374,31.19918699186992 73.42479674796748,31.19918699186992 73.47560975609755,31.148373983739837 73.67886178861788,31.046747967479675 73.8821138211382,30.995934959349594 74.13617886178862,30.945121951219512 74.4410569105691,30.89430894308943 74.6951219512195,30.945121951219512 74.89837398373983,31.046747967479675 75.10162601626016,31.25 75.2540650406504,31.504065040650406 75.35569105691057,31.758130081300813 75.35569105691057,32.11382113821138 75.2540650406504,32.52032520325203 74.94918699186992,32.97764227642276 74.59349593495935,33.4349593495935 74.23780487804878,33.790650406504064 73.98373983739837,34.09552845528455 73.78048780487805,34.298780487804876 73.78048780487805,34.40040650406504 73.78048780487805,34.5020325203252 73.8821138211382,34.552845528455286 74.03455284552845,34.65447154471545 74.23780487804878,34.70528455284553 74.4410569105691,34.80691056910569 74.6951219512195,34.857723577235774 75,34.90853658536585 75.2540650406504,34.959349593495936 75.5081300813008,34.959349593495936 75.71138211382113,34.959349593495936 75.91463414634146,34.959349593495936 76.11788617886178,34.90853658536585 76.3719512195122,34.80691056910569 76.67682926829268,34.70528455284553 76.98170731707317,34.552845528455286 77.1341463414634,34.451219512195124" fill="none" stroke="black" stroke-width="0.6"></polyline><polyline points="78.76016260162602,33.333333333333336 78.8109756097561,33.28252032520325 78.86178861788618,33.13008130081301 78.86178861788618,33.02845528455285 78.86178861788618,32.926829268292686 78.8109756097561,32.77439024390244 78.65853658536585,32.6219512195122 78.45528455284553,32.46951219512195 78.2520325203252,32.3170731707317 77.9979674796748,32.21544715447154 77.6930894308943,32.11382113821138 77.38821138211382,32.11382113821138 77.08333333333333,32.36788617886179 76.82926829268293,32.8760162601626 76.57520325203252,33.485772357723576 76.42276422764228,34.09552845528455 76.3719512195122,34.65447154471545 76.3719512195122,35.0609756097561 76.47357723577235,35.3150406504065 76.67682926829268,35.416666666666664 76.82926829268293,35.46747967479675 76.98170731707317,35.416666666666664 77.1849593495935,35.3150406504065 77.38821138211382,35.0609756097561 77.59146341463415,34.75609756097561 77.79471544715447,34.34959349593496 77.9979674796748,33.94308943089431 78.15040650406505,33.58739837398374 78.30284552845528,33.18089430894309 78.40447154471545,32.82520325203252 78.45528455284553,32.6219512195122 78.45528455284553,32.57113821138211 78.45528455284553,32.52032520325203 78.35365853658537,32.672764227642276 78.30284552845528,33.02845528455285 78.2520325203252,33.485772357723576 78.20121951219512,33.94308943089431 78.20121951219512,34.298780487804876 78.2520325203252,34.603658536585364 78.30284552845528,34.80691056910569 78.40447154471545,34.90853658536585 78.5569105691057,34.959349593495936 78.65853658536585,34.959349593495936 78.8109756097561,34.959349593495936 78.96341463414635,34.959349593495936 79.16666666666667,34.959349593495936 79.3191056910569,34.857723577235774 79.47154471544715,34.75609756097561 79.6239837398374,34.603658536585364 79.77642276422765,34.40040650406504 79.92886178861788,34.146341463414636" fill="none" stroke="black" stroke-width="0.6"></polyline><polyline points="79.92886178861788,34.146341463414636 80.1321138211382,33.739837398373986 80.38617886178862,33.18089430894309 80.6910569105691,32.46951219512195 80.9451219512195,31.910569105691057 81.09756097560975,31.60569105691057 81.14837398373983,31.60569105691057 81.14837398373983,31.70731707317073 81.09756097560975,32.012195121951216 81.04674796747967,32.57113821138211 80.9959349593496,33.18089430894309 80.9451219512195,33.6890243902439 80.9451219512195,33.99390243902439 80.9451219512195,34.197154471544714 81.04674796747967,34.2479674796748 81.14837398373983,34.2479674796748 81.30081300813008,34.2479674796748 81.5040650406504,34.09552845528455 81.8089430894309,33.84146341463415 82.11382113821138,33.485772357723576 82.46951219512195,33.13008130081301 82.72357723577235,32.77439024390244 82.97764227642276,32.36788617886179 83.28252032520325,32.012195121951216 83.58739837398373,31.65650406504065 83.79065040650406,31.402439024390244 83.89227642276423,31.351626016260163 83.89227642276423,31.351626016260163 83.89227642276423,31.402439024390244 83.84146341463415,31.453252032520325 83.84146341463415,31.504065040650406 83.79065040650406,31.60569105691057 83.73983739837398,31.65650406504065 83.73983739837398,31.808943089430894 83.6890243902439,32.012195121951216 83.63821138211382,32.3170731707317 83.58739837398373,32.672764227642276 83.53658536585365,33.02845528455285 83.53658536585365,33.4349593495935 83.53658536585365,33.6890243902439 83.63821138211382,33.892276422764226 83.73983739837398,33.99390243902439 83.89227642276423,34.04471544715447 83.9430894308943,34.04471544715447 83.99390243902438,33.99390243902439 84.04471544715447,33.892276422764226 84.04471544715447,33.739837398373986 84.09552845528455,33.4349593495935 84.14634146341463,33.13008130081301 84.14634146341463,32.82520325203252 84.1971544715447,32.418699186991866" fill="none" stroke="black" stroke-width="0.6"></polyline><polyline points="84.1971544715447,32.418699186991866 84.2479674796748,31.910569105691057 84.29878048780488,31.351626016260163 84.40040650406503,30.640243902439025 84.5020325203252,29.776422764227643 84.65447154471545,28.810975609756095 84.85772357723577,27.693089430894307 85.11178861788618,26.676829268292682 85.36585365853658,25.8130081300813 85.46747967479675,25.508130081300813 85.46747967479675,25.45731707317073 85.46747967479675,25.508130081300813 85.46747967479675,25.609756097560975 85.3150406504065,26.067073170731707 85.01016260162602,26.98170731707317 84.60365853658537,28.099593495934958 84.1971544715447,29.217479674796746 83.84146341463415,30.4369918699187 83.63821138211382,31.402439024390244 83.63821138211382,32.16463414634146 83.73983739837398,32.77439024390244 83.9430894308943,33.23170731707317 84.1971544715447,33.58739837398374 84.5020325203252,33.892276422764226 84.8069105691057,34.09552845528455 85.21341463414635,34.2479674796748 85.72154471544715,34.298780487804876 86.28048780487805,34.146341463414636 86.83943089430895,33.892276422764226 87.39837398373983,33.63821138211382 87.80487804878048,33.53658536585366 88.16056910569105,33.485772357723576 88.46544715447155,33.53658536585366 88.66869918699187,33.58739837398374 88.8719512195122,33.63821138211382 89.02439024390243,33.739837398373986 89.1260162601626,33.790650406504064 89.27845528455285,33.790650406504064 89.43089430894308,33.790650406504064 89.48170731707317,33.790650406504064 89.53252032520325,33.739837398373986 89.53252032520325,33.739837398373986 89.53252032520325,33.739837398373986 89.53252032520325,33.739837398373986 89.53252032520325,33.739837398373986 89.48170731707317,33.739837398373986 89.43089430894308,33.739837398373986 89.43089430894308,33.6890243902439 89.380081300813,33.6890243902439 89.380081300813,33.6890243902439 89.380081300813,33.63821138211382" fill="none" stroke="black" stroke-width="0.6"></polyline><polyline points="89.380081300813,33.63821138211382 89.43089430894308,33.485772357723576 89.53252032520325,33.333333333333336" fill="none" stroke="black" stroke-width="0.6"></polyline><polyline points="90.39634146341463,34.857723577235774 89.83739837398373,34.552845528455286 89.22764227642276,34.34959349593496 89.17682926829268,34.40040650406504 89.22764227642276,34.40040650406504 89.43089430894308,34.40040650406504 89.78658536585365,34.34959349593496 90.29471544715447,34.34959349593496" fill="none" stroke="black" stroke-width="0.6"></polyline></svg>