<svg height="100" width="100" preserveAspectRatio="xMidYMid meet"><polyline points="18.39430894308943,9.552845528455284 18.34349593495935,9.502032520325203 18.29268292682927,9.34959349593496 18.241869918699187,9.146341463414634 18.191056910569106,8.99390243902439 18.140243902439025,8.790650406504065 18.038617886178862,8.58739837398374 17.98780487804878,8.434959349593496 17.9369918699187,8.282520325203253 17.784552845528456,8.130081300813007 17.682926829268293,7.977642276422764 17.53048780487805,7.876016260162602 17.378048780487806,7.774390243902439 17.17479674796748,7.723577235772358 16.971544715447155,7.723577235772358 16.71747967479675,7.6727642276422765 16.514227642276424,7.6727642276422765 16.260162601626014,7.723577235772358 15.955284552845528,7.82520325203252 15.701219512195122,7.977642276422764 15.447154471544716,8.130081300813007 15.19308943089431,8.384146341463415 14.989837398373984,8.58739837398374 14.786585365853659,8.841463414634147 14.583333333333332,9.095528455284553 14.430894308943088,9.451219512195122 14.380081300813007,9.75609756097561 14.329268292682926,10.16260162601626 14.380081300813007,10.518292682926829 14.48170731707317,10.924796747967479 14.684959349593496,11.229674796747966 14.989837398373984,11.483739837398375 15.294715447154472,11.636178861788618 15.65040650406504,11.737804878048781 16.006097560975608,11.737804878048781 16.36178861788618,11.737804878048781 16.76829268292683,11.737804878048781 17.073170731707318,11.585365853658537 17.428861788617887,11.432926829268293 17.733739837398375,11.229674796747966 17.9369918699187,11.077235772357723 18.140243902439025,10.873983739837398 18.39430894308943,10.619918699186991 18.546747967479675,10.365853658536585 18.69918699186992,10.111788617886178 18.80081300813008,9.80691056910569 18.851626016260163,9.502032520325203 18.902439024390244,9.247967479674797 18.902439024390244,8.94308943089431 18.902439024390244,8.689024390243903 18.80081300813008,8.485772357723578" fill="none" stroke="black" stroke-width="0.6"></polyline><polyline points="18.80081300813008,8.485772357723578 18.75,8.384146341463415 18.69918699186992,8.333333333333334 18.69918699186992,8.333333333333334 18.69918699186992,8.333333333333334 18.69918699186992,8.384146341463415 18.69918699186992,8.485772357723578 18.80081300813008,8.739837398373984 19.004065040650406,9.095528455284553 19.20731707317073,9.654471544715447 19.51219512195122,10.213414634146341 19.766260162601625,10.772357723577235 20.071138211382113,11.178861788617885 20.32520325203252,11.483739837398375 20.528455284552845,11.585365853658537 20.68089430894309,11.585365853658537 20.78252032520325,11.585365853658537 20.833333333333332,11.534552845528456 20.884146341463413,11.483739837398375 20.934959349593495,11.432926829268293 20.985772357723576,11.331300813008129" fill="none" stroke="black" stroke-width="0.6"></polyline><polyline points="29.268292682926827,4.573170731707317 29.217479674796746,4.522357723577236 29.166666666666664,4.522357723577236 29.166666666666664,4.420731707317073 29.115853658536583,4.369918699186992 29.115853658536583,4.2682926829268295 29.115853658536583,4.0650406504065035 29.115853658536583,3.9634146341463414 29.115853658536583,3.8109756097560976 29.115853658536583,3.709349593495935 29.115853658536583,3.6585365853658534 29.115853658536583,3.607723577235772 29.166666666666664,3.6585365853658534 29.217479674796746,4.014227642276422 29.31910569105691,4.573170731707317 29.420731707317074,5.3861788617886175 29.471544715447155,6.25 29.573170731707318,7.317073170731707 29.67479674796748,8.434959349593496 29.776422764227643,9.40040650406504 29.827235772357724,10.213414634146341 29.928861788617887,10.823170731707316 29.928861788617887,11.128048780487804 29.979674796747968,11.280487804878048 29.979674796747968,11.382113821138212 29.979674796747968,11.382113821138212 29.979674796747968,11.382113821138212 29.979674796747968,11.331300813008129 29.979674796747968,11.178861788617885 29.979674796747968,10.772357723577235 30.132113821138212,10.264227642276422 30.284552845528456,9.80691056910569 30.4369918699187,9.40040650406504 30.640243902439025,9.197154471544716 30.84349593495935,9.146341463414634 31.148373983739837,9.197154471544716 31.504065040650406,9.502032520325203 31.961382113821138,9.908536585365853 32.418699186991866,10.315040650406504 32.77439024390244,10.772357723577235 33.079268292682926,11.178861788617885 33.18089430894309,11.585365853658537 33.23170731707317,11.941056910569106 33.13008130081301,12.245934959349594 32.926829268292686,12.5 32.672764227642276,12.652439024390244 32.36788617886179,12.804878048780488 31.961382113821138,12.855691056910569 31.60569105691057,12.855691056910569 31.25,12.754065040650406 30.84349593495935,12.550813008130081" fill="none" stroke="black" stroke-width="0.6"></polyline><polyline points="30.84349593495935,12.550813008130081 30.538617886178862,12.296747967479675 30.284552845528456,11.890243902439025 30.08130081300813,11.432926829268293 29.979674796747968,10.873983739837398 29.979674796747968,10.56910569105691" fill="none" stroke="black" stroke-width="0.6"></polyline><polyline points="48.52642276422764,9.197154471544716 48.52642276422764,9.197154471544716 48.52642276422764,9.197154471544716 48.52642276422764,9.146341463414634 48.52642276422764,9.146341463414634 48.52642276422764,9.146341463414634 48.52642276422764,9.146341463414634 48.52642276422764,9.095528455284553 48.52642276422764,9.044715447154472 48.52642276422764,8.99390243902439 48.52642276422764,8.94308943089431 48.52642276422764,8.790650406504065 48.47560975609756,8.638211382113822 48.42479674796748,8.485772357723578 48.323170731707314,8.282520325203253 48.11991869918699,8.130081300813007 47.916666666666664,8.028455284552845 47.5609756097561,8.028455284552845 47.15447154471545,8.384146341463415 46.697154471544714,8.99390243902439 46.290650406504064,9.75609756097561 46.03658536585366,10.670731707317072 45.985772357723576,11.534552845528456 46.08739837398374,12.245934959349594 46.392276422764226,12.652439024390244 46.798780487804876,12.957317073170731 47.30691056910569,13.160569105691057 47.8150406504065,13.262195121951219 48.323170731707314,13.3130081300813 48.88211382113821,13.3130081300813 49.390243902439025,13.3130081300813 49.84756097560975,13.262195121951219 50.355691056910565,13.160569105691057 50.762195121951216,13.109756097560975 51.32113821138211,12.957317073170731 51.6260162601626,12.804878048780488" fill="none" stroke="black" stroke-width="0.6"></polyline><polyline points="65.65040650406505,10.721544715447154 65.65040650406505,10.670731707317072 65.59959349593495,10.56910569105691 65.54878048780488,10.467479674796747 65.4979674796748,10.365853658536585 65.44715447154472,10.213414634146341 65.39634146341463,10.060975609756097 65.34552845528455,9.857723577235772 65.29471544715447,9.654471544715447 65.1930894308943,9.502032520325203 65.14227642276423,9.34959349593496 65.04065040650406,9.197154471544716 64.9390243902439,9.146341463414634 64.73577235772358,9.095528455284553 64.48170731707317,9.095528455284553 64.1260162601626,9.146341463414634 63.71951219512195,9.34959349593496 63.3130081300813,9.654471544715447 63.00813008130081,10.060975609756097 62.80487804878049,10.467479674796747 62.60162601626016,10.924796747967479 62.55081300813008,11.331300813008129 62.55081300813008,11.636178861788618 62.703252032520325,11.839430894308943 62.95731707317073,11.991869918699187 63.21138211382114,12.042682926829269 63.516260162601625,12.042682926829269 63.87195121951219,11.941056910569106 64.22764227642276,11.788617886178862 64.58333333333333,11.483739837398375 64.9390243902439,11.128048780487804 65.29471544715447,10.670731707317072 65.70121951219512,10.16260162601626 65.90447154471545,9.705284552845528 66.0569105691057,9.247967479674797 66.10772357723577,8.739837398373984 66.10772357723577,8.18089430894309 66.10772357723577,7.367886178861789 66.0060975609756,6.453252032520325 65.90447154471545,5.48780487804878 65.7520325203252,4.623983739837398 65.65040650406505,4.014227642276422 65.4979674796748,3.709349593495935 65.34552845528455,3.6585365853658534 65.29471544715447,3.6585365853658534 65.2439024390244,3.91260162601626 65.1930894308943,4.522357723577236 65.09146341463415,5.538617886178861 65.09146341463415,6.65650406504065 65.09146341463415,7.82520325203252 65.2439024390244,8.94308943089431" fill="none" stroke="black" stroke-width="0.6"></polyline><polyline points="65.2439024390244,8.94308943089431 65.54878048780488,9.80691056910569 65.90447154471545,10.518292682926829 66.3109756097561,11.077235772357723 66.66666666666667,11.432926829268293 66.97154471544715,11.6869918699187 67.32723577235772,11.890243902439025 67.6829268292683,11.991869918699187 68.08943089430895,11.991869918699187 68.34349593495935,11.890243902439025" fill="none" stroke="black" stroke-width="0.6"></polyline><polyline points="79.47154471544715,8.638211382113822 79.47154471544715,8.638211382113822 79.47154471544715,8.58739837398374 79.47154471544715,8.58739837398374 79.47154471544715,8.58739837398374 79.57317073170732,8.536585365853659 79.67479674796748,8.485772357723578 79.82723577235772,8.434959349593496 79.97967479674797,8.333333333333334 80.23373983739837,8.231707317073171 80.48780487804878,8.130081300813007 80.79268292682927,7.977642276422764 81.14837398373983,7.876016260162602 81.45325203252033,7.774390243902439 81.8089430894309,7.6727642276422765 82.11382113821138,7.621951219512195 82.41869918699187,7.571138211382114 82.67276422764228,7.571138211382114 82.8760162601626,7.571138211382114 82.97764227642276,7.571138211382114 82.97764227642276,7.571138211382114 82.97764227642276,7.520325203252033 82.92682926829268,7.41869918699187 82.77439024390243,7.266260162601625 82.5711382113821,7.0630081300813 82.26626016260163,6.808943089430894 81.91056910569105,6.554878048780488 81.45325203252033,6.25 81.04674796747967,5.945121951219512 80.58943089430895,5.640243902439024 80.08130081300813,5.436991869918699 79.6239837398374,5.436991869918699 79.16666666666667,5.589430894308943 78.70934959349593,5.995934959349594 78.40447154471545,6.554878048780488 78.20121951219512,7.266260162601625 78.09959349593495,8.079268292682926 78.20121951219512,8.790650406504065 78.5060975609756,9.298780487804878 78.96341463414635,9.705284552845528 79.47154471544715,10.010162601626016 80.03048780487805,10.264227642276422 80.58943089430895,10.416666666666666 81.04674796747967,10.416666666666666 81.5040650406504,10.416666666666666 81.91056910569105,10.315040650406504 82.36788617886178,10.111788617886178 82.82520325203252,9.80691056910569 83.23170731707317,9.502032520325203 83.58739837398373,9.197154471544716 83.84146341463415,8.841463414634147" fill="none" stroke="black" stroke-width="0.6"></polyline><polyline points="83.84146341463415,8.841463414634147 84.04471544715447,8.485772357723578" fill="none" stroke="black" stroke-width="0.6"></polyline><polyline points="16.615853658536587,29.115853658536583 16.514227642276424,29.115853658536583 16.41260162601626,29.0650406504065 16.3109756097561,29.01422764227642 16.209349593495933,28.96341463414634 16.15853658536585,28.861788617886177 16.10772357723577,28.709349593495933 16.05691056910569,28.404471544715445 16.006097560975608,28.048780487804876 16.006097560975608,27.642276422764226 15.904471544715447,27.083333333333332 15.853658536585366,26.524390243902438 15.701219512195122,25.86382113821138 15.497967479674797,25.101626016260163 15.294715447154472,24.339430894308943 15.040650406504065,23.526422764227643 14.786585365853659,22.71341463414634 14.684959349593496,22.154471544715445 14.583333333333332,21.849593495934958 14.53252032520325,21.697154471544714 14.53252032520325,21.59552845528455 14.634146341463413,21.54471544715447 14.83739837398374,21.443089430894307 15.091463414634147,21.392276422764226 15.447154471544716,21.290650406504064 15.853658536585366,21.1890243902439 16.209349593495933,21.13821138211382 16.565040650406505,21.036585365853657 16.869918699186993,20.934959349593495 17.073170731707318,20.884146341463413 17.276422764227643,20.73170731707317 17.479674796747968,20.630081300813007 17.53048780487805,20.579268292682926" fill="none" stroke="black" stroke-width="0.6"></polyline><polyline points="13.567073170731707,25.609756097560975 13.567073170731707,25.609756097560975 13.617886178861788,25.609756097560975 13.770325203252032,25.609756097560975 14.024390243902438,25.609756097560975 14.430894308943088,25.558943089430894 14.939024390243903,25.45731707317073 15.548780487804878,25.254065040650406 16.05691056910569,25.05081300813008 16.666666666666668,24.745934959349594 17.17479674796748,24.491869918699187 17.682926829268293,24.1869918699187 18.140243902439025,23.983739837398375 18.597560975609756,23.729674796747968 19.15650406504065,23.475609756097562 19.715447154471544,23.221544715447155" fill="none" stroke="black" stroke-width="0.6"></polyline><polyline points="32.012195121951216,26.422764227642276 31.758130081300813,26.422764227642276 31.554878048780488,26.473577235772357 31.453252032520325,26.57520325203252 31.351626016260163,26.6260162601626 31.30081300813008,26.676829268292682 31.25,26.676829268292682 31.19918699186992,26.676829268292682 31.148373983739837,26.676829268292682 31.148373983739837,26.676829268292682 31.097560975609756,26.6260162601626 30.995934959349594,26.524390243902438 30.84349593495935,26.371951219512194 30.640243902439025,26.21951219512195 30.38617886178862,26.067073170731707 30.03048780487805,25.965447154471544 29.67479674796748,25.86382113821138 29.268292682926827,25.86382113821138 28.912601626016258,26.067073170731707 28.55691056910569,26.473577235772357 28.404471544715445,27.03252032520325 28.353658536585364,27.642276422764226 28.404471544715445,28.2520325203252 28.60772357723577,28.709349593495933 28.96341463414634,28.96341463414634 29.31910569105691,29.115853658536583 29.725609756097562,29.166666666666664 30.132113821138212,29.0650406504065 30.538617886178862,28.861788617886177 30.84349593495935,28.60772357723577 31.097560975609756,28.2520325203252 31.351626016260163,27.79471544715447 31.504065040650406,27.38821138211382 31.65650406504065,27.03252032520325 31.808943089430894,26.727642276422763 31.859756097560975,26.57520325203252 31.910569105691057,26.57520325203252 31.961382113821138,26.57520325203252 32.012195121951216,26.676829268292682 32.16463414634146,26.93089430894309 32.3170731707317,27.33739837398374 32.52032520325203,27.84552845528455 32.77439024390244,28.455284552845526 33.02845528455285,29.0650406504065 33.28252032520325,29.725609756097562 33.4349593495935,30.38617886178862 33.485772357723576,30.945121951219512 33.485772357723576,31.351626016260163 33.38414634146341,31.808943089430894 33.18089430894309,32.11382113821138 32.926829268292686,32.36788617886179" fill="none" stroke="black" stroke-width="0.6"></polyline><polyline points="32.926829268292686,32.36788617886179 32.57113821138211,32.57113821138211 32.21544715447154,32.6219512195122 31.808943089430894,32.57113821138211 31.351626016260163,32.36788617886179 30.89430894308943,31.961382113821138 30.48780487804878,31.402439024390244 30.132113821138212,30.84349593495935 29.979674796747968,30.38617886178862 29.928861788617887,30.03048780487805 29.979674796747968,29.573170731707318 30.233739837398375,29.166666666666664 30.640243902439025,28.709349593495933 31.148373983739837,28.2520325203252 31.70731707317073,27.896341463414632 32.3170731707317,27.489837398373982 33.02845528455285,27.083333333333332" fill="none" stroke="black" stroke-width="0.6"></polyline><polyline points="46.13821138211382,21.341463414634145 46.03658536585366,21.239837398373982 45.88414634146341,21.13821138211382 45.833333333333336,21.08739837398374 45.833333333333336,21.08739837398374 45.833333333333336,21.1890243902439 45.9349593495935,21.443089430894307 46.03658536585366,21.90040650406504 46.239837398373986,22.611788617886177 46.49390243902439,23.678861788617887 46.697154471544714,24.796747967479675 46.84959349593496,25.965447154471544 47.0020325203252,27.03252032520325 47.0020325203252,27.79471544715447 47.052845528455286,28.353658536585364 47.052845528455286,28.709349593495933 47.052845528455286,28.912601626016258 47.052845528455286,29.0650406504065 47.052845528455286,29.115853658536583 47.052845528455286,29.115853658536583 47.103658536585364,28.96341463414634 47.30691056910569,28.506097560975608 47.61178861788618,27.591463414634145 48.01829268292683,26.524390243902438 48.3739837398374,25.558943089430894 48.6280487804878,25 48.83130081300813,24.898373983739837 48.93292682926829,24.94918699186992 49.08536585365854,25.203252032520325 49.23780487804878,25.609756097560975 49.4410569105691,26.16869918699187 49.59349593495935,26.727642276422763 49.69512195121951,27.38821138211382 49.796747967479675,27.997967479674795 49.84756097560975,28.455284552845526 49.84756097560975,28.810975609756095 49.949186991869915,29.01422764227642 50.10162601626016,29.115853658536583 50.30487804878049,29.115853658536583 50.45731707317073,29.0650406504065" fill="none" stroke="black" stroke-width="0.6"></polyline><polyline points="63.36382113821138,26.57520325203252 63.3130081300813,26.524390243902438 63.21138211382114,26.422764227642276 63.16056910569105,26.371951219512194 63.16056910569105,26.371951219512194 63.16056910569105,26.371951219512194 63.16056910569105,26.371951219512194 63.16056910569105,26.371951219512194 63.16056910569105,26.422764227642276 63.262195121951216,26.6260162601626 63.3130081300813,26.93089430894309 63.41463414634146,27.286585365853657 63.46544715447154,27.642276422764226 63.516260162601625,27.997967479674795 63.5670731707317,28.302845528455283 63.5670731707317,28.404471544715445" fill="none" stroke="black" stroke-width="0.6"></polyline><polyline points="62.34756097560975,21.08739837398374 62.24593495934959,21.036585365853657 62.042682926829265,20.934959349593495 61.99186991869919,20.934959349593495 61.99186991869919,21.08739837398374 62.09349593495935,21.341463414634145 62.296747967479675,21.59552845528455 62.60162601626016,21.849593495934958" fill="none" stroke="black" stroke-width="0.6"></polyline><polyline points="80.64024390243902,25.965447154471544 80.53861788617886,25.914634146341463 80.48780487804878,25.86382113821138 80.48780487804878,25.86382113821138 80.48780487804878,26.016260162601625 80.48780487804878,26.321138211382113 80.58943089430895,26.829268292682926 80.74186991869918,27.489837398373982 80.9451219512195,28.15040650406504 81.19918699186992,28.760162601626014 81.45325203252033,29.369918699186993 81.65650406504065,29.827235772357724 81.7581300813008,30.182926829268293 81.7581300813008,30.4369918699187 81.60569105691057,30.640243902439025 81.35162601626016,30.79268292682927 81.09756097560975,30.945121951219512 80.79268292682927,30.995934959349594 80.38617886178862,30.995934959349594 79.92886178861788,30.995934959349594 79.47154471544715,30.84349593495935 79.01422764227642,30.589430894308943 78.5060975609756,30.182926829268293 78.04878048780488,29.725609756097562 77.64227642276423,29.166666666666664 77.28658536585365,28.65853658536585 77.03252032520325,28.20121951219512 76.77845528455285,27.896341463414632 76.57520325203252,27.591463414634145 76.42276422764228,27.33739837398374 76.27032520325203,26.98170731707317" fill="none" stroke="black" stroke-width="0.6"></polyline><polyline points="78.60772357723577,20.630081300813007 78.65853658536585,20.477642276422763 78.76016260162602,20.426829268292682 78.91260162601625,20.32520325203252 79.01422764227642,20.223577235772357 79.0650406504065,20.172764227642276 79.11585365853658,20.172764227642276 79.16666666666667,20.172764227642276 79.21747967479675,20.172764227642276 79.26829268292683,20.172764227642276 79.3191056910569,20.172764227642276" fill="none" stroke="black" stroke-width="0.6"></polyline><polyline points="15.802845528455284,38.71951219512195 15.701219512195122,38.668699186991866 15.497967479674797,38.668699186991866 15.396341463414634,38.668699186991866 15.345528455284553,38.71951219512195 15.345528455284553,38.97357723577235 15.345528455284553,39.48170731707317 15.396341463414634,40.24390243902439 15.548780487804878,41.260162601626014 15.752032520325203,42.17479674796748 15.904471544715447,42.98780487804878 16.006097560975608,43.699186991869915 16.05691056910569,44.105691056910565 16.05691056910569,44.46138211382114 16.006097560975608,44.8170731707317 15.955284552845528,45.07113821138211 15.955284552845528,45.172764227642276 15.955284552845528,45.22357723577235 16.006097560975608,45.172764227642276 16.15853658536585,44.96951219512195 16.260162601626014,44.8170731707317" fill="none" stroke="black" stroke-width="0.6"></polyline><polyline points="17.733739837398375,37.95731707317073 17.682926829268293,38.109756097560975 17.58130081300813,38.3130081300813 17.479674796747968,38.61788617886179 17.428861788617887,39.1260162601626 17.327235772357724,39.735772357723576 17.17479674796748,40.34552845528455 16.971544715447155,40.90447154471545 16.76829268292683,41.3109756097561 16.565040650406505,41.5650406504065 16.36178861788618,41.666666666666664 16.15853658536585,41.71747967479675 16.006097560975608,41.71747967479675 15.853658536585366,41.666666666666664 15.752032520325203,41.666666666666664 15.752032520325203,41.61585365853659 15.752032520325203,41.61585365853659 15.802845528455284,41.666666666666664 15.955284552845528,41.81910569105691 16.209349593495933,42.02235772357724 16.514227642276424,42.27642276422764 16.869918699186993,42.63211382113821 17.17479674796748,42.9369918699187 17.53048780487805,43.292682926829265 17.835365853658537,43.59756097560975 18.089430894308943,43.90243902439024 18.34349593495935,44.15650406504065 18.597560975609756,44.41056910569105 18.80081300813008,44.66463414634146 19.054878048780488,44.918699186991866 19.308943089430894,45.22357723577235 19.5630081300813,45.47764227642276 19.91869918699187,45.73170731707317" fill="none" stroke="black" stroke-width="0.6"></polyline><polyline points="32.0630081300813,38.61788617886179 32.012195121951216,38.5670731707317 31.859756097560975,38.41463414634146 31.808943089430894,38.3130081300813 31.808943089430894,38.262195121951216 31.758130081300813,38.21138211382114 31.758130081300813,38.21138211382114 31.758130081300813,38.262195121951216 31.808943089430894,38.516260162601625 31.859756097560975,39.07520325203252 31.910569105691057,39.88821138211382 32.0630081300813,40.90447154471545 32.16463414634146,41.81910569105691 32.3170731707317,42.68292682926829 32.46951219512195,43.39430894308943 32.52032520325203,43.80081300813008 32.6219512195122,44.0040650406504 32.672764227642276,44.20731707317073 32.72357723577236,44.30894308943089 32.82520325203252,44.46138211382114 33.079268292682926,44.5630081300813 33.23170731707317,44.5630081300813" fill="none" stroke="black" stroke-width="0.6"></polyline><polyline points="45.88414634146341,44.46138211382114 45.78252032520325,44.46138211382114 45.579268292682926,44.512195121951216 45.42682926829268,44.61382113821138 45.3760162601626,44.66463414634146 45.325203252032516,44.71544715447154 45.325203252032516,44.71544715447154 45.325203252032516,44.71544715447154 45.3760162601626,44.71544715447154 45.42682926829268,44.61382113821138 45.47764227642276,44.46138211382114 45.52845528455285,44.15650406504065 45.579268292682926,43.80081300813008 45.579268292682926,43.34349593495935 45.63008130081301,42.68292682926829 45.68089430894309,41.920731707317074 45.78252032520325,41.209349593495936 45.88414634146341,40.65040650406504 45.985772357723576,40.34552845528455 46.08739837398374,40.29471544715447 46.1890243902439,40.34552845528455 46.34146341463415,40.4979674796748 46.54471544715447,40.7520325203252 46.798780487804876,41.107723577235774 47.0020325203252,41.61585365853659 47.20528455284553,42.073170731707314 47.30691056910569,42.479674796747965 47.459349593495936,42.83536585365854 47.510162601626014,42.98780487804878 47.5609756097561,43.03861788617886 47.66260162601626,42.9369918699187 47.764227642276424,42.63211382113821 47.96747967479675,42.1239837398374 48.27235772357724,41.46341463414634 48.52642276422764,40.853658536585364 48.83130081300813,40.34552845528455 49.03455284552845,40.09146341463415 49.136178861788615,40.040650406504064 49.23780487804878,40.19308943089431 49.390243902439025,40.447154471544714 49.542682926829265,40.802845528455286 49.74593495934959,41.3109756097561 49.949186991869915,41.81910569105691 50.10162601626016,42.327235772357724 50.203252032520325,42.733739837398375 50.30487804878049,43.140243902439025 50.355691056910565,43.39430894308943 50.40650406504065,43.546747967479675 50.50813008130081,43.699186991869915 50.609756097560975,43.80081300813008 50.762195121951216,43.85162601626016" fill="none" stroke="black" stroke-width="0.6"></polyline><polyline points="50.762195121951216,43.85162601626016 51.016260162601625,43.85162601626016" fill="none" stroke="black" stroke-width="0.6"></polyline><polyline points="63.00813008130081,41.260162601626014 63.00813008130081,41.41260162601626 62.95731707317073,41.71747967479675 62.90650406504065,42.17479674796748 62.90650406504065,42.83536585365854 62.95731707317073,43.39430894308943 63.00813008130081,43.90243902439024 63.00813008130081,44.20731707317073 63.00813008130081,44.41056910569105 63.00813008130081,44.46138211382114 63.00813008130081,44.512195121951216 63.00813008130081,44.512195121951216 63.00813008130081,44.512195121951216 63.00813008130081,44.30894308943089 63.109756097560975,43.85162601626016 63.36382113821138,43.08943089430894 63.71951219512195,42.22560975609756 64.07520325203252,41.46341463414634 64.43089430894308,40.853658536585364 64.73577235772358,40.4979674796748 64.9390243902439,40.4979674796748 65.09146341463415,40.701219512195124 65.2439024390244,41.00609756097561 65.34552845528455,41.41260162601626 65.4979674796748,41.920731707317074 65.65040650406505,42.53048780487805 65.80284552845528,43.03861788617886 65.95528455284553,43.546747967479675 66.10772357723577,43.953252032520325 66.3109756097561,44.20731707317073 66.51422764227642,44.359756097560975 66.66666666666667,44.41056910569105" fill="none" stroke="black" stroke-width="0.6"></polyline><polyline points="78.40447154471545,43.39430894308943 78.45528455284553,43.49593495934959 78.45528455284553,43.59756097560975 78.5569105691057,43.75 78.70934959349593,44.0040650406504 78.96341463414635,44.25813008130081 79.3191056910569,44.512195121951216 79.77642276422765,44.71544715447154 80.28455284552845,44.86788617886179 80.84349593495935,44.918699186991866 81.30081300813008,44.918699186991866 81.7581300813008,44.766260162601625 82.26626016260163,44.46138211382114 82.67276422764228,44.15650406504065 82.97764227642276,43.75 83.23170731707317,43.292682926829265 83.28252032520325,42.83536585365854 83.23170731707317,42.3780487804878 82.97764227642276,41.920731707317074 82.6219512195122,41.5650406504065 82.16463414634146,41.209349593495936 81.55487804878048,40.853658536585364 80.9959349593496,40.65040650406504 80.4369918699187,40.59959349593496 79.82723577235772,40.65040650406504 79.3191056910569,41.107723577235774 78.8109756097561,41.76829268292683 78.35365853658537,42.479674796747965 78.04878048780488,43.08943089430894 77.89634146341463,43.59756097560975 77.74390243902438,44.0040650406504 77.74390243902438,44.30894308943089 77.74390243902438,44.512195121951216" fill="none" stroke="black" stroke-width="0.6"></polyline><polyline points="17.632113821138212,62.042682926829265 17.58130081300813,62.042682926829265 17.428861788617887,61.99186991869919 17.276422764227643,61.9410569105691 17.17479674796748,61.890243902439025 17.073170731707318,61.890243902439025 16.971544715447155,61.78861788617886 16.920731707317074,61.73780487804878 16.869918699186993,61.6869918699187 16.76829268292683,61.58536585365854 16.76829268292683,61.43292682926829 16.71747967479675,61.28048780487805 16.666666666666668,60.97560975609756 16.615853658536587,60.61991869918699 16.565040650406505,60.11178861788618 16.514227642276424,59.451219512195124 16.41260162601626,58.6890243902439 16.3109756097561,57.825203252032516 16.260162601626014,56.91056910569105 16.209349593495933,56.199186991869915 16.209349593495933,55.48780487804878 16.3109756097561,54.979674796747965 16.514227642276424,54.6239837398374 16.71747967479675,54.420731707317074 16.971544715447155,54.36991869918699 17.327235772357724,54.47154471544715 17.733739837398375,54.77642276422764 18.089430894308943,55.13211382113821 18.34349593495935,55.53861788617886 18.597560975609756,55.99593495934959 18.648373983739837,56.35162601626016 18.597560975609756,56.65650406504065 18.445121951219512,57.012195121951216 18.191056910569106,57.21544715447154 17.835365853658537,57.46951219512195 17.428861788617887,57.62195121951219 17.073170731707318,57.72357723577235 16.71747967479675,57.825203252032516 16.36178861788618,57.8760162601626 16.15853658536585,57.8760162601626 15.955284552845528,57.825203252032516 15.853658536585366,57.672764227642276 15.853658536585366,57.62195121951219" fill="none" stroke="black" stroke-width="0.6"></polyline><polyline points="31.70731707317073,56.046747967479675 31.402439024390244,56.046747967479675 31.19918699186992,56.09756097560975 31.097560975609756,56.30081300813008 30.995934959349594,56.605691056910565 30.995934959349594,57.11382113821138 30.995934959349594,57.825203252032516 31.097560975609756,58.58739837398374 31.30081300813008,59.298780487804876 31.554878048780488,59.90853658536585 31.910569105691057,60.416666666666664 32.3170731707317,60.72154471544715 32.77439024390244,60.8739837398374 33.23170731707317,60.8739837398374 33.63821138211382,60.77235772357724 34.04471544715447,60.51829268292683 34.40040650406504,60.21341463414634 34.70528455284553,59.857723577235774 34.90853658536585,59.34959349593496 35.11178861788618,58.84146341463415 35.21341463414634,58.28252032520325 35.264227642276424,57.672764227642276 35.16260162601626,57.16463414634146 34.90853658536585,56.65650406504065 34.552845528455286,56.14837398373984 34.09552845528455,55.6910569105691 33.63821138211382,55.28455284552845 33.18089430894309,54.979674796747965 32.82520325203252,54.8780487804878 32.52032520325203,54.8780487804878 32.16463414634146,54.8780487804878 31.910569105691057,55.03048780487805 31.65650406504065,55.18292682926829 31.351626016260163,55.33536585365854 31.148373983739837,55.4369918699187" fill="none" stroke="black" stroke-width="0.6"></polyline><polyline points="33.485772357723576,58.079268292682926 33.485772357723576,58.079268292682926 33.485772357723576,58.130081300813 33.53658536585366,58.231707317073166 33.790650406504064,58.485772357723576 34.146341463414636,58.94308943089431 34.603658536585364,59.34959349593496 35.0609756097561,59.65447154471545 35.51829268292683,59.90853658536585 35.8739837398374,60.0609756097561 36.229674796747965,60.16260162601626 36.483739837398375,60.264227642276424 36.73780487804878,60.36585365853659 36.9410569105691,60.46747967479675" fill="none" stroke="black" stroke-width="0.6"></polyline><polyline points="48.27235772357724,58.28252032520325 48.27235772357724,58.38414634146341 48.27235772357724,58.63821138211382 48.27235772357724,58.99390243902439 48.27235772357724,59.5020325203252 48.3739837398374,60.010162601626014 48.42479674796748,60.36585365853659 48.47560975609756,60.61991869918699 48.47560975609756,60.8739837398374 48.52642276422764,61.02642276422764 48.52642276422764,61.02642276422764 48.52642276422764,61.02642276422764 48.52642276422764,61.02642276422764 48.52642276422764,60.97560975609756 48.52642276422764,60.823170731707314 48.47560975609756,60.416666666666664 48.3739837398374,59.75609756097561 48.323170731707314,58.99390243902439 48.22154471544715,58.18089430894309 48.170731707317074,57.3170731707317 48.11991869918699,56.453252032520325 48.11991869918699,55.99593495934959 48.11991869918699,55.84349593495935 48.170731707317074,55.84349593495935 48.22154471544715,55.94512195121951 48.323170731707314,56.046747967479675 48.47560975609756,56.25 48.6280487804878,56.55487804878049 48.729674796747965,56.91056910569105 48.78048780487805,57.3170731707317 48.83130081300813,57.62195121951219 48.83130081300813,57.97764227642276 48.78048780487805,58.28252032520325 48.729674796747965,58.485772357723576 48.67886178861789,58.63821138211382 48.67886178861789,58.790650406504064 48.67886178861789,58.892276422764226 48.729674796747965,58.99390243902439 48.83130081300813,59.146341463414636 49.03455284552845,59.298780487804876 49.28861788617886,59.5020325203252 49.542682926829265,59.75609756097561 49.84756097560975,59.959349593495936 50.15243902439024,60.11178861788618 50.45731707317073,60.264227642276424 50.762195121951216,60.36585365853659 51.016260162601625,60.416666666666664 51.27032520325203,60.51829268292683 51.47357723577235,60.51829268292683 51.72764227642276,60.56910569105691 52.03252032520325,60.61991869918699" fill="none" stroke="black" stroke-width="0.6"></polyline><polyline points="52.03252032520325,60.61991869918699 52.38821138211382,60.670731707317074 52.74390243902439,60.670731707317074 53.201219512195124,60.56910569105691" fill="none" stroke="black" stroke-width="0.6"></polyline><polyline points="66.61585365853658,56.35162601626016 66.61585365853658,56.30081300813008 66.46341463414635,56.25 66.26016260162602,56.14837398373984 66.10772357723577,56.09756097560975 65.85365853658537,56.046747967479675 65.65040650406505,55.94512195121951 65.34552845528455,55.84349593495935 64.98983739837398,55.792682926829265 64.6341463414634,55.6910569105691 64.22764227642276,55.6910569105691 63.77032520325203,55.6910569105691 63.46544715447154,55.74186991869919 63.21138211382114,55.89430894308943 63.00813008130081,55.99593495934959 62.90650406504065,56.14837398373984 62.90650406504065,56.35162601626016 62.95731707317073,56.5040650406504 63.109756097560975,56.75813008130081 63.41463414634146,57.012195121951216 63.82113821138211,57.36788617886179 64.27845528455285,57.72357723577235 64.83739837398373,58.079268292682926 65.39634146341463,58.43495934959349 65.90447154471545,58.739837398373986 66.36178861788618,59.09552845528455 66.71747967479675,59.451219512195124 66.92073170731707,59.75609756097561 66.97154471544715,60.010162601626014 66.97154471544715,60.21341463414634 66.869918699187,60.36585365853659 66.61585365853658,60.46747967479675 66.3109756097561,60.56910569105691 65.90447154471545,60.670731707317074 65.44715447154472,60.72154471544715 64.98983739837398,60.72154471544715 64.53252032520325,60.670731707317074 64.1260162601626,60.46747967479675 63.71951219512195,60.11178861788618 63.46544715447154,59.75609756097561 63.262195121951216,59.298780487804876 63.16056910569105,59.09552845528455" fill="none" stroke="black" stroke-width="0.6"></polyline><polyline points="79.6239837398374,55.33536585365854 79.6239837398374,55.233739837398375 79.57317073170732,55.08130081300813 79.47154471544715,54.92886178861789 79.47154471544715,54.8780487804878 79.47154471544715,54.8780487804878 79.47154471544715,54.8780487804878 79.47154471544715,54.92886178861789 79.42073170731707,55.18292682926829 79.369918699187,55.6910569105691 79.3191056910569,56.30081300813008 79.26829268292683,57.012195121951216 79.21747967479675,57.77439024390244 79.21747967479675,58.485772357723576 79.369918699187,59.09552845528455 79.57317073170732,59.65447154471545 79.77642276422765,60.0609756097561 79.97967479674797,60.36585365853659 80.1829268292683,60.56910569105691 80.38617886178862,60.670731707317074 80.53861788617886,60.670731707317074 80.6910569105691,60.72154471544715 80.84349593495935,60.61991869918699 81.04674796747967,60.46747967479675 81.30081300813008,60.21341463414634 81.45325203252033,59.90853658536585 81.55487804878048,59.603658536585364" fill="none" stroke="black" stroke-width="0.6"></polyline><polyline points="77.03252032520325,58.43495934959349 77.03252032520325,58.43495934959349 77.08333333333333,58.38414634146341 77.28658536585365,58.33333333333333 77.79471544715447,58.18089430894309 78.5569105691057,57.97764227642276 79.3191056910569,57.72357723577235 79.97967479674797,57.46951219512195 80.48780487804878,57.266260162601625 81.04674796747967,57.0630081300813 81.5040650406504,56.859756097560975" fill="none" stroke="black" stroke-width="0.6"></polyline><polyline points="12.90650406504065,74.08536585365853 12.703252032520325,74.08536585365853 12.550813008130081,74.08536585365853 12.449186991869919,74.08536585365853 12.398373983739837,74.13617886178862 12.398373983739837,74.28861788617886 12.449186991869919,74.64430894308943 12.601626016260163,75.30487804878048 12.90650406504065,76.27032520325203 13.3130081300813,77.38821138211382 13.821138211382113,78.60772357723577 14.329268292682926,79.369918699187 14.888211382113822,79.77642276422765 15.396341463414634,79.92886178861788 15.802845528455284,79.92886178861788 16.209349593495933,79.77642276422765 16.615853658536587,79.47154471544715 16.869918699186993,79.16666666666667 17.1239837398374,78.76016260162602 17.276422764227643,78.2520325203252 17.428861788617887,77.6930894308943 17.53048780487805,77.1341463414634 17.632113821138212,76.52439024390243 17.682926829268293,76.0670731707317 17.682926829268293,75.60975609756098 17.733739837398375,75.10162601626016 17.733739837398375,74.59349593495935 17.784552845528456,74.03455284552845" fill="none" stroke="black" stroke-width="0.6"></polyline><polyline points="26.93089430894309,74.33943089430895 26.829268292682926,74.33943089430895 26.778455284552845,74.33943089430895 26.778455284552845,74.39024390243902 27.03252032520325,74.59349593495935 27.4390243902439,75 27.997967479674795,75.5589430894309 28.760162601626014,76.3211382113821 29.6239837398374,77.1341463414634 30.38617886178862,77.6930894308943 30.995934959349594,77.9979674796748 31.453252032520325,78.15040650406505 31.758130081300813,78.20121951219512 31.961382113821138,78.20121951219512 32.0630081300813,78.20121951219512 32.11382113821138,78.09959349593495 32.16463414634146,77.9471544715447 32.16463414634146,77.6930894308943 32.21544715447154,77.23577235772358 32.21544715447154,76.6260162601626 32.21544715447154,76.01626016260163 32.266260162601625,75.35569105691057 32.418699186991866,74.54268292682927 32.672764227642276,73.8821138211382 32.8760162601626,73.57723577235772" fill="none" stroke="black" stroke-width="0.6"></polyline><polyline points="41.260162601626014,75.86382113821138 41.107723577235774,75.76219512195122 40.95528455284553,75.71138211382113 40.90447154471545,75.66056910569105 40.95528455284553,75.66056910569105 41.107723577235774,75.8130081300813 41.36178861788618,76.01626016260163 41.71747967479675,76.42276422764228 42.1239837398374,76.880081300813 42.63211382113821,77.48983739837398 43.24186991869919,78.15040650406505 43.75,78.70934959349593 44.20731707317073,79.01422764227642 44.5630081300813,79.11585365853658 44.8170731707317,79.11585365853658 45.07113821138211,79.0650406504065 45.22357723577235,78.96341463414635 45.3760162601626,78.8109756097561 45.52845528455285,78.60772357723577 45.63008130081301,78.45528455284553 45.68089430894309,78.2520325203252 45.73170731707317,78.04878048780488 45.78252032520325,77.89634146341463 45.833333333333336,77.79471544715447 45.88414634146341,77.79471544715447 45.985772357723576,77.84552845528455 46.08739837398374,78.09959349593495 46.290650406504064,78.5060975609756 46.54471544715447,78.91260162601625 46.84959349593496,79.26829268292683 47.20528455284553,79.42073170731707 47.5609756097561,79.42073170731707 47.86585365853659,79.21747967479675 48.11991869918699,78.86178861788618 48.3739837398374,78.35365853658537 48.577235772357724,77.84552845528455 48.729674796747965,77.33739837398373 48.78048780487805,76.82926829268293 48.83130081300813,76.42276422764228 48.83130081300813,76.01626016260163 48.83130081300813,75.71138211382113 48.83130081300813,75.5081300813008 48.83130081300813,75.40650406504065 48.93292682926829,75.2540650406504 49.08536585365854,75.05081300813008 49.4410569105691,74.79674796747967" fill="none" stroke="black" stroke-width="0.6"></polyline><polyline points="60.51829268292683,74.64430894308943 60.51829268292683,74.59349593495935 60.56910569105691,74.49186991869918 60.56910569105691,74.39024390243902 60.61991869918699,74.33943089430895 60.72154471544715,74.28861788617886 60.8739837398374,74.28861788617886 61.1280487804878,74.54268292682927 61.43292682926829,74.94918699186992 61.83943089430894,75.66056910569105 62.296747967479675,76.42276422764228 62.703252032520325,77.1341463414634 63.109756097560975,77.59146341463415 63.516260162601625,77.84552845528455 63.87195121951219,77.89634146341463 64.22764227642276,77.84552845528455 64.53252032520325,77.6930894308943 64.78658536585365,77.48983739837398 64.98983739837398,77.23577235772358 65.2439024390244,76.93089430894308 65.44715447154472,76.6260162601626 65.65040650406505,76.27032520325203 65.85365853658537,75.91463414634146 66.0060975609756,75.5081300813008 66.10772357723577,75 66.26016260162602,74.59349593495935 66.36178861788618,74.39024390243902 66.46341463414635,74.33943089430895 66.5650406504065,74.28861788617886 66.61585365853658,74.28861788617886 66.71747967479675,74.28861788617886 66.869918699187,74.33943089430895 66.97154471544715,74.33943089430895 67.1239837398374,74.39024390243902 67.27642276422765,74.39024390243902 67.42886178861788,74.39024390243902" fill="none" stroke="black" stroke-width="0.6"></polyline><polyline points="61.890243902439025,71.64634146341463 61.83943089430894,71.59552845528455 61.78861788617886,71.59552845528455 61.73780487804878,71.54471544715447 61.73780487804878,71.54471544715447 61.83943089430894,71.64634146341463 62.042682926829265,71.84959349593495 62.34756097560975,72.15447154471545 62.7540650406504,72.66260162601625 63.3130081300813,73.3739837398374 63.97357723577235,74.1869918699187 64.73577235772358,74.94918699186992 65.34552845528455,75.5081300813008 65.80284552845528,75.96544715447155 66.26016260162602,76.27032520325203 66.5650406504065,76.47357723577235 66.76829268292683,76.67682926829268 66.97154471544715,76.82926829268293 67.02235772357723,76.93089430894308 67.07317073170732,76.98170731707317 67.17479674796748,77.03252032520325 67.22560975609755,77.08333333333333 67.27642276422765,77.08333333333333 67.27642276422765,77.08333333333333 67.32723577235772,77.08333333333333 67.32723577235772,77.08333333333333 67.27642276422765,77.03252032520325 67.17479674796748,76.93089430894308 67.1239837398374,76.77845528455285" fill="none" stroke="black" stroke-width="0.6"></polyline><polyline points="61.229674796747965,78.35365853658537 61.229674796747965,78.35365853658537 61.1280487804878,78.35365853658537 61.02642276422764,78.35365853658537 61.02642276422764,78.35365853658537 61.077235772357724,78.2520325203252 61.38211382113821,77.89634146341463 61.83943089430894,77.28658536585365 62.5,76.47357723577235 63.262195121951216,75.45731707317073 63.97357723577235,74.59349593495935 64.6341463414634,73.98373983739837 65.14227642276423,73.52642276422765 65.59959349593495,73.17073170731707 66.0060975609756,72.8150406504065 66.41260162601625,72.5609756097561 66.71747967479675,72.35772357723577 66.92073170731707,72.2560975609756 67.07317073170732,72.20528455284553 67.07317073170732,72.20528455284553 67.07317073170732,72.20528455284553 67.07317073170732,72.20528455284553 67.07317073170732,72.20528455284553 67.07317073170732,72.20528455284553 67.07317073170732,72.20528455284553 67.07317073170732,72.20528455284553 66.97154471544715,72.40853658536585" fill="none" stroke="black" stroke-width="0.6"></polyline><polyline points="79.3191056910569,72.61178861788618 79.3191056910569,72.61178861788618 79.3191056910569,72.66260162601625 79.3191056910569,72.76422764227642 79.369918699187,73.01829268292683 79.57317073170732,73.3739837398374 79.92886178861788,73.78048780487805 80.33536585365853,74.28861788617886 80.74186991869918,74.64430894308943 81.09756097560975,75.05081300813008 81.45325203252033,75.40650406504065 81.7581300813008,75.71138211382113 82.01219512195122,76.01626016260163 82.3170731707317,76.27032520325203 82.46951219512195,76.42276422764228 82.6219512195122,76.47357723577235 82.67276422764228,76.47357723577235 82.67276422764228,76.47357723577235 82.67276422764228,76.42276422764228 82.72357723577235,76.11788617886178 82.72357723577235,75.60975609756098 82.77439024390243,74.94918699186992 82.77439024390243,74.28861788617886 82.77439024390243,73.6280487804878 82.77439024390243,72.91666666666667 82.72357723577235,72.40853658536585 82.6219512195122,72.10365853658537 82.52032520325203,71.95121951219512 82.41869918699187,71.95121951219512 82.3170731707317,72.0020325203252 82.16463414634146,72.20528455284553 82.0630081300813,72.71341463414635 81.91056910569105,73.47560975609755 81.70731707317073,74.49186991869918 81.55487804878048,75.5081300813008 81.45325203252033,76.6260162601626 81.35162601626016,77.74390243902438 81.35162601626016,78.40447154471545 81.40243902439025,78.8109756097561 81.45325203252033,79.16666666666667 81.5040650406504,79.369918699187 81.5040650406504,79.52235772357723 81.45325203252033,79.57317073170732" fill="none" stroke="black" stroke-width="0.6"></polyline><polyline points="13.567073170731707,89.27845528455285 13.567073170731707,89.22764227642276 13.465447154471544,89.17682926829268 13.465447154471544,89.1260162601626 13.516260162601625,89.07520325203252 13.770325203252032,88.97357723577235 14.176829268292682,88.77032520325203 14.684959349593496,88.5670731707317 15.345528455284553,88.3130081300813 16.15853658536585,88.10975609756098 17.073170731707318,87.80487804878048 17.835365853658537,87.55081300813008 18.495934959349594,87.39837398373983 18.953252032520325,87.34756097560975 19.15650406504065,87.34756097560975 19.20731707317073,87.34756097560975 19.20731707317073,87.39837398373983 19.15650406504065,87.44918699186992 19.054878048780488,87.60162601626016 18.75,88.0081300813008 18.39430894308943,88.61788617886178 17.88617886178862,89.32926829268293 17.327235772357724,90.1930894308943 16.71747967479675,91.10772357723577 16.10772357723577,91.97154471544715 15.548780487804878,92.78455284552845 15.19308943089431,93.39430894308943 14.989837398373984,93.95325203252033 14.83739837398374,94.35975609756098 14.786585365853659,94.61382113821138 14.786585365853659,94.66463414634146 14.989837398373984,94.66463414634146 15.294715447154472,94.5630081300813 15.752032520325203,94.35975609756098 16.463414634146343,94.05487804878048 17.327235772357724,93.69918699186992 18.34349593495935,93.34349593495935 19.461382113821138,92.9369918699187 20.3760162601626,92.6829268292683 21.13821138211382,92.42886178861788 21.54471544715447,92.3780487804878 21.849593495934958,92.3780487804878 22.052845528455283,92.3780487804878 22.205284552845526,92.42886178861788 22.30691056910569,92.47967479674797 22.560975609756095,92.58130081300813 22.916666666666668,92.73373983739837 23.221544715447155,92.78455284552845" fill="none" stroke="black" stroke-width="0.6"></polyline></svg>