<svg height="100" width="100" preserveAspectRatio="xMidYMid meet"><polyline points="49.59349593495935,50.10162601626016 49.59349593495935,50.10162601626016 49.59349593495935,50.10162601626016 49.542682926829265,50.10162601626016 49.542682926829265,50.10162601626016 49.542682926829265,50.10162601626016 49.49186991869919,50.10162601626016 49.49186991869919,50.10162601626016 49.49186991869919,50.10162601626016 49.49186991869919,50.10162601626016 49.49186991869919,50.10162601626016 49.49186991869919,50.10162601626016 49.49186991869919,50.10162601626016 49.49186991869919,50.10162601626016 49.49186991869919,50.10162601626016 49.49186991869919,50.10162601626016 49.49186991869919,50.10162601626016 49.49186991869919,50.10162601626016 49.49186991869919,50.05081300813008 49.49186991869919,50.05081300813008 49.49186991869919,50 49.49186991869919,50 49.49186991869919,49.949186991869915 49.49186991869919,49.84756097560975 49.49186991869919,49.796747967479675 49.49186991869919,49.69512195121951 49.49186991869919,49.59349593495935 49.49186991869919,49.49186991869919 49.49186991869919,49.390243902439025 49.49186991869919,49.33943089430894 49.49186991869919,49.23780487804878 49.542682926829265,49.136178861788615 49.542682926829265,49.03455284552845 49.542682926829265,48.93292682926829 49.59349593495935,48.88211382113821 49.59349593495935,48.78048780487805 49.59349593495935,48.67886178861789 49.59349593495935,48.577235772357724 49.59349593495935,48.52642276422764 49.59349593495935,48.42479674796748 49.59349593495935,48.3739837398374 49.59349593495935,48.323170731707314 49.542682926829265,48.27235772357724 49.542682926829265,48.22154471544715 49.49186991869919,48.170731707317074 49.49186991869919,48.11991869918699 49.4410569105691,48.06910569105691 49.4410569105691,48.01829268292683 49.390243902439025,47.96747967479675 49.33943089430894,47.916666666666664 49.28861788617886,47.86585365853659" fill="none" stroke="black" stroke-width="0.6"></polyline><polyline points="49.28861788617886,47.86585365853659 49.28861788617886,47.8150406504065 49.23780487804878,47.764227642276424 49.1869918699187,47.764227642276424 49.136178861788615,47.71341463414634 49.08536585365854,47.71341463414634 49.03455284552845,47.66260162601626 48.983739837398375,47.66260162601626 48.88211382113821,47.61178861788618 48.83130081300813,47.61178861788618 48.78048780487805,47.61178861788618 48.67886178861789,47.5609756097561 48.6280487804878,47.5609756097561 48.577235772357724,47.5609756097561 48.52642276422764,47.5609756097561 48.47560975609756,47.5609756097561 48.42479674796748,47.5609756097561 48.3739837398374,47.5609756097561 48.323170731707314,47.5609756097561 48.27235772357724,47.5609756097561 48.22154471544715,47.5609756097561 48.11991869918699,47.5609756097561 48.06910569105691,47.5609756097561 48.01829268292683,47.5609756097561 47.96747967479675,47.61178861788618 47.86585365853659,47.66260162601626 47.8150406504065,47.71341463414634 47.71341463414634,47.764227642276424 47.61178861788618,47.8150406504065 47.459349593495936,47.916666666666664 47.357723577235774,48.01829268292683 47.25609756097561,48.11991869918699 47.103658536585364,48.22154471544715 47.0020325203252,48.3739837398374 46.84959349593496,48.47560975609756 46.697154471544714,48.6280487804878 46.59552845528455,48.78048780487805 46.49390243902439,48.88211382113821 46.392276422764226,49.03455284552845 46.34146341463415,49.1869918699187 46.239837398373986,49.28861788617886 46.1890243902439,49.4410569105691 46.08739837398374,49.59349593495935 46.03658536585366,49.74593495934959 45.985772357723576,49.84756097560975 45.9349593495935,50 45.88414634146341,50.10162601626016 45.833333333333336,50.2540650406504 45.833333333333336,50.355691056910565 45.78252032520325,50.45731707317073 45.78252032520325,50.609756097560975" fill="none" stroke="black" stroke-width="0.6"></polyline><polyline points="45.78252032520325,50.609756097560975 45.73170731707317,50.71138211382114 45.73170731707317,50.86382113821138 45.73170731707317,51.016260162601625 45.73170731707317,51.11788617886179 45.73170731707317,51.21951219512195 45.73170731707317,51.37195121951219 45.73170731707317,51.47357723577235 45.73170731707317,51.6260162601626 45.78252032520325,51.77845528455284 45.833333333333336,51.880081300813 45.833333333333336,52.03252032520325 45.88414634146341,52.1849593495935 45.9349593495935,52.28658536585366 45.985772357723576,52.4390243902439 46.03658536585366,52.540650406504064 46.08739837398374,52.69308943089431 46.13821138211382,52.79471544715447 46.1890243902439,52.896341463414636 46.290650406504064,53.048780487804876 46.34146341463415,53.15040650406504 46.392276422764226,53.2520325203252 46.44308943089431,53.353658536585364 46.54471544715447,53.45528455284553 46.59552845528455,53.55691056910569 46.646341463414636,53.607723577235774 46.7479674796748,53.709349593495936 46.798780487804876,53.8109756097561 46.90040650406504,53.86178861788618 46.951219512195124,53.96341463414634 47.052845528455286,54.0650406504065 47.15447154471545,54.11585365853659 47.25609756097561,54.21747967479675 47.357723577235774,54.31910569105691 47.459349593495936,54.420731707317074 47.5609756097561,54.52235772357724 47.61178861788618,54.6239837398374 47.71341463414634,54.72560975609756 47.8150406504065,54.827235772357724 47.916666666666664,54.92886178861789 48.01829268292683,55.03048780487805 48.11991869918699,55.13211382113821 48.22154471544715,55.18292682926829 48.323170731707314,55.233739837398375 48.47560975609756,55.33536585365854 48.577235772357724,55.386178861788615 48.67886178861789,55.386178861788615 48.83130081300813,55.4369918699187 48.93292682926829,55.4369918699187 49.03455284552845,55.48780487804878 49.136178861788615,55.48780487804878" fill="none" stroke="black" stroke-width="0.6"></polyline><polyline points="49.136178861788615,55.48780487804878 49.23780487804878,55.48780487804878 49.390243902439025,55.53861788617886 49.542682926829265,55.53861788617886 49.64430894308943,55.53861788617886 49.796747967479675,55.53861788617886 49.89837398373984,55.53861788617886 50,55.53861788617886 50.10162601626016,55.53861788617886 50.203252032520325,55.53861788617886 50.30487804878049,55.53861788617886 50.45731707317073,55.53861788617886 50.55894308943089,55.53861788617886 50.71138211382114,55.58943089430894 50.8130081300813,55.58943089430894 50.96544715447154,55.58943089430894 51.0670731707317,55.58943089430894 51.168699186991866,55.58943089430894 51.32113821138211,55.58943089430894 51.422764227642276,55.640243902439025 51.52439024390244,55.640243902439025 51.6260162601626,55.640243902439025 51.72764227642276,55.6910569105691 51.829268292682926,55.6910569105691 51.981707317073166,55.74186991869919 52.03252032520325,55.74186991869919 52.13414634146341,55.74186991869919 52.235772357723576,55.74186991869919 52.33739837398374,55.74186991869919 52.38821138211382,55.74186991869919 52.489837398373986,55.74186991869919 52.540650406504064,55.74186991869919 52.642276422764226,55.74186991869919 52.74390243902439,55.6910569105691 52.84552845528455,55.6910569105691 52.947154471544714,55.640243902439025 53.048780487804876,55.58943089430894 53.15040650406504,55.48780487804878 53.2520325203252,55.4369918699187 53.40447154471545,55.33536585365854 53.50609756097561,55.233739837398375 53.65853658536585,55.08130081300813 53.760162601626014,54.979674796747965 53.91260162601626,54.827235772357724 54.0650406504065,54.6239837398374 54.21747967479675,54.52235772357724 54.31910569105691,54.36991869918699 54.47154471544715,54.21747967479675 54.52235772357724,54.11585365853659 54.6239837398374,53.96341463414634 54.77642276422764,53.8109756097561" fill="none" stroke="black" stroke-width="0.6"></polyline><polyline points="54.77642276422764,53.8109756097561 54.8780487804878,53.65853658536585 54.979674796747965,53.50609756097561 55.13211382113821,53.353658536585364 55.18292682926829,53.201219512195124 55.28455284552845,53.048780487804876 55.4369918699187,52.84552845528455 55.48780487804878,52.69308943089431 55.58943089430894,52.540650406504064 55.6910569105691,52.38821138211382 55.74186991869919,52.235772357723576 55.84349593495935,52.083333333333336 55.89430894308943,51.880081300813 55.99593495934959,51.67682926829268 56.046747967479675,51.52439024390244 56.14837398373984,51.37195121951219 56.199186991869915,51.21951219512195 56.30081300813008,51.016260162601625 56.35162601626016,50.8130081300813 56.453252032520325,50.66056910569105 56.5040650406504,50.50813008130081 56.605691056910565,50.30487804878049 56.65650406504065,50.15243902439024 56.70731707317073,50 56.75813008130081,49.796747967479675 56.80894308943089,49.64430894308943 56.80894308943089,49.542682926829265 56.859756097560975,49.390243902439025 56.91056910569105,49.1869918699187 56.96138211382114,49.03455284552845 56.96138211382114,48.88211382113821 57.012195121951216,48.729674796747965 57.0630081300813,48.6280487804878 57.0630081300813,48.47560975609756 57.11382113821138,48.3739837398374 57.11382113821138,48.27235772357724 57.11382113821138,48.170731707317074 57.11382113821138,48.06910569105691 57.11382113821138,48.01829268292683 57.11382113821138,47.916666666666664 57.0630081300813,47.8150406504065 57.012195121951216,47.71341463414634 57.012195121951216,47.61178861788618 56.96138211382114,47.459349593495936 56.91056910569105,47.357723577235774 56.859756097560975,47.20528455284553 56.80894308943089,47.103658536585364 56.80894308943089,46.951219512195124 56.75813008130081,46.798780487804876 56.70731707317073,46.646341463414636 56.65650406504065,46.54471544715447" fill="none" stroke="black" stroke-width="0.6"></polyline><polyline points="56.65650406504065,46.54471544715447 56.65650406504065,46.392276422764226 56.605691056910565,46.239837398373986 56.605691056910565,46.08739837398374 56.605691056910565,45.985772357723576 56.55487804878049,45.833333333333336 56.55487804878049,45.68089430894309 56.5040650406504,45.579268292682926 56.453252032520325,45.47764227642276 56.40243902439024,45.3760162601626 56.35162601626016,45.27439024390244 56.30081300813008,45.22357723577235 56.25,45.12195121951219 56.199186991869915,45.02032520325203 56.14837398373984,44.918699186991866 56.046747967479675,44.8170731707317 55.99593495934959,44.766260162601625 55.94512195121951,44.66463414634146 55.84349593495935,44.5630081300813 55.792682926829265,44.512195121951216 55.74186991869919,44.41056910569105 55.640243902439025,44.359756097560975 55.58943089430894,44.30894308943089 55.53861788617886,44.20731707317073 55.4369918699187,44.15650406504065 55.386178861788615,44.05487804878049 55.28455284552845,44.0040650406504 55.18292682926829,43.90243902439024 55.13211382113821,43.85162601626016 55.03048780487805,43.75 54.92886178861789,43.699186991869915 54.827235772357724,43.59756097560975 54.72560975609756,43.546747967479675 54.67479674796748,43.49593495934959 54.573170731707314,43.39430894308943 54.47154471544715,43.34349593495935 54.36991869918699,43.24186991869919 54.31910569105691,43.140243902439025 54.21747967479675,43.08943089430894 54.11585365853659,42.98780487804878 54.014227642276424,42.9369918699187 53.91260162601626,42.83536585365854 53.8109756097561,42.733739837398375 53.709349593495936,42.63211382113821 53.607723577235774,42.58130081300813 53.45528455284553,42.479674796747965 53.353658536585364,42.3780487804878 53.201219512195124,42.27642276422764 53.048780487804876,42.22560975609756 52.947154471544714,42.1239837398374 52.84552845528455,42.073170731707314" fill="none" stroke="black" stroke-width="0.6"></polyline><polyline points="52.84552845528455,42.073170731707314 52.69308943089431,42.02235772357724 52.59146341463415,41.920731707317074 52.489837398373986,41.86991869918699 52.38821138211382,41.81910569105691 52.28658536585366,41.71747967479675 52.13414634146341,41.666666666666664 52.03252032520325,41.61585365853659 51.93089430894309,41.5650406504065 51.829268292682926,41.5650406504065 51.72764227642276,41.514227642276424 51.6260162601626,41.514227642276424 51.52439024390244,41.46341463414634 51.422764227642276,41.46341463414634 51.27032520325203,41.46341463414634 51.168699186991866,41.41260162601626 51.016260162601625,41.41260162601626 50.91463414634146,41.36178861788618 50.8130081300813,41.36178861788618 50.66056910569105,41.36178861788618 50.55894308943089,41.36178861788618 50.40650406504065,41.3109756097561 50.30487804878049,41.3109756097561 50.203252032520325,41.3109756097561 50.05081300813008,41.3109756097561 49.949186991869915,41.3109756097561 49.84756097560975,41.3109756097561 49.74593495934959,41.3109756097561 49.64430894308943,41.3109756097561 49.542682926829265,41.3109756097561 49.4410569105691,41.3109756097561 49.33943089430894,41.3109756097561 49.23780487804878,41.3109756097561 49.136178861788615,41.3109756097561 49.03455284552845,41.3109756097561 48.93292682926829,41.3109756097561 48.78048780487805,41.3109756097561 48.67886178861789,41.3109756097561 48.52642276422764,41.3109756097561 48.42479674796748,41.3109756097561 48.27235772357724,41.36178861788618 48.170731707317074,41.36178861788618 48.06910569105691,41.36178861788618 47.916666666666664,41.36178861788618 47.8150406504065,41.41260162601626 47.71341463414634,41.46341463414634 47.61178861788618,41.46341463414634 47.510162601626014,41.514227642276424 47.357723577235774,41.514227642276424 47.25609756097561,41.5650406504065 47.15447154471545,41.61585365853659" fill="none" stroke="black" stroke-width="0.6"></polyline><polyline points="47.15447154471545,41.61585365853659 47.0020325203252,41.61585365853659 46.90040650406504,41.666666666666664 46.7479674796748,41.71747967479675 46.646341463414636,41.71747967479675 46.49390243902439,41.76829268292683 46.392276422764226,41.76829268292683 46.290650406504064,41.76829268292683 46.239837398373986,41.81910569105691 46.13821138211382,41.81910569105691 46.08739837398374,41.81910569105691 45.985772357723576,41.81910569105691 45.9349593495935,41.86991869918699 45.833333333333336,41.86991869918699 45.73170731707317,41.920731707317074 45.63008130081301,41.920731707317074 45.52845528455285,41.97154471544715 45.42682926829268,42.02235772357724 45.325203252032516,42.073170731707314 45.172764227642276,42.1239837398374 45.07113821138211,42.17479674796748 45.02032520325203,42.22560975609756 44.918699186991866,42.27642276422764 44.8170731707317,42.327235772357724 44.766260162601625,42.3780487804878 44.66463414634146,42.42886178861789 44.5630081300813,42.479674796747965 44.46138211382114,42.58130081300813 44.30894308943089,42.68292682926829 44.20731707317073,42.733739837398375 44.105691056910565,42.886178861788615 43.953252032520325,42.98780487804878 43.80081300813008,43.140243902439025 43.64837398373984,43.24186991869919 43.546747967479675,43.39430894308943 43.39430894308943,43.49593495934959 43.24186991869919,43.64837398373984 43.140243902439025,43.80081300813008 42.98780487804878,43.90243902439024 42.83536585365854,44.05487804878049 42.733739837398375,44.15650406504065 42.58130081300813,44.30894308943089 42.479674796747965,44.41056910569105 42.3780487804878,44.5630081300813 42.22560975609756,44.66463414634146 42.1239837398374,44.766260162601625 42.073170731707314,44.86788617886179 41.97154471544715,44.96951219512195 41.86991869918699,45.07113821138211 41.81910569105691,45.22357723577235 41.71747967479675,45.325203252032516" fill="none" stroke="black" stroke-width="0.6"></polyline><polyline points="41.71747967479675,45.325203252032516 41.666666666666664,45.42682926829268 41.5650406504065,45.52845528455285 41.46341463414634,45.68089430894309 41.36178861788618,45.78252032520325 41.3109756097561,45.88414634146341 41.209349593495936,45.985772357723576 41.15853658536585,46.13821138211382 41.05691056910569,46.239837398373986 41.00609756097561,46.34146341463415 40.95528455284553,46.44308943089431 40.90447154471545,46.59552845528455 40.802845528455286,46.697154471544714 40.7520325203252,46.798780487804876 40.701219512195124,46.951219512195124 40.65040650406504,47.052845528455286 40.548780487804876,47.20528455284553 40.4979674796748,47.30691056910569 40.447154471544714,47.40853658536585 40.396341463414636,47.5609756097561 40.34552845528455,47.66260162601626 40.29471544715447,47.764227642276424 40.24390243902439,47.8150406504065 40.19308943089431,47.916666666666664 40.142276422764226,47.96747967479675 40.142276422764226,48.06910569105691 40.09146341463415,48.11991869918699 40.09146341463415,48.22154471544715 40.09146341463415,48.323170731707314 40.040650406504064,48.3739837398374 40.040650406504064,48.47560975609756 40.040650406504064,48.577235772357724 39.989837398373986,48.67886178861789 39.989837398373986,48.729674796747965 39.989837398373986,48.83130081300813 39.9390243902439,48.93292682926829 39.9390243902439,48.983739837398375 39.88821138211382,49.08536585365854 39.88821138211382,49.1869918699187 39.88821138211382,49.28861788617886 39.83739837398374,49.390243902439025 39.83739837398374,49.49186991869919 39.83739837398374,49.542682926829265 39.78658536585366,49.64430894308943 39.78658536585366,49.69512195121951 39.78658536585366,49.796747967479675 39.78658536585366,49.84756097560975 39.78658536585366,49.949186991869915 39.78658536585366,50.05081300813008 39.78658536585366,50.15243902439024 39.735772357723576,50.2540650406504" fill="none" stroke="black" stroke-width="0.6"></polyline><polyline points="39.735772357723576,50.2540650406504 39.735772357723576,50.355691056910565 39.735772357723576,50.45731707317073 39.735772357723576,50.55894308943089 39.735772357723576,50.71138211382114 39.735772357723576,50.86382113821138 39.735772357723576,50.96544715447154 39.735772357723576,51.11788617886179 39.735772357723576,51.27032520325203 39.735772357723576,51.422764227642276 39.735772357723576,51.575203252032516 39.735772357723576,51.72764227642276 39.735772357723576,51.880081300813 39.735772357723576,51.981707317073166 39.735772357723576,52.13414634146341 39.735772357723576,52.235772357723576 39.735772357723576,52.33739837398374 39.735772357723576,52.4390243902439 39.735772357723576,52.540650406504064 39.735772357723576,52.642276422764226 39.735772357723576,52.74390243902439 39.735772357723576,52.84552845528455 39.735772357723576,52.947154471544714 39.735772357723576,53.048780487804876 39.735772357723576,53.09959349593496 39.735772357723576,53.201219512195124 39.735772357723576,53.302845528455286 39.735772357723576,53.353658536585364 39.78658536585366,53.45528455284553 39.78658536585366,53.50609756097561 39.78658536585366,53.607723577235774 39.83739837398374,53.65853658536585 39.83739837398374,53.760162601626014 39.88821138211382,53.86178861788618 39.88821138211382,53.91260162601626 39.88821138211382,54.014227642276424 39.9390243902439,54.0650406504065 39.9390243902439,54.166666666666664 39.989837398373986,54.21747967479675 39.989837398373986,54.31910569105691 40.040650406504064,54.36991869918699 40.040650406504064,54.47154471544715 40.09146341463415,54.573170731707314 40.09146341463415,54.67479674796748 40.142276422764226,54.72560975609756 40.142276422764226,54.827235772357724 40.19308943089431,54.92886178861789 40.24390243902439,55.03048780487805 40.24390243902439,55.13211382113821 40.29471544715447,55.233739837398375 40.34552845528455,55.33536585365854" fill="none" stroke="black" stroke-width="0.6"></polyline><polyline points="40.34552845528455,55.33536585365854 40.34552845528455,55.386178861788615 40.396341463414636,55.48780487804878 40.447154471544714,55.58943089430894 40.4979674796748,55.6910569105691 40.548780487804876,55.74186991869919 40.59959349593496,55.84349593495935 40.65040650406504,55.94512195121951 40.701219512195124,55.99593495934959 40.7520325203252,56.09756097560975 40.802845528455286,56.199186991869915 40.853658536585364,56.25 40.90447154471545,56.35162601626016 41.00609756097561,56.453252032520325 41.05691056910569,56.55487804878049 41.107723577235774,56.65650406504065 41.15853658536585,56.70731707317073 41.260162601626014,56.80894308943089 41.3109756097561,56.91056910569105 41.36178861788618,57.012195121951216 41.41260162601626,57.0630081300813 41.46341463414634,57.16463414634146 41.5650406504065,57.21544715447154 41.61585365853659,57.3170731707317 41.71747967479675,57.36788617886179 41.76829268292683,57.46951219512195 41.81910569105691,57.52032520325203 41.920731707317074,57.62195121951219 42.02235772357724,57.672764227642276 42.073170731707314,57.72357723577235 42.17479674796748,57.825203252032516 42.27642276422764,57.8760162601626 42.3780487804878,57.97764227642276 42.479674796747965,58.02845528455284 42.58130081300813,58.130081300813 42.63211382113821,58.18089430894309 42.733739837398375,58.231707317073166 42.78455284552845,58.33333333333333 42.83536585365854,58.38414634146341 42.9369918699187,58.43495934959349 42.98780487804878,58.536585365853654 43.03861788617886,58.58739837398374 43.140243902439025,58.6890243902439 43.1910569105691,58.790650406504064 43.292682926829265,58.84146341463415 43.39430894308943,58.94308943089431 43.44512195121951,59.04471544715447 43.546747967479675,59.146341463414636 43.64837398373984,59.2479674796748 43.699186991869915,59.298780487804876 43.80081300813008,59.40040650406504" fill="none" stroke="black" stroke-width="0.6"></polyline><polyline points="43.80081300813008,59.40040650406504 43.85162601626016,59.5020325203252 43.90243902439024,59.552845528455286 44.0040650406504,59.603658536585364 44.05487804878049,59.70528455284553 44.105691056910565,59.75609756097561 44.15650406504065,59.80691056910569 44.20731707317073,59.857723577235774 44.30894308943089,59.90853658536585 44.359756097560975,59.959349593495936 44.41056910569105,59.959349593495936 44.46138211382114,60.010162601626014 44.512195121951216,60.0609756097561 44.5630081300813,60.11178861788618 44.66463414634146,60.11178861788618 44.71544715447154,60.16260162601626 44.766260162601625,60.16260162601626 44.8170731707317,60.21341463414634 44.918699186991866,60.264227642276424 44.96951219512195,60.264227642276424 45.02032520325203,60.3150406504065 45.12195121951219,60.36585365853659 45.172764227642276,60.36585365853659 45.27439024390244,60.416666666666664 45.325203252032516,60.416666666666664 45.42682926829268,60.46747967479675 45.52845528455285,60.51829268292683 45.63008130081301,60.51829268292683 45.73170731707317,60.56910569105691 45.833333333333336,60.61991869918699 45.9349593495935,60.61991869918699 46.03658536585366,60.670731707317074 46.1890243902439,60.72154471544715 46.290650406504064,60.72154471544715 46.392276422764226,60.77235772357724 46.49390243902439,60.823170731707314 46.646341463414636,60.8739837398374 46.7479674796748,60.92479674796748 46.84959349593496,60.97560975609756 46.951219512195124,61.02642276422764 47.052845528455286,61.077235772357724 47.15447154471545,61.1280487804878 47.25609756097561,61.17886178861789 47.357723577235774,61.229674796747965 47.459349593495936,61.229674796747965 47.5609756097561,61.28048780487805 47.66260162601626,61.33130081300813 47.764227642276424,61.33130081300813 47.86585365853659,61.38211382113821 47.916666666666664,61.38211382113821 48.01829268292683,61.38211382113821" fill="none" stroke="black" stroke-width="0.6"></polyline><polyline points="48.01829268292683,61.38211382113821 48.06910569105691,61.43292682926829 48.170731707317074,61.43292682926829 48.22154471544715,61.43292682926829 48.27235772357724,61.483739837398375 48.3739837398374,61.483739837398375 48.47560975609756,61.53455284552845 48.577235772357724,61.53455284552845 48.67886178861789,61.58536585365854 48.78048780487805,61.58536585365854 48.88211382113821,61.636178861788615 48.983739837398375,61.636178861788615 49.08536585365854,61.636178861788615 49.1869918699187,61.6869918699187 49.28861788617886,61.6869918699187 49.33943089430894,61.6869918699187 49.4410569105691,61.6869918699187 49.542682926829265,61.6869918699187 49.59349593495935,61.6869918699187 49.69512195121951,61.6869918699187 49.796747967479675,61.6869918699187 49.84756097560975,61.6869918699187 49.949186991869915,61.6869918699187 50.05081300813008,61.6869918699187 50.10162601626016,61.73780487804878 50.203252032520325,61.73780487804878 50.30487804878049,61.73780487804878 50.355691056910565,61.73780487804878 50.45731707317073,61.73780487804878 50.609756097560975,61.73780487804878 50.71138211382114,61.73780487804878 50.8130081300813,61.73780487804878 50.91463414634146,61.73780487804878 51.016260162601625,61.73780487804878 51.11788617886179,61.73780487804878 51.21951219512195,61.73780487804878 51.32113821138211,61.73780487804878 51.422764227642276,61.73780487804878 51.52439024390244,61.6869918699187 51.6260162601626,61.6869918699187 51.72764227642276,61.6869918699187 51.829268292682926,61.6869918699187 51.93089430894309,61.636178861788615 52.03252032520325,61.636178861788615 52.13414634146341,61.636178861788615 52.1849593495935,61.58536585365854 52.28658536585366,61.58536585365854 52.38821138211382,61.58536585365854 52.4390243902439,61.58536585365854 52.489837398373986,61.58536585365854 52.59146341463415,61.58536585365854" fill="none" stroke="black" stroke-width="0.6"></polyline><polyline points="52.59146341463415,61.58536585365854 52.642276422764226,61.58536585365854 52.74390243902439,61.58536585365854 52.84552845528455,61.58536585365854 52.947154471544714,61.58536585365854 53.048780487804876,61.58536585365854 53.15040650406504,61.636178861788615 53.2520325203252,61.636178861788615 53.353658536585364,61.636178861788615 53.45528455284553,61.636178861788615 53.55691056910569,61.6869918699187 53.65853658536585,61.6869918699187 53.760162601626014,61.6869918699187 53.86178861788618,61.6869918699187 53.96341463414634,61.6869918699187 54.0650406504065,61.6869918699187 54.166666666666664,61.6869918699187 54.26829268292683,61.6869918699187 54.36991869918699,61.6869918699187 54.52235772357724,61.6869918699187 54.6239837398374,61.6869918699187 54.72560975609756,61.6869918699187 54.77642276422764,61.6869918699187 54.8780487804878,61.636178861788615 54.979674796747965,61.636178861788615 55.08130081300813,61.636178861788615 55.13211382113821,61.636178861788615 55.233739837398375,61.58536585365854 55.33536585365854,61.58536585365854 55.386178861788615,61.53455284552845 55.48780487804878,61.53455284552845 55.58943089430894,61.483739837398375 55.6910569105691,61.43292682926829 55.74186991869919,61.38211382113821 55.84349593495935,61.33130081300813 55.94512195121951,61.28048780487805 56.046747967479675,61.229674796747965 56.14837398373984,61.17886178861789 56.30081300813008,61.1280487804878 56.453252032520325,61.02642276422764 56.55487804878049,60.92479674796748 56.70731707317073,60.823170731707314 56.859756097560975,60.72154471544715 57.012195121951216,60.61991869918699 57.16463414634146,60.46747967479675 57.3170731707317,60.36585365853659 57.418699186991866,60.21341463414634 57.57113821138211,60.11178861788618 57.72357723577235,59.959349593495936 57.825203252032516,59.80691056910569 57.97764227642276,59.70528455284553" fill="none" stroke="black" stroke-width="0.6"></polyline><polyline points="57.97764227642276,59.70528455284553 58.079268292682926,59.552845528455286 58.18089430894309,59.451219512195124 58.33333333333333,59.34959349593496 58.43495934959349,59.197154471544714 58.536585365853654,59.09552845528455 58.63821138211382,58.99390243902439 58.739837398373986,58.892276422764226 58.84146341463415,58.790650406504064 58.892276422764226,58.739837398373986 58.99390243902439,58.6890243902439 59.04471544715447,58.58739837398374 59.146341463414636,58.536585365853654 59.197154471544714,58.485772357723576 59.298780487804876,58.38414634146341 59.40040650406504,58.28252032520325 59.451219512195124,58.231707317073166 59.552845528455286,58.130081300813 59.65447154471545,58.02845528455284 59.75609756097561,57.92682926829268 59.857723577235774,57.825203252032516 59.959349593495936,57.72357723577235 60.0609756097561,57.62195121951219 60.11178861788618,57.52032520325203 60.21341463414634,57.418699186991866 60.3150406504065,57.266260162601625 60.416666666666664,57.11382113821138 60.56910569105691,57.012195121951216 60.670731707317074,56.859756097560975 60.823170731707314,56.65650406504065 60.92479674796748,56.55487804878049 61.02642276422764,56.40243902439024 61.1280487804878,56.25 61.229674796747965,56.14837398373984 61.33130081300813,55.99593495934959 61.43292682926829,55.84349593495935 61.483739837398375,55.74186991869919 61.58536585365854,55.58943089430894 61.6869918699187,55.386178861788615 61.78861788617886,55.233739837398375 61.83943089430894,55.08130081300813 61.9410569105691,54.92886178861789 61.99186991869919,54.77642276422764 62.042682926829265,54.573170731707314 62.14430894308943,54.420731707317074 62.19512195121951,54.26829268292683 62.19512195121951,54.0650406504065 62.24593495934959,53.91260162601626 62.296747967479675,53.8109756097561 62.34756097560975,53.65853658536585 62.39837398373984,53.45528455284553" fill="none" stroke="black" stroke-width="0.6"></polyline><polyline points="62.39837398373984,53.45528455284553 62.5,53.353658536585364 62.55081300813008,53.201219512195124 62.60162601626016,53.09959349593496 62.65243902439024,52.947154471544714 62.703252032520325,52.84552845528455 62.703252032520325,52.69308943089431 62.7540650406504,52.540650406504064 62.80487804878049,52.38821138211382 62.855691056910565,52.235772357723576 62.855691056910565,52.13414634146341 62.90650406504065,51.981707317073166 62.90650406504065,51.880081300813 62.95731707317073,51.77845528455284 63.00813008130081,51.67682926829268 63.00813008130081,51.575203252032516 63.05894308943089,51.47357723577235 63.109756097560975,51.32113821138211 63.16056910569105,51.168699186991866 63.21138211382114,51.016260162601625 63.262195121951216,50.86382113821138 63.3130081300813,50.71138211382114 63.3130081300813,50.55894308943089 63.36382113821138,50.45731707317073 63.36382113821138,50.355691056910565 63.36382113821138,50.2540650406504 63.41463414634146,50.10162601626016 63.41463414634146,50 63.41463414634146,49.84756097560975 63.41463414634146,49.69512195121951 63.46544715447154,49.59349593495935 63.46544715447154,49.4410569105691 63.46544715447154,49.33943089430894 63.46544715447154,49.1869918699187 63.516260162601625,49.08536585365854 63.516260162601625,48.93292682926829 63.516260162601625,48.83130081300813 63.516260162601625,48.67886178861789 63.516260162601625,48.577235772357724 63.516260162601625,48.42479674796748 63.516260162601625,48.323170731707314 63.516260162601625,48.170731707317074 63.516260162601625,48.01829268292683 63.516260162601625,47.86585365853659 63.516260162601625,47.71341463414634 63.516260162601625,47.5609756097561 63.516260162601625,47.40853658536585 63.516260162601625,47.20528455284553 63.516260162601625,47.052845528455286 63.516260162601625,46.90040650406504 63.516260162601625,46.7479674796748" fill="none" stroke="black" stroke-width="0.6"></polyline><polyline points="63.516260162601625,46.7479674796748 63.516260162601625,46.59552845528455 63.516260162601625,46.49390243902439 63.516260162601625,46.34146341463415 63.46544715447154,46.1890243902439 63.46544715447154,46.03658536585366 63.41463414634146,45.88414634146341 63.36382113821138,45.78252032520325 63.3130081300813,45.63008130081301 63.262195121951216,45.52845528455285 63.21138211382114,45.42682926829268 63.16056910569105,45.325203252032516 63.109756097560975,45.22357723577235 63.05894308943089,45.12195121951219 63.05894308943089,44.96951219512195 63.00813008130081,44.86788617886179 62.95731707317073,44.766260162601625 62.95731707317073,44.61382113821138 62.90650406504065,44.512195121951216 62.90650406504065,44.41056910569105 62.855691056910565,44.30894308943089 62.80487804878049,44.15650406504065 62.7540650406504,44.05487804878049 62.7540650406504,43.953252032520325 62.703252032520325,43.85162601626016 62.65243902439024,43.75 62.60162601626016,43.64837398373984 62.5,43.546747967479675 62.449186991869915,43.44512195121951 62.39837398373984,43.34349593495935 62.34756097560975,43.1910569105691 62.296747967479675,43.08943089430894 62.24593495934959,42.98780487804878 62.19512195121951,42.886178861788615 62.14430894308943,42.78455284552845 62.09349593495935,42.68292682926829 61.99186991869919,42.58130081300813 61.9410569105691,42.479674796747965 61.890243902439025,42.327235772357724 61.78861788617886,42.22560975609756 61.6869918699187,42.073170731707314 61.58536585365854,41.97154471544715 61.483739837398375,41.81910569105691 61.38211382113821,41.71747967479675 61.33130081300813,41.5650406504065 61.229674796747965,41.46341463414634 61.1280487804878,41.36178861788618 61.02642276422764,41.260162601626014 60.8739837398374,41.15853658536585 60.77235772357724,41.05691056910569 60.670731707317074,40.95528455284553" fill="none" stroke="black" stroke-width="0.6"></polyline><polyline points="60.670731707317074,40.95528455284553 60.51829268292683,40.853658536585364 60.416666666666664,40.7520325203252 60.3150406504065,40.701219512195124 60.16260162601626,40.59959349593496 60.0609756097561,40.4979674796748 59.959349593495936,40.447154471544714 59.857723577235774,40.34552845528455 59.75609756097561,40.24390243902439 59.65447154471545,40.19308943089431 59.552845528455286,40.09146341463415 59.451219512195124,39.989837398373986 59.40040650406504,39.88821138211382 59.298780487804876,39.78658536585366 59.2479674796748,39.735772357723576 59.197154471544714,39.63414634146341 59.146341463414636,39.583333333333336 59.09552845528455,39.53252032520325 59.04471544715447,39.43089430894309 58.99390243902439,39.38008130081301 58.94308943089431,39.329268292682926 58.892276422764226,39.27845528455285 58.84146341463415,39.22764227642276 58.790650406504064,39.176829268292686 58.739837398373986,39.1260162601626 58.63821138211382,39.07520325203252 58.58739837398374,39.02439024390244 58.536585365853654,38.97357723577235 58.485772357723576,38.922764227642276 58.43495934959349,38.87195121951219 58.38414634146341,38.77032520325203 58.33333333333333,38.71951219512195 58.28252032520325,38.668699186991866 58.231707317073166,38.61788617886179 58.130081300813,38.516260162601625 58.079268292682926,38.46544715447154 58.02845528455284,38.36382113821138 57.97764227642276,38.262195121951216 57.8760162601626,38.16056910569105 57.825203252032516,38.05894308943089 57.77439024390244,38.00813008130081 57.672764227642276,37.90650406504065 57.57113821138211,37.80487804878049 57.52032520325203,37.703252032520325 57.418699186991866,37.60162601626016 57.3170731707317,37.5 57.21544715447154,37.39837398373984 57.11382113821138,37.34756097560975 57.0630081300813,37.24593495934959 56.96138211382114,37.14430894308943 56.859756097560975,37.042682926829265" fill="none" stroke="black" stroke-width="0.6"></polyline><polyline points="56.859756097560975,37.042682926829265 56.75813008130081,36.9410569105691 56.70731707317073,36.890243902439025 56.605691056910565,36.78861788617886 56.55487804878049,36.73780487804878 56.453252032520325,36.636178861788615 56.35162601626016,36.58536585365854 56.30081300813008,36.53455284552845 56.199186991869915,36.483739837398375 56.09756097560975,36.38211382113821 55.99593495934959,36.33130081300813 55.89430894308943,36.28048780487805 55.792682926829265,36.229674796747965 55.6910569105691,36.17886178861789 55.58943089430894,36.1280487804878 55.48780487804878,36.077235772357724 55.386178861788615,36.02642276422764 55.28455284552845,35.97560975609756 55.18292682926829,35.92479674796748 55.03048780487805,35.8739837398374 54.92886178861789,35.823170731707314 54.827235772357724,35.77235772357724 54.67479674796748,35.77235772357724 54.573170731707314,35.72154471544715 54.47154471544715,35.670731707317074 54.36991869918699,35.670731707317074 54.21747967479675,35.61991869918699 54.11585365853659,35.61991869918699 53.96341463414634,35.56910569105691 53.86178861788618,35.56910569105691 53.760162601626014,35.56910569105691 53.607723577235774,35.51829268292683 53.45528455284553,35.51829268292683 53.302845528455286,35.51829268292683 53.15040650406504,35.51829268292683 52.9979674796748,35.46747967479675 52.84552845528455,35.46747967479675 52.69308943089431,35.46747967479675 52.540650406504064,35.46747967479675 52.33739837398374,35.416666666666664 52.1849593495935,35.416666666666664 52.03252032520325,35.416666666666664 51.829268292682926,35.416666666666664 51.67682926829268,35.416666666666664 51.52439024390244,35.416666666666664 51.32113821138211,35.416666666666664 51.21951219512195,35.416666666666664 51.0670731707317,35.36585365853659 50.86382113821138,35.36585365853659 50.71138211382114,35.3150406504065 50.55894308943089,35.3150406504065" fill="none" stroke="black" stroke-width="0.6"></polyline><polyline points="50.55894308943089,35.3150406504065 50.40650406504065,35.264227642276424 50.2540650406504,35.21341463414634 50.15243902439024,35.21341463414634 50,35.16260162601626 49.84756097560975,35.16260162601626 49.74593495934959,35.11178861788618 49.59349593495935,35.11178861788618 49.4410569105691,35.11178861788618 49.28861788617886,35.0609756097561 49.08536585365854,35.0609756097561 48.93292682926829,35.0609756097561 48.78048780487805,35.0609756097561 48.6280487804878,35.0609756097561 48.42479674796748,35.010162601626014 48.27235772357724,35.010162601626014 48.11991869918699,35.010162601626014 48.01829268292683,35.010162601626014 47.86585365853659,35.010162601626014 47.71341463414634,35.010162601626014 47.61178861788618,35.010162601626014 47.510162601626014,35.010162601626014 47.357723577235774,35.010162601626014 47.25609756097561,35.010162601626014 47.15447154471545,35.010162601626014 47.0020325203252,35.0609756097561 46.951219512195124,35.0609756097561 46.84959349593496,35.0609756097561 46.697154471544714,35.11178861788618 46.646341463414636,35.11178861788618 46.54471544715447,35.11178861788618 46.44308943089431,35.16260162601626 46.34146341463415,35.16260162601626 46.239837398373986,35.21341463414634 46.13821138211382,35.21341463414634 46.03658536585366,35.21341463414634 45.985772357723576,35.264227642276424 45.833333333333336,35.264227642276424 45.78252032520325,35.264227642276424 45.68089430894309,35.3150406504065 45.579268292682926,35.3150406504065 45.47764227642276,35.3150406504065 45.3760162601626,35.36585365853659 45.22357723577235,35.416666666666664 45.12195121951219,35.416666666666664 45.02032520325203,35.51829268292683 44.86788617886179,35.56910569105691 44.766260162601625,35.670731707317074 44.61382113821138,35.72154471544715 44.46138211382114,35.823170731707314 44.359756097560975,35.92479674796748" fill="none" stroke="black" stroke-width="0.6"></polyline><polyline points="44.359756097560975,35.92479674796748 44.20731707317073,35.97560975609756 44.105691056910565,36.02642276422764 44.0040650406504,36.1280487804878 43.85162601626016,36.17886178861789 43.75,36.229674796747965 43.59756097560975,36.28048780487805 43.49593495934959,36.33130081300813 43.34349593495935,36.38211382113821 43.24186991869919,36.43292682926829 43.140243902439025,36.483739837398375 43.03861788617886,36.483739837398375 42.9369918699187,36.53455284552845 42.83536585365854,36.58536585365854 42.733739837398375,36.636178861788615 42.63211382113821,36.6869918699187 42.479674796747965,36.73780487804878 42.42886178861789,36.78861788617886 42.327235772357724,36.83943089430894 42.22560975609756,36.890243902439025 42.1239837398374,36.9410569105691 42.02235772357724,36.99186991869919 41.920731707317074,37.042682926829265 41.81910569105691,37.042682926829265 41.71747967479675,37.09349593495935 41.61585365853659,37.14430894308943 41.514227642276424,37.19512195121951 41.46341463414634,37.296747967479675 41.36178861788618,37.34756097560975 41.260162601626014,37.39837398373984 41.15853658536585,37.449186991869915 41.05691056910569,37.5 40.95528455284553,37.55081300813008 40.90447154471545,37.60162601626016 40.7520325203252,37.703252032520325 40.65040650406504,37.7540650406504 40.548780487804876,37.855691056910565 40.396341463414636,37.95731707317073 40.29471544715447,38.05894308943089 40.19308943089431,38.16056910569105 40.040650406504064,38.262195121951216 39.9390243902439,38.3130081300813 39.83739837398374,38.41463414634146 39.735772357723576,38.46544715447154 39.63414634146341,38.516260162601625 39.583333333333336,38.5670731707317 39.48170731707317,38.668699186991866 39.43089430894309,38.71951219512195 39.38008130081301,38.77032520325203 39.329268292682926,38.82113821138211 39.27845528455285,38.87195121951219" fill="none" stroke="black" stroke-width="0.6"></polyline><polyline points="39.27845528455285,38.87195121951219 39.22764227642276,38.87195121951219 39.176829268292686,38.922764227642276 39.07520325203252,38.97357723577235 39.07520325203252,39.02439024390244 38.97357723577235,39.02439024390244 38.97357723577235,39.07520325203252 38.87195121951219,39.1260162601626 38.82113821138211,39.176829268292686 38.77032520325203,39.22764227642276 38.71951219512195,39.27845528455285 38.61788617886179,39.38008130081301 38.516260162601625,39.48170731707317 38.41463414634146,39.583333333333336 38.262195121951216,39.735772357723576 38.109756097560975,39.83739837398374 38.00813008130081,39.989837398373986 37.855691056910565,40.142276422764226 37.703252032520325,40.29471544715447 37.60162601626016,40.447154471544714 37.449186991869915,40.59959349593496 37.296747967479675,40.7520325203252 37.14430894308943,40.95528455284553 37.042682926829265,41.05691056910569 36.890243902439025,41.209349593495936 36.73780487804878,41.36178861788618 36.636178861788615,41.46341463414634 36.53455284552845,41.5650406504065 36.43292682926829,41.666666666666664 36.38211382113821,41.76829268292683 36.28048780487805,41.86991869918699 36.229674796747965,42.02235772357724 36.17886178861789,42.1239837398374 36.077235772357724,42.17479674796748 36.02642276422764,42.327235772357724 35.97560975609756,42.42886178861789 35.8739837398374,42.53048780487805 35.77235772357724,42.63211382113821 35.72154471544715,42.733739837398375 35.61991869918699,42.83536585365854 35.51829268292683,42.9369918699187 35.46747967479675,43.03861788617886 35.36585365853659,43.140243902439025 35.264227642276424,43.292682926829265 35.16260162601626,43.44512195121951 35.0609756097561,43.59756097560975 34.90853658536585,43.75 34.80691056910569,43.85162601626016 34.75609756097561,44.0040650406504 34.65447154471545,44.15650406504065 34.552845528455286,44.30894308943089" fill="none" stroke="black" stroke-width="0.6"></polyline><polyline points="34.552845528455286,44.30894308943089 34.5020325203252,44.41056910569105 34.451219512195124,44.5630081300813 34.40040650406504,44.66463414634146 34.34959349593496,44.766260162601625 34.298780487804876,44.918699186991866 34.2479674796748,45.07113821138211 34.146341463414636,45.172764227642276 34.09552845528455,45.325203252032516 34.04471544715447,45.42682926829268 33.99390243902439,45.52845528455285 33.94308943089431,45.68089430894309 33.892276422764226,45.78252032520325 33.892276422764226,45.88414634146341 33.84146341463415,46.03658536585366 33.84146341463415,46.1890243902439 33.790650406504064,46.34146341463415 33.739837398373986,46.54471544715447 33.6890243902439,46.697154471544714 33.6890243902439,46.84959349593496 33.63821138211382,47.052845528455286 33.58739837398374,47.20528455284553 33.58739837398374,47.357723577235774 33.53658536585366,47.5609756097561 33.485772357723576,47.71341463414634 33.485772357723576,47.8150406504065 33.4349593495935,48.01829268292683 33.38414634146341,48.170731707317074 33.38414634146341,48.323170731707314 33.333333333333336,48.52642276422764 33.333333333333336,48.67886178861789 33.333333333333336,48.83130081300813 33.28252032520325,49.03455284552845 33.28252032520325,49.1869918699187 33.28252032520325,49.33943089430894 33.28252032520325,49.49186991869919 33.28252032520325,49.64430894308943 33.23170731707317,49.74593495934959 33.23170731707317,49.89837398373984 33.18089430894309,50 33.18089430894309,50.15243902439024 33.18089430894309,50.2540650406504 33.13008130081301,50.30487804878049 33.13008130081301,50.40650406504065 33.13008130081301,50.50813008130081 33.13008130081301,51.0670731707317 33.13008130081301,51.21951219512195 33.13008130081301,51.32113821138211 33.18089430894309,51.47357723577235 33.18089430894309,51.6260162601626 33.18089430894309,51.77845528455284" fill="none" stroke="black" stroke-width="0.6"></polyline><polyline points="33.18089430894309,51.77845528455284 33.18089430894309,51.93089430894309 33.23170731707317,52.083333333333336 33.23170731707317,52.28658536585366 33.23170731707317,52.4390243902439 33.23170731707317,52.59146341463415 33.28252032520325,52.74390243902439 33.28252032520325,52.896341463414636 33.28252032520325,52.9979674796748 33.333333333333336,53.15040650406504 33.38414634146341,53.2520325203252 33.4349593495935,53.40447154471545 33.485772357723576,53.55691056910569 33.485772357723576,53.709349593495936 33.53658536585366,53.86178861788618 33.58739837398374,54.014227642276424 33.63821138211382,54.21747967479675 33.6890243902439,54.420731707317074 33.739837398373986,54.6239837398374 33.790650406504064,54.827235772357724 33.84146341463415,55.03048780487805 33.84146341463415,55.18292682926829 33.892276422764226,55.386178861788615 33.94308943089431,55.53861788617886 33.99390243902439,55.74186991869919 33.99390243902439,55.94512195121951 34.04471544715447,56.09756097560975 34.09552845528455,56.30081300813008 34.146341463414636,56.5040650406504 34.146341463414636,56.70731707317073 34.197154471544714,56.859756097560975 34.2479674796748,57.0630081300813 34.298780487804876,57.21544715447154 34.34959349593496,57.36788617886179 34.40040650406504,57.52032520325203 34.451219512195124,57.62195121951219 34.451219512195124,57.72357723577235 34.5020325203252,57.825203252032516 34.552845528455286,57.92682926829268 34.603658536585364,57.97764227642276 34.65447154471545,58.079268292682926 34.70528455284553,58.130081300813 34.70528455284553,58.231707317073166 34.80691056910569,58.33333333333333 34.857723577235774,58.43495934959349 34.90853658536585,58.536585365853654 35.010162601626014,58.6890243902439 35.0609756097561,58.84146341463415 35.11178861788618,58.94308943089431 35.16260162601626,59.04471544715447 35.21341463414634,59.146341463414636" fill="none" stroke="black" stroke-width="0.6"></polyline><polyline points="35.21341463414634,59.146341463414636 35.264227642276424,59.2479674796748 35.3150406504065,59.34959349593496 35.36585365853659,59.451219512195124 35.46747967479675,59.552845528455286 35.46747967479675,59.65447154471545 35.56910569105691,59.75609756097561 35.61991869918699,59.90853658536585 35.670731707317074,60.010162601626014 35.72154471544715,60.11178861788618 35.77235772357724,60.264227642276424 35.8739837398374,60.36585365853659 35.92479674796748,60.46747967479675 35.97560975609756,60.61991869918699 36.02642276422764,60.72154471544715 36.077235772357724,60.823170731707314 36.17886178861789,60.97560975609756 36.229674796747965,61.077235772357724 36.28048780487805,61.229674796747965 36.38211382113821,61.38211382113821 36.43292682926829,61.483739837398375 36.483739837398375,61.58536585365854 36.53455284552845,61.6869918699187 36.58536585365854,61.73780487804878 36.636178861788615,61.83943089430894 36.73780487804878,61.9410569105691 36.78861788617886,61.99186991869919 36.83943089430894,62.09349593495935 36.890243902439025,62.19512195121951 36.99186991869919,62.24593495934959 37.042682926829265,62.34756097560975 37.14430894308943,62.449186991869915 37.19512195121951,62.55081300813008 37.296747967479675,62.65243902439024 37.39837398373984,62.7540650406504 37.449186991869915,62.855691056910565 37.55081300813008,62.95731707317073 37.65243902439024,63.109756097560975 37.703252032520325,63.21138211382114 37.80487804878049,63.3130081300813 37.855691056910565,63.41463414634146 37.95731707317073,63.46544715447154 38.05894308943089,63.5670731707317 38.109756097560975,63.668699186991866 38.21138211382114,63.77032520325203 38.3130081300813,63.922764227642276 38.41463414634146,64.02439024390243 38.516260162601625,64.1260162601626 38.61788617886179,64.27845528455285 38.77032520325203,64.380081300813 38.82113821138211,64.43089430894308" fill="none" stroke="black" stroke-width="0.6"></polyline><polyline points="38.82113821138211,64.43089430894308 38.922764227642276,64.53252032520325 39.02439024390244,64.58333333333333 39.07520325203252,64.6849593495935 39.176829268292686,64.73577235772358 39.27845528455285,64.83739837398373 39.329268292682926,64.88821138211382 39.43089430894309,64.98983739837398 39.48170731707317,65.04065040650406 39.53252032520325,65.09146341463415 39.63414634146341,65.1930894308943 39.735772357723576,65.2439024390244 39.78658536585366,65.34552845528455 39.88821138211382,65.39634146341463 39.989837398373986,65.4979674796748 40.09146341463415,65.59959349593495 40.24390243902439,65.70121951219512 40.34552845528455,65.80284552845528 40.4979674796748,65.90447154471545 40.59959349593496,66.0060975609756 40.7520325203252,66.10772357723577 40.853658536585364,66.15853658536585 41.00609756097561,66.26016260162602 41.107723577235774,66.36178861788618 41.260162601626014,66.41260162601625 41.36178861788618,66.51422764227642 41.514227642276424,66.5650406504065 41.666666666666664,66.66666666666667 41.81910569105691,66.76829268292683 41.920731707317074,66.8191056910569 42.073170731707314,66.92073170731707 42.22560975609756,67.02235772357723 42.3780487804878,67.07317073170732 42.53048780487805,67.17479674796748 42.68292682926829,67.27642276422765 42.83536585365854,67.3780487804878 42.98780487804878,67.42886178861788 43.140243902439025,67.53048780487805 43.292682926829265,67.58130081300813 43.39430894308943,67.6321138211382 43.546747967479675,67.6829268292683 43.699186991869915,67.6829268292683 43.85162601626016,67.73373983739837 44.0040650406504,67.78455284552845 44.15650406504065,67.78455284552845 44.30894308943089,67.83536585365853 44.512195121951216,67.83536585365853 44.66463414634146,67.83536585365853 44.8170731707317,67.88617886178862 45.02032520325203,67.88617886178862 45.172764227642276,67.88617886178862" fill="none" stroke="black" stroke-width="0.6"></polyline><polyline points="45.172764227642276,67.88617886178862 45.27439024390244,67.9369918699187 45.42682926829268,67.9369918699187 45.579268292682926,67.9369918699187 45.73170731707317,67.98780487804878 45.88414634146341,67.98780487804878 46.03658536585366,68.03861788617886 46.239837398373986,68.03861788617886 46.392276422764226,68.08943089430895 46.54471544715447,68.08943089430895 46.697154471544714,68.08943089430895 46.84959349593496,68.08943089430895 47.0020325203252,68.14024390243902 47.103658536585364,68.14024390243902 47.25609756097561,68.1910569105691 47.357723577235774,68.24186991869918 47.510162601626014,68.29268292682927 47.66260162601626,68.34349593495935 47.8150406504065,68.39430894308943 47.96747967479675,68.4451219512195 48.170731707317074,68.4451219512195 48.323170731707314,68.4959349593496 48.47560975609756,68.54674796747967 48.6280487804878,68.54674796747967 48.78048780487805,68.59756097560975 48.88211382113821,68.59756097560975 49.03455284552845,68.64837398373983 49.1869918699187,68.64837398373983 49.33943089430894,68.64837398373983 49.4410569105691,68.69918699186992 49.59349593495935,68.75 49.69512195121951,68.75 49.84756097560975,68.80081300813008 50,68.80081300813008 50.10162601626016,68.80081300813008 50.2540650406504,68.85162601626016 50.355691056910565,68.85162601626016 50.50813008130081,68.85162601626016 50.66056910569105,68.85162601626016 50.762195121951216,68.85162601626016 50.91463414634146,68.85162601626016 51.016260162601625,68.80081300813008 51.168699186991866,68.80081300813008 51.27032520325203,68.80081300813008 51.422764227642276,68.75 51.52439024390244,68.75 51.6260162601626,68.69918699186992 51.77845528455284,68.69918699186992 51.880081300813,68.69918699186992 52.03252032520325,68.64837398373983 52.1849593495935,68.64837398373983" fill="none" stroke="black" stroke-width="0.6"></polyline><polyline points="52.1849593495935,68.64837398373983 52.33739837398374,68.64837398373983 52.489837398373986,68.59756097560975 52.59146341463415,68.59756097560975 52.74390243902439,68.54674796747967 52.896341463414636,68.4959349593496 53.048780487804876,68.4451219512195 53.201219512195124,68.4451219512195 53.302845528455286,68.39430894308943 53.45528455284553,68.34349593495935 53.607723577235774,68.34349593495935 53.760162601626014,68.29268292682927 53.91260162601626,68.24186991869918 54.014227642276424,68.1910569105691 54.166666666666664,68.14024390243902 54.31910569105691,68.14024390243902 54.47154471544715,68.08943089430895 54.573170731707314,68.03861788617886 54.67479674796748,67.98780487804878 54.827235772357724,67.98780487804878 54.92886178861789,67.9369918699187 55.03048780487805,67.9369918699187 55.18292682926829,67.88617886178862 55.33536585365854,67.88617886178862 55.4369918699187,67.83536585365853 55.58943089430894,67.78455284552845 55.6910569105691,67.78455284552845 55.792682926829265,67.73373983739837 55.89430894308943,67.73373983739837 55.99593495934959,67.6829268292683 56.09756097560975,67.6829268292683 56.14837398373984,67.6829268292683 56.25,67.6321138211382 56.35162601626016,67.6321138211382 56.40243902439024,67.6321138211382 56.5040650406504,67.58130081300813 56.605691056910565,67.58130081300813 56.70731707317073,67.58130081300813 56.80894308943089,67.53048780487805 56.91056910569105,67.53048780487805 57.012195121951216,67.53048780487805 57.16463414634146,67.47967479674797 57.266260162601625,67.42886178861788 57.36788617886179,67.42886178861788 57.52032520325203,67.3780487804878 57.62195121951219,67.32723577235772 57.72357723577235,67.27642276422765 57.8760162601626,67.27642276422765 57.97764227642276,67.22560975609755 58.079268292682926,67.17479674796748 58.231707317073166,67.1239837398374" fill="none" stroke="black" stroke-width="0.6"></polyline><polyline points="58.231707317073166,67.1239837398374 58.38414634146341,67.07317073170732 58.536585365853654,67.02235772357723 58.739837398373986,66.97154471544715 58.892276422764226,66.92073170731707 59.09552845528455,66.869918699187 59.298780487804876,66.76829268292683 59.451219512195124,66.71747967479675 59.65447154471545,66.61585365853658 59.857723577235774,66.5650406504065 60.010162601626014,66.46341463414635 60.21341463414634,66.3109756097561 60.416666666666664,66.20934959349593 60.56910569105691,66.0569105691057 60.77235772357724,65.95528455284553 60.92479674796748,65.80284552845528 61.077235772357724,65.65040650406505 61.28048780487805,65.4979674796748 61.43292682926829,65.34552845528455 61.636178861788615,65.1930894308943 61.78861788617886,64.98983739837398 61.99186991869919,64.83739837398373 62.14430894308943,64.6849593495935 62.34756097560975,64.48170731707317 62.5,64.32926829268293 62.703252032520325,64.1260162601626 62.855691056910565,63.922764227642276 63.00813008130081,63.77032520325203 63.16056910569105,63.61788617886179 63.3130081300813,63.41463414634146 63.46544715447154,63.262195121951216 63.61788617886179,63.109756097560975 63.82113821138211,62.95731707317073 64.02439024390243,62.80487804878049 64.17682926829268,62.65243902439024 64.380081300813,62.5 64.58333333333333,62.34756097560975 64.73577235772358,62.19512195121951 64.88821138211382,62.042682926829265 65.04065040650406,61.9410569105691 65.1930894308943,61.78861788617886 65.34552845528455,61.636178861788615 65.44715447154472,61.483739837398375 65.59959349593495,61.33130081300813 65.7520325203252,61.1280487804878 65.85365853658537,60.92479674796748 66.0060975609756,60.77235772357724 66.15853658536585,60.56910569105691 66.26016260162602,60.416666666666664 66.41260162601625,60.264227642276424 66.5650406504065,60.11178861788618" fill="none" stroke="black" stroke-width="0.6"></polyline><polyline points="66.5650406504065,60.11178861788618 66.71747967479675,59.959349593495936 66.869918699187,59.80691056910569 67.02235772357723,59.603658536585364 67.17479674796748,59.451219512195124 67.27642276422765,59.2479674796748 67.42886178861788,58.99390243902439 67.58130081300813,58.790650406504064 67.6829268292683,58.58739837398374 67.83536585365853,58.38414634146341 67.9369918699187,58.28252032520325 68.03861788617886,58.130081300813 68.14024390243902,58.02845528455284 68.24186991869918,57.8760162601626 68.34349593495935,57.72357723577235 68.4451219512195,57.57113821138211 68.54674796747967,57.36788617886179 68.59756097560975,57.16463414634146 68.69918699186992,56.859756097560975 68.75,56.605691056910565 68.80081300813008,56.35162601626016 68.85162601626016,56.09756097560975 68.90243902439025,55.89430894308943 68.95325203252033,55.74186991869919 68.95325203252033,55.53861788617886 69.0040650406504,55.28455284552845 69.05487804878048,55.03048780487805 69.05487804878048,54.67479674796748 69.10569105691057,54.31910569105691 69.15650406504065,53.96341463414634 69.15650406504065,53.607723577235774 69.20731707317073,53.302845528455286 69.20731707317073,52.947154471544714 69.20731707317073,52.642276422764226 69.20731707317073,52.33739837398374 69.2581300813008,52.03252032520325 69.2581300813008,51.77845528455284 69.2581300813008,51.52439024390244 69.2581300813008,51.21951219512195 69.3089430894309,51.016260162601625 69.3089430894309,50.762195121951216 69.35975609756098,50.50813008130081 69.35975609756098,50.2540650406504 69.35975609756098,50.05081300813008 69.35975609756098,49.84756097560975 69.35975609756098,49.69512195121951 69.35975609756098,49.542682926829265 69.35975609756098,49.390243902439025 69.35975609756098,49.28861788617886 69.41056910569105,49.136178861788615 69.41056910569105,48.983739837398375" fill="none" stroke="black" stroke-width="0.6"></polyline><polyline points="69.41056910569105,48.983739837398375 69.41056910569105,48.88211382113821 69.41056910569105,48.78048780487805 69.41056910569105,48.67886178861789 69.41056910569105,48.52642276422764 69.41056910569105,48.42479674796748 69.41056910569105,48.22154471544715 69.41056910569105,48.01829268292683 69.41056910569105,47.8150406504065 69.41056910569105,47.61178861788618 69.41056910569105,47.459349593495936 69.35975609756098,47.25609756097561 69.35975609756098,47.052845528455286 69.35975609756098,46.84959349593496 69.35975609756098,46.697154471544714 69.35975609756098,46.49390243902439 69.35975609756098,46.290650406504064 69.35975609756098,46.13821138211382 69.41056910569105,45.985772357723576 69.41056910569105,45.88414634146341 69.41056910569105,45.73170731707317 69.41056910569105,45.579268292682926 69.41056910569105,45.47764227642276 69.35975609756098,45.325203252032516 69.35975609756098,45.172764227642276 69.35975609756098,44.96951219512195 69.3089430894309,44.8170731707317 69.2581300813008,44.61382113821138 69.2581300813008,44.41056910569105 69.20731707317073,44.15650406504065 69.15650406504065,43.953252032520325 69.10569105691057,43.699186991869915 69.05487804878048,43.546747967479675 69.0040650406504,43.34349593495935 68.95325203252033,43.140243902439025 68.90243902439025,42.98780487804878 68.85162601626016,42.83536585365854 68.80081300813008,42.68292682926829 68.69918699186992,42.53048780487805 68.59756097560975,42.3780487804878 68.4959349593496,42.17479674796748 68.34349593495935,42.02235772357724 68.24186991869918,41.76829268292683 68.08943089430895,41.5650406504065 67.98780487804878,41.36178861788618 67.83536585365853,41.15853658536585 67.73373983739837,40.95528455284553 67.6321138211382,40.7520325203252 67.53048780487805,40.548780487804876 67.47967479674797,40.34552845528455 67.3780487804878,40.142276422764226" fill="none" stroke="black" stroke-width="0.6"></polyline><polyline points="67.3780487804878,40.142276422764226 67.32723577235772,39.9390243902439 67.22560975609755,39.735772357723576 67.1239837398374,39.48170731707317 67.02235772357723,39.27845528455285 66.869918699187,39.02439024390244 66.76829268292683,38.77032520325203 66.66666666666667,38.5670731707317 66.51422764227642,38.36382113821138 66.41260162601625,38.16056910569105 66.36178861788618,37.95731707317073 66.26016260162602,37.7540650406504 66.15853658536585,37.55081300813008 66.10772357723577,37.39837398373984 66.0060975609756,37.19512195121951 65.95528455284553,37.042682926829265 65.85365853658537,36.83943089430894 65.80284552845528,36.6869918699187 65.70121951219512,36.53455284552845 65.65040650406505,36.38211382113821 65.59959349593495,36.28048780487805 65.4979674796748,36.1280487804878 65.39634146341463,35.97560975609756 65.29471544715447,35.823170731707314 65.1930894308943,35.670731707317074 65.09146341463415,35.51829268292683 65.04065040650406,35.36585365853659 64.9390243902439,35.21341463414634 64.83739837398373,35.0609756097561 64.78658536585365,34.90853658536585 64.6849593495935,34.75609756097561 64.58333333333333,34.65447154471545 64.48170731707317,34.5020325203252 64.380081300813,34.40040650406504 64.27845528455285,34.2479674796748 64.17682926829268,34.146341463414636 64.02439024390243,34.04471544715447 63.922764227642276,33.94308943089431 63.77032520325203,33.84146341463415 63.668699186991866,33.6890243902439 63.5670731707317,33.58739837398374 63.41463414634146,33.485772357723576 63.3130081300813,33.38414634146341 63.16056910569105,33.23170731707317 63.05894308943089,33.13008130081301 62.90650406504065,32.97764227642276 62.7540650406504,32.926829268292686 62.60162601626016,32.82520325203252 62.449186991869915,32.72357723577236 62.24593495934959,32.6219512195122 62.09349593495935,32.52032520325203" fill="none" stroke="black" stroke-width="0.6"></polyline><polyline points="62.09349593495935,32.52032520325203 61.890243902439025,32.418699186991866 61.6869918699187,32.36788617886179 61.53455284552845,32.266260162601625 61.33130081300813,32.16463414634146 61.1280487804878,32.11382113821138 60.97560975609756,32.012195121951216 60.77235772357724,31.910569105691057 60.61991869918699,31.808943089430894 60.416666666666664,31.758130081300813 60.264227642276424,31.65650406504065 60.0609756097561,31.554878048780488 59.90853658536585,31.504065040650406 59.70528455284553,31.402439024390244 59.5020325203252,31.30081300813008 59.298780487804876,31.25 59.146341463414636,31.148373983739837 58.94308943089431,31.097560975609756 58.739837398373986,30.995934959349594 58.58739837398374,30.945121951219512 58.38414634146341,30.89430894308943 58.18089430894309,30.79268292682927 58.02845528455284,30.79268292682927 57.8760162601626,30.741869918699187 57.672764227642276,30.691056910569106 57.57113821138211,30.640243902439025 57.418699186991866,30.589430894308943 57.266260162601625,30.48780487804878 57.11382113821138,30.4369918699187 57.012195121951216,30.38617886178862 56.859756097560975,30.284552845528456 56.75813008130081,30.233739837398375 56.65650406504065,30.182926829268293 56.55487804878049,30.132113821138212 56.453252032520325,30.08130081300813 56.35162601626016,30.03048780487805 56.25,30.03048780487805 56.14837398373984,29.979674796747968 56.046747967479675,29.928861788617887 55.94512195121951,29.878048780487806 55.84349593495935,29.878048780487806 55.74186991869919,29.827235772357724 55.640243902439025,29.776422764227643 55.53861788617886,29.725609756097562 55.4369918699187,29.725609756097562 55.33536585365854,29.67479674796748 55.233739837398375,29.6239837398374 55.13211382113821,29.573170731707318 55.03048780487805,29.573170731707318 54.8780487804878,29.522357723577237 54.77642276422764,29.471544715447155" fill="none" stroke="black" stroke-width="0.6"></polyline><polyline points="54.77642276422764,29.471544715447155 54.67479674796748,29.420731707317074 54.52235772357724,29.369918699186993 54.420731707317074,29.31910569105691 54.26829268292683,29.268292682926827 54.166666666666664,29.268292682926827 54.014227642276424,29.217479674796746 53.86178861788618,29.217479674796746 53.760162601626014,29.166666666666664 53.607723577235774,29.115853658536583 53.45528455284553,29.115853658536583 53.302845528455286,29.0650406504065 53.15040650406504,29.01422764227642 52.9979674796748,29.01422764227642 52.84552845528455,28.96341463414634 52.69308943089431,28.912601626016258 52.540650406504064,28.861788617886177 52.38821138211382,28.810975609756095 52.235772357723576,28.810975609756095 52.03252032520325,28.760162601626014 51.880081300813,28.709349593495933 51.72764227642276,28.65853658536585 51.52439024390244,28.65853658536585 51.37195121951219,28.60772357723577 51.21951219512195,28.55691056910569 51.016260162601625,28.55691056910569 50.86382113821138,28.506097560975608 50.66056910569105,28.455284552845526 50.50813008130081,28.455284552845526 50.40650406504065,28.404471544715445 50.2540650406504,28.353658536585364 50.05081300813008,28.302845528455283 49.89837398373984,28.2520325203252 49.69512195121951,28.20121951219512 49.49186991869919,28.20121951219512 49.33943089430894,28.15040650406504 49.136178861788615,28.15040650406504 48.983739837398375,28.15040650406504 48.83130081300813,28.15040650406504 48.6280487804878,28.15040650406504 48.47560975609756,28.15040650406504 48.323170731707314,28.15040650406504 48.170731707317074,28.20121951219512 48.06910569105691,28.20121951219512 47.916666666666664,28.2520325203252 47.764227642276424,28.2520325203252 47.61178861788618,28.302845528455283 47.459349593495936,28.302845528455283 47.30691056910569,28.302845528455283 47.15447154471545,28.353658536585364 47.052845528455286,28.353658536585364" fill="none" stroke="black" stroke-width="0.6"></polyline><polyline points="47.052845528455286,28.353658536585364 46.90040650406504,28.353658536585364 46.7479674796748,28.353658536585364 46.646341463414636,28.404471544715445 46.54471544715447,28.404471544715445 46.44308943089431,28.404471544715445 46.34146341463415,28.455284552845526 46.239837398373986,28.455284552845526 46.13821138211382,28.506097560975608 46.03658536585366,28.506097560975608 45.9349593495935,28.55691056910569 45.88414634146341,28.55691056910569 45.78252032520325,28.55691056910569 45.68089430894309,28.60772357723577 45.579268292682926,28.60772357723577 45.52845528455285,28.65853658536585 45.42682926829268,28.65853658536585 45.3760162601626,28.709349593495933 45.27439024390244,28.760162601626014 45.172764227642276,28.760162601626014 45.12195121951219,28.810975609756095 45.02032520325203,28.810975609756095 44.86788617886179,28.861788617886177 44.766260162601625,28.861788617886177 44.66463414634146,28.912601626016258 44.512195121951216,28.96341463414634 44.41056910569105,29.01422764227642 44.25813008130081,29.0650406504065 44.05487804878049,29.166666666666664 43.90243902439024,29.217479674796746 43.699186991869915,29.268292682926827 43.49593495934959,29.369918699186993 43.292682926829265,29.471544715447155 43.140243902439025,29.573170731707318 42.9369918699187,29.6239837398374 42.733739837398375,29.725609756097562 42.58130081300813,29.776422764227643 42.3780487804878,29.827235772357724 42.22560975609756,29.878048780487806 42.073170731707314,29.928861788617887 41.86991869918699,29.979674796747968 41.666666666666664,30.03048780487805 41.514227642276424,30.03048780487805 41.3109756097561,30.08130081300813 41.15853658536585,30.08130081300813 41.00609756097561,30.132113821138212 40.802845528455286,30.182926829268293 40.65040650406504,30.233739837398375 40.4979674796748,30.284552845528456 40.29471544715447,30.335365853658537 40.142276422764226,30.38617886178862" fill="none" stroke="black" stroke-width="0.6"></polyline><polyline points="40.142276422764226,30.38617886178862 39.9390243902439,30.48780487804878 39.78658536585366,30.538617886178862 39.63414634146341,30.589430894308943 39.48170731707317,30.640243902439025 39.329268292682926,30.691056910569106 39.176829268292686,30.79268292682927 39.07520325203252,30.84349593495935 38.922764227642276,30.89430894308943 38.77032520325203,30.995934959349594 38.61788617886179,31.097560975609756 38.516260162601625,31.25 38.36382113821138,31.351626016260163 38.21138211382114,31.504065040650406 38.109756097560975,31.60569105691057 38.00813008130081,31.70731707317073 37.855691056910565,31.859756097560975 37.703252032520325,31.961382113821138 37.5,32.11382113821138 37.34756097560975,32.266260162601625 37.14430894308943,32.36788617886179 36.9410569105691,32.52032520325203 36.73780487804878,32.672764227642276 36.53455284552845,32.82520325203252 36.33130081300813,32.97764227642276 36.1280487804878,33.079268292682926 35.97560975609756,33.18089430894309 35.823170731707314,33.28252032520325 35.670731707317074,33.4349593495935 35.51829268292683,33.53658536585366 35.36585365853659,33.63821138211382 35.16260162601626,33.790650406504064 35.010162601626014,33.892276422764226 34.857723577235774,33.99390243902439 34.70528455284553,34.146341463414636 34.603658536585364,34.2479674796748 34.451219512195124,34.34959349593496 34.298780487804876,34.451219512195124 34.146341463414636,34.552845528455286 33.99390243902439,34.603658536585364 33.84146341463415,34.70528455284553 33.6890243902439,34.80691056910569 33.53658536585366,34.90853658536585 33.38414634146341,35.010162601626014 33.23170731707317,35.11178861788618 33.02845528455285,35.264227642276424 32.8760162601626,35.416666666666664 32.72357723577236,35.56910569105691 32.57113821138211,35.72154471544715 32.418699186991866,35.8739837398374 32.266260162601625,36.02642276422764" fill="none" stroke="black" stroke-width="0.6"></polyline><polyline points="32.266260162601625,36.02642276422764 32.11382113821138,36.17886178861789 31.961382113821138,36.33130081300813 31.808943089430894,36.483739837398375 31.70731707317073,36.58536585365854 31.554878048780488,36.6869918699187 31.402439024390244,36.78861788617886 31.19918699186992,36.890243902439025 31.046747967479675,37.042682926829265 30.945121951219512,37.14430894308943 30.79268292682927,37.296747967479675 30.640243902439025,37.449186991869915 30.538617886178862,37.55081300813008 30.38617886178862,37.703252032520325 30.284552845528456,37.855691056910565 30.182926829268293,37.95731707317073 30.03048780487805,38.109756097560975 29.878048780487806,38.3130081300813 29.725609756097562,38.46544715447154 29.573170731707318,38.61788617886179 29.420731707317074,38.82113821138211 29.31910569105691,38.97357723577235 29.166666666666664,39.07520325203252 29.0650406504065,39.22764227642276 28.96341463414634,39.329268292682926 28.861788617886177,39.48170731707317 28.810975609756095,39.583333333333336 28.760162601626014,39.735772357723576 28.709349593495933,39.88821138211382 28.65853658536585,39.989837398373986 28.60772357723577,40.142276422764226 28.55691056910569,40.29471544715447 28.506097560975608,40.447154471544714 28.404471544715445,40.59959349593496 28.353658536585364,40.802845528455286 28.2520325203252,41.00609756097561 28.15040650406504,41.209349593495936 28.099593495934958,41.41260162601626 27.997967479674795,41.5650406504065 27.947154471544714,41.71747967479675 27.84552845528455,41.97154471544715 27.79471544715447,42.17479674796748 27.693089430894307,42.42886178861789 27.591463414634145,42.68292682926829 27.540650406504064,42.886178861788615 27.489837398373982,43.08943089430894 27.489837398373982,43.34349593495935 27.4390243902439,43.546747967479675 27.38821138211382,43.80081300813008 27.33739837398374,44.105691056910565 27.286585365853657,44.30894308943089" fill="none" stroke="black" stroke-width="0.6"></polyline><polyline points="27.286585365853657,44.30894308943089 27.235772357723576,44.5630081300813 27.184959349593495,44.86788617886179 27.134146341463413,45.07113821138211 27.134146341463413,45.325203252032516 27.083333333333332,45.579268292682926 27.03252032520325,45.833333333333336 26.93089430894309,46.13821138211382 26.880081300813007,46.44308943089431 26.829268292682926,46.697154471544714 26.778455284552845,47.0020325203252 26.727642276422763,47.30691056910569 26.676829268292682,47.5609756097561 26.6260162601626,47.86585365853659 26.6260162601626,48.11991869918699 26.57520325203252,48.323170731707314 26.524390243902438,48.577235772357724 26.524390243902438,48.88211382113821 26.473577235772357,49.136178861788615 26.422764227642276,49.390243902439025 26.371951219512194,49.64430894308943 26.321138211382113,49.796747967479675 26.321138211382113,50 26.270325203252032,50.15243902439024 26.270325203252032,50.355691056910565 26.21951219512195,50.609756097560975 26.21951219512195,50.86382113821138 26.21951219512195,51.11788617886179 26.16869918699187,51.422764227642276 26.16869918699187,51.72764227642276 26.16869918699187,51.981707317073166 26.16869918699187,52.1849593495935 26.117886178861788,52.38821138211382 26.117886178861788,52.540650406504064 26.117886178861788,52.69308943089431 26.117886178861788,52.896341463414636 26.117886178861788,53.09959349593496 26.117886178861788,53.302845528455286 26.117886178861788,53.55691056910569 26.117886178861788,53.8109756097561 26.117886178861788,54.014227642276424 26.117886178861788,54.26829268292683 26.117886178861788,54.47154471544715 26.16869918699187,54.67479674796748 26.16869918699187,54.8780487804878 26.21951219512195,55.03048780487805 26.270325203252032,55.233739837398375 26.321138211382113,55.386178861788615 26.371951219512194,55.48780487804878 26.371951219512194,55.6910569105691 26.422764227642276,55.84349593495935" fill="none" stroke="black" stroke-width="0.6"></polyline><polyline points="26.422764227642276,55.84349593495935 26.473577235772357,56.046747967479675 26.57520325203252,56.25 26.6260162601626,56.453252032520325 26.727642276422763,56.65650406504065 26.829268292682926,56.859756097560975 26.880081300813007,57.0630081300813 26.98170731707317,57.3170731707317 27.083333333333332,57.57113821138211 27.134146341463413,57.77439024390244 27.235772357723576,58.02845528455284 27.33739837398374,58.231707317073166 27.4390243902439,58.43495934959349 27.489837398373982,58.63821138211382 27.591463414634145,58.84146341463415 27.693089430894307,59.04471544715447 27.79471544715447,59.2479674796748 27.896341463414632,59.5020325203252 27.997967479674795,59.70528455284553 28.048780487804876,59.90853658536585 28.15040650406504,60.11178861788618 28.2520325203252,60.264227642276424 28.353658536585364,60.416666666666664 28.455284552845526,60.61991869918699 28.55691056910569,60.77235772357724 28.60772357723577,60.92479674796748 28.709349593495933,61.077235772357724 28.810975609756095,61.28048780487805 28.912601626016258,61.43292682926829 29.0650406504065,61.636178861788615 29.166666666666664,61.83943089430894 29.31910569105691,61.99186991869919 29.420731707317074,62.19512195121951 29.573170731707318,62.34756097560975 29.67479674796748,62.55081300813008 29.827235772357724,62.855691056910565 29.979674796747968,63.109756097560975 30.132113821138212,63.41463414634146 30.284552845528456,63.668699186991866 30.38617886178862,63.922764227642276 30.48780487804878,64.1260162601626 30.640243902439025,64.32926829268293 30.741869918699187,64.53252032520325 30.84349593495935,64.6849593495935 30.945121951219512,64.88821138211382 31.046747967479675,65.04065040650406 31.19918699186992,65.1930894308943 31.30081300813008,65.39634146341463 31.402439024390244,65.54878048780488 31.554878048780488,65.7520325203252 31.70731707317073,65.95528455284553" fill="none" stroke="black" stroke-width="0.6"></polyline><polyline points="31.70731707317073,65.95528455284553 31.808943089430894,66.20934959349593 31.961382113821138,66.41260162601625 32.0630081300813,66.61585365853658 32.16463414634146,66.76829268292683 32.3170731707317,66.92073170731707 32.418699186991866,67.07317073170732 32.57113821138211,67.22560975609755 32.672764227642276,67.3780487804878 32.82520325203252,67.53048780487805 32.8760162601626,67.6829268292683 32.97764227642276,67.83536585365853 33.079268292682926,67.9369918699187 33.18089430894309,68.08943089430895 33.333333333333336,68.29268292682927 33.4349593495935,68.4959349593496 33.58739837398374,68.69918699186992 33.6890243902439,68.90243902439025 33.84146341463415,69.05487804878048 33.94308943089431,69.2581300813008 34.04471544715447,69.41056910569105 34.146341463414636,69.51219512195122 34.298780487804876,69.66463414634146 34.40040650406504,69.8170731707317 34.552845528455286,69.96951219512195 34.70528455284553,70.1219512195122 34.857723577235774,70.27439024390243 34.959349593495936,70.3760162601626 35.0609756097561,70.42682926829268 35.21341463414634,70.52845528455285 35.3150406504065,70.57926829268293 35.416666666666664,70.630081300813 35.56910569105691,70.68089430894308 35.72154471544715,70.78252032520325 35.823170731707314,70.83333333333333 35.97560975609756,70.8841463414634 36.077235772357724,70.9349593495935 36.17886178861789,70.98577235772358 36.33130081300813,71.03658536585365 36.43292682926829,71.03658536585365 36.53455284552845,71.13821138211382 36.6869918699187,71.1890243902439 36.890243902439025,71.29065040650406 37.042682926829265,71.39227642276423 37.24593495934959,71.4430894308943 37.39837398373984,71.54471544715447 37.60162601626016,71.59552845528455 37.7540650406504,71.64634146341463 37.90650406504065,71.69715447154472 38.05894308943089,71.7479674796748 38.21138211382114,71.84959349593495" fill="none" stroke="black" stroke-width="0.6"></polyline><polyline points="38.21138211382114,71.84959349593495 38.36382113821138,71.90040650406505 38.516260162601625,71.95121951219512 38.668699186991866,72.0020325203252 38.77032520325203,72.05284552845528 38.922764227642276,72.10365853658537 39.07520325203252,72.15447154471545 39.176829268292686,72.2560975609756 39.329268292682926,72.3069105691057 39.48170731707317,72.40853658536585 39.63414634146341,72.45934959349593 39.78658536585366,72.5609756097561 39.9390243902439,72.66260162601625 40.09146341463415,72.76422764227642 40.29471544715447,72.86585365853658 40.447154471544714,72.91666666666667 40.59959349593496,73.01829268292683 40.7520325203252,73.0691056910569 40.90447154471545,73.17073170731707 41.05691056910569,73.22154471544715 41.209349593495936,73.32317073170732 41.36178861788618,73.3739837398374 41.514227642276424,73.42479674796748 41.666666666666664,73.47560975609755 41.81910569105691,73.57723577235772 41.97154471544715,73.6280487804878 42.1239837398374,73.67886178861788 42.27642276422764,73.78048780487805 42.42886178861789,73.83130081300813 42.58130081300813,73.9329268292683 42.78455284552845,74.03455284552845 42.9369918699187,74.08536585365853 43.140243902439025,74.13617886178862 43.292682926829265,74.1869918699187 43.44512195121951,74.28861788617886 43.59756097560975,74.33943089430895 43.75,74.39024390243902 43.85162601626016,74.4410569105691 44.0040650406504,74.49186991869918 44.15650406504065,74.54268292682927 44.30894308943089,74.64430894308943 44.46138211382114,74.6951219512195 44.5630081300813,74.7459349593496 44.71544715447154,74.79674796747967 44.86788617886179,74.84756097560975 44.96951219512195,74.84756097560975 45.07113821138211,74.89837398373983 45.22357723577235,74.89837398373983 45.325203252032516,74.94918699186992 45.47764227642276,74.94918699186992 45.579268292682926,74.94918699186992" fill="none" stroke="black" stroke-width="0.6"></polyline><polyline points="45.579268292682926,74.94918699186992 45.73170731707317,75 45.833333333333336,75 45.985772357723576,75.05081300813008 46.13821138211382,75.05081300813008 46.290650406504064,75.10162601626016 46.44308943089431,75.15243902439025 46.646341463414636,75.20325203252033 46.84959349593496,75.30487804878048 47.103658536585364,75.40650406504065 47.30691056910569,75.45731707317073 47.510162601626014,75.5081300813008 47.764227642276424,75.5589430894309 47.96747967479675,75.5589430894309 48.170731707317074,75.60975609756098 48.3739837398374,75.60975609756098 48.52642276422764,75.60975609756098 48.67886178861789,75.66056910569105 48.83130081300813,75.66056910569105 48.983739837398375,75.66056910569105 49.136178861788615,75.71138211382113 49.28861788617886,75.71138211382113 49.4410569105691,75.76219512195122 49.64430894308943,75.76219512195122 49.796747967479675,75.76219512195122 49.949186991869915,75.8130081300813 50.10162601626016,75.8130081300813 50.30487804878049,75.8130081300813 50.45731707317073,75.8130081300813 50.609756097560975,75.8130081300813 50.8130081300813,75.8130081300813 51.016260162601625,75.76219512195122 51.168699186991866,75.71138211382113 51.37195121951219,75.66056910569105 51.575203252032516,75.5589430894309 51.77845528455284,75.5081300813008 51.981707317073166,75.45731707317073 52.1849593495935,75.35569105691057 52.4390243902439,75.30487804878048 52.642276422764226,75.20325203252033 52.84552845528455,75.15243902439025 53.048780487804876,75.05081300813008 53.302845528455286,74.94918699186992 53.55691056910569,74.84756097560975 53.760162601626014,74.79674796747967 54.0650406504065,74.6951219512195 54.26829268292683,74.59349593495935 54.52235772357724,74.49186991869918 54.827235772357724,74.4410569105691 55.08130081300813,74.33943089430895 55.33536585365854,74.23780487804878" fill="none" stroke="black" stroke-width="0.6"></polyline><polyline points="55.33536585365854,74.23780487804878 55.58943089430894,74.13617886178862 55.89430894308943,74.03455284552845 56.199186991869915,73.9329268292683 56.453252032520325,73.83130081300813 56.70731707317073,73.72967479674797 57.012195121951216,73.6280487804878 57.266260162601625,73.52642276422765 57.52032520325203,73.42479674796748 57.825203252032516,73.32317073170732 58.079268292682926,73.22154471544715 58.33333333333333,73.17073170731707 58.63821138211382,73.0691056910569 58.892276422764226,72.96747967479675 59.197154471544714,72.86585365853658 59.5020325203252,72.76422764227642 59.80691056910569,72.66260162601625 60.11178861788618,72.5609756097561 60.416666666666664,72.40853658536585 60.72154471544715,72.3069105691057 61.02642276422764,72.2560975609756 61.33130081300813,72.10365853658537 61.58536585365854,72.05284552845528 61.890243902439025,71.95121951219512 62.19512195121951,71.84959349593495 62.5,71.7479674796748 62.7540650406504,71.64634146341463 63.05894308943089,71.59552845528455 63.3130081300813,71.49390243902438 63.5670731707317,71.39227642276423 63.82113821138211,71.29065040650406 64.07520325203252,71.1890243902439 64.32926829268293,71.08739837398373 64.58333333333333,70.98577235772358 64.83739837398373,70.8841463414634 65.04065040650406,70.73170731707317 65.29471544715447,70.630081300813 65.44715447154472,70.52845528455285 65.65040650406505,70.42682926829268 65.85365853658537,70.32520325203252 66.0569105691057,70.22357723577235 66.20934959349593,70.0711382113821 66.41260162601625,69.96951219512195 66.61585365853658,69.8170731707317 66.76829268292683,69.66463414634146 66.92073170731707,69.5630081300813 67.1239837398374,69.46138211382113 67.27642276422765,69.3089430894309 67.42886178861788,69.20731707317073 67.6321138211382,69.10569105691057 67.78455284552845,68.95325203252033" fill="none" stroke="black" stroke-width="0.6"></polyline><polyline points="67.78455284552845,68.95325203252033 67.98780487804878,68.80081300813008 68.14024390243902,68.64837398373983 68.29268292682927,68.4959349593496 68.4959349593496,68.34349593495935 68.69918699186992,68.1910569105691 68.90243902439025,68.03861788617886 69.10569105691057,67.83536585365853 69.3089430894309,67.6829268292683 69.51219512195122,67.47967479674797 69.71544715447155,67.27642276422765 69.91869918699187,67.02235772357723 70.0711382113821,66.869918699187 70.27439024390243,66.66666666666667 70.47764227642276,66.51422764227642 70.68089430894308,66.3109756097561 70.8841463414634,66.10772357723577 71.08739837398373,65.95528455284553 71.29065040650406,65.70121951219512 71.49390243902438,65.44715447154472 71.64634146341463,65.14227642276423 71.84959349593495,64.83739837398373 72.0020325203252,64.58333333333333 72.15447154471545,64.32926829268293 72.2560975609756,64.02439024390243 72.40853658536585,63.82113821138211 72.5609756097561,63.61788617886179 72.71341463414635,63.36382113821138 72.86585365853658,63.16056910569105 73.01829268292683,62.95731707317073 73.17073170731707,62.65243902439024 73.32317073170732,62.449186991869915 73.47560975609755,62.19512195121951 73.6280487804878,61.890243902439025 73.78048780487805,61.58536585365854 73.8821138211382,61.33130081300813 74.03455284552845,61.02642276422764 74.13617886178862,60.823170731707314 74.1869918699187,60.56910569105691 74.28861788617886,60.36585365853659 74.39024390243902,60.21341463414634 74.49186991869918,60.0609756097561 74.59349593495935,59.857723577235774 74.6951219512195,59.70528455284553 74.79674796747967,59.5020325203252 74.94918699186992,59.298780487804876 75.10162601626016,59.09552845528455 75.20325203252033,58.892276422764226 75.35569105691057,58.6890243902439 75.5081300813008,58.485772357723576 75.60975609756098,58.28252032520325" fill="none" stroke="black" stroke-width="0.6"></polyline><polyline points="75.60975609756098,58.28252032520325 75.76219512195122,58.02845528455284 75.86382113821138,57.825203252032516 75.96544715447155,57.62195121951219 76.0670731707317,57.36788617886179 76.16869918699187,57.11382113821138 76.27032520325203,56.91056910569105 76.3719512195122,56.65650406504065 76.47357723577235,56.453252032520325 76.57520325203252,56.25 76.67682926829268,55.99593495934959 76.77845528455285,55.792682926829265 76.880081300813,55.53861788617886 76.98170731707317,55.28455284552845 77.03252032520325,55.08130081300813 77.08333333333333,54.8780487804878 77.1341463414634,54.6239837398374 77.1849593495935,54.36991869918699 77.1849593495935,54.11585365853659 77.23577235772358,53.91260162601626 77.23577235772358,53.709349593495936 77.23577235772358,53.50609756097561 77.23577235772358,53.353658536585364 77.28658536585365,53.201219512195124 77.28658536585365,52.9979674796748 77.33739837398373,52.84552845528455 77.33739837398373,52.642276422764226 77.38821138211382,52.489837398373986 77.4390243902439,52.28658536585366 77.4390243902439,52.083333333333336 77.48983739837398,51.829268292682926 77.48983739837398,51.6260162601626 77.48983739837398,51.422764227642276 77.48983739837398,51.27032520325203 77.48983739837398,51.0670731707317 77.48983739837398,50.96544715447154 77.48983739837398,50.86382113821138 77.4390243902439,50.8130081300813 77.38821138211382,50.71138211382114 77.33739837398373,50.609756097560975 77.28658536585365,50.45731707317073 77.23577235772358,50.355691056910565 77.23577235772358,50.203252032520325 77.1849593495935,50.15243902439024 77.1341463414634,50.05081300813008 77.08333333333333,50 77.03252032520325,50 77.03252032520325,49.949186991869915 77.03252032520325,49.949186991869915 76.98170731707317,49.949186991869915 76.98170731707317,49.949186991869915" fill="none" stroke="black" stroke-width="0.6"></polyline><polyline points="76.98170731707317,49.949186991869915 76.98170731707317,49.949186991869915 76.98170731707317,49.949186991869915 76.98170731707317,49.949186991869915 76.98170731707317,49.949186991869915 76.98170731707317,49.949186991869915 76.98170731707317,49.949186991869915 76.98170731707317,49.949186991869915 76.98170731707317,49.949186991869915 76.98170731707317,49.949186991869915 76.98170731707317,49.949186991869915 76.98170731707317,49.949186991869915 76.98170731707317,49.949186991869915 76.98170731707317,49.949186991869915 77.03252032520325,49.949186991869915 77.03252032520325,49.949186991869915 77.03252032520325,49.949186991869915 77.03252032520325,49.949186991869915 77.03252032520325,50 77.03252032520325,50 77.03252032520325,50 77.03252032520325,50 77.03252032520325,50 77.03252032520325,50 77.08333333333333,50" fill="none" stroke="black" stroke-width="0.6"></polyline></svg>