<svg height="100" width="100" preserveAspectRatio="xMidYMid meet"><polyline points="35.11178861788618,15.955284552845528 35.11178861788618,15.955284552845528 35.0609756097561,15.955284552845528 35.010162601626014,15.904471544715447 35.010162601626014,15.904471544715447 35.010162601626014,15.904471544715447 35.010162601626014,15.904471544715447 35.010162601626014,15.904471544715447 35.0609756097561,16.006097560975608 35.11178861788618,16.10772357723577 35.16260162601626,16.3109756097561 35.264227642276424,16.463414634146343 35.36585365853659,16.615853658536587 35.416666666666664,16.666666666666668 35.51829268292683,16.76829268292683 35.670731707317074,16.869918699186993 35.92479674796748,16.920731707317074 36.229674796747965,16.971544715447155 36.58536585365854,16.971544715447155 36.99186991869919,16.920731707317074 37.449186991869915,16.71747967479675 37.95731707317073,16.41260162601626 38.516260162601625,16.006097560975608 39.07520325203252,15.447154471544716 39.6849593495935,14.735772357723578 40.29471544715447,13.922764227642276 40.853658536585364,13.211382113821138 41.36178861788618,12.5 41.81910569105691,11.839430894308943 42.17479674796748,11.128048780487804 42.58130081300813,10.416666666666666 42.9369918699187,9.603658536585366 43.24186991869919,8.892276422764228 43.49593495934959,8.028455284552845 43.699186991869915,7.215447154471544 43.85162601626016,6.453252032520325 43.953252032520325,5.691056910569106 44.05487804878049,5.030487804878049 44.05487804878049,4.471544715447155 44.05487804878049,3.9634146341463414 43.953252032520325,3.5060975609756095 43.85162601626016,3.1504065040650406 43.699186991869915,2.845528455284553 43.546747967479675,2.6422764227642275 43.39430894308943,2.4898373983739837 43.1910569105691,2.4390243902439024 42.98780487804878,2.4390243902439024 42.83536585365854,2.4390243902439024 42.68292682926829,2.4898373983739837 42.479674796747965,2.6422764227642275 42.327235772357724,2.845528455284553" fill="none" stroke="black" stroke-width="0.6"></polyline><polyline points="42.327235772357724,2.845528455284553 42.17479674796748,3.0995934959349594 42.02235772357724,3.3536585365853657 41.920731707317074,3.709349593495935 41.71747967479675,4.115853658536586 41.61585365853659,4.573170731707317 41.46341463414634,5.08130081300813 41.36178861788618,5.640243902439024 41.260162601626014,6.300813008130081 41.15853658536585,7.0630081300813 41.107723577235774,7.926829268292683 41.05691056910569,8.790650406504065 41.05691056910569,9.705284552845528 41.05691056910569,10.56910569105691 41.107723577235774,11.229674796747966 41.209349593495936,11.890243902439025 41.36178861788618,12.5 41.514227642276424,13.058943089430894 41.71747967479675,13.516260162601625 41.97154471544715,13.973577235772357 42.22560975609756,14.227642276422763 42.58130081300813,14.430894308943088 42.98780487804878,14.634146341463413 43.39430894308943,14.786585365853659 43.80081300813008,14.989837398373984 44.30894308943089,15.142276422764228 44.71544715447154,15.294715447154472 45.172764227642276,15.497967479674797 45.68089430894309,15.65040650406504 46.08739837398374,15.701219512195122 46.49390243902439,15.701219512195122 46.951219512195124,15.65040650406504 47.30691056910569,15.497967479674797 47.66260162601626,15.24390243902439 48.01829268292683,14.888211382113822 48.323170731707314,14.430894308943088 48.577235772357724,13.871951219512194 48.83130081300813,13.363821138211382 48.983739837398375,12.855691056910569 49.136178861788615,12.347560975609756 49.23780487804878,11.839430894308943 49.33943089430894,11.280487804878048 49.4410569105691,10.721544715447154 49.49186991869919,10.213414634146341 49.542682926829265,9.80691056910569 49.542682926829265,9.451219512195122 49.542682926829265,9.197154471544716 49.49186991869919,9.044715447154472 49.390243902439025,8.892276422764228 49.28861788617886,8.739837398373984 49.136178861788615,8.638211382113822" fill="none" stroke="black" stroke-width="0.6"></polyline><polyline points="49.136178861788615,8.638211382113822 48.983739837398375,8.536585365853659 48.83130081300813,8.485772357723578 48.6280487804878,8.485772357723578 48.47560975609756,8.485772357723578 48.27235772357724,8.58739837398374 48.06910569105691,8.841463414634147 47.8150406504065,9.197154471544716 47.5609756097561,9.705284552845528 47.357723577235774,10.315040650406504 47.103658536585364,10.97560975609756 46.951219512195124,11.636178861788618 46.84959349593496,12.245934959349594 46.84959349593496,12.703252032520325 46.84959349593496,13.160569105691057 46.951219512195124,13.414634146341463 47.15447154471545,13.66869918699187 47.357723577235774,13.871951219512194 47.61178861788618,14.024390243902438 47.916666666666664,14.176829268292682 48.22154471544715,14.278455284552845 48.577235772357724,14.380081300813007 48.983739837398375,14.48170731707317 49.33943089430894,14.583333333333332 49.69512195121951,14.634146341463413 50.05081300813008,14.735772357723578 50.355691056910565,14.735772357723578 50.55894308943089,14.735772357723578 50.762195121951216,14.735772357723578 50.8130081300813,14.634146341463413 50.86382113821138,14.48170731707317 50.91463414634146,14.278455284552845 50.91463414634146,13.973577235772357 50.96544715447154,13.567073170731707 51.0670731707317,13.109756097560975 51.11788617886179,12.652439024390244 51.27032520325203,12.144308943089431 51.422764227642276,11.636178861788618 51.575203252032516,11.229674796747966 51.72764227642276,10.772357723577235 51.880081300813,10.365853658536585 51.981707317073166,10.060975609756097 52.083333333333336,9.75609756097561 52.1849593495935,9.40040650406504 52.28658536585366,9.095528455284553 52.33739837398374,8.892276422764228 52.38821138211382,8.790650406504065 52.38821138211382,8.739837398373984 52.38821138211382,8.739837398373984 52.38821138211382,8.790650406504065 52.4390243902439,8.790650406504065" fill="none" stroke="black" stroke-width="0.6"></polyline><polyline points="52.4390243902439,8.790650406504065 52.540650406504064,8.892276422764228 52.642276422764226,8.99390243902439 52.74390243902439,9.146341463414634 52.896341463414636,9.40040650406504 53.048780487804876,9.80691056910569 53.15040650406504,10.264227642276422 53.2520325203252,10.823170731707316 53.40447154471545,11.483739837398375 53.50609756097561,12.195121951219512 53.55691056910569,12.804878048780488 53.607723577235774,13.414634146341463 53.65853658536585,13.821138211382113 53.65853658536585,14.1260162601626 53.55691056910569,14.430894308943088 53.45528455284553,14.634146341463413 53.302845528455286,14.786585365853659 53.201219512195124,14.939024390243903 53.048780487804876,14.989837398373984 52.896341463414636,15.040650406504065 52.74390243902439,15.091463414634147 52.540650406504064,15.091463414634147 52.33739837398374,15.091463414634147 52.083333333333336,14.989837398373984 51.829268292682926,14.83739837398374 51.6260162601626,14.634146341463413 51.37195121951219,14.430894308943088 51.21951219512195,14.227642276422763 51.11788617886179,14.07520325203252 51.0670731707317,13.973577235772357 51.0670731707317,13.922764227642276 51.0670731707317,13.922764227642276 51.168699186991866,13.871951219512194 51.32113821138211,13.871951219512194 51.52439024390244,13.871951219512194 51.77845528455284,13.871951219512194 52.083333333333336,13.922764227642276 52.489837398373986,13.973577235772357 52.84552845528455,14.07520325203252 53.302845528455286,14.176829268292682 53.8109756097561,14.329268292682926 54.31910569105691,14.48170731707317 54.77642276422764,14.634146341463413 55.33536585365854,14.735772357723578 55.792682926829265,14.735772357723578 56.25,14.735772357723578 56.70731707317073,14.53252032520325 57.0630081300813,14.227642276422763 57.418699186991866,13.770325203252032 57.77439024390244,13.160569105691057 58.02845528455284,12.601626016260163" fill="none" stroke="black" stroke-width="0.6"></polyline><polyline points="58.02845528455284,12.601626016260163 58.130081300813,11.991869918699187 58.18089430894309,11.280487804878048 58.231707317073166,10.518292682926829 58.231707317073166,9.603658536585366 58.231707317073166,8.58739837398374 58.18089430894309,7.723577235772358 58.02845528455284,7.0630081300813 57.825203252032516,6.7073170731707314 57.672764227642276,6.605691056910569 57.62195121951219,6.605691056910569 57.62195121951219,6.65650406504065 57.57113821138211,6.859756097560975 57.46951219512195,7.113821138211382" fill="none" stroke="black" stroke-width="0.6"></polyline><polyline points="36.229674796747965,34.2479674796748 36.28048780487805,34.40040650406504 36.33130081300813,34.552845528455286 36.38211382113821,34.75609756097561 36.53455284552845,35.010162601626014 36.6869918699187,35.3150406504065 36.99186991869919,35.56910569105691 37.39837398373984,35.823170731707314 37.80487804878049,35.97560975609756 38.3130081300813,36.02642276422764 38.87195121951219,36.02642276422764 39.43089430894309,35.8739837398374 39.989837398373986,35.56910569105691 40.59959349593496,35.11178861788618 41.209349593495936,34.5020325203252 41.81910569105691,33.6890243902439 42.479674796747965,32.6219512195122 43.08943089430894,31.504065040650406 43.699186991869915,30.335365853658537 44.25813008130081,29.166666666666664 44.66463414634146,28.20121951219512 45.02032520325203,27.184959349593495 45.27439024390244,26.117886178861788 45.3760162601626,25.254065040650406 45.42682926829268,24.441056910569106 45.47764227642276,23.729674796747968 45.3760162601626,23.06910569105691 45.172764227642276,22.662601626016258 44.918699186991866,22.40853658536585 44.66463414634146,22.256097560975608 44.41056910569105,22.205284552845526 44.105691056910565,22.205284552845526 43.85162601626016,22.205284552845526 43.59756097560975,22.35772357723577 43.34349593495935,22.611788617886177 43.03861788617886,22.96747967479675 42.733739837398375,23.526422764227643 42.42886178861789,24.1869918699187 42.17479674796748,24.898373983739837 41.920731707317074,25.8130081300813 41.71747967479675,26.829268292682926 41.71747967479675,27.79471544715447 41.71747967479675,28.861788617886177 41.71747967479675,29.878048780487806 41.76829268292683,30.79268292682927 41.86991869918699,31.758130081300813 41.97154471544715,32.57113821138211 42.073170731707314,33.23170731707317 42.22560975609756,33.892276422764226 42.42886178861789,34.5020325203252 42.68292682926829,34.959349593495936" fill="none" stroke="black" stroke-width="0.6"></polyline><polyline points="42.68292682926829,34.959349593495936 42.9369918699187,35.36585365853659 43.1910569105691,35.72154471544715 43.49593495934959,35.97560975609756 43.75,36.229674796747965 44.105691056910565,36.43292682926829 44.46138211382114,36.53455284552845 44.86788617886179,36.636178861788615 45.27439024390244,36.636178861788615 45.63008130081301,36.58536585365854 46.03658536585366,36.483739837398375 46.34146341463415,36.28048780487805 46.697154471544714,36.077235772357724 47.103658536585364,35.77235772357724 47.459349593495936,35.51829268292683 47.764227642276424,35.21341463414634 48.06910569105691,34.75609756097561 48.323170731707314,34.298780487804876 48.577235772357724,33.84146341463415 48.78048780487805,33.23170731707317 48.93292682926829,32.72357723577236 49.03455284552845,32.16463414634146 49.08536585365854,31.65650406504065 49.136178861788615,31.25 49.136178861788615,30.945121951219512 49.136178861788615,30.538617886178862 49.1869918699187,30.182926829268293 49.1869918699187,29.878048780487806 49.136178861788615,29.6239837398374 49.03455284552845,29.369918699186993 48.93292682926829,29.166666666666664 48.78048780487805,28.912601626016258 48.577235772357724,28.760162601626014 48.42479674796748,28.65853658536585 48.27235772357724,28.60772357723577 48.11991869918699,28.60772357723577 48.01829268292683,28.60772357723577 47.86585365853659,28.65853658536585 47.71341463414634,28.810975609756095 47.510162601626014,29.0650406504065 47.357723577235774,29.471544715447155 47.15447154471545,29.928861788617887 47.052845528455286,30.48780487804878 46.90040650406504,31.046747967479675 46.90040650406504,31.60569105691057 46.90040650406504,32.16463414634146 46.951219512195124,32.72357723577236 47.15447154471545,33.23170731707317 47.30691056910569,33.63821138211382 47.5609756097561,34.04471544715447 47.764227642276424,34.34959349593496" fill="none" stroke="black" stroke-width="0.6"></polyline><polyline points="47.764227642276424,34.34959349593496 48.01829268292683,34.552845528455286 48.27235772357724,34.75609756097561 48.577235772357724,34.90853658536585 48.88211382113821,35.010162601626014 49.23780487804878,35.0609756097561 49.59349593495935,35.11178861788618 49.89837398373984,35.11178861788618 50.203252032520325,35.11178861788618 50.45731707317073,35.010162601626014 50.71138211382114,34.90853658536585 50.91463414634146,34.70528455284553 51.0670731707317,34.5020325203252 51.21951219512195,34.197154471544714 51.37195121951219,33.84146341463415 51.575203252032516,33.333333333333336 51.72764227642276,32.82520325203252 51.880081300813,32.21544715447154 52.03252032520325,31.70731707317073 52.1849593495935,31.148373983739837 52.33739837398374,30.589430894308943 52.489837398373986,30.132113821138212 52.59146341463415,29.776422764227643 52.69308943089431,29.471544715447155 52.79471544715447,29.217479674796746 52.947154471544714,29.01422764227642 53.048780487804876,28.810975609756095 53.15040650406504,28.709349593495933 53.2520325203252,28.65853658536585 53.302845528455286,28.65853658536585 53.302845528455286,28.65853658536585 53.353658536585364,28.65853658536585 53.45528455284553,28.760162601626014 53.55691056910569,28.96341463414634 53.709349593495936,29.31910569105691 53.91260162601626,29.878048780487806 54.0650406504065,30.48780487804878 54.21747967479675,31.148373983739837 54.31910569105691,31.758130081300813 54.36991869918699,32.36788617886179 54.420731707317074,33.02845528455285 54.420731707317074,33.485772357723576 54.31910569105691,33.94308943089431 54.166666666666664,34.451219512195124 53.96341463414634,34.959349593495936 53.760162601626014,35.416666666666664 53.45528455284553,35.823170731707314 53.201219512195124,36.077235772357724 52.947154471544714,36.28048780487805 52.642276422764226,36.43292682926829 52.33739837398374,36.483739837398375" fill="none" stroke="black" stroke-width="0.6"></polyline><polyline points="52.33739837398374,36.483739837398375 52.03252032520325,36.483739837398375 51.67682926829268,36.483739837398375 51.422764227642276,36.33130081300813 51.11788617886179,36.17886178861789 50.86382113821138,35.92479674796748 50.71138211382114,35.670731707317074 50.55894308943089,35.416666666666664 50.45731707317073,35.16260162601626 50.40650406504065,34.857723577235774 50.40650406504065,34.603658536585364 50.40650406504065,34.34959349593496 50.50813008130081,34.197154471544714 50.66056910569105,34.09552845528455 50.8130081300813,34.09552845528455 51.016260162601625,34.09552845528455 51.32113821138211,34.2479674796748 51.6260162601626,34.451219512195124 51.981707317073166,34.65447154471545 52.33739837398374,34.857723577235774 52.79471544715447,35.11178861788618 53.2520325203252,35.264227642276424 53.760162601626014,35.3150406504065 54.31910569105691,35.3150406504065 54.827235772357724,35.21341463414634 55.28455284552845,35.0609756097561 55.84349593495935,34.80691056910569 56.25,34.5020325203252 56.65650406504065,34.197154471544714 57.012195121951216,33.892276422764226 57.3170731707317,33.53658536585366 57.57113821138211,33.23170731707317 57.77439024390244,32.8760162601626 57.8760162601626,32.52032520325203 57.8760162601626,32.16463414634146 57.92682926829268,31.60569105691057 57.92682926829268,31.046747967479675 57.8760162601626,30.4369918699187 57.825203252032516,29.827235772357724 57.72357723577235,29.471544715447155 57.672764227642276,29.217479674796746 57.672764227642276,29.115853658536583 57.672764227642276,29.115853658536583 57.672764227642276,29.115853658536583 57.672764227642276,29.166666666666664 57.62195121951219,29.217479674796746" fill="none" stroke="black" stroke-width="0.6"></polyline><polyline points="36.38211382113821,54.827235772357724 36.38211382113821,54.8780487804878 36.483739837398375,54.979674796747965 36.636178861788615,55.08130081300813 36.890243902439025,55.28455284552845 37.296747967479675,55.53861788617886 37.7540650406504,55.792682926829265 38.3130081300813,55.99593495934959 38.77032520325203,56.09756097560975 39.176829268292686,56.14837398373984 39.48170731707317,56.046747967479675 39.83739837398374,55.792682926829265 40.24390243902439,55.33536585365854 40.65040650406504,54.72560975609756 41.107723577235774,53.86178861788618 41.5650406504065,52.79471544715447 41.97154471544715,51.77845528455284 42.327235772357724,50.86382113821138 42.68292682926829,49.84756097560975 42.886178861788615,48.93292682926829 43.08943089430894,47.8150406504065 43.292682926829265,46.59552845528455 43.44512195121951,45.579268292682926 43.59756097560975,44.512195121951216 43.699186991869915,43.49593495934959 43.699186991869915,42.733739837398375 43.699186991869915,42.073170731707314 43.59756097560975,41.514227642276424 43.44512195121951,41.05691056910569 43.24186991869919,40.701219512195124 42.98780487804878,40.447154471544714 42.78455284552845,40.34552845528455 42.53048780487805,40.19308943089431 42.327235772357724,40.09146341463415 42.17479674796748,40.09146341463415 42.02235772357724,40.09146341463415 41.81910569105691,40.09146341463415 41.666666666666664,40.24390243902439 41.41260162601626,40.447154471544714 41.107723577235774,40.802845528455286 40.853658536585364,41.260162601626014 40.59959349593496,41.86991869918699 40.396341463414636,42.58130081300813 40.24390243902439,43.34349593495935 40.142276422764226,44.105691056910565 40.142276422764226,45.12195121951219 40.19308943089431,46.08739837398374 40.29471544715447,47.103658536585364 40.447154471544714,48.06910569105691 40.65040650406504,48.93292682926829 40.853658536585364,49.69512195121951" fill="none" stroke="black" stroke-width="0.6"></polyline><polyline points="40.853658536585364,49.69512195121951 41.05691056910569,50.45731707317073 41.3109756097561,51.168699186991866 41.61585365853659,51.880081300813 41.81910569105691,52.489837398373986 42.073170731707314,52.9979674796748 42.327235772357724,53.607723577235774 42.58130081300813,54.26829268292683 42.83536585365854,54.72560975609756 43.08943089430894,55.08130081300813 43.34349593495935,55.28455284552845 43.59756097560975,55.386178861788615 43.90243902439024,55.48780487804878 44.20731707317073,55.53861788617886 44.512195121951216,55.53861788617886 44.8170731707317,55.48780487804878 45.12195121951219,55.33536585365854 45.42682926829268,55.18292682926829 45.73170731707317,54.979674796747965 46.03658536585366,54.72560975609756 46.34146341463415,54.420731707317074 46.59552845528455,54.166666666666664 46.84959349593496,53.86178861788618 47.0020325203252,53.607723577235774 47.15447154471545,53.353658536585364 47.30691056910569,52.9979674796748 47.357723577235774,52.59146341463415 47.40853658536585,52.1849593495935 47.459349593495936,51.77845528455284 47.459349593495936,51.32113821138211 47.459349593495936,50.86382113821138 47.40853658536585,50.40650406504065 47.30691056910569,50 47.20528455284553,49.59349593495935 47.103658536585364,49.28861788617886 47.0020325203252,48.983739837398375 46.951219512195124,48.729674796747965 46.84959349593496,48.52642276422764 46.798780487804876,48.42479674796748 46.697154471544714,48.3739837398374 46.646341463414636,48.323170731707314 46.59552845528455,48.323170731707314 46.54471544715447,48.323170731707314 46.49390243902439,48.323170731707314 46.44308943089431,48.323170731707314 46.34146341463415,48.42479674796748 46.239837398373986,48.67886178861789 46.08739837398374,49.08536585365854 45.9349593495935,49.64430894308943 45.833333333333336,50.203252032520325 45.73170731707317,50.762195121951216" fill="none" stroke="black" stroke-width="0.6"></polyline><polyline points="45.73170731707317,50.762195121951216 45.68089430894309,51.422764227642276 45.68089430894309,52.03252032520325 45.68089430894309,52.642276422764226 45.78252032520325,53.302845528455286 45.9349593495935,53.8109756097561 46.03658536585366,54.26829268292683 46.239837398373986,54.67479674796748 46.392276422764226,54.92886178861789 46.54471544715447,55.13211382113821 46.7479674796748,55.233739837398375 47.052845528455286,55.386178861788615 47.30691056910569,55.4369918699187 47.61178861788618,55.48780487804878 47.916666666666664,55.53861788617886 48.170731707317074,55.53861788617886 48.47560975609756,55.4369918699187 48.78048780487805,55.28455284552845 49.08536585365854,55.03048780487805 49.33943089430894,54.72560975609756 49.49186991869919,54.36991869918699 49.64430894308943,53.91260162601626 49.74593495934959,53.302845528455286 49.74593495934959,52.74390243902439 49.796747967479675,52.13414634146341 49.796747967479675,51.575203252032516 49.84756097560975,51.168699186991866 49.89837398373984,50.762195121951216 50,50.355691056910565 50.10162601626016,50.05081300813008 50.203252032520325,49.84756097560975 50.30487804878049,49.74593495934959 50.355691056910565,49.69512195121951 50.40650406504065,49.69512195121951 50.45731707317073,49.69512195121951 50.55894308943089,49.74593495934959 50.71138211382114,49.796747967479675 50.86382113821138,49.89837398373984 51.11788617886179,50 51.32113821138211,50.203252032520325 51.52439024390244,50.45731707317073 51.72764227642276,50.71138211382114 51.93089430894309,51.11788617886179 52.1849593495935,51.6260162601626 52.33739837398374,52.13414634146341 52.489837398373986,52.79471544715447 52.59146341463415,53.45528455284553 52.69308943089431,54.0650406504065 52.74390243902439,54.77642276422764 52.74390243902439,55.28455284552845 52.74390243902439,55.792682926829265" fill="none" stroke="black" stroke-width="0.6"></polyline><polyline points="52.74390243902439,55.792682926829265 52.642276422764226,56.35162601626016 52.489837398373986,56.75813008130081 52.33739837398374,57.11382113821138 52.1849593495935,57.418699186991866 51.981707317073166,57.57113821138211 51.829268292682926,57.672764227642276 51.6260162601626,57.72357723577235 51.422764227642276,57.72357723577235 51.168699186991866,57.672764227642276 50.8130081300813,57.46951219512195 50.50813008130081,57.11382113821138 50.203252032520325,56.65650406504065 49.89837398373984,56.199186991869915 49.64430894308943,55.89430894308943 49.49186991869919,55.6910569105691 49.33943089430894,55.53861788617886 49.23780487804878,55.48780487804878 49.1869918699187,55.4369918699187 49.1869918699187,55.4369918699187 49.1869918699187,55.4369918699187 49.1869918699187,55.4369918699187 49.23780487804878,55.4369918699187 49.33943089430894,55.4369918699187 49.4410569105691,55.4369918699187 49.59349593495935,55.4369918699187 49.74593495934959,55.58943089430894 49.89837398373984,55.640243902439025 50,55.74186991869919 50.30487804878049,55.99593495934959 50.66056910569105,56.199186991869915 51.016260162601625,56.40243902439024 51.47357723577235,56.55487804878049 51.93089430894309,56.65650406504065 52.4390243902439,56.65650406504065 52.896341463414636,56.65650406504065 53.302845528455286,56.5040650406504 53.709349593495936,56.30081300813008 54.11585365853659,56.09756097560975 54.47154471544715,55.792682926829265 54.77642276422764,55.386178861788615 55.08130081300813,54.92886178861789 55.28455284552845,54.47154471544715 55.48780487804878,53.96341463414634 55.58943089430894,53.40447154471545 55.6910569105691,52.84552845528455 55.792682926829265,52.1849593495935 55.89430894308943,51.422764227642276 55.99593495934959,50.66056910569105 56.046747967479675,49.949186991869915 56.14837398373984,49.390243902439025" fill="none" stroke="black" stroke-width="0.6"></polyline><polyline points="56.14837398373984,49.390243902439025 56.14837398373984,49.1869918699187 56.14837398373984,49.1869918699187 56.14837398373984,49.28861788617886" fill="none" stroke="black" stroke-width="0.6"></polyline><polyline points="35.92479674796748,73.42479674796748 35.92479674796748,73.42479674796748 35.92479674796748,73.47560975609755 35.92479674796748,73.47560975609755 35.92479674796748,73.57723577235772 36.02642276422764,73.67886178861788 36.17886178861789,73.8821138211382 36.38211382113821,74.08536585365853 36.6869918699187,74.33943089430895 37.042682926829265,74.6951219512195 37.449186991869915,75 37.90650406504065,75.35569105691057 38.41463414634146,75.71138211382113 38.87195121951219,76.01626016260163 39.43089430894309,76.27032520325203 40.040650406504064,76.52439024390243 40.59959349593496,76.67682926829268 41.107723577235774,76.67682926829268 41.61585365853659,76.6260162601626 42.073170731707314,76.47357723577235 42.479674796747965,76.16869918699187 42.886178861788615,75.76219512195122 43.292682926829265,75.20325203252033 43.64837398373984,74.49186991869918 44.0040650406504,73.52642276422765 44.30894308943089,72.40853658536585 44.61382113821138,71.1890243902439 44.918699186991866,69.96951219512195 45.12195121951219,68.80081300813008 45.27439024390244,67.53048780487805 45.3760162601626,66.36178861788618 45.3760162601626,65.1930894308943 45.325203252032516,64.07520325203252 45.12195121951219,63.3130081300813 44.918699186991866,62.55081300813008 44.61382113821138,61.73780487804878 44.359756097560975,61.229674796747965 44.105691056910565,60.72154471544715 43.85162601626016,60.3150406504065 43.699186991869915,60.11178861788618 43.49593495934959,59.959349593495936 43.34349593495935,59.90853658536585 43.1910569105691,59.90853658536585 43.08943089430894,59.959349593495936 42.9369918699187,60.0609756097561 42.78455284552845,60.3150406504065 42.63211382113821,60.823170731707314 42.479674796747965,61.58536585365854 42.3780487804878,62.5 42.327235772357724,63.5670731707317 42.27642276422764,64.78658536585365" fill="none" stroke="black" stroke-width="0.6"></polyline><polyline points="42.27642276422764,64.78658536585365 42.27642276422764,66.15853658536585 42.3780487804878,67.83536585365853 42.63211382113821,69.71544715447155 42.83536585365854,71.29065040650406 43.03861788617886,72.71341463414635 43.292682926829265,73.8821138211382 43.59756097560975,74.54268292682927 43.90243902439024,75 44.359756097560975,75.40650406504065 44.8170731707317,75.66056910569105 45.3760162601626,75.8130081300813 45.9349593495935,75.86382113821138 46.49390243902439,75.86382113821138 47.103658536585364,75.86382113821138 47.66260162601626,75.76219512195122 48.11991869918699,75.5081300813008 48.6280487804878,75.20325203252033 49.08536585365854,74.79674796747967 49.4410569105691,74.33943089430895 49.796747967479675,73.78048780487805 50.10162601626016,73.22154471544715 50.30487804878049,72.71341463414635 50.40650406504065,72.3069105691057 50.45731707317073,71.84959349593495 50.45731707317073,71.4430894308943 50.40650406504065,70.9349593495935 50.2540650406504,70.42682926829268 50.10162601626016,70.0711382113821 49.89837398373984,69.76626016260163 49.64430894308943,69.5630081300813 49.390243902439025,69.41056910569105 49.136178861788615,69.35975609756098 48.88211382113821,69.3089430894309 48.67886178861789,69.3089430894309 48.47560975609756,69.35975609756098 48.27235772357724,69.46138211382113 48.22154471544715,69.61382113821138 48.170731707317074,69.86788617886178 48.11991869918699,70.32520325203252 48.11991869918699,70.83333333333333 48.170731707317074,71.49390243902438 48.22154471544715,72.20528455284553 48.3739837398374,73.01829268292683 48.52642276422764,73.83130081300813 48.78048780487805,74.59349593495935 48.983739837398375,75.15243902439025 49.28861788617886,75.60975609756098 49.542682926829265,75.86382113821138 49.84756097560975,76.0670731707317 50.203252032520325,76.21951219512195" fill="none" stroke="black" stroke-width="0.6"></polyline><polyline points="50.203252032520325,76.21951219512195 50.45731707317073,76.27032520325203 50.8130081300813,76.3719512195122 51.11788617886179,76.3719512195122 51.422764227642276,76.42276422764228 51.77845528455284,76.3719512195122 52.083333333333336,76.27032520325203 52.33739837398374,76.0670731707317 52.59146341463415,75.8130081300813 52.84552845528455,75.5081300813008 52.9979674796748,75.20325203252033 53.15040650406504,74.79674796747967 53.2520325203252,74.33943089430895 53.302845528455286,73.72967479674797 53.302845528455286,72.86585365853658 53.201219512195124,71.79878048780488 53.201219512195124,70.9349593495935 53.201219512195124,70.17276422764228 53.2520325203252,69.71544715447155 53.40447154471545,69.5630081300813 53.55691056910569,69.51219512195122 53.709349593495936,69.51219512195122 53.91260162601626,69.51219512195122 54.11585365853659,69.61382113821138 54.420731707317074,69.86788617886178 54.72560975609756,70.17276422764228 55.03048780487805,70.57926829268293 55.33536585365854,71.13821138211382 55.58943089430894,71.59552845528455 55.792682926829265,72.15447154471545 55.99593495934959,72.76422764227642 56.046747967479675,73.42479674796748 56.09756097560975,74.1869918699187 56.14837398373984,75 56.09756097560975,75.8130081300813 55.99593495934959,76.52439024390243 55.74186991869919,77.1341463414634 55.386178861788615,77.64227642276423 54.979674796747965,78.04878048780488 54.52235772357724,78.45528455284553 53.96341463414634,78.70934959349593 53.40447154471545,78.86178861788618 52.79471544715447,78.86178861788618 52.33739837398374,78.70934959349593 51.93089430894309,78.35365853658537 51.575203252032516,77.79471544715447 51.32113821138211,77.28658536585365 51.168699186991866,76.77845528455285 51.11788617886179,76.21951219512195" fill="none" stroke="black" stroke-width="0.6"></polyline><polyline points="41.05691056910569,95.17276422764228 41.107723577235774,95.27439024390243 41.15853658536585,95.3760162601626 41.3109756097561,95.42682926829268 41.514227642276424,95.52845528455285 41.81910569105691,95.57926829268293 42.22560975609756,95.630081300813 42.68292682926829,95.68089430894308 43.140243902439025,95.57926829268293 43.64837398373984,95.32520325203252 44.105691056910565,94.91869918699187 44.66463414634146,94.35975609756098 45.172764227642276,93.59756097560975 45.68089430894309,92.6829268292683 46.1890243902439,91.71747967479675 46.59552845528455,90.80284552845528 46.951219512195124,89.88821138211382 47.15447154471545,88.97357723577235 47.25609756097561,88.10975609756098 47.30691056910569,87.1951219512195 47.30691056910569,86.28048780487805 47.20528455284553,85.3150406504065 47.0020325203252,84.40040650406503 46.798780487804876,83.58739837398373 46.54471544715447,82.82520325203252 46.290650406504064,82.26626016260163 46.13821138211382,82.0630081300813 45.985772357723576,82.0630081300813 45.833333333333336,82.0630081300813 45.68089430894309,82.11382113821138 45.52845528455285,82.21544715447155 45.42682926829268,82.52032520325203 45.325203252032516,83.130081300813 45.27439024390244,84.09552845528455 45.27439024390244,85.26422764227642 45.325203252032516,86.4329268292683 45.52845528455285,87.70325203252033 45.78252032520325,89.22764227642276 46.08739837398374,90.59959349593495 46.392276422764226,91.869918699187 46.7479674796748,93.14024390243902 47.0020325203252,94.15650406504065 47.30691056910569,95.02032520325203 47.61178861788618,95.630081300813 47.86585365853659,95.98577235772358 48.22154471544715,96.1890243902439 48.67886178861789,96.29065040650406 49.136178861788615,96.34146341463415 49.64430894308943,96.34146341463415 50.15243902439024,96.23983739837398 50.609756097560975,96.03658536585365" fill="none" stroke="black" stroke-width="0.6"></polyline><polyline points="50.609756097560975,96.03658536585365 51.016260162601625,95.73170731707317 51.47357723577235,95.27439024390243 51.880081300813,94.71544715447155 52.235772357723576,94.05487804878048 52.642276422764226,93.39430894308943 52.896341463414636,92.73373983739837 53.15040650406504,92.07317073170732 53.2520325203252,91.51422764227642 53.302845528455286,91.10772357723577 53.2520325203252,90.70121951219512 53.09959349593496,90.34552845528455 52.896341463414636,90.09146341463415 52.59146341463415,89.88821138211382 52.28658536585366,89.73577235772358 52.03252032520325,89.73577235772358 51.72764227642276,89.73577235772358 51.422764227642276,89.83739837398373 51.168699186991866,89.98983739837398 50.91463414634146,90.24390243902438 50.762195121951216,90.70121951219512 50.66056910569105,91.26016260162602 50.66056910569105,91.92073170731707 50.71138211382114,92.6829268292683 50.86382113821138,93.39430894308943 51.11788617886179,94.0040650406504 51.422764227642276,94.61382113821138 51.67682926829268,95.0711382113821 51.981707317073166,95.42682926829268 52.28658536585366,95.78252032520325 52.642276422764226,96.03658536585365 53.048780487804876,96.1890243902439 53.45528455284553,96.34146341463415 53.86178861788618,96.39227642276423 54.26829268292683,96.39227642276423 54.6239837398374,96.23983739837398 54.92886178861789,95.98577235772358 55.18292682926829,95.52845528455285 55.386178861788615,94.96951219512195 55.53861788617886,94.2581300813008 55.640243902439025,93.4451219512195 55.640243902439025,92.6321138211382 55.640243902439025,91.71747967479675 55.53861788617886,90.70121951219512 55.48780487804878,89.88821138211382 55.4369918699187,89.22764227642276 55.48780487804878,88.8211382113821 55.58943089430894,88.66869918699187 55.74186991869919,88.5670731707317 55.89430894308943,88.5670731707317 55.99593495934959,88.5670731707317" fill="none" stroke="black" stroke-width="0.6"></polyline><polyline points="55.99593495934959,88.5670731707317 56.14837398373984,88.71951219512195 56.35162601626016,89.07520325203252 56.65650406504065,89.6341463414634 56.91056910569105,90.24390243902438 57.21544715447154,90.90447154471545 57.418699186991866,91.51422764227642 57.62195121951219,92.1239837398374 57.72357723577235,92.88617886178862 57.77439024390244,93.59756097560975 57.72357723577235,94.20731707317073 57.62195121951219,94.8170731707317 57.46951219512195,95.27439024390243 57.3170731707317,95.57926829268293 57.16463414634146,95.83333333333333 56.96138211382114,95.9349593495935 56.75813008130081,95.98577235772358 56.55487804878049,95.98577235772358 56.35162601626016,95.9349593495935 56.09756097560975,95.78252032520325 55.792682926829265,95.47764227642276 55.48780487804878,95.1219512195122 55.28455284552845,94.76626016260163 55.08130081300813,94.46138211382113 54.979674796747965,94.20731707317073 54.92886178861789,93.95325203252033 54.92886178861789,93.75 54.979674796747965,93.54674796747967 55.13211382113821,93.39430894308943 55.33536585365854,93.34349593495935 55.53861788617886,93.34349593495935 55.84349593495935,93.39430894308943 56.25,93.64837398373983 56.75813008130081,93.95325203252033 57.3170731707317,94.2581300813008 57.92682926829268,94.46138211382113 58.485772357723576,94.5630081300813 58.99390243902439,94.5630081300813 59.451219512195124,94.35975609756098 59.80691056910569,94.10569105691057 60.0609756097561,93.69918699186992 60.264227642276424,93.24186991869918 60.416666666666664,92.88617886178862 60.51829268292683,92.47967479674797 60.61991869918699,92.1239837398374 60.670731707317074,91.76829268292683 60.670731707317074,91.36178861788618 60.670731707317074,90.80284552845528 60.670731707317074,90.1930894308943 60.670731707317074,89.53252032520325 60.670731707317074,89.17682926829268" fill="none" stroke="black" stroke-width="0.6"></polyline><polyline points="60.670731707317074,89.17682926829268" fill="none" stroke="black" stroke-width="0.6"></polyline></svg>