<svg height="100" width="100" preserveAspectRatio="xMidYMid meet"><polyline points="80.9959349593496,51.93089430894309 81.14837398373983,52.083333333333336" fill="none" stroke="black" stroke-width="0.6"></polyline><polyline points="50.203252032520325,50.10162601626016 50.203252032520325,50.10162601626016 50.203252032520325,50.10162601626016 50.203252032520325,50.10162601626016 50.203252032520325,50.10162601626016 50.203252032520325,50.05081300813008 50.2540650406504,50.05081300813008 50.2540650406504,50.05081300813008 50.2540650406504,50 50.30487804878049,50 50.30487804878049,50 50.30487804878049,49.949186991869915 50.30487804878049,49.949186991869915 50.30487804878049,49.949186991869915 50.30487804878049,49.949186991869915 50.30487804878049,49.89837398373984 50.30487804878049,49.89837398373984 50.30487804878049,49.89837398373984 50.30487804878049,49.89837398373984 50.2540650406504,49.89837398373984 50.2540650406504,49.89837398373984 50.203252032520325,49.89837398373984 50.203252032520325,49.89837398373984 50.15243902439024,49.89837398373984 50.10162601626016,49.89837398373984 50.10162601626016,49.89837398373984 50.05081300813008,49.89837398373984 50,49.89837398373984 49.949186991869915,49.89837398373984 49.89837398373984,49.89837398373984 49.89837398373984,49.89837398373984 49.796747967479675,49.89837398373984 49.796747967479675,49.89837398373984 49.74593495934959,49.89837398373984 49.69512195121951,49.89837398373984 49.64430894308943,49.89837398373984 49.64430894308943,49.949186991869915 49.59349593495935,49.949186991869915 49.59349593495935,49.949186991869915 49.59349593495935,49.949186991869915 49.542682926829265,49.949186991869915 49.542682926829265,49.949186991869915 49.542682926829265,49.949186991869915 49.542682926829265,49.949186991869915 49.542682926829265,49.949186991869915 49.542682926829265,49.949186991869915 49.542682926829265,49.949186991869915 49.542682926829265,49.949186991869915 49.542682926829265,49.949186991869915 49.542682926829265,49.949186991869915 49.542682926829265,49.949186991869915" fill="none" stroke="black" stroke-width="0.6"></polyline><polyline points="49.542682926829265,49.949186991869915 49.542682926829265,49.949186991869915 49.542682926829265,49.949186991869915 49.542682926829265,49.949186991869915 49.59349593495935,49.949186991869915 49.59349593495935,49.949186991869915 49.59349593495935,49.949186991869915 49.59349593495935,49.949186991869915 49.59349593495935,50 49.59349593495935,50 49.59349593495935,50 49.64430894308943,50 49.64430894308943,50 49.64430894308943,50.05081300813008 49.64430894308943,50.05081300813008 49.64430894308943,50.05081300813008 49.64430894308943,50.05081300813008 49.69512195121951,50.05081300813008 49.69512195121951,50.10162601626016 49.69512195121951,50.10162601626016 49.69512195121951,50.10162601626016 49.69512195121951,50.10162601626016 49.69512195121951,50.10162601626016 49.69512195121951,50.10162601626016 49.69512195121951,50.10162601626016 49.69512195121951,50.10162601626016 49.69512195121951,50.10162601626016 49.69512195121951,50.10162601626016 49.69512195121951,50.15243902439024 49.69512195121951,50.15243902439024 49.69512195121951,50.15243902439024 49.74593495934959,50.15243902439024 49.74593495934959,50.15243902439024 49.74593495934959,50.15243902439024 49.74593495934959,50.15243902439024 49.74593495934959,50.15243902439024 49.74593495934959,50.15243902439024 49.74593495934959,50.15243902439024 49.74593495934959,50.203252032520325 49.74593495934959,50.203252032520325 49.74593495934959,50.203252032520325 49.796747967479675,50.203252032520325 49.796747967479675,50.2540650406504 49.796747967479675,50.2540650406504 49.796747967479675,50.2540650406504 49.84756097560975,50.30487804878049 49.84756097560975,50.30487804878049 49.84756097560975,50.30487804878049 49.89837398373984,50.355691056910565 49.89837398373984,50.355691056910565 49.949186991869915,50.40650406504065" fill="none" stroke="black" stroke-width="0.6"></polyline><polyline points="49.949186991869915,50.40650406504065 49.949186991869915,50.40650406504065 50,50.40650406504065 50,50.45731707317073 50.05081300813008,50.45731707317073 50.05081300813008,50.45731707317073 50.10162601626016,50.50813008130081 50.10162601626016,50.50813008130081 50.15243902439024,50.50813008130081 50.203252032520325,50.50813008130081 50.203252032520325,50.55894308943089 50.2540650406504,50.55894308943089 50.2540650406504,50.55894308943089 50.30487804878049,50.55894308943089 50.355691056910565,50.55894308943089 50.355691056910565,50.55894308943089 50.40650406504065,50.609756097560975 50.45731707317073,50.609756097560975 50.45731707317073,50.609756097560975 50.50813008130081,50.609756097560975 50.55894308943089,50.609756097560975 50.609756097560975,50.609756097560975 50.66056910569105,50.609756097560975 50.71138211382114,50.609756097560975 50.762195121951216,50.609756097560975 50.8130081300813,50.609756097560975 50.86382113821138,50.609756097560975 50.96544715447154,50.55894308943089 51.016260162601625,50.55894308943089 51.0670731707317,50.55894308943089 51.168699186991866,50.50813008130081 51.21951219512195,50.50813008130081 51.27032520325203,50.50813008130081 51.37195121951219,50.45731707317073 51.422764227642276,50.45731707317073 51.52439024390244,50.40650406504065 51.575203252032516,50.40650406504065 51.67682926829268,50.355691056910565 51.77845528455284,50.30487804878049 51.880081300813,50.2540650406504 51.981707317073166,50.203252032520325 52.083333333333336,50.15243902439024 52.1849593495935,50.05081300813008 52.28658536585366,50 52.4390243902439,49.949186991869915 52.540650406504064,49.84756097560975 52.642276422764226,49.796747967479675 52.74390243902439,49.69512195121951 52.84552845528455,49.59349593495935 52.947154471544714,49.49186991869919 53.09959349593496,49.33943089430894" fill="none" stroke="black" stroke-width="0.6"></polyline><polyline points="53.09959349593496,49.33943089430894 53.201219512195124,49.1869918699187 53.40447154471545,49.03455284552845 53.50609756097561,48.83130081300813 53.65853658536585,48.67886178861789 53.760162601626014,48.47560975609756 53.8109756097561,48.3739837398374 53.86178861788618,48.27235772357724 53.91260162601626,48.11991869918699 53.96341463414634,48.01829268292683 53.96341463414634,47.916666666666664 54.014227642276424,47.8150406504065 54.014227642276424,47.764227642276424 54.0650406504065,47.61178861788618 54.11585365853659,47.510162601626014 54.11585365853659,47.40853658536585 54.166666666666664,47.25609756097561 54.166666666666664,47.103658536585364 54.21747967479675,46.951219512195124 54.26829268292683,46.798780487804876 54.26829268292683,46.59552845528455 54.31910569105691,46.44308943089431 54.31910569105691,46.290650406504064 54.31910569105691,46.13821138211382 54.36991869918699,45.985772357723576 54.36991869918699,45.88414634146341 54.420731707317074,45.68089430894309 54.420731707317074,45.52845528455285 54.47154471544715,45.3760162601626 54.47154471544715,45.22357723577235 54.52235772357724,45.07113821138211 54.52235772357724,44.86788617886179 54.573170731707314,44.66463414634146 54.6239837398374,44.46138211382114 54.6239837398374,44.25813008130081 54.6239837398374,44.05487804878049 54.6239837398374,43.80081300813008 54.6239837398374,43.59756097560975 54.6239837398374,43.39430894308943 54.6239837398374,43.24186991869919 54.6239837398374,43.03861788617886 54.6239837398374,42.886178861788615 54.573170731707314,42.733739837398375 54.573170731707314,42.53048780487805 54.52235772357724,42.27642276422764 54.52235772357724,42.1239837398374 54.47154471544715,41.920731707317074 54.47154471544715,41.666666666666664 54.420731707317074,41.46341463414634 54.36991869918699,41.260162601626014 54.31910569105691,41.05691056910569" fill="none" stroke="black" stroke-width="0.6"></polyline><polyline points="54.31910569105691,41.05691056910569 54.26829268292683,40.90447154471545 54.21747967479675,40.7520325203252 54.166666666666664,40.548780487804876 54.11585365853659,40.396341463414636 54.0650406504065,40.24390243902439 54.014227642276424,40.09146341463415 53.96341463414634,39.88821138211382 53.91260162601626,39.735772357723576 53.91260162601626,39.53252032520325 53.86178861788618,39.38008130081301 53.8109756097561,39.176829268292686 53.760162601626014,39.02439024390244 53.709349593495936,38.82113821138211 53.65853658536585,38.668699186991866 53.65853658536585,38.516260162601625 53.607723577235774,38.41463414634146 53.50609756097561,38.262195121951216 53.50609756097561,38.109756097560975 53.45528455284553,37.95731707317073 53.40447154471545,37.80487804878049 53.353658536585364,37.65243902439024 53.302845528455286,37.5 53.2520325203252,37.296747967479675 53.201219512195124,37.14430894308943 53.09959349593496,36.9410569105691 53.048780487804876,36.78861788617886 52.9979674796748,36.636178861788615 52.896341463414636,36.483739837398375 52.84552845528455,36.28048780487805 52.79471544715447,36.17886178861789 52.74390243902439,36.02642276422764 52.642276422764226,35.8739837398374 52.59146341463415,35.72154471544715 52.540650406504064,35.61991869918699 52.4390243902439,35.46747967479675 52.38821138211382,35.36585365853659 52.33739837398374,35.264227642276424 52.28658536585366,35.11178861788618 52.1849593495935,35.010162601626014 52.13414634146341,34.90853658536585 52.03252032520325,34.80691056910569 51.93089430894309,34.70528455284553 51.829268292682926,34.65447154471545 51.72764227642276,34.552845528455286 51.6260162601626,34.451219512195124 51.52439024390244,34.34959349593496 51.422764227642276,34.298780487804876 51.27032520325203,34.197154471544714 51.168699186991866,34.146341463414636 51.016260162601625,34.04471544715447" fill="none" stroke="black" stroke-width="0.6"></polyline><polyline points="51.016260162601625,34.04471544715447 50.86382113821138,33.99390243902439 50.71138211382114,33.892276422764226 50.55894308943089,33.84146341463415 50.40650406504065,33.790650406504064 50.30487804878049,33.6890243902439 50.10162601626016,33.63821138211382 50,33.58739837398374 49.796747967479675,33.53658536585366 49.64430894308943,33.485772357723576 49.4410569105691,33.4349593495935 49.28861788617886,33.38414634146341 49.08536585365854,33.333333333333336 48.93292682926829,33.333333333333336 48.78048780487805,33.333333333333336 48.6280487804878,33.28252032520325 48.47560975609756,33.28252032520325 48.323170731707314,33.28252032520325 48.170731707317074,33.28252032520325 48.01829268292683,33.28252032520325 47.916666666666664,33.28252032520325 47.764227642276424,33.28252032520325 47.66260162601626,33.28252032520325 47.510162601626014,33.333333333333336 47.40853658536585,33.333333333333336 47.30691056910569,33.333333333333336 47.20528455284553,33.333333333333336 47.103658536585364,33.38414634146341 47.0020325203252,33.38414634146341 46.90040650406504,33.4349593495935 46.798780487804876,33.4349593495935 46.697154471544714,33.4349593495935 46.59552845528455,33.485772357723576 46.49390243902439,33.485772357723576 46.392276422764226,33.485772357723576 46.290650406504064,33.485772357723576 46.1890243902439,33.53658536585366 46.13821138211382,33.53658536585366 46.03658536585366,33.53658536585366 45.9349593495935,33.53658536585366 45.88414634146341,33.58739837398374 45.78252032520325,33.58739837398374 45.73170731707317,33.63821138211382 45.63008130081301,33.63821138211382 45.579268292682926,33.63821138211382 45.47764227642276,33.6890243902439 45.42682926829268,33.6890243902439 45.325203252032516,33.739837398373986 45.22357723577235,33.739837398373986 45.172764227642276,33.790650406504064 45.07113821138211,33.84146341463415" fill="none" stroke="black" stroke-width="0.6"></polyline><polyline points="45.07113821138211,33.84146341463415 44.96951219512195,33.84146341463415 44.8170731707317,33.892276422764226 44.71544715447154,33.94308943089431 44.61382113821138,33.99390243902439 44.512195121951216,34.04471544715447 44.41056910569105,34.09552845528455 44.30894308943089,34.09552845528455 44.20731707317073,34.146341463414636 44.105691056910565,34.2479674796748 44.0040650406504,34.298780487804876 43.953252032520325,34.34959349593496 43.80081300813008,34.451219512195124 43.699186991869915,34.552845528455286 43.49593495934959,34.65447154471545 43.34349593495935,34.80691056910569 43.08943089430894,34.959349593495936 42.83536585365854,35.11178861788618 42.58130081300813,35.3150406504065 42.27642276422764,35.46747967479675 42.02235772357724,35.670731707317074 41.71747967479675,35.8739837398374 41.514227642276424,36.02642276422764 41.3109756097561,36.17886178861789 41.107723577235774,36.38211382113821 40.90447154471545,36.53455284552845 40.701219512195124,36.6869918699187 40.4979674796748,36.83943089430894 40.24390243902439,37.042682926829265 40.040650406504064,37.24593495934959 39.83739837398374,37.449186991869915 39.63414634146341,37.65243902439024 39.48170731707317,37.80487804878049 39.38008130081301,37.95731707317073 39.27845528455285,38.05894308943089 39.176829268292686,38.21138211382114 39.07520325203252,38.3130081300813 38.97357723577235,38.46544715447154 38.87195121951219,38.61788617886179 38.77032520325203,38.77032520325203 38.668699186991866,38.922764227642276 38.61788617886179,39.02439024390244 38.5670731707317,39.176829268292686 38.46544715447154,39.27845528455285 38.41463414634146,39.48170731707317 38.3130081300813,39.63414634146341 38.262195121951216,39.83739837398374 38.16056910569105,39.989837398373986 38.109756097560975,40.19308943089431 38.00813008130081,40.396341463414636 37.95731707317073,40.548780487804876" fill="none" stroke="black" stroke-width="0.6"></polyline><polyline points="37.95731707317073,40.548780487804876 37.90650406504065,40.7520325203252 37.855691056910565,40.95528455284553 37.7540650406504,41.15853658536585 37.7540650406504,41.3109756097561 37.65243902439024,41.514227642276424 37.60162601626016,41.71747967479675 37.55081300813008,41.920731707317074 37.5,42.22560975609756 37.39837398373984,42.58130081300813 37.296747967479675,42.9369918699187 37.19512195121951,43.24186991869919 37.09349593495935,43.546747967479675 36.99186991869919,43.80081300813008 36.9410569105691,44.05487804878049 36.890243902439025,44.359756097560975 36.890243902439025,44.5630081300813 36.83943089430894,44.766260162601625 36.78861788617886,45.02032520325203 36.73780487804878,45.27439024390244 36.6869918699187,45.47764227642276 36.6869918699187,45.68089430894309 36.636178861788615,45.833333333333336 36.636178861788615,46.03658536585366 36.58536585365854,46.239837398373986 36.58536585365854,46.44308943089431 36.58536585365854,46.646341463414636 36.53455284552845,46.90040650406504 36.53455284552845,47.15447154471545 36.483739837398375,47.357723577235774 36.43292682926829,47.61178861788618 36.43292682926829,47.8150406504065 36.43292682926829,48.06910569105691 36.38211382113821,48.323170731707314 36.38211382113821,48.52642276422764 36.38211382113821,48.78048780487805 36.33130081300813,49.03455284552845 36.33130081300813,49.23780487804878 36.33130081300813,49.49186991869919 36.28048780487805,49.74593495934959 36.28048780487805,49.949186991869915 36.28048780487805,50.203252032520325 36.229674796747965,50.45731707317073 36.229674796747965,50.71138211382114 36.229674796747965,50.96544715447154 36.229674796747965,51.27032520325203 36.229674796747965,51.52439024390244 36.229674796747965,51.829268292682926 36.229674796747965,52.083333333333336 36.229674796747965,52.33739837398374 36.229674796747965,52.642276422764226" fill="none" stroke="black" stroke-width="0.6"></polyline><polyline points="36.229674796747965,52.642276422764226 36.229674796747965,52.896341463414636 36.229674796747965,53.15040650406504 36.229674796747965,53.45528455284553 36.28048780487805,53.709349593495936 36.33130081300813,53.96341463414634 36.38211382113821,54.21747967479675 36.43292682926829,54.47154471544715 36.483739837398375,54.72560975609756 36.53455284552845,54.979674796747965 36.636178861788615,55.233739837398375 36.6869918699187,55.53861788617886 36.73780487804878,55.792682926829265 36.83943089430894,56.046747967479675 36.9410569105691,56.30081300813008 36.99186991869919,56.55487804878049 37.09349593495935,56.859756097560975 37.19512195121951,57.0630081300813 37.296747967479675,57.3170731707317 37.39837398373984,57.57113821138211 37.5,57.77439024390244 37.65243902439024,58.02845528455284 37.7540650406504,58.231707317073166 37.90650406504065,58.43495934959349 38.05894308943089,58.63821138211382 38.16056910569105,58.790650406504064 38.3130081300813,58.94308943089431 38.41463414634146,59.09552845528455 38.5670731707317,59.2479674796748 38.668699186991866,59.40040650406504 38.77032520325203,59.552845528455286 38.87195121951219,59.70528455284553 38.97357723577235,59.857723577235774 39.07520325203252,60.010162601626014 39.176829268292686,60.16260162601626 39.27845528455285,60.3150406504065 39.38008130081301,60.46747967479675 39.48170731707317,60.61991869918699 39.63414634146341,60.77235772357724 39.735772357723576,60.92479674796748 39.83739837398374,61.02642276422764 39.9390243902439,61.17886178861789 40.09146341463415,61.38211382113821 40.19308943089431,61.53455284552845 40.29471544715447,61.6869918699187 40.447154471544714,61.890243902439025 40.548780487804876,62.042682926829265 40.701219512195124,62.19512195121951 40.853658536585364,62.34756097560975 40.95528455284553,62.5 41.107723577235774,62.65243902439024" fill="none" stroke="black" stroke-width="0.6"></polyline><polyline points="41.107723577235774,62.65243902439024 41.260162601626014,62.80487804878049 41.36178861788618,62.90650406504065 41.46341463414634,63.05894308943089 41.61585365853659,63.21138211382114 41.76829268292683,63.3130081300813 41.86991869918699,63.46544715447154 42.02235772357724,63.5670731707317 42.17479674796748,63.71951219512195 42.327235772357724,63.82113821138211 42.479674796747965,63.922764227642276 42.63211382113821,64.02439024390243 42.78455284552845,64.1260162601626 42.9369918699187,64.22764227642276 43.03861788617886,64.27845528455285 43.1910569105691,64.380081300813 43.34349593495935,64.48170731707317 43.44512195121951,64.53252032520325 43.59756097560975,64.6341463414634 43.75,64.6849593495935 43.85162601626016,64.78658536585365 44.0040650406504,64.83739837398373 44.105691056910565,64.88821138211382 44.25813008130081,64.9390243902439 44.359756097560975,64.98983739837398 44.512195121951216,65.04065040650406 44.61382113821138,65.09146341463415 44.71544715447154,65.14227642276423 44.86788617886179,65.1930894308943 45.02032520325203,65.2439024390244 45.12195121951219,65.29471544715447 45.27439024390244,65.34552845528455 45.3760162601626,65.39634146341463 45.52845528455285,65.44715447154472 45.63008130081301,65.4979674796748 45.78252032520325,65.4979674796748 45.88414634146341,65.54878048780488 45.985772357723576,65.59959349593495 46.13821138211382,65.59959349593495 46.239837398373986,65.65040650406505 46.392276422764226,65.70121951219512 46.49390243902439,65.70121951219512 46.646341463414636,65.7520325203252 46.798780487804876,65.80284552845528 46.951219512195124,65.80284552845528 47.103658536585364,65.85365853658537 47.25609756097561,65.85365853658537 47.40853658536585,65.90447154471545 47.5609756097561,65.90447154471545 47.764227642276424,65.95528455284553 47.916666666666664,65.95528455284553" fill="none" stroke="black" stroke-width="0.6"></polyline><polyline points="47.916666666666664,65.95528455284553 48.11991869918699,65.95528455284553 48.27235772357724,66.0060975609756 48.47560975609756,66.0060975609756 48.67886178861789,66.0569105691057 48.88211382113821,66.0569105691057 49.08536585365854,66.10772357723577 49.28861788617886,66.10772357723577 49.49186991869919,66.15853658536585 49.74593495934959,66.15853658536585 49.949186991869915,66.15853658536585 50.203252032520325,66.20934959349593 50.40650406504065,66.20934959349593 50.66056910569105,66.20934959349593 50.86382113821138,66.26016260162602 51.0670731707317,66.26016260162602 51.32113821138211,66.26016260162602 51.575203252032516,66.26016260162602 51.829268292682926,66.26016260162602 52.083333333333336,66.26016260162602 52.33739837398374,66.20934959349593 52.59146341463415,66.15853658536585 52.84552845528455,66.15853658536585 53.09959349593496,66.10772357723577 53.353658536585364,66.0569105691057 53.607723577235774,66.0060975609756 53.86178861788618,65.95528455284553 54.166666666666664,65.90447154471545 54.420731707317074,65.90447154471545 54.67479674796748,65.85365853658537 54.92886178861789,65.80284552845528 55.18292682926829,65.70121951219512 55.48780487804878,65.65040650406505 55.74186991869919,65.59959349593495 55.99593495934959,65.54878048780488 56.25,65.54878048780488 56.5040650406504,65.4979674796748 56.70731707317073,65.44715447154472 56.96138211382114,65.44715447154472 57.16463414634146,65.39634146341463 57.36788617886179,65.34552845528455 57.62195121951219,65.2439024390244 57.825203252032516,65.1930894308943 58.079268292682926,65.14227642276423 58.28252032520325,65.04065040650406 58.536585365853654,64.9390243902439 58.790650406504064,64.88821138211382 58.99390243902439,64.78658536585365 59.197154471544714,64.6849593495935 59.40040650406504,64.58333333333333 59.603658536585364,64.53252032520325" fill="none" stroke="black" stroke-width="0.6"></polyline><polyline points="59.603658536585364,64.53252032520325 59.80691056910569,64.43089430894308 60.010162601626014,64.32926829268293 60.21341463414634,64.22764227642276 60.416666666666664,64.1260162601626 60.61991869918699,63.97357723577235 60.823170731707314,63.82113821138211 61.02642276422764,63.668699186991866 61.229674796747965,63.46544715447154 61.483739837398375,63.3130081300813 61.73780487804878,63.05894308943089 61.99186991869919,62.80487804878049 62.296747967479675,62.55081300813008 62.65243902439024,62.24593495934959 62.95731707317073,61.9410569105691 63.262195121951216,61.636178861788615 63.61788617886179,61.33130081300813 63.87195121951219,61.077235772357724 64.1260162601626,60.77235772357724 64.43089430894308,60.51829268292683 64.6849593495935,60.264227642276424 64.9390243902439,59.959349593495936 65.14227642276423,59.70528455284553 65.34552845528455,59.451219512195124 65.54878048780488,59.197154471544714 65.70121951219512,58.892276422764226 65.85365853658537,58.63821138211382 66.0060975609756,58.38414634146341 66.20934959349593,58.130081300813 66.3109756097561,57.825203252032516 66.51422764227642,57.57113821138211 66.66666666666667,57.266260162601625 66.76829268292683,57.012195121951216 66.92073170731707,56.70731707317073 67.07317073170732,56.35162601626016 67.22560975609755,56.09756097560975 67.32723577235772,55.792682926829265 67.47967479674797,55.4369918699187 67.58130081300813,55.08130081300813 67.73373983739837,54.72560975609756 67.88617886178862,54.31910569105691 67.98780487804878,54.014227642276424 68.08943089430895,53.65853658536585 68.14024390243902,53.353658536585364 68.24186991869918,52.9979674796748 68.29268292682927,52.642276422764226 68.34349593495935,52.28658536585366 68.39430894308943,51.981707317073166 68.4451219512195,51.67682926829268 68.4959349593496,51.32113821138211 68.4959349593496,51.0670731707317" fill="none" stroke="black" stroke-width="0.6"></polyline><polyline points="68.4959349593496,51.0670731707317 68.54674796747967,50.71138211382114 68.59756097560975,50.40650406504065 68.59756097560975,50.05081300813008 68.64837398373983,49.74593495934959 68.64837398373983,49.4410569105691 68.64837398373983,49.1869918699187 68.64837398373983,48.88211382113821 68.64837398373983,48.52642276422764 68.64837398373983,48.27235772357724 68.64837398373983,47.96747967479675 68.64837398373983,47.66260162601626 68.59756097560975,47.40853658536585 68.59756097560975,47.103658536585364 68.54674796747967,46.798780487804876 68.4959349593496,46.54471544715447 68.4451219512195,46.290650406504064 68.39430894308943,45.985772357723576 68.39430894308943,45.73170731707317 68.34349593495935,45.47764227642276 68.29268292682927,45.22357723577235 68.24186991869918,44.96951219512195 68.1910569105691,44.71544715447154 68.14024390243902,44.41056910569105 68.14024390243902,44.15650406504065 68.08943089430895,43.85162601626016 68.08943089430895,43.49593495934959 68.03861788617886,43.24186991869919 67.98780487804878,42.9369918699187 67.98780487804878,42.68292682926829 67.9369918699187,42.3780487804878 67.83536585365853,42.073170731707314 67.83536585365853,41.81910569105691 67.73373983739837,41.5650406504065 67.6829268292683,41.260162601626014 67.6829268292683,40.95528455284553 67.6321138211382,40.701219512195124 67.58130081300813,40.396341463414636 67.53048780487805,40.142276422764226 67.42886178861788,39.88821138211382 67.3780487804878,39.583333333333336 67.32723577235772,39.329268292682926 67.27642276422765,39.07520325203252 67.22560975609755,38.77032520325203 67.17479674796748,38.516260162601625 67.07317073170732,38.262195121951216 67.02235772357723,38.00813008130081 66.92073170731707,37.7540650406504 66.869918699187,37.5 66.76829268292683,37.24593495934959 66.66666666666667,37.042682926829265" fill="none" stroke="black" stroke-width="0.6"></polyline><polyline points="66.66666666666667,37.042682926829265 66.61585365853658,36.83943089430894 66.51422764227642,36.636178861788615 66.41260162601625,36.483739837398375 66.3109756097561,36.28048780487805 66.20934959349593,36.077235772357724 66.15853658536585,35.8739837398374 66.0569105691057,35.670731707317074 65.90447154471545,35.46747967479675 65.80284552845528,35.264227642276424 65.70121951219512,35.010162601626014 65.59959349593495,34.75609756097561 65.44715447154472,34.552845528455286 65.34552845528455,34.34959349593496 65.1930894308943,34.146341463414636 65.04065040650406,33.892276422764226 64.88821138211382,33.6890243902439 64.73577235772358,33.4349593495935 64.58333333333333,33.18089430894309 64.43089430894308,32.926829268292686 64.22764227642276,32.6219512195122 64.02439024390243,32.418699186991866 63.87195121951219,32.16463414634146 63.668699186991866,31.859756097560975 63.46544715447154,31.60569105691057 63.262195121951216,31.351626016260163 63.05894308943089,31.046747967479675 62.855691056910565,30.79268292682927 62.65243902439024,30.589430894308943 62.449186991869915,30.335365853658537 62.24593495934959,30.08130081300813 61.99186991869919,29.878048780487806 61.73780487804878,29.6239837398374 61.483739837398375,29.369918699186993 61.17886178861789,29.166666666666664 60.8739837398374,28.912601626016258 60.61991869918699,28.709349593495933 60.3150406504065,28.455284552845526 60.010162601626014,28.2520325203252 59.70528455284553,28.048780487804876 59.451219512195124,27.84552845528455 59.146341463414636,27.642276422764226 58.892276422764226,27.4390243902439 58.58739837398374,27.286585365853657 58.33333333333333,27.083333333333332 58.079268292682926,26.93089430894309 57.825203252032516,26.727642276422763 57.57113821138211,26.57520325203252 57.3170731707317,26.422764227642276 57.0630081300813,26.270325203252032 56.80894308943089,26.117886178861788" fill="none" stroke="black" stroke-width="0.6"></polyline><polyline points="56.80894308943089,26.117886178861788 56.55487804878049,25.965447154471544 56.30081300813008,25.8130081300813 56.09756097560975,25.711382113821138 55.84349593495935,25.609756097560975 55.58943089430894,25.45731707317073 55.33536585365854,25.35569105691057 55.08130081300813,25.203252032520325 54.827235772357724,25.101626016260163 54.6239837398374,24.94918699186992 54.36991869918699,24.796747967479675 54.0650406504065,24.695121951219512 53.8109756097561,24.54268292682927 53.55691056910569,24.441056910569106 53.2520325203252,24.288617886178862 52.9979674796748,24.23780487804878 52.74390243902439,24.13617886178862 52.4390243902439,24.034552845528456 52.1849593495935,23.983739837398375 51.93089430894309,23.932926829268293 51.6260162601626,23.882113821138212 51.37195121951219,23.83130081300813 51.11788617886179,23.83130081300813 50.8130081300813,23.83130081300813 50.55894308943089,23.78048780487805 50.30487804878049,23.78048780487805 50,23.78048780487805 49.74593495934959,23.729674796747968 49.49186991869919,23.729674796747968 49.1869918699187,23.729674796747968 48.983739837398375,23.729674796747968 48.729674796747965,23.729674796747968 48.47560975609756,23.678861788617887 48.27235772357724,23.678861788617887 48.01829268292683,23.678861788617887 47.764227642276424,23.678861788617887 47.5609756097561,23.678861788617887 47.30691056910569,23.678861788617887 47.052845528455286,23.729674796747968 46.84959349593496,23.729674796747968 46.59552845528455,23.78048780487805 46.392276422764226,23.83130081300813 46.13821138211382,23.83130081300813 45.88414634146341,23.882113821138212 45.63008130081301,23.882113821138212 45.3760162601626,23.932926829268293 45.12195121951219,23.932926829268293 44.8170731707317,23.983739837398375 44.5630081300813,24.034552845528456 44.25813008130081,24.085365853658537 44.0040650406504,24.085365853658537" fill="none" stroke="black" stroke-width="0.6"></polyline><polyline points="44.0040650406504,24.085365853658537 43.75,24.13617886178862 43.49593495934959,24.1869918699187 43.24186991869919,24.23780487804878 42.98780487804878,24.23780487804878 42.733739837398375,24.288617886178862 42.42886178861789,24.390243902439025 42.1239837398374,24.441056910569106 41.86991869918699,24.491869918699187 41.5650406504065,24.54268292682927 41.260162601626014,24.64430894308943 40.90447154471545,24.695121951219512 40.59959349593496,24.796747967479675 40.24390243902439,24.898373983739837 39.83739837398374,25 39.48170731707317,25.152439024390244 39.07520325203252,25.254065040650406 38.668699186991866,25.40650406504065 38.262195121951216,25.508130081300813 37.855691056910565,25.660569105691057 37.449186991869915,25.8130081300813 37.09349593495935,25.965447154471544 36.73780487804878,26.067073170731707 36.28048780487805,26.270325203252032 35.92479674796748,26.422764227642276 35.51829268292683,26.6260162601626 35.11178861788618,26.778455284552845 34.75609756097561,26.93089430894309 34.40040650406504,27.134146341463413 33.99390243902439,27.33739837398374 33.63821138211382,27.540650406504064 33.28252032520325,27.79471544715447 32.926829268292686,27.997967479674795 32.6219512195122,28.15040650406504 32.3170731707317,28.353658536585364 32.012195121951216,28.60772357723577 31.70731707317073,28.810975609756095 31.402439024390244,29.115853658536583 31.046747967479675,29.369918699186993 30.84349593495935,29.573170731707318 30.640243902439025,29.725609756097562 30.38617886178862,29.979674796747968 30.132113821138212,30.233739837398375 29.827235772357724,30.48780487804878 29.573170731707318,30.741869918699187 29.31910569105691,30.995934959349594 29.115853658536583,31.25 28.861788617886177,31.554878048780488 28.65853658536585,31.808943089430894 28.404471544715445,32.11382113821138 28.20121951219512,32.418699186991866" fill="none" stroke="black" stroke-width="0.6"></polyline><polyline points="28.20121951219512,32.418699186991866 27.997967479674795,32.6219512195122 27.79471544715447,32.8760162601626 27.591463414634145,33.18089430894309 27.4390243902439,33.4349593495935 27.235772357723576,33.739837398373986 27.03252032520325,34.09552845528455 26.829268292682926,34.451219512195124 26.6260162601626,34.75609756097561 26.422764227642276,35.0609756097561 26.21951219512195,35.416666666666664 26.016260162601625,35.72154471544715 25.86382113821138,36.077235772357724 25.660569105691057,36.38211382113821 25.558943089430894,36.6869918699187 25.40650406504065,37.042682926829265 25.254065040650406,37.34756097560975 25.101626016260163,37.703252032520325 24.94918699186992,38.00813008130081 24.847560975609756,38.3130081300813 24.745934959349594,38.71951219512195 24.54268292682927,39.176829268292686 24.390243902439025,39.63414634146341 24.23780487804878,40.040650406504064 24.085365853658537,40.447154471544714 23.983739837398375,40.802845528455286 23.882113821138212,41.209349593495936 23.78048780487805,41.61585365853659 23.729674796747968,42.02235772357724 23.628048780487806,42.327235772357724 23.577235772357724,42.733739837398375 23.526422764227643,43.08943089430894 23.475609756097562,43.546747967479675 23.42479674796748,43.953252032520325 23.3739837398374,44.41056910569105 23.323170731707318,44.918699186991866 23.272357723577237,45.325203252032516 23.272357723577237,45.78252032520325 23.272357723577237,46.290650406504064 23.272357723577237,46.697154471544714 23.272357723577237,47.20528455284553 23.272357723577237,47.66260162601626 23.272357723577237,48.11991869918699 23.323170731707318,48.6280487804878 23.3739837398374,49.1869918699187 23.42479674796748,49.69512195121951 23.526422764227643,50.203252032520325 23.628048780487806,50.71138211382114 23.678861788617887,51.11788617886179 23.78048780487805,51.575203252032516 23.882113821138212,52.03252032520325" fill="none" stroke="black" stroke-width="0.6"></polyline><polyline points="23.882113821138212,52.03252032520325 23.983739837398375,52.4390243902439 24.085365853658537,52.84552845528455 24.1869918699187,53.353658536585364 24.288617886178862,53.8109756097561 24.339430894308943,54.26829268292683 24.441056910569106,54.72560975609756 24.54268292682927,55.18292682926829 24.64430894308943,55.6910569105691 24.745934959349594,56.199186991869915 24.847560975609756,56.605691056910565 24.94918699186992,57.012195121951216 25.101626016260163,57.52032520325203 25.152439024390244,57.92682926829268 25.254065040650406,58.38414634146341 25.40650406504065,58.892276422764226 25.45731707317073,59.298780487804876 25.609756097560975,59.75609756097561 25.711382113821138,60.264227642276424 25.86382113821138,60.670731707317074 26.016260162601625,61.1280487804878 26.16869918699187,61.58536585365854 26.321138211382113,62.042682926829265 26.473577235772357,62.449186991869915 26.676829268292682,62.90650406504065 26.829268292682926,63.3130081300813 27.03252032520325,63.71951219512195 27.286585365853657,64.17682926829268 27.489837398373982,64.6341463414634 27.74390243902439,65.09146341463415 27.997967479674795,65.54878048780488 28.2520325203252,65.90447154471545 28.506097560975608,66.36178861788618 28.810975609756095,66.76829268292683 29.0650406504065,67.17479674796748 29.369918699186993,67.58130081300813 29.67479674796748,67.98780487804878 29.979674796747968,68.34349593495935 30.284552845528456,68.80081300813008 30.589430894308943,69.20731707317073 30.89430894308943,69.5630081300813 31.25,69.91869918699187 31.60569105691057,70.27439024390243 31.961382113821138,70.630081300813 32.3170731707317,70.98577235772358 32.72357723577236,71.34146341463415 33.079268292682926,71.64634146341463 33.4349593495935,71.95121951219512 33.84146341463415,72.3069105691057 34.2479674796748,72.61178861788618 34.603658536585364,72.91666666666667" fill="none" stroke="black" stroke-width="0.6"></polyline><polyline points="34.603658536585364,72.91666666666667 35.010162601626014,73.22154471544715 35.416666666666664,73.47560975609755 35.823170731707314,73.78048780487805 36.17886178861789,74.03455284552845 36.58536585365854,74.23780487804878 36.99186991869919,74.54268292682927 37.34756097560975,74.79674796747967 37.7540650406504,75 38.16056910569105,75.30487804878048 38.516260162601625,75.5081300813008 38.922764227642276,75.71138211382113 39.38008130081301,75.96544715447155 39.735772357723576,76.16869918699187 40.142276422764226,76.42276422764228 40.59959349593496,76.67682926829268 41.05691056910569,76.880081300813 41.46341463414634,77.1341463414634 41.97154471544715,77.38821138211382 42.3780487804878,77.59146341463415 42.83536585365854,77.84552845528455 43.34349593495935,78.04878048780488 43.80081300813008,78.2520325203252 44.30894308943089,78.45528455284553 44.86788617886179,78.65853658536585 45.3760162601626,78.8109756097561 45.88414634146341,78.96341463414635 46.44308943089431,79.11585365853658 47.0020325203252,79.26829268292683 47.510162601626014,79.369918699187 48.11991869918699,79.52235772357723 48.6280487804878,79.57317073170732 49.1869918699187,79.67479674796748 49.796747967479675,79.72560975609755 50.30487804878049,79.77642276422765 50.86382113821138,79.82723577235772 51.422764227642276,79.8780487804878 51.981707317073166,79.8780487804878 52.540650406504064,79.8780487804878 53.09959349593496,79.8780487804878 53.65853658536585,79.8780487804878 54.166666666666664,79.8780487804878 54.77642276422764,79.82723577235772 55.28455284552845,79.77642276422765 55.89430894308943,79.72560975609755 56.5040650406504,79.6239837398374 57.11382113821138,79.47154471544715 57.672764227642276,79.3191056910569 58.33333333333333,79.16666666666667 58.94308943089431,78.96341463414635 59.552845528455286,78.8109756097561" fill="none" stroke="black" stroke-width="0.6"></polyline><polyline points="59.552845528455286,78.8109756097561 60.21341463414634,78.60772357723577 60.77235772357724,78.40447154471545 61.38211382113821,78.20121951219512 61.99186991869919,77.9471544715447 62.5,77.74390243902438 63.00813008130081,77.54065040650406 63.46544715447154,77.33739837398373 63.87195121951219,77.1341463414634 64.27845528455285,76.93089430894308 64.6849593495935,76.67682926829268 65.04065040650406,76.47357723577235 65.39634146341463,76.21951219512195 65.7520325203252,75.96544715447155 66.10772357723577,75.71138211382113 66.51422764227642,75.40650406504065 66.92073170731707,75.10162601626016 67.32723577235772,74.79674796747967 67.73373983739837,74.49186991869918 68.14024390243902,74.13617886178862 68.54674796747967,73.83130081300813 68.95325203252033,73.47560975609755 69.3089430894309,73.119918699187 69.66463414634146,72.76422764227642 70.0711382113821,72.40853658536585 70.3760162601626,72.0020325203252 70.73170731707317,71.64634146341463 71.03658536585365,71.29065040650406 71.34146341463415,70.9349593495935 71.69715447154472,70.52845528455285 72.0020325203252,70.1219512195122 72.3069105691057,69.76626016260163 72.61178861788618,69.41056910569105 72.96747967479675,69.0040650406504 73.22154471544715,68.64837398373983 73.57723577235772,68.24186991869918 73.8821138211382,67.78455284552845 74.1869918699187,67.42886178861788 74.4410569105691,67.02235772357723 74.79674796747967,66.61585365853658 75.05081300813008,66.20934959349593 75.35569105691057,65.7520325203252 75.66056910569105,65.29471544715447 75.96544715447155,64.88821138211382 76.27032520325203,64.48170731707317 76.57520325203252,63.97357723577235 76.82926829268293,63.5670731707317 77.1341463414634,63.109756097560975 77.48983739837398,62.60162601626016 77.79471544715447,62.14430894308943 78.09959349593495,61.636178861788615" fill="none" stroke="black" stroke-width="0.6"></polyline><polyline points="78.09959349593495,61.636178861788615 78.40447154471545,61.1280487804878 78.70934959349593,60.670731707317074 78.96341463414635,60.21341463414634 79.26829268292683,59.70528455284553 79.52235772357723,59.2479674796748 79.77642276422765,58.790650406504064 80.03048780487805,58.33333333333333 80.23373983739837,57.8760162601626 80.4369918699187,57.418699186991866 80.64024390243902,56.91056910569105 80.84349593495935,56.453252032520325 81.04674796747967,55.94512195121951 81.25,55.48780487804878 81.45325203252033,55.03048780487805 81.65650406504065,54.52235772357724 81.85975609756098,54.014227642276424 82.01219512195122,53.50609756097561 82.21544715447155,52.9979674796748 82.41869918699187,52.489837398373986 82.6219512195122,51.93089430894309 82.82520325203252,51.422764227642276 83.07926829268293,50.86382113821138 83.28252032520325,50.30487804878049 83.48577235772358,49.69512195121951 83.73983739837398,49.08536585365854 83.9430894308943,48.52642276422764 84.14634146341463,47.916666666666664 84.34959349593495,47.30691056910569 84.5020325203252,46.7479674796748 84.65447154471545,46.13821138211382 84.8069105691057,45.52845528455285 84.90853658536585,44.918699186991866 85.01016260162602,44.30894308943089 85.11178861788618,43.64837398373984 85.16260162601625,42.98780487804878 85.21341463414635,42.27642276422764 85.26422764227642,41.5650406504065 85.3150406504065,41.00609756097561 85.3150406504065,40.396341463414636 85.26422764227642,39.78658536585366 85.21341463414635,39.22764227642276 85.11178861788618,38.61788617886179 85.0609756097561,38.05894308943089 84.95934959349593,37.449186991869915 84.85772357723577,36.73780487804878 84.7560975609756,36.1280487804878 84.65447154471545,35.46747967479675 84.5020325203252,34.75609756097561 84.34959349593495,34.146341463414636 84.1971544715447,33.4349593495935" fill="none" stroke="black" stroke-width="0.6"></polyline><polyline points="84.1971544715447,33.4349593495935 84.04471544715447,32.72357723577236 83.84146341463415,32.16463414634146 83.63821138211382,31.504065040650406 83.4349593495935,30.84349593495935 83.18089430894308,30.284552845528456 82.97764227642276,29.67479674796748 82.72357723577235,29.0650406504065 82.46951219512195,28.455284552845526 82.21544715447155,27.84552845528455 81.96138211382113,27.235772357723576 81.70731707317073,26.6260162601626 81.40243902439025,26.016260162601625 81.09756097560975,25.40650406504065 80.84349593495935,24.847560975609756 80.53861788617886,24.23780487804878 80.23373983739837,23.678861788617887 79.92886178861788,23.170731707317074 79.6239837398374,22.611788617886177 79.26829268292683,22.052845528455283 78.91260162601625,21.54471544715447 78.60772357723577,21.036585365853657 78.2520325203252,20.477642276422763 77.9471544715447,20.020325203252032 77.59146341463415,19.51219512195122 77.1849593495935,19.054878048780488 76.82926829268293,18.597560975609756 76.42276422764228,18.140243902439025 76.01626016260163,17.682926829268293 75.66056910569105,17.276422764227643 75.2540650406504,16.920731707317074 74.84756097560975,16.514227642276424 74.4410569105691,16.15853658536585 74.08536585365853,15.802845528455284 73.67886178861788,15.396341463414634 73.27235772357723,15.091463414634147 72.86585365853658,14.735772357723578 72.45934959349593,14.380081300813007 72.0020325203252,14.07520325203252 71.59552845528455,13.821138211382113 71.13821138211382,13.465447154471544 70.68089430894308,13.211382113821138 70.1219512195122,12.90650406504065 69.5630081300813,12.652439024390244 69.05487804878048,12.398373983739837 68.4959349593496,12.144308943089431 67.88617886178862,11.941056910569106 67.32723577235772,11.737804878048781 66.76829268292683,11.534552845528456 66.15853658536585,11.331300813008129 65.59959349593495,11.178861788617885" fill="none" stroke="black" stroke-width="0.6"></polyline><polyline points="65.59959349593495,11.178861788617885 65.09146341463415,11.026422764227641 64.58333333333333,10.873983739837398 64.02439024390243,10.670731707317072 63.41463414634146,10.56910569105691 62.7540650406504,10.416666666666666 62.09349593495935,10.315040650406504 61.43292682926829,10.213414634146341 60.77235772357724,10.111788617886178 60.11178861788618,10.060975609756097 59.40040650406504,9.959349593495935 58.790650406504064,9.908536585365853 58.18089430894309,9.80691056910569 57.46951219512195,9.75609756097561 56.859756097560975,9.705284552845528 56.25,9.654471544715447 55.53861788617886,9.603658536585366 54.8780487804878,9.552845528455284 54.21747967479675,9.552845528455284 53.45528455284553,9.502032520325203 52.79471544715447,9.451219512195122 52.083333333333336,9.40040650406504 51.422764227642276,9.34959349593496 50.8130081300813,9.298780487804878 50.15243902439024,9.197154471544716 49.4410569105691,9.146341463414634 48.83130081300813,9.095528455284553 48.170731707317074,9.044715447154472 47.510162601626014,8.99390243902439 46.951219512195124,8.99390243902439 46.290650406504064,8.99390243902439 45.579268292682926,8.99390243902439 44.918699186991866,8.99390243902439 44.20731707317073,8.99390243902439 43.49593495934959,8.99390243902439 42.83536585365854,9.044715447154472 42.073170731707314,9.095528455284553 41.3109756097561,9.197154471544716 40.548780487804876,9.298780487804878 39.83739837398374,9.40040650406504 39.02439024390244,9.502032520325203 38.36382113821138,9.603658536585366 37.65243902439024,9.705284552845528 36.890243902439025,9.908536585365853 36.17886178861789,10.060975609756097 35.416666666666664,10.264227642276422 34.70528455284553,10.467479674796747 34.04471544715447,10.619918699186991 33.333333333333336,10.823170731707316 32.6219512195122,11.026422764227641 31.910569105691057,11.280487804878048" fill="none" stroke="black" stroke-width="0.6"></polyline><polyline points="31.910569105691057,11.280487804878048 31.19918699186992,11.534552845528456 30.4369918699187,11.788617886178862 29.776422764227643,12.042682926829269 29.115853658536583,12.296747967479675 28.455284552845526,12.5 27.79471544715447,12.754065040650406 27.134146341463413,13.058943089430894 26.473577235772357,13.363821138211382 25.86382113821138,13.71951219512195 25.254065040650406,14.07520325203252 24.64430894308943,14.430894308943088 24.034552845528456,14.83739837398374 23.42479674796748,15.24390243902439 22.865853658536587,15.65040650406504 22.40853658536585,16.05691056910569 21.90040650406504,16.463414634146343 21.49390243902439,16.869918699186993 21.08739837398374,17.17479674796748 20.68089430894309,17.58130081300813 20.223577235772357,17.98780487804878 19.867886178861788,18.39430894308943 19.5630081300813,18.75 19.308943089430894,19.10569105691057 19.004065040650406,19.51219512195122 18.69918699186992,19.96951219512195 18.39430894308943,20.426829268292682 18.191056910569106,20.78252032520325 17.9369918699187,21.239837398373982 17.784552845528456,21.59552845528455 17.58130081300813,22.0020325203252 17.327235772357724,22.510162601626014 17.1239837398374,22.916666666666668 16.920731707317074,23.323170731707318 16.71747967479675,23.78048780487805 16.565040650406505,24.13617886178862 16.36178861788618,24.54268292682927 16.10772357723577,25.152439024390244 15.853658536585366,25.660569105691057 15.65040650406504,26.16869918699187 15.345528455284553,26.778455284552845 15.142276422764228,27.286585365853657 14.888211382113822,27.79471544715447 14.684959349593496,28.353658536585364 14.48170731707317,28.810975609756095 14.278455284552845,29.369918699186993 14.07520325203252,29.928861788617887 13.922764227642276,30.4369918699187 13.770325203252032,30.945121951219512 13.567073170731707,31.60569105691057 13.363821138211382,32.266260162601625" fill="none" stroke="black" stroke-width="0.6"></polyline><polyline points="13.363821138211382,32.266260162601625 13.160569105691057,32.8760162601626 12.957317073170731,33.485772357723576 12.804878048780488,34.09552845528455 12.652439024390244,34.70528455284553 12.449186991869919,35.3150406504065 12.296747967479675,35.97560975609756 12.144308943089431,36.6869918699187 11.941056910569106,37.449186991869915 11.788617886178862,38.109756097560975 11.636178861788618,38.82113821138211 11.534552845528456,39.48170731707317 11.432926829268293,40.09146341463415 11.382113821138212,40.7520325203252 11.280487804878048,41.41260162601626 11.229674796747966,42.073170731707314 11.178861788617885,42.78455284552845 11.128048780487804,43.546747967479675 11.077235772357723,44.20731707317073 11.026422764227641,44.918699186991866 11.026422764227641,45.63008130081301 10.97560975609756,46.239837398373986 10.97560975609756,46.84959349593496 10.97560975609756,47.510162601626014 10.97560975609756,48.170731707317074 11.026422764227641,48.83130081300813 11.077235772357723,49.49186991869919 11.178861788617885,50.10162601626016 11.280487804878048,50.71138211382114 11.382113821138212,51.37195121951219 11.483739837398375,51.981707317073166 11.585365853658537,52.540650406504064 11.6869918699187,53.201219512195124 11.839430894308943,53.8109756097561 11.941056910569106,54.420731707317074 12.09349593495935,55.03048780487805 12.245934959349594,55.640243902439025 12.398373983739837,56.30081300813008 12.601626016260163,56.91056910569105 12.754065040650406,57.52032520325203 12.957317073170731,58.130081300813 13.160569105691057,58.739837398373986 13.414634146341463,59.298780487804876 13.617886178861788,59.90853658536585 13.871951219512194,60.46747967479675 14.07520325203252,61.02642276422764 14.329268292682926,61.6869918699187 14.53252032520325,62.24593495934959 14.786585365853659,62.80487804878049 14.989837398373984,63.36382113821138 15.19308943089431,63.87195121951219" fill="none" stroke="black" stroke-width="0.6"></polyline><polyline points="15.19308943089431,63.87195121951219 15.447154471544716,64.48170731707317 15.65040650406504,65.04065040650406 15.853658536585366,65.54878048780488 16.10772357723577,66.0569105691057 16.36178861788618,66.61585365853658 16.565040650406505,67.1239837398374 16.81910569105691,67.6829268292683 17.073170731707318,68.29268292682927 17.276422764227643,68.80081300813008 17.53048780487805,69.3089430894309 17.835365853658537,69.86788617886178 18.038617886178862,70.32520325203252 18.34349593495935,70.8841463414634 18.597560975609756,71.4430894308943 18.851626016260163,71.90040650406505 19.15650406504065,72.35772357723577 19.461382113821138,72.91666666666667 19.715447154471544,73.32317073170732 20.020325203252032,73.78048780487805 20.32520325203252,74.28861788617886 20.579268292682926,74.6951219512195 20.884146341463413,75.10162601626016 21.239837398373982,75.5589430894309 21.59552845528455,76.01626016260163 21.90040650406504,76.42276422764228 22.30691056910569,76.880081300813 22.662601626016258,77.33739837398373 23.01829268292683,77.74390243902438 23.42479674796748,78.15040650406505 23.78048780487805,78.5060975609756 24.13617886178862,78.86178861788618 24.54268292682927,79.26829268292683 24.94918699186992,79.67479674796748 25.35569105691057,80.08130081300813 25.8130081300813,80.4369918699187 26.21951219512195,80.74186991869918 26.6260162601626,81.09756097560975 27.134146341463413,81.45325203252033 27.591463414634145,81.8089430894309 28.099593495934958,82.11382113821138 28.60772357723577,82.41869918699187 29.115853658536583,82.72357723577235 29.67479674796748,83.02845528455285 30.284552845528456,83.3841463414634 30.84349593495935,83.6890243902439 31.453252032520325,83.9430894308943 32.0630081300813,84.1971544715447 32.6219512195122,84.45121951219512 33.23170731707317,84.65447154471545 33.84146341463415,84.85772357723577" fill="none" stroke="black" stroke-width="0.6"></polyline><polyline points="33.84146341463415,84.85772357723577 34.5020325203252,85.01016260162602 35.16260162601626,85.21341463414635 35.823170731707314,85.36585365853658 36.483739837398375,85.46747967479675 37.19512195121951,85.619918699187 37.90650406504065,85.72154471544715 38.5670731707317,85.77235772357723 39.27845528455285,85.8739837398374 39.989837398373986,85.97560975609755 40.65040650406504,86.02642276422765 41.36178861788618,86.07723577235772 42.073170731707314,86.17886178861788 42.78455284552845,86.22967479674797 43.49593495934959,86.22967479674797 44.20731707317073,86.28048780487805 44.86788617886179,86.33130081300813 45.63008130081301,86.33130081300813 46.34146341463415,86.33130081300813 47.052845528455286,86.33130081300813 47.86585365853659,86.33130081300813 48.577235772357724,86.33130081300813 49.28861788617886,86.33130081300813 50.10162601626016,86.33130081300813 50.762195121951216,86.33130081300813 51.52439024390244,86.33130081300813 52.28658536585366,86.33130081300813 52.947154471544714,86.33130081300813 53.65853658536585,86.28048780487805 54.420731707317074,86.22967479674797 55.13211382113821,86.1280487804878 55.89430894308943,86.02642276422765 56.75813008130081,85.92479674796748 57.418699186991866,85.82317073170732 58.130081300813,85.72154471544715 58.892276422764226,85.619918699187 59.603658536585364,85.51829268292683 60.3150406504065,85.36585365853658 61.077235772357724,85.21341463414635 61.73780487804878,85.0609756097561 62.449186991869915,84.85772357723577 63.21138211382114,84.60365853658537 63.922764227642276,84.34959349593495 64.6341463414634,84.09552845528455 65.44715447154472,83.73983739837398 66.15853658536585,83.4349593495935 66.869918699187,83.130081300813 67.6829268292683,82.72357723577235 68.34349593495935,82.41869918699187 69.10569105691057,82.01219512195122 69.8170731707317,81.65650406504065" fill="none" stroke="black" stroke-width="0.6"></polyline><polyline points="69.8170731707317,81.65650406504065 70.47764227642276,81.25 71.1890243902439,80.84349593495935 71.90040650406505,80.38617886178862 72.51016260162602,79.97967479674797 73.17073170731707,79.57317073170732 73.78048780487805,79.11585365853658 74.39024390243902,78.70934959349593 74.89837398373983,78.2520325203252 75.45731707317073,77.79471544715447 75.91463414634146,77.33739837398373 76.3719512195122,76.880081300813 76.77845528455285,76.42276422764228 77.1849593495935,76.01626016260163 77.59146341463415,75.5589430894309 77.9471544715447,75.10162601626016 78.2520325203252,74.64430894308943 78.60772357723577,74.13617886178862 78.96341463414635,73.6280487804878 79.3191056910569,73.17073170731707 79.57317073170732,72.71341463414635 79.8780487804878,72.2560975609756 80.08130081300813,71.79878048780488 80.28455284552845,71.39227642276423 80.48780487804878,70.9349593495935 80.6910569105691,70.52845528455285 80.84349593495935,70.0711382113821 80.9959349593496,69.61382113821138 81.09756097560975,69.15650406504065 81.19918699186992,68.69918699186992 81.30081300813008,68.24186991869918 81.40243902439025,67.78455284552845 81.5040650406504,67.3780487804878 81.60569105691057,66.92073170731707 81.70731707317073,66.46341463414635 81.8089430894309,66.0060975609756 81.91056910569105,65.59959349593495 81.96138211382113,65.14227642276423 82.0630081300813,64.73577235772358 82.11382113821138,64.380081300813 82.16463414634146,63.922764227642276 82.21544715447155,63.516260162601625 82.26626016260163,63.109756097560975 82.3170731707317,62.703252032520325 82.36788617886178,62.296747967479675 82.41869918699187,61.890243902439025 82.52032520325203,61.483739837398375 82.5711382113821,61.077235772357724 82.5711382113821,60.72154471544715 82.6219512195122,60.36585365853659 82.6219512195122,60.010162601626014" fill="none" stroke="black" stroke-width="0.6"></polyline><polyline points="82.6219512195122,60.010162601626014 82.6219512195122,59.65447154471545 82.6219512195122,59.34959349593496 82.6219512195122,58.94308943089431 82.6219512195122,58.63821138211382 82.6219512195122,58.33333333333333 82.6219512195122,57.97764227642276 82.6219512195122,57.672764227642276 82.6219512195122,57.3170731707317 82.6219512195122,57.012195121951216 82.6219512195122,56.70731707317073 82.67276422764228,56.453252032520325 82.67276422764228,56.14837398373984 82.72357723577235,55.94512195121951 82.72357723577235,55.6910569105691 82.72357723577235,55.4369918699187 82.72357723577235,55.18292682926829 82.72357723577235,54.979674796747965 82.72357723577235,54.77642276422764 82.72357723577235,54.573170731707314 82.67276422764228,54.36991869918699 82.67276422764228,54.166666666666664 82.67276422764228,54.014227642276424 82.6219512195122,53.91260162601626 82.6219512195122,53.760162601626014 82.5711382113821,53.607723577235774 82.5711382113821,53.50609756097561 82.52032520325203,53.353658536585364 82.52032520325203,53.2520325203252 82.46951219512195,53.15040650406504 82.46951219512195,53.048780487804876 82.41869918699187,52.947154471544714 82.41869918699187,52.896341463414636 82.41869918699187,52.79471544715447 82.41869918699187,52.74390243902439 82.41869918699187,52.69308943089431 82.41869918699187,52.642276422764226 82.41869918699187,52.59146341463415 82.41869918699187,52.59146341463415 82.41869918699187,52.540650406504064 82.41869918699187,52.540650406504064 82.41869918699187,52.489837398373986 82.41869918699187,52.489837398373986 82.41869918699187,52.489837398373986 82.41869918699187,52.4390243902439 82.41869918699187,52.4390243902439 82.41869918699187,52.4390243902439 82.41869918699187,52.4390243902439 82.41869918699187,52.4390243902439 82.41869918699187,52.4390243902439 82.41869918699187,52.4390243902439" fill="none" stroke="black" stroke-width="0.6"></polyline><polyline points="82.41869918699187,52.4390243902439 82.41869918699187,52.4390243902439 82.41869918699187,52.4390243902439 82.41869918699187,52.4390243902439 82.41869918699187,52.4390243902439 82.41869918699187,52.4390243902439 82.41869918699187,52.4390243902439 82.41869918699187,52.4390243902439 82.41869918699187,52.4390243902439 82.41869918699187,52.4390243902439 82.41869918699187,52.4390243902439 82.41869918699187,52.4390243902439 82.41869918699187,52.4390243902439 82.41869918699187,52.4390243902439 82.41869918699187,52.4390243902439 82.41869918699187,52.4390243902439 82.41869918699187,52.4390243902439 82.41869918699187,52.4390243902439 82.41869918699187,52.4390243902439 82.41869918699187,52.4390243902439 82.41869918699187,52.4390243902439 82.41869918699187,52.4390243902439 82.41869918699187,52.4390243902439 82.41869918699187,52.4390243902439 82.41869918699187,52.4390243902439 82.41869918699187,52.4390243902439 82.41869918699187,52.4390243902439 82.41869918699187,52.4390243902439 82.41869918699187,52.4390243902439 82.41869918699187,52.4390243902439 82.41869918699187,52.4390243902439 82.41869918699187,52.4390243902439 82.41869918699187,52.4390243902439 82.41869918699187,52.4390243902439 82.41869918699187,52.4390243902439 82.41869918699187,52.4390243902439 82.41869918699187,52.4390243902439 82.41869918699187,52.4390243902439 82.41869918699187,52.4390243902439 82.41869918699187,52.4390243902439 82.41869918699187,52.4390243902439 82.41869918699187,52.4390243902439 82.41869918699187,52.4390243902439 82.41869918699187,52.4390243902439 82.41869918699187,52.4390243902439 82.41869918699187,52.4390243902439 82.41869918699187,52.4390243902439 82.41869918699187,52.4390243902439 82.41869918699187,52.4390243902439 82.41869918699187,52.4390243902439 82.41869918699187,52.4390243902439" fill="none" stroke="black" stroke-width="0.6"></polyline><polyline points="82.41869918699187,52.4390243902439 82.41869918699187,52.4390243902439 82.41869918699187,52.4390243902439 82.41869918699187,52.4390243902439 82.41869918699187,52.4390243902439 82.41869918699187,52.4390243902439 82.41869918699187,52.4390243902439 82.41869918699187,52.4390243902439 82.41869918699187,52.4390243902439 82.41869918699187,52.4390243902439 82.41869918699187,52.4390243902439 82.41869918699187,52.4390243902439 82.41869918699187,52.4390243902439 82.41869918699187,52.4390243902439 82.41869918699187,52.4390243902439 82.41869918699187,52.4390243902439 82.41869918699187,52.4390243902439 82.41869918699187,52.4390243902439 82.41869918699187,52.4390243902439 82.41869918699187,52.4390243902439 82.41869918699187,52.4390243902439 82.41869918699187,52.4390243902439 82.41869918699187,52.4390243902439 82.41869918699187,52.4390243902439 82.41869918699187,52.4390243902439 82.41869918699187,52.4390243902439 82.41869918699187,52.4390243902439 82.41869918699187,52.4390243902439 82.41869918699187,52.4390243902439 82.41869918699187,52.4390243902439 82.41869918699187,52.4390243902439 82.41869918699187,52.4390243902439 82.41869918699187,52.4390243902439 82.41869918699187,52.4390243902439 82.41869918699187,52.4390243902439 82.41869918699187,52.4390243902439 82.41869918699187,52.4390243902439 82.41869918699187,52.4390243902439 82.41869918699187,52.4390243902439 82.41869918699187,52.4390243902439 82.41869918699187,52.489837398373986 82.41869918699187,52.489837398373986 82.41869918699187,52.489837398373986 82.41869918699187,52.489837398373986 82.41869918699187,52.489837398373986 82.41869918699187,52.540650406504064 82.41869918699187,52.540650406504064 82.46951219512195,52.540650406504064 82.46951219512195,52.540650406504064 82.46951219512195,52.540650406504064 82.46951219512195,52.540650406504064" fill="none" stroke="black" stroke-width="0.6"></polyline><polyline points="82.46951219512195,52.540650406504064 82.46951219512195,52.59146341463415 82.46951219512195,52.59146341463415 82.46951219512195,52.59146341463415 82.46951219512195,52.59146341463415 82.46951219512195,52.642276422764226 82.46951219512195,52.642276422764226 82.46951219512195,52.642276422764226 82.46951219512195,52.642276422764226 82.46951219512195,52.642276422764226 82.46951219512195,52.642276422764226 82.46951219512195,52.642276422764226 82.46951219512195,52.69308943089431 82.46951219512195,52.69308943089431 82.46951219512195,52.69308943089431 82.46951219512195,52.69308943089431 82.46951219512195,52.69308943089431 82.46951219512195,52.69308943089431 82.46951219512195,52.69308943089431 82.46951219512195,52.69308943089431 82.46951219512195,52.69308943089431 82.46951219512195,52.69308943089431 82.46951219512195,52.69308943089431 82.52032520325203,52.69308943089431 82.52032520325203,52.69308943089431 82.52032520325203,52.69308943089431 82.52032520325203,52.69308943089431 82.52032520325203,52.69308943089431 82.52032520325203,52.69308943089431 82.52032520325203,52.69308943089431 82.52032520325203,52.69308943089431 82.52032520325203,52.69308943089431 82.52032520325203,52.69308943089431 82.52032520325203,52.69308943089431 82.52032520325203,52.69308943089431 82.52032520325203,52.69308943089431 82.52032520325203,52.69308943089431 82.52032520325203,52.642276422764226 82.52032520325203,52.59146341463415 82.46951219512195,52.540650406504064 82.46951219512195,52.4390243902439 82.41869918699187,52.38821138211382 82.36788617886178,52.28658536585366 82.3170731707317,52.235772357723576 82.26626016260163,52.13414634146341 82.21544715447155,52.03252032520325 82.16463414634146,51.93089430894309 82.0630081300813,51.829268292682926 81.96138211382113,51.67682926829268 81.8089430894309,51.575203252032516 81.65650406504065,51.422764227642276" fill="none" stroke="black" stroke-width="0.6"></polyline><polyline points="81.65650406504065,51.422764227642276 81.5040650406504,51.27032520325203 81.30081300813008,51.11788617886179 81.14837398373983,51.016260162601625 80.9959349593496,50.91463414634146 80.84349593495935,50.86382113821138 80.6910569105691,50.8130081300813 80.48780487804878,50.762195121951216 80.33536585365853,50.762195121951216 80.1321138211382,50.71138211382114 79.92886178861788,50.71138211382114 79.72560975609755,50.71138211382114 79.47154471544715,50.71138211382114 79.16666666666667,50.71138211382114 78.86178861788618,50.762195121951216 78.60772357723577,50.762195121951216 78.2520325203252,50.8130081300813 77.9979674796748,50.86382113821138 77.6930894308943,50.86382113821138 77.4390243902439,50.91463414634146 77.23577235772358,50.91463414634146 77.03252032520325,50.91463414634146 76.93089430894308,50.91463414634146 76.82926829268293,50.91463414634146 76.82926829268293,50.91463414634146 76.82926829268293,50.86382113821138 76.82926829268293,50.86382113821138 76.82926829268293,50.86382113821138 76.82926829268293,50.86382113821138 76.880081300813,50.86382113821138 76.880081300813,50.86382113821138 76.880081300813,50.86382113821138 76.880081300813,50.86382113821138 76.880081300813,50.86382113821138 76.880081300813,50.86382113821138 76.880081300813,50.86382113821138 76.880081300813,50.86382113821138 76.880081300813,50.86382113821138 76.880081300813,50.86382113821138 76.880081300813,50.86382113821138 76.880081300813,50.86382113821138 76.93089430894308,50.86382113821138 76.98170731707317,50.86382113821138 77.08333333333333,50.86382113821138" fill="none" stroke="black" stroke-width="0.6"></polyline></svg>