<svg height="100" width="100" preserveAspectRatio="xMidYMid meet"><polyline points="8.638211382113822,15.497967479674797 8.638211382113822,15.497967479674797 8.638211382113822,15.497967479674797 8.638211382113822,15.497967479674797 8.638211382113822,15.497967479674797 8.638211382113822,15.497967479674797 8.58739837398374,15.497967479674797 8.58739837398374,15.497967479674797 8.58739837398374,15.497967479674797 8.58739837398374,15.497967479674797 8.58739837398374,15.497967479674797 8.58739837398374,15.497967479674797 8.58739837398374,15.497967479674797 8.58739837398374,15.497967479674797 8.638211382113822,15.497967479674797 8.739837398373984,15.497967479674797 8.841463414634147,15.447154471544716 8.94308943089431,15.345528455284553 9.044715447154472,15.24390243902439 9.247967479674797,15.091463414634147 9.654471544715447,14.684959349593496 10.16260162601626,14.1260162601626 10.416666666666666,13.871951219512194 10.670731707317072,13.567073170731707 10.873983739837398,13.3130081300813 11.077235772357723,13.008130081300813 11.280487804878048,12.754065040650406 11.788617886178862,11.991869918699187 12.09349593495935,11.534552845528456 12.398373983739837,11.128048780487804 12.703252032520325,10.670731707317072 13.008130081300813,10.16260162601626 13.262195121951219,9.654471544715447 13.465447154471544,9.247967479674797 13.567073170731707,9.044715447154472 13.66869918699187,8.790650406504065 13.770325203252032,8.536585365853659 13.871951219512194,8.282520325203253 13.922764227642276,8.028455284552845 14.1260162601626,7.520325203252033 14.176829268292682,7.367886178861789 14.278455284552845,7.164634146341463 14.329268292682926,7.012195121951219 14.329268292682926,6.9105691056910565 14.380081300813007,6.758130081300813 14.48170731707317,6.504065040650406 14.583333333333332,6.25 14.634146341463413,5.945121951219512 14.684959349593496,5.691056910569106 14.735772357723578,5.48780487804878 14.786585365853659,5.284552845528455" fill="none" stroke="black" stroke-width="0.6"></polyline><polyline points="14.786585365853659,5.284552845528455 14.786585365853659,5.182926829268292 14.83739837398374,4.878048780487805 14.83739837398374,4.67479674796748 14.83739837398374,4.623983739837398 14.83739837398374,4.522357723577236 14.83739837398374,4.369918699186992 14.83739837398374,4.319105691056911 14.786585365853659,4.166666666666667 14.786585365853659,4.115853658536586 14.684959349593496,4.0650406504065035 14.684959349593496,4.014227642276422 14.684959349593496,4.014227642276422 14.634146341463413,4.014227642276422 14.634146341463413,3.9634146341463414 14.583333333333332,3.9634146341463414 14.53252032520325,3.91260162601626 14.48170731707317,3.91260162601626 14.430894308943088,3.91260162601626 14.380081300813007,3.861788617886179 14.329268292682926,3.861788617886179 14.329268292682926,3.861788617886179 14.278455284552845,3.861788617886179 14.278455284552845,3.861788617886179 14.227642276422763,3.861788617886179 14.176829268292682,3.861788617886179 14.1260162601626,3.861788617886179 14.1260162601626,3.861788617886179 14.07520325203252,3.861788617886179 14.07520325203252,3.861788617886179 14.024390243902438,3.861788617886179 13.973577235772357,3.861788617886179 13.922764227642276,3.91260162601626 13.871951219512194,3.9634146341463414 13.871951219512194,3.9634146341463414 13.71951219512195,4.0650406504065035 13.66869918699187,4.115853658536586 13.617886178861788,4.166666666666667 13.516260162601625,4.217479674796748 13.465447154471544,4.319105691056911 13.363821138211382,4.369918699186992 13.262195121951219,4.471544715447155 13.211382113821138,4.573170731707317 13.109756097560975,4.67479674796748 13.058943089430894,4.725609756097561 12.957317073170731,4.8272357723577235 12.804878048780488,5.030487804878049 12.652439024390244,5.233739837398374 12.550813008130081,5.3861788617886175 12.449186991869919,5.589430894308943 12.398373983739837,5.7926829268292686" fill="none" stroke="black" stroke-width="0.6"></polyline><polyline points="12.398373983739837,5.7926829268292686 12.347560975609756,5.995934959349594 12.347560975609756,6.097560975609756 12.296747967479675,6.199186991869919 12.296747967479675,6.300813008130081 12.296747967479675,6.402439024390244 12.245934959349594,6.605691056910569 12.245934959349594,6.808943089430894 12.245934959349594,6.9105691056910565 12.245934959349594,7.012195121951219 12.245934959349594,7.215447154471544 12.245934959349594,7.469512195121951 12.245934959349594,7.571138211382114 12.245934959349594,7.82520325203252 12.245934959349594,8.079268292682926 12.245934959349594,8.333333333333334 12.245934959349594,8.58739837398374 12.245934959349594,8.841463414634147 12.296747967479675,9.095528455284553 12.296747967479675,9.197154471544716 12.296747967479675,9.298780487804878 12.296747967479675,9.40040650406504 12.296747967479675,9.502032520325203 12.347560975609756,9.705284552845528 12.347560975609756,9.80691056910569 12.347560975609756,9.857723577235772 12.347560975609756,9.959349593495935 12.398373983739837,10.16260162601626 12.398373983739837,10.365853658536585 12.398373983739837,10.467479674796747 12.449186991869919,10.670731707317072 12.449186991869919,10.873983739837398 12.449186991869919,10.97560975609756 12.5,11.077235772357723 12.5,11.229674796747966 12.5,11.280487804878048 12.5,11.382113821138212 12.5,11.483739837398375 12.550813008130081,11.534552845528456 12.550813008130081,11.636178861788618 12.550813008130081,11.6869918699187 12.601626016260163,11.788617886178862 12.601626016260163,11.839430894308943 12.601626016260163,11.890243902439025 12.601626016260163,11.991869918699187 12.652439024390244,12.042682926829269 12.652439024390244,12.144308943089431 12.652439024390244,12.195121951219512 12.703252032520325,12.245934959349594 12.703252032520325,12.347560975609756 12.703252032520325,12.398373983739837" fill="none" stroke="black" stroke-width="0.6"></polyline><polyline points="12.703252032520325,12.398373983739837 12.754065040650406,12.449186991869919 12.754065040650406,12.601626016260163 12.804878048780488,12.754065040650406 12.855691056910569,12.90650406504065 12.90650406504065,13.058943089430894 12.957317073170731,13.160569105691057 13.008130081300813,13.262195121951219 13.058943089430894,13.363821138211382 13.109756097560975,13.465447154471544 13.160569105691057,13.567073170731707 13.160569105691057,13.66869918699187 13.211382113821138,13.71951219512195 13.262195121951219,13.770325203252032 13.3130081300813,13.871951219512194 13.3130081300813,13.922764227642276 13.363821138211382,13.973577235772357 13.363821138211382,13.973577235772357 13.414634146341463,14.024390243902438 13.465447154471544,14.07520325203252 13.465447154471544,14.1260162601626 13.516260162601625,14.176829268292682 13.567073170731707,14.227642276422763 13.567073170731707,14.278455284552845 13.66869918699187,14.380081300813007 13.71951219512195,14.48170731707317 13.821138211382113,14.53252032520325 13.871951219512194,14.634146341463413 13.922764227642276,14.634146341463413 13.973577235772357,14.684959349593496 14.07520325203252,14.786585365853659 14.176829268292682,14.83739837398374 14.227642276422763,14.888211382113822 14.329268292682926,14.939024390243903 14.380081300813007,14.989837398373984 14.430894308943088,14.989837398373984 14.53252032520325,15.040650406504065 14.583333333333332,15.040650406504065 14.634146341463413,15.091463414634147 14.684959349593496,15.091463414634147 14.786585365853659,15.091463414634147 14.83739837398374,15.142276422764228 14.939024390243903,15.142276422764228 15.040650406504065,15.142276422764228 15.142276422764228,15.142276422764228 15.19308943089431,15.142276422764228 15.294715447154472,15.142276422764228 15.345528455284553,15.142276422764228 15.447154471544716,15.142276422764228 15.548780487804878,15.142276422764228 15.65040650406504,15.142276422764228" fill="none" stroke="black" stroke-width="0.6"></polyline><polyline points="15.65040650406504,15.142276422764228 15.701219512195122,15.142276422764228 15.904471544715447,15.142276422764228 15.955284552845528,15.091463414634147 16.05691056910569,15.091463414634147 16.209349593495933,15.040650406504065 16.36178861788618,14.989837398373984 16.463414634146343,14.989837398373984 16.615853658536587,14.939024390243903 16.666666666666668,14.939024390243903 16.920731707317074,14.83739837398374 16.971544715447155,14.786585365853659 17.073170731707318,14.735772357723578 17.276422764227643,14.634146341463413 17.428861788617887,14.53252032520325 17.58130081300813,14.380081300813007 17.733739837398375,14.278455284552845 17.9369918699187,14.1260162601626 17.98780487804878,14.07520325203252 18.089430894308943,13.973577235772357 18.140243902439025,13.922764227642276 18.191056910569106,13.871951219512194 18.29268292682927,13.71951219512195 18.39430894308943,13.617886178861788 18.445121951219512,13.567073170731707 18.495934959349594,13.465447154471544 18.546747967479675,13.363821138211382 18.648373983739837,13.211382113821138 18.69918699186992,13.109756097560975 18.75,12.957317073170731 18.851626016260163,12.804878048780488 18.902439024390244,12.601626016260163 18.953252032520325,12.449186991869919 19.004065040650406,12.245934959349594 19.004065040650406,12.09349593495935 19.004065040650406,11.941056910569106 19.004065040650406,11.788617886178862 19.004065040650406,11.737804878048781 19.004065040650406,11.6869918699187 19.004065040650406,11.636178861788618 19.004065040650406,11.585365853658537 19.004065040650406,11.534552845528456 18.953252032520325,11.534552845528456 18.953252032520325,11.483739837398375 18.902439024390244,11.483739837398375 18.902439024390244,11.432926829268293 18.851626016260163,11.382113821138212 18.80081300813008,11.331300813008129 18.80081300813008,11.331300813008129 18.75,11.280487804878048 18.69918699186992,11.229674796747966" fill="none" stroke="black" stroke-width="0.6"></polyline><polyline points="18.69918699186992,11.229674796747966 18.648373983739837,11.229674796747966 18.597560975609756,11.178861788617885 18.597560975609756,11.178861788617885 18.546747967479675,11.128048780487804 18.495934959349594,11.128048780487804 18.39430894308943,11.077235772357723 18.39430894308943,11.026422764227641 18.29268292682927,11.026422764227641 18.191056910569106,10.97560975609756 18.089430894308943,10.97560975609756 17.98780487804878,10.924796747967479 17.9369918699187,10.924796747967479 17.835365853658537,10.924796747967479 17.733739837398375,10.924796747967479 17.632113821138212,10.97560975609756 17.58130081300813,11.026422764227641 17.53048780487805,11.077235772357723 17.428861788617887,11.178861788617885 17.428861788617887,11.229674796747966 17.327235772357724,11.432926829268293 17.276422764227643,11.534552845528456 17.276422764227643,11.636178861788618 17.225609756097562,11.737804878048781 17.225609756097562,11.839430894308943 17.17479674796748,12.042682926829269 17.17479674796748,12.144308943089431 17.1239837398374,12.296747967479675 17.1239837398374,12.5 17.1239837398374,12.754065040650406 17.1239837398374,13.008130081300813 17.1239837398374,13.262195121951219 17.1239837398374,13.414634146341463 17.1239837398374,13.516260162601625 17.1239837398374,13.770325203252032 17.1239837398374,13.871951219512194 17.1239837398374,13.922764227642276 17.17479674796748,14.024390243902438 17.17479674796748,14.07520325203252 17.17479674796748,14.1260162601626 17.17479674796748,14.176829268292682 17.225609756097562,14.176829268292682 17.225609756097562,14.278455284552845 17.225609756097562,14.278455284552845 17.276422764227643,14.380081300813007 17.327235772357724,14.48170731707317 17.378048780487806,14.53252032520325 17.479674796747968,14.634146341463413 17.53048780487805,14.684959349593496 17.632113821138212,14.786585365853659 17.733739837398375,14.83739837398374" fill="none" stroke="black" stroke-width="0.6"></polyline><polyline points="17.733739837398375,14.83739837398374 17.835365853658537,14.888211382113822 17.9369918699187,14.939024390243903 18.038617886178862,14.989837398373984 18.191056910569106,15.040650406504065 18.29268292682927,15.040650406504065 18.34349593495935,15.091463414634147 18.445121951219512,15.091463414634147 18.546747967479675,15.091463414634147 18.648373983739837,15.091463414634147 18.80081300813008,15.091463414634147 18.902439024390244,15.091463414634147 19.004065040650406,15.091463414634147 19.15650406504065,15.091463414634147 19.308943089430894,15.091463414634147 19.461382113821138,15.091463414634147 19.664634146341463,15.040650406504065 19.867886178861788,15.040650406504065 20.071138211382113,14.939024390243903 20.3760162601626,14.888211382113822 20.630081300813007,14.83739837398374 20.884146341463413,14.735772357723578 21.08739837398374,14.684959349593496 21.290650406504064,14.634146341463413 21.443089430894307,14.583333333333332 21.54471544715447,14.53252032520325 21.54471544715447,14.53252032520325 21.59552845528455,14.53252032520325 21.646341463414632,14.53252032520325 21.646341463414632,14.48170731707317 21.646341463414632,14.48170731707317 21.646341463414632,14.48170731707317 21.646341463414632,14.48170731707317 21.646341463414632,14.48170731707317 21.646341463414632,14.48170731707317 21.646341463414632,14.48170731707317 21.646341463414632,14.48170731707317 21.646341463414632,14.48170731707317 21.646341463414632,14.48170731707317 21.646341463414632,14.48170731707317 21.646341463414632,14.430894308943088 21.646341463414632,14.430894308943088 21.646341463414632,14.430894308943088 21.646341463414632,14.430894308943088 21.646341463414632,14.430894308943088 21.646341463414632,14.430894308943088 21.59552845528455,14.430894308943088 21.59552845528455,14.430894308943088 21.59552845528455,14.430894308943088 21.59552845528455,14.430894308943088 21.59552845528455,14.430894308943088" fill="none" stroke="black" stroke-width="0.6"></polyline><polyline points="21.59552845528455,14.430894308943088 21.59552845528455,14.430894308943088 21.59552845528455,14.430894308943088 21.59552845528455,14.430894308943088 21.59552845528455,14.430894308943088 21.59552845528455,14.430894308943088 21.59552845528455,14.430894308943088 21.59552845528455,14.380081300813007 21.59552845528455,14.380081300813007 21.54471544715447,14.380081300813007 21.54471544715447,14.329268292682926 21.54471544715447,14.329268292682926" fill="none" stroke="black" stroke-width="0.6"></polyline><polyline points="8.689024390243903,35.36585365853659 8.689024390243903,35.416666666666664 8.638211382113822,35.46747967479675 8.58739837398374,35.51829268292683 8.536585365853659,35.56910569105691 8.485772357723578,35.56910569105691 8.485772357723578,35.61991869918699 8.485772357723578,35.61991869918699 8.434959349593496,35.670731707317074 8.434959349593496,35.670731707317074 8.434959349593496,35.670731707317074 8.434959349593496,35.72154471544715 8.434959349593496,35.72154471544715 8.485772357723578,35.72154471544715 8.536585365853659,35.72154471544715 8.536585365853659,35.72154471544715 8.638211382113822,35.72154471544715 8.689024390243903,35.72154471544715 8.739837398373984,35.670731707317074 8.790650406504065,35.670731707317074 8.841463414634147,35.61991869918699 8.99390243902439,35.46747967479675 9.095528455284553,35.36585365853659 9.247967479674797,35.21341463414634 9.502032520325203,34.857723577235774 9.654471544715447,34.65447154471545 10.010162601626016,34.197154471544714 10.315040650406504,33.6890243902439 10.518292682926829,33.4349593495935 10.670731707317072,33.18089430894309 10.924796747967479,32.77439024390244 11.128048780487804,32.418699186991866 11.331300813008129,32.0630081300813 11.483739837398375,31.70731707317073 11.6869918699187,31.402439024390244 11.890243902439025,30.995934959349594 12.042682926829269,30.79268292682927 12.144308943089431,30.589430894308943 12.347560975609756,30.182926829268293 12.550813008130081,29.725609756097562 12.652439024390244,29.369918699186993 12.804878048780488,28.96341463414634 13.008130081300813,28.55691056910569 13.160569105691057,28.20121951219512 13.3130081300813,27.896341463414632 13.414634146341463,27.489837398373982 13.567073170731707,27.184959349593495 13.66869918699187,26.880081300813007 13.821138211382113,26.57520325203252 13.871951219512194,26.422764227642276 13.922764227642276,26.21951219512195" fill="none" stroke="black" stroke-width="0.6"></polyline><polyline points="13.922764227642276,26.21951219512195 14.024390243902438,25.914634146341463 14.07520325203252,25.711382113821138 14.1260162601626,25.609756097560975 14.176829268292682,25.304878048780488 14.227642276422763,25.203252032520325 14.278455284552845,24.898373983739837 14.278455284552845,24.745934959349594 14.329268292682926,24.64430894308943 14.329268292682926,24.59349593495935 14.329268292682926,24.441056910569106 14.380081300813007,24.390243902439025 14.380081300813007,24.288617886178862 14.380081300813007,24.23780487804878 14.380081300813007,24.1869918699187 14.380081300813007,24.13617886178862 14.380081300813007,24.034552845528456 14.380081300813007,23.983739837398375 14.380081300813007,23.932926829268293 14.380081300813007,23.882113821138212 14.380081300813007,23.83130081300813 14.329268292682926,23.729674796747968 14.329268292682926,23.628048780487806 14.278455284552845,23.577235772357724 14.278455284552845,23.526422764227643 14.278455284552845,23.475609756097562 14.278455284552845,23.42479674796748 14.227642276422763,23.3739837398374 14.227642276422763,23.323170731707318 14.176829268292682,23.323170731707318 14.176829268292682,23.272357723577237 14.176829268292682,23.221544715447155 14.1260162601626,23.221544715447155 14.1260162601626,23.170731707317074 14.07520325203252,23.119918699186993 14.07520325203252,23.119918699186993 14.07520325203252,23.119918699186993 14.024390243902438,23.119918699186993 14.024390243902438,23.06910569105691 13.973577235772357,23.06910569105691 13.922764227642276,23.06910569105691 13.922764227642276,23.01829268292683 13.871951219512194,23.01829268292683 13.821138211382113,23.01829268292683 13.821138211382113,23.01829268292683 13.770325203252032,23.01829268292683 13.770325203252032,23.01829268292683 13.71951219512195,23.01829268292683 13.66869918699187,23.01829268292683 13.66869918699187,23.01829268292683 13.617886178861788,23.01829268292683" fill="none" stroke="black" stroke-width="0.6"></polyline><polyline points="13.617886178861788,23.01829268292683 13.567073170731707,23.01829268292683 13.567073170731707,23.01829268292683 13.516260162601625,23.06910569105691 13.465447154471544,23.06910569105691 13.414634146341463,23.119918699186993 13.363821138211382,23.170731707317074 13.3130081300813,23.221544715447155 13.262195121951219,23.272357723577237 13.109756097560975,23.42479674796748 13.008130081300813,23.577235772357724 12.90650406504065,23.678861788617887 12.855691056910569,23.78048780487805 12.754065040650406,23.882113821138212 12.601626016260163,24.13617886178862 12.449186991869919,24.390243902439025 12.245934959349594,24.64430894308943 12.144308943089431,24.847560975609756 11.991869918699187,25.101626016260163 11.890243902439025,25.304878048780488 11.788617886178862,25.508130081300813 11.737804878048781,25.711382113821138 11.636178861788618,26.016260162601625 11.585365853658537,26.117886178861788 11.585365853658537,26.21951219512195 11.534552845528456,26.422764227642276 11.483739837398375,26.524390243902438 11.483739837398375,26.6260162601626 11.432926829268293,26.727642276422763 11.432926829268293,26.93089430894309 11.432926829268293,27.184959349593495 11.432926829268293,27.235772357723576 11.432926829268293,27.33739837398374 11.432926829268293,27.540650406504064 11.432926829268293,27.642276422764226 11.432926829268293,27.79471544715447 11.432926829268293,27.997967479674795 11.483739837398375,28.099593495934958 11.483739837398375,28.20121951219512 11.483739837398375,28.353658536585364 11.534552845528456,28.455284552845526 11.534552845528456,28.55691056910569 11.585365853658537,28.65853658536585 11.636178861788618,28.912601626016258 11.6869918699187,29.166666666666664 11.6869918699187,29.268292682926827 11.737804878048781,29.369918699186993 11.737804878048781,29.471544715447155 11.788617886178862,29.725609756097562 11.839430894308943,29.979674796747968 11.890243902439025,30.182926829268293" fill="none" stroke="black" stroke-width="0.6"></polyline><polyline points="11.890243902439025,30.182926829268293 11.941056910569106,30.4369918699187 11.941056910569106,30.640243902439025 11.991869918699187,30.84349593495935 12.042682926829269,31.097560975609756 12.09349593495935,31.25 12.09349593495935,31.351626016260163 12.144308943089431,31.453252032520325 12.144308943089431,31.504065040650406 12.144308943089431,31.60569105691057 12.195121951219512,31.70731707317073 12.195121951219512,31.808943089430894 12.296747967479675,32.0630081300813 12.347560975609756,32.16463414634146 12.347560975609756,32.266260162601625 12.449186991869919,32.46951219512195 12.449186991869919,32.52032520325203 12.550813008130081,32.77439024390244 12.601626016260163,32.926829268292686 12.652439024390244,33.02845528455285 12.703252032520325,33.13008130081301 12.703252032520325,33.18089430894309 12.804878048780488,33.333333333333336 12.855691056910569,33.485772357723576 12.90650406504065,33.53658536585366 12.90650406504065,33.58739837398374 12.957317073170731,33.63821138211382 13.008130081300813,33.6890243902439 13.058943089430894,33.739837398373986 13.109756097560975,33.790650406504064 13.160569105691057,33.84146341463415 13.262195121951219,33.94308943089431 13.3130081300813,33.99390243902439 13.363821138211382,33.99390243902439 13.414634146341463,34.04471544715447 13.516260162601625,34.09552845528455 13.567073170731707,34.09552845528455 13.66869918699187,34.146341463414636 13.71951219512195,34.146341463414636 13.871951219512194,34.197154471544714 13.922764227642276,34.197154471544714 14.024390243902438,34.2479674796748 14.176829268292682,34.2479674796748 14.278455284552845,34.2479674796748 14.380081300813007,34.2479674796748 14.583333333333332,34.298780487804876 14.634146341463413,34.298780487804876 14.735772357723578,34.298780487804876 14.939024390243903,34.298780487804876 15.040650406504065,34.298780487804876 15.19308943089431,34.298780487804876" fill="none" stroke="black" stroke-width="0.6"></polyline><polyline points="15.19308943089431,34.298780487804876 15.396341463414634,34.298780487804876 15.497967479674797,34.298780487804876 15.548780487804878,34.298780487804876 15.701219512195122,34.298780487804876 15.752032520325203,34.298780487804876 16.006097560975608,34.298780487804876 16.05691056910569,34.2479674796748 16.15853658536585,34.2479674796748 16.260162601626014,34.197154471544714 16.463414634146343,34.146341463414636 16.565040650406505,34.09552845528455 16.666666666666668,34.09552845528455 16.76829268292683,34.04471544715447 16.920731707317074,33.99390243902439 17.022357723577237,33.94308943089431 17.225609756097562,33.84146341463415 17.428861788617887,33.739837398373986 17.682926829268293,33.63821138211382 17.88617886178862,33.53658536585366 18.140243902439025,33.38414634146341 18.241869918699187,33.333333333333336 18.34349593495935,33.28252032520325 18.546747967479675,33.18089430894309 18.75,33.079268292682926 18.953252032520325,32.926829268292686 19.15650406504065,32.82520325203252 19.359756097560975,32.6219512195122 19.61382113821138,32.418699186991866 19.867886178861788,32.266260162601625 19.96951219512195,32.16463414634146 20.071138211382113,32.11382113821138 20.121951219512194,32.012195121951216 20.223577235772357,31.910569105691057 20.3760162601626,31.808943089430894 20.477642276422763,31.65650406504065 20.579268292682926,31.554878048780488 20.630081300813007,31.504065040650406 20.68089430894309,31.453252032520325 20.73170731707317,31.351626016260163 20.78252032520325,31.19918699186992 20.78252032520325,31.097560975609756 20.833333333333332,30.995934959349594 20.833333333333332,30.84349593495935 20.833333333333332,30.741869918699187 20.833333333333332,30.640243902439025 20.833333333333332,30.589430894308943 20.78252032520325,30.48780487804878 20.78252032520325,30.4369918699187 20.73170731707317,30.38617886178862 20.73170731707317,30.335365853658537" fill="none" stroke="black" stroke-width="0.6"></polyline><polyline points="20.73170731707317,30.335365853658537 20.630081300813007,30.233739837398375 20.579268292682926,30.132113821138212 20.477642276422763,30.03048780487805 20.3760162601626,29.928861788617887 20.223577235772357,29.878048780487806 20.121951219512194,29.776422764227643 19.96951219512195,29.67479674796748 19.817073170731707,29.6239837398374 19.664634146341463,29.573170731707318 19.461382113821138,29.573170731707318 19.308943089430894,29.573170731707318 19.10569105691057,29.573170731707318 18.953252032520325,29.573170731707318 18.851626016260163,29.6239837398374 18.80081300813008,29.6239837398374 18.75,29.67479674796748 18.648373983739837,29.67479674796748 18.597560975609756,29.725609756097562 18.546747967479675,29.776422764227643 18.495934959349594,29.827235772357724 18.39430894308943,29.928861788617887 18.34349593495935,29.979674796747968 18.29268292682927,30.03048780487805 18.241869918699187,30.08130081300813 18.140243902439025,30.182926829268293 18.038617886178862,30.335365853658537 18.038617886178862,30.38617886178862 17.9369918699187,30.538617886178862 17.88617886178862,30.741869918699187 17.88617886178862,30.945121951219512 17.835365853658537,31.046747967479675 17.835365853658537,31.148373983739837 17.835365853658537,31.30081300813008 17.835365853658537,31.402439024390244 17.835365853658537,31.65650406504065 17.835365853658537,31.859756097560975 17.835365853658537,32.11382113821138 17.88617886178862,32.36788617886179 17.9369918699187,32.57113821138211 17.98780487804878,32.77439024390244 18.038617886178862,32.97764227642276 18.140243902439025,33.13008130081301 18.191056910569106,33.28252032520325 18.241869918699187,33.38414634146341 18.241869918699187,33.4349593495935 18.29268292682927,33.485772357723576 18.34349593495935,33.53658536585366 18.39430894308943,33.63821138211382 18.445121951219512,33.739837398373986 18.495934959349594,33.790650406504064" fill="none" stroke="black" stroke-width="0.6"></polyline><polyline points="18.495934959349594,33.790650406504064 18.597560975609756,33.892276422764226 18.69918699186992,33.99390243902439 18.80081300813008,34.04471544715447 18.851626016260163,34.09552845528455 18.902439024390244,34.146341463414636 19.004065040650406,34.197154471544714 19.054878048780488,34.2479674796748 19.15650406504065,34.298780487804876 19.258130081300813,34.34959349593496 19.410569105691057,34.40040650406504 19.5630081300813,34.40040650406504 19.766260162601625,34.40040650406504 19.96951219512195,34.40040650406504 20.071138211382113,34.40040650406504 20.223577235772357,34.40040650406504 20.32520325203252,34.40040650406504 20.528455284552845,34.34959349593496 20.630081300813007,34.34959349593496 20.73170731707317,34.298780487804876 20.934959349593495,34.2479674796748 21.036585365853657,34.2479674796748 21.1890243902439,34.197154471544714 21.341463414634145,34.09552845528455 21.59552845528455,33.99390243902439 21.798780487804876,33.892276422764226 22.052845528455283,33.790650406504064 22.30691056910569,33.6890243902439 22.510162601626014,33.58739837398374 22.71341463414634,33.485772357723576 22.815040650406505,33.4349593495935 22.916666666666668,33.38414634146341 22.96747967479675,33.333333333333336 23.06910569105691,33.28252032520325 23.119918699186993,33.23170731707317 23.170731707317074,33.23170731707317 23.221544715447155,33.18089430894309 23.272357723577237,33.13008130081301 23.272357723577237,33.13008130081301 23.272357723577237,33.079268292682926 23.272357723577237,33.079268292682926 23.272357723577237,33.079268292682926 23.272357723577237,33.079268292682926 23.272357723577237,33.079268292682926 23.272357723577237,33.02845528455285 23.272357723577237,33.02845528455285 23.272357723577237,33.02845528455285 23.272357723577237,33.02845528455285 23.272357723577237,33.02845528455285 23.272357723577237,32.97764227642276 23.272357723577237,32.97764227642276" fill="none" stroke="black" stroke-width="0.6"></polyline><polyline points="23.272357723577237,32.97764227642276 23.221544715447155,32.97764227642276 23.221544715447155,32.97764227642276 23.221544715447155,32.97764227642276 23.221544715447155,32.926829268292686 23.221544715447155,32.926829268292686 23.221544715447155,32.926829268292686" fill="none" stroke="black" stroke-width="0.6"></polyline><polyline points="8.231707317073171,55.4369918699187 8.231707317073171,55.48780487804878 8.231707317073171,55.48780487804878 8.18089430894309,55.48780487804878 8.18089430894309,55.53861788617886 8.18089430894309,55.53861788617886 8.18089430894309,55.58943089430894 8.18089430894309,55.58943089430894 8.18089430894309,55.58943089430894 8.18089430894309,55.640243902439025 8.231707317073171,55.640243902439025 8.231707317073171,55.640243902439025 8.333333333333334,55.6910569105691 8.384146341463415,55.6910569105691 8.536585365853659,55.6910569105691 8.689024390243903,55.6910569105691 8.841463414634147,55.640243902439025 9.095528455284553,55.48780487804878 9.247967479674797,55.386178861788615 9.451219512195122,55.233739837398375 9.80691056910569,54.827235772357724 10.264227642276422,54.36991869918699 10.721544715447154,53.760162601626014 10.97560975609756,53.45528455284553 11.178861788617885,53.201219512195124 11.585365853658537,52.59146341463415 11.991869918699187,52.03252032520325 12.449186991869919,51.422764227642276 12.90650406504065,50.8130081300813 13.262195121951219,50.355691056910565 13.414634146341463,50.10162601626016 13.516260162601625,49.84756097560975 13.770325203252032,49.390243902439025 14.024390243902438,48.93292682926829 14.1260162601626,48.729674796747965 14.176829268292682,48.47560975609756 14.278455284552845,48.22154471544715 14.380081300813007,48.01829268292683 14.430894308943088,47.764227642276424 14.53252032520325,47.510162601626014 14.634146341463413,47.0020325203252 14.786585365853659,46.49390243902439 14.83739837398374,46.239837398373986 14.888211382113822,46.03658536585366 14.989837398373984,45.68089430894309 15.040650406504065,45.3760162601626 15.040650406504065,45.12195121951219 15.040650406504065,44.86788617886179 15.040650406504065,44.66463414634146 15.040650406504065,44.46138211382114 14.989837398373984,44.30894308943089" fill="none" stroke="black" stroke-width="0.6"></polyline><polyline points="14.989837398373984,44.30894308943089 14.939024390243903,44.05487804878049 14.888211382113822,43.953252032520325 14.888211382113822,43.85162601626016 14.83739837398374,43.75 14.786585365853659,43.64837398373984 14.735772357723578,43.59756097560975 14.684959349593496,43.49593495934959 14.583333333333332,43.39430894308943 14.53252032520325,43.24186991869919 14.430894308943088,43.1910569105691 14.329268292682926,43.140243902439025 14.278455284552845,43.08943089430894 14.176829268292682,43.08943089430894 14.1260162601626,43.08943089430894 14.1260162601626,43.08943089430894 14.07520325203252,43.08943089430894 14.07520325203252,43.08943089430894 14.024390243902438,43.08943089430894 13.973577235772357,43.08943089430894 13.973577235772357,43.08943089430894 13.922764227642276,43.08943089430894 13.871951219512194,43.140243902439025 13.821138211382113,43.140243902439025 13.770325203252032,43.1910569105691 13.71951219512195,43.24186991869919 13.66869918699187,43.292682926829265 13.516260162601625,43.39430894308943 13.414634146341463,43.49593495934959 13.262195121951219,43.64837398373984 13.109756097560975,43.85162601626016 12.90650406504065,44.105691056910565 12.804878048780488,44.30894308943089 12.703252032520325,44.41056910569105 12.5,44.8170731707317 12.449186991869919,45.12195121951219 12.347560975609756,45.47764227642276 12.245934959349594,45.88414634146341 12.195121951219512,46.239837398373986 12.144308943089431,46.646341463414636 12.042682926829269,47.052845528455286 12.042682926829269,47.40853658536585 11.991869918699187,47.764227642276424 11.991869918699187,48.170731707317074 11.941056910569106,48.47560975609756 11.941056910569106,48.78048780487805 11.941056910569106,48.93292682926829 11.941056910569106,49.08536585365854 11.941056910569106,49.33943089430894 11.941056910569106,49.59349593495935 11.941056910569106,49.69512195121951" fill="none" stroke="black" stroke-width="0.6"></polyline><polyline points="11.941056910569106,49.69512195121951 11.941056910569106,49.84756097560975 11.941056910569106,50.05081300813008 11.941056910569106,50.2540650406504 11.941056910569106,50.355691056910565 11.941056910569106,50.45731707317073 11.941056910569106,50.66056910569105 11.941056910569106,50.8130081300813 11.941056910569106,51.016260162601625 11.941056910569106,51.0670731707317 11.941056910569106,51.168699186991866 11.941056910569106,51.21951219512195 11.941056910569106,51.27032520325203 11.941056910569106,51.422764227642276 11.991869918699187,51.575203252032516 11.991869918699187,51.67682926829268 12.042682926829269,51.829268292682926 12.042682926829269,51.981707317073166 12.09349593495935,52.03252032520325 12.09349593495935,52.13414634146341 12.09349593495935,52.1849593495935 12.144308943089431,52.28658536585366 12.195121951219512,52.4390243902439 12.195121951219512,52.489837398373986 12.195121951219512,52.59146341463415 12.245934959349594,52.74390243902439 12.296747967479675,52.79471544715447 12.296747967479675,52.84552845528455 12.347560975609756,52.9979674796748 12.398373983739837,53.09959349593496 12.449186991869919,53.201219512195124 12.5,53.2520325203252 12.601626016260163,53.353658536585364 12.652439024390244,53.45528455284553 12.703252032520325,53.55691056910569 12.804878048780488,53.65853658536585 12.804878048780488,53.65853658536585 12.855691056910569,53.709349593495936 12.90650406504065,53.8109756097561 13.008130081300813,53.91260162601626 13.058943089430894,53.96341463414634 13.109756097560975,54.014227642276424 13.160569105691057,54.0650406504065 13.211382113821138,54.11585365853659 13.3130081300813,54.166666666666664 13.363821138211382,54.21747967479675 13.414634146341463,54.26829268292683 13.465447154471544,54.26829268292683 13.516260162601625,54.31910569105691 13.567073170731707,54.31910569105691 13.567073170731707,54.31910569105691" fill="none" stroke="black" stroke-width="0.6"></polyline><polyline points="13.567073170731707,54.31910569105691 13.617886178861788,54.36991869918699 13.66869918699187,54.36991869918699 13.770325203252032,54.36991869918699 13.821138211382113,54.420731707317074 13.871951219512194,54.420731707317074 13.973577235772357,54.420731707317074 14.024390243902438,54.47154471544715 14.07520325203252,54.47154471544715 14.1260162601626,54.47154471544715 14.176829268292682,54.47154471544715 14.227642276422763,54.47154471544715 14.278455284552845,54.47154471544715 14.278455284552845,54.47154471544715 14.430894308943088,54.47154471544715 14.53252032520325,54.47154471544715 14.634146341463413,54.47154471544715 14.786585365853659,54.47154471544715 14.939024390243903,54.47154471544715 15.040650406504065,54.420731707317074 15.19308943089431,54.420731707317074 15.345528455284553,54.36991869918699 15.497967479674797,54.31910569105691 15.65040650406504,54.26829268292683 15.853658536585366,54.166666666666664 16.05691056910569,54.11585365853659 16.260162601626014,54.014227642276424 16.514227642276424,53.86178861788618 16.71747967479675,53.760162601626014 16.971544715447155,53.607723577235774 17.022357723577237,53.55691056910569 17.1239837398374,53.50609756097561 17.327235772357724,53.40447154471545 17.479674796747968,53.2520325203252 17.632113821138212,53.15040650406504 17.733739837398375,53.048780487804876 17.835365853658537,52.947154471544714 17.88617886178862,52.84552845528455 17.98780487804878,52.79471544715447 18.038617886178862,52.69308943089431 18.140243902439025,52.59146341463415 18.191056910569106,52.489837398373986 18.29268292682927,52.38821138211382 18.39430894308943,52.28658536585366 18.495934959349594,52.13414634146341 18.648373983739837,51.880081300813 18.75,51.72764227642276 18.851626016260163,51.575203252032516 19.004065040650406,51.37195121951219 19.054878048780488,51.21951219512195 19.15650406504065,51.016260162601625" fill="none" stroke="black" stroke-width="0.6"></polyline><polyline points="19.15650406504065,51.016260162601625 19.258130081300813,50.86382113821138 19.308943089430894,50.71138211382114 19.308943089430894,50.55894308943089 19.359756097560975,50.45731707317073 19.359756097560975,50.40650406504065 19.359756097560975,50.355691056910565 19.359756097560975,50.2540650406504 19.359756097560975,50.203252032520325 19.308943089430894,50.15243902439024 19.308943089430894,50.10162601626016 19.258130081300813,50.05081300813008 19.258130081300813,50 19.20731707317073,49.949186991869915 19.15650406504065,49.84756097560975 19.10569105691057,49.796747967479675 19.10569105691057,49.74593495934959 19.004065040650406,49.64430894308943 18.902439024390244,49.59349593495935 18.851626016260163,49.49186991869919 18.75,49.4410569105691 18.648373983739837,49.390243902439025 18.546747967479675,49.33943089430894 18.495934959349594,49.33943089430894 18.445121951219512,49.33943089430894 18.34349593495935,49.33943089430894 18.29268292682927,49.33943089430894 18.191056910569106,49.33943089430894 18.089430894308943,49.4410569105691 18.038617886178862,49.542682926829265 17.88617886178862,49.64430894308943 17.784552845528456,49.84756097560975 17.632113821138212,50 17.479674796747968,50.2540650406504 17.327235772357724,50.45731707317073 17.17479674796748,50.762195121951216 16.971544715447155,51.0670731707317 16.869918699186993,51.37195121951219 16.76829268292683,51.67682926829268 16.71747967479675,51.981707317073166 16.71747967479675,52.1849593495935 16.666666666666668,52.4390243902439 16.666666666666668,52.59146341463415 16.71747967479675,52.79471544715447 16.71747967479675,52.947154471544714 16.81910569105691,53.09959349593496 16.869918699186993,53.201219512195124 16.971544715447155,53.353658536585364 17.073170731707318,53.50609756097561 17.17479674796748,53.607723577235774 17.327235772357724,53.760162601626014" fill="none" stroke="black" stroke-width="0.6"></polyline><polyline points="17.327235772357724,53.760162601626014 17.428861788617887,53.86178861788618 17.632113821138212,53.91260162601626 17.835365853658537,54.014227642276424 18.038617886178862,54.0650406504065 18.29268292682927,54.11585365853659 18.597560975609756,54.11585365853659 18.902439024390244,54.11585365853659 19.258130081300813,54.014227642276424 19.664634146341463,53.91260162601626 19.96951219512195,53.8109756097561 20.223577235772357,53.760162601626014 20.3760162601626,53.709349593495936 20.528455284552845,53.709349593495936 20.68089430894309,53.65853658536585 20.934959349593495,53.55691056910569 21.239837398373982,53.45528455284553 21.59552845528455,53.302845528455286 21.90040650406504,53.15040650406504 22.205284552845526,52.9979674796748 22.459349593495933,52.84552845528455 22.71341463414634,52.69308943089431 22.916666666666668,52.59146341463415 23.01829268292683,52.540650406504064 23.119918699186993,52.489837398373986 23.170731707317074,52.4390243902439 23.170731707317074,52.4390243902439 23.170731707317074,52.4390243902439 23.170731707317074,52.4390243902439 23.170731707317074,52.4390243902439 23.170731707317074,52.4390243902439 23.170731707317074,52.4390243902439 23.170731707317074,52.4390243902439 23.170731707317074,52.4390243902439 23.119918699186993,52.4390243902439 23.119918699186993,52.4390243902439 23.119918699186993,52.4390243902439 23.01829268292683,52.489837398373986 22.916666666666668,52.540650406504064" fill="none" stroke="black" stroke-width="0.6"></polyline><polyline points="8.333333333333334,73.8821138211382 8.333333333333334,73.8821138211382 8.282520325203253,73.83130081300813 8.282520325203253,73.83130081300813 8.231707317073171,73.78048780487805 8.18089430894309,73.72967479674797 8.18089430894309,73.72967479674797 8.130081300813007,73.67886178861788 8.079268292682926,73.67886178861788 8.028455284552845,73.67886178861788 8.028455284552845,73.6280487804878 8.028455284552845,73.6280487804878 7.977642276422764,73.6280487804878 7.977642276422764,73.6280487804878 7.977642276422764,73.6280487804878 7.977642276422764,73.6280487804878 7.977642276422764,73.6280487804878 7.977642276422764,73.6280487804878 7.977642276422764,73.67886178861788 8.028455284552845,73.72967479674797 8.079268292682926,73.72967479674797 8.130081300813007,73.78048780487805 8.231707317073171,73.8821138211382 8.384146341463415,73.9329268292683 8.58739837398374,73.98373983739837 8.790650406504065,73.98373983739837 9.044715447154472,74.03455284552845 9.247967479674797,74.03455284552845 9.552845528455284,73.8821138211382 9.959349593495935,73.67886178861788 10.365853658536585,73.3739837398374 10.56910569105691,73.17073170731707 10.772357723577235,72.96747967479675 11.128048780487804,72.5609756097561 11.229674796747966,72.35772357723577 11.483739837398375,72.05284552845528 11.6869918699187,71.69715447154472 11.890243902439025,71.34146341463415 12.195121951219512,70.83333333333333 12.601626016260163,70.27439024390243 12.90650406504065,69.76626016260163 13.211382113821138,69.15650406504065 13.567073170731707,68.54674796747967 13.821138211382113,67.98780487804878 14.07520325203252,67.42886178861788 14.176829268292682,67.17479674796748 14.329268292682926,66.869918699187 14.48170731707317,66.41260162601625 14.684959349593496,66.0060975609756 14.888211382113822,65.54878048780488 15.040650406504065,65.14227642276423" fill="none" stroke="black" stroke-width="0.6"></polyline><polyline points="15.040650406504065,65.14227642276423 15.19308943089431,64.73577235772358 15.24390243902439,64.43089430894308 15.294715447154472,64.22764227642276 15.294715447154472,63.97357723577235 15.345528455284553,63.668699186991866 15.345528455284553,63.41463414634146 15.345528455284553,63.21138211382114 15.345528455284553,62.95731707317073 15.345528455284553,62.7540650406504 15.345528455284553,62.55081300813008 15.294715447154472,62.39837398373984 15.294715447154472,62.296747967479675 15.24390243902439,62.19512195121951 15.19308943089431,62.14430894308943 15.142276422764228,62.09349593495935 15.091463414634147,62.09349593495935 15.040650406504065,62.09349593495935 14.989837398373984,62.042682926829265 14.939024390243903,62.042682926829265 14.888211382113822,62.042682926829265 14.888211382113822,62.042682926829265 14.83739837398374,62.042682926829265 14.83739837398374,62.042682926829265 14.786585365853659,62.042682926829265 14.735772357723578,62.042682926829265 14.684959349593496,62.042682926829265 14.583333333333332,62.14430894308943 14.48170731707317,62.296747967479675 14.329268292682926,62.55081300813008 14.07520325203252,62.90650406504065 13.871951219512194,63.3130081300813 13.66869918699187,63.668699186991866 13.465447154471544,64.1260162601626 13.414634146341463,64.32926829268293 13.3130081300813,64.53252032520325 13.160569105691057,64.98983739837398 13.058943089430894,65.34552845528455 13.008130081300813,65.70121951219512 12.957317073170731,66.10772357723577 12.90650406504065,66.20934959349593 12.90650406504065,66.36178861788618 12.90650406504065,66.66666666666667 12.855691056910569,67.02235772357723 12.855691056910569,67.32723577235772 12.855691056910569,67.58130081300813 12.855691056910569,67.88617886178862 12.855691056910569,68.14024390243902 12.855691056910569,68.34349593495935 12.855691056910569,68.59756097560975 12.90650406504065,68.85162601626016" fill="none" stroke="black" stroke-width="0.6"></polyline><polyline points="12.90650406504065,68.85162601626016 12.90650406504065,69.10569105691057 12.957317073170731,69.35975609756098 12.957317073170731,69.61382113821138 12.957317073170731,69.8170731707317 13.008130081300813,70.0711382113821 13.008130081300813,70.22357723577235 13.008130081300813,70.42682926829268 13.058943089430894,70.68089430894308 13.058943089430894,70.8841463414634 13.058943089430894,71.13821138211382 13.109756097560975,71.23983739837398 13.109756097560975,71.39227642276423 13.109756097560975,71.59552845528455 13.160569105691057,71.79878048780488 13.211382113821138,72.0020325203252 13.262195121951219,72.15447154471545 13.3130081300813,72.3069105691057 13.414634146341463,72.45934959349593 13.465447154471544,72.61178861788618 13.516260162601625,72.71341463414635 13.567073170731707,72.8150406504065 13.66869918699187,72.91666666666667 13.71951219512195,73.01829268292683 13.821138211382113,73.119918699187 13.922764227642276,73.22154471544715 14.024390243902438,73.32317073170732 14.1260162601626,73.3739837398374 14.227642276422763,73.42479674796748 14.329268292682926,73.52642276422765 14.430894308943088,73.52642276422765 14.48170731707317,73.57723577235772 14.634146341463413,73.6280487804878 14.735772357723578,73.6280487804878 14.888211382113822,73.67886178861788 15.040650406504065,73.67886178861788 15.19308943089431,73.72967479674797 15.396341463414634,73.72967479674797 15.548780487804878,73.72967479674797 15.701219512195122,73.72967479674797 15.904471544715447,73.72967479674797 16.006097560975608,73.72967479674797 16.10772357723577,73.67886178861788 16.209349593495933,73.67886178861788 16.41260162601626,73.6280487804878 16.514227642276424,73.57723577235772 16.666666666666668,73.52642276422765 16.869918699186993,73.42479674796748 17.073170731707318,73.32317073170732 17.276422764227643,73.22154471544715 17.479674796747968,73.119918699187" fill="none" stroke="black" stroke-width="0.6"></polyline><polyline points="17.479674796747968,73.119918699187 17.682926829268293,72.96747967479675 17.88617886178862,72.86585365853658 17.98780487804878,72.76422764227642 18.089430894308943,72.71341463414635 18.34349593495935,72.51016260162602 18.546747967479675,72.35772357723577 18.648373983739837,72.2560975609756 18.75,72.20528455284553 18.902439024390244,72.0020325203252 19.054878048780488,71.79878048780488 19.20731707317073,71.59552845528455 19.308943089430894,71.4430894308943 19.410569105691057,71.23983739837398 19.461382113821138,71.03658536585365 19.461382113821138,70.8841463414634 19.51219512195122,70.68089430894308 19.51219512195122,70.52845528455285 19.51219512195122,70.42682926829268 19.461382113821138,70.27439024390243 19.410569105691057,70.1219512195122 19.359756097560975,70.02032520325203 19.258130081300813,69.91869918699187 19.15650406504065,69.76626016260163 19.15650406504065,69.71544715447155 19.10569105691057,69.66463414634146 19.004065040650406,69.61382113821138 18.902439024390244,69.5630081300813 18.851626016260163,69.51219512195122 18.75,69.51219512195122 18.69918699186992,69.51219512195122 18.597560975609756,69.51219512195122 18.546747967479675,69.51219512195122 18.445121951219512,69.5630081300813 18.29268292682927,69.66463414634146 18.140243902439025,69.8170731707317 17.98780487804878,69.96951219512195 17.835365853658537,70.1219512195122 17.682926829268293,70.32520325203252 17.53048780487805,70.47764227642276 17.428861788617887,70.68089430894308 17.378048780487806,70.83333333333333 17.276422764227643,71.03658536585365 17.276422764227643,71.13821138211382 17.225609756097562,71.1890243902439 17.225609756097562,71.39227642276423 17.225609756097562,71.59552845528455 17.225609756097562,71.79878048780488 17.276422764227643,72.0020325203252 17.378048780487806,72.20528455284553 17.479674796747968,72.35772357723577" fill="none" stroke="black" stroke-width="0.6"></polyline><polyline points="17.479674796747968,72.35772357723577 17.58130081300813,72.51016260162602 17.682926829268293,72.61178861788618 17.784552845528456,72.71341463414635 17.9369918699187,72.8150406504065 18.089430894308943,72.91666666666667 18.191056910569106,72.96747967479675 18.39430894308943,73.01829268292683 18.546747967479675,73.0691056910569 18.648373983739837,73.119918699187 18.75,73.119918699187 18.953252032520325,73.17073170731707 19.20731707317073,73.17073170731707 19.461382113821138,73.22154471544715 19.766260162601625,73.22154471544715 20.071138211382113,73.22154471544715 20.3760162601626,73.22154471544715 20.68089430894309,73.17073170731707 20.934959349593495,73.119918699187 21.1890243902439,73.0691056910569 21.443089430894307,73.01829268292683 21.798780487804876,72.91666666666667 22.103658536585364,72.8150406504065 22.40853658536585,72.71341463414635 22.560975609756095,72.61178861788618 22.71341463414634,72.5609756097561 23.01829268292683,72.40853658536585 23.323170731707318,72.2560975609756 23.628048780487806,72.10365853658537 23.729674796747968,72.0020325203252 23.882113821138212,71.90040650406505 24.034552845528456,71.84959349593495 24.1869918699187,71.7479674796748 24.339430894308943,71.64634146341463 24.54268292682927,71.49390243902438 24.64430894308943,71.39227642276423 24.796747967479675,71.29065040650406 24.847560975609756,71.23983739837398 24.898373983739837,71.1890243902439 24.94918699186992,71.13821138211382 24.94918699186992,71.13821138211382 24.94918699186992,71.08739837398373 24.94918699186992,71.08739837398373 24.94918699186992,71.08739837398373 24.94918699186992,71.08739837398373 24.94918699186992,71.08739837398373 24.94918699186992,71.08739837398373 24.94918699186992,71.08739837398373 24.94918699186992,71.08739837398373 24.94918699186992,71.08739837398373 24.94918699186992,71.08739837398373" fill="none" stroke="black" stroke-width="0.6"></polyline><polyline points="24.94918699186992,71.08739837398373 24.94918699186992,71.08739837398373 24.898373983739837,71.08739837398373 24.898373983739837,71.08739837398373 24.898373983739837,71.08739837398373 24.898373983739837,71.08739837398373 24.847560975609756,71.08739837398373" fill="none" stroke="black" stroke-width="0.6"></polyline><polyline points="7.876016260162602,95.42682926829268 7.876016260162602,95.42682926829268 7.82520325203252,95.47764227642276 7.774390243902439,95.47764227642276 7.774390243902439,95.47764227642276 7.723577235772358,95.47764227642276 7.723577235772358,95.47764227642276 7.723577235772358,95.47764227642276 7.723577235772358,95.47764227642276 7.723577235772358,95.47764227642276 7.723577235772358,95.47764227642276 7.723577235772358,95.47764227642276 7.774390243902439,95.47764227642276 7.82520325203252,95.47764227642276 7.876016260162602,95.47764227642276 7.977642276422764,95.47764227642276 8.130081300813007,95.47764227642276 8.282520325203253,95.47764227642276 8.485772357723578,95.42682926829268 8.739837398373984,95.27439024390243 8.99390243902439,95.0711382113821 9.34959349593496,94.71544715447155 9.75609756097561,94.2581300813008 10.16260162601626,93.75 10.518292682926829,93.24186991869918 10.873983739837398,92.6829268292683 11.178861788617885,92.22560975609755 11.483739837398375,91.71747967479675 11.788617886178862,91.26016260162602 12.042682926829269,90.80284552845528 12.347560975609756,90.34552845528455 12.601626016260163,89.83739837398373 12.90650406504065,89.32926829268293 13.160569105691057,88.77032520325203 13.363821138211382,88.21138211382113 13.516260162601625,87.70325203252033 13.71951219512195,87.14430894308943 13.821138211382113,86.58536585365853 13.871951219512194,86.22967479674797 13.922764227642276,85.77235772357723 14.024390243902438,85.26422764227642 14.07520325203252,84.85772357723577 14.1260162601626,84.55284552845528 14.1260162601626,84.1971544715447 14.1260162601626,83.9430894308943 14.1260162601626,83.73983739837398 14.1260162601626,83.53658536585365 14.07520325203252,83.3841463414634 14.024390243902438,83.23170731707317 13.973577235772357,83.130081300813 13.922764227642276,82.97764227642276" fill="none" stroke="black" stroke-width="0.6"></polyline><polyline points="13.922764227642276,82.97764227642276 13.871951219512194,82.82520325203252 13.770325203252032,82.6219512195122 13.71951219512195,82.46951219512195 13.66869918699187,82.36788617886178 13.617886178861788,82.26626016260163 13.567073170731707,82.21544715447155 13.516260162601625,82.11382113821138 13.465447154471544,82.0630081300813 13.414634146341463,81.96138211382113 13.363821138211382,81.91056910569105 13.363821138211382,81.91056910569105 13.3130081300813,81.85975609756098 13.262195121951219,81.85975609756098 13.262195121951219,81.85975609756098 13.262195121951219,81.8089430894309 13.211382113821138,81.8089430894309 13.211382113821138,81.8089430894309 13.160569105691057,81.8089430894309 13.160569105691057,81.8089430894309 13.109756097560975,81.8089430894309 13.109756097560975,81.8089430894309 13.058943089430894,81.85975609756098 13.008130081300813,81.85975609756098 12.957317073170731,81.96138211382113 12.855691056910569,82.0630081300813 12.703252032520325,82.26626016260163 12.550813008130081,82.46951219512195 12.398373983739837,82.77439024390243 12.245934959349594,83.02845528455285 12.09349593495935,83.28252032520325 11.890243902439025,83.63821138211382 11.737804878048781,83.9430894308943 11.585365853658537,84.29878048780488 11.432926829268293,84.65447154471545 11.331300813008129,85.01016260162602 11.229674796747966,85.3150406504065 11.128048780487804,85.619918699187 11.077235772357723,85.92479674796748 11.026422764227641,86.22967479674797 10.924796747967479,86.58536585365853 10.873983739837398,86.9410569105691 10.823170731707316,87.34756097560975 10.823170731707316,87.80487804878048 10.823170731707316,88.10975609756098 10.823170731707316,88.36382113821138 10.823170731707316,88.71951219512195 10.873983739837398,89.02439024390243 10.924796747967479,89.380081300813 10.97560975609756,89.73577235772358 11.026422764227641,90.09146341463415" fill="none" stroke="black" stroke-width="0.6"></polyline><polyline points="11.026422764227641,90.09146341463415 11.077235772357723,90.39634146341463 11.128048780487804,90.70121951219512 11.178861788617885,90.95528455284553 11.229674796747966,91.20934959349593 11.331300813008129,91.46341463414635 11.382113821138212,91.66666666666667 11.432926829268293,91.92073170731707 11.483739837398375,92.07317073170732 11.534552845528456,92.22560975609755 11.585365853658537,92.3780487804878 11.636178861788618,92.53048780487805 11.737804878048781,92.6829268292683 11.788617886178862,92.83536585365853 11.839430894308943,92.98780487804878 11.890243902439025,93.14024390243902 11.991869918699187,93.29268292682927 12.042682926829269,93.4451219512195 12.144308943089431,93.54674796747967 12.195121951219512,93.69918699186992 12.296747967479675,93.80081300813008 12.347560975609756,93.90243902439025 12.449186991869919,93.95325203252033 12.550813008130081,94.05487804878048 12.652439024390244,94.10569105691057 12.754065040650406,94.20731707317073 12.855691056910569,94.2581300813008 12.957317073170731,94.3089430894309 13.058943089430894,94.3089430894309 13.160569105691057,94.35975609756098 13.262195121951219,94.35975609756098 13.363821138211382,94.35975609756098 13.465447154471544,94.41056910569105 13.617886178861788,94.41056910569105 13.770325203252032,94.41056910569105 13.922764227642276,94.41056910569105 14.07520325203252,94.41056910569105 14.278455284552845,94.35975609756098 14.430894308943088,94.35975609756098 14.583333333333332,94.3089430894309 14.786585365853659,94.2581300813008 14.939024390243903,94.20731707317073 15.091463414634147,94.15650406504065 15.24390243902439,94.05487804878048 15.396341463414634,94.0040650406504 15.497967479674797,93.90243902439025 15.65040650406504,93.80081300813008 15.802845528455284,93.75 15.904471544715447,93.64837398373983 16.05691056910569,93.54674796747967 16.209349593495933,93.4959349593496" fill="none" stroke="black" stroke-width="0.6"></polyline><polyline points="16.209349593495933,93.4959349593496 16.36178861788618,93.39430894308943 16.565040650406505,93.24186991869918 16.71747967479675,93.14024390243902 16.869918699186993,93.03861788617886 17.022357723577237,92.88617886178862 17.1239837398374,92.78455284552845 17.276422764227643,92.73373983739837 17.378048780487806,92.6321138211382 17.53048780487805,92.53048780487805 17.682926829268293,92.3780487804878 17.835365853658537,92.22560975609755 17.98780487804878,92.1239837398374 18.140243902439025,91.97154471544715 18.241869918699187,91.8191056910569 18.39430894308943,91.66666666666667 18.546747967479675,91.51422764227642 18.648373983739837,91.36178861788618 18.75,91.20934959349593 18.851626016260163,91.0569105691057 18.953252032520325,90.90447154471545 19.004065040650406,90.80284552845528 19.054878048780488,90.65040650406503 19.10569105691057,90.54878048780488 19.10569105691057,90.39634146341463 19.10569105691057,90.24390243902438 19.15650406504065,90.04065040650406 19.15650406504065,89.88821138211382 19.15650406504065,89.73577235772358 19.10569105691057,89.58333333333333 19.054878048780488,89.48170731707317 18.953252032520325,89.380081300813 18.902439024390244,89.27845528455285 18.851626016260163,89.22764227642276 18.75,89.1260162601626 18.69918699186992,89.07520325203252 18.597560975609756,89.02439024390243 18.546747967479675,88.97357723577235 18.445121951219512,88.92276422764228 18.34349593495935,88.8719512195122 18.29268292682927,88.8719512195122 18.140243902439025,88.8211382113821 18.089430894308943,88.8211382113821 17.98780487804878,88.8211382113821 17.88617886178862,88.8211382113821 17.835365853658537,88.8211382113821 17.733739837398375,88.92276422764228 17.632113821138212,89.02439024390243 17.53048780487805,89.17682926829268 17.378048780487806,89.380081300813 17.276422764227643,89.53252032520325" fill="none" stroke="black" stroke-width="0.6"></polyline><polyline points="17.276422764227643,89.53252032520325 17.17479674796748,89.73577235772358 17.022357723577237,89.98983739837398 16.971544715447155,90.1930894308943 16.920731707317074,90.4471544715447 16.869918699186993,90.70121951219512 16.81910569105691,91.0060975609756 16.81910569105691,91.26016260162602 16.81910569105691,91.5650406504065 16.81910569105691,91.8191056910569 16.81910569105691,92.02235772357723 16.81910569105691,92.32723577235772 16.81910569105691,92.53048780487805 16.869918699186993,92.78455284552845 16.869918699186993,92.98780487804878 16.920731707317074,93.14024390243902 16.971544715447155,93.29268292682927 17.022357723577237,93.4451219512195 17.073170731707318,93.54674796747967 17.1239837398374,93.64837398373983 17.17479674796748,93.80081300813008 17.225609756097562,93.85162601626016 17.276422764227643,93.95325203252033 17.378048780487806,94.0040650406504 17.428861788617887,94.05487804878048 17.479674796747968,94.10569105691057 17.58130081300813,94.10569105691057 17.682926829268293,94.10569105691057 17.784552845528456,94.15650406504065 17.88617886178862,94.15650406504065 17.98780487804878,94.15650406504065 18.140243902439025,94.15650406504065 18.241869918699187,94.15650406504065 18.39430894308943,94.10569105691057 18.546747967479675,94.05487804878048 18.69918699186992,94.0040650406504 18.851626016260163,93.95325203252033 19.004065040650406,93.90243902439025 19.15650406504065,93.80081300813008 19.308943089430894,93.75 19.461382113821138,93.69918699186992 19.5630081300813,93.59756097560975 19.664634146341463,93.54674796747967 19.766260162601625,93.4959349593496 19.867886178861788,93.4451219512195 19.96951219512195,93.39430894308943 20.020325203252032,93.34349593495935 20.121951219512194,93.29268292682927 20.172764227642276,93.29268292682927 20.223577235772357,93.24186991869918 20.274390243902438,93.1910569105691" fill="none" stroke="black" stroke-width="0.6"></polyline><polyline points="20.274390243902438,93.1910569105691 20.32520325203252,93.14024390243902 20.3760162601626,93.08943089430895 20.426829268292682,92.98780487804878 20.477642276422763,92.9369918699187 20.528455284552845,92.88617886178862 20.630081300813007,92.83536585365853 20.68089430894309,92.78455284552845 20.73170731707317,92.73373983739837 20.78252032520325,92.6829268292683 20.833333333333332,92.58130081300813 20.884146341463413,92.53048780487805 20.934959349593495,92.47967479674797 20.985772357723576,92.42886178861788 21.036585365853657,92.3780487804878 21.036585365853657,92.3780487804878 21.036585365853657,92.32723577235772 21.08739837398374,92.32723577235772 21.08739837398374,92.32723577235772 21.08739837398374,92.32723577235772 21.08739837398374,92.32723577235772 21.08739837398374,92.32723577235772 21.08739837398374,92.27642276422765 21.08739837398374,92.27642276422765 21.08739837398374,92.27642276422765 21.08739837398374,92.27642276422765 21.08739837398374,92.27642276422765 21.08739837398374,92.27642276422765 21.08739837398374,92.27642276422765 21.08739837398374,92.27642276422765 21.08739837398374,92.27642276422765 21.08739837398374,92.27642276422765 21.08739837398374,92.27642276422765 21.08739837398374,92.27642276422765 21.08739837398374,92.27642276422765 21.08739837398374,92.27642276422765 21.08739837398374,92.27642276422765 21.08739837398374,92.27642276422765 21.08739837398374,92.27642276422765 21.08739837398374,92.27642276422765 21.08739837398374,92.27642276422765 21.08739837398374,92.27642276422765 21.08739837398374,92.27642276422765 21.08739837398374,92.27642276422765 21.08739837398374,92.27642276422765 21.08739837398374,92.27642276422765 21.08739837398374,92.27642276422765 21.08739837398374,92.27642276422765 21.08739837398374,92.27642276422765 21.08739837398374,92.27642276422765 21.08739837398374,92.27642276422765" fill="none" stroke="black" stroke-width="0.6"></polyline><polyline points="21.08739837398374,92.27642276422765 21.08739837398374,92.22560975609755 21.036585365853657,92.22560975609755 20.985772357723576,92.17479674796748 20.934959349593495,92.1239837398374" fill="none" stroke="black" stroke-width="0.6"></polyline></svg>