<svg height="100" width="100" preserveAspectRatio="xMidYMid meet"><polyline points="49.59349593495935,50.05081300813008 49.49186991869919,50.05081300813008 49.49186991869919,50.05081300813008 49.4410569105691,50.05081300813008 49.4410569105691,50.05081300813008 49.4410569105691,50.05081300813008 49.4410569105691,50.05081300813008 49.4410569105691,50.05081300813008 49.4410569105691,50.05081300813008 49.4410569105691,50.05081300813008 49.4410569105691,50.05081300813008 49.4410569105691,50.05081300813008 49.4410569105691,50 49.4410569105691,50 49.4410569105691,49.949186991869915 49.4410569105691,49.949186991869915 49.4410569105691,49.89837398373984 49.49186991869919,49.84756097560975 49.49186991869919,49.796747967479675 49.49186991869919,49.74593495934959 49.542682926829265,49.64430894308943 49.542682926829265,49.59349593495935 49.59349593495935,49.49186991869919 49.59349593495935,49.390243902439025 49.59349593495935,49.28861788617886 49.64430894308943,49.1869918699187 49.64430894308943,49.03455284552845 49.64430894308943,48.88211382113821 49.69512195121951,48.729674796747965 49.69512195121951,48.577235772357724 49.69512195121951,48.3739837398374 49.69512195121951,48.22154471544715 49.64430894308943,48.01829268292683 49.59349593495935,47.86585365853659 49.542682926829265,47.71341463414634 49.49186991869919,47.5609756097561 49.4410569105691,47.459349593495936 49.390243902439025,47.30691056910569 49.28861788617886,47.20528455284553 49.23780487804878,47.052845528455286 49.1869918699187,46.90040650406504 49.136178861788615,46.697154471544714 49.08536585365854,46.54471544715447 49.03455284552845,46.392276422764226 48.983739837398375,46.290650406504064 48.88211382113821,46.1890243902439 48.83130081300813,46.08739837398374 48.729674796747965,46.03658536585366 48.6280487804878,45.985772357723576 48.52642276422764,45.9349593495935 48.42479674796748,45.88414634146341" fill="none" stroke="black" stroke-width="0.6"></polyline><polyline points="48.42479674796748,45.88414634146341 48.323170731707314,45.833333333333336 48.22154471544715,45.78252032520325 48.170731707317074,45.73170731707317 48.06910569105691,45.68089430894309 48.01829268292683,45.68089430894309 47.96747967479675,45.63008130081301 47.916666666666664,45.63008130081301 47.916666666666664,45.63008130081301 47.86585365853659,45.63008130081301 47.8150406504065,45.63008130081301 47.8150406504065,45.63008130081301 47.764227642276424,45.63008130081301 47.764227642276424,45.63008130081301 47.764227642276424,45.63008130081301 47.764227642276424,45.63008130081301 47.764227642276424,45.63008130081301 47.764227642276424,45.63008130081301 47.764227642276424,45.63008130081301 47.764227642276424,45.63008130081301 47.71341463414634,45.63008130081301 47.71341463414634,45.63008130081301 47.71341463414634,45.63008130081301 47.71341463414634,45.63008130081301 47.71341463414634,45.63008130081301 47.71341463414634,45.63008130081301 47.66260162601626,45.63008130081301 47.66260162601626,45.63008130081301 47.61178861788618,45.63008130081301 47.61178861788618,45.63008130081301 47.5609756097561,45.63008130081301 47.5609756097561,45.63008130081301 47.510162601626014,45.63008130081301 47.459349593495936,45.63008130081301 47.40853658536585,45.63008130081301 47.357723577235774,45.63008130081301 47.25609756097561,45.63008130081301 47.20528455284553,45.63008130081301 47.103658536585364,45.63008130081301 47.0020325203252,45.63008130081301 46.90040650406504,45.63008130081301 46.798780487804876,45.68089430894309 46.697154471544714,45.73170731707317 46.59552845528455,45.78252032520325 46.49390243902439,45.78252032520325 46.392276422764226,45.88414634146341 46.34146341463415,45.88414634146341 46.239837398373986,45.985772357723576 46.1890243902439,46.03658536585366 46.13821138211382,46.08739837398374 46.08739837398374,46.08739837398374" fill="none" stroke="black" stroke-width="0.6"></polyline><polyline points="46.08739837398374,46.08739837398374 46.08739837398374,46.13821138211382 45.985772357723576,46.239837398373986 45.9349593495935,46.290650406504064 45.9349593495935,46.34146341463415 45.88414634146341,46.44308943089431 45.833333333333336,46.49390243902439 45.78252032520325,46.54471544715447 45.73170731707317,46.59552845528455 45.73170731707317,46.646341463414636 45.68089430894309,46.697154471544714 45.68089430894309,46.7479674796748 45.63008130081301,46.798780487804876 45.579268292682926,46.90040650406504 45.52845528455285,47.0020325203252 45.42682926829268,47.15447154471545 45.3760162601626,47.25609756097561 45.325203252032516,47.357723577235774 45.22357723577235,47.459349593495936 45.22357723577235,47.5609756097561 45.172764227642276,47.66260162601626 45.12195121951219,47.71341463414634 45.07113821138211,47.8150406504065 45.02032520325203,47.86585365853659 44.96951219512195,47.96747967479675 44.918699186991866,48.06910569105691 44.86788617886179,48.170731707317074 44.8170731707317,48.27235772357724 44.766260162601625,48.3739837398374 44.766260162601625,48.52642276422764 44.71544715447154,48.6280487804878 44.66463414634146,48.729674796747965 44.66463414634146,48.83130081300813 44.61382113821138,48.93292682926829 44.5630081300813,49.08536585365854 44.5630081300813,49.1869918699187 44.512195121951216,49.33943089430894 44.46138211382114,49.49186991869919 44.46138211382114,49.64430894308943 44.41056910569105,49.796747967479675 44.359756097560975,49.949186991869915 44.30894308943089,50.05081300813008 44.30894308943089,50.203252032520325 44.25813008130081,50.30487804878049 44.25813008130081,50.45731707317073 44.25813008130081,50.609756097560975 44.20731707317073,50.71138211382114 44.20731707317073,50.8130081300813 44.20731707317073,50.86382113821138 44.20731707317073,51.016260162601625 44.20731707317073,51.168699186991866" fill="none" stroke="black" stroke-width="0.6"></polyline><polyline points="44.20731707317073,51.168699186991866 44.15650406504065,51.32113821138211 44.15650406504065,51.422764227642276 44.15650406504065,51.575203252032516 44.15650406504065,51.67682926829268 44.15650406504065,51.829268292682926 44.15650406504065,51.93089430894309 44.15650406504065,52.03252032520325 44.15650406504065,52.1849593495935 44.15650406504065,52.28658536585366 44.15650406504065,52.4390243902439 44.15650406504065,52.540650406504064 44.20731707317073,52.69308943089431 44.20731707317073,52.79471544715447 44.20731707317073,52.947154471544714 44.20731707317073,53.048780487804876 44.25813008130081,53.201219512195124 44.30894308943089,53.302845528455286 44.30894308943089,53.40447154471545 44.359756097560975,53.55691056910569 44.41056910569105,53.65853658536585 44.41056910569105,53.760162601626014 44.46138211382114,53.86178861788618 44.512195121951216,53.96341463414634 44.5630081300813,54.0650406504065 44.61382113821138,54.166666666666664 44.66463414634146,54.26829268292683 44.71544715447154,54.31910569105691 44.71544715447154,54.36991869918699 44.766260162601625,54.420731707317074 44.8170731707317,54.47154471544715 44.86788617886179,54.573170731707314 44.918699186991866,54.67479674796748 44.96951219512195,54.77642276422764 45.07113821138211,54.8780487804878 45.12195121951219,54.979674796747965 45.172764227642276,55.08130081300813 45.27439024390244,55.18292682926829 45.325203252032516,55.28455284552845 45.42682926829268,55.386178861788615 45.47764227642276,55.4369918699187 45.52845528455285,55.48780487804878 45.63008130081301,55.58943089430894 45.73170731707317,55.640243902439025 45.78252032520325,55.74186991869919 45.833333333333336,55.792682926829265 45.88414634146341,55.84349593495935 45.9349593495935,55.89430894308943 46.03658536585366,55.99593495934959 46.13821138211382,56.09756097560975 46.1890243902439,56.14837398373984" fill="none" stroke="black" stroke-width="0.6"></polyline><polyline points="46.1890243902439,56.14837398373984 46.290650406504064,56.25 46.392276422764226,56.30081300813008 46.49390243902439,56.35162601626016 46.646341463414636,56.40243902439024 46.7479674796748,56.453252032520325 46.84959349593496,56.5040650406504 46.951219512195124,56.55487804878049 47.103658536585364,56.605691056910565 47.20528455284553,56.65650406504065 47.357723577235774,56.70731707317073 47.510162601626014,56.75813008130081 47.61178861788618,56.859756097560975 47.764227642276424,56.91056910569105 47.916666666666664,56.96138211382114 48.06910569105691,57.012195121951216 48.11991869918699,57.012195121951216 48.170731707317074,57.012195121951216 48.323170731707314,57.0630081300813 48.47560975609756,57.11382113821138 48.67886178861789,57.16463414634146 48.83130081300813,57.21544715447154 49.03455284552845,57.266260162601625 49.1869918699187,57.3170731707317 49.4410569105691,57.36788617886179 49.64430894308943,57.418699186991866 49.89837398373984,57.46951219512195 50.15243902439024,57.46951219512195 50.40650406504065,57.46951219512195 50.609756097560975,57.52032520325203 50.91463414634146,57.52032520325203 51.11788617886179,57.52032520325203 51.37195121951219,57.52032520325203 51.6260162601626,57.52032520325203 51.829268292682926,57.52032520325203 52.083333333333336,57.52032520325203 52.28658536585366,57.52032520325203 52.540650406504064,57.52032520325203 52.74390243902439,57.52032520325203 52.9979674796748,57.52032520325203 53.201219512195124,57.52032520325203 53.45528455284553,57.46951219512195 53.55691056910569,57.46951219512195 53.65853658536585,57.418699186991866 53.86178861788618,57.36788617886179 54.11585365853659,57.3170731707317 54.31910569105691,57.21544715447154 54.52235772357724,57.16463414634146 54.72560975609756,57.0630081300813 54.8780487804878,56.96138211382114 55.08130081300813,56.859756097560975" fill="none" stroke="black" stroke-width="0.6"></polyline><polyline points="55.08130081300813,56.859756097560975 55.233739837398375,56.75813008130081 55.386178861788615,56.70731707317073 55.53861788617886,56.605691056910565 55.6910569105691,56.55487804878049 55.792682926829265,56.5040650406504 55.89430894308943,56.453252032520325 56.046747967479675,56.35162601626016 56.14837398373984,56.30081300813008 56.25,56.199186991869915 56.35162601626016,56.09756097560975 56.453252032520325,55.99593495934959 56.55487804878049,55.94512195121951 56.605691056910565,55.89430894308943 56.65650406504065,55.89430894308943 56.70731707317073,55.84349593495935 56.80894308943089,55.74186991869919 56.859756097560975,55.6910569105691 56.96138211382114,55.640243902439025 57.012195121951216,55.58943089430894 57.0630081300813,55.53861788617886 57.16463414634146,55.48780487804878 57.21544715447154,55.4369918699187 57.266260162601625,55.33536585365854 57.36788617886179,55.28455284552845 57.418699186991866,55.18292682926829 57.46951219512195,55.08130081300813 57.57113821138211,55.03048780487805 57.62195121951219,54.979674796747965 57.672764227642276,54.8780487804878 57.77439024390244,54.827235772357724 57.825203252032516,54.77642276422764 57.92682926829268,54.67479674796748 58.02845528455284,54.6239837398374 58.079268292682926,54.52235772357724 58.18089430894309,54.420731707317074 58.28252032520325,54.31910569105691 58.38414634146341,54.21747967479675 58.485772357723576,54.11585365853659 58.536585365853654,54.0650406504065 58.58739837398374,54.014227642276424 58.63821138211382,53.91260162601626 58.739837398373986,53.8109756097561 58.84146341463415,53.760162601626014 58.892276422764226,53.65853658536585 58.99390243902439,53.607723577235774 59.04471544715447,53.50609756097561 59.09552845528455,53.40447154471545 59.197154471544714,53.302845528455286 59.2479674796748,53.201219512195124 59.34959349593496,53.09959349593496" fill="none" stroke="black" stroke-width="0.6"></polyline><polyline points="59.34959349593496,53.09959349593496 59.451219512195124,52.947154471544714 59.5020325203252,52.79471544715447 59.603658536585364,52.69308943089431 59.65447154471545,52.59146341463415 59.75609756097561,52.4390243902439 59.80691056910569,52.33739837398374 59.857723577235774,52.235772357723576 59.90853658536585,52.13414634146341 59.959349593495936,51.981707317073166 60.010162601626014,51.880081300813 60.0609756097561,51.72764227642276 60.11178861788618,51.575203252032516 60.16260162601626,51.422764227642276 60.16260162601626,51.27032520325203 60.21341463414634,51.11788617886179 60.264227642276424,51.016260162601625 60.264227642276424,50.86382113821138 60.3150406504065,50.762195121951216 60.3150406504065,50.609756097560975 60.3150406504065,50.55894308943089 60.3150406504065,50.50813008130081 60.3150406504065,50.355691056910565 60.3150406504065,50.203252032520325 60.3150406504065,50.05081300813008 60.3150406504065,49.89837398373984 60.3150406504065,49.74593495934959 60.3150406504065,49.59349593495935 60.3150406504065,49.4410569105691 60.3150406504065,49.33943089430894 60.3150406504065,49.23780487804878 60.3150406504065,49.136178861788615 60.3150406504065,49.03455284552845 60.3150406504065,48.93292682926829 60.264227642276424,48.83130081300813 60.264227642276424,48.729674796747965 60.21341463414634,48.67886178861789 60.21341463414634,48.6280487804878 60.21341463414634,48.47560975609756 60.16260162601626,48.323170731707314 60.16260162601626,48.170731707317074 60.16260162601626,48.01829268292683 60.11178861788618,47.8150406504065 60.0609756097561,47.66260162601626 60.0609756097561,47.459349593495936 60.010162601626014,47.30691056910569 60.010162601626014,47.15447154471545 59.959349593495936,47.0020325203252 59.90853658536585,46.798780487804876 59.90853658536585,46.646341463414636 59.857723577235774,46.49390243902439" fill="none" stroke="black" stroke-width="0.6"></polyline><polyline points="59.857723577235774,46.49390243902439 59.80691056910569,46.392276422764226 59.80691056910569,46.239837398373986 59.75609756097561,46.13821138211382 59.70528455284553,46.03658536585366 59.70528455284553,45.88414634146341 59.65447154471545,45.78252032520325 59.603658536585364,45.63008130081301 59.552845528455286,45.47764227642276 59.5020325203252,45.325203252032516 59.451219512195124,45.172764227642276 59.34959349593496,45.07113821138211 59.298780487804876,44.918699186991866 59.2479674796748,44.8170731707317 59.197154471544714,44.71544715447154 59.146341463414636,44.61382113821138 59.09552845528455,44.512195121951216 59.04471544715447,44.41056910569105 58.99390243902439,44.25813008130081 58.892276422764226,44.15650406504065 58.84146341463415,44.05487804878049 58.790650406504064,43.90243902439024 58.739837398373986,43.80081300813008 58.63821138211382,43.699186991869915 58.536585365853654,43.546747967479675 58.485772357723576,43.44512195121951 58.38414634146341,43.34349593495935 58.28252032520325,43.24186991869919 58.231707317073166,43.140243902439025 58.130081300813,43.03861788617886 58.079268292682926,42.9369918699187 58.02845528455284,42.83536585365854 57.92682926829268,42.68292682926829 57.8760162601626,42.58130081300813 57.825203252032516,42.479674796747965 57.72357723577235,42.327235772357724 57.672764227642276,42.22560975609756 57.62195121951219,42.17479674796748 57.57113821138211,42.073170731707314 57.46951219512195,41.97154471544715 57.418699186991866,41.81910569105691 57.3170731707317,41.71747967479675 57.21544715447154,41.5650406504065 57.16463414634146,41.46341463414634 57.0630081300813,41.36178861788618 57.012195121951216,41.260162601626014 56.91056910569105,41.15853658536585 56.80894308943089,41.107723577235774 56.75813008130081,41.00609756097561 56.65650406504065,40.95528455284553 56.55487804878049,40.853658536585364" fill="none" stroke="black" stroke-width="0.6"></polyline><polyline points="56.55487804878049,40.853658536585364 56.5040650406504,40.802845528455286 56.40243902439024,40.701219512195124 56.35162601626016,40.65040650406504 56.30081300813008,40.65040650406504 56.199186991869915,40.548780487804876 56.09756097560975,40.447154471544714 55.99593495934959,40.34552845528455 55.89430894308943,40.24390243902439 55.84349593495935,40.24390243902439 55.74186991869919,40.19308943089431 55.640243902439025,40.09146341463415 55.48780487804878,40.040650406504064 55.386178861788615,39.989837398373986 55.28455284552845,39.88821138211382 55.13211382113821,39.83739837398374 55.03048780487805,39.78658536585366 54.92886178861789,39.6849593495935 54.77642276422764,39.63414634146341 54.67479674796748,39.583333333333336 54.573170731707314,39.53252032520325 54.420731707317074,39.48170731707317 54.31910569105691,39.43089430894309 54.166666666666664,39.38008130081301 54.0650406504065,39.329268292682926 53.91260162601626,39.27845528455285 53.760162601626014,39.27845528455285 53.607723577235774,39.22764227642276 53.50609756097561,39.176829268292686 53.353658536585364,39.1260162601626 53.201219512195124,39.07520325203252 53.048780487804876,39.07520325203252 52.896341463414636,39.02439024390244 52.74390243902439,38.97357723577235 52.59146341463415,38.97357723577235 52.4390243902439,38.922764227642276 52.28658536585366,38.922764227642276 52.13414634146341,38.87195121951219 51.981707317073166,38.87195121951219 51.829268292682926,38.82113821138211 51.67682926829268,38.82113821138211 51.52439024390244,38.82113821138211 51.32113821138211,38.82113821138211 51.11788617886179,38.82113821138211 50.86382113821138,38.82113821138211 50.66056910569105,38.82113821138211 50.45731707317073,38.82113821138211 50.2540650406504,38.82113821138211 50.05081300813008,38.82113821138211 49.89837398373984,38.82113821138211 49.69512195121951,38.82113821138211" fill="none" stroke="black" stroke-width="0.6"></polyline><polyline points="49.69512195121951,38.82113821138211 49.49186991869919,38.82113821138211 49.28861788617886,38.87195121951219 49.08536585365854,38.87195121951219 48.88211382113821,38.87195121951219 48.67886178861789,38.922764227642276 48.47560975609756,38.922764227642276 48.3739837398374,38.97357723577235 48.27235772357724,38.97357723577235 48.11991869918699,39.02439024390244 47.916666666666664,39.02439024390244 47.764227642276424,39.07520325203252 47.61178861788618,39.07520325203252 47.459349593495936,39.1260162601626 47.357723577235774,39.176829268292686 47.20528455284553,39.176829268292686 47.052845528455286,39.22764227642276 46.90040650406504,39.22764227642276 46.7479674796748,39.27845528455285 46.59552845528455,39.329268292682926 46.44308943089431,39.38008130081301 46.290650406504064,39.43089430894309 46.13821138211382,39.48170731707317 45.985772357723576,39.48170731707317 45.88414634146341,39.53252032520325 45.73170731707317,39.583333333333336 45.63008130081301,39.63414634146341 45.52845528455285,39.6849593495935 45.3760162601626,39.735772357723576 45.27439024390244,39.78658536585366 45.12195121951219,39.83739837398374 44.96951219512195,39.9390243902439 44.8170731707317,39.989837398373986 44.66463414634146,40.040650406504064 44.512195121951216,40.142276422764226 44.359756097560975,40.19308943089431 44.20731707317073,40.29471544715447 44.05487804878049,40.396341463414636 43.90243902439024,40.447154471544714 43.75,40.548780487804876 43.59756097560975,40.701219512195124 43.44512195121951,40.802845528455286 43.24186991869919,40.90447154471545 43.08943089430894,41.00609756097561 42.9369918699187,41.107723577235774 42.733739837398375,41.209349593495936 42.68292682926829,41.260162601626014 42.58130081300813,41.3109756097561 42.42886178861789,41.41260162601626 42.27642276422764,41.46341463414634 42.1239837398374,41.61585365853659" fill="none" stroke="black" stroke-width="0.6"></polyline><polyline points="42.1239837398374,41.61585365853659 41.97154471544715,41.71747967479675 41.81910569105691,41.86991869918699 41.61585365853659,42.02235772357724 41.46341463414634,42.17479674796748 41.36178861788618,42.327235772357724 41.209349593495936,42.479674796747965 41.15853658536585,42.58130081300813 41.107723577235774,42.63211382113821 40.95528455284553,42.78455284552845 40.853658536585364,42.9369918699187 40.802845528455286,43.03861788617886 40.65040650406504,43.1910569105691 40.548780487804876,43.34349593495935 40.396341463414636,43.49593495934959 40.29471544715447,43.699186991869915 40.142276422764226,43.90243902439024 39.989837398373986,44.105691056910565 39.88821138211382,44.30894308943089 39.78658536585366,44.46138211382114 39.6849593495935,44.5630081300813 39.583333333333336,44.71544715447154 39.53252032520325,44.86788617886179 39.48170731707317,44.96951219512195 39.43089430894309,45.02032520325203 39.329268292682926,45.22357723577235 39.22764227642276,45.3760162601626 39.1260162601626,45.52845528455285 39.02439024390244,45.73170731707317 38.922764227642276,45.9349593495935 38.82113821138211,46.08739837398374 38.71951219512195,46.34146341463415 38.5670731707317,46.59552845528455 38.46544715447154,46.798780487804876 38.41463414634146,46.951219512195124 38.3130081300813,47.103658536585364 38.16056910569105,47.357723577235774 38.00813008130081,47.66260162601626 37.855691056910565,47.916666666666664 37.703252032520325,48.11991869918699 37.60162601626016,48.27235772357724 37.5,48.42479674796748 37.449186991869915,48.52642276422764 37.39837398373984,48.67886178861789 37.34756097560975,48.83130081300813 37.296747967479675,48.983739837398375 37.24593495934959,49.1869918699187 37.19512195121951,49.49186991869919 37.14430894308943,49.74593495934959 37.09349593495935,49.949186991869915 37.09349593495935,50.05081300813008" fill="none" stroke="black" stroke-width="0.6"></polyline><polyline points="37.09349593495935,50.05081300813008 37.042682926829265,50.203252032520325 37.042682926829265,50.355691056910565 37.042682926829265,50.45731707317073 37.042682926829265,50.609756097560975 37.042682926829265,50.762195121951216 37.042682926829265,50.91463414634146 37.042682926829265,51.11788617886179 37.042682926829265,51.32113821138211 37.09349593495935,51.52439024390244 37.09349593495935,51.77845528455284 37.09349593495935,51.93089430894309 37.09349593495935,52.083333333333336 37.14430894308943,52.28658536585366 37.19512195121951,52.489837398373986 37.19512195121951,52.69308943089431 37.24593495934959,52.896341463414636 37.296747967479675,53.15040650406504 37.296747967479675,53.353658536585364 37.34756097560975,53.65853658536585 37.34756097560975,53.96341463414634 37.34756097560975,54.0650406504065 37.39837398373984,54.420731707317074 37.39837398373984,54.573170731707314 37.449186991869915,54.72560975609756 37.5,54.92886178861789 37.5,54.979674796747965 37.55081300813008,55.08130081300813 37.60162601626016,55.233739837398375 37.703252032520325,55.4369918699187 37.7540650406504,55.640243902439025 37.855691056910565,55.89430894308943 37.90650406504065,56.09756097560975 38.00813008130081,56.30081300813008 38.05894308943089,56.5040650406504 38.16056910569105,56.70731707317073 38.262195121951216,56.859756097560975 38.3130081300813,57.012195121951216 38.41463414634146,57.16463414634146 38.516260162601625,57.36788617886179 38.61788617886179,57.52032520325203 38.71951219512195,57.77439024390244 38.82113821138211,57.97764227642276 38.922764227642276,58.231707317073166 39.02439024390244,58.485772357723576 39.176829268292686,58.6890243902439 39.329268292682926,58.94308943089431 39.48170731707317,59.146341463414636 39.63414634146341,59.298780487804876 39.78658536585366,59.5020325203252 39.9390243902439,59.65447154471545" fill="none" stroke="black" stroke-width="0.6"></polyline><polyline points="39.9390243902439,59.65447154471545 40.040650406504064,59.80691056910569 40.142276422764226,59.857723577235774 40.24390243902439,59.959349593495936 40.34552845528455,60.0609756097561 40.4979674796748,60.21341463414634 40.59959349593496,60.36585365853659 40.7520325203252,60.46747967479675 40.90447154471545,60.61991869918699 41.05691056910569,60.72154471544715 41.260162601626014,60.8739837398374 41.41260162601626,60.97560975609756 41.5650406504065,61.1280487804878 41.71747967479675,61.229674796747965 41.86991869918699,61.33130081300813 42.02235772357724,61.483739837398375 42.22560975609756,61.58536585365854 42.3780487804878,61.636178861788615 42.58130081300813,61.73780487804878 42.733739837398375,61.83943089430894 42.9369918699187,61.890243902439025 43.08943089430894,61.99186991869919 43.292682926829265,62.09349593495935 43.44512195121951,62.19512195121951 43.64837398373984,62.296747967479675 43.80081300813008,62.39837398373984 44.0040650406504,62.449186991869915 44.15650406504065,62.55081300813008 44.30894308943089,62.60162601626016 44.512195121951216,62.65243902439024 44.71544715447154,62.703252032520325 44.918699186991866,62.80487804878049 45.172764227642276,62.855691056910565 45.3760162601626,62.95731707317073 45.579268292682926,63.00813008130081 45.78252032520325,63.109756097560975 45.985772357723576,63.21138211382114 46.1890243902439,63.262195121951216 46.392276422764226,63.3130081300813 46.646341463414636,63.36382113821138 46.84959349593496,63.36382113821138 47.052845528455286,63.41463414634146 47.30691056910569,63.41463414634146 47.40853658536585,63.41463414634146 47.510162601626014,63.41463414634146 47.71341463414634,63.46544715447154 47.916666666666664,63.46544715447154 48.11991869918699,63.46544715447154 48.27235772357724,63.516260162601625 48.47560975609756,63.5670731707317 48.67886178861789,63.5670731707317" fill="none" stroke="black" stroke-width="0.6"></polyline><polyline points="48.67886178861789,63.5670731707317 48.83130081300813,63.5670731707317 49.03455284552845,63.5670731707317 49.23780487804878,63.5670731707317 49.390243902439025,63.5670731707317 49.59349593495935,63.5670731707317 49.69512195121951,63.5670731707317 49.89837398373984,63.5670731707317 50.05081300813008,63.5670731707317 50.203252032520325,63.5670731707317 50.355691056910565,63.5670731707317 50.50813008130081,63.5670731707317 50.66056910569105,63.5670731707317 50.8130081300813,63.5670731707317 51.016260162601625,63.5670731707317 51.168699186991866,63.5670731707317 51.32113821138211,63.5670731707317 51.47357723577235,63.516260162601625 51.6260162601626,63.516260162601625 51.829268292682926,63.516260162601625 51.981707317073166,63.516260162601625 52.13414634146341,63.46544715447154 52.33739837398374,63.46544715447154 52.489837398373986,63.46544715447154 52.642276422764226,63.41463414634146 52.84552845528455,63.41463414634146 53.048780487804876,63.36382113821138 53.2520325203252,63.36382113821138 53.45528455284553,63.3130081300813 53.65853658536585,63.3130081300813 53.86178861788618,63.262195121951216 54.0650406504065,63.21138211382114 54.26829268292683,63.16056910569105 54.36991869918699,63.16056910569105 54.47154471544715,63.109756097560975 54.72560975609756,63.00813008130081 54.92886178861789,62.95731707317073 55.13211382113821,62.855691056910565 55.33536585365854,62.7540650406504 55.53861788617886,62.65243902439024 55.640243902439025,62.65243902439024 55.74186991869919,62.60162601626016 55.94512195121951,62.5 56.14837398373984,62.449186991869915 56.30081300813008,62.39837398373984 56.5040650406504,62.296747967479675 56.70731707317073,62.19512195121951 56.859756097560975,62.14430894308943 57.0630081300813,62.042682926829265 57.21544715447154,61.99186991869919 57.36788617886179,61.890243902439025" fill="none" stroke="black" stroke-width="0.6"></polyline><polyline points="57.36788617886179,61.890243902439025 57.57113821138211,61.83943089430894 57.77439024390244,61.78861788617886 57.92682926829268,61.6869918699187 58.130081300813,61.636178861788615 58.28252032520325,61.53455284552845 58.43495934959349,61.483739837398375 58.63821138211382,61.38211382113821 58.790650406504064,61.28048780487805 58.99390243902439,61.17886178861789 59.146341463414636,61.1280487804878 59.2479674796748,61.077235772357724 59.34959349593496,61.02642276422764 59.5020325203252,60.92479674796748 59.70528455284553,60.823170731707314 59.90853658536585,60.77235772357724 60.11178861788618,60.670731707317074 60.3150406504065,60.61991869918699 60.46747967479675,60.51829268292683 60.670731707317074,60.416666666666664 60.823170731707314,60.3150406504065 61.02642276422764,60.21341463414634 61.17886178861789,60.16260162601626 61.33130081300813,60.0609756097561 61.483739837398375,59.959349593495936 61.636178861788615,59.857723577235774 61.83943089430894,59.70528455284553 61.99186991869919,59.603658536585364 62.14430894308943,59.5020325203252 62.296747967479675,59.40040650406504 62.39837398373984,59.298780487804876 62.55081300813008,59.197154471544714 62.703252032520325,59.09552845528455 62.855691056910565,58.99390243902439 63.00813008130081,58.84146341463415 63.109756097560975,58.739837398373986 63.262195121951216,58.63821138211382 63.41463414634146,58.536585365853654 63.516260162601625,58.43495934959349 63.668699186991866,58.33333333333333 63.82113821138211,58.231707317073166 63.97357723577235,58.130081300813 64.1260162601626,57.97764227642276 64.27845528455285,57.8760162601626 64.43089430894308,57.77439024390244 64.53252032520325,57.672764227642276 64.6849593495935,57.57113821138211 64.78658536585365,57.46951219512195 64.88821138211382,57.36788617886179 65.04065040650406,57.266260162601625 65.14227642276423,57.16463414634146" fill="none" stroke="black" stroke-width="0.6"></polyline><polyline points="65.14227642276423,57.16463414634146 65.2439024390244,57.0630081300813 65.34552845528455,56.96138211382114 65.44715447154472,56.859756097560975 65.4979674796748,56.75813008130081 65.59959349593495,56.65650406504065 65.70121951219512,56.55487804878049 65.80284552845528,56.40243902439024 65.90447154471545,56.30081300813008 66.0060975609756,56.199186991869915 66.0569105691057,56.046747967479675 66.15853658536585,55.94512195121951 66.26016260162602,55.84349593495935 66.3109756097561,55.6910569105691 66.41260162601625,55.53861788617886 66.51422764227642,55.4369918699187 66.61585365853658,55.28455284552845 66.66666666666667,55.18292682926829 66.71747967479675,55.08130081300813 66.8191056910569,54.92886178861789 66.869918699187,54.77642276422764 67.02235772357723,54.6239837398374 67.07317073170732,54.47154471544715 67.17479674796748,54.31910569105691 67.27642276422765,54.166666666666664 67.32723577235772,54.0650406504065 67.3780487804878,53.96341463414634 67.47967479674797,53.8109756097561 67.53048780487805,53.709349593495936 67.58130081300813,53.607723577235774 67.6321138211382,53.50609756097561 67.6829268292683,53.353658536585364 67.73373983739837,53.2520325203252 67.78455284552845,53.15040650406504 67.78455284552845,53.09959349593496 67.83536585365853,52.896341463414636 67.88617886178862,52.74390243902439 67.9369918699187,52.59146341463415 67.98780487804878,52.4390243902439 68.03861788617886,52.28658536585366 68.08943089430895,52.083333333333336 68.14024390243902,51.981707317073166 68.1910569105691,51.829268292682926 68.24186991869918,51.67682926829268 68.29268292682927,51.52439024390244 68.39430894308943,51.37195121951219 68.4451219512195,51.168699186991866 68.4959349593496,51.016260162601625 68.54674796747967,50.8130081300813 68.64837398373983,50.609756097560975 68.69918699186992,50.40650406504065" fill="none" stroke="black" stroke-width="0.6"></polyline><polyline points="68.69918699186992,50.40650406504065 68.75,50.2540650406504 68.80081300813008,50.05081300813008 68.85162601626016,49.89837398373984 68.85162601626016,49.796747967479675 68.90243902439025,49.74593495934959 68.90243902439025,49.59349593495935 68.95325203252033,49.49186991869919 68.95325203252033,49.390243902439025 69.0040650406504,49.23780487804878 69.0040650406504,49.136178861788615 69.05487804878048,48.93292682926829 69.05487804878048,48.78048780487805 69.05487804878048,48.577235772357724 69.10569105691057,48.3739837398374 69.10569105691057,48.170731707317074 69.10569105691057,48.01829268292683 69.15650406504065,47.86585365853659 69.15650406504065,47.764227642276424 69.15650406504065,47.66260162601626 69.15650406504065,47.5609756097561 69.15650406504065,47.459349593495936 69.15650406504065,47.30691056910569 69.15650406504065,47.20528455284553 69.15650406504065,47.052845528455286 69.15650406504065,46.90040650406504 69.15650406504065,46.697154471544714 69.15650406504065,46.49390243902439 69.15650406504065,46.34146341463415 69.15650406504065,46.13821138211382 69.10569105691057,46.08739837398374 69.10569105691057,45.985772357723576 69.10569105691057,45.88414634146341 69.10569105691057,45.73170731707317 69.05487804878048,45.579268292682926 69.05487804878048,45.47764227642276 69.05487804878048,45.325203252032516 69.0040650406504,45.172764227642276 69.0040650406504,45.02032520325203 69.0040650406504,44.8170731707317 68.95325203252033,44.61382113821138 68.95325203252033,44.41056910569105 68.95325203252033,44.20731707317073 68.95325203252033,44.0040650406504 68.90243902439025,43.85162601626016 68.90243902439025,43.699186991869915 68.85162601626016,43.546747967479675 68.85162601626016,43.39430894308943 68.80081300813008,43.24186991869919 68.80081300813008,43.08943089430894 68.75,42.9369918699187" fill="none" stroke="black" stroke-width="0.6"></polyline><polyline points="68.75,42.9369918699187 68.75,42.83536585365854 68.75,42.78455284552845 68.75,42.58130081300813 68.69918699186992,42.3780487804878 68.69918699186992,42.17479674796748 68.64837398373983,41.97154471544715 68.59756097560975,41.76829268292683 68.59756097560975,41.5650406504065 68.54674796747967,41.41260162601626 68.4451219512195,41.209349593495936 68.39430894308943,41.00609756097561 68.34349593495935,40.802845528455286 68.29268292682927,40.59959349593496 68.24186991869918,40.34552845528455 68.14024390243902,40.09146341463415 68.08943089430895,39.83739837398374 68.03861788617886,39.53252032520325 67.98780487804878,39.27845528455285 67.88617886178862,39.07520325203252 67.83536585365853,38.87195121951219 67.73373983739837,38.668699186991866 67.6321138211382,38.516260162601625 67.58130081300813,38.36382113821138 67.47967479674797,38.16056910569105 67.3780487804878,37.95731707317073 67.27642276422765,37.7540650406504 67.22560975609755,37.55081300813008 67.1239837398374,37.296747967479675 67.02235772357723,37.09349593495935 66.92073170731707,36.890243902439025 66.76829268292683,36.6869918699187 66.66666666666667,36.483739837398375 66.5650406504065,36.33130081300813 66.46341463414635,36.1280487804878 66.36178861788618,35.97560975609756 66.3109756097561,35.77235772357724 66.20934959349593,35.51829268292683 66.15853658536585,35.3150406504065 66.10772357723577,35.0609756097561 66.0060975609756,34.857723577235774 65.90447154471545,34.65447154471545 65.85365853658537,34.5020325203252 65.7520325203252,34.298780487804876 65.65040650406505,34.146341463414636 65.54878048780488,33.99390243902439 65.39634146341463,33.84146341463415 65.34552845528455,33.6890243902439 65.2439024390244,33.53658536585366 65.14227642276423,33.38414634146341 65.04065040650406,33.23170731707317" fill="none" stroke="black" stroke-width="0.6"></polyline><polyline points="65.04065040650406,33.23170731707317 64.98983739837398,33.02845528455285 64.9390243902439,32.926829268292686 64.88821138211382,32.82520325203252 64.78658536585365,32.672764227642276 64.73577235772358,32.52032520325203 64.6341463414634,32.36788617886179 64.53252032520325,32.266260162601625 64.48170731707317,32.21544715447154 64.380081300813,32.11382113821138 64.32926829268293,32.0630081300813 64.22764227642276,31.961382113821138 64.17682926829268,31.910569105691057 64.1260162601626,31.808943089430894 64.07520325203252,31.70731707317073 64.02439024390243,31.65650406504065 63.97357723577235,31.60569105691057 63.922764227642276,31.453252032520325 63.87195121951219,31.351626016260163 63.77032520325203,31.19918699186992 63.668699186991866,31.046747967479675 63.61788617886179,30.945121951219512 63.46544715447154,30.79268292682927 63.41463414634146,30.640243902439025 63.36382113821138,30.589430894308943 63.3130081300813,30.48780487804878 63.21138211382114,30.38617886178862 63.109756097560975,30.233739837398375 63.00813008130081,30.132113821138212 62.90650406504065,30.03048780487805 62.80487804878049,29.928861788617887 62.703252032520325,29.827235772357724 62.55081300813008,29.67479674796748 62.449186991869915,29.573170731707318 62.34756097560975,29.471544715447155 62.19512195121951,29.369918699186993 62.09349593495935,29.268292682926827 61.9410569105691,29.115853658536583 61.83943089430894,29.01422764227642 61.6869918699187,28.912601626016258 61.53455284552845,28.810975609756095 61.43292682926829,28.709349593495933 61.28048780487805,28.60772357723577 61.17886178861789,28.55691056910569 61.02642276422764,28.455284552845526 60.92479674796748,28.404471544715445 60.823170731707314,28.353658536585364 60.670731707317074,28.302845528455283 60.56910569105691,28.2520325203252 60.416666666666664,28.20121951219512 60.3150406504065,28.15040650406504" fill="none" stroke="black" stroke-width="0.6"></polyline><polyline points="60.3150406504065,28.15040650406504 60.16260162601626,28.099593495934958 60.0609756097561,28.048780487804876 59.90853658536585,27.997967479674795 59.80691056910569,27.947154471544714 59.75609756097561,27.896341463414632 59.70528455284553,27.896341463414632 59.552845528455286,27.79471544715447 59.451219512195124,27.74390243902439 59.298780487804876,27.693089430894307 59.197154471544714,27.642276422764226 59.09552845528455,27.591463414634145 58.94308943089431,27.540650406504064 58.790650406504064,27.4390243902439 58.6890243902439,27.38821138211382 58.536585365853654,27.33739837398374 58.43495934959349,27.286585365853657 58.28252032520325,27.286585365853657 58.130081300813,27.184959349593495 57.97764227642276,27.184959349593495 57.825203252032516,27.134146341463413 57.672764227642276,27.083333333333332 57.52032520325203,27.03252032520325 57.3170731707317,26.98170731707317 57.16463414634146,26.93089430894309 57.012195121951216,26.880081300813007 56.91056910569105,26.829268292682926 56.859756097560975,26.778455284552845 56.65650406504065,26.727642276422763 56.5040650406504,26.676829268292682 56.30081300813008,26.6260162601626 56.09756097560975,26.6260162601626 55.89430894308943,26.57520325203252 55.6910569105691,26.524390243902438 55.4369918699187,26.524390243902438 55.233739837398375,26.524390243902438 55.08130081300813,26.473577235772357 54.8780487804878,26.422764227642276 54.72560975609756,26.422764227642276 54.52235772357724,26.371951219512194 54.36991869918699,26.321138211382113 54.166666666666664,26.321138211382113 53.96341463414634,26.270325203252032 53.760162601626014,26.21951219512195 53.55691056910569,26.21951219512195 53.353658536585364,26.21951219512195 53.09959349593496,26.16869918699187 52.896341463414636,26.16869918699187 52.69308943089431,26.16869918699187 52.489837398373986,26.16869918699187 52.28658536585366,26.16869918699187" fill="none" stroke="black" stroke-width="0.6"></polyline><polyline points="52.28658536585366,26.16869918699187 52.083333333333336,26.16869918699187 51.829268292682926,26.16869918699187 51.6260162601626,26.16869918699187 51.47357723577235,26.16869918699187 51.27032520325203,26.16869918699187 51.0670731707317,26.16869918699187 50.91463414634146,26.16869918699187 50.66056910569105,26.16869918699187 50.45731707317073,26.21951219512195 50.2540650406504,26.21951219512195 50.05081300813008,26.270325203252032 49.84756097560975,26.321138211382113 49.69512195121951,26.371951219512194 49.4410569105691,26.371951219512194 49.28861788617886,26.422764227642276 49.08536585365854,26.473577235772357 48.88211382113821,26.524390243902438 48.729674796747965,26.57520325203252 48.52642276422764,26.6260162601626 48.3739837398374,26.6260162601626 48.22154471544715,26.676829268292682 48.06910569105691,26.676829268292682 47.916666666666664,26.727642276422763 47.71341463414634,26.778455284552845 47.510162601626014,26.829268292682926 47.357723577235774,26.880081300813007 47.15447154471545,26.93089430894309 46.951219512195124,27.03252032520325 46.798780487804876,27.083333333333332 46.59552845528455,27.134146341463413 46.392276422764226,27.235772357723576 46.239837398373986,27.286585365853657 46.08739837398374,27.33739837398374 45.88414634146341,27.38821138211382 45.73170731707317,27.489837398373982 45.52845528455285,27.591463414634145 45.325203252032516,27.693089430894307 45.12195121951219,27.74390243902439 44.96951219512195,27.84552845528455 44.71544715447154,27.947154471544714 44.5630081300813,28.048780487804876 44.46138211382114,28.099593495934958 44.359756097560975,28.099593495934958 44.15650406504065,28.20121951219512 44.0040650406504,28.302845528455283 43.85162601626016,28.353658536585364 43.64837398373984,28.455284552845526 43.49593495934959,28.55691056910569 43.292682926829265,28.60772357723577 43.140243902439025,28.709349593495933" fill="none" stroke="black" stroke-width="0.6"></polyline><polyline points="43.140243902439025,28.709349593495933 42.9369918699187,28.810975609756095 42.78455284552845,28.861788617886177 42.58130081300813,28.96341463414634 42.42886178861789,29.01422764227642 42.22560975609756,29.115853658536583 42.073170731707314,29.217479674796746 41.920731707317074,29.268292682926827 41.71747967479675,29.369918699186993 41.5650406504065,29.471544715447155 41.41260162601626,29.522357723577237 41.260162601626014,29.6239837398374 41.107723577235774,29.725609756097562 41.05691056910569,29.725609756097562 41.00609756097561,29.776422764227643 40.853658536585364,29.878048780487806 40.701219512195124,29.928861788617887 40.548780487804876,30.03048780487805 40.396341463414636,30.08130081300813 40.29471544715447,30.132113821138212 40.24390243902439,30.182926829268293 40.142276422764226,30.233739837398375 39.989837398373986,30.284552845528456 39.88821138211382,30.335365853658537 39.735772357723576,30.38617886178862 39.6849593495935,30.4369918699187 39.63414634146341,30.48780487804878 39.53252032520325,30.538617886178862 39.43089430894309,30.589430894308943 39.329268292682926,30.640243902439025 39.27845528455285,30.691056910569106 39.22764227642276,30.741869918699187 39.1260162601626,30.79268292682927 39.02439024390244,30.84349593495935 38.922764227642276,30.89430894308943 38.82113821138211,30.945121951219512 38.71951219512195,31.046747967479675 38.61788617886179,31.097560975609756 38.516260162601625,31.148373983739837 38.46544715447154,31.19918699186992 38.36382113821138,31.30081300813008 38.262195121951216,31.351626016260163 38.16056910569105,31.402439024390244 38.05894308943089,31.504065040650406 37.95731707317073,31.554878048780488 37.855691056910565,31.65650406504065 37.7540650406504,31.758130081300813 37.60162601626016,31.808943089430894 37.5,31.910569105691057 37.34756097560975,32.012195121951216 37.19512195121951,32.16463414634146" fill="none" stroke="black" stroke-width="0.6"></polyline><polyline points="37.19512195121951,32.16463414634146 37.042682926829265,32.266260162601625 36.9410569105691,32.36788617886179 36.78861788617886,32.52032520325203 36.636178861788615,32.6219512195122 36.43292682926829,32.77439024390244 36.28048780487805,32.8760162601626 36.1280487804878,33.02845528455285 35.97560975609756,33.18089430894309 35.823170731707314,33.333333333333336 35.61991869918699,33.53658536585366 35.416666666666664,33.6890243902439 35.36585365853659,33.790650406504064 35.264227642276424,33.892276422764226 35.0609756097561,34.09552845528455 34.90853658536585,34.298780487804876 34.70528455284553,34.552845528455286 34.5020325203252,34.75609756097561 34.34959349593496,34.959349593495936 34.146341463414636,35.16260162601626 33.99390243902439,35.416666666666664 33.790650406504064,35.61991869918699 33.63821138211382,35.8739837398374 33.4349593495935,36.1280487804878 33.28252032520325,36.38211382113821 33.13008130081301,36.58536585365854 32.97764227642276,36.83943089430894 32.82520325203252,37.042682926829265 32.672764227642276,37.296747967479675 32.46951219512195,37.55081300813008 32.3170731707317,37.80487804878049 32.16463414634146,38.05894308943089 32.012195121951216,38.36382113821138 31.859756097560975,38.61788617886179 31.758130081300813,38.87195121951219 31.65650406504065,39.07520325203252 31.504065040650406,39.27845528455285 31.402439024390244,39.48170731707317 31.30081300813008,39.735772357723576 31.148373983739837,39.9390243902439 31.046747967479675,40.19308943089431 30.89430894308943,40.4979674796748 30.79268292682927,40.701219512195124 30.691056910569106,40.95528455284553 30.589430894308943,41.15853658536585 30.48780487804878,41.3109756097561 30.38617886178862,41.46341463414634 30.335365853658537,41.61585365853659 30.233739837398375,41.76829268292683 30.182926829268293,41.97154471544715 30.08130081300813,42.17479674796748" fill="none" stroke="black" stroke-width="0.6"></polyline><polyline points="30.08130081300813,42.17479674796748 29.979674796747968,42.42886178861789 29.878048780487806,42.733739837398375 29.725609756097562,43.03861788617886 29.6239837398374,43.34349593495935 29.522357723577237,43.546747967479675 29.420731707317074,43.80081300813008 29.369918699186993,43.90243902439024 29.31910569105691,43.953252032520325 29.31910569105691,44.05487804878049 29.217479674796746,44.25813008130081 29.115853658536583,44.5630081300813 29.01422764227642,45.02032520325203 28.861788617886177,45.47764227642276 28.709349593495933,45.9349593495935 28.506097560975608,46.392276422764226 28.353658536585364,46.646341463414636 28.2520325203252,46.90040650406504 28.099593495934958,47.30691056910569 27.997967479674795,47.764227642276424 27.84552845528455,48.170731707317074 27.74390243902439,48.52642276422764 27.642276422764226,48.83130081300813 27.489837398373982,49.23780487804878 27.38821138211382,49.69512195121951 27.235772357723576,50.05081300813008 27.134146341463413,50.45731707317073 26.98170731707317,50.91463414634146 26.93089430894309,51.32113821138211 26.829268292682926,51.67682926829268 26.778455284552845,51.93089430894309 26.778455284552845,52.03252032520325 26.778455284552845,52.1849593495935 26.778455284552845,52.28658536585366 26.778455284552845,52.4390243902439 26.778455284552845,52.59146341463415 26.829268292682926,52.79471544715447 26.880081300813007,52.9979674796748 26.93089430894309,53.353658536585364 27.03252032520325,53.8109756097561 27.083333333333332,54.26829268292683 27.184959349593495,54.72560975609756 27.235772357723576,55.18292682926829 27.33739837398374,55.48780487804878 27.38821138211382,55.74186991869919 27.4390243902439,56.046747967479675 27.489837398373982,56.30081300813008 27.540650406504064,56.55487804878049 27.591463414634145,56.70731707317073 27.591463414634145,56.859756097560975 27.642276422764226,57.0630081300813" fill="none" stroke="black" stroke-width="0.6"></polyline><polyline points="27.642276422764226,57.0630081300813 27.74390243902439,57.3170731707317 27.79471544715447,57.57113821138211 27.896341463414632,57.8760162601626 28.048780487804876,58.18089430894309 28.15040650406504,58.536585365853654 28.302845528455283,58.94308943089431 28.455284552845526,59.40040650406504 28.55691056910569,59.75609756097561 28.65853658536585,60.11178861788618 28.709349593495933,60.51829268292683 28.810975609756095,60.8739837398374 28.912601626016258,61.229674796747965 28.96341463414634,61.58536585365854 29.0650406504065,61.83943089430894 29.115853658536583,62.042682926829265 29.217479674796746,62.24593495934959 29.31910569105691,62.5 29.471544715447155,62.703252032520325 29.6239837398374,62.95731707317073 29.725609756097562,63.16056910569105 29.827235772357724,63.3130081300813 29.928861788617887,63.516260162601625 30.03048780487805,63.668699186991866 30.132113821138212,63.87195121951219 30.233739837398375,64.07520325203252 30.335365853658537,64.22764227642276 30.4369918699187,64.32926829268293 30.538617886178862,64.48170731707317 30.691056910569106,64.6849593495935 30.84349593495935,64.9390243902439 31.046747967479675,65.1930894308943 31.19918699186992,65.39634146341463 31.351626016260163,65.59959349593495 31.453252032520325,65.80284552845528 31.60569105691057,66.0060975609756 31.808943089430894,66.26016260162602 31.961382113821138,66.41260162601625 32.0630081300813,66.51422764227642 32.21544715447154,66.61585365853658 32.36788617886179,66.71747967479675 32.52032520325203,66.869918699187 32.672764227642276,66.97154471544715 32.82520325203252,67.1239837398374 32.97764227642276,67.27642276422765 33.18089430894309,67.42886178861788 33.333333333333336,67.53048780487805 33.485772357723576,67.6829268292683 33.6890243902439,67.83536585365853 33.84146341463415,67.98780487804878 34.04471544715447,68.14024390243902" fill="none" stroke="black" stroke-width="0.6"></polyline><polyline points="34.04471544715447,68.14024390243902 34.2479674796748,68.29268292682927 34.40040650406504,68.39430894308943 34.552845528455286,68.4959349593496 34.70528455284553,68.64837398373983 34.857723577235774,68.80081300813008 35.010162601626014,68.90243902439025 35.21341463414634,69.05487804878048 35.36585365853659,69.15650406504065 35.56910569105691,69.3089430894309 35.823170731707314,69.46138211382113 36.077235772357724,69.61382113821138 36.28048780487805,69.76626016260163 36.53455284552845,69.91869918699187 36.73780487804878,70.02032520325203 36.9410569105691,70.1219512195122 37.14430894308943,70.22357723577235 37.34756097560975,70.32520325203252 37.55081300813008,70.3760162601626 37.7540650406504,70.47764227642276 38.00813008130081,70.52845528455285 38.262195121951216,70.630081300813 38.516260162601625,70.73170731707317 38.71951219512195,70.83333333333333 38.97357723577235,70.9349593495935 39.22764227642276,71.03658536585365 39.43089430894309,71.13821138211382 39.63414634146341,71.1890243902439 39.88821138211382,71.23983739837398 40.09146341463415,71.29065040650406 40.29471544715447,71.34146341463415 40.548780487804876,71.4430894308943 40.802845528455286,71.49390243902438 41.05691056910569,71.54471544715447 41.209349593495936,71.59552845528455 41.3109756097561,71.64634146341463 41.61585365853659,71.79878048780488 41.86991869918699,71.90040650406505 42.17479674796748,72.0020325203252 42.479674796747965,72.05284552845528 42.83536585365854,72.15447154471545 43.140243902439025,72.2560975609756 43.49593495934959,72.35772357723577 43.85162601626016,72.51016260162602 44.15650406504065,72.71341463414635 44.512195121951216,72.91666666666667 44.918699186991866,73.119918699187 45.325203252032516,73.27235772357723 45.68089430894309,73.42479674796748 46.03658536585366,73.52642276422765 46.392276422764226,73.67886178861788" fill="none" stroke="black" stroke-width="0.6"></polyline><polyline points="46.392276422764226,73.67886178861788 46.7479674796748,73.78048780487805 47.20528455284553,73.9329268292683 47.5609756097561,74.03455284552845 47.916666666666664,74.1869918699187 48.323170731707314,74.28861788617886 48.6280487804878,74.33943089430895 48.78048780487805,74.39024390243902 48.93292682926829,74.4410569105691 49.28861788617886,74.54268292682927 49.4410569105691,74.54268292682927 49.74593495934959,74.59349593495935 50.05081300813008,74.64430894308943 50.2540650406504,74.64430894308943 50.50813008130081,74.6951219512195 50.8130081300813,74.6951219512195 50.91463414634146,74.6951219512195 51.11788617886179,74.6951219512195 51.37195121951219,74.6951219512195 51.6260162601626,74.6951219512195 51.93089430894309,74.6951219512195 52.03252032520325,74.6951219512195 52.1849593495935,74.6951219512195 52.4390243902439,74.7459349593496 52.59146341463415,74.7459349593496 52.896341463414636,74.7459349593496 52.9979674796748,74.7459349593496 53.2520325203252,74.7459349593496 53.50609756097561,74.7459349593496 53.760162601626014,74.6951219512195 53.86178861788618,74.6951219512195 54.014227642276424,74.6951219512195 54.31910569105691,74.6951219512195 54.573170731707314,74.6951219512195 54.8780487804878,74.6951219512195 55.03048780487805,74.6951219512195 55.28455284552845,74.6951219512195 55.53861788617886,74.6951219512195 55.6910569105691,74.6951219512195 55.94512195121951,74.64430894308943 56.199186991869915,74.64430894308943 56.30081300813008,74.59349593495935 56.453252032520325,74.59349593495935 56.70731707317073,74.54268292682927 56.80894308943089,74.49186991869918 56.91056910569105,74.49186991869918 57.16463414634146,74.4410569105691 57.3170731707317,74.39024390243902 57.418699186991866,74.39024390243902 57.52032520325203,74.33943089430895 57.672764227642276,74.33943089430895" fill="none" stroke="black" stroke-width="0.6"></polyline><polyline points="57.672764227642276,74.33943089430895 57.92682926829268,74.28861788617886 58.079268292682926,74.28861788617886 58.18089430894309,74.23780487804878 58.43495934959349,74.1869918699187 58.739837398373986,74.13617886178862 58.99390243902439,74.08536585365853 59.09552845528455,74.03455284552845 59.451219512195124,73.9329268292683 59.75609756097561,73.8821138211382 59.959349593495936,73.78048780487805 60.21341463414634,73.72967479674797 60.46747967479675,73.6280487804878 60.72154471544715,73.57723577235772 60.97560975609756,73.52642276422765 61.229674796747965,73.42479674796748 61.43292682926829,73.3739837398374 61.6869918699187,73.32317073170732 61.890243902439025,73.22154471544715 62.14430894308943,73.17073170731707 62.34756097560975,73.0691056910569 62.55081300813008,72.96747967479675 62.65243902439024,72.91666666666667 63.00813008130081,72.8150406504065 63.21138211382114,72.76422764227642 63.3130081300813,72.71341463414635 63.41463414634146,72.66260162601625 63.61788617886179,72.5609756097561 63.82113821138211,72.45934959349593 64.02439024390243,72.35772357723577 64.22764227642276,72.2560975609756 64.32926829268293,72.20528455284553 64.43089430894308,72.15447154471545 64.58333333333333,72.05284552845528 64.78658536585365,71.95121951219512 64.98983739837398,71.90040650406505 65.1930894308943,71.79878048780488 65.39634146341463,71.69715447154472 65.54878048780488,71.59552845528455 65.7520325203252,71.49390243902438 65.90447154471545,71.39227642276423 66.0569105691057,71.29065040650406 66.26016260162602,71.1890243902439 66.41260162601625,71.08739837398373 66.61585365853658,70.98577235772358 66.76829268292683,70.8841463414634 66.97154471544715,70.78252032520325 67.1239837398374,70.68089430894308 67.27642276422765,70.57926829268293 67.42886178861788,70.47764227642276 67.6321138211382,70.3760162601626" fill="none" stroke="black" stroke-width="0.6"></polyline><polyline points="67.6321138211382,70.3760162601626 67.73373983739837,70.27439024390243 67.9369918699187,70.1219512195122 68.08943089430895,70.0711382113821 68.24186991869918,69.96951219512195 68.39430894308943,69.8170731707317 68.54674796747967,69.71544715447155 68.69918699186992,69.61382113821138 68.90243902439025,69.51219512195122 69.05487804878048,69.35975609756098 69.20731707317073,69.2581300813008 69.35975609756098,69.10569105691057 69.51219512195122,69.0040650406504 69.61382113821138,68.85162601626016 69.76626016260163,68.69918699186992 69.86788617886178,68.64837398373983 69.91869918699187,68.54674796747967 70.0711382113821,68.39430894308943 70.22357723577235,68.1910569105691 70.32520325203252,68.03861788617886 70.47764227642276,67.83536585365853 70.630081300813,67.6829268292683 70.78252032520325,67.47967479674797 70.9349593495935,67.32723577235772 71.13821138211382,67.17479674796748 71.29065040650406,67.02235772357723 71.4430894308943,66.869918699187 71.59552845528455,66.66666666666667 71.69715447154472,66.46341463414635 71.84959349593495,66.26016260162602 72.0020325203252,66.0569105691057 72.15447154471545,65.90447154471545 72.3069105691057,65.70121951219512 72.45934959349593,65.54878048780488 72.61178861788618,65.39634146341463 72.76422764227642,65.2439024390244 72.86585365853658,65.09146341463415 73.01829268292683,64.9390243902439 73.17073170731707,64.78658536585365 73.32317073170732,64.6341463414634 73.42479674796748,64.48170731707317 73.52642276422765,64.380081300813 73.57723577235772,64.27845528455285 73.72967479674797,64.1260162601626 73.83130081300813,63.922764227642276 73.98373983739837,63.77032520325203 74.08536585365853,63.5670731707317 74.1869918699187,63.41463414634146 74.28861788617886,63.262195121951216 74.4410569105691,63.05894308943089 74.54268292682927,62.855691056910565" fill="none" stroke="black" stroke-width="0.6"></polyline><polyline points="74.54268292682927,62.855691056910565 74.59349593495935,62.703252032520325 74.7459349593496,62.449186991869915 74.79674796747967,62.24593495934959 74.89837398373983,62.042682926829265 75,61.78861788617886 75.10162601626016,61.58536585365854 75.20325203252033,61.38211382113821 75.30487804878048,61.17886178861789 75.40650406504065,61.02642276422764 75.5081300813008,60.8739837398374 75.5589430894309,60.72154471544715 75.66056910569105,60.56910569105691 75.76219512195122,60.36585365853659 75.8130081300813,60.21341463414634 75.86382113821138,60.0609756097561 75.96544715447155,59.80691056910569 76.01626016260163,59.603658536585364 76.0670731707317,59.451219512195124 76.16869918699187,59.2479674796748 76.21951219512195,59.04471544715447 76.27032520325203,58.892276422764226 76.3211382113821,58.739837398373986 76.3719512195122,58.58739837398374 76.42276422764228,58.485772357723576 76.47357723577235,58.33333333333333 76.52439024390243,58.18089430894309 76.57520325203252,58.079268292682926 76.6260162601626,57.8760162601626 76.6260162601626,57.72357723577235 76.67682926829268,57.57113821138211 76.72764227642276,57.418699186991866 76.72764227642276,57.3170731707317 76.77845528455285,57.21544715447154 76.77845528455285,57.0630081300813 76.82926829268293,56.96138211382114 76.82926829268293,56.859756097560975 76.82926829268293,56.70731707317073 76.880081300813,56.55487804878049 76.880081300813,56.40243902439024 76.93089430894308,56.25 76.93089430894308,56.09756097560975 76.98170731707317,55.94512195121951 77.03252032520325,55.792682926829265 77.03252032520325,55.640243902439025 77.08333333333333,55.48780487804878 77.08333333333333,55.33536585365854 77.1341463414634,55.18292682926829 77.1341463414634,55.03048780487805 77.1849593495935,54.8780487804878 77.1849593495935,54.72560975609756" fill="none" stroke="black" stroke-width="0.6"></polyline><polyline points="77.1849593495935,54.72560975609756 77.23577235772358,54.573170731707314 77.23577235772358,54.420731707317074 77.23577235772358,54.26829268292683 77.28658536585365,54.0650406504065 77.28658536585365,53.91260162601626 77.28658536585365,53.709349593495936 77.28658536585365,53.607723577235774 77.28658536585365,53.50609756097561 77.28658536585365,53.201219512195124 77.28658536585365,52.947154471544714 77.28658536585365,52.642276422764226 77.23577235772358,52.33739837398374 77.23577235772358,52.03252032520325 77.23577235772358,51.77845528455284 77.23577235772358,51.575203252032516 77.23577235772358,51.422764227642276 77.23577235772358,51.21951219512195 77.23577235772358,51.0670731707317 77.23577235772358,50.96544715447154 77.28658536585365,50.762195121951216 77.28658536585365,50.55894308943089 77.28658536585365,50.40650406504065 77.28658536585365,50.2540650406504 77.33739837398373,50.10162601626016 77.33739837398373,50.05081300813008 77.33739837398373,50.05081300813008 77.33739837398373,50.05081300813008 77.33739837398373,50.05081300813008 77.33739837398373,50.10162601626016 77.33739837398373,50.15243902439024 77.33739837398373,50.203252032520325 77.33739837398373,50.30487804878049" fill="none" stroke="black" stroke-width="0.6"></polyline></svg>