<svg height="100" width="100" preserveAspectRatio="xMidYMid meet"><polyline points="50.203252032520325,49.59349593495935 50.203252032520325,49.59349593495935 50.203252032520325,49.542682926829265 50.203252032520325,49.542682926829265 50.203252032520325,49.49186991869919 50.2540650406504,49.49186991869919 50.2540650406504,49.4410569105691 50.30487804878049,49.390243902439025 50.30487804878049,49.33943089430894 50.355691056910565,49.33943089430894 50.355691056910565,49.28861788617886 50.45731707317073,49.1869918699187 50.45731707317073,49.136178861788615 50.50813008130081,49.08536585365854 50.55894308943089,48.983739837398375 50.609756097560975,48.88211382113821 50.66056910569105,48.78048780487805 50.71138211382114,48.67886178861789 50.71138211382114,48.47560975609756 50.762195121951216,48.3739837398374 50.762195121951216,48.27235772357724 50.762195121951216,48.11991869918699 50.762195121951216,47.86585365853659 50.762195121951216,47.66260162601626 50.762195121951216,47.510162601626014 50.762195121951216,47.40853658536585 50.762195121951216,47.20528455284553 50.762195121951216,46.951219512195124 50.762195121951216,46.7479674796748 50.71138211382114,46.646341463414636 50.71138211382114,46.49390243902439 50.71138211382114,46.239837398373986 50.66056910569105,46.08739837398374 50.66056910569105,45.985772357723576 50.66056910569105,45.88414634146341 50.66056910569105,45.78252032520325 50.609756097560975,45.68089430894309 50.55894308943089,45.52845528455285 50.55894308943089,45.3760162601626 50.50813008130081,45.325203252032516 50.50813008130081,45.22357723577235 50.45731707317073,45.12195121951219 50.40650406504065,44.918699186991866 50.40650406504065,44.766260162601625 50.355691056910565,44.71544715447154 50.30487804878049,44.5630081300813 50.30487804878049,44.46138211382114 50.2540650406504,44.359756097560975 50.203252032520325,44.30894308943089 50.15243902439024,44.20731707317073 50.05081300813008,44.105691056910565" fill="none" stroke="black" stroke-width="0.6"></polyline><polyline points="50.05081300813008,44.105691056910565 50.05081300813008,44.05487804878049 50,44.0040650406504 49.89837398373984,43.85162601626016 49.84756097560975,43.80081300813008 49.74593495934959,43.699186991869915 49.64430894308943,43.59756097560975 49.64430894308943,43.546747967479675 49.59349593495935,43.49593495934959 49.542682926829265,43.44512195121951 49.4410569105691,43.34349593495935 49.390243902439025,43.34349593495935 49.33943089430894,43.292682926829265 49.23780487804878,43.24186991869919 49.136178861788615,43.1910569105691 49.03455284552845,43.140243902439025 48.983739837398375,43.140243902439025 48.93292682926829,43.08943089430894 48.83130081300813,43.08943089430894 48.729674796747965,43.03861788617886 48.577235772357724,43.03861788617886 48.47560975609756,42.98780487804878 48.3739837398374,42.98780487804878 48.22154471544715,42.98780487804878 48.170731707317074,42.98780487804878 48.11991869918699,42.98780487804878 48.01829268292683,42.98780487804878 47.96747967479675,42.98780487804878 47.86585365853659,42.98780487804878 47.8150406504065,42.98780487804878 47.764227642276424,42.98780487804878 47.71341463414634,42.98780487804878 47.71341463414634,42.98780487804878 47.66260162601626,42.98780487804878 47.61178861788618,42.98780487804878 47.5609756097561,42.98780487804878 47.510162601626014,42.98780487804878 47.459349593495936,43.03861788617886 47.357723577235774,43.03861788617886 47.357723577235774,43.03861788617886 47.30691056910569,43.03861788617886 47.25609756097561,43.08943089430894 47.15447154471545,43.08943089430894 47.052845528455286,43.08943089430894 46.951219512195124,43.140243902439025 46.90040650406504,43.140243902439025 46.84959349593496,43.140243902439025 46.7479674796748,43.1910569105691 46.697154471544714,43.24186991869919 46.59552845528455,43.24186991869919 46.49390243902439,43.292682926829265" fill="none" stroke="black" stroke-width="0.6"></polyline><polyline points="46.49390243902439,43.292682926829265 46.392276422764226,43.34349593495935 46.239837398373986,43.34349593495935 46.1890243902439,43.39430894308943 46.1890243902439,43.39430894308943 46.08739837398374,43.44512195121951 46.03658536585366,43.49593495934959 45.985772357723576,43.49593495934959 45.88414634146341,43.546747967479675 45.78252032520325,43.64837398373984 45.63008130081301,43.699186991869915 45.63008130081301,43.75 45.47764227642276,43.80081300813008 45.3760162601626,43.85162601626016 45.325203252032516,43.90243902439024 45.27439024390244,43.953252032520325 45.22357723577235,44.0040650406504 45.12195121951219,44.05487804878049 45.07113821138211,44.105691056910565 45.02032520325203,44.105691056910565 44.918699186991866,44.20731707317073 44.8170731707317,44.25813008130081 44.766260162601625,44.30894308943089 44.71544715447154,44.359756097560975 44.61382113821138,44.359756097560975 44.61382113821138,44.41056910569105 44.512195121951216,44.46138211382114 44.46138211382114,44.46138211382114 44.46138211382114,44.512195121951216 44.359756097560975,44.5630081300813 44.30894308943089,44.61382113821138 44.25813008130081,44.66463414634146 44.20731707317073,44.71544715447154 44.15650406504065,44.71544715447154 44.105691056910565,44.766260162601625 44.05487804878049,44.8170731707317 44.0040650406504,44.86788617886179 43.953252032520325,44.918699186991866 43.90243902439024,44.96951219512195 43.85162601626016,45.02032520325203 43.80081300813008,45.07113821138211 43.75,45.12195121951219 43.699186991869915,45.12195121951219 43.64837398373984,45.22357723577235 43.546747967479675,45.27439024390244 43.44512195121951,45.3760162601626 43.44512195121951,45.3760162601626 43.39430894308943,45.42682926829268 43.292682926829265,45.52845528455285 43.1910569105691,45.579268292682926 43.08943089430894,45.68089430894309" fill="none" stroke="black" stroke-width="0.6"></polyline><polyline points="43.08943089430894,45.68089430894309 42.98780487804878,45.73170731707317 42.9369918699187,45.833333333333336 42.83536585365854,45.88414634146341 42.78455284552845,45.9349593495935 42.733739837398375,45.985772357723576 42.63211382113821,46.03658536585366 42.63211382113821,46.08739837398374 42.58130081300813,46.13821138211382 42.53048780487805,46.1890243902439 42.479674796747965,46.239837398373986 42.3780487804878,46.34146341463415 42.27642276422764,46.44308943089431 42.22560975609756,46.54471544715447 42.1239837398374,46.59552845528455 42.1239837398374,46.646341463414636 42.02235772357724,46.7479674796748 41.97154471544715,46.84959349593496 41.86991869918699,46.951219512195124 41.76829268292683,47.103658536585364 41.666666666666664,47.20528455284553 41.5650406504065,47.40853658536585 41.46341463414634,47.5609756097561 41.36178861788618,47.764227642276424 41.3109756097561,47.8150406504065 41.260162601626014,47.916666666666664 41.260162601626014,48.01829268292683 41.15853658536585,48.170731707317074 41.107723577235774,48.27235772357724 41.05691056910569,48.3739837398374 41.00609756097561,48.52642276422764 40.95528455284553,48.6280487804878 40.90447154471545,48.729674796747965 40.802845528455286,48.93292682926829 40.7520325203252,49.08536585365854 40.701219512195124,49.23780487804878 40.65040650406504,49.390243902439025 40.59959349593496,49.49186991869919 40.59959349593496,49.542682926829265 40.548780487804876,49.69512195121951 40.4979674796748,49.796747967479675 40.4979674796748,49.89837398373984 40.447154471544714,50.10162601626016 40.447154471544714,50.203252032520325 40.396341463414636,50.30487804878049 40.34552845528455,50.55894308943089 40.34552845528455,50.71138211382114 40.29471544715447,50.91463414634146 40.29471544715447,51.0670731707317 40.29471544715447,51.11788617886179 40.29471544715447,51.168699186991866" fill="none" stroke="black" stroke-width="0.6"></polyline><polyline points="40.29471544715447,51.168699186991866 40.29471544715447,51.27032520325203 40.29471544715447,51.32113821138211 40.29471544715447,51.37195121951219 40.29471544715447,51.47357723577235 40.29471544715447,51.52439024390244 40.29471544715447,51.52439024390244 40.29471544715447,51.575203252032516 40.29471544715447,51.6260162601626 40.29471544715447,51.72764227642276 40.34552845528455,51.829268292682926 40.34552845528455,51.93089430894309 40.396341463414636,52.03252032520325 40.396341463414636,52.083333333333336 40.396341463414636,52.1849593495935 40.447154471544714,52.235772357723576 40.447154471544714,52.38821138211382 40.4979674796748,52.540650406504064 40.4979674796748,52.59146341463415 40.548780487804876,52.69308943089431 40.548780487804876,52.74390243902439 40.59959349593496,52.896341463414636 40.59959349593496,53.048780487804876 40.65040650406504,53.201219512195124 40.65040650406504,53.2520325203252 40.701219512195124,53.302845528455286 40.701219512195124,53.45528455284553 40.7520325203252,53.50609756097561 40.802845528455286,53.607723577235774 40.802845528455286,53.760162601626014 40.853658536585364,53.86178861788618 40.90447154471545,53.91260162601626 40.90447154471545,54.014227642276424 40.95528455284553,54.166666666666664 41.00609756097561,54.26829268292683 41.05691056910569,54.420731707317074 41.107723577235774,54.52235772357724 41.15853658536585,54.6239837398374 41.209349593495936,54.67479674796748 41.260162601626014,54.77642276422764 41.3109756097561,54.92886178861789 41.36178861788618,55.08130081300813 41.41260162601626,55.18292682926829 41.46341463414634,55.33536585365854 41.514227642276424,55.48780487804878 41.5650406504065,55.640243902439025 41.61585365853659,55.74186991869919 41.666666666666664,55.84349593495935 41.71747967479675,55.94512195121951 41.76829268292683,56.046747967479675 41.81910569105691,56.09756097560975" fill="none" stroke="black" stroke-width="0.6"></polyline><polyline points="41.81910569105691,56.09756097560975 41.81910569105691,56.14837398373984 41.86991869918699,56.199186991869915 41.97154471544715,56.30081300813008 42.02235772357724,56.35162601626016 42.02235772357724,56.40243902439024 42.1239837398374,56.5040650406504 42.17479674796748,56.55487804878049 42.22560975609756,56.605691056910565 42.327235772357724,56.75813008130081 42.3780487804878,56.859756097560975 42.479674796747965,57.012195121951216 42.58130081300813,57.0630081300813 42.63211382113821,57.11382113821138 42.68292682926829,57.16463414634146 42.733739837398375,57.21544715447154 42.83536585365854,57.3170731707317 42.98780487804878,57.36788617886179 43.08943089430894,57.46951219512195 43.140243902439025,57.52032520325203 43.1910569105691,57.57113821138211 43.34349593495935,57.62195121951219 43.39430894308943,57.672764227642276 43.546747967479675,57.77439024390244 43.64837398373984,57.8760162601626 43.75,57.92682926829268 43.85162601626016,57.97764227642276 43.90243902439024,58.079268292682926 44.105691056910565,58.18089430894309 44.20731707317073,58.231707317073166 44.30894308943089,58.28252032520325 44.46138211382114,58.33333333333333 44.512195121951216,58.33333333333333 44.61382113821138,58.38414634146341 44.766260162601625,58.43495934959349 44.8170731707317,58.43495934959349 45.02032520325203,58.485772357723576 45.172764227642276,58.485772357723576 45.22357723577235,58.536585365853654 45.27439024390244,58.536585365853654 45.42682926829268,58.536585365853654 45.579268292682926,58.58739837398374 45.68089430894309,58.58739837398374 45.833333333333336,58.58739837398374 45.985772357723576,58.58739837398374 46.13821138211382,58.63821138211382 46.239837398373986,58.63821138211382 46.44308943089431,58.63821138211382 46.59552845528455,58.63821138211382 46.7479674796748,58.63821138211382 46.90040650406504,58.63821138211382" fill="none" stroke="black" stroke-width="0.6"></polyline><polyline points="46.90040650406504,58.63821138211382 47.052845528455286,58.63821138211382 47.20528455284553,58.63821138211382 47.40853658536585,58.63821138211382 47.5609756097561,58.63821138211382 47.71341463414634,58.63821138211382 47.916666666666664,58.63821138211382 48.06910569105691,58.63821138211382 48.22154471544715,58.63821138211382 48.3739837398374,58.63821138211382 48.52642276422764,58.63821138211382 48.67886178861789,58.63821138211382 48.83130081300813,58.63821138211382 48.983739837398375,58.58739837398374 49.136178861788615,58.58739837398374 49.28861788617886,58.536585365853654 49.4410569105691,58.536585365853654 49.59349593495935,58.485772357723576 49.74593495934959,58.43495934959349 49.89837398373984,58.38414634146341 50,58.38414634146341 50.15243902439024,58.33333333333333 50.30487804878049,58.28252032520325 50.45731707317073,58.231707317073166 50.609756097560975,58.231707317073166 50.762195121951216,58.18089430894309 50.91463414634146,58.130081300813 51.0670731707317,58.079268292682926 51.21951219512195,58.079268292682926 51.422764227642276,58.02845528455284 51.575203252032516,57.97764227642276 51.77845528455284,57.97764227642276 51.93089430894309,57.92682926829268 52.13414634146341,57.92682926829268 52.33739837398374,57.8760162601626 52.489837398373986,57.825203252032516 52.59146341463415,57.825203252032516 52.642276422764226,57.77439024390244 52.84552845528455,57.77439024390244 52.9979674796748,57.72357723577235 53.15040650406504,57.672764227642276 53.302845528455286,57.62195121951219 53.45528455284553,57.57113821138211 53.607723577235774,57.52032520325203 53.709349593495936,57.46951219512195 53.91260162601626,57.36788617886179 54.0650406504065,57.3170731707317 54.21747967479675,57.21544715447154 54.36991869918699,57.11382113821138 54.52235772357724,57.0630081300813 54.67479674796748,56.96138211382114" fill="none" stroke="black" stroke-width="0.6"></polyline><polyline points="54.67479674796748,56.96138211382114 54.827235772357724,56.91056910569105 54.8780487804878,56.859756097560975 55.08130081300813,56.70731707317073 55.18292682926829,56.65650406504065 55.33536585365854,56.55487804878049 55.48780487804878,56.453252032520325 55.58943089430894,56.35162601626016 55.74186991869919,56.25 55.89430894308943,56.14837398373984 55.99593495934959,56.046747967479675 56.14837398373984,55.94512195121951 56.25,55.84349593495935 56.40243902439024,55.74186991869919 56.5040650406504,55.640243902439025 56.605691056910565,55.53861788617886 56.75813008130081,55.4369918699187 56.859756097560975,55.33536585365854 56.96138211382114,55.233739837398375 57.11382113821138,55.08130081300813 57.21544715447154,54.979674796747965 57.36788617886179,54.8780487804878 57.46951219512195,54.72560975609756 57.57113821138211,54.6239837398374 57.672764227642276,54.52235772357724 57.77439024390244,54.420731707317074 57.8760162601626,54.31910569105691 57.97764227642276,54.21747967479675 58.02845528455284,54.11585365853659 58.079268292682926,54.014227642276424 58.18089430894309,53.91260162601626 58.231707317073166,53.8109756097561 58.28252032520325,53.760162601626014 58.28252032520325,53.65853658536585 58.33333333333333,53.55691056910569 58.43495934959349,53.40447154471545 58.485772357723576,53.302845528455286 58.536585365853654,53.15040650406504 58.536585365853654,53.048780487804876 58.58739837398374,52.947154471544714 58.63821138211382,52.84552845528455 58.63821138211382,52.74390243902439 58.6890243902439,52.642276422764226 58.6890243902439,52.489837398373986 58.6890243902439,52.28658536585366 58.739837398373986,52.083333333333336 58.739837398373986,51.880081300813 58.739837398373986,51.6260162601626 58.790650406504064,51.37195121951219 58.790650406504064,51.168699186991866 58.84146341463415,50.96544715447154" fill="none" stroke="black" stroke-width="0.6"></polyline><polyline points="58.84146341463415,50.96544715447154 58.84146341463415,50.8130081300813 58.84146341463415,50.609756097560975 58.892276422764226,50.40650406504065 58.892276422764226,50.203252032520325 58.892276422764226,49.949186991869915 58.94308943089431,49.69512195121951 58.99390243902439,49.390243902439025 58.99390243902439,49.136178861788615 59.04471544715447,48.93292682926829 59.04471544715447,48.729674796747965 59.04471544715447,48.52642276422764 59.09552845528455,48.3739837398374 59.09552845528455,48.22154471544715 59.09552845528455,48.06910569105691 59.09552845528455,47.916666666666664 59.09552845528455,47.71341463414634 59.09552845528455,47.510162601626014 59.09552845528455,47.20528455284553 59.09552845528455,46.84959349593496 59.09552845528455,46.59552845528455 59.09552845528455,46.49390243902439 59.09552845528455,46.34146341463415 59.09552845528455,46.290650406504064 59.09552845528455,46.239837398373986 59.04471544715447,46.1890243902439 58.99390243902439,46.13821138211382 58.99390243902439,46.03658536585366 58.94308943089431,45.985772357723576 58.94308943089431,45.88414634146341 58.892276422764226,45.73170731707317 58.892276422764226,45.579268292682926 58.84146341463415,45.42682926829268 58.790650406504064,45.22357723577235 58.739837398373986,44.96951219512195 58.6890243902439,44.8170731707317 58.63821138211382,44.61382113821138 58.58739837398374,44.512195121951216 58.485772357723576,44.359756097560975 58.38414634146341,44.20731707317073 58.33333333333333,44.05487804878049 58.231707317073166,43.85162601626016 58.130081300813,43.64837398373984 58.079268292682926,43.39430894308943 58.02845528455284,43.24186991869919 57.97764227642276,43.08943089430894 57.8760162601626,42.83536585365854 57.77439024390244,42.58130081300813 57.672764227642276,42.3780487804878 57.52032520325203,42.17479674796748 57.36788617886179,42.073170731707314" fill="none" stroke="black" stroke-width="0.6"></polyline><polyline points="57.36788617886179,42.073170731707314 57.21544715447154,41.920731707317074 57.0630081300813,41.76829268292683 56.96138211382114,41.61585365853659 56.80894308943089,41.514227642276424 56.70731707317073,41.3109756097561 56.55487804878049,41.15853658536585 56.453252032520325,40.95528455284553 56.30081300813008,40.7520325203252 56.199186991869915,40.59959349593496 56.046747967479675,40.447154471544714 55.89430894308943,40.34552845528455 55.74186991869919,40.24390243902439 55.58943089430894,40.142276422764226 55.386178861788615,40.040650406504064 55.28455284552845,39.9390243902439 55.13211382113821,39.83739837398374 54.979674796747965,39.735772357723576 54.827235772357724,39.63414634146341 54.72560975609756,39.48170731707317 54.52235772357724,39.38008130081301 54.36991869918699,39.22764227642276 54.21747967479675,39.1260162601626 54.014227642276424,38.97357723577235 53.86178861788618,38.922764227642276 53.760162601626014,38.87195121951219 53.65853658536585,38.82113821138211 53.50609756097561,38.77032520325203 53.353658536585364,38.71951219512195 53.15040650406504,38.61788617886179 53.048780487804876,38.5670731707317 52.896341463414636,38.516260162601625 52.74390243902439,38.41463414634146 52.642276422764226,38.36382113821138 52.489837398373986,38.3130081300813 52.33739837398374,38.262195121951216 52.1849593495935,38.21138211382114 52.03252032520325,38.21138211382114 51.880081300813,38.16056910569105 51.72764227642276,38.109756097560975 51.575203252032516,38.109756097560975 51.422764227642276,38.05894308943089 51.32113821138211,38.05894308943089 51.168699186991866,38.00813008130081 51.016260162601625,38.00813008130081 50.8130081300813,37.95731707317073 50.762195121951216,37.95731707317073 50.66056910569105,37.95731707317073 50.45731707317073,37.95731707317073 50.30487804878049,37.95731707317073 50.10162601626016,37.95731707317073" fill="none" stroke="black" stroke-width="0.6"></polyline><polyline points="50.10162601626016,37.95731707317073 49.949186991869915,38.00813008130081 49.74593495934959,38.00813008130081 49.59349593495935,38.00813008130081 49.390243902439025,38.00813008130081 49.23780487804878,38.05894308943089 49.03455284552845,38.05894308943089 48.83130081300813,38.05894308943089 48.67886178861789,38.109756097560975 48.47560975609756,38.109756097560975 48.22154471544715,38.16056910569105 48.06910569105691,38.21138211382114 47.86585365853659,38.21138211382114 47.61178861788618,38.262195121951216 47.459349593495936,38.3130081300813 47.25609756097561,38.36382113821138 47.052845528455286,38.36382113821138 46.84959349593496,38.41463414634146 46.646341463414636,38.41463414634146 46.44308943089431,38.46544715447154 46.1890243902439,38.516260162601625 45.985772357723576,38.61788617886179 45.73170731707317,38.71951219512195 45.52845528455285,38.82113821138211 45.27439024390244,38.922764227642276 45.02032520325203,39.02439024390244 44.766260162601625,39.1260162601626 44.61382113821138,39.176829268292686 44.512195121951216,39.22764227642276 44.20731707317073,39.329268292682926 43.953252032520325,39.43089430894309 43.75,39.53252032520325 43.49593495934959,39.583333333333336 43.292682926829265,39.6849593495935 43.08943089430894,39.78658536585366 42.83536585365854,39.88821138211382 42.63211382113821,39.9390243902439 42.42886178861789,40.040650406504064 42.22560975609756,40.142276422764226 42.02235772357724,40.24390243902439 41.81910569105691,40.34552845528455 41.61585365853659,40.447154471544714 41.41260162601626,40.548780487804876 41.260162601626014,40.65040650406504 41.05691056910569,40.7520325203252 40.853658536585364,40.853658536585364 40.701219512195124,40.95528455284553 40.4979674796748,41.05691056910569 40.34552845528455,41.15853658536585 40.19308943089431,41.260162601626014 40.040650406504064,41.3109756097561" fill="none" stroke="black" stroke-width="0.6"></polyline><polyline points="40.040650406504064,41.3109756097561 39.88821138211382,41.41260162601626 39.735772357723576,41.514227642276424 39.583333333333336,41.61585365853659 39.48170731707317,41.71747967479675 39.329268292682926,41.86991869918699 39.176829268292686,41.97154471544715 39.07520325203252,42.073170731707314 38.922764227642276,42.17479674796748 38.82113821138211,42.27642276422764 38.668699186991866,42.3780487804878 38.516260162601625,42.479674796747965 38.41463414634146,42.58130081300813 38.262195121951216,42.63211382113821 38.109756097560975,42.78455284552845 38.00813008130081,42.886178861788615 37.855691056910565,43.03861788617886 37.703252032520325,43.140243902439025 37.60162601626016,43.24186991869919 37.5,43.39430894308943 37.34756097560975,43.49593495934959 37.24593495934959,43.64837398373984 37.14430894308943,43.75 37.042682926829265,43.953252032520325 36.890243902439025,44.105691056910565 36.78861788617886,44.25813008130081 36.6869918699187,44.46138211382114 36.53455284552845,44.61382113821138 36.483739837398375,44.766260162601625 36.33130081300813,44.918699186991866 36.28048780487805,45.02032520325203 36.17886178861789,45.172764227642276 36.077235772357724,45.3760162601626 35.97560975609756,45.52845528455285 35.8739837398374,45.78252032520325 35.77235772357724,45.985772357723576 35.670731707317074,46.1890243902439 35.56910569105691,46.392276422764226 35.46747967479675,46.59552845528455 35.416666666666664,46.7479674796748 35.36585365853659,46.90040650406504 35.264227642276424,47.052845528455286 35.21341463414634,47.20528455284553 35.16260162601626,47.40853658536585 35.11178861788618,47.5609756097561 35.0609756097561,47.764227642276424 35.010162601626014,47.96747967479675 34.959349593495936,48.11991869918699 34.90853658536585,48.27235772357724 34.90853658536585,48.42479674796748 34.857723577235774,48.6280487804878" fill="none" stroke="black" stroke-width="0.6"></polyline><polyline points="34.857723577235774,48.6280487804878 34.80691056910569,48.78048780487805 34.80691056910569,48.983739837398375 34.75609756097561,49.136178861788615 34.70528455284553,49.33943089430894 34.65447154471545,49.59349593495935 34.603658536585364,49.949186991869915 34.552845528455286,50.203252032520325 34.5020325203252,50.45731707317073 34.451219512195124,50.66056910569105 34.40040650406504,50.86382113821138 34.34959349593496,51.0670731707317 34.34959349593496,51.27032520325203 34.298780487804876,51.47357723577235 34.2479674796748,51.6260162601626 34.2479674796748,51.880081300813 34.197154471544714,52.13414634146341 34.146341463414636,52.4390243902439 34.09552845528455,52.69308943089431 34.09552845528455,52.947154471544714 34.09552845528455,53.201219512195124 34.04471544715447,53.40447154471545 34.04471544715447,53.50609756097561 34.04471544715447,53.607723577235774 34.04471544715447,53.86178861788618 34.04471544715447,54.014227642276424 34.04471544715447,54.21747967479675 34.04471544715447,54.47154471544715 34.04471544715447,54.72560975609756 34.04471544715447,54.92886178861789 34.04471544715447,55.13211382113821 34.04471544715447,55.33536585365854 34.04471544715447,55.4369918699187 34.04471544715447,55.640243902439025 34.09552845528455,55.6910569105691 34.09552845528455,55.792682926829265 34.146341463414636,55.94512195121951 34.146341463414636,56.14837398373984 34.197154471544714,56.35162601626016 34.2479674796748,56.55487804878049 34.298780487804876,56.859756097560975 34.34959349593496,57.11382113821138 34.34959349593496,57.36788617886179 34.40040650406504,57.62195121951219 34.451219512195124,57.825203252032516 34.552845528455286,57.97764227642276 34.603658536585364,58.18089430894309 34.65447154471545,58.33333333333333 34.75609756097561,58.536585365853654 34.857723577235774,58.739837398373986 34.90853658536585,58.99390243902439" fill="none" stroke="black" stroke-width="0.6"></polyline><polyline points="34.90853658536585,58.99390243902439 35.010162601626014,59.298780487804876 35.11178861788618,59.603658536585364 35.16260162601626,59.857723577235774 35.264227642276424,60.0609756097561 35.3150406504065,60.21341463414634 35.416666666666664,60.36585365853659 35.56910569105691,60.46747967479675 35.670731707317074,60.61991869918699 35.77235772357724,60.72154471544715 35.92479674796748,60.8739837398374 36.02642276422764,60.97560975609756 36.1280487804878,61.1280487804878 36.229674796747965,61.33130081300813 36.38211382113821,61.483739837398375 36.483739837398375,61.636178861788615 36.58536585365854,61.78861788617886 36.73780487804878,61.9410569105691 36.890243902439025,62.09349593495935 37.042682926829265,62.24593495934959 37.19512195121951,62.39837398373984 37.34756097560975,62.65243902439024 37.55081300813008,62.90650406504065 37.80487804878049,63.21138211382114 38.05894308943089,63.516260162601625 38.3130081300813,63.82113821138211 38.516260162601625,64.1260162601626 38.71951219512195,64.32926829268293 38.922764227642276,64.48170731707317 39.1260162601626,64.6341463414634 39.329268292682926,64.6849593495935 39.48170731707317,64.78658536585365 39.6849593495935,64.83739837398373 39.83739837398374,64.9390243902439 40.040650406504064,64.98983739837398 40.29471544715447,65.09146341463415 40.447154471544714,65.14227642276423 40.65040650406504,65.2439024390244 40.853658536585364,65.34552845528455 41.00609756097561,65.44715447154472 41.209349593495936,65.54878048780488 41.36178861788618,65.65040650406505 41.5650406504065,65.70121951219512 41.71747967479675,65.7520325203252 41.86991869918699,65.80284552845528 42.073170731707314,65.85365853658537 42.27642276422764,65.90447154471545 42.479674796747965,65.95528455284553 42.63211382113821,66.0060975609756 42.886178861788615,66.0569105691057 43.08943089430894,66.15853658536585" fill="none" stroke="black" stroke-width="0.6"></polyline><polyline points="43.08943089430894,66.15853658536585 43.34349593495935,66.20934959349593 43.59756097560975,66.26016260162602 43.85162601626016,66.3109756097561 44.105691056910565,66.3109756097561 44.20731707317073,66.36178861788618 44.359756097560975,66.36178861788618 44.61382113821138,66.36178861788618 44.86788617886179,66.41260162601625 45.12195121951219,66.46341463414635 45.3760162601626,66.51422764227642 45.63008130081301,66.5650406504065 45.88414634146341,66.61585365853658 46.08739837398374,66.66666666666667 46.34146341463415,66.71747967479675 46.646341463414636,66.71747967479675 46.90040650406504,66.71747967479675 47.15447154471545,66.71747967479675 47.40853658536585,66.71747967479675 47.66260162601626,66.71747967479675 47.916666666666664,66.66666666666667 48.170731707317074,66.66666666666667 48.42479674796748,66.66666666666667 48.67886178861789,66.66666666666667 48.983739837398375,66.61585365853658 49.28861788617886,66.61585365853658 49.4410569105691,66.5650406504065 49.542682926829265,66.51422764227642 49.84756097560975,66.46341463414635 50.10162601626016,66.36178861788618 50.355691056910565,66.3109756097561 50.609756097560975,66.20934959349593 50.86382113821138,66.15853658536585 51.11788617886179,66.10772357723577 51.37195121951219,66.0060975609756 51.6260162601626,65.95528455284553 51.880081300813,65.85365853658537 52.1849593495935,65.7520325203252 52.4390243902439,65.59959349593495 52.69308943089431,65.44715447154472 52.947154471544714,65.29471544715447 53.201219512195124,65.14227642276423 53.45528455284553,65.04065040650406 53.760162601626014,64.88821138211382 54.014227642276424,64.78658536585365 54.26829268292683,64.6849593495935 54.52235772357724,64.53252032520325 54.67479674796748,64.48170731707317 54.77642276422764,64.43089430894308 55.03048780487805,64.32926829268293 55.28455284552845,64.17682926829268" fill="none" stroke="black" stroke-width="0.6"></polyline><polyline points="55.28455284552845,64.17682926829268 55.53861788617886,64.02439024390243 55.792682926829265,63.87195121951219 56.046747967479675,63.71951219512195 56.25,63.61788617886179 56.5040650406504,63.46544715447154 56.91056910569105,63.21138211382114 57.11382113821138,63.05894308943089 57.3170731707317,62.95731707317073 57.57113821138211,62.80487804878049 57.77439024390244,62.65243902439024 58.02845528455284,62.449186991869915 58.231707317073166,62.296747967479675 58.43495934959349,62.09349593495935 58.63821138211382,61.99186991869919 58.84146341463415,61.83943089430894 59.04471544715447,61.6869918699187 59.2479674796748,61.58536585365854 59.40040650406504,61.43292682926829 59.603658536585364,61.33130081300813 59.80691056910569,61.17886178861789 60.010162601626014,61.02642276422764 60.0609756097561,60.97560975609756 60.264227642276424,60.823170731707314 60.51829268292683,60.61991869918699 60.670731707317074,60.46747967479675 60.823170731707314,60.36585365853659 60.92479674796748,60.264227642276424 60.97560975609756,60.21341463414634 61.1280487804878,60.11178861788618 61.28048780487805,59.959349593495936 61.38211382113821,59.857723577235774 61.53455284552845,59.70528455284553 61.6869918699187,59.603658536585364 61.83943089430894,59.451219512195124 61.99186991869919,59.298780487804876 62.09349593495935,59.197154471544714 62.24593495934959,59.04471544715447 62.39837398373984,58.892276422764226 62.5,58.739837398373986 62.65243902439024,58.58739837398374 62.80487804878049,58.43495934959349 62.90650406504065,58.28252032520325 63.00813008130081,58.130081300813 63.109756097560975,57.97764227642276 63.21138211382114,57.8760162601626 63.36382113821138,57.72357723577235 63.46544715447154,57.52032520325203 63.5670731707317,57.36788617886179 63.668699186991866,57.21544715447154 63.82113821138211,57.012195121951216" fill="none" stroke="black" stroke-width="0.6"></polyline><polyline points="63.82113821138211,57.012195121951216 63.922764227642276,56.80894308943089 64.02439024390243,56.65650406504065 64.17682926829268,56.453252032520325 64.27845528455285,56.25 64.380081300813,56.09756097560975 64.53252032520325,55.89430894308943 64.6341463414634,55.6910569105691 64.73577235772358,55.53861788617886 64.83739837398373,55.33536585365854 64.9390243902439,55.13211382113821 64.98983739837398,54.92886178861789 65.09146341463415,54.72560975609756 65.1930894308943,54.52235772357724 65.2439024390244,54.31910569105691 65.34552845528455,54.11585365853659 65.39634146341463,53.91260162601626 65.44715447154472,53.709349593495936 65.4979674796748,53.50609756097561 65.54878048780488,53.302845528455286 65.59959349593495,53.09959349593496 65.65040650406505,52.84552845528455 65.70121951219512,52.642276422764226 65.7520325203252,52.38821138211382 65.7520325203252,52.083333333333336 65.80284552845528,51.880081300813 65.85365853658537,51.6260162601626 65.85365853658537,51.37195121951219 65.90447154471545,51.168699186991866 65.90447154471545,50.91463414634146 65.95528455284553,50.71138211382114 66.0060975609756,50.45731707317073 66.0060975609756,50.2540650406504 66.0569105691057,50.05081300813008 66.10772357723577,49.89837398373984 66.10772357723577,49.69512195121951 66.15853658536585,49.49186991869919 66.15853658536585,49.28861788617886 66.15853658536585,49.1869918699187 66.20934959349593,49.03455284552845 66.20934959349593,48.78048780487805 66.20934959349593,48.577235772357724 66.20934959349593,48.323170731707314 66.26016260162602,48.170731707317074 66.26016260162602,47.96747967479675 66.26016260162602,47.8150406504065 66.26016260162602,47.66260162601626 66.26016260162602,47.5609756097561 66.26016260162602,47.40853658536585 66.26016260162602,47.25609756097561 66.26016260162602,47.103658536585364" fill="none" stroke="black" stroke-width="0.6"></polyline><polyline points="66.26016260162602,47.103658536585364 66.20934959349593,46.90040650406504 66.20934959349593,46.7479674796748 66.20934959349593,46.54471544715447 66.15853658536585,46.290650406504064 66.15853658536585,46.03658536585366 66.15853658536585,45.78252032520325 66.10772357723577,45.52845528455285 66.10772357723577,45.325203252032516 66.0569105691057,45.172764227642276 66.0569105691057,44.96951219512195 66.0060975609756,44.766260162601625 66.0060975609756,44.5630081300813 65.95528455284553,44.359756097560975 65.95528455284553,44.25813008130081 65.95528455284553,44.15650406504065 65.95528455284553,43.953252032520325 65.90447154471545,43.699186991869915 65.90447154471545,43.49593495934959 65.85365853658537,43.24186991869919 65.80284552845528,42.98780487804878 65.7520325203252,42.78455284552845 65.70121951219512,42.58130081300813 65.59959349593495,42.3780487804878 65.4979674796748,42.17479674796748 65.39634146341463,42.02235772357724 65.34552845528455,41.76829268292683 65.2439024390244,41.61585365853659 65.1930894308943,41.36178861788618 65.09146341463415,41.107723577235774 65.04065040650406,40.853658536585364 64.9390243902439,40.59959349593496 64.83739837398373,40.34552845528455 64.78658536585365,40.142276422764226 64.6341463414634,39.9390243902439 64.53252032520325,39.735772357723576 64.43089430894308,39.53252032520325 64.27845528455285,39.329268292682926 64.17682926829268,39.07520325203252 64.02439024390243,38.87195121951219 63.922764227642276,38.61788617886179 63.77032520325203,38.36382113821138 63.668699186991866,38.109756097560975 63.5670731707317,37.80487804878049 63.41463414634146,37.55081300813008 63.3130081300813,37.296747967479675 63.21138211382114,37.042682926829265 63.05894308943089,36.83943089430894 62.90650406504065,36.636178861788615 62.80487804878049,36.43292682926829 62.65243902439024,36.229674796747965" fill="none" stroke="black" stroke-width="0.6"></polyline><polyline points="62.65243902439024,36.229674796747965 62.5,36.02642276422764 62.34756097560975,35.823170731707314 62.19512195121951,35.670731707317074 62.042682926829265,35.46747967479675 61.83943089430894,35.264227642276424 61.6869918699187,35.11178861788618 61.483739837398375,34.959349593495936 61.33130081300813,34.75609756097561 61.17886178861789,34.65447154471545 61.077235772357724,34.603658536585364 60.97560975609756,34.5020325203252 60.823170731707314,34.34959349593496 60.61991869918699,34.2479674796748 60.46747967479675,34.09552845528455 60.264227642276424,33.892276422764226 60.11178861788618,33.739837398373986 59.90853658536585,33.58739837398374 59.70528455284553,33.4349593495935 59.552845528455286,33.28252032520325 59.34959349593496,33.18089430894309 59.09552845528455,33.079268292682926 58.892276422764226,32.97764227642276 58.739837398373986,32.8760162601626 58.536585365853654,32.77439024390244 58.33333333333333,32.672764227642276 58.130081300813,32.57113821138211 57.97764227642276,32.46951219512195 57.77439024390244,32.36788617886179 57.62195121951219,32.266260162601625 57.418699186991866,32.21544715447154 57.266260162601625,32.11382113821138 57.0630081300813,32.0630081300813 56.859756097560975,32.012195121951216 56.70731707317073,31.961382113821138 56.55487804878049,31.961382113821138 56.35162601626016,31.910569105691057 56.199186991869915,31.859756097560975 55.99593495934959,31.808943089430894 55.84349593495935,31.758130081300813 55.6910569105691,31.70731707317073 55.58943089430894,31.65650406504065 55.48780487804878,31.60569105691057 55.33536585365854,31.554878048780488 55.13211382113821,31.453252032520325 54.92886178861789,31.402439024390244 54.77642276422764,31.351626016260163 54.573170731707314,31.30081300813008 54.36991869918699,31.25 54.166666666666664,31.19918699186992 53.96341463414634,31.148373983739837" fill="none" stroke="black" stroke-width="0.6"></polyline><polyline points="53.96341463414634,31.148373983739837 53.8109756097561,31.097560975609756 53.607723577235774,31.046747967479675 53.40447154471545,30.995934959349594 53.15040650406504,30.945121951219512 52.896341463414636,30.89430894308943 52.69308943089431,30.79268292682927 52.489837398373986,30.741869918699187 52.235772357723576,30.691056910569106 52.03252032520325,30.640243902439025 51.77845528455284,30.589430894308943 51.52439024390244,30.538617886178862 51.27032520325203,30.48780487804878 51.0670731707317,30.4369918699187 50.8130081300813,30.38617886178862 50.55894308943089,30.335365853658537 50.355691056910565,30.284552845528456 50.15243902439024,30.284552845528456 49.949186991869915,30.233739837398375 49.69512195121951,30.233739837398375 49.49186991869919,30.182926829268293 49.23780487804878,30.182926829268293 48.983739837398375,30.132113821138212 48.78048780487805,30.08130081300813 48.52642276422764,30.08130081300813 48.27235772357724,30.08130081300813 48.06910569105691,30.03048780487805 47.96747967479675,30.03048780487805 47.86585365853659,30.03048780487805 47.61178861788618,30.03048780487805 47.40853658536585,30.03048780487805 47.15447154471545,30.03048780487805 46.90040650406504,30.03048780487805 46.646341463414636,30.08130081300813 46.392276422764226,30.08130081300813 46.08739837398374,30.132113821138212 45.833333333333336,30.132113821138212 45.63008130081301,30.132113821138212 45.3760162601626,30.182926829268293 45.172764227642276,30.182926829268293 44.918699186991866,30.182926829268293 44.66463414634146,30.233739837398375 44.46138211382114,30.284552845528456 44.25813008130081,30.335365853658537 44.0040650406504,30.4369918699187 43.80081300813008,30.538617886178862 43.59756097560975,30.640243902439025 43.34349593495935,30.691056910569106 43.140243902439025,30.79268292682927 42.9369918699187,30.89430894308943 42.733739837398375,30.995934959349594" fill="none" stroke="black" stroke-width="0.6"></polyline><polyline points="42.733739837398375,30.995934959349594 42.479674796747965,31.097560975609756 42.27642276422764,31.19918699186992 42.02235772357724,31.30081300813008 41.81910569105691,31.402439024390244 41.61585365853659,31.504065040650406 41.41260162601626,31.60569105691057 41.209349593495936,31.70731707317073 41.107723577235774,31.758130081300813 41.05691056910569,31.758130081300813 40.853658536585364,31.859756097560975 40.65040650406504,31.961382113821138 40.4979674796748,32.012195121951216 40.34552845528455,32.0630081300813 40.19308943089431,32.11382113821138 40.040650406504064,32.21544715447154 39.88821138211382,32.266260162601625 39.735772357723576,32.36788617886179 39.583333333333336,32.418699186991866 39.43089430894309,32.52032520325203 39.329268292682926,32.6219512195122 39.176829268292686,32.72357723577236 39.02439024390244,32.82520325203252 38.87195121951219,32.926829268292686 38.82113821138211,32.97764227642276 38.61788617886179,33.13008130081301 38.46544715447154,33.23170731707317 38.3130081300813,33.333333333333336 38.109756097560975,33.4349593495935 37.95731707317073,33.58739837398374 37.80487804878049,33.6890243902439 37.65243902439024,33.84146341463415 37.5,33.94308943089431 37.34756097560975,34.04471544715447 37.19512195121951,34.197154471544714 37.042682926829265,34.298780487804876 36.890243902439025,34.40040650406504 36.73780487804878,34.552845528455286 36.58536585365854,34.65447154471545 36.43292682926829,34.75609756097561 36.28048780487805,34.90853658536585 36.1280487804878,35.010162601626014 35.92479674796748,35.16260162601626 35.77235772357724,35.264227642276424 35.61991869918699,35.416666666666664 35.51829268292683,35.46747967479675 35.46747967479675,35.56910569105691 35.3150406504065,35.670731707317074 35.16260162601626,35.823170731707314 35.010162601626014,35.97560975609756 34.857723577235774,36.077235772357724" fill="none" stroke="black" stroke-width="0.6"></polyline><polyline points="34.857723577235774,36.077235772357724 34.70528455284553,36.17886178861789 34.552845528455286,36.33130081300813 34.451219512195124,36.43292682926829 34.298780487804876,36.53455284552845 34.2479674796748,36.58536585365854 34.146341463414636,36.6869918699187 34.04471544715447,36.78861788617886 33.892276422764226,36.9410569105691 33.790650406504064,37.09349593495935 33.63821138211382,37.19512195121951 33.485772357723576,37.34756097560975 33.333333333333336,37.5 33.23170731707317,37.65243902439024 33.079268292682926,37.80487804878049 32.926829268292686,37.95731707317073 32.82520325203252,38.05894308943089 32.72357723577236,38.21138211382114 32.6219512195122,38.3130081300813 32.52032520325203,38.46544715447154 32.418699186991866,38.5670731707317 32.266260162601625,38.71951219512195 32.16463414634146,38.82113821138211 32.0630081300813,39.02439024390244 31.961382113821138,39.176829268292686 31.808943089430894,39.38008130081301 31.758130081300813,39.48170731707317 31.70731707317073,39.583333333333336 31.60569105691057,39.735772357723576 31.504065040650406,39.88821138211382 31.402439024390244,40.040650406504064 31.30081300813008,40.24390243902439 31.148373983739837,40.396341463414636 31.046747967479675,40.548780487804876 30.945121951219512,40.7520325203252 30.84349593495935,40.95528455284553 30.691056910569106,41.15853658536585 30.538617886178862,41.46341463414634 30.4369918699187,41.71747967479675 30.335365853658537,41.920731707317074 30.182926829268293,42.17479674796748 30.08130081300813,42.3780487804878 30.03048780487805,42.53048780487805 29.928861788617887,42.68292682926829 29.827235772357724,42.83536585365854 29.776422764227643,43.03861788617886 29.67479674796748,43.24186991869919 29.573170731707318,43.49593495934959 29.471544715447155,43.75 29.369918699186993,44.0040650406504 29.268292682926827,44.20731707317073" fill="none" stroke="black" stroke-width="0.6"></polyline><polyline points="29.268292682926827,44.20731707317073 29.166666666666664,44.41056910569105 29.115853658536583,44.61382113821138 29.01422764227642,44.8170731707317 28.912601626016258,45.12195121951219 28.810975609756095,45.52845528455285 28.709349593495933,45.9349593495935 28.60772357723577,46.34146341463415 28.455284552845526,46.7479674796748 28.302845528455283,47.15447154471545 28.15040650406504,47.510162601626014 27.997967479674795,47.8150406504065 27.84552845528455,48.06910569105691 27.74390243902439,48.323170731707314 27.642276422764226,48.577235772357724 27.540650406504064,48.78048780487805 27.38821138211382,49.03455284552845 27.33739837398374,49.28861788617886 27.235772357723576,49.542682926829265 27.134146341463413,49.89837398373984 27.083333333333332,50.05081300813008 27.03252032520325,50.203252032520325 26.93089430894309,50.55894308943089 26.93089430894309,50.762195121951216 26.880081300813007,50.96544715447154 26.829268292682926,51.21951219512195 26.778455284552845,51.47357723577235 26.778455284552845,51.72764227642276 26.778455284552845,51.981707317073166 26.778455284552845,52.235772357723576 26.778455284552845,52.540650406504064 26.778455284552845,52.84552845528455 26.778455284552845,53.09959349593496 26.778455284552845,53.40447154471545 26.829268292682926,53.55691056910569 26.829268292682926,53.709349593495936 26.880081300813007,53.8109756097561 26.93089430894309,53.96341463414634 27.03252032520325,54.0650406504065 27.083333333333332,54.21747967479675 27.184959349593495,54.36991869918699 27.286585365853657,54.67479674796748 27.4390243902439,55.13211382113821 27.591463414634145,55.58943089430894 27.693089430894307,55.792682926829265 27.74390243902439,55.99593495934959 27.84552845528455,56.35162601626016 27.947154471544714,56.605691056910565 28.048780487804876,56.91056910569105 28.15040650406504,57.16463414634146 28.20121951219512,57.266260162601625" fill="none" stroke="black" stroke-width="0.6"></polyline><polyline points="28.20121951219512,57.266260162601625 28.2520325203252,57.36788617886179 28.302845528455283,57.57113821138211 28.404471544715445,57.77439024390244 28.506097560975608,58.02845528455284 28.60772357723577,58.33333333333333 28.760162601626014,58.6890243902439 28.861788617886177,59.04471544715447 29.01422764227642,59.40040650406504 29.115853658536583,59.65447154471545 29.217479674796746,59.80691056910569 29.31910569105691,59.959349593495936 29.420731707317074,60.11178861788618 29.522357723577237,60.3150406504065 29.573170731707318,60.46747967479675 29.67479674796748,60.61991869918699 29.776422764227643,60.77235772357724 29.827235772357724,60.92479674796748 29.928861788617887,61.077235772357724 29.979674796747968,61.17886178861789 30.08130081300813,61.33130081300813 30.132113821138212,61.43292682926829 30.182926829268293,61.483739837398375 30.233739837398375,61.636178861788615 30.335365853658537,61.78861788617886 30.4369918699187,61.9410569105691 30.538617886178862,62.14430894308943 30.589430894308943,62.24593495934959 30.640243902439025,62.34756097560975 30.741869918699187,62.60162601626016 30.79268292682927,62.80487804878049 30.84349593495935,63.05894308943089 30.945121951219512,63.262195121951216 30.995934959349594,63.46544715447154 31.097560975609756,63.61788617886179 31.148373983739837,63.82113821138211 31.25,63.97357723577235 31.351626016260163,64.17682926829268 31.453252032520325,64.32926829268293 31.554878048780488,64.48170731707317 31.65650406504065,64.6849593495935 31.70731707317073,64.83739837398373 31.808943089430894,65.04065040650406 31.910569105691057,65.1930894308943 31.961382113821138,65.34552845528455 32.012195121951216,65.4979674796748 32.11382113821138,65.59959349593495 32.21544715447154,65.7520325203252 32.3170731707317,65.85365853658537 32.418699186991866,66.0060975609756 32.52032520325203,66.20934959349593" fill="none" stroke="black" stroke-width="0.6"></polyline><polyline points="32.52032520325203,66.20934959349593 32.6219512195122,66.36178861788618 32.72357723577236,66.5650406504065 32.82520325203252,66.76829268292683 32.926829268292686,66.97154471544715 33.079268292682926,67.17479674796748 33.18089430894309,67.32723577235772 33.28252032520325,67.53048780487805 33.38414634146341,67.6829268292683 33.53658536585366,67.78455284552845 33.63821138211382,67.88617886178862 33.739837398373986,68.03861788617886 33.892276422764226,68.1910569105691 33.99390243902439,68.39430894308943 34.146341463414636,68.59756097560975 34.298780487804876,68.75 34.40040650406504,68.85162601626016 34.5020325203252,68.95325203252033 34.552845528455286,69.0040650406504 34.603658536585364,69.05487804878048 34.70528455284553,69.10569105691057 34.857723577235774,69.20731707317073 34.959349593495936,69.3089430894309 35.0609756097561,69.41056910569105 35.21341463414634,69.61382113821138 35.36585365853659,69.76626016260163 35.51829268292683,69.96951219512195 35.670731707317074,70.17276422764228 35.823170731707314,70.32520325203252 35.97560975609756,70.42682926829268 36.17886178861789,70.52845528455285 36.33130081300813,70.630081300813 36.53455284552845,70.73170731707317 36.6869918699187,70.83333333333333 36.83943089430894,70.9349593495935 36.99186991869919,71.03658536585365 37.19512195121951,71.13821138211382 37.34756097560975,71.29065040650406 37.5,71.39227642276423 37.703252032520325,71.49390243902438 37.855691056910565,71.54471544715447 38.05894308943089,71.59552845528455 38.262195121951216,71.64634146341463 38.46544715447154,71.69715447154472 38.668699186991866,71.7479674796748 38.87195121951219,71.79878048780488 39.07520325203252,71.90040650406505 39.27845528455285,71.95121951219512 39.53252032520325,72.05284552845528 39.63414634146341,72.10365853658537 39.735772357723576,72.15447154471545" fill="none" stroke="black" stroke-width="0.6"></polyline><polyline points="39.735772357723576,72.15447154471545 39.9390243902439,72.20528455284553 40.19308943089431,72.3069105691057 40.447154471544714,72.35772357723577 40.701219512195124,72.40853658536585 40.95528455284553,72.45934959349593 41.260162601626014,72.51016260162602 41.514227642276424,72.5609756097561 41.71747967479675,72.61178861788618 41.97154471544715,72.61178861788618 42.22560975609756,72.66260162601625 42.479674796747965,72.71341463414635 42.68292682926829,72.71341463414635 42.9369918699187,72.71341463414635 43.140243902439025,72.76422764227642 43.39430894308943,72.76422764227642 43.64837398373984,72.76422764227642 43.85162601626016,72.8150406504065 44.05487804878049,72.8150406504065 44.30894308943089,72.86585365853658 44.41056910569105,72.86585365853658 44.512195121951216,72.86585365853658 44.71544715447154,72.86585365853658 44.96951219512195,72.91666666666667 45.22357723577235,72.91666666666667 45.42682926829268,72.96747967479675 45.52845528455285,72.96747967479675 45.68089430894309,72.96747967479675 45.88414634146341,73.01829268292683 46.08739837398374,73.01829268292683 46.34146341463415,73.0691056910569 46.54471544715447,73.0691056910569 46.7479674796748,73.119918699187 47.0020325203252,73.119918699187 47.20528455284553,73.17073170731707 47.40853658536585,73.17073170731707 47.66260162601626,73.17073170731707 47.916666666666664,73.17073170731707 48.11991869918699,73.17073170731707 48.323170731707314,73.17073170731707 48.52642276422764,73.17073170731707 48.729674796747965,73.17073170731707 48.983739837398375,73.17073170731707 49.23780487804878,73.119918699187 49.49186991869919,73.119918699187 49.74593495934959,73.119918699187 50,73.119918699187 50.10162601626016,73.0691056910569 50.203252032520325,73.0691056910569 50.40650406504065,73.01829268292683 50.609756097560975,72.96747967479675" fill="none" stroke="black" stroke-width="0.6"></polyline><polyline points="50.609756097560975,72.96747967479675 50.8130081300813,72.91666666666667 51.016260162601625,72.86585365853658 51.21951219512195,72.86585365853658 51.422764227642276,72.8150406504065 51.67682926829268,72.76422764227642 51.880081300813,72.76422764227642 52.083333333333336,72.71341463414635 52.33739837398374,72.66260162601625 52.540650406504064,72.61178861788618 52.74390243902439,72.5609756097561 52.9979674796748,72.51016260162602 53.2520325203252,72.45934959349593 53.353658536585364,72.45934959349593 53.45528455284553,72.40853658536585 53.709349593495936,72.35772357723577 53.96341463414634,72.3069105691057 54.21747967479675,72.2560975609756 54.47154471544715,72.20528455284553 54.573170731707314,72.15447154471545 54.67479674796748,72.15447154471545 54.92886178861789,72.05284552845528 55.18292682926829,71.95121951219512 55.386178861788615,71.84959349593495 55.6910569105691,71.7479674796748 55.94512195121951,71.64634146341463 56.199186991869915,71.59552845528455 56.453252032520325,71.49390243902438 56.70731707317073,71.39227642276423 56.96138211382114,71.23983739837398 57.21544715447154,71.13821138211382 57.46951219512195,70.98577235772358 57.72357723577235,70.8841463414634 57.97764227642276,70.73170731707317 58.231707317073166,70.57926829268293 58.33333333333333,70.52845528455285 58.485772357723576,70.47764227642276 58.739837398373986,70.3760162601626 58.94308943089431,70.27439024390243 59.197154471544714,70.17276422764228 59.451219512195124,70.02032520325203 59.65447154471545,69.91869918699187 59.90853658536585,69.8170731707317 60.21341463414634,69.71544715447155 60.46747967479675,69.5630081300813 60.72154471544715,69.46138211382113 60.97560975609756,69.3089430894309 61.229674796747965,69.15650406504065 61.483739837398375,69.05487804878048 61.73780487804878,68.90243902439025 61.99186991869919,68.80081300813008" fill="none" stroke="black" stroke-width="0.6"></polyline><polyline points="61.99186991869919,68.80081300813008 62.296747967479675,68.69918699186992 62.55081300813008,68.59756097560975 62.80487804878049,68.4959349593496 63.05894308943089,68.39430894308943 63.3130081300813,68.24186991869918 63.5670731707317,68.14024390243902 63.77032520325203,68.03861788617886 64.02439024390243,67.88617886178862 64.27845528455285,67.78455284552845 64.48170731707317,67.6321138211382 64.73577235772358,67.47967479674797 64.98983739837398,67.3780487804878 65.1930894308943,67.22560975609755 65.44715447154472,67.1239837398374 65.65040650406505,66.97154471544715 65.7520325203252,66.92073170731707 65.85365853658537,66.869918699187 66.0569105691057,66.71747967479675 66.3109756097561,66.61585365853658 66.51422764227642,66.46341463414635 66.76829268292683,66.36178861788618 66.97154471544715,66.20934959349593 67.17479674796748,66.10772357723577 67.3780487804878,65.95528455284553 67.58130081300813,65.85365853658537 67.78455284552845,65.65040650406505 67.98780487804878,65.4979674796748 68.14024390243902,65.29471544715447 68.34349593495935,65.14227642276423 68.54674796747967,64.9390243902439 68.75,64.73577235772358 68.90243902439025,64.53252032520325 69.10569105691057,64.380081300813 69.3089430894309,64.22764227642276 69.46138211382113,64.07520325203252 69.66463414634146,63.87195121951219 69.8170731707317,63.71951219512195 69.96951219512195,63.516260162601625 70.17276422764228,63.3130081300813 70.32520325203252,63.109756097560975 70.47764227642276,62.90650406504065 70.630081300813,62.703252032520325 70.78252032520325,62.55081300813008 70.98577235772358,62.39837398373984 71.13821138211382,62.24593495934959 71.29065040650406,62.14430894308943 71.4430894308943,61.99186991869919 71.54471544715447,61.890243902439025 71.69715447154472,61.78861788617886 71.79878048780488,61.6869918699187" fill="none" stroke="black" stroke-width="0.6"></polyline><polyline points="71.79878048780488,61.6869918699187 71.90040650406505,61.53455284552845 72.0020325203252,61.38211382113821 72.10365853658537,61.229674796747965 72.20528455284553,61.02642276422764 72.3069105691057,60.8739837398374 72.40853658536585,60.670731707317074 72.51016260162602,60.51829268292683 72.61178861788618,60.36585365853659 72.71341463414635,60.16260162601626 72.8150406504065,60.0609756097561 72.91666666666667,59.90853658536585 73.01829268292683,59.75609756097561 73.0691056910569,59.552845528455286 73.17073170731707,59.40040650406504 73.27235772357723,59.197154471544714 73.3739837398374,58.99390243902439 73.42479674796748,58.790650406504064 73.52642276422765,58.58739837398374 73.6280487804878,58.38414634146341 73.67886178861788,58.231707317073166 73.78048780487805,58.079268292682926 73.83130081300813,57.92682926829268 73.9329268292683,57.825203252032516 73.98373983739837,57.672764227642276 74.08536585365853,57.52032520325203 74.13617886178862,57.36788617886179 74.1869918699187,57.21544715447154 74.28861788617886,57.11382113821138 74.33943089430895,57.012195121951216 74.39024390243902,56.859756097560975 74.4410569105691,56.75813008130081 74.49186991869918,56.65650406504065 74.54268292682927,56.55487804878049 74.64430894308943,56.453252032520325 74.6951219512195,56.30081300813008 74.7459349593496,56.14837398373984 74.84756097560975,55.99593495934959 74.89837398373983,55.84349593495935 75,55.6910569105691 75.05081300813008,55.53861788617886 75.15243902439025,55.4369918699187 75.20325203252033,55.33536585365854 75.2540650406504,55.28455284552845 75.30487804878048,55.18292682926829 75.40650406504065,55.13211382113821 75.45731707317073,55.03048780487805 75.5081300813008,54.979674796747965 75.5589430894309,54.827235772357724 75.60975609756098,54.67479674796748 75.71138211382113,54.52235772357724" fill="none" stroke="black" stroke-width="0.6"></polyline><polyline points="75.71138211382113,54.52235772357724 75.76219512195122,54.36991869918699 75.86382113821138,54.166666666666664 75.91463414634146,54.014227642276424 75.96544715447155,53.86178861788618 76.01626016260163,53.760162601626014 76.0670731707317,53.65853658536585 76.11788617886178,53.55691056910569 76.16869918699187,53.45528455284553 76.21951219512195,53.302845528455286 76.27032520325203,53.15040650406504 76.3211382113821,52.9979674796748 76.3719512195122,52.896341463414636 76.3719512195122,52.79471544715447 76.42276422764228,52.59146341463415 76.47357723577235,52.38821138211382 76.57520325203252,52.1849593495935 76.6260162601626,51.981707317073166 76.67682926829268,51.77845528455284 76.72764227642276,51.6260162601626 76.77845528455285,51.422764227642276 76.82926829268293,51.27032520325203 76.880081300813,51.0670731707317 76.93089430894308,50.91463414634146 77.03252032520325,50.762195121951216 77.08333333333333,50.55894308943089 77.1341463414634,50.45731707317073 77.1341463414634,50.355691056910565 77.1341463414634,50.355691056910565 77.1849593495935,50.30487804878049 77.1849593495935,50.203252032520325 77.23577235772358,50.15243902439024 77.23577235772358,50.10162601626016 77.23577235772358,50.05081300813008 77.28658536585365,50 77.28658536585365,49.949186991869915 77.28658536585365,49.89837398373984 77.33739837398373,49.84756097560975 77.38821138211382,49.796747967479675 77.38821138211382,49.74593495934959 77.48983739837398,49.69512195121951" fill="none" stroke="black" stroke-width="0.6"></polyline></svg>