<svg height="100" width="100" preserveAspectRatio="xMidYMid meet"><polyline points="49.64430894308943,50.40650406504065 49.64430894308943,50.40650406504065 49.59349593495935,50.45731707317073 49.59349593495935,50.45731707317073 49.59349593495935,50.45731707317073 49.542682926829265,50.50813008130081 49.542682926829265,50.50813008130081 49.542682926829265,50.50813008130081 49.542682926829265,50.50813008130081 49.542682926829265,50.50813008130081 49.542682926829265,50.45731707317073 49.59349593495935,50.40650406504065 49.59349593495935,50.355691056910565 49.64430894308943,50.30487804878049 49.64430894308943,50.2540650406504 49.64430894308943,50.203252032520325 49.69512195121951,50.15243902439024 49.69512195121951,50.05081300813008 49.74593495934959,49.949186991869915 49.796747967479675,49.84756097560975 49.84756097560975,49.74593495934959 49.89837398373984,49.59349593495935 49.89837398373984,49.4410569105691 49.949186991869915,49.33943089430894 49.949186991869915,49.23780487804878 50,49.136178861788615 50,49.03455284552845 50,48.93292682926829 50,48.78048780487805 49.949186991869915,48.67886178861789 49.89837398373984,48.577235772357724 49.84756097560975,48.52642276422764 49.796747967479675,48.42479674796748 49.69512195121951,48.3739837398374 49.64430894308943,48.323170731707314 49.542682926829265,48.27235772357724 49.49186991869919,48.170731707317074 49.390243902439025,48.11991869918699 49.33943089430894,48.06910569105691 49.23780487804878,47.96747967479675 49.136178861788615,47.916666666666664 49.08536585365854,47.86585365853659 48.983739837398375,47.8150406504065 48.88211382113821,47.764227642276424 48.78048780487805,47.764227642276424 48.67886178861789,47.764227642276424 48.577235772357724,47.764227642276424 48.47560975609756,47.8150406504065 48.3739837398374,47.86585365853659 48.27235772357724,47.96747967479675 48.170731707317074,48.06910569105691" fill="none" stroke="black" stroke-width="0.6"></polyline><polyline points="48.170731707317074,48.06910569105691 48.11991869918699,48.11991869918699 48.01829268292683,48.22154471544715 47.916666666666664,48.323170731707314 47.86585365853659,48.42479674796748 47.8150406504065,48.47560975609756 47.764227642276424,48.52642276422764 47.66260162601626,48.577235772357724 47.5609756097561,48.67886178861789 47.510162601626014,48.729674796747965 47.40853658536585,48.78048780487805 47.357723577235774,48.83130081300813 47.25609756097561,48.88211382113821 47.20528455284553,48.983739837398375 47.103658536585364,49.03455284552845 47.052845528455286,49.08536585365854 47.0020325203252,49.1869918699187 46.90040650406504,49.28861788617886 46.84959349593496,49.33943089430894 46.7479674796748,49.4410569105691 46.646341463414636,49.59349593495935 46.59552845528455,49.69512195121951 46.49390243902439,49.84756097560975 46.44308943089431,50 46.392276422764226,50.203252032520325 46.290650406504064,50.355691056910565 46.239837398373986,50.50813008130081 46.1890243902439,50.66056910569105 46.13821138211382,50.8130081300813 46.13821138211382,51.016260162601625 46.08739837398374,51.11788617886179 46.08739837398374,51.21951219512195 46.08739837398374,51.37195121951219 46.08739837398374,51.47357723577235 46.08739837398374,51.6260162601626 46.08739837398374,51.829268292682926 46.08739837398374,51.981707317073166 46.13821138211382,52.13414634146341 46.13821138211382,52.33739837398374 46.1890243902439,52.4390243902439 46.1890243902439,52.59146341463415 46.239837398373986,52.74390243902439 46.290650406504064,52.84552845528455 46.34146341463415,52.947154471544714 46.392276422764226,53.09959349593496 46.49390243902439,53.2520325203252 46.59552845528455,53.40447154471545 46.697154471544714,53.50609756097561 46.798780487804876,53.65853658536585 46.951219512195124,53.8109756097561 47.052845528455286,53.91260162601626" fill="none" stroke="black" stroke-width="0.6"></polyline><polyline points="47.052845528455286,53.91260162601626 47.20528455284553,54.014227642276424 47.357723577235774,54.166666666666664 47.459349593495936,54.21747967479675 47.61178861788618,54.31910569105691 47.71341463414634,54.420731707317074 47.8150406504065,54.52235772357724 47.916666666666664,54.573170731707314 48.01829268292683,54.6239837398374 48.11991869918699,54.67479674796748 48.22154471544715,54.72560975609756 48.323170731707314,54.77642276422764 48.42479674796748,54.827235772357724 48.52642276422764,54.8780487804878 48.6280487804878,54.92886178861789 48.729674796747965,54.979674796747965 48.83130081300813,55.03048780487805 48.983739837398375,55.08130081300813 49.08536585365854,55.13211382113821 49.1869918699187,55.18292682926829 49.33943089430894,55.233739837398375 49.390243902439025,55.233739837398375 49.4410569105691,55.233739837398375 49.542682926829265,55.28455284552845 49.69512195121951,55.28455284552845 49.84756097560975,55.28455284552845 49.949186991869915,55.28455284552845 50.10162601626016,55.33536585365854 50.2540650406504,55.33536585365854 50.355691056910565,55.33536585365854 50.50813008130081,55.33536585365854 50.66056910569105,55.33536585365854 50.762195121951216,55.386178861788615 50.96544715447154,55.386178861788615 51.11788617886179,55.386178861788615 51.27032520325203,55.386178861788615 51.422764227642276,55.386178861788615 51.52439024390244,55.33536585365854 51.67682926829268,55.33536585365854 51.829268292682926,55.33536585365854 51.981707317073166,55.28455284552845 52.083333333333336,55.28455284552845 52.235772357723576,55.28455284552845 52.38821138211382,55.28455284552845 52.489837398373986,55.233739837398375 52.642276422764226,55.233739837398375 52.79471544715447,55.18292682926829 52.896341463414636,55.13211382113821 53.048780487804876,55.08130081300813 53.201219512195124,55.03048780487805 53.302845528455286,55.03048780487805" fill="none" stroke="black" stroke-width="0.6"></polyline><polyline points="53.302845528455286,55.03048780487805 53.40447154471545,54.979674796747965 53.50609756097561,54.92886178861789 53.65853658536585,54.8780487804878 53.760162601626014,54.8780487804878 53.86178861788618,54.827235772357724 53.96341463414634,54.77642276422764 54.0650406504065,54.72560975609756 54.166666666666664,54.6239837398374 54.26829268292683,54.573170731707314 54.420731707317074,54.52235772357724 54.52235772357724,54.420731707317074 54.6239837398374,54.31910569105691 54.72560975609756,54.21747967479675 54.827235772357724,54.166666666666664 54.8780487804878,54.11585365853659 54.979674796747965,54.014227642276424 55.08130081300813,53.96341463414634 55.18292682926829,53.86178861788618 55.28455284552845,53.8109756097561 55.386178861788615,53.709349593495936 55.48780487804878,53.65853658536585 55.53861788617886,53.607723577235774 55.58943089430894,53.55691056910569 55.6910569105691,53.40447154471545 55.792682926829265,53.302845528455286 55.89430894308943,53.15040650406504 55.99593495934959,53.048780487804876 56.09756097560975,52.896341463414636 56.199186991869915,52.79471544715447 56.25,52.642276422764226 56.35162601626016,52.540650406504064 56.40243902439024,52.38821138211382 56.5040650406504,52.28658536585366 56.55487804878049,52.13414634146341 56.65650406504065,52.03252032520325 56.70731707317073,51.880081300813 56.75813008130081,51.72764227642276 56.80894308943089,51.575203252032516 56.859756097560975,51.422764227642276 56.91056910569105,51.27032520325203 56.96138211382114,51.11788617886179 57.012195121951216,51.016260162601625 57.012195121951216,50.91463414634146 57.012195121951216,50.86382113821138 57.0630081300813,50.762195121951216 57.0630081300813,50.66056910569105 57.0630081300813,50.55894308943089 57.11382113821138,50.40650406504065 57.11382113821138,50.203252032520325 57.11382113821138,50.05081300813008" fill="none" stroke="black" stroke-width="0.6"></polyline><polyline points="57.11382113821138,50.05081300813008 57.11382113821138,49.796747967479675 57.11382113821138,49.59349593495935 57.11382113821138,49.4410569105691 57.11382113821138,49.23780487804878 57.11382113821138,49.08536585365854 57.11382113821138,48.93292682926829 57.11382113821138,48.729674796747965 57.0630081300813,48.52642276422764 57.0630081300813,48.42479674796748 57.0630081300813,48.323170731707314 57.012195121951216,48.11991869918699 57.012195121951216,47.96747967479675 56.96138211382114,47.61178861788618 56.91056910569105,47.40853658536585 56.859756097560975,47.20528455284553 56.80894308943089,47.052845528455286 56.70731707317073,46.84959349593496 56.605691056910565,46.697154471544714 56.55487804878049,46.54471544715447 56.453252032520325,46.34146341463415 56.35162601626016,46.1890243902439 56.25,45.985772357723576 56.14837398373984,45.833333333333336 55.99593495934959,45.63008130081301 55.89430894308943,45.42682926829268 55.74186991869919,45.22357723577235 55.640243902439025,45.02032520325203 55.48780487804878,44.8170731707317 55.33536585365854,44.66463414634146 55.233739837398375,44.512195121951216 55.08130081300813,44.41056910569105 54.979674796747965,44.25813008130081 54.827235772357724,44.105691056910565 54.67479674796748,43.953252032520325 54.573170731707314,43.80081300813008 54.47154471544715,43.59756097560975 54.31910569105691,43.44512195121951 54.166666666666664,43.292682926829265 54.0650406504065,43.140243902439025 53.91260162601626,42.98780487804878 53.760162601626014,42.886178861788615 53.607723577235774,42.78455284552845 53.45528455284553,42.68292682926829 53.302845528455286,42.63211382113821 53.15040650406504,42.53048780487805 53.048780487804876,42.53048780487805 52.947154471544714,42.42886178861789 52.84552845528455,42.42886178861789 52.74390243902439,42.3780487804878 52.642276422764226,42.327235772357724" fill="none" stroke="black" stroke-width="0.6"></polyline><polyline points="52.642276422764226,42.327235772357724 52.59146341463415,42.327235772357724 52.540650406504064,42.27642276422764 52.489837398373986,42.27642276422764 52.4390243902439,42.22560975609756 52.38821138211382,42.22560975609756 52.28658536585366,42.17479674796748 52.235772357723576,42.17479674796748 52.1849593495935,42.1239837398374 52.13414634146341,42.073170731707314 52.03252032520325,42.02235772357724 51.981707317073166,41.97154471544715 51.880081300813,41.97154471544715 51.829268292682926,41.920731707317074 51.77845528455284,41.86991869918699 51.67682926829268,41.81910569105691 51.575203252032516,41.81910569105691 51.52439024390244,41.76829268292683 51.422764227642276,41.71747967479675 51.32113821138211,41.71747967479675 51.21951219512195,41.71747967479675 51.11788617886179,41.666666666666664 51.016260162601625,41.666666666666664 50.86382113821138,41.61585365853659 50.762195121951216,41.61585365853659 50.71138211382114,41.61585365853659 50.66056910569105,41.61585365853659 50.50813008130081,41.5650406504065 50.40650406504065,41.5650406504065 50.30487804878049,41.5650406504065 50.203252032520325,41.5650406504065 50.05081300813008,41.514227642276424 49.949186991869915,41.514227642276424 49.84756097560975,41.514227642276424 49.69512195121951,41.514227642276424 49.59349593495935,41.514227642276424 49.49186991869919,41.514227642276424 49.33943089430894,41.514227642276424 49.23780487804878,41.514227642276424 49.136178861788615,41.514227642276424 48.983739837398375,41.46341463414634 48.88211382113821,41.46341463414634 48.729674796747965,41.46341463414634 48.577235772357724,41.46341463414634 48.42479674796748,41.46341463414634 48.27235772357724,41.46341463414634 48.11991869918699,41.46341463414634 48.01829268292683,41.514227642276424 47.86585365853659,41.514227642276424 47.71341463414634,41.5650406504065 47.5609756097561,41.61585365853659" fill="none" stroke="black" stroke-width="0.6"></polyline><polyline points="47.5609756097561,41.61585365853659 47.40853658536585,41.666666666666664 47.25609756097561,41.71747967479675 47.15447154471545,41.71747967479675 47.0020325203252,41.76829268292683 46.84959349593496,41.81910569105691 46.7479674796748,41.86991869918699 46.59552845528455,41.86991869918699 46.49390243902439,41.920731707317074 46.392276422764226,41.97154471544715 46.290650406504064,41.97154471544715 46.1890243902439,42.02235772357724 46.08739837398374,42.073170731707314 46.03658536585366,42.073170731707314 45.985772357723576,42.1239837398374 45.9349593495935,42.1239837398374 45.833333333333336,42.1239837398374 45.78252032520325,42.17479674796748 45.73170731707317,42.17479674796748 45.63008130081301,42.22560975609756 45.579268292682926,42.22560975609756 45.579268292682926,42.22560975609756 45.52845528455285,42.22560975609756 45.47764227642276,42.27642276422764 45.42682926829268,42.27642276422764 45.3760162601626,42.327235772357724 45.27439024390244,42.327235772357724 45.22357723577235,42.3780487804878 45.172764227642276,42.3780487804878 45.12195121951219,42.42886178861789 45.07113821138211,42.42886178861789 45.02032520325203,42.479674796747965 44.96951219512195,42.479674796747965 44.918699186991866,42.479674796747965 44.86788617886179,42.53048780487805 44.766260162601625,42.58130081300813 44.66463414634146,42.63211382113821 44.61382113821138,42.63211382113821 44.512195121951216,42.68292682926829 44.46138211382114,42.68292682926829 44.359756097560975,42.733739837398375 44.30894308943089,42.78455284552845 44.20731707317073,42.78455284552845 44.15650406504065,42.83536585365854 44.105691056910565,42.886178861788615 44.0040650406504,42.9369918699187 43.953252032520325,42.9369918699187 43.85162601626016,42.98780487804878 43.80081300813008,43.03861788617886 43.699186991869915,43.08943089430894 43.64837398373984,43.140243902439025" fill="none" stroke="black" stroke-width="0.6"></polyline><polyline points="43.64837398373984,43.140243902439025 43.546747967479675,43.1910569105691 43.44512195121951,43.24186991869919 43.39430894308943,43.292682926829265 43.292682926829265,43.39430894308943 43.1910569105691,43.44512195121951 43.140243902439025,43.49593495934959 43.03861788617886,43.546747967479675 42.9369918699187,43.64837398373984 42.83536585365854,43.75 42.733739837398375,43.80081300813008 42.63211382113821,43.90243902439024 42.53048780487805,44.0040650406504 42.42886178861789,44.105691056910565 42.3780487804878,44.20731707317073 42.27642276422764,44.30894308943089 42.22560975609756,44.41056910569105 42.1239837398374,44.46138211382114 42.073170731707314,44.5630081300813 42.02235772357724,44.61382113821138 41.97154471544715,44.71544715447154 41.86991869918699,44.8170731707317 41.81910569105691,44.918699186991866 41.76829268292683,44.918699186991866 41.71747967479675,45.02032520325203 41.666666666666664,45.12195121951219 41.5650406504065,45.27439024390244 41.46341463414634,45.3760162601626 41.36178861788618,45.52845528455285 41.260162601626014,45.73170731707317 41.15853658536585,45.88414634146341 41.00609756097561,46.03658536585366 40.90447154471545,46.1890243902439 40.802845528455286,46.392276422764226 40.701219512195124,46.54471544715447 40.59959349593496,46.7479674796748 40.4979674796748,46.90040650406504 40.396341463414636,47.103658536585364 40.29471544715447,47.25609756097561 40.24390243902439,47.40853658536585 40.19308943089431,47.61178861788618 40.09146341463415,47.86585365853659 39.989837398373986,48.06910569105691 39.9390243902439,48.170731707317074 39.88821138211382,48.3739837398374 39.83739837398374,48.52642276422764 39.78658536585366,48.67886178861789 39.735772357723576,48.83130081300813 39.6849593495935,48.93292682926829 39.63414634146341,49.03455284552845 39.63414634146341,49.136178861788615" fill="none" stroke="black" stroke-width="0.6"></polyline><polyline points="39.63414634146341,49.136178861788615 39.583333333333336,49.1869918699187 39.583333333333336,49.28861788617886 39.583333333333336,49.390243902439025 39.583333333333336,49.542682926829265 39.53252032520325,49.69512195121951 39.53252032520325,49.84756097560975 39.53252032520325,50.05081300813008 39.53252032520325,50.203252032520325 39.53252032520325,50.40650406504065 39.53252032520325,50.55894308943089 39.53252032520325,50.71138211382114 39.53252032520325,50.8130081300813 39.53252032520325,50.91463414634146 39.53252032520325,51.016260162601625 39.53252032520325,51.11788617886179 39.53252032520325,51.27032520325203 39.53252032520325,51.37195121951219 39.53252032520325,51.52439024390244 39.53252032520325,51.72764227642276 39.53252032520325,51.93089430894309 39.583333333333336,52.083333333333336 39.583333333333336,52.28658536585366 39.63414634146341,52.4390243902439 39.6849593495935,52.59146341463415 39.735772357723576,52.74390243902439 39.735772357723576,52.896341463414636 39.78658536585366,52.9979674796748 39.83739837398374,53.15040650406504 39.9390243902439,53.302845528455286 39.989837398373986,53.45528455284553 40.040650406504064,53.607723577235774 40.09146341463415,53.760162601626014 40.142276422764226,53.91260162601626 40.24390243902439,54.11585365853659 40.29471544715447,54.26829268292683 40.34552845528455,54.420731707317074 40.447154471544714,54.573170731707314 40.4979674796748,54.72560975609756 40.59959349593496,54.8780487804878 40.701219512195124,55.03048780487805 40.802845528455286,55.233739837398375 40.90447154471545,55.4369918699187 41.00609756097561,55.640243902439025 41.107723577235774,55.84349593495935 41.209349593495936,56.046747967479675 41.3109756097561,56.25 41.36178861788618,56.40243902439024 41.46341463414634,56.5040650406504 41.514227642276424,56.605691056910565 41.61585365853659,56.70731707317073" fill="none" stroke="black" stroke-width="0.6"></polyline><polyline points="41.61585365853659,56.70731707317073 41.666666666666664,56.859756097560975 41.76829268292683,56.96138211382114 41.81910569105691,57.11382113821138 41.920731707317074,57.266260162601625 42.02235772357724,57.36788617886179 42.1239837398374,57.52032520325203 42.17479674796748,57.62195121951219 42.27642276422764,57.672764227642276 42.3780487804878,57.77439024390244 42.479674796747965,57.825203252032516 42.58130081300813,57.8760162601626 42.68292682926829,57.92682926829268 42.733739837398375,58.02845528455284 42.83536585365854,58.079268292682926 42.9369918699187,58.18089430894309 43.03861788617886,58.231707317073166 43.140243902439025,58.28252032520325 43.1910569105691,58.33333333333333 43.34349593495935,58.43495934959349 43.44512195121951,58.485772357723576 43.546747967479675,58.536585365853654 43.64837398373984,58.63821138211382 43.75,58.6890243902439 43.90243902439024,58.790650406504064 44.05487804878049,58.94308943089431 44.15650406504065,59.04471544715447 44.30894308943089,59.146341463414636 44.512195121951216,59.2479674796748 44.66463414634146,59.34959349593496 44.8170731707317,59.40040650406504 45.02032520325203,59.5020325203252 45.172764227642276,59.603658536585364 45.27439024390244,59.65447154471545 45.52845528455285,59.80691056910569 45.68089430894309,59.90853658536585 45.88414634146341,59.959349593495936 46.03658536585366,60.0609756097561 46.1890243902439,60.16260162601626 46.392276422764226,60.21341463414634 46.54471544715447,60.3150406504065 46.7479674796748,60.36585365853659 46.90040650406504,60.46747967479675 47.0020325203252,60.46747967479675 47.052845528455286,60.51829268292683 47.20528455284553,60.56910569105691 47.357723577235774,60.56910569105691 47.510162601626014,60.61991869918699 47.66260162601626,60.670731707317074 47.8150406504065,60.72154471544715 47.916666666666664,60.77235772357724" fill="none" stroke="black" stroke-width="0.6"></polyline><polyline points="47.916666666666664,60.77235772357724 48.01829268292683,60.77235772357724 48.170731707317074,60.823170731707314 48.27235772357724,60.8739837398374 48.3739837398374,60.92479674796748 48.52642276422764,60.97560975609756 48.6280487804878,60.97560975609756 48.729674796747965,61.02642276422764 48.83130081300813,61.02642276422764 48.983739837398375,61.077235772357724 49.08536585365854,61.1280487804878 49.1869918699187,61.1280487804878 49.33943089430894,61.17886178861789 49.4410569105691,61.229674796747965 49.542682926829265,61.229674796747965 49.64430894308943,61.28048780487805 49.74593495934959,61.28048780487805 49.84756097560975,61.28048780487805 49.949186991869915,61.33130081300813 50.05081300813008,61.33130081300813 50.203252032520325,61.33130081300813 50.2540650406504,61.38211382113821 50.355691056910565,61.38211382113821 50.45731707317073,61.38211382113821 50.55894308943089,61.43292682926829 50.71138211382114,61.43292682926829 50.8130081300813,61.43292682926829 50.91463414634146,61.43292682926829 51.0670731707317,61.43292682926829 51.11788617886179,61.43292682926829 51.21951219512195,61.43292682926829 51.32113821138211,61.43292682926829 51.47357723577235,61.43292682926829 51.6260162601626,61.43292682926829 51.72764227642276,61.43292682926829 51.880081300813,61.43292682926829 52.03252032520325,61.43292682926829 52.1849593495935,61.43292682926829 52.38821138211382,61.38211382113821 52.540650406504064,61.38211382113821 52.69308943089431,61.33130081300813 52.896341463414636,61.28048780487805 53.048780487804876,61.229674796747965 53.201219512195124,61.229674796747965 53.40447154471545,61.17886178861789 53.55691056910569,61.1280487804878 53.709349593495936,61.077235772357724 53.86178861788618,61.077235772357724 54.0650406504065,61.02642276422764 54.21747967479675,60.97560975609756 54.420731707317074,60.92479674796748" fill="none" stroke="black" stroke-width="0.6"></polyline><polyline points="54.420731707317074,60.92479674796748 54.573170731707314,60.823170731707314 54.77642276422764,60.77235772357724 54.92886178861789,60.670731707317074 55.13211382113821,60.61991869918699 55.28455284552845,60.51829268292683 55.4369918699187,60.46747967479675 55.640243902439025,60.416666666666664 55.792682926829265,60.3150406504065 55.94512195121951,60.264227642276424 56.14837398373984,60.21341463414634 56.30081300813008,60.11178861788618 56.453252032520325,60.010162601626014 56.605691056910565,59.90853658536585 56.75813008130081,59.80691056910569 56.91056910569105,59.70528455284553 57.11382113821138,59.65447154471545 57.21544715447154,59.552845528455286 57.36788617886179,59.451219512195124 57.57113821138211,59.34959349593496 57.72357723577235,59.197154471544714 57.8760162601626,59.09552845528455 58.079268292682926,58.94308943089431 58.231707317073166,58.84146341463415 58.38414634146341,58.6890243902439 58.485772357723576,58.58739837398374 58.536585365853654,58.536585365853654 58.6890243902439,58.43495934959349 58.84146341463415,58.33333333333333 58.99390243902439,58.18089430894309 59.09552845528455,58.079268292682926 59.197154471544714,58.02845528455284 59.2479674796748,57.97764227642276 59.40040650406504,57.8760162601626 59.5020325203252,57.77439024390244 59.603658536585364,57.672764227642276 59.75609756097561,57.52032520325203 59.90853658536585,57.418699186991866 60.010162601626014,57.3170731707317 60.16260162601626,57.21544715447154 60.264227642276424,57.11382113821138 60.416666666666664,56.96138211382114 60.51829268292683,56.859756097560975 60.61991869918699,56.70731707317073 60.77235772357724,56.5040650406504 60.8739837398374,56.35162601626016 60.97560975609756,56.14837398373984 61.1280487804878,55.99593495934959 61.229674796747965,55.84349593495935 61.28048780487805,55.74186991869919 61.38211382113821,55.58943089430894" fill="none" stroke="black" stroke-width="0.6"></polyline><polyline points="61.38211382113821,55.58943089430894 61.483739837398375,55.48780487804878 61.53455284552845,55.386178861788615 61.636178861788615,55.233739837398375 61.73780487804878,55.13211382113821 61.83943089430894,55.03048780487805 61.9410569105691,54.8780487804878 62.042682926829265,54.72560975609756 62.09349593495935,54.573170731707314 62.19512195121951,54.36991869918699 62.296747967479675,54.26829268292683 62.34756097560975,54.11585365853659 62.39837398373984,53.96341463414634 62.449186991869915,53.86178861788618 62.5,53.760162601626014 62.55081300813008,53.607723577235774 62.60162601626016,53.50609756097561 62.65243902439024,53.353658536585364 62.703252032520325,53.201219512195124 62.7540650406504,52.9979674796748 62.80487804878049,52.84552845528455 62.855691056910565,52.642276422764226 62.855691056910565,52.489837398373986 62.90650406504065,52.33739837398374 62.90650406504065,52.1849593495935 62.95731707317073,52.083333333333336 62.95731707317073,51.981707317073166 62.95731707317073,51.880081300813 62.95731707317073,51.77845528455284 62.95731707317073,51.6260162601626 62.95731707317073,51.47357723577235 62.95731707317073,51.32113821138211 62.95731707317073,51.21951219512195 62.95731707317073,51.11788617886179 62.95731707317073,50.86382113821138 62.95731707317073,50.609756097560975 62.90650406504065,50.2540650406504 62.855691056910565,49.949186991869915 62.80487804878049,49.64430894308943 62.80487804878049,49.33943089430894 62.7540650406504,49.08536585365854 62.703252032520325,48.88211382113821 62.703252032520325,48.67886178861789 62.65243902439024,48.47560975609756 62.65243902439024,48.27235772357724 62.65243902439024,48.01829268292683 62.65243902439024,47.764227642276424 62.65243902439024,47.5609756097561 62.65243902439024,47.459349593495936 62.65243902439024,47.357723577235774 62.65243902439024,47.15447154471545" fill="none" stroke="black" stroke-width="0.6"></polyline><polyline points="62.65243902439024,47.15447154471545 62.65243902439024,47.0020325203252 62.65243902439024,46.798780487804876 62.60162601626016,46.646341463414636 62.60162601626016,46.54471544715447 62.60162601626016,46.44308943089431 62.55081300813008,46.34146341463415 62.55081300813008,46.239837398373986 62.5,46.08739837398374 62.5,45.985772357723576 62.5,45.833333333333336 62.5,45.68089430894309 62.5,45.52845528455285 62.5,45.42682926829268 62.5,45.27439024390244 62.449186991869915,45.172764227642276 62.449186991869915,45.07113821138211 62.39837398373984,44.918699186991866 62.34756097560975,44.86788617886179 62.296747967479675,44.766260162601625 62.24593495934959,44.66463414634146 62.24593495934959,44.61382113821138 62.19512195121951,44.512195121951216 62.14430894308943,44.359756097560975 62.09349593495935,44.25813008130081 62.09349593495935,44.15650406504065 62.042682926829265,44.0040650406504 61.99186991869919,43.85162601626016 61.9410569105691,43.75 61.9410569105691,43.699186991869915 61.890243902439025,43.59756097560975 61.83943089430894,43.49593495934959 61.73780487804878,43.34349593495935 61.6869918699187,43.24186991869919 61.636178861788615,43.08943089430894 61.53455284552845,42.98780487804878 61.483739837398375,42.83536585365854 61.43292682926829,42.68292682926829 61.38211382113821,42.53048780487805 61.28048780487805,42.3780487804878 61.229674796747965,42.22560975609756 61.17886178861789,42.073170731707314 61.077235772357724,41.920731707317074 61.02642276422764,41.76829268292683 60.97560975609756,41.666666666666664 60.8739837398374,41.514227642276424 60.823170731707314,41.41260162601626 60.77235772357724,41.3109756097561 60.670731707317074,41.209349593495936 60.61991869918699,41.05691056910569 60.51829268292683,40.95528455284553" fill="none" stroke="black" stroke-width="0.6"></polyline><polyline points="60.51829268292683,40.95528455284553 60.46747967479675,40.853658536585364 60.416666666666664,40.802845528455286 60.416666666666664,40.7520325203252 60.3150406504065,40.65040650406504 60.264227642276424,40.548780487804876 60.21341463414634,40.447154471544714 60.16260162601626,40.396341463414636 60.16260162601626,40.34552845528455 60.0609756097561,40.24390243902439 60.010162601626014,40.142276422764226 59.90853658536585,40.09146341463415 59.857723577235774,39.989837398373986 59.75609756097561,39.9390243902439 59.70528455284553,39.83739837398374 59.603658536585364,39.6849593495935 59.552845528455286,39.583333333333336 59.451219512195124,39.43089430894309 59.34959349593496,39.27845528455285 59.2479674796748,39.176829268292686 59.197154471544714,39.07520325203252 59.09552845528455,38.922764227642276 59.04471544715447,38.922764227642276 58.99390243902439,38.87195121951219 58.892276422764226,38.77032520325203 58.790650406504064,38.71951219512195 58.6890243902439,38.61788617886179 58.58739837398374,38.5670731707317 58.485772357723576,38.46544715447154 58.38414634146341,38.41463414634146 58.28252032520325,38.3130081300813 58.18089430894309,38.21138211382114 58.02845528455284,38.16056910569105 57.92682926829268,38.05894308943089 57.825203252032516,38.00813008130081 57.672764227642276,37.90650406504065 57.57113821138211,37.855691056910565 57.46951219512195,37.7540650406504 57.418699186991866,37.703252032520325 57.3170731707317,37.65243902439024 57.21544715447154,37.55081300813008 57.16463414634146,37.5 57.0630081300813,37.39837398373984 56.96138211382114,37.34756097560975 56.859756097560975,37.296747967479675 56.75813008130081,37.19512195121951 56.605691056910565,37.09349593495935 56.5040650406504,37.042682926829265 56.35162601626016,36.9410569105691 56.25,36.83943089430894 56.09756097560975,36.78861788617886" fill="none" stroke="black" stroke-width="0.6"></polyline><polyline points="56.09756097560975,36.78861788617886 55.94512195121951,36.6869918699187 55.84349593495935,36.58536585365854 55.6910569105691,36.483739837398375 55.53861788617886,36.38211382113821 55.386178861788615,36.33130081300813 55.18292682926829,36.28048780487805 55.03048780487805,36.17886178861789 54.8780487804878,36.1280487804878 54.72560975609756,36.077235772357724 54.52235772357724,36.02642276422764 54.36991869918699,35.97560975609756 54.26829268292683,35.92479674796748 54.11585365853659,35.823170731707314 53.96341463414634,35.77235772357724 53.8109756097561,35.72154471544715 53.65853658536585,35.61991869918699 53.55691056910569,35.56910569105691 53.40447154471545,35.51829268292683 53.201219512195124,35.46747967479675 53.09959349593496,35.46747967479675 52.947154471544714,35.46747967479675 52.79471544715447,35.46747967479675 52.642276422764226,35.46747967479675 52.540650406504064,35.46747967479675 52.4390243902439,35.416666666666664 52.33739837398374,35.416666666666664 52.28658536585366,35.416666666666664 52.1849593495935,35.416666666666664 52.13414634146341,35.36585365853659 52.083333333333336,35.36585365853659 51.981707317073166,35.36585365853659 51.93089430894309,35.3150406504065 51.829268292682926,35.3150406504065 51.72764227642276,35.3150406504065 51.67682926829268,35.3150406504065 51.575203252032516,35.264227642276424 51.422764227642276,35.264227642276424 51.37195121951219,35.21341463414634 51.21951219512195,35.21341463414634 51.11788617886179,35.16260162601626 51.016260162601625,35.11178861788618 50.86382113821138,35.11178861788618 50.71138211382114,35.0609756097561 50.609756097560975,35.0609756097561 50.45731707317073,35.010162601626014 50.30487804878049,35.010162601626014 50.203252032520325,35.010162601626014 50.10162601626016,35.010162601626014 49.949186991869915,34.959349593495936 49.84756097560975,34.959349593495936" fill="none" stroke="black" stroke-width="0.6"></polyline><polyline points="49.84756097560975,34.959349593495936 49.74593495934959,34.959349593495936 49.59349593495935,34.959349593495936 49.49186991869919,34.959349593495936 49.390243902439025,34.959349593495936 49.28861788617886,34.959349593495936 49.1869918699187,34.959349593495936 49.03455284552845,34.959349593495936 48.93292682926829,35.010162601626014 48.83130081300813,35.010162601626014 48.729674796747965,35.010162601626014 48.6280487804878,35.010162601626014 48.52642276422764,35.010162601626014 48.47560975609756,35.010162601626014 48.42479674796748,35.010162601626014 48.323170731707314,35.010162601626014 48.22154471544715,35.0609756097561 48.11991869918699,35.0609756097561 48.01829268292683,35.0609756097561 47.96747967479675,35.0609756097561 47.916666666666664,35.0609756097561 47.8150406504065,35.0609756097561 47.71341463414634,35.0609756097561 47.61178861788618,35.11178861788618 47.510162601626014,35.11178861788618 47.40853658536585,35.11178861788618 47.30691056910569,35.11178861788618 47.20528455284553,35.11178861788618 47.103658536585364,35.11178861788618 47.0020325203252,35.16260162601626 46.84959349593496,35.16260162601626 46.7479674796748,35.16260162601626 46.646341463414636,35.16260162601626 46.54471544715447,35.16260162601626 46.392276422764226,35.21341463414634 46.34146341463415,35.21341463414634 46.290650406504064,35.21341463414634 46.1890243902439,35.21341463414634 46.03658536585366,35.264227642276424 45.9349593495935,35.264227642276424 45.833333333333336,35.3150406504065 45.68089430894309,35.3150406504065 45.579268292682926,35.3150406504065 45.42682926829268,35.36585365853659 45.325203252032516,35.36585365853659 45.172764227642276,35.416666666666664 45.02032520325203,35.416666666666664 44.86788617886179,35.46747967479675 44.71544715447154,35.51829268292683 44.512195121951216,35.56910569105691 44.359756097560975,35.61991869918699" fill="none" stroke="black" stroke-width="0.6"></polyline><polyline points="44.359756097560975,35.61991869918699 44.20731707317073,35.670731707317074 44.0040650406504,35.72154471544715 43.85162601626016,35.77235772357724 43.699186991869915,35.823170731707314 43.546747967479675,35.92479674796748 43.44512195121951,35.92479674796748 43.39430894308943,35.97560975609756 43.24186991869919,36.02642276422764 43.08943089430894,36.1280487804878 42.9369918699187,36.17886178861789 42.78455284552845,36.229674796747965 42.63211382113821,36.28048780487805 42.53048780487805,36.38211382113821 42.3780487804878,36.43292682926829 42.22560975609756,36.483739837398375 42.073170731707314,36.53455284552845 41.920731707317074,36.636178861788615 41.81910569105691,36.6869918699187 41.666666666666664,36.73780487804878 41.5650406504065,36.78861788617886 41.41260162601626,36.890243902439025 41.3109756097561,36.9410569105691 41.15853658536585,36.99186991869919 41.05691056910569,37.09349593495935 40.95528455284553,37.14430894308943 40.802845528455286,37.24593495934959 40.701219512195124,37.296747967479675 40.548780487804876,37.34756097560975 40.396341463414636,37.449186991869915 40.34552845528455,37.5 40.24390243902439,37.5 40.09146341463415,37.60162601626016 39.9390243902439,37.703252032520325 39.78658536585366,37.7540650406504 39.63414634146341,37.855691056910565 39.48170731707317,37.95731707317073 39.329268292682926,38.05894308943089 39.176829268292686,38.16056910569105 39.02439024390244,38.3130081300813 38.87195121951219,38.41463414634146 38.71951219512195,38.516260162601625 38.516260162601625,38.668699186991866 38.36382113821138,38.77032520325203 38.21138211382114,38.922764227642276 38.00813008130081,39.1260162601626 37.855691056910565,39.22764227642276 37.703252032520325,39.38008130081301 37.55081300813008,39.53252032520325 37.39837398373984,39.63414634146341 37.296747967479675,39.735772357723576" fill="none" stroke="black" stroke-width="0.6"></polyline><polyline points="37.296747967479675,39.735772357723576 37.14430894308943,39.88821138211382 37.042682926829265,39.989837398373986 36.9410569105691,40.09146341463415 36.78861788617886,40.24390243902439 36.6869918699187,40.34552845528455 36.58536585365854,40.447154471544714 36.43292682926829,40.59959349593496 36.38211382113821,40.701219512195124 36.28048780487805,40.7520325203252 36.17886178861789,40.853658536585364 36.077235772357724,40.95528455284553 36.02642276422764,41.05691056910569 35.92479674796748,41.15853658536585 35.823170731707314,41.260162601626014 35.77235772357724,41.36178861788618 35.670731707317074,41.46341463414634 35.56910569105691,41.61585365853659 35.51829268292683,41.71747967479675 35.416666666666664,41.86991869918699 35.36585365853659,41.97154471544715 35.3150406504065,42.02235772357724 35.3150406504065,42.073170731707314 35.21341463414634,42.17479674796748 35.16260162601626,42.27642276422764 35.11178861788618,42.3780487804878 35.0609756097561,42.42886178861789 35.0609756097561,42.53048780487805 35.010162601626014,42.63211382113821 34.959349593495936,42.68292682926829 34.90853658536585,42.78455284552845 34.857723577235774,42.886178861788615 34.857723577235774,42.98780487804878 34.80691056910569,43.08943089430894 34.75609756097561,43.1910569105691 34.70528455284553,43.292682926829265 34.70528455284553,43.39430894308943 34.65447154471545,43.49593495934959 34.603658536585364,43.59756097560975 34.603658536585364,43.699186991869915 34.552845528455286,43.75 34.552845528455286,43.85162601626016 34.5020325203252,43.90243902439024 34.5020325203252,44.0040650406504 34.451219512195124,44.105691056910565 34.451219512195124,44.20731707317073 34.40040650406504,44.30894308943089 34.40040650406504,44.41056910569105 34.40040650406504,44.512195121951216 34.34959349593496,44.5630081300813 34.34959349593496,44.61382113821138" fill="none" stroke="black" stroke-width="0.6"></polyline><polyline points="34.34959349593496,44.61382113821138 34.34959349593496,44.66463414634146 34.34959349593496,44.71544715447154 34.298780487804876,44.766260162601625 34.298780487804876,44.8170731707317 34.298780487804876,44.86788617886179 34.298780487804876,44.86788617886179 34.2479674796748,44.918699186991866 34.2479674796748,45.02032520325203 34.197154471544714,45.07113821138211 34.197154471544714,45.172764227642276 34.146341463414636,45.27439024390244 34.09552845528455,45.3760162601626 34.09552845528455,45.47764227642276 34.04471544715447,45.579268292682926 33.99390243902439,45.68089430894309 33.99390243902439,45.78252032520325 33.94308943089431,45.833333333333336 33.94308943089431,45.9349593495935 33.94308943089431,46.03658536585366 33.892276422764226,46.13821138211382 33.84146341463415,46.239837398373986 33.84146341463415,46.34146341463415 33.790650406504064,46.44308943089431 33.739837398373986,46.59552845528455 33.739837398373986,46.697154471544714 33.6890243902439,46.84959349593496 33.63821138211382,46.951219512195124 33.58739837398374,47.103658536585364 33.58739837398374,47.20528455284553 33.53658536585366,47.357723577235774 33.485772357723576,47.459349593495936 33.4349593495935,47.61178861788618 33.4349593495935,47.764227642276424 33.38414634146341,47.916666666666664 33.333333333333336,48.06910569105691 33.28252032520325,48.22154471544715 33.23170731707317,48.3739837398374 33.23170731707317,48.577235772357724 33.18089430894309,48.729674796747965 33.18089430894309,48.88211382113821 33.13008130081301,49.03455284552845 33.079268292682926,49.1869918699187 33.079268292682926,49.33943089430894 33.02845528455285,49.59349593495935 32.97764227642276,49.949186991869915 32.8760162601626,50.50813008130081 32.82520325203252,50.91463414634146 32.72357723577236,51.27032520325203 32.6219512195122,51.575203252032516 32.57113821138211,51.77845528455284" fill="none" stroke="black" stroke-width="0.6"></polyline><polyline points="32.57113821138211,51.77845528455284 32.52032520325203,51.981707317073166 32.46951219512195,52.083333333333336 32.46951219512195,52.1849593495935 32.46951219512195,52.28658536585366 32.418699186991866,52.489837398373986 32.418699186991866,52.642276422764226 32.418699186991866,52.84552845528455 32.418699186991866,53.09959349593496 32.418699186991866,53.353658536585364 32.418699186991866,53.55691056910569 32.418699186991866,53.8109756097561 32.418699186991866,54.014227642276424 32.418699186991866,54.166666666666664 32.46951219512195,54.36991869918699 32.46951219512195,54.52235772357724 32.46951219512195,54.72560975609756 32.52032520325203,54.92886178861789 32.52032520325203,55.13211382113821 32.57113821138211,55.33536585365854 32.57113821138211,55.58943089430894 32.57113821138211,55.640243902439025 32.6219512195122,55.74186991869919 32.6219512195122,55.89430894308943 32.672764227642276,56.046747967479675 32.72357723577236,56.199186991869915 32.77439024390244,56.35162601626016 32.82520325203252,56.5040650406504 32.926829268292686,56.70731707317073 32.97764227642276,56.91056910569105 33.02845528455285,57.11382113821138 33.13008130081301,57.36788617886179 33.18089430894309,57.57113821138211 33.23170731707317,57.77439024390244 33.333333333333336,57.8760162601626 33.38414634146341,58.02845528455284 33.4349593495935,58.130081300813 33.53658536585366,58.28252032520325 33.58739837398374,58.43495934959349 33.6890243902439,58.58739837398374 33.739837398373986,58.790650406504064 33.84146341463415,58.99390243902439 33.94308943089431,59.197154471544714 33.99390243902439,59.40040650406504 34.09552845528455,59.552845528455286 34.197154471544714,59.70528455284553 34.2479674796748,59.857723577235774 34.298780487804876,59.90853658536585 34.34959349593496,60.010162601626014 34.451219512195124,60.11178861788618 34.5020325203252,60.264227642276424" fill="none" stroke="black" stroke-width="0.6"></polyline><polyline points="34.5020325203252,60.264227642276424 34.603658536585364,60.416666666666664 34.65447154471545,60.51829268292683 34.75609756097561,60.72154471544715 34.857723577235774,60.92479674796748 34.959349593495936,61.1280487804878 35.0609756097561,61.33130081300813 35.16260162601626,61.53455284552845 35.264227642276424,61.6869918699187 35.36585365853659,61.83943089430894 35.46747967479675,61.99186991869919 35.56910569105691,62.09349593495935 35.670731707317074,62.24593495934959 35.77235772357724,62.39837398373984 35.8739837398374,62.55081300813008 35.97560975609756,62.703252032520325 36.077235772357724,62.855691056910565 36.1280487804878,62.95731707317073 36.229674796747965,63.00813008130081 36.28048780487805,63.109756097560975 36.38211382113821,63.16056910569105 36.43292682926829,63.21138211382114 36.53455284552845,63.3130081300813 36.58536585365854,63.41463414634146 36.6869918699187,63.516260162601625 36.78861788617886,63.668699186991866 36.890243902439025,63.77032520325203 36.99186991869919,63.922764227642276 37.14430894308943,64.02439024390243 37.24593495934959,64.1260162601626 37.39837398373984,64.22764227642276 37.5,64.32926829268293 37.65243902439024,64.380081300813 37.80487804878049,64.48170731707317 37.95731707317073,64.58333333333333 38.109756097560975,64.6849593495935 38.3130081300813,64.78658536585365 38.46544715447154,64.88821138211382 38.668699186991866,64.98983739837398 38.82113821138211,65.09146341463415 39.02439024390244,65.1930894308943 39.176829268292686,65.29471544715447 39.329268292682926,65.34552845528455 39.48170731707317,65.39634146341463 39.63414634146341,65.4979674796748 39.83739837398374,65.54878048780488 39.989837398373986,65.65040650406505 40.142276422764226,65.70121951219512 40.34552845528455,65.7520325203252 40.4979674796748,65.85365853658537 40.701219512195124,65.90447154471545" fill="none" stroke="black" stroke-width="0.6"></polyline><polyline points="40.701219512195124,65.90447154471545 40.90447154471545,66.0060975609756 41.05691056910569,66.10772357723577 41.260162601626014,66.15853658536585 41.41260162601626,66.26016260162602 41.61585365853659,66.3109756097561 41.76829268292683,66.36178861788618 41.97154471544715,66.41260162601625 42.1239837398374,66.46341463414635 42.27642276422764,66.51422764227642 42.42886178861789,66.5650406504065 42.58130081300813,66.61585365853658 42.78455284552845,66.66666666666667 42.9369918699187,66.76829268292683 43.08943089430894,66.8191056910569 43.24186991869919,66.869918699187 43.44512195121951,66.92073170731707 43.59756097560975,67.02235772357723 43.64837398373984,67.07317073170732 43.75,67.07317073170732 43.90243902439024,67.17479674796748 44.05487804878049,67.22560975609755 44.20731707317073,67.32723577235772 44.41056910569105,67.3780487804878 44.5630081300813,67.42886178861788 44.71544715447154,67.53048780487805 44.86788617886179,67.58130081300813 45.02032520325203,67.6321138211382 45.172764227642276,67.6829268292683 45.27439024390244,67.73373983739837 45.42682926829268,67.78455284552845 45.579268292682926,67.78455284552845 45.73170731707317,67.83536585365853 45.88414634146341,67.88617886178862 45.985772357723576,67.88617886178862 46.13821138211382,67.9369918699187 46.290650406504064,67.9369918699187 46.392276422764226,67.98780487804878 46.54471544715447,67.98780487804878 46.646341463414636,67.98780487804878 46.697154471544714,68.03861788617886 46.84959349593496,68.03861788617886 47.052845528455286,68.08943089430895 47.20528455284553,68.14024390243902 47.357723577235774,68.14024390243902 47.5609756097561,68.1910569105691 47.764227642276424,68.24186991869918 47.96747967479675,68.24186991869918 48.11991869918699,68.29268292682927 48.323170731707314,68.34349593495935 48.52642276422764,68.34349593495935" fill="none" stroke="black" stroke-width="0.6"></polyline><polyline points="48.52642276422764,68.34349593495935 48.729674796747965,68.39430894308943 48.93292682926829,68.4451219512195 49.136178861788615,68.4959349593496 49.33943089430894,68.4959349593496 49.59349593495935,68.54674796747967 49.796747967479675,68.54674796747967 50.10162601626016,68.54674796747967 50.30487804878049,68.54674796747967 50.55894308943089,68.54674796747967 50.66056910569105,68.54674796747967 50.762195121951216,68.54674796747967 50.96544715447154,68.54674796747967 51.21951219512195,68.54674796747967 51.422764227642276,68.54674796747967 51.6260162601626,68.54674796747967 51.72764227642276,68.54674796747967 51.880081300813,68.54674796747967 52.083333333333336,68.54674796747967 52.28658536585366,68.4959349593496 52.489837398373986,68.4959349593496 52.642276422764226,68.4451219512195 52.84552845528455,68.4451219512195 53.048780487804876,68.39430894308943 53.2520325203252,68.39430894308943 53.45528455284553,68.39430894308943 53.65853658536585,68.39430894308943 53.86178861788618,68.39430894308943 54.0650406504065,68.39430894308943 54.26829268292683,68.34349593495935 54.47154471544715,68.34349593495935 54.67479674796748,68.34349593495935 54.8780487804878,68.29268292682927 55.03048780487805,68.24186991869918 55.233739837398375,68.1910569105691 55.4369918699187,68.14024390243902 55.58943089430894,68.08943089430895 55.6910569105691,68.08943089430895 55.792682926829265,68.03861788617886 55.99593495934959,67.98780487804878 56.14837398373984,67.98780487804878 56.35162601626016,67.9369918699187 56.55487804878049,67.88617886178862 56.70731707317073,67.78455284552845 56.859756097560975,67.73373983739837 57.0630081300813,67.6829268292683 57.21544715447154,67.6321138211382 57.36788617886179,67.58130081300813 57.57113821138211,67.53048780487805 57.72357723577235,67.47967479674797 57.825203252032516,67.42886178861788" fill="none" stroke="black" stroke-width="0.6"></polyline><polyline points="57.825203252032516,67.42886178861788 57.8760162601626,67.42886178861788 58.079268292682926,67.3780487804878 58.231707317073166,67.32723577235772 58.38414634146341,67.22560975609755 58.58739837398374,67.17479674796748 58.739837398373986,67.07317073170732 58.892276422764226,66.97154471544715 59.09552845528455,66.869918699187 59.2479674796748,66.76829268292683 59.40040650406504,66.71747967479675 59.603658536585364,66.61585365853658 59.75609756097561,66.51422764227642 59.90853658536585,66.46341463414635 60.11178861788618,66.36178861788618 60.264227642276424,66.3109756097561 60.416666666666664,66.20934959349593 60.61991869918699,66.10772357723577 60.77235772357724,66.0060975609756 60.92479674796748,65.90447154471545 61.077235772357724,65.80284552845528 61.229674796747965,65.70121951219512 61.38211382113821,65.59959349593495 61.58536585365854,65.44715447154472 61.73780487804878,65.34552845528455 61.890243902439025,65.2439024390244 62.042682926829265,65.14227642276423 62.24593495934959,64.98983739837398 62.39837398373984,64.88821138211382 62.55081300813008,64.78658536585365 62.703252032520325,64.6341463414634 62.90650406504065,64.53252032520325 63.00813008130081,64.380081300813 63.16056910569105,64.27845528455285 63.3130081300813,64.1260162601626 63.46544715447154,64.02439024390243 63.61788617886179,63.922764227642276 63.77032520325203,63.77032520325203 63.922764227642276,63.668699186991866 64.02439024390243,63.516260162601625 64.22764227642276,63.41463414634146 64.32926829268293,63.262195121951216 64.48170731707317,63.16056910569105 64.6849593495935,63.00813008130081 64.78658536585365,62.90650406504065 64.9390243902439,62.7540650406504 65.14227642276423,62.60162601626016 65.2439024390244,62.449186991869915 65.39634146341463,62.296747967479675 65.54878048780488,62.14430894308943 65.65040650406505,61.99186991869919" fill="none" stroke="black" stroke-width="0.6"></polyline><polyline points="65.65040650406505,61.99186991869919 65.80284552845528,61.890243902439025 65.90447154471545,61.73780487804878 66.0060975609756,61.58536585365854 66.15853658536585,61.483739837398375 66.26016260162602,61.33130081300813 66.36178861788618,61.1280487804878 66.51422764227642,60.92479674796748 66.61585365853658,60.72154471544715 66.71747967479675,60.51829268292683 66.8191056910569,60.3150406504065 66.92073170731707,60.11178861788618 67.02235772357723,59.959349593495936 67.1239837398374,59.80691056910569 67.22560975609755,59.65447154471545 67.32723577235772,59.5020325203252 67.42886178861788,59.34959349593496 67.53048780487805,59.197154471544714 67.58130081300813,59.04471544715447 67.6829268292683,58.892276422764226 67.73373983739837,58.739837398373986 67.83536585365853,58.536585365853654 67.88617886178862,58.38414634146341 67.98780487804878,58.18089430894309 68.03861788617886,57.97764227642276 68.08943089430895,57.825203252032516 68.1910569105691,57.72357723577235 68.24186991869918,57.62195121951219 68.29268292682927,57.46951219512195 68.34349593495935,57.36788617886179 68.39430894308943,57.266260162601625 68.4451219512195,57.16463414634146 68.4959349593496,57.012195121951216 68.54674796747967,56.859756097560975 68.59756097560975,56.70731707317073 68.64837398373983,56.5040650406504 68.69918699186992,56.35162601626016 68.75,56.14837398373984 68.80081300813008,55.94512195121951 68.85162601626016,55.792682926829265 68.90243902439025,55.640243902439025 68.95325203252033,55.48780487804878 69.0040650406504,55.33536585365854 69.05487804878048,55.233739837398375 69.05487804878048,55.13211382113821 69.10569105691057,54.979674796747965 69.15650406504065,54.827235772357724 69.20731707317073,54.6239837398374 69.2581300813008,54.36991869918699 69.3089430894309,54.166666666666664 69.35975609756098,53.91260162601626" fill="none" stroke="black" stroke-width="0.6"></polyline><polyline points="69.35975609756098,53.91260162601626 69.41056910569105,53.709349593495936 69.46138211382113,53.45528455284553 69.46138211382113,53.2520325203252 69.51219512195122,53.15040650406504 69.51219512195122,53.048780487804876 69.5630081300813,52.84552845528455 69.5630081300813,52.69308943089431 69.61382113821138,52.540650406504064 69.66463414634146,52.28658536585366 69.66463414634146,52.083333333333336 69.71544715447155,51.829268292682926 69.76626016260163,51.52439024390244 69.8170731707317,51.27032520325203 69.86788617886178,51.016260162601625 69.91869918699187,50.8130081300813 69.91869918699187,50.66056910569105 69.96951219512195,50.50813008130081 69.96951219512195,50.355691056910565 69.96951219512195,50.203252032520325 70.02032520325203,50.10162601626016 70.02032520325203,49.89837398373984 70.02032520325203,49.74593495934959 70.0711382113821,49.59349593495935 70.0711382113821,49.390243902439025 70.0711382113821,49.1869918699187 70.1219512195122,48.983739837398375 70.1219512195122,48.729674796747965 70.1219512195122,48.577235772357724 70.1219512195122,48.3739837398374 70.1219512195122,48.170731707317074 70.0711382113821,47.96747967479675 70.0711382113821,47.764227642276424 70.02032520325203,47.5609756097561 69.96951219512195,47.357723577235774 69.91869918699187,47.15447154471545 69.86788617886178,46.90040650406504 69.8170731707317,46.697154471544714 69.76626016260163,46.392276422764226 69.71544715447155,46.08739837398374 69.66463414634146,45.78252032520325 69.61382113821138,45.52845528455285 69.51219512195122,45.27439024390244 69.46138211382113,45.02032520325203 69.41056910569105,44.8170731707317 69.3089430894309,44.61382113821138 69.2581300813008,44.359756097560975 69.15650406504065,44.105691056910565 69.10569105691057,43.85162601626016 69.0040650406504,43.59756097560975 68.95325203252033,43.34349593495935" fill="none" stroke="black" stroke-width="0.6"></polyline><polyline points="68.95325203252033,43.34349593495935 68.85162601626016,43.08943089430894 68.75,42.886178861788615 68.64837398373983,42.68292682926829 68.54674796747967,42.479674796747965 68.4451219512195,42.27642276422764 68.34349593495935,42.1239837398374 68.1910569105691,41.920731707317074 68.08943089430895,41.76829268292683 67.98780487804878,41.5650406504065 67.9369918699187,41.36178861788618 67.83536585365853,41.15853658536585 67.78455284552845,41.00609756097561 67.73373983739837,40.802845528455286 67.6829268292683,40.65040650406504 67.58130081300813,40.548780487804876 67.53048780487805,40.396341463414636 67.42886178861788,40.24390243902439 67.3780487804878,40.09146341463415 67.27642276422765,39.9390243902439 67.22560975609755,39.88821138211382 67.17479674796748,39.78658536585366 67.07317073170732,39.583333333333336 66.97154471544715,39.38008130081301 66.869918699187,39.1260162601626 66.76829268292683,38.82113821138211 66.66666666666667,38.61788617886179 66.51422764227642,38.36382113821138 66.41260162601625,38.16056910569105 66.3109756097561,37.95731707317073 66.20934959349593,37.80487804878049 66.0569105691057,37.65243902439024 65.95528455284553,37.5 65.90447154471545,37.34756097560975 65.80284552845528,37.19512195121951 65.70121951219512,37.042682926829265 65.59959349593495,36.83943089430894 65.54878048780488,36.6869918699187 65.44715447154472,36.53455284552845 65.34552845528455,36.33130081300813 65.2439024390244,36.17886178861789 65.1930894308943,36.077235772357724 65.09146341463415,35.92479674796748 64.98983739837398,35.823170731707314 64.88821138211382,35.72154471544715 64.78658536585365,35.670731707317074 64.6849593495935,35.56910569105691 64.58333333333333,35.46747967479675 64.53252032520325,35.3150406504065 64.43089430894308,35.21341463414634 64.32926829268293,35.0609756097561" fill="none" stroke="black" stroke-width="0.6"></polyline><polyline points="64.32926829268293,35.0609756097561 64.22764227642276,34.959349593495936 64.1260162601626,34.75609756097561 63.97357723577235,34.65447154471545 63.87195121951219,34.5020325203252 63.71951219512195,34.34959349593496 63.5670731707317,34.2479674796748 63.46544715447154,34.146341463414636 63.3130081300813,34.04471544715447 63.21138211382114,33.94308943089431 63.05894308943089,33.892276422764226 62.90650406504065,33.790650406504064 62.80487804878049,33.6890243902439 62.65243902439024,33.58739837398374 62.5,33.485772357723576 62.39837398373984,33.38414634146341 62.24593495934959,33.28252032520325 62.09349593495935,33.18089430894309 61.9410569105691,33.079268292682926 61.73780487804878,32.97764227642276 61.58536585365854,32.82520325203252 61.43292682926829,32.72357723577236 61.28048780487805,32.6219512195122 61.077235772357724,32.46951219512195 60.92479674796748,32.3170731707317 60.77235772357724,32.21544715447154 60.56910569105691,32.0630081300813 60.36585365853659,31.961382113821138 60.16260162601626,31.859756097560975 59.959349593495936,31.70731707317073 59.75609756097561,31.60569105691057 59.552845528455286,31.504065040650406 59.34959349593496,31.402439024390244 59.197154471544714,31.30081300813008 58.99390243902439,31.148373983739837 58.790650406504064,31.046747967479675 58.63821138211382,30.89430894308943 58.485772357723576,30.79268292682927 58.28252032520325,30.691056910569106 58.130081300813,30.589430894308943 57.97764227642276,30.48780487804878 57.8760162601626,30.4369918699187 57.77439024390244,30.38617886178862 57.62195121951219,30.335365853658537 57.52032520325203,30.284552845528456 57.418699186991866,30.233739837398375 57.266260162601625,30.132113821138212 57.11382113821138,30.03048780487805 56.91056910569105,29.928861788617887 56.75813008130081,29.878048780487806 56.605691056910565,29.776422764227643" fill="none" stroke="black" stroke-width="0.6"></polyline><polyline points="56.605691056910565,29.776422764227643 56.453252032520325,29.725609756097562 56.30081300813008,29.67479674796748 56.14837398373984,29.573170731707318 55.99593495934959,29.522357723577237 55.89430894308943,29.471544715447155 55.74186991869919,29.420731707317074 55.58943089430894,29.31910569105691 55.4369918699187,29.268292682926827 55.28455284552845,29.217479674796746 55.08130081300813,29.166666666666664 54.92886178861789,29.0650406504065 54.77642276422764,29.01422764227642 54.6239837398374,28.96341463414634 54.52235772357724,28.912601626016258 54.420731707317074,28.861788617886177 54.26829268292683,28.810975609756095 54.166666666666664,28.810975609756095 54.0650406504065,28.760162601626014 53.91260162601626,28.709349593495933 53.760162601626014,28.65853658536585 53.607723577235774,28.60772357723577 53.45528455284553,28.55691056910569 53.302845528455286,28.506097560975608 53.15040650406504,28.455284552845526 52.947154471544714,28.404471544715445 52.79471544715447,28.404471544715445 52.642276422764226,28.353658536585364 52.4390243902439,28.302845528455283 52.28658536585366,28.2520325203252 52.083333333333336,28.2520325203252 51.880081300813,28.20121951219512 51.72764227642276,28.20121951219512 51.52439024390244,28.15040650406504 51.37195121951219,28.099593495934958 51.168699186991866,28.099593495934958 51.016260162601625,28.048780487804876 50.8130081300813,27.997967479674795 50.609756097560975,27.997967479674795 50.40650406504065,27.947154471544714 50.203252032520325,27.947154471544714 50.05081300813008,27.947154471544714 49.84756097560975,27.896341463414632 49.59349593495935,27.896341463414632 49.390243902439025,27.896341463414632 49.1869918699187,27.896341463414632 48.93292682926829,27.896341463414632 48.67886178861789,27.84552845528455 48.47560975609756,27.84552845528455 48.22154471544715,27.79471544715447 48.01829268292683,27.79471544715447" fill="none" stroke="black" stroke-width="0.6"></polyline><polyline points="48.01829268292683,27.79471544715447 47.764227642276424,27.79471544715447 47.510162601626014,27.79471544715447 47.25609756097561,27.79471544715447 47.0020325203252,27.79471544715447 46.7479674796748,27.79471544715447 46.49390243902439,27.84552845528455 46.239837398373986,27.84552845528455 45.985772357723576,27.896341463414632 45.78252032520325,27.947154471544714 45.52845528455285,27.997967479674795 45.27439024390244,28.048780487804876 45.07113821138211,28.099593495934958 44.8170731707317,28.15040650406504 44.5630081300813,28.20121951219512 44.30894308943089,28.302845528455283 44.05487804878049,28.353658536585364 43.85162601626016,28.455284552845526 43.59756097560975,28.55691056910569 43.34349593495935,28.65853658536585 43.140243902439025,28.709349593495933 42.9369918699187,28.861788617886177 42.68292682926829,28.96341463414634 42.42886178861789,29.0650406504065 42.22560975609756,29.166666666666664 41.97154471544715,29.268292682926827 41.76829268292683,29.369918699186993 41.5650406504065,29.471544715447155 41.3109756097561,29.573170731707318 41.107723577235774,29.725609756097562 40.90447154471545,29.827235772357724 40.65040650406504,29.979674796747968 40.396341463414636,30.132113821138212 40.29471544715447,30.233739837398375 40.19308943089431,30.284552845528456 39.9390243902439,30.48780487804878 39.6849593495935,30.640243902439025 39.48170731707317,30.79268292682927 39.22764227642276,30.945121951219512 39.02439024390244,31.097560975609756 38.77032520325203,31.25 38.516260162601625,31.402439024390244 38.262195121951216,31.504065040650406 38.00813008130081,31.65650406504065 37.7540650406504,31.808943089430894 37.5,31.961382113821138 37.24593495934959,32.11382113821138 36.99186991869919,32.266260162601625 36.78861788617886,32.418699186991866 36.53455284552845,32.57113821138211 36.28048780487805,32.77439024390244" fill="none" stroke="black" stroke-width="0.6"></polyline><polyline points="36.28048780487805,32.77439024390244 36.02642276422764,32.926829268292686 35.77235772357724,33.079268292682926 35.51829268292683,33.28252032520325 35.264227642276424,33.4349593495935 35.0609756097561,33.58739837398374 34.80691056910569,33.790650406504064 34.552845528455286,33.94308943089431 34.298780487804876,34.146341463414636 34.04471544715447,34.298780487804876 33.790650406504064,34.5020325203252 33.53658536585366,34.70528455284553 33.28252032520325,34.90853658536585 33.02845528455285,35.11178861788618 32.77439024390244,35.3150406504065 32.57113821138211,35.51829268292683 32.3170731707317,35.72154471544715 32.11382113821138,35.92479674796748 31.859756097560975,36.077235772357724 31.60569105691057,36.28048780487805 31.402439024390244,36.43292682926829 31.148373983739837,36.636178861788615 30.945121951219512,36.890243902439025 30.741869918699187,37.14430894308943 30.48780487804878,37.449186991869915 30.335365853658537,37.703252032520325 30.132113821138212,37.95731707317073 29.928861788617887,38.21138211382114 29.776422764227643,38.516260162601625 29.573170731707318,38.77032520325203 29.31910569105691,39.1260162601626 29.115853658536583,39.43089430894309 28.912601626016258,39.78658536585366 28.709349593495933,40.09146341463415 28.506097560975608,40.4979674796748 28.302845528455283,40.90447154471545 28.099593495934958,41.260162601626014 27.896341463414632,41.514227642276424 27.74390243902439,41.71747967479675 27.591463414634145,41.920731707317074 27.4390243902439,42.22560975609756 27.286585365853657,42.53048780487805 27.134146341463413,42.78455284552845 26.98170731707317,43.03861788617886 26.880081300813007,43.34349593495935 26.778455284552845,43.64837398373984 26.676829268292682,43.90243902439024 26.6260162601626,44.15650406504065 26.57520325203252,44.359756097560975 26.524390243902438,44.66463414634146 26.473577235772357,44.918699186991866" fill="none" stroke="black" stroke-width="0.6"></polyline><polyline points="26.473577235772357,44.918699186991866 26.473577235772357,45.12195121951219 26.422764227642276,45.325203252032516 26.371951219512194,45.52845528455285 26.371951219512194,45.73170731707317 26.371951219512194,45.9349593495935 26.321138211382113,46.13821138211382 26.321138211382113,46.392276422764226 26.321138211382113,46.646341463414636 26.270325203252032,46.90040650406504 26.270325203252032,47.103658536585364 26.270325203252032,47.30691056910569 26.270325203252032,47.66260162601626 26.270325203252032,48.01829268292683 26.270325203252032,48.42479674796748 26.21951219512195,48.83130081300813 26.21951219512195,49.08536585365854 26.21951219512195,49.23780487804878 26.21951219512195,49.390243902439025 26.16869918699187,49.542682926829265 26.16869918699187,49.64430894308943 26.16869918699187,49.84756097560975 26.16869918699187,50.10162601626016 26.16869918699187,50.45731707317073 26.16869918699187,50.86382113821138 26.16869918699187,51.37195121951219 26.16869918699187,51.880081300813 26.16869918699187,52.38821138211382 26.21951219512195,52.74390243902439 26.21951219512195,53.09959349593496 26.21951219512195,53.40447154471545 26.21951219512195,53.607723577235774 26.21951219512195,53.709349593495936 26.21951219512195,53.8109756097561 26.21951219512195,53.91260162601626 26.21951219512195,54.014227642276424 26.21951219512195,54.166666666666664 26.270325203252032,54.36991869918699 26.321138211382113,54.573170731707314 26.321138211382113,54.827235772357724 26.371951219512194,55.08130081300813 26.422764227642276,55.33536585365854 26.473577235772357,55.58943089430894 26.57520325203252,55.792682926829265 26.6260162601626,55.99593495934959 26.676829268292682,56.199186991869915 26.727642276422763,56.35162601626016 26.829268292682926,56.55487804878049 26.880081300813007,56.80894308943089 26.98170731707317,57.16463414634146 27.083333333333332,57.46951219512195" fill="none" stroke="black" stroke-width="0.6"></polyline><polyline points="27.083333333333332,57.46951219512195 27.134146341463413,57.72357723577235 27.184959349593495,57.77439024390244 27.235772357723576,57.8760162601626 27.286585365853657,58.02845528455284 27.33739837398374,58.130081300813 27.33739837398374,58.18089430894309 27.4390243902439,58.33333333333333 27.540650406504064,58.536585365853654 27.642276422764226,58.6890243902439 27.74390243902439,58.94308943089431 27.896341463414632,59.2479674796748 27.997967479674795,59.552845528455286 28.20121951219512,59.959349593495936 28.353658536585364,60.416666666666664 28.506097560975608,60.77235772357724 28.65853658536585,61.077235772357724 28.760162601626014,61.33130081300813 28.861788617886177,61.58536585365854 28.96341463414634,61.78861788617886 29.115853658536583,61.9410569105691 29.217479674796746,62.14430894308943 29.369918699186993,62.39837398373984 29.522357723577237,62.60162601626016 29.67479674796748,62.7540650406504 29.776422764227643,62.90650406504065 29.928861788617887,63.05894308943089 30.03048780487805,63.21138211382114 30.132113821138212,63.3130081300813 30.233739837398375,63.41463414634146 30.335365853658537,63.516260162601625 30.4369918699187,63.61788617886179 30.538617886178862,63.71951219512195 30.640243902439025,63.82113821138211 30.741869918699187,63.922764227642276 30.84349593495935,64.07520325203252 30.945121951219512,64.22764227642276 31.097560975609756,64.380081300813 31.19918699186992,64.58333333333333 31.402439024390244,64.73577235772358 31.554878048780488,64.9390243902439 31.70731707317073,65.14227642276423 31.808943089430894,65.2439024390244 31.910569105691057,65.34552845528455 32.0630081300813,65.44715447154472 32.16463414634146,65.54878048780488 32.21544715447154,65.59959349593495 32.266260162601625,65.70121951219512 32.418699186991866,65.85365853658537 32.57113821138211,66.0060975609756 32.672764227642276,66.15853658536585" fill="none" stroke="black" stroke-width="0.6"></polyline><polyline points="32.672764227642276,66.15853658536585 32.82520325203252,66.3109756097561 32.926829268292686,66.41260162601625 33.079268292682926,66.5650406504065 33.18089430894309,66.66666666666667 33.28252032520325,66.76829268292683 33.4349593495935,66.8191056910569 33.53658536585366,66.92073170731707 33.63821138211382,66.97154471544715 33.790650406504064,67.07317073170732 33.892276422764226,67.1239837398374 33.99390243902439,67.22560975609755 34.09552845528455,67.32723577235772 34.197154471544714,67.42886178861788 34.298780487804876,67.53048780487805 34.40040650406504,67.6321138211382 34.5020325203252,67.73373983739837 34.603658536585364,67.78455284552845 34.70528455284553,67.88617886178862 34.80691056910569,67.9369918699187 34.857723577235774,67.98780487804878 34.959349593495936,68.03861788617886 35.010162601626014,68.08943089430895 35.11178861788618,68.1910569105691 35.16260162601626,68.24186991869918 35.21341463414634,68.29268292682927 35.3150406504065,68.34349593495935 35.416666666666664,68.4451219512195 35.56910569105691,68.54674796747967 35.670731707317074,68.59756097560975 35.77235772357724,68.69918699186992 35.8739837398374,68.80081300813008 36.02642276422764,68.85162601626016 36.1280487804878,68.95325203252033 36.28048780487805,69.05487804878048 36.38211382113821,69.20731707317073 36.53455284552845,69.3089430894309 36.6869918699187,69.41056910569105 36.78861788617886,69.51219512195122 36.9410569105691,69.61382113821138 37.09349593495935,69.76626016260163 37.19512195121951,69.86788617886178 37.34756097560975,70.02032520325203 37.5,70.17276422764228 37.65243902439024,70.27439024390243 37.80487804878049,70.42682926829268 37.95731707317073,70.52845528455285 38.109756097560975,70.630081300813 38.262195121951216,70.73170731707317 38.41463414634146,70.83333333333333 38.5670731707317,70.9349593495935" fill="none" stroke="black" stroke-width="0.6"></polyline><polyline points="38.5670731707317,70.9349593495935 38.71951219512195,71.03658536585365 38.87195121951219,71.13821138211382 39.02439024390244,71.29065040650406 39.22764227642276,71.39227642276423 39.38008130081301,71.54471544715447 39.53252032520325,71.64634146341463 39.735772357723576,71.7479674796748 39.88821138211382,71.84959349593495 40.040650406504064,71.95121951219512 40.19308943089431,72.0020325203252 40.34552845528455,72.10365853658537 40.4979674796748,72.15447154471545 40.701219512195124,72.2560975609756 40.853658536585364,72.35772357723577 41.05691056910569,72.45934959349593 41.209349593495936,72.5609756097561 41.41260162601626,72.66260162601625 41.5650406504065,72.71341463414635 41.71747967479675,72.76422764227642 41.86991869918699,72.86585365853658 42.02235772357724,72.91666666666667 42.17479674796748,72.96747967479675 42.3780487804878,73.01829268292683 42.53048780487805,73.119918699187 42.733739837398375,73.22154471544715 42.9369918699187,73.32317073170732 43.140243902439025,73.3739837398374 43.34349593495935,73.47560975609755 43.546747967479675,73.52642276422765 43.75,73.57723577235772 43.953252032520325,73.6280487804878 44.15650406504065,73.67886178861788 44.359756097560975,73.78048780487805 44.61382113821138,73.83130081300813 44.86788617886179,73.9329268292683 45.12195121951219,74.03455284552845 45.325203252032516,74.13617886178862 45.579268292682926,74.1869918699187 45.78252032520325,74.23780487804878 45.985772357723576,74.28861788617886 46.1890243902439,74.33943089430895 46.392276422764226,74.33943089430895 46.646341463414636,74.39024390243902 46.84959349593496,74.39024390243902 47.0020325203252,74.4410569105691 47.25609756097561,74.49186991869918 47.40853658536585,74.54268292682927 47.61178861788618,74.54268292682927 47.86585365853659,74.59349593495935 48.01829268292683,74.64430894308943" fill="none" stroke="black" stroke-width="0.6"></polyline><polyline points="48.01829268292683,74.64430894308943 48.22154471544715,74.64430894308943 48.47560975609756,74.64430894308943 48.6280487804878,74.6951219512195 48.83130081300813,74.6951219512195 49.08536585365854,74.6951219512195 49.28861788617886,74.7459349593496 49.49186991869919,74.7459349593496 49.59349593495935,74.7459349593496 49.69512195121951,74.7459349593496 49.89837398373984,74.79674796747967 50.10162601626016,74.79674796747967 50.30487804878049,74.79674796747967 50.50813008130081,74.84756097560975 50.762195121951216,74.84756097560975 50.96544715447154,74.84756097560975 51.21951219512195,74.84756097560975 51.422764227642276,74.84756097560975 51.67682926829268,74.84756097560975 51.93089430894309,74.84756097560975 52.13414634146341,74.84756097560975 52.38821138211382,74.89837398373983 52.59146341463415,74.89837398373983 52.84552845528455,74.89837398373983 53.09959349593496,74.89837398373983 53.302845528455286,74.89837398373983 53.55691056910569,74.89837398373983 53.86178861788618,74.89837398373983 54.0650406504065,74.89837398373983 54.31910569105691,74.84756097560975 54.573170731707314,74.84756097560975 54.827235772357724,74.84756097560975 55.03048780487805,74.84756097560975 55.28455284552845,74.79674796747967 55.386178861788615,74.79674796747967 55.48780487804878,74.79674796747967 55.74186991869919,74.7459349593496 55.99593495934959,74.7459349593496 56.25,74.6951219512195 56.5040650406504,74.6951219512195 56.70731707317073,74.64430894308943 56.91056910569105,74.59349593495935 57.16463414634146,74.54268292682927 57.36788617886179,74.49186991869918 57.57113821138211,74.4410569105691 57.825203252032516,74.39024390243902 58.079268292682926,74.33943089430895 58.28252032520325,74.28861788617886 58.536585365853654,74.23780487804878 58.790650406504064,74.13617886178862 58.99390243902439,74.08536585365853" fill="none" stroke="black" stroke-width="0.6"></polyline><polyline points="58.99390243902439,74.08536585365853 59.197154471544714,73.98373983739837 59.40040650406504,73.9329268292683 59.552845528455286,73.8821138211382 59.80691056910569,73.83130081300813 60.010162601626014,73.78048780487805 60.21341463414634,73.72967479674797 60.416666666666664,73.6280487804878 60.670731707317074,73.57723577235772 60.8739837398374,73.47560975609755 61.077235772357724,73.42479674796748 61.28048780487805,73.32317073170732 61.483739837398375,73.22154471544715 61.6869918699187,73.119918699187 61.83943089430894,73.0691056910569 62.042682926829265,72.96747967479675 62.296747967479675,72.91666666666667 62.5,72.8150406504065 62.703252032520325,72.76422764227642 62.90650406504065,72.66260162601625 63.109756097560975,72.5609756097561 63.262195121951216,72.45934959349593 63.516260162601625,72.35772357723577 63.668699186991866,72.3069105691057 63.87195121951219,72.20528455284553 64.07520325203252,72.10365853658537 64.27845528455285,72.0020325203252 64.48170731707317,71.90040650406505 64.6849593495935,71.79878048780488 64.88821138211382,71.69715447154472 65.09146341463415,71.59552845528455 65.29471544715447,71.49390243902438 65.44715447154472,71.39227642276423 65.65040650406505,71.34146341463415 65.85365853658537,71.1890243902439 66.0569105691057,71.08739837398373 66.26016260162602,70.98577235772358 66.46341463414635,70.83333333333333 66.66666666666667,70.73170731707317 66.869918699187,70.57926829268293 67.07317073170732,70.47764227642276 67.27642276422765,70.32520325203252 67.42886178861788,70.22357723577235 67.6321138211382,70.0711382113821 67.83536585365853,69.91869918699187 68.03861788617886,69.76626016260163 68.24186991869918,69.61382113821138 68.4451219512195,69.46138211382113 68.64837398373983,69.3089430894309 68.85162601626016,69.10569105691057 69.05487804878048,68.95325203252033" fill="none" stroke="black" stroke-width="0.6"></polyline><polyline points="69.05487804878048,68.95325203252033 69.2581300813008,68.80081300813008 69.41056910569105,68.59756097560975 69.61382113821138,68.4451219512195 69.8170731707317,68.29268292682927 70.02032520325203,68.08943089430895 70.17276422764228,67.9369918699187 70.32520325203252,67.78455284552845 70.52845528455285,67.58130081300813 70.73170731707317,67.3780487804878 70.8841463414634,67.17479674796748 71.08739837398373,66.97154471544715 71.23983739837398,66.76829268292683 71.4430894308943,66.5650406504065 71.59552845528455,66.36178861788618 71.7479674796748,66.20934959349593 71.90040650406505,66.0060975609756 72.05284552845528,65.80284552845528 72.20528455284553,65.59959349593495 72.35772357723577,65.39634146341463 72.51016260162602,65.1930894308943 72.61178861788618,64.98983739837398 72.76422764227642,64.73577235772358 72.91666666666667,64.48170731707317 73.0691056910569,64.27845528455285 73.17073170731707,64.02439024390243 73.32317073170732,63.82113821138211 73.42479674796748,63.61788617886179 73.57723577235772,63.41463414634146 73.67886178861788,63.16056910569105 73.78048780487805,62.95731707317073 73.9329268292683,62.703252032520325 73.98373983739837,62.60162601626016 73.98373983739837,62.5 74.08536585365853,62.24593495934959 74.1869918699187,61.99186991869919 74.28861788617886,61.78861788617886 74.39024390243902,61.58536585365854 74.49186991869918,61.33130081300813 74.59349593495935,61.1280487804878 74.64430894308943,60.92479674796748 74.7459349593496,60.670731707317074 74.84756097560975,60.51829268292683 74.94918699186992,60.264227642276424 75.05081300813008,60.010162601626014 75.15243902439025,59.80691056910569 75.2540650406504,59.603658536585364 75.35569105691057,59.34959349593496 75.40650406504065,59.146341463414636 75.5081300813008,58.94308943089431 75.60975609756098,58.6890243902439" fill="none" stroke="black" stroke-width="0.6"></polyline><polyline points="75.60975609756098,58.6890243902439 75.71138211382113,58.43495934959349 75.76219512195122,58.18089430894309 75.86382113821138,57.92682926829268 75.91463414634146,57.72357723577235 76.01626016260163,57.46951219512195 76.11788617886178,57.21544715447154 76.16869918699187,57.012195121951216 76.27032520325203,56.75813008130081 76.3211382113821,56.453252032520325 76.42276422764228,56.14837398373984 76.47357723577235,55.84349593495935 76.57520325203252,55.53861788617886 76.6260162601626,55.28455284552845 76.72764227642276,55.03048780487805 76.82926829268293,54.77642276422764 76.880081300813,54.573170731707314 76.98170731707317,54.31910569105691 77.03252032520325,54.11585365853659 77.1341463414634,53.86178861788618 77.23577235772358,53.607723577235774 77.28658536585365,53.40447154471545 77.28658536585365,53.302845528455286 77.38821138211382,52.9979674796748 77.48983739837398,52.74390243902439 77.54065040650406,52.4390243902439 77.59146341463415,52.13414634146341 77.59146341463415,52.03252032520325 77.64227642276423,51.880081300813 77.6930894308943,51.575203252032516 77.6930894308943,51.32113821138211 77.74390243902438,51.0670731707317 77.79471544715447,50.86382113821138 77.84552845528455,50.71138211382114 77.84552845528455,50.55894308943089 77.89634146341463,50.45731707317073 77.89634146341463,50.355691056910565 77.89634146341463,50.2540650406504 77.89634146341463,50.15243902439024 77.89634146341463,50.10162601626016 77.89634146341463,50.05081300813008 77.89634146341463,50 77.84552845528455,50 77.84552845528455,49.949186991869915 77.79471544715447,49.949186991869915 77.79471544715447,49.89837398373984 77.74390243902438,49.89837398373984 77.74390243902438,49.89837398373984 77.74390243902438,49.89837398373984 77.74390243902438,49.84756097560975 77.6930894308943,49.84756097560975" fill="none" stroke="black" stroke-width="0.6"></polyline><polyline points="77.6930894308943,49.84756097560975 77.6930894308943,49.84756097560975 77.6930894308943,49.796747967479675 77.6930894308943,49.796747967479675 77.6930894308943,49.796747967479675 77.64227642276423,49.74593495934959 77.64227642276423,49.74593495934959 77.64227642276423,49.74593495934959 77.59146341463415,49.69512195121951 77.59146341463415,49.69512195121951 77.59146341463415,49.69512195121951 77.54065040650406,49.69512195121951 77.54065040650406,49.69512195121951 77.54065040650406,49.64430894308943 77.54065040650406,49.64430894308943 77.48983739837398,49.64430894308943 77.48983739837398,49.64430894308943 77.48983739837398,49.64430894308943 77.48983739837398,49.64430894308943 77.48983739837398,49.64430894308943 77.48983739837398,49.64430894308943 77.48983739837398,49.64430894308943 77.48983739837398,49.64430894308943 77.48983739837398,49.64430894308943" fill="none" stroke="black" stroke-width="0.6"></polyline></svg>