<svg height="100" width="100" preserveAspectRatio="xMidYMid meet"><polyline points="21.392276422764226,7.876016260162602 21.341463414634145,7.774390243902439 21.08739837398374,7.520325203252033 21.036585365853657,7.367886178861789 20.884146341463413,7.164634146341463 20.78252032520325,7.012195121951219 20.579268292682926,6.808943089430894 20.32520325203252,6.65650406504065 20.121951219512194,6.504065040650406 19.867886178861788,6.453252032520325 19.61382113821138,6.453252032520325 19.359756097560975,6.554878048780488 19.004065040650406,6.758130081300813 18.546747967479675,7.113821138211382 18.038617886178862,7.571138211382114 17.53048780487805,8.18089430894309 17.022357723577237,8.790650406504065 16.615853658536587,9.34959349593496 16.260162601626014,9.959349593495935 15.955284552845528,10.619918699186991 15.752032520325203,11.229674796747966 15.59959349593496,11.788617886178862 15.59959349593496,12.296747967479675 15.65040650406504,12.703252032520325 15.802845528455284,13.109756097560975 16.05691056910569,13.465447154471544 16.3109756097561,13.71951219512195 16.615853658536587,13.871951219512194 16.971544715447155,14.024390243902438 17.327235772357724,14.024390243902438 17.733739837398375,14.024390243902438 18.191056910569106,13.821138211382113 18.648373983739837,13.516260162601625 19.20731707317073,13.109756097560975 19.715447154471544,12.601626016260163 20.121951219512194,12.09349593495935 20.426829268292682,11.636178861788618 20.68089430894309,11.128048780487804 20.884146341463413,10.670731707317072 21.08739837398374,10.16260162601626 21.239837398373982,9.603658536585366 21.392276422764226,9.247967479674797 21.443089430894307,8.94308943089431 21.49390243902439,8.739837398373984 21.49390243902439,8.536585365853659 21.49390243902439,8.384146341463415 21.49390243902439,8.282520325203253 21.443089430894307,8.18089430894309 21.443089430894307,8.18089430894309 21.443089430894307,8.130081300813007 21.392276422764226,8.130081300813007" fill="none" stroke="black" stroke-width="0.6"></polyline><polyline points="21.392276422764226,8.130081300813007 21.392276422764226,8.130081300813007 21.392276422764226,8.18089430894309 21.392276422764226,8.333333333333334 21.392276422764226,8.638211382113822 21.290650406504064,9.044715447154472 21.239837398373982,9.552845528455284 21.13821138211382,10.16260162601626 21.13821138211382,10.772357723577235 21.13821138211382,11.432926829268293 21.239837398373982,12.09349593495935 21.443089430894307,12.652439024390244 21.646341463414632,13.109756097560975 21.90040650406504,13.567073170731707 22.103658536585364,13.821138211382113 22.256097560975608,14.07520325203252 22.35772357723577,14.176829268292682 22.459349593495933,14.329268292682926 22.510162601626014,14.380081300813007 22.560975609756095,14.48170731707317 22.662601626016258,14.53252032520325 22.71341463414634,14.53252032520325 22.865853658536587,14.634146341463413 22.96747967479675,14.634146341463413 23.06910569105691,14.634146341463413" fill="none" stroke="black" stroke-width="0.6"></polyline><polyline points="34.70528455284553,3.0995934959349594 34.70528455284553,3.048780487804878 34.65447154471545,2.997967479674797 34.603658536585364,2.997967479674797 34.552845528455286,2.9471544715447155 34.5020325203252,2.9471544715447155 34.5020325203252,3.048780487804878 34.451219512195124,3.3028455284552845 34.34959349593496,3.7601626016260163 34.197154471544714,4.471544715447155 33.94308943089431,5.48780487804878 33.6890243902439,6.605691056910569 33.4349593495935,7.82520325203252 33.18089430894309,9.095528455284553 32.97764227642276,10.16260162601626 32.77439024390244,11.280487804878048 32.6219512195122,12.245934959349594 32.52032520325203,12.957317073170731 32.52032520325203,13.414634146341463 32.52032520325203,13.770325203252032 32.52032520325203,13.973577235772357 32.57113821138211,14.024390243902438 32.57113821138211,14.07520325203252 32.6219512195122,14.07520325203252 32.6219512195122,14.024390243902438 32.57113821138211,13.922764227642276 32.57113821138211,13.821138211382113 32.52032520325203,13.66869918699187 32.52032520325203,13.516260162601625 32.46951219512195,13.3130081300813 32.46951219512195,13.109756097560975 32.46951219512195,12.855691056910569 32.46951219512195,12.601626016260163 32.46951219512195,12.347560975609756 32.52032520325203,12.042682926829269 32.672764227642276,11.483739837398375 32.77439024390244,11.128048780487804 32.8760162601626,10.873983739837398 33.079268292682926,10.416666666666666 33.23170731707317,10.213414634146341 33.58739837398374,9.80691056910569 33.99390243902439,9.502032520325203 34.5020325203252,9.247967479674797 35.11178861788618,8.99390243902439 35.670731707317074,8.94308943089431 36.17886178861789,8.94308943089431 36.636178861788615,9.197154471544716 36.78861788617886,9.34959349593496 36.99186991869919,9.552845528455284 37.24593495934959,10.060975609756097 37.5,10.670731707317072" fill="none" stroke="black" stroke-width="0.6"></polyline><polyline points="37.5,10.670731707317072 37.65243902439024,11.229674796747966 37.703252032520325,11.839430894308943 37.703252032520325,12.449186991869919 37.703252032520325,12.754065040650406 37.65243902439024,13.008130081300813 37.60162601626016,13.3130081300813 37.449186991869915,13.922764227642276 37.39837398373984,14.1260162601626 37.296747967479675,14.380081300813007 37.09349593495935,14.735772357723578 36.9410569105691,14.888211382113822 36.78861788617886,15.040650406504065 36.483739837398375,15.24390243902439 36.229674796747965,15.345528455284553 35.77235772357724,15.447154471544716 35.21341463414634,15.548780487804878 34.65447154471545,15.497967479674797 34.04471544715447,15.294715447154472 33.38414634146341,14.939024390243903 32.926829268292686,14.583333333333332 32.52032520325203,14.227642276422763 32.21544715447154,14.024390243902438 32.0630081300813,13.922764227642276 32.012195121951216,13.922764227642276 32.012195121951216,13.871951219512194 32.012195121951216,13.871951219512194 32.16463414634146,13.871951219512194 32.46951219512195,13.821138211382113" fill="none" stroke="black" stroke-width="0.6"></polyline><polyline points="51.016260162601625,8.99390243902439 50.96544715447154,8.841463414634147 50.91463414634146,8.689024390243903 50.86382113821138,8.536585365853659 50.8130081300813,8.434959349593496 50.71138211382114,8.282520325203253 50.55894308943089,8.231707317073171 50.40650406504065,8.18089430894309 50.15243902439024,8.18089430894309 49.74593495934959,8.333333333333334 49.23780487804878,8.689024390243903 48.67886178861789,9.146341463414634 48.11991869918699,9.705284552845528 47.61178861788618,10.315040650406504 47.30691056910569,10.873983739837398 47.103658536585364,11.432926829268293 47.052845528455286,11.991869918699187 47.15447154471545,12.550813008130081 47.357723577235774,13.109756097560975 47.510162601626014,13.414634146341463 47.8150406504065,13.821138211382113 48.170731707317074,14.176829268292682 48.3739837398374,14.329268292682926 48.88211382113821,14.634146341463413 49.136178861788615,14.735772357723578 49.33943089430894,14.786585365853659 49.59349593495935,14.83739837398374 50.15243902439024,14.83739837398374 50.355691056910565,14.83739837398374 50.55894308943089,14.786585365853659 50.762195121951216,14.684959349593496 50.96544715447154,14.53252032520325 51.21951219512195,14.380081300813007 51.422764227642276,14.176829268292682 51.6260162601626,14.024390243902438 51.93089430894309,13.66869918699187 52.1849593495935,13.414634146341463 52.235772357723576,13.3130081300813 52.235772357723576,13.262195121951219 52.28658536585366,13.211382113821138 52.235772357723576,13.211382113821138 52.235772357723576,13.211382113821138 52.1849593495935,13.211382113821138 52.083333333333336,13.262195121951219" fill="none" stroke="black" stroke-width="0.6"></polyline><polyline points="66.0060975609756,2.7947154471544713 66.0060975609756,2.7947154471544713 66.0060975609756,2.845528455284553 66.0060975609756,2.8963414634146343 66.0060975609756,2.997967479674797 66.0569105691057,3.3028455284552845 66.10772357723577,3.91260162601626 66.15853658536585,4.725609756097561 66.15853658536585,5.7926829268292686 66.0060975609756,6.961382113821138 65.95528455284553,7.520325203252033 65.85365853658537,8.028455284552845 65.7520325203252,8.58739837398374 65.65040650406505,9.095528455284553 65.59959349593495,9.603658536585366 65.54878048780488,10.264227642276422 65.54878048780488,10.619918699186991 65.54878048780488,10.924796747967479 65.54878048780488,11.229674796747966 65.54878048780488,11.534552845528456 65.54878048780488,11.737804878048781 65.59959349593495,12.245934959349594 65.59959349593495,12.5 65.59959349593495,12.804878048780488 65.65040650406505,13.211382113821138 65.65040650406505,13.465447154471544 65.65040650406505,13.66869918699187 65.70121951219512,14.024390243902438 65.70121951219512,14.278455284552845 65.7520325203252,14.48170731707317 65.7520325203252,14.634146341463413 65.7520325203252,14.634146341463413 65.7520325203252,14.634146341463413 65.7520325203252,14.634146341463413 65.7520325203252,14.634146341463413 65.7520325203252,14.583333333333332 65.7520325203252,14.53252032520325 65.7520325203252,14.48170731707317 65.7520325203252,14.380081300813007 65.65040650406505,14.176829268292682 65.65040650406505,14.024390243902438 65.54878048780488,13.71951219512195 65.54878048780488,13.516260162601625 65.4979674796748,13.3130081300813 65.44715447154472,12.90650406504065 65.39634146341463,12.652439024390244 65.34552845528455,12.195121951219512 65.2439024390244,11.6869918699187 65.1930894308943,11.432926829268293 65.14227642276423,11.178861788617885 65.04065040650406,10.924796747967479" fill="none" stroke="black" stroke-width="0.6"></polyline><polyline points="65.04065040650406,10.924796747967479 64.88821138211382,10.467479674796747 64.73577235772358,10.213414634146341 64.6341463414634,10.060975609756097 64.43089430894308,9.75609756097561 64.27845528455285,9.654471544715447 64.1260162601626,9.552845528455284 63.87195121951219,9.40040650406504 63.77032520325203,9.40040650406504 63.61788617886179,9.34959349593496 63.516260162601625,9.34959349593496 63.36382113821138,9.34959349593496 63.262195121951216,9.34959349593496 63.16056910569105,9.34959349593496 63.00813008130081,9.40040650406504 62.90650406504065,9.451219512195122 62.7540650406504,9.502032520325203 62.5,9.75609756097561 62.24593495934959,10.060975609756097 61.9410569105691,10.467479674796747 61.73780487804878,10.97560975609756 61.58536585365854,11.432926829268293 61.483739837398375,11.890243902439025 61.483739837398375,12.195121951219512 61.483739837398375,12.5 61.483739837398375,12.754065040650406 61.483739837398375,13.058943089430894 61.58536585365854,13.3130081300813 61.636178861788615,13.617886178861788 61.73780487804878,13.922764227642276 61.83943089430894,14.1260162601626 61.99186991869919,14.329268292682926 62.296747967479675,14.684959349593496 62.5,14.83739837398374 62.703252032520325,15.040650406504065 62.855691056910565,15.142276422764228 63.05894308943089,15.24390243902439 63.262195121951216,15.294715447154472 63.668699186991866,15.396341463414634 64.02439024390243,15.447154471544716 64.32926829268293,15.447154471544716 64.6341463414634,15.294715447154472 64.98983739837398,15.091463414634147 65.14227642276423,14.939024390243903 65.29471544715447,14.786585365853659 65.54878048780488,14.53252032520325 65.7520325203252,14.278455284552845 65.80284552845528,14.227642276422763 65.80284552845528,14.176829268292682 65.80284552845528,14.1260162601626 65.85365853658537,14.1260162601626" fill="none" stroke="black" stroke-width="0.6"></polyline><polyline points="65.85365853658537,14.1260162601626 65.85365853658537,14.07520325203252 65.85365853658537,14.07520325203252 65.85365853658537,14.07520325203252" fill="none" stroke="black" stroke-width="0.6"></polyline><polyline points="80.08130081300813,11.382113821138212 80.03048780487805,11.382113821138212 80.03048780487805,11.382113821138212 80.03048780487805,11.382113821138212 80.03048780487805,11.382113821138212 80.03048780487805,11.382113821138212 80.03048780487805,11.382113821138212 80.08130081300813,11.382113821138212 80.1829268292683,11.382113821138212 80.38617886178862,11.382113821138212 80.64024390243902,11.382113821138212 80.9451219512195,11.382113821138212 81.40243902439025,11.382113821138212 81.91056910569105,11.331300813008129 82.46951219512195,11.178861788617885 82.97764227642276,11.026422764227641 83.4349593495935,10.823170731707316 83.84146341463415,10.56910569105691 84.2479674796748,10.315040650406504 84.5020325203252,10.010162601626016 84.7560975609756,9.705284552845528 84.95934959349593,9.34959349593496 85.11178861788618,9.095528455284553 85.16260162601625,8.94308943089431 85.16260162601625,8.790650406504065 85.21341463414635,8.58739837398374 85.21341463414635,8.485772357723578 85.01016260162602,8.18089430894309 84.8069105691057,8.028455284552845 84.5020325203252,7.926829268292683 84.14634146341463,7.876016260162602 83.73983739837398,7.876016260162602 83.3841463414634,7.876016260162602 82.97764227642276,8.028455284552845 82.5711382113821,8.231707317073171 82.21544715447155,8.536585365853659 81.8089430894309,8.892276422764228 81.55487804878048,9.146341463414634 81.40243902439025,9.34959349593496 81.04674796747967,9.857723577235772 80.74186991869918,10.467479674796747 80.48780487804878,11.077235772357723 80.33536585365853,11.585365853658537 80.23373983739837,12.195121951219512 80.1829268292683,12.804878048780488 80.1829268292683,13.363821138211382 80.1829268292683,13.922764227642276 80.33536585365853,14.380081300813007 80.58943089430895,14.786585365853659 80.9451219512195,15.040650406504065 81.35162601626016,15.19308943089431" fill="none" stroke="black" stroke-width="0.6"></polyline><polyline points="81.35162601626016,15.19308943089431 81.85975609756098,15.294715447154472 82.11382113821138,15.294715447154472 82.41869918699187,15.345528455284553 82.97764227642276,15.294715447154472 83.48577235772358,15.142276422764228 83.9430894308943,14.989837398373984 84.29878048780488,14.786585365853659 84.5020325203252,14.634146341463413 84.60365853658537,14.53252032520325 84.65447154471545,14.48170731707317 84.65447154471545,14.430894308943088 84.60365853658537,14.380081300813007 84.5020325203252,14.278455284552845 84.40040650406503,14.1260162601626 84.29878048780488,14.024390243902438" fill="none" stroke="black" stroke-width="0.6"></polyline><polyline points="18.597560975609756,22.154471544715445 18.597560975609756,22.052845528455283 18.597560975609756,21.95121951219512 18.648373983739837,21.798780487804876 18.902439024390244,21.13821138211382 18.953252032520325,20.884146341463413 19.10569105691057,20.477642276422763 19.15650406504065,20.274390243902438 19.15650406504065,20.071138211382113 19.258130081300813,19.715447154471544 19.258130081300813,19.61382113821138 19.258130081300813,19.51219512195122 19.258130081300813,19.359756097560975 19.258130081300813,19.20731707317073 19.258130081300813,19.054878048780488 19.20731707317073,18.953252032520325 19.15650406504065,18.80081300813008 19.15650406504065,18.69918699186992 19.054878048780488,18.39430894308943 18.953252032520325,18.29268292682927 18.902439024390244,18.191056910569106 18.69918699186992,17.98780487804878 18.597560975609756,17.9369918699187 18.495934959349594,17.9369918699187 18.191056910569106,17.88617886178862 18.038617886178862,17.88617886178862 17.835365853658537,17.98780487804878 17.428861788617887,18.191056910569106 17.17479674796748,18.39430894308943 16.81910569105691,18.75 16.463414634146343,19.15650406504065 16.15853658536585,19.61382113821138 16.10772357723577,19.766260162601625 16.05691056910569,19.91869918699187 15.955284552845528,20.223577235772357 15.955284552845528,20.630081300813007 15.955284552845528,21.036585365853657 16.006097560975608,21.59552845528455 16.05691056910569,22.256097560975608 16.10772357723577,22.865853658536587 16.10772357723577,23.577235772357724 16.209349593495933,24.288617886178862 16.260162601626014,24.847560975609756 16.36178861788618,25.508130081300813 16.41260162601626,26.21951219512195 16.41260162601626,26.829268292682926 16.41260162601626,27.591463414634145 16.41260162601626,28.353658536585364 16.41260162601626,29.01422764227642 16.41260162601626,29.6239837398374 16.41260162601626,30.182926829268293" fill="none" stroke="black" stroke-width="0.6"></polyline><polyline points="16.41260162601626,30.182926829268293 16.41260162601626,30.38617886178862 16.36178861788618,30.589430894308943 16.36178861788618,30.89430894308943 16.36178861788618,31.097560975609756 16.36178861788618,31.25 16.3109756097561,31.453252032520325 16.3109756097561,31.60569105691057 16.3109756097561,31.65650406504065 16.3109756097561,31.65650406504065 16.3109756097561,31.453252032520325 16.36178861788618,31.19918699186992" fill="none" stroke="black" stroke-width="0.6"></polyline><polyline points="13.567073170731707,26.98170731707317 13.516260162601625,26.98170731707317 13.363821138211382,26.98170731707317 13.3130081300813,26.98170731707317 13.3130081300813,26.98170731707317 13.3130081300813,26.98170731707317 13.516260162601625,26.98170731707317 13.922764227642276,26.880081300813007 14.53252032520325,26.727642276422763 14.888211382113822,26.676829268292682 15.24390243902439,26.57520325203252 16.15853658536585,26.371951219512194 17.022357723577237,26.21951219512195 17.835365853658537,26.117886178861788 18.597560975609756,26.067073170731707 18.851626016260163,26.016260162601625 19.15650406504065,26.016260162601625 19.410569105691057,26.016260162601625 19.664634146341463,26.016260162601625 19.91869918699187,26.016260162601625 20.3760162601626,26.016260162601625 20.78252032520325,26.016260162601625 21.1890243902439,25.965447154471544" fill="none" stroke="black" stroke-width="0.6"></polyline><polyline points="34.40040650406504,25.8130081300813 34.40040650406504,25.711382113821138 34.40040650406504,25.609756097560975 34.40040650406504,25.508130081300813 34.451219512195124,25.40650406504065 34.5020325203252,25.101626016260163 34.552845528455286,24.94918699186992 34.603658536585364,24.745934959349594 34.65447154471545,24.390243902439025 34.70528455284553,24.1869918699187 34.75609756097561,23.983739837398375 34.80691056910569,23.526422764227643 34.80691056910569,23.323170731707318 34.80691056910569,23.06910569105691 34.857723577235774,22.611788617886177 34.857723577235774,22.40853658536585 34.857723577235774,22.205284552845526 34.857723577235774,22.052845528455283 34.80691056910569,21.95121951219512 34.75609756097561,21.849593495934958 34.603658536585364,21.697154471544714 34.5020325203252,21.697154471544714 34.40040650406504,21.697154471544714 34.146341463414636,21.697154471544714 33.84146341463415,21.798780487804876 33.485772357723576,22.052845528455283 33.079268292682926,22.459349593495933 32.72357723577236,22.96747967479675 32.418699186991866,23.475609756097562 32.21544715447154,24.034552845528456 32.11382113821138,24.59349593495935 32.11382113821138,25 32.21544715447154,25.304878048780488 32.46951219512195,25.609756097560975 32.72357723577236,25.76219512195122 32.8760162601626,25.76219512195122 33.02845528455285,25.8130081300813 33.333333333333336,25.8130081300813 33.53658536585366,25.76219512195122 33.790650406504064,25.660569105691057 33.99390243902439,25.40650406504065 34.197154471544714,25.203252032520325 34.34959349593496,24.94918699186992 34.5020325203252,24.695121951219512 34.552845528455286,24.54268292682927 34.552845528455286,24.491869918699187 34.603658536585364,24.441056910569106 34.603658536585364,24.339430894308943 34.603658536585364,24.288617886178862 34.603658536585364,24.23780487804878 34.552845528455286,24.23780487804878" fill="none" stroke="black" stroke-width="0.6"></polyline><polyline points="34.552845528455286,24.23780487804878 34.5020325203252,24.23780487804878 34.5020325203252,24.23780487804878 34.5020325203252,24.288617886178862 34.451219512195124,24.390243902439025 34.451219512195124,24.64430894308943 34.40040650406504,25.152439024390244 34.40040650406504,25.8130081300813 34.34959349593496,26.778455284552845 34.34959349593496,28.048780487804876 34.34959349593496,28.65853658536585 34.34959349593496,29.31910569105691 34.34959349593496,30.48780487804878 34.34959349593496,31.504065040650406 34.2479674796748,32.21544715447154 34.09552845528455,32.82520325203252 33.84146341463415,33.333333333333336 33.58739837398374,33.58739837398374 33.28252032520325,33.790650406504064 33.13008130081301,33.84146341463415 33.02845528455285,33.84146341463415 32.8760162601626,33.892276422764226 32.57113821138211,33.892276422764226 32.418699186991866,33.84146341463415 32.0630081300813,33.6890243902439 31.859756097560975,33.58739837398374 31.65650406504065,33.4349593495935 31.504065040650406,33.28252032520325 31.097560975609756,32.82520325203252 30.945121951219512,32.6219512195122 30.640243902439025,32.11382113821138 30.38617886178862,31.65650406504065 30.233739837398375,31.25 30.182926829268293,30.995934959349594 30.182926829268293,30.89430894308943 30.284552845528456,30.79268292682927 30.38617886178862,30.79268292682927 30.48780487804878,30.741869918699187 30.640243902439025,30.741869918699187 30.79268292682927,30.741869918699187 30.945121951219512,30.741869918699187 31.046747967479675,30.741869918699187" fill="none" stroke="black" stroke-width="0.6"></polyline><polyline points="49.08536585365854,19.308943089430894 49.03455284552845,19.308943089430894 49.03455284552845,19.308943089430894 48.93292682926829,19.308943089430894 48.83130081300813,19.5630081300813 48.78048780487805,20.071138211382113 48.6280487804878,20.985772357723576 48.577235772357724,21.54471544715447 48.47560975609756,22.205284552845526 48.323170731707314,23.678861788617887 48.170731707317074,24.94918699186992 48.01829268292683,26.21951219512195 47.916666666666664,26.727642276422763 47.86585365853659,27.33739837398374 47.71341463414634,28.20121951219512 47.61178861788618,28.96341463414634 47.459349593495936,29.67479674796748 47.357723577235774,30.182926829268293 47.30691056910569,30.48780487804878 47.25609756097561,30.741869918699187 47.25609756097561,30.79268292682927 47.25609756097561,30.79268292682927 47.30691056910569,30.79268292682927 47.357723577235774,30.640243902439025 47.459349593495936,30.335365853658537 47.66260162601626,29.776422764227643 47.8150406504065,29.166666666666664 48.06910569105691,28.55691056910569 48.323170731707314,27.896341463414632 48.577235772357724,27.33739837398374 48.729674796747965,27.03252032520325 48.93292682926829,26.778455284552845 49.33943089430894,26.371951219512194 49.74593495934959,26.21951219512195 50.10162601626016,26.21951219512195 50.2540650406504,26.21951219512195 50.40650406504065,26.270325203252032 50.609756097560975,26.473577235772357 50.71138211382114,26.676829268292682 50.8130081300813,26.98170731707317 50.86382113821138,27.33739837398374 50.86382113821138,27.79471544715447 50.86382113821138,28.099593495934958 50.86382113821138,28.404471544715445 50.762195121951216,28.96341463414634 50.66056910569105,29.522357723577237 50.55894308943089,30.03048780487805 50.55894308943089,30.233739837398375 50.50813008130081,30.38617886178862 50.50813008130081,30.538617886178862 50.50813008130081,30.640243902439025" fill="none" stroke="black" stroke-width="0.6"></polyline><polyline points="50.50813008130081,30.640243902439025 50.55894308943089,30.84349593495935 50.66056910569105,30.995934959349594 50.762195121951216,31.097560975609756" fill="none" stroke="black" stroke-width="0.6"></polyline><polyline points="65.44715447154472,26.067073170731707 65.44715447154472,26.067073170731707 65.44715447154472,26.067073170731707 65.39634146341463,26.067073170731707 65.39634146341463,26.067073170731707 65.34552845528455,26.067073170731707 65.34552845528455,26.067073170731707 65.34552845528455,26.16869918699187 65.34552845528455,26.270325203252032 65.29471544715447,26.778455284552845 65.29471544715447,27.083333333333332 65.29471544715447,27.489837398373982 65.2439024390244,28.2520325203252 65.2439024390244,28.65853658536585 65.1930894308943,29.01422764227642 65.14227642276423,29.471544715447155 65.09146341463415,29.6239837398374 65.09146341463415,29.878048780487806 65.09146341463415,30.08130081300813 65.09146341463415,30.08130081300813 65.09146341463415,30.132113821138212 65.14227642276423,30.132113821138212 65.14227642276423,30.182926829268293 65.1930894308943,30.182926829268293 65.1930894308943,30.182926829268293 65.2439024390244,30.132113821138212 65.2439024390244,30.08130081300813 65.29471544715447,29.979674796747968" fill="none" stroke="black" stroke-width="0.6"></polyline><polyline points="65.44715447154472,22.71341463414634 65.44715447154472,22.662601626016258 65.44715447154472,22.662601626016258 65.34552845528455,22.560975609756095 65.34552845528455,22.560975609756095 65.29471544715447,22.510162601626014 65.29471544715447,22.510162601626014 65.2439024390244,22.510162601626014 65.2439024390244,22.510162601626014 65.2439024390244,22.510162601626014 65.2439024390244,22.510162601626014 65.2439024390244,22.510162601626014 65.2439024390244,22.510162601626014 65.2439024390244,22.560975609756095 65.2439024390244,22.611788617886177 65.29471544715447,22.662601626016258 65.34552845528455,22.71341463414634 65.34552845528455,22.764227642276424 65.34552845528455,22.815040650406505 65.34552845528455,22.815040650406505 65.34552845528455,22.865853658536587 65.34552845528455,22.865853658536587 65.34552845528455,22.865853658536587 65.29471544715447,22.865853658536587 65.29471544715447,22.865853658536587" fill="none" stroke="black" stroke-width="0.6"></polyline><polyline points="81.30081300813008,24.796747967479675 81.30081300813008,24.847560975609756 81.19918699186992,24.94918699186992 81.14837398373983,25.101626016260163 81.14837398373983,25.35569105691057 81.14837398373983,25.711382113821138 81.14837398373983,25.965447154471544 81.14837398373983,26.21951219512195 81.25,26.778455284552845 81.30081300813008,27.489837398373982 81.40243902439025,28.2520325203252 81.5040650406504,29.01422764227642 81.5040650406504,29.725609756097562 81.5040650406504,30.284552845528456 81.5040650406504,30.741869918699187 81.40243902439025,31.097560975609756 81.25,31.351626016260163 81.04674796747967,31.554878048780488 80.79268292682927,31.70731707317073 80.6910569105691,31.70731707317073 80.53861788617886,31.758130081300813 80.28455284552845,31.758130081300813 79.97967479674797,31.758130081300813 79.67479674796748,31.65650406504065 79.369918699187,31.402439024390244 79.11585365853658,31.19918699186992 78.91260162601625,30.945121951219512 78.8109756097561,30.741869918699187 78.8109756097561,30.589430894308943 78.8109756097561,30.538617886178862" fill="none" stroke="black" stroke-width="0.6"></polyline><polyline points="82.5711382113821,19.715447154471544 82.5711382113821,19.766260162601625 82.46951219512195,19.766260162601625 82.41869918699187,19.817073170731707 82.36788617886178,19.91869918699187 82.26626016260163,20.020325203252032 82.16463414634146,20.223577235772357 82.11382113821138,20.477642276422763 82.01219512195122,20.68089430894309 81.96138211382113,20.833333333333332 81.96138211382113,20.934959349593495 81.96138211382113,20.934959349593495" fill="none" stroke="black" stroke-width="0.6"></polyline><polyline points="16.869918699186993,37.042682926829265 16.81910569105691,36.99186991869919 16.71747967479675,36.99186991869919 16.666666666666668,36.99186991869919 16.615853658536587,36.99186991869919 16.565040650406505,36.99186991869919 16.514227642276424,37.09349593495935 16.41260162601626,37.34756097560975 16.36178861788618,37.855691056910565 16.209349593495933,38.71951219512195 16.10772357723577,39.6849593495935 15.955284552845528,40.701219512195124 15.752032520325203,41.81910569105691 15.548780487804878,42.78455284552845 15.345528455284553,43.75 15.142276422764228,44.71544715447154 14.939024390243903,45.325203252032516 14.83739837398374,45.68089430894309 14.786585365853659,45.78252032520325 14.786585365853659,45.78252032520325 14.83739837398374,45.73170731707317 14.939024390243903,45.63008130081301 15.091463414634147,45.3760162601626 15.294715447154472,44.8170731707317" fill="none" stroke="black" stroke-width="0.6"></polyline><polyline points="19.410569105691057,38.16056910569105 19.410569105691057,38.16056910569105 19.308943089430894,38.109756097560975 19.20731707317073,38.05894308943089 19.20731707317073,38.05894308943089 19.15650406504065,38.05894308943089 19.10569105691057,38.05894308943089 19.004065040650406,38.05894308943089 18.80081300813008,38.262195121951216 18.546747967479675,38.61788617886179 18.191056910569106,39.1260162601626 17.835365853658537,39.63414634146341 17.479674796747968,40.19308943089431 17.1239837398374,40.802845528455286 16.81910569105691,41.3109756097561 16.565040650406505,41.71747967479675 16.36178861788618,42.02235772357724 16.3109756097561,42.17479674796748 16.3109756097561,42.17479674796748 16.3109756097561,42.22560975609756 16.36178861788618,42.22560975609756 16.463414634146343,42.27642276422764 16.666666666666668,42.42886178861789 16.920731707317074,42.58130081300813 17.17479674796748,42.78455284552845 17.428861788617887,43.03861788617886 17.682926829268293,43.292682926829265 17.98780487804878,43.64837398373984 18.34349593495935,44.105691056910565 18.69918699186992,44.71544715447154 19.054878048780488,45.325203252032516 19.359756097560975,45.833333333333336 19.61382113821138,46.1890243902439 19.817073170731707,46.44308943089431 19.91869918699187,46.54471544715447 19.96951219512195,46.646341463414636 20.020325203252032,46.697154471544714 20.071138211382113,46.7479674796748 20.121951219512194,46.798780487804876 20.172764227642276,46.798780487804876 20.223577235772357,46.798780487804876" fill="none" stroke="black" stroke-width="0.6"></polyline><polyline points="32.11382113821138,37.449186991869915 32.11382113821138,37.39837398373984 32.11382113821138,37.34756097560975 32.11382113821138,37.296747967479675 32.11382113821138,37.24593495934959 32.11382113821138,37.19512195121951 32.11382113821138,37.14430894308943 32.16463414634146,37.14430894308943 32.16463414634146,37.14430894308943 32.16463414634146,37.19512195121951 32.16463414634146,37.449186991869915 32.11382113821138,38.00813008130081 32.012195121951216,38.87195121951219 31.961382113821138,39.43089430894309 31.910569105691057,40.09146341463415 31.70731707317073,41.514227642276424 31.60569105691057,42.27642276422764 31.554878048780488,42.98780487804878 31.351626016260163,44.15650406504065 31.25,44.8170731707317 31.148373983739837,45.22357723577235 31.097560975609756,45.52845528455285 31.097560975609756,45.73170731707317 31.097560975609756,45.78252032520325 31.097560975609756,45.78252032520325 31.097560975609756,45.78252032520325 31.097560975609756,45.78252032520325 31.097560975609756,45.78252032520325 31.097560975609756,45.78252032520325 31.097560975609756,45.78252032520325 31.097560975609756,45.73170731707317 31.097560975609756,45.68089430894309 31.097560975609756,45.52845528455285 31.148373983739837,45.325203252032516 31.19918699186992,45.02032520325203" fill="none" stroke="black" stroke-width="0.6"></polyline><polyline points="46.90040650406504,42.58130081300813 46.90040650406504,42.58130081300813 46.90040650406504,42.58130081300813 46.84959349593496,42.58130081300813 46.84959349593496,42.58130081300813 46.84959349593496,42.58130081300813 46.84959349593496,42.58130081300813 46.84959349593496,42.63211382113821 46.84959349593496,42.98780487804878 46.84959349593496,43.699186991869915 46.798780487804876,44.5630081300813 46.7479674796748,45.3760162601626 46.646341463414636,46.03658536585366 46.59552845528455,46.239837398373986 46.49390243902439,46.44308943089431 46.392276422764226,46.697154471544714 46.34146341463415,46.798780487804876 46.34146341463415,46.84959349593496 46.290650406504064,46.84959349593496 46.290650406504064,46.84959349593496 46.290650406504064,46.84959349593496 46.34146341463415,46.697154471544714 46.44308943089431,46.44308943089431 46.59552845528455,45.9349593495935 46.798780487804876,45.325203252032516 47.052845528455286,44.71544715447154 47.25609756097561,44.05487804878049 47.5609756097561,43.292682926829265 47.86585365853659,42.63211382113821 48.27235772357724,41.97154471544715 48.42479674796748,41.81910569105691 48.577235772357724,41.71747967479675 48.88211382113821,41.61585365853659 49.08536585365854,41.666666666666664 49.23780487804878,41.86991869918699 49.28861788617886,42.073170731707314 49.33943089430894,42.27642276422764 49.4410569105691,42.9369918699187 49.4410569105691,43.292682926829265 49.4410569105691,43.64837398373984 49.4410569105691,44.359756097560975 49.33943089430894,45.172764227642276 49.1869918699187,45.833333333333336 49.03455284552845,46.392276422764226 48.83130081300813,46.84959349593496 48.67886178861789,47.15447154471545 48.6280487804878,47.25609756097561 48.6280487804878,47.25609756097561 48.67886178861789,47.20528455284553 48.78048780487805,46.951219512195124 49.03455284552845,46.49390243902439" fill="none" stroke="black" stroke-width="0.6"></polyline><polyline points="49.03455284552845,46.49390243902439 49.136178861788615,46.239837398373986 49.28861788617886,45.985772357723576 49.542682926829265,45.325203252032516 49.89837398373984,44.5630081300813 50.203252032520325,43.80081300813008 50.55894308943089,43.08943089430894 50.96544715447154,42.327235772357724 51.168699186991866,42.073170731707314 51.37195121951219,41.86991869918699 51.72764227642276,41.666666666666664 52.03252032520325,41.666666666666664 52.235772357723576,41.71747967479675 52.4390243902439,41.920731707317074 52.59146341463415,42.22560975609756 52.69308943089431,42.63211382113821 52.74390243902439,43.24186991869919 52.79471544715447,43.90243902439024 52.74390243902439,44.66463414634146 52.642276422764226,45.47764227642276 52.4390243902439,46.290650406504064 52.28658536585366,47.0020325203252 52.083333333333336,47.5609756097561 51.981707317073166,47.916666666666664 51.93089430894309,48.11991869918699 51.93089430894309,48.170731707317074 51.93089430894309,48.170731707317074 52.03252032520325,48.22154471544715 52.083333333333336,48.22154471544715 52.1849593495935,48.170731707317074 52.38821138211382,47.96747967479675" fill="none" stroke="black" stroke-width="0.6"></polyline><polyline points="63.61788617886179,42.53048780487805 63.61788617886179,42.68292682926829 63.61788617886179,42.9369918699187 63.61788617886179,43.140243902439025 63.61788617886179,43.90243902439024 63.61788617886179,44.20731707317073 63.668699186991866,44.86788617886179 63.668699186991866,45.52845528455285 63.61788617886179,46.03658536585366 63.516260162601625,46.44308943089431 63.41463414634146,46.7479674796748 63.36382113821138,46.798780487804876 63.36382113821138,46.798780487804876 63.36382113821138,46.697154471544714 63.36382113821138,46.392276422764226 63.46544715447154,45.985772357723576 63.61788617886179,45.47764227642276 63.77032520325203,44.918699186991866 63.87195121951219,44.61382113821138 63.922764227642276,44.25813008130081 64.17682926829268,43.59756097560975 64.43089430894308,42.98780487804878 64.73577235772358,42.327235772357724 65.14227642276423,41.86991869918699 65.54878048780488,41.61585365853659 65.95528455284553,41.61585365853659 66.20934959349593,41.97154471544715 66.46341463414635,42.42886178861789 66.71747967479675,42.98780487804878 66.869918699187,43.64837398373984 67.02235772357723,44.41056910569105 67.02235772357723,45.22357723577235 66.97154471544715,45.9349593495935 66.8191056910569,46.54471544715447 66.61585365853658,47.103658536585364 66.51422764227642,47.459349593495936 66.46341463414635,47.66260162601626 66.46341463414635,47.764227642276424 66.46341463414635,47.8150406504065 66.46341463414635,47.8150406504065 66.5650406504065,47.8150406504065 66.61585365853658,47.8150406504065 66.71747967479675,47.764227642276424" fill="none" stroke="black" stroke-width="0.6"></polyline><polyline points="81.09756097560975,41.86991869918699 81.09756097560975,41.81910569105691 81.09756097560975,41.76829268292683 81.09756097560975,41.61585365853659 81.09756097560975,41.5650406504065 81.09756097560975,41.46341463414634 81.09756097560975,41.36178861788618 81.04674796747967,41.260162601626014 80.9959349593496,41.15853658536585 80.9451219512195,41.05691056910569 80.84349593495935,41.05691056910569 80.6910569105691,41.05691056910569 80.4369918699187,41.260162601626014 80.33536585365853,41.41260162601626 80.1321138211382,41.666666666666664 79.82723577235772,42.27642276422764 79.57317073170732,42.98780487804878 79.42073170731707,43.75 79.369918699187,44.512195121951216 79.52235772357723,45.172764227642276 79.77642276422765,45.579268292682926 80.1829268292683,45.88414634146341 80.53861788617886,46.08739837398374 80.6910569105691,46.13821138211382 80.89430894308943,46.1890243902439 81.30081300813008,46.239837398373986 81.70731707317073,46.239837398373986 82.0630081300813,46.08739837398374 82.52032520325203,45.88414634146341 82.92682926829268,45.52845528455285 83.28252032520325,45.172764227642276 83.6890243902439,44.71544715447154 83.9430894308943,44.25813008130081 84.04471544715447,44.05487804878049 84.14634146341463,43.80081300813008 84.29878048780488,43.24186991869919 84.34959349593495,42.63211382113821 84.34959349593495,41.920731707317074 84.1971544715447,41.15853658536585 84.04471544715447,40.853658536585364 83.9430894308943,40.65040650406504 83.53658536585365,40.29471544715447 83.02845528455285,40.09146341463415 82.52032520325203,40.09146341463415 81.85975609756098,40.09146341463415 81.14837398373983,40.24390243902439 80.58943089430895,40.34552845528455 80.08130081300813,40.4979674796748 79.72560975609755,40.59959349593496 79.6239837398374,40.65040650406504 79.57317073170732,40.7520325203252" fill="none" stroke="black" stroke-width="0.6"></polyline><polyline points="79.57317073170732,40.7520325203252 79.6239837398374,40.90447154471545 79.77642276422765,41.209349593495936 79.92886178861788,41.36178861788618" fill="none" stroke="black" stroke-width="0.6"></polyline><polyline points="16.666666666666668,59.2479674796748 16.615853658536587,59.197154471544714 16.565040650406505,59.146341463414636 16.463414634146343,59.09552845528455 16.463414634146343,59.04471544715447 16.463414634146343,59.04471544715447 16.41260162601626,59.04471544715447 16.41260162601626,59.04471544715447 16.41260162601626,59.146341463414636 16.41260162601626,59.2479674796748 16.41260162601626,59.5020325203252 16.41260162601626,60.16260162601626 16.41260162601626,60.61991869918699 16.463414634146343,61.636178861788615 16.514227642276424,62.19512195121951 16.514227642276424,62.7540650406504 16.565040650406505,63.3130081300813 16.615853658536587,64.32926829268293 16.615853658536587,64.73577235772358 16.666666666666668,65.29471544715447 16.666666666666668,65.65040650406505 16.71747967479675,65.7520325203252 16.71747967479675,65.7520325203252 16.71747967479675,65.7520325203252 16.76829268292683,65.65040650406505 16.76829268292683,65.44715447154472 16.76829268292683,65.04065040650406 16.76829268292683,64.53252032520325 16.71747967479675,63.97357723577235 16.615853658536587,63.262195121951216 16.514227642276424,62.65243902439024 16.41260162601626,61.9410569105691 16.3109756097561,61.077235772357724 16.260162601626014,60.36585365853659 16.209349593495933,59.603658536585364 16.209349593495933,58.84146341463415 16.3109756097561,58.231707317073166 16.514227642276424,57.672764227642276 16.615853658536587,57.3170731707317 16.76829268292683,57.11382113821138 17.073170731707318,56.75813008130081 17.378048780487806,56.605691056910565 17.682926829268293,56.55487804878049 17.98780487804878,56.605691056910565 18.29268292682927,56.75813008130081 18.597560975609756,57.0630081300813 18.851626016260163,57.418699186991866 19.004065040650406,57.8760162601626 19.10569105691057,58.485772357723576 19.10569105691057,59.146341463414636 19.004065040650406,59.857723577235774" fill="none" stroke="black" stroke-width="0.6"></polyline><polyline points="19.004065040650406,59.857723577235774 18.75,60.56910569105691 18.445121951219512,61.1280487804878 18.038617886178862,61.483739837398375 17.682926829268293,61.73780487804878 17.378048780487806,61.78861788617886 17.1239837398374,61.78861788617886 16.869918699186993,61.73780487804878 16.76829268292683,61.636178861788615 16.666666666666668,61.483739837398375 16.666666666666668,61.38211382113821 16.71747967479675,61.229674796747965 16.869918699186993,61.1280487804878" fill="none" stroke="black" stroke-width="0.6"></polyline><polyline points="34.40040650406504,57.92682926829268 34.34959349593496,57.72357723577235 34.34959349593496,57.52032520325203 34.34959349593496,57.3170731707317 34.34959349593496,57.012195121951216 34.40040650406504,56.91056910569105 34.40040650406504,56.75813008130081 34.451219512195124,56.453252032520325 34.451219512195124,56.199186991869915 34.451219512195124,55.94512195121951 34.451219512195124,55.792682926829265 34.451219512195124,55.6910569105691 34.34959349593496,55.53861788617886 34.298780487804876,55.4369918699187 34.197154471544714,55.386178861788615 34.09552845528455,55.386178861788615 33.99390243902439,55.386178861788615 33.892276422764226,55.386178861788615 33.58739837398374,55.58943089430894 33.4349593495935,55.74186991869919 33.079268292682926,56.199186991869915 32.72357723577236,56.75813008130081 32.418699186991866,57.36788617886179 32.21544715447154,57.92682926829268 32.0630081300813,58.485772357723576 32.012195121951216,58.99390243902439 32.0630081300813,59.34959349593496 32.21544715447154,59.552845528455286 32.418699186991866,59.70528455284553 32.672764227642276,59.75609756097561 32.8760162601626,59.75609756097561 33.13008130081301,59.70528455284553 33.38414634146341,59.5020325203252 33.63821138211382,59.2479674796748 33.94308943089431,58.892276422764226 34.09552845528455,58.6890243902439 34.197154471544714,58.485772357723576 34.34959349593496,58.33333333333333 34.451219512195124,58.130081300813 34.65447154471545,57.77439024390244 34.70528455284553,57.62195121951219 34.75609756097561,57.52032520325203 34.75609756097561,57.418699186991866 34.75609756097561,57.266260162601625 34.75609756097561,57.21544715447154 34.70528455284553,57.21544715447154 34.65447154471545,57.21544715447154 34.603658536585364,57.21544715447154 34.552845528455286,57.21544715447154 34.451219512195124,57.21544715447154 34.451219512195124,57.21544715447154" fill="none" stroke="black" stroke-width="0.6"></polyline><polyline points="34.451219512195124,57.21544715447154 34.40040650406504,57.21544715447154 34.40040650406504,57.266260162601625 34.34959349593496,57.266260162601625 34.34959349593496,57.266260162601625 34.34959349593496,57.3170731707317 34.34959349593496,57.36788617886179 34.34959349593496,57.52032520325203 34.34959349593496,57.62195121951219 34.34959349593496,57.77439024390244 34.298780487804876,58.28252032520325 34.298780487804876,58.58739837398374 34.2479674796748,58.94308943089431 34.146341463414636,59.90853658536585 34.09552845528455,60.46747967479675 33.99390243902439,61.6869918699187 33.84146341463415,62.80487804878049 33.6890243902439,63.61788617886179 33.58739837398374,64.17682926829268 33.4349593495935,64.53252032520325 33.38414634146341,64.6849593495935 33.38414634146341,64.73577235772358 33.38414634146341,64.78658536585365 33.38414634146341,64.78658536585365 33.38414634146341,64.78658536585365 33.38414634146341,64.78658536585365 33.38414634146341,64.78658536585365 33.38414634146341,64.78658536585365 33.38414634146341,64.73577235772358 33.4349593495935,64.58333333333333 33.53658536585366,64.32926829268293 33.63821138211382,64.1260162601626 33.790650406504064,63.922764227642276 33.99390243902439,63.77032520325203 34.298780487804876,63.61788617886179 34.65447154471545,63.516260162601625 35.010162601626014,63.41463414634146 35.36585365853659,63.36382113821138 35.72154471544715,63.3130081300813 35.97560975609756,63.3130081300813 36.1280487804878,63.3130081300813 36.229674796747965,63.3130081300813 36.28048780487805,63.3130081300813 36.28048780487805,63.3130081300813 36.28048780487805,63.3130081300813 36.28048780487805,63.3130081300813" fill="none" stroke="black" stroke-width="0.6"></polyline><polyline points="47.916666666666664,57.97764227642276 47.916666666666664,57.97764227642276 47.916666666666664,57.97764227642276 47.916666666666664,57.97764227642276 47.916666666666664,57.97764227642276 47.916666666666664,57.97764227642276 47.916666666666664,57.97764227642276 47.86585365853659,57.97764227642276 47.86585365853659,57.97764227642276 47.86585365853659,58.079268292682926 47.916666666666664,58.18089430894309 48.01829268292683,58.536585365853654 48.06910569105691,58.84146341463415 48.11991869918699,59.197154471544714 48.22154471544715,60.010162601626014 48.27235772357724,60.72154471544715 48.27235772357724,61.33130081300813 48.27235772357724,61.78861788617886 48.170731707317074,62.042682926829265 48.170731707317074,62.09349593495935 48.170731707317074,62.14430894308943 48.11991869918699,62.14430894308943 48.11991869918699,62.14430894308943 48.11991869918699,62.09349593495935 48.11991869918699,62.042682926829265 48.11991869918699,61.890243902439025 48.11991869918699,61.78861788617886 48.11991869918699,61.43292682926829 48.11991869918699,60.92479674796748 48.11991869918699,60.36585365853659 48.170731707317074,59.80691056910569 48.22154471544715,59.197154471544714 48.3739837398374,58.536585365853654 48.577235772357724,57.97764227642276 48.67886178861789,57.77439024390244 48.78048780487805,57.57113821138211 49.08536585365854,57.21544715447154 49.390243902439025,57.11382113821138 49.796747967479675,57.012195121951216 50.30487804878049,56.96138211382114 50.8130081300813,56.859756097560975 51.11788617886179,56.80894308943089 51.422764227642276,56.75813008130081 51.93089430894309,56.70731707317073 52.38821138211382,56.70731707317073 52.69308943089431,56.91056910569105" fill="none" stroke="black" stroke-width="0.6"></polyline><polyline points="66.3109756097561,56.80894308943089 66.3109756097561,56.70731707317073 66.3109756097561,56.605691056910565 66.36178861788618,56.453252032520325 66.41260162601625,56.30081300813008 66.41260162601625,56.199186991869915 66.41260162601625,56.14837398373984 66.41260162601625,56.046747967479675 66.36178861788618,55.99593495934959 66.3109756097561,55.89430894308943 66.15853658536585,55.74186991869919 66.0569105691057,55.6910569105691 65.90447154471545,55.640243902439025 65.7520325203252,55.58943089430894 65.39634146341463,55.48780487804878 64.98983739837398,55.48780487804878 64.58333333333333,55.48780487804878 64.380081300813,55.53861788617886 64.22764227642276,55.58943089430894 64.07520325203252,55.6910569105691 63.922764227642276,55.792682926829265 63.82113821138211,55.89430894308943 63.71951219512195,55.99593495934959 63.668699186991866,56.09756097560975 63.668699186991866,56.199186991869915 63.71951219512195,56.35162601626016 63.82113821138211,56.5040650406504 63.922764227642276,56.605691056910565 64.07520325203252,56.75813008130081 64.27845528455285,56.91056910569105 64.48170731707317,57.012195121951216 64.6849593495935,57.21544715447154 65.14227642276423,57.52032520325203 65.59959349593495,57.97764227642276 65.95528455284553,58.485772357723576 66.20934959349593,59.146341463414636 66.36178861788618,59.857723577235774 66.36178861788618,60.51829268292683 66.3109756097561,61.02642276422764 66.20934959349593,61.28048780487805 66.10772357723577,61.38211382113821 65.95528455284553,61.53455284552845 65.65040650406505,61.73780487804878 65.4979674796748,61.83943089430894 65.29471544715447,61.890243902439025 65.14227642276423,61.9410569105691 64.9390243902439,61.99186991869919 64.73577235772358,61.99186991869919 64.48170731707317,61.99186991869919 64.22764227642276,61.99186991869919 64.02439024390243,61.9410569105691" fill="none" stroke="black" stroke-width="0.6"></polyline><polyline points="64.02439024390243,61.9410569105691 63.5670731707317,61.73780487804878 63.36382113821138,61.58536585365854 63.16056910569105,61.483739837398375 62.95731707317073,61.28048780487805 62.80487804878049,61.17886178861789 62.703252032520325,61.077235772357724 62.65243902439024,60.97560975609756 62.60162601626016,60.92479674796748 62.60162601626016,60.8739837398374 62.703252032520325,60.8739837398374 62.95731707317073,60.823170731707314 63.3130081300813,60.823170731707314 63.5670731707317,60.823170731707314" fill="none" stroke="black" stroke-width="0.6"></polyline><polyline points="80.9959349593496,53.55691056910569 80.9451219512195,53.40447154471545 80.89430894308943,53.09959349593496 80.89430894308943,52.79471544715447 80.89430894308943,52.642276422764226 80.89430894308943,52.540650406504064 80.9451219512195,52.33739837398374 80.9451219512195,52.28658536585366 80.9451219512195,52.235772357723576 80.9959349593496,52.1849593495935 80.9959349593496,52.1849593495935 80.9959349593496,52.33739837398374 80.9959349593496,52.84552845528455 80.9451219512195,53.86178861788618 80.89430894308943,54.573170731707314 80.84349593495935,55.33536585365854 80.74186991869918,57.0630081300813 80.74186991869918,57.97764227642276 80.6910569105691,58.892276422764226 80.64024390243902,60.51829268292683 80.64024390243902,61.28048780487805 80.64024390243902,61.73780487804878 80.64024390243902,62.449186991869915 80.6910569105691,62.90650406504065 80.74186991869918,63.21138211382114 80.79268292682927,63.3130081300813 80.79268292682927,63.36382113821138 80.84349593495935,63.36382113821138 80.84349593495935,63.3130081300813 80.84349593495935,63.262195121951216 80.89430894308943,63.05894308943089 80.89430894308943,62.855691056910565 80.89430894308943,62.703252032520325 80.9451219512195,62.24593495934959 80.9451219512195,61.78861788617886" fill="none" stroke="black" stroke-width="0.6"></polyline><polyline points="79.01422764227642,59.09552845528455 78.96341463414635,59.146341463414636 78.91260162601625,59.146341463414636 78.86178861788618,59.146341463414636 78.8109756097561,59.146341463414636 78.91260162601625,59.146341463414636 79.21747967479675,59.197154471544714 79.67479674796748,59.197154471544714 79.92886178861788,59.146341463414636 80.23373983739837,59.09552845528455 80.89430894308943,58.99390243902439 81.65650406504065,58.84146341463415 82.46951219512195,58.6890243902439 83.130081300813,58.58739837398374 83.6890243902439,58.536585365853654 83.9430894308943,58.485772357723576 84.1971544715447,58.43495934959349 84.55284552845528,58.43495934959349 84.70528455284553,58.43495934959349" fill="none" stroke="black" stroke-width="0.6"></polyline><polyline points="15.59959349593496,74.28861788617886 15.59959349593496,74.23780487804878 15.548780487804878,74.23780487804878 15.548780487804878,74.1869918699187 15.497967479674797,74.1869918699187 15.497967479674797,74.13617886178862 15.447154471544716,74.13617886178862 15.447154471544716,74.13617886178862 15.447154471544716,74.13617886178862 15.396341463414634,74.13617886178862 15.396341463414634,74.13617886178862 15.345528455284553,74.13617886178862 15.294715447154472,74.23780487804878 15.19308943089431,74.54268292682927 15.142276422764228,74.79674796747967 15.091463414634147,75.05081300813008 15.040650406504065,75.35569105691057 14.989837398373984,75.71138211382113 14.939024390243903,76.11788617886178 14.888211382113822,76.93089430894308 14.888211382113822,77.33739837398373 14.888211382113822,77.6930894308943 14.939024390243903,78.45528455284553 15.091463414634147,79.11585365853658 15.294715447154472,79.57317073170732 15.497967479674797,79.92886178861788 15.752032520325203,80.1829268292683 16.006097560975608,80.28455284552845 16.3109756097561,80.28455284552845 16.615853658536587,80.1829268292683 16.869918699186993,79.97967479674797 17.1239837398374,79.57317073170732 17.378048780487806,79.11585365853658 17.479674796747968,78.91260162601625 17.58130081300813,78.65853658536585 17.682926829268293,78.45528455284553 17.784552845528456,78.30284552845528 17.98780487804878,77.89634146341463 18.089430894308943,77.54065040650406 18.140243902439025,77.33739837398373 18.191056910569106,77.1849593495935 18.241869918699187,76.82926829268293 18.241869918699187,76.47357723577235 18.241869918699187,76.16869918699187 18.241869918699187,75.8130081300813 18.191056910569106,75.71138211382113 18.191056910569106,75.5589430894309 18.191056910569106,75.45731707317073 18.140243902439025,75.30487804878048 18.089430894308943,75.2540650406504 18.089430894308943,75.20325203252033" fill="none" stroke="black" stroke-width="0.6"></polyline><polyline points="18.089430894308943,75.20325203252033 18.038617886178862,75.20325203252033 18.038617886178862,75.20325203252033 18.038617886178862,75.20325203252033 18.038617886178862,75.2540650406504 18.038617886178862,75.30487804878048 18.038617886178862,75.5589430894309 18.038617886178862,75.91463414634146 18.038617886178862,76.42276422764228 18.140243902439025,76.98170731707317 18.241869918699187,77.54065040650406 18.39430894308943,78.15040650406505 18.546747967479675,78.65853658536585 18.75,79.0650406504065 18.953252032520325,79.42073170731707 19.10569105691057,79.57317073170732 19.20731707317073,79.6239837398374 19.359756097560975,79.6239837398374 19.410569105691057,79.6239837398374 19.51219512195122,79.57317073170732 19.61382113821138,79.47154471544715 19.766260162601625,79.3191056910569" fill="none" stroke="black" stroke-width="0.6"></polyline><polyline points="31.859756097560975,75.45731707317073 31.859756097560975,75.45731707317073 31.859756097560975,75.45731707317073 31.859756097560975,75.45731707317073 31.910569105691057,75.45731707317073 31.910569105691057,75.45731707317073 31.910569105691057,75.5081300813008 32.012195121951216,75.76219512195122 32.21544715447154,76.3719512195122 32.52032520325203,77.4390243902439 32.82520325203252,78.70934959349593 33.18089430894309,79.8780487804878 33.4349593495935,80.6910569105691 33.53658536585366,81.04674796747967 33.63821138211382,81.30081300813008 33.790650406504064,81.60569105691057 33.84146341463415,81.7581300813008 33.94308943089431,81.91056910569105 34.04471544715447,82.01219512195122 34.197154471544714,82.11382113821138 34.34959349593496,82.11382113821138 34.552845528455286,81.96138211382113 34.75609756097561,81.55487804878048 34.90853658536585,80.9451219512195 35.11178861788618,80.23373983739837 35.264227642276424,79.42073170731707 35.36585365853659,78.60772357723577 35.46747967479675,77.79471544715447 35.51829268292683,76.880081300813 35.56910569105691,76.21951219512195 35.56910569105691,75.71138211382113 35.56910569105691,75.30487804878048 35.56910569105691,75.20325203252033 35.56910569105691,75.15243902439025 35.56910569105691,75.15243902439025 35.56910569105691,75.20325203252033 35.56910569105691,75.30487804878048 35.61991869918699,75.60975609756098" fill="none" stroke="black" stroke-width="0.6"></polyline><polyline points="48.22154471544715,75.10162601626016 48.11991869918699,75.05081300813008 47.96747967479675,75 47.916666666666664,74.94918699186992 47.916666666666664,74.94918699186992 47.916666666666664,75.05081300813008 47.916666666666664,75.5081300813008 47.96747967479675,76.3211382113821 48.06910569105691,77.6930894308943 48.22154471544715,79.0650406504065 48.3739837398374,80.33536585365853 48.47560975609756,81.30081300813008 48.577235772357724,81.70731707317073 48.67886178861789,81.91056910569105 48.78048780487805,81.96138211382113 48.83130081300813,81.96138211382113 48.93292682926829,81.85975609756098 49.08536585365854,81.65650406504065 49.1869918699187,81.25 49.33943089430894,80.84349593495935 49.4410569105691,80.33536585365853 49.49186991869919,79.8780487804878 49.542682926829265,79.42073170731707 49.64430894308943,78.8109756097561 49.69512195121951,78.2520325203252 49.74593495934959,77.64227642276423 49.84756097560975,77.1341463414634 49.89837398373984,76.98170731707317 49.949186991869915,76.98170731707317 50,76.98170731707317 50.05081300813008,77.28658536585365 50.10162601626016,77.54065040650406 50.15243902439024,78.20121951219512 50.2540650406504,78.86178861788618 50.40650406504065,79.47154471544715 50.50813008130081,80.08130081300813 50.71138211382114,80.64024390243902 50.91463414634146,81.04674796747967 51.21951219512195,81.45325203252033 51.575203252032516,81.7581300813008 51.93089430894309,81.85975609756098 52.28658536585366,81.91056910569105 52.540650406504064,81.85975609756098 52.74390243902439,81.70731707317073 52.79471544715447,81.60569105691057 52.84552845528455,81.5040650406504 52.947154471544714,81.19918699186992 52.9979674796748,80.9959349593496 52.9979674796748,80.79268292682927 53.048780487804876,80.28455284552845 53.048780487804876,79.67479674796748" fill="none" stroke="black" stroke-width="0.6"></polyline><polyline points="53.048780487804876,79.67479674796748 53.048780487804876,78.91260162601625 53.048780487804876,78.45528455284553 52.9979674796748,77.89634146341463 52.947154471544714,76.72764227642276 52.84552845528455,75.5081300813008 52.74390243902439,74.39024390243902 52.59146341463415,73.78048780487805 52.489837398373986,73.78048780487805 52.4390243902439,73.83130081300813 52.38821138211382,73.98373983739837 52.33739837398374,74.1869918699187 52.33739837398374,74.4410569105691 52.28658536585366,74.7459349593496" fill="none" stroke="black" stroke-width="0.6"></polyline><polyline points="62.296747967479675,74.28861788617886 62.19512195121951,73.98373983739837 62.14430894308943,73.78048780487805 62.14430894308943,73.67886178861788 62.24593495934959,73.67886178861788 62.39837398373984,73.78048780487805 62.60162601626016,74.03455284552845 62.855691056910565,74.49186991869918 63.262195121951216,75.2540650406504 63.71951219512195,76.11788617886178 64.32926829268293,77.1341463414634 64.98983739837398,78.09959349593495 65.54878048780488,78.76016260162602 66.0060975609756,79.26829268292683 66.46341463414635,79.67479674796748 66.869918699187,79.92886178861788 67.22560975609755,80.1321138211382 67.47967479674797,80.23373983739837 67.6829268292683,80.23373983739837 67.83536585365853,80.23373983739837 67.83536585365853,80.1829268292683 67.83536585365853,79.92886178861788 67.78455284552845,79.57317073170732" fill="none" stroke="black" stroke-width="0.6"></polyline><polyline points="67.88617886178862,73.98373983739837 67.9369918699187,73.8821138211382 67.9369918699187,73.83130081300813 67.9369918699187,73.78048780487805 67.9369918699187,73.78048780487805 67.83536585365853,73.78048780487805 67.6321138211382,73.98373983739837 67.22560975609755,74.49186991869918 66.66666666666667,75.35569105691057 65.85365853658537,76.57520325203252 65.04065040650406,78.09959349593495 64.32926829268293,79.3191056910569 63.71951219512195,80.4369918699187 63.16056910569105,81.45325203252033 62.7540650406504,82.16463414634146 62.449186991869915,82.72357723577235 62.34756097560975,82.97764227642276 62.39837398373984,82.97764227642276 62.65243902439024,82.82520325203252 63.00813008130081,82.46951219512195" fill="none" stroke="black" stroke-width="0.6"></polyline><polyline points="79.6239837398374,75.5589430894309 79.57317073170732,75.10162601626016 79.52235772357723,74.7459349593496 79.57317073170732,74.49186991869918 79.72560975609755,74.39024390243902 79.82723577235772,74.39024390243902 79.8780487804878,74.39024390243902 79.92886178861788,74.39024390243902 79.92886178861788,74.4410569105691 79.97967479674797,74.59349593495935 80.03048780487805,74.6951219512195 80.08130081300813,75.05081300813008 80.1321138211382,75.30487804878048 80.28455284552845,75.96544715447155 80.38617886178862,76.67682926829268 80.48780487804878,77.38821138211382 80.64024390243902,78.04878048780488 80.79268292682927,78.45528455284553 80.9451219512195,78.65853658536585 81.14837398373983,78.65853658536585 81.25,78.65853658536585 81.35162601626016,78.5569105691057 81.45325203252033,78.45528455284553 81.55487804878048,78.30284552845528 81.7581300813008,77.89634146341463 82.01219512195122,77.38821138211382 82.26626016260163,76.82926829268293 82.52032520325203,76.21951219512195 82.72357723577235,75.66056910569105 82.97764227642276,75.05081300813008 83.23170731707317,74.33943089430895 83.33333333333333,73.98373983739837 83.48577235772358,73.67886178861788 83.63821138211382,73.32317073170732 83.84146341463415,73.01829268292683 84.2479674796748,72.40853658536585 84.5020325203252,72.10365853658537 84.60365853658537,72.05284552845528 84.60365853658537,72.05284552845528 84.60365853658537,72.05284552845528 84.60365853658537,72.20528455284553 84.40040650406503,72.66260162601625 84.04471544715447,73.47560975609755 83.58739837398373,74.59349593495935 83.07926829268293,75.96544715447155 82.46951219512195,77.79471544715447 81.85975609756098,79.82723577235772 81.30081300813008,81.91056910569105 81.04674796747967,82.82520325203252 80.79268292682927,83.79065040650406 80.4369918699187,85.0609756097561" fill="none" stroke="black" stroke-width="0.6"></polyline><polyline points="80.4369918699187,85.0609756097561 80.28455284552845,85.5691056910569 80.1321138211382,86.02642276422765 79.97967479674797,86.73780487804878 79.92886178861788,86.89024390243902 79.92886178861788,86.99186991869918 79.92886178861788,87.04268292682927 80.08130081300813,87.04268292682927 80.23373983739837,86.83943089430895 80.38617886178862,86.53455284552845 80.4369918699187,86.33130081300813" fill="none" stroke="black" stroke-width="0.6"></polyline><polyline points="14.684959349593496,88.77032520325203 14.53252032520325,88.8719512195122 14.329268292682926,89.02439024390243 14.227642276422763,89.07520325203252 14.176829268292682,89.1260162601626 14.1260162601626,89.17682926829268 14.1260162601626,89.22764227642276 14.1260162601626,89.22764227642276 14.1260162601626,89.27845528455285 14.227642276422763,89.27845528455285 14.380081300813007,89.32926829268293 14.53252032520325,89.380081300813 14.888211382113822,89.43089430894308 15.59959349593496,89.53252032520325 16.15853658536585,89.53252032520325 16.81910569105691,89.58333333333333 17.1239837398374,89.6341463414634 17.428861788617887,89.6341463414634 18.038617886178862,89.73577235772358 18.29268292682927,89.78658536585365 18.597560975609756,89.88821138211382 18.902439024390244,89.98983739837398 19.054878048780488,90.14227642276423 19.10569105691057,90.29471544715447 19.10569105691057,90.34552845528455 19.004065040650406,90.65040650406503 18.851626016260163,91.0569105691057 18.69918699186992,91.3109756097561 18.546747967479675,91.5650406504065 18.39430894308943,91.8191056910569 17.98780487804878,92.32723577235772 17.53048780487805,92.98780487804878 17.022357723577237,93.59756097560975 16.76829268292683,93.95325203252033 16.514227642276424,94.3089430894309 15.853658536585366,95.1219512195122 15.59959349593496,95.47764227642276 15.142276422764228,96.13821138211382 14.786585365853659,96.54471544715447 14.684959349593496,96.6971544715447 14.634146341463413,96.6971544715447 14.735772357723578,96.6971544715447 14.83739837398374,96.6971544715447 15.040650406504065,96.6971544715447 15.497967479674797,96.64634146341463 15.802845528455284,96.59552845528455 16.41260162601626,96.4430894308943 16.81910569105691,96.39227642276423 17.1239837398374,96.29065040650406 17.428861788617887,96.1890243902439 17.784552845528456,96.13821138211382" fill="none" stroke="black" stroke-width="0.6"></polyline><polyline points="17.784552845528456,96.13821138211382 18.089430894308943,96.03658536585365 18.75,95.8841463414634 19.004065040650406,95.83333333333333 19.258130081300813,95.78252032520325 19.766260162601625,95.68089430894308 20.274390243902438,95.630081300813 20.68089430894309,95.57926829268293 21.08739837398374,95.47764227642276 21.54471544715447,95.3760162601626 21.747967479674795,95.32520325203252 21.95121951219512,95.27439024390243" fill="none" stroke="black" stroke-width="0.6"></polyline></svg>