<svg height="100" width="100" preserveAspectRatio="xMidYMid meet"><polyline points="50.203252032520325,49.542682926829265 50.203252032520325,49.542682926829265 50.203252032520325,49.542682926829265 50.203252032520325,49.542682926829265 50.203252032520325,49.542682926829265 50.203252032520325,49.542682926829265 50.203252032520325,49.542682926829265 50.203252032520325,49.542682926829265 50.203252032520325,49.542682926829265 50.203252032520325,49.542682926829265 50.203252032520325,49.542682926829265 50.203252032520325,49.542682926829265 50.203252032520325,49.49186991869919 50.203252032520325,49.49186991869919 50.2540650406504,49.49186991869919 50.30487804878049,49.49186991869919 50.40650406504065,49.4410569105691 50.45731707317073,49.4410569105691 50.55894308943089,49.390243902439025 50.71138211382114,49.33943089430894 50.8130081300813,49.28861788617886 50.96544715447154,49.23780487804878 51.11788617886179,49.1869918699187 51.21951219512195,49.08536585365854 51.37195121951219,49.03455284552845 51.47357723577235,48.983739837398375 51.575203252032516,48.93292682926829 51.67682926829268,48.83130081300813 51.77845528455284,48.78048780487805 51.880081300813,48.729674796747965 51.93089430894309,48.67886178861789 51.981707317073166,48.6280487804878 52.03252032520325,48.577235772357724 52.13414634146341,48.52642276422764 52.1849593495935,48.42479674796748 52.28658536585366,48.323170731707314 52.38821138211382,48.170731707317074 52.4390243902439,48.06910569105691 52.540650406504064,47.96747967479675 52.59146341463415,47.8150406504065 52.69308943089431,47.71341463414634 52.74390243902439,47.61178861788618 52.79471544715447,47.510162601626014 52.84552845528455,47.25609756097561 52.84552845528455,47.20528455284553 52.84552845528455,47.0020325203252 52.896341463414636,46.90040650406504 52.896341463414636,46.84959349593496 52.896341463414636,46.84959349593496 52.896341463414636,46.7479674796748 52.896341463414636,46.646341463414636" fill="none" stroke="black" stroke-width="0.6"></polyline><polyline points="52.896341463414636,46.646341463414636 52.896341463414636,46.54471544715447 52.896341463414636,46.49390243902439 52.896341463414636,46.44308943089431 52.896341463414636,46.392276422764226 52.896341463414636,46.34146341463415 52.84552845528455,46.239837398373986 52.84552845528455,46.1890243902439 52.84552845528455,46.13821138211382 52.79471544715447,46.03658536585366 52.79471544715447,45.9349593495935 52.74390243902439,45.833333333333336 52.74390243902439,45.78252032520325 52.69308943089431,45.73170731707317 52.69308943089431,45.68089430894309 52.642276422764226,45.579268292682926 52.59146341463415,45.47764227642276 52.540650406504064,45.3760162601626 52.4390243902439,45.22357723577235 52.38821138211382,45.12195121951219 52.28658536585366,44.96951219512195 52.1849593495935,44.86788617886179 52.03252032520325,44.61382113821138 51.981707317073166,44.5630081300813 51.829268292682926,44.41056910569105 51.67682926829268,44.25813008130081 51.6260162601626,44.15650406504065 51.47357723577235,44.0040650406504 51.27032520325203,43.80081300813008 51.11788617886179,43.699186991869915 51.016260162601625,43.64837398373984 50.96544715447154,43.546747967479675 50.71138211382114,43.34349593495935 50.66056910569105,43.292682926829265 50.45731707317073,43.1910569105691 50.40650406504065,43.1910569105691 50.30487804878049,43.140243902439025 50.15243902439024,43.08943089430894 50.05081300813008,43.03861788617886 49.949186991869915,43.03861788617886 49.69512195121951,42.98780487804878 49.49186991869919,42.98780487804878 49.390243902439025,42.98780487804878 49.23780487804878,42.98780487804878 49.136178861788615,42.98780487804878 49.03455284552845,42.98780487804878 48.83130081300813,43.03861788617886 48.67886178861789,43.08943089430894 48.47560975609756,43.1910569105691 48.22154471544715,43.292682926829265 48.170731707317074,43.292682926829265" fill="none" stroke="black" stroke-width="0.6"></polyline><polyline points="48.170731707317074,43.292682926829265 48.06910569105691,43.34349593495935 48.01829268292683,43.39430894308943 47.86585365853659,43.44512195121951 47.8150406504065,43.49593495934959 47.71341463414634,43.49593495934959 47.61178861788618,43.59756097560975 47.459349593495936,43.64837398373984 47.357723577235774,43.699186991869915 47.15447154471545,43.80081300813008 47.103658536585364,43.85162601626016 47.052845528455286,43.90243902439024 47.0020325203252,43.90243902439024 46.90040650406504,44.0040650406504 46.84959349593496,44.0040650406504 46.798780487804876,44.05487804878049 46.697154471544714,44.15650406504065 46.59552845528455,44.25813008130081 46.44308943089431,44.41056910569105 46.392276422764226,44.46138211382114 46.290650406504064,44.512195121951216 46.1890243902439,44.66463414634146 45.985772357723576,44.86788617886179 45.833333333333336,44.96951219512195 45.78252032520325,45.07113821138211 45.73170731707317,45.12195121951219 45.68089430894309,45.172764227642276 45.63008130081301,45.22357723577235 45.579268292682926,45.27439024390244 45.42682926829268,45.42682926829268 45.325203252032516,45.52845528455285 45.27439024390244,45.579268292682926 45.172764227642276,45.73170731707317 45.07113821138211,45.78252032520325 45.07113821138211,45.833333333333336 44.96951219512195,45.9349593495935 44.86788617886179,46.03658536585366 44.8170731707317,46.08739837398374 44.766260162601625,46.1890243902439 44.66463414634146,46.290650406504064 44.61382113821138,46.34146341463415 44.61382113821138,46.392276422764226 44.5630081300813,46.44308943089431 44.512195121951216,46.49390243902439 44.46138211382114,46.646341463414636 44.41056910569105,46.697154471544714 44.359756097560975,46.798780487804876 44.30894308943089,46.951219512195124 44.25813008130081,47.052845528455286 44.25813008130081,47.15447154471545 44.20731707317073,47.20528455284553" fill="none" stroke="black" stroke-width="0.6"></polyline><polyline points="44.20731707317073,47.20528455284553 44.20731707317073,47.25609756097561 44.20731707317073,47.357723577235774 44.15650406504065,47.510162601626014 44.105691056910565,47.61178861788618 44.105691056910565,47.71341463414634 44.105691056910565,47.764227642276424 44.105691056910565,47.86585365853659 44.105691056910565,47.916666666666664 44.105691056910565,48.01829268292683 44.105691056910565,48.170731707317074 44.05487804878049,48.22154471544715 44.05487804878049,48.27235772357724 44.05487804878049,48.323170731707314 44.05487804878049,48.42479674796748 44.05487804878049,48.47560975609756 44.05487804878049,48.52642276422764 44.05487804878049,48.67886178861789 44.05487804878049,48.78048780487805 44.05487804878049,48.88211382113821 44.05487804878049,49.03455284552845 44.05487804878049,49.136178861788615 44.105691056910565,49.28861788617886 44.105691056910565,49.390243902439025 44.105691056910565,49.4410569105691 44.15650406504065,49.49186991869919 44.15650406504065,49.542682926829265 44.20731707317073,49.64430894308943 44.20731707317073,49.69512195121951 44.20731707317073,49.74593495934959 44.25813008130081,49.84756097560975 44.30894308943089,50 44.30894308943089,50.10162601626016 44.359756097560975,50.203252032520325 44.41056910569105,50.355691056910565 44.41056910569105,50.45731707317073 44.512195121951216,50.609756097560975 44.512195121951216,50.71138211382114 44.5630081300813,50.762195121951216 44.5630081300813,50.8130081300813 44.61382113821138,50.91463414634146 44.61382113821138,50.96544715447154 44.66463414634146,51.0670731707317 44.71544715447154,51.168699186991866 44.766260162601625,51.27032520325203 44.86788617886179,51.422764227642276 44.918699186991866,51.52439024390244 44.96951219512195,51.6260162601626 45.07113821138211,51.72764227642276 45.07113821138211,51.77845528455284 45.12195121951219,51.880081300813" fill="none" stroke="black" stroke-width="0.6"></polyline><polyline points="45.12195121951219,51.880081300813 45.22357723577235,51.981707317073166 45.325203252032516,52.083333333333336 45.42682926829268,52.1849593495935 45.52845528455285,52.28658536585366 45.579268292682926,52.33739837398374 45.68089430894309,52.38821138211382 45.78252032520325,52.4390243902439 45.88414634146341,52.540650406504064 45.985772357723576,52.59146341463415 46.08739837398374,52.642276422764226 46.13821138211382,52.69308943089431 46.1890243902439,52.74390243902439 46.290650406504064,52.79471544715447 46.34146341463415,52.84552845528455 46.392276422764226,52.84552845528455 46.44308943089431,52.896341463414636 46.44308943089431,52.896341463414636 46.49390243902439,52.896341463414636 46.54471544715447,52.947154471544714 46.59552845528455,52.947154471544714 46.646341463414636,52.9979674796748 46.7479674796748,53.048780487804876 46.84959349593496,53.048780487804876 46.951219512195124,53.09959349593496 47.0020325203252,53.09959349593496 47.103658536585364,53.15040650406504 47.20528455284553,53.15040650406504 47.30691056910569,53.201219512195124 47.459349593495936,53.2520325203252 47.510162601626014,53.2520325203252 47.61178861788618,53.2520325203252 47.764227642276424,53.302845528455286 47.86585365853659,53.302845528455286 47.96747967479675,53.353658536585364 48.06910569105691,53.353658536585364 48.170731707317074,53.40447154471545 48.323170731707314,53.40447154471545 48.42479674796748,53.45528455284553 48.577235772357724,53.50609756097561 48.67886178861789,53.50609756097561 48.83130081300813,53.55691056910569 48.88211382113821,53.55691056910569 49.03455284552845,53.607723577235774 49.136178861788615,53.65853658536585 49.1869918699187,53.65853658536585 49.23780487804878,53.65853658536585 49.33943089430894,53.709349593495936 49.390243902439025,53.709349593495936 49.4410569105691,53.709349593495936 49.59349593495935,53.760162601626014" fill="none" stroke="black" stroke-width="0.6"></polyline><polyline points="49.59349593495935,53.760162601626014 49.74593495934959,53.760162601626014 49.89837398373984,53.8109756097561 49.949186991869915,53.8109756097561 50,53.8109756097561 50.15243902439024,53.8109756097561 50.2540650406504,53.86178861788618 50.30487804878049,53.86178861788618 50.45731707317073,53.86178861788618 50.50813008130081,53.86178861788618 50.55894308943089,53.86178861788618 50.71138211382114,53.91260162601626 50.762195121951216,53.91260162601626 50.86382113821138,53.91260162601626 51.016260162601625,53.91260162601626 51.11788617886179,53.91260162601626 51.21951219512195,53.91260162601626 51.37195121951219,53.91260162601626 51.47357723577235,53.91260162601626 51.575203252032516,53.91260162601626 51.67682926829268,53.91260162601626 51.829268292682926,53.91260162601626 51.93089430894309,53.86178861788618 52.083333333333336,53.86178861788618 52.1849593495935,53.8109756097561 52.28658536585366,53.760162601626014 52.4390243902439,53.709349593495936 52.540650406504064,53.65853658536585 52.69308943089431,53.55691056910569 52.84552845528455,53.50609756097561 52.9979674796748,53.40447154471545 53.09959349593496,53.353658536585364 53.302845528455286,53.2520325203252 53.40447154471545,53.15040650406504 53.55691056910569,53.09959349593496 53.709349593495936,52.9979674796748 53.86178861788618,52.896341463414636 53.96341463414634,52.79471544715447 54.11585365853659,52.69308943089431 54.21747967479675,52.642276422764226 54.36991869918699,52.540650406504064 54.47154471544715,52.489837398373986 54.52235772357724,52.4390243902439 54.6239837398374,52.33739837398374 54.72560975609756,52.28658536585366 54.827235772357724,52.1849593495935 54.8780487804878,52.13414634146341 54.979674796747965,52.03252032520325 55.08130081300813,51.981707317073166 55.18292682926829,51.880081300813 55.28455284552845,51.829268292682926" fill="none" stroke="black" stroke-width="0.6"></polyline><polyline points="55.28455284552845,51.829268292682926 55.386178861788615,51.72764227642276 55.48780487804878,51.6260162601626 55.58943089430894,51.575203252032516 55.6910569105691,51.47357723577235 55.792682926829265,51.37195121951219 55.89430894308943,51.27032520325203 55.94512195121951,51.21951219512195 56.046747967479675,51.11788617886179 56.09756097560975,51.0670731707317 56.199186991869915,50.96544715447154 56.25,50.86382113821138 56.30081300813008,50.8130081300813 56.35162601626016,50.71138211382114 56.453252032520325,50.609756097560975 56.5040650406504,50.50813008130081 56.55487804878049,50.40650406504065 56.65650406504065,50.30487804878049 56.70731707317073,50.203252032520325 56.80894308943089,50.05081300813008 56.91056910569105,49.89837398373984 57.012195121951216,49.74593495934959 57.11382113821138,49.59349593495935 57.21544715447154,49.390243902439025 57.3170731707317,49.1869918699187 57.418699186991866,49.03455284552845 57.57113821138211,48.78048780487805 57.672764227642276,48.577235772357724 57.77439024390244,48.323170731707314 57.8760162601626,48.06910569105691 57.92682926829268,47.86585365853659 57.97764227642276,47.66260162601626 58.02845528455284,47.459349593495936 58.079268292682926,47.25609756097561 58.130081300813,47.103658536585364 58.130081300813,46.951219512195124 58.130081300813,46.84959349593496 58.18089430894309,46.7479674796748 58.18089430894309,46.646341463414636 58.18089430894309,46.59552845528455 58.18089430894309,46.49390243902439 58.18089430894309,46.392276422764226 58.18089430894309,46.34146341463415 58.18089430894309,46.290650406504064 58.18089430894309,46.1890243902439 58.18089430894309,46.13821138211382 58.18089430894309,46.03658536585366 58.18089430894309,45.985772357723576 58.18089430894309,45.88414634146341 58.18089430894309,45.78252032520325 58.18089430894309,45.68089430894309" fill="none" stroke="black" stroke-width="0.6"></polyline><polyline points="58.18089430894309,45.68089430894309 58.18089430894309,45.63008130081301 58.130081300813,45.47764227642276 58.130081300813,45.3760162601626 58.130081300813,45.27439024390244 58.079268292682926,45.172764227642276 58.02845528455284,45.02032520325203 58.02845528455284,44.918699186991866 57.97764227642276,44.8170731707317 57.97764227642276,44.71544715447154 57.92682926829268,44.5630081300813 57.8760162601626,44.46138211382114 57.8760162601626,44.41056910569105 57.825203252032516,44.359756097560975 57.825203252032516,44.30894308943089 57.77439024390244,44.20731707317073 57.77439024390244,44.15650406504065 57.77439024390244,44.05487804878049 57.72357723577235,43.953252032520325 57.672764227642276,43.90243902439024 57.672764227642276,43.80081300813008 57.57113821138211,43.64837398373984 57.52032520325203,43.546747967479675 57.46951219512195,43.44512195121951 57.46951219512195,43.34349593495935 57.418699186991866,43.24186991869919 57.3170731707317,43.08943089430894 57.266260162601625,42.98780487804878 57.21544715447154,42.886178861788615 57.16463414634146,42.78455284552845 57.11382113821138,42.68292682926829 57.0630081300813,42.58130081300813 56.96138211382114,42.42886178861789 56.91056910569105,42.327235772357724 56.80894308943089,42.17479674796748 56.70731707317073,42.073170731707314 56.65650406504065,41.97154471544715 56.605691056910565,41.920731707317074 56.55487804878049,41.76829268292683 56.5040650406504,41.71747967479675 56.453252032520325,41.666666666666664 56.40243902439024,41.61585365853659 56.30081300813008,41.46341463414634 56.14837398373984,41.3109756097561 56.046747967479675,41.15853658536585 55.94512195121951,41.05691056910569 55.84349593495935,40.95528455284553 55.74186991869919,40.802845528455286 55.640243902439025,40.701219512195124 55.58943089430894,40.65040650406504 55.53861788617886,40.59959349593496" fill="none" stroke="black" stroke-width="0.6"></polyline><polyline points="55.53861788617886,40.59959349593496 55.386178861788615,40.4979674796748 55.233739837398375,40.34552845528455 55.08130081300813,40.24390243902439 54.92886178861789,40.09146341463415 54.72560975609756,39.989837398373986 54.573170731707314,39.88821138211382 54.52235772357724,39.88821138211382 54.36991869918699,39.78658536585366 54.21747967479675,39.6849593495935 54.166666666666664,39.6849593495935 54.0650406504065,39.583333333333336 53.91260162601626,39.53252032520325 53.760162601626014,39.43089430894309 53.709349593495936,39.38008130081301 53.607723577235774,39.38008130081301 53.50609756097561,39.329268292682926 53.40447154471545,39.27845528455285 53.201219512195124,39.176829268292686 53.048780487804876,39.1260162601626 52.896341463414636,39.07520325203252 52.84552845528455,39.02439024390244 52.642276422764226,39.02439024390244 52.540650406504064,38.97357723577235 52.4390243902439,38.97357723577235 52.28658536585366,38.922764227642276 52.03252032520325,38.922764227642276 51.829268292682926,38.922764227642276 51.575203252032516,38.922764227642276 51.32113821138211,38.922764227642276 50.96544715447154,38.87195121951219 50.71138211382114,38.87195121951219 50.55894308943089,38.87195121951219 50.45731707317073,38.87195121951219 50.2540650406504,38.87195121951219 50.15243902439024,38.87195121951219 49.89837398373984,38.87195121951219 49.64430894308943,38.87195121951219 49.49186991869919,38.87195121951219 49.390243902439025,38.87195121951219 49.08536585365854,38.87195121951219 48.729674796747965,38.87195121951219 48.577235772357724,38.87195121951219 48.323170731707314,38.87195121951219 48.170731707317074,38.922764227642276 48.06910569105691,38.922764227642276 47.8150406504065,38.97357723577235 47.5609756097561,38.97357723577235 47.40853658536585,39.02439024390244 47.15447154471545,39.02439024390244 47.052845528455286,39.07520325203252" fill="none" stroke="black" stroke-width="0.6"></polyline><polyline points="47.052845528455286,39.07520325203252 46.951219512195124,39.07520325203252 46.84959349593496,39.07520325203252 46.7479674796748,39.07520325203252 46.59552845528455,39.1260162601626 46.49390243902439,39.1260162601626 46.290650406504064,39.1260162601626 46.08739837398374,39.176829268292686 45.833333333333336,39.27845528455285 45.63008130081301,39.329268292682926 45.52845528455285,39.329268292682926 45.325203252032516,39.43089430894309 45.12195121951219,39.53252032520325 44.8170731707317,39.63414634146341 44.5630081300813,39.6849593495935 44.30894308943089,39.78658536585366 43.90243902439024,39.9390243902439 43.699186991869915,40.040650406504064 43.44512195121951,40.142276422764226 43.24186991869919,40.24390243902439 42.98780487804878,40.34552845528455 42.83536585365854,40.396341463414636 42.68292682926829,40.4979674796748 42.479674796747965,40.59959349593496 42.327235772357724,40.701219512195124 42.27642276422764,40.7520325203252 42.17479674796748,40.802845528455286 42.1239837398374,40.853658536585364 41.97154471544715,40.95528455284553 41.81910569105691,41.05691056910569 41.71747967479675,41.15853658536585 41.5650406504065,41.3109756097561 41.41260162601626,41.46341463414634 41.36178861788618,41.514227642276424 41.3109756097561,41.5650406504065 41.209349593495936,41.71747967479675 41.00609756097561,41.86991869918699 40.90447154471545,42.02235772357724 40.7520325203252,42.17479674796748 40.65040650406504,42.27642276422764 40.4979674796748,42.479674796747965 40.447154471544714,42.53048780487805 40.396341463414636,42.58130081300813 40.34552845528455,42.63211382113821 40.29471544715447,42.68292682926829 40.142276422764226,42.83536585365854 40.09146341463415,42.9369918699187 39.989837398373986,43.03861788617886 39.9390243902439,43.140243902439025 39.83739837398374,43.292682926829265 39.78658536585366,43.34349593495935" fill="none" stroke="black" stroke-width="0.6"></polyline><polyline points="39.78658536585366,43.34349593495935 39.735772357723576,43.44512195121951 39.6849593495935,43.49593495934959 39.63414634146341,43.59756097560975 39.583333333333336,43.64837398373984 39.583333333333336,43.699186991869915 39.53252032520325,43.75 39.48170731707317,43.85162601626016 39.48170731707317,43.953252032520325 39.43089430894309,44.0040650406504 39.43089430894309,44.05487804878049 39.38008130081301,44.05487804878049 39.38008130081301,44.15650406504065 39.329268292682926,44.25813008130081 39.329268292682926,44.30894308943089 39.27845528455285,44.359756097560975 39.27845528455285,44.41056910569105 39.22764227642276,44.5630081300813 39.176829268292686,44.61382113821138 39.176829268292686,44.66463414634146 39.1260162601626,44.71544715447154 39.1260162601626,44.766260162601625 39.07520325203252,44.86788617886179 39.02439024390244,44.96951219512195 38.97357723577235,45.12195121951219 38.922764227642276,45.27439024390244 38.87195121951219,45.3760162601626 38.82113821138211,45.52845528455285 38.77032520325203,45.68089430894309 38.71951219512195,45.88414634146341 38.71951219512195,45.9349593495935 38.668699186991866,46.03658536585366 38.668699186991866,46.13821138211382 38.61788617886179,46.1890243902439 38.61788617886179,46.290650406504064 38.5670731707317,46.44308943089431 38.5670731707317,46.59552845528455 38.516260162601625,46.84959349593496 38.516260162601625,47.0020325203252 38.516260162601625,47.052845528455286 38.46544715447154,47.20528455284553 38.46544715447154,47.30691056910569 38.46544715447154,47.459349593495936 38.46544715447154,47.5609756097561 38.46544715447154,47.71341463414634 38.41463414634146,47.86585365853659 38.41463414634146,48.06910569105691 38.36382113821138,48.3739837398374 38.3130081300813,48.52642276422764 38.3130081300813,48.6280487804878 38.262195121951216,48.88211382113821" fill="none" stroke="black" stroke-width="0.6"></polyline><polyline points="38.262195121951216,48.88211382113821 38.262195121951216,49.08536585365854 38.21138211382114,49.28861788617886 38.21138211382114,49.49186991869919 38.16056910569105,49.796747967479675 38.16056910569105,50 38.16056910569105,50.10162601626016 38.16056910569105,50.203252032520325 38.16056910569105,50.30487804878049 38.16056910569105,50.40650406504065 38.16056910569105,50.50813008130081 38.16056910569105,50.71138211382114 38.16056910569105,50.86382113821138 38.21138211382114,51.016260162601625 38.21138211382114,51.32113821138211 38.262195121951216,51.37195121951219 38.262195121951216,51.47357723577235 38.262195121951216,51.52439024390244 38.3130081300813,51.6260162601626 38.36382113821138,51.829268292682926 38.36382113821138,52.03252032520325 38.41463414634146,52.1849593495935 38.46544715447154,52.33739837398374 38.516260162601625,52.59146341463415 38.516260162601625,52.642276422764226 38.5670731707317,52.74390243902439 38.5670731707317,52.84552845528455 38.668699186991866,53.048780487804876 38.668699186991866,53.15040650406504 38.71951219512195,53.302845528455286 38.71951219512195,53.353658536585364 38.77032520325203,53.45528455284553 38.82113821138211,53.50609756097561 38.82113821138211,53.607723577235774 38.87195121951219,53.760162601626014 38.922764227642276,53.91260162601626 38.97357723577235,54.014227642276424 39.02439024390244,54.166666666666664 39.07520325203252,54.36991869918699 39.1260162601626,54.47154471544715 39.176829268292686,54.573170731707314 39.22764227642276,54.6239837398374 39.22764227642276,54.67479674796748 39.27845528455285,54.77642276422764 39.329268292682926,54.8780487804878 39.43089430894309,55.13211382113821 39.48170731707317,55.233739837398375 39.53252032520325,55.386178861788615 39.63414634146341,55.58943089430894 39.735772357723576,55.6910569105691 39.78658536585366,55.792682926829265" fill="none" stroke="black" stroke-width="0.6"></polyline><polyline points="39.78658536585366,55.792682926829265 39.78658536585366,55.84349593495935 39.83739837398374,55.94512195121951 39.9390243902439,56.09756097560975 40.040650406504064,56.25 40.142276422764226,56.35162601626016 40.34552845528455,56.605691056910565 40.447154471544714,56.80894308943089 40.548780487804876,56.96138211382114 40.65040650406504,57.0630081300813 40.701219512195124,57.16463414634146 40.802845528455286,57.21544715447154 40.853658536585364,57.3170731707317 40.90447154471545,57.36788617886179 41.107723577235774,57.52032520325203 41.260162601626014,57.72357723577235 41.46341463414634,57.8760162601626 41.61585365853659,58.02845528455284 41.81910569105691,58.130081300813 41.920731707317074,58.231707317073166 42.1239837398374,58.33333333333333 42.17479674796748,58.38414634146341 42.327235772357724,58.485772357723576 42.3780487804878,58.536585365853654 42.58130081300813,58.6890243902439 42.78455284552845,58.790650406504064 42.98780487804878,58.94308943089431 43.24186991869919,59.09552845528455 43.44512195121951,59.197154471544714 43.546747967479675,59.2479674796748 43.699186991869915,59.34959349593496 43.90243902439024,59.40040650406504 44.05487804878049,59.5020325203252 44.25813008130081,59.552845528455286 44.46138211382114,59.65447154471545 44.66463414634146,59.70528455284553 44.918699186991866,59.75609756097561 45.02032520325203,59.80691056910569 45.12195121951219,59.857723577235774 45.172764227642276,59.857723577235774 45.3760162601626,59.90853658536585 45.42682926829268,59.959349593495936 45.63008130081301,60.010162601626014 45.88414634146341,60.0609756097561 46.08739837398374,60.11178861788618 46.1890243902439,60.11178861788618 46.290650406504064,60.11178861788618 46.44308943089431,60.16260162601626 46.646341463414636,60.16260162601626 46.84959349593496,60.21341463414634 47.0020325203252,60.21341463414634" fill="none" stroke="black" stroke-width="0.6"></polyline><polyline points="47.0020325203252,60.21341463414634 47.20528455284553,60.21341463414634 47.510162601626014,60.264227642276424 47.66260162601626,60.264227642276424 47.86585365853659,60.264227642276424 48.06910569105691,60.3150406504065 48.11991869918699,60.3150406504065 48.22154471544715,60.3150406504065 48.323170731707314,60.3150406504065 48.52642276422764,60.3150406504065 48.729674796747965,60.3150406504065 48.83130081300813,60.3150406504065 49.03455284552845,60.3150406504065 49.23780487804878,60.3150406504065 49.59349593495935,60.3150406504065 49.796747967479675,60.3150406504065 50,60.3150406504065 50.203252032520325,60.3150406504065 50.355691056910565,60.3150406504065 50.55894308943089,60.3150406504065 50.762195121951216,60.3150406504065 50.86382113821138,60.3150406504065 50.96544715447154,60.3150406504065 51.11788617886179,60.3150406504065 51.21951219512195,60.3150406504065 51.32113821138211,60.3150406504065 51.47357723577235,60.3150406504065 51.52439024390244,60.3150406504065 51.6260162601626,60.3150406504065 51.67682926829268,60.3150406504065 51.829268292682926,60.3150406504065 51.93089430894309,60.264227642276424 51.981707317073166,60.264227642276424 52.083333333333336,60.264227642276424 52.13414634146341,60.264227642276424 52.235772357723576,60.264227642276424 52.38821138211382,60.21341463414634 52.540650406504064,60.21341463414634 52.69308943089431,60.16260162601626 52.84552845528455,60.11178861788618 52.9979674796748,60.11178861788618 53.09959349593496,60.0609756097561 53.201219512195124,60.0609756097561 53.302845528455286,60.0609756097561 53.45528455284553,60.010162601626014 53.50609756097561,59.959349593495936 53.607723577235774,59.959349593495936 53.65853658536585,59.959349593495936 53.8109756097561,59.90853658536585 53.86178861788618,59.857723577235774 53.96341463414634,59.857723577235774" fill="none" stroke="black" stroke-width="0.6"></polyline><polyline points="53.96341463414634,59.857723577235774 54.014227642276424,59.80691056910569 54.166666666666664,59.75609756097561 54.26829268292683,59.75609756097561 54.420731707317074,59.65447154471545 54.573170731707314,59.603658536585364 54.6239837398374,59.552845528455286 54.92886178861789,59.40040650406504 55.08130081300813,59.298780487804876 55.18292682926829,59.298780487804876 55.28455284552845,59.197154471544714 55.48780487804878,59.146341463414636 55.53861788617886,59.09552845528455 55.58943089430894,59.04471544715447 55.74186991869919,58.94308943089431 55.89430894308943,58.84146341463415 55.99593495934959,58.739837398373986 56.046747967479675,58.739837398373986 56.09756097560975,58.6890243902439 56.14837398373984,58.63821138211382 56.25,58.536585365853654 56.30081300813008,58.485772357723576 56.35162601626016,58.43495934959349 56.453252032520325,58.38414634146341 56.55487804878049,58.28252032520325 56.55487804878049,58.231707317073166 56.605691056910565,58.231707317073166 56.70731707317073,58.130081300813 56.80894308943089,58.02845528455284 56.91056910569105,57.92682926829268 57.012195121951216,57.825203252032516 57.16463414634146,57.77439024390244 57.266260162601625,57.672764227642276 57.3170731707317,57.62195121951219 57.36788617886179,57.57113821138211 57.46951219512195,57.52032520325203 57.52032520325203,57.46951219512195 57.62195121951219,57.36788617886179 57.72357723577235,57.3170731707317 57.825203252032516,57.21544715447154 57.92682926829268,57.11382113821138 58.02845528455284,57.012195121951216 58.130081300813,56.96138211382114 58.231707317073166,56.859756097560975 58.33333333333333,56.75813008130081 58.43495934959349,56.70731707317073 58.536585365853654,56.605691056910565 58.63821138211382,56.5040650406504 58.6890243902439,56.40243902439024 58.790650406504064,56.30081300813008 58.892276422764226,56.25" fill="none" stroke="black" stroke-width="0.6"></polyline><polyline points="58.892276422764226,56.25 58.99390243902439,56.14837398373984 59.04471544715447,56.046747967479675 59.146341463414636,55.99593495934959 59.2479674796748,55.89430894308943 59.34959349593496,55.792682926829265 59.451219512195124,55.6910569105691 59.5020325203252,55.58943089430894 59.603658536585364,55.4369918699187 59.75609756097561,55.33536585365854 59.857723577235774,55.18292682926829 59.959349593495936,55.08130081300813 60.11178861788618,54.92886178861789 60.21341463414634,54.77642276422764 60.36585365853659,54.6239837398374 60.46747967479675,54.47154471544715 60.61991869918699,54.26829268292683 60.77235772357724,54.0650406504065 60.8739837398374,53.91260162601626 61.02642276422764,53.709349593495936 61.229674796747965,53.45528455284553 61.38211382113821,53.2520325203252 61.58536585365854,53.048780487804876 61.73780487804878,52.79471544715447 61.890243902439025,52.59146341463415 62.042682926829265,52.33739837398374 62.19512195121951,52.083333333333336 62.296747967479675,51.880081300813 62.39837398373984,51.6260162601626 62.5,51.37195121951219 62.55081300813008,51.168699186991866 62.60162601626016,50.96544715447154 62.65243902439024,50.762195121951216 62.65243902439024,50.55894308943089 62.703252032520325,50.355691056910565 62.7540650406504,50.10162601626016 62.80487804878049,49.89837398373984 62.80487804878049,49.69512195121951 62.855691056910565,49.49186991869919 62.90650406504065,49.28861788617886 62.90650406504065,49.08536585365854 62.95731707317073,48.83130081300813 63.00813008130081,48.6280487804878 63.00813008130081,48.42479674796748 63.00813008130081,48.323170731707314 63.00813008130081,48.170731707317074 63.00813008130081,47.96747967479675 63.05894308943089,47.71341463414634 63.05894308943089,47.459349593495936 63.05894308943089,47.25609756097561 63.05894308943089,47.0020325203252" fill="none" stroke="black" stroke-width="0.6"></polyline><polyline points="63.05894308943089,47.0020325203252 63.00813008130081,46.7479674796748 63.00813008130081,46.49390243902439 62.95731707317073,46.239837398373986 62.90650406504065,46.03658536585366 62.90650406504065,45.78252032520325 62.855691056910565,45.579268292682926 62.80487804878049,45.325203252032516 62.7540650406504,45.12195121951219 62.703252032520325,44.86788617886179 62.60162601626016,44.66463414634146 62.55081300813008,44.46138211382114 62.5,44.30894308943089 62.449186991869915,44.105691056910565 62.39837398373984,43.90243902439024 62.34756097560975,43.75 62.296747967479675,43.546747967479675 62.19512195121951,43.39430894308943 62.14430894308943,43.1910569105691 62.09349593495935,43.03861788617886 61.99186991869919,42.886178861788615 61.9410569105691,42.733739837398375 61.890243902439025,42.53048780487805 61.78861788617886,42.42886178861789 61.73780487804878,42.27642276422764 61.6869918699187,42.1239837398374 61.636178861788615,41.97154471544715 61.58536585365854,41.81910569105691 61.483739837398375,41.666666666666664 61.43292682926829,41.514227642276424 61.38211382113821,41.36178861788618 61.28048780487805,41.209349593495936 61.229674796747965,41.107723577235774 61.17886178861789,40.95528455284553 61.1280487804878,40.853658536585364 61.077235772357724,40.701219512195124 60.97560975609756,40.548780487804876 60.8739837398374,40.34552845528455 60.8739837398374,40.29471544715447 60.823170731707314,40.19308943089431 60.72154471544715,40.040650406504064 60.61991869918699,39.83739837398374 60.51829268292683,39.63414634146341 60.416666666666664,39.48170731707317 60.36585365853659,39.38008130081301 60.3150406504065,39.27845528455285 60.264227642276424,39.176829268292686 60.21341463414634,39.07520325203252 60.16260162601626,38.97357723577235 60.11178861788618,38.87195121951219 59.959349593495936,38.61788617886179" fill="none" stroke="black" stroke-width="0.6"></polyline><polyline points="59.959349593495936,38.61788617886179 59.857723577235774,38.46544715447154 59.65447154471545,38.16056910569105 59.5020325203252,37.95731707317073 59.34959349593496,37.7540650406504 59.2479674796748,37.55081300813008 59.146341463414636,37.39837398373984 59.09552845528455,37.34756097560975 58.99390243902439,37.24593495934959 58.94308943089431,37.14430894308943 58.892276422764226,37.042682926829265 58.790650406504064,36.9410569105691 58.739837398373986,36.83943089430894 58.58739837398374,36.636178861788615 58.536585365853654,36.53455284552845 58.43495934959349,36.43292682926829 58.28252032520325,36.229674796747965 58.231707317073166,36.1280487804878 58.079268292682926,35.97560975609756 57.825203252032516,35.670731707317074 57.672764227642276,35.51829268292683 57.52032520325203,35.36585365853659 57.36788617886179,35.16260162601626 57.266260162601625,35.11178861788618 57.11382113821138,34.959349593495936 56.96138211382114,34.75609756097561 56.70731707317073,34.552845528455286 56.55487804878049,34.40040650406504 56.453252032520325,34.34959349593496 56.25,34.197154471544714 56.046747967479675,34.04471544715447 55.89430894308943,33.94308943089431 55.640243902439025,33.739837398373986 55.4369918699187,33.63821138211382 55.28455284552845,33.53658536585366 55.13211382113821,33.4349593495935 54.92886178861789,33.333333333333336 54.77642276422764,33.23170731707317 54.6239837398374,33.13008130081301 54.36991869918699,32.97764227642276 54.166666666666664,32.8760162601626 54.014227642276424,32.82520325203252 53.86178861788618,32.77439024390244 53.709349593495936,32.672764227642276 53.607723577235774,32.672764227642276 53.45528455284553,32.6219512195122 53.353658536585364,32.57113821138211 53.15040650406504,32.52032520325203 53.048780487804876,32.46951219512195 52.84552845528455,32.46951219512195 52.69308943089431,32.418699186991866" fill="none" stroke="black" stroke-width="0.6"></polyline><polyline points="52.69308943089431,32.418699186991866 52.489837398373986,32.418699186991866 52.28658536585366,32.418699186991866 51.93089430894309,32.418699186991866 51.72764227642276,32.418699186991866 51.575203252032516,32.418699186991866 51.37195121951219,32.418699186991866 51.0670731707317,32.418699186991866 50.71138211382114,32.46951219512195 50.55894308943089,32.46951219512195 50.40650406504065,32.46951219512195 50.2540650406504,32.46951219512195 50.203252032520325,32.46951219512195 50.15243902439024,32.46951219512195 50.05081300813008,32.46951219512195 49.89837398373984,32.46951219512195 49.74593495934959,32.418699186991866 49.64430894308943,32.418699186991866 49.49186991869919,32.418699186991866 49.23780487804878,32.418699186991866 49.1869918699187,32.418699186991866 49.08536585365854,32.418699186991866 49.03455284552845,32.418699186991866 48.93292682926829,32.418699186991866 48.88211382113821,32.418699186991866 48.78048780487805,32.46951219512195 48.577235772357724,32.46951219512195 48.47560975609756,32.52032520325203 48.3739837398374,32.57113821138211 48.22154471544715,32.57113821138211 48.11991869918699,32.6219512195122 47.86585365853659,32.72357723577236 47.66260162601626,32.77439024390244 47.5609756097561,32.77439024390244 47.459349593495936,32.82520325203252 47.20528455284553,32.8760162601626 46.84959349593496,33.02845528455285 46.54471544715447,33.13008130081301 46.239837398373986,33.23170731707317 45.985772357723576,33.333333333333336 45.47764227642276,33.485772357723576 45.3760162601626,33.58739837398374 45.22357723577235,33.58739837398374 45.07113821138211,33.6890243902439 44.918699186991866,33.739837398373986 44.61382113821138,33.84146341463415 44.15650406504065,33.99390243902439 43.90243902439024,34.04471544715447 43.546747967479675,34.197154471544714 43.292682926829265,34.298780487804876 43.1910569105691,34.34959349593496" fill="none" stroke="black" stroke-width="0.6"></polyline><polyline points="43.1910569105691,34.34959349593496 43.08943089430894,34.40040650406504 42.98780487804878,34.40040650406504 42.78455284552845,34.5020325203252 42.63211382113821,34.603658536585364 42.42886178861789,34.70528455284553 42.17479674796748,34.857723577235774 41.97154471544715,34.959349593495936 41.86991869918699,35.010162601626014 41.71747967479675,35.16260162601626 41.61585365853659,35.21341463414634 41.46341463414634,35.264227642276424 41.260162601626014,35.36585365853659 41.00609756097561,35.51829268292683 40.701219512195124,35.72154471544715 40.396341463414636,35.92479674796748 40.24390243902439,36.02642276422764 39.9390243902439,36.229674796747965 39.6849593495935,36.43292682926829 39.53252032520325,36.483739837398375 39.43089430894309,36.58536585365854 39.1260162601626,36.78861788617886 38.82113821138211,37.042682926829265 38.71951219512195,37.14430894308943 38.5670731707317,37.24593495934959 38.41463414634146,37.34756097560975 38.16056910569105,37.55081300813008 37.855691056910565,37.80487804878049 37.65243902439024,37.95731707317073 37.5,38.109756097560975 37.449186991869915,38.16056910569105 37.296747967479675,38.262195121951216 37.19512195121951,38.41463414634146 37.14430894308943,38.516260162601625 37.042682926829265,38.61788617886179 36.99186991869919,38.71951219512195 36.890243902439025,38.82113821138211 36.78861788617886,38.97357723577235 36.73780487804878,39.07520325203252 36.6869918699187,39.1260162601626 36.636178861788615,39.176829268292686 36.58536585365854,39.27845528455285 36.483739837398375,39.38008130081301 36.43292682926829,39.48170731707317 36.33130081300813,39.63414634146341 36.28048780487805,39.735772357723576 36.17886178861789,39.83739837398374 36.1280487804878,39.989837398373986 36.02642276422764,40.142276422764226 35.97560975609756,40.24390243902439 35.92479674796748,40.34552845528455" fill="none" stroke="black" stroke-width="0.6"></polyline><polyline points="35.92479674796748,40.34552845528455 35.8739837398374,40.548780487804876 35.8739837398374,40.59959349593496 35.823170731707314,40.65040650406504 35.77235772357724,40.7520325203252 35.72154471544715,40.853658536585364 35.670731707317074,41.05691056910569 35.61991869918699,41.15853658536585 35.56910569105691,41.3109756097561 35.46747967479675,41.514227642276424 35.416666666666664,41.666666666666664 35.416666666666664,41.71747967479675 35.36585365853659,41.81910569105691 35.36585365853659,41.86991869918699 35.3150406504065,42.02235772357724 35.21341463414634,42.22560975609756 35.21341463414634,42.27642276422764 35.16260162601626,42.3780487804878 35.16260162601626,42.42886178861789 35.11178861788618,42.58130081300813 35.0609756097561,42.68292682926829 35.0609756097561,42.733739837398375 35.010162601626014,42.886178861788615 34.90853658536585,43.03861788617886 34.857723577235774,43.1910569105691 34.857723577235774,43.292682926829265 34.80691056910569,43.44512195121951 34.70528455284553,43.59756097560975 34.70528455284553,43.80081300813008 34.65447154471545,43.953252032520325 34.603658536585364,44.105691056910565 34.552845528455286,44.25813008130081 34.5020325203252,44.41056910569105 34.5020325203252,44.5630081300813 34.451219512195124,44.8170731707317 34.40040650406504,45.02032520325203 34.34959349593496,45.172764227642276 34.298780487804876,45.3760162601626 34.298780487804876,45.47764227642276 34.2479674796748,45.579268292682926 34.197154471544714,45.833333333333336 34.146341463414636,46.1890243902439 34.09552845528455,46.44308943089431 34.04471544715447,46.697154471544714 33.99390243902439,46.90040650406504 33.94308943089431,47.103658536585364 33.94308943089431,47.357723577235774 33.892276422764226,47.66260162601626 33.84146341463415,47.86585365853659 33.84146341463415,47.96747967479675 33.84146341463415,48.06910569105691" fill="none" stroke="black" stroke-width="0.6"></polyline><polyline points="33.84146341463415,48.06910569105691 33.790650406504064,48.27235772357724 33.790650406504064,48.3739837398374 33.790650406504064,48.6280487804878 33.790650406504064,48.78048780487805 33.790650406504064,48.983739837398375 33.790650406504064,49.1869918699187 33.790650406504064,49.390243902439025 33.790650406504064,49.59349593495935 33.790650406504064,49.89837398373984 33.790650406504064,50.05081300813008 33.790650406504064,50.2540650406504 33.790650406504064,50.40650406504065 33.790650406504064,50.609756097560975 33.790650406504064,50.71138211382114 33.790650406504064,50.8130081300813 33.790650406504064,51.016260162601625 33.790650406504064,51.168699186991866 33.790650406504064,51.37195121951219 33.790650406504064,51.575203252032516 33.84146341463415,51.829268292682926 33.84146341463415,52.03252032520325 33.84146341463415,52.13414634146341 33.892276422764226,52.33739837398374 33.892276422764226,52.489837398373986 33.94308943089431,52.69308943089431 33.94308943089431,52.79471544715447 33.99390243902439,52.947154471544714 34.04471544715447,53.2520325203252 34.09552845528455,53.40447154471545 34.146341463414636,53.607723577235774 34.197154471544714,53.8109756097561 34.2479674796748,54.014227642276424 34.2479674796748,54.166666666666664 34.298780487804876,54.420731707317074 34.40040650406504,54.72560975609756 34.451219512195124,54.979674796747965 34.451219512195124,55.13211382113821 34.5020325203252,55.233739837398375 34.552845528455286,55.4369918699187 34.552845528455286,55.58943089430894 34.603658536585364,55.792682926829265 34.65447154471545,55.89430894308943 34.75609756097561,56.199186991869915 34.80691056910569,56.40243902439024 34.857723577235774,56.605691056910565 34.959349593495936,56.80894308943089 35.010162601626014,57.012195121951216 35.0609756097561,57.266260162601625 35.16260162601626,57.46951219512195 35.21341463414634,57.672764227642276" fill="none" stroke="black" stroke-width="0.6"></polyline><polyline points="35.21341463414634,57.672764227642276 35.3150406504065,57.8760162601626 35.36585365853659,58.079268292682926 35.416666666666664,58.18089430894309 35.46747967479675,58.28252032520325 35.46747967479675,58.38414634146341 35.56910569105691,58.58739837398374 35.61991869918699,58.6890243902439 35.61991869918699,58.739837398373986 35.72154471544715,58.94308943089431 35.77235772357724,59.04471544715447 35.8739837398374,59.2479674796748 35.97560975609756,59.451219512195124 36.02642276422764,59.603658536585364 36.1280487804878,59.80691056910569 36.229674796747965,59.959349593495936 36.33130081300813,60.11178861788618 36.483739837398375,60.3150406504065 36.58536585365854,60.46747967479675 36.6869918699187,60.61991869918699 36.83943089430894,60.823170731707314 36.9410569105691,60.97560975609756 37.09349593495935,61.1280487804878 37.19512195121951,61.28048780487805 37.34756097560975,61.43292682926829 37.449186991869915,61.58536585365854 37.60162601626016,61.6869918699187 37.7540650406504,61.83943089430894 37.90650406504065,61.99186991869919 38.05894308943089,62.09349593495935 38.21138211382114,62.24593495934959 38.3130081300813,62.34756097560975 38.516260162601625,62.5 38.668699186991866,62.65243902439024 38.87195121951219,62.80487804878049 39.07520325203252,62.95731707317073 39.27845528455285,63.109756097560975 39.48170731707317,63.21138211382114 39.6849593495935,63.41463414634146 39.88821138211382,63.516260162601625 40.142276422764226,63.668699186991866 40.34552845528455,63.82113821138211 40.59959349593496,63.922764227642276 40.90447154471545,64.07520325203252 41.15853658536585,64.17682926829268 41.46341463414634,64.27845528455285 41.76829268292683,64.380081300813 42.073170731707314,64.48170731707317 42.327235772357724,64.58333333333333 42.58130081300813,64.73577235772358 42.78455284552845,64.83739837398373" fill="none" stroke="black" stroke-width="0.6"></polyline><polyline points="42.78455284552845,64.83739837398373 42.98780487804878,64.9390243902439 43.24186991869919,65.04065040650406 43.44512195121951,65.14227642276423 43.64837398373984,65.1930894308943 43.85162601626016,65.29471544715447 44.0040650406504,65.39634146341463 44.20731707317073,65.44715447154472 44.46138211382114,65.54878048780488 44.66463414634146,65.59959349593495 44.86788617886179,65.65040650406505 45.12195121951219,65.65040650406505 45.325203252032516,65.70121951219512 45.579268292682926,65.70121951219512 45.78252032520325,65.7520325203252 45.985772357723576,65.7520325203252 46.1890243902439,65.7520325203252 46.392276422764226,65.7520325203252 46.59552845528455,65.80284552845528 46.798780487804876,65.80284552845528 47.0020325203252,65.80284552845528 47.20528455284553,65.80284552845528 47.40853658536585,65.80284552845528 47.66260162601626,65.80284552845528 47.86585365853659,65.80284552845528 48.06910569105691,65.7520325203252 48.3739837398374,65.7520325203252 48.577235772357724,65.70121951219512 48.83130081300813,65.70121951219512 49.08536585365854,65.65040650406505 49.33943089430894,65.65040650406505 49.59349593495935,65.59959349593495 49.84756097560975,65.54878048780488 50.10162601626016,65.54878048780488 50.355691056910565,65.4979674796748 50.609756097560975,65.4979674796748 50.91463414634146,65.44715447154472 51.168699186991866,65.39634146341463 51.422764227642276,65.29471544715447 51.72764227642276,65.2439024390244 51.981707317073166,65.14227642276423 52.28658536585366,65.04065040650406 52.540650406504064,64.98983739837398 52.79471544715447,64.88821138211382 53.048780487804876,64.78658536585365 53.302845528455286,64.6849593495935 53.55691056910569,64.58333333333333 53.8109756097561,64.48170731707317 54.0650406504065,64.380081300813 54.31910569105691,64.22764227642276 54.573170731707314,64.1260162601626" fill="none" stroke="black" stroke-width="0.6"></polyline><polyline points="54.573170731707314,64.1260162601626 54.827235772357724,63.97357723577235 55.08130081300813,63.82113821138211 55.33536585365854,63.71951219512195 55.58943089430894,63.5670731707317 55.792682926829265,63.41463414634146 56.046747967479675,63.262195121951216 56.25,63.109756097560975 56.5040650406504,63.00813008130081 56.70731707317073,62.855691056910565 56.91056910569105,62.703252032520325 57.11382113821138,62.60162601626016 57.266260162601625,62.449186991869915 57.46951219512195,62.296747967479675 57.672764227642276,62.14430894308943 57.8760162601626,62.042682926829265 58.079268292682926,61.83943089430894 58.33333333333333,61.636178861788615 58.58739837398374,61.483739837398375 58.84146341463415,61.33130081300813 59.09552845528455,61.1280487804878 59.34959349593496,60.92479674796748 59.603658536585364,60.72154471544715 59.857723577235774,60.51829268292683 60.11178861788618,60.3150406504065 60.3150406504065,60.11178861788618 60.51829268292683,59.959349593495936 60.72154471544715,59.80691056910569 60.8739837398374,59.603658536585364 61.077235772357724,59.40040650406504 61.229674796747965,59.2479674796748 61.38211382113821,59.09552845528455 61.53455284552845,58.892276422764226 61.636178861788615,58.739837398373986 61.78861788617886,58.58739837398374 61.9410569105691,58.38414634146341 62.042682926829265,58.231707317073166 62.19512195121951,58.079268292682926 62.296747967479675,57.8760162601626 62.449186991869915,57.72357723577235 62.55081300813008,57.57113821138211 62.703252032520325,57.418699186991866 62.80487804878049,57.266260162601625 62.90650406504065,57.11382113821138 63.00813008130081,56.96138211382114 63.16056910569105,56.75813008130081 63.262195121951216,56.605691056910565 63.41463414634146,56.40243902439024 63.516260162601625,56.199186991869915 63.668699186991866,55.99593495934959 63.77032520325203,55.792682926829265" fill="none" stroke="black" stroke-width="0.6"></polyline><polyline points="63.77032520325203,55.792682926829265 63.922764227642276,55.58943089430894 64.02439024390243,55.386178861788615 64.17682926829268,55.18292682926829 64.27845528455285,54.979674796747965 64.43089430894308,54.77642276422764 64.58333333333333,54.573170731707314 64.6849593495935,54.31910569105691 64.78658536585365,54.11585365853659 64.9390243902439,53.86178861788618 65.09146341463415,53.65853658536585 65.1930894308943,53.45528455284553 65.29471544715447,53.201219512195124 65.39634146341463,52.9979674796748 65.54878048780488,52.79471544715447 65.65040650406505,52.540650406504064 65.70121951219512,52.33739837398374 65.80284552845528,52.13414634146341 65.85365853658537,51.93089430894309 65.95528455284553,51.72764227642276 66.0060975609756,51.52439024390244 66.0569105691057,51.32113821138211 66.15853658536585,51.11788617886179 66.20934959349593,50.96544715447154 66.26016260162602,50.762195121951216 66.26016260162602,50.609756097560975 66.3109756097561,50.40650406504065 66.36178861788618,50.203252032520325 66.41260162601625,50.05081300813008 66.41260162601625,49.796747967479675 66.46341463414635,49.59349593495935 66.51422764227642,49.390243902439025 66.5650406504065,49.136178861788615 66.5650406504065,48.93292682926829 66.61585365853658,48.67886178861789 66.66666666666667,48.42479674796748 66.71747967479675,48.11991869918699 66.71747967479675,47.86585365853659 66.76829268292683,47.61178861788618 66.76829268292683,47.357723577235774 66.8191056910569,47.052845528455286 66.8191056910569,46.798780487804876 66.8191056910569,46.54471544715447 66.8191056910569,46.290650406504064 66.8191056910569,45.985772357723576 66.8191056910569,45.73170731707317 66.76829268292683,45.47764227642276 66.76829268292683,45.22357723577235 66.71747967479675,44.918699186991866 66.71747967479675,44.66463414634146 66.66666666666667,44.41056910569105" fill="none" stroke="black" stroke-width="0.6"></polyline><polyline points="66.66666666666667,44.41056910569105 66.61585365853658,44.15650406504065 66.61585365853658,43.85162601626016 66.5650406504065,43.546747967479675 66.51422764227642,43.24186991869919 66.51422764227642,42.98780487804878 66.46341463414635,42.68292682926829 66.41260162601625,42.42886178861789 66.36178861788618,42.17479674796748 66.3109756097561,41.86991869918699 66.26016260162602,41.666666666666664 66.20934959349593,41.36178861788618 66.15853658536585,41.107723577235774 66.10772357723577,40.853658536585364 66.0569105691057,40.59959349593496 66.0060975609756,40.34552845528455 65.90447154471545,40.09146341463415 65.85365853658537,39.88821138211382 65.80284552845528,39.63414634146341 65.7520325203252,39.38008130081301 65.70121951219512,39.1260162601626 65.59959349593495,38.87195121951219 65.54878048780488,38.61788617886179 65.4979674796748,38.36382113821138 65.39634146341463,38.109756097560975 65.34552845528455,37.90650406504065 65.29471544715447,37.65243902439024 65.1930894308943,37.449186991869915 65.14227642276423,37.19512195121951 65.04065040650406,36.9410569105691 64.98983739837398,36.6869918699187 64.88821138211382,36.483739837398375 64.83739837398373,36.229674796747965 64.73577235772358,36.02642276422764 64.6849593495935,35.77235772357724 64.58333333333333,35.56910569105691 64.48170731707317,35.36585365853659 64.380081300813,35.16260162601626 64.27845528455285,34.959349593495936 64.17682926829268,34.75609756097561 64.07520325203252,34.5020325203252 63.97357723577235,34.298780487804876 63.87195121951219,34.09552845528455 63.77032520325203,33.94308943089431 63.668699186991866,33.739837398373986 63.5670731707317,33.58739837398374 63.46544715447154,33.38414634146341 63.3130081300813,33.23170731707317 63.21138211382114,33.079268292682926 63.109756097560975,32.926829268292686 63.00813008130081,32.77439024390244" fill="none" stroke="black" stroke-width="0.6"></polyline><polyline points="63.00813008130081,32.77439024390244 62.90650406504065,32.6219512195122 62.7540650406504,32.46951219512195 62.65243902439024,32.3170731707317 62.55081300813008,32.21544715447154 62.449186991869915,32.0630081300813 62.296747967479675,31.961382113821138 62.24593495934959,31.859756097560975 62.14430894308943,31.758130081300813 62.042682926829265,31.65650406504065 61.9410569105691,31.554878048780488 61.83943089430894,31.504065040650406 61.73780487804878,31.402439024390244 61.636178861788615,31.351626016260163 61.58536585365854,31.30081300813008 61.483739837398375,31.19918699186992 61.38211382113821,31.148373983739837 61.28048780487805,31.097560975609756 61.17886178861789,30.995934959349594 61.077235772357724,30.945121951219512 60.97560975609756,30.89430894308943 60.8739837398374,30.79268292682927 60.77235772357724,30.741869918699187 60.670731707317074,30.691056910569106 60.51829268292683,30.640243902439025 60.416666666666664,30.538617886178862 60.3150406504065,30.48780487804878 60.21341463414634,30.4369918699187 60.11178861788618,30.38617886178862 60.010162601626014,30.335365853658537 59.857723577235774,30.233739837398375 59.75609756097561,30.182926829268293 59.65447154471545,30.132113821138212 59.5020325203252,30.08130081300813 59.34959349593496,29.979674796747968 59.146341463414636,29.928861788617887 58.892276422764226,29.827235772357724 58.63821138211382,29.725609756097562 58.38414634146341,29.67479674796748 58.079268292682926,29.573170731707318 57.8760162601626,29.522357723577237 57.62195121951219,29.420731707317074 57.36788617886179,29.369918699186993 57.11382113821138,29.268292682926827 56.80894308943089,29.217479674796746 56.453252032520325,29.115853658536583 56.14837398373984,29.0650406504065 55.84349593495935,28.96341463414634 55.48780487804878,28.912601626016258 55.18292682926829,28.810975609756095 54.8780487804878,28.760162601626014" fill="none" stroke="black" stroke-width="0.6"></polyline><polyline points="54.8780487804878,28.760162601626014 54.52235772357724,28.709349593495933 54.166666666666664,28.65853658536585 53.8109756097561,28.60772357723577 53.45528455284553,28.55691056910569 53.09959349593496,28.506097560975608 52.79471544715447,28.455284552845526 52.540650406504064,28.404471544715445 52.33739837398374,28.353658536585364 52.13414634146341,28.302845528455283 51.880081300813,28.2520325203252 51.67682926829268,28.20121951219512 51.47357723577235,28.15040650406504 51.27032520325203,28.15040650406504 51.11788617886179,28.099593495934958 50.91463414634146,28.099593495934958 50.8130081300813,28.099593495934958 50.66056910569105,28.048780487804876 50.50813008130081,28.048780487804876 50.355691056910565,28.048780487804876 50.203252032520325,28.048780487804876 50.05081300813008,28.048780487804876 49.949186991869915,28.048780487804876 49.796747967479675,28.048780487804876 49.59349593495935,28.099593495934958 49.49186991869919,28.099593495934958 49.33943089430894,28.15040650406504 49.1869918699187,28.15040650406504 49.03455284552845,28.20121951219512 48.93292682926829,28.20121951219512 48.78048780487805,28.2520325203252 48.6280487804878,28.2520325203252 48.47560975609756,28.302845528455283 48.323170731707314,28.353658536585364 48.170731707317074,28.404471544715445 48.01829268292683,28.455284552845526 47.8150406504065,28.55691056910569 47.66260162601626,28.60772357723577 47.459349593495936,28.709349593495933 47.25609756097561,28.760162601626014 47.0020325203252,28.861788617886177 46.7479674796748,28.96341463414634 46.49390243902439,29.01422764227642 46.290650406504064,29.115853658536583 46.03658536585366,29.166666666666664 45.78252032520325,29.268292682926827 45.52845528455285,29.31910569105691 45.325203252032516,29.420731707317074 45.07113821138211,29.522357723577237 44.8170731707317,29.6239837398374 44.61382113821138,29.67479674796748" fill="none" stroke="black" stroke-width="0.6"></polyline><polyline points="44.61382113821138,29.67479674796748 44.359756097560975,29.776422764227643 44.15650406504065,29.878048780487806 43.90243902439024,29.979674796747968 43.64837398373984,30.08130081300813 43.39430894308943,30.182926829268293 43.140243902439025,30.284552845528456 42.886178861788615,30.4369918699187 42.63211382113821,30.538617886178862 42.42886178861789,30.640243902439025 42.17479674796748,30.741869918699187 41.97154471544715,30.84349593495935 41.71747967479675,30.995934959349594 41.41260162601626,31.148373983739837 41.15853658536585,31.25 40.853658536585364,31.402439024390244 40.548780487804876,31.554878048780488 40.24390243902439,31.70731707317073 39.9390243902439,31.859756097560975 39.583333333333336,32.012195121951216 39.22764227642276,32.16463414634146 38.82113821138211,32.36788617886179 38.41463414634146,32.6219512195122 38.00813008130081,32.82520325203252 37.60162601626016,33.02845528455285 37.24593495934959,33.28252032520325 36.890243902439025,33.485772357723576 36.483739837398375,33.6890243902439 36.077235772357724,33.94308943089431 35.670731707317074,34.197154471544714 35.264227642276424,34.451219512195124 34.857723577235774,34.75609756097561 34.451219512195124,35.0609756097561 34.04471544715447,35.3150406504065 33.6890243902439,35.61991869918699 33.333333333333336,35.8739837398374 32.97764227642276,36.1280487804878 32.672764227642276,36.38211382113821 32.418699186991866,36.636178861788615 32.11382113821138,36.890243902439025 31.859756097560975,37.09349593495935 31.70731707317073,37.296747967479675 31.504065040650406,37.5 31.351626016260163,37.703252032520325 31.19918699186992,37.90650406504065 31.046747967479675,38.109756097560975 30.89430894308943,38.262195121951216 30.79268292682927,38.41463414634146 30.640243902439025,38.61788617886179 30.538617886178862,38.82113821138211 30.4369918699187,39.02439024390244" fill="none" stroke="black" stroke-width="0.6"></polyline><polyline points="30.4369918699187,39.02439024390244 30.335365853658537,39.22764227642276 30.233739837398375,39.48170731707317 30.132113821138212,39.6849593495935 29.979674796747968,39.9390243902439 29.878048780487806,40.142276422764226 29.776422764227643,40.34552845528455 29.67479674796748,40.59959349593496 29.573170731707318,40.7520325203252 29.522357723577237,40.95528455284553 29.420731707317074,41.209349593495936 29.31910569105691,41.41260162601626 29.268292682926827,41.666666666666664 29.166666666666664,41.920731707317074 29.115853658536583,42.17479674796748 29.01422764227642,42.479674796747965 28.96341463414634,42.78455284552845 28.861788617886177,43.08943089430894 28.810975609756095,43.44512195121951 28.709349593495933,43.80081300813008 28.60772357723577,44.15650406504065 28.506097560975608,44.512195121951216 28.404471544715445,44.86788617886179 28.302845528455283,45.172764227642276 28.2520325203252,45.47764227642276 28.15040650406504,45.833333333333336 28.15040650406504,46.13821138211382 28.099593495934958,46.49390243902439 28.048780487804876,46.84959349593496 27.997967479674795,47.15447154471545 27.947154471544714,47.459349593495936 27.896341463414632,47.86585365853659 27.896341463414632,48.22154471544715 27.896341463414632,48.577235772357724 27.84552845528455,48.93292682926829 27.84552845528455,49.28861788617886 27.84552845528455,49.64430894308943 27.84552845528455,50 27.84552845528455,50.355691056910565 27.84552845528455,50.71138211382114 27.84552845528455,51.0670731707317 27.84552845528455,51.37195121951219 27.84552845528455,51.72764227642276 27.896341463414632,52.03252032520325 27.896341463414632,52.38821138211382 27.947154471544714,52.69308943089431 27.997967479674795,53.048780487804876 27.997967479674795,53.353658536585364 28.048780487804876,53.65853658536585 28.099593495934958,53.96341463414634 28.15040650406504,54.26829268292683" fill="none" stroke="black" stroke-width="0.6"></polyline><polyline points="28.15040650406504,54.26829268292683 28.20121951219512,54.6239837398374 28.2520325203252,54.979674796747965 28.302845528455283,55.233739837398375 28.353658536585364,55.58943089430894 28.404471544715445,55.89430894308943 28.455284552845526,56.199186991869915 28.55691056910569,56.5040650406504 28.60772357723577,56.80894308943089 28.65853658536585,57.11382113821138 28.709349593495933,57.418699186991866 28.760162601626014,57.672764227642276 28.861788617886177,57.92682926829268 28.912601626016258,58.231707317073166 28.96341463414634,58.43495934959349 29.0650406504065,58.6890243902439 29.115853658536583,58.99390243902439 29.217479674796746,59.2479674796748 29.268292682926827,59.552845528455286 29.369918699186993,59.857723577235774 29.420731707317074,60.16260162601626 29.522357723577237,60.46747967479675 29.573170731707318,60.77235772357724 29.67479674796748,61.077235772357724 29.776422764227643,61.38211382113821 29.878048780487806,61.73780487804878 29.979674796747968,62.042682926829265 30.08130081300813,62.34756097560975 30.182926829268293,62.65243902439024 30.284552845528456,62.90650406504065 30.38617886178862,63.21138211382114 30.538617886178862,63.516260162601625 30.640243902439025,63.82113821138211 30.79268292682927,64.07520325203252 30.945121951219512,64.32926829268293 31.097560975609756,64.53252032520325 31.19918699186992,64.73577235772358 31.402439024390244,64.98983739837398 31.554878048780488,65.1930894308943 31.70731707317073,65.39634146341463 31.859756097560975,65.59959349593495 32.012195121951216,65.80284552845528 32.16463414634146,66.0060975609756 32.3170731707317,66.20934959349593 32.46951219512195,66.36178861788618 32.672764227642276,66.5650406504065 32.82520325203252,66.76829268292683 32.97764227642276,66.92073170731707 33.13008130081301,67.1239837398374 33.333333333333336,67.27642276422765 33.485772357723576,67.42886178861788" fill="none" stroke="black" stroke-width="0.6"></polyline><polyline points="33.485772357723576,67.42886178861788 33.63821138211382,67.6321138211382 33.790650406504064,67.78455284552845 33.94308943089431,67.9369918699187 34.09552845528455,68.03861788617886 34.2479674796748,68.1910569105691 34.40040650406504,68.34349593495935 34.552845528455286,68.4451219512195 34.70528455284553,68.59756097560975 34.857723577235774,68.69918699186992 35.010162601626014,68.80081300813008 35.16260162601626,68.95325203252033 35.3150406504065,69.05487804878048 35.46747967479675,69.15650406504065 35.61991869918699,69.3089430894309 35.77235772357724,69.41056910569105 35.92479674796748,69.51219512195122 36.077235772357724,69.66463414634146 36.229674796747965,69.76626016260163 36.38211382113821,69.91869918699187 36.53455284552845,70.02032520325203 36.6869918699187,70.1219512195122 36.890243902439025,70.22357723577235 37.042682926829265,70.32520325203252 37.19512195121951,70.42682926829268 37.34756097560975,70.52845528455285 37.55081300813008,70.630081300813 37.703252032520325,70.73170731707317 37.90650406504065,70.83333333333333 38.109756097560975,70.9349593495935 38.3130081300813,70.98577235772358 38.516260162601625,71.08739837398373 38.668699186991866,71.1890243902439 38.87195121951219,71.23983739837398 39.07520325203252,71.34146341463415 39.27845528455285,71.4430894308943 39.48170731707317,71.49390243902438 39.735772357723576,71.59552845528455 39.989837398373986,71.64634146341463 40.19308943089431,71.7479674796748 40.447154471544714,71.79878048780488 40.701219512195124,71.90040650406505 40.95528455284553,71.95121951219512 41.260162601626014,72.05284552845528 41.514227642276424,72.10365853658537 41.76829268292683,72.15447154471545 42.02235772357724,72.20528455284553 42.22560975609756,72.20528455284553 42.479674796747965,72.2560975609756 42.733739837398375,72.3069105691057 42.98780487804878,72.3069105691057" fill="none" stroke="black" stroke-width="0.6"></polyline><polyline points="42.98780487804878,72.3069105691057 43.24186991869919,72.3069105691057 43.546747967479675,72.35772357723577 43.80081300813008,72.35772357723577 44.105691056910565,72.40853658536585 44.41056910569105,72.40853658536585 44.66463414634146,72.40853658536585 44.96951219512195,72.40853658536585 45.325203252032516,72.40853658536585 45.579268292682926,72.40853658536585 45.88414634146341,72.35772357723577 46.1890243902439,72.35772357723577 46.44308943089431,72.3069105691057 46.697154471544714,72.3069105691057 47.0020325203252,72.2560975609756 47.30691056910569,72.2560975609756 47.61178861788618,72.20528455284553 47.916666666666664,72.15447154471545 48.22154471544715,72.10365853658537 48.52642276422764,72.05284552845528 48.83130081300813,72.0020325203252 49.136178861788615,71.95121951219512 49.4410569105691,71.90040650406505 49.74593495934959,71.84959349593495 50.05081300813008,71.79878048780488 50.355691056910565,71.7479674796748 50.66056910569105,71.64634146341463 50.91463414634146,71.59552845528455 51.21951219512195,71.54471544715447 51.52439024390244,71.4430894308943 51.77845528455284,71.39227642276423 52.03252032520325,71.29065040650406 52.33739837398374,71.1890243902439 52.59146341463415,71.13821138211382 52.896341463414636,71.03658536585365 53.15040650406504,70.9349593495935 53.40447154471545,70.8841463414634 53.65853658536585,70.78252032520325 53.91260162601626,70.73170731707317 54.166666666666664,70.630081300813 54.420731707317074,70.52845528455285 54.67479674796748,70.42682926829268 54.92886178861789,70.32520325203252 55.233739837398375,70.22357723577235 55.48780487804878,70.0711382113821 55.74186991869919,69.96951219512195 56.046747967479675,69.8170731707317 56.30081300813008,69.71544715447155 56.55487804878049,69.5630081300813 56.859756097560975,69.41056910569105 57.0630081300813,69.2581300813008" fill="none" stroke="black" stroke-width="0.6"></polyline><polyline points="57.0630081300813,69.2581300813008 57.3170731707317,69.15650406504065 57.62195121951219,69.0040650406504 57.825203252032516,68.85162601626016 58.079268292682926,68.69918699186992 58.38414634146341,68.4959349593496 58.63821138211382,68.34349593495935 58.892276422764226,68.1910569105691 59.197154471544714,68.03861788617886 59.451219512195124,67.83536585365853 59.70528455284553,67.6829268292683 59.959349593495936,67.47967479674797 60.21341463414634,67.27642276422765 60.416666666666664,67.1239837398374 60.670731707317074,66.92073170731707 60.8739837398374,66.76829268292683 61.077235772357724,66.5650406504065 61.28048780487805,66.41260162601625 61.483739837398375,66.20934959349593 61.6869918699187,66.0060975609756 61.890243902439025,65.85365853658537 62.09349593495935,65.65040650406505 62.24593495934959,65.44715447154472 62.449186991869915,65.29471544715447 62.60162601626016,65.09146341463415 62.80487804878049,64.88821138211382 62.95731707317073,64.6849593495935 63.109756097560975,64.53252032520325 63.262195121951216,64.32926829268293 63.46544715447154,64.17682926829268 63.61788617886179,63.97357723577235 63.71951219512195,63.82113821138211 63.87195121951219,63.61788617886179 64.02439024390243,63.46544715447154 64.17682926829268,63.262195121951216 64.380081300813,63.05894308943089 64.53252032520325,62.855691056910565 64.6849593495935,62.65243902439024 64.88821138211382,62.39837398373984 65.04065040650406,62.19512195121951 65.1930894308943,61.99186991869919 65.39634146341463,61.73780487804878 65.54878048780488,61.53455284552845 65.70121951219512,61.33130081300813 65.90447154471545,61.077235772357724 66.0569105691057,60.823170731707314 66.20934959349593,60.61991869918699 66.36178861788618,60.36585365853659 66.51422764227642,60.11178861788618 66.66666666666667,59.90853658536585 66.8191056910569,59.70528455284553" fill="none" stroke="black" stroke-width="0.6"></polyline><polyline points="66.8191056910569,59.70528455284553 66.92073170731707,59.451219512195124 67.07317073170732,59.2479674796748 67.22560975609755,58.99390243902439 67.3780487804878,58.739837398373986 67.53048780487805,58.485772357723576 67.6829268292683,58.231707317073166 67.83536585365853,57.97764227642276 67.9369918699187,57.72357723577235 68.08943089430895,57.46951219512195 68.1910569105691,57.266260162601625 68.34349593495935,57.012195121951216 68.4451219512195,56.80894308943089 68.59756097560975,56.55487804878049 68.69918699186992,56.30081300813008 68.80081300813008,56.09756097560975 68.90243902439025,55.84349593495935 69.0040650406504,55.58943089430894 69.10569105691057,55.386178861788615 69.20731707317073,55.18292682926829 69.3089430894309,54.92886178861789 69.41056910569105,54.72560975609756 69.51219512195122,54.47154471544715 69.66463414634146,54.166666666666664 69.76626016260163,53.96341463414634 69.86788617886178,53.709349593495936 70.02032520325203,53.45528455284553 70.0711382113821,53.2520325203252 70.17276422764228,52.9979674796748 70.27439024390243,52.74390243902439 70.3760162601626,52.489837398373986 70.47764227642276,52.235772357723576 70.57926829268293,51.93089430894309 70.73170731707317,51.67682926829268 70.83333333333333,51.37195121951219 70.9349593495935,51.0670731707317 71.03658536585365,50.8130081300813 71.13821138211382,50.50813008130081 71.29065040650406,50.15243902439024 71.39227642276423,49.84756097560975 71.49390243902438,49.49186991869919 71.64634146341463,49.08536585365854 71.7479674796748,48.78048780487805 71.90040650406505,48.42479674796748 72.0020325203252,48.01829268292683 72.10365853658537,47.66260162601626 72.20528455284553,47.25609756097561 72.3069105691057,46.84959349593496 72.40853658536585,46.44308943089431 72.51016260162602,46.03658536585366 72.61178861788618,45.579268292682926" fill="none" stroke="black" stroke-width="0.6"></polyline><polyline points="72.61178861788618,45.579268292682926 72.66260162601625,45.172764227642276 72.71341463414635,44.71544715447154 72.8150406504065,44.25813008130081 72.86585365853658,43.80081300813008 72.91666666666667,43.34349593495935 72.96747967479675,42.886178861788615 72.96747967479675,42.3780487804878 73.01829268292683,41.920731707317074 73.0691056910569,41.41260162601626 73.0691056910569,40.90447154471545 73.119918699187,40.396341463414636 73.119918699187,39.83739837398374 73.119918699187,39.329268292682926 73.17073170731707,38.77032520325203 73.17073170731707,38.21138211382114 73.17073170731707,37.703252032520325 73.17073170731707,37.14430894308943 73.119918699187,36.53455284552845 73.0691056910569,35.97560975609756 73.01829268292683,35.416666666666664 72.91666666666667,34.857723577235774 72.8150406504065,34.298780487804876 72.66260162601625,33.790650406504064 72.51016260162602,33.23170731707317 72.35772357723577,32.672764227642276 72.15447154471545,32.11382113821138 71.95121951219512,31.554878048780488 71.69715447154472,31.046747967479675 71.4430894308943,30.538617886178862 71.1890243902439,30.03048780487805 70.8841463414634,29.522357723577237 70.57926829268293,29.01422764227642 70.27439024390243,28.55691056910569 69.96951219512195,28.099593495934958 69.5630081300813,27.591463414634145 69.2581300813008,27.184959349593495 68.85162601626016,26.778455284552845 68.4451219512195,26.321138211382113 68.03861788617886,25.965447154471544 67.58130081300813,25.558943089430894 67.1239837398374,25.203252032520325 66.66666666666667,24.847560975609756 66.15853658536585,24.54268292682927 65.65040650406505,24.1869918699187 65.14227642276423,23.882113821138212 64.58333333333333,23.577235772357724 63.97357723577235,23.272357723577237 63.46544715447154,22.96747967479675 62.90650406504065,22.71341463414634 62.24593495934959,22.459349593495933" fill="none" stroke="black" stroke-width="0.6"></polyline><polyline points="62.24593495934959,22.459349593495933 61.636178861788615,22.205284552845526 61.02642276422764,21.95121951219512 60.3150406504065,21.697154471544714 59.70528455284553,21.49390243902439 59.04471544715447,21.290650406504064 58.33333333333333,21.08739837398374 57.72357723577235,20.884146341463413 57.0630081300813,20.73170731707317 56.35162601626016,20.528455284552845 55.74186991869919,20.3760162601626 55.03048780487805,20.223577235772357 54.26829268292683,20.121951219512194 53.607723577235774,20.020325203252032 52.896341463414636,19.91869918699187 52.13414634146341,19.867886178861788 51.37195121951219,19.817073170731707 50.609756097560975,19.766260162601625 49.84756097560975,19.766260162601625 49.08536585365854,19.766260162601625 48.22154471544715,19.817073170731707 47.357723577235774,19.91869918699187 46.54471544715447,20.020325203252032 45.73170731707317,20.172764227642276 44.8170731707317,20.3760162601626 44.0040650406504,20.579268292682926 43.08943089430894,20.833333333333332 42.17479674796748,21.13821138211382 41.260162601626014,21.443089430894307 40.34552845528455,21.798780487804876 39.48170731707317,22.205284552845526 38.516260162601625,22.611788617886177 37.5,23.170731707317074 36.38211382113821,23.729674796747968 35.416666666666664,24.339430894308943 34.451219512195124,24.898373983739837 33.58739837398374,25.45731707317073 32.77439024390244,26.016260162601625 31.961382113821138,26.6260162601626 31.148373983739837,27.235772357723576 30.38617886178862,27.79471544715447 29.725609756097562,28.455284552845526 29.115853658536583,29.0650406504065 28.506097560975608,29.67479674796748 27.947154471544714,30.335365853658537 27.38821138211382,30.995934959349594 26.880081300813007,31.65650406504065 26.422764227642276,32.3170731707317 26.016260162601625,32.97764227642276 25.558943089430894,33.6890243902439 25.101626016260163,34.451219512195124" fill="none" stroke="black" stroke-width="0.6"></polyline><polyline points="25.101626016260163,34.451219512195124 24.695121951219512,35.16260162601626 24.288617886178862,35.92479674796748 23.83130081300813,36.73780487804878 23.42479674796748,37.55081300813008 23.06910569105691,38.3130081300813 22.662601626016258,39.1260162601626 22.35772357723577,39.9390243902439 22.0020325203252,40.7520325203252 21.697154471544714,41.61585365853659 21.443089430894307,42.42886178861789 21.13821138211382,43.24186991869919 20.884146341463413,44.15650406504065 20.68089430894309,44.918699186991866 20.477642276422763,45.78252032520325 20.274390243902438,46.646341463414636 20.121951219512194,47.459349593495936 19.96951219512195,48.323170731707314 19.817073170731707,49.33943089430894 19.664634146341463,50.30487804878049 19.51219512195122,51.27032520325203 19.410569105691057,52.28658536585366 19.410569105691057,53.09959349593496 19.359756097560975,54.0650406504065 19.359756097560975,55.03048780487805 19.359756097560975,55.94512195121951 19.359756097560975,56.91056910569105 19.410569105691057,57.8760162601626 19.51219512195122,58.790650406504064 19.61382113821138,59.75609756097561 19.766260162601625,60.72154471544715 19.96951219512195,61.53455284552845 20.172764227642276,62.5 20.426829268292682,63.516260162601625 20.68089430894309,64.43089430894308 20.985772357723576,65.29471544715447 21.341463414634145,66.15853658536585 21.747967479674795,66.92073170731707 22.154471544715445,67.73373983739837 22.611788617886177,68.4451219512195 23.06910569105691,69.15650406504065 23.577235772357724,69.86788617886178 24.13617886178862,70.52845528455285 24.64430894308943,71.13821138211382 25.254065040650406,71.69715447154472 25.8130081300813,72.3069105691057 26.422764227642276,72.8150406504065 27.083333333333332,73.32317073170732 27.693089430894307,73.83130081300813 28.353658536585364,74.33943089430895 29.01422764227642,74.79674796747967" fill="none" stroke="black" stroke-width="0.6"></polyline><polyline points="29.01422764227642,74.79674796747967 29.725609756097562,75.2540650406504 30.38617886178862,75.66056910569105 31.097560975609756,76.0670731707317 31.859756097560975,76.47357723577235 32.57113821138211,76.82926829268293 33.333333333333336,77.23577235772358 34.146341463414636,77.54065040650406 34.959349593495936,77.84552845528455 35.823170731707314,78.15040650406505 36.6869918699187,78.40447154471545 37.55081300813008,78.65853658536585 38.41463414634146,78.86178861788618 39.329268292682926,79.0650406504065 40.24390243902439,79.21747967479675 41.15853658536585,79.3191056910569 42.1239837398374,79.42073170731707 43.08943089430894,79.52235772357723 44.105691056910565,79.52235772357723 45.07113821138211,79.57317073170732 46.08739837398374,79.57317073170732 47.15447154471545,79.52235772357723 48.170731707317074,79.47154471544715 49.23780487804878,79.3191056910569 50.355691056910565,79.16666666666667 51.32113821138211,78.96341463414635 52.33739837398374,78.76016260162602 53.45528455284553,78.5060975609756 54.420731707317074,78.20121951219512 55.386178861788615,77.89634146341463 56.40243902439024,77.54065040650406 57.3170731707317,77.1849593495935 58.231707317073166,76.82926829268293 59.146341463414636,76.42276422764228 59.959349593495936,76.01626016260163 60.77235772357724,75.60975609756098 61.58536585365854,75.15243902439025 62.296747967479675,74.6951219512195 63.05894308943089,74.23780487804878 63.77032520325203,73.72967479674797 64.43089430894308,73.22154471544715 65.14227642276423,72.71341463414635 65.80284552845528,72.10365853658537 66.36178861788618,71.59552845528455 66.97154471544715,71.03658536585365 67.53048780487805,70.42682926829268 68.03861788617886,69.91869918699187 68.4959349593496,69.3089430894309 69.0040650406504,68.69918699186992 69.41056910569105,68.1910569105691 69.8170731707317,67.58130081300813" fill="none" stroke="black" stroke-width="0.6"></polyline><polyline points="69.8170731707317,67.58130081300813 70.17276422764228,67.02235772357723 70.52845528455285,66.46341463414635 70.8841463414634,65.85365853658537 71.23983739837398,65.2439024390244 71.54471544715447,64.6849593495935 71.90040650406505,64.07520325203252 72.2560975609756,63.46544715447154 72.61178861788618,62.855691056910565 72.96747967479675,62.296747967479675 73.27235772357723,61.73780487804878 73.57723577235772,61.17886178861789 73.83130081300813,60.61991869918699 74.13617886178862,60.11178861788618 74.33943089430895,59.603658536585364 74.54268292682927,59.146341463414636 74.7459349593496,58.63821138211382 74.89837398373983,58.18089430894309 75.05081300813008,57.77439024390244 75.20325203252033,57.3170731707317 75.35569105691057,56.91056910569105 75.5081300813008,56.5040650406504 75.66056910569105,56.09756097560975 75.8130081300813,55.6910569105691 75.91463414634146,55.28455284552845 76.0670731707317,54.8780487804878 76.21951219512195,54.52235772357724 76.3719512195122,54.166666666666664 76.47357723577235,53.8109756097561 76.57520325203252,53.50609756097561 76.6260162601626,53.201219512195124 76.72764227642276,52.896341463414636 76.77845528455285,52.642276422764226 76.82926829268293,52.38821138211382 76.880081300813,52.13414634146341 76.880081300813,51.93089430894309 76.93089430894308,51.72764227642276 76.93089430894308,51.575203252032516 76.98170731707317,51.422764227642276 76.98170731707317,51.27032520325203 76.98170731707317,51.11788617886179 76.98170731707317,51.016260162601625 77.03252032520325,50.86382113821138 77.03252032520325,50.8130081300813 77.03252032520325,50.71138211382114 77.08333333333333,50.609756097560975 77.08333333333333,50.55894308943089 77.08333333333333,50.50813008130081 77.1341463414634,50.45731707317073 77.1341463414634,50.40650406504065 77.1341463414634,50.355691056910565" fill="none" stroke="black" stroke-width="0.6"></polyline><polyline points="77.1341463414634,50.355691056910565 77.1341463414634,50.355691056910565 77.1341463414634,50.355691056910565 77.1341463414634,50.355691056910565 77.1341463414634,50.30487804878049 77.1341463414634,50.30487804878049 77.1341463414634,50.30487804878049 77.1341463414634,50.30487804878049 77.1341463414634,50.355691056910565 77.1341463414634,50.40650406504065" fill="none" stroke="black" stroke-width="0.6"></polyline></svg>