<svg height="100" width="100" preserveAspectRatio="xMidYMid meet"><polyline points="50.203252032520325,50.50813008130081 50.203252032520325,50.50813008130081 50.203252032520325,50.50813008130081 50.203252032520325,50.50813008130081 50.203252032520325,50.50813008130081 50.203252032520325,50.50813008130081 50.203252032520325,50.50813008130081 50.203252032520325,50.50813008130081 50.203252032520325,50.50813008130081 50.203252032520325,50.50813008130081 50.203252032520325,50.50813008130081 50.203252032520325,50.50813008130081 50.203252032520325,50.50813008130081 50.203252032520325,50.50813008130081 50.203252032520325,50.50813008130081 50.203252032520325,50.45731707317073 50.203252032520325,50.45731707317073 50.203252032520325,50.40650406504065 50.203252032520325,50.355691056910565 50.2540650406504,50.30487804878049 50.2540650406504,50.2540650406504 50.30487804878049,50.203252032520325 50.355691056910565,50.05081300813008 50.355691056910565,49.949186991869915 50.40650406504065,49.89837398373984 50.45731707317073,49.74593495934959 50.45731707317073,49.59349593495935 50.50813008130081,49.49186991869919 50.50813008130081,49.4410569105691 50.50813008130081,49.390243902439025 50.55894308943089,49.28861788617886 50.55894308943089,49.23780487804878 50.55894308943089,49.136178861788615 50.55894308943089,49.08536585365854 50.55894308943089,49.03455284552845 50.55894308943089,48.983739837398375 50.50813008130081,48.93292682926829 50.50813008130081,48.93292682926829 50.50813008130081,48.88211382113821 50.50813008130081,48.88211382113821 50.45731707317073,48.88211382113821 50.45731707317073,48.83130081300813 50.40650406504065,48.78048780487805 50.40650406504065,48.78048780487805 50.30487804878049,48.67886178861789 50.30487804878049,48.67886178861789 50.2540650406504,48.6280487804878 50.203252032520325,48.52642276422764 50.15243902439024,48.52642276422764 50.10162601626016,48.47560975609756 50.05081300813008,48.42479674796748" fill="none" stroke="black" stroke-width="0.6"></polyline><polyline points="50.05081300813008,48.42479674796748 49.949186991869915,48.323170731707314 49.949186991869915,48.323170731707314 49.89837398373984,48.27235772357724 49.796747967479675,48.22154471544715 49.69512195121951,48.170731707317074 49.542682926829265,48.11991869918699 49.49186991869919,48.11991869918699 49.390243902439025,48.06910569105691 49.33943089430894,48.06910569105691 49.28861788617886,48.06910569105691 49.23780487804878,48.01829268292683 49.1869918699187,48.01829268292683 49.136178861788615,48.01829268292683 49.08536585365854,48.01829268292683 49.03455284552845,47.96747967479675 48.88211382113821,47.96747967479675 48.83130081300813,47.96747967479675 48.67886178861789,47.96747967479675 48.52642276422764,47.96747967479675 48.47560975609756,48.01829268292683 48.323170731707314,48.06910569105691 48.22154471544715,48.11991869918699 48.06910569105691,48.170731707317074 48.01829268292683,48.22154471544715 47.916666666666664,48.27235772357724 47.764227642276424,48.323170731707314 47.71341463414634,48.3739837398374 47.66260162601626,48.42479674796748 47.5609756097561,48.47560975609756 47.357723577235774,48.6280487804878 47.25609756097561,48.78048780487805 47.20528455284553,48.78048780487805 47.15447154471545,48.88211382113821 47.052845528455286,48.93292682926829 47.0020325203252,49.08536585365854 46.951219512195124,49.08536585365854 46.951219512195124,49.136178861788615 46.90040650406504,49.1869918699187 46.84959349593496,49.28861788617886 46.84959349593496,49.28861788617886 46.798780487804876,49.390243902439025 46.7479674796748,49.542682926829265 46.7479674796748,49.59349593495935 46.697154471544714,49.64430894308943 46.697154471544714,49.69512195121951 46.697154471544714,49.796747967479675 46.697154471544714,49.89837398373984 46.646341463414636,49.949186991869915 46.646341463414636,50 46.646341463414636,50.10162601626016" fill="none" stroke="black" stroke-width="0.6"></polyline><polyline points="46.646341463414636,50.10162601626016 46.646341463414636,50.2540650406504 46.646341463414636,50.355691056910565 46.646341463414636,50.45731707317073 46.646341463414636,50.66056910569105 46.646341463414636,50.71138211382114 46.646341463414636,50.8130081300813 46.646341463414636,50.91463414634146 46.697154471544714,50.96544715447154 46.697154471544714,51.016260162601625 46.697154471544714,51.11788617886179 46.7479674796748,51.27032520325203 46.7479674796748,51.37195121951219 46.798780487804876,51.422764227642276 46.84959349593496,51.575203252032516 46.84959349593496,51.6260162601626 46.84959349593496,51.67682926829268 46.90040650406504,51.72764227642276 46.90040650406504,51.829268292682926 46.951219512195124,51.93089430894309 46.951219512195124,51.981707317073166 47.0020325203252,52.083333333333336 47.052845528455286,52.13414634146341 47.052845528455286,52.1849593495935 47.052845528455286,52.235772357723576 47.103658536585364,52.28658536585366 47.15447154471545,52.38821138211382 47.15447154471545,52.4390243902439 47.20528455284553,52.489837398373986 47.25609756097561,52.540650406504064 47.25609756097561,52.642276422764226 47.25609756097561,52.642276422764226 47.357723577235774,52.74390243902439 47.357723577235774,52.84552845528455 47.40853658536585,52.84552845528455 47.459349593495936,52.896341463414636 47.459349593495936,52.947154471544714 47.510162601626014,52.9979674796748 47.5609756097561,53.048780487804876 47.61178861788618,53.15040650406504 47.66260162601626,53.201219512195124 47.71341463414634,53.2520325203252 47.71341463414634,53.302845528455286 47.764227642276424,53.353658536585364 47.8150406504065,53.40447154471545 47.86585365853659,53.45528455284553 47.916666666666664,53.50609756097561 48.01829268292683,53.55691056910569 48.01829268292683,53.607723577235774 48.06910569105691,53.607723577235774 48.11991869918699,53.65853658536585" fill="none" stroke="black" stroke-width="0.6"></polyline><polyline points="48.11991869918699,53.65853658536585 48.22154471544715,53.709349593495936 48.27235772357724,53.760162601626014 48.323170731707314,53.760162601626014 48.323170731707314,53.8109756097561 48.42479674796748,53.86178861788618 48.52642276422764,53.91260162601626 48.67886178861789,54.014227642276424 48.729674796747965,54.014227642276424 48.83130081300813,54.0650406504065 48.88211382113821,54.11585365853659 48.93292682926829,54.11585365853659 49.03455284552845,54.166666666666664 49.136178861788615,54.166666666666664 49.23780487804878,54.21747967479675 49.28861788617886,54.26829268292683 49.33943089430894,54.26829268292683 49.390243902439025,54.26829268292683 49.49186991869919,54.31910569105691 49.59349593495935,54.31910569105691 49.74593495934959,54.36991869918699 49.796747967479675,54.36991869918699 49.84756097560975,54.420731707317074 49.949186991869915,54.420731707317074 50.05081300813008,54.47154471544715 50.203252032520325,54.47154471544715 50.2540650406504,54.47154471544715 50.30487804878049,54.47154471544715 50.355691056910565,54.47154471544715 50.40650406504065,54.52235772357724 50.50813008130081,54.52235772357724 50.66056910569105,54.52235772357724 50.762195121951216,54.52235772357724 50.8130081300813,54.52235772357724 50.86382113821138,54.52235772357724 50.96544715447154,54.52235772357724 51.168699186991866,54.52235772357724 51.21951219512195,54.52235772357724 51.27032520325203,54.52235772357724 51.32113821138211,54.52235772357724 51.422764227642276,54.52235772357724 51.575203252032516,54.47154471544715 51.77845528455284,54.47154471544715 51.880081300813,54.420731707317074 51.93089430894309,54.420731707317074 52.03252032520325,54.420731707317074 52.1849593495935,54.36991869918699 52.33739837398374,54.36991869918699 52.38821138211382,54.36991869918699 52.489837398373986,54.31910569105691 52.59146341463415,54.31910569105691" fill="none" stroke="black" stroke-width="0.6"></polyline><polyline points="52.59146341463415,54.31910569105691 52.69308943089431,54.26829268292683 52.84552845528455,54.21747967479675 52.947154471544714,54.166666666666664 52.9979674796748,54.166666666666664 53.09959349593496,54.11585365853659 53.15040650406504,54.0650406504065 53.201219512195124,54.014227642276424 53.2520325203252,54.014227642276424 53.353658536585364,53.91260162601626 53.45528455284553,53.8109756097561 53.65853658536585,53.65853658536585 53.8109756097561,53.55691056910569 53.86178861788618,53.50609756097561 54.0650406504065,53.353658536585364 54.26829268292683,53.201219512195124 54.47154471544715,53.048780487804876 54.52235772357724,52.947154471544714 54.6239837398374,52.896341463414636 54.77642276422764,52.79471544715447 54.827235772357724,52.74390243902439 54.979674796747965,52.59146341463415 55.08130081300813,52.489837398373986 55.18292682926829,52.33739837398374 55.18292682926829,52.28658536585366 55.233739837398375,52.235772357723576 55.233739837398375,52.13414634146341 55.233739837398375,52.083333333333336 55.28455284552845,52.03252032520325 55.28455284552845,51.981707317073166 55.28455284552845,51.93089430894309 55.28455284552845,51.880081300813 55.28455284552845,51.829268292682926 55.28455284552845,51.72764227642276 55.33536585365854,51.6260162601626 55.33536585365854,51.6260162601626 55.386178861788615,51.52439024390244 55.386178861788615,51.422764227642276 55.4369918699187,51.37195121951219 55.4369918699187,51.27032520325203 55.48780487804878,51.11788617886179 55.58943089430894,50.96544715447154 55.58943089430894,50.86382113821138 55.640243902439025,50.762195121951216 55.6910569105691,50.609756097560975 55.74186991869919,50.50813008130081 55.792682926829265,50.40650406504065 55.792682926829265,50.30487804878049 55.84349593495935,50.2540650406504 55.84349593495935,50.15243902439024 55.89430894308943,50.05081300813008" fill="none" stroke="black" stroke-width="0.6"></polyline><polyline points="55.89430894308943,50.05081300813008 55.89430894308943,49.89837398373984 55.94512195121951,49.74593495934959 55.94512195121951,49.69512195121951 55.94512195121951,49.59349593495935 55.99593495934959,49.49186991869919 55.99593495934959,49.390243902439025 55.99593495934959,49.23780487804878 55.99593495934959,49.08536585365854 55.99593495934959,49.03455284552845 55.99593495934959,48.983739837398375 55.99593495934959,48.93292682926829 55.99593495934959,48.83130081300813 55.99593495934959,48.67886178861789 55.99593495934959,48.52642276422764 55.99593495934959,48.47560975609756 55.99593495934959,48.323170731707314 55.99593495934959,48.170731707317074 55.99593495934959,48.06910569105691 55.99593495934959,47.8150406504065 55.99593495934959,47.764227642276424 55.99593495934959,47.66260162601626 55.99593495934959,47.459349593495936 55.94512195121951,47.30691056910569 55.94512195121951,47.15447154471545 55.89430894308943,47.103658536585364 55.89430894308943,47.0020325203252 55.89430894308943,46.951219512195124 55.89430894308943,46.90040650406504 55.84349593495935,46.7479674796748 55.792682926829265,46.54471544715447 55.74186991869919,46.44308943089431 55.6910569105691,46.239837398373986 55.640243902439025,46.13821138211382 55.640243902439025,46.03658536585366 55.58943089430894,45.88414634146341 55.53861788617886,45.78252032520325 55.48780487804878,45.68089430894309 55.4369918699187,45.47764227642276 55.4369918699187,45.42682926829268 55.386178861788615,45.3760162601626 55.386178861788615,45.325203252032516 55.33536585365854,45.22357723577235 55.33536585365854,45.22357723577235 55.28455284552845,45.172764227642276 55.28455284552845,45.12195121951219 55.233739837398375,45.02032520325203 55.233739837398375,44.96951219512195 55.18292682926829,44.918699186991866 55.13211382113821,44.8170731707317 55.08130081300813,44.766260162601625" fill="none" stroke="black" stroke-width="0.6"></polyline><polyline points="55.08130081300813,44.766260162601625 55.08130081300813,44.766260162601625 55.03048780487805,44.66463414634146 55.03048780487805,44.61382113821138 54.979674796747965,44.5630081300813 54.8780487804878,44.46138211382114 54.827235772357724,44.359756097560975 54.77642276422764,44.25813008130081 54.77642276422764,44.25813008130081 54.72560975609756,44.20731707317073 54.72560975609756,44.15650406504065 54.6239837398374,44.05487804878049 54.6239837398374,44.0040650406504 54.573170731707314,43.953252032520325 54.52235772357724,43.90243902439024 54.47154471544715,43.85162601626016 54.47154471544715,43.80081300813008 54.36991869918699,43.699186991869915 54.31910569105691,43.64837398373984 54.26829268292683,43.546747967479675 54.166666666666664,43.44512195121951 54.11585365853659,43.39430894308943 54.0650406504065,43.292682926829265 53.96341463414634,43.24186991869919 53.8109756097561,43.08943089430894 53.709349593495936,42.98780487804878 53.55691056910569,42.886178861788615 53.50609756097561,42.83536585365854 53.353658536585364,42.733739837398375 53.15040650406504,42.58130081300813 52.947154471544714,42.42886178861789 52.896341463414636,42.3780487804878 52.79471544715447,42.327235772357724 52.74390243902439,42.27642276422764 52.59146341463415,42.22560975609756 52.4390243902439,42.1239837398374 52.38821138211382,42.1239837398374 52.33739837398374,42.073170731707314 52.235772357723576,42.02235772357724 52.1849593495935,41.97154471544715 52.03252032520325,41.920731707317074 51.829268292682926,41.86991869918699 51.6260162601626,41.76829268292683 51.52439024390244,41.76829268292683 51.47357723577235,41.71747967479675 51.27032520325203,41.666666666666664 51.0670731707317,41.61585365853659 51.016260162601625,41.61585365853659 50.91463414634146,41.5650406504065 50.86382113821138,41.5650406504065 50.66056910569105,41.514227642276424" fill="none" stroke="black" stroke-width="0.6"></polyline><polyline points="50.66056910569105,41.514227642276424 50.609756097560975,41.514227642276424 50.45731707317073,41.514227642276424 50.40650406504065,41.514227642276424 50.355691056910565,41.514227642276424 50.2540650406504,41.46341463414634 50.15243902439024,41.46341463414634 50.10162601626016,41.46341463414634 50.05081300813008,41.46341463414634 49.949186991869915,41.46341463414634 49.796747967479675,41.46341463414634 49.59349593495935,41.46341463414634 49.390243902439025,41.46341463414634 49.28861788617886,41.46341463414634 49.08536585365854,41.46341463414634 48.78048780487805,41.514227642276424 48.67886178861789,41.514227642276424 48.577235772357724,41.514227642276424 48.47560975609756,41.514227642276424 48.3739837398374,41.514227642276424 48.22154471544715,41.514227642276424 48.11991869918699,41.5650406504065 47.86585365853659,41.5650406504065 47.71341463414634,41.5650406504065 47.459349593495936,41.61585365853659 47.25609756097561,41.666666666666664 47.0020325203252,41.71747967479675 46.90040650406504,41.71747967479675 46.798780487804876,41.71747967479675 46.697154471544714,41.76829268292683 46.59552845528455,41.76829268292683 46.59552845528455,41.76829268292683 46.54471544715447,41.81910569105691 46.49390243902439,41.81910569105691 46.392276422764226,41.86991869918699 46.34146341463415,41.86991869918699 46.290650406504064,41.920731707317074 46.1890243902439,41.97154471544715 46.08739837398374,42.02235772357724 46.03658536585366,42.02235772357724 45.985772357723576,42.073170731707314 45.9349593495935,42.073170731707314 45.88414634146341,42.1239837398374 45.78252032520325,42.17479674796748 45.63008130081301,42.22560975609756 45.579268292682926,42.27642276422764 45.42682926829268,42.327235772357724 45.27439024390244,42.3780487804878 45.12195121951219,42.479674796747965 44.96951219512195,42.53048780487805 44.8170731707317,42.58130081300813" fill="none" stroke="black" stroke-width="0.6"></polyline><polyline points="44.8170731707317,42.58130081300813 44.66463414634146,42.68292682926829 44.512195121951216,42.733739837398375 44.46138211382114,42.78455284552845 44.41056910569105,42.78455284552845 44.105691056910565,42.98780487804878 44.0040650406504,42.98780487804878 43.953252032520325,43.03861788617886 43.90243902439024,43.08943089430894 43.80081300813008,43.140243902439025 43.699186991869915,43.24186991869919 43.546747967479675,43.292682926829265 43.44512195121951,43.39430894308943 43.1910569105691,43.546747967479675 43.140243902439025,43.59756097560975 42.98780487804878,43.64837398373984 42.886178861788615,43.75 42.733739837398375,43.85162601626016 42.58130081300813,43.953252032520325 42.479674796747965,44.05487804878049 42.327235772357724,44.15650406504065 42.27642276422764,44.20731707317073 42.22560975609756,44.25813008130081 42.1239837398374,44.30894308943089 42.073170731707314,44.359756097560975 41.920731707317074,44.46138211382114 41.666666666666664,44.66463414634146 41.5650406504065,44.766260162601625 41.46341463414634,44.86788617886179 41.3109756097561,44.96951219512195 41.260162601626014,45.07113821138211 41.15853658536585,45.12195121951219 41.107723577235774,45.172764227642276 41.05691056910569,45.22357723577235 40.95528455284553,45.3760162601626 40.853658536585364,45.52845528455285 40.802845528455286,45.579268292682926 40.59959349593496,45.833333333333336 40.447154471544714,46.08739837398374 40.396341463414636,46.13821138211382 40.34552845528455,46.239837398373986 40.29471544715447,46.290650406504064 40.24390243902439,46.34146341463415 40.142276422764226,46.49390243902439 40.09146341463415,46.59552845528455 40.040650406504064,46.697154471544714 39.989837398373986,46.798780487804876 39.9390243902439,46.90040650406504 39.9390243902439,46.951219512195124 39.88821138211382,47.0020325203252 39.83739837398374,47.15447154471545" fill="none" stroke="black" stroke-width="0.6"></polyline><polyline points="39.83739837398374,47.15447154471545 39.83739837398374,47.25609756097561 39.78658536585366,47.357723577235774 39.78658536585366,47.459349593495936 39.78658536585366,47.510162601626014 39.735772357723576,47.66260162601626 39.735772357723576,47.8150406504065 39.735772357723576,47.86585365853659 39.735772357723576,47.96747967479675 39.6849593495935,48.11991869918699 39.6849593495935,48.22154471544715 39.6849593495935,48.42479674796748 39.6849593495935,48.47560975609756 39.6849593495935,48.52642276422764 39.6849593495935,48.67886178861789 39.6849593495935,48.88211382113821 39.6849593495935,48.983739837398375 39.6849593495935,49.03455284552845 39.6849593495935,49.28861788617886 39.6849593495935,49.4410569105691 39.6849593495935,49.542682926829265 39.6849593495935,49.64430894308943 39.6849593495935,49.796747967479675 39.6849593495935,50.05081300813008 39.6849593495935,50.15243902439024 39.6849593495935,50.2540650406504 39.6849593495935,50.355691056910565 39.6849593495935,50.55894308943089 39.735772357723576,50.71138211382114 39.735772357723576,50.86382113821138 39.735772357723576,50.91463414634146 39.78658536585366,51.11788617886179 39.83739837398374,51.27032520325203 39.83739837398374,51.47357723577235 39.88821138211382,51.575203252032516 39.88821138211382,51.6260162601626 39.9390243902439,51.829268292682926 39.989837398373986,51.981707317073166 40.040650406504064,52.083333333333336 40.040650406504064,52.13414634146341 40.09146341463415,52.28658536585366 40.19308943089431,52.540650406504064 40.24390243902439,52.642276422764226 40.24390243902439,52.69308943089431 40.29471544715447,52.74390243902439 40.34552845528455,52.84552845528455 40.34552845528455,52.896341463414636 40.396341463414636,53.048780487804876 40.447154471544714,53.09959349593496 40.4979674796748,53.2520325203252 40.59959349593496,53.40447154471545" fill="none" stroke="black" stroke-width="0.6"></polyline><polyline points="40.59959349593496,53.40447154471545 40.59959349593496,53.45528455284553 40.65040650406504,53.55691056910569 40.65040650406504,53.607723577235774 40.701219512195124,53.709349593495936 40.701219512195124,53.760162601626014 40.802845528455286,53.86178861788618 40.853658536585364,54.014227642276424 40.90447154471545,54.166666666666664 40.90447154471545,54.21747967479675 40.95528455284553,54.31910569105691 41.00609756097561,54.420731707317074 41.107723577235774,54.67479674796748 41.15853658536585,54.72560975609756 41.209349593495936,54.8780487804878 41.260162601626014,55.03048780487805 41.36178861788618,55.13211382113821 41.41260162601626,55.233739837398375 41.46341463414634,55.28455284552845 41.514227642276424,55.4369918699187 41.61585365853659,55.640243902439025 41.666666666666664,55.74186991869919 41.71747967479675,55.792682926829265 41.71747967479675,55.84349593495935 41.81910569105691,55.99593495934959 41.86991869918699,56.09756097560975 41.920731707317074,56.199186991869915 41.97154471544715,56.25 42.073170731707314,56.453252032520325 42.1239837398374,56.5040650406504 42.27642276422764,56.70731707317073 42.3780487804878,56.91056910569105 42.479674796747965,57.012195121951216 42.58130081300813,57.21544715447154 42.78455284552845,57.46951219512195 42.9369918699187,57.62195121951219 42.98780487804878,57.72357723577235 43.03861788617886,57.77439024390244 43.140243902439025,57.92682926829268 43.292682926829265,58.079268292682926 43.44512195121951,58.231707317073166 43.546747967479675,58.38414634146341 43.59756097560975,58.43495934959349 43.64837398373984,58.485772357723576 43.80081300813008,58.63821138211382 43.90243902439024,58.739837398373986 43.953252032520325,58.790650406504064 44.0040650406504,58.84146341463415 44.105691056910565,58.94308943089431 44.20731707317073,59.04471544715447 44.30894308943089,59.146341463414636" fill="none" stroke="black" stroke-width="0.6"></polyline><polyline points="44.30894308943089,59.146341463414636 44.359756097560975,59.146341463414636 44.41056910569105,59.197154471544714 44.41056910569105,59.2479674796748 44.46138211382114,59.2479674796748 44.5630081300813,59.298780487804876 44.61382113821138,59.34959349593496 44.66463414634146,59.40040650406504 44.766260162601625,59.5020325203252 44.86788617886179,59.5020325203252 44.918699186991866,59.552845528455286 44.96951219512195,59.603658536585364 44.96951219512195,59.603658536585364 45.02032520325203,59.65447154471545 45.07113821138211,59.65447154471545 45.07113821138211,59.70528455284553 45.12195121951219,59.70528455284553 45.22357723577235,59.80691056910569 45.27439024390244,59.80691056910569 45.325203252032516,59.80691056910569 45.3760162601626,59.857723577235774 45.47764227642276,59.90853658536585 45.579268292682926,59.959349593495936 45.63008130081301,59.959349593495936 45.68089430894309,60.010162601626014 45.88414634146341,60.0609756097561 45.9349593495935,60.11178861788618 45.985772357723576,60.11178861788618 46.08739837398374,60.16260162601626 46.13821138211382,60.16260162601626 46.239837398373986,60.21341463414634 46.290650406504064,60.21341463414634 46.44308943089431,60.3150406504065 46.49390243902439,60.3150406504065 46.59552845528455,60.36585365853659 46.697154471544714,60.416666666666664 46.7479674796748,60.416666666666664 46.84959349593496,60.46747967479675 46.951219512195124,60.51829268292683 47.103658536585364,60.56910569105691 47.15447154471545,60.61991869918699 47.20528455284553,60.61991869918699 47.30691056910569,60.670731707317074 47.357723577235774,60.670731707317074 47.459349593495936,60.72154471544715 47.5609756097561,60.72154471544715 47.71341463414634,60.77235772357724 47.8150406504065,60.823170731707314 47.86585365853659,60.823170731707314 47.916666666666664,60.823170731707314 47.96747967479675,60.823170731707314" fill="none" stroke="black" stroke-width="0.6"></polyline><polyline points="47.96747967479675,60.823170731707314 48.06910569105691,60.8739837398374 48.170731707317074,60.92479674796748 48.27235772357724,60.97560975609756 48.3739837398374,60.97560975609756 48.42479674796748,60.97560975609756 48.52642276422764,61.02642276422764 48.577235772357724,61.02642276422764 48.6280487804878,61.077235772357724 48.67886178861789,61.077235772357724 48.78048780487805,61.1280487804878 48.88211382113821,61.1280487804878 49.03455284552845,61.17886178861789 49.08536585365854,61.17886178861789 49.136178861788615,61.229674796747965 49.1869918699187,61.229674796747965 49.23780487804878,61.229674796747965 49.33943089430894,61.229674796747965 49.4410569105691,61.28048780487805 49.49186991869919,61.28048780487805 49.542682926829265,61.28048780487805 49.69512195121951,61.28048780487805 49.74593495934959,61.28048780487805 49.84756097560975,61.28048780487805 49.89837398373984,61.28048780487805 49.949186991869915,61.28048780487805 50.05081300813008,61.33130081300813 50.15243902439024,61.33130081300813 50.203252032520325,61.33130081300813 50.30487804878049,61.33130081300813 50.355691056910565,61.33130081300813 50.40650406504065,61.33130081300813 50.50813008130081,61.33130081300813 50.55894308943089,61.33130081300813 50.609756097560975,61.33130081300813 50.71138211382114,61.33130081300813 50.762195121951216,61.33130081300813 50.762195121951216,61.33130081300813 50.91463414634146,61.33130081300813 50.96544715447154,61.33130081300813 51.016260162601625,61.33130081300813 51.0670731707317,61.33130081300813 51.11788617886179,61.33130081300813 51.21951219512195,61.33130081300813 51.32113821138211,61.33130081300813 51.37195121951219,61.33130081300813 51.47357723577235,61.33130081300813 51.52439024390244,61.33130081300813 51.575203252032516,61.33130081300813 51.6260162601626,61.33130081300813 51.72764227642276,61.28048780487805" fill="none" stroke="black" stroke-width="0.6"></polyline><polyline points="51.72764227642276,61.28048780487805 51.880081300813,61.28048780487805 51.880081300813,61.28048780487805 51.981707317073166,61.229674796747965 52.03252032520325,61.229674796747965 52.083333333333336,61.229674796747965 52.1849593495935,61.17886178861789 52.28658536585366,61.1280487804878 52.38821138211382,61.1280487804878 52.59146341463415,61.077235772357724 52.642276422764226,61.02642276422764 52.74390243902439,61.02642276422764 52.84552845528455,60.97560975609756 52.9979674796748,60.92479674796748 53.09959349593496,60.92479674796748 53.302845528455286,60.823170731707314 53.353658536585364,60.823170731707314 53.40447154471545,60.823170731707314 53.50609756097561,60.77235772357724 53.709349593495936,60.72154471544715 53.86178861788618,60.670731707317074 54.0650406504065,60.61991869918699 54.166666666666664,60.56910569105691 54.21747967479675,60.56910569105691 54.31910569105691,60.51829268292683 54.36991869918699,60.51829268292683 54.52235772357724,60.46747967479675 54.6239837398374,60.416666666666664 54.77642276422764,60.36585365853659 54.92886178861789,60.3150406504065 55.03048780487805,60.3150406504065 55.13211382113821,60.264227642276424 55.28455284552845,60.21341463414634 55.386178861788615,60.16260162601626 55.53861788617886,60.11178861788618 55.6910569105691,60.010162601626014 55.89430894308943,59.959349593495936 55.99593495934959,59.90853658536585 56.09756097560975,59.857723577235774 56.14837398373984,59.80691056910569 56.25,59.75609756097561 56.30081300813008,59.70528455284553 56.35162601626016,59.70528455284553 56.40243902439024,59.65447154471545 56.453252032520325,59.603658536585364 56.5040650406504,59.552845528455286 56.55487804878049,59.5020325203252 56.605691056910565,59.451219512195124 56.605691056910565,59.40040650406504 56.65650406504065,59.40040650406504 56.70731707317073,59.34959349593496" fill="none" stroke="black" stroke-width="0.6"></polyline><polyline points="56.70731707317073,59.34959349593496 56.70731707317073,59.34959349593496 56.75813008130081,59.298780487804876 56.80894308943089,59.2479674796748 56.859756097560975,59.197154471544714 56.96138211382114,59.146341463414636 57.0630081300813,59.09552845528455 57.0630081300813,59.04471544715447 57.16463414634146,58.99390243902439 57.21544715447154,58.99390243902439 57.266260162601625,58.94308943089431 57.3170731707317,58.892276422764226 57.36788617886179,58.84146341463415 57.418699186991866,58.790650406504064 57.52032520325203,58.739837398373986 57.62195121951219,58.63821138211382 57.62195121951219,58.63821138211382 57.72357723577235,58.536585365853654 57.72357723577235,58.536585365853654 57.77439024390244,58.485772357723576 57.77439024390244,58.485772357723576 57.825203252032516,58.43495934959349 57.8760162601626,58.43495934959349 57.92682926829268,58.38414634146341 57.97764227642276,58.33333333333333 58.02845528455284,58.28252032520325 58.02845528455284,58.231707317073166 58.079268292682926,58.18089430894309 58.079268292682926,58.18089430894309 58.130081300813,58.130081300813 58.18089430894309,58.079268292682926 58.231707317073166,58.079268292682926 58.28252032520325,58.02845528455284 58.28252032520325,57.97764227642276 58.33333333333333,57.92682926829268 58.38414634146341,57.92682926829268 58.43495934959349,57.8760162601626 58.43495934959349,57.8760162601626 58.485772357723576,57.825203252032516 58.536585365853654,57.77439024390244 58.536585365853654,57.77439024390244 58.58739837398374,57.72357723577235 58.6890243902439,57.672764227642276 58.739837398373986,57.62195121951219 58.790650406504064,57.52032520325203 58.84146341463415,57.52032520325203 58.892276422764226,57.46951219512195 58.94308943089431,57.418699186991866 58.94308943089431,57.418699186991866 58.99390243902439,57.36788617886179 59.04471544715447,57.266260162601625" fill="none" stroke="black" stroke-width="0.6"></polyline><polyline points="59.04471544715447,57.266260162601625 59.09552845528455,57.21544715447154 59.197154471544714,57.16463414634146 59.2479674796748,57.11382113821138 59.2479674796748,57.0630081300813 59.34959349593496,57.012195121951216 59.34959349593496,57.012195121951216 59.40040650406504,56.96138211382114 59.451219512195124,56.859756097560975 59.552845528455286,56.80894308943089 59.603658536585364,56.70731707317073 59.65447154471545,56.65650406504065 59.70528455284553,56.605691056910565 59.75609756097561,56.55487804878049 59.75609756097561,56.5040650406504 59.857723577235774,56.453252032520325 59.90853658536585,56.35162601626016 59.959349593495936,56.30081300813008 60.0609756097561,56.14837398373984 60.0609756097561,56.14837398373984 60.16260162601626,56.046747967479675 60.21341463414634,55.99593495934959 60.264227642276424,55.89430894308943 60.3150406504065,55.84349593495935 60.36585365853659,55.792682926829265 60.416666666666664,55.6910569105691 60.51829268292683,55.58943089430894 60.56910569105691,55.48780487804878 60.61991869918699,55.4369918699187 60.61991869918699,55.386178861788615 60.72154471544715,55.233739837398375 60.823170731707314,55.13211382113821 60.8739837398374,55.03048780487805 60.92479674796748,54.979674796747965 60.97560975609756,54.8780487804878 61.1280487804878,54.72560975609756 61.229674796747965,54.573170731707314 61.38211382113821,54.36991869918699 61.53455284552845,54.166666666666664 61.6869918699187,53.91260162601626 61.83943089430894,53.709349593495936 62.042682926829265,53.40447154471545 62.14430894308943,53.201219512195124 62.24593495934959,53.048780487804876 62.24593495934959,52.947154471544714 62.34756097560975,52.69308943089431 62.39837398373984,52.489837398373986 62.449186991869915,52.28658536585366 62.5,52.1849593495935 62.5,51.981707317073166 62.5,51.880081300813" fill="none" stroke="black" stroke-width="0.6"></polyline><polyline points="62.5,51.880081300813 62.55081300813008,51.829268292682926 62.55081300813008,51.6260162601626 62.60162601626016,51.37195121951219 62.60162601626016,51.27032520325203 62.60162601626016,51.168699186991866 62.65243902439024,51.016260162601625 62.703252032520325,50.86382113821138 62.703252032520325,50.762195121951216 62.7540650406504,50.609756097560975 62.7540650406504,50.50813008130081 62.7540650406504,50.45731707317073 62.80487804878049,50.2540650406504 62.855691056910565,50.10162601626016 62.90650406504065,49.89837398373984 62.90650406504065,49.796747967479675 62.90650406504065,49.69512195121951 62.95731707317073,49.4410569105691 63.00813008130081,49.23780487804878 63.00813008130081,49.1869918699187 63.00813008130081,48.983739837398375 63.00813008130081,48.83130081300813 63.00813008130081,48.67886178861789 63.00813008130081,48.47560975609756 63.00813008130081,48.22154471544715 63.00813008130081,48.11991869918699 63.00813008130081,48.06910569105691 63.00813008130081,47.96747967479675 63.00813008130081,47.86585365853659 63.00813008130081,47.764227642276424 63.00813008130081,47.61178861788618 62.95731707317073,47.40853658536585 62.95731707317073,47.20528455284553 62.90650406504065,47.052845528455286 62.90650406504065,46.951219512195124 62.855691056910565,46.798780487804876 62.855691056910565,46.697154471544714 62.80487804878049,46.646341463414636 62.80487804878049,46.54471544715447 62.80487804878049,46.49390243902439 62.7540650406504,46.392276422764226 62.7540650406504,46.290650406504064 62.703252032520325,46.13821138211382 62.65243902439024,45.985772357723576 62.60162601626016,45.78252032520325 62.60162601626016,45.68089430894309 62.60162601626016,45.63008130081301 62.55081300813008,45.52845528455285 62.55081300813008,45.47764227642276 62.5,45.3760162601626 62.5,45.27439024390244" fill="none" stroke="black" stroke-width="0.6"></polyline><polyline points="62.5,45.27439024390244 62.449186991869915,45.22357723577235 62.39837398373984,44.96951219512195 62.34756097560975,44.918699186991866 62.34756097560975,44.766260162601625 62.296747967479675,44.66463414634146 62.24593495934959,44.5630081300813 62.24593495934959,44.512195121951216 62.19512195121951,44.41056910569105 62.14430894308943,44.20731707317073 62.09349593495935,44.15650406504065 62.042682926829265,44.0040650406504 62.042682926829265,43.953252032520325 61.99186991869919,43.90243902439024 61.9410569105691,43.75 61.890243902439025,43.64837398373984 61.83943089430894,43.49593495934959 61.73780487804878,43.292682926829265 61.6869918699187,43.1910569105691 61.6869918699187,43.140243902439025 61.636178861788615,43.08943089430894 61.636178861788615,43.03861788617886 61.58536585365854,42.9369918699187 61.53455284552845,42.83536585365854 61.483739837398375,42.68292682926829 61.43292682926829,42.58130081300813 61.38211382113821,42.53048780487805 61.33130081300813,42.3780487804878 61.28048780487805,42.327235772357724 61.229674796747965,42.17479674796748 61.17886178861789,42.1239837398374 61.17886178861789,42.073170731707314 61.077235772357724,41.920731707317074 61.02642276422764,41.76829268292683 60.92479674796748,41.61585365853659 60.823170731707314,41.41260162601626 60.72154471544715,41.260162601626014 60.61991869918699,41.05691056910569 60.46747967479675,40.853658536585364 60.416666666666664,40.701219512195124 60.264227642276424,40.548780487804876 60.21341463414634,40.447154471544714 60.11178861788618,40.34552845528455 59.959349593495936,40.09146341463415 59.857723577235774,39.9390243902439 59.65447154471545,39.735772357723576 59.5020325203252,39.583333333333336 59.451219512195124,39.53252032520325 59.34959349593496,39.38008130081301 59.197154471544714,39.22764227642276 59.146341463414636,39.1260162601626" fill="none" stroke="black" stroke-width="0.6"></polyline><polyline points="59.146341463414636,39.1260162601626 59.04471544715447,39.02439024390244 58.84146341463415,38.82113821138211 58.790650406504064,38.77032520325203 58.63821138211382,38.61788617886179 58.485772357723576,38.46544715447154 58.33333333333333,38.36382113821138 58.231707317073166,38.3130081300813 58.18089430894309,38.262195121951216 57.97764227642276,38.05894308943089 57.825203252032516,37.95731707317073 57.72357723577235,37.90650406504065 57.672764227642276,37.855691056910565 57.57113821138211,37.80487804878049 57.418699186991866,37.703252032520325 57.266260162601625,37.60162601626016 57.0630081300813,37.449186991869915 56.96138211382114,37.39837398373984 56.80894308943089,37.296747967479675 56.70731707317073,37.19512195121951 56.55487804878049,37.09349593495935 56.35162601626016,36.99186991869919 55.94512195121951,36.73780487804878 55.792682926829265,36.6869918699187 55.640243902439025,36.58536585365854 55.53861788617886,36.53455284552845 55.33536585365854,36.43292682926829 55.233739837398375,36.43292682926829 55.18292682926829,36.38211382113821 55.13211382113821,36.33130081300813 54.979674796747965,36.28048780487805 54.92886178861789,36.229674796747965 54.827235772357724,36.17886178861789 54.72560975609756,36.1280487804878 54.6239837398374,36.077235772357724 54.573170731707314,36.02642276422764 54.47154471544715,35.97560975609756 54.31910569105691,35.92479674796748 54.166666666666664,35.823170731707314 53.96341463414634,35.72154471544715 53.91260162601626,35.670731707317074 53.86178861788618,35.670731707317074 53.65853658536585,35.56910569105691 53.50609756097561,35.51829268292683 53.353658536585364,35.46747967479675 53.2520325203252,35.416666666666664 53.15040650406504,35.416666666666664 53.048780487804876,35.36585365853659 52.84552845528455,35.3150406504065 52.69308943089431,35.264227642276424 52.489837398373986,35.21341463414634" fill="none" stroke="black" stroke-width="0.6"></polyline><polyline points="52.489837398373986,35.21341463414634 52.4390243902439,35.16260162601626 52.28658536585366,35.11178861788618 52.1849593495935,35.11178861788618 52.03252032520325,35.0609756097561 51.829268292682926,35.010162601626014 51.77845528455284,35.010162601626014 51.6260162601626,34.959349593495936 51.47357723577235,34.959349593495936 51.32113821138211,34.90853658536585 51.0670731707317,34.857723577235774 50.91463414634146,34.857723577235774 50.8130081300813,34.857723577235774 50.609756097560975,34.80691056910569 50.30487804878049,34.75609756097561 50.10162601626016,34.75609756097561 49.949186991869915,34.75609756097561 49.542682926829265,34.75609756097561 49.390243902439025,34.70528455284553 49.28861788617886,34.70528455284553 49.08536585365854,34.70528455284553 48.88211382113821,34.70528455284553 48.52642276422764,34.70528455284553 48.47560975609756,34.65447154471545 48.3739837398374,34.65447154471545 48.27235772357724,34.65447154471545 48.11991869918699,34.65447154471545 48.01829268292683,34.65447154471545 47.8150406504065,34.65447154471545 47.71341463414634,34.65447154471545 47.61178861788618,34.65447154471545 47.510162601626014,34.65447154471545 47.30691056910569,34.65447154471545 47.20528455284553,34.65447154471545 47.103658536585364,34.65447154471545 47.0020325203252,34.65447154471545 46.798780487804876,34.65447154471545 46.54471544715447,34.65447154471545 46.34146341463415,34.65447154471545 46.239837398373986,34.65447154471545 46.03658536585366,34.65447154471545 45.833333333333336,34.65447154471545 45.52845528455285,34.70528455284553 45.47764227642276,34.70528455284553 45.3760162601626,34.75609756097561 45.22357723577235,34.75609756097561 45.02032520325203,34.80691056910569 44.918699186991866,34.857723577235774 44.766260162601625,34.857723577235774 44.512195121951216,34.959349593495936 44.359756097560975,35.010162601626014" fill="none" stroke="black" stroke-width="0.6"></polyline><polyline points="44.359756097560975,35.010162601626014 44.25813008130081,35.0609756097561 44.0040650406504,35.16260162601626 43.75,35.264227642276424 43.44512195121951,35.36585365853659 43.34349593495935,35.416666666666664 43.24186991869919,35.46747967479675 43.140243902439025,35.51829268292683 43.03861788617886,35.56910569105691 42.78455284552845,35.61991869918699 42.53048780487805,35.77235772357724 42.42886178861789,35.823170731707314 42.327235772357724,35.8739837398374 42.22560975609756,35.92479674796748 41.97154471544715,36.077235772357724 41.666666666666664,36.229674796747965 41.41260162601626,36.33130081300813 41.15853658536585,36.483739837398375 40.853658536585364,36.636178861788615 40.59959349593496,36.83943089430894 40.24390243902439,37.042682926829265 40.040650406504064,37.14430894308943 39.83739837398374,37.296747967479675 39.48170731707317,37.5 39.22764227642276,37.65243902439024 38.97357723577235,37.855691056910565 38.87195121951219,37.95731707317073 38.71951219512195,38.00813008130081 38.46544715447154,38.21138211382114 38.16056910569105,38.36382113821138 37.90650406504065,38.61788617886179 37.80487804878049,38.668699186991866 37.60162601626016,38.82113821138211 37.449186991869915,38.97357723577235 37.296747967479675,39.1260162601626 37.09349593495935,39.27845528455285 36.99186991869919,39.43089430894309 36.890243902439025,39.53252032520325 36.6869918699187,39.735772357723576 36.58536585365854,39.83739837398374 36.53455284552845,39.88821138211382 36.483739837398375,39.9390243902439 36.43292682926829,39.989837398373986 36.38211382113821,40.09146341463415 36.229674796747965,40.19308943089431 36.17886178861789,40.24390243902439 36.02642276422764,40.396341463414636 35.92479674796748,40.4979674796748 35.8739837398374,40.59959349593496 35.77235772357724,40.65040650406504 35.670731707317074,40.802845528455286" fill="none" stroke="black" stroke-width="0.6"></polyline><polyline points="35.670731707317074,40.802845528455286 35.51829268292683,40.95528455284553 35.416666666666664,41.05691056910569 35.3150406504065,41.209349593495936 35.21341463414634,41.36178861788618 35.16260162601626,41.41260162601626 35.11178861788618,41.46341463414634 35.010162601626014,41.61585365853659 34.90853658536585,41.76829268292683 34.857723577235774,41.86991869918699 34.857723577235774,41.920731707317074 34.80691056910569,41.97154471544715 34.75609756097561,42.073170731707314 34.70528455284553,42.22560975609756 34.603658536585364,42.327235772357724 34.552845528455286,42.479674796747965 34.451219512195124,42.63211382113821 34.451219512195124,42.68292682926829 34.40040650406504,42.78455284552845 34.34959349593496,42.9369918699187 34.298780487804876,43.03861788617886 34.197154471544714,43.1910569105691 34.197154471544714,43.24186991869919 34.146341463414636,43.34349593495935 34.09552845528455,43.44512195121951 34.04471544715447,43.59756097560975 33.99390243902439,43.80081300813008 33.94308943089431,43.85162601626016 33.892276422764226,44.0040650406504 33.84146341463415,44.105691056910565 33.790650406504064,44.30894308943089 33.6890243902439,44.5630081300813 33.63821138211382,44.66463414634146 33.63821138211382,44.766260162601625 33.53658536585366,45.07113821138211 33.4349593495935,45.27439024390244 33.38414634146341,45.47764227642276 33.333333333333336,45.68089430894309 33.28252032520325,45.88414634146341 33.18089430894309,46.13821138211382 33.13008130081301,46.34146341463415 33.13008130081301,46.44308943089431 33.079268292682926,46.54471544715447 33.079268292682926,46.7479674796748 33.02845528455285,46.798780487804876 33.02845528455285,46.90040650406504 32.97764227642276,47.0020325203252 32.97764227642276,47.103658536585364 32.926829268292686,47.20528455284553 32.926829268292686,47.25609756097561 32.8760162601626,47.459349593495936" fill="none" stroke="black" stroke-width="0.6"></polyline><polyline points="32.8760162601626,47.459349593495936 32.8760162601626,47.510162601626014 32.8760162601626,47.61178861788618 32.82520325203252,47.86585365853659 32.82520325203252,48.06910569105691 32.82520325203252,48.170731707317074 32.77439024390244,48.323170731707314 32.77439024390244,48.42479674796748 32.77439024390244,48.52642276422764 32.77439024390244,48.577235772357724 32.77439024390244,48.67886178861789 32.77439024390244,48.83130081300813 32.77439024390244,48.93292682926829 32.77439024390244,48.983739837398375 32.77439024390244,49.08536585365854 32.77439024390244,49.23780487804878 32.77439024390244,49.33943089430894 32.77439024390244,49.59349593495935 32.77439024390244,49.84756097560975 32.77439024390244,50 32.77439024390244,50.10162601626016 32.77439024390244,50.30487804878049 32.77439024390244,50.609756097560975 32.77439024390244,50.86382113821138 32.82520325203252,50.96544715447154 32.82520325203252,51.11788617886179 32.82520325203252,51.21951219512195 32.82520325203252,51.37195121951219 32.82520325203252,51.422764227642276 32.82520325203252,51.6260162601626 32.82520325203252,51.72764227642276 32.8760162601626,51.93089430894309 32.8760162601626,52.03252032520325 32.926829268292686,52.1849593495935 32.926829268292686,52.38821138211382 32.97764227642276,52.642276422764226 33.02845528455285,52.79471544715447 33.079268292682926,52.9979674796748 33.079268292682926,53.048780487804876 33.13008130081301,53.201219512195124 33.13008130081301,53.2520325203252 33.18089430894309,53.353658536585364 33.18089430894309,53.40447154471545 33.28252032520325,53.607723577235774 33.28252032520325,53.709349593495936 33.333333333333336,53.760162601626014 33.333333333333336,53.8109756097561 33.38414634146341,53.96341463414634 33.4349593495935,54.014227642276424 33.4349593495935,54.11585365853659 33.485772357723576,54.166666666666664" fill="none" stroke="black" stroke-width="0.6"></polyline><polyline points="33.485772357723576,54.166666666666664 33.53658536585366,54.26829268292683 33.58739837398374,54.420731707317074 33.58739837398374,54.47154471544715 33.63821138211382,54.573170731707314 33.63821138211382,54.6239837398374 33.6890243902439,54.67479674796748 33.6890243902439,54.77642276422764 33.739837398373986,54.92886178861789 33.790650406504064,54.979674796747965 33.84146341463415,55.08130081300813 33.84146341463415,55.18292682926829 33.84146341463415,55.233739837398375 33.892276422764226,55.28455284552845 33.94308943089431,55.386178861788615 33.99390243902439,55.53861788617886 33.99390243902439,55.58943089430894 34.04471544715447,55.74186991869919 34.09552845528455,55.89430894308943 34.146341463414636,55.99593495934959 34.197154471544714,56.14837398373984 34.197154471544714,56.199186991869915 34.2479674796748,56.25 34.2479674796748,56.30081300813008 34.298780487804876,56.453252032520325 34.34959349593496,56.605691056910565 34.451219512195124,56.859756097560975 34.5020325203252,56.96138211382114 34.5020325203252,57.012195121951216 34.552845528455286,57.0630081300813 34.603658536585364,57.21544715447154 34.65447154471545,57.3170731707317 34.70528455284553,57.46951219512195 34.80691056910569,57.672764227642276 34.857723577235774,57.77439024390244 34.857723577235774,57.825203252032516 34.90853658536585,57.92682926829268 34.959349593495936,58.079268292682926 35.010162601626014,58.130081300813 35.010162601626014,58.231707317073166 35.0609756097561,58.28252032520325 35.11178861788618,58.33333333333333 35.11178861788618,58.43495934959349 35.16260162601626,58.58739837398374 35.21341463414634,58.63821138211382 35.264227642276424,58.790650406504064 35.3150406504065,58.892276422764226 35.36585365853659,59.04471544715447 35.46747967479675,59.197154471544714 35.51829268292683,59.298780487804876 35.56910569105691,59.40040650406504" fill="none" stroke="black" stroke-width="0.6"></polyline><polyline points="35.56910569105691,59.40040650406504 35.61991869918699,59.5020325203252 35.670731707317074,59.603658536585364 35.72154471544715,59.65447154471545 35.72154471544715,59.75609756097561 35.77235772357724,59.80691056910569 35.8739837398374,59.90853658536585 35.97560975609756,60.0609756097561 35.97560975609756,60.11178861788618 36.02642276422764,60.21341463414634 36.077235772357724,60.264227642276424 36.1280487804878,60.36585365853659 36.229674796747965,60.46747967479675 36.28048780487805,60.51829268292683 36.33130081300813,60.56910569105691 36.38211382113821,60.670731707317074 36.38211382113821,60.72154471544715 36.43292682926829,60.77235772357724 36.483739837398375,60.823170731707314 36.58536585365854,60.92479674796748 36.6869918699187,61.1280487804878 36.73780487804878,61.17886178861789 36.78861788617886,61.229674796747965 36.890243902439025,61.38211382113821 36.99186991869919,61.483739837398375 37.09349593495935,61.58536585365854 37.14430894308943,61.636178861788615 37.24593495934959,61.73780487804878 37.296747967479675,61.78861788617886 37.39837398373984,61.890243902439025 37.5,61.99186991869919 37.55081300813008,62.09349593495935 37.60162601626016,62.09349593495935 37.65243902439024,62.19512195121951 37.7540650406504,62.24593495934959 37.855691056910565,62.34756097560975 37.90650406504065,62.39837398373984 37.95731707317073,62.449186991869915 37.95731707317073,62.5 38.05894308943089,62.55081300813008 38.109756097560975,62.65243902439024 38.21138211382114,62.703252032520325 38.262195121951216,62.7540650406504 38.3130081300813,62.80487804878049 38.36382113821138,62.855691056910565 38.46544715447154,62.95731707317073 38.61788617886179,63.109756097560975 38.71951219512195,63.21138211382114 38.77032520325203,63.262195121951216 38.87195121951219,63.36382113821138 38.97357723577235,63.46544715447154" fill="none" stroke="black" stroke-width="0.6"></polyline><polyline points="38.97357723577235,63.46544715447154 39.02439024390244,63.516260162601625 39.1260162601626,63.61788617886179 39.176829268292686,63.668699186991866 39.27845528455285,63.71951219512195 39.43089430894309,63.87195121951219 39.53252032520325,63.97357723577235 39.63414634146341,64.07520325203252 39.78658536585366,64.17682926829268 39.83739837398374,64.17682926829268 39.88821138211382,64.22764227642276 39.9390243902439,64.27845528455285 39.989837398373986,64.32926829268293 40.09146341463415,64.43089430894308 40.142276422764226,64.48170731707317 40.19308943089431,64.53252032520325 40.34552845528455,64.6341463414634 40.396341463414636,64.6849593495935 40.447154471544714,64.73577235772358 40.4979674796748,64.73577235772358 40.59959349593496,64.83739837398373 40.65040650406504,64.83739837398373 40.701219512195124,64.88821138211382 40.802845528455286,64.9390243902439 40.853658536585364,64.98983739837398 40.95528455284553,65.04065040650406 41.05691056910569,65.09146341463415 41.15853658536585,65.14227642276423 41.209349593495936,65.14227642276423 41.260162601626014,65.1930894308943 41.3109756097561,65.1930894308943 41.41260162601626,65.29471544715447 41.5650406504065,65.34552845528455 41.61585365853659,65.34552845528455 41.666666666666664,65.39634146341463 41.71747967479675,65.44715447154472 41.81910569105691,65.4979674796748 41.920731707317074,65.54878048780488 41.97154471544715,65.54878048780488 42.02235772357724,65.59959349593495 42.073170731707314,65.65040650406505 42.1239837398374,65.65040650406505 42.17479674796748,65.70121951219512 42.22560975609756,65.7520325203252 42.327235772357724,65.80284552845528 42.3780487804878,65.85365853658537 42.53048780487805,65.90447154471545 42.58130081300813,65.95528455284553 42.63211382113821,66.0060975609756 42.68292682926829,66.0060975609756 42.68292682926829,66.0060975609756" fill="none" stroke="black" stroke-width="0.6"></polyline><polyline points="42.68292682926829,66.0060975609756 42.733739837398375,66.0569105691057 42.78455284552845,66.0569105691057 42.886178861788615,66.15853658536585 42.9369918699187,66.15853658536585 42.98780487804878,66.20934959349593 43.03861788617886,66.20934959349593 43.08943089430894,66.26016260162602 43.140243902439025,66.3109756097561 43.24186991869919,66.36178861788618 43.292682926829265,66.36178861788618 43.39430894308943,66.41260162601625 43.49593495934959,66.46341463414635 43.59756097560975,66.51422764227642 43.64837398373984,66.5650406504065 43.699186991869915,66.5650406504065 43.75,66.61585365853658 43.85162601626016,66.66666666666667 43.90243902439024,66.66666666666667 43.953252032520325,66.71747967479675 44.05487804878049,66.76829268292683 44.20731707317073,66.8191056910569 44.359756097560975,66.869918699187 44.41056910569105,66.92073170731707 44.512195121951216,66.92073170731707 44.61382113821138,66.97154471544715 44.71544715447154,67.02235772357723 44.766260162601625,67.07317073170732 44.86788617886179,67.07317073170732 44.918699186991866,67.1239837398374 45.02032520325203,67.17479674796748 45.12195121951219,67.17479674796748 45.22357723577235,67.22560975609755 45.3760162601626,67.27642276422765 45.579268292682926,67.3780487804878 45.63008130081301,67.3780487804878 45.68089430894309,67.42886178861788 45.78252032520325,67.42886178861788 45.88414634146341,67.47967479674797 46.03658536585366,67.53048780487805 46.08739837398374,67.53048780487805 46.1890243902439,67.58130081300813 46.239837398373986,67.58130081300813 46.392276422764226,67.6321138211382 46.54471544715447,67.6829268292683 46.646341463414636,67.73373983739837 46.90040650406504,67.78455284552845 46.951219512195124,67.78455284552845 47.103658536585364,67.83536585365853 47.25609756097561,67.88617886178862 47.40853658536585,67.88617886178862" fill="none" stroke="black" stroke-width="0.6"></polyline><polyline points="47.40853658536585,67.88617886178862 47.5609756097561,67.9369918699187 47.71341463414634,67.98780487804878 47.764227642276424,67.98780487804878 47.86585365853659,67.98780487804878 47.96747967479675,68.03861788617886 48.06910569105691,68.03861788617886 48.11991869918699,68.03861788617886 48.27235772357724,68.08943089430895 48.323170731707314,68.08943089430895 48.3739837398374,68.08943089430895 48.577235772357724,68.14024390243902 48.729674796747965,68.14024390243902 48.78048780487805,68.1910569105691 48.93292682926829,68.1910569105691 48.983739837398375,68.1910569105691 49.08536585365854,68.1910569105691 49.23780487804878,68.24186991869918 49.390243902439025,68.24186991869918 49.542682926829265,68.24186991869918 49.796747967479675,68.24186991869918 49.949186991869915,68.29268292682927 50,68.29268292682927 50.10162601626016,68.29268292682927 50.203252032520325,68.29268292682927 50.2540650406504,68.29268292682927 50.355691056910565,68.29268292682927 50.609756097560975,68.29268292682927 50.762195121951216,68.29268292682927 50.96544715447154,68.29268292682927 51.11788617886179,68.29268292682927 51.32113821138211,68.29268292682927 51.47357723577235,68.29268292682927 51.67682926829268,68.29268292682927 51.829268292682926,68.29268292682927 52.03252032520325,68.29268292682927 52.1849593495935,68.29268292682927 52.28658536585366,68.29268292682927 52.33739837398374,68.29268292682927 52.489837398373986,68.29268292682927 52.642276422764226,68.29268292682927 52.74390243902439,68.29268292682927 52.947154471544714,68.24186991869918 53.15040650406504,68.24186991869918 53.353658536585364,68.24186991869918 53.607723577235774,68.1910569105691 53.8109756097561,68.1910569105691 54.014227642276424,68.14024390243902 54.21747967479675,68.14024390243902 54.420731707317074,68.08943089430895 54.6239837398374,68.03861788617886" fill="none" stroke="black" stroke-width="0.6"></polyline><polyline points="54.6239837398374,68.03861788617886 54.8780487804878,68.03861788617886 55.08130081300813,67.98780487804878 55.233739837398375,67.9369918699187 55.4369918699187,67.9369918699187 55.640243902439025,67.88617886178862 55.792682926829265,67.83536585365853 55.94512195121951,67.78455284552845 56.09756097560975,67.73373983739837 56.25,67.6829268292683 56.40243902439024,67.6321138211382 56.5040650406504,67.58130081300813 56.65650406504065,67.53048780487805 56.80894308943089,67.47967479674797 56.91056910569105,67.42886178861788 57.0630081300813,67.3780487804878 57.21544715447154,67.32723577235772 57.3170731707317,67.27642276422765 57.46951219512195,67.22560975609755 57.62195121951219,67.17479674796748 57.72357723577235,67.1239837398374 57.8760162601626,67.07317073170732 58.02845528455284,67.02235772357723 58.130081300813,66.97154471544715 58.28252032520325,66.869918699187 58.485772357723576,66.8191056910569 58.58739837398374,66.71747967479675 58.739837398373986,66.66666666666667 58.892276422764226,66.61585365853658 58.99390243902439,66.5650406504065 59.09552845528455,66.51422764227642 59.2479674796748,66.41260162601625 59.40040650406504,66.36178861788618 59.5020325203252,66.3109756097561 59.65447154471545,66.26016260162602 59.75609756097561,66.20934959349593 59.857723577235774,66.10772357723577 59.959349593495936,66.0569105691057 60.0609756097561,66.0060975609756 60.11178861788618,65.95528455284553 60.21341463414634,65.85365853658537 60.3150406504065,65.80284552845528 60.416666666666664,65.7520325203252 60.51829268292683,65.65040650406505 60.61991869918699,65.59959349593495 60.670731707317074,65.54878048780488 60.77235772357724,65.44715447154472 60.8739837398374,65.39634146341463 60.97560975609756,65.29471544715447 61.077235772357724,65.1930894308943 61.17886178861789,65.14227642276423" fill="none" stroke="black" stroke-width="0.6"></polyline><polyline points="61.17886178861789,65.14227642276423 61.28048780487805,65.04065040650406 61.38211382113821,64.9390243902439 61.483739837398375,64.88821138211382 61.58536585365854,64.83739837398373 61.6869918699187,64.73577235772358 61.78861788617886,64.6849593495935 61.890243902439025,64.58333333333333 61.99186991869919,64.48170731707317 62.09349593495935,64.43089430894308 62.19512195121951,64.32926829268293 62.296747967479675,64.27845528455285 62.39837398373984,64.17682926829268 62.5,64.1260162601626 62.60162601626016,64.02439024390243 62.65243902439024,63.97357723577235 62.7540650406504,63.87195121951219 62.855691056910565,63.82113821138211 62.95731707317073,63.71951219512195 63.05894308943089,63.61788617886179 63.16056910569105,63.516260162601625 63.3130081300813,63.41463414634146 63.41463414634146,63.3130081300813 63.516260162601625,63.16056910569105 63.668699186991866,63.05894308943089 63.77032520325203,62.95731707317073 63.87195121951219,62.80487804878049 64.02439024390243,62.703252032520325 64.1260162601626,62.55081300813008 64.27845528455285,62.449186991869915 64.43089430894308,62.296747967479675 64.58333333333333,62.14430894308943 64.6849593495935,61.99186991869919 64.83739837398373,61.83943089430894 64.98983739837398,61.6869918699187 65.14227642276423,61.53455284552845 65.29471544715447,61.33130081300813 65.4979674796748,61.17886178861789 65.65040650406505,61.02642276422764 65.7520325203252,60.823170731707314 65.90447154471545,60.670731707317074 66.0060975609756,60.51829268292683 66.0569105691057,60.416666666666664 66.15853658536585,60.264227642276424 66.20934959349593,60.11178861788618 66.26016260162602,60.010162601626014 66.3109756097561,59.90853658536585 66.41260162601625,59.75609756097561 66.46341463414635,59.65447154471545 66.51422764227642,59.552845528455286 66.61585365853658,59.40040650406504" fill="none" stroke="black" stroke-width="0.6"></polyline><polyline points="66.61585365853658,59.40040650406504 66.66666666666667,59.298780487804876 66.76829268292683,59.146341463414636 66.869918699187,58.99390243902439 66.97154471544715,58.84146341463415 67.07317073170732,58.6890243902439 67.1239837398374,58.536585365853654 67.22560975609755,58.38414634146341 67.32723577235772,58.231707317073166 67.42886178861788,58.079268292682926 67.47967479674797,57.92682926829268 67.53048780487805,57.77439024390244 67.6321138211382,57.672764227642276 67.6829268292683,57.52032520325203 67.73373983739837,57.36788617886179 67.78455284552845,57.21544715447154 67.88617886178862,57.0630081300813 67.9369918699187,56.91056910569105 67.98780487804878,56.75813008130081 68.08943089430895,56.55487804878049 68.14024390243902,56.40243902439024 68.1910569105691,56.199186991869915 68.29268292682927,56.046747967479675 68.34349593495935,55.84349593495935 68.39430894308943,55.6910569105691 68.4959349593496,55.53861788617886 68.54674796747967,55.386178861788615 68.59756097560975,55.18292682926829 68.64837398373983,55.03048780487805 68.75,54.827235772357724 68.80081300813008,54.67479674796748 68.85162601626016,54.47154471544715 68.90243902439025,54.26829268292683 69.0040650406504,54.0650406504065 69.05487804878048,53.8109756097561 69.10569105691057,53.65853658536585 69.15650406504065,53.45528455284553 69.2581300813008,53.2520325203252 69.2581300813008,53.048780487804876 69.3089430894309,52.84552845528455 69.35975609756098,52.642276422764226 69.41056910569105,52.489837398373986 69.46138211382113,52.28658536585366 69.46138211382113,52.083333333333336 69.51219512195122,51.880081300813 69.5630081300813,51.72764227642276 69.5630081300813,51.52439024390244 69.61382113821138,51.37195121951219 69.61382113821138,51.21951219512195 69.61382113821138,51.0670731707317 69.61382113821138,50.91463414634146" fill="none" stroke="black" stroke-width="0.6"></polyline><polyline points="69.61382113821138,50.91463414634146 69.66463414634146,50.762195121951216 69.66463414634146,50.609756097560975 69.66463414634146,50.45731707317073 69.71544715447155,50.30487804878049 69.71544715447155,50.10162601626016 69.71544715447155,49.949186991869915 69.71544715447155,49.796747967479675 69.71544715447155,49.59349593495935 69.76626016260163,49.4410569105691 69.76626016260163,49.28861788617886 69.76626016260163,49.08536585365854 69.76626016260163,48.93292682926829 69.8170731707317,48.78048780487805 69.8170731707317,48.577235772357724 69.8170731707317,48.3739837398374 69.8170731707317,48.22154471544715 69.8170731707317,48.01829268292683 69.86788617886178,47.8150406504065 69.86788617886178,47.61178861788618 69.86788617886178,47.40853658536585 69.86788617886178,47.20528455284553 69.86788617886178,47.052845528455286 69.86788617886178,46.84959349593496 69.86788617886178,46.646341463414636 69.86788617886178,46.44308943089431 69.86788617886178,46.239837398373986 69.86788617886178,46.03658536585366 69.86788617886178,45.833333333333336 69.86788617886178,45.579268292682926 69.86788617886178,45.3760162601626 69.8170731707317,45.172764227642276 69.8170731707317,44.96951219512195 69.8170731707317,44.766260162601625 69.76626016260163,44.5630081300813 69.71544715447155,44.359756097560975 69.71544715447155,44.20731707317073 69.66463414634146,44.0040650406504 69.61382113821138,43.85162601626016 69.61382113821138,43.64837398373984 69.5630081300813,43.49593495934959 69.51219512195122,43.292682926829265 69.46138211382113,43.140243902439025 69.41056910569105,42.98780487804878 69.35975609756098,42.78455284552845 69.3089430894309,42.63211382113821 69.2581300813008,42.53048780487805 69.2581300813008,42.3780487804878 69.20731707317073,42.22560975609756 69.15650406504065,42.073170731707314 69.10569105691057,41.97154471544715" fill="none" stroke="black" stroke-width="0.6"></polyline><polyline points="69.10569105691057,41.97154471544715 69.05487804878048,41.81910569105691 69.0040650406504,41.71747967479675 68.95325203252033,41.5650406504065 68.90243902439025,41.46341463414634 68.85162601626016,41.3109756097561 68.75,41.15853658536585 68.69918699186992,41.00609756097561 68.64837398373983,40.853658536585364 68.59756097560975,40.7520325203252 68.54674796747967,40.59959349593496 68.4451219512195,40.447154471544714 68.39430894308943,40.34552845528455 68.34349593495935,40.19308943089431 68.24186991869918,40.040650406504064 68.1910569105691,39.88821138211382 68.08943089430895,39.735772357723576 67.98780487804878,39.583333333333336 67.9369918699187,39.43089430894309 67.88617886178862,39.27845528455285 67.78455284552845,39.07520325203252 67.6829268292683,38.922764227642276 67.6321138211382,38.77032520325203 67.53048780487805,38.5670731707317 67.42886178861788,38.41463414634146 67.32723577235772,38.262195121951216 67.22560975609755,38.109756097560975 67.17479674796748,37.95731707317073 67.07317073170732,37.80487804878049 66.97154471544715,37.65243902439024 66.869918699187,37.449186991869915 66.76829268292683,37.296747967479675 66.61585365853658,37.14430894308943 66.51422764227642,36.9410569105691 66.41260162601625,36.78861788617886 66.3109756097561,36.636178861788615 66.20934959349593,36.483739837398375 66.10772357723577,36.28048780487805 65.95528455284553,36.1280487804878 65.85365853658537,35.97560975609756 65.7520325203252,35.823170731707314 65.59959349593495,35.670731707317074 65.4979674796748,35.51829268292683 65.39634146341463,35.36585365853659 65.2439024390244,35.21341463414634 65.14227642276423,35.0609756097561 64.98983739837398,34.90853658536585 64.83739837398373,34.75609756097561 64.73577235772358,34.603658536585364 64.58333333333333,34.40040650406504 64.48170731707317,34.2479674796748" fill="none" stroke="black" stroke-width="0.6"></polyline><polyline points="64.48170731707317,34.2479674796748 64.32926829268293,34.146341463414636 64.22764227642276,33.99390243902439 64.07520325203252,33.84146341463415 63.922764227642276,33.6890243902439 63.82113821138211,33.53658536585366 63.668699186991866,33.38414634146341 63.516260162601625,33.23170731707317 63.41463414634146,33.13008130081301 63.262195121951216,32.97764227642276 63.109756097560975,32.82520325203252 63.00813008130081,32.72357723577236 62.855691056910565,32.57113821138211 62.703252032520325,32.418699186991866 62.60162601626016,32.3170731707317 62.449186991869915,32.16463414634146 62.296747967479675,32.0630081300813 62.19512195121951,31.961382113821138 62.042682926829265,31.859756097560975 61.890243902439025,31.758130081300813 61.73780487804878,31.65650406504065 61.636178861788615,31.554878048780488 61.483739837398375,31.453252032520325 61.33130081300813,31.351626016260163 61.229674796747965,31.30081300813008 61.077235772357724,31.19918699186992 60.97560975609756,31.097560975609756 60.823170731707314,31.046747967479675 60.72154471544715,30.945121951219512 60.56910569105691,30.84349593495935 60.46747967479675,30.79268292682927 60.3150406504065,30.691056910569106 60.16260162601626,30.640243902439025 60.0609756097561,30.538617886178862 59.90853658536585,30.4369918699187 59.75609756097561,30.335365853658537 59.603658536585364,30.284552845528456 59.451219512195124,30.182926829268293 59.2479674796748,30.08130081300813 58.99390243902439,29.979674796747968 58.739837398373986,29.827235772357724 58.38414634146341,29.725609756097562 58.130081300813,29.6239837398374 57.8760162601626,29.522357723577237 57.57113821138211,29.471544715447155 57.3170731707317,29.369918699186993 57.012195121951216,29.217479674796746 56.605691056910565,29.0650406504065 56.30081300813008,28.96341463414634 55.99593495934959,28.861788617886177 55.640243902439025,28.709349593495933" fill="none" stroke="black" stroke-width="0.6"></polyline><polyline points="55.640243902439025,28.709349593495933 55.28455284552845,28.60772357723577 54.979674796747965,28.455284552845526 54.573170731707314,28.353658536585364 54.26829268292683,28.20121951219512 53.86178861788618,28.099593495934958 53.50609756097561,27.997967479674795 53.201219512195124,27.896341463414632 52.947154471544714,27.79471544715447 52.642276422764226,27.693089430894307 52.38821138211382,27.642276422764226 52.13414634146341,27.540650406504064 51.880081300813,27.4390243902439 51.6260162601626,27.38821138211382 51.37195121951219,27.33739837398374 51.11788617886179,27.286585365853657 50.91463414634146,27.235772357723576 50.762195121951216,27.235772357723576 50.55894308943089,27.184959349593495 50.40650406504065,27.184959349593495 50.203252032520325,27.134146341463413 50.05081300813008,27.134146341463413 49.89837398373984,27.134146341463413 49.74593495934959,27.134146341463413 49.542682926829265,27.134146341463413 49.4410569105691,27.134146341463413 49.33943089430894,27.134146341463413 49.23780487804878,27.134146341463413 49.136178861788615,27.184959349593495 49.08536585365854,27.184959349593495 48.983739837398375,27.184959349593495 48.93292682926829,27.184959349593495 48.83130081300813,27.235772357723576 48.729674796747965,27.235772357723576 48.67886178861789,27.235772357723576 48.577235772357724,27.286585365853657 48.47560975609756,27.286585365853657 48.3739837398374,27.33739837398374 48.27235772357724,27.33739837398374 48.170731707317074,27.38821138211382 48.06910569105691,27.38821138211382 47.96747967479675,27.4390243902439 47.86585365853659,27.4390243902439 47.764227642276424,27.489837398373982 47.61178861788618,27.540650406504064 47.510162601626014,27.540650406504064 47.357723577235774,27.591463414634145 47.25609756097561,27.591463414634145 47.103658536585364,27.642276422764226 46.951219512195124,27.693089430894307 46.84959349593496,27.693089430894307" fill="none" stroke="black" stroke-width="0.6"></polyline><polyline points="46.84959349593496,27.693089430894307 46.697154471544714,27.74390243902439 46.59552845528455,27.79471544715447 46.44308943089431,27.79471544715447 46.34146341463415,27.84552845528455 46.1890243902439,27.84552845528455 46.08739837398374,27.896341463414632 45.9349593495935,27.896341463414632 45.833333333333336,27.947154471544714 45.68089430894309,27.947154471544714 45.52845528455285,27.997967479674795 45.42682926829268,28.048780487804876 45.27439024390244,28.048780487804876 45.12195121951219,28.099593495934958 44.96951219512195,28.15040650406504 44.766260162601625,28.20121951219512 44.61382113821138,28.2520325203252 44.46138211382114,28.302845528455283 44.25813008130081,28.353658536585364 44.105691056910565,28.404471544715445 43.90243902439024,28.455284552845526 43.699186991869915,28.55691056910569 43.546747967479675,28.60772357723577 43.34349593495935,28.65853658536585 43.140243902439025,28.709349593495933 42.886178861788615,28.760162601626014 42.68292682926829,28.861788617886177 42.42886178861789,28.912601626016258 42.17479674796748,28.96341463414634 41.920731707317074,29.0650406504065 41.666666666666664,29.166666666666664 41.41260162601626,29.217479674796746 41.107723577235774,29.31910569105691 40.802845528455286,29.420731707317074 40.548780487804876,29.522357723577237 40.29471544715447,29.6239837398374 39.9390243902439,29.776422764227643 39.63414634146341,29.878048780487806 39.27845528455285,30.03048780487805 38.97357723577235,30.132113821138212 38.77032520325203,30.284552845528456 38.516260162601625,30.38617886178862 38.262195121951216,30.538617886178862 38.00813008130081,30.640243902439025 37.7540650406504,30.79268292682927 37.5,30.89430894308943 37.19512195121951,31.046747967479675 36.890243902439025,31.25 36.58536585365854,31.402439024390244 36.229674796747965,31.60569105691057 35.92479674796748,31.758130081300813" fill="none" stroke="black" stroke-width="0.6"></polyline><polyline points="35.92479674796748,31.758130081300813 35.56910569105691,31.961382113821138 35.264227642276424,32.11382113821138 35.010162601626014,32.3170731707317 34.75609756097561,32.46951219512195 34.552845528455286,32.6219512195122 34.34959349593496,32.82520325203252 34.146341463414636,32.97764227642276 33.99390243902439,33.13008130081301 33.84146341463415,33.23170731707317 33.739837398373986,33.38414634146341 33.58739837398374,33.485772357723576 33.485772357723576,33.58739837398374 33.38414634146341,33.739837398373986 33.23170731707317,33.84146341463415 33.13008130081301,33.94308943089431 33.02845528455285,34.09552845528455 32.8760162601626,34.197154471544714 32.72357723577236,34.40040650406504 32.6219512195122,34.552845528455286 32.46951219512195,34.70528455284553 32.3170731707317,34.90853658536585 32.16463414634146,35.0609756097561 32.0630081300813,35.264227642276424 31.910569105691057,35.416666666666664 31.758130081300813,35.61991869918699 31.60569105691057,35.823170731707314 31.453252032520325,36.02642276422764 31.30081300813008,36.229674796747965 31.148373983739837,36.38211382113821 31.046747967479675,36.58536585365854 30.89430894308943,36.73780487804878 30.79268292682927,36.9410569105691 30.691056910569106,37.14430894308943 30.589430894308943,37.296747967479675 30.4369918699187,37.5 30.335365853658537,37.703252032520325 30.233739837398375,37.855691056910565 30.08130081300813,38.05894308943089 29.979674796747968,38.262195121951216 29.878048780487806,38.46544715447154 29.725609756097562,38.71951219512195 29.573170731707318,38.922764227642276 29.471544715447155,39.176829268292686 29.31910569105691,39.48170731707317 29.115853658536583,39.735772357723576 29.01422764227642,39.989837398373986 28.861788617886177,40.24390243902439 28.709349593495933,40.4979674796748 28.60772357723577,40.7520325203252 28.455284552845526,41.00609756097561" fill="none" stroke="black" stroke-width="0.6"></polyline><polyline points="28.455284552845526,41.00609756097561 28.302845528455283,41.3109756097561 28.15040650406504,41.61585365853659 27.997967479674795,41.86991869918699 27.84552845528455,42.17479674796748 27.74390243902439,42.479674796747965 27.591463414634145,42.733739837398375 27.4390243902439,43.03861788617886 27.33739837398374,43.34349593495935 27.235772357723576,43.64837398373984 27.083333333333332,43.953252032520325 26.98170731707317,44.20731707317073 26.93089430894309,44.512195121951216 26.829268292682926,44.766260162601625 26.727642276422763,45.02032520325203 26.676829268292682,45.325203252032516 26.57520325203252,45.579268292682926 26.524390243902438,45.833333333333336 26.473577235772357,46.13821138211382 26.371951219512194,46.392276422764226 26.371951219512194,46.59552845528455 26.321138211382113,46.798780487804876 26.270325203252032,47.0020325203252 26.270325203252032,47.20528455284553 26.270325203252032,47.40853658536585 26.21951219512195,47.61178861788618 26.21951219512195,47.8150406504065 26.16869918699187,48.06910569105691 26.16869918699187,48.323170731707314 26.117886178861788,48.577235772357724 26.117886178861788,48.83130081300813 26.067073170731707,49.08536585365854 26.067073170731707,49.28861788617886 26.016260162601625,49.542682926829265 26.016260162601625,49.74593495934959 26.016260162601625,49.949186991869915 26.016260162601625,50.203252032520325 26.016260162601625,50.45731707317073 26.016260162601625,50.66056910569105 26.016260162601625,50.91463414634146 26.016260162601625,51.168699186991866 26.016260162601625,51.37195121951219 26.016260162601625,51.6260162601626 26.016260162601625,51.829268292682926 26.067073170731707,52.083333333333336 26.067073170731707,52.33739837398374 26.067073170731707,52.59146341463415 26.117886178861788,52.84552845528455 26.117886178861788,53.15040650406504 26.16869918699187,53.353658536585364 26.21951219512195,53.607723577235774" fill="none" stroke="black" stroke-width="0.6"></polyline><polyline points="26.21951219512195,53.607723577235774 26.270325203252032,53.8109756097561 26.270325203252032,54.014227642276424 26.321138211382113,54.21747967479675 26.371951219512194,54.420731707317074 26.422764227642276,54.573170731707314 26.473577235772357,54.77642276422764 26.57520325203252,54.979674796747965 26.6260162601626,55.13211382113821 26.676829268292682,55.28455284552845 26.727642276422763,55.48780487804878 26.778455284552845,55.640243902439025 26.829268292682926,55.792682926829265 26.880081300813007,55.94512195121951 26.98170731707317,56.14837398373984 27.03252032520325,56.30081300813008 27.083333333333332,56.5040650406504 27.134146341463413,56.65650406504065 27.184959349593495,56.859756097560975 27.286585365853657,57.0630081300813 27.33739837398374,57.266260162601625 27.38821138211382,57.46951219512195 27.4390243902439,57.72357723577235 27.489837398373982,57.8760162601626 27.591463414634145,58.079268292682926 27.642276422764226,58.28252032520325 27.693089430894307,58.485772357723576 27.79471544715447,58.6890243902439 27.896341463414632,58.892276422764226 27.947154471544714,59.09552845528455 28.048780487804876,59.298780487804876 28.15040650406504,59.552845528455286 28.2520325203252,59.75609756097561 28.353658536585364,59.959349593495936 28.455284552845526,60.21341463414634 28.55691056910569,60.416666666666664 28.60772357723577,60.61991869918699 28.709349593495933,60.8739837398374 28.810975609756095,61.1280487804878 28.912601626016258,61.33130081300813 29.01422764227642,61.58536585365854 29.115853658536583,61.83943089430894 29.217479674796746,62.042682926829265 29.31910569105691,62.296747967479675 29.471544715447155,62.5 29.573170731707318,62.703252032520325 29.725609756097562,62.90650406504065 29.827235772357724,63.109756097560975 29.979674796747968,63.3130081300813 30.132113821138212,63.516260162601625 30.284552845528456,63.71951219512195" fill="none" stroke="black" stroke-width="0.6"></polyline><polyline points="30.284552845528456,63.71951219512195 30.4369918699187,63.922764227642276 30.538617886178862,64.1260162601626 30.691056910569106,64.27845528455285 30.84349593495935,64.48170731707317 30.995934959349594,64.6341463414634 31.148373983739837,64.83739837398373 31.30081300813008,64.98983739837398 31.402439024390244,65.14227642276423 31.554878048780488,65.34552845528455 31.70731707317073,65.4979674796748 31.808943089430894,65.65040650406505 31.961382113821138,65.80284552845528 32.11382113821138,65.95528455284553 32.21544715447154,66.10772357723577 32.36788617886179,66.20934959349593 32.52032520325203,66.36178861788618 32.6219512195122,66.46341463414635 32.77439024390244,66.61585365853658 32.926829268292686,66.71747967479675 33.02845528455285,66.869918699187 33.13008130081301,66.97154471544715 33.28252032520325,67.07317073170732 33.38414634146341,67.17479674796748 33.485772357723576,67.27642276422765 33.58739837398374,67.42886178861788 33.6890243902439,67.53048780487805 33.790650406504064,67.6321138211382 33.892276422764226,67.73373983739837 33.99390243902439,67.83536585365853 34.09552845528455,67.9369918699187 34.197154471544714,68.03861788617886 34.298780487804876,68.14024390243902 34.34959349593496,68.1910569105691 34.451219512195124,68.29268292682927 34.552845528455286,68.34349593495935 34.603658536585364,68.4451219512195 34.70528455284553,68.4959349593496 34.80691056910569,68.59756097560975 34.857723577235774,68.64837398373983 34.959349593495936,68.75 35.0609756097561,68.80081300813008 35.11178861788618,68.85162601626016 35.21341463414634,68.95325203252033 35.3150406504065,69.0040650406504 35.36585365853659,69.10569105691057 35.46747967479675,69.15650406504065 35.56910569105691,69.2581300813008 35.670731707317074,69.35975609756098 35.77235772357724,69.41056910569105 35.8739837398374,69.51219512195122" fill="none" stroke="black" stroke-width="0.6"></polyline><polyline points="35.8739837398374,69.51219512195122 35.97560975609756,69.61382113821138 36.077235772357724,69.71544715447155 36.17886178861789,69.8170731707317 36.28048780487805,69.91869918699187 36.38211382113821,70.02032520325203 36.53455284552845,70.1219512195122 36.636178861788615,70.22357723577235 36.78861788617886,70.32520325203252 36.890243902439025,70.42682926829268 37.042682926829265,70.52845528455285 37.19512195121951,70.630081300813 37.296747967479675,70.73170731707317 37.449186991869915,70.83333333333333 37.60162601626016,70.9349593495935 37.7540650406504,71.03658536585365 37.855691056910565,71.13821138211382 38.00813008130081,71.1890243902439 38.16056910569105,71.29065040650406 38.3130081300813,71.39227642276423 38.41463414634146,71.49390243902438 38.5670731707317,71.59552845528455 38.71951219512195,71.69715447154472 38.87195121951219,71.7479674796748 38.97357723577235,71.84959349593495 39.1260162601626,71.95121951219512 39.27845528455285,72.0020325203252 39.43089430894309,72.10365853658537 39.53252032520325,72.20528455284553 39.6849593495935,72.2560975609756 39.78658536585366,72.3069105691057 39.9390243902439,72.40853658536585 40.040650406504064,72.45934959349593 40.19308943089431,72.5609756097561 40.34552845528455,72.61178861788618 40.447154471544714,72.71341463414635 40.59959349593496,72.76422764227642 40.701219512195124,72.86585365853658 40.853658536585364,72.91666666666667 40.95528455284553,72.96747967479675 41.107723577235774,73.0691056910569 41.260162601626014,73.119918699187 41.41260162601626,73.22154471544715 41.61585365853659,73.27235772357723 41.76829268292683,73.3739837398374 41.920731707317074,73.42479674796748 42.073170731707314,73.52642276422765 42.27642276422764,73.57723577235772 42.42886178861789,73.67886178861788 42.63211382113821,73.78048780487805 42.78455284552845,73.83130081300813" fill="none" stroke="black" stroke-width="0.6"></polyline><polyline points="42.78455284552845,73.83130081300813 42.98780487804878,73.9329268292683 43.1910569105691,74.03455284552845 43.34349593495935,74.08536585365853 43.546747967479675,74.1869918699187 43.75,74.23780487804878 43.90243902439024,74.33943089430895 44.105691056910565,74.39024390243902 44.30894308943089,74.49186991869918 44.512195121951216,74.54268292682927 44.71544715447154,74.59349593495935 44.918699186991866,74.64430894308943 45.12195121951219,74.6951219512195 45.325203252032516,74.7459349593496 45.52845528455285,74.79674796747967 45.73170731707317,74.84756097560975 45.88414634146341,74.89837398373983 46.08739837398374,74.94918699186992 46.290650406504064,75 46.49390243902439,75.05081300813008 46.646341463414636,75.10162601626016 46.84959349593496,75.10162601626016 47.052845528455286,75.15243902439025 47.20528455284553,75.20325203252033 47.40853658536585,75.20325203252033 47.5609756097561,75.2540650406504 47.764227642276424,75.30487804878048 47.916666666666664,75.30487804878048 48.06910569105691,75.35569105691057 48.27235772357724,75.35569105691057 48.47560975609756,75.35569105691057 48.6280487804878,75.40650406504065 48.83130081300813,75.40650406504065 48.983739837398375,75.40650406504065 49.1869918699187,75.40650406504065 49.390243902439025,75.40650406504065 49.542682926829265,75.40650406504065 49.796747967479675,75.40650406504065 50,75.45731707317073 50.203252032520325,75.45731707317073 50.40650406504065,75.45731707317073 50.66056910569105,75.45731707317073 50.86382113821138,75.45731707317073 51.11788617886179,75.45731707317073 51.32113821138211,75.45731707317073 51.52439024390244,75.45731707317073 51.77845528455284,75.45731707317073 51.981707317073166,75.45731707317073 52.1849593495935,75.40650406504065 52.4390243902439,75.40650406504065 52.642276422764226,75.40650406504065" fill="none" stroke="black" stroke-width="0.6"></polyline><polyline points="52.642276422764226,75.40650406504065 52.84552845528455,75.35569105691057 53.09959349593496,75.35569105691057 53.302845528455286,75.35569105691057 53.50609756097561,75.30487804878048 53.709349593495936,75.30487804878048 53.91260162601626,75.2540650406504 54.166666666666664,75.2540650406504 54.420731707317074,75.20325203252033 54.6239837398374,75.20325203252033 54.827235772357724,75.15243902439025 55.08130081300813,75.15243902439025 55.28455284552845,75.10162601626016 55.48780487804878,75.05081300813008 55.74186991869919,75.05081300813008 55.94512195121951,75 56.14837398373984,74.94918699186992 56.40243902439024,74.89837398373983 56.65650406504065,74.84756097560975 56.859756097560975,74.84756097560975 57.11382113821138,74.79674796747967 57.3170731707317,74.7459349593496 57.52032520325203,74.6951219512195 57.77439024390244,74.64430894308943 57.97764227642276,74.59349593495935 58.231707317073166,74.54268292682927 58.485772357723576,74.49186991869918 58.6890243902439,74.4410569105691 58.892276422764226,74.39024390243902 59.09552845528455,74.33943089430895 59.34959349593496,74.28861788617886 59.552845528455286,74.23780487804878 59.80691056910569,74.13617886178862 60.010162601626014,74.08536585365853 60.21341463414634,74.03455284552845 60.46747967479675,73.9329268292683 60.670731707317074,73.8821138211382 60.8739837398374,73.78048780487805 61.1280487804878,73.67886178861788 61.33130081300813,73.6280487804878 61.53455284552845,73.52642276422765 61.78861788617886,73.42479674796748 61.9410569105691,73.3739837398374 62.14430894308943,73.27235772357723 62.34756097560975,73.17073170731707 62.55081300813008,73.119918699187 62.7540650406504,73.01829268292683 62.95731707317073,72.91666666666667 63.16056910569105,72.8150406504065 63.36382113821138,72.71341463414635 63.5670731707317,72.61178861788618" fill="none" stroke="black" stroke-width="0.6"></polyline><polyline points="63.5670731707317,72.61178861788618 63.77032520325203,72.51016260162602 63.97357723577235,72.35772357723577 64.17682926829268,72.2560975609756 64.380081300813,72.15447154471545 64.53252032520325,72.05284552845528 64.6849593495935,71.95121951219512 64.88821138211382,71.84959349593495 65.04065040650406,71.7479674796748 65.14227642276423,71.64634146341463 65.29471544715447,71.59552845528455 65.44715447154472,71.49390243902438 65.54878048780488,71.39227642276423 65.70121951219512,71.29065040650406 65.85365853658537,71.1890243902439 65.95528455284553,71.08739837398373 66.10772357723577,70.98577235772358 66.20934959349593,70.8841463414634 66.36178861788618,70.78252032520325 66.51422764227642,70.68089430894308 66.66666666666667,70.52845528455285 66.8191056910569,70.42682926829268 66.92073170731707,70.32520325203252 67.07317073170732,70.17276422764228 67.22560975609755,70.0711382113821 67.32723577235772,69.96951219512195 67.47967479674797,69.8170731707317 67.58130081300813,69.71544715447155 67.6829268292683,69.61382113821138 67.83536585365853,69.46138211382113 67.9369918699187,69.35975609756098 68.03861788617886,69.20731707317073 68.1910569105691,69.05487804878048 68.29268292682927,68.95325203252033 68.39430894308943,68.80081300813008 68.54674796747967,68.64837398373983 68.69918699186992,68.54674796747967 68.80081300813008,68.39430894308943 68.95325203252033,68.24186991869918 69.05487804878048,68.08943089430895 69.20731707317073,67.88617886178862 69.41056910569105,67.6829268292683 69.5630081300813,67.53048780487805 69.71544715447155,67.27642276422765 69.91869918699187,67.07317073170732 70.0711382113821,66.869918699187 70.22357723577235,66.66666666666667 70.42682926829268,66.46341463414635 70.57926829268293,66.20934959349593 70.73170731707317,66.0060975609756 70.8841463414634,65.7520325203252" fill="none" stroke="black" stroke-width="0.6"></polyline><polyline points="70.8841463414634,65.7520325203252 71.03658536585365,65.54878048780488 71.23983739837398,65.29471544715447 71.4430894308943,65.04065040650406 71.59552845528455,64.73577235772358 71.79878048780488,64.48170731707317 71.95121951219512,64.22764227642276 72.15447154471545,63.97357723577235 72.3069105691057,63.71951219512195 72.51016260162602,63.46544715447154 72.66260162601625,63.21138211382114 72.8150406504065,62.95731707317073 72.96747967479675,62.65243902439024 73.119918699187,62.449186991869915 73.22154471544715,62.19512195121951 73.3739837398374,61.9410569105691 73.47560975609755,61.73780487804878 73.6280487804878,61.483739837398375 73.78048780487805,61.229674796747965 73.8821138211382,60.97560975609756 73.98373983739837,60.77235772357724 74.08536585365853,60.51829268292683 74.1869918699187,60.3150406504065 74.23780487804878,60.11178861788618 74.33943089430895,59.959349593495936 74.39024390243902,59.80691056910569 74.4410569105691,59.603658536585364 74.54268292682927,59.451219512195124 74.59349593495935,59.2479674796748 74.64430894308943,59.09552845528455 74.6951219512195,58.94308943089431 74.7459349593496,58.739837398373986 74.79674796747967,58.58739837398374 74.84756097560975,58.43495934959349 74.89837398373983,58.28252032520325 74.94918699186992,58.130081300813 75,57.97764227642276 75.05081300813008,57.8760162601626 75.05081300813008,57.77439024390244 75.10162601626016,57.672764227642276 75.15243902439025,57.57113821138211 75.15243902439025,57.418699186991866 75.20325203252033,57.3170731707317 75.20325203252033,57.266260162601625 75.2540650406504,57.11382113821138 75.2540650406504,57.012195121951216 75.30487804878048,56.91056910569105 75.35569105691057,56.80894308943089 75.35569105691057,56.70731707317073 75.40650406504065,56.605691056910565 75.40650406504065,56.453252032520325" fill="none" stroke="black" stroke-width="0.6"></polyline><polyline points="75.40650406504065,56.453252032520325 75.45731707317073,56.30081300813008 75.5081300813008,56.199186991869915 75.5081300813008,56.046747967479675 75.5589430894309,55.89430894308943 75.60975609756098,55.74186991869919 75.66056910569105,55.58943089430894 75.71138211382113,55.4369918699187 75.71138211382113,55.28455284552845 75.76219512195122,55.08130081300813 75.8130081300813,54.92886178861789 75.86382113821138,54.72560975609756 75.91463414634146,54.52235772357724 75.96544715447155,54.31910569105691 76.01626016260163,54.11585365853659 76.0670731707317,53.91260162601626 76.0670731707317,53.709349593495936 76.11788617886178,53.55691056910569 76.16869918699187,53.353658536585364 76.21951219512195,53.15040650406504 76.21951219512195,52.947154471544714 76.27032520325203,52.74390243902439 76.27032520325203,52.540650406504064 76.3211382113821,52.38821138211382 76.3211382113821,52.1849593495935 76.3719512195122,51.981707317073166 76.3719512195122,51.829268292682926 76.42276422764228,51.6260162601626 76.42276422764228,51.47357723577235 76.47357723577235,51.27032520325203 76.47357723577235,51.11788617886179 76.47357723577235,50.96544715447154 76.52439024390243,50.8130081300813 76.52439024390243,50.66056910569105 76.52439024390243,50.55894308943089 76.57520325203252,50.40650406504065 76.57520325203252,50.30487804878049 76.57520325203252,50.15243902439024 76.57520325203252,50.05081300813008 76.57520325203252,49.949186991869915 76.57520325203252,49.84756097560975 76.57520325203252,49.74593495934959 76.57520325203252,49.64430894308943 76.57520325203252,49.59349593495935 76.57520325203252,49.542682926829265 76.57520325203252,49.4410569105691 76.57520325203252,49.4410569105691 76.57520325203252,49.390243902439025 76.57520325203252,49.33943089430894 76.57520325203252,49.28861788617886 76.57520325203252,49.23780487804878" fill="none" stroke="black" stroke-width="0.6"></polyline><polyline points="76.57520325203252,49.23780487804878 76.57520325203252,49.23780487804878 76.57520325203252,49.1869918699187 76.57520325203252,49.1869918699187 76.57520325203252,49.1869918699187 76.57520325203252,49.136178861788615 76.57520325203252,49.136178861788615 76.57520325203252,49.136178861788615 76.57520325203252,49.136178861788615 76.57520325203252,49.136178861788615 76.57520325203252,49.136178861788615 76.57520325203252,49.136178861788615 76.57520325203252,49.136178861788615 76.57520325203252,49.1869918699187 76.57520325203252,49.1869918699187" fill="none" stroke="black" stroke-width="0.6"></polyline></svg>