<svg height="100" width="100" preserveAspectRatio="xMidYMid meet"><polyline points="6.758130081300813,16.05691056910569 6.758130081300813,16.05691056910569 6.758130081300813,16.05691056910569 6.758130081300813,16.05691056910569 6.758130081300813,16.05691056910569 6.758130081300813,16.05691056910569 6.758130081300813,16.05691056910569 6.758130081300813,16.05691056910569 6.758130081300813,16.05691056910569 6.758130081300813,16.05691056910569 6.758130081300813,16.05691056910569 6.758130081300813,16.05691056910569 6.758130081300813,16.05691056910569 6.758130081300813,16.05691056910569 6.758130081300813,16.05691056910569 6.758130081300813,16.05691056910569 6.758130081300813,16.05691056910569 6.808943089430894,16.05691056910569 6.808943089430894,16.05691056910569 6.808943089430894,16.05691056910569 6.808943089430894,16.05691056910569 6.9105691056910565,16.006097560975608 6.961382113821138,15.955284552845528 7.113821138211382,15.853658536585366 7.215447154471544,15.802845528455284 7.266260162601625,15.802845528455284 7.621951219512195,15.59959349593496 7.82520325203252,15.447154471544716 8.130081300813007,15.24390243902439 8.231707317073171,15.142276422764228 8.384146341463415,15.091463414634147 8.485772357723578,14.989837398373984 8.638211382113822,14.888211382113822 8.892276422764228,14.634146341463413 9.298780487804878,14.329268292682926 9.40040650406504,14.227642276422763 9.502032520325203,14.1260162601626 9.908536585365853,13.770325203252032 10.213414634146341,13.516260162601625 10.365853658536585,13.363821138211382 10.772357723577235,13.008130081300813 10.924796747967479,12.804878048780488 11.128048780487804,12.652439024390244 11.280487804878048,12.5 11.585365853658537,12.144308943089431 11.941056910569106,11.737804878048781 12.09349593495935,11.585365853658537 12.195121951219512,11.483739837398375 12.550813008130081,11.026422764227641 12.703252032520325,10.873983739837398 12.957317073170731,10.56910569105691" fill="none" stroke="black" stroke-width="0.6"></polyline><polyline points="12.957317073170731,10.56910569105691 13.160569105691057,10.213414634146341 13.465447154471544,9.80691056910569 13.516260162601625,9.705284552845528 13.66869918699187,9.451219512195122 13.770325203252032,9.34959349593496 13.821138211382113,9.247967479674797 13.871951219512194,9.146341463414634 13.973577235772357,8.94308943089431 14.024390243902438,8.841463414634147 14.07520325203252,8.58739837398374 14.1260162601626,8.485772357723578 14.227642276422763,8.333333333333334 14.227642276422763,8.18089430894309 14.329268292682926,8.028455284552845 14.430894308943088,7.774390243902439 14.53252032520325,7.520325203252033 14.53252032520325,7.41869918699187 14.583333333333332,7.266260162601625 14.583333333333332,7.164634146341463 14.634146341463413,7.0630081300813 14.684959349593496,6.808943089430894 14.735772357723578,6.453252032520325 14.735772357723578,6.046747967479675 14.735772357723578,5.7926829268292686 14.735772357723578,5.640243902439024 14.684959349593496,5.436991869918699 14.583333333333332,5.233739837398374 14.583333333333332,5.182926829268292 14.430894308943088,5.030487804878049 14.278455284552845,4.878048780487805 14.227642276422763,4.8272357723577235 14.1260162601626,4.776422764227642 14.024390243902438,4.776422764227642 13.973577235772357,4.776422764227642 13.922764227642276,4.776422764227642 13.770325203252032,4.776422764227642 13.71951219512195,4.8272357723577235 13.66869918699187,4.8272357723577235 13.617886178861788,4.878048780487805 13.465447154471544,4.979674796747967 13.363821138211382,5.08130081300813 13.3130081300813,5.132113821138211 13.211382113821138,5.233739837398374 13.008130081300813,5.436991869918699 12.90650406504065,5.589430894308943 12.855691056910569,5.691056910569106 12.652439024390244,5.945121951219512 12.5,6.300813008130081 12.398373983739837,6.605691056910569 12.296747967479675,6.808943089430894" fill="none" stroke="black" stroke-width="0.6"></polyline><polyline points="12.296747967479675,6.808943089430894 12.245934959349594,7.012195121951219 12.195121951219512,7.164634146341463 12.144308943089431,7.367886178861789 12.09349593495935,7.520325203252033 12.042682926829269,7.621951219512195 11.890243902439025,7.977642276422764 11.737804878048781,8.333333333333334 11.737804878048781,8.434959349593496 11.6869918699187,8.58739837398374 11.585365853658537,8.739837398373984 11.534552845528456,8.94308943089431 11.432926829268293,9.095528455284553 11.382113821138212,9.197154471544716 11.382113821138212,9.298780487804878 11.331300813008129,9.40040650406504 11.280487804878048,9.603658536585366 11.280487804878048,9.654471544715447 11.280487804878048,9.705284552845528 11.229674796747966,9.908536585365853 11.178861788617885,10.060975609756097 11.178861788617885,10.213414634146341 11.128048780487804,10.365853658536585 11.077235772357723,10.670731707317072 11.077235772357723,10.772357723577235 11.026422764227641,10.823170731707316 11.026422764227641,10.924796747967479 11.026422764227641,11.128048780487804 10.97560975609756,11.280487804878048 10.97560975609756,11.382113821138212 10.924796747967479,11.483739837398375 10.924796747967479,11.636178861788618 10.873983739837398,11.788617886178862 10.873983739837398,11.941056910569106 10.873983739837398,12.042682926829269 10.823170731707316,12.144308943089431 10.823170731707316,12.296747967479675 10.772357723577235,12.601626016260163 10.772357723577235,12.703252032520325 10.721544715447154,12.804878048780488 10.721544715447154,13.109756097560975 10.670731707317072,13.262195121951219 10.670731707317072,13.3130081300813 10.670731707317072,13.414634146341463 10.670731707317072,13.465447154471544 10.670731707317072,13.617886178861788 10.670731707317072,13.770325203252032 10.670731707317072,13.821138211382113 10.670731707317072,13.922764227642276 10.670731707317072,13.973577235772357 10.721544715447154,14.1260162601626" fill="none" stroke="black" stroke-width="0.6"></polyline><polyline points="10.721544715447154,14.1260162601626 10.823170731707316,14.227642276422763 10.823170731707316,14.278455284552845 10.873983739837398,14.380081300813007 10.873983739837398,14.430894308943088 10.924796747967479,14.430894308943088 10.97560975609756,14.53252032520325 11.026422764227641,14.583333333333332 11.026422764227641,14.634146341463413 11.026422764227641,14.634146341463413 11.128048780487804,14.735772357723578 11.280487804878048,14.888211382113822 11.331300813008129,14.989837398373984 11.483739837398375,15.091463414634147 11.636178861788618,15.19308943089431 11.6869918699187,15.24390243902439 11.737804878048781,15.24390243902439 11.941056910569106,15.396341463414634 12.144308943089431,15.497967479674797 12.245934959349594,15.548780487804878 12.296747967479675,15.548780487804878 12.5,15.65040650406504 12.601626016260163,15.701219512195122 12.703252032520325,15.701219512195122 12.754065040650406,15.752032520325203 12.957317073170731,15.802845528455284 13.008130081300813,15.802845528455284 13.211382113821138,15.904471544715447 13.363821138211382,15.904471544715447 13.465447154471544,15.955284552845528 13.567073170731707,15.955284552845528 13.71951219512195,16.006097560975608 13.821138211382113,16.006097560975608 14.024390243902438,16.006097560975608 14.176829268292682,16.006097560975608 14.380081300813007,16.006097560975608 14.684959349593496,16.006097560975608 14.83739837398374,16.006097560975608 14.989837398373984,15.955284552845528 15.091463414634147,15.904471544715447 15.396341463414634,15.802845528455284 15.59959349593496,15.752032520325203 15.853658536585366,15.65040650406504 16.006097560975608,15.497967479674797 16.10772357723577,15.447154471544716 16.3109756097561,15.294715447154472 16.514227642276424,15.091463414634147 16.76829268292683,14.786585365853659 16.869918699186993,14.684959349593496 16.971544715447155,14.53252032520325 17.225609756097562,14.227642276422763" fill="none" stroke="black" stroke-width="0.6"></polyline><polyline points="17.225609756097562,14.227642276422763 17.276422764227643,14.1260162601626 17.327235772357724,14.07520325203252 17.378048780487806,13.973577235772357 17.479674796747968,13.821138211382113 17.479674796747968,13.71951219512195 17.58130081300813,13.567073170731707 17.632113821138212,13.363821138211382 17.733739837398375,13.058943089430894 17.784552845528456,12.957317073170731 17.835365853658537,12.855691056910569 17.88617886178862,12.5 17.9369918699187,12.398373983739837 17.9369918699187,12.347560975609756 17.9369918699187,12.245934959349594 17.9369918699187,12.09349593495935 17.9369918699187,11.991869918699187 17.9369918699187,11.941056910569106 17.88617886178862,11.839430894308943 17.88617886178862,11.788617886178862 17.835365853658537,11.788617886178862 17.733739837398375,11.6869918699187 17.632113821138212,11.585365853658537 17.58130081300813,11.585365853658537 17.53048780487805,11.534552845528456 17.428861788617887,11.534552845528456 17.378048780487806,11.534552845528456 17.225609756097562,11.534552845528456 17.17479674796748,11.534552845528456 17.1239837398374,11.534552845528456 17.022357723577237,11.534552845528456 16.869918699186993,11.636178861788618 16.81910569105691,11.6869918699187 16.71747967479675,11.737804878048781 16.615853658536587,11.839430894308943 16.463414634146343,11.941056910569106 16.41260162601626,11.991869918699187 16.41260162601626,12.042682926829269 16.36178861788618,12.09349593495935 16.260162601626014,12.195121951219512 16.209349593495933,12.296747967479675 16.10772357723577,12.398373983739837 16.10772357723577,12.449186991869919 16.006097560975608,12.652439024390244 15.904471544715447,12.855691056910569 15.904471544715447,12.90650406504065 15.853658536585366,13.008130081300813 15.853658536585366,13.058943089430894 15.802845528455284,13.211382113821138 15.752032520325203,13.465447154471544 15.701219512195122,13.516260162601625" fill="none" stroke="black" stroke-width="0.6"></polyline><polyline points="15.701219512195122,13.516260162601625 15.701219512195122,13.617886178861788 15.65040650406504,13.770325203252032 15.65040650406504,13.922764227642276 15.59959349593496,13.973577235772357 15.59959349593496,14.024390243902438 15.59959349593496,14.07520325203252 15.59959349593496,14.1260162601626 15.59959349593496,14.227642276422763 15.59959349593496,14.278455284552845 15.59959349593496,14.329268292682926 15.59959349593496,14.380081300813007 15.59959349593496,14.48170731707317 15.59959349593496,14.583333333333332 15.59959349593496,14.634146341463413 15.59959349593496,14.684959349593496 15.59959349593496,14.735772357723578 15.65040650406504,14.83739837398374 15.65040650406504,14.939024390243903 15.701219512195122,15.040650406504065 15.701219512195122,15.091463414634147 15.752032520325203,15.142276422764228 15.752032520325203,15.19308943089431 15.802845528455284,15.294715447154472 15.853658536585366,15.345528455284553 15.853658536585366,15.396341463414634 15.904471544715447,15.447154471544716 15.904471544715447,15.497967479674797 15.955284552845528,15.497967479674797 16.006097560975608,15.59959349593496 16.10772357723577,15.65040650406504 16.15853658536585,15.701219512195122 16.209349593495933,15.752032520325203 16.3109756097561,15.802845528455284 16.3109756097561,15.802845528455284 16.36178861788618,15.853658536585366 16.41260162601626,15.853658536585366 16.463414634146343,15.904471544715447 16.514227642276424,15.904471544715447 16.565040650406505,15.955284552845528 16.615853658536587,16.006097560975608 16.666666666666668,16.006097560975608 16.76829268292683,16.05691056910569 16.869918699186993,16.10772357723577 16.971544715447155,16.15853658536585 17.1239837398374,16.209349593495933 17.17479674796748,16.209349593495933 17.378048780487806,16.3109756097561 17.428861788617887,16.3109756097561 17.53048780487805,16.3109756097561 17.632113821138212,16.36178861788618" fill="none" stroke="black" stroke-width="0.6"></polyline><polyline points="17.632113821138212,16.36178861788618 17.784552845528456,16.36178861788618 17.835365853658537,16.36178861788618 18.038617886178862,16.36178861788618 18.140243902439025,16.36178861788618 18.241869918699187,16.36178861788618 18.445121951219512,16.3109756097561 18.69918699186992,16.15853658536585 19.15650406504065,15.853658536585366 19.5630081300813,15.548780487804878 19.766260162601625,15.345528455284553 20.223577235772357,14.888211382113822 20.68089430894309,14.278455284552845 21.1890243902439,13.66869918699187 21.59552845528455,13.058943089430894 21.747967479674795,12.804878048780488 21.95121951219512,12.550813008130081 22.103658536585364,12.296747967479675 22.256097560975608,12.09349593495935 22.35772357723577,11.941056910569106" fill="none" stroke="black" stroke-width="0.6"></polyline><polyline points="6.300813008130081,35.264227642276424 6.300813008130081,35.264227642276424 6.300813008130081,35.264227642276424 6.25,35.264227642276424 6.25,35.264227642276424 6.25,35.264227642276424 6.25,35.264227642276424 6.199186991869919,35.264227642276424 6.199186991869919,35.264227642276424 6.199186991869919,35.264227642276424 6.199186991869919,35.264227642276424 6.199186991869919,35.264227642276424 6.199186991869919,35.264227642276424 6.199186991869919,35.264227642276424 6.199186991869919,35.264227642276424 6.199186991869919,35.264227642276424 6.199186991869919,35.264227642276424 6.199186991869919,35.264227642276424 6.25,35.3150406504065 6.300813008130081,35.3150406504065 6.300813008130081,35.3150406504065 6.3516260162601625,35.3150406504065 6.453252032520325,35.3150406504065 6.504065040650406,35.264227642276424 6.605691056910569,35.21341463414634 6.758130081300813,35.11178861788618 6.9105691056910565,35.010162601626014 7.012195121951219,34.959349593495936 7.113821138211382,34.90853658536585 7.215447154471544,34.80691056910569 7.41869918699187,34.65447154471545 7.6727642276422765,34.5020325203252 7.926829268292683,34.298780487804876 8.231707317073171,34.04471544715447 8.485772357723578,33.84146341463415 8.638211382113822,33.739837398373986 8.790650406504065,33.58739837398374 9.095528455284553,33.333333333333336 9.40040650406504,33.079268292682926 9.705284552845528,32.77439024390244 10.365853658536585,32.16463414634146 10.772357723577235,31.758130081300813 10.97560975609756,31.554878048780488 11.178861788617885,31.30081300813008 11.483739837398375,30.945121951219512 12.042682926829269,30.38617886178862 12.347560975609756,29.979674796747968 12.601626016260163,29.6239837398374 12.90650406504065,29.166666666666664 12.957317073170731,29.01422764227642 13.058943089430894,28.861788617886177" fill="none" stroke="black" stroke-width="0.6"></polyline><polyline points="13.058943089430894,28.861788617886177 13.211382113821138,28.55691056910569 13.465447154471544,28.048780487804876 13.617886178861788,27.693089430894307 13.770325203252032,27.286585365853657 13.871951219512194,26.98170731707317 13.922764227642276,26.880081300813007 13.973577235772357,26.57520325203252 14.024390243902438,26.422764227642276 14.07520325203252,26.16869918699187 14.07520325203252,26.016260162601625 14.07520325203252,25.86382113821138 14.07520325203252,25.76219512195122 14.1260162601626,25.40650406504065 14.1260162601626,25.254065040650406 14.1260162601626,25.101626016260163 14.176829268292682,24.59349593495935 14.176829268292682,24.491869918699187 14.176829268292682,24.288617886178862 14.176829268292682,24.1869918699187 14.1260162601626,23.983739837398375 14.1260162601626,23.932926829268293 14.1260162601626,23.83130081300813 14.024390243902438,23.729674796747968 13.973577235772357,23.729674796747968 13.871951219512194,23.628048780487806 13.770325203252032,23.577235772357724 13.71951219512195,23.577235772357724 13.66869918699187,23.577235772357724 13.66869918699187,23.577235772357724 13.567073170731707,23.577235772357724 13.414634146341463,23.628048780487806 13.363821138211382,23.678861788617887 13.262195121951219,23.78048780487805 13.160569105691057,23.882113821138212 13.109756097560975,23.983739837398375 13.008130081300813,24.034552845528456 12.855691056910569,24.23780487804878 12.804878048780488,24.288617886178862 12.652439024390244,24.54268292682927 12.449186991869919,24.847560975609756 12.347560975609756,24.94918699186992 12.245934959349594,25.152439024390244 12.195121951219512,25.254065040650406 12.144308943089431,25.35569105691057 12.09349593495935,25.45731707317073 11.991869918699187,25.711382113821138 11.839430894308943,26.117886178861788 11.788617886178862,26.21951219512195 11.737804878048781,26.371951219512194 11.6869918699187,26.524390243902438" fill="none" stroke="black" stroke-width="0.6"></polyline><polyline points="11.6869918699187,26.524390243902438 11.636178861788618,26.6260162601626 11.585365853658537,26.727642276422763 11.585365853658537,26.880081300813007 11.483739837398375,27.083333333333332 11.432926829268293,27.235772357723576 11.382113821138212,27.33739837398374 11.331300813008129,27.4390243902439 11.280487804878048,27.642276422764226 11.229674796747966,27.74390243902439 11.178861788617885,27.947154471544714 11.128048780487804,28.099593495934958 11.077235772357723,28.2520325203252 10.97560975609756,28.506097560975608 10.97560975609756,28.60772357723577 10.924796747967479,28.760162601626014 10.873983739837398,28.861788617886177 10.873983739837398,28.96341463414634 10.823170731707316,29.0650406504065 10.772357723577235,29.217479674796746 10.721544715447154,29.31910569105691 10.721544715447154,29.522357723577237 10.670731707317072,29.6239837398374 10.619918699186991,29.725609756097562 10.56910569105691,29.878048780487806 10.518292682926829,30.132113821138212 10.518292682926829,30.38617886178862 10.467479674796747,30.640243902439025 10.365853658536585,31.046747967479675 10.315040650406504,31.25 10.315040650406504,31.402439024390244 10.264227642276422,31.60569105691057 10.264227642276422,31.70731707317073 10.264227642276422,31.859756097560975 10.213414634146341,32.0630081300813 10.213414634146341,32.21544715447154 10.16260162601626,32.46951219512195 10.16260162601626,32.6219512195122 10.16260162601626,32.8760162601626 10.16260162601626,33.23170731707317 10.16260162601626,33.4349593495935 10.16260162601626,33.53658536585366 10.16260162601626,33.63821138211382 10.264227642276422,33.892276422764226 10.315040650406504,34.146341463414636 10.416666666666666,34.298780487804876 10.467479674796747,34.34959349593496 10.56910569105691,34.5020325203252 10.670731707317072,34.603658536585364 10.772357723577235,34.75609756097561 10.823170731707316,34.80691056910569" fill="none" stroke="black" stroke-width="0.6"></polyline><polyline points="10.823170731707316,34.80691056910569 10.873983739837398,34.857723577235774 11.026422764227641,35.010162601626014 11.077235772357723,35.11178861788618 11.280487804878048,35.21341463414634 11.331300813008129,35.264227642276424 11.432926829268293,35.3150406504065 11.585365853658537,35.36585365853659 11.788617886178862,35.416666666666664 11.941056910569106,35.46747967479675 12.042682926829269,35.46747967479675 12.245934959349594,35.51829268292683 12.449186991869919,35.51829268292683 12.652439024390244,35.51829268292683 13.008130081300813,35.51829268292683 13.211382113821138,35.51829268292683 13.516260162601625,35.51829268292683 13.71951219512195,35.46747967479675 13.821138211382113,35.416666666666664 13.922764227642276,35.36585365853659 14.07520325203252,35.3150406504065 14.176829268292682,35.264227642276424 14.380081300813007,35.11178861788618 14.583333333333332,34.959349593495936 14.684959349593496,34.90853658536585 14.83739837398374,34.80691056910569 15.040650406504065,34.552845528455286 15.294715447154472,34.298780487804876 15.396341463414634,34.146341463414636 15.497967479674797,33.99390243902439 15.65040650406504,33.790650406504064 15.853658536585366,33.485772357723576 16.05691056910569,33.18089430894309 16.209349593495933,32.926829268292686 16.3109756097561,32.72357723577236 16.36178861788618,32.57113821138211 16.41260162601626,32.46951219512195 16.41260162601626,32.36788617886179 16.463414634146343,32.266260162601625 16.463414634146343,32.0630081300813 16.514227642276424,31.961382113821138 16.514227642276424,31.859756097560975 16.514227642276424,31.554878048780488 16.514227642276424,31.453252032520325 16.514227642276424,31.351626016260163 16.514227642276424,31.19918699186992 16.463414634146343,31.046747967479675 16.36178861788618,30.945121951219512 16.36178861788618,30.89430894308943 16.3109756097561,30.89430894308943 16.260162601626014,30.84349593495935" fill="none" stroke="black" stroke-width="0.6"></polyline><polyline points="16.260162601626014,30.84349593495935 16.260162601626014,30.84349593495935 16.209349593495933,30.79268292682927 16.15853658536585,30.79268292682927 16.10772357723577,30.79268292682927 16.10772357723577,30.79268292682927 16.05691056910569,30.79268292682927 16.006097560975608,30.79268292682927 15.904471544715447,30.79268292682927 15.853658536585366,30.79268292682927 15.752032520325203,30.89430894308943 15.65040650406504,30.995934959349594 15.497967479674797,31.097560975609756 15.345528455284553,31.25 15.24390243902439,31.351626016260163 15.19308943089431,31.402439024390244 15.091463414634147,31.504065040650406 14.888211382113822,31.808943089430894 14.735772357723578,32.012195121951216 14.634146341463413,32.16463414634146 14.634146341463413,32.266260162601625 14.583333333333332,32.36788617886179 14.48170731707317,32.52032520325203 14.430894308943088,32.77439024390244 14.430894308943088,32.82520325203252 14.430894308943088,32.8760162601626 14.430894308943088,32.97764227642276 14.380081300813007,33.079268292682926 14.380081300813007,33.18089430894309 14.380081300813007,33.28252032520325 14.380081300813007,33.38414634146341 14.380081300813007,33.53658536585366 14.329268292682926,33.63821138211382 14.329268292682926,33.84146341463415 14.329268292682926,33.892276422764226 14.329268292682926,33.94308943089431 14.329268292682926,34.146341463414636 14.329268292682926,34.197154471544714 14.329268292682926,34.2479674796748 14.329268292682926,34.298780487804876 14.329268292682926,34.34959349593496 14.329268292682926,34.451219512195124 14.329268292682926,34.552845528455286 14.380081300813007,34.65447154471545 14.380081300813007,34.70528455284553 14.380081300813007,34.75609756097561 14.380081300813007,34.80691056910569 14.430894308943088,34.80691056910569 14.430894308943088,34.857723577235774 14.430894308943088,34.90853658536585 14.48170731707317,35.010162601626014" fill="none" stroke="black" stroke-width="0.6"></polyline><polyline points="14.48170731707317,35.010162601626014 14.53252032520325,35.0609756097561 14.583333333333332,35.16260162601626 14.684959349593496,35.21341463414634 14.684959349593496,35.264227642276424 14.786585365853659,35.3150406504065 14.83739837398374,35.416666666666664 14.939024390243903,35.46747967479675 15.091463414634147,35.56910569105691 15.142276422764228,35.56910569105691 15.24390243902439,35.61991869918699 15.294715447154472,35.670731707317074 15.396341463414634,35.72154471544715 15.497967479674797,35.77235772357724 15.701219512195122,35.8739837398374 15.752032520325203,35.8739837398374 15.853658536585366,35.92479674796748 15.904471544715447,35.92479674796748 16.006097560975608,35.92479674796748 16.209349593495933,35.97560975609756 16.41260162601626,35.97560975609756 16.565040650406505,36.02642276422764 16.869918699186993,35.97560975609756 16.971544715447155,35.92479674796748 17.276422764227643,35.823170731707314 17.428861788617887,35.72154471544715 17.58130081300813,35.670731707317074 17.88617886178862,35.416666666666664 18.29268292682927,35.11178861788618 18.75,34.75609756097561 19.5630081300813,33.94308943089431 19.766260162601625,33.63821138211382 20.020325203252032,33.38414634146341 20.426829268292682,32.82520325203252 20.579268292682926,32.52032520325203 20.78252032520325,32.21544715447154 20.934959349593495,31.961382113821138 21.1890243902439,31.402439024390244 21.290650406504064,31.148373983739837 21.392276422764226,30.945121951219512 21.54471544715447,30.691056910569106 21.697154471544714,30.335365853658537" fill="none" stroke="black" stroke-width="0.6"></polyline><polyline points="5.894308943089431,56.199186991869915 5.84349593495935,56.199186991869915 5.7926829268292686,56.199186991869915 5.7926829268292686,56.199186991869915 5.741869918699187,56.199186991869915 5.691056910569106,56.199186991869915 5.691056910569106,56.199186991869915 5.691056910569106,56.199186991869915 5.691056910569106,56.199186991869915 5.691056910569106,56.199186991869915 5.691056910569106,56.199186991869915 5.691056910569106,56.199186991869915 5.691056910569106,56.199186991869915 5.691056910569106,56.199186991869915 5.741869918699187,56.199186991869915 5.7926829268292686,56.14837398373984 5.894308943089431,56.09756097560975 6.046747967479675,56.046747967479675 6.1483739837398375,55.94512195121951 6.3516260162601625,55.84349593495935 6.453252032520325,55.74186991869919 6.554878048780488,55.640243902439025 6.7073170731707314,55.53861788617886 7.164634146341463,55.13211382113821 7.367886178861789,54.92886178861789 7.520325203252033,54.77642276422764 7.723577235772358,54.573170731707314 7.926829268292683,54.36991869918699 8.079268292682926,54.21747967479675 8.434959349593496,53.760162601626014 8.739837398373984,53.40447154471545 8.94308943089431,53.201219512195124 9.095528455284553,52.9979674796748 9.298780487804878,52.74390243902439 9.654471544715447,52.28658536585366 10.060975609756097,51.77845528455284 10.467479674796747,51.21951219512195 11.026422764227641,50.45731707317073 11.229674796747966,50.203252032520325 11.636178861788618,49.64430894308943 11.941056910569106,49.23780487804878 12.195121951219512,48.83130081300813 12.449186991869919,48.47560975609756 12.652439024390244,48.170731707317074 12.754065040650406,48.01829268292683 12.90650406504065,47.61178861788618 13.008130081300813,47.40853658536585 13.160569105691057,47.052845528455286 13.262195121951219,46.7479674796748 13.363821138211382,46.44308943089431 13.414634146341463,46.34146341463415" fill="none" stroke="black" stroke-width="0.6"></polyline><polyline points="13.414634146341463,46.34146341463415 13.414634146341463,46.239837398373986 13.465447154471544,46.03658536585366 13.465447154471544,45.88414634146341 13.465447154471544,45.73170731707317 13.363821138211382,45.52845528455285 13.3130081300813,45.42682926829268 13.262195121951219,45.3760162601626 13.160569105691057,45.12195121951219 13.008130081300813,45.02032520325203 12.90650406504065,44.918699186991866 12.855691056910569,44.918699186991866 12.804878048780488,44.918699186991866 12.652439024390244,44.86788617886179 12.5,44.86788617886179 12.296747967479675,44.918699186991866 12.195121951219512,44.918699186991866 12.09349593495935,44.96951219512195 11.737804878048781,45.172764227642276 11.483739837398375,45.3760162601626 11.280487804878048,45.63008130081301 11.026422764227641,45.88414634146341 10.873983739837398,45.985772357723576 10.721544715447154,46.13821138211382 10.518292682926829,46.44308943089431 10.315040650406504,46.697154471544714 10.16260162601626,47.0020325203252 10.111788617886178,47.15447154471545 9.959349593495935,47.510162601626014 9.80691056910569,48.06910569105691 9.705284552845528,48.52642276422764 9.654471544715447,48.67886178861789 9.552845528455284,48.983739837398375 9.502032520325203,49.23780487804878 9.40040650406504,49.542682926829265 9.298780487804878,50 9.247967479674797,50.10162601626016 9.197154471544716,50.40650406504065 9.146341463414634,50.71138211382114 9.095528455284553,50.96544715447154 9.044715447154472,51.21951219512195 8.99390243902439,51.47357723577235 8.99390243902439,51.6260162601626 8.94308943089431,51.77845528455284 8.94308943089431,51.93089430894309 8.892276422764228,52.38821138211382 8.841463414634147,52.489837398373986 8.841463414634147,52.642276422764226 8.841463414634147,52.79471544715447 8.790650406504065,53.048780487804876 8.790650406504065,53.2520325203252" fill="none" stroke="black" stroke-width="0.6"></polyline><polyline points="8.790650406504065,53.2520325203252 8.790650406504065,53.353658536585364 8.790650406504065,53.607723577235774 8.790650406504065,53.86178861788618 8.790650406504065,54.0650406504065 8.790650406504065,54.36991869918699 8.841463414634147,54.573170731707314 8.94308943089431,54.827235772357724 8.99390243902439,54.979674796747965 9.146341463414634,55.18292682926829 9.197154471544716,55.233739837398375 9.298780487804878,55.386178861788615 9.40040650406504,55.48780487804878 9.502032520325203,55.640243902439025 9.654471544715447,55.792682926829265 9.908536585365853,55.94512195121951 10.111788617886178,56.09756097560975 10.213414634146341,56.09756097560975 10.416666666666666,56.199186991869915 10.721544715447154,56.30081300813008 10.823170731707316,56.35162601626016 10.924796747967479,56.40243902439024 11.077235772357723,56.40243902439024 11.331300813008129,56.453252032520325 11.585365853658537,56.5040650406504 11.991869918699187,56.5040650406504 12.296747967479675,56.5040650406504 12.652439024390244,56.5040650406504 12.804878048780488,56.453252032520325 12.90650406504065,56.40243902439024 13.058943089430894,56.35162601626016 13.160569105691057,56.30081300813008 13.3130081300813,56.25 13.567073170731707,56.09756097560975 13.871951219512194,55.84349593495935 14.278455284552845,55.48780487804878 14.380081300813007,55.33536585365854 14.53252032520325,55.18292682926829 14.684959349593496,55.03048780487805 14.786585365853659,54.8780487804878 14.939024390243903,54.72560975609756 15.142276422764228,54.420731707317074 15.294715447154472,54.11585365853659 15.447154471544716,53.709349593495936 15.497967479674797,53.55691056910569 15.548780487804878,53.45528455284553 15.65040650406504,53.15040650406504 15.802845528455284,52.74390243902439 15.904471544715447,52.28658536585366 15.955284552845528,52.13414634146341 15.955284552845528,51.93089430894309" fill="none" stroke="black" stroke-width="0.6"></polyline><polyline points="15.955284552845528,51.93089430894309 16.006097560975608,51.77845528455284 16.006097560975608,51.67682926829268 16.006097560975608,51.52439024390244 16.006097560975608,51.47357723577235 16.006097560975608,51.422764227642276 16.006097560975608,51.27032520325203 15.955284552845528,51.21951219512195 15.904471544715447,51.168699186991866 15.802845528455284,51.0670731707317 15.701219512195122,51.0670731707317 15.65040650406504,51.0670731707317 15.65040650406504,51.0670731707317 15.59959349593496,51.0670731707317 15.548780487804878,51.0670731707317 15.447154471544716,51.168699186991866 15.396341463414634,51.168699186991866 15.345528455284553,51.21951219512195 15.19308943089431,51.422764227642276 15.091463414634147,51.575203252032516 14.989837398373984,51.72764227642276 14.939024390243903,51.829268292682926 14.888211382113822,51.880081300813 14.83739837398374,51.981707317073166 14.786585365853659,52.083333333333336 14.684959349593496,52.235772357723576 14.583333333333332,52.4390243902439 14.48170731707317,52.74390243902439 14.430894308943088,52.84552845528455 14.380081300813007,53.048780487804876 14.329268292682926,53.201219512195124 14.278455284552845,53.353658536585364 14.227642276422763,53.55691056910569 14.176829268292682,53.65853658536585 14.1260162601626,53.8109756097561 14.1260162601626,53.86178861788618 14.07520325203252,54.014227642276424 14.07520325203252,54.166666666666664 14.07520325203252,54.31910569105691 14.07520325203252,54.52235772357724 14.07520325203252,54.6239837398374 14.07520325203252,54.77642276422764 14.07520325203252,54.8780487804878 14.07520325203252,54.979674796747965 14.07520325203252,55.08130081300813 14.1260162601626,55.18292682926829 14.176829268292682,55.28455284552845 14.227642276422763,55.386178861788615 14.278455284552845,55.48780487804878 14.278455284552845,55.53861788617886 14.329268292682926,55.58943089430894" fill="none" stroke="black" stroke-width="0.6"></polyline><polyline points="14.329268292682926,55.58943089430894 14.430894308943088,55.6910569105691 14.48170731707317,55.792682926829265 14.634146341463413,55.94512195121951 14.735772357723578,56.046747967479675 14.888211382113822,56.09756097560975 15.040650406504065,56.199186991869915 15.19308943089431,56.25 15.345528455284553,56.25 15.548780487804878,56.25 15.802845528455284,56.25 16.05691056910569,56.14837398373984 16.36178861788618,55.99593495934959 16.71747967479675,55.792682926829265 17.1239837398374,55.53861788617886 17.58130081300813,55.18292682926829 18.038617886178862,54.8780487804878 18.39430894308943,54.52235772357724 18.75,54.166666666666664 19.054878048780488,53.8109756097561 19.308943089430894,53.40447154471545 19.5630081300813,52.9979674796748 19.817073170731707,52.540650406504064" fill="none" stroke="black" stroke-width="0.6"></polyline><polyline points="5.48780487804878,75.91463414634146 5.48780487804878,75.91463414634146 5.48780487804878,75.91463414634146 5.48780487804878,75.91463414634146 5.436991869918699,75.91463414634146 5.436991869918699,75.91463414634146 5.436991869918699,75.91463414634146 5.436991869918699,75.91463414634146 5.436991869918699,75.86382113821138 5.48780487804878,75.8130081300813 5.538617886178861,75.8130081300813 5.640243902439024,75.71138211382113 5.741869918699187,75.66056910569105 5.84349593495935,75.60975609756098 5.945121951219512,75.5081300813008 6.097560975609756,75.45731707317073 6.199186991869919,75.40650406504065 6.3516260162601625,75.30487804878048 6.504065040650406,75.2540650406504 6.65650406504065,75.15243902439025 6.808943089430894,75.05081300813008 6.961382113821138,74.94918699186992 7.113821138211382,74.84756097560975 7.317073170731707,74.6951219512195 7.469512195121951,74.59349593495935 7.621951219512195,74.49186991869918 7.82520325203252,74.33943089430895 7.977642276422764,74.1869918699187 8.18089430894309,74.03455284552845 8.384146341463415,73.83130081300813 8.58739837398374,73.67886178861788 8.790650406504065,73.47560975609755 8.99390243902439,73.22154471544715 9.197154471544716,72.96747967479675 9.451219512195122,72.71341463414635 9.705284552845528,72.40853658536585 9.908536585365853,72.10365853658537 10.16260162601626,71.79878048780488 10.416666666666666,71.4430894308943 10.670731707317072,71.08739837398373 10.924796747967479,70.73170731707317 11.178861788617885,70.3760162601626 11.382113821138212,70.0711382113821 11.585365853658537,69.71544715447155 11.788617886178862,69.35975609756098 11.991869918699187,69.0040650406504 12.195121951219512,68.69918699186992 12.347560975609756,68.39430894308943 12.398373983739837,68.24186991869918 12.449186991869919,68.08943089430895 12.5,67.9369918699187" fill="none" stroke="black" stroke-width="0.6"></polyline><polyline points="12.5,67.9369918699187 12.652439024390244,67.6829268292683 12.703252032520325,67.53048780487805 12.754065040650406,67.42886178861788 12.855691056910569,67.1239837398374 12.90650406504065,67.02235772357723 12.90650406504065,66.869918699187 13.008130081300813,66.61585365853658 13.008130081300813,66.46341463414635 13.058943089430894,66.20934959349593 13.160569105691057,65.90447154471545 13.160569105691057,65.65040650406505 13.211382113821138,65.39634146341463 13.262195121951219,65.14227642276423 13.262195121951219,64.9390243902439 13.262195121951219,64.73577235772358 13.262195121951219,64.58333333333333 13.211382113821138,64.43089430894308 13.160569105691057,64.32926829268293 13.109756097560975,64.27845528455285 13.058943089430894,64.22764227642276 13.008130081300813,64.17682926829268 12.90650406504065,64.1260162601626 12.855691056910569,64.1260162601626 12.804878048780488,64.07520325203252 12.754065040650406,64.07520325203252 12.703252032520325,64.07520325203252 12.652439024390244,64.07520325203252 12.601626016260163,64.1260162601626 12.5,64.17682926829268 12.398373983739837,64.32926829268293 12.296747967479675,64.43089430894308 12.195121951219512,64.58333333333333 12.042682926829269,64.78658536585365 11.941056910569106,64.9390243902439 11.788617886178862,65.14227642276423 11.6869918699187,65.34552845528455 11.585365853658537,65.54878048780488 11.483739837398375,65.7520325203252 11.382113821138212,65.95528455284553 11.331300813008129,66.15853658536585 11.229674796747966,66.36178861788618 11.178861788617885,66.61585365853658 11.077235772357723,66.8191056910569 11.026422764227641,67.02235772357723 10.97560975609756,67.27642276422765 10.924796747967479,67.42886178861788 10.873983739837398,67.6321138211382 10.823170731707316,67.83536585365853 10.772357723577235,68.03861788617886 10.721544715447154,68.1910569105691" fill="none" stroke="black" stroke-width="0.6"></polyline><polyline points="10.721544715447154,68.1910569105691 10.670731707317072,68.39430894308943 10.670731707317072,68.54674796747967 10.619918699186991,68.69918699186992 10.619918699186991,68.90243902439025 10.56910569105691,69.05487804878048 10.518292682926829,69.20731707317073 10.518292682926829,69.41056910569105 10.518292682926829,69.5630081300813 10.467479674796747,69.71544715447155 10.467479674796747,69.91869918699187 10.416666666666666,70.0711382113821 10.416666666666666,70.22357723577235 10.416666666666666,70.3760162601626 10.365853658536585,70.47764227642276 10.365853658536585,70.630081300813 10.315040650406504,70.78252032520325 10.315040650406504,70.9349593495935 10.315040650406504,71.08739837398373 10.264227642276422,71.23983739837398 10.264227642276422,71.39227642276423 10.264227642276422,71.49390243902438 10.213414634146341,71.64634146341463 10.213414634146341,71.7479674796748 10.213414634146341,71.84959349593495 10.213414634146341,71.95121951219512 10.213414634146341,72.0020325203252 10.213414634146341,72.15447154471545 10.213414634146341,72.20528455284553 10.213414634146341,72.2560975609756 10.213414634146341,72.40853658536585 10.213414634146341,72.45934959349593 10.213414634146341,72.51016260162602 10.213414634146341,72.61178861788618 10.213414634146341,72.66260162601625 10.213414634146341,72.76422764227642 10.213414634146341,72.86585365853658 10.213414634146341,72.91666666666667 10.213414634146341,72.96747967479675 10.264227642276422,73.0691056910569 10.264227642276422,73.22154471544715 10.315040650406504,73.32317073170732 10.365853658536585,73.47560975609755 10.416666666666666,73.57723577235772 10.467479674796747,73.72967479674797 10.56910569105691,73.83130081300813 10.619918699186991,73.9329268292683 10.721544715447154,74.03455284552845 10.823170731707316,74.13617886178862 10.873983739837398,74.23780487804878 11.026422764227641,74.28861788617886" fill="none" stroke="black" stroke-width="0.6"></polyline><polyline points="11.026422764227641,74.28861788617886 11.077235772357723,74.39024390243902 11.229674796747966,74.4410569105691 11.331300813008129,74.54268292682927 11.483739837398375,74.59349593495935 11.636178861788618,74.64430894308943 11.839430894308943,74.6951219512195 11.991869918699187,74.6951219512195 12.195121951219512,74.7459349593496 12.449186991869919,74.7459349593496 12.652439024390244,74.79674796747967 12.804878048780488,74.79674796747967 13.058943089430894,74.79674796747967 13.211382113821138,74.79674796747967 13.414634146341463,74.84756097560975 13.617886178861788,74.84756097560975 13.821138211382113,74.84756097560975 14.024390243902438,74.84756097560975 14.227642276422763,74.84756097560975 14.430894308943088,74.84756097560975 14.634146341463413,74.79674796747967 14.888211382113822,74.6951219512195 15.091463414634147,74.59349593495935 15.294715447154472,74.49186991869918 15.548780487804878,74.33943089430895 15.802845528455284,74.13617886178862 16.006097560975608,73.8821138211382 16.260162601626014,73.57723577235772 16.514227642276424,73.27235772357723 16.76829268292683,72.91666666666667 17.022357723577237,72.51016260162602 17.225609756097562,72.20528455284553 17.378048780487806,71.90040650406505 17.53048780487805,71.59552845528455 17.632113821138212,71.29065040650406 17.733739837398375,70.98577235772358 17.784552845528456,70.68089430894308 17.835365853658537,70.42682926829268 17.88617886178862,70.17276422764228 17.88617886178862,69.86788617886178 17.9369918699187,69.61382113821138 17.9369918699187,69.41056910569105 17.9369918699187,69.2581300813008 17.9369918699187,69.10569105691057 17.88617886178862,69.05487804878048 17.835365853658537,69.0040650406504 17.733739837398375,69.0040650406504 17.682926829268293,69.0040650406504 17.632113821138212,69.0040650406504 17.58130081300813,69.0040650406504 17.479674796747968,69.05487804878048" fill="none" stroke="black" stroke-width="0.6"></polyline><polyline points="17.479674796747968,69.05487804878048 17.378048780487806,69.15650406504065 17.276422764227643,69.2581300813008 17.1239837398374,69.41056910569105 16.971544715447155,69.5630081300813 16.869918699186993,69.76626016260163 16.71747967479675,69.96951219512195 16.565040650406505,70.22357723577235 16.41260162601626,70.42682926829268 16.3109756097561,70.630081300813 16.15853658536585,70.8841463414634 16.05691056910569,71.13821138211382 16.006097560975608,71.39227642276423 15.955284552845528,71.59552845528455 15.904471544715447,71.79878048780488 15.853658536585366,72.05284552845528 15.802845528455284,72.20528455284553 15.802845528455284,72.45934959349593 15.752032520325203,72.66260162601625 15.752032520325203,72.8150406504065 15.752032520325203,73.01829268292683 15.752032520325203,73.22154471544715 15.752032520325203,73.3739837398374 15.752032520325203,73.52642276422765 15.752032520325203,73.72967479674797 15.802845528455284,73.8821138211382 15.853658536585366,74.03455284552845 15.955284552845528,74.1869918699187 16.006097560975608,74.33943089430895 16.15853658536585,74.4410569105691 16.260162601626014,74.59349593495935 16.41260162601626,74.6951219512195 16.565040650406505,74.79674796747967 16.76829268292683,74.89837398373983 16.971544715447155,74.94918699186992 17.17479674796748,75 17.428861788617887,75.05081300813008 17.58130081300813,75.05081300813008 17.733739837398375,75.05081300813008 17.835365853658537,75.05081300813008 18.191056910569106,75 18.34349593495935,74.94918699186992 18.546747967479675,74.89837398373983 18.902439024390244,74.7459349593496 19.10569105691057,74.59349593495935 19.61382113821138,74.33943089430895 20.020325203252032,74.03455284552845 20.528455284552845,73.6280487804878 21.036585365853657,73.119918699187 21.49390243902439,72.61178861788618 21.90040650406504,72.05284552845528" fill="none" stroke="black" stroke-width="0.6"></polyline><polyline points="21.90040650406504,72.05284552845528 22.256097560975608,71.39227642276423 22.560975609756095,70.73170731707317 22.764227642276424,70.1219512195122 22.916666666666668,69.5630081300813 22.96747967479675,69.05487804878048 23.01829268292683,68.80081300813008" fill="none" stroke="black" stroke-width="0.6"></polyline><polyline points="7.215447154471544,95.47764227642276 7.215447154471544,95.47764227642276 7.215447154471544,95.47764227642276 7.215447154471544,95.47764227642276 7.266260162601625,95.47764227642276 7.317073170731707,95.42682926829268 7.520325203252033,95.3760162601626 7.774390243902439,95.22357723577235 8.079268292682926,95.0711382113821 8.485772357723578,94.91869918699187 8.892276422764228,94.66463414634146 9.298780487804878,94.46138211382113 9.654471544715447,94.2581300813008 10.010162601626016,94.0040650406504 10.315040650406504,93.80081300813008 10.619918699186991,93.54674796747967 10.97560975609756,93.24186991869918 11.331300813008129,92.83536585365853 11.6869918699187,92.42886178861788 12.042682926829269,91.97154471544715 12.347560975609756,91.5650406504065 12.703252032520325,91.0569105691057 13.008130081300813,90.4979674796748 13.363821138211382,89.9390243902439 13.66869918699187,89.380081300813 13.922764227642276,88.71951219512195 14.176829268292682,88.16056910569105 14.380081300813007,87.55081300813008 14.53252032520325,86.99186991869918 14.634146341463413,86.4329268292683 14.684959349593496,85.8739837398374 14.735772357723578,85.46747967479675 14.735772357723578,85.16260162601625 14.634146341463413,84.85772357723577 14.583333333333332,84.65447154471545 14.48170731707317,84.55284552845528 14.380081300813007,84.40040650406503 14.278455284552845,84.34959349593495 14.176829268292682,84.29878048780488 14.07520325203252,84.29878048780488 13.973577235772357,84.29878048780488 13.871951219512194,84.40040650406503 13.770325203252032,84.5020325203252 13.617886178861788,84.65447154471545 13.465447154471544,84.85772357723577 13.262195121951219,85.16260162601625 13.058943089430894,85.5691056910569 12.804878048780488,85.97560975609755 12.550813008130081,86.48373983739837 12.296747967479675,86.9410569105691 12.042682926829269,87.5" fill="none" stroke="black" stroke-width="0.6"></polyline><polyline points="12.042682926829269,87.5 11.788617886178862,88.0589430894309 11.636178861788618,88.51626016260163 11.534552845528456,88.97357723577235 11.483739837398375,89.380081300813 11.432926829268293,89.73577235772358 11.432926829268293,90.09146341463415 11.432926829268293,90.4979674796748 11.432926829268293,90.85365853658536 11.432926829268293,91.26016260162602 11.432926829268293,91.71747967479675 11.432926829268293,92.07317073170732 11.382113821138212,92.42886178861788 11.331300813008129,92.88617886178862 11.331300813008129,93.24186991869918 11.280487804878048,93.59756097560975 11.280487804878048,93.95325203252033 11.280487804878048,94.20731707317073 11.331300813008129,94.46138211382113 11.432926829268293,94.71544715447155 11.534552845528456,94.91869918699187 11.636178861788618,95.1219512195122 11.839430894308943,95.32520325203252 11.991869918699187,95.47764227642276 12.195121951219512,95.68089430894308 12.449186991869919,95.83333333333333 12.652439024390244,95.9349593495935 12.957317073170731,96.03658536585365 13.262195121951219,96.13821138211382 13.567073170731707,96.1890243902439 13.871951219512194,96.23983739837398 14.227642276422763,96.23983739837398 14.583333333333332,96.23983739837398 14.939024390243903,96.23983739837398 15.345528455284553,96.13821138211382 15.701219512195122,96.03658536585365 16.05691056910569,95.83333333333333 16.463414634146343,95.630081300813 16.81910569105691,95.32520325203252 17.17479674796748,94.96951219512195 17.53048780487805,94.61382113821138 17.835365853658537,94.20731707317073 18.140243902439025,93.80081300813008 18.34349593495935,93.39430894308943 18.546747967479675,93.03861788617886 18.648373983739837,92.6829268292683 18.75,92.27642276422765 18.80081300813008,91.97154471544715 18.851626016260163,91.61585365853658 18.851626016260163,91.26016260162602 18.851626016260163,90.90447154471545" fill="none" stroke="black" stroke-width="0.6"></polyline><polyline points="18.851626016260163,90.90447154471545 18.851626016260163,90.65040650406503 18.80081300813008,90.39634146341463 18.75,90.24390243902438 18.648373983739837,90.14227642276423 18.597560975609756,90.09146341463415 18.495934959349594,90.04065040650406 18.39430894308943,90.04065040650406 18.29268292682927,90.04065040650406 18.140243902439025,90.04065040650406 17.9369918699187,90.14227642276423 17.784552845528456,90.24390243902438 17.632113821138212,90.39634146341463 17.479674796747968,90.59959349593495 17.327235772357724,90.85365853658536 17.17479674796748,91.10772357723577 17.022357723577237,91.41260162601625 16.920731707317074,91.66666666666667 16.869918699186993,91.97154471544715 16.76829268292683,92.27642276422765 16.76829268292683,92.58130081300813 16.76829268292683,92.88617886178862 16.76829268292683,93.1910569105691 16.81910569105691,93.4451219512195 16.869918699186993,93.69918699186992 16.971544715447155,94.0040650406504 17.073170731707318,94.20731707317073 17.1239837398374,94.46138211382113 17.276422764227643,94.66463414634146 17.378048780487806,94.8170731707317 17.479674796747968,94.96951219512195 17.682926829268293,95.1219512195122 17.835365853658537,95.27439024390243 18.089430894308943,95.3760162601626 18.34349593495935,95.47764227642276 18.597560975609756,95.52845528455285 18.953252032520325,95.52845528455285 19.410569105691057,95.52845528455285 19.867886178861788,95.47764227642276 20.3760162601626,95.32520325203252 20.985772357723576,95.02032520325203 21.646341463414632,94.61382113821138 22.35772357723577,94.10569105691057 23.119918699186993,93.4959349593496 23.882113821138212,92.73373983739837 24.64430894308943,91.97154471544715 25.254065040650406,91.20934959349593 25.660569105691057,90.4471544715447 25.965447154471544,89.6341463414634 26.270325203252032,88.77032520325203 26.473577235772357,87.95731707317073" fill="none" stroke="black" stroke-width="0.6"></polyline><polyline points="26.473577235772357,87.95731707317073" fill="none" stroke="black" stroke-width="0.6"></polyline></svg>