<svg height="100" width="100" preserveAspectRatio="xMidYMid meet"><polyline points="6.25,16.10772357723577 6.25,16.10772357723577 6.199186991869919,16.05691056910569 6.1483739837398375,16.006097560975608 6.097560975609756,15.955284552845528 6.097560975609756,15.955284552845528 6.046747967479675,15.904471544715447 5.995934959349594,15.904471544715447 5.995934959349594,15.904471544715447 5.894308943089431,15.955284552845528 5.7926829268292686,16.15853658536585 5.640243902439024,16.463414634146343 5.3861788617886175,16.971544715447155 5.08130081300813,17.632113821138212 4.776422764227642,18.39430894308943 4.522357723577236,19.308943089430894 4.2682926829268295,20.172764227642276 4.115853658536586,20.985772357723576 4.014227642276422,21.697154471544714 3.9634146341463414,22.205284552845526 3.9634146341463414,22.611788617886177 4.014227642276422,22.815040650406505 4.166666666666667,23.01829268292683 4.2682926829268295,23.119918699186993 4.420731707317073,23.170731707317074 4.623983739837398,23.170731707317074 4.878048780487805,23.06910569105691 5.182926829268292,22.815040650406505 5.436991869918699,22.510162601626014 5.7926829268292686,22.154471544715445 6.046747967479675,21.747967479674795 6.300813008130081,21.341463414634145 6.504065040650406,20.934959349593495 6.65650406504065,20.579268292682926 6.7073170731707314,20.274390243902438 6.7073170731707314,20.020325203252032 6.7073170731707314,19.96951219512195 6.554878048780488,19.96951219512195 6.453252032520325,19.96951219512195 6.25,19.96951219512195 5.995934959349594,20.121951219512194 5.691056910569106,20.3760162601626 5.436991869918699,20.68089430894309 5.182926829268292,21.036585365853657 4.878048780487805,21.49390243902439 4.67479674796748,21.90040650406504 4.522357723577236,22.35772357723577 4.420731707317073,22.71341463414634 4.420731707317073,23.01829268292683 4.420731707317073,23.170731707317074 4.573170731707317,23.272357723577237" fill="none" stroke="black" stroke-width="0.6"></polyline><polyline points="4.573170731707317,23.272357723577237 4.725609756097561,23.323170731707318 4.928861788617886,23.323170731707318 5.233739837398374,23.221544715447155 5.3861788617886175,23.119918699186993" fill="none" stroke="black" stroke-width="0.6"></polyline><polyline points="14.07520325203252,16.971544715447155 13.973577235772357,16.920731707317074 13.922764227642276,16.920731707317074 13.871951219512194,16.869918699186993 13.821138211382113,16.869918699186993 13.821138211382113,16.869918699186993 13.821138211382113,16.81910569105691 13.871951219512194,16.76829268292683 14.024390243902438,16.565040650406505 14.329268292682926,16.3109756097561 14.684959349593496,16.006097560975608 15.091463414634147,15.701219512195122 15.548780487804878,15.497967479674797 16.05691056910569,15.345528455284553 16.514227642276424,15.396341463414634 16.920731707317074,15.548780487804878 17.276422764227643,15.853658536585366 17.479674796747968,16.260162601626014 17.58130081300813,16.71747967479675 17.632113821138212,17.276422764227643 17.632113821138212,17.835365853658537 17.479674796747968,18.445121951219512 17.276422764227643,19.10569105691057 16.971544715447155,19.715447154471544 16.666666666666668,20.223577235772357 16.3109756097561,20.73170731707317 16.006097560975608,21.08739837398374 15.752032520325203,21.290650406504064 15.59959349593496,21.392276422764226 15.497967479674797,21.392276422764226 15.447154471544716,21.290650406504064 15.396341463414634,21.1890243902439 15.396341463414634,21.036585365853657 15.447154471544716,20.884146341463413 15.59959349593496,20.73170731707317 15.904471544715447,20.528455284552845 16.260162601626014,20.3760162601626 16.666666666666668,20.32520325203252 17.073170731707318,20.274390243902438 17.479674796747968,20.274390243902438 17.835365853658537,20.426829268292682 18.191056910569106,20.579268292682926 18.495934959349594,20.73170731707317 18.75,20.884146341463413 19.004065040650406,21.036585365853657 19.308943089430894,21.13821138211382 19.61382113821138,21.1890243902439" fill="none" stroke="black" stroke-width="0.6"></polyline><polyline points="28.760162601626014,20.528455284552845 28.760162601626014,20.477642276422763 28.709349593495933,20.32520325203252 28.65853658536585,20.223577235772357 28.65853658536585,20.121951219512194 28.60772357723577,20.071138211382113 28.60772357723577,19.96951219512195 28.55691056910569,19.817073170731707 28.506097560975608,19.664634146341463 28.404471544715445,19.461382113821138 28.20121951219512,19.20731707317073 27.896341463414632,18.902439024390244 27.540650406504064,18.648373983739837 27.134146341463413,18.39430894308943 26.727642276422763,18.241869918699187 26.371951219512194,18.191056910569106 26.016260162601625,18.191056910569106 25.76219512195122,18.29268292682927 25.508130081300813,18.445121951219512 25.254065040650406,18.69918699186992 25.152439024390244,19.004065040650406 25.101626016260163,19.308943089430894 25.05081300813008,19.61382113821138 25.101626016260163,19.867886178861788 25.254065040650406,20.020325203252032 25.45731707317073,20.121951219512194 25.660569105691057,20.121951219512194 25.965447154471544,20.121951219512194 26.270325203252032,19.96951219512195 26.57520325203252,19.766260162601625 26.880081300813007,19.51219512195122 27.184959349593495,19.20731707317073 27.489837398373982,18.902439024390244 27.74390243902439,18.546747967479675 27.997967479674795,18.191056910569106 28.20121951219512,17.9369918699187 28.353658536585364,17.733739837398375 28.455284552845526,17.632113821138212 28.506097560975608,17.632113821138212 28.55691056910569,17.733739837398375 28.60772357723577,17.9369918699187 28.65853658536585,18.241869918699187 28.709349593495933,18.80081300813008 28.709349593495933,19.410569105691057 28.65853658536585,20.172764227642276 28.55691056910569,21.036585365853657 28.455284552845526,21.798780487804876 28.353658536585364,22.560975609756095 28.2520325203252,23.272357723577237 28.15040650406504,23.78048780487805 28.15040650406504,24.1869918699187" fill="none" stroke="black" stroke-width="0.6"></polyline><polyline points="28.15040650406504,24.1869918699187 28.099593495934958,24.491869918699187 28.099593495934958,24.64430894308943 28.099593495934958,24.695121951219512 28.15040650406504,24.745934959349594 28.20121951219512,24.695121951219512 28.2520325203252,24.64430894308943" fill="none" stroke="black" stroke-width="0.6"></polyline><polyline points="38.5670731707317,17.479674796747968 38.5670731707317,17.428861788617887 38.5670731707317,17.276422764227643 38.516260162601625,17.225609756097562 38.516260162601625,17.1239837398374 38.516260162601625,17.022357723577237 38.516260162601625,16.971544715447155 38.5670731707317,16.920731707317074 38.71951219512195,16.81910569105691 38.922764227642276,16.76829268292683 39.22764227642276,16.76829268292683 39.48170731707317,16.81910569105691 39.78658536585366,17.022357723577237 40.040650406504064,17.327235772357724 40.19308943089431,17.733739837398375 40.29471544715447,18.191056910569106 40.29471544715447,18.75 40.142276422764226,19.359756097560975 39.9390243902439,19.96951219512195 39.63414634146341,20.477642276422763 39.38008130081301,20.934959349593495 39.1260162601626,21.341463414634145 38.922764227642276,21.59552845528455 38.77032520325203,21.747967479674795 38.61788617886179,21.747967479674795 38.5670731707317,21.747967479674795 38.46544715447154,21.59552845528455 38.36382113821138,21.392276422764226 38.36382113821138,21.08739837398374 38.36382113821138,20.73170731707317 38.516260162601625,20.426829268292682 38.77032520325203,20.121951219512194 39.07520325203252,19.867886178861788 39.53252032520325,19.715447154471544 40.040650406504064,19.664634146341463 40.65040650406504,19.715447154471544 41.3109756097561,19.91869918699187 41.76829268292683,20.121951219512194 42.1239837398374,20.3760162601626 42.479674796747965,20.579268292682926 42.733739837398375,20.78252032520325 42.9369918699187,21.036585365853657 43.140243902439025,21.290650406504064 43.292682926829265,21.443089430894307 43.44512195121951,21.54471544715447 43.546747967479675,21.59552845528455" fill="none" stroke="black" stroke-width="0.6"></polyline><polyline points="52.79471544715447,16.514227642276424 52.79471544715447,16.463414634146343 52.69308943089431,16.41260162601626 52.642276422764226,16.36178861788618 52.59146341463415,16.3109756097561 52.59146341463415,16.3109756097561 52.540650406504064,16.3109756097561 52.489837398373986,16.3109756097561 52.38821138211382,16.3109756097561 52.235772357723576,16.3109756097561 52.083333333333336,16.3109756097561 51.829268292682926,16.3109756097561 51.575203252032516,16.36178861788618 51.32113821138211,16.36178861788618 50.96544715447154,16.36178861788618 50.66056910569105,16.3109756097561 50.355691056910565,16.260162601626014 50.05081300813008,16.209349593495933 49.796747967479675,16.209349593495933 49.49186991869919,16.260162601626014 49.23780487804878,16.36178861788618 48.93292682926829,16.565040650406505 48.67886178861789,16.81910569105691 48.42479674796748,17.073170731707318 48.22154471544715,17.327235772357724 48.01829268292683,17.58130081300813 47.916666666666664,17.784552845528456 47.86585365853659,17.98780487804878 47.8150406504065,18.140243902439025 47.8150406504065,18.29268292682927 47.86585365853659,18.445121951219512 47.96747967479675,18.546747967479675 48.11991869918699,18.648373983739837 48.3739837398374,18.69918699186992 48.729674796747965,18.80081300813008 49.08536585365854,18.902439024390244 49.49186991869919,19.054878048780488 49.949186991869915,19.258130081300813 50.30487804878049,19.461382113821138 50.609756097560975,19.715447154471544 50.8130081300813,20.020325203252032 50.91463414634146,20.274390243902438 50.91463414634146,20.528455284552845 50.8130081300813,20.833333333333332 50.66056910569105,21.13821138211382 50.40650406504065,21.443089430894307 50.15243902439024,21.747967479674795 49.84756097560975,22.0020325203252 49.49186991869919,22.256097560975608 49.136178861788615,22.40853658536585 48.78048780487805,22.510162601626014" fill="none" stroke="black" stroke-width="0.6"></polyline><polyline points="48.78048780487805,22.510162601626014 48.42479674796748,22.510162601626014 48.06910569105691,22.510162601626014 47.8150406504065,22.459349593495933 47.66260162601626,22.30691056910569 47.61178861788618,22.103658536585364 47.61178861788618,22.0020325203252" fill="none" stroke="black" stroke-width="0.6"></polyline><polyline points="58.33333333333333,16.41260162601626 58.33333333333333,16.36178861788618 58.18089430894309,16.15853658536585 58.130081300813,16.006097560975608 58.079268292682926,16.006097560975608 58.079268292682926,16.006097560975608 58.079268292682926,16.05691056910569 58.079268292682926,16.15853658536585 58.079268292682926,16.36178861788618 58.079268292682926,16.71747967479675 58.079268292682926,17.073170731707318 58.079268292682926,17.479674796747968 58.079268292682926,17.835365853658537 58.02845528455284,18.191056910569106 58.02845528455284,18.546747967479675 57.97764227642276,18.953252032520325 58.02845528455284,19.258130081300813 58.079268292682926,19.51219512195122 58.231707317073166,19.715447154471544 58.38414634146341,19.817073170731707 58.58739837398374,19.817073170731707 58.892276422764226,19.817073170731707 59.197154471544714,19.715447154471544 59.603658536585364,19.461382113821138 60.11178861788618,19.15650406504065 60.46747967479675,18.851626016260163 60.823170731707314,18.546747967479675 61.077235772357724,18.241869918699187 61.17886178861789,17.98780487804878 61.229674796747965,17.733739837398375 61.229674796747965,17.428861788617887 61.229674796747965,17.17479674796748 61.17886178861789,16.971544715447155 61.077235772357724,16.81910569105691 61.02642276422764,16.81910569105691 60.97560975609756,16.81910569105691 60.97560975609756,16.920731707317074 60.8739837398374,17.276422764227643 60.823170731707314,17.733739837398375 60.670731707317074,18.34349593495935 60.56910569105691,18.953252032520325 60.46747967479675,19.61382113821138 60.36585365853659,20.3760162601626 60.3150406504065,20.985772357723576 60.264227642276424,21.59552845528455 60.264227642276424,22.154471544715445 60.264227642276424,22.560975609756095 60.264227642276424,22.865853658536587 60.264227642276424,23.221544715447155 60.3150406504065,23.475609756097562 60.416666666666664,23.577235772357724" fill="none" stroke="black" stroke-width="0.6"></polyline><polyline points="60.416666666666664,23.577235772357724 60.56910569105691,23.628048780487806 60.72154471544715,23.577235772357724" fill="none" stroke="black" stroke-width="0.6"></polyline><polyline points="69.61382113821138,16.006097560975608 69.61382113821138,16.006097560975608 69.61382113821138,16.006097560975608 69.66463414634146,16.006097560975608 69.66463414634146,16.10772357723577 69.51219512195122,16.41260162601626 69.2581300813008,17.022357723577237 68.90243902439025,17.88617886178862 68.59756097560975,18.851626016260163 68.39430894308943,19.715447154471544 68.34349593495935,20.426829268292682 68.34349593495935,21.036585365853657 68.39430894308943,21.49390243902439 68.54674796747967,21.849593495934958 68.75,22.154471544715445 69.0040650406504,22.30691056910569 69.3089430894309,22.35772357723577 69.61382113821138,22.35772357723577 70.02032520325203,22.256097560975608 70.42682926829268,22.0020325203252 70.78252032520325,21.646341463414632 71.13821138211382,21.239837398373982 71.4430894308943,20.73170731707317 71.64634146341463,20.3760162601626 71.7479674796748,20.020325203252032 71.79878048780488,19.664634146341463 71.69715447154472,19.410569105691057 71.54471544715447,19.308943089430894 71.34146341463415,19.258130081300813 71.13821138211382,19.308943089430894 70.9349593495935,19.51219512195122 70.630081300813,19.867886178861788 70.3760162601626,20.274390243902438 70.1219512195122,20.78252032520325 69.96951219512195,21.290650406504064 69.91869918699187,21.798780487804876 69.91869918699187,22.256097560975608 70.0711382113821,22.611788617886177 70.32520325203252,22.764227642276424" fill="none" stroke="black" stroke-width="0.6"></polyline><polyline points="79.77642276422765,18.34349593495935 79.82723577235772,18.29268292682927 79.8780487804878,18.140243902439025 79.92886178861788,17.88617886178862 80.08130081300813,17.58130081300813 80.33536585365853,17.225609756097562 80.79268292682927,16.71747967479675 81.30081300813008,16.209349593495933 81.85975609756098,15.752032520325203 82.26626016260163,15.447154471544716 82.52032520325203,15.294715447154472 82.6219512195122,15.24390243902439 82.67276422764228,15.24390243902439 82.67276422764228,15.294715447154472 82.67276422764228,15.548780487804878 82.6219512195122,16.006097560975608 82.52032520325203,16.615853658536587 82.36788617886178,17.276422764227643 82.16463414634146,18.038617886178862 81.96138211382113,18.69918699186992 81.8089430894309,19.359756097560975 81.65650406504065,20.071138211382113 81.55487804878048,20.528455284552845 81.5040650406504,20.985772357723576 81.5040650406504,21.392276422764226 81.5040650406504,21.646341463414632 81.5040650406504,21.798780487804876 81.5040650406504,21.90040650406504" fill="none" stroke="black" stroke-width="0.6"></polyline><polyline points="80.03048780487805,22.052845528455283 79.82723577235772,22.103658536585364 79.6239837398374,22.103658536585364 79.52235772357723,22.103658536585364 79.47154471544715,22.154471544715445 79.47154471544715,22.205284552845526 79.52235772357723,22.256097560975608 79.67479674796748,22.35772357723577 80.03048780487805,22.459349593495933 80.48780487804878,22.510162601626014 81.09756097560975,22.510162601626014 81.85975609756098,22.510162601626014 82.72357723577235,22.30691056910569 83.6890243902439,22.052845528455283 84.1971544715447,21.90040650406504" fill="none" stroke="black" stroke-width="0.6"></polyline><polyline points="93.08943089430895,17.022357723577237 93.14024390243902,17.022357723577237 93.14024390243902,17.022357723577237 93.1910569105691,17.022357723577237 93.1910569105691,17.073170731707318 93.03861788617886,17.225609756097562 92.73373983739837,17.632113821138212 92.27642276422765,18.34349593495935 91.71747967479675,19.359756097560975 91.26016260162602,20.477642276422763 90.95528455284553,21.443089430894307 90.85365853658536,22.154471544715445 90.80284552845528,22.71341463414634 90.80284552845528,23.119918699186993 90.90447154471545,23.42479674796748 91.10772357723577,23.678861788617887 91.3109756097561,23.78048780487805 91.61585365853658,23.83130081300813 91.97154471544715,23.78048780487805 92.32723577235772,23.628048780487806 92.73373983739837,23.323170731707318 93.14024390243902,22.916666666666668 93.39430894308943,22.560975609756095 93.59756097560975,22.256097560975608 93.64837398373983,21.95121951219512 93.64837398373983,21.798780487804876 93.54674796747967,21.697154471544714 93.39430894308943,21.697154471544714 93.1910569105691,21.747967479674795 92.88617886178862,21.95121951219512 92.53048780487805,22.30691056910569 92.27642276422765,22.71341463414634 92.02235772357723,23.170731707317074 91.869918699187,23.678861788617887 91.869918699187,24.034552845528456 92.07317073170732,24.339430894308943" fill="none" stroke="black" stroke-width="0.6"></polyline><polyline points="2.997967479674797,41.5650406504065 2.997967479674797,41.5650406504065 2.997967479674797,41.5650406504065 2.997967479674797,41.5650406504065 2.9471544715447155,41.5650406504065 2.9471544715447155,41.514227642276424 2.9471544715447155,41.514227642276424 2.9471544715447155,41.514227642276424 2.997967479674797,41.46341463414634 3.0995934959349594,41.36178861788618 3.3536585365853657,41.209349593495936 3.709349593495935,40.95528455284553 4.217479674796748,40.701219512195124 4.725609756097561,40.396341463414636 5.284552845528455,40.142276422764226 5.84349593495935,39.88821138211382 6.300813008130081,39.78658536585366 6.7073170731707314,39.735772357723576 6.961382113821138,39.735772357723576 7.113821138211382,39.78658536585366 7.215447154471544,39.989837398373986 7.266260162601625,40.19308943089431 7.266260162601625,40.4979674796748 7.164634146341463,40.90447154471545 6.961382113821138,41.36178861788618 6.65650406504065,41.81910569105691 6.300813008130081,42.22560975609756 5.894308943089431,42.733739837398375 5.48780487804878,43.140243902439025 5.08130081300813,43.546747967479675 4.67479674796748,43.953252032520325 4.420731707317073,44.15650406504065 4.2682926829268295,44.25813008130081 4.217479674796748,44.30894308943089 4.217479674796748,44.30894308943089 4.369918699186992,44.30894308943089 4.573170731707317,44.25813008130081 4.878048780487805,44.25813008130081 5.335365853658536,44.20731707317073 5.84349593495935,44.20731707317073 6.3516260162601625,44.20731707317073 6.859756097560975,44.25813008130081 7.317073170731707,44.359756097560975 7.6727642276422765,44.512195121951216 7.926829268292683,44.66463414634146 8.079268292682926,44.86788617886179 8.079268292682926,45.07113821138211 8.028455284552845,45.325203252032516 7.876016260162602,45.579268292682926 7.6727642276422765,45.88414634146341 7.317073170731707,46.1890243902439" fill="none" stroke="black" stroke-width="0.6"></polyline><polyline points="7.317073170731707,46.1890243902439 6.961382113821138,46.44308943089431 6.554878048780488,46.7479674796748 6.046747967479675,47.0020325203252 5.589430894308943,47.20528455284553 5.08130081300813,47.357723577235774 4.573170731707317,47.40853658536585 4.217479674796748,47.40853658536585 3.9634146341463414,47.30691056910569 3.8109756097560976,47.15447154471545 3.8109756097560976,47.0020325203252 3.861788617886179,46.84959349593496 4.115853658536586,46.59552845528455 4.522357723577236,46.239837398373986" fill="none" stroke="black" stroke-width="0.6"></polyline><polyline points="16.81910569105691,40.142276422764226 16.76829268292683,40.142276422764226 16.666666666666668,40.142276422764226 16.615853658536587,40.142276422764226 16.615853658536587,40.142276422764226 16.615853658536587,40.142276422764226 16.615853658536587,40.142276422764226 16.615853658536587,40.09146341463415 16.71747967479675,39.989837398373986 16.869918699186993,39.83739837398374 17.073170731707318,39.63414634146341 17.327235772357724,39.38008130081301 17.58130081300813,39.1260162601626 17.835365853658537,38.87195121951219 18.038617886178862,38.71951219512195 18.29268292682927,38.5670731707317 18.445121951219512,38.516260162601625 18.648373983739837,38.5670731707317 18.80081300813008,38.82113821138211 18.851626016260163,39.176829268292686 18.902439024390244,39.6849593495935 18.902439024390244,40.34552845528455 18.80081300813008,41.107723577235774 18.597560975609756,41.97154471544715 18.445121951219512,42.68292682926829 18.34349593495935,43.292682926829265 18.191056910569106,43.80081300813008 18.140243902439025,44.15650406504065 18.089430894308943,44.41056910569105 18.038617886178862,44.71544715447154 17.98780487804878,44.918699186991866 17.88617886178862,45.07113821138211" fill="none" stroke="black" stroke-width="0.6"></polyline><polyline points="16.41260162601626,45.68089430894309 16.3109756097561,45.68089430894309 16.260162601626014,45.68089430894309 16.209349593495933,45.68089430894309 16.209349593495933,45.73170731707317 16.3109756097561,45.78252032520325 16.514227642276424,45.88414634146341 16.869918699186993,45.9349593495935 17.276422764227643,45.9349593495935 17.835365853658537,45.9349593495935 18.495934959349594,45.78252032520325 19.15650406504065,45.52845528455285 19.867886178861788,45.22357723577235 20.68089430894309,44.86788617886179 21.290650406504064,44.512195121951216" fill="none" stroke="black" stroke-width="0.6"></polyline><polyline points="26.067073170731707,41.76829268292683 26.117886178861788,41.666666666666664 26.16869918699187,41.61585365853659 26.371951219512194,41.5650406504065 26.676829268292682,41.514227642276424 27.083333333333332,41.514227642276424 27.540650406504064,41.666666666666664 27.997967479674795,41.920731707317074 28.353658536585364,42.27642276422764 28.60772357723577,42.733739837398375 28.760162601626014,43.24186991869919 28.810975609756095,43.75 28.760162601626014,44.20731707317073 28.60772357723577,44.71544715447154 28.404471544715445,45.12195121951219 28.15040650406504,45.52845528455285 27.84552845528455,45.88414634146341 27.591463414634145,46.08739837398374 27.38821138211382,46.1890243902439 27.184959349593495,46.239837398373986 27.03252032520325,46.239837398373986 26.93089430894309,46.13821138211382 26.880081300813007,46.08739837398374 26.880081300813007,45.985772357723576 26.93089430894309,45.9349593495935 27.134146341463413,45.833333333333336 27.489837398373982,45.78252032520325 27.997967479674795,45.68089430894309 28.506097560975608,45.63008130081301 29.115853658536583,45.579268292682926 29.776422764227643,45.52845528455285 30.38617886178862,45.52845528455285 30.995934959349594,45.47764227642276 31.60569105691057,45.42682926829268" fill="none" stroke="black" stroke-width="0.6"></polyline><polyline points="36.636178861788615,42.073170731707314 36.636178861788615,42.073170731707314 36.636178861788615,42.073170731707314 36.636178861788615,42.02235772357724 36.636178861788615,42.02235772357724 36.636178861788615,42.02235772357724 36.6869918699187,41.97154471544715 36.83943089430894,41.97154471544715 37.14430894308943,41.920731707317074 37.60162601626016,41.81910569105691 38.05894308943089,41.76829268292683 38.5670731707317,41.666666666666664 39.02439024390244,41.5650406504065 39.38008130081301,41.514227642276424 39.6849593495935,41.514227642276424 39.88821138211382,41.5650406504065 40.040650406504064,41.76829268292683 40.19308943089431,42.073170731707314 40.24390243902439,42.479674796747965 40.24390243902439,43.03861788617886 40.142276422764226,43.64837398373984 39.9390243902439,44.25813008130081 39.6849593495935,44.918699186991866 39.48170731707317,45.63008130081301 39.27845528455285,46.1890243902439 39.1260162601626,46.697154471544714 39.02439024390244,47.103658536585364 39.02439024390244,47.357723577235774 39.02439024390244,47.510162601626014 39.1260162601626,47.5609756097561 39.329268292682926,47.510162601626014 39.63414634146341,47.25609756097561 39.83739837398374,47.052845528455286" fill="none" stroke="black" stroke-width="0.6"></polyline><polyline points="48.577235772357724,42.42886178861789 48.577235772357724,42.42886178861789 48.52642276422764,42.3780487804878 48.47560975609756,42.27642276422764 48.42479674796748,42.22560975609756 48.42479674796748,42.17479674796748 48.42479674796748,42.073170731707314 48.577235772357724,41.97154471544715 48.83130081300813,41.86991869918699 49.1869918699187,41.76829268292683 49.542682926829265,41.76829268292683 50,41.920731707317074 50.40650406504065,42.22560975609756 50.71138211382114,42.63211382113821 50.96544715447154,43.140243902439025 51.0670731707317,43.75 51.11788617886179,44.25813008130081 50.96544715447154,44.766260162601625 50.71138211382114,45.27439024390244 50.50813008130081,45.63008130081301 50.2540650406504,45.9349593495935 50,46.1890243902439 49.796747967479675,46.290650406504064 49.59349593495935,46.34146341463415 49.4410569105691,46.34146341463415 49.33943089430894,46.239837398373986 49.33943089430894,46.13821138211382 49.28861788617886,45.985772357723576 49.33943089430894,45.833333333333336 49.49186991869919,45.73170731707317 49.796747967479675,45.579268292682926 50.15243902439024,45.52845528455285 50.55894308943089,45.52845528455285 51.11788617886179,45.52845528455285 51.6260162601626,45.63008130081301 52.13414634146341,45.73170731707317 52.69308943089431,45.833333333333336 53.09959349593496,45.88414634146341 53.50609756097561,45.9349593495935 53.760162601626014,45.9349593495935" fill="none" stroke="black" stroke-width="0.6"></polyline><polyline points="58.790650406504064,42.073170731707314 58.790650406504064,42.02235772357724 58.739837398373986,41.920731707317074 58.739837398373986,41.76829268292683 58.739837398373986,41.666666666666664 58.94308943089431,41.5650406504065 59.2479674796748,41.46341463414634 59.552845528455286,41.46341463414634 59.90853658536585,41.46341463414634 60.264227642276424,41.61585365853659 60.46747967479675,41.920731707317074 60.61991869918699,42.27642276422764 60.61991869918699,42.78455284552845 60.56910569105691,43.34349593495935 60.36585365853659,43.953252032520325 60.21341463414634,44.61382113821138 60.0609756097561,45.27439024390244 59.959349593495936,45.9349593495935 59.959349593495936,46.59552845528455 59.959349593495936,47.052845528455286 60.010162601626014,47.510162601626014 60.21341463414634,47.86585365853659 60.416666666666664,48.06910569105691 60.72154471544715,48.11991869918699 61.077235772357724,48.11991869918699 61.483739837398375,48.06910569105691 61.83943089430894,47.86585365853659 62.24593495934959,47.5609756097561 62.60162601626016,47.15447154471545 62.90650406504065,46.798780487804876 63.05894308943089,46.392276422764226 63.16056910569105,46.13821138211382 63.16056910569105,45.88414634146341 63.05894308943089,45.68089430894309 62.855691056910565,45.579268292682926 62.60162601626016,45.579268292682926 62.34756097560975,45.68089430894309 62.09349593495935,45.9349593495935 61.78861788617886,46.239837398373986 61.58536585365854,46.646341463414636 61.38211382113821,47.103658536585364 61.33130081300813,47.5609756097561 61.33130081300813,47.96747967479675 61.53455284552845,48.22154471544715 61.83943089430894,48.3739837398374" fill="none" stroke="black" stroke-width="0.6"></polyline><polyline points="70.0711382113821,41.81910569105691 70.0711382113821,41.81910569105691 70.02032520325203,41.81910569105691 69.96951219512195,41.71747967479675 69.91869918699187,41.71747967479675 69.91869918699187,41.666666666666664 69.86788617886178,41.666666666666664 69.86788617886178,41.666666666666664 69.86788617886178,41.71747967479675 69.86788617886178,41.920731707317074 69.86788617886178,42.1239837398374 69.91869918699187,42.3780487804878 69.91869918699187,42.58130081300813 70.02032520325203,42.83536585365854 70.1219512195122,43.08943089430894 70.22357723577235,43.24186991869919 70.32520325203252,43.39430894308943 70.52845528455285,43.546747967479675 70.73170731707317,43.59756097560975 70.98577235772358,43.64837398373984 71.23983739837398,43.64837398373984 71.54471544715447,43.546747967479675 71.84959349593495,43.49593495934959 72.15447154471545,43.39430894308943 72.45934959349593,43.24186991869919 72.76422764227642,43.03861788617886 72.91666666666667,42.886178861788615" fill="none" stroke="black" stroke-width="0.6"></polyline><polyline points="73.6280487804878,41.5650406504065 73.6280487804878,41.36178861788618 73.52642276422765,41.15853658536585 73.42479674796748,41.00609756097561 73.32317073170732,40.90447154471545 73.27235772357723,40.853658536585364 73.22154471544715,40.802845528455286 73.17073170731707,40.802845528455286 73.119918699187,40.90447154471545 73.0691056910569,41.15853658536585 73.01829268292683,41.5650406504065 72.96747967479675,42.17479674796748 72.91666666666667,42.78455284552845 72.91666666666667,43.49593495934959 72.86585365853658,44.25813008130081 72.86585365853658,45.02032520325203 72.86585365853658,45.78252032520325 72.86585365853658,46.49390243902439 72.8150406504065,47.103658536585364 72.8150406504065,47.61178861788618 72.76422764227642,48.11991869918699 72.76422764227642,48.42479674796748 72.8150406504065,48.577235772357724 72.86585365853658,48.729674796747965 73.01829268292683,48.729674796747965 73.119918699187,48.67886178861789 73.22154471544715,48.577235772357724" fill="none" stroke="black" stroke-width="0.6"></polyline><polyline points="82.0630081300813,41.260162601626014 82.0630081300813,41.15853658536585 82.0630081300813,41.00609756097561 82.0630081300813,40.802845528455286 82.0630081300813,40.65040650406504 82.0630081300813,40.447154471544714 81.96138211382113,40.29471544715447 81.85975609756098,40.142276422764226 81.65650406504065,39.989837398373986 81.40243902439025,39.88821138211382 81.04674796747967,39.83739837398374 80.58943089430895,39.88821138211382 80.1321138211382,40.09146341463415 79.72560975609755,40.396341463414636 79.369918699187,40.802845528455286 79.11585365853658,41.209349593495936 78.96341463414635,41.61585365853659 78.91260162601625,41.86991869918699 79.01422764227642,42.1239837398374 79.21747967479675,42.27642276422764 79.52235772357723,42.27642276422764 79.8780487804878,42.27642276422764 80.28455284552845,42.22560975609756 80.6910569105691,42.073170731707314 81.09756097560975,41.86991869918699 81.5040650406504,41.61585365853659 81.91056910569105,41.36178861788618 82.21544715447155,41.15853658536585 82.41869918699187,41.00609756097561 82.52032520325203,40.95528455284553 82.52032520325203,40.95528455284553 82.52032520325203,41.15853658536585 82.52032520325203,41.514227642276424 82.46951219512195,42.02235772357724 82.3170731707317,42.733739837398375 82.21544715447155,43.546747967479675 82.0630081300813,44.359756097560975 81.96138211382113,45.12195121951219 81.85975609756098,45.78252032520325 81.7581300813008,46.392276422764226 81.65650406504065,46.798780487804876 81.65650406504065,47.103658536585364 81.65650406504065,47.459349593495936 81.65650406504065,47.61178861788618 81.70731707317073,47.764227642276424 81.7581300813008,47.8150406504065 81.91056910569105,47.8150406504065 82.0630081300813,47.66260162601626 82.21544715447155,47.5609756097561" fill="none" stroke="black" stroke-width="0.6"></polyline><polyline points="89.32926829268293,43.292682926829265 89.380081300813,43.24186991869919 89.43089430894308,43.140243902439025 89.48170731707317,42.98780487804878 89.6849593495935,42.733739837398375 89.9390243902439,42.53048780487805 90.34552845528455,42.17479674796748 90.80284552845528,41.86991869918699 91.20934959349593,41.514227642276424 91.5650406504065,41.260162601626014 91.869918699187,40.95528455284553 92.07317073170732,40.802845528455286 92.1239837398374,40.7520325203252 92.1239837398374,40.7520325203252 92.1239837398374,40.802845528455286 92.1239837398374,41.107723577235774 92.02235772357723,41.514227642276424 91.92073170731707,42.073170731707314 91.71747967479675,42.733739837398375 91.5650406504065,43.292682926829265 91.41260162601625,43.90243902439024 91.20934959349593,44.512195121951216 91.10772357723577,45.02032520325203 91.0060975609756,45.47764227642276 90.95528455284553,45.88414634146341 90.95528455284553,46.08739837398374 90.90447154471545,46.239837398373986 90.90447154471545,46.290650406504064 90.85365853658536,46.290650406504064 90.7520325203252,46.290650406504064" fill="none" stroke="black" stroke-width="0.6"></polyline><polyline points="90.39634146341463,46.1890243902439 90.29471544715447,46.1890243902439 90.1930894308943,46.239837398373986 90.09146341463415,46.239837398373986 89.98983739837398,46.239837398373986 89.9390243902439,46.239837398373986 89.88821138211382,46.239837398373986 89.88821138211382,46.239837398373986 89.88821138211382,46.290650406504064 89.98983739837398,46.34146341463415 90.14227642276423,46.44308943089431 90.4471544715447,46.49390243902439 90.85365853658536,46.54471544715447 91.41260162601625,46.54471544715447 92.02235772357723,46.54471544715447 92.6829268292683,46.44308943089431 93.29268292682927,46.392276422764226 93.85162601626016,46.34146341463415 94.35975609756098,46.34146341463415" fill="none" stroke="black" stroke-width="0.6"></polyline><polyline points="7.723577235772358,66.8191056910569 7.723577235772358,66.76829268292683 7.621951219512195,66.71747967479675 7.571138211382114,66.66666666666667 7.469512195121951,66.61585365853658 7.367886178861789,66.5650406504065 7.215447154471544,66.51422764227642 7.012195121951219,66.51422764227642 6.7073170731707314,66.51422764227642 6.3516260162601625,66.51422764227642 5.945121951219512,66.61585365853658 5.538617886178861,66.76829268292683 5.284552845528455,66.92073170731707 5.08130081300813,67.1239837398374 4.979674796747967,67.32723577235772 4.979674796747967,67.58130081300813 5.182926829268292,67.9369918699187 5.48780487804878,68.29268292682927 5.894308943089431,68.75 6.25,69.20731707317073 6.65650406504065,69.66463414634146 7.012195121951219,70.0711382113821 7.317073170731707,70.42682926829268 7.520325203252033,70.78252032520325 7.6727642276422765,71.1890243902439 7.723577235772358,71.59552845528455 7.723577235772358,72.05284552845528 7.571138211382114,72.45934959349593 7.367886178861789,72.91666666666667 7.164634146341463,73.27235772357723 6.9105691056910565,73.57723577235772 6.605691056910569,73.72967479674797 6.300813008130081,73.78048780487805 6.046747967479675,73.72967479674797 5.7926829268292686,73.6280487804878 5.640243902439024,73.3739837398374 5.538617886178861,73.0691056910569 5.538617886178861,72.66260162601625 5.589430894308943,72.10365853658537 5.84349593495935,71.49390243902438 6.199186991869919,70.78252032520325 6.65650406504065,70.02032520325203 7.215447154471544,69.3089430894309 7.82520325203252,68.69918699186992 8.485772357723578,68.08943089430895 9.095528455284553,67.6321138211382 9.40040650406504,67.42886178861788" fill="none" stroke="black" stroke-width="0.6"></polyline><polyline points="19.461382113821138,66.26016260162602 19.5630081300813,66.26016260162602 19.664634146341463,66.20934959349593 19.664634146341463,66.15853658536585 19.664634146341463,66.15853658536585 19.664634146341463,66.15853658536585 19.664634146341463,66.15853658536585 19.664634146341463,66.15853658536585 19.664634146341463,66.15853658536585 19.61382113821138,66.15853658536585 19.51219512195122,66.15853658536585 19.359756097560975,66.15853658536585 19.20731707317073,66.20934959349593 18.953252032520325,66.26016260162602 18.648373983739837,66.3109756097561 18.34349593495935,66.41260162601625 17.98780487804878,66.46341463414635 17.58130081300813,66.51422764227642 17.225609756097562,66.51422764227642 16.869918699186993,66.5650406504065 16.514227642276424,66.61585365853658 16.260162601626014,66.66666666666667 16.10772357723577,66.71747967479675 15.904471544715447,66.869918699187 15.752032520325203,67.07317073170732 15.65040650406504,67.32723577235772 15.497967479674797,67.6829268292683 15.396341463414634,67.98780487804878 15.345528455284553,68.24186991869918 15.294715447154472,68.54674796747967 15.294715447154472,68.75 15.294715447154472,68.90243902439025 15.294715447154472,69.10569105691057 15.345528455284553,69.15650406504065 15.447154471544716,69.20731707317073 15.59959349593496,69.20731707317073 15.853658536585366,69.20731707317073 16.15853658536585,69.20731707317073 16.565040650406505,69.20731707317073 17.022357723577237,69.2581300813008 17.58130081300813,69.46138211382113 18.140243902439025,69.71544715447155 18.648373983739837,70.0711382113821 19.10569105691057,70.42682926829268 19.410569105691057,70.78252032520325 19.5630081300813,71.13821138211382 19.61382113821138,71.49390243902438 19.5630081300813,71.79878048780488 19.410569105691057,72.10365853658537 19.20731707317073,72.40853658536585 18.902439024390244,72.76422764227642" fill="none" stroke="black" stroke-width="0.6"></polyline><polyline points="18.902439024390244,72.76422764227642 18.546747967479675,73.01829268292683 18.140243902439025,73.27235772357723 17.682926829268293,73.47560975609755 17.17479674796748,73.6280487804878 16.666666666666668,73.72967479674797 16.209349593495933,73.78048780487805 15.904471544715447,73.78048780487805 15.701219512195122,73.72967479674797 15.59959349593496,73.6280487804878 15.65040650406504,73.52642276422765 15.752032520325203,73.42479674796748" fill="none" stroke="black" stroke-width="0.6"></polyline><polyline points="26.117886178861788,67.22560975609755 26.067073170731707,67.27642276422765 25.914634146341463,67.32723577235772 25.711382113821138,67.32723577235772 25.609756097560975,67.32723577235772 25.609756097560975,67.32723577235772 25.609756097560975,67.3780487804878 25.711382113821138,67.3780487804878 26.016260162601625,67.3780487804878 26.422764227642276,67.3780487804878 26.880081300813007,67.27642276422765 27.33739837398374,67.17479674796748 27.79471544715447,67.02235772357723 28.302845528455283,66.869918699187 28.709349593495933,66.76829268292683 29.115853658536583,66.71747967479675 29.420731707317074,66.71747967479675 29.6239837398374,66.8191056910569 29.827235772357724,67.07317073170732 29.928861788617887,67.42886178861788 29.979674796747968,67.88617886178862 29.979674796747968,68.39430894308943 29.827235772357724,69.0040650406504 29.67479674796748,69.61382113821138 29.471544715447155,70.27439024390243 29.268292682926827,70.83333333333333 29.115853658536583,71.4430894308943 28.912601626016258,72.0020325203252 28.810975609756095,72.35772357723577 28.760162601626014,72.61178861788618 28.709349593495933,72.76422764227642 28.709349593495933,72.8150406504065 28.760162601626014,72.8150406504065 28.861788617886177,72.8150406504065 29.0650406504065,72.71341463414635 29.31910569105691,72.61178861788618 29.6239837398374,72.40853658536585" fill="none" stroke="black" stroke-width="0.6"></polyline><polyline points="36.99186991869919,67.9369918699187 36.9410569105691,67.9369918699187 36.83943089430894,67.98780487804878 36.78861788617886,67.98780487804878 36.73780487804878,67.98780487804878 36.73780487804878,68.03861788617886 36.73780487804878,68.03861788617886 36.73780487804878,68.03861788617886 36.78861788617886,67.98780487804878 36.9410569105691,67.83536585365853 37.14430894308943,67.58130081300813 37.39837398373984,67.27642276422765 37.7540650406504,66.92073170731707 38.05894308943089,66.5650406504065 38.36382113821138,66.26016260162602 38.5670731707317,66.10772357723577 38.71951219512195,66.0569105691057 38.922764227642276,66.20934959349593 39.07520325203252,66.5650406504065 39.22764227642276,67.07317073170732 39.329268292682926,67.6829268292683 39.329268292682926,68.34349593495935 39.329268292682926,68.95325203252033 39.27845528455285,69.5630081300813 39.22764227642276,70.0711382113821 39.1260162601626,70.47764227642276 39.07520325203252,70.78252032520325 39.07520325203252,71.08739837398373 39.07520325203252,71.34146341463415 39.07520325203252,71.4430894308943" fill="none" stroke="black" stroke-width="0.6"></polyline><polyline points="37.296747967479675,72.71341463414635 37.296747967479675,72.71341463414635 37.24593495934959,72.76422764227642 37.24593495934959,72.76422764227642 37.24593495934959,72.76422764227642 37.24593495934959,72.8150406504065 37.5,72.8150406504065 37.95731707317073,72.76422764227642 38.5670731707317,72.61178861788618 39.329268292682926,72.40853658536585 40.142276422764226,72.20528455284553 40.95528455284553,72.05284552845528 41.61585365853659,71.90040650406505" fill="none" stroke="black" stroke-width="0.6"></polyline><polyline points="52.540650406504064,66.0569105691057 52.540650406504064,66.0569105691057 52.540650406504064,66.0569105691057 52.540650406504064,66.0569105691057 52.540650406504064,66.0569105691057 52.489837398373986,66.0569105691057 52.4390243902439,66.0569105691057 52.38821138211382,66.0569105691057 52.33739837398374,66.0569105691057 52.235772357723576,66.0569105691057 52.083333333333336,66.0569105691057 51.880081300813,66.0569105691057 51.67682926829268,66.10772357723577 51.422764227642276,66.10772357723577 51.0670731707317,66.10772357723577 50.762195121951216,66.10772357723577 50.45731707317073,66.10772357723577 50.10162601626016,66.0569105691057 49.84756097560975,66.0569105691057 49.542682926829265,66.0060975609756 49.28861788617886,66.0060975609756 49.03455284552845,66.0060975609756 48.83130081300813,66.10772357723577 48.577235772357724,66.26016260162602 48.42479674796748,66.46341463414635 48.27235772357724,66.71747967479675 48.11991869918699,67.07317073170732 48.01829268292683,67.3780487804878 47.96747967479675,67.6321138211382 47.916666666666664,67.88617886178862 47.916666666666664,67.98780487804878 47.916666666666664,68.08943089430895 47.96747967479675,68.14024390243902 48.01829268292683,68.14024390243902 48.170731707317074,68.1910569105691 48.42479674796748,68.1910569105691 48.78048780487805,68.24186991869918 49.136178861788615,68.34349593495935 49.542682926829265,68.54674796747967 50,68.75 50.355691056910565,69.10569105691057 50.71138211382114,69.51219512195122 50.91463414634146,69.86788617886178 50.96544715447154,70.17276422764228 50.96544715447154,70.47764227642276 50.8130081300813,70.78252032520325 50.55894308943089,71.13821138211382 50.203252032520325,71.54471544715447 49.84756097560975,71.84959349593495 49.49186991869919,72.15447154471545 49.08536585365854,72.35772357723577" fill="none" stroke="black" stroke-width="0.6"></polyline><polyline points="49.08536585365854,72.35772357723577 48.67886178861789,72.45934959349593 48.27235772357724,72.51016260162602 47.86585365853659,72.51016260162602 47.510162601626014,72.51016260162602 47.25609756097561,72.40853658536585 47.103658536585364,72.3069105691057 47.052845528455286,72.15447154471545 47.25609756097561,71.95121951219512" fill="none" stroke="black" stroke-width="0.6"></polyline><polyline points="59.959349593495936,65.54878048780488 59.959349593495936,65.54878048780488 59.959349593495936,65.4979674796748 59.959349593495936,65.44715447154472 60.010162601626014,65.39634146341463 60.010162601626014,65.39634146341463 60.0609756097561,65.34552845528455 60.0609756097561,65.34552845528455 60.0609756097561,65.34552845528455 60.0609756097561,65.34552845528455 60.0609756097561,65.44715447154472 60.010162601626014,65.65040650406505 59.90853658536585,65.90447154471545 59.80691056910569,66.26016260162602 59.65447154471545,66.61585365853658 59.552845528455286,66.97154471544715 59.451219512195124,67.32723577235772 59.40040650406504,67.6321138211382 59.34959349593496,67.83536585365853 59.34959349593496,68.03861788617886 59.40040650406504,68.14024390243902 59.552845528455286,68.24186991869918 59.75609756097561,68.29268292682927 59.959349593495936,68.34349593495935 60.264227642276424,68.34349593495935 60.56910569105691,68.39430894308943 60.92479674796748,68.39430894308943 61.28048780487805,68.39430894308943 61.636178861788615,68.29268292682927 61.99186991869919,68.14024390243902 62.24593495934959,68.03861788617886" fill="none" stroke="black" stroke-width="0.6"></polyline><polyline points="63.05894308943089,65.80284552845528 63.05894308943089,65.80284552845528 63.00813008130081,65.80284552845528 62.95731707317073,65.80284552845528 62.855691056910565,65.90447154471545 62.7540650406504,66.3109756097561 62.60162601626016,67.1239837398374 62.449186991869915,68.14024390243902 62.34756097560975,69.10569105691057 62.24593495934959,69.91869918699187 62.19512195121951,70.630081300813 62.14430894308943,71.23983739837398 62.09349593495935,71.79878048780488 62.09349593495935,72.20528455284553 62.09349593495935,72.45934959349593 62.14430894308943,72.71341463414635 62.24593495934959,72.8150406504065 62.39837398373984,72.86585365853658 62.65243902439024,72.76422764227642" fill="none" stroke="black" stroke-width="0.6"></polyline><polyline points="73.6280487804878,65.54878048780488 73.6280487804878,65.54878048780488 73.6280487804878,65.54878048780488 73.6280487804878,65.54878048780488 73.6280487804878,65.54878048780488 73.6280487804878,65.4979674796748 73.57723577235772,65.4979674796748 73.57723577235772,65.4979674796748 73.52642276422765,65.4979674796748 73.47560975609755,65.4979674796748 73.42479674796748,65.54878048780488 73.27235772357723,65.54878048780488 73.119918699187,65.59959349593495 72.91666666666667,65.65040650406505 72.66260162601625,65.70121951219512 72.3069105691057,65.70121951219512 71.95121951219512,65.7520325203252 71.54471544715447,65.7520325203252 71.13821138211382,65.80284552845528 70.73170731707317,65.85365853658537 70.3760162601626,65.90447154471545 70.0711382113821,66.0569105691057 69.86788617886178,66.15853658536585 69.66463414634146,66.36178861788618 69.46138211382113,66.66666666666667 69.2581300813008,66.97154471544715 69.05487804878048,67.32723577235772 68.80081300813008,67.6829268292683 68.59756097560975,67.9369918699187 68.4959349593496,68.14024390243902 68.4451219512195,68.29268292682927 68.4451219512195,68.34349593495935 68.4959349593496,68.39430894308943 68.59756097560975,68.4451219512195 68.85162601626016,68.4959349593496 69.20731707317073,68.59756097560975 69.66463414634146,68.75 70.1219512195122,68.90243902439025 70.630081300813,69.20731707317073 71.08739837398373,69.51219512195122 71.4430894308943,69.91869918699187 71.7479674796748,70.32520325203252 71.79878048780488,70.68089430894308 71.79878048780488,70.98577235772358 71.64634146341463,71.34146341463415 71.39227642276423,71.69715447154472 71.03658536585365,72.05284552845528 70.630081300813,72.40853658536585 70.17276422764228,72.61178861788618 69.71544715447155,72.76422764227642 69.20731707317073,72.8150406504065" fill="none" stroke="black" stroke-width="0.6"></polyline><polyline points="69.20731707317073,72.8150406504065 68.75,72.8150406504065 68.39430894308943,72.76422764227642 68.03861788617886,72.66260162601625 67.9369918699187,72.51016260162602 67.88617886178862,72.35772357723577" fill="none" stroke="black" stroke-width="0.6"></polyline><polyline points="79.0650406504065,66.71747967479675 79.01422764227642,66.71747967479675 78.96341463414635,66.71747967479675 78.91260162601625,66.66666666666667 78.86178861788618,66.61585365853658 78.86178861788618,66.61585365853658 78.86178861788618,66.61585365853658 78.86178861788618,66.61585365853658 78.86178861788618,66.61585365853658 78.91260162601625,66.61585365853658 78.96341463414635,66.61585365853658 79.0650406504065,66.61585365853658 79.16666666666667,66.5650406504065 79.3191056910569,66.51422764227642 79.52235772357723,66.41260162601625 79.77642276422765,66.3109756097561 80.03048780487805,66.20934959349593 80.33536585365853,66.10772357723577 80.6910569105691,66.0569105691057 80.9959349593496,66.0569105691057 81.30081300813008,66.0569105691057 81.55487804878048,66.10772357723577 81.7581300813008,66.20934959349593 81.91056910569105,66.3109756097561 81.96138211382113,66.41260162601625 82.01219512195122,66.5650406504065 81.96138211382113,66.76829268292683 81.85975609756098,67.02235772357723 81.65650406504065,67.22560975609755 81.40243902439025,67.53048780487805 81.04674796747967,67.78455284552845 80.74186991869918,67.98780487804878 80.38617886178862,68.24186991869918 80.03048780487805,68.4451219512195 79.72560975609755,68.64837398373983 79.52235772357723,68.75 79.369918699187,68.85162601626016 79.3191056910569,68.85162601626016 79.3191056910569,68.90243902439025 79.369918699187,68.95325203252033 79.57317073170732,69.0040650406504 79.8780487804878,69.05487804878048 80.23373983739837,69.15650406504065 80.64024390243902,69.2581300813008 81.14837398373983,69.41056910569105 81.65650406504065,69.61382113821138 82.0630081300813,69.8170731707317 82.41869918699187,70.0711382113821 82.72357723577235,70.32520325203252 82.92682926829268,70.57926829268293 82.97764227642276,70.78252032520325" fill="none" stroke="black" stroke-width="0.6"></polyline><polyline points="82.97764227642276,70.78252032520325 82.97764227642276,70.98577235772358 82.97764227642276,71.1890243902439 82.82520325203252,71.39227642276423 82.6219512195122,71.59552845528455 82.26626016260163,71.79878048780488 81.91056910569105,72.0020325203252 81.5040650406504,72.15447154471545 81.09756097560975,72.2560975609756 80.6910569105691,72.35772357723577 80.28455284552845,72.35772357723577 79.97967479674797,72.35772357723577 79.77642276422765,72.35772357723577 79.6239837398374,72.3069105691057 79.6239837398374,72.20528455284553 79.67479674796748,72.0020325203252" fill="none" stroke="black" stroke-width="0.6"></polyline><polyline points="91.92073170731707,66.20934959349593 91.97154471544715,66.20934959349593 92.07317073170732,66.15853658536585 92.1239837398374,66.10772357723577 92.17479674796748,66.10772357723577 92.22560975609755,66.0569105691057 92.32723577235772,66.0060975609756 92.3780487804878,65.95528455284553 92.42886178861788,65.90447154471545 92.47967479674797,65.85365853658537 92.47967479674797,65.7520325203252 92.47967479674797,65.70121951219512 92.3780487804878,65.59959349593495 92.1239837398374,65.4979674796748 91.8191056910569,65.44715447154472 91.36178861788618,65.39634146341463 90.90447154471545,65.39634146341463 90.4471544715447,65.4979674796748 89.98983739837398,65.7520325203252 89.6341463414634,66.0569105691057 89.43089430894308,66.36178861788618 89.32926829268293,66.71747967479675 89.32926829268293,66.92073170731707 89.43089430894308,67.1239837398374 89.6341463414634,67.22560975609755 89.88821138211382,67.27642276422765 90.1930894308943,67.27642276422765 90.59959349593495,67.17479674796748 90.95528455284553,67.02235772357723 91.36178861788618,66.8191056910569 91.71747967479675,66.5650406504065 92.02235772357723,66.3109756097561 92.32723577235772,66.10772357723577 92.42886178861788,66.0060975609756 92.47967479674797,65.95528455284553 92.47967479674797,65.95528455284553 92.47967479674797,66.0569105691057 92.47967479674797,66.3109756097561 92.42886178861788,66.76829268292683 92.3780487804878,67.32723577235772 92.27642276422765,68.03861788617886 92.17479674796748,68.90243902439025 92.07317073170732,69.66463414634146 92.02235772357723,70.3760162601626 91.92073170731707,71.03658536585365 91.869918699187,71.54471544715447 91.8191056910569,71.95121951219512 91.76829268292683,72.3069105691057 91.76829268292683,72.51016260162602 91.71747967479675,72.66260162601625 91.71747967479675,72.76422764227642" fill="none" stroke="black" stroke-width="0.6"></polyline><polyline points="91.71747967479675,72.76422764227642 91.71747967479675,72.76422764227642 91.71747967479675,72.76422764227642 91.71747967479675,72.76422764227642" fill="none" stroke="black" stroke-width="0.6"></polyline><polyline points="5.182926829268292,89.73577235772358 5.233739837398374,89.58333333333333 5.335365853658536,89.48170731707317 5.589430894308943,89.27845528455285 5.894308943089431,89.1260162601626 6.3516260162601625,89.07520325203252 6.859756097560975,89.07520325203252 7.317073170731707,89.17682926829268 7.6727642276422765,89.43089430894308 7.926829268292683,89.73577235772358 8.028455284552845,90.09146341463415 8.028455284552845,90.54878048780488 7.977642276422764,91.0569105691057 7.82520325203252,91.5650406504065 7.520325203252033,92.02235772357723 7.215447154471544,92.53048780487805 6.9105691056910565,92.88617886178862 6.65650406504065,93.14024390243902 6.402439024390244,93.34349593495935 6.1483739837398375,93.39430894308943 5.995934959349594,93.34349593495935 5.84349593495935,93.14024390243902 5.84349593495935,92.83536585365853 5.894308943089431,92.47967479674797 6.046747967479675,92.1239837398374 6.300813008130081,91.869918699187 6.605691056910569,91.66666666666667 6.961382113821138,91.51422764227642 7.469512195121951,91.41260162601625 8.079268292682926,91.46341463414635 8.689024390243903,91.61585365853658 9.197154471544716,91.869918699187 9.705284552845528,92.07317073170732 10.16260162601626,92.32723577235772 10.56910569105691,92.47967479674797 10.97560975609756,92.6321138211382 11.331300813008129,92.73373983739837" fill="none" stroke="black" stroke-width="0.6"></polyline><polyline points="16.71747967479675,89.6849593495935 16.71747967479675,89.6849593495935 16.666666666666668,89.6849593495935 16.615853658536587,89.6849593495935 16.615853658536587,89.6341463414634 16.565040650406505,89.6341463414634 16.565040650406505,89.58333333333333 16.615853658536587,89.53252032520325 16.71747967479675,89.380081300813 16.971544715447155,89.17682926829268 17.276422764227643,88.97357723577235 17.682926829268293,88.77032520325203 18.191056910569106,88.61788617886178 18.75,88.51626016260163 19.308943089430894,88.46544715447155 19.715447154471544,88.46544715447155 20.071138211382113,88.51626016260163 20.32520325203252,88.61788617886178 20.477642276422763,88.77032520325203 20.528455284552845,88.97357723577235 20.528455284552845,89.22764227642276 20.426829268292682,89.48170731707317 20.223577235772357,89.78658536585365 19.91869918699187,90.14227642276423 19.61382113821138,90.39634146341463 19.258130081300813,90.70121951219512 18.902439024390244,90.95528455284553 18.597560975609756,91.15853658536585 18.34349593495935,91.3109756097561 18.241869918699187,91.36178861788618 18.241869918699187,91.36178861788618 18.29268292682927,91.36178861788618 18.495934959349594,91.36178861788618 18.80081300813008,91.41260162601625 19.10569105691057,91.51422764227642 19.461382113821138,91.5650406504065 19.766260162601625,91.61585365853658 20.071138211382113,91.71747967479675 20.3760162601626,91.8191056910569 20.528455284552845,91.92073170731707 20.630081300813007,92.07317073170732 20.68089430894309,92.27642276422765 20.630081300813007,92.47967479674797 20.477642276422763,92.6829268292683 20.223577235772357,92.9369918699187 19.96951219512195,93.14024390243902 19.61382113821138,93.34349593495935 19.258130081300813,93.4959349593496 18.851626016260163,93.59756097560975 18.39430894308943,93.69918699186992 18.038617886178862,93.75" fill="none" stroke="black" stroke-width="0.6"></polyline><polyline points="18.038617886178862,93.75 17.733739837398375,93.75 17.53048780487805,93.75 17.479674796747968,93.69918699186992 17.479674796747968,93.59756097560975 17.632113821138212,93.4959349593496 17.733739837398375,93.39430894308943" fill="none" stroke="black" stroke-width="0.6"></polyline><polyline points="30.284552845528456,89.48170731707317 30.284552845528456,89.48170731707317 30.335365853658537,89.48170731707317 30.335365853658537,89.43089430894308 30.335365853658537,89.380081300813 30.335365853658537,89.380081300813 30.335365853658537,89.32926829268293 30.335365853658537,89.27845528455285 30.233739837398375,89.17682926829268 30.132113821138212,89.1260162601626 29.928861788617887,89.02439024390243 29.6239837398374,89.02439024390243 29.217479674796746,88.97357723577235 28.810975609756095,89.02439024390243 28.353658536585364,89.22764227642276 27.947154471544714,89.53252032520325 27.642276422764226,89.83739837398373 27.4390243902439,90.14227642276423 27.33739837398374,90.4979674796748 27.33739837398374,90.70121951219512 27.4390243902439,90.85365853658536 27.591463414634145,90.95528455284553 27.74390243902439,90.95528455284553 27.997967479674795,90.90447154471545 28.302845528455283,90.7520325203252 28.55691056910569,90.54878048780488 28.861788617886177,90.29471544715447 29.217479674796746,89.98983739837398 29.522357723577237,89.6849593495935 29.827235772357724,89.32926829268293 30.08130081300813,89.02439024390243 30.233739837398375,88.8211382113821 30.335365853658537,88.77032520325203 30.38617886178862,88.77032520325203 30.38617886178862,88.92276422764228 30.38617886178862,89.27845528455285 30.38617886178862,89.78658536585365 30.335365853658537,90.34552845528455 30.233739837398375,91.0060975609756 30.132113821138212,91.66666666666667 30.03048780487805,92.22560975609755 29.878048780487806,92.88617886178862 29.776422764227643,93.34349593495935 29.67479674796748,93.80081300813008 29.6239837398374,94.15650406504065 29.573170731707318,94.35975609756098 29.573170731707318,94.51219512195122 29.573170731707318,94.5630081300813 29.573170731707318,94.5630081300813 29.6239837398374,94.46138211382113 29.725609756097562,94.20731707317073" fill="none" stroke="black" stroke-width="0.6"></polyline><polyline points="29.725609756097562,94.20731707317073" fill="none" stroke="black" stroke-width="0.6"></polyline><polyline points="36.890243902439025,90.29471544715447 36.890243902439025,90.34552845528455 36.890243902439025,90.34552845528455 36.890243902439025,90.34552845528455 36.890243902439025,90.39634146341463 36.890243902439025,90.39634146341463 37.042682926829265,90.39634146341463 37.24593495934959,90.34552845528455 37.65243902439024,90.24390243902438 38.16056910569105,90.14227642276423 38.668699186991866,90.09146341463415 39.176829268292686,90.04065040650406 39.583333333333336,89.98983739837398 39.989837398373986,89.9390243902439 40.29471544715447,89.9390243902439 40.548780487804876,89.9390243902439 40.7520325203252,90.09146341463415 40.90447154471545,90.34552845528455 40.95528455284553,90.70121951219512 40.95528455284553,91.15853658536585 40.95528455284553,91.66666666666667 40.802845528455286,92.32723577235772 40.59959349593496,92.9369918699187 40.396341463414636,93.54674796747967 40.19308943089431,94.15650406504065 39.989837398373986,94.61382113821138 39.83739837398374,95.02032520325203 39.735772357723576,95.42682926829268 39.6849593495935,95.630081300813 39.6849593495935,95.78252032520325 39.735772357723576,95.83333333333333 39.9390243902439,95.78252032520325 40.19308943089431,95.57926829268293 40.548780487804876,95.22357723577235" fill="none" stroke="black" stroke-width="0.6"></polyline><polyline points="48.6280487804878,89.9390243902439 48.577235772357724,89.9390243902439 48.52642276422764,90.04065040650406 48.42479674796748,90.09146341463415 48.3739837398374,90.14227642276423 48.3739837398374,90.1930894308943 48.323170731707314,90.24390243902438 48.323170731707314,90.29471544715447 48.3739837398374,90.34552845528455 48.47560975609756,90.34552845528455 48.6280487804878,90.29471544715447 48.83130081300813,90.1930894308943 49.08536585365854,89.98983739837398 49.33943089430894,89.78658536585365 49.64430894308943,89.48170731707317 49.949186991869915,89.22764227642276 50.2540650406504,88.92276422764228 50.45731707317073,88.71951219512195 50.609756097560975,88.61788617886178 50.762195121951216,88.61788617886178 50.8130081300813,88.77032520325203 50.86382113821138,89.1260162601626 50.86382113821138,89.6341463414634 50.86382113821138,90.1930894308943 50.86382113821138,90.80284552845528 50.762195121951216,91.46341463414635 50.66056910569105,92.02235772357723 50.50813008130081,92.47967479674797 50.40650406504065,92.88617886178862 50.30487804878049,93.1910569105691 50.2540650406504,93.39430894308943 50.15243902439024,93.59756097560975 50.15243902439024,93.64837398373983" fill="none" stroke="black" stroke-width="0.6"></polyline><polyline points="49.28861788617886,93.95325203252033 49.23780487804878,93.95325203252033 49.1869918699187,93.95325203252033 49.08536585365854,94.0040650406504 49.03455284552845,94.0040650406504 48.983739837398375,94.0040650406504 48.983739837398375,94.05487804878048 49.03455284552845,94.10569105691057 49.1869918699187,94.15650406504065 49.49186991869919,94.20731707317073 49.84756097560975,94.2581300813008 50.30487804878049,94.3089430894309 50.86382113821138,94.3089430894309 51.422764227642276,94.2581300813008 52.03252032520325,94.15650406504065 52.642276422764226,94.0040650406504 53.201219512195124,93.85162601626016" fill="none" stroke="black" stroke-width="0.6"></polyline><polyline points="58.33333333333333,89.73577235772358 58.231707317073166,89.73577235772358 58.02845528455284,89.78658536585365 57.92682926829268,89.78658536585365 57.8760162601626,89.78658536585365 57.8760162601626,89.78658536585365 57.97764227642276,89.78658536585365 58.231707317073166,89.78658536585365 58.63821138211382,89.6849593495935 59.146341463414636,89.58333333333333 59.65447154471545,89.380081300813 60.264227642276424,89.17682926829268 60.823170731707314,88.97357723577235 61.38211382113821,88.77032520325203 61.83943089430894,88.61788617886178 62.14430894308943,88.5670731707317 62.296747967479675,88.5670731707317 62.449186991869915,88.61788617886178 62.55081300813008,88.8211382113821 62.60162601626016,89.1260162601626 62.60162601626016,89.58333333333333 62.60162601626016,90.14227642276423 62.449186991869915,90.85365853658536 62.24593495934959,91.61585365853658 62.042682926829265,92.32723577235772 61.78861788617886,92.9369918699187 61.58536585365854,93.4959349593496 61.43292682926829,93.90243902439025 61.38211382113821,94.20731707317073 61.33130081300813,94.41056910569105 61.33130081300813,94.46138211382113 61.43292682926829,94.46138211382113 61.58536585365854,94.46138211382113 61.73780487804878,94.35975609756098 62.042682926829265,94.10569105691057 62.24593495934959,93.95325203252033" fill="none" stroke="black" stroke-width="0.6"></polyline><polyline points="69.05487804878048,90.29471544715447 68.95325203252033,90.29471544715447 68.85162601626016,90.29471544715447 68.69918699186992,90.29471544715447 68.64837398373983,90.34552845528455 68.64837398373983,90.34552845528455 68.59756097560975,90.34552845528455 68.59756097560975,90.34552845528455 68.75,90.29471544715447 68.95325203252033,90.14227642276423 69.20731707317073,89.88821138211382 69.51219512195122,89.6341463414634 69.91869918699187,89.32926829268293 70.22357723577235,89.02439024390243 70.57926829268293,88.77032520325203 70.83333333333333,88.5670731707317 70.98577235772358,88.51626016260163 71.03658536585365,88.5670731707317 71.08739837398373,88.71951219512195 71.13821138211382,89.02439024390243 71.13821138211382,89.43089430894308 71.13821138211382,89.9390243902439 71.13821138211382,90.4979674796748 71.03658536585365,91.10772357723577 70.9349593495935,91.71747967479675 70.83333333333333,92.27642276422765 70.78252032520325,92.73373983739837 70.73170731707317,93.14024390243902 70.73170731707317,93.34349593495935 70.73170731707317,93.54674796747967 70.68089430894308,93.64837398373983" fill="none" stroke="black" stroke-width="0.6"></polyline><polyline points="69.2581300813008,93.75 69.15650406504065,93.80081300813008 69.10569105691057,93.80081300813008 69.10569105691057,93.85162601626016 69.05487804878048,93.85162601626016 69.05487804878048,93.85162601626016 69.15650406504065,93.90243902439025 69.41056910569105,93.95325203252033 69.76626016260163,94.0040650406504 70.17276422764228,94.0040650406504 70.68089430894308,94.0040650406504 71.29065040650406,94.0040650406504 71.84959349593495,94.0040650406504 72.40853658536585,93.90243902439025 73.01829268292683,93.80081300813008 73.52642276422765,93.75 73.98373983739837,93.64837398373983" fill="none" stroke="black" stroke-width="0.6"></polyline><polyline points="80.08130081300813,90.59959349593495 80.08130081300813,90.59959349593495 80.08130081300813,90.4979674796748 80.03048780487805,90.4471544715447 80.03048780487805,90.39634146341463 80.08130081300813,90.29471544715447 80.33536585365853,90.1930894308943 80.6910569105691,90.14227642276423 81.14837398373983,90.04065040650406 81.60569105691057,90.04065040650406 82.01219512195122,90.04065040650406 82.41869918699187,90.04065040650406 82.67276422764228,90.09146341463415 82.8760162601626,90.14227642276423 82.97764227642276,90.24390243902438 83.02845528455285,90.29471544715447 83.02845528455285,90.39634146341463 82.92682926829268,90.54878048780488 82.77439024390243,90.7520325203252 82.5711382113821,91.0060975609756 82.3170731707317,91.20934959349593 82.0630081300813,91.41260162601625 81.8089430894309,91.61585365853658 81.65650406504065,91.76829268292683 81.55487804878048,91.869918699187 81.55487804878048,91.97154471544715 81.60569105691057,92.07317073170732 81.8089430894309,92.17479674796748 82.11382113821138,92.3780487804878 82.46951219512195,92.58130081300813 82.8760162601626,92.88617886178862 83.28252032520325,93.14024390243902 83.58739837398373,93.39430894308943 83.79065040650406,93.64837398373983 83.9430894308943,93.85162601626016 83.9430894308943,94.0040650406504 83.9430894308943,94.15650406504065 83.84146341463415,94.3089430894309 83.6890243902439,94.46138211382113 83.4349593495935,94.61382113821138 83.130081300813,94.76626016260163 82.77439024390243,94.86788617886178 82.41869918699187,94.91869918699187 82.0630081300813,94.91869918699187 81.7581300813008,94.91869918699187 81.55487804878048,94.8170731707317 81.35162601626016,94.71544715447155 81.25,94.61382113821138 81.19918699186992,94.51219512195122 81.19918699186992,94.41056910569105 81.25,94.35975609756098" fill="none" stroke="black" stroke-width="0.6"></polyline><polyline points="81.25,94.35975609756098" fill="none" stroke="black" stroke-width="0.6"></polyline><polyline points="94.51219512195122,87.7540650406504 94.66463414634146,87.7540650406504 94.8170731707317,87.65243902439025 94.91869918699187,87.60162601626016 94.96951219512195,87.55081300813008 95.0711382113821,87.55081300813008 95.0711382113821,87.55081300813008 95.0711382113821,87.55081300813008 95.0711382113821,87.55081300813008 95.0711382113821,87.55081300813008 95.0711382113821,87.55081300813008 95.0711382113821,87.55081300813008 95.02032520325203,87.55081300813008 94.96951219512195,87.55081300813008 94.86788617886178,87.55081300813008 94.76626016260163,87.55081300813008 94.66463414634146,87.55081300813008 94.51219512195122,87.60162601626016 94.35975609756098,87.60162601626016 94.20731707317073,87.60162601626016 94.05487804878048,87.60162601626016 93.90243902439025,87.60162601626016 93.69918699186992,87.60162601626016 93.4451219512195,87.60162601626016 93.14024390243902,87.60162601626016 92.83536585365853,87.60162601626016 92.42886178861788,87.60162601626016 92.02235772357723,87.60162601626016 91.66666666666667,87.70325203252033 91.20934959349593,87.90650406504065 90.85365853658536,88.10975609756098 90.4979674796748,88.41463414634146 90.14227642276423,88.66869918699187 89.9390243902439,88.92276422764228 89.83739837398373,89.17682926829268 89.78658536585365,89.32926829268293 89.78658536585365,89.48170731707317 89.83739837398373,89.58333333333333 90.04065040650406,89.6849593495935 90.29471544715447,89.78658536585365 90.65040650406503,89.83739837398373 91.0060975609756,89.9390243902439 91.36178861788618,90.04065040650406 91.71747967479675,90.1930894308943 92.07317073170732,90.39634146341463 92.3780487804878,90.70121951219512 92.58130081300813,91.0569105691057 92.73373983739837,91.46341463414635 92.78455284552845,91.76829268292683 92.78455284552845,92.02235772357723 92.6829268292683,92.32723577235772" fill="none" stroke="black" stroke-width="0.6"></polyline><polyline points="92.6829268292683,92.32723577235772 92.47967479674797,92.58130081300813 92.22560975609755,92.83536585365853 91.92073170731707,93.14024390243902 91.5650406504065,93.34349593495935 91.20934959349593,93.4959349593496 90.85365853658536,93.59756097560975 90.4471544715447,93.64837398373983 90.04065040650406,93.64837398373983 89.6341463414634,93.64837398373983 89.32926829268293,93.59756097560975 89.02439024390243,93.59756097560975 88.71951219512195,93.59756097560975 88.51626016260163,93.64837398373983" fill="none" stroke="black" stroke-width="0.6"></polyline></svg>