<svg height="100" width="100" preserveAspectRatio="xMidYMid meet"><polyline points="50.30487804878049,49.390243902439025 50.2540650406504,49.390243902439025 50.10162601626016,49.390243902439025 50,49.390243902439025 49.89837398373984,49.4410569105691 49.796747967479675,49.542682926829265 49.69512195121951,49.69512195121951 49.64430894308943,49.796747967479675 49.59349593495935,49.949186991869915 49.49186991869919,50.05081300813008 49.4410569105691,50.10162601626016 49.390243902439025,50.15243902439024 49.33943089430894,50.203252032520325 49.33943089430894,50.203252032520325 49.28861788617886,50.203252032520325 49.28861788617886,50.203252032520325 49.28861788617886,50.203252032520325 49.28861788617886,50.15243902439024 49.28861788617886,50.10162601626016 49.33943089430894,50.05081300813008 49.4410569105691,49.949186991869915 49.49186991869919,49.84756097560975 49.59349593495935,49.69512195121951 49.69512195121951,49.542682926829265 49.796747967479675,49.390243902439025 49.89837398373984,49.23780487804878 50,49.08536585365854 50.05081300813008,48.93292682926829 50.15243902439024,48.78048780487805 50.203252032520325,48.6280487804878 50.203252032520325,48.52642276422764 50.2540650406504,48.3739837398374 50.2540650406504,48.22154471544715 50.2540650406504,48.11991869918699 50.203252032520325,47.96747967479675 50.15243902439024,47.86585365853659 50.05081300813008,47.764227642276424 49.949186991869915,47.71341463414634 49.84756097560975,47.66260162601626 49.69512195121951,47.61178861788618 49.59349593495935,47.61178861788618 49.4410569105691,47.61178861788618 49.28861788617886,47.61178861788618 49.136178861788615,47.61178861788618 48.93292682926829,47.66260162601626 48.78048780487805,47.764227642276424 48.577235772357724,47.8150406504065 48.323170731707314,47.86585365853659 48.170731707317074,47.916666666666664 47.96747967479675,48.01829268292683 47.8150406504065,48.06910569105691" fill="none" stroke="black" stroke-width="0.6"></polyline><polyline points="47.8150406504065,48.06910569105691 47.66260162601626,48.170731707317074 47.510162601626014,48.27235772357724 47.357723577235774,48.42479674796748 47.25609756097561,48.577235772357724 47.103658536585364,48.729674796747965 47.0020325203252,48.93292682926829 46.90040650406504,49.136178861788615 46.798780487804876,49.28861788617886 46.697154471544714,49.49186991869919 46.646341463414636,49.64430894308943 46.54471544715447,49.89837398373984 46.44308943089431,50.15243902439024 46.34146341463415,50.355691056910565 46.239837398373986,50.609756097560975 46.1890243902439,50.86382113821138 46.13821138211382,51.11788617886179 46.13821138211382,51.32113821138211 46.13821138211382,51.52439024390244 46.13821138211382,51.72764227642276 46.13821138211382,51.981707317073166 46.13821138211382,52.1849593495935 46.239837398373986,52.4390243902439 46.290650406504064,52.642276422764226 46.392276422764226,52.84552845528455 46.54471544715447,52.9979674796748 46.697154471544714,53.201219512195124 46.84959349593496,53.40447154471545 47.0020325203252,53.55691056910569 47.20528455284553,53.65853658536585 47.40853658536585,53.8109756097561 47.66260162601626,53.96341463414634 47.916666666666664,54.11585365853659 48.170731707317074,54.21747967479675 48.47560975609756,54.31910569105691 48.78048780487805,54.420731707317074 49.136178861788615,54.52235772357724 49.4410569105691,54.573170731707314 49.796747967479675,54.6239837398374 50.15243902439024,54.67479674796748 50.45731707317073,54.72560975609756 50.762195121951216,54.77642276422764 51.11788617886179,54.77642276422764 51.47357723577235,54.77642276422764 51.829268292682926,54.77642276422764 52.1849593495935,54.72560975609756 52.540650406504064,54.67479674796748 52.896341463414636,54.6239837398374 53.2520325203252,54.573170731707314 53.55691056910569,54.47154471544715 53.91260162601626,54.420731707317074" fill="none" stroke="black" stroke-width="0.6"></polyline><polyline points="53.91260162601626,54.420731707317074 54.21747967479675,54.36991869918699 54.47154471544715,54.31910569105691 54.77642276422764,54.21747967479675 55.03048780487805,54.11585365853659 55.28455284552845,54.014227642276424 55.58943089430894,53.8109756097561 55.89430894308943,53.65853658536585 56.14837398373984,53.40447154471545 56.40243902439024,53.201219512195124 56.605691056910565,52.947154471544714 56.80894308943089,52.69308943089431 57.012195121951216,52.489837398373986 57.11382113821138,52.28658536585366 57.266260162601625,52.03252032520325 57.36788617886179,51.77845528455284 57.46951219512195,51.52439024390244 57.57113821138211,51.27032520325203 57.672764227642276,50.96544715447154 57.72357723577235,50.609756097560975 57.77439024390244,50.2540650406504 57.825203252032516,49.84756097560975 57.825203252032516,49.49186991869919 57.825203252032516,49.136178861788615 57.825203252032516,48.78048780487805 57.825203252032516,48.42479674796748 57.77439024390244,48.11991869918699 57.72357723577235,47.71341463414634 57.672764227642276,47.357723577235774 57.57113821138211,47.052845528455286 57.46951219512195,46.7479674796748 57.36788617886179,46.44308943089431 57.266260162601625,46.08739837398374 57.11382113821138,45.73170731707317 57.012195121951216,45.325203252032516 56.859756097560975,44.96951219512195 56.70731707317073,44.66463414634146 56.55487804878049,44.359756097560975 56.40243902439024,44.15650406504065 56.25,43.90243902439024 56.09756097560975,43.75 55.89430894308943,43.546747967479675 55.74186991869919,43.34349593495935 55.53861788617886,43.140243902439025 55.386178861788615,42.9369918699187 55.18292682926829,42.733739837398375 54.979674796747965,42.58130081300813 54.77642276422764,42.3780487804878 54.52235772357724,42.22560975609756 54.31910569105691,42.073170731707314 54.11585365853659,41.97154471544715" fill="none" stroke="black" stroke-width="0.6"></polyline><polyline points="54.11585365853659,41.97154471544715 53.86178861788618,41.81910569105691 53.65853658536585,41.71747967479675 53.40447154471545,41.61585365853659 53.15040650406504,41.514227642276424 52.896341463414636,41.41260162601626 52.642276422764226,41.36178861788618 52.38821138211382,41.3109756097561 52.13414634146341,41.209349593495936 51.880081300813,41.15853658536585 51.575203252032516,41.05691056910569 51.32113821138211,41.05691056910569 51.016260162601625,41.00609756097561 50.71138211382114,41.00609756097561 50.40650406504065,41.00609756097561 50.10162601626016,41.00609756097561 49.796747967479675,41.00609756097561 49.49186991869919,41.05691056910569 49.1869918699187,41.107723577235774 48.88211382113821,41.15853658536585 48.577235772357724,41.209349593495936 48.22154471544715,41.260162601626014 47.86585365853659,41.3109756097561 47.5609756097561,41.41260162601626 47.20528455284553,41.46341463414634 46.951219512195124,41.514227642276424 46.646341463414636,41.61585365853659 46.34146341463415,41.71747967479675 46.08739837398374,41.76829268292683 45.88414634146341,41.86991869918699 45.63008130081301,41.97154471544715 45.3760162601626,42.073170731707314 45.172764227642276,42.22560975609756 44.918699186991866,42.3780487804878 44.66463414634146,42.479674796747965 44.46138211382114,42.63211382113821 44.20731707317073,42.78455284552845 44.0040650406504,42.98780487804878 43.80081300813008,43.140243902439025 43.59756097560975,43.34349593495935 43.39430894308943,43.49593495934959 43.24186991869919,43.699186991869915 42.98780487804878,43.953252032520325 42.78455284552845,44.15650406504065 42.63211382113821,44.41056910569105 42.3780487804878,44.71544715447154 42.22560975609756,44.918699186991866 42.073170731707314,45.22357723577235 41.920731707317074,45.47764227642276 41.76829268292683,45.78252032520325 41.61585365853659,46.03658536585366" fill="none" stroke="black" stroke-width="0.6"></polyline><polyline points="41.61585365853659,46.03658536585366 41.46341463414634,46.34146341463415 41.36178861788618,46.59552845528455 41.209349593495936,46.84959349593496 41.05691056910569,47.15447154471545 40.90447154471545,47.40853658536585 40.7520325203252,47.66260162601626 40.65040650406504,47.96747967479675 40.548780487804876,48.22154471544715 40.447154471544714,48.52642276422764 40.34552845528455,48.78048780487805 40.29471544715447,49.03455284552845 40.24390243902439,49.28861788617886 40.19308943089431,49.542682926829265 40.142276422764226,49.84756097560975 40.142276422764226,50.10162601626016 40.142276422764226,50.40650406504065 40.09146341463415,50.66056910569105 40.09146341463415,50.91463414634146 40.09146341463415,51.168699186991866 40.09146341463415,51.422764227642276 40.09146341463415,51.6260162601626 40.09146341463415,51.829268292682926 40.09146341463415,52.03252032520325 40.142276422764226,52.28658536585366 40.19308943089431,52.540650406504064 40.24390243902439,52.74390243902439 40.29471544715447,52.9979674796748 40.396341463414636,53.2520325203252 40.447154471544714,53.50609756097561 40.548780487804876,53.760162601626014 40.59959349593496,54.014227642276424 40.701219512195124,54.26829268292683 40.802845528455286,54.52235772357724 40.90447154471545,54.77642276422764 41.05691056910569,54.979674796747965 41.15853658536585,55.233739837398375 41.3109756097561,55.48780487804878 41.41260162601626,55.6910569105691 41.5650406504065,55.94512195121951 41.71747967479675,56.14837398373984 41.81910569105691,56.35162601626016 42.02235772357724,56.605691056910565 42.17479674796748,56.859756097560975 42.327235772357724,57.0630081300813 42.53048780487805,57.3170731707317 42.68292682926829,57.52032520325203 42.886178861788615,57.72357723577235 43.08943089430894,57.92682926829268 43.24186991869919,58.130081300813 43.44512195121951,58.28252032520325" fill="none" stroke="black" stroke-width="0.6"></polyline><polyline points="43.44512195121951,58.28252032520325 43.64837398373984,58.485772357723576 43.80081300813008,58.63821138211382 44.0040650406504,58.790650406504064 44.20731707317073,58.99390243902439 44.41056910569105,59.146341463414636 44.61382113821138,59.298780487804876 44.86788617886179,59.5020325203252 45.07113821138211,59.603658536585364 45.27439024390244,59.75609756097561 45.52845528455285,59.90853658536585 45.73170731707317,60.010162601626014 45.9349593495935,60.11178861788618 46.1890243902439,60.21341463414634 46.392276422764226,60.3150406504065 46.59552845528455,60.416666666666664 46.84959349593496,60.51829268292683 47.103658536585364,60.56910569105691 47.30691056910569,60.670731707317074 47.5609756097561,60.72154471544715 47.8150406504065,60.77235772357724 48.01829268292683,60.8739837398374 48.323170731707314,60.92479674796748 48.577235772357724,60.97560975609756 48.83130081300813,61.02642276422764 49.136178861788615,61.077235772357724 49.4410569105691,61.1280487804878 49.69512195121951,61.1280487804878 50.05081300813008,61.1280487804878 50.30487804878049,61.1280487804878 50.609756097560975,61.1280487804878 50.91463414634146,61.077235772357724 51.27032520325203,61.077235772357724 51.575203252032516,61.02642276422764 51.880081300813,60.97560975609756 52.1849593495935,60.97560975609756 52.489837398373986,60.92479674796748 52.74390243902439,60.92479674796748 53.048780487804876,60.8739837398374 53.353658536585364,60.823170731707314 53.65853658536585,60.77235772357724 53.96341463414634,60.72154471544715 54.26829268292683,60.61991869918699 54.573170731707314,60.51829268292683 54.827235772357724,60.416666666666664 55.08130081300813,60.264227642276424 55.386178861788615,60.16260162601626 55.640243902439025,60.0609756097561 55.89430894308943,59.959349593495936 56.199186991869915,59.90853658536585 56.453252032520325,59.80691056910569" fill="none" stroke="black" stroke-width="0.6"></polyline><polyline points="56.453252032520325,59.80691056910569 56.70731707317073,59.70528455284553 56.96138211382114,59.603658536585364 57.21544715447154,59.5020325203252 57.46951219512195,59.40040650406504 57.672764227642276,59.298780487804876 57.8760162601626,59.146341463414636 58.130081300813,58.99390243902439 58.33333333333333,58.84146341463415 58.536585365853654,58.63821138211382 58.790650406504064,58.43495934959349 58.94308943089431,58.28252032520325 59.146341463414636,58.079268292682926 59.34959349593496,57.8760162601626 59.552845528455286,57.72357723577235 59.75609756097561,57.52032520325203 59.959349593495936,57.3170731707317 60.11178861788618,57.16463414634146 60.3150406504065,56.96138211382114 60.51829268292683,56.75813008130081 60.670731707317074,56.55487804878049 60.8739837398374,56.35162601626016 61.02642276422764,56.09756097560975 61.17886178861789,55.94512195121951 61.33130081300813,55.74186991869919 61.53455284552845,55.53861788617886 61.636178861788615,55.33536585365854 61.83943089430894,55.13211382113821 61.99186991869919,54.92886178861789 62.09349593495935,54.72560975609756 62.24593495934959,54.52235772357724 62.39837398373984,54.26829268292683 62.5,54.0650406504065 62.60162601626016,53.8109756097561 62.7540650406504,53.50609756097561 62.855691056910565,53.302845528455286 62.95731707317073,53.09959349593496 63.05894308943089,52.84552845528455 63.16056910569105,52.59146341463415 63.21138211382114,52.33739837398374 63.3130081300813,52.03252032520325 63.36382113821138,51.77845528455284 63.46544715447154,51.52439024390244 63.516260162601625,51.21951219512195 63.5670731707317,50.96544715447154 63.5670731707317,50.71138211382114 63.61788617886179,50.40650406504065 63.61788617886179,50.10162601626016 63.668699186991866,49.796747967479675 63.668699186991866,49.49186991869919 63.668699186991866,49.23780487804878" fill="none" stroke="black" stroke-width="0.6"></polyline><polyline points="63.668699186991866,49.23780487804878 63.668699186991866,48.93292682926829 63.668699186991866,48.6280487804878 63.668699186991866,48.3739837398374 63.668699186991866,48.01829268292683 63.668699186991866,47.66260162601626 63.668699186991866,47.357723577235774 63.668699186991866,47.0020325203252 63.668699186991866,46.697154471544714 63.668699186991866,46.392276422764226 63.61788617886179,46.08739837398374 63.5670731707317,45.78252032520325 63.516260162601625,45.47764227642276 63.41463414634146,45.172764227642276 63.3130081300813,44.918699186991866 63.21138211382114,44.61382113821138 63.05894308943089,44.359756097560975 62.90650406504065,44.05487804878049 62.80487804878049,43.80081300813008 62.65243902439024,43.49593495934959 62.5,43.24186991869919 62.34756097560975,42.98780487804878 62.19512195121951,42.68292682926829 62.09349593495935,42.42886178861789 61.9410569105691,42.22560975609756 61.73780487804878,41.97154471544715 61.58536585365854,41.71747967479675 61.43292682926829,41.46341463414634 61.28048780487805,41.15853658536585 61.077235772357724,40.90447154471545 60.92479674796748,40.65040650406504 60.72154471544715,40.34552845528455 60.56910569105691,40.09146341463415 60.36585365853659,39.83739837398374 60.11178861788618,39.583333333333336 59.90853658536585,39.38008130081301 59.70528455284553,39.176829268292686 59.5020325203252,38.97357723577235 59.298780487804876,38.77032520325203 59.09552845528455,38.61788617886179 58.84146341463415,38.41463414634146 58.63821138211382,38.262195121951216 58.43495934959349,38.05894308943089 58.18089430894309,37.855691056910565 57.97764227642276,37.703252032520325 57.72357723577235,37.55081300813008 57.418699186991866,37.34756097560975 57.16463414634146,37.24593495934959 56.91056910569105,37.09349593495935 56.605691056910565,36.9410569105691 56.35162601626016,36.83943089430894" fill="none" stroke="black" stroke-width="0.6"></polyline><polyline points="56.35162601626016,36.83943089430894 56.046747967479675,36.6869918699187 55.74186991869919,36.483739837398375 55.4369918699187,36.38211382113821 55.13211382113821,36.229674796747965 54.827235772357724,36.1280487804878 54.52235772357724,36.02642276422764 54.26829268292683,35.92479674796748 53.91260162601626,35.8739837398374 53.607723577235774,35.77235772357724 53.302845528455286,35.72154471544715 52.947154471544714,35.670731707317074 52.59146341463415,35.61991869918699 52.235772357723576,35.56910569105691 51.880081300813,35.46747967479675 51.575203252032516,35.416666666666664 51.21951219512195,35.416666666666664 50.86382113821138,35.36585365853659 50.50813008130081,35.36585365853659 50.203252032520325,35.3150406504065 49.84756097560975,35.3150406504065 49.49186991869919,35.3150406504065 49.1869918699187,35.3150406504065 48.88211382113821,35.3150406504065 48.577235772357724,35.3150406504065 48.27235772357724,35.3150406504065 47.96747967479675,35.36585365853659 47.764227642276424,35.36585365853659 47.510162601626014,35.36585365853659 47.25609756097561,35.36585365853659 47.052845528455286,35.36585365853659 46.84959349593496,35.36585365853659 46.59552845528455,35.36585365853659 46.392276422764226,35.36585365853659 46.1890243902439,35.36585365853659 45.9349593495935,35.36585365853659 45.73170731707317,35.36585365853659 45.52845528455285,35.416666666666664 45.27439024390244,35.416666666666664 45.07113821138211,35.51829268292683 44.8170731707317,35.56910569105691 44.5630081300813,35.61991869918699 44.30894308943089,35.670731707317074 44.05487804878049,35.77235772357724 43.80081300813008,35.8739837398374 43.546747967479675,35.97560975609756 43.24186991869919,36.02642276422764 43.03861788617886,36.1280487804878 42.78455284552845,36.229674796747965 42.53048780487805,36.33130081300813 42.27642276422764,36.43292682926829" fill="none" stroke="black" stroke-width="0.6"></polyline><polyline points="42.27642276422764,36.43292682926829 41.97154471544715,36.53455284552845 41.666666666666664,36.6869918699187 41.41260162601626,36.890243902439025 41.05691056910569,37.09349593495935 40.701219512195124,37.296747967479675 40.396341463414636,37.55081300813008 40.040650406504064,37.80487804878049 39.63414634146341,38.109756097560975 39.329268292682926,38.36382113821138 38.97357723577235,38.668699186991866 38.61788617886179,38.97357723577235 38.3130081300813,39.27845528455285 38.00813008130081,39.53252032520325 37.65243902439024,39.83739837398374 37.39837398373984,40.142276422764226 37.14430894308943,40.396341463414636 36.890243902439025,40.701219512195124 36.6869918699187,40.95528455284553 36.483739837398375,41.209349593495936 36.28048780487805,41.46341463414634 36.077235772357724,41.71747967479675 35.92479674796748,41.97154471544715 35.77235772357724,42.22560975609756 35.61991869918699,42.479674796747965 35.46747967479675,42.733739837398375 35.3150406504065,43.03861788617886 35.21341463414634,43.34349593495935 35.0609756097561,43.699186991869915 34.959349593495936,44.0040650406504 34.857723577235774,44.30894308943089 34.70528455284553,44.61382113821138 34.603658536585364,44.918699186991866 34.5020325203252,45.22357723577235 34.40040650406504,45.52845528455285 34.298780487804876,45.833333333333336 34.2479674796748,46.1890243902439 34.146341463414636,46.49390243902439 34.04471544715447,46.84959349593496 33.94308943089431,47.15447154471545 33.892276422764226,47.40853658536585 33.84146341463415,47.764227642276424 33.790650406504064,48.06910569105691 33.739837398373986,48.3739837398374 33.6890243902439,48.729674796747965 33.63821138211382,49.03455284552845 33.63821138211382,49.390243902439025 33.58739837398374,49.74593495934959 33.58739837398374,50.10162601626016 33.53658536585366,50.50813008130081 33.53658536585366,50.86382113821138" fill="none" stroke="black" stroke-width="0.6"></polyline><polyline points="33.53658536585366,50.86382113821138 33.53658536585366,51.27032520325203 33.53658536585366,51.6260162601626 33.53658536585366,52.083333333333336 33.53658536585366,52.489837398373986 33.53658536585366,52.896341463414636 33.53658536585366,53.353658536585364 33.53658536585366,53.760162601626014 33.53658536585366,54.166666666666664 33.58739837398374,54.52235772357724 33.63821138211382,54.8780487804878 33.739837398373986,55.233739837398375 33.790650406504064,55.48780487804878 33.892276422764226,55.792682926829265 34.04471544715447,56.09756097560975 34.146341463414636,56.40243902439024 34.2479674796748,56.70731707317073 34.40040650406504,57.012195121951216 34.552845528455286,57.3170731707317 34.70528455284553,57.62195121951219 34.857723577235774,57.92682926829268 35.010162601626014,58.231707317073166 35.16260162601626,58.536585365853654 35.36585365853659,58.84146341463415 35.51829268292683,59.197154471544714 35.72154471544715,59.5020325203252 35.8739837398374,59.80691056910569 36.077235772357724,60.0609756097561 36.229674796747965,60.3150406504065 36.43292682926829,60.56910569105691 36.636178861788615,60.823170731707314 36.78861788617886,61.077235772357724 37.042682926829265,61.33130081300813 37.19512195121951,61.58536585365854 37.39837398373984,61.78861788617886 37.60162601626016,62.09349593495935 37.7540650406504,62.34756097560975 37.95731707317073,62.55081300813008 38.21138211382114,62.855691056910565 38.41463414634146,63.05894308943089 38.61788617886179,63.262195121951216 38.82113821138211,63.46544715447154 39.02439024390244,63.668699186991866 39.22764227642276,63.87195121951219 39.43089430894309,64.07520325203252 39.63414634146341,64.27845528455285 39.83739837398374,64.48170731707317 40.040650406504064,64.6849593495935 40.29471544715447,64.83739837398373 40.4979674796748,65.04065040650406 40.7520325203252,65.2439024390244" fill="none" stroke="black" stroke-width="0.6"></polyline><polyline points="40.7520325203252,65.2439024390244 41.00609756097561,65.39634146341463 41.260162601626014,65.59959349593495 41.514227642276424,65.7520325203252 41.76829268292683,65.90447154471545 42.02235772357724,66.0060975609756 42.327235772357724,66.15853658536585 42.63211382113821,66.3109756097561 42.886178861788615,66.46341463414635 43.24186991869919,66.61585365853658 43.546747967479675,66.71747967479675 43.85162601626016,66.869918699187 44.15650406504065,66.97154471544715 44.46138211382114,67.1239837398374 44.8170731707317,67.22560975609755 45.12195121951219,67.32723577235772 45.47764227642276,67.42886178861788 45.78252032520325,67.53048780487805 46.13821138211382,67.58130081300813 46.49390243902439,67.6321138211382 46.84959349593496,67.73373983739837 47.20528455284553,67.78455284552845 47.510162601626014,67.88617886178862 47.86585365853659,67.9369918699187 48.22154471544715,68.03861788617886 48.52642276422764,68.08943089430895 48.88211382113821,68.14024390243902 49.1869918699187,68.14024390243902 49.49186991869919,68.1910569105691 49.84756097560975,68.1910569105691 50.10162601626016,68.1910569105691 50.40650406504065,68.1910569105691 50.762195121951216,68.1910569105691 51.0670731707317,68.1910569105691 51.37195121951219,68.1910569105691 51.72764227642276,68.24186991869918 52.03252032520325,68.24186991869918 52.33739837398374,68.29268292682927 52.642276422764226,68.29268292682927 52.9979674796748,68.29268292682927 53.302845528455286,68.29268292682927 53.65853658536585,68.29268292682927 54.014227642276424,68.24186991869918 54.31910569105691,68.1910569105691 54.72560975609756,68.14024390243902 55.03048780487805,68.08943089430895 55.4369918699187,68.03861788617886 55.84349593495935,67.98780487804878 56.199186991869915,67.9369918699187 56.605691056910565,67.83536585365853 57.0630081300813,67.73373983739837" fill="none" stroke="black" stroke-width="0.6"></polyline><polyline points="57.0630081300813,67.73373983739837 57.46951219512195,67.6321138211382 57.8760162601626,67.47967479674797 58.33333333333333,67.32723577235772 58.739837398373986,67.1239837398374 59.197154471544714,66.97154471544715 59.65447154471545,66.76829268292683 60.11178861788618,66.5650406504065 60.56910569105691,66.36178861788618 61.02642276422764,66.10772357723577 61.43292682926829,65.90447154471545 61.890243902439025,65.65040650406505 62.296747967479675,65.44715447154472 62.7540650406504,65.1930894308943 63.16056910569105,64.9390243902439 63.5670731707317,64.6341463414634 63.922764227642276,64.380081300813 64.32926829268293,64.1260162601626 64.6849593495935,63.82113821138211 65.04065040650406,63.5670731707317 65.34552845528455,63.262195121951216 65.70121951219512,62.95731707317073 66.0060975609756,62.65243902439024 66.3109756097561,62.24593495934959 66.66666666666667,61.890243902439025 66.92073170731707,61.53455284552845 67.22560975609755,61.17886178861789 67.47967479674797,60.77235772357724 67.73373983739837,60.416666666666664 67.98780487804878,60.0609756097561 68.1910569105691,59.70528455284553 68.39430894308943,59.40040650406504 68.59756097560975,59.04471544715447 68.80081300813008,58.63821138211382 68.95325203252033,58.28252032520325 69.10569105691057,57.8760162601626 69.2581300813008,57.46951219512195 69.35975609756098,57.11382113821138 69.46138211382113,56.70731707317073 69.5630081300813,56.25 69.61382113821138,55.89430894308943 69.71544715447155,55.48780487804878 69.76626016260163,55.08130081300813 69.8170731707317,54.72560975609756 69.8170731707317,54.36991869918699 69.86788617886178,53.91260162601626 69.86788617886178,53.50609756097561 69.91869918699187,53.048780487804876 69.91869918699187,52.59146341463415 69.91869918699187,52.13414634146341 69.91869918699187,51.6260162601626" fill="none" stroke="black" stroke-width="0.6"></polyline><polyline points="69.91869918699187,51.6260162601626 69.91869918699187,51.168699186991866 69.91869918699187,50.71138211382114 69.96951219512195,50.203252032520325 69.96951219512195,49.74593495934959 69.96951219512195,49.33943089430894 69.96951219512195,48.93292682926829 69.91869918699187,48.577235772357724 69.86788617886178,48.170731707317074 69.8170731707317,47.764227642276424 69.76626016260163,47.357723577235774 69.71544715447155,46.951219512195124 69.61382113821138,46.49390243902439 69.5630081300813,46.03658536585366 69.51219512195122,45.579268292682926 69.41056910569105,45.02032520325203 69.3089430894309,44.61382113821138 69.20731707317073,44.25813008130081 69.10569105691057,43.80081300813008 68.95325203252033,43.44512195121951 68.85162601626016,43.03861788617886 68.69918699186992,42.63211382113821 68.4959349593496,42.27642276422764 68.34349593495935,41.920731707317074 68.08943089430895,41.514227642276424 67.9369918699187,41.15853658536585 67.6829268292683,40.7520325203252 67.42886178861788,40.396341463414636 67.22560975609755,40.040650406504064 66.97154471544715,39.735772357723576 66.66666666666667,39.329268292682926 66.41260162601625,38.97357723577235 66.15853658536585,38.61788617886179 65.85365853658537,38.262195121951216 65.59959349593495,37.90650406504065 65.34552845528455,37.55081300813008 65.04065040650406,37.19512195121951 64.73577235772358,36.83943089430894 64.380081300813,36.483739837398375 64.02439024390243,36.1280487804878 63.71951219512195,35.823170731707314 63.41463414634146,35.46747967479675 63.109756097560975,35.11178861788618 62.80487804878049,34.80691056910569 62.55081300813008,34.451219512195124 62.24593495934959,34.146341463414636 61.99186991869919,33.84146341463415 61.6869918699187,33.58739837398374 61.38211382113821,33.28252032520325 61.1280487804878,32.97764227642276 60.823170731707314,32.72357723577236" fill="none" stroke="black" stroke-width="0.6"></polyline><polyline points="60.823170731707314,32.72357723577236 60.46747967479675,32.418699186991866 60.16260162601626,32.16463414634146 59.146341463414636,31.453252032520325 58.790650406504064,31.25 58.43495934959349,30.995934959349594 58.079268292682926,30.741869918699187 57.72357723577235,30.48780487804878 57.36788617886179,30.233739837398375 57.012195121951216,30.03048780487805 56.65650406504065,29.878048780487806 56.25,29.725609756097562 55.89430894308943,29.573170731707318 55.4369918699187,29.471544715447155 55.03048780487805,29.369918699186993 54.6239837398374,29.268292682926827 54.166666666666664,29.115853658536583 53.8109756097561,29.01422764227642 53.353658536585364,28.912601626016258 52.896341463414636,28.810975609756095 52.540650406504064,28.760162601626014 52.13414634146341,28.709349593495933 51.72764227642276,28.60772357723577 51.32113821138211,28.55691056910569 50.91463414634146,28.55691056910569 50.45731707317073,28.506097560975608 50.10162601626016,28.506097560975608 49.69512195121951,28.455284552845526 49.23780487804878,28.455284552845526 48.83130081300813,28.404471544715445 48.42479674796748,28.404471544715445 47.96747967479675,28.353658536585364 47.5609756097561,28.353658536585364 47.15447154471545,28.353658536585364 46.646341463414636,28.353658536585364 46.239837398373986,28.404471544715445 45.833333333333336,28.455284552845526 45.325203252032516,28.506097560975608 44.96951219512195,28.60772357723577 44.512195121951216,28.65853658536585 44.105691056910565,28.760162601626014 43.75,28.861788617886177 43.34349593495935,28.96341463414634 42.9369918699187,29.0650406504065 42.58130081300813,29.217479674796746 42.17479674796748,29.31910569105691 41.81910569105691,29.471544715447155 41.46341463414634,29.573170731707318 41.15853658536585,29.725609756097562 40.802845528455286,29.827235772357724 40.4979674796748,29.928861788617887" fill="none" stroke="black" stroke-width="0.6"></polyline><polyline points="40.4979674796748,29.928861788617887 40.19308943089431,30.08130081300813 39.88821138211382,30.233739837398375 39.583333333333336,30.38617886178862 39.329268292682926,30.538617886178862 39.02439024390244,30.741869918699187 38.71951219512195,30.945121951219512 38.46544715447154,31.148373983739837 38.16056910569105,31.351626016260163 37.855691056910565,31.554878048780488 37.55081300813008,31.808943089430894 37.24593495934959,32.0630081300813 36.99186991869919,32.3170731707317 36.6869918699187,32.6219512195122 36.43292682926829,32.926829268292686 36.1280487804878,33.18089430894309 35.823170731707314,33.485772357723576 35.56910569105691,33.790650406504064 35.264227642276424,34.04471544715447 35.010162601626014,34.34959349593496 34.70528455284553,34.70528455284553 34.451219512195124,35.010162601626014 34.146341463414636,35.36585365853659 33.84146341463415,35.77235772357724 33.58739837398374,36.077235772357724 33.28252032520325,36.43292682926829 32.97764227642276,36.83943089430894 32.72357723577236,37.19512195121951 32.46951219512195,37.60162601626016 32.16463414634146,38.00813008130081 31.910569105691057,38.3130081300813 31.65650406504065,38.668699186991866 31.402439024390244,39.02439024390244 31.19918699186992,39.43089430894309 30.945121951219512,39.83739837398374 30.79268292682927,40.19308943089431 30.589430894308943,40.548780487804876 30.4369918699187,40.95528455284553 30.284552845528456,41.260162601626014 30.132113821138212,41.61585365853659 29.979674796747968,42.02235772357724 29.827235772357724,42.327235772357724 29.725609756097562,42.63211382113821 29.6239837398374,42.9369918699187 29.522357723577237,43.1910569105691 29.420731707317074,43.49593495934959 29.31910569105691,43.80081300813008 29.268292682926827,44.105691056910565 29.166666666666664,44.41056910569105 29.115853658536583,44.766260162601625 29.01422764227642,45.07113821138211" fill="none" stroke="black" stroke-width="0.6"></polyline><polyline points="29.01422764227642,45.07113821138211 28.912601626016258,45.3760162601626 28.861788617886177,45.73170731707317 28.760162601626014,46.03658536585366 28.709349593495933,46.392276422764226 28.65853658536585,46.7479674796748 28.60772357723577,47.052845528455286 28.55691056910569,47.40853658536585 28.506097560975608,47.8150406504065 28.455284552845526,48.170731707317074 28.404471544715445,48.577235772357724 28.353658536585364,49.03455284552845 28.302845528455283,49.4410569105691 28.2520325203252,49.84756097560975 28.2520325203252,50.2540650406504 28.20121951219512,50.66056910569105 28.20121951219512,51.0670731707317 28.15040650406504,51.47357723577235 28.15040650406504,51.880081300813 28.099593495934958,52.28658536585366 28.099593495934958,52.74390243902439 28.099593495934958,53.201219512195124 28.099593495934958,53.65853658536585 28.099593495934958,54.0650406504065 28.099593495934958,54.47154471544715 28.099593495934958,54.8780487804878 28.099593495934958,55.33536585365854 28.15040650406504,55.74186991869919 28.20121951219512,56.14837398373984 28.2520325203252,56.55487804878049 28.2520325203252,56.96138211382114 28.353658536585364,57.36788617886179 28.404471544715445,57.77439024390244 28.506097560975608,58.130081300813 28.60772357723577,58.485772357723576 28.709349593495933,58.892276422764226 28.810975609756095,59.2479674796748 28.96341463414634,59.65447154471545 29.115853658536583,60.010162601626014 29.217479674796746,60.36585365853659 29.369918699186993,60.77235772357724 29.522357723577237,61.17886178861789 29.67479674796748,61.53455284552845 29.878048780487806,61.890243902439025 30.08130081300813,62.24593495934959 30.233739837398375,62.60162601626016 30.4369918699187,62.95731707317073 30.640243902439025,63.36382113821138 30.89430894308943,63.77032520325203 31.097560975609756,64.1260162601626 31.351626016260163,64.48170731707317" fill="none" stroke="black" stroke-width="0.6"></polyline><polyline points="31.351626016260163,64.48170731707317 31.60569105691057,64.83739837398373 31.910569105691057,65.1930894308943 32.16463414634146,65.54878048780488 32.46951219512195,65.85365853658537 32.77439024390244,66.20934959349593 33.02845528455285,66.51422764227642 33.333333333333336,66.8191056910569 33.6890243902439,67.17479674796748 33.99390243902439,67.47967479674797 34.298780487804876,67.78455284552845 34.65447154471545,68.08943089430895 34.959349593495936,68.39430894308943 35.264227642276424,68.69918699186992 35.61991869918699,68.95325203252033 35.92479674796748,69.20731707317073 36.28048780487805,69.51219512195122 36.636178861788615,69.8170731707317 36.9410569105691,70.0711382113821 37.24593495934959,70.32520325203252 37.60162601626016,70.57926829268293 37.95731707317073,70.78252032520325 38.3130081300813,70.9349593495935 38.71951219512195,71.13821138211382 39.07520325203252,71.29065040650406 39.43089430894309,71.4430894308943 39.83739837398374,71.64634146341463 40.24390243902439,71.79878048780488 40.701219512195124,71.95121951219512 41.15853658536585,72.10365853658537 41.5650406504065,72.2560975609756 41.97154471544715,72.40853658536585 42.42886178861789,72.51016260162602 42.886178861788615,72.61178861788618 43.34349593495935,72.76422764227642 43.80081300813008,72.8150406504065 44.20731707317073,72.91666666666667 44.66463414634146,72.96747967479675 45.172764227642276,73.0691056910569 45.579268292682926,73.17073170731707 46.03658536585366,73.22154471544715 46.54471544715447,73.27235772357723 47.052845528455286,73.32317073170732 47.5609756097561,73.3739837398374 48.06910569105691,73.3739837398374 48.52642276422764,73.42479674796748 48.983739837398375,73.42479674796748 49.4410569105691,73.47560975609755 49.89837398373984,73.47560975609755 50.30487804878049,73.52642276422765 50.762195121951216,73.57723577235772" fill="none" stroke="black" stroke-width="0.6"></polyline><polyline points="50.762195121951216,73.57723577235772 51.168699186991866,73.57723577235772 51.6260162601626,73.6280487804878 52.03252032520325,73.6280487804878 52.4390243902439,73.6280487804878 52.84552845528455,73.6280487804878 53.302845528455286,73.57723577235772 53.65853658536585,73.57723577235772 54.0650406504065,73.57723577235772 54.47154471544715,73.57723577235772 54.827235772357724,73.57723577235772 55.233739837398375,73.52642276422765 55.640243902439025,73.52642276422765 55.99593495934959,73.52642276422765 56.35162601626016,73.47560975609755 56.75813008130081,73.42479674796748 57.11382113821138,73.3739837398374 57.46951219512195,73.27235772357723 57.8760162601626,73.17073170731707 58.28252032520325,73.0691056910569 58.739837398373986,72.91666666666667 59.146341463414636,72.76422764227642 59.552845528455286,72.61178861788618 59.959349593495936,72.40853658536585 60.36585365853659,72.2560975609756 60.77235772357724,72.05284552845528 61.229674796747965,71.84959349593495 61.636178861788615,71.64634146341463 62.042682926829265,71.39227642276423 62.5,71.13821138211382 62.90650406504065,70.9349593495935 63.3130081300813,70.73170731707317 63.71951219512195,70.47764227642276 64.1260162601626,70.22357723577235 64.53252032520325,69.91869918699187 64.98983739837398,69.61382113821138 65.39634146341463,69.3089430894309 65.80284552845528,68.95325203252033 66.20934959349593,68.64837398373983 66.61585365853658,68.34349593495935 67.02235772357723,67.98780487804878 67.42886178861788,67.58130081300813 67.83536585365853,67.27642276422765 68.1910569105691,66.869918699187 68.64837398373983,66.51422764227642 69.05487804878048,66.15853658536585 69.46138211382113,65.7520325203252 69.91869918699187,65.29471544715447 70.32520325203252,64.83739837398373 70.73170731707317,64.43089430894308 71.23983739837398,63.97357723577235" fill="none" stroke="black" stroke-width="0.6"></polyline><polyline points="71.23983739837398,63.97357723577235 71.64634146341463,63.5670731707317 72.0020325203252,63.16056910569105 72.40853658536585,62.7540650406504 72.8150406504065,62.34756097560975 73.17073170731707,61.890243902439025 73.57723577235772,61.483739837398375 73.8821138211382,61.077235772357724 74.1869918699187,60.61991869918699 74.49186991869918,60.21341463414634 74.79674796747967,59.80691056910569 75.05081300813008,59.40040650406504 75.30487804878048,58.94308943089431 75.5589430894309,58.536585365853654 75.76219512195122,58.130081300813 75.96544715447155,57.77439024390244 76.11788617886178,57.418699186991866 76.27032520325203,57.012195121951216 76.42276422764228,56.605691056910565 76.52439024390243,56.199186991869915 76.6260162601626,55.792682926829265 76.77845528455285,55.33536585365854 76.880081300813,54.92886178861789 76.98170731707317,54.47154471544715 77.1341463414634,54.014227642276424 77.23577235772358,53.65853658536585 77.33739837398373,53.302845528455286 77.4390243902439,52.947154471544714 77.48983739837398,52.642276422764226 77.59146341463415,52.28658536585366 77.64227642276423,51.981707317073166 77.6930894308943,51.72764227642276 77.6930894308943,51.47357723577235 77.74390243902438,51.27032520325203 77.74390243902438,51.016260162601625 77.74390243902438,50.8130081300813 77.74390243902438,50.609756097560975 77.74390243902438,50.40650406504065 77.6930894308943,50.203252032520325 77.64227642276423,50.10162601626016 77.59146341463415,49.949186991869915 77.59146341463415,49.84756097560975 77.54065040650406,49.74593495934959 77.54065040650406,49.69512195121951 77.54065040650406,49.64430894308943 77.48983739837398,49.64430894308943 77.48983739837398,49.59349593495935 77.48983739837398,49.59349593495935 77.48983739837398,49.59349593495935 77.48983739837398,49.59349593495935 77.48983739837398,49.59349593495935" fill="none" stroke="black" stroke-width="0.6"></polyline><polyline points="77.48983739837398,49.59349593495935 77.48983739837398,49.59349593495935 77.48983739837398,49.59349593495935 77.48983739837398,49.59349593495935 77.54065040650406,49.59349593495935 77.59146341463415,49.64430894308943" fill="none" stroke="black" stroke-width="0.6"></polyline></svg>