<svg height="100" width="100" preserveAspectRatio="xMidYMid meet"><polyline points="50.05081300813008,50.10162601626016 50.05081300813008,50.10162601626016 50,50.05081300813008 49.949186991869915,50.05081300813008 49.949186991869915,50 49.949186991869915,50 50,50 50.10162601626016,50 50.203252032520325,50 50.355691056910565,49.949186991869915 50.45731707317073,49.89837398373984 50.609756097560975,49.84756097560975 50.762195121951216,49.796747967479675 50.91463414634146,49.69512195121951 51.016260162601625,49.64430894308943 51.168699186991866,49.542682926829265 51.32113821138211,49.390243902439025 51.422764227642276,49.28861788617886 51.47357723577235,49.136178861788615 51.575203252032516,48.983739837398375 51.6260162601626,48.78048780487805 51.6260162601626,48.6280487804878 51.6260162601626,48.42479674796748 51.6260162601626,48.22154471544715 51.6260162601626,47.96747967479675 51.575203252032516,47.764227642276424 51.52439024390244,47.510162601626014 51.422764227642276,47.30691056910569 51.27032520325203,47.15447154471545 51.11788617886179,46.951219512195124 50.91463414634146,46.798780487804876 50.762195121951216,46.646341463414636 50.50813008130081,46.54471544715447 50.2540650406504,46.392276422764226 50.05081300813008,46.290650406504064 49.796747967479675,46.1890243902439 49.49186991869919,46.08739837398374 49.23780487804878,45.985772357723576 49.03455284552845,45.9349593495935 48.729674796747965,45.88414634146341 48.47560975609756,45.88414634146341 48.27235772357724,45.88414634146341 48.01829268292683,45.88414634146341 47.764227642276424,45.88414634146341 47.5609756097561,45.985772357723576 47.30691056910569,46.03658536585366 47.103658536585364,46.13821138211382 46.84959349593496,46.290650406504064 46.59552845528455,46.44308943089431 46.392276422764226,46.646341463414636 46.13821138211382,46.798780487804876" fill="none" stroke="black" stroke-width="0.6"></polyline><polyline points="46.13821138211382,46.798780487804876 45.9349593495935,47.052845528455286 45.78252032520325,47.20528455284553 45.63008130081301,47.459349593495936 45.47764227642276,47.66260162601626 45.3760162601626,47.86585365853659 45.325203252032516,48.11991869918699 45.27439024390244,48.323170731707314 45.22357723577235,48.577235772357724 45.22357723577235,48.78048780487805 45.22357723577235,49.03455284552845 45.22357723577235,49.23780487804878 45.22357723577235,49.4410569105691 45.22357723577235,49.69512195121951 45.27439024390244,49.949186991869915 45.325203252032516,50.203252032520325 45.325203252032516,50.50813008130081 45.42682926829268,50.762195121951216 45.47764227642276,51.016260162601625 45.52845528455285,51.32113821138211 45.63008130081301,51.575203252032516 45.68089430894309,51.829268292682926 45.78252032520325,52.083333333333336 45.88414634146341,52.38821138211382 45.985772357723576,52.642276422764226 46.13821138211382,52.896341463414636 46.239837398373986,53.09959349593496 46.392276422764226,53.353658536585364 46.59552845528455,53.55691056910569 46.7479674796748,53.760162601626014 46.951219512195124,53.96341463414634 47.20528455284553,54.166666666666664 47.40853658536585,54.31910569105691 47.61178861788618,54.47154471544715 47.916666666666664,54.6239837398374 48.11991869918699,54.72560975609756 48.3739837398374,54.827235772357724 48.67886178861789,54.92886178861789 48.93292682926829,55.03048780487805 49.28861788617886,55.13211382113821 49.542682926829265,55.18292682926829 49.84756097560975,55.18292682926829 50.203252032520325,55.233739837398375 50.45731707317073,55.233739837398375 50.8130081300813,55.233739837398375 51.11788617886179,55.18292682926829 51.422764227642276,55.13211382113821 51.72764227642276,55.03048780487805 52.083333333333336,54.8780487804878 52.33739837398374,54.77642276422764 52.59146341463415,54.6239837398374" fill="none" stroke="black" stroke-width="0.6"></polyline><polyline points="52.59146341463415,54.6239837398374 52.896341463414636,54.420731707317074 53.15040650406504,54.26829268292683 53.40447154471545,54.11585365853659 53.65853658536585,53.86178861788618 53.86178861788618,53.65853658536585 54.0650406504065,53.40447154471545 54.26829268292683,53.15040650406504 54.420731707317074,52.896341463414636 54.573170731707314,52.642276422764226 54.72560975609756,52.38821138211382 54.77642276422764,52.13414634146341 54.8780487804878,51.93089430894309 54.92886178861789,51.6260162601626 55.03048780487805,51.37195121951219 55.08130081300813,51.0670731707317 55.13211382113821,50.762195121951216 55.18292682926829,50.50813008130081 55.18292682926829,50.15243902439024 55.233739837398375,49.796747967479675 55.233739837398375,49.4410569105691 55.28455284552845,49.08536585365854 55.28455284552845,48.729674796747965 55.28455284552845,48.42479674796748 55.28455284552845,48.11991869918699 55.28455284552845,47.8150406504065 55.233739837398375,47.5609756097561 55.18292682926829,47.25609756097561 55.18292682926829,47.0020325203252 55.08130081300813,46.7479674796748 55.03048780487805,46.49390243902439 54.92886178861789,46.239837398373986 54.827235772357724,45.9349593495935 54.67479674796748,45.68089430894309 54.52235772357724,45.3760162601626 54.36991869918699,45.07113821138211 54.21747967479675,44.8170731707317 54.014227642276424,44.512195121951216 53.8109756097561,44.30894308943089 53.55691056910569,44.05487804878049 53.353658536585364,43.80081300813008 53.09959349593496,43.59756097560975 52.84552845528455,43.34349593495935 52.540650406504064,43.1910569105691 52.235772357723576,42.98780487804878 51.93089430894309,42.83536585365854 51.6260162601626,42.733739837398375 51.32113821138211,42.63211382113821 51.016260162601625,42.58130081300813 50.66056910569105,42.479674796747965 50.355691056910565,42.42886178861789" fill="none" stroke="black" stroke-width="0.6"></polyline><polyline points="50.355691056910565,42.42886178861789 50.05081300813008,42.3780487804878 49.69512195121951,42.3780487804878 49.33943089430894,42.3780487804878 48.983739837398375,42.3780487804878 48.577235772357724,42.3780487804878 48.27235772357724,42.42886178861789 47.916666666666664,42.53048780487805 47.5609756097561,42.58130081300813 47.20528455284553,42.68292682926829 46.84959349593496,42.78455284552845 46.59552845528455,42.886178861788615 46.290650406504064,42.9369918699187 45.9349593495935,43.08943089430894 45.68089430894309,43.1910569105691 45.42682926829268,43.34349593495935 45.07113821138211,43.49593495934959 44.8170731707317,43.699186991869915 44.512195121951216,43.90243902439024 44.15650406504065,44.15650406504065 43.90243902439024,44.359756097560975 43.64837398373984,44.61382113821138 43.39430894308943,44.8170731707317 43.1910569105691,45.02032520325203 43.03861788617886,45.172764227642276 42.83536585365854,45.3760162601626 42.733739837398375,45.579268292682926 42.58130081300813,45.78252032520325 42.479674796747965,46.08739837398374 42.3780487804878,46.34146341463415 42.27642276422764,46.646341463414636 42.17479674796748,47.0020325203252 42.073170731707314,47.357723577235774 42.02235772357724,47.71341463414634 41.97154471544715,48.11991869918699 41.920731707317074,48.47560975609756 41.920731707317074,48.83130081300813 41.920731707317074,49.1869918699187 41.920731707317074,49.49186991869919 41.920731707317074,49.84756097560975 41.920731707317074,50.203252032520325 41.920731707317074,50.55894308943089 41.920731707317074,50.91463414634146 41.920731707317074,51.21951219512195 41.97154471544715,51.47357723577235 42.02235772357724,51.77845528455284 42.1239837398374,52.083333333333336 42.22560975609756,52.38821138211382 42.327235772357724,52.642276422764226 42.479674796747965,52.947154471544714 42.58130081300813,53.201219512195124" fill="none" stroke="black" stroke-width="0.6"></polyline><polyline points="42.58130081300813,53.201219512195124 42.78455284552845,53.50609756097561 42.9369918699187,53.760162601626014 43.140243902439025,54.0650406504065 43.292682926829265,54.36991869918699 43.49593495934959,54.67479674796748 43.699186991869915,54.92886178861789 43.90243902439024,55.233739837398375 44.20731707317073,55.53861788617886 44.46138211382114,55.74186991869919 44.71544715447154,55.99593495934959 45.02032520325203,56.199186991869915 45.325203252032516,56.40243902439024 45.63008130081301,56.605691056910565 45.9349593495935,56.75813008130081 46.239837398373986,56.96138211382114 46.59552845528455,57.11382113821138 46.951219512195124,57.3170731707317 47.30691056910569,57.46951219512195 47.66260162601626,57.62195121951219 48.01829268292683,57.77439024390244 48.3739837398374,57.8760162601626 48.78048780487805,57.97764227642276 49.1869918699187,58.079268292682926 49.542682926829265,58.18089430894309 49.949186991869915,58.231707317073166 50.355691056910565,58.33333333333333 50.71138211382114,58.38414634146341 51.11788617886179,58.43495934959349 51.47357723577235,58.43495934959349 51.829268292682926,58.43495934959349 52.235772357723576,58.43495934959349 52.59146341463415,58.43495934959349 52.947154471544714,58.38414634146341 53.353658536585364,58.28252032520325 53.709349593495936,58.231707317073166 54.014227642276424,58.130081300813 54.420731707317074,58.02845528455284 54.72560975609756,57.92682926829268 55.08130081300813,57.825203252032516 55.4369918699187,57.672764227642276 55.74186991869919,57.52032520325203 56.09756097560975,57.3170731707317 56.453252032520325,57.11382113821138 56.70731707317073,56.91056910569105 57.012195121951216,56.605691056910565 57.36788617886179,56.35162601626016 57.62195121951219,56.09756097560975 57.92682926829268,55.84349593495935 58.231707317073166,55.53861788617886 58.485772357723576,55.28455284552845" fill="none" stroke="black" stroke-width="0.6"></polyline><polyline points="58.485772357723576,55.28455284552845 58.739837398373986,55.03048780487805 59.04471544715447,54.67479674796748 59.2479674796748,54.36991869918699 59.5020325203252,54.014227642276424 59.75609756097561,53.607723577235774 59.959349593495936,53.302845528455286 60.16260162601626,52.947154471544714 60.36585365853659,52.540650406504064 60.51829268292683,52.1849593495935 60.670731707317074,51.77845528455284 60.77235772357724,51.37195121951219 60.8739837398374,51.016260162601625 60.97560975609756,50.609756097560975 61.077235772357724,50.10162601626016 61.1280487804878,49.64430894308943 61.17886178861789,49.136178861788615 61.229674796747965,48.577235772357724 61.28048780487805,48.06910569105691 61.33130081300813,47.5609756097561 61.33130081300813,47.052845528455286 61.33130081300813,46.59552845528455 61.28048780487805,46.239837398373986 61.17886178861789,45.88414634146341 61.077235772357724,45.52845528455285 60.92479674796748,45.12195121951219 60.77235772357724,44.66463414634146 60.56910569105691,44.20731707317073 60.36585365853659,43.75 60.11178861788618,43.292682926829265 59.857723577235774,42.83536585365854 59.603658536585364,42.42886178861789 59.298780487804876,42.02235772357724 58.99390243902439,41.666666666666664 58.739837398373986,41.3109756097561 58.43495934959349,40.95528455284553 58.130081300813,40.59959349593496 57.825203252032516,40.24390243902439 57.46951219512195,39.989837398373986 57.16463414634146,39.735772357723576 56.80894308943089,39.43089430894309 56.453252032520325,39.1260162601626 56.09756097560975,38.82113821138211 55.6910569105691,38.516260162601625 55.28455284552845,38.262195121951216 54.8780487804878,38.05894308943089 54.47154471544715,37.855691056910565 54.166666666666664,37.703252032520325 53.760162601626014,37.55081300813008 53.353658536585364,37.39837398373984 52.9979674796748,37.24593495934959" fill="none" stroke="black" stroke-width="0.6"></polyline><polyline points="52.9979674796748,37.24593495934959 52.540650406504064,37.09349593495935 52.083333333333336,36.9410569105691 51.6260162601626,36.83943089430894 51.11788617886179,36.6869918699187 50.55894308943089,36.58536585365854 50.05081300813008,36.53455284552845 49.542682926829265,36.53455284552845 49.03455284552845,36.53455284552845 48.6280487804878,36.483739837398375 48.170731707317074,36.483739837398375 47.764227642276424,36.483739837398375 47.357723577235774,36.483739837398375 46.951219512195124,36.483739837398375 46.54471544715447,36.483739837398375 46.13821138211382,36.53455284552845 45.73170731707317,36.58536585365854 45.325203252032516,36.636178861788615 44.918699186991866,36.73780487804878 44.512195121951216,36.83943089430894 44.0040650406504,36.99186991869919 43.59756097560975,37.14430894308943 43.1910569105691,37.296747967479675 42.733739837398375,37.55081300813008 42.27642276422764,37.80487804878049 41.81910569105691,38.05894308943089 41.36178861788618,38.41463414634146 40.90447154471545,38.77032520325203 40.396341463414636,39.176829268292686 39.9390243902439,39.63414634146341 39.53252032520325,39.9390243902439 39.176829268292686,40.29471544715447 38.87195121951219,40.548780487804876 38.61788617886179,40.802845528455286 38.36382113821138,41.107723577235774 38.109756097560975,41.41260162601626 37.90650406504065,41.71747967479675 37.703252032520325,42.073170731707314 37.5,42.3780487804878 37.34756097560975,42.733739837398375 37.19512195121951,43.08943089430894 37.042682926829265,43.49593495934959 36.890243902439025,43.85162601626016 36.78861788617886,44.20731707317073 36.636178861788615,44.5630081300813 36.58536585365854,44.918699186991866 36.483739837398375,45.27439024390244 36.38211382113821,45.68089430894309 36.28048780487805,46.13821138211382 36.229674796747965,46.54471544715447 36.1280487804878,47.0020325203252" fill="none" stroke="black" stroke-width="0.6"></polyline><polyline points="36.1280487804878,47.0020325203252 36.077235772357724,47.459349593495936 36.02642276422764,47.916666666666664 35.97560975609756,48.42479674796748 35.97560975609756,48.88211382113821 35.92479674796748,49.390243902439025 35.92479674796748,49.949186991869915 35.8739837398374,50.45731707317073 35.8739837398374,51.016260162601625 35.8739837398374,51.52439024390244 35.8739837398374,51.981707317073166 35.92479674796748,52.4390243902439 35.97560975609756,52.947154471544714 36.02642276422764,53.40447154471545 36.1280487804878,53.91260162601626 36.229674796747965,54.36991869918699 36.33130081300813,54.827235772357724 36.53455284552845,55.386178861788615 36.6869918699187,55.84349593495935 36.890243902439025,56.35162601626016 37.19512195121951,56.91056910569105 37.449186991869915,57.46951219512195 37.7540650406504,57.97764227642276 38.16056910569105,58.536585365853654 38.516260162601625,59.04471544715447 38.87195121951219,59.5020325203252 39.27845528455285,59.90853658536585 39.6849593495935,60.3150406504065 40.142276422764226,60.72154471544715 40.65040650406504,61.1280487804878 41.107723577235774,61.483739837398375 41.61585365853659,61.83943089430894 42.17479674796748,62.14430894308943 42.68292682926829,62.39837398373984 43.24186991869919,62.65243902439024 43.85162601626016,62.90650406504065 44.41056910569105,63.109756097560975 45.02032520325203,63.3130081300813 45.68089430894309,63.516260162601625 46.290650406504064,63.668699186991866 46.90040650406504,63.82113821138211 47.61178861788618,63.922764227642276 48.22154471544715,64.02439024390243 48.88211382113821,64.07520325203252 49.542682926829265,64.1260162601626 50.15243902439024,64.17682926829268 50.762195121951216,64.17682926829268 51.47357723577235,64.17682926829268 52.083333333333336,64.17682926829268 52.74390243902439,64.17682926829268 53.353658536585364,64.1260162601626" fill="none" stroke="black" stroke-width="0.6"></polyline><polyline points="53.353658536585364,64.1260162601626 53.96341463414634,64.07520325203252 54.6239837398374,63.922764227642276 55.233739837398375,63.77032520325203 55.84349593495935,63.5670731707317 56.453252032520325,63.3130081300813 57.0630081300813,63.05894308943089 57.62195121951219,62.80487804878049 58.18089430894309,62.60162601626016 58.739837398373986,62.34756097560975 59.2479674796748,62.09349593495935 59.80691056910569,61.83943089430894 60.3150406504065,61.53455284552845 60.823170731707314,61.17886178861789 61.28048780487805,60.823170731707314 61.73780487804878,60.416666666666664 62.19512195121951,60.0609756097561 62.60162601626016,59.65447154471545 63.00813008130081,59.298780487804876 63.36382113821138,58.892276422764226 63.71951219512195,58.536585365853654 64.07520325203252,58.130081300813 64.380081300813,57.72357723577235 64.6849593495935,57.3170731707317 64.98983739837398,56.859756097560975 65.2439024390244,56.40243902439024 65.54878048780488,55.94512195121951 65.80284552845528,55.48780487804878 66.0060975609756,55.08130081300813 66.26016260162602,54.6239837398374 66.46341463414635,54.0650406504065 66.66666666666667,53.607723577235774 66.869918699187,53.09959349593496 67.02235772357723,52.59146341463415 67.1239837398374,52.083333333333336 67.22560975609755,51.47357723577235 67.32723577235772,50.96544715447154 67.3780487804878,50.45731707317073 67.42886178861788,49.796747967479675 67.42886178861788,49.23780487804878 67.42886178861788,48.6280487804878 67.42886178861788,47.96747967479675 67.3780487804878,47.40853658536585 67.27642276422765,46.84959349593496 67.17479674796748,46.290650406504064 67.07317073170732,45.78252032520325 66.92073170731707,45.172764227642276 66.76829268292683,44.5630081300813 66.5650406504065,44.05487804878049 66.41260162601625,43.44512195121951 66.20934959349593,42.83536585365854" fill="none" stroke="black" stroke-width="0.6"></polyline><polyline points="66.20934959349593,42.83536585365854 66.0060975609756,42.327235772357724 65.7520325203252,41.81910569105691 65.4979674796748,41.15853658536585 65.2439024390244,40.59959349593496 64.98983739837398,39.989837398373986 64.6341463414634,39.38008130081301 64.32926829268293,38.77032520325203 63.922764227642276,38.21138211382114 63.516260162601625,37.60162601626016 63.109756097560975,37.09349593495935 62.703252032520325,36.53455284552845 62.19512195121951,36.02642276422764 61.6869918699187,35.56910569105691 61.17886178861789,35.11178861788618 60.670731707317074,34.70528455284553 60.21341463414634,34.298780487804876 59.65447154471545,33.892276422764226 59.09552845528455,33.58739837398374 58.58739837398374,33.28252032520325 57.97764227642276,32.926829268292686 57.36788617886179,32.57113821138211 56.70731707317073,32.266260162601625 56.046747967479675,32.012195121951216 55.386178861788615,31.808943089430894 54.77642276422764,31.60569105691057 54.166666666666664,31.453252032520325 53.45528455284553,31.25 52.79471544715447,31.097560975609756 52.1849593495935,30.995934959349594 51.52439024390244,30.84349593495935 50.91463414634146,30.79268292682927 50.355691056910565,30.741869918699187 49.74593495934959,30.691056910569106 49.1869918699187,30.640243902439025 48.6280487804878,30.589430894308943 48.01829268292683,30.589430894308943 47.459349593495936,30.589430894308943 46.84959349593496,30.589430894308943 46.239837398373986,30.589430894308943 45.63008130081301,30.640243902439025 45.02032520325203,30.741869918699187 44.359756097560975,30.79268292682927 43.75,30.89430894308943 43.140243902439025,30.995934959349594 42.479674796747965,31.148373983739837 41.86991869918699,31.30081300813008 41.260162601626014,31.453252032520325 40.59959349593496,31.65650406504065 40.040650406504064,31.808943089430894 39.48170731707317,32.012195121951216" fill="none" stroke="black" stroke-width="0.6"></polyline><polyline points="39.48170731707317,32.012195121951216 38.87195121951219,32.21544715447154 38.36382113821138,32.46951219512195 37.7540650406504,32.72357723577236 37.24593495934959,33.02845528455285 36.73780487804878,33.333333333333336 36.229674796747965,33.6890243902439 35.72154471544715,33.99390243902439 35.21341463414634,34.34959349593496 34.70528455284553,34.80691056910569 34.298780487804876,35.21341463414634 33.84146341463415,35.61991869918699 33.333333333333336,36.077235772357724 32.926829268292686,36.53455284552845 32.52032520325203,37.042682926829265 32.0630081300813,37.60162601626016 31.70731707317073,38.109756097560975 31.30081300813008,38.61788617886179 30.945121951219512,39.22764227642276 30.640243902439025,39.78658536585366 30.284552845528456,40.396341463414636 29.979674796747968,41.00609756097561 29.67479674796748,41.666666666666664 29.420731707317074,42.327235772357724 29.166666666666664,42.98780487804878 28.96341463414634,43.546747967479675 28.760162601626014,44.20731707317073 28.55691056910569,44.8170731707317 28.455284552845526,45.3760162601626 28.302845528455283,45.9349593495935 28.20121951219512,46.49390243902439 28.099593495934958,46.951219512195124 28.048780487804876,47.459349593495936 27.997967479674795,48.06910569105691 27.947154471544714,48.577235772357724 27.896341463414632,49.1869918699187 27.84552845528455,49.74593495934959 27.84552845528455,50.355691056910565 27.79471544715447,51.016260162601625 27.79471544715447,51.6260162601626 27.79471544715447,52.28658536585366 27.79471544715447,52.947154471544714 27.79471544715447,53.607723577235774 27.79471544715447,54.26829268292683 27.84552845528455,54.979674796747965 27.896341463414632,55.58943089430894 27.997967479674795,56.199186991869915 28.099593495934958,56.80894308943089 28.2520325203252,57.418699186991866 28.404471544715445,57.97764227642276 28.60772357723577,58.536585365853654" fill="none" stroke="black" stroke-width="0.6"></polyline><polyline points="28.60772357723577,58.536585365853654 28.861788617886177,59.146341463414636 29.115853658536583,59.70528455284553 29.420731707317074,60.264227642276424 29.776422764227643,60.92479674796748 30.132113821138212,61.483739837398375 30.48780487804878,62.09349593495935 30.89430894308943,62.65243902439024 31.25,63.16056910569105 31.70731707317073,63.77032520325203 32.21544715447154,64.32926829268293 32.6219512195122,64.83739837398373 33.13008130081301,65.39634146341463 33.58739837398374,65.90447154471545 34.09552845528455,66.36178861788618 34.552845528455286,66.8191056910569 35.010162601626014,67.22560975609755 35.46747967479675,67.58130081300813 36.02642276422764,67.98780487804878 36.58536585365854,68.4451219512195 37.09349593495935,68.80081300813008 37.65243902439024,69.15650406504065 38.16056910569105,69.46138211382113 38.77032520325203,69.8170731707317 39.43089430894309,70.17276422764228 39.989837398373986,70.47764227642276 40.59959349593496,70.73170731707317 41.260162601626014,71.03658536585365 41.86991869918699,71.29065040650406 42.479674796747965,71.54471544715447 43.1910569105691,71.7479674796748 43.85162601626016,72.0020325203252 44.512195121951216,72.20528455284553 45.22357723577235,72.40853658536585 45.88414634146341,72.5609756097561 46.646341463414636,72.71341463414635 47.459349593495936,72.86585365853658 48.170731707317074,72.96747967479675 48.983739837398375,73.0691056910569 49.84756097560975,73.17073170731707 50.55894308943089,73.17073170731707 51.32113821138211,73.22154471544715 52.13414634146341,73.22154471544715 52.84552845528455,73.22154471544715 53.607723577235774,73.22154471544715 54.36991869918699,73.17073170731707 55.08130081300813,73.119918699187 55.792682926829265,73.01829268292683 56.55487804878049,72.91666666666667 57.21544715447154,72.8150406504065 57.97764227642276,72.66260162601625" fill="none" stroke="black" stroke-width="0.6"></polyline><polyline points="57.97764227642276,72.66260162601625 58.739837398373986,72.51016260162602 59.40040650406504,72.3069105691057 60.16260162601626,72.05284552845528 60.8739837398374,71.79878048780488 61.53455284552845,71.59552845528455 62.19512195121951,71.39227642276423 62.855691056910565,71.13821138211382 63.46544715447154,70.8841463414634 64.1260162601626,70.630081300813 64.73577235772358,70.3760162601626 65.34552845528455,70.0711382113821 65.90447154471545,69.71544715447155 66.51422764227642,69.35975609756098 67.07317073170732,69.0040650406504 67.6321138211382,68.64837398373983 68.14024390243902,68.29268292682927 68.64837398373983,67.98780487804878 69.15650406504065,67.58130081300813 69.61382113821138,67.17479674796748 70.0711382113821,66.76829268292683 70.52845528455285,66.36178861788618 70.98577235772358,65.90447154471545 71.49390243902438,65.44715447154472 71.95121951219512,64.88821138211382 72.45934959349593,64.32926829268293 72.91666666666667,63.82113821138211 73.42479674796748,63.262195121951216 73.8821138211382,62.7540650406504 74.28861788617886,62.24593495934959 74.64430894308943,61.83943089430894 75.05081300813008,61.38211382113821 75.35569105691057,60.92479674796748 75.66056910569105,60.416666666666664 75.96544715447155,59.959349593495936 76.21951219512195,59.552845528455286 76.42276422764228,59.09552845528455 76.6260162601626,58.63821138211382 76.82926829268293,58.18089430894309 77.03252032520325,57.672764227642276 77.1849593495935,57.3170731707317 77.33739837398373,56.91056910569105 77.4390243902439,56.453252032520325 77.54065040650406,55.99593495934959 77.64227642276423,55.48780487804878 77.74390243902438,54.979674796747965 77.79471544715447,54.573170731707314 77.89634146341463,54.11585365853659 77.9471544715447,53.709349593495936 77.9979674796748,53.40447154471545 77.9979674796748,53.15040650406504" fill="none" stroke="black" stroke-width="0.6"></polyline><polyline points="77.9979674796748,53.15040650406504 78.04878048780488,52.84552845528455 78.04878048780488,52.540650406504064 78.04878048780488,52.28658536585366 78.04878048780488,51.981707317073166 78.04878048780488,51.72764227642276 78.04878048780488,51.422764227642276 78.04878048780488,51.11788617886179 77.9979674796748,50.8130081300813 77.9979674796748,50.609756097560975 77.9471544715447,50.355691056910565 77.89634146341463,50.2540650406504 77.84552845528455,50.10162601626016 77.79471544715447,50 77.74390243902438,49.949186991869915 77.6930894308943,49.89837398373984 77.6930894308943,49.84756097560975 77.6930894308943,49.796747967479675 77.64227642276423,49.796747967479675 77.64227642276423,49.74593495934959 77.64227642276423,49.74593495934959 77.64227642276423,49.74593495934959 77.64227642276423,49.74593495934959 77.64227642276423,49.74593495934959 77.64227642276423,49.74593495934959 77.64227642276423,49.74593495934959 77.64227642276423,49.74593495934959 77.64227642276423,49.74593495934959 77.64227642276423,49.74593495934959 77.64227642276423,49.74593495934959 77.64227642276423,49.74593495934959 77.64227642276423,49.69512195121951 77.64227642276423,49.69512195121951 77.6930894308943,49.64430894308943" fill="none" stroke="black" stroke-width="0.6"></polyline></svg>