<svg height="100" width="100" preserveAspectRatio="xMidYMid meet"><polyline points="5.436991869918699,16.41260162601626 5.3861788617886175,16.41260162601626 5.284552845528455,16.41260162601626 5.182926829268292,16.41260162601626 5.08130081300813,16.41260162601626 5.030487804878049,16.41260162601626 5.030487804878049,16.41260162601626 5.030487804878049,16.41260162601626 5.030487804878049,16.41260162601626 5.132113821138211,16.41260162601626 5.284552845528455,16.41260162601626 5.538617886178861,16.36178861788618 5.894308943089431,16.260162601626014 6.300813008130081,16.10772357723577 6.758130081300813,15.955284552845528 7.266260162601625,15.802845528455284 7.876016260162602,15.548780487804878 8.333333333333334,15.396341463414634 8.739837398373984,15.345528455284553 9.044715447154472,15.294715447154472 9.197154471544716,15.294715447154472 9.298780487804878,15.447154471544716 9.34959349593496,15.65040650406504 9.40040650406504,15.955284552845528 9.40040650406504,16.41260162601626 9.34959349593496,17.073170731707318 9.197154471544716,17.733739837398375 9.044715447154472,18.445121951219512 8.790650406504065,19.15650406504065 8.638211382113822,19.766260162601625 8.434959349593496,20.3760162601626 8.282520325203253,20.73170731707317 8.231707317073171,21.08739837398374 8.18089430894309,21.392276422764226 8.18089430894309,21.54471544715447 8.18089430894309,21.646341463414632 8.282520325203253,21.646341463414632" fill="none" stroke="black" stroke-width="0.6"></polyline><polyline points="17.327235772357724,15.091463414634147 17.225609756097562,14.989837398373984 17.1239837398374,14.989837398373984 17.022357723577237,14.989837398373984 16.81910569105691,15.091463414634147 16.615853658536587,15.396341463414634 16.3109756097561,15.802845528455284 16.006097560975608,16.41260162601626 15.752032520325203,17.1239837398374 15.497967479674797,17.784552845528456 15.345528455284553,18.39430894308943 15.24390243902439,19.004065040650406 15.19308943089431,19.5630081300813 15.24390243902439,20.020325203252032 15.345528455284553,20.3760162601626 15.548780487804878,20.68089430894309 15.853658536585366,20.833333333333332 16.209349593495933,20.884146341463413 16.615853658536587,20.934959349593495 17.022357723577237,20.833333333333332 17.428861788617887,20.630081300813007 17.835365853658537,20.32520325203252 18.241869918699187,19.91869918699187 18.597560975609756,19.51219512195122 18.851626016260163,19.054878048780488 19.054878048780488,18.648373983739837 19.10569105691057,18.34349593495935 19.054878048780488,18.089430894308943 18.851626016260163,17.9369918699187 18.648373983739837,17.9369918699187 18.34349593495935,17.9369918699187 18.089430894308943,18.038617886178862 17.835365853658537,18.191056910569106 17.58130081300813,18.445121951219512 17.378048780487806,18.75 17.17479674796748,19.15650406504065 17.073170731707318,19.5630081300813 16.971544715447155,20.020325203252032 17.022357723577237,20.3760162601626 17.17479674796748,20.579268292682926 17.428861788617887,20.73170731707317 17.58130081300813,20.73170731707317" fill="none" stroke="black" stroke-width="0.6"></polyline><polyline points="27.33739837398374,16.76829268292683 27.235772357723576,16.76829268292683 27.184959349593495,16.76829268292683 27.134146341463413,16.76829268292683 27.134146341463413,16.76829268292683 27.134146341463413,16.76829268292683 27.134146341463413,16.76829268292683 27.33739837398374,16.76829268292683 27.591463414634145,16.615853658536587 27.997967479674795,16.36178861788618 28.404471544715445,16.05691056910569 28.810975609756095,15.752032520325203 29.268292682926827,15.396341463414634 29.6239837398374,15.091463414634147 29.827235772357724,14.888211382113822 29.928861788617887,14.888211382113822 29.979674796747968,14.888211382113822 29.979674796747968,14.989837398373984 29.979674796747968,15.24390243902439 29.878048780487806,15.59959349593496 29.67479674796748,16.15853658536585 29.420731707317074,16.76829268292683 29.0650406504065,17.53048780487805 28.709349593495933,18.191056910569106 28.404471544715445,18.80081300813008 28.15040650406504,19.410569105691057 27.997967479674795,19.766260162601625 27.896341463414632,20.071138211382113 27.84552845528455,20.274390243902438 27.84552845528455,20.3760162601626 27.84552845528455,20.426829268292682" fill="none" stroke="black" stroke-width="0.6"></polyline><polyline points="27.235772357723576,20.630081300813007 27.134146341463413,20.630081300813007 27.03252032520325,20.630081300813007 26.98170731707317,20.68089430894309 26.93089430894309,20.68089430894309 26.93089430894309,20.68089430894309 26.98170731707317,20.68089430894309 27.184959349593495,20.73170731707317 27.4390243902439,20.73170731707317 27.84552845528455,20.68089430894309 28.302845528455283,20.579268292682926 28.912601626016258,20.426829268292682 29.522357723577237,20.223577235772357 30.233739837398375,19.96951219512195 30.945121951219512,19.766260162601625 31.504065040650406,19.61382113821138 31.758130081300813,19.51219512195122" fill="none" stroke="black" stroke-width="0.6"></polyline><polyline points="38.36382113821138,15.396341463414634 38.262195121951216,15.345528455284553 38.16056910569105,15.345528455284553 38.05894308943089,15.345528455284553 37.855691056910565,15.59959349593496 37.60162601626016,16.05691056910569 37.296747967479675,16.81910569105691 36.99186991869919,17.733739837398375 36.73780487804878,18.75 36.58536585365854,19.61382113821138 36.483739837398375,20.274390243902438 36.483739837398375,20.73170731707317 36.53455284552845,21.08739837398374 36.73780487804878,21.341463414634145 36.9410569105691,21.54471544715447 37.24593495934959,21.59552845528455 37.60162601626016,21.646341463414632 38.00813008130081,21.54471544715447 38.41463414634146,21.290650406504064 38.87195121951219,20.934959349593495 39.27845528455285,20.477642276422763 39.63414634146341,20.020325203252032 39.9390243902439,19.5630081300813 40.142276422764226,19.15650406504065 40.19308943089431,18.80081300813008 40.142276422764226,18.597560975609756 39.989837398373986,18.546747967479675 39.735772357723576,18.597560975609756 39.38008130081301,18.80081300813008 39.02439024390244,19.15650406504065 38.668699186991866,19.5630081300813 38.3130081300813,20.020325203252032 38.05894308943089,20.528455284552845 37.855691056910565,21.036585365853657 37.855691056910565,21.49390243902439 37.855691056910565,21.849593495934958 38.05894308943089,22.052845528455283" fill="none" stroke="black" stroke-width="0.6"></polyline><polyline points="50.86382113821138,15.853658536585366 50.86382113821138,15.802845528455284 50.86382113821138,15.701219512195122 50.86382113821138,15.65040650406504 50.86382113821138,15.59959349593496 50.86382113821138,15.59959349593496 50.86382113821138,15.59959349593496 50.86382113821138,15.59959349593496 50.86382113821138,15.59959349593496 50.86382113821138,15.59959349593496 50.86382113821138,15.59959349593496 50.86382113821138,15.59959349593496 50.91463414634146,15.65040650406504 50.91463414634146,15.65040650406504 50.91463414634146,15.65040650406504 50.91463414634146,15.701219512195122 50.91463414634146,15.701219512195122 50.91463414634146,15.701219512195122 50.91463414634146,15.701219512195122 50.91463414634146,15.701219512195122 50.91463414634146,15.701219512195122 50.91463414634146,15.701219512195122 50.96544715447154,15.701219512195122 50.96544715447154,15.701219512195122 50.96544715447154,15.701219512195122 50.96544715447154,15.701219512195122 50.96544715447154,15.701219512195122 50.96544715447154,15.701219512195122 50.96544715447154,15.701219512195122 50.96544715447154,15.701219512195122 50.96544715447154,15.701219512195122 50.96544715447154,15.701219512195122 50.96544715447154,15.701219512195122 50.96544715447154,15.701219512195122 50.96544715447154,15.701219512195122 50.96544715447154,15.701219512195122 50.96544715447154,15.701219512195122 50.96544715447154,15.701219512195122 50.96544715447154,15.701219512195122 50.96544715447154,15.701219512195122 50.96544715447154,15.701219512195122 50.96544715447154,15.701219512195122 50.96544715447154,15.701219512195122 50.96544715447154,15.701219512195122 50.96544715447154,15.701219512195122 50.96544715447154,15.701219512195122 50.96544715447154,15.701219512195122 50.96544715447154,15.701219512195122 50.96544715447154,15.701219512195122 50.96544715447154,15.701219512195122 50.96544715447154,15.701219512195122" fill="none" stroke="black" stroke-width="0.6"></polyline><polyline points="50.96544715447154,15.701219512195122 50.96544715447154,15.701219512195122 50.96544715447154,15.701219512195122 50.96544715447154,15.701219512195122 50.96544715447154,15.701219512195122 50.96544715447154,15.701219512195122 50.96544715447154,15.701219512195122 50.96544715447154,15.701219512195122 50.96544715447154,15.701219512195122 50.96544715447154,15.701219512195122 50.96544715447154,15.701219512195122 50.96544715447154,15.701219512195122 50.96544715447154,15.701219512195122 50.96544715447154,15.701219512195122 50.96544715447154,15.701219512195122 50.96544715447154,15.701219512195122 50.96544715447154,15.701219512195122 50.96544715447154,15.701219512195122 50.96544715447154,15.701219512195122 50.96544715447154,15.701219512195122 50.96544715447154,15.701219512195122 50.96544715447154,15.701219512195122 50.96544715447154,15.701219512195122 50.96544715447154,15.701219512195122 50.96544715447154,15.701219512195122 50.96544715447154,15.701219512195122 50.96544715447154,15.701219512195122 50.96544715447154,15.701219512195122 50.96544715447154,15.701219512195122 50.96544715447154,15.701219512195122 50.96544715447154,15.701219512195122 50.96544715447154,15.701219512195122 50.96544715447154,15.701219512195122 50.96544715447154,15.701219512195122 50.96544715447154,15.701219512195122 50.96544715447154,15.701219512195122 50.91463414634146,15.701219512195122 50.91463414634146,15.701219512195122 50.86382113821138,15.701219512195122 50.762195121951216,15.701219512195122 50.66056910569105,15.701219512195122 50.50813008130081,15.701219512195122 50.2540650406504,15.701219512195122 50,15.701219512195122 49.69512195121951,15.752032520325203 49.390243902439025,15.752032520325203 49.08536585365854,15.752032520325203 48.78048780487805,15.752032520325203 48.52642276422764,15.752032520325203 48.27235772357724,15.752032520325203 47.96747967479675,15.802845528455284" fill="none" stroke="black" stroke-width="0.6"></polyline><polyline points="47.96747967479675,15.802845528455284 47.764227642276424,15.853658536585366 47.5609756097561,15.904471544715447 47.357723577235774,16.05691056910569 47.15447154471545,16.209349593495933 46.951219512195124,16.36178861788618 46.798780487804876,16.615853658536587 46.697154471544714,16.81910569105691 46.59552845528455,17.022357723577237 46.54471544715447,17.225609756097562 46.49390243902439,17.378048780487806 46.49390243902439,17.53048780487805 46.49390243902439,17.682926829268293 46.54471544715447,17.733739837398375 46.59552845528455,17.784552845528456 46.7479674796748,17.835365853658537 46.90040650406504,17.835365853658537 47.15447154471545,17.88617886178862 47.40853658536585,17.88617886178862 47.71341463414634,17.88617886178862 48.06910569105691,17.9369918699187 48.47560975609756,18.038617886178862 48.88211382113821,18.191056910569106 49.28861788617886,18.39430894308943 49.64430894308943,18.648373983739837 49.89837398373984,18.953252032520325 50.10162601626016,19.20731707317073 50.203252032520325,19.410569105691057 50.203252032520325,19.61382113821138 50.203252032520325,19.867886178861788 50.10162601626016,20.071138211382113 49.89837398373984,20.32520325203252 49.69512195121951,20.528455284552845 49.4410569105691,20.73170731707317 49.1869918699187,20.934959349593495 48.88211382113821,21.08739837398374 48.47560975609756,21.239837398373982 48.06910569105691,21.290650406504064 47.66260162601626,21.341463414634145 47.25609756097561,21.341463414634145 46.90040650406504,21.341463414634145 46.646341463414636,21.239837398373982 46.44308943089431,21.1890243902439 46.392276422764226,21.13821138211382 46.392276422764226,21.036585365853657 46.49390243902439,20.934959349593495" fill="none" stroke="black" stroke-width="0.6"></polyline><polyline points="62.55081300813008,15.701219512195122 62.55081300813008,15.65040650406504 62.55081300813008,15.548780487804878 62.5,15.447154471544716 62.5,15.396341463414634 62.39837398373984,15.294715447154472 62.296747967479675,15.19308943089431 62.14430894308943,15.091463414634147 61.890243902439025,14.989837398373984 61.483739837398375,14.939024390243903 60.97560975609756,14.939024390243903 60.416666666666664,14.939024390243903 59.80691056910569,15.091463414634147 59.298780487804876,15.24390243902439 58.790650406504064,15.548780487804878 58.43495934959349,15.853658536585366 58.079268292682926,16.209349593495933 57.8760162601626,16.565040650406505 57.8760162601626,16.869918699186993 57.92682926829268,17.1239837398374 58.18089430894309,17.276422764227643 58.485772357723576,17.327235772357724 58.892276422764226,17.327235772357724 59.40040650406504,17.276422764227643 59.959349593495936,17.1239837398374 60.51829268292683,16.869918699186993 61.077235772357724,16.615853658536587 61.58536585365854,16.3109756097561 61.99186991869919,16.006097560975608 62.39837398373984,15.752032520325203 62.60162601626016,15.59959349593496 62.703252032520325,15.548780487804878 62.703252032520325,15.548780487804878 62.65243902439024,15.59959349593496 62.55081300813008,15.802845528455284 62.39837398373984,16.15853658536585 62.14430894308943,16.666666666666668 61.83943089430894,17.378048780487806 61.58536585365854,18.140243902439025 61.33130081300813,18.953252032520325 61.077235772357724,19.766260162601625 60.92479674796748,20.426829268292682 60.823170731707314,21.036585365853657 60.72154471544715,21.646341463414632 60.670731707317074,22.052845528455283 60.670731707317074,22.35772357723577 60.670731707317074,22.560975609756095 60.670731707317074,22.662601626016258 60.72154471544715,22.71341463414634 60.823170731707314,22.71341463414634 60.8739837398374,22.71341463414634" fill="none" stroke="black" stroke-width="0.6"></polyline><polyline points="60.8739837398374,22.71341463414634" fill="none" stroke="black" stroke-width="0.6"></polyline><polyline points="69.20731707317073,18.089430894308943 69.2581300813008,17.835365853658537 69.35975609756098,17.58130081300813 69.5630081300813,17.276422764227643 69.91869918699187,16.971544715447155 70.32520325203252,16.565040650406505 70.78252032520325,16.10772357723577 71.13821138211382,15.752032520325203 71.49390243902438,15.497967479674797 71.69715447154472,15.345528455284553 71.79878048780488,15.345528455284553 71.84959349593495,15.345528455284553 71.84959349593495,15.396341463414634 71.84959349593495,15.59959349593496 71.7479674796748,16.006097560975608 71.59552845528455,16.565040650406505 71.39227642276423,17.225609756097562 71.1890243902439,17.835365853658537 70.9349593495935,18.495934959349594 70.73170731707317,19.10569105691057 70.52845528455285,19.664634146341463 70.3760162601626,20.223577235772357 70.27439024390243,20.630081300813007 70.22357723577235,20.934959349593495 70.17276422764228,21.1890243902439 70.17276422764228,21.392276422764226 70.17276422764228,21.49390243902439 70.1219512195122,21.646341463414632 70.0711382113821,21.646341463414632" fill="none" stroke="black" stroke-width="0.6"></polyline><polyline points="68.75,21.849593495934958 68.69918699186992,21.849593495934958 68.64837398373983,21.798780487804876 68.59756097560975,21.798780487804876 68.59756097560975,21.798780487804876 68.59756097560975,21.798780487804876 68.69918699186992,21.798780487804876 68.90243902439025,21.798780487804876 69.2581300813008,21.747967479674795 69.71544715447155,21.697154471544714 70.17276422764228,21.646341463414632 70.73170731707317,21.54471544715447 71.29065040650406,21.49390243902439 71.79878048780488,21.443089430894307 72.20528455284553,21.443089430894307 72.61178861788618,21.392276422764226" fill="none" stroke="black" stroke-width="0.6"></polyline><polyline points="80.03048780487805,17.632113821138212 80.03048780487805,17.53048780487805 80.03048780487805,17.428861788617887 80.03048780487805,17.276422764227643 80.08130081300813,17.1239837398374 80.23373983739837,16.971544715447155 80.48780487804878,16.81910569105691 80.84349593495935,16.615853658536587 81.30081300813008,16.463414634146343 81.7581300813008,16.41260162601626 82.26626016260163,16.36178861788618 82.6219512195122,16.36178861788618 82.97764227642276,16.36178861788618 83.33333333333333,16.463414634146343 83.53658536585365,16.514227642276424 83.6890243902439,16.615853658536587 83.79065040650406,16.76829268292683 83.79065040650406,16.869918699186993 83.79065040650406,17.073170731707318 83.6890243902439,17.276422764227643 83.48577235772358,17.479674796747968 83.130081300813,17.784552845528456 82.72357723577235,18.140243902439025 82.21544715447155,18.445121951219512 81.7581300813008,18.75 81.25,19.054878048780488 80.89430894308943,19.258130081300813 80.64024390243902,19.410569105691057 80.4369918699187,19.51219512195122 80.4369918699187,19.51219512195122 80.4369918699187,19.51219512195122 80.53861788617886,19.51219512195122 80.74186991869918,19.61382113821138 80.9959349593496,19.664634146341463 81.30081300813008,19.817073170731707 81.70731707317073,19.91869918699187 82.0630081300813,20.121951219512194 82.46951219512195,20.32520325203252 82.72357723577235,20.579268292682926 82.92682926829268,20.833333333333332 83.02845528455285,21.13821138211382 83.07926829268293,21.392276422764226 82.97764227642276,21.646341463414632 82.77439024390243,21.849593495934958 82.46951219512195,22.052845528455283 82.16463414634146,22.256097560975608 81.7581300813008,22.40853658536585 81.35162601626016,22.560975609756095 80.9451219512195,22.662601626016258 80.53861788617886,22.71341463414634 80.23373983739837,22.71341463414634" fill="none" stroke="black" stroke-width="0.6"></polyline><polyline points="80.23373983739837,22.71341463414634 80.03048780487805,22.662601626016258 79.8780487804878,22.560975609756095 79.8780487804878,22.40853658536585" fill="none" stroke="black" stroke-width="0.6"></polyline><polyline points="91.10772357723577,18.39430894308943 91.10772357723577,18.39430894308943 91.10772357723577,18.29268292682927 91.15853658536585,18.191056910569106 91.26016260162602,18.038617886178862 91.46341463414635,17.784552845528456 91.8191056910569,17.428861788617887 92.22560975609755,16.971544715447155 92.73373983739837,16.41260162601626 93.14024390243902,15.955284552845528 93.4451219512195,15.548780487804878 93.75,15.24390243902439 93.80081300813008,15.091463414634147 93.80081300813008,15.040650406504065 93.80081300813008,15.040650406504065 93.80081300813008,15.091463414634147 93.69918699186992,15.345528455284553 93.54674796747967,15.802845528455284 93.29268292682927,16.41260162601626 93.03861788617886,17.1239837398374 92.78455284552845,17.835365853658537 92.53048780487805,18.546747967479675 92.32723577235772,19.258130081300813 92.17479674796748,19.96951219512195 92.07317073170732,20.528455284552845 92.07317073170732,21.036585365853657 92.02235772357723,21.443089430894307 92.02235772357723,21.747967479674795 91.97154471544715,21.849593495934958" fill="none" stroke="black" stroke-width="0.6"></polyline><polyline points="89.9390243902439,22.40853658536585 89.9390243902439,22.40853658536585 89.88821138211382,22.40853658536585 89.83739837398373,22.40853658536585 89.83739837398373,22.40853658536585 89.83739837398373,22.40853658536585 90.04065040650406,22.459349593495933 90.39634146341463,22.510162601626014 90.90447154471545,22.560975609756095 91.71747967479675,22.611788617886177 92.6321138211382,22.611788617886177 93.4451219512195,22.560975609756095 94.05487804878048,22.510162601626014 94.5630081300813,22.459349593495933 94.86788617886178,22.40853658536585" fill="none" stroke="black" stroke-width="0.6"></polyline><polyline points="4.928861788617886,43.39430894308943 4.928861788617886,43.292682926829265 4.979674796747967,42.98780487804878 5.030487804878049,42.733739837398375 5.132113821138211,42.53048780487805 5.3861788617886175,42.327235772357724 5.691056910569106,42.1239837398374 6.046747967479675,42.02235772357724 6.504065040650406,41.97154471544715 6.9105691056910565,41.97154471544715 7.266260162601625,41.97154471544715 7.571138211382114,41.97154471544715 7.82520325203252,42.073170731707314 8.028455284552845,42.1239837398374 8.18089430894309,42.22560975609756 8.231707317073171,42.327235772357724 8.282520325203253,42.479674796747965 8.282520325203253,42.68292682926829 8.231707317073171,42.886178861788615 8.130081300813007,43.140243902439025 7.926829268292683,43.44512195121951 7.723577235772358,43.699186991869915 7.469512195121951,43.953252032520325 7.215447154471544,44.15650406504065 6.961382113821138,44.359756097560975 6.808943089430894,44.512195121951216 6.605691056910569,44.66463414634146 6.554878048780488,44.71544715447154 6.554878048780488,44.766260162601625 6.554878048780488,44.766260162601625 6.7073170731707314,44.766260162601625 6.961382113821138,44.71544715447154 7.266260162601625,44.66463414634146 7.6727642276422765,44.66463414634146 8.130081300813007,44.61382113821138 8.638211382113822,44.61382113821138 9.095528455284553,44.66463414634146 9.502032520325203,44.766260162601625 9.857723577235772,45.02032520325203 10.060975609756097,45.22357723577235 10.213414634146341,45.47764227642276 10.264227642276422,45.78252032520325 10.213414634146341,46.03658536585366 10.060975609756097,46.290650406504064 9.857723577235772,46.54471544715447 9.552845528455284,46.84959349593496 9.197154471544716,47.103658536585364 8.790650406504065,47.40853658536585 8.384146341463415,47.61178861788618 7.977642276422764,47.71341463414634 7.571138211382114,47.764227642276424" fill="none" stroke="black" stroke-width="0.6"></polyline><polyline points="7.571138211382114,47.764227642276424 7.215447154471544,47.764227642276424 6.9105691056910565,47.71341463414634 6.758130081300813,47.61178861788618 6.7073170731707314,47.459349593495936 6.758130081300813,47.357723577235774 6.9105691056910565,47.15447154471545" fill="none" stroke="black" stroke-width="0.6"></polyline><polyline points="18.241869918699187,41.05691056910569 18.241869918699187,41.05691056910569 18.191056910569106,40.95528455284553 18.140243902439025,40.853658536585364 18.089430894308943,40.802845528455286 18.038617886178862,40.7520325203252 17.98780487804878,40.65040650406504 17.88617886178862,40.59959349593496 17.784552845528456,40.4979674796748 17.632113821138212,40.396341463414636 17.428861788617887,40.34552845528455 17.1239837398374,40.34552845528455 16.81910569105691,40.34552845528455 16.41260162601626,40.396341463414636 16.006097560975608,40.59959349593496 15.701219512195122,40.90447154471545 15.345528455284553,41.209349593495936 15.19308943089431,41.514227642276424 15.091463414634147,41.81910569105691 15.040650406504065,42.1239837398374 15.040650406504065,42.27642276422764 15.142276422764228,42.42886178861789 15.294715447154472,42.53048780487805 15.497967479674797,42.58130081300813 15.752032520325203,42.53048780487805 16.05691056910569,42.42886178861789 16.41260162601626,42.17479674796748 16.71747967479675,41.920731707317074 17.1239837398374,41.61585365853659 17.428861788617887,41.3109756097561 17.733739837398375,41.00609756097561 17.98780487804878,40.701219512195124 18.140243902439025,40.4979674796748 18.241869918699187,40.447154471544714 18.29268292682927,40.447154471544714 18.29268292682927,40.59959349593496 18.29268292682927,40.90447154471545 18.241869918699187,41.36178861788618 18.089430894308943,41.97154471544715 17.9369918699187,42.68292682926829 17.733739837398375,43.546747967479675 17.53048780487805,44.30894308943089 17.378048780487806,45.07113821138211 17.225609756097562,45.73170731707317 17.17479674796748,46.1890243902439 17.1239837398374,46.49390243902439 17.1239837398374,46.7479674796748 17.1239837398374,46.90040650406504 17.17479674796748,46.90040650406504 17.327235772357724,46.951219512195124 17.428861788617887,46.84959349593496" fill="none" stroke="black" stroke-width="0.6"></polyline><polyline points="17.428861788617887,46.84959349593496" fill="none" stroke="black" stroke-width="0.6"></polyline><polyline points="28.455284552845526,40.29471544715447 28.455284552845526,40.29471544715447 28.455284552845526,40.24390243902439 28.455284552845526,40.19308943089431 28.455284552845526,40.142276422764226 28.455284552845526,40.09146341463415 28.404471544715445,40.040650406504064 28.302845528455283,39.989837398373986 28.099593495934958,39.9390243902439 27.84552845528455,39.9390243902439 27.489837398373982,39.9390243902439 27.134146341463413,39.9390243902439 26.778455284552845,40.040650406504064 26.524390243902438,40.19308943089431 26.270325203252032,40.447154471544714 26.16869918699187,40.65040650406504 26.16869918699187,40.95528455284553 26.16869918699187,41.260162601626014 26.371951219512194,41.5650406504065 26.6260162601626,41.86991869918699 26.98170731707317,42.22560975609756 27.286585365853657,42.53048780487805 27.642276422764226,42.886178861788615 27.947154471544714,43.34349593495935 28.20121951219512,43.75 28.353658536585364,44.15650406504065 28.404471544715445,44.66463414634146 28.404471544715445,45.07113821138211 28.302845528455283,45.579268292682926 28.099593495934958,46.08739837398374 27.84552845528455,46.49390243902439 27.540650406504064,46.90040650406504 27.184959349593495,47.20528455284553 26.880081300813007,47.357723577235774 26.6260162601626,47.357723577235774 26.371951219512194,47.30691056910569 26.21951219512195,47.15447154471545 26.117886178861788,46.90040650406504 26.117886178861788,46.49390243902439 26.117886178861788,46.03658536585366 26.270325203252032,45.42682926829268 26.524390243902438,44.66463414634146 26.880081300813007,43.953252032520325 27.33739837398374,43.24186991869919 27.79471544715447,42.58130081300813 28.2520325203252,42.17479674796748 28.60772357723577,41.86991869918699 28.96341463414634,41.71747967479675 29.268292682926827,41.61585365853659 29.471544715447155,41.5650406504065" fill="none" stroke="black" stroke-width="0.6"></polyline><polyline points="40.19308943089431,40.95528455284553 40.19308943089431,40.853658536585364 40.19308943089431,40.802845528455286 40.19308943089431,40.701219512195124 40.142276422764226,40.65040650406504 40.142276422764226,40.548780487804876 40.142276422764226,40.447154471544714 40.09146341463415,40.34552845528455 40.040650406504064,40.24390243902439 39.9390243902439,40.040650406504064 39.78658536585366,39.88821138211382 39.583333333333336,39.735772357723576 39.27845528455285,39.583333333333336 38.922764227642276,39.53252032520325 38.516260162601625,39.53252032520325 38.05894308943089,39.53252032520325 37.7540650406504,39.6849593495935 37.449186991869915,39.83739837398374 37.24593495934959,40.040650406504064 37.14430894308943,40.19308943089431 37.14430894308943,40.396341463414636 37.14430894308943,40.548780487804876 37.19512195121951,40.65040650406504 37.34756097560975,40.701219512195124 37.55081300813008,40.7520325203252 37.80487804878049,40.701219512195124 38.109756097560975,40.548780487804876 38.41463414634146,40.34552845528455 38.71951219512195,40.142276422764226 38.97357723577235,39.9390243902439 39.22764227642276,39.735772357723576 39.43089430894309,39.63414634146341 39.583333333333336,39.583333333333336 39.735772357723576,39.63414634146341 39.78658536585366,39.88821138211382 39.78658536585366,40.29471544715447 39.78658536585366,40.802845528455286 39.735772357723576,41.41260162601626 39.583333333333336,42.073170731707314 39.43089430894309,42.78455284552845 39.27845528455285,43.39430894308943 39.176829268292686,43.953252032520325 39.07520325203252,44.41056910569105 39.02439024390244,44.8170731707317 38.97357723577235,45.22357723577235 38.97357723577235,45.579268292682926 38.97357723577235,45.78252032520325 38.97357723577235,45.985772357723576 39.07520325203252,46.08739837398374 39.1260162601626,46.08739837398374 39.27845528455285,46.08739837398374" fill="none" stroke="black" stroke-width="0.6"></polyline><polyline points="39.27845528455285,46.08739837398374 39.48170731707317,45.9349593495935 39.583333333333336,45.833333333333336" fill="none" stroke="black" stroke-width="0.6"></polyline><polyline points="46.13821138211382,41.36178861788618 46.13821138211382,41.260162601626014 46.03658536585366,41.15853658536585 46.03658536585366,41.05691056910569 46.03658536585366,41.05691056910569 46.1890243902439,41.05691056910569 46.49390243902439,41.00609756097561 46.90040650406504,40.90447154471545 47.357723577235774,40.853658536585364 47.86585365853659,40.802845528455286 48.42479674796748,40.802845528455286 48.88211382113821,40.7520325203252 49.28861788617886,40.7520325203252 49.64430894308943,40.7520325203252 49.949186991869915,40.853658536585364 50.15243902439024,41.00609756097561 50.30487804878049,41.260162601626014 50.40650406504065,41.61585365853659 50.45731707317073,42.02235772357724 50.45731707317073,42.53048780487805 50.355691056910565,43.08943089430894 50.203252032520325,43.64837398373984 50.05081300813008,44.20731707317073 49.949186991869915,44.61382113821138 49.796747967479675,45.07113821138211 49.69512195121951,45.47764227642276 49.59349593495935,45.833333333333336 49.542682926829265,46.08739837398374 49.542682926829265,46.290650406504064 49.542682926829265,46.34146341463415 49.64430894308943,46.392276422764226 49.74593495934959,46.392276422764226 49.949186991869915,46.290650406504064 50.203252032520325,46.03658536585366" fill="none" stroke="black" stroke-width="0.6"></polyline><polyline points="58.58739837398374,41.41260162601626 58.536585365853654,41.41260162601626 58.43495934959349,41.36178861788618 58.38414634146341,41.260162601626014 58.33333333333333,41.260162601626014 58.28252032520325,41.260162601626014 58.28252032520325,41.209349593495936 58.28252032520325,41.209349593495936 58.28252032520325,41.209349593495936 58.28252032520325,41.209349593495936 58.33333333333333,41.15853658536585 58.485772357723576,41.107723577235774 58.6890243902439,41.00609756097561 58.94308943089431,40.802845528455286 59.298780487804876,40.65040650406504 59.70528455284553,40.447154471544714 60.21341463414634,40.29471544715447 60.77235772357724,40.142276422764226 61.33130081300813,40.09146341463415 61.78861788617886,40.09146341463415 62.14430894308943,40.19308943089431 62.5,40.29471544715447 62.703252032520325,40.447154471544714 62.80487804878049,40.65040650406504 62.90650406504065,40.90447154471545 62.90650406504065,41.107723577235774 62.80487804878049,41.36178861788618 62.60162601626016,41.61585365853659 62.34756097560975,41.920731707317074 61.99186991869919,42.17479674796748 61.58536585365854,42.479674796747965 61.229674796747965,42.733739837398375 60.8739837398374,42.9369918699187 60.56910569105691,43.140243902439025 60.36585365853659,43.24186991869919 60.21341463414634,43.292682926829265 60.21341463414634,43.292682926829265 60.21341463414634,43.292682926829265 60.264227642276424,43.292682926829265 60.46747967479675,43.34349593495935 60.72154471544715,43.39430894308943 61.02642276422764,43.44512195121951 61.43292682926829,43.546747967479675 61.78861788617886,43.64837398373984 62.14430894308943,43.80081300813008 62.5,44.0040650406504 62.703252032520325,44.15650406504065 62.855691056910565,44.359756097560975 62.90650406504065,44.512195121951216 62.90650406504065,44.71544715447154 62.80487804878049,44.918699186991866" fill="none" stroke="black" stroke-width="0.6"></polyline><polyline points="62.80487804878049,44.918699186991866 62.65243902439024,45.07113821138211 62.39837398373984,45.27439024390244 62.09349593495935,45.52845528455285 61.73780487804878,45.68089430894309 61.38211382113821,45.88414634146341 60.92479674796748,45.985772357723576 60.56910569105691,46.08739837398374 60.21341463414634,46.08739837398374 59.857723577235774,46.08739837398374 59.65447154471545,46.08739837398374 59.552845528455286,45.985772357723576 59.552845528455286,45.9349593495935" fill="none" stroke="black" stroke-width="0.6"></polyline><polyline points="69.15650406504065,40.447154471544714 69.10569105691057,40.396341463414636 69.05487804878048,40.29471544715447 69.0040650406504,40.24390243902439 69.0040650406504,40.24390243902439 69.0040650406504,40.24390243902439 69.0040650406504,40.396341463414636 69.0040650406504,40.59959349593496 69.0040650406504,40.90447154471545 69.0040650406504,41.260162601626014 68.95325203252033,41.61585365853659 68.90243902439025,41.920731707317074 68.90243902439025,42.22560975609756 68.90243902439025,42.479674796747965 68.90243902439025,42.68292682926829 68.95325203252033,42.83536585365854 69.10569105691057,42.9369918699187 69.2581300813008,43.03861788617886 69.41056910569105,43.140243902439025 69.61382113821138,43.140243902439025 69.91869918699187,43.140243902439025 70.22357723577235,43.08943089430894 70.57926829268293,42.9369918699187 70.8841463414634,42.78455284552845 71.1890243902439,42.63211382113821 71.4430894308943,42.479674796747965 71.64634146341463,42.327235772357724 71.79878048780488,42.1239837398374 71.95121951219512,41.97154471544715 72.05284552845528,41.76829268292683 72.10365853658537,41.514227642276424 72.10365853658537,41.260162601626014 72.10365853658537,41.05691056910569 72.10365853658537,40.90447154471545 72.05284552845528,40.853658536585364 72.0020325203252,40.802845528455286 71.95121951219512,40.802845528455286 71.95121951219512,40.853658536585364 71.95121951219512,40.95528455284553 71.95121951219512,41.260162601626014 71.95121951219512,41.61585365853659 71.95121951219512,42.1239837398374 71.95121951219512,42.68292682926829 71.90040650406505,43.292682926829265 71.79878048780488,43.953252032520325 71.7479674796748,44.512195121951216 71.69715447154472,45.07113821138211 71.69715447154472,45.579268292682926 71.69715447154472,45.88414634146341 71.69715447154472,46.13821138211382 71.7479674796748,46.290650406504064" fill="none" stroke="black" stroke-width="0.6"></polyline><polyline points="71.7479674796748,46.290650406504064 71.84959349593495,46.34146341463415 72.0020325203252,46.34146341463415 72.10365853658537,46.34146341463415" fill="none" stroke="black" stroke-width="0.6"></polyline><polyline points="80.28455284552845,40.65040650406504 80.28455284552845,40.65040650406504 80.23373983739837,40.4979674796748 80.1829268292683,40.396341463414636 80.1321138211382,40.29471544715447 80.1321138211382,40.24390243902439 80.1321138211382,40.19308943089431 80.23373983739837,40.19308943089431 80.48780487804878,40.19308943089431 80.84349593495935,40.142276422764226 81.30081300813008,40.142276422764226 81.8089430894309,40.142276422764226 82.26626016260163,40.142276422764226 82.72357723577235,40.142276422764226 83.07926829268293,40.19308943089431 83.33333333333333,40.29471544715447 83.58739837398373,40.396341463414636 83.6890243902439,40.4979674796748 83.6890243902439,40.65040650406504 83.6890243902439,40.853658536585364 83.58739837398373,41.00609756097561 83.28252032520325,41.260162601626014 82.97764227642276,41.514227642276424 82.6219512195122,41.81910569105691 82.26626016260163,42.02235772357724 81.96138211382113,42.27642276422764 81.7581300813008,42.42886178861789 81.65650406504065,42.58130081300813 81.65650406504065,42.68292682926829 81.70731707317073,42.886178861788615 81.91056910569105,43.08943089430894 82.21544715447155,43.34349593495935 82.5711382113821,43.59756097560975 82.97764227642276,43.90243902439024 83.28252032520325,44.15650406504065 83.58739837398373,44.46138211382114 83.84146341463415,44.71544715447154 83.9430894308943,44.96951219512195 83.9430894308943,45.22357723577235 83.89227642276423,45.42682926829268 83.6890243902439,45.63008130081301 83.3841463414634,45.88414634146341 82.97764227642276,46.13821138211382 82.5711382113821,46.34146341463415 82.11382113821138,46.49390243902439 81.60569105691057,46.59552845528455 81.19918699186992,46.646341463414636 80.84349593495935,46.59552845528455 80.53861788617886,46.44308943089431 80.4369918699187,46.239837398373986 80.38617886178862,45.985772357723576" fill="none" stroke="black" stroke-width="0.6"></polyline><polyline points="80.38617886178862,45.985772357723576 80.48780487804878,45.88414634146341" fill="none" stroke="black" stroke-width="0.6"></polyline><polyline points="90.34552845528455,41.514227642276424 90.29471544715447,41.41260162601626 90.1930894308943,41.209349593495936 90.1930894308943,41.15853658536585 90.14227642276423,41.107723577235774 90.1930894308943,41.107723577235774 90.34552845528455,41.15853658536585 90.65040650406503,41.15853658536585 90.95528455284553,41.209349593495936 91.41260162601625,41.209349593495936 91.92073170731707,41.209349593495936 92.3780487804878,41.209349593495936 92.78455284552845,41.260162601626014 93.14024390243902,41.260162601626014 93.34349593495935,41.36178861788618 93.4959349593496,41.514227642276424 93.54674796747967,41.81910569105691 93.54674796747967,42.1239837398374 93.39430894308943,42.58130081300813 93.14024390243902,43.140243902439025 92.83536585365853,43.699186991869915 92.47967479674797,44.20731707317073 92.1239837398374,44.766260162601625 91.76829268292683,45.22357723577235 91.46341463414635,45.63008130081301 91.26016260162602,45.985772357723576 91.10772357723577,46.239837398373986 91.0060975609756,46.392276422764226 90.95528455284553,46.44308943089431 90.95528455284553,46.44308943089431 90.95528455284553,46.44308943089431 90.95528455284553,46.44308943089431" fill="none" stroke="black" stroke-width="0.6"></polyline><polyline points="4.522357723577236,66.8191056910569 4.471544715447155,66.76829268292683 4.420731707317073,66.71747967479675 4.369918699186992,66.66666666666667 4.420731707317073,66.61585365853658 4.573170731707317,66.5650406504065 4.878048780487805,66.41260162601625 5.233739837398374,66.26016260162602 5.640243902439024,66.0569105691057 6.097560975609756,65.85365853658537 6.504065040650406,65.54878048780488 6.9105691056910565,65.2439024390244 7.266260162601625,64.9390243902439 7.520325203252033,64.6849593495935 7.6727642276422765,64.58333333333333 7.723577235772358,64.53252032520325 7.723577235772358,64.58333333333333 7.723577235772358,64.73577235772358 7.723577235772358,65.09146341463415 7.621951219512195,65.65040650406505 7.41869918699187,66.36178861788618 7.215447154471544,67.22560975609755 7.012195121951219,68.14024390243902 6.808943089430894,69.05487804878048 6.605691056910569,69.86788617886178 6.453252032520325,70.47764227642276 6.300813008130081,70.98577235772358 6.1483739837398375,71.4430894308943 6.097560975609756,71.7479674796748 6.097560975609756,72.0020325203252 6.046747967479675,72.15447154471545 6.046747967479675,72.15447154471545" fill="none" stroke="black" stroke-width="0.6"></polyline><polyline points="4.623983739837398,72.76422764227642 4.573170731707317,72.76422764227642 4.522357723577236,72.71341463414635 4.471544715447155,72.71341463414635 4.471544715447155,72.71341463414635 4.471544715447155,72.71341463414635 4.67479674796748,72.71341463414635 4.979674796747967,72.76422764227642 5.335365853658536,72.76422764227642 5.84349593495935,72.76422764227642 6.402439024390244,72.66260162601625 6.961382113821138,72.51016260162602 7.571138211382114,72.35772357723577 8.231707317073171,72.10365853658537 8.790650406504065,71.90040650406505 9.34959349593496,71.59552845528455 9.959349593495935,71.29065040650406 10.518292682926829,70.9349593495935" fill="none" stroke="black" stroke-width="0.6"></polyline><polyline points="15.091463414634147,67.17479674796748 15.040650406504065,67.07317073170732 14.989837398373984,66.8191056910569 14.939024390243903,66.66666666666667 15.091463414634147,66.51422764227642 15.396341463414634,66.3109756097561 15.853658536585366,66.10772357723577 16.36178861788618,66.0569105691057 16.869918699186993,66.10772357723577 17.327235772357724,66.3109756097561 17.632113821138212,66.61585365853658 17.835365853658537,66.97154471544715 17.88617886178862,67.42886178861788 17.9369918699187,67.83536585365853 17.835365853658537,68.29268292682927 17.632113821138212,68.80081300813008 17.428861788617887,69.2581300813008 17.1239837398374,69.76626016260163 16.81910569105691,70.17276422764228 16.615853658536587,70.42682926829268 16.41260162601626,70.57926829268293 16.209349593495933,70.68089430894308 16.05691056910569,70.68089430894308 15.955284552845528,70.57926829268293 15.955284552845528,70.47764227642276 15.955284552845528,70.27439024390243 16.10772357723577,70.1219512195122 16.36178861788618,69.91869918699187 16.71747967479675,69.76626016260163 17.073170731707318,69.66463414634146 17.53048780487805,69.66463414634146 17.98780487804878,69.66463414634146 18.445121951219512,69.8170731707317 18.902439024390244,69.96951219512195 19.308943089430894,70.0711382113821 19.715447154471544,70.17276422764228 20.121951219512194,70.22357723577235 20.274390243902438,70.22357723577235" fill="none" stroke="black" stroke-width="0.6"></polyline><polyline points="29.522357723577237,65.59959349593495 29.522357723577237,65.59959349593495 29.522357723577237,65.54878048780488 29.522357723577237,65.4979674796748 29.522357723577237,65.4979674796748 29.522357723577237,65.44715447154472 29.420731707317074,65.34552845528455 29.369918699186993,65.29471544715447 29.217479674796746,65.1930894308943 29.0650406504065,65.09146341463415 28.810975609756095,65.04065040650406 28.506097560975608,64.9390243902439 28.15040650406504,64.9390243902439 27.74390243902439,64.98983739837398 27.33739837398374,65.1930894308943 26.93089430894309,65.4979674796748 26.6260162601626,65.80284552845528 26.422764227642276,66.10772357723577 26.321138211382113,66.46341463414635 26.321138211382113,66.76829268292683 26.371951219512194,66.97154471544715 26.524390243902438,67.17479674796748 26.676829268292682,67.22560975609755 26.880081300813007,67.22560975609755 27.134146341463413,67.17479674796748 27.4390243902439,67.02235772357723 27.74390243902439,66.71747967479675 28.048780487804876,66.41260162601625 28.353658536585364,66.0569105691057 28.60772357723577,65.70121951219512 28.810975609756095,65.44715447154472 28.912601626016258,65.29471544715447 28.912601626016258,65.2439024390244 28.912601626016258,65.2439024390244 28.861788617886177,65.29471544715447 28.810975609756095,65.44715447154472 28.709349593495933,65.80284552845528 28.60772357723577,66.41260162601625 28.404471544715445,67.22560975609755 28.2520325203252,68.03861788617886 28.099593495934958,68.85162601626016 27.947154471544714,69.71544715447155 27.84552845528455,70.32520325203252 27.74390243902439,70.83333333333333 27.642276422764226,71.29065040650406 27.591463414634145,71.59552845528455 27.591463414634145,71.84959349593495 27.540650406504064,71.95121951219512 27.540650406504064,72.0020325203252 27.540650406504064,72.0020325203252" fill="none" stroke="black" stroke-width="0.6"></polyline><polyline points="37.5,66.26016260162602 37.5,66.26016260162602 37.5,66.15853658536585 37.5,66.0569105691057 37.5,65.95528455284553 37.5,65.90447154471545 37.5,65.80284552845528 37.55081300813008,65.7520325203252 37.60162601626016,65.70121951219512 37.65243902439024,65.65040650406505 37.703252032520325,65.65040650406505 37.7540650406504,65.65040650406505 37.7540650406504,65.59959349593495 37.80487804878049,65.59959349593495 37.80487804878049,65.59959349593495 37.855691056910565,65.59959349593495 37.855691056910565,65.65040650406505 37.855691056910565,65.65040650406505 37.855691056910565,65.65040650406505 37.855691056910565,65.65040650406505 37.855691056910565,65.65040650406505 37.855691056910565,65.70121951219512 37.855691056910565,65.70121951219512 37.855691056910565,65.70121951219512 37.855691056910565,65.70121951219512 37.855691056910565,65.70121951219512 37.855691056910565,65.70121951219512 37.855691056910565,65.70121951219512 37.855691056910565,65.70121951219512 37.855691056910565,65.70121951219512 37.855691056910565,65.70121951219512 37.855691056910565,65.70121951219512 37.855691056910565,65.70121951219512 37.855691056910565,65.70121951219512 37.855691056910565,65.70121951219512 37.855691056910565,65.70121951219512 37.855691056910565,65.70121951219512 37.855691056910565,65.70121951219512 37.855691056910565,65.70121951219512 37.855691056910565,65.70121951219512 37.855691056910565,65.70121951219512 37.855691056910565,65.70121951219512 37.855691056910565,65.70121951219512 37.855691056910565,65.70121951219512 37.855691056910565,65.70121951219512 37.855691056910565,65.70121951219512 37.855691056910565,65.70121951219512 37.855691056910565,65.70121951219512 37.855691056910565,65.70121951219512 37.855691056910565,65.70121951219512 37.855691056910565,65.70121951219512" fill="none" stroke="black" stroke-width="0.6"></polyline><polyline points="37.855691056910565,65.70121951219512 37.855691056910565,65.70121951219512 37.855691056910565,65.70121951219512 37.855691056910565,65.70121951219512 37.855691056910565,65.70121951219512 37.855691056910565,65.70121951219512 37.855691056910565,65.70121951219512 37.855691056910565,65.70121951219512 37.855691056910565,65.70121951219512 37.855691056910565,65.70121951219512 37.855691056910565,65.70121951219512 37.855691056910565,65.70121951219512 37.855691056910565,65.70121951219512 37.855691056910565,65.70121951219512 37.855691056910565,65.70121951219512 37.855691056910565,65.70121951219512 37.855691056910565,65.70121951219512 37.855691056910565,65.70121951219512 37.855691056910565,65.70121951219512 37.855691056910565,65.70121951219512 37.855691056910565,65.70121951219512 37.855691056910565,65.70121951219512 37.855691056910565,65.70121951219512 37.855691056910565,65.70121951219512 37.855691056910565,65.70121951219512 37.855691056910565,65.70121951219512 37.855691056910565,65.70121951219512 37.855691056910565,65.70121951219512 37.855691056910565,65.70121951219512 37.855691056910565,65.70121951219512 37.855691056910565,65.70121951219512 37.855691056910565,65.70121951219512 37.855691056910565,65.70121951219512 37.855691056910565,65.70121951219512 37.855691056910565,65.70121951219512 37.855691056910565,65.70121951219512 37.855691056910565,65.70121951219512 37.855691056910565,65.70121951219512 37.855691056910565,65.70121951219512 37.855691056910565,65.70121951219512 37.855691056910565,65.70121951219512 37.855691056910565,65.70121951219512 37.855691056910565,65.70121951219512 37.855691056910565,65.70121951219512 37.855691056910565,65.70121951219512 37.80487804878049,65.70121951219512 37.80487804878049,65.70121951219512 37.80487804878049,65.70121951219512 37.80487804878049,65.70121951219512 37.80487804878049,65.70121951219512 37.80487804878049,65.70121951219512" fill="none" stroke="black" stroke-width="0.6"></polyline><polyline points="37.80487804878049,65.70121951219512 37.80487804878049,65.70121951219512 37.80487804878049,65.70121951219512 37.80487804878049,65.70121951219512 37.80487804878049,65.70121951219512 37.855691056910565,65.70121951219512 37.95731707317073,65.70121951219512 38.16056910569105,65.54878048780488 38.41463414634146,65.34552845528455 38.82113821138211,65.14227642276423 39.1260162601626,64.9390243902439 39.43089430894309,64.83739837398373 39.735772357723576,64.83739837398373 39.88821138211382,64.9390243902439 40.040650406504064,65.29471544715447 40.09146341463415,65.7520325203252 40.09146341463415,66.3109756097561 39.989837398373986,66.97154471544715 39.83739837398374,67.6829268292683 39.63414634146341,68.24186991869918 39.43089430894309,68.75 39.27845528455285,69.2581300813008 39.1260162601626,69.5630081300813 39.07520325203252,69.86788617886178 38.97357723577235,70.0711382113821 38.922764227642276,70.17276422764228 38.922764227642276,70.17276422764228 38.87195121951219,70.22357723577235" fill="none" stroke="black" stroke-width="0.6"></polyline><polyline points="38.109756097560975,69.96951219512195 38.05894308943089,69.96951219512195 37.90650406504065,70.02032520325203 37.703252032520325,70.0711382113821 37.60162601626016,70.1219512195122 37.5,70.17276422764228 37.449186991869915,70.22357723577235 37.449186991869915,70.22357723577235 37.449186991869915,70.27439024390243 37.449186991869915,70.32520325203252 37.60162601626016,70.3760162601626 37.855691056910565,70.3760162601626 38.16056910569105,70.3760162601626 38.5670731707317,70.3760162601626 39.02439024390244,70.32520325203252 39.48170731707317,70.22357723577235 39.989837398373986,70.1219512195122 40.4979674796748,70.02032520325203 41.05691056910569,69.91869918699187 41.36178861788618,69.91869918699187" fill="none" stroke="black" stroke-width="0.6"></polyline><polyline points="48.323170731707314,65.80284552845528 48.27235772357724,65.80284552845528 48.22154471544715,65.80284552845528 48.170731707317074,65.80284552845528 48.170731707317074,65.80284552845528 48.11991869918699,65.7520325203252 48.11991869918699,65.70121951219512 48.22154471544715,65.65040650406505 48.47560975609756,65.54878048780488 48.83130081300813,65.44715447154472 49.23780487804878,65.34552845528455 49.69512195121951,65.34552845528455 50.10162601626016,65.34552845528455 50.50813008130081,65.34552845528455 50.8130081300813,65.44715447154472 51.016260162601625,65.59959349593495 51.11788617886179,65.70121951219512 51.168699186991866,65.90447154471545 51.11788617886179,66.15853658536585 50.96544715447154,66.41260162601625 50.66056910569105,66.76829268292683 50.30487804878049,67.07317073170732 49.949186991869915,67.3780487804878 49.59349593495935,67.6321138211382 49.23780487804878,67.83536585365853 48.983739837398375,67.9369918699187 48.83130081300813,68.03861788617886 48.78048780487805,68.08943089430895 48.78048780487805,68.08943089430895 48.93292682926829,68.1910569105691 49.1869918699187,68.29268292682927 49.542682926829265,68.4451219512195 49.89837398373984,68.54674796747967 50.355691056910565,68.69918699186992 50.762195121951216,68.85162601626016 51.0670731707317,69.0040650406504 51.422764227642276,69.15650406504065 51.575203252032516,69.35975609756098 51.6260162601626,69.5630081300813 51.67682926829268,69.76626016260163 51.6260162601626,69.96951219512195 51.422764227642276,70.17276422764228 51.168699186991866,70.42682926829268 50.86382113821138,70.57926829268293 50.50813008130081,70.78252032520325 50.05081300813008,70.9349593495935 49.64430894308943,70.98577235772358 49.23780487804878,71.03658536585365 48.83130081300813,71.03658536585365 48.52642276422764,70.9349593495935 48.27235772357724,70.83333333333333" fill="none" stroke="black" stroke-width="0.6"></polyline><polyline points="48.27235772357724,70.83333333333333 48.170731707317074,70.73170731707317 48.170731707317074,70.68089430894308 48.22154471544715,70.57926829268293" fill="none" stroke="black" stroke-width="0.6"></polyline><polyline points="59.04471544715447,65.14227642276423 59.04471544715447,65.09146341463415 58.99390243902439,65.04065040650406 58.94308943089431,64.98983739837398 58.94308943089431,64.98983739837398 58.94308943089431,64.98983739837398 58.94308943089431,65.14227642276423 58.94308943089431,65.39634146341463 58.94308943089431,65.7520325203252 58.892276422764226,66.10772357723577 58.892276422764226,66.51422764227642 58.892276422764226,66.869918699187 58.892276422764226,67.1239837398374 58.99390243902439,67.42886178861788 59.146341463414636,67.58130081300813 59.34959349593496,67.6829268292683 59.603658536585364,67.78455284552845 59.90853658536585,67.78455284552845 60.3150406504065,67.78455284552845 60.72154471544715,67.6829268292683 61.1280487804878,67.53048780487805 61.483739837398375,67.32723577235772 61.636178861788615,67.22560975609755" fill="none" stroke="black" stroke-width="0.6"></polyline><polyline points="62.90650406504065,65.39634146341463 62.95731707317073,65.44715447154472 62.95731707317073,65.44715447154472 63.00813008130081,65.54878048780488 63.00813008130081,65.80284552845528 63.00813008130081,66.3109756097561 63.00813008130081,67.1239837398374 62.90650406504065,68.03861788617886 62.855691056910565,68.80081300813008 62.7540650406504,69.5630081300813 62.703252032520325,70.22357723577235 62.60162601626016,70.68089430894308 62.55081300813008,71.1890243902439 62.55081300813008,71.59552845528455 62.55081300813008,71.90040650406505 62.55081300813008,72.05284552845528 62.60162601626016,72.15447154471545 62.703252032520325,72.10365853658537" fill="none" stroke="black" stroke-width="0.6"></polyline><polyline points="72.8150406504065,65.95528455284553 72.8150406504065,65.95528455284553 72.8150406504065,65.95528455284553 72.8150406504065,65.95528455284553 72.76422764227642,65.90447154471545 72.76422764227642,65.85365853658537 72.71341463414635,65.80284552845528 72.61178861788618,65.70121951219512 72.45934959349593,65.59959349593495 72.2560975609756,65.44715447154472 72.0020325203252,65.29471544715447 71.69715447154472,65.1930894308943 71.34146341463415,65.09146341463415 70.98577235772358,65.14227642276423 70.57926829268293,65.29471544715447 70.27439024390243,65.54878048780488 70.0711382113821,65.85365853658537 69.91869918699187,66.20934959349593 69.91869918699187,66.46341463414635 69.91869918699187,66.71747967479675 70.0711382113821,66.92073170731707 70.27439024390243,66.97154471544715 70.52845528455285,66.97154471544715 70.78252032520325,66.92073170731707 71.08739837398373,66.71747967479675 71.39227642276423,66.51422764227642 71.69715447154472,66.20934959349593 71.90040650406505,65.95528455284553 72.10365853658537,65.7520325203252 72.2560975609756,65.59959349593495 72.3069105691057,65.4979674796748 72.35772357723577,65.4979674796748 72.35772357723577,65.54878048780488 72.35772357723577,65.80284552845528 72.3069105691057,66.26016260162602 72.20528455284553,66.8191056910569 72.05284552845528,67.53048780487805 71.90040650406505,68.24186991869918 71.69715447154472,69.0040650406504 71.59552845528455,69.66463414634146 71.4430894308943,70.17276422764228 71.39227642276423,70.57926829268293 71.39227642276423,70.8841463414634 71.39227642276423,71.13821138211382 71.4430894308943,71.34146341463415 71.49390243902438,71.4430894308943 71.59552845528455,71.4430894308943 71.7479674796748,71.39227642276423" fill="none" stroke="black" stroke-width="0.6"></polyline><polyline points="80.03048780487805,65.65040650406505 79.92886178861788,65.65040650406505 79.82723577235772,65.65040650406505 79.67479674796748,65.7520325203252 79.47154471544715,66.0569105691057 79.26829268292683,66.61585365853658 79.01422764227642,67.42886178861788 78.91260162601625,68.24186991869918 78.86178861788618,68.85162601626016 78.91260162601625,69.41056910569105 79.01422764227642,69.86788617886178 79.11585365853658,70.17276422764228 79.3191056910569,70.32520325203252 79.57317073170732,70.3760162601626 79.8780487804878,70.3760162601626 80.23373983739837,70.27439024390243 80.58943089430895,70.0711382113821 80.9451219512195,69.8170731707317 81.35162601626016,69.51219512195122 81.70731707317073,69.10569105691057 81.96138211382113,68.75 82.11382113821138,68.39430894308943 82.16463414634146,68.03861788617886 82.16463414634146,67.78455284552845 82.01219512195122,67.6321138211382 81.85975609756098,67.58130081300813 81.65650406504065,67.58130081300813 81.40243902439025,67.6829268292683 81.14837398373983,67.9369918699187 80.9451219512195,68.24186991869918 80.6910569105691,68.64837398373983 80.48780487804878,69.15650406504065 80.38617886178862,69.61382113821138 80.38617886178862,70.0711382113821 80.4369918699187,70.47764227642276 80.58943089430895,70.68089430894308 80.74186991869918,70.78252032520325" fill="none" stroke="black" stroke-width="0.6"></polyline><polyline points="93.39430894308943,65.70121951219512 93.4451219512195,65.70121951219512 93.4959349593496,65.70121951219512 93.54674796747967,65.70121951219512 93.59756097560975,65.65040650406505 93.59756097560975,65.65040650406505 93.59756097560975,65.59959349593495 93.4451219512195,65.59959349593495 93.1910569105691,65.59959349593495 92.78455284552845,65.59959349593495 92.32723577235772,65.59959349593495 91.8191056910569,65.70121951219512 91.3109756097561,65.80284552845528 90.90447154471545,65.95528455284553 90.65040650406503,66.15853658536585 90.4979674796748,66.51422764227642 90.4979674796748,66.97154471544715 90.70121951219512,67.53048780487805 91.0569105691057,68.03861788617886 91.41260162601625,68.4959349593496 91.8191056910569,68.95325203252033 92.22560975609755,69.41056910569105 92.47967479674797,69.8170731707317 92.73373983739837,70.17276422764228 92.88617886178862,70.42682926829268 92.9369918699187,70.630081300813 92.88617886178862,70.83333333333333 92.6829268292683,71.03658536585365 92.42886178861788,71.1890243902439 92.1239837398374,71.29065040650406 91.71747967479675,71.34146341463415 91.3109756097561,71.34146341463415 90.90447154471545,71.1890243902439 90.59959349593495,71.03658536585365 90.39634146341463,70.8841463414634 90.24390243902438,70.68089430894308 90.1930894308943,70.42682926829268 90.1930894308943,70.17276422764228 90.39634146341463,69.8170731707317 90.65040650406503,69.35975609756098 91.10772357723577,68.85162601626016 91.66666666666667,68.29268292682927 92.32723577235772,67.78455284552845 92.9369918699187,67.42886178861788 93.4451219512195,67.22560975609755 93.80081300813008,67.1239837398374 94.0040650406504,67.07317073170732 94.10569105691057,67.07317073170732 94.15650406504065,67.07317073170732 94.15650406504065,67.07317073170732 94.15650406504065,67.07317073170732" fill="none" stroke="black" stroke-width="0.6"></polyline><polyline points="94.15650406504065,67.07317073170732" fill="none" stroke="black" stroke-width="0.6"></polyline><polyline points="5.132113821138211,88.92276422764228 5.030487804878049,88.92276422764228 4.928861788617886,88.8719512195122 4.878048780487805,88.8719512195122 4.8272357723577235,88.92276422764228 4.8272357723577235,89.17682926829268 4.776422764227642,89.53252032520325 4.776422764227642,90.09146341463415 4.776422764227642,90.65040650406503 4.776422764227642,91.26016260162602 4.8272357723577235,91.66666666666667 4.928861788617886,92.02235772357723 5.030487804878049,92.22560975609755 5.132113821138211,92.32723577235772 5.335365853658536,92.3780487804878 5.589430894308943,92.3780487804878 5.84349593495935,92.27642276422765 6.1483739837398375,92.1239837398374 6.504065040650406,91.92073170731707 6.859756097560975,91.66666666666667 7.215447154471544,91.41260162601625 7.571138211382114,91.0569105691057 7.723577235772358,90.90447154471545" fill="none" stroke="black" stroke-width="0.6"></polyline><polyline points="8.434959349593496,88.61788617886178 8.384146341463415,88.66869918699187 8.282520325203253,88.71951219512195 8.231707317073171,88.92276422764228 8.18089430894309,89.380081300813 8.130081300813007,90.14227642276423 8.028455284552845,91.15853658536585 7.977642276422764,92.02235772357723 7.876016260162602,92.88617886178862 7.774390243902439,93.75 7.621951219512195,94.35975609756098 7.520325203252033,94.91869918699187 7.469512195121951,95.32520325203252 7.469512195121951,95.68089430894308 7.469512195121951,95.9349593495935 7.520325203252033,96.08739837398373 7.571138211382114,96.08739837398373" fill="none" stroke="black" stroke-width="0.6"></polyline><polyline points="16.05691056910569,90.95528455284553 16.05691056910569,90.85365853658536 16.006097560975608,90.80284552845528 16.006097560975608,90.70121951219512 16.006097560975608,90.65040650406503 16.10772357723577,90.54878048780488 16.3109756097561,90.4471544715447 16.565040650406505,90.34552845528455 16.920731707317074,90.29471544715447 17.327235772357724,90.29471544715447 17.733739837398375,90.4979674796748 18.089430894308943,90.7520325203252 18.39430894308943,91.0060975609756 18.597560975609756,91.3109756097561 18.75,91.66666666666667 18.80081300813008,92.02235772357723 18.75,92.32723577235772 18.597560975609756,92.6829268292683 18.445121951219512,92.98780487804878 18.191056910569106,93.24186991869918 17.9369918699187,93.4959349593496 17.632113821138212,93.59756097560975 17.327235772357724,93.69918699186992 16.971544715447155,93.69918699186992 16.71747967479675,93.59756097560975 16.514227642276424,93.4959349593496 16.41260162601626,93.34349593495935 16.41260162601626,93.24186991869918 16.565040650406505,93.08943089430895 16.81910569105691,92.98780487804878 17.225609756097562,92.9369918699187 17.682926829268293,92.9369918699187 18.140243902439025,92.88617886178862 18.648373983739837,92.88617886178862 19.20731707317073,92.88617886178862 19.766260162601625,92.9369918699187 20.32520325203252,92.9369918699187 20.934959349593495,92.88617886178862 21.443089430894307,92.83536585365853 21.95121951219512,92.73373983739837 22.459349593495933,92.53048780487805" fill="none" stroke="black" stroke-width="0.6"></polyline><polyline points="25.45731707317073,89.6849593495935 25.45731707317073,89.6849593495935 25.45731707317073,89.6849593495935 25.45731707317073,89.6341463414634 25.45731707317073,89.6341463414634 25.660569105691057,89.58333333333333 25.965447154471544,89.53252032520325 26.371951219512194,89.48170731707317 26.93089430894309,89.32926829268293 27.4390243902439,89.22764227642276 27.947154471544714,89.1260162601626 28.302845528455283,89.07520325203252 28.60772357723577,89.07520325203252 28.861788617886177,89.1260162601626 29.01422764227642,89.27845528455285 29.115853658536583,89.53252032520325 29.217479674796746,89.88821138211382 29.217479674796746,90.34552845528455 29.166666666666664,90.85365853658536 29.01422764227642,91.51422764227642 28.861788617886177,92.02235772357723 28.65853658536585,92.53048780487805 28.506097560975608,93.03861788617886 28.353658536585364,93.39430894308943 28.302845528455283,93.64837398373983 28.2520325203252,93.85162601626016 28.2520325203252,93.95325203252033 28.302845528455283,94.0040650406504 28.404471544715445,94.0040650406504 28.55691056910569,93.85162601626016 28.810975609756095,93.59756097560975 29.01422764227642,93.4451219512195" fill="none" stroke="black" stroke-width="0.6"></polyline><polyline points="37.855691056910565,89.53252032520325 37.855691056910565,89.53252032520325 37.80487804878049,89.48170731707317 37.7540650406504,89.48170731707317 37.703252032520325,89.43089430894308 37.703252032520325,89.43089430894308 37.703252032520325,89.43089430894308 37.80487804878049,89.380081300813 38.00813008130081,89.32926829268293 38.3130081300813,89.22764227642276 38.668699186991866,89.17682926829268 39.07520325203252,89.1260162601626 39.53252032520325,89.07520325203252 39.9390243902439,89.07520325203252 40.29471544715447,89.07520325203252 40.65040650406504,89.17682926829268 40.853658536585364,89.27845528455285 40.95528455284553,89.380081300813 41.05691056910569,89.53252032520325 41.05691056910569,89.6849593495935 40.95528455284553,89.88821138211382 40.802845528455286,90.14227642276423 40.548780487804876,90.34552845528455 40.24390243902439,90.59959349593495 39.9390243902439,90.85365853658536 39.6849593495935,91.0569105691057 39.43089430894309,91.20934959349593 39.329268292682926,91.3109756097561 39.27845528455285,91.41260162601625 39.27845528455285,91.51422764227642 39.48170731707317,91.61585365853658 39.78658536585366,91.76829268292683 40.19308943089431,91.92073170731707 40.548780487804876,92.07317073170732 41.00609756097561,92.22560975609755 41.41260162601626,92.3780487804878 41.666666666666664,92.53048780487805 41.86991869918699,92.6829268292683 42.02235772357724,92.88617886178862 42.02235772357724,93.03861788617886 42.02235772357724,93.24186991869918 42.02235772357724,93.39430894308943 41.920731707317074,93.4959349593496 41.71747967479675,93.64837398373983 41.41260162601626,93.80081300813008 41.05691056910569,93.90243902439025 40.65040650406504,94.0040650406504 40.19308943089431,94.05487804878048 39.735772357723576,94.10569105691057 39.38008130081301,94.15650406504065 39.07520325203252,94.15650406504065" fill="none" stroke="black" stroke-width="0.6"></polyline><polyline points="39.07520325203252,94.15650406504065 38.922764227642276,94.15650406504065 38.87195121951219,94.15650406504065 38.87195121951219,94.15650406504065" fill="none" stroke="black" stroke-width="0.6"></polyline><polyline points="52.28658536585366,89.48170731707317 52.235772357723576,89.48170731707317 52.13414634146341,89.43089430894308 52.03252032520325,89.380081300813 51.93089430894309,89.32926829268293 51.72764227642276,89.32926829268293 51.52439024390244,89.32926829268293 51.21951219512195,89.32926829268293 50.8130081300813,89.32926829268293 50.355691056910565,89.32926829268293 49.84756097560975,89.380081300813 49.28861788617886,89.53252032520325 48.83130081300813,89.73577235772358 48.42479674796748,89.9390243902439 48.01829268292683,90.24390243902438 47.8150406504065,90.54878048780488 47.71341463414634,90.85365853658536 47.71341463414634,91.10772357723577 47.8150406504065,91.36178861788618 48.06910569105691,91.61585365853658 48.47560975609756,91.869918699187 48.88211382113821,92.02235772357723 49.33943089430894,92.17479674796748 49.84756097560975,92.32723577235772 50.2540650406504,92.42886178861788 50.609756097560975,92.58130081300813 50.86382113821138,92.6829268292683 51.016260162601625,92.78455284552845 51.016260162601625,92.9369918699187 51.016260162601625,93.08943089430895 50.86382113821138,93.24186991869918 50.55894308943089,93.4451219512195 50.15243902439024,93.64837398373983 49.74593495934959,93.80081300813008 49.23780487804878,93.95325203252033 48.729674796747965,94.0040650406504 48.27235772357724,94.05487804878048 47.86585365853659,94.05487804878048 47.66260162601626,94.05487804878048 47.61178861788618,94.05487804878048" fill="none" stroke="black" stroke-width="0.6"></polyline><polyline points="62.60162601626016,89.02439024390243 62.60162601626016,89.02439024390243 62.703252032520325,89.02439024390243 62.7540650406504,89.02439024390243 62.80487804878049,89.07520325203252 62.90650406504065,89.1260162601626 62.95731707317073,89.17682926829268 62.95731707317073,89.22764227642276 63.00813008130081,89.22764227642276 63.00813008130081,89.27845528455285 63.05894308943089,89.27845528455285 63.05894308943089,89.27845528455285 63.05894308943089,89.32926829268293 63.05894308943089,89.32926829268293 63.05894308943089,89.32926829268293 63.00813008130081,89.32926829268293 63.00813008130081,89.32926829268293 62.95731707317073,89.32926829268293 62.90650406504065,89.32926829268293 62.855691056910565,89.32926829268293 62.80487804878049,89.27845528455285 62.703252032520325,89.27845528455285 62.55081300813008,89.22764227642276 62.39837398373984,89.17682926829268 62.19512195121951,89.1260162601626 61.890243902439025,89.07520325203252 61.58536585365854,89.02439024390243 61.17886178861789,89.02439024390243 60.77235772357724,89.02439024390243 60.46747967479675,89.02439024390243 60.11178861788618,89.1260162601626 59.75609756097561,89.27845528455285 59.451219512195124,89.48170731707317 59.197154471544714,89.6849593495935 58.892276422764226,89.88821138211382 58.6890243902439,90.09146341463415 58.536585365853654,90.29471544715447 58.38414634146341,90.4979674796748 58.33333333333333,90.65040650406503 58.33333333333333,90.7520325203252 58.33333333333333,90.90447154471545 58.43495934959349,91.0569105691057 58.63821138211382,91.20934959349593 58.892276422764226,91.36178861788618 59.2479674796748,91.51422764227642 59.65447154471545,91.66666666666667 60.0609756097561,91.8191056910569 60.416666666666664,91.97154471544715 60.77235772357724,92.17479674796748 61.077235772357724,92.32723577235772 61.28048780487805,92.53048780487805" fill="none" stroke="black" stroke-width="0.6"></polyline><polyline points="61.28048780487805,92.53048780487805 61.38211382113821,92.73373983739837 61.38211382113821,92.9369918699187 61.33130081300813,93.1910569105691 61.077235772357724,93.4959349593496 60.72154471544715,93.85162601626016 60.3150406504065,94.15650406504065 59.80691056910569,94.35975609756098 59.2479674796748,94.5630081300813 58.739837398373986,94.66463414634146 58.231707317073166,94.71544715447155 57.8760162601626,94.76626016260163 57.672764227642276,94.76626016260163 57.57113821138211,94.71544715447155 57.62195121951219,94.5630081300813 57.72357723577235,94.46138211382113" fill="none" stroke="black" stroke-width="0.6"></polyline><polyline points="70.02032520325203,89.17682926829268 69.96951219512195,89.17682926829268 69.96951219512195,89.17682926829268 69.91869918699187,89.17682926829268 69.91869918699187,89.1260162601626 69.86788617886178,89.1260162601626 69.86788617886178,89.1260162601626 69.86788617886178,89.1260162601626 69.8170731707317,89.07520325203252 69.8170731707317,89.07520325203252 69.8170731707317,89.07520325203252 69.8170731707317,89.07520325203252 69.8170731707317,89.07520325203252 69.91869918699187,89.02439024390243 70.0711382113821,88.92276422764228 70.27439024390243,88.8211382113821 70.57926829268293,88.8211382113821 70.9349593495935,88.8211382113821 71.34146341463415,88.97357723577235 71.69715447154472,89.22764227642276 72.10365853658537,89.58333333333333 72.40853658536585,89.98983739837398 72.51016260162602,90.4471544715447 72.5609756097561,90.90447154471545 72.51016260162602,91.3109756097561 72.35772357723577,91.66666666666667 72.15447154471545,91.97154471544715 71.90040650406505,92.22560975609755 71.59552845528455,92.42886178861788 71.29065040650406,92.58130081300813 70.98577235772358,92.6321138211382 70.68089430894308,92.58130081300813 70.42682926829268,92.42886178861788 70.27439024390243,92.22560975609755 70.22357723577235,92.02235772357723 70.22357723577235,91.869918699187 70.3760162601626,91.76829268292683 70.68089430894308,91.71747967479675 71.03658536585365,91.71747967479675 71.49390243902438,91.8191056910569 71.90040650406505,91.97154471544715 72.40853658536585,92.22560975609755 72.8150406504065,92.47967479674797 73.22154471544715,92.73373983739837 73.57723577235772,92.88617886178862 73.9329268292683,92.9369918699187 74.23780487804878,92.9369918699187" fill="none" stroke="black" stroke-width="0.6"></polyline><polyline points="81.60569105691057,88.3130081300813 81.60569105691057,88.3130081300813 81.60569105691057,88.3130081300813 81.60569105691057,88.3130081300813 81.60569105691057,88.3130081300813 81.60569105691057,88.3130081300813 81.60569105691057,88.3130081300813 81.65650406504065,88.3130081300813 81.65650406504065,88.3130081300813 81.65650406504065,88.3130081300813 81.65650406504065,88.3130081300813 81.65650406504065,88.3130081300813 81.70731707317073,88.26219512195122 81.70731707317073,88.26219512195122 81.70731707317073,88.21138211382113 81.70731707317073,88.21138211382113 81.65650406504065,88.16056910569105 81.5040650406504,88.10975609756098 81.35162601626016,88.0589430894309 81.14837398373983,88.0081300813008 80.89430894308943,88.0081300813008 80.64024390243902,88.0081300813008 80.4369918699187,88.16056910569105 80.28455284552845,88.36382113821138 80.23373983739837,88.66869918699187 80.28455284552845,89.07520325203252 80.58943089430895,89.53252032520325 80.9959349593496,89.98983739837398 81.45325203252033,90.4471544715447 81.85975609756098,90.85365853658536 82.21544715447155,91.26016260162602 82.46951219512195,91.5650406504065 82.6219512195122,91.869918699187 82.72357723577235,92.17479674796748 82.72357723577235,92.42886178861788 82.67276422764228,92.6829268292683 82.52032520325203,92.9369918699187 82.36788617886178,93.08943089430895 82.11382113821138,93.1910569105691 81.85975609756098,93.24186991869918 81.55487804878048,93.1910569105691 81.19918699186992,93.03861788617886 80.89430894308943,92.78455284552845 80.64024390243902,92.42886178861788 80.4369918699187,92.02235772357723 80.33536585365853,91.66666666666667 80.33536585365853,91.3109756097561 80.48780487804878,90.90447154471545 80.74186991869918,90.54878048780488 81.19918699186992,90.14227642276423 81.70731707317073,89.6849593495935" fill="none" stroke="black" stroke-width="0.6"></polyline><polyline points="81.70731707317073,89.6849593495935 82.21544715447155,89.380081300813 82.67276422764228,89.1260162601626 83.18089430894308,88.8719512195122" fill="none" stroke="black" stroke-width="0.6"></polyline><polyline points="90.95528455284553,87.55081300813008 90.95528455284553,87.55081300813008 90.95528455284553,87.55081300813008 90.90447154471545,87.55081300813008 90.90447154471545,87.55081300813008 90.90447154471545,87.55081300813008 90.85365853658536,87.60162601626016 90.85365853658536,87.70325203252033 90.7520325203252,87.85569105691057 90.65040650406503,88.10975609756098 90.4979674796748,88.46544715447155 90.39634146341463,88.8211382113821 90.24390243902438,89.27845528455285 90.09146341463415,89.73577235772358 89.98983739837398,90.14227642276423 89.9390243902439,90.4979674796748 89.88821138211382,90.90447154471545 89.88821138211382,91.20934959349593 89.98983739837398,91.51422764227642 90.1930894308943,91.76829268292683 90.39634146341463,91.97154471544715 90.70121951219512,92.1239837398374 91.0060975609756,92.22560975609755 91.36178861788618,92.27642276422765 91.76829268292683,92.27642276422765 92.17479674796748,92.22560975609755 92.58130081300813,92.02235772357723 92.98780487804878,91.8191056910569 93.39430894308943,91.5650406504065 93.69918699186992,91.3109756097561 94.0040650406504,91.0569105691057 94.15650406504065,90.7520325203252 94.2581300813008,90.4979674796748 94.2581300813008,90.24390243902438 94.20731707317073,89.98983739837398 94.0040650406504,89.88821138211382 93.80081300813008,89.83739837398373 93.4959349593496,89.78658536585365 93.14024390243902,89.88821138211382 92.73373983739837,90.14227642276423 92.32723577235772,90.39634146341463 91.97154471544715,90.7520325203252 91.66666666666667,91.15853658536585 91.41260162601625,91.61585365853658 91.26016260162602,91.97154471544715 91.20934959349593,92.32723577235772 91.20934959349593,92.53048780487805 91.41260162601625,92.6829268292683" fill="none" stroke="black" stroke-width="0.6"></polyline></svg>