<svg height="100" width="100" preserveAspectRatio="xMidYMid meet"><polyline points="19.20731707317073,11.128048780487804 19.20731707317073,11.128048780487804 19.20731707317073,11.128048780487804 19.15650406504065,11.128048780487804 19.15650406504065,11.077235772357723 19.10569105691057,11.026422764227641 19.054878048780488,10.97560975609756 19.004065040650406,10.924796747967479 18.953252032520325,10.823170731707316 18.902439024390244,10.721544715447154 18.80081300813008,10.56910569105691 18.648373983739837,10.416666666666666 18.495934959349594,10.315040650406504 18.241869918699187,10.16260162601626 17.98780487804878,10.060975609756097 17.632113821138212,10.060975609756097 17.327235772357724,10.111788617886178 16.971544715447155,10.315040650406504 16.615853658536587,10.619918699186991 16.3109756097561,10.97560975609756 16.006097560975608,11.331300813008129 15.752032520325203,11.788617886178862 15.548780487804878,12.296747967479675 15.396341463414634,12.855691056910569 15.294715447154472,13.363821138211382 15.24390243902439,13.821138211382113 15.24390243902439,14.278455284552845 15.294715447154472,14.634146341463413 15.396341463414634,14.888211382113822 15.548780487804878,15.091463414634147 15.752032520325203,15.142276422764228 16.006097560975608,15.19308943089431 16.3109756097561,15.19308943089431 16.615853658536587,15.142276422764228 16.971544715447155,14.939024390243903 17.276422764227643,14.684959349593496 17.632113821138212,14.329268292682926 17.98780487804878,13.922764227642276 18.29268292682927,13.516260162601625 18.546747967479675,13.160569105691057 18.80081300813008,12.703252032520325 18.953252032520325,12.347560975609756 19.10569105691057,11.941056910569106 19.15650406504065,11.585365853658537 19.15650406504065,11.331300813008129 19.15650406504065,11.077235772357723 19.15650406504065,10.924796747967479 19.10569105691057,10.772357723577235 19.054878048780488,10.670731707317072 19.054878048780488,10.619918699186991 19.004065040650406,10.619918699186991" fill="none" stroke="black" stroke-width="0.6"></polyline><polyline points="19.004065040650406,10.619918699186991 19.004065040650406,10.619918699186991 19.004065040650406,10.670731707317072 19.004065040650406,10.670731707317072 19.004065040650406,10.772357723577235 19.004065040650406,10.97560975609756 19.004065040650406,11.178861788617885 19.054878048780488,11.432926829268293 19.10569105691057,11.737804878048781 19.15650406504065,12.042682926829269 19.258130081300813,12.398373983739837 19.410569105691057,12.754065040650406 19.5630081300813,13.058943089430894 19.766260162601625,13.363821138211382 20.020325203252032,13.617886178861788 20.223577235772357,13.770325203252032 20.477642276422763,13.871951219512194 20.78252032520325,13.973577235772357 21.08739837398374,13.973577235772357 21.443089430894307,13.973577235772357 21.849593495934958,13.871951219512194 22.103658536585364,13.770325203252032" fill="none" stroke="black" stroke-width="0.6"></polyline><polyline points="31.046747967479675,7.0630081300813 31.046747967479675,7.0630081300813 31.046747967479675,7.0630081300813 31.046747967479675,7.0630081300813 31.046747967479675,7.164634146341463 31.148373983739837,7.41869918699187 31.30081300813008,7.926829268292683 31.554878048780488,8.638211382113822 31.758130081300813,9.451219512195122 31.961382113821138,10.365853658536585 32.0630081300813,11.128048780487804 32.16463414634146,11.839430894308943 32.21544715447154,12.449186991869919 32.21544715447154,12.90650406504065 32.21544715447154,13.3130081300813 32.21544715447154,13.66869918699187 32.21544715447154,13.973577235772357 32.21544715447154,14.227642276422763 32.21544715447154,14.380081300813007 32.21544715447154,14.380081300813007 32.21544715447154,14.380081300813007 32.21544715447154,14.380081300813007 32.21544715447154,14.227642276422763 32.21544715447154,13.821138211382113 32.266260162601625,13.262195121951219 32.36788617886179,12.652439024390244 32.52032520325203,11.991869918699187 32.672764227642276,11.432926829268293 32.8760162601626,11.077235772357723 33.18089430894309,10.873983739837398 33.485772357723576,10.823170731707316 33.790650406504064,10.873983739837398 34.09552845528455,11.077235772357723 34.298780487804876,11.280487804878048 34.5020325203252,11.636178861788618 34.70528455284553,12.042682926829269 34.80691056910569,12.5 34.80691056910569,13.008130081300813 34.80691056910569,13.516260162601625 34.70528455284553,13.871951219512194 34.552845528455286,14.278455284552845 34.298780487804876,14.684959349593496 33.99390243902439,14.989837398373984 33.6890243902439,15.294715447154472 33.333333333333336,15.59959349593496 33.02845528455285,15.701219512195122 32.77439024390244,15.752032520325203 32.46951219512195,15.752032520325203 32.16463414634146,15.497967479674797 31.910569105691057,15.142276422764228 31.70731707317073,14.684959349593496" fill="none" stroke="black" stroke-width="0.6"></polyline><polyline points="31.70731707317073,14.684959349593496 31.70731707317073,14.176829268292682 31.910569105691057,13.71951219512195 32.0630081300813,13.516260162601625" fill="none" stroke="black" stroke-width="0.6"></polyline><polyline points="51.016260162601625,11.128048780487804 50.8130081300813,10.97560975609756 50.609756097560975,10.772357723577235 50.355691056910565,10.619918699186991 50.10162601626016,10.518292682926829 49.796747967479675,10.467479674796747 49.542682926829265,10.467479674796747 49.1869918699187,10.56910569105691 48.83130081300813,10.721544715447154 48.47560975609756,11.026422764227641 48.11991869918699,11.382113821138212 47.764227642276424,11.788617886178862 47.510162601626014,12.296747967479675 47.30691056910569,12.855691056910569 47.20528455284553,13.414634146341463 47.20528455284553,13.973577235772357 47.357723577235774,14.430894308943088 47.5609756097561,14.83739837398374 47.8150406504065,15.142276422764228 48.11991869918699,15.345528455284553 48.52642276422764,15.497967479674797 48.983739837398375,15.59959349593496 49.4410569105691,15.59959349593496 50,15.497967479674797 50.66056910569105,15.294715447154472" fill="none" stroke="black" stroke-width="0.6"></polyline><polyline points="66.97154471544715,7.164634146341463 66.97154471544715,7.164634146341463 66.97154471544715,7.164634146341463 66.97154471544715,7.164634146341463 66.97154471544715,7.367886178861789 67.02235772357723,7.774390243902439 67.07317073170732,8.485772357723578 67.1239837398374,9.197154471544716 67.17479674796748,9.908536585365853 67.22560975609755,10.670731707317072 67.27642276422765,11.229674796747966 67.32723577235772,11.6869918699187 67.32723577235772,12.144308943089431 67.3780487804878,12.5 67.3780487804878,12.804878048780488 67.3780487804878,13.109756097560975 67.3780487804878,13.363821138211382 67.42886178861788,13.516260162601625 67.42886178861788,13.617886178861788 67.42886178861788,13.617886178861788 67.42886178861788,13.617886178861788 67.42886178861788,13.567073170731707 67.42886178861788,13.414634146341463 67.27642276422765,13.160569105691057 67.02235772357723,12.754065040650406 66.76829268292683,12.347560975609756 66.46341463414635,11.991869918699187 66.10772357723577,11.636178861788618 65.7520325203252,11.483739837398375 65.39634146341463,11.483739837398375 64.9390243902439,11.534552845528456 64.48170731707317,11.890243902439025 64.02439024390243,12.296747967479675 63.668699186991866,12.754065040650406 63.46544715447154,13.211382113821138 63.36382113821138,13.66869918699187 63.3130081300813,14.1260162601626 63.36382113821138,14.430894308943088 63.516260162601625,14.735772357723578 63.77032520325203,14.939024390243903 64.1260162601626,15.091463414634147 64.58333333333333,15.091463414634147 65.14227642276423,15.091463414634147 65.80284552845528,14.989837398373984 66.46341463414635,14.786585365853659 67.22560975609755,14.53252032520325 67.6321138211382,14.380081300813007" fill="none" stroke="black" stroke-width="0.6"></polyline><polyline points="80.6910569105691,12.855691056910569 80.58943089430895,12.804878048780488 80.48780487804878,12.804878048780488 80.4369918699187,12.804878048780488 80.33536585365853,12.754065040650406 80.33536585365853,12.754065040650406 80.33536585365853,12.754065040650406 80.33536585365853,12.754065040650406 80.38617886178862,12.754065040650406 80.53861788617886,12.754065040650406 80.79268292682927,12.703252032520325 81.09756097560975,12.652439024390244 81.40243902439025,12.550813008130081 81.8089430894309,12.449186991869919 82.21544715447155,12.296747967479675 82.67276422764228,12.09349593495935 83.130081300813,11.839430894308943 83.48577235772358,11.636178861788618 83.73983739837398,11.382113821138212 83.89227642276423,11.178861788617885 83.89227642276423,11.077235772357723 83.89227642276423,10.924796747967479 83.6890243902439,10.873983739837398 83.4349593495935,10.823170731707316 83.07926829268293,10.873983739837398 82.67276422764228,11.026422764227641 82.3170731707317,11.280487804878048 81.91056910569105,11.636178861788618 81.5040650406504,12.09349593495935 81.25,12.5 81.09756097560975,12.957317073170731 81.04674796747967,13.363821138211382 81.09756097560975,13.617886178861788 81.25,13.821138211382113 81.5040650406504,13.973577235772357 81.7581300813008,14.1260162601626 82.11382113821138,14.227642276422763 82.46951219512195,14.278455284552845 82.8760162601626,14.278455284552845 83.33333333333333,14.278455284552845 83.79065040650406,14.227642276422763" fill="none" stroke="black" stroke-width="0.6"></polyline><polyline points="15.548780487804878,29.725609756097562 15.548780487804878,29.725609756097562 15.548780487804878,29.776422764227643 15.548780487804878,29.776422764227643 15.548780487804878,29.776422764227643 15.548780487804878,29.776422764227643 15.548780487804878,29.776422764227643 15.548780487804878,29.776422764227643 15.548780487804878,29.67479674796748 15.548780487804878,29.420731707317074 15.59959349593496,29.01422764227642 15.701219512195122,28.455284552845526 15.752032520325203,27.642276422764226 15.904471544715447,26.727642276422763 16.006097560975608,25.86382113821138 16.15853658536585,25.152439024390244 16.36178861788618,24.59349593495935 16.565040650406505,24.23780487804878 16.76829268292683,23.932926829268293 17.073170731707318,23.678861788617887 17.327235772357724,23.475609756097562 17.682926829268293,23.323170731707318 18.038617886178862,23.272357723577237 18.34349593495935,23.272357723577237 18.69918699186992,23.323170731707318 19.004065040650406,23.42479674796748 19.258130081300813,23.475609756097562 19.51219512195122,23.577235772357724 19.715447154471544,23.729674796747968 19.817073170731707,23.83130081300813 19.867886178861788,23.932926829268293 19.867886178861788,24.034552845528456" fill="none" stroke="black" stroke-width="0.6"></polyline><polyline points="14.989837398373984,26.676829268292682 14.888211382113822,26.727642276422763 14.684959349593496,26.778455284552845 14.583333333333332,26.829268292682926 14.583333333333332,26.829268292682926 14.634146341463413,26.880081300813007 14.888211382113822,26.880081300813007 15.294715447154472,26.829268292682926 15.802845528455284,26.727642276422763 16.41260162601626,26.57520325203252 17.1239837398374,26.371951219512194 17.9369918699187,26.117886178861788 18.80081300813008,25.8130081300813 19.715447154471544,25.508130081300813 20.630081300813007,25.254065040650406" fill="none" stroke="black" stroke-width="0.6"></polyline><polyline points="34.34959349593496,26.829268292682926 34.40040650406504,26.829268292682926 34.40040650406504,26.829268292682926 34.451219512195124,26.829268292682926 34.451219512195124,26.829268292682926 34.451219512195124,26.778455284552845 34.5020325203252,26.727642276422763 34.5020325203252,26.727642276422763 34.5020325203252,26.676829268292682 34.5020325203252,26.57520325203252 34.34959349593496,26.473577235772357 34.09552845528455,26.422764227642276 33.6890243902439,26.371951219512194 33.23170731707317,26.371951219512194 32.77439024390244,26.524390243902438 32.3170731707317,26.727642276422763 32.0630081300813,27.03252032520325 31.910569105691057,27.4390243902439 31.859756097560975,27.79471544715447 31.910569105691057,28.099593495934958 32.0630081300813,28.302845528455283 32.3170731707317,28.404471544715445 32.57113821138211,28.404471544715445 32.926829268292686,28.353658536585364 33.23170731707317,28.15040650406504 33.58739837398374,27.896341463414632 33.892276422764226,27.540650406504064 34.146341463414636,27.184959349593495 34.34959349593496,26.829268292682926 34.552845528455286,26.524390243902438 34.70528455284553,26.270325203252032 34.80691056910569,26.16869918699187 34.90853658536585,26.16869918699187 35.010162601626014,26.21951219512195 35.21341463414634,26.473577235772357 35.36585365853659,26.829268292682926 35.61991869918699,27.38821138211382 35.823170731707314,28.048780487804876 36.02642276422764,28.810975609756095 36.229674796747965,29.67479674796748 36.229674796747965,30.4369918699187 36.229674796747965,31.097560975609756 36.1280487804878,31.70731707317073 35.92479674796748,32.21544715447154 35.670731707317074,32.672764227642276 35.416666666666664,33.02845528455285 35.0609756097561,33.23170731707317 34.65447154471545,33.38414634146341 34.197154471544714,33.38414634146341 33.6890243902439,33.333333333333336 33.079268292682926,33.02845528455285" fill="none" stroke="black" stroke-width="0.6"></polyline><polyline points="33.079268292682926,33.02845528455285 32.52032520325203,32.6219512195122 32.11382113821138,32.0630081300813 31.910569105691057,31.504065040650406 31.961382113821138,31.046747967479675 32.266260162601625,30.589430894308943 32.77439024390244,30.08130081300813 33.4349593495935,29.6239837398374 33.84146341463415,29.31910569105691" fill="none" stroke="black" stroke-width="0.6"></polyline><polyline points="49.949186991869915,21.849593495934958 49.949186991869915,21.849593495934958 49.89837398373984,21.849593495934958 49.84756097560975,21.849593495934958 49.796747967479675,21.849593495934958 49.796747967479675,21.95121951219512 49.796747967479675,22.256097560975608 49.796747967479675,22.764227642276424 49.84756097560975,23.475609756097562 49.89837398373984,24.339430894308943 49.949186991869915,25.203252032520325 49.949186991869915,26.067073170731707 49.949186991869915,26.829268292682926 49.84756097560975,27.489837398373982 49.74593495934959,28.048780487804876 49.69512195121951,28.506097560975608 49.59349593495935,28.810975609756095 49.59349593495935,28.96341463414634 49.542682926829265,29.01422764227642 49.542682926829265,29.01422764227642 49.542682926829265,28.861788617886177 49.542682926829265,28.55691056910569 49.59349593495935,28.15040650406504 49.74593495934959,27.642276422764226 50.05081300813008,27.134146341463413 50.355691056910565,26.676829268292682 50.66056910569105,26.371951219512194 51.0670731707317,26.16869918699187 51.47357723577235,26.117886178861788 51.829268292682926,26.270325203252032 52.1849593495935,26.524390243902438 52.38821138211382,26.880081300813007 52.540650406504064,27.286585365853657 52.642276422764226,27.74390243902439 52.642276422764226,28.15040650406504 52.642276422764226,28.65853658536585 52.642276422764226,29.01422764227642 52.642276422764226,29.369918699186993 52.69308943089431,29.725609756097562 52.74390243902439,29.928861788617887 52.896341463414636,30.03048780487805 53.15040650406504,30.03048780487805 53.302845528455286,29.979674796747968" fill="none" stroke="black" stroke-width="0.6"></polyline><polyline points="64.58333333333333,27.083333333333332 64.58333333333333,27.083333333333332 64.58333333333333,27.134146341463413 64.58333333333333,27.38821138211382 64.58333333333333,27.84552845528455 64.58333333333333,28.353658536585364 64.6341463414634,28.861788617886177 64.73577235772358,29.217479674796746 64.83739837398373,29.522357723577237 64.9390243902439,29.725609756097562 64.98983739837398,29.878048780487806 65.04065040650406,29.878048780487806 65.14227642276423,29.827235772357724 65.2439024390244,29.6239837398374 65.29471544715447,29.31910569105691 65.34552845528455,29.166666666666664" fill="none" stroke="black" stroke-width="0.6"></polyline><polyline points="65.59959349593495,25.152439024390244 65.59959349593495,25.101626016260163 65.59959349593495,25 65.59959349593495,24.898373983739837 65.59959349593495,24.898373983739837 65.54878048780488,24.898373983739837 65.54878048780488,24.898373983739837 65.54878048780488,24.898373983739837 65.59959349593495,24.94918699186992" fill="none" stroke="black" stroke-width="0.6"></polyline><polyline points="79.3191056910569,26.727642276422763 79.3191056910569,26.727642276422763 79.3191056910569,26.727642276422763 79.3191056910569,26.676829268292682 79.3191056910569,26.676829268292682 79.3191056910569,26.676829268292682 79.369918699187,26.829268292682926 79.52235772357723,27.083333333333332 79.72560975609755,27.489837398373982 80.03048780487805,28.099593495934958 80.33536585365853,28.861788617886177 80.64024390243902,29.6239837398374 80.89430894308943,30.335365853658537 81.04674796747967,30.995934959349594 81.14837398373983,31.554878048780488 81.19918699186992,32.11382113821138 81.19918699186992,32.6219512195122 81.14837398373983,33.02845528455285 80.9959349593496,33.333333333333336 80.79268292682927,33.58739837398374 80.48780487804878,33.790650406504064 80.1321138211382,33.892276422764226 79.72560975609755,33.892276422764226 79.26829268292683,33.790650406504064 78.76016260162602,33.485772357723576 78.20121951219512,32.97764227642276 77.74390243902438,32.3170731707317 77.28658536585365,31.453252032520325" fill="none" stroke="black" stroke-width="0.6"></polyline><polyline points="78.91260162601625,25.40650406504065 79.11585365853658,24.898373983739837 79.26829268292683,24.59349593495935 79.369918699187,24.390243902439025 79.369918699187,24.390243902439025 79.369918699187,24.390243902439025 79.369918699187,24.390243902439025 79.369918699187,24.390243902439025 79.369918699187,24.441056910569106 79.3191056910569,24.54268292682927 79.3191056910569,24.64430894308943" fill="none" stroke="black" stroke-width="0.6"></polyline><polyline points="15.497967479674797,38.87195121951219 15.497967479674797,38.87195121951219 15.497967479674797,38.87195121951219 15.497967479674797,38.922764227642276 15.548780487804878,39.176829268292686 15.59959349593496,39.735772357723576 15.59959349593496,40.59959349593496 15.59959349593496,41.61585365853659 15.548780487804878,42.53048780487805 15.396341463414634,43.39430894308943 15.24390243902439,44.15650406504065 15.091463414634147,44.766260162601625 14.939024390243903,45.27439024390244 14.786585365853659,45.73170731707317 14.735772357723578,45.9349593495935 14.684959349593496,46.08739837398374 14.634146341463413,46.08739837398374 14.634146341463413,46.08739837398374 14.634146341463413,45.985772357723576 14.634146341463413,45.73170731707317 14.684959349593496,45.52845528455285" fill="none" stroke="black" stroke-width="0.6"></polyline><polyline points="18.39430894308943,40.90447154471545 18.241869918699187,40.90447154471545 18.089430894308943,40.95528455284553 17.9369918699187,41.107723577235774 17.733739837398375,41.3109756097561 17.428861788617887,41.514227642276424 17.1239837398374,41.76829268292683 16.76829268292683,42.02235772357724 16.36178861788618,42.27642276422764 15.955284552845528,42.53048780487805 15.59959349593496,42.733739837398375 15.294715447154472,42.886178861788615 15.040650406504065,42.9369918699187 14.939024390243903,42.98780487804878 14.939024390243903,42.98780487804878 14.939024390243903,42.98780487804878 15.040650406504065,43.08943089430894 15.294715447154472,43.24186991869919 15.65040650406504,43.39430894308943 16.05691056910569,43.64837398373984 16.565040650406505,43.90243902439024 17.073170731707318,44.25813008130081 17.58130081300813,44.66463414634146 18.140243902439025,45.12195121951219 18.546747967479675,45.52845528455285 18.953252032520325,45.88414634146341 19.308943089430894,46.1890243902439 19.5630081300813,46.34146341463415 19.715447154471544,46.49390243902439 19.91869918699187,46.59552845528455 20.121951219512194,46.646341463414636 20.172764227642276,46.646341463414636" fill="none" stroke="black" stroke-width="0.6"></polyline><polyline points="33.28252032520325,39.38008130081301 33.28252032520325,39.329268292682926 33.28252032520325,39.27845528455285 33.28252032520325,39.22764227642276 33.28252032520325,39.22764227642276 33.28252032520325,39.27845528455285 33.28252032520325,39.583333333333336 33.28252032520325,40.142276422764226 33.28252032520325,40.95528455284553 33.333333333333336,41.86991869918699 33.333333333333336,42.83536585365854 33.38414634146341,43.80081300813008 33.4349593495935,44.46138211382114 33.485772357723576,45.02032520325203 33.485772357723576,45.579268292682926 33.53658536585366,45.88414634146341 33.58739837398374,46.08739837398374 33.6890243902439,46.1890243902439 33.739837398373986,46.1890243902439 33.790650406504064,46.08739837398374 33.892276422764226,45.985772357723576" fill="none" stroke="black" stroke-width="0.6"></polyline><polyline points="45.22357723577235,43.85162601626016 45.22357723577235,43.90243902439024 45.172764227642276,43.953252032520325 45.172764227642276,44.105691056910565 45.22357723577235,44.46138211382114 45.325203252032516,44.96951219512195 45.47764227642276,45.52845528455285 45.63008130081301,46.08739837398374 45.73170731707317,46.44308943089431 45.78252032520325,46.7479674796748 45.78252032520325,47.0020325203252 45.78252032520325,47.103658536585364 45.78252032520325,47.103658536585364 45.78252032520325,47.103658536585364 45.78252032520325,47.0020325203252 45.78252032520325,46.7479674796748 45.78252032520325,46.34146341463415 45.78252032520325,45.88414634146341 45.78252032520325,45.27439024390244 45.9349593495935,44.766260162601625 46.08739837398374,44.25813008130081 46.34146341463415,43.75 46.697154471544714,43.49593495934959 47.052845528455286,43.34349593495935 47.459349593495936,43.292682926829265 47.764227642276424,43.34349593495935 48.06910569105691,43.546747967479675 48.3739837398374,43.85162601626016 48.577235772357724,44.20731707317073 48.67886178861789,44.5630081300813 48.78048780487805,45.02032520325203 48.83130081300813,45.3760162601626 48.83130081300813,45.78252032520325 48.83130081300813,46.13821138211382 48.78048780487805,46.34146341463415 48.729674796747965,46.49390243902439 48.67886178861789,46.59552845528455 48.6280487804878,46.59552845528455 48.577235772357724,46.49390243902439 48.577235772357724,46.290650406504064 48.52642276422764,46.03658536585366 48.52642276422764,45.68089430894309 48.6280487804878,45.22357723577235 48.83130081300813,44.71544715447154 49.136178861788615,44.25813008130081 49.542682926829265,43.80081300813008 50,43.546747967479675 50.40650406504065,43.49593495934959 50.762195121951216,43.49593495934959 51.0670731707317,43.64837398373984 51.32113821138211,43.90243902439024" fill="none" stroke="black" stroke-width="0.6"></polyline><polyline points="51.32113821138211,43.90243902439024 51.52439024390244,44.20731707317073 51.67682926829268,44.61382113821138 51.77845528455284,45.07113821138211 51.829268292682926,45.579268292682926 51.829268292682926,46.03658536585366 51.829268292682926,46.44308943089431 51.829268292682926,46.798780487804876 51.77845528455284,47.0020325203252 51.77845528455284,47.103658536585364 51.77845528455284,47.103658536585364 51.829268292682926,47.052845528455286 51.93089430894309,46.84959349593496" fill="none" stroke="black" stroke-width="0.6"></polyline><polyline points="62.60162601626016,43.953252032520325 62.60162601626016,43.90243902439024 62.60162601626016,43.90243902439024 62.60162601626016,43.85162601626016 62.60162601626016,43.85162601626016 62.60162601626016,43.85162601626016 62.60162601626016,43.953252032520325 62.60162601626016,44.105691056910565 62.65243902439024,44.359756097560975 62.65243902439024,44.71544715447154 62.703252032520325,45.12195121951219 62.703252032520325,45.52845528455285 62.703252032520325,45.9349593495935 62.703252032520325,46.290650406504064 62.703252032520325,46.54471544715447 62.703252032520325,46.7479674796748 62.703252032520325,46.84959349593496 62.703252032520325,46.90040650406504 62.703252032520325,46.84959349593496 62.703252032520325,46.7479674796748 62.7540650406504,46.49390243902439 62.80487804878049,46.08739837398374 62.90650406504065,45.63008130081301 63.05894308943089,45.07113821138211 63.3130081300813,44.46138211382114 63.668699186991866,43.90243902439024 64.1260162601626,43.39430894308943 64.6341463414634,42.98780487804878 65.09146341463415,42.83536585365854 65.4979674796748,42.78455284552845 65.85365853658537,42.78455284552845 66.0569105691057,43.03861788617886 66.26016260162602,43.34349593495935 66.46341463414635,43.699186991869915 66.5650406504065,44.15650406504065 66.61585365853658,44.61382113821138 66.66666666666667,45.172764227642276 66.66666666666667,45.68089430894309 66.66666666666667,46.13821138211382 66.66666666666667,46.54471544715447 66.71747967479675,46.798780487804876 66.76829268292683,47.0020325203252 66.8191056910569,47.052845528455286 66.97154471544715,47.052845528455286 67.22560975609755,46.84959349593496" fill="none" stroke="black" stroke-width="0.6"></polyline><polyline points="78.60772357723577,43.699186991869915 78.65853658536585,43.699186991869915 78.65853658536585,43.699186991869915 78.65853658536585,43.699186991869915 78.70934959349593,43.699186991869915 78.76016260162602,43.80081300813008 78.8109756097561,44.0040650406504 78.91260162601625,44.25813008130081 79.01422764227642,44.61382113821138 79.0650406504065,45.07113821138211 79.11585365853658,45.52845528455285 79.21747967479675,45.9349593495935 79.3191056910569,46.239837398373986 79.47154471544715,46.54471544715447 79.6239837398374,46.697154471544714 79.8780487804878,46.84959349593496 80.1829268292683,46.90040650406504 80.53861788617886,46.90040650406504 80.9451219512195,46.84959349593496 81.45325203252033,46.697154471544714 81.91056910569105,46.392276422764226 82.3170731707317,46.08739837398374 82.77439024390243,45.68089430894309 83.07926829268293,45.325203252032516 83.28252032520325,44.96951219512195 83.3841463414634,44.66463414634146 83.28252032520325,44.359756097560975 83.02845528455285,44.105691056910565 82.6219512195122,43.90243902439024 82.11382113821138,43.75 81.5040650406504,43.64837398373984 80.9451219512195,43.64837398373984 80.38617886178862,43.64837398373984 79.8780487804878,43.80081300813008 79.369918699187,44.05487804878049 78.96341463414635,44.359756097560975 78.65853658536585,44.71544715447154" fill="none" stroke="black" stroke-width="0.6"></polyline><polyline points="15.802845528455284,58.58739837398374 15.802845528455284,58.84146341463415 15.802845528455284,59.2479674796748 15.904471544715447,59.75609756097561 16.10772357723577,60.46747967479675 16.3109756097561,61.1280487804878 16.565040650406505,61.78861788617886 16.76829268292683,62.39837398373984 16.920731707317074,63.05894308943089 17.022357723577237,63.516260162601625 17.022357723577237,63.82113821138211 17.022357723577237,64.1260162601626 17.022357723577237,64.32926829268293 16.971544715447155,64.43089430894308 16.920731707317074,64.48170731707317 16.869918699186993,64.48170731707317 16.81910569105691,64.43089430894308 16.666666666666668,64.27845528455285 16.514227642276424,63.97357723577235 16.3109756097561,63.516260162601625 16.10772357723577,62.855691056910565 15.904471544715447,62.14430894308943 15.752032520325203,61.28048780487805 15.752032520325203,60.56910569105691 15.853658536585366,59.857723577235774 16.209349593495933,59.197154471544714 16.615853658536587,58.790650406504064 17.073170731707318,58.536585365853654 17.53048780487805,58.38414634146341 17.88617886178862,58.33333333333333 18.191056910569106,58.43495934959349 18.495934959349594,58.6890243902439 18.69918699186992,58.892276422764226 18.851626016260163,59.197154471544714 18.902439024390244,59.451219512195124 18.902439024390244,59.75609756097561 18.902439024390244,60.0609756097561 18.80081300813008,60.416666666666664 18.597560975609756,60.670731707317074 18.39430894308943,60.92479674796748 18.140243902439025,61.1280487804878 17.88617886178862,61.229674796747965 17.632113821138212,61.229674796747965 17.327235772357724,61.229674796747965 17.022357723577237,61.077235772357724 16.76829268292683,60.823170731707314 16.565040650406505,60.56910569105691 16.565040650406505,60.36585365853659 16.76829268292683,60.21341463414634 17.1239837398374,60.11178861788618 17.327235772357724,60.0609756097561" fill="none" stroke="black" stroke-width="0.6"></polyline><polyline points="17.327235772357724,60.0609756097561" fill="none" stroke="black" stroke-width="0.6"></polyline><polyline points="33.6890243902439,60.11178861788618 33.58739837398374,60.010162601626014 33.333333333333336,59.80691056910569 33.02845528455285,59.552845528455286 32.72357723577236,59.34959349593496 32.266260162601625,59.09552845528455 31.859756097560975,58.892276422764226 31.402439024390244,58.790650406504064 31.046747967479675,58.739837398373986 30.84349593495935,58.790650406504064 30.640243902439025,58.99390243902439 30.48780487804878,59.298780487804876 30.38617886178862,59.603658536585364 30.38617886178862,59.959349593495936 30.38617886178862,60.264227642276424 30.538617886178862,60.56910569105691 30.741869918699187,60.77235772357724 30.995934959349594,60.8739837398374 31.30081300813008,60.8739837398374 31.70731707317073,60.77235772357724 32.0630081300813,60.56910569105691 32.418699186991866,60.21341463414634 32.82520325203252,59.857723577235774 33.079268292682926,59.40040650406504 33.28252032520325,58.94308943089431 33.485772357723576,58.485772357723576 33.58739837398374,58.231707317073166 33.63821138211382,58.130081300813 33.6890243902439,58.130081300813 33.790650406504064,58.43495934959349 33.84146341463415,58.84146341463415 33.892276422764226,59.5020325203252 33.94308943089431,60.21341463414634 33.94308943089431,61.077235772357724 33.94308943089431,62.042682926829265 33.94308943089431,62.855691056910565 33.94308943089431,63.668699186991866 33.892276422764226,64.380081300813 33.84146341463415,64.83739837398373 33.84146341463415,65.2439024390244 33.84146341463415,65.54878048780488 33.892276422764226,65.70121951219512 33.94308943089431,65.7520325203252 34.04471544715447,65.70121951219512" fill="none" stroke="black" stroke-width="0.6"></polyline><polyline points="48.42479674796748,60.51829268292683 48.42479674796748,60.46747967479675 48.3739837398374,60.416666666666664 48.3739837398374,60.36585365853659 48.323170731707314,60.3150406504065 48.323170731707314,60.264227642276424 48.323170731707314,60.264227642276424 48.323170731707314,60.264227642276424 48.323170731707314,60.36585365853659 48.3739837398374,60.56910569105691 48.47560975609756,60.8739837398374 48.577235772357724,61.229674796747965 48.6280487804878,61.636178861788615 48.67886178861789,62.042682926829265 48.729674796747965,62.39837398373984 48.729674796747965,62.7540650406504 48.729674796747965,62.90650406504065 48.729674796747965,63.00813008130081 48.729674796747965,63.00813008130081 48.729674796747965,63.00813008130081 48.729674796747965,62.855691056910565 48.67886178861789,62.55081300813008 48.67886178861789,62.14430894308943 48.6280487804878,61.636178861788615 48.6280487804878,60.97560975609756 48.78048780487805,60.21341463414634 49.03455284552845,59.451219512195124 49.4410569105691,58.790650406504064 49.84756097560975,58.38414634146341 50.2540650406504,58.231707317073166 50.55894308943089,58.231707317073166 50.8130081300813,58.38414634146341 51.0670731707317,58.58739837398374 51.21951219512195,58.6890243902439" fill="none" stroke="black" stroke-width="0.6"></polyline><polyline points="65.44715447154472,59.451219512195124 65.44715447154472,59.40040650406504 65.39634146341463,59.2479674796748 65.34552845528455,59.09552845528455 65.1930894308943,58.99390243902439 64.98983739837398,58.84146341463415 64.6849593495935,58.790650406504064 64.27845528455285,58.790650406504064 63.71951219512195,58.84146341463415 63.262195121951216,58.99390243902439 62.90650406504065,59.197154471544714 62.65243902439024,59.40040650406504 62.55081300813008,59.70528455284553 62.55081300813008,60.11178861788618 62.703252032520325,60.51829268292683 63.05894308943089,60.92479674796748 63.61788617886179,61.33130081300813 64.32926829268293,61.58536585365854 64.98983739837398,61.78861788617886 65.65040650406505,61.99186991869919 66.26016260162602,62.14430894308943 66.5650406504065,62.24593495934959 66.76829268292683,62.296747967479675 66.8191056910569,62.39837398373984 66.8191056910569,62.5 66.66666666666667,62.703252032520325 66.41260162601625,62.855691056910565 66.0060975609756,63.05894308943089 65.4979674796748,63.21138211382114 64.98983739837398,63.3130081300813 64.43089430894308,63.3130081300813 63.87195121951219,63.262195121951216 63.668699186991866,63.21138211382114" fill="none" stroke="black" stroke-width="0.6"></polyline><polyline points="82.36788617886178,56.30081300813008 82.3170731707317,56.14837398373984 82.3170731707317,56.046747967479675 82.3170731707317,55.99593495934959 82.3170731707317,55.99593495934959 82.3170731707317,56.35162601626016 82.3170731707317,56.91056910569105 82.3170731707317,57.57113821138211 82.3170731707317,58.43495934959349 82.21544715447155,59.40040650406504 82.16463414634146,60.3150406504065 82.11382113821138,61.1280487804878 82.0630081300813,61.890243902439025 82.01219512195122,62.39837398373984 82.01219512195122,62.855691056910565 82.01219512195122,63.21138211382114 82.0630081300813,63.36382113821138 82.0630081300813,63.46544715447154 82.11382113821138,63.46544715447154" fill="none" stroke="black" stroke-width="0.6"></polyline><polyline points="79.57317073170732,61.229674796747965 79.52235772357723,61.229674796747965 79.52235772357723,61.229674796747965 79.47154471544715,61.17886178861789 79.6239837398374,61.1280487804878 80.1321138211382,61.1280487804878 81.04674796747967,61.02642276422764 82.21544715447155,60.97560975609756 83.3841463414634,60.77235772357724 84.2479674796748,60.61991869918699 84.85772357723577,60.51829268292683 85.36585365853658,60.416666666666664" fill="none" stroke="black" stroke-width="0.6"></polyline><polyline points="15.955284552845528,76.880081300813 15.802845528455284,76.880081300813 15.701219512195122,76.82926829268293 15.59959349593496,76.77845528455285 15.497967479674797,76.72764227642276 15.497967479674797,76.67682926829268 15.447154471544716,76.6260162601626 15.447154471544716,76.57520325203252 15.396341463414634,76.57520325203252 15.396341463414634,76.57520325203252 15.396341463414634,76.72764227642276 15.396341463414634,77.03252032520325 15.396341463414634,77.54065040650406 15.447154471544716,78.20121951219512 15.548780487804878,78.91260162601625 15.65040650406504,79.77642276422765 15.853658536585366,80.4369918699187 16.006097560975608,80.9451219512195 16.209349593495933,81.30081300813008 16.41260162601626,81.45325203252033 16.615853658536587,81.5040650406504 16.869918699186993,81.45325203252033 17.073170731707318,81.25 17.327235772357724,80.89430894308943 17.53048780487805,80.48780487804878 17.733739837398375,79.97967479674797 17.835365853658537,79.369918699187 17.9369918699187,78.76016260162602 17.9369918699187,78.20121951219512 17.835365853658537,77.6930894308943 17.682926829268293,77.1341463414634 17.479674796747968,76.72764227642276 17.327235772357724,76.42276422764228 17.276422764227643,76.27032520325203 17.327235772357724,76.27032520325203" fill="none" stroke="black" stroke-width="0.6"></polyline><polyline points="30.691056910569106,76.880081300813 30.691056910569106,76.880081300813 30.589430894308943,76.82926829268293 30.589430894308943,76.77845528455285 30.538617886178862,76.77845528455285 30.538617886178862,76.77845528455285 30.589430894308943,76.880081300813 30.84349593495935,77.23577235772358 31.097560975609756,77.64227642276423 31.504065040650406,78.15040650406505 31.859756097560975,78.76016260162602 32.266260162601625,79.26829268292683 32.57113821138211,79.77642276422765 32.82520325203252,80.1321138211382 33.02845528455285,80.28455284552845 33.13008130081301,80.38617886178862 33.23170731707317,80.4369918699187 33.28252032520325,80.4369918699187 33.333333333333336,80.38617886178862 33.38414634146341,80.23373983739837 33.485772357723576,79.97967479674797 33.58739837398374,79.57317073170732 33.6890243902439,78.96341463414635 33.790650406504064,78.2520325203252 33.892276422764226,77.38821138211382 33.99390243902439,76.42276422764228 34.146341463414636,75.66056910569105 34.34959349593496,75.10162601626016 34.65447154471545,74.79674796747967 35.010162601626014,74.7459349593496 35.21341463414634,74.6951219512195" fill="none" stroke="black" stroke-width="0.6"></polyline><polyline points="45.27439024390244,78.5060975609756 45.22357723577235,78.45528455284553 45.172764227642276,78.2520325203252 45.12195121951219,78.09959349593495 45.12195121951219,77.9979674796748 45.12195121951219,77.9471544715447 45.12195121951219,77.9471544715447 45.172764227642276,77.9979674796748 45.22357723577235,78.2520325203252 45.325203252032516,78.60772357723577 45.47764227642276,79.0650406504065 45.63008130081301,79.57317073170732 45.78252032520325,80.03048780487805 45.9349593495935,80.48780487804878 46.13821138211382,80.84349593495935 46.34146341463415,81.09756097560975 46.49390243902439,81.19918699186992 46.646341463414636,81.19918699186992 46.84959349593496,81.04674796747967 47.103658536585364,80.79268292682927 47.30691056910569,80.48780487804878 47.5609756097561,80.1321138211382 47.71341463414634,79.72560975609755 47.86585365853659,79.3191056910569 47.96747967479675,78.91260162601625 48.01829268292683,78.65853658536585 48.11991869918699,78.60772357723577 48.22154471544715,78.70934959349593 48.47560975609756,79.01422764227642 48.78048780487805,79.47154471544715 49.136178861788615,79.97967479674797 49.49186991869919,80.38617886178862 49.84756097560975,80.74186991869918 50.203252032520325,81.04674796747967 50.50813008130081,81.25 50.8130081300813,81.30081300813008 51.0670731707317,81.30081300813008 51.32113821138211,81.25 51.575203252032516,81.04674796747967 51.829268292682926,80.79268292682927 52.03252032520325,80.48780487804878 52.235772357723576,80.03048780487805 52.4390243902439,79.52235772357723 52.642276422764226,78.96341463414635 52.69308943089431,78.35365853658537 52.74390243902439,77.74390243902438 52.59146341463415,77.08333333333333 52.540650406504064,76.77845528455285" fill="none" stroke="black" stroke-width="0.6"></polyline><polyline points="62.19512195121951,76.93089430894308 62.24593495934959,76.93089430894308 62.34756097560975,76.98170731707317 62.55081300813008,77.08333333333333 63.109756097560975,77.38821138211382 63.922764227642276,77.79471544715447 64.6849593495935,78.20121951219512 65.34552845528455,78.5569105691057 65.90447154471545,78.91260162601625 66.36178861788618,79.21747967479675 66.8191056910569,79.52235772357723 67.27642276422765,79.8780487804878 67.6321138211382,80.1829268292683 67.98780487804878,80.4369918699187 68.1910569105691,80.64024390243902 68.29268292682927,80.79268292682927 68.29268292682927,80.89430894308943 68.29268292682927,80.9451219512195" fill="none" stroke="black" stroke-width="0.6"></polyline><polyline points="66.41260162601625,76.72764227642276 66.41260162601625,76.67682926829268 66.46341463414635,76.6260162601626 66.46341463414635,76.6260162601626 66.46341463414635,76.67682926829268 66.41260162601625,76.93089430894308 66.26016260162602,77.38821138211382 65.95528455284553,78.09959349593495 65.4979674796748,78.8109756097561 64.9390243902439,79.6239837398374 64.32926829268293,80.33536585365853 63.922764227642276,80.79268292682927 63.61788617886179,81.14837398373983 63.41463414634146,81.5040650406504 63.3130081300813,81.7581300813008 63.262195121951216,81.96138211382113 63.262195121951216,82.0630081300813" fill="none" stroke="black" stroke-width="0.6"></polyline><polyline points="81.5040650406504,76.27032520325203 81.5040650406504,76.27032520325203 81.5040650406504,76.27032520325203 81.5040650406504,76.27032520325203 81.5040650406504,76.27032520325203 81.5040650406504,76.3719512195122 81.5040650406504,76.6260162601626 81.55487804878048,77.03252032520325 81.65650406504065,77.54065040650406 81.7581300813008,78.04878048780488 81.91056910569105,78.45528455284553 82.0630081300813,78.65853658536585 82.26626016260163,78.76016260162602 82.46951219512195,78.8109756097561 82.72357723577235,78.8109756097561 83.02845528455285,78.65853658536585 83.3841463414634,78.45528455284553 83.6890243902439,78.20121951219512 84.04471544715447,77.89634146341463 84.34959349593495,77.54065040650406 84.60365853658537,77.1849593495935 84.8069105691057,76.82926829268293 85.01016260162602,76.52439024390243 85.16260162601625,76.47357723577235 85.26422764227642,76.47357723577235 85.36585365853658,76.67682926829268 85.51829268292683,77.1341463414634 85.72154471544715,77.84552845528455 85.92479674796748,78.5569105691057 86.1280487804878,79.52235772357723 86.28048780487805,80.64024390243902 86.3821138211382,81.65650406504065 86.3821138211382,82.72357723577235 86.3821138211382,83.73983739837398 86.22967479674797,84.65447154471545 85.92479674796748,85.41666666666667 85.5691056910569,86.1280487804878 85.21341463414635,86.58536585365853 84.8069105691057,86.99186991869918 84.2479674796748,87.2459349593496 83.79065040650406,87.34756097560975 83.33333333333333,87.34756097560975 82.8760162601626,87.1951219512195 82.46951219512195,86.83943089430895 82.11382113821138,86.33130081300813 81.85975609756098,85.619918699187 81.8089430894309,85.01016260162602 81.8089430894309,84.34959349593495 82.0630081300813,83.63821138211382 82.46951219512195,83.07926829268293 83.02845528455285,82.41869918699187" fill="none" stroke="black" stroke-width="0.6"></polyline><polyline points="83.02845528455285,82.41869918699187 83.6890243902439,81.70731707317073 84.2479674796748,81.04674796747967 84.85772357723577,80.4369918699187 85.0609756097561,80.1321138211382" fill="none" stroke="black" stroke-width="0.6"></polyline><polyline points="15.294715447154472,92.02235772357723 15.24390243902439,91.97154471544715 15.19308943089431,91.869918699187 15.142276422764228,91.8191056910569 15.142276422764228,91.8191056910569 15.142276422764228,91.8191056910569 15.19308943089431,91.8191056910569 15.294715447154472,91.869918699187 15.447154471544716,91.92073170731707 15.65040650406504,91.92073170731707 15.853658536585366,91.97154471544715 16.10772357723577,91.97154471544715 16.36178861788618,91.97154471544715 16.71747967479675,91.97154471544715 17.1239837398374,91.97154471544715 17.479674796747968,91.92073170731707 17.88617886178862,91.92073170731707 18.241869918699187,91.869918699187 18.546747967479675,91.869918699187 18.69918699186992,91.92073170731707 18.851626016260163,92.02235772357723 18.851626016260163,92.22560975609755 18.80081300813008,92.53048780487805 18.648373983739837,92.88617886178862 18.39430894308943,93.34349593495935 18.089430894308943,93.75 17.784552845528456,94.2581300813008 17.428861788617887,94.66463414634146 17.17479674796748,95.1219512195122 16.920731707317074,95.52845528455285 16.81910569105691,95.83333333333333 16.81910569105691,95.98577235772358 16.869918699186993,96.08739837398373 17.022357723577237,96.13821138211382 17.276422764227643,96.13821138211382 17.58130081300813,96.13821138211382 18.038617886178862,96.03658536585365 18.597560975609756,95.8841463414634 19.308943089430894,95.68089430894308 20.121951219512194,95.42682926829268" fill="none" stroke="black" stroke-width="0.6"></polyline></svg>