<svg height="100" width="100" preserveAspectRatio="xMidYMid meet"><polyline points="21.59552845528455,9.146341463414634 21.54471544715447,9.095528455284553 21.49390243902439,8.99390243902439 21.392276422764226,8.892276422764228 21.341463414634145,8.841463414634147 21.290650406504064,8.790650406504065 21.239837398373982,8.739837398373984 21.1890243902439,8.689024390243903 21.13821138211382,8.638211382113822 21.036585365853657,8.638211382113822 20.884146341463413,8.638211382113822 20.68089430894309,8.790650406504065 20.32520325203252,9.146341463414634 19.867886178861788,9.654471544715447 19.461382113821138,10.315040650406504 19.004065040650406,11.026422764227641 18.648373983739837,11.737804878048781 18.39430894308943,12.398373983739837 18.29268292682927,12.957317073170731 18.241869918699187,13.465447154471544 18.241869918699187,13.871951219512194 18.29268292682927,14.278455284552845 18.495934959349594,14.583333333333332 18.69918699186992,14.83739837398374 18.953252032520325,14.989837398373984 19.308943089430894,14.989837398373984 19.664634146341463,14.939024390243903 20.121951219512194,14.735772357723578 20.579268292682926,14.329268292682926 21.08739837398374,13.821138211382113 21.54471544715447,13.3130081300813 21.95121951219512,12.703252032520325 22.35772357723577,12.042682926829269 22.71341463414634,11.331300813008129 22.96747967479675,10.670731707317072 23.170731707317074,10.010162601626016 23.272357723577237,9.40040650406504 23.272357723577237,8.94308943089431 23.170731707317074,8.485772357723578 22.916666666666668,8.028455284552845 22.611788617886177,7.6727642276422765 22.30691056910569,7.520325203252033 21.95121951219512,7.469512195121951 21.54471544715447,7.469512195121951 21.036585365853657,7.6727642276422765 20.68089430894309,7.926829268292683 20.3760162601626,8.333333333333334 20.071138211382113,8.739837398373984 19.91869918699187,9.095528455284553 19.91869918699187,9.451219512195122 19.91869918699187,9.75609756097561" fill="none" stroke="black" stroke-width="0.6"></polyline><polyline points="19.91869918699187,9.75609756097561 20.071138211382113,10.010162601626016 20.3760162601626,10.213414634146341 20.78252032520325,10.315040650406504 21.290650406504064,10.315040650406504 21.849593495934958,10.213414634146341 22.510162601626014,9.908536585365853 23.119918699186993,9.552845528455284 23.475609756097562,9.34959349593496" fill="none" stroke="black" stroke-width="0.6"></polyline><polyline points="21.08739837398374,12.347560975609756 21.08739837398374,12.347560975609756 21.036585365853657,12.347560975609756 20.985772357723576,12.347560975609756 20.934959349593495,12.347560975609756 20.934959349593495,12.601626016260163 20.934959349593495,13.008130081300813 20.985772357723576,13.71951219512195 21.08739837398374,14.583333333333332 21.1890243902439,15.447154471544716 21.341463414634145,16.10772357723577 21.54471544715447,16.565040650406505 21.798780487804876,16.971544715447155 22.052845528455283,17.17479674796748 22.35772357723577,17.276422764227643 22.560975609756095,17.276422764227643" fill="none" stroke="black" stroke-width="0.6"></polyline><polyline points="23.882113821138212,13.109756097560975 23.882113821138212,13.058943089430894 23.83130081300813,13.008130081300813 23.83130081300813,13.008130081300813 23.78048780487805,12.957317073170731 23.78048780487805,12.957317073170731 23.78048780487805,12.957317073170731 23.78048780487805,12.957317073170731 23.729674796747968,13.058943089430894 23.729674796747968,13.262195121951219 23.678861788617887,13.516260162601625 23.678861788617887,13.821138211382113 23.628048780487806,14.176829268292682 23.628048780487806,14.53252032520325 23.628048780487806,14.83739837398374 23.628048780487806,15.142276422764228 23.729674796747968,15.345528455284553 23.78048780487805,15.497967479674797 23.882113821138212,15.59959349593496 24.034552845528456,15.65040650406504 24.1869918699187,15.65040650406504 24.339430894308943,15.497967479674797 24.54268292682927,15.294715447154472 24.745934959349594,14.989837398373984 24.94918699186992,14.684959349593496 25.152439024390244,14.329268292682926 25.304878048780488,14.024390243902438 25.45731707317073,13.770325203252032 25.609756097560975,13.465447154471544 25.711382113821138,13.262195121951219 25.8130081300813,13.109756097560975 25.8130081300813,12.957317073170731 25.86382113821138,12.957317073170731 25.86382113821138,12.90650406504065 25.86382113821138,12.90650406504065 25.86382113821138,12.90650406504065 25.86382113821138,12.90650406504065 25.86382113821138,12.957317073170731 25.8130081300813,12.957317073170731 25.8130081300813,13.058943089430894 25.76219512195122,13.160569105691057 25.711382113821138,13.262195121951219 25.660569105691057,13.414634146341463 25.609756097560975,13.567073170731707 25.558943089430894,13.71951219512195 25.508130081300813,13.922764227642276 25.45731707317073,14.176829268292682 25.45731707317073,14.430894308943088 25.45731707317073,14.684959349593496 25.45731707317073,14.939024390243903 25.45731707317073,15.19308943089431" fill="none" stroke="black" stroke-width="0.6"></polyline><polyline points="25.45731707317073,15.19308943089431 25.508130081300813,15.447154471544716 25.558943089430894,15.65040650406504 25.660569105691057,15.802845528455284 25.8130081300813,15.904471544715447 25.914634146341463,15.904471544715447 26.067073170731707,15.904471544715447 26.21951219512195,15.853658536585366 26.422764227642276,15.701219512195122 26.57520325203252,15.548780487804878 26.829268292682926,15.294715447154472 26.98170731707317,15.040650406504065 27.184959349593495,14.786585365853659 27.4390243902439,14.48170731707317 27.591463414634145,14.227642276422763 27.74390243902439,13.973577235772357 27.84552845528455,13.71951219512195 27.947154471544714,13.516260162601625 27.997967479674795,13.363821138211382 28.099593495934958,13.160569105691057 28.099593495934958,12.957317073170731 28.099593495934958,12.855691056910569 28.099593495934958,12.754065040650406 28.099593495934958,12.652439024390244 28.048780487804876,12.601626016260163 27.997967479674795,12.550813008130081 27.947154471544714,12.550813008130081 27.947154471544714,12.550813008130081 27.896341463414632,12.550813008130081 27.896341463414632,12.550813008130081 27.896341463414632,12.601626016260163 27.896341463414632,12.703252032520325 27.896341463414632,12.804878048780488 27.84552845528455,12.90650406504065 27.84552845528455,13.109756097560975 27.84552845528455,13.3130081300813 27.79471544715447,13.516260162601625 27.79471544715447,13.770325203252032 27.79471544715447,14.024390243902438 27.74390243902439,14.278455284552845 27.74390243902439,14.634146341463413 27.74390243902439,14.888211382113822 27.74390243902439,15.142276422764228 27.74390243902439,15.345528455284553 27.79471544715447,15.497967479674797 27.896341463414632,15.59959349593496 27.997967479674795,15.65040650406504 28.099593495934958,15.65040650406504 28.20121951219512,15.65040650406504 28.353658536585364,15.548780487804878 28.55691056910569,15.345528455284553" fill="none" stroke="black" stroke-width="0.6"></polyline><polyline points="28.55691056910569,15.345528455284553 28.709349593495933,15.142276422764228 28.912601626016258,14.888211382113822 29.0650406504065,14.583333333333332 29.217479674796746,14.278455284552845 29.420731707317074,13.973577235772357 29.573170731707318,13.66869918699187 29.776422764227643,13.414634146341463 29.928861788617887,13.109756097560975 30.08130081300813,12.804878048780488 30.233739837398375,12.550813008130081 30.4369918699187,12.347560975609756 30.589430894308943,12.195121951219512 30.741869918699187,12.09349593495935 30.945121951219512,11.991869918699187 31.046747967479675,11.941056910569106 31.19918699186992,11.941056910569106 31.30081300813008,11.941056910569106 31.351626016260163,11.941056910569106 31.402439024390244,11.991869918699187 31.453252032520325,12.042682926829269 31.453252032520325,12.042682926829269 31.453252032520325,12.09349593495935 31.453252032520325,12.144308943089431 31.402439024390244,12.195121951219512 31.30081300813008,12.296747967479675 31.19918699186992,12.398373983739837 31.046747967479675,12.5 30.89430894308943,12.652439024390244 30.691056910569106,12.804878048780488 30.48780487804878,13.008130081300813 30.284552845528456,13.262195121951219 30.03048780487805,13.516260162601625 29.776422764227643,13.821138211382113 29.573170731707318,14.07520325203252 29.471544715447155,14.329268292682926 29.369918699186993,14.634146341463413 29.369918699186993,14.888211382113822 29.369918699186993,15.091463414634147 29.471544715447155,15.19308943089431 29.573170731707318,15.294715447154472 29.725609756097562,15.345528455284553 29.928861788617887,15.345528455284553 30.132113821138212,15.294715447154472 30.38617886178862,15.19308943089431 30.589430894308943,14.989837398373984 30.89430894308943,14.735772357723578 31.097560975609756,14.430894308943088 31.351626016260163,14.1260162601626 31.60569105691057,13.821138211382113 31.859756097560975,13.516260162601625" fill="none" stroke="black" stroke-width="0.6"></polyline><polyline points="31.859756097560975,13.516260162601625 32.012195121951216,13.211382113821138 32.21544715447154,12.855691056910569 32.3170731707317,12.601626016260163 32.46951219512195,12.296747967479675 32.57113821138211,12.042682926829269 32.6219512195122,11.788617886178862 32.72357723577236,11.483739837398375 32.82520325203252,11.178861788617885 32.926829268292686,10.823170731707316 32.97764227642276,10.416666666666666 33.02845528455285,10.010162601626016 33.079268292682926,9.705284552845528 33.13008130081301,9.451219512195122 33.13008130081301,9.298780487804878 33.18089430894309,9.197154471544716 33.18089430894309,9.197154471544716 33.18089430894309,9.146341463414634 33.18089430894309,9.146341463414634 33.18089430894309,9.197154471544716 33.18089430894309,9.298780487804878 33.18089430894309,9.502032520325203 33.13008130081301,9.857723577235772 33.02845528455285,10.315040650406504 32.97764227642276,10.772357723577235 32.8760162601626,11.229674796747966 32.77439024390244,11.737804878048781 32.672764227642276,12.245934959349594 32.52032520325203,12.754065040650406 32.418699186991866,13.262195121951219 32.36788617886179,13.66869918699187 32.266260162601625,14.024390243902438 32.16463414634146,14.329268292682926 32.11382113821138,14.583333333333332 32.0630081300813,14.888211382113822 32.0630081300813,15.091463414634147 32.0630081300813,15.19308943089431 32.0630081300813,15.24390243902439 32.0630081300813,15.24390243902439 32.0630081300813,15.24390243902439 32.0630081300813,15.142276422764228 32.11382113821138,14.939024390243903 32.16463414634146,14.634146341463413 32.266260162601625,14.227642276422763 32.36788617886179,13.871951219512194 32.52032520325203,13.465447154471544 32.72357723577236,13.008130081300813 32.926829268292686,12.601626016260163 33.13008130081301,12.144308943089431 33.4349593495935,11.737804878048781 33.63821138211382,11.534552845528456" fill="none" stroke="black" stroke-width="0.6"></polyline><polyline points="33.63821138211382,11.534552845528456 33.84146341463415,11.382113821138212 33.99390243902439,11.382113821138212 34.04471544715447,11.382113821138212 34.04471544715447,11.483739837398375 34.04471544715447,11.636178861788618 33.94308943089431,11.890243902439025 33.790650406504064,12.195121951219512 33.63821138211382,12.550813008130081 33.4349593495935,12.855691056910569 33.28252032520325,13.160569105691057 33.079268292682926,13.516260162601625 32.926829268292686,13.770325203252032 32.82520325203252,14.024390243902438 32.77439024390244,14.227642276422763 32.77439024390244,14.380081300813007 32.8760162601626,14.53252032520325 33.079268292682926,14.684959349593496 33.38414634146341,14.888211382113822 33.739837398373986,14.989837398373984 34.146341463414636,15.142276422764228 34.603658536585364,15.19308943089431 35.010162601626014,15.19308943089431 35.416666666666664,15.142276422764228" fill="none" stroke="black" stroke-width="0.6"></polyline><polyline points="28.861788617886177,10.010162601626016 28.861788617886177,10.010162601626016 28.861788617886177,10.010162601626016 28.861788617886177,10.010162601626016 28.861788617886177,10.010162601626016 28.861788617886177,10.010162601626016" fill="none" stroke="black" stroke-width="0.6"></polyline><polyline points="41.15853658536585,15.24390243902439 41.15853658536585,15.19308943089431 41.15853658536585,15.142276422764228 41.15853658536585,15.040650406504065 41.209349593495936,14.989837398373984 41.3109756097561,14.83739837398374 41.46341463414634,14.634146341463413 41.666666666666664,14.380081300813007 41.86991869918699,14.024390243902438 42.17479674796748,13.617886178861788 42.42886178861789,13.211382113821138 42.68292682926829,12.703252032520325 42.886178861788615,12.09349593495935 43.03861788617886,11.585365853658537 43.140243902439025,11.128048780487804 43.1910569105691,10.670731707317072 43.1910569105691,10.315040650406504 43.1910569105691,9.959349593495935 43.1910569105691,9.705284552845528 43.1910569105691,9.552845528455284 43.140243902439025,9.451219512195122 43.03861788617886,9.40040650406504 42.98780487804878,9.40040650406504 42.9369918699187,9.40040650406504 42.83536585365854,9.40040650406504 42.78455284552845,9.502032520325203 42.63211382113821,9.75609756097561 42.53048780487805,10.060975609756097 42.3780487804878,10.518292682926829 42.27642276422764,11.026422764227641 42.17479674796748,11.636178861788618 42.073170731707314,12.245934959349594 42.02235772357724,13.008130081300813 41.920731707317074,13.871951219512194 41.86991869918699,14.735772357723578 41.76829268292683,15.548780487804878 41.666666666666664,16.3109756097561 41.61585365853659,16.920731707317074 41.61585365853659,17.479674796747968 41.5650406504065,17.98780487804878 41.5650406504065,18.34349593495935 41.5650406504065,18.648373983739837 41.666666666666664,18.953252032520325 41.71747967479675,19.15650406504065 41.86991869918699,19.308943089430894 42.02235772357724,19.359756097560975 42.17479674796748,19.359756097560975 42.42886178861789,19.308943089430894 42.68292682926829,19.10569105691057 42.9369918699187,18.851626016260163 43.140243902439025,18.495934959349594" fill="none" stroke="black" stroke-width="0.6"></polyline><polyline points="43.140243902439025,18.495934959349594 43.39430894308943,18.140243902439025 43.59756097560975,17.784552845528456 43.75,17.378048780487806 43.90243902439024,16.971544715447155 44.0040650406504,16.565040650406505 44.0040650406504,16.15853658536585 44.0040650406504,15.802845528455284 43.90243902439024,15.497967479674797 43.75,15.19308943089431 43.546747967479675,14.989837398373984 43.34349593495935,14.786585365853659 43.140243902439025,14.684959349593496 42.9369918699187,14.583333333333332 42.78455284552845,14.53252032520325 42.58130081300813,14.48170731707317 42.42886178861789,14.48170731707317 42.27642276422764,14.48170731707317 42.22560975609756,14.48170731707317 42.1239837398374,14.48170731707317 42.1239837398374,14.48170731707317 42.1239837398374,14.430894308943088 42.1239837398374,14.430894308943088 42.1239837398374,14.430894308943088 42.17479674796748,14.430894308943088 42.27642276422764,14.430894308943088 42.42886178861789,14.380081300813007 42.63211382113821,14.380081300813007 42.886178861788615,14.380081300813007 43.140243902439025,14.329268292682926 43.44512195121951,14.329268292682926 43.75,14.278455284552845 44.105691056910565,14.278455284552845 44.41056910569105,14.227642276422763 44.71544715447154,14.176829268292682 45.02032520325203,14.07520325203252 45.325203252032516,13.973577235772357 45.579268292682926,13.871951219512194 45.833333333333336,13.71951219512195 46.13821138211382,13.567073170731707 46.392276422764226,13.414634146341463 46.59552845528455,13.262195121951219 46.84959349593496,13.109756097560975 47.052845528455286,13.008130081300813 47.20528455284553,12.90650406504065 47.357723577235774,12.855691056910569 47.459349593495936,12.804878048780488 47.5609756097561,12.804878048780488 47.66260162601626,12.754065040650406 47.71341463414634,12.703252032520325 47.764227642276424,12.703252032520325" fill="none" stroke="black" stroke-width="0.6"></polyline><polyline points="47.764227642276424,12.703252032520325 47.764227642276424,12.703252032520325 47.764227642276424,12.703252032520325 47.764227642276424,12.703252032520325 47.764227642276424,12.703252032520325 47.71341463414634,12.703252032520325 47.61178861788618,12.754065040650406 47.459349593495936,12.855691056910569 47.30691056910569,13.008130081300813 47.15447154471545,13.160569105691057 46.90040650406504,13.414634146341463 46.697154471544714,13.66869918699187 46.44308943089431,13.922764227642276 46.1890243902439,14.227642276422763 45.985772357723576,14.53252032520325 45.88414634146341,14.83739837398374 45.78252032520325,15.142276422764228 45.78252032520325,15.345528455284553 45.78252032520325,15.497967479674797 45.9349593495935,15.548780487804878 46.08739837398374,15.59959349593496 46.239837398373986,15.548780487804878 46.49390243902439,15.447154471544716 46.697154471544714,15.294715447154472 46.951219512195124,15.091463414634147 47.15447154471545,14.83739837398374 47.357723577235774,14.583333333333332 47.510162601626014,14.278455284552845 47.66260162601626,14.024390243902438 47.764227642276424,13.821138211382113 47.8150406504065,13.617886178861788 47.8150406504065,13.414634146341463 47.8150406504065,13.262195121951219 47.8150406504065,13.160569105691057 47.8150406504065,13.008130081300813 47.764227642276424,12.90650406504065 47.71341463414634,12.855691056910569 47.71341463414634,12.804878048780488 47.66260162601626,12.804878048780488 47.66260162601626,12.804878048780488 47.66260162601626,12.804878048780488 47.66260162601626,12.804878048780488 47.66260162601626,12.804878048780488 47.71341463414634,12.804878048780488 47.764227642276424,12.754065040650406 47.86585365853659,12.754065040650406 47.96747967479675,12.754065040650406 48.11991869918699,12.754065040650406 48.27235772357724,12.754065040650406 48.42479674796748,12.754065040650406 48.6280487804878,12.754065040650406" fill="none" stroke="black" stroke-width="0.6"></polyline><polyline points="48.6280487804878,12.754065040650406 48.83130081300813,12.804878048780488 49.03455284552845,12.855691056910569 49.23780487804878,12.90650406504065 49.4410569105691,13.008130081300813 49.64430894308943,13.058943089430894 49.796747967479675,13.160569105691057 50,13.3130081300813 50.10162601626016,13.465447154471544 50.203252032520325,13.617886178861788 50.30487804878049,13.821138211382113 50.355691056910565,13.973577235772357 50.40650406504065,14.176829268292682 50.45731707317073,14.380081300813007 50.55894308943089,14.53252032520325 50.609756097560975,14.634146341463413 50.71138211382114,14.786585365853659 50.8130081300813,14.83739837398374 50.91463414634146,14.939024390243903 51.0670731707317,14.989837398373984 51.21951219512195,15.091463414634147 51.37195121951219,15.091463414634147 51.575203252032516,15.142276422764228 51.72764227642276,15.19308943089431 51.880081300813,15.24390243902439 52.03252032520325,15.24390243902439 52.1849593495935,15.294715447154472" fill="none" stroke="black" stroke-width="0.6"></polyline><polyline points="51.47357723577235,12.601626016260163 51.27032520325203,12.601626016260163 51.11788617886179,12.652439024390244 50.86382113821138,12.855691056910569 50.66056910569105,13.160569105691057 50.40650406504065,13.567073170731707 50.10162601626016,14.07520325203252 49.84756097560975,14.583333333333332 49.542682926829265,15.040650406504065 49.28861788617886,15.396341463414634 49.136178861788615,15.65040650406504 48.983739837398375,15.802845528455284 48.83130081300813,15.853658536585366 48.83130081300813,15.904471544715447" fill="none" stroke="black" stroke-width="0.6"></polyline><polyline points="56.605691056910565,15.24390243902439 56.605691056910565,15.24390243902439 56.605691056910565,15.24390243902439 56.605691056910565,15.24390243902439 56.605691056910565,15.24390243902439 56.605691056910565,15.24390243902439 56.65650406504065,15.24390243902439 56.75813008130081,15.19308943089431 56.96138211382114,15.091463414634147 57.16463414634146,14.888211382113822 57.418699186991866,14.684959349593496 57.672764227642276,14.380081300813007 57.92682926829268,14.07520325203252 58.18089430894309,13.770325203252032 58.38414634146341,13.516260162601625 58.536585365853654,13.262195121951219 58.58739837398374,13.109756097560975 58.63821138211382,12.957317073170731 58.6890243902439,12.855691056910569 58.6890243902439,12.804878048780488 58.6890243902439,12.754065040650406 58.63821138211382,12.754065040650406 58.63821138211382,12.754065040650406 58.58739837398374,12.754065040650406 58.58739837398374,12.754065040650406 58.536585365853654,12.754065040650406 58.536585365853654,12.804878048780488 58.485772357723576,12.90650406504065 58.485772357723576,13.008130081300813 58.485772357723576,13.211382113821138 58.485772357723576,13.414634146341463 58.485772357723576,13.66869918699187 58.485772357723576,13.922764227642276 58.485772357723576,14.176829268292682 58.485772357723576,14.53252032520325 58.485772357723576,14.888211382113822 58.485772357723576,15.345528455284553 58.43495934959349,15.752032520325203 58.43495934959349,16.209349593495933 58.43495934959349,16.666666666666668 58.43495934959349,17.073170731707318 58.43495934959349,17.479674796747968 58.43495934959349,17.835365853658537 58.43495934959349,18.140243902439025 58.38414634146341,18.495934959349594 58.33333333333333,18.75 58.231707317073166,19.054878048780488 58.130081300813,19.359756097560975 58.079268292682926,19.61382113821138 57.97764227642276,19.817073170731707 57.825203252032516,20.020325203252032" fill="none" stroke="black" stroke-width="0.6"></polyline><polyline points="57.825203252032516,20.020325203252032 57.72357723577235,20.121951219512194 57.57113821138211,20.172764227642276 57.46951219512195,20.172764227642276 57.3170731707317,20.172764227642276 57.21544715447154,20.071138211382113 57.11382113821138,19.91869918699187 57.012195121951216,19.715447154471544 57.012195121951216,19.410569105691057 57.012195121951216,19.054878048780488 57.012195121951216,18.69918699186992 57.0630081300813,18.241869918699187 57.21544715447154,17.88617886178862 57.36788617886179,17.53048780487805 57.57113821138211,17.1239837398374 57.825203252032516,16.76829268292683 58.079268292682926,16.36178861788618 58.33333333333333,15.955284552845528 58.58739837398374,15.65040650406504 58.790650406504064,15.345528455284553 58.99390243902439,15.040650406504065 59.09552845528455,14.83739837398374 59.2479674796748,14.634146341463413 59.34959349593496,14.430894308943088 59.451219512195124,14.278455284552845 59.552845528455286,14.1260162601626 59.603658536585364,13.922764227642276 59.70528455284553,13.821138211382113 59.80691056910569,13.617886178861788 59.857723577235774,13.465447154471544 59.90853658536585,13.3130081300813 59.959349593495936,13.211382113821138 59.959349593495936,13.160569105691057 59.959349593495936,13.109756097560975 60.010162601626014,13.058943089430894 60.010162601626014,13.008130081300813 60.010162601626014,13.008130081300813 60.010162601626014,13.008130081300813 60.010162601626014,13.008130081300813 60.010162601626014,13.008130081300813 60.010162601626014,13.008130081300813 60.010162601626014,13.008130081300813 60.010162601626014,13.058943089430894 60.010162601626014,13.211382113821138 60.010162601626014,13.363821138211382 59.959349593495936,13.567073170731707 59.959349593495936,13.821138211382113 59.959349593495936,14.024390243902438 59.959349593495936,14.278455284552845 59.959349593495936,14.53252032520325 59.959349593495936,14.786585365853659" fill="none" stroke="black" stroke-width="0.6"></polyline><polyline points="59.959349593495936,14.786585365853659 59.959349593495936,15.040650406504065 59.959349593495936,15.24390243902439 60.010162601626014,15.447154471544716 60.0609756097561,15.59959349593496 60.11178861788618,15.65040650406504 60.16260162601626,15.701219512195122 60.264227642276424,15.701219512195122 60.36585365853659,15.65040650406504 60.51829268292683,15.548780487804878 60.61991869918699,15.396341463414634 60.77235772357724,15.19308943089431 60.97560975609756,14.989837398373984 61.1280487804878,14.786585365853659 61.28048780487805,14.53252032520325 61.43292682926829,14.278455284552845 61.53455284552845,14.07520325203252 61.636178861788615,13.821138211382113 61.78861788617886,13.617886178861788 61.83943089430894,13.414634146341463 61.890243902439025,13.262195121951219 61.9410569105691,13.058943089430894 61.9410569105691,12.90650406504065 61.9410569105691,12.804878048780488 61.9410569105691,12.804878048780488 61.9410569105691,12.804878048780488 61.9410569105691,12.804878048780488 61.9410569105691,12.804878048780488 61.9410569105691,12.804878048780488 61.9410569105691,12.804878048780488 61.9410569105691,12.804878048780488 61.9410569105691,12.855691056910569 61.9410569105691,12.90650406504065 61.9410569105691,13.058943089430894 61.9410569105691,13.211382113821138 61.99186991869919,13.414634146341463 61.99186991869919,13.567073170731707 61.99186991869919,13.770325203252032 62.042682926829265,14.024390243902438 62.09349593495935,14.227642276422763 62.09349593495935,14.430894308943088 62.14430894308943,14.634146341463413 62.14430894308943,14.786585365853659 62.19512195121951,14.939024390243903 62.24593495934959,15.091463414634147 62.24593495934959,15.142276422764228 62.24593495934959,15.19308943089431 62.296747967479675,15.24390243902439 62.296747967479675,15.24390243902439 62.34756097560975,15.24390243902439 62.39837398373984,15.19308943089431" fill="none" stroke="black" stroke-width="0.6"></polyline><polyline points="62.39837398373984,15.19308943089431 62.39837398373984,15.091463414634147 62.449186991869915,14.989837398373984 62.55081300813008,14.83739837398374 62.60162601626016,14.684959349593496 62.65243902439024,14.48170731707317 62.7540650406504,14.227642276422763 62.80487804878049,14.024390243902438 62.90650406504065,13.821138211382113 63.00813008130081,13.567073170731707 63.109756097560975,13.363821138211382 63.21138211382114,13.160569105691057 63.3130081300813,12.957317073170731 63.41463414634146,12.804878048780488 63.516260162601625,12.652439024390244 63.61788617886179,12.550813008130081 63.71951219512195,12.5 63.77032520325203,12.5 63.82113821138211,12.5 63.87195121951219,12.5 63.922764227642276,12.550813008130081 63.922764227642276,12.652439024390244 63.97357723577235,12.754065040650406 63.97357723577235,12.957317073170731 64.02439024390243,13.160569105691057 64.02439024390243,13.363821138211382 64.02439024390243,13.567073170731707 64.02439024390243,13.770325203252032 64.02439024390243,13.973577235772357 63.97357723577235,14.227642276422763 63.922764227642276,14.430894308943088 63.922764227642276,14.583333333333332 63.922764227642276,14.684959349593496 63.922764227642276,14.735772357723578 63.922764227642276,14.735772357723578 63.922764227642276,14.735772357723578 63.922764227642276,14.735772357723578 63.922764227642276,14.684959349593496 63.922764227642276,14.583333333333332 63.97357723577235,14.430894308943088 64.02439024390243,14.278455284552845 64.1260162601626,14.024390243902438 64.22764227642276,13.770325203252032 64.380081300813,13.516260162601625 64.48170731707317,13.262195121951219 64.6341463414634,13.058943089430894 64.73577235772358,12.90650406504065 64.83739837398373,12.754065040650406 64.88821138211382,12.703252032520325 64.98983739837398,12.652439024390244 65.04065040650406,12.652439024390244" fill="none" stroke="black" stroke-width="0.6"></polyline><polyline points="65.04065040650406,12.652439024390244 65.04065040650406,12.652439024390244 65.09146341463415,12.754065040650406 65.09146341463415,12.90650406504065 65.09146341463415,13.109756097560975 65.09146341463415,13.3130081300813 65.04065040650406,13.516260162601625 65.04065040650406,13.71951219512195 64.98983739837398,13.922764227642276 64.98983739837398,14.1260162601626 64.9390243902439,14.278455284552845 64.9390243902439,14.430894308943088 64.9390243902439,14.53252032520325 64.9390243902439,14.53252032520325 64.9390243902439,14.53252032520325 64.9390243902439,14.53252032520325 64.98983739837398,14.430894308943088 65.09146341463415,14.278455284552845 65.1930894308943,14.07520325203252 65.34552845528455,13.871951219512194 65.44715447154472,13.617886178861788 65.65040650406505,13.363821138211382 65.80284552845528,13.109756097560975 65.95528455284553,12.855691056910569 66.15853658536585,12.601626016260163 66.3109756097561,12.449186991869919 66.41260162601625,12.398373983739837 66.46341463414635,12.347560975609756 66.46341463414635,12.398373983739837 66.46341463414635,12.5 66.46341463414635,12.652439024390244 66.46341463414635,12.855691056910569 66.36178861788618,13.109756097560975 66.3109756097561,13.3130081300813 66.26016260162602,13.516260162601625 66.20934959349593,13.71951219512195 66.20934959349593,13.922764227642276 66.15853658536585,14.07520325203252 66.15853658536585,14.227642276422763 66.15853658536585,14.329268292682926 66.26016260162602,14.380081300813007 66.36178861788618,14.380081300813007 66.46341463414635,14.380081300813007 66.66666666666667,14.278455284552845 66.8191056910569,14.1260162601626 67.02235772357723,13.922764227642276 67.22560975609755,13.71951219512195 67.3780487804878,13.465447154471544 67.58130081300813,13.211382113821138 67.73373983739837,13.008130081300813 67.83536585365853,12.855691056910569" fill="none" stroke="black" stroke-width="0.6"></polyline><polyline points="67.83536585365853,12.855691056910569 67.88617886178862,12.804878048780488 67.88617886178862,12.804878048780488 67.88617886178862,12.855691056910569 67.88617886178862,13.058943089430894 67.88617886178862,13.3130081300813 67.83536585365853,13.66869918699187 67.83536585365853,14.1260162601626 67.83536585365853,14.684959349593496 67.83536585365853,15.294715447154472 67.88617886178862,16.006097560975608 67.9369918699187,16.666666666666668 67.98780487804878,17.428861788617887 68.03861788617886,18.038617886178862 68.08943089430895,18.648373983739837 68.08943089430895,19.258130081300813 68.08943089430895,19.664634146341463 68.03861788617886,19.91869918699187 67.98780487804878,20.071138211382113 67.98780487804878,20.071138211382113 67.9369918699187,20.071138211382113 67.88617886178862,19.91869918699187 67.83536585365853,19.61382113821138 67.73373983739837,19.258130081300813 67.6829268292683,18.69918699186992 67.6321138211382,18.191056910569106 67.58130081300813,17.58130081300813 67.53048780487805,16.971544715447155 67.53048780487805,16.41260162601626 67.53048780487805,15.853658536585366 67.58130081300813,15.24390243902439 67.73373983739837,14.786585365853659 67.88617886178862,14.278455284552845 68.14024390243902,13.71951219512195 68.39430894308943,13.363821138211382 68.69918699186992,13.008130081300813 69.0040650406504,12.754065040650406 69.2581300813008,12.703252032520325 69.46138211382113,12.703252032520325 69.61382113821138,12.703252032520325 69.76626016260163,12.804878048780488 69.86788617886178,12.957317073170731 69.96951219512195,13.109756097560975 69.96951219512195,13.262195121951219 69.96951219512195,13.465447154471544 69.91869918699187,13.71951219512195 69.76626016260163,13.973577235772357 69.5630081300813,14.227642276422763 69.2581300813008,14.48170731707317 69.0040650406504,14.786585365853659 68.69918699186992,15.040650406504065" fill="none" stroke="black" stroke-width="0.6"></polyline><polyline points="68.69918699186992,15.040650406504065 68.34349593495935,15.294715447154472 68.08943089430895,15.497967479674797 67.83536585365853,15.59959349593496 67.73373983739837,15.59959349593496 67.6829268292683,15.59959349593496 67.6829268292683,15.548780487804878 67.78455284552845,15.345528455284553 67.98780487804878,15.142276422764228 68.1910569105691,14.888211382113822 68.4959349593496,14.684959349593496 68.75,14.53252032520325 69.0040650406504,14.380081300813007 69.3089430894309,14.227642276422763 69.61382113821138,14.1260162601626 69.91869918699187,14.024390243902438 70.22357723577235,13.973577235772357 70.47764227642276,13.871951219512194 70.73170731707317,13.821138211382113 70.98577235772358,13.71951219512195 71.1890243902439,13.66869918699187 71.34146341463415,13.567073170731707 71.49390243902438,13.414634146341463 71.64634146341463,13.262195121951219 71.7479674796748,13.109756097560975 71.84959349593495,12.90650406504065 71.90040650406505,12.754065040650406 71.90040650406505,12.652439024390244 71.90040650406505,12.550813008130081 71.90040650406505,12.5 71.79878048780488,12.5 71.7479674796748,12.5 71.69715447154472,12.5 71.59552845528455,12.601626016260163 71.59552845528455,12.754065040650406 71.54471544715447,12.90650406504065 71.54471544715447,13.109756097560975 71.54471544715447,13.3130081300813 71.54471544715447,13.516260162601625 71.59552845528455,13.71951219512195 71.69715447154472,13.973577235772357 71.79878048780488,14.176829268292682 71.84959349593495,14.48170731707317 71.95121951219512,14.735772357723578 71.95121951219512,14.989837398373984 71.95121951219512,15.24390243902439 71.90040650406505,15.396341463414634 71.79878048780488,15.497967479674797 71.64634146341463,15.548780487804878 71.49390243902438,15.548780487804878 71.34146341463415,15.447154471544716" fill="none" stroke="black" stroke-width="0.6"></polyline><polyline points="71.34146341463415,15.447154471544716 71.13821138211382,15.294715447154472 71.03658536585365,15.142276422764228 70.98577235772358,15.040650406504065 70.9349593495935,14.939024390243903 70.9349593495935,14.83739837398374 71.03658536585365,14.735772357723578 71.23983739837398,14.634146341463413 71.49390243902438,14.53252032520325 71.84959349593495,14.430894308943088 72.3069105691057,14.278455284552845 72.8150406504065,14.176829268292682 73.32317073170732,14.07520325203252 73.78048780487805,14.024390243902438 74.08536585365853,14.024390243902438 74.28861788617886,13.973577235772357" fill="none" stroke="black" stroke-width="0.6"></polyline><polyline points="61.229674796747965,11.077235772357723 61.229674796747965,11.077235772357723 61.229674796747965,11.026422764227641 61.229674796747965,10.97560975609756 61.28048780487805,10.97560975609756 61.28048780487805,10.97560975609756 61.28048780487805,10.97560975609756" fill="none" stroke="black" stroke-width="0.6"></polyline><polyline points="14.83739837398374,34.40040650406504 14.83739837398374,34.40040650406504 14.83739837398374,34.40040650406504 14.83739837398374,34.40040650406504 14.83739837398374,34.34959349593496 14.83739837398374,34.34959349593496 14.989837398373984,34.298780487804876 15.142276422764228,34.197154471544714 15.294715447154472,34.09552845528455 15.548780487804878,33.892276422764226 15.802845528455284,33.63821138211382 16.05691056910569,33.333333333333336 16.3109756097561,33.02845528455285 16.514227642276424,32.72357723577236 16.71747967479675,32.418699186991866 16.869918699186993,32.16463414634146 17.073170731707318,31.961382113821138 17.225609756097562,31.758130081300813 17.378048780487806,31.65650406504065 17.479674796747968,31.554878048780488 17.58130081300813,31.453252032520325 17.632113821138212,31.453252032520325 17.733739837398375,31.402439024390244 17.784552845528456,31.351626016260163 17.835365853658537,31.351626016260163 17.88617886178862,31.351626016260163 17.9369918699187,31.351626016260163 17.98780487804878,31.351626016260163 18.038617886178862,31.402439024390244 18.089430894308943,31.453252032520325 18.140243902439025,31.554878048780488 18.191056910569106,31.65650406504065 18.241869918699187,31.758130081300813 18.29268292682927,31.910569105691057 18.29268292682927,32.0630081300813 18.34349593495935,32.16463414634146 18.34349593495935,32.3170731707317 18.39430894308943,32.46951219512195 18.39430894308943,32.672764227642276 18.39430894308943,32.82520325203252 18.34349593495935,33.02845528455285 18.34349593495935,33.18089430894309 18.29268292682927,33.333333333333336 18.241869918699187,33.485772357723576 18.191056910569106,33.58739837398374 18.140243902439025,33.739837398373986 18.089430894308943,33.84146341463415 18.038617886178862,33.94308943089431 17.98780487804878,34.04471544715447 17.9369918699187,34.146341463414636 17.9369918699187,34.197154471544714" fill="none" stroke="black" stroke-width="0.6"></polyline><polyline points="17.9369918699187,34.197154471544714 17.88617886178862,34.2479674796748 17.88617886178862,34.2479674796748 17.88617886178862,34.298780487804876 17.88617886178862,34.298780487804876 17.88617886178862,34.298780487804876 17.88617886178862,34.298780487804876 17.88617886178862,34.298780487804876 17.88617886178862,34.298780487804876 17.88617886178862,34.298780487804876 17.88617886178862,34.298780487804876 17.9369918699187,34.298780487804876 17.9369918699187,34.298780487804876 17.9369918699187,34.298780487804876 17.98780487804878,34.2479674796748 18.038617886178862,34.2479674796748 18.038617886178862,34.2479674796748 18.089430894308943,34.197154471544714 18.140243902439025,34.146341463414636 18.191056910569106,34.09552845528455 18.29268292682927,34.04471544715447 18.34349593495935,33.94308943089431 18.445121951219512,33.84146341463415 18.495934959349594,33.739837398373986 18.597560975609756,33.63821138211382 18.69918699186992,33.53658536585366 18.80081300813008,33.38414634146341 18.902439024390244,33.28252032520325 18.953252032520325,33.18089430894309 19.054878048780488,33.079268292682926 19.10569105691057,32.97764227642276 19.15650406504065,32.8760162601626 19.20731707317073,32.82520325203252 19.258130081300813,32.77439024390244 19.258130081300813,32.77439024390244 19.308943089430894,32.72357723577236 19.308943089430894,32.72357723577236 19.308943089430894,32.72357723577236 19.308943089430894,32.72357723577236 19.308943089430894,32.672764227642276 19.359756097560975,32.672764227642276 19.359756097560975,32.672764227642276 19.359756097560975,32.672764227642276 19.359756097560975,32.6219512195122 19.359756097560975,32.6219512195122 19.410569105691057,32.57113821138211 19.461382113821138,32.52032520325203 19.461382113821138,32.52032520325203 19.51219512195122,32.46951219512195 19.51219512195122,32.418699186991866 19.5630081300813,32.418699186991866" fill="none" stroke="black" stroke-width="0.6"></polyline><polyline points="19.5630081300813,32.418699186991866 19.5630081300813,32.36788617886179 19.61382113821138,32.36788617886179 19.61382113821138,32.3170731707317 19.61382113821138,32.3170731707317 19.664634146341463,32.266260162601625 19.664634146341463,32.266260162601625 19.664634146341463,32.266260162601625 19.715447154471544,32.266260162601625 19.715447154471544,32.21544715447154 19.715447154471544,32.21544715447154 19.715447154471544,32.21544715447154 19.715447154471544,32.21544715447154 19.766260162601625,32.21544715447154 19.766260162601625,32.16463414634146 19.766260162601625,32.16463414634146 19.766260162601625,32.16463414634146 19.817073170731707,32.16463414634146 19.817073170731707,32.16463414634146 19.817073170731707,32.16463414634146 19.817073170731707,32.16463414634146 19.867886178861788,32.16463414634146 19.867886178861788,32.16463414634146 19.867886178861788,32.16463414634146 19.867886178861788,32.16463414634146 19.91869918699187,32.16463414634146 19.91869918699187,32.16463414634146 19.96951219512195,32.11382113821138 19.96951219512195,32.11382113821138 20.020325203252032,32.11382113821138 20.071138211382113,32.11382113821138 20.071138211382113,32.11382113821138 20.121951219512194,32.11382113821138 20.121951219512194,32.11382113821138 20.172764227642276,32.16463414634146 20.172764227642276,32.21544715447154 20.223577235772357,32.3170731707317 20.223577235772357,32.418699186991866 20.223577235772357,32.57113821138211 20.223577235772357,32.72357723577236 20.223577235772357,32.8760162601626 20.172764227642276,33.02845528455285 20.121951219512194,33.23170731707317 20.071138211382113,33.38414634146341 20.071138211382113,33.53658536585366 20.020325203252032,33.63821138211382 19.96951219512195,33.790650406504064 19.96951219512195,33.892276422764226 19.96951219512195,33.99390243902439 19.96951219512195,34.09552845528455 19.96951219512195,34.197154471544714" fill="none" stroke="black" stroke-width="0.6"></polyline><polyline points="19.96951219512195,34.197154471544714 19.96951219512195,34.298780487804876 20.020325203252032,34.34959349593496 20.071138211382113,34.40040650406504 20.121951219512194,34.451219512195124 20.223577235772357,34.451219512195124 20.32520325203252,34.451219512195124 20.426829268292682,34.451219512195124 20.528455284552845,34.40040650406504 20.68089430894309,34.298780487804876 20.78252032520325,34.146341463414636 20.934959349593495,33.99390243902439 21.08739837398374,33.790650406504064 21.1890243902439,33.58739837398374 21.341463414634145,33.333333333333336 21.49390243902439,33.13008130081301 21.646341463414632,32.926829268292686 21.798780487804876,32.72357723577236 21.90040650406504,32.52032520325203 22.052845528455283,32.3170731707317 22.154471544715445,32.16463414634146 22.256097560975608,32.012195121951216 22.30691056910569,31.961382113821138 22.35772357723577,31.910569105691057 22.35772357723577,31.910569105691057 22.35772357723577,31.910569105691057 22.35772357723577,31.961382113821138 22.35772357723577,32.0630081300813 22.30691056910569,32.16463414634146 22.30691056910569,32.36788617886179 22.256097560975608,32.57113821138211 22.205284552845526,32.77439024390244 22.205284552845526,32.97764227642276 22.154471544715445,33.18089430894309 22.154471544715445,33.38414634146341 22.103658536585364,33.58739837398374 22.103658536585364,33.790650406504064 22.103658536585364,33.99390243902439 22.103658536585364,34.146341463414636 22.103658536585364,34.298780487804876 22.103658536585364,34.40040650406504 22.154471544715445,34.451219512195124 22.256097560975608,34.451219512195124 22.30691056910569,34.451219512195124 22.40853658536585,34.40040650406504 22.560975609756095,34.2479674796748 22.71341463414634,34.04471544715447 22.916666666666668,33.790650406504064 23.06910569105691,33.53658536585366 23.272357723577237,33.28252032520325 23.475609756097562,33.02845528455285" fill="none" stroke="black" stroke-width="0.6"></polyline><polyline points="23.475609756097562,33.02845528455285 23.678861788617887,32.77439024390244 23.83130081300813,32.52032520325203 23.983739837398375,32.3170731707317 24.13617886178862,32.16463414634146 24.288617886178862,32.012195121951216 24.390243902439025,31.859756097560975 24.491869918699187,31.758130081300813 24.59349593495935,31.70731707317073 24.64430894308943,31.70731707317073 24.745934959349594,31.70731707317073 24.796747967479675,31.758130081300813 24.898373983739837,31.808943089430894 25,31.910569105691057 25.05081300813008,32.0630081300813 25.152439024390244,32.16463414634146 25.254065040650406,32.266260162601625 25.304878048780488,32.36788617886179 25.35569105691057,32.418699186991866 25.35569105691057,32.46951219512195 25.40650406504065,32.46951219512195 25.40650406504065,32.46951219512195 25.40650406504065,32.46951219512195 25.35569105691057,32.46951219512195 25.254065040650406,32.418699186991866 25.152439024390244,32.418699186991866 25.05081300813008,32.36788617886179 24.847560975609756,32.36788617886179 24.64430894308943,32.36788617886179 24.441056910569106,32.418699186991866 24.1869918699187,32.52032520325203 23.983739837398375,32.72357723577236 23.729674796747968,32.97764227642276 23.526422764227643,33.28252032520325 23.3739837398374,33.58739837398374 23.221544715447155,33.99390243902439 23.221544715447155,34.2479674796748 23.221544715447155,34.5020325203252 23.221544715447155,34.65447154471545 23.323170731707318,34.75609756097561 23.42479674796748,34.80691056910569 23.577235772357724,34.80691056910569 23.729674796747968,34.75609756097561 23.932926829268293,34.65447154471545 24.13617886178862,34.451219512195124 24.339430894308943,34.197154471544714 24.54268292682927,33.84146341463415 24.745934959349594,33.485772357723576 24.94918699186992,33.18089430894309 25.101626016260163,32.926829268292686 25.254065040650406,32.6219512195122" fill="none" stroke="black" stroke-width="0.6"></polyline><polyline points="25.254065040650406,32.6219512195122 25.35569105691057,32.418699186991866 25.35569105691057,32.3170731707317 25.40650406504065,32.266260162601625 25.40650406504065,32.266260162601625 25.40650406504065,32.266260162601625 25.40650406504065,32.36788617886179 25.40650406504065,32.57113821138211 25.35569105691057,32.82520325203252 25.35569105691057,33.18089430894309 25.304878048780488,33.53658536585366 25.304878048780488,33.94308943089431 25.304878048780488,34.34959349593496 25.304878048780488,34.80691056910569 25.304878048780488,35.21341463414634 25.304878048780488,35.61991869918699 25.203252032520325,35.8739837398374 25.152439024390244,36.1280487804878 25.05081300813008,36.28048780487805 24.94918699186992,36.38211382113821 24.847560975609756,36.38211382113821 24.745934959349594,36.38211382113821 24.695121951219512,36.33130081300813 24.64430894308943,36.229674796747965 24.59349593495935,36.02642276422764 24.59349593495935,35.823170731707314 24.59349593495935,35.56910569105691 24.64430894308943,35.21341463414634 24.745934959349594,34.80691056910569 24.847560975609756,34.40040650406504 25.05081300813008,33.84146341463415 25.254065040650406,33.333333333333336 25.508130081300813,32.82520325203252 25.76219512195122,32.266260162601625 26.016260162601625,31.808943089430894 26.270325203252032,31.351626016260163 26.473577235772357,30.945121951219512 26.6260162601626,30.640243902439025 26.778455284552845,30.38617886178862 26.93089430894309,30.132113821138212 26.98170731707317,29.979674796747968 27.083333333333332,29.827235772357724 27.134146341463413,29.725609756097562 27.184959349593495,29.67479674796748 27.184959349593495,29.67479674796748 27.184959349593495,29.67479674796748 27.184959349593495,29.725609756097562 27.184959349593495,29.776422764227643 27.134146341463413,29.928861788617887 27.083333333333332,30.08130081300813 27.03252032520325,30.335365853658537" fill="none" stroke="black" stroke-width="0.6"></polyline><polyline points="27.03252032520325,30.335365853658537 27.03252032520325,30.589430894308943 26.98170731707317,30.89430894308943 26.93089430894309,31.25 26.880081300813007,31.60569105691057 26.829268292682926,32.012195121951216 26.778455284552845,32.418699186991866 26.676829268292682,32.82520325203252 26.6260162601626,33.23170731707317 26.524390243902438,33.58739837398374 26.422764227642276,33.892276422764226 26.321138211382113,34.197154471544714 26.270325203252032,34.5020325203252 26.21951219512195,34.65447154471545 26.21951219512195,34.80691056910569 26.21951219512195,34.857723577235774 26.21951219512195,34.857723577235774 26.21951219512195,34.80691056910569 26.21951219512195,34.65447154471545 26.321138211382113,34.40040650406504 26.422764227642276,34.146341463414636 26.57520325203252,33.84146341463415 26.676829268292682,33.53658536585366 26.829268292682926,33.333333333333336 27.03252032520325,33.079268292682926 27.184959349593495,32.926829268292686 27.38821138211382,32.77439024390244 27.540650406504064,32.672764227642276 27.693089430894307,32.672764227642276 27.79471544715447,32.672764227642276 27.84552845528455,32.72357723577236 27.896341463414632,32.8760162601626 27.947154471544714,33.02845528455285 27.947154471544714,33.28252032520325 27.947154471544714,33.485772357723576 27.997967479674795,33.739837398373986 27.997967479674795,33.99390243902439 27.997967479674795,34.197154471544714 28.048780487804876,34.34959349593496 28.099593495934958,34.552845528455286 28.15040650406504,34.603658536585364 28.2520325203252,34.65447154471545 28.353658536585364,34.65447154471545 28.455284552845526,34.65447154471545 28.60772357723577,34.5020325203252 28.810975609756095,34.2479674796748 28.96341463414634,33.99390243902439 29.217479674796746,33.63821138211382 29.471544715447155,33.28252032520325 29.67479674796748,32.8760162601626 29.928861788617887,32.418699186991866" fill="none" stroke="black" stroke-width="0.6"></polyline><polyline points="29.928861788617887,32.418699186991866 30.182926829268293,31.961382113821138 30.38617886178862,31.554878048780488 30.538617886178862,31.097560975609756 30.691056910569106,30.691056910569106 30.741869918699187,30.335365853658537 30.79268292682927,29.979674796747968 30.84349593495935,29.776422764227643 30.84349593495935,29.6239837398374 30.84349593495935,29.573170731707318 30.84349593495935,29.573170731707318 30.84349593495935,29.573170731707318 30.84349593495935,29.573170731707318 30.84349593495935,29.67479674796748 30.79268292682927,29.878048780487806 30.741869918699187,30.132113821138212 30.691056910569106,30.4369918699187 30.589430894308943,30.741869918699187 30.538617886178862,31.148373983739837 30.4369918699187,31.504065040650406 30.335365853658537,31.910569105691057 30.233739837398375,32.418699186991866 30.132113821138212,32.926829268292686 30.03048780487805,33.38414634146341 29.928861788617887,33.790650406504064 29.878048780487806,34.09552845528455 29.878048780487806,34.34959349593496 29.878048780487806,34.552845528455286 29.878048780487806,34.603658536585364 29.979674796747968,34.65447154471545 30.08130081300813,34.65447154471545 30.233739837398375,34.5020325203252 30.4369918699187,34.298780487804876 30.640243902439025,34.04471544715447 30.84349593495935,33.739837398373986 31.046747967479675,33.4349593495935 31.25,33.079268292682926 31.453252032520325,32.77439024390244 31.65650406504065,32.46951219512195 31.910569105691057,32.11382113821138 32.0630081300813,31.758130081300813 32.21544715447154,31.504065040650406 32.36788617886179,31.25 32.418699186991866,31.148373983739837 32.46951219512195,31.097560975609756 32.46951219512195,31.097560975609756 32.46951219512195,31.097560975609756 32.46951219512195,31.097560975609756 32.46951219512195,31.19918699186992 32.418699186991866,31.30081300813008 32.3170731707317,31.453252032520325" fill="none" stroke="black" stroke-width="0.6"></polyline><polyline points="32.3170731707317,31.453252032520325 32.266260162601625,31.60569105691057 32.16463414634146,31.758130081300813 32.0630081300813,31.910569105691057 32.012195121951216,32.11382113821138 31.910569105691057,32.3170731707317 31.859756097560975,32.52032520325203 31.808943089430894,32.72357723577236 31.758130081300813,32.926829268292686 31.70731707317073,33.13008130081301 31.70731707317073,33.38414634146341 31.70731707317073,33.53658536585366 31.70731707317073,33.739837398373986 31.808943089430894,33.892276422764226 31.910569105691057,33.99390243902439 32.012195121951216,34.04471544715447 32.11382113821138,34.146341463414636 32.21544715447154,34.146341463414636 32.36788617886179,34.146341463414636 32.46951219512195,34.146341463414636 32.57113821138211,34.09552845528455 32.672764227642276,33.99390243902439 32.82520325203252,33.892276422764226 32.8760162601626,33.790650406504064 32.97764227642276,33.6890243902439 33.079268292682926,33.53658536585366 33.18089430894309,33.4349593495935 33.23170731707317,33.333333333333336 33.333333333333336,33.18089430894309 33.38414634146341,33.079268292682926 33.4349593495935,32.97764227642276 33.485772357723576,32.8760162601626 33.53658536585366,32.77439024390244 33.58739837398374,32.672764227642276 33.58739837398374,32.57113821138211 33.58739837398374,32.46951219512195 33.58739837398374,32.3170731707317 33.58739837398374,32.266260162601625 33.58739837398374,32.16463414634146 33.58739837398374,32.11382113821138 33.53658536585366,32.11382113821138 33.53658536585366,32.11382113821138 33.53658536585366,32.11382113821138 33.485772357723576,32.11382113821138 33.485772357723576,32.11382113821138 33.485772357723576,32.21544715447154 33.485772357723576,32.266260162601625 33.4349593495935,32.3170731707317 33.4349593495935,32.418699186991866 33.38414634146341,32.57113821138211 33.38414634146341,32.72357723577236" fill="none" stroke="black" stroke-width="0.6"></polyline><polyline points="33.38414634146341,32.72357723577236 33.38414634146341,32.8760162601626 33.333333333333336,33.02845528455285 33.333333333333336,33.23170731707317 33.333333333333336,33.4349593495935 33.333333333333336,33.63821138211382 33.333333333333336,33.84146341463415 33.38414634146341,33.99390243902439 33.4349593495935,34.146341463414636 33.485772357723576,34.2479674796748 33.63821138211382,34.2479674796748 33.739837398373986,34.2479674796748 33.892276422764226,34.197154471544714 34.09552845528455,33.99390243902439 34.2479674796748,33.739837398373986 34.451219512195124,33.485772357723576 34.603658536585364,33.23170731707317 34.75609756097561,33.079268292682926 34.90853658536585,32.97764227642276 35.010162601626014,32.97764227642276 35.11178861788618,32.97764227642276 35.264227642276424,33.13008130081301 35.36585365853659,33.38414634146341 35.46747967479675,33.739837398373986 35.51829268292683,34.197154471544714 35.56910569105691,34.75609756097561 35.56910569105691,35.3150406504065 35.46747967479675,35.8739837398374 35.36585365853659,36.38211382113821 35.264227642276424,36.78861788617886 35.11178861788618,37.09349593495935 34.959349593495936,37.296747967479675 34.857723577235774,37.34756097560975 34.75609756097561,37.34756097560975 34.70528455284553,37.24593495934959 34.603658536585364,36.99186991869919 34.603658536585364,36.636178861788615 34.603658536585364,36.17886178861789 34.75609756097561,35.670731707317074 35.010162601626014,35.16260162601626 35.264227642276424,34.552845528455286 35.61991869918699,33.99390243902439 36.1280487804878,33.38414634146341 36.636178861788615,32.8760162601626 37.09349593495935,32.46951219512195 37.39837398373984,32.16463414634146 37.60162601626016,31.910569105691057 37.703252032520325,31.758130081300813" fill="none" stroke="black" stroke-width="0.6"></polyline><polyline points="30.335365853658537,30.48780487804878 30.335365853658537,30.4369918699187 30.284552845528456,30.4369918699187 30.335365853658537,30.38617886178862 30.48780487804878,30.38617886178862 30.79268292682927,30.284552845528456 31.19918699186992,30.233739837398375 31.758130081300813,30.03048780487805 32.36788617886179,29.827235772357724 32.57113821138211,29.725609756097562" fill="none" stroke="black" stroke-width="0.6"></polyline><polyline points="23.577235772357724,29.166666666666664 23.323170731707318,29.115853658536583 23.221544715447155,29.0650406504065 23.221544715447155,29.0650406504065 23.323170731707318,29.115853658536583 23.526422764227643,29.217479674796746" fill="none" stroke="black" stroke-width="0.6"></polyline><polyline points="45.12195121951219,32.97764227642276 45.07113821138211,32.8760162601626 44.96951219512195,32.72357723577236 44.918699186991866,32.6219512195122 44.86788617886179,32.57113821138211 44.86788617886179,32.52032520325203 44.8170731707317,32.418699186991866 44.766260162601625,32.418699186991866 44.66463414634146,32.36788617886179 44.5630081300813,32.3170731707317 44.359756097560975,32.3170731707317 44.15650406504065,32.36788617886179 43.953252032520325,32.52032520325203 43.64837398373984,32.77439024390244 43.39430894308943,33.079268292682926 43.1910569105691,33.485772357723576 42.9369918699187,33.892276422764226 42.78455284552845,34.298780487804876 42.733739837398375,34.65447154471545 42.733739837398375,34.959349593495936 42.78455284552845,35.11178861788618 42.886178861788615,35.21341463414634 42.98780487804878,35.264227642276424 43.140243902439025,35.264227642276424 43.34349593495935,35.264227642276424 43.546747967479675,35.16260162601626 43.75,34.959349593495936 44.0040650406504,34.70528455284553 44.25813008130081,34.34959349593496 44.512195121951216,33.99390243902439 44.71544715447154,33.63821138211382 44.918699186991866,33.23170731707317 45.07113821138211,32.926829268292686 45.12195121951219,32.72357723577236 45.172764227642276,32.57113821138211 45.172764227642276,32.46951219512195 45.172764227642276,32.46951219512195 45.172764227642276,32.46951219512195 45.172764227642276,32.52032520325203 45.12195121951219,32.6219512195122 45.07113821138211,32.8760162601626 45.02032520325203,33.13008130081301 44.96951219512195,33.485772357723576 44.918699186991866,33.790650406504064 44.918699186991866,34.146341463414636 44.918699186991866,34.451219512195124 44.918699186991866,34.70528455284553 44.96951219512195,34.959349593495936 45.12195121951219,35.16260162601626 45.27439024390244,35.264227642276424 45.47764227642276,35.3150406504065" fill="none" stroke="black" stroke-width="0.6"></polyline><polyline points="45.47764227642276,35.3150406504065 45.68089430894309,35.3150406504065 45.9349593495935,35.16260162601626 46.1890243902439,34.959349593495936 46.49390243902439,34.65447154471545 46.84959349593496,34.298780487804876 47.15447154471545,33.94308943089431 47.40853658536585,33.63821138211382 47.71341463414634,33.23170731707317 47.96747967479675,32.926829268292686 48.170731707317074,32.52032520325203 48.42479674796748,32.11382113821138 48.6280487804878,31.70731707317073 48.78048780487805,31.30081300813008 48.93292682926829,30.89430894308943 49.03455284552845,30.48780487804878 49.08536585365854,30.132113821138212 49.136178861788615,29.827235772357724 49.136178861788615,29.573170731707318 49.136178861788615,29.31910569105691 49.08536585365854,29.166666666666664 49.03455284552845,29.0650406504065 48.93292682926829,28.96341463414634 48.78048780487805,28.912601626016258 48.67886178861789,28.861788617886177 48.52642276422764,28.861788617886177 48.42479674796748,28.861788617886177 48.27235772357724,28.96341463414634 48.06910569105691,29.115853658536583 47.916666666666664,29.369918699186993 47.764227642276424,29.67479674796748 47.61178861788618,30.08130081300813 47.459349593495936,30.538617886178862 47.357723577235774,30.945121951219512 47.25609756097561,31.453252032520325 47.20528455284553,31.961382113821138 47.15447154471545,32.52032520325203 47.15447154471545,33.079268292682926 47.15447154471545,33.485772357723576 47.15447154471545,33.84146341463415 47.20528455284553,34.197154471544714 47.30691056910569,34.451219512195124 47.40853658536585,34.70528455284553 47.510162601626014,34.90853658536585 47.66260162601626,35.0609756097561 47.8150406504065,35.16260162601626 47.96747967479675,35.264227642276424 48.11991869918699,35.3150406504065 48.27235772357724,35.3150406504065 48.47560975609756,35.3150406504065 48.67886178861789,35.3150406504065" fill="none" stroke="black" stroke-width="0.6"></polyline><polyline points="48.67886178861789,35.3150406504065 48.88211382113821,35.264227642276424 49.136178861788615,35.11178861788618 49.390243902439025,34.90853658536585 49.59349593495935,34.65447154471545 49.796747967479675,34.40040650406504 50,34.146341463414636 50.10162601626016,33.892276422764226 50.2540650406504,33.63821138211382 50.355691056910565,33.333333333333336 50.40650406504065,33.13008130081301 50.40650406504065,32.8760162601626 50.40650406504065,32.672764227642276 50.355691056910565,32.52032520325203 50.2540650406504,32.36788617886179 50.10162601626016,32.266260162601625 49.949186991869915,32.21544715447154 49.796747967479675,32.21544715447154 49.64430894308943,32.21544715447154 49.49186991869919,32.21544715447154 49.390243902439025,32.21544715447154 49.33943089430894,32.266260162601625 49.33943089430894,32.3170731707317 49.33943089430894,32.36788617886179 49.33943089430894,32.36788617886179 49.390243902439025,32.418699186991866 49.542682926829265,32.418699186991866 49.69512195121951,32.418699186991866 49.89837398373984,32.418699186991866 50.15243902439024,32.418699186991866 50.40650406504065,32.36788617886179 50.71138211382114,32.266260162601625 51.0670731707317,32.16463414634146 51.37195121951219,32.0630081300813 51.67682926829268,32.012195121951216 51.981707317073166,31.910569105691057 52.235772357723576,31.859756097560975 52.4390243902439,31.808943089430894 52.642276422764226,31.758130081300813 52.74390243902439,31.70731707317073 52.896341463414636,31.65650406504065 52.947154471544714,31.65650406504065 53.048780487804876,31.65650406504065 53.09959349593496,31.65650406504065 53.09959349593496,31.60569105691057 53.15040650406504,31.60569105691057 53.201219512195124,31.60569105691057 53.201219512195124,31.60569105691057 53.201219512195124,31.60569105691057 53.201219512195124,31.60569105691057 53.2520325203252,31.60569105691057" fill="none" stroke="black" stroke-width="0.6"></polyline><polyline points="53.2520325203252,31.60569105691057 53.2520325203252,31.60569105691057 53.2520325203252,31.60569105691057 53.2520325203252,31.60569105691057 53.2520325203252,31.60569105691057 53.2520325203252,31.60569105691057 53.2520325203252,31.60569105691057 53.2520325203252,31.60569105691057 53.2520325203252,31.60569105691057 53.2520325203252,31.60569105691057 53.2520325203252,31.60569105691057 53.201219512195124,31.65650406504065 53.15040650406504,31.70731707317073 53.09959349593496,31.758130081300813 53.048780487804876,31.859756097560975 52.947154471544714,31.961382113821138 52.84552845528455,32.16463414634146 52.69308943089431,32.36788617886179 52.540650406504064,32.6219512195122 52.33739837398374,32.926829268292686 52.13414634146341,33.28252032520325 51.981707317073166,33.63821138211382 51.829268292682926,33.94308943089431 51.67682926829268,34.2479674796748 51.6260162601626,34.5020325203252 51.575203252032516,34.75609756097561 51.575203252032516,34.90853658536585 51.6260162601626,35.0609756097561 51.67682926829268,35.16260162601626 51.829268292682926,35.264227642276424 51.93089430894309,35.3150406504065 52.083333333333336,35.3150406504065 52.28658536585366,35.36585365853659 52.4390243902439,35.36585365853659 52.59146341463415,35.3150406504065 52.79471544715447,35.21341463414634 52.947154471544714,35.010162601626014 53.15040650406504,34.80691056910569 53.353658536585364,34.552845528455286 53.50609756097561,34.2479674796748 53.65853658536585,33.94308943089431 53.8109756097561,33.63821138211382 53.91260162601626,33.333333333333336 53.96341463414634,33.079268292682926 53.96341463414634,32.82520325203252 53.96341463414634,32.57113821138211 53.86178861788618,32.36788617886179 53.709349593495936,32.16463414634146 53.55691056910569,32.0630081300813 53.40447154471545,31.961382113821138 53.2520325203252,31.859756097560975" fill="none" stroke="black" stroke-width="0.6"></polyline><polyline points="53.2520325203252,31.859756097560975 53.15040650406504,31.859756097560975 53.048780487804876,31.859756097560975 52.9979674796748,31.859756097560975 52.947154471544714,31.859756097560975 52.947154471544714,31.859756097560975 52.947154471544714,31.910569105691057 52.947154471544714,31.910569105691057 52.947154471544714,31.910569105691057 52.9979674796748,31.961382113821138 53.09959349593496,32.012195121951216 53.201219512195124,32.0630081300813 53.353658536585364,32.0630081300813 53.55691056910569,32.11382113821138 53.8109756097561,32.16463414634146 54.014227642276424,32.16463414634146 54.31910569105691,32.16463414634146 54.6239837398374,32.0630081300813 54.8780487804878,31.961382113821138 55.13211382113821,31.859756097560975 55.33536585365854,31.70731707317073 55.53861788617886,31.60569105691057 55.640243902439025,31.554878048780488 55.74186991869919,31.504065040650406 55.792682926829265,31.504065040650406 55.792682926829265,31.554878048780488 55.792682926829265,31.65650406504065 55.74186991869919,31.808943089430894 55.6910569105691,32.012195121951216 55.58943089430894,32.266260162601625 55.53861788617886,32.52032520325203 55.4369918699187,32.82520325203252 55.386178861788615,33.13008130081301 55.33536585365854,33.4349593495935 55.33536585365854,33.739837398373986 55.33536585365854,34.04471544715447 55.33536585365854,34.2479674796748 55.4369918699187,34.5020325203252 55.53861788617886,34.75609756097561 55.640243902439025,34.959349593495936 55.74186991869919,35.11178861788618 55.89430894308943,35.3150406504065 55.94512195121951,35.36585365853659 56.046747967479675,35.416666666666664 56.09756097560975,35.416666666666664 56.14837398373984,35.416666666666664 56.199186991869915,35.36585365853659 56.25,35.21341463414634 56.30081300813008,35.010162601626014 56.35162601626016,34.75609756097561 56.453252032520325,34.451219512195124" fill="none" stroke="black" stroke-width="0.6"></polyline><polyline points="56.453252032520325,34.451219512195124 56.5040650406504,34.197154471544714 56.65650406504065,33.892276422764226 56.75813008130081,33.58739837398374 56.91056910569105,33.333333333333336 57.012195121951216,33.079268292682926 57.16463414634146,32.82520325203252 57.266260162601625,32.672764227642276 57.36788617886179,32.52032520325203 57.418699186991866,32.418699186991866 57.46951219512195,32.36788617886179 57.52032520325203,32.36788617886179 57.57113821138211,32.36788617886179 57.57113821138211,32.36788617886179 57.62195121951219,32.36788617886179 57.672764227642276,32.418699186991866 57.72357723577235,32.46951219512195 57.825203252032516,32.57113821138211 57.92682926829268,32.672764227642276 58.02845528455284,32.77439024390244 58.18089430894309,32.8760162601626 58.38414634146341,32.97764227642276 58.58739837398374,33.02845528455285 58.790650406504064,33.079268292682926 59.04471544715447,33.13008130081301 59.298780487804876,33.13008130081301 59.603658536585364,33.02845528455285 59.80691056910569,32.8760162601626 60.0609756097561,32.672764227642276 60.264227642276424,32.418699186991866 60.36585365853659,32.21544715447154 60.416666666666664,32.012195121951216 60.416666666666664,31.808943089430894 60.416666666666664,31.70731707317073 60.264227642276424,31.65650406504065 60.0609756097561,31.65650406504065 59.857723577235774,31.758130081300813 59.552845528455286,32.012195121951216 59.2479674796748,32.36788617886179 58.99390243902439,32.72357723577236 58.739837398373986,33.079268292682926 58.536585365853654,33.53658536585366 58.43495934959349,33.99390243902439 58.43495934959349,34.40040650406504 58.536585365853654,34.70528455284553 58.739837398373986,34.857723577235774 58.99390243902439,34.959349593495936 59.40040650406504,35.010162601626014 59.75609756097561,35.010162601626014 60.264227642276424,34.959349593495936 60.823170731707314,34.857723577235774" fill="none" stroke="black" stroke-width="0.6"></polyline><polyline points="60.823170731707314,34.857723577235774 61.33130081300813,34.65447154471545 61.636178861788615,34.552845528455286" fill="none" stroke="black" stroke-width="0.6"></polyline><polyline points="66.71747967479675,32.11382113821138 66.66666666666667,32.16463414634146 66.61585365853658,32.266260162601625 66.51422764227642,32.418699186991866 66.46341463414635,32.672764227642276 66.41260162601625,33.02845528455285 66.36178861788618,33.38414634146341 66.36178861788618,33.790650406504064 66.3109756097561,34.197154471544714 66.3109756097561,34.552845528455286 66.3109756097561,34.80691056910569 66.3109756097561,35.010162601626014 66.41260162601625,35.16260162601626 66.46341463414635,35.21341463414634 66.61585365853658,35.264227642276424 66.71747967479675,35.264227642276424 66.92073170731707,35.264227642276424 67.1239837398374,35.11178861788618 67.32723577235772,34.857723577235774 67.53048780487805,34.552845528455286 67.78455284552845,34.146341463414636 67.98780487804878,33.739837398373986 68.1910569105691,33.38414634146341 68.4451219512195,32.97764227642276 68.64837398373983,32.672764227642276 68.80081300813008,32.418699186991866 68.95325203252033,32.21544715447154 69.0040650406504,32.0630081300813 69.05487804878048,32.012195121951216 69.05487804878048,32.012195121951216 69.05487804878048,32.012195121951216 69.0040650406504,32.11382113821138 68.95325203252033,32.3170731707317 68.90243902439025,32.57113821138211 68.85162601626016,32.926829268292686 68.75,33.28252032520325 68.69918699186992,33.63821138211382 68.69918699186992,33.99390243902439 68.69918699186992,34.2479674796748 68.69918699186992,34.552845528455286 68.75,34.80691056910569 68.85162601626016,34.959349593495936 68.95325203252033,35.11178861788618 69.05487804878048,35.21341463414634 69.20731707317073,35.264227642276424 69.35975609756098,35.3150406504065 69.51219512195122,35.3150406504065 69.66463414634146,35.16260162601626 69.8170731707317,34.959349593495936 70.02032520325203,34.70528455284553 70.17276422764228,34.5020325203252" fill="none" stroke="black" stroke-width="0.6"></polyline><polyline points="70.17276422764228,34.5020325203252 70.32520325203252,34.2479674796748 70.47764227642276,33.99390243902439 70.630081300813,33.790650406504064 70.78252032520325,33.53658536585366 70.8841463414634,33.23170731707317 70.98577235772358,33.02845528455285 71.08739837398373,32.77439024390244 71.13821138211382,32.52032520325203 71.1890243902439,32.3170731707317 71.1890243902439,32.16463414634146 71.23983739837398,32.0630081300813 71.23983739837398,32.012195121951216 71.23983739837398,32.012195121951216 71.23983739837398,31.961382113821138 71.23983739837398,31.961382113821138 71.23983739837398,31.961382113821138 71.1890243902439,31.961382113821138 71.1890243902439,31.961382113821138 71.1890243902439,31.961382113821138 71.1890243902439,31.961382113821138 71.1890243902439,31.961382113821138 71.1890243902439,31.961382113821138 71.1890243902439,31.961382113821138 71.1890243902439,31.961382113821138 71.1890243902439,31.961382113821138 71.1890243902439,31.961382113821138 71.1890243902439,31.961382113821138 71.1890243902439,31.961382113821138 71.1890243902439,31.961382113821138 71.1890243902439,32.012195121951216 71.1890243902439,32.012195121951216 71.1890243902439,32.012195121951216 71.1890243902439,32.012195121951216 71.1890243902439,32.0630081300813 71.23983739837398,32.11382113821138 71.23983739837398,32.11382113821138 71.29065040650406,32.16463414634146 71.34146341463415,32.21544715447154 71.39227642276423,32.266260162601625 71.4430894308943,32.3170731707317 71.54471544715447,32.3170731707317 71.64634146341463,32.36788617886179 71.79878048780488,32.36788617886179 71.95121951219512,32.36788617886179 72.10365853658537,32.36788617886179 72.2560975609756,32.36788617886179 72.45934959349593,32.3170731707317 72.61178861788618,32.21544715447154 72.8150406504065,32.16463414634146 72.96747967479675,32.0630081300813" fill="none" stroke="black" stroke-width="0.6"></polyline><polyline points="72.96747967479675,32.0630081300813 73.119918699187,32.012195121951216 73.27235772357723,31.910569105691057 73.3739837398374,31.808943089430894 73.47560975609755,31.70731707317073 73.57723577235772,31.65650406504065 73.6280487804878,31.554878048780488 73.67886178861788,31.504065040650406 73.72967479674797,31.453252032520325 73.72967479674797,31.402439024390244 73.72967479674797,31.402439024390244 73.72967479674797,31.402439024390244 73.72967479674797,31.402439024390244 73.72967479674797,31.402439024390244 73.72967479674797,31.402439024390244 73.67886178861788,31.402439024390244 73.67886178861788,31.402439024390244 73.67886178861788,31.402439024390244 73.67886178861788,31.402439024390244 73.67886178861788,31.402439024390244 73.67886178861788,31.402439024390244 73.67886178861788,31.402439024390244 73.67886178861788,31.402439024390244 73.67886178861788,31.402439024390244 73.67886178861788,31.402439024390244 73.67886178861788,31.402439024390244 73.67886178861788,31.402439024390244 73.67886178861788,31.402439024390244 73.67886178861788,31.402439024390244 73.67886178861788,31.402439024390244 73.67886178861788,31.402439024390244 73.67886178861788,31.402439024390244 73.67886178861788,31.402439024390244 73.67886178861788,31.402439024390244 73.67886178861788,31.453252032520325 73.67886178861788,31.453252032520325 73.6280487804878,31.504065040650406 73.6280487804878,31.554878048780488 73.6280487804878,31.60569105691057 73.57723577235772,31.70731707317073 73.57723577235772,31.859756097560975 73.52642276422765,32.012195121951216 73.47560975609755,32.16463414634146 73.42479674796748,32.3170731707317 73.32317073170732,32.52032520325203 73.27235772357723,32.72357723577236 73.17073170731707,32.926829268292686 73.119918699187,33.13008130081301 73.0691056910569,33.28252032520325 73.01829268292683,33.4349593495935 72.96747967479675,33.58739837398374" fill="none" stroke="black" stroke-width="0.6"></polyline><polyline points="72.96747967479675,33.58739837398374 72.96747967479675,33.739837398373986 72.96747967479675,33.84146341463415 72.96747967479675,33.94308943089431 72.96747967479675,33.99390243902439 73.01829268292683,34.04471544715447 73.0691056910569,34.146341463414636 73.119918699187,34.146341463414636 73.17073170731707,34.197154471544714 73.27235772357723,34.197154471544714 73.32317073170732,34.197154471544714 73.42479674796748,34.197154471544714 73.52642276422765,34.09552845528455 73.6280487804878,33.99390243902439 73.78048780487805,33.84146341463415 73.9329268292683,33.6890243902439 74.08536585365853,33.53658536585366 74.1869918699187,33.4349593495935 74.33943089430895,33.28252032520325 74.4410569105691,33.13008130081301 74.59349593495935,32.97764227642276 74.6951219512195,32.8760162601626 74.79674796747967,32.72357723577236 74.84756097560975,32.6219512195122 74.89837398373983,32.57113821138211 74.94918699186992,32.46951219512195 74.94918699186992,32.418699186991866 75,32.36788617886179 75,32.36788617886179 75,32.3170731707317 75,32.3170731707317 75,32.3170731707317 75,32.3170731707317 75.05081300813008,32.266260162601625 75.05081300813008,32.266260162601625 75.10162601626016,32.21544715447154 75.15243902439025,32.16463414634146 75.20325203252033,32.11382113821138 75.2540650406504,32.0630081300813 75.30487804878048,32.012195121951216 75.35569105691057,31.961382113821138 75.45731707317073,31.910569105691057 75.5081300813008,31.859756097560975 75.60975609756098,31.859756097560975 75.66056910569105,31.808943089430894 75.71138211382113,31.758130081300813 75.8130081300813,31.70731707317073 75.91463414634146,31.70731707317073 75.96544715447155,31.65650406504065 76.0670731707317,31.65650406504065 76.16869918699187,31.65650406504065" fill="none" stroke="black" stroke-width="0.6"></polyline><polyline points="76.16869918699187,31.65650406504065 76.21951219512195,31.65650406504065 76.3211382113821,31.70731707317073 76.3719512195122,31.808943089430894 76.42276422764228,31.910569105691057 76.47357723577235,32.0630081300813 76.47357723577235,32.21544715447154 76.52439024390243,32.418699186991866 76.47357723577235,32.672764227642276 76.3719512195122,32.97764227642276 76.21951219512195,33.28252032520325 76.0670731707317,33.58739837398374 75.86382113821138,33.892276422764226 75.66056910569105,34.197154471544714 75.45731707317073,34.5020325203252 75.2540650406504,34.80691056910569 75.10162601626016,35.11178861788618 74.89837398373983,35.36585365853659 74.6951219512195,35.670731707317074 74.54268292682927,35.97560975609756 74.33943089430895,36.229674796747965 74.1869918699187,36.483739837398375 74.08536585365853,36.73780487804878 73.98373983739837,36.9410569105691 73.8821138211382,37.14430894308943 73.78048780487805,37.296747967479675 73.67886178861788,37.39837398373984 73.6280487804878,37.5 73.57723577235772,37.55081300813008 73.57723577235772,37.55081300813008 73.52642276422765,37.55081300813008 73.52642276422765,37.55081300813008 73.47560975609755,37.449186991869915 73.47560975609755,37.34756097560975 73.47560975609755,37.14430894308943 73.47560975609755,36.9410569105691 73.52642276422765,36.73780487804878 73.6280487804878,36.483739837398375 73.72967479674797,36.229674796747965 73.8821138211382,35.92479674796748 74.08536585365853,35.670731707317074 74.33943089430895,35.36585365853659 74.59349593495935,35.0609756097561 74.89837398373983,34.80691056910569 75.20325203252033,34.603658536585364 75.45731707317073,34.5020325203252 75.66056910569105,34.451219512195124 75.86382113821138,34.40040650406504 75.96544715447155,34.34959349593496 76.0670731707317,34.34959349593496 76.16869918699187,34.34959349593496" fill="none" stroke="black" stroke-width="0.6"></polyline><polyline points="76.16869918699187,34.34959349593496 76.21951219512195,34.34959349593496 76.27032520325203,34.34959349593496 76.3211382113821,34.34959349593496 76.3719512195122,34.34959349593496 76.42276422764228,34.34959349593496 76.47357723577235,34.34959349593496 76.47357723577235,34.34959349593496 76.52439024390243,34.34959349593496 76.57520325203252,34.34959349593496 76.6260162601626,34.34959349593496 76.6260162601626,34.298780487804876 76.67682926829268,34.298780487804876 76.72764227642276,34.2479674796748 76.72764227642276,34.2479674796748 76.72764227642276,34.2479674796748 76.77845528455285,34.197154471544714 76.77845528455285,34.197154471544714 76.77845528455285,34.197154471544714 76.77845528455285,34.197154471544714 76.82926829268293,34.197154471544714 76.82926829268293,34.197154471544714 76.82926829268293,34.146341463414636 76.82926829268293,34.146341463414636 76.880081300813,34.146341463414636 76.880081300813,34.146341463414636 76.880081300813,34.146341463414636 76.880081300813,34.146341463414636 76.880081300813,34.146341463414636 76.880081300813,34.146341463414636 76.880081300813,34.146341463414636 76.880081300813,34.146341463414636 76.93089430894308,34.146341463414636 76.93089430894308,34.09552845528455 76.93089430894308,34.09552845528455 76.93089430894308,34.09552845528455 76.93089430894308,34.09552845528455 76.93089430894308,34.09552845528455 76.93089430894308,34.09552845528455 76.93089430894308,34.09552845528455 76.93089430894308,34.09552845528455 76.93089430894308,34.09552845528455 76.93089430894308,34.09552845528455 76.93089430894308,34.09552845528455 76.93089430894308,34.09552845528455 76.93089430894308,34.09552845528455 76.93089430894308,34.09552845528455 76.93089430894308,34.09552845528455 76.93089430894308,34.09552845528455 76.93089430894308,34.09552845528455 76.93089430894308,34.09552845528455" fill="none" stroke="black" stroke-width="0.6"></polyline><polyline points="76.93089430894308,34.09552845528455 76.93089430894308,34.09552845528455 76.93089430894308,34.09552845528455 76.93089430894308,34.09552845528455 76.93089430894308,34.09552845528455 76.93089430894308,34.09552845528455 76.93089430894308,34.09552845528455 76.93089430894308,34.09552845528455 76.93089430894308,34.09552845528455 76.93089430894308,34.09552845528455 76.93089430894308,34.09552845528455 76.93089430894308,34.09552845528455 76.93089430894308,34.09552845528455 76.93089430894308,34.09552845528455 76.93089430894308,34.09552845528455 76.93089430894308,34.09552845528455 76.98170731707317,34.09552845528455 76.98170731707317,34.09552845528455 76.98170731707317,34.09552845528455 76.98170731707317,34.09552845528455 76.98170731707317,34.09552845528455 76.98170731707317,34.09552845528455 76.98170731707317,34.09552845528455 76.98170731707317,34.09552845528455 76.98170731707317,34.09552845528455 76.98170731707317,34.09552845528455 76.98170731707317,34.09552845528455 76.98170731707317,34.09552845528455 76.98170731707317,34.09552845528455 76.98170731707317,34.09552845528455 76.98170731707317,34.09552845528455 77.03252032520325,34.09552845528455 77.03252032520325,34.09552845528455 77.03252032520325,34.09552845528455 77.03252032520325,34.09552845528455 77.03252032520325,34.09552845528455 77.08333333333333,34.04471544715447 77.08333333333333,34.04471544715447 77.1341463414634,34.04471544715447 77.1341463414634,33.99390243902439 77.1341463414634,33.99390243902439 77.1849593495935,33.94308943089431 77.23577235772358,33.94308943089431 77.23577235772358,33.892276422764226 77.28658536585365,33.84146341463415 77.38821138211382,33.790650406504064 77.4390243902439,33.6890243902439 77.48983739837398,33.63821138211382 77.59146341463415,33.53658536585366 77.6930894308943,33.4349593495935 77.79471544715447,33.333333333333336" fill="none" stroke="black" stroke-width="0.6"></polyline><polyline points="77.79471544715447,33.333333333333336 77.89634146341463,33.18089430894309 77.9979674796748,33.02845528455285 78.09959349593495,32.8760162601626 78.20121951219512,32.72357723577236 78.30284552845528,32.57113821138211 78.40447154471545,32.418699186991866 78.45528455284553,32.266260162601625 78.5060975609756,32.11382113821138 78.5569105691057,32.012195121951216 78.60772357723577,31.910569105691057 78.60772357723577,31.859756097560975 78.60772357723577,31.808943089430894 78.60772357723577,31.758130081300813 78.60772357723577,31.758130081300813 78.60772357723577,31.70731707317073 78.60772357723577,31.65650406504065 78.60772357723577,31.65650406504065 78.60772357723577,31.65650406504065 78.60772357723577,31.65650406504065 78.60772357723577,31.65650406504065 78.60772357723577,31.65650406504065 78.60772357723577,31.65650406504065 78.5569105691057,31.70731707317073 78.5569105691057,31.70731707317073 78.5569105691057,31.758130081300813 78.5569105691057,31.808943089430894 78.5569105691057,31.808943089430894 78.5569105691057,31.859756097560975 78.5569105691057,31.859756097560975 78.5569105691057,31.910569105691057 78.5569105691057,31.910569105691057 78.5569105691057,31.910569105691057 78.5569105691057,31.910569105691057 78.5569105691057,31.961382113821138 78.5569105691057,31.961382113821138 78.5569105691057,31.961382113821138 78.60772357723577,31.961382113821138 78.60772357723577,31.961382113821138 78.60772357723577,31.961382113821138 78.65853658536585,31.961382113821138 78.70934959349593,31.910569105691057 78.8109756097561,31.859756097560975 78.86178861788618,31.808943089430894 78.96341463414635,31.70731707317073 79.0650406504065,31.65650406504065 79.16666666666667,31.60569105691057 79.26829268292683,31.554878048780488 79.369918699187,31.504065040650406 79.42073170731707,31.453252032520325 79.42073170731707,31.453252032520325" fill="none" stroke="black" stroke-width="0.6"></polyline><polyline points="79.42073170731707,31.453252032520325 79.47154471544715,31.453252032520325 79.47154471544715,31.453252032520325 79.47154471544715,31.453252032520325 79.42073170731707,31.453252032520325 79.3191056910569,31.504065040650406 79.21747967479675,31.60569105691057 79.0650406504065,31.758130081300813 78.91260162601625,31.910569105691057 78.70934959349593,32.11382113821138 78.5060975609756,32.3170731707317 78.30284552845528,32.57113821138211 78.04878048780488,32.8760162601626 77.84552845528455,33.18089430894309 77.64227642276423,33.485772357723576 77.48983739837398,33.84146341463415 77.33739837398373,34.197154471544714 77.28658536585365,34.451219512195124 77.28658536585365,34.70528455284553 77.28658536585365,34.857723577235774 77.33739837398373,34.90853658536585 77.4390243902439,34.959349593495936 77.54065040650406,34.959349593495936 77.6930894308943,34.959349593495936 77.84552845528455,34.80691056910569 78.04878048780488,34.603658536585364 78.30284552845528,34.34959349593496 78.5060975609756,34.09552845528455 78.70934959349593,33.790650406504064 78.91260162601625,33.53658536585366 79.11585365853658,33.23170731707317 79.369918699187,32.97764227642276 79.52235772357723,32.72357723577236 79.6239837398374,32.52032520325203 79.77642276422765,32.3170731707317 79.82723577235772,32.21544715447154 79.8780487804878,32.11382113821138 79.8780487804878,32.012195121951216 79.92886178861788,31.961382113821138 79.92886178861788,31.961382113821138 79.92886178861788,31.961382113821138 79.92886178861788,31.961382113821138 79.92886178861788,31.961382113821138 79.92886178861788,31.961382113821138 79.92886178861788,31.961382113821138 79.92886178861788,32.0630081300813 79.8780487804878,32.16463414634146 79.82723577235772,32.36788617886179 79.77642276422765,32.57113821138211 79.72560975609755,32.77439024390244 79.67479674796748,33.02845528455285" fill="none" stroke="black" stroke-width="0.6"></polyline><polyline points="79.67479674796748,33.02845528455285 79.57317073170732,33.28252032520325 79.52235772357723,33.53658536585366 79.47154471544715,33.790650406504064 79.369918699187,34.09552845528455 79.369918699187,34.298780487804876 79.369918699187,34.5020325203252 79.369918699187,34.65447154471545 79.369918699187,34.70528455284553 79.47154471544715,34.75609756097561 79.57317073170732,34.75609756097561 79.72560975609755,34.70528455284553 79.8780487804878,34.552845528455286 80.08130081300813,34.34959349593496 80.23373983739837,34.146341463414636 80.4369918699187,33.94308943089431 80.64024390243902,33.63821138211382 80.84349593495935,33.38414634146341 80.9959349593496,33.13008130081301 81.19918699186992,32.8760162601626 81.30081300813008,32.672764227642276 81.40243902439025,32.418699186991866 81.5040650406504,32.21544715447154 81.5040650406504,32.0630081300813 81.5040650406504,32.012195121951216 81.45325203252033,31.910569105691057 81.40243902439025,31.910569105691057 81.35162601626016,31.910569105691057 81.30081300813008,31.910569105691057 81.25,31.910569105691057 81.25,31.910569105691057 81.25,31.910569105691057 81.25,31.910569105691057 81.25,31.910569105691057 81.25,31.961382113821138 81.30081300813008,31.961382113821138 81.40243902439025,31.961382113821138 81.5040650406504,31.961382113821138 81.65650406504065,31.961382113821138 81.8089430894309,31.961382113821138 81.96138211382113,31.961382113821138 82.11382113821138,31.961382113821138 82.26626016260163,31.961382113821138 82.41869918699187,31.961382113821138 82.52032520325203,31.910569105691057 82.5711382113821,31.910569105691057 82.6219512195122,31.859756097560975 82.6219512195122,31.859756097560975 82.6219512195122,31.859756097560975 82.6219512195122,31.859756097560975 82.52032520325203,31.961382113821138" fill="none" stroke="black" stroke-width="0.6"></polyline><polyline points="82.52032520325203,31.961382113821138 82.41869918699187,32.11382113821138 82.26626016260163,32.3170731707317 82.16463414634146,32.57113821138211 82.01219512195122,32.82520325203252 81.85975609756098,33.18089430894309 81.7581300813008,33.485772357723576 81.60569105691057,33.739837398373986 81.55487804878048,34.04471544715447 81.5040650406504,34.2479674796748 81.5040650406504,34.34959349593496 81.5040650406504,34.451219512195124 81.60569105691057,34.5020325203252 81.65650406504065,34.5020325203252 81.7581300813008,34.5020325203252 81.91056910569105,34.40040650406504 82.01219512195122,34.298780487804876 82.16463414634146,34.09552845528455 82.36788617886178,33.892276422764226 82.52032520325203,33.58739837398374 82.72357723577235,33.333333333333336 82.92682926829268,33.079268292682926 83.130081300813,32.77439024390244 83.33333333333333,32.57113821138211 83.48577235772358,32.36788617886179 83.6890243902439,32.21544715447154 83.84146341463415,32.11382113821138 83.99390243902438,32.012195121951216 84.14634146341463,31.961382113821138 84.2479674796748,31.910569105691057 84.34959349593495,31.910569105691057 84.40040650406503,31.910569105691057 84.45121951219512,31.910569105691057 84.45121951219512,31.910569105691057 84.5020325203252,31.910569105691057 84.5020325203252,31.910569105691057 84.5020325203252,31.910569105691057 84.40040650406503,31.961382113821138 84.29878048780488,32.0630081300813 84.14634146341463,32.21544715447154 83.9430894308943,32.46951219512195 83.6890243902439,32.672764227642276 83.48577235772358,32.926829268292686 83.23170731707317,33.23170731707317 83.02845528455285,33.53658536585366 82.8760162601626,33.790650406504064 82.77439024390243,33.99390243902439 82.77439024390243,34.09552845528455 82.77439024390243,34.197154471544714 82.8760162601626,34.197154471544714 83.02845528455285,34.197154471544714" fill="none" stroke="black" stroke-width="0.6"></polyline><polyline points="83.02845528455285,34.197154471544714 83.18089430894308,34.09552845528455 83.4349593495935,33.892276422764226 83.63821138211382,33.6890243902439 83.84146341463415,33.4349593495935 84.04471544715447,33.13008130081301 84.2479674796748,32.77439024390244 84.40040650406503,32.36788617886179 84.55284552845528,31.808943089430894 84.70528455284553,31.30081300813008 84.7560975609756,30.945121951219512 84.8069105691057,30.79268292682927 84.8069105691057,30.79268292682927 84.8069105691057,30.79268292682927 84.8069105691057,30.89430894308943 84.7560975609756,30.995934959349594 84.7560975609756,31.148373983739837 84.70528455284553,31.453252032520325 84.65447154471545,31.758130081300813 84.65447154471545,32.11382113821138 84.60365853658537,32.46951219512195 84.60365853658537,32.77439024390244 84.60365853658537,33.02845528455285 84.70528455284553,33.28252032520325 84.85772357723577,33.4349593495935 85.11178861788618,33.485772357723576 85.41666666666667,33.53658536585366 85.72154471544715,33.4349593495935 86.07723577235772,33.23170731707317 86.3821138211382,32.97764227642276 86.63617886178862,32.672764227642276 86.83943089430895,32.418699186991866 86.99186991869918,32.11382113821138 87.09349593495935,31.808943089430894 87.09349593495935,31.60569105691057" fill="none" stroke="black" stroke-width="0.6"></polyline><polyline points="74.7459349593496,28.709349593495933 74.7459349593496,28.709349593495933 74.6951219512195,28.60772357723577 74.6951219512195,28.60772357723577 74.7459349593496,28.65853658536585" fill="none" stroke="black" stroke-width="0.6"></polyline></svg>