<svg height="100" width="100" preserveAspectRatio="xMidYMid meet"><polyline points="49.949186991869915,50.2540650406504 49.949186991869915,50.2540650406504 49.949186991869915,50.2540650406504 49.949186991869915,50.2540650406504 49.949186991869915,50.2540650406504 50,50.2540650406504 50,50.2540650406504 50,50.2540650406504 50,50.2540650406504 50,50.2540650406504 50.05081300813008,50.2540650406504 50.05081300813008,50.2540650406504 50.10162601626016,50.2540650406504 50.15243902439024,50.203252032520325 50.15243902439024,50.203252032520325 50.203252032520325,50.15243902439024 50.2540650406504,50.10162601626016 50.355691056910565,50 50.40650406504065,49.89837398373984 50.45731707317073,49.796747967479675 50.50813008130081,49.69512195121951 50.55894308943089,49.542682926829265 50.66056910569105,49.4410569105691 50.66056910569105,49.28861788617886 50.71138211382114,49.1869918699187 50.71138211382114,49.03455284552845 50.762195121951216,48.93292682926829 50.762195121951216,48.83130081300813 50.762195121951216,48.67886178861789 50.762195121951216,48.577235772357724 50.762195121951216,48.47560975609756 50.71138211382114,48.323170731707314 50.71138211382114,48.27235772357724 50.66056910569105,48.170731707317074 50.55894308943089,48.06910569105691 50.50813008130081,47.96747967479675 50.40650406504065,47.916666666666664 50.30487804878049,47.86585365853659 50.203252032520325,47.764227642276424 50.10162601626016,47.71341463414634 49.949186991869915,47.66260162601626 49.74593495934959,47.61178861788618 49.59349593495935,47.5609756097561 49.390243902439025,47.5609756097561 49.1869918699187,47.510162601626014 48.983739837398375,47.510162601626014 48.78048780487805,47.510162601626014 48.577235772357724,47.510162601626014 48.3739837398374,47.5609756097561 48.170731707317074,47.61178861788618 47.96747967479675,47.66260162601626" fill="none" stroke="black" stroke-width="0.6"></polyline><polyline points="47.96747967479675,47.66260162601626 47.764227642276424,47.66260162601626 47.61178861788618,47.71341463414634 47.40853658536585,47.764227642276424 47.30691056910569,47.86585365853659 47.103658536585364,47.96747967479675 47.0020325203252,48.06910569105691 46.84959349593496,48.170731707317074 46.7479674796748,48.323170731707314 46.59552845528455,48.52642276422764 46.49390243902439,48.67886178861789 46.392276422764226,48.88211382113821 46.290650406504064,49.08536585365854 46.1890243902439,49.23780487804878 46.08739837398374,49.4410569105691 46.03658536585366,49.59349593495935 45.985772357723576,49.74593495934959 45.9349593495935,49.949186991869915 45.9349593495935,50.15243902439024 45.9349593495935,50.355691056910565 45.88414634146341,50.609756097560975 45.88414634146341,50.8130081300813 45.88414634146341,51.016260162601625 45.88414634146341,51.21951219512195 45.9349593495935,51.422764227642276 45.9349593495935,51.6260162601626 45.985772357723576,51.77845528455284 46.03658536585366,51.981707317073166 46.13821138211382,52.1849593495935 46.1890243902439,52.38821138211382 46.290650406504064,52.59146341463415 46.34146341463415,52.79471544715447 46.44308943089431,52.9979674796748 46.54471544715447,53.15040650406504 46.646341463414636,53.302845528455286 46.7479674796748,53.45528455284553 46.84959349593496,53.55691056910569 47.0020325203252,53.709349593495936 47.103658536585364,53.8109756097561 47.25609756097561,53.91260162601626 47.40853658536585,54.014227642276424 47.5609756097561,54.11585365853659 47.71341463414634,54.21747967479675 47.86585365853659,54.36991869918699 48.01829268292683,54.47154471544715 48.170731707317074,54.52235772357724 48.3739837398374,54.6239837398374 48.52642276422764,54.67479674796748 48.67886178861789,54.72560975609756 48.83130081300813,54.77642276422764 48.983739837398375,54.77642276422764" fill="none" stroke="black" stroke-width="0.6"></polyline><polyline points="48.983739837398375,54.77642276422764 49.136178861788615,54.827235772357724 49.33943089430894,54.8780487804878 49.49186991869919,54.92886178861789 49.64430894308943,54.92886178861789 49.84756097560975,54.979674796747965 50.05081300813008,54.979674796747965 50.2540650406504,55.03048780487805 50.45731707317073,55.03048780487805 50.609756097560975,55.03048780487805 50.8130081300813,55.03048780487805 51.0670731707317,55.03048780487805 51.27032520325203,55.03048780487805 51.47357723577235,54.979674796747965 51.67682926829268,54.92886178861789 51.880081300813,54.8780487804878 52.083333333333336,54.77642276422764 52.28658536585366,54.72560975609756 52.489837398373986,54.6239837398374 52.69308943089431,54.573170731707314 52.896341463414636,54.47154471544715 53.048780487804876,54.420731707317074 53.2520325203252,54.31910569105691 53.45528455284553,54.21747967479675 53.607723577235774,54.166666666666664 53.8109756097561,54.0650406504065 54.014227642276424,53.96341463414634 54.166666666666664,53.8109756097561 54.36991869918699,53.65853658536585 54.573170731707314,53.50609756097561 54.72560975609756,53.302845528455286 54.92886178861789,53.15040650406504 55.08130081300813,52.896341463414636 55.233739837398375,52.69308943089431 55.386178861788615,52.489837398373986 55.58943089430894,52.235772357723576 55.74186991869919,51.981707317073166 55.84349593495935,51.72764227642276 55.99593495934959,51.47357723577235 56.046747967479675,51.27032520325203 56.14837398373984,51.0670731707317 56.25,50.8130081300813 56.35162601626016,50.609756097560975 56.40243902439024,50.355691056910565 56.453252032520325,50.15243902439024 56.5040650406504,49.89837398373984 56.55487804878049,49.64430894308943 56.55487804878049,49.390243902439025 56.55487804878049,49.136178861788615 56.605691056910565,48.88211382113821 56.605691056910565,48.67886178861789" fill="none" stroke="black" stroke-width="0.6"></polyline><polyline points="56.605691056910565,48.67886178861789 56.605691056910565,48.47560975609756 56.55487804878049,48.22154471544715 56.5040650406504,48.01829268292683 56.40243902439024,47.764227642276424 56.35162601626016,47.510162601626014 56.25,47.30691056910569 56.199186991869915,47.103658536585364 56.09756097560975,46.90040650406504 56.046747967479675,46.697154471544714 55.94512195121951,46.49390243902439 55.84349593495935,46.290650406504064 55.74186991869919,46.08739837398374 55.640243902439025,45.9349593495935 55.48780487804878,45.68089430894309 55.33536585365854,45.47764227642276 55.233739837398375,45.27439024390244 55.08130081300813,45.02032520325203 54.92886178861789,44.8170731707317 54.77642276422764,44.61382113821138 54.67479674796748,44.41056910569105 54.52235772357724,44.25813008130081 54.420731707317074,44.105691056910565 54.26829268292683,43.90243902439024 54.11585365853659,43.75 54.014227642276424,43.546747967479675 53.8109756097561,43.39430894308943 53.709349593495936,43.1910569105691 53.50609756097561,43.03861788617886 53.353658536585364,42.886178861788615 53.15040650406504,42.733739837398375 52.9979674796748,42.58130081300813 52.79471544715447,42.479674796747965 52.59146341463415,42.3780487804878 52.38821138211382,42.27642276422764 52.1849593495935,42.17479674796748 51.981707317073166,42.073170731707314 51.77845528455284,42.02235772357724 51.52439024390244,41.920731707317074 51.27032520325203,41.86991869918699 51.016260162601625,41.86991869918699 50.762195121951216,41.81910569105691 50.50813008130081,41.76829268292683 50.2540650406504,41.71747967479675 49.949186991869915,41.71747967479675 49.69512195121951,41.666666666666664 49.4410569105691,41.666666666666664 49.136178861788615,41.666666666666664 48.83130081300813,41.666666666666664 48.52642276422764,41.666666666666664 48.22154471544715,41.666666666666664" fill="none" stroke="black" stroke-width="0.6"></polyline><polyline points="48.22154471544715,41.666666666666664 47.96747967479675,41.71747967479675 47.66260162601626,41.76829268292683 47.357723577235774,41.81910569105691 47.052845528455286,41.86991869918699 46.7479674796748,41.97154471544715 46.44308943089431,42.02235772357724 46.13821138211382,42.1239837398374 45.88414634146341,42.17479674796748 45.579268292682926,42.27642276422764 45.325203252032516,42.327235772357724 45.12195121951219,42.42886178861789 44.86788617886179,42.53048780487805 44.61382113821138,42.63211382113821 44.359756097560975,42.733739837398375 44.15650406504065,42.83536585365854 43.953252032520325,42.9369918699187 43.699186991869915,43.08943089430894 43.49593495934959,43.24186991869919 43.292682926829265,43.39430894308943 43.08943089430894,43.546747967479675 42.886178861788615,43.75 42.733739837398375,43.953252032520325 42.53048780487805,44.15650406504065 42.327235772357724,44.359756097560975 42.17479674796748,44.61382113821138 42.02235772357724,44.86788617886179 41.86991869918699,45.07113821138211 41.71747967479675,45.325203252032516 41.5650406504065,45.579268292682926 41.46341463414634,45.833333333333336 41.36178861788618,46.13821138211382 41.209349593495936,46.392276422764226 41.107723577235774,46.697154471544714 41.05691056910569,46.951219512195124 40.95528455284553,47.20528455284553 40.90447154471545,47.510162601626014 40.802845528455286,47.764227642276424 40.7520325203252,48.11991869918699 40.701219512195124,48.42479674796748 40.65040650406504,48.729674796747965 40.59959349593496,49.08536585365854 40.548780487804876,49.390243902439025 40.4979674796748,49.64430894308943 40.4979674796748,49.949186991869915 40.447154471544714,50.2540650406504 40.396341463414636,50.55894308943089 40.396341463414636,50.86382113821138 40.34552845528455,51.168699186991866 40.34552845528455,51.422764227642276 40.29471544715447,51.72764227642276" fill="none" stroke="black" stroke-width="0.6"></polyline><polyline points="40.29471544715447,51.72764227642276 40.29471544715447,52.03252032520325 40.29471544715447,52.33739837398374 40.29471544715447,52.642276422764226 40.29471544715447,52.947154471544714 40.34552845528455,53.201219512195124 40.447154471544714,53.45528455284553 40.4979674796748,53.709349593495936 40.59959349593496,53.96341463414634 40.701219512195124,54.21747967479675 40.7520325203252,54.52235772357724 40.853658536585364,54.77642276422764 40.95528455284553,55.03048780487805 41.107723577235774,55.28455284552845 41.209349593495936,55.53861788617886 41.3109756097561,55.792682926829265 41.46341463414634,56.046747967479675 41.5650406504065,56.30081300813008 41.666666666666664,56.55487804878049 41.81910569105691,56.80894308943089 41.920731707317074,57.0630081300813 42.073170731707314,57.3170731707317 42.17479674796748,57.52032520325203 42.327235772357724,57.77439024390244 42.479674796747965,57.97764227642276 42.68292682926829,58.18089430894309 42.83536585365854,58.38414634146341 43.03861788617886,58.58739837398374 43.1910569105691,58.739837398373986 43.39430894308943,58.94308943089431 43.59756097560975,59.09552845528455 43.80081300813008,59.2479674796748 44.05487804878049,59.451219512195124 44.25813008130081,59.603658536585364 44.512195121951216,59.70528455284553 44.766260162601625,59.857723577235774 45.02032520325203,60.010162601626014 45.27439024390244,60.16260162601626 45.52845528455285,60.264227642276424 45.78252032520325,60.416666666666664 45.985772357723576,60.51829268292683 46.290650406504064,60.670731707317074 46.54471544715447,60.77235772357724 46.798780487804876,60.8739837398374 47.103658536585364,60.97560975609756 47.357723577235774,61.02642276422764 47.61178861788618,61.1280487804878 47.916666666666664,61.17886178861789 48.170731707317074,61.28048780487805 48.3739837398374,61.33130081300813 48.67886178861789,61.38211382113821" fill="none" stroke="black" stroke-width="0.6"></polyline><polyline points="48.67886178861789,61.38211382113821 48.93292682926829,61.43292682926829 49.23780487804878,61.43292682926829 49.542682926829265,61.43292682926829 49.84756097560975,61.43292682926829 50.15243902439024,61.43292682926829 50.50813008130081,61.33130081300813 50.8130081300813,61.28048780487805 51.168699186991866,61.17886178861789 51.52439024390244,61.1280487804878 51.829268292682926,61.02642276422764 52.1849593495935,60.97560975609756 52.540650406504064,60.8739837398374 52.84552845528455,60.77235772357724 53.201219512195124,60.670731707317074 53.607723577235774,60.56910569105691 53.91260162601626,60.46747967479675 54.26829268292683,60.36585365853659 54.6239837398374,60.21341463414634 54.92886178861789,60.0609756097561 55.233739837398375,59.959349593495936 55.53861788617886,59.80691056910569 55.84349593495935,59.70528455284553 56.09756097560975,59.603658536585364 56.40243902439024,59.451219512195124 56.65650406504065,59.298780487804876 56.859756097560975,59.197154471544714 57.11382113821138,59.04471544715447 57.3170731707317,58.892276422764226 57.52032520325203,58.739837398373986 57.72357723577235,58.536585365853654 57.92682926829268,58.33333333333333 58.079268292682926,58.130081300813 58.28252032520325,57.92682926829268 58.485772357723576,57.72357723577235 58.63821138211382,57.57113821138211 58.790650406504064,57.36788617886179 58.99390243902439,57.16463414634146 59.146341463414636,56.96138211382114 59.298780487804876,56.70731707317073 59.451219512195124,56.453252032520325 59.65447154471545,56.14837398373984 59.80691056910569,55.89430894308943 59.959349593495936,55.640243902439025 60.11178861788618,55.386178861788615 60.264227642276424,55.13211382113821 60.416666666666664,54.8780487804878 60.56910569105691,54.573170731707314 60.72154471544715,54.26829268292683 60.8739837398374,53.96341463414634 61.02642276422764,53.607723577235774" fill="none" stroke="black" stroke-width="0.6"></polyline><polyline points="61.02642276422764,53.607723577235774 61.17886178861789,53.2520325203252 61.28048780487805,52.947154471544714 61.43292682926829,52.59146341463415 61.58536585365854,52.235772357723576 61.6869918699187,51.880081300813 61.83943089430894,51.52439024390244 61.9410569105691,51.168699186991866 62.042682926829265,50.8130081300813 62.14430894308943,50.40650406504065 62.24593495934959,50.05081300813008 62.296747967479675,49.69512195121951 62.39837398373984,49.23780487804878 62.449186991869915,48.83130081300813 62.5,48.47560975609756 62.5,48.06910569105691 62.5,47.66260162601626 62.5,47.357723577235774 62.5,47.0020325203252 62.5,46.697154471544714 62.39837398373984,46.44308943089431 62.34756097560975,46.13821138211382 62.24593495934959,45.88414634146341 62.14430894308943,45.63008130081301 62.042682926829265,45.325203252032516 61.9410569105691,44.96951219512195 61.83943089430894,44.66463414634146 61.6869918699187,44.359756097560975 61.58536585365854,44.05487804878049 61.483739837398375,43.80081300813008 61.33130081300813,43.49593495934959 61.17886178861789,43.24186991869919 61.077235772357724,42.9369918699187 60.92479674796748,42.68292682926829 60.77235772357724,42.42886178861789 60.61991869918699,42.22560975609756 60.416666666666664,41.97154471544715 60.21341463414634,41.71747967479675 60.010162601626014,41.46341463414634 59.80691056910569,41.209349593495936 59.603658536585364,40.95528455284553 59.34959349593496,40.701219512195124 59.146341463414636,40.396341463414636 58.892276422764226,40.19308943089431 58.6890243902439,39.9390243902439 58.43495934959349,39.735772357723576 58.18089430894309,39.53252032520325 57.97764227642276,39.329268292682926 57.72357723577235,39.176829268292686 57.46951219512195,38.97357723577235 57.21544715447154,38.77032520325203" fill="none" stroke="black" stroke-width="0.6"></polyline><polyline points="57.21544715447154,38.77032520325203 56.91056910569105,38.5670731707317 56.65650406504065,38.36382113821138 56.40243902439024,38.21138211382114 56.09756097560975,37.95731707317073 55.792682926829265,37.7540650406504 55.48780487804878,37.55081300813008 55.18292682926829,37.34756097560975 54.92886178861789,37.14430894308943 54.6239837398374,36.99186991869919 54.36991869918699,36.83943089430894 54.11585365853659,36.73780487804878 53.86178861788618,36.58536585365854 53.607723577235774,36.43292682926829 53.302845528455286,36.28048780487805 53.048780487804876,36.1280487804878 52.74390243902439,35.97560975609756 52.489837398373986,35.8739837398374 52.1849593495935,35.670731707317074 51.93089430894309,35.56910569105691 51.67682926829268,35.416666666666664 51.37195121951219,35.3150406504065 51.11788617886179,35.21341463414634 50.86382113821138,35.11178861788618 50.609756097560975,35.010162601626014 50.355691056910565,34.959349593495936 50.15243902439024,34.90853658536585 49.89837398373984,34.80691056910569 49.64430894308943,34.75609756097561 49.390243902439025,34.70528455284553 49.08536585365854,34.70528455284553 48.83130081300813,34.65447154471545 48.577235772357724,34.65447154471545 48.323170731707314,34.65447154471545 48.06910569105691,34.603658536585364 47.8150406504065,34.603658536585364 47.5609756097561,34.603658536585364 47.30691056910569,34.65447154471545 47.052845528455286,34.65447154471545 46.7479674796748,34.75609756097561 46.44308943089431,34.80691056910569 46.1890243902439,34.857723577235774 45.833333333333336,34.959349593495936 45.52845528455285,35.0609756097561 45.22357723577235,35.16260162601626 44.918699186991866,35.264227642276424 44.61382113821138,35.36585365853659 44.25813008130081,35.46747967479675 43.90243902439024,35.61991869918699 43.59756097560975,35.72154471544715 43.292682926829265,35.8739837398374" fill="none" stroke="black" stroke-width="0.6"></polyline><polyline points="43.292682926829265,35.8739837398374 42.886178861788615,36.077235772357724 42.58130081300813,36.28048780487805 42.17479674796748,36.53455284552845 41.76829268292683,36.78861788617886 41.36178861788618,37.09349593495935 40.95528455284553,37.449186991869915 40.548780487804876,37.7540650406504 40.142276422764226,38.05894308943089 39.735772357723576,38.36382113821138 39.329268292682926,38.668699186991866 38.97357723577235,38.97357723577235 38.61788617886179,39.27845528455285 38.262195121951216,39.53252032520325 37.95731707317073,39.83739837398374 37.65243902439024,40.09146341463415 37.39837398373984,40.34552845528455 37.14430894308943,40.548780487804876 36.99186991869919,40.701219512195124 36.78861788617886,40.90447154471545 36.636178861788615,41.107723577235774 36.43292682926829,41.36178861788618 36.229674796747965,41.61585365853659 36.077235772357724,41.86991869918699 35.97560975609756,42.1239837398374 35.823170731707314,42.3780487804878 35.72154471544715,42.58130081300813 35.56910569105691,42.83536585365854 35.46747967479675,43.08943089430894 35.36585365853659,43.34349593495935 35.264227642276424,43.59756097560975 35.16260162601626,43.90243902439024 35.0609756097561,44.15650406504065 34.90853658536585,44.41056910569105 34.80691056910569,44.71544715447154 34.70528455284553,44.96951219512195 34.603658536585364,45.27439024390244 34.552845528455286,45.579268292682926 34.451219512195124,45.88414634146341 34.34959349593496,46.239837398373986 34.298780487804876,46.49390243902439 34.197154471544714,46.798780487804876 34.09552845528455,47.103658536585364 34.04471544715447,47.40853658536585 33.99390243902439,47.66260162601626 33.94308943089431,47.96747967479675 33.892276422764226,48.27235772357724 33.84146341463415,48.577235772357724 33.84146341463415,48.88211382113821 33.790650406504064,49.1869918699187 33.739837398373986,49.49186991869919" fill="none" stroke="black" stroke-width="0.6"></polyline><polyline points="33.739837398373986,49.49186991869919 33.739837398373986,49.84756097560975 33.6890243902439,50.15243902439024 33.6890243902439,50.50813008130081 33.63821138211382,50.86382113821138 33.63821138211382,51.21951219512195 33.63821138211382,51.575203252032516 33.58739837398374,51.93089430894309 33.58739837398374,52.28658536585366 33.58739837398374,52.59146341463415 33.58739837398374,52.947154471544714 33.58739837398374,53.2520325203252 33.58739837398374,53.607723577235774 33.58739837398374,53.96341463414634 33.58739837398374,54.21747967479675 33.58739837398374,54.52235772357724 33.63821138211382,54.8780487804878 33.6890243902439,55.13211382113821 33.739837398373986,55.386178861788615 33.84146341463415,55.640243902439025 33.892276422764226,55.89430894308943 33.99390243902439,56.09756097560975 34.146341463414636,56.35162601626016 34.2479674796748,56.605691056910565 34.34959349593496,56.91056910569105 34.5020325203252,57.16463414634146 34.603658536585364,57.46951219512195 34.75609756097561,57.72357723577235 34.857723577235774,57.97764227642276 34.959349593495936,58.231707317073166 35.0609756097561,58.536585365853654 35.21341463414634,58.790650406504064 35.3150406504065,59.09552845528455 35.46747967479675,59.34959349593496 35.56910569105691,59.65447154471545 35.72154471544715,59.959349593495936 35.8739837398374,60.21341463414634 36.077235772357724,60.51829268292683 36.229674796747965,60.823170731707314 36.43292682926829,61.1280487804878 36.58536585365854,61.38211382113821 36.78861788617886,61.636178861788615 36.9410569105691,61.890243902439025 37.09349593495935,62.09349593495935 37.296747967479675,62.296747967479675 37.449186991869915,62.55081300813008 37.65243902439024,62.80487804878049 37.80487804878049,63.00813008130081 38.00813008130081,63.262195121951216 38.21138211382114,63.516260162601625 38.41463414634146,63.71951219512195" fill="none" stroke="black" stroke-width="0.6"></polyline><polyline points="38.41463414634146,63.71951219512195 38.61788617886179,63.922764227642276 38.82113821138211,64.17682926829268 39.02439024390244,64.32926829268293 39.22764227642276,64.53252032520325 39.43089430894309,64.73577235772358 39.63414634146341,64.9390243902439 39.83739837398374,65.14227642276423 40.09146341463415,65.29471544715447 40.34552845528455,65.44715447154472 40.59959349593496,65.65040650406505 40.853658536585364,65.80284552845528 41.107723577235774,65.90447154471545 41.41260162601626,66.0569105691057 41.666666666666664,66.15853658536585 41.97154471544715,66.26016260162602 42.27642276422764,66.36178861788618 42.58130081300813,66.41260162601625 42.886178861788615,66.51422764227642 43.24186991869919,66.61585365853658 43.546747967479675,66.71747967479675 43.85162601626016,66.8191056910569 44.20731707317073,66.92073170731707 44.512195121951216,67.02235772357723 44.8170731707317,67.1239837398374 45.172764227642276,67.27642276422765 45.52845528455285,67.3780487804878 45.833333333333336,67.47967479674797 46.1890243902439,67.58130081300813 46.54471544715447,67.6321138211382 46.84959349593496,67.73373983739837 47.25609756097561,67.78455284552845 47.5609756097561,67.88617886178862 47.86585365853659,67.9369918699187 48.27235772357724,67.98780487804878 48.577235772357724,68.03861788617886 48.88211382113821,68.08943089430895 49.28861788617886,68.14024390243902 49.59349593495935,68.1910569105691 49.89837398373984,68.24186991869918 50.2540650406504,68.29268292682927 50.55894308943089,68.34349593495935 50.86382113821138,68.34349593495935 51.168699186991866,68.39430894308943 51.47357723577235,68.39430894308943 51.829268292682926,68.39430894308943 52.13414634146341,68.39430894308943 52.4390243902439,68.39430894308943 52.79471544715447,68.39430894308943 53.09959349593496,68.39430894308943 53.45528455284553,68.39430894308943" fill="none" stroke="black" stroke-width="0.6"></polyline><polyline points="53.45528455284553,68.39430894308943 53.8109756097561,68.39430894308943 54.166666666666664,68.34349593495935 54.47154471544715,68.29268292682927 54.827235772357724,68.24186991869918 55.18292682926829,68.1910569105691 55.53861788617886,68.14024390243902 55.89430894308943,68.03861788617886 56.25,67.9369918699187 56.605691056910565,67.88617886178862 56.91056910569105,67.73373983739837 57.3170731707317,67.6321138211382 57.672764227642276,67.47967479674797 58.02845528455284,67.27642276422765 58.43495934959349,67.07317073170732 58.790650406504064,66.869918699187 59.09552845528455,66.66666666666667 59.5020325203252,66.51422764227642 59.80691056910569,66.3109756097561 60.16260162601626,66.10772357723577 60.51829268292683,65.90447154471545 60.8739837398374,65.7520325203252 61.17886178861789,65.4979674796748 61.53455284552845,65.29471544715447 61.890243902439025,65.04065040650406 62.24593495934959,64.73577235772358 62.55081300813008,64.48170731707317 62.855691056910565,64.22764227642276 63.16056910569105,63.97357723577235 63.46544715447154,63.71951219512195 63.71951219512195,63.41463414634146 64.07520325203252,63.109756097560975 64.32926829268293,62.80487804878049 64.6849593495935,62.449186991869915 64.98983739837398,62.09349593495935 65.2439024390244,61.73780487804878 65.54878048780488,61.38211382113821 65.85365853658537,60.97560975609756 66.0569105691057,60.61991869918699 66.3109756097561,60.21341463414634 66.5650406504065,59.857723577235774 66.76829268292683,59.5020325203252 66.92073170731707,59.197154471544714 67.07317073170732,58.84146341463415 67.22560975609755,58.485772357723576 67.32723577235772,58.18089430894309 67.47967479674797,57.77439024390244 67.58130081300813,57.46951219512195 67.73373983739837,57.11382113821138 67.83536585365853,56.75813008130081 67.9369918699187,56.35162601626016" fill="none" stroke="black" stroke-width="0.6"></polyline><polyline points="67.9369918699187,56.35162601626016 68.08943089430895,55.94512195121951 68.24186991869918,55.53861788617886 68.39430894308943,55.13211382113821 68.59756097560975,54.77642276422764 68.69918699186992,54.36991869918699 68.85162601626016,54.014227642276424 68.95325203252033,53.607723577235774 69.05487804878048,53.201219512195124 69.15650406504065,52.896341463414636 69.2581300813008,52.489837398373986 69.35975609756098,52.083333333333336 69.46138211382113,51.6260162601626 69.51219512195122,51.21951219512195 69.61382113821138,50.762195121951216 69.71544715447155,50.355691056910565 69.76626016260163,49.949186991869915 69.76626016260163,49.49186991869919 69.76626016260163,49.08536585365854 69.76626016260163,48.67886178861789 69.76626016260163,48.27235772357724 69.71544715447155,47.86585365853659 69.61382113821138,47.40853658536585 69.5630081300813,46.951219512195124 69.46138211382113,46.54471544715447 69.35975609756098,46.08739837398374 69.3089430894309,45.63008130081301 69.20731707317073,45.172764227642276 69.05487804878048,44.71544715447154 68.95325203252033,44.25813008130081 68.80081300813008,43.85162601626016 68.59756097560975,43.44512195121951 68.39430894308943,42.98780487804878 68.1910569105691,42.58130081300813 67.9369918699187,42.22560975609756 67.73373983739837,41.81910569105691 67.47967479674797,41.41260162601626 67.27642276422765,40.95528455284553 67.02235772357723,40.4979674796748 66.76829268292683,40.09146341463415 66.51422764227642,39.735772357723576 66.26016260162602,39.329268292682926 66.0060975609756,38.922764227642276 65.70121951219512,38.5670731707317 65.44715447154472,38.21138211382114 65.1930894308943,37.855691056910565 64.88821138211382,37.5 64.6341463414634,37.09349593495935 64.32926829268293,36.73780487804878 64.02439024390243,36.33130081300813 63.71951219512195,35.97560975609756" fill="none" stroke="black" stroke-width="0.6"></polyline><polyline points="63.71951219512195,35.97560975609756 63.46544715447154,35.670731707317074 63.16056910569105,35.3150406504065 62.90650406504065,34.959349593495936 62.65243902439024,34.603658536585364 62.34756097560975,34.2479674796748 62.14430894308943,33.94308943089431 61.83943089430894,33.63821138211382 61.58536585365854,33.333333333333336 61.28048780487805,33.02845528455285 60.97560975609756,32.77439024390244 60.670731707317074,32.418699186991866 60.36585365853659,32.16463414634146 60.0609756097561,31.859756097560975 59.70528455284553,31.60569105691057 59.40040650406504,31.402439024390244 59.09552845528455,31.19918699186992 58.739837398373986,30.995934959349594 58.43495934959349,30.79268292682927 58.079268292682926,30.589430894308943 57.672764227642276,30.335365853658537 57.3170731707317,30.182926829268293 56.96138211382114,29.979674796747968 56.55487804878049,29.827235772357724 56.14837398373984,29.67479674796748 55.74186991869919,29.573170731707318 55.233739837398375,29.420731707317074 54.77642276422764,29.369918699186993 54.31910569105691,29.268292682926827 53.8109756097561,29.166666666666664 53.353658536585364,29.0650406504065 52.947154471544714,28.96341463414634 52.489837398373986,28.912601626016258 52.13414634146341,28.861788617886177 51.72764227642276,28.760162601626014 51.32113821138211,28.709349593495933 50.91463414634146,28.65853658536585 50.55894308943089,28.60772357723577 50.15243902439024,28.55691056910569 49.796747967479675,28.455284552845526 49.4410569105691,28.404471544715445 49.03455284552845,28.353658536585364 48.67886178861789,28.302845528455283 48.27235772357724,28.2520325203252 47.86585365853659,28.2520325203252 47.510162601626014,28.2520325203252 47.103658536585364,28.2520325203252 46.646341463414636,28.2520325203252 46.239837398373986,28.302845528455283 45.833333333333336,28.353658536585364 45.3760162601626,28.404471544715445" fill="none" stroke="black" stroke-width="0.6"></polyline><polyline points="45.3760162601626,28.404471544715445 44.918699186991866,28.455284552845526 44.46138211382114,28.506097560975608 44.0040650406504,28.60772357723577 43.546747967479675,28.709349593495933 43.140243902439025,28.861788617886177 42.68292682926829,29.01422764227642 42.22560975609756,29.166666666666664 41.76829268292683,29.369918699186993 41.3109756097561,29.522357723577237 40.90447154471545,29.725609756097562 40.447154471544714,29.878048780487806 39.989837398373986,30.132113821138212 39.53252032520325,30.335365853658537 39.02439024390244,30.640243902439025 38.61788617886179,30.84349593495935 38.16056910569105,31.097560975609756 37.703252032520325,31.402439024390244 37.296747967479675,31.65650406504065 36.83943089430894,31.910569105691057 36.38211382113821,32.21544715447154 35.97560975609756,32.57113821138211 35.51829268292683,32.926829268292686 35.0609756097561,33.28252032520325 34.65447154471545,33.63821138211382 34.2479674796748,33.99390243902439 33.790650406504064,34.34959349593496 33.38414634146341,34.70528455284553 33.02845528455285,35.0609756097561 32.6219512195122,35.46747967479675 32.3170731707317,35.823170731707314 31.961382113821138,36.17886178861789 31.60569105691057,36.53455284552845 31.25,36.9410569105691 30.945121951219512,37.34756097560975 30.38617886178862,38.109756097560975 30.08130081300813,38.46544715447154 29.827235772357724,38.87195121951219 29.573170731707318,39.27845528455285 29.369918699186993,39.6849593495935 29.115853658536583,40.09146341463415 28.912601626016258,40.447154471544714 28.709349593495933,40.802845528455286 28.506097560975608,41.260162601626014 28.302845528455283,41.71747967479675 28.099593495934958,42.17479674796748 27.896341463414632,42.63211382113821 27.693089430894307,43.08943089430894 27.540650406504064,43.546747967479675 27.33739837398374,44.05487804878049 27.184959349593495,44.512195121951216" fill="none" stroke="black" stroke-width="0.6"></polyline><polyline points="27.184959349593495,44.512195121951216 27.03252032520325,44.918699186991866 26.880081300813007,45.3760162601626 26.778455284552845,45.833333333333336 26.6260162601626,46.34146341463415 26.524390243902438,46.84959349593496 26.422764227642276,47.357723577235774 26.371951219512194,47.916666666666664 26.270325203252032,48.47560975609756 26.270325203252032,48.983739837398375 26.21951219512195,49.4410569105691 26.21951219512195,49.89837398373984 26.21951219512195,50.355691056910565 26.270325203252032,50.762195121951216 26.321138211382113,51.21951219512195 26.371951219512194,51.575203252032516 26.473577235772357,52.03252032520325 26.57520325203252,52.4390243902439 26.676829268292682,52.84552845528455 26.778455284552845,53.2520325203252 26.93089430894309,53.65853658536585 27.03252032520325,54.0650406504065 27.184959349593495,54.47154471544715 27.33739837398374,54.8780487804878 27.4390243902439,55.28455284552845 27.591463414634145,55.640243902439025 27.74390243902439,55.99593495934959 27.84552845528455,56.40243902439024 27.997967479674795,56.80894308943089 28.15040650406504,57.21544715447154 28.302845528455283,57.672764227642276 28.506097560975608,58.079268292682926 28.65853658536585,58.43495934959349 28.810975609756095,58.84146341463415 29.01422764227642,59.2479674796748 29.217479674796746,59.603658536585364 29.420731707317074,59.959349593495936 29.573170731707318,60.36585365853659 29.776422764227643,60.72154471544715 29.979674796747968,61.077235772357724 30.132113821138212,61.483739837398375 30.335365853658537,61.78861788617886 30.48780487804878,62.14430894308943 30.691056910569106,62.449186991869915 30.84349593495935,62.80487804878049 31.046747967479675,63.16056910569105 31.25,63.516260162601625 31.453252032520325,63.87195121951219 31.65650406504065,64.22764227642276 31.859756097560975,64.58333333333333 32.012195121951216,64.88821138211382" fill="none" stroke="black" stroke-width="0.6"></polyline><polyline points="32.012195121951216,64.88821138211382 32.21544715447154,65.1930894308943 32.418699186991866,65.54878048780488 32.6219512195122,65.85365853658537 32.82520325203252,66.15853658536585 33.079268292682926,66.46341463414635 33.28252032520325,66.71747967479675 33.53658536585366,66.97154471544715 33.790650406504064,67.22560975609755 33.99390243902439,67.53048780487805 34.2479674796748,67.78455284552845 34.552845528455286,68.03861788617886 34.80691056910569,68.29268292682927 35.0609756097561,68.4959349593496 35.36585365853659,68.75 35.61991869918699,68.95325203252033 35.92479674796748,69.15650406504065 36.28048780487805,69.41056910569105 36.636178861788615,69.61382113821138 36.9410569105691,69.8170731707317 37.296747967479675,70.02032520325203 37.65243902439024,70.17276422764228 38.00813008130081,70.3760162601626 38.41463414634146,70.630081300813 38.77032520325203,70.78252032520325 39.176829268292686,70.98577235772358 39.53252032520325,71.13821138211382 39.9390243902439,71.29065040650406 40.34552845528455,71.49390243902438 40.802845528455286,71.69715447154472 41.15853658536585,71.84959349593495 41.5650406504065,72.05284552845528 42.02235772357724,72.20528455284553 42.3780487804878,72.40853658536585 42.83536585365854,72.5609756097561 43.24186991869919,72.71341463414635 43.64837398373984,72.86585365853658 44.05487804878049,73.01829268292683 44.46138211382114,73.17073170731707 44.86788617886179,73.32317073170732 45.27439024390244,73.47560975609755 45.73170731707317,73.57723577235772 46.08739837398374,73.67886178861788 46.54471544715447,73.83130081300813 46.951219512195124,73.9329268292683 47.357723577235774,74.08536585365853 47.8150406504065,74.1869918699187 48.22154471544715,74.28861788617886 48.6280487804878,74.39024390243902 49.136178861788615,74.4410569105691 49.542682926829265,74.54268292682927" fill="none" stroke="black" stroke-width="0.6"></polyline><polyline points="49.542682926829265,74.54268292682927 49.949186991869915,74.64430894308943 50.45731707317073,74.6951219512195 50.86382113821138,74.79674796747967 51.27032520325203,74.84756097560975 51.72764227642276,74.94918699186992 52.13414634146341,75 52.540650406504064,75.05081300813008 52.9979674796748,75.15243902439025 53.40447154471545,75.20325203252033 53.86178861788618,75.2540650406504 54.31910569105691,75.2540650406504 54.72560975609756,75.30487804878048 55.13211382113821,75.30487804878048 55.58943089430894,75.30487804878048 55.99593495934959,75.30487804878048 56.453252032520325,75.2540650406504 56.91056910569105,75.15243902439025 57.3170731707317,75.10162601626016 57.77439024390244,75 58.33333333333333,74.84756097560975 58.790650406504064,74.6951219512195 59.2479674796748,74.54268292682927 59.80691056910569,74.33943089430895 60.264227642276424,74.1869918699187 60.77235772357724,73.98373983739837 61.28048780487805,73.72967479674797 61.73780487804878,73.52642276422765 62.24593495934959,73.32317073170732 62.703252032520325,73.0691056910569 63.16056910569105,72.86585365853658 63.5670731707317,72.66260162601625 64.07520325203252,72.40853658536585 64.48170731707317,72.15447154471545 64.88821138211382,71.84959349593495 65.34552845528455,71.54471544715447 65.70121951219512,71.29065040650406 66.10772357723577,70.98577235772358 66.46341463414635,70.73170731707317 66.8191056910569,70.42682926829268 67.17479674796748,70.17276422764228 67.53048780487805,69.8170731707317 67.83536585365853,69.51219512195122 68.1910569105691,69.20731707317073 68.54674796747967,68.85162601626016 68.85162601626016,68.4959349593496 69.20731707317073,68.14024390243902 69.51219512195122,67.78455284552845 69.86788617886178,67.3780487804878 70.17276422764228,66.97154471544715 70.52845528455285,66.5650406504065" fill="none" stroke="black" stroke-width="0.6"></polyline><polyline points="70.52845528455285,66.5650406504065 70.83333333333333,66.20934959349593 71.13821138211382,65.80284552845528 71.49390243902438,65.39634146341463 71.79878048780488,64.9390243902439 72.10365853658537,64.53252032520325 72.40853658536585,64.1260162601626 72.66260162601625,63.77032520325203 72.96747967479675,63.36382113821138 73.27235772357723,62.90650406504065 73.52642276422765,62.5 73.83130081300813,62.09349593495935 74.08536585365853,61.6869918699187 74.33943089430895,61.28048780487805 74.54268292682927,60.8739837398374 74.79674796747967,60.416666666666664 75.05081300813008,60.0609756097561 75.2540650406504,59.65447154471545 75.45731707317073,59.2479674796748 75.66056910569105,58.892276422764226 75.8130081300813,58.43495934959349 75.96544715447155,58.02845528455284 76.11788617886178,57.672764227642276 76.27032520325203,57.266260162601625 76.3719512195122,56.91056910569105 76.47357723577235,56.55487804878049 76.57520325203252,56.14837398373984 76.6260162601626,55.84349593495935 76.6260162601626,55.53861788617886 76.72764227642276,55.13211382113821 76.77845528455285,54.827235772357724 76.82926829268293,54.47154471544715 76.93089430894308,54.166666666666664 76.98170731707317,53.86178861788618 77.03252032520325,53.55691056910569 77.08333333333333,53.201219512195124 77.1341463414634,52.947154471544714 77.1849593495935,52.69308943089431 77.23577235772358,52.489837398373986 77.23577235772358,52.28658536585366 77.23577235772358,52.03252032520325 77.23577235772358,51.77845528455284 77.1849593495935,51.575203252032516 77.1849593495935,51.37195121951219 77.1341463414634,51.11788617886179 77.08333333333333,50.96544715447154 77.08333333333333,50.762195121951216 77.03252032520325,50.609756097560975 77.03252032520325,50.45731707317073 76.98170731707317,50.30487804878049 76.93089430894308,50.15243902439024" fill="none" stroke="black" stroke-width="0.6"></polyline><polyline points="76.93089430894308,50.15243902439024 76.880081300813,50.05081300813008 76.880081300813,49.89837398373984 76.82926829268293,49.796747967479675 76.77845528455285,49.74593495934959 76.77845528455285,49.64430894308943 76.77845528455285,49.64430894308943 76.77845528455285,49.59349593495935 76.77845528455285,49.59349593495935 76.77845528455285,49.59349593495935 76.77845528455285,49.59349593495935 76.77845528455285,49.59349593495935 76.77845528455285,49.59349593495935" fill="none" stroke="black" stroke-width="0.6"></polyline></svg>