<svg height="100" width="100" preserveAspectRatio="xMidYMid meet"><polyline points="50.10162601626016,49.4410569105691 50.10162601626016,49.4410569105691 50.10162601626016,49.4410569105691 50.10162601626016,49.4410569105691 50.05081300813008,49.4410569105691 50.05081300813008,49.4410569105691 50.05081300813008,49.4410569105691 50.05081300813008,49.390243902439025 50,49.390243902439025 50,49.33943089430894 50,49.33943089430894 50,49.28861788617886 50,49.28861788617886 50,49.28861788617886 50,49.23780487804878 50,49.1869918699187 50,49.1869918699187 50,49.1869918699187 50,49.136178861788615 50,49.136178861788615 50,49.136178861788615 50,49.136178861788615 49.949186991869915,49.136178861788615 49.949186991869915,49.136178861788615 49.949186991869915,49.136178861788615 49.89837398373984,49.1869918699187 49.84756097560975,49.23780487804878 49.796747967479675,49.28861788617886 49.796747967479675,49.390243902439025 49.74593495934959,49.49186991869919 49.69512195121951,49.64430894308943 49.69512195121951,49.74593495934959 49.64430894308943,49.89837398373984 49.59349593495935,50.05081300813008 49.59349593495935,50.203252032520325 49.542682926829265,50.355691056910565 49.542682926829265,50.45731707317073 49.542682926829265,50.609756097560975 49.49186991869919,50.71138211382114 49.49186991869919,50.8130081300813 49.49186991869919,50.86382113821138 49.49186991869919,50.91463414634146 49.49186991869919,50.96544715447154 49.49186991869919,50.96544715447154 49.542682926829265,51.016260162601625 49.542682926829265,51.016260162601625 49.59349593495935,51.0670731707317 49.64430894308943,51.11788617886179 49.69512195121951,51.168699186991866 49.74593495934959,51.21951219512195 49.796747967479675,51.27032520325203" fill="none" stroke="black" stroke-width="0.6"></polyline><polyline points="49.796747967479675,51.27032520325203 49.89837398373984,51.32113821138211 49.949186991869915,51.422764227642276 50.10162601626016,51.52439024390244 50.203252032520325,51.6260162601626 50.30487804878049,51.72764227642276 50.45731707317073,51.880081300813 50.609756097560975,51.93089430894309 50.8130081300813,52.03252032520325 51.0670731707317,52.083333333333336 51.32113821138211,52.083333333333336 51.6260162601626,52.083333333333336 51.981707317073166,52.083333333333336 52.28658536585366,51.981707317073166 52.540650406504064,51.880081300813 52.84552845528455,51.72764227642276 53.15040650406504,51.6260162601626 53.40447154471545,51.47357723577235 53.709349593495936,51.32113821138211 53.96341463414634,51.168699186991866 54.26829268292683,51.016260162601625 54.47154471544715,50.8130081300813 54.67479674796748,50.609756097560975 54.92886178861789,50.355691056910565 55.08130081300813,50.10162601626016 55.233739837398375,49.796747967479675 55.4369918699187,49.4410569105691 55.58943089430894,49.136178861788615 55.6910569105691,48.83130081300813 55.74186991869919,48.52642276422764 55.792682926829265,48.22154471544715 55.792682926829265,47.916666666666664 55.84349593495935,47.61178861788618 55.792682926829265,47.40853658536585 55.6910569105691,47.15447154471545 55.48780487804878,46.951219512195124 55.233739837398375,46.798780487804876 54.8780487804878,46.646341463414636 54.47154471544715,46.54471544715447 54.014227642276424,46.44308943089431 53.45528455284553,46.392276422764226 52.84552845528455,46.34146341463415 52.28658536585366,46.290650406504064 51.77845528455284,46.290650406504064 51.21951219512195,46.239837398373986 50.762195121951216,46.1890243902439 50.30487804878049,46.1890243902439 49.74593495934959,46.13821138211382 49.23780487804878,46.13821138211382 48.729674796747965,46.1890243902439 48.11991869918699,46.34146341463415" fill="none" stroke="black" stroke-width="0.6"></polyline><polyline points="48.11991869918699,46.34146341463415 47.5609756097561,46.49390243902439 47.103658536585364,46.646341463414636 46.697154471544714,46.7479674796748 46.392276422764226,46.90040650406504 46.03658536585366,47.052845528455286 45.73170731707317,47.25609756097561 45.47764227642276,47.459349593495936 45.22357723577235,47.764227642276424 45.02032520325203,48.06910569105691 44.8170731707317,48.42479674796748 44.66463414634146,48.78048780487805 44.46138211382114,49.1869918699187 44.359756097560975,49.542682926829265 44.25813008130081,49.949186991869915 44.15650406504065,50.45731707317073 44.105691056910565,50.91463414634146 44.105691056910565,51.32113821138211 44.105691056910565,51.77845528455284 44.15650406504065,52.235772357723576 44.25813008130081,52.642276422764226 44.359756097560975,53.048780487804876 44.512195121951216,53.353658536585364 44.66463414634146,53.709349593495936 44.86788617886179,54.014227642276424 45.07113821138211,54.26829268292683 45.27439024390244,54.573170731707314 45.52845528455285,54.827235772357724 45.78252032520325,55.03048780487805 46.03658536585366,55.233739837398375 46.34146341463415,55.386178861788615 46.59552845528455,55.53861788617886 46.84959349593496,55.6910569105691 47.15447154471545,55.792682926829265 47.40853658536585,55.89430894308943 47.66260162601626,55.94512195121951 47.96747967479675,56.046747967479675 48.22154471544715,56.046747967479675 48.52642276422764,56.09756097560975 48.83130081300813,56.09756097560975 49.136178861788615,56.14837398373984 49.49186991869919,56.14837398373984 49.84756097560975,56.09756097560975 50.2540650406504,56.046747967479675 50.762195121951216,55.94512195121951 51.21951219512195,55.84349593495935 51.67682926829268,55.74186991869919 52.13414634146341,55.640243902439025 52.59146341463415,55.53861788617886 52.9979674796748,55.4369918699187 53.45528455284553,55.33536585365854" fill="none" stroke="black" stroke-width="0.6"></polyline><polyline points="53.45528455284553,55.33536585365854 53.86178861788618,55.233739837398375 54.26829268292683,55.08130081300813 54.6239837398374,54.92886178861789 54.979674796747965,54.77642276422764 55.48780487804878,54.52235772357724 55.99593495934959,54.11585365853659 56.5040650406504,53.8109756097561 57.012195121951216,53.45528455284553 57.57113821138211,53.048780487804876 58.02845528455284,52.69308943089431 58.43495934959349,52.33739837398374 58.94308943089431,51.880081300813 59.298780487804876,51.52439024390244 59.603658536585364,51.21951219512195 59.90853658536585,50.86382113821138 60.16260162601626,50.50813008130081 60.416666666666664,50.15243902439024 60.61991869918699,49.74593495934959 60.72154471544715,49.390243902439025 60.823170731707314,49.03455284552845 60.823170731707314,48.67886178861789 60.823170731707314,48.323170731707314 60.77235772357724,47.96747967479675 60.670731707317074,47.5609756097561 60.51829268292683,47.20528455284553 60.3150406504065,46.90040650406504 60.16260162601626,46.54471544715447 59.959349593495936,46.239837398373986 59.75609756097561,45.9349593495935 59.552845528455286,45.579268292682926 59.34959349593496,45.27439024390244 59.146341463414636,44.96951219512195 58.892276422764226,44.66463414634146 58.6890243902439,44.46138211382114 58.38414634146341,44.25813008130081 58.079268292682926,44.05487804878049 57.77439024390244,43.90243902439024 57.418699186991866,43.699186991869915 56.96138211382114,43.546747967479675 56.55487804878049,43.39430894308943 56.09756097560975,43.24186991869919 55.6910569105691,43.08943089430894 55.33536585365854,42.9369918699187 54.92886178861789,42.78455284552845 54.573170731707314,42.63211382113821 54.21747967479675,42.479674796747965 53.86178861788618,42.42886178861789 53.45528455284553,42.327235772357724 53.048780487804876,42.327235772357724 52.642276422764226,42.327235772357724" fill="none" stroke="black" stroke-width="0.6"></polyline><polyline points="52.642276422764226,42.327235772357724 52.235772357723576,42.327235772357724 51.829268292682926,42.3780487804878 51.422764227642276,42.479674796747965 50.91463414634146,42.58130081300813 50.40650406504065,42.68292682926829 49.949186991869915,42.78455284552845 49.49186991869919,42.83536585365854 49.08536585365854,42.9369918699187 48.577235772357724,43.08943089430894 48.22154471544715,43.140243902439025 47.86585365853659,43.24186991869919 47.510162601626014,43.292682926829265 47.25609756097561,43.34349593495935 46.951219512195124,43.44512195121951 46.59552845528455,43.546747967479675 46.34146341463415,43.64837398373984 46.03658536585366,43.75 45.73170731707317,43.90243902439024 45.47764227642276,44.05487804878049 45.22357723577235,44.20731707317073 44.96951219512195,44.41056910569105 44.71544715447154,44.5630081300813 44.41056910569105,44.8170731707317 44.105691056910565,45.02032520325203 43.85162601626016,45.22357723577235 43.546747967479675,45.42682926829268 43.292682926829265,45.68089430894309 43.03861788617886,45.88414634146341 42.78455284552845,46.08739837398374 42.53048780487805,46.290650406504064 42.327235772357724,46.49390243902439 42.073170731707314,46.7479674796748 41.86991869918699,47.0020325203252 41.666666666666664,47.25609756097561 41.46341463414634,47.510162601626014 41.209349593495936,47.764227642276424 41.05691056910569,48.06910569105691 40.853658536585364,48.3739837398374 40.65040650406504,48.78048780487805 40.447154471544714,49.08536585365854 40.29471544715447,49.390243902439025 40.09146341463415,49.74593495934959 39.88821138211382,50.15243902439024 39.735772357723576,50.50813008130081 39.583333333333336,50.8130081300813 39.43089430894309,51.11788617886179 39.27845528455285,51.37195121951219 39.176829268292686,51.67682926829268 39.07520325203252,51.93089430894309 39.02439024390244,52.235772357723576" fill="none" stroke="black" stroke-width="0.6"></polyline><polyline points="39.02439024390244,52.235772357723576 38.97357723577235,52.540650406504064 38.922764227642276,52.79471544715447 38.922764227642276,53.09959349593496 38.922764227642276,53.353658536585364 38.922764227642276,53.607723577235774 38.922764227642276,53.86178861788618 38.922764227642276,54.11585365853659 38.922764227642276,54.31910569105691 38.97357723577235,54.6239837398374 38.97357723577235,54.92886178861789 39.02439024390244,55.18292682926829 39.07520325203252,55.4369918699187 39.1260162601626,55.6910569105691 39.176829268292686,55.94512195121951 39.27845528455285,56.199186991869915 39.329268292682926,56.5040650406504 39.43089430894309,56.70731707317073 39.48170731707317,56.96138211382114 39.63414634146341,57.21544715447154 39.735772357723576,57.46951219512195 39.83739837398374,57.672764227642276 39.989837398373986,57.92682926829268 40.142276422764226,58.18089430894309 40.29471544715447,58.43495934959349 40.4979674796748,58.739837398373986 40.7520325203252,59.04471544715447 41.00609756097561,59.298780487804876 41.260162601626014,59.552845528455286 41.514227642276424,59.75609756097561 41.86991869918699,60.010162601626014 42.17479674796748,60.16260162601626 42.479674796747965,60.3150406504065 42.886178861788615,60.46747967479675 43.292682926829265,60.61991869918699 43.75,60.72154471544715 44.20731707317073,60.823170731707314 44.66463414634146,60.92479674796748 45.12195121951219,61.02642276422764 45.68089430894309,61.077235772357724 46.13821138211382,61.1280487804878 46.646341463414636,61.17886178861789 47.25609756097561,61.229674796747965 47.86585365853659,61.229674796747965 48.47560975609756,61.229674796747965 49.1869918699187,61.17886178861789 49.84756097560975,61.1280487804878 50.609756097560975,60.97560975609756 51.422764227642276,60.77235772357724 52.28658536585366,60.46747967479675 53.09959349593496,60.16260162601626" fill="none" stroke="black" stroke-width="0.6"></polyline><polyline points="53.09959349593496,60.16260162601626 53.96341463414634,59.80691056910569 54.67479674796748,59.5020325203252 55.386178861788615,59.146341463414636 56.14837398373984,58.739837398373986 56.859756097560975,58.28252032520325 57.62195121951219,57.825203252032516 58.43495934959349,57.36788617886179 59.04471544715447,56.91056910569105 59.552845528455286,56.5040650406504 60.0609756097561,56.046747967479675 60.416666666666664,55.6910569105691 60.77235772357724,55.28455284552845 61.077235772357724,54.827235772357724 61.33130081300813,54.31910569105691 61.58536585365854,53.8109756097561 61.73780487804878,53.302845528455286 61.83943089430894,52.84552845528455 61.890243902439025,52.33739837398374 61.9410569105691,51.829268292682926 61.99186991869919,51.21951219512195 62.09349593495935,50.55894308943089 62.14430894308943,49.796747967479675 62.24593495934959,49.08536585365854 62.24593495934959,48.323170731707314 62.24593495934959,47.66260162601626 62.24593495934959,47.15447154471545 62.09349593495935,46.697154471544714 61.9410569105691,46.290650406504064 61.73780487804878,45.9349593495935 61.483739837398375,45.52845528455285 61.229674796747965,45.07113821138211 60.92479674796748,44.66463414634146 60.56910569105691,44.25813008130081 60.21341463414634,43.75 59.857723577235774,43.292682926829265 59.451219512195124,42.886178861788615 59.09552845528455,42.479674796747965 58.739837398373986,42.1239837398374 58.38414634146341,41.76829268292683 57.97764227642276,41.46341463414634 57.62195121951219,41.15853658536585 57.21544715447154,40.853658536585364 56.80894308943089,40.65040650406504 56.40243902439024,40.447154471544714 55.99593495934959,40.29471544715447 55.48780487804878,40.19308943089431 54.979674796747965,40.09146341463415 54.36991869918699,40.040650406504064 53.760162601626014,39.9390243902439 53.09959349593496,39.9390243902439" fill="none" stroke="black" stroke-width="0.6"></polyline><polyline points="53.09959349593496,39.9390243902439 52.38821138211382,39.88821138211382 51.72764227642276,39.88821138211382 50.96544715447154,39.88821138211382 50.15243902439024,39.88821138211382 49.390243902439025,39.9390243902439 48.67886178861789,40.040650406504064 47.86585365853659,40.19308943089431 47.15447154471545,40.34552845528455 46.44308943089431,40.4979674796748 45.68089430894309,40.65040650406504 45.02032520325203,40.853658536585364 44.25813008130081,41.05691056910569 43.49593495934959,41.36178861788618 42.83536585365854,41.666666666666664 42.1239837398374,42.073170731707314 41.41260162601626,42.479674796747965 40.802845528455286,42.886178861788615 40.24390243902439,43.24186991869919 39.6849593495935,43.699186991869915 39.27845528455285,44.05487804878049 38.82113821138211,44.46138211382114 38.36382113821138,44.918699186991866 38.00813008130081,45.325203252032516 37.60162601626016,45.73170731707317 37.24593495934959,46.239837398373986 36.9410569105691,46.646341463414636 36.636178861788615,47.103658536585364 36.229674796747965,47.61178861788618 36.02642276422764,47.916666666666664 35.823170731707314,48.323170731707314 35.61991869918699,48.729674796747965 35.416666666666664,49.136178861788615 35.21341463414634,49.542682926829265 35.010162601626014,50.05081300813008 34.857723577235774,50.45731707317073 34.75609756097561,50.86382113821138 34.65447154471545,51.27032520325203 34.603658536585364,51.6260162601626 34.5020325203252,52.083333333333336 34.40040650406504,52.540650406504064 34.34959349593496,52.947154471544714 34.34959349593496,53.40447154471545 34.298780487804876,53.8109756097561 34.298780487804876,54.166666666666664 34.298780487804876,54.47154471544715 34.34959349593496,54.827235772357724 34.451219512195124,55.13211382113821 34.552845528455286,55.4369918699187 34.65447154471545,55.792682926829265 34.75609756097561,56.046747967479675" fill="none" stroke="black" stroke-width="0.6"></polyline><polyline points="34.75609756097561,56.046747967479675 34.90853658536585,56.40243902439024 35.010162601626014,56.75813008130081 35.16260162601626,57.11382113821138 35.264227642276424,57.52032520325203 35.416666666666664,57.92682926829268 35.56910569105691,58.28252032520325 35.72154471544715,58.6890243902439 35.8739837398374,59.09552845528455 36.02642276422764,59.451219512195124 36.17886178861789,59.80691056910569 36.38211382113821,60.11178861788618 36.53455284552845,60.416666666666664 36.78861788617886,60.72154471544715 36.99186991869919,61.02642276422764 37.19512195121951,61.33130081300813 37.449186991869915,61.636178861788615 37.703252032520325,61.890243902439025 37.95731707317073,62.19512195121951 38.262195121951216,62.5 38.516260162601625,62.7540650406504 38.82113821138211,63.00813008130081 39.1260162601626,63.3130081300813 39.43089430894309,63.5670731707317 39.735772357723576,63.87195121951219 40.09146341463415,64.1260162601626 40.447154471544714,64.32926829268293 40.853658536585364,64.53252032520325 41.260162601626014,64.73577235772358 41.71747967479675,64.88821138211382 42.17479674796748,65.04065040650406 42.68292682926829,65.14227642276423 43.140243902439025,65.2439024390244 43.699186991869915,65.34552845528455 44.30894308943089,65.44715447154472 44.8170731707317,65.4979674796748 45.325203252032516,65.59959349593495 45.9349593495935,65.65040650406505 46.49390243902439,65.70121951219512 47.103658536585364,65.7520325203252 47.764227642276424,65.7520325203252 48.323170731707314,65.7520325203252 48.983739837398375,65.7520325203252 49.64430894308943,65.65040650406505 50.30487804878049,65.4979674796748 50.96544715447154,65.34552845528455 51.77845528455284,65.04065040650406 52.540650406504064,64.6849593495935 53.40447154471545,64.27845528455285 54.31910569105691,63.77032520325203 55.18292682926829,63.262195121951216" fill="none" stroke="black" stroke-width="0.6"></polyline><polyline points="55.18292682926829,63.262195121951216 56.046747967479675,62.703252032520325 56.91056910569105,62.14430894308943 57.72357723577235,61.58536585365854 58.536585365853654,60.97560975609756 59.34959349593496,60.3150406504065 60.16260162601626,59.65447154471545 61.02642276422764,58.892276422764226 61.73780487804878,58.231707317073166 62.296747967479675,57.62195121951219 62.80487804878049,57.012195121951216 63.21138211382114,56.40243902439024 63.5670731707317,55.74186991869919 63.922764227642276,55.08130081300813 64.17682926829268,54.420731707317074 64.380081300813,53.760162601626014 64.58333333333333,52.9979674796748 64.78658536585365,52.13414634146341 64.98983739837398,51.27032520325203 65.1930894308943,50.45731707317073 65.29471544715447,49.59349593495935 65.39634146341463,48.78048780487805 65.39634146341463,48.01829268292683 65.34552845528455,47.30691056910569 65.14227642276423,46.7479674796748 64.9390243902439,46.13821138211382 64.58333333333333,45.579268292682926 64.22764227642276,45.07113821138211 63.77032520325203,44.5630081300813 63.262195121951216,44.05487804878049 62.7540650406504,43.546747967479675 62.14430894308943,42.98780487804878 61.483739837398375,42.42886178861789 60.8739837398374,41.97154471544715 60.21341463414634,41.46341463414634 59.552845528455286,40.95528455284553 58.892276422764226,40.4979674796748 58.231707317073166,40.040650406504064 57.52032520325203,39.6849593495935 56.859756097560975,39.27845528455285 56.09756097560975,38.922764227642276 55.33536585365854,38.668699186991866 54.52235772357724,38.41463414634146 53.65853658536585,38.21138211382114 52.79471544715447,38.05894308943089 51.829268292682926,37.95731707317073 50.762195121951216,37.855691056910565 49.74593495934959,37.855691056910565 48.78048780487805,37.80487804878049 47.8150406504065,37.80487804878049 46.951219512195124,37.80487804878049" fill="none" stroke="black" stroke-width="0.6"></polyline><polyline points="46.951219512195124,37.80487804878049 45.985772357723576,37.90650406504065 45.02032520325203,38.00813008130081 44.15650406504065,38.16056910569105 43.24186991869919,38.3130081300813 42.27642276422764,38.5670731707317 41.36178861788618,38.82113821138211 40.396341463414636,39.176829268292686 39.43089430894309,39.583333333333336 38.5670731707317,39.989837398373986 37.703252032520325,40.396341463414636 36.78861788617886,40.802845528455286 36.02642276422764,41.209349593495936 35.264227642276424,41.666666666666664 34.451219512195124,42.17479674796748 33.739837398373986,42.68292682926829 33.079268292682926,43.1910569105691 32.46951219512195,43.699186991869915 31.910569105691057,44.20731707317073 31.351626016260163,44.766260162601625 30.89430894308943,45.325203252032516 30.48780487804878,45.833333333333336 30.132113821138212,46.392276422764226 29.776422764227643,46.951219512195124 29.420731707317074,47.5609756097561 29.115853658536583,48.27235772357724 28.861788617886177,48.83130081300813 28.709349593495933,49.33943089430894 28.506097560975608,49.949186991869915 28.353658536585364,50.55894308943089 28.2520325203252,51.11788617886179 28.20121951219512,51.6260162601626 28.15040650406504,52.083333333333336 28.15040650406504,52.540650406504064 28.2520325203252,53.048780487804876 28.353658536585364,53.50609756097561 28.455284552845526,53.96341463414634 28.55691056910569,54.420731707317074 28.709349593495933,54.92886178861789 28.861788617886177,55.4369918699187 29.01422764227642,55.99593495934959 29.217479674796746,56.55487804878049 29.420731707317074,57.16463414634146 29.573170731707318,57.72357723577235 29.827235772357724,58.33333333333333 30.03048780487805,58.84146341463415 30.284552845528456,59.451219512195124 30.538617886178862,60.010162601626014 30.84349593495935,60.56910569105691 31.097560975609756,61.1280487804878 31.453252032520325,61.6869918699187" fill="none" stroke="black" stroke-width="0.6"></polyline><polyline points="31.453252032520325,61.6869918699187 31.808943089430894,62.14430894308943 32.21544715447154,62.703252032520325 32.6219512195122,63.16056910569105 33.02845528455285,63.668699186991866 33.485772357723576,64.22764227642276 33.94308943089431,64.6341463414634 34.451219512195124,65.09146341463415 34.959349593495936,65.59959349593495 35.46747967479675,66.0569105691057 35.97560975609756,66.46341463414635 36.58536585365854,66.869918699187 37.14430894308943,67.22560975609755 37.80487804878049,67.58130081300813 38.46544715447154,67.9369918699187 39.07520325203252,68.24186991869918 39.735772357723576,68.4959349593496 40.447154471544714,68.75 41.107723577235774,68.90243902439025 41.81910569105691,69.10569105691057 42.58130081300813,69.2581300813008 43.292682926829265,69.35975609756098 44.05487804878049,69.46138211382113 44.86788617886179,69.51219512195122 45.63008130081301,69.5630081300813 46.44308943089431,69.5630081300813 47.25609756097561,69.51219512195122 48.01829268292683,69.41056910569105 48.78048780487805,69.3089430894309 49.59349593495935,69.15650406504065 50.40650406504065,68.90243902439025 51.27032520325203,68.64837398373983 52.1849593495935,68.34349593495935 52.947154471544714,68.03861788617886 53.8109756097561,67.73373983739837 54.72560975609756,67.32723577235772 55.58943089430894,66.97154471544715 56.453252032520325,66.5650406504065 57.418699186991866,66.10772357723577 58.33333333333333,65.65040650406505 59.2479674796748,65.1930894308943 60.16260162601626,64.78658536585365 60.97560975609756,64.32926829268293 61.83943089430894,63.87195121951219 62.65243902439024,63.41463414634146 63.41463414634146,63.00813008130081 64.17682926829268,62.55081300813008 64.98983739837398,62.09349593495935 65.7520325203252,61.58536585365854 66.51422764227642,61.077235772357724 67.3780487804878,60.51829268292683" fill="none" stroke="black" stroke-width="0.6"></polyline><polyline points="67.3780487804878,60.51829268292683 68.1910569105691,59.959349593495936 69.05487804878048,59.40040650406504 69.86788617886178,58.84146341463415 70.57926829268293,58.33333333333333 71.23983739837398,57.825203252032516 71.79878048780488,57.418699186991866 72.2560975609756,57.012195121951216 72.61178861788618,56.65650406504065 72.96747967479675,56.25 73.32317073170732,55.89430894308943 73.6280487804878,55.48780487804878 73.98373983739837,55.13211382113821 74.28861788617886,54.72560975609756 74.64430894308943,54.26829268292683 75,53.8109756097561 75.35569105691057,53.40447154471545 75.66056910569105,53.048780487804876 75.96544715447155,52.69308943089431 76.16869918699187,52.33739837398374 76.3719512195122,52.03252032520325 76.52439024390243,51.72764227642276 76.57520325203252,51.52439024390244 76.6260162601626,51.32113821138211 76.6260162601626,51.21951219512195 76.67682926829268,51.0670731707317 76.67682926829268,50.91463414634146 76.67682926829268,50.8130081300813 76.67682926829268,50.71138211382114 76.67682926829268,50.66056910569105 76.67682926829268,50.55894308943089 76.67682926829268,50.50813008130081 76.67682926829268,50.45731707317073 76.67682926829268,50.40650406504065 76.67682926829268,50.355691056910565 76.67682926829268,50.2540650406504 76.67682926829268,50.203252032520325 76.67682926829268,50.15243902439024 76.72764227642276,50.05081300813008 76.72764227642276,49.949186991869915 76.72764227642276,49.89837398373984 76.72764227642276,49.796747967479675 76.72764227642276,49.74593495934959 76.72764227642276,49.69512195121951 76.72764227642276,49.64430894308943 76.72764227642276,49.59349593495935 76.72764227642276,49.59349593495935 76.72764227642276,49.542682926829265 76.72764227642276,49.542682926829265 76.72764227642276,49.542682926829265 76.72764227642276,49.49186991869919" fill="none" stroke="black" stroke-width="0.6"></polyline><polyline points="76.72764227642276,49.49186991869919 76.72764227642276,49.49186991869919 76.72764227642276,49.49186991869919 76.72764227642276,49.49186991869919 76.72764227642276,49.49186991869919 76.72764227642276,49.49186991869919 76.72764227642276,49.49186991869919 76.72764227642276,49.49186991869919 76.72764227642276,49.49186991869919 76.72764227642276,49.49186991869919 76.72764227642276,49.49186991869919 76.72764227642276,49.49186991869919 76.72764227642276,49.49186991869919 76.72764227642276,49.49186991869919 76.72764227642276,49.49186991869919 76.72764227642276,49.49186991869919 76.72764227642276,49.49186991869919 76.72764227642276,49.49186991869919 76.72764227642276,49.49186991869919 76.72764227642276,49.49186991869919 76.72764227642276,49.49186991869919 76.72764227642276,49.49186991869919 76.72764227642276,49.49186991869919 76.77845528455285,49.542682926829265" fill="none" stroke="black" stroke-width="0.6"></polyline></svg>