<svg height="100" width="100" preserveAspectRatio="xMidYMid meet"><polyline points="16.006097560975608,13.3130081300813 15.853658536585366,13.3130081300813 15.802845528455284,13.3130081300813 15.701219512195122,13.3130081300813 15.65040650406504,13.3130081300813 15.548780487804878,13.3130081300813 15.497967479674797,13.3130081300813 15.447154471544716,13.3130081300813 15.447154471544716,13.3130081300813 15.396341463414634,13.3130081300813 15.396341463414634,13.3130081300813 15.396341463414634,13.262195121951219 15.396341463414634,13.211382113821138 15.396341463414634,13.160569105691057 15.396341463414634,13.109756097560975 15.396341463414634,13.058943089430894 15.396341463414634,13.008130081300813 15.396341463414634,13.008130081300813 15.396341463414634,12.957317073170731 15.396341463414634,12.957317073170731 15.396341463414634,12.90650406504065 15.396341463414634,12.855691056910569 15.396341463414634,12.804878048780488 15.396341463414634,12.804878048780488 15.396341463414634,12.754065040650406 15.396341463414634,12.754065040650406 15.396341463414634,12.754065040650406 15.345528455284553,12.703252032520325 15.345528455284553,12.703252032520325 15.345528455284553,12.703252032520325 15.294715447154472,12.703252032520325 15.294715447154472,12.703252032520325 15.294715447154472,12.703252032520325 15.19308943089431,12.703252032520325 15.142276422764228,12.703252032520325 15.040650406504065,12.703252032520325 14.989837398373984,12.703252032520325 14.939024390243903,12.703252032520325 14.83739837398374,12.754065040650406 14.786585365853659,12.804878048780488 14.684959349593496,12.855691056910569 14.53252032520325,12.957317073170731 14.329268292682926,13.109756097560975 14.176829268292682,13.3130081300813 14.024390243902438,13.516260162601625 13.922764227642276,13.71951219512195 13.821138211382113,13.973577235772357 13.770325203252032,14.227642276422763 13.71951219512195,14.53252032520325 13.71951219512195,14.83739837398374 13.71951219512195,15.040650406504065" fill="none" stroke="black" stroke-width="0.6"></polyline><polyline points="13.71951219512195,15.040650406504065 13.821138211382113,15.24390243902439 13.922764227642276,15.447154471544716 14.07520325203252,15.548780487804878 14.176829268292682,15.59959349593496 14.278455284552845,15.65040650406504 14.329268292682926,15.65040650406504 14.430894308943088,15.65040650406504 14.583333333333332,15.65040650406504 14.735772357723578,15.59959349593496 14.786585365853659,15.548780487804878 14.989837398373984,15.294715447154472 15.142276422764228,15.091463414634147 15.294715447154472,14.83739837398374 15.396341463414634,14.53252032520325 15.447154471544716,14.380081300813007 15.497967479674797,14.227642276422763 15.59959349593496,13.922764227642276 15.59959349593496,13.770325203252032 15.65040650406504,13.66869918699187 15.701219512195122,13.414634146341463 15.701219512195122,13.363821138211382 15.701219512195122,13.3130081300813 15.701219512195122,13.211382113821138 15.701219512195122,13.211382113821138 15.701219512195122,13.109756097560975 15.701219512195122,13.109756097560975 15.701219512195122,13.109756097560975 15.701219512195122,13.109756097560975 15.701219512195122,13.109756097560975 15.65040650406504,13.109756097560975 15.65040650406504,13.109756097560975 15.65040650406504,13.109756097560975 15.65040650406504,13.109756097560975 15.65040650406504,13.160569105691057 15.65040650406504,13.160569105691057 15.65040650406504,13.211382113821138 15.65040650406504,13.3130081300813 15.65040650406504,13.414634146341463 15.548780487804878,13.617886178861788 15.497967479674797,13.871951219512194 15.447154471544716,14.176829268292682 15.345528455284553,14.53252032520325 15.345528455284553,14.888211382113822 15.345528455284553,15.040650406504065 15.345528455284553,15.19308943089431 15.396341463414634,15.294715447154472 15.548780487804878,15.497967479674797 15.802845528455284,15.59959349593496 16.10772357723577,15.59959349593496 16.3109756097561,15.548780487804878" fill="none" stroke="black" stroke-width="0.6"></polyline><polyline points="16.3109756097561,15.548780487804878 16.514227642276424,15.447154471544716 16.869918699186993,15.24390243902439 17.022357723577237,15.142276422764228 17.276422764227643,14.939024390243903 17.479674796747968,14.735772357723578 17.58130081300813,14.684959349593496 17.58130081300813,14.634146341463413 17.58130081300813,14.634146341463413 17.58130081300813,14.634146341463413 17.53048780487805,14.634146341463413 17.479674796747968,14.634146341463413 17.428861788617887,14.684959349593496 17.428861788617887,14.684959349593496 17.378048780487806,14.786585365853659 17.327235772357724,14.888211382113822" fill="none" stroke="black" stroke-width="0.6"></polyline><polyline points="30.84349593495935,10.873983739837398 30.79268292682927,10.823170731707316 30.741869918699187,10.721544715447154 30.741869918699187,10.670731707317072 30.691056910569106,10.619918699186991 30.691056910569106,10.619918699186991 30.640243902439025,10.56910569105691 30.640243902439025,10.56910569105691 30.640243902439025,10.518292682926829 30.640243902439025,10.518292682926829 30.640243902439025,10.518292682926829 30.640243902439025,10.518292682926829 30.640243902439025,10.518292682926829 30.691056910569106,10.56910569105691 30.741869918699187,10.670731707317072 30.79268292682927,10.873983739837398 30.79268292682927,11.178861788617885 30.79268292682927,11.6869918699187 30.79268292682927,12.347560975609756 30.741869918699187,13.109756097560975 30.691056910569106,13.821138211382113 30.640243902439025,14.380081300813007 30.640243902439025,14.684959349593496 30.640243902439025,14.83739837398374 30.640243902439025,14.888211382113822 30.640243902439025,14.83739837398374 30.640243902439025,14.786585365853659 30.589430894308943,14.735772357723578 30.538617886178862,14.583333333333332 30.538617886178862,14.380081300813007 30.48780487804878,14.1260162601626 30.48780487804878,13.871951219512194 30.48780487804878,13.66869918699187 30.48780487804878,13.516260162601625 30.48780487804878,13.363821138211382 30.48780487804878,13.211382113821138 30.538617886178862,13.211382113821138 30.538617886178862,13.160569105691057 30.691056910569106,13.109756097560975 30.79268292682927,13.109756097560975 30.89430894308943,13.109756097560975 30.995934959349594,13.109756097560975 31.097560975609756,13.109756097560975 31.19918699186992,13.109756097560975 31.351626016260163,13.109756097560975 31.504065040650406,13.109756097560975 31.758130081300813,13.109756097560975 31.910569105691057,13.109756097560975 32.0630081300813,13.109756097560975 32.3170731707317,13.160569105691057 32.418699186991866,13.211382113821138" fill="none" stroke="black" stroke-width="0.6"></polyline><polyline points="32.418699186991866,13.211382113821138 32.57113821138211,13.262195121951219 32.72357723577236,13.3130081300813 32.77439024390244,13.414634146341463 32.82520325203252,13.516260162601625 32.8760162601626,13.617886178861788 32.8760162601626,13.770325203252032 32.77439024390244,13.973577235772357 32.6219512195122,14.227642276422763 32.418699186991866,14.430894308943088 32.21544715447154,14.634146341463413 31.961382113821138,14.786585365853659 31.859756097560975,14.83739837398374 31.758130081300813,14.888211382113822 31.60569105691057,14.939024390243903 31.504065040650406,14.989837398373984 31.25,14.989837398373984 30.995934959349594,14.989837398373984 30.79268292682927,14.989837398373984 30.589430894308943,14.888211382113822 30.4369918699187,14.83739837398374 30.284552845528456,14.786585365853659 30.132113821138212,14.735772357723578 30.08130081300813,14.735772357723578 29.979674796747968,14.735772357723578 29.928861788617887,14.735772357723578 29.878048780487806,14.786585365853659 29.827235772357724,14.888211382113822" fill="none" stroke="black" stroke-width="0.6"></polyline><polyline points="48.27235772357724,12.296747967479675 48.27235772357724,12.296747967479675 48.22154471544715,12.296747967479675 48.22154471544715,12.296747967479675 48.22154471544715,12.296747967479675 48.22154471544715,12.347560975609756 48.22154471544715,12.398373983739837 48.22154471544715,12.449186991869919 48.22154471544715,12.449186991869919 48.22154471544715,12.550813008130081 48.22154471544715,12.652439024390244 48.22154471544715,12.703252032520325 48.27235772357724,12.804878048780488 48.27235772357724,12.855691056910569 48.323170731707314,12.855691056910569 48.323170731707314,12.90650406504065 48.323170731707314,12.90650406504065 48.323170731707314,12.90650406504065 48.3739837398374,12.957317073170731 48.3739837398374,12.957317073170731 48.3739837398374,12.957317073170731 48.3739837398374,12.957317073170731 48.42479674796748,12.957317073170731 48.42479674796748,12.957317073170731 48.42479674796748,12.957317073170731 48.42479674796748,12.957317073170731 48.42479674796748,12.957317073170731 48.42479674796748,12.855691056910569 48.42479674796748,12.804878048780488 48.42479674796748,12.703252032520325 48.42479674796748,12.550813008130081 48.42479674796748,12.449186991869919 48.42479674796748,12.398373983739837 48.42479674796748,12.296747967479675 48.42479674796748,12.245934959349594 48.42479674796748,12.144308943089431 48.42479674796748,12.09349593495935 48.3739837398374,12.042682926829269 48.3739837398374,11.991869918699187 48.323170731707314,11.941056910569106 48.27235772357724,11.941056910569106 48.11991869918699,11.941056910569106 47.96747967479675,11.991869918699187 47.764227642276424,12.195121951219512 47.5609756097561,12.398373983739837 47.459349593495936,12.550813008130081 47.357723577235774,12.703252032520325 47.25609756097561,12.804878048780488 47.15447154471545,13.109756097560975 47.052845528455286,13.363821138211382 47.052845528455286,13.465447154471544" fill="none" stroke="black" stroke-width="0.6"></polyline><polyline points="47.052845528455286,13.465447154471544 47.052845528455286,13.567073170731707 47.052845528455286,13.821138211382113 47.20528455284553,14.024390243902438 47.357723577235774,14.176829268292682 47.510162601626014,14.227642276422763 47.61178861788618,14.329268292682926 47.71341463414634,14.380081300813007 47.86585365853659,14.430894308943088 48.01829268292683,14.430894308943088 48.170731707317074,14.48170731707317 48.323170731707314,14.48170731707317 48.52642276422764,14.48170731707317 48.88211382113821,14.430894308943088 49.28861788617886,14.329268292682926 49.69512195121951,14.1260162601626 49.949186991869915,14.024390243902438 50.10162601626016,13.922764227642276 50.15243902439024,13.871951219512194 50.15243902439024,13.871951219512194 50.15243902439024,13.821138211382113 50.15243902439024,13.821138211382113 50.10162601626016,13.821138211382113 50.05081300813008,13.770325203252032 50,13.770325203252032 49.89837398373984,13.71951219512195 49.84756097560975,13.71951219512195 49.796747967479675,13.66869918699187 49.74593495934959,13.66869918699187 49.69512195121951,13.66869918699187 49.69512195121951,13.66869918699187 49.69512195121951,13.66869918699187 49.69512195121951,13.66869918699187 49.69512195121951,13.66869918699187 49.69512195121951,13.66869918699187 49.74593495934959,13.66869918699187" fill="none" stroke="black" stroke-width="0.6"></polyline><polyline points="65.2439024390244,13.465447154471544 65.2439024390244,13.465447154471544 65.34552845528455,13.414634146341463 65.39634146341463,13.363821138211382 65.44715447154472,13.3130081300813 65.54878048780488,13.262195121951219 65.59959349593495,13.160569105691057 65.65040650406505,13.109756097560975 65.70121951219512,13.008130081300813 65.70121951219512,12.90650406504065 65.70121951219512,12.804878048780488 65.70121951219512,12.703252032520325 65.70121951219512,12.550813008130081 65.65040650406505,12.449186991869919 65.54878048780488,12.398373983739837 65.44715447154472,12.296747967479675 65.2439024390244,12.296747967479675 64.98983739837398,12.296747967479675 64.6341463414634,12.398373983739837 64.17682926829268,12.601626016260163 63.71951219512195,12.90650406504065 63.3130081300813,13.211382113821138 63.16056910569105,13.3130081300813 63.00813008130081,13.465447154471544 62.7540650406504,13.770325203252032 62.703252032520325,14.024390243902438 62.703252032520325,14.227642276422763 62.703252032520325,14.329268292682926 62.80487804878049,14.380081300813007 62.855691056910565,14.430894308943088 62.95731707317073,14.48170731707317 63.21138211382114,14.48170731707317 63.5670731707317,14.48170731707317 63.922764227642276,14.380081300813007 64.380081300813,14.176829268292682 64.88821138211382,13.922764227642276 65.29471544715447,13.617886178861788 65.65040650406505,13.3130081300813 65.95528455284553,12.957317073170731 66.10772357723577,12.703252032520325 66.15853658536585,12.550813008130081 66.15853658536585,12.398373983739837" fill="none" stroke="black" stroke-width="0.6"></polyline><polyline points="65.65040650406505,10.56910569105691 65.54878048780488,10.416666666666666 65.54878048780488,10.365853658536585 65.54878048780488,10.315040650406504 65.54878048780488,10.315040650406504 65.54878048780488,10.315040650406504 65.54878048780488,10.315040650406504 65.54878048780488,10.365853658536585 65.54878048780488,10.467479674796747 65.54878048780488,10.619918699186991 65.4979674796748,10.873983739837398 65.39634146341463,11.229674796747966 65.2439024390244,11.737804878048781 65.14227642276423,12.347560975609756 65.04065040650406,12.703252032520325 64.98983739837398,13.008130081300813 64.9390243902439,13.3130081300813 64.9390243902439,13.567073170731707 64.9390243902439,13.973577235772357 64.9390243902439,14.227642276422763 64.98983739837398,14.380081300813007 65.04065040650406,14.430894308943088 65.09146341463415,14.430894308943088 65.14227642276423,14.430894308943088 65.1930894308943,14.430894308943088 65.2439024390244,14.430894308943088 65.2439024390244,14.380081300813007 65.29471544715447,14.329268292682926 65.29471544715447,14.329268292682926 65.29471544715447,14.227642276422763 65.34552845528455,14.176829268292682 65.34552845528455,14.07520325203252 65.34552845528455,14.024390243902438 65.34552845528455,14.024390243902438 65.34552845528455,14.024390243902438 65.34552845528455,13.973577235772357 65.34552845528455,13.973577235772357 65.34552845528455,13.973577235772357 65.34552845528455,13.973577235772357 65.34552845528455,13.973577235772357 65.34552845528455,13.973577235772357 65.34552845528455,13.973577235772357 65.34552845528455,13.973577235772357 65.34552845528455,13.973577235772357 65.34552845528455,13.973577235772357 65.34552845528455,13.973577235772357" fill="none" stroke="black" stroke-width="0.6"></polyline><polyline points="79.369918699187,13.160569105691057 79.3191056910569,13.160569105691057 79.3191056910569,13.160569105691057 79.3191056910569,13.160569105691057 79.26829268292683,13.160569105691057 79.26829268292683,13.109756097560975 79.26829268292683,13.109756097560975 79.26829268292683,13.109756097560975 79.26829268292683,13.109756097560975 79.26829268292683,13.109756097560975 79.26829268292683,13.058943089430894 79.369918699187,12.957317073170731 79.369918699187,12.957317073170731 79.369918699187,12.957317073170731 79.369918699187,12.957317073170731 79.369918699187,12.957317073170731 79.369918699187,12.90650406504065 79.369918699187,12.90650406504065 79.369918699187,12.90650406504065 79.369918699187,12.90650406504065 79.369918699187,12.90650406504065 79.369918699187,12.90650406504065 79.369918699187,12.90650406504065 79.369918699187,12.855691056910569 79.369918699187,12.855691056910569 79.369918699187,12.855691056910569 79.369918699187,12.855691056910569 79.369918699187,12.855691056910569 79.369918699187,12.855691056910569 79.369918699187,12.855691056910569 79.369918699187,12.855691056910569 79.369918699187,12.855691056910569 79.369918699187,12.855691056910569 79.369918699187,12.855691056910569 79.369918699187,12.855691056910569 79.369918699187,12.855691056910569 79.369918699187,12.855691056910569 79.369918699187,12.855691056910569 79.369918699187,12.855691056910569 79.369918699187,12.855691056910569 79.369918699187,12.855691056910569 79.369918699187,12.855691056910569 79.369918699187,12.855691056910569 79.369918699187,12.855691056910569 79.369918699187,12.855691056910569 79.369918699187,12.855691056910569 79.369918699187,12.855691056910569 79.369918699187,12.855691056910569 79.369918699187,12.855691056910569 79.369918699187,12.855691056910569 79.369918699187,12.855691056910569" fill="none" stroke="black" stroke-width="0.6"></polyline><polyline points="79.369918699187,12.855691056910569 79.369918699187,12.855691056910569 79.369918699187,12.855691056910569 79.369918699187,12.855691056910569 79.369918699187,12.855691056910569 79.369918699187,12.855691056910569 79.369918699187,12.855691056910569 79.369918699187,12.855691056910569 79.369918699187,12.855691056910569 79.369918699187,12.855691056910569 79.369918699187,12.855691056910569 79.369918699187,12.855691056910569 79.369918699187,12.855691056910569 79.369918699187,12.855691056910569 79.369918699187,12.855691056910569 79.369918699187,12.855691056910569 79.369918699187,12.855691056910569 79.369918699187,12.855691056910569 79.369918699187,12.855691056910569 79.369918699187,12.855691056910569 79.369918699187,12.855691056910569 79.369918699187,12.855691056910569 79.369918699187,12.855691056910569 79.369918699187,12.855691056910569 79.369918699187,12.855691056910569 79.369918699187,12.855691056910569 79.369918699187,12.855691056910569 79.369918699187,12.855691056910569 79.369918699187,12.855691056910569 79.369918699187,12.855691056910569 79.369918699187,12.855691056910569 79.369918699187,12.855691056910569 79.369918699187,12.855691056910569 79.369918699187,12.855691056910569 79.369918699187,12.855691056910569 79.369918699187,12.855691056910569 79.369918699187,12.855691056910569 79.369918699187,12.855691056910569 79.369918699187,12.855691056910569 79.369918699187,12.855691056910569 79.369918699187,12.855691056910569 79.369918699187,12.855691056910569 79.369918699187,12.855691056910569 79.369918699187,12.855691056910569 79.369918699187,12.855691056910569 79.369918699187,12.855691056910569 79.369918699187,12.855691056910569 79.369918699187,12.855691056910569 79.369918699187,12.855691056910569 79.369918699187,12.855691056910569 79.369918699187,12.855691056910569" fill="none" stroke="black" stroke-width="0.6"></polyline><polyline points="79.369918699187,12.855691056910569 79.369918699187,12.855691056910569 79.369918699187,12.855691056910569 79.369918699187,12.855691056910569 79.369918699187,12.855691056910569 79.369918699187,12.855691056910569 79.369918699187,12.855691056910569 79.369918699187,12.855691056910569 79.369918699187,12.855691056910569 79.369918699187,12.855691056910569 79.369918699187,12.855691056910569 79.369918699187,12.855691056910569 79.369918699187,12.855691056910569 79.369918699187,12.855691056910569 79.369918699187,12.855691056910569 79.369918699187,12.855691056910569 79.369918699187,12.855691056910569 79.369918699187,12.855691056910569 79.369918699187,12.855691056910569 79.369918699187,12.855691056910569 79.369918699187,12.855691056910569 79.369918699187,12.855691056910569 79.369918699187,12.855691056910569 79.369918699187,12.855691056910569 79.369918699187,12.855691056910569 79.369918699187,12.855691056910569 79.369918699187,12.855691056910569 79.369918699187,12.855691056910569 79.369918699187,12.855691056910569 79.369918699187,12.855691056910569 79.369918699187,12.855691056910569 79.369918699187,12.855691056910569 79.369918699187,12.855691056910569 79.369918699187,12.855691056910569 79.369918699187,12.855691056910569 79.369918699187,12.855691056910569 79.369918699187,12.855691056910569 79.369918699187,12.855691056910569 79.369918699187,12.855691056910569 79.369918699187,12.855691056910569 79.369918699187,12.855691056910569 79.369918699187,12.855691056910569 79.369918699187,12.855691056910569 79.369918699187,12.855691056910569 79.369918699187,12.855691056910569 79.369918699187,12.855691056910569 79.369918699187,12.855691056910569 79.369918699187,12.855691056910569 79.369918699187,12.855691056910569 79.369918699187,12.855691056910569 79.369918699187,12.855691056910569" fill="none" stroke="black" stroke-width="0.6"></polyline><polyline points="79.369918699187,12.855691056910569 79.369918699187,12.855691056910569 79.369918699187,12.855691056910569 79.369918699187,12.855691056910569 79.369918699187,12.855691056910569 79.369918699187,12.855691056910569 79.369918699187,12.855691056910569 79.369918699187,12.855691056910569 79.369918699187,12.855691056910569 79.369918699187,12.855691056910569 79.369918699187,12.855691056910569 79.369918699187,12.855691056910569 79.369918699187,12.855691056910569 79.369918699187,12.855691056910569 79.369918699187,12.855691056910569" fill="none" stroke="black" stroke-width="0.6"></polyline><polyline points="78.40447154471545,13.66869918699187 78.40447154471545,13.71951219512195 78.35365853658537,13.71951219512195 78.2520325203252,13.770325203252032 78.15040650406505,13.770325203252032 78.15040650406505,13.821138211382113 78.09959349593495,13.821138211382113 78.09959349593495,13.821138211382113 78.04878048780488,13.871951219512194 78.04878048780488,13.871951219512194 78.04878048780488,13.871951219512194 78.04878048780488,13.871951219512194 78.04878048780488,13.871951219512194 78.04878048780488,13.871951219512194 78.04878048780488,13.922764227642276 78.04878048780488,13.922764227642276 78.04878048780488,13.922764227642276 78.04878048780488,13.922764227642276 78.04878048780488,13.922764227642276 78.04878048780488,13.922764227642276 78.09959349593495,13.922764227642276 78.15040650406505,13.871951219512194 78.30284552845528,13.770325203252032 78.5060975609756,13.66869918699187 78.76016260162602,13.465447154471544 78.96341463414635,13.363821138211382 79.11585365853658,13.262195121951219 79.57317073170732,12.957317073170731 80.08130081300813,12.550813008130081 80.28455284552845,12.347560975609756 80.53861788617886,12.195121951219512 80.84349593495935,11.839430894308943 81.09756097560975,11.534552845528456 81.19918699186992,11.331300813008129 81.25,11.229674796747966 81.25,11.077235772357723 81.25,11.077235772357723 81.25,11.026422764227641 81.25,10.924796747967479 81.19918699186992,10.873983739837398 81.14837398373983,10.873983739837398 81.04674796747967,10.873983739837398 80.89430894308943,10.873983739837398 80.6910569105691,10.924796747967479 80.33536585365853,11.128048780487804 79.92886178861788,11.432926829268293 79.57317073170732,11.788617886178862 79.16666666666667,12.195121951219512 78.8109756097561,12.601626016260163 78.60772357723577,12.957317073170731 78.5060975609756,13.262195121951219" fill="none" stroke="black" stroke-width="0.6"></polyline><polyline points="78.5060975609756,13.262195121951219 78.5060975609756,13.363821138211382 78.5060975609756,13.465447154471544 78.65853658536585,13.567073170731707 78.70934959349593,13.617886178861788 79.01422764227642,13.617886178861788 79.42073170731707,13.567073170731707 79.92886178861788,13.465447154471544 80.1321138211382,13.363821138211382 80.4369918699187,13.262195121951219 80.9959349593496,13.058943089430894 81.30081300813008,12.90650406504065 81.60569105691057,12.804878048780488 81.85975609756098,12.703252032520325 82.11382113821138,12.601626016260163 82.3170731707317,12.5 82.67276422764228,12.347560975609756 82.8760162601626,12.245934959349594 83.07926829268293,12.195121951219512 83.23170731707317,12.144308943089431 83.28252032520325,12.144308943089431 83.33333333333333,12.144308943089431 83.33333333333333,12.144308943089431 83.33333333333333,12.144308943089431 83.33333333333333,12.144308943089431 83.33333333333333,12.195121951219512 83.33333333333333,12.195121951219512 83.33333333333333,12.195121951219512 83.33333333333333,12.195121951219512 83.28252032520325,12.195121951219512 83.28252032520325,12.195121951219512 83.28252032520325,12.195121951219512 83.23170731707317,12.195121951219512 83.23170731707317,12.195121951219512 83.23170731707317,12.195121951219512 83.23170731707317,12.195121951219512 83.18089430894308,12.195121951219512 83.18089430894308,12.195121951219512 83.18089430894308,12.195121951219512 83.18089430894308,12.195121951219512 83.18089430894308,12.195121951219512 83.18089430894308,12.245934959349594" fill="none" stroke="black" stroke-width="0.6"></polyline><polyline points="14.024390243902438,26.321138211382113 13.973577235772357,26.321138211382113 13.973577235772357,26.321138211382113 13.973577235772357,26.321138211382113 13.922764227642276,26.270325203252032 13.922764227642276,26.270325203252032 13.871951219512194,26.270325203252032 13.871951219512194,26.270325203252032 13.871951219512194,26.21951219512195 13.871951219512194,26.21951219512195 13.871951219512194,26.21951219512195 13.871951219512194,26.21951219512195 13.871951219512194,26.21951219512195 13.871951219512194,26.21951219512195 13.871951219512194,26.21951219512195 13.871951219512194,26.21951219512195 13.922764227642276,26.21951219512195 13.973577235772357,26.270325203252032 14.024390243902438,26.321138211382113 14.07520325203252,26.321138211382113 14.176829268292682,26.321138211382113 14.329268292682926,26.371951219512194 14.430894308943088,26.371951219512194 14.634146341463413,26.270325203252032 14.786585365853659,26.16869918699187 14.939024390243903,26.067073170731707 15.091463414634147,25.86382113821138 15.294715447154472,25.660569105691057 15.65040650406504,25.152439024390244 15.904471544715447,24.59349593495935 16.15853658536585,24.085365853658537 16.260162601626014,23.678861788617887 16.3109756097561,23.3739837398374 16.3109756097561,23.119918699186993 16.3109756097561,23.06910569105691 16.260162601626014,23.01829268292683 16.209349593495933,22.96747967479675 16.15853658536585,22.96747967479675 16.10772357723577,22.96747967479675 16.10772357723577,22.96747967479675 16.05691056910569,22.96747967479675 16.006097560975608,22.96747967479675 15.904471544715447,23.06910569105691 15.853658536585366,23.170731707317074 15.65040650406504,23.42479674796748 15.447154471544716,23.78048780487805 15.19308943089431,24.288617886178862 14.939024390243903,24.847560975609756 14.786585365853659,25.152439024390244 14.684959349593496,25.508130081300813 14.53252032520325,25.86382113821138" fill="none" stroke="black" stroke-width="0.6"></polyline><polyline points="14.53252032520325,25.86382113821138 14.278455284552845,26.57520325203252 14.176829268292682,26.880081300813007 14.07520325203252,27.184959349593495 13.821138211382113,27.896341463414632 13.71951219512195,28.15040650406504 13.567073170731707,28.455284552845526 13.465447154471544,28.760162601626014 13.3130081300813,29.01422764227642 13.211382113821138,29.268292682926827 13.058943089430894,29.6239837398374 12.957317073170731,29.827235772357724 12.804878048780488,30.08130081300813 12.601626016260163,30.538617886178862 12.550813008130081,30.691056910569106 12.5,30.89430894308943 12.449186991869919,31.097560975609756 12.449186991869919,31.148373983739837 12.449186991869919,31.19918699186992 12.5,31.25 12.550813008130081,31.30081300813008 12.601626016260163,31.351626016260163 12.754065040650406,31.351626016260163 12.855691056910569,31.351626016260163 12.957317073170731,31.351626016260163 13.109756097560975,31.30081300813008 13.262195121951219,31.19918699186992 13.363821138211382,31.097560975609756 13.516260162601625,30.995934959349594 13.821138211382113,30.691056910569106 14.1260162601626,30.335365853658537 14.430894308943088,29.878048780487806 14.684959349593496,29.369918699186993 14.939024390243903,28.861788617886177 15.091463414634147,28.404471544715445 15.142276422764228,27.947154471544714 15.142276422764228,27.693089430894307 15.142276422764228,27.540650406504064 15.091463414634147,27.33739837398374 15.040650406504065,27.184959349593495 14.989837398373984,27.03252032520325 14.939024390243903,26.93089430894309 14.83739837398374,26.778455284552845 14.735772357723578,26.727642276422763 14.53252032520325,26.6260162601626 14.329268292682926,26.57520325203252 14.024390243902438,26.57520325203252 13.71951219512195,26.6260162601626 13.465447154471544,26.778455284552845 13.160569105691057,26.98170731707317 12.957317073170731,27.134146341463413" fill="none" stroke="black" stroke-width="0.6"></polyline><polyline points="12.957317073170731,27.134146341463413 12.855691056910569,27.33739837398374 12.804878048780488,27.4390243902439 12.804878048780488,27.540650406504064 12.804878048780488,27.591463414634145 12.804878048780488,27.642276422764226 12.90650406504065,27.693089430894307 13.058943089430894,27.74390243902439 13.262195121951219,27.74390243902439 13.363821138211382,27.74390243902439 13.465447154471544,27.74390243902439 13.617886178861788,27.74390243902439 13.71951219512195,27.693089430894307 13.871951219512194,27.642276422764226 14.07520325203252,27.540650406504064 14.227642276422763,27.4390243902439 14.583333333333332,27.235772357723576 14.83739837398374,27.083333333333332 15.040650406504065,26.93089430894309 15.447154471544716,26.676829268292682 15.65040650406504,26.6260162601626 15.904471544715447,26.473577235772357 16.15853658536585,26.422764227642276 16.3109756097561,26.422764227642276 16.36178861788618,26.422764227642276 16.463414634146343,26.422764227642276 16.514227642276424,26.473577235772357 16.514227642276424,26.473577235772357 16.514227642276424,26.524390243902438 16.514227642276424,26.524390243902438 16.514227642276424,26.524390243902438 16.514227642276424,26.524390243902438 16.514227642276424,26.524390243902438 16.514227642276424,26.524390243902438 16.514227642276424,26.524390243902438 16.514227642276424,26.524390243902438 16.514227642276424,26.524390243902438 16.514227642276424,26.524390243902438 16.514227642276424,26.473577235772357 16.514227642276424,26.473577235772357 16.514227642276424,26.473577235772357 16.514227642276424,26.473577235772357 16.514227642276424,26.473577235772357 16.463414634146343,26.473577235772357 16.463414634146343,26.422764227642276 16.463414634146343,26.422764227642276 16.463414634146343,26.422764227642276 16.463414634146343,26.422764227642276 16.463414634146343,26.422764227642276 16.41260162601626,26.422764227642276 16.41260162601626,26.422764227642276" fill="none" stroke="black" stroke-width="0.6"></polyline><polyline points="16.41260162601626,26.422764227642276 16.41260162601626,26.422764227642276 16.41260162601626,26.422764227642276 16.41260162601626,26.422764227642276 16.41260162601626,26.422764227642276 16.41260162601626,26.422764227642276" fill="none" stroke="black" stroke-width="0.6"></polyline><polyline points="31.554878048780488,26.117886178861788 31.60569105691057,26.067073170731707 31.65650406504065,25.965447154471544 31.70731707317073,25.914634146341463 31.70731707317073,25.86382113821138 31.758130081300813,25.8130081300813 31.758130081300813,25.76219512195122 31.758130081300813,25.711382113821138 31.758130081300813,25.609756097560975 31.758130081300813,25.558943089430894 31.758130081300813,25.45731707317073 31.758130081300813,25.40650406504065 31.758130081300813,25.35569105691057 31.70731707317073,25.304878048780488 31.65650406504065,25.254065040650406 31.504065040650406,25.254065040650406 31.30081300813008,25.35569105691057 31.046747967479675,25.508130081300813 30.691056910569106,25.76219512195122 30.38617886178862,26.016260162601625 30.08130081300813,26.270325203252032 29.827235772357724,26.524390243902438 29.725609756097562,26.676829268292682 29.67479674796748,26.778455284552845 29.67479674796748,26.880081300813007 29.776422764227643,26.93089430894309 29.928861788617887,26.93089430894309 30.132113821138212,26.93089430894309 30.38617886178862,26.93089430894309 30.589430894308943,26.880081300813007 30.84349593495935,26.829268292682926 31.046747967479675,26.778455284552845 31.25,26.778455284552845 31.402439024390244,26.778455284552845 31.504065040650406,26.829268292682926 31.60569105691057,27.03252032520325 31.65650406504065,27.38821138211382 31.65650406504065,27.997967479674795 31.504065040650406,28.709349593495933 31.402439024390244,29.31910569105691 31.30081300813008,29.878048780487806 31.25,30.233739837398375 31.148373983739837,30.4369918699187 30.995934959349594,30.538617886178862 30.84349593495935,30.538617886178862 30.691056910569106,30.538617886178862 30.4369918699187,30.4369918699187 30.233739837398375,30.284552845528456 29.979674796747968,30.08130081300813 29.776422764227643,29.827235772357724 29.573170731707318,29.573170731707318" fill="none" stroke="black" stroke-width="0.6"></polyline><polyline points="29.573170731707318,29.573170731707318 29.420731707317074,29.369918699186993 29.31910569105691,29.166666666666664 29.268292682926827,29.01422764227642 29.268292682926827,28.912601626016258 29.31910569105691,28.861788617886177 29.471544715447155,28.760162601626014 29.725609756097562,28.709349593495933 30.03048780487805,28.60772357723577 30.38617886178862,28.455284552845526 30.79268292682927,28.2520325203252 31.30081300813008,27.997967479674795 31.910569105691057,27.540650406504064 32.52032520325203,27.083333333333332 33.02845528455285,26.6260162601626 33.28252032520325,26.270325203252032 33.53658536585366,25.914634146341463 33.739837398373986,25.45731707317073 33.84146341463415,25 33.94308943089431,24.54268292682927 34.09552845528455,24.034552845528456 34.146341463414636,23.577235772357724 34.197154471544714,23.170731707317074 34.2479674796748,22.764227642276424 34.2479674796748,22.611788617886177 34.2479674796748,22.560975609756095 34.2479674796748,22.560975609756095 34.2479674796748,22.611788617886177 34.2479674796748,22.71341463414634 34.298780487804876,22.916666666666668 34.298780487804876,23.170731707317074 34.34959349593496,23.577235772357724 34.34959349593496,24.034552845528456 34.2479674796748,24.54268292682927 34.146341463414636,25.101626016260163 34.04471544715447,25.711382113821138 33.94308943089431,26.16869918699187 33.84146341463415,26.57520325203252 33.6890243902439,26.93089430894309 33.53658536585366,27.134146341463413 33.38414634146341,27.235772357723576 33.28252032520325,27.235772357723576 33.23170731707317,27.235772357723576 33.18089430894309,27.184959349593495 33.18089430894309,27.083333333333332 33.18089430894309,26.98170731707317 33.18089430894309,26.778455284552845 33.333333333333336,26.6260162601626 33.485772357723576,26.422764227642276 33.739837398373986,26.21951219512195 33.94308943089431,26.016260162601625" fill="none" stroke="black" stroke-width="0.6"></polyline><polyline points="33.94308943089431,26.016260162601625 34.2479674796748,25.86382113821138 34.552845528455286,25.711382113821138 34.80691056910569,25.609756097560975 35.010162601626014,25.609756097560975 35.16260162601626,25.609756097560975 35.21341463414634,25.660569105691057 35.21341463414634,25.8130081300813 35.11178861788618,26.016260162601625 34.959349593495936,26.270325203252032 34.80691056910569,26.473577235772357 34.603658536585364,26.727642276422763 34.40040650406504,26.880081300813007 34.2479674796748,27.03252032520325 34.146341463414636,27.184959349593495 34.146341463414636,27.235772357723576 34.197154471544714,27.235772357723576 34.5020325203252,27.134146341463413 35.010162601626014,26.880081300813007 35.72154471544715,26.57520325203252 36.483739837398375,26.16869918699187 37.09349593495935,25.86382113821138 37.60162601626016,25.558943089430894 37.90650406504065,25.40650406504065 37.95731707317073,25.40650406504065 37.95731707317073,25.40650406504065 37.90650406504065,25.40650406504065 37.855691056910565,25.40650406504065 37.7540650406504,25.45731707317073 37.60162601626016,25.558943089430894 37.296747967479675,25.8130081300813 36.9410569105691,26.117886178861788 36.6869918699187,26.371951219512194 36.483739837398375,26.524390243902438 36.38211382113821,26.6260162601626 36.33130081300813,26.676829268292682 36.38211382113821,26.676829268292682 36.58536585365854,26.57520325203252 36.99186991869919,26.321138211382113" fill="none" stroke="black" stroke-width="0.6"></polyline><polyline points="37.19512195121951,27.134146341463413 36.99186991869919,27.235772357723576 36.99186991869919,27.134146341463413 36.99186991869919,27.083333333333332 36.99186991869919,27.03252032520325 36.99186991869919,26.98170731707317 36.99186991869919,26.93089430894309 36.99186991869919,26.880081300813007 36.99186991869919,26.829268292682926 36.9410569105691,26.98170731707317 36.9410569105691,27.33739837398374 36.890243902439025,27.79471544715447 36.890243902439025,28.2520325203252 36.890243902439025,28.65853658536585 36.890243902439025,29.01422764227642 36.890243902439025,29.369918699186993 36.890243902439025,29.6239837398374 36.890243902439025,29.776422764227643 36.890243902439025,29.827235772357724 36.890243902439025,29.776422764227643 36.890243902439025,29.725609756097562 36.890243902439025,29.573170731707318 36.78861788617886,29.369918699186993 36.6869918699187,29.166666666666664 36.53455284552845,28.861788617886177 36.33130081300813,28.55691056910569 36.229674796747965,28.20121951219512 36.077235772357724,27.79471544715447 35.97560975609756,27.286585365853657 35.92479674796748,26.778455284552845 35.8739837398374,26.321138211382113 35.8739837398374,25.86382113821138 35.8739837398374,25.45731707317073 35.8739837398374,25.152439024390244 35.8739837398374,24.847560975609756" fill="none" stroke="black" stroke-width="0.6"></polyline><polyline points="45.325203252032516,27.4390243902439 45.325203252032516,27.4390243902439 45.325203252032516,27.4390243902439 45.325203252032516,27.4390243902439 45.325203252032516,27.4390243902439 45.325203252032516,27.4390243902439 45.325203252032516,27.4390243902439 45.325203252032516,27.4390243902439 45.3760162601626,27.4390243902439 45.42682926829268,27.38821138211382 45.579268292682926,27.286585365853657 45.833333333333336,27.134146341463413 46.1890243902439,26.880081300813007 46.646341463414636,26.473577235772357 47.20528455284553,25.914634146341463 47.86585365853659,25.254065040650406 48.323170731707314,24.59349593495935 48.78048780487805,23.932926829268293 49.1869918699187,23.221544715447155 49.49186991869919,22.611788617886177 49.69512195121951,22.052845528455283 49.84756097560975,21.54471544715447 49.89837398373984,21.239837398373982 49.89837398373984,21.08739837398374 49.84756097560975,21.036585365853657 49.74593495934959,21.036585365853657 49.59349593495935,21.13821138211382 49.28861788617886,21.443089430894307 48.93292682926829,21.90040650406504 48.577235772357724,22.40853658536585 48.22154471544715,22.96747967479675 47.96747967479675,23.628048780487806 47.71341463414634,24.288617886178862 47.510162601626014,25.101626016260163 47.30691056910569,25.86382113821138 47.20528455284553,26.524390243902438 47.15447154471545,26.829268292682926 47.103658536585364,27.184959349593495 47.052845528455286,27.33739837398374 47.052845528455286,27.489837398373982 46.951219512195124,27.74390243902439 46.951219512195124,27.84552845528455 46.90040650406504,27.947154471544714 46.84959349593496,28.048780487804876 46.84959349593496,28.099593495934958 46.798780487804876,28.15040650406504 46.7479674796748,28.15040650406504 46.7479674796748,28.15040650406504 46.697154471544714,28.15040650406504 46.646341463414636,28.048780487804876 46.646341463414636,27.896341463414632" fill="none" stroke="black" stroke-width="0.6"></polyline><polyline points="46.646341463414636,27.896341463414632 46.646341463414636,27.591463414634145 46.7479674796748,27.235772357723576 46.951219512195124,26.829268292682926 47.15447154471545,26.473577235772357 47.357723577235774,26.117886178861788 47.61178861788618,25.8130081300813 47.916666666666664,25.558943089430894 48.22154471544715,25.35569105691057 48.47560975609756,25.203252032520325 48.729674796747965,25.203252032520325 48.93292682926829,25.152439024390244 49.08536585365854,25.203252032520325 49.1869918699187,25.203252032520325 49.28861788617886,25.304878048780488 49.33943089430894,25.35569105691057 49.390243902439025,25.35569105691057 49.4410569105691,25.40650406504065 49.4410569105691,25.45731707317073 49.4410569105691,25.508130081300813 49.4410569105691,25.558943089430894 49.390243902439025,25.660569105691057 49.23780487804878,25.86382113821138 49.03455284552845,26.117886178861788 48.83130081300813,26.321138211382113 48.6280487804878,26.6260162601626 48.52642276422764,26.829268292682926 48.42479674796748,27.083333333333332 48.3739837398374,27.286585365853657 48.3739837398374,27.4390243902439 48.577235772357724,27.540650406504064 48.83130081300813,27.591463414634145 49.1869918699187,27.591463414634145 49.542682926829265,27.540650406504064 49.949186991869915,27.38821138211382 50.30487804878049,27.235772357723576 50.609756097560975,27.083333333333332 50.86382113821138,26.98170731707317 50.96544715447154,26.880081300813007 51.016260162601625,26.880081300813007 51.016260162601625,26.880081300813007" fill="none" stroke="black" stroke-width="0.6"></polyline><polyline points="33.13008130081301,24.23780487804878 33.13008130081301,24.1869918699187 33.13008130081301,24.13617886178862 33.13008130081301,24.13617886178862 33.13008130081301,24.13617886178862 33.23170731707317,24.13617886178862 33.38414634146341,24.23780487804878 33.63821138211382,24.390243902439025 34.04471544715447,24.59349593495935 34.603658536585364,24.898373983739837 35.416666666666664,25.45731707317073 36.28048780487805,26.067073170731707 37.09349593495935,26.676829268292682 37.80487804878049,27.235772357723576 38.36382113821138,27.591463414634145 38.77032520325203,27.74390243902439 39.07520325203252,27.79471544715447 39.22764227642276,27.79471544715447 39.38008130081301,27.693089430894307 39.48170731707317,27.591463414634145 39.53252032520325,27.38821138211382 39.53252032520325,27.184959349593495 39.48170731707317,27.03252032520325" fill="none" stroke="black" stroke-width="0.6"></polyline><polyline points="37.34756097560975,23.475609756097562 37.24593495934959,23.3739837398374 37.09349593495935,23.221544715447155 36.9410569105691,23.221544715447155 36.6869918699187,23.475609756097562 36.33130081300813,23.882113821138212 35.8739837398374,24.441056910569106 35.3150406504065,25.152439024390244 34.75609756097561,26.067073170731707 34.146341463414636,27.03252032520325 33.58739837398374,28.15040650406504 33.23170731707317,29.166666666666664 33.079268292682926,30.03048780487805 33.02845528455285,30.691056910569106 33.13008130081301,31.046747967479675 33.28252032520325,31.30081300813008" fill="none" stroke="black" stroke-width="0.6"></polyline><polyline points="63.262195121951216,25.40650406504065 63.262195121951216,25.254065040650406 63.3130081300813,25.152439024390244 63.36382113821138,25.05081300813008 63.46544715447154,24.94918699186992 63.516260162601625,24.847560975609756 63.5670731707317,24.796747967479675 63.5670731707317,24.796747967479675 63.5670731707317,24.796747967479675 63.5670731707317,24.796747967479675 63.5670731707317,24.898373983739837 63.516260162601625,25.101626016260163 63.41463414634146,25.35569105691057 63.262195121951216,25.711382113821138 63.05894308943089,26.067073170731707 62.90650406504065,26.422764227642276 62.703252032520325,26.778455284552845 62.55081300813008,27.083333333333332 62.449186991869915,27.33739837398374 62.39837398373984,27.4390243902439 62.39837398373984,27.489837398373982 62.39837398373984,27.489837398373982 62.5,27.4390243902439 62.703252032520325,27.33739837398374 62.95731707317073,27.134146341463413 63.262195121951216,26.880081300813007 63.61788617886179,26.676829268292682 64.07520325203252,26.473577235772357 64.48170731707317,26.270325203252032 64.83739837398373,26.16869918699187 65.29471544715447,26.016260162601625 65.59959349593495,25.965447154471544 65.85365853658537,25.965447154471544 66.0569105691057,25.965447154471544 66.15853658536585,25.965447154471544 66.26016260162602,26.016260162601625 66.3109756097561,26.067073170731707 66.36178861788618,26.117886178861788 66.41260162601625,26.117886178861788 66.41260162601625,26.117886178861788 66.46341463414635,26.117886178861788 66.46341463414635,26.117886178861788" fill="none" stroke="black" stroke-width="0.6"></polyline><polyline points="64.1260162601626,22.96747967479675 64.02439024390243,22.916666666666668 63.922764227642276,22.865853658536587 63.87195121951219,22.815040650406505 63.87195121951219,22.815040650406505 63.87195121951219,22.815040650406505 63.87195121951219,22.815040650406505 63.87195121951219,22.815040650406505 63.87195121951219,22.865853658536587 63.922764227642276,22.916666666666668 63.922764227642276,23.01829268292683 63.97357723577235,23.119918699186993 64.02439024390243,23.221544715447155 64.02439024390243,23.323170731707318 64.02439024390243,23.3739837398374" fill="none" stroke="black" stroke-width="0.6"></polyline><polyline points="78.70934959349593,25.35569105691057 78.70934959349593,25.304878048780488 78.70934959349593,25.203252032520325 78.70934959349593,25.101626016260163 78.70934959349593,25 78.70934959349593,24.94918699186992 78.70934959349593,24.898373983739837 78.70934959349593,24.847560975609756 78.70934959349593,24.847560975609756 78.70934959349593,24.847560975609756 78.70934959349593,24.847560975609756 78.70934959349593,24.847560975609756 78.70934959349593,24.847560975609756 78.70934959349593,24.847560975609756 78.70934959349593,24.898373983739837 78.70934959349593,25 78.70934959349593,25.101626016260163 78.70934959349593,25.304878048780488 78.76016260162602,25.508130081300813 78.86178861788618,25.8130081300813 79.01422764227642,26.117886178861788 79.26829268292683,26.473577235772357 79.57317073170732,26.829268292682926 79.8780487804878,27.184959349593495 80.1829268292683,27.591463414634145 80.4369918699187,27.896341463414632 80.58943089430895,28.15040650406504 80.64024390243902,28.353658536585364 80.64024390243902,28.506097560975608 80.58943089430895,28.65853658536585 80.4369918699187,28.861788617886177 80.1829268292683,29.01422764227642 79.82723577235772,29.166666666666664 79.47154471544715,29.268292682926827 79.11585365853658,29.31910569105691 78.76016260162602,29.369918699186993 78.35365853658537,29.369918699186993 78.04878048780488,29.369918699186993 77.74390243902438,29.31910569105691 77.48983739837398,29.166666666666664 77.28658536585365,29.0650406504065 77.1849593495935,28.912601626016258 77.08333333333333,28.760162601626014 77.03252032520325,28.60772357723577 77.03252032520325,28.506097560975608 77.03252032520325,28.455284552845526 77.03252032520325,28.404471544715445 77.03252032520325,28.353658536585364 77.08333333333333,28.302845528455283 77.1341463414634,28.302845528455283 77.23577235772358,28.302845528455283" fill="none" stroke="black" stroke-width="0.6"></polyline><polyline points="77.23577235772358,28.302845528455283 77.4390243902439,28.2520325203252 77.64227642276423,28.2520325203252" fill="none" stroke="black" stroke-width="0.6"></polyline><polyline points="79.0650406504065,22.611788617886177 79.0650406504065,22.560975609756095 79.01422764227642,22.35772357723577 79.01422764227642,22.30691056910569 79.01422764227642,22.30691056910569 79.01422764227642,22.30691056910569 79.01422764227642,22.30691056910569 79.01422764227642,22.35772357723577 79.01422764227642,22.40853658536585 79.01422764227642,22.510162601626014 79.01422764227642,22.611788617886177 79.01422764227642,22.71341463414634 79.01422764227642,22.764227642276424 79.01422764227642,22.815040650406505 79.01422764227642,22.865853658536587 79.01422764227642,22.865853658536587 79.01422764227642,22.865853658536587 78.96341463414635,22.865853658536587 78.96341463414635,22.865853658536587 78.91260162601625,22.815040650406505" fill="none" stroke="black" stroke-width="0.6"></polyline><polyline points="14.888211382113822,40.09146341463415 14.786585365853659,39.989837398373986 14.786585365853659,39.989837398373986 14.735772357723578,40.040650406504064 14.684959349593496,40.24390243902439 14.583333333333332,40.701219512195124 14.48170731707317,41.41260162601626 14.380081300813007,41.86991869918699 14.329268292682926,42.3780487804878 14.176829268292682,43.34349593495935 14.07520325203252,44.20731707317073 14.024390243902438,44.96951219512195 14.024390243902438,45.42682926829268 14.024390243902438,45.63008130081301 14.024390243902438,45.73170731707317 14.07520325203252,45.73170731707317 14.07520325203252,45.52845528455285 14.1260162601626,45.325203252032516" fill="none" stroke="black" stroke-width="0.6"></polyline><polyline points="16.615853658536587,41.41260162601626 16.514227642276424,41.36178861788618 16.463414634146343,41.36178861788618 16.41260162601626,41.3109756097561 16.3109756097561,41.36178861788618 16.15853658536585,41.5650406504065 15.955284552845528,41.97154471544715 15.65040650406504,42.53048780487805 15.497967479674797,42.886178861788615 15.294715447154472,43.24186991869919 14.989837398373984,43.953252032520325 14.735772357723578,44.512195121951216 14.583333333333332,44.8170731707317 14.48170731707317,44.96951219512195 14.430894308943088,45.02032520325203 14.430894308943088,44.96951219512195 14.430894308943088,44.8170731707317 14.380081300813007,44.66463414634146 14.380081300813007,44.5630081300813 14.380081300813007,44.25813008130081 14.380081300813007,44.0040650406504 14.430894308943088,43.699186991869915 14.430894308943088,43.546747967479675 14.430894308943088,43.44512195121951 14.430894308943088,43.39430894308943 14.430894308943088,43.39430894308943 14.48170731707317,43.39430894308943 14.48170731707317,43.44512195121951 14.53252032520325,43.64837398373984 14.583333333333332,43.90243902439024 14.684959349593496,44.15650406504065 14.786585365853659,44.30894308943089 14.83739837398374,44.46138211382114 14.888211382113822,44.5630081300813 14.989837398373984,44.71544715447154 15.091463414634147,44.86788617886179 15.19308943089431,45.02032520325203 15.447154471544716,45.27439024390244 15.701219512195122,45.47764227642276 16.006097560975608,45.579268292682926 16.3109756097561,45.579268292682926 16.615853658536587,45.579268292682926 16.971544715447155,45.47764227642276 17.225609756097562,45.42682926829268 17.428861788617887,45.3760162601626 17.58130081300813,45.3760162601626 17.632113821138212,45.3760162601626 17.632113821138212,45.3760162601626 17.632113821138212,45.42682926829268 17.632113821138212,45.42682926829268 17.632113821138212,45.47764227642276" fill="none" stroke="black" stroke-width="0.6"></polyline><polyline points="17.632113821138212,45.47764227642276 17.58130081300813,45.47764227642276 17.53048780487805,45.52845528455285 17.53048780487805,45.52845528455285 17.479674796747968,45.52845528455285 17.479674796747968,45.52845528455285 17.479674796747968,45.52845528455285 17.479674796747968,45.52845528455285 17.479674796747968,45.52845528455285 17.479674796747968,45.52845528455285 17.479674796747968,45.52845528455285 17.479674796747968,45.52845528455285 17.479674796747968,45.52845528455285 17.479674796747968,45.52845528455285 17.479674796747968,45.52845528455285" fill="none" stroke="black" stroke-width="0.6"></polyline><polyline points="30.79268292682927,42.53048780487805 30.79268292682927,42.53048780487805 30.79268292682927,42.53048780487805 30.741869918699187,42.53048780487805 30.741869918699187,42.53048780487805 30.741869918699187,42.53048780487805 30.741869918699187,42.479674796747965 30.691056910569106,42.479674796747965 30.691056910569106,42.479674796747965 30.691056910569106,42.479674796747965 30.691056910569106,42.42886178861789 30.691056910569106,42.42886178861789 30.691056910569106,42.42886178861789 30.691056910569106,42.42886178861789 30.691056910569106,42.42886178861789 30.691056910569106,42.42886178861789 30.691056910569106,42.42886178861789 30.691056910569106,42.42886178861789 30.691056910569106,42.479674796747965 30.691056910569106,42.53048780487805 30.691056910569106,42.58130081300813 30.741869918699187,42.63211382113821 30.741869918699187,42.68292682926829 30.79268292682927,42.68292682926829 30.89430894308943,42.68292682926829 30.995934959349594,42.63211382113821 31.097560975609756,42.53048780487805 31.30081300813008,42.17479674796748 31.60569105691057,41.666666666666664 31.758130081300813,41.41260162601626 31.859756097560975,41.107723577235774 32.11382113821138,40.447154471544714 32.16463414634146,40.142276422764226 32.3170731707317,39.583333333333336 32.3170731707317,39.22764227642276 32.3170731707317,39.07520325203252 32.266260162601625,38.71951219512195 32.21544715447154,38.668699186991866 32.16463414634146,38.668699186991866 32.11382113821138,38.668699186991866 32.0630081300813,38.668699186991866 31.961382113821138,38.71951219512195 31.758130081300813,38.922764227642276 31.65650406504065,39.07520325203252 31.504065040650406,39.27845528455285 31.30081300813008,39.48170731707317 30.995934959349594,39.989837398373986 30.89430894308943,40.24390243902439 30.741869918699187,40.4979674796748 30.38617886178862,41.514227642276424 30.284552845528456,41.86991869918699" fill="none" stroke="black" stroke-width="0.6"></polyline><polyline points="30.284552845528456,41.86991869918699 30.182926829268293,42.17479674796748 30.08130081300813,42.886178861788615 29.979674796747968,43.546747967479675 29.979674796747968,43.953252032520325 30.03048780487805,44.30894308943089 30.08130081300813,44.41056910569105 30.132113821138212,44.5630081300813 30.284552845528456,44.766260162601625 30.538617886178862,44.96951219512195 30.945121951219512,45.07113821138211 31.25,45.07113821138211 31.402439024390244,45.07113821138211 31.60569105691057,45.02032520325203 31.910569105691057,44.8170731707317 32.21544715447154,44.61382113821138 32.418699186991866,44.41056910569105 32.52032520325203,44.25813008130081 32.57113821138211,44.15650406504065 32.6219512195122,44.05487804878049 32.6219512195122,44.0040650406504 32.57113821138211,44.0040650406504" fill="none" stroke="black" stroke-width="0.6"></polyline><polyline points="45.172764227642276,42.68292682926829 45.12195121951219,42.53048780487805 45.07113821138211,42.479674796747965 45.07113821138211,42.42886178861789 45.07113821138211,42.3780487804878 45.172764227642276,42.327235772357724 45.325203252032516,42.27642276422764 45.47764227642276,42.22560975609756 45.68089430894309,42.22560975609756 45.833333333333336,42.22560975609756 45.985772357723576,42.3780487804878 46.08739837398374,42.58130081300813 46.1890243902439,42.83536585365854 46.1890243902439,43.24186991869919 46.13821138211382,43.699186991869915 45.985772357723576,44.20731707317073 45.833333333333336,44.71544715447154 45.63008130081301,45.172764227642276 45.42682926829268,45.3760162601626 45.325203252032516,45.47764227642276 45.22357723577235,45.52845528455285 45.22357723577235,45.47764227642276 45.22357723577235,45.3760162601626 45.22357723577235,45.22357723577235 45.22357723577235,44.96951219512195 45.3760162601626,44.61382113821138 45.579268292682926,44.20731707317073 45.78252032520325,43.80081300813008 46.08739837398374,43.34349593495935 46.49390243902439,42.83536585365854 46.90040650406504,42.3780487804878 47.25609756097561,42.073170731707314 47.5609756097561,41.920731707317074 47.66260162601626,41.920731707317074 47.71341463414634,41.97154471544715 47.764227642276424,42.1239837398374 47.764227642276424,42.3780487804878 47.66260162601626,42.78455284552845 47.5609756097561,43.292682926829265 47.40853658536585,43.75 47.25609756097561,44.30894308943089 47.052845528455286,44.918699186991866 46.951219512195124,45.3760162601626 46.84959349593496,45.68089430894309 46.84959349593496,45.73170731707317 46.84959349593496,45.73170731707317 46.84959349593496,45.52845528455285 46.90040650406504,45.172764227642276 47.0020325203252,44.766260162601625 47.103658536585364,44.359756097560975 47.20528455284553,43.90243902439024" fill="none" stroke="black" stroke-width="0.6"></polyline><polyline points="47.20528455284553,43.90243902439024 47.357723577235774,43.49593495934959 47.510162601626014,43.08943089430894 47.71341463414634,42.63211382113821 47.96747967479675,42.27642276422764 48.170731707317074,41.97154471544715 48.323170731707314,41.76829268292683 48.47560975609756,41.71747967479675 48.52642276422764,41.71747967479675 48.577235772357724,41.76829268292683 48.6280487804878,41.86991869918699 48.6280487804878,41.97154471544715 48.67886178861789,42.1239837398374 48.67886178861789,42.3780487804878 48.67886178861789,42.68292682926829 48.67886178861789,43.03861788617886 48.577235772357724,43.39430894308943 48.52642276422764,43.75 48.42479674796748,44.15650406504065 48.323170731707314,44.41056910569105 48.22154471544715,44.66463414634146 48.170731707317074,44.8170731707317 48.170731707317074,44.8170731707317 48.11991869918699,44.8170731707317 48.11991869918699,44.8170731707317 48.11991869918699,44.766260162601625 48.11991869918699,44.71544715447154 48.11991869918699,44.71544715447154 48.11991869918699,44.66463414634146 48.11991869918699,44.66463414634146 48.11991869918699,44.61382113821138 48.11991869918699,44.61382113821138 48.11991869918699,44.61382113821138 48.11991869918699,44.61382113821138 48.11991869918699,44.61382113821138 48.06910569105691,44.61382113821138 48.06910569105691,44.61382113821138 48.06910569105691,44.61382113821138 48.01829268292683,44.66463414634146 48.01829268292683,44.66463414634146 48.01829268292683,44.66463414634146 48.01829268292683,44.71544715447154 48.01829268292683,44.71544715447154 48.01829268292683,44.71544715447154 48.01829268292683,44.71544715447154 48.01829268292683,44.71544715447154 48.01829268292683,44.71544715447154 48.01829268292683,44.66463414634146" fill="none" stroke="black" stroke-width="0.6"></polyline><polyline points="62.296747967479675,43.44512195121951 62.19512195121951,43.39430894308943 62.14430894308943,43.34349593495935 62.09349593495935,43.292682926829265 62.042682926829265,43.24186991869919 62.042682926829265,43.1910569105691 62.042682926829265,43.140243902439025 62.042682926829265,43.08943089430894 62.042682926829265,43.03861788617886 62.042682926829265,42.98780487804878 62.09349593495935,42.9369918699187 62.19512195121951,42.83536585365854 62.34756097560975,42.78455284552845 62.55081300813008,42.68292682926829 62.703252032520325,42.63211382113821 62.90650406504065,42.63211382113821 63.109756097560975,42.63211382113821 63.262195121951216,42.68292682926829 63.41463414634146,42.83536585365854 63.516260162601625,43.140243902439025 63.516260162601625,43.546747967479675 63.46544715447154,44.05487804878049 63.3130081300813,44.66463414634146 63.109756097560975,45.172764227642276 62.90650406504065,45.579268292682926 62.7540650406504,45.833333333333336 62.60162601626016,45.9349593495935 62.5,45.985772357723576 62.39837398373984,45.9349593495935 62.39837398373984,45.833333333333336 62.34756097560975,45.68089430894309 62.34756097560975,45.47764227642276 62.34756097560975,45.172764227642276 62.449186991869915,44.8170731707317 62.55081300813008,44.46138211382114 62.65243902439024,44.105691056910565 62.855691056910565,43.699186991869915 63.109756097560975,43.292682926829265 63.46544715447154,42.9369918699187 63.82113821138211,42.58130081300813 64.1260162601626,42.327235772357724 64.380081300813,42.17479674796748 64.58333333333333,42.073170731707314 64.6849593495935,42.073170731707314 64.78658536585365,42.073170731707314 64.83739837398373,42.17479674796748 64.88821138211382,42.327235772357724 64.9390243902439,42.53048780487805 64.9390243902439,42.886178861788615 64.9390243902439,43.34349593495935 64.83739837398373,43.75" fill="none" stroke="black" stroke-width="0.6"></polyline><polyline points="64.83739837398373,43.75 64.78658536585365,44.105691056910565 64.6849593495935,44.46138211382114 64.58333333333333,44.71544715447154 64.53252032520325,44.8170731707317 64.48170731707317,44.918699186991866 64.43089430894308,44.918699186991866 64.43089430894308,44.918699186991866 64.43089430894308,44.918699186991866 64.43089430894308,44.86788617886179 64.43089430894308,44.8170731707317 64.43089430894308,44.8170731707317 64.43089430894308,44.766260162601625 64.43089430894308,44.766260162601625 64.43089430894308,44.766260162601625 64.43089430894308,44.766260162601625 64.43089430894308,44.71544715447154 64.43089430894308,44.71544715447154 64.43089430894308,44.71544715447154 64.43089430894308,44.71544715447154 64.43089430894308,44.71544715447154 64.43089430894308,44.71544715447154 64.43089430894308,44.71544715447154 64.43089430894308,44.71544715447154 64.43089430894308,44.71544715447154 64.43089430894308,44.71544715447154 64.43089430894308,44.71544715447154 64.43089430894308,44.71544715447154 64.43089430894308,44.71544715447154 64.43089430894308,44.71544715447154 64.43089430894308,44.71544715447154 64.43089430894308,44.71544715447154 64.43089430894308,44.71544715447154 64.43089430894308,44.71544715447154 64.43089430894308,44.71544715447154 64.43089430894308,44.71544715447154 64.43089430894308,44.71544715447154 64.43089430894308,44.71544715447154" fill="none" stroke="black" stroke-width="0.6"></polyline><polyline points="79.77642276422765,42.53048780487805 79.77642276422765,42.3780487804878 79.77642276422765,42.22560975609756 79.77642276422765,42.073170731707314 79.77642276422765,41.97154471544715 79.77642276422765,41.81910569105691 79.77642276422765,41.71747967479675 79.77642276422765,41.61585365853659 79.77642276422765,41.5650406504065 79.77642276422765,41.5650406504065 79.77642276422765,41.5650406504065 79.77642276422765,41.5650406504065 79.6239837398374,41.76829268292683 79.3191056910569,42.1239837398374 78.96341463414635,42.58130081300813 78.65853658536585,43.140243902439025 78.35365853658537,43.699186991869915 78.04878048780488,44.25813008130081 77.9471544715447,44.71544715447154 77.9471544715447,45.07113821138211 78.09959349593495,45.22357723577235 78.35365853658537,45.27439024390244 78.70934959349593,45.172764227642276 79.21747967479675,44.918699186991866 79.77642276422765,44.5630081300813 80.33536585365853,44.105691056910565 80.89430894308943,43.59756097560975 81.35162601626016,43.140243902439025 81.70731707317073,42.68292682926829 81.91056910569105,42.327235772357724 81.91056910569105,42.073170731707314 81.85975609756098,41.920731707317074 81.65650406504065,41.76829268292683 81.35162601626016,41.71747967479675 80.9451219512195,41.71747967479675 80.53861788617886,41.76829268292683 80.08130081300813,41.86991869918699 79.6239837398374,42.073170731707314 79.11585365853658,42.27642276422764 78.76016260162602,42.53048780487805 78.5569105691057,42.78455284552845 78.45528455284553,43.03861788617886" fill="none" stroke="black" stroke-width="0.6"></polyline><polyline points="15.396341463414634,58.6890243902439 15.396341463414634,58.6890243902439 15.345528455284553,58.63821138211382 15.345528455284553,58.63821138211382 15.345528455284553,58.63821138211382 15.345528455284553,58.6890243902439 15.345528455284553,58.892276422764226 15.396341463414634,59.298780487804876 15.447154471544716,59.857723577235774 15.447154471544716,60.51829268292683 15.497967479674797,61.229674796747965 15.497967479674797,61.9410569105691 15.497967479674797,62.5 15.548780487804878,62.855691056910565 15.548780487804878,63.00813008130081 15.548780487804878,63.05894308943089 15.548780487804878,63.05894308943089 15.548780487804878,62.95731707317073" fill="none" stroke="black" stroke-width="0.6"></polyline><polyline points="13.973577235772357,59.298780487804876 13.770325203252032,59.298780487804876 13.66869918699187,59.298780487804876 13.617886178861788,59.298780487804876 13.617886178861788,59.298780487804876 13.617886178861788,59.298780487804876 13.617886178861788,59.298780487804876 13.71951219512195,59.298780487804876 13.821138211382113,59.298780487804876 13.922764227642276,59.2479674796748 14.1260162601626,59.197154471544714 14.329268292682926,59.09552845528455 14.53252032520325,59.04471544715447 14.735772357723578,58.94308943089431 14.989837398373984,58.84146341463415 15.24390243902439,58.790650406504064 15.802845528455284,58.63821138211382 16.3109756097561,58.536585365853654 16.76829268292683,58.485772357723576 17.17479674796748,58.536585365853654 17.428861788617887,58.739837398373986 17.53048780487805,58.99390243902439 17.632113821138212,59.298780487804876 17.632113821138212,59.603658536585364 17.53048780487805,60.010162601626014 17.276422764227643,60.416666666666664 17.022357723577237,60.72154471544715 16.71747967479675,60.97560975609756 16.41260162601626,61.17886178861789 16.10772357723577,61.33130081300813 15.853658536585366,61.38211382113821 15.548780487804878,61.38211382113821 15.294715447154472,61.38211382113821 15.142276422764228,61.229674796747965 14.989837398373984,61.1280487804878 14.888211382113822,61.02642276422764 14.888211382113822,60.97560975609756" fill="none" stroke="black" stroke-width="0.6"></polyline><polyline points="31.65650406504065,58.892276422764226 31.60569105691057,58.739837398373986 31.554878048780488,58.58739837398374 31.554878048780488,58.43495934959349 31.554878048780488,58.33333333333333 31.504065040650406,58.231707317073166 31.504065040650406,58.18089430894309 31.504065040650406,58.130081300813 31.504065040650406,58.079268292682926 31.504065040650406,58.079268292682926 31.453252032520325,58.079268292682926 31.402439024390244,58.079268292682926 31.351626016260163,58.079268292682926 31.25,58.18089430894309 31.046747967479675,58.33333333333333 30.84349593495935,58.58739837398374 30.538617886178862,58.94308943089431 30.284552845528456,59.34959349593496 30.03048780487805,59.70528455284553 29.878048780487806,60.0609756097561 29.776422764227643,60.416666666666664 29.776422764227643,60.56910569105691 29.878048780487806,60.72154471544715 30.08130081300813,60.77235772357724 30.284552845528456,60.77235772357724 30.538617886178862,60.72154471544715 30.84349593495935,60.51829268292683 31.097560975609756,60.3150406504065 31.402439024390244,60.010162601626014 31.65650406504065,59.65447154471545 31.859756097560975,59.298780487804876 31.961382113821138,58.99390243902439 32.012195121951216,58.6890243902439 32.012195121951216,58.485772357723576 31.910569105691057,58.38414634146341 31.808943089430894,58.28252032520325 31.65650406504065,58.231707317073166 31.554878048780488,58.18089430894309 31.402439024390244,58.18089430894309 31.30081300813008,58.231707317073166 31.19918699186992,58.33333333333333 31.097560975609756,58.485772357723576 31.046747967479675,58.63821138211382 30.995934959349594,58.84146341463415 30.945121951219512,59.04471544715447 30.945121951219512,59.197154471544714 30.945121951219512,59.298780487804876 30.945121951219512,59.40040650406504 30.995934959349594,59.451219512195124 30.995934959349594,59.451219512195124 31.046747967479675,59.5020325203252" fill="none" stroke="black" stroke-width="0.6"></polyline><polyline points="31.046747967479675,59.5020325203252 31.097560975609756,59.5020325203252 31.097560975609756,59.451219512195124 31.097560975609756,59.40040650406504 31.148373983739837,59.34959349593496 31.148373983739837,59.2479674796748 31.148373983739837,59.197154471544714 31.148373983739837,59.146341463414636 31.148373983739837,59.09552845528455 31.148373983739837,59.04471544715447 31.148373983739837,58.99390243902439 31.148373983739837,58.94308943089431 31.148373983739837,58.892276422764226 31.148373983739837,58.892276422764226 31.148373983739837,58.892276422764226 31.148373983739837,58.892276422764226 31.148373983739837,58.892276422764226 31.148373983739837,58.892276422764226 31.148373983739837,58.892276422764226 31.148373983739837,58.892276422764226 31.148373983739837,58.892276422764226 31.148373983739837,58.892276422764226 31.148373983739837,58.892276422764226 31.148373983739837,58.892276422764226 31.148373983739837,58.892276422764226 31.148373983739837,58.94308943089431 31.148373983739837,59.04471544715447 31.148373983739837,59.146341463414636 31.097560975609756,59.34959349593496 30.995934959349594,59.65447154471545 30.89430894308943,60.0609756097561 30.741869918699187,60.61991869918699 30.589430894308943,61.229674796747965 30.4369918699187,61.78861788617886 30.38617886178862,62.34756097560975 30.38617886178862,62.855691056910565 30.38617886178862,63.16056910569105 30.38617886178862,63.41463414634146 30.48780487804878,63.61788617886179 30.589430894308943,63.668699186991866 30.691056910569106,63.71951219512195 30.79268292682927,63.77032520325203 30.89430894308943,63.77032520325203 30.945121951219512,63.77032520325203 31.046747967479675,63.77032520325203 31.097560975609756,63.77032520325203 31.19918699186992,63.71951219512195 31.25,63.61788617886179 31.351626016260163,63.516260162601625 31.402439024390244,63.36382113821138 31.453252032520325,63.16056910569105" fill="none" stroke="black" stroke-width="0.6"></polyline><polyline points="31.453252032520325,63.16056910569105 31.504065040650406,62.90650406504065 31.60569105691057,62.65243902439024 31.65650406504065,62.296747967479675 31.70731707317073,61.9410569105691 31.70731707317073,61.53455284552845 31.758130081300813,61.1280487804878 31.758130081300813,60.77235772357724 31.65650406504065,60.51829268292683 31.554878048780488,60.3150406504065 31.402439024390244,60.21341463414634 31.19918699186992,60.21341463414634 30.995934959349594,60.21341463414634 30.79268292682927,60.264227642276424 30.589430894308943,60.416666666666664 30.38617886178862,60.56910569105691 30.284552845528456,60.670731707317074 30.233739837398375,60.77235772357724 30.233739837398375,60.8739837398374 30.233739837398375,60.92479674796748 30.284552845528456,60.97560975609756 30.4369918699187,60.97560975609756 30.691056910569106,60.97560975609756 30.995934959349594,60.92479674796748 31.351626016260163,60.77235772357724 31.70731707317073,60.56910569105691 32.0630081300813,60.36585365853659 32.418699186991866,60.21341463414634 32.672764227642276,60.11178861788618 32.77439024390244,60.0609756097561 32.77439024390244,60.0609756097561 32.77439024390244,60.0609756097561 32.72357723577236,60.11178861788618 32.6219512195122,60.264227642276424 32.52032520325203,60.416666666666664 32.46951219512195,60.51829268292683" fill="none" stroke="black" stroke-width="0.6"></polyline><polyline points="46.392276422764226,57.672764227642276 46.392276422764226,57.57113821138211 46.392276422764226,57.46951219512195 46.392276422764226,57.3170731707317 46.392276422764226,57.21544715447154 46.392276422764226,57.16463414634146 46.392276422764226,57.11382113821138 46.392276422764226,57.11382113821138 46.392276422764226,57.11382113821138 46.392276422764226,57.11382113821138 46.392276422764226,57.11382113821138 46.392276422764226,57.21544715447154 46.392276422764226,57.36788617886179 46.392276422764226,57.672764227642276 46.392276422764226,57.97764227642276 46.392276422764226,58.38414634146341 46.34146341463415,58.6890243902439 46.34146341463415,59.04471544715447 46.34146341463415,59.298780487804876 46.34146341463415,59.552845528455286 46.34146341463415,59.70528455284553 46.34146341463415,59.857723577235774 46.34146341463415,59.90853658536585 46.34146341463415,59.959349593495936 46.34146341463415,59.959349593495936 46.290650406504064,59.959349593495936 46.290650406504064,60.010162601626014 46.290650406504064,60.010162601626014 46.290650406504064,60.010162601626014 46.290650406504064,60.010162601626014 46.290650406504064,60.010162601626014 46.290650406504064,60.010162601626014 46.290650406504064,59.90853658536585 46.239837398373986,59.75609756097561 46.239837398373986,59.552845528455286 46.239837398373986,59.197154471544714 46.290650406504064,58.790650406504064 46.392276422764226,58.38414634146341 46.54471544715447,57.97764227642276 46.798780487804876,57.52032520325203 47.052845528455286,57.266260162601625 47.25609756097561,57.0630081300813 47.459349593495936,57.012195121951216 47.66260162601626,57.012195121951216 47.86585365853659,57.012195121951216 48.06910569105691,57.0630081300813 48.27235772357724,57.16463414634146 48.47560975609756,57.266260162601625 48.6280487804878,57.3170731707317 48.78048780487805,57.36788617886179 48.93292682926829,57.36788617886179" fill="none" stroke="black" stroke-width="0.6"></polyline><polyline points="48.93292682926829,57.36788617886179 49.03455284552845,57.36788617886179 49.08536585365854,57.36788617886179 49.136178861788615,57.36788617886179 49.136178861788615,57.36788617886179 49.136178861788615,57.36788617886179 49.136178861788615,57.36788617886179 49.08536585365854,57.36788617886179 48.983739837398375,57.3170731707317 48.83130081300813,57.36788617886179 48.729674796747965,57.418699186991866" fill="none" stroke="black" stroke-width="0.6"></polyline><polyline points="64.17682926829268,59.146341463414636 64.17682926829268,59.04471544715447 64.17682926829268,58.790650406504064 64.17682926829268,58.58739837398374 64.17682926829268,58.43495934959349 64.22764227642276,58.231707317073166 64.22764227642276,58.079268292682926 64.22764227642276,57.92682926829268 64.22764227642276,57.77439024390244 64.22764227642276,57.672764227642276 64.1260162601626,57.62195121951219 64.02439024390243,57.57113821138211 63.82113821138211,57.57113821138211 63.5670731707317,57.672764227642276 63.16056910569105,57.8760162601626 62.7540650406504,58.130081300813 62.5,58.38414634146341 62.296747967479675,58.536585365853654 62.14430894308943,58.739837398373986 62.14430894308943,58.892276422764226 62.14430894308943,58.99390243902439 62.296747967479675,59.09552845528455 62.5,59.09552845528455 62.855691056910565,59.146341463414636 63.262195121951216,59.09552845528455 63.61788617886179,59.04471544715447 63.97357723577235,58.99390243902439 64.380081300813,58.94308943089431 64.6849593495935,58.94308943089431 64.88821138211382,58.94308943089431 65.09146341463415,58.99390243902439 65.1930894308943,59.09552845528455 65.1930894308943,59.2479674796748 65.1930894308943,59.5020325203252 65.09146341463415,59.75609756097561 64.9390243902439,60.010162601626014 64.6849593495935,60.264227642276424 64.48170731707317,60.416666666666664 64.22764227642276,60.51829268292683 63.922764227642276,60.56910569105691 63.668699186991866,60.56910569105691 63.36382113821138,60.56910569105691 63.05894308943089,60.416666666666664 62.80487804878049,60.264227642276424 62.60162601626016,60.11178861788618 62.39837398373984,60.010162601626014 62.296747967479675,59.959349593495936 62.24593495934959,59.959349593495936 62.19512195121951,59.959349593495936" fill="none" stroke="black" stroke-width="0.6"></polyline><polyline points="79.92886178861788,55.58943089430894 79.92886178861788,55.48780487804878 79.92886178861788,55.33536585365854 79.92886178861788,55.28455284552845 79.92886178861788,55.28455284552845 79.92886178861788,55.28455284552845 79.92886178861788,55.33536585365854 79.8780487804878,55.58943089430894 79.72560975609755,55.99593495934959 79.52235772357723,56.55487804878049 79.369918699187,57.16463414634146 79.11585365853658,57.8760162601626 78.91260162601625,58.63821138211382 78.70934959349593,59.298780487804876 78.60772357723577,59.857723577235774 78.5569105691057,60.21341463414634 78.5569105691057,60.3150406504065 78.5569105691057,60.3150406504065 78.5569105691057,60.264227642276424 78.5569105691057,60.21341463414634 78.60772357723577,60.0609756097561 78.65853658536585,59.857723577235774 78.65853658536585,59.65447154471545 78.70934959349593,59.40040650406504 78.70934959349593,59.197154471544714" fill="none" stroke="black" stroke-width="0.6"></polyline><polyline points="77.08333333333333,58.38414634146341 77.08333333333333,58.28252032520325 77.08333333333333,58.079268292682926 77.08333333333333,57.8760162601626 77.08333333333333,57.72357723577235 77.1341463414634,57.62195121951219 77.1849593495935,57.57113821138211 77.23577235772358,57.57113821138211 77.38821138211382,57.52032520325203 77.59146341463415,57.52032520325203 77.89634146341463,57.52032520325203 78.30284552845528,57.52032520325203 78.76016260162602,57.52032520325203 79.3191056910569,57.52032520325203 79.92886178861788,57.52032520325203 80.53861788617886,57.52032520325203 81.14837398373983,57.418699186991866 81.8089430894309,57.3170731707317 82.3170731707317,57.16463414634146 82.82520325203252,57.012195121951216 83.28252032520325,56.91056910569105 83.53658536585365,56.859756097560975 83.6890243902439,56.80894308943089 83.73983739837398,56.80894308943089 83.73983739837398,56.80894308943089 83.6890243902439,56.80894308943089 83.6890243902439,56.80894308943089 83.63821138211382,56.80894308943089 83.53658536585365,56.859756097560975 83.4349593495935,56.96138211382114 83.28252032520325,57.0630081300813 83.18089430894308,57.16463414634146 83.07926829268293,57.3170731707317" fill="none" stroke="black" stroke-width="0.6"></polyline><polyline points="14.939024390243903,75.96544715447155 14.939024390243903,75.91463414634146 14.888211382113822,75.86382113821138 14.83739837398374,75.76219512195122 14.83739837398374,75.76219512195122 14.83739837398374,75.71138211382113 14.83739837398374,75.66056910569105 14.83739837398374,75.60975609756098 14.83739837398374,75.60975609756098 14.83739837398374,75.60975609756098 14.83739837398374,75.60975609756098 14.83739837398374,75.60975609756098 14.83739837398374,75.76219512195122 14.83739837398374,76.01626016260163 14.786585365853659,76.42276422764228 14.786585365853659,76.880081300813 14.735772357723578,77.38821138211382 14.684959349593496,78.04878048780488 14.684959349593496,78.5569105691057 14.684959349593496,78.91260162601625 14.684959349593496,79.16666666666667 14.735772357723578,79.21747967479675 14.83739837398374,79.21747967479675 14.939024390243903,79.11585365853658 15.040650406504065,78.91260162601625 15.24390243902439,78.65853658536585 15.396341463414634,78.2520325203252 15.59959349593496,77.84552845528455 15.752032520325203,77.4390243902439 15.955284552845528,76.98170731707317 16.15853658536585,76.6260162601626 16.3109756097561,76.3211382113821 16.463414634146343,76.0670731707317 16.514227642276424,75.96544715447155 16.565040650406505,75.91463414634146 16.565040650406505,75.91463414634146 16.565040650406505,75.91463414634146 16.565040650406505,75.96544715447155 16.565040650406505,75.96544715447155 16.514227642276424,76.01626016260163 16.463414634146343,76.11788617886178 16.41260162601626,76.27032520325203 16.3109756097561,76.47357723577235 16.260162601626014,76.72764227642276 16.209349593495933,77.03252032520325 16.10772357723577,77.38821138211382 16.10772357723577,77.74390243902438 16.10772357723577,78.04878048780488 16.10772357723577,78.30284552845528 16.15853658536585,78.5060975609756 16.3109756097561,78.60772357723577" fill="none" stroke="black" stroke-width="0.6"></polyline><polyline points="16.3109756097561,78.60772357723577 16.41260162601626,78.60772357723577 16.666666666666668,78.60772357723577 16.869918699186993,78.45528455284553 17.17479674796748,78.2520325203252" fill="none" stroke="black" stroke-width="0.6"></polyline><polyline points="30.589430894308943,76.3719512195122 30.538617886178862,76.3211382113821 30.48780487804878,76.27032520325203 30.4369918699187,76.21951219512195 30.4369918699187,76.21951219512195 30.38617886178862,76.16869918699187 30.38617886178862,76.16869918699187 30.38617886178862,76.16869918699187 30.38617886178862,76.11788617886178 30.38617886178862,76.11788617886178 30.38617886178862,76.11788617886178 30.38617886178862,76.11788617886178 30.4369918699187,76.11788617886178 30.48780487804878,76.21951219512195 30.538617886178862,76.3719512195122 30.640243902439025,76.6260162601626 30.79268292682927,77.03252032520325 30.945121951219512,77.54065040650406 31.046747967479675,78.04878048780488 31.19918699186992,78.5060975609756 31.30081300813008,78.86178861788618 31.351626016260163,79.0650406504065 31.402439024390244,79.11585365853658 31.402439024390244,79.11585365853658 31.402439024390244,79.11585365853658 31.402439024390244,79.0650406504065 31.402439024390244,79.01422764227642 31.402439024390244,78.96341463414635 31.402439024390244,78.91260162601625 31.402439024390244,78.86178861788618 31.402439024390244,78.70934959349593 31.402439024390244,78.5060975609756 31.504065040650406,78.09959349593495 31.65650406504065,77.64227642276423 31.910569105691057,77.03252032520325 32.3170731707317,76.3211382113821 32.72357723577236,75.66056910569105 33.13008130081301,75 33.4349593495935,74.6951219512195 33.58739837398374,74.49186991869918 33.6890243902439,74.39024390243902 33.739837398373986,74.39024390243902 33.790650406504064,74.33943089430895 33.84146341463415,74.33943089430895 33.84146341463415,74.33943089430895 33.892276422764226,74.33943089430895 33.99390243902439,74.33943089430895" fill="none" stroke="black" stroke-width="0.6"></polyline><polyline points="45.68089430894309,76.27032520325203 45.68089430894309,76.27032520325203 45.579268292682926,76.27032520325203 45.52845528455285,76.21951219512195 45.47764227642276,76.21951219512195 45.42682926829268,76.21951219512195 45.42682926829268,76.21951219512195 45.42682926829268,76.21951219512195 45.42682926829268,76.21951219512195 45.42682926829268,76.21951219512195 45.42682926829268,76.21951219512195 45.42682926829268,76.27032520325203 45.42682926829268,76.3211382113821 45.42682926829268,76.47357723577235 45.47764227642276,76.67682926829268 45.47764227642276,77.03252032520325 45.47764227642276,77.54065040650406 45.47764227642276,78.15040650406505 45.47764227642276,78.65853658536585 45.47764227642276,79.0650406504065 45.47764227642276,79.369918699187 45.47764227642276,79.47154471544715 45.52845528455285,79.52235772357723 45.52845528455285,79.52235772357723 45.52845528455285,79.47154471544715 45.52845528455285,79.42073170731707 45.52845528455285,79.369918699187 45.579268292682926,79.26829268292683 45.63008130081301,79.0650406504065 45.73170731707317,78.76016260162602 45.88414634146341,78.35365853658537 46.08739837398374,77.9471544715447 46.290650406504064,77.48983739837398 46.49390243902439,77.08333333333333 46.697154471544714,76.72764227642276 46.90040650406504,76.47357723577235 47.0020325203252,76.3719512195122 47.052845528455286,76.3719512195122 47.052845528455286,76.3719512195122 47.052845528455286,76.42276422764228 47.052845528455286,76.47357723577235 47.103658536585364,76.52439024390243 47.15447154471545,76.6260162601626 47.20528455284553,76.82926829268293 47.25609756097561,77.08333333333333 47.30691056910569,77.4390243902439 47.357723577235774,77.84552845528455 47.40853658536585,78.2520325203252 47.459349593495936,78.5569105691057 47.5609756097561,78.76016260162602 47.66260162601626,78.91260162601625" fill="none" stroke="black" stroke-width="0.6"></polyline><polyline points="47.66260162601626,78.91260162601625 47.764227642276424,78.96341463414635 47.86585365853659,78.96341463414635 48.01829268292683,78.86178861788618 48.11991869918699,78.65853658536585 48.323170731707314,78.40447154471545 48.52642276422764,78.04878048780488 48.729674796747965,77.6930894308943 48.983739837398375,77.23577235772358 49.23780487804878,76.77845528455285 49.4410569105691,76.27032520325203 49.69512195121951,75.8130081300813 49.84756097560975,75.45731707317073 49.949186991869915,75.15243902439025 50,74.89837398373983 50,74.7459349593496 50,74.6951219512195 50,74.6951219512195 50,74.6951219512195 50,74.6951219512195 50,74.6951219512195 50,74.6951219512195 50,74.6951219512195 50,74.7459349593496 50,74.7459349593496 50,74.7459349593496 50,74.7459349593496 50,74.79674796747967 50,74.79674796747967 50,74.79674796747967 50,74.79674796747967 50,74.79674796747967 50,74.84756097560975 50,74.84756097560975 50,74.84756097560975 50,74.84756097560975 50,74.84756097560975 50,74.89837398373983 50,75" fill="none" stroke="black" stroke-width="0.6"></polyline><polyline points="62.19512195121951,75.96544715447155 62.042682926829265,75.91463414634146 61.890243902439025,75.86382113821138 61.83943089430894,75.86382113821138 61.83943089430894,75.86382113821138 61.83943089430894,75.86382113821138 61.890243902439025,75.86382113821138 62.042682926829265,75.96544715447155 62.24593495934959,76.11788617886178 62.5,76.27032520325203 62.80487804878049,76.47357723577235 63.16056910569105,76.67682926829268 63.516260162601625,76.880081300813 63.87195121951219,77.08333333333333 64.22764227642276,77.33739837398373 64.53252032520325,77.64227642276423 64.6849593495935,77.84552845528455 64.78658536585365,77.9979674796748 64.88821138211382,78.09959349593495 64.88821138211382,78.09959349593495 64.88821138211382,78.09959349593495 64.88821138211382,78.09959349593495 64.88821138211382,78.09959349593495 64.88821138211382,78.09959349593495 64.83739837398373,78.09959349593495 64.83739837398373,78.09959349593495 64.83739837398373,78.09959349593495 64.78658536585365,78.09959349593495" fill="none" stroke="black" stroke-width="0.6"></polyline><polyline points="66.0569105691057,74.39024390243902 65.95528455284553,74.28861788617886 65.7520325203252,74.13617886178862 65.65040650406505,74.13617886178862 65.59959349593495,74.13617886178862 65.4979674796748,74.13617886178862 65.34552845528455,74.33943089430895 65.14227642276423,74.59349593495935 64.83739837398373,75.05081300813008 64.53252032520325,75.5589430894309 64.1260162601626,76.16869918699187 63.668699186991866,76.93089430894308 63.21138211382114,77.64227642276423 62.80487804878049,78.35365853658537 62.34756097560975,78.96341463414635 62.09349593495935,79.369918699187 61.890243902439025,79.57317073170732 61.78861788617886,79.77642276422765 61.6869918699187,79.8780487804878 61.636178861788615,79.92886178861788 61.636178861788615,79.92886178861788 61.636178861788615,79.92886178861788 61.636178861788615,79.92886178861788 61.636178861788615,79.92886178861788 61.636178861788615,79.92886178861788 61.636178861788615,79.92886178861788 61.636178861788615,79.92886178861788 61.636178861788615,79.92886178861788 61.636178861788615,79.92886178861788 61.636178861788615,79.92886178861788 61.636178861788615,79.92886178861788 61.636178861788615,79.92886178861788 61.636178861788615,79.92886178861788 61.636178861788615,79.92886178861788 61.636178861788615,79.92886178861788" fill="none" stroke="black" stroke-width="0.6"></polyline><polyline points="79.01422764227642,75.8130081300813 78.91260162601625,75.66056910569105 78.8109756097561,75.5589430894309 78.8109756097561,75.5081300813008 78.8109756097561,75.45731707317073 78.8109756097561,75.45731707317073 78.8109756097561,75.5081300813008 78.91260162601625,75.60975609756098 79.01422764227642,75.76219512195122 79.11585365853658,76.01626016260163 79.26829268292683,76.21951219512195 79.42073170731707,76.47357723577235 79.52235772357723,76.72764227642276 79.67479674796748,76.98170731707317 79.77642276422765,77.1849593495935 79.8780487804878,77.33739837398373 79.97967479674797,77.38821138211382 80.08130081300813,77.4390243902439 80.1321138211382,77.4390243902439 80.1321138211382,77.4390243902439 80.1829268292683,77.33739837398373 80.1829268292683,77.28658536585365 80.1829268292683,77.28658536585365" fill="none" stroke="black" stroke-width="0.6"></polyline><polyline points="82.21544715447155,74.7459349593496 82.16463414634146,74.59349593495935 82.11382113821138,74.4410569105691 82.0630081300813,74.39024390243902 82.0630081300813,74.39024390243902 82.0630081300813,74.39024390243902 82.0630081300813,74.39024390243902 82.01219512195122,74.49186991869918 81.85975609756098,74.79674796747967 81.60569105691057,75.20325203252033 81.25,75.76219512195122 80.84349593495935,76.42276422764228 80.33536585365853,77.1341463414634 79.77642276422765,78.04878048780488 79.16666666666667,78.96341463414635 78.60772357723577,79.77642276422765 78.09959349593495,80.58943089430895 77.59146341463415,81.25 77.23577235772358,81.7581300813008 76.93089430894308,82.16463414634146 76.67682926829268,82.41869918699187 76.52439024390243,82.52032520325203 76.42276422764228,82.5711382113821 76.3719512195122,82.5711382113821 76.3719512195122,82.52032520325203 76.3211382113821,82.46951219512195 76.3211382113821,82.46951219512195 76.3211382113821,82.41869918699187 76.3211382113821,82.41869918699187 76.3211382113821,82.36788617886178 76.3211382113821,82.36788617886178 76.3211382113821,82.36788617886178 76.3719512195122,82.3170731707317 76.47357723577235,82.3170731707317 76.57520325203252,82.21544715447155" fill="none" stroke="black" stroke-width="0.6"></polyline><polyline points="14.48170731707317,90.85365853658536 14.278455284552845,90.80284552845528 14.176829268292682,90.7520325203252 14.1260162601626,90.70121951219512 14.07520325203252,90.70121951219512 14.024390243902438,90.70121951219512 14.024390243902438,90.70121951219512 14.024390243902438,90.70121951219512 14.024390243902438,90.70121951219512 14.024390243902438,90.70121951219512 14.024390243902438,90.70121951219512 14.024390243902438,90.70121951219512 14.07520325203252,90.70121951219512 14.1260162601626,90.70121951219512 14.278455284552845,90.80284552845528 14.48170731707317,90.90447154471545 14.735772357723578,91.0060975609756 15.040650406504065,91.10772357723577 15.396341463414634,91.20934959349593 15.802845528455284,91.3109756097561 16.260162601626014,91.3109756097561 16.666666666666668,91.3109756097561 17.1239837398374,91.26016260162602 17.378048780487806,91.20934959349593 17.632113821138212,91.10772357723577 17.784552845528456,91.0060975609756 17.835365853658537,90.95528455284553 17.88617886178862,90.90447154471545 17.88617886178862,90.90447154471545 17.88617886178862,90.90447154471545 17.835365853658537,90.90447154471545 17.835365853658537,90.90447154471545 17.784552845528456,90.90447154471545 17.784552845528456,90.90447154471545 17.784552845528456,90.90447154471545 17.733739837398375,90.95528455284553 17.733739837398375,91.0060975609756 17.632113821138212,91.15853658536585 17.53048780487805,91.3109756097561 17.428861788617887,91.51422764227642 17.276422764227643,91.76829268292683 17.022357723577237,92.02235772357723 16.76829268292683,92.3780487804878 16.41260162601626,92.73373983739837 16.006097560975608,93.14024390243902 15.548780487804878,93.54674796747967 15.091463414634147,93.90243902439025 14.684959349593496,94.2581300813008 14.329268292682926,94.51219512195122 14.024390243902438,94.76626016260163 13.821138211382113,94.86788617886178" fill="none" stroke="black" stroke-width="0.6"></polyline><polyline points="13.821138211382113,94.86788617886178 13.66869918699187,94.96951219512195 13.617886178861788,95.02032520325203 13.617886178861788,95.0711382113821 13.617886178861788,95.0711382113821 13.617886178861788,95.0711382113821 13.66869918699187,95.0711382113821 13.770325203252032,95.02032520325203 13.922764227642276,94.96951219512195 14.1260162601626,94.91869918699187 14.380081300813007,94.86788617886178 14.684959349593496,94.76626016260163 14.939024390243903,94.66463414634146 15.24390243902439,94.5630081300813 15.59959349593496,94.46138211382113 15.955284552845528,94.35975609756098 16.36178861788618,94.2581300813008 16.81910569105691,94.20731707317073 17.276422764227643,94.15650406504065 17.682926829268293,94.10569105691057 18.089430894308943,94.10569105691057 18.445121951219512,94.10569105691057 18.69918699186992,94.15650406504065 18.851626016260163,94.2581300813008 18.953252032520325,94.35975609756098 19.004065040650406,94.41056910569105 19.004065040650406,94.46138211382113 19.004065040650406,94.51219512195122 19.004065040650406,94.51219512195122 19.004065040650406,94.51219512195122 19.004065040650406,94.51219512195122 19.004065040650406,94.51219512195122 18.953252032520325,94.51219512195122 18.953252032520325,94.51219512195122 18.953252032520325,94.51219512195122 18.902439024390244,94.5630081300813 18.902439024390244,94.61382113821138" fill="none" stroke="black" stroke-width="0.6"></polyline></svg>