<svg height="100" width="100" preserveAspectRatio="xMidYMid meet"><polyline points="10.873983739837398,11.077235772357723 10.873983739837398,10.924796747967479 10.873983739837398,10.823170731707316 10.873983739837398,10.721544715447154 10.823170731707316,10.619918699186991 10.823170731707316,10.518292682926829 10.772357723577235,10.467479674796747 10.721544715447154,10.416666666666666 10.619918699186991,10.416666666666666 10.467479674796747,10.467479674796747 10.16260162601626,10.670731707317072 9.654471544715447,11.128048780487804 8.892276422764228,11.788617886178862 8.079268292682926,12.601626016260163 7.164634146341463,13.617886178861788 6.300813008130081,14.684959349593496 5.7926829268292686,15.497967479674797 5.436991869918699,16.10772357723577 5.284552845528455,16.565040650406505 5.335365853658536,16.76829268292683 5.589430894308943,17.022357723577237 5.894308943089431,17.17479674796748 6.3516260162601625,17.276422764227643 6.859756097560975,17.225609756097562 7.520325203252033,17.073170731707318 8.130081300813007,16.76829268292683 8.739837398373984,16.41260162601626 9.40040650406504,15.955284552845528 9.959349593495935,15.497967479674797 10.518292682926829,14.939024390243903 11.077235772357723,14.329268292682926 11.382113821138212,13.821138211382113 11.636178861788618,13.414634146341463 11.788617886178862,12.957317073170731 11.839430894308943,12.601626016260163 11.839430894308943,12.245934959349594 11.839430894308943,11.890243902439025 11.6869918699187,11.6869918699187 11.483739837398375,11.534552845528456 11.229674796747966,11.432926829268293 10.873983739837398,11.432926829268293 10.467479674796747,11.534552845528456 9.908536585365853,11.737804878048781 9.40040650406504,12.09349593495935 8.841463414634147,12.601626016260163 8.231707317073171,13.262195121951219 7.82520325203252,13.770325203252032 7.520325203252033,14.227642276422763 7.469512195121951,14.53252032520325 7.469512195121951,14.735772357723578 7.621951219512195,14.888211382113822" fill="none" stroke="black" stroke-width="0.6"></polyline><polyline points="7.621951219512195,14.888211382113822 7.82520325203252,14.989837398373984 8.079268292682926,14.989837398373984 8.333333333333334,14.989837398373984 8.739837398373984,14.83739837398374 9.146341463414634,14.583333333333332 9.603658536585366,14.278455284552845 10.111788617886178,13.922764227642276 10.56910569105691,13.66869918699187 11.026422764227641,13.414634146341463 11.331300813008129,13.211382113821138 11.432926829268293,13.211382113821138 11.432926829268293,13.211382113821138 11.382113821138212,13.3130081300813 11.280487804878048,13.516260162601625 10.97560975609756,13.922764227642276 10.619918699186991,14.430894308943088 10.213414634146341,15.040650406504065 9.857723577235772,15.65040650406504 9.451219512195122,16.3109756097561 9.146341463414634,16.869918699186993 8.94308943089431,17.428861788617887 8.790650406504065,17.835365853658537 8.790650406504065,17.98780487804878 8.790650406504065,18.038617886178862 8.790650406504065,18.089430894308943 8.841463414634147,18.089430894308943 8.94308943089431,18.038617886178862 9.146341463414634,17.88617886178862 9.451219512195122,17.632113821138212 9.857723577235772,17.225609756097562 10.315040650406504,16.76829268292683 10.772357723577235,16.36178861788618 11.280487804878048,15.904471544715447 11.737804878048781,15.497967479674797 12.144308943089431,15.142276422764228 12.449186991869919,14.939024390243903 12.550813008130081,14.83739837398374 12.550813008130081,14.83739837398374 12.550813008130081,14.83739837398374 12.550813008130081,14.83739837398374 12.550813008130081,14.83739837398374 12.5,14.83739837398374 12.5,14.83739837398374 12.449186991869919,14.83739837398374 12.449186991869919,14.83739837398374 12.449186991869919,14.83739837398374 12.398373983739837,14.83739837398374 12.398373983739837,14.888211382113822 12.398373983739837,14.888211382113822 12.398373983739837,14.888211382113822" fill="none" stroke="black" stroke-width="0.6"></polyline><polyline points="12.398373983739837,14.888211382113822 12.398373983739837,14.888211382113822 12.398373983739837,14.888211382113822 12.347560975609756,14.888211382113822 12.347560975609756,14.939024390243903 12.347560975609756,14.939024390243903 12.347560975609756,14.939024390243903 12.347560975609756,14.939024390243903 12.296747967479675,14.989837398373984 12.245934959349594,14.989837398373984 12.245934959349594,15.040650406504065 12.195121951219512,15.040650406504065 12.144308943089431,15.091463414634147 12.09349593495935,15.091463414634147 12.09349593495935,15.142276422764228 12.042682926829269,15.142276422764228 11.991869918699187,15.142276422764228 11.991869918699187,15.19308943089431 11.941056910569106,15.19308943089431 11.941056910569106,15.19308943089431 11.941056910569106,15.19308943089431 11.941056910569106,15.19308943089431 11.890243902439025,15.19308943089431 11.890243902439025,15.24390243902439 11.890243902439025,15.24390243902439 11.890243902439025,15.24390243902439 11.890243902439025,15.24390243902439 11.890243902439025,15.24390243902439 11.890243902439025,15.24390243902439 11.890243902439025,15.24390243902439 11.890243902439025,15.24390243902439 11.890243902439025,15.24390243902439 11.890243902439025,15.24390243902439 11.890243902439025,15.24390243902439 11.890243902439025,15.294715447154472" fill="none" stroke="black" stroke-width="0.6"></polyline><polyline points="13.516260162601625,13.567073170731707 13.516260162601625,13.465447154471544 13.516260162601625,13.363821138211382 13.567073170731707,13.211382113821138 13.567073170731707,13.109756097560975 13.617886178861788,13.058943089430894 13.617886178861788,12.957317073170731 13.66869918699187,12.957317073170731 13.66869918699187,12.957317073170731 13.66869918699187,12.957317073170731 13.66869918699187,13.008130081300813 13.617886178861788,13.211382113821138 13.465447154471544,13.617886178861788 13.211382113821138,14.07520325203252 12.957317073170731,14.684959349593496 12.601626016260163,15.345528455284553 12.347560975609756,16.006097560975608 12.144308943089431,16.565040650406505 12.144308943089431,16.81910569105691 12.144308943089431,16.920731707317074 12.296747967479675,16.920731707317074 12.398373983739837,16.81910569105691 12.601626016260163,16.615853658536587 12.90650406504065,16.3109756097561 13.211382113821138,15.904471544715447 13.516260162601625,15.497967479674797 13.871951219512194,14.989837398373984 14.176829268292682,14.48170731707317 14.48170731707317,14.024390243902438 14.735772357723578,13.617886178861788 14.83739837398374,13.414634146341463 14.888211382113822,13.363821138211382 14.888211382113822,13.363821138211382 14.888211382113822,13.363821138211382 14.83739837398374,13.414634146341463 14.786585365853659,13.465447154471544 14.735772357723578,13.617886178861788 14.583333333333332,13.871951219512194 14.380081300813007,14.227642276422763 14.176829268292682,14.583333333333332 13.973577235772357,14.939024390243903 13.770325203252032,15.396341463414634 13.617886178861788,15.853658536585366 13.567073170731707,16.209349593495933 13.567073170731707,16.514227642276424 13.567073170731707,16.565040650406505 13.71951219512195,16.565040650406505 13.973577235772357,16.463414634146343 14.278455284552845,16.15853658536585 14.634146341463413,15.802845528455284 15.040650406504065,15.396341463414634" fill="none" stroke="black" stroke-width="0.6"></polyline><polyline points="15.040650406504065,15.396341463414634 15.447154471544716,14.939024390243903 15.802845528455284,14.53252032520325 16.15853658536585,14.1260162601626 16.36178861788618,13.871951219512194 16.565040650406505,13.66869918699187 16.615853658536587,13.617886178861788 16.666666666666668,13.617886178861788 16.666666666666668,13.617886178861788 16.666666666666668,13.617886178861788 16.615853658536587,13.71951219512195 16.565040650406505,13.871951219512194 16.41260162601626,14.176829268292682 16.15853658536585,14.583333333333332 15.955284552845528,15.040650406504065 15.752032520325203,15.548780487804878 15.59959349593496,16.006097560975608 15.548780487804878,16.41260162601626 15.497967479674797,16.71747967479675 15.59959349593496,16.76829268292683 15.802845528455284,16.76829268292683 16.10772357723577,16.463414634146343 16.514227642276424,16.05691056910569 16.920731707317074,15.548780487804878" fill="none" stroke="black" stroke-width="0.6"></polyline><polyline points="17.479674796747968,12.296747967479675 17.327235772357724,12.245934959349594 17.17479674796748,12.245934959349594 17.073170731707318,12.245934959349594 16.971544715447155,12.245934959349594 16.920731707317074,12.296747967479675 16.920731707317074,12.347560975609756 16.920731707317074,12.347560975609756 16.920731707317074,12.398373983739837 17.022357723577237,12.5 17.17479674796748,12.601626016260163 17.327235772357724,12.804878048780488" fill="none" stroke="black" stroke-width="0.6"></polyline><polyline points="19.5630081300813,13.770325203252032 19.5630081300813,13.66869918699187 19.51219512195122,13.567073170731707 19.461382113821138,13.516260162601625 19.410569105691057,13.414634146341463 19.359756097560975,13.3130081300813 19.308943089430894,13.262195121951219 19.258130081300813,13.211382113821138 19.15650406504065,13.211382113821138 19.004065040650406,13.262195121951219 18.75,13.465447154471544 18.445121951219512,13.821138211382113 18.089430894308943,14.278455284552845 17.733739837398375,14.786585365853659 17.479674796747968,15.345528455284553 17.327235772357724,15.802845528455284 17.276422764227643,16.209349593495933 17.327235772357724,16.463414634146343 17.479674796747968,16.565040650406505 17.632113821138212,16.615853658536587 17.9369918699187,16.565040650406505 18.241869918699187,16.36178861788618 18.597560975609756,16.10772357723577 18.953252032520325,15.802845528455284 19.258130081300813,15.447154471544716 19.61382113821138,15.040650406504065 19.867886178861788,14.583333333333332 20.223577235772357,14.1260162601626 20.528455284552845,13.567073170731707 20.884146341463413,12.957317073170731 21.239837398373982,12.347560975609756 21.646341463414632,11.636178861788618 22.052845528455283,11.077235772357723 22.30691056910569,10.619918699186991 22.40853658536585,10.315040650406504 22.40853658536585,10.16260162601626 22.40853658536585,10.16260162601626 22.35772357723577,10.16260162601626 22.256097560975608,10.315040650406504 22.0020325203252,10.619918699186991 21.646341463414632,11.128048780487804 21.290650406504064,11.737804878048781 20.884146341463413,12.449186991869919 20.426829268292682,13.211382113821138 19.96951219512195,14.1260162601626 19.61382113821138,15.040650406504065 19.359756097560975,15.752032520325203 19.359756097560975,16.05691056910569 19.359756097560975,16.209349593495933 19.359756097560975,16.209349593495933 19.461382113821138,16.209349593495933" fill="none" stroke="black" stroke-width="0.6"></polyline><polyline points="19.461382113821138,16.209349593495933 19.51219512195122,16.15853658536585 19.61382113821138,15.955284552845528 19.817073170731707,15.65040650406504 20.020325203252032,15.294715447154472 20.172764227642276,14.989837398373984 20.3760162601626,14.634146341463413 20.630081300813007,14.278455284552845 20.884146341463413,13.973577235772357 21.08739837398374,13.71951219512195 21.341463414634145,13.567073170731707 21.54471544715447,13.516260162601625 21.747967479674795,13.516260162601625 21.849593495934958,13.516260162601625 21.95121951219512,13.567073170731707 22.0020325203252,13.66869918699187 22.0020325203252,13.770325203252032 22.052845528455283,13.871951219512194 22.052845528455283,14.024390243902438 22.052845528455283,14.176829268292682 22.0020325203252,14.329268292682926 21.90040650406504,14.48170731707317 21.798780487804876,14.684959349593496 21.697154471544714,14.83739837398374 21.54471544715447,14.989837398373984 21.392276422764226,15.142276422764228 21.290650406504064,15.24390243902439 21.13821138211382,15.396341463414634 21.036585365853657,15.497967479674797 20.985772357723576,15.59959349593496 20.985772357723576,15.701219512195122 20.985772357723576,15.802845528455284 21.08739837398374,15.904471544715447 21.290650406504064,16.006097560975608 21.59552845528455,16.006097560975608 21.95121951219512,16.006097560975608 22.40853658536585,15.955284552845528 22.865853658536587,15.802845528455284 23.272357723577237,15.65040650406504 23.628048780487806,15.497967479674797 23.932926829268293,15.396341463414634 24.085365853658537,15.396341463414634 24.1869918699187,15.396341463414634" fill="none" stroke="black" stroke-width="0.6"></polyline><polyline points="29.217479674796746,10.924796747967479 29.217479674796746,10.721544715447154 29.268292682926827,10.619918699186991 29.268292682926827,10.56910569105691 29.31910569105691,10.56910569105691 29.31910569105691,10.56910569105691 29.31910569105691,10.619918699186991 29.31910569105691,10.772357723577235 29.166666666666664,11.229674796747966 28.912601626016258,11.890243902439025 28.455284552845526,12.804878048780488 27.896341463414632,13.922764227642276 27.184959349593495,15.24390243902439 26.422764227642276,16.666666666666668 25.8130081300813,17.835365853658537 25.35569105691057,18.851626016260163 25.152439024390244,19.715447154471544 25.101626016260163,20.223577235772357 25.101626016260163,20.426829268292682 25.203252032520325,20.528455284552845 25.40650406504065,20.528455284552845 25.660569105691057,20.32520325203252 26.117886178861788,19.91869918699187 26.676829268292682,19.308943089430894 27.235772357723576,18.69918699186992 27.79471544715447,18.038617886178862 28.2520325203252,17.428861788617887 28.760162601626014,16.81910569105691 29.166666666666664,16.15853658536585 29.420731707317074,15.65040650406504 29.522357723577237,15.19308943089431 29.573170731707318,14.786585365853659 29.573170731707318,14.48170731707317 29.471544715447155,14.227642276422763 29.31910569105691,14.024390243902438 29.166666666666664,13.871951219512194 28.96341463414634,13.821138211382113 28.709349593495933,13.821138211382113 28.506097560975608,13.821138211382113 28.20121951219512,13.871951219512194 27.947154471544714,13.973577235772357 27.642276422764226,14.176829268292682 27.4390243902439,14.380081300813007 27.235772357723576,14.634146341463413 27.134146341463413,14.888211382113822 27.134146341463413,15.19308943089431 27.134146341463413,15.447154471544716 27.235772357723576,15.65040650406504 27.4390243902439,15.853658536585366 27.79471544715447,15.904471544715447 28.20121951219512,15.904471544715447" fill="none" stroke="black" stroke-width="0.6"></polyline><polyline points="28.20121951219512,15.904471544715447 28.760162601626014,15.802845528455284 29.217479674796746,15.548780487804878 29.725609756097562,15.19308943089431 30.284552845528456,14.786585365853659 30.741869918699187,14.329268292682926 31.148373983739837,13.871951219512194 31.402439024390244,13.516260162601625 31.453252032520325,13.363821138211382 31.453252032520325,13.262195121951219 31.402439024390244,13.211382113821138 31.30081300813008,13.109756097560975 31.148373983739837,13.058943089430894 30.945121951219512,13.058943089430894 30.691056910569106,13.109756097560975 30.335365853658537,13.363821138211382 29.827235772357724,13.71951219512195 29.471544715447155,14.07520325203252 29.166666666666664,14.48170731707317 28.912601626016258,14.939024390243903 28.861788617886177,15.345528455284553 28.861788617886177,15.65040650406504 29.01422764227642,15.853658536585366 29.217479674796746,15.904471544715447 29.420731707317074,15.904471544715447 29.67479674796748,15.904471544715447 30.03048780487805,15.65040650406504 30.48780487804878,15.24390243902439 30.995934959349594,14.684959349593496 31.453252032520325,14.176829268292682 31.758130081300813,13.71951219512195 31.910569105691057,13.363821138211382 31.910569105691057,13.211382113821138 31.859756097560975,13.109756097560975 31.70731707317073,13.058943089430894 31.554878048780488,13.008130081300813 31.351626016260163,12.957317073170731 31.097560975609756,13.008130081300813 30.84349593495935,13.109756097560975 30.538617886178862,13.363821138211382 30.284552845528456,13.617886178861788 30.132113821138212,13.922764227642276 30.03048780487805,14.227642276422763 30.03048780487805,14.48170731707317 30.132113821138212,14.735772357723578 30.38617886178862,14.888211382113822 30.691056910569106,14.989837398373984 31.148373983739837,14.939024390243903 31.65650406504065,14.786585365853659 32.16463414634146,14.53252032520325 32.672764227642276,14.227642276422763" fill="none" stroke="black" stroke-width="0.6"></polyline><polyline points="32.672764227642276,14.227642276422763 33.13008130081301,13.922764227642276 33.53658536585366,13.66869918699187 33.84146341463415,13.414634146341463 34.146341463414636,13.211382113821138 34.40040650406504,13.058943089430894 34.5020325203252,12.957317073170731 34.603658536585364,12.90650406504065 34.65447154471545,12.90650406504065 34.65447154471545,12.90650406504065 34.70528455284553,12.957317073170731 34.75609756097561,13.058943089430894 34.80691056910569,13.211382113821138 34.857723577235774,13.414634146341463 34.90853658536585,13.66869918699187 35.010162601626014,13.973577235772357 35.0609756097561,14.278455284552845 35.16260162601626,14.634146341463413 35.264227642276424,14.939024390243903 35.416666666666664,15.19308943089431 35.61991869918699,15.396341463414634 35.823170731707314,15.447154471544716 36.077235772357724,15.447154471544716 36.28048780487805,15.447154471544716 36.53455284552845,15.294715447154472 36.73780487804878,15.142276422764228 36.890243902439025,15.040650406504065 36.99186991869919,14.888211382113822 37.09349593495935,14.786585365853659" fill="none" stroke="black" stroke-width="0.6"></polyline><polyline points="38.36382113821138,12.449186991869919 38.3130081300813,12.449186991869919 38.21138211382114,12.347560975609756 38.16056910569105,12.296747967479675 38.05894308943089,12.245934959349594 37.95731707317073,12.245934959349594 37.65243902439024,12.5 37.19512195121951,12.957317073170731 36.53455284552845,13.617886178861788 35.823170731707314,14.278455284552845 35.11178861788618,14.989837398373984 34.552845528455286,15.65040650406504 34.146341463414636,16.10772357723577 33.790650406504064,16.514227642276424 33.485772357723576,16.920731707317074 33.333333333333336,17.17479674796748 33.28252032520325,17.378048780487806 33.23170731707317,17.479674796747968 33.18089430894309,17.479674796747968 33.18089430894309,17.53048780487805 33.18089430894309,17.53048780487805 33.18089430894309,17.53048780487805 33.18089430894309,17.53048780487805 33.18089430894309,17.53048780487805 33.18089430894309,17.53048780487805 33.18089430894309,17.53048780487805 33.18089430894309,17.53048780487805 33.18089430894309,17.53048780487805 33.18089430894309,17.53048780487805 33.18089430894309,17.53048780487805 33.13008130081301,17.58130081300813 33.13008130081301,17.58130081300813 33.13008130081301,17.58130081300813 33.13008130081301,17.58130081300813 33.13008130081301,17.58130081300813 33.13008130081301,17.58130081300813 33.13008130081301,17.58130081300813 33.13008130081301,17.58130081300813 33.13008130081301,17.58130081300813 33.13008130081301,17.58130081300813 33.13008130081301,17.58130081300813 33.13008130081301,17.58130081300813 33.13008130081301,17.58130081300813 33.13008130081301,17.58130081300813 33.13008130081301,17.58130081300813 33.13008130081301,17.58130081300813 33.13008130081301,17.58130081300813 33.13008130081301,17.58130081300813 33.13008130081301,17.58130081300813 33.13008130081301,17.58130081300813 33.13008130081301,17.58130081300813" fill="none" stroke="black" stroke-width="0.6"></polyline><polyline points="33.13008130081301,17.58130081300813 33.13008130081301,17.58130081300813 33.13008130081301,17.58130081300813 33.13008130081301,17.58130081300813 33.13008130081301,17.58130081300813 33.13008130081301,17.58130081300813 33.13008130081301,17.58130081300813 33.13008130081301,17.58130081300813 33.13008130081301,17.58130081300813 33.13008130081301,17.58130081300813 33.13008130081301,17.58130081300813 33.13008130081301,17.58130081300813 33.13008130081301,17.58130081300813 33.13008130081301,17.58130081300813 33.13008130081301,17.58130081300813 33.13008130081301,17.58130081300813 33.13008130081301,17.58130081300813 33.13008130081301,17.58130081300813 33.13008130081301,17.58130081300813 33.13008130081301,17.58130081300813 33.079268292682926,17.58130081300813 33.079268292682926,17.58130081300813 33.079268292682926,17.58130081300813 33.079268292682926,17.58130081300813 33.079268292682926,17.58130081300813 33.079268292682926,17.58130081300813 33.079268292682926,17.58130081300813 33.079268292682926,17.58130081300813 33.079268292682926,17.58130081300813 33.079268292682926,17.58130081300813" fill="none" stroke="black" stroke-width="0.6"></polyline><polyline points="41.86991869918699,13.262195121951219 41.86991869918699,13.058943089430894 41.86991869918699,12.90650406504065 41.86991869918699,12.855691056910569 41.86991869918699,12.804878048780488 41.86991869918699,12.804878048780488 41.86991869918699,12.90650406504065 41.86991869918699,13.160569105691057 41.86991869918699,13.567073170731707 41.81910569105691,14.1260162601626 41.76829268292683,14.786585365853659 41.71747967479675,15.447154471544716 41.61585365853659,16.15853658536585 41.46341463414634,16.920731707317074 41.260162601626014,17.682926829268293 41.00609756097561,18.34349593495935 40.701219512195124,19.004065040650406 40.447154471544714,19.5630081300813 40.09146341463415,19.96951219512195 39.78658536585366,20.274390243902438 39.48170731707317,20.426829268292682 39.176829268292686,20.579268292682926 38.922764227642276,20.630081300813007 38.668699186991866,20.630081300813007 38.46544715447154,20.528455284552845 38.3130081300813,20.3760162601626 38.16056910569105,20.121951219512194 38.05894308943089,19.817073170731707 38.05894308943089,19.410569105691057 38.109756097560975,18.902439024390244 38.36382113821138,18.34349593495935 38.668699186991866,17.733739837398375 39.1260162601626,17.1239837398374 39.735772357723576,16.41260162601626 40.396341463414636,15.65040650406504 41.15853658536585,15.040650406504065 41.86991869918699,14.430894308943088 42.53048780487805,13.922764227642276 43.08943089430894,13.567073170731707 43.699186991869915,13.262195121951219 44.20731707317073,12.957317073170731 44.66463414634146,12.703252032520325 44.96951219512195,12.5 45.12195121951219,12.449186991869919 45.12195121951219,12.449186991869919 45.12195121951219,12.449186991869919 45.12195121951219,12.449186991869919 45.12195121951219,12.449186991869919 45.02032520325203,12.5 44.766260162601625,12.804878048780488 44.41056910569105,13.160569105691057" fill="none" stroke="black" stroke-width="0.6"></polyline><polyline points="44.41056910569105,13.160569105691057 44.05487804878049,13.617886178861788 43.75,13.973577235772357 43.49593495934959,14.329268292682926 43.24186991869919,14.684959349593496 43.140243902439025,14.989837398373984 43.140243902439025,15.19308943089431 43.24186991869919,15.345528455284553 43.44512195121951,15.345528455284553 43.699186991869915,15.345528455284553 44.0040650406504,15.24390243902439 44.359756097560975,14.989837398373984 44.766260162601625,14.684959349593496 45.22357723577235,14.278455284552845 45.63008130081301,13.922764227642276 46.08739837398374,13.516260162601625 46.49390243902439,13.160569105691057 46.7479674796748,12.855691056910569 46.90040650406504,12.652439024390244 47.0020325203252,12.449186991869919 47.052845528455286,12.398373983739837 47.052845528455286,12.347560975609756 47.0020325203252,12.347560975609756 46.951219512195124,12.347560975609756 46.951219512195124,12.347560975609756 46.84959349593496,12.449186991869919 46.697154471544714,12.652439024390244 46.44308943089431,13.058943089430894 46.13821138211382,13.516260162601625 45.833333333333336,13.922764227642276 45.579268292682926,14.430894308943088 45.3760162601626,14.939024390243903 45.325203252032516,15.294715447154472 45.325203252032516,15.497967479674797 45.42682926829268,15.548780487804878 45.68089430894309,15.447154471544716 45.985772357723576,15.19308943089431 46.392276422764226,14.786585365853659 46.84959349593496,14.380081300813007 47.052845528455286,14.176829268292682 47.25609756097561,13.922764227642276 47.510162601626014,13.71951219512195 48.11991869918699,13.058943089430894 48.47560975609756,12.703252032520325 48.729674796747965,12.398373983739837 48.93292682926829,12.195121951219512 49.08536585365854,12.09349593495935 49.136178861788615,12.042682926829269 49.136178861788615,12.042682926829269 49.136178861788615,12.09349593495935 49.136178861788615,12.195121951219512" fill="none" stroke="black" stroke-width="0.6"></polyline><polyline points="49.136178861788615,12.195121951219512 49.136178861788615,12.449186991869919 48.983739837398375,12.804878048780488 48.78048780487805,13.262195121951219 48.577235772357724,13.66869918699187 48.3739837398374,14.07520325203252 48.170731707317074,14.48170731707317 48.01829268292683,14.83739837398374 47.916666666666664,15.091463414634147 47.916666666666664,15.19308943089431 47.916666666666664,15.19308943089431 47.916666666666664,15.142276422764228 47.96747967479675,14.989837398373984 48.11991869918699,14.684959349593496 48.27235772357724,14.329268292682926 48.47560975609756,14.024390243902438 48.78048780487805,13.617886178861788 49.08536585365854,13.211382113821138 49.4410569105691,12.804878048780488 49.84756097560975,12.449186991869919 50.203252032520325,12.144308943089431 50.40650406504065,11.991869918699187 50.50813008130081,11.991869918699187 50.55894308943089,11.991869918699187 50.55894308943089,12.042682926829269 50.55894308943089,12.144308943089431 50.55894308943089,12.296747967479675 50.40650406504065,12.601626016260163 50.203252032520325,13.008130081300813 49.89837398373984,13.516260162601625 49.64430894308943,14.024390243902438 49.33943089430894,14.53252032520325 49.136178861788615,14.989837398373984 49.03455284552845,15.24390243902439 49.03455284552845,15.345528455284553 49.08536585365854,15.345528455284553 49.136178861788615,15.24390243902439 49.28861788617886,15.091463414634147 49.542682926829265,14.735772357723578 49.796747967479675,14.380081300813007 50.05081300813008,14.024390243902438 50.355691056910565,13.617886178861788 50.609756097560975,13.211382113821138 50.86382113821138,12.855691056910569 51.0670731707317,12.5 51.168699186991866,12.195121951219512 51.27032520325203,12.042682926829269 51.27032520325203,11.991869918699187 51.27032520325203,11.991869918699187 51.21951219512195,11.991869918699187 51.168699186991866,12.042682926829269" fill="none" stroke="black" stroke-width="0.6"></polyline><polyline points="51.168699186991866,12.042682926829269 51.0670731707317,12.195121951219512 50.91463414634146,12.5 50.762195121951216,12.90650406504065 50.55894308943089,13.3130081300813 50.40650406504065,13.71951219512195 50.2540650406504,14.176829268292682 50.203252032520325,14.634146341463413 50.2540650406504,14.939024390243903 50.40650406504065,15.19308943089431 50.609756097560975,15.24390243902439 50.91463414634146,15.24390243902439 51.27032520325203,15.091463414634147 51.67682926829268,14.83739837398374 52.03252032520325,14.53252032520325 52.33739837398374,14.227642276422763 52.540650406504064,13.973577235772357 52.74390243902439,13.71951219512195" fill="none" stroke="black" stroke-width="0.6"></polyline><polyline points="53.45528455284553,12.804878048780488 53.45528455284553,12.804878048780488 53.40447154471545,12.804878048780488 53.40447154471545,12.855691056910569 53.302845528455286,13.008130081300813 53.201219512195124,13.363821138211382 52.9979674796748,13.871951219512194 52.74390243902439,14.48170731707317 52.4390243902439,15.24390243902439 52.083333333333336,16.05691056910569 51.67682926829268,16.81910569105691 51.32113821138211,17.58130081300813 50.96544715447154,18.191056910569106 50.762195121951216,18.495934959349594 50.50813008130081,18.75 50.30487804878049,18.953252032520325 50.15243902439024,19.004065040650406 50.10162601626016,19.004065040650406 50.05081300813008,18.902439024390244 50.05081300813008,18.75 50.05081300813008,18.495934959349594 50.203252032520325,18.140243902439025 50.355691056910565,17.733739837398375 50.609756097560975,17.276422764227643 50.91463414634146,16.71747967479675 51.27032520325203,16.15853658536585 51.67682926829268,15.548780487804878 52.235772357723576,14.83739837398374 52.84552845528455,14.176829268292682 53.40447154471545,13.617886178861788 53.91260162601626,13.160569105691057 54.21747967479675,12.855691056910569 54.420731707317074,12.703252032520325 54.52235772357724,12.652439024390244 54.52235772357724,12.652439024390244 54.52235772357724,12.652439024390244 54.52235772357724,12.703252032520325 54.52235772357724,12.754065040650406 54.420731707317074,12.957317073170731 54.21747967479675,13.262195121951219 53.91260162601626,13.66869918699187 53.65853658536585,14.07520325203252 53.353658536585364,14.53252032520325 53.09959349593496,14.939024390243903 52.947154471544714,15.24390243902439 52.84552845528455,15.447154471544716 52.84552845528455,15.548780487804878 52.9979674796748,15.548780487804878 53.302845528455286,15.548780487804878 53.65853658536585,15.396341463414634 53.86178861788618,15.294715447154472" fill="none" stroke="black" stroke-width="0.6"></polyline><polyline points="53.86178861788618,15.294715447154472" fill="none" stroke="black" stroke-width="0.6"></polyline><polyline points="56.35162601626016,13.973577235772357 56.453252032520325,13.821138211382113 56.605691056910565,13.66869918699187 56.70731707317073,13.516260162601625 56.859756097560975,13.3130081300813 56.91056910569105,13.109756097560975 56.91056910569105,12.90650406504065 56.91056910569105,12.703252032520325 56.859756097560975,12.601626016260163 56.75813008130081,12.5 56.65650406504065,12.398373983739837 56.453252032520325,12.398373983739837 56.199186991869915,12.449186991869919 55.94512195121951,12.652439024390244 55.640243902439025,12.855691056910569 55.4369918699187,13.109756097560975 55.28455284552845,13.363821138211382 55.233739837398375,13.567073170731707 55.233739837398375,13.821138211382113 55.28455284552845,13.973577235772357 55.4369918699187,14.07520325203252 55.74186991869919,14.176829268292682 56.046747967479675,14.227642276422763 56.40243902439024,14.278455284552845 56.75813008130081,14.278455284552845 57.012195121951216,14.278455284552845 57.21544715447154,14.329268292682926 57.36788617886179,14.329268292682926 57.46951219512195,14.380081300813007 57.52032520325203,14.48170731707317 57.52032520325203,14.53252032520325 57.52032520325203,14.634146341463413 57.46951219512195,14.83739837398374 57.266260162601625,15.091463414634147 56.91056910569105,15.447154471544716 56.40243902439024,15.802845528455284 55.74186991869919,16.209349593495933 55.03048780487805,16.463414634146343 54.36991869918699,16.666666666666668 53.91260162601626,16.71747967479675 53.760162601626014,16.71747967479675 53.709349593495936,16.565040650406505 53.709349593495936,16.463414634146343 53.709349593495936,16.3109756097561 53.8109756097561,16.05691056910569 54.11585365853659,15.701219512195122 54.420731707317074,15.396341463414634 54.77642276422764,15.091463414634147 55.18292682926829,14.735772357723578 55.53861788617886,14.48170731707317 55.99593495934959,14.227642276422763" fill="none" stroke="black" stroke-width="0.6"></polyline><polyline points="55.99593495934959,14.227642276422763 56.453252032520325,13.973577235772357 56.91056910569105,13.821138211382113 57.266260162601625,13.66869918699187 57.62195121951219,13.567073170731707 57.8760162601626,13.516260162601625 58.02845528455284,13.465447154471544 58.130081300813,13.414634146341463 58.18089430894309,13.414634146341463 58.18089430894309,13.363821138211382 58.231707317073166,13.363821138211382" fill="none" stroke="black" stroke-width="0.6"></polyline><polyline points="41.71747967479675,10.670731707317072 41.5650406504065,10.518292682926829 41.46341463414634,10.416666666666666 41.41260162601626,10.365853658536585 41.41260162601626,10.365853658536585 41.41260162601626,10.365853658536585 41.41260162601626,10.416666666666666 41.46341463414634,10.467479674796747 41.46341463414634,10.56910569105691 41.514227642276424,10.670731707317072 41.514227642276424,10.772357723577235 41.514227642276424,10.873983739837398 41.5650406504065,10.97560975609756 41.5650406504065,11.077235772357723 41.61585365853659,11.178861788617885" fill="none" stroke="black" stroke-width="0.6"></polyline><polyline points="61.9410569105691,12.398373983739837 61.890243902439025,12.296747967479675 61.83943089430894,12.195121951219512 61.78861788617886,12.144308943089431 61.78861788617886,12.042682926829269 61.73780487804878,11.991869918699187 61.73780487804878,11.941056910569106 61.73780487804878,11.890243902439025 61.73780487804878,11.839430894308943 61.73780487804878,11.788617886178862 61.83943089430894,11.6869918699187 62.042682926829265,11.585365853658537 62.34756097560975,11.534552845528456 62.703252032520325,11.534552845528456 63.05894308943089,11.534552845528456 63.36382113821138,11.737804878048781 63.5670731707317,12.042682926829269 63.71951219512195,12.550813008130081 63.71951219512195,13.058943089430894 63.5670731707317,13.66869918699187 63.21138211382114,14.329268292682926 62.90650406504065,14.786585365853659 62.60162601626016,15.142276422764228 62.39837398373984,15.345528455284553 62.296747967479675,15.396341463414634 62.24593495934959,15.396341463414634 62.19512195121951,15.345528455284553 62.14430894308943,15.294715447154472 62.14430894308943,15.24390243902439 62.14430894308943,15.142276422764228 62.14430894308943,14.989837398373984 62.19512195121951,14.735772357723578 62.34756097560975,14.380081300813007 62.60162601626016,14.024390243902438 62.855691056910565,13.71951219512195 63.21138211382114,13.3130081300813 63.71951219512195,12.90650406504065 64.32926829268293,12.5 64.88821138211382,12.195121951219512 65.29471544715447,12.042682926829269 65.59959349593495,11.991869918699187 65.80284552845528,11.991869918699187 65.85365853658537,12.042682926829269 65.90447154471545,12.144308943089431 65.90447154471545,12.347560975609756 65.80284552845528,12.601626016260163 65.54878048780488,13.058943089430894 65.2439024390244,13.567073170731707 64.88821138211382,14.07520325203252 64.53252032520325,14.634146341463413 64.17682926829268,15.19308943089431" fill="none" stroke="black" stroke-width="0.6"></polyline><polyline points="64.17682926829268,15.19308943089431 63.87195121951219,15.65040650406504 63.77032520325203,15.802845528455284 63.77032520325203,15.853658536585366 63.82113821138211,15.802845528455284 63.87195121951219,15.752032520325203 64.02439024390243,15.59959349593496 64.380081300813,15.294715447154472 64.78658536585365,14.939024390243903 65.1930894308943,14.583333333333332 65.59959349593495,14.176829268292682 66.0569105691057,13.770325203252032 66.5650406504065,13.363821138211382 66.92073170731707,13.058943089430894 67.17479674796748,12.90650406504065 67.22560975609755,12.804878048780488 67.22560975609755,12.804878048780488 67.17479674796748,12.855691056910569 67.1239837398374,12.957317073170731 67.02235772357723,13.058943089430894 66.92073170731707,13.3130081300813 66.71747967479675,13.617886178861788 66.5650406504065,13.973577235772357 66.41260162601625,14.380081300813007 66.26016260162602,14.786585365853659 66.15853658536585,15.24390243902439 66.10772357723577,15.65040650406504 66.10772357723577,15.904471544715447 66.26016260162602,15.955284552845528 66.41260162601625,16.006097560975608 66.71747967479675,15.752032520325203 67.1239837398374,15.345528455284553 67.53048780487805,14.83739837398374 67.6829268292683,14.634146341463413" fill="none" stroke="black" stroke-width="0.6"></polyline><polyline points="67.6829268292683,11.890243902439025 67.42886178861788,11.839430894308943 67.27642276422765,11.788617886178862 67.17479674796748,11.788617886178862 67.07317073170732,11.839430894308943 67.02235772357723,11.890243902439025 67.02235772357723,11.991869918699187 67.02235772357723,12.09349593495935 67.02235772357723,12.195121951219512 67.07317073170732,12.296747967479675 67.17479674796748,12.449186991869919 67.27642276422765,12.550813008130081" fill="none" stroke="black" stroke-width="0.6"></polyline><polyline points="69.10569105691057,14.989837398373984 69.15650406504065,14.786585365853659 69.2581300813008,14.53252032520325 69.51219512195122,14.227642276422763 69.76626016260163,13.922764227642276 70.0711382113821,13.617886178861788 70.32520325203252,13.3130081300813 70.52845528455285,13.058943089430894 70.630081300813,12.90650406504065 70.630081300813,12.804878048780488 70.630081300813,12.754065040650406 70.57926829268293,12.754065040650406 70.47764227642276,12.754065040650406 70.27439024390243,12.90650406504065 69.91869918699187,13.160569105691057 69.51219512195122,13.516260162601625 69.15650406504065,13.922764227642276 68.80081300813008,14.329268292682926 68.4959349593496,14.786585365853659 68.24186991869918,15.345528455284553 68.08943089430895,15.904471544715447 68.08943089430895,16.41260162601626 68.08943089430895,16.971544715447155 68.24186991869918,17.327235772357724 68.4451219512195,17.58130081300813 68.59756097560975,17.835365853658537 68.69918699186992,18.038617886178862 68.75,18.241869918699187 68.75,18.445121951219512 68.75,18.597560975609756 68.54674796747967,18.80081300813008 68.24186991869918,19.054878048780488 67.83536585365853,19.20731707317073 67.42886178861788,19.359756097560975 66.97154471544715,19.461382113821138 66.66666666666667,19.461382113821138 66.36178861788618,19.410569105691057 66.0569105691057,19.258130081300813 65.90447154471545,19.054878048780488 65.80284552845528,18.851626016260163 65.80284552845528,18.597560975609756 65.90447154471545,18.34349593495935 66.20934959349593,17.98780487804878 66.61585365853658,17.58130081300813 67.17479674796748,17.1239837398374 67.78455284552845,16.565040650406505 68.59756097560975,15.955284552845528 69.35975609756098,15.345528455284553 70.17276422764228,14.634146341463413 70.9349593495935,13.922764227642276 71.49390243902438,13.363821138211382" fill="none" stroke="black" stroke-width="0.6"></polyline><polyline points="71.49390243902438,13.363821138211382 71.95121951219512,12.754065040650406 72.35772357723577,12.09349593495935 72.66260162601625,11.534552845528456 72.86585365853658,11.077235772357723 72.91666666666667,10.772357723577235 72.91666666666667,10.56910569105691 72.86585365853658,10.518292682926829 72.8150406504065,10.518292682926829 72.76422764227642,10.518292682926829 72.61178861788618,10.721544715447154 72.35772357723577,11.128048780487804 72.10365853658537,11.636178861788618 71.79878048780488,12.195121951219512 71.54471544715447,12.90650406504065 71.29065040650406,13.465447154471544 71.08739837398373,14.07520325203252 70.8841463414634,14.684959349593496 70.73170731707317,15.142276422764228 70.68089430894308,15.447154471544716 70.68089430894308,15.65040650406504 70.68089430894308,15.65040650406504 70.73170731707317,15.65040650406504 70.73170731707317,15.59959349593496 70.78252032520325,15.548780487804878 70.78252032520325,15.396341463414634 70.8841463414634,15.24390243902439 70.98577235772358,14.989837398373984 71.13821138211382,14.735772357723578 71.29065040650406,14.430894308943088 71.4430894308943,14.1260162601626 71.64634146341463,13.871951219512194 71.84959349593495,13.617886178861788 72.10365853658537,13.414634146341463 72.2560975609756,13.3130081300813 72.40853658536585,13.262195121951219 72.45934959349593,13.3130081300813 72.51016260162602,13.414634146341463 72.51016260162602,13.617886178861788 72.45934959349593,13.871951219512194 72.35772357723577,14.227642276422763 72.20528455284553,14.634146341463413 72.10365853658537,14.989837398373984 72.0020325203252,15.396341463414634 71.95121951219512,15.701219512195122 71.95121951219512,15.904471544715447 71.95121951219512,16.05691056910569 72.10365853658537,16.05691056910569 72.20528455284553,16.006097560975608 72.40853658536585,15.802845528455284 72.61178861788618,15.59959349593496" fill="none" stroke="black" stroke-width="0.6"></polyline><polyline points="72.61178861788618,15.59959349593496 72.8150406504065,15.345528455284553 73.0691056910569,15.040650406504065 73.27235772357723,14.735772357723578 73.52642276422765,14.380081300813007 73.83130081300813,14.024390243902438 74.08536585365853,13.66869918699187 74.39024390243902,13.3130081300813 74.64430894308943,12.957317073170731 74.89837398373983,12.754065040650406 75.05081300813008,12.550813008130081 75.20325203252033,12.449186991869919 75.30487804878048,12.398373983739837 75.30487804878048,12.398373983739837 75.30487804878048,12.398373983739837 75.30487804878048,12.398373983739837 75.30487804878048,12.5 75.2540650406504,12.703252032520325 75.05081300813008,12.957317073170731 74.84756097560975,13.3130081300813 74.59349593495935,13.71951219512195 74.33943089430895,14.176829268292682 74.08536585365853,14.634146341463413 73.8821138211382,15.040650406504065 73.78048780487805,15.345528455284553 73.78048780487805,15.497967479674797 73.78048780487805,15.548780487804878 73.9329268292683,15.497967479674797 74.08536585365853,15.345528455284553 74.39024390243902,15.142276422764228 74.64430894308943,14.888211382113822 74.89837398373983,14.634146341463413 75.20325203252033,14.329268292682926 75.45731707317073,14.07520325203252 75.71138211382113,13.821138211382113 76.01626016260163,13.617886178861788 76.27032520325203,13.414634146341463 76.52439024390243,13.160569105691057 76.77845528455285,12.957317073170731 76.93089430894308,12.754065040650406 77.08333333333333,12.5 77.1849593495935,12.296747967479675 77.23577235772358,12.144308943089431 77.28658536585365,12.042682926829269 77.28658536585365,11.941056910569106 77.23577235772358,11.890243902439025 77.23577235772358,11.890243902439025 77.1849593495935,11.890243902439025 77.1849593495935,11.839430894308943" fill="none" stroke="black" stroke-width="0.6"></polyline><polyline points="72.86585365853658,13.66869918699187 72.86585365853658,13.617886178861788 72.86585365853658,13.516260162601625 72.86585365853658,13.414634146341463 72.96747967479675,13.363821138211382 73.17073170731707,13.3130081300813 73.52642276422765,13.211382113821138 73.98373983739837,13.160569105691057 74.4410569105691,13.058943089430894 74.94918699186992,13.008130081300813 75.35569105691057,12.957317073170731 75.60975609756098,12.957317073170731 75.91463414634146,12.90650406504065 76.0670731707317,12.855691056910569 76.0670731707317,12.855691056910569" fill="none" stroke="black" stroke-width="0.6"></polyline><polyline points="78.8109756097561,10.772357723577235 78.76016260162602,10.619918699186991 78.70934959349593,10.518292682926829 78.65853658536585,10.416666666666666 78.60772357723577,10.365853658536585 78.60772357723577,10.315040650406504 78.60772357723577,10.315040650406504 78.60772357723577,10.315040650406504 78.60772357723577,10.315040650406504 78.60772357723577,10.315040650406504 78.60772357723577,10.315040650406504 78.60772357723577,10.365853658536585 78.60772357723577,10.416666666666666 78.5060975609756,10.518292682926829 78.35365853658537,10.721544715447154 78.04878048780488,10.97560975609756 77.6930894308943,11.280487804878048 77.23577235772358,11.737804878048781 76.57520325203252,12.296747967479675 75.96544715447155,12.957317073170731 75.45731707317073,13.567073170731707 75.10162601626016,14.1260162601626 74.94918699186992,14.583333333333332 74.89837398373983,14.989837398373984 74.94918699186992,15.19308943089431 75.15243902439025,15.396341463414634 75.40650406504065,15.548780487804878 75.66056910569105,15.65040650406504 75.91463414634146,15.65040650406504 76.27032520325203,15.701219512195122 76.57520325203252,15.701219512195122 76.82926829268293,15.65040650406504 77.1849593495935,15.497967479674797 77.4390243902439,15.345528455284553 77.6930894308943,15.19308943089431 77.9471544715447,14.939024390243903 78.15040650406505,14.735772357723578 78.35365853658537,14.48170731707317 78.5569105691057,14.227642276422763 78.70934959349593,14.024390243902438 78.76016260162602,13.821138211382113 78.86178861788618,13.71951219512195 78.86178861788618,13.66869918699187 78.86178861788618,13.66869918699187 78.8109756097561,13.66869918699187 78.8109756097561,13.66869918699187 78.76016260162602,13.770325203252032 78.60772357723577,13.922764227642276 78.40447154471545,14.1260162601626 78.20121951219512,14.430894308943088 77.9471544715447,14.735772357723578" fill="none" stroke="black" stroke-width="0.6"></polyline><polyline points="77.9471544715447,14.735772357723578 77.79471544715447,15.040650406504065 77.6930894308943,15.294715447154472 77.59146341463415,15.497967479674797 77.59146341463415,15.65040650406504 77.74390243902438,15.65040650406504 77.9979674796748,15.65040650406504 78.40447154471545,15.396341463414634 78.86178861788618,15.091463414634147 79.3191056910569,14.684959349593496 79.72560975609755,14.329268292682926 80.08130081300813,14.024390243902438 80.38617886178862,13.770325203252032 80.53861788617886,13.567073170731707 80.58943089430895,13.465447154471544 80.64024390243902,13.414634146341463 80.64024390243902,13.414634146341463 80.58943089430895,13.414634146341463 80.58943089430895,13.414634146341463 80.53861788617886,13.567073170731707 80.53861788617886,13.770325203252032 80.53861788617886,13.973577235772357 80.48780487804878,14.227642276422763 80.4369918699187,14.53252032520325 80.4369918699187,14.888211382113822 80.33536585365853,15.24390243902439 80.23373983739837,15.65040650406504 80.1321138211382,16.05691056910569 79.92886178861788,16.41260162601626 79.72560975609755,16.76829268292683 79.52235772357723,17.1239837398374 79.21747967479675,17.428861788617887 78.86178861788618,17.682926829268293 78.5060975609756,17.9369918699187 78.20121951219512,18.089430894308943 77.9979674796748,18.191056910569106 77.79471544715447,18.241869918699187 77.74390243902438,18.241869918699187 77.74390243902438,18.241869918699187 77.74390243902438,18.241869918699187 77.74390243902438,18.191056910569106 77.79471544715447,18.089430894308943 77.9471544715447,17.9369918699187 78.30284552845528,17.58130081300813 78.76016260162602,17.1239837398374 79.26829268292683,16.615853658536587 79.8780487804878,16.10772357723577 80.64024390243902,15.497967479674797 81.30081300813008,14.989837398373984 81.96138211382113,14.634146341463413 82.52032520325203,14.430894308943088" fill="none" stroke="black" stroke-width="0.6"></polyline><polyline points="82.52032520325203,14.430894308943088 82.82520325203252,14.380081300813007 83.130081300813,14.329268292682926 83.4349593495935,14.329268292682926 83.6890243902439,14.329268292682926 83.9430894308943,14.329268292682926 84.2479674796748,14.329268292682926 84.5020325203252,14.329268292682926 84.70528455284553,14.329268292682926 84.90853658536585,14.329268292682926 85.01016260162602,14.329268292682926 85.11178861788618,14.329268292682926 85.11178861788618,14.329268292682926 85.11178861788618,14.329268292682926 85.11178861788618,14.329268292682926 85.11178861788618,14.329268292682926 85.11178861788618,14.329268292682926 85.11178861788618,14.329268292682926 85.0609756097561,14.329268292682926 85.0609756097561,14.329268292682926 85.0609756097561,14.329268292682926 85.0609756097561,14.329268292682926 85.0609756097561,14.329268292682926 85.0609756097561,14.329268292682926 85.0609756097561,14.329268292682926 85.0609756097561,14.329268292682926 85.0609756097561,14.329268292682926 85.0609756097561,14.329268292682926 85.0609756097561,14.329268292682926 85.0609756097561,14.329268292682926 85.0609756097561,14.329268292682926 85.0609756097561,14.329268292682926 85.0609756097561,14.329268292682926 85.0609756097561,14.329268292682926 85.0609756097561,14.329268292682926 85.0609756097561,14.329268292682926 85.0609756097561,14.329268292682926 85.0609756097561,14.329268292682926 85.0609756097561,14.329268292682926 85.0609756097561,14.329268292682926 85.0609756097561,14.329268292682926 85.0609756097561,14.329268292682926 85.0609756097561,14.329268292682926 85.0609756097561,14.329268292682926 85.0609756097561,14.329268292682926 85.0609756097561,14.329268292682926 85.0609756097561,14.329268292682926" fill="none" stroke="black" stroke-width="0.6"></polyline><polyline points="18.191056910569106,32.52032520325203 18.191056910569106,32.52032520325203 18.191056910569106,32.418699186991866 18.191056910569106,32.36788617886179 18.191056910569106,32.266260162601625 18.191056910569106,32.16463414634146 18.191056910569106,32.0630081300813 18.191056910569106,31.910569105691057 18.191056910569106,31.758130081300813 18.191056910569106,31.65650406504065 18.191056910569106,31.504065040650406 18.140243902439025,31.402439024390244 18.140243902439025,31.30081300813008 18.089430894308943,31.25 17.9369918699187,31.25 17.682926829268293,31.402439024390244 17.17479674796748,31.859756097560975 16.514227642276424,32.57113821138211 15.802845528455284,33.38414634146341 15.294715447154472,34.146341463414636 14.989837398373984,34.65447154471545 14.888211382113822,35.0609756097561 14.939024390243903,35.21341463414634 15.091463414634147,35.3150406504065 15.294715447154472,35.3150406504065 15.548780487804878,35.3150406504065 15.955284552845528,35.16260162601626 16.36178861788618,34.80691056910569 16.76829268292683,34.451219512195124 17.17479674796748,33.99390243902439 17.632113821138212,33.485772357723576 17.9369918699187,33.079268292682926 18.089430894308943,32.77439024390244 18.140243902439025,32.52032520325203 18.140243902439025,32.418699186991866 18.089430894308943,32.418699186991866 18.038617886178862,32.36788617886179 17.9369918699187,32.36788617886179 17.88617886178862,32.36788617886179 17.835365853658537,32.36788617886179 17.733739837398375,32.36788617886179 17.682926829268293,32.46951219512195 17.53048780487805,32.72357723577236 17.378048780487806,33.079268292682926 17.276422764227643,33.38414634146341 17.225609756097562,33.790650406504064 17.225609756097562,34.146341463414636 17.327235772357724,34.5020325203252 17.53048780487805,34.75609756097561 17.835365853658537,34.90853658536585 18.241869918699187,34.90853658536585" fill="none" stroke="black" stroke-width="0.6"></polyline><polyline points="18.241869918699187,34.90853658536585 18.69918699186992,34.65447154471545 19.20731707317073,34.197154471544714 19.715447154471544,33.6890243902439 20.121951219512194,33.13008130081301 20.477642276422763,32.6219512195122 20.78252032520325,32.0630081300813 21.036585365853657,31.554878048780488 21.239837398373982,31.097560975609756 21.443089430894307,30.640243902439025 21.59552845528455,30.132113821138212 21.747967479674795,29.67479674796748 21.798780487804876,29.31910569105691 21.849593495934958,29.0650406504065 21.849593495934958,29.01422764227642 21.849593495934958,29.01422764227642 21.798780487804876,29.01422764227642 21.646341463414632,29.268292682926827 21.341463414634145,29.776422764227643 20.934959349593495,30.48780487804878 20.579268292682926,31.25 20.274390243902438,31.961382113821138 19.91869918699187,32.77439024390244 19.715447154471544,33.53658536585366 19.5630081300813,34.146341463414636 19.5630081300813,34.552845528455286 19.5630081300813,34.70528455284553 19.61382113821138,34.70528455284553 19.664634146341463,34.65447154471545 19.715447154471544,34.552845528455286 19.766260162601625,34.298780487804876 19.867886178861788,33.94308943089431 20.020325203252032,33.58739837398374 20.121951219512194,33.23170731707317 20.274390243902438,32.8760162601626 20.3760162601626,32.52032520325203 20.579268292682926,32.21544715447154 20.73170731707317,31.961382113821138 20.934959349593495,31.758130081300813 21.13821138211382,31.65650406504065 21.341463414634145,31.60569105691057 21.54471544715447,31.65650406504065 21.697154471544714,31.758130081300813 21.849593495934958,31.910569105691057 21.90040650406504,32.012195121951216 22.0020325203252,32.21544715447154 22.052845528455283,32.3170731707317 22.103658536585364,32.418699186991866 22.103658536585364,32.672764227642276 22.154471544715445,32.77439024390244 22.154471544715445,32.8760162601626" fill="none" stroke="black" stroke-width="0.6"></polyline><polyline points="22.154471544715445,32.8760162601626 22.154471544715445,33.18089430894309 22.103658536585364,33.28252032520325 22.052845528455283,33.4349593495935 21.90040650406504,33.63821138211382 21.798780487804876,33.790650406504064 21.59552845528455,33.94308943089431 21.341463414634145,34.09552845528455 21.08739837398374,34.2479674796748 20.833333333333332,34.298780487804876 20.579268292682926,34.40040650406504 20.32520325203252,34.451219512195124 20.223577235772357,34.5020325203252 20.121951219512194,34.552845528455286 20.071138211382113,34.552845528455286 20.020325203252032,34.65447154471545 19.96951219512195,34.70528455284553 19.96951219512195,34.75609756097561 20.121951219512194,34.80691056910569 20.274390243902438,34.80691056910569" fill="none" stroke="black" stroke-width="0.6"></polyline><polyline points="22.154471544715445,33.94308943089431 22.30691056910569,33.84146341463415 22.560975609756095,33.58739837398374 22.865853658536587,33.333333333333336 23.119918699186993,33.13008130081301 23.272357723577237,32.8760162601626 23.42479674796748,32.672764227642276 23.475609756097562,32.46951219512195 23.475609756097562,32.3170731707317 23.475609756097562,32.21544715447154 23.475609756097562,32.11382113821138 23.42479674796748,32.0630081300813 23.323170731707318,32.012195121951216 23.221544715447155,32.012195121951216 23.06910569105691,32.21544715447154 22.815040650406505,32.57113821138211 22.510162601626014,32.97764227642276 22.30691056910569,33.38414634146341 22.103658536585364,33.790650406504064 21.95121951219512,34.146341463414636 21.90040650406504,34.451219512195124 21.90040650406504,34.65447154471545 22.103658536585364,34.75609756097561 22.30691056910569,34.80691056910569 22.560975609756095,34.70528455284553 22.865853658536587,34.451219512195124 23.119918699186993,34.146341463414636 23.3739837398374,33.790650406504064 23.577235772357724,33.4349593495935 23.729674796747968,33.079268292682926 23.78048780487805,32.82520325203252 23.78048780487805,32.57113821138211 23.78048780487805,32.418699186991866 23.678861788617887,32.3170731707317 23.577235772357724,32.266260162601625 23.475609756097562,32.21544715447154 23.3739837398374,32.21544715447154 23.272357723577237,32.266260162601625 23.221544715447155,32.3170731707317 23.170731707317074,32.46951219512195 23.170731707317074,32.6219512195122 23.170731707317074,32.72357723577236 23.323170731707318,32.8760162601626 23.475609756097562,32.97764227642276 23.678861788617887,33.02845528455285 23.932926829268293,33.079268292682926 24.085365853658537,33.079268292682926 24.23780487804878,33.079268292682926 24.54268292682927,33.079268292682926 24.847560975609756,32.97764227642276 24.94918699186992,32.926829268292686" fill="none" stroke="black" stroke-width="0.6"></polyline><polyline points="24.94918699186992,32.926829268292686 25.101626016260163,32.8760162601626 25.304878048780488,32.77439024390244 25.45731707317073,32.672764227642276 25.558943089430894,32.672764227642276 25.558943089430894,32.6219512195122 25.558943089430894,32.6219512195122 25.558943089430894,32.672764227642276 25.558943089430894,32.77439024390244 25.45731707317073,32.97764227642276 25.304878048780488,33.23170731707317 25.05081300813008,33.58739837398374 24.847560975609756,33.94308943089431 24.59349593495935,34.2479674796748 24.491869918699187,34.552845528455286 24.390243902439025,34.70528455284553 24.390243902439025,34.857723577235774 24.390243902439025,34.90853658536585 24.491869918699187,34.90853658536585 24.64430894308943,34.857723577235774 24.898373983739837,34.70528455284553 25.152439024390244,34.451219512195124 25.45731707317073,34.197154471544714 25.711382113821138,33.892276422764226 25.965447154471544,33.58739837398374 26.21951219512195,33.28252032520325 26.422764227642276,33.02845528455285 26.57520325203252,32.77439024390244 26.676829268292682,32.6219512195122 26.676829268292682,32.57113821138211 26.676829268292682,32.57113821138211 26.6260162601626,32.57113821138211 26.57520325203252,32.6219512195122 26.422764227642276,32.82520325203252 26.270325203252032,33.13008130081301 26.117886178861788,33.38414634146341 26.016260162601625,33.6890243902439 25.914634146341463,33.99390243902439 25.8130081300813,34.2479674796748 25.8130081300813,34.5020325203252 25.8130081300813,34.70528455284553 25.965447154471544,34.80691056910569 26.117886178861788,34.857723577235774 26.371951219512194,34.857723577235774 26.6260162601626,34.70528455284553 26.93089430894309,34.451219512195124 27.235772357723576,34.146341463414636 27.489837398373982,33.84146341463415 27.693089430894307,33.53658536585366 27.896341463414632,33.23170731707317 28.048780487804876,32.97764227642276" fill="none" stroke="black" stroke-width="0.6"></polyline><polyline points="28.048780487804876,32.97764227642276 28.15040650406504,32.77439024390244 28.20121951219512,32.52032520325203 28.20121951219512,32.418699186991866 28.20121951219512,32.3170731707317 28.20121951219512,32.3170731707317 28.099593495934958,32.3170731707317 27.947154471544714,32.46951219512195 27.642276422764226,32.77439024390244 27.33739837398374,33.13008130081301 27.083333333333332,33.53658536585366 26.880081300813007,33.892276422764226 26.676829268292682,34.2479674796748 26.57520325203252,34.65447154471545 26.57520325203252,34.959349593495936 26.727642276422763,35.16260162601626 26.98170731707317,35.3150406504065 27.38821138211382,35.3150406504065 27.84552845528455,35.16260162601626 28.455284552845526,34.90853658536585 29.01422764227642,34.65447154471545 29.31910569105691,34.451219512195124" fill="none" stroke="black" stroke-width="0.6"></polyline><polyline points="33.53658536585366,33.63821138211382 33.53658536585366,33.63821138211382 33.53658536585366,33.53658536585366 33.485772357723576,33.485772357723576 33.485772357723576,33.4349593495935 33.485772357723576,33.4349593495935 33.485772357723576,33.4349593495935 33.53658536585366,33.38414634146341 33.58739837398374,33.38414634146341 33.58739837398374,33.38414634146341 33.63821138211382,33.38414634146341 33.63821138211382,33.333333333333336 33.6890243902439,33.333333333333336 33.790650406504064,33.28252032520325 33.892276422764226,33.23170731707317 33.99390243902439,33.18089430894309 34.197154471544714,33.079268292682926 34.40040650406504,33.02845528455285 34.65447154471545,32.926829268292686 34.857723577235774,32.926829268292686 35.0609756097561,32.8760162601626 35.21341463414634,32.8760162601626 35.3150406504065,32.97764227642276 35.3150406504065,33.18089430894309 35.3150406504065,33.485772357723576 35.11178861788618,34.04471544715447 34.80691056910569,34.65447154471545 34.451219512195124,35.36585365853659 34.09552845528455,35.97560975609756 33.790650406504064,36.38211382113821 33.63821138211382,36.636178861788615 33.58739837398374,36.73780487804878 33.58739837398374,36.6869918699187 33.58739837398374,36.636178861788615 33.58739837398374,36.58536585365854 33.63821138211382,36.483739837398375 33.739837398373986,36.33130081300813 33.892276422764226,36.077235772357724 34.04471544715447,35.823170731707314 34.2479674796748,35.51829268292683 34.5020325203252,35.16260162601626 34.75609756097561,34.857723577235774 34.959349593495936,34.603658536585364 35.21341463414634,34.298780487804876 35.3150406504065,34.197154471544714 35.36585365853659,34.146341463414636 35.36585365853659,34.146341463414636 35.36585365853659,34.197154471544714 35.36585365853659,34.298780487804876 35.3150406504065,34.5020325203252 35.21341463414634,34.75609756097561" fill="none" stroke="black" stroke-width="0.6"></polyline><polyline points="35.21341463414634,34.75609756097561 35.16260162601626,35.010162601626014 35.0609756097561,35.3150406504065 35.010162601626014,35.61991869918699 34.959349593495936,35.8739837398374 34.959349593495936,36.1280487804878 34.959349593495936,36.33130081300813 35.010162601626014,36.43292682926829 35.11178861788618,36.43292682926829 35.3150406504065,36.38211382113821 35.56910569105691,36.17886178861789 35.823170731707314,35.92479674796748 36.1280487804878,35.61991869918699 36.38211382113821,35.3150406504065 36.636178861788615,34.959349593495936 36.83943089430894,34.70528455284553 36.99186991869919,34.451219512195124 37.09349593495935,34.197154471544714 37.09349593495935,34.04471544715447 37.14430894308943,33.892276422764226 37.14430894308943,33.790650406504064 37.14430894308943,33.739837398373986 37.14430894308943,33.739837398373986 37.14430894308943,33.739837398373986 37.14430894308943,33.739837398373986 37.14430894308943,33.739837398373986 37.14430894308943,33.739837398373986 37.14430894308943,33.739837398373986 37.19512195121951,33.739837398373986 37.19512195121951,33.790650406504064 37.296747967479675,33.790650406504064 37.34756097560975,33.790650406504064 37.449186991869915,33.790650406504064 37.60162601626016,33.790650406504064 37.703252032520325,33.739837398373986 37.855691056910565,33.63821138211382 37.95731707317073,33.58739837398374 38.05894308943089,33.53658536585366 38.16056910569105,33.53658536585366 38.21138211382114,33.485772357723576 38.262195121951216,33.485772357723576 38.262195121951216,33.485772357723576 38.262195121951216,33.485772357723576 38.262195121951216,33.485772357723576 38.21138211382114,33.58739837398374 38.109756097560975,33.790650406504064 37.95731707317073,34.09552845528455 37.80487804878049,34.451219512195124 37.60162601626016,34.80691056910569 37.39837398373984,35.16260162601626 37.296747967479675,35.416666666666664" fill="none" stroke="black" stroke-width="0.6"></polyline><polyline points="37.296747967479675,35.416666666666664 37.24593495934959,35.61991869918699 37.24593495934959,35.72154471544715 37.24593495934959,35.77235772357724 37.296747967479675,35.77235772357724 37.5,35.670731707317074 37.703252032520325,35.46747967479675 38.00813008130081,35.21341463414634 38.3130081300813,34.959349593495936 38.61788617886179,34.70528455284553 38.87195121951219,34.40040650406504 39.1260162601626,34.146341463414636 39.329268292682926,33.99390243902439 39.48170731707317,33.84146341463415 39.583333333333336,33.790650406504064 39.583333333333336,33.739837398373986 39.583333333333336,33.739837398373986 39.583333333333336,33.790650406504064 39.53252032520325,33.790650406504064 39.53252032520325,33.790650406504064 39.48170731707317,33.84146341463415 39.48170731707317,33.84146341463415 39.48170731707317,33.84146341463415 39.48170731707317,33.84146341463415 39.43089430894309,33.892276422764226 39.43089430894309,33.892276422764226 39.43089430894309,33.94308943089431 39.43089430894309,33.99390243902439" fill="none" stroke="black" stroke-width="0.6"></polyline><polyline points="38.97357723577235,31.808943089430894 38.87195121951219,31.758130081300813 38.77032520325203,31.554878048780488 38.71951219512195,31.504065040650406 38.71951219512195,31.453252032520325 38.71951219512195,31.453252032520325 38.71951219512195,31.402439024390244 38.71951219512195,31.402439024390244 38.77032520325203,31.351626016260163 38.82113821138211,31.30081300813008 38.97357723577235,31.30081300813008 39.1260162601626,31.25 39.27845528455285,31.25 39.38008130081301,31.25" fill="none" stroke="black" stroke-width="0.6"></polyline><polyline points="39.9390243902439,34.146341463414636 39.78658536585366,34.04471544715447 39.6849593495935,33.94308943089431 39.53252032520325,33.892276422764226 39.48170731707317,33.84146341463415 39.38008130081301,33.790650406504064 39.329268292682926,33.790650406504064 39.329268292682926,33.790650406504064 39.27845528455285,33.790650406504064 39.27845528455285,33.790650406504064 39.27845528455285,33.790650406504064 39.27845528455285,33.790650406504064 39.27845528455285,33.790650406504064 39.38008130081301,33.790650406504064 39.53252032520325,33.790650406504064 39.78658536585366,33.6890243902439 40.09146341463415,33.53658536585366 40.447154471544714,33.38414634146341 40.7520325203252,33.28252032520325 41.05691056910569,33.18089430894309 41.3109756097561,33.13008130081301 41.514227642276424,33.13008130081301 41.61585365853659,33.18089430894309 41.666666666666664,33.38414634146341 41.61585365853659,33.739837398373986 41.46341463414634,34.197154471544714 41.209349593495936,34.70528455284553 40.95528455284553,35.16260162601626 40.701219512195124,35.56910569105691 40.396341463414636,35.92479674796748 40.19308943089431,36.17886178861789 40.040650406504064,36.28048780487805 39.989837398373986,36.28048780487805 39.989837398373986,36.28048780487805 39.989837398373986,36.17886178861789 39.989837398373986,36.077235772357724 40.142276422764226,35.8739837398374 40.24390243902439,35.61991869918699 40.447154471544714,35.36585365853659 40.59959349593496,35.21341463414634 40.7520325203252,35.010162601626014 40.90447154471545,34.857723577235774 41.05691056910569,34.75609756097561 41.15853658536585,34.75609756097561 41.3109756097561,34.75609756097561 41.41260162601626,34.857723577235774 41.514227642276424,35.010162601626014 41.666666666666664,35.21341463414634 41.71747967479675,35.51829268292683 41.76829268292683,35.823170731707314 41.81910569105691,36.17886178861789" fill="none" stroke="black" stroke-width="0.6"></polyline><polyline points="41.81910569105691,36.17886178861789 41.81910569105691,36.58536585365854 41.71747967479675,37.042682926829265 41.5650406504065,37.449186991869915 41.3109756097561,37.855691056910565 41.05691056910569,38.21138211382114 40.701219512195124,38.61788617886179 40.29471544715447,38.922764227642276 39.83739837398374,39.22764227642276 39.329268292682926,39.48170731707317 38.87195121951219,39.63414634146341 38.41463414634146,39.6849593495935 38.05894308943089,39.735772357723576 37.7540650406504,39.735772357723576 37.55081300813008,39.6849593495935 37.449186991869915,39.583333333333336 37.39837398373984,39.48170731707317 37.39837398373984,39.329268292682926 37.5,39.07520325203252 37.65243902439024,38.77032520325203 37.95731707317073,38.41463414634146 38.262195121951216,38.05894308943089 38.61788617886179,37.703252032520325 39.1260162601626,37.34756097560975 39.63414634146341,36.9410569105691 40.19308943089431,36.58536585365854 40.802845528455286,36.229674796747965 41.41260162601626,35.8739837398374 41.920731707317074,35.61991869918699 42.3780487804878,35.36585365853659 42.78455284552845,35.21341463414634 43.08943089430894,35.0609756097561 43.34349593495935,34.857723577235774 43.64837398373984,34.70528455284553 43.90243902439024,34.5020325203252 44.15650406504065,34.2479674796748 44.41056910569105,34.09552845528455 44.66463414634146,33.892276422764226 44.918699186991866,33.6890243902439 45.12195121951219,33.53658536585366 45.27439024390244,33.4349593495935 45.42682926829268,33.333333333333336 45.47764227642276,33.333333333333336 45.47764227642276,33.333333333333336 45.47764227642276,33.333333333333336 45.47764227642276,33.333333333333336 45.47764227642276,33.333333333333336 45.47764227642276,33.333333333333336 45.47764227642276,33.333333333333336 45.42682926829268,33.333333333333336 45.3760162601626,33.333333333333336" fill="none" stroke="black" stroke-width="0.6"></polyline><polyline points="45.3760162601626,33.333333333333336 45.27439024390244,33.333333333333336 45.172764227642276,33.38414634146341 44.96951219512195,33.53658536585366 44.66463414634146,33.739837398373986 44.41056910569105,33.99390243902439 44.105691056910565,34.34959349593496 43.85162601626016,34.70528455284553 43.64837398373984,35.0609756097561 43.546747967479675,35.36585365853659 43.546747967479675,35.56910569105691 43.64837398373984,35.670731707317074 43.75,35.670731707317074 44.0040650406504,35.56910569105691 44.25813008130081,35.36585365853659 44.61382113821138,35.010162601626014 44.86788617886179,34.70528455284553 45.12195121951219,34.34959349593496 45.27439024390244,34.04471544715447 45.3760162601626,33.790650406504064 45.42682926829268,33.63821138211382 45.42682926829268,33.485772357723576 45.3760162601626,33.4349593495935 45.325203252032516,33.4349593495935 45.22357723577235,33.4349593495935 45.172764227642276,33.4349593495935 45.12195121951219,33.53658536585366 44.96951219512195,33.6890243902439 44.86788617886179,33.94308943089431 44.71544715447154,34.2479674796748 44.66463414634146,34.603658536585364 44.61382113821138,34.90853658536585 44.61382113821138,35.16260162601626 44.71544715447154,35.416666666666664 44.918699186991866,35.51829268292683 45.22357723577235,35.56910569105691 45.47764227642276,35.56910569105691 45.78252032520325,35.46747967479675 46.03658536585366,35.264227642276424 46.239837398373986,35.0609756097561 46.392276422764226,34.857723577235774 46.54471544715447,34.65447154471545 46.646341463414636,34.451219512195124 46.7479674796748,34.2479674796748 46.798780487804876,34.09552845528455 46.90040650406504,33.99390243902439 47.0020325203252,33.892276422764226 47.103658536585364,33.790650406504064 47.25609756097561,33.739837398373986 47.459349593495936,33.739837398373986 47.61178861788618,33.739837398373986" fill="none" stroke="black" stroke-width="0.6"></polyline><polyline points="47.61178861788618,33.739837398373986 47.8150406504065,33.739837398373986 47.916666666666664,33.739837398373986 48.06910569105691,33.84146341463415 48.11991869918699,33.892276422764226 48.170731707317074,33.99390243902439 48.170731707317074,34.09552845528455 48.170731707317074,34.197154471544714 48.170731707317074,34.34959349593496 48.11991869918699,34.552845528455286 48.01829268292683,34.75609756097561 47.916666666666664,35.010162601626014 47.764227642276424,35.264227642276424 47.66260162601626,35.46747967479675 47.5609756097561,35.61991869918699 47.510162601626014,35.77235772357724 47.510162601626014,35.8739837398374 47.510162601626014,35.92479674796748 47.510162601626014,35.92479674796748 47.66260162601626,35.92479674796748 47.916666666666664,35.72154471544715 48.22154471544715,35.46747967479675 48.577235772357724,35.21341463414634 48.983739837398375,34.857723577235774 49.390243902439025,34.5020325203252 49.74593495934959,34.197154471544714 50.10162601626016,33.892276422764226 50.40650406504065,33.63821138211382 50.55894308943089,33.53658536585366 50.66056910569105,33.4349593495935 50.71138211382114,33.38414634146341 50.762195121951216,33.38414634146341 50.762195121951216,33.38414634146341 50.71138211382114,33.38414634146341 50.609756097560975,33.485772357723576 50.45731707317073,33.6890243902439 50.2540650406504,34.04471544715447 50,34.34959349593496 49.796747967479675,34.70528455284553 49.59349593495935,35.0609756097561 49.49186991869919,35.36585365853659 49.4410569105691,35.56910569105691 49.4410569105691,35.72154471544715 49.4410569105691,35.77235772357724 49.59349593495935,35.77235772357724 49.84756097560975,35.61991869918699 50.10162601626016,35.416666666666664 50.355691056910565,35.16260162601626 50.66056910569105,34.857723577235774 50.91463414634146,34.552845528455286 51.21951219512195,34.197154471544714" fill="none" stroke="black" stroke-width="0.6"></polyline><polyline points="51.21951219512195,34.197154471544714 51.52439024390244,33.790650406504064 51.72764227642276,33.38414634146341 51.981707317073166,32.97764227642276 52.1849593495935,32.57113821138211 52.33739837398374,32.16463414634146 52.489837398373986,31.758130081300813 52.59146341463415,31.402439024390244 52.642276422764226,31.148373983739837 52.642276422764226,30.995934959349594 52.540650406504064,30.89430894308943 52.4390243902439,30.84349593495935 52.235772357723576,30.84349593495935 51.981707317073166,30.995934959349594 51.575203252032516,31.25 51.168699186991866,31.554878048780488 50.71138211382114,32.012195121951216 50.355691056910565,32.46951219512195 50.05081300813008,32.926829268292686 49.796747967479675,33.4349593495935 49.69512195121951,33.84146341463415 49.69512195121951,34.2479674796748 49.796747967479675,34.5020325203252 49.949186991869915,34.75609756097561 50.15243902439024,34.959349593495936 50.355691056910565,35.0609756097561 50.66056910569105,35.16260162601626 50.96544715447154,35.21341463414634 51.32113821138211,35.21341463414634 51.67682926829268,35.21341463414634 52.03252032520325,35.11178861788618 52.33739837398374,35.0609756097561 52.59146341463415,35.0609756097561 52.79471544715447,35.0609756097561 52.896341463414636,35.11178861788618" fill="none" stroke="black" stroke-width="0.6"></polyline><polyline points="55.28455284552845,34.603658536585364 55.28455284552845,34.5020325203252 55.28455284552845,34.40040650406504 55.233739837398375,34.40040650406504 55.233739837398375,34.40040650406504 55.233739837398375,34.40040650406504 55.233739837398375,34.40040650406504 55.18292682926829,34.451219512195124 55.13211382113821,34.603658536585364 55.03048780487805,34.75609756097561 54.979674796747965,34.90853658536585 54.8780487804878,35.0609756097561 54.827235772357724,35.16260162601626 54.827235772357724,35.21341463414634 54.77642276422764,35.264227642276424 54.77642276422764,35.264227642276424" fill="none" stroke="black" stroke-width="0.6"></polyline></svg>