<svg height="100" width="100" preserveAspectRatio="xMidYMid meet"><polyline points="31.961382113821138,15.142276422764228 31.808943089430894,15.142276422764228 31.70731707317073,15.142276422764228 31.554878048780488,15.142276422764228 31.402439024390244,15.19308943089431 31.30081300813008,15.19308943089431 31.148373983739837,15.19308943089431 31.046747967479675,15.19308943089431 30.995934959349594,15.19308943089431 30.995934959349594,15.24390243902439 30.995934959349594,15.24390243902439 30.995934959349594,15.345528455284553 30.995934959349594,15.447154471544716 31.046747967479675,15.548780487804878 31.148373983739837,15.65040650406504 31.30081300813008,15.752032520325203 31.504065040650406,15.802845528455284 31.758130081300813,15.853658536585366 32.11382113821138,15.802845528455284 32.52032520325203,15.59959349593496 32.97764227642276,15.345528455284553 33.58739837398374,14.888211382113822 34.298780487804876,14.278455284552845 35.11178861788618,13.516260162601625 36.077235772357724,12.601626016260163 37.042682926829265,11.6869918699187 37.90650406504065,10.924796747967479 38.77032520325203,10.060975609756097 39.583333333333336,9.298780487804878 40.24390243902439,8.638211382113822 40.802845528455286,7.926829268292683 41.3109756097561,7.367886178861789 41.5650406504065,6.961382113821138 41.71747967479675,6.7073170731707314 41.76829268292683,6.504065040650406 41.76829268292683,6.3516260162601625 41.71747967479675,6.199186991869919 41.666666666666664,6.1483739837398375 41.514227642276424,6.097560975609756 41.3109756097561,6.097560975609756 41.05691056910569,6.097560975609756 40.7520325203252,6.25 40.29471544715447,6.504065040650406 39.735772357723576,6.808943089430894 39.22764227642276,7.164634146341463 38.71951219512195,7.520325203252033 38.109756097560975,7.977642276422764 37.55081300813008,8.434959349593496 37.042682926829265,8.94308943089431 36.53455284552845,9.502032520325203 36.1280487804878,9.959349593495935" fill="none" stroke="black" stroke-width="0.6"></polyline><polyline points="36.1280487804878,9.959349593495935 35.72154471544715,10.518292682926829 35.46747967479675,11.077235772357723 35.21341463414634,11.636178861788618 35.010162601626014,12.296747967479675 34.857723577235774,12.90650406504065 34.70528455284553,13.567073170731707 34.603658536585364,14.1260162601626 34.552845528455286,14.48170731707317 34.552845528455286,14.888211382113822 34.552845528455286,15.24390243902439 34.552845528455286,15.497967479674797 34.603658536585364,15.701219512195122 34.65447154471545,15.853658536585366 34.70528455284553,16.006097560975608 34.80691056910569,16.10772357723577 34.90853658536585,16.209349593495933 35.0609756097561,16.3109756097561 35.264227642276424,16.41260162601626 35.56910569105691,16.463414634146343 35.8739837398374,16.463414634146343 36.33130081300813,16.463414634146343 36.83943089430894,16.3109756097561 37.39837398373984,16.209349593495933 37.95731707317073,16.006097560975608 38.5670731707317,15.802845528455284 39.1260162601626,15.59959349593496 39.735772357723576,15.345528455284553 40.34552845528455,15.091463414634147 40.853658536585364,14.786585365853659 41.41260162601626,14.53252032520325 41.97154471544715,14.176829268292682 42.479674796747965,13.871951219512194 42.98780487804878,13.516260162601625 43.49593495934959,13.160569105691057 43.90243902439024,12.754065040650406 44.30894308943089,12.347560975609756 44.61382113821138,11.941056910569106 44.86788617886179,11.636178861788618 45.02032520325203,11.382113821138212 45.07113821138211,11.229674796747966 45.07113821138211,11.077235772357723 45.07113821138211,11.026422764227641 44.96951219512195,10.97560975609756 44.8170731707317,10.924796747967479 44.61382113821138,10.924796747967479 44.25813008130081,10.97560975609756 43.90243902439024,11.128048780487804 43.49593495934959,11.280487804878048 43.08943089430894,11.483739837398375 42.68292682926829,11.6869918699187" fill="none" stroke="black" stroke-width="0.6"></polyline><polyline points="42.68292682926829,11.6869918699187 42.327235772357724,11.890243902439025 41.920731707317074,12.195121951219512 41.5650406504065,12.550813008130081 41.260162601626014,12.957317073170731 40.95528455284553,13.414634146341463 40.701219512195124,13.871951219512194 40.4979674796748,14.278455284552845 40.29471544715447,14.786585365853659 40.142276422764226,15.19308943089431 40.09146341463415,15.497967479674797 40.040650406504064,15.752032520325203 40.040650406504064,15.904471544715447 40.040650406504064,16.006097560975608 40.142276422764226,16.10772357723577 40.24390243902439,16.209349593495933 40.396341463414636,16.260162601626014 40.59959349593496,16.3109756097561 40.853658536585364,16.3109756097561 41.209349593495936,16.3109756097561 41.61585365853659,16.15853658536585 42.1239837398374,15.955284552845528 42.78455284552845,15.65040650406504 43.39430894308943,15.345528455284553 44.105691056910565,14.989837398373984 44.86788617886179,14.53252032520325 45.52845528455285,14.1260162601626 46.13821138211382,13.71951219512195 46.798780487804876,13.262195121951219 47.30691056910569,12.804878048780488 47.86585365853659,12.296747967479675 48.3739837398374,11.788617886178862 48.729674796747965,11.382113821138212 49.03455284552845,11.026422764227641 49.23780487804878,10.721544715447154 49.28861788617886,10.56910569105691 49.28861788617886,10.518292682926829 49.28861788617886,10.467479674796747 49.23780487804878,10.467479674796747 49.136178861788615,10.467479674796747 49.03455284552845,10.467479674796747 48.88211382113821,10.56910569105691 48.729674796747965,10.721544715447154 48.52642276422764,10.97560975609756 48.3739837398374,11.229674796747966 48.27235772357724,11.534552845528456 48.11991869918699,11.839430894308943 48.01829268292683,12.09349593495935 47.96747967479675,12.347560975609756 47.916666666666664,12.601626016260163 47.916666666666664,12.855691056910569" fill="none" stroke="black" stroke-width="0.6"></polyline><polyline points="47.916666666666664,12.855691056910569 47.916666666666664,13.058943089430894 48.01829268292683,13.262195121951219 48.170731707317074,13.465447154471544 48.27235772357724,13.617886178861788 48.323170731707314,13.821138211382113 48.3739837398374,13.973577235772357 48.3739837398374,14.176829268292682 48.3739837398374,14.430894308943088 48.170731707317074,14.786585365853659 47.86585365853659,15.142276422764228 47.510162601626014,15.447154471544716 47.103658536585364,15.701219512195122 46.646341463414636,15.955284552845528 46.08739837398374,16.10772357723577 45.579268292682926,16.260162601626014 45.07113821138211,16.36178861788618 44.766260162601625,16.41260162601626" fill="none" stroke="black" stroke-width="0.6"></polyline><polyline points="30.335365853658537,35.72154471544715 30.284552845528456,35.72154471544715 30.182926829268293,35.670731707317074 30.132113821138212,35.670731707317074 30.08130081300813,35.670731707317074 30.08130081300813,35.670731707317074 30.03048780487805,35.670731707317074 30.03048780487805,35.670731707317074 30.03048780487805,35.670731707317074 30.03048780487805,35.670731707317074 30.08130081300813,35.61991869918699 30.132113821138212,35.61991869918699 30.233739837398375,35.56910569105691 30.4369918699187,35.416666666666664 30.741869918699187,35.21341463414634 31.097560975609756,34.90853658536585 31.65650406504065,34.5020325203252 32.36788617886179,33.892276422764226 33.079268292682926,33.28252032520325 33.790650406504064,32.57113821138211 34.552845528455286,31.758130081300813 35.21341463414634,31.046747967479675 35.77235772357724,30.284552845528456 36.33130081300813,29.471544715447155 36.890243902439025,28.60772357723577 37.39837398373984,27.74390243902439 37.7540650406504,26.98170731707317 38.00813008130081,26.422764227642276 38.16056910569105,25.965447154471544 38.21138211382114,25.508130081300813 38.21138211382114,25.254065040650406 38.16056910569105,25.101626016260163 38.05894308943089,25 37.95731707317073,25 37.80487804878049,25 37.55081300813008,25.05081300813008 37.24593495934959,25.254065040650406 36.83943089430894,25.609756097560975 36.38211382113821,26.067073170731707 35.97560975609756,26.473577235772357 35.61991869918699,26.829268292682926 35.21341463414634,27.286585365853657 34.857723577235774,27.693089430894307 34.451219512195124,28.20121951219512 34.04471544715447,28.810975609756095 33.739837398373986,29.268292682926827 33.38414634146341,29.776422764227643 33.18089430894309,30.233739837398375 32.926829268292686,30.79268292682927 32.72357723577236,31.351626016260163 32.6219512195122,31.808943089430894" fill="none" stroke="black" stroke-width="0.6"></polyline><polyline points="32.6219512195122,31.808943089430894 32.52032520325203,32.266260162601625 32.46951219512195,32.77439024390244 32.46951219512195,33.13008130081301 32.46951219512195,33.485772357723576 32.46951219512195,33.84146341463415 32.52032520325203,34.09552845528455 32.6219512195122,34.34959349593496 32.672764227642276,34.552845528455286 32.77439024390244,34.70528455284553 32.82520325203252,34.80691056910569 32.926829268292686,34.90853658536585 33.02845528455285,34.959349593495936 33.13008130081301,34.959349593495936 33.28252032520325,35.010162601626014 33.38414634146341,35.010162601626014 33.58739837398374,35.010162601626014 33.790650406504064,35.010162601626014 34.04471544715447,34.90853658536585 34.298780487804876,34.857723577235774 34.603658536585364,34.80691056910569 34.857723577235774,34.75609756097561 35.16260162601626,34.70528455284553 35.416666666666664,34.65447154471545 35.61991869918699,34.603658536585364 35.8739837398374,34.603658536585364 36.077235772357724,34.552845528455286 36.229674796747965,34.552845528455286 36.38211382113821,34.5020325203252 36.58536585365854,34.451219512195124 36.73780487804878,34.34959349593496 36.99186991869919,34.2479674796748 37.24593495934959,34.09552845528455 37.60162601626016,33.892276422764226 38.00813008130081,33.6890243902439 38.41463414634146,33.485772357723576 38.77032520325203,33.333333333333336 39.176829268292686,33.13008130081301 39.53252032520325,32.926829268292686 39.83739837398374,32.77439024390244 40.09146341463415,32.6219512195122 40.29471544715447,32.46951219512195 40.4979674796748,32.3170731707317 40.701219512195124,32.11382113821138 40.95528455284553,31.910569105691057 41.15853658536585,31.70731707317073 41.3109756097561,31.504065040650406 41.46341463414634,31.351626016260163 41.61585365853659,31.19918699186992 41.76829268292683,31.046747967479675 41.86991869918699,30.84349593495935" fill="none" stroke="black" stroke-width="0.6"></polyline><polyline points="41.86991869918699,30.84349593495935 41.97154471544715,30.691056910569106 42.02235772357724,30.538617886178862 42.073170731707314,30.38617886178862 42.073170731707314,30.284552845528456 42.073170731707314,30.233739837398375 42.02235772357724,30.182926829268293 41.920731707317074,30.182926829268293 41.81910569105691,30.182926829268293 41.666666666666664,30.182926829268293 41.46341463414634,30.233739837398375 41.260162601626014,30.335365853658537 40.95528455284553,30.538617886178862 40.65040650406504,30.691056910569106 40.34552845528455,30.89430894308943 40.040650406504064,31.148373983739837 39.735772357723576,31.402439024390244 39.43089430894309,31.65650406504065 39.22764227642276,31.910569105691057 39.02439024390244,32.16463414634146 38.87195121951219,32.418699186991866 38.71951219512195,32.6219512195122 38.61788617886179,32.82520325203252 38.46544715447154,33.079268292682926 38.41463414634146,33.23170731707317 38.3130081300813,33.38414634146341 38.262195121951216,33.53658536585366 38.21138211382114,33.63821138211382 38.21138211382114,33.739837398373986 38.21138211382114,33.892276422764226 38.21138211382114,33.99390243902439 38.21138211382114,34.146341463414636 38.21138211382114,34.2479674796748 38.262195121951216,34.34959349593496 38.3130081300813,34.5020325203252 38.41463414634146,34.65447154471545 38.516260162601625,34.75609756097561 38.61788617886179,34.857723577235774 38.77032520325203,34.959349593495936 38.922764227642276,35.0609756097561 39.1260162601626,35.11178861788618 39.329268292682926,35.11178861788618 39.63414634146341,35.11178861788618 39.9390243902439,35.11178861788618 40.29471544715447,35.11178861788618 40.7520325203252,35.010162601626014 41.209349593495936,34.90853658536585 41.71747967479675,34.75609756097561 42.17479674796748,34.65447154471545 42.68292682926829,34.451219512195124 43.1910569105691,34.2479674796748" fill="none" stroke="black" stroke-width="0.6"></polyline><polyline points="43.1910569105691,34.2479674796748 43.699186991869915,34.04471544715447 44.15650406504065,33.739837398373986 44.71544715447154,33.38414634146341 45.325203252032516,32.97764227642276 45.9349593495935,32.46951219512195 46.59552845528455,31.859756097560975 47.25609756097561,31.19918699186992 47.916666666666664,30.538617886178862 48.47560975609756,29.928861788617887 48.88211382113821,29.471544715447155 49.1869918699187,29.166666666666664 49.28861788617886,29.01422764227642 49.28861788617886,29.01422764227642 49.28861788617886,29.01422764227642 49.28861788617886,29.01422764227642 49.1869918699187,29.01422764227642 49.03455284552845,29.166666666666664 48.729674796747965,29.420731707317074 48.3739837398374,29.776422764227643 48.06910569105691,30.132113821138212 47.86585365853659,30.4369918699187 47.66260162601626,30.741869918699187 47.459349593495936,31.097560975609756 47.30691056910569,31.402439024390244 47.20528455284553,31.70731707317073 47.20528455284553,31.910569105691057 47.20528455284553,32.11382113821138 47.357723577235774,32.266260162601625 47.459349593495936,32.418699186991866 47.61178861788618,32.57113821138211 47.71341463414634,32.72357723577236 47.8150406504065,32.926829268292686 47.916666666666664,33.13008130081301 47.916666666666664,33.38414634146341 47.96747967479675,33.6890243902439 47.86585365853659,33.94308943089431 47.71341463414634,34.197154471544714 47.459349593495936,34.451219512195124 47.20528455284553,34.65447154471545 46.90040650406504,34.80691056910569 46.54471544715447,34.857723577235774 46.239837398373986,34.90853658536585 45.9349593495935,34.90853658536585 45.52845528455285,34.857723577235774 45.22357723577235,34.80691056910569 44.86788617886179,34.70528455284553 44.512195121951216,34.552845528455286 44.25813008130081,34.451219512195124 44.05487804878049,34.34959349593496 43.90243902439024,34.2479674796748" fill="none" stroke="black" stroke-width="0.6"></polyline><polyline points="43.90243902439024,34.2479674796748 43.85162601626016,34.197154471544714 43.80081300813008,34.197154471544714 43.80081300813008,34.197154471544714 43.80081300813008,34.197154471544714 43.90243902439024,34.197154471544714 44.05487804878049,34.197154471544714 44.30894308943089,34.197154471544714" fill="none" stroke="black" stroke-width="0.6"></polyline><polyline points="30.38617886178862,55.53861788617886 30.38617886178862,55.53861788617886 30.38617886178862,55.53861788617886 30.335365853658537,55.53861788617886 30.335365853658537,55.53861788617886 30.335365853658537,55.53861788617886 30.335365853658537,55.53861788617886 30.335365853658537,55.53861788617886 30.4369918699187,55.53861788617886 30.691056910569106,55.386178861788615 31.046747967479675,55.13211382113821 31.65650406504065,54.6239837398374 32.36788617886179,53.86178861788618 33.18089430894309,52.947154471544714 33.99390243902439,51.981707317073166 34.70528455284553,51.0670731707317 35.36585365853659,50.10162601626016 36.077235772357724,49.136178861788615 36.73780487804878,48.170731707317074 37.296747967479675,47.20528455284553 37.7540650406504,46.34146341463415 38.109756097560975,45.68089430894309 38.3130081300813,45.07113821138211 38.36382113821138,44.66463414634146 38.36382113821138,44.41056910569105 38.21138211382114,44.30894308943089 38.00813008130081,44.25813008130081 37.703252032520325,44.25813008130081 37.296747967479675,44.46138211382114 36.83943089430894,44.766260162601625 36.33130081300813,45.172764227642276 35.77235772357724,45.68089430894309 35.3150406504065,46.1890243902439 34.857723577235774,46.798780487804876 34.40040650406504,47.459349593495936 33.99390243902439,48.06910569105691 33.6890243902439,48.729674796747965 33.38414634146341,49.390243902439025 33.18089430894309,50 32.97764227642276,50.66056910569105 32.82520325203252,51.32113821138211 32.77439024390244,51.829268292682926 32.72357723577236,52.33739837398374 32.72357723577236,52.84552845528455 32.82520325203252,53.2520325203252 32.97764227642276,53.607723577235774 33.23170731707317,53.91260162601626 33.485772357723576,54.166666666666664 33.84146341463415,54.31910569105691 34.2479674796748,54.420731707317074 34.65447154471545,54.420731707317074" fill="none" stroke="black" stroke-width="0.6"></polyline><polyline points="34.65447154471545,54.420731707317074 35.11178861788618,54.36991869918699 35.61991869918699,54.166666666666664 36.1280487804878,53.86178861788618 36.6869918699187,53.55691056910569 37.296747967479675,53.15040650406504 37.80487804878049,52.84552845528455 38.3130081300813,52.540650406504064 38.82113821138211,52.1849593495935 39.27845528455285,51.880081300813 39.63414634146341,51.52439024390244 39.989837398373986,51.21951219512195 40.24390243902439,50.91463414634146 40.4979674796748,50.66056910569105 40.701219512195124,50.355691056910565 40.853658536585364,50.10162601626016 40.90447154471545,49.84756097560975 40.95528455284553,49.64430894308943 40.90447154471545,49.49186991869919 40.853658536585364,49.390243902439025 40.7520325203252,49.28861788617886 40.65040650406504,49.23780487804878 40.4979674796748,49.23780487804878 40.29471544715447,49.28861788617886 40.040650406504064,49.4410569105691 39.6849593495935,49.69512195121951 39.329268292682926,50 38.97357723577235,50.355691056910565 38.61788617886179,50.762195121951216 38.21138211382114,51.168699186991866 37.95731707317073,51.575203252032516 37.7540650406504,51.981707317073166 37.55081300813008,52.4390243902439 37.39837398373984,52.79471544715447 37.296747967479675,53.15040650406504 37.19512195121951,53.45528455284553 37.09349593495935,53.709349593495936 37.042682926829265,53.91260162601626 37.042682926829265,54.11585365853659 37.042682926829265,54.26829268292683 37.042682926829265,54.420731707317074 37.14430894308943,54.52235772357724 37.24593495934959,54.6239837398374 37.449186991869915,54.72560975609756 37.65243902439024,54.77642276422764 37.95731707317073,54.77642276422764 38.3130081300813,54.77642276422764 38.71951219512195,54.72560975609756 39.22764227642276,54.573170731707314 39.78658536585366,54.31910569105691 40.34552845528455,54.0650406504065" fill="none" stroke="black" stroke-width="0.6"></polyline><polyline points="40.34552845528455,54.0650406504065 40.90447154471545,53.709349593495936 41.5650406504065,53.302845528455286 42.1239837398374,52.947154471544714 42.733739837398375,52.540650406504064 43.44512195121951,52.083333333333336 44.05487804878049,51.67682926829268 44.66463414634146,51.21951219512195 45.325203252032516,50.8130081300813 45.833333333333336,50.45731707317073 46.290650406504064,50.10162601626016 46.697154471544714,49.69512195121951 47.0020325203252,49.33943089430894 47.25609756097561,48.983739837398375 47.357723577235774,48.729674796747965 47.40853658536585,48.577235772357724 47.40853658536585,48.47560975609756 47.357723577235774,48.42479674796748 47.25609756097561,48.3739837398374 47.052845528455286,48.3739837398374 46.798780487804876,48.47560975609756 46.49390243902439,48.729674796747965 46.13821138211382,48.983739837398375 45.88414634146341,49.28861788617886 45.68089430894309,49.542682926829265 45.52845528455285,49.84756097560975 45.3760162601626,50.15243902439024 45.325203252032516,50.45731707317073 45.325203252032516,50.86382113821138 45.3760162601626,51.27032520325203 45.52845528455285,51.72764227642276 45.68089430894309,52.1849593495935 45.833333333333336,52.642276422764226 45.9349593495935,52.947154471544714 45.985772357723576,53.2520325203252 46.03658536585366,53.50609756097561 46.03658536585366,53.709349593495936 45.985772357723576,53.91260162601626 45.833333333333336,54.166666666666664 45.63008130081301,54.36991869918699 45.325203252032516,54.573170731707314 44.96951219512195,54.72560975609756 44.61382113821138,54.827235772357724 44.25813008130081,54.8780487804878 43.953252032520325,54.8780487804878 43.80081300813008,54.827235772357724 43.699186991869915,54.72560975609756 43.699186991869915,54.6239837398374 43.699186991869915,54.52235772357724 43.80081300813008,54.26829268292683 44.05487804878049,53.96341463414634" fill="none" stroke="black" stroke-width="0.6"></polyline><polyline points="44.05487804878049,53.96341463414634 44.359756097560975,53.607723577235774 44.766260162601625,53.2520325203252 45.172764227642276,52.947154471544714 45.63008130081301,52.59146341463415 46.239837398373986,52.235772357723576 46.90040650406504,51.829268292682926 47.5609756097561,51.422764227642276 48.06910569105691,51.11788617886179 48.52642276422764,50.86382113821138 48.78048780487805,50.762195121951216 48.983739837398375,50.66056910569105 49.136178861788615,50.66056910569105 49.1869918699187,50.66056910569105 49.28861788617886,50.66056910569105 49.33943089430894,50.762195121951216 49.390243902439025,50.91463414634146 49.4410569105691,51.016260162601625" fill="none" stroke="black" stroke-width="0.6"></polyline><polyline points="29.6239837398374,76.3211382113821 29.420731707317074,76.3719512195122 29.268292682926827,76.3719512195122 29.115853658536583,76.3719512195122 29.0650406504065,76.3719512195122 29.0650406504065,76.3719512195122 29.0650406504065,76.3719512195122 29.217479674796746,76.3211382113821 29.471544715447155,76.16869918699187 29.827235772357724,75.8130081300813 30.284552845528456,75.30487804878048 30.89430894308943,74.64430894308943 31.65650406504065,73.72967479674797 32.52032520325203,72.61178861788618 33.333333333333336,71.49390243902438 34.146341463414636,70.3760162601626 34.90853658536585,69.35975609756098 35.61991869918699,68.24186991869918 36.28048780487805,67.22560975609755 36.78861788617886,66.3109756097561 37.14430894308943,65.65040650406505 37.296747967479675,65.14227642276423 37.296747967479675,64.83739837398373 37.24593495934959,64.6341463414634 37.14430894308943,64.53252032520325 36.99186991869919,64.48170731707317 36.73780487804878,64.48170731707317 36.33130081300813,64.6849593495935 35.823170731707314,65.09146341463415 35.11178861788618,65.70121951219512 34.552845528455286,66.20934959349593 33.99390243902439,66.869918699187 33.4349593495935,67.58130081300813 32.97764227642276,68.24186991869918 32.6219512195122,68.90243902439025 32.3170731707317,69.66463414634146 32.11382113821138,70.32520325203252 31.961382113821138,70.9349593495935 31.808943089430894,71.69715447154472 31.70731707317073,72.35772357723577 31.65650406504065,72.96747967479675 31.65650406504065,73.57723577235772 31.758130081300813,74.08536585365853 31.910569105691057,74.54268292682927 32.16463414634146,74.94918699186992 32.46951219512195,75.2540650406504 32.77439024390244,75.5589430894309 33.18089430894309,75.76219512195122 33.63821138211382,75.8130081300813 34.146341463414636,75.8130081300813 34.75609756097561,75.71138211382113" fill="none" stroke="black" stroke-width="0.6"></polyline><polyline points="34.75609756097561,75.71138211382113 35.3150406504065,75.5081300813008 35.92479674796748,75.30487804878048 36.53455284552845,75 37.09349593495935,74.7459349593496 37.65243902439024,74.49186991869918 38.21138211382114,74.23780487804878 38.668699186991866,73.98373983739837 39.07520325203252,73.67886178861788 39.48170731707317,73.3739837398374 39.78658536585366,73.0691056910569 40.040650406504064,72.71341463414635 40.29471544715447,72.40853658536585 40.447154471544714,72.05284552845528 40.548780487804876,71.7479674796748 40.65040650406504,71.4430894308943 40.701219512195124,71.1890243902439 40.701219512195124,70.9349593495935 40.701219512195124,70.78252032520325 40.59959349593496,70.630081300813 40.4979674796748,70.57926829268293 40.34552845528455,70.52845528455285 40.142276422764226,70.52845528455285 39.9390243902439,70.57926829268293 39.63414634146341,70.73170731707317 39.38008130081301,70.98577235772358 39.02439024390244,71.34146341463415 38.61788617886179,71.79878048780488 38.3130081300813,72.2560975609756 37.95731707317073,72.8150406504065 37.60162601626016,73.47560975609755 37.39837398373984,74.08536585365853 37.24593495934959,74.7459349593496 37.19512195121951,75.2540650406504 37.19512195121951,75.66056910569105 37.19512195121951,75.96544715447155 37.296747967479675,76.16869918699187 37.39837398373984,76.27032520325203 37.55081300813008,76.3211382113821 37.7540650406504,76.3719512195122 37.95731707317073,76.3719512195122 38.262195121951216,76.3211382113821 38.61788617886179,76.16869918699187 39.02439024390244,75.91463414634146 39.48170731707317,75.60975609756098 39.9390243902439,75.2540650406504 40.447154471544714,74.84756097560975 41.00609756097561,74.39024390243902 41.514227642276424,73.98373983739837 42.02235772357724,73.57723577235772 42.58130081300813,73.0691056910569" fill="none" stroke="black" stroke-width="0.6"></polyline><polyline points="42.58130081300813,73.0691056910569 43.08943089430894,72.5609756097561 43.64837398373984,72.05284552845528 44.25813008130081,71.39227642276423 44.766260162601625,70.83333333333333 45.27439024390244,70.17276422764228 45.78252032520325,69.46138211382113 46.239837398373986,68.75 46.697154471544714,67.98780487804878 47.15447154471545,67.27642276422765 47.357723577235774,66.71747967479675 47.510162601626014,66.26016260162602 47.5609756097561,65.95528455284553 47.5609756097561,65.80284552845528 47.510162601626014,65.7520325203252 47.40853658536585,65.70121951219512 47.30691056910569,65.70121951219512 47.052845528455286,65.7520325203252 46.646341463414636,65.95528455284553 46.13821138211382,66.3109756097561 45.68089430894309,66.71747967479675 45.27439024390244,67.1239837398374 44.918699186991866,67.53048780487805 44.66463414634146,67.98780487804878 44.359756097560975,68.4959349593496 44.25813008130081,69.0040650406504 44.25813008130081,69.51219512195122 44.25813008130081,70.02032520325203 44.41056910569105,70.3760162601626 44.5630081300813,70.630081300813 44.71544715447154,70.8841463414634 44.918699186991866,71.08739837398373 45.12195121951219,71.29065040650406 45.325203252032516,71.54471544715447 45.47764227642276,71.7479674796748 45.68089430894309,72.0020325203252 45.833333333333336,72.2560975609756 45.9349593495935,72.5609756097561 45.985772357723576,72.91666666666667 45.985772357723576,73.3739837398374 45.9349593495935,73.8821138211382 45.78252032520325,74.4410569105691 45.579268292682926,74.89837398373983 45.325203252032516,75.2540650406504 45.07113821138211,75.5589430894309 44.71544715447154,75.8130081300813 44.359756097560975,75.96544715447155 44.0040650406504,76.01626016260163 43.699186991869915,76.01626016260163 43.44512195121951,75.96544715447155 43.292682926829265,75.8130081300813" fill="none" stroke="black" stroke-width="0.6"></polyline><polyline points="43.292682926829265,75.8130081300813 43.140243902439025,75.66056910569105 43.08943089430894,75.5589430894309 43.08943089430894,75.40650406504065 43.08943089430894,75.30487804878048 43.140243902439025,75.20325203252033 43.292682926829265,75.10162601626016 43.49593495934959,74.94918699186992 43.75,74.7459349593496 44.105691056910565,74.54268292682927 44.512195121951216,74.33943089430895 44.96951219512195,74.08536585365853 45.52845528455285,73.83130081300813 46.13821138211382,73.47560975609755 46.7479674796748,73.17073170731707 47.357723577235774,72.8150406504065 47.764227642276424,72.5609756097561 48.11991869918699,72.3069105691057 48.47560975609756,72.15447154471545 48.729674796747965,72.0020325203252 48.88211382113821,71.95121951219512 49.03455284552845,71.95121951219512 49.136178861788615,71.95121951219512 49.1869918699187,71.95121951219512 49.23780487804878,72.0020325203252 49.28861788617886,72.05284552845528 49.33943089430894,72.20528455284553 49.390243902439025,72.35772357723577 49.390243902439025,72.45934959349593" fill="none" stroke="black" stroke-width="0.6"></polyline><polyline points="26.524390243902438,96.34146341463415 26.270325203252032,96.34146341463415 26.117886178861788,96.29065040650406 26.067073170731707,96.29065040650406 26.067073170731707,96.29065040650406 26.067073170731707,96.29065040650406 26.16869918699187,96.29065040650406 26.321138211382113,96.29065040650406 26.57520325203252,96.1890243902439 26.880081300813007,95.98577235772358 27.235772357723576,95.68089430894308 27.74390243902439,95.22357723577235 28.302845528455283,94.5630081300813 29.01422764227642,93.75 29.776422764227643,92.83536585365853 30.538617886178862,91.97154471544715 31.25,91.10772357723577 31.910569105691057,90.14227642276423 32.6219512195122,89.22764227642276 33.23170731707317,88.26219512195122 33.84146341463415,87.29674796747967 34.40040650406504,86.33130081300813 34.90853658536585,85.41666666666667 35.21341463414634,84.65447154471545 35.416666666666664,83.99390243902438 35.46747967479675,83.58739837398373 35.46747967479675,83.3841463414634 35.416666666666664,83.23170731707317 35.264227642276424,83.18089430894308 35.11178861788618,83.18089430894308 34.80691056910569,83.28252032520325 34.34959349593496,83.58739837398373 33.790650406504064,84.09552845528455 33.23170731707317,84.70528455284553 32.6219512195122,85.41666666666667 32.11382113821138,86.17886178861788 31.60569105691057,87.04268292682927 31.097560975609756,88.0081300813008 30.741869918699187,88.92276422764228 30.4369918699187,89.88821138211382 30.233739837398375,90.7520325203252 30.08130081300813,91.46341463414635 29.979674796747968,92.1239837398374 29.827235772357724,92.83536585365853 29.725609756097562,93.4959349593496 29.6239837398374,94.15650406504065 29.6239837398374,94.5630081300813 29.6239837398374,94.96951219512195 29.725609756097562,95.3760162601626 29.878048780487806,95.630081300813 30.08130081300813,95.83333333333333" fill="none" stroke="black" stroke-width="0.6"></polyline><polyline points="30.08130081300813,95.83333333333333 30.335365853658537,96.03658536585365 30.589430894308943,96.13821138211382 30.945121951219512,96.13821138211382 31.351626016260163,96.08739837398373 31.808943089430894,95.9349593495935 32.418699186991866,95.57926829268293 33.079268292682926,95.1219512195122 33.739837398373986,94.61382113821138 34.40040650406504,94.05487804878048 35.11178861788618,93.4451219512195 35.670731707317074,92.88617886178862 36.17886178861789,92.32723577235772 36.6869918699187,91.71747967479675 37.042682926829265,91.26016260162602 37.296747967479675,90.80284552845528 37.60162601626016,90.29471544715447 37.7540650406504,90.04065040650406 37.80487804878049,89.88821138211382 37.80487804878049,89.73577235772358 37.80487804878049,89.73577235772358 37.7540650406504,89.6849593495935 37.703252032520325,89.6849593495935 37.60162601626016,89.6341463414634 37.5,89.6341463414634 37.24593495934959,89.73577235772358 36.99186991869919,89.9390243902439 36.636178861788615,90.29471544715447 36.229674796747965,90.70121951219512 35.823170731707314,91.15853658536585 35.46747967479675,91.66666666666667 35.11178861788618,92.22560975609755 34.857723577235774,92.73373983739837 34.70528455284553,93.29268292682927 34.603658536585364,93.75 34.603658536585364,94.15650406504065 34.603658536585364,94.46138211382113 34.65447154471545,94.66463414634146 34.80691056910569,94.8170731707317 34.959349593495936,94.86788617886178 35.21341463414634,94.91869918699187 35.51829268292683,94.91869918699187 35.8739837398374,94.86788617886178 36.33130081300813,94.76626016260163 36.83943089430894,94.51219512195122 37.449186991869915,94.20731707317073 38.16056910569105,93.80081300813008 38.87195121951219,93.34349593495935 39.6849593495935,92.83536585365853 40.4979674796748,92.17479674796748 41.36178861788618,91.51422764227642" fill="none" stroke="black" stroke-width="0.6"></polyline><polyline points="41.36178861788618,91.51422764227642 42.22560975609756,90.80284552845528 43.08943089430894,90.04065040650406 43.85162601626016,89.32926829268293 44.512195121951216,88.66869918699187 45.172764227642276,88.0081300813008 45.68089430894309,87.44918699186992 46.03658536585366,87.04268292682927 46.290650406504064,86.73780487804878 46.34146341463415,86.63617886178862 46.392276422764226,86.58536585365853 46.392276422764226,86.58536585365853 46.290650406504064,86.58536585365853 46.08739837398374,86.6869918699187 45.73170731707317,86.99186991869918 45.22357723577235,87.5 44.66463414634146,88.0081300813008 44.20731707317073,88.46544715447155 43.80081300813008,88.92276422764228 43.39430894308943,89.380081300813 43.140243902439025,89.78658536585365 43.03861788617886,90.14227642276423 42.98780487804878,90.4471544715447 42.98780487804878,90.65040650406503 43.08943089430894,90.80284552845528 43.24186991869919,91.0060975609756 43.34349593495935,91.15853658536585 43.49593495934959,91.26016260162602 43.64837398373984,91.46341463414635 43.80081300813008,91.66666666666667 43.953252032520325,91.869918699187 44.05487804878049,92.17479674796748 44.105691056910565,92.53048780487805 44.105691056910565,92.98780487804878 43.90243902439024,93.54674796747967 43.64837398373984,93.95325203252033 43.292682926829265,94.2581300813008 42.886178861788615,94.46138211382113 42.42886178861789,94.46138211382113 41.97154471544715,94.46138211382113 41.514227642276424,94.3089430894309 41.107723577235774,94.10569105691057 40.7520325203252,93.80081300813008 40.396341463414636,93.54674796747967 40.19308943089431,93.29268292682927 39.989837398373986,93.03861788617886 39.78658536585366,92.88617886178862 39.735772357723576,92.78455284552845 39.6849593495935,92.78455284552845 39.6849593495935,92.73373983739837 39.6849593495935,92.73373983739837" fill="none" stroke="black" stroke-width="0.6"></polyline><polyline points="39.6849593495935,92.73373983739837 39.6849593495935,92.78455284552845 39.735772357723576,92.78455284552845 39.78658536585366,92.83536585365853 39.9390243902439,92.88617886178862 40.142276422764226,92.88617886178862 40.447154471544714,92.88617886178862 40.853658536585364,92.78455284552845 41.46341463414634,92.6321138211382 42.22560975609756,92.32723577235772 43.24186991869919,91.869918699187 44.512195121951216,91.3109756097561 45.73170731707317,90.80284552845528 46.90040650406504,90.29471544715447 48.01829268292683,89.88821138211382 48.88211382113821,89.6341463414634 49.69512195121951,89.43089430894308 50.355691056910565,89.22764227642276 50.86382113821138,89.1260162601626 51.27032520325203,89.1260162601626 51.575203252032516,89.1260162601626 51.77845528455284,89.1260162601626 51.880081300813,89.17682926829268 51.981707317073166,89.27845528455285 52.083333333333336,89.32926829268293 52.13414634146341,89.380081300813 52.1849593495935,89.43089430894308 52.235772357723576,89.48170731707317 52.235772357723576,89.48170731707317 52.235772357723576,89.48170731707317 52.235772357723576,89.53252032520325 52.28658536585366,89.53252032520325" fill="none" stroke="black" stroke-width="0.6"></polyline></svg>