<svg height="100" width="100" preserveAspectRatio="xMidYMid meet"><polyline points="34.146341463414636,15.497967479674797 34.146341463414636,15.65040650406504 34.2479674796748,15.752032520325203 34.40040650406504,15.904471544715447 34.65447154471545,15.904471544715447 35.0609756097561,15.904471544715447 35.670731707317074,15.59959349593496 36.43292682926829,15.091463414634147 37.19512195121951,14.430894308943088 38.05894308943089,13.66869918699187 38.922764227642276,12.754065040650406 39.6849593495935,11.890243902439025 40.4979674796748,11.026422764227641 41.3109756097561,10.060975609756097 41.97154471544715,9.197154471544716 42.58130081300813,8.384146341463415 43.03861788617886,7.621951219512195 43.34349593495935,7.0630081300813 43.49593495934959,6.7073170731707314 43.49593495934959,6.453252032520325 43.39430894308943,6.3516260162601625 43.24186991869919,6.3516260162601625 42.9369918699187,6.3516260162601625 42.53048780487805,6.605691056910569 41.97154471544715,7.012195121951219 41.3109756097561,7.520325203252033 40.7520325203252,7.977642276422764 40.19308943089431,8.536585365853659 39.583333333333336,9.095528455284553 39.02439024390244,9.654471544715447 38.516260162601625,10.213414634146341 38.00813008130081,10.772357723577235 37.60162601626016,11.331300813008129 37.34756097560975,11.788617886178862 37.09349593495935,12.296747967479675 36.9410569105691,12.855691056910569 36.83943089430894,13.465447154471544 36.83943089430894,14.024390243902438 36.890243902439025,14.53252032520325 37.042682926829265,15.091463414634147 37.34756097560975,15.548780487804878 37.7540650406504,15.955284552845528 38.21138211382114,16.209349593495933 38.82113821138211,16.41260162601626 39.38008130081301,16.41260162601626 40.040650406504064,16.36178861788618 40.802845528455286,16.006097560975608 41.666666666666664,15.548780487804878 42.63211382113821,14.888211382113822 43.64837398373984,14.227642276422763 44.5630081300813,13.66869918699187" fill="none" stroke="black" stroke-width="0.6"></polyline><polyline points="44.5630081300813,13.66869918699187 45.3760162601626,13.160569105691057 46.1890243902439,12.652439024390244 46.84959349593496,12.144308943089431 47.5609756097561,11.636178861788618 48.22154471544715,11.178861788617885 48.88211382113821,10.619918699186991 49.49186991869919,10.111788617886178 50,9.654471544715447 50.355691056910565,9.34959349593496 50.66056910569105,9.044715447154472 50.91463414634146,8.689024390243903 51.11788617886179,8.333333333333334 51.32113821138211,7.926829268292683 51.422764227642276,7.571138211382114 51.52439024390244,7.266260162601625 51.575203252032516,6.961382113821138 51.575203252032516,6.7073170731707314 51.52439024390244,6.504065040650406 51.422764227642276,6.300813008130081 51.27032520325203,6.097560975609756 51.0670731707317,5.995934959349594 50.762195121951216,5.894308943089431 50.40650406504065,5.894308943089431 49.949186991869915,6.046747967479675 49.390243902439025,6.25 48.83130081300813,6.504065040650406 48.27235772357724,6.808943089430894 47.71341463414634,7.215447154471544 47.30691056910569,7.571138211382114 46.84959349593496,7.977642276422764 46.392276422764226,8.485772357723578 45.985772357723576,9.044715447154472 45.63008130081301,9.603658536585366 45.27439024390244,10.111788617886178 45.02032520325203,10.56910569105691 44.8170731707317,11.026422764227641 44.61382113821138,11.534552845528456 44.46138211382114,11.941056910569106 44.359756097560975,12.398373983739837 44.30894308943089,12.90650406504065 44.25813008130081,13.414634146341463 44.25813008130081,13.821138211382113 44.25813008130081,14.278455284552845 44.30894308943089,14.634146341463413 44.46138211382114,15.091463414634147 44.61382113821138,15.447154471544716 44.8170731707317,15.752032520325203 45.02032520325203,16.05691056910569 45.27439024390244,16.3109756097561 45.52845528455285,16.514227642276424" fill="none" stroke="black" stroke-width="0.6"></polyline><polyline points="45.52845528455285,16.514227642276424 45.88414634146341,16.71747967479675 46.239837398373986,16.869918699186993 46.646341463414636,16.920731707317074 47.15447154471545,16.920731707317074 47.71341463414634,16.869918699186993 48.323170731707314,16.71747967479675 48.983739837398375,16.514227642276424 49.64430894308943,16.260162601626014 50.30487804878049,15.955284552845528 51.016260162601625,15.65040650406504 51.72764227642276,15.19308943089431 52.4390243902439,14.735772357723578 53.15040650406504,14.176829268292682 53.96341463414634,13.617886178861788 54.67479674796748,13.058943089430894 55.4369918699187,12.347560975609756 56.199186991869915,11.6869918699187 56.80894308943089,11.178861788617885 57.266260162601625,10.670731707317072 57.72357723577235,10.111788617886178 58.130081300813,9.603658536585366 58.485772357723576,9.146341463414634 58.739837398373986,8.739837398373984 58.94308943089431,8.384146341463415 59.04471544715447,8.028455284552845 59.09552845528455,7.774390243902439 59.09552845528455,7.571138211382114 59.09552845528455,7.469512195121951 59.04471544715447,7.317073170731707 58.94308943089431,7.266260162601625 58.84146341463415,7.164634146341463 58.6890243902439,7.164634146341463 58.536585365853654,7.164634146341463 58.28252032520325,7.164634146341463 58.02845528455284,7.215447154471544 57.72357723577235,7.367886178861789 57.36788617886179,7.520325203252033 57.012195121951216,7.774390243902439 56.605691056910565,8.028455284552845 56.199186991869915,8.384146341463415 55.792682926829265,8.790650406504065 55.386178861788615,9.197154471544716 54.979674796747965,9.654471544715447 54.6239837398374,10.111788617886178 54.26829268292683,10.56910569105691 53.91260162601626,11.128048780487804 53.607723577235774,11.534552845528456 53.40447154471545,11.890243902439025 53.15040650406504,12.347560975609756 52.947154471544714,12.754065040650406" fill="none" stroke="black" stroke-width="0.6"></polyline><polyline points="52.947154471544714,12.754065040650406 52.74390243902439,13.262195121951219 52.540650406504064,13.71951219512195 52.4390243902439,14.07520325203252 52.33739837398374,14.48170731707317 52.28658536585366,14.888211382113822 52.28658536585366,15.19308943089431 52.28658536585366,15.548780487804878 52.33739837398374,15.853658536585366 52.540650406504064,16.10772357723577 52.79471544715447,16.36178861788618 53.201219512195124,16.565040650406505 53.65853658536585,16.666666666666668 54.21747967479675,16.666666666666668 54.92886178861789,16.615853658536587 55.792682926829265,16.3109756097561 56.80894308943089,15.955284552845528 57.8760162601626,15.548780487804878 58.84146341463415,15.142276422764228 59.75609756097561,14.786585365853659" fill="none" stroke="black" stroke-width="0.6"></polyline><polyline points="24.847560975609756,35.77235772357724 24.847560975609756,35.77235772357724 24.796747967479675,35.77235772357724 24.745934959349594,35.77235772357724 24.695121951219512,35.72154471544715 24.695121951219512,35.72154471544715 24.745934959349594,35.72154471544715 24.847560975609756,35.77235772357724 25,35.77235772357724 25.254065040650406,35.77235772357724 25.558943089430894,35.77235772357724 25.965447154471544,35.61991869918699 26.473577235772357,35.416666666666664 27.03252032520325,35.0609756097561 27.74390243902439,34.603658536585364 28.506097560975608,34.04471544715447 29.217479674796746,33.53658536585366 30.03048780487805,32.97764227642276 30.741869918699187,32.46951219512195 31.554878048780488,31.859756097560975 32.418699186991866,31.30081300813008 33.13008130081301,30.79268292682927 33.892276422764226,30.233739837398375 34.65447154471545,29.6239837398374 35.264227642276424,29.115853658536583 35.823170731707314,28.60772357723577 36.43292682926829,28.099593495934958 36.890243902439025,27.642276422764226 37.19512195121951,27.286585365853657 37.449186991869915,26.98170731707317 37.5,26.778455284552845 37.5,26.676829268292682 37.5,26.524390243902438 37.449186991869915,26.422764227642276 37.34756097560975,26.371951219512194 37.14430894308943,26.321138211382113 36.890243902439025,26.321138211382113 36.58536585365854,26.371951219512194 36.1280487804878,26.524390243902438 35.72154471544715,26.676829268292682 35.264227642276424,26.829268292682926 34.80691056910569,27.03252032520325 34.451219512195124,27.235772357723576 34.09552845528455,27.489837398373982 33.6890243902439,27.74390243902439 33.333333333333336,28.048780487804876 33.079268292682926,28.353658536585364 32.77439024390244,28.709349593495933 32.52032520325203,29.01422764227642 32.266260162601625,29.420731707317074 32.012195121951216,29.928861788617887" fill="none" stroke="black" stroke-width="0.6"></polyline><polyline points="32.012195121951216,29.928861788617887 31.758130081300813,30.38617886178862 31.554878048780488,30.945121951219512 31.351626016260163,31.453252032520325 31.148373983739837,31.961382113821138 30.995934959349594,32.418699186991866 30.84349593495935,32.8760162601626 30.79268292682927,33.23170731707317 30.741869918699187,33.53658536585366 30.741869918699187,33.790650406504064 30.741869918699187,34.04471544715447 30.79268292682927,34.2479674796748 30.89430894308943,34.40040650406504 31.046747967479675,34.552845528455286 31.25,34.603658536585364 31.554878048780488,34.65447154471545 31.808943089430894,34.65447154471545 32.16463414634146,34.65447154471545 32.46951219512195,34.65447154471545 32.82520325203252,34.65447154471545 33.13008130081301,34.65447154471545 33.4349593495935,34.65447154471545 33.6890243902439,34.65447154471545 33.892276422764226,34.65447154471545 34.04471544715447,34.70528455284553 34.197154471544714,34.70528455284553 34.298780487804876,34.75609756097561 34.451219512195124,34.75609756097561 34.552845528455286,34.75609756097561 34.70528455284553,34.70528455284553 34.90853658536585,34.65447154471545 35.11178861788618,34.552845528455286 35.416666666666664,34.40040650406504 35.77235772357724,34.197154471544714 36.1280487804878,33.94308943089431 36.58536585365854,33.6890243902439 37.09349593495935,33.38414634146341 37.65243902439024,33.02845528455285 38.262195121951216,32.57113821138211 38.82113821138211,32.0630081300813 39.43089430894309,31.554878048780488 40.040650406504064,30.945121951219512 40.65040650406504,30.38617886178862 41.260162601626014,29.776422764227643 41.81910569105691,29.115853658536583 42.22560975609756,28.65853658536585 42.58130081300813,28.20121951219512 42.886178861788615,27.74390243902439 42.98780487804878,27.4390243902439 43.140243902439025,27.184959349593495 43.140243902439025,26.98170731707317" fill="none" stroke="black" stroke-width="0.6"></polyline><polyline points="43.140243902439025,26.98170731707317 43.1910569105691,26.880081300813007 43.1910569105691,26.727642276422763 43.08943089430894,26.6260162601626 43.03861788617886,26.57520325203252 42.886178861788615,26.524390243902438 42.78455284552845,26.473577235772357 42.58130081300813,26.473577235772357 42.3780487804878,26.473577235772357 42.1239837398374,26.524390243902438 41.81910569105691,26.6260162601626 41.514227642276424,26.727642276422763 41.209349593495936,26.880081300813007 40.90447154471545,27.083333333333332 40.59959349593496,27.235772357723576 40.34552845528455,27.489837398373982 40.142276422764226,27.693089430894307 39.88821138211382,27.997967479674795 39.63414634146341,28.353658536585364 39.43089430894309,28.709349593495933 39.22764227642276,29.115853658536583 38.97357723577235,29.573170731707318 38.71951219512195,30.03048780487805 38.516260162601625,30.38617886178862 38.262195121951216,30.79268292682927 38.05894308943089,31.097560975609756 37.855691056910565,31.402439024390244 37.703252032520325,31.65650406504065 37.60162601626016,31.859756097560975 37.5,32.0630081300813 37.39837398373984,32.3170731707317 37.296747967479675,32.52032520325203 37.19512195121951,32.77439024390244 37.14430894308943,33.02845528455285 37.042682926829265,33.28252032520325 36.99186991869919,33.53658536585366 36.9410569105691,33.84146341463415 36.890243902439025,34.146341463414636 36.890243902439025,34.40040650406504 36.890243902439025,34.70528455284553 36.890243902439025,35.010162601626014 36.890243902439025,35.21341463414634 36.890243902439025,35.46747967479675 36.99186991869919,35.61991869918699 37.042682926829265,35.77235772357724 37.19512195121951,35.92479674796748 37.296747967479675,36.02642276422764 37.449186991869915,36.1280487804878 37.65243902439024,36.28048780487805 37.855691056910565,36.38211382113821 38.109756097560975,36.43292682926829" fill="none" stroke="black" stroke-width="0.6"></polyline><polyline points="38.109756097560975,36.43292682926829 38.41463414634146,36.483739837398375 38.71951219512195,36.53455284552845 39.07520325203252,36.58536585365854 39.38008130081301,36.58536585365854 39.735772357723576,36.58536585365854 40.19308943089431,36.58536585365854 40.65040650406504,36.483739837398375 41.107723577235774,36.38211382113821 41.71747967479675,36.17886178861789 42.22560975609756,35.92479674796748 42.83536585365854,35.61991869918699 43.59756097560975,35.16260162601626 44.20731707317073,34.75609756097561 44.86788617886179,34.2479674796748 45.63008130081301,33.63821138211382 46.290650406504064,33.079268292682926 47.103658536585364,32.46951219512195 47.916666666666664,31.758130081300813 48.67886178861789,31.148373983739837 49.4410569105691,30.589430894308943 50.203252032520325,29.928861788617887 50.762195121951216,29.420731707317074 51.27032520325203,28.912601626016258 51.67682926829268,28.506097560975608 51.880081300813,28.15040650406504 52.083333333333336,27.74390243902439 52.235772357723576,27.38821138211382 52.235772357723576,27.184959349593495 52.235772357723576,26.98170731707317 52.1849593495935,26.778455284552845 52.083333333333336,26.6260162601626 51.93089430894309,26.422764227642276 51.72764227642276,26.321138211382113 51.52439024390244,26.21951219512195 51.27032520325203,26.16869918699187 50.91463414634146,26.117886178861788 50.609756097560975,26.117886178861788 50.30487804878049,26.16869918699187 49.949186991869915,26.270325203252032 49.59349593495935,26.422764227642276 49.28861788617886,26.6260162601626 48.93292682926829,26.829268292682926 48.577235772357724,27.083333333333332 48.22154471544715,27.38821138211382 47.86585365853659,27.79471544715447 47.459349593495936,28.20121951219512 47.103658536585364,28.65853658536585 46.697154471544714,29.166666666666664 46.34146341463415,29.67479674796748 46.03658536585366,30.284552845528456" fill="none" stroke="black" stroke-width="0.6"></polyline><polyline points="46.03658536585366,30.284552845528456 45.73170731707317,30.89430894308943 45.52845528455285,31.402439024390244 45.325203252032516,31.910569105691057 45.22357723577235,32.418699186991866 45.172764227642276,32.8760162601626 45.12195121951219,33.28252032520325 45.12195121951219,33.6890243902439 45.22357723577235,33.99390243902439 45.3760162601626,34.34959349593496 45.579268292682926,34.70528455284553 45.88414634146341,34.959349593495936 46.290650406504064,35.16260162601626 46.7479674796748,35.3150406504065 47.20528455284553,35.46747967479675 47.8150406504065,35.51829268292683 48.42479674796748,35.56910569105691 49.08536585365854,35.56910569105691 49.796747967479675,35.51829268292683 50.50813008130081,35.46747967479675 51.168699186991866,35.36585365853659 51.77845528455284,35.264227642276424 52.38821138211382,35.11178861788618 52.9979674796748,34.959349593495936 53.65853658536585,34.70528455284553 54.26829268292683,34.40040650406504 54.92886178861789,34.04471544715447 55.640243902439025,33.63821138211382 56.25,33.333333333333336 56.859756097560975,33.079268292682926 57.418699186991866,32.8760162601626" fill="none" stroke="black" stroke-width="0.6"></polyline><polyline points="21.646341463414632,55.94512195121951 21.646341463414632,55.94512195121951 21.54471544715447,55.89430894308943 21.54471544715447,55.84349593495935 21.54471544715447,55.84349593495935 21.646341463414632,55.84349593495935 21.798780487804876,55.74186991869919 22.103658536585364,55.58943089430894 22.510162601626014,55.386178861788615 23.01829268292683,55.13211382113821 23.577235772357724,54.827235772357724 24.1869918699187,54.420731707317074 24.796747967479675,53.96341463414634 25.508130081300813,53.45528455284553 26.270325203252032,52.896341463414636 26.98170731707317,52.33739837398374 27.79471544715447,51.67682926829268 28.65853658536585,50.96544715447154 29.369918699186993,50.30487804878049 30.132113821138212,49.542682926829265 30.84349593495935,48.78048780487805 31.504065040650406,48.06910569105691 32.16463414634146,47.30691056910569 32.72357723577236,46.54471544715447 33.23170731707317,45.88414634146341 33.63821138211382,45.22357723577235 34.04471544715447,44.61382113821138 34.2479674796748,44.15650406504065 34.40040650406504,43.85162601626016 34.451219512195124,43.64837398373984 34.451219512195124,43.49593495934959 34.34959349593496,43.39430894308943 34.197154471544714,43.34349593495935 33.94308943089431,43.34349593495935 33.53658536585366,43.49593495934959 32.97764227642276,43.75 32.418699186991866,44.105691056910565 31.758130081300813,44.5630081300813 31.148373983739837,45.07113821138211 30.640243902439025,45.579268292682926 30.132113821138212,46.13821138211382 29.67479674796748,46.7479674796748 29.31910569105691,47.459349593495936 28.96341463414634,48.170731707317074 28.709349593495933,48.93292682926829 28.506097560975608,49.69512195121951 28.302845528455283,50.40650406504065 28.15040650406504,51.168699186991866 28.099593495934958,51.77845528455284 28.099593495934958,52.33739837398374 28.099593495934958,52.896341463414636" fill="none" stroke="black" stroke-width="0.6"></polyline><polyline points="28.099593495934958,52.896341463414636 28.15040650406504,53.353658536585364 28.2520325203252,53.8109756097561 28.455284552845526,54.21747967479675 28.65853658536585,54.47154471544715 28.912601626016258,54.72560975609756 29.217479674796746,54.827235772357724 29.573170731707318,54.8780487804878 30.08130081300813,54.92886178861789 30.589430894308943,54.8780487804878 31.19918699186992,54.67479674796748 31.910569105691057,54.47154471544715 32.6219512195122,54.166666666666664 33.333333333333336,53.8109756097561 34.146341463414636,53.45528455284553 34.857723577235774,53.09959349593496 35.670731707317074,52.69308943089431 36.483739837398375,52.235772357723576 37.24593495934959,51.72764227642276 38.00813008130081,51.21951219512195 38.82113821138211,50.609756097560975 39.48170731707317,50.05081300813008 40.040650406504064,49.49186991869919 40.65040650406504,48.83130081300813 41.107723577235774,48.170731707317074 41.666666666666664,47.357723577235774 42.17479674796748,46.44308943089431 42.58130081300813,45.63008130081301 42.98780487804878,44.71544715447154 43.34349593495935,43.85162601626016 43.546747967479675,43.140243902439025 43.64837398373984,42.53048780487805 43.64837398373984,42.1239837398374 43.64837398373984,41.920731707317074 43.546747967479675,41.71747967479675 43.44512195121951,41.5650406504065 43.34349593495935,41.41260162601626 43.1910569105691,41.3109756097561 43.03861788617886,41.209349593495936 42.83536585365854,41.15853658536585 42.63211382113821,41.107723577235774 42.327235772357724,41.107723577235774 41.97154471544715,41.209349593495936 41.5650406504065,41.41260162601626 41.107723577235774,41.666666666666664 40.65040650406504,42.02235772357724 40.142276422764226,42.42886178861789 39.63414634146341,42.886178861788615 39.176829268292686,43.39430894308943 38.71951219512195,43.90243902439024 38.3130081300813,44.46138211382114" fill="none" stroke="black" stroke-width="0.6"></polyline><polyline points="38.3130081300813,44.46138211382114 38.00813008130081,44.96951219512195 37.65243902439024,45.63008130081301 37.34756097560975,46.290650406504064 37.14430894308943,46.951219512195124 36.9410569105691,47.66260162601626 36.78861788617886,48.42479674796748 36.6869918699187,49.136178861788615 36.58536585365854,49.796747967479675 36.53455284552845,50.40650406504065 36.43292682926829,50.91463414634146 36.38211382113821,51.37195121951219 36.33130081300813,51.93089430894309 36.28048780487805,52.38821138211382 36.229674796747965,52.79471544715447 36.229674796747965,53.201219512195124 36.229674796747965,53.55691056910569 36.229674796747965,53.91260162601626 36.229674796747965,54.31910569105691 36.33130081300813,54.6239837398374 36.43292682926829,54.92886178861789 36.58536585365854,55.233739837398375 36.73780487804878,55.4369918699187 36.99186991869919,55.640243902439025 37.19512195121951,55.84349593495935 37.5,55.99593495934959 37.90650406504065,56.14837398373984 38.3130081300813,56.25 38.71951219512195,56.30081300813008 39.22764227642276,56.30081300813008 39.735772357723576,56.14837398373984 40.29471544715447,55.94512195121951 40.95528455284553,55.58943089430894 41.5650406504065,55.28455284552845 42.17479674796748,54.8780487804878 42.886178861788615,54.420731707317074 43.546747967479675,53.91260162601626 44.20731707317073,53.302845528455286 45.02032520325203,52.642276422764226 45.68089430894309,51.981707317073166 46.392276422764226,51.21951219512195 47.103658536585364,50.45731707317073 47.71341463414634,49.796747967479675 48.323170731707314,49.03455284552845 48.93292682926829,48.27235772357724 49.49186991869919,47.5609756097561 50,46.798780487804876 50.45731707317073,46.03658536585366 50.91463414634146,45.325203252032516 51.21951219512195,44.71544715447154 51.32113821138211,44.30894308943089" fill="none" stroke="black" stroke-width="0.6"></polyline><polyline points="51.32113821138211,44.30894308943089 51.32113821138211,44.0040650406504 51.27032520325203,43.75 51.168699186991866,43.546747967479675 50.96544715447154,43.39430894308943 50.762195121951216,43.34349593495935 50.355691056910565,43.34349593495935 49.89837398373984,43.39430894308943 49.390243902439025,43.59756097560975 48.78048780487805,43.90243902439024 48.170731707317074,44.20731707317073 47.66260162601626,44.512195121951216 47.15447154471545,44.8170731707317 46.798780487804876,45.172764227642276 46.44308943089431,45.52845528455285 46.13821138211382,45.88414634146341 45.9349593495935,46.290650406504064 45.73170731707317,46.697154471544714 45.52845528455285,47.20528455284553 45.3760162601626,47.71341463414634 45.22357723577235,48.27235772357724 45.07113821138211,48.83130081300813 44.918699186991866,49.390243902439025 44.8170731707317,49.949186991869915 44.66463414634146,50.609756097560975 44.61382113821138,51.168699186991866 44.5630081300813,51.72764227642276 44.512195121951216,52.28658536585366 44.512195121951216,52.74390243902439 44.5630081300813,53.15040650406504 44.66463414634146,53.55691056910569 44.766260162601625,53.86178861788618 44.918699186991866,54.11585365853659 45.12195121951219,54.420731707317074 45.325203252032516,54.6239837398374 45.52845528455285,54.77642276422764 45.833333333333336,54.92886178861789 46.13821138211382,55.03048780487805 46.49390243902439,55.13211382113821 46.90040650406504,55.233739837398375 47.357723577235774,55.28455284552845 47.8150406504065,55.33536585365854 48.3739837398374,55.386178861788615 48.93292682926829,55.4369918699187 49.59349593495935,55.4369918699187 50.203252032520325,55.4369918699187 50.91463414634146,55.28455284552845 51.77845528455284,55.13211382113821 52.540650406504064,54.8780487804878 53.353658536585364,54.573170731707314 54.26829268292683,54.11585365853659" fill="none" stroke="black" stroke-width="0.6"></polyline><polyline points="54.26829268292683,54.11585365853659 55.03048780487805,53.709349593495936 55.74186991869919,53.302845528455286 56.5040650406504,52.79471544715447 57.21544715447154,52.28658536585366 57.97764227642276,51.67682926829268 58.739837398373986,51.168699186991866 59.2479674796748,50.86382113821138 59.451219512195124,50.762195121951216" fill="none" stroke="black" stroke-width="0.6"></polyline><polyline points="24.339430894308943,75.15243902439025 24.288617886178862,75.15243902439025 24.23780487804878,75.15243902439025 24.1869918699187,75.15243902439025 24.13617886178862,75.15243902439025 24.13617886178862,75.15243902439025 24.13617886178862,75.15243902439025 24.13617886178862,75.15243902439025 24.13617886178862,75.15243902439025 24.13617886178862,75.15243902439025 24.23780487804878,75.15243902439025 24.390243902439025,75.15243902439025 24.695121951219512,75.05081300813008 25.05081300813008,74.84756097560975 25.558943089430894,74.49186991869918 26.21951219512195,73.8821138211382 27.03252032520325,73.0691056910569 27.79471544715447,72.20528455284553 28.506097560975608,71.23983739837398 29.115853658536583,70.32520325203252 29.725609756097562,69.41056910569105 30.284552845528456,68.39430894308943 30.84349593495935,67.3780487804878 31.30081300813008,66.36178861788618 31.70731707317073,65.39634146341463 31.961382113821138,64.58333333333333 32.16463414634146,63.97357723577235 32.21544715447154,63.46544715447154 32.21544715447154,63.05894308943089 32.21544715447154,62.80487804878049 32.0630081300813,62.65243902439024 31.910569105691057,62.60162601626016 31.70731707317073,62.60162601626016 31.402439024390244,62.703252032520325 30.995934959349594,62.95731707317073 30.589430894308943,63.36382113821138 30.08130081300813,63.77032520325203 29.6239837398374,64.1260162601626 29.166666666666664,64.48170731707317 28.709349593495933,64.9390243902439 28.302845528455283,65.29471544715447 27.947154471544714,65.65040650406505 27.540650406504064,66.10772357723577 27.235772357723576,66.51422764227642 26.98170731707317,66.869918699187 26.727642276422763,67.27642276422765 26.524390243902438,67.6829268292683 26.422764227642276,68.03861788617886 26.321138211382113,68.4451219512195 26.321138211382113,68.85162601626016 26.270325203252032,69.41056910569105" fill="none" stroke="black" stroke-width="0.6"></polyline><polyline points="26.270325203252032,69.41056910569105 26.270325203252032,70.02032520325203 26.270325203252032,70.630081300813 26.371951219512194,71.29065040650406 26.473577235772357,72.05284552845528 26.6260162601626,72.61178861788618 26.778455284552845,73.01829268292683 26.98170731707317,73.42479674796748 27.184959349593495,73.72967479674797 27.38821138211382,73.98373983739837 27.642276422764226,74.23780487804878 27.896341463414632,74.33943089430895 28.20121951219512,74.4410569105691 28.455284552845526,74.54268292682927 28.709349593495933,74.59349593495935 28.96341463414634,74.64430894308943 29.268292682926827,74.6951219512195 29.522357723577237,74.7459349593496 29.827235772357724,74.7459349593496 30.132113821138212,74.7459349593496 30.4369918699187,74.7459349593496 30.741869918699187,74.7459349593496 31.097560975609756,74.6951219512195 31.504065040650406,74.59349593495935 31.859756097560975,74.49186991869918 32.266260162601625,74.33943089430895 32.672764227642276,74.1869918699187 33.079268292682926,73.9329268292683 33.4349593495935,73.67886178861788 33.790650406504064,73.47560975609755 34.04471544715447,73.27235772357723 34.298780487804876,73.119918699187 34.552845528455286,72.91666666666667 34.75609756097561,72.71341463414635 35.010162601626014,72.45934959349593 35.264227642276424,72.15447154471545 35.56910569105691,71.79878048780488 35.92479674796748,71.34146341463415 36.33130081300813,70.78252032520325 36.83943089430894,70.1219512195122 37.39837398373984,69.41056910569105 37.90650406504065,68.64837398373983 38.46544715447154,67.83536585365853 38.97357723577235,67.1239837398374 39.329268292682926,66.51422764227642 39.53252032520325,66.0060975609756 39.63414634146341,65.65040650406505 39.735772357723576,65.29471544715447 39.735772357723576,64.98983739837398 39.735772357723576,64.73577235772358 39.63414634146341,64.48170731707317" fill="none" stroke="black" stroke-width="0.6"></polyline><polyline points="39.63414634146341,64.48170731707317 39.48170731707317,64.27845528455285 39.27845528455285,64.07520325203252 39.02439024390244,63.97357723577235 38.71951219512195,63.922764227642276 38.36382113821138,63.922764227642276 38.00813008130081,63.922764227642276 37.60162601626016,63.97357723577235 37.24593495934959,64.1260162601626 36.890243902439025,64.380081300813 36.53455284552845,64.6849593495935 36.229674796747965,65.04065040650406 35.92479674796748,65.39634146341463 35.670731707317074,65.80284552845528 35.416666666666664,66.15853658536585 35.21341463414634,66.51422764227642 34.959349593495936,66.97154471544715 34.75609756097561,67.42886178861788 34.552845528455286,67.9369918699187 34.298780487804876,68.54674796747967 34.09552845528455,69.10569105691057 33.84146341463415,69.8170731707317 33.58739837398374,70.52845528455285 33.333333333333336,71.1890243902439 33.13008130081301,71.84959349593495 32.97764227642276,72.45934959349593 32.926829268292686,72.91666666666667 32.8760162601626,73.32317073170732 32.8760162601626,73.67886178861788 32.8760162601626,73.98373983739837 32.926829268292686,74.28861788617886 33.02845528455285,74.54268292682927 33.13008130081301,74.79674796747967 33.23170731707317,75 33.38414634146341,75.15243902439025 33.53658536585366,75.30487804878048 33.6890243902439,75.5081300813008 33.892276422764226,75.66056910569105 34.09552845528455,75.8130081300813 34.34959349593496,75.96544715447155 34.603658536585364,76.11788617886178 34.857723577235774,76.21951219512195 35.21341463414634,76.3211382113821 35.56910569105691,76.42276422764228 35.97560975609756,76.42276422764228 36.43292682926829,76.42276422764228 36.9410569105691,76.3719512195122 37.5,76.27032520325203 38.05894308943089,76.11788617886178 38.61788617886179,75.91463414634146 39.22764227642276,75.71138211382113" fill="none" stroke="black" stroke-width="0.6"></polyline><polyline points="39.22764227642276,75.71138211382113 39.83739837398374,75.40650406504065 40.548780487804876,75.05081300813008 41.260162601626014,74.6951219512195 42.02235772357724,74.23780487804878 42.78455284552845,73.72967479674797 43.49593495934959,73.17073170731707 44.25813008130081,72.5609756097561 45.02032520325203,71.84959349593495 45.833333333333336,71.08739837398373 46.646341463414636,70.22357723577235 47.40853658536585,69.3089430894309 48.170731707317074,68.34349593495935 48.88211382113821,67.3780487804878 49.59349593495935,66.46341463414635 50.203252032520325,65.59959349593495 50.71138211382114,64.78658536585365 51.21951219512195,64.02439024390243 51.47357723577235,63.5670731707317 51.575203252032516,63.262195121951216 51.575203252032516,63.05894308943089 51.52439024390244,62.95731707317073 51.422764227642276,62.855691056910565 51.21951219512195,62.80487804878049 50.96544715447154,62.7540650406504 50.50813008130081,62.80487804878049 50,62.90650406504065 49.33943089430894,63.16056910569105 48.577235772357724,63.516260162601625 47.916666666666664,63.77032520325203 47.25609756097561,64.02439024390243 46.54471544715447,64.32926829268293 45.9349593495935,64.6849593495935 45.325203252032516,65.04065040650406 44.71544715447154,65.4979674796748 44.20731707317073,65.90447154471545 43.75,66.36178861788618 43.292682926829265,66.76829268292683 42.9369918699187,67.17479674796748 42.63211382113821,67.53048780487805 42.327235772357724,67.98780487804878 42.073170731707314,68.39430894308943 41.86991869918699,68.85162601626016 41.71747967479675,69.41056910569105 41.5650406504065,69.91869918699187 41.46341463414634,70.52845528455285 41.41260162601626,71.13821138211382 41.36178861788618,71.69715447154472 41.36178861788618,72.20528455284553 41.36178861788618,72.66260162601625 41.41260162601626,73.01829268292683" fill="none" stroke="black" stroke-width="0.6"></polyline><polyline points="41.41260162601626,73.01829268292683 41.514227642276424,73.32317073170732 41.666666666666664,73.67886178861788 41.86991869918699,73.98373983739837 42.073170731707314,74.28861788617886 42.327235772357724,74.64430894308943 42.63211382113821,74.94918699186992 42.9369918699187,75.2540650406504 43.292682926829265,75.5589430894309 43.699186991869915,75.8130081300813 44.105691056910565,76.11788617886178 44.61382113821138,76.3211382113821 45.172764227642276,76.52439024390243 45.833333333333336,76.6260162601626 46.54471544715447,76.6260162601626 47.40853658536585,76.47357723577235 48.3739837398374,76.16869918699187 49.49186991869919,75.66056910569105 50.66056910569105,75 52.03252032520325,74.13617886178862 53.45528455284553,73.27235772357723 54.72560975609756,72.51016260162602 55.89430894308943,71.84959349593495 57.012195121951216,71.1890243902439 57.92682926829268,70.73170731707317 58.63821138211382,70.47764227642276 58.892276422764226,70.42682926829268" fill="none" stroke="black" stroke-width="0.6"></polyline><polyline points="26.727642276422763,94.91869918699187 26.6260162601626,94.91869918699187 26.524390243902438,94.86788617886178 26.422764227642276,94.8170731707317 26.371951219512194,94.8170731707317 26.371951219512194,94.8170731707317 26.422764227642276,94.76626016260163 26.57520325203252,94.66463414634146 26.829268292682926,94.46138211382113 27.184959349593495,94.20731707317073 27.591463414634145,93.85162601626016 28.099593495934958,93.39430894308943 28.760162601626014,92.78455284552845 29.420731707317074,92.07317073170732 30.08130081300813,91.20934959349593 30.691056910569106,90.24390243902438 31.19918699186992,89.27845528455285 31.758130081300813,88.26219512195122 32.21544715447154,87.1951219512195 32.6219512195122,86.1280487804878 33.02845528455285,85.01016260162602 33.28252032520325,84.09552845528455 33.38414634146341,83.3841463414634 33.38414634146341,82.8760162601626 33.28252032520325,82.5711382113821 33.079268292682926,82.36788617886178 32.82520325203252,82.21544715447155 32.52032520325203,82.21544715447155 32.11382113821138,82.26626016260163 31.554878048780488,82.5711382113821 30.945121951219512,83.02845528455285 30.335365853658537,83.58739837398373 29.6239837398374,84.34959349593495 29.01422764227642,85.11178861788618 28.455284552845526,85.92479674796748 27.84552845528455,86.78861788617886 27.33739837398374,87.5 26.93089430894309,88.16056910569105 26.524390243902438,88.8719512195122 26.270325203252032,89.48170731707317 26.067073170731707,90.09146341463415 25.914634146341463,90.7520325203252 25.86382113821138,91.36178861788618 25.8130081300813,92.07317073170732 25.86382113821138,92.6829268292683 26.016260162601625,93.14024390243902 26.270325203252032,93.64837398373983 26.6260162601626,94.15650406504065 27.03252032520325,94.51219512195122 27.540650406504064,94.76626016260163 28.099593495934958,95.02032520325203" fill="none" stroke="black" stroke-width="0.6"></polyline><polyline points="28.099593495934958,95.02032520325203 28.60772357723577,95.1219512195122 29.115853658536583,95.22357723577235 29.725609756097562,95.27439024390243 30.335365853658537,95.27439024390243 30.89430894308943,95.1219512195122 31.554878048780488,94.86788617886178 32.21544715447154,94.51219512195122 32.926829268292686,94.10569105691057 33.6890243902439,93.59756097560975 34.451219512195124,93.08943089430895 35.21341463414634,92.58130081300813 35.97560975609756,91.97154471544715 36.78861788617886,91.41260162601625 37.5,90.85365853658536 38.262195121951216,90.29471544715447 38.87195121951219,89.78658536585365 39.53252032520325,89.22764227642276 40.09146341463415,88.66869918699187 40.59959349593496,88.0589430894309 41.15853658536585,87.44918699186992 41.61585365853659,86.78861788617886 42.02235772357724,86.07723577235772 42.3780487804878,85.36585365853658 42.68292682926829,84.5020325203252 42.98780487804878,83.58739837398373 43.1910569105691,82.72357723577235 43.292682926829265,81.96138211382113 43.34349593495935,81.30081300813008 43.24186991869919,80.84349593495935 43.08943089430894,80.53861788617886 42.886178861788615,80.4369918699187 42.58130081300813,80.33536585365853 42.27642276422764,80.33536585365853 40.7520325203252,81.25 38.109756097560975,84.04471544715447 37.55081300813008,84.90853658536585 37.09349593495935,85.77235772357723 36.636178861788615,86.6869918699187 36.17886178861789,87.65243902439025 35.8739837398374,88.41463414634146 35.56910569105691,89.1260162601626 35.264227642276424,89.88821138211382 35.010162601626014,90.59959349593495 34.70528455284553,91.46341463414635 34.5020325203252,92.27642276422765 34.34959349593496,92.98780487804878 34.298780487804876,93.54674796747967 34.298780487804876,94.05487804878048 34.451219512195124,94.41056910569105 34.65447154471545,94.71544715447155" fill="none" stroke="black" stroke-width="0.6"></polyline><polyline points="34.65447154471545,94.71544715447155 35.010162601626014,95.02032520325203 35.3150406504065,95.22357723577235 35.72154471544715,95.32520325203252 36.229674796747965,95.42682926829268 36.6869918699187,95.42682926829268 37.19512195121951,95.42682926829268 37.7540650406504,95.42682926829268 38.3130081300813,95.3760162601626 38.87195121951219,95.32520325203252 39.48170731707317,95.22357723577235 40.040650406504064,95.17276422764228 40.65040650406504,95.1219512195122 41.3109756097561,95.0711382113821 41.920731707317074,95.02032520325203 42.63211382113821,94.91869918699187 43.39430894308943,94.66463414634146 44.105691056910565,94.2581300813008 44.8170731707317,93.69918699186992 45.63008130081301,92.88617886178862 46.392276422764226,91.97154471544715 47.15447154471545,90.90447154471545 47.96747967479675,89.6849593495935 48.67886178861789,88.61788617886178 49.28861788617886,87.5 49.84756097560975,86.48373983739837 50.30487804878049,85.5691056910569 50.66056910569105,84.7560975609756 50.86382113821138,84.04471544715447 51.016260162601625,83.53658536585365 51.11788617886179,83.07926829268293 51.11788617886179,82.77439024390243 51.11788617886179,82.52032520325203 51.0670731707317,82.36788617886178 50.96544715447154,82.3170731707317 50.86382113821138,82.21544715447155 50.762195121951216,82.21544715447155 50.55894308943089,82.21544715447155 50.355691056910565,82.26626016260163 50.05081300813008,82.41869918699187 49.64430894308943,82.72357723577235 49.1869918699187,83.07926829268293 48.67886178861789,83.48577235772358 48.06910569105691,83.99390243902438 47.510162601626014,84.55284552845528 46.90040650406504,85.21341463414635 46.239837398373986,85.92479674796748 45.68089430894309,86.63617886178862 45.172764227642276,87.34756097560975 44.71544715447154,88.0589430894309 44.41056910569105,88.61788617886178" fill="none" stroke="black" stroke-width="0.6"></polyline><polyline points="44.41056910569105,88.61788617886178 44.20731707317073,89.1260162601626 44.05487804878049,89.6341463414634 44.05487804878049,90.09146341463415 44.05487804878049,90.59959349593495 44.05487804878049,91.10772357723577 44.15650406504065,91.66666666666667 44.359756097560975,92.22560975609755 44.5630081300813,92.6829268292683 44.8170731707317,93.14024390243902 45.07113821138211,93.64837398373983 45.3760162601626,94.05487804878048 45.63008130081301,94.46138211382113 45.9349593495935,94.86788617886178 46.239837398373986,95.27439024390243 46.54471544715447,95.68089430894308 46.951219512195124,96.03658536585365 47.40853658536585,96.29065040650406 47.96747967479675,96.49390243902438 48.67886178861789,96.64634146341463 49.49186991869919,96.64634146341463 50.50813008130081,96.34146341463415 51.77845528455284,95.83333333333333 53.15040650406504,95.1219512195122 54.72560975609756,94.2581300813008 56.35162601626016,93.4451219512195 57.77439024390244,92.83536585365853 59.09552845528455,92.22560975609755 60.36585365853659,91.71747967479675 61.483739837398375,91.26016260162602 62.5,90.7520325203252 63.516260162601625,90.1930894308943 64.32926829268293,89.6341463414634" fill="none" stroke="black" stroke-width="0.6"></polyline></svg>