<svg height="100" width="100" preserveAspectRatio="xMidYMid meet"><polyline points="49.796747967479675,50 49.796747967479675,50 49.796747967479675,50 49.796747967479675,50 49.796747967479675,49.949186991869915 49.796747967479675,49.949186991869915 49.84756097560975,49.949186991869915 49.84756097560975,49.949186991869915 49.84756097560975,49.89837398373984 49.84756097560975,49.89837398373984 49.84756097560975,49.89837398373984 49.84756097560975,49.89837398373984 49.84756097560975,49.84756097560975 49.84756097560975,49.84756097560975 49.84756097560975,49.84756097560975 49.89837398373984,49.84756097560975 49.89837398373984,49.84756097560975 49.89837398373984,49.84756097560975 49.89837398373984,49.84756097560975 49.89837398373984,49.84756097560975 49.89837398373984,49.84756097560975 49.89837398373984,49.84756097560975 49.89837398373984,49.84756097560975 49.89837398373984,49.84756097560975 49.89837398373984,49.84756097560975 49.89837398373984,49.84756097560975 49.89837398373984,49.84756097560975 49.89837398373984,49.84756097560975 49.89837398373984,49.84756097560975 49.89837398373984,49.84756097560975 49.89837398373984,49.84756097560975 49.89837398373984,49.84756097560975 49.89837398373984,49.84756097560975 49.89837398373984,49.84756097560975 49.89837398373984,49.84756097560975 49.89837398373984,49.84756097560975 49.89837398373984,49.84756097560975 49.89837398373984,49.84756097560975 49.89837398373984,49.84756097560975 49.89837398373984,49.84756097560975 49.89837398373984,49.84756097560975 49.89837398373984,49.84756097560975 49.89837398373984,49.84756097560975 49.89837398373984,49.84756097560975 49.89837398373984,49.84756097560975 49.89837398373984,49.84756097560975 49.89837398373984,49.84756097560975 49.89837398373984,49.84756097560975 49.89837398373984,49.84756097560975 49.89837398373984,49.84756097560975 49.89837398373984,49.84756097560975" fill="none" stroke="black" stroke-width="0.6"></polyline><polyline points="49.89837398373984,49.84756097560975 49.84756097560975,49.84756097560975 49.84756097560975,49.84756097560975 49.84756097560975,49.84756097560975 49.84756097560975,49.84756097560975 49.84756097560975,49.84756097560975 49.84756097560975,49.84756097560975 49.84756097560975,49.84756097560975 49.84756097560975,49.84756097560975 49.84756097560975,49.84756097560975 49.84756097560975,49.84756097560975 49.84756097560975,49.84756097560975 49.84756097560975,49.796747967479675 49.84756097560975,49.796747967479675 49.84756097560975,49.796747967479675 49.84756097560975,49.796747967479675 49.84756097560975,49.796747967479675 49.84756097560975,49.796747967479675 49.84756097560975,49.796747967479675 49.84756097560975,49.796747967479675 49.84756097560975,49.796747967479675 49.84756097560975,49.796747967479675 49.84756097560975,49.796747967479675 49.84756097560975,49.796747967479675 49.84756097560975,49.796747967479675 49.84756097560975,49.796747967479675 49.84756097560975,49.796747967479675 49.84756097560975,49.796747967479675 49.84756097560975,49.796747967479675 49.84756097560975,49.796747967479675 49.84756097560975,49.796747967479675 49.84756097560975,49.796747967479675 49.84756097560975,49.796747967479675 49.84756097560975,49.796747967479675 49.84756097560975,49.796747967479675 49.84756097560975,49.796747967479675 49.84756097560975,49.796747967479675 49.84756097560975,49.796747967479675 49.84756097560975,49.796747967479675 49.84756097560975,49.796747967479675 49.84756097560975,49.796747967479675 49.84756097560975,49.796747967479675 49.84756097560975,49.796747967479675 49.84756097560975,49.796747967479675 49.84756097560975,49.796747967479675 49.84756097560975,49.796747967479675 49.84756097560975,49.796747967479675 49.84756097560975,49.796747967479675 49.84756097560975,49.796747967479675 49.84756097560975,49.796747967479675 49.84756097560975,49.796747967479675" fill="none" stroke="black" stroke-width="0.6"></polyline><polyline points="49.84756097560975,49.796747967479675 49.84756097560975,49.796747967479675 49.84756097560975,49.796747967479675 49.84756097560975,49.796747967479675 49.84756097560975,49.796747967479675 49.84756097560975,49.796747967479675 49.84756097560975,49.796747967479675 49.84756097560975,49.796747967479675 49.84756097560975,49.796747967479675 49.84756097560975,49.796747967479675 49.84756097560975,49.796747967479675 49.84756097560975,49.796747967479675 49.84756097560975,49.796747967479675 49.84756097560975,49.796747967479675 49.84756097560975,49.796747967479675 49.84756097560975,49.796747967479675 49.84756097560975,49.796747967479675 49.84756097560975,49.796747967479675 49.84756097560975,49.796747967479675 49.84756097560975,49.796747967479675 49.84756097560975,49.796747967479675 49.84756097560975,49.796747967479675 49.84756097560975,49.796747967479675 49.84756097560975,49.796747967479675 49.84756097560975,49.796747967479675 49.84756097560975,49.796747967479675 49.84756097560975,49.796747967479675 49.84756097560975,49.796747967479675 49.84756097560975,49.796747967479675 49.84756097560975,49.796747967479675 49.84756097560975,49.796747967479675 49.84756097560975,49.796747967479675 49.84756097560975,49.796747967479675 49.84756097560975,49.796747967479675 49.84756097560975,49.796747967479675 49.84756097560975,49.796747967479675 49.84756097560975,49.796747967479675 49.84756097560975,49.796747967479675 49.84756097560975,49.796747967479675 49.84756097560975,49.796747967479675 49.84756097560975,49.796747967479675 49.84756097560975,49.796747967479675 49.84756097560975,49.796747967479675 49.84756097560975,49.796747967479675 49.84756097560975,49.796747967479675 49.84756097560975,49.796747967479675 49.84756097560975,49.796747967479675 49.84756097560975,49.796747967479675 49.84756097560975,49.796747967479675 49.84756097560975,49.796747967479675 49.84756097560975,49.796747967479675" fill="none" stroke="black" stroke-width="0.6"></polyline><polyline points="49.84756097560975,49.796747967479675 49.84756097560975,49.796747967479675 49.84756097560975,49.796747967479675 49.84756097560975,49.796747967479675 49.84756097560975,49.796747967479675 49.84756097560975,49.796747967479675 49.84756097560975,49.796747967479675 49.84756097560975,49.796747967479675 49.84756097560975,49.796747967479675 49.84756097560975,49.796747967479675 49.84756097560975,49.796747967479675 49.84756097560975,49.796747967479675 49.84756097560975,49.796747967479675 49.84756097560975,49.796747967479675 49.84756097560975,49.796747967479675 49.84756097560975,49.796747967479675 49.84756097560975,49.796747967479675 49.84756097560975,49.796747967479675 49.84756097560975,49.796747967479675 49.84756097560975,49.796747967479675 49.84756097560975,49.796747967479675 49.84756097560975,49.796747967479675 49.84756097560975,49.796747967479675 49.84756097560975,49.796747967479675 49.84756097560975,49.796747967479675 49.84756097560975,49.796747967479675 49.84756097560975,49.796747967479675 49.84756097560975,49.796747967479675 49.84756097560975,49.796747967479675 49.84756097560975,49.796747967479675 49.84756097560975,49.796747967479675 49.84756097560975,49.796747967479675 49.84756097560975,49.796747967479675 49.84756097560975,49.796747967479675 49.84756097560975,49.796747967479675 49.84756097560975,49.796747967479675 49.84756097560975,49.796747967479675 49.84756097560975,49.796747967479675 49.84756097560975,49.796747967479675 49.84756097560975,49.796747967479675 49.84756097560975,49.796747967479675 49.84756097560975,49.796747967479675 49.84756097560975,49.796747967479675 49.84756097560975,49.796747967479675 49.84756097560975,49.796747967479675 49.84756097560975,49.796747967479675 49.84756097560975,49.796747967479675 49.84756097560975,49.796747967479675 49.84756097560975,49.796747967479675 49.84756097560975,49.796747967479675 49.84756097560975,49.796747967479675" fill="none" stroke="black" stroke-width="0.6"></polyline><polyline points="49.84756097560975,49.796747967479675 49.84756097560975,49.796747967479675 49.84756097560975,49.796747967479675 49.84756097560975,49.796747967479675 49.84756097560975,49.796747967479675 49.84756097560975,49.796747967479675 49.84756097560975,49.796747967479675 49.84756097560975,49.796747967479675 49.84756097560975,49.796747967479675 49.84756097560975,49.796747967479675 49.84756097560975,49.796747967479675 49.84756097560975,49.796747967479675 49.84756097560975,49.796747967479675 49.84756097560975,49.796747967479675 49.84756097560975,49.796747967479675 49.84756097560975,49.796747967479675 49.84756097560975,49.796747967479675 49.84756097560975,49.796747967479675 49.84756097560975,49.796747967479675 49.84756097560975,49.796747967479675 49.84756097560975,49.796747967479675 49.84756097560975,49.796747967479675 49.84756097560975,49.796747967479675 49.84756097560975,49.796747967479675 49.84756097560975,49.796747967479675 49.84756097560975,49.796747967479675 49.84756097560975,49.796747967479675 49.84756097560975,49.796747967479675 49.84756097560975,49.796747967479675 49.84756097560975,49.796747967479675 49.84756097560975,49.796747967479675 49.84756097560975,49.796747967479675 49.84756097560975,49.796747967479675 49.84756097560975,49.796747967479675 49.84756097560975,49.796747967479675 49.84756097560975,49.796747967479675 49.84756097560975,49.796747967479675 49.84756097560975,49.796747967479675 49.84756097560975,49.796747967479675 49.84756097560975,49.796747967479675 49.84756097560975,49.796747967479675 49.84756097560975,49.796747967479675 49.84756097560975,49.796747967479675 49.84756097560975,49.796747967479675 49.84756097560975,49.796747967479675 49.84756097560975,49.796747967479675 49.84756097560975,49.796747967479675 49.84756097560975,49.796747967479675 49.84756097560975,49.796747967479675 49.84756097560975,49.796747967479675 49.84756097560975,49.796747967479675" fill="none" stroke="black" stroke-width="0.6"></polyline><polyline points="49.84756097560975,49.796747967479675 49.84756097560975,49.796747967479675 49.84756097560975,49.796747967479675 49.84756097560975,49.796747967479675 49.84756097560975,49.796747967479675 49.84756097560975,49.796747967479675 49.84756097560975,49.796747967479675 49.84756097560975,49.796747967479675 49.84756097560975,49.796747967479675 49.84756097560975,49.796747967479675 49.84756097560975,49.796747967479675 49.84756097560975,49.796747967479675 49.84756097560975,49.796747967479675 49.84756097560975,49.796747967479675 49.84756097560975,49.796747967479675 49.84756097560975,49.796747967479675 49.84756097560975,49.796747967479675 49.84756097560975,49.796747967479675 49.84756097560975,49.796747967479675 49.84756097560975,49.796747967479675 49.84756097560975,49.796747967479675 49.84756097560975,49.796747967479675 49.84756097560975,49.796747967479675 49.84756097560975,49.796747967479675 49.84756097560975,49.796747967479675 49.84756097560975,49.796747967479675 49.84756097560975,49.796747967479675 49.84756097560975,49.796747967479675 49.84756097560975,49.796747967479675 49.84756097560975,49.796747967479675 49.84756097560975,49.796747967479675 49.84756097560975,49.796747967479675 49.84756097560975,49.796747967479675 49.84756097560975,49.796747967479675 49.84756097560975,49.796747967479675 49.84756097560975,49.796747967479675 49.84756097560975,49.796747967479675 49.84756097560975,49.796747967479675 49.84756097560975,49.796747967479675 49.84756097560975,49.796747967479675 49.84756097560975,49.796747967479675 49.84756097560975,49.796747967479675 49.84756097560975,49.796747967479675 49.84756097560975,49.796747967479675 49.84756097560975,49.796747967479675 49.84756097560975,49.796747967479675 49.84756097560975,49.796747967479675 49.84756097560975,49.796747967479675 49.84756097560975,49.796747967479675 49.84756097560975,49.796747967479675 49.84756097560975,49.796747967479675" fill="none" stroke="black" stroke-width="0.6"></polyline><polyline points="49.84756097560975,49.796747967479675 49.84756097560975,49.796747967479675 49.84756097560975,49.796747967479675 49.84756097560975,49.796747967479675 49.84756097560975,49.796747967479675 49.84756097560975,49.796747967479675 49.84756097560975,49.796747967479675 49.84756097560975,49.796747967479675 49.84756097560975,49.796747967479675 49.84756097560975,49.796747967479675 49.84756097560975,49.796747967479675 49.84756097560975,49.796747967479675 49.84756097560975,49.796747967479675 49.84756097560975,49.796747967479675 49.84756097560975,49.796747967479675 49.84756097560975,49.796747967479675 49.84756097560975,49.796747967479675 49.84756097560975,49.796747967479675 49.84756097560975,49.796747967479675 49.84756097560975,49.796747967479675 49.84756097560975,49.796747967479675 49.84756097560975,49.796747967479675 49.84756097560975,49.796747967479675 49.84756097560975,49.796747967479675 49.84756097560975,49.796747967479675 49.84756097560975,49.796747967479675 49.84756097560975,49.796747967479675 49.84756097560975,49.796747967479675 49.84756097560975,49.796747967479675 49.84756097560975,49.796747967479675 49.84756097560975,49.796747967479675 49.84756097560975,49.796747967479675 49.84756097560975,49.796747967479675 49.84756097560975,49.796747967479675 49.84756097560975,49.796747967479675 49.84756097560975,49.796747967479675 49.84756097560975,49.796747967479675 49.84756097560975,49.796747967479675 49.84756097560975,49.796747967479675 49.84756097560975,49.796747967479675 49.84756097560975,49.796747967479675 49.84756097560975,49.796747967479675 49.84756097560975,49.796747967479675 49.84756097560975,49.796747967479675 49.84756097560975,49.796747967479675 49.84756097560975,49.796747967479675 49.84756097560975,49.796747967479675 49.84756097560975,49.796747967479675 49.84756097560975,49.796747967479675 49.84756097560975,49.796747967479675 49.84756097560975,49.796747967479675" fill="none" stroke="black" stroke-width="0.6"></polyline><polyline points="49.84756097560975,49.796747967479675 49.84756097560975,49.796747967479675 49.84756097560975,49.796747967479675 49.84756097560975,49.796747967479675 49.84756097560975,49.796747967479675 49.84756097560975,49.796747967479675 49.84756097560975,49.796747967479675 49.84756097560975,49.796747967479675 49.84756097560975,49.796747967479675 49.84756097560975,49.796747967479675 49.84756097560975,49.796747967479675 49.84756097560975,49.796747967479675 49.84756097560975,49.796747967479675 49.84756097560975,49.796747967479675 49.84756097560975,49.796747967479675 49.84756097560975,49.796747967479675 49.84756097560975,49.796747967479675 49.84756097560975,49.796747967479675 49.84756097560975,49.796747967479675 49.84756097560975,49.796747967479675 49.84756097560975,49.796747967479675 49.84756097560975,49.796747967479675 49.84756097560975,49.796747967479675 49.84756097560975,49.796747967479675 49.84756097560975,49.796747967479675 49.84756097560975,49.796747967479675 49.84756097560975,49.796747967479675 49.84756097560975,49.796747967479675 49.84756097560975,49.796747967479675 49.84756097560975,49.796747967479675 49.84756097560975,49.796747967479675 49.84756097560975,49.796747967479675 49.84756097560975,49.796747967479675 49.84756097560975,49.84756097560975 49.89837398373984,49.84756097560975 49.89837398373984,49.84756097560975 49.949186991869915,49.89837398373984 50,49.89837398373984 50.05081300813008,49.949186991869915 50.10162601626016,49.949186991869915 50.15243902439024,50 50.203252032520325,50 50.2540650406504,50.05081300813008 50.355691056910565,50.05081300813008 50.40650406504065,50.10162601626016 50.40650406504065,50.10162601626016 50.45731707317073,50.10162601626016 50.50813008130081,50.10162601626016 50.55894308943089,50.10162601626016 50.609756097560975,50.15243902439024 50.66056910569105,50.15243902439024" fill="none" stroke="black" stroke-width="0.6"></polyline><polyline points="50.66056910569105,50.15243902439024 50.71138211382114,50.15243902439024 50.762195121951216,50.15243902439024 50.8130081300813,50.15243902439024 50.91463414634146,50.15243902439024 50.91463414634146,50.10162601626016 50.96544715447154,50.10162601626016 51.016260162601625,50.10162601626016 51.0670731707317,50.10162601626016 51.11788617886179,50.10162601626016 51.21951219512195,50.05081300813008 51.27032520325203,50.05081300813008 51.32113821138211,50 51.32113821138211,50 51.422764227642276,50 51.47357723577235,49.949186991869915 51.575203252032516,49.89837398373984 51.67682926829268,49.84756097560975 51.72764227642276,49.796747967479675 51.880081300813,49.74593495934959 51.981707317073166,49.69512195121951 52.083333333333336,49.64430894308943 52.1849593495935,49.59349593495935 52.28658536585366,49.542682926829265 52.33739837398374,49.49186991869919 52.38821138211382,49.49186991869919 52.4390243902439,49.4410569105691 52.489837398373986,49.390243902439025 52.540650406504064,49.390243902439025 52.59146341463415,49.390243902439025 52.59146341463415,49.33943089430894 52.642276422764226,49.33943089430894 52.642276422764226,49.33943089430894 52.642276422764226,49.33943089430894 52.642276422764226,49.33943089430894 52.642276422764226,49.33943089430894 52.642276422764226,49.33943089430894 52.642276422764226,49.33943089430894 52.642276422764226,49.33943089430894 52.642276422764226,49.33943089430894 52.642276422764226,49.33943089430894 52.642276422764226,49.33943089430894 52.642276422764226,49.33943089430894 52.642276422764226,49.33943089430894 52.642276422764226,49.33943089430894 52.642276422764226,49.33943089430894 52.642276422764226,49.33943089430894 52.642276422764226,49.33943089430894 52.642276422764226,49.33943089430894 52.642276422764226,49.33943089430894 52.642276422764226,49.33943089430894" fill="none" stroke="black" stroke-width="0.6"></polyline><polyline points="52.642276422764226,49.33943089430894 52.642276422764226,49.33943089430894 52.642276422764226,49.33943089430894 52.642276422764226,49.33943089430894 52.642276422764226,49.28861788617886 52.69308943089431,49.28861788617886 52.69308943089431,49.28861788617886 52.74390243902439,49.23780487804878 52.74390243902439,49.23780487804878 52.79471544715447,49.1869918699187 52.84552845528455,49.1869918699187 52.84552845528455,49.136178861788615 52.896341463414636,49.136178861788615 52.947154471544714,49.08536585365854 52.947154471544714,49.08536585365854 52.9979674796748,49.03455284552845 53.048780487804876,49.03455284552845 53.048780487804876,48.983739837398375 53.09959349593496,48.93292682926829 53.15040650406504,48.88211382113821 53.201219512195124,48.83130081300813 53.2520325203252,48.729674796747965 53.302845528455286,48.67886178861789 53.40447154471545,48.6280487804878 53.40447154471545,48.577235772357724 53.45528455284553,48.52642276422764 53.45528455284553,48.52642276422764 53.50609756097561,48.47560975609756 53.50609756097561,48.47560975609756 53.55691056910569,48.3739837398374 53.55691056910569,48.3739837398374 53.607723577235774,48.323170731707314 53.607723577235774,48.27235772357724 53.65853658536585,48.22154471544715 53.65853658536585,48.170731707317074 53.65853658536585,48.11991869918699 53.709349593495936,48.06910569105691 53.760162601626014,47.96747967479675 53.760162601626014,47.916666666666664 53.8109756097561,47.86585365853659 53.8109756097561,47.8150406504065 53.86178861788618,47.764227642276424 53.86178861788618,47.764227642276424 53.86178861788618,47.71341463414634 53.91260162601626,47.71341463414634 53.91260162601626,47.66260162601626 53.91260162601626,47.66260162601626 53.96341463414634,47.61178861788618 53.96341463414634,47.5609756097561 54.014227642276424,47.510162601626014 54.014227642276424,47.459349593495936" fill="none" stroke="black" stroke-width="0.6"></polyline><polyline points="54.014227642276424,47.459349593495936 54.0650406504065,47.357723577235774 54.0650406504065,47.30691056910569 54.11585365853659,47.25609756097561 54.166666666666664,47.15447154471545 54.21747967479675,47.052845528455286 54.26829268292683,47.0020325203252 54.26829268292683,46.90040650406504 54.31910569105691,46.84959349593496 54.31910569105691,46.798780487804876 54.31910569105691,46.798780487804876 54.36991869918699,46.697154471544714 54.36991869918699,46.646341463414636 54.36991869918699,46.646341463414636 54.420731707317074,46.59552845528455 54.420731707317074,46.54471544715447 54.420731707317074,46.49390243902439 54.420731707317074,46.44308943089431 54.420731707317074,46.392276422764226 54.420731707317074,46.290650406504064 54.420731707317074,46.239837398373986 54.420731707317074,46.13821138211382 54.420731707317074,46.08739837398374 54.420731707317074,45.985772357723576 54.47154471544715,45.88414634146341 54.47154471544715,45.78252032520325 54.47154471544715,45.68089430894309 54.47154471544715,45.579268292682926 54.47154471544715,45.47764227642276 54.47154471544715,45.42682926829268 54.47154471544715,45.325203252032516 54.47154471544715,45.27439024390244 54.47154471544715,45.172764227642276 54.420731707317074,45.12195121951219 54.420731707317074,45.12195121951219 54.420731707317074,45.07113821138211 54.36991869918699,45.07113821138211 54.36991869918699,45.02032520325203 54.31910569105691,44.96951219512195 54.26829268292683,44.96951219512195 54.21747967479675,44.918699186991866 54.166666666666664,44.86788617886179 54.11585365853659,44.8170731707317 54.0650406504065,44.766260162601625 53.96341463414634,44.66463414634146 53.86178861788618,44.61382113821138 53.709349593495936,44.512195121951216 53.607723577235774,44.41056910569105 53.45528455284553,44.359756097560975 53.302845528455286,44.25813008130081 53.09959349593496,44.15650406504065" fill="none" stroke="black" stroke-width="0.6"></polyline><polyline points="53.09959349593496,44.15650406504065 52.947154471544714,44.05487804878049 52.74390243902439,43.953252032520325 52.540650406504064,43.90243902439024 52.33739837398374,43.85162601626016 52.1849593495935,43.80081300813008 52.03252032520325,43.75 51.880081300813,43.699186991869915 51.72764227642276,43.699186991869915 51.6260162601626,43.64837398373984 51.47357723577235,43.64837398373984 51.32113821138211,43.59756097560975 51.21951219512195,43.59756097560975 51.11788617886179,43.546747967479675 51.016260162601625,43.546747967479675 50.91463414634146,43.546747967479675 50.86382113821138,43.49593495934959 50.8130081300813,43.49593495934959 50.71138211382114,43.49593495934959 50.66056910569105,43.49593495934959 50.50813008130081,43.49593495934959 50.355691056910565,43.49593495934959 50.203252032520325,43.49593495934959 50,43.546747967479675 49.796747967479675,43.59756097560975 49.59349593495935,43.699186991869915 49.390243902439025,43.75 49.1869918699187,43.80081300813008 48.983739837398375,43.80081300813008 48.83130081300813,43.85162601626016 48.729674796747965,43.90243902439024 48.67886178861789,43.90243902439024 48.52642276422764,43.953252032520325 48.3739837398374,44.0040650406504 48.22154471544715,44.105691056910565 48.06910569105691,44.15650406504065 47.916666666666664,44.25813008130081 47.8150406504065,44.30894308943089 47.71341463414634,44.359756097560975 47.61178861788618,44.41056910569105 47.510162601626014,44.46138211382114 47.510162601626014,44.512195121951216 47.459349593495936,44.512195121951216 47.40853658536585,44.5630081300813 47.357723577235774,44.61382113821138 47.30691056910569,44.61382113821138 47.25609756097561,44.66463414634146 47.20528455284553,44.71544715447154 47.20528455284553,44.766260162601625 47.15447154471545,44.8170731707317 47.103658536585364,44.86788617886179" fill="none" stroke="black" stroke-width="0.6"></polyline><polyline points="47.103658536585364,44.86788617886179 47.052845528455286,44.918699186991866 47.0020325203252,44.96951219512195 46.951219512195124,45.07113821138211 46.90040650406504,45.12195121951219 46.84959349593496,45.22357723577235 46.7479674796748,45.27439024390244 46.697154471544714,45.3760162601626 46.59552845528455,45.42682926829268 46.54471544715447,45.52845528455285 46.44308943089431,45.579268292682926 46.392276422764226,45.68089430894309 46.290650406504064,45.73170731707317 46.290650406504064,45.78252032520325 46.1890243902439,45.833333333333336 46.1890243902439,45.88414634146341 46.08739837398374,45.9349593495935 46.03658536585366,45.985772357723576 45.985772357723576,46.03658536585366 45.9349593495935,46.08739837398374 45.88414634146341,46.13821138211382 45.833333333333336,46.1890243902439 45.78252032520325,46.290650406504064 45.73170731707317,46.34146341463415 45.73170731707317,46.392276422764226 45.68089430894309,46.49390243902439 45.63008130081301,46.54471544715447 45.579268292682926,46.646341463414636 45.52845528455285,46.7479674796748 45.47764227642276,46.798780487804876 45.42682926829268,46.90040650406504 45.3760162601626,47.0020325203252 45.325203252032516,47.103658536585364 45.325203252032516,47.15447154471545 45.325203252032516,47.20528455284553 45.27439024390244,47.30691056910569 45.22357723577235,47.40853658536585 45.172764227642276,47.5609756097561 45.12195121951219,47.66260162601626 45.07113821138211,47.764227642276424 45.02032520325203,47.86585365853659 44.96951219512195,47.916666666666664 44.918699186991866,48.01829268292683 44.86788617886179,48.170731707317074 44.86788617886179,48.22154471544715 44.8170731707317,48.3739837398374 44.766260162601625,48.42479674796748 44.71544715447154,48.52642276422764 44.71544715447154,48.67886178861789 44.66463414634146,48.78048780487805 44.61382113821138,48.88211382113821" fill="none" stroke="black" stroke-width="0.6"></polyline><polyline points="44.61382113821138,48.88211382113821 44.5630081300813,49.03455284552845 44.5630081300813,49.136178861788615 44.512195121951216,49.23780487804878 44.512195121951216,49.390243902439025 44.46138211382114,49.49186991869919 44.46138211382114,49.59349593495935 44.46138211382114,49.69512195121951 44.46138211382114,49.796747967479675 44.46138211382114,49.89837398373984 44.46138211382114,50 44.46138211382114,50.15243902439024 44.46138211382114,50.2540650406504 44.46138211382114,50.40650406504065 44.46138211382114,50.55894308943089 44.46138211382114,50.66056910569105 44.46138211382114,50.8130081300813 44.512195121951216,50.96544715447154 44.5630081300813,51.0670731707317 44.61382113821138,51.21951219512195 44.66463414634146,51.37195121951219 44.766260162601625,51.52439024390244 44.86788617886179,51.72764227642276 44.96951219512195,51.880081300813 45.07113821138211,52.083333333333336 45.22357723577235,52.235772357723576 45.3760162601626,52.4390243902439 45.52845528455285,52.59146341463415 45.68089430894309,52.79471544715447 45.88414634146341,52.947154471544714 46.03658536585366,53.09959349593496 46.239837398373986,53.2520325203252 46.392276422764226,53.353658536585364 46.59552845528455,53.45528455284553 46.7479674796748,53.607723577235774 46.951219512195124,53.709349593495936 47.103658536585364,53.8109756097561 47.30691056910569,53.91260162601626 47.459349593495936,54.014227642276424 47.61178861788618,54.11585365853659 47.764227642276424,54.26829268292683 47.916666666666664,54.36991869918699 48.11991869918699,54.420731707317074 48.27235772357724,54.52235772357724 48.42479674796748,54.573170731707314 48.6280487804878,54.6239837398374 48.83130081300813,54.67479674796748 49.08536585365854,54.67479674796748 49.33943089430894,54.67479674796748 49.64430894308943,54.6239837398374 49.949186991869915,54.6239837398374" fill="none" stroke="black" stroke-width="0.6"></polyline><polyline points="49.949186991869915,54.6239837398374 50.203252032520325,54.573170731707314 50.50813008130081,54.52235772357724 50.762195121951216,54.47154471544715 51.0670731707317,54.420731707317074 51.37195121951219,54.36991869918699 51.6260162601626,54.36991869918699 51.880081300813,54.26829268292683 52.235772357723576,54.21747967479675 52.540650406504064,54.11585365853659 52.84552845528455,54.0650406504065 53.15040650406504,53.96341463414634 53.45528455284553,53.86178861788618 53.760162601626014,53.709349593495936 54.014227642276424,53.607723577235774 54.26829268292683,53.50609756097561 54.52235772357724,53.40447154471545 54.77642276422764,53.2520325203252 55.08130081300813,53.048780487804876 55.48780487804878,52.74390243902439 55.84349593495935,52.489837398373986 56.199186991869915,52.235772357723576 56.55487804878049,51.981707317073166 56.859756097560975,51.72764227642276 57.21544715447154,51.47357723577235 57.57113821138211,51.168699186991866 57.97764227642276,50.86382113821138 58.33333333333333,50.55894308943089 58.63821138211382,50.30487804878049 58.892276422764226,50.10162601626016 59.04471544715447,49.949186991869915 59.197154471544714,49.84756097560975 59.2479674796748,49.69512195121951 59.34959349593496,49.542682926829265 59.40040650406504,49.4410569105691 59.451219512195124,49.28861788617886 59.451219512195124,49.1869918699187 59.5020325203252,49.08536585365854 59.5020325203252,48.93292682926829 59.5020325203252,48.83130081300813 59.451219512195124,48.67886178861789 59.40040650406504,48.52642276422764 59.40040650406504,48.3739837398374 59.34959349593496,48.22154471544715 59.298780487804876,48.06910569105691 59.298780487804876,47.916666666666664 59.298780487804876,47.764227642276424 59.2479674796748,47.61178861788618 59.2479674796748,47.510162601626014 59.2479674796748,47.357723577235774 59.197154471544714,47.25609756097561" fill="none" stroke="black" stroke-width="0.6"></polyline><polyline points="59.197154471544714,47.25609756097561 59.197154471544714,47.15447154471545 59.197154471544714,47.0020325203252 59.146341463414636,46.90040650406504 59.146341463414636,46.798780487804876 59.09552845528455,46.697154471544714 59.09552845528455,46.59552845528455 59.09552845528455,46.49390243902439 59.04471544715447,46.34146341463415 59.04471544715447,46.239837398373986 58.99390243902439,46.13821138211382 58.99390243902439,45.985772357723576 58.99390243902439,45.88414634146341 58.94308943089431,45.73170731707317 58.94308943089431,45.579268292682926 58.892276422764226,45.47764227642276 58.892276422764226,45.325203252032516 58.84146341463415,45.172764227642276 58.790650406504064,45.07113821138211 58.790650406504064,44.96951219512195 58.739837398373986,44.8170731707317 58.6890243902439,44.71544715447154 58.63821138211382,44.61382113821138 58.63821138211382,44.512195121951216 58.58739837398374,44.41056910569105 58.536585365853654,44.30894308943089 58.485772357723576,44.20731707317073 58.485772357723576,44.105691056910565 58.43495934959349,44.0040650406504 58.38414634146341,43.90243902439024 58.38414634146341,43.85162601626016 58.33333333333333,43.699186991869915 58.28252032520325,43.64837398373984 58.231707317073166,43.546747967479675 58.18089430894309,43.39430894308943 58.130081300813,43.34349593495935 58.079268292682926,43.24186991869919 58.02845528455284,43.140243902439025 57.92682926829268,43.03861788617886 57.8760162601626,42.9369918699187 57.77439024390244,42.78455284552845 57.672764227642276,42.68292682926829 57.62195121951219,42.58130081300813 57.52032520325203,42.479674796747965 57.418699186991866,42.3780487804878 57.36788617886179,42.27642276422764 57.266260162601625,42.1239837398374 57.16463414634146,42.02235772357724 57.11382113821138,41.97154471544715 57.0630081300813,41.920731707317074 56.96138211382114,41.76829268292683" fill="none" stroke="black" stroke-width="0.6"></polyline><polyline points="56.96138211382114,41.76829268292683 56.859756097560975,41.666666666666664 56.70731707317073,41.5650406504065 56.605691056910565,41.41260162601626 56.453252032520325,41.3109756097561 56.35162601626016,41.209349593495936 56.14837398373984,41.05691056910569 55.99593495934959,40.95528455284553 55.792682926829265,40.853658536585364 55.58943089430894,40.701219512195124 55.386178861788615,40.65040650406504 55.233739837398375,40.548780487804876 55.03048780487805,40.447154471544714 54.8780487804878,40.34552845528455 54.77642276422764,40.29471544715447 54.6239837398374,40.24390243902439 54.52235772357724,40.19308943089431 54.420731707317074,40.09146341463415 54.31910569105691,40.040650406504064 54.166666666666664,39.989837398373986 54.0650406504065,39.9390243902439 53.91260162601626,39.88821138211382 53.8109756097561,39.83739837398374 53.709349593495936,39.78658536585366 53.55691056910569,39.735772357723576 53.45528455284553,39.6849593495935 53.353658536585364,39.63414634146341 53.2520325203252,39.583333333333336 53.09959349593496,39.583333333333336 52.9979674796748,39.53252032520325 52.896341463414636,39.53252032520325 52.79471544715447,39.48170731707317 52.69308943089431,39.43089430894309 52.59146341463415,39.43089430894309 52.489837398373986,39.38008130081301 52.38821138211382,39.329268292682926 52.235772357723576,39.329268292682926 52.13414634146341,39.27845528455285 52.03252032520325,39.27845528455285 51.880081300813,39.22764227642276 51.77845528455284,39.22764227642276 51.6260162601626,39.176829268292686 51.52439024390244,39.176829268292686 51.37195121951219,39.176829268292686 51.21951219512195,39.176829268292686 51.016260162601625,39.1260162601626 50.86382113821138,39.1260162601626 50.71138211382114,39.07520325203252 50.45731707317073,39.07520325203252 50.30487804878049,39.07520325203252 50.10162601626016,39.02439024390244" fill="none" stroke="black" stroke-width="0.6"></polyline><polyline points="50.10162601626016,39.02439024390244 49.89837398373984,39.02439024390244 49.64430894308943,39.02439024390244 49.390243902439025,39.02439024390244 49.1869918699187,39.02439024390244 48.88211382113821,39.02439024390244 48.577235772357724,39.02439024390244 48.27235772357724,38.97357723577235 47.96747967479675,38.97357723577235 47.61178861788618,38.97357723577235 47.25609756097561,38.97357723577235 46.951219512195124,38.97357723577235 46.59552845528455,38.97357723577235 46.34146341463415,38.97357723577235 46.03658536585366,39.02439024390244 45.68089430894309,39.07520325203252 45.42682926829268,39.1260162601626 45.12195121951219,39.176829268292686 44.86788617886179,39.22764227642276 44.5630081300813,39.27845528455285 44.30894308943089,39.38008130081301 44.05487804878049,39.48170731707317 43.85162601626016,39.583333333333336 43.64837398373984,39.735772357723576 43.39430894308943,39.88821138211382 43.1910569105691,40.09146341463415 42.98780487804878,40.34552845528455 42.78455284552845,40.59959349593496 42.58130081300813,40.802845528455286 42.3780487804878,41.107723577235774 42.17479674796748,41.36178861788618 41.97154471544715,41.666666666666664 41.76829268292683,41.920731707317074 41.5650406504065,42.27642276422764 41.41260162601626,42.53048780487805 41.260162601626014,42.78455284552845 41.05691056910569,43.08943089430894 40.90447154471545,43.39430894308943 40.701219512195124,43.64837398373984 40.548780487804876,43.953252032520325 40.396341463414636,44.30894308943089 40.24390243902439,44.66463414634146 40.040650406504064,45.07113821138211 39.83739837398374,45.42682926829268 39.6849593495935,45.833333333333336 39.43089430894309,46.290650406504064 39.22764227642276,46.84959349593496 38.97357723577235,47.357723577235774 38.82113821138211,47.764227642276424 38.668699186991866,48.11991869918699 38.516260162601625,48.52642276422764" fill="none" stroke="black" stroke-width="0.6"></polyline><polyline points="38.516260162601625,48.52642276422764 38.36382113821138,48.983739837398375 38.262195121951216,49.4410569105691 38.16056910569105,49.84756097560975 38.05894308943089,50.2540650406504 38.00813008130081,50.66056910569105 37.95731707317073,51.11788617886179 37.95731707317073,51.575203252032516 37.95731707317073,51.981707317073166 37.95731707317073,52.38821138211382 38.05894308943089,52.84552845528455 38.109756097560975,53.302845528455286 38.262195121951216,53.760162601626014 38.41463414634146,54.21747967479675 38.61788617886179,54.6239837398374 38.82113821138211,55.08130081300813 39.07520325203252,55.53861788617886 39.38008130081301,55.94512195121951 39.6849593495935,56.35162601626016 40.040650406504064,56.70731707317073 40.396341463414636,57.0630081300813 40.802845528455286,57.36788617886179 41.15853658536585,57.62195121951219 41.5650406504065,57.8760162601626 42.02235772357724,58.130081300813 42.42886178861789,58.33333333333333 42.886178861788615,58.485772357723576 43.39430894308943,58.58739837398374 43.85162601626016,58.739837398373986 44.359756097560975,58.790650406504064 44.918699186991866,58.892276422764226 45.42682926829268,58.892276422764226 46.03658536585366,58.892276422764226 46.697154471544714,58.84146341463415 47.25609756097561,58.739837398373986 47.916666666666664,58.63821138211382 48.577235772357724,58.485772357723576 49.1869918699187,58.38414634146341 49.796747967479675,58.231707317073166 50.45731707317073,58.130081300813 50.96544715447154,58.02845528455284 51.47357723577235,57.92682926829268 52.083333333333336,57.77439024390244 52.59146341463415,57.62195121951219 53.09959349593496,57.52032520325203 53.607723577235774,57.3170731707317 54.166666666666664,57.11382113821138 54.72560975609756,56.80894308943089 55.386178861788615,56.453252032520325 55.99593495934959,56.09756097560975 56.70731707317073,55.6910569105691" fill="none" stroke="black" stroke-width="0.6"></polyline><polyline points="56.70731707317073,55.6910569105691 57.418699186991866,55.18292682926829 57.97764227642276,54.77642276422764 58.58739837398374,54.31910569105691 59.197154471544714,53.91260162601626 59.75609756097561,53.40447154471545 60.36585365853659,52.896341463414636 60.8739837398374,52.4390243902439 61.33130081300813,52.03252032520325 61.73780487804878,51.575203252032516 62.042682926829265,51.21951219512195 62.34756097560975,50.86382113821138 62.55081300813008,50.50813008130081 62.7540650406504,50.15243902439024 62.95731707317073,49.796747967479675 63.109756097560975,49.4410569105691 63.21138211382114,49.03455284552845 63.3130081300813,48.6280487804878 63.46544715447154,48.22154471544715 63.5670731707317,47.71341463414634 63.668699186991866,47.20528455284553 63.77032520325203,46.697154471544714 63.87195121951219,46.1890243902439 63.922764227642276,45.73170731707317 63.97357723577235,45.325203252032516 64.02439024390243,44.918699186991866 64.02439024390243,44.5630081300813 64.02439024390243,44.15650406504065 63.97357723577235,43.80081300813008 63.87195121951219,43.49593495934959 63.77032520325203,43.1910569105691 63.668699186991866,42.83536585365854 63.5670731707317,42.53048780487805 63.41463414634146,42.17479674796748 63.3130081300813,41.81910569105691 63.16056910569105,41.41260162601626 63.00813008130081,41.05691056910569 62.90650406504065,40.701219512195124 62.7540650406504,40.34552845528455 62.60162601626016,39.9390243902439 62.39837398373984,39.583333333333336 62.24593495934959,39.22764227642276 62.042682926829265,38.87195121951219 61.83943089430894,38.61788617886179 61.58536585365854,38.3130081300813 61.33130081300813,37.95731707317073 61.02642276422764,37.703252032520325 60.72154471544715,37.34756097560975 60.416666666666664,37.042682926829265 60.0609756097561,36.73780487804878 59.75609756097561,36.483739837398375" fill="none" stroke="black" stroke-width="0.6"></polyline><polyline points="59.75609756097561,36.483739837398375 59.40040650406504,36.17886178861789 59.09552845528455,35.8739837398374 58.790650406504064,35.61991869918699 58.43495934959349,35.3150406504065 58.130081300813,35.010162601626014 57.825203252032516,34.75609756097561 57.46951219512195,34.5020325203252 57.16463414634146,34.2479674796748 56.80894308943089,34.04471544715447 56.40243902439024,33.790650406504064 56.046747967479675,33.53658536585366 55.640243902439025,33.333333333333336 55.233739837398375,33.13008130081301 54.827235772357724,32.926829268292686 54.47154471544715,32.72357723577236 54.014227642276424,32.57113821138211 53.607723577235774,32.418699186991866 53.201219512195124,32.3170731707317 52.79471544715447,32.16463414634146 52.38821138211382,32.0630081300813 51.981707317073166,31.961382113821138 51.52439024390244,31.859756097560975 51.11788617886179,31.808943089430894 50.71138211382114,31.70731707317073 50.2540650406504,31.65650406504065 49.89837398373984,31.60569105691057 49.49186991869919,31.554878048780488 49.08536585365854,31.504065040650406 48.67886178861789,31.504065040650406 48.22154471544715,31.504065040650406 47.8150406504065,31.504065040650406 47.459349593495936,31.504065040650406 47.052845528455286,31.504065040650406 46.646341463414636,31.504065040650406 46.239837398373986,31.504065040650406 45.833333333333336,31.554878048780488 45.42682926829268,31.60569105691057 45.07113821138211,31.70731707317073 44.71544715447154,31.758130081300813 44.25813008130081,31.859756097560975 43.85162601626016,32.012195121951216 43.44512195121951,32.16463414634146 42.98780487804878,32.3170731707317 42.58130081300813,32.52032520325203 42.1239837398374,32.72357723577236 41.666666666666664,32.926829268292686 41.260162601626014,33.18089430894309 40.802845528455286,33.4349593495935 40.34552845528455,33.790650406504064 39.83739837398374,34.09552845528455" fill="none" stroke="black" stroke-width="0.6"></polyline><polyline points="39.83739837398374,34.09552845528455 39.38008130081301,34.40040650406504 38.87195121951219,34.75609756097561 38.46544715447154,35.010162601626014 38.05894308943089,35.3150406504065 37.65243902439024,35.61991869918699 37.296747967479675,35.92479674796748 36.890243902439025,36.229674796747965 36.53455284552845,36.483739837398375 36.17886178861789,36.78861788617886 35.823170731707314,37.042682926829265 35.56910569105691,37.24593495934959 35.3150406504065,37.449186991869915 35.11178861788618,37.65243902439024 34.857723577235774,37.90650406504065 34.65447154471545,38.109756097560975 34.451219512195124,38.36382113821138 34.2479674796748,38.5670731707317 34.04471544715447,38.77032520325203 33.892276422764226,38.97357723577235 33.739837398373986,39.176829268292686 33.53658536585366,39.38008130081301 33.38414634146341,39.63414634146341 33.23170731707317,39.88821138211382 33.079268292682926,40.142276422764226 32.8760162601626,40.447154471544714 32.72357723577236,40.701219512195124 32.57113821138211,40.95528455284553 32.36788617886179,41.260162601626014 32.266260162601625,41.514227642276424 32.11382113821138,41.81910569105691 31.961382113821138,42.17479674796748 31.808943089430894,42.479674796747965 31.65650406504065,42.78455284552845 31.504065040650406,43.08943089430894 31.402439024390244,43.39430894308943 31.30081300813008,43.699186991869915 31.148373983739837,44.0040650406504 31.046747967479675,44.30894308943089 30.945121951219512,44.66463414634146 30.79268292682927,45.12195121951219 30.640243902439025,45.52845528455285 30.48780487804878,45.9349593495935 30.335365853658537,46.34146341463415 30.233739837398375,46.7479674796748 30.132113821138212,47.103658536585364 30.03048780487805,47.5609756097561 29.979674796747968,47.916666666666664 29.928861788617887,48.323170731707314 29.827235772357724,48.78048780487805 29.827235772357724,49.1869918699187" fill="none" stroke="black" stroke-width="0.6"></polyline><polyline points="29.827235772357724,49.1869918699187 29.776422764227643,49.59349593495935 29.776422764227643,50 29.776422764227643,50.40650406504065 29.776422764227643,50.8130081300813 29.776422764227643,51.21951219512195 29.776422764227643,51.6260162601626 29.878048780487806,51.981707317073166 29.928861788617887,52.38821138211382 29.979674796747968,52.74390243902439 30.08130081300813,53.09959349593496 30.182926829268293,53.50609756097561 30.284552845528456,53.86178861788618 30.335365853658537,54.26829268292683 30.4369918699187,54.67479674796748 30.538617886178862,55.03048780487805 30.640243902439025,55.4369918699187 30.79268292682927,55.84349593495935 30.89430894308943,56.25 31.046747967479675,56.65650406504065 31.19918699186992,57.012195121951216 31.351626016260163,57.418699186991866 31.504065040650406,57.77439024390244 31.65650406504065,58.18089430894309 31.808943089430894,58.536585365853654 32.012195121951216,58.892276422764226 32.16463414634146,59.2479674796748 32.3170731707317,59.552845528455286 32.52032520325203,59.90853658536585 32.672764227642276,60.21341463414634 32.82520325203252,60.46747967479675 33.02845528455285,60.77235772357724 33.18089430894309,61.02642276422764 33.333333333333336,61.28048780487805 33.485772357723576,61.58536585365854 33.6890243902439,61.83943089430894 33.84146341463415,62.042682926829265 34.04471544715447,62.296747967479675 34.2479674796748,62.5 34.40040650406504,62.703252032520325 34.603658536585364,62.90650406504065 34.80691056910569,63.109756097560975 35.010162601626014,63.262195121951216 35.264227642276424,63.46544715447154 35.46747967479675,63.61788617886179 35.670731707317074,63.77032520325203 35.8739837398374,63.97357723577235 36.077235772357724,64.1260162601626 36.28048780487805,64.27845528455285 36.53455284552845,64.43089430894308 36.73780487804878,64.53252032520325" fill="none" stroke="black" stroke-width="0.6"></polyline><polyline points="36.73780487804878,64.53252032520325 36.99186991869919,64.6849593495935 37.24593495934959,64.83739837398373 37.5,64.9390243902439 37.703252032520325,65.04065040650406 37.95731707317073,65.14227642276423 38.21138211382114,65.2439024390244 38.46544715447154,65.29471544715447 38.71951219512195,65.39634146341463 38.922764227642276,65.4979674796748 39.176829268292686,65.54878048780488 39.38008130081301,65.65040650406505 39.583333333333336,65.70121951219512 39.83739837398374,65.80284552845528 40.040650406504064,65.85365853658537 40.24390243902439,65.95528455284553 40.447154471544714,66.0060975609756 40.701219512195124,66.0569105691057 40.90447154471545,66.15853658536585 41.107723577235774,66.20934959349593 41.36178861788618,66.26016260162602 41.5650406504065,66.26016260162602 41.76829268292683,66.3109756097561 42.02235772357724,66.36178861788618 42.22560975609756,66.36178861788618 42.479674796747965,66.36178861788618 42.68292682926829,66.41260162601625 42.886178861788615,66.41260162601625 43.08943089430894,66.41260162601625 43.292682926829265,66.41260162601625 43.44512195121951,66.41260162601625 43.64837398373984,66.41260162601625 43.80081300813008,66.41260162601625 44.0040650406504,66.41260162601625 44.15650406504065,66.41260162601625 44.30894308943089,66.41260162601625 44.46138211382114,66.36178861788618 44.61382113821138,66.36178861788618 44.766260162601625,66.3109756097561 44.918699186991866,66.3109756097561 45.02032520325203,66.3109756097561 45.172764227642276,66.3109756097561 45.27439024390244,66.26016260162602 45.3760162601626,66.26016260162602 45.47764227642276,66.26016260162602 45.52845528455285,66.26016260162602 45.63008130081301,66.26016260162602 45.68089430894309,66.26016260162602 45.73170731707317,66.26016260162602 45.78252032520325,66.26016260162602 45.833333333333336,66.26016260162602" fill="none" stroke="black" stroke-width="0.6"></polyline><polyline points="45.833333333333336,66.26016260162602 45.88414634146341,66.26016260162602 45.9349593495935,66.26016260162602 45.9349593495935,66.26016260162602 45.985772357723576,66.26016260162602 45.985772357723576,66.26016260162602 46.03658536585366,66.26016260162602 46.03658536585366,66.26016260162602 46.08739837398374,66.20934959349593 46.08739837398374,66.20934959349593 46.08739837398374,66.20934959349593 46.13821138211382,66.20934959349593 46.13821138211382,66.20934959349593 46.1890243902439,66.20934959349593 46.1890243902439,66.20934959349593 46.1890243902439,66.20934959349593 46.1890243902439,66.20934959349593 46.239837398373986,66.20934959349593 46.239837398373986,66.20934959349593 46.239837398373986,66.20934959349593 46.290650406504064,66.20934959349593 46.290650406504064,66.20934959349593 46.290650406504064,66.20934959349593 46.290650406504064,66.20934959349593 46.290650406504064,66.20934959349593 46.290650406504064,66.20934959349593 46.34146341463415,66.20934959349593 46.34146341463415,66.20934959349593 46.34146341463415,66.20934959349593 46.34146341463415,66.20934959349593 46.34146341463415,66.20934959349593 46.392276422764226,66.20934959349593 46.392276422764226,66.20934959349593 46.392276422764226,66.20934959349593 46.392276422764226,66.20934959349593 46.392276422764226,66.20934959349593 46.44308943089431,66.20934959349593 46.44308943089431,66.20934959349593 46.44308943089431,66.20934959349593 46.44308943089431,66.20934959349593 46.49390243902439,66.20934959349593 46.49390243902439,66.20934959349593 46.49390243902439,66.20934959349593 46.49390243902439,66.20934959349593 46.54471544715447,66.20934959349593 46.54471544715447,66.20934959349593 46.54471544715447,66.20934959349593 46.59552845528455,66.20934959349593 46.646341463414636,66.20934959349593 46.646341463414636,66.20934959349593 46.697154471544714,66.20934959349593" fill="none" stroke="black" stroke-width="0.6"></polyline><polyline points="46.697154471544714,66.20934959349593 46.7479674796748,66.20934959349593 46.798780487804876,66.20934959349593 46.84959349593496,66.20934959349593 46.90040650406504,66.20934959349593 46.951219512195124,66.20934959349593 47.052845528455286,66.20934959349593 47.103658536585364,66.20934959349593 47.15447154471545,66.20934959349593 47.20528455284553,66.20934959349593 47.25609756097561,66.20934959349593 47.25609756097561,66.20934959349593 47.30691056910569,66.20934959349593 47.357723577235774,66.20934959349593 47.40853658536585,66.20934959349593 47.459349593495936,66.20934959349593 47.459349593495936,66.20934959349593 47.510162601626014,66.20934959349593 47.510162601626014,66.20934959349593 47.5609756097561,66.20934959349593 47.5609756097561,66.20934959349593 47.61178861788618,66.20934959349593 47.61178861788618,66.20934959349593 47.61178861788618,66.20934959349593 47.66260162601626,66.20934959349593 47.66260162601626,66.20934959349593 47.66260162601626,66.15853658536585 47.66260162601626,66.15853658536585 47.71341463414634,66.15853658536585 47.71341463414634,66.15853658536585 47.71341463414634,66.15853658536585 47.71341463414634,66.15853658536585 47.71341463414634,66.15853658536585 47.764227642276424,66.15853658536585 47.764227642276424,66.15853658536585 47.8150406504065,66.15853658536585 47.8150406504065,66.15853658536585 47.86585365853659,66.15853658536585 47.86585365853659,66.15853658536585 47.916666666666664,66.15853658536585 47.96747967479675,66.15853658536585 48.06910569105691,66.15853658536585 48.11991869918699,66.10772357723577 48.22154471544715,66.10772357723577 48.3739837398374,66.0569105691057 48.52642276422764,66.0569105691057 48.729674796747965,66.0060975609756 48.93292682926829,65.95528455284553 49.136178861788615,65.90447154471545 49.390243902439025,65.80284552845528 49.69512195121951,65.70121951219512" fill="none" stroke="black" stroke-width="0.6"></polyline><polyline points="49.69512195121951,65.70121951219512 49.949186991869915,65.65040650406505 50.2540650406504,65.54878048780488 50.55894308943089,65.44715447154472 50.8130081300813,65.39634146341463 51.11788617886179,65.2439024390244 51.422764227642276,65.14227642276423 51.72764227642276,65.04065040650406 52.03252032520325,64.9390243902439 52.33739837398374,64.83739837398373 52.642276422764226,64.73577235772358 52.947154471544714,64.58333333333333 53.2520325203252,64.48170731707317 53.55691056910569,64.32926829268293 53.86178861788618,64.22764227642276 54.166666666666664,64.1260162601626 54.36991869918699,64.02439024390243 54.573170731707314,63.97357723577235 54.77642276422764,63.922764227642276 54.92886178861789,63.87195121951219 55.08130081300813,63.82113821138211 55.18292682926829,63.77032520325203 55.28455284552845,63.71951219512195 55.33536585365854,63.71951219512195 55.386178861788615,63.668699186991866 55.386178861788615,63.668699186991866 55.4369918699187,63.668699186991866 55.4369918699187,63.668699186991866 55.4369918699187,63.668699186991866 55.4369918699187,63.668699186991866 55.4369918699187,63.668699186991866 55.4369918699187,63.668699186991866 55.4369918699187,63.668699186991866 55.4369918699187,63.668699186991866 55.4369918699187,63.668699186991866 55.4369918699187,63.668699186991866 55.4369918699187,63.668699186991866 55.4369918699187,63.668699186991866 55.48780487804878,63.668699186991866 55.48780487804878,63.668699186991866 55.48780487804878,63.61788617886179 55.48780487804878,63.61788617886179 55.48780487804878,63.61788617886179 55.48780487804878,63.61788617886179 55.48780487804878,63.61788617886179 55.48780487804878,63.61788617886179 55.48780487804878,63.61788617886179 55.53861788617886,63.61788617886179 55.53861788617886,63.61788617886179 55.53861788617886,63.61788617886179 55.53861788617886,63.61788617886179" fill="none" stroke="black" stroke-width="0.6"></polyline><polyline points="55.53861788617886,63.61788617886179 55.53861788617886,63.61788617886179 55.53861788617886,63.5670731707317 55.58943089430894,63.5670731707317 55.58943089430894,63.5670731707317 55.58943089430894,63.5670731707317 55.58943089430894,63.5670731707317 55.58943089430894,63.5670731707317 55.58943089430894,63.5670731707317 55.58943089430894,63.5670731707317 55.58943089430894,63.5670731707317 55.640243902439025,63.5670731707317 55.640243902439025,63.5670731707317 55.640243902439025,63.5670731707317 55.640243902439025,63.5670731707317 55.640243902439025,63.516260162601625 55.640243902439025,63.516260162601625 55.6910569105691,63.516260162601625 55.6910569105691,63.516260162601625 55.74186991869919,63.46544715447154 55.792682926829265,63.46544715447154 55.84349593495935,63.36382113821138 55.94512195121951,63.3130081300813 56.09756097560975,63.16056910569105 56.25,63.00813008130081 56.453252032520325,62.80487804878049 56.65650406504065,62.55081300813008 56.96138211382114,62.24593495934959 57.266260162601625,61.9410569105691 57.62195121951219,61.58536585365854 58.02845528455284,61.1280487804878 58.43495934959349,60.72154471544715 58.892276422764226,60.36585365853659 59.34959349593496,59.90853658536585 59.70528455284553,59.552845528455286 60.0609756097561,59.146341463414636 60.416666666666664,58.63821138211382 60.823170731707314,58.130081300813 61.1280487804878,57.72357723577235 61.43292682926829,57.21544715447154 61.6869918699187,56.75813008130081 61.99186991869919,56.25 62.296747967479675,55.6910569105691 62.60162601626016,55.18292682926829 62.90650406504065,54.67479674796748 63.21138211382114,54.166666666666664 63.46544715447154,53.709349593495936 63.71951219512195,53.201219512195124 63.922764227642276,52.79471544715447 64.1260162601626,52.38821138211382 64.27845528455285,52.03252032520325" fill="none" stroke="black" stroke-width="0.6"></polyline><polyline points="64.27845528455285,52.03252032520325 64.380081300813,51.67682926829268 64.53252032520325,51.32113821138211 64.6849593495935,50.91463414634146 64.78658536585365,50.55894308943089 64.88821138211382,50.203252032520325 64.98983739837398,49.84756097560975 65.09146341463415,49.49186991869919 65.2439024390244,49.03455284552845 65.44715447154472,48.577235772357724 65.59959349593495,48.11991869918699 65.7520325203252,47.66260162601626 65.90447154471545,47.20528455284553 66.0060975609756,46.798780487804876 66.10772357723577,46.44308943089431 66.15853658536585,46.08739837398374 66.15853658536585,45.78252032520325 66.15853658536585,45.47764227642276 66.20934959349593,45.172764227642276 66.20934959349593,44.86788617886179 66.20934959349593,44.5630081300813 66.20934959349593,44.20731707317073 66.20934959349593,43.85162601626016 66.20934959349593,43.49593495934959 66.20934959349593,43.140243902439025 66.20934959349593,42.78455284552845 66.20934959349593,42.42886178861789 66.20934959349593,42.02235772357724 66.20934959349593,41.666666666666664 66.20934959349593,41.260162601626014 66.10772357723577,40.90447154471545 66.0569105691057,40.548780487804876 65.95528455284553,40.24390243902439 65.85365853658537,39.83739837398374 65.70121951219512,39.53252032520325 65.54878048780488,39.176829268292686 65.29471544715447,38.82113821138211 65.09146341463415,38.516260162601625 64.83739837398373,38.16056910569105 64.53252032520325,37.80487804878049 64.17682926829268,37.449186991869915 63.82113821138211,37.09349593495935 63.46544715447154,36.78861788617886 63.109756097560975,36.483739837398375 62.703252032520325,36.17886178861789 62.19512195121951,35.8739837398374 61.6869918699187,35.61991869918699 61.17886178861789,35.3150406504065 60.670731707317074,35.0609756097561 60.16260162601626,34.857723577235774 59.552845528455286,34.65447154471545" fill="none" stroke="black" stroke-width="0.6"></polyline><polyline points="59.552845528455286,34.65447154471545 58.94308943089431,34.40040650406504 58.38414634146341,34.2479674796748 57.77439024390244,34.04471544715447 57.11382113821138,33.84146341463415 56.453252032520325,33.6890243902439 55.84349593495935,33.53658536585366 55.18292682926829,33.4349593495935 54.573170731707314,33.28252032520325 53.91260162601626,33.18089430894309 53.2520325203252,33.02845528455285 52.642276422764226,32.926829268292686 52.03252032520325,32.82520325203252 51.37195121951219,32.72357723577236 50.762195121951216,32.6219512195122 50.15243902439024,32.52032520325203 49.542682926829265,32.418699186991866 48.983739837398375,32.3170731707317 48.47560975609756,32.266260162601625 47.916666666666664,32.11382113821138 47.40853658536585,32.012195121951216 46.90040650406504,31.910569105691057 46.44308943089431,31.808943089430894 45.985772357723576,31.758130081300813 45.52845528455285,31.70731707317073 45.12195121951219,31.70731707317073 44.66463414634146,31.70731707317073 44.20731707317073,31.70731707317073 43.80081300813008,31.70731707317073 43.34349593495935,31.70731707317073 42.83536585365854,31.70731707317073 42.42886178861789,31.758130081300813 42.02235772357724,31.758130081300813 41.61585365853659,31.808943089430894 41.3109756097561,31.808943089430894 40.95528455284553,31.808943089430894 40.59959349593496,31.859756097560975 40.29471544715447,31.910569105691057 39.9390243902439,31.961382113821138 39.583333333333336,32.012195121951216 39.27845528455285,32.0630081300813 39.02439024390244,32.16463414634146 38.668699186991866,32.21544715447154 38.41463414634146,32.3170731707317 38.109756097560975,32.418699186991866 37.7540650406504,32.52032520325203 37.449186991869915,32.672764227642276 37.09349593495935,32.82520325203252 36.73780487804878,32.97764227642276 36.483739837398375,33.079268292682926 36.229674796747965,33.23170731707317" fill="none" stroke="black" stroke-width="0.6"></polyline><polyline points="36.229674796747965,33.23170731707317 35.92479674796748,33.38414634146341 35.670731707317074,33.58739837398374 35.36585365853659,33.739837398373986 35.0609756097561,33.94308943089431 34.80691056910569,34.146341463414636 34.5020325203252,34.34959349593496 34.2479674796748,34.552845528455286 33.99390243902439,34.70528455284553 33.739837398373986,34.90853658536585 33.53658536585366,35.11178861788618 33.28252032520325,35.264227642276424 33.079268292682926,35.46747967479675 32.8760162601626,35.72154471544715 32.6219512195122,35.92479674796748 32.418699186991866,36.1280487804878 32.21544715447154,36.33130081300813 32.012195121951216,36.53455284552845 31.808943089430894,36.78861788617886 31.554878048780488,37.09349593495935 31.351626016260163,37.39837398373984 31.097560975609756,37.7540650406504 30.84349593495935,38.21138211382114 30.538617886178862,38.61788617886179 30.284552845528456,39.07520325203252 30.03048780487805,39.583333333333336 29.725609756097562,40.142276422764226 29.420731707317074,40.7520325203252 29.115853658536583,41.36178861788618 28.912601626016258,41.920731707317074 28.709349593495933,42.479674796747965 28.455284552845526,43.140243902439025 28.20121951219512,43.85162601626016 27.997967479674795,44.512195121951216 27.74390243902439,45.22357723577235 27.540650406504064,45.88414634146341 27.4390243902439,46.49390243902439 27.286585365853657,47.15447154471545 27.184959349593495,47.8150406504065 27.134146341463413,48.47560975609756 27.083333333333332,49.08536585365854 27.083333333333332,49.74593495934959 27.083333333333332,50.40650406504065 27.134146341463413,50.96544715447154 27.235772357723576,51.575203252032516 27.38821138211382,52.235772357723576 27.591463414634145,52.79471544715447 27.84552845528455,53.40447154471545 28.15040650406504,54.014227642276424 28.404471544715445,54.573170731707314 28.760162601626014,55.13211382113821" fill="none" stroke="black" stroke-width="0.6"></polyline><polyline points="28.760162601626014,55.13211382113821 29.115853658536583,55.792682926829265 29.522357723577237,56.35162601626016 29.928861788617887,56.96138211382114 30.4369918699187,57.62195121951219 30.84349593495935,58.231707317073166 31.351626016260163,58.892276422764226 31.859756097560975,59.552845528455286 32.36788617886179,60.16260162601626 32.8760162601626,60.77235772357724 33.4349593495935,61.33130081300813 33.99390243902439,61.78861788617886 34.552845528455286,62.24593495934959 35.16260162601626,62.703252032520325 35.72154471544715,63.05894308943089 36.33130081300813,63.41463414634146 37.042682926829265,63.77032520325203 37.65243902439024,64.07520325203252 38.36382113821138,64.380081300813 39.07520325203252,64.6849593495935 39.735772357723576,64.9390243902439 40.447154471544714,65.1930894308943 41.15853658536585,65.44715447154472 41.76829268292683,65.65040650406505 42.42886178861789,65.85365853658537 43.140243902439025,66.0569105691057 43.75,66.20934959349593 44.41056910569105,66.3109756097561 45.07113821138211,66.46341463414635 45.73170731707317,66.51422764227642 46.392276422764226,66.5650406504065 47.103658536585364,66.61585365853658 47.8150406504065,66.61585365853658 48.577235772357724,66.51422764227642 49.33943089430894,66.41260162601625 50.15243902439024,66.20934959349593 51.016260162601625,65.95528455284553 51.981707317073166,65.59959349593495 52.896341463414636,65.29471544715447 53.86178861788618,64.88821138211382 54.827235772357724,64.53252032520325 55.6910569105691,64.17682926829268 56.605691056910565,63.77032520325203 57.46951219512195,63.41463414634146 58.28252032520325,63.05894308943089 59.146341463414636,62.65243902439024 59.959349593495936,62.24593495934959 60.72154471544715,61.83943089430894 61.483739837398375,61.43292682926829 62.296747967479675,60.92479674796748 63.05894308943089,60.46747967479675" fill="none" stroke="black" stroke-width="0.6"></polyline><polyline points="63.05894308943089,60.46747967479675 63.82113821138211,59.959349593495936 64.58333333333333,59.451219512195124 65.39634146341463,58.892276422764226 66.20934959349593,58.28252032520325 67.02235772357723,57.672764227642276 67.78455284552845,57.11382113821138 68.54674796747967,56.55487804878049 69.2581300813008,56.046747967479675 69.96951219512195,55.48780487804878 70.630081300813,54.979674796747965 71.08739837398373,54.6239837398374 71.54471544715447,54.21747967479675 71.95121951219512,53.86178861788618 72.2560975609756,53.607723577235774 72.45934959349593,53.302845528455286 72.76422764227642,52.9979674796748 72.96747967479675,52.69308943089431 73.27235772357723,52.38821138211382 73.57723577235772,52.03252032520325 73.78048780487805,51.72764227642276 74.03455284552845,51.422764227642276 74.28861788617886,51.11788617886179 74.4410569105691,50.86382113821138 74.64430894308943,50.55894308943089 74.79674796747967,50.2540650406504 74.94918699186992,50 75.10162601626016,49.796747967479675 75.20325203252033,49.542682926829265 75.2540650406504,49.390243902439025 75.30487804878048,49.28861788617886 75.30487804878048,49.136178861788615 75.30487804878048,49.03455284552845 75.35569105691057,48.983739837398375 75.35569105691057,48.93292682926829 75.35569105691057,48.88211382113821 75.35569105691057,48.88211382113821 75.35569105691057,48.83130081300813 75.40650406504065,48.83130081300813 75.40650406504065,48.78048780487805 75.40650406504065,48.78048780487805 75.40650406504065,48.729674796747965 75.45731707317073,48.729674796747965 75.45731707317073,48.729674796747965 75.45731707317073,48.729674796747965 75.45731707317073,48.729674796747965 75.5081300813008,48.729674796747965 75.5081300813008,48.729674796747965 75.5081300813008,48.729674796747965 75.5081300813008,48.729674796747965 75.5081300813008,48.729674796747965" fill="none" stroke="black" stroke-width="0.6"></polyline><polyline points="75.5081300813008,48.729674796747965 75.5081300813008,48.729674796747965 75.5081300813008,48.729674796747965 75.5081300813008,48.729674796747965 75.5081300813008,48.729674796747965 75.5081300813008,48.729674796747965 75.5081300813008,48.729674796747965 75.5081300813008,48.729674796747965 75.5081300813008,48.729674796747965 75.5081300813008,48.729674796747965 75.5081300813008,48.729674796747965 75.5081300813008,48.729674796747965 75.5081300813008,48.729674796747965 75.5081300813008,48.729674796747965 75.5081300813008,48.729674796747965 75.5081300813008,48.729674796747965 75.5081300813008,48.729674796747965 75.5081300813008,48.729674796747965 75.5081300813008,48.729674796747965 75.5081300813008,48.729674796747965 75.5081300813008,48.729674796747965 75.5081300813008,48.729674796747965 75.5081300813008,48.729674796747965 75.5081300813008,48.729674796747965 75.5081300813008,48.729674796747965 75.5081300813008,48.729674796747965 75.5081300813008,48.729674796747965 75.5081300813008,48.729674796747965 75.5081300813008,48.729674796747965 75.5081300813008,48.729674796747965 75.5081300813008,48.729674796747965 75.5081300813008,48.729674796747965 75.5081300813008,48.729674796747965 75.5081300813008,48.729674796747965 75.5081300813008,48.729674796747965 75.5081300813008,48.729674796747965 75.5081300813008,48.729674796747965 75.5081300813008,48.729674796747965 75.5081300813008,48.729674796747965 75.5081300813008,48.729674796747965 75.5081300813008,48.729674796747965 75.5081300813008,48.729674796747965 75.5081300813008,48.729674796747965 75.5081300813008,48.729674796747965 75.5081300813008,48.729674796747965 75.5081300813008,48.729674796747965 75.5081300813008,48.729674796747965 75.5081300813008,48.729674796747965 75.5081300813008,48.729674796747965 75.5081300813008,48.729674796747965 75.5081300813008,48.729674796747965" fill="none" stroke="black" stroke-width="0.6"></polyline><polyline points="75.5081300813008,48.729674796747965 75.5081300813008,48.729674796747965 75.5589430894309,48.729674796747965 75.5589430894309,48.729674796747965 75.60975609756098,48.78048780487805 75.60975609756098,48.78048780487805 75.66056910569105,48.78048780487805 75.76219512195122,48.78048780487805 75.8130081300813,48.83130081300813 75.91463414634146,48.83130081300813 75.96544715447155,48.88211382113821 76.0670731707317,48.88211382113821 76.16869918699187,48.93292682926829 76.21951219512195,48.93292682926829 76.27032520325203,48.93292682926829 76.3719512195122,48.983739837398375 76.42276422764228,48.983739837398375 76.47357723577235,48.983739837398375 76.52439024390243,48.983739837398375 76.57520325203252,48.983739837398375 76.57520325203252,48.983739837398375 76.6260162601626,48.983739837398375 76.6260162601626,48.983739837398375 76.6260162601626,48.983739837398375 76.67682926829268,48.983739837398375 76.67682926829268,48.983739837398375 76.67682926829268,48.983739837398375 76.67682926829268,48.983739837398375 76.67682926829268,48.983739837398375 76.67682926829268,48.983739837398375 76.67682926829268,48.983739837398375 76.67682926829268,48.983739837398375 76.67682926829268,48.983739837398375 76.67682926829268,48.983739837398375 76.67682926829268,48.983739837398375 76.67682926829268,48.983739837398375 76.67682926829268,48.983739837398375 76.67682926829268,48.983739837398375 76.67682926829268,48.983739837398375 76.67682926829268,48.983739837398375 76.67682926829268,48.983739837398375 76.67682926829268,48.983739837398375 76.67682926829268,48.983739837398375 76.67682926829268,48.983739837398375 76.67682926829268,48.983739837398375 76.67682926829268,48.983739837398375 76.67682926829268,48.983739837398375 76.67682926829268,48.983739837398375 76.67682926829268,48.983739837398375 76.67682926829268,48.983739837398375 76.67682926829268,48.983739837398375" fill="none" stroke="black" stroke-width="0.6"></polyline><polyline points="76.67682926829268,48.983739837398375 76.67682926829268,48.983739837398375 76.67682926829268,48.983739837398375 76.67682926829268,48.983739837398375 76.67682926829268,48.983739837398375 76.67682926829268,48.983739837398375 76.67682926829268,48.983739837398375 76.67682926829268,48.983739837398375 76.67682926829268,48.983739837398375 76.67682926829268,48.983739837398375 76.67682926829268,48.983739837398375 76.67682926829268,48.983739837398375 76.67682926829268,48.983739837398375 76.67682926829268,48.983739837398375 76.67682926829268,49.03455284552845" fill="none" stroke="black" stroke-width="0.6"></polyline></svg>