<svg height="100" width="100" preserveAspectRatio="xMidYMid meet"><polyline points="49.28861788617886,50.05081300813008 49.28861788617886,50.05081300813008 49.28861788617886,50.05081300813008 49.28861788617886,50.05081300813008 49.28861788617886,50.05081300813008 49.28861788617886,50.05081300813008 49.28861788617886,50.05081300813008 49.28861788617886,50.05081300813008 49.33943089430894,50.05081300813008 49.33943089430894,50.05081300813008 49.33943089430894,50.05081300813008 49.33943089430894,50 49.33943089430894,50 49.33943089430894,50 49.33943089430894,50 49.33943089430894,50 49.33943089430894,50 49.33943089430894,50 49.33943089430894,50 49.390243902439025,50 49.390243902439025,50 49.390243902439025,50 49.390243902439025,50 49.390243902439025,50 49.390243902439025,50 49.390243902439025,50 49.390243902439025,50 49.390243902439025,50 49.4410569105691,49.949186991869915 49.4410569105691,49.949186991869915 49.4410569105691,49.89837398373984 49.49186991869919,49.84756097560975 49.542682926829265,49.796747967479675 49.59349593495935,49.64430894308943 49.69512195121951,49.49186991869919 49.74593495934959,49.33943089430894 49.84756097560975,49.1869918699187 49.89837398373984,49.03455284552845 49.949186991869915,48.93292682926829 50,48.78048780487805 50.05081300813008,48.6280487804878 50.05081300813008,48.47560975609756 50.05081300813008,48.323170731707314 50.05081300813008,48.170731707317074 50.05081300813008,48.06910569105691 50.05081300813008,47.96747967479675 50.05081300813008,47.86585365853659 50,47.764227642276424 49.949186991869915,47.71341463414634 49.84756097560975,47.66260162601626 49.796747967479675,47.61178861788618" fill="none" stroke="black" stroke-width="0.6"></polyline><polyline points="49.796747967479675,47.61178861788618 49.74593495934959,47.5609756097561 49.64430894308943,47.510162601626014 49.542682926829265,47.510162601626014 49.49186991869919,47.459349593495936 49.390243902439025,47.40853658536585 49.33943089430894,47.40853658536585 49.28861788617886,47.40853658536585 49.1869918699187,47.40853658536585 49.08536585365854,47.40853658536585 48.983739837398375,47.40853658536585 48.88211382113821,47.40853658536585 48.83130081300813,47.40853658536585 48.78048780487805,47.40853658536585 48.729674796747965,47.40853658536585 48.6280487804878,47.40853658536585 48.52642276422764,47.459349593495936 48.42479674796748,47.510162601626014 48.323170731707314,47.5609756097561 48.22154471544715,47.61178861788618 48.11991869918699,47.66260162601626 48.01829268292683,47.764227642276424 47.916666666666664,47.86585365853659 47.8150406504065,47.916666666666664 47.71341463414634,48.01829268292683 47.61178861788618,48.11991869918699 47.510162601626014,48.22154471544715 47.40853658536585,48.3739837398374 47.30691056910569,48.52642276422764 47.20528455284553,48.6280487804878 47.103658536585364,48.78048780487805 47.0020325203252,48.93292682926829 46.951219512195124,49.08536585365854 46.84959349593496,49.1869918699187 46.798780487804876,49.33943089430894 46.7479674796748,49.4410569105691 46.697154471544714,49.59349593495935 46.646341463414636,49.796747967479675 46.59552845528455,49.949186991869915 46.54471544715447,50.15243902439024 46.49390243902439,50.355691056910565 46.49390243902439,50.55894308943089 46.44308943089431,50.71138211382114 46.392276422764226,50.91463414634146 46.392276422764226,51.0670731707317 46.392276422764226,51.21951219512195 46.34146341463415,51.37195121951219 46.34146341463415,51.47357723577235 46.34146341463415,51.6260162601626 46.34146341463415,51.72764227642276 46.34146341463415,51.880081300813" fill="none" stroke="black" stroke-width="0.6"></polyline><polyline points="46.34146341463415,51.880081300813 46.34146341463415,52.03252032520325 46.34146341463415,52.13414634146341 46.34146341463415,52.28658536585366 46.34146341463415,52.4390243902439 46.34146341463415,52.540650406504064 46.392276422764226,52.69308943089431 46.44308943089431,52.896341463414636 46.49390243902439,53.048780487804876 46.54471544715447,53.201219512195124 46.59552845528455,53.353658536585364 46.646341463414636,53.50609756097561 46.697154471544714,53.65853658536585 46.798780487804876,53.8109756097561 46.84959349593496,53.96341463414634 46.951219512195124,54.0650406504065 47.052845528455286,54.166666666666664 47.15447154471545,54.31910569105691 47.25609756097561,54.420731707317074 47.357723577235774,54.52235772357724 47.510162601626014,54.6239837398374 47.66260162601626,54.67479674796748 47.8150406504065,54.77642276422764 47.96747967479675,54.8780487804878 48.11991869918699,54.92886178861789 48.27235772357724,54.979674796747965 48.42479674796748,54.979674796747965 48.577235772357724,55.03048780487805 48.67886178861789,55.08130081300813 48.78048780487805,55.08130081300813 48.93292682926829,55.13211382113821 49.08536585365854,55.13211382113821 49.23780487804878,55.13211382113821 49.390243902439025,55.18292682926829 49.542682926829265,55.18292682926829 49.69512195121951,55.18292682926829 49.84756097560975,55.18292682926829 50,55.18292682926829 50.15243902439024,55.18292682926829 50.2540650406504,55.18292682926829 50.40650406504065,55.18292682926829 50.50813008130081,55.13211382113821 50.66056910569105,55.13211382113821 50.762195121951216,55.08130081300813 50.91463414634146,55.08130081300813 51.016260162601625,55.03048780487805 51.11788617886179,54.979674796747965 51.21951219512195,54.979674796747965 51.37195121951219,54.92886178861789 51.422764227642276,54.92886178861789 51.47357723577235,54.8780487804878" fill="none" stroke="black" stroke-width="0.6"></polyline><polyline points="51.47357723577235,54.8780487804878 51.6260162601626,54.827235772357724 51.77845528455284,54.77642276422764 51.93089430894309,54.77642276422764 52.083333333333336,54.72560975609756 52.235772357723576,54.67479674796748 52.33739837398374,54.6239837398374 52.489837398373986,54.6239837398374 52.642276422764226,54.573170731707314 52.74390243902439,54.573170731707314 52.84552845528455,54.52235772357724 52.947154471544714,54.52235772357724 53.09959349593496,54.47154471544715 53.201219512195124,54.420731707317074 53.302845528455286,54.36991869918699 53.45528455284553,54.31910569105691 53.607723577235774,54.26829268292683 53.709349593495936,54.21747967479675 53.86178861788618,54.11585365853659 54.014227642276424,54.0650406504065 54.0650406504065,54.014227642276424 54.11585365853659,53.96341463414634 54.26829268292683,53.86178861788618 54.36991869918699,53.8109756097561 54.47154471544715,53.709349593495936 54.6239837398374,53.65853658536585 54.67479674796748,53.607723577235774 54.72560975609756,53.607723577235774 54.827235772357724,53.55691056910569 54.92886178861789,53.45528455284553 55.03048780487805,53.40447154471545 55.18292682926829,53.302845528455286 55.28455284552845,53.201219512195124 55.386178861788615,53.09959349593496 55.53861788617886,52.9979674796748 55.640243902439025,52.896341463414636 55.74186991869919,52.79471544715447 55.84349593495935,52.69308943089431 55.94512195121951,52.59146341463415 56.046747967479675,52.489837398373986 56.14837398373984,52.38821138211382 56.199186991869915,52.28658536585366 56.30081300813008,52.235772357723576 56.35162601626016,52.13414634146341 56.453252032520325,51.981707317073166 56.5040650406504,51.93089430894309 56.55487804878049,51.829268292682926 56.605691056910565,51.67682926829268 56.65650406504065,51.575203252032516 56.70731707317073,51.422764227642276 56.75813008130081,51.27032520325203" fill="none" stroke="black" stroke-width="0.6"></polyline><polyline points="56.75813008130081,51.27032520325203 56.80894308943089,51.11788617886179 56.859756097560975,50.96544715447154 56.91056910569105,50.762195121951216 56.96138211382114,50.66056910569105 57.012195121951216,50.50813008130081 57.012195121951216,50.30487804878049 57.0630081300813,50.15243902439024 57.0630081300813,50 57.11382113821138,49.796747967479675 57.11382113821138,49.64430894308943 57.11382113821138,49.4410569105691 57.16463414634146,49.28861788617886 57.16463414634146,49.08536585365854 57.16463414634146,48.93292682926829 57.16463414634146,48.729674796747965 57.16463414634146,48.577235772357724 57.16463414634146,48.42479674796748 57.16463414634146,48.22154471544715 57.16463414634146,48.06910569105691 57.11382113821138,47.916666666666664 57.0630081300813,47.71341463414634 57.0630081300813,47.5609756097561 57.012195121951216,47.357723577235774 56.96138211382114,47.103658536585364 56.91056910569105,46.7479674796748 56.859756097560975,46.44308943089431 56.80894308943089,46.1890243902439 56.80894308943089,46.03658536585366 56.75813008130081,45.9349593495935 56.70731707317073,45.833333333333336 56.605691056910565,45.73170731707317 56.55487804878049,45.63008130081301 56.5040650406504,45.47764227642276 56.40243902439024,45.3760162601626 56.35162601626016,45.27439024390244 56.25,45.172764227642276 56.14837398373984,45.02032520325203 56.046747967479675,44.918699186991866 55.99593495934959,44.8170731707317 55.89430894308943,44.766260162601625 55.792682926829265,44.61382113821138 55.74186991869919,44.5630081300813 55.640243902439025,44.46138211382114 55.53861788617886,44.359756097560975 55.48780487804878,44.30894308943089 55.386178861788615,44.20731707317073 55.28455284552845,44.105691056910565 55.18292682926829,44.05487804878049 55.08130081300813,43.953252032520325 54.979674796747965,43.85162601626016" fill="none" stroke="black" stroke-width="0.6"></polyline><polyline points="54.979674796747965,43.85162601626016 54.8780487804878,43.80081300813008 54.77642276422764,43.699186991869915 54.67479674796748,43.64837398373984 54.573170731707314,43.546747967479675 54.47154471544715,43.49593495934959 54.36991869918699,43.39430894308943 54.26829268292683,43.34349593495935 54.166666666666664,43.24186991869919 54.0650406504065,43.1910569105691 53.91260162601626,43.08943089430894 53.8109756097561,43.03861788617886 53.709349593495936,42.9369918699187 53.607723577235774,42.886178861788615 53.45528455284553,42.83536585365854 53.302845528455286,42.733739837398375 53.15040650406504,42.68292682926829 53.048780487804876,42.58130081300813 52.84552845528455,42.53048780487805 52.69308943089431,42.42886178861789 52.489837398373986,42.3780487804878 52.235772357723576,42.27642276422764 52.03252032520325,42.22560975609756 51.77845528455284,42.1239837398374 51.575203252032516,42.073170731707314 51.32113821138211,42.02235772357724 51.11788617886179,41.97154471544715 50.86382113821138,41.920731707317074 50.66056910569105,41.86991869918699 50.40650406504065,41.81910569105691 50.15243902439024,41.76829268292683 49.949186991869915,41.76829268292683 49.69512195121951,41.71747967479675 49.4410569105691,41.71747967479675 49.1869918699187,41.71747967479675 48.88211382113821,41.71747967479675 48.577235772357724,41.666666666666664 48.47560975609756,41.666666666666664 48.3739837398374,41.666666666666664 48.11991869918699,41.666666666666664 47.916666666666664,41.666666666666664 47.71341463414634,41.666666666666664 47.5609756097561,41.61585365853659 47.40853658536585,41.61585365853659 47.25609756097561,41.61585365853659 47.103658536585364,41.61585365853659 46.951219512195124,41.61585365853659 46.798780487804876,41.61585365853659 46.7479674796748,41.61585365853659 46.646341463414636,41.61585365853659 46.49390243902439,41.61585365853659" fill="none" stroke="black" stroke-width="0.6"></polyline><polyline points="46.49390243902439,41.61585365853659 46.392276422764226,41.61585365853659 46.290650406504064,41.61585365853659 46.1890243902439,41.61585365853659 46.08739837398374,41.61585365853659 46.03658536585366,41.666666666666664 45.9349593495935,41.666666666666664 45.833333333333336,41.71747967479675 45.73170731707317,41.76829268292683 45.68089430894309,41.81910569105691 45.579268292682926,41.86991869918699 45.47764227642276,41.920731707317074 45.42682926829268,42.02235772357724 45.325203252032516,42.073170731707314 45.172764227642276,42.17479674796748 45.07113821138211,42.27642276422764 44.96951219512195,42.3780487804878 44.8170731707317,42.479674796747965 44.66463414634146,42.63211382113821 44.512195121951216,42.733739837398375 44.359756097560975,42.83536585365854 44.25813008130081,42.9369918699187 44.15650406504065,43.03861788617886 44.0040650406504,43.140243902439025 43.90243902439024,43.24186991869919 43.80081300813008,43.39430894308943 43.64837398373984,43.546747967479675 43.49593495934959,43.699186991869915 43.34349593495935,43.85162601626016 43.03861788617886,44.15650406504065 42.78455284552845,44.46138211382114 42.479674796747965,44.766260162601625 42.17479674796748,45.02032520325203 41.97154471544715,45.22357723577235 41.71747967479675,45.3760162601626 41.5650406504065,45.52845528455285 41.46341463414634,45.579268292682926 41.36178861788618,45.63008130081301 41.3109756097561,45.73170731707317 41.260162601626014,45.78252032520325 41.209349593495936,45.833333333333336 41.15853658536585,45.88414634146341 41.107723577235774,45.9349593495935 41.107723577235774,45.985772357723576 41.05691056910569,46.03658536585366 41.05691056910569,46.08739837398374 41.05691056910569,46.13821138211382 41.00609756097561,46.239837398373986 41.00609756097561,46.34146341463415 41.00609756097561,46.392276422764226 40.95528455284553,46.49390243902439" fill="none" stroke="black" stroke-width="0.6"></polyline><polyline points="40.95528455284553,46.49390243902439 40.95528455284553,46.59552845528455 40.90447154471545,46.7479674796748 40.853658536585364,46.84959349593496 40.802845528455286,47.052845528455286 40.701219512195124,47.30691056910569 40.65040650406504,47.510162601626014 40.548780487804876,47.764227642276424 40.447154471544714,47.96747967479675 40.396341463414636,48.06910569105691 40.396341463414636,48.170731707317074 40.29471544715447,48.42479674796748 40.24390243902439,48.6280487804878 40.142276422764226,48.83130081300813 40.09146341463415,49.03455284552845 40.040650406504064,49.1869918699187 39.989837398373986,49.390243902439025 39.9390243902439,49.59349593495935 39.88821138211382,49.796747967479675 39.88821138211382,50 39.83739837398374,50.203252032520325 39.78658536585366,50.40650406504065 39.78658536585366,50.609756097560975 39.735772357723576,50.8130081300813 39.735772357723576,51.016260162601625 39.6849593495935,51.27032520325203 39.6849593495935,51.47357723577235 39.6849593495935,51.67682926829268 39.6849593495935,51.829268292682926 39.6849593495935,52.03252032520325 39.6849593495935,52.235772357723576 39.6849593495935,52.38821138211382 39.6849593495935,52.540650406504064 39.6849593495935,52.74390243902439 39.6849593495935,52.947154471544714 39.735772357723576,53.15040650406504 39.78658536585366,53.353658536585364 39.83739837398374,53.50609756097561 39.83739837398374,53.65853658536585 39.9390243902439,53.8109756097561 39.9390243902439,53.96341463414634 39.989837398373986,54.0650406504065 40.040650406504064,54.21747967479675 40.142276422764226,54.420731707317074 40.142276422764226,54.52235772357724 40.19308943089431,54.6239837398374 40.24390243902439,55.03048780487805 40.34552845528455,55.386178861788615 40.396341463414636,55.6910569105691 40.447154471544714,55.99593495934959 40.4979674796748,56.25" fill="none" stroke="black" stroke-width="0.6"></polyline><polyline points="40.4979674796748,56.25 40.59959349593496,56.453252032520325 40.65040650406504,56.65650406504065 40.7520325203252,56.859756097560975 40.802845528455286,57.0630081300813 40.95528455284553,57.3170731707317 41.05691056910569,57.52032520325203 41.209349593495936,57.77439024390244 41.3109756097561,57.92682926829268 41.41260162601626,58.02845528455284 41.514227642276424,58.130081300813 41.666666666666664,58.231707317073166 41.76829268292683,58.33333333333333 41.86991869918699,58.38414634146341 41.97154471544715,58.485772357723576 42.073170731707314,58.536585365853654 42.17479674796748,58.63821138211382 42.27642276422764,58.6890243902439 42.327235772357724,58.739837398373986 42.42886178861789,58.84146341463415 42.53048780487805,58.892276422764226 42.63211382113821,58.94308943089431 42.733739837398375,58.99390243902439 42.83536585365854,59.04471544715447 42.9369918699187,59.146341463414636 43.08943089430894,59.197154471544714 43.24186991869919,59.298780487804876 43.34349593495935,59.34959349593496 43.49593495934959,59.451219512195124 43.699186991869915,59.552845528455286 43.85162601626016,59.603658536585364 44.0040650406504,59.65447154471545 44.15650406504065,59.75609756097561 44.359756097560975,59.80691056910569 44.512195121951216,59.857723577235774 44.66463414634146,59.959349593495936 44.8170731707317,60.010162601626014 45.02032520325203,60.0609756097561 45.172764227642276,60.11178861788618 45.3760162601626,60.16260162601626 45.52845528455285,60.21341463414634 45.73170731707317,60.264227642276424 45.88414634146341,60.3150406504065 46.03658536585366,60.36585365853659 46.1890243902439,60.36585365853659 46.34146341463415,60.416666666666664 46.44308943089431,60.46747967479675 46.59552845528455,60.51829268292683 46.697154471544714,60.51829268292683 46.798780487804876,60.56910569105691 46.951219512195124,60.61991869918699" fill="none" stroke="black" stroke-width="0.6"></polyline><polyline points="46.951219512195124,60.61991869918699 47.0020325203252,60.61991869918699 47.052845528455286,60.670731707317074 47.15447154471545,60.670731707317074 47.25609756097561,60.72154471544715 47.357723577235774,60.77235772357724 47.459349593495936,60.77235772357724 47.5609756097561,60.823170731707314 47.66260162601626,60.823170731707314 47.764227642276424,60.8739837398374 47.8150406504065,60.8739837398374 47.916666666666664,60.92479674796748 47.96747967479675,60.92479674796748 48.01829268292683,60.92479674796748 48.06910569105691,60.97560975609756 48.170731707317074,60.97560975609756 48.27235772357724,61.02642276422764 48.3739837398374,61.02642276422764 48.47560975609756,61.077235772357724 48.6280487804878,61.1280487804878 48.729674796747965,61.1280487804878 48.83130081300813,61.17886178861789 48.983739837398375,61.229674796747965 49.08536585365854,61.229674796747965 49.23780487804878,61.28048780487805 49.33943089430894,61.33130081300813 49.49186991869919,61.33130081300813 49.64430894308943,61.38211382113821 49.796747967479675,61.43292682926829 49.949186991869915,61.43292682926829 50.15243902439024,61.483739837398375 50.30487804878049,61.483739837398375 50.50813008130081,61.483739837398375 50.66056910569105,61.53455284552845 50.86382113821138,61.53455284552845 51.016260162601625,61.53455284552845 51.21951219512195,61.58536585365854 51.422764227642276,61.58536585365854 51.6260162601626,61.58536585365854 51.77845528455284,61.58536585365854 52.03252032520325,61.58536585365854 52.235772357723576,61.53455284552845 52.4390243902439,61.53455284552845 52.69308943089431,61.483739837398375 52.947154471544714,61.43292682926829 53.15040650406504,61.38211382113821 53.353658536585364,61.38211382113821 53.55691056910569,61.33130081300813 53.760162601626014,61.28048780487805 53.96341463414634,61.229674796747965 54.11585365853659,61.229674796747965" fill="none" stroke="black" stroke-width="0.6"></polyline><polyline points="54.11585365853659,61.229674796747965 54.26829268292683,61.17886178861789 54.420731707317074,61.1280487804878 54.52235772357724,61.077235772357724 54.67479674796748,61.02642276422764 54.827235772357724,61.02642276422764 54.92886178861789,60.97560975609756 55.03048780487805,60.92479674796748 55.13211382113821,60.8739837398374 55.18292682926829,60.8739837398374 55.28455284552845,60.823170731707314 55.386178861788615,60.77235772357724 55.53861788617886,60.72154471544715 55.640243902439025,60.670731707317074 55.74186991869919,60.61991869918699 55.89430894308943,60.56910569105691 55.99593495934959,60.46747967479675 56.09756097560975,60.416666666666664 56.25,60.36585365853659 56.35162601626016,60.264227642276424 56.453252032520325,60.21341463414634 56.605691056910565,60.11178861788618 56.70731707317073,60.0609756097561 56.80894308943089,60.010162601626014 56.91056910569105,59.959349593495936 57.012195121951216,59.90853658536585 57.16463414634146,59.80691056910569 57.266260162601625,59.75609756097561 57.418699186991866,59.65447154471545 57.46951219512195,59.603658536585364 57.57113821138211,59.552845528455286 57.672764227642276,59.5020325203252 57.8760162601626,59.34959349593496 58.02845528455284,59.2479674796748 58.231707317073166,59.09552845528455 58.38414634146341,58.94308943089431 58.58739837398374,58.84146341463415 58.739837398373986,58.6890243902439 58.94308943089431,58.536585365853654 59.09552845528455,58.38414634146341 59.298780487804876,58.231707317073166 59.451219512195124,58.079268292682926 59.603658536585364,57.92682926829268 59.75609756097561,57.77439024390244 59.959349593495936,57.62195121951219 60.11178861788618,57.46951219512195 60.264227642276424,57.3170731707317 60.416666666666664,57.11382113821138 60.56910569105691,56.91056910569105 60.72154471544715,56.70731707317073 60.77235772357724,56.605691056910565" fill="none" stroke="black" stroke-width="0.6"></polyline><polyline points="60.77235772357724,56.605691056910565 60.823170731707314,56.55487804878049 60.97560975609756,56.35162601626016 61.1280487804878,56.14837398373984 61.229674796747965,55.89430894308943 61.38211382113821,55.640243902439025 61.53455284552845,55.4369918699187 61.636178861788615,55.233739837398375 61.78861788617886,54.979674796747965 61.9410569105691,54.77642276422764 62.09349593495935,54.573170731707314 62.24593495934959,54.31910569105691 62.34756097560975,54.0650406504065 62.449186991869915,53.86178861788618 62.55081300813008,53.65853658536585 62.65243902439024,53.45528455284553 62.703252032520325,53.302845528455286 62.80487804878049,53.09959349593496 62.855691056910565,52.896341463414636 62.90650406504065,52.69308943089431 62.95731707317073,52.489837398373986 63.00813008130081,52.38821138211382 63.00813008130081,52.28658536585366 63.05894308943089,52.03252032520325 63.109756097560975,51.829268292682926 63.16056910569105,51.6260162601626 63.16056910569105,51.422764227642276 63.21138211382114,51.21951219512195 63.21138211382114,51.016260162601625 63.262195121951216,50.86382113821138 63.262195121951216,50.66056910569105 63.262195121951216,50.50813008130081 63.262195121951216,50.30487804878049 63.3130081300813,50.10162601626016 63.3130081300813,49.89837398373984 63.3130081300813,49.64430894308943 63.36382113821138,49.390243902439025 63.36382113821138,49.1869918699187 63.36382113821138,48.983739837398375 63.36382113821138,48.729674796747965 63.36382113821138,48.577235772357724 63.36382113821138,48.3739837398374 63.36382113821138,48.170731707317074 63.36382113821138,47.96747967479675 63.3130081300813,47.764227642276424 63.3130081300813,47.510162601626014 63.262195121951216,47.30691056910569 63.262195121951216,47.20528455284553 63.262195121951216,47.103658536585364 63.262195121951216,46.90040650406504 63.21138211382114,46.697154471544714" fill="none" stroke="black" stroke-width="0.6"></polyline><polyline points="63.21138211382114,46.697154471544714 63.16056910569105,46.392276422764226 63.16056910569105,46.13821138211382 63.16056910569105,45.9349593495935 63.109756097560975,45.68089430894309 63.109756097560975,45.52845528455285 63.05894308943089,45.325203252032516 63.05894308943089,45.172764227642276 63.00813008130081,44.96951219512195 63.00813008130081,44.8170731707317 62.95731707317073,44.61382113821138 62.90650406504065,44.46138211382114 62.855691056910565,44.25813008130081 62.80487804878049,44.105691056910565 62.7540650406504,43.90243902439024 62.703252032520325,43.75 62.65243902439024,43.59756097560975 62.60162601626016,43.44512195121951 62.60162601626016,43.34349593495935 62.55081300813008,43.24186991869919 62.5,43.08943089430894 62.39837398373984,42.886178861788615 62.34756097560975,42.733739837398375 62.296747967479675,42.58130081300813 62.24593495934959,42.42886178861789 62.19512195121951,42.27642276422764 62.09349593495935,42.17479674796748 62.042682926829265,42.02235772357724 61.99186991869919,41.920731707317074 61.890243902439025,41.76829268292683 61.83943089430894,41.666666666666664 61.78861788617886,41.514227642276424 61.6869918699187,41.41260162601626 61.636178861788615,41.3109756097561 61.53455284552845,41.15853658536585 61.43292682926829,41.00609756097561 61.33130081300813,40.853658536585364 61.229674796747965,40.701219512195124 61.1280487804878,40.548780487804876 61.02642276422764,40.396341463414636 60.92479674796748,40.29471544715447 60.823170731707314,40.142276422764226 60.670731707317074,40.040650406504064 60.56910569105691,39.88821138211382 60.416666666666664,39.78658536585366 60.3150406504065,39.6849593495935 60.21341463414634,39.583333333333336 60.0609756097561,39.43089430894309 59.90853658536585,39.329268292682926 59.80691056910569,39.22764227642276 59.65447154471545,39.07520325203252" fill="none" stroke="black" stroke-width="0.6"></polyline><polyline points="59.65447154471545,39.07520325203252 59.5020325203252,38.97357723577235 59.34959349593496,38.82113821138211 59.197154471544714,38.71951219512195 59.04471544715447,38.5670731707317 58.892276422764226,38.46544715447154 58.790650406504064,38.36382113821138 58.63821138211382,38.3130081300813 58.536585365853654,38.21138211382114 58.38414634146341,38.109756097560975 58.28252032520325,38.00813008130081 58.130081300813,37.95731707317073 57.97764227642276,37.855691056910565 57.8760162601626,37.80487804878049 57.72357723577235,37.703252032520325 57.62195121951219,37.60162601626016 57.46951219512195,37.55081300813008 57.3170731707317,37.449186991869915 57.21544715447154,37.34756097560975 57.11382113821138,37.34756097560975 57.0630081300813,37.296747967479675 56.91056910569105,37.19512195121951 56.80894308943089,37.14430894308943 56.65650406504065,37.09349593495935 56.55487804878049,36.99186991869919 56.40243902439024,36.9410569105691 56.25,36.890243902439025 56.09756097560975,36.78861788617886 55.94512195121951,36.73780487804878 55.792682926829265,36.636178861788615 55.58943089430894,36.53455284552845 55.4369918699187,36.483739837398375 55.28455284552845,36.43292682926829 55.08130081300813,36.33130081300813 54.92886178861789,36.28048780487805 54.72560975609756,36.229674796747965 54.573170731707314,36.17886178861789 54.420731707317074,36.1280487804878 54.21747967479675,36.077235772357724 54.0650406504065,36.02642276422764 53.91260162601626,35.97560975609756 53.709349593495936,35.97560975609756 53.55691056910569,35.92479674796748 53.353658536585364,35.8739837398374 53.201219512195124,35.823170731707314 52.9979674796748,35.77235772357724 52.84552845528455,35.77235772357724 52.69308943089431,35.72154471544715 52.540650406504064,35.670731707317074 52.38821138211382,35.670731707317074 52.235772357723576,35.670731707317074" fill="none" stroke="black" stroke-width="0.6"></polyline><polyline points="52.235772357723576,35.670731707317074 52.083333333333336,35.61991869918699 51.93089430894309,35.61991869918699 51.77845528455284,35.56910569105691 51.575203252032516,35.56910569105691 51.422764227642276,35.56910569105691 51.21951219512195,35.51829268292683 51.0670731707317,35.51829268292683 50.91463414634146,35.46747967479675 50.762195121951216,35.46747967479675 50.609756097560975,35.46747967479675 50.45731707317073,35.416666666666664 50.30487804878049,35.416666666666664 50.15243902439024,35.416666666666664 50,35.416666666666664 49.84756097560975,35.416666666666664 49.69512195121951,35.36585365853659 49.542682926829265,35.36585365853659 49.390243902439025,35.36585365853659 49.1869918699187,35.36585365853659 49.03455284552845,35.36585365853659 48.88211382113821,35.36585365853659 48.729674796747965,35.36585365853659 48.577235772357724,35.36585365853659 48.3739837398374,35.36585365853659 48.22154471544715,35.36585365853659 48.01829268292683,35.36585365853659 47.8150406504065,35.36585365853659 47.5609756097561,35.36585365853659 47.30691056910569,35.416666666666664 47.052845528455286,35.51829268292683 46.7479674796748,35.56910569105691 46.49390243902439,35.61991869918699 46.290650406504064,35.61991869918699 46.08739837398374,35.670731707317074 45.9349593495935,35.670731707317074 45.73170731707317,35.72154471544715 45.52845528455285,35.72154471544715 45.3760162601626,35.77235772357724 45.22357723577235,35.77235772357724 45.07113821138211,35.823170731707314 44.86788617886179,35.823170731707314 44.71544715447154,35.8739837398374 44.512195121951216,35.92479674796748 44.359756097560975,35.97560975609756 44.20731707317073,35.97560975609756 44.05487804878049,36.02642276422764 43.90243902439024,36.077235772357724 43.75,36.1280487804878 43.59756097560975,36.17886178861789 43.49593495934959,36.229674796747965" fill="none" stroke="black" stroke-width="0.6"></polyline><polyline points="43.49593495934959,36.229674796747965 43.34349593495935,36.33130081300813 43.1910569105691,36.38211382113821 43.03861788617886,36.43292682926829 42.886178861788615,36.53455284552845 42.733739837398375,36.58536585365854 42.58130081300813,36.6869918699187 42.42886178861789,36.78861788617886 42.27642276422764,36.83943089430894 42.17479674796748,36.9410569105691 42.02235772357724,37.042682926829265 41.86991869918699,37.09349593495935 41.71747967479675,37.19512195121951 41.5650406504065,37.296747967479675 41.41260162601626,37.39837398373984 41.260162601626014,37.55081300813008 41.05691056910569,37.703252032520325 40.802845528455286,37.90650406504065 40.4979674796748,38.21138211382114 40.09146341463415,38.516260162601625 39.329268292682926,38.97357723577235 38.922764227642276,39.22764227642276 38.5670731707317,39.43089430894309 38.21138211382114,39.63414634146341 37.855691056910565,39.83739837398374 37.60162601626016,39.989837398373986 37.296747967479675,40.19308943089431 37.042682926829265,40.34552845528455 36.83943089430894,40.447154471544714 36.636178861788615,40.4979674796748 36.483739837398375,40.59959349593496 36.33130081300813,40.701219512195124 36.229674796747965,40.802845528455286 36.077235772357724,40.853658536585364 36.02642276422764,40.95528455284553 35.92479674796748,41.05691056910569 35.823170731707314,41.209349593495936 35.72154471544715,41.36178861788618 35.56910569105691,41.61585365853659 35.46747967479675,41.86991869918699 35.3150406504065,42.17479674796748 35.21341463414634,42.3780487804878 35.11178861788618,42.58130081300813 35.010162601626014,42.68292682926829 34.959349593495936,42.78455284552845 34.90853658536585,42.9369918699187 34.857723577235774,43.08943089430894 34.80691056910569,43.24186991869919 34.75609756097561,43.39430894308943 34.70528455284553,43.44512195121951 34.70528455284553,43.699186991869915" fill="none" stroke="black" stroke-width="0.6"></polyline><polyline points="34.70528455284553,43.699186991869915 34.65447154471545,43.90243902439024 34.603658536585364,44.105691056910565 34.552845528455286,44.30894308943089 34.5020325203252,44.46138211382114 34.5020325203252,44.66463414634146 34.451219512195124,44.86788617886179 34.40040650406504,45.07113821138211 34.34959349593496,45.27439024390244 34.34959349593496,45.52845528455285 34.298780487804876,45.73170731707317 34.2479674796748,45.9349593495935 34.197154471544714,46.1890243902439 34.146341463414636,46.44308943089431 34.09552845528455,46.697154471544714 34.04471544715447,46.951219512195124 33.99390243902439,47.15447154471545 33.94308943089431,47.40853658536585 33.892276422764226,47.66260162601626 33.892276422764226,47.8150406504065 33.84146341463415,47.916666666666664 33.84146341463415,48.22154471544715 33.790650406504064,48.47560975609756 33.790650406504064,48.729674796747965 33.739837398373986,48.983739837398375 33.739837398373986,49.28861788617886 33.739837398373986,49.542682926829265 33.739837398373986,49.796747967479675 33.739837398373986,50.15243902439024 33.739837398373986,50.40650406504065 33.739837398373986,50.66056910569105 33.739837398373986,50.96544715447154 33.739837398373986,51.27032520325203 33.790650406504064,51.52439024390244 33.790650406504064,51.77845528455284 33.790650406504064,52.03252032520325 33.84146341463415,52.28658536585366 33.84146341463415,52.642276422764226 33.892276422764226,53.15040650406504 33.94308943089431,53.55691056910569 33.94308943089431,53.86178861788618 33.94308943089431,54.014227642276424 33.94308943089431,54.21747967479675 33.99390243902439,54.420731707317074 33.99390243902439,54.6239837398374 34.04471544715447,54.8780487804878 34.09552845528455,55.13211382113821 34.146341463414636,55.33536585365854 34.197154471544714,55.53861788617886 34.2479674796748,55.74186991869919 34.298780487804876,55.94512195121951" fill="none" stroke="black" stroke-width="0.6"></polyline><polyline points="34.298780487804876,55.94512195121951 34.34959349593496,56.14837398373984 34.451219512195124,56.35162601626016 34.451219512195124,56.55487804878049 34.5020325203252,56.75813008130081 34.552845528455286,56.96138211382114 34.603658536585364,57.16463414634146 34.65447154471545,57.36788617886179 34.75609756097561,57.62195121951219 34.80691056910569,57.8760162601626 34.80691056910569,58.079268292682926 34.90853658536585,58.28252032520325 34.959349593495936,58.485772357723576 35.010162601626014,58.739837398373986 35.11178861788618,58.99390243902439 35.16260162601626,59.298780487804876 35.264227642276424,59.65447154471545 35.36585365853659,60.010162601626014 35.46747967479675,60.3150406504065 35.56910569105691,60.61991869918699 35.61991869918699,60.97560975609756 35.72154471544715,61.229674796747965 35.823170731707314,61.53455284552845 35.8739837398374,61.6869918699187 35.97560975609756,61.890243902439025 36.077235772357724,62.09349593495935 36.1280487804878,62.24593495934959 36.229674796747965,62.34756097560975 36.33130081300813,62.55081300813008 36.43292682926829,62.703252032520325 36.53455284552845,62.855691056910565 36.6869918699187,63.00813008130081 36.78861788617886,63.16056910569105 36.890243902439025,63.3130081300813 37.042682926829265,63.46544715447154 37.14430894308943,63.61788617886179 37.24593495934959,63.71951219512195 37.39837398373984,63.87195121951219 37.5,63.97357723577235 37.65243902439024,64.1260162601626 37.80487804878049,64.22764227642276 37.90650406504065,64.380081300813 38.05894308943089,64.48170731707317 38.21138211382114,64.6341463414634 38.3130081300813,64.73577235772358 38.46544715447154,64.88821138211382 38.61788617886179,64.98983739837398 38.77032520325203,65.09146341463415 38.87195121951219,65.1930894308943 39.02439024390244,65.34552845528455 39.176829268292686,65.44715447154472" fill="none" stroke="black" stroke-width="0.6"></polyline><polyline points="39.176829268292686,65.44715447154472 39.329268292682926,65.54878048780488 39.48170731707317,65.65040650406505 39.63414634146341,65.7520325203252 39.83739837398374,65.85365853658537 40.040650406504064,66.0060975609756 40.29471544715447,66.20934959349593 40.59959349593496,66.36178861788618 40.90447154471545,66.51422764227642 41.15853658536585,66.61585365853658 41.46341463414634,66.76829268292683 41.76829268292683,66.869918699187 42.073170731707314,66.97154471544715 42.42886178861789,67.1239837398374 42.78455284552845,67.22560975609755 43.140243902439025,67.32723577235772 43.49593495934959,67.3780487804878 43.85162601626016,67.47967479674797 44.15650406504065,67.53048780487805 44.512195121951216,67.58130081300813 44.86788617886179,67.6829268292683 45.172764227642276,67.73373983739837 45.47764227642276,67.78455284552845 45.78252032520325,67.83536585365853 45.985772357723576,67.88617886178862 46.239837398373986,67.98780487804878 46.49390243902439,68.03861788617886 46.697154471544714,68.08943089430895 46.90040650406504,68.14024390243902 47.103658536585364,68.1910569105691 47.25609756097561,68.24186991869918 47.459349593495936,68.29268292682927 47.61178861788618,68.34349593495935 47.764227642276424,68.34349593495935 47.916666666666664,68.39430894308943 48.06910569105691,68.4451219512195 48.170731707317074,68.4451219512195 48.27235772357724,68.4959349593496 48.42479674796748,68.4959349593496 48.52642276422764,68.54674796747967 48.67886178861789,68.59756097560975 48.78048780487805,68.59756097560975 48.88211382113821,68.64837398373983 49.03455284552845,68.64837398373983 49.136178861788615,68.64837398373983 49.23780487804878,68.69918699186992 49.390243902439025,68.69918699186992 49.49186991869919,68.69918699186992 49.59349593495935,68.69918699186992 49.69512195121951,68.69918699186992 49.84756097560975,68.75" fill="none" stroke="black" stroke-width="0.6"></polyline><polyline points="49.84756097560975,68.75 49.949186991869915,68.75 50.10162601626016,68.75 50.2540650406504,68.75 50.40650406504065,68.75 50.55894308943089,68.75 50.762195121951216,68.75 50.91463414634146,68.75 51.21951219512195,68.75 51.47357723577235,68.75 51.6260162601626,68.75 51.77845528455284,68.69918699186992 52.13414634146341,68.64837398373983 52.4390243902439,68.59756097560975 52.79471544715447,68.4959349593496 53.201219512195124,68.4451219512195 53.55691056910569,68.34349593495935 53.96341463414634,68.24186991869918 54.420731707317074,68.14024390243902 54.72560975609756,68.03861788617886 55.08130081300813,67.9369918699187 55.4369918699187,67.83536585365853 55.6910569105691,67.73373983739837 55.99593495934959,67.6829268292683 56.30081300813008,67.58130081300813 56.55487804878049,67.53048780487805 56.75813008130081,67.47967479674797 57.012195121951216,67.42886178861788 57.21544715447154,67.32723577235772 57.46951219512195,67.27642276422765 57.672764227642276,67.22560975609755 57.825203252032516,67.17479674796748 57.97764227642276,67.07317073170732 58.18089430894309,67.02235772357723 58.28252032520325,66.97154471544715 58.43495934959349,66.92073170731707 58.536585365853654,66.869918699187 58.63821138211382,66.8191056910569 58.790650406504064,66.76829268292683 58.892276422764226,66.66666666666667 58.99390243902439,66.61585365853658 59.09552845528455,66.5650406504065 59.197154471544714,66.51422764227642 59.298780487804876,66.46341463414635 59.40040650406504,66.41260162601625 59.5020325203252,66.3109756097561 59.603658536585364,66.26016260162602 59.65447154471545,66.15853658536585 59.75609756097561,66.10772357723577 59.857723577235774,66.0569105691057 59.959349593495936,65.95528455284553" fill="none" stroke="black" stroke-width="0.6"></polyline><polyline points="59.959349593495936,65.95528455284553 60.0609756097561,65.85365853658537 60.16260162601626,65.80284552845528 60.264227642276424,65.70121951219512 60.416666666666664,65.59959349593495 60.51829268292683,65.4979674796748 60.61991869918699,65.34552845528455 60.77235772357724,65.2439024390244 60.92479674796748,65.09146341463415 61.077235772357724,64.9390243902439 61.28048780487805,64.78658536585365 61.43292682926829,64.58333333333333 61.636178861788615,64.43089430894308 61.78861788617886,64.27845528455285 61.99186991869919,64.07520325203252 62.19512195121951,63.922764227642276 62.34756097560975,63.71951219512195 62.5,63.5670731707317 62.703252032520325,63.36382113821138 62.90650406504065,63.16056910569105 63.05894308943089,63.00813008130081 63.21138211382114,62.80487804878049 63.36382113821138,62.65243902439024 63.516260162601625,62.449186991869915 63.668699186991866,62.24593495934959 63.82113821138211,62.09349593495935 63.97357723577235,61.9410569105691 64.17682926829268,61.78861788617886 64.27845528455285,61.58536585365854 64.43089430894308,61.43292682926829 64.6341463414634,61.28048780487805 64.78658536585365,61.1280487804878 64.9390243902439,60.97560975609756 65.09146341463415,60.77235772357724 65.2439024390244,60.61991869918699 65.39634146341463,60.46747967479675 65.44715447154472,60.416666666666664 65.54878048780488,60.3150406504065 65.70121951219512,60.16260162601626 65.85365853658537,60.010162601626014 66.0060975609756,59.80691056910569 66.10772357723577,59.65447154471545 66.26016260162602,59.451219512195124 66.41260162601625,59.298780487804876 66.5650406504065,59.146341463414636 66.66666666666667,58.94308943089431 66.8191056910569,58.739837398373986 66.97154471544715,58.58739837398374 67.07317073170732,58.43495934959349 67.22560975609755,58.231707317073166 67.3780487804878,58.079268292682926" fill="none" stroke="black" stroke-width="0.6"></polyline><polyline points="67.3780487804878,58.079268292682926 67.47967479674797,57.92682926829268 67.6321138211382,57.72357723577235 67.73373983739837,57.57113821138211 67.83536585365853,57.46951219512195 67.9369918699187,57.266260162601625 68.03861788617886,57.11382113821138 68.14024390243902,56.96138211382114 68.24186991869918,56.80894308943089 68.29268292682927,56.605691056910565 68.39430894308943,56.40243902439024 68.4959349593496,56.199186991869915 68.59756097560975,55.99593495934959 68.69918699186992,55.84349593495935 68.80081300813008,55.640243902439025 68.90243902439025,55.48780487804878 68.95325203252033,55.33536585365854 69.05487804878048,55.13211382113821 69.15650406504065,54.92886178861789 69.20731707317073,54.72560975609756 69.3089430894309,54.52235772357724 69.41056910569105,54.36991869918699 69.46138211382113,54.166666666666664 69.5630081300813,53.96341463414634 69.61382113821138,53.760162601626014 69.66463414634146,53.607723577235774 69.76626016260163,53.40447154471545 69.8170731707317,53.201219512195124 69.86788617886178,52.9979674796748 69.91869918699187,52.84552845528455 69.96951219512195,52.642276422764226 70.02032520325203,52.38821138211382 70.0711382113821,52.1849593495935 70.1219512195122,51.981707317073166 70.17276422764228,51.77845528455284 70.17276422764228,51.575203252032516 70.22357723577235,51.37195121951219 70.27439024390243,51.168699186991866 70.27439024390243,50.96544715447154 70.32520325203252,50.762195121951216 70.32520325203252,50.55894308943089 70.3760162601626,50.355691056910565 70.3760162601626,50.15243902439024 70.42682926829268,49.949186991869915 70.42682926829268,49.74593495934959 70.42682926829268,49.542682926829265 70.47764227642276,49.33943089430894 70.47764227642276,49.136178861788615 70.47764227642276,48.93292682926829 70.47764227642276,48.729674796747965 70.47764227642276,48.47560975609756" fill="none" stroke="black" stroke-width="0.6"></polyline><polyline points="70.47764227642276,48.47560975609756 70.47764227642276,48.27235772357724 70.47764227642276,48.01829268292683 70.47764227642276,47.764227642276424 70.47764227642276,47.5609756097561 70.47764227642276,47.30691056910569 70.47764227642276,47.15447154471545 70.42682926829268,46.951219512195124 70.42682926829268,46.7479674796748 70.3760162601626,46.54471544715447 70.32520325203252,46.34146341463415 70.32520325203252,46.08739837398374 70.27439024390243,45.88414634146341 70.22357723577235,45.68089430894309 70.22357723577235,45.3760162601626 70.17276422764228,45.12195121951219 70.1219512195122,44.86788617886179 70.0711382113821,44.5630081300813 70.02032520325203,44.30894308943089 69.96951219512195,44.0040650406504 69.86788617886178,43.699186991869915 69.8170731707317,43.34349593495935 69.71544715447155,43.08943089430894 69.61382113821138,42.78455284552845 69.5630081300813,42.53048780487805 69.46138211382113,42.27642276422764 69.41056910569105,42.073170731707314 69.3089430894309,41.86991869918699 69.20731707317073,41.61585365853659 69.10569105691057,41.36178861788618 69.0040650406504,41.107723577235774 68.95325203252033,40.853658536585364 68.85162601626016,40.65040650406504 68.75,40.396341463414636 68.64837398373983,40.19308943089431 68.54674796747967,39.9390243902439 68.4451219512195,39.735772357723576 68.34349593495935,39.48170731707317 68.24186991869918,39.27845528455285 68.14024390243902,39.02439024390244 68.03861788617886,38.82113821138211 67.9369918699187,38.61788617886179 67.88617886178862,38.46544715447154 67.78455284552845,38.262195121951216 67.6321138211382,38.05894308943089 67.53048780487805,37.855691056910565 67.42886178861788,37.703252032520325 67.27642276422765,37.449186991869915 67.17479674796748,37.296747967479675 67.07317073170732,37.09349593495935 66.92073170731707,36.890243902439025" fill="none" stroke="black" stroke-width="0.6"></polyline><polyline points="66.92073170731707,36.890243902439025 66.76829268292683,36.6869918699187 66.71747967479675,36.58536585365854 66.66666666666667,36.483739837398375 66.5650406504065,36.28048780487805 66.41260162601625,36.1280487804878 66.3109756097561,35.92479674796748 66.15853658536585,35.77235772357724 66.0569105691057,35.61991869918699 65.90447154471545,35.416666666666664 65.80284552845528,35.264227642276424 65.65040650406505,35.11178861788618 65.44715447154472,34.90853658536585 65.29471544715447,34.75609756097561 65.14227642276423,34.603658536585364 64.98983739837398,34.451219512195124 64.88821138211382,34.34959349593496 64.73577235772358,34.197154471544714 64.58333333333333,34.04471544715447 64.43089430894308,33.892276422764226 64.27845528455285,33.739837398373986 64.1260162601626,33.58739837398374 63.97357723577235,33.4349593495935 63.82113821138211,33.333333333333336 63.668699186991866,33.18089430894309 63.5670731707317,33.02845528455285 63.41463414634146,32.926829268292686 63.262195121951216,32.77439024390244 63.109756097560975,32.6219512195122 62.95731707317073,32.46951219512195 62.7540650406504,32.3170731707317 62.60162601626016,32.16463414634146 62.449186991869915,32.012195121951216 62.24593495934959,31.859756097560975 62.09349593495935,31.70731707317073 61.9410569105691,31.60569105691057 61.78861788617886,31.453252032520325 61.636178861788615,31.351626016260163 61.483739837398375,31.25 61.28048780487805,31.148373983739837 61.1280487804878,30.995934959349594 60.92479674796748,30.89430894308943 60.77235772357724,30.79268292682927 60.56910569105691,30.640243902439025 60.36585365853659,30.538617886178862 60.16260162601626,30.38617886178862 60.010162601626014,30.284552845528456 59.80691056910569,30.182926829268293 59.552845528455286,30.08130081300813 59.34959349593496,29.979674796747968 59.146341463414636,29.878048780487806" fill="none" stroke="black" stroke-width="0.6"></polyline><polyline points="59.146341463414636,29.878048780487806 58.94308943089431,29.725609756097562 58.739837398373986,29.67479674796748 58.536585365853654,29.573170731707318 58.33333333333333,29.471544715447155 58.130081300813,29.369918699186993 57.92682926829268,29.31910569105691 57.672764227642276,29.217479674796746 57.46951219512195,29.115853658536583 57.266260162601625,29.0650406504065 57.012195121951216,28.96341463414634 56.80894308943089,28.861788617886177 56.605691056910565,28.810975609756095 56.35162601626016,28.760162601626014 56.14837398373984,28.65853658536585 55.94512195121951,28.60772357723577 55.74186991869919,28.55691056910569 55.53861788617886,28.455284552845526 55.28455284552845,28.404471544715445 55.08130081300813,28.353658536585364 54.8780487804878,28.302845528455283 54.6239837398374,28.2520325203252 54.420731707317074,28.20121951219512 54.21747967479675,28.15040650406504 54.014227642276424,28.099593495934958 53.8109756097561,28.099593495934958 53.607723577235774,28.048780487804876 53.40447154471545,27.997967479674795 53.201219512195124,27.947154471544714 52.9979674796748,27.947154471544714 52.74390243902439,27.896341463414632 52.540650406504064,27.896341463414632 52.33739837398374,27.84552845528455 52.03252032520325,27.79471544715447 51.77845528455284,27.79471544715447 51.47357723577235,27.79471544715447 51.168699186991866,27.79471544715447 50.91463414634146,27.79471544715447 50.71138211382114,27.74390243902439 50.45731707317073,27.74390243902439 50.203252032520325,27.74390243902439 49.949186991869915,27.693089430894307 49.74593495934959,27.693089430894307 49.542682926829265,27.693089430894307 49.33943089430894,27.693089430894307 49.08536585365854,27.693089430894307 48.88211382113821,27.642276422764226 48.67886178861789,27.642276422764226 48.42479674796748,27.642276422764226 48.22154471544715,27.642276422764226 48.01829268292683,27.642276422764226" fill="none" stroke="black" stroke-width="0.6"></polyline><polyline points="48.01829268292683,27.642276422764226 47.8150406504065,27.642276422764226 47.61178861788618,27.642276422764226 47.40853658536585,27.642276422764226 47.15447154471545,27.642276422764226 47.0020325203252,27.642276422764226 46.798780487804876,27.642276422764226 46.59552845528455,27.642276422764226 46.392276422764226,27.642276422764226 46.1890243902439,27.693089430894307 45.985772357723576,27.693089430894307 45.833333333333336,27.693089430894307 45.63008130081301,27.74390243902439 45.42682926829268,27.74390243902439 45.27439024390244,27.74390243902439 45.07113821138211,27.79471544715447 44.86788617886179,27.84552845528455 44.66463414634146,27.84552845528455 44.512195121951216,27.896341463414632 44.30894308943089,27.947154471544714 44.105691056910565,27.997967479674795 43.953252032520325,28.048780487804876 43.75,28.099593495934958 43.546747967479675,28.15040650406504 43.34349593495935,28.15040650406504 43.1910569105691,28.20121951219512 42.98780487804878,28.2520325203252 42.78455284552845,28.302845528455283 42.68292682926829,28.353658536585364 42.479674796747965,28.404471544715445 42.3780487804878,28.455284552845526 42.17479674796748,28.55691056910569 41.920731707317074,28.65853658536585 41.71747967479675,28.709349593495933 41.61585365853659,28.760162601626014 41.514227642276424,28.810975609756095 41.260162601626014,28.912601626016258 41.05691056910569,29.01422764227642 40.853658536585364,29.0650406504065 40.65040650406504,29.166666666666664 40.4979674796748,29.217479674796746 40.396341463414636,29.268292682926827 40.19308943089431,29.369918699186993 39.989837398373986,29.471544715447155 39.735772357723576,29.573170731707318 39.48170731707317,29.67479674796748 39.27845528455285,29.776422764227643 39.07520325203252,29.928861788617887 38.82113821138211,30.03048780487805 38.5670731707317,30.182926829268293 38.3130081300813,30.335365853658537" fill="none" stroke="black" stroke-width="0.6"></polyline><polyline points="38.3130081300813,30.335365853658537 37.95731707317073,30.538617886178862 37.703252032520325,30.741869918699187 37.39837398373984,30.89430894308943 37.14430894308943,31.046747967479675 36.9410569105691,31.19918699186992 36.6869918699187,31.30081300813008 36.483739837398375,31.453252032520325 36.28048780487805,31.554878048780488 36.077235772357724,31.65650406504065 35.8739837398374,31.808943089430894 35.670731707317074,31.961382113821138 35.46747967479675,32.11382113821138 35.21341463414634,32.266260162601625 35.010162601626014,32.418699186991866 34.80691056910569,32.57113821138211 34.603658536585364,32.77439024390244 34.40040650406504,32.926829268292686 34.197154471544714,33.079268292682926 33.94308943089431,33.28252032520325 33.790650406504064,33.4349593495935 33.58739837398374,33.58739837398374 33.38414634146341,33.790650406504064 33.23170731707317,33.94308943089431 33.079268292682926,34.04471544715447 32.926829268292686,34.197154471544714 32.82520325203252,34.298780487804876 32.672764227642276,34.451219512195124 32.52032520325203,34.603658536585364 32.418699186991866,34.75609756097561 32.3170731707317,34.90853658536585 32.16463414634146,35.0609756097561 32.0630081300813,35.21341463414634 31.961382113821138,35.416666666666664 31.808943089430894,35.61991869918699 31.65650406504065,35.77235772357724 31.554878048780488,35.92479674796748 31.402439024390244,36.077235772357724 31.25,36.28048780487805 31.148373983739837,36.43292682926829 31.046747967479675,36.58536585365854 30.945121951219512,36.73780487804878 30.84349593495935,36.890243902439025 30.741869918699187,37.09349593495935 30.640243902439025,37.19512195121951 30.589430894308943,37.34756097560975 30.48780487804878,37.5 30.38617886178862,37.65243902439024 30.335365853658537,37.80487804878049 30.233739837398375,37.90650406504065 30.182926829268293,38.00813008130081" fill="none" stroke="black" stroke-width="0.6"></polyline><polyline points="30.182926829268293,38.00813008130081 30.132113821138212,38.109756097560975 30.03048780487805,38.262195121951216 29.979674796747968,38.36382113821138 29.928861788617887,38.46544715447154 29.827235772357724,38.61788617886179 29.827235772357724,38.668699186991866 29.776422764227643,38.71951219512195 29.725609756097562,38.87195121951219 29.6239837398374,39.02439024390244 29.573170731707318,39.176829268292686 29.522357723577237,39.329268292682926 29.420731707317074,39.48170731707317 29.369918699186993,39.63414634146341 29.268292682926827,39.83739837398374 29.166666666666664,40.040650406504064 29.115853658536583,40.19308943089431 29.01422764227642,40.447154471544714 28.912601626016258,40.701219512195124 28.760162601626014,41.05691056910569 28.65853658536585,41.3109756097561 28.55691056910569,41.46341463414634 28.506097560975608,41.61585365853659 28.404471544715445,41.76829268292683 28.353658536585364,41.86991869918699 28.302845528455283,42.02235772357724 28.2520325203252,42.17479674796748 28.20121951219512,42.327235772357724 28.15040650406504,42.479674796747965 28.15040650406504,42.63211382113821 28.099593495934958,42.78455284552845 28.048780487804876,42.9369918699187 27.997967479674795,43.140243902439025 27.947154471544714,43.34349593495935 27.896341463414632,43.49593495934959 27.79471544715447,43.75 27.74390243902439,43.953252032520325 27.693089430894307,44.15650406504065 27.642276422764226,44.41056910569105 27.591463414634145,44.61382113821138 27.489837398373982,44.8170731707317 27.4390243902439,45.12195121951219 27.33739837398374,45.3760162601626 27.286585365853657,45.63008130081301 27.235772357723576,45.9349593495935 27.134146341463413,46.1890243902439 27.083333333333332,46.44308943089431 26.98170731707317,46.7479674796748 26.93089430894309,47.0020325203252 26.880081300813007,47.20528455284553 26.829268292682926,47.40853658536585" fill="none" stroke="black" stroke-width="0.6"></polyline><polyline points="26.829268292682926,47.40853658536585 26.778455284552845,47.61178861788618 26.727642276422763,47.86585365853659 26.727642276422763,48.06910569105691 26.727642276422763,48.27235772357724 26.676829268292682,48.52642276422764 26.676829268292682,48.729674796747965 26.676829268292682,48.983739837398375 26.676829268292682,49.1869918699187 26.676829268292682,49.390243902439025 26.676829268292682,49.64430894308943 26.676829268292682,49.89837398373984 26.6260162601626,50.15243902439024 26.6260162601626,50.40650406504065 26.6260162601626,50.71138211382114 26.6260162601626,51.016260162601625 26.6260162601626,51.27032520325203 26.6260162601626,51.52439024390244 26.57520325203252,51.829268292682926 26.57520325203252,52.13414634146341 26.57520325203252,52.33739837398374 26.57520325203252,52.540650406504064 26.57520325203252,52.74390243902439 26.57520325203252,52.947154471544714 26.57520325203252,53.201219512195124 26.6260162601626,53.45528455284553 26.676829268292682,53.65853658536585 26.676829268292682,53.91260162601626 26.727642276422763,54.166666666666664 26.778455284552845,54.420731707317074 26.829268292682926,54.67479674796748 26.880081300813007,54.8780487804878 26.93089430894309,55.233739837398375 26.98170731707317,55.58943089430894 27.03252032520325,56.046747967479675 27.134146341463413,56.453252032520325 27.184959349593495,56.80894308943089 27.235772357723576,57.266260162601625 27.286585365853657,57.672764227642276 27.33739837398374,57.97764227642276 27.38821138211382,58.33333333333333 27.4390243902439,58.739837398373986 27.540650406504064,59.04471544715447 27.642276422764226,59.40040650406504 27.74390243902439,59.80691056910569 27.79471544715447,60.16260162601626 27.896341463414632,60.416666666666664 27.997967479674795,60.61991869918699 28.048780487804876,60.77235772357724 28.15040650406504,60.97560975609756 28.2520325203252,61.17886178861789" fill="none" stroke="black" stroke-width="0.6"></polyline><polyline points="28.2520325203252,61.17886178861789 28.353658536585364,61.33130081300813 28.455284552845526,61.483739837398375 28.60772357723577,61.6869918699187 28.709349593495933,61.890243902439025 28.861788617886177,62.09349593495935 28.96341463414634,62.24593495934959 29.115853658536583,62.449186991869915 29.217479674796746,62.60162601626016 29.31910569105691,62.7540650406504 29.471544715447155,62.95731707317073 29.573170731707318,63.109756097560975 29.725609756097562,63.3130081300813 29.878048780487806,63.46544715447154 29.979674796747968,63.61788617886179 30.08130081300813,63.82113821138211 30.233739837398375,63.97357723577235 30.335365853658537,64.1260162601626 30.48780487804878,64.27845528455285 30.589430894308943,64.48170731707317 30.741869918699187,64.6341463414634 30.89430894308943,64.83739837398373 31.046747967479675,65.04065040650406 31.19918699186992,65.2439024390244 31.351626016260163,65.4979674796748 31.504065040650406,65.65040650406505 31.70731707317073,65.90447154471545 31.859756097560975,66.10772357723577 32.0630081300813,66.3109756097561 32.266260162601625,66.51422764227642 32.418699186991866,66.71747967479675 32.57113821138211,66.869918699187 32.77439024390244,67.07317073170732 32.926829268292686,67.32723577235772 33.13008130081301,67.53048780487805 33.28252032520325,67.73373983739837 33.485772357723576,67.9369918699187 33.6890243902439,68.14024390243902 33.892276422764226,68.29268292682927 34.09552845528455,68.4959349593496 34.298780487804876,68.64837398373983 34.5020325203252,68.85162601626016 34.70528455284553,69.05487804878048 34.90853658536585,69.20731707317073 35.11178861788618,69.41056910569105 35.36585365853659,69.61382113821138 35.56910569105691,69.8170731707317 35.77235772357724,69.96951219512195 36.02642276422764,70.17276422764228 36.229674796747965,70.3760162601626 36.483739837398375,70.57926829268293" fill="none" stroke="black" stroke-width="0.6"></polyline><polyline points="36.483739837398375,70.57926829268293 36.6869918699187,70.73170731707317 36.890243902439025,70.9349593495935 37.09349593495935,71.08739837398373 37.296747967479675,71.23983739837398 37.5,71.39227642276423 37.703252032520325,71.59552845528455 37.90650406504065,71.7479674796748 38.109756097560975,71.90040650406505 38.3130081300813,72.05284552845528 38.516260162601625,72.20528455284553 38.71951219512195,72.35772357723577 38.82113821138211,72.40853658536585 38.97357723577235,72.51016260162602 39.1260162601626,72.66260162601625 39.329268292682926,72.76422764227642 39.583333333333336,72.91666666666667 39.735772357723576,73.01829268292683 39.9390243902439,73.119918699187 40.142276422764226,73.27235772357723 40.34552845528455,73.3739837398374 40.4979674796748,73.47560975609755 40.7520325203252,73.57723577235772 40.90447154471545,73.67886178861788 41.107723577235774,73.78048780487805 41.3109756097561,73.8821138211382 41.41260162601626,73.9329268292683 41.514227642276424,73.98373983739837 41.666666666666664,74.03455284552845 41.86991869918699,74.13617886178862 42.02235772357724,74.1869918699187 42.17479674796748,74.23780487804878 42.327235772357724,74.33943089430895 42.479674796747965,74.39024390243902 42.63211382113821,74.4410569105691 42.78455284552845,74.49186991869918 42.9369918699187,74.54268292682927 43.08943089430894,74.54268292682927 43.24186991869919,74.59349593495935 43.39430894308943,74.64430894308943 43.546747967479675,74.6951219512195 43.699186991869915,74.7459349593496 43.85162601626016,74.79674796747967 44.0040650406504,74.84756097560975 44.15650406504065,74.84756097560975 44.30894308943089,74.89837398373983 44.41056910569105,74.89837398373983 44.5630081300813,74.94918699186992 44.71544715447154,75 44.86788617886179,75 45.02032520325203,75.05081300813008" fill="none" stroke="black" stroke-width="0.6"></polyline><polyline points="45.02032520325203,75.05081300813008 45.172764227642276,75.05081300813008 45.3760162601626,75.10162601626016 45.579268292682926,75.15243902439025 45.73170731707317,75.15243902439025 45.9349593495935,75.20325203252033 46.239837398373986,75.2540650406504 46.49390243902439,75.30487804878048 46.84959349593496,75.35569105691057 47.20528455284553,75.35569105691057 47.5609756097561,75.40650406504065 47.86585365853659,75.40650406504065 48.22154471544715,75.40650406504065 48.47560975609756,75.35569105691057 48.78048780487805,75.35569105691057 49.08536585365854,75.30487804878048 49.33943089430894,75.30487804878048 49.59349593495935,75.30487804878048 49.89837398373984,75.30487804878048 50.15243902439024,75.30487804878048 50.45731707317073,75.30487804878048 50.71138211382114,75.30487804878048 50.96544715447154,75.30487804878048 51.27032520325203,75.30487804878048 51.52439024390244,75.2540650406504 51.77845528455284,75.2540650406504 52.083333333333336,75.20325203252033 52.33739837398374,75.15243902439025 52.59146341463415,75.15243902439025 52.896341463414636,75.10162601626016 53.15040650406504,75.05081300813008 53.40447154471545,75 53.709349593495936,74.94918699186992 53.96341463414634,74.89837398373983 54.21747967479675,74.79674796747967 54.52235772357724,74.7459349593496 54.77642276422764,74.64430894308943 55.03048780487805,74.59349593495935 55.28455284552845,74.49186991869918 55.53861788617886,74.4410569105691 55.74186991869919,74.33943089430895 55.99593495934959,74.28861788617886 56.199186991869915,74.1869918699187 56.40243902439024,74.13617886178862 56.605691056910565,74.03455284552845 56.80894308943089,73.98373983739837 57.012195121951216,73.9329268292683 57.21544715447154,73.83130081300813 57.418699186991866,73.78048780487805 57.62195121951219,73.67886178861788 57.8760162601626,73.57723577235772" fill="none" stroke="black" stroke-width="0.6"></polyline><polyline points="57.8760162601626,73.57723577235772 58.079268292682926,73.47560975609755 58.33333333333333,73.3739837398374 58.58739837398374,73.22154471544715 58.84146341463415,73.119918699187 59.09552845528455,72.96747967479675 59.34959349593496,72.86585365853658 59.603658536585364,72.76422764227642 59.857723577235774,72.61178861788618 60.0609756097561,72.5609756097561 60.16260162601626,72.51016260162602 60.416666666666664,72.35772357723577 60.72154471544715,72.2560975609756 61.02642276422764,72.10365853658537 61.33130081300813,71.95121951219512 61.636178861788615,71.79878048780488 61.9410569105691,71.64634146341463 62.296747967479675,71.4430894308943 62.60162601626016,71.23983739837398 62.95731707317073,71.08739837398373 63.262195121951216,70.8841463414634 63.5670731707317,70.73170731707317 63.87195121951219,70.52845528455285 64.17682926829268,70.3760162601626 64.43089430894308,70.17276422764228 64.73577235772358,70.02032520325203 64.98983739837398,69.86788617886178 65.2439024390244,69.66463414634146 65.4979674796748,69.51219512195122 65.7520325203252,69.35975609756098 65.95528455284553,69.20731707317073 66.15853658536585,69.05487804878048 66.36178861788618,68.90243902439025 66.5650406504065,68.80081300813008 66.76829268292683,68.64837398373983 66.97154471544715,68.4959349593496 67.17479674796748,68.39430894308943 67.32723577235772,68.24186991869918 67.53048780487805,68.08943089430895 67.73373983739837,67.9369918699187 67.88617886178862,67.78455284552845 68.03861788617886,67.6321138211382 68.1910569105691,67.42886178861788 68.39430894308943,67.27642276422765 68.54674796747967,67.07317073170732 68.69918699186992,66.92073170731707 68.85162601626016,66.76829268292683 69.0040650406504,66.5650406504065 69.15650406504065,66.41260162601625 69.3089430894309,66.26016260162602 69.41056910569105,66.0569105691057" fill="none" stroke="black" stroke-width="0.6"></polyline><polyline points="69.41056910569105,66.0569105691057 69.61382113821138,65.90447154471545 69.71544715447155,65.70121951219512 69.86788617886178,65.54878048780488 70.02032520325203,65.34552845528455 70.0711382113821,65.2439024390244 70.1219512195122,65.1930894308943 70.27439024390243,64.98983739837398 70.3760162601626,64.83739837398373 70.52845528455285,64.6849593495935 70.630081300813,64.48170731707317 70.78252032520325,64.32926829268293 70.8841463414634,64.1260162601626 71.03658536585365,63.97357723577235 71.1890243902439,63.71951219512195 71.34146341463415,63.516260162601625 71.4430894308943,63.3130081300813 71.59552845528455,63.05894308943089 71.7479674796748,62.855691056910565 71.90040650406505,62.65243902439024 72.05284552845528,62.39837398373984 72.20528455284553,62.19512195121951 72.35772357723577,61.9410569105691 72.5609756097561,61.6869918699187 72.76422764227642,61.43292682926829 72.91666666666667,61.17886178861789 73.119918699187,60.92479674796748 73.27235772357723,60.670731707317074 73.42479674796748,60.416666666666664 73.6280487804878,60.21341463414634 73.78048780487805,59.959349593495936 73.8821138211382,59.75609756097561 74.03455284552845,59.5020325203252 74.1869918699187,59.298780487804876 74.28861788617886,59.04471544715447 74.4410569105691,58.790650406504064 74.54268292682927,58.58739837398374 74.64430894308943,58.38414634146341 74.7459349593496,58.18089430894309 74.84756097560975,57.97764227642276 74.94918699186992,57.825203252032516 75,57.62195121951219 75.05081300813008,57.52032520325203 75.10162601626016,57.36788617886179 75.15243902439025,57.266260162601625 75.20325203252033,57.16463414634146 75.2540650406504,57.012195121951216 75.2540650406504,56.91056910569105 75.30487804878048,56.75813008130081 75.35569105691057,56.65650406504065 75.35569105691057,56.5040650406504" fill="none" stroke="black" stroke-width="0.6"></polyline><polyline points="75.35569105691057,56.5040650406504 75.40650406504065,56.35162601626016 75.45731707317073,56.199186991869915 75.5081300813008,55.99593495934959 75.5589430894309,55.84349593495935 75.60975609756098,55.6910569105691 75.66056910569105,55.53861788617886 75.71138211382113,55.33536585365854 75.76219512195122,55.233739837398375 75.8130081300813,55.03048780487805 75.8130081300813,54.8780487804878 75.86382113821138,54.72560975609756 75.91463414634146,54.52235772357724 75.96544715447155,54.31910569105691 76.01626016260163,54.166666666666664 76.01626016260163,53.96341463414634 76.0670731707317,53.8109756097561 76.0670731707317,53.65853658536585 76.11788617886178,53.45528455284553 76.11788617886178,53.302845528455286 76.16869918699187,53.15040650406504 76.16869918699187,53.048780487804876 76.16869918699187,52.947154471544714 76.16869918699187,52.84552845528455 76.21951219512195,52.74390243902439 76.21951219512195,52.69308943089431 76.21951219512195,52.540650406504064 76.21951219512195,52.4390243902439 76.21951219512195,52.33739837398374 76.21951219512195,52.1849593495935 76.27032520325203,52.083333333333336 76.27032520325203,51.981707317073166 76.27032520325203,51.880081300813 76.27032520325203,51.72764227642276 76.27032520325203,51.6260162601626 76.3211382113821,51.52439024390244 76.3211382113821,51.422764227642276 76.3211382113821,51.27032520325203 76.3211382113821,51.168699186991866 76.3719512195122,51.0670731707317 76.3719512195122,50.96544715447154 76.3719512195122,50.86382113821138 76.3719512195122,50.8130081300813 76.42276422764228,50.71138211382114 76.42276422764228,50.609756097560975 76.42276422764228,50.55894308943089 76.42276422764228,50.45731707317073 76.42276422764228,50.355691056910565 76.47357723577235,50.30487804878049 76.47357723577235,50.203252032520325 76.47357723577235,50.15243902439024" fill="none" stroke="black" stroke-width="0.6"></polyline><polyline points="76.47357723577235,50.15243902439024 76.47357723577235,50.05081300813008 76.47357723577235,50 76.47357723577235,49.89837398373984 76.52439024390243,49.796747967479675 76.52439024390243,49.74593495934959 76.52439024390243,49.64430894308943 76.52439024390243,49.59349593495935 76.57520325203252,49.542682926829265 76.57520325203252,49.4410569105691 76.57520325203252,49.4410569105691 76.57520325203252,49.390243902439025 76.57520325203252,49.33943089430894 76.57520325203252,49.33943089430894 76.57520325203252,49.33943089430894 76.57520325203252,49.28861788617886 76.57520325203252,49.28861788617886 76.57520325203252,49.28861788617886 76.57520325203252,49.28861788617886 76.57520325203252,49.28861788617886 76.57520325203252,49.28861788617886 76.57520325203252,49.28861788617886 76.57520325203252,49.28861788617886 76.57520325203252,49.28861788617886 76.57520325203252,49.28861788617886 76.57520325203252,49.28861788617886 76.57520325203252,49.28861788617886 76.57520325203252,49.28861788617886 76.57520325203252,49.28861788617886 76.57520325203252,49.28861788617886 76.57520325203252,49.28861788617886" fill="none" stroke="black" stroke-width="0.6"></polyline></svg>