<svg height="100" width="100" preserveAspectRatio="xMidYMid meet"><polyline points="14.380081300813007,9.603658536585366 14.329268292682926,9.552845528455284 14.227642276422763,9.40040650406504 14.1260162601626,9.298780487804878 14.07520325203252,9.247967479674797 14.07520325203252,9.247967479674797 14.07520325203252,9.197154471544716 14.1260162601626,9.197154471544716 14.227642276422763,9.197154471544716 14.48170731707317,9.095528455284553 14.83739837398374,9.044715447154472 15.24390243902439,8.94308943089431 15.752032520325203,8.841463414634147 16.260162601626014,8.739837398373984 16.76829268292683,8.689024390243903 17.276422764227643,8.638211382113822 17.733739837398375,8.536585365853659 18.191056910569106,8.536585365853659 18.597560975609756,8.485772357723578 18.902439024390244,8.485772357723578 19.15650406504065,8.485772357723578 19.359756097560975,8.485772357723578 19.51219512195122,8.485772357723578 19.61382113821138,8.536585365853659 19.664634146341463,8.638211382113822 19.715447154471544,8.689024390243903 19.715447154471544,8.739837398373984 19.715447154471544,8.841463414634147 19.664634146341463,8.94308943089431 19.51219512195122,9.095528455284553 19.258130081300813,9.34959349593496 18.902439024390244,9.654471544715447 18.495934959349594,9.908536585365853 18.038617886178862,10.213414634146341 17.632113821138212,10.518292682926829 17.225609756097562,10.823170731707316 16.76829268292683,11.128048780487804 16.41260162601626,11.382113821138212 16.05691056910569,11.585365853658537 15.802845528455284,11.737804878048781 15.59959349593496,11.839430894308943 15.497967479674797,11.941056910569106 15.396341463414634,11.991869918699187 15.396341463414634,12.042682926829269 15.396341463414634,12.042682926829269 15.396341463414634,12.09349593495935 15.447154471544716,12.144308943089431 15.548780487804878,12.195121951219512 15.752032520325203,12.245934959349594 15.955284552845528,12.296747967479675 16.260162601626014,12.347560975609756" fill="none" stroke="black" stroke-width="0.6"></polyline><polyline points="16.260162601626014,12.347560975609756 16.615853658536587,12.347560975609756 16.971544715447155,12.398373983739837 17.378048780487806,12.398373983739837 17.784552845528456,12.398373983739837 18.140243902439025,12.398373983739837 18.495934959349594,12.398373983739837 18.75,12.398373983739837 19.004065040650406,12.449186991869919 19.10569105691057,12.5 19.410569105691057,12.703252032520325 19.51219512195122,12.804878048780488" fill="none" stroke="black" stroke-width="0.6"></polyline><polyline points="28.455284552845526,9.146341463414634 28.455284552845526,9.146341463414634 28.455284552845526,9.095528455284553 28.353658536585364,8.99390243902439 28.353658536585364,8.99390243902439 28.353658536585364,8.99390243902439 28.353658536585364,8.99390243902439 28.404471544715445,9.044715447154472 28.55691056910569,9.197154471544716 28.760162601626014,9.34959349593496 29.01422764227642,9.502032520325203 29.268292682926827,9.654471544715447 29.522357723577237,9.857723577235772 29.827235772357724,10.060975609756097 30.132113821138212,10.264227642276422 30.48780487804878,10.467479674796747 30.79268292682927,10.670731707317072 31.097560975609756,10.823170731707316 31.402439024390244,10.97560975609756 31.60569105691057,11.128048780487804 31.859756097560975,11.229674796747966 32.0630081300813,11.382113821138212 32.266260162601625,11.483739837398375 32.418699186991866,11.636178861788618 32.57113821138211,11.788617886178862 32.72357723577236,11.941056910569106 32.82520325203252,12.042682926829269 32.926829268292686,12.245934959349594 32.97764227642276,12.347560975609756 33.02845528455285,12.449186991869919 33.13008130081301,12.550813008130081 33.18089430894309,12.652439024390244 33.23170731707317,12.703252032520325 33.28252032520325,12.703252032520325 33.333333333333336,12.703252032520325" fill="none" stroke="black" stroke-width="0.6"></polyline><polyline points="35.56910569105691,8.536585365853659 35.51829268292683,8.485772357723578 35.46747967479675,8.333333333333334 35.416666666666664,8.282520325203253 35.416666666666664,8.282520325203253 35.416666666666664,8.282520325203253 35.416666666666664,8.384146341463415 35.3150406504065,8.58739837398374 35.11178861788618,8.94308943089431 34.857723577235774,9.502032520325203 34.65447154471545,9.857723577235772 34.451219512195124,10.213414634146341 33.99390243902439,11.026422764227641 33.53658536585366,11.788617886178862 33.079268292682926,12.449186991869919 32.672764227642276,13.058943089430894 32.36788617886179,13.567073170731707 32.11382113821138,13.973577235772357 31.859756097560975,14.278455284552845 31.65650406504065,14.53252032520325 31.402439024390244,14.786585365853659 31.30081300813008,14.939024390243903 31.25,15.091463414634147 31.097560975609756,15.345528455284553 31.046747967479675,15.548780487804878 30.995934959349594,15.65040650406504 30.995934959349594,15.752032520325203 30.995934959349594,15.802845528455284 30.995934959349594,15.853658536585366 30.995934959349594,15.904471544715447 31.046747967479675,15.955284552845528 31.097560975609756,16.006097560975608 31.097560975609756,16.006097560975608 31.19918699186992,16.006097560975608" fill="none" stroke="black" stroke-width="0.6"></polyline><polyline points="46.697154471544714,9.298780487804878 46.646341463414636,9.247967479674797 46.59552845528455,9.197154471544716 46.59552845528455,9.146341463414634 46.59552845528455,9.146341463414634 46.59552845528455,9.146341463414634 46.697154471544714,9.247967479674797 46.84959349593496,9.40040650406504 47.052845528455286,9.603658536585366 47.30691056910569,9.80691056910569 47.61178861788618,10.060975609756097 47.916666666666664,10.365853658536585 48.323170731707314,10.670731707317072 48.577235772357724,10.873983739837398 48.78048780487805,11.026422764227641 49.1869918699187,11.331300813008129 49.542682926829265,11.585365853658537 49.949186991869915,11.839430894308943 50.2540650406504,12.042682926829269 50.50813008130081,12.245934959349594 50.8130081300813,12.449186991869919 51.0670731707317,12.601626016260163 51.32113821138211,12.804878048780488 51.575203252032516,13.008130081300813 51.77845528455284,13.160569105691057 51.93089430894309,13.262195121951219 52.083333333333336,13.363821138211382 52.1849593495935,13.414634146341463 52.28658536585366,13.465447154471544 52.33739837398374,13.465447154471544" fill="none" stroke="black" stroke-width="0.6"></polyline><polyline points="51.0670731707317,8.94308943089431 50.91463414634146,8.790650406504065 50.8130081300813,8.689024390243903 50.762195121951216,8.689024390243903 50.71138211382114,8.689024390243903 50.66056910569105,8.790650406504065 50.50813008130081,9.044715447154472 50.203252032520325,9.502032520325203 49.84756097560975,10.111788617886178 49.4410569105691,10.924796747967479 49.03455284552845,11.6869918699187 48.6280487804878,12.347560975609756 48.27235772357724,12.90650406504065 48.01829268292683,13.3130081300813 47.8150406504065,13.71951219512195 47.61178861788618,14.024390243902438 47.459349593495936,14.227642276422763 47.357723577235774,14.430894308943088 47.30691056910569,14.634146341463413 47.30691056910569,14.786585365853659 47.30691056910569,14.939024390243903" fill="none" stroke="black" stroke-width="0.6"></polyline><polyline points="61.636178861788615,9.502032520325203 61.636178861788615,9.502032520325203 61.636178861788615,9.451219512195122 61.636178861788615,9.40040650406504 61.636178861788615,9.34959349593496 61.636178861788615,9.34959349593496 61.636178861788615,9.34959349593496 61.636178861788615,9.34959349593496 61.636178861788615,9.451219512195122 61.6869918699187,9.654471544715447 61.73780487804878,9.908536585365853 61.83943089430894,10.213414634146341 61.890243902439025,10.56910569105691 61.9410569105691,10.772357723577235 61.9410569105691,10.97560975609756 62.042682926829265,11.331300813008129 62.09349593495935,11.6869918699187 62.19512195121951,11.991869918699187 62.296747967479675,12.245934959349594 62.39837398373984,12.449186991869919 62.5,12.601626016260163 62.55081300813008,12.652439024390244 62.65243902439024,12.703252032520325 62.7540650406504,12.754065040650406 62.855691056910565,12.754065040650406 62.90650406504065,12.754065040650406 63.00813008130081,12.703252032520325 63.05894308943089,12.652439024390244 63.16056910569105,12.550813008130081 63.262195121951216,12.398373983739837 63.41463414634146,12.245934959349594 63.516260162601625,12.042682926829269 63.61788617886179,11.788617886178862 63.71951219512195,11.585365853658537 63.82113821138211,11.382113821138212 63.922764227642276,11.229674796747966 63.97357723577235,11.077235772357723 63.97357723577235,10.97560975609756 64.02439024390243,10.873983739837398 64.02439024390243,10.823170731707316 64.02439024390243,10.772357723577235 64.02439024390243,10.772357723577235 64.02439024390243,10.772357723577235 64.02439024390243,10.772357723577235 64.02439024390243,10.772357723577235 64.02439024390243,10.772357723577235 64.02439024390243,10.772357723577235 64.02439024390243,10.772357723577235 64.02439024390243,10.772357723577235 64.02439024390243,10.772357723577235 64.02439024390243,10.823170731707316" fill="none" stroke="black" stroke-width="0.6"></polyline><polyline points="64.02439024390243,10.823170731707316 64.02439024390243,10.873983739837398 64.07520325203252,10.924796747967479 64.1260162601626,11.026422764227641 64.17682926829268,11.128048780487804 64.27845528455285,11.331300813008129 64.32926829268293,11.483739837398375 64.43089430894308,11.6869918699187 64.53252032520325,11.890243902439025 64.6849593495935,12.09349593495935 64.78658536585365,12.296747967479675 64.88821138211382,12.398373983739837 64.9390243902439,12.5 65.09146341463415,12.652439024390244 65.1930894308943,12.754065040650406 65.34552845528455,12.855691056910569 65.44715447154472,12.957317073170731 65.54878048780488,12.957317073170731 65.70121951219512,13.008130081300813 65.80284552845528,13.008130081300813 65.90447154471545,12.957317073170731 66.0060975609756,12.90650406504065 66.15853658536585,12.804878048780488 66.26016260162602,12.652439024390244 66.41260162601625,12.449186991869919 66.51422764227642,12.245934959349594 66.61585365853658,11.991869918699187 66.71747967479675,11.6869918699187 66.76829268292683,11.331300813008129 66.8191056910569,10.924796747967479 66.869918699187,10.467479674796747 66.869918699187,10.060975609756097 66.869918699187,9.75609756097561 66.869918699187,9.552845528455284 66.869918699187,9.40040650406504 66.869918699187,9.247967479674797 66.869918699187,9.146341463414634 66.869918699187,9.095528455284553 66.869918699187,9.095528455284553 66.869918699187,9.044715447154472 66.869918699187,9.044715447154472 66.869918699187,9.044715447154472 66.869918699187,9.044715447154472 66.869918699187,9.044715447154472 66.92073170731707,9.044715447154472 67.02235772357723,9.044715447154472" fill="none" stroke="black" stroke-width="0.6"></polyline><polyline points="78.86178861788618,10.060975609756097 78.86178861788618,10.010162601626016 78.8109756097561,9.908536585365853 78.8109756097561,9.857723577235772 78.8109756097561,9.80691056910569 78.76016260162602,9.75609756097561 78.76016260162602,9.75609756097561 78.76016260162602,9.75609756097561 78.76016260162602,9.75609756097561 78.76016260162602,9.75609756097561 78.8109756097561,9.80691056910569 78.8109756097561,9.857723577235772 78.91260162601625,10.010162601626016 79.01422764227642,10.16260162601626 79.16666666666667,10.416666666666666 79.3191056910569,10.670731707317072 79.47154471544715,10.97560975609756 79.67479674796748,11.331300813008129 79.92886178861788,11.737804878048781 80.1321138211382,12.09349593495935 80.33536585365853,12.449186991869919 80.53861788617886,12.804878048780488 80.74186991869918,13.109756097560975 80.89430894308943,13.363821138211382 81.04674796747967,13.567073170731707 81.19918699186992,13.66869918699187 81.30081300813008,13.770325203252032 81.40243902439025,13.871951219512194 81.5040650406504,13.922764227642276 81.60569105691057,13.922764227642276 81.65650406504065,13.973577235772357 81.70731707317073,13.973577235772357 81.7581300813008,13.973577235772357 81.8089430894309,13.922764227642276 81.85975609756098,13.821138211382113 81.91056910569105,13.66869918699187 82.01219512195122,13.465447154471544 82.16463414634146,13.211382113821138 82.26626016260163,12.90650406504065 82.46951219512195,12.550813008130081 82.6219512195122,12.195121951219512 82.82520325203252,11.788617886178862 83.02845528455285,11.382113821138212 83.18089430894308,11.026422764227641 83.3841463414634,10.619918699186991 83.53658536585365,10.264227642276422 83.63821138211382,9.959349593495935 83.79065040650406,9.75609756097561 83.89227642276423,9.552845528455284 83.9430894308943,9.451219512195122 83.99390243902438,9.298780487804878" fill="none" stroke="black" stroke-width="0.6"></polyline><polyline points="83.99390243902438,9.298780487804878 84.04471544715447,9.146341463414634 84.04471544715447,9.044715447154472 84.09552845528455,8.99390243902439 84.09552845528455,8.94308943089431 84.09552845528455,8.94308943089431 84.09552845528455,8.892276422764228 84.09552845528455,8.892276422764228 84.09552845528455,8.892276422764228 84.09552845528455,8.892276422764228" fill="none" stroke="black" stroke-width="0.6"></polyline><polyline points="15.497967479674797,24.695121951219512 15.447154471544716,24.59349593495935 15.396341463414634,24.54268292682927 15.396341463414634,24.54268292682927 15.345528455284553,24.491869918699187 15.345528455284553,24.491869918699187 15.345528455284553,24.491869918699187 15.345528455284553,24.491869918699187 15.345528455284553,24.491869918699187 15.345528455284553,24.54268292682927 15.345528455284553,24.64430894308943 15.345528455284553,24.745934959349594 15.294715447154472,24.94918699186992 15.24390243902439,25.101626016260163 15.19308943089431,25.35569105691057 15.091463414634147,25.660569105691057 15.040650406504065,26.067073170731707 14.989837398373984,26.422764227642276 14.939024390243903,26.829268292682926 14.888211382113822,27.184959349593495 14.888211382113822,27.4390243902439 14.888211382113822,27.693089430894307 14.888211382113822,27.896341463414632 14.939024390243903,28.099593495934958 14.989837398373984,28.2520325203252 15.040650406504065,28.404471544715445 15.091463414634147,28.506097560975608 15.19308943089431,28.65853658536585 15.294715447154472,28.709349593495933 15.396341463414634,28.760162601626014 15.497967479674797,28.810975609756095 15.65040650406504,28.810975609756095 15.752032520325203,28.810975609756095 15.955284552845528,28.810975609756095 16.10772357723577,28.760162601626014 16.3109756097561,28.65853658536585 16.514227642276424,28.55691056910569 16.666666666666668,28.455284552845526 16.76829268292683,28.353658536585364 16.920731707317074,28.20121951219512 17.022357723577237,28.048780487804876 17.1239837398374,27.896341463414632 17.225609756097562,27.693089430894307 17.276422764227643,27.540650406504064 17.327235772357724,27.38821138211382 17.378048780487806,27.184959349593495 17.378048780487806,27.03252032520325 17.428861788617887,26.880081300813007 17.428861788617887,26.727642276422763 17.428861788617887,26.57520325203252 17.428861788617887,26.422764227642276" fill="none" stroke="black" stroke-width="0.6"></polyline><polyline points="17.428861788617887,26.422764227642276 17.428861788617887,26.270325203252032 17.428861788617887,26.117886178861788 17.479674796747968,25.965447154471544 17.479674796747968,25.76219512195122 17.479674796747968,25.609756097560975 17.479674796747968,25.45731707317073 17.53048780487805,25.304878048780488 17.53048780487805,25.152439024390244 17.53048780487805,25.05081300813008 17.53048780487805,24.898373983739837 17.53048780487805,24.796747967479675 17.58130081300813,24.695121951219512 17.58130081300813,24.59349593495935 17.58130081300813,24.491869918699187 17.58130081300813,24.441056910569106 17.58130081300813,24.390243902439025 17.58130081300813,24.390243902439025 17.58130081300813,24.390243902439025 17.58130081300813,24.390243902439025 17.58130081300813,24.390243902439025 17.58130081300813,24.441056910569106 17.58130081300813,24.491869918699187 17.53048780487805,24.64430894308943 17.53048780487805,24.796747967479675 17.53048780487805,24.94918699186992 17.53048780487805,25.203252032520325 17.53048780487805,25.45731707317073 17.53048780487805,25.711382113821138 17.53048780487805,26.067073170731707 17.53048780487805,26.422764227642276 17.53048780487805,26.829268292682926 17.58130081300813,27.235772357723576 17.632113821138212,27.642276422764226 17.682926829268293,27.947154471544714 17.784552845528456,28.302845528455283 17.9369918699187,28.60772357723577 18.038617886178862,28.810975609756095 18.191056910569106,28.96341463414634 18.34349593495935,29.115853658536583 18.495934959349594,29.268292682926827 18.69918699186992,29.369918699186993 18.902439024390244,29.522357723577237 19.004065040650406,29.573170731707318" fill="none" stroke="black" stroke-width="0.6"></polyline><polyline points="33.58739837398374,21.747967479674795 33.58739837398374,21.747967479674795 33.58739837398374,21.697154471544714 33.58739837398374,21.697154471544714 33.58739837398374,21.697154471544714 33.58739837398374,21.697154471544714 33.58739837398374,21.697154471544714 33.58739837398374,21.798780487804876 33.63821138211382,22.0020325203252 33.6890243902439,22.256097560975608 33.6890243902439,22.560975609756095 33.739837398373986,22.916666666666668 33.739837398373986,23.3739837398374 33.739837398373986,23.932926829268293 33.6890243902439,24.54268292682927 33.58739837398374,25.101626016260163 33.53658536585366,25.660569105691057 33.4349593495935,26.16869918699187 33.38414634146341,26.676829268292682 33.333333333333336,27.083333333333332 33.28252032520325,27.4390243902439 33.28252032520325,27.74390243902439 33.28252032520325,27.997967479674795 33.28252032520325,28.20121951219512 33.28252032520325,28.455284552845526 33.28252032520325,28.60772357723577 33.28252032520325,28.760162601626014 33.28252032520325,28.861788617886177 33.28252032520325,28.912601626016258 33.28252032520325,28.96341463414634 33.28252032520325,28.96341463414634 33.28252032520325,28.96341463414634 33.28252032520325,28.96341463414634 33.28252032520325,28.96341463414634 33.28252032520325,28.912601626016258" fill="none" stroke="black" stroke-width="0.6"></polyline><polyline points="31.351626016260163,25.609756097560975 31.351626016260163,25.609756097560975 31.30081300813008,25.508130081300813 31.25,25.40650406504065 31.25,25.35569105691057 31.25,25.35569105691057 31.25,25.35569105691057 31.25,25.35569105691057 31.402439024390244,25.35569105691057 31.60569105691057,25.40650406504065 31.910569105691057,25.40650406504065 32.266260162601625,25.45731707317073 32.672764227642276,25.45731707317073 33.18089430894309,25.45731707317073 33.63821138211382,25.45731707317073 34.146341463414636,25.45731707317073 34.65447154471545,25.40650406504065 35.0609756097561,25.35569105691057 35.416666666666664,25.35569105691057 35.72154471544715,25.35569105691057 35.97560975609756,25.35569105691057 36.17886178861789,25.35569105691057 36.43292682926829,25.40650406504065 36.58536585365854,25.45731707317073 36.78861788617886,25.508130081300813 36.9410569105691,25.609756097560975" fill="none" stroke="black" stroke-width="0.6"></polyline><polyline points="50.609756097560975,24.94918699186992 50.609756097560975,24.94918699186992 50.609756097560975,24.898373983739837 50.55894308943089,24.847560975609756 50.55894308943089,24.796747967479675 50.55894308943089,24.796747967479675 50.50813008130081,24.745934959349594 50.50813008130081,24.745934959349594 50.45731707317073,24.745934959349594 50.40650406504065,24.745934959349594 50.30487804878049,24.745934959349594 50.15243902439024,24.745934959349594 50,24.745934959349594 49.796747967479675,24.796747967479675 49.542682926829265,24.847560975609756 49.28861788617886,24.898373983739837 49.03455284552845,24.94918699186992 48.729674796747965,25.05081300813008 48.52642276422764,25.101626016260163 48.323170731707314,25.152439024390244 48.170731707317074,25.254065040650406 48.06910569105691,25.35569105691057 48.01829268292683,25.40650406504065 48.01829268292683,25.508130081300813 48.01829268292683,25.609756097560975 48.01829268292683,25.660569105691057 48.01829268292683,25.711382113821138 48.11991869918699,25.8130081300813 48.170731707317074,25.86382113821138 48.323170731707314,25.914634146341463 48.47560975609756,26.016260162601625 48.6280487804878,26.067073170731707 48.83130081300813,26.117886178861788 49.03455284552845,26.21951219512195 49.23780487804878,26.321138211382113 49.49186991869919,26.422764227642276 49.64430894308943,26.524390243902438 49.796747967479675,26.6260162601626 49.949186991869915,26.829268292682926 50.10162601626016,26.98170731707317 50.15243902439024,27.134146341463413 50.203252032520325,27.33739837398374 50.2540650406504,27.540650406504064 50.2540650406504,27.74390243902439 50.203252032520325,27.947154471544714 50.10162601626016,28.15040650406504 49.949186991869915,28.302845528455283 49.74593495934959,28.455284552845526 49.59349593495935,28.55691056910569 49.390243902439025,28.60772357723577 49.23780487804878,28.65853658536585" fill="none" stroke="black" stroke-width="0.6"></polyline><polyline points="49.23780487804878,28.65853658536585 49.08536585365854,28.65853658536585 48.83130081300813,28.65853658536585 48.6280487804878,28.65853658536585 48.42479674796748,28.65853658536585 48.22154471544715,28.60772357723577 48.01829268292683,28.60772357723577 47.916666666666664,28.55691056910569 47.764227642276424,28.506097560975608 47.66260162601626,28.455284552845526 47.61178861788618,28.404471544715445 47.61178861788618,28.353658536585364 47.61178861788618,28.302845528455283" fill="none" stroke="black" stroke-width="0.6"></polyline><polyline points="63.61788617886179,25.05081300813008 63.61788617886179,25.05081300813008 63.61788617886179,25 63.61788617886179,25 63.61788617886179,24.94918699186992 63.61788617886179,24.94918699186992 63.61788617886179,24.94918699186992 63.61788617886179,24.94918699186992 63.61788617886179,24.94918699186992 63.61788617886179,24.94918699186992 63.61788617886179,25.05081300813008 63.668699186991866,25.152439024390244 63.668699186991866,25.304878048780488 63.668699186991866,25.558943089430894 63.668699186991866,25.8130081300813 63.71951219512195,26.117886178861788 63.71951219512195,26.473577235772357 63.77032520325203,26.778455284552845 63.77032520325203,27.083333333333332 63.82113821138211,27.33739837398374 63.82113821138211,27.540650406504064 63.82113821138211,27.693089430894307 63.87195121951219,27.79471544715447 63.87195121951219,27.84552845528455 63.922764227642276,27.896341463414632 63.922764227642276,27.947154471544714 63.97357723577235,27.947154471544714 63.97357723577235,27.997967479674795 63.97357723577235,27.997967479674795 63.97357723577235,27.997967479674795 63.97357723577235,27.997967479674795 63.97357723577235,27.997967479674795 63.97357723577235,27.947154471544714 63.97357723577235,27.947154471544714 63.97357723577235,27.896341463414632 63.97357723577235,27.84552845528455 63.97357723577235,27.74390243902439 63.97357723577235,27.693089430894307 63.97357723577235,27.642276422764226 63.97357723577235,27.540650406504064 63.922764227642276,27.4390243902439 63.922764227642276,27.286585365853657 63.922764227642276,27.184959349593495 63.922764227642276,27.083333333333332 63.922764227642276,26.98170731707317 63.922764227642276,26.880081300813007 63.922764227642276,26.727642276422763 63.922764227642276,26.57520325203252 63.97357723577235,26.422764227642276 64.02439024390243,26.321138211382113 64.02439024390243,26.16869918699187" fill="none" stroke="black" stroke-width="0.6"></polyline><polyline points="64.02439024390243,26.16869918699187 64.1260162601626,26.016260162601625 64.17682926829268,25.914634146341463 64.27845528455285,25.76219512195122 64.380081300813,25.660569105691057 64.53252032520325,25.609756097560975 64.6849593495935,25.508130081300813 64.9390243902439,25.45731707317073 65.14227642276423,25.35569105691057 65.44715447154472,25.304878048780488 65.7520325203252,25.203252032520325 66.0060975609756,25.152439024390244 66.3109756097561,25.101626016260163 66.51422764227642,25.05081300813008 66.71747967479675,25.05081300813008 66.97154471544715,25.05081300813008 67.1239837398374,25.05081300813008 67.32723577235772,25.05081300813008 67.47967479674797,25.05081300813008 67.6321138211382,25.05081300813008 67.83536585365853,25.05081300813008 67.98780487804878,25.101626016260163 68.08943089430895,25.152439024390244 68.1910569105691,25.203252032520325 68.24186991869918,25.203252032520325" fill="none" stroke="black" stroke-width="0.6"></polyline><polyline points="83.07926829268293,26.422764227642276 83.07926829268293,26.321138211382113 83.07926829268293,26.270325203252032 83.07926829268293,26.16869918699187 83.130081300813,26.117886178861788 83.130081300813,26.067073170731707 83.130081300813,26.016260162601625 83.130081300813,25.914634146341463 83.130081300813,25.86382113821138 83.130081300813,25.8130081300813 83.130081300813,25.76219512195122 83.130081300813,25.711382113821138 83.130081300813,25.660569105691057 83.130081300813,25.558943089430894 83.130081300813,25.508130081300813 83.130081300813,25.45731707317073 83.07926829268293,25.35569105691057 83.07926829268293,25.304878048780488 83.02845528455285,25.203252032520325 82.97764227642276,25.152439024390244 82.92682926829268,25.101626016260163 82.82520325203252,25.05081300813008 82.72357723577235,25 82.5711382113821,25 82.41869918699187,25 82.21544715447155,25 82.01219512195122,25.101626016260163 81.8089430894309,25.203252032520325 81.65650406504065,25.35569105691057 81.5040650406504,25.558943089430894 81.35162601626016,25.8130081300813 81.19918699186992,26.067073170731707 81.09756097560975,26.371951219512194 80.9959349593496,26.676829268292682 80.9959349593496,26.93089430894309 80.9959349593496,27.184959349593495 80.9959349593496,27.38821138211382 80.9959349593496,27.489837398373982 81.09756097560975,27.591463414634145 81.19918699186992,27.693089430894307 81.35162601626016,27.74390243902439 81.5040650406504,27.79471544715447 81.65650406504065,27.79471544715447 81.7581300813008,27.79471544715447 81.96138211382113,27.79471544715447 82.11382113821138,27.74390243902439 82.26626016260163,27.693089430894307 82.41869918699187,27.540650406504064 82.6219512195122,27.4390243902439 82.77439024390243,27.33739837398374 82.92682926829268,27.184959349593495" fill="none" stroke="black" stroke-width="0.6"></polyline><polyline points="82.92682926829268,27.184959349593495 83.07926829268293,27.03252032520325 83.18089430894308,26.880081300813007 83.33333333333333,26.778455284552845 83.4349593495935,26.6260162601626 83.48577235772358,26.524390243902438 83.48577235772358,26.422764227642276 83.53658536585365,26.371951219512194 83.53658536585365,26.321138211382113 83.53658536585365,26.270325203252032 83.53658536585365,26.21951219512195 83.53658536585365,26.16869918699187 83.53658536585365,26.16869918699187 83.48577235772358,26.117886178861788 83.48577235772358,26.117886178861788 83.48577235772358,26.117886178861788 83.48577235772358,26.117886178861788 83.48577235772358,26.117886178861788 83.48577235772358,26.117886178861788 83.48577235772358,26.117886178861788 83.48577235772358,26.16869918699187 83.48577235772358,26.21951219512195 83.48577235772358,26.321138211382113 83.48577235772358,26.422764227642276 83.4349593495935,26.57520325203252 83.4349593495935,26.727642276422763 83.4349593495935,26.880081300813007 83.4349593495935,27.083333333333332 83.4349593495935,27.38821138211382 83.3841463414634,27.693089430894307 83.33333333333333,28.048780487804876 83.28252032520325,28.455284552845526 83.18089430894308,28.810975609756095 83.07926829268293,29.217479674796746 82.97764227642276,29.522357723577237 82.92682926829268,29.776422764227643 82.82520325203252,30.08130081300813 82.72357723577235,30.284552845528456 82.67276422764228,30.48780487804878 82.6219512195122,30.691056910569106 82.5711382113821,30.79268292682927 82.5711382113821,30.89430894308943 82.52032520325203,30.945121951219512 82.52032520325203,30.995934959349594 82.52032520325203,30.995934959349594 82.52032520325203,30.995934959349594 82.52032520325203,30.995934959349594 82.52032520325203,30.995934959349594 82.52032520325203,30.995934959349594 82.52032520325203,30.995934959349594 82.52032520325203,30.89430894308943" fill="none" stroke="black" stroke-width="0.6"></polyline><polyline points="82.52032520325203,30.89430894308943 82.52032520325203,30.79268292682927 82.6219512195122,30.640243902439025 82.72357723577235,30.48780487804878 82.82520325203252,30.233739837398375 82.97764227642276,30.03048780487805 83.18089430894308,29.776422764227643 83.48577235772358,29.471544715447155 83.73983739837398,29.166666666666664 84.09552845528455,28.861788617886177 84.40040650406503,28.55691056910569 84.60365853658537,28.302845528455283 84.7560975609756,28.099593495934958 84.85772357723577,27.947154471544714 84.85772357723577,27.896341463414632 84.90853658536585,27.84552845528455 84.90853658536585,27.84552845528455 84.90853658536585,27.84552845528455 84.90853658536585,27.84552845528455 84.90853658536585,27.84552845528455 84.90853658536585,27.84552845528455" fill="none" stroke="black" stroke-width="0.6"></polyline><polyline points="16.920731707317074,41.41260162601626 16.920731707317074,41.41260162601626 16.920731707317074,41.41260162601626 16.869918699186993,41.41260162601626 16.869918699186993,41.41260162601626 16.869918699186993,41.41260162601626 16.81910569105691,41.46341463414634 16.81910569105691,41.61585365853659 16.81910569105691,41.920731707317074 16.869918699186993,42.327235772357724 16.869918699186993,42.886178861788615 16.869918699186993,43.49593495934959 16.869918699186993,44.20731707317073 16.869918699186993,44.766260162601625 16.81910569105691,45.27439024390244 16.76829268292683,45.73170731707317 16.71747967479675,46.08739837398374 16.71747967479675,46.34146341463415 16.666666666666668,46.49390243902439 16.666666666666668,46.59552845528455 16.666666666666668,46.697154471544714 16.666666666666668,46.7479674796748 16.666666666666668,46.798780487804876 16.666666666666668,46.798780487804876 16.666666666666668,46.798780487804876" fill="none" stroke="black" stroke-width="0.6"></polyline><polyline points="16.41260162601626,41.920731707317074 16.41260162601626,41.81910569105691 16.36178861788618,41.666666666666664 16.3109756097561,41.5650406504065 16.3109756097561,41.46341463414634 16.3109756097561,41.36178861788618 16.36178861788618,41.260162601626014 16.463414634146343,41.15853658536585 16.565040650406505,41.05691056910569 16.71747967479675,41.00609756097561 16.920731707317074,40.90447154471545 17.1239837398374,40.853658536585364 17.428861788617887,40.802845528455286 17.733739837398375,40.802845528455286 17.98780487804878,40.802845528455286 18.29268292682927,40.802845528455286 18.597560975609756,40.802845528455286 18.851626016260163,40.853658536585364 19.054878048780488,40.90447154471545 19.258130081300813,41.00609756097561 19.461382113821138,41.15853658536585 19.61382113821138,41.3109756097561 19.766260162601625,41.5650406504065 19.91869918699187,41.76829268292683 20.020325203252032,42.02235772357724 20.121951219512194,42.27642276422764 20.121951219512194,42.479674796747965 20.121951219512194,42.63211382113821 20.121951219512194,42.83536585365854 20.121951219512194,43.03861788617886 20.071138211382113,43.1910569105691 19.96951219512195,43.39430894308943 19.867886178861788,43.49593495934959 19.766260162601625,43.59756097560975 19.61382113821138,43.64837398373984 19.51219512195122,43.75 19.359756097560975,43.75 19.15650406504065,43.80081300813008 19.004065040650406,43.85162601626016 18.80081300813008,43.85162601626016 18.597560975609756,43.85162601626016 18.34349593495935,43.85162601626016 18.140243902439025,43.85162601626016 17.9369918699187,43.85162601626016 17.835365853658537,43.85162601626016 17.733739837398375,43.90243902439024 17.632113821138212,43.90243902439024 17.632113821138212,43.953252032520325 17.632113821138212,44.0040650406504" fill="none" stroke="black" stroke-width="0.6"></polyline><polyline points="32.926829268292686,40.90447154471545 32.8760162601626,40.90447154471545 32.82520325203252,40.853658536585364 32.82520325203252,40.802845528455286 32.77439024390244,40.7520325203252 32.77439024390244,40.7520325203252 32.72357723577236,40.7520325203252 32.72357723577236,40.7520325203252 32.672764227642276,40.7520325203252 32.6219512195122,40.802845528455286 32.52032520325203,40.90447154471545 32.418699186991866,41.05691056910569 32.36788617886179,41.15853658536585 32.3170731707317,41.209349593495936 32.21544715447154,41.41260162601626 32.0630081300813,41.61585365853659 31.961382113821138,41.86991869918699 31.859756097560975,42.1239837398374 31.758130081300813,42.327235772357724 31.758130081300813,42.58130081300813 31.758130081300813,42.733739837398375 31.758130081300813,42.83536585365854 31.758130081300813,43.03861788617886 31.808943089430894,43.24186991869919 31.859756097560975,43.44512195121951 31.961382113821138,43.64837398373984 32.0630081300813,43.80081300813008 32.21544715447154,43.953252032520325 32.36788617886179,44.05487804878049 32.52032520325203,44.15650406504065 32.72357723577236,44.25813008130081 32.8760162601626,44.30894308943089 33.079268292682926,44.30894308943089 33.28252032520325,44.30894308943089 33.485772357723576,44.30894308943089 33.6890243902439,44.25813008130081 33.94308943089431,44.20731707317073 34.146341463414636,44.105691056910565 34.34959349593496,44.0040650406504 34.40040650406504,43.90243902439024 34.603658536585364,43.699186991869915 34.70528455284553,43.64837398373984 34.75609756097561,43.546747967479675 34.857723577235774,43.34349593495935 34.959349593495936,43.1910569105691 35.010162601626014,42.9369918699187 35.0609756097561,42.733739837398375 35.11178861788618,42.53048780487805 35.11178861788618,42.327235772357724 35.16260162601626,42.17479674796748 35.16260162601626,42.02235772357724" fill="none" stroke="black" stroke-width="0.6"></polyline><polyline points="35.16260162601626,42.02235772357724 35.16260162601626,41.81910569105691 35.16260162601626,41.71747967479675 35.11178861788618,41.5650406504065 35.0609756097561,41.41260162601626 35.010162601626014,41.260162601626014 35.010162601626014,41.107723577235774 34.90853658536585,40.95528455284553 34.857723577235774,40.802845528455286 34.75609756097561,40.701219512195124 34.70528455284553,40.548780487804876 34.603658536585364,40.4979674796748 34.451219512195124,40.396341463414636 34.34959349593496,40.34552845528455 34.197154471544714,40.29471544715447 34.04471544715447,40.29471544715447 33.892276422764226,40.29471544715447 33.6890243902439,40.29471544715447 33.53658536585366,40.29471544715447 33.38414634146341,40.396341463414636 33.23170731707317,40.4979674796748 33.13008130081301,40.65040650406504 33.079268292682926,40.7520325203252" fill="none" stroke="black" stroke-width="0.6"></polyline><polyline points="48.01829268292683,41.00609756097561 47.96747967479675,40.90447154471545 47.916666666666664,40.853658536585364 47.916666666666664,40.853658536585364 47.916666666666664,40.853658536585364 47.916666666666664,40.853658536585364 47.916666666666664,40.90447154471545 47.96747967479675,41.05691056910569 47.96747967479675,41.260162601626014 48.01829268292683,41.514227642276424 48.01829268292683,41.81910569105691 48.06910569105691,42.1239837398374 48.06910569105691,42.3780487804878 48.06910569105691,42.733739837398375 48.11991869918699,43.08943089430894 48.11991869918699,43.39430894308943 48.11991869918699,43.64837398373984 48.11991869918699,43.90243902439024 48.170731707317074,44.05487804878049 48.170731707317074,44.105691056910565 48.170731707317074,44.20731707317073 48.170731707317074,44.20731707317073 48.22154471544715,44.20731707317073 48.22154471544715,44.20731707317073 48.22154471544715,44.20731707317073 48.22154471544715,44.20731707317073 48.22154471544715,44.15650406504065 48.22154471544715,44.105691056910565 48.22154471544715,44.0040650406504 48.22154471544715,43.85162601626016 48.22154471544715,43.59756097560975 48.27235772357724,43.34349593495935 48.27235772357724,43.03861788617886 48.323170731707314,42.733739837398375 48.323170731707314,42.42886178861789 48.42479674796748,42.1239837398374 48.52642276422764,41.81910569105691 48.729674796747965,41.5650406504065 48.93292682926829,41.3109756097561 49.1869918699187,41.107723577235774 49.49186991869919,40.95528455284553 49.796747967479675,40.802845528455286 50,40.7520325203252 50.10162601626016,40.7520325203252 50.2540650406504,40.7520325203252 50.355691056910565,40.853658536585364 50.45731707317073,40.95528455284553 50.609756097560975,41.107723577235774 50.71138211382114,41.3109756097561 50.86382113821138,41.5650406504065 50.96544715447154,41.81910569105691" fill="none" stroke="black" stroke-width="0.6"></polyline><polyline points="50.96544715447154,41.81910569105691 51.0670731707317,42.1239837398374 51.21951219512195,42.42886178861789 51.32113821138211,42.733739837398375 51.37195121951219,42.98780487804878 51.47357723577235,43.292682926829265 51.47357723577235,43.44512195121951 51.52439024390244,43.59756097560975 51.575203252032516,43.699186991869915 51.6260162601626,43.75 51.6260162601626,43.85162601626016 51.67682926829268,43.90243902439024 51.77845528455284,43.953252032520325 51.829268292682926,44.0040650406504 51.93089430894309,44.105691056910565 51.981707317073166,44.105691056910565" fill="none" stroke="black" stroke-width="0.6"></polyline><polyline points="63.109756097560975,40.447154471544714 63.109756097560975,40.447154471544714 63.109756097560975,40.34552845528455 63.05894308943089,40.29471544715447 63.05894308943089,40.24390243902439 63.05894308943089,40.24390243902439 63.05894308943089,40.29471544715447 63.05894308943089,40.396341463414636 63.109756097560975,40.59959349593496 63.109756097560975,40.853658536585364 63.16056910569105,41.15853658536585 63.16056910569105,41.514227642276424 63.16056910569105,41.86991869918699 63.16056910569105,42.22560975609756 63.16056910569105,42.53048780487805 63.16056910569105,42.83536585365854 63.16056910569105,43.03861788617886 63.16056910569105,43.1910569105691 63.109756097560975,43.34349593495935 63.109756097560975,43.44512195121951 63.109756097560975,43.49593495934959 63.109756097560975,43.546747967479675 63.109756097560975,43.546747967479675 63.109756097560975,43.546747967479675 63.109756097560975,43.546747967479675 63.109756097560975,43.546747967479675 63.109756097560975,43.49593495934959 63.109756097560975,43.44512195121951 63.109756097560975,43.39430894308943 63.109756097560975,43.24186991869919 63.109756097560975,43.03861788617886 63.16056910569105,42.83536585365854 63.16056910569105,42.63211382113821 63.21138211382114,42.42886178861789 63.262195121951216,42.17479674796748 63.36382113821138,41.86991869918699 63.516260162601625,41.5650406504065 63.71951219512195,41.3109756097561 63.87195121951219,41.107723577235774 64.07520325203252,40.95528455284553 64.22764227642276,40.853658536585364 64.380081300813,40.853658536585364 64.53252032520325,40.853658536585364 64.6341463414634,40.853658536585364 64.73577235772358,40.95528455284553 64.83739837398373,41.107723577235774 64.9390243902439,41.260162601626014 64.98983739837398,41.46341463414634 65.09146341463415,41.71747967479675 65.1930894308943,41.97154471544715 65.2439024390244,42.22560975609756" fill="none" stroke="black" stroke-width="0.6"></polyline><polyline points="65.2439024390244,42.22560975609756 65.29471544715447,42.479674796747965 65.34552845528455,42.68292682926829 65.39634146341463,42.886178861788615 65.44715447154472,43.03861788617886 65.4979674796748,43.08943089430894 65.4979674796748,43.140243902439025 65.54878048780488,43.140243902439025 65.54878048780488,43.140243902439025 65.54878048780488,43.140243902439025 65.54878048780488,43.140243902439025 65.59959349593495,43.08943089430894 65.65040650406505,42.98780487804878 65.70121951219512,42.83536585365854 65.80284552845528,42.63211382113821 65.90447154471545,42.327235772357724 66.0060975609756,42.02235772357724 66.15853658536585,41.71747967479675 66.3109756097561,41.41260162601626 66.51422764227642,41.15853658536585 66.66666666666667,40.90447154471545 66.869918699187,40.802845528455286 66.97154471544715,40.7520325203252 67.1239837398374,40.7520325203252 67.22560975609755,40.7520325203252 67.27642276422765,40.853658536585364 67.42886178861788,41.00609756097561 67.53048780487805,41.209349593495936 67.6321138211382,41.41260162601626 67.73373983739837,41.666666666666664 67.88617886178862,41.920731707317074 67.98780487804878,42.1239837398374 68.03861788617886,42.3780487804878 68.14024390243902,42.63211382113821 68.24186991869918,42.83536585365854 68.29268292682927,42.98780487804878 68.39430894308943,43.1910569105691 68.4959349593496,43.292682926829265 68.59756097560975,43.44512195121951 68.75,43.59756097560975 68.90243902439025,43.699186991869915 69.10569105691057,43.80081300813008" fill="none" stroke="black" stroke-width="0.6"></polyline><polyline points="82.21544715447155,38.00813008130081 82.21544715447155,38.00813008130081 82.21544715447155,37.95731707317073 82.21544715447155,37.90650406504065 82.21544715447155,37.90650406504065 82.21544715447155,37.90650406504065 82.26626016260163,37.90650406504065 82.26626016260163,38.00813008130081 82.26626016260163,38.109756097560975 82.3170731707317,38.262195121951216 82.3170731707317,38.46544715447154 82.3170731707317,38.71951219512195 82.3170731707317,38.97357723577235 82.3170731707317,39.27845528455285 82.26626016260163,39.6849593495935 82.21544715447155,40.142276422764226 82.21544715447155,40.65040650406504 82.16463414634146,41.209349593495936 82.11382113821138,41.71747967479675 82.0630081300813,42.27642276422764 82.01219512195122,42.733739837398375 81.96138211382113,43.08943089430894 81.96138211382113,43.49593495934959 81.91056910569105,43.85162601626016 81.91056910569105,44.105691056910565 81.91056910569105,44.30894308943089 81.96138211382113,44.512195121951216 82.01219512195122,44.61382113821138 82.0630081300813,44.66463414634146 82.11382113821138,44.766260162601625 82.16463414634146,44.766260162601625 82.21544715447155,44.8170731707317 82.26626016260163,44.86788617886179" fill="none" stroke="black" stroke-width="0.6"></polyline><polyline points="16.006097560975608,55.28455284552845 16.006097560975608,55.28455284552845 15.955284552845528,55.28455284552845 15.955284552845528,55.233739837398375 15.955284552845528,55.233739837398375 15.955284552845528,55.233739837398375 15.955284552845528,55.233739837398375 15.955284552845528,55.33536585365854 16.006097560975608,55.4369918699187 16.05691056910569,55.640243902439025 16.10772357723577,55.89430894308943 16.15853658536585,56.199186991869915 16.209349593495933,56.40243902439024 16.260162601626014,56.605691056910565 16.3109756097561,57.11382113821138 16.36178861788618,57.62195121951219 16.41260162601626,58.18089430894309 16.463414634146343,58.739837398373986 16.463414634146343,58.94308943089431 16.463414634146343,59.146341463414636 16.463414634146343,59.5020325203252 16.463414634146343,59.857723577235774 16.463414634146343,60.0609756097561 16.463414634146343,60.264227642276424 16.463414634146343,60.416666666666664 16.514227642276424,60.56910569105691 16.514227642276424,60.670731707317074 16.514227642276424,60.72154471544715 16.514227642276424,60.72154471544715 16.514227642276424,60.72154471544715 16.514227642276424,60.72154471544715 16.514227642276424,60.72154471544715 16.514227642276424,60.72154471544715 16.514227642276424,60.670731707317074 16.565040650406505,60.56910569105691" fill="none" stroke="black" stroke-width="0.6"></polyline><polyline points="19.15650406504065,57.46951219512195 19.15650406504065,57.46951219512195 19.15650406504065,57.418699186991866 19.15650406504065,57.418699186991866 19.15650406504065,57.418699186991866 19.10569105691057,57.418699186991866 19.004065040650406,57.46951219512195 18.902439024390244,57.62195121951219 18.69918699186992,57.825203252032516 18.495934959349594,58.02845528455284 18.241869918699187,58.231707317073166 17.98780487804878,58.38414634146341 17.733739837398375,58.536585365853654 17.479674796747968,58.58739837398374 17.17479674796748,58.58739837398374 16.920731707317074,58.63821138211382 16.71747967479675,58.63821138211382 16.514227642276424,58.58739837398374 16.41260162601626,58.58739837398374 16.36178861788618,58.536585365853654 16.260162601626014,58.485772357723576 16.260162601626014,58.485772357723576 16.260162601626014,58.485772357723576 16.260162601626014,58.485772357723576 16.260162601626014,58.485772357723576 16.260162601626014,58.536585365853654 16.3109756097561,58.63821138211382 16.41260162601626,58.790650406504064 16.565040650406505,58.99390243902439 16.71747967479675,59.197154471544714 16.920731707317074,59.40040650406504 17.1239837398374,59.603658536585364 17.428861788617887,59.857723577235774 17.632113821138212,60.11178861788618 17.9369918699187,60.3150406504065 18.191056910569106,60.51829268292683 18.495934959349594,60.72154471544715 18.80081300813008,60.8739837398374 19.10569105691057,61.02642276422764 19.410569105691057,61.17886178861789 19.664634146341463,61.229674796747965 19.91869918699187,61.33130081300813 20.020325203252032,61.43292682926829 20.172764227642276,61.53455284552845 20.274390243902438,61.636178861788615" fill="none" stroke="black" stroke-width="0.6"></polyline><polyline points="33.13008130081301,58.43495934959349 33.13008130081301,58.43495934959349 33.079268292682926,58.43495934959349 33.079268292682926,58.43495934959349 33.079268292682926,58.43495934959349 33.079268292682926,58.536585365853654 33.079268292682926,58.63821138211382 33.079268292682926,58.84146341463415 33.13008130081301,59.09552845528455 33.13008130081301,59.2479674796748 33.13008130081301,59.40040650406504 33.18089430894309,59.70528455284553 33.23170731707317,60.0609756097561 33.28252032520325,60.416666666666664 33.333333333333336,60.77235772357724 33.38414634146341,61.17886178861789 33.4349593495935,61.53455284552845 33.4349593495935,61.890243902439025 33.4349593495935,62.19512195121951 33.4349593495935,62.5 33.4349593495935,62.7540650406504 33.4349593495935,63.00813008130081 33.333333333333336,63.21138211382114 33.28252032520325,63.36382113821138 33.23170731707317,63.516260162601625 33.13008130081301,63.61788617886179 33.02845528455285,63.668699186991866 32.97764227642276,63.668699186991866 32.8760162601626,63.71951219512195 32.72357723577236,63.71951219512195 32.57113821138211,63.71951219512195 32.418699186991866,63.668699186991866 32.21544715447154,63.61788617886179 32.012195121951216,63.516260162601625 31.859756097560975,63.46544715447154 31.70731707317073,63.36382113821138 31.554878048780488,63.21138211382114 31.402439024390244,63.109756097560975 31.30081300813008,62.95731707317073 31.19918699186992,62.80487804878049 31.148373983739837,62.65243902439024 31.097560975609756,62.5 31.097560975609756,62.34756097560975" fill="none" stroke="black" stroke-width="0.6"></polyline><polyline points="32.8760162601626,56.30081300813008 32.72357723577236,55.99593495934959 32.57113821138211,55.74186991869919 32.46951219512195,55.53861788617886 32.418699186991866,55.53861788617886 32.418699186991866,55.48780487804878 32.418699186991866,55.48780487804878 32.418699186991866,55.4369918699187 32.418699186991866,55.4369918699187 32.46951219512195,55.4369918699187 32.52032520325203,55.4369918699187" fill="none" stroke="black" stroke-width="0.6"></polyline><polyline points="48.577235772357724,58.231707317073166 48.577235772357724,58.231707317073166 48.577235772357724,58.130081300813 48.577235772357724,58.130081300813 48.577235772357724,58.079268292682926 48.577235772357724,58.02845528455284 48.577235772357724,57.97764227642276 48.577235772357724,57.97764227642276 48.577235772357724,57.97764227642276 48.577235772357724,57.92682926829268 48.577235772357724,57.92682926829268 48.577235772357724,57.92682926829268 48.577235772357724,57.92682926829268 48.577235772357724,57.92682926829268 48.577235772357724,57.92682926829268 48.6280487804878,58.02845528455284 48.6280487804878,58.130081300813 48.67886178861789,58.33333333333333 48.67886178861789,58.63821138211382 48.729674796747965,58.99390243902439 48.729674796747965,59.40040650406504 48.78048780487805,59.80691056910569 48.78048780487805,60.264227642276424 48.83130081300813,60.72154471544715 48.83130081300813,61.077235772357724 48.83130081300813,61.38211382113821 48.88211382113821,61.636178861788615 48.88211382113821,61.78861788617886 48.88211382113821,61.9410569105691 48.88211382113821,61.99186991869919 48.93292682926829,62.042682926829265 48.93292682926829,62.042682926829265 48.93292682926829,62.042682926829265 48.93292682926829,62.042682926829265 48.93292682926829,62.042682926829265 48.93292682926829,61.99186991869919" fill="none" stroke="black" stroke-width="0.6"></polyline><polyline points="48.42479674796748,55.99593495934959 48.42479674796748,55.99593495934959 48.3739837398374,55.792682926829265 48.27235772357724,55.640243902439025 48.22154471544715,55.48780487804878 48.170731707317074,55.4369918699187 48.170731707317074,55.4369918699187 48.170731707317074,55.4369918699187 48.170731707317074,55.4369918699187 48.170731707317074,55.48780487804878" fill="none" stroke="black" stroke-width="0.6"></polyline><polyline points="63.262195121951216,54.67479674796748 63.262195121951216,54.67479674796748 63.262195121951216,54.573170731707314 63.262195121951216,54.52235772357724 63.262195121951216,54.47154471544715 63.262195121951216,54.47154471544715 63.262195121951216,54.47154471544715 63.262195121951216,54.47154471544715 63.262195121951216,54.52235772357724 63.262195121951216,54.6239837398374 63.262195121951216,54.827235772357724 63.3130081300813,55.03048780487805 63.3130081300813,55.28455284552845 63.3130081300813,55.58943089430894 63.36382113821138,55.94512195121951 63.36382113821138,56.40243902439024 63.41463414634146,56.96138211382114 63.41463414634146,57.46951219512195 63.41463414634146,57.97764227642276 63.41463414634146,58.536585365853654 63.41463414634146,58.99390243902439 63.41463414634146,59.451219512195124 63.46544715447154,59.80691056910569 63.46544715447154,60.11178861788618 63.46544715447154,60.36585365853659 63.46544715447154,60.61991869918699 63.46544715447154,60.8739837398374 63.516260162601625,61.077235772357724 63.516260162601625,61.17886178861789 63.5670731707317,61.38211382113821 63.5670731707317,61.483739837398375 63.61788617886179,61.53455284552845 63.61788617886179,61.53455284552845 63.61788617886179,61.53455284552845 63.61788617886179,61.53455284552845 63.61788617886179,61.483739837398375 63.61788617886179,61.43292682926829 63.61788617886179,61.38211382113821 63.61788617886179,61.229674796747965 63.61788617886179,61.02642276422764 63.61788617886179,60.77235772357724 63.668699186991866,60.51829268292683 63.668699186991866,60.264227642276424 63.71951219512195,59.959349593495936 63.82113821138211,59.70528455284553 63.922764227642276,59.40040650406504 64.07520325203252,59.146341463414636 64.22764227642276,58.892276422764226 64.380081300813,58.6890243902439 64.58333333333333,58.485772357723576 64.73577235772358,58.33333333333333" fill="none" stroke="black" stroke-width="0.6"></polyline><polyline points="64.73577235772358,58.33333333333333 64.9390243902439,58.231707317073166 65.09146341463415,58.231707317073166 65.1930894308943,58.231707317073166 65.34552845528455,58.231707317073166 65.44715447154472,58.231707317073166 65.54878048780488,58.28252032520325 65.70121951219512,58.33333333333333 65.80284552845528,58.485772357723576 65.90447154471545,58.63821138211382 66.0569105691057,58.84146341463415 66.20934959349593,59.04471544715447 66.36178861788618,59.2479674796748 66.51422764227642,59.5020325203252 66.66666666666667,59.70528455284553 66.76829268292683,59.90853658536585 66.92073170731707,60.16260162601626 67.02235772357723,60.36585365853659 67.07317073170732,60.51829268292683 67.17479674796748,60.72154471544715 67.22560975609755,60.8739837398374 67.27642276422765,61.02642276422764 67.32723577235772,61.17886178861789 67.32723577235772,61.229674796747965 67.32723577235772,61.28048780487805 67.3780487804878,61.38211382113821 67.42886178861788,61.483739837398375 67.53048780487805,61.58536585365854 67.58130081300813,61.636178861788615 67.6829268292683,61.6869918699187 67.73373983739837,61.73780487804878" fill="none" stroke="black" stroke-width="0.6"></polyline><polyline points="83.4349593495935,58.485772357723576 83.4349593495935,58.485772357723576 83.4349593495935,58.43495934959349 83.4349593495935,58.38414634146341 83.4349593495935,58.38414634146341 83.4349593495935,58.33333333333333 83.4349593495935,58.33333333333333 83.4349593495935,58.33333333333333 83.4349593495935,58.33333333333333 83.4349593495935,58.28252032520325 83.4349593495935,58.28252032520325 83.48577235772358,58.231707317073166 83.48577235772358,58.18089430894309 83.53658536585365,58.130081300813 83.53658536585365,58.079268292682926 83.58739837398373,57.97764227642276 83.63821138211382,57.8760162601626 83.63821138211382,57.77439024390244 83.6890243902439,57.62195121951219 83.6890243902439,57.52032520325203 83.6890243902439,57.418699186991866 83.6890243902439,57.266260162601625 83.63821138211382,57.16463414634146 83.48577235772358,57.11382113821138 83.3841463414634,57.012195121951216 83.18089430894308,57.012195121951216 82.92682926829268,57.012195121951216 82.6219512195122,57.012195121951216 82.3170731707317,57.16463414634146 82.01219512195122,57.36788617886179 81.70731707317073,57.62195121951219 81.5040650406504,57.8760162601626 81.30081300813008,58.18089430894309 81.14837398373983,58.536585365853654 81.04674796747967,58.892276422764226 80.9959349593496,59.2479674796748 80.9959349593496,59.5020325203252 81.04674796747967,59.70528455284553 81.14837398373983,59.857723577235774 81.30081300813008,59.959349593495936 81.45325203252033,60.010162601626014 81.60569105691057,60.0609756097561 81.8089430894309,60.0609756097561 82.01219512195122,60.0609756097561 82.21544715447155,60.010162601626014 82.41869918699187,59.959349593495936 82.5711382113821,59.857723577235774 82.77439024390243,59.70528455284553 82.92682926829268,59.552845528455286 83.02845528455285,59.40040650406504 83.18089430894308,59.2479674796748" fill="none" stroke="black" stroke-width="0.6"></polyline><polyline points="83.18089430894308,59.2479674796748 83.28252032520325,59.04471544715447 83.3841463414634,58.94308943089431 83.4349593495935,58.790650406504064 83.48577235772358,58.63821138211382 83.48577235772358,58.536585365853654 83.48577235772358,58.43495934959349 83.48577235772358,58.33333333333333 83.48577235772358,58.28252032520325 83.4349593495935,58.231707317073166 83.4349593495935,58.18089430894309 83.3841463414634,58.18089430894309 83.3841463414634,58.18089430894309 83.3841463414634,58.18089430894309 83.33333333333333,58.231707317073166 83.33333333333333,58.28252032520325 83.33333333333333,58.43495934959349 83.33333333333333,58.63821138211382 83.33333333333333,58.892276422764226 83.33333333333333,59.197154471544714 83.3841463414634,59.552845528455286 83.4349593495935,60.010162601626014 83.53658536585365,60.46747967479675 83.58739837398373,60.97560975609756 83.63821138211382,61.43292682926829 83.6890243902439,61.83943089430894 83.6890243902439,62.19512195121951 83.6890243902439,62.5 83.63821138211382,62.80487804878049 83.48577235772358,63.05894308943089 83.33333333333333,63.3130081300813 83.130081300813,63.46544715447154 82.8760162601626,63.668699186991866 82.52032520325203,63.82113821138211 82.16463414634146,63.922764227642276 81.85975609756098,64.02439024390243 81.55487804878048,64.07520325203252 81.25,64.1260162601626 80.9959349593496,64.1260162601626 80.74186991869918,64.17682926829268 80.48780487804878,64.17682926829268" fill="none" stroke="black" stroke-width="0.6"></polyline><polyline points="21.1890243902439,71.29065040650406 21.13821138211382,71.08739837398373 21.036585365853657,70.9349593495935 20.985772357723576,70.73170731707317 20.884146341463413,70.630081300813 20.78252032520325,70.47764227642276 20.68089430894309,70.32520325203252 20.528455284552845,70.27439024390243 20.32520325203252,70.17276422764228 20.121951219512194,70.1219512195122 19.867886178861788,70.1219512195122 19.61382113821138,70.1219512195122 19.308943089430894,70.17276422764228 19.10569105691057,70.22357723577235 18.953252032520325,70.27439024390243 18.75,70.3760162601626 18.597560975609756,70.52845528455285 18.495934959349594,70.68089430894308 18.34349593495935,70.9349593495935 18.29268292682927,71.1890243902439 18.241869918699187,71.54471544715447 18.191056910569106,72.05284552845528 18.191056910569106,72.61178861788618 18.191056910569106,73.22154471544715 18.140243902439025,73.98373983739837 18.140243902439025,74.33943089430895 18.089430894308943,74.64430894308943 18.038617886178862,75.30487804878048 17.98780487804878,75.96544715447155 17.9369918699187,76.52439024390243 17.88617886178862,77.03252032520325 17.784552845528456,77.48983739837398 17.682926829268293,77.84552845528455 17.632113821138212,78.20121951219512 17.53048780487805,78.5569105691057 17.479674796747968,78.8109756097561 17.428861788617887,79.0650406504065 17.428861788617887,79.26829268292683 17.378048780487806,79.369918699187 17.378048780487806,79.47154471544715 17.378048780487806,79.52235772357723 17.378048780487806,79.52235772357723 17.378048780487806,79.52235772357723 17.378048780487806,79.52235772357723" fill="none" stroke="black" stroke-width="0.6"></polyline><polyline points="16.41260162601626,75.66056910569105 16.36178861788618,75.66056910569105 16.3109756097561,75.5589430894309 16.260162601626014,75.5589430894309 16.260162601626014,75.5589430894309 16.260162601626014,75.5589430894309 16.3109756097561,75.5589430894309 16.514227642276424,75.5589430894309 16.76829268292683,75.5589430894309 17.1239837398374,75.5081300813008 17.53048780487805,75.5081300813008 17.98780487804878,75.45731707317073 18.445121951219512,75.40650406504065 18.902439024390244,75.35569105691057 19.359756097560975,75.2540650406504 19.766260162601625,75.20325203252033 20.121951219512194,75.15243902439025 20.477642276422763,75.10162601626016 20.73170731707317,75.05081300813008 20.985772357723576,75.05081300813008 21.290650406504064,75.05081300813008 21.443089430894307,75" fill="none" stroke="black" stroke-width="0.6"></polyline><polyline points="31.30081300813008,76.0670731707317 31.30081300813008,76.0670731707317 31.30081300813008,76.0670731707317 31.30081300813008,76.0670731707317 31.30081300813008,76.0670731707317 31.30081300813008,76.0670731707317 31.402439024390244,76.0670731707317 31.554878048780488,76.0670731707317 31.70731707317073,76.0670731707317 31.961382113821138,76.11788617886178 32.266260162601625,76.11788617886178 32.57113821138211,76.11788617886178 32.8760162601626,76.0670731707317 33.02845528455285,76.01626016260163 33.18089430894309,75.96544715447155 33.4349593495935,75.86382113821138 33.739837398373986,75.71138211382113 33.99390243902439,75.5589430894309 34.2479674796748,75.40650406504065 34.451219512195124,75.2540650406504 34.603658536585364,75.15243902439025 34.70528455284553,75.05081300813008 34.80691056910569,74.94918699186992 34.857723577235774,74.89837398373983 34.90853658536585,74.84756097560975 34.90853658536585,74.79674796747967 34.90853658536585,74.7459349593496 34.90853658536585,74.6951219512195 34.857723577235774,74.64430894308943 34.857723577235774,74.59349593495935 34.80691056910569,74.54268292682927 34.70528455284553,74.49186991869918 34.603658536585364,74.4410569105691 34.5020325203252,74.39024390243902 34.40040650406504,74.33943089430895 34.2479674796748,74.28861788617886 34.09552845528455,74.23780487804878 33.94308943089431,74.1869918699187 33.790650406504064,74.1869918699187 33.739837398373986,74.1869918699187 33.63821138211382,74.1869918699187 33.4349593495935,74.1869918699187 33.23170731707317,74.1869918699187 33.079268292682926,74.23780487804878 32.8760162601626,74.28861788617886 32.77439024390244,74.33943089430895 32.72357723577236,74.39024390243902 32.52032520325203,74.49186991869918 32.418699186991866,74.59349593495935 32.266260162601625,74.7459349593496 32.11382113821138,74.94918699186992" fill="none" stroke="black" stroke-width="0.6"></polyline><polyline points="32.11382113821138,74.94918699186992 32.012195121951216,75.15243902439025 31.859756097560975,75.35569105691057 31.758130081300813,75.60975609756098 31.65650406504065,75.91463414634146 31.554878048780488,76.16869918699187 31.504065040650406,76.47357723577235 31.402439024390244,76.77845528455285 31.402439024390244,77.03252032520325 31.351626016260163,77.28658536585365 31.351626016260163,77.64227642276423 31.30081300813008,77.89634146341463 31.30081300813008,78.20121951219512 31.351626016260163,78.5060975609756 31.402439024390244,78.70934959349593 31.504065040650406,78.91260162601625 31.60569105691057,79.0650406504065 31.758130081300813,79.16666666666667 31.961382113821138,79.3191056910569 32.21544715447154,79.369918699187 32.52032520325203,79.42073170731707 32.8760162601626,79.42073170731707 33.23170731707317,79.369918699187 33.58739837398374,79.26829268292683 33.94308943089431,79.16666666666667 34.34959349593496,79.01422764227642 34.70528455284553,78.91260162601625 35.0609756097561,78.8109756097561 35.416666666666664,78.70934959349593 35.56910569105691,78.65853658536585" fill="none" stroke="black" stroke-width="0.6"></polyline><polyline points="51.67682926829268,75.86382113821138 51.67682926829268,75.76219512195122 51.67682926829268,75.60975609756098 51.6260162601626,75.5081300813008 51.6260162601626,75.40650406504065 51.575203252032516,75.30487804878048 51.575203252032516,75.20325203252033 51.575203252032516,75.10162601626016 51.52439024390244,75.05081300813008 51.47357723577235,74.94918699186992 51.422764227642276,74.84756097560975 51.37195121951219,74.79674796747967 51.21951219512195,74.6951219512195 51.11788617886179,74.59349593495935 50.91463414634146,74.54268292682927 50.71138211382114,74.49186991869918 50.45731707317073,74.4410569105691 50.15243902439024,74.4410569105691 49.796747967479675,74.59349593495935 49.49186991869919,74.7459349593496 49.1869918699187,74.94918699186992 48.983739837398375,75.2540650406504 48.78048780487805,75.60975609756098 48.67886178861789,76.01626016260163 48.6280487804878,76.47357723577235 48.577235772357724,76.98170731707317 48.6280487804878,77.38821138211382 48.729674796747965,77.6930894308943 48.88211382113821,77.9979674796748 49.03455284552845,78.15040650406505 49.23780487804878,78.2520325203252 49.49186991869919,78.30284552845528 49.69512195121951,78.30284552845528 49.949186991869915,78.30284552845528 50.2540650406504,78.15040650406505 50.50813008130081,77.9979674796748 50.8130081300813,77.74390243902438 51.0670731707317,77.4390243902439 51.27032520325203,77.1341463414634 51.47357723577235,76.77845528455285 51.6260162601626,76.3719512195122 51.72764227642276,75.91463414634146 51.77845528455284,75.35569105691057 51.77845528455284,74.7459349593496 51.829268292682926,74.1869918699187 51.880081300813,73.52642276422765 51.93089430894309,72.96747967479675 51.981707317073166,72.5609756097561 51.981707317073166,72.2560975609756 51.981707317073166,72.05284552845528 51.981707317073166,71.95121951219512" fill="none" stroke="black" stroke-width="0.6"></polyline><polyline points="51.981707317073166,71.95121951219512 51.981707317073166,71.90040650406505 51.981707317073166,71.90040650406505 51.981707317073166,71.84959349593495 51.981707317073166,71.84959349593495 51.981707317073166,71.84959349593495 51.981707317073166,71.95121951219512 51.93089430894309,72.10365853658537 51.880081300813,72.40853658536585 51.829268292682926,72.71341463414635 51.77845528455284,73.0691056910569 51.77845528455284,73.47560975609755 51.77845528455284,73.8821138211382 51.829268292682926,74.4410569105691 51.981707317073166,75 52.13414634146341,75.60975609756098 52.28658536585366,76.27032520325203 52.38821138211382,76.77845528455285 52.489837398373986,77.1849593495935 52.540650406504064,77.48983739837398 52.59146341463415,77.6930894308943 52.642276422764226,77.84552845528455 52.69308943089431,77.9979674796748 52.74390243902439,78.09959349593495 52.84552845528455,78.20121951219512 52.896341463414636,78.2520325203252 52.947154471544714,78.30284552845528 52.9979674796748,78.30284552845528 52.9979674796748,78.35365853658537" fill="none" stroke="black" stroke-width="0.6"></polyline><polyline points="66.71747967479675,74.28861788617886 66.71747967479675,74.13617886178862 66.71747967479675,73.98373983739837 66.71747967479675,73.83130081300813 66.71747967479675,73.72967479674797 66.71747967479675,73.67886178861788 66.71747967479675,73.6280487804878 66.66666666666667,73.57723577235772 66.5650406504065,73.57723577235772 66.41260162601625,73.57723577235772 66.20934959349593,73.57723577235772 65.95528455284553,73.67886178861788 65.65040650406505,73.78048780487805 65.2439024390244,73.98373983739837 64.78658536585365,74.28861788617886 64.32926829268293,74.64430894308943 63.97357723577235,74.94918699186992 63.668699186991866,75.30487804878048 63.41463414634146,75.76219512195122 63.3130081300813,76.11788617886178 63.3130081300813,76.52439024390243 63.3130081300813,76.93089430894308 63.36382113821138,77.23577235772358 63.5670731707317,77.54065040650406 63.77032520325203,77.74390243902438 64.07520325203252,77.89634146341463 64.48170731707317,77.9979674796748 64.98983739837398,78.04878048780488 65.44715447154472,78.04878048780488 66.0060975609756,78.04878048780488 66.51422764227642,77.9979674796748 66.97154471544715,77.9471544715447 67.47967479674797,77.84552845528455 67.73373983739837,77.79471544715447" fill="none" stroke="black" stroke-width="0.6"></polyline><polyline points="81.5040650406504,70.73170731707317 81.5040650406504,70.73170731707317 81.45325203252033,70.73170731707317 81.45325203252033,70.73170731707317 81.45325203252033,70.78252032520325 81.45325203252033,71.03658536585365 81.45325203252033,71.54471544715447 81.45325203252033,72.20528455284553 81.45325203252033,72.96747967479675 81.45325203252033,73.72967479674797 81.40243902439025,74.54268292682927 81.35162601626016,75.20325203252033 81.30081300813008,75.76219512195122 81.25,76.3211382113821 81.19918699186992,76.72764227642276 81.14837398373983,77.08333333333333 81.14837398373983,77.38821138211382 81.14837398373983,77.54065040650406 81.14837398373983,77.6930894308943 81.14837398373983,77.79471544715447 81.19918699186992,77.89634146341463 81.19918699186992,77.9471544715447 81.19918699186992,77.9471544715447 81.19918699186992,77.9471544715447 81.19918699186992,77.9471544715447 81.25,77.89634146341463 81.25,77.74390243902438 81.25,77.48983739837398 81.30081300813008,77.1849593495935 81.30081300813008,76.880081300813 81.35162601626016,76.47357723577235 81.45325203252033,76.0670731707317 81.55487804878048,75.71138211382113 81.70731707317073,75.35569105691057 81.96138211382113,74.94918699186992 82.21544715447155,74.6951219512195 82.52032520325203,74.49186991869918 82.77439024390243,74.33943089430895 83.02845528455285,74.33943089430895 83.23170731707317,74.33943089430895 83.4349593495935,74.33943089430895 83.58739837398373,74.49186991869918 83.79065040650406,74.64430894308943 84.04471544715447,74.84756097560975 84.2479674796748,75.05081300813008 84.5020325203252,75.2540650406504 84.70528455284553,75.45731707317073 84.85772357723577,75.71138211382113 85.01016260162602,75.91463414634146 85.11178861788618,76.11788617886178 85.16260162601625,76.3211382113821" fill="none" stroke="black" stroke-width="0.6"></polyline><polyline points="85.16260162601625,76.3211382113821 85.26422764227642,76.47357723577235 85.26422764227642,76.6260162601626 85.26422764227642,76.82926829268293 85.21341463414635,76.880081300813 85.11178861788618,76.98170731707317 84.90853658536585,77.1341463414634 84.60365853658537,77.28658536585365 84.29878048780488,77.38821138211382 83.99390243902438,77.48983739837398 83.6890243902439,77.59146341463415 83.33333333333333,77.64227642276423 83.02845528455285,77.6930894308943 82.72357723577235,77.6930894308943 82.3170731707317,77.74390243902438 82.16463414634146,77.79471544715447" fill="none" stroke="black" stroke-width="0.6"></polyline><polyline points="19.004065040650406,92.27642276422765 18.953252032520325,92.22560975609755 18.953252032520325,92.1239837398374 18.953252032520325,92.07317073170732 18.953252032520325,92.02235772357723 19.004065040650406,91.92073170731707 19.10569105691057,91.76829268292683 19.20731707317073,91.61585365853658 19.308943089430894,91.46341463414635 19.410569105691057,91.26016260162602 19.51219512195122,91.0060975609756 19.61382113821138,90.7520325203252 19.664634146341463,90.4979674796748 19.664634146341463,90.24390243902438 19.664634146341463,89.98983739837398 19.5630081300813,89.78658536585365 19.461382113821138,89.58333333333333 19.308943089430894,89.380081300813 19.10569105691057,89.27845528455285 18.902439024390244,89.17682926829268 18.648373983739837,89.17682926829268 18.39430894308943,89.22764227642276 18.089430894308943,89.43089430894308 17.682926829268293,89.78658536585365 17.327235772357724,90.14227642276423 16.971544715447155,90.59959349593495 16.615853658536587,91.0569105691057 16.36178861788618,91.5650406504065 16.209349593495933,92.02235772357723 16.10772357723577,92.53048780487805 16.05691056910569,92.88617886178862 16.05691056910569,93.1910569105691 16.15853658536585,93.4959349593496 16.3109756097561,93.64837398373983 16.514227642276424,93.75 16.76829268292683,93.80081300813008 17.022357723577237,93.80081300813008 17.378048780487806,93.64837398373983 17.784552845528456,93.39430894308943 18.191056910569106,93.08943089430895 18.597560975609756,92.78455284552845 18.953252032520325,92.42886178861788 19.258130081300813,92.1239837398374 19.51219512195122,91.869918699187 19.766260162601625,91.51422764227642 19.96951219512195,91.20934959349593 20.121951219512194,90.85365853658536 20.274390243902438,90.59959349593495 20.3760162601626,90.39634146341463 20.426829268292682,90.29471544715447 20.477642276422763,90.24390243902438" fill="none" stroke="black" stroke-width="0.6"></polyline><polyline points="20.477642276422763,90.24390243902438 20.477642276422763,90.24390243902438 20.477642276422763,90.24390243902438 20.477642276422763,90.24390243902438 20.477642276422763,90.29471544715447 20.477642276422763,90.4979674796748 20.426829268292682,90.7520325203252 20.3760162601626,91.10772357723577 20.3760162601626,91.51422764227642 20.3760162601626,91.92073170731707 20.3760162601626,92.3780487804878 20.477642276422763,92.88617886178862 20.579268292682926,93.29268292682927 20.73170731707317,93.64837398373983 20.934959349593495,94.0040650406504 21.13821138211382,94.20731707317073 21.239837398373982,94.2581300813008 21.747967479674795,94.41056910569105" fill="none" stroke="black" stroke-width="0.6"></polyline></svg>