<svg height="100" width="100" preserveAspectRatio="xMidYMid meet"><polyline points="43.34349593495935,16.565040650406505 43.39430894308943,16.565040650406505 43.39430894308943,16.565040650406505 43.44512195121951,16.565040650406505 43.44512195121951,16.565040650406505 43.546747967479675,16.514227642276424 43.546747967479675,16.514227642276424 43.546747967479675,16.514227642276424 43.59756097560975,16.463414634146343 43.64837398373984,16.463414634146343 43.64837398373984,16.463414634146343 43.64837398373984,16.463414634146343 43.64837398373984,16.41260162601626 43.64837398373984,16.41260162601626 43.64837398373984,16.41260162601626 43.64837398373984,16.41260162601626 43.64837398373984,16.41260162601626 43.64837398373984,16.41260162601626 43.64837398373984,16.41260162601626 43.64837398373984,16.41260162601626 43.64837398373984,16.41260162601626 43.64837398373984,16.41260162601626 43.59756097560975,16.41260162601626 43.59756097560975,16.41260162601626 43.59756097560975,16.463414634146343 43.59756097560975,16.463414634146343 43.59756097560975,16.514227642276424 43.59756097560975,16.565040650406505 43.64837398373984,16.565040650406505 43.699186991869915,16.615853658536587 43.75,16.666666666666668 43.85162601626016,16.666666666666668 43.953252032520325,16.666666666666668 44.105691056910565,16.666666666666668 44.30894308943089,16.666666666666668 44.512195121951216,16.615853658536587 44.766260162601625,16.514227642276424 45.02032520325203,16.36178861788618 45.27439024390244,16.15853658536585 45.63008130081301,15.904471544715447 45.88414634146341,15.65040650406504 46.1890243902439,15.345528455284553 46.44308943089431,15.091463414634147 46.697154471544714,14.83739837398374 47.0020325203252,14.53252032520325 47.25609756097561,14.227642276422763 47.5609756097561,13.973577235772357 47.86585365853659,13.66869918699187 48.11991869918699,13.414634146341463 48.3739837398374,13.109756097560975 48.67886178861789,12.754065040650406" fill="none" stroke="black" stroke-width="0.6"></polyline><polyline points="48.67886178861789,12.754065040650406 48.93292682926829,12.5 49.136178861788615,12.195121951219512 49.390243902439025,11.890243902439025 49.542682926829265,11.636178861788618 49.74593495934959,11.382113821138212 49.949186991869915,11.077235772357723 50.10162601626016,10.823170731707316 50.203252032520325,10.518292682926829 50.355691056910565,10.213414634146341 50.40650406504065,9.959349593495935 50.50813008130081,9.705284552845528 50.55894308943089,9.451219512195122 50.55894308943089,9.247967479674797 50.55894308943089,9.044715447154472 50.55894308943089,8.841463414634147 50.55894308943089,8.638211382113822 50.55894308943089,8.434959349593496 50.55894308943089,8.282520325203253 50.50813008130081,8.130081300813007 50.45731707317073,7.977642276422764 50.40650406504065,7.82520325203252 50.355691056910565,7.723577235772358 50.30487804878049,7.6727642276422765 50.2540650406504,7.571138211382114 50.2540650406504,7.520325203252033 50.203252032520325,7.520325203252033 50.203252032520325,7.469512195121951 50.15243902439024,7.41869918699187 50.10162601626016,7.41869918699187 50.10162601626016,7.41869918699187 50.05081300813008,7.367886178861789 50,7.367886178861789 50,7.367886178861789 49.949186991869915,7.367886178861789 49.89837398373984,7.41869918699187 49.796747967479675,7.520325203252033 49.69512195121951,7.621951219512195 49.59349593495935,7.876016260162602 49.4410569105691,8.130081300813007 49.28861788617886,8.434959349593496 49.136178861788615,8.739837398373984 48.93292682926829,9.095528455284553 48.729674796747965,9.451219512195122 48.52642276422764,9.80691056910569 48.323170731707314,10.111788617886178 48.11991869918699,10.518292682926829 47.96747967479675,10.873983739837398 47.8150406504065,11.178861788617885 47.66260162601626,11.534552845528456 47.510162601626014,11.839430894308943" fill="none" stroke="black" stroke-width="0.6"></polyline><polyline points="47.510162601626014,11.839430894308943 47.40853658536585,12.144308943089431 47.30691056910569,12.5 47.25609756097561,12.652439024390244 47.20528455284553,12.804878048780488 47.15447154471545,13.109756097560975 47.103658536585364,13.414634146341463 47.103658536585364,13.71951219512195 47.103658536585364,13.973577235772357 47.103658536585364,14.227642276422763 47.103658536585364,14.430894308943088 47.103658536585364,14.684959349593496 47.15447154471545,14.888211382113822 47.25609756097561,15.091463414634147 47.357723577235774,15.294715447154472 47.40853658536585,15.447154471544716 47.5609756097561,15.59959349593496 47.71341463414634,15.752032520325203 47.86585365853659,15.904471544715447 48.01829268292683,16.006097560975608 48.170731707317074,16.10772357723577 48.323170731707314,16.209349593495933 48.47560975609756,16.260162601626014 48.67886178861789,16.3109756097561 48.78048780487805,16.3109756097561 48.88211382113821,16.3109756097561 49.08536585365854,16.3109756097561 49.33943089430894,16.3109756097561 49.49186991869919,16.3109756097561 49.69512195121951,16.3109756097561 49.89837398373984,16.260162601626014 50.10162601626016,16.209349593495933 50.2540650406504,16.15853658536585 50.40650406504065,16.05691056910569 50.55894308943089,16.006097560975608 50.71138211382114,15.904471544715447 50.86382113821138,15.802845528455284 51.016260162601625,15.701219512195122 51.168699186991866,15.548780487804878 51.32113821138211,15.447154471544716 51.47357723577235,15.294715447154472 51.6260162601626,15.091463414634147 51.72764227642276,14.939024390243903 51.829268292682926,14.786585365853659 51.93089430894309,14.634146341463413 52.03252032520325,14.48170731707317 52.083333333333336,14.278455284552845 52.1849593495935,14.1260162601626 52.235772357723576,13.973577235772357 52.33739837398374,13.821138211382113 52.38821138211382,13.617886178861788" fill="none" stroke="black" stroke-width="0.6"></polyline><polyline points="52.38821138211382,13.617886178861788 52.4390243902439,13.465447154471544 52.4390243902439,13.363821138211382 52.4390243902439,13.262195121951219 52.4390243902439,13.160569105691057 52.4390243902439,13.058943089430894 52.4390243902439,12.957317073170731 52.38821138211382,12.855691056910569 52.33739837398374,12.804878048780488 52.33739837398374,12.754065040650406 52.28658536585366,12.703252032520325 52.235772357723576,12.652439024390244 52.1849593495935,12.652439024390244 52.13414634146341,12.601626016260163 52.083333333333336,12.601626016260163 52.03252032520325,12.550813008130081 51.981707317073166,12.550813008130081 51.93089430894309,12.550813008130081 51.880081300813,12.550813008130081 51.829268292682926,12.550813008130081 51.829268292682926,12.550813008130081 51.77845528455284,12.550813008130081 51.77845528455284,12.550813008130081 51.72764227642276,12.601626016260163 51.67682926829268,12.652439024390244 51.6260162601626,12.703252032520325 51.575203252032516,12.804878048780488 51.52439024390244,12.957317073170731 51.422764227642276,13.160569105691057 51.37195121951219,13.3130081300813 51.27032520325203,13.516260162601625 51.21951219512195,13.71951219512195 51.168699186991866,13.922764227642276 51.0670731707317,14.1260162601626 51.0670731707317,14.278455284552845 51.016260162601625,14.48170731707317 50.96544715447154,14.684959349593496 50.96544715447154,14.83739837398374 50.96544715447154,14.989837398373984 50.96544715447154,15.142276422764228 50.96544715447154,15.24390243902439 50.96544715447154,15.396341463414634 51.016260162601625,15.497967479674797 51.0670731707317,15.59959349593496 51.11788617886179,15.701219512195122 51.21951219512195,15.802845528455284 51.27032520325203,15.853658536585366 51.37195121951219,15.955284552845528 51.47357723577235,16.006097560975608 51.52439024390244,16.10772357723577 51.67682926829268,16.15853658536585" fill="none" stroke="black" stroke-width="0.6"></polyline><polyline points="51.67682926829268,16.15853658536585 51.77845528455284,16.209349593495933 51.880081300813,16.260162601626014 52.03252032520325,16.3109756097561 52.1849593495935,16.36178861788618 52.28658536585366,16.41260162601626 52.4390243902439,16.463414634146343 52.642276422764226,16.463414634146343 52.84552845528455,16.463414634146343 52.9979674796748,16.463414634146343 53.2520325203252,16.463414634146343 53.40447154471545,16.463414634146343 53.65853658536585,16.463414634146343 53.86178861788618,16.41260162601626 54.11585365853659,16.3109756097561 54.31910569105691,16.209349593495933 54.573170731707314,16.10772357723577 54.827235772357724,16.006097560975608 55.03048780487805,15.904471544715447 55.28455284552845,15.752032520325203 55.53861788617886,15.59959349593496 55.74186991869919,15.447154471544716 55.99593495934959,15.24390243902439 56.14837398373984,15.091463414634147 56.35162601626016,14.888211382113822 56.55487804878049,14.634146341463413 56.70731707317073,14.48170731707317 56.80894308943089,14.278455284552845 56.91056910569105,14.1260162601626 57.012195121951216,14.024390243902438" fill="none" stroke="black" stroke-width="0.6"></polyline><polyline points="41.86991869918699,35.72154471544715 41.86991869918699,35.72154471544715 41.86991869918699,35.72154471544715 41.81910569105691,35.72154471544715 41.81910569105691,35.72154471544715 41.81910569105691,35.72154471544715 41.81910569105691,35.72154471544715 41.81910569105691,35.72154471544715 41.920731707317074,35.77235772357724 42.02235772357724,35.823170731707314 42.1239837398374,35.8739837398374 42.22560975609756,35.8739837398374 42.3780487804878,35.92479674796748 42.58130081300813,35.92479674796748 42.78455284552845,35.92479674796748 43.03861788617886,35.92479674796748 43.34349593495935,35.8739837398374 43.699186991869915,35.77235772357724 44.05487804878049,35.61991869918699 44.46138211382114,35.416666666666664 44.86788617886179,35.21341463414634 45.325203252032516,34.90853658536585 45.73170731707317,34.603658536585364 46.13821138211382,34.34959349593496 46.54471544715447,33.99390243902439 47.0020325203252,33.53658536585366 47.40853658536585,33.13008130081301 47.8150406504065,32.72357723577236 48.27235772357724,32.266260162601625 48.577235772357724,31.808943089430894 48.93292682926829,31.30081300813008 49.28861788617886,30.84349593495935 49.59349593495935,30.38617886178862 49.89837398373984,29.878048780487806 50.10162601626016,29.420731707317074 50.203252032520325,29.268292682926827 50.2540650406504,29.115853658536583 50.355691056910565,28.861788617886177 50.40650406504065,28.55691056910569 50.45731707317073,28.2520325203252 50.50813008130081,27.997967479674795 50.50813008130081,27.693089430894307 50.50813008130081,27.489837398373982 50.50813008130081,27.286585365853657 50.40650406504065,27.083333333333332 50.355691056910565,26.98170731707317 50.2540650406504,26.880081300813007 50.10162601626016,26.778455284552845 50,26.727642276422763 49.89837398373984,26.727642276422763 49.74593495934959,26.676829268292682" fill="none" stroke="black" stroke-width="0.6"></polyline><polyline points="49.74593495934959,26.676829268292682 49.59349593495935,26.676829268292682 49.49186991869919,26.676829268292682 49.33943089430894,26.676829268292682 49.1869918699187,26.727642276422763 49.03455284552845,26.778455284552845 48.88211382113821,26.880081300813007 48.78048780487805,27.083333333333332 48.577235772357724,27.286585365853657 48.42479674796748,27.540650406504064 48.27235772357724,27.84552845528455 48.170731707317074,27.997967479674795 48.11991869918699,28.20121951219512 47.916666666666664,28.55691056910569 47.764227642276424,28.96341463414634 47.61178861788618,29.31910569105691 47.510162601626014,29.67479674796748 47.40853658536585,30.03048780487805 47.25609756097561,30.38617886178862 47.15447154471545,30.79268292682927 47.052845528455286,31.148373983739837 46.951219512195124,31.402439024390244 46.90040650406504,31.70731707317073 46.84959349593496,31.961382113821138 46.84959349593496,32.266260162601625 46.84959349593496,32.52032520325203 46.84959349593496,32.77439024390244 46.84959349593496,33.079268292682926 46.84959349593496,33.333333333333336 46.84959349593496,33.58739837398374 46.84959349593496,33.790650406504064 46.90040650406504,33.99390243902439 46.951219512195124,34.09552845528455 46.951219512195124,34.197154471544714 47.052845528455286,34.40040650406504 47.15447154471545,34.603658536585364 47.20528455284553,34.75609756097561 47.357723577235774,34.90853658536585 47.459349593495936,35.0609756097561 47.5609756097561,35.21341463414634 47.71341463414634,35.36585365853659 47.86585365853659,35.46747967479675 47.96747967479675,35.51829268292683 48.11991869918699,35.61991869918699 48.27235772357724,35.670731707317074 48.3739837398374,35.670731707317074 48.577235772357724,35.72154471544715 48.729674796747965,35.72154471544715 48.88211382113821,35.72154471544715 49.08536585365854,35.72154471544715 49.28861788617886,35.670731707317074" fill="none" stroke="black" stroke-width="0.6"></polyline><polyline points="49.28861788617886,35.670731707317074 49.49186991869919,35.61991869918699 49.69512195121951,35.56910569105691 49.796747967479675,35.51829268292683 49.89837398373984,35.46747967479675 50.10162601626016,35.36585365853659 50.30487804878049,35.264227642276424 50.55894308943089,35.11178861788618 50.762195121951216,34.959349593495936 51.016260162601625,34.75609756097561 51.21951219512195,34.603658536585364 51.47357723577235,34.34959349593496 51.72764227642276,34.09552845528455 51.981707317073166,33.790650406504064 52.28658536585366,33.53658536585366 52.540650406504064,33.23170731707317 52.74390243902439,33.02845528455285 52.896341463414636,32.82520325203252 53.09959349593496,32.57113821138211 53.201219512195124,32.36788617886179 53.302845528455286,32.16463414634146 53.40447154471545,31.961382113821138 53.40447154471545,31.758130081300813 53.45528455284553,31.60569105691057 53.45528455284553,31.402439024390244 53.45528455284553,31.30081300813008 53.40447154471545,31.19918699186992 53.302845528455286,31.097560975609756 53.201219512195124,31.046747967479675 53.09959349593496,30.995934959349594 52.9979674796748,30.945121951219512 52.896341463414636,30.945121951219512 52.79471544715447,30.945121951219512 52.642276422764226,30.945121951219512 52.540650406504064,30.945121951219512 52.38821138211382,30.995934959349594 52.235772357723576,31.097560975609756 52.083333333333336,31.19918699186992 51.93089430894309,31.30081300813008 51.72764227642276,31.453252032520325 51.575203252032516,31.65650406504065 51.37195121951219,31.808943089430894 51.0670731707317,32.266260162601625 50.71138211382114,33.02845528455285 50.66056910569105,33.28252032520325 50.609756097560975,33.53658536585366 50.609756097560975,33.790650406504064 50.609756097560975,33.99390243902439 50.609756097560975,34.197154471544714 50.609756097560975,34.40040650406504 50.71138211382114,34.552845528455286" fill="none" stroke="black" stroke-width="0.6"></polyline><polyline points="50.71138211382114,34.552845528455286 50.762195121951216,34.70528455284553 50.86382113821138,34.80691056910569 51.016260162601625,34.959349593495936 51.168699186991866,35.11178861788618 51.32113821138211,35.21341463414634 51.52439024390244,35.3150406504065 51.72764227642276,35.416666666666664 51.93089430894309,35.51829268292683 52.235772357723576,35.61991869918699 52.489837398373986,35.61991869918699 52.79471544715447,35.670731707317074 53.09959349593496,35.670731707317074 53.40447154471545,35.72154471544715 53.65853658536585,35.72154471544715 54.014227642276424,35.670731707317074 54.31910569105691,35.61991869918699 54.67479674796748,35.56910569105691 55.03048780487805,35.51829268292683 55.386178861788615,35.416666666666664 55.6910569105691,35.3150406504065 56.09756097560975,35.21341463414634 56.453252032520325,35.0609756097561 56.80894308943089,34.90853658536585 57.16463414634146,34.75609756097561 57.52032520325203,34.552845528455286 57.825203252032516,34.34959349593496 58.18089430894309,34.146341463414636 58.485772357723576,33.94308943089431 58.739837398373986,33.790650406504064 58.99390243902439,33.58739837398374 59.197154471544714,33.485772357723576 59.34959349593496,33.38414634146341" fill="none" stroke="black" stroke-width="0.6"></polyline><polyline points="41.41260162601626,55.640243902439025 41.36178861788618,55.640243902439025 41.260162601626014,55.640243902439025 41.209349593495936,55.58943089430894 41.107723577235774,55.58943089430894 41.05691056910569,55.53861788617886 41.00609756097561,55.53861788617886 41.00609756097561,55.48780487804878 41.00609756097561,55.48780487804878 41.00609756097561,55.48780487804878 41.00609756097561,55.48780487804878 41.00609756097561,55.48780487804878 41.00609756097561,55.48780487804878 41.00609756097561,55.48780487804878 41.00609756097561,55.48780487804878 41.05691056910569,55.48780487804878 41.05691056910569,55.53861788617886 41.15853658536585,55.58943089430894 41.209349593495936,55.640243902439025 41.3109756097561,55.6910569105691 41.41260162601626,55.74186991869919 41.514227642276424,55.74186991869919 41.666666666666664,55.792682926829265 41.86991869918699,55.84349593495935 42.1239837398374,55.84349593495935 42.3780487804878,55.84349593495935 42.68292682926829,55.84349593495935 42.98780487804878,55.792682926829265 43.1910569105691,55.74186991869919 43.39430894308943,55.640243902439025 43.80081300813008,55.4369918699187 44.25813008130081,55.13211382113821 44.66463414634146,54.8780487804878 45.12195121951219,54.573170731707314 45.52845528455285,54.26829268292683 45.9349593495935,53.91260162601626 46.392276422764226,53.50609756097561 46.7479674796748,53.15040650406504 47.15447154471545,52.74390243902439 47.510162601626014,52.33739837398374 47.86585365853659,51.93089430894309 48.22154471544715,51.422764227642276 48.52642276422764,50.96544715447154 48.88211382113821,50.30487804878049 49.08536585365854,50 49.390243902439025,49.4410569105691 49.49186991869919,49.136178861788615 49.64430894308943,48.78048780487805 49.74593495934959,48.47560975609756 49.796747967479675,48.323170731707314 49.84756097560975,48.170731707317074" fill="none" stroke="black" stroke-width="0.6"></polyline><polyline points="49.84756097560975,48.170731707317074 49.84756097560975,47.96747967479675 49.84756097560975,47.8150406504065 49.84756097560975,47.66260162601626 49.796747967479675,47.510162601626014 49.74593495934959,47.357723577235774 49.64430894308943,47.25609756097561 49.542682926829265,47.103658536585364 49.4410569105691,47.0020325203252 49.28861788617886,46.951219512195124 49.08536585365854,46.90040650406504 48.93292682926829,46.90040650406504 48.78048780487805,46.90040650406504 48.6280487804878,46.90040650406504 48.47560975609756,46.90040650406504 48.323170731707314,47.0020325203252 48.170731707317074,47.103658536585364 48.01829268292683,47.30691056910569 47.8150406504065,47.510162601626014 47.66260162601626,47.764227642276424 47.5609756097561,48.01829268292683 47.40853658536585,48.22154471544715 47.30691056910569,48.52642276422764 47.20528455284553,48.83130081300813 47.103658536585364,49.136178861788615 47.0020325203252,49.49186991869919 46.951219512195124,49.84756097560975 46.84959349593496,50.203252032520325 46.798780487804876,50.55894308943089 46.7479674796748,50.86382113821138 46.697154471544714,51.168699186991866 46.646341463414636,51.47357723577235 46.646341463414636,51.72764227642276 46.59552845528455,52.03252032520325 46.54471544715447,52.28658536585366 46.54471544715447,52.540650406504064 46.49390243902439,52.79471544715447 46.49390243902439,53.048780487804876 46.49390243902439,53.302845528455286 46.44308943089431,53.55691056910569 46.44308943089431,53.8109756097561 46.44308943089431,54.014227642276424 46.44308943089431,54.21747967479675 46.44308943089431,54.47154471544715 46.44308943089431,54.72560975609756 46.44308943089431,54.827235772357724 46.49390243902439,54.92886178861789 46.54471544715447,55.13211382113821 46.59552845528455,55.28455284552845 46.697154471544714,55.4369918699187 46.798780487804876,55.53861788617886" fill="none" stroke="black" stroke-width="0.6"></polyline><polyline points="46.798780487804876,55.53861788617886 46.951219512195124,55.58943089430894 47.103658536585364,55.640243902439025 47.30691056910569,55.6910569105691 47.510162601626014,55.74186991869919 47.71341463414634,55.74186991869919 47.96747967479675,55.74186991869919 48.22154471544715,55.6910569105691 48.52642276422764,55.58943089430894 48.78048780487805,55.53861788617886 49.03455284552845,55.48780487804878 49.28861788617886,55.386178861788615 49.542682926829265,55.28455284552845 49.796747967479675,55.18292682926829 50.05081300813008,55.08130081300813 50.2540650406504,54.979674796747965 50.40650406504065,54.8780487804878 50.50813008130081,54.827235772357724 50.8130081300813,54.6239837398374 51.016260162601625,54.420731707317074 51.27032520325203,54.21747967479675 51.52439024390244,53.91260162601626 51.77845528455284,53.55691056910569 52.03252032520325,53.201219512195124 52.235772357723576,52.896341463414636 52.38821138211382,52.642276422764226 52.489837398373986,52.38821138211382 52.59146341463415,52.13414634146341 52.642276422764226,51.981707317073166 52.642276422764226,51.77845528455284 52.642276422764226,51.6260162601626 52.642276422764226,51.52439024390244 52.59146341463415,51.422764227642276 52.540650406504064,51.32113821138211 52.4390243902439,51.21951219512195 52.33739837398374,51.168699186991866 52.235772357723576,51.168699186991866 52.083333333333336,51.168699186991866 51.93089430894309,51.168699186991866 51.72764227642276,51.21951219512195 51.575203252032516,51.32113821138211 51.422764227642276,51.422764227642276 51.21951219512195,51.575203252032516 51.0670731707317,51.77845528455284 50.86382113821138,51.981707317073166 50.66056910569105,52.1849593495935 50.50813008130081,52.4390243902439 50.355691056910565,52.59146341463415 50.203252032520325,52.84552845528455 50.10162601626016,52.9979674796748 50.05081300813008,53.201219512195124" fill="none" stroke="black" stroke-width="0.6"></polyline><polyline points="50.05081300813008,53.201219512195124 50,53.353658536585364 50,53.45528455284553 50,53.607723577235774 50,53.760162601626014 50.05081300813008,53.86178861788618 50.10162601626016,54.014227642276424 50.203252032520325,54.166666666666664 50.355691056910565,54.26829268292683 50.45731707317073,54.420731707317074 50.609756097560975,54.573170731707314 50.762195121951216,54.67479674796748 50.86382113821138,54.72560975609756 50.91463414634146,54.77642276422764 51.11788617886179,54.8780487804878 51.27032520325203,54.979674796747965 51.422764227642276,55.03048780487805 51.6260162601626,55.08130081300813 51.829268292682926,55.13211382113821 51.981707317073166,55.18292682926829 52.1849593495935,55.233739837398375 52.38821138211382,55.28455284552845 52.59146341463415,55.28455284552845 52.74390243902439,55.28455284552845 52.84552845528455,55.28455284552845 53.048780487804876,55.28455284552845 53.2520325203252,55.233739837398375 53.50609756097561,55.18292682926829 53.709349593495936,55.13211382113821 53.96341463414634,55.08130081300813 54.166666666666664,54.979674796747965 54.36991869918699,54.92886178861789 54.6239837398374,54.827235772357724 54.827235772357724,54.67479674796748 55.08130081300813,54.573170731707314 55.33536585365854,54.36991869918699 55.58943089430894,54.21747967479675 55.792682926829265,54.0650406504065 56.046747967479675,53.86178861788618 56.30081300813008,53.709349593495936 56.5040650406504,53.50609756097561 56.70731707317073,53.353658536585364 56.91056910569105,53.15040650406504 57.11382113821138,52.9979674796748 57.266260162601625,52.79471544715447 57.418699186991866,52.642276422764226 57.57113821138211,52.540650406504064 57.672764227642276,52.38821138211382" fill="none" stroke="black" stroke-width="0.6"></polyline><polyline points="40.802845528455286,76.11788617886178 40.802845528455286,76.11788617886178 40.802845528455286,76.11788617886178 40.802845528455286,76.0670731707317 40.7520325203252,76.0670731707317 40.7520325203252,76.0670731707317 40.7520325203252,76.0670731707317 40.7520325203252,76.0670731707317 40.7520325203252,76.01626016260163 40.7520325203252,76.01626016260163 40.7520325203252,76.01626016260163 40.802845528455286,75.96544715447155 40.90447154471545,75.91463414634146 40.95528455284553,75.91463414634146 41.05691056910569,75.86382113821138 41.15853658536585,75.8130081300813 41.260162601626014,75.8130081300813 41.41260162601626,75.76219512195122 41.61585365853659,75.71138211382113 41.81910569105691,75.60975609756098 42.073170731707314,75.5589430894309 42.42886178861789,75.40650406504065 42.78455284552845,75.2540650406504 43.140243902439025,75 43.546747967479675,74.7459349593496 44.0040650406504,74.4410569105691 44.46138211382114,74.08536585365853 44.918699186991866,73.67886178861788 45.42682926829268,73.22154471544715 45.88414634146341,72.76422764227642 46.34146341463415,72.3069105691057 46.84959349593496,71.7479674796748 47.30691056910569,71.29065040650406 47.71341463414634,70.78252032520325 48.11991869918699,70.27439024390243 48.52642276422764,69.8170731707317 48.88211382113821,69.2581300813008 49.1869918699187,68.85162601626016 49.49186991869919,68.4451219512195 49.74593495934959,68.08943089430895 49.89837398373984,67.73373983739837 50.10162601626016,67.3780487804878 50.15243902439024,67.17479674796748 50.203252032520325,66.97154471544715 50.30487804878049,66.71747967479675 50.355691056910565,66.41260162601625 50.355691056910565,66.15853658536585 50.40650406504065,65.95528455284553 50.40650406504065,65.7520325203252 50.355691056910565,65.65040650406505 50.30487804878049,65.59959349593495" fill="none" stroke="black" stroke-width="0.6"></polyline><polyline points="50.30487804878049,65.59959349593495 50.2540650406504,65.4979674796748 50.15243902439024,65.44715447154472 50.15243902439024,65.44715447154472 50.10162601626016,65.44715447154472 50,65.39634146341463 49.949186991869915,65.39634146341463 49.84756097560975,65.39634146341463 49.796747967479675,65.39634146341463 49.69512195121951,65.44715447154472 49.59349593495935,65.4979674796748 49.49186991869919,65.65040650406505 49.33943089430894,65.80284552845528 49.23780487804878,66.0569105691057 49.08536585365854,66.3109756097561 48.88211382113821,66.61585365853658 48.729674796747965,66.92073170731707 48.6280487804878,67.1239837398374 48.577235772357724,67.27642276422765 48.3739837398374,67.73373983739837 48.170731707317074,68.08943089430895 47.96747967479675,68.54674796747967 47.764227642276424,69.0040650406504 47.5609756097561,69.35975609756098 47.40853658536585,69.71544715447155 47.25609756097561,70.0711382113821 47.103658536585364,70.3760162601626 46.951219512195124,70.68089430894308 46.84959349593496,70.9349593495935 46.7479674796748,71.1890243902439 46.697154471544714,71.4430894308943 46.646341463414636,71.7479674796748 46.59552845528455,72.0020325203252 46.54471544715447,72.20528455284553 46.54471544715447,72.45934959349593 46.54471544715447,72.66260162601625 46.54471544715447,72.86585365853658 46.54471544715447,73.0691056910569 46.54471544715447,73.22154471544715 46.59552845528455,73.3739837398374 46.646341463414636,73.52642276422765 46.697154471544714,73.67886178861788 46.7479674796748,73.78048780487805 46.84959349593496,73.8821138211382 46.951219512195124,73.98373983739837 47.0020325203252,74.08536585365853 47.103658536585364,74.1869918699187 47.15447154471545,74.28861788617886 47.25609756097561,74.39024390243902 47.357723577235774,74.49186991869918 47.459349593495936,74.54268292682927" fill="none" stroke="black" stroke-width="0.6"></polyline><polyline points="47.459349593495936,74.54268292682927 47.5609756097561,74.64430894308943 47.66260162601626,74.6951219512195 47.764227642276424,74.79674796747967 47.916666666666664,74.84756097560975 48.01829268292683,74.89837398373983 48.170731707317074,74.94918699186992 48.27235772357724,75 48.42479674796748,75.10162601626016 48.577235772357724,75.10162601626016 48.78048780487805,75.15243902439025 48.93292682926829,75.15243902439025 49.136178861788615,75.15243902439025 49.390243902439025,75.15243902439025 49.59349593495935,75.15243902439025 49.796747967479675,75.10162601626016 50.05081300813008,75 50.2540650406504,74.89837398373983 50.50813008130081,74.79674796747967 50.762195121951216,74.6951219512195 51.016260162601625,74.59349593495935 51.27032520325203,74.4410569105691 51.52439024390244,74.28861788617886 51.77845528455284,74.08536585365853 52.03252032520325,73.8821138211382 52.33739837398374,73.6280487804878 52.540650406504064,73.42479674796748 52.79471544715447,73.17073170731707 53.048780487804876,72.86585365853658 53.2520325203252,72.61178861788618 53.40447154471545,72.40853658536585 53.607723577235774,72.10365853658537 53.760162601626014,71.90040650406505 53.91260162601626,71.64634146341463 54.014227642276424,71.39227642276423 54.11585365853659,71.1890243902439 54.166666666666664,71.03658536585365 54.21747967479675,70.83333333333333 54.21747967479675,70.78252032520325 54.21747967479675,70.73170731707317 54.21747967479675,70.68089430894308 54.21747967479675,70.630081300813 54.166666666666664,70.630081300813 54.11585365853659,70.57926829268293 54.0650406504065,70.57926829268293 54.014227642276424,70.57926829268293 53.91260162601626,70.57926829268293 53.86178861788618,70.57926829268293 53.760162601626014,70.57926829268293 53.607723577235774,70.630081300813 53.50609756097561,70.73170731707317" fill="none" stroke="black" stroke-width="0.6"></polyline><polyline points="53.50609756097561,70.73170731707317 53.353658536585364,70.78252032520325 53.201219512195124,70.9349593495935 53.048780487804876,71.03658536585365 52.896341463414636,71.13821138211382 52.69308943089431,71.34146341463415 52.489837398373986,71.49390243902438 52.33739837398374,71.69715447154472 52.13414634146341,71.90040650406505 51.93089430894309,72.10365853658537 51.829268292682926,72.20528455284553 51.77845528455284,72.3069105691057 51.6260162601626,72.51016260162602 51.52439024390244,72.71341463414635 51.422764227642276,72.91666666666667 51.32113821138211,73.0691056910569 51.32113821138211,73.17073170731707 51.32113821138211,73.32317073170732 51.27032520325203,73.47560975609755 51.27032520325203,73.57723577235772 51.27032520325203,73.72967479674797 51.32113821138211,73.83130081300813 51.32113821138211,73.9329268292683 51.37195121951219,74.03455284552845 51.422764227642276,74.13617886178862 51.47357723577235,74.23780487804878 51.52439024390244,74.33943089430895 51.575203252032516,74.4410569105691 51.6260162601626,74.54268292682927 51.67682926829268,74.6951219512195 51.77845528455284,74.79674796747967 51.829268292682926,74.89837398373983 51.93089430894309,75 52.03252032520325,75.10162601626016 52.13414634146341,75.20325203252033 52.28658536585366,75.30487804878048 52.38821138211382,75.40650406504065 52.540650406504064,75.45731707317073 52.69308943089431,75.5589430894309 52.84552845528455,75.60975609756098 52.9979674796748,75.66056910569105 53.201219512195124,75.71138211382113 53.353658536585364,75.76219512195122 53.50609756097561,75.8130081300813 53.709349593495936,75.8130081300813 53.91260162601626,75.86382113821138 54.11585365853659,75.86382113821138 54.36991869918699,75.86382113821138 54.573170731707314,75.8130081300813 54.827235772357724,75.76219512195122 55.08130081300813,75.71138211382113" fill="none" stroke="black" stroke-width="0.6"></polyline><polyline points="55.08130081300813,75.71138211382113 55.33536585365854,75.60975609756098 55.58943089430894,75.5081300813008 55.94512195121951,75.30487804878048 56.199186991869915,75.15243902439025 56.5040650406504,75 56.80894308943089,74.79674796747967 57.11382113821138,74.59349593495935 57.418699186991866,74.39024390243902 57.72357723577235,74.13617886178862 58.02845528455284,73.8821138211382 58.28252032520325,73.6280487804878 58.536585365853654,73.32317073170732 58.739837398373986,73.0691056910569 58.94308943089431,72.8150406504065 59.146341463414636,72.61178861788618 59.34959349593496,72.40853658536585 59.451219512195124,72.2560975609756 59.603658536585364,72.10365853658537 59.70528455284553,72.0020325203252 59.80691056910569,71.84959349593495 59.90853658536585,71.69715447154472 60.010162601626014,71.59552845528455 60.0609756097561,71.4430894308943 60.11178861788618,71.39227642276423" fill="none" stroke="black" stroke-width="0.6"></polyline><polyline points="39.02439024390244,95.73170731707317 39.02439024390244,95.73170731707317 39.02439024390244,95.68089430894308 39.02439024390244,95.68089430894308 39.02439024390244,95.68089430894308 39.02439024390244,95.68089430894308 38.97357723577235,95.630081300813 38.97357723577235,95.630081300813 38.97357723577235,95.57926829268293 38.97357723577235,95.57926829268293 38.97357723577235,95.52845528455285 38.97357723577235,95.52845528455285 38.97357723577235,95.47764227642276 38.97357723577235,95.47764227642276 38.97357723577235,95.47764227642276 38.97357723577235,95.42682926829268 38.97357723577235,95.42682926829268 38.97357723577235,95.42682926829268 38.97357723577235,95.3760162601626 38.97357723577235,95.3760162601626 38.97357723577235,95.3760162601626 38.97357723577235,95.32520325203252 38.97357723577235,95.32520325203252 38.97357723577235,95.32520325203252 38.97357723577235,95.32520325203252 38.97357723577235,95.32520325203252 38.97357723577235,95.32520325203252 38.97357723577235,95.32520325203252 38.97357723577235,95.32520325203252 38.97357723577235,95.32520325203252 38.97357723577235,95.32520325203252 39.07520325203252,95.32520325203252 39.1260162601626,95.3760162601626 39.27845528455285,95.42682926829268 39.43089430894309,95.42682926829268 39.6849593495935,95.42682926829268 39.989837398373986,95.42682926829268 40.29471544715447,95.3760162601626 40.701219512195124,95.22357723577235 40.90447154471545,95.1219512195122 41.107723577235774,95.02032520325203 41.514227642276424,94.8170731707317 41.920731707317074,94.5630081300813 42.3780487804878,94.20731707317073 42.78455284552845,93.90243902439025 43.24186991869919,93.54674796747967 43.699186991869915,93.08943089430895 44.15650406504065,92.6321138211382 44.61382113821138,92.17479674796748 45.07113821138211,91.66666666666667 45.47764227642276,91.20934959349593" fill="none" stroke="black" stroke-width="0.6"></polyline><polyline points="45.47764227642276,91.20934959349593 45.9349593495935,90.70121951219512 46.392276422764226,90.04065040650406 46.84959349593496,89.43089430894308 47.25609756097561,88.8719512195122 47.66260162601626,88.3130081300813 48.01829268292683,87.85569105691057 48.27235772357724,87.5 48.47560975609756,87.1951219512195 48.67886178861789,86.78861788617886 48.88211382113821,86.3821138211382 48.983739837398375,86.07723577235772 49.03455284552845,85.82317073170732 49.03455284552845,85.619918699187 49.03455284552845,85.51829268292683 48.983739837398375,85.41666666666667 48.88211382113821,85.36585365853658 48.78048780487805,85.3150406504065 48.67886178861789,85.3150406504065 48.52642276422764,85.3150406504065 48.323170731707314,85.3150406504065 48.11991869918699,85.41666666666667 47.86585365853659,85.5691056910569 47.61178861788618,85.77235772357723 47.30691056910569,85.97560975609755 47.0020325203252,86.33130081300813 46.697154471544714,86.6869918699187 46.392276422764226,87.09349593495935 45.985772357723576,87.65243902439025 45.579268292682926,88.26219512195122 45.172764227642276,88.92276422764228 44.766260162601625,89.53252032520325 44.41056910569105,89.98983739837398 44.105691056910565,90.34552845528455 43.85162601626016,90.80284552845528 43.64837398373984,91.20934959349593 43.49593495934959,91.66666666666667 43.34349593495935,92.07317073170732 43.24186991869919,92.42886178861788 43.1910569105691,92.73373983739837 43.140243902439025,93.08943089430895 43.140243902439025,93.39430894308943 43.140243902439025,93.59756097560975 43.1910569105691,93.80081300813008 43.24186991869919,94.0040650406504 43.34349593495935,94.15650406504065 43.44512195121951,94.3089430894309 43.546747967479675,94.46138211382113 43.64837398373984,94.5630081300813 43.80081300813008,94.71544715447155 43.953252032520325,94.76626016260163" fill="none" stroke="black" stroke-width="0.6"></polyline><polyline points="43.953252032520325,94.76626016260163 44.105691056910565,94.86788617886178 44.30894308943089,94.91869918699187 44.46138211382114,94.96951219512195 44.66463414634146,95.02032520325203 44.918699186991866,95.02032520325203 45.172764227642276,95.02032520325203 45.42682926829268,95.02032520325203 45.68089430894309,94.96951219512195 45.9349593495935,94.96951219512195 46.1890243902439,94.91869918699187 46.49390243902439,94.86788617886178 46.7479674796748,94.76626016260163 47.052845528455286,94.71544715447155 47.30691056910569,94.61382113821138 47.61178861788618,94.51219512195122 47.916666666666664,94.35975609756098 48.170731707317074,94.20731707317073 48.47560975609756,94.05487804878048 48.729674796747965,93.85162601626016 49.03455284552845,93.64837398373983 49.28861788617886,93.4451219512195 49.49186991869919,93.1910569105691 49.74593495934959,92.9369918699187 49.949186991869915,92.6829268292683 50.10162601626016,92.42886178861788 50.2540650406504,92.17479674796748 50.355691056910565,91.92073170731707 50.45731707317073,91.71747967479675 50.50813008130081,91.46341463414635 50.50813008130081,91.26016260162602 50.55894308943089,91.0060975609756 50.55894308943089,90.80284552845528 50.55894308943089,90.65040650406503 50.50813008130081,90.4471544715447 50.45731707317073,90.34552845528455 50.355691056910565,90.1930894308943 50.2540650406504,90.14227642276423 50.203252032520325,90.09146341463415 50.10162601626016,90.04065040650406 50,90.04065040650406 49.84756097560975,90.04065040650406 49.69512195121951,90.04065040650406 49.542682926829265,90.09146341463415 49.390243902439025,90.1930894308943 49.23780487804878,90.29471544715447 49.03455284552845,90.4979674796748 48.83130081300813,90.7520325203252 48.6280487804878,91.0060975609756 48.3739837398374,91.3109756097561 48.27235772357724,91.46341463414635" fill="none" stroke="black" stroke-width="0.6"></polyline><polyline points="48.27235772357724,91.46341463414635 48.170731707317074,91.61585365853658 48.01829268292683,91.92073170731707 47.8150406504065,92.27642276422765 47.66260162601626,92.58130081300813 47.510162601626014,92.9369918699187 47.40853658536585,93.24186991869918 47.30691056910569,93.4959349593496 47.30691056910569,93.75 47.25609756097561,94.0040650406504 47.25609756097561,94.20731707317073 47.25609756097561,94.41056910569105 47.30691056910569,94.66463414634146 47.40853658536585,94.8170731707317 47.510162601626014,94.91869918699187 47.61178861788618,95.0711382113821 47.764227642276424,95.17276422764228 47.916666666666664,95.27439024390243 48.06910569105691,95.3760162601626 48.27235772357724,95.42682926829268 48.47560975609756,95.47764227642276 48.67886178861789,95.47764227642276 48.88211382113821,95.47764227642276 49.08536585365854,95.52845528455285 49.33943089430894,95.52845528455285 49.542682926829265,95.52845528455285 49.796747967479675,95.47764227642276 50.05081300813008,95.42682926829268 50.30487804878049,95.32520325203252 50.609756097560975,95.22357723577235 50.91463414634146,95.0711382113821 51.21951219512195,94.96951219512195 51.52439024390244,94.76626016260163 51.829268292682926,94.61382113821138 52.13414634146341,94.46138211382113 52.4390243902439,94.2581300813008 52.74390243902439,94.05487804878048 53.048780487804876,93.85162601626016 53.353658536585364,93.64837398373983 53.65853658536585,93.34349593495935 53.91260162601626,93.03861788617886 54.21747967479675,92.73373983739837 54.47154471544715,92.3780487804878 54.67479674796748,92.07317073170732 54.92886178861789,91.8191056910569 55.13211382113821,91.51422764227642 55.28455284552845,91.26016260162602 55.48780487804878,90.90447154471545 55.6910569105691,90.59959349593495" fill="none" stroke="black" stroke-width="0.6"></polyline></svg>