<svg height="100" width="100" preserveAspectRatio="xMidYMid meet"><polyline points="50.05081300813008,50.91463414634146 50,50.91463414634146 49.949186991869915,50.86382113821138 49.949186991869915,50.86382113821138 49.89837398373984,50.8130081300813 49.84756097560975,50.762195121951216 49.84756097560975,50.762195121951216 49.796747967479675,50.71138211382114 49.796747967479675,50.66056910569105 49.796747967479675,50.609756097560975 49.796747967479675,50.55894308943089 49.74593495934959,50.45731707317073 49.74593495934959,50.40650406504065 49.69512195121951,50.355691056910565 49.69512195121951,50.2540650406504 49.64430894308943,50.203252032520325 49.64430894308943,50.15243902439024 49.64430894308943,50.10162601626016 49.64430894308943,50 49.59349593495935,50 49.59349593495935,49.949186991869915 49.59349593495935,49.949186991869915 49.59349593495935,49.89837398373984 49.59349593495935,49.89837398373984 49.59349593495935,49.89837398373984 49.59349593495935,49.89837398373984 49.59349593495935,49.89837398373984 49.59349593495935,49.89837398373984 49.64430894308943,49.89837398373984 49.69512195121951,49.89837398373984 49.796747967479675,49.89837398373984 49.89837398373984,49.89837398373984 50,49.89837398373984 50.10162601626016,49.89837398373984 50.2540650406504,49.84756097560975 50.40650406504065,49.74593495934959 50.609756097560975,49.59349593495935 50.762195121951216,49.4410569105691 50.91463414634146,49.28861788617886 51.0670731707317,49.136178861788615 51.21951219512195,48.93292682926829 51.32113821138211,48.78048780487805 51.37195121951219,48.577235772357724 51.47357723577235,48.3739837398374 51.52439024390244,48.170731707317074 51.575203252032516,47.96747967479675 51.6260162601626,47.71341463414634 51.67682926829268,47.510162601626014 51.67682926829268,47.357723577235774 51.67682926829268,47.20528455284553 51.67682926829268,47.052845528455286" fill="none" stroke="black" stroke-width="0.6"></polyline><polyline points="51.67682926829268,47.052845528455286 51.67682926829268,46.951219512195124 51.6260162601626,46.798780487804876 51.575203252032516,46.646341463414636 51.52439024390244,46.49390243902439 51.422764227642276,46.34146341463415 51.32113821138211,46.1890243902439 51.21951219512195,46.03658536585366 51.0670731707317,45.833333333333336 50.91463414634146,45.73170731707317 50.762195121951216,45.579268292682926 50.55894308943089,45.47764227642276 50.40650406504065,45.3760162601626 50.203252032520325,45.325203252032516 50,45.22357723577235 49.74593495934959,45.172764227642276 49.4410569105691,45.12195121951219 49.08536585365854,45.12195121951219 48.67886178861789,45.12195121951219 48.47560975609756,45.12195121951219 48.11991869918699,45.172764227642276 47.916666666666664,45.172764227642276 47.61178861788618,45.22357723577235 47.357723577235774,45.325203252032516 47.052845528455286,45.3760162601626 46.798780487804876,45.47764227642276 46.54471544715447,45.63008130081301 46.239837398373986,45.833333333333336 45.985772357723576,46.03658536585366 45.68089430894309,46.239837398373986 45.42682926829268,46.49390243902439 45.22357723577235,46.697154471544714 45.02032520325203,46.90040650406504 44.86788617886179,47.103658536585364 44.66463414634146,47.357723577235774 44.512195121951216,47.61178861788618 44.41056910569105,47.916666666666664 44.30894308943089,48.22154471544715 44.20731707317073,48.577235772357724 44.105691056910565,48.93292682926829 44.05487804878049,49.28861788617886 43.953252032520325,49.69512195121951 43.90243902439024,50.203252032520325 43.85162601626016,50.71138211382114 43.80081300813008,51.168699186991866 43.75,51.52439024390244 43.75,51.829268292682926 43.80081300813008,52.13414634146341 43.85162601626016,52.38821138211382 43.953252032520325,52.69308943089431 44.105691056910565,53.09959349593496" fill="none" stroke="black" stroke-width="0.6"></polyline><polyline points="44.105691056910565,53.09959349593496 44.20731707317073,53.45528455284553 44.41056910569105,53.760162601626014 44.61382113821138,54.0650406504065 44.766260162601625,54.21747967479675 44.96951219512195,54.420731707317074 45.22357723577235,54.6239837398374 45.52845528455285,54.827235772357724 45.833333333333336,55.03048780487805 46.13821138211382,55.233739837398375 46.49390243902439,55.386178861788615 46.90040650406504,55.48780487804878 47.25609756097561,55.58943089430894 47.61178861788618,55.640243902439025 47.916666666666664,55.6910569105691 48.27235772357724,55.74186991869919 48.577235772357724,55.792682926829265 48.88211382113821,55.792682926829265 49.28861788617886,55.84349593495935 49.59349593495935,55.84349593495935 49.949186991869915,55.84349593495935 50.355691056910565,55.84349593495935 50.66056910569105,55.792682926829265 51.016260162601625,55.6910569105691 51.422764227642276,55.58943089430894 51.72764227642276,55.48780487804878 52.03252032520325,55.386178861788615 52.38821138211382,55.233739837398375 52.642276422764226,55.13211382113821 52.947154471544714,54.92886178861789 53.2520325203252,54.72560975609756 53.50609756097561,54.52235772357724 53.760162601626014,54.31910569105691 54.0650406504065,54.0650406504065 54.26829268292683,53.8109756097561 54.52235772357724,53.55691056910569 54.72560975609756,53.302845528455286 54.8780487804878,53.048780487804876 55.08130081300813,52.74390243902439 55.233739837398375,52.4390243902439 55.386178861788615,52.13414634146341 55.53861788617886,51.77845528455284 55.6910569105691,51.422764227642276 55.792682926829265,51.11788617886179 55.89430894308943,50.762195121951216 55.99593495934959,50.40650406504065 56.09756097560975,50.05081300813008 56.14837398373984,49.69512195121951 56.199186991869915,49.33943089430894 56.199186991869915,49.03455284552845 56.199186991869915,48.67886178861789" fill="none" stroke="black" stroke-width="0.6"></polyline><polyline points="56.199186991869915,48.67886178861789 56.199186991869915,48.323170731707314 56.199186991869915,47.96747967479675 56.14837398373984,47.66260162601626 56.09756097560975,47.30691056910569 56.046747967479675,46.951219512195124 55.94512195121951,46.54471544715447 55.89430894308943,46.08739837398374 55.792682926829265,45.73170731707317 55.640243902439025,45.42682926829268 55.48780487804878,45.172764227642276 55.33536585365854,45.02032520325203 55.233739837398375,44.86788617886179 55.08130081300813,44.66463414634146 54.92886178861789,44.46138211382114 54.72560975609756,44.25813008130081 54.573170731707314,44.05487804878049 54.36991869918699,43.90243902439024 54.166666666666664,43.699186991869915 53.96341463414634,43.546747967479675 53.760162601626014,43.39430894308943 53.55691056910569,43.24186991869919 53.302845528455286,43.140243902439025 53.09959349593496,43.03861788617886 52.79471544715447,42.9369918699187 52.540650406504064,42.83536585365854 52.235772357723576,42.733739837398375 51.93089430894309,42.68292682926829 51.67682926829268,42.63211382113821 51.422764227642276,42.58130081300813 51.168699186991866,42.53048780487805 50.91463414634146,42.53048780487805 50.66056910569105,42.479674796747965 50.30487804878049,42.42886178861789 50.05081300813008,42.42886178861789 49.796747967479675,42.42886178861789 49.542682926829265,42.3780487804878 49.28861788617886,42.3780487804878 49.03455284552845,42.3780487804878 48.729674796747965,42.3780487804878 48.47560975609756,42.3780487804878 48.22154471544715,42.3780487804878 47.96747967479675,42.3780487804878 47.66260162601626,42.42886178861789 47.40853658536585,42.479674796747965 47.103658536585364,42.53048780487805 46.84959349593496,42.63211382113821 46.54471544715447,42.68292682926829 46.239837398373986,42.733739837398375 45.985772357723576,42.78455284552845 45.73170731707317,42.83536585365854" fill="none" stroke="black" stroke-width="0.6"></polyline><polyline points="45.73170731707317,42.83536585365854 45.42682926829268,42.9369918699187 45.12195121951219,43.03861788617886 44.86788617886179,43.140243902439025 44.512195121951216,43.292682926829265 44.20731707317073,43.44512195121951 43.90243902439024,43.64837398373984 43.546747967479675,43.85162601626016 43.140243902439025,44.105691056910565 42.733739837398375,44.359756097560975 42.327235772357724,44.66463414634146 41.97154471544715,44.86788617886179 41.61585365853659,45.12195121951219 41.260162601626014,45.3760162601626 41.00609756097561,45.52845528455285 40.802845528455286,45.68089430894309 40.59959349593496,45.88414634146341 40.396341463414636,46.08739837398374 40.19308943089431,46.34146341463415 39.989837398373986,46.646341463414636 39.78658536585366,46.90040650406504 39.63414634146341,47.25609756097561 39.43089430894309,47.61178861788618 39.329268292682926,47.916666666666664 39.176829268292686,48.22154471544715 39.07520325203252,48.52642276422764 39.02439024390244,48.83130081300813 38.922764227642276,49.1869918699187 38.87195121951219,49.542682926829265 38.77032520325203,49.949186991869915 38.71951219512195,50.40650406504065 38.61788617886179,50.762195121951216 38.61788617886179,51.11788617886179 38.5670731707317,51.52439024390244 38.5670731707317,51.880081300813 38.516260162601625,52.235772357723576 38.516260162601625,52.59146341463415 38.5670731707317,52.9979674796748 38.61788617886179,53.40447154471545 38.668699186991866,53.8109756097561 38.71951219512195,54.166666666666664 38.82113821138211,54.6239837398374 38.922764227642276,55.13211382113821 39.02439024390244,55.48780487804878 39.1260162601626,55.74186991869919 39.27845528455285,56.046747967479675 39.43089430894309,56.35162601626016 39.583333333333336,56.65650406504065 39.78658536585366,57.012195121951216 39.989837398373986,57.266260162601625 40.09146341463415,57.418699186991866" fill="none" stroke="black" stroke-width="0.6"></polyline><polyline points="40.09146341463415,57.418699186991866 40.19308943089431,57.62195121951219 40.4979674796748,57.97764227642276 40.701219512195124,58.231707317073166 40.95528455284553,58.485772357723576 41.209349593495936,58.739837398373986 41.46341463414634,58.94308943089431 41.71747967479675,59.09552845528455 41.97154471544715,59.298780487804876 42.22560975609756,59.5020325203252 42.53048780487805,59.65447154471545 42.886178861788615,59.857723577235774 43.1910569105691,60.0609756097561 43.546747967479675,60.21341463414634 43.90243902439024,60.416666666666664 44.25813008130081,60.61991869918699 44.5630081300813,60.72154471544715 44.96951219512195,60.8739837398374 45.27439024390244,60.97560975609756 45.63008130081301,61.077235772357724 46.03658536585366,61.17886178861789 46.392276422764226,61.28048780487805 46.798780487804876,61.33130081300813 47.25609756097561,61.43292682926829 47.61178861788618,61.483739837398375 48.01829268292683,61.483739837398375 48.3739837398374,61.53455284552845 48.729674796747965,61.53455284552845 49.136178861788615,61.53455284552845 49.49186991869919,61.53455284552845 49.84756097560975,61.53455284552845 50,61.53455284552845 50.203252032520325,61.483739837398375 50.55894308943089,61.483739837398375 50.91463414634146,61.38211382113821 51.27032520325203,61.33130081300813 51.67682926829268,61.17886178861789 52.13414634146341,61.02642276422764 52.540650406504064,60.8739837398374 52.947154471544714,60.670731707317074 53.353658536585364,60.51829268292683 53.709349593495936,60.36585365853659 54.11585365853659,60.16260162601626 54.52235772357724,59.959349593495936 54.8780487804878,59.75609756097561 55.233739837398375,59.5020325203252 55.58943089430894,59.2479674796748 55.94512195121951,58.99390243902439 56.35162601626016,58.739837398373986 56.65650406504065,58.485772357723576 56.96138211382114,58.231707317073166" fill="none" stroke="black" stroke-width="0.6"></polyline><polyline points="56.96138211382114,58.231707317073166 57.3170731707317,57.92682926829268 57.62195121951219,57.672764227642276 57.92682926829268,57.36788617886179 58.28252032520325,57.0630081300813 58.58739837398374,56.75813008130081 58.892276422764226,56.40243902439024 59.2479674796748,55.99593495934959 59.552845528455286,55.640243902439025 59.90853658536585,55.33536585365854 60.21341463414634,54.979674796747965 60.56910569105691,54.52235772357724 60.92479674796748,54.0650406504065 61.077235772357724,53.86178861788618 61.229674796747965,53.65853658536585 61.53455284552845,53.302845528455286 61.78861788617886,52.947154471544714 61.99186991869919,52.59146341463415 62.19512195121951,52.235772357723576 62.34756097560975,51.829268292682926 62.5,51.47357723577235 62.60162601626016,51.11788617886179 62.7540650406504,50.66056910569105 62.855691056910565,50.2540650406504 62.95731707317073,49.796747967479675 63.05894308943089,49.33943089430894 63.05894308943089,48.983739837398375 63.05894308943089,48.6280487804878 63.109756097560975,48.22154471544715 63.109756097560975,47.86585365853659 63.109756097560975,47.459349593495936 63.109756097560975,47.052845528455286 63.05894308943089,46.697154471544714 63.00813008130081,46.239837398373986 62.95731707317073,45.833333333333336 62.90650406504065,45.52845528455285 62.7540650406504,45.172764227642276 62.65243902439024,44.766260162601625 62.55081300813008,44.46138211382114 62.39837398373984,44.15650406504065 62.24593495934959,43.80081300813008 62.09349593495935,43.49593495934959 62.042682926829265,43.34349593495935 61.9410569105691,43.140243902439025 61.78861788617886,42.78455284552845 61.58536585365854,42.479674796747965 61.43292682926829,42.22560975609756 61.229674796747965,41.86991869918699 61.02642276422764,41.5650406504065 60.77235772357724,41.209349593495936 60.51829268292683,40.853658536585364" fill="none" stroke="black" stroke-width="0.6"></polyline><polyline points="60.51829268292683,40.853658536585364 60.264227642276424,40.59959349593496 60.010162601626014,40.29471544715447 59.70528455284553,40.040650406504064 59.40040650406504,39.735772357723576 59.09552845528455,39.48170731707317 58.739837398373986,39.176829268292686 58.43495934959349,38.87195121951219 58.079268292682926,38.61788617886179 57.72357723577235,38.36382113821138 57.36788617886179,38.16056910569105 57.012195121951216,37.95731707317073 56.605691056910565,37.7540650406504 56.25,37.55081300813008 55.89430894308943,37.34756097560975 55.48780487804878,37.19512195121951 55.03048780487805,36.99186991869919 54.6239837398374,36.83943089430894 54.21747967479675,36.6869918699187 53.8109756097561,36.53455284552845 53.40447154471545,36.43292682926829 52.947154471544714,36.33130081300813 52.540650406504064,36.229674796747965 52.13414634146341,36.17886178861789 51.67682926829268,36.077235772357724 51.27032520325203,36.02642276422764 50.8130081300813,35.97560975609756 50.355691056910565,35.97560975609756 50,35.92479674796748 49.542682926829265,35.92479674796748 49.136178861788615,35.92479674796748 48.6280487804878,35.92479674796748 48.06910569105691,35.97560975609756 47.61178861788618,36.02642276422764 47.20528455284553,36.077235772357724 46.7479674796748,36.1280487804878 46.34146341463415,36.17886178861789 45.88414634146341,36.28048780487805 45.42682926829268,36.38211382113821 45.02032520325203,36.43292682926829 44.66463414634146,36.53455284552845 44.20731707317073,36.6869918699187 43.85162601626016,36.83943089430894 43.49593495934959,36.99186991869919 43.03861788617886,37.14430894308943 42.68292682926829,37.296747967479675 42.327235772357724,37.449186991869915 41.920731707317074,37.65243902439024 41.5650406504065,37.855691056910565 41.15853658536585,38.109756097560975 40.59959349593496,38.46544715447154" fill="none" stroke="black" stroke-width="0.6"></polyline><polyline points="40.59959349593496,38.46544715447154 40.09146341463415,38.87195121951219 39.53252032520325,39.22764227642276 39.07520325203252,39.53252032520325 38.668699186991866,39.83739837398374 38.262195121951216,40.142276422764226 37.80487804878049,40.4979674796748 37.449186991869915,40.802845528455286 37.19512195121951,41.05691056910569 36.890243902439025,41.260162601626014 36.636178861788615,41.61585365853659 36.33130081300813,42.073170731707314 35.97560975609756,42.58130081300813 35.72154471544715,42.78455284552845 35.56910569105691,43.03861788617886 35.416666666666664,43.292682926829265 35.264227642276424,43.546747967479675 35.11178861788618,43.85162601626016 35.010162601626014,44.15650406504065 34.90853658536585,44.46138211382114 34.857723577235774,44.8170731707317 34.80691056910569,45.22357723577235 34.75609756097561,45.579268292682926 34.70528455284553,45.985772357723576 34.65447154471545,46.392276422764226 34.65447154471545,46.798780487804876 34.65447154471545,47.20528455284553 34.65447154471545,47.66260162601626 34.65447154471545,48.06910569105691 34.65447154471545,48.52642276422764 34.65447154471545,49.03455284552845 34.65447154471545,49.542682926829265 34.65447154471545,50.10162601626016 34.65447154471545,50.66056910569105 34.70528455284553,51.11788617886179 34.70528455284553,51.47357723577235 34.80691056910569,51.829268292682926 34.857723577235774,52.1849593495935 34.959349593495936,52.642276422764226 35.0609756097561,53.15040650406504 35.16260162601626,53.65853658536585 35.264227642276424,54.0650406504065 35.36585365853659,54.52235772357724 35.46747967479675,54.92886178861789 35.56910569105691,55.33536585365854 35.72154471544715,55.792682926829265 35.823170731707314,56.14837398373984 35.97560975609756,56.55487804878049 36.1280487804878,56.96138211382114 36.28048780487805,57.36788617886179 36.483739837398375,57.825203252032516" fill="none" stroke="black" stroke-width="0.6"></polyline><polyline points="36.483739837398375,57.825203252032516 36.636178861788615,58.18089430894309 36.78861788617886,58.536585365853654 36.99186991869919,58.94308943089431 37.19512195121951,59.298780487804876 37.39837398373984,59.70528455284553 37.60162601626016,60.0609756097561 37.80487804878049,60.416666666666664 38.05894308943089,60.92479674796748 38.36382113821138,61.43292682926829 38.61788617886179,61.83943089430894 38.87195121951219,62.19512195121951 39.176829268292686,62.55081300813008 39.38008130081301,62.80487804878049 39.63414634146341,63.05894308943089 39.9390243902439,63.36382113821138 40.19308943089431,63.61788617886179 40.548780487804876,63.97357723577235 40.95528455284553,64.32926829268293 41.36178861788618,64.58333333333333 41.71747967479675,64.78658536585365 42.1239837398374,64.9390243902439 42.53048780487805,65.14227642276423 42.9369918699187,65.29471544715447 43.39430894308943,65.39634146341463 43.80081300813008,65.4979674796748 44.20731707317073,65.59959349593495 44.71544715447154,65.65040650406505 45.12195121951219,65.70121951219512 45.63008130081301,65.7520325203252 46.13821138211382,65.80284552845528 46.59552845528455,65.85365853658537 47.103658536585364,65.85365853658537 47.66260162601626,65.90447154471545 48.11991869918699,65.90447154471545 48.577235772357724,65.90447154471545 49.08536585365854,65.85365853658537 49.542682926829265,65.85365853658537 50,65.80284552845528 50.45731707317073,65.70121951219512 50.91463414634146,65.65040650406505 51.37195121951219,65.54878048780488 51.829268292682926,65.44715447154472 52.28658536585366,65.29471544715447 52.74390243902439,65.14227642276423 53.2520325203252,64.9390243902439 53.760162601626014,64.73577235772358 54.21747967479675,64.53252032520325 54.72560975609756,64.27845528455285 55.18292682926829,64.07520325203252 55.640243902439025,63.82113821138211" fill="none" stroke="black" stroke-width="0.6"></polyline><polyline points="55.640243902439025,63.82113821138211 56.09756097560975,63.5670731707317 56.5040650406504,63.262195121951216 56.91056910569105,63.00813008130081 57.36788617886179,62.703252032520325 57.72357723577235,62.39837398373984 58.18089430894309,62.042682926829265 58.58739837398374,61.6869918699187 58.99390243902439,61.38211382113821 59.197154471544714,61.17886178861789 59.40040650406504,60.97560975609756 59.80691056910569,60.61991869918699 60.21341463414634,60.21341463414634 60.61991869918699,59.80691056910569 61.02642276422764,59.40040650406504 61.43292682926829,59.04471544715447 61.73780487804878,58.6890243902439 62.09349593495935,58.231707317073166 62.449186991869915,57.825203252032516 62.80487804878049,57.36788617886179 63.109756097560975,56.96138211382114 63.36382113821138,56.55487804878049 63.668699186991866,56.046747967479675 63.922764227642276,55.640243902439025 64.17682926829268,55.18292682926829 64.43089430894308,54.72560975609756 64.6341463414634,54.26829268292683 64.83739837398373,53.8109756097561 65.09146341463415,53.2520325203252 65.2439024390244,52.79471544715447 65.39634146341463,52.28658536585366 65.54878048780488,51.72764227642276 65.65040650406505,51.27032520325203 65.7520325203252,50.71138211382114 65.85365853658537,50.203252032520325 65.90447154471545,49.69512195121951 65.95528455284553,49.1869918699187 66.0060975609756,48.67886178861789 66.0569105691057,48.22154471544715 66.0569105691057,47.66260162601626 66.10772357723577,47.15447154471545 66.10772357723577,46.646341463414636 66.10772357723577,46.08739837398374 66.10772357723577,45.52845528455285 66.0569105691057,45.07113821138211 65.95528455284553,44.61382113821138 65.85365853658537,44.05487804878049 65.7520325203252,43.64837398373984 65.59959349593495,43.1910569105691 65.39634146341463,42.68292682926829 65.2439024390244,42.327235772357724" fill="none" stroke="black" stroke-width="0.6"></polyline><polyline points="65.2439024390244,42.327235772357724 65.04065040650406,41.86991869918699 64.78658536585365,41.36178861788618 64.58333333333333,40.95528455284553 64.32926829268293,40.4979674796748 64.17682926829268,40.24390243902439 64.02439024390243,40.09146341463415 63.71951219512195,39.63414634146341 63.36382113821138,39.22764227642276 63.00813008130081,38.82113821138211 62.65243902439024,38.41463414634146 62.449186991869915,38.262195121951216 62.24593495934959,38.109756097560975 61.83943089430894,37.7540650406504 61.43292682926829,37.39837398373984 60.97560975609756,37.09349593495935 60.51829268292683,36.73780487804878 60.0609756097561,36.43292682926829 59.552845528455286,36.1280487804878 59.04471544715447,35.823170731707314 58.58739837398374,35.56910569105691 58.079268292682926,35.3150406504065 57.52032520325203,35.11178861788618 57.012195121951216,34.90853658536585 56.453252032520325,34.70528455284553 55.89430894308943,34.5020325203252 55.33536585365854,34.298780487804876 54.72560975609756,34.146341463414636 54.166666666666664,33.94308943089431 53.65853658536585,33.84146341463415 53.09959349593496,33.739837398373986 52.540650406504064,33.58739837398374 52.03252032520325,33.485772357723576 51.47357723577235,33.4349593495935 50.91463414634146,33.333333333333336 50.40650406504065,33.28252032520325 49.84756097560975,33.23170731707317 49.23780487804878,33.23170731707317 48.67886178861789,33.23170731707317 48.06910569105691,33.18089430894309 47.5609756097561,33.18089430894309 47.052845528455286,33.18089430894309 46.49390243902439,33.18089430894309 45.985772357723576,33.23170731707317 45.47764227642276,33.23170731707317 44.918699186991866,33.333333333333336 44.46138211382114,33.38414634146341 43.953252032520325,33.485772357723576 43.44512195121951,33.58739837398374 42.9369918699187,33.6890243902439 42.42886178861789,33.790650406504064" fill="none" stroke="black" stroke-width="0.6"></polyline><polyline points="42.42886178861789,33.790650406504064 41.86991869918699,33.94308943089431 41.41260162601626,34.04471544715447 40.90447154471545,34.197154471544714 40.34552845528455,34.40040650406504 39.88821138211382,34.552845528455286 39.38008130081301,34.70528455284553 38.87195121951219,34.959349593495936 38.36382113821138,35.16260162601626 37.80487804878049,35.46747967479675 37.24593495934959,35.77235772357724 36.78861788617886,36.02642276422764 36.28048780487805,36.28048780487805 35.77235772357724,36.53455284552845 35.3150406504065,36.83943089430894 34.857723577235774,37.14430894308943 34.34959349593496,37.449186991869915 33.94308943089431,37.80487804878049 33.485772357723576,38.16056910569105 33.02845528455285,38.516260162601625 32.6219512195122,38.82113821138211 32.266260162601625,39.176829268292686 32.0630081300813,39.38008130081301 31.910569105691057,39.583333333333336 31.60569105691057,39.88821138211382 31.30081300813008,40.24390243902439 30.995934959349594,40.701219512195124 30.640243902439025,41.260162601626014 30.335365853658537,41.71747967479675 30.132113821138212,41.97154471544715 29.979674796747968,42.22560975609756 29.776422764227643,42.63211382113821 29.573170731707318,43.08943089430894 29.420731707317074,43.546747967479675 29.268292682926827,43.953252032520325 29.115853658536583,44.41056910569105 29.01422764227642,44.86788617886179 28.912601626016258,45.3760162601626 28.810975609756095,45.833333333333336 28.760162601626014,46.290650406504064 28.65853658536585,46.798780487804876 28.60772357723577,47.357723577235774 28.55691056910569,47.86585365853659 28.55691056910569,48.42479674796748 28.506097560975608,48.983739837398375 28.506097560975608,49.49186991869919 28.455284552845526,50.10162601626016 28.455284552845526,50.66056910569105 28.455284552845526,51.21951219512195 28.455284552845526,51.77845528455284 28.506097560975608,52.33739837398374" fill="none" stroke="black" stroke-width="0.6"></polyline><polyline points="28.506097560975608,52.33739837398374 28.55691056910569,52.59146341463415 28.55691056910569,52.896341463414636 28.65853658536585,53.50609756097561 28.760162601626014,54.11585365853659 28.861788617886177,54.72560975609756 28.96341463414634,55.33536585365854 29.0650406504065,55.94512195121951 29.217479674796746,56.55487804878049 29.369918699186993,57.11382113821138 29.522357723577237,57.72357723577235 29.67479674796748,58.33333333333333 29.878048780487806,59.197154471544714 30.08130081300813,59.959349593495936 30.233739837398375,60.51829268292683 30.4369918699187,61.02642276422764 30.640243902439025,61.53455284552845 30.84349593495935,61.890243902439025 31.046747967479675,62.39837398373984 31.30081300813008,62.80487804878049 31.554878048780488,63.21138211382114 31.859756097560975,63.668699186991866 32.11382113821138,64.07520325203252 32.36788617886179,64.43089430894308 32.52032520325203,64.6341463414634 32.672764227642276,64.83739837398373 32.926829268292686,65.1930894308943 33.23170731707317,65.54878048780488 33.53658536585366,65.90447154471545 33.790650406504064,66.20934959349593 34.09552845528455,66.51422764227642 34.40040650406504,66.8191056910569 34.65447154471545,67.07317073170732 34.90853658536585,67.3780487804878 35.21341463414634,67.6829268292683 35.46747967479675,67.9369918699187 35.77235772357724,68.24186991869918 36.02642276422764,68.4959349593496 36.33130081300813,68.75 36.58536585365854,69.0040650406504 36.890243902439025,69.2581300813008 37.19512195121951,69.51219512195122 37.5,69.71544715447155 37.80487804878049,69.96951219512195 38.05894308943089,70.17276422764228 38.21138211382114,70.27439024390243 38.36382113821138,70.3760162601626 38.71951219512195,70.630081300813 39.02439024390244,70.83333333333333 39.38008130081301,71.03658536585365 39.6849593495935,71.23983739837398" fill="none" stroke="black" stroke-width="0.6"></polyline><polyline points="39.6849593495935,71.23983739837398 40.040650406504064,71.4430894308943 40.396341463414636,71.64634146341463 40.802845528455286,71.84959349593495 41.15853658536585,72.0020325203252 41.5650406504065,72.20528455284553 41.97154471544715,72.35772357723577 42.3780487804878,72.51016260162602 42.78455284552845,72.66260162601625 43.24186991869919,72.8150406504065 43.699186991869915,72.91666666666667 44.15650406504065,73.01829268292683 44.61382113821138,73.119918699187 45.12195121951219,73.22154471544715 45.579268292682926,73.32317073170732 46.13821138211382,73.42479674796748 46.646341463414636,73.47560975609755 47.15447154471545,73.52642276422765 47.764227642276424,73.57723577235772 48.27235772357724,73.57723577235772 48.88211382113821,73.57723577235772 49.4410569105691,73.57723577235772 50.05081300813008,73.57723577235772 50.609756097560975,73.57723577235772 51.21951219512195,73.47560975609755 51.829268292682926,73.42479674796748 52.4390243902439,73.32317073170732 53.09959349593496,73.17073170731707 53.760162601626014,73.01829268292683 54.420731707317074,72.86585365853658 55.13211382113821,72.66260162601625 55.74186991869919,72.51016260162602 56.453252032520325,72.2560975609756 57.11382113821138,72.0020325203252 57.77439024390244,71.7479674796748 58.485772357723576,71.49390243902438 59.146341463414636,71.1890243902439 59.857723577235774,70.8841463414634 60.61991869918699,70.47764227642276 61.28048780487805,70.17276422764228 61.9410569105691,69.8170731707317 62.24593495934959,69.66463414634146 62.60162601626016,69.46138211382113 63.21138211382114,69.15650406504065 63.82113821138211,68.80081300813008 64.43089430894308,68.4451219512195 64.9390243902439,68.08943089430895 65.44715447154472,67.6829268292683 66.0060975609756,67.27642276422765 66.46341463414635,66.869918699187 66.92073170731707,66.46341463414635" fill="none" stroke="black" stroke-width="0.6"></polyline><polyline points="66.92073170731707,66.46341463414635 67.42886178861788,66.0060975609756 67.83536585365853,65.59959349593495 68.29268292682927,65.14227642276423 68.69918699186992,64.6849593495935 69.05487804878048,64.32926829268293 69.41056910569105,63.922764227642276 69.76626016260163,63.516260162601625 70.0711382113821,63.16056910569105 70.3760162601626,62.7540650406504 70.68089430894308,62.296747967479675 71.03658536585365,61.890243902439025 71.1890243902439,61.636178861788615 71.34146341463415,61.43292682926829 71.69715447154472,60.92479674796748 71.95121951219512,60.51829268292683 72.2560975609756,60.0609756097561 72.61178861788618,59.65447154471545 72.86585365853658,59.298780487804876 73.119918699187,58.892276422764226 73.3739837398374,58.485772357723576 73.57723577235772,58.079268292682926 73.83130081300813,57.72357723577235 74.03455284552845,57.3170731707317 74.23780487804878,56.96138211382114 74.4410569105691,56.55487804878049 74.59349593495935,56.199186991869915 74.79674796747967,55.792682926829265 75,55.386178861788615 75.2540650406504,54.979674796747965 75.45731707317073,54.52235772357724 75.66056910569105,54.0650406504065 75.8130081300813,53.8109756097561 75.91463414634146,53.607723577235774 76.01626016260163,53.353658536585364 76.11788617886178,53.048780487804876 76.16869918699187,52.79471544715447 76.21951219512195,52.642276422764226 76.27032520325203,52.540650406504064 76.27032520325203,52.4390243902439 76.27032520325203,52.28658536585366 76.27032520325203,52.13414634146341 76.27032520325203,51.981707317073166 76.27032520325203,51.880081300813 76.27032520325203,51.77845528455284 76.27032520325203,51.72764227642276 76.27032520325203,51.67682926829268 76.27032520325203,51.6260162601626 76.27032520325203,51.575203252032516 76.27032520325203,51.575203252032516 76.27032520325203,51.52439024390244" fill="none" stroke="black" stroke-width="0.6"></polyline><polyline points="76.27032520325203,51.52439024390244 76.27032520325203,51.47357723577235 76.27032520325203,51.47357723577235 76.27032520325203,51.422764227642276 76.27032520325203,51.422764227642276 76.27032520325203,51.422764227642276 76.27032520325203,51.37195121951219 76.27032520325203,51.37195121951219 76.27032520325203,51.32113821138211 76.27032520325203,51.32113821138211 76.27032520325203,51.32113821138211 76.27032520325203,51.27032520325203 76.27032520325203,51.21951219512195 76.27032520325203,51.168699186991866 76.27032520325203,51.11788617886179 76.27032520325203,51.0670731707317 76.27032520325203,51.016260162601625 76.27032520325203,50.96544715447154 76.27032520325203,50.91463414634146 76.27032520325203,50.86382113821138 76.27032520325203,50.762195121951216 76.27032520325203,50.71138211382114 76.27032520325203,50.66056910569105 76.27032520325203,50.55894308943089 76.27032520325203,50.50813008130081 76.27032520325203,50.45731707317073 76.27032520325203,50.40650406504065 76.27032520325203,50.355691056910565 76.27032520325203,50.30487804878049 76.27032520325203,50.30487804878049 76.27032520325203,50.30487804878049 76.21951219512195,50.2540650406504 76.21951219512195,50.2540650406504 76.21951219512195,50.2540650406504 76.21951219512195,50.2540650406504 76.21951219512195,50.2540650406504 76.21951219512195,50.2540650406504 76.21951219512195,50.2540650406504" fill="none" stroke="black" stroke-width="0.6"></polyline></svg>