<svg height="100" width="100" preserveAspectRatio="xMidYMid meet"><polyline points="50.05081300813008,50.609756097560975 50.05081300813008,50.55894308943089 50.05081300813008,50.55894308943089 50,50.50813008130081 50,50.45731707317073 50,50.40650406504065 50,50.355691056910565 50,50.30487804878049 50,50.2540650406504 50,50.203252032520325 49.949186991869915,50.203252032520325 49.949186991869915,50.15243902439024 49.949186991869915,50.10162601626016 49.949186991869915,50.10162601626016 49.89837398373984,50.05081300813008 49.89837398373984,50.05081300813008 49.89837398373984,50.05081300813008 49.89837398373984,50.05081300813008 49.89837398373984,50.05081300813008 49.84756097560975,50 49.84756097560975,50 49.84756097560975,50 49.84756097560975,50 49.796747967479675,50 49.796747967479675,50 49.796747967479675,50 49.796747967479675,50 49.796747967479675,50 49.796747967479675,50 49.796747967479675,50 49.796747967479675,50 49.796747967479675,50 49.796747967479675,50 49.796747967479675,50 49.796747967479675,50 49.796747967479675,50 49.796747967479675,50.05081300813008 49.796747967479675,50.05081300813008 49.796747967479675,50.05081300813008 49.796747967479675,50.05081300813008 49.796747967479675,50.10162601626016 49.796747967479675,50.15243902439024 49.796747967479675,50.203252032520325 49.84756097560975,50.2540650406504 49.84756097560975,50.30487804878049 49.89837398373984,50.40650406504065 49.949186991869915,50.45731707317073 50,50.55894308943089 50.05081300813008,50.66056910569105 50.15243902439024,50.71138211382114 50.203252032520325,50.8130081300813" fill="none" stroke="black" stroke-width="0.6"></polyline><polyline points="50.203252032520325,50.8130081300813 50.30487804878049,50.91463414634146 50.355691056910565,51.016260162601625 50.45731707317073,51.0670731707317 50.50813008130081,51.11788617886179 50.609756097560975,51.21951219512195 50.66056910569105,51.27032520325203 50.762195121951216,51.32113821138211 50.86382113821138,51.32113821138211 50.96544715447154,51.37195121951219 51.0670731707317,51.37195121951219 51.168699186991866,51.37195121951219 51.27032520325203,51.422764227642276 51.422764227642276,51.422764227642276 51.47357723577235,51.422764227642276 51.575203252032516,51.422764227642276 51.67682926829268,51.422764227642276 51.829268292682926,51.422764227642276 51.981707317073166,51.422764227642276 52.083333333333336,51.422764227642276 52.235772357723576,51.37195121951219 52.33739837398374,51.37195121951219 52.489837398373986,51.32113821138211 52.642276422764226,51.27032520325203 52.74390243902439,51.21951219512195 52.896341463414636,51.168699186991866 53.048780487804876,51.11788617886179 53.201219512195124,51.016260162601625 53.302845528455286,50.96544715447154 53.45528455284553,50.86382113821138 53.607723577235774,50.762195121951216 53.709349593495936,50.609756097560975 53.8109756097561,50.50813008130081 53.96341463414634,50.355691056910565 54.0650406504065,50.15243902439024 54.21747967479675,50 54.36991869918699,49.796747967479675 54.47154471544715,49.64430894308943 54.6239837398374,49.49186991869919 54.67479674796748,49.28861788617886 54.77642276422764,49.136178861788615 54.8780487804878,48.93292682926829 54.92886178861789,48.78048780487805 54.979674796747965,48.6280487804878 55.03048780487805,48.42479674796748 55.03048780487805,48.323170731707314 55.03048780487805,48.27235772357724 55.08130081300813,48.06910569105691 55.08130081300813,47.86585365853659 55.13211382113821,47.71341463414634 55.13211382113821,47.510162601626014" fill="none" stroke="black" stroke-width="0.6"></polyline><polyline points="55.13211382113821,47.510162601626014 55.13211382113821,47.30691056910569 55.13211382113821,47.15447154471545 55.13211382113821,47.0020325203252 55.08130081300813,46.798780487804876 55.03048780487805,46.59552845528455 54.979674796747965,46.44308943089431 54.92886178861789,46.239837398373986 54.8780487804878,46.08739837398374 54.77642276422764,45.88414634146341 54.67479674796748,45.73170731707317 54.573170731707314,45.52845528455285 54.36991869918699,45.27439024390244 54.21747967479675,45.07113821138211 54.014227642276424,44.918699186991866 53.8109756097561,44.766260162601625 53.607723577235774,44.66463414634146 53.45528455284553,44.5630081300813 53.2520325203252,44.46138211382114 53.048780487804876,44.359756097560975 52.84552845528455,44.25813008130081 52.74390243902439,44.25813008130081 52.59146341463415,44.20731707317073 52.33739837398374,44.105691056910565 52.083333333333336,44.05487804878049 51.77845528455284,44.0040650406504 51.52439024390244,43.953252032520325 51.21951219512195,43.953252032520325 50.91463414634146,43.90243902439024 50.66056910569105,43.90243902439024 50.40650406504065,43.90243902439024 50.10162601626016,43.90243902439024 50,43.90243902439024 49.84756097560975,43.90243902439024 49.49186991869919,43.953252032520325 49.08536585365854,44.05487804878049 48.729674796747965,44.15650406504065 48.42479674796748,44.25813008130081 48.06910569105691,44.30894308943089 47.86585365853659,44.359756097560975 47.66260162601626,44.41056910569105 47.459349593495936,44.46138211382114 47.30691056910569,44.512195121951216 47.15447154471545,44.5630081300813 46.951219512195124,44.61382113821138 46.798780487804876,44.71544715447154 46.646341463414636,44.766260162601625 46.49390243902439,44.86788617886179 46.392276422764226,44.96951219512195 46.239837398373986,45.02032520325203 46.13821138211382,45.12195121951219" fill="none" stroke="black" stroke-width="0.6"></polyline><polyline points="46.13821138211382,45.12195121951219 46.03658536585366,45.22357723577235 45.9349593495935,45.27439024390244 45.833333333333336,45.3760162601626 45.78252032520325,45.47764227642276 45.68089430894309,45.579268292682926 45.579268292682926,45.73170731707317 45.52845528455285,45.833333333333336 45.42682926829268,45.985772357723576 45.325203252032516,46.13821138211382 45.22357723577235,46.290650406504064 45.172764227642276,46.44308943089431 45.07113821138211,46.59552845528455 44.96951219512195,46.697154471544714 44.918699186991866,46.84959349593496 44.8170731707317,47.0020325203252 44.766260162601625,47.103658536585364 44.66463414634146,47.20528455284553 44.61382113821138,47.357723577235774 44.512195121951216,47.459349593495936 44.46138211382114,47.61178861788618 44.359756097560975,47.764227642276424 44.25813008130081,47.916666666666664 44.15650406504065,48.11991869918699 44.05487804878049,48.3739837398374 43.90243902439024,48.67886178861789 43.75,49.03455284552845 43.546747967479675,49.390243902439025 43.44512195121951,49.59349593495935 43.34349593495935,49.74593495934959 43.292682926829265,49.84756097560975 43.24186991869919,49.949186991869915 43.1910569105691,50.10162601626016 43.140243902439025,50.2540650406504 43.140243902439025,50.40650406504065 43.08943089430894,50.609756097560975 43.03861788617886,50.762195121951216 43.03861788617886,50.96544715447154 42.98780487804878,51.168699186991866 42.98780487804878,51.32113821138211 42.98780487804878,51.52439024390244 42.98780487804878,51.67682926829268 42.98780487804878,51.829268292682926 42.98780487804878,52.03252032520325 42.98780487804878,52.1849593495935 42.98780487804878,52.38821138211382 43.03861788617886,52.540650406504064 43.08943089430894,52.74390243902439 43.08943089430894,52.9979674796748 43.140243902439025,53.2520325203252 43.140243902439025,53.55691056910569" fill="none" stroke="black" stroke-width="0.6"></polyline><polyline points="43.140243902439025,53.55691056910569 43.1910569105691,53.8109756097561 43.24186991869919,54.0650406504065 43.24186991869919,54.31910569105691 43.292682926829265,54.52235772357724 43.34349593495935,54.77642276422764 43.44512195121951,55.03048780487805 43.49593495934959,55.233739837398375 43.59756097560975,55.4369918699187 43.699186991869915,55.58943089430894 43.75,55.74186991869919 43.90243902439024,55.89430894308943 44.0040650406504,56.046747967479675 44.05487804878049,56.09756097560975 44.15650406504065,56.199186991869915 44.30894308943089,56.30081300813008 44.46138211382114,56.453252032520325 44.61382113821138,56.55487804878049 44.766260162601625,56.70731707317073 44.96951219512195,56.859756097560975 45.172764227642276,57.012195121951216 45.3760162601626,57.16463414634146 45.579268292682926,57.266260162601625 45.73170731707317,57.418699186991866 45.9349593495935,57.57113821138211 46.1890243902439,57.672764227642276 46.392276422764226,57.825203252032516 46.59552845528455,57.92682926829268 46.798780487804876,58.02845528455284 46.90040650406504,58.079268292682926 47.25609756097561,58.18089430894309 47.459349593495936,58.28252032520325 47.66260162601626,58.38414634146341 47.86585365853659,58.43495934959349 48.06910569105691,58.536585365853654 48.27235772357724,58.58739837398374 48.47560975609756,58.63821138211382 48.67886178861789,58.739837398373986 48.93292682926829,58.790650406504064 49.136178861788615,58.84146341463415 49.390243902439025,58.892276422764226 49.59349593495935,58.94308943089431 49.84756097560975,58.99390243902439 50.05081300813008,59.04471544715447 50.30487804878049,59.04471544715447 50.50813008130081,59.09552845528455 50.762195121951216,59.09552845528455 51.016260162601625,59.09552845528455 51.32113821138211,59.09552845528455 51.575203252032516,59.09552845528455 51.880081300813,59.09552845528455" fill="none" stroke="black" stroke-width="0.6"></polyline><polyline points="51.880081300813,59.09552845528455 52.235772357723576,59.09552845528455 52.489837398373986,59.04471544715447 52.79471544715447,58.99390243902439 53.09959349593496,58.94308943089431 53.353658536585364,58.892276422764226 53.607723577235774,58.84146341463415 53.96341463414634,58.790650406504064 54.21747967479675,58.6890243902439 54.52235772357724,58.58739837398374 54.8780487804878,58.485772357723576 55.13211382113821,58.38414634146341 55.4369918699187,58.28252032520325 55.74186991869919,58.18089430894309 56.046747967479675,58.079268292682926 56.30081300813008,57.97764227642276 56.55487804878049,57.8760162601626 56.80894308943089,57.72357723577235 57.0630081300813,57.62195121951219 57.3170731707317,57.46951219512195 57.52032520325203,57.3170731707317 57.77439024390244,57.16463414634146 58.02845528455284,56.96138211382114 58.231707317073166,56.80894308943089 58.43495934959349,56.605691056910565 58.63821138211382,56.40243902439024 58.84146341463415,56.25 59.04471544715447,56.046747967479675 59.2479674796748,55.792682926829265 59.40040650406504,55.58943089430894 59.552845528455286,55.386178861788615 59.75609756097561,55.08130081300813 59.90853658536585,54.77642276422764 60.11178861788618,54.420731707317074 60.3150406504065,54.0650406504065 60.46747967479675,53.8109756097561 60.61991869918699,53.55691056910569 60.77235772357724,53.15040650406504 60.92479674796748,52.79471544715447 61.077235772357724,52.4390243902439 61.17886178861789,52.13414634146341 61.28048780487805,51.77845528455284 61.38211382113821,51.47357723577235 61.483739837398375,51.168699186991866 61.53455284552845,50.86382113821138 61.58536585365854,50.55894308943089 61.636178861788615,50.2540650406504 61.636178861788615,49.949186991869915 61.6869918699187,49.64430894308943 61.6869918699187,49.33943089430894 61.6869918699187,49.03455284552845" fill="none" stroke="black" stroke-width="0.6"></polyline><polyline points="61.6869918699187,49.03455284552845 61.6869918699187,48.729674796747965 61.6869918699187,48.3739837398374 61.636178861788615,48.06910569105691 61.636178861788615,47.764227642276424 61.53455284552845,47.40853658536585 61.483739837398375,47.103658536585364 61.43292682926829,46.798780487804876 61.33130081300813,46.49390243902439 61.229674796747965,46.13821138211382 61.1280487804878,45.833333333333336 61.02642276422764,45.52845528455285 60.92479674796748,45.27439024390244 60.823170731707314,45.02032520325203 60.72154471544715,44.8170731707317 60.56910569105691,44.61382113821138 60.46747967479675,44.41056910569105 60.36585365853659,44.25813008130081 60.21341463414634,44.05487804878049 60.16260162601626,43.90243902439024 59.959349593495936,43.59756097560975 59.80691056910569,43.39430894308943 59.65447154471545,43.140243902439025 59.5020325203252,42.9369918699187 59.34959349593496,42.78455284552845 59.197154471544714,42.53048780487805 59.04471544715447,42.327235772357724 58.892276422764226,42.17479674796748 58.739837398373986,41.920731707317074 58.58739837398374,41.76829268292683 58.43495934959349,41.61585365853659 58.28252032520325,41.41260162601626 58.130081300813,41.260162601626014 57.97764227642276,41.05691056910569 57.77439024390244,40.90447154471545 57.62195121951219,40.7520325203252 57.418699186991866,40.59959349593496 57.21544715447154,40.447154471544714 57.012195121951216,40.24390243902439 56.80894308943089,40.09146341463415 56.55487804878049,39.9390243902439 56.35162601626016,39.78658536585366 56.09756097560975,39.6849593495935 55.84349593495935,39.53252032520325 55.74186991869919,39.48170731707317 55.640243902439025,39.43089430894309 55.386178861788615,39.27845528455285 55.13211382113821,39.176829268292686 54.8780487804878,39.07520325203252 54.6239837398374,38.97357723577235 54.31910569105691,38.87195121951219" fill="none" stroke="black" stroke-width="0.6"></polyline><polyline points="54.31910569105691,38.87195121951219 54.0650406504065,38.77032520325203 53.8109756097561,38.71951219512195 53.50609756097561,38.61788617886179 53.201219512195124,38.516260162601625 52.896341463414636,38.46544715447154 52.540650406504064,38.36382113821138 52.235772357723576,38.3130081300813 51.93089430894309,38.21138211382114 51.575203252032516,38.16056910569105 51.21951219512195,38.109756097560975 50.86382113821138,38.05894308943089 50.50813008130081,38.00813008130081 50.15243902439024,38.00813008130081 49.74593495934959,38.00813008130081 49.542682926829265,37.95731707317073 49.33943089430894,37.95731707317073 48.983739837398375,37.95731707317073 48.67886178861789,37.95731707317073 48.47560975609756,37.95731707317073 48.27235772357724,37.95731707317073 47.96747967479675,37.95731707317073 47.8150406504065,37.95731707317073 47.61178861788618,37.95731707317073 47.25609756097561,38.00813008130081 46.951219512195124,38.05894308943089 46.59552845528455,38.109756097560975 46.239837398373986,38.16056910569105 45.9349593495935,38.21138211382114 45.579268292682926,38.3130081300813 45.22357723577235,38.41463414634146 44.918699186991866,38.516260162601625 44.66463414634146,38.5670731707317 44.359756097560975,38.668699186991866 44.05487804878049,38.82113821138211 43.80081300813008,38.97357723577235 43.49593495934959,39.07520325203252 43.24186991869919,39.22764227642276 43.140243902439025,39.329268292682926 42.98780487804878,39.43089430894309 42.68292682926829,39.63414634146341 42.42886178861789,39.83739837398374 42.17479674796748,40.09146341463415 41.920731707317074,40.24390243902439 41.666666666666664,40.4979674796748 41.36178861788618,40.802845528455286 41.107723577235774,41.00609756097561 40.90447154471545,41.209349593495936 40.701219512195124,41.46341463414634 40.4979674796748,41.666666666666664 40.29471544715447,41.97154471544715" fill="none" stroke="black" stroke-width="0.6"></polyline><polyline points="40.29471544715447,41.97154471544715 39.9390243902439,42.479674796747965 39.63414634146341,42.9369918699187 39.43089430894309,43.140243902439025 39.329268292682926,43.34349593495935 39.22764227642276,43.44512195121951 39.1260162601626,43.64837398373984 39.02439024390244,43.85162601626016 38.922764227642276,44.105691056910565 38.82113821138211,44.359756097560975 38.71951219512195,44.61382113821138 38.668699186991866,44.86788617886179 38.61788617886179,45.12195121951219 38.5670731707317,45.325203252032516 38.5670731707317,45.579268292682926 38.516260162601625,45.78252032520325 38.516260162601625,46.08739837398374 38.46544715447154,46.34146341463415 38.46544715447154,46.59552845528455 38.46544715447154,46.90040650406504 38.41463414634146,47.20528455284553 38.41463414634146,47.510162601626014 38.41463414634146,47.8150406504065 38.41463414634146,48.11991869918699 38.41463414634146,48.52642276422764 38.36382113821138,48.93292682926829 38.36382113821138,49.28861788617886 38.36382113821138,49.542682926829265 38.36382113821138,49.84756097560975 38.36382113821138,50.15243902439024 38.36382113821138,50.45731707317073 38.36382113821138,50.762195121951216 38.36382113821138,51.016260162601625 38.36382113821138,51.27032520325203 38.41463414634146,51.422764227642276 38.41463414634146,51.52439024390244 38.46544715447154,51.829268292682926 38.516260162601625,52.083333333333336 38.516260162601625,52.4390243902439 38.5670731707317,52.79471544715447 38.5670731707317,52.9979674796748 38.61788617886179,53.201219512195124 38.61788617886179,53.55691056910569 38.668699186991866,53.8109756097561 38.71951219512195,54.014227642276424 38.77032520325203,54.21747967479675 38.77032520325203,54.47154471544715 38.82113821138211,54.67479674796748 38.87195121951219,54.92886178861789 38.97357723577235,55.18292682926829 39.02439024390244,55.4369918699187" fill="none" stroke="black" stroke-width="0.6"></polyline><polyline points="39.02439024390244,55.4369918699187 39.07520325203252,55.6910569105691 39.176829268292686,55.89430894308943 39.27845528455285,56.14837398373984 39.38008130081301,56.40243902439024 39.43089430894309,56.605691056910565 39.53252032520325,56.80894308943089 39.63414634146341,57.0630081300813 39.735772357723576,57.266260162601625 39.83739837398374,57.46951219512195 39.9390243902439,57.672764227642276 40.040650406504064,57.92682926829268 40.19308943089431,58.18089430894309 40.29471544715447,58.43495934959349 40.447154471544714,58.63821138211382 40.548780487804876,58.84146341463415 40.701219512195124,59.04471544715447 40.802845528455286,59.298780487804876 41.00609756097561,59.65447154471545 41.15853658536585,59.959349593495936 41.36178861788618,60.21341463414634 41.5650406504065,60.46747967479675 41.71747967479675,60.61991869918699 41.920731707317074,60.823170731707314 42.1239837398374,61.02642276422764 42.327235772357724,61.1280487804878 42.53048780487805,61.28048780487805 42.733739837398375,61.43292682926829 42.886178861788615,61.53455284552845 43.08943089430894,61.6869918699187 43.34349593495935,61.83943089430894 43.546747967479675,61.99186991869919 43.80081300813008,62.09349593495935 44.05487804878049,62.296747967479675 44.30894308943089,62.39837398373984 44.5630081300813,62.55081300813008 44.86788617886179,62.65243902439024 45.07113821138211,62.7540650406504 45.325203252032516,62.855691056910565 45.63008130081301,63.00813008130081 45.88414634146341,63.109756097560975 46.1890243902439,63.21138211382114 46.49390243902439,63.3130081300813 46.798780487804876,63.41463414634146 47.103658536585364,63.516260162601625 47.459349593495936,63.61788617886179 47.71341463414634,63.668699186991866 48.01829268292683,63.71951219512195 48.323170731707314,63.77032520325203 48.6280487804878,63.82113821138211 48.93292682926829,63.87195121951219" fill="none" stroke="black" stroke-width="0.6"></polyline><polyline points="48.93292682926829,63.87195121951219 49.23780487804878,63.922764227642276 49.49186991869919,63.922764227642276 49.796747967479675,63.97357723577235 50.10162601626016,63.97357723577235 50.40650406504065,63.97357723577235 50.50813008130081,63.97357723577235 50.66056910569105,63.97357723577235 51.016260162601625,63.97357723577235 51.27032520325203,63.97357723577235 51.6260162601626,63.97357723577235 51.93089430894309,63.97357723577235 52.235772357723576,63.922764227642276 52.59146341463415,63.922764227642276 52.947154471544714,63.87195121951219 53.302845528455286,63.77032520325203 53.65853658536585,63.71951219512195 54.014227642276424,63.61788617886179 54.36991869918699,63.5670731707317 54.72560975609756,63.46544715447154 55.13211382113821,63.3130081300813 55.48780487804878,63.21138211382114 55.84349593495935,63.109756097560975 56.199186991869915,62.95731707317073 56.5040650406504,62.855691056910565 56.80894308943089,62.7540650406504 57.16463414634146,62.60162601626016 57.46951219512195,62.449186991869915 57.77439024390244,62.296747967479675 58.130081300813,62.14430894308943 58.43495934959349,61.9410569105691 58.790650406504064,61.78861788617886 59.09552845528455,61.58536585365854 59.40040650406504,61.38211382113821 59.75609756097561,61.17886178861789 60.0609756097561,60.97560975609756 60.36585365853659,60.77235772357724 60.670731707317074,60.51829268292683 60.97560975609756,60.3150406504065 61.28048780487805,60.0609756097561 61.58536585365854,59.80691056910569 61.83943089430894,59.552845528455286 62.14430894308943,59.298780487804876 62.449186991869915,59.04471544715447 62.703252032520325,58.790650406504064 62.95731707317073,58.485772357723576 63.262195121951216,58.231707317073166 63.46544715447154,57.97764227642276 63.668699186991866,57.72357723577235 63.922764227642276,57.418699186991866 64.17682926829268,57.11382113821138" fill="none" stroke="black" stroke-width="0.6"></polyline><polyline points="64.17682926829268,57.11382113821138 64.43089430894308,56.75813008130081 64.6849593495935,56.40243902439024 64.88821138211382,56.09756097560975 65.09146341463415,55.792682926829265 65.29471544715447,55.4369918699187 65.4979674796748,55.08130081300813 65.70121951219512,54.67479674796748 65.85365853658537,54.26829268292683 66.0060975609756,53.96341463414634 66.10772357723577,53.607723577235774 66.20934959349593,53.201219512195124 66.26016260162602,52.9979674796748 66.3109756097561,52.79471544715447 66.41260162601625,52.38821138211382 66.51422764227642,51.981707317073166 66.5650406504065,51.6260162601626 66.61585365853658,51.21951219512195 66.66666666666667,50.8130081300813 66.66666666666667,50.40650406504065 66.71747967479675,50 66.71747967479675,49.542682926829265 66.71747967479675,49.1869918699187 66.71747967479675,48.78048780487805 66.71747967479675,48.3739837398374 66.66666666666667,47.96747967479675 66.61585365853658,47.61178861788618 66.51422764227642,47.20528455284553 66.41260162601625,46.84959349593496 66.3109756097561,46.44308943089431 66.20934959349593,46.08739837398374 66.0569105691057,45.68089430894309 65.95528455284553,45.325203252032516 65.80284552845528,44.918699186991866 65.65040650406505,44.5630081300813 65.44715447154472,44.20731707317073 65.29471544715447,43.80081300813008 65.09146341463415,43.49593495934959 64.88821138211382,43.140243902439025 64.6849593495935,42.83536585365854 64.48170731707317,42.53048780487805 64.27845528455285,42.17479674796748 64.02439024390243,41.86991869918699 63.77032520325203,41.514227642276424 63.5670731707317,41.209349593495936 63.3130081300813,40.90447154471545 63.05894308943089,40.65040650406504 62.80487804878049,40.34552845528455 62.55081300813008,40.040650406504064 62.24593495934959,39.78658536585366 61.99186991869919,39.48170731707317" fill="none" stroke="black" stroke-width="0.6"></polyline><polyline points="61.99186991869919,39.48170731707317 61.636178861788615,39.176829268292686 61.33130081300813,38.922764227642276 61.02642276422764,38.668699186991866 60.77235772357724,38.46544715447154 60.46747967479675,38.262195121951216 60.16260162601626,38.00813008130081 59.857723577235774,37.7540650406504 59.5020325203252,37.55081300813008 59.146341463414636,37.296747967479675 58.84146341463415,37.09349593495935 58.485772357723576,36.890243902439025 58.130081300813,36.6869918699187 57.825203252032516,36.53455284552845 57.46951219512195,36.33130081300813 57.0630081300813,36.17886178861789 56.70731707317073,36.02642276422764 56.35162601626016,35.8739837398374 56.199186991869915,35.77235772357724 55.640243902439025,35.56910569105691 55.28455284552845,35.46747967479675 54.8780487804878,35.3150406504065 54.52235772357724,35.21341463414634 54.166666666666664,35.11178861788618 53.8109756097561,35.010162601626014 53.50609756097561,34.90853658536585 53.15040650406504,34.857723577235774 52.79471544715447,34.75609756097561 52.4390243902439,34.70528455284553 52.13414634146341,34.65447154471545 51.72764227642276,34.603658536585364 51.37195121951219,34.552845528455286 51.016260162601625,34.5020325203252 50.609756097560975,34.451219512195124 50.30487804878049,34.451219512195124 50,34.451219512195124 49.64430894308943,34.40040650406504 49.28861788617886,34.40040650406504 48.88211382113821,34.40040650406504 48.42479674796748,34.40040650406504 48.01829268292683,34.451219512195124 47.66260162601626,34.451219512195124 47.30691056910569,34.451219512195124 46.951219512195124,34.5020325203252 46.59552845528455,34.552845528455286 46.13821138211382,34.603658536585364 45.78252032520325,34.65447154471545 45.42682926829268,34.65447154471545 45.07113821138211,34.70528455284553 44.766260162601625,34.80691056910569 44.41056910569105,34.857723577235774" fill="none" stroke="black" stroke-width="0.6"></polyline><polyline points="44.41056910569105,34.857723577235774 44.0040650406504,34.959349593495936 43.64837398373984,35.010162601626014 43.292682926829265,35.11178861788618 42.886178861788615,35.21341463414634 42.58130081300813,35.3150406504065 42.22560975609756,35.416666666666664 41.81910569105691,35.56910569105691 41.514227642276424,35.670731707317074 41.15853658536585,35.77235772357724 40.701219512195124,35.97560975609756 40.19308943089431,36.28048780487805 39.583333333333336,36.58536585365854 39.07520325203252,36.83943089430894 38.61788617886179,37.042682926829265 38.21138211382114,37.296747967479675 37.7540650406504,37.55081300813008 37.34756097560975,37.80487804878049 36.99186991869919,38.00813008130081 36.6869918699187,38.16056910569105 36.43292682926829,38.36382113821138 36.1280487804878,38.516260162601625 35.8739837398374,38.71951219512195 35.61991869918699,38.97357723577235 35.264227642276424,39.27845528455285 35.010162601626014,39.53252032520325 34.75609756097561,39.83739837398374 34.5020325203252,40.142276422764226 34.298780487804876,40.4979674796748 34.04471544715447,40.802845528455286 33.892276422764226,41.00609756097561 33.790650406504064,41.15853658536585 33.6890243902439,41.41260162601626 33.58739837398374,41.666666666666664 33.485772357723576,41.97154471544715 33.4349593495935,42.27642276422764 33.333333333333336,42.58130081300813 33.28252032520325,42.886178861788615 33.23170731707317,43.140243902439025 33.13008130081301,43.49593495934959 33.13008130081301,43.80081300813008 33.079268292682926,44.15650406504065 33.02845528455285,44.5630081300813 33.02845528455285,44.918699186991866 32.97764227642276,45.325203252032516 32.97764227642276,45.73170731707317 32.97764227642276,46.13821138211382 32.97764227642276,46.49390243902439 32.97764227642276,46.951219512195124 32.97764227642276,47.357723577235774 32.97764227642276,47.764227642276424" fill="none" stroke="black" stroke-width="0.6"></polyline><polyline points="32.97764227642276,47.764227642276424 32.97764227642276,48.22154471544715 32.97764227642276,48.577235772357724 32.97764227642276,48.983739837398375 33.02845528455285,49.4410569105691 33.02845528455285,49.84756097560975 33.079268292682926,50.2540650406504 33.13008130081301,50.71138211382114 33.18089430894309,51.168699186991866 33.23170731707317,51.575203252032516 33.28252032520325,52.083333333333336 33.333333333333336,52.489837398373986 33.38414634146341,52.896341463414636 33.485772357723576,53.353658536585364 33.53658536585366,53.760162601626014 33.63821138211382,54.166666666666664 33.6890243902439,54.6239837398374 33.790650406504064,55.03048780487805 33.892276422764226,55.386178861788615 33.99390243902439,55.792682926829265 34.09552845528455,56.14837398373984 34.197154471544714,56.55487804878049 34.298780487804876,57.012195121951216 34.40040650406504,57.52032520325203 34.5020325203252,57.97764227642276 34.65447154471545,58.43495934959349 34.75609756097561,58.84146341463415 34.857723577235774,59.2479674796748 35.010162601626014,59.75609756097561 35.11178861788618,60.16260162601626 35.264227642276424,60.46747967479675 35.36585365853659,60.77235772357724 35.51829268292683,61.02642276422764 35.670731707317074,61.33130081300813 35.823170731707314,61.6869918699187 35.97560975609756,61.99186991869919 36.1280487804878,62.34756097560975 36.28048780487805,62.65243902439024 36.38211382113821,62.80487804878049 36.43292682926829,62.95731707317073 36.636178861788615,63.262195121951216 36.78861788617886,63.516260162601625 36.99186991869919,63.77032520325203 37.19512195121951,64.07520325203252 37.34756097560975,64.32926829268293 37.55081300813008,64.58333333333333 37.7540650406504,64.83739837398373 37.90650406504065,65.04065040650406 38.109756097560975,65.29471544715447 38.3130081300813,65.4979674796748 38.516260162601625,65.70121951219512" fill="none" stroke="black" stroke-width="0.6"></polyline><polyline points="38.516260162601625,65.70121951219512 38.71951219512195,65.95528455284553 38.922764227642276,66.20934959349593 39.1260162601626,66.41260162601625 39.329268292682926,66.61585365853658 39.583333333333336,66.869918699187 39.78658536585366,67.07317073170732 39.989837398373986,67.22560975609755 40.24390243902439,67.42886178861788 40.4979674796748,67.58130081300813 40.701219512195124,67.73373983739837 41.00609756097561,67.9369918699187 41.260162601626014,68.08943089430895 41.514227642276424,68.29268292682927 41.76829268292683,68.4451219512195 42.02235772357724,68.59756097560975 42.327235772357724,68.75 42.63211382113821,68.90243902439025 42.886178861788615,69.0040650406504 43.1910569105691,69.10569105691057 43.546747967479675,69.2581300813008 43.85162601626016,69.41056910569105 44.20731707317073,69.51219512195122 44.5630081300813,69.66463414634146 44.918699186991866,69.76626016260163 45.27439024390244,69.86788617886178 45.68089430894309,69.96951219512195 46.03658536585366,70.02032520325203 46.44308943089431,70.0711382113821 46.646341463414636,70.1219512195122 46.84959349593496,70.1219512195122 47.25609756097561,70.1219512195122 47.66260162601626,70.1219512195122 48.11991869918699,70.1219512195122 48.52642276422764,70.1219512195122 48.78048780487805,70.1219512195122 48.983739837398375,70.1219512195122 49.4410569105691,70.02032520325203 49.89837398373984,69.96951219512195 50.355691056910565,69.86788617886178 50.8130081300813,69.71544715447155 51.27032520325203,69.5630081300813 51.72764227642276,69.41056910569105 52.235772357723576,69.20731707317073 52.79471544715447,69.0040650406504 53.353658536585364,68.75 53.96341463414634,68.4959349593496 54.52235772357724,68.29268292682927 54.979674796747965,68.14024390243902 55.48780487804878,67.9369918699187 55.94512195121951,67.73373983739837" fill="none" stroke="black" stroke-width="0.6"></polyline><polyline points="55.94512195121951,67.73373983739837 56.453252032520325,67.53048780487805 56.91056910569105,67.27642276422765 57.3170731707317,67.07317073170732 57.77439024390244,66.869918699187 58.231707317073166,66.61585365853658 58.739837398373986,66.3109756097561 59.2479674796748,66.0060975609756 59.70528455284553,65.70121951219512 60.11178861788618,65.4979674796748 60.51829268292683,65.29471544715447 60.8739837398374,65.04065040650406 61.28048780487805,64.78658536585365 61.6869918699187,64.48170731707317 62.042682926829265,64.22764227642276 62.39837398373984,63.922764227642276 62.7540650406504,63.5670731707317 63.109756097560975,63.3130081300813 63.41463414634146,63.00813008130081 63.77032520325203,62.703252032520325 64.07520325203252,62.449186991869915 64.380081300813,62.09349593495935 64.73577235772358,61.78861788617886 64.98983739837398,61.43292682926829 65.2439024390244,61.1280487804878 65.54878048780488,60.77235772357724 65.80284552845528,60.416666666666664 66.0569105691057,60.11178861788618 66.3109756097561,59.70528455284553 66.5650406504065,59.34959349593496 66.76829268292683,58.99390243902439 66.97154471544715,58.63821138211382 67.17479674796748,58.231707317073166 67.3780487804878,57.825203252032516 67.58130081300813,57.418699186991866 67.73373983739837,57.0630081300813 67.83536585365853,56.65650406504065 67.98780487804878,56.199186991869915 68.14024390243902,55.84349593495935 68.29268292682927,55.386178861788615 68.39430894308943,54.92886178861789 68.4959349593496,54.573170731707314 68.59756097560975,54.11585365853659 68.69918699186992,53.65853658536585 68.80081300813008,53.2520325203252 68.85162601626016,52.84552845528455 68.95325203252033,52.38821138211382 69.0040650406504,51.93089430894309 69.05487804878048,51.52439024390244 69.10569105691057,51.11788617886179 69.15650406504065,50.71138211382114" fill="none" stroke="black" stroke-width="0.6"></polyline><polyline points="69.15650406504065,50.71138211382114 69.15650406504065,50.50813008130081 69.15650406504065,50.30487804878049 69.15650406504065,49.89837398373984 69.20731707317073,49.542682926829265 69.20731707317073,49.136178861788615 69.20731707317073,48.729674796747965 69.20731707317073,48.3739837398374 69.20731707317073,48.01829268292683 69.20731707317073,47.5609756097561 69.15650406504065,47.20528455284553 69.10569105691057,46.798780487804876 69.05487804878048,46.54471544715447 69.05487804878048,46.34146341463415 68.95325203252033,45.9349593495935 68.90243902439025,45.579268292682926 68.80081300813008,45.172764227642276 68.69918699186992,44.8170731707317 68.59756097560975,44.46138211382114 68.4451219512195,44.05487804878049 68.34349593495935,43.64837398373984 68.1910569105691,43.24186991869919 68.03861788617886,42.83536585365854 67.9369918699187,42.479674796747965 67.78455284552845,42.1239837398374 67.58130081300813,41.76829268292683 67.3780487804878,41.41260162601626 67.17479674796748,41.05691056910569 67.07317073170732,40.853658536585364 66.97154471544715,40.65040650406504 66.71747967479675,40.29471544715447 66.46341463414635,39.9390243902439 66.20934959349593,39.583333333333336 65.95528455284553,39.176829268292686 65.65040650406505,38.82113821138211 65.39634146341463,38.516260162601625 65.09146341463415,38.16056910569105 64.78658536585365,37.855691056910565 64.48170731707317,37.55081300813008 64.1260162601626,37.19512195121951 63.77032520325203,36.890243902439025 63.41463414634146,36.58536585365854 63.00813008130081,36.33130081300813 62.60162601626016,36.02642276422764 62.19512195121951,35.72154471544715 61.73780487804878,35.46747967479675 61.28048780487805,35.16260162601626 60.8739837398374,34.959349593495936 60.416666666666664,34.75609756097561 59.959349593495936,34.5020325203252 59.5020325203252,34.298780487804876" fill="none" stroke="black" stroke-width="0.6"></polyline><polyline points="59.5020325203252,34.298780487804876 59.04471544715447,34.09552845528455 58.536585365853654,33.892276422764226 58.130081300813,33.739837398373986 57.672764227642276,33.53658536585366 57.16463414634146,33.333333333333336 56.70731707317073,33.18089430894309 56.25,33.02845528455285 55.792682926829265,32.8760162601626 55.386178861788615,32.72357723577236 54.92886178861789,32.57113821138211 54.47154471544715,32.46951219512195 54.0650406504065,32.3170731707317 53.65853658536585,32.266260162601625 53.201219512195124,32.16463414634146 52.79471544715447,32.0630081300813 52.38821138211382,31.961382113821138 51.880081300813,31.859756097560975 51.52439024390244,31.808943089430894 51.11788617886179,31.758130081300813 50.66056910569105,31.65650406504065 50.2540650406504,31.60569105691057 49.84756097560975,31.554878048780488 49.390243902439025,31.504065040650406 48.983739837398375,31.453252032520325 48.577235772357724,31.453252032520325 48.170731707317074,31.402439024390244 47.8150406504065,31.402439024390244 47.459349593495936,31.402439024390244 47.052845528455286,31.351626016260163 46.646341463414636,31.351626016260163 46.239837398373986,31.351626016260163 45.833333333333336,31.351626016260163 45.47764227642276,31.351626016260163 45.12195121951219,31.351626016260163 44.71544715447154,31.402439024390244 44.30894308943089,31.453252032520325 43.90243902439024,31.504065040650406 43.44512195121951,31.60569105691057 43.03861788617886,31.70731707317073 42.58130081300813,31.758130081300813 42.1239837398374,31.859756097560975 41.71747967479675,32.012195121951216 41.260162601626014,32.11382113821138 40.7520325203252,32.266260162601625 40.29471544715447,32.418699186991866 39.88821138211382,32.57113821138211 39.43089430894309,32.72357723577236 39.02439024390244,32.8760162601626 38.5670731707317,33.079268292682926 38.109756097560975,33.23170731707317" fill="none" stroke="black" stroke-width="0.6"></polyline><polyline points="38.109756097560975,33.23170731707317 37.703252032520325,33.485772357723576 37.24593495934959,33.6890243902439 36.890243902439025,33.892276422764226 36.53455284552845,34.09552845528455 36.1280487804878,34.298780487804876 35.823170731707314,34.451219512195124 35.46747967479675,34.65447154471545 35.11178861788618,34.90853658536585 34.80691056910569,35.16260162601626 34.5020325203252,35.36585365853659 34.146341463414636,35.61991869918699 33.892276422764226,35.8739837398374 33.58739837398374,36.1280487804878 33.28252032520325,36.43292682926829 33.079268292682926,36.6869918699187 32.8760162601626,36.890243902439025 32.6219512195122,37.19512195121951 32.418699186991866,37.5 32.3170731707317,37.65243902439024 32.21544715447154,37.80487804878049 31.961382113821138,38.109756097560975 31.808943089430894,38.36382113821138 31.60569105691057,38.668699186991866 31.402439024390244,39.02439024390244 31.148373983739837,39.43089430894309 30.84349593495935,39.9390243902439 30.640243902439025,40.24390243902439 30.538617886178862,40.447154471544714 30.4369918699187,40.65040650406504 30.335365853658537,41.00609756097561 30.182926829268293,41.3109756097561 30.03048780487805,41.71747967479675 29.878048780487806,42.073170731707314 29.776422764227643,42.42886178861789 29.67479674796748,42.78455284552845 29.573170731707318,43.140243902439025 29.522357723577237,43.546747967479675 29.369918699186993,43.953252032520325 29.268292682926827,44.359756097560975 29.166666666666664,44.766260162601625 29.115853658536583,45.172764227642276 29.01422764227642,45.63008130081301 28.912601626016258,46.08739837398374 28.810975609756095,46.49390243902439 28.760162601626014,46.90040650406504 28.709349593495933,47.30691056910569 28.65853658536585,47.764227642276424 28.65853658536585,48.170731707317074 28.60772357723577,48.577235772357724 28.60772357723577,49.03455284552845" fill="none" stroke="black" stroke-width="0.6"></polyline><polyline points="28.60772357723577,49.03455284552845 28.60772357723577,49.49186991869919 28.55691056910569,49.89837398373984 28.55691056910569,50.30487804878049 28.55691056910569,50.762195121951216 28.55691056910569,51.168699186991866 28.60772357723577,51.575203252032516 28.65853658536585,52.03252032520325 28.65853658536585,52.4390243902439 28.709349593495933,52.84552845528455 28.760162601626014,53.302845528455286 28.810975609756095,53.709349593495936 28.912601626016258,54.11585365853659 28.96341463414634,54.573170731707314 29.01422764227642,55.03048780487805 29.115853658536583,55.48780487804878 29.217479674796746,55.99593495934959 29.31910569105691,56.453252032520325 29.471544715447155,57.0630081300813 29.6239837398374,57.8760162601626 29.725609756097562,58.43495934959349 29.827235772357724,58.84146341463415 29.979674796747968,59.298780487804876 30.08130081300813,59.80691056910569 30.233739837398375,60.16260162601626 30.38617886178862,60.51829268292683 30.538617886178862,60.8739837398374 30.691056910569106,61.28048780487805 30.89430894308943,61.636178861788615 31.046747967479675,62.042682926829265 31.30081300813008,62.449186991869915 31.504065040650406,62.7540650406504 31.70731707317073,63.05894308943089 31.961382113821138,63.41463414634146 32.16463414634146,63.668699186991866 32.418699186991866,63.97357723577235 32.672764227642276,64.27845528455285 32.8760162601626,64.53252032520325 33.13008130081301,64.83739837398373 33.4349593495935,65.14227642276423 33.6890243902439,65.44715447154472 33.99390243902439,65.70121951219512 34.298780487804876,66.0060975609756 34.603658536585364,66.26016260162602 34.90853658536585,66.51422764227642 35.21341463414634,66.76829268292683 35.46747967479675,67.02235772357723 35.77235772357724,67.27642276422765 36.077235772357724,67.47967479674797 36.38211382113821,67.73373983739837 36.6869918699187,67.98780487804878" fill="none" stroke="black" stroke-width="0.6"></polyline><polyline points="36.6869918699187,67.98780487804878 37.042682926829265,68.24186991869918 37.34756097560975,68.4959349593496 37.65243902439024,68.69918699186992 38.00813008130081,68.95325203252033 38.3130081300813,69.15650406504065 38.668699186991866,69.35975609756098 39.02439024390244,69.5630081300813 39.38008130081301,69.71544715447155 39.6849593495935,69.91869918699187 40.09146341463415,70.1219512195122 40.396341463414636,70.27439024390243 40.802845528455286,70.47764227642276 41.15853658536585,70.630081300813 41.5650406504065,70.78252032520325 41.920731707317074,70.9349593495935 42.327235772357724,71.03658536585365 42.68292682926829,71.1890243902439 43.08943089430894,71.29065040650406 43.49593495934959,71.39227642276423 43.90243902439024,71.49390243902438 44.30894308943089,71.59552845528455 44.71544715447154,71.69715447154472 45.12195121951219,71.79878048780488 45.579268292682926,71.84959349593495 45.985772357723576,71.95121951219512 46.44308943089431,72.0020325203252 46.84959349593496,72.05284552845528 47.30691056910569,72.10365853658537 47.764227642276424,72.15447154471545 48.170731707317074,72.20528455284553 48.67886178861789,72.20528455284553 49.136178861788615,72.2560975609756 49.59349593495935,72.2560975609756 50.10162601626016,72.2560975609756 50.609756097560975,72.2560975609756 51.11788617886179,72.2560975609756 51.6260162601626,72.2560975609756 52.1849593495935,72.2560975609756 52.69308943089431,72.2560975609756 53.2520325203252,72.20528455284553 53.8109756097561,72.15447154471545 54.420731707317074,72.10365853658537 54.979674796747965,72.05284552845528 55.53861788617886,71.95121951219512 56.14837398373984,71.84959349593495 56.70731707317073,71.7479674796748 57.266260162601625,71.64634146341463 57.8760162601626,71.49390243902438 58.43495934959349,71.39227642276423 58.99390243902439,71.23983739837398" fill="none" stroke="black" stroke-width="0.6"></polyline><polyline points="58.99390243902439,71.23983739837398 59.603658536585364,71.03658536585365 60.16260162601626,70.8841463414634 60.46747967479675,70.78252032520325 60.77235772357724,70.68089430894308 61.38211382113821,70.47764227642276 61.636178861788615,70.3760162601626 62.55081300813008,70.0711382113821 63.16056910569105,69.8170731707317 63.71951219512195,69.61382113821138 64.27845528455285,69.41056910569105 64.83739837398373,69.15650406504065 65.34552845528455,68.95325203252033 65.85365853658537,68.69918699186992 66.41260162601625,68.4451219512195 66.869918699187,68.1910569105691 67.3780487804878,67.88617886178862 67.88617886178862,67.58130081300813 68.34349593495935,67.32723577235772 68.80081300813008,67.02235772357723 69.2581300813008,66.71747967479675 69.61382113821138,66.46341463414635 70.02032520325203,66.15853658536585 70.3760162601626,65.85365853658537 70.73170731707317,65.54878048780488 71.08739837398373,65.2439024390244 71.39227642276423,64.9390243902439 71.69715447154472,64.6341463414634 72.0020325203252,64.32926829268293 72.3069105691057,63.97357723577235 72.61178861788618,63.61788617886179 72.91666666666667,63.262195121951216 73.22154471544715,62.90650406504065 73.47560975609755,62.55081300813008 73.72967479674797,62.19512195121951 73.98373983739837,61.78861788617886 74.13617886178862,61.636178861788615 74.23780487804878,61.43292682926829 74.49186991869918,61.02642276422764 74.7459349593496,60.670731707317074 74.94918699186992,60.3150406504065 75.15243902439025,59.959349593495936 75.35569105691057,59.603658536585364 75.5081300813008,59.298780487804876 75.66056910569105,58.94308943089431 75.76219512195122,58.58739837398374 75.86382113821138,58.231707317073166 75.96544715447155,57.92682926829268 76.01626016260163,57.57113821138211 76.0670731707317,57.266260162601625 76.16869918699187,56.96138211382114" fill="none" stroke="black" stroke-width="0.6"></polyline><polyline points="76.16869918699187,56.96138211382114 76.21951219512195,56.605691056910565 76.27032520325203,56.35162601626016 76.27032520325203,56.046747967479675 76.3211382113821,55.74186991869919 76.3719512195122,55.4369918699187 76.42276422764228,55.13211382113821 76.42276422764228,54.827235772357724 76.47357723577235,54.573170731707314 76.47357723577235,54.26829268292683 76.52439024390243,53.96341463414634 76.57520325203252,53.709349593495936 76.57520325203252,53.40447154471545 76.57520325203252,53.15040650406504 76.57520325203252,52.896341463414636 76.57520325203252,52.642276422764226 76.6260162601626,52.33739837398374 76.6260162601626,52.083333333333336 76.6260162601626,51.829268292682926 76.6260162601626,51.6260162601626 76.6260162601626,51.47357723577235 76.57520325203252,51.32113821138211 76.57520325203252,51.11788617886179 76.52439024390243,51.016260162601625 76.47357723577235,50.86382113821138 76.47357723577235,50.762195121951216 76.42276422764228,50.66056910569105 76.42276422764228,50.609756097560975 76.3719512195122,50.55894308943089 76.3719512195122,50.50813008130081 76.3211382113821,50.45731707317073 76.3211382113821,50.45731707317073 76.3211382113821,50.40650406504065 76.3211382113821,50.40650406504065 76.3211382113821,50.355691056910565 76.3211382113821,50.355691056910565 76.3211382113821,50.355691056910565 76.3211382113821,50.355691056910565 76.3211382113821,50.355691056910565 76.3211382113821,50.355691056910565 76.3211382113821,50.355691056910565 76.3211382113821,50.355691056910565 76.3211382113821,50.355691056910565 76.3211382113821,50.355691056910565 76.3211382113821,50.355691056910565 76.3211382113821,50.355691056910565 76.3211382113821,50.355691056910565 76.3211382113821,50.355691056910565 76.3211382113821,50.355691056910565 76.3211382113821,50.355691056910565 76.3211382113821,50.355691056910565" fill="none" stroke="black" stroke-width="0.6"></polyline><polyline points="76.3211382113821,50.355691056910565 76.3211382113821,50.355691056910565" fill="none" stroke="black" stroke-width="0.6"></polyline></svg>