<svg height="100" width="100" preserveAspectRatio="xMidYMid meet"><polyline points="50.05081300813008,50.609756097560975 50,50.55894308943089 50,50.50813008130081 49.89837398373984,50.45731707317073 49.89837398373984,50.40650406504065 49.89837398373984,50.40650406504065 49.84756097560975,50.2540650406504 49.796747967479675,50.2540650406504 49.796747967479675,50.15243902439024 49.796747967479675,50.05081300813008 49.796747967479675,50 49.796747967479675,49.89837398373984 49.74593495934959,49.84756097560975 49.74593495934959,49.796747967479675 49.74593495934959,49.74593495934959 49.74593495934959,49.74593495934959 49.74593495934959,49.74593495934959 49.74593495934959,49.74593495934959 49.74593495934959,49.74593495934959 49.74593495934959,49.74593495934959 49.74593495934959,49.74593495934959 49.796747967479675,49.796747967479675 49.89837398373984,49.796747967479675 49.949186991869915,49.84756097560975 50.05081300813008,49.84756097560975 50.15243902439024,49.84756097560975 50.30487804878049,49.84756097560975 50.45731707317073,49.74593495934959 50.609756097560975,49.64430894308943 50.8130081300813,49.542682926829265 51.016260162601625,49.390243902439025 51.21951219512195,49.1869918699187 51.422764227642276,48.983739837398375 51.6260162601626,48.78048780487805 51.77845528455284,48.577235772357724 51.880081300813,48.3739837398374 51.981707317073166,48.170731707317074 52.083333333333336,47.96747967479675 52.13414634146341,47.8150406504065 52.13414634146341,47.61178861788618 52.1849593495935,47.459349593495936 52.1849593495935,47.357723577235774 52.1849593495935,47.20528455284553 52.13414634146341,47.103658536585364 52.083333333333336,47.0020325203252 52.03252032520325,46.84959349593496 51.93089430894309,46.7479674796748 51.829268292682926,46.646341463414636 51.72764227642276,46.49390243902439 51.6260162601626,46.392276422764226 51.47357723577235,46.239837398373986" fill="none" stroke="black" stroke-width="0.6"></polyline><polyline points="51.47357723577235,46.239837398373986 51.32113821138211,46.08739837398374 51.11788617886179,45.9349593495935 50.91463414634146,45.833333333333336 50.71138211382114,45.73170731707317 50.55894308943089,45.63008130081301 50.355691056910565,45.579268292682926 50.203252032520325,45.52845528455285 50,45.47764227642276 49.796747967479675,45.42682926829268 49.542682926829265,45.3760162601626 49.23780487804878,45.3760162601626 48.93292682926829,45.3760162601626 48.6280487804878,45.3760162601626 48.3739837398374,45.3760162601626 48.06910569105691,45.42682926829268 47.8150406504065,45.47764227642276 47.61178861788618,45.52845528455285 47.40853658536585,45.579268292682926 47.20528455284553,45.63008130081301 47.052845528455286,45.68089430894309 46.84959349593496,45.78252032520325 46.646341463414636,45.88414634146341 46.44308943089431,45.985772357723576 46.290650406504064,46.08739837398374 46.13821138211382,46.1890243902439 45.985772357723576,46.34146341463415 45.88414634146341,46.49390243902439 45.78252032520325,46.646341463414636 45.68089430894309,46.798780487804876 45.63008130081301,47.0020325203252 45.52845528455285,47.20528455284553 45.42682926829268,47.40853658536585 45.3760162601626,47.66260162601626 45.27439024390244,47.916666666666664 45.22357723577235,48.170731707317074 45.12195121951219,48.47560975609756 45.07113821138211,48.78048780487805 45.02032520325203,49.03455284552845 44.96951219512195,49.28861788617886 44.918699186991866,49.542682926829265 44.86788617886179,49.796747967479675 44.86788617886179,50.10162601626016 44.8170731707317,50.45731707317073 44.766260162601625,50.91463414634146 44.66463414634146,51.37195121951219 44.61382113821138,51.72764227642276 44.61382113821138,52.03252032520325 44.61382113821138,52.28658536585366 44.61382113821138,52.540650406504064 44.61382113821138,52.79471544715447" fill="none" stroke="black" stroke-width="0.6"></polyline><polyline points="44.61382113821138,52.79471544715447 44.66463414634146,53.048780487804876 44.71544715447154,53.302845528455286 44.8170731707317,53.55691056910569 44.918699186991866,53.760162601626014 45.02032520325203,54.014227642276424 45.172764227642276,54.21747967479675 45.325203252032516,54.420731707317074 45.52845528455285,54.573170731707314 45.68089430894309,54.72560975609756 45.9349593495935,54.92886178861789 46.1890243902439,55.08130081300813 46.49390243902439,55.233739837398375 46.798780487804876,55.33536585365854 47.103658536585364,55.4369918699187 47.40853658536585,55.53861788617886 47.66260162601626,55.58943089430894 47.96747967479675,55.6910569105691 48.27235772357724,55.74186991869919 48.577235772357724,55.792682926829265 48.93292682926829,55.89430894308943 49.28861788617886,55.94512195121951 49.64430894308943,55.99593495934959 50,55.99593495934959 50.30487804878049,55.99593495934959 50.71138211382114,55.99593495934959 51.0670731707317,55.99593495934959 51.47357723577235,55.94512195121951 51.880081300813,55.84349593495935 52.235772357723576,55.792682926829265 52.59146341463415,55.6910569105691 52.947154471544714,55.53861788617886 53.302845528455286,55.4369918699187 53.607723577235774,55.28455284552845 53.96341463414634,55.08130081300813 54.26829268292683,54.8780487804878 54.6239837398374,54.573170731707314 54.979674796747965,54.26829268292683 55.33536585365854,53.91260162601626 55.6910569105691,53.607723577235774 56.046747967479675,53.2520325203252 56.35162601626016,52.9979674796748 56.55487804878049,52.69308943089431 56.75813008130081,52.38821138211382 56.96138211382114,52.13414634146341 57.11382113821138,51.829268292682926 57.266260162601625,51.47357723577235 57.36788617886179,51.168699186991866 57.46951219512195,50.86382113821138 57.57113821138211,50.45731707317073 57.62195121951219,50.15243902439024" fill="none" stroke="black" stroke-width="0.6"></polyline><polyline points="57.62195121951219,50.15243902439024 57.672764227642276,49.74593495934959 57.72357723577235,49.390243902439025 57.72357723577235,49.08536585365854 57.72357723577235,48.78048780487805 57.72357723577235,48.47560975609756 57.672764227642276,48.11991869918699 57.62195121951219,47.8150406504065 57.57113821138211,47.357723577235774 57.46951219512195,46.90040650406504 57.36788617886179,46.49390243902439 57.266260162601625,46.239837398373986 57.11382113821138,46.03658536585366 57.012195121951216,45.88414634146341 56.859756097560975,45.68089430894309 56.70731707317073,45.47764227642276 56.55487804878049,45.22357723577235 56.35162601626016,44.96951219512195 56.14837398373984,44.766260162601625 55.94512195121951,44.5630081300813 55.74186991869919,44.359756097560975 55.53861788617886,44.15650406504065 55.28455284552845,43.953252032520325 55.08130081300813,43.75 54.8780487804878,43.59756097560975 54.6239837398374,43.39430894308943 54.36991869918699,43.24186991869919 54.166666666666664,43.08943089430894 53.86178861788618,42.9369918699187 53.607723577235774,42.78455284552845 53.353658536585364,42.68292682926829 53.048780487804876,42.58130081300813 52.74390243902439,42.42886178861789 52.4390243902439,42.327235772357724 52.083333333333336,42.22560975609756 51.72764227642276,42.1239837398374 51.37195121951219,42.073170731707314 51.0670731707317,42.02235772357724 50.71138211382114,41.97154471544715 50.355691056910565,41.920731707317074 50.05081300813008,41.86991869918699 49.69512195121951,41.86991869918699 49.28861788617886,41.86991869918699 48.83130081300813,41.86991869918699 48.42479674796748,41.86991869918699 48.01829268292683,41.920731707317074 47.61178861788618,41.97154471544715 47.25609756097561,42.02235772357724 46.84959349593496,42.1239837398374 46.44308943089431,42.17479674796748 46.08739837398374,42.27642276422764" fill="none" stroke="black" stroke-width="0.6"></polyline><polyline points="46.08739837398374,42.27642276422764 45.78252032520325,42.327235772357724 45.42682926829268,42.42886178861789 45.12195121951219,42.53048780487805 44.766260162601625,42.63211382113821 44.41056910569105,42.78455284552845 44.105691056910565,42.9369918699187 43.85162601626016,43.08943089430894 43.546747967479675,43.24186991869919 43.292682926829265,43.44512195121951 42.98780487804878,43.64837398373984 42.68292682926829,43.90243902439024 42.3780487804878,44.25813008130081 42.02235772357724,44.66463414634146 41.666666666666664,45.02032520325203 41.46341463414634,45.27439024390244 41.260162601626014,45.47764227642276 41.15853658536585,45.63008130081301 41.05691056910569,45.833333333333336 40.90447154471545,46.03658536585366 40.802845528455286,46.290650406504064 40.701219512195124,46.54471544715447 40.59959349593496,46.798780487804876 40.4979674796748,47.103658536585364 40.396341463414636,47.459349593495936 40.29471544715447,47.764227642276424 40.19308943089431,48.06910569105691 40.142276422764226,48.323170731707314 40.09146341463415,48.577235772357724 40.040650406504064,48.88211382113821 39.989837398373986,49.136178861788615 39.9390243902439,49.390243902439025 39.9390243902439,49.69512195121951 39.88821138211382,50 39.83739837398374,50.30487804878049 39.83739837398374,50.66056910569105 39.83739837398374,50.96544715447154 39.83739837398374,51.27032520325203 39.78658536585366,51.575203252032516 39.78658536585366,51.880081300813 39.78658536585366,52.1849593495935 39.78658536585366,52.540650406504064 39.78658536585366,52.84552845528455 39.83739837398374,53.15040650406504 39.83739837398374,53.45528455284553 39.88821138211382,53.760162601626014 39.9390243902439,54.014227642276424 39.989837398373986,54.31910569105691 40.040650406504064,54.67479674796748 40.09146341463415,55.13211382113821 40.09146341463415,55.58943089430894" fill="none" stroke="black" stroke-width="0.6"></polyline><polyline points="40.09146341463415,55.58943089430894 40.142276422764226,55.94512195121951 40.19308943089431,56.25 40.24390243902439,56.5040650406504 40.29471544715447,56.80894308943089 40.396341463414636,57.0630081300813 40.447154471544714,57.418699186991866 40.548780487804876,57.77439024390244 40.65040650406504,58.079268292682926 40.802845528455286,58.38414634146341 40.90447154471545,58.63821138211382 41.05691056910569,58.892276422764226 41.209349593495936,59.146341463414636 41.36178861788618,59.40040650406504 41.61585365853659,59.65447154471545 41.81910569105691,59.90853658536585 42.073170731707314,60.16260162601626 42.3780487804878,60.51829268292683 42.68292682926829,60.77235772357724 43.03861788617886,61.02642276422764 43.39430894308943,61.229674796747965 43.64837398373984,61.33130081300813 44.0040650406504,61.483739837398375 44.359756097560975,61.636178861788615 44.71544715447154,61.78861788617886 45.172764227642276,61.9410569105691 45.63008130081301,62.09349593495935 46.03658536585366,62.24593495934959 46.49390243902439,62.34756097560975 46.951219512195124,62.449186991869915 47.40853658536585,62.55081300813008 47.916666666666664,62.60162601626016 48.42479674796748,62.703252032520325 48.88211382113821,62.7540650406504 49.28861788617886,62.80487804878049 49.796747967479675,62.855691056910565 50.203252032520325,62.90650406504065 50.609756097560975,62.90650406504065 51.016260162601625,62.90650406504065 51.422764227642276,62.90650406504065 51.575203252032516,62.90650406504065 51.77845528455284,62.90650406504065 52.1849593495935,62.90650406504065 52.540650406504064,62.855691056910565 52.896341463414636,62.7540650406504 53.302845528455286,62.65243902439024 53.65853658536585,62.60162601626016 53.96341463414634,62.5 54.31910569105691,62.39837398373984 54.6239837398374,62.24593495934959 54.92886178861789,62.09349593495935" fill="none" stroke="black" stroke-width="0.6"></polyline><polyline points="54.92886178861789,62.09349593495935 55.28455284552845,61.9410569105691 55.58943089430894,61.73780487804878 55.89430894308943,61.58536585365854 56.199186991869915,61.38211382113821 56.453252032520325,61.229674796747965 56.75813008130081,61.02642276422764 57.0630081300813,60.823170731707314 57.3170731707317,60.61991869918699 57.62195121951219,60.36585365853659 57.92682926829268,60.11178861788618 58.231707317073166,59.90853658536585 58.536585365853654,59.65447154471545 58.84146341463415,59.451219512195124 59.09552845528455,59.197154471544714 59.40040650406504,58.94308943089431 59.65447154471545,58.6890243902439 59.959349593495936,58.43495934959349 60.21341463414634,58.18089430894309 60.46747967479675,57.92682926829268 60.72154471544715,57.672764227642276 60.97560975609756,57.418699186991866 61.28048780487805,57.11382113821138 61.53455284552845,56.80894308943089 61.73780487804878,56.453252032520325 61.99186991869919,56.09756097560975 62.19512195121951,55.792682926829265 62.39837398373984,55.4369918699187 62.60162601626016,55.08130081300813 62.80487804878049,54.67479674796748 63.00813008130081,54.26829268292683 63.21138211382114,53.91260162601626 63.3130081300813,53.55691056910569 63.46544715447154,53.15040650406504 63.5670731707317,52.74390243902439 63.668699186991866,52.33739837398374 63.71951219512195,52.13414634146341 63.77032520325203,51.93089430894309 63.82113821138211,51.52439024390244 63.87195121951219,51.168699186991866 63.922764227642276,50.8130081300813 63.97357723577235,50.40650406504065 63.97357723577235,49.949186991869915 64.02439024390243,49.49186991869919 64.02439024390243,49.08536585365854 64.02439024390243,48.729674796747965 63.922764227642276,48.323170731707314 63.87195121951219,47.96747967479675 63.82113821138211,47.5609756097561 63.71951219512195,47.15447154471545 63.61788617886179,46.7479674796748" fill="none" stroke="black" stroke-width="0.6"></polyline><polyline points="63.61788617886179,46.7479674796748 63.516260162601625,46.34146341463415 63.36382113821138,45.88414634146341 63.262195121951216,45.579268292682926 63.16056910569105,45.22357723577235 63.00813008130081,44.86788617886179 62.855691056910565,44.512195121951216 62.703252032520325,44.20731707317073 62.5,43.80081300813008 62.296747967479675,43.49593495934959 62.09349593495935,43.1910569105691 61.83943089430894,42.886178861788615 61.58536585365854,42.58130081300813 61.38211382113821,42.327235772357724 61.077235772357724,42.02235772357724 60.823170731707314,41.76829268292683 60.51829268292683,41.46341463414634 60.21341463414634,41.15853658536585 59.90853658536585,40.90447154471545 59.603658536585364,40.65040650406504 59.298780487804876,40.396341463414636 58.94308943089431,40.19308943089431 58.63821138211382,39.989837398373986 58.28252032520325,39.78658536585366 57.92682926829268,39.583333333333336 57.57113821138211,39.43089430894309 57.16463414634146,39.22764227642276 56.80894308943089,39.07520325203252 56.453252032520325,38.87195121951219 56.09756097560975,38.71951219512195 55.89430894308943,38.668699186991866 55.74186991869919,38.61788617886179 55.33536585365854,38.46544715447154 54.92886178861789,38.36382113821138 54.52235772357724,38.262195121951216 54.11585365853659,38.16056910569105 53.709349593495936,38.05894308943089 53.302845528455286,37.95731707317073 52.896341463414636,37.90650406504065 52.4390243902439,37.80487804878049 52.03252032520325,37.7540650406504 51.6260162601626,37.703252032520325 51.168699186991866,37.65243902439024 50.66056910569105,37.65243902439024 50.203252032520325,37.60162601626016 49.69512195121951,37.60162601626016 49.23780487804878,37.60162601626016 48.83130081300813,37.60162601626016 48.42479674796748,37.60162601626016 48.01829268292683,37.60162601626016 47.61178861788618,37.65243902439024" fill="none" stroke="black" stroke-width="0.6"></polyline><polyline points="47.61178861788618,37.65243902439024 47.20528455284553,37.65243902439024 46.798780487804876,37.703252032520325 46.392276422764226,37.80487804878049 45.985772357723576,37.855691056910565 45.63008130081301,37.90650406504065 45.172764227642276,38.00813008130081 44.8170731707317,38.109756097560975 44.61382113821138,38.16056910569105 44.41056910569105,38.21138211382114 43.953252032520325,38.36382113821138 43.59756097560975,38.516260162601625 43.1910569105691,38.668699186991866 42.78455284552845,38.82113821138211 42.58130081300813,38.922764227642276 42.3780487804878,39.02439024390244 41.920731707317074,39.27845528455285 41.36178861788618,39.63414634146341 40.802845528455286,39.989837398373986 40.24390243902439,40.34552845528455 39.63414634146341,40.701219512195124 39.176829268292686,40.95528455284553 38.668699186991866,41.3109756097561 38.16056910569105,41.61585365853659 37.703252032520325,41.920731707317074 37.24593495934959,42.27642276422764 36.73780487804878,42.733739837398375 36.38211382113821,42.98780487804878 36.1280487804878,43.140243902439025 35.823170731707314,43.39430894308943 35.670731707317074,43.546747967479675 35.51829268292683,43.699186991869915 35.264227642276424,44.0040650406504 35.010162601626014,44.359756097560975 34.80691056910569,44.61382113821138 34.65447154471545,44.918699186991866 34.5020325203252,45.22357723577235 34.34959349593496,45.52845528455285 34.2479674796748,45.88414634146341 34.09552845528455,46.290650406504064 34.04471544715447,46.646341463414636 33.94308943089431,47.0020325203252 33.892276422764226,47.40853658536585 33.84146341463415,47.8150406504065 33.790650406504064,48.22154471544715 33.790650406504064,48.67886178861789 33.739837398373986,49.08536585365854 33.739837398373986,49.542682926829265 33.6890243902439,50.05081300813008 33.6890243902439,50.50813008130081 33.6890243902439,50.96544715447154" fill="none" stroke="black" stroke-width="0.6"></polyline><polyline points="33.6890243902439,50.96544715447154 33.6890243902439,51.422764227642276 33.6890243902439,51.880081300813 33.739837398373986,52.33739837398374 33.790650406504064,52.896341463414636 33.84146341463415,53.50609756097561 33.84146341463415,53.8109756097561 33.892276422764226,54.014227642276424 33.94308943089431,54.420731707317074 34.04471544715447,54.827235772357724 34.146341463414636,55.28455284552845 34.2479674796748,55.74186991869919 34.298780487804876,55.94512195121951 34.34959349593496,56.14837398373984 34.451219512195124,56.605691056910565 34.603658536585364,57.012195121951216 34.75609756097561,57.418699186991866 34.959349593495936,57.825203252032516 35.11178861788618,58.231707317073166 35.3150406504065,58.63821138211382 35.51829268292683,59.04471544715447 35.72154471544715,59.451219512195124 35.92479674796748,59.857723577235774 36.1280487804878,60.3150406504065 36.38211382113821,60.77235772357724 36.636178861788615,61.229674796747965 36.890243902439025,61.6869918699187 37.14430894308943,61.99186991869919 37.34756097560975,62.296747967479675 37.65243902439024,62.60162601626016 37.90650406504065,62.90650406504065 38.16056910569105,63.21138211382114 38.46544715447154,63.5670731707317 38.77032520325203,63.87195121951219 39.02439024390244,64.17682926829268 39.38008130081301,64.53252032520325 39.6849593495935,64.9390243902439 40.040650406504064,65.34552845528455 40.24390243902439,65.4979674796748 40.447154471544714,65.65040650406505 40.802845528455286,65.95528455284553 41.209349593495936,66.20934959349593 41.666666666666664,66.51422764227642 42.02235772357724,66.71747967479675 42.479674796747965,66.97154471544715 42.98780487804878,67.22560975609755 43.39430894308943,67.42886178861788 43.90243902439024,67.58130081300813 44.359756097560975,67.73373983739837 44.61382113821138,67.78455284552845 44.86788617886179,67.83536585365853" fill="none" stroke="black" stroke-width="0.6"></polyline><polyline points="44.86788617886179,67.83536585365853 45.325203252032516,67.9369918699187 45.78252032520325,67.98780487804878 46.1890243902439,68.03861788617886 46.59552845528455,68.14024390243902 47.103658536585364,68.1910569105691 47.510162601626014,68.24186991869918 47.916666666666664,68.24186991869918 48.3739837398374,68.29268292682927 48.78048780487805,68.29268292682927 49.1869918699187,68.29268292682927 49.64430894308943,68.29268292682927 50.05081300813008,68.29268292682927 50.45731707317073,68.29268292682927 50.86382113821138,68.24186991869918 51.32113821138211,68.1910569105691 51.77845528455284,68.14024390243902 52.235772357723576,68.03861788617886 52.74390243902439,67.9369918699187 53.2520325203252,67.78455284552845 53.760162601626014,67.6321138211382 54.31910569105691,67.53048780487805 54.827235772357724,67.32723577235772 55.33536585365854,67.17479674796748 55.792682926829265,67.02235772357723 56.25,66.869918699187 56.70731707317073,66.66666666666667 57.16463414634146,66.51422764227642 57.62195121951219,66.3109756097561 58.130081300813,66.0569105691057 58.58739837398374,65.85365853658537 59.09552845528455,65.59959349593495 59.603658536585364,65.29471544715447 60.0609756097561,65.09146341463415 60.51829268292683,64.83739837398373 60.97560975609756,64.53252032520325 61.43292682926829,64.27845528455285 61.890243902439025,63.97357723577235 62.34756097560975,63.668699186991866 62.7540650406504,63.36382113821138 63.16056910569105,63.05894308943089 63.5670731707317,62.703252032520325 63.97357723577235,62.39837398373984 64.380081300813,62.042682926829265 64.78658536585365,61.6869918699187 65.14227642276423,61.33130081300813 65.4979674796748,60.92479674796748 65.85365853658537,60.51829268292683 66.15853658536585,60.11178861788618 66.51422764227642,59.70528455284553 66.76829268292683,59.298780487804876" fill="none" stroke="black" stroke-width="0.6"></polyline><polyline points="66.76829268292683,59.298780487804876 67.07317073170732,58.84146341463415 67.3780487804878,58.33333333333333 67.6321138211382,57.8760162601626 67.83536585365853,57.418699186991866 68.08943089430895,56.91056910569105 68.29268292682927,56.453252032520325 68.4959349593496,55.99593495934959 68.64837398373983,55.4369918699187 68.80081300813008,54.979674796747965 68.95325203252033,54.47154471544715 69.05487804878048,53.86178861788618 69.20731707317073,53.353658536585364 69.3089430894309,52.896341463414636 69.41056910569105,52.33739837398374 69.46138211382113,51.880081300813 69.51219512195122,51.37195121951219 69.5630081300813,50.8130081300813 69.5630081300813,50.355691056910565 69.61382113821138,49.84756097560975 69.61382113821138,49.28861788617886 69.61382113821138,48.83130081300813 69.5630081300813,48.323170731707314 69.51219512195122,47.764227642276424 69.46138211382113,47.30691056910569 69.35975609756098,46.798780487804876 69.2581300813008,46.239837398373986 69.15650406504065,45.68089430894309 69.0040650406504,45.22357723577235 68.85162601626016,44.766260162601625 68.69918699186992,44.359756097560975 68.54674796747967,43.953252032520325 68.29268292682927,43.49593495934959 68.08943089430895,43.03861788617886 67.83536585365853,42.63211382113821 67.58130081300813,42.17479674796748 67.32723577235772,41.76829268292683 66.97154471544715,41.3109756097561 66.66666666666667,40.90447154471545 66.3109756097561,40.4979674796748 65.95528455284553,40.142276422764226 65.54878048780488,39.735772357723576 65.14227642276423,39.329268292682926 64.73577235772358,38.97357723577235 64.27845528455285,38.5670731707317 63.82113821138211,38.21138211382114 63.3130081300813,37.90650406504065 62.80487804878049,37.55081300813008 62.296747967479675,37.19512195121951 61.73780487804878,36.890243902439025 61.17886178861789,36.53455284552845" fill="none" stroke="black" stroke-width="0.6"></polyline><polyline points="61.17886178861789,36.53455284552845 60.670731707317074,36.28048780487805 60.16260162601626,36.02642276422764 59.603658536585364,35.77235772357724 59.04471544715447,35.56910569105691 58.485772357723576,35.36585365853659 57.8760162601626,35.16260162601626 57.36788617886179,34.959349593495936 56.75813008130081,34.80691056910569 56.199186991869915,34.65447154471545 55.640243902439025,34.552845528455286 55.03048780487805,34.40040650406504 54.420731707317074,34.298780487804876 53.86178861788618,34.197154471544714 53.302845528455286,34.146341463414636 52.74390243902439,34.04471544715447 52.13414634146341,33.99390243902439 51.52439024390244,33.94308943089431 50.91463414634146,33.94308943089431 50.355691056910565,33.892276422764226 49.74593495934959,33.892276422764226 49.1869918699187,33.892276422764226 48.577235772357724,33.892276422764226 47.96747967479675,33.892276422764226 47.40853658536585,33.94308943089431 46.84959349593496,33.99390243902439 46.239837398373986,34.04471544715447 45.68089430894309,34.09552845528455 45.12195121951219,34.197154471544714 44.512195121951216,34.298780487804876 43.953252032520325,34.40040650406504 43.39430894308943,34.5020325203252 42.78455284552845,34.65447154471545 42.22560975609756,34.80691056910569 41.666666666666664,34.959349593495936 41.00609756097561,35.16260162601626 40.447154471544714,35.36585365853659 39.88821138211382,35.61991869918699 39.27845528455285,35.8739837398374 38.71951219512195,36.077235772357724 38.16056910569105,36.33130081300813 37.55081300813008,36.636178861788615 37.042682926829265,36.9410569105691 36.483739837398375,37.19512195121951 35.97560975609756,37.5 35.51829268292683,37.7540650406504 35.0609756097561,38.05894308943089 34.552845528455286,38.41463414634146 34.09552845528455,38.668699186991866 33.6890243902439,39.02439024390244 33.4349593495935,39.176829268292686" fill="none" stroke="black" stroke-width="0.6"></polyline><polyline points="33.4349593495935,39.176829268292686 33.18089430894309,39.38008130081301 32.82520325203252,39.6849593495935 32.46951219512195,40.040650406504064 32.11382113821138,40.34552845528455 31.758130081300813,40.701219512195124 31.351626016260163,41.3109756097561 30.945121951219512,41.81910569105691 30.691056910569106,42.1239837398374 30.48780487804878,42.3780487804878 30.284552845528456,42.78455284552845 30.03048780487805,43.24186991869919 29.776422764227643,43.699186991869915 29.573170731707318,44.15650406504065 29.420731707317074,44.61382113821138 29.268292682926827,45.07113821138211 29.115853658536583,45.63008130081301 28.96341463414634,46.08739837398374 28.861788617886177,46.54471544715447 28.760162601626014,47.052845528455286 28.60772357723577,47.5609756097561 28.55691056910569,48.06910569105691 28.455284552845526,48.577235772357724 28.404471544715445,49.08536585365854 28.353658536585364,49.59349593495935 28.302845528455283,50.10162601626016 28.2520325203252,50.609756097560975 28.2520325203252,51.168699186991866 28.2520325203252,51.72764227642276 28.2520325203252,52.235772357723576 28.2520325203252,52.79471544715447 28.302845528455283,53.40447154471545 28.404471544715445,53.91260162601626 28.455284552845526,54.52235772357724 28.55691056910569,55.13211382113821 28.65853658536585,55.6910569105691 28.810975609756095,56.35162601626016 28.912601626016258,56.91056910569105 29.0650406504065,57.52032520325203 29.217479674796746,58.18089430894309 29.420731707317074,59.04471544715447 29.471544715447155,59.5020325203252 29.573170731707318,59.857723577235774 29.725609756097562,60.46747967479675 29.878048780487806,61.02642276422764 30.08130081300813,61.58536585365854 30.284552845528456,62.042682926829265 30.48780487804878,62.449186991869915 30.741869918699187,62.90650406504065 31.046747967479675,63.41463414634146 31.30081300813008,63.87195121951219" fill="none" stroke="black" stroke-width="0.6"></polyline><polyline points="31.30081300813008,63.87195121951219 31.65650406504065,64.380081300813 31.961382113821138,64.83739837398373 32.3170731707317,65.1930894308943 32.6219512195122,65.59959349593495 33.02845528455285,66.0569105691057 33.38414634146341,66.41260162601625 33.790650406504064,66.869918699187 34.197154471544714,67.27642276422765 34.603658536585364,67.6321138211382 35.010162601626014,68.03861788617886 35.46747967479675,68.4451219512195 35.670731707317074,68.59756097560975 35.92479674796748,68.80081300813008 36.38211382113821,69.15650406504065 36.890243902439025,69.5630081300813 37.39837398373984,69.86788617886178 37.855691056910565,70.22357723577235 38.36382113821138,70.57926829268293 38.82113821138211,70.83333333333333 39.329268292682926,71.1890243902439 39.83739837398374,71.49390243902438 40.29471544715447,71.7479674796748 40.7520325203252,72.05284552845528 41.260162601626014,72.3069105691057 41.76829268292683,72.5609756097561 42.27642276422764,72.76422764227642 42.78455284552845,73.01829268292683 43.292682926829265,73.22154471544715 43.85162601626016,73.42479674796748 44.359756097560975,73.6280487804878 44.918699186991866,73.78048780487805 45.42682926829268,73.9329268292683 45.73170731707317,74.03455284552845 46.54471544715447,74.1869918699187 47.15447154471545,74.33943089430895 47.764227642276424,74.4410569105691 48.323170731707314,74.49186991869918 48.6280487804878,74.54268292682927 48.93292682926829,74.54268292682927 49.49186991869919,74.59349593495935 50.05081300813008,74.59349593495935 50.66056910569105,74.59349593495935 51.27032520325203,74.59349593495935 51.880081300813,74.59349593495935 52.489837398373986,74.54268292682927 53.201219512195124,74.4410569105691 53.86178861788618,74.28861788617886 54.52235772357724,74.13617886178862 55.18292682926829,73.98373983739837 55.84349593495935,73.78048780487805" fill="none" stroke="black" stroke-width="0.6"></polyline><polyline points="55.84349593495935,73.78048780487805 56.5040650406504,73.57723577235772 57.21544715447154,73.3739837398374 57.8760162601626,73.119918699187 58.18089430894309,73.01829268292683 58.536585365853654,72.86585365853658 59.2479674796748,72.61178861788618 59.90853658536585,72.3069105691057 60.61991869918699,72.05284552845528 61.33130081300813,71.69715447154472 62.042682926829265,71.34146341463415 62.80487804878049,70.98577235772358 63.41463414634146,70.68089430894308 64.07520325203252,70.3760162601626 64.73577235772358,69.96951219512195 65.29471544715447,69.61382113821138 65.90447154471545,69.2581300813008 66.5650406504065,68.85162601626016 67.1239837398374,68.4959349593496 67.6829268292683,68.14024390243902 68.24186991869918,67.73373983739837 68.75,67.3780487804878 69.3089430894309,67.02235772357723 69.8170731707317,66.61585365853658 70.27439024390243,66.26016260162602 70.78252032520325,65.85365853658537 71.23983739837398,65.44715447154472 71.69715447154472,65.04065040650406 72.10365853658537,64.58333333333333 72.5609756097561,64.1260162601626 72.96747967479675,63.71951219512195 73.3739837398374,63.3130081300813 73.78048780487805,62.855691056910565 74.13617886178862,62.39837398373984 74.54268292682927,61.9410569105691 74.6951219512195,61.73780487804878 74.89837398373983,61.53455284552845 75.20325203252033,61.17886178861789 75.5081300813008,60.77235772357724 75.8130081300813,60.36585365853659 76.01626016260163,59.959349593495936 76.16869918699187,59.80691056910569 76.27032520325203,59.603658536585364 76.47357723577235,59.197154471544714 76.6260162601626,58.84146341463415 76.77845528455285,58.43495934959349 76.93089430894308,58.079268292682926 77.03252032520325,57.77439024390244 77.1341463414634,57.418699186991866 77.23577235772358,57.0630081300813 77.28658536585365,56.70731707317073" fill="none" stroke="black" stroke-width="0.6"></polyline><polyline points="77.28658536585365,56.70731707317073 77.38821138211382,56.35162601626016 77.4390243902439,55.99593495934959 77.4390243902439,55.6910569105691 77.4390243902439,55.4369918699187 77.48983739837398,55.13211382113821 77.48983739837398,54.77642276422764 77.48983739837398,54.47154471544715 77.48983739837398,54.166666666666664 77.48983739837398,53.86178861788618 77.48983739837398,53.607723577235774 77.48983739837398,53.353658536585364 77.4390243902439,53.09959349593496 77.4390243902439,52.896341463414636 77.38821138211382,52.642276422764226 77.38821138211382,52.4390243902439 77.33739837398373,52.235772357723576 77.33739837398373,52.03252032520325 77.28658536585365,51.77845528455284 77.28658536585365,51.575203252032516 77.23577235772358,51.37195121951219 77.1849593495935,51.21951219512195 77.1849593495935,51.0670731707317 77.1341463414634,50.96544715447154 77.08333333333333,50.86382113821138 77.08333333333333,50.762195121951216 77.03252032520325,50.66056910569105 77.03252032520325,50.55894308943089 76.98170731707317,50.45731707317073 76.98170731707317,50.40650406504065 76.98170731707317,50.355691056910565 76.98170731707317,50.30487804878049 76.98170731707317,50.2540650406504 76.98170731707317,50.2540650406504 76.93089430894308,50.203252032520325 76.93089430894308,50.203252032520325 76.93089430894308,50.203252032520325 76.93089430894308,50.203252032520325 76.98170731707317,50.15243902439024 77.03252032520325,50.15243902439024" fill="none" stroke="black" stroke-width="0.6"></polyline></svg>