<svg height="100" width="100" preserveAspectRatio="xMidYMid meet"><polyline points="38.61788617886179,16.05691056910569 38.61788617886179,16.05691056910569 38.61788617886179,16.05691056910569 38.61788617886179,16.05691056910569 38.61788617886179,16.05691056910569 38.61788617886179,16.05691056910569 38.61788617886179,16.05691056910569 38.61788617886179,16.05691056910569 38.61788617886179,16.05691056910569 38.61788617886179,16.05691056910569 38.61788617886179,16.05691056910569 38.61788617886179,16.05691056910569 38.61788617886179,16.05691056910569 38.668699186991866,16.05691056910569 38.668699186991866,16.05691056910569 38.668699186991866,16.05691056910569 38.71951219512195,16.05691056910569 38.71951219512195,16.10772357723577 38.82113821138211,16.10772357723577 38.87195121951219,16.15853658536585 38.97357723577235,16.209349593495933 39.1260162601626,16.260162601626014 39.329268292682926,16.3109756097561 39.53252032520325,16.3109756097561 39.78658536585366,16.3109756097561 40.09146341463415,16.260162601626014 40.396341463414636,16.15853658536585 40.701219512195124,16.006097560975608 41.05691056910569,15.802845528455284 41.36178861788618,15.59959349593496 41.71747967479675,15.345528455284553 42.073170731707314,15.091463414634147 42.3780487804878,14.786585365853659 42.78455284552845,14.48170731707317 43.08943089430894,14.176829268292682 43.44512195121951,13.871951219512194 43.80081300813008,13.516260162601625 44.105691056910565,13.211382113821138 44.359756097560975,12.90650406504065 44.71544715447154,12.449186991869919 45.02032520325203,12.09349593495935 45.27439024390244,11.6869918699187 45.52845528455285,11.280487804878048 45.73170731707317,10.924796747967479 45.9349593495935,10.56910569105691 46.08739837398374,10.16260162601626 46.239837398373986,9.80691056910569 46.392276422764226,9.502032520325203 46.49390243902439,9.146341463414634 46.59552845528455,8.892276422764228 46.697154471544714,8.58739837398374" fill="none" stroke="black" stroke-width="0.6"></polyline><polyline points="46.697154471544714,8.58739837398374 46.7479674796748,8.282520325203253 46.798780487804876,8.028455284552845 46.798780487804876,7.82520325203252 46.798780487804876,7.621951219512195 46.798780487804876,7.469512195121951 46.798780487804876,7.367886178861789 46.798780487804876,7.266260162601625 46.7479674796748,7.215447154471544 46.697154471544714,7.164634146341463 46.646341463414636,7.113821138211382 46.646341463414636,7.113821138211382 46.59552845528455,7.0630081300813 46.54471544715447,7.0630081300813 46.49390243902439,7.0630081300813 46.44308943089431,7.0630081300813 46.392276422764226,7.0630081300813 46.34146341463415,7.113821138211382 46.239837398373986,7.164634146341463 46.13821138211382,7.317073170731707 45.985772357723576,7.469512195121951 45.833333333333336,7.6727642276422765 45.73170731707317,7.774390243902439 45.68089430894309,7.876016260162602 45.52845528455285,8.18089430894309 45.42682926829268,8.282520325203253 45.325203252032516,8.434959349593496 45.12195121951219,8.790650406504065 44.96951219512195,9.095528455284553 44.86788617886179,9.298780487804878 44.71544715447154,9.502032520325203 44.512195121951216,9.857723577235772 44.41056910569105,10.060975609756097 44.30894308943089,10.264227642276422 44.105691056910565,10.670731707317072 43.953252032520325,11.026422764227641 43.80081300813008,11.331300813008129 43.64837398373984,11.6869918699187 43.546747967479675,11.991869918699187 43.44512195121951,12.296747967479675 43.34349593495935,12.652439024390244 43.24186991869919,12.957317073170731 43.1910569105691,13.3130081300813 43.08943089430894,13.617886178861788 43.03861788617886,13.871951219512194 42.98780487804878,14.1260162601626 42.98780487804878,14.278455284552845 42.9369918699187,14.430894308943088 42.9369918699187,14.634146341463413 42.9369918699187,14.888211382113822 42.9369918699187,15.091463414634147" fill="none" stroke="black" stroke-width="0.6"></polyline><polyline points="42.9369918699187,15.091463414634147 42.9369918699187,15.294715447154472 42.98780487804878,15.447154471544716 43.03861788617886,15.65040650406504 43.140243902439025,15.802845528455284 43.1910569105691,15.904471544715447 43.34349593495935,16.05691056910569 43.44512195121951,16.15853658536585 43.59756097560975,16.209349593495933 43.75,16.3109756097561 43.90243902439024,16.41260162601626 44.05487804878049,16.463414634146343 44.20731707317073,16.514227642276424 44.359756097560975,16.565040650406505 44.5630081300813,16.565040650406505 44.766260162601625,16.615853658536587 44.918699186991866,16.615853658536587 45.12195121951219,16.615853658536587 45.325203252032516,16.615853658536587 45.52845528455285,16.565040650406505 45.78252032520325,16.514227642276424 45.985772357723576,16.41260162601626 46.08739837398374,16.36178861788618 46.1890243902439,16.3109756097561 46.44308943089431,16.209349593495933 46.646341463414636,16.05691056910569 46.84959349593496,15.904471544715447 47.103658536585364,15.752032520325203 47.357723577235774,15.548780487804878 47.61178861788618,15.294715447154472 47.8150406504065,15.040650406504065 48.06910569105691,14.786585365853659 48.22154471544715,14.53252032520325 48.3739837398374,14.278455284552845 48.577235772357724,14.024390243902438 48.67886178861789,13.821138211382113 48.78048780487805,13.617886178861788 48.88211382113821,13.414634146341463 48.983739837398375,13.211382113821138 49.03455284552845,13.058943089430894 49.08536585365854,12.855691056910569 49.136178861788615,12.652439024390244 49.136178861788615,12.5 49.1869918699187,12.398373983739837 49.1869918699187,12.347560975609756 49.1869918699187,12.195121951219512 49.1869918699187,12.09349593495935 49.1869918699187,11.941056910569106 49.1869918699187,11.839430894308943 49.136178861788615,11.737804878048781 49.08536585365854,11.6869918699187" fill="none" stroke="black" stroke-width="0.6"></polyline><polyline points="49.08536585365854,11.6869918699187 49.08536585365854,11.636178861788618 49.03455284552845,11.534552845528456 48.983739837398375,11.534552845528456 48.93292682926829,11.483739837398375 48.88211382113821,11.432926829268293 48.83130081300813,11.432926829268293 48.78048780487805,11.432926829268293 48.78048780487805,11.432926829268293 48.729674796747965,11.432926829268293 48.67886178861789,11.432926829268293 48.6280487804878,11.432926829268293 48.577235772357724,11.432926829268293 48.52642276422764,11.483739837398375 48.42479674796748,11.585365853658537 48.3739837398374,11.737804878048781 48.22154471544715,11.890243902439025 48.11991869918699,12.09349593495935 48.01829268292683,12.296747967479675 47.916666666666664,12.5 47.8150406504065,12.703252032520325 47.71341463414634,12.90650406504065 47.61178861788618,13.160569105691057 47.510162601626014,13.363821138211382 47.459349593495936,13.617886178861788 47.357723577235774,13.770325203252032 47.30691056910569,13.973577235772357 47.30691056910569,14.1260162601626 47.25609756097561,14.278455284552845 47.25609756097561,14.48170731707317 47.25609756097561,14.634146341463413 47.25609756097561,14.786585365853659 47.25609756097561,14.939024390243903 47.25609756097561,15.091463414634147 47.25609756097561,15.19308943089431 47.30691056910569,15.345528455284553 47.357723577235774,15.447154471544716 47.40853658536585,15.548780487804878 47.459349593495936,15.65040650406504 47.510162601626014,15.701219512195122 47.510162601626014,15.752032520325203 47.61178861788618,15.853658536585366 47.66260162601626,15.904471544715447 47.764227642276424,16.006097560975608 47.8150406504065,16.05691056910569 47.916666666666664,16.10772357723577 48.01829268292683,16.15853658536585 48.170731707317074,16.209349593495933 48.27235772357724,16.209349593495933 48.3739837398374,16.209349593495933 48.52642276422764,16.209349593495933" fill="none" stroke="black" stroke-width="0.6"></polyline><polyline points="48.52642276422764,16.209349593495933 48.67886178861789,16.209349593495933 48.83130081300813,16.209349593495933 48.983739837398375,16.15853658536585 49.136178861788615,16.10772357723577 49.33943089430894,16.006097560975608 49.542682926829265,15.904471544715447 49.74593495934959,15.752032520325203 50,15.65040650406504 50.203252032520325,15.447154471544716 50.355691056910565,15.345528455284553 50.50813008130081,15.24390243902439 50.762195121951216,15.040650406504065 51.016260162601625,14.83739837398374 51.27032520325203,14.634146341463413 51.52439024390244,14.380081300813007 51.72764227642276,14.176829268292682 51.93089430894309,13.973577235772357 52.13414634146341,13.821138211382113 52.28658536585366,13.617886178861788 52.489837398373986,13.363821138211382 52.642276422764226,13.160569105691057 52.74390243902439,12.90650406504065 52.84552845528455,12.703252032520325 52.947154471544714,12.5 53.048780487804876,12.296747967479675 53.09959349593496,12.144308943089431 53.09959349593496,12.042682926829269 53.15040650406504,11.890243902439025 53.201219512195124,11.788617886178862 53.201219512195124,11.737804878048781 53.2520325203252,11.636178861788618 53.302845528455286,11.585365853658537 53.302845528455286,11.534552845528456 53.302845528455286,11.483739837398375 53.353658536585364,11.432926829268293 53.353658536585364,11.382113821138212 53.353658536585364,11.382113821138212 53.353658536585364,11.382113821138212 53.353658536585364,11.331300813008129 53.353658536585364,11.331300813008129 53.353658536585364,11.331300813008129 53.353658536585364,11.331300813008129 53.353658536585364,11.331300813008129 53.353658536585364,11.331300813008129 53.353658536585364,11.331300813008129 53.353658536585364,11.331300813008129 53.353658536585364,11.331300813008129 53.353658536585364,11.382113821138212 53.353658536585364,11.382113821138212 53.353658536585364,11.432926829268293" fill="none" stroke="black" stroke-width="0.6"></polyline><polyline points="53.353658536585364,11.432926829268293 53.40447154471545,11.483739837398375 53.40447154471545,11.585365853658537 53.40447154471545,11.737804878048781 53.45528455284553,11.941056910569106 53.50609756097561,12.144308943089431 53.55691056910569,12.398373983739837 53.607723577235774,12.652439024390244 53.65853658536585,12.957317073170731 53.709349593495936,13.262195121951219 53.760162601626014,13.567073170731707 53.8109756097561,13.821138211382113 53.8109756097561,14.07520325203252 53.86178861788618,14.329268292682926 53.86178861788618,14.583333333333332 53.86178861788618,14.786585365853659 53.8109756097561,14.888211382113822 53.8109756097561,14.989837398373984 53.709349593495936,15.19308943089431 53.65853658536585,15.345528455284553 53.55691056910569,15.497967479674797 53.45528455284553,15.59959349593496 53.302845528455286,15.701219512195122 53.15040650406504,15.802845528455284 52.9979674796748,15.853658536585366 52.84552845528455,15.904471544715447 52.642276422764226,15.955284552845528 52.4390243902439,16.006097560975608 52.235772357723576,16.006097560975608 51.981707317073166,16.05691056910569 51.77845528455284,16.05691056910569 51.52439024390244,16.05691056910569 51.32113821138211,16.05691056910569 51.11788617886179,15.955284552845528 50.91463414634146,15.904471544715447 50.762195121951216,15.752032520325203 50.55894308943089,15.65040650406504 50.45731707317073,15.548780487804878 50.355691056910565,15.447154471544716 50.2540650406504,15.345528455284553 50.203252032520325,15.24390243902439 50.15243902439024,15.19308943089431 50.10162601626016,15.142276422764228 50.10162601626016,15.142276422764228 50.10162601626016,15.091463414634147 50.10162601626016,15.091463414634147 50.10162601626016,15.091463414634147 50.10162601626016,15.091463414634147 50.10162601626016,15.091463414634147 50.10162601626016,15.091463414634147 50.10162601626016,15.091463414634147" fill="none" stroke="black" stroke-width="0.6"></polyline><polyline points="50.10162601626016,15.091463414634147 50.10162601626016,15.091463414634147 50.10162601626016,15.142276422764228 50.10162601626016,15.142276422764228 50.15243902439024,15.19308943089431 50.203252032520325,15.24390243902439 50.2540650406504,15.294715447154472 50.355691056910565,15.396341463414634 50.45731707317073,15.497967479674797 50.55894308943089,15.548780487804878 50.71138211382114,15.65040650406504 50.91463414634146,15.752032520325203 51.11788617886179,15.802845528455284 51.37195121951219,15.904471544715447 51.6260162601626,15.904471544715447 51.981707317073166,15.955284552845528 52.33739837398374,15.955284552845528 52.642276422764226,15.904471544715447 53.048780487804876,15.853658536585366 53.40447154471545,15.752032520325203 53.760162601626014,15.65040650406504 54.11585365853659,15.548780487804878 54.26829268292683,15.497967479674797 54.47154471544715,15.396341463414634 54.827235772357724,15.24390243902439 55.18292682926829,15.091463414634147 55.53861788617886,14.939024390243903 55.6910569105691,14.83739837398374 55.84349593495935,14.786585365853659 56.14837398373984,14.634146341463413 56.30081300813008,14.53252032520325 56.453252032520325,14.48170731707317 56.65650406504065,14.329268292682926 56.75813008130081,14.227642276422763 57.11382113821138,14.024390243902438 57.266260162601625,13.871951219512194 57.36788617886179,13.770325203252032 57.52032520325203,13.66869918699187 57.57113821138211,13.617886178861788 57.62195121951219,13.516260162601625 57.672764227642276,13.465447154471544" fill="none" stroke="black" stroke-width="0.6"></polyline><polyline points="37.14430894308943,35.46747967479675 37.14430894308943,35.46747967479675 37.09349593495935,35.46747967479675 37.042682926829265,35.46747967479675 36.99186991869919,35.46747967479675 36.99186991869919,35.51829268292683 36.99186991869919,35.51829268292683 36.99186991869919,35.51829268292683 37.042682926829265,35.51829268292683 37.14430894308943,35.51829268292683 37.296747967479675,35.51829268292683 37.449186991869915,35.56910569105691 37.60162601626016,35.56910569105691 37.80487804878049,35.56910569105691 38.00813008130081,35.56910569105691 38.262195121951216,35.56910569105691 38.516260162601625,35.61991869918699 38.87195121951219,35.61991869918699 39.22764227642276,35.61991869918699 39.583333333333336,35.56910569105691 39.989837398373986,35.46747967479675 40.447154471544714,35.3150406504065 40.90447154471545,35.0609756097561 41.41260162601626,34.80691056910569 41.920731707317074,34.451219512195124 42.479674796747965,34.04471544715447 42.98780487804878,33.6890243902439 43.49593495934959,33.28252032520325 44.0040650406504,32.8760162601626 44.41056910569105,32.46951219512195 44.8170731707317,32.0630081300813 45.27439024390244,31.60569105691057 45.63008130081301,31.148373983739837 45.985772357723576,30.691056910569106 46.34146341463415,30.08130081300813 46.646341463414636,29.522357723577237 46.90040650406504,29.0650406504065 47.103658536585364,28.55691056910569 47.25609756097561,28.048780487804876 47.357723577235774,27.693089430894307 47.40853658536585,27.38821138211382 47.40853658536585,27.184959349593495 47.40853658536585,27.083333333333332 47.357723577235774,26.98170731707317 47.25609756097561,26.98170731707317 47.15447154471545,26.93089430894309 47.0020325203252,26.880081300813007 46.84959349593496,26.880081300813007 46.59552845528455,26.93089430894309 46.290650406504064,27.083333333333332 45.985772357723576,27.33739837398374" fill="none" stroke="black" stroke-width="0.6"></polyline><polyline points="45.985772357723576,27.33739837398374 45.73170731707317,27.591463414634145 45.3760162601626,27.947154471544714 45.02032520325203,28.353658536585364 44.71544715447154,28.709349593495933 44.41056910569105,29.166666666666664 44.105691056910565,29.573170731707318 43.85162601626016,30.08130081300813 43.699186991869915,30.38617886178862 43.59756097560975,30.640243902439025 43.34349593495935,31.148373983739837 43.1910569105691,31.554878048780488 43.08943089430894,31.961382113821138 42.98780487804878,32.36788617886179 42.9369918699187,32.77439024390244 42.9369918699187,33.13008130081301 42.9369918699187,33.4349593495935 42.9369918699187,33.739837398373986 42.9369918699187,34.04471544715447 43.03861788617886,34.298780487804876 43.140243902439025,34.552845528455286 43.24186991869919,34.75609756097561 43.39430894308943,34.90853658536585 43.546747967479675,35.0609756097561 43.699186991869915,35.264227642276424 43.85162601626016,35.36585365853659 44.0040650406504,35.46747967479675 44.20731707317073,35.56910569105691 44.41056910569105,35.61991869918699 44.66463414634146,35.670731707317074 44.86788617886179,35.72154471544715 45.07113821138211,35.72154471544715 45.325203252032516,35.72154471544715 45.52845528455285,35.72154471544715 45.73170731707317,35.72154471544715 45.985772357723576,35.670731707317074 46.1890243902439,35.61991869918699 46.44308943089431,35.51829268292683 46.7479674796748,35.36585365853659 47.052845528455286,35.16260162601626 47.357723577235774,34.90853658536585 47.66260162601626,34.65447154471545 47.916666666666664,34.40040650406504 48.22154471544715,34.09552845528455 48.47560975609756,33.739837398373986 48.729674796747965,33.4349593495935 48.93292682926829,33.13008130081301 49.136178861788615,32.82520325203252 49.28861788617886,32.52032520325203 49.4410569105691,32.266260162601625 49.59349593495935,31.961382113821138" fill="none" stroke="black" stroke-width="0.6"></polyline><polyline points="49.59349593495935,31.961382113821138 49.64430894308943,31.758130081300813 49.69512195121951,31.554878048780488 49.74593495934959,31.402439024390244 49.74593495934959,31.30081300813008 49.74593495934959,31.19918699186992 49.74593495934959,31.097560975609756 49.69512195121951,31.046747967479675 49.59349593495935,30.995934959349594 49.49186991869919,30.945121951219512 49.390243902439025,30.945121951219512 49.23780487804878,30.945121951219512 49.03455284552845,30.945121951219512 48.88211382113821,31.046747967479675 48.67886178861789,31.148373983739837 48.42479674796748,31.30081300813008 48.22154471544715,31.453252032520325 48.01829268292683,31.70731707317073 47.8150406504065,32.012195121951216 47.61178861788618,32.266260162601625 47.40853658536585,32.57113821138211 47.25609756097561,32.926829268292686 47.103658536585364,33.23170731707317 47.0020325203252,33.485772357723576 46.951219512195124,33.6890243902439 46.951219512195124,33.892276422764226 46.951219512195124,34.09552845528455 46.951219512195124,34.2479674796748 46.951219512195124,34.451219512195124 47.052845528455286,34.603658536585364 47.15447154471545,34.75609756097561 47.25609756097561,34.90853658536585 47.40853658536585,35.010162601626014 47.61178861788618,35.11178861788618 47.764227642276424,35.16260162601626 47.96747967479675,35.21341463414634 48.170731707317074,35.21341463414634 48.42479674796748,35.21341463414634 48.52642276422764,35.16260162601626 48.67886178861789,35.11178861788618 48.93292682926829,35.010162601626014 49.23780487804878,34.857723577235774 49.59349593495935,34.65447154471545 49.89837398373984,34.451219512195124 50.203252032520325,34.2479674796748 50.50813008130081,34.04471544715447 50.66056910569105,33.892276422764226 50.8130081300813,33.790650406504064 51.11788617886179,33.53658536585366 51.422764227642276,33.28252032520325 51.72764227642276,33.02845528455285" fill="none" stroke="black" stroke-width="0.6"></polyline><polyline points="51.72764227642276,33.02845528455285 51.981707317073166,32.72357723577236 52.13414634146341,32.57113821138211 52.28658536585366,32.418699186991866 52.489837398373986,32.16463414634146 52.642276422764226,31.961382113821138 52.74390243902439,31.758130081300813 52.84552845528455,31.65650406504065 52.896341463414636,31.60569105691057 52.947154471544714,31.504065040650406 52.947154471544714,31.504065040650406 52.947154471544714,31.504065040650406 52.947154471544714,31.504065040650406 52.947154471544714,31.504065040650406 52.947154471544714,31.504065040650406 52.947154471544714,31.504065040650406 52.947154471544714,31.504065040650406 52.947154471544714,31.504065040650406 52.947154471544714,31.504065040650406 52.947154471544714,31.504065040650406 52.947154471544714,31.504065040650406 52.947154471544714,31.60569105691057 52.947154471544714,31.65650406504065 52.947154471544714,31.808943089430894 52.947154471544714,31.961382113821138 52.947154471544714,32.16463414634146 52.947154471544714,32.418699186991866 52.947154471544714,32.72357723577236 52.947154471544714,33.02845528455285 52.896341463414636,33.4349593495935 52.84552845528455,33.790650406504064 52.79471544715447,33.99390243902439 52.79471544715447,34.146341463414636 52.74390243902439,34.451219512195124 52.642276422764226,34.75609756097561 52.540650406504064,35.010162601626014 52.4390243902439,35.21341463414634 52.33739837398374,35.264227642276424 52.28658536585366,35.36585365853659 52.1849593495935,35.46747967479675 52.083333333333336,35.51829268292683 51.981707317073166,35.56910569105691 51.880081300813,35.56910569105691 51.77845528455284,35.56910569105691 51.6260162601626,35.51829268292683 51.52439024390244,35.46747967479675 51.32113821138211,35.36585365853659 51.168699186991866,35.264227642276424 51.016260162601625,35.16260162601626 50.8130081300813,35.0609756097561 50.66056910569105,34.90853658536585" fill="none" stroke="black" stroke-width="0.6"></polyline><polyline points="50.66056910569105,34.90853658536585 50.50813008130081,34.80691056910569 50.40650406504065,34.70528455284553 50.30487804878049,34.603658536585364 50.2540650406504,34.552845528455286 50.203252032520325,34.5020325203252 50.203252032520325,34.451219512195124 50.203252032520325,34.40040650406504 50.203252032520325,34.40040650406504 50.203252032520325,34.40040650406504 50.203252032520325,34.34959349593496 50.203252032520325,34.34959349593496 50.203252032520325,34.34959349593496 50.203252032520325,34.34959349593496 50.2540650406504,34.34959349593496 50.2540650406504,34.34959349593496 50.2540650406504,34.34959349593496 50.30487804878049,34.40040650406504 50.355691056910565,34.40040650406504 50.40650406504065,34.451219512195124 50.50813008130081,34.451219512195124 50.609756097560975,34.5020325203252 50.762195121951216,34.552845528455286 50.91463414634146,34.603658536585364 51.11788617886179,34.65447154471545 51.32113821138211,34.65447154471545 51.6260162601626,34.70528455284553 51.981707317073166,34.70528455284553 52.38821138211382,34.65447154471545 52.79471544715447,34.552845528455286 53.201219512195124,34.451219512195124 53.607723577235774,34.34959349593496 53.96341463414634,34.197154471544714 54.36991869918699,34.04471544715447 54.67479674796748,33.892276422764226 55.03048780487805,33.6890243902439 55.18292682926829,33.58739837398374 55.4369918699187,33.485772357723576 55.792682926829265,33.23170731707317 56.199186991869915,32.97764227642276 56.65650406504065,32.672764227642276 57.012195121951216,32.36788617886179 57.418699186991866,32.0630081300813 57.825203252032516,31.758130081300813 58.130081300813,31.453252032520325 58.43495934959349,31.25 58.6890243902439,31.046747967479675 58.892276422764226,30.89430894308943 59.04471544715447,30.79268292682927 59.146341463414636,30.741869918699187 59.197154471544714,30.691056910569106" fill="none" stroke="black" stroke-width="0.6"></polyline><polyline points="59.197154471544714,30.691056910569106 59.2479674796748,30.691056910569106 59.2479674796748,30.691056910569106 59.2479674796748,30.79268292682927" fill="none" stroke="black" stroke-width="0.6"></polyline><polyline points="37.449186991869915,55.89430894308943 37.39837398373984,55.94512195121951 37.34756097560975,55.99593495934959 37.296747967479675,55.99593495934959 37.296747967479675,56.046747967479675 37.296747967479675,56.046747967479675 37.296747967479675,56.09756097560975 37.296747967479675,56.14837398373984 37.34756097560975,56.199186991869915 37.39837398373984,56.25 37.5,56.25 37.65243902439024,56.30081300813008 37.80487804878049,56.30081300813008 38.00813008130081,56.30081300813008 38.21138211382114,56.25 38.46544715447154,56.199186991869915 38.82113821138211,56.046747967479675 39.176829268292686,55.84349593495935 39.583333333333336,55.58943089430894 40.09146341463415,55.233739837398375 40.59959349593496,54.77642276422764 41.209349593495936,54.166666666666664 41.86991869918699,53.45528455284553 42.479674796747965,52.896341463414636 42.98780487804878,52.489837398373986 43.546747967479675,51.981707317073166 44.0040650406504,51.52439024390244 44.46138211382114,51.016260162601625 44.918699186991866,50.50813008130081 45.22357723577235,50.10162601626016 45.579268292682926,49.64430894308943 45.88414634146341,49.1869918699187 46.08739837398374,48.78048780487805 46.239837398373986,48.47560975609756 46.392276422764226,48.01829268292683 46.54471544715447,47.61178861788618 46.54471544715447,47.357723577235774 46.54471544715447,47.20528455284553 46.49390243902439,47.103658536585364 46.392276422764226,47.0020325203252 46.239837398373986,46.951219512195124 46.08739837398374,46.951219512195124 45.88414634146341,46.951219512195124 45.63008130081301,47.15447154471545 45.47764227642276,47.25609756097561 45.325203252032516,47.40853658536585 45.07113821138211,47.66260162601626 44.918699186991866,47.8150406504065 44.46138211382114,48.3739837398374 44.105691056910565,48.83130081300813 43.90243902439024,49.136178861788615" fill="none" stroke="black" stroke-width="0.6"></polyline><polyline points="43.90243902439024,49.136178861788615 43.75,49.390243902439025 43.39430894308943,49.89837398373984 43.08943089430894,50.45731707317073 42.78455284552845,51.016260162601625 42.479674796747965,51.52439024390244 42.27642276422764,51.981707317073166 42.1239837398374,52.489837398373986 42.02235772357724,52.947154471544714 41.920731707317074,53.40447154471545 41.81910569105691,54.014227642276424 41.76829268292683,54.420731707317074 41.76829268292683,54.67479674796748 41.81910569105691,54.92886178861789 41.920731707317074,55.13211382113821 42.02235772357724,55.33536585365854 42.22560975609756,55.48780487804878 42.3780487804878,55.640243902439025 42.58130081300813,55.74186991869919 42.78455284552845,55.84349593495935 42.98780487804878,55.94512195121951 43.24186991869919,55.94512195121951 43.546747967479675,55.99593495934959 43.85162601626016,55.99593495934959 44.25813008130081,55.89430894308943 44.66463414634146,55.74186991869919 45.12195121951219,55.53861788617886 45.579268292682926,55.28455284552845 46.03658536585366,54.979674796747965 46.49390243902439,54.72560975609756 47.0020325203252,54.420731707317074 47.459349593495936,54.11585365853659 47.8150406504065,53.86178861788618 48.22154471544715,53.55691056910569 48.52642276422764,53.2520325203252 48.78048780487805,52.9979674796748 49.03455284552845,52.69308943089431 49.23780487804878,52.489837398373986 49.4410569105691,52.235772357723576 49.542682926829265,51.93089430894309 49.59349593495935,51.72764227642276 49.64430894308943,51.575203252032516 49.64430894308943,51.47357723577235 49.59349593495935,51.422764227642276 49.542682926829265,51.32113821138211 49.49186991869919,51.27032520325203 49.4410569105691,51.21951219512195 49.33943089430894,51.168699186991866 49.23780487804878,51.11788617886179 49.136178861788615,51.0670731707317 48.983739837398375,51.0670731707317" fill="none" stroke="black" stroke-width="0.6"></polyline><polyline points="48.983739837398375,51.0670731707317 48.83130081300813,51.0670731707317 48.67886178861789,51.168699186991866 48.52642276422764,51.27032520325203 48.323170731707314,51.422764227642276 48.170731707317074,51.6260162601626 47.96747967479675,51.829268292682926 47.8150406504065,52.13414634146341 47.61178861788618,52.4390243902439 47.40853658536585,52.69308943089431 47.25609756097561,53.048780487804876 47.103658536585364,53.353658536585364 47.0020325203252,53.607723577235774 46.90040650406504,53.86178861788618 46.90040650406504,54.0650406504065 46.90040650406504,54.26829268292683 46.90040650406504,54.52235772357724 46.951219512195124,54.72560975609756 47.052845528455286,54.8780487804878 47.15447154471545,55.03048780487805 47.30691056910569,55.18292682926829 47.459349593495936,55.233739837398375 47.66260162601626,55.33536585365854 47.8150406504065,55.33536585365854 48.06910569105691,55.33536585365854 48.27235772357724,55.33536585365854 48.52642276422764,55.28455284552845 48.78048780487805,55.18292682926829 49.03455284552845,55.08130081300813 49.28861788617886,54.979674796747965 49.59349593495935,54.827235772357724 49.89837398373984,54.6239837398374 50.15243902439024,54.420731707317074 50.45731707317073,54.166666666666664 50.8130081300813,53.86178861788618 51.11788617886179,53.55691056910569 51.47357723577235,53.201219512195124 51.880081300813,52.84552845528455 52.1849593495935,52.540650406504064 52.4390243902439,52.235772357723576 52.69308943089431,51.981707317073166 52.896341463414636,51.67682926829268 53.048780487804876,51.47357723577235 53.15040650406504,51.27032520325203 53.2520325203252,51.11788617886179 53.2520325203252,51.0670731707317 53.302845528455286,51.016260162601625 53.302845528455286,50.96544715447154 53.302845528455286,50.96544715447154 53.302845528455286,50.96544715447154 53.302845528455286,50.96544715447154" fill="none" stroke="black" stroke-width="0.6"></polyline><polyline points="53.302845528455286,50.96544715447154 53.302845528455286,50.96544715447154 53.302845528455286,50.96544715447154 53.302845528455286,50.96544715447154 53.302845528455286,51.016260162601625 53.302845528455286,51.11788617886179 53.302845528455286,51.27032520325203 53.302845528455286,51.52439024390244 53.2520325203252,51.77845528455284 53.2520325203252,52.083333333333336 53.201219512195124,52.4390243902439 53.15040650406504,52.79471544715447 53.09959349593496,53.201219512195124 52.9979674796748,53.65853658536585 52.947154471544714,54.0650406504065 52.79471544715447,54.47154471544715 52.642276422764226,54.8780487804878 52.489837398373986,55.18292682926829 52.33739837398374,55.386178861788615 52.1849593495935,55.58943089430894 51.981707317073166,55.74186991869919 51.880081300813,55.89430894308943 51.72764227642276,55.94512195121951 51.6260162601626,55.99593495934959 51.52439024390244,55.99593495934959 51.422764227642276,56.046747967479675 51.32113821138211,56.046747967479675 51.168699186991866,55.94512195121951 51.016260162601625,55.84349593495935 50.86382113821138,55.74186991869919 50.66056910569105,55.53861788617886 50.50813008130081,55.33536585365854 50.355691056910565,55.18292682926829 50.2540650406504,55.03048780487805 50.10162601626016,54.8780487804878 50.05081300813008,54.827235772357724 50,54.77642276422764 50,54.72560975609756 50,54.72560975609756 50,54.72560975609756 50,54.72560975609756 50,54.72560975609756 50.05081300813008,54.72560975609756 50.05081300813008,54.72560975609756 50.05081300813008,54.72560975609756 50.05081300813008,54.77642276422764 50.10162601626016,54.77642276422764 50.15243902439024,54.827235772357724 50.203252032520325,54.8780487804878 50.30487804878049,54.92886178861789 50.45731707317073,55.03048780487805" fill="none" stroke="black" stroke-width="0.6"></polyline><polyline points="50.45731707317073,55.03048780487805 50.55894308943089,55.13211382113821 50.762195121951216,55.28455284552845 50.96544715447154,55.386178861788615 51.21951219512195,55.4369918699187 51.52439024390244,55.48780487804878 51.880081300813,55.48780487804878 52.28658536585366,55.48780487804878 52.79471544715447,55.28455284552845 53.2520325203252,55.08130081300813 53.760162601626014,54.77642276422764 54.31910569105691,54.420731707317074 54.827235772357724,54.0650406504065 55.33536585365854,53.65853658536585 55.89430894308943,53.302845528455286 56.35162601626016,52.9979674796748 56.75813008130081,52.69308943089431 57.21544715447154,52.38821138211382 57.62195121951219,52.083333333333336 57.97764227642276,51.77845528455284 58.33333333333333,51.52439024390244 58.63821138211382,51.27032520325203 58.892276422764226,51.0670731707317 59.09552845528455,50.91463414634146 59.298780487804876,50.8130081300813 59.451219512195124,50.762195121951216" fill="none" stroke="black" stroke-width="0.6"></polyline><polyline points="37.95731707317073,75.35569105691057 37.95731707317073,75.40650406504065 37.95731707317073,75.40650406504065 37.95731707317073,75.40650406504065 37.95731707317073,75.45731707317073 37.95731707317073,75.5081300813008 38.00813008130081,75.60975609756098 38.109756097560975,75.71138211382113 38.3130081300813,75.8130081300813 38.36382113821138,75.8130081300813 38.46544715447154,75.86382113821138 38.71951219512195,75.91463414634146 39.02439024390244,75.91463414634146 39.329268292682926,75.91463414634146 39.6849593495935,75.8130081300813 40.09146341463415,75.66056910569105 40.4979674796748,75.45731707317073 40.90447154471545,75.2540650406504 41.36178861788618,74.94918699186992 41.76829268292683,74.59349593495935 42.22560975609756,74.23780487804878 42.68292682926829,73.78048780487805 43.140243902439025,73.32317073170732 43.59756097560975,72.8150406504065 44.05487804878049,72.3069105691057 44.512195121951216,71.79878048780488 44.918699186991866,71.29065040650406 45.325203252032516,70.73170731707317 45.63008130081301,70.27439024390243 45.985772357723576,69.76626016260163 46.290650406504064,69.2581300813008 46.54471544715447,68.75 46.7479674796748,68.24186991869918 46.90040650406504,67.78455284552845 47.0020325203252,67.47967479674797 47.052845528455286,67.17479674796748 47.052845528455286,66.97154471544715 47.052845528455286,66.92073170731707 47.052845528455286,66.8191056910569 46.951219512195124,66.71747967479675 46.90040650406504,66.61585365853658 46.798780487804876,66.5650406504065 46.646341463414636,66.51422764227642 46.49390243902439,66.51422764227642 46.34146341463415,66.51422764227642 46.13821138211382,66.5650406504065 45.9349593495935,66.71747967479675 45.73170731707317,66.92073170731707 45.47764227642276,67.17479674796748 45.27439024390244,67.47967479674797 45.02032520325203,67.88617886178862" fill="none" stroke="black" stroke-width="0.6"></polyline><polyline points="45.02032520325203,67.88617886178862 44.766260162601625,68.29268292682927 44.5630081300813,68.69918699186992 44.30894308943089,69.20731707317073 44.05487804878049,69.71544715447155 43.85162601626016,70.22357723577235 43.64837398373984,70.83333333333333 43.44512195121951,71.39227642276423 43.24186991869919,71.90040650406505 43.08943089430894,72.35772357723577 43.03861788617886,72.61178861788618 43.03861788617886,72.91666666666667 42.98780487804878,73.27235772357723 42.98780487804878,73.57723577235772 42.98780487804878,73.8821138211382 42.98780487804878,74.1869918699187 43.08943089430894,74.4410569105691 43.140243902439025,74.64430894308943 43.292682926829265,74.79674796747967 43.44512195121951,74.94918699186992 43.59756097560975,75.05081300813008 43.75,75.15243902439025 43.953252032520325,75.20325203252033 44.15650406504065,75.2540650406504 44.41056910569105,75.30487804878048 44.61382113821138,75.30487804878048 44.86788617886179,75.30487804878048 45.12195121951219,75.30487804878048 45.3760162601626,75.2540650406504 45.63008130081301,75.15243902439025 45.88414634146341,75.05081300813008 46.13821138211382,74.94918699186992 46.392276422764226,74.79674796747967 46.697154471544714,74.64430894308943 46.951219512195124,74.4410569105691 47.25609756097561,74.23780487804878 47.5609756097561,73.98373983739837 47.8150406504065,73.78048780487805 48.06910569105691,73.47560975609755 48.323170731707314,73.119918699187 48.52642276422764,72.8150406504065 48.78048780487805,72.45934959349593 48.93292682926829,72.20528455284553 49.08536585365854,71.95121951219512 49.23780487804878,71.7479674796748 49.28861788617886,71.59552845528455 49.33943089430894,71.39227642276423 49.390243902439025,71.23983739837398 49.390243902439025,71.03658536585365 49.390243902439025,70.8841463414634 49.390243902439025,70.78252032520325" fill="none" stroke="black" stroke-width="0.6"></polyline><polyline points="49.390243902439025,70.78252032520325 49.33943089430894,70.630081300813 49.28861788617886,70.52845528455285 49.1869918699187,70.47764227642276 49.136178861788615,70.42682926829268 49.03455284552845,70.3760162601626 48.93292682926829,70.3760162601626 48.83130081300813,70.3760162601626 48.729674796747965,70.3760162601626 48.6280487804878,70.42682926829268 48.47560975609756,70.52845528455285 48.323170731707314,70.68089430894308 48.11991869918699,70.8841463414634 47.96747967479675,71.13821138211382 47.764227642276424,71.39227642276423 47.71341463414634,71.54471544715447 47.61178861788618,71.69715447154472 47.459349593495936,71.95121951219512 47.30691056910569,72.3069105691057 47.15447154471545,72.61178861788618 47.052845528455286,72.91666666666667 46.951219512195124,73.22154471544715 46.951219512195124,73.52642276422765 46.90040650406504,73.78048780487805 46.90040650406504,73.98373983739837 46.951219512195124,74.1869918699187 47.0020325203252,74.33943089430895 47.103658536585364,74.49186991869918 47.25609756097561,74.64430894308943 47.40853658536585,74.7459349593496 47.5609756097561,74.84756097560975 47.764227642276424,74.89837398373983 47.916666666666664,74.94918699186992 48.11991869918699,75 48.3739837398374,75 48.6280487804878,74.94918699186992 48.93292682926829,74.84756097560975 49.23780487804878,74.6951219512195 49.542682926829265,74.54268292682927 49.84756097560975,74.28861788617886 50.203252032520325,74.03455284552845 50.50813008130081,73.78048780487805 50.86382113821138,73.47560975609755 51.27032520325203,73.0691056910569 51.6260162601626,72.71341463414635 51.981707317073166,72.35772357723577 52.33739837398374,71.90040650406505 52.642276422764226,71.54471544715447 52.947154471544714,71.23983739837398 53.201219512195124,70.9349593495935 53.40447154471545,70.73170731707317" fill="none" stroke="black" stroke-width="0.6"></polyline><polyline points="53.40447154471545,70.73170731707317 53.55691056910569,70.52845528455285 53.709349593495936,70.3760162601626 53.8109756097561,70.32520325203252 53.86178861788618,70.27439024390243 53.91260162601626,70.22357723577235 53.91260162601626,70.22357723577235 53.91260162601626,70.22357723577235 53.91260162601626,70.22357723577235 53.91260162601626,70.22357723577235 53.91260162601626,70.27439024390243 53.86178861788618,70.32520325203252 53.86178861788618,70.47764227642276 53.8109756097561,70.68089430894308 53.760162601626014,70.9349593495935 53.709349593495936,71.1890243902439 53.65853658536585,71.49390243902438 53.607723577235774,71.90040650406505 53.50609756097561,72.2560975609756 53.40447154471545,72.71341463414635 53.302845528455286,73.22154471544715 53.201219512195124,73.67886178861788 53.048780487804876,74.08536585365853 52.896341463414636,74.49186991869918 52.74390243902439,74.79674796747967 52.642276422764226,75 52.489837398373986,75.10162601626016 52.38821138211382,75.20325203252033 52.28658536585366,75.20325203252033 52.1849593495935,75.20325203252033 52.083333333333336,75.20325203252033 51.93089430894309,75.20325203252033 51.77845528455284,75.15243902439025 51.6260162601626,75.05081300813008 51.47357723577235,74.94918699186992 51.27032520325203,74.79674796747967 51.11788617886179,74.6951219512195 50.91463414634146,74.59349593495935 50.8130081300813,74.49186991869918 50.71138211382114,74.39024390243902 50.609756097560975,74.33943089430895 50.55894308943089,74.28861788617886 50.50813008130081,74.28861788617886 50.45731707317073,74.23780487804878 50.45731707317073,74.1869918699187 50.40650406504065,74.13617886178862 50.40650406504065,74.08536585365853 50.40650406504065,74.08536585365853 50.40650406504065,74.08536585365853 50.45731707317073,74.08536585365853 50.45731707317073,74.08536585365853" fill="none" stroke="black" stroke-width="0.6"></polyline><polyline points="50.45731707317073,74.08536585365853 50.45731707317073,74.08536585365853 50.50813008130081,74.08536585365853 50.55894308943089,74.08536585365853 50.66056910569105,74.08536585365853 50.762195121951216,74.13617886178862 50.86382113821138,74.1869918699187 51.016260162601625,74.23780487804878 51.21951219512195,74.33943089430895 51.47357723577235,74.39024390243902 51.77845528455284,74.49186991869918 52.083333333333336,74.54268292682927 52.540650406504064,74.59349593495935 52.9979674796748,74.59349593495935 53.50609756097561,74.59349593495935 54.0650406504065,74.4410569105691 54.6239837398374,74.1869918699187 54.8780487804878,74.03455284552845 55.18292682926829,73.83130081300813 55.792682926829265,73.3739837398374 56.046747967479675,73.17073170731707 56.35162601626016,72.91666666666667 56.96138211382114,72.40853658536585 57.52032520325203,71.90040650406505 58.079268292682926,71.39227642276423 58.58739837398374,70.8841463414634 59.09552845528455,70.3760162601626 59.451219512195124,69.96951219512195 59.80691056910569,69.61382113821138 60.0609756097561,69.35975609756098 60.3150406504065,69.20731707317073 60.46747967479675,69.10569105691057 60.61991869918699,69.05487804878048 60.670731707317074,69.05487804878048" fill="none" stroke="black" stroke-width="0.6"></polyline><polyline points="37.14430894308943,95.57926829268293 37.14430894308943,95.57926829268293 37.14430894308943,95.57926829268293 37.14430894308943,95.57926829268293 37.09349593495935,95.57926829268293 37.09349593495935,95.57926829268293 37.09349593495935,95.57926829268293 37.09349593495935,95.57926829268293 37.09349593495935,95.57926829268293 37.09349593495935,95.57926829268293 37.09349593495935,95.57926829268293 37.09349593495935,95.57926829268293 37.14430894308943,95.57926829268293 37.14430894308943,95.57926829268293 37.19512195121951,95.57926829268293 37.24593495934959,95.57926829268293 37.34756097560975,95.57926829268293 37.39837398373984,95.57926829268293 37.5,95.57926829268293 37.65243902439024,95.57926829268293 37.855691056910565,95.57926829268293 38.109756097560975,95.57926829268293 38.36382113821138,95.57926829268293 38.71951219512195,95.52845528455285 39.07520325203252,95.47764227642276 39.48170731707317,95.27439024390243 39.989837398373986,95.02032520325203 40.396341463414636,94.71544715447155 40.853658536585364,94.41056910569105 41.3109756097561,94.0040650406504 41.76829268292683,93.4959349593496 42.27642276422764,92.9369918699187 42.78455284552845,92.3780487804878 43.24186991869919,91.869918699187 43.699186991869915,91.36178861788618 44.105691056910565,90.85365853658536 44.512195121951216,90.34552845528455 44.86788617886179,89.83739837398373 45.22357723577235,89.17682926829268 45.63008130081301,88.46544715447155 45.88414634146341,87.85569105691057 46.08739837398374,87.39837398373983 46.239837398373986,87.09349593495935 46.290650406504064,86.89024390243902 46.34146341463415,86.73780487804878 46.34146341463415,86.63617886178862 46.34146341463415,86.53455284552845 46.290650406504064,86.48373983739837 46.239837398373986,86.4329268292683 46.13821138211382,86.4329268292683 45.985772357723576,86.4329268292683" fill="none" stroke="black" stroke-width="0.6"></polyline><polyline points="45.985772357723576,86.4329268292683 45.78252032520325,86.53455284552845 45.52845528455285,86.6869918699187 45.27439024390244,86.9410569105691 45.02032520325203,87.2459349593496 44.71544715447154,87.60162601626016 44.41056910569105,88.0081300813008 44.105691056910565,88.46544715447155 43.80081300813008,88.97357723577235 43.44512195121951,89.58333333333333 43.140243902439025,90.24390243902438 42.78455284552845,90.90447154471545 42.42886178861789,91.5650406504065 42.17479674796748,92.17479674796748 41.920731707317074,92.73373983739837 41.76829268292683,93.24186991869918 41.666666666666664,93.75 41.5650406504065,94.2581300813008 41.5650406504065,94.5630081300813 41.5650406504065,94.86788617886178 41.61585365853659,95.17276422764228 41.71747967479675,95.42682926829268 41.86991869918699,95.68089430894308 42.1239837398374,95.8841463414634 42.327235772357724,95.98577235772358 42.63211382113821,96.08739837398373 42.9369918699187,96.13821138211382 43.292682926829265,96.1890243902439 43.64837398373984,96.1890243902439 44.0040650406504,96.13821138211382 44.359756097560975,96.03658536585365 44.71544715447154,95.8841463414634 45.12195121951219,95.73170731707317 45.47764227642276,95.52845528455285 45.88414634146341,95.27439024390243 46.290650406504064,95.02032520325203 46.59552845528455,94.76626016260163 46.951219512195124,94.51219512195122 47.30691056910569,94.20731707317073 47.61178861788618,93.90243902439025 47.916666666666664,93.59756097560975 48.22154471544715,93.24186991869918 48.47560975609756,92.98780487804878 48.67886178861789,92.6829268292683 48.88211382113821,92.32723577235772 49.08536585365854,92.07317073170732 49.23780487804878,91.76829268292683 49.33943089430894,91.46341463414635 49.390243902439025,91.26016260162602 49.390243902439025,91.10772357723577 49.4410569105691,90.95528455284553" fill="none" stroke="black" stroke-width="0.6"></polyline><polyline points="49.4410569105691,90.95528455284553 49.4410569105691,90.85365853658536 49.390243902439025,90.80284552845528 49.33943089430894,90.70121951219512 49.23780487804878,90.65040650406503 49.136178861788615,90.65040650406503 49.03455284552845,90.59959349593495 48.93292682926829,90.59959349593495 48.78048780487805,90.59959349593495 48.577235772357724,90.65040650406503 48.42479674796748,90.7520325203252 48.27235772357724,90.90447154471545 48.06910569105691,91.0569105691057 47.86585365853659,91.26016260162602 47.66260162601626,91.51422764227642 47.40853658536585,91.8191056910569 47.20528455284553,92.1239837398374 47.0020325203252,92.42886178861788 46.798780487804876,92.78455284552845 46.646341463414636,93.14024390243902 46.54471544715447,93.4959349593496 46.44308943089431,93.80081300813008 46.392276422764226,94.05487804878048 46.392276422764226,94.3089430894309 46.392276422764226,94.51219512195122 46.44308943089431,94.66463414634146 46.54471544715447,94.8170731707317 46.59552845528455,94.91869918699187 46.84959349593496,95.1219512195122 46.951219512195124,95.17276422764228 47.30691056910569,95.32520325203252 47.5609756097561,95.3760162601626 47.8150406504065,95.3760162601626 48.170731707317074,95.3760162601626 48.47560975609756,95.32520325203252 48.83130081300813,95.17276422764228 49.1869918699187,95.02032520325203 49.542682926829265,94.8170731707317 49.949186991869915,94.5630081300813 50.30487804878049,94.35975609756098 50.66056910569105,94.10569105691057 51.0670731707317,93.85162601626016 51.47357723577235,93.54674796747967 51.829268292682926,93.1910569105691 52.28658536585366,92.83536585365853 52.642276422764226,92.42886178861788 52.9979674796748,92.07317073170732 53.353658536585364,91.66666666666667 53.65853658536585,91.3109756097561 53.91260162601626,91.0060975609756 54.11585365853659,90.65040650406503" fill="none" stroke="black" stroke-width="0.6"></polyline><polyline points="54.11585365853659,90.65040650406503 54.31910569105691,90.34552845528455 54.420731707317074,90.14227642276423 54.52235772357724,89.98983739837398 54.573170731707314,89.9390243902439 54.573170731707314,89.9390243902439 54.573170731707314,89.9390243902439 54.573170731707314,89.9390243902439 54.573170731707314,89.9390243902439 54.573170731707314,89.98983739837398 54.573170731707314,90.14227642276423 54.52235772357724,90.34552845528455 54.420731707317074,90.65040650406503 54.36991869918699,90.95528455284553 54.26829268292683,91.3109756097561 54.166666666666664,91.76829268292683 54.11585365853659,92.17479674796748 54.014227642276424,92.6321138211382 53.91260162601626,93.1910569105691 53.86178861788618,93.69918699186992 53.760162601626014,94.15650406504065 53.607723577235774,94.5630081300813 53.50609756097561,94.86788617886178 53.353658536585364,95.1219512195122 53.201219512195124,95.32520325203252 52.9979674796748,95.42682926829268 52.84552845528455,95.47764227642276 52.69308943089431,95.57926829268293 52.540650406504064,95.57926829268293 52.33739837398374,95.57926829268293 52.13414634146341,95.52845528455285 51.93089430894309,95.42682926829268 51.67682926829268,95.27439024390243 51.422764227642276,95.0711382113821 51.32113821138211,94.96951219512195 51.168699186991866,94.8170731707317 50.96544715447154,94.66463414634146 50.762195121951216,94.46138211382113 50.609756097560975,94.3089430894309 50.50813008130081,94.2581300813008 50.40650406504065,94.20731707317073 50.40650406504065,94.15650406504065 50.40650406504065,94.15650406504065 50.355691056910565,94.15650406504065 50.355691056910565,94.15650406504065 50.355691056910565,94.15650406504065 50.40650406504065,94.15650406504065 50.40650406504065,94.20731707317073 50.45731707317073,94.20731707317073 50.50813008130081,94.2581300813008 50.609756097560975,94.3089430894309" fill="none" stroke="black" stroke-width="0.6"></polyline><polyline points="50.609756097560975,94.3089430894309 50.762195121951216,94.41056910569105 50.91463414634146,94.51219512195122 51.0670731707317,94.61382113821138 51.32113821138211,94.71544715447155 51.575203252032516,94.8170731707317 51.93089430894309,94.86788617886178 52.33739837398374,94.96951219512195 52.74390243902439,94.96951219512195 53.201219512195124,94.96951219512195 53.760162601626014,94.86788617886178 54.26829268292683,94.66463414634146 54.77642276422764,94.41056910569105 55.33536585365854,94.05487804878048 55.89430894308943,93.64837398373983 56.40243902439024,93.24186991869918 57.012195121951216,92.6829268292683 57.46951219512195,92.22560975609755 57.97764227642276,91.71747967479675 58.536585365853654,91.15853658536585 58.739837398373986,90.90447154471545 58.94308943089431,90.65040650406503 59.298780487804876,90.14227642276423 59.65447154471545,89.6341463414634 59.90853658536585,89.27845528455285 60.16260162601626,89.02439024390243 60.416666666666664,88.77032520325203 60.56910569105691,88.61788617886178" fill="none" stroke="black" stroke-width="0.6"></polyline></svg>