<svg height="100" width="100" preserveAspectRatio="xMidYMid meet"><polyline points="49.84756097560975,50.05081300813008 49.84756097560975,50.05081300813008 49.84756097560975,50.05081300813008 49.84756097560975,50.05081300813008 49.84756097560975,50.05081300813008 49.84756097560975,50.05081300813008 49.84756097560975,50.05081300813008 49.84756097560975,50.05081300813008 49.89837398373984,50.10162601626016 49.89837398373984,50.10162601626016 49.89837398373984,50.10162601626016 49.89837398373984,50.15243902439024 49.89837398373984,50.15243902439024 49.89837398373984,50.203252032520325 49.949186991869915,50.203252032520325 49.949186991869915,50.203252032520325 49.949186991869915,50.203252032520325 49.949186991869915,50.2540650406504 50,50.2540650406504 50,50.2540650406504 50.05081300813008,50.203252032520325 50.05081300813008,50.15243902439024 50.10162601626016,50.05081300813008 50.15243902439024,49.949186991869915 50.15243902439024,49.84756097560975 50.203252032520325,49.74593495934959 50.203252032520325,49.69512195121951 50.203252032520325,49.49186991869919 50.203252032520325,49.28861788617886 50.2540650406504,49.136178861788615 50.2540650406504,48.93292682926829 50.2540650406504,48.78048780487805 50.203252032520325,48.6280487804878 50.15243902439024,48.47560975609756 50.10162601626016,48.323170731707314 50.05081300813008,48.22154471544715 49.949186991869915,48.06910569105691 49.84756097560975,47.96747967479675 49.74593495934959,47.86585365853659 49.64430894308943,47.8150406504065 49.542682926829265,47.764227642276424 49.49186991869919,47.71341463414634 49.33943089430894,47.66260162601626 49.23780487804878,47.66260162601626 49.136178861788615,47.61178861788618 49.03455284552845,47.61178861788618 48.983739837398375,47.61178861788618 48.93292682926829,47.61178861788618 48.83130081300813,47.61178861788618 48.78048780487805,47.61178861788618 48.67886178861789,47.61178861788618" fill="none" stroke="black" stroke-width="0.6"></polyline><polyline points="48.67886178861789,47.61178861788618 48.6280487804878,47.66260162601626 48.577235772357724,47.66260162601626 48.47560975609756,47.71341463414634 48.42479674796748,47.764227642276424 48.3739837398374,47.86585365853659 48.27235772357724,47.916666666666664 48.22154471544715,48.01829268292683 48.170731707317074,48.11991869918699 48.11991869918699,48.22154471544715 48.01829268292683,48.323170731707314 47.96747967479675,48.47560975609756 47.916666666666664,48.6280487804878 47.86585365853659,48.78048780487805 47.764227642276424,48.93292682926829 47.71341463414634,49.08536585365854 47.61178861788618,49.1869918699187 47.5609756097561,49.33943089430894 47.459349593495936,49.49186991869919 47.40853658536585,49.59349593495935 47.357723577235774,49.74593495934959 47.25609756097561,49.89837398373984 47.25609756097561,50 47.20528455284553,50.05081300813008 47.15447154471545,50.2540650406504 47.052845528455286,50.40650406504065 47.0020325203252,50.50813008130081 46.951219512195124,50.66056910569105 46.90040650406504,50.762195121951216 46.84959349593496,50.91463414634146 46.798780487804876,51.016260162601625 46.7479674796748,51.168699186991866 46.697154471544714,51.27032520325203 46.646341463414636,51.422764227642276 46.646341463414636,51.575203252032516 46.59552845528455,51.67682926829268 46.59552845528455,51.829268292682926 46.54471544715447,51.93089430894309 46.54471544715447,52.083333333333336 46.54471544715447,52.1849593495935 46.54471544715447,52.33739837398374 46.54471544715447,52.489837398373986 46.54471544715447,52.59146341463415 46.54471544715447,52.642276422764226 46.54471544715447,52.896341463414636 46.59552845528455,53.048780487804876 46.59552845528455,53.201219512195124 46.646341463414636,53.353658536585364 46.697154471544714,53.50609756097561 46.7479674796748,53.65853658536585 46.798780487804876,53.760162601626014" fill="none" stroke="black" stroke-width="0.6"></polyline><polyline points="46.798780487804876,53.760162601626014 46.84959349593496,53.91260162601626 46.951219512195124,54.014227642276424 46.951219512195124,54.0650406504065 47.0020325203252,54.11585365853659 47.103658536585364,54.166666666666664 47.20528455284553,54.26829268292683 47.30691056910569,54.36991869918699 47.40853658536585,54.420731707317074 47.510162601626014,54.52235772357724 47.61178861788618,54.6239837398374 47.71341463414634,54.67479674796748 47.86585365853659,54.72560975609756 47.96747967479675,54.827235772357724 48.06910569105691,54.8780487804878 48.170731707317074,54.92886178861789 48.27235772357724,54.979674796747965 48.3739837398374,55.03048780487805 48.52642276422764,55.03048780487805 48.6280487804878,55.08130081300813 48.729674796747965,55.13211382113821 48.83130081300813,55.18292682926829 48.983739837398375,55.18292682926829 49.08536585365854,55.233739837398375 49.1869918699187,55.233739837398375 49.33943089430894,55.28455284552845 49.4410569105691,55.28455284552845 49.542682926829265,55.33536585365854 49.69512195121951,55.33536585365854 49.796747967479675,55.33536585365854 49.949186991869915,55.33536585365854 50.05081300813008,55.386178861788615 50.203252032520325,55.386178861788615 50.30487804878049,55.386178861788615 50.45731707317073,55.386178861788615 50.55894308943089,55.386178861788615 50.66056910569105,55.386178861788615 50.8130081300813,55.386178861788615 50.91463414634146,55.386178861788615 51.016260162601625,55.386178861788615 51.168699186991866,55.33536585365854 51.32113821138211,55.33536585365854 51.47357723577235,55.33536585365854 51.6260162601626,55.33536585365854 51.72764227642276,55.28455284552845 51.880081300813,55.28455284552845 52.083333333333336,55.233739837398375 52.1849593495935,55.18292682926829 52.33739837398374,55.18292682926829 52.489837398373986,55.13211382113821 52.642276422764226,55.08130081300813" fill="none" stroke="black" stroke-width="0.6"></polyline><polyline points="52.642276422764226,55.08130081300813 52.79471544715447,55.03048780487805 52.947154471544714,54.979674796747965 53.048780487804876,54.979674796747965 53.201219512195124,54.92886178861789 53.302845528455286,54.8780487804878 53.40447154471545,54.77642276422764 53.55691056910569,54.72560975609756 53.65853658536585,54.67479674796748 53.709349593495936,54.6239837398374 53.8109756097561,54.573170731707314 53.91260162601626,54.52235772357724 54.014227642276424,54.47154471544715 54.11585365853659,54.36991869918699 54.21747967479675,54.26829268292683 54.26829268292683,54.21747967479675 54.420731707317074,54.11585365853659 54.47154471544715,54.014227642276424 54.6239837398374,53.86178861788618 54.67479674796748,53.8109756097561 54.72560975609756,53.709349593495936 54.8780487804878,53.607723577235774 54.979674796747965,53.45528455284553 55.13211382113821,53.302845528455286 55.28455284552845,53.15040650406504 55.33536585365854,53.09959349593496 55.386178861788615,53.048780487804876 55.48780487804878,52.84552845528455 55.58943089430894,52.74390243902439 55.6910569105691,52.59146341463415 55.74186991869919,52.4390243902439 55.792682926829265,52.28658536585366 55.84349593495935,52.13414634146341 55.94512195121951,51.981707317073166 55.99593495934959,51.829268292682926 56.046747967479675,51.67682926829268 56.046747967479675,51.6260162601626 56.09756097560975,51.52439024390244 56.14837398373984,51.37195121951219 56.199186991869915,51.21951219512195 56.25,51.0670731707317 56.30081300813008,50.91463414634146 56.35162601626016,50.8130081300813 56.35162601626016,50.71138211382114 56.40243902439024,50.55894308943089 56.453252032520325,50.40650406504065 56.5040650406504,50.2540650406504 56.55487804878049,50.10162601626016 56.55487804878049,50 56.605691056910565,49.89837398373984 56.605691056910565,49.74593495934959" fill="none" stroke="black" stroke-width="0.6"></polyline><polyline points="56.605691056910565,49.74593495934959 56.605691056910565,49.64430894308943 56.65650406504065,49.49186991869919 56.65650406504065,49.390243902439025 56.65650406504065,49.23780487804878 56.65650406504065,49.136178861788615 56.65650406504065,48.983739837398375 56.65650406504065,48.88211382113821 56.65650406504065,48.729674796747965 56.70731707317073,48.6280487804878 56.70731707317073,48.52642276422764 56.70731707317073,48.42479674796748 56.70731707317073,48.27235772357724 56.70731707317073,48.22154471544715 56.70731707317073,48.06910569105691 56.70731707317073,47.96747967479675 56.70731707317073,47.86585365853659 56.70731707317073,47.764227642276424 56.70731707317073,47.61178861788618 56.70731707317073,47.459349593495936 56.65650406504065,47.357723577235774 56.65650406504065,47.20528455284553 56.605691056910565,47.0020325203252 56.605691056910565,46.7479674796748 56.55487804878049,46.49390243902439 56.5040650406504,46.290650406504064 56.5040650406504,46.08739837398374 56.453252032520325,45.88414634146341 56.40243902439024,45.78252032520325 56.35162601626016,45.63008130081301 56.30081300813008,45.52845528455285 56.25,45.42682926829268 56.199186991869915,45.3760162601626 56.09756097560975,45.27439024390244 56.046747967479675,45.22357723577235 55.99593495934959,45.12195121951219 55.94512195121951,45.02032520325203 55.84349593495935,44.96951219512195 55.84349593495935,44.918699186991866 55.6910569105691,44.8170731707317 55.640243902439025,44.71544715447154 55.58943089430894,44.66463414634146 55.48780487804878,44.61382113821138 55.4369918699187,44.5630081300813 55.386178861788615,44.512195121951216 55.28455284552845,44.46138211382114 55.233739837398375,44.41056910569105 55.13211382113821,44.359756097560975 55.08130081300813,44.30894308943089 55.03048780487805,44.25813008130081 54.92886178861789,44.15650406504065" fill="none" stroke="black" stroke-width="0.6"></polyline><polyline points="54.92886178861789,44.15650406504065 54.8780487804878,44.105691056910565 54.77642276422764,44.105691056910565 54.72560975609756,44.0040650406504 54.6239837398374,43.953252032520325 54.573170731707314,43.90243902439024 54.47154471544715,43.85162601626016 54.36991869918699,43.80081300813008 54.36991869918699,43.75 54.31910569105691,43.75 54.166666666666664,43.699186991869915 54.0650406504065,43.59756097560975 53.96341463414634,43.546747967479675 53.86178861788618,43.49593495934959 53.760162601626014,43.39430894308943 53.65853658536585,43.34349593495935 53.50609756097561,43.292682926829265 53.40447154471545,43.1910569105691 53.302845528455286,43.140243902439025 53.2520325203252,43.08943089430894 53.201219512195124,43.08943089430894 53.048780487804876,43.03861788617886 52.947154471544714,42.9369918699187 52.84552845528455,42.886178861788615 52.69308943089431,42.78455284552845 52.540650406504064,42.733739837398375 52.38821138211382,42.63211382113821 52.1849593495935,42.53048780487805 51.981707317073166,42.479674796747965 51.829268292682926,42.3780487804878 51.6260162601626,42.327235772357724 51.422764227642276,42.22560975609756 51.27032520325203,42.17479674796748 51.0670731707317,42.073170731707314 50.91463414634146,42.02235772357724 50.71138211382114,41.97154471544715 50.55894308943089,41.920731707317074 50.40650406504065,41.81910569105691 50.203252032520325,41.76829268292683 50.05081300813008,41.71747967479675 49.89837398373984,41.666666666666664 49.69512195121951,41.61585365853659 49.49186991869919,41.5650406504065 49.33943089430894,41.514227642276424 49.136178861788615,41.514227642276424 48.983739837398375,41.46341463414634 48.88211382113821,41.41260162601626 48.729674796747965,41.41260162601626 48.577235772357724,41.36178861788618 48.47560975609756,41.3109756097561 48.323170731707314,41.3109756097561" fill="none" stroke="black" stroke-width="0.6"></polyline><polyline points="48.323170731707314,41.3109756097561 48.22154471544715,41.3109756097561 48.06910569105691,41.260162601626014 48.01829268292683,41.260162601626014 47.916666666666664,41.260162601626014 47.764227642276424,41.260162601626014 47.66260162601626,41.260162601626014 47.5609756097561,41.260162601626014 47.459349593495936,41.260162601626014 47.40853658536585,41.260162601626014 47.357723577235774,41.260162601626014 47.30691056910569,41.260162601626014 47.20528455284553,41.260162601626014 47.15447154471545,41.260162601626014 47.052845528455286,41.260162601626014 46.951219512195124,41.260162601626014 46.84959349593496,41.260162601626014 46.7479674796748,41.3109756097561 46.646341463414636,41.36178861788618 46.54471544715447,41.36178861788618 46.44308943089431,41.41260162601626 46.34146341463415,41.46341463414634 46.239837398373986,41.514227642276424 46.13821138211382,41.5650406504065 45.985772357723576,41.666666666666664 45.88414634146341,41.71747967479675 45.78252032520325,41.81910569105691 45.63008130081301,41.920731707317074 45.52845528455285,41.97154471544715 45.3760162601626,42.1239837398374 45.172764227642276,42.22560975609756 45.12195121951219,42.27642276422764 45.02032520325203,42.327235772357724 44.86788617886179,42.479674796747965 44.71544715447154,42.58130081300813 44.5630081300813,42.68292682926829 44.46138211382114,42.733739837398375 44.359756097560975,42.78455284552845 44.30894308943089,42.83536585365854 44.15650406504065,42.9369918699187 44.05487804878049,43.03861788617886 43.90243902439024,43.140243902439025 43.80081300813008,43.24186991869919 43.64837398373984,43.39430894308943 43.44512195121951,43.546747967479675 43.34349593495935,43.64837398373984 43.1910569105691,43.80081300813008 42.98780487804878,44.05487804878049 42.68292682926829,44.30894308943089 42.42886178861789,44.5630081300813 42.17479674796748,44.8170731707317" fill="none" stroke="black" stroke-width="0.6"></polyline><polyline points="42.17479674796748,44.8170731707317 41.920731707317074,45.02032520325203 41.666666666666664,45.172764227642276 41.514227642276424,45.325203252032516 41.36178861788618,45.3760162601626 41.260162601626014,45.47764227642276 41.15853658536585,45.52845528455285 41.107723577235774,45.579268292682926 41.05691056910569,45.68089430894309 41.00609756097561,45.73170731707317 40.95528455284553,45.78252032520325 40.95528455284553,45.833333333333336 40.90447154471545,45.88414634146341 40.90447154471545,45.9349593495935 40.90447154471545,45.985772357723576 40.90447154471545,46.08739837398374 40.853658536585364,46.1890243902439 40.853658536585364,46.290650406504064 40.802845528455286,46.44308943089431 40.802845528455286,46.59552845528455 40.7520325203252,46.7479674796748 40.701219512195124,46.951219512195124 40.65040650406504,47.20528455284553 40.548780487804876,47.459349593495936 40.4979674796748,47.71341463414634 40.396341463414636,47.916666666666664 40.34552845528455,48.170731707317074 40.24390243902439,48.3739837398374 40.19308943089431,48.577235772357724 40.142276422764226,48.78048780487805 40.142276422764226,48.93292682926829 40.09146341463415,49.08536585365854 40.09146341463415,49.28861788617886 40.040650406504064,49.4410569105691 40.040650406504064,49.64430894308943 40.040650406504064,49.796747967479675 39.989837398373986,50 39.989837398373986,50.203252032520325 39.989837398373986,50.40650406504065 39.989837398373986,50.609756097560975 39.9390243902439,50.86382113821138 39.9390243902439,51.0670731707317 39.9390243902439,51.27032520325203 39.9390243902439,51.422764227642276 39.9390243902439,51.575203252032516 39.9390243902439,51.67682926829268 39.9390243902439,51.77845528455284 39.9390243902439,51.93089430894309 39.9390243902439,51.981707317073166 39.9390243902439,52.083333333333336 39.9390243902439,52.1849593495935" fill="none" stroke="black" stroke-width="0.6"></polyline><polyline points="39.9390243902439,52.1849593495935 39.989837398373986,52.33739837398374 40.040650406504064,52.489837398373986 40.040650406504064,52.59146341463415 40.09146341463415,52.74390243902439 40.142276422764226,52.84552845528455 40.142276422764226,52.9979674796748 40.19308943089431,53.09959349593496 40.19308943089431,53.201219512195124 40.24390243902439,53.302845528455286 40.24390243902439,53.40447154471545 40.29471544715447,53.50609756097561 40.29471544715447,53.607723577235774 40.34552845528455,53.709349593495936 40.34552845528455,53.760162601626014 40.396341463414636,53.86178861788618 40.396341463414636,54.014227642276424 40.447154471544714,54.11585365853659 40.4979674796748,54.26829268292683 40.548780487804876,54.420731707317074 40.59959349593496,54.6239837398374 40.701219512195124,54.92886178861789 40.802845528455286,55.233739837398375 40.853658536585364,55.48780487804878 40.90447154471545,55.640243902439025 40.95528455284553,55.792682926829265 41.00609756097561,56.046747967479675 41.107723577235774,56.30081300813008 41.15853658536585,56.5040650406504 41.260162601626014,56.75813008130081 41.36178861788618,56.91056910569105 41.41260162601626,57.11382113821138 41.5650406504065,57.3170731707317 41.666666666666664,57.52032520325203 41.76829268292683,57.672764227642276 41.920731707317074,57.8760162601626 42.073170731707314,57.97764227642276 42.17479674796748,58.079268292682926 42.327235772357724,58.130081300813 42.3780487804878,58.231707317073166 42.479674796747965,58.28252032520325 42.58130081300813,58.33333333333333 42.63211382113821,58.43495934959349 42.733739837398375,58.485772357723576 42.78455284552845,58.536585365853654 42.83536585365854,58.58739837398374 42.9369918699187,58.6890243902439 42.98780487804878,58.739837398373986 43.08943089430894,58.84146341463415 43.1910569105691,58.892276422764226 43.1910569105691,58.94308943089431" fill="none" stroke="black" stroke-width="0.6"></polyline><polyline points="43.1910569105691,58.94308943089431 43.24186991869919,58.99390243902439 43.34349593495935,59.04471544715447 43.39430894308943,59.146341463414636 43.49593495934959,59.146341463414636 43.546747967479675,59.197154471544714 43.64837398373984,59.298780487804876 43.699186991869915,59.34959349593496 43.80081300813008,59.40040650406504 43.85162601626016,59.451219512195124 43.953252032520325,59.5020325203252 44.0040650406504,59.552845528455286 44.05487804878049,59.65447154471545 44.15650406504065,59.65447154471545 44.20731707317073,59.75609756097561 44.30894308943089,59.80691056910569 44.359756097560975,59.857723577235774 44.46138211382114,59.90853658536585 44.5630081300813,59.959349593495936 44.66463414634146,60.010162601626014 44.766260162601625,60.0609756097561 44.86788617886179,60.16260162601626 45.02032520325203,60.21341463414634 45.12195121951219,60.3150406504065 45.27439024390244,60.36585365853659 45.42682926829268,60.46747967479675 45.52845528455285,60.51829268292683 45.68089430894309,60.56910569105691 45.833333333333336,60.61991869918699 45.9349593495935,60.670731707317074 46.08739837398374,60.77235772357724 46.1890243902439,60.823170731707314 46.34146341463415,60.8739837398374 46.49390243902439,60.92479674796748 46.59552845528455,60.97560975609756 46.7479674796748,61.02642276422764 46.90040650406504,61.077235772357724 47.0020325203252,61.1280487804878 47.15447154471545,61.17886178861789 47.30691056910569,61.229674796747965 47.40853658536585,61.28048780487805 47.510162601626014,61.33130081300813 47.5609756097561,61.33130081300813 47.71341463414634,61.38211382113821 47.8150406504065,61.43292682926829 47.916666666666664,61.483739837398375 48.06910569105691,61.53455284552845 48.170731707317074,61.58536585365854 48.323170731707314,61.58536585365854 48.47560975609756,61.636178861788615 48.577235772357724,61.6869918699187" fill="none" stroke="black" stroke-width="0.6"></polyline><polyline points="48.577235772357724,61.6869918699187 48.729674796747965,61.6869918699187 48.88211382113821,61.73780487804878 48.983739837398375,61.78861788617886 49.136178861788615,61.78861788617886 49.28861788617886,61.83943089430894 49.4410569105691,61.83943089430894 49.59349593495935,61.890243902439025 49.74593495934959,61.890243902439025 49.84756097560975,61.890243902439025 50,61.890243902439025 50.15243902439024,61.890243902439025 50.30487804878049,61.890243902439025 50.45731707317073,61.890243902439025 50.55894308943089,61.890243902439025 50.66056910569105,61.890243902439025 50.8130081300813,61.890243902439025 50.96544715447154,61.890243902439025 51.11788617886179,61.890243902439025 51.27032520325203,61.890243902439025 51.422764227642276,61.890243902439025 51.52439024390244,61.890243902439025 51.67682926829268,61.83943089430894 51.829268292682926,61.83943089430894 51.981707317073166,61.78861788617886 52.13414634146341,61.78861788617886 52.28658536585366,61.73780487804878 52.4390243902439,61.6869918699187 52.642276422764226,61.636178861788615 52.84552845528455,61.58536585365854 53.048780487804876,61.53455284552845 53.2520325203252,61.483739837398375 53.40447154471545,61.43292682926829 53.607723577235774,61.38211382113821 53.760162601626014,61.33130081300813 53.91260162601626,61.28048780487805 54.0650406504065,61.229674796747965 54.11585365853659,61.229674796747965 54.166666666666664,61.17886178861789 54.31910569105691,61.17886178861789 54.47154471544715,61.1280487804878 54.573170731707314,61.077235772357724 54.72560975609756,61.02642276422764 54.827235772357724,61.02642276422764 54.979674796747965,60.97560975609756 55.13211382113821,60.92479674796748 55.233739837398375,60.8739837398374 55.386178861788615,60.823170731707314 55.48780487804878,60.823170731707314 55.640243902439025,60.77235772357724 55.792682926829265,60.72154471544715" fill="none" stroke="black" stroke-width="0.6"></polyline><polyline points="55.792682926829265,60.72154471544715 55.89430894308943,60.670731707317074 56.046747967479675,60.670731707317074 56.199186991869915,60.61991869918699 56.35162601626016,60.56910569105691 56.5040650406504,60.51829268292683 56.65650406504065,60.416666666666664 56.75813008130081,60.36585365853659 56.91056910569105,60.3150406504065 57.0630081300813,60.264227642276424 57.21544715447154,60.21341463414634 57.36788617886179,60.16260162601626 57.52032520325203,60.0609756097561 57.57113821138211,60.0609756097561 57.672764227642276,60.010162601626014 57.825203252032516,59.959349593495936 57.97764227642276,59.857723577235774 58.130081300813,59.75609756097561 58.28252032520325,59.70528455284553 58.43495934959349,59.603658536585364 58.536585365853654,59.5020325203252 58.6890243902439,59.40040650406504 58.84146341463415,59.298780487804876 58.94308943089431,59.197154471544714 59.09552845528455,59.09552845528455 59.2479674796748,58.99390243902439 59.40040650406504,58.892276422764226 59.5020325203252,58.790650406504064 59.65447154471545,58.6890243902439 59.80691056910569,58.536585365853654 59.959349593495936,58.43495934959349 60.0609756097561,58.28252032520325 60.21341463414634,58.18089430894309 60.3150406504065,58.02845528455284 60.46747967479675,57.8760162601626 60.56910569105691,57.672764227642276 60.72154471544715,57.52032520325203 60.823170731707314,57.3170731707317 60.97560975609756,57.16463414634146 61.02642276422764,57.0630081300813 61.1280487804878,56.96138211382114 61.229674796747965,56.75813008130081 61.38211382113821,56.55487804878049 61.53455284552845,56.35162601626016 61.636178861788615,56.14837398373984 61.78861788617886,55.94512195121951 61.9410569105691,55.74186991869919 62.042682926829265,55.53861788617886 62.14430894308943,55.33536585365854 62.296747967479675,55.13211382113821 62.39837398373984,54.92886178861789" fill="none" stroke="black" stroke-width="0.6"></polyline><polyline points="62.39837398373984,54.92886178861789 62.5,54.72560975609756 62.60162601626016,54.52235772357724 62.703252032520325,54.31910569105691 62.80487804878049,54.11585365853659 62.90650406504065,53.86178861788618 63.00813008130081,53.65853658536585 63.05894308943089,53.45528455284553 63.16056910569105,53.2520325203252 63.21138211382114,53.09959349593496 63.21138211382114,52.9979674796748 63.262195121951216,52.896341463414636 63.3130081300813,52.69308943089431 63.36382113821138,52.540650406504064 63.41463414634146,52.33739837398374 63.46544715447154,52.1849593495935 63.516260162601625,51.981707317073166 63.5670731707317,51.77845528455284 63.5670731707317,51.575203252032516 63.61788617886179,51.37195121951219 63.61788617886179,51.168699186991866 63.668699186991866,51.016260162601625 63.668699186991866,50.8130081300813 63.668699186991866,50.66056910569105 63.668699186991866,50.45731707317073 63.668699186991866,50.2540650406504 63.668699186991866,50.05081300813008 63.668699186991866,49.796747967479675 63.71951219512195,49.59349593495935 63.71951219512195,49.390243902439025 63.71951219512195,49.1869918699187 63.71951219512195,48.983739837398375 63.71951219512195,48.78048780487805 63.71951219512195,48.577235772357724 63.71951219512195,48.323170731707314 63.71951219512195,48.11991869918699 63.668699186991866,47.86585365853659 63.668699186991866,47.66260162601626 63.61788617886179,47.459349593495936 63.61788617886179,47.25609756097561 63.5670731707317,47.052845528455286 63.5670731707317,46.84959349593496 63.516260162601625,46.59552845528455 63.46544715447154,46.34146341463415 63.46544715447154,46.08739837398374 63.41463414634146,45.88414634146341 63.36382113821138,45.73170731707317 63.36382113821138,45.579268292682926 63.3130081300813,45.3760162601626 63.262195121951216,45.22357723577235 63.21138211382114,45.07113821138211" fill="none" stroke="black" stroke-width="0.6"></polyline><polyline points="63.21138211382114,45.07113821138211 63.16056910569105,44.918699186991866 63.109756097560975,44.766260162601625 63.05894308943089,44.61382113821138 63.05894308943089,44.46138211382114 63.00813008130081,44.30894308943089 62.95731707317073,44.15650406504065 62.90650406504065,44.05487804878049 62.855691056910565,43.90243902439024 62.80487804878049,43.75 62.7540650406504,43.59756097560975 62.703252032520325,43.44512195121951 62.65243902439024,43.292682926829265 62.60162601626016,43.140243902439025 62.55081300813008,42.98780487804878 62.5,42.83536585365854 62.449186991869915,42.68292682926829 62.39837398373984,42.58130081300813 62.34756097560975,42.42886178861789 62.296747967479675,42.327235772357724 62.19512195121951,42.17479674796748 62.14430894308943,42.02235772357724 62.042682926829265,41.86991869918699 61.99186991869919,41.71747967479675 61.890243902439025,41.5650406504065 61.83943089430894,41.41260162601626 61.78861788617886,41.260162601626014 61.6869918699187,41.107723577235774 61.636178861788615,41.00609756097561 61.53455284552845,40.853658536585364 61.483739837398375,40.701219512195124 61.38211382113821,40.59959349593496 61.33130081300813,40.4979674796748 61.229674796747965,40.34552845528455 61.1280487804878,40.24390243902439 61.077235772357724,40.142276422764226 60.97560975609756,40.040650406504064 60.8739837398374,39.9390243902439 60.823170731707314,39.83739837398374 60.72154471544715,39.735772357723576 60.61991869918699,39.63414634146341 60.56910569105691,39.583333333333336 60.46747967479675,39.48170731707317 60.36585365853659,39.38008130081301 60.3150406504065,39.329268292682926 60.21341463414634,39.22764227642276 60.11178861788618,39.1260162601626 59.959349593495936,39.02439024390244 59.857723577235774,38.922764227642276 59.75609756097561,38.82113821138211 59.603658536585364,38.71951219512195" fill="none" stroke="black" stroke-width="0.6"></polyline><polyline points="59.603658536585364,38.71951219512195 59.5020325203252,38.668699186991866 59.451219512195124,38.61788617886179 59.34959349593496,38.5670731707317 59.197154471544714,38.46544715447154 59.04471544715447,38.41463414634146 58.94308943089431,38.3130081300813 58.790650406504064,38.262195121951216 58.63821138211382,38.16056910569105 58.485772357723576,38.109756097560975 58.33333333333333,38.00813008130081 58.18089430894309,37.95731707317073 58.02845528455284,37.855691056910565 57.8760162601626,37.80487804878049 57.72357723577235,37.7540650406504 57.57113821138211,37.65243902439024 57.418699186991866,37.60162601626016 57.21544715447154,37.5 57.0630081300813,37.449186991869915 56.859756097560975,37.39837398373984 56.65650406504065,37.296747967479675 56.5040650406504,37.24593495934959 56.30081300813008,37.19512195121951 56.09756097560975,37.14430894308943 55.89430894308943,37.09349593495935 55.640243902439025,36.99186991869919 55.4369918699187,36.9410569105691 55.233739837398375,36.890243902439025 55.03048780487805,36.83943089430894 54.827235772357724,36.78861788617886 54.6239837398374,36.73780487804878 54.420731707317074,36.636178861788615 54.31910569105691,36.636178861788615 54.21747967479675,36.58536585365854 54.014227642276424,36.53455284552845 53.760162601626014,36.483739837398375 53.55691056910569,36.43292682926829 53.353658536585364,36.38211382113821 53.09959349593496,36.33130081300813 52.896341463414636,36.28048780487805 52.69308943089431,36.28048780487805 52.489837398373986,36.229674796747965 52.28658536585366,36.17886178861789 52.13414634146341,36.17886178861789 51.93089430894309,36.1280487804878 51.72764227642276,36.077235772357724 51.52439024390244,36.077235772357724 51.32113821138211,36.02642276422764 51.11788617886179,35.97560975609756 50.91463414634146,35.97560975609756 50.71138211382114,35.92479674796748" fill="none" stroke="black" stroke-width="0.6"></polyline><polyline points="50.71138211382114,35.92479674796748 50.50813008130081,35.92479674796748 50.30487804878049,35.8739837398374 50.10162601626016,35.8739837398374 49.949186991869915,35.823170731707314 49.74593495934959,35.823170731707314 49.542682926829265,35.823170731707314 49.390243902439025,35.77235772357724 49.1869918699187,35.77235772357724 48.983739837398375,35.77235772357724 48.83130081300813,35.72154471544715 48.577235772357724,35.72154471544715 48.323170731707314,35.72154471544715 48.06910569105691,35.72154471544715 47.764227642276424,35.72154471544715 47.510162601626014,35.72154471544715 47.30691056910569,35.72154471544715 47.103658536585364,35.72154471544715 46.798780487804876,35.72154471544715 46.59552845528455,35.77235772357724 46.34146341463415,35.77235772357724 46.13821138211382,35.77235772357724 45.9349593495935,35.77235772357724 45.73170731707317,35.77235772357724 45.52845528455285,35.823170731707314 45.325203252032516,35.823170731707314 45.12195121951219,35.823170731707314 44.918699186991866,35.8739837398374 44.71544715447154,35.8739837398374 44.512195121951216,35.92479674796748 44.30894308943089,35.92479674796748 44.105691056910565,35.97560975609756 43.953252032520325,35.97560975609756 43.75,36.02642276422764 43.59756097560975,36.02642276422764 43.39430894308943,36.077235772357724 43.24186991869919,36.1280487804878 43.03861788617886,36.17886178861789 42.886178861788615,36.17886178861789 42.733739837398375,36.229674796747965 42.53048780487805,36.28048780487805 42.3780487804878,36.38211382113821 42.22560975609756,36.43292682926829 42.02235772357724,36.483739837398375 41.86991869918699,36.58536585365854 41.71747967479675,36.636178861788615 41.514227642276424,36.73780487804878 41.36178861788618,36.83943089430894 41.15853658536585,36.9410569105691 40.95528455284553,37.042682926829265 40.7520325203252,37.19512195121951" fill="none" stroke="black" stroke-width="0.6"></polyline><polyline points="40.7520325203252,37.19512195121951 40.447154471544714,37.39837398373984 40.09146341463415,37.703252032520325 39.6849593495935,38.00813008130081 39.329268292682926,38.262195121951216 38.922764227642276,38.516260162601625 38.516260162601625,38.77032520325203 38.109756097560975,39.02439024390244 37.7540650406504,39.22764227642276 37.34756097560975,39.48170731707317 37.09349593495935,39.63414634146341 36.83943089430894,39.78658536585366 36.58536585365854,39.9390243902439 36.483739837398375,39.989837398373986 36.38211382113821,40.040650406504064 36.229674796747965,40.142276422764226 36.02642276422764,40.24390243902439 35.8739837398374,40.34552845528455 35.77235772357724,40.447154471544714 35.61991869918699,40.65040650406504 35.46747967479675,40.802845528455286 35.3150406504065,40.95528455284553 35.16260162601626,41.15853658536585 35.0609756097561,41.36178861788618 34.90853658536585,41.61585365853659 34.75609756097561,41.97154471544715 34.603658536585364,42.22560975609756 34.451219512195124,42.42886178861789 34.34959349593496,42.63211382113821 34.298780487804876,42.68292682926829 34.2479674796748,42.733739837398375 34.197154471544714,42.83536585365854 34.146341463414636,42.9369918699187 34.09552845528455,43.03861788617886 34.04471544715447,43.1910569105691 33.99390243902439,43.34349593495935 33.99390243902439,43.49593495934959 33.94308943089431,43.64837398373984 33.94308943089431,43.85162601626016 33.94308943089431,44.05487804878049 33.892276422764226,44.15650406504065 33.892276422764226,44.25813008130081 33.84146341463415,44.46138211382114 33.84146341463415,44.61382113821138 33.790650406504064,44.8170731707317 33.790650406504064,45.02032520325203 33.739837398373986,45.22357723577235 33.6890243902439,45.47764227642276 33.6890243902439,45.68089430894309 33.63821138211382,45.88414634146341 33.63821138211382,46.08739837398374" fill="none" stroke="black" stroke-width="0.6"></polyline><polyline points="33.63821138211382,46.08739837398374 33.58739837398374,46.290650406504064 33.58739837398374,46.49390243902439 33.53658536585366,46.697154471544714 33.53658536585366,46.90040650406504 33.53658536585366,47.103658536585364 33.485772357723576,47.30691056910569 33.485772357723576,47.510162601626014 33.4349593495935,47.71341463414634 33.4349593495935,47.916666666666664 33.38414634146341,48.11991869918699 33.38414634146341,48.3739837398374 33.333333333333336,48.577235772357724 33.333333333333336,48.78048780487805 33.28252032520325,48.983739837398375 33.28252032520325,49.1869918699187 33.28252032520325,49.390243902439025 33.23170731707317,49.542682926829265 33.23170731707317,49.74593495934959 33.18089430894309,49.949186991869915 33.18089430894309,50.10162601626016 33.18089430894309,50.203252032520325 33.13008130081301,50.30487804878049 33.13008130081301,50.50813008130081 33.13008130081301,50.66056910569105 33.13008130081301,50.86382113821138 33.13008130081301,51.0670731707317 33.13008130081301,51.21951219512195 33.13008130081301,51.422764227642276 33.13008130081301,51.6260162601626 33.13008130081301,51.829268292682926 33.13008130081301,52.03252032520325 33.13008130081301,52.235772357723576 33.13008130081301,52.38821138211382 33.13008130081301,52.642276422764226 33.13008130081301,52.84552845528455 33.13008130081301,52.9979674796748 33.18089430894309,53.2520325203252 33.18089430894309,53.45528455284553 33.18089430894309,53.709349593495936 33.23170731707317,53.96341463414634 33.23170731707317,54.21747967479675 33.28252032520325,54.420731707317074 33.333333333333336,54.67479674796748 33.333333333333336,54.92886178861789 33.38414634146341,55.18292682926829 33.4349593495935,55.4369918699187 33.485772357723576,55.640243902439025 33.53658536585366,55.84349593495935 33.58739837398374,56.09756097560975 33.63821138211382,56.35162601626016" fill="none" stroke="black" stroke-width="0.6"></polyline><polyline points="33.63821138211382,56.35162601626016 33.739837398373986,56.55487804878049 33.790650406504064,56.80894308943089 33.892276422764226,57.0630081300813 33.94308943089431,57.3170731707317 34.04471544715447,57.57113821138211 34.146341463414636,57.825203252032516 34.2479674796748,58.130081300813 34.34959349593496,58.485772357723576 34.5020325203252,58.84146341463415 34.603658536585364,59.146341463414636 34.70528455284553,59.5020325203252 34.80691056910569,59.80691056910569 34.959349593495936,60.11178861788618 35.11178861788618,60.416666666666664 35.21341463414634,60.72154471544715 35.36585365853659,60.97560975609756 35.51829268292683,61.229674796747965 35.61991869918699,61.43292682926829 35.72154471544715,61.53455284552845 35.823170731707314,61.636178861788615 35.92479674796748,61.78861788617886 36.02642276422764,61.890243902439025 36.17886178861789,62.042682926829265 36.28048780487805,62.14430894308943 36.38211382113821,62.296747967479675 36.483739837398375,62.39837398373984 36.636178861788615,62.5 36.73780487804878,62.65243902439024 36.83943089430894,62.7540650406504 36.9410569105691,62.90650406504065 37.09349593495935,63.00813008130081 37.19512195121951,63.109756097560975 37.296747967479675,63.21138211382114 37.39837398373984,63.36382113821138 37.55081300813008,63.46544715447154 37.65243902439024,63.5670731707317 37.80487804878049,63.71951219512195 37.95731707317073,63.87195121951219 38.05894308943089,64.02439024390243 38.21138211382114,64.1260162601626 38.36382113821138,64.27845528455285 38.516260162601625,64.43089430894308 38.71951219512195,64.58333333333333 38.87195121951219,64.6849593495935 39.02439024390244,64.83739837398373 39.22764227642276,64.98983739837398 39.38008130081301,65.1930894308943 39.63414634146341,65.39634146341463 39.83739837398374,65.59959349593495 40.09146341463415,65.7520325203252" fill="none" stroke="black" stroke-width="0.6"></polyline><polyline points="40.09146341463415,65.7520325203252 40.29471544715447,65.95528455284553 40.59959349593496,66.10772357723577 40.7520325203252,66.20934959349593 40.853658536585364,66.26016260162602 41.15853658536585,66.41260162601625 41.41260162601626,66.51422764227642 41.666666666666664,66.61585365853658 41.920731707317074,66.71747967479675 42.22560975609756,66.8191056910569 42.479674796747965,66.92073170731707 42.78455284552845,67.02235772357723 43.08943089430894,67.07317073170732 43.39430894308943,67.1239837398374 43.64837398373984,67.22560975609755 43.90243902439024,67.27642276422765 44.15650406504065,67.32723577235772 44.41056910569105,67.3780487804878 44.66463414634146,67.42886178861788 44.86788617886179,67.53048780487805 45.07113821138211,67.58130081300813 45.27439024390244,67.6321138211382 45.42682926829268,67.6321138211382 45.579268292682926,67.6829268292683 45.73170731707317,67.6829268292683 45.833333333333336,67.73373983739837 45.985772357723576,67.78455284552845 46.08739837398374,67.83536585365853 46.1890243902439,67.83536585365853 46.290650406504064,67.88617886178862 46.392276422764226,67.9369918699187 46.49390243902439,67.98780487804878 46.59552845528455,67.98780487804878 46.646341463414636,67.98780487804878 46.646341463414636,68.03861788617886 46.7479674796748,68.03861788617886 46.798780487804876,68.03861788617886 46.90040650406504,68.03861788617886 46.951219512195124,68.08943089430895 47.0020325203252,68.08943089430895 47.0020325203252,68.08943089430895 47.103658536585364,68.08943089430895 47.15447154471545,68.14024390243902 47.20528455284553,68.14024390243902 47.30691056910569,68.14024390243902 47.357723577235774,68.1910569105691 47.459349593495936,68.1910569105691 47.510162601626014,68.24186991869918 47.61178861788618,68.24186991869918 47.66260162601626,68.24186991869918 47.764227642276424,68.24186991869918" fill="none" stroke="black" stroke-width="0.6"></polyline><polyline points="47.764227642276424,68.24186991869918 47.86585365853659,68.24186991869918 47.916666666666664,68.29268292682927 48.01829268292683,68.29268292682927 48.06910569105691,68.29268292682927 48.170731707317074,68.29268292682927 48.22154471544715,68.29268292682927 48.323170731707314,68.29268292682927 48.42479674796748,68.29268292682927 48.47560975609756,68.34349593495935 48.577235772357724,68.34349593495935 48.67886178861789,68.34349593495935 48.78048780487805,68.34349593495935 48.88211382113821,68.34349593495935 49.03455284552845,68.34349593495935 49.136178861788615,68.34349593495935 49.23780487804878,68.34349593495935 49.390243902439025,68.34349593495935 49.49186991869919,68.34349593495935 49.64430894308943,68.34349593495935 49.796747967479675,68.34349593495935 49.89837398373984,68.34349593495935 50.05081300813008,68.34349593495935 50.203252032520325,68.34349593495935 50.30487804878049,68.34349593495935 50.45731707317073,68.29268292682927 50.66056910569105,68.29268292682927 50.8130081300813,68.29268292682927 50.96544715447154,68.24186991869918 51.168699186991866,68.24186991869918 51.27032520325203,68.1910569105691 51.37195121951219,68.1910569105691 51.575203252032516,68.14024390243902 51.77845528455284,68.08943089430895 52.03252032520325,68.03861788617886 52.235772357723576,67.9369918699187 52.540650406504064,67.88617886178862 52.79471544715447,67.83536585365853 53.048780487804876,67.73373983739837 53.353658536585364,67.6321138211382 53.65853658536585,67.58130081300813 53.96341463414634,67.47967479674797 54.26829268292683,67.3780487804878 54.573170731707314,67.27642276422765 54.827235772357724,67.17479674796748 55.08130081300813,67.07317073170732 55.28455284552845,67.02235772357723 55.48780487804878,66.97154471544715 55.640243902439025,66.92073170731707 55.792682926829265,66.869918699187 55.94512195121951,66.8191056910569" fill="none" stroke="black" stroke-width="0.6"></polyline><polyline points="55.94512195121951,66.8191056910569 56.09756097560975,66.8191056910569 56.25,66.76829268292683 56.35162601626016,66.71747967479675 56.5040650406504,66.66666666666667 56.55487804878049,66.66666666666667 56.65650406504065,66.61585365853658 56.70731707317073,66.61585365853658 56.80894308943089,66.5650406504065 56.80894308943089,66.5650406504065 56.859756097560975,66.5650406504065 56.91056910569105,66.51422764227642 56.96138211382114,66.51422764227642 57.012195121951216,66.51422764227642 57.012195121951216,66.51422764227642 57.0630081300813,66.46341463414635 57.11382113821138,66.46341463414635 57.16463414634146,66.41260162601625 57.21544715447154,66.41260162601625 57.266260162601625,66.36178861788618 57.36788617886179,66.3109756097561 57.418699186991866,66.3109756097561 57.46951219512195,66.26016260162602 57.57113821138211,66.20934959349593 57.62195121951219,66.15853658536585 57.72357723577235,66.10772357723577 57.77439024390244,66.10772357723577 57.825203252032516,66.0569105691057 57.97764227642276,65.95528455284553 58.079268292682926,65.90447154471545 58.18089430894309,65.85365853658537 58.28252032520325,65.80284552845528 58.33333333333333,65.7520325203252 58.43495934959349,65.70121951219512 58.58739837398374,65.59959349593495 58.739837398373986,65.4979674796748 58.84146341463415,65.44715447154472 59.04471544715447,65.34552845528455 59.197154471544714,65.2439024390244 59.34959349593496,65.14227642276423 59.5020325203252,65.04065040650406 59.65447154471545,64.98983739837398 59.80691056910569,64.88821138211382 59.959349593495936,64.78658536585365 60.11178861788618,64.73577235772358 60.21341463414634,64.6341463414634 60.416666666666664,64.53252032520325 60.56910569105691,64.43089430894308 60.72154471544715,64.32926829268293 60.92479674796748,64.17682926829268 61.1280487804878,64.02439024390243" fill="none" stroke="black" stroke-width="0.6"></polyline><polyline points="61.1280487804878,64.02439024390243 61.28048780487805,63.87195121951219 61.53455284552845,63.71951219512195 61.73780487804878,63.5670731707317 61.9410569105691,63.41463414634146 62.14430894308943,63.262195121951216 62.34756097560975,63.16056910569105 62.55081300813008,63.00813008130081 62.7540650406504,62.90650406504065 62.90650406504065,62.80487804878049 63.109756097560975,62.65243902439024 63.3130081300813,62.55081300813008 63.46544715447154,62.39837398373984 63.668699186991866,62.296747967479675 63.82113821138211,62.14430894308943 64.02439024390243,62.042682926829265 64.17682926829268,61.9410569105691 64.380081300813,61.78861788617886 64.53252032520325,61.6869918699187 64.6849593495935,61.58536585365854 64.88821138211382,61.43292682926829 65.04065040650406,61.28048780487805 65.14227642276423,61.17886178861789 65.1930894308943,61.1280487804878 65.39634146341463,60.97560975609756 65.54878048780488,60.77235772357724 65.70121951219512,60.61991869918699 65.85365853658537,60.46747967479675 65.95528455284553,60.3150406504065 66.10772357723577,60.16260162601626 66.26016260162602,60.010162601626014 66.36178861788618,59.857723577235774 66.51422764227642,59.70528455284553 66.61585365853658,59.5020325203252 66.76829268292683,59.34959349593496 66.869918699187,59.197154471544714 67.02235772357723,58.99390243902439 67.17479674796748,58.84146341463415 67.27642276422765,58.6890243902439 67.42886178861788,58.485772357723576 67.53048780487805,58.33333333333333 67.6321138211382,58.130081300813 67.78455284552845,57.97764227642276 67.88617886178862,57.825203252032516 67.98780487804878,57.672764227642276 68.08943089430895,57.52032520325203 68.1910569105691,57.418699186991866 68.24186991869918,57.266260162601625 68.34349593495935,57.0630081300813 68.4451219512195,56.91056910569105 68.54674796747967,56.75813008130081" fill="none" stroke="black" stroke-width="0.6"></polyline><polyline points="68.54674796747967,56.75813008130081 68.59756097560975,56.605691056910565 68.69918699186992,56.40243902439024 68.75,56.199186991869915 68.85162601626016,55.99593495934959 68.90243902439025,55.792682926829265 68.95325203252033,55.58943089430894 69.05487804878048,55.386178861788615 69.10569105691057,55.18292682926829 69.15650406504065,54.979674796747965 69.2581300813008,54.77642276422764 69.3089430894309,54.573170731707314 69.35975609756098,54.31910569105691 69.46138211382113,54.11585365853659 69.51219512195122,53.91260162601626 69.61382113821138,53.65853658536585 69.66463414634146,53.45528455284553 69.71544715447155,53.201219512195124 69.76626016260163,52.9979674796748 69.8170731707317,52.74390243902439 69.8170731707317,52.540650406504064 69.86788617886178,52.33739837398374 69.86788617886178,52.083333333333336 69.91869918699187,51.880081300813 69.91869918699187,51.6260162601626 69.96951219512195,51.422764227642276 69.96951219512195,51.21951219512195 70.02032520325203,50.96544715447154 70.02032520325203,50.762195121951216 70.02032520325203,50.55894308943089 70.02032520325203,50.2540650406504 70.02032520325203,50.05081300813008 70.0711382113821,49.796747967479675 70.0711382113821,49.542682926829265 70.0711382113821,49.33943089430894 70.0711382113821,49.08536585365854 70.0711382113821,48.83130081300813 70.0711382113821,48.577235772357724 70.0711382113821,48.3739837398374 70.0711382113821,48.06910569105691 70.0711382113821,47.86585365853659 70.0711382113821,47.61178861788618 70.0711382113821,47.30691056910569 70.02032520325203,47.20528455284553 70.02032520325203,47.103658536585364 70.02032520325203,46.90040650406504 70.02032520325203,46.697154471544714 69.96951219512195,46.49390243902439 69.96951219512195,46.239837398373986 69.91869918699187,46.03658536585366 69.91869918699187,45.78252032520325" fill="none" stroke="black" stroke-width="0.6"></polyline><polyline points="69.91869918699187,45.78252032520325 69.86788617886178,45.579268292682926 69.8170731707317,45.325203252032516 69.8170731707317,45.07113821138211 69.76626016260163,44.8170731707317 69.71544715447155,44.61382113821138 69.66463414634146,44.359756097560975 69.61382113821138,44.15650406504065 69.5630081300813,43.90243902439024 69.51219512195122,43.699186991869915 69.46138211382113,43.49593495934959 69.41056910569105,43.24186991869919 69.35975609756098,43.08943089430894 69.3089430894309,42.886178861788615 69.2581300813008,42.68292682926829 69.20731707317073,42.479674796747965 69.15650406504065,42.327235772357724 69.05487804878048,42.1239837398374 69.0040650406504,41.920731707317074 68.95325203252033,41.71747967479675 68.85162601626016,41.5650406504065 68.80081300813008,41.41260162601626 68.69918699186992,41.209349593495936 68.64837398373983,41.05691056910569 68.59756097560975,40.853658536585364 68.4959349593496,40.701219512195124 68.4451219512195,40.4979674796748 68.39430894308943,40.34552845528455 68.29268292682927,40.142276422764226 68.24186991869918,39.989837398373986 68.1910569105691,39.83739837398374 68.08943089430895,39.63414634146341 68.03861788617886,39.43089430894309 67.9369918699187,39.27845528455285 67.88617886178862,39.07520325203252 67.83536585365853,38.922764227642276 67.73373983739837,38.77032520325203 67.6829268292683,38.61788617886179 67.58130081300813,38.46544715447154 67.47967479674797,38.262195121951216 67.42886178861788,38.109756097560975 67.32723577235772,37.90650406504065 67.27642276422765,37.7540650406504 67.17479674796748,37.55081300813008 67.1239837398374,37.449186991869915 67.1239837398374,37.39837398373984 67.02235772357723,37.19512195121951 66.92073170731707,37.042682926829265 66.869918699187,36.83943089430894 66.76829268292683,36.6869918699187 66.66666666666667,36.53455284552845" fill="none" stroke="black" stroke-width="0.6"></polyline><polyline points="66.66666666666667,36.53455284552845 66.5650406504065,36.38211382113821 66.46341463414635,36.229674796747965 66.36178861788618,36.077235772357724 66.26016260162602,35.92479674796748 66.15853658536585,35.77235772357724 66.0060975609756,35.61991869918699 65.90447154471545,35.51829268292683 65.80284552845528,35.36585365853659 65.70121951219512,35.21341463414634 65.59959349593495,35.0609756097561 65.4979674796748,34.90853658536585 65.34552845528455,34.75609756097561 65.2439024390244,34.603658536585364 65.09146341463415,34.5020325203252 64.98983739837398,34.34959349593496 64.83739837398373,34.2479674796748 64.73577235772358,34.09552845528455 64.58333333333333,33.99390243902439 64.43089430894308,33.84146341463415 64.32926829268293,33.6890243902439 64.1260162601626,33.53658536585366 64.02439024390243,33.4349593495935 63.87195121951219,33.28252032520325 63.71951219512195,33.13008130081301 63.5670731707317,33.02845528455285 63.41463414634146,32.8760162601626 63.21138211382114,32.77439024390244 63.05894308943089,32.6219512195122 62.90650406504065,32.46951219512195 62.703252032520325,32.3170731707317 62.55081300813008,32.21544715447154 62.34756097560975,32.0630081300813 62.14430894308943,31.910569105691057 61.9410569105691,31.758130081300813 61.78861788617886,31.60569105691057 61.58536585365854,31.504065040650406 61.38211382113821,31.351626016260163 61.17886178861789,31.25 60.97560975609756,31.097560975609756 60.77235772357724,30.995934959349594 60.51829268292683,30.89430894308943 60.3150406504065,30.741869918699187 60.0609756097561,30.640243902439025 59.80691056910569,30.538617886178862 59.552845528455286,30.4369918699187 59.34959349593496,30.284552845528456 59.09552845528455,30.182926829268293 58.892276422764226,30.08130081300813 58.6890243902439,29.979674796747968 58.485772357723576,29.878048780487806" fill="none" stroke="black" stroke-width="0.6"></polyline><polyline points="58.485772357723576,29.878048780487806 58.33333333333333,29.776422764227643 58.079268292682926,29.67479674796748 57.8760162601626,29.573170731707318 57.672764227642276,29.471544715447155 57.418699186991866,29.369918699186993 57.21544715447154,29.31910569105691 56.96138211382114,29.217479674796746 56.70731707317073,29.166666666666664 56.453252032520325,29.0650406504065 56.35162601626016,29.01422764227642 56.25,28.96341463414634 56.046747967479675,28.912601626016258 55.84349593495935,28.810975609756095 55.58943089430894,28.760162601626014 55.386178861788615,28.65853658536585 55.13211382113821,28.55691056910569 54.92886178861789,28.506097560975608 54.67479674796748,28.455284552845526 54.420731707317074,28.404471544715445 54.166666666666664,28.353658536585364 53.91260162601626,28.353658536585364 53.760162601626014,28.302845528455283 53.607723577235774,28.302845528455283 53.40447154471545,28.2520325203252 53.2520325203252,28.2520325203252 53.15040650406504,28.2520325203252 52.896341463414636,28.20121951219512 52.74390243902439,28.15040650406504 52.38821138211382,28.099593495934958 52.083333333333336,28.099593495934958 51.77845528455284,28.048780487804876 51.52439024390244,28.048780487804876 51.21951219512195,27.997967479674795 50.96544715447154,27.997967479674795 50.762195121951216,27.997967479674795 50.50813008130081,27.997967479674795 50.2540650406504,27.947154471544714 50.15243902439024,27.947154471544714 50.05081300813008,27.947154471544714 49.84756097560975,27.947154471544714 49.69512195121951,27.947154471544714 49.49186991869919,27.896341463414632 49.23780487804878,27.896341463414632 49.03455284552845,27.896341463414632 48.83130081300813,27.896341463414632 48.6280487804878,27.896341463414632 48.42479674796748,27.896341463414632 48.22154471544715,27.84552845528455 48.01829268292683,27.84552845528455 47.8150406504065,27.84552845528455" fill="none" stroke="black" stroke-width="0.6"></polyline><polyline points="47.8150406504065,27.84552845528455 47.61178861788618,27.84552845528455 47.40853658536585,27.84552845528455 47.20528455284553,27.84552845528455 47.103658536585364,27.84552845528455 47.0020325203252,27.84552845528455 46.798780487804876,27.84552845528455 46.59552845528455,27.84552845528455 46.34146341463415,27.896341463414632 46.13821138211382,27.896341463414632 45.9349593495935,27.896341463414632 45.68089430894309,27.947154471544714 45.42682926829268,27.947154471544714 45.22357723577235,27.997967479674795 44.96951219512195,28.048780487804876 44.766260162601625,28.099593495934958 44.5630081300813,28.15040650406504 44.30894308943089,28.20121951219512 44.05487804878049,28.2520325203252 43.80081300813008,28.302845528455283 43.546747967479675,28.353658536585364 43.34349593495935,28.404471544715445 43.08943089430894,28.506097560975608 42.78455284552845,28.55691056910569 42.58130081300813,28.65853658536585 42.327235772357724,28.709349593495933 42.073170731707314,28.810975609756095 41.81910569105691,28.912601626016258 41.5650406504065,28.96341463414634 41.3109756097561,29.0650406504065 41.107723577235774,29.166666666666664 40.853658536585364,29.268292682926827 40.548780487804876,29.369918699186993 40.29471544715447,29.420731707317074 40.040650406504064,29.522357723577237 39.735772357723576,29.67479674796748 39.48170731707317,29.776422764227643 39.27845528455285,29.878048780487806 38.97357723577235,29.979674796747968 38.77032520325203,30.132113821138212 38.516260162601625,30.284552845528456 38.16056910569105,30.48780487804878 37.90650406504065,30.640243902439025 37.60162601626016,30.79268292682927 37.34756097560975,30.945121951219512 37.14430894308943,31.046747967479675 36.9410569105691,31.148373983739837 36.6869918699187,31.25 36.53455284552845,31.30081300813008 36.33130081300813,31.402439024390244 36.17886178861789,31.504065040650406" fill="none" stroke="black" stroke-width="0.6"></polyline><polyline points="36.17886178861789,31.504065040650406 35.97560975609756,31.60569105691057 35.823170731707314,31.758130081300813 35.56910569105691,31.910569105691057 35.36585365853659,32.11382113821138 35.16260162601626,32.3170731707317 34.959349593495936,32.46951219512195 34.80691056910569,32.672764227642276 34.603658536585364,32.8760162601626 34.40040650406504,33.079268292682926 34.197154471544714,33.28252032520325 34.04471544715447,33.485772357723576 33.84146341463415,33.739837398373986 33.63821138211382,33.94308943089431 33.485772357723576,34.09552845528455 33.28252032520325,34.298780487804876 33.13008130081301,34.451219512195124 32.97764227642276,34.603658536585364 32.82520325203252,34.80691056910569 32.72357723577236,34.959349593495936 32.57113821138211,35.11178861788618 32.418699186991866,35.264227642276424 32.3170731707317,35.46747967479675 32.11382113821138,35.670731707317074 31.961382113821138,35.8739837398374 31.910569105691057,35.97560975609756 31.808943089430894,36.077235772357724 31.65650406504065,36.229674796747965 31.504065040650406,36.43292682926829 31.351626016260163,36.6869918699187 31.148373983739837,36.890243902439025 30.995934959349594,37.09349593495935 30.84349593495935,37.296747967479675 30.691056910569106,37.5 30.538617886178862,37.7540650406504 30.4369918699187,37.90650406504065 30.284552845528456,38.109756097560975 30.182926829268293,38.3130081300813 30.08130081300813,38.46544715447154 29.928861788617887,38.668699186991866 29.827235772357724,38.82113821138211 29.725609756097562,39.02439024390244 29.573170731707318,39.22764227642276 29.471544715447155,39.43089430894309 29.369918699186993,39.63414634146341 29.268292682926827,39.83739837398374 29.166666666666664,40.09146341463415 29.0650406504065,40.29471544715447 28.912601626016258,40.59959349593496 28.760162601626014,40.95528455284553 28.60772357723577,41.209349593495936" fill="none" stroke="black" stroke-width="0.6"></polyline><polyline points="28.60772357723577,41.209349593495936 28.506097560975608,41.41260162601626 28.404471544715445,41.5650406504065 28.302845528455283,41.71747967479675 28.15040650406504,41.920731707317074 28.099593495934958,42.1239837398374 27.997967479674795,42.27642276422764 27.947154471544714,42.479674796747965 27.84552845528455,42.63211382113821 27.79471544715447,42.78455284552845 27.693089430894307,43.03861788617886 27.642276422764226,43.1910569105691 27.540650406504064,43.39430894308943 27.4390243902439,43.59756097560975 27.38821138211382,43.75 27.33739837398374,43.953252032520325 27.235772357723576,44.15650406504065 27.184959349593495,44.30894308943089 27.134146341463413,44.512195121951216 27.083333333333332,44.71544715447154 27.03252032520325,44.918699186991866 26.93089430894309,45.12195121951219 26.880081300813007,45.3760162601626 26.829268292682926,45.63008130081301 26.778455284552845,45.88414634146341 26.727642276422763,46.13821138211382 26.676829268292682,46.392276422764226 26.6260162601626,46.59552845528455 26.6260162601626,46.7479674796748 26.57520325203252,46.951219512195124 26.57520325203252,47.15447154471545 26.524390243902438,47.40853658536585 26.473577235772357,47.61178861788618 26.473577235772357,47.8150406504065 26.422764227642276,48.06910569105691 26.422764227642276,48.323170731707314 26.371951219512194,48.577235772357724 26.371951219512194,48.88211382113821 26.321138211382113,49.136178861788615 26.321138211382113,49.390243902439025 26.321138211382113,49.69512195121951 26.270325203252032,49.949186991869915 26.270325203252032,50.203252032520325 26.270325203252032,50.50813008130081 26.270325203252032,50.8130081300813 26.270325203252032,51.11788617886179 26.270325203252032,51.37195121951219 26.270325203252032,51.6260162601626 26.270325203252032,52.03252032520325 26.321138211382113,52.38821138211382 26.321138211382113,52.59146341463415" fill="none" stroke="black" stroke-width="0.6"></polyline><polyline points="26.321138211382113,52.59146341463415 26.321138211382113,52.84552845528455 26.371951219512194,53.048780487804876 26.371951219512194,53.302845528455286 26.371951219512194,53.55691056910569 26.422764227642276,53.760162601626014 26.473577235772357,54.0650406504065 26.524390243902438,54.31910569105691 26.57520325203252,54.573170731707314 26.6260162601626,54.827235772357724 26.676829268292682,55.13211382113821 26.778455284552845,55.4369918699187 26.880081300813007,55.792682926829265 26.98170731707317,56.25 27.083333333333332,56.70731707317073 27.134146341463413,57.11382113821138 27.235772357723576,57.57113821138211 27.286585365853657,57.92682926829268 27.33739837398374,58.28252032520325 27.38821138211382,58.6890243902439 27.489837398373982,59.04471544715447 27.642276422764226,59.451219512195124 27.79471544715447,59.90853658536585 27.896341463414632,60.16260162601626 27.997967479674795,60.416666666666664 28.099593495934958,60.61991869918699 28.15040650406504,60.823170731707314 28.2520325203252,61.02642276422764 28.353658536585364,61.229674796747965 28.455284552845526,61.38211382113821 28.60772357723577,61.53455284552845 28.709349593495933,61.73780487804878 28.810975609756095,61.890243902439025 28.912601626016258,62.042682926829265 29.01422764227642,62.19512195121951 29.115853658536583,62.296747967479675 29.217479674796746,62.39837398373984 29.268292682926827,62.449186991869915 29.369918699186993,62.60162601626016 29.471544715447155,62.7540650406504 29.573170731707318,62.90650406504065 29.725609756097562,63.05894308943089 29.827235772357724,63.21138211382114 29.928861788617887,63.41463414634146 30.08130081300813,63.5670731707317 30.182926829268293,63.71951219512195 30.284552845528456,63.87195121951219 30.4369918699187,64.02439024390243 30.538617886178862,64.17682926829268 30.640243902439025,64.32926829268293 30.79268292682927,64.48170731707317" fill="none" stroke="black" stroke-width="0.6"></polyline><polyline points="30.79268292682927,64.48170731707317 30.945121951219512,64.6341463414634 31.046747967479675,64.83739837398373 31.19918699186992,64.98983739837398 31.30081300813008,65.14227642276423 31.453252032520325,65.2439024390244 31.554878048780488,65.44715447154472 31.70731707317073,65.59959349593495 31.808943089430894,65.7520325203252 31.961382113821138,65.90447154471545 32.11382113821138,66.10772357723577 32.266260162601625,66.26016260162602 32.418699186991866,66.41260162601625 32.57113821138211,66.5650406504065 32.72357723577236,66.66666666666667 32.8760162601626,66.869918699187 33.02845528455285,67.02235772357723 33.18089430894309,67.17479674796748 33.38414634146341,67.3780487804878 33.53658536585366,67.58130081300813 33.739837398373986,67.78455284552845 33.892276422764226,67.9369918699187 33.99390243902439,68.03861788617886 34.09552845528455,68.08943089430895 34.298780487804876,68.29268292682927 34.451219512195124,68.4451219512195 34.65447154471545,68.59756097560975 34.857723577235774,68.80081300813008 35.010162601626014,68.95325203252033 35.21341463414634,69.10569105691057 35.416666666666664,69.3089430894309 35.56910569105691,69.46138211382113 35.77235772357724,69.61382113821138 35.8739837398374,69.66463414634146 35.97560975609756,69.76626016260163 36.17886178861789,69.91869918699187 36.38211382113821,70.1219512195122 36.58536585365854,70.27439024390243 36.73780487804878,70.42682926829268 36.9410569105691,70.57926829268293 37.14430894308943,70.73170731707317 37.296747967479675,70.83333333333333 37.449186991869915,70.98577235772358 37.65243902439024,71.08739837398373 37.80487804878049,71.23983739837398 37.95731707317073,71.34146341463415 38.16056910569105,71.49390243902438 38.3130081300813,71.64634146341463 38.516260162601625,71.7479674796748 38.668699186991866,71.90040650406505 38.87195121951219,72.0020325203252" fill="none" stroke="black" stroke-width="0.6"></polyline><polyline points="38.87195121951219,72.0020325203252 39.02439024390244,72.10365853658537 39.176829268292686,72.2560975609756 39.329268292682926,72.35772357723577 39.48170731707317,72.45934959349593 39.63414634146341,72.5609756097561 39.78658536585366,72.66260162601625 39.9390243902439,72.76422764227642 40.09146341463415,72.86585365853658 40.24390243902439,72.96747967479675 40.396341463414636,73.01829268292683 40.548780487804876,73.119918699187 40.701219512195124,73.22154471544715 40.853658536585364,73.32317073170732 41.05691056910569,73.3739837398374 41.15853658536585,73.47560975609755 41.3109756097561,73.57723577235772 41.514227642276424,73.6280487804878 41.666666666666664,73.72967479674797 41.71747967479675,73.78048780487805 41.76829268292683,73.78048780487805 41.97154471544715,73.8821138211382 42.1239837398374,73.98373983739837 42.27642276422764,74.03455284552845 42.479674796747965,74.13617886178862 42.63211382113821,74.23780487804878 42.78455284552845,74.33943089430895 42.98780487804878,74.39024390243902 43.1910569105691,74.49186991869918 43.39430894308943,74.59349593495935 43.64837398373984,74.6951219512195 43.85162601626016,74.79674796747967 44.05487804878049,74.84756097560975 44.25813008130081,74.89837398373983 44.46138211382114,75 44.5630081300813,75 44.86788617886179,75.10162601626016 45.07113821138211,75.15243902439025 45.27439024390244,75.20325203252033 45.52845528455285,75.2540650406504 45.73170731707317,75.30487804878048 45.9349593495935,75.35569105691057 46.1890243902439,75.40650406504065 46.392276422764226,75.5081300813008 46.697154471544714,75.5589430894309 47.0020325203252,75.5589430894309 47.25609756097561,75.60975609756098 47.5609756097561,75.60975609756098 47.8150406504065,75.60975609756098 48.06910569105691,75.60975609756098 48.323170731707314,75.60975609756098" fill="none" stroke="black" stroke-width="0.6"></polyline><polyline points="48.323170731707314,75.60975609756098 48.52642276422764,75.60975609756098 48.729674796747965,75.60975609756098 48.983739837398375,75.60975609756098 49.136178861788615,75.60975609756098 49.33943089430894,75.60975609756098 49.59349593495935,75.60975609756098 49.74593495934959,75.60975609756098 49.949186991869915,75.5589430894309 50.15243902439024,75.5589430894309 50.30487804878049,75.5589430894309 50.50813008130081,75.5589430894309 50.71138211382114,75.5081300813008 50.86382113821138,75.5081300813008 51.0670731707317,75.45731707317073 51.27032520325203,75.45731707317073 51.422764227642276,75.40650406504065 51.6260162601626,75.40650406504065 51.880081300813,75.35569105691057 52.083333333333336,75.30487804878048 52.28658536585366,75.2540650406504 52.489837398373986,75.20325203252033 52.69308943089431,75.15243902439025 52.947154471544714,75.10162601626016 53.201219512195124,75.05081300813008 53.302845528455286,75 53.40447154471545,74.94918699186992 53.709349593495936,74.89837398373983 53.96341463414634,74.79674796747967 54.26829268292683,74.6951219512195 54.52235772357724,74.59349593495935 54.77642276422764,74.49186991869918 55.03048780487805,74.39024390243902 55.33536585365854,74.33943089430895 55.58943089430894,74.1869918699187 55.84349593495935,74.08536585365853 56.09756097560975,73.98373983739837 56.40243902439024,73.8821138211382 56.65650406504065,73.78048780487805 56.91056910569105,73.67886178861788 57.16463414634146,73.57723577235772 57.418699186991866,73.47560975609755 57.672764227642276,73.42479674796748 57.92682926829268,73.27235772357723 58.18089430894309,73.17073170731707 58.38414634146341,73.0691056910569 58.6890243902439,72.96747967479675 58.892276422764226,72.86585365853658 59.146341463414636,72.76422764227642 59.40040650406504,72.66260162601625 59.65447154471545,72.5609756097561" fill="none" stroke="black" stroke-width="0.6"></polyline><polyline points="59.65447154471545,72.5609756097561 59.90853658536585,72.40853658536585 60.16260162601626,72.3069105691057 60.36585365853659,72.20528455284553 60.61991869918699,72.10365853658537 60.8739837398374,71.95121951219512 61.1280487804878,71.84959349593495 61.43292682926829,71.69715447154472 61.6869918699187,71.59552845528455 61.9410569105691,71.49390243902438 62.24593495934959,71.34146341463415 62.5,71.23983739837398 62.7540650406504,71.13821138211382 63.00813008130081,70.98577235772358 63.262195121951216,70.8841463414634 63.46544715447154,70.78252032520325 63.668699186991866,70.68089430894308 63.82113821138211,70.57926829268293 64.02439024390243,70.47764227642276 64.17682926829268,70.3760162601626 64.32926829268293,70.32520325203252 64.48170731707317,70.22357723577235 64.6849593495935,70.1219512195122 64.78658536585365,70.0711382113821 64.9390243902439,69.96951219512195 65.09146341463415,69.86788617886178 65.1930894308943,69.76626016260163 65.34552845528455,69.66463414634146 65.44715447154472,69.5630081300813 65.54878048780488,69.46138211382113 65.65040650406505,69.35975609756098 65.80284552845528,69.2581300813008 65.90447154471545,69.20731707317073 66.0060975609756,69.10569105691057 66.10772357723577,69.0040650406504 66.20934959349593,68.90243902439025 66.36178861788618,68.80081300813008 66.51422764227642,68.64837398373983 66.61585365853658,68.54674796747967 66.76829268292683,68.4451219512195 66.92073170731707,68.29268292682927 67.07317073170732,68.14024390243902 67.22560975609755,67.98780487804878 67.42886178861788,67.83536585365853 67.58130081300813,67.6829268292683 67.73373983739837,67.47967479674797 67.9369918699187,67.32723577235772 68.08943089430895,67.1239837398374 68.29268292682927,66.97154471544715 68.4451219512195,66.76829268292683 68.59756097560975,66.61585365853658" fill="none" stroke="black" stroke-width="0.6"></polyline><polyline points="68.59756097560975,66.61585365853658 68.75,66.46341463414635 68.90243902439025,66.3109756097561 69.05487804878048,66.15853658536585 69.20731707317073,66.0060975609756 69.35975609756098,65.85365853658537 69.51219512195122,65.65040650406505 69.66463414634146,65.4979674796748 69.8170731707317,65.34552845528455 69.96951219512195,65.14227642276423 70.1219512195122,64.98983739837398 70.27439024390243,64.83739837398373 70.42682926829268,64.73577235772358 70.57926829268293,64.58333333333333 70.73170731707317,64.43089430894308 70.8841463414634,64.27845528455285 71.03658536585365,64.07520325203252 71.23983739837398,63.87195121951219 71.39227642276423,63.71951219512195 71.59552845528455,63.516260162601625 71.7479674796748,63.262195121951216 71.95121951219512,63.05894308943089 72.10365853658537,62.855691056910565 72.3069105691057,62.60162601626016 72.45934959349593,62.39837398373984 72.66260162601625,62.14430894308943 72.86585365853658,61.890243902439025 73.0691056910569,61.6869918699187 73.22154471544715,61.43292682926829 73.42479674796748,61.17886178861789 73.6280487804878,60.97560975609756 73.83130081300813,60.670731707317074 73.98373983739837,60.416666666666664 74.13617886178862,60.16260162601626 74.33943089430895,59.857723577235774 74.49186991869918,59.603658536585364 74.64430894308943,59.40040650406504 74.7459349593496,59.146341463414636 74.84756097560975,58.94308943089431 75,58.739837398373986 75.10162601626016,58.536585365853654 75.20325203252033,58.33333333333333 75.2540650406504,58.130081300813 75.35569105691057,57.92682926829268 75.45731707317073,57.72357723577235 75.5081300813008,57.52032520325203 75.60975609756098,57.3170731707317 75.66056910569105,57.16463414634146 75.71138211382113,57.012195121951216 75.8130081300813,56.80894308943089 75.86382113821138,56.605691056910565" fill="none" stroke="black" stroke-width="0.6"></polyline><polyline points="75.86382113821138,56.605691056910565 75.96544715447155,56.40243902439024 76.01626016260163,56.14837398373984 76.11788617886178,55.94512195121951 76.16869918699187,55.6910569105691 76.27032520325203,55.48780487804878 76.3211382113821,55.28455284552845 76.42276422764228,55.08130081300813 76.47357723577235,54.827235772357724 76.57520325203252,54.67479674796748 76.6260162601626,54.47154471544715 76.67682926829268,54.26829268292683 76.72764227642276,54.166666666666664 76.72764227642276,54.0650406504065 76.77845528455285,53.86178861788618 76.77845528455285,53.760162601626014 76.82926829268293,53.65853658536585 76.82926829268293,53.50609756097561 76.880081300813,53.40447154471545 76.93089430894308,53.201219512195124 76.93089430894308,53.048780487804876 76.93089430894308,52.947154471544714 76.98170731707317,52.79471544715447 76.98170731707317,52.69308943089431 76.98170731707317,52.59146341463415 77.03252032520325,52.4390243902439 77.03252032520325,52.28658536585366 77.03252032520325,52.1849593495935 77.03252032520325,52.03252032520325 77.03252032520325,51.93089430894309 77.03252032520325,51.77845528455284 77.03252032520325,51.67682926829268 77.03252032520325,51.575203252032516 77.03252032520325,51.422764227642276 77.03252032520325,51.32113821138211 77.03252032520325,51.21951219512195 77.03252032520325,51.168699186991866 77.03252032520325,51.0670731707317 77.03252032520325,50.96544715447154 77.03252032520325,50.91463414634146 77.03252032520325,50.8130081300813 77.03252032520325,50.762195121951216 77.03252032520325,50.66056910569105 77.03252032520325,50.609756097560975 77.03252032520325,50.50813008130081 77.03252032520325,50.45731707317073 77.03252032520325,50.40650406504065 77.03252032520325,50.355691056910565 77.03252032520325,50.30487804878049 77.03252032520325,50.2540650406504 77.03252032520325,50.203252032520325" fill="none" stroke="black" stroke-width="0.6"></polyline><polyline points="77.03252032520325,50.203252032520325 77.03252032520325,50.15243902439024 77.03252032520325,50.10162601626016 77.03252032520325,50.05081300813008 77.03252032520325,50 77.03252032520325,49.949186991869915 77.03252032520325,49.89837398373984 77.03252032520325,49.89837398373984 77.03252032520325,49.84756097560975 77.03252032520325,49.84756097560975 77.03252032520325,49.84756097560975 77.03252032520325,49.796747967479675 77.03252032520325,49.796747967479675 77.03252032520325,49.796747967479675 77.03252032520325,49.796747967479675 76.98170731707317,49.796747967479675 76.98170731707317,49.796747967479675 76.98170731707317,49.796747967479675 76.98170731707317,49.796747967479675 76.98170731707317,49.796747967479675 76.98170731707317,49.796747967479675 76.98170731707317,49.796747967479675 76.98170731707317,49.796747967479675 76.98170731707317,49.74593495934959 76.98170731707317,49.74593495934959 76.93089430894308,49.74593495934959" fill="none" stroke="black" stroke-width="0.6"></polyline></svg>