<svg height="100" width="100" preserveAspectRatio="xMidYMid meet"><polyline points="17.98780487804878,12.09349593495935 17.98780487804878,12.042682926829269 17.9369918699187,11.941056910569106 17.88617886178862,11.890243902439025 17.88617886178862,11.839430894308943 17.88617886178862,11.788617886178862 17.88617886178862,11.636178861788618 17.9369918699187,11.483739837398375 17.98780487804878,11.178861788617885 18.089430894308943,10.924796747967479 18.191056910569106,10.56910569105691 18.29268292682927,10.213414634146341 18.39430894308943,9.857723577235772 18.445121951219512,9.502032520325203 18.445121951219512,9.146341463414634 18.445121951219512,8.892276422764228 18.39430894308943,8.689024390243903 18.29268292682927,8.58739837398374 18.140243902439025,8.536585365853659 17.9369918699187,8.485772357723578 17.682926829268293,8.536585365853659 17.378048780487806,8.739837398373984 17.022357723577237,9.044715447154472 16.615853658536587,9.552845528455284 16.3109756097561,10.010162601626016 16.10772357723577,10.467479674796747 15.904471544715447,10.924796747967479 15.904471544715447,11.229674796747966 15.904471544715447,11.534552845528456 15.955284552845528,11.6869918699187 16.10772357723577,11.788617886178862 16.260162601626014,11.839430894308943 16.463414634146343,11.890243902439025 16.666666666666668,11.890243902439025 16.869918699186993,11.890243902439025 17.1239837398374,11.788617886178862 17.378048780487806,11.636178861788618 17.58130081300813,11.483739837398375 17.682926829268293,11.382113821138212 17.784552845528456,11.280487804878048 17.9369918699187,11.077235772357723 18.038617886178862,10.873983739837398 18.140243902439025,10.619918699186991 18.140243902439025,10.467479674796747 18.140243902439025,10.315040650406504 18.089430894308943,10.213414634146341 18.038617886178862,10.16260162601626 17.98780487804878,10.16260162601626 17.98780487804878,10.16260162601626 17.9369918699187,10.16260162601626 17.9369918699187,10.213414634146341" fill="none" stroke="black" stroke-width="0.6"></polyline><polyline points="17.9369918699187,10.213414634146341 17.9369918699187,10.365853658536585 17.9369918699187,10.56910569105691 17.9369918699187,10.772357723577235 17.9369918699187,11.077235772357723 17.9369918699187,11.280487804878048 18.038617886178862,11.483739837398375 18.191056910569106,11.6869918699187 18.39430894308943,11.839430894308943 18.69918699186992,11.941056910569106 19.054878048780488,11.941056910569106 19.461382113821138,11.941056910569106 19.867886178861788,11.890243902439025 20.32520325203252,11.788617886178862" fill="none" stroke="black" stroke-width="0.6"></polyline><polyline points="32.266260162601625,5.233739837398374 32.21544715447154,5.233739837398374 32.16463414634146,5.233739837398374 32.0630081300813,5.182926829268292 32.012195121951216,5.132113821138211 31.961382113821138,5.08130081300813 31.961382113821138,5.08130081300813 31.961382113821138,5.08130081300813 31.961382113821138,5.233739837398374 31.961382113821138,5.640243902439024 31.961382113821138,6.300813008130081 31.961382113821138,7.164634146341463 31.961382113821138,8.130081300813007 31.961382113821138,8.94308943089431 31.910569105691057,9.502032520325203 31.859756097560975,9.908536585365853 31.859756097560975,10.315040650406504 31.859756097560975,10.619918699186991 31.859756097560975,10.772357723577235 31.859756097560975,10.873983739837398 31.859756097560975,10.924796747967479 31.859756097560975,10.924796747967479 31.910569105691057,10.924796747967479 32.012195121951216,10.924796747967479 32.11382113821138,10.823170731707316 32.3170731707317,10.619918699186991 32.52032520325203,10.315040650406504 32.77439024390244,9.959349593495935 33.079268292682926,9.654471544715447 33.28252032520325,9.451219512195122 33.53658536585366,9.298780487804878 33.790650406504064,9.197154471544716 33.99390243902439,9.197154471544716 34.197154471544714,9.247967479674797 34.40040650406504,9.34959349593496 34.603658536585364,9.502032520325203 34.75609756097561,9.705284552845528 34.857723577235774,9.959349593495935 34.959349593495936,10.213414634146341 34.959349593495936,10.56910569105691 34.90853658536585,10.924796747967479 34.75609756097561,11.280487804878048 34.5020325203252,11.6869918699187 34.197154471544714,11.991869918699187 33.892276422764226,12.245934959349594 33.53658536585366,12.5 33.23170731707317,12.652439024390244 32.926829268292686,12.703252032520325 32.57113821138211,12.703252032520325 32.3170731707317,12.703252032520325 32.21544715447154,12.703252032520325" fill="none" stroke="black" stroke-width="0.6"></polyline><polyline points="32.21544715447154,12.703252032520325 32.11382113821138,12.703252032520325 31.961382113821138,12.601626016260163 31.910569105691057,12.550813008130081 31.910569105691057,12.449186991869919 31.910569105691057,12.347560975609756" fill="none" stroke="black" stroke-width="0.6"></polyline><polyline points="50.762195121951216,9.451219512195122 50.66056910569105,9.40040650406504 50.50813008130081,9.298780487804878 50.2540650406504,9.247967479674797 50.15243902439024,9.247967479674797 50.05081300813008,9.247967479674797 50,9.247967479674797 49.949186991869915,9.247967479674797 49.89837398373984,9.247967479674797 49.89837398373984,9.247967479674797 49.84756097560975,9.247967479674797 49.796747967479675,9.247967479674797 49.74593495934959,9.247967479674797 49.64430894308943,9.247967479674797 49.59349593495935,9.247967479674797 49.542682926829265,9.247967479674797 49.390243902439025,9.247967479674797 49.1869918699187,9.298780487804878 48.93292682926829,9.40040650406504 48.67886178861789,9.654471544715447 48.3739837398374,9.908536585365853 48.11991869918699,10.264227642276422 47.916666666666664,10.619918699186991 47.764227642276424,10.97560975609756 47.66260162601626,11.280487804878048 47.66260162601626,11.483739837398375 47.71341463414634,11.6869918699187 47.8150406504065,11.890243902439025 47.96747967479675,12.042682926829269 48.22154471544715,12.195121951219512 48.47560975609756,12.296747967479675 48.78048780487805,12.296747967479675 49.136178861788615,12.347560975609756 49.49186991869919,12.347560975609756 49.796747967479675,12.296747967479675 50.15243902439024,12.195121951219512 50.45731707317073,12.144308943089431 50.762195121951216,12.09349593495935 50.86382113821138,12.042682926829269" fill="none" stroke="black" stroke-width="0.6"></polyline><polyline points="67.9369918699187,11.178861788617885 67.9369918699187,11.178861788617885 67.88617886178862,11.128048780487804 67.83536585365853,11.128048780487804 67.83536585365853,11.077235772357723 67.78455284552845,11.026422764227641 67.78455284552845,10.97560975609756 67.73373983739837,10.924796747967479 67.73373983739837,10.873983739837398 67.6829268292683,10.823170731707316 67.6321138211382,10.721544715447154 67.58130081300813,10.619918699186991 67.53048780487805,10.518292682926829 67.47967479674797,10.416666666666666 67.3780487804878,10.315040650406504 67.22560975609755,10.264227642276422 66.97154471544715,10.264227642276422 66.71747967479675,10.264227642276422 66.36178861788618,10.467479674796747 66.0060975609756,10.772357723577235 65.7520325203252,11.128048780487804 65.54878048780488,11.483739837398375 65.39634146341463,11.890243902439025 65.39634146341463,12.195121951219512 65.44715447154472,12.398373983739837 65.54878048780488,12.601626016260163 65.7520325203252,12.652439024390244 66.0060975609756,12.703252032520325 66.10772357723577,12.703252032520325 66.26016260162602,12.703252032520325 66.5650406504065,12.652439024390244 66.92073170731707,12.5 67.27642276422765,12.245934959349594 67.58130081300813,11.941056910569106 67.88617886178862,11.636178861788618 68.14024390243902,11.280487804878048 68.34349593495935,10.924796747967479 68.4451219512195,10.467479674796747 68.54674796747967,9.908536585365853 68.59756097560975,9.298780487804878 68.64837398373983,8.689024390243903 68.64837398373983,8.079268292682926 68.64837398373983,7.571138211382114 68.59756097560975,7.164634146341463 68.54674796747967,6.9105691056910565 68.4959349593496,6.808943089430894 68.4451219512195,6.808943089430894 68.4451219512195,6.808943089430894 68.4451219512195,6.808943089430894 68.4451219512195,6.859756097560975 68.39430894308943,7.012195121951219" fill="none" stroke="black" stroke-width="0.6"></polyline><polyline points="68.39430894308943,7.012195121951219 68.29268292682927,7.317073170731707 68.1910569105691,7.774390243902439 68.08943089430895,8.333333333333334 68.03861788617886,8.892276422764228 67.98780487804878,9.40040650406504 67.98780487804878,10.060975609756097 67.98780487804878,10.670731707317072 68.03861788617886,11.229674796747966 68.14024390243902,11.6869918699187 68.29268292682927,12.042682926829269 68.4451219512195,12.347560975609756 68.64837398373983,12.550813008130081 68.85162601626016,12.703252032520325 69.05487804878048,12.804878048780488 69.3089430894309,12.804878048780488 69.61382113821138,12.855691056910569 69.8170731707317,12.855691056910569 70.02032520325203,12.804878048780488" fill="none" stroke="black" stroke-width="0.6"></polyline><polyline points="78.35365853658537,11.788617886178862 78.5060975609756,11.788617886178862 78.76016260162602,11.737804878048781 79.11585365853658,11.737804878048781 79.67479674796748,11.6869918699187 80.23373983739837,11.585365853658537 80.79268292682927,11.382113821138212 81.35162601626016,11.178861788617885 81.85975609756098,10.97560975609756 82.26626016260163,10.721544715447154 82.6219512195122,10.416666666666666 82.8760162601626,10.111788617886178 82.97764227642276,9.80691056910569 83.07926829268293,9.552845528455284 83.07926829268293,9.34959349593496 82.97764227642276,9.197154471544716 82.8760162601626,9.095528455284553 82.6219512195122,9.095528455284553 82.26626016260163,9.095528455284553 81.8089430894309,9.197154471544716 81.30081300813008,9.451219512195122 80.79268292682927,9.75609756097561 80.28455284552845,10.16260162601626 79.8780487804878,10.518292682926829 79.57317073170732,10.97560975609756 79.369918699187,11.382113821138212 79.369918699187,11.6869918699187 79.42073170731707,11.991869918699187 79.6239837398374,12.245934959349594 79.92886178861788,12.398373983739837 80.33536585365853,12.550813008130081 80.9451219512195,12.601626016260163 81.55487804878048,12.601626016260163 82.21544715447155,12.550813008130081 82.8760162601626,12.398373983739837 83.4349593495935,12.296747967479675 83.84146341463415,12.195121951219512 84.04471544715447,12.09349593495935" fill="none" stroke="black" stroke-width="0.6"></polyline><polyline points="20.274390243902438,23.170731707317074 20.223577235772357,22.96747967479675 20.121951219512194,22.71341463414634 20.071138211382113,22.611788617886177 20.071138211382113,22.560975609756095 20.071138211382113,22.459349593495933 20.071138211382113,22.35772357723577 20.020325203252032,22.256097560975608 19.96951219512195,22.154471544715445 19.91869918699187,22.0020325203252 19.817073170731707,21.90040650406504 19.664634146341463,21.747967479674795 19.461382113821138,21.54471544715447 19.20731707317073,21.392276422764226 18.902439024390244,21.341463414634145 18.648373983739837,21.290650406504064 18.445121951219512,21.290650406504064 18.29268292682927,21.341463414634145 18.089430894308943,21.49390243902439 17.9369918699187,21.747967479674795 17.784552845528456,22.154471544715445 17.632113821138212,22.764227642276424 17.58130081300813,23.42479674796748 17.53048780487805,24.23780487804878 17.479674796747968,24.745934959349594 17.479674796747968,25.35569105691057 17.428861788617887,26.371951219512194 17.428861788617887,27.184959349593495 17.428861788617887,27.997967479674795 17.378048780487806,28.65853658536585 17.327235772357724,28.96341463414634 17.276422764227643,29.31910569105691 17.17479674796748,29.979674796747968 17.073170731707318,30.38617886178862 16.971544715447155,30.79268292682927 16.920731707317074,31.046747967479675 16.869918699186993,31.30081300813008 16.81910569105691,31.504065040650406 16.76829268292683,31.65650406504065 16.666666666666668,31.808943089430894 16.666666666666668,31.910569105691057" fill="none" stroke="black" stroke-width="0.6"></polyline><polyline points="14.989837398373984,28.861788617886177 14.989837398373984,28.810975609756095 14.939024390243903,28.760162601626014 14.888211382113822,28.709349593495933 14.888211382113822,28.709349593495933 14.939024390243903,28.709349593495933 15.19308943089431,28.709349593495933 15.548780487804878,28.760162601626014 16.15853658536585,28.810975609756095 16.869918699186993,28.861788617886177 17.58130081300813,28.96341463414634 18.140243902439025,29.0650406504065 18.648373983739837,29.0650406504065 19.258130081300813,29.0650406504065 19.766260162601625,29.0650406504065 20.071138211382113,29.01422764227642" fill="none" stroke="black" stroke-width="0.6"></polyline><polyline points="32.36788617886179,26.98170731707317 32.418699186991866,26.880081300813007 32.52032520325203,26.778455284552845 32.672764227642276,26.57520325203252 32.82520325203252,26.371951219512194 33.02845528455285,26.067073170731707 33.18089430894309,25.76219512195122 33.23170731707317,25.40650406504065 33.23170731707317,25.05081300813008 33.23170731707317,24.64430894308943 33.18089430894309,24.390243902439025 32.97764227642276,24.1869918699187 32.77439024390244,24.034552845528456 32.46951219512195,23.983739837398375 32.11382113821138,24.034552845528456 31.60569105691057,24.23780487804878 31.148373983739837,24.59349593495935 30.741869918699187,25.101626016260163 30.335365853658537,25.711382113821138 30.132113821138212,26.21951219512195 29.979674796747968,26.6260162601626 29.979674796747968,26.98170731707317 30.08130081300813,27.184959349593495 30.233739837398375,27.286585365853657 30.48780487804878,27.33739837398374 30.79268292682927,27.33739837398374 31.148373983739837,27.235772357723576 31.554878048780488,27.03252032520325 31.961382113821138,26.778455284552845 32.36788617886179,26.473577235772357 32.82520325203252,26.117886178861788 33.13008130081301,25.8130081300813 33.38414634146341,25.508130081300813 33.58739837398374,25.254065040650406 33.6890243902439,25.101626016260163 33.739837398373986,25.05081300813008 33.790650406504064,25 33.790650406504064,25 33.790650406504064,25 33.790650406504064,25.101626016260163 33.790650406504064,25.254065040650406 33.739837398373986,25.508130081300813 33.6890243902439,25.914634146341463 33.63821138211382,26.321138211382113 33.58739837398374,26.829268292682926 33.485772357723576,27.489837398373982 33.4349593495935,28.15040650406504 33.333333333333336,28.861788617886177 33.28252032520325,29.573170731707318 33.23170731707317,30.132113821138212 33.18089430894309,30.589430894308943" fill="none" stroke="black" stroke-width="0.6"></polyline><polyline points="33.18089430894309,30.589430894308943 33.13008130081301,30.89430894308943 33.079268292682926,31.097560975609756 33.02845528455285,31.25 32.926829268292686,31.30081300813008 32.82520325203252,31.30081300813008 32.672764227642276,31.351626016260163 32.52032520325203,31.351626016260163 32.266260162601625,31.30081300813008 32.012195121951216,31.25 31.70731707317073,31.097560975609756 31.402439024390244,30.89430894308943 31.097560975609756,30.640243902439025 30.84349593495935,30.335365853658537 30.640243902439025,30.08130081300813 30.48780487804878,29.928861788617887 30.4369918699187,29.878048780487806 30.4369918699187,29.878048780487806 30.4369918699187,29.878048780487806 30.589430894308943,29.878048780487806 30.84349593495935,29.979674796747968" fill="none" stroke="black" stroke-width="0.6"></polyline><polyline points="48.88211382113821,22.052845528455283 48.78048780487805,22.0020325203252 48.729674796747965,21.95121951219512 48.67886178861789,21.95121951219512 48.6280487804878,22.0020325203252 48.577235772357724,22.256097560975608 48.47560975609756,22.764227642276424 48.3739837398374,23.42479674796748 48.27235772357724,24.1869918699187 48.22154471544715,24.94918699186992 48.170731707317074,25.711382113821138 48.170731707317074,26.270325203252032 48.11991869918699,26.676829268292682 48.11991869918699,26.98170731707317 48.11991869918699,27.134146341463413 48.11991869918699,27.235772357723576 48.170731707317074,27.286585365853657 48.170731707317074,27.286585365853657 48.22154471544715,27.286585365853657 48.22154471544715,27.286585365853657 48.27235772357724,27.286585365853657 48.3739837398374,27.184959349593495 48.52642276422764,26.93089430894309 48.78048780487805,26.6260162601626 49.03455284552845,26.21951219512195 49.28861788617886,25.8130081300813 49.542682926829265,25.45731707317073 49.74593495934959,25.152439024390244 49.949186991869915,25 50.10162601626016,24.847560975609756 50.203252032520325,24.796747967479675 50.30487804878049,24.796747967479675 50.355691056910565,24.847560975609756 50.50813008130081,24.94918699186992 50.66056910569105,25.101626016260163 50.8130081300813,25.304878048780488 50.86382113821138,25.45731707317073 50.96544715447154,25.558943089430894 51.0670731707317,25.86382113821138 51.168699186991866,26.16869918699187 51.21951219512195,26.524390243902438 51.21951219512195,26.829268292682926 51.27032520325203,27.03252032520325 51.27032520325203,27.235772357723576 51.27032520325203,27.33739837398374 51.27032520325203,27.489837398373982 51.32113821138211,27.591463414634145 51.37195121951219,27.642276422764226 51.47357723577235,27.74390243902439 51.6260162601626,27.74390243902439" fill="none" stroke="black" stroke-width="0.6"></polyline><polyline points="62.449186991869915,26.21951219512195 62.60162601626016,26.21951219512195 62.90650406504065,26.16869918699187 63.21138211382114,26.16869918699187 63.516260162601625,26.16869918699187 63.71951219512195,26.270325203252032 63.922764227642276,26.371951219512194 64.07520325203252,26.524390243902438 64.1260162601626,26.727642276422763 64.22764227642276,26.98170731707317 64.22764227642276,27.286585365853657 64.22764227642276,27.591463414634145 64.22764227642276,27.896341463414632 64.17682926829268,28.15040650406504 64.1260162601626,28.353658536585364 64.07520325203252,28.506097560975608 64.02439024390243,28.65853658536585 63.97357723577235,28.709349593495933 63.922764227642276,28.760162601626014 63.922764227642276,28.810975609756095 63.922764227642276,28.810975609756095" fill="none" stroke="black" stroke-width="0.6"></polyline><polyline points="63.46544715447154,24.390243902439025 63.41463414634146,24.288617886178862 63.21138211382114,23.932926829268293 63.05894308943089,23.729674796747968 63.00813008130081,23.678861788617887 63.00813008130081,23.678861788617887 63.00813008130081,23.678861788617887 63.00813008130081,23.729674796747968 63.00813008130081,23.882113821138212 63.05894308943089,24.13617886178862" fill="none" stroke="black" stroke-width="0.6"></polyline><polyline points="81.45325203252033,25.558943089430894 81.5040650406504,25.558943089430894 81.5040650406504,25.558943089430894 81.5040650406504,25.508130081300813 81.5040650406504,25.558943089430894 81.5040650406504,25.711382113821138 81.5040650406504,26.016260162601625 81.5040650406504,26.524390243902438 81.55487804878048,27.134146341463413 81.60569105691057,27.84552845528455 81.65650406504065,28.60772357723577 81.7581300813008,29.166666666666664 81.8089430894309,29.420731707317074 81.8089430894309,29.67479674796748 81.8089430894309,30.182926829268293 81.8089430894309,30.48780487804878 81.7581300813008,30.741869918699187 81.60569105691057,30.995934959349594 81.40243902439025,31.097560975609756 81.19918699186992,31.19918699186992 80.89430894308943,31.30081300813008 80.58943089430895,31.351626016260163 80.28455284552845,31.351626016260163 79.92886178861788,31.30081300813008 79.6239837398374,31.148373983739837 79.3191056910569,30.945121951219512 79.01422764227642,30.691056910569106 78.86178861788618,30.335365853658537 78.76016260162602,29.928861788617887 78.70934959349593,29.420731707317074" fill="none" stroke="black" stroke-width="0.6"></polyline><polyline points="82.0630081300813,24.491869918699187 82.0630081300813,24.441056910569106 82.0630081300813,24.339430894308943 82.01219512195122,24.1869918699187 81.96138211382113,24.085365853658537 81.96138211382113,24.085365853658537 81.96138211382113,24.085365853658537 81.96138211382113,24.085365853658537 81.96138211382113,24.13617886178862 81.96138211382113,24.23780487804878" fill="none" stroke="black" stroke-width="0.6"></polyline><polyline points="14.939024390243903,38.05894308943089 14.83739837398374,38.05894308943089 14.786585365853659,38.05894308943089 14.735772357723578,38.05894308943089 14.735772357723578,38.3130081300813 14.735772357723578,38.77032520325203 14.735772357723578,39.48170731707317 14.684959349593496,40.447154471544714 14.684959349593496,41.5650406504065 14.634146341463413,42.42886178861789 14.53252032520325,43.24186991869919 14.430894308943088,43.953252032520325 14.380081300813007,44.359756097560975 14.329268292682926,44.8170731707317 14.278455284552845,45.27439024390244 14.278455284552845,45.579268292682926 14.227642276422763,45.833333333333336 14.227642276422763,45.985772357723576 14.278455284552845,46.03658536585366 14.380081300813007,46.03658536585366 14.48170731707317,46.03658536585366" fill="none" stroke="black" stroke-width="0.6"></polyline><polyline points="18.191056910569106,41.05691056910569 18.191056910569106,41.05691056910569 18.140243902439025,41.00609756097561 18.089430894308943,41.00609756097561 18.038617886178862,40.95528455284553 17.9369918699187,41.00609756097561 17.733739837398375,41.15853658536585 17.479674796747968,41.41260162601626 17.1239837398374,41.71747967479675 16.76829268292683,42.02235772357724 16.41260162601626,42.27642276422764 16.05691056910569,42.53048780487805 15.701219512195122,42.68292682926829 15.447154471544716,42.733739837398375 15.24390243902439,42.733739837398375 15.040650406504065,42.733739837398375 14.989837398373984,42.733739837398375 14.989837398373984,42.68292682926829 14.989837398373984,42.68292682926829 14.939024390243903,42.63211382113821 14.939024390243903,42.63211382113821 14.939024390243903,42.63211382113821 14.989837398373984,42.63211382113821 14.989837398373984,42.63211382113821 15.040650406504065,42.63211382113821 15.142276422764228,42.733739837398375 15.345528455284553,42.886178861788615 15.59959349593496,43.1910569105691 15.904471544715447,43.546747967479675 16.209349593495933,43.953252032520325 16.514227642276424,44.359756097560975 16.81910569105691,44.766260162601625 17.1239837398374,45.172764227642276 17.428861788617887,45.52845528455285 17.632113821138212,45.78252032520325 17.835365853658537,45.985772357723576 17.98780487804878,46.13821138211382 18.191056910569106,46.290650406504064 18.39430894308943,46.44308943089431 18.69918699186992,46.59552845528455" fill="none" stroke="black" stroke-width="0.6"></polyline><polyline points="32.3170731707317,39.1260162601626 32.266260162601625,39.1260162601626 32.21544715447154,39.07520325203252 32.21544715447154,39.07520325203252 32.21544715447154,39.22764227642276 32.21544715447154,39.583333333333336 32.3170731707317,40.142276422764226 32.36788617886179,40.90447154471545 32.46951219512195,41.86991869918699 32.52032520325203,42.733739837398375 32.52032520325203,43.49593495934959 32.52032520325203,44.15650406504065 32.52032520325203,44.61382113821138 32.52032520325203,45.02032520325203 32.52032520325203,45.325203252032516 32.52032520325203,45.52845528455285 32.52032520325203,45.73170731707317 32.52032520325203,45.833333333333336 32.57113821138211,45.9349593495935 32.672764227642276,46.03658536585366 32.77439024390244,46.08739837398374 32.97764227642276,46.13821138211382" fill="none" stroke="black" stroke-width="0.6"></polyline><polyline points="47.71341463414634,42.1239837398374 47.71341463414634,42.1239837398374 47.66260162601626,42.02235772357724 47.66260162601626,42.02235772357724 47.66260162601626,42.02235772357724 47.66260162601626,42.02235772357724 47.66260162601626,42.073170731707314 47.66260162601626,42.22560975609756 47.66260162601626,42.479674796747965 47.66260162601626,42.886178861788615 47.66260162601626,43.292682926829265 47.66260162601626,43.699186991869915 47.66260162601626,44.105691056910565 47.66260162601626,44.46138211382114 47.66260162601626,44.766260162601625 47.66260162601626,44.96951219512195 47.66260162601626,45.12195121951219 47.66260162601626,45.172764227642276 47.66260162601626,45.172764227642276 47.66260162601626,45.172764227642276 47.66260162601626,45.12195121951219 47.66260162601626,45.07113821138211 47.66260162601626,45.02032520325203 47.71341463414634,44.86788617886179 47.764227642276424,44.5630081300813 47.86585365853659,44.20731707317073 48.01829268292683,43.75 48.170731707317074,43.24186991869919 48.3739837398374,42.63211382113821 48.52642276422764,42.22560975609756 48.67886178861789,41.920731707317074 48.83130081300813,41.76829268292683 48.983739837398375,41.71747967479675 49.08536585365854,41.71747967479675 49.23780487804878,41.81910569105691 49.390243902439025,41.97154471544715 49.542682926829265,42.17479674796748 49.69512195121951,42.42886178861789 49.796747967479675,42.733739837398375 49.89837398373984,43.08943089430894 50,43.44512195121951 50.05081300813008,43.80081300813008 50.05081300813008,43.953252032520325 50.05081300813008,44.105691056910565 50.10162601626016,44.359756097560975 50.10162601626016,44.5630081300813 50.15243902439024,44.71544715447154 50.15243902439024,44.8170731707317 50.203252032520325,44.86788617886179 50.2540650406504,44.918699186991866 50.355691056910565,44.918699186991866" fill="none" stroke="black" stroke-width="0.6"></polyline><polyline points="50.355691056910565,44.918699186991866 50.40650406504065,44.766260162601625 50.55894308943089,44.512195121951216 50.71138211382114,44.105691056910565 50.91463414634146,43.699186991869915 51.11788617886179,43.1910569105691 51.37195121951219,42.63211382113821 51.6260162601626,42.1239837398374 51.880081300813,41.71747967479675 52.13414634146341,41.41260162601626 52.28658536585366,41.36178861788618 52.33739837398374,41.36178861788618 52.4390243902439,41.41260162601626 52.540650406504064,41.5650406504065 52.642276422764226,41.81910569105691 52.74390243902439,42.073170731707314 52.79471544715447,42.42886178861789 52.84552845528455,42.78455284552845 52.84552845528455,43.140243902439025 52.84552845528455,43.44512195121951 52.84552845528455,43.75 52.84552845528455,44.05487804878049 52.896341463414636,44.30894308943089 52.947154471544714,44.512195121951216 53.09959349593496,44.66463414634146 53.2520325203252,44.8170731707317 53.45528455284553,44.918699186991866 53.607723577235774,44.96951219512195" fill="none" stroke="black" stroke-width="0.6"></polyline><polyline points="63.61788617886179,42.27642276422764 63.61788617886179,42.27642276422764 63.61788617886179,42.27642276422764 63.61788617886179,42.27642276422764 63.61788617886179,42.3780487804878 63.668699186991866,42.53048780487805 63.668699186991866,42.83536585365854 63.668699186991866,43.24186991869919 63.668699186991866,43.699186991869915 63.668699186991866,44.105691056910565 63.668699186991866,44.41056910569105 63.668699186991866,44.61382113821138 63.668699186991866,44.66463414634146 63.668699186991866,44.66463414634146 63.668699186991866,44.66463414634146 63.668699186991866,44.61382113821138 63.668699186991866,44.5630081300813 63.668699186991866,44.41056910569105 63.668699186991866,44.20731707317073 63.77032520325203,43.85162601626016 63.87195121951219,43.44512195121951 64.02439024390243,43.03861788617886 64.1260162601626,42.63211382113821 64.27845528455285,42.27642276422764 64.43089430894308,41.97154471544715 64.58333333333333,41.81910569105691 64.6849593495935,41.76829268292683 64.78658536585365,41.76829268292683 64.88821138211382,41.86991869918699 65.04065040650406,42.02235772357724 65.1930894308943,42.17479674796748 65.39634146341463,42.42886178861789 65.54878048780488,42.68292682926829 65.65040650406505,42.83536585365854 65.7520325203252,42.9369918699187 65.90447154471545,43.24186991869919 66.0569105691057,43.49593495934959 66.15853658536585,43.699186991869915 66.26016260162602,43.953252032520325 66.3109756097561,44.105691056910565 66.36178861788618,44.20731707317073 66.41260162601625,44.359756097560975 66.46341463414635,44.46138211382114 66.5650406504065,44.5630081300813 66.66666666666667,44.66463414634146 66.76829268292683,44.71544715447154" fill="none" stroke="black" stroke-width="0.6"></polyline><polyline points="81.55487804878048,42.327235772357724 81.5040650406504,42.327235772357724 81.40243902439025,42.22560975609756 81.25,42.22560975609756 81.04674796747967,42.327235772357724 80.74186991869918,42.58130081300813 80.48780487804878,42.886178861788615 80.28455284552845,43.24186991869919 80.08130081300813,43.59756097560975 79.97967479674797,43.953252032520325 79.97967479674797,44.25813008130081 79.97967479674797,44.5630081300813 80.08130081300813,44.766260162601625 80.23373983739837,44.918699186991866 80.48780487804878,45.02032520325203 80.79268292682927,45.07113821138211 81.14837398373983,45.02032520325203 81.60569105691057,44.918699186991866 82.11382113821138,44.71544715447154 82.36788617886178,44.5630081300813 82.6219512195122,44.41056910569105 83.130081300813,44.15650406504065 83.48577235772358,43.85162601626016 83.84146341463415,43.59756097560975 84.14634146341463,43.292682926829265 84.34959349593495,42.98780487804878 84.45121951219512,42.68292682926829 84.5020325203252,42.3780487804878 84.5020325203252,42.073170731707314 84.34959349593495,41.920731707317074 84.1971544715447,41.76829268292683 83.84146341463415,41.666666666666664 83.3841463414634,41.666666666666664 82.77439024390243,41.666666666666664 82.11382113821138,41.71747967479675 81.30081300813008,41.920731707317074 80.28455284552845,42.27642276422764" fill="none" stroke="black" stroke-width="0.6"></polyline><polyline points="15.142276422764228,58.231707317073166 15.091463414634147,58.231707317073166 14.989837398373984,58.28252032520325 14.939024390243903,58.63821138211382 14.939024390243903,58.892276422764226 14.939024390243903,59.197154471544714 14.888211382113822,60.010162601626014 14.888211382113822,60.77235772357724 14.888211382113822,61.483739837398375 14.83739837398374,62.09349593495935 14.786585365853659,62.7540650406504 14.735772357723578,63.262195121951216 14.684959349593496,63.5670731707317 14.634146341463413,63.77032520325203 14.583333333333332,63.87195121951219 14.583333333333332,63.97357723577235 14.583333333333332,63.97357723577235 14.583333333333332,63.97357723577235" fill="none" stroke="black" stroke-width="0.6"></polyline><polyline points="14.1260162601626,59.146341463414636 14.07520325203252,59.04471544715447 14.024390243902438,58.892276422764226 14.024390243902438,58.84146341463415 14.024390243902438,58.739837398373986 14.227642276422763,58.63821138211382 14.430894308943088,58.536585365853654 14.786585365853659,58.43495934959349 15.294715447154472,58.38414634146341 15.802845528455284,58.38414634146341 16.3109756097561,58.485772357723576 16.76829268292683,58.63821138211382 17.17479674796748,58.84146341463415 17.58130081300813,59.04471544715447 17.88617886178862,59.2479674796748 18.089430894308943,59.40040650406504 18.29268292682927,59.603658536585364 18.39430894308943,59.75609756097561 18.39430894308943,59.857723577235774 18.34349593495935,60.0609756097561 18.241869918699187,60.21341463414634 18.038617886178862,60.46747967479675 17.784552845528456,60.670731707317074 17.58130081300813,60.823170731707314 17.327235772357724,60.92479674796748 16.971544715447155,61.077235772357724 16.71747967479675,61.17886178861789 16.463414634146343,61.28048780487805 16.209349593495933,61.33130081300813 16.05691056910569,61.33130081300813" fill="none" stroke="black" stroke-width="0.6"></polyline><polyline points="34.197154471544714,56.70731707317073 33.99390243902439,56.5040650406504 33.84146341463415,56.35162601626016 33.63821138211382,56.30081300813008 33.38414634146341,56.35162601626016 33.13008130081301,56.5040650406504 32.82520325203252,56.80894308943089 32.57113821138211,57.11382113821138 32.266260162601625,57.52032520325203 31.961382113821138,58.079268292682926 31.808943089430894,58.536585365853654 31.758130081300813,58.84146341463415 31.70731707317073,59.09552845528455 31.70731707317073,59.2479674796748 31.758130081300813,59.34959349593496 31.910569105691057,59.5020325203252 32.0630081300813,59.552845528455286 32.266260162601625,59.603658536585364 32.57113821138211,59.603658536585364 32.8760162601626,59.552845528455286 33.23170731707317,59.40040650406504 33.63821138211382,59.197154471544714 34.04471544715447,58.99390243902439 34.40040650406504,58.739837398373986 34.80691056910569,58.33333333333333 35.16260162601626,57.92682926829268 35.46747967479675,57.57113821138211 35.670731707317074,57.266260162601625 35.823170731707314,57.0630081300813 35.92479674796748,56.91056910569105 36.02642276422764,56.75813008130081 36.02642276422764,56.65650406504065 36.02642276422764,56.55487804878049 35.97560975609756,56.453252032520325 35.92479674796748,56.40243902439024 35.823170731707314,56.25 35.72154471544715,56.14837398373984 35.61991869918699,56.09756097560975 35.56910569105691,56.09756097560975 35.51829268292683,56.046747967479675 35.46747967479675,56.046747967479675 35.416666666666664,56.046747967479675 35.416666666666664,56.046747967479675 35.36585365853659,56.046747967479675 35.36585365853659,56.046747967479675 35.36585365853659,56.09756097560975 35.36585365853659,56.09756097560975 35.36585365853659,56.09756097560975 35.36585365853659,56.14837398373984 35.36585365853659,56.199186991869915 35.36585365853659,56.30081300813008" fill="none" stroke="black" stroke-width="0.6"></polyline><polyline points="35.36585365853659,56.30081300813008 35.36585365853659,56.453252032520325 35.36585365853659,56.70731707317073 35.36585365853659,57.012195121951216 35.36585365853659,57.46951219512195 35.36585365853659,57.97764227642276 35.36585365853659,58.536585365853654 35.36585365853659,59.09552845528455 35.36585365853659,59.603658536585364 35.3150406504065,60.11178861788618 35.264227642276424,60.670731707317074 35.21341463414634,61.077235772357724 35.21341463414634,61.483739837398375 35.21341463414634,61.78861788617886 35.21341463414634,62.09349593495935 35.264227642276424,62.296747967479675 35.3150406504065,62.449186991869915 35.36585365853659,62.55081300813008 35.416666666666664,62.55081300813008 35.416666666666664,62.55081300813008 35.46747967479675,62.55081300813008 35.51829268292683,62.5 35.61991869918699,62.34756097560975 35.823170731707314,62.14430894308943 36.02642276422764,61.83943089430894 36.17886178861789,61.58536585365854 36.33130081300813,61.38211382113821 36.53455284552845,61.1280487804878 36.636178861788615,60.92479674796748 36.78861788617886,60.72154471544715 36.9410569105691,60.56910569105691 37.09349593495935,60.416666666666664" fill="none" stroke="black" stroke-width="0.6"></polyline><polyline points="47.71341463414634,58.18089430894309 47.71341463414634,58.18089430894309 47.71341463414634,58.18089430894309 47.71341463414634,58.18089430894309 47.71341463414634,58.18089430894309 47.764227642276424,58.28252032520325 47.764227642276424,58.536585365853654 47.8150406504065,59.04471544715447 47.86585365853659,59.65447154471545 47.916666666666664,60.16260162601626 47.96747967479675,60.51829268292683 48.01829268292683,60.72154471544715 48.06910569105691,60.72154471544715 48.06910569105691,60.72154471544715 48.06910569105691,60.670731707317074 48.06910569105691,60.61991869918699 48.06910569105691,60.51829268292683 48.06910569105691,60.3150406504065 48.170731707317074,59.959349593495936 48.323170731707314,59.5020325203252 48.42479674796748,59.09552845528455 48.577235772357724,58.6890243902439 48.78048780487805,58.231707317073166 49.03455284552845,57.825203252032516 49.28861788617886,57.52032520325203 49.542682926829265,57.36788617886179 49.74593495934959,57.3170731707317 50,57.3170731707317 50.2540650406504,57.36788617886179 50.55894308943089,57.418699186991866 50.8130081300813,57.52032520325203 50.96544715447154,57.57113821138211 51.11788617886179,57.62195121951219 51.422764227642276,57.77439024390244 51.72764227642276,57.92682926829268 51.829268292682926,57.97764227642276" fill="none" stroke="black" stroke-width="0.6"></polyline><polyline points="65.59959349593495,57.62195121951219 65.59959349593495,57.62195121951219 65.59959349593495,57.57113821138211 65.54878048780488,57.46951219512195 65.4979674796748,57.418699186991866 65.44715447154472,57.418699186991866 65.44715447154472,57.36788617886179 65.34552845528455,57.36788617886179 65.1930894308943,57.36788617886179 64.98983739837398,57.418699186991866 64.73577235772358,57.52032520325203 64.43089430894308,57.672764227642276 64.1260162601626,57.825203252032516 63.87195121951219,58.02845528455284 63.71951219512195,58.18089430894309 63.61788617886179,58.28252032520325 63.5670731707317,58.38414634146341 63.5670731707317,58.485772357723576 63.61788617886179,58.536585365853654 63.77032520325203,58.63821138211382 63.922764227642276,58.739837398373986 64.17682926829268,58.790650406504064 64.43089430894308,58.892276422764226 64.73577235772358,58.99390243902439 65.04065040650406,59.146341463414636 65.34552845528455,59.2479674796748 65.59959349593495,59.40040650406504 65.90447154471545,59.65447154471545 66.0569105691057,59.80691056910569 66.15853658536585,60.010162601626014 66.15853658536585,60.16260162601626 66.10772357723577,60.3150406504065 65.95528455284553,60.416666666666664 65.7520325203252,60.51829268292683 65.44715447154472,60.670731707317074 65.1930894308943,60.77235772357724 65.04065040650406,60.823170731707314 64.88821138211382,60.823170731707314 64.6341463414634,60.8739837398374 64.32926829268293,60.92479674796748 64.07520325203252,60.92479674796748 63.87195121951219,60.92479674796748 63.668699186991866,60.92479674796748 63.5670731707317,60.8739837398374" fill="none" stroke="black" stroke-width="0.6"></polyline><polyline points="80.64024390243902,56.55487804878049 80.64024390243902,56.55487804878049 80.64024390243902,56.55487804878049 80.64024390243902,56.55487804878049 80.64024390243902,56.65650406504065 80.64024390243902,56.96138211382114 80.58943089430895,57.418699186991866 80.53861788617886,58.02845528455284 80.48780487804878,58.739837398373986 80.38617886178862,59.298780487804876 80.33536585365853,59.80691056910569 80.23373983739837,60.264227642276424 80.1829268292683,60.51829268292683 80.1829268292683,60.77235772357724 80.1321138211382,60.97560975609756 80.1321138211382,61.1280487804878 80.1321138211382,61.229674796747965 80.1321138211382,61.33130081300813 80.1321138211382,61.38211382113821 80.1321138211382,61.38211382113821" fill="none" stroke="black" stroke-width="0.6"></polyline><polyline points="79.0650406504065,59.70528455284553 79.0650406504065,59.65447154471545 78.96341463414635,59.5020325203252 78.91260162601625,59.40040650406504 78.86178861788618,59.34959349593496 78.86178861788618,59.298780487804876 78.86178861788618,59.298780487804876 78.86178861788618,59.298780487804876 78.91260162601625,59.298780487804876 79.0650406504065,59.298780487804876 79.3191056910569,59.298780487804876 79.72560975609755,59.298780487804876 80.1829268292683,59.2479674796748 80.74186991869918,59.146341463414636 81.30081300813008,59.09552845528455 81.8089430894309,58.99390243902439 82.26626016260163,58.99390243902439 82.67276422764228,58.94308943089431 82.97764227642276,58.94308943089431 83.18089430894308,58.99390243902439" fill="none" stroke="black" stroke-width="0.6"></polyline><polyline points="13.871951219512194,74.59349593495935 13.871951219512194,74.59349593495935 13.871951219512194,74.49186991869918 13.871951219512194,74.4410569105691 13.871951219512194,74.39024390243902 13.871951219512194,74.39024390243902 13.871951219512194,74.4410569105691 13.922764227642276,74.59349593495935 13.973577235772357,74.89837398373983 14.024390243902438,75.35569105691057 14.07520325203252,75.8130081300813 14.1260162601626,76.3211382113821 14.176829268292682,76.880081300813 14.227642276422763,77.33739837398373 14.329268292682926,77.6930894308943 14.48170731707317,77.9979674796748 14.634146341463413,78.15040650406505 14.786585365853659,78.20121951219512 14.989837398373984,78.20121951219512 15.19308943089431,78.20121951219512 15.447154471544716,78.09959349593495 15.752032520325203,77.84552845528455 15.853658536585366,77.74390243902438 16.006097560975608,77.59146341463415 16.3109756097561,77.28658536585365 16.615853658536587,76.93089430894308 16.76829268292683,76.6260162601626 16.920731707317074,76.3211382113821 17.073170731707318,76.0670731707317 17.1239837398374,75.76219512195122 17.17479674796748,75.5589430894309 17.225609756097562,75.35569105691057 17.225609756097562,75.30487804878048 17.225609756097562,75.30487804878048 17.225609756097562,75.30487804878048 17.225609756097562,75.30487804878048 17.17479674796748,75.35569105691057 17.17479674796748,75.40650406504065 17.17479674796748,75.60975609756098 17.17479674796748,75.91463414634146 17.17479674796748,76.3719512195122 17.17479674796748,76.77845528455285 17.225609756097562,77.23577235772358 17.327235772357724,77.74390243902438 17.479674796747968,78.09959349593495 17.682926829268293,78.40447154471545 17.9369918699187,78.60772357723577 18.241869918699187,78.76016260162602 18.597560975609756,78.76016260162602" fill="none" stroke="black" stroke-width="0.6"></polyline><polyline points="32.21544715447154,74.23780487804878 32.16463414634146,74.23780487804878 32.11382113821138,74.23780487804878 32.0630081300813,74.23780487804878 32.0630081300813,74.33943089430895 32.0630081300813,74.59349593495935 32.0630081300813,75.05081300813008 32.16463414634146,75.66056910569105 32.21544715447154,76.27032520325203 32.3170731707317,76.82926829268293 32.418699186991866,77.33739837398373 32.52032520325203,77.6930894308943 32.6219512195122,77.89634146341463 32.72357723577236,78.09959349593495 32.82520325203252,78.15040650406505 32.926829268292686,78.15040650406505 33.079268292682926,78.15040650406505 33.18089430894309,78.09959349593495 33.4349593495935,77.89634146341463 33.739837398373986,77.59146341463415 34.04471544715447,77.1849593495935 34.40040650406504,76.67682926829268 34.70528455284553,76.16869918699187 35.0609756097561,75.66056910569105 35.36585365853659,75.05081300813008 35.72154471544715,74.49186991869918 36.077235772357724,74.13617886178862 36.229674796747965,73.98373983739837 36.6869918699187,73.72967479674797 36.78861788617886,73.67886178861788 36.9410569105691,73.6280487804878 37.24593495934959,73.6280487804878 37.5,73.67886178861788 37.65243902439024,73.72967479674797" fill="none" stroke="black" stroke-width="0.6"></polyline><polyline points="45.985772357723576,75.2540650406504 45.985772357723576,75.2540650406504 45.985772357723576,75.2540650406504 45.985772357723576,75.30487804878048 45.985772357723576,75.30487804878048 45.985772357723576,75.40650406504065 45.985772357723576,75.60975609756098 45.985772357723576,76.01626016260163 46.03658536585366,76.52439024390243 46.13821138211382,77.03252032520325 46.239837398373986,77.38821138211382 46.34146341463415,77.6930894308943 46.49390243902439,77.79471544715447 46.59552845528455,77.84552845528455 46.697154471544714,77.84552845528455 46.84959349593496,77.6930894308943 47.0020325203252,77.54065040650406 47.15447154471545,77.28658536585365 47.25609756097561,77.03252032520325 47.40853658536585,76.77845528455285 47.510162601626014,76.52439024390243 47.5609756097561,76.3719512195122 47.61178861788618,76.21951219512195 47.61178861788618,76.16869918699187 47.61178861788618,76.16869918699187 47.61178861788618,76.16869918699187 47.61178861788618,76.21951219512195 47.66260162601626,76.3211382113821 47.764227642276424,76.47357723577235 47.86585365853659,76.72764227642276 48.01829268292683,76.93089430894308 48.170731707317074,77.23577235772358 48.323170731707314,77.54065040650406 48.52642276422764,77.79471544715447 48.729674796747965,77.9471544715447 48.93292682926829,78.09959349593495 49.1869918699187,78.09959349593495 49.390243902439025,78.09959349593495 49.59349593495935,77.89634146341463 49.84756097560975,77.64227642276423 50.10162601626016,77.33739837398373 50.203252032520325,77.1341463414634 50.355691056910565,76.98170731707317 50.55894308943089,76.6260162601626 50.71138211382114,76.27032520325203 50.86382113821138,75.91463414634146 50.96544715447154,75.5589430894309 51.016260162601625,75.15243902439025 51.0670731707317,74.79674796747967 51.0670731707317,74.59349593495935 51.0670731707317,74.54268292682927" fill="none" stroke="black" stroke-width="0.6"></polyline><polyline points="51.0670731707317,74.54268292682927 51.0670731707317,74.49186991869918 51.0670731707317,74.49186991869918 51.0670731707317,74.49186991869918 51.0670731707317,74.49186991869918 51.0670731707317,74.54268292682927 51.11788617886179,74.64430894308943 51.21951219512195,74.79674796747967" fill="none" stroke="black" stroke-width="0.6"></polyline><polyline points="63.516260162601625,74.13617886178862 63.5670731707317,74.13617886178862 63.5670731707317,74.08536585365853 63.5670731707317,74.08536585365853 63.5670731707317,74.03455284552845 63.5670731707317,74.03455284552845 63.5670731707317,73.98373983739837 63.5670731707317,73.98373983739837 63.5670731707317,73.98373983739837 63.61788617886179,74.08536585365853 63.77032520325203,74.28861788617886 63.97357723577235,74.6951219512195 64.32926829268293,75.15243902439025 64.6849593495935,75.71138211382113 65.09146341463415,76.16869918699187 65.4979674796748,76.57520325203252 65.85365853658537,76.880081300813 66.15853658536585,77.03252032520325 66.41260162601625,77.23577235772358 66.71747967479675,77.38821138211382 66.92073170731707,77.4390243902439 67.17479674796748,77.54065040650406 67.3780487804878,77.59146341463415" fill="none" stroke="black" stroke-width="0.6"></polyline><polyline points="66.76829268292683,74.79674796747967 66.51422764227642,74.79674796747967 66.20934959349593,74.84756097560975 65.95528455284553,75.15243902439025 65.70121951219512,75.66056910569105 65.34552845528455,76.21951219512195 65.09146341463415,76.72764227642276 64.88821138211382,77.23577235772358 64.6341463414634,77.74390243902438 64.48170731707317,78.04878048780488 64.380081300813,78.35365853658537 64.32926829268293,78.5569105691057 64.32926829268293,78.70934959349593 64.32926829268293,78.8109756097561 64.43089430894308,78.86178861788618 64.6849593495935,78.86178861788618" fill="none" stroke="black" stroke-width="0.6"></polyline><polyline points="76.98170731707317,74.94918699186992 77.03252032520325,75 77.08333333333333,75.05081300813008 77.1341463414634,75.05081300813008 77.23577235772358,75.15243902439025 77.38821138211382,75.2540650406504 77.59146341463415,75.45731707317073 77.84552845528455,75.66056910569105 77.9471544715447,75.76219512195122 78.09959349593495,75.91463414634146 78.30284552845528,76.11788617886178 78.5060975609756,76.27032520325203 78.70934959349593,76.47357723577235 78.86178861788618,76.57520325203252 79.01422764227642,76.6260162601626 79.11585365853658,76.72764227642276 79.26829268292683,76.72764227642276 79.42073170731707,76.72764227642276 79.67479674796748,76.67682926829268" fill="none" stroke="black" stroke-width="0.6"></polyline><polyline points="80.1321138211382,74.13617886178862 80.03048780487805,74.1869918699187 79.92886178861788,74.28861788617886 79.77642276422765,74.49186991869918 79.67479674796748,74.64430894308943 79.57317073170732,74.89837398373983 79.3191056910569,75.45731707317073 79.01422764227642,76.16869918699187 78.70934959349593,76.77845528455285 78.45528455284553,77.38821138211382 78.2520325203252,77.9471544715447 78.04878048780488,78.35365853658537 77.89634146341463,78.70934959349593 77.79471544715447,79.01422764227642 77.6930894308943,79.26829268292683 77.64227642276423,79.47154471544715 77.64227642276423,79.6239837398374 77.64227642276423,79.72560975609755 77.64227642276423,79.82723577235772 77.6930894308943,79.92886178861788" fill="none" stroke="black" stroke-width="0.6"></polyline><polyline points="15.65040650406504,89.43089430894308 15.59959349593496,89.380081300813 15.497967479674797,89.32926829268293 15.396341463414634,89.27845528455285 15.396341463414634,89.27845528455285 15.345528455284553,89.27845528455285 15.345528455284553,89.27845528455285 15.345528455284553,89.27845528455285 15.345528455284553,89.27845528455285 15.396341463414634,89.27845528455285 15.548780487804878,89.27845528455285 15.701219512195122,89.27845528455285 16.006097560975608,89.27845528455285 16.3109756097561,89.22764227642276 16.666666666666668,89.1260162601626 17.073170731707318,89.07520325203252 17.58130081300813,89.02439024390243 18.089430894308943,88.92276422764228 18.546747967479675,88.8719512195122 18.953252032520325,88.8719512195122 19.258130081300813,88.8211382113821 19.461382113821138,88.8719512195122 19.61382113821138,88.92276422764228 19.664634146341463,89.02439024390243 19.664634146341463,89.17682926829268 19.61382113821138,89.43089430894308 19.461382113821138,89.73577235772358 19.15650406504065,90.09146341463415 18.80081300813008,90.4979674796748 18.445121951219512,90.95528455284553 17.98780487804878,91.41260162601625 17.479674796747968,91.869918699187 17.022357723577237,92.27642276422765 16.565040650406505,92.6321138211382 16.10772357723577,93.03861788617886 15.802845528455284,93.29268292682927 15.497967479674797,93.54674796747967 15.24390243902439,93.75 15.091463414634147,93.85162601626016 14.989837398373984,93.85162601626016 14.989837398373984,93.90243902439025 14.989837398373984,93.90243902439025 15.040650406504065,93.90243902439025 15.19308943089431,93.85162601626016 15.497967479674797,93.75 15.802845528455284,93.64837398373983 16.260162601626014,93.54674796747967 16.666666666666668,93.4451219512195 17.17479674796748,93.34349593495935 17.733739837398375,93.1910569105691 18.191056910569106,93.08943089430895" fill="none" stroke="black" stroke-width="0.6"></polyline><polyline points="18.191056910569106,93.08943089430895 18.69918699186992,92.98780487804878 19.20731707317073,92.88617886178862 19.61382113821138,92.83536585365853 20.020325203252032,92.78455284552845 20.223577235772357,92.78455284552845" fill="none" stroke="black" stroke-width="0.6"></polyline></svg>