<svg height="100" width="100" preserveAspectRatio="xMidYMid meet"><polyline points="10.97560975609756,5.589430894308943 10.924796747967479,5.589430894308943 10.823170731707316,5.48780487804878 10.772357723577235,5.3861788617886175 10.721544715447154,5.3861788617886175 10.721544715447154,5.3861788617886175 10.619918699186991,5.3861788617886175 10.56910569105691,5.3861788617886175 10.518292682926829,5.3861788617886175 10.365853658536585,5.589430894308943 10.264227642276422,5.741869918699187 10.16260162601626,5.894308943089431 9.908536585365853,6.402439024390244 9.603658536585366,7.012195121951219 9.197154471544716,7.876016260162602 8.790650406504065,8.892276422764228 8.434959349593496,9.857723577235772 8.18089430894309,10.772357723577235 7.977642276422764,11.585365853658537 7.774390243902439,12.398373983739837 7.723577235772358,13.109756097560975 7.774390243902439,13.567073170731707 7.977642276422764,13.922764227642276 8.282520325203253,14.227642276422763 8.58739837398374,14.48170731707317 8.94308943089431,14.684959349593496 9.34959349593496,14.786585365853659 9.80691056910569,14.786585365853659 10.315040650406504,14.684959349593496 10.823170731707316,14.380081300813007 11.331300813008129,13.973577235772357 11.941056910569106,13.363821138211382 12.449186991869919,12.703252032520325 12.90650406504065,11.991869918699187 13.3130081300813,11.280487804878048 13.617886178861788,10.619918699186991 13.821138211382113,9.857723577235772 13.973577235772357,9.044715447154472 14.024390243902438,8.333333333333334 13.973577235772357,7.571138211382114 13.821138211382113,6.9105691056910565 13.567073170731707,6.453252032520325 13.262195121951219,6.046747967479675 13.109756097560975,5.84349593495935 12.855691056910569,5.691056910569106 12.398373983739837,5.48780487804878 11.890243902439025,5.3861788617886175 11.280487804878048,5.3861788617886175 10.772357723577235,5.436991869918699 10.213414634146341,5.691056910569106 9.654471544715447,6.1483739837398375" fill="none" stroke="black" stroke-width="0.6"></polyline><polyline points="9.654471544715447,6.1483739837398375 9.298780487804878,6.554878048780488 9.044715447154472,7.0630081300813 8.841463414634147,7.6727642276422765" fill="none" stroke="black" stroke-width="0.6"></polyline><polyline points="10.619918699186991,10.670731707317072 10.467479674796747,10.56910569105691 10.264227642276422,10.467479674796747 10.16260162601626,10.416666666666666 10.16260162601626,10.416666666666666 10.16260162601626,10.365853658536585 10.16260162601626,10.365853658536585 10.264227642276422,10.264227642276422 10.467479674796747,10.111788617886178 10.823170731707316,9.857723577235772 11.178861788617885,9.654471544715447 11.534552845528456,9.451219512195122 11.839430894308943,9.298780487804878 12.144308943089431,9.197154471544716 12.398373983739837,9.197154471544716 12.601626016260163,9.247967479674797 12.855691056910569,9.34959349593496 13.008130081300813,9.603658536585366 13.160569105691057,9.908536585365853 13.211382113821138,10.365853658536585 13.211382113821138,10.97560975609756 13.160569105691057,11.737804878048781 13.058943089430894,12.195121951219512 13.008130081300813,12.703252032520325 12.855691056910569,13.567073170731707 12.804878048780488,13.922764227642276 12.703252032520325,14.989837398373984 12.703252032520325,15.24390243902439 12.703252032520325,15.447154471544716 12.754065040650406,15.802845528455284 12.855691056910569,16.05691056910569 12.957317073170731,16.209349593495933 13.160569105691057,16.260162601626014 13.363821138211382,16.3109756097561 13.567073170731707,16.3109756097561 13.922764227642276,16.10772357723577 14.329268292682926,15.752032520325203 14.735772357723578,15.24390243902439 15.142276422764228,14.634146341463413 15.548780487804878,13.973577235772357 15.853658536585366,13.363821138211382 16.15853658536585,12.754065040650406 16.41260162601626,12.09349593495935 16.565040650406505,11.585365853658537 16.666666666666668,11.178861788617885 16.71747967479675,10.873983739837398 16.76829268292683,10.772357723577235 16.76829268292683,10.721544715447154 16.76829268292683,10.721544715447154 16.76829268292683,10.721544715447154 16.76829268292683,10.721544715447154" fill="none" stroke="black" stroke-width="0.6"></polyline><polyline points="16.76829268292683,10.721544715447154 16.76829268292683,10.772357723577235 16.71747967479675,10.873983739837398 16.615853658536587,11.229674796747966 16.463414634146343,11.839430894308943 16.260162601626014,12.5 16.05691056910569,13.262195121951219 15.904471544715447,14.024390243902438 15.802845528455284,14.684959349593496 15.802845528455284,15.19308943089431 15.904471544715447,15.548780487804878 16.15853658536585,15.701219512195122 16.463414634146343,15.752032520325203 16.76829268292683,15.752032520325203 17.073170731707318,15.701219512195122 17.479674796747968,15.497967479674797 17.88617886178862,15.091463414634147 18.29268292682927,14.583333333333332 18.69918699186992,13.973577235772357 19.10569105691057,13.363821138211382 19.410569105691057,12.804878048780488 19.61382113821138,12.398373983739837 19.715447154471544,12.042682926829269 19.715447154471544,11.788617886178862 19.715447154471544,11.737804878048781 19.715447154471544,11.6869918699187 19.664634146341463,11.6869918699187 19.61382113821138,11.6869918699187 19.5630081300813,11.737804878048781 19.51219512195122,11.839430894308943 19.410569105691057,12.09349593495935 19.20731707317073,12.550813008130081 19.054878048780488,13.058943089430894 18.902439024390244,13.516260162601625 18.80081300813008,14.024390243902438 18.80081300813008,14.380081300813007 18.902439024390244,14.634146341463413 19.10569105691057,14.83739837398374 19.410569105691057,14.888211382113822 19.817073170731707,14.888211382113822 20.274390243902438,14.684959349593496 20.78252032520325,14.329268292682926 21.341463414634145,13.821138211382113 21.798780487804876,13.3130081300813 22.205284552845526,12.804878048780488 22.510162601626014,12.347560975609756 22.611788617886177,12.09349593495935 22.611788617886177,11.941056910569106 22.611788617886177,11.941056910569106 22.611788617886177,11.941056910569106 22.560975609756095,11.941056910569106" fill="none" stroke="black" stroke-width="0.6"></polyline><polyline points="22.560975609756095,11.941056910569106 22.510162601626014,11.991869918699187 22.459349593495933,12.042682926829269 22.35772357723577,12.245934959349594 22.205284552845526,12.550813008130081 22.103658536585364,12.90650406504065 22.0020325203252,13.262195121951219 21.95121951219512,13.617886178861788 21.95121951219512,13.821138211382113 22.0020325203252,14.024390243902438 22.154471544715445,14.1260162601626 22.35772357723577,14.176829268292682 22.662601626016258,14.1260162601626 23.01829268292683,13.973577235772357 23.3739837398374,13.770325203252032 23.83130081300813,13.414634146341463 24.288617886178862,12.957317073170731 24.64430894308943,12.601626016260163 24.94918699186992,12.195121951219512 25.254065040650406,11.890243902439025 25.45731707317073,11.6869918699187 25.558943089430894,11.534552845528456 25.660569105691057,11.432926829268293 25.660569105691057,11.382113821138212 25.711382113821138,11.382113821138212 25.711382113821138,11.382113821138212 25.711382113821138,11.382113821138212 25.660569105691057,11.382113821138212 25.609756097560975,11.432926829268293 25.40650406504065,11.585365853658537 25.203252032520325,11.890243902439025 24.898373983739837,12.347560975609756 24.64430894308943,12.855691056910569 24.390243902439025,13.363821138211382 24.23780487804878,13.821138211382113 24.1869918699187,14.176829268292682 24.1869918699187,14.48170731707317 24.339430894308943,14.634146341463413 24.59349593495935,14.735772357723578 24.847560975609756,14.735772357723578 25.254065040650406,14.634146341463413 25.76219512195122,14.278455284552845 26.321138211382113,13.71951219512195 26.93089430894309,13.058943089430894 27.489837398373982,12.398373983739837 28.048780487804876,11.636178861788618 28.506097560975608,10.924796747967479 28.810975609756095,10.315040650406504 28.96341463414634,9.705284552845528 29.0650406504065,9.146341463414634 29.115853658536583,8.790650406504065" fill="none" stroke="black" stroke-width="0.6"></polyline><polyline points="29.115853658536583,8.790650406504065 29.0650406504065,8.536585365853659 29.01422764227642,8.485772357723578 28.96341463414634,8.485772357723578 28.912601626016258,8.536585365853659 28.810975609756095,8.739837398373984 28.55691056910569,9.197154471544716 28.2520325203252,9.959349593495935 27.896341463414632,10.823170731707316 27.642276422764226,11.6869918699187 27.38821138211382,12.652439024390244 27.33739837398374,13.058943089430894 27.286585365853657,13.414634146341463 27.286585365853657,13.871951219512194 27.33739837398374,14.1260162601626 27.4390243902439,14.1260162601626 27.540650406504064,14.1260162601626 27.642276422764226,14.1260162601626 27.642276422764226,14.07520325203252 27.693089430894307,14.024390243902438 27.79471544715447,13.871951219512194 27.947154471544714,13.516260162601625 28.15040650406504,13.058943089430894 28.404471544715445,12.5 28.60772357723577,12.09349593495935 28.760162601626014,11.788617886178862 28.810975609756095,11.534552845528456 28.861788617886177,11.534552845528456 28.861788617886177,11.534552845528456 28.861788617886177,11.585365853658537 28.810975609756095,11.6869918699187 28.810975609756095,11.890243902439025 28.810975609756095,12.296747967479675 28.810975609756095,12.804878048780488 28.810975609756095,13.262195121951219 28.861788617886177,13.770325203252032 28.912601626016258,14.176829268292682 29.0650406504065,14.430894308943088 29.268292682926827,14.634146341463413 29.522357723577237,14.735772357723578 29.776422764227643,14.786585365853659 30.03048780487805,14.735772357723578 30.284552845528456,14.583333333333332 30.48780487804878,14.329268292682926" fill="none" stroke="black" stroke-width="0.6"></polyline><polyline points="25.45731707317073,9.75609756097561 25.152439024390244,9.75609756097561 24.695121951219512,9.552845528455284 24.441056910569106,9.552845528455284 24.390243902439025,9.552845528455284 24.390243902439025,9.552845528455284 24.390243902439025,9.552845528455284 24.441056910569106,9.705284552845528 24.64430894308943,9.959349593495935" fill="none" stroke="black" stroke-width="0.6"></polyline><polyline points="36.43292682926829,14.786585365853659 36.43292682926829,14.786585365853659 36.43292682926829,14.786585365853659 36.43292682926829,14.786585365853659 36.483739837398375,14.888211382113822 36.58536585365854,14.989837398373984 36.83943089430894,15.091463414634147 37.14430894308943,15.19308943089431 37.60162601626016,15.19308943089431 38.21138211382114,14.989837398373984 38.922764227642276,14.53252032520325 39.583333333333336,13.922764227642276 40.142276422764226,13.262195121951219 40.701219512195124,12.550813008130081 41.00609756097561,11.890243902439025 41.36178861788618,11.280487804878048 41.61585365853659,10.619918699186991 41.76829268292683,10.010162601626016 41.86991869918699,9.40040650406504 41.920731707317074,8.841463414634147 41.920731707317074,8.485772357723578 41.86991869918699,8.282520325203253 41.81910569105691,8.18089430894309 41.81910569105691,8.18089430894309 41.76829268292683,8.18089430894309 41.76829268292683,8.18089430894309 41.76829268292683,8.231707317073171 41.71747967479675,8.434959349593496 41.5650406504065,9.044715447154472 41.3109756097561,9.959349593495935 41.05691056910569,11.026422764227641 40.802845528455286,12.245934959349594 40.447154471544714,13.71951219512195 40.09146341463415,15.19308943089431 39.78658536585366,16.565040650406505 39.6849593495935,17.276422764227643 39.583333333333336,17.784552845528456 39.48170731707317,18.69918699186992 39.43089430894309,19.5630081300813 39.43089430894309,20.32520325203252 39.43089430894309,20.833333333333332 39.48170731707317,21.239837398373982 39.53252032520325,21.49390243902439 39.6849593495935,21.59552845528455 39.78658536585366,21.59552845528455 39.9390243902439,21.59552845528455 40.142276422764226,21.392276422764226 40.396341463414636,20.985772357723576 40.7520325203252,20.3760162601626 41.15853658536585,19.664634146341463 41.514227642276424,18.902439024390244" fill="none" stroke="black" stroke-width="0.6"></polyline><polyline points="41.514227642276424,18.902439024390244 41.81910569105691,18.089430894308943 42.073170731707314,17.327235772357724 42.27642276422764,16.565040650406505 42.327235772357724,15.752032520325203 42.327235772357724,15.040650406504065 42.1239837398374,14.278455284552845 41.81910569105691,13.465447154471544 41.46341463414634,12.804878048780488 41.00609756097561,12.296747967479675 40.59959349593496,12.144308943089431 40.24390243902439,12.09349593495935 39.78658536585366,12.245934959349594 39.43089430894309,12.5 39.1260162601626,12.855691056910569 38.87195121951219,13.3130081300813 38.77032520325203,13.66869918699187 38.71951219512195,14.07520325203252 38.77032520325203,14.380081300813007 38.97357723577235,14.634146341463413 39.27845528455285,14.786585365853659 39.6849593495935,14.888211382113822 40.142276422764226,14.888211382113822 40.701219512195124,14.735772357723578 41.260162601626014,14.48170731707317 41.81910569105691,14.1260162601626 42.327235772357724,13.71951219512195 42.886178861788615,13.363821138211382 43.1910569105691,13.058943089430894 43.39430894308943,12.855691056910569 43.49593495934959,12.804878048780488 43.49593495934959,12.804878048780488 43.49593495934959,12.804878048780488 43.44512195121951,12.855691056910569 43.44512195121951,12.855691056910569 43.39430894308943,12.957317073170731 43.39430894308943,13.058943089430894 43.34349593495935,13.211382113821138 43.24186991869919,13.567073170731707 43.140243902439025,13.922764227642276 43.08943089430894,14.329268292682926 43.08943089430894,14.684959349593496 43.08943089430894,14.989837398373984 43.140243902439025,15.24390243902439 43.292682926829265,15.396341463414634 43.546747967479675,15.447154471544716 43.80081300813008,15.447154471544716 44.05487804878049,15.345528455284553 44.359756097560975,15.142276422764228 44.66463414634146,14.83739837398374 44.96951219512195,14.430894308943088" fill="none" stroke="black" stroke-width="0.6"></polyline><polyline points="44.96951219512195,14.430894308943088 45.22357723577235,14.024390243902438 45.3760162601626,13.617886178861788 45.3760162601626,13.363821138211382 45.3760162601626,13.109756097560975 45.22357723577235,12.804878048780488 45.02032520325203,12.601626016260163 44.918699186991866,12.5 44.8170731707317,12.398373983739837 44.61382113821138,12.296747967479675 44.512195121951216,12.296747967479675 44.41056910569105,12.296747967479675 44.359756097560975,12.347560975609756 44.30894308943089,12.449186991869919 44.30894308943089,12.652439024390244 44.25813008130081,12.957317073170731 44.25813008130081,13.262195121951219 44.359756097560975,13.567073170731707 44.46138211382114,13.821138211382113 44.61382113821138,13.973577235772357 44.8170731707317,14.07520325203252 45.07113821138211,14.1260162601626 45.325203252032516,14.07520325203252 45.63008130081301,13.922764227642276 45.9349593495935,13.66869918699187 46.1890243902439,13.414634146341463 46.34146341463415,13.109756097560975 46.49390243902439,12.804878048780488 46.54471544715447,12.5 46.54471544715447,12.245934959349594 46.54471544715447,12.042682926829269 46.49390243902439,11.839430894308943 46.392276422764226,11.6869918699187 46.290650406504064,11.636178861788618 46.290650406504064,11.636178861788618 46.239837398373986,11.636178861788618 46.239837398373986,11.6869918699187 46.239837398373986,11.737804878048781 46.239837398373986,11.890243902439025 46.290650406504064,12.144308943089431 46.34146341463415,12.449186991869919 46.49390243902439,12.804878048780488 46.59552845528455,13.109756097560975 46.798780487804876,13.465447154471544 47.052845528455286,13.821138211382113 47.357723577235774,14.07520325203252 47.66260162601626,14.380081300813007 48.06910569105691,14.634146341463413 48.42479674796748,14.83739837398374 48.78048780487805,14.939024390243903 49.1869918699187,14.989837398373984" fill="none" stroke="black" stroke-width="0.6"></polyline><polyline points="49.1869918699187,14.989837398373984 49.542682926829265,14.989837398373984 49.89837398373984,14.888211382113822 50.2540650406504,14.684959349593496 50.55894308943089,14.430894308943088 50.8130081300813,14.07520325203252 51.11788617886179,13.770325203252032 51.27032520325203,13.414634146341463 51.37195121951219,13.109756097560975 51.422764227642276,12.703252032520325 51.422764227642276,12.347560975609756 51.32113821138211,11.991869918699187 51.11788617886179,11.636178861788618 50.91463414634146,11.432926829268293 50.66056910569105,11.331300813008129 50.40650406504065,11.280487804878048 50.15243902439024,11.382113821138212 49.796747967479675,11.636178861788618 49.4410569105691,12.042682926829269 49.03455284552845,12.652439024390244 48.6280487804878,13.363821138211382 48.22154471544715,14.176829268292682 47.916666666666664,14.939024390243903 47.66260162601626,15.59959349593496 47.459349593495936,16.15853658536585 47.357723577235774,16.514227642276424 47.30691056910569,16.76829268292683 47.25609756097561,16.971544715447155 47.25609756097561,17.022357723577237" fill="none" stroke="black" stroke-width="0.6"></polyline><polyline points="58.63821138211382,13.211382113821138 58.58739837398374,13.211382113821138 58.485772357723576,13.211382113821138 58.43495934959349,13.262195121951219 58.43495934959349,13.363821138211382 58.485772357723576,13.516260162601625 58.6890243902439,13.66869918699187 58.99390243902439,13.821138211382113 59.40040650406504,13.871951219512194 59.90853658536585,13.871951219512194 60.51829268292683,13.770325203252032 61.1280487804878,13.516260162601625 61.6869918699187,13.160569105691057 62.19512195121951,12.804878048780488 62.60162601626016,12.398373983739837 62.855691056910565,12.144308943089431 63.00813008130081,11.890243902439025 63.16056910569105,11.6869918699187 63.21138211382114,11.585365853658537 63.21138211382114,11.534552845528456 63.262195121951216,11.483739837398375 63.262195121951216,11.483739837398375 63.262195121951216,11.483739837398375 63.262195121951216,11.483739837398375 63.262195121951216,11.483739837398375 63.262195121951216,11.483739837398375 63.262195121951216,11.483739837398375 63.262195121951216,11.483739837398375 63.262195121951216,11.534552845528456 63.262195121951216,11.636178861788618 63.262195121951216,11.941056910569106 63.262195121951216,12.5 63.262195121951216,13.160569105691057 63.262195121951216,13.973577235772357 63.21138211382114,14.888211382113822 63.21138211382114,15.955284552845528 63.16056910569105,16.869918699186993 63.16056910569105,17.784552845528456 63.109756097560975,18.648373983739837 63.05894308943089,19.308943089430894 63.00813008130081,19.867886178861788 62.90650406504065,20.121951219512194 62.855691056910565,20.3760162601626 62.7540650406504,20.630081300813007 62.60162601626016,20.833333333333332 62.39837398373984,20.985772357723576 62.24593495934959,21.08739837398374 62.09349593495935,21.13821138211382 61.890243902439025,21.08739837398374 61.73780487804878,20.934959349593495 61.58536585365854,20.630081300813007" fill="none" stroke="black" stroke-width="0.6"></polyline><polyline points="61.58536585365854,20.630081300813007 61.43292682926829,20.172764227642276 61.38211382113821,19.61382113821138 61.33130081300813,18.953252032520325 61.33130081300813,18.241869918699187 61.43292682926829,17.58130081300813 61.636178861788615,16.920731707317074 61.890243902439025,16.209349593495933 62.24593495934959,15.59959349593496 62.65243902439024,14.989837398373984 63.05894308943089,14.380081300813007 63.46544715447154,13.871951219512194 63.77032520325203,13.414634146341463 64.1260162601626,13.058943089430894 64.32926829268293,12.804878048780488 64.48170731707317,12.652439024390244 64.53252032520325,12.601626016260163 64.53252032520325,12.601626016260163 64.53252032520325,12.652439024390244 64.53252032520325,12.652439024390244 64.48170731707317,12.754065040650406 64.43089430894308,13.008130081300813 64.27845528455285,13.363821138211382 64.17682926829268,13.71951219512195 64.07520325203252,14.07520325203252 64.02439024390243,14.430894308943088 63.97357723577235,14.684959349593496 63.97357723577235,14.939024390243903 63.97357723577235,15.142276422764228 64.1260162601626,15.19308943089431 64.380081300813,15.24390243902439 64.6849593495935,15.19308943089431 65.04065040650406,15.040650406504065 65.44715447154472,14.83739837398374 65.85365853658537,14.53252032520325 66.26016260162602,14.176829268292682 66.61585365853658,13.871951219512194 66.869918699187,13.66869918699187 67.02235772357723,13.516260162601625 67.27642276422765,13.160569105691057 67.42886178861788,12.90650406504065 67.47967479674797,12.703252032520325 67.53048780487805,12.601626016260163 67.53048780487805,12.550813008130081 67.47967479674797,12.550813008130081 67.42886178861788,12.550813008130081 67.42886178861788,12.601626016260163 67.42886178861788,12.601626016260163 67.3780487804878,12.703252032520325 67.27642276422765,12.90650406504065 67.22560975609755,13.211382113821138" fill="none" stroke="black" stroke-width="0.6"></polyline><polyline points="67.22560975609755,13.211382113821138 67.1239837398374,13.567073170731707 67.02235772357723,13.973577235772357 66.97154471544715,14.329268292682926 66.97154471544715,14.634146341463413 67.02235772357723,14.939024390243903 67.1239837398374,15.142276422764228 67.27642276422765,15.24390243902439 67.47967479674797,15.294715447154472 67.6829268292683,15.294715447154472 67.88617886178862,15.142276422764228 68.1910569105691,14.888211382113822 68.4451219512195,14.53252032520325 68.69918699186992,14.176829268292682 69.0040650406504,13.821138211382113 69.15650406504065,13.567073170731707 69.3089430894309,13.414634146341463 69.35975609756098,13.3130081300813 69.35975609756098,13.3130081300813 69.35975609756098,13.3130081300813 69.3089430894309,13.363821138211382 69.2581300813008,13.414634146341463 69.2581300813008,13.567073170731707 69.15650406504065,13.770325203252032 69.05487804878048,14.024390243902438 68.95325203252033,14.278455284552845 68.85162601626016,14.583333333333332 68.80081300813008,14.786585365853659 68.75,14.989837398373984 68.75,15.142276422764228 68.75,15.19308943089431 68.75,15.24390243902439 68.75,15.24390243902439 68.75,15.24390243902439 68.85162601626016,15.091463414634147 68.95325203252033,14.83739837398374 69.10569105691057,14.48170731707317 69.2581300813008,14.07520325203252 69.46138211382113,13.66869918699187 69.61382113821138,13.3130081300813 69.76626016260163,13.008130081300813 69.91869918699187,12.804878048780488 70.02032520325203,12.703252032520325 70.02032520325203,12.703252032520325 70.0711382113821,12.703252032520325 70.1219512195122,12.754065040650406 70.1219512195122,12.855691056910569 70.17276422764228,13.008130081300813 70.22357723577235,13.211382113821138 70.27439024390243,13.516260162601625 70.27439024390243,13.821138211382113" fill="none" stroke="black" stroke-width="0.6"></polyline><polyline points="70.27439024390243,13.821138211382113 70.32520325203252,14.07520325203252 70.32520325203252,14.380081300813007 70.32520325203252,14.684959349593496 70.3760162601626,14.888211382113822 70.42682926829268,14.989837398373984 70.47764227642276,15.091463414634147 70.52845528455285,15.091463414634147 70.57926829268293,15.091463414634147 70.73170731707317,14.939024390243903 70.9349593495935,14.735772357723578 71.13821138211382,14.380081300813007 71.4430894308943,14.024390243902438 71.64634146341463,13.617886178861788 71.90040650406505,13.262195121951219 72.05284552845528,13.008130081300813 72.15447154471545,12.804878048780488 72.2560975609756,12.652439024390244 72.2560975609756,12.601626016260163 72.2560975609756,12.601626016260163 72.2560975609756,12.601626016260163 72.2560975609756,12.652439024390244 72.2560975609756,12.754065040650406 72.2560975609756,13.008130081300813 72.15447154471545,13.3130081300813 72.10365853658537,13.617886178861788 72.05284552845528,13.973577235772357 72.05284552845528,14.278455284552845 72.05284552845528,14.583333333333332 72.10365853658537,14.83739837398374 72.20528455284553,14.989837398373984 72.35772357723577,15.040650406504065 72.61178861788618,15.040650406504065 72.86585365853658,14.939024390243903 73.22154471544715,14.684959349593496 73.57723577235772,14.380081300813007 73.8821138211382,14.07520325203252 74.1869918699187,13.71951219512195 74.54268292682927,13.363821138211382 74.7459349593496,13.109756097560975 74.89837398373983,12.804878048780488 75.05081300813008,12.601626016260163 75.05081300813008,12.601626016260163 75.05081300813008,12.550813008130081 75.05081300813008,12.550813008130081 75.05081300813008,12.550813008130081 75.05081300813008,12.601626016260163 75.05081300813008,12.652439024390244 75,12.804878048780488 74.94918699186992,13.109756097560975 74.79674796747967,13.617886178861788" fill="none" stroke="black" stroke-width="0.6"></polyline><polyline points="74.79674796747967,13.617886178861788 74.64430894308943,14.1260162601626 74.4410569105691,14.786585365853659 74.23780487804878,15.548780487804878 73.98373983739837,16.36178861788618 73.72967479674797,17.17479674796748 73.52642276422765,17.88617886178862 73.3739837398374,18.546747967479675 73.27235772357723,19.054878048780488 73.17073170731707,19.51219512195122 73.0691056910569,19.817073170731707 73.01829268292683,20.020325203252032 72.96747967479675,20.121951219512194 72.96747967479675,20.172764227642276 72.96747967479675,20.172764227642276 72.96747967479675,20.172764227642276 72.96747967479675,20.020325203252032 73.0691056910569,19.715447154471544 73.27235772357723,19.15650406504065 73.47560975609755,18.546747967479675 73.67886178861788,17.88617886178862 73.9329268292683,17.1239837398374 74.28861788617886,16.209349593495933 74.7459349593496,15.294715447154472 75.20325203252033,14.634146341463413 75.60975609756098,14.1260162601626 75.91463414634146,13.821138211382113 76.21951219512195,13.567073170731707 76.47357723577235,13.3130081300813 76.67682926829268,13.109756097560975 76.82926829268293,12.957317073170731 76.880081300813,12.90650406504065 76.93089430894308,12.90650406504065 76.98170731707317,12.90650406504065 76.98170731707317,13.008130081300813 77.03252032520325,13.211382113821138 77.03252032520325,13.465447154471544 77.03252032520325,13.821138211382113 76.98170731707317,14.176829268292682 76.880081300813,14.583333333333332 76.77845528455285,14.888211382113822 76.67682926829268,15.19308943089431 76.57520325203252,15.396341463414634 76.47357723577235,15.548780487804878 76.42276422764228,15.59959349593496 76.3211382113821,15.65040650406504 76.27032520325203,15.65040650406504 76.16869918699187,15.65040650406504 76.0670731707317,15.59959349593496 76.0670731707317,15.548780487804878 76.01626016260163,15.497967479674797" fill="none" stroke="black" stroke-width="0.6"></polyline><polyline points="76.01626016260163,15.497967479674797 75.91463414634146,15.396341463414634 75.8130081300813,15.24390243902439 75.76219512195122,15.091463414634147 75.76219512195122,14.939024390243903 75.76219512195122,14.786585365853659 75.76219512195122,14.684959349593496 75.76219512195122,14.583333333333332 75.76219512195122,14.53252032520325 75.8130081300813,14.53252032520325 75.86382113821138,14.53252032520325 75.96544715447155,14.583333333333332 76.11788617886178,14.735772357723578 76.27032520325203,14.888211382113822 76.42276422764228,15.040650406504065 76.6260162601626,15.142276422764228 76.82926829268293,15.24390243902439 77.1849593495935,15.294715447154472 77.59146341463415,15.24390243902439 78.04878048780488,15.091463414634147 78.35365853658537,14.939024390243903 79.11585365853658,14.48170731707317 79.57317073170732,14.227642276422763 79.97967479674797,13.973577235772357 80.28455284552845,13.821138211382113 80.58943089430895,13.66869918699187 80.89430894308943,13.516260162601625 81.14837398373983,13.363821138211382 81.40243902439025,13.211382113821138 81.55487804878048,13.058943089430894 81.70731707317073,12.90650406504065 81.7581300813008,12.703252032520325 81.70731707317073,12.5 81.60569105691057,12.449186991869919" fill="none" stroke="black" stroke-width="0.6"></polyline><polyline points="67.32723577235772,9.603658536585366 67.07317073170732,9.298780487804878 66.97154471544715,9.197154471544716 66.97154471544715,9.197154471544716 66.97154471544715,9.197154471544716 66.97154471544715,9.197154471544716 66.97154471544715,9.197154471544716 66.97154471544715,9.197154471544716 66.97154471544715,9.247967479674797" fill="none" stroke="black" stroke-width="0.6"></polyline><polyline points="2.845528455284553,35.0609756097561 2.7947154471544713,35.0609756097561 2.6422764227642275,35.0609756097561 2.591463414634146,35.0609756097561 2.591463414634146,35.0609756097561 2.591463414634146,35.0609756097561 2.6422764227642275,35.11178861788618 2.7947154471544713,35.11178861788618 3.048780487804878,35.16260162601626 3.1504065040650406,35.16260162601626 3.3536585365853657,35.16260162601626 3.7601626016260163,34.959349593495936 3.9634146341463414,34.80691056910569 4.217479674796748,34.65447154471545 4.776422764227642,34.197154471544714 5.436991869918699,33.53658536585366 6.1483739837398375,32.82520325203252 6.758130081300813,32.16463414634146 7.266260162601625,31.554878048780488 7.774390243902439,30.995934959349594 8.130081300813007,30.640243902439025 8.434959349593496,30.284552845528456 8.739837398373984,30.03048780487805 8.94308943089431,29.928861788617887 9.044715447154472,29.878048780487806 9.146341463414634,29.878048780487806 9.197154471544716,29.878048780487806 9.247967479674797,29.928861788617887 9.298780487804878,30.132113821138212 9.298780487804878,30.4369918699187 9.298780487804878,30.945121951219512 9.197154471544716,31.504065040650406 9.095528455284553,32.0630081300813 8.94308943089431,32.672764227642276 8.790650406504065,33.23170731707317 8.689024390243903,33.63821138211382 8.58739837398374,33.892276422764226 8.485772357723578,34.09552845528455 8.434959349593496,34.197154471544714 8.434959349593496,34.197154471544714 8.434959349593496,34.197154471544714 8.434959349593496,34.197154471544714 8.434959349593496,34.146341463414636 8.485772357723578,33.99390243902439 8.638211382113822,33.739837398373986 8.841463414634147,33.333333333333336 9.044715447154472,32.82520325203252 9.298780487804878,32.3170731707317 9.552845528455284,31.808943089430894 9.857723577235772,31.30081300813008 10.16260162601626,30.945121951219512" fill="none" stroke="black" stroke-width="0.6"></polyline><polyline points="10.16260162601626,30.945121951219512 10.264227642276422,30.84349593495935 10.416666666666666,30.741869918699187 10.619918699186991,30.640243902439025 10.772357723577235,30.589430894308943 10.873983739837398,30.640243902439025 10.924796747967479,30.691056910569106 10.97560975609756,30.79268292682927 11.026422764227641,31.046747967479675 11.026422764227641,31.402439024390244 11.026422764227641,31.859756097560975 11.026422764227641,32.36788617886179 10.97560975609756,32.8760162601626 10.97560975609756,33.28252032520325 10.924796747967479,33.6890243902439 10.97560975609756,34.04471544715447 11.077235772357723,34.2479674796748 11.229674796747966,34.34959349593496 11.432926829268293,34.34959349593496 11.6869918699187,34.2479674796748 11.991869918699187,33.99390243902439 12.398373983739837,33.53658536585366 12.804878048780488,33.079268292682926 13.160569105691057,32.57113821138211 13.567073170731707,32.012195121951216 13.871951219512194,31.402439024390244 14.1260162601626,30.89430894308943 14.329268292682926,30.48780487804878 14.430894308943088,30.284552845528456 14.430894308943088,30.182926829268293 14.430894308943088,30.182926829268293 14.430894308943088,30.182926829268293 14.380081300813007,30.182926829268293 14.380081300813007,30.233739837398375 14.278455284552845,30.38617886178862 14.1260162601626,30.79268292682927 13.973577235772357,31.25 13.821138211382113,31.758130081300813 13.66869918699187,32.266260162601625 13.567073170731707,32.672764227642276 13.516260162601625,33.02845528455285 13.516260162601625,33.333333333333336 13.66869918699187,33.4349593495935 13.922764227642276,33.485772357723576 14.227642276422763,33.485772357723576 14.634146341463413,33.38414634146341 15.142276422764228,33.079268292682926 15.396341463414634,32.926829268292686 15.701219512195122,32.72357723577236 16.209349593495933,32.3170731707317 16.666666666666668,31.910569105691057" fill="none" stroke="black" stroke-width="0.6"></polyline><polyline points="16.666666666666668,31.910569105691057 17.17479674796748,31.504065040650406 17.53048780487805,31.148373983739837 17.835365853658537,30.945121951219512 18.089430894308943,30.691056910569106 18.191056910569106,30.589430894308943 18.241869918699187,30.589430894308943 18.241869918699187,30.589430894308943 18.241869918699187,30.589430894308943 18.191056910569106,30.589430894308943 18.140243902439025,30.589430894308943 17.9369918699187,30.741869918699187 17.733739837398375,30.945121951219512 17.428861788617887,31.25 17.17479674796748,31.554878048780488 16.869918699186993,31.961382113821138 16.615853658536587,32.3170731707317 16.41260162601626,32.6219512195122 16.3109756097561,32.8760162601626 16.260162601626014,32.97764227642276 16.3109756097561,33.02845528455285 16.463414634146343,32.97764227642276 16.615853658536587,32.8760162601626 16.869918699186993,32.72357723577236 17.022357723577237,32.6219512195122 17.225609756097562,32.57113821138211 17.428861788617887,32.57113821138211 17.58130081300813,32.6219512195122 17.733739837398375,32.8760162601626 17.835365853658537,33.28252032520325 17.9369918699187,33.84146341463415 17.98780487804878,34.552845528455286 17.98780487804878,35.3150406504065 17.98780487804878,36.02642276422764 17.88617886178862,36.73780487804878 17.733739837398375,37.39837398373984 17.58130081300813,37.95731707317073 17.378048780487806,38.36382113821138 17.17479674796748,38.668699186991866 17.022357723577237,38.87195121951219 16.869918699186993,38.97357723577235 16.81910569105691,38.97357723577235 16.76829268292683,38.97357723577235 16.76829268292683,38.922764227642276 16.76829268292683,38.668699186991866 16.869918699186993,38.21138211382114 17.1239837398374,37.65243902439024 17.428861788617887,37.042682926829265 17.784552845528456,36.43292682926829 18.241869918699187,35.72154471544715 18.75,35.010162601626014" fill="none" stroke="black" stroke-width="0.6"></polyline><polyline points="18.75,35.010162601626014 19.359756097560975,34.146341463414636 19.867886178861788,33.333333333333336 20.32520325203252,32.57113821138211 20.78252032520325,31.65650406504065 21.08739837398374,30.84349593495935 21.239837398373982,30.233739837398375 21.341463414634145,29.6239837398374 21.341463414634145,29.217479674796746 21.290650406504064,28.861788617886177 21.1890243902439,28.709349593495933 21.08739837398374,28.65853658536585 21.036585365853657,28.65853658536585 20.985772357723576,28.65853658536585 20.934959349593495,28.65853658536585 20.78252032520325,28.760162601626014 20.630081300813007,29.115853658536583 20.426829268292682,29.67479674796748 20.223577235772357,30.38617886178862 20.071138211382113,31.19918699186992 19.91869918699187,32.11382113821138 19.817073170731707,32.926829268292686 19.817073170731707,33.63821138211382 19.817073170731707,34.197154471544714 19.817073170731707,34.5020325203252 19.867886178861788,34.70528455284553 19.91869918699187,34.75609756097561 19.96951219512195,34.75609756097561 20.020325203252032,34.75609756097561 20.071138211382113,34.65447154471545 20.172764227642276,34.451219512195124 20.3760162601626,34.09552845528455 20.579268292682926,33.53658536585366 20.833333333333332,33.02845528455285 21.036585365853657,32.46951219512195 21.290650406504064,31.859756097560975 21.443089430894307,31.504065040650406 21.54471544715447,31.402439024390244 21.59552845528455,31.402439024390244 21.646341463414632,31.504065040650406 21.646341463414632,31.65650406504065 21.697154471544714,31.910569105691057 21.697154471544714,32.3170731707317 21.697154471544714,32.77439024390244 21.747967479674795,33.18089430894309 21.747967479674795,33.53658536585366 21.747967479674795,33.84146341463415 21.798780487804876,34.146341463414636 21.90040650406504,34.34959349593496 22.052845528455283,34.5020325203252 22.256097560975608,34.552845528455286" fill="none" stroke="black" stroke-width="0.6"></polyline><polyline points="22.256097560975608,34.552845528455286 22.459349593495933,34.603658536585364 22.71341463414634,34.5020325203252 22.96747967479675,34.34959349593496 23.272357723577237,34.09552845528455 23.628048780487806,33.739837398373986 23.983739837398375,33.28252032520325 24.288617886178862,32.77439024390244 24.64430894308943,32.16463414634146 24.94918699186992,31.504065040650406 25.203252032520325,30.79268292682927 25.40650406504065,30.08130081300813 25.508130081300813,29.420731707317074 25.609756097560975,28.96341463414634 25.609756097560975,28.760162601626014 25.609756097560975,28.65853658536585 25.609756097560975,28.455284552845526 25.609756097560975,28.455284552845526 25.558943089430894,28.455284552845526 25.558943089430894,28.455284552845526 25.558943089430894,28.455284552845526 25.508130081300813,28.55691056910569 25.45731707317073,28.810975609756095 25.304878048780488,29.268292682926827 25.203252032520325,29.878048780487806 25.05081300813008,30.538617886178862 24.94918699186992,31.097560975609756 24.847560975609756,31.758130081300813 24.745934959349594,32.266260162601625 24.64430894308943,32.82520325203252 24.59349593495935,33.333333333333336 24.54268292682927,33.6890243902439 24.54268292682927,33.94308943089431 24.64430894308943,34.197154471544714 24.745934959349594,34.34959349593496 24.94918699186992,34.451219512195124 25.203252032520325,34.451219512195124 25.508130081300813,34.40040650406504" fill="none" stroke="black" stroke-width="0.6"></polyline><polyline points="24.034552845528456,31.148373983739837 23.932926829268293,31.148373983739837 23.83130081300813,31.148373983739837 23.729674796747968,31.097560975609756 23.678861788617887,31.097560975609756 23.678861788617887,31.097560975609756 23.678861788617887,31.097560975609756 23.678861788617887,31.097560975609756 23.729674796747968,31.148373983739837 23.83130081300813,31.19918699186992 24.085365853658537,31.30081300813008 24.390243902439025,31.402439024390244 24.745934959349594,31.453252032520325 25.152439024390244,31.504065040650406 25.609756097560975,31.402439024390244 26.117886178861788,31.148373983739837 26.727642276422763,30.79268292682927 27.286585365853657,30.335365853658537 27.79471544715447,29.878048780487806 28.15040650406504,29.471544715447155 28.404471544715445,29.115853658536583 28.60772357723577,28.810975609756095 28.709349593495933,28.55691056910569 28.760162601626014,28.302845528455283 28.810975609756095,28.20121951219512 28.760162601626014,28.099593495934958 28.709349593495933,28.048780487804876 28.65853658536585,28.048780487804876 28.60772357723577,28.048780487804876 28.55691056910569,28.048780487804876 28.455284552845526,28.15040650406504 28.2520325203252,28.455284552845526 27.947154471544714,28.912601626016258 27.642276422764226,29.471544715447155 27.286585365853657,30.132113821138212 26.98170731707317,30.945121951219512 26.6260162601626,31.859756097560975 26.422764227642276,32.77439024390244 26.321138211382113,33.485772357723576 26.321138211382113,33.99390243902439 26.371951219512194,34.34959349593496 26.524390243902438,34.552845528455286 26.676829268292682,34.65447154471545 26.829268292682926,34.70528455284553 27.03252032520325,34.70528455284553 27.286585365853657,34.552845528455286 27.642276422764226,34.197154471544714 28.099593495934958,33.58739837398374 28.506097560975608,32.97764227642276 28.861788617886177,32.418699186991866 29.217479674796746,31.910569105691057" fill="none" stroke="black" stroke-width="0.6"></polyline><polyline points="29.217479674796746,31.910569105691057 29.369918699186993,31.554878048780488 29.471544715447155,31.25 29.522357723577237,31.097560975609756 29.522357723577237,31.097560975609756 29.471544715447155,31.097560975609756 29.471544715447155,31.148373983739837 29.420731707317074,31.19918699186992 29.369918699186993,31.30081300813008 29.268292682926827,31.554878048780488 29.115853658536583,31.910569105691057 29.01422764227642,32.3170731707317 28.912601626016258,32.77439024390244 28.861788617886177,33.13008130081301 28.861788617886177,33.53658536585366 28.861788617886177,33.84146341463415 29.01422764227642,34.04471544715447 29.217479674796746,34.146341463414636 29.522357723577237,34.197154471544714 29.827235772357724,34.09552845528455 30.233739837398375,33.892276422764226 30.691056910569106,33.53658536585366 31.097560975609756,33.23170731707317 31.504065040650406,32.8760162601626 31.65650406504065,32.672764227642276 31.910569105691057,32.418699186991866 32.16463414634146,32.0630081300813 32.418699186991866,31.758130081300813 32.52032520325203,31.504065040650406 32.57113821138211,31.351626016260163 32.57113821138211,31.351626016260163 32.57113821138211,31.351626016260163 32.57113821138211,31.351626016260163 32.52032520325203,31.402439024390244 32.46951219512195,31.504065040650406 32.36788617886179,31.910569105691057 32.21544715447154,32.46951219512195 32.012195121951216,33.18089430894309 31.758130081300813,34.04471544715447 31.504065040650406,35.0609756097561 31.25,36.1280487804878 31.046747967479675,37.14430894308943 30.89430894308943,38.21138211382114 30.79268292682927,39.176829268292686 30.691056910569106,39.9390243902439 30.589430894308943,40.59959349593496 30.4369918699187,41.15853658536585 30.335365853658537,41.5650406504065 30.284552845528456,41.81910569105691 30.182926829268293,41.97154471544715 30.182926829268293,41.97154471544715" fill="none" stroke="black" stroke-width="0.6"></polyline><polyline points="30.182926829268293,41.97154471544715 30.132113821138212,41.97154471544715 30.132113821138212,41.86991869918699 30.132113821138212,41.46341463414634 30.132113821138212,40.59959349593496 30.233739837398375,40.142276422764226 30.284552845528456,39.735772357723576 30.48780487804878,38.87195121951219 30.691056910569106,37.95731707317073 30.995934959349594,36.99186991869919 31.402439024390244,36.17886178861789 31.910569105691057,35.51829268292683 32.3170731707317,35.16260162601626 32.72357723577236,34.90853658536585 33.079268292682926,34.65447154471545 33.333333333333336,34.5020325203252 33.53658536585366,34.40040650406504 33.6890243902439,34.40040650406504 33.6890243902439,34.40040650406504 33.6890243902439,34.5020325203252 33.63821138211382,34.65447154471545 33.58739837398374,34.75609756097561 33.485772357723576,34.857723577235774 33.23170731707317,35.0609756097561" fill="none" stroke="black" stroke-width="0.6"></polyline><polyline points="17.58130081300813,28.55691056910569 17.53048780487805,28.455284552845526 17.327235772357724,28.2520325203252 17.225609756097562,28.15040650406504 17.17479674796748,28.15040650406504 17.17479674796748,28.15040650406504 17.17479674796748,28.15040650406504 17.225609756097562,28.15040650406504 17.428861788617887,28.15040650406504 17.58130081300813,28.15040650406504" fill="none" stroke="black" stroke-width="0.6"></polyline><polyline points="45.985772357723576,34.146341463414636 45.985772357723576,34.146341463414636 45.9349593495935,34.09552845528455 45.9349593495935,34.09552845528455 45.9349593495935,34.09552845528455 45.9349593495935,34.09552845528455 45.9349593495935,34.09552845528455 45.9349593495935,34.09552845528455 45.985772357723576,34.04471544715447 46.08739837398374,33.94308943089431 46.290650406504064,33.739837398373986 46.49390243902439,33.4349593495935 46.798780487804876,32.97764227642276 47.052845528455286,32.52032520325203 47.25609756097561,32.012195121951216 47.40853658536585,31.453252032520325 47.40853658536585,31.097560975609756 47.40853658536585,30.84349593495935 47.30691056910569,30.640243902439025 47.103658536585364,30.538617886178862 46.90040650406504,30.48780487804878 46.646341463414636,30.48780487804878 46.34146341463415,30.589430894308943 45.985772357723576,30.89430894308943 45.52845528455285,31.453252032520325 45.02032520325203,32.16463414634146 44.766260162601625,32.52032520325203 44.5630081300813,32.926829268292686 44.105691056910565,33.63821138211382 43.90243902439024,34.146341463414636 43.90243902439024,34.451219512195124 43.953252032520325,34.65447154471545 44.105691056910565,34.75609756097561 44.30894308943089,34.80691056910569 44.512195121951216,34.857723577235774 44.8170731707317,34.857723577235774 45.12195121951219,34.80691056910569 45.47764227642276,34.603658536585364 45.88414634146341,34.2479674796748 46.34146341463415,33.84146341463415 46.7479674796748,33.38414634146341 47.052845528455286,32.97764227642276 47.25609756097561,32.672764227642276 47.357723577235774,32.52032520325203 47.357723577235774,32.46951219512195 47.25609756097561,32.46951219512195 47.25609756097561,32.52032520325203 47.20528455284553,32.57113821138211 47.15447154471545,32.672764227642276 47.15447154471545,32.926829268292686 47.103658536585364,33.28252032520325" fill="none" stroke="black" stroke-width="0.6"></polyline><polyline points="47.103658536585364,33.28252032520325 47.103658536585364,33.58739837398374 47.103658536585364,33.892276422764226 47.20528455284553,34.09552845528455 47.30691056910569,34.2479674796748 47.5609756097561,34.298780487804876 47.8150406504065,34.2479674796748 48.170731707317074,33.99390243902439 48.6280487804878,33.63821138211382 49.03455284552845,33.23170731707317 49.49186991869919,32.72357723577236 49.89837398373984,32.11382113821138 50.30487804878049,31.504065040650406 50.66056910569105,30.89430894308943 50.91463414634146,30.284552845528456 51.016260162601625,29.725609756097562 51.0670731707317,29.31910569105691 51.0670731707317,28.96341463414634 51.0670731707317,28.810975609756095 51.016260162601625,28.760162601626014 50.96544715447154,28.760162601626014 50.96544715447154,28.760162601626014 50.91463414634146,28.760162601626014 50.86382113821138,28.912601626016258 50.71138211382114,29.268292682926827 50.40650406504065,29.979674796747968 50,30.89430894308943 49.64430894308943,31.859756097560975 49.23780487804878,32.926829268292686 48.93292682926829,33.790650406504064 48.78048780487805,34.5020325203252 48.729674796747965,35.11178861788618 48.78048780487805,35.46747967479675 48.93292682926829,35.72154471544715 49.136178861788615,35.8739837398374 49.33943089430894,35.8739837398374 49.59349593495935,35.8739837398374 50,35.670731707317074 50.355691056910565,35.36585365853659 50.86382113821138,34.857723577235774 51.37195121951219,34.197154471544714 51.77845528455284,33.58739837398374 52.13414634146341,33.02845528455285 52.38821138211382,32.418699186991866 52.540650406504064,32.012195121951216 52.59146341463415,31.70731707317073 52.59146341463415,31.554878048780488 52.59146341463415,31.554878048780488 52.540650406504064,31.554878048780488 52.540650406504064,31.554878048780488 52.489837398373986,31.554878048780488" fill="none" stroke="black" stroke-width="0.6"></polyline><polyline points="52.489837398373986,31.554878048780488 52.489837398373986,31.60569105691057 52.489837398373986,31.60569105691057 52.489837398373986,31.65650406504065 52.489837398373986,31.70731707317073 52.540650406504064,31.808943089430894 52.59146341463415,31.910569105691057 52.69308943089431,31.961382113821138 52.84552845528455,32.0630081300813 52.9979674796748,32.11382113821138 53.09959349593496,32.16463414634146 53.2520325203252,32.21544715447154 53.40447154471545,32.266260162601625 53.50609756097561,32.3170731707317 53.55691056910569,32.418699186991866 53.607723577235774,32.52032520325203 53.607723577235774,32.72357723577236 53.45528455284553,32.97764227642276 53.302845528455286,33.28252032520325 53.15040650406504,33.63821138211382 52.9979674796748,33.99390243902439 52.84552845528455,34.298780487804876 52.79471544715447,34.603658536585364 52.74390243902439,34.90853658536585 52.74390243902439,35.11178861788618 52.74390243902439,35.264227642276424 52.84552845528455,35.3150406504065 52.9979674796748,35.3150406504065 53.15040650406504,35.3150406504065 53.353658536585364,35.21341463414634 53.55691056910569,35.010162601626014 53.760162601626014,34.75609756097561 53.96341463414634,34.40040650406504 54.11585365853659,33.99390243902439 54.26829268292683,33.58739837398374 54.36991869918699,33.18089430894309 54.420731707317074,32.77439024390244 54.420731707317074,32.3170731707317 54.31910569105691,31.961382113821138 54.21747967479675,31.65650406504065 54.0650406504065,31.402439024390244 53.96341463414634,31.30081300813008 53.91260162601626,31.25 53.8109756097561,31.19918699186992 53.8109756097561,31.19918699186992 53.8109756097561,31.19918699186992 53.8109756097561,31.19918699186992 53.91260162601626,31.25 54.0650406504065,31.25 54.31910569105691,31.30081300813008 54.573170731707314,31.30081300813008" fill="none" stroke="black" stroke-width="0.6"></polyline><polyline points="54.573170731707314,31.30081300813008 54.8780487804878,31.351626016260163 55.18292682926829,31.453252032520325 55.4369918699187,31.504065040650406 55.6910569105691,31.60569105691057 55.89430894308943,31.65650406504065 56.046747967479675,31.808943089430894 56.09756097560975,31.961382113821138 56.14837398373984,32.16463414634146 56.14837398373984,32.418699186991866 56.09756097560975,32.72357723577236 56.09756097560975,33.13008130081301 56.046747967479675,33.4349593495935 56.046747967479675,33.739837398373986 56.046747967479675,34.04471544715447 56.046747967479675,34.298780487804876 56.14837398373984,34.451219512195124 56.199186991869915,34.552845528455286 56.25,34.603658536585364 56.35162601626016,34.65447154471545 56.453252032520325,34.65447154471545 56.605691056910565,34.603658536585364 56.75813008130081,34.451219512195124 56.96138211382114,34.197154471544714 57.21544715447154,33.84146341463415 57.46951219512195,33.38414634146341 57.672764227642276,32.8760162601626 57.92682926829268,32.3170731707317 58.02845528455284,31.758130081300813 58.079268292682926,31.25 58.079268292682926,30.89430894308943 57.97764227642276,30.84349593495935 57.92682926829268,30.84349593495935 57.8760162601626,30.84349593495935 57.8760162601626,30.84349593495935 57.8760162601626,30.945121951219512 57.8760162601626,31.046747967479675 57.8760162601626,31.25 57.8760162601626,31.504065040650406 57.97764227642276,31.758130081300813 58.079268292682926,32.012195121951216 58.18089430894309,32.21544715447154 58.33333333333333,32.36788617886179 58.43495934959349,32.418699186991866 58.58739837398374,32.46951219512195 58.84146341463415,32.52032520325203 59.146341463414636,32.52032520325203 59.451219512195124,32.52032520325203 59.80691056910569,32.36788617886179 60.11178861788618,32.16463414634146 60.36585365853659,31.961382113821138" fill="none" stroke="black" stroke-width="0.6"></polyline><polyline points="60.36585365853659,31.961382113821138 60.670731707317074,31.65650406504065 60.92479674796748,31.402439024390244 61.1280487804878,31.097560975609756 61.229674796747965,30.84349593495935 61.28048780487805,30.691056910569106 61.28048780487805,30.589430894308943 61.229674796747965,30.48780487804878 61.1280487804878,30.4369918699187 60.97560975609756,30.4369918699187 60.823170731707314,30.4369918699187 60.56910569105691,30.589430894308943 60.3150406504065,30.84349593495935 59.959349593495936,31.19918699186992 59.65447154471545,31.60569105691057 59.40040650406504,32.0630081300813 59.197154471544714,32.57113821138211 59.09552845528455,33.079268292682926 59.09552845528455,33.53658536585366 59.197154471544714,33.94308943089431 59.451219512195124,34.146341463414636 59.75609756097561,34.34959349593496 60.16260162601626,34.451219512195124 60.56910569105691,34.5020325203252 61.02642276422764,34.451219512195124 61.483739837398375,34.34959349593496 61.9410569105691,34.197154471544714 62.34756097560975,33.99390243902439 62.80487804878049,33.790650406504064" fill="none" stroke="black" stroke-width="0.6"></polyline><polyline points="66.26016260162602,35.010162601626014 66.20934959349593,35.010162601626014 66.15853658536585,35.0609756097561 66.15853658536585,35.16260162601626 66.15853658536585,35.36585365853659 66.20934959349593,35.56910569105691 66.41260162601625,35.77235772357724 66.71747967479675,35.92479674796748 67.1239837398374,35.97560975609756 67.6321138211382,35.92479674796748 68.1910569105691,35.670731707317074 68.90243902439025,35.264227642276424 69.5630081300813,34.70528455284553 70.22357723577235,34.146341463414636 70.83333333333333,33.53658536585366 71.4430894308943,32.926829268292686 71.90040650406505,32.418699186991866 72.2560975609756,31.910569105691057 72.5609756097561,31.351626016260163 72.76422764227642,30.89430894308943 72.86585365853658,30.48780487804878 72.86585365853658,30.132113821138212 72.91666666666667,29.878048780487806 72.86585365853658,29.67479674796748 72.86585365853658,29.522357723577237 72.8150406504065,29.522357723577237 72.76422764227642,29.522357723577237 72.76422764227642,29.522357723577237 72.66260162601625,29.725609756097562 72.51016260162602,30.233739837398375 72.2560975609756,30.945121951219512 71.95121951219512,31.70731707317073 71.69715447154472,32.6219512195122 71.4430894308943,33.4349593495935 71.23983739837398,34.197154471544714 71.1890243902439,34.90853658536585 71.1890243902439,35.36585365853659 71.23983739837398,35.61991869918699 71.34146341463415,35.77235772357724 71.4430894308943,35.823170731707314 71.54471544715447,35.823170731707314" fill="none" stroke="black" stroke-width="0.6"></polyline><polyline points="68.85162601626016,32.3170731707317 68.75,32.3170731707317 68.59756097560975,32.266260162601625 68.4959349593496,32.21544715447154 68.4959349593496,32.21544715447154 68.54674796747967,32.3170731707317 68.69918699186992,32.52032520325203 69.0040650406504,32.72357723577236 69.41056910569105,32.926829268292686 69.96951219512195,33.13008130081301 70.630081300813,33.13008130081301 71.49390243902438,33.02845528455285 72.35772357723577,32.72357723577236 73.119918699187,32.3170731707317 73.78048780487805,31.859756097560975 74.39024390243902,31.453252032520325 74.79674796747967,31.097560975609756 75.20325203252033,30.741869918699187 75.5081300813008,30.38617886178862 75.60975609756098,30.233739837398375 75.71138211382113,30.08130081300813 75.86382113821138,29.827235772357724 75.91463414634146,29.573170731707318 75.91463414634146,29.471544715447155 75.91463414634146,29.420731707317074 75.91463414634146,29.420731707317074 75.91463414634146,29.420731707317074 75.86382113821138,29.471544715447155 75.76219512195122,29.67479674796748 75.45731707317073,30.233739837398375 75.05081300813008,30.995934959349594 74.59349593495935,31.859756097560975 74.13617886178862,32.8760162601626 73.67886178861788,33.790650406504064 73.27235772357723,34.65447154471545 73.119918699187,35.21341463414634 73.01829268292683,35.56910569105691 73.01829268292683,35.77235772357724 73.01829268292683,35.8739837398374 73.0691056910569,35.92479674796748 73.119918699187,35.92479674796748 73.17073170731707,35.8739837398374 73.22154471544715,35.77235772357724 73.3739837398374,35.51829268292683 73.6280487804878,35.0609756097561 73.78048780487805,34.75609756097561 73.8821138211382,34.451219512195124 74.1869918699187,33.84146341463415 74.39024390243902,33.28252032520325 74.64430894308943,32.672764227642276 74.79674796747967,32.3170731707317" fill="none" stroke="black" stroke-width="0.6"></polyline><polyline points="74.79674796747967,32.3170731707317 74.84756097560975,32.11382113821138 74.89837398373983,32.11382113821138 74.89837398373983,32.16463414634146 74.89837398373983,32.21544715447154 74.89837398373983,32.36788617886179 74.89837398373983,32.57113821138211 74.94918699186992,32.8760162601626 75.10162601626016,33.23170731707317 75.20325203252033,33.58739837398374 75.35569105691057,33.94308943089431 75.5589430894309,34.298780487804876 75.76219512195122,34.552845528455286 76.0670731707317,34.70528455284553 76.47357723577235,34.80691056910569 76.880081300813,34.75609756097561 77.1341463414634,34.65447154471545 77.38821138211382,34.5020325203252 77.89634146341463,34.197154471544714 78.30284552845528,33.84146341463415 78.65853658536585,33.53658536585366 79.0650406504065,33.13008130081301 79.3191056910569,32.8760162601626 79.52235772357723,32.57113821138211 79.67479674796748,32.266260162601625 79.67479674796748,32.0630081300813 79.67479674796748,31.859756097560975 79.57317073170732,31.70731707317073 79.47154471544715,31.65650406504065 79.3191056910569,31.65650406504065 79.16666666666667,31.70731707317073 78.86178861788618,31.961382113821138 78.5569105691057,32.3170731707317 78.2520325203252,32.72357723577236 77.9471544715447,33.13008130081301 77.6930894308943,33.53658536585366 77.48983739837398,34.04471544715447 77.4390243902439,34.552845528455286 77.48983739837398,35.010162601626014 77.74390243902438,35.416666666666664 78.2520325203252,35.670731707317074 78.86178861788618,35.77235772357724 79.67479674796748,35.823170731707314 80.58943089430895,35.56910569105691 81.60569105691057,35.21341463414634 82.67276422764228,34.75609756097561 83.58739837398373,34.34959349593496 84.40040650406503,33.94308943089431 85.0609756097561,33.63821138211382 85.51829268292683,33.4349593495935 85.8739837398374,33.28252032520325" fill="none" stroke="black" stroke-width="0.6"></polyline><polyline points="85.8739837398374,33.28252032520325 86.17886178861788,33.18089430894309 86.3821138211382,33.079268292682926 86.48373983739837,33.079268292682926 86.53455284552845,33.02845528455285 86.4329268292683,33.079268292682926" fill="none" stroke="black" stroke-width="0.6"></polyline><polyline points="6.961382113821138,50.50813008130081 6.808943089430894,50.50813008130081 6.65650406504065,50.55894308943089 6.605691056910569,50.609756097560975 6.605691056910569,50.762195121951216 6.605691056910569,50.96544715447154 6.7073170731707314,51.27032520325203 6.961382113821138,51.575203252032516 7.266260162601625,51.829268292682926 7.6727642276422765,52.083333333333336 8.18089430894309,52.235772357723576 8.638211382113822,52.235772357723576 9.247967479674797,52.13414634146341 9.857723577235772,51.93089430894309 10.467479674796747,51.6260162601626 11.026422764227641,51.21951219512195 11.534552845528456,50.86382113821138 11.941056910569106,50.55894308943089 12.347560975609756,50.203252032520325 12.754065040650406,49.74593495934959 13.008130081300813,49.4410569105691 13.211382113821138,49.28861788617886 13.363821138211382,49.136178861788615 13.363821138211382,49.136178861788615 13.363821138211382,49.136178861788615 13.363821138211382,49.136178861788615 13.363821138211382,49.23780487804878 13.3130081300813,49.49186991869919 13.211382113821138,49.949186991869915 13.008130081300813,50.50813008130081 12.703252032520325,51.27032520325203 12.347560975609756,52.235772357723576 11.991869918699187,53.201219512195124 11.636178861788618,54.21747967479675 11.331300813008129,55.18292682926829 11.229674796747966,55.74186991869919 11.178861788617885,55.94512195121951 11.178861788617885,56.09756097560975 11.229674796747966,56.35162601626016 11.331300813008129,56.5040650406504 11.483739837398375,56.5040650406504 11.6869918699187,56.5040650406504 12.042682926829269,56.30081300813008 12.449186991869919,55.89430894308943 12.957317073170731,55.386178861788615 13.414634146341463,54.8780487804878 13.922764227642276,54.26829268292683 14.430894308943088,53.55691056910569 14.888211382113822,52.79471544715447 15.294715447154472,52.083333333333336 15.65040650406504,51.37195121951219" fill="none" stroke="black" stroke-width="0.6"></polyline><polyline points="15.65040650406504,51.37195121951219 15.853658536585366,50.96544715447154 16.006097560975608,50.762195121951216 16.05691056910569,50.609756097560975 16.10772357723577,50.609756097560975 16.10772357723577,50.609756097560975 16.10772357723577,50.609756097560975 16.10772357723577,50.609756097560975 16.05691056910569,50.66056910569105 16.006097560975608,50.8130081300813 15.853658536585366,51.21951219512195 15.65040650406504,51.829268292682926 15.447154471544716,52.540650406504064 15.24390243902439,53.201219512195124 15.091463414634147,53.91260162601626 14.989837398373984,54.52235772357724 14.989837398373984,55.03048780487805 15.040650406504065,55.33536585365854 15.19308943089431,55.53861788617886 15.447154471544716,55.53861788617886 15.701219512195122,55.53861788617886 16.05691056910569,55.386178861788615 16.463414634146343,55.08130081300813 16.920731707317074,54.72560975609756 17.378048780487806,54.26829268292683 17.784552845528456,53.8109756097561 18.191056910569106,53.302845528455286 18.34349593495935,53.048780487804876 18.495934959349594,52.84552845528455 18.75,52.489837398373986 18.953252032520325,52.083333333333336 19.054878048780488,51.77845528455284 19.15650406504065,51.47357723577235 19.15650406504065,51.168699186991866 19.15650406504065,51.016260162601625 19.10569105691057,50.96544715447154 19.054878048780488,50.96544715447154 19.004065040650406,50.96544715447154 18.902439024390244,51.016260162601625 18.80081300813008,51.21951219512195 18.597560975609756,51.575203252032516 18.39430894308943,52.13414634146341 18.191056910569106,52.74390243902439 18.038617886178862,53.302845528455286 17.9369918699187,53.86178861788618 17.88617886178862,54.47154471544715 17.88617886178862,54.92886178861789 17.98780487804878,55.18292682926829 18.191056910569106,55.386178861788615 18.445121951219512,55.386178861788615 18.80081300813008,55.386178861788615" fill="none" stroke="black" stroke-width="0.6"></polyline><polyline points="18.80081300813008,55.386178861788615 19.258130081300813,55.18292682926829 19.664634146341463,54.8780487804878 20.121951219512194,54.420731707317074 20.630081300813007,53.86178861788618 21.036585365853657,53.353658536585364 21.392276422764226,52.79471544715447 21.747967479674795,52.1849593495935 21.95121951219512,51.67682926829268 22.052845528455283,51.168699186991866 22.154471544715445,50.71138211382114 22.154471544715445,50.50813008130081 22.154471544715445,50.40650406504065 22.103658536585364,50.355691056910565 22.052845528455283,50.355691056910565 22.0020325203252,50.355691056910565 21.95121951219512,50.355691056910565 21.90040650406504,50.40650406504065 21.849593495934958,50.40650406504065 21.849593495934958,50.50813008130081 21.849593495934958,50.609756097560975 21.849593495934958,50.71138211382114 22.0020325203252,50.8130081300813 22.103658536585364,50.91463414634146 22.30691056910569,51.016260162601625 22.560975609756095,51.11788617886179 22.815040650406505,51.168699186991866 23.06910569105691,51.168699186991866 23.323170731707318,51.21951219512195 23.526422764227643,51.21951219512195 23.729674796747968,51.21951219512195 23.932926829268293,51.21951219512195 24.085365853658537,51.21951219512195 24.1869918699187,51.21951219512195 24.23780487804878,51.21951219512195 24.288617886178862,51.27032520325203 24.288617886178862,51.37195121951219 24.288617886178862,51.575203252032516 24.1869918699187,51.829268292682926 24.034552845528456,52.1849593495935 23.83130081300813,52.540650406504064 23.628048780487806,52.896341463414636 23.42479674796748,53.201219512195124 23.272357723577237,53.45528455284553 23.119918699186993,53.65853658536585 23.01829268292683,53.8109756097561 22.96747967479675,53.86178861788618 22.96747967479675,53.91260162601626 22.96747967479675,53.91260162601626 22.96747967479675,53.91260162601626 23.06910569105691,53.91260162601626" fill="none" stroke="black" stroke-width="0.6"></polyline><polyline points="23.06910569105691,53.91260162601626 23.119918699186993,53.91260162601626 23.221544715447155,53.91260162601626 23.3739837398374,53.8109756097561 23.577235772357724,53.709349593495936 23.78048780487805,53.55691056910569 23.983739837398375,53.40447154471545 24.288617886178862,53.201219512195124 24.491869918699187,52.9979674796748 24.745934959349594,52.84552845528455 25,52.69308943089431 25.203252032520325,52.69308943089431 25.304878048780488,52.69308943089431 25.40650406504065,52.69308943089431 25.508130081300813,52.84552845528455 25.508130081300813,53.048780487804876 25.558943089430894,53.40447154471545 25.558943089430894,53.91260162601626 25.508130081300813,54.67479674796748 25.304878048780488,55.640243902439025 25.152439024390244,56.65650406504065 24.94918699186992,57.57113821138211 24.745934959349594,58.33333333333333 24.64430894308943,58.790650406504064 24.491869918699187,59.197154471544714 24.288617886178862,59.65447154471545 24.13617886178862,59.959349593495936 23.983739837398375,60.11178861788618 23.932926829268293,60.21341463414634 23.882113821138212,60.264227642276424 23.882113821138212,60.264227642276424 23.882113821138212,60.21341463414634 23.882113821138212,60.11178861788618 23.882113821138212,59.90853658536585 23.882113821138212,59.70528455284553 23.882113821138212,59.5020325203252 23.882113821138212,59.40040650406504 23.932926829268293,59.298780487804876 23.932926829268293,59.197154471544714 23.932926829268293,59.04471544715447 23.983739837398375,58.892276422764226 24.034552845528456,58.6890243902439 24.085365853658537,58.43495934959349 24.1869918699187,58.079268292682926 24.390243902439025,57.57113821138211 24.796747967479675,56.80894308943089 25.304878048780488,55.84349593495935 25.8130081300813,55.03048780487805 26.321138211382113,54.36991869918699 26.880081300813007,53.8109756097561 27.38821138211382,53.302845528455286" fill="none" stroke="black" stroke-width="0.6"></polyline><polyline points="27.38821138211382,53.302845528455286 27.896341463414632,52.84552845528455 28.404471544715445,52.33739837398374 28.810975609756095,52.03252032520325 29.115853658536583,51.93089430894309 29.420731707317074,51.93089430894309 29.6239837398374,51.981707317073166 29.827235772357724,52.083333333333336 29.979674796747968,52.1849593495935 30.08130081300813,52.28658536585366 30.132113821138212,52.33739837398374 30.233739837398375,52.38821138211382 30.284552845528456,52.4390243902439 30.284552845528456,52.4390243902439 30.284552845528456,52.4390243902439 30.182926829268293,52.4390243902439 29.979674796747968,52.59146341463415 29.725609756097562,52.74390243902439 29.369918699186993,52.9979674796748 28.96341463414634,53.302845528455286 28.55691056910569,53.607723577235774 28.20121951219512,53.96341463414634 27.84552845528455,54.36991869918699 27.540650406504064,54.72560975609756 27.38821138211382,54.979674796747965 27.33739837398374,55.13211382113821 27.33739837398374,55.13211382113821 27.38821138211382,55.13211382113821 27.489837398373982,55.03048780487805 27.693089430894307,54.8780487804878 27.896341463414632,54.6239837398374 28.15040650406504,54.26829268292683 28.353658536585364,53.96341463414634 28.404471544715445,53.8109756097561 28.455284552845526,53.65853658536585 28.60772357723577,53.40447154471545 28.60772357723577,53.302845528455286 28.60772357723577,53.2520325203252 28.60772357723577,53.2520325203252 28.55691056910569,53.353658536585364 28.506097560975608,53.55691056910569 28.404471544715445,53.96341463414634 28.353658536585364,54.36991869918699 28.302845528455283,54.72560975609756 28.302845528455283,54.8780487804878 28.302845528455283,55.13211382113821 28.353658536585364,55.4369918699187 28.455284552845526,55.58943089430894 28.55691056910569,55.6910569105691 28.760162601626014,55.89430894308943 29.0650406504065,55.94512195121951" fill="none" stroke="black" stroke-width="0.6"></polyline><polyline points="29.0650406504065,55.94512195121951 29.420731707317074,55.94512195121951 29.776422764227643,55.74186991869919 30.233739837398375,55.4369918699187 30.640243902439025,55.03048780487805 31.046747967479675,54.6239837398374 31.402439024390244,54.11585365853659 31.808943089430894,53.50609756097561 32.16463414634146,52.84552845528455 32.36788617886179,52.38821138211382 32.52032520325203,52.083333333333336 32.57113821138211,51.829268292682926 32.57113821138211,51.67682926829268 32.57113821138211,51.6260162601626 32.57113821138211,51.6260162601626 32.52032520325203,51.6260162601626 32.46951219512195,51.77845528455284 32.3170731707317,52.03252032520325 32.16463414634146,52.38821138211382 32.012195121951216,52.84552845528455 31.859756097560975,53.302845528455286 31.758130081300813,53.65853658536585 31.70731707317073,53.96341463414634 31.70731707317073,54.21747967479675 31.758130081300813,54.36991869918699 31.910569105691057,54.420731707317074 32.11382113821138,54.420731707317074 32.266260162601625,54.420731707317074 32.418699186991866,54.420731707317074 32.52032520325203,54.47154471544715 32.57113821138211,54.47154471544715 32.672764227642276,54.52235772357724 32.72357723577236,54.6239837398374 32.72357723577236,54.72560975609756 32.77439024390244,54.8780487804878 32.82520325203252,55.03048780487805 32.8760162601626,55.13211382113821 32.97764227642276,55.28455284552845 33.079268292682926,55.386178861788615 33.23170731707317,55.4369918699187 33.485772357723576,55.4369918699187 33.790650406504064,55.33536585365854 34.09552845528455,55.08130081300813 34.5020325203252,54.67479674796748 34.90853658536585,54.26829268292683 35.264227642276424,53.760162601626014 35.61991869918699,53.201219512195124 35.92479674796748,52.74390243902439 36.1280487804878,52.38821138211382 36.229674796747965,52.03252032520325 36.28048780487805,51.880081300813" fill="none" stroke="black" stroke-width="0.6"></polyline><polyline points="36.28048780487805,51.880081300813 36.28048780487805,51.880081300813 36.229674796747965,51.880081300813 36.1280487804878,51.880081300813 35.92479674796748,52.083333333333336 35.670731707317074,52.489837398373986 35.46747967479675,52.74390243902439 35.3150406504065,52.9979674796748 34.959349593495936,53.607723577235774 34.603658536585364,54.166666666666664 34.34959349593496,54.6239837398374 34.2479674796748,54.92886178861789 34.2479674796748,55.03048780487805 34.2479674796748,55.03048780487805 34.34959349593496,54.979674796747965 34.5020325203252,54.8780487804878 34.75609756097561,54.6239837398374 35.11178861788618,54.166666666666664 35.51829268292683,53.607723577235774 35.97560975609756,53.048780487804876 36.38211382113821,52.4390243902439 36.78861788617886,51.72764227642276 37.19512195121951,50.96544715447154 37.449186991869915,50.203252032520325 37.65243902439024,49.49186991869919 37.703252032520325,49.03455284552845 37.703252032520325,48.93292682926829 37.703252032520325,48.93292682926829 37.65243902439024,49.03455284552845 37.55081300813008,49.23780487804878 37.39837398373984,49.74593495934959 37.19512195121951,50.45731707317073 36.99186991869919,51.168699186991866 36.83943089430894,51.981707317073166 36.73780487804878,52.69308943089431 36.6869918699187,53.55691056910569 36.73780487804878,54.52235772357724 36.99186991869919,55.18292682926829 37.449186991869915,55.58943089430894 38.05894308943089,55.792682926829265 38.77032520325203,55.792682926829265 39.583333333333336,55.6910569105691 40.4979674796748,55.386178861788615 41.41260162601626,54.827235772357724 42.479674796747965,53.96341463414634 43.44512195121951,53.15040650406504 44.105691056910565,52.489837398373986 44.5630081300813,51.77845528455284 44.8170731707317,50.91463414634146" fill="none" stroke="black" stroke-width="0.6"></polyline><polyline points="20.985772357723576,48.47560975609756 20.985772357723576,48.42479674796748 21.08739837398374,48.3739837398374" fill="none" stroke="black" stroke-width="0.6"></polyline><polyline points="18.597560975609756,46.44308943089431 18.597560975609756,46.34146341463415 18.495934959349594,46.1890243902439 18.495934959349594,46.13821138211382 18.495934959349594,46.13821138211382 18.495934959349594,46.13821138211382 18.648373983739837,46.13821138211382 18.80081300813008,46.1890243902439" fill="none" stroke="black" stroke-width="0.6"></polyline></svg>