<svg height="100" width="100" preserveAspectRatio="xMidYMid meet"><polyline points="50.30487804878049,51.168699186991866 50.30487804878049,51.168699186991866 50.2540650406504,51.168699186991866 50.2540650406504,51.11788617886179 50.203252032520325,51.11788617886179 50.203252032520325,51.11788617886179 50.203252032520325,51.11788617886179 50.203252032520325,51.0670731707317 50.203252032520325,51.016260162601625 50.2540650406504,50.96544715447154 50.30487804878049,50.86382113821138 50.355691056910565,50.8130081300813 50.40650406504065,50.66056910569105 50.40650406504065,50.55894308943089 50.45731707317073,50.40650406504065 50.45731707317073,50.203252032520325 50.45731707317073,50.05081300813008 50.45731707317073,49.84756097560975 50.45731707317073,49.64430894308943 50.40650406504065,49.4410569105691 50.355691056910565,49.28861788617886 50.30487804878049,49.08536585365854 50.2540650406504,48.93292682926829 50.15243902439024,48.78048780487805 50.05081300813008,48.6280487804878 49.949186991869915,48.52642276422764 49.89837398373984,48.3739837398374 49.796747967479675,48.323170731707314 49.69512195121951,48.22154471544715 49.59349593495935,48.170731707317074 49.542682926829265,48.11991869918699 49.4410569105691,48.06910569105691 49.33943089430894,48.01829268292683 49.23780487804878,48.01829268292683 49.136178861788615,48.01829268292683 49.08536585365854,48.01829268292683 48.983739837398375,48.01829268292683 48.88211382113821,48.01829268292683 48.83130081300813,48.06910569105691 48.78048780487805,48.06910569105691 48.67886178861789,48.11991869918699 48.577235772357724,48.22154471544715 48.47560975609756,48.27235772357724 48.3739837398374,48.3739837398374 48.27235772357724,48.42479674796748 48.170731707317074,48.47560975609756 48.11991869918699,48.52642276422764 48.01829268292683,48.577235772357724 47.96747967479675,48.6280487804878 47.916666666666664,48.729674796747965 47.86585365853659,48.78048780487805" fill="none" stroke="black" stroke-width="0.6"></polyline><polyline points="47.86585365853659,48.78048780487805 47.8150406504065,48.83130081300813 47.764227642276424,48.93292682926829 47.71341463414634,48.983739837398375 47.71341463414634,49.08536585365854 47.61178861788618,49.1869918699187 47.61178861788618,49.28861788617886 47.5609756097561,49.33943089430894 47.510162601626014,49.4410569105691 47.459349593495936,49.542682926829265 47.40853658536585,49.64430894308943 47.357723577235774,49.74593495934959 47.30691056910569,49.84756097560975 47.25609756097561,49.949186991869915 47.20528455284553,50.10162601626016 47.15447154471545,50.203252032520325 47.103658536585364,50.30487804878049 47.052845528455286,50.40650406504065 47.0020325203252,50.55894308943089 47.0020325203252,50.66056910569105 46.951219512195124,50.8130081300813 46.951219512195124,50.96544715447154 46.90040650406504,51.11788617886179 46.84959349593496,51.21951219512195 46.84959349593496,51.32113821138211 46.84959349593496,51.47357723577235 46.84959349593496,51.575203252032516 46.84959349593496,51.72764227642276 46.84959349593496,51.880081300813 46.84959349593496,51.981707317073166 46.84959349593496,52.13414634146341 46.84959349593496,52.28658536585366 46.84959349593496,52.38821138211382 46.90040650406504,52.540650406504064 46.951219512195124,52.69308943089431 46.951219512195124,52.84552845528455 47.0020325203252,52.9979674796748 47.052845528455286,53.09959349593496 47.103658536585364,53.2520325203252 47.15447154471545,53.40447154471545 47.25609756097561,53.50609756097561 47.30691056910569,53.65853658536585 47.357723577235774,53.760162601626014 47.459349593495936,53.86178861788618 47.5609756097561,54.014227642276424 47.66260162601626,54.11585365853659 47.8150406504065,54.21747967479675 47.916666666666664,54.36991869918699 48.06910569105691,54.47154471544715 48.22154471544715,54.573170731707314 48.3739837398374,54.67479674796748" fill="none" stroke="black" stroke-width="0.6"></polyline><polyline points="48.3739837398374,54.67479674796748 48.52642276422764,54.72560975609756 48.729674796747965,54.827235772357724 48.88211382113821,54.92886178861789 49.03455284552845,54.979674796747965 49.1869918699187,55.08130081300813 49.33943089430894,55.13211382113821 49.49186991869919,55.18292682926829 49.64430894308943,55.233739837398375 49.796747967479675,55.28455284552845 49.949186991869915,55.28455284552845 50.10162601626016,55.33536585365854 50.2540650406504,55.33536585365854 50.40650406504065,55.33536585365854 50.55894308943089,55.33536585365854 50.71138211382114,55.33536585365854 50.86382113821138,55.33536585365854 51.016260162601625,55.28455284552845 51.11788617886179,55.233739837398375 51.27032520325203,55.233739837398375 51.37195121951219,55.18292682926829 51.52439024390244,55.13211382113821 51.67682926829268,55.08130081300813 51.829268292682926,54.979674796747965 51.93089430894309,54.92886178861789 52.083333333333336,54.8780487804878 52.235772357723576,54.77642276422764 52.33739837398374,54.72560975609756 52.4390243902439,54.67479674796748 52.59146341463415,54.573170731707314 52.69308943089431,54.52235772357724 52.79471544715447,54.47154471544715 52.896341463414636,54.420731707317074 52.947154471544714,54.36991869918699 53.048780487804876,54.26829268292683 53.15040650406504,54.21747967479675 53.201219512195124,54.166666666666664 53.353658536585364,54.11585365853659 53.40447154471545,54.0650406504065 53.50609756097561,54.014227642276424 53.65853658536585,53.96341463414634 53.760162601626014,53.86178861788618 53.86178861788618,53.8109756097561 53.96341463414634,53.709349593495936 54.0650406504065,53.65853658536585 54.166666666666664,53.607723577235774 54.26829268292683,53.50609756097561 54.36991869918699,53.45528455284553 54.47154471544715,53.353658536585364 54.6239837398374,53.302845528455286 54.72560975609756,53.201219512195124" fill="none" stroke="black" stroke-width="0.6"></polyline><polyline points="54.72560975609756,53.201219512195124 54.827235772357724,53.15040650406504 54.92886178861789,53.048780487804876 55.03048780487805,52.947154471544714 55.13211382113821,52.84552845528455 55.233739837398375,52.74390243902439 55.33536585365854,52.642276422764226 55.4369918699187,52.540650406504064 55.53861788617886,52.38821138211382 55.640243902439025,52.28658536585366 55.6910569105691,52.1849593495935 55.792682926829265,52.03252032520325 55.89430894308943,51.93089430894309 55.94512195121951,51.829268292682926 56.046747967479675,51.67682926829268 56.09756097560975,51.575203252032516 56.14837398373984,51.47357723577235 56.199186991869915,51.32113821138211 56.25,51.168699186991866 56.30081300813008,51.016260162601625 56.35162601626016,50.86382113821138 56.453252032520325,50.71138211382114 56.453252032520325,50.55894308943089 56.5040650406504,50.355691056910565 56.55487804878049,50.203252032520325 56.605691056910565,50.05081300813008 56.605691056910565,49.949186991869915 56.605691056910565,49.84756097560975 56.65650406504065,49.64430894308943 56.65650406504065,49.4410569105691 56.70731707317073,49.23780487804878 56.70731707317073,49.03455284552845 56.70731707317073,48.88211382113821 56.70731707317073,48.67886178861789 56.70731707317073,48.47560975609756 56.70731707317073,48.323170731707314 56.70731707317073,48.11991869918699 56.70731707317073,47.916666666666664 56.65650406504065,47.764227642276424 56.605691056910565,47.5609756097561 56.55487804878049,47.357723577235774 56.55487804878049,47.103658536585364 56.5040650406504,46.798780487804876 56.453252032520325,46.49390243902439 56.453252032520325,46.239837398373986 56.35162601626016,45.9349593495935 56.30081300813008,45.78252032520325 56.25,45.63008130081301 56.14837398373984,45.52845528455285 56.046747967479675,45.42682926829268 55.99593495934959,45.27439024390244" fill="none" stroke="black" stroke-width="0.6"></polyline><polyline points="55.99593495934959,45.27439024390244 55.89430894308943,45.172764227642276 55.792682926829265,45.02032520325203 55.640243902439025,44.918699186991866 55.53861788617886,44.766260162601625 55.4369918699187,44.66463414634146 55.28455284552845,44.5630081300813 55.18292682926829,44.41056910569105 55.03048780487805,44.30894308943089 54.92886178861789,44.20731707317073 54.827235772357724,44.105691056910565 54.67479674796748,44.0040650406504 54.573170731707314,43.90243902439024 54.47154471544715,43.80081300813008 54.31910569105691,43.75 54.21747967479675,43.64837398373984 54.0650406504065,43.546747967479675 53.96341463414634,43.44512195121951 53.8109756097561,43.34349593495935 53.709349593495936,43.292682926829265 53.55691056910569,43.1910569105691 53.45528455284553,43.140243902439025 53.353658536585364,43.08943089430894 53.201219512195124,42.98780487804878 53.048780487804876,42.9369918699187 52.947154471544714,42.886178861788615 52.79471544715447,42.83536585365854 52.642276422764226,42.78455284552845 52.4390243902439,42.733739837398375 52.28658536585366,42.68292682926829 52.083333333333336,42.63211382113821 51.880081300813,42.58130081300813 51.72764227642276,42.53048780487805 51.575203252032516,42.479674796747965 51.422764227642276,42.42886178861789 51.37195121951219,42.42886178861789 51.32113821138211,42.3780487804878 51.11788617886179,42.327235772357724 50.96544715447154,42.327235772357724 50.8130081300813,42.27642276422764 50.609756097560975,42.22560975609756 50.45731707317073,42.17479674796748 50.2540650406504,42.1239837398374 50.10162601626016,42.1239837398374 49.949186991869915,42.073170731707314 49.796747967479675,42.073170731707314 49.64430894308943,42.02235772357724 49.542682926829265,42.02235772357724 49.390243902439025,41.97154471544715 49.1869918699187,41.97154471544715 48.983739837398375,41.97154471544715" fill="none" stroke="black" stroke-width="0.6"></polyline><polyline points="48.983739837398375,41.97154471544715 48.729674796747965,41.97154471544715 48.42479674796748,41.97154471544715 48.170731707317074,41.97154471544715 47.96747967479675,41.97154471544715 47.71341463414634,41.97154471544715 47.510162601626014,42.02235772357724 47.30691056910569,42.02235772357724 47.103658536585364,42.02235772357724 46.90040650406504,42.02235772357724 46.7479674796748,42.02235772357724 46.54471544715447,42.02235772357724 46.34146341463415,42.073170731707314 46.13821138211382,42.073170731707314 45.9349593495935,42.1239837398374 45.73170731707317,42.1239837398374 45.52845528455285,42.17479674796748 45.3760162601626,42.22560975609756 45.22357723577235,42.22560975609756 45.07113821138211,42.27642276422764 44.96951219512195,42.327235772357724 44.86788617886179,42.327235772357724 44.766260162601625,42.3780487804878 44.66463414634146,42.42886178861789 44.5630081300813,42.479674796747965 44.46138211382114,42.53048780487805 44.41056910569105,42.63211382113821 44.30894308943089,42.68292682926829 44.20731707317073,42.733739837398375 44.15650406504065,42.78455284552845 44.05487804878049,42.886178861788615 44.05487804878049,42.886178861788615 44.0040650406504,42.9369918699187 43.90243902439024,43.03861788617886 43.85162601626016,43.140243902439025 43.75,43.24186991869919 43.64837398373984,43.34349593495935 43.546747967479675,43.49593495934959 43.44512195121951,43.64837398373984 43.292682926829265,43.85162601626016 43.03861788617886,44.15650406504065 42.78455284552845,44.46138211382114 42.53048780487805,44.71544715447154 42.27642276422764,44.918699186991866 42.073170731707314,45.12195121951219 41.920731707317074,45.27439024390244 41.76829268292683,45.3760162601626 41.71747967479675,45.42682926829268 41.666666666666664,45.47764227642276 41.61585365853659,45.579268292682926 41.514227642276424,45.68089430894309" fill="none" stroke="black" stroke-width="0.6"></polyline><polyline points="41.514227642276424,45.68089430894309 41.46341463414634,45.78252032520325 41.41260162601626,45.88414634146341 41.36178861788618,45.985772357723576 41.3109756097561,46.13821138211382 41.260162601626014,46.239837398373986 41.260162601626014,46.34146341463415 41.209349593495936,46.49390243902439 41.209349593495936,46.59552845528455 41.15853658536585,46.7479674796748 41.15853658536585,46.90040650406504 41.107723577235774,47.052845528455286 41.00609756097561,47.30691056910569 40.95528455284553,47.510162601626014 40.90447154471545,47.71341463414634 40.802845528455286,47.916666666666664 40.7520325203252,48.11991869918699 40.701219512195124,48.27235772357724 40.59959349593496,48.52642276422764 40.548780487804876,48.67886178861789 40.4979674796748,48.88211382113821 40.447154471544714,49.03455284552845 40.396341463414636,49.23780487804878 40.34552845528455,49.390243902439025 40.29471544715447,49.59349593495935 40.24390243902439,49.796747967479675 40.24390243902439,50 40.19308943089431,50.203252032520325 40.142276422764226,50.355691056910565 40.09146341463415,50.55894308943089 40.040650406504064,50.762195121951216 39.989837398373986,50.96544715447154 39.9390243902439,51.168699186991866 39.9390243902439,51.37195121951219 39.9390243902439,51.47357723577235 39.9390243902439,51.6260162601626 39.9390243902439,51.829268292682926 39.9390243902439,51.981707317073166 39.9390243902439,52.13414634146341 39.9390243902439,52.33739837398374 39.9390243902439,52.489837398373986 39.9390243902439,52.642276422764226 39.989837398373986,52.84552845528455 39.989837398373986,52.9979674796748 40.040650406504064,53.201219512195124 40.040650406504064,53.353658536585364 40.09146341463415,53.45528455284553 40.142276422764226,53.607723577235774 40.142276422764226,53.760162601626014 40.19308943089431,53.91260162601626 40.24390243902439,54.11585365853659" fill="none" stroke="black" stroke-width="0.6"></polyline><polyline points="40.24390243902439,54.11585365853659 40.29471544715447,54.31910569105691 40.34552845528455,54.52235772357724 40.447154471544714,54.77642276422764 40.4979674796748,55.08130081300813 40.59959349593496,55.386178861788615 40.65040650406504,55.640243902439025 40.7520325203252,55.89430894308943 40.802845528455286,56.09756097560975 40.90447154471545,56.40243902439024 41.00609756097561,56.605691056910565 41.107723577235774,56.80894308943089 41.209349593495936,57.0630081300813 41.36178861788618,57.266260162601625 41.46341463414634,57.46951219512195 41.5650406504065,57.57113821138211 41.61585365853659,57.672764227642276 41.76829268292683,57.77439024390244 41.920731707317074,57.92682926829268 42.073170731707314,57.97764227642276 42.22560975609756,58.02845528455284 42.327235772357724,58.079268292682926 42.479674796747965,58.18089430894309 42.58130081300813,58.231707317073166 42.68292682926829,58.28252032520325 42.78455284552845,58.33333333333333 42.886178861788615,58.43495934959349 42.98780487804878,58.485772357723576 43.03861788617886,58.536585365853654 43.08943089430894,58.536585365853654 43.1910569105691,58.63821138211382 43.292682926829265,58.6890243902439 43.39430894308943,58.739837398373986 43.49593495934959,58.790650406504064 43.59756097560975,58.84146341463415 43.64837398373984,58.892276422764226 43.75,58.94308943089431 43.80081300813008,58.94308943089431 43.85162601626016,58.99390243902439 43.90243902439024,59.04471544715447 44.0040650406504,59.09552845528455 44.05487804878049,59.146341463414636 44.15650406504065,59.197154471544714 44.20731707317073,59.2479674796748 44.30894308943089,59.298780487804876 44.359756097560975,59.34959349593496 44.46138211382114,59.40040650406504 44.5630081300813,59.451219512195124 44.66463414634146,59.552845528455286 44.71544715447154,59.552845528455286 44.766260162601625,59.603658536585364" fill="none" stroke="black" stroke-width="0.6"></polyline><polyline points="44.766260162601625,59.603658536585364 44.86788617886179,59.65447154471545 44.96951219512195,59.75609756097561 45.07113821138211,59.80691056910569 45.172764227642276,59.857723577235774 45.27439024390244,59.959349593495936 45.3760162601626,60.010162601626014 45.52845528455285,60.0609756097561 45.63008130081301,60.16260162601626 45.78252032520325,60.21341463414634 45.88414634146341,60.264227642276424 45.985772357723576,60.36585365853659 46.08739837398374,60.416666666666664 46.1890243902439,60.46747967479675 46.239837398373986,60.51829268292683 46.34146341463415,60.56910569105691 46.44308943089431,60.61991869918699 46.54471544715447,60.670731707317074 46.646341463414636,60.72154471544715 46.7479674796748,60.77235772357724 46.7479674796748,60.823170731707314 46.798780487804876,60.8739837398374 46.951219512195124,60.92479674796748 46.951219512195124,60.92479674796748 47.0020325203252,60.97560975609756 47.103658536585364,61.02642276422764 47.20528455284553,61.077235772357724 47.30691056910569,61.1280487804878 47.40853658536585,61.1280487804878 47.510162601626014,61.229674796747965 47.5609756097561,61.229674796747965 47.66260162601626,61.33130081300813 47.764227642276424,61.38211382113821 47.86585365853659,61.43292682926829 47.96747967479675,61.483739837398375 48.06910569105691,61.53455284552845 48.170731707317074,61.58536585365854 48.323170731707314,61.6869918699187 48.42479674796748,61.73780487804878 48.577235772357724,61.78861788617886 48.67886178861789,61.83943089430894 48.83130081300813,61.890243902439025 48.93292682926829,61.9410569105691 49.08536585365854,62.042682926829265 49.23780487804878,62.09349593495935 49.390243902439025,62.14430894308943 49.49186991869919,62.14430894308943 49.64430894308943,62.19512195121951 49.74593495934959,62.24593495934959 49.89837398373984,62.24593495934959 50,62.296747967479675" fill="none" stroke="black" stroke-width="0.6"></polyline><polyline points="50,62.296747967479675 50.15243902439024,62.296747967479675 50.2540650406504,62.296747967479675 50.355691056910565,62.34756097560975 50.50813008130081,62.34756097560975 50.609756097560975,62.34756097560975 50.71138211382114,62.34756097560975 50.8130081300813,62.34756097560975 50.96544715447154,62.34756097560975 51.0670731707317,62.34756097560975 51.168699186991866,62.34756097560975 51.32113821138211,62.34756097560975 51.422764227642276,62.34756097560975 51.575203252032516,62.296747967479675 51.72764227642276,62.24593495934959 51.880081300813,62.24593495934959 52.083333333333336,62.19512195121951 52.235772357723576,62.14430894308943 52.4390243902439,62.09349593495935 52.642276422764226,62.042682926829265 52.84552845528455,61.9410569105691 53.048780487804876,61.890243902439025 53.15040650406504,61.890243902439025 53.2520325203252,61.83943089430894 53.40447154471545,61.78861788617886 53.607723577235774,61.73780487804878 53.760162601626014,61.6869918699187 53.96341463414634,61.636178861788615 54.11585365853659,61.58536585365854 54.26829268292683,61.53455284552845 54.47154471544715,61.43292682926829 54.6239837398374,61.38211382113821 54.827235772357724,61.28048780487805 55.03048780487805,61.229674796747965 55.18292682926829,61.1280487804878 55.386178861788615,61.077235772357724 55.58943089430894,61.02642276422764 55.792682926829265,60.97560975609756 55.94512195121951,60.92479674796748 56.14837398373984,60.8739837398374 56.30081300813008,60.823170731707314 56.453252032520325,60.72154471544715 56.605691056910565,60.670731707317074 56.75813008130081,60.56910569105691 56.91056910569105,60.51829268292683 57.0630081300813,60.416666666666664 57.21544715447154,60.3150406504065 57.36788617886179,60.264227642276424 57.52032520325203,60.16260162601626 57.672764227642276,60.0609756097561 57.77439024390244,60.010162601626014" fill="none" stroke="black" stroke-width="0.6"></polyline><polyline points="57.77439024390244,60.010162601626014 57.97764227642276,59.90853658536585 58.079268292682926,59.80691056910569 58.231707317073166,59.75609756097561 58.38414634146341,59.65447154471545 58.485772357723576,59.552845528455286 58.63821138211382,59.451219512195124 58.84146341463415,59.34959349593496 58.99390243902439,59.197154471544714 59.146341463414636,59.09552845528455 59.298780487804876,58.94308943089431 59.40040650406504,58.84146341463415 59.552845528455286,58.6890243902439 59.70528455284553,58.58739837398374 59.80691056910569,58.43495934959349 59.959349593495936,58.33333333333333 60.0609756097561,58.18089430894309 60.21341463414634,58.02845528455284 60.36585365853659,57.825203252032516 60.51829268292683,57.672764227642276 60.61991869918699,57.52032520325203 60.77235772357724,57.3170731707317 60.92479674796748,57.16463414634146 60.97560975609756,57.0630081300813 61.02642276422764,56.96138211382114 61.17886178861789,56.80894308943089 61.33130081300813,56.55487804878049 61.43292682926829,56.35162601626016 61.58536585365854,56.14837398373984 61.73780487804878,55.94512195121951 61.83943089430894,55.74186991869919 61.9410569105691,55.53861788617886 62.09349593495935,55.33536585365854 62.14430894308943,55.13211382113821 62.24593495934959,54.8780487804878 62.34756097560975,54.6239837398374 62.39837398373984,54.420731707317074 62.5,54.166666666666664 62.55081300813008,53.91260162601626 62.65243902439024,53.65853658536585 62.703252032520325,53.40447154471545 62.7540650406504,53.09959349593496 62.80487804878049,52.84552845528455 62.855691056910565,52.59146341463415 62.90650406504065,52.33739837398374 62.95731707317073,52.13414634146341 63.00813008130081,51.880081300813 63.00813008130081,51.6260162601626 63.05894308943089,51.37195121951219 63.109756097560975,51.11788617886179 63.16056910569105,50.91463414634146" fill="none" stroke="black" stroke-width="0.6"></polyline><polyline points="63.16056910569105,50.91463414634146 63.21138211382114,50.66056910569105 63.262195121951216,50.40650406504065 63.3130081300813,50.15243902439024 63.36382113821138,49.89837398373984 63.36382113821138,49.64430894308943 63.41463414634146,49.390243902439025 63.41463414634146,49.136178861788615 63.46544715447154,48.88211382113821 63.46544715447154,48.67886178861789 63.516260162601625,48.42479674796748 63.516260162601625,48.170731707317074 63.5670731707317,47.96747967479675 63.5670731707317,47.764227642276424 63.5670731707317,47.510162601626014 63.5670731707317,47.30691056910569 63.5670731707317,47.103658536585364 63.5670731707317,46.84959349593496 63.5670731707317,46.54471544715447 63.5670731707317,46.392276422764226 63.5670731707317,46.239837398373986 63.5670731707317,46.03658536585366 63.5670731707317,45.833333333333336 63.516260162601625,45.68089430894309 63.516260162601625,45.47764227642276 63.46544715447154,45.325203252032516 63.46544715447154,45.172764227642276 63.41463414634146,44.96951219512195 63.36382113821138,44.8170731707317 63.3130081300813,44.61382113821138 63.262195121951216,44.46138211382114 63.21138211382114,44.359756097560975 63.16056910569105,44.20731707317073 63.05894308943089,44.105691056910565 63.00813008130081,44.0040650406504 63.00813008130081,43.953252032520325 62.95731707317073,43.90243902439024 62.90650406504065,43.80081300813008 62.855691056910565,43.699186991869915 62.80487804878049,43.59756097560975 62.7540650406504,43.44512195121951 62.703252032520325,43.34349593495935 62.65243902439024,43.1910569105691 62.55081300813008,43.08943089430894 62.5,42.9369918699187 62.39837398373984,42.78455284552845 62.34756097560975,42.63211382113821 62.24593495934959,42.53048780487805 62.14430894308943,42.3780487804878 62.042682926829265,42.27642276422764 61.9410569105691,42.1239837398374" fill="none" stroke="black" stroke-width="0.6"></polyline><polyline points="61.9410569105691,42.1239837398374 61.83943089430894,41.97154471544715 61.73780487804878,41.81910569105691 61.636178861788615,41.71747967479675 61.53455284552845,41.5650406504065 61.38211382113821,41.41260162601626 61.229674796747965,41.260162601626014 61.1280487804878,41.05691056910569 60.97560975609756,40.90447154471545 60.8739837398374,40.853658536585364 60.823170731707314,40.7520325203252 60.61991869918699,40.59959349593496 60.46747967479675,40.447154471544714 60.3150406504065,40.29471544715447 60.11178861788618,40.19308943089431 59.959349593495936,40.040650406504064 59.75609756097561,39.88821138211382 59.603658536585364,39.78658536585366 59.451219512195124,39.583333333333336 59.2479674796748,39.43089430894309 59.09552845528455,39.329268292682926 58.892276422764226,39.176829268292686 58.739837398373986,39.02439024390244 58.536585365853654,38.87195121951219 58.38414634146341,38.71951219512195 58.18089430894309,38.5670731707317 57.97764227642276,38.41463414634146 57.825203252032516,38.3130081300813 57.62195121951219,38.16056910569105 57.46951219512195,38.05894308943089 57.266260162601625,37.95731707317073 57.11382113821138,37.80487804878049 57.012195121951216,37.7540650406504 56.91056910569105,37.703252032520325 56.75813008130081,37.60162601626016 56.605691056910565,37.5 56.453252032520325,37.39837398373984 56.30081300813008,37.296747967479675 56.199186991869915,37.24593495934959 56.14837398373984,37.19512195121951 55.99593495934959,37.09349593495935 55.84349593495935,36.99186991869919 55.74186991869919,36.890243902439025 55.58943089430894,36.83943089430894 55.4369918699187,36.73780487804878 55.33536585365854,36.636178861788615 55.18292682926829,36.58536585365854 55.03048780487805,36.53455284552845 54.92886178861789,36.43292682926829 54.77642276422764,36.38211382113821 54.67479674796748,36.33130081300813" fill="none" stroke="black" stroke-width="0.6"></polyline><polyline points="54.67479674796748,36.33130081300813 54.573170731707314,36.28048780487805 54.47154471544715,36.28048780487805 54.36991869918699,36.229674796747965 54.26829268292683,36.17886178861789 54.166666666666664,36.1280487804878 54.0650406504065,36.077235772357724 53.96341463414634,36.077235772357724 53.86178861788618,36.02642276422764 53.760162601626014,35.97560975609756 53.709349593495936,35.97560975609756 53.607723577235774,35.92479674796748 53.50609756097561,35.8739837398374 53.40447154471545,35.8739837398374 53.302845528455286,35.823170731707314 53.201219512195124,35.823170731707314 53.15040650406504,35.77235772357724 53.09959349593496,35.77235772357724 52.9979674796748,35.77235772357724 52.896341463414636,35.72154471544715 52.79471544715447,35.72154471544715 52.69308943089431,35.670731707317074 52.642276422764226,35.670731707317074 52.540650406504064,35.61991869918699 52.4390243902439,35.56910569105691 52.28658536585366,35.56910569105691 52.1849593495935,35.51829268292683 52.083333333333336,35.46747967479675 51.981707317073166,35.46747967479675 51.829268292682926,35.416666666666664 51.77845528455284,35.416666666666664 51.67682926829268,35.36585365853659 51.52439024390244,35.36585365853659 51.37195121951219,35.3150406504065 51.168699186991866,35.264227642276424 51.016260162601625,35.264227642276424 50.86382113821138,35.21341463414634 50.71138211382114,35.16260162601626 50.50813008130081,35.16260162601626 50.355691056910565,35.16260162601626 50.203252032520325,35.11178861788618 50.05081300813008,35.11178861788618 49.89837398373984,35.0609756097561 49.69512195121951,35.0609756097561 49.49186991869919,35.0609756097561 49.33943089430894,35.0609756097561 49.136178861788615,35.0609756097561 48.983739837398375,35.0609756097561 48.83130081300813,35.010162601626014 48.67886178861789,35.010162601626014 48.52642276422764,35.010162601626014" fill="none" stroke="black" stroke-width="0.6"></polyline><polyline points="48.52642276422764,35.010162601626014 48.323170731707314,35.010162601626014 48.170731707317074,35.010162601626014 48.01829268292683,35.010162601626014 47.86585365853659,35.010162601626014 47.66260162601626,35.010162601626014 47.510162601626014,35.010162601626014 47.25609756097561,35.010162601626014 47.0020325203252,35.0609756097561 46.697154471544714,35.11178861788618 46.44308943089431,35.16260162601626 46.1890243902439,35.21341463414634 45.985772357723576,35.264227642276424 45.833333333333336,35.3150406504065 45.68089430894309,35.36585365853659 45.52845528455285,35.36585365853659 45.3760162601626,35.416666666666664 45.22357723577235,35.46747967479675 45.12195121951219,35.51829268292683 44.96951219512195,35.56910569105691 44.86788617886179,35.61991869918699 44.71544715447154,35.670731707317074 44.5630081300813,35.72154471544715 44.46138211382114,35.823170731707314 44.30894308943089,35.8739837398374 44.15650406504065,35.92479674796748 44.0040650406504,36.02642276422764 43.85162601626016,36.077235772357724 43.75,36.17886178861789 43.59756097560975,36.229674796747965 43.49593495934959,36.28048780487805 43.44512195121951,36.33130081300813 43.39430894308943,36.38211382113821 43.292682926829265,36.43292682926829 43.1910569105691,36.43292682926829 43.08943089430894,36.53455284552845 43.03861788617886,36.58536585365854 42.9369918699187,36.636178861788615 42.83536585365854,36.6869918699187 42.733739837398375,36.6869918699187 42.63211382113821,36.73780487804878 42.53048780487805,36.78861788617886 42.42886178861789,36.83943089430894 42.327235772357724,36.890243902439025 42.17479674796748,36.99186991869919 42.073170731707314,37.042682926829265 41.920731707317074,37.09349593495935 41.86991869918699,37.14430894308943 41.76829268292683,37.19512195121951 41.61585365853659,37.24593495934959 41.46341463414634,37.34756097560975" fill="none" stroke="black" stroke-width="0.6"></polyline><polyline points="41.46341463414634,37.34756097560975 41.260162601626014,37.39837398373984 41.05691056910569,37.55081300813008 40.95528455284553,37.60162601626016 40.802845528455286,37.703252032520325 40.447154471544714,37.95731707317073 40.09146341463415,38.16056910569105 39.6849593495935,38.41463414634146 39.329268292682926,38.61788617886179 38.97357723577235,38.82113821138211 38.5670731707317,39.07520325203252 38.36382113821138,39.176829268292686 38.21138211382114,39.27845528455285 37.855691056910565,39.48170731707317 37.55081300813008,39.63414634146341 37.24593495934959,39.83739837398374 36.99186991869919,39.989837398373986 36.78861788617886,40.09146341463415 36.636178861788615,40.19308943089431 36.483739837398375,40.29471544715447 36.33130081300813,40.396341463414636 36.17886178861789,40.4979674796748 36.077235772357724,40.65040650406504 35.97560975609756,40.802845528455286 35.823170731707314,40.95528455284553 35.77235772357724,41.00609756097561 35.72154471544715,41.107723577235774 35.56910569105691,41.3109756097561 35.46747967479675,41.514227642276424 35.3150406504065,41.76829268292683 35.11178861788618,42.1239837398374 35.010162601626014,42.327235772357724 34.90853658536585,42.53048780487805 34.80691056910569,42.68292682926829 34.75609756097561,42.78455284552845 34.65447154471545,42.98780487804878 34.603658536585364,43.1910569105691 34.552845528455286,43.34349593495935 34.5020325203252,43.546747967479675 34.451219512195124,43.75 34.40040650406504,43.953252032520325 34.34959349593496,44.105691056910565 34.298780487804876,44.25813008130081 34.2479674796748,44.46138211382114 34.2479674796748,44.61382113821138 34.197154471544714,44.8170731707317 34.146341463414636,44.86788617886179 34.146341463414636,44.918699186991866 34.09552845528455,45.12195121951219 34.04471544715447,45.27439024390244 34.04471544715447,45.47764227642276" fill="none" stroke="black" stroke-width="0.6"></polyline><polyline points="34.04471544715447,45.47764227642276 33.99390243902439,45.63008130081301 33.94308943089431,45.833333333333336 33.892276422764226,45.985772357723576 33.892276422764226,46.1890243902439 33.84146341463415,46.34146341463415 33.790650406504064,46.49390243902439 33.790650406504064,46.697154471544714 33.739837398373986,46.84959349593496 33.6890243902439,47.0020325203252 33.6890243902439,47.20528455284553 33.63821138211382,47.357723577235774 33.58739837398374,47.510162601626014 33.58739837398374,47.71341463414634 33.53658536585366,47.96747967479675 33.485772357723576,48.170731707317074 33.485772357723576,48.3739837398374 33.4349593495935,48.6280487804878 33.4349593495935,48.88211382113821 33.38414634146341,49.08536585365854 33.38414634146341,49.33943089430894 33.333333333333336,49.59349593495935 33.28252032520325,49.796747967479675 33.28252032520325,50.05081300813008 33.28252032520325,50.30487804878049 33.23170731707317,50.55894308943089 33.23170731707317,50.8130081300813 33.23170731707317,51.0670731707317 33.23170731707317,51.32113821138211 33.23170731707317,51.575203252032516 33.23170731707317,51.829268292682926 33.23170731707317,52.083333333333336 33.23170731707317,52.33739837398374 33.23170731707317,52.59146341463415 33.23170731707317,52.84552845528455 33.28252032520325,53.15040650406504 33.28252032520325,53.40447154471545 33.28252032520325,53.65853658536585 33.28252032520325,53.96341463414634 33.28252032520325,54.21747967479675 33.28252032520325,54.52235772357724 33.28252032520325,54.77642276422764 33.28252032520325,55.03048780487805 33.28252032520325,55.28455284552845 33.333333333333336,55.48780487804878 33.333333333333336,55.74186991869919 33.333333333333336,55.94512195121951 33.38414634146341,56.14837398373984 33.38414634146341,56.35162601626016 33.4349593495935,56.55487804878049 33.485772357723576,56.75813008130081" fill="none" stroke="black" stroke-width="0.6"></polyline><polyline points="33.485772357723576,56.75813008130081 33.485772357723576,56.96138211382114 33.58739837398374,57.21544715447154 33.63821138211382,57.46951219512195 33.6890243902439,57.77439024390244 33.739837398373986,58.079268292682926 33.790650406504064,58.33333333333333 33.84146341463415,58.58739837398374 33.892276422764226,58.892276422764226 33.99390243902439,59.09552845528455 34.04471544715447,59.34959349593496 34.146341463414636,59.603658536585364 34.197154471544714,59.857723577235774 34.298780487804876,60.0609756097561 34.40040650406504,60.3150406504065 34.451219512195124,60.56910569105691 34.603658536585364,60.823170731707314 34.65447154471545,60.97560975609756 34.70528455284553,61.1280487804878 34.857723577235774,61.38211382113821 35.010162601626014,61.58536585365854 35.11178861788618,61.78861788617886 35.264227642276424,61.83943089430894 35.36585365853659,61.9410569105691 35.46747967479675,62.042682926829265 35.56910569105691,62.14430894308943 35.670731707317074,62.24593495934959 35.823170731707314,62.34756097560975 35.92479674796748,62.449186991869915 36.02642276422764,62.5 36.1280487804878,62.60162601626016 36.229674796747965,62.703252032520325 36.28048780487805,62.80487804878049 36.38211382113821,62.855691056910565 36.483739837398375,62.95731707317073 36.58536585365854,63.00813008130081 36.636178861788615,63.109756097560975 36.73780487804878,63.21138211382114 36.83943089430894,63.262195121951216 36.890243902439025,63.36382113821138 36.99186991869919,63.41463414634146 37.09349593495935,63.516260162601625 37.19512195121951,63.5670731707317 37.24593495934959,63.61788617886179 37.296747967479675,63.668699186991866 37.39837398373984,63.77032520325203 37.5,63.82113821138211 37.60162601626016,63.922764227642276 37.7540650406504,64.02439024390243 37.855691056910565,64.1260162601626 38.00813008130081,64.17682926829268" fill="none" stroke="black" stroke-width="0.6"></polyline><polyline points="38.00813008130081,64.17682926829268 38.16056910569105,64.27845528455285 38.3130081300813,64.380081300813 38.41463414634146,64.48170731707317 38.5670731707317,64.58333333333333 38.77032520325203,64.6849593495935 38.922764227642276,64.78658536585365 39.1260162601626,64.88821138211382 39.329268292682926,65.04065040650406 39.583333333333336,65.1930894308943 39.83739837398374,65.34552845528455 40.142276422764226,65.4979674796748 40.447154471544714,65.59959349593495 40.7520325203252,65.7520325203252 41.05691056910569,65.80284552845528 41.36178861788618,65.90447154471545 41.514227642276424,65.95528455284553 41.71747967479675,66.0060975609756 41.97154471544715,66.10772357723577 42.27642276422764,66.20934959349593 42.42886178861789,66.26016260162602 42.58130081300813,66.3109756097561 42.886178861788615,66.36178861788618 43.08943089430894,66.46341463414635 43.34349593495935,66.51422764227642 43.546747967479675,66.5650406504065 43.75,66.66666666666667 43.953252032520325,66.71747967479675 44.105691056910565,66.8191056910569 44.30894308943089,66.869918699187 44.512195121951216,66.97154471544715 44.71544715447154,67.07317073170732 44.918699186991866,67.17479674796748 45.12195121951219,67.27642276422765 45.325203252032516,67.32723577235772 45.47764227642276,67.3780487804878 45.63008130081301,67.42886178861788 45.73170731707317,67.47967479674797 45.88414634146341,67.53048780487805 46.03658536585366,67.58130081300813 46.13821138211382,67.6829268292683 46.1890243902439,67.6829268292683 46.290650406504064,67.73373983739837 46.44308943089431,67.78455284552845 46.59552845528455,67.83536585365853 46.7479674796748,67.9369918699187 46.90040650406504,67.98780487804878 47.052845528455286,68.03861788617886 47.20528455284553,68.03861788617886 47.357723577235774,68.08943089430895 47.459349593495936,68.14024390243902" fill="none" stroke="black" stroke-width="0.6"></polyline><polyline points="47.459349593495936,68.14024390243902 47.61178861788618,68.1910569105691 47.764227642276424,68.24186991869918 47.916666666666664,68.29268292682927 48.06910569105691,68.29268292682927 48.22154471544715,68.34349593495935 48.3739837398374,68.39430894308943 48.47560975609756,68.39430894308943 48.67886178861789,68.4451219512195 48.78048780487805,68.4451219512195 48.93292682926829,68.4959349593496 49.136178861788615,68.4959349593496 49.28861788617886,68.54674796747967 49.4410569105691,68.54674796747967 49.59349593495935,68.54674796747967 49.69512195121951,68.59756097560975 49.796747967479675,68.59756097560975 49.949186991869915,68.59756097560975 50.05081300813008,68.59756097560975 50.203252032520325,68.59756097560975 50.30487804878049,68.59756097560975 50.40650406504065,68.59756097560975 50.55894308943089,68.59756097560975 50.66056910569105,68.59756097560975 50.8130081300813,68.59756097560975 50.96544715447154,68.59756097560975 51.168699186991866,68.59756097560975 51.37195121951219,68.59756097560975 51.575203252032516,68.59756097560975 51.829268292682926,68.54674796747967 52.083333333333336,68.54674796747967 52.33739837398374,68.4959349593496 52.642276422764226,68.4451219512195 52.947154471544714,68.39430894308943 53.2520325203252,68.34349593495935 53.607723577235774,68.24186991869918 53.91260162601626,68.1910569105691 54.11585365853659,68.1910569105691 54.31910569105691,68.14024390243902 54.6239837398374,68.08943089430895 54.92886178861789,68.03861788617886 55.233739837398375,67.98780487804878 55.53861788617886,67.9369918699187 55.792682926829265,67.88617886178862 56.046747967479675,67.83536585365853 56.30081300813008,67.78455284552845 56.55487804878049,67.6829268292683 56.859756097560975,67.6321138211382 57.11382113821138,67.53048780487805 57.3170731707317,67.42886178861788 57.57113821138211,67.3780487804878" fill="none" stroke="black" stroke-width="0.6"></polyline><polyline points="57.57113821138211,67.3780487804878 57.77439024390244,67.27642276422765 57.97764227642276,67.22560975609755 58.18089430894309,67.1239837398374 58.33333333333333,67.07317073170732 58.536585365853654,66.97154471544715 58.739837398373986,66.869918699187 58.892276422764226,66.8191056910569 59.04471544715447,66.71747967479675 59.197154471544714,66.61585365853658 59.34959349593496,66.5650406504065 59.5020325203252,66.46341463414635 59.65447154471545,66.36178861788618 59.75609756097561,66.3109756097561 59.857723577235774,66.20934959349593 60.010162601626014,66.10772357723577 60.11178861788618,66.0569105691057 60.264227642276424,65.95528455284553 60.416666666666664,65.85365853658537 60.51829268292683,65.7520325203252 60.670731707317074,65.65040650406505 60.8739837398374,65.4979674796748 61.02642276422764,65.39634146341463 61.17886178861789,65.2439024390244 61.33130081300813,65.09146341463415 61.53455284552845,64.98983739837398 61.6869918699187,64.83739837398373 61.890243902439025,64.6849593495935 62.042682926829265,64.53252032520325 62.24593495934959,64.380081300813 62.449186991869915,64.22764227642276 62.65243902439024,64.07520325203252 62.80487804878049,63.922764227642276 62.90650406504065,63.87195121951219 63.00813008130081,63.77032520325203 63.21138211382114,63.61788617886179 63.36382113821138,63.46544715447154 63.5670731707317,63.262195121951216 63.71951219512195,63.109756097560975 63.922764227642276,62.95731707317073 64.1260162601626,62.7540650406504 64.27845528455285,62.60162601626016 64.43089430894308,62.449186991869915 64.6341463414634,62.296747967479675 64.78658536585365,62.14430894308943 64.9390243902439,61.99186991869919 65.09146341463415,61.83943089430894 65.2439024390244,61.6869918699187 65.39634146341463,61.53455284552845 65.54878048780488,61.38211382113821 65.65040650406505,61.229674796747965" fill="none" stroke="black" stroke-width="0.6"></polyline><polyline points="65.65040650406505,61.229674796747965 65.7520325203252,61.077235772357724 65.85365853658537,60.97560975609756 65.95528455284553,60.823170731707314 66.10772357723577,60.670731707317074 66.15853658536585,60.51829268292683 66.26016260162602,60.416666666666664 66.36178861788618,60.264227642276424 66.46341463414635,60.11178861788618 66.51422764227642,60.0609756097561 66.5650406504065,60.010162601626014 66.71747967479675,59.857723577235774 66.8191056910569,59.70528455284553 66.92073170731707,59.603658536585364 67.02235772357723,59.451219512195124 67.07317073170732,59.40040650406504 67.1239837398374,59.298780487804876 67.22560975609755,59.146341463414636 67.32723577235772,58.99390243902439 67.42886178861788,58.790650406504064 67.53048780487805,58.63821138211382 67.6321138211382,58.43495934959349 67.73373983739837,58.231707317073166 67.88617886178862,58.02845528455284 67.98780487804878,57.825203252032516 68.08943089430895,57.672764227642276 68.1910569105691,57.46951219512195 68.34349593495935,57.266260162601625 68.4451219512195,57.0630081300813 68.54674796747967,56.80894308943089 68.64837398373983,56.605691056910565 68.75,56.35162601626016 68.85162601626016,56.14837398373984 68.95325203252033,55.89430894308943 69.05487804878048,55.640243902439025 69.15650406504065,55.4369918699187 69.20731707317073,55.18292682926829 69.3089430894309,54.979674796747965 69.35975609756098,54.67479674796748 69.46138211382113,54.420731707317074 69.51219512195122,54.166666666666664 69.5630081300813,53.91260162601626 69.61382113821138,53.607723577235774 69.66463414634146,53.353658536585364 69.71544715447155,53.09959349593496 69.76626016260163,52.84552845528455 69.8170731707317,52.59146341463415 69.8170731707317,52.33739837398374 69.86788617886178,52.083333333333336 69.91869918699187,51.829268292682926 69.91869918699187,51.575203252032516" fill="none" stroke="black" stroke-width="0.6"></polyline><polyline points="69.91869918699187,51.575203252032516 69.91869918699187,51.32113821138211 69.96951219512195,51.0670731707317 69.96951219512195,50.8130081300813 69.96951219512195,50.55894308943089 69.96951219512195,50.355691056910565 69.96951219512195,50.10162601626016 69.96951219512195,49.84756097560975 69.96951219512195,49.64430894308943 69.96951219512195,49.390243902439025 70.02032520325203,49.1869918699187 70.02032520325203,48.983739837398375 70.02032520325203,48.78048780487805 70.02032520325203,48.52642276422764 70.02032520325203,48.323170731707314 70.02032520325203,48.11991869918699 70.02032520325203,47.916666666666664 70.02032520325203,47.71341463414634 70.02032520325203,47.510162601626014 70.02032520325203,47.30691056910569 70.02032520325203,47.15447154471545 70.02032520325203,46.951219512195124 70.02032520325203,46.798780487804876 70.02032520325203,46.59552845528455 69.96951219512195,46.392276422764226 69.96951219512195,46.239837398373986 69.91869918699187,46.03658536585366 69.91869918699187,45.78252032520325 69.86788617886178,45.579268292682926 69.8170731707317,45.3760162601626 69.8170731707317,45.12195121951219 69.76626016260163,44.918699186991866 69.71544715447155,44.71544715447154 69.71544715447155,44.46138211382114 69.66463414634146,44.25813008130081 69.61382113821138,44.05487804878049 69.5630081300813,43.80081300813008 69.5630081300813,43.59756097560975 69.51219512195122,43.39430894308943 69.46138211382113,43.140243902439025 69.41056910569105,42.98780487804878 69.35975609756098,42.78455284552845 69.3089430894309,42.58130081300813 69.2581300813008,42.3780487804878 69.20731707317073,42.22560975609756 69.15650406504065,42.02235772357724 69.05487804878048,41.81910569105691 69.0040650406504,41.666666666666664 68.95325203252033,41.41260162601626 68.90243902439025,41.260162601626014 68.85162601626016,41.05691056910569" fill="none" stroke="black" stroke-width="0.6"></polyline><polyline points="68.85162601626016,41.05691056910569 68.80081300813008,40.853658536585364 68.75,40.65040650406504 68.69918699186992,40.4979674796748 68.64837398373983,40.29471544715447 68.59756097560975,40.142276422764226 68.4959349593496,39.989837398373986 68.4451219512195,39.83739837398374 68.39430894308943,39.63414634146341 68.34349593495935,39.48170731707317 68.24186991869918,39.27845528455285 68.1910569105691,39.1260162601626 68.08943089430895,38.97357723577235 68.03861788617886,38.77032520325203 67.9369918699187,38.61788617886179 67.83536585365853,38.41463414634146 67.78455284552845,38.262195121951216 67.6829268292683,38.05894308943089 67.58130081300813,37.855691056910565 67.47967479674797,37.65243902439024 67.3780487804878,37.449186991869915 67.27642276422765,37.296747967479675 67.17479674796748,37.042682926829265 67.07317073170732,36.83943089430894 66.97154471544715,36.636178861788615 66.8191056910569,36.43292682926829 66.71747967479675,36.229674796747965 66.5650406504065,36.077235772357724 66.46341463414635,35.8739837398374 66.3109756097561,35.72154471544715 66.20934959349593,35.56910569105691 66.0569105691057,35.416666666666664 65.90447154471545,35.21341463414634 65.80284552845528,35.0609756097561 65.65040650406505,34.857723577235774 65.54878048780488,34.70528455284553 65.39634146341463,34.552845528455286 65.2439024390244,34.40040650406504 65.09146341463415,34.2479674796748 64.98983739837398,34.09552845528455 64.83739837398373,33.94308943089431 64.6849593495935,33.84146341463415 64.53252032520325,33.6890243902439 64.43089430894308,33.53658536585366 64.27845528455285,33.4349593495935 64.1260162601626,33.28252032520325 63.97357723577235,33.13008130081301 63.82113821138211,32.97764227642276 63.71951219512195,32.8760162601626 63.5670731707317,32.72357723577236 63.41463414634146,32.57113821138211" fill="none" stroke="black" stroke-width="0.6"></polyline><polyline points="63.41463414634146,32.57113821138211 63.21138211382114,32.418699186991866 63.05894308943089,32.266260162601625 62.90650406504065,32.11382113821138 62.7540650406504,31.961382113821138 62.60162601626016,31.808943089430894 62.39837398373984,31.70731707317073 62.24593495934959,31.554878048780488 62.09349593495935,31.402439024390244 61.9410569105691,31.30081300813008 61.73780487804878,31.148373983739837 61.58536585365854,30.995934959349594 61.38211382113821,30.89430894308943 61.17886178861789,30.741869918699187 60.97560975609756,30.640243902439025 60.77235772357724,30.48780487804878 60.51829268292683,30.38617886178862 60.3150406504065,30.284552845528456 60.0609756097561,30.132113821138212 59.80691056910569,30.03048780487805 59.603658536585364,29.878048780487806 59.451219512195124,29.827235772357724 59.34959349593496,29.776422764227643 59.09552845528455,29.67479674796748 58.84146341463415,29.573170731707318 58.63821138211382,29.471544715447155 58.38414634146341,29.369918699186993 58.130081300813,29.268292682926827 57.8760162601626,29.166666666666664 57.62195121951219,29.0650406504065 57.36788617886179,28.96341463414634 57.11382113821138,28.912601626016258 56.80894308943089,28.810975609756095 56.55487804878049,28.709349593495933 56.25,28.65853658536585 55.99593495934959,28.55691056910569 55.74186991869919,28.506097560975608 55.48780487804878,28.404471544715445 55.233739837398375,28.353658536585364 54.979674796747965,28.302845528455283 54.72560975609756,28.20121951219512 54.47154471544715,28.15040650406504 54.21747967479675,28.099593495934958 53.91260162601626,28.048780487804876 53.65853658536585,27.947154471544714 53.40447154471545,27.896341463414632 53.15040650406504,27.84552845528455 52.84552845528455,27.79471544715447 52.59146341463415,27.79471544715447 52.33739837398374,27.74390243902439 52.03252032520325,27.693089430894307" fill="none" stroke="black" stroke-width="0.6"></polyline><polyline points="52.03252032520325,27.693089430894307 51.72764227642276,27.693089430894307 51.37195121951219,27.642276422764226 51.0670731707317,27.642276422764226 50.762195121951216,27.642276422764226 50.50813008130081,27.642276422764226 50.203252032520325,27.591463414634145 49.949186991869915,27.591463414634145 49.69512195121951,27.591463414634145 49.4410569105691,27.591463414634145 49.23780487804878,27.591463414634145 48.983739837398375,27.591463414634145 48.78048780487805,27.591463414634145 48.52642276422764,27.591463414634145 48.27235772357724,27.591463414634145 48.06910569105691,27.591463414634145 47.8150406504065,27.591463414634145 47.71341463414634,27.591463414634145 47.5609756097561,27.591463414634145 47.357723577235774,27.591463414634145 47.15447154471545,27.591463414634145 46.90040650406504,27.642276422764226 46.697154471544714,27.693089430894307 46.49390243902439,27.693089430894307 46.290650406504064,27.74390243902439 46.08739837398374,27.79471544715447 45.88414634146341,27.79471544715447 45.63008130081301,27.84552845528455 45.47764227642276,27.896341463414632 45.22357723577235,27.947154471544714 45.02032520325203,27.947154471544714 44.766260162601625,27.997967479674795 44.5630081300813,28.048780487804876 44.30894308943089,28.099593495934958 44.105691056910565,28.15040650406504 43.90243902439024,28.20121951219512 43.699186991869915,28.2520325203252 43.546747967479675,28.302845528455283 43.34349593495935,28.353658536585364 43.08943089430894,28.404471544715445 42.886178861788615,28.404471544715445 42.68292682926829,28.455284552845526 42.42886178861789,28.55691056910569 42.22560975609756,28.60772357723577 42.02235772357724,28.65853658536585 41.76829268292683,28.760162601626014 41.5650406504065,28.810975609756095 41.36178861788618,28.861788617886177 41.107723577235774,28.96341463414634 40.90447154471545,29.01422764227642 40.701219512195124,29.115853658536583" fill="none" stroke="black" stroke-width="0.6"></polyline><polyline points="40.701219512195124,29.115853658536583 40.447154471544714,29.166666666666664 40.24390243902439,29.268292682926827 39.989837398373986,29.369918699186993 39.53252032520325,29.573170731707318 39.27845528455285,29.67479674796748 39.02439024390244,29.776422764227643 38.77032520325203,29.928861788617887 38.516260162601625,30.03048780487805 38.21138211382114,30.233739837398375 37.90650406504065,30.38617886178862 37.55081300813008,30.589430894308943 37.24593495934959,30.79268292682927 36.9410569105691,30.945121951219512 36.6869918699187,31.046747967479675 36.38211382113821,31.19918699186992 36.1280487804878,31.351626016260163 35.823170731707314,31.554878048780488 35.46747967479675,31.758130081300813 35.16260162601626,31.961382113821138 34.857723577235774,32.11382113821138 34.552845528455286,32.36788617886179 34.298780487804876,32.52032520325203 33.99390243902439,32.72357723577236 33.739837398373986,32.926829268292686 33.485772357723576,33.13008130081301 33.28252032520325,33.28252032520325 33.18089430894309,33.38414634146341 33.079268292682926,33.485772357723576 32.926829268292686,33.58739837398374 32.77439024390244,33.790650406504064 32.57113821138211,33.94308943089431 32.418699186991866,34.146341463414636 32.266260162601625,34.34959349593496 32.11382113821138,34.5020325203252 32.012195121951216,34.70528455284553 31.808943089430894,35.010162601626014 31.65650406504065,35.3150406504065 31.554878048780488,35.51829268292683 31.402439024390244,35.77235772357724 31.30081300813008,36.02642276422764 31.148373983739837,36.28048780487805 31.046747967479675,36.53455284552845 30.945121951219512,36.83943089430894 30.84349593495935,37.09349593495935 30.741869918699187,37.296747967479675 30.691056910569106,37.55081300813008 30.589430894308943,37.80487804878049 30.48780487804878,38.05894308943089 30.4369918699187,38.3130081300813 30.335365853658537,38.5670731707317" fill="none" stroke="black" stroke-width="0.6"></polyline><polyline points="30.335365853658537,38.5670731707317 30.233739837398375,38.82113821138211 30.182926829268293,39.02439024390244 30.08130081300813,39.27845528455285 29.979674796747968,39.53252032520325 29.878048780487806,39.78658536585366 29.776422764227643,40.040650406504064 29.725609756097562,40.29471544715447 29.6239837398374,40.548780487804876 29.522357723577237,40.853658536585364 29.369918699186993,41.209349593495936 29.31910569105691,41.41260162601626 29.217479674796746,41.5650406504065 29.115853658536583,41.76829268292683 29.0650406504065,41.97154471544715 29.01422764227642,42.17479674796748 28.912601626016258,42.3780487804878 28.861788617886177,42.58130081300813 28.810975609756095,42.78455284552845 28.760162601626014,42.98780487804878 28.709349593495933,43.1910569105691 28.65853658536585,43.44512195121951 28.60772357723577,43.64837398373984 28.55691056910569,43.85162601626016 28.506097560975608,43.953252032520325 28.455284552845526,44.105691056910565 28.404471544715445,44.30894308943089 28.302845528455283,44.5630081300813 28.2520325203252,44.8170731707317 28.15040650406504,45.07113821138211 28.099593495934958,45.325203252032516 27.997967479674795,45.579268292682926 27.896341463414632,45.833333333333336 27.84552845528455,46.03658536585366 27.74390243902439,46.239837398373986 27.642276422764226,46.54471544715447 27.540650406504064,46.798780487804876 27.4390243902439,47.052845528455286 27.38821138211382,47.357723577235774 27.286585365853657,47.5609756097561 27.235772357723576,47.8150406504065 27.184959349593495,48.06910569105691 27.134146341463413,48.3739837398374 27.03252032520325,48.6280487804878 26.98170731707317,48.88211382113821 26.93089430894309,49.136178861788615 26.880081300813007,49.33943089430894 26.778455284552845,49.64430894308943 26.727642276422763,49.89837398373984 26.676829268292682,50.15243902439024 26.6260162601626,50.45731707317073" fill="none" stroke="black" stroke-width="0.6"></polyline><polyline points="26.6260162601626,50.45731707317073 26.57520325203252,50.71138211382114 26.524390243902438,51.016260162601625 26.473577235772357,51.27032520325203 26.422764227642276,51.422764227642276 26.422764227642276,51.575203252032516 26.371951219512194,51.981707317073166 26.321138211382113,52.13414634146341 26.321138211382113,52.235772357723576 26.270325203252032,52.489837398373986 26.270325203252032,52.74390243902439 26.21951219512195,53.50609756097561 26.21951219512195,53.760162601626014 26.21951219512195,54.31910569105691 26.21951219512195,54.67479674796748 26.270325203252032,55.03048780487805 26.270325203252032,55.48780487804878 26.270325203252032,55.84349593495935 26.321138211382113,56.14837398373984 26.321138211382113,56.55487804878049 26.321138211382113,57.012195121951216 26.371951219512194,57.3170731707317 26.371951219512194,57.672764227642276 26.422764227642276,57.92682926829268 26.473577235772357,58.130081300813 26.524390243902438,58.33333333333333 26.57520325203252,58.58739837398374 26.676829268292682,58.790650406504064 26.778455284552845,59.04471544715447 26.880081300813007,59.2479674796748 27.03252032520325,59.552845528455286 27.184959349593495,59.857723577235774 27.286585365853657,60.0609756097561 27.38821138211382,60.264227642276424 27.489837398373982,60.416666666666664 27.591463414634145,60.61991869918699 27.74390243902439,60.77235772357724 27.84552845528455,60.97560975609756 27.997967479674795,61.17886178861789 28.099593495934958,61.38211382113821 28.2520325203252,61.58536585365854 28.404471544715445,61.73780487804878 28.506097560975608,61.9410569105691 28.65853658536585,62.14430894308943 28.810975609756095,62.34756097560975 28.912601626016258,62.55081300813008 29.0650406504065,62.7540650406504 29.217479674796746,62.95731707317073 29.420731707317074,63.16056910569105 29.573170731707318,63.36382113821138 29.725609756097562,63.5670731707317" fill="none" stroke="black" stroke-width="0.6"></polyline><polyline points="29.725609756097562,63.5670731707317 29.878048780487806,63.77032520325203 30.08130081300813,63.97357723577235 30.233739837398375,64.1260162601626 30.4369918699187,64.32926829268293 30.589430894308943,64.53252032520325 30.741869918699187,64.73577235772358 30.945121951219512,64.9390243902439 31.097560975609756,65.14227642276423 31.25,65.29471544715447 31.453252032520325,65.4979674796748 31.60569105691057,65.70121951219512 31.808943089430894,65.85365853658537 32.012195121951216,66.0569105691057 32.16463414634146,66.26016260162602 32.36788617886179,66.46341463414635 32.52032520325203,66.61585365853658 32.672764227642276,66.8191056910569 32.8760162601626,67.02235772357723 33.02845528455285,67.22560975609755 33.23170731707317,67.42886178861788 33.38414634146341,67.58130081300813 33.58739837398374,67.78455284552845 33.790650406504064,67.98780487804878 33.94308943089431,68.14024390243902 34.197154471544714,68.34349593495935 34.34959349593496,68.4959349593496 34.603658536585364,68.69918699186992 34.80691056910569,68.85162601626016 35.010162601626014,69.0040650406504 35.21341463414634,69.15650406504065 35.416666666666664,69.35975609756098 35.61991869918699,69.51219512195122 35.823170731707314,69.66463414634146 36.02642276422764,69.86788617886178 36.229674796747965,70.02032520325203 36.43292682926829,70.17276422764228 36.636178861788615,70.3760162601626 36.73780487804878,70.42682926829268 37.042682926829265,70.630081300813 37.24593495934959,70.78252032520325 37.449186991869915,70.8841463414634 37.65243902439024,71.03658536585365 37.855691056910565,71.1890243902439 38.05894308943089,71.34146341463415 38.262195121951216,71.4430894308943 38.516260162601625,71.59552845528455 38.71951219512195,71.7479674796748 38.922764227642276,71.84959349593495 39.1260162601626,72.05284552845528 39.329268292682926,72.15447154471545" fill="none" stroke="black" stroke-width="0.6"></polyline><polyline points="39.329268292682926,72.15447154471545 39.53252032520325,72.3069105691057 39.735772357723576,72.45934959349593 39.989837398373986,72.5609756097561 40.19308943089431,72.71341463414635 40.396341463414636,72.8150406504065 40.65040650406504,72.96747967479675 40.853658536585364,73.0691056910569 41.107723577235774,73.17073170731707 41.36178861788618,73.27235772357723 41.5650406504065,73.3739837398374 41.81910569105691,73.47560975609755 41.97154471544715,73.57723577235772 42.22560975609756,73.67886178861788 42.42886178861789,73.78048780487805 42.63211382113821,73.8821138211382 42.83536585365854,73.98373983739837 43.08943089430894,74.03455284552845 43.292682926829265,74.13617886178862 43.49593495934959,74.23780487804878 43.699186991869915,74.28861788617886 43.90243902439024,74.39024390243902 44.105691056910565,74.49186991869918 44.359756097560975,74.54268292682927 44.5630081300813,74.64430894308943 44.766260162601625,74.6951219512195 45.02032520325203,74.79674796747967 45.22357723577235,74.84756097560975 45.42682926829268,74.89837398373983 45.68089430894309,74.94918699186992 45.88414634146341,75 46.13821138211382,75.10162601626016 46.392276422764226,75.15243902439025 46.697154471544714,75.2540650406504 47.052845528455286,75.30487804878048 47.357723577235774,75.35569105691057 47.66260162601626,75.40650406504065 47.96747967479675,75.40650406504065 48.170731707317074,75.45731707317073 48.42479674796748,75.45731707317073 48.729674796747965,75.5081300813008 48.93292682926829,75.5589430894309 49.1869918699187,75.5589430894309 49.4410569105691,75.5589430894309 49.69512195121951,75.60975609756098 49.89837398373984,75.60975609756098 50.15243902439024,75.60975609756098 50.40650406504065,75.60975609756098 50.609756097560975,75.60975609756098 50.86382113821138,75.60975609756098 51.0670731707317,75.60975609756098" fill="none" stroke="black" stroke-width="0.6"></polyline><polyline points="51.0670731707317,75.60975609756098 51.27032520325203,75.60975609756098 51.52439024390244,75.5589430894309 51.72764227642276,75.5589430894309 51.93089430894309,75.5081300813008 52.1849593495935,75.45731707317073 52.38821138211382,75.40650406504065 52.59146341463415,75.35569105691057 52.84552845528455,75.30487804878048 53.048780487804876,75.2540650406504 53.302845528455286,75.15243902439025 53.55691056910569,75.10162601626016 53.8109756097561,75 54.0650406504065,74.89837398373983 54.36991869918699,74.79674796747967 54.6239837398374,74.6951219512195 54.8780487804878,74.64430894308943 55.13211382113821,74.54268292682927 55.386178861788615,74.4410569105691 55.640243902439025,74.33943089430895 55.94512195121951,74.23780487804878 56.199186991869915,74.1869918699187 56.453252032520325,74.08536585365853 56.70731707317073,73.98373983739837 56.96138211382114,73.9329268292683 57.21544715447154,73.83130081300813 57.52032520325203,73.67886178861788 57.825203252032516,73.57723577235772 58.130081300813,73.47560975609755 58.43495934959349,73.3739837398374 58.739837398373986,73.22154471544715 59.04471544715447,73.119918699187 59.34959349593496,72.96747967479675 59.70528455284553,72.8150406504065 60.010162601626014,72.66260162601625 60.36585365853659,72.51016260162602 60.670731707317074,72.35772357723577 60.97560975609756,72.20528455284553 61.33130081300813,72.0020325203252 61.636178861788615,71.84959349593495 61.9410569105691,71.64634146341463 62.296747967479675,71.49390243902438 62.60162601626016,71.34146341463415 62.90650406504065,71.1890243902439 63.21138211382114,70.98577235772358 63.516260162601625,70.8841463414634 63.77032520325203,70.73170731707317 64.02439024390243,70.57926829268293 64.27845528455285,70.42682926829268 64.53252032520325,70.32520325203252 64.78658536585365,70.17276422764228" fill="none" stroke="black" stroke-width="0.6"></polyline><polyline points="64.78658536585365,70.17276422764228 64.98983739837398,70.0711382113821 65.1930894308943,69.91869918699187 65.44715447154472,69.76626016260163 65.59959349593495,69.66463414634146 65.80284552845528,69.5630081300813 65.95528455284553,69.41056910569105 66.15853658536585,69.3089430894309 66.36178861788618,69.15650406504065 66.51422764227642,69.0040650406504 66.66666666666667,68.90243902439025 66.869918699187,68.69918699186992 67.07317073170732,68.59756097560975 67.22560975609755,68.4451219512195 67.3780487804878,68.29268292682927 67.53048780487805,68.14024390243902 67.6829268292683,68.03861788617886 67.88617886178862,67.88617886178862 68.03861788617886,67.73373983739837 68.1910569105691,67.58130081300813 68.34349593495935,67.42886178861788 68.4959349593496,67.32723577235772 68.64837398373983,67.17479674796748 68.80081300813008,66.97154471544715 68.95325203252033,66.8191056910569 69.10569105691057,66.66666666666667 69.2581300813008,66.51422764227642 69.35975609756098,66.36178861788618 69.51219512195122,66.26016260162602 69.66463414634146,66.10772357723577 69.76626016260163,65.95528455284553 69.91869918699187,65.80284552845528 70.02032520325203,65.65040650406505 70.1219512195122,65.54878048780488 70.17276422764228,65.4979674796748 70.27439024390243,65.34552845528455 70.42682926829268,65.1930894308943 70.57926829268293,64.98983739837398 70.73170731707317,64.83739837398373 70.8841463414634,64.6341463414634 71.03658536585365,64.43089430894308 71.1890243902439,64.27845528455285 71.34146341463415,64.07520325203252 71.49390243902438,63.87195121951219 71.69715447154472,63.668699186991866 71.84959349593495,63.41463414634146 72.05284552845528,63.16056910569105 72.10365853658537,63.00813008130081 72.20528455284553,62.90650406504065 72.40853658536585,62.60162601626016 72.51016260162602,62.5" fill="none" stroke="black" stroke-width="0.6"></polyline><polyline points="72.51016260162602,62.5 72.61178861788618,62.34756097560975 72.8150406504065,62.09349593495935 72.91666666666667,61.9410569105691 73.22154471544715,61.53455284552845 73.42479674796748,61.229674796747965 73.52642276422765,61.077235772357724 73.6280487804878,60.92479674796748 73.83130081300813,60.61991869918699 74.03455284552845,60.3150406504065 74.1869918699187,60.010162601626014 74.33943089430895,59.75609756097561 74.49186991869918,59.451219512195124 74.64430894308943,59.197154471544714 74.79674796747967,58.94308943089431 74.89837398373983,58.739837398373986 75.05081300813008,58.485772357723576 75.15243902439025,58.28252032520325 75.2540650406504,58.079268292682926 75.35569105691057,57.825203252032516 75.45731707317073,57.62195121951219 75.5589430894309,57.36788617886179 75.66056910569105,57.16463414634146 75.76219512195122,56.91056910569105 75.8130081300813,56.70731707317073 75.91463414634146,56.453252032520325 75.96544715447155,56.199186991869915 76.0670731707317,55.94512195121951 76.11788617886178,55.640243902439025 76.16869918699187,55.4369918699187 76.21951219512195,55.233739837398375 76.27032520325203,55.03048780487805 76.3211382113821,54.827235772357724 76.3719512195122,54.573170731707314 76.42276422764228,54.420731707317074 76.47357723577235,54.21747967479675 76.47357723577235,54.014227642276424 76.52439024390243,53.8109756097561 76.57520325203252,53.607723577235774 76.57520325203252,53.353658536585364 76.6260162601626,53.201219512195124 76.6260162601626,53.048780487804876 76.6260162601626,52.84552845528455 76.6260162601626,52.74390243902439 76.6260162601626,52.59146341463415 76.6260162601626,52.489837398373986 76.6260162601626,52.38821138211382 76.6260162601626,52.235772357723576 76.6260162601626,52.13414634146341 76.6260162601626,52.03252032520325 76.6260162601626,51.93089430894309" fill="none" stroke="black" stroke-width="0.6"></polyline><polyline points="76.6260162601626,51.93089430894309 76.6260162601626,51.829268292682926 76.6260162601626,51.72764227642276 76.6260162601626,51.6260162601626 76.6260162601626,51.52439024390244 76.6260162601626,51.47357723577235 76.6260162601626,51.37195121951219 76.6260162601626,51.27032520325203 76.6260162601626,51.168699186991866 76.67682926829268,51.11788617886179 76.67682926829268,51.016260162601625 76.67682926829268,50.96544715447154 76.67682926829268,50.91463414634146 76.67682926829268,50.8130081300813 76.67682926829268,50.762195121951216 76.67682926829268,50.71138211382114 76.67682926829268,50.66056910569105 76.67682926829268,50.609756097560975 76.67682926829268,50.55894308943089 76.67682926829268,50.50813008130081 76.67682926829268,50.45731707317073 76.67682926829268,50.45731707317073 76.67682926829268,50.40650406504065 76.67682926829268,50.355691056910565 76.67682926829268,50.355691056910565 76.67682926829268,50.30487804878049 76.67682926829268,50.30487804878049 76.67682926829268,50.2540650406504 76.67682926829268,50.2540650406504 76.67682926829268,50.203252032520325 76.67682926829268,50.203252032520325 76.67682926829268,50.15243902439024 76.67682926829268,50.15243902439024 76.67682926829268,50.10162601626016 76.67682926829268,50.10162601626016 76.67682926829268,50.05081300813008 76.67682926829268,50.05081300813008 76.67682926829268,50 76.67682926829268,50 76.67682926829268,49.949186991869915 76.67682926829268,49.89837398373984 76.72764227642276,49.796747967479675 76.72764227642276,49.59349593495935" fill="none" stroke="black" stroke-width="0.6"></polyline></svg>