<svg height="100" width="100" preserveAspectRatio="xMidYMid meet"><polyline points="50.8130081300813,49.390243902439025 50.96544715447154,49.542682926829265" fill="none" stroke="black" stroke-width="0.6"></polyline><polyline points="50.8130081300813,49.390243902439025 50.96544715447154,49.542682926829265" fill="none" stroke="black" stroke-width="0.6"></polyline><polyline points="51.67682926829268,47.916666666666664 51.829268292682926,48.06910569105691" fill="none" stroke="black" stroke-width="0.6"></polyline><polyline points="50.05081300813008,49.23780487804878 50.50813008130081,48.27235772357724 50.50813008130081,48.11991869918699 50.50813008130081,47.96747967479675 50.50813008130081,47.86585365853659 50.50813008130081,47.71341463414634 50.55894308943089,47.66260162601626 50.55894308943089,47.5609756097561 50.55894308943089,47.510162601626014 50.55894308943089,47.459349593495936 50.55894308943089,47.40853658536585 50.55894308943089,47.357723577235774 50.55894308943089,47.30691056910569 50.55894308943089,47.25609756097561 50.55894308943089,47.15447154471545 50.55894308943089,47.103658536585364 50.55894308943089,47.0020325203252 50.55894308943089,46.951219512195124 50.55894308943089,46.90040650406504 50.55894308943089,46.84959349593496 50.55894308943089,46.7479674796748 50.55894308943089,46.697154471544714 50.55894308943089,46.646341463414636 50.55894308943089,46.59552845528455 50.55894308943089,46.54471544715447 50.55894308943089,46.49390243902439 50.55894308943089,46.392276422764226 50.55894308943089,46.34146341463415 50.55894308943089,46.290650406504064 50.55894308943089,46.239837398373986 50.55894308943089,46.1890243902439 50.55894308943089,46.13821138211382 50.55894308943089,46.08739837398374 50.55894308943089,46.03658536585366 50.55894308943089,45.985772357723576 50.55894308943089,45.9349593495935 50.55894308943089,45.88414634146341 50.50813008130081,45.88414634146341 50.50813008130081,45.833333333333336 50.50813008130081,45.78252032520325 50.45731707317073,45.78252032520325 50.45731707317073,45.73170731707317 50.40650406504065,45.73170731707317 50.355691056910565,45.68089430894309 50.30487804878049,45.68089430894309 50.30487804878049,45.63008130081301 50.2540650406504,45.579268292682926 50.203252032520325,45.52845528455285 50.15243902439024,45.52845528455285 50.10162601626016,45.52845528455285 50,45.47764227642276" fill="none" stroke="black" stroke-width="0.6"></polyline><polyline points="50,45.47764227642276 49.949186991869915,45.47764227642276 49.84756097560975,45.47764227642276 49.796747967479675,45.42682926829268 49.69512195121951,45.42682926829268 49.59349593495935,45.42682926829268 49.49186991869919,45.42682926829268 49.4410569105691,45.42682926829268 49.390243902439025,45.3760162601626 49.33943089430894,45.3760162601626 49.28861788617886,45.3760162601626 49.23780487804878,45.325203252032516 49.1869918699187,45.325203252032516 49.136178861788615,45.325203252032516 49.08536585365854,45.27439024390244 49.03455284552845,45.27439024390244 48.983739837398375,45.27439024390244 48.93292682926829,45.27439024390244 48.88211382113821,45.27439024390244 48.83130081300813,45.27439024390244 48.78048780487805,45.27439024390244 48.729674796747965,45.27439024390244 48.67886178861789,45.27439024390244 48.6280487804878,45.325203252032516 48.6280487804878,45.3760162601626 48.6280487804878,45.42682926829268 48.6280487804878,45.47764227642276 48.6280487804878,45.52845528455285 48.6280487804878,45.579268292682926 48.6280487804878,45.63008130081301 48.577235772357724,45.63008130081301 48.577235772357724,45.68089430894309 48.577235772357724,45.73170731707317 48.577235772357724,45.78252032520325 48.577235772357724,45.833333333333336 48.577235772357724,45.88414634146341 48.577235772357724,45.9349593495935 48.52642276422764,45.9349593495935 48.52642276422764,45.985772357723576 48.52642276422764,46.03658536585366 48.52642276422764,46.08739837398374 48.47560975609756,46.08739837398374 48.47560975609756,46.13821138211382 48.42479674796748,46.1890243902439 48.3739837398374,46.1890243902439 48.323170731707314,46.290650406504064 48.22154471544715,46.392276422764226 48.11991869918699,46.44308943089431 48.01829268292683,46.59552845528455 47.86585365853659,46.646341463414636 47.764227642276424,46.7479674796748" fill="none" stroke="black" stroke-width="0.6"></polyline><polyline points="47.764227642276424,46.7479674796748 47.66260162601626,46.84959349593496 47.5609756097561,46.90040650406504 47.40853658536585,47.0020325203252 47.40853658536585,47.103658536585364 47.30691056910569,47.15447154471545 47.20528455284553,47.15447154471545 47.20528455284553,47.20528455284553 47.15447154471545,47.25609756097561 47.15447154471545,47.30691056910569 47.15447154471545,47.357723577235774 47.103658536585364,47.40853658536585 47.052845528455286,47.40853658536585 47.0020325203252,47.510162601626014 46.951219512195124,47.61178861788618 46.90040650406504,47.71341463414634 46.90040650406504,47.8150406504065 46.798780487804876,47.96747967479675 46.697154471544714,48.11991869918699 46.646341463414636,48.22154471544715 46.59552845528455,48.3739837398374 46.54471544715447,48.47560975609756 46.49390243902439,48.6280487804878 46.44308943089431,48.67886178861789 46.392276422764226,48.78048780487805 46.392276422764226,48.88211382113821 46.34146341463415,48.88211382113821 46.34146341463415,48.93292682926829 46.34146341463415,48.983739837398375 46.290650406504064,49.03455284552845 46.290650406504064,49.08536585365854 46.290650406504064,49.136178861788615 46.239837398373986,49.136178861788615 46.239837398373986,49.1869918699187 46.239837398373986,49.23780487804878 46.239837398373986,49.28861788617886 46.1890243902439,49.33943089430894 46.13821138211382,49.390243902439025 46.13821138211382,49.4410569105691 46.13821138211382,49.49186991869919 46.13821138211382,49.542682926829265 46.13821138211382,49.59349593495935 46.13821138211382,49.64430894308943 46.13821138211382,49.69512195121951 46.08739837398374,49.796747967479675 46.08739837398374,49.84756097560975 46.08739837398374,49.89837398373984 46.08739837398374,49.949186991869915 46.08739837398374,50.05081300813008 46.08739837398374,50.10162601626016 46.08739837398374,50.203252032520325" fill="none" stroke="black" stroke-width="0.6"></polyline><polyline points="46.08739837398374,50.203252032520325 46.08739837398374,50.2540650406504 46.08739837398374,50.30487804878049 46.08739837398374,50.355691056910565 46.08739837398374,50.40650406504065 46.08739837398374,50.50813008130081 46.08739837398374,50.55894308943089 46.08739837398374,50.609756097560975 46.08739837398374,50.66056910569105 46.08739837398374,50.71138211382114 46.08739837398374,50.762195121951216 46.08739837398374,50.8130081300813 46.08739837398374,50.86382113821138 46.08739837398374,50.91463414634146 46.08739837398374,50.96544715447154 46.08739837398374,51.016260162601625 46.08739837398374,51.0670731707317 46.08739837398374,51.11788617886179 46.08739837398374,51.168699186991866 46.08739837398374,51.21951219512195 46.08739837398374,51.27032520325203 46.08739837398374,51.32113821138211 46.13821138211382,51.37195121951219 46.13821138211382,51.422764227642276 46.13821138211382,51.47357723577235 46.1890243902439,51.47357723577235 46.1890243902439,51.52439024390244 46.239837398373986,51.52439024390244 46.290650406504064,51.575203252032516 46.34146341463415,51.6260162601626 46.392276422764226,51.67682926829268 46.392276422764226,51.72764227642276 46.392276422764226,51.77845528455284 46.44308943089431,51.77845528455284 46.49390243902439,51.77845528455284 46.54471544715447,51.829268292682926 46.59552845528455,51.880081300813 46.646341463414636,51.93089430894309 46.646341463414636,51.981707317073166 46.697154471544714,52.03252032520325 46.798780487804876,52.083333333333336 46.84959349593496,52.1849593495935 46.90040650406504,52.235772357723576 47.0020325203252,52.28658536585366 47.052845528455286,52.33739837398374 47.15447154471545,52.38821138211382 47.15447154471545,52.489837398373986 47.25609756097561,52.540650406504064 47.30691056910569,52.540650406504064 47.40853658536585,52.59146341463415 47.40853658536585,52.642276422764226" fill="none" stroke="black" stroke-width="0.6"></polyline><polyline points="47.40853658536585,52.642276422764226 47.459349593495936,52.69308943089431 47.510162601626014,52.74390243902439 47.5609756097561,52.74390243902439 47.66260162601626,52.74390243902439 47.66260162601626,52.79471544715447 47.71341463414634,52.79471544715447 47.764227642276424,52.84552845528455 47.8150406504065,52.84552845528455 47.86585365853659,52.84552845528455 47.916666666666664,52.896341463414636 47.96747967479675,52.896341463414636 48.01829268292683,52.896341463414636 48.06910569105691,52.947154471544714 48.11991869918699,52.947154471544714 48.170731707317074,52.947154471544714 48.22154471544715,52.947154471544714 48.323170731707314,52.947154471544714 48.3739837398374,52.9979674796748 48.42479674796748,52.9979674796748 48.47560975609756,52.9979674796748 48.577235772357724,52.9979674796748 48.6280487804878,52.9979674796748 48.67886178861789,52.9979674796748 48.78048780487805,52.9979674796748 48.88211382113821,52.9979674796748 48.93292682926829,52.9979674796748 49.03455284552845,52.9979674796748 49.08536585365854,52.9979674796748 49.136178861788615,52.9979674796748 49.23780487804878,52.9979674796748 49.33943089430894,52.9979674796748 49.390243902439025,52.9979674796748 49.49186991869919,52.9979674796748 49.59349593495935,52.9979674796748 49.64430894308943,52.9979674796748 49.74593495934959,52.9979674796748 49.84756097560975,52.9979674796748 49.949186991869915,52.9979674796748 50,52.9979674796748 50.05081300813008,52.9979674796748 50.10162601626016,52.9979674796748 50.15243902439024,52.9979674796748 50.203252032520325,52.9979674796748 50.2540650406504,52.9979674796748 50.30487804878049,52.9979674796748 50.355691056910565,52.9979674796748 50.40650406504065,52.9979674796748 50.45731707317073,52.9979674796748 50.50813008130081,52.9979674796748 50.55894308943089,52.9979674796748" fill="none" stroke="black" stroke-width="0.6"></polyline><polyline points="50.55894308943089,52.9979674796748 50.609756097560975,52.9979674796748 50.66056910569105,52.9979674796748 50.71138211382114,52.9979674796748 50.762195121951216,52.9979674796748 50.8130081300813,52.9979674796748 50.86382113821138,52.9979674796748 50.91463414634146,52.9979674796748 50.96544715447154,52.9979674796748 51.016260162601625,52.9979674796748 51.0670731707317,52.9979674796748 51.11788617886179,52.9979674796748 51.168699186991866,52.9979674796748 51.21951219512195,52.9979674796748 51.27032520325203,52.947154471544714 51.32113821138211,52.947154471544714 51.37195121951219,52.896341463414636 51.422764227642276,52.84552845528455 51.52439024390244,52.79471544715447 51.575203252032516,52.79471544715447 51.67682926829268,52.74390243902439 51.829268292682926,52.69308943089431 51.880081300813,52.642276422764226 51.981707317073166,52.59146341463415 52.083333333333336,52.540650406504064 52.13414634146341,52.489837398373986 52.235772357723576,52.4390243902439 52.33739837398374,52.33739837398374 52.38821138211382,52.28658536585366 52.4390243902439,52.28658536585366 52.540650406504064,52.235772357723576 52.59146341463415,52.13414634146341 52.642276422764226,52.083333333333336 52.69308943089431,52.03252032520325 52.74390243902439,52.03252032520325 52.84552845528455,51.93089430894309 52.84552845528455,51.880081300813 52.896341463414636,51.829268292682926 52.947154471544714,51.77845528455284 52.9979674796748,51.72764227642276 53.048780487804876,51.72764227642276 53.048780487804876,51.67682926829268 53.09959349593496,51.6260162601626 53.09959349593496,51.575203252032516 53.09959349593496,51.52439024390244 53.15040650406504,51.52439024390244 53.201219512195124,51.47357723577235 53.201219512195124,51.422764227642276 53.2520325203252,51.37195121951219 53.2520325203252,51.32113821138211 53.302845528455286,51.27032520325203" fill="none" stroke="black" stroke-width="0.6"></polyline><polyline points="53.302845528455286,51.27032520325203 53.302845528455286,51.168699186991866 53.353658536585364,51.11788617886179 53.353658536585364,51.0670731707317 53.40447154471545,51.0670731707317 53.45528455284553,51.016260162601625 53.45528455284553,50.96544715447154 53.50609756097561,50.91463414634146 53.50609756097561,50.86382113821138 53.55691056910569,50.8130081300813 53.55691056910569,50.762195121951216 53.55691056910569,50.71138211382114 53.607723577235774,50.66056910569105 53.607723577235774,50.609756097560975 53.607723577235774,50.55894308943089 53.607723577235774,50.50813008130081 53.65853658536585,50.45731707317073 53.65853658536585,50.40650406504065 53.65853658536585,50.30487804878049 53.65853658536585,50.2540650406504 53.65853658536585,50.203252032520325 53.709349593495936,50.15243902439024 53.709349593495936,50.10162601626016 53.709349593495936,50.05081300813008 53.709349593495936,50 53.709349593495936,49.949186991869915 53.709349593495936,49.89837398373984 53.709349593495936,49.84756097560975 53.709349593495936,49.796747967479675 53.760162601626014,49.69512195121951 53.760162601626014,49.64430894308943 53.760162601626014,49.59349593495935 53.760162601626014,49.49186991869919 53.760162601626014,49.4410569105691 53.760162601626014,49.33943089430894 53.8109756097561,49.33943089430894 53.8109756097561,49.23780487804878 53.8109756097561,49.1869918699187 53.8109756097561,49.08536585365854 53.8109756097561,49.03455284552845 53.8109756097561,48.93292682926829 53.8109756097561,48.88211382113821 53.8109756097561,48.78048780487805 53.8109756097561,48.729674796747965 53.86178861788618,48.67886178861789 53.86178861788618,48.6280487804878 53.86178861788618,48.577235772357724 53.86178861788618,48.52642276422764 53.86178861788618,48.47560975609756 53.86178861788618,48.42479674796748 53.86178861788618,48.3739837398374" fill="none" stroke="black" stroke-width="0.6"></polyline><polyline points="53.86178861788618,48.3739837398374 53.86178861788618,48.323170731707314 53.96341463414634,48.170731707317074 53.96341463414634,48.11991869918699 53.96341463414634,48.01829268292683 53.96341463414634,47.96747967479675 53.96341463414634,47.916666666666664 53.96341463414634,47.86585365853659 53.96341463414634,47.8150406504065 53.96341463414634,47.764227642276424 53.96341463414634,47.71341463414634 53.96341463414634,47.66260162601626 53.96341463414634,47.61178861788618 53.96341463414634,47.5609756097561 53.96341463414634,47.510162601626014 53.96341463414634,47.459349593495936 53.96341463414634,47.40853658536585 53.96341463414634,47.357723577235774 53.96341463414634,47.30691056910569 53.96341463414634,47.25609756097561 53.96341463414634,47.20528455284553 53.96341463414634,47.15447154471545 53.96341463414634,47.103658536585364 53.96341463414634,47.052845528455286 53.96341463414634,47.0020325203252 53.96341463414634,46.951219512195124 53.96341463414634,46.90040650406504 53.96341463414634,46.84959349593496 53.96341463414634,46.798780487804876 53.96341463414634,46.7479674796748 53.96341463414634,46.697154471544714 53.96341463414634,46.646341463414636 53.91260162601626,46.646341463414636 53.91260162601626,46.59552845528455 53.91260162601626,46.54471544715447 53.91260162601626,46.49390243902439 53.91260162601626,46.44308943089431 53.91260162601626,46.392276422764226 53.86178861788618,46.392276422764226 53.86178861788618,46.34146341463415 53.86178861788618,46.290650406504064 53.86178861788618,46.239837398373986 53.8109756097561,46.239837398373986 53.8109756097561,46.1890243902439 53.8109756097561,46.13821138211382 53.8109756097561,46.08739837398374 53.8109756097561,46.03658536585366 53.8109756097561,45.985772357723576 53.8109756097561,45.9349593495935 53.760162601626014,45.9349593495935 53.760162601626014,45.88414634146341" fill="none" stroke="black" stroke-width="0.6"></polyline><polyline points="53.760162601626014,45.88414634146341 53.760162601626014,45.833333333333336 53.709349593495936,45.78252032520325 53.709349593495936,45.73170731707317 53.709349593495936,45.68089430894309 53.65853658536585,45.63008130081301 53.65853658536585,45.579268292682926 53.65853658536585,45.52845528455285 53.607723577235774,45.47764227642276 53.607723577235774,45.42682926829268 53.55691056910569,45.42682926829268 53.55691056910569,45.3760162601626 53.55691056910569,45.325203252032516 53.55691056910569,45.27439024390244 53.55691056910569,45.22357723577235 53.55691056910569,45.172764227642276 53.50609756097561,45.12195121951219 53.50609756097561,45.07113821138211 53.50609756097561,45.02032520325203 53.45528455284553,45.02032520325203 53.45528455284553,44.96951219512195 53.40447154471545,44.918699186991866 53.40447154471545,44.86788617886179 53.353658536585364,44.8170731707317 53.353658536585364,44.766260162601625 53.302845528455286,44.766260162601625 53.302845528455286,44.71544715447154 53.2520325203252,44.71544715447154 53.2520325203252,44.66463414634146 53.201219512195124,44.66463414634146 53.201219512195124,44.61382113821138 53.15040650406504,44.61382113821138 53.15040650406504,44.5630081300813 53.09959349593496,44.5630081300813 53.09959349593496,44.512195121951216 53.048780487804876,44.46138211382114 53.048780487804876,44.41056910569105 52.9979674796748,44.359756097560975 52.947154471544714,44.359756097560975 52.896341463414636,44.30894308943089 52.896341463414636,44.25813008130081 52.84552845528455,44.20731707317073 52.84552845528455,44.15650406504065 52.79471544715447,44.105691056910565 52.74390243902439,44.05487804878049 52.74390243902439,44.0040650406504 52.69308943089431,44.0040650406504 52.642276422764226,44.0040650406504 52.642276422764226,43.953252032520325 52.59146341463415,43.90243902439024 52.59146341463415,43.85162601626016" fill="none" stroke="black" stroke-width="0.6"></polyline><polyline points="52.59146341463415,43.85162601626016 52.59146341463415,43.80081300813008 52.540650406504064,43.75 52.489837398373986,43.75 52.4390243902439,43.699186991869915 52.4390243902439,43.64837398373984 52.38821138211382,43.64837398373984 52.38821138211382,43.59756097560975 52.33739837398374,43.59756097560975 52.33739837398374,43.546747967479675 52.33739837398374,43.49593495934959 52.28658536585366,43.49593495934959 52.235772357723576,43.49593495934959 52.235772357723576,43.44512195121951 52.1849593495935,43.39430894308943 52.13414634146341,43.39430894308943 52.083333333333336,43.34349593495935 52.083333333333336,43.292682926829265 52.03252032520325,43.24186991869919 51.981707317073166,43.24186991869919 51.93089430894309,43.1910569105691 51.880081300813,43.140243902439025 51.829268292682926,43.140243902439025 51.829268292682926,43.08943089430894 51.72764227642276,43.03861788617886 51.6260162601626,42.98780487804878 51.575203252032516,42.98780487804878 51.575203252032516,42.9369918699187 51.52439024390244,42.9369918699187 51.52439024390244,42.886178861788615 51.47357723577235,42.886178861788615 51.422764227642276,42.83536585365854 51.37195121951219,42.83536585365854 51.32113821138211,42.78455284552845 51.32113821138211,42.733739837398375 51.27032520325203,42.733739837398375 51.21951219512195,42.733739837398375 51.168699186991866,42.733739837398375 51.11788617886179,42.733739837398375 51.0670731707317,42.733739837398375 51.0670731707317,42.68292682926829 51.016260162601625,42.68292682926829 50.96544715447154,42.68292682926829 50.91463414634146,42.68292682926829 50.91463414634146,42.63211382113821 50.86382113821138,42.63211382113821 50.8130081300813,42.58130081300813 50.762195121951216,42.58130081300813 50.71138211382114,42.58130081300813 50.66056910569105,42.53048780487805 50.609756097560975,42.53048780487805" fill="none" stroke="black" stroke-width="0.6"></polyline><polyline points="50.609756097560975,42.53048780487805 50.55894308943089,42.53048780487805 50.50813008130081,42.53048780487805 50.45731707317073,42.53048780487805 50.40650406504065,42.53048780487805 50.40650406504065,42.479674796747965 50.355691056910565,42.479674796747965 50.30487804878049,42.479674796747965 50.2540650406504,42.479674796747965 50.2540650406504,42.42886178861789 50.203252032520325,42.42886178861789 50.15243902439024,42.42886178861789 50.10162601626016,42.42886178861789 50.10162601626016,42.3780487804878 50.05081300813008,42.3780487804878 50,42.3780487804878 49.949186991869915,42.3780487804878 49.89837398373984,42.3780487804878 49.84756097560975,42.3780487804878 49.74593495934959,42.327235772357724 49.69512195121951,42.327235772357724 49.64430894308943,42.327235772357724 49.59349593495935,42.327235772357724 49.542682926829265,42.327235772357724 49.49186991869919,42.327235772357724 49.4410569105691,42.27642276422764 49.390243902439025,42.27642276422764 49.33943089430894,42.27642276422764 49.28861788617886,42.27642276422764 49.23780487804878,42.27642276422764 49.1869918699187,42.27642276422764 49.136178861788615,42.27642276422764 49.08536585365854,42.27642276422764 49.03455284552845,42.27642276422764 48.983739837398375,42.27642276422764 48.93292682926829,42.27642276422764 48.88211382113821,42.27642276422764 48.83130081300813,42.27642276422764 48.78048780487805,42.27642276422764 48.729674796747965,42.27642276422764 48.67886178861789,42.27642276422764 48.6280487804878,42.27642276422764 48.577235772357724,42.27642276422764 48.47560975609756,42.27642276422764 48.42479674796748,42.27642276422764 48.3739837398374,42.27642276422764 48.27235772357724,42.27642276422764 48.22154471544715,42.27642276422764 48.170731707317074,42.27642276422764 48.11991869918699,42.27642276422764 48.06910569105691,42.27642276422764" fill="none" stroke="black" stroke-width="0.6"></polyline><polyline points="48.06910569105691,42.27642276422764 48.01829268292683,42.27642276422764 47.96747967479675,42.27642276422764 47.916666666666664,42.27642276422764 47.86585365853659,42.27642276422764 47.8150406504065,42.27642276422764 47.764227642276424,42.27642276422764 47.71341463414634,42.27642276422764 47.66260162601626,42.27642276422764 47.61178861788618,42.27642276422764 47.5609756097561,42.27642276422764 47.510162601626014,42.27642276422764 47.459349593495936,42.27642276422764 47.40853658536585,42.27642276422764 47.40853658536585,42.327235772357724 47.357723577235774,42.327235772357724 47.357723577235774,42.3780487804878 47.357723577235774,42.42886178861789 47.30691056910569,42.42886178861789 47.30691056910569,42.479674796747965 47.30691056910569,42.53048780487805 47.25609756097561,42.53048780487805 47.25609756097561,42.58130081300813 47.20528455284553,42.58130081300813 47.20528455284553,42.63211382113821 47.15447154471545,42.63211382113821 47.15447154471545,42.68292682926829 47.15447154471545,42.733739837398375 47.103658536585364,42.733739837398375 47.103658536585364,42.78455284552845 47.052845528455286,42.78455284552845 47.0020325203252,42.83536585365854 46.90040650406504,42.886178861788615 46.90040650406504,42.9369918699187 46.798780487804876,42.98780487804878 46.697154471544714,43.08943089430894 46.646341463414636,43.1910569105691 46.49390243902439,43.24186991869919 46.392276422764226,43.34349593495935 46.34146341463415,43.44512195121951 46.290650406504064,43.49593495934959 46.1890243902439,43.546747967479675 46.13821138211382,43.59756097560975 46.08739837398374,43.64837398373984 46.03658536585366,43.75 45.985772357723576,43.75 45.9349593495935,43.80081300813008 45.9349593495935,43.85162601626016 45.88414634146341,43.90243902439024 45.833333333333336,43.953252032520325 45.78252032520325,44.0040650406504" fill="none" stroke="black" stroke-width="0.6"></polyline><polyline points="45.78252032520325,44.0040650406504 45.73170731707317,44.05487804878049 45.68089430894309,44.105691056910565 45.68089430894309,44.15650406504065 45.63008130081301,44.20731707317073 45.52845528455285,44.20731707317073 45.47764227642276,44.25813008130081 45.42682926829268,44.30894308943089 45.3760162601626,44.359756097560975 45.325203252032516,44.41056910569105 45.22357723577235,44.46138211382114 45.172764227642276,44.512195121951216 45.12195121951219,44.5630081300813 45.07113821138211,44.66463414634146 44.96951219512195,44.71544715447154 44.918699186991866,44.71544715447154 44.918699186991866,44.766260162601625 44.8170731707317,44.8170731707317 44.766260162601625,44.86788617886179 44.71544715447154,44.918699186991866 44.66463414634146,44.96951219512195 44.61382113821138,45.07113821138211 44.5630081300813,45.12195121951219 44.512195121951216,45.172764227642276 44.46138211382114,45.22357723577235 44.41056910569105,45.22357723577235 44.41056910569105,45.27439024390244 44.41056910569105,45.325203252032516 44.359756097560975,45.3760162601626 44.30894308943089,45.42682926829268 44.25813008130081,45.42682926829268 44.25813008130081,45.47764227642276 44.20731707317073,45.579268292682926 44.15650406504065,45.63008130081301 44.15650406504065,45.68089430894309 44.15650406504065,45.73170731707317 44.105691056910565,45.78252032520325 44.05487804878049,45.88414634146341 44.0040650406504,45.9349593495935 43.953252032520325,45.985772357723576 43.953252032520325,46.08739837398374 43.90243902439024,46.1890243902439 43.85162601626016,46.239837398373986 43.80081300813008,46.34146341463415 43.80081300813008,46.392276422764226 43.75,46.44308943089431 43.699186991869915,46.54471544715447 43.699186991869915,46.59552845528455 43.64837398373984,46.646341463414636 43.59756097560975,46.697154471544714 43.59756097560975,46.798780487804876" fill="none" stroke="black" stroke-width="0.6"></polyline><polyline points="43.59756097560975,46.798780487804876 43.546747967479675,46.84959349593496 43.49593495934959,46.90040650406504 43.44512195121951,46.951219512195124 43.44512195121951,47.0020325203252 43.44512195121951,47.052845528455286 43.39430894308943,47.15447154471545 43.34349593495935,47.20528455284553 43.34349593495935,47.25609756097561 43.34349593495935,47.30691056910569 43.292682926829265,47.357723577235774 43.292682926829265,47.40853658536585 43.24186991869919,47.40853658536585 43.1910569105691,47.459349593495936 43.1910569105691,47.510162601626014 43.1910569105691,47.5609756097561 43.1910569105691,47.61178861788618 43.140243902439025,47.66260162601626 43.08943089430894,47.66260162601626 43.08943089430894,47.764227642276424 43.03861788617886,47.8150406504065 42.98780487804878,47.86585365853659 42.98780487804878,47.916666666666664 42.9369918699187,48.01829268292683 42.9369918699187,48.06910569105691 42.9369918699187,48.11991869918699 42.9369918699187,48.170731707317074 42.886178861788615,48.27235772357724 42.886178861788615,48.3739837398374 42.83536585365854,48.3739837398374 42.83536585365854,48.47560975609756 42.78455284552845,48.52642276422764 42.78455284552845,48.6280487804878 42.733739837398375,48.729674796747965 42.733739837398375,48.78048780487805" fill="none" stroke="black" stroke-width="0.6"></polyline><polyline points="43.08943089430894,52.642276422764226 43.24186991869919,52.79471544715447" fill="none" stroke="black" stroke-width="0.6"></polyline><polyline points="43.140243902439025,52.69308943089431 43.292682926829265,52.84552845528455" fill="none" stroke="black" stroke-width="0.6"></polyline><polyline points="43.140243902439025,52.69308943089431 43.292682926829265,52.84552845528455" fill="none" stroke="black" stroke-width="0.6"></polyline><polyline points="43.08943089430894,52.69308943089431 43.24186991869919,52.84552845528455" fill="none" stroke="black" stroke-width="0.6"></polyline><polyline points="43.08943089430894,52.69308943089431 43.24186991869919,52.84552845528455" fill="none" stroke="black" stroke-width="0.6"></polyline><polyline points="43.08943089430894,52.69308943089431 43.24186991869919,52.84552845528455" fill="none" stroke="black" stroke-width="0.6"></polyline><polyline points="43.03861788617886,52.59146341463415 43.1910569105691,52.74390243902439" fill="none" stroke="black" stroke-width="0.6"></polyline><polyline points="42.1239837398374,50.30487804878049 42.27642276422764,50.45731707317073" fill="none" stroke="black" stroke-width="0.6"></polyline><polyline points="42.17479674796748,50.30487804878049 42.327235772357724,50.45731707317073" fill="none" stroke="black" stroke-width="0.6"></polyline><polyline points="42.17479674796748,50.30487804878049 42.327235772357724,50.45731707317073" fill="none" stroke="black" stroke-width="0.6"></polyline><polyline points="42.17479674796748,50.30487804878049 42.68292682926829,52.03252032520325 42.68292682926829,52.083333333333336 42.68292682926829,52.13414634146341 42.68292682926829,52.1849593495935 42.68292682926829,52.28658536585366 42.733739837398375,52.38821138211382 42.733739837398375,52.4390243902439 42.733739837398375,52.489837398373986 42.78455284552845,52.540650406504064 42.78455284552845,52.59146341463415 42.78455284552845,52.642276422764226 42.83536585365854,52.69308943089431 42.83536585365854,52.74390243902439 42.83536585365854,52.79471544715447 42.886178861788615,52.84552845528455 42.886178861788615,52.896341463414636 42.886178861788615,52.947154471544714 42.886178861788615,52.9979674796748 42.9369918699187,52.9979674796748 42.9369918699187,53.048780487804876 42.9369918699187,53.09959349593496 42.9369918699187,53.15040650406504 42.9369918699187,53.201219512195124 42.9369918699187,53.2520325203252 42.98780487804878,53.2520325203252 42.98780487804878,53.302845528455286 43.03861788617886,53.353658536585364 43.08943089430894,53.40447154471545 43.08943089430894,53.45528455284553 43.140243902439025,53.45528455284553 43.140243902439025,53.50609756097561 43.1910569105691,53.50609756097561 43.1910569105691,53.55691056910569 43.1910569105691,53.607723577235774 43.24186991869919,53.607723577235774 43.24186991869919,53.65853658536585 43.292682926829265,53.65853658536585 43.292682926829265,53.709349593495936 43.34349593495935,53.709349593495936 43.34349593495935,53.760162601626014 43.39430894308943,53.760162601626014 43.44512195121951,53.760162601626014 43.44512195121951,53.8109756097561 43.44512195121951,53.86178861788618 43.49593495934959,53.91260162601626 43.49593495934959,53.96341463414634 43.546747967479675,53.96341463414634 43.59756097560975,54.014227642276424 43.64837398373984,54.0650406504065 43.64837398373984,54.11585365853659" fill="none" stroke="black" stroke-width="0.6"></polyline><polyline points="43.64837398373984,54.11585365853659 43.699186991869915,54.166666666666664 43.699186991869915,54.21747967479675 43.75,54.21747967479675 43.75,54.26829268292683 43.80081300813008,54.31910569105691 43.85162601626016,54.36991869918699 43.85162601626016,54.420731707317074 43.90243902439024,54.420731707317074 43.90243902439024,54.47154471544715 43.953252032520325,54.47154471544715 43.953252032520325,54.52235772357724 44.0040650406504,54.573170731707314 44.0040650406504,54.6239837398374 44.05487804878049,54.6239837398374 44.05487804878049,54.67479674796748 44.105691056910565,54.67479674796748 44.15650406504065,54.72560975609756 44.15650406504065,54.77642276422764 44.20731707317073,54.77642276422764 44.20731707317073,54.827235772357724 44.25813008130081,54.827235772357724 44.25813008130081,54.8780487804878 44.30894308943089,54.8780487804878 44.30894308943089,54.92886178861789 44.359756097560975,54.92886178861789 44.359756097560975,54.979674796747965 44.41056910569105,54.979674796747965 44.41056910569105,55.03048780487805 44.46138211382114,55.03048780487805 44.512195121951216,55.08130081300813 44.5630081300813,55.13211382113821 44.61382113821138,55.13211382113821 44.66463414634146,55.18292682926829 44.71544715447154,55.18292682926829 44.766260162601625,55.18292682926829 44.8170731707317,55.233739837398375 44.86788617886179,55.233739837398375 44.918699186991866,55.233739837398375 44.918699186991866,55.28455284552845 44.96951219512195,55.28455284552845 45.02032520325203,55.33536585365854 45.07113821138211,55.33536585365854 45.12195121951219,55.386178861788615 45.172764227642276,55.386178861788615 45.172764227642276,55.4369918699187 45.27439024390244,55.4369918699187 45.325203252032516,55.4369918699187 45.42682926829268,55.4369918699187 45.42682926829268,55.48780487804878 45.52845528455285,55.48780487804878" fill="none" stroke="black" stroke-width="0.6"></polyline><polyline points="45.52845528455285,55.48780487804878 45.579268292682926,55.48780487804878 45.63008130081301,55.53861788617886 45.68089430894309,55.53861788617886 45.73170731707317,55.58943089430894 45.78252032520325,55.58943089430894 45.833333333333336,55.58943089430894 45.88414634146341,55.640243902439025 45.9349593495935,55.640243902439025 45.985772357723576,55.640243902439025 46.03658536585366,55.6910569105691 46.08739837398374,55.6910569105691 46.13821138211382,55.6910569105691 46.1890243902439,55.6910569105691 46.239837398373986,55.6910569105691 46.290650406504064,55.6910569105691 46.34146341463415,55.6910569105691 46.392276422764226,55.74186991869919 46.44308943089431,55.74186991869919 46.49390243902439,55.74186991869919 46.54471544715447,55.74186991869919 46.59552845528455,55.74186991869919 46.59552845528455,55.792682926829265 46.646341463414636,55.792682926829265 46.697154471544714,55.792682926829265 46.7479674796748,55.792682926829265 46.798780487804876,55.792682926829265 46.84959349593496,55.792682926829265 46.90040650406504,55.792682926829265 46.90040650406504,55.84349593495935 46.951219512195124,55.84349593495935 47.0020325203252,55.84349593495935 47.052845528455286,55.84349593495935 47.103658536585364,55.84349593495935 47.15447154471545,55.84349593495935 47.20528455284553,55.84349593495935 47.25609756097561,55.84349593495935 47.30691056910569,55.89430894308943 47.357723577235774,55.89430894308943 47.40853658536585,55.89430894308943 47.459349593495936,55.89430894308943 47.510162601626014,55.89430894308943 47.5609756097561,55.89430894308943 47.66260162601626,55.89430894308943 47.764227642276424,55.89430894308943 47.8150406504065,55.94512195121951 47.86585365853659,55.94512195121951 47.916666666666664,55.94512195121951 47.96747967479675,55.94512195121951 48.01829268292683,55.94512195121951 48.06910569105691,55.94512195121951" fill="none" stroke="black" stroke-width="0.6"></polyline><polyline points="48.06910569105691,55.94512195121951 48.11991869918699,55.94512195121951 48.170731707317074,55.94512195121951 48.22154471544715,55.94512195121951 48.27235772357724,55.94512195121951 48.323170731707314,55.94512195121951 48.3739837398374,55.94512195121951 48.42479674796748,55.94512195121951 48.47560975609756,55.94512195121951 48.52642276422764,55.94512195121951 48.577235772357724,55.94512195121951 48.6280487804878,55.94512195121951 48.67886178861789,55.94512195121951 48.729674796747965,55.94512195121951 48.78048780487805,55.94512195121951 48.83130081300813,55.94512195121951 48.88211382113821,55.94512195121951 48.93292682926829,55.94512195121951 48.983739837398375,55.94512195121951 49.03455284552845,55.94512195121951 49.08536585365854,55.94512195121951 49.136178861788615,55.94512195121951 49.1869918699187,55.94512195121951 49.23780487804878,55.94512195121951 49.28861788617886,55.94512195121951 49.33943089430894,55.94512195121951 49.390243902439025,55.94512195121951 49.4410569105691,55.94512195121951 49.49186991869919,55.94512195121951 49.542682926829265,55.94512195121951 49.59349593495935,55.94512195121951 49.64430894308943,55.94512195121951 49.69512195121951,55.94512195121951 49.74593495934959,55.94512195121951 49.796747967479675,55.94512195121951 49.84756097560975,55.94512195121951 49.89837398373984,55.94512195121951 49.949186991869915,55.94512195121951 50,55.94512195121951 50.05081300813008,55.94512195121951 50.10162601626016,55.94512195121951 50.15243902439024,55.94512195121951 50.203252032520325,55.94512195121951 50.2540650406504,55.94512195121951 50.30487804878049,55.94512195121951 50.355691056910565,55.94512195121951 50.40650406504065,55.89430894308943 50.45731707317073,55.89430894308943 50.50813008130081,55.89430894308943 50.55894308943089,55.89430894308943 50.609756097560975,55.89430894308943" fill="none" stroke="black" stroke-width="0.6"></polyline><polyline points="50.609756097560975,55.89430894308943 50.609756097560975,55.84349593495935 50.66056910569105,55.84349593495935 50.71138211382114,55.84349593495935 50.762195121951216,55.84349593495935 50.8130081300813,55.792682926829265 50.86382113821138,55.792682926829265 50.91463414634146,55.74186991869919 50.96544715447154,55.74186991869919 51.016260162601625,55.74186991869919 51.0670731707317,55.74186991869919 51.11788617886179,55.6910569105691 51.168699186991866,55.6910569105691 51.21951219512195,55.6910569105691 51.27032520325203,55.6910569105691 51.32113821138211,55.6910569105691 51.37195121951219,55.640243902439025 51.422764227642276,55.640243902439025 51.47357723577235,55.640243902439025 51.52439024390244,55.58943089430894 51.575203252032516,55.58943089430894 51.6260162601626,55.53861788617886 51.67682926829268,55.53861788617886 51.72764227642276,55.53861788617886 51.77845528455284,55.53861788617886 51.829268292682926,55.48780487804878 51.880081300813,55.48780487804878 51.93089430894309,55.48780487804878 51.981707317073166,55.4369918699187 52.03252032520325,55.4369918699187 52.083333333333336,55.4369918699187 52.13414634146341,55.4369918699187 52.1849593495935,55.386178861788615 52.235772357723576,55.386178861788615 52.28658536585366,55.33536585365854 52.33739837398374,55.33536585365854 52.33739837398374,55.28455284552845 52.38821138211382,55.28455284552845 52.4390243902439,55.28455284552845 52.4390243902439,55.233739837398375 52.489837398373986,55.233739837398375 52.540650406504064,55.18292682926829 52.59146341463415,55.18292682926829 52.642276422764226,55.18292682926829 52.69308943089431,55.18292682926829 52.74390243902439,55.13211382113821 52.79471544715447,55.13211382113821 52.84552845528455,55.08130081300813 52.84552845528455,55.03048780487805 52.896341463414636,55.03048780487805 52.947154471544714,54.979674796747965" fill="none" stroke="black" stroke-width="0.6"></polyline><polyline points="52.947154471544714,54.979674796747965 52.9979674796748,54.979674796747965 53.048780487804876,54.979674796747965 53.048780487804876,54.92886178861789 53.09959349593496,54.827235772357724 53.15040650406504,54.827235772357724 53.201219512195124,54.77642276422764 53.2520325203252,54.72560975609756 53.302845528455286,54.67479674796748 53.302845528455286,54.6239837398374 53.353658536585364,54.573170731707314 53.40447154471545,54.573170731707314 53.45528455284553,54.573170731707314 53.50609756097561,54.52235772357724 53.50609756097561,54.47154471544715 53.55691056910569,54.47154471544715 53.55691056910569,54.420731707317074 53.607723577235774,54.420731707317074 53.607723577235774,54.36991869918699 53.65853658536585,54.31910569105691 53.709349593495936,54.31910569105691 53.709349593495936,54.26829268292683 53.760162601626014,54.26829268292683 53.760162601626014,54.21747967479675 53.8109756097561,54.21747967479675 53.8109756097561,54.166666666666664 53.86178861788618,54.166666666666664 53.86178861788618,54.11585365853659 53.91260162601626,54.11585365853659 53.91260162601626,54.0650406504065 53.96341463414634,54.0650406504065 53.96341463414634,54.014227642276424 54.014227642276424,54.014227642276424 54.014227642276424,53.96341463414634 54.0650406504065,53.96341463414634 54.11585365853659,53.91260162601626 54.166666666666664,53.91260162601626 54.166666666666664,53.86178861788618 54.21747967479675,53.86178861788618 54.26829268292683,53.8109756097561 54.31910569105691,53.760162601626014 54.36991869918699,53.760162601626014 54.420731707317074,53.709349593495936 54.47154471544715,53.65853658536585 54.52235772357724,53.65853658536585 54.52235772357724,53.607723577235774 54.573170731707314,53.607723577235774 54.573170731707314,53.55691056910569 54.6239837398374,53.50609756097561 54.67479674796748,53.50609756097561 54.72560975609756,53.50609756097561" fill="none" stroke="black" stroke-width="0.6"></polyline><polyline points="54.72560975609756,53.50609756097561 54.77642276422764,53.50609756097561 54.77642276422764,53.45528455284553 54.827235772357724,53.45528455284553 54.827235772357724,53.40447154471545 54.827235772357724,53.353658536585364 54.8780487804878,53.353658536585364 54.92886178861789,53.302845528455286 54.979674796747965,53.2520325203252 55.03048780487805,53.2520325203252 55.03048780487805,53.201219512195124 55.08130081300813,53.201219512195124 55.08130081300813,53.15040650406504 55.13211382113821,53.09959349593496 55.18292682926829,53.09959349593496 55.18292682926829,53.048780487804876 55.233739837398375,52.9979674796748 55.28455284552845,52.9979674796748 55.28455284552845,52.947154471544714 55.28455284552845,52.896341463414636 55.28455284552845,52.84552845528455 55.33536585365854,52.79471544715447 55.386178861788615,52.74390243902439 55.4369918699187,52.74390243902439 55.4369918699187,52.642276422764226 55.48780487804878,52.59146341463415 55.53861788617886,52.540650406504064 55.53861788617886,52.4390243902439 55.58943089430894,52.38821138211382 55.58943089430894,52.28658536585366 55.640243902439025,52.28658536585366 55.6910569105691,52.1849593495935 55.74186991869919,52.13414634146341 55.74186991869919,52.083333333333336 55.792682926829265,52.03252032520325 55.792682926829265,51.981707317073166 55.792682926829265,51.93089430894309 55.792682926829265,51.880081300813 55.84349593495935,51.829268292682926 55.84349593495935,51.77845528455284 55.89430894308943,51.77845528455284 55.89430894308943,51.72764227642276 55.89430894308943,51.67682926829268 55.94512195121951,51.67682926829268 55.94512195121951,51.6260162601626 55.94512195121951,51.575203252032516 55.99593495934959,51.575203252032516 55.99593495934959,51.52439024390244 56.046747967479675,51.52439024390244 56.046747967479675,51.47357723577235 56.046747967479675,51.422764227642276" fill="none" stroke="black" stroke-width="0.6"></polyline><polyline points="56.046747967479675,51.422764227642276 56.046747967479675,51.37195121951219 56.09756097560975,51.37195121951219 56.09756097560975,51.32113821138211 56.14837398373984,51.27032520325203 56.199186991869915,51.27032520325203 56.199186991869915,51.21951219512195 56.25,51.168699186991866 56.25,51.11788617886179 56.30081300813008,51.0670731707317 56.30081300813008,51.016260162601625 56.35162601626016,50.96544715447154 56.35162601626016,50.91463414634146 56.40243902439024,50.8130081300813 56.453252032520325,50.762195121951216 56.453252032520325,50.66056910569105 56.5040650406504,50.609756097560975 56.5040650406504,50.55894308943089 56.5040650406504,50.50813008130081 56.55487804878049,50.45731707317073 56.55487804878049,50.40650406504065 56.55487804878049,50.30487804878049 56.55487804878049,50.2540650406504 56.55487804878049,50.203252032520325 56.55487804878049,50.15243902439024 56.605691056910565,50.10162601626016 56.605691056910565,50.05081300813008 56.605691056910565,50 56.605691056910565,49.949186991869915 56.605691056910565,49.89837398373984 56.605691056910565,49.84756097560975 56.65650406504065,49.84756097560975 56.65650406504065,49.796747967479675 56.65650406504065,49.74593495934959 56.65650406504065,49.69512195121951 56.65650406504065,49.64430894308943 56.65650406504065,49.59349593495935 56.70731707317073,49.542682926829265 56.70731707317073,49.49186991869919 56.70731707317073,49.4410569105691 56.70731707317073,49.390243902439025 56.70731707317073,49.33943089430894 56.70731707317073,49.28861788617886 56.75813008130081,49.23780487804878 56.75813008130081,49.1869918699187 56.75813008130081,49.136178861788615 56.75813008130081,49.08536585365854 56.75813008130081,49.03455284552845 56.75813008130081,48.983739837398375 56.75813008130081,48.93292682926829 56.80894308943089,48.88211382113821" fill="none" stroke="black" stroke-width="0.6"></polyline><polyline points="56.80894308943089,48.88211382113821 56.80894308943089,48.83130081300813 56.80894308943089,48.78048780487805 56.859756097560975,48.78048780487805 56.859756097560975,48.729674796747965 56.859756097560975,48.67886178861789 56.859756097560975,48.6280487804878 56.91056910569105,48.577235772357724 56.91056910569105,48.52642276422764 56.91056910569105,48.47560975609756 56.91056910569105,48.42479674796748 56.91056910569105,48.3739837398374 56.91056910569105,48.323170731707314 56.96138211382114,48.27235772357724 56.96138211382114,48.22154471544715 56.96138211382114,48.11991869918699 56.96138211382114,48.06910569105691 57.012195121951216,48.01829268292683 57.012195121951216,47.96747967479675 57.012195121951216,47.86585365853659 57.012195121951216,47.8150406504065 57.012195121951216,47.764227642276424 57.012195121951216,47.71341463414634 57.012195121951216,47.66260162601626 57.012195121951216,47.61178861788618 57.012195121951216,47.5609756097561 57.012195121951216,47.459349593495936 57.012195121951216,47.40853658536585 57.012195121951216,47.357723577235774 57.012195121951216,47.30691056910569 57.012195121951216,47.25609756097561 57.012195121951216,47.20528455284553 57.012195121951216,47.15447154471545 57.012195121951216,47.103658536585364 57.012195121951216,47.052845528455286 57.012195121951216,47.0020325203252 57.012195121951216,46.951219512195124 57.012195121951216,46.90040650406504 57.012195121951216,46.84959349593496 57.012195121951216,46.798780487804876 57.012195121951216,46.7479674796748 57.012195121951216,46.697154471544714 57.012195121951216,46.646341463414636 57.012195121951216,46.59552845528455 57.012195121951216,46.54471544715447 57.012195121951216,46.49390243902439 57.012195121951216,46.44308943089431 57.012195121951216,46.392276422764226 57.012195121951216,46.34146341463415 57.012195121951216,46.290650406504064 57.012195121951216,46.239837398373986" fill="none" stroke="black" stroke-width="0.6"></polyline><polyline points="57.012195121951216,46.239837398373986 57.012195121951216,46.1890243902439 57.012195121951216,46.13821138211382 57.012195121951216,46.08739837398374 57.012195121951216,46.03658536585366 57.012195121951216,45.985772357723576 57.012195121951216,45.9349593495935 57.012195121951216,45.88414634146341 57.012195121951216,45.833333333333336 57.012195121951216,45.78252032520325 57.012195121951216,45.73170731707317 57.012195121951216,45.68089430894309 57.012195121951216,45.63008130081301 57.012195121951216,45.579268292682926 57.012195121951216,45.52845528455285 57.012195121951216,45.47764227642276 57.012195121951216,45.42682926829268 57.012195121951216,45.3760162601626 57.012195121951216,45.325203252032516 57.012195121951216,45.27439024390244 57.012195121951216,45.22357723577235 57.012195121951216,45.172764227642276 57.012195121951216,45.12195121951219 57.012195121951216,45.07113821138211 57.012195121951216,45.02032520325203 57.012195121951216,44.96951219512195 57.012195121951216,44.918699186991866 57.012195121951216,44.86788617886179 57.012195121951216,44.8170731707317 57.012195121951216,44.766260162601625 57.012195121951216,44.71544715447154 57.012195121951216,44.66463414634146 57.012195121951216,44.61382113821138 56.96138211382114,44.61382113821138 56.96138211382114,44.5630081300813 56.96138211382114,44.512195121951216 56.91056910569105,44.512195121951216 56.91056910569105,44.46138211382114 56.859756097560975,44.46138211382114 56.80894308943089,44.41056910569105 56.80894308943089,44.359756097560975 56.80894308943089,44.30894308943089 56.75813008130081,44.30894308943089 56.75813008130081,44.25813008130081 56.75813008130081,44.20731707317073 56.75813008130081,44.105691056910565 56.75813008130081,44.05487804878049 56.70731707317073,44.0040650406504 56.70731707317073,43.953252032520325 56.70731707317073,43.90243902439024 56.65650406504065,43.80081300813008" fill="none" stroke="black" stroke-width="0.6"></polyline><polyline points="56.65650406504065,43.80081300813008 56.65650406504065,43.75 56.605691056910565,43.699186991869915 56.605691056910565,43.64837398373984 56.605691056910565,43.546747967479675 56.55487804878049,43.49593495934959 56.55487804878049,43.44512195121951 56.55487804878049,43.39430894308943 56.55487804878049,43.34349593495935 56.5040650406504,43.24186991869919 56.5040650406504,43.1910569105691 56.453252032520325,43.140243902439025 56.453252032520325,43.08943089430894 56.453252032520325,43.03861788617886 56.40243902439024,42.98780487804878 56.35162601626016,42.9369918699187 56.35162601626016,42.886178861788615 56.35162601626016,42.83536585365854 56.30081300813008,42.83536585365854 56.30081300813008,42.78455284552845 56.30081300813008,42.733739837398375 56.25,42.733739837398375 56.25,42.68292682926829 56.199186991869915,42.68292682926829 56.199186991869915,42.63211382113821 56.14837398373984,42.58130081300813 56.14837398373984,42.53048780487805 56.09756097560975,42.53048780487805 56.09756097560975,42.479674796747965 56.046747967479675,42.42886178861789 56.046747967479675,42.3780487804878 56.046747967479675,42.327235772357724 55.99593495934959,42.27642276422764 55.94512195121951,42.22560975609756 55.89430894308943,42.17479674796748 55.89430894308943,42.073170731707314 55.84349593495935,42.02235772357724 55.792682926829265,42.02235772357724 55.792682926829265,41.920731707317074 55.792682926829265,41.81910569105691 55.74186991869919,41.76829268292683 55.6910569105691,41.71747967479675 55.6910569105691,41.61585365853659 55.640243902439025,41.5650406504065 55.58943089430894,41.514227642276424 55.53861788617886,41.41260162601626 55.53861788617886,41.3109756097561 55.48780487804878,41.209349593495936 55.4369918699187,41.107723577235774 55.386178861788615,41.05691056910569 55.386178861788615,41.00609756097561" fill="none" stroke="black" stroke-width="0.6"></polyline><polyline points="55.386178861788615,41.00609756097561 55.33536585365854,40.95528455284553 55.28455284552845,40.853658536585364 55.28455284552845,40.802845528455286 55.233739837398375,40.701219512195124 55.18292682926829,40.65040650406504 55.13211382113821,40.59959349593496 55.13211382113821,40.548780487804876 55.08130081300813,40.548780487804876 55.03048780487805,40.4979674796748 55.03048780487805,40.447154471544714 54.979674796747965,40.447154471544714 54.979674796747965,40.396341463414636 54.92886178861789,40.34552845528455 54.8780487804878,40.34552845528455 54.8780487804878,40.29471544715447 54.827235772357724,40.29471544715447 54.77642276422764,40.29471544715447 54.72560975609756,40.24390243902439 54.67479674796748,40.24390243902439 54.67479674796748,40.19308943089431 54.6239837398374,40.19308943089431" fill="none" stroke="black" stroke-width="0.6"></polyline><polyline points="44.15650406504065,39.27845528455285 44.30894308943089,39.43089430894309" fill="none" stroke="black" stroke-width="0.6"></polyline><polyline points="52.083333333333336,38.109756097560975 51.575203252032516,38.16056910569105 51.47357723577235,38.16056910569105 51.32113821138211,38.16056910569105 51.168699186991866,38.16056910569105 51.0670731707317,38.16056910569105 50.91463414634146,38.16056910569105 50.8130081300813,38.16056910569105 50.66056910569105,38.16056910569105 50.55894308943089,38.16056910569105 50.40650406504065,38.16056910569105 50.30487804878049,38.16056910569105 50.15243902439024,38.16056910569105 50.10162601626016,38.16056910569105 49.949186991869915,38.16056910569105 49.84756097560975,38.16056910569105 49.74593495934959,38.16056910569105 49.59349593495935,38.16056910569105 49.542682926829265,38.16056910569105 49.390243902439025,38.16056910569105 49.33943089430894,38.16056910569105 49.23780487804878,38.16056910569105 49.136178861788615,38.16056910569105 49.03455284552845,38.16056910569105 48.93292682926829,38.16056910569105 48.88211382113821,38.16056910569105 48.78048780487805,38.16056910569105 48.67886178861789,38.16056910569105 48.6280487804878,38.16056910569105 48.52642276422764,38.21138211382114 48.3739837398374,38.21138211382114 48.323170731707314,38.262195121951216 48.170731707317074,38.262195121951216 48.06910569105691,38.3130081300813 47.916666666666664,38.36382113821138 47.8150406504065,38.36382113821138 47.66260162601626,38.36382113821138 47.459349593495936,38.36382113821138 47.357723577235774,38.41463414634146 47.15447154471545,38.46544715447154 47.0020325203252,38.516260162601625 46.90040650406504,38.5670731707317 46.697154471544714,38.61788617886179 46.54471544715447,38.61788617886179 46.392276422764226,38.668699186991866 46.239837398373986,38.71951219512195 46.13821138211382,38.77032520325203 45.985772357723576,38.82113821138211 45.88414634146341,38.87195121951219 45.78252032520325,38.87195121951219 45.68089430894309,38.922764227642276" fill="none" stroke="black" stroke-width="0.6"></polyline><polyline points="45.68089430894309,38.922764227642276 45.63008130081301,38.922764227642276 45.579268292682926,38.922764227642276 45.52845528455285,38.97357723577235 45.47764227642276,38.97357723577235 45.42682926829268,38.97357723577235 45.3760162601626,39.02439024390244 45.27439024390244,39.07520325203252 45.172764227642276,39.1260162601626 45.07113821138211,39.1260162601626 44.96951219512195,39.176829268292686 44.86788617886179,39.27845528455285 44.71544715447154,39.329268292682926 44.61382113821138,39.43089430894309 44.46138211382114,39.53252032520325 44.359756097560975,39.583333333333336 44.25813008130081,39.63414634146341 44.15650406504065,39.6849593495935 44.105691056910565,39.78658536585366 44.0040650406504,39.83739837398374 43.953252032520325,39.83739837398374 43.953252032520325,39.88821138211382 43.90243902439024,39.88821138211382 43.90243902439024,39.9390243902439 43.85162601626016,39.9390243902439 43.85162601626016,39.989837398373986 43.75,40.040650406504064 43.699186991869915,40.040650406504064 43.64837398373984,40.09146341463415 43.59756097560975,40.09146341463415 43.546747967479675,40.142276422764226 43.546747967479675,40.19308943089431 43.44512195121951,40.24390243902439 43.39430894308943,40.29471544715447 43.34349593495935,40.29471544715447 43.24186991869919,40.34552845528455 43.1910569105691,40.447154471544714 43.140243902439025,40.4979674796748 43.03861788617886,40.548780487804876 42.98780487804878,40.65040650406504 42.9369918699187,40.701219512195124 42.886178861788615,40.802845528455286 42.83536585365854,40.802845528455286 42.78455284552845,40.90447154471545 42.68292682926829,41.00609756097561 42.63211382113821,41.107723577235774 42.53048780487805,41.209349593495936 42.53048780487805,41.260162601626014 42.42886178861789,41.3109756097561 42.42886178861789,41.36178861788618 42.3780487804878,41.41260162601626" fill="none" stroke="black" stroke-width="0.6"></polyline><polyline points="42.3780487804878,41.41260162601626 42.3780487804878,41.46341463414634 42.27642276422764,41.514227642276424 42.22560975609756,41.514227642276424 42.22560975609756,41.5650406504065 42.17479674796748,41.61585365853659 42.1239837398374,41.666666666666664 42.073170731707314,41.71747967479675 42.073170731707314,41.76829268292683 42.02235772357724,41.76829268292683 41.97154471544715,41.81910569105691 41.97154471544715,41.86991869918699 41.97154471544715,41.920731707317074 41.97154471544715,41.97154471544715 41.97154471544715,42.02235772357724 41.920731707317074,42.02235772357724 41.920731707317074,42.073170731707314 41.86991869918699,42.1239837398374 41.81910569105691,42.17479674796748 41.81910569105691,42.22560975609756 41.76829268292683,42.27642276422764 41.71747967479675,42.327235772357724 41.71747967479675,42.3780487804878 41.71747967479675,42.42886178861789 41.666666666666664,42.479674796747965 41.666666666666664,42.53048780487805 41.61585365853659,42.53048780487805 41.61585365853659,42.58130081300813 41.5650406504065,42.63211382113821 41.5650406504065,42.68292682926829 41.514227642276424,42.68292682926829 41.514227642276424,42.733739837398375 41.46341463414634,42.733739837398375 41.46341463414634,42.78455284552845 41.46341463414634,42.83536585365854 41.46341463414634,42.886178861788615 41.41260162601626,42.9369918699187 41.41260162601626,42.98780487804878 41.36178861788618,42.98780487804878 41.36178861788618,43.03861788617886 41.3109756097561,43.08943089430894 41.3109756097561,43.140243902439025 41.260162601626014,43.1910569105691 41.260162601626014,43.24186991869919 41.209349593495936,43.24186991869919 41.209349593495936,43.292682926829265 41.209349593495936,43.34349593495935 41.15853658536585,43.39430894308943 41.15853658536585,43.44512195121951 41.107723577235774,43.49593495934959 41.05691056910569,43.49593495934959" fill="none" stroke="black" stroke-width="0.6"></polyline><polyline points="41.05691056910569,43.49593495934959 41.00609756097561,43.546747967479675 40.95528455284553,43.59756097560975 40.95528455284553,43.64837398373984 40.95528455284553,43.699186991869915 40.90447154471545,43.75 40.853658536585364,43.80081300813008 40.802845528455286,43.85162601626016 40.802845528455286,43.90243902439024 40.7520325203252,43.953252032520325 40.7520325203252,44.0040650406504 40.701219512195124,44.0040650406504 40.701219512195124,44.05487804878049 40.701219512195124,44.105691056910565 40.701219512195124,44.15650406504065 40.65040650406504,44.20731707317073 40.59959349593496,44.25813008130081 40.59959349593496,44.30894308943089 40.548780487804876,44.359756097560975 40.4979674796748,44.41056910569105 40.4979674796748,44.46138211382114 40.4979674796748,44.512195121951216 40.447154471544714,44.5630081300813 40.447154471544714,44.61382113821138 40.396341463414636,44.61382113821138 40.396341463414636,44.66463414634146 40.396341463414636,44.71544715447154 40.34552845528455,44.71544715447154 40.34552845528455,44.766260162601625 40.29471544715447,44.8170731707317 40.29471544715447,44.86788617886179 40.24390243902439,44.918699186991866 40.24390243902439,44.96951219512195 40.24390243902439,45.02032520325203 40.24390243902439,45.07113821138211 40.24390243902439,45.12195121951219 40.19308943089431,45.172764227642276 40.19308943089431,45.22357723577235 40.142276422764226,45.22357723577235 40.142276422764226,45.27439024390244 40.142276422764226,45.325203252032516 40.142276422764226,45.3760162601626 40.142276422764226,45.42682926829268 40.09146341463415,45.42682926829268 40.09146341463415,45.47764227642276 40.09146341463415,45.52845528455285 40.09146341463415,45.579268292682926 40.09146341463415,45.63008130081301 40.09146341463415,45.68089430894309 40.09146341463415,45.73170731707317 40.09146341463415,45.78252032520325" fill="none" stroke="black" stroke-width="0.6"></polyline><polyline points="40.09146341463415,45.78252032520325 40.040650406504064,45.78252032520325 40.040650406504064,45.833333333333336 39.989837398373986,45.833333333333336 39.989837398373986,45.88414634146341 39.989837398373986,45.9349593495935 39.989837398373986,45.985772357723576 39.989837398373986,46.03658536585366 39.989837398373986,46.08739837398374 39.989837398373986,46.13821138211382 39.989837398373986,46.1890243902439 39.989837398373986,46.239837398373986 39.989837398373986,46.290650406504064 39.9390243902439,46.34146341463415 39.9390243902439,46.392276422764226 39.9390243902439,46.44308943089431 39.88821138211382,46.49390243902439 39.88821138211382,46.54471544715447 39.88821138211382,46.59552845528455 39.88821138211382,46.646341463414636 39.83739837398374,46.697154471544714 39.83739837398374,46.7479674796748 39.83739837398374,46.798780487804876 39.83739837398374,46.84959349593496 39.83739837398374,46.90040650406504 39.78658536585366,46.951219512195124 39.78658536585366,47.0020325203252 39.78658536585366,47.052845528455286 39.78658536585366,47.103658536585364 39.78658536585366,47.15447154471545 39.78658536585366,47.20528455284553 39.735772357723576,47.25609756097561 39.735772357723576,47.30691056910569 39.735772357723576,47.357723577235774 39.735772357723576,47.40853658536585 39.735772357723576,47.459349593495936 39.735772357723576,47.510162601626014 39.735772357723576,47.5609756097561 39.735772357723576,47.61178861788618 39.735772357723576,47.66260162601626 39.735772357723576,47.71341463414634 39.735772357723576,47.764227642276424 39.735772357723576,47.8150406504065 39.735772357723576,47.86585365853659 39.735772357723576,47.916666666666664 39.735772357723576,47.96747967479675 39.6849593495935,47.96747967479675 39.6849593495935,48.01829268292683 39.6849593495935,48.06910569105691 39.6849593495935,48.11991869918699 39.6849593495935,48.170731707317074" fill="none" stroke="black" stroke-width="0.6"></polyline><polyline points="39.6849593495935,48.170731707317074 39.6849593495935,48.22154471544715 39.6849593495935,48.27235772357724 39.6849593495935,48.323170731707314 39.6849593495935,48.3739837398374 39.63414634146341,48.42479674796748 39.63414634146341,48.47560975609756 39.63414634146341,48.52642276422764 39.63414634146341,48.577235772357724 39.63414634146341,48.6280487804878 39.63414634146341,48.67886178861789 39.63414634146341,48.729674796747965 39.63414634146341,48.78048780487805 39.63414634146341,48.83130081300813 39.583333333333336,48.83130081300813 39.583333333333336,48.88211382113821 39.583333333333336,48.93292682926829 39.583333333333336,48.983739837398375 39.583333333333336,49.03455284552845 39.583333333333336,49.08536585365854 39.53252032520325,49.08536585365854 39.53252032520325,49.136178861788615 39.53252032520325,49.1869918699187 39.53252032520325,49.23780487804878 39.53252032520325,49.28861788617886 39.53252032520325,49.33943089430894 39.53252032520325,49.390243902439025 39.53252032520325,49.4410569105691 39.53252032520325,49.49186991869919 39.53252032520325,49.542682926829265 39.48170731707317,49.542682926829265 39.48170731707317,49.59349593495935 39.48170731707317,49.64430894308943 39.48170731707317,49.69512195121951 39.48170731707317,49.74593495934959 39.48170731707317,49.796747967479675 39.48170731707317,49.84756097560975 39.48170731707317,49.89837398373984 39.48170731707317,49.949186991869915 39.48170731707317,50 39.48170731707317,50.05081300813008 39.48170731707317,50.10162601626016 39.48170731707317,50.15243902439024 39.48170731707317,50.203252032520325 39.48170731707317,50.2540650406504 39.48170731707317,50.30487804878049 39.48170731707317,50.355691056910565 39.48170731707317,50.40650406504065 39.48170731707317,50.45731707317073 39.48170731707317,50.50813008130081 39.48170731707317,50.55894308943089" fill="none" stroke="black" stroke-width="0.6"></polyline><polyline points="39.48170731707317,50.55894308943089 39.48170731707317,50.609756097560975 39.48170731707317,50.66056910569105 39.48170731707317,50.71138211382114 39.48170731707317,50.762195121951216 39.48170731707317,50.8130081300813 39.48170731707317,50.86382113821138 39.48170731707317,50.91463414634146 39.48170731707317,50.96544715447154 39.48170731707317,51.016260162601625 39.48170731707317,51.0670731707317 39.48170731707317,51.11788617886179 39.48170731707317,51.168699186991866 39.48170731707317,51.21951219512195 39.48170731707317,51.27032520325203 39.48170731707317,51.32113821138211 39.48170731707317,51.37195121951219 39.48170731707317,51.422764227642276 39.48170731707317,51.47357723577235 39.48170731707317,51.52439024390244 39.48170731707317,51.575203252032516 39.48170731707317,51.6260162601626 39.48170731707317,51.67682926829268 39.48170731707317,51.72764227642276 39.48170731707317,51.77845528455284 39.48170731707317,51.829268292682926 39.48170731707317,51.880081300813 39.48170731707317,51.93089430894309 39.48170731707317,51.981707317073166 39.48170731707317,52.03252032520325 39.48170731707317,52.083333333333336 39.53252032520325,52.13414634146341 39.53252032520325,52.1849593495935 39.53252032520325,52.235772357723576 39.583333333333336,52.28658536585366 39.583333333333336,52.33739837398374 39.583333333333336,52.38821138211382 39.583333333333336,52.4390243902439 39.63414634146341,52.489837398373986 39.63414634146341,52.540650406504064 39.63414634146341,52.59146341463415 39.63414634146341,52.642276422764226 39.6849593495935,52.69308943089431 39.6849593495935,52.74390243902439 39.6849593495935,52.79471544715447 39.6849593495935,52.84552845528455 39.735772357723576,52.896341463414636 39.735772357723576,52.947154471544714 39.735772357723576,52.9979674796748 39.735772357723576,53.048780487804876 39.735772357723576,53.09959349593496" fill="none" stroke="black" stroke-width="0.6"></polyline><polyline points="39.735772357723576,53.09959349593496 39.735772357723576,53.15040650406504 39.735772357723576,53.201219512195124 39.735772357723576,53.2520325203252 39.78658536585366,53.302845528455286 39.78658536585366,53.353658536585364 39.78658536585366,53.40447154471545 39.83739837398374,53.45528455284553 39.83739837398374,53.50609756097561 39.88821138211382,53.55691056910569 39.88821138211382,53.607723577235774 39.88821138211382,53.65853658536585 39.88821138211382,53.709349593495936 39.9390243902439,53.709349593495936 39.9390243902439,53.760162601626014 39.9390243902439,53.8109756097561 39.989837398373986,53.86178861788618 39.989837398373986,53.91260162601626 39.989837398373986,53.96341463414634 39.989837398373986,54.014227642276424 40.040650406504064,54.0650406504065 40.040650406504064,54.11585365853659 40.09146341463415,54.166666666666664 40.09146341463415,54.21747967479675 40.142276422764226,54.26829268292683 40.142276422764226,54.31910569105691 40.19308943089431,54.36991869918699 40.19308943089431,54.420731707317074 40.19308943089431,54.47154471544715 40.24390243902439,54.47154471544715 40.24390243902439,54.52235772357724 40.24390243902439,54.573170731707314 40.24390243902439,54.6239837398374 40.24390243902439,54.67479674796748 40.29471544715447,54.72560975609756 40.29471544715447,54.77642276422764 40.34552845528455,54.827235772357724 40.34552845528455,54.8780487804878 40.34552845528455,54.92886178861789 40.396341463414636,54.979674796747965 40.447154471544714,55.03048780487805 40.447154471544714,55.08130081300813 40.447154471544714,55.13211382113821 40.4979674796748,55.18292682926829 40.4979674796748,55.233739837398375 40.4979674796748,55.28455284552845 40.4979674796748,55.33536585365854 40.548780487804876,55.33536585365854 40.548780487804876,55.386178861788615 40.548780487804876,55.4369918699187 40.59959349593496,55.4369918699187" fill="none" stroke="black" stroke-width="0.6"></polyline><polyline points="40.59959349593496,55.4369918699187 40.59959349593496,55.48780487804878 40.65040650406504,55.53861788617886 40.65040650406504,55.58943089430894 40.701219512195124,55.640243902439025 40.701219512195124,55.6910569105691 40.7520325203252,55.74186991869919 40.7520325203252,55.792682926829265 40.7520325203252,55.84349593495935 40.802845528455286,55.89430894308943 40.853658536585364,55.89430894308943 40.853658536585364,55.94512195121951 40.90447154471545,55.99593495934959 40.95528455284553,55.99593495934959 40.95528455284553,56.046747967479675 41.00609756097561,56.046747967479675 41.00609756097561,56.09756097560975 41.00609756097561,56.14837398373984 41.05691056910569,56.14837398373984 41.107723577235774,56.199186991869915 41.15853658536585,56.199186991869915 41.15853658536585,56.25 41.209349593495936,56.30081300813008 41.209349593495936,56.35162601626016 41.260162601626014,56.35162601626016 41.3109756097561,56.40243902439024 41.36178861788618,56.453252032520325 41.41260162601626,56.453252032520325 41.46341463414634,56.5040650406504 41.514227642276424,56.55487804878049 41.5650406504065,56.605691056910565 41.61585365853659,56.65650406504065 41.666666666666664,56.65650406504065 41.71747967479675,56.70731707317073 41.71747967479675,56.75813008130081 41.76829268292683,56.80894308943089 41.86991869918699,56.859756097560975 41.920731707317074,56.91056910569105 41.97154471544715,56.91056910569105 41.97154471544715,56.96138211382114 42.02235772357724,57.012195121951216 42.073170731707314,57.0630081300813 42.17479674796748,57.11382113821138 42.22560975609756,57.16463414634146 42.27642276422764,57.16463414634146 42.3780487804878,57.21544715447154 42.42886178861789,57.3170731707317 42.53048780487805,57.36788617886179 42.58130081300813,57.418699186991866 42.63211382113821,57.418699186991866 42.68292682926829,57.418699186991866" fill="none" stroke="black" stroke-width="0.6"></polyline><polyline points="42.68292682926829,57.418699186991866 42.68292682926829,57.46951219512195 42.733739837398375,57.52032520325203 42.78455284552845,57.52032520325203 42.83536585365854,57.57113821138211 42.886178861788615,57.57113821138211 42.9369918699187,57.62195121951219 42.98780487804878,57.62195121951219 43.03861788617886,57.62195121951219 43.08943089430894,57.672764227642276 43.140243902439025,57.672764227642276 43.1910569105691,57.72357723577235 43.1910569105691,57.77439024390244 43.24186991869919,57.77439024390244 43.292682926829265,57.77439024390244 43.34349593495935,57.77439024390244 43.34349593495935,57.825203252032516 43.39430894308943,57.825203252032516 43.44512195121951,57.825203252032516 43.49593495934959,57.825203252032516 43.49593495934959,57.8760162601626 43.546747967479675,57.8760162601626 43.59756097560975,57.8760162601626 43.64837398373984,57.8760162601626 43.699186991869915,57.8760162601626 43.699186991869915,57.92682926829268 43.75,57.92682926829268 43.75,57.97764227642276 43.80081300813008,57.97764227642276 43.85162601626016,58.02845528455284 43.90243902439024,58.02845528455284 43.953252032520325,58.079268292682926 44.0040650406504,58.130081300813 44.05487804878049,58.130081300813 44.105691056910565,58.130081300813 44.15650406504065,58.18089430894309 44.20731707317073,58.231707317073166 44.25813008130081,58.231707317073166 44.359756097560975,58.28252032520325 44.41056910569105,58.33333333333333 44.41056910569105,58.38414634146341 44.512195121951216,58.38414634146341 44.5630081300813,58.38414634146341 44.61382113821138,58.43495934959349 44.66463414634146,58.485772357723576 44.71544715447154,58.536585365853654 44.766260162601625,58.536585365853654 44.8170731707317,58.58739837398374 44.86788617886179,58.58739837398374 44.918699186991866,58.63821138211382 44.96951219512195,58.63821138211382" fill="none" stroke="black" stroke-width="0.6"></polyline><polyline points="44.96951219512195,58.63821138211382 45.02032520325203,58.63821138211382 45.07113821138211,58.63821138211382 45.12195121951219,58.6890243902439 45.172764227642276,58.6890243902439 45.172764227642276,58.739837398373986 45.22357723577235,58.739837398373986 45.27439024390244,58.790650406504064 45.325203252032516,58.790650406504064 45.3760162601626,58.84146341463415 45.42682926829268,58.84146341463415 45.47764227642276,58.892276422764226 45.52845528455285,58.892276422764226 45.579268292682926,58.892276422764226 45.63008130081301,58.892276422764226 45.68089430894309,58.892276422764226 45.68089430894309,58.94308943089431 45.73170731707317,58.94308943089431 45.78252032520325,58.94308943089431 45.833333333333336,58.94308943089431 45.88414634146341,58.94308943089431 45.9349593495935,58.99390243902439 45.9349593495935,59.04471544715447 45.985772357723576,59.04471544715447 46.03658536585366,59.04471544715447 46.08739837398374,59.09552845528455 46.13821138211382,59.09552845528455 46.1890243902439,59.09552845528455 46.239837398373986,59.09552845528455 46.290650406504064,59.09552845528455 46.34146341463415,59.146341463414636 46.392276422764226,59.146341463414636 46.44308943089431,59.197154471544714 46.49390243902439,59.197154471544714 46.54471544715447,59.197154471544714 46.59552845528455,59.197154471544714 46.646341463414636,59.2479674796748 46.697154471544714,59.2479674796748 46.7479674796748,59.298780487804876 46.798780487804876,59.298780487804876 46.84959349593496,59.298780487804876 46.90040650406504,59.298780487804876 46.951219512195124,59.34959349593496 47.0020325203252,59.34959349593496 47.052845528455286,59.34959349593496 47.15447154471545,59.34959349593496 47.20528455284553,59.34959349593496 47.30691056910569,59.34959349593496 47.357723577235774,59.34959349593496 47.40853658536585,59.34959349593496 47.459349593495936,59.40040650406504" fill="none" stroke="black" stroke-width="0.6"></polyline><polyline points="47.459349593495936,59.40040650406504 47.5609756097561,59.40040650406504 47.61178861788618,59.40040650406504 47.66260162601626,59.40040650406504 47.71341463414634,59.451219512195124 47.8150406504065,59.451219512195124 47.86585365853659,59.451219512195124 47.916666666666664,59.451219512195124 47.96747967479675,59.5020325203252 48.06910569105691,59.5020325203252 48.11991869918699,59.5020325203252 48.170731707317074,59.5020325203252 48.27235772357724,59.5020325203252 48.323170731707314,59.552845528455286 48.3739837398374,59.552845528455286 48.42479674796748,59.552845528455286 48.47560975609756,59.552845528455286 48.577235772357724,59.552845528455286 48.6280487804878,59.552845528455286 48.729674796747965,59.603658536585364 48.78048780487805,59.603658536585364 48.83130081300813,59.603658536585364 48.88211382113821,59.603658536585364 48.93292682926829,59.603658536585364 48.983739837398375,59.603658536585364 49.03455284552845,59.603658536585364 49.08536585365854,59.603658536585364 49.136178861788615,59.603658536585364 49.1869918699187,59.603658536585364 49.23780487804878,59.603658536585364 49.28861788617886,59.603658536585364 49.33943089430894,59.603658536585364 49.390243902439025,59.603658536585364 49.49186991869919,59.603658536585364 49.59349593495935,59.603658536585364 49.69512195121951,59.603658536585364 49.84756097560975,59.603658536585364 50,59.603658536585364 50.15243902439024,59.603658536585364 50.30487804878049,59.552845528455286 50.45731707317073,59.5020325203252 50.609756097560975,59.451219512195124 50.762195121951216,59.451219512195124 50.86382113821138,59.40040650406504 51.016260162601625,59.34959349593496 51.11788617886179,59.34959349593496 51.168699186991866,59.34959349593496 51.27032520325203,59.34959349593496 51.32113821138211,59.34959349593496 51.37195121951219,59.34959349593496 51.422764227642276,59.34959349593496" fill="none" stroke="black" stroke-width="0.6"></polyline><polyline points="51.422764227642276,59.34959349593496 51.47357723577235,59.2479674796748 51.47357723577235,59.197154471544714 51.52439024390244,59.197154471544714 51.575203252032516,59.09552845528455 51.72764227642276,59.09552845528455 51.880081300813,58.99390243902439 52.083333333333336,58.892276422764226 52.33739837398374,58.790650406504064 52.59146341463415,58.6890243902439 52.79471544715447,58.63821138211382 52.9979674796748,58.536585365853654 53.15040650406504,58.43495934959349 53.302845528455286,58.38414634146341 53.45528455284553,58.38414634146341 53.55691056910569,58.33333333333333 53.55691056910569,58.28252032520325 53.607723577235774,58.28252032520325 53.65853658536585,58.28252032520325 53.709349593495936,58.28252032520325 53.709349593495936,58.231707317073166 53.760162601626014,58.18089430894309 53.8109756097561,58.18089430894309 53.8109756097561,58.130081300813 53.91260162601626,58.130081300813 54.014227642276424,58.079268292682926 54.11585365853659,58.02845528455284 54.21747967479675,57.97764227642276 54.31910569105691,57.92682926829268 54.420731707317074,57.8760162601626 54.52235772357724,57.825203252032516 54.573170731707314,57.825203252032516 54.6239837398374,57.77439024390244 54.67479674796748,57.72357723577235 54.72560975609756,57.72357723577235 54.77642276422764,57.672764227642276 54.827235772357724,57.672764227642276 54.827235772357724,57.62195121951219 54.8780487804878,57.57113821138211 54.92886178861789,57.52032520325203 54.979674796747965,57.46951219512195 55.03048780487805,57.418699186991866 55.08130081300813,57.418699186991866 55.18292682926829,57.36788617886179 55.28455284552845,57.266260162601625 55.33536585365854,57.21544715447154 55.48780487804878,57.16463414634146 55.53861788617886,57.11382113821138 55.6910569105691,57.012195121951216 55.792682926829265,56.96138211382114 55.84349593495935,56.91056910569105" fill="none" stroke="black" stroke-width="0.6"></polyline><polyline points="55.84349593495935,56.91056910569105 55.94512195121951,56.859756097560975 56.046747967479675,56.80894308943089 56.09756097560975,56.75813008130081 56.14837398373984,56.70731707317073 56.199186991869915,56.65650406504065 56.25,56.65650406504065 56.30081300813008,56.65650406504065 56.30081300813008,56.605691056910565 56.30081300813008,56.55487804878049 56.30081300813008,56.5040650406504 56.35162601626016,56.5040650406504 56.35162601626016,56.453252032520325 56.40243902439024,56.453252032520325 56.453252032520325,56.453252032520325 56.5040650406504,56.453252032520325 56.55487804878049,56.40243902439024 56.55487804878049,56.35162601626016 56.605691056910565,56.35162601626016 56.70731707317073,56.30081300813008 56.75813008130081,56.25 56.80894308943089,56.199186991869915 56.91056910569105,56.199186991869915 56.96138211382114,56.199186991869915 57.012195121951216,56.14837398373984 57.0630081300813,56.09756097560975 57.11382113821138,56.09756097560975 57.16463414634146,56.046747967479675 57.21544715447154,56.046747967479675 57.266260162601625,55.99593495934959 57.3170731707317,55.94512195121951 57.36788617886179,55.94512195121951 57.418699186991866,55.89430894308943 57.46951219512195,55.84349593495935 57.52032520325203,55.84349593495935 57.52032520325203,55.792682926829265 57.52032520325203,55.74186991869919 57.57113821138211,55.6910569105691 57.62195121951219,55.6910569105691 57.672764227642276,55.640243902439025 57.72357723577235,55.640243902439025 57.77439024390244,55.53861788617886 57.77439024390244,55.48780487804878 57.825203252032516,55.4369918699187 57.8760162601626,55.4369918699187 57.92682926829268,55.386178861788615 57.97764227642276,55.33536585365854 58.02845528455284,55.233739837398375 58.02845528455284,55.18292682926829 58.079268292682926,55.18292682926829 58.130081300813,55.13211382113821" fill="none" stroke="black" stroke-width="0.6"></polyline><polyline points="58.130081300813,55.13211382113821 58.18089430894309,55.08130081300813 58.231707317073166,55.03048780487805 58.28252032520325,54.979674796747965 58.28252032520325,54.92886178861789 58.33333333333333,54.92886178861789 58.38414634146341,54.8780487804878 58.43495934959349,54.827235772357724 58.485772357723576,54.77642276422764 58.485772357723576,54.72560975609756 58.536585365853654,54.67479674796748 58.536585365853654,54.6239837398374 58.58739837398374,54.6239837398374 58.58739837398374,54.573170731707314 58.58739837398374,54.52235772357724 58.63821138211382,54.52235772357724 58.63821138211382,54.47154471544715 58.6890243902439,54.47154471544715 58.739837398373986,54.420731707317074 58.739837398373986,54.36991869918699 58.739837398373986,54.31910569105691 58.790650406504064,54.31910569105691 58.790650406504064,54.26829268292683 58.84146341463415,54.21747967479675 58.892276422764226,54.21747967479675 58.94308943089431,54.166666666666664 58.99390243902439,54.166666666666664 58.99390243902439,54.11585365853659 58.99390243902439,54.0650406504065 59.04471544715447,54.0650406504065" fill="none" stroke="black" stroke-width="0.6"></polyline><polyline points="61.229674796747965,51.27032520325203 61.38211382113821,51.422764227642276" fill="none" stroke="black" stroke-width="0.6"></polyline><polyline points="61.229674796747965,51.32113821138211 61.38211382113821,51.47357723577235" fill="none" stroke="black" stroke-width="0.6"></polyline><polyline points="61.229674796747965,51.32113821138211 61.38211382113821,51.47357723577235" fill="none" stroke="black" stroke-width="0.6"></polyline><polyline points="61.229674796747965,51.32113821138211 61.38211382113821,51.47357723577235" fill="none" stroke="black" stroke-width="0.6"></polyline><polyline points="61.229674796747965,51.32113821138211 61.38211382113821,51.47357723577235" fill="none" stroke="black" stroke-width="0.6"></polyline><polyline points="61.229674796747965,51.32113821138211 61.38211382113821,51.47357723577235" fill="none" stroke="black" stroke-width="0.6"></polyline><polyline points="61.229674796747965,51.32113821138211 61.38211382113821,51.47357723577235" fill="none" stroke="black" stroke-width="0.6"></polyline><polyline points="61.229674796747965,51.32113821138211 61.38211382113821,51.47357723577235" fill="none" stroke="black" stroke-width="0.6"></polyline><polyline points="61.28048780487805,51.32113821138211 61.43292682926829,51.47357723577235" fill="none" stroke="black" stroke-width="0.6"></polyline><polyline points="61.38211382113821,51.32113821138211 61.53455284552845,51.47357723577235" fill="none" stroke="black" stroke-width="0.6"></polyline><polyline points="61.43292682926829,51.32113821138211 61.58536585365854,51.47357723577235" fill="none" stroke="black" stroke-width="0.6"></polyline><polyline points="61.483739837398375,51.32113821138211 61.636178861788615,51.47357723577235" fill="none" stroke="black" stroke-width="0.6"></polyline><polyline points="61.73780487804878,51.27032520325203 61.890243902439025,51.422764227642276" fill="none" stroke="black" stroke-width="0.6"></polyline><polyline points="62.042682926829265,51.11788617886179 62.19512195121951,51.27032520325203" fill="none" stroke="black" stroke-width="0.6"></polyline><polyline points="62.39837398373984,51.016260162601625 62.55081300813008,51.168699186991866" fill="none" stroke="black" stroke-width="0.6"></polyline><polyline points="62.60162601626016,50.96544715447154 62.7540650406504,51.11788617886179" fill="none" stroke="black" stroke-width="0.6"></polyline><polyline points="62.703252032520325,50.91463414634146 62.855691056910565,51.0670731707317" fill="none" stroke="black" stroke-width="0.6"></polyline><polyline points="62.703252032520325,50.86382113821138 62.855691056910565,51.016260162601625" fill="none" stroke="black" stroke-width="0.6"></polyline><polyline points="62.7540650406504,50.86382113821138 62.90650406504065,51.016260162601625" fill="none" stroke="black" stroke-width="0.6"></polyline><polyline points="62.7540650406504,50.86382113821138 62.90650406504065,51.016260162601625" fill="none" stroke="black" stroke-width="0.6"></polyline><polyline points="62.95731707317073,50.8130081300813 63.109756097560975,50.96544715447154" fill="none" stroke="black" stroke-width="0.6"></polyline><polyline points="63.21138211382114,50.609756097560975 63.36382113821138,50.762195121951216" fill="none" stroke="black" stroke-width="0.6"></polyline><polyline points="63.46544715447154,50.45731707317073 63.61788617886179,50.609756097560975" fill="none" stroke="black" stroke-width="0.6"></polyline><polyline points="63.668699186991866,50.30487804878049 63.82113821138211,50.45731707317073" fill="none" stroke="black" stroke-width="0.6"></polyline><polyline points="63.922764227642276,50.10162601626016 64.07520325203252,50.2540650406504" fill="none" stroke="black" stroke-width="0.6"></polyline><polyline points="64.17682926829268,49.949186991869915 64.32926829268293,50.10162601626016" fill="none" stroke="black" stroke-width="0.6"></polyline><polyline points="64.22764227642276,49.89837398373984 64.98983739837398,49.59349593495935 65.14227642276423,49.59349593495935 65.2439024390244,49.59349593495935 65.39634146341463,49.59349593495935 65.44715447154472,49.59349593495935 65.4979674796748,49.59349593495935 65.59959349593495,49.59349593495935 65.65040650406505,49.59349593495935 65.70121951219512,49.59349593495935 65.7520325203252,49.59349593495935 65.80284552845528,49.59349593495935 65.85365853658537,49.59349593495935 65.90447154471545,49.59349593495935 65.95528455284553,49.59349593495935 66.0060975609756,49.59349593495935 66.0569105691057,49.59349593495935 66.15853658536585,49.59349593495935 66.20934959349593,49.59349593495935 66.3109756097561,49.59349593495935 66.41260162601625,49.59349593495935 66.51422764227642,49.59349593495935 66.66666666666667,49.542682926829265 66.71747967479675,49.542682926829265 66.869918699187,49.542682926829265 66.97154471544715,49.542682926829265 67.1239837398374,49.542682926829265 67.22560975609755,49.49186991869919 67.3780487804878,49.49186991869919 67.47967479674797,49.49186991869919 67.6321138211382,49.49186991869919 67.6829268292683,49.49186991869919 67.83536585365853,49.49186991869919 67.88617886178862,49.4410569105691 68.03861788617886,49.4410569105691 68.14024390243902,49.4410569105691 68.1910569105691,49.4410569105691 68.29268292682927,49.4410569105691 68.39430894308943,49.4410569105691 68.4451219512195,49.4410569105691 68.4959349593496,49.4410569105691 68.59756097560975,49.4410569105691 68.64837398373983,49.4410569105691 68.69918699186992,49.4410569105691 68.75,49.4410569105691 68.80081300813008,49.4410569105691 68.90243902439025,49.4410569105691 69.0040650406504,49.4410569105691 69.10569105691057,49.4410569105691 69.15650406504065,49.4410569105691 69.2581300813008,49.4410569105691" fill="none" stroke="black" stroke-width="0.6"></polyline><polyline points="69.2581300813008,49.4410569105691 69.35975609756098,49.390243902439025 69.51219512195122,49.390243902439025 69.61382113821138,49.390243902439025 69.76626016260163,49.390243902439025 69.86788617886178,49.390243902439025 70.0711382113821,49.390243902439025 70.17276422764228,49.390243902439025 70.3760162601626,49.390243902439025 70.57926829268293,49.33943089430894 70.73170731707317,49.33943089430894 70.9349593495935,49.33943089430894 71.13821138211382,49.33943089430894 71.39227642276423,49.33943089430894 71.64634146341463,49.28861788617886 71.90040650406505,49.28861788617886 72.15447154471545,49.28861788617886 72.35772357723577,49.28861788617886 72.61178861788618,49.23780487804878 72.8150406504065,49.23780487804878 73.01829268292683,49.23780487804878 73.17073170731707,49.23780487804878 73.3739837398374,49.23780487804878 73.57723577235772,49.23780487804878 73.78048780487805,49.23780487804878 73.98373983739837,49.23780487804878 74.1869918699187,49.23780487804878 74.33943089430895,49.1869918699187 74.54268292682927,49.1869918699187 74.7459349593496,49.1869918699187 74.89837398373983,49.1869918699187 75.05081300813008,49.1869918699187 75.10162601626016,49.1869918699187 75.20325203252033,49.1869918699187 75.30487804878048,49.1869918699187 75.35569105691057,49.1869918699187 75.40650406504065,49.1869918699187 75.45731707317073,49.1869918699187 75.5081300813008,49.1869918699187 75.5589430894309,49.1869918699187 75.60975609756098,49.1869918699187 75.66056910569105,49.1869918699187 75.71138211382113,49.1869918699187 75.76219512195122,49.1869918699187 75.8130081300813,49.1869918699187 75.86382113821138,49.1869918699187 75.91463414634146,49.1869918699187 75.96544715447155,49.1869918699187 76.01626016260163,49.1869918699187 76.0670731707317,49.1869918699187 76.11788617886178,49.1869918699187" fill="none" stroke="black" stroke-width="0.6"></polyline><polyline points="76.11788617886178,49.1869918699187" fill="none" stroke="black" stroke-width="0.6"></polyline></svg>