<svg height="100" width="100" preserveAspectRatio="xMidYMid meet"><polyline points="50.2540650406504,50 50.2540650406504,50 50.2540650406504,50 50.2540650406504,50 50.2540650406504,50 50.2540650406504,50.05081300813008 50.2540650406504,50.05081300813008 50.2540650406504,50.05081300813008 50.2540650406504,50.05081300813008 50.2540650406504,50.10162601626016 50.203252032520325,50.10162601626016 50.203252032520325,50.10162601626016 50.203252032520325,50.15243902439024 50.203252032520325,50.15243902439024 50.203252032520325,50.203252032520325 50.203252032520325,50.203252032520325 50.203252032520325,50.2540650406504 50.203252032520325,50.2540650406504 50.203252032520325,50.30487804878049 50.203252032520325,50.30487804878049 50.2540650406504,50.355691056910565 50.2540650406504,50.355691056910565 50.355691056910565,50.355691056910565 50.45731707317073,50.355691056910565 50.55894308943089,50.2540650406504 50.762195121951216,50.15243902439024 51.016260162601625,49.949186991869915 51.27032520325203,49.74593495934959 51.575203252032516,49.49186991869919 51.93089430894309,49.23780487804878 52.235772357723576,48.93292682926829 52.540650406504064,48.67886178861789 52.84552845528455,48.3739837398374 53.09959349593496,48.11991869918699 53.353658536585364,47.8150406504065 53.607723577235774,47.5609756097561 53.8109756097561,47.30691056910569 54.014227642276424,47.103658536585364 54.166666666666664,46.951219512195124 54.31910569105691,46.798780487804876 54.36991869918699,46.7479674796748 54.47154471544715,46.697154471544714 54.47154471544715,46.697154471544714 54.47154471544715,46.697154471544714 54.47154471544715,46.697154471544714 54.47154471544715,46.7479674796748 54.36991869918699,46.84959349593496 54.21747967479675,47.052845528455286 54.014227642276424,47.30691056910569 53.709349593495936,47.66260162601626 53.40447154471545,48.06910569105691" fill="none" stroke="black" stroke-width="0.6"></polyline><polyline points="53.40447154471545,48.06910569105691 53.09959349593496,48.42479674796748 52.642276422764226,48.93292682926829 52.1849593495935,49.49186991869919 51.67682926829268,50.10162601626016 51.11788617886179,50.8130081300813 50.71138211382114,51.32113821138211 50.355691056910565,51.6260162601626 50.203252032520325,51.77845528455284 50.15243902439024,51.829268292682926 50.203252032520325,51.77845528455284 50.2540650406504,51.67682926829268 50.45731707317073,51.47357723577235 50.8130081300813,51.0670731707317 51.27032520325203,50.45731707317073 51.77845528455284,49.74593495934959 52.33739837398374,49.03455284552845 53.09959349593496,48.11991869918699 53.86178861788618,47.20528455284553 54.52235772357724,46.49390243902439 55.03048780487805,45.9349593495935 55.28455284552845,45.68089430894309 55.386178861788615,45.63008130081301 55.386178861788615,45.63008130081301 55.18292682926829,45.833333333333336 54.827235772357724,46.239837398373986 54.26829268292683,46.84959349593496 53.607723577235774,47.61178861788618 52.896341463414636,48.47560975609756 52.03252032520325,49.4410569105691 51.11788617886179,50.50813008130081 50.30487804878049,51.47357723577235 49.69512195121951,52.13414634146341 49.33943089430894,52.489837398373986 49.23780487804878,52.489837398373986 49.23780487804878,52.4390243902439 49.49186991869919,52.13414634146341 49.89837398373984,51.575203252032516 50.45731707317073,50.8130081300813 51.168699186991866,49.89837398373984 51.93089430894309,48.93292682926829 52.79471544715447,47.8150406504065 53.760162601626014,46.798780487804876 54.6239837398374,45.88414634146341 55.33536585365854,45.22357723577235 55.792682926829265,44.96951219512195 55.94512195121951,44.96951219512195 55.94512195121951,45.172764227642276 55.640243902439025,45.68089430894309 55.13211382113821,46.44308943089431 54.420731707317074,47.357723577235774" fill="none" stroke="black" stroke-width="0.6"></polyline><polyline points="54.420731707317074,47.357723577235774 53.607723577235774,48.323170731707314 52.642276422764226,49.390243902439025 51.422764227642276,50.66056910569105 50.203252032520325,51.880081300813 49.03455284552845,53.048780487804876 48.01829268292683,53.86178861788618 47.40853658536585,54.26829268292683 47.15447154471545,54.36991869918699 47.103658536585364,54.31910569105691 47.30691056910569,53.91260162601626 47.86585365853659,53.09959349593496 48.577235772357724,52.03252032520325 49.49186991869919,50.8130081300813 50.609756097560975,49.49186991869919 51.72764227642276,48.27235772357724 52.896341463414636,47.15447154471545 54.014227642276424,46.290650406504064 54.67479674796748,45.78252032520325 55.13211382113821,45.52845528455285 55.33536585365854,45.47764227642276 55.33536585365854,45.52845528455285 55.28455284552845,45.63008130081301 55.03048780487805,45.985772357723576 54.6239837398374,46.44308943089431 54.11585365853659,47.052845528455286 53.40447154471545,47.764227642276424 52.74390243902439,48.47560975609756 51.981707317073166,49.28861788617886 51.016260162601625,50.2540650406504 50.203252032520325,51.21951219512195 49.4410569105691,51.981707317073166 48.83130081300813,52.540650406504064 48.577235772357724,52.74390243902439 48.52642276422764,52.74390243902439 48.577235772357724,52.642276422764226 48.83130081300813,52.235772357723576 49.33943089430894,51.575203252032516 50.05081300813008,50.762195121951216 50.8130081300813,49.89837398373984 51.6260162601626,48.93292682926829 52.74390243902439,47.764227642276424 53.86178861788618,46.7479674796748 54.8780487804878,45.833333333333336 55.6910569105691,45.172764227642276 56.09756097560975,44.86788617886179 56.25,44.8170731707317 56.25,44.86788617886179 55.99593495934959,45.12195121951219 55.48780487804878,45.78252032520325 54.827235772357724,46.59552845528455" fill="none" stroke="black" stroke-width="0.6"></polyline><polyline points="54.827235772357724,46.59552845528455 54.014227642276424,47.5609756097561 53.09959349593496,48.577235772357724 51.981707317073166,49.796747967479675 50.91463414634146,51.016260162601625 49.89837398373984,52.03252032520325 49.08536585365854,52.84552845528455 48.6280487804878,53.201219512195124 48.42479674796748,53.2520325203252 48.42479674796748,53.201219512195124 48.577235772357724,52.947154471544714 48.983739837398375,52.4390243902439 49.49186991869919,51.72764227642276 50.15243902439024,50.96544715447154 50.86382113821138,50.05081300813008 51.67682926829268,49.136178861788615 52.540650406504064,48.27235772357724 53.45528455284553,47.459349593495936 54.21747967479675,46.84959349593496 54.67479674796748,46.646341463414636 54.8780487804878,46.59552845528455 54.8780487804878,46.646341463414636 54.827235772357724,46.90040650406504 54.52235772357724,47.25609756097561 54.11585365853659,47.764227642276424 53.607723577235774,48.3739837398374 52.9979674796748,48.983739837398375 52.33739837398374,49.64430894308943 51.67682926829268,50.30487804878049 50.91463414634146,51.0670731707317 50.30487804878049,51.52439024390244 49.89837398373984,51.829268292682926 49.69512195121951,51.93089430894309 49.69512195121951,51.880081300813 49.796747967479675,51.72764227642276 50.15243902439024,51.32113821138211 50.55894308943089,50.71138211382114 51.21951219512195,49.89837398373984 51.981707317073166,48.983739837398375 52.79471544715447,48.06910569105691 53.760162601626014,47.103658536585364 54.72560975609756,46.290650406504064 55.28455284552845,45.88414634146341 55.58943089430894,45.833333333333336 55.640243902439025,45.88414634146341 55.53861788617886,46.239837398373986 55.233739837398375,46.7479674796748 54.72560975609756,47.40853658536585 54.11585365853659,48.11991869918699 53.45528455284553,48.93292682926829 52.59146341463415,49.84756097560975" fill="none" stroke="black" stroke-width="0.6"></polyline><polyline points="52.59146341463415,49.84756097560975 51.72764227642276,50.71138211382114 50.86382113821138,51.47357723577235 50.203252032520325,51.981707317073166 49.89837398373984,52.083333333333336 49.84756097560975,52.13414634146341 49.84756097560975,52.083333333333336 50,51.880081300813 50.2540650406504,51.47357723577235 50.66056910569105,50.91463414634146 51.168699186991866,50.2540650406504 51.72764227642276,49.542682926829265 52.38821138211382,48.83130081300813 53.048780487804876,48.170731707317074 53.709349593495936,47.5609756097561 54.166666666666664,47.15447154471545 54.420731707317074,47.052845528455286 54.47154471544715,47.052845528455286 54.420731707317074,47.15447154471545 54.21747967479675,47.357723577235774 53.91260162601626,47.764227642276424 53.45528455284553,48.27235772357724 52.947154471544714,48.88211382113821 52.4390243902439,49.4410569105691 51.77845528455284,50.15243902439024 51.11788617886179,50.91463414634146 50.45731707317073,51.52439024390244 49.949186991869915,51.981707317073166 49.74593495934959,52.083333333333336 49.74593495934959,52.083333333333336 49.796747967479675,51.93089430894309 50.10162601626016,51.52439024390244 50.50813008130081,50.91463414634146 51.11788617886179,50.203252032520325 51.77845528455284,49.390243902439025 52.489837398373986,48.577235772357724 53.45528455284553,47.61178861788618 54.31910569105691,46.798780487804876 55.03048780487805,46.239837398373986 55.48780487804878,45.9349593495935 55.640243902439025,45.9349593495935 55.640243902439025,45.9349593495935 55.58943089430894,46.08739837398374 55.33536585365854,46.392276422764226 54.92886178861789,46.84959349593496 54.420731707317074,47.357723577235774 53.86178861788618,48.01829268292683 53.201219512195124,48.67886178861789 52.540650406504064,49.28861788617886 51.880081300813,49.89837398373984 51.21951219512195,50.50813008130081" fill="none" stroke="black" stroke-width="0.6"></polyline><polyline points="51.21951219512195,50.50813008130081 50.762195121951216,50.86382113821138 50.50813008130081,51.016260162601625 50.45731707317073,51.016260162601625 50.50813008130081,50.96544715447154 50.66056910569105,50.762195121951216 51.016260162601625,50.30487804878049 51.52439024390244,49.74593495934959 52.13414634146341,49.03455284552845 52.84552845528455,48.27235772357724 53.65853658536585,47.40853658536585 54.573170731707314,46.54471544715447 55.4369918699187,45.73170731707317 56.046747967479675,45.27439024390244 56.35162601626016,45.12195121951219 56.453252032520325,45.12195121951219 56.40243902439024,45.27439024390244 56.14837398373984,45.68089430894309 55.6910569105691,46.34146341463415 55.08130081300813,47.052845528455286 54.36991869918699,47.916666666666664 53.50609756097561,48.93292682926829 52.540650406504064,49.89837398373984 51.575203252032516,50.86382113821138 50.71138211382114,51.6260162601626 50.2540650406504,51.93089430894309 50.10162601626016,51.981707317073166 50.10162601626016,51.93089430894309 50.15243902439024,51.77845528455284 50.50813008130081,51.32113821138211 51.016260162601625,50.66056910569105 51.67682926829268,49.84756097560975 52.38821138211382,49.03455284552845 53.15040650406504,48.170731707317074 54.014227642276424,47.30691056910569 54.8780487804878,46.59552845528455 55.58943089430894,45.9349593495935 56.046747967479675,45.579268292682926 56.25,45.52845528455285 56.30081300813008,45.52845528455285 56.14837398373984,45.78252032520325 55.792682926829265,46.239837398373986 55.233739837398375,46.798780487804876 54.6239837398374,47.510162601626014 53.86178861788618,48.323170731707314 52.9979674796748,49.28861788617886 52.03252032520325,50.30487804878049 51.016260162601625,51.37195121951219 50.10162601626016,52.1849593495935 49.542682926829265,52.74390243902439 49.1869918699187,52.9979674796748" fill="none" stroke="black" stroke-width="0.6"></polyline><polyline points="49.1869918699187,52.9979674796748 49.08536585365854,53.048780487804876 49.136178861788615,52.896341463414636 49.390243902439025,52.540650406504064 49.84756097560975,51.829268292682926 50.45731707317073,51.016260162601625 51.21951219512195,50.10162601626016 52.083333333333336,49.08536585365854 52.9979674796748,48.11991869918699 54.014227642276424,47.15447154471545 54.92886178861789,46.392276422764226 55.53861788617886,45.9349593495935 55.89430894308943,45.73170731707317 55.99593495934959,45.73170731707317 55.99593495934959,45.78252032520325 55.792682926829265,46.03658536585366 55.48780487804878,46.44308943089431 54.979674796747965,47.0020325203252 54.36991869918699,47.764227642276424 53.709349593495936,48.52642276422764 52.9979674796748,49.33943089430894 52.13414634146341,50.2540650406504 51.37195121951219,51.016260162601625 50.762195121951216,51.52439024390244 50.355691056910565,51.77845528455284 50.30487804878049,51.829268292682926 50.355691056910565,51.72764227642276 50.55894308943089,51.422764227642276 51.016260162601625,50.86382113821138 51.6260162601626,50.10162601626016 52.38821138211382,49.136178861788615 53.15040650406504,48.27235772357724 54.11585365853659,47.25609756097561 55.18292682926829,46.1890243902439 56.046747967479675,45.3760162601626 56.65650406504065,44.86788617886179 57.012195121951216,44.66463414634146 57.0630081300813,44.66463414634146 57.012195121951216,44.8170731707317 56.70731707317073,45.22357723577235 56.25,45.833333333333336 55.58943089430894,46.646341463414636 54.72560975609756,47.61178861788618 53.91260162601626,48.577235772357724 52.947154471544714,49.542682926829265 51.93089430894309,50.609756097560975 51.21951219512195,51.27032520325203 50.762195121951216,51.52439024390244 50.609756097560975,51.52439024390244 50.66056910569105,51.47357723577235 50.86382113821138,51.168699186991866" fill="none" stroke="black" stroke-width="0.6"></polyline><polyline points="50.86382113821138,51.168699186991866 51.27032520325203,50.609756097560975 51.829268292682926,49.89837398373984 52.489837398373986,49.08536585365854 53.2520325203252,48.22154471544715 54.0650406504065,47.40853658536585 54.979674796747965,46.59552845528455 55.89430894308943,45.833333333333336 56.5040650406504,45.325203252032516 56.859756097560975,45.12195121951219 56.96138211382114,45.12195121951219 56.91056910569105,45.27439024390244 56.605691056910565,45.63008130081301 56.199186991869915,46.1890243902439 55.53861788617886,46.90040650406504 54.77642276422764,47.71341463414634 53.91260162601626,48.6280487804878 52.947154471544714,49.59349593495935 51.93089430894309,50.609756097560975 51.0670731707317,51.422764227642276 50.50813008130081,51.77845528455284 50.2540650406504,51.880081300813 50.203252032520325,51.880081300813 50.355691056910565,51.6260162601626 50.762195121951216,51.0670731707317 51.32113821138211,50.30487804878049 51.981707317073166,49.4410569105691 52.74390243902439,48.577235772357724 53.607723577235774,47.61178861788618 54.52235772357724,46.798780487804876 55.33536585365854,46.08739837398374 55.94512195121951,45.579268292682926 56.25,45.3760162601626 56.30081300813008,45.3760162601626 56.25,45.579268292682926 55.94512195121951,45.985772357723576 55.48780487804878,46.59552845528455 54.92886178861789,47.20528455284553 54.26829268292683,47.86585365853659 53.55691056910569,48.67886178861789 52.79471544715447,49.4410569105691 51.981707317073166,50.2540650406504 51.21951219512195,51.016260162601625 50.71138211382114,51.422764227642276 50.40650406504065,51.575203252032516 50.355691056910565,51.575203252032516 50.355691056910565,51.52439024390244 50.609756097560975,51.168699186991866 51.0670731707317,50.55894308943089 51.72764227642276,49.74593495934959 52.4390243902439,48.88211382113821" fill="none" stroke="black" stroke-width="0.6"></polyline><polyline points="52.4390243902439,48.88211382113821 53.353658536585364,47.86585365853659 54.31910569105691,46.90040650406504 55.33536585365854,45.9349593495935 56.25,45.07113821138211 56.75813008130081,44.766260162601625 57.012195121951216,44.71544715447154 57.012195121951216,44.766260162601625 56.859756097560975,45.07113821138211 56.453252032520325,45.63008130081301 55.89430894308943,46.392276422764226 55.13211382113821,47.25609756097561 54.31910569105691,48.22154471544715 53.2520325203252,49.390243902439025 52.1849593495935,50.50813008130081 51.168699186991866,51.47357723577235 50.40650406504065,52.03252032520325 50.10162601626016,52.13414634146341 50.10162601626016,52.13414634146341 50.10162601626016,52.03252032520325 50.30487804878049,51.6260162601626 50.762195121951216,50.96544715447154 51.422764227642276,50.10162601626016 52.1849593495935,49.1869918699187 52.9979674796748,48.27235772357724 53.96341463414634,47.30691056910569 54.92886178861789,46.44308943089431 55.792682926829265,45.73170731707317 56.40243902439024,45.22357723577235 56.65650406504065,45.07113821138211 56.70731707317073,45.12195121951219 56.65650406504065,45.172764227642276 56.453252032520325,45.42682926829268 55.99593495934959,45.985772357723576 55.386178861788615,46.697154471544714 54.72560975609756,47.459349593495936 53.96341463414634,48.27235772357724 53.048780487804876,49.1869918699187 52.1849593495935,50.05081300813008 51.422764227642276,50.86382113821138 50.8130081300813,51.32113821138211 50.55894308943089,51.422764227642276 50.50813008130081,51.422764227642276 50.55894308943089,51.32113821138211 50.91463414634146,50.86382113821138 51.422764227642276,50.15243902439024 52.13414634146341,49.23780487804878 52.947154471544714,48.3739837398374 53.86178861788618,47.357723577235774 54.979674796747965,46.290650406504064 55.99593495934959,45.3760162601626" fill="none" stroke="black" stroke-width="0.6"></polyline><polyline points="55.99593495934959,45.3760162601626 56.80894308943089,44.66463414634146 57.3170731707317,44.30894308943089 57.52032520325203,44.25813008130081 57.52032520325203,44.30894308943089 57.36788617886179,44.5630081300813 56.96138211382114,45.02032520325203 56.35162601626016,45.833333333333336 55.640243902439025,46.646341463414636 54.77642276422764,47.5609756097561 53.760162601626014,48.6280487804878 52.74390243902439,49.59349593495935 51.77845528455284,50.45731707317073 51.11788617886179,50.91463414634146 50.91463414634146,51.016260162601625 50.86382113821138,50.96544715447154 50.91463414634146,50.8130081300813 51.21951219512195,50.355691056910565 51.72764227642276,49.69512195121951 52.38821138211382,48.88211382113821 53.09959349593496,48.11991869918699 53.86178861788618,47.30691056910569 54.827235772357724,46.44308943089431 55.6910569105691,45.68089430894309 56.453252032520325,45.07113821138211 56.96138211382114,44.766260162601625 57.0630081300813,44.71544715447154 57.0630081300813,44.86788617886179 56.75813008130081,45.27439024390244 56.30081300813008,45.88414634146341 55.58943089430894,46.59552845528455 54.72560975609756,47.510162601626014 53.91260162601626,48.3739837398374 52.84552845528455,49.4410569105691 51.67682926829268,50.66056910569105 50.762195121951216,51.52439024390244 50.10162601626016,52.083333333333336 49.796747967479675,52.235772357723576 49.74593495934959,52.235772357723576 49.796747967479675,52.03252032520325 50.10162601626016,51.52439024390244 50.609756097560975,50.8130081300813 51.32113821138211,49.84756097560975 52.13414634146341,48.83130081300813 52.9979674796748,47.916666666666664 53.91260162601626,47.0020325203252 54.8780487804878,46.13821138211382 55.640243902439025,45.52845528455285 56.09756097560975,45.12195121951219 56.35162601626016,45.07113821138211 56.35162601626016,45.12195121951219" fill="none" stroke="black" stroke-width="0.6"></polyline><polyline points="56.35162601626016,45.12195121951219 56.199186991869915,45.27439024390244 55.84349593495935,45.73170731707317 55.233739837398375,46.44308943089431 54.573170731707314,47.20528455284553 53.760162601626014,48.06910569105691 52.9979674796748,48.93292682926829 52.083333333333336,49.796747967479675 51.21951219512195,50.762195121951216 50.55894308943089,51.37195121951219 50.15243902439024,51.72764227642276 50.05081300813008,51.77845528455284 50.05081300813008,51.67682926829268 50.2540650406504,51.422764227642276 50.66056910569105,50.8130081300813 51.27032520325203,50.05081300813008 52.03252032520325,49.1869918699187 52.84552845528455,48.27235772357724 53.709349593495936,47.357723577235774 54.67479674796748,46.392276422764226 55.58943089430894,45.52845528455285 56.30081300813008,44.86788617886179 56.75813008130081,44.5630081300813 56.96138211382114,44.512195121951216 56.91056910569105,44.5630081300813 56.70731707317073,44.8170731707317 56.25,45.42682926829268 55.53861788617886,46.34146341463415 54.6239837398374,47.459349593495936 53.65853658536585,48.577235772357724 52.540650406504064,49.89837398373984 51.21951219512195,51.32113821138211 50.2540650406504,52.28658536585366 49.59349593495935,52.84552845528455 49.23780487804878,52.9979674796748 49.1869918699187,52.9979674796748 49.28861788617886,52.84552845528455 49.59349593495935,52.28658536585366 50.15243902439024,51.52439024390244 50.86382113821138,50.55894308943089 51.72764227642276,49.4410569105691 52.59146341463415,48.47560975609756 53.607723577235774,47.459349593495936 54.67479674796748,46.49390243902439 55.386178861788615,45.88414634146341 55.89430894308943,45.52845528455285 56.09756097560975,45.47764227642276 56.09756097560975,45.579268292682926 55.84349593495935,45.9349593495935 55.33536585365854,46.54471544715447 54.72560975609756,47.20528455284553" fill="none" stroke="black" stroke-width="0.6"></polyline><polyline points="54.72560975609756,47.20528455284553 53.96341463414634,48.01829268292683 53.048780487804876,48.983739837398375 52.13414634146341,49.949186991869915 51.11788617886179,50.96544715447154 50.10162601626016,51.93089430894309 49.49186991869919,52.540650406504064 49.136178861788615,52.74390243902439 49.03455284552845,52.79471544715447 49.08536585365854,52.59146341463415 49.390243902439025,52.083333333333336 49.949186991869915,51.27032520325203 50.71138211382114,50.30487804878049 51.575203252032516,49.1869918699187 52.642276422764226,47.916666666666664 53.86178861788618,46.7479674796748 54.979674796747965,45.73170731707317 55.84349593495935,44.96951219512195 56.40243902439024,44.61382113821138 56.605691056910565,44.61382113821138 56.605691056910565,44.61382113821138 56.453252032520325,44.8170731707317 56.046747967479675,45.27439024390244 55.386178861788615,46.03658536585366 54.573170731707314,46.951219512195124 53.65853658536585,47.96747967479675 52.59146341463415,49.03455284552845 51.52439024390244,50.10162601626016 50.55894308943089,51.0670731707317 49.89837398373984,51.6260162601626 49.64430894308943,51.67682926829268 49.59349593495935,51.6260162601626 49.59349593495935,51.52439024390244 49.84756097560975,51.21951219512195 50.2540650406504,50.609756097560975 50.86382113821138,49.74593495934959 51.575203252032516,48.88211382113821 52.38821138211382,47.916666666666664 53.40447154471545,46.90040650406504 54.420731707317074,45.985772357723576 55.28455284552845,45.172764227642276 55.89430894308943,44.766260162601625 56.199186991869915,44.66463414634146 56.25,44.71544715447154 56.09756097560975,44.96951219512195 55.6910569105691,45.52845528455285 54.979674796747965,46.49390243902439 54.166666666666664,47.40853658536585 53.2520325203252,48.47560975609756 52.083333333333336,49.796747967479675 50.86382113821138,51.11788617886179" fill="none" stroke="black" stroke-width="0.6"></polyline><polyline points="50.86382113821138,51.11788617886179 49.74593495934959,52.235772357723576 48.88211382113821,52.9979674796748 48.52642276422764,53.15040650406504 48.47560975609756,53.15040650406504 48.577235772357724,52.84552845528455 48.983739837398375,52.1849593495935 49.59349593495935,51.32113821138211 50.45731707317073,50.2540650406504 51.32113821138211,49.1869918699187 52.33739837398374,48.11991869918699 53.50609756097561,46.951219512195124 54.52235772357724,46.1890243902439 55.233739837398375,45.68089430894309 55.74186991869919,45.3760162601626 55.84349593495935,45.3760162601626 55.84349593495935,45.47764227642276 55.640243902439025,45.833333333333336 55.18292682926829,46.34146341463415 54.52235772357724,47.052845528455286 53.709349593495936,47.86585365853659 52.947154471544714,48.6280487804878 52.03252032520325,49.49186991869919 51.016260162601625,50.45731707317073 50.2540650406504,51.21951219512195 49.74593495934959,51.575203252032516 49.542682926829265,51.67682926829268 49.542682926829265,51.67682926829268 49.59349593495935,51.52439024390244 49.89837398373984,51.11788617886179 50.40650406504065,50.45731707317073 51.0670731707317,49.542682926829265 51.93089430894309,48.577235772357724 52.84552845528455,47.5609756097561 53.96341463414634,46.49390243902439 55.08130081300813,45.42682926829268 55.89430894308943,44.766260162601625 56.453252032520325,44.41056910569105 56.65650406504065,44.359756097560975 56.65650406504065,44.41056910569105 56.453252032520325,44.71544715447154 55.99593495934959,45.325203252032516 55.233739837398375,46.1890243902439 54.31910569105691,47.20528455284553 53.302845528455286,48.323170731707314 52.13414634146341,49.542682926829265 50.86382113821138,50.762195121951216 49.796747967479675,51.72764227642276 49.23780487804878,52.083333333333336 49.03455284552845,52.13414634146341 48.983739837398375,52.083333333333336" fill="none" stroke="black" stroke-width="0.6"></polyline><polyline points="48.983739837398375,52.083333333333336 49.136178861788615,51.829268292682926 49.542682926829265,51.27032520325203 50.203252032520325,50.45731707317073 51.016260162601625,49.49186991869919 51.93089430894309,48.52642276422764 52.9979674796748,47.459349593495936 54.11585365853659,46.49390243902439 55.13211382113821,45.68089430894309 55.94512195121951,45.07113821138211 56.40243902439024,44.918699186991866 56.55487804878049,44.918699186991866 56.55487804878049,44.96951219512195 56.30081300813008,45.27439024390244 55.74186991869919,45.9349593495935 54.979674796747965,46.697154471544714 54.11585365853659,47.510162601626014 53.15040650406504,48.52642276422764 52.13414634146341,49.4410569105691 51.0670731707317,50.45731707317073 50.10162601626016,51.32113821138211 49.59349593495935,51.72764227642276 49.390243902439025,51.77845528455284 49.390243902439025,51.72764227642276 49.49186991869919,51.52439024390244 49.89837398373984,51.016260162601625 50.55894308943089,50.10162601626016 51.37195121951219,49.136178861788615 52.28658536585366,48.11991869918699 53.40447154471545,46.951219512195124 54.52235772357724,45.985772357723576 55.48780487804878,45.07113821138211 56.30081300813008,44.512195121951216 56.605691056910565,44.359756097560975 56.65650406504065,44.359756097560975 56.605691056910565,44.46138211382114 56.30081300813008,44.8170731707317 55.74186991869919,45.42682926829268 54.92886178861789,46.34146341463415 54.0650406504065,47.25609756097561 53.09959349593496,48.27235772357724 51.880081300813,49.59349593495935 50.762195121951216,50.71138211382114 49.949186991869915,51.52439024390244 49.49186991869919,51.880081300813 49.4410569105691,51.829268292682926 49.4410569105691,51.72764227642276 49.69512195121951,51.422764227642276 50.203252032520325,50.8130081300813 50.86382113821138,49.949186991869915 51.67682926829268,48.983739837398375" fill="none" stroke="black" stroke-width="0.6"></polyline><polyline points="51.67682926829268,48.983739837398375 52.540650406504064,48.06910569105691 53.55691056910569,47.052845528455286 54.67479674796748,46.08739837398374 55.58943089430894,45.27439024390244 56.30081300813008,44.766260162601625 56.70731707317073,44.61382113821138 56.75813008130081,44.61382113821138 56.70731707317073,44.766260162601625 56.35162601626016,45.12195121951219 55.792682926829265,45.78252032520325 55.03048780487805,46.646341463414636 54.166666666666664,47.510162601626014 53.2520325203252,48.42479674796748 52.235772357723576,49.4410569105691 51.21951219512195,50.45731707317073 50.45731707317073,51.21951219512195 50,51.52439024390244 49.84756097560975,51.575203252032516 49.89837398373984,51.47357723577235 50.10162601626016,51.168699186991866 50.50813008130081,50.50813008130081 51.168699186991866,49.64430894308943 51.981707317073166,48.729674796747965 52.84552845528455,47.71341463414634 53.8109756097561,46.798780487804876 54.827235772357724,45.88414634146341 55.74186991869919,45.07113821138211 56.35162601626016,44.61382113821138 56.70731707317073,44.46138211382114 56.75813008130081,44.46138211382114 56.70731707317073,44.61382113821138 56.35162601626016,45.02032520325203 55.792682926829265,45.579268292682926 55.08130081300813,46.44308943089431 54.166666666666664,47.40853658536585 53.2520325203252,48.42479674796748 52.13414634146341,49.542682926829265 50.96544715447154,50.762195121951216 50.15243902439024,51.575203252032516 49.59349593495935,51.981707317073166 49.390243902439025,52.03252032520325 49.390243902439025,51.981707317073166 49.542682926829265,51.77845528455284 49.949186991869915,51.168699186991866 50.55894308943089,50.40650406504065 51.37195121951219,49.390243902439025 52.33739837398374,48.27235772357724 53.302845528455286,47.30691056910569 54.420731707317074,46.290650406504064 55.53861788617886,45.325203252032516" fill="none" stroke="black" stroke-width="0.6"></polyline><polyline points="55.53861788617886,45.325203252032516 56.25,44.766260162601625 56.70731707317073,44.46138211382114 56.91056910569105,44.41056910569105 56.91056910569105,44.46138211382114 56.65650406504065,44.71544715447154 56.199186991869915,45.22357723577235 55.53861788617886,45.9349593495935 54.72560975609756,46.798780487804876 53.760162601626014,47.764227642276424 52.74390243902439,48.78048780487805 51.67682926829268,49.89837398373984 50.609756097560975,50.91463414634146 50,51.422764227642276 49.74593495934959,51.575203252032516 49.69512195121951,51.52439024390244 49.796747967479675,51.27032520325203 50.15243902439024,50.762195121951216 50.762195121951216,49.89837398373984 51.47357723577235,49.03455284552845 52.33739837398374,48.11991869918699 53.302845528455286,47.103658536585364 54.31910569105691,46.1890243902439 55.33536585365854,45.325203252032516 56.199186991869915,44.66463414634146 56.70731707317073,44.359756097560975 56.91056910569105,44.30894308943089 56.91056910569105,44.30894308943089 56.75813008130081,44.46138211382114 56.35162601626016,44.918699186991866 55.6910569105691,45.579268292682926 54.92886178861789,46.44308943089431 54.0650406504065,47.30691056910569 53.048780487804876,48.323170731707314 52.083333333333336,49.28861788617886 51.21951219512195,50.10162601626016 50.609756097560975,50.66056910569105 50.355691056910565,50.762195121951216 50.355691056910565,50.762195121951216 50.40650406504065,50.66056910569105 50.66056910569105,50.355691056910565 51.11788617886179,49.74593495934959 51.77845528455284,48.983739837398375 52.489837398373986,48.22154471544715 53.2520325203252,47.459349593495936 54.166666666666664,46.59552845528455 55.03048780487805,45.833333333333336 55.792682926829265,45.12195121951219 56.40243902439024,44.66463414634146 56.75813008130081,44.46138211382114 56.859756097560975,44.41056910569105" fill="none" stroke="black" stroke-width="0.6"></polyline><polyline points="56.859756097560975,44.41056910569105 56.859756097560975,44.41056910569105 56.65650406504065,44.61382113821138 56.199186991869915,45.12195121951219 55.58943089430894,45.73170731707317 54.827235772357724,46.54471544715447 53.96341463414634,47.459349593495936 53.048780487804876,48.52642276422764 51.981707317073166,49.64430894308943 50.91463414634146,50.86382113821138 50.203252032520325,51.575203252032516 49.796747967479675,51.880081300813 49.64430894308943,51.93089430894309 49.69512195121951,51.829268292682926 50,51.422764227642276 50.55894308943089,50.55894308943089 51.37195121951219,49.542682926829265 52.28658536585366,48.42479674796748 53.353658536585364,47.25609756097561 54.47154471544715,46.239837398373986 55.58943089430894,45.22357723577235 56.55487804878049,44.46138211382114 57.16463414634146,44.0040650406504 57.46951219512195,43.80081300813008 57.57113821138211,43.80081300813008 57.57113821138211,43.85162601626016 57.46951219512195,44.0040650406504 57.012195121951216,44.46138211382114 56.40243902439024,45.12195121951219 55.58943089430894,45.985772357723576 54.6239837398374,47.052845528455286 53.65853658536585,47.96747967479675 52.59146341463415,49.03455284552845 51.6260162601626,49.89837398373984 50.96544715447154,50.50813008130081 50.609756097560975,50.762195121951216 50.50813008130081,50.8130081300813 50.50813008130081,50.71138211382114 50.71138211382114,50.45731707317073 51.11788617886179,49.84756097560975 51.72764227642276,49.136178861788615 52.4390243902439,48.323170731707314 53.302845528455286,47.40853658536585 54.166666666666664,46.49390243902439 55.28455284552845,45.47764227642276 56.35162601626016,44.512195121951216 57.21544715447154,43.80081300813008 57.77439024390244,43.39430894308943 58.02845528455284,43.292682926829265 58.079268292682926,43.292682926829265 57.97764227642276,43.39430894308943" fill="none" stroke="black" stroke-width="0.6"></polyline><polyline points="57.97764227642276,43.39430894308943 57.72357723577235,43.699186991869915 57.11382113821138,44.41056910569105 56.199186991869915,45.3760162601626 55.18292682926829,46.49390243902439 54.0650406504065,47.66260162601626 52.74390243902439,48.983739837398375 51.52439024390244,50.15243902439024 50.609756097560975,51.016260162601625 50,51.422764227642276 49.796747967479675,51.52439024390244 49.796747967479675,51.422764227642276 50,51.168699186991866 50.40650406504065,50.50813008130081 51.11788617886179,49.542682926829265 52.03252032520325,48.52642276422764 53.048780487804876,47.459349593495936 54.11585365853659,46.44308943089431 55.386178861788615,45.325203252032516 56.453252032520325,44.46138211382114 57.36788617886179,43.85162601626016 57.97764227642276,43.49593495934959 58.18089430894309,43.49593495934959 58.18089430894309,43.64837398373984 58.079268292682926,43.80081300813008 57.672764227642276,44.30894308943089 56.96138211382114,45.12195121951219 55.94512195121951,46.239837398373986 54.92886178861789,47.30691056910569 53.760162601626014,48.47560975609756 52.4390243902439,49.69512195121951 51.422764227642276,50.55894308943089 50.71138211382114,51.11788617886179 50.30487804878049,51.27032520325203 50.2540650406504,51.27032520325203 50.30487804878049,51.0670731707317 50.66056910569105,50.45731707317073 51.32113821138211,49.59349593495935 52.13414634146341,48.6280487804878 53.09959349593496,47.5609756097561 54.014227642276424,46.646341463414636 55.08130081300813,45.73170731707317 56.14837398373984,44.86788617886179 56.859756097560975,44.359756097560975 57.21544715447154,44.20731707317073 57.36788617886179,44.20731707317073 57.3170731707317,44.41056910569105 56.96138211382114,44.8170731707317 56.35162601626016,45.47764227642276 55.58943089430894,46.290650406504064 54.72560975609756,47.20528455284553" fill="none" stroke="black" stroke-width="0.6"></polyline><polyline points="54.72560975609756,47.20528455284553 53.65853658536585,48.27235772357724 52.540650406504064,49.33943089430894 51.422764227642276,50.40650406504065 50.55894308943089,51.21951219512195 50.10162601626016,51.575203252032516 49.949186991869915,51.6260162601626 49.949186991869915,51.575203252032516 50.10162601626016,51.27032520325203 50.55894308943089,50.66056910569105 51.21951219512195,49.74593495934959 51.981707317073166,48.88211382113821 52.84552845528455,47.96747967479675 53.8109756097561,47.0020325203252 54.77642276422764,46.13821138211382 55.74186991869919,45.325203252032516 56.453252032520325,44.766260162601625 56.859756097560975,44.5630081300813 56.96138211382114,44.5630081300813 56.91056910569105,44.66463414634146 56.5040650406504,45.12195121951219 55.89430894308943,45.88414634146341 55.03048780487805,46.84959349593496 54.0650406504065,47.8150406504065 52.9979674796748,48.93292682926829 51.72764227642276,50.203252032520325 50.609756097560975,51.32113821138211 49.84756097560975,52.03252032520325 49.390243902439025,52.28658536585366 49.33943089430894,52.235772357723576 49.33943089430894,52.13414634146341 49.59349593495935,51.77845528455284 50.10162601626016,51.0670731707317 50.762195121951216,50.15243902439024 51.6260162601626,49.08536585365854 52.489837398373986,48.11991869918699 53.607723577235774,47.052845528455286 54.573170731707314,46.290650406504064 55.386178861788615,45.63008130081301 55.94512195121951,45.22357723577235 56.14837398373984,45.172764227642276 56.14837398373984,45.22357723577235 55.99593495934959,45.42682926829268 55.640243902439025,45.88414634146341 55.08130081300813,46.49390243902439 54.36991869918699,47.25609756097561 53.607723577235774,47.96747967479675 52.74390243902439,48.83130081300813 51.72764227642276,49.796747967479675 50.91463414634146,50.66056910569105 50.2540650406504,51.21951219512195" fill="none" stroke="black" stroke-width="0.6"></polyline><polyline points="50.2540650406504,51.21951219512195 49.89837398373984,51.52439024390244 49.89837398373984,51.47357723577235 49.949186991869915,51.37195121951219 50.203252032520325,51.016260162601625 50.71138211382114,50.30487804878049 51.47357723577235,49.33943089430894 52.38821138211382,48.27235772357724 53.353658536585364,47.30691056910569 54.47154471544715,46.290650406504064 55.640243902439025,45.22357723577235 56.453252032520325,44.5630081300813 57.0630081300813,44.15650406504065 57.418699186991866,44.0040650406504 57.418699186991866,44.0040650406504 57.3170731707317,44.20731707317073 56.96138211382114,44.71544715447154 56.35162601626016,45.42682926829268 55.48780487804878,46.392276422764226 54.52235772357724,47.459349593495936 53.50609756097561,48.47560975609756 52.28658536585366,49.64430894308943 51.168699186991866,50.762195121951216 50.355691056910565,51.47357723577235 49.89837398373984,51.72764227642276 49.796747967479675,51.77845528455284 49.84756097560975,51.67682926829268 50.10162601626016,51.27032520325203 50.66056910569105,50.45731707317073 51.47357723577235,49.390243902439025 52.38821138211382,48.3739837398374 53.45528455284553,47.25609756097561 54.573170731707314,46.290650406504064 55.6910569105691,45.325203252032516 56.75813008130081,44.512195121951216 57.418699186991866,44.105691056910565 57.77439024390244,43.953252032520325 57.825203252032516,44.0040650406504 57.72357723577235,44.105691056910565 57.36788617886179,44.5630081300813 56.65650406504065,45.27439024390244 55.74186991869919,46.290650406504064 54.72560975609756,47.30691056910569 53.55691056910569,48.47560975609756 52.33739837398374,49.59349593495935 51.21951219512195,50.71138211382114 50.30487804878049,51.575203252032516 49.796747967479675,51.880081300813 49.64430894308943,51.93089430894309 49.64430894308943,51.93089430894309 49.796747967479675,51.67682926829268" fill="none" stroke="black" stroke-width="0.6"></polyline><polyline points="49.796747967479675,51.67682926829268 50.2540650406504,51.016260162601625 50.96544715447154,49.949186991869915 51.880081300813,48.88211382113821 52.896341463414636,47.71341463414634 53.91260162601626,46.7479674796748 54.979674796747965,45.833333333333336 55.99593495934959,45.02032520325203 56.65650406504065,44.5630081300813 57.012195121951216,44.41056910569105 57.11382113821138,44.359756097560975 57.0630081300813,44.5630081300813 56.70731707317073,44.96951219512195 56.09756097560975,45.63008130081301 55.33536585365854,46.49390243902439 54.47154471544715,47.357723577235774 53.40447154471545,48.47560975609756 52.28658536585366,49.59349593495935 51.168699186991866,50.71138211382114 50.203252032520325,51.67682926829268 49.69512195121951,52.03252032520325 49.49186991869919,52.13414634146341 49.4410569105691,52.083333333333336 49.542682926829265,51.880081300813 50,51.27032520325203 50.66056910569105,50.30487804878049 51.52439024390244,49.23780487804878 52.489837398373986,48.06910569105691 53.709349593495936,46.84959349593496 54.8780487804878,45.78252032520325 55.99593495934959,44.86788617886179 56.91056910569105,44.20731707317073 57.36788617886179,43.90243902439024 57.52032520325203,43.90243902439024 57.52032520325203,43.953252032520325 57.3170731707317,44.25813008130081 56.75813008130081,44.918699186991866 55.89430894308943,45.88414634146341 54.92886178861789,46.84959349593496 53.86178861788618,47.916666666666664 52.642276422764226,49.136178861788615 51.37195121951219,50.2540650406504 50.355691056910565,51.21951219512195 49.69512195121951,51.72764227642276 49.390243902439025,51.829268292682926 49.33943089430894,51.829268292682926 49.33943089430894,51.72764227642276 49.542682926829265,51.47357723577235 50,50.86382113821138 50.66056910569105,50 51.422764227642276,49.08536585365854" fill="none" stroke="black" stroke-width="0.6"></polyline><polyline points="51.422764227642276,49.08536585365854 52.28658536585366,48.170731707317074 53.2520325203252,47.20528455284553 54.26829268292683,46.392276422764226 55.08130081300813,45.68089430894309 55.6910569105691,45.22357723577235 55.99593495934959,45.07113821138211 56.046747967479675,45.07113821138211 55.99593495934959,45.12195121951219 55.640243902439025,45.52845528455285 55.03048780487805,46.290650406504064 54.21747967479675,47.15447154471545 53.302845528455286,48.11991869918699 52.28658536585366,49.28861788617886 50.96544715447154,50.71138211382114 49.796747967479675,51.93089430894309 48.88211382113821,52.896341463414636 48.27235772357724,53.40447154471545 48.06910569105691,53.45528455284553 48.06910569105691,53.45528455284553 48.170731707317074,53.201219512195124 48.67886178861789,52.4390243902439 49.49186991869919,51.32113821138211 50.55894308943089,50 51.67682926829268,48.729674796747965 53.15040650406504,47.20528455284553 54.573170731707314,46.03658536585366 55.74186991869919,45.07113821138211 56.605691056910565,44.512195121951216 57.012195121951216,44.30894308943089 57.11382113821138,44.30894308943089 57.11382113821138,44.46138211382114 56.75813008130081,44.8170731707317 56.14837398373984,45.47764227642276 55.18292682926829,46.44308943089431 54.21747967479675,47.357723577235774 53.15040650406504,48.42479674796748 51.880081300813,49.69512195121951 50.762195121951216,50.71138211382114 49.949186991869915,51.422764227642276 49.49186991869919,51.77845528455284 49.33943089430894,51.77845528455284 49.33943089430894,51.72764227642276 49.390243902439025,51.67682926829268 49.59349593495935,51.47357723577235 50.10162601626016,50.91463414634146 50.762195121951216,50.05081300813008 51.575203252032516,49.136178861788615 52.489837398373986,48.170731707317074 53.65853658536585,47.0020325203252 54.77642276422764,45.985772357723576" fill="none" stroke="black" stroke-width="0.6"></polyline><polyline points="54.77642276422764,45.985772357723576 55.89430894308943,44.96951219512195 56.80894308943089,44.20731707317073 57.3170731707317,43.75 57.57113821138211,43.59756097560975 57.62195121951219,43.59756097560975 57.57113821138211,43.64837398373984 57.266260162601625,44.05487804878049 56.605691056910565,44.86788617886179 55.6910569105691,45.9349593495935 54.72560975609756,47.052845528455286 53.607723577235774,48.27235772357724 52.489837398373986,49.390243902439025 51.422764227642276,50.355691056910565 50.66056910569105,51.0670731707317 50.30487804878049,51.27032520325203 50.2540650406504,51.27032520325203 50.2540650406504,51.168699186991866 50.55894308943089,50.762195121951216 51.168699186991866,49.949186991869915 51.981707317073166,49.03455284552845 52.84552845528455,48.06910569105691 53.8109756097561,47.103658536585364 54.92886178861789,46.03658536585366 55.99593495934959,45.12195121951219 56.859756097560975,44.46138211382114 57.418699186991866,44.105691056910565 57.672764227642276,44.05487804878049 57.672764227642276,44.05487804878049 57.57113821138211,44.25813008130081 57.11382113821138,44.766260162601625 56.35162601626016,45.579268292682926 55.4369918699187,46.59552845528455 54.47154471544715,47.5609756097561 53.302845528455286,48.729674796747965 52.03252032520325,49.89837398373984 50.96544715447154,50.91463414634146 50.203252032520325,51.575203252032516 49.84756097560975,51.72764227642276 49.84756097560975,51.67682926829268 49.89837398373984,51.575203252032516 50.203252032520325,51.0670731707317 50.91463414634146,50.10162601626016 51.829268292682926,48.93292682926829 52.79471544715447,47.916666666666664 53.86178861788618,46.84959349593496 55.13211382113821,45.833333333333336 56.199186991869915,45.02032520325203 57.012195121951216,44.512195121951216 57.52032520325203,44.20731707317073 57.672764227642276,44.20731707317073" fill="none" stroke="black" stroke-width="0.6"></polyline><polyline points="57.672764227642276,44.20731707317073 57.672764227642276,44.359756097560975 57.36788617886179,44.71544715447154 56.80894308943089,45.325203252032516 56.046747967479675,46.13821138211382 55.03048780487805,47.15447154471545 54.014227642276424,48.11991869918699 52.84552845528455,49.23780487804878 51.575203252032516,50.40650406504065 50.609756097560975,51.27032520325203 49.949186991869915,51.72764227642276 49.59349593495935,51.93089430894309 49.59349593495935,51.93089430894309 49.59349593495935,51.829268292682926 49.796747967479675,51.575203252032516 50.30487804878049,50.86382113821138 51.0670731707317,49.84756097560975 52.083333333333336,48.729674796747965 52.9979674796748,47.71341463414634 54.166666666666664,46.697154471544714 55.386178861788615,45.68089430894309 56.30081300813008,44.96951219512195 56.96138211382114,44.5630081300813 57.3170731707317,44.359756097560975 57.36788617886179,44.359756097560975 57.266260162601625,44.5630081300813 56.859756097560975,45.02032520325203 56.14837398373984,45.78252032520325 55.233739837398375,46.7479674796748 54.166666666666664,47.86585365853659 53.048780487804876,49.03455284552845 51.67682926829268,50.40650406504065 50.355691056910565,51.72764227642276 49.390243902439025,52.59146341463415 48.78048780487805,53.048780487804876 48.577235772357724,53.09959349593496 48.577235772357724,52.947154471544714 48.729674796747965,52.540650406504064 49.28861788617886,51.72764227642276 50.10162601626016,50.71138211382114 51.21951219512195,49.4410569105691 52.489837398373986,48.11991869918699 53.86178861788618,46.84959349593496 55.18292682926829,45.78252032520325 56.30081300813008,45.02032520325203 56.96138211382114,44.61382113821138 57.3170731707317,44.512195121951216 57.36788617886179,44.512195121951216 57.3170731707317,44.66463414634146 56.91056910569105,45.02032520325203 56.30081300813008,45.63008130081301" fill="none" stroke="black" stroke-width="0.6"></polyline><polyline points="56.30081300813008,45.63008130081301 55.48780487804878,46.392276422764226 54.573170731707314,47.25609756097561 53.55691056910569,48.170731707317074 52.540650406504064,49.136178861788615 51.52439024390244,50 50.762195121951216,50.71138211382114 50.30487804878049,51.0670731707317 50.203252032520325,51.11788617886179 50.203252032520325,51.0670731707317 50.355691056910565,50.86382113821138 50.762195121951216,50.30487804878049 51.47357723577235,49.4410569105691 52.38821138211382,48.42479674796748 53.40447154471545,47.30691056910569 54.52235772357724,46.34146341463415 55.640243902439025,45.27439024390244 56.70731707317073,44.41056910569105 57.36788617886179,43.90243902439024 57.77439024390244,43.59756097560975 57.825203252032516,43.59756097560975 57.825203252032516,43.64837398373984 57.672764227642276,43.80081300813008 57.16463414634146,44.41056910569105 56.30081300813008,45.325203252032516 55.233739837398375,46.54471544715447 54.0650406504065,47.8150406504065 52.79471544715447,49.08536585365854 51.52439024390244,50.355691056910565 50.355691056910565,51.422764227642276 49.796747967479675,51.829268292682926 49.542682926829265,51.93089430894309 49.49186991869919,51.93089430894309 49.59349593495935,51.77845528455284 50,51.21951219512195 50.762195121951216,50.203252032520325 51.72764227642276,49.08536585365854 52.79471544715447,47.916666666666664 54.11585365853659,46.697154471544714 55.386178861788615,45.68089430894309 56.55487804878049,44.8170731707317 57.52032520325203,44.20731707317073 58.02845528455284,44.0040650406504 58.18089430894309,44.0040650406504 58.18089430894309,44.05487804878049 58.130081300813,44.15650406504065 57.72357723577235,44.61382113821138 56.91056910569105,45.3760162601626 55.94512195121951,46.392276422764226 54.8780487804878,47.40853658536585 53.65853658536585,48.577235772357724" fill="none" stroke="black" stroke-width="0.6"></polyline><polyline points="53.65853658536585,48.577235772357724 52.4390243902439,49.64430894308943 51.47357723577235,50.45731707317073 50.8130081300813,50.96544715447154 50.55894308943089,51.0670731707317 50.50813008130081,51.016260162601625 50.55894308943089,50.91463414634146 50.91463414634146,50.355691056910565 51.575203252032516,49.49186991869919 52.4390243902439,48.52642276422764 53.353658536585364,47.510162601626014 54.420731707317074,46.54471544715447 55.58943089430894,45.47764227642276 56.65650406504065,44.71544715447154 57.36788617886179,44.20731707317073 57.77439024390244,44.0040650406504 57.8760162601626,44.0040650406504 57.825203252032516,44.105691056910565 57.46951219512195,44.512195121951216 56.859756097560975,45.172764227642276 55.99593495934959,46.08739837398374 54.979674796747965,47.103658536585364 53.96341463414634,48.11991869918699 52.74390243902439,49.28861788617886 51.575203252032516,50.40650406504065 50.66056910569105,51.32113821138211 50.10162601626016,51.829268292682926 49.796747967479675,51.981707317073166 49.796747967479675,51.981707317073166 49.796747967479675,51.93089430894309 50.10162601626016,51.52439024390244 50.71138211382114,50.762195121951216 51.575203252032516,49.64430894308943 52.489837398373986,48.6280487804878 53.45528455284553,47.5609756097561 54.67479674796748,46.44308943089431 55.74186991869919,45.579268292682926 56.55487804878049,44.918699186991866 57.11382113821138,44.5630081300813 57.3170731707317,44.512195121951216 57.3170731707317,44.5630081300813 57.21544715447154,44.71544715447154 56.859756097560975,45.07113821138211 56.25,45.78252032520325 55.4369918699187,46.646341463414636 54.6239837398374,47.459349593495936 53.709349593495936,48.3739837398374 52.59146341463415,49.49186991869919 51.67682926829268,50.45731707317073 50.86382113821138,51.21951219512195 50.355691056910565,51.6260162601626" fill="none" stroke="black" stroke-width="0.6"></polyline><polyline points="50.355691056910565,51.6260162601626 50.203252032520325,51.67682926829268 50.203252032520325,51.6260162601626 50.30487804878049,51.37195121951219 50.71138211382114,50.762195121951216 51.47357723577235,49.796747967479675 52.38821138211382,48.67886178861789 53.302845528455286,47.66260162601626 54.36991869918699,46.646341463414636 55.53861788617886,45.579268292682926 56.453252032520325,44.86788617886179 57.11382113821138,44.359756097560975 57.57113821138211,44.05487804878049 57.72357723577235,44.05487804878049 57.72357723577235,44.105691056910565 57.46951219512195,44.359756097560975 56.96138211382114,44.918699186991866 56.199186991869915,45.73170731707317 55.33536585365854,46.646341463414636 54.420731707317074,47.510162601626014 53.40447154471545,48.52642276422764 52.33739837398374,49.542682926829265 51.47357723577235,50.30487804878049 50.86382113821138,50.8130081300813 50.55894308943089,50.96544715447154 50.55894308943089,50.91463414634146 50.55894308943089,50.8130081300813 50.8130081300813,50.45731707317073 51.32113821138211,49.69512195121951 52.03252032520325,48.83130081300813 52.84552845528455,47.86585365853659 53.760162601626014,47.0020325203252 54.77642276422764,46.03658536585366 55.84349593495935,45.12195121951219 56.65650406504065,44.512195121951216 57.16463414634146,44.15650406504065 57.418699186991866,44.05487804878049 57.418699186991866,44.05487804878049 57.3170731707317,44.20731707317073 56.859756097560975,44.71544715447154 56.14837398373984,45.52845528455285 55.18292682926829,46.59552845528455 54.166666666666664,47.66260162601626 52.9979674796748,48.88211382113821 51.72764227642276,50.2540650406504 50.55894308943089,51.422764227642276 49.796747967479675,52.13414634146341 49.33943089430894,52.4390243902439 49.23780487804878,52.4390243902439 49.23780487804878,52.33739837398374 49.542682926829265,51.880081300813" fill="none" stroke="black" stroke-width="0.6"></polyline><polyline points="49.542682926829265,51.880081300813 50.10162601626016,51.0670731707317 50.96544715447154,49.89837398373984 52.083333333333336,48.577235772357724 53.15040650406504,47.40853658536585 54.31910569105691,46.392276422764226 55.48780487804878,45.47764227642276 56.199186991869915,44.96951219512195 56.70731707317073,44.71544715447154 56.96138211382114,44.66463414634146 56.96138211382114,44.71544715447154 56.75813008130081,44.96951219512195 56.25,45.47764227642276 55.53861788617886,46.1890243902439 54.72560975609756,47.0020325203252 53.709349593495936,47.96747967479675 52.74390243902439,48.88211382113821 51.67682926829268,49.949186991869915 50.609756097560975,50.96544715447154 50,51.575203252032516 49.64430894308943,51.72764227642276 49.542682926829265,51.72764227642276 49.59349593495935,51.67682926829268 49.796747967479675,51.37195121951219 50.30487804878049,50.609756097560975 51.0670731707317,49.64430894308943 51.981707317073166,48.52642276422764 53.09959349593496,47.357723577235774 54.31910569105691,46.290650406504064 55.48780487804878,45.27439024390244 56.5040650406504,44.512195121951216 57.0630081300813,44.15650406504065 57.36788617886179,44.05487804878049 57.418699186991866,44.05487804878049 57.418699186991866,44.105691056910565 57.11382113821138,44.46138211382114 56.5040650406504,45.12195121951219 55.640243902439025,45.985772357723576 54.67479674796748,46.951219512195124 53.607723577235774,48.01829268292683 52.4390243902439,49.136178861788615 51.21951219512195,50.30487804878049 50.2540650406504,51.27032520325203 49.64430894308943,51.67682926829268 49.33943089430894,51.77845528455284 49.28861788617886,51.77845528455284 49.33943089430894,51.72764227642276 49.59349593495935,51.37195121951219 50.15243902439024,50.609756097560975 50.96544715447154,49.59349593495935 51.93089430894309,48.52642276422764" fill="none" stroke="black" stroke-width="0.6"></polyline><polyline points="51.93089430894309,48.52642276422764 52.9979674796748,47.357723577235774 54.166666666666664,46.290650406504064 55.386178861788615,45.27439024390244 56.35162601626016,44.5630081300813 57.012195121951216,44.105691056910565 57.36788617886179,43.953252032520325 57.46951219512195,43.90243902439024 57.36788617886179,44.105691056910565 57.012195121951216,44.5630081300813 56.35162601626016,45.27439024390244 55.4369918699187,46.239837398373986 54.420731707317074,47.25609756097561 53.2520325203252,48.42479674796748 52.083333333333336,49.64430894308943 50.91463414634146,50.8130081300813 50,51.6260162601626 49.542682926829265,51.880081300813 49.4410569105691,51.880081300813 49.4410569105691,51.72764227642276 49.69512195121951,51.37195121951219 50.203252032520325,50.55894308943089 50.96544715447154,49.542682926829265 51.829268292682926,48.52642276422764 52.84552845528455,47.357723577235774 53.86178861788618,46.49390243902439 54.827235772357724,45.73170731707317 55.640243902439025,45.02032520325203 56.199186991869915,44.66463414634146 56.55487804878049,44.46138211382114 56.70731707317073,44.41056910569105 56.70731707317073,44.41056910569105 56.65650406504065,44.46138211382114 56.453252032520325,44.66463414634146 56.046747967479675,44.96951219512195 55.48780487804878,45.52845528455285 54.827235772357724,46.239837398373986 54.166666666666664,46.90040650406504 53.50609756097561,47.61178861788618 52.69308943089431,48.42479674796748 52.083333333333336,49.08536585365854 51.6260162601626,49.4410569105691 51.47357723577235,49.49186991869919 51.47357723577235,49.4410569105691 51.67682926829268,49.1869918699187 52.03252032520325,48.67886178861789 52.540650406504064,47.96747967479675 53.201219512195124,47.20528455284553 53.96341463414634,46.392276422764226 54.827235772357724,45.579268292682926 55.74186991869919,44.71544715447154" fill="none" stroke="black" stroke-width="0.6"></polyline><polyline points="55.74186991869919,44.71544715447154 56.605691056910565,44.0040650406504 57.11382113821138,43.59756097560975 57.3170731707317,43.44512195121951 57.36788617886179,43.44512195121951 57.3170731707317,43.49593495934959 57.11382113821138,43.80081300813008 56.605691056910565,44.41056910569105 55.792682926829265,45.325203252032516 54.827235772357724,46.392276422764226 53.760162601626014,47.5609756097561 52.540650406504064,48.83130081300813 51.32113821138211,50 50.355691056910565,51.016260162601625 49.796747967479675,51.47357723577235 49.59349593495935,51.52439024390244 49.542682926829265,51.52439024390244 49.69512195121951,51.32113821138211 50.15243902439024,50.762195121951216 50.86382113821138,49.796747967479675 51.77845528455284,48.78048780487805 52.84552845528455,47.61178861788618 54.11585365853659,46.44308943089431 55.4369918699187,45.325203252032516 56.70731707317073,44.359756097560975 57.77439024390244,43.546747967479675 58.43495934959349,43.140243902439025 58.790650406504064,43.03861788617886 58.84146341463415,43.03861788617886 58.739837398373986,43.140243902439025 58.33333333333333,43.59756097560975 57.52032520325203,44.46138211382114 56.40243902439024,45.63008130081301 55.13211382113821,46.951219512195124 53.607723577235774,48.42479674796748 52.083333333333336,49.84756097560975 50.609756097560975,51.168699186991866 49.64430894308943,51.880081300813 49.08536585365854,52.1849593495935 48.88211382113821,52.1849593495935 48.88211382113821,52.03252032520325 49.136178861788615,51.575203252032516 49.74593495934959,50.8130081300813 50.55894308943089,49.74593495934959 51.6260162601626,48.577235772357724 52.896341463414636,47.20528455284553 54.26829268292683,46.03658536585366 55.6910569105691,44.918699186991866 56.96138211382114,44.05487804878049 57.72357723577235,43.59756097560975 58.18089430894309,43.44512195121951" fill="none" stroke="black" stroke-width="0.6"></polyline><polyline points="58.18089430894309,43.44512195121951 58.28252032520325,43.44512195121951 58.28252032520325,43.59756097560975 57.97764227642276,43.953252032520325 57.3170731707317,44.66463414634146 56.40243902439024,45.579268292682926 55.28455284552845,46.7479674796748 53.96341463414634,47.96747967479675 52.69308943089431,49.136178861788615 51.422764227642276,50.203252032520325 50.40650406504065,51.0670731707317 49.89837398373984,51.37195121951219 49.64430894308943,51.422764227642276 49.59349593495935,51.37195121951219 49.59349593495935,51.27032520325203 49.949186991869915,50.8130081300813 50.609756097560975,49.949186991869915 51.47357723577235,48.93292682926829 52.489837398373986,47.8150406504065 53.760162601626014,46.59552845528455 55.03048780487805,45.52845528455285 56.199186991869915,44.66463414634146 57.0630081300813,44.105691056910565 57.52032520325203,43.85162601626016 57.72357723577235,43.80081300813008 57.77439024390244,43.90243902439024 57.52032520325203,44.20731707317073 56.96138211382114,44.918699186991866 56.09756097560975,45.833333333333336 55.08130081300813,46.90040650406504 54.014227642276424,48.01829268292683 52.74390243902439,49.28861788617886 51.575203252032516,50.45731707317073 50.55894308943089,51.32113821138211 50,51.72764227642276 49.796747967479675,51.77845528455284 49.796747967479675,51.72764227642276 49.89837398373984,51.52439024390244 50.355691056910565,50.86382113821138 51.168699186991866,49.84756097560975 52.13414634146341,48.729674796747965 53.15040650406504,47.61178861788618 54.36991869918699,46.54471544715447 55.6910569105691,45.47764227642276 56.75813008130081,44.71544715447154 57.52032520325203,44.20731707317073 57.92682926829268,44.05487804878049 58.02845528455284,44.05487804878049 58.02845528455284,44.15650406504065 57.77439024390244,44.41056910569105 57.16463414634146,45.07113821138211" fill="none" stroke="black" stroke-width="0.6"></polyline><polyline points="57.16463414634146,45.07113821138211 56.35162601626016,45.985772357723576 55.28455284552845,47.052845528455286 54.21747967479675,48.11991869918699 52.947154471544714,49.28861788617886 51.77845528455284,50.355691056910565 50.96544715447154,51.0670731707317 50.45731707317073,51.37195121951219 50.355691056910565,51.37195121951219 50.40650406504065,51.21951219512195 50.66056910569105,50.762195121951216 51.21951219512195,50 52.083333333333336,48.983739837398375 53.048780487804876,47.916666666666664 54.014227642276424,46.951219512195124 55.08130081300813,46.03658536585366 56.14837398373984,45.22357723577235 56.80894308943089,44.766260162601625 57.21544715447154,44.5630081300813 57.36788617886179,44.5630081300813 57.3170731707317,44.66463414634146 57.012195121951216,45.02032520325203 56.40243902439024,45.68089430894309 55.640243902439025,46.49390243902439 54.72560975609756,47.357723577235774 53.65853658536585,48.42479674796748 52.540650406504064,49.49186991869919 51.37195121951219,50.66056910569105 50.355691056910565,51.6260162601626 49.84756097560975,51.981707317073166 49.64430894308943,52.083333333333336 49.64430894308943,52.03252032520325 49.74593495934959,51.829268292682926 50.203252032520325,51.21951219512195 50.91463414634146,50.2540650406504 51.77845528455284,49.23780487804878 52.79471544715447,48.11991869918699 54.0650406504065,46.951219512195124 55.386178861788615,45.88414634146341 56.55487804878049,44.918699186991866 57.46951219512195,44.30894308943089 57.92682926829268,44.105691056910565 58.02845528455284,44.105691056910565 58.02845528455284,44.15650406504065 57.92682926829268,44.30894308943089 57.46951219512195,44.766260162601625 56.70731707317073,45.579268292682926 55.792682926829265,46.54471544715447 54.77642276422764,47.5609756097561 53.607723577235774,48.67886178861789 52.4390243902439,49.69512195121951" fill="none" stroke="black" stroke-width="0.6"></polyline><polyline points="52.4390243902439,49.69512195121951 51.47357723577235,50.50813008130081 50.8130081300813,51.016260162601625 50.50813008130081,51.168699186991866 50.45731707317073,51.168699186991866 50.50813008130081,51.0670731707317 50.762195121951216,50.71138211382114 51.32113821138211,49.949186991869915 52.1849593495935,48.983739837398375 53.09959349593496,48.01829268292683 54.11585365853659,47.0020325203252 55.386178861788615,45.88414634146341 56.605691056910565,44.86788617886179 57.672764227642276,44.0040650406504 58.485772357723576,43.44512195121951 58.892276422764226,43.140243902439025 59.04471544715447,43.140243902439025 59.04471544715447,43.140243902439025 58.892276422764226,43.292682926829265 58.33333333333333,43.90243902439024 57.418699186991866,44.86788617886179 56.25,46.08739837398374 54.92886178861789,47.459349593495936 53.302845528455286,49.136178861788615 51.72764227642276,50.71138211382114 50.355691056910565,51.93089430894309 49.542682926829265,52.540650406504064 49.136178861788615,52.74390243902439 48.983739837398375,52.74390243902439 49.03455284552845,52.59146341463415 49.33943089430894,52.13414634146341 50,51.21951219512195 50.91463414634146,50.10162601626016 52.083333333333336,48.78048780487805 53.45528455284553,47.40853658536585 54.827235772357724,46.239837398373986 56.14837398373984,45.27439024390244 57.21544715447154,44.5630081300813 57.77439024390244,44.25813008130081 58.079268292682926,44.20731707317073 58.130081300813,44.20731707317073 58.130081300813,44.25813008130081 57.92682926829268,44.46138211382114 57.3170731707317,45.07113821138211 56.5040650406504,45.985772357723576 55.48780487804878,47.0020325203252 54.36991869918699,48.170731707317074 53.302845528455286,49.1869918699187 52.235772357723576,50.15243902439024 51.422764227642276,50.91463414634146 50.96544715447154,51.21951219512195" fill="none" stroke="black" stroke-width="0.6"></polyline><polyline points="50.96544715447154,51.21951219512195 50.762195121951216,51.27032520325203 50.762195121951216,51.21951219512195 50.86382113821138,51.0670731707317 51.32113821138211,50.45731707317073 52.1849593495935,49.390243902439025 53.09959349593496,48.323170731707314 54.21747967479675,47.15447154471545 55.6910569105691,45.833333333333336 57.11382113821138,44.61382113821138 58.33333333333333,43.64837398373984 59.197154471544714,43.08943089430894 59.603658536585364,42.886178861788615 59.75609756097561,42.886178861788615 59.80691056910569,42.886178861788615 59.603658536585364,43.140243902439025 59.146341463414636,43.699186991869915 58.28252032520325,44.61382113821138 57.266260162601625,45.68089430894309 56.046747967479675,46.90040650406504 54.67479674796748,48.27235772357724 53.302845528455286,49.49186991869919 52.1849593495935,50.50813008130081 51.422764227642276,51.0670731707317 51.0670731707317,51.168699186991866 50.96544715447154,51.168699186991866 50.96544715447154,51.11788617886179 51.21951219512195,50.762195121951216 51.77845528455284,49.89837398373984 52.59146341463415,48.93292682926829 53.50609756097561,47.916666666666664 54.573170731707314,46.90040650406504 55.74186991869919,45.833333333333336 56.859756097560975,44.96951219512195 57.72357723577235,44.41056910569105 58.231707317073166,44.15650406504065 58.33333333333333,44.15650406504065 58.33333333333333,44.25813008130081 58.18089430894309,44.41056910569105 57.77439024390244,44.86788617886179 56.91056910569105,45.833333333333336 55.84349593495935,46.951219512195124 54.72560975609756,48.11991869918699 53.302845528455286,49.49186991869919 52.03252032520325,50.71138211382114 51.016260162601625,51.575203252032516 50.355691056910565,51.981707317073166 50.10162601626016,52.03252032520325 50.10162601626016,51.981707317073166 50.15243902439024,51.77845528455284 50.55894308943089,51.168699186991866" fill="none" stroke="black" stroke-width="0.6"></polyline><polyline points="50.55894308943089,51.168699186991866 51.32113821138211,50.15243902439024 52.33739837398374,48.93292682926829 53.40447154471545,47.8150406504065 54.573170731707314,46.7479674796748 55.89430894308943,45.68089430894309 56.80894308943089,44.96951219512195 57.46951219512195,44.61382113821138 57.77439024390244,44.512195121951216 57.77439024390244,44.5630081300813 57.72357723577235,44.66463414634146 57.36788617886179,45.02032520325203 56.75813008130081,45.63008130081301 55.94512195121951,46.49390243902439 54.92886178861789,47.40853658536585 54.014227642276424,48.323170731707314 52.947154471544714,49.28861788617886 52.03252032520325,50.10162601626016 51.52439024390244,50.50813008130081 51.32113821138211,50.609756097560975 51.32113821138211,50.55894308943089 51.47357723577235,50.30487804878049 51.93089430894309,49.69512195121951 52.59146341463415,48.93292682926829 53.353658536585364,48.11991869918699 54.21747967479675,47.25609756097561 55.28455284552845,46.239837398373986 56.30081300813008,45.3760162601626 57.16463414634146,44.71544715447154 57.77439024390244,44.30894308943089 57.92682926829268,44.25813008130081 57.92682926829268,44.30894308943089 57.825203252032516,44.46138211382114 57.418699186991866,44.86788617886179 56.70731707317073,45.63008130081301 55.792682926829265,46.59552845528455 54.827235772357724,47.5609756097561 53.607723577235774,48.78048780487805 52.28658536585366,50.10162601626016 51.21951219512195,51.168699186991866 50.40650406504065,51.829268292682926 50,52.13414634146341 49.949186991869915,52.13414634146341 49.949186991869915,52.03252032520325 50.203252032520325,51.67682926829268 50.8130081300813,50.86382113821138 51.72764227642276,49.74593495934959 52.74390243902439,48.577235772357724 53.8109756097561,47.459349593495936 55.03048780487805,46.392276422764226 56.199186991869915,45.3760162601626" fill="none" stroke="black" stroke-width="0.6"></polyline><polyline points="56.199186991869915,45.3760162601626 57.012195121951216,44.8170731707317 57.52032520325203,44.5630081300813 57.72357723577235,44.512195121951216 57.72357723577235,44.61382113821138 57.46951219512195,44.918699186991866 56.91056910569105,45.47764227642276 56.199186991869915,46.290650406504064 55.28455284552845,47.15447154471545 54.26829268292683,48.170731707317074 53.15040650406504,49.1869918699187 52.03252032520325,50.2540650406504 51.0670731707317,51.11788617886179 50.50813008130081,51.52439024390244 50.2540650406504,51.6260162601626 50.2540650406504,51.6260162601626 50.355691056910565,51.422764227642276 50.71138211382114,50.91463414634146 51.37195121951219,50.05081300813008 52.235772357723576,49.136178861788615 53.201219512195124,48.06910569105691 54.166666666666664,47.15447154471545 55.233739837398375,46.239837398373986 56.25,45.42682926829268 56.859756097560975,45.02032520325203 57.21544715447154,44.86788617886179 57.266260162601625,44.86788617886179 57.11382113821138,45.12195121951219 56.65650406504065,45.68089430894309 55.94512195121951,46.49390243902439 55.03048780487805,47.40853658536585 54.0650406504065,48.42479674796748 52.74390243902439,49.64430894308943 51.52439024390244,50.8130081300813 50.40650406504065,51.77845528455284 49.64430894308943,52.33739837398374 49.4410569105691,52.38821138211382 49.4410569105691,52.33739837398374 49.49186991869919,52.13414634146341 50,51.47357723577235 50.8130081300813,50.355691056910565 52.03252032520325,49.03455284552845 53.2520325203252,47.764227642276424 54.8780487804878,46.392276422764226 56.80894308943089,45.02032520325203 58.43495934959349,44.105691056910565" fill="none" stroke="black" stroke-width="0.6"></polyline></svg>