<svg height="100" width="100" preserveAspectRatio="xMidYMid meet"><polyline points="50.8130081300813,50.203252032520325 50.96544715447154,50.355691056910565" fill="none" stroke="black" stroke-width="0.6"></polyline><polyline points="50.762195121951216,50.2540650406504 50.91463414634146,50.40650406504065" fill="none" stroke="black" stroke-width="0.6"></polyline><polyline points="50.2540650406504,48.983739837398375 50.609756097560975,48.93292682926829 50.8130081300813,48.93292682926829 51.016260162601625,48.88211382113821 51.21951219512195,48.78048780487805 51.47357723577235,48.729674796747965 51.67682926829268,48.67886178861789 51.981707317073166,48.577235772357724 52.1849593495935,48.47560975609756 52.4390243902439,48.3739837398374 52.69308943089431,48.22154471544715 52.84552845528455,48.06910569105691 53.048780487804876,47.916666666666664 53.2520325203252,47.71341463414634 53.353658536585364,47.459349593495936 53.55691056910569,47.20528455284553 53.65853658536585,46.951219512195124 53.760162601626014,46.697154471544714 53.86178861788618,46.49390243902439 54.014227642276424,46.239837398373986 54.0650406504065,46.08739837398374 54.21747967479675,45.9349593495935 54.31910569105691,45.73170731707317 54.36991869918699,45.52845528455285 54.47154471544715,45.27439024390244 54.52235772357724,45.07113821138211 54.573170731707314,44.86788617886179 54.573170731707314,44.61382113821138 54.573170731707314,44.46138211382114 54.573170731707314,44.30894308943089 54.573170731707314,44.20731707317073 54.573170731707314,44.105691056910565 54.573170731707314,44.05487804878049 54.573170731707314,44.0040650406504 54.52235772357724,43.953252032520325 54.47154471544715,43.90243902439024 54.420731707317074,43.85162601626016 54.36991869918699,43.80081300813008 54.31910569105691,43.75 54.31910569105691,43.699186991869915 54.26829268292683,43.59756097560975 54.21747967479675,43.546747967479675 54.166666666666664,43.546747967479675 54.11585365853659,43.49593495934959 54.0650406504065,43.39430894308943 54.014227642276424,43.292682926829265 53.91260162601626,43.1910569105691 53.8109756097561,43.08943089430894 53.65853658536585,42.98780487804878 53.55691056910569,42.83536585365854 53.353658536585364,42.733739837398375" fill="none" stroke="black" stroke-width="0.6"></polyline><polyline points="53.353658536585364,42.733739837398375 53.15040650406504,42.58130081300813 52.896341463414636,42.479674796747965 52.642276422764226,42.3780487804878 52.38821138211382,42.327235772357724 52.083333333333336,42.27642276422764 51.77845528455284,42.22560975609756 51.47357723577235,42.22560975609756 51.11788617886179,42.22560975609756 50.8130081300813,42.22560975609756 50.50813008130081,42.27642276422764 50.15243902439024,42.58130081300813 49.84756097560975,42.9369918699187 49.542682926829265,43.34349593495935 49.136178861788615,43.90243902439024 48.78048780487805,44.46138211382114 48.42479674796748,45.07113821138211 48.11991869918699,45.73170731707317 47.916666666666664,46.1890243902439 47.86585365853659,46.54471544715447 47.8150406504065,46.951219512195124 47.8150406504065,47.20528455284553 47.8150406504065,47.5609756097561 47.86585365853659,47.86585365853659 47.96747967479675,48.06910569105691 48.170731707317074,48.22154471544715 48.42479674796748,48.3739837398374 48.67886178861789,48.42479674796748 48.93292682926829,48.47560975609756 49.1869918699187,48.577235772357724 49.4410569105691,48.6280487804878 49.796747967479675,48.67886178861789 50.15243902439024,48.67886178861789 50.609756097560975,48.67886178861789 51.21951219512195,48.67886178861789 51.981707317073166,48.47560975609756 52.79471544715447,48.11991869918699 53.607723577235774,47.459349593495936 54.31910569105691,46.84959349593496 54.979674796747965,46.239837398373986 55.48780487804878,45.73170731707317 55.792682926829265,45.22357723577235 55.99593495934959,44.66463414634146 56.09756097560975,44.20731707317073 56.14837398373984,43.90243902439024 56.14837398373984,43.699186991869915 56.14837398373984,43.546747967479675 56.14837398373984,43.292682926829265 56.046747967479675,43.03861788617886 55.89430894308943,42.78455284552845 55.640243902439025,42.53048780487805" fill="none" stroke="black" stroke-width="0.6"></polyline><polyline points="55.640243902439025,42.53048780487805 55.33536585365854,42.327235772357724 54.92886178861789,42.073170731707314 54.31910569105691,41.97154471544715 53.55691056910569,41.97154471544715 52.59146341463415,41.97154471544715 51.37195121951219,42.78455284552845 50.15243902439024,43.80081300813008 49.03455284552845,44.766260162601625 48.22154471544715,45.52845528455285 47.8150406504065,45.985772357723576 47.71341463414634,46.13821138211382 47.86585365853659,46.13821138211382 48.11991869918699,46.13821138211382 48.47560975609756,46.13821138211382 48.93292682926829,46.13821138211382 49.49186991869919,46.13821138211382 50.15243902439024,45.985772357723576 51.016260162601625,45.52845528455285 51.829268292682926,44.86788617886179 52.79471544715447,44.20731707317073 53.8109756097561,43.292682926829265 54.67479674796748,42.327235772357724 55.53861788617886,41.61585365853659 56.09756097560975,40.90447154471545 56.453252032520325,40.4979674796748 56.55487804878049,40.24390243902439 56.35162601626016,40.24390243902439 56.09756097560975,40.24390243902439 55.74186991869919,40.34552845528455 55.13211382113821,40.701219512195124 54.52235772357724,41.15853658536585 53.709349593495936,41.61585365853659 52.84552845528455,42.17479674796748 51.47357723577235,43.140243902439025 50.355691056910565,43.953252032520325 49.89837398373984,44.25813008130081 50.05081300813008,44.25813008130081 50.203252032520325,44.25813008130081 50.355691056910565,44.20731707317073 50.55894308943089,44.105691056910565 50.71138211382114,44.05487804878049 51.016260162601625,43.85162601626016 51.37195121951219,43.59756097560975 51.880081300813,43.1910569105691 52.59146341463415,42.58130081300813 53.55691056910569,41.920731707317074 54.52235772357724,41.15853658536585 55.28455284552845,40.396341463414636 55.94512195121951,39.88821138211382 56.25,39.6849593495935" fill="none" stroke="black" stroke-width="0.6"></polyline><polyline points="56.25,39.6849593495935 56.30081300813008,39.6849593495935 56.046747967479675,39.6849593495935 55.792682926829265,39.6849593495935 55.28455284552845,39.83739837398374 54.67479674796748,40.24390243902439 54.014227642276424,40.853658536585364 53.15040650406504,41.46341463414634 52.1849593495935,42.17479674796748 51.27032520325203,42.886178861788615 50.45731707317073,43.546747967479675 49.84756097560975,43.953252032520325 49.64430894308943,44.105691056910565 49.69512195121951,44.105691056910565 49.796747967479675,44.105691056910565 49.949186991869915,44.105691056910565 50.2540650406504,44.05487804878049 50.609756097560975,43.953252032520325 51.11788617886179,43.80081300813008 51.67682926829268,43.39430894308943 52.38821138211382,42.886178861788615 53.201219512195124,42.327235772357724 54.11585365853659,41.81910569105691 55.03048780487805,41.3109756097561 55.74186991869919,40.802845528455286 56.25,40.396341463414636 56.55487804878049,40.19308943089431 56.605691056910565,40.142276422764226 56.55487804878049,40.142276422764226 56.35162601626016,40.142276422764226 56.046747967479675,40.34552845528455 55.640243902439025,40.65040650406504 55.03048780487805,41.107723577235774 54.31910569105691,41.61585365853659 53.607723577235774,42.17479674796748 52.79471544715447,42.83536585365854 51.93089430894309,43.49593495934959 51.32113821138211,43.953252032520325 50.86382113821138,44.25813008130081 50.66056910569105,44.41056910569105 50.66056910569105,44.46138211382114 50.8130081300813,44.46138211382114 51.0670731707317,44.41056910569105 51.422764227642276,44.25813008130081 51.829268292682926,44.15650406504065 52.4390243902439,44.0040650406504 53.15040650406504,43.699186991869915 53.96341463414634,43.140243902439025 54.8780487804878,42.53048780487805 55.792682926829265,41.97154471544715 56.605691056910565,41.46341463414634" fill="none" stroke="black" stroke-width="0.6"></polyline><polyline points="56.605691056910565,41.46341463414634 57.3170731707317,40.95528455284553 57.672764227642276,40.65040650406504 57.77439024390244,40.59959349593496 57.57113821138211,40.59959349593496 57.266260162601625,40.65040650406504 56.859756097560975,40.95528455284553 56.30081300813008,41.3109756097561 55.58943089430894,41.61585365853659 54.827235772357724,42.073170731707314 54.0650406504065,42.68292682926829 53.353658536585364,43.1910569105691 52.79471544715447,43.64837398373984 52.33739837398374,43.953252032520325 52.235772357723576,44.05487804878049 52.33739837398374,44.05487804878049 52.540650406504064,44.05487804878049 52.84552845528455,44.0040650406504 53.15040650406504,43.80081300813008 53.607723577235774,43.546747967479675 54.21747967479675,43.1910569105691 54.827235772357724,42.68292682926829 55.58943089430894,42.1239837398374 56.40243902439024,41.5650406504065 57.11382113821138,40.90447154471545 57.672764227642276,40.34552845528455 57.92682926829268,40.040650406504064 57.97764227642276,39.9390243902439 57.92682926829268,39.9390243902439 57.672764227642276,39.9390243902439 57.266260162601625,39.989837398373986 56.75813008130081,40.34552845528455 56.046747967479675,40.853658536585364 55.28455284552845,41.36178861788618 54.420731707317074,41.76829268292683 53.55691056910569,42.327235772357724 52.896341463414636,42.83536585365854 52.33739837398374,43.292682926829265 51.981707317073166,43.546747967479675 51.880081300813,43.59756097560975 52.03252032520325,43.59756097560975 52.1849593495935,43.546747967479675 52.4390243902439,43.34349593495935 52.79471544715447,43.140243902439025 53.2520325203252,42.78455284552845 53.760162601626014,42.3780487804878 54.36991869918699,42.02235772357724 55.08130081300813,41.46341463414634 55.792682926829265,40.802845528455286 56.453252032520325,40.19308943089431 57.012195121951216,39.78658536585366" fill="none" stroke="black" stroke-width="0.6"></polyline><polyline points="57.012195121951216,39.78658536585366 57.21544715447154,39.63414634146341 57.266260162601625,39.63414634146341 57.16463414634146,39.63414634146341 56.859756097560975,39.63414634146341 56.453252032520325,39.63414634146341 55.89430894308943,40.040650406504064 55.18292682926829,40.548780487804876 54.420731707317074,41.05691056910569 53.65853658536585,41.5650406504065 52.9979674796748,41.97154471544715 52.38821138211382,42.327235772357724 51.93089430894309,42.68292682926829 51.77845528455284,42.83536585365854 51.829268292682926,42.83536585365854 51.93089430894309,42.83536585365854 52.083333333333336,42.63211382113821 52.33739837398374,42.479674796747965 52.642276422764226,42.327235772357724 53.048780487804876,42.073170731707314 53.55691056910569,41.81910569105691 54.11585365853659,41.514227642276424 54.77642276422764,41.00609756097561 55.386178861788615,40.447154471544714 55.94512195121951,39.989837398373986 56.25,39.78658536585366 56.30081300813008,39.6849593495935 55.99593495934959,39.6849593495935 55.53861788617886,39.78658536585366 55.03048780487805,40.142276422764226 54.31910569105691,40.65040650406504 53.607723577235774,41.209349593495936 52.79471544715447,41.76829268292683 51.880081300813,42.327235772357724 51.27032520325203,42.83536585365854 50.8130081300813,43.1910569105691 50.609756097560975,43.39430894308943 50.609756097560975,43.44512195121951 50.71138211382114,43.44512195121951 50.96544715447154,43.34349593495935 51.27032520325203,43.1910569105691 51.6260162601626,42.9369918699187 52.13414634146341,42.58130081300813 52.79471544715447,42.22560975609756 53.45528455284553,41.81910569105691 54.31910569105691,41.36178861788618 55.28455284552845,40.65040650406504 56.046747967479675,40.09146341463415 56.605691056910565,39.735772357723576 56.96138211382114,39.583333333333336 57.012195121951216,39.583333333333336" fill="none" stroke="black" stroke-width="0.6"></polyline><polyline points="57.012195121951216,39.583333333333336 56.91056910569105,39.583333333333336 56.605691056910565,39.583333333333336 56.14837398373984,39.78658536585366 55.53861788617886,40.19308943089431 54.77642276422764,40.853658536585364 53.8109756097561,41.46341463414634 52.896341463414636,42.073170731707314 51.981707317073166,42.68292682926829 51.21951219512195,43.24186991869919 50.762195121951216,43.546747967479675 50.55894308943089,43.75 50.55894308943089,43.80081300813008 50.609756097560975,43.80081300813008 50.86382113821138,43.80081300813008 51.168699186991866,43.64837398373984 51.575203252032516,43.49593495934959 52.083333333333336,43.140243902439025 52.79471544715447,42.733739837398375 53.45528455284553,42.327235772357724 54.31910569105691,41.81910569105691 55.28455284552845,41.209349593495936 56.09756097560975,40.548780487804876 56.75813008130081,40.040650406504064 57.266260162601625,39.735772357723576 57.3170731707317,39.6849593495935 57.11382113821138,39.6849593495935 56.75813008130081,39.735772357723576 56.30081300813008,39.989837398373986 55.640243902439025,40.548780487804876 54.827235772357724,41.15853658536585 54.014227642276424,41.71747967479675 53.09959349593496,42.327235772357724 51.77845528455284,43.39430894308943 51.11788617886179,43.90243902439024 51.11788617886179,43.953252032520325 51.27032520325203,43.953252032520325 51.575203252032516,43.90243902439024 51.93089430894309,43.75 52.33739837398374,43.546747967479675 52.84552845528455,43.24186991869919 53.40447154471545,42.83536585365854 54.0650406504065,42.3780487804878 54.827235772357724,41.920731707317074 55.640243902439025,41.41260162601626 56.55487804878049,40.802845528455286 57.11382113821138,40.29471544715447 57.52032520325203,39.88821138211382 57.77439024390244,39.78658536585366 57.672764227642276,39.78658536585366 57.36788617886179,39.78658536585366" fill="none" stroke="black" stroke-width="0.6"></polyline><polyline points="57.36788617886179,39.78658536585366 56.91056910569105,39.9390243902439 56.30081300813008,40.447154471544714 55.53861788617886,41.00609756097561 54.72560975609756,41.61585365853659 53.91260162601626,42.1239837398374 53.15040650406504,42.78455284552845 52.38821138211382,43.34349593495935 51.981707317073166,43.699186991869915 51.829268292682926,43.80081300813008 51.829268292682926,43.85162601626016 51.880081300813,43.85162601626016 52.083333333333336,43.80081300813008 52.33739837398374,43.699186991869915 52.642276422764226,43.49593495934959 53.09959349593496,43.24186991869919 53.607723577235774,42.83536585365854 54.21747967479675,42.327235772357724 54.8780487804878,41.920731707317074 55.640243902439025,41.36178861788618 56.30081300813008,40.7520325203252 56.75813008130081,40.34552845528455 57.0630081300813,40.040650406504064 57.11382113821138,39.9390243902439 56.96138211382114,39.9390243902439 56.65650406504065,40.09146341463415 56.25,40.447154471544714 55.792682926829265,40.853658536585364 55.18292682926829,41.36178861788618 54.6239837398374,41.71747967479675 54.0650406504065,42.073170731707314 53.55691056910569,42.58130081300813 53.15040650406504,42.886178861788615 52.896341463414636,43.08943089430894 52.84552845528455,43.1910569105691 52.84552845528455,43.24186991869919 53.048780487804876,43.24186991869919 53.302845528455286,43.03861788617886 53.760162601626014,42.83536585365854 54.26829268292683,42.53048780487805 54.8780487804878,42.17479674796748 55.640243902439025,41.81910569105691 56.55487804878049,41.15853658536585 57.418699186991866,40.447154471544714 58.18089430894309,39.83739837398374 58.63821138211382,39.53252032520325 58.790650406504064,39.38008130081301 58.6890243902439,39.38008130081301 58.28252032520325,39.38008130081301 57.77439024390244,39.583333333333336 57.012195121951216,39.9390243902439" fill="none" stroke="black" stroke-width="0.6"></polyline><polyline points="57.012195121951216,39.9390243902439 56.046747967479675,40.701219512195124 55.03048780487805,41.36178861788618 54.014227642276424,42.02235772357724 53.048780487804876,42.733739837398375 52.33739837398374,43.292682926829265 51.981707317073166,43.699186991869915 51.829268292682926,43.85162601626016 51.93089430894309,43.85162601626016 52.13414634146341,43.85162601626016 52.38821138211382,43.85162601626016 52.74390243902439,43.699186991869915 53.201219512195124,43.49593495934959 53.709349593495936,43.08943089430894 54.31910569105691,42.68292682926829 54.979674796747965,42.22560975609756 55.74186991869919,41.666666666666664 56.5040650406504,41.00609756097561 57.0630081300813,40.396341463414636 57.52032520325203,39.9390243902439 57.62195121951219,39.78658536585366 57.52032520325203,39.78658536585366 57.16463414634146,39.83739837398374 56.75813008130081,40.09146341463415 56.14837398373984,40.59959349593496 55.4369918699187,41.15853658536585 54.77642276422764,41.61585365853659 53.96341463414634,42.22560975609756 53.302845528455286,42.78455284552845 52.79471544715447,43.24186991869919 52.33739837398374,43.59756097560975 52.235772357723576,43.75 52.235772357723576,43.80081300813008 52.33739837398374,43.80081300813008 52.59146341463415,43.699186991869915 52.84552845528455,43.546747967479675 53.2520325203252,43.292682926829265 53.8109756097561,42.9369918699187 54.36991869918699,42.53048780487805 55.03048780487805,42.073170731707314 55.89430894308943,41.46341463414634 56.75813008130081,40.7520325203252 57.46951219512195,40.09146341463415 57.97764227642276,39.63414634146341 58.18089430894309,39.43089430894309 57.92682926829268,39.43089430894309 57.52032520325203,39.48170731707317 56.96138211382114,39.6849593495935 56.199186991869915,40.19308943089431 55.28455284552845,40.853658536585364 54.31910569105691,41.46341463414634" fill="none" stroke="black" stroke-width="0.6"></polyline><polyline points="54.31910569105691,41.46341463414634 53.45528455284553,42.02235772357724 52.69308943089431,42.58130081300813 52.235772357723576,42.9369918699187 51.981707317073166,43.1910569105691 51.981707317073166,43.292682926829265 52.03252032520325,43.292682926829265 52.13414634146341,43.292682926829265 52.38821138211382,43.08943089430894 52.74390243902439,42.886178861788615 53.048780487804876,42.63211382113821 53.55691056910569,42.327235772357724 54.11585365853659,42.02235772357724 54.827235772357724,41.61585365853659 55.53861788617886,41.107723577235774 56.30081300813008,40.396341463414636 56.859756097560975,39.9390243902439 57.16463414634146,39.6849593495935 57.266260162601625,39.583333333333336 57.11382113821138,39.583333333333336 56.75813008130081,39.583333333333336 56.30081300813008,39.83739837398374 55.640243902439025,40.396341463414636 54.827235772357724,41.00609756097561 54.014227642276424,41.61585365853659 53.048780487804876,42.327235772357724 52.33739837398374,42.9369918699187 51.829268292682926,43.44512195121951 51.52439024390244,43.699186991869915 51.52439024390244,43.75 51.575203252032516,43.75 51.77845528455284,43.75 52.083333333333336,43.64837398373984 52.4390243902439,43.39430894308943 52.9979674796748,43.08943089430894 53.55691056910569,42.68292682926829 54.166666666666664,42.22560975609756 54.979674796747965,41.71747967479675 55.792682926829265,41.05691056910569 56.55487804878049,40.396341463414636 57.16463414634146,39.83739837398374 57.46951219512195,39.583333333333336 57.52032520325203,39.48170731707317 57.21544715447154,39.48170731707317 56.75813008130081,39.63414634146341 56.14837398373984,40.09146341463415 55.28455284552845,40.7520325203252 54.36991869918699,41.36178861788618 53.40447154471545,42.02235772357724 52.4390243902439,42.78455284552845 51.77845528455284,43.34349593495935" fill="none" stroke="black" stroke-width="0.6"></polyline><polyline points="51.77845528455284,43.34349593495935 51.27032520325203,43.75 51.016260162601625,43.953252032520325 51.016260162601625,44.0040650406504 51.0670731707317,44.0040650406504 51.27032520325203,44.0040650406504 51.575203252032516,43.90243902439024 51.93089430894309,43.75 52.4390243902439,43.44512195121951 53.048780487804876,42.98780487804878 53.8109756097561,42.479674796747965 54.6239837398374,41.86991869918699 55.58943089430894,41.107723577235774 56.453252032520325,40.34552845528455 57.11382113821138,39.735772357723576 57.52032520325203,39.38008130081301 57.62195121951219,39.38008130081301 57.57113821138211,39.38008130081301 57.3170731707317,39.38008130081301 56.91056910569105,39.53252032520325 56.35162601626016,39.88821138211382 55.640243902439025,40.447154471544714 54.827235772357724,41.107723577235774 54.0650406504065,41.61585365853659 53.353658536585364,42.1239837398374 52.79471544715447,42.63211382113821 52.33739837398374,42.98780487804878 52.1849593495935,43.1910569105691 52.1849593495935,43.24186991869919 52.33739837398374,43.24186991869919 52.540650406504064,43.08943089430894 52.84552845528455,42.9369918699187 53.201219512195124,42.63211382113821 54.166666666666664,42.073170731707314 55.53861788617886,41.107723577235774 57.012195121951216,39.989837398373986 57.72357723577235,39.48170731707317 58.02845528455284,39.176829268292686 58.130081300813,39.07520325203252 57.77439024390244,39.07520325203252 57.21544715447154,39.27845528455285 56.55487804878049,39.583333333333336 55.74186991869919,40.09146341463415 54.827235772357724,40.7520325203252 53.86178861788618,41.41260162601626 53.09959349593496,41.920731707317074 52.59146341463415,42.27642276422764 52.28658536585366,42.58130081300813 52.235772357723576,42.63211382113821 52.28658536585366,42.63211382113821 52.33739837398374,42.63211382113821" fill="none" stroke="black" stroke-width="0.6"></polyline><polyline points="52.33739837398374,42.63211382113821 52.59146341463415,42.58130081300813 52.79471544715447,42.42886178861789 53.048780487804876,42.27642276422764 53.45528455284553,42.073170731707314 53.86178861788618,41.86991869918699 54.31910569105691,41.61585365853659 54.8780487804878,41.3109756097561 55.4369918699187,40.853658536585364 55.84349593495935,40.447154471544714 56.14837398373984,40.142276422764226 56.30081300813008,39.989837398373986 55.99593495934959,39.989837398373986 55.53861788617886,40.19308943089431 55.03048780487805,40.65040650406504 54.36991869918699,41.15853658536585 53.607723577235774,41.61585365853659 52.84552845528455,42.17479674796748 52.13414634146341,42.83536585365854 51.52439024390244,43.34349593495935 51.11788617886179,43.64837398373984 51.016260162601625,43.80081300813008 51.016260162601625,43.85162601626016 51.11788617886179,43.85162601626016 51.32113821138211,43.80081300813008 51.6260162601626,43.699186991869915 52.083333333333336,43.546747967479675 52.59146341463415,43.1910569105691 53.201219512195124,42.733739837398375 53.96341463414634,42.22560975609756 54.827235772357724,41.71747967479675 55.640243902439025,41.00609756097561 56.40243902439024,40.29471544715447 56.859756097560975,39.88821138211382 57.0630081300813,39.6849593495935 57.11382113821138,39.63414634146341 56.91056910569105,39.63414634146341 56.605691056910565,39.63414634146341 56.14837398373984,39.78658536585366 55.53861788617886,40.24390243902439 54.827235772357724,40.853658536585364 53.96341463414634,41.46341463414634 52.9979674796748,42.1239837398374 52.1849593495935,42.83536585365854 51.52439024390244,43.39430894308943 51.016260162601625,43.80081300813008 50.8130081300813,43.953252032520325 50.8130081300813,44.0040650406504 50.96544715447154,44.0040650406504 51.21951219512195,43.953252032520325 51.575203252032516,43.80081300813008" fill="none" stroke="black" stroke-width="0.6"></polyline><polyline points="51.575203252032516,43.80081300813008 52.03252032520325,43.59756097560975 52.59146341463415,43.292682926829265 53.2520325203252,42.78455284552845 54.014227642276424,42.22560975609756 54.8780487804878,41.61585365853659 55.74186991869919,40.853658536585364 56.55487804878049,40.142276422764226 57.012195121951216,39.735772357723576 57.266260162601625,39.53252032520325 57.36788617886179,39.48170731707317 57.266260162601625,39.48170731707317 57.012195121951216,39.48170731707317 56.605691056910565,39.583333333333336 56.09756097560975,39.88821138211382 55.48780487804878,40.396341463414636 54.827235772357724,40.90447154471545 54.0650406504065,41.46341463414634 53.45528455284553,41.97154471544715 52.947154471544714,42.3780487804878 52.59146341463415,42.733739837398375 52.4390243902439,42.83536585365854 52.4390243902439,42.886178861788615 52.489837398373986,42.886178861788615 52.59146341463415,42.886178861788615 52.896341463414636,42.83536585365854 53.201219512195124,42.63211382113821 53.607723577235774,42.42886178861789 54.11585365853659,42.17479674796748 54.77642276422764,41.86991869918699 55.386178861788615,41.46341463414634 56.199186991869915,40.853658536585364 56.859756097560975,40.19308943089431 57.418699186991866,39.6849593495935 57.77439024390244,39.38008130081301 57.825203252032516,39.329268292682926 57.77439024390244,39.329268292682926 57.418699186991866,39.329268292682926 56.859756097560975,39.38008130081301 56.30081300813008,39.735772357723576 55.4369918699187,40.29471544715447 54.52235772357724,40.95528455284553 53.55691056910569,41.61585365853659 52.642276422764226,42.27642276422764 51.880081300813,42.9369918699187 51.47357723577235,43.34349593495935 51.27032520325203,43.59756097560975 51.168699186991866,43.64837398373984 51.21951219512195,43.64837398373984 51.37195121951219,43.64837398373984 51.6260162601626,43.546747967479675" fill="none" stroke="black" stroke-width="0.6"></polyline><polyline points="51.6260162601626,43.546747967479675 51.981707317073166,43.34349593495935 52.4390243902439,43.03861788617886 53.048780487804876,42.58130081300813 53.8109756097561,42.073170731707314 54.6239837398374,41.5650406504065 55.53861788617886,40.802845528455286 56.55487804878049,40.09146341463415 57.266260162601625,39.583333333333336 57.77439024390244,39.176829268292686 58.02845528455284,39.07520325203252 57.77439024390244,39.07520325203252 57.418699186991866,39.176829268292686 56.91056910569105,39.38008130081301 56.30081300813008,39.63414634146341 55.58943089430894,40.142276422764226 54.827235772357724,40.7520325203252 53.91260162601626,41.41260162601626 53.15040650406504,41.920731707317074 52.540650406504064,42.3780487804878 52.083333333333336,42.78455284552845 52.03252032520325,42.98780487804878 52.03252032520325,43.03861788617886 52.083333333333336,43.03861788617886 52.13414634146341,42.98780487804878 52.33739837398374,42.886178861788615 52.540650406504064,42.733739837398375 52.79471544715447,42.53048780487805 53.048780487804876,42.327235772357724 53.55691056910569,42.073170731707314 54.0650406504065,41.76829268292683 54.67479674796748,41.36178861788618 55.28455284552845,40.7520325203252 55.99593495934959,40.142276422764226 56.453252032520325,39.735772357723576 56.70731707317073,39.48170731707317 56.75813008130081,39.38008130081301 56.55487804878049,39.38008130081301 56.30081300813008,39.43089430894309 55.89430894308943,39.53252032520325 55.48780487804878,39.88821138211382 54.92886178861789,40.29471544715447 54.420731707317074,40.853658536585364 53.91260162601626,41.36178861788618 53.50609756097561,41.71747967479675 53.09959349593496,42.1239837398374 52.896341463414636,42.3780487804878 52.84552845528455,42.53048780487805 52.84552845528455,42.58130081300813 52.896341463414636,42.58130081300813 52.9979674796748,42.58130081300813" fill="none" stroke="black" stroke-width="0.6"></polyline><polyline points="52.9979674796748,42.58130081300813 53.09959349593496,42.58130081300813 53.302845528455286,42.3780487804878 53.607723577235774,42.22560975609756 53.96341463414634,42.073170731707314 54.36991869918699,41.81910569105691 54.8780487804878,41.41260162601626 55.48780487804878,40.853658536585364 56.09756097560975,40.19308943089431 56.65650406504065,39.6849593495935 57.012195121951216,39.38008130081301 57.16463414634146,39.176829268292686 57.21544715447154,39.176829268292686 56.96138211382114,39.176829268292686 56.55487804878049,39.27845528455285 56.046747967479675,39.583333333333336 55.386178861788615,40.142276422764226 54.573170731707314,40.90447154471545 53.709349593495936,41.61585365853659 52.84552845528455,42.327235772357724 52.083333333333336,43.03861788617886 51.6260162601626,43.546747967479675 51.32113821138211,43.80081300813008 51.27032520325203,43.90243902439024 51.32113821138211,43.90243902439024 51.47357723577235,43.85162601626016 51.72764227642276,43.75 52.03252032520325,43.546747967479675 52.489837398373986,43.24186991869919 53.048780487804876,42.733739837398375 53.65853658536585,42.22560975609756 54.420731707317074,41.666666666666664 55.233739837398375,40.90447154471545 55.89430894308943,40.24390243902439 56.30081300813008,39.83739837398374 56.55487804878049,39.63414634146341 56.5040650406504,39.63414634146341 56.25,39.63414634146341 55.792682926829265,39.78658536585366 55.28455284552845,40.24390243902439 54.6239837398374,40.853658536585364 53.8109756097561,41.514227642276424 52.947154471544714,42.17479674796748 51.575203252032516,43.39430894308943 50.609756097560975,44.15650406504065 50.355691056910565,44.30894308943089 50.40650406504065,44.30894308943089 50.71138211382114,44.25813008130081 51.11788617886179,44.15650406504065 51.47357723577235,44.0040650406504 51.93089430894309,43.80081300813008" fill="none" stroke="black" stroke-width="0.6"></polyline><polyline points="51.93089430894309,43.80081300813008 52.489837398373986,43.546747967479675 53.09959349593496,43.03861788617886 53.86178861788618,42.3780487804878 54.827235772357724,41.71747967479675 55.58943089430894,40.95528455284553 56.35162601626016,40.19308943089431 56.96138211382114,39.6849593495935 57.266260162601625,39.43089430894309 57.012195121951216,39.43089430894309 56.70731707317073,39.48170731707317 56.25,39.83739837398374 55.58943089430894,40.396341463414636 54.8780487804878,41.05691056910569 54.21747967479675,41.61585365853659 53.45528455284553,42.22560975609756 52.896341463414636,42.83536585365854 52.489837398373986,43.292682926829265 52.235772357723576,43.546747967479675 52.235772357723576,43.64837398373984 52.28658536585366,43.64837398373984 52.489837398373986,43.64837398373984 52.74390243902439,43.49593495934959 53.048780487804876,43.292682926829265 53.40447154471545,43.03861788617886 53.86178861788618,42.733739837398375 54.36991869918699,42.327235772357724 55.03048780487805,41.86991869918699 55.792682926829265,41.260162601626014 56.5040650406504,40.4979674796748 57.16463414634146,39.83739837398374 57.57113821138211,39.43089430894309 57.77439024390244,39.27845528455285 57.52032520325203,39.27845528455285 57.16463414634146,39.38008130081301 56.70731707317073,39.583333333333336 55.99593495934959,40.09146341463415 55.18292682926829,40.701219512195124 54.36991869918699,41.36178861788618 53.50609756097561,42.073170731707314 52.84552845528455,42.68292682926829 52.28658536585366,43.292682926829265 51.93089430894309,43.699186991869915 51.829268292682926,43.80081300813008 51.829268292682926,43.85162601626016 51.981707317073166,43.85162601626016 52.13414634146341,43.80081300813008 52.33739837398374,43.64837398373984 52.69308943089431,43.39430894308943 53.09959349593496,43.03861788617886 53.65853658536585,42.58130081300813" fill="none" stroke="black" stroke-width="0.6"></polyline><polyline points="53.65853658536585,42.58130081300813 54.31910569105691,42.073170731707314 55.03048780487805,41.514227642276424 55.74186991869919,40.701219512195124 56.40243902439024,40.040650406504064 56.859756097560975,39.63414634146341 57.11382113821138,39.38008130081301 57.266260162601625,39.38008130081301 57.012195121951216,39.38008130081301 56.70731707317073,39.38008130081301 56.30081300813008,39.63414634146341 55.792682926829265,40.040650406504064 55.08130081300813,40.65040650406504 54.36991869918699,41.3109756097561 53.607723577235774,41.86991869918699 52.9979674796748,42.58130081300813 52.38821138211382,43.1910569105691 52.083333333333336,43.59756097560975 51.93089430894309,43.80081300813008 52.03252032520325,43.80081300813008 52.1849593495935,43.80081300813008 52.4390243902439,43.80081300813008 52.84552845528455,43.546747967479675 53.302845528455286,43.292682926829265 53.86178861788618,42.83536585365854 54.52235772357724,42.327235772357724 55.28455284552845,41.81910569105691 56.14837398373984,41.00609756097561 56.91056910569105,40.19308943089431 57.52032520325203,39.63414634146341 57.97764227642276,39.27845528455285 58.02845528455284,39.22764227642276 57.825203252032516,39.22764227642276 57.46951219512195,39.38008130081301 56.96138211382114,39.583333333333336 56.30081300813008,40.09146341463415 55.53861788617886,40.853658536585364 54.72560975609756,41.46341463414634 53.86178861788618,42.1239837398374 53.09959349593496,42.83536585365854 52.59146341463415,43.44512195121951 52.235772357723576,43.80081300813008 52.083333333333336,43.953252032520325 52.13414634146341,43.953252032520325 52.28658536585366,43.953252032520325 52.4390243902439,43.85162601626016 52.642276422764226,43.699186991869915 52.947154471544714,43.49593495934959 53.302845528455286,43.140243902439025 53.8109756097561,42.733739837398375 54.36991869918699,42.22560975609756" fill="none" stroke="black" stroke-width="0.6"></polyline><polyline points="54.36991869918699,42.22560975609756 55.08130081300813,41.61585365853659 55.792682926829265,40.853658536585364 56.453252032520325,40.142276422764226 57.012195121951216,39.63414634146341 57.36788617886179,39.38008130081301 57.52032520325203,39.27845528455285 57.46951219512195,39.27845528455285 57.266260162601625,39.329268292682926 56.91056910569105,39.38008130081301 56.5040650406504,39.63414634146341 55.99593495934959,40.040650406504064 55.28455284552845,40.65040650406504 54.573170731707314,41.209349593495936 53.91260162601626,41.71747967479675 53.302845528455286,42.27642276422764 52.79471544715447,42.733739837398375 52.4390243902439,43.03861788617886 52.33739837398374,43.292682926829265 52.540650406504064,43.24186991869919" fill="none" stroke="black" stroke-width="0.6"></polyline><polyline points="57.92682926829268,39.07520325203252 57.11382113821138,39.38008130081301 56.40243902439024,39.88821138211382 55.48780487804878,40.65040650406504 54.47154471544715,41.41260162601626 53.65853658536585,41.97154471544715 53.048780487804876,42.53048780487805 52.540650406504064,42.98780487804878 52.33739837398374,43.292682926829265 52.235772357723576,43.44512195121951 52.235772357723576,43.49593495934959 52.28658536585366,43.49593495934959 52.33739837398374,43.44512195121951 52.489837398373986,43.292682926829265 52.69308943089431,43.08943089430894 52.9979674796748,42.886178861788615 53.302845528455286,42.58130081300813 53.760162601626014,42.327235772357724 54.21747967479675,41.97154471544715 54.827235772357724,41.61585365853659 55.386178861788615,41.05691056910569 55.94512195121951,40.4979674796748 56.40243902439024,39.989837398373986 56.70731707317073,39.735772357723576 56.75813008130081,39.63414634146341 56.80894308943089,39.63414634146341 56.75813008130081,39.63414634146341 56.70731707317073,39.63414634146341 56.55487804878049,39.63414634146341 56.40243902439024,39.63414634146341 56.199186991869915,39.78658536585366 55.84349593495935,40.09146341463415 55.48780487804878,40.4979674796748 54.92886178861789,40.95528455284553 54.31910569105691,41.514227642276424 53.607723577235774,42.1239837398374 52.947154471544714,42.83536585365854 52.38821138211382,43.44512195121951 52.083333333333336,43.80081300813008 51.880081300813,43.953252032520325 51.829268292682926,44.0040650406504 51.93089430894309,44.0040650406504 52.083333333333336,43.90243902439024 52.235772357723576,43.80081300813008 52.540650406504064,43.59756097560975 52.947154471544714,43.292682926829265 53.50609756097561,42.78455284552845 54.166666666666664,42.22560975609756 54.92886178861789,41.61585365853659 55.640243902439025,40.853658536585364 56.30081300813008,40.19308943089431" fill="none" stroke="black" stroke-width="0.6"></polyline><polyline points="56.30081300813008,40.19308943089431 56.70731707317073,39.83739837398374 56.91056910569105,39.63414634146341 56.96138211382114,39.63414634146341 56.859756097560975,39.63414634146341 56.75813008130081,39.63414634146341 56.55487804878049,39.63414634146341 56.25,39.735772357723576 55.84349593495935,40.09146341463415 55.386178861788615,40.447154471544714 54.827235772357724,40.95528455284553 54.166666666666664,41.46341463414634 53.048780487804876,42.3780487804878 52.13414634146341,43.24186991869919 51.72764227642276,43.75 51.72764227642276,43.80081300813008 51.829268292682926,43.80081300813008 51.981707317073166,43.80081300813008 52.083333333333336,43.75 52.28658536585366,43.64837398373984 52.489837398373986,43.49593495934959 52.79471544715447,43.292682926829265 53.201219512195124,42.98780487804878 53.65853658536585,42.63211382113821 54.31910569105691,42.22560975609756 55.03048780487805,41.666666666666664 55.792682926829265,40.95528455284553 56.55487804878049,40.24390243902439 57.11382113821138,39.6849593495935 57.46951219512195,39.38008130081301 57.62195121951219,39.329268292682926 57.672764227642276,39.329268292682926 57.62195121951219,39.329268292682926 57.52032520325203,39.329268292682926" fill="none" stroke="black" stroke-width="0.6"></polyline><polyline points="56.65650406504065,40.19308943089431 56.80894308943089,40.34552845528455" fill="none" stroke="black" stroke-width="0.6"></polyline><polyline points="52.1849593495935,43.44512195121951 52.33739837398374,43.59756097560975" fill="none" stroke="black" stroke-width="0.6"></polyline><polyline points="57.825203252032516,39.63414634146341 55.28455284552845,41.46341463414634 54.11585365853659,42.22560975609756 53.50609756097561,42.733739837398375 53.09959349593496,43.08943089430894 52.84552845528455,43.39430894308943 52.79471544715447,43.546747967479675 52.74390243902439,43.546747967479675" fill="none" stroke="black" stroke-width="0.6"></polyline><polyline points="57.52032520325203,39.9390243902439 57.672764227642276,40.09146341463415" fill="none" stroke="black" stroke-width="0.6"></polyline><polyline points="57.97764227642276,39.583333333333336 58.130081300813,39.735772357723576" fill="none" stroke="black" stroke-width="0.6"></polyline><polyline points="56.75813008130081,40.396341463414636 53.55691056910569,42.073170731707314 52.74390243902439,42.886178861788615 52.38821138211382,43.292682926829265 52.33739837398374,43.39430894308943 52.33739837398374,43.44512195121951" fill="none" stroke="black" stroke-width="0.6"></polyline><polyline points="51.11788617886179,44.46138211382114 51.27032520325203,44.61382113821138" fill="none" stroke="black" stroke-width="0.6"></polyline><polyline points="51.575203252032516,43.90243902439024 51.11788617886179,44.25813008130081 50.66056910569105,44.41056910569105 50.55894308943089,44.512195121951216 56.046747967479675,41.36178861788618 57.3170731707317,40.447154471544714 57.57113821138211,40.19308943089431 57.52032520325203,40.142276422764226 57.36788617886179,40.142276422764226 56.859756097560975,40.142276422764226 56.199186991869915,40.19308943089431" fill="none" stroke="black" stroke-width="0.6"></polyline><polyline points="54.67479674796748,42.327235772357724 54.827235772357724,42.479674796747965" fill="none" stroke="black" stroke-width="0.6"></polyline><polyline points="51.11788617886179,44.05487804878049 51.27032520325203,44.20731707317073" fill="none" stroke="black" stroke-width="0.6"></polyline><polyline points="57.418699186991866,40.142276422764226 57.8760162601626,39.83739837398374 58.33333333333333,39.48170731707317 58.485772357723576,39.38008130081301 52.59146341463415,42.886178861788615 51.422764227642276,43.75 51.21951219512195,43.80081300813008 51.422764227642276,43.80081300813008 51.880081300813,43.80081300813008 52.33739837398374,43.546747967479675" fill="none" stroke="black" stroke-width="0.6"></polyline><polyline points="51.168699186991866,43.64837398373984 51.32113821138211,43.80081300813008" fill="none" stroke="black" stroke-width="0.6"></polyline><polyline points="55.99593495934959,41.5650406504065 56.75813008130081,41.05691056910569 57.418699186991866,40.396341463414636 57.8760162601626,39.88821138211382 58.18089430894309,39.735772357723576" fill="none" stroke="black" stroke-width="0.6"></polyline><polyline points="54.26829268292683,41.97154471544715 54.420731707317074,42.1239837398374" fill="none" stroke="black" stroke-width="0.6"></polyline><polyline points="57.418699186991866,39.63414634146341 57.57113821138211,39.78658536585366" fill="none" stroke="black" stroke-width="0.6"></polyline><polyline points="50.40650406504065,43.80081300813008 50.55894308943089,43.953252032520325" fill="none" stroke="black" stroke-width="0.6"></polyline><polyline points="57.3170731707317,40.142276422764226 58.02845528455284,39.6849593495935 58.58739837398374,39.48170731707317 58.892276422764226,39.329268292682926 58.99390243902439,39.27845528455285 58.94308943089431,39.27845528455285" fill="none" stroke="black" stroke-width="0.6"></polyline><polyline points="53.760162601626014,41.666666666666664 53.91260162601626,41.81910569105691" fill="none" stroke="black" stroke-width="0.6"></polyline><polyline points="50.86382113821138,43.75 51.016260162601625,43.90243902439024" fill="none" stroke="black" stroke-width="0.6"></polyline><polyline points="51.168699186991866,43.64837398373984 51.32113821138211,43.80081300813008" fill="none" stroke="black" stroke-width="0.6"></polyline><polyline points="55.33536585365854,41.71747967479675 55.48780487804878,41.86991869918699" fill="none" stroke="black" stroke-width="0.6"></polyline><polyline points="57.46951219512195,39.9390243902439 57.825203252032516,39.83739837398374 58.079268292682926,39.6849593495935 58.079268292682926,39.63414634146341 58.130081300813,39.53252032520325 58.02845528455284,39.53252032520325" fill="none" stroke="black" stroke-width="0.6"></polyline><polyline points="50.355691056910565,43.90243902439024 50.50813008130081,44.05487804878049" fill="none" stroke="black" stroke-width="0.6"></polyline><polyline points="56.75813008130081,40.396341463414636 57.266260162601625,39.88821138211382 57.8760162601626,39.53252032520325 58.18089430894309,39.38008130081301 58.28252032520325,39.38008130081301 58.18089430894309,39.38008130081301" fill="none" stroke="black" stroke-width="0.6"></polyline><polyline points="57.11382113821138,40.040650406504064 57.266260162601625,40.19308943089431" fill="none" stroke="black" stroke-width="0.6"></polyline><polyline points="52.03252032520325,42.733739837398375 51.575203252032516,43.140243902439025 51.168699186991866,43.44512195121951 50.96544715447154,43.546747967479675 50.96544715447154,43.59756097560975 51.168699186991866,43.59756097560975 51.575203252032516,43.546747967479675" fill="none" stroke="black" stroke-width="0.6"></polyline><polyline points="58.28252032520325,39.6849593495935 58.43495934959349,39.83739837398374" fill="none" stroke="black" stroke-width="0.6"></polyline><polyline points="58.790650406504064,39.38008130081301 57.62195121951219,39.63414634146341" fill="none" stroke="black" stroke-width="0.6"></polyline><polyline points="59.146341463414636,38.71951219512195 59.298780487804876,38.87195121951219" fill="none" stroke="black" stroke-width="0.6"></polyline><polyline points="53.2520325203252,41.920731707317074 52.74390243902439,42.27642276422764 52.28658536585366,42.58130081300813 55.99593495934959,40.65040650406504 57.46951219512195,39.735772357723576 58.130081300813,39.38008130081301 58.28252032520325,39.27845528455285 57.92682926829268,39.27845528455285 57.3170731707317,39.27845528455285" fill="none" stroke="black" stroke-width="0.6"></polyline><polyline points="50.8130081300813,43.80081300813008 50.96544715447154,43.953252032520325" fill="none" stroke="black" stroke-width="0.6"></polyline><polyline points="56.75813008130081,39.6849593495935 56.91056910569105,39.83739837398374" fill="none" stroke="black" stroke-width="0.6"></polyline><polyline points="52.84552845528455,42.327235772357724 52.9979674796748,42.479674796747965" fill="none" stroke="black" stroke-width="0.6"></polyline><polyline points="51.37195121951219,43.64837398373984 51.52439024390244,43.80081300813008" fill="none" stroke="black" stroke-width="0.6"></polyline><polyline points="56.859756097560975,39.9390243902439 54.11585365853659,41.5650406504065 52.28658536585366,43.08943089430894 51.168699186991866,43.85162601626016 50.609756097560975,44.20731707317073 50.355691056910565,44.41056910569105 50.355691056910565,44.46138211382114 50.355691056910565,44.512195121951216 50.45731707317073,44.512195121951216" fill="none" stroke="black" stroke-width="0.6"></polyline><polyline points="59.70528455284553,38.5670731707317 59.857723577235774,38.71951219512195" fill="none" stroke="black" stroke-width="0.6"></polyline><polyline points="50.30487804878049,44.15650406504065 49.796747967479675,44.5630081300813 49.33943089430894,45.02032520325203 49.136178861788615,45.27439024390244 55.386178861788615,41.81910569105691 56.605691056910565,40.90447154471545 56.96138211382114,40.65040650406504 56.75813008130081,40.65040650406504 56.35162601626016,40.65040650406504 55.6910569105691,40.853658536585364" fill="none" stroke="black" stroke-width="0.6"></polyline><polyline points="56.199186991869915,41.5650406504065 56.35162601626016,41.71747967479675" fill="none" stroke="black" stroke-width="0.6"></polyline><polyline points="59.09552845528455,39.38008130081301 59.2479674796748,39.53252032520325" fill="none" stroke="black" stroke-width="0.6"></polyline><polyline points="51.37195121951219,43.59756097560975 51.11788617886179,43.699186991869915 50.91463414634146,43.80081300813008 50.86382113821138,43.80081300813008 50.96544715447154,43.80081300813008 51.422764227642276,43.75" fill="none" stroke="black" stroke-width="0.6"></polyline><polyline points="56.09756097560975,41.00609756097561 56.25,41.15853658536585" fill="none" stroke="black" stroke-width="0.6"></polyline><polyline points="57.92682926829268,39.583333333333336 58.079268292682926,39.735772357723576" fill="none" stroke="black" stroke-width="0.6"></polyline><polyline points="52.083333333333336,43.64837398373984 52.235772357723576,43.80081300813008" fill="none" stroke="black" stroke-width="0.6"></polyline><polyline points="56.5040650406504,40.65040650406504 56.65650406504065,40.802845528455286" fill="none" stroke="black" stroke-width="0.6"></polyline><polyline points="58.28252032520325,39.53252032520325 58.43495934959349,39.6849593495935" fill="none" stroke="black" stroke-width="0.6"></polyline><polyline points="50.91463414634146,44.20731707317073 51.0670731707317,44.359756097560975" fill="none" stroke="black" stroke-width="0.6"></polyline><polyline points="51.27032520325203,44.0040650406504 51.422764227642276,44.15650406504065" fill="none" stroke="black" stroke-width="0.6"></polyline><polyline points="50.86382113821138,44.05487804878049 51.016260162601625,44.20731707317073" fill="none" stroke="black" stroke-width="0.6"></polyline><polyline points="58.02845528455284,39.78658536585366 58.18089430894309,39.9390243902439" fill="none" stroke="black" stroke-width="0.6"></polyline><polyline points="57.57113821138211,39.63414634146341 57.72357723577235,39.78658536585366" fill="none" stroke="black" stroke-width="0.6"></polyline><polyline points="57.266260162601625,40.34552845528455 57.418699186991866,40.4979674796748" fill="none" stroke="black" stroke-width="0.6"></polyline><polyline points="52.33739837398374,43.64837398373984 51.77845528455284,44.0040650406504 51.168699186991866,44.20731707317073 50.86382113821138,44.41056910569105 50.8130081300813,44.46138211382114 51.0670731707317,44.359756097560975 51.575203252032516,44.105691056910565" fill="none" stroke="black" stroke-width="0.6"></polyline><polyline points="57.012195121951216,40.396341463414636 57.16463414634146,40.548780487804876" fill="none" stroke="black" stroke-width="0.6"></polyline><polyline points="57.77439024390244,39.735772357723576 57.92682926829268,39.88821138211382" fill="none" stroke="black" stroke-width="0.6"></polyline><polyline points="56.5040650406504,40.95528455284553 56.65650406504065,41.107723577235774" fill="none" stroke="black" stroke-width="0.6"></polyline><polyline points="52.13414634146341,43.59756097560975 51.575203252032516,43.953252032520325 50.96544715447154,44.25813008130081 50.71138211382114,44.41056910569105 55.640243902439025,41.107723577235774 56.80894308943089,40.34552845528455 57.012195121951216,40.24390243902439 56.859756097560975,40.24390243902439 56.5040650406504,40.29471544715447 56.046747967479675,40.34552845528455" fill="none" stroke="black" stroke-width="0.6"></polyline><polyline points="58.99390243902439,39.27845528455285 58.43495934959349,39.43089430894309 57.46951219512195,39.53252032520325" fill="none" stroke="black" stroke-width="0.6"></polyline><polyline points="56.30081300813008,40.90447154471545 56.453252032520325,41.05691056910569" fill="none" stroke="black" stroke-width="0.6"></polyline><polyline points="58.536585365853654,39.329268292682926 58.6890243902439,39.48170731707317" fill="none" stroke="black" stroke-width="0.6"></polyline><polyline points="53.8109756097561,42.327235772357724 53.45528455284553,42.63211382113821 53.09959349593496,42.83536585365854 52.947154471544714,42.98780487804878 57.46951219512195,39.88821138211382 58.536585365853654,39.176829268292686 58.892276422764226,39.02439024390244 58.84146341463415,39.02439024390244 58.33333333333333,39.02439024390244 57.672764227642276,39.176829268292686" fill="none" stroke="black" stroke-width="0.6"></polyline><polyline points="58.58739837398374,39.27845528455285 58.739837398373986,39.43089430894309" fill="none" stroke="black" stroke-width="0.6"></polyline><polyline points="51.77845528455284,43.699186991869915 51.93089430894309,43.85162601626016" fill="none" stroke="black" stroke-width="0.6"></polyline><polyline points="57.012195121951216,40.396341463414636 57.16463414634146,40.548780487804876" fill="none" stroke="black" stroke-width="0.6"></polyline><polyline points="57.418699186991866,40.09146341463415 57.57113821138211,40.24390243902439" fill="none" stroke="black" stroke-width="0.6"></polyline><polyline points="53.607723577235774,42.073170731707314 52.74390243902439,42.68292682926829 51.829268292682926,43.34349593495935 51.27032520325203,43.75 51.016260162601625,43.90243902439024 50.96544715447154,43.953252032520325" fill="none" stroke="black" stroke-width="0.6"></polyline><polyline points="54.31910569105691,41.81910569105691 53.302845528455286,42.58130081300813 52.235772357723576,43.39430894308943 51.52439024390244,43.90243902439024 51.0670731707317,44.15650406504065 50.86382113821138,44.25813008130081 50.86382113821138,44.30894308943089" fill="none" stroke="black" stroke-width="0.6"></polyline><polyline points="58.231707317073166,39.22764227642276 58.38414634146341,39.38008130081301" fill="none" stroke="black" stroke-width="0.6"></polyline><polyline points="56.859756097560975,40.142276422764226 57.52032520325203,39.735772357723576 58.18089430894309,39.27845528455285 55.89430894308943,40.19308943089431 54.21747967479675,41.36178861788618 52.9979674796748,42.073170731707314 52.33739837398374,42.58130081300813 52.03252032520325,43.03861788617886 51.829268292682926,43.08943089430894" fill="none" stroke="black" stroke-width="0.6"></polyline><polyline points="56.40243902439024,40.59959349593496 56.55487804878049,40.7520325203252" fill="none" stroke="black" stroke-width="0.6"></polyline><polyline points="57.8760162601626,39.53252032520325 58.02845528455284,39.6849593495935" fill="none" stroke="black" stroke-width="0.6"></polyline></svg>