<svg height="100" width="100" preserveAspectRatio="xMidYMid meet"><polyline points="61.73780487804878,23.01829268292683 61.58536585365854,21.49390243902439 61.53455284552845,21.341463414634145 61.53455284552845,21.392276422764226 61.53455284552845,21.392276422764226 61.53455284552845,21.392276422764226 61.53455284552845,21.392276422764226 61.53455284552845,21.392276422764226 61.53455284552845,21.443089430894307 61.53455284552845,21.443089430894307 61.53455284552845,21.443089430894307 61.53455284552845,21.443089430894307 61.53455284552845,21.443089430894307 61.53455284552845,21.443089430894307 61.53455284552845,21.443089430894307 61.53455284552845,21.443089430894307 61.53455284552845,21.443089430894307 61.53455284552845,21.443089430894307 61.53455284552845,21.443089430894307 61.53455284552845,21.443089430894307 61.53455284552845,21.443089430894307 61.53455284552845,21.443089430894307 61.53455284552845,21.443089430894307 61.53455284552845,21.443089430894307 61.53455284552845,21.443089430894307 61.53455284552845,21.443089430894307 61.53455284552845,21.443089430894307 61.53455284552845,21.443089430894307 61.53455284552845,21.443089430894307 61.53455284552845,21.443089430894307 61.53455284552845,21.49390243902439 61.53455284552845,21.49390243902439 61.53455284552845,21.49390243902439 61.53455284552845,21.49390243902439 61.53455284552845,21.54471544715447 61.53455284552845,21.54471544715447 61.53455284552845,21.54471544715447 61.53455284552845,21.59552845528455 61.53455284552845,21.646341463414632 61.53455284552845,21.646341463414632 61.53455284552845,21.697154471544714 61.53455284552845,21.747967479674795 61.58536585365854,21.747967479674795 61.58536585365854,21.798780487804876 61.58536585365854,21.849593495934958 61.58536585365854,21.849593495934958 61.58536585365854,21.849593495934958 61.58536585365854,21.90040650406504 61.58536585365854,21.90040650406504 61.58536585365854,21.95121951219512 61.58536585365854,21.95121951219512" fill="none" stroke="black" stroke-width="0.6"></polyline><polyline points="61.58536585365854,21.95121951219512 61.636178861788615,22.0020325203252 61.636178861788615,22.052845528455283 61.636178861788615,22.052845528455283 61.636178861788615,22.103658536585364 61.636178861788615,22.103658536585364 61.636178861788615,22.154471544715445 61.636178861788615,22.154471544715445 61.636178861788615,22.205284552845526 61.636178861788615,22.205284552845526 61.636178861788615,22.205284552845526 61.636178861788615,22.256097560975608 61.636178861788615,22.256097560975608 61.636178861788615,22.256097560975608 61.6869918699187,22.256097560975608 61.6869918699187,22.30691056910569 61.6869918699187,22.30691056910569 61.6869918699187,22.30691056910569 61.6869918699187,22.30691056910569 61.6869918699187,22.30691056910569 61.6869918699187,22.30691056910569 61.6869918699187,22.30691056910569 61.6869918699187,22.30691056910569 61.6869918699187,22.30691056910569 61.6869918699187,22.30691056910569 61.6869918699187,22.30691056910569 61.6869918699187,22.30691056910569 61.6869918699187,22.30691056910569 61.6869918699187,22.30691056910569 61.6869918699187,22.30691056910569 61.6869918699187,22.30691056910569 61.6869918699187,22.30691056910569 61.6869918699187,22.30691056910569 61.6869918699187,22.30691056910569 61.6869918699187,22.30691056910569 61.6869918699187,22.30691056910569 61.6869918699187,22.30691056910569 61.6869918699187,22.30691056910569 61.6869918699187,22.30691056910569 61.6869918699187,22.35772357723577 61.636178861788615,22.459349593495933 61.58536585365854,22.611788617886177" fill="none" stroke="black" stroke-width="0.6"></polyline><polyline points="29.268292682926827,38.97357723577235 29.67479674796748,38.109756097560975 29.776422764227643,37.5 29.878048780487806,37.5 29.878048780487806,37.55081300813008 29.878048780487806,37.60162601626016 29.878048780487806,37.703252032520325 29.878048780487806,37.80487804878049 29.878048780487806,37.855691056910565 29.878048780487806,37.90650406504065 29.878048780487806,37.95731707317073 29.928861788617887,37.95731707317073 29.979674796747968,37.95731707317073 29.979674796747968,37.90650406504065 29.979674796747968,37.855691056910565 29.878048780487806,37.855691056910565 29.827235772357724,37.855691056910565" fill="none" stroke="black" stroke-width="0.6"></polyline><polyline points="29.67479674796748,47.510162601626014 30.08130081300813,46.84959349593496 30.335365853658537,45.9349593495935 30.48780487804878,45.68089430894309 30.538617886178862,45.68089430894309 30.538617886178862,45.73170731707317 30.538617886178862,45.78252032520325 30.538617886178862,45.833333333333336 30.538617886178862,45.88414634146341 30.538617886178862,45.9349593495935 30.538617886178862,45.985772357723576 30.589430894308943,45.985772357723576" fill="none" stroke="black" stroke-width="0.6"></polyline><polyline points="64.02439024390243,57.8760162601626 63.71951219512195,57.11382113821138 63.61788617886179,56.80894308943089 63.5670731707317,56.75813008130081 63.5670731707317,56.80894308943089 63.5670731707317,56.859756097560975 63.61788617886179,56.859756097560975 63.668699186991866,56.96138211382114 63.71951219512195,57.11382113821138 63.71951219512195,57.266260162601625 63.77032520325203,57.418699186991866 63.77032520325203,57.52032520325203 63.82113821138211,57.62195121951219 63.82113821138211,57.672764227642276 63.82113821138211,57.72357723577235 63.82113821138211,57.77439024390244 63.82113821138211,57.77439024390244 63.82113821138211,57.77439024390244 63.82113821138211,57.77439024390244 63.82113821138211,57.77439024390244 63.82113821138211,57.77439024390244 63.82113821138211,57.77439024390244 63.82113821138211,57.72357723577235 63.82113821138211,57.72357723577235 63.82113821138211,57.72357723577235 63.82113821138211,57.672764227642276 63.82113821138211,57.672764227642276 63.82113821138211,57.672764227642276 63.82113821138211,57.672764227642276 63.82113821138211,57.62195121951219 63.82113821138211,57.62195121951219 63.82113821138211,57.62195121951219 63.82113821138211,57.62195121951219 63.82113821138211,57.62195121951219 63.82113821138211,57.62195121951219 63.82113821138211,57.62195121951219 63.82113821138211,57.62195121951219 63.82113821138211,57.62195121951219 63.82113821138211,57.62195121951219 63.82113821138211,57.62195121951219 63.82113821138211,57.62195121951219 63.87195121951219,57.62195121951219 63.87195121951219,57.62195121951219 63.87195121951219,57.62195121951219 63.87195121951219,57.62195121951219 63.87195121951219,57.672764227642276 63.87195121951219,57.672764227642276 63.87195121951219,57.672764227642276 63.922764227642276,57.672764227642276 63.922764227642276,57.672764227642276 63.922764227642276,57.672764227642276" fill="none" stroke="black" stroke-width="0.6"></polyline><polyline points="63.922764227642276,57.672764227642276 63.922764227642276,57.672764227642276 63.922764227642276,57.72357723577235 63.922764227642276,57.72357723577235 63.922764227642276,57.72357723577235 63.922764227642276,57.72357723577235 63.922764227642276,57.72357723577235 63.922764227642276,57.72357723577235 63.922764227642276,57.72357723577235 63.922764227642276,57.72357723577235 63.97357723577235,57.72357723577235 63.97357723577235,57.72357723577235 63.97357723577235,57.77439024390244 63.97357723577235,57.77439024390244 63.97357723577235,57.77439024390244 63.97357723577235,57.77439024390244 63.97357723577235,57.77439024390244 63.97357723577235,57.77439024390244 63.97357723577235,57.77439024390244 63.97357723577235,57.77439024390244 63.97357723577235,57.77439024390244 63.97357723577235,57.77439024390244 63.97357723577235,57.77439024390244 63.97357723577235,57.77439024390244 63.97357723577235,57.77439024390244 63.97357723577235,57.77439024390244 63.97357723577235,57.77439024390244 63.97357723577235,57.77439024390244 63.97357723577235,57.77439024390244 63.97357723577235,57.77439024390244 63.97357723577235,57.77439024390244 63.97357723577235,57.77439024390244 63.97357723577235,57.77439024390244 63.97357723577235,57.77439024390244 63.97357723577235,57.77439024390244 63.97357723577235,57.77439024390244 63.97357723577235,57.77439024390244 63.97357723577235,57.77439024390244 63.97357723577235,57.77439024390244 63.97357723577235,57.77439024390244 63.97357723577235,57.77439024390244 63.97357723577235,57.77439024390244 63.97357723577235,57.77439024390244 63.97357723577235,57.77439024390244 63.97357723577235,57.77439024390244 63.97357723577235,57.77439024390244 63.97357723577235,57.77439024390244 63.97357723577235,57.77439024390244 63.97357723577235,57.77439024390244 63.97357723577235,57.77439024390244 63.97357723577235,57.77439024390244" fill="none" stroke="black" stroke-width="0.6"></polyline><polyline points="63.97357723577235,57.77439024390244 63.97357723577235,57.77439024390244 63.97357723577235,57.77439024390244 63.97357723577235,57.77439024390244 63.97357723577235,57.77439024390244 63.97357723577235,57.77439024390244 63.97357723577235,57.77439024390244 63.97357723577235,57.77439024390244 63.97357723577235,57.77439024390244 63.97357723577235,57.77439024390244 63.97357723577235,57.77439024390244 63.97357723577235,57.77439024390244 63.97357723577235,57.77439024390244 63.97357723577235,57.77439024390244 63.97357723577235,57.77439024390244 63.97357723577235,57.77439024390244 63.97357723577235,57.77439024390244 63.97357723577235,57.77439024390244 63.97357723577235,57.77439024390244 63.97357723577235,57.77439024390244 63.97357723577235,57.77439024390244 63.97357723577235,57.77439024390244 63.97357723577235,57.77439024390244 63.97357723577235,57.77439024390244 63.97357723577235,57.77439024390244 63.97357723577235,57.77439024390244 63.97357723577235,57.77439024390244" fill="none" stroke="black" stroke-width="0.6"></polyline><polyline points="65.2439024390244,68.64837398373983 65.09146341463415,68.08943089430895 64.88821138211382,67.22560975609755 64.78658536585365,66.92073170731707 64.78658536585365,66.92073170731707 64.78658536585365,66.97154471544715 64.78658536585365,66.97154471544715 64.78658536585365,67.02235772357723 64.78658536585365,67.02235772357723 64.83739837398373,67.07317073170732 64.83739837398373,67.17479674796748 64.83739837398373,67.27642276422765 64.83739837398373,67.42886178861788 64.88821138211382,67.53048780487805 64.88821138211382,67.58130081300813 64.88821138211382,67.6829268292683 64.88821138211382,67.6829268292683 64.88821138211382,67.73373983739837 64.88821138211382,67.73373983739837 64.88821138211382,67.78455284552845 64.88821138211382,67.78455284552845 64.9390243902439,67.78455284552845 64.9390243902439,67.83536585365853 64.9390243902439,67.83536585365853 64.9390243902439,67.83536585365853 64.9390243902439,67.83536585365853 64.9390243902439,67.88617886178862 64.9390243902439,67.88617886178862 64.98983739837398,67.88617886178862 64.98983739837398,67.88617886178862 64.98983739837398,67.88617886178862 64.98983739837398,67.88617886178862 64.98983739837398,67.88617886178862 64.98983739837398,67.9369918699187 64.98983739837398,67.9369918699187 64.98983739837398,67.9369918699187 65.04065040650406,67.9369918699187 65.04065040650406,67.9369918699187 65.04065040650406,67.9369918699187 65.04065040650406,67.9369918699187 65.04065040650406,67.98780487804878 65.04065040650406,67.98780487804878 65.09146341463415,67.98780487804878 65.09146341463415,67.98780487804878 65.09146341463415,67.98780487804878 65.09146341463415,67.98780487804878 65.09146341463415,67.98780487804878 65.09146341463415,67.98780487804878 65.09146341463415,67.98780487804878 65.09146341463415,67.98780487804878 65.09146341463415,67.98780487804878" fill="none" stroke="black" stroke-width="0.6"></polyline><polyline points="65.09146341463415,67.98780487804878 65.09146341463415,68.03861788617886 65.09146341463415,68.03861788617886 65.09146341463415,68.03861788617886 65.09146341463415,68.03861788617886 65.09146341463415,68.03861788617886 65.09146341463415,68.03861788617886 65.14227642276423,68.03861788617886 65.14227642276423,68.03861788617886 65.14227642276423,68.03861788617886 65.14227642276423,68.03861788617886 65.14227642276423,68.03861788617886 65.14227642276423,68.03861788617886 65.14227642276423,68.03861788617886 65.14227642276423,68.03861788617886 65.14227642276423,68.03861788617886 65.14227642276423,68.03861788617886 65.14227642276423,68.03861788617886 65.14227642276423,68.03861788617886 65.14227642276423,68.03861788617886 65.14227642276423,68.03861788617886 65.14227642276423,68.03861788617886 65.14227642276423,68.03861788617886 65.14227642276423,68.03861788617886 65.14227642276423,68.03861788617886 65.14227642276423,68.03861788617886 65.14227642276423,68.03861788617886 65.14227642276423,68.03861788617886 65.14227642276423,68.03861788617886 65.14227642276423,68.03861788617886 65.14227642276423,68.03861788617886 65.14227642276423,68.03861788617886 65.14227642276423,68.03861788617886 65.14227642276423,68.03861788617886 65.14227642276423,68.03861788617886 65.14227642276423,68.03861788617886 65.14227642276423,68.03861788617886 65.14227642276423,68.03861788617886 65.14227642276423,68.03861788617886 65.14227642276423,68.03861788617886 65.14227642276423,68.03861788617886 65.14227642276423,68.03861788617886 65.14227642276423,68.03861788617886 65.14227642276423,68.03861788617886 65.14227642276423,68.03861788617886 65.14227642276423,68.03861788617886 65.14227642276423,68.03861788617886 65.14227642276423,68.03861788617886 65.14227642276423,68.03861788617886 65.14227642276423,68.03861788617886 65.14227642276423,68.03861788617886" fill="none" stroke="black" stroke-width="0.6"></polyline><polyline points="65.14227642276423,68.03861788617886 65.14227642276423,68.03861788617886 65.14227642276423,68.03861788617886 65.14227642276423,68.03861788617886 65.14227642276423,68.03861788617886 65.14227642276423,68.03861788617886 65.14227642276423,68.03861788617886 65.14227642276423,68.03861788617886 65.14227642276423,68.03861788617886 65.14227642276423,68.03861788617886 65.14227642276423,68.03861788617886 65.14227642276423,68.03861788617886 65.14227642276423,68.03861788617886 65.14227642276423,68.03861788617886 65.14227642276423,68.03861788617886 65.14227642276423,68.03861788617886 65.14227642276423,68.03861788617886 65.14227642276423,68.03861788617886 65.14227642276423,68.03861788617886 65.14227642276423,68.03861788617886 65.14227642276423,68.03861788617886 65.14227642276423,68.03861788617886 65.14227642276423,68.03861788617886 65.14227642276423,68.03861788617886 65.14227642276423,68.03861788617886 65.14227642276423,68.03861788617886" fill="none" stroke="black" stroke-width="0.6"></polyline><polyline points="51.47357723577235,79.11585365853658 51.21951219512195,78.5569105691057 51.11788617886179,77.9979674796748 51.11788617886179,77.74390243902438 51.11788617886179,77.59146341463415 51.11788617886179,77.54065040650406 51.11788617886179,77.54065040650406 51.168699186991866,77.54065040650406 51.168699186991866,77.54065040650406 51.168699186991866,77.54065040650406 51.168699186991866,77.54065040650406 51.168699186991866,77.54065040650406 51.168699186991866,77.54065040650406 51.168699186991866,77.54065040650406 51.168699186991866,77.54065040650406 51.168699186991866,77.59146341463415 51.21951219512195,77.59146341463415 51.21951219512195,77.64227642276423 51.27032520325203,77.6930894308943 51.27032520325203,77.74390243902438 51.32113821138211,77.84552845528455 51.32113821138211,77.89634146341463 51.37195121951219,77.89634146341463 51.37195121951219,77.9979674796748 51.422764227642276,77.9979674796748 51.422764227642276,78.09959349593495 51.47357723577235,78.09959349593495 51.52439024390244,78.15040650406505 51.52439024390244,78.20121951219512 51.52439024390244,78.2520325203252 51.575203252032516,78.2520325203252 51.575203252032516,78.30284552845528 51.6260162601626,78.30284552845528 51.6260162601626,78.30284552845528 51.6260162601626,78.30284552845528 51.6260162601626,78.30284552845528 51.6260162601626,78.30284552845528 51.6260162601626,78.30284552845528 51.6260162601626,78.30284552845528 51.6260162601626,78.30284552845528 51.6260162601626,78.30284552845528 51.6260162601626,78.30284552845528 51.6260162601626,78.30284552845528 51.6260162601626,78.2520325203252 51.6260162601626,78.2520325203252 51.6260162601626,78.2520325203252 51.6260162601626,78.2520325203252 51.6260162601626,78.2520325203252 51.6260162601626,78.2520325203252 51.6260162601626,78.2520325203252 51.6260162601626,78.2520325203252" fill="none" stroke="black" stroke-width="0.6"></polyline><polyline points="51.6260162601626,78.2520325203252 51.6260162601626,78.2520325203252 51.6260162601626,78.2520325203252 51.6260162601626,78.2520325203252 51.6260162601626,78.2520325203252 51.6260162601626,78.2520325203252 51.575203252032516,78.2520325203252 51.575203252032516,78.2520325203252 51.575203252032516,78.2520325203252 51.575203252032516,78.2520325203252 51.575203252032516,78.2520325203252 51.575203252032516,78.2520325203252 51.575203252032516,78.2520325203252 51.575203252032516,78.2520325203252 51.575203252032516,78.2520325203252 51.575203252032516,78.2520325203252 51.575203252032516,78.2520325203252 51.575203252032516,78.30284552845528 51.52439024390244,78.45528455284553 51.422764227642276,78.65853658536585" fill="none" stroke="black" stroke-width="0.6"></polyline><polyline points="59.298780487804876,81.04674796747967 59.298780487804876,80.89430894308943 59.146341463414636,80.53861788617886 59.09552845528455,80.38617886178862 59.09552845528455,80.23373983739837 59.04471544715447,80.03048780487805 59.04471544715447,79.97967479674797 59.04471544715447,79.97967479674797 59.04471544715447,79.97967479674797 59.04471544715447,79.97967479674797 59.04471544715447,79.97967479674797 59.04471544715447,79.97967479674797 59.04471544715447,79.97967479674797 59.04471544715447,79.97967479674797 59.04471544715447,79.97967479674797 59.04471544715447,79.97967479674797 59.04471544715447,80.03048780487805 59.04471544715447,80.03048780487805 59.04471544715447,80.03048780487805 59.04471544715447,80.03048780487805 59.04471544715447,80.03048780487805 59.04471544715447,80.03048780487805 59.04471544715447,80.03048780487805 59.04471544715447,80.03048780487805 59.04471544715447,80.03048780487805 59.04471544715447,80.03048780487805 59.09552845528455,80.03048780487805 59.09552845528455,80.08130081300813 59.09552845528455,80.08130081300813 59.09552845528455,80.08130081300813 59.09552845528455,80.1321138211382 59.09552845528455,80.1321138211382 59.09552845528455,80.1321138211382 59.09552845528455,80.1321138211382 59.09552845528455,80.1829268292683 59.09552845528455,80.1829268292683 59.146341463414636,80.1829268292683 59.146341463414636,80.1829268292683 59.146341463414636,80.23373983739837 59.146341463414636,80.23373983739837 59.146341463414636,80.23373983739837 59.146341463414636,80.23373983739837 59.146341463414636,80.28455284552845 59.146341463414636,80.28455284552845 59.146341463414636,80.28455284552845 59.146341463414636,80.33536585365853 59.146341463414636,80.33536585365853 59.146341463414636,80.33536585365853 59.146341463414636,80.33536585365853 59.146341463414636,80.38617886178862 59.146341463414636,80.38617886178862" fill="none" stroke="black" stroke-width="0.6"></polyline><polyline points="59.146341463414636,80.38617886178862 59.197154471544714,80.4369918699187 59.197154471544714,80.48780487804878 59.197154471544714,80.53861788617886" fill="none" stroke="black" stroke-width="0.6"></polyline><polyline points="21.90040650406504,83.28252032520325 22.052845528455283,83.4349593495935" fill="none" stroke="black" stroke-width="0.6"></polyline><polyline points="76.01626016260163,81.55487804878048 75.91463414634146,81.14837398373983 75.76219512195122,80.74186991869918 75.66056910569105,80.48780487804878 75.66056910569105,80.38617886178862 75.66056910569105,80.38617886178862 75.66056910569105,80.38617886178862 75.66056910569105,80.38617886178862 75.66056910569105,80.38617886178862 75.66056910569105,80.4369918699187 75.66056910569105,80.4369918699187 75.66056910569105,80.4369918699187 75.66056910569105,80.4369918699187 75.71138211382113,80.4369918699187 75.71138211382113,80.48780487804878 75.71138211382113,80.48780487804878 75.71138211382113,80.53861788617886 75.76219512195122,80.53861788617886 75.76219512195122,80.58943089430895 75.8130081300813,80.64024390243902 75.8130081300813,80.64024390243902 75.8130081300813,80.6910569105691 75.8130081300813,80.6910569105691 75.8130081300813,80.74186991869918 75.86382113821138,80.74186991869918 75.86382113821138,80.79268292682927 75.86382113821138,80.79268292682927 75.86382113821138,80.79268292682927 75.91463414634146,80.84349593495935 75.91463414634146,80.84349593495935 75.91463414634146,80.89430894308943 75.91463414634146,80.89430894308943 75.91463414634146,80.89430894308943 75.96544715447155,80.89430894308943 75.96544715447155,80.9451219512195 75.96544715447155,80.9451219512195 75.96544715447155,80.9451219512195 75.96544715447155,80.9451219512195 75.96544715447155,80.9451219512195 75.96544715447155,80.9451219512195 75.96544715447155,80.9451219512195 75.96544715447155,80.9451219512195 75.96544715447155,80.9451219512195 75.96544715447155,80.9451219512195 75.96544715447155,80.9451219512195 75.96544715447155,80.9451219512195 75.96544715447155,80.9451219512195 75.96544715447155,80.9451219512195 75.96544715447155,80.9451219512195 75.96544715447155,80.9451219512195 75.96544715447155,80.9451219512195" fill="none" stroke="black" stroke-width="0.6"></polyline><polyline points="75.96544715447155,80.9451219512195 75.96544715447155,80.9451219512195 75.96544715447155,80.89430894308943 75.96544715447155,80.89430894308943 75.96544715447155,80.89430894308943 75.96544715447155,80.89430894308943 75.96544715447155,80.89430894308943 75.96544715447155,80.89430894308943 75.96544715447155,80.89430894308943 75.96544715447155,80.89430894308943 75.91463414634146,80.89430894308943 75.91463414634146,80.89430894308943 75.91463414634146,80.89430894308943" fill="none" stroke="black" stroke-width="0.6"></polyline></svg>