<svg height="100" width="100" preserveAspectRatio="xMidYMid meet"><polyline points="56.75813008130081,45.579268292682926 55.99593495934959,45.68089430894309 55.33536585365854,45.73170731707317 54.36991869918699,46.1890243902439 53.2520325203252,46.84959349593496 51.880081300813,47.61178861788618 50.40650406504065,48.47560975609756 48.93292682926829,49.390243902439025 47.459349593495936,50.2540650406504 45.985772357723576,51.21951219512195 44.71544715447154,52.083333333333336 43.64837398373984,52.79471544715447 42.886178861788615,53.302845528455286 42.68292682926829,53.55691056910569 42.68292682926829,53.607723577235774 43.140243902439025,53.607723577235774 44.30894308943089,53.50609756097561 46.239837398373986,52.84552845528455 48.6280487804878,51.981707317073166 50.86382113821138,51.0670731707317 53.302845528455286,50.15243902439024 55.89430894308943,49.23780487804878 58.18089430894309,48.42479674796748 60.3150406504065,47.61178861788618 62.296747967479675,46.951219512195124 63.77032520325203,46.44308943089431 64.88821138211382,46.08739837398374 65.34552845528455,45.9349593495935 65.09146341463415,45.9349593495935 63.922764227642276,46.290650406504064 62.042682926829265,47.103658536585364 59.75609756097561,48.11991869918699 57.012195121951216,49.28861788617886 53.96341463414634,50.71138211382114 50.96544715447154,52.083333333333336 48.11991869918699,53.45528455284553 45.73170731707317,54.573170731707314 44.41056910569105,55.233739837398375 43.90243902439024,55.386178861788615 44.05487804878049,55.386178861788615 44.96951219512195,55.28455284552845 46.646341463414636,54.72560975609756 48.88211382113821,53.96341463414634 51.37195121951219,53.09959349593496 54.21747967479675,52.13414634146341 56.859756097560975,51.27032520325203 59.40040650406504,50.45731707317073 61.58536585365854,49.69512195121951 63.00813008130081,49.1869918699187 63.87195121951219,48.93292682926829 64.1260162601626,48.93292682926829" fill="none" stroke="black" stroke-width="0.6"></polyline><polyline points="64.1260162601626,48.93292682926829 64.02439024390243,48.983739837398375 63.21138211382114,49.64430894308943 61.73780487804878,50.762195121951216 59.5020325203252,52.235772357723576 56.91056910569105,54.0650406504065 54.31910569105691,55.94512195121951 51.77845528455284,57.92682926829268 49.59349593495935,59.65447154471545 48.22154471544715,60.92479674796748 47.61178861788618,61.890243902439025 47.510162601626014,62.60162601626016 47.71341463414634,63.05894308943089" fill="none" stroke="black" stroke-width="0.6"></polyline></svg>