<svg height="100" width="100" preserveAspectRatio="xMidYMid meet"><polyline points="50.40650406504065,49.949186991869915 50.40650406504065,49.89837398373984 50.355691056910565,49.84756097560975 50.30487804878049,49.796747967479675 50.2540650406504,49.74593495934959 50.2540650406504,49.69512195121951 50.203252032520325,49.64430894308943 50.203252032520325,49.542682926829265 50.203252032520325,49.4410569105691 50.2540650406504,49.33943089430894 50.355691056910565,49.1869918699187 50.40650406504065,49.03455284552845 50.55894308943089,48.83130081300813 50.66056910569105,48.577235772357724 50.8130081300813,48.323170731707314 51.016260162601625,47.916666666666664 51.21951219512195,47.510162601626014 51.422764227642276,47.052845528455286 51.67682926829268,46.54471544715447 51.829268292682926,45.985772357723576 51.93089430894309,45.47764227642276 51.981707317073166,44.918699186991866 52.03252032520325,44.46138211382114 52.03252032520325,44.0040650406504 51.93089430894309,43.546747967479675 51.77845528455284,43.140243902439025 51.575203252032516,42.733739837398375 51.37195121951219,42.3780487804878 51.11788617886179,42.1239837398374 50.8130081300813,41.76829268292683 50.40650406504065,41.46341463414634 50.05081300813008,41.260162601626014 49.64430894308943,41.05691056910569 49.1869918699187,40.90447154471545 48.67886178861789,40.853658536585364 48.170731707317074,40.853658536585364 47.61178861788618,40.95528455284553 47.052845528455286,41.15853658536585 46.44308943089431,41.514227642276424 45.78252032520325,41.920731707317074 45.172764227642276,42.42886178861789 44.5630081300813,42.98780487804878 43.90243902439024,43.64837398373984 43.34349593495935,44.41056910569105 42.78455284552845,45.172764227642276 42.22560975609756,46.03658536585366 41.81910569105691,46.951219512195124 41.46341463414634,47.86585365853659 41.15853658536585,48.88211382113821 41.00609756097561,49.89837398373984 40.90447154471545,50.96544715447154" fill="none" stroke="black" stroke-width="0.6"></polyline><polyline points="40.90447154471545,50.96544715447154 40.853658536585364,51.981707317073166 40.90447154471545,52.947154471544714 41.15853658536585,53.86178861788618 41.46341463414634,54.77642276422764 41.86991869918699,55.48780487804878 42.3780487804878,56.09756097560975 42.98780487804878,56.65650406504065 43.64837398373984,57.0630081300813 44.41056910569105,57.418699186991866 45.22357723577235,57.672764227642276 46.08739837398374,57.825203252032516 47.0020325203252,57.825203252032516 48.01829268292683,57.825203252032516 48.983739837398375,57.672764227642276 50,57.36788617886179 51.016260162601625,56.859756097560975 52.03252032520325,56.14837398373984 53.048780487804876,55.386178861788615 54.014227642276424,54.420731707317074 54.92886178861789,53.40447154471545 55.84349593495935,52.235772357723576 56.55487804878049,51.11788617886179 57.21544715447154,49.89837398373984 57.825203252032516,48.577235772357724 58.231707317073166,47.357723577235774 58.536585365853654,46.08739837398374 58.6890243902439,44.71544715447154 58.739837398373986,43.546747967479675 58.58739837398374,42.327235772357724 58.231707317073166,41.107723577235774 57.672764227642276,40.09146341463415 56.96138211382114,39.176829268292686 56.046747967479675,38.36382113821138 55.03048780487805,37.90650406504065 53.86178861788618,37.5 52.489837398373986,37.24593495934959 51.21951219512195,37.14430894308943 49.84756097560975,37.14430894308943 48.42479674796748,37.24593495934959 47.15447154471545,37.5 45.88414634146341,37.855691056910565 44.5630081300813,38.36382113821138 43.44512195121951,38.922764227642276 42.27642276422764,39.63414634146341 41.107723577235774,40.4979674796748 40.09146341463415,41.36178861788618 39.07520325203252,42.479674796747965 38.05894308943089,43.85162601626016 37.24593495934959,45.22357723577235 36.483739837398375,46.84959349593496" fill="none" stroke="black" stroke-width="0.6"></polyline><polyline points="36.483739837398375,46.84959349593496 35.77235772357724,48.577235772357724 35.264227642276424,50.203252032520325 34.80691056910569,51.880081300813 34.5020325203252,53.50609756097561 34.298780487804876,55.03048780487805 34.2479674796748,56.55487804878049 34.298780487804876,57.92682926829268 34.5020325203252,59.197154471544714 34.90853658536585,60.46747967479675 35.416666666666664,61.53455284552845 36.077235772357724,62.34756097560975 36.9410569105691,63.109756097560975 37.855691056910565,63.77032520325203 38.922764227642276,64.27845528455285 40.09146341463415,64.6341463414634 41.41260162601626,64.83739837398373 42.733739837398375,64.83739837398373 44.15650406504065,64.73577235772358 45.63008130081301,64.380081300813 47.103658536585364,63.87195121951219 48.67886178861789,63.16056910569105 50.203252032520325,62.24593495934959 51.72764227642276,61.229674796747965 53.2520325203252,60.010162601626014 54.67479674796748,58.739837398373986 56.046747967479675,57.418699186991866 57.3170731707317,55.99593495934959 58.536585365853654,54.6239837398374 59.603658536585364,53.201219512195124 60.56910569105691,51.77845528455284 61.38211382113821,50.30487804878049 62.09349593495935,48.83130081300813 62.65243902439024,47.25609756097561 63.109756097560975,45.73170731707317 63.41463414634146,44.25813008130081 63.5670731707317,42.68292682926829 63.61788617886179,41.15853658536585 63.5670731707317,39.63414634146341 63.3130081300813,38.05894308943089 62.95731707317073,36.73780487804878 62.449186991869915,35.416666666666664 61.78861788617886,34.2479674796748 61.077235772357724,33.333333333333336 60.16260162601626,32.418699186991866 59.09552845528455,31.554878048780488 58.079268292682926,30.945121951219512 56.859756097560975,30.335365853658537 55.48780487804878,29.878048780487806 54.166666666666664,29.573170731707318 52.69308943089431,29.369918699186993" fill="none" stroke="black" stroke-width="0.6"></polyline><polyline points="52.69308943089431,29.369918699186993 51.11788617886179,29.31910569105691 49.542682926829265,29.420731707317074 47.8150406504065,29.776422764227643 45.88414634146341,30.4369918699187 44.05487804878049,31.351626016260163 42.02235772357724,32.52032520325203 39.88821138211382,33.94308943089431 37.90650406504065,35.46747967479675 35.8739837398374,37.19512195121951 33.892276422764226,39.07520325203252 32.21544715447154,40.853658536585364 30.589430894308943,42.78455284552845 29.115853658536583,44.71544715447154 27.947154471544714,46.59552845528455 26.93089430894309,48.52642276422764 26.067073170731707,50.66056910569105 25.45731707317073,52.74390243902439 25,54.92886178861789 24.745934959349594,57.21544715447154 24.695121951219512,59.40040650406504 24.796747967479675,61.58536585365854 25.101626016260163,63.71951219512195 25.558943089430894,65.65040650406505 26.16869918699187,67.42886178861788 26.880081300813007,68.95325203252033 27.84552845528455,70.32520325203252 28.96341463414634,71.54471544715447 30.284552845528456,72.61178861788618 31.70731707317073,73.42479674796748 33.28252032520325,74.03455284552845 34.959349593495936,74.54268292682927 36.78861788617886,74.7459349593496 38.668699186991866,74.79674796747967 40.59959349593496,74.6951219512195 42.63211382113821,74.33943089430895 44.66463414634146,73.72967479674797 46.7479674796748,72.96747967479675 48.78048780487805,72.05284552845528 50.8130081300813,70.9349593495935 52.79471544715447,69.61382113821138 54.67479674796748,68.1910569105691 56.55487804878049,66.5650406504065 58.33333333333333,64.83739837398373 59.959349593495936,63.05894308943089 61.58536585365854,61.28048780487805 63.00813008130081,59.451219512195124 64.32926829268293,57.57113821138211 65.54878048780488,55.640243902439025 66.66666666666667,53.760162601626014 67.58130081300813,51.77845528455284" fill="none" stroke="black" stroke-width="0.6"></polyline><polyline points="67.58130081300813,51.77845528455284 68.39430894308943,49.796747967479675 69.05487804878048,47.8150406504065 69.5630081300813,45.78252032520325 69.91869918699187,43.80081300813008 70.02032520325203,41.86991869918699 70.02032520325203,39.9390243902439 69.76626016260163,38.109756097560975 69.3089430894309,36.53455284552845 68.69918699186992,35.010162601626014 67.88617886178862,33.53658536585366 67.02235772357723,32.266260162601625 65.90447154471545,30.995934959349594 64.73577235772358,29.827235772357724 63.516260162601625,28.861788617886177 62.14430894308943,27.896341463414632 60.670731707317074,27.03252032520325 59.197154471544714,26.371951219512194 57.57113821138211,25.8130081300813 55.792682926829265,25.40650406504065 54.0650406504065,25.254065040650406 52.13414634146341,25.254065040650406 50,25.558943089430894 48.01829268292683,26.016260162601625 45.78252032520325,26.778455284552845 43.44512195121951,27.642276422764226 41.3109756097561,28.709349593495933 39.02439024390244,29.979674796747968 36.6869918699187,31.453252032520325 34.65447154471545,32.8760162601626 32.57113821138211,34.5020325203252 30.538617886178862,36.33130081300813 28.709349593495933,38.109756097560975 26.98170731707317,40.09146341463415 25.304878048780488,42.17479674796748 23.83130081300813,44.20731707317073 22.459349593495933,46.392276422764226 21.290650406504064,48.729674796747965 20.32520325203252,50.96544715447154 19.51219512195122,53.353658536585364 18.902439024390244,55.89430894308943 18.546747967479675,58.33333333333333 18.39430894308943,60.823170731707314 18.34349593495935,63.36382113821138 18.597560975609756,65.7520325203252 19.004065040650406,68.08943089430895 19.61382113821138,70.27439024390243 20.3760162601626,72.3069105691057 21.290650406504064,74.1869918699187 22.35772357723577,75.91463414634146 23.628048780487806,77.54065040650406" fill="none" stroke="black" stroke-width="0.6"></polyline><polyline points="23.628048780487806,77.54065040650406 25,79.01422764227642 26.422764227642276,80.28455284552845 28.048780487804876,81.5040650406504 29.725609756097562,82.5711382113821 31.504065040650406,83.58739837398373 33.38414634146341,84.40040650406503 35.36585365853659,85.16260162601625 37.296747967479675,85.72154471544715 39.329268292682926,86.02642276422765 41.41260162601626,86.22967479674797 43.49593495934959,86.22967479674797 45.579268292682926,86.1280487804878 47.66260162601626,85.82317073170732 49.64430894308943,85.36585365853658 51.6260162601626,84.65447154471545 53.50609756097561,83.89227642276423 55.28455284552845,83.02845528455285 57.012195121951216,82.0630081300813 58.63821138211382,81.04674796747967 60.16260162601626,79.92886178861788 61.58536585365854,78.8109756097561 63.00813008130081,77.54065040650406 64.27845528455285,76.3211382113821 65.44715447154472,75.05081300813008 66.61585365853658,73.67886178861788 67.6829268292683,72.3069105691057 68.64837398373983,70.8841463414634 69.61382113821138,69.41056910569105 70.42682926829268,67.98780487804878 71.23983739837398,66.51422764227642 72.0020325203252,64.98983739837398 72.61178861788618,63.61788617886179 73.22154471544715,62.14430894308943 73.72967479674797,60.61991869918699 74.13617886178862,59.197154471544714 74.4410569105691,57.77439024390244 74.6951219512195,56.40243902439024 74.79674796747967,55.233739837398375 74.84756097560975,54.166666666666664 74.79674796747967,53.201219512195124 74.6951219512195,52.489837398373986 74.59349593495935,51.72764227642276 74.54268292682927,51.168699186991866 74.54268292682927,50.71138211382114 74.54268292682927,50.203252032520325 74.59349593495935,49.64430894308943 74.6951219512195,49.1869918699187 74.79674796747967,48.67886178861789 75,48.11991869918699 75.10162601626016,47.5609756097561" fill="none" stroke="black" stroke-width="0.6"></polyline><polyline points="75.10162601626016,47.5609756097561 75.20325203252033,47.25609756097561" fill="none" stroke="black" stroke-width="0.6"></polyline></svg>