<svg height="100" width="100" preserveAspectRatio="xMidYMid meet"><polyline points="50.2540650406504,50.05081300813008 50.2540650406504,50.05081300813008 50.203252032520325,50.05081300813008 50.15243902439024,50.05081300813008 50.15243902439024,50.05081300813008 50.10162601626016,50.05081300813008 50.10162601626016,50.05081300813008 50.10162601626016,50.05081300813008 50.10162601626016,50.05081300813008 50.10162601626016,50.05081300813008 50.10162601626016,50.05081300813008 50.10162601626016,50.05081300813008 50.10162601626016,50.05081300813008 50.10162601626016,50.05081300813008 50.10162601626016,50.05081300813008 50.10162601626016,50.05081300813008 50.10162601626016,50.05081300813008 50.10162601626016,50.05081300813008 50.10162601626016,50.05081300813008 50.10162601626016,50.05081300813008 50.10162601626016,50.05081300813008 50.10162601626016,50.05081300813008 50.10162601626016,50.05081300813008 50.10162601626016,50.05081300813008 50.10162601626016,50.05081300813008 50.15243902439024,50.05081300813008 50.15243902439024,50.05081300813008 50.15243902439024,50.05081300813008 50.15243902439024,50.05081300813008 50.15243902439024,50.05081300813008 50.15243902439024,50.05081300813008 50.15243902439024,50.05081300813008 50.15243902439024,50.05081300813008 50.15243902439024,50.05081300813008 50.15243902439024,50.05081300813008 50.15243902439024,50.05081300813008 50.15243902439024,50.05081300813008 50.15243902439024,50.05081300813008 50.15243902439024,50.05081300813008 50.15243902439024,50.05081300813008 50.15243902439024,50.05081300813008 50.15243902439024,50.05081300813008 50.15243902439024,50.05081300813008 50.15243902439024,50.05081300813008 50.15243902439024,50.05081300813008 50.15243902439024,50.05081300813008 50.15243902439024,50.05081300813008 50.15243902439024,50.05081300813008 50.15243902439024,50.05081300813008 50.15243902439024,50.05081300813008 50.15243902439024,50.05081300813008" fill="none" stroke="black" stroke-width="0.6"></polyline><polyline points="50.15243902439024,50.05081300813008 50.15243902439024,50.05081300813008 50.15243902439024,50.05081300813008 50.15243902439024,50.05081300813008 50.15243902439024,50.05081300813008 50.15243902439024,50.05081300813008 50.15243902439024,50.05081300813008 50.15243902439024,50.05081300813008 50.15243902439024,50.05081300813008 50.15243902439024,50.05081300813008 50.15243902439024,50.05081300813008 50.15243902439024,50.05081300813008 50.15243902439024,50.05081300813008 50.15243902439024,50.05081300813008 50.15243902439024,50.05081300813008 50.15243902439024,50.05081300813008 50.15243902439024,50.05081300813008 50.15243902439024,50.05081300813008 50.15243902439024,50.05081300813008 50.15243902439024,50.05081300813008 50.15243902439024,50.05081300813008 50.15243902439024,50.05081300813008 50.15243902439024,50.05081300813008 50.15243902439024,50.05081300813008 50.15243902439024,50.05081300813008 50.15243902439024,50.05081300813008 50.15243902439024,50.05081300813008 50.15243902439024,50.05081300813008 50.15243902439024,50.05081300813008 50.15243902439024,50.05081300813008 50.15243902439024,50.05081300813008 50.15243902439024,50.05081300813008 50.15243902439024,50.05081300813008 50.15243902439024,50.05081300813008 50.15243902439024,50.05081300813008 50.15243902439024,50.05081300813008 50.15243902439024,50.05081300813008 50.15243902439024,50.05081300813008 50.15243902439024,50.05081300813008 50.15243902439024,50.05081300813008 50.15243902439024,50.05081300813008 50.15243902439024,50.05081300813008 50.15243902439024,50.05081300813008 50.15243902439024,50.05081300813008 50.15243902439024,50.05081300813008 50.15243902439024,50.05081300813008 50.15243902439024,50.05081300813008 50.15243902439024,50.05081300813008 50.15243902439024,50.05081300813008 50.15243902439024,50.05081300813008 50.15243902439024,50" fill="none" stroke="black" stroke-width="0.6"></polyline><polyline points="50.15243902439024,50 50.15243902439024,50 50.15243902439024,50 50.203252032520325,50 50.203252032520325,50 50.203252032520325,50 50.203252032520325,49.949186991869915 50.2540650406504,49.949186991869915 50.2540650406504,49.949186991869915 50.2540650406504,49.949186991869915 50.2540650406504,49.949186991869915 50.2540650406504,49.89837398373984 50.30487804878049,49.89837398373984 50.30487804878049,49.89837398373984 50.30487804878049,49.89837398373984 50.30487804878049,49.89837398373984 50.355691056910565,49.89837398373984 50.355691056910565,49.89837398373984 50.355691056910565,49.84756097560975 50.355691056910565,49.84756097560975 50.40650406504065,49.84756097560975 50.40650406504065,49.84756097560975 50.40650406504065,49.84756097560975 50.45731707317073,49.84756097560975 50.45731707317073,49.84756097560975 50.50813008130081,49.84756097560975 50.50813008130081,49.84756097560975 50.55894308943089,49.84756097560975 50.55894308943089,49.84756097560975" fill="none" stroke="black" stroke-width="0.6"></polyline><polyline points="56.75813008130081,49.84756097560975 56.75813008130081,49.84756097560975 56.70731707317073,49.84756097560975 56.70731707317073,49.89837398373984 56.65650406504065,49.89837398373984 56.65650406504065,49.89837398373984 56.65650406504065,49.89837398373984 56.65650406504065,49.89837398373984 56.65650406504065,49.89837398373984 56.65650406504065,49.89837398373984 56.65650406504065,49.89837398373984 56.65650406504065,49.89837398373984 56.65650406504065,49.89837398373984 56.65650406504065,49.89837398373984 56.65650406504065,49.89837398373984 56.65650406504065,49.89837398373984 56.65650406504065,49.89837398373984 56.65650406504065,49.89837398373984 56.65650406504065,49.89837398373984 56.65650406504065,49.89837398373984 56.65650406504065,49.89837398373984 56.65650406504065,49.89837398373984 56.65650406504065,49.89837398373984 56.65650406504065,49.89837398373984 56.70731707317073,49.89837398373984 56.70731707317073,49.89837398373984 56.70731707317073,49.89837398373984 56.70731707317073,49.89837398373984 56.70731707317073,49.89837398373984 56.70731707317073,49.89837398373984 56.70731707317073,49.89837398373984 56.70731707317073,49.89837398373984 56.70731707317073,49.89837398373984 56.70731707317073,49.89837398373984 56.70731707317073,49.89837398373984 56.70731707317073,49.89837398373984 56.70731707317073,49.89837398373984 56.70731707317073,49.89837398373984 56.70731707317073,49.89837398373984 56.70731707317073,49.89837398373984 56.70731707317073,49.89837398373984 56.70731707317073,49.89837398373984 56.70731707317073,49.89837398373984 56.70731707317073,49.89837398373984 56.70731707317073,49.89837398373984 56.70731707317073,49.89837398373984 56.70731707317073,49.89837398373984 56.70731707317073,49.89837398373984 56.70731707317073,49.89837398373984 56.70731707317073,49.89837398373984 56.70731707317073,49.89837398373984" fill="none" stroke="black" stroke-width="0.6"></polyline><polyline points="56.70731707317073,49.89837398373984 56.70731707317073,49.89837398373984 56.70731707317073,49.89837398373984 56.70731707317073,49.89837398373984 56.70731707317073,49.89837398373984 56.70731707317073,49.89837398373984 56.70731707317073,49.89837398373984 56.70731707317073,49.89837398373984 56.70731707317073,49.89837398373984 56.70731707317073,49.89837398373984" fill="none" stroke="black" stroke-width="0.6"></polyline><polyline points="63.516260162601625,50 63.516260162601625,50 63.516260162601625,50 63.516260162601625,50 63.46544715447154,50 63.46544715447154,50 63.46544715447154,50.05081300813008 63.46544715447154,50.05081300813008 63.41463414634146,50.05081300813008 63.41463414634146,50.05081300813008 63.41463414634146,50.05081300813008 63.41463414634146,50.05081300813008 63.41463414634146,50.05081300813008 63.41463414634146,50.05081300813008 63.41463414634146,50.05081300813008 63.41463414634146,50.05081300813008 63.41463414634146,50.05081300813008 63.41463414634146,50.05081300813008 63.41463414634146,50.05081300813008 63.41463414634146,50.05081300813008 63.41463414634146,50.05081300813008 63.41463414634146,50.05081300813008 63.41463414634146,50.05081300813008 63.41463414634146,50.05081300813008 63.41463414634146,50.05081300813008 63.41463414634146,50.05081300813008 63.41463414634146,50.05081300813008 63.41463414634146,50.05081300813008 63.41463414634146,50.05081300813008 63.41463414634146,50.05081300813008 63.41463414634146,50.05081300813008 63.41463414634146,50.05081300813008 63.41463414634146,50.05081300813008 63.41463414634146,50.05081300813008 63.41463414634146,50.05081300813008 63.41463414634146,50.05081300813008 63.41463414634146,50.05081300813008 63.41463414634146,50.05081300813008 63.41463414634146,50.05081300813008 63.41463414634146,50.05081300813008 63.41463414634146,50.05081300813008 63.41463414634146,50.05081300813008 63.41463414634146,50.05081300813008 63.41463414634146,50.05081300813008 63.41463414634146,50.05081300813008 63.41463414634146,50.05081300813008 63.41463414634146,50.05081300813008 63.41463414634146,50.05081300813008 63.41463414634146,50.05081300813008 63.41463414634146,50.05081300813008 63.41463414634146,50.05081300813008" fill="none" stroke="black" stroke-width="0.6"></polyline><polyline points="63.41463414634146,50.05081300813008 63.46544715447154,50.05081300813008" fill="none" stroke="black" stroke-width="0.6"></polyline><polyline points="70.02032520325203,50.86382113821138 70.02032520325203,50.86382113821138 70.02032520325203,50.86382113821138 70.02032520325203,50.86382113821138 70.02032520325203,50.86382113821138 70.02032520325203,50.86382113821138 70.02032520325203,50.86382113821138 70.02032520325203,50.8130081300813 70.02032520325203,50.8130081300813 70.02032520325203,50.8130081300813 70.02032520325203,50.8130081300813 70.0711382113821,50.8130081300813 70.0711382113821,50.8130081300813 70.0711382113821,50.8130081300813 70.0711382113821,50.8130081300813 70.0711382113821,50.8130081300813 70.0711382113821,50.8130081300813 70.0711382113821,50.8130081300813 70.0711382113821,50.8130081300813 70.0711382113821,50.8130081300813 70.0711382113821,50.8130081300813 70.0711382113821,50.8130081300813" fill="none" stroke="black" stroke-width="0.6"></polyline><polyline points="76.82926829268293,50.2540650406504 76.82926829268293,50.2540650406504 76.82926829268293,50.2540650406504 76.82926829268293,50.2540650406504 76.82926829268293,50.2540650406504 76.82926829268293,50.2540650406504 76.82926829268293,50.2540650406504 76.82926829268293,50.2540650406504 76.82926829268293,50.2540650406504 76.82926829268293,50.2540650406504 76.82926829268293,50.2540650406504 76.82926829268293,50.2540650406504 76.82926829268293,50.2540650406504 76.82926829268293,50.2540650406504 76.82926829268293,50.2540650406504 76.82926829268293,50.2540650406504 76.82926829268293,50.2540650406504 76.82926829268293,50.2540650406504 76.82926829268293,50.2540650406504 76.82926829268293,50.2540650406504 76.82926829268293,50.2540650406504 76.82926829268293,50.2540650406504 76.82926829268293,50.2540650406504 76.82926829268293,50.2540650406504 76.82926829268293,50.2540650406504" fill="none" stroke="black" stroke-width="0.6"></polyline></svg>