<svg height="100" width="100" preserveAspectRatio="xMidYMid meet"><polyline points="50.30487804878049,50.10162601626016 50.30487804878049,50.10162601626016 50.2540650406504,50.10162601626016 50.203252032520325,50.10162601626016 50.15243902439024,50.10162601626016 50.15243902439024,50.10162601626016 50.10162601626016,50.10162601626016 50.10162601626016,50.10162601626016 50.10162601626016,50.10162601626016 50.10162601626016,50.10162601626016 50.10162601626016,50.10162601626016 50.10162601626016,50.10162601626016 50.10162601626016,50.10162601626016 50.10162601626016,50.10162601626016 50.10162601626016,50.10162601626016 50.10162601626016,50.10162601626016 50.10162601626016,50.10162601626016 50.10162601626016,50.10162601626016 50.10162601626016,50.10162601626016 50.10162601626016,50.10162601626016 50.10162601626016,50.10162601626016 50.10162601626016,50.10162601626016 50.15243902439024,50.10162601626016 50.15243902439024,50.05081300813008 50.15243902439024,49.949186991869915 50.203252032520325,49.84756097560975 50.203252032520325,49.69512195121951 50.30487804878049,49.542682926829265 50.355691056910565,49.28861788617886 50.40650406504065,49.08536585365854 50.50813008130081,48.83130081300813 50.55894308943089,48.577235772357724 50.55894308943089,48.3739837398374 50.609756097560975,48.11991869918699 50.609756097560975,47.916666666666664 50.55894308943089,47.764227642276424 50.45731707317073,47.61178861788618 50.30487804878049,47.510162601626014 50.203252032520325,47.40853658536585 50.05081300813008,47.30691056910569 49.84756097560975,47.25609756097561 49.69512195121951,47.20528455284553 49.49186991869919,47.15447154471545 49.28861788617886,47.103658536585364 49.136178861788615,47.052845528455286 48.93292682926829,47.052845528455286 48.729674796747965,47.0020325203252 48.577235772357724,47.0020325203252 48.42479674796748,47.0020325203252 48.27235772357724,47.0020325203252 48.11991869918699,47.0020325203252" fill="none" stroke="black" stroke-width="0.6"></polyline><polyline points="48.11991869918699,47.0020325203252 47.96747967479675,47.103658536585364 47.8150406504065,47.25609756097561 47.61178861788618,47.40853658536585 47.459349593495936,47.5609756097561 47.25609756097561,47.764227642276424 47.103658536585364,48.01829268292683 46.90040650406504,48.323170731707314 46.7479674796748,48.6280487804878 46.54471544715447,48.93292682926829 46.392276422764226,49.23780487804878 46.290650406504064,49.49186991869919 46.239837398373986,49.74593495934959 46.1890243902439,50 46.1890243902439,50.203252032520325 46.1890243902439,50.40650406504065 46.1890243902439,50.66056910569105 46.239837398373986,50.86382113821138 46.34146341463415,51.0670731707317 46.44308943089431,51.27032520325203 46.54471544715447,51.422764227642276 46.646341463414636,51.6260162601626 46.7479674796748,51.829268292682926 46.90040650406504,51.981707317073166 47.0020325203252,52.13414634146341 47.15447154471545,52.33739837398374 47.30691056910569,52.4390243902439 47.40853658536585,52.59146341463415 47.61178861788618,52.74390243902439 47.764227642276424,52.84552845528455 47.916666666666664,52.947154471544714 48.11991869918699,53.048780487804876 48.323170731707314,53.09959349593496 48.52642276422764,53.15040650406504 48.729674796747965,53.201219512195124 48.983739837398375,53.2520325203252 49.23780487804878,53.2520325203252 49.4410569105691,53.2520325203252 49.69512195121951,53.2520325203252 49.89837398373984,53.2520325203252 50.10162601626016,53.2520325203252 50.2540650406504,53.201219512195124 50.40650406504065,53.09959349593496 50.55894308943089,52.9979674796748 50.71138211382114,52.896341463414636 50.86382113821138,52.74390243902439 51.016260162601625,52.540650406504064 51.11788617886179,52.33739837398374 51.27032520325203,52.13414634146341 51.422764227642276,51.93089430894309 51.52439024390244,51.72764227642276" fill="none" stroke="black" stroke-width="0.6"></polyline><polyline points="51.52439024390244,51.72764227642276 51.67682926829268,51.47357723577235 51.77845528455284,51.27032520325203 51.880081300813,51.0670731707317 51.981707317073166,50.86382113821138 52.083333333333336,50.609756097560975 52.1849593495935,50.355691056910565 52.235772357723576,50.10162601626016 52.33739837398374,49.84756097560975 52.38821138211382,49.59349593495935 52.4390243902439,49.33943089430894 52.489837398373986,49.08536585365854 52.489837398373986,48.83130081300813 52.540650406504064,48.52642276422764 52.540650406504064,48.27235772357724 52.540650406504064,48.01829268292683 52.540650406504064,47.764227642276424 52.540650406504064,47.5609756097561 52.489837398373986,47.30691056910569 52.4390243902439,47.052845528455286 52.33739837398374,46.798780487804876 52.28658536585366,46.54471544715447 52.13414634146341,46.239837398373986 52.03252032520325,45.985772357723576 51.880081300813,45.78252032520325 51.67682926829268,45.52845528455285 51.47357723577235,45.325203252032516 51.27032520325203,45.172764227642276 51.016260162601625,45.02032520325203 50.8130081300813,44.918699186991866 50.55894308943089,44.8170731707317 50.2540650406504,44.71544715447154 50,44.61382113821138 49.74593495934959,44.5630081300813 49.4410569105691,44.5630081300813 49.1869918699187,44.5630081300813 48.93292682926829,44.5630081300813 48.6280487804878,44.5630081300813 48.3739837398374,44.66463414634146 48.11991869918699,44.71544715447154 47.8150406504065,44.86788617886179 47.5609756097561,44.96951219512195 47.25609756097561,45.12195121951219 46.951219512195124,45.27439024390244 46.646341463414636,45.47764227642276 46.34146341463415,45.68089430894309 45.985772357723576,45.88414634146341 45.68089430894309,46.1890243902439 45.42682926829268,46.49390243902439 45.12195121951219,46.798780487804876 44.86788617886179,47.15447154471545" fill="none" stroke="black" stroke-width="0.6"></polyline><polyline points="44.86788617886179,47.15447154471545 44.66463414634146,47.510162601626014 44.41056910569105,47.86585365853659 44.15650406504065,48.27235772357724 43.953252032520325,48.67886178861789 43.80081300813008,49.136178861788615 43.64837398373984,49.542682926829265 43.546747967479675,49.949186991869915 43.44512195121951,50.355691056910565 43.39430894308943,50.762195121951216 43.34349593495935,51.21951219512195 43.34349593495935,51.67682926829268 43.34349593495935,52.083333333333336 43.34349593495935,52.489837398373986 43.34349593495935,52.896341463414636 43.44512195121951,53.353658536585364 43.49593495934959,53.760162601626014 43.59756097560975,54.166666666666664 43.75,54.52235772357724 43.90243902439024,54.8780487804878 44.105691056910565,55.233739837398375 44.359756097560975,55.58943089430894 44.61382113821138,55.89430894308943 44.918699186991866,56.199186991869915 45.22357723577235,56.40243902439024 45.52845528455285,56.65650406504065 45.88414634146341,56.91056910569105 46.1890243902439,57.11382113821138 46.59552845528455,57.3170731707317 46.951219512195124,57.52032520325203 47.357723577235774,57.672764227642276 47.8150406504065,57.825203252032516 48.170731707317074,57.92682926829268 48.6280487804878,58.02845528455284 49.136178861788615,58.079268292682926 49.542682926829265,58.079268292682926 50,58.079268292682926 50.45731707317073,58.079268292682926 50.86382113821138,58.02845528455284 51.27032520325203,57.92682926829268 51.72764227642276,57.77439024390244 52.083333333333336,57.672764227642276 52.4390243902439,57.46951219512195 52.84552845528455,57.266260162601625 53.2520325203252,57.0630081300813 53.65853658536585,56.75813008130081 54.0650406504065,56.453252032520325 54.47154471544715,56.14837398373984 54.827235772357724,55.84349593495935 55.233739837398375,55.4369918699187 55.53861788617886,55.03048780487805" fill="none" stroke="black" stroke-width="0.6"></polyline><polyline points="55.53861788617886,55.03048780487805 55.89430894308943,54.6239837398374 56.199186991869915,54.166666666666664 56.453252032520325,53.760162601626014 56.65650406504065,53.302845528455286 56.859756097560975,52.79471544715447 57.012195121951216,52.33739837398374 57.16463414634146,51.829268292682926 57.3170731707317,51.32113821138211 57.418699186991866,50.86382113821138 57.52032520325203,50.40650406504065 57.57113821138211,49.949186991869915 57.57113821138211,49.542682926829265 57.57113821138211,49.08536585365854 57.57113821138211,48.6280487804878 57.46951219512195,48.170731707317074 57.36788617886179,47.764227642276424 57.266260162601625,47.30691056910569 57.11382113821138,46.90040650406504 56.91056910569105,46.44308943089431 56.70731707317073,45.985772357723576 56.5040650406504,45.579268292682926 56.30081300813008,45.172764227642276 56.046747967479675,44.766260162601625 55.792682926829265,44.359756097560975 55.48780487804878,44.0040650406504 55.18292682926829,43.59756097560975 54.8780487804878,43.292682926829265 54.52235772357724,42.98780487804878 54.166666666666664,42.68292682926829 53.8109756097561,42.42886178861789 53.40447154471545,42.17479674796748 52.947154471544714,41.920731707317074 52.540650406504064,41.666666666666664 52.083333333333336,41.46341463414634 51.6260162601626,41.3109756097561 51.168699186991866,41.15853658536585 50.66056910569105,41.05691056910569 50.203252032520325,40.95528455284553 49.69512195121951,40.90447154471545 49.1869918699187,40.853658536585364 48.67886178861789,40.853658536585364 48.170731707317074,40.853658536585364 47.66260162601626,40.90447154471545 47.103658536585364,41.00609756097561 46.646341463414636,41.05691056910569 46.13821138211382,41.209349593495936 45.579268292682926,41.36178861788618 45.12195121951219,41.5650406504065 44.5630081300813,41.81910569105691 44.05487804878049,42.073170731707314" fill="none" stroke="black" stroke-width="0.6"></polyline><polyline points="44.05487804878049,42.073170731707314 43.546747967479675,42.3780487804878 42.98780487804878,42.78455284552845 42.479674796747965,43.1910569105691 41.920731707317074,43.59756097560975 41.36178861788618,44.15650406504065 40.853658536585364,44.61382113821138 40.396341463414636,45.12195121951219 39.9390243902439,45.68089430894309 39.53252032520325,46.239837398373986 39.176829268292686,46.798780487804876 38.82113821138211,47.40853658536585 38.61788617886179,47.916666666666664 38.41463414634146,48.47560975609756 38.21138211382114,49.08536585365854 38.109756097560975,49.64430894308943 38.00813008130081,50.203252032520325 37.95731707317073,50.762195121951216 37.95731707317073,51.37195121951219 37.95731707317073,51.981707317073166 37.95731707317073,52.59146341463415 38.00813008130081,53.15040650406504 38.109756097560975,53.709349593495936 38.262195121951216,54.31910569105691 38.41463414634146,54.827235772357724 38.61788617886179,55.386178861788615 38.87195121951219,55.99593495934959 39.1260162601626,56.5040650406504 39.43089430894309,57.0630081300813 39.78658536585366,57.62195121951219 40.142276422764226,58.130081300813 40.4979674796748,58.58739837398374 40.95528455284553,59.09552845528455 41.41260162601626,59.5020325203252 41.920731707317074,59.90853658536585 42.42886178861789,60.36585365853659 42.98780487804878,60.72154471544715 43.546747967479675,61.02642276422764 44.20731707317073,61.33130081300813 44.8170731707317,61.58536585365854 45.47764227642276,61.83943089430894 46.13821138211382,62.042682926829265 46.798780487804876,62.19512195121951 47.510162601626014,62.34756097560975 48.170731707317074,62.5 48.83130081300813,62.55081300813008 49.49186991869919,62.60162601626016 50.203252032520325,62.60162601626016 50.86382113821138,62.55081300813008 51.575203252032516,62.449186991869915 52.235772357723576,62.34756097560975" fill="none" stroke="black" stroke-width="0.6"></polyline><polyline points="52.235772357723576,62.34756097560975 52.896341463414636,62.14430894308943 53.607723577235774,61.890243902439025 54.31910569105691,61.636178861788615 55.03048780487805,61.33130081300813 55.6910569105691,60.97560975609756 56.453252032520325,60.56910569105691 57.11382113821138,60.16260162601626 57.77439024390244,59.70528455284553 58.485772357723576,59.146341463414636 59.09552845528455,58.63821138211382 59.75609756097561,58.079268292682926 60.36585365853659,57.46951219512195 60.97560975609756,56.859756097560975 61.58536585365854,56.199186991869915 62.14430894308943,55.53861788617886 62.65243902439024,54.8780487804878 63.16056910569105,54.166666666666664 63.5670731707317,53.50609756097561 63.922764227642276,52.79471544715447 64.27845528455285,52.083333333333336 64.53252032520325,51.422764227642276 64.73577235772358,50.762195121951216 64.88821138211382,50.05081300813008 64.98983739837398,49.4410569105691 64.98983739837398,48.729674796747965 64.98983739837398,47.96747967479675 64.98983739837398,47.30691056910569 64.9390243902439,46.59552845528455 64.83739837398373,45.833333333333336 64.6849593495935,45.172764227642276 64.53252032520325,44.46138211382114 64.27845528455285,43.699186991869915 64.07520325203252,43.03861788617886 63.82113821138211,42.327235772357724 63.46544715447154,41.5650406504065 63.16056910569105,40.90447154471545 62.80487804878049,40.24390243902439 62.39837398373984,39.583333333333336 61.9410569105691,38.97357723577235 61.43292682926829,38.41463414634146 60.8739837398374,37.855691056910565 60.3150406504065,37.34756097560975 59.70528455284553,36.890243902439025 59.04471544715447,36.483739837398375 58.38414634146341,36.1280487804878 57.672764227642276,35.72154471544715 56.859756097560975,35.416666666666664 56.14837398373984,35.16260162601626 55.33536585365854,35.010162601626014 54.420731707317074,34.857723577235774" fill="none" stroke="black" stroke-width="0.6"></polyline><polyline points="54.420731707317074,34.857723577235774 53.607723577235774,34.75609756097561 52.74390243902439,34.75609756097561 51.880081300813,34.75609756097561 51.016260162601625,34.75609756097561 50.05081300813008,34.90853658536585 49.03455284552845,35.11178861788618 48.06910569105691,35.3150406504065 47.15447154471545,35.56910569105691 46.239837398373986,35.8739837398374 45.42682926829268,36.17886178861789 44.5630081300813,36.483739837398375 43.75,36.83943089430894 42.98780487804878,37.24593495934959 42.17479674796748,37.703252032520325 41.36178861788618,38.21138211382114 40.701219512195124,38.71951219512195 39.9390243902439,39.27845528455285 39.22764227642276,39.9390243902439 38.516260162601625,40.65040650406504 37.7540650406504,41.41260162601626 37.09349593495935,42.22560975609756 36.483739837398375,43.03861788617886 35.8739837398374,43.85162601626016 35.3150406504065,44.766260162601625 34.80691056910569,45.63008130081301 34.40040650406504,46.49390243902439 34.04471544715447,47.357723577235774 33.739837398373986,48.22154471544715 33.485772357723576,49.136178861788615 33.28252032520325,50 33.13008130081301,50.86382113821138 33.02845528455285,51.72764227642276 32.97764227642276,52.642276422764226 32.97764227642276,53.45528455284553 32.97764227642276,54.36991869918699 32.97764227642276,55.233739837398375 33.079268292682926,55.99593495934959 33.28252032520325,56.859756097560975 33.485772357723576,57.62195121951219 33.739837398373986,58.38414634146341 34.04471544715447,59.2479674796748 34.34959349593496,59.959349593495936 34.75609756097561,60.56910569105691 35.16260162601626,61.229674796747965 35.61991869918699,61.78861788617886 36.077235772357724,62.39837398373984 36.636178861788615,63.00813008130081 37.14430894308943,63.516260162601625 37.65243902439024,64.02439024390243 38.3130081300813,64.58333333333333" fill="none" stroke="black" stroke-width="0.6"></polyline><polyline points="38.3130081300813,64.58333333333333 38.922764227642276,65.04065040650406 39.53252032520325,65.44715447154472 40.24390243902439,65.90447154471545 40.90447154471545,66.26016260162602 41.61585365853659,66.61585365853658 42.3780487804878,66.97154471544715 43.03861788617886,67.22560975609755 43.80081300813008,67.42886178861788 44.5630081300813,67.6829268292683 45.325203252032516,67.88617886178862 46.13821138211382,68.03861788617886 47.052845528455286,68.1910569105691 47.86585365853659,68.29268292682927 48.729674796747965,68.29268292682927 49.64430894308943,68.34349593495935 50.50813008130081,68.34349593495935 51.37195121951219,68.29268292682927 52.33739837398374,68.1910569105691 53.201219512195124,67.98780487804878 54.166666666666664,67.83536585365853 55.08130081300813,67.58130081300813 55.99593495934959,67.32723577235772 56.91056910569105,67.02235772357723 57.825203252032516,66.66666666666667 58.739837398373986,66.26016260162602 59.65447154471545,65.80284552845528 60.56910569105691,65.29471544715447 61.43292682926829,64.78658536585365 62.24593495934959,64.22764227642276 63.109756097560975,63.61788617886179 63.87195121951219,62.95731707317073 64.6341463414634,62.296747967479675 65.34552845528455,61.636178861788615 65.95528455284553,60.97560975609756 66.51422764227642,60.3150406504065 67.07317073170732,59.552845528455286 67.58130081300813,58.84146341463415 67.98780487804878,58.130081300813 68.39430894308943,57.36788617886179 68.69918699186992,56.605691056910565 68.95325203252033,55.792682926829265 69.20731707317073,54.979674796747965 69.41056910569105,54.166666666666664 69.66463414634146,53.353658536585364 69.86788617886178,52.4390243902439 70.02032520325203,51.6260162601626 70.22357723577235,50.71138211382114 70.3760162601626,49.84756097560975 70.52845528455285,48.983739837398375 70.630081300813,48.11991869918699" fill="none" stroke="black" stroke-width="0.6"></polyline><polyline points="70.630081300813,48.11991869918699 70.73170731707317,47.25609756097561 70.78252032520325,46.392276422764226 70.83333333333333,45.52845528455285 70.83333333333333,44.66463414634146 70.83333333333333,43.80081300813008 70.73170731707317,42.9369918699187 70.630081300813,42.1239837398374 70.47764227642276,41.209349593495936 70.27439024390243,40.396341463414636 70.02032520325203,39.583333333333336 69.76626016260163,38.77032520325203 69.41056910569105,37.855691056910565 69.10569105691057,37.14430894308943 68.69918699186992,36.43292682926829 68.24186991869918,35.670731707317074 67.83536585365853,34.959349593495936 67.32723577235772,34.298780487804876 66.71747967479675,33.63821138211382 66.15853658536585,33.079268292682926 65.54878048780488,32.46951219512195 64.83739837398373,31.910569105691057 64.17682926829268,31.402439024390244 63.516260162601625,30.945121951219512 62.80487804878049,30.48780487804878 62.14430894308943,30.132113821138212 61.38211382113821,29.725609756097562 60.61991869918699,29.369918699186993 59.90853658536585,29.0650406504065 59.146341463414636,28.760162601626014 58.33333333333333,28.506097560975608 57.57113821138211,28.302845528455283 56.70731707317073,28.099593495934958 55.84349593495935,27.947154471544714 55.03048780487805,27.84552845528455 54.11585365853659,27.79471544715447 53.15040650406504,27.79471544715447 52.235772357723576,27.79471544715447 51.27032520325203,27.84552845528455 50.30487804878049,27.947154471544714 49.28861788617886,28.099593495934958 48.170731707317074,28.353658536585364 47.103658536585364,28.60772357723577 46.03658536585366,28.912601626016258 44.918699186991866,29.268292682926827 43.80081300813008,29.67479674796748 42.68292682926829,30.132113821138212 41.514227642276424,30.640243902439025 40.34552845528455,31.19918699186992 39.27845528455285,31.808943089430894 38.21138211382114,32.418699186991866" fill="none" stroke="black" stroke-width="0.6"></polyline><polyline points="38.21138211382114,32.418699186991866 37.09349593495935,33.079268292682926 36.02642276422764,33.84146341463415 34.959349593495936,34.70528455284553 33.892276422764226,35.56910569105691 32.8760162601626,36.483739837398375 31.910569105691057,37.449186991869915 30.995934959349594,38.46544715447154 30.132113821138212,39.43089430894309 29.268292682926827,40.4979674796748 28.506097560975608,41.5650406504065 27.79471544715447,42.63211382113821 27.083333333333332,43.80081300813008 26.422764227642276,44.96951219512195 25.8130081300813,46.08739837398374 25.254065040650406,47.30691056910569 24.796747967479675,48.42479674796748 24.390243902439025,49.542682926829265 24.034552845528456,50.609756097560975 23.729674796747968,51.72764227642276 23.526422764227643,52.84552845528455 23.323170731707318,53.96341463414634 23.221544715447155,55.13211382113821 23.119918699186993,56.199186991869915 23.119918699186993,57.36788617886179 23.119918699186993,58.38414634146341 23.221544715447155,59.451219512195124 23.3739837398374,60.56910569105691 23.526422764227643,61.58536585365854 23.78048780487805,62.55081300813008 24.085365853658537,63.516260162601625 24.441056910569106,64.32926829268293 24.847560975609756,65.09146341463415 25.35569105691057,65.95528455284553 25.86382113821138,66.71747967479675 26.473577235772357,67.53048780487805 27.134146341463413,68.29268292682927 27.79471544715447,68.90243902439025 28.506097560975608,69.61382113821138 29.369918699186993,70.32520325203252 30.08130081300813,70.83333333333333 30.89430894308943,71.39227642276423 31.808943089430894,72.0020325203252 32.672764227642276,72.51016260162602 33.58739837398374,72.96747967479675 34.552845528455286,73.42479674796748 35.46747967479675,73.8821138211382 36.43292682926829,74.23780487804878 37.39837398373984,74.54268292682927 38.262195121951216,74.84756097560975 39.22764227642276,75.10162601626016" fill="none" stroke="black" stroke-width="0.6"></polyline><polyline points="39.22764227642276,75.10162601626016 40.24390243902439,75.35569105691057 41.107723577235774,75.5589430894309 42.02235772357724,75.71138211382113 43.03861788617886,75.86382113821138 43.953252032520325,75.91463414634146 44.86788617886179,75.96544715447155 45.88414634146341,75.96544715447155 46.798780487804876,75.96544715447155 47.764227642276424,75.91463414634146 48.78048780487805,75.8130081300813 49.74593495934959,75.66056910569105 50.71138211382114,75.5081300813008 51.72764227642276,75.30487804878048 52.642276422764226,75.05081300813008 53.607723577235774,74.79674796747967 54.6239837398374,74.54268292682927 55.53861788617886,74.23780487804878 56.5040650406504,73.8821138211382 57.418699186991866,73.52642276422765 58.33333333333333,73.119918699187 59.2479674796748,72.66260162601625 60.16260162601626,72.20528455284553 61.02642276422764,71.7479674796748 61.890243902439025,71.23983739837398 62.7540650406504,70.68089430894308 63.5670731707317,70.0711382113821 64.380081300813,69.46138211382113 65.1930894308943,68.80081300813008 65.95528455284553,68.14024390243902 66.66666666666667,67.42886178861788 67.3780487804878,66.8191056910569 67.98780487804878,66.10772357723577 68.64837398373983,65.39634146341463 69.2581300813008,64.6341463414634 69.86788617886178,63.87195121951219 70.3760162601626,63.16056910569105 70.83333333333333,62.449186991869915 71.29065040650406,61.73780487804878 71.64634146341463,61.077235772357724 72.0020325203252,60.36585365853659 72.35772357723577,59.65447154471545 72.66260162601625,58.892276422764226 72.91666666666667,58.231707317073166 73.17073170731707,57.46951219512195 73.42479674796748,56.70731707317073 73.6280487804878,55.99593495934959 73.83130081300813,55.28455284552845 74.03455284552845,54.47154471544715 74.23780487804878,53.760162601626014 74.4410569105691,52.9979674796748" fill="none" stroke="black" stroke-width="0.6"></polyline><polyline points="74.4410569105691,52.9979674796748 74.64430894308943,52.1849593495935 74.89837398373983,51.422764227642276 75.10162601626016,50.609756097560975 75.30487804878048,49.74593495934959 75.5081300813008,48.93292682926829 75.66056910569105,48.06910569105691 75.8130081300813,47.15447154471545 75.96544715447155,46.290650406504064 76.0670731707317,45.42682926829268 76.11788617886178,44.46138211382114 76.16869918699187,43.64837398373984 76.21951219512195,42.78455284552845 76.21951219512195,41.86991869918699 76.21951219512195,41.107723577235774 76.21951219512195,40.24390243902439 76.16869918699187,39.329268292682926 76.11788617886178,38.5670731707317 76.01626016260163,37.7540650406504 75.86382113821138,36.9410569105691 75.71138211382113,36.229674796747965 75.5081300813008,35.46747967479675 75.2540650406504,34.70528455284553 75.05081300813008,33.99390243902439 74.7459349593496,33.23170731707317 74.4410569105691,32.46951219512195 74.13617886178862,31.808943089430894 73.78048780487805,31.097560975609756 73.42479674796748,30.4369918699187 73.01829268292683,29.776422764227643 72.5609756097561,29.166666666666664 72.10365853658537,28.55691056910569 71.59552845528455,27.997967479674795 71.03658536585365,27.489837398373982 70.47764227642276,26.93089430894309 69.8170731707317,26.473577235772357 69.10569105691057,25.965447154471544 68.39430894308943,25.558943089430894 67.6321138211382,25.152439024390244 66.869918699187,24.745934959349594 66.0060975609756,24.390243902439025 65.1930894308943,24.034552845528456 64.32926829268293,23.729674796747968 63.41463414634146,23.42479674796748 62.55081300813008,23.170731707317074 61.58536585365854,22.96747967479675 60.670731707317074,22.764227642276424 59.70528455284553,22.560975609756095 58.739837398373986,22.40853658536585 57.672764227642276,22.30691056910569 56.65650406504065,22.205284552845526" fill="none" stroke="black" stroke-width="0.6"></polyline><polyline points="56.65650406504065,22.205284552845526 55.58943089430894,22.154471544715445 54.52235772357724,22.154471544715445 53.50609756097561,22.154471544715445 52.38821138211382,22.154471544715445 51.27032520325203,22.256097560975608 50.203252032520325,22.40853658536585 49.136178861788615,22.560975609756095 48.01829268292683,22.764227642276424 46.951219512195124,22.96747967479675 45.78252032520325,23.272357723577237 44.66463414634146,23.577235772357724 43.546747967479675,23.932926829268293 42.3780487804878,24.390243902439025 41.3109756097561,24.796747967479675 40.19308943089431,25.304878048780488 39.02439024390244,25.86382113821138 37.95731707317073,26.422764227642276 36.78861788617886,27.083333333333332 35.56910569105691,27.79471544715447 34.451219512195124,28.55691056910569 33.28252032520325,29.369918699186993 32.0630081300813,30.284552845528456 30.945121951219512,31.19918699186992 29.776422764227643,32.16463414634146 28.60772357723577,33.18089430894309 27.591463414634145,34.146341463414636 26.524390243902438,35.21341463414634 25.508130081300813,36.33130081300813 24.64430894308943,37.39837398373984 23.729674796747968,38.516260162601625 22.916666666666668,39.583333333333336 22.256097560975608,40.59959349593496 21.59552845528455,41.71747967479675 20.985772357723576,42.9369918699187 20.477642276422763,44.0040650406504 20.020325203252032,45.07113821138211 19.61382113821138,46.13821138211382 19.308943089430894,47.20528455284553 18.953252032520325,48.3739837398374 18.597560975609756,49.64430894308943 18.34349593495935,50.762195121951216 18.140243902439025,51.981707317073166 17.9369918699187,53.2520325203252 17.733739837398375,54.52235772357724 17.58130081300813,55.84349593495935 17.428861788617887,57.21544715447154 17.327235772357724,58.58739837398374 17.276422764227643,59.959349593495936 17.225609756097562,61.229674796747965 17.225609756097562,62.5" fill="none" stroke="black" stroke-width="0.6"></polyline><polyline points="17.225609756097562,62.5 17.327235772357724,63.71951219512195 17.428861788617887,64.9390243902439 17.632113821138212,66.15853658536585 17.835365853658537,67.42886178861788 18.089430894308943,68.59756097560975 18.34349593495935,69.71544715447155 18.69918699186992,70.83333333333333 19.054878048780488,71.90040650406505 19.461382113821138,72.91666666666667 19.91869918699187,73.9329268292683 20.426829268292682,75 20.934959349593495,75.91463414634146 21.54471544715447,76.82926829268293 22.103658536585364,77.64227642276423 22.71341463414634,78.45528455284553 23.3739837398374,79.21747967479675 24.034552845528456,79.92886178861788 24.745934959349594,80.64024390243902 25.508130081300813,81.35162601626016 26.270325203252032,82.01219512195122 27.03252032520325,82.6219512195122 27.79471544715447,83.23170731707317 28.55691056910569,83.79065040650406 29.369918699186993,84.34959349593495 30.182926829268293,84.85772357723577 30.995934959349594,85.36585365853658 31.758130081300813,85.77235772357723 32.6219512195122,86.22967479674797 33.485772357723576,86.63617886178862 34.298780487804876,86.9410569105691 35.21341463414634,87.34756097560975 36.077235772357724,87.65243902439025 36.9410569105691,88.0081300813008 37.855691056910565,88.3130081300813 38.61788617886179,88.5670731707317 39.48170731707317,88.8719512195122 40.34552845528455,89.17682926829268 41.209349593495936,89.43089430894308 42.073170731707314,89.6849593495935 42.98780487804878,89.88821138211382 43.85162601626016,90.09146341463415 44.71544715447154,90.24390243902438 45.63008130081301,90.39634146341463 46.44308943089431,90.4979674796748 47.25609756097561,90.59959349593495 48.170731707317074,90.65040650406503 49.03455284552845,90.70121951219512 49.949186991869915,90.70121951219512 51.016260162601625,90.70121951219512 51.981707317073166,90.4979674796748" fill="none" stroke="black" stroke-width="0.6"></polyline><polyline points="51.981707317073166,90.4979674796748 52.947154471544714,90.29471544715447 53.96341463414634,90.04065040650406 54.92886178861789,89.78658536585365 55.99593495934959,89.48170731707317 57.11382113821138,89.07520325203252 58.02845528455284,88.71951219512195 58.892276422764226,88.36382113821138 59.857723577235774,88.0589430894309 60.61991869918699,87.7540650406504 61.38211382113821,87.39837398373983 62.14430894308943,87.09349593495935 62.80487804878049,86.78861788617886 63.41463414634146,86.4329268292683 64.02439024390243,86.1280487804878 64.58333333333333,85.77235772357723 65.09146341463415,85.46747967479675 65.65040650406505,85.11178861788618 66.10772357723577,84.7560975609756 66.51422764227642,84.40040650406503 66.97154471544715,84.04471544715447 67.32723577235772,83.63821138211382 67.6829268292683,83.23170731707317 68.03861788617886,82.72357723577235 68.34349593495935,82.26626016260163 68.69918699186992,81.7581300813008 69.0040650406504,81.19918699186992 69.35975609756098,80.64024390243902 69.76626016260163,79.97967479674797 70.1219512195122,79.26829268292683 70.52845528455285,78.60772357723577 70.9349593495935,77.89634146341463 71.39227642276423,77.23577235772358 71.7479674796748,76.57520325203252 72.15447154471545,75.91463414634146 72.5609756097561,75.2540650406504 72.86585365853658,74.64430894308943 73.22154471544715,74.03455284552845 73.47560975609755,73.42479674796748 73.78048780487805,72.8150406504065 74.03455284552845,72.15447154471545 74.28861788617886,71.54471544715447 74.54268292682927,70.9349593495935 74.79674796747967,70.32520325203252 75.05081300813008,69.66463414634146 75.30487804878048,69.05487804878048 75.5081300813008,68.4451219512195 75.76219512195122,67.78455284552845 76.01626016260163,67.17479674796748 76.27032520325203,66.51422764227642 76.47357723577235,65.90447154471545" fill="none" stroke="black" stroke-width="0.6"></polyline><polyline points="76.47357723577235,65.90447154471545 76.72764227642276,65.2439024390244 76.93089430894308,64.53252032520325 77.1849593495935,63.87195121951219 77.38821138211382,63.21138211382114 77.64227642276423,62.55081300813008 77.84552845528455,61.9410569105691 78.09959349593495,61.33130081300813 78.45528455284553,60.61991869918699 78.60772357723577,60.0609756097561 78.70934959349593,59.451219512195124 78.8109756097561,58.84146341463415 78.86178861788618,58.33333333333333 78.96341463414635,57.825203252032516 79.0650406504065,57.266260162601625 79.16666666666667,56.75813008130081 79.16666666666667,56.35162601626016 79.16666666666667,55.94512195121951 79.16666666666667,55.58943089430894 79.0650406504065,55.233739837398375 79.01422764227642,54.8780487804878 78.96341463414635,54.6239837398374 78.86178861788618,54.31910569105691 78.8109756097561,54.0650406504065 78.70934959349593,53.86178861788618 78.65853658536585,53.65853658536585 78.5569105691057,53.45528455284553 78.45528455284553,53.302845528455286 78.40447154471545,53.15040650406504 78.35365853658537,52.9979674796748 78.30284552845528,52.84552845528455 78.2520325203252,52.69308943089431 78.15040650406505,52.489837398373986 78.09959349593495,52.33739837398374 78.04878048780488,52.1849593495935 77.9979674796748,52.083333333333336 77.9979674796748,51.93089430894309 77.9471544715447,51.77845528455284 77.89634146341463,51.6260162601626 77.84552845528455,51.47357723577235 77.79471544715447,51.37195121951219 77.74390243902438,51.21951219512195 77.6930894308943,51.0670731707317 77.64227642276423,50.91463414634146 77.59146341463415,50.762195121951216 77.54065040650406,50.66056910569105 77.54065040650406,50.55894308943089 77.48983739837398,50.45731707317073 77.48983739837398,50.355691056910565 77.4390243902439,50.30487804878049 77.4390243902439,50.2540650406504" fill="none" stroke="black" stroke-width="0.6"></polyline><polyline points="77.4390243902439,50.2540650406504 77.4390243902439,50.203252032520325 77.4390243902439,50.203252032520325 77.38821138211382,50.15243902439024 77.38821138211382,50.15243902439024 77.38821138211382,50.10162601626016 77.38821138211382,50.10162601626016 77.38821138211382,50.10162601626016 77.38821138211382,50.05081300813008 77.38821138211382,50" fill="none" stroke="black" stroke-width="0.6"></polyline></svg>