<svg height="100" width="100" preserveAspectRatio="xMidYMid meet"><polyline points="50.10162601626016,49.08536585365854 49.390243902439025,47.5609756097561 49.23780487804878,47.357723577235774 49.03455284552845,47.20528455284553 48.88211382113821,47.0020325203252 48.6280487804878,46.798780487804876 48.3739837398374,46.697154471544714 48.170731707317074,46.59552845528455 47.96747967479675,46.54471544715447 47.86585365853659,46.54471544715447 47.71341463414634,46.54471544715447 47.61178861788618,46.54471544715447 47.510162601626014,46.54471544715447 47.40853658536585,46.59552845528455 47.20528455284553,46.84959349593496 47.103658536585364,47.15447154471545 46.90040650406504,47.459349593495936 46.798780487804876,47.71341463414634 46.646341463414636,48.01829268292683 46.54471544715447,48.3739837398374 46.49390243902439,48.67886178861789 46.392276422764226,48.93292682926829 46.392276422764226,49.28861788617886 46.392276422764226,49.59349593495935 46.392276422764226,49.89837398373984 46.392276422764226,50.203252032520325 46.392276422764226,50.45731707317073 46.392276422764226,50.71138211382114 46.392276422764226,51.016260162601625 46.392276422764226,51.37195121951219 46.392276422764226,51.6260162601626 46.54471544715447,51.981707317073166 46.697154471544714,52.28658536585366 46.90040650406504,52.540650406504064 47.103658536585364,52.79471544715447 47.357723577235774,52.9979674796748 47.66260162601626,53.15040650406504 48.06910569105691,53.302845528455286 48.42479674796748,53.353658536585364 48.88211382113821,53.40447154471545 49.28861788617886,53.40447154471545 49.69512195121951,53.40447154471545 50.15243902439024,53.40447154471545 50.609756097560975,53.40447154471545 51.0670731707317,53.40447154471545 51.52439024390244,53.2520325203252 52.03252032520325,52.947154471544714 52.489837398373986,52.59146341463415 52.9979674796748,52.083333333333336 53.50609756097561,51.52439024390244 53.91260162601626,50.91463414634146" fill="none" stroke="black" stroke-width="0.6"></polyline><polyline points="53.91260162601626,50.91463414634146 54.31910569105691,50.355691056910565 54.6239837398374,49.64430894308943 54.827235772357724,49.08536585365854 54.8780487804878,48.52642276422764 54.92886178861789,48.01829268292683 54.92886178861789,47.61178861788618 54.92886178861789,47.20528455284553 54.92886178861789,46.798780487804876 54.8780487804878,46.44308943089431 54.67479674796748,45.985772357723576 54.36991869918699,45.579268292682926 54.0650406504065,45.12195121951219 53.760162601626014,44.61382113821138 53.302845528455286,44.0040650406504 52.947154471544714,43.49593495934959 52.4390243902439,43.03861788617886 51.93089430894309,42.58130081300813 51.37195121951219,42.27642276422764 50.86382113821138,42.073170731707314 50.203252032520325,41.86991869918699 49.59349593495935,41.81910569105691 48.93292682926829,41.81910569105691 48.323170731707314,41.81910569105691 47.764227642276424,41.81910569105691 47.20528455284553,41.97154471544715 46.697154471544714,42.17479674796748 46.392276422764226,42.42886178861789 46.03658536585366,42.733739837398375 45.68089430894309,43.03861788617886 45.42682926829268,43.44512195121951 45.172764227642276,43.90243902439024 44.8170731707317,44.512195121951216 44.512195121951216,45.22357723577235 44.15650406504065,46.13821138211382 43.85162601626016,47.103658536585364 43.49593495934959,48.170731707317074 43.1910569105691,49.28861788617886 42.98780487804878,50.2540650406504 42.886178861788615,51.168699186991866 42.83536585365854,52.13414634146341 42.83536585365854,52.9979674796748 42.83536585365854,53.86178861788618 42.83536585365854,54.77642276422764 43.03861788617886,55.53861788617886 43.39430894308943,56.30081300813008 43.85162601626016,56.96138211382114 44.41056910569105,57.52032520325203 45.172764227642276,57.97764227642276 45.985772357723576,58.231707317073166 46.951219512195124,58.43495934959349" fill="none" stroke="black" stroke-width="0.6"></polyline><polyline points="46.951219512195124,58.43495934959349 48.01829268292683,58.43495934959349 49.1869918699187,58.43495934959349 50.355691056910565,58.43495934959349 51.575203252032516,58.079268292682926 52.84552845528455,57.62195121951219 53.96341463414634,57.0630081300813 55.03048780487805,56.30081300813008 55.99593495934959,55.48780487804878 56.91056910569105,54.573170731707314 57.72357723577235,53.55691056910569 58.485772357723576,52.38821138211382 59.197154471544714,51.21951219512195 59.75609756097561,50.15243902439024 60.16260162601626,48.93292682926829 60.46747967479675,47.916666666666664 60.61991869918699,46.951219512195124 60.670731707317074,46.03658536585366 60.670731707317074,45.27439024390244 60.670731707317074,44.41056910569105 60.3150406504065,43.49593495934959 59.90853658536585,42.58130081300813 59.34959349593496,41.61585365853659 58.58739837398374,40.59959349593496 57.77439024390244,39.63414634146341 56.80894308943089,38.71951219512195 55.792682926829265,37.95731707317073 54.67479674796748,37.34756097560975 53.50609756097561,36.9410569105691 52.235772357723576,36.73780487804878 51.016260162601625,36.6869918699187 49.796747967479675,36.6869918699187 48.6280487804878,36.6869918699187 47.510162601626014,36.83943089430894 46.54471544715447,37.19512195121951 45.579268292682926,37.65243902439024 44.66463414634146,38.16056910569105 43.90243902439024,38.87195121951219 42.98780487804878,39.63414634146341 42.22560975609756,40.447154471544714 41.514227642276424,41.5650406504065 40.7520325203252,42.83536585365854 40.19308943089431,44.15650406504065 39.63414634146341,45.579268292682926 39.176829268292686,46.951219512195124 38.77032520325203,48.323170731707314 38.516260162601625,49.69512195121951 38.262195121951216,51.11788617886179 38.16056910569105,52.59146341463415 38.109756097560975,54.014227642276424 38.109756097560975,55.48780487804878" fill="none" stroke="black" stroke-width="0.6"></polyline><polyline points="38.109756097560975,55.48780487804878 38.109756097560975,56.75813008130081 38.21138211382114,57.97764227642276 38.61788617886179,59.146341463414636 39.1260162601626,60.11178861788618 39.78658536585366,60.92479674796748 40.59959349593496,61.58536585365854 41.514227642276424,62.09349593495935 42.68292682926829,62.60162601626016 43.953252032520325,62.855691056910565 45.3760162601626,63.00813008130081 46.90040650406504,63.05894308943089 48.47560975609756,63.05894308943089 50.10162601626016,62.855691056910565 51.829268292682926,62.34756097560975 53.40447154471545,61.78861788617886 55.03048780487805,61.077235772357724 56.70731707317073,60.16260162601626 58.02845528455284,59.146341463414636 59.298780487804876,58.02845528455284 60.46747967479675,56.91056910569105 61.58536585365854,55.74186991869919 62.65243902439024,54.36991869918699 63.61788617886179,52.896341463414636 64.380081300813,51.47357723577235 64.9390243902439,50.05081300813008 65.44715447154472,48.52642276422764 65.70121951219512,47.20528455284553 65.90447154471545,45.88414634146341 65.90447154471545,44.359756097560975 65.90447154471545,42.98780487804878 65.90447154471545,41.5650406504065 65.90447154471545,40.040650406504064 65.65040650406505,38.61788617886179 65.1930894308943,37.042682926829265 64.6849593495935,35.46747967479675 64.02439024390243,34.09552845528455 63.21138211382114,32.82520325203252 62.34756097560975,31.65650406504065 61.38211382113821,30.79268292682927 60.21341463414634,29.979674796747968 58.84146341463415,29.31910569105691 57.418699186991866,28.912601626016258 55.792682926829265,28.709349593495933 54.11585365853659,28.65853658536585 52.540650406504064,28.65853658536585 50.86382113821138,28.709349593495933 48.983739837398375,29.166666666666664 47.20528455284553,29.878048780487806 45.325203252032516,30.741869918699187 43.44512195121951,31.859756097560975" fill="none" stroke="black" stroke-width="0.6"></polyline><polyline points="43.44512195121951,31.859756097560975 41.71747967479675,32.97764227642276 39.989837398373986,34.298780487804876 38.3130081300813,35.72154471544715 36.890243902439025,37.34756097560975 35.56910569105691,39.1260162601626 34.298780487804876,40.90447154471545 33.333333333333336,42.58130081300813 32.3170731707317,44.46138211382114 31.351626016260163,46.7479674796748 30.538617886178862,48.93292682926829 29.979674796747968,50.71138211382114 29.725609756097562,52.1849593495935 29.67479674796748,53.55691056910569 29.67479674796748,55.03048780487805 29.827235772357724,56.70731707317073 30.335365853658537,58.18089430894309 30.995934959349594,59.603658536585364 31.859756097560975,61.02642276422764 32.77439024390244,62.09349593495935 33.790650406504064,63.16056910569105 35.16260162601626,64.22764227642276 36.483739837398375,65.09146341463415 37.90650406504065,65.95528455284553 39.27845528455285,66.71747967479675 40.701219512195124,67.3780487804878 42.22560975609756,68.03861788617886 43.546747967479675,68.59756097560975 44.918699186991866,69.0040650406504 46.392276422764226,69.41056910569105 47.71341463414634,69.66463414634146 49.136178861788615,69.76626016260163 50.609756097560975,69.8170731707317 52.083333333333336,69.8170731707317 53.607723577235774,69.66463414634146 55.33536585365854,69.20731707317073 56.96138211382114,68.59756097560975 58.63821138211382,67.73373983739837 60.416666666666664,66.8191056910569 62.042682926829265,65.80284552845528 63.77032520325203,64.73577235772358 65.54878048780488,63.5670731707317 67.07317073170732,62.39837398373984 68.39430894308943,61.229674796747965 69.96951219512195,60.0609756097561 71.34146341463415,58.99390243902439 72.45934959349593,57.97764227642276 73.47560975609755,56.96138211382114 74.28861788617886,55.99593495934959 75.05081300813008,55.08130081300813 75.66056910569105,54.11585365853659" fill="none" stroke="black" stroke-width="0.6"></polyline><polyline points="75.66056910569105,54.11585365853659 76.21951219512195,53.302845528455286 76.52439024390243,52.642276422764226 76.77845528455285,52.083333333333336 76.880081300813,51.67682926829268 76.880081300813,51.37195121951219 76.880081300813,51.11788617886179 76.880081300813,50.96544715447154 76.880081300813,50.8130081300813 76.77845528455285,50.609756097560975 76.67682926829268,50.45731707317073 76.57520325203252,50.355691056910565 76.57520325203252,50.203252032520325 76.52439024390243,50.10162601626016 76.52439024390243,49.949186991869915 76.52439024390243,49.74593495934959 76.52439024390243,49.59349593495935 76.52439024390243,49.390243902439025" fill="none" stroke="black" stroke-width="0.6"></polyline></svg>