<svg height="100" width="100" preserveAspectRatio="xMidYMid meet"><polyline points="49.796747967479675,50 49.796747967479675,50 49.796747967479675,50 49.796747967479675,49.949186991869915 49.796747967479675,49.949186991869915 49.796747967479675,49.89837398373984 49.796747967479675,49.89837398373984 49.796747967479675,49.84756097560975 49.796747967479675,49.84756097560975 49.796747967479675,49.796747967479675 49.796747967479675,49.74593495934959 49.796747967479675,49.69512195121951 49.796747967479675,49.64430894308943 49.796747967479675,49.59349593495935 49.796747967479675,49.542682926829265 49.796747967479675,49.4410569105691 49.796747967479675,49.390243902439025 49.74593495934959,49.28861788617886 49.69512195121951,49.23780487804878 49.59349593495935,49.136178861788615 49.542682926829265,49.08536585365854 49.4410569105691,48.983739837398375 49.33943089430894,48.93292682926829 49.23780487804878,48.83130081300813 49.136178861788615,48.78048780487805 49.03455284552845,48.729674796747965 48.93292682926829,48.6280487804878 48.83130081300813,48.577235772357724 48.729674796747965,48.52642276422764 48.6280487804878,48.47560975609756 48.52642276422764,48.47560975609756 48.42479674796748,48.47560975609756 48.27235772357724,48.47560975609756 48.170731707317074,48.52642276422764 48.01829268292683,48.6280487804878 47.8150406504065,48.78048780487805 47.61178861788618,48.93292682926829 47.40853658536585,49.1869918699187 47.20528455284553,49.390243902439025 47.0020325203252,49.64430894308943 46.798780487804876,50 46.59552845528455,50.355691056910565 46.34146341463415,50.8130081300813 46.1890243902439,51.27032520325203 46.03658536585366,51.72764227642276 45.9349593495935,52.1849593495935 45.88414634146341,52.540650406504064 45.88414634146341,52.896341463414636 45.88414634146341,53.2520325203252 45.88414634146341,53.55691056910569 45.9349593495935,53.8109756097561" fill="none" stroke="black" stroke-width="0.6"></polyline><polyline points="45.9349593495935,53.8109756097561 46.03658536585366,54.0650406504065 46.08739837398374,54.31910569105691 46.239837398373986,54.52235772357724 46.392276422764226,54.77642276422764 46.59552845528455,54.92886178861789 46.90040650406504,55.08130081300813 47.20528455284553,55.18292682926829 47.510162601626014,55.233739837398375 47.916666666666664,55.28455284552845 48.27235772357724,55.28455284552845 48.67886178861789,55.18292682926829 49.136178861788615,55.08130081300813 49.59349593495935,54.92886178861789 50.05081300813008,54.72560975609756 50.50813008130081,54.52235772357724 50.86382113821138,54.31910569105691 51.27032520325203,54.0650406504065 51.72764227642276,53.8109756097561 52.03252032520325,53.55691056910569 52.38821138211382,53.2520325203252 52.69308943089431,52.896341463414636 52.947154471544714,52.59146341463415 53.201219512195124,52.235772357723576 53.50609756097561,51.880081300813 53.709349593495936,51.575203252032516 53.96341463414634,51.21951219512195 54.166666666666664,50.86382113821138 54.36991869918699,50.45731707317073 54.573170731707314,50.05081300813008 54.827235772357724,49.64430894308943 54.979674796747965,49.23780487804878 55.18292682926829,48.78048780487805 55.4369918699187,48.27235772357724 55.58943089430894,47.764227642276424 55.74186991869919,47.20528455284553 55.84349593495935,46.59552845528455 55.89430894308943,46.08739837398374 55.89430894308943,45.47764227642276 55.84349593495935,44.918699186991866 55.74186991869919,44.41056910569105 55.53861788617886,43.90243902439024 55.28455284552845,43.39430894308943 54.979674796747965,42.98780487804878 54.6239837398374,42.63211382113821 54.166666666666664,42.27642276422764 53.65853658536585,42.02235772357724 53.048780487804876,41.81910569105691 52.38821138211382,41.71747967479675 51.67682926829268,41.71747967479675 50.91463414634146,41.71747967479675" fill="none" stroke="black" stroke-width="0.6"></polyline><polyline points="50.91463414634146,41.71747967479675 50.10162601626016,41.71747967479675 49.28861788617886,41.86991869918699 48.42479674796748,42.02235772357724 47.5609756097561,42.22560975609756 46.7479674796748,42.479674796747965 45.88414634146341,42.83536585365854 45.02032520325203,43.1910569105691 44.25813008130081,43.64837398373984 43.49593495934959,44.25813008130081 42.78455284552845,44.96951219512195 42.17479674796748,45.73170731707317 41.61585365853659,46.59552845528455 41.15853658536585,47.5609756097561 40.802845528455286,48.47560975609756 40.447154471544714,49.49186991869919 40.19308943089431,50.50813008130081 39.989837398373986,51.422764227642276 39.88821138211382,52.33739837398374 39.83739837398374,53.2520325203252 39.83739837398374,54.0650406504065 39.9390243902439,54.8780487804878 40.142276422764226,55.6910569105691 40.34552845528455,56.453252032520325 40.65040650406504,57.21544715447154 40.95528455284553,57.97764227642276 41.36178861788618,58.63821138211382 41.86991869918699,59.2479674796748 42.479674796747965,59.80691056910569 43.1910569105691,60.21341463414634 44.0040650406504,60.46747967479675 44.918699186991866,60.61991869918699 45.88414634146341,60.72154471544715 47.0020325203252,60.72154471544715 48.06910569105691,60.61991869918699 49.136178861788615,60.46747967479675 50.355691056910565,60.3150406504065 51.32113821138211,60.0609756097561 52.38821138211382,59.75609756097561 53.40447154471545,59.34959349593496 54.31910569105691,58.99390243902439 55.13211382113821,58.58739837398374 56.046747967479675,58.130081300813 56.75813008130081,57.672764227642276 57.418699186991866,57.11382113821138 58.130081300813,56.5040650406504 58.6890243902439,55.89430894308943 59.2479674796748,55.18292682926829 59.80691056910569,54.36991869918699 60.21341463414634,53.607723577235774 60.61991869918699,52.74390243902439" fill="none" stroke="black" stroke-width="0.6"></polyline><polyline points="60.61991869918699,52.74390243902439 60.97560975609756,51.829268292682926 61.17886178861789,50.96544715447154 61.28048780487805,50.05081300813008 61.38211382113821,49.136178861788615 61.38211382113821,48.27235772357724 61.28048780487805,47.357723577235774 61.1280487804878,46.44308943089431 60.8739837398374,45.579268292682926 60.56910569105691,44.71544715447154 60.16260162601626,43.80081300813008 59.70528455284553,42.98780487804878 59.197154471544714,42.17479674796748 58.58739837398374,41.3109756097561 58.02845528455284,40.59959349593496 57.36788617886179,39.88821138211382 56.65650406504065,39.176829268292686 55.94512195121951,38.61788617886179 55.18292682926829,38.05894308943089 54.36991869918699,37.55081300813008 53.607723577235774,37.14430894308943 52.74390243902439,36.83943089430894 51.880081300813,36.58536585365854 50.96544715447154,36.43292682926829 50.05081300813008,36.38211382113821 49.08536585365854,36.38211382113821 48.11991869918699,36.43292682926829 47.103658536585364,36.636178861788615 46.03658536585366,36.9410569105691 44.96951219512195,37.39837398373984 43.80081300813008,37.95731707317073 42.68292682926829,38.61788617886179 41.514227642276424,39.38008130081301 40.29471544715447,40.24390243902439 39.1260162601626,41.209349593495936 38.00813008130081,42.327235772357724 36.9410569105691,43.49593495934959 35.92479674796748,44.766260162601625 35.010162601626014,45.985772357723576 34.197154471544714,47.357723577235774 33.485772357723576,48.6280487804878 32.926829268292686,49.949186991869915 32.52032520325203,51.27032520325203 32.16463414634146,52.59146341463415 31.961382113821138,53.86178861788618 31.910569105691057,55.13211382113821 31.910569105691057,56.30081300813008 32.16463414634146,57.36788617886179 32.52032520325203,58.43495934959349 33.02845528455285,59.40040650406504 33.58739837398374,60.36585365853659" fill="none" stroke="black" stroke-width="0.6"></polyline><polyline points="33.58739837398374,60.36585365853659 34.34959349593496,61.28048780487805 35.0609756097561,62.09349593495935 35.92479674796748,62.90650406504065 36.890243902439025,63.77032520325203 37.7540650406504,64.53252032520325 38.77032520325203,65.2439024390244 39.78658536585366,66.0569105691057 40.802845528455286,66.66666666666667 41.86991869918699,67.27642276422765 43.03861788617886,67.78455284552845 44.15650406504065,68.1910569105691 45.3760162601626,68.54674796747967 46.646341463414636,68.75 47.916666666666664,68.80081300813008 49.23780487804878,68.75 50.66056910569105,68.4959349593496 52.03252032520325,68.14024390243902 53.45528455284553,67.58130081300813 54.92886178861789,66.869918699187 56.25,66.10772357723577 57.57113821138211,65.14227642276423 58.94308943089431,64.1260162601626 60.11178861788618,63.05894308943089 61.229674796747965,61.99186991869919 62.34756097560975,60.823170731707314 63.21138211382114,59.80691056910569 64.02439024390243,58.6890243902439 64.83739837398373,57.57113821138211 65.44715447154472,56.5040650406504 66.0060975609756,55.33536585365854 66.5650406504065,54.0650406504065 66.97154471544715,52.896341463414636 67.32723577235772,51.575203252032516 67.6321138211382,50.15243902439024 67.73373983739837,48.88211382113821 67.83536585365853,47.510162601626014 67.83536585365853,46.13821138211382 67.73373983739837,44.766260162601625 67.53048780487805,43.44512195121951 67.22560975609755,42.22560975609756 66.8191056910569,40.95528455284553 66.3109756097561,39.78658536585366 65.70121951219512,38.61788617886179 65.14227642276423,37.60162601626016 64.43089430894308,36.53455284552845 63.668699186991866,35.56910569105691 62.90650406504065,34.65447154471545 62.09349593495935,33.790650406504064 61.229674796747965,32.97764227642276 60.36585365853659,32.21544715447154" fill="none" stroke="black" stroke-width="0.6"></polyline><polyline points="60.36585365853659,32.21544715447154 59.451219512195124,31.554878048780488 58.43495934959349,30.945121951219512 57.418699186991866,30.38617886178862 56.30081300813008,29.979674796747968 55.13211382113821,29.6239837398374 53.86178861788618,29.420731707317074 52.540650406504064,29.268292682926827 51.11788617886179,29.268292682926827 49.64430894308943,29.369918699186993 48.06910569105691,29.67479674796748 46.44308943089431,30.08130081300813 44.86788617886179,30.640243902439025 43.1910569105691,31.351626016260163 41.5650406504065,32.11382113821138 39.989837398373986,32.926829268292686 38.46544715447154,33.84146341463415 36.99186991869919,34.75609756097561 35.61991869918699,35.670731707317074 34.34959349593496,36.636178861788615 33.13008130081301,37.65243902439024 32.0630081300813,38.71951219512195 30.995934959349594,39.88821138211382 30.182926829268293,41.00609756097561 29.31910569105691,42.327235772357724 28.60772357723577,43.75 28.048780487804876,45.12195121951219 27.591463414634145,46.697154471544714 27.235772357723576,48.323170731707314 27.03252032520325,49.796747967479675 27.03252032520325,51.27032520325203 27.03252032520325,52.69308943089431 27.286585365853657,53.91260162601626 27.642276422764226,55.233739837398375 28.15040650406504,56.5040650406504 28.65853658536585,57.72357723577235 29.268292682926827,58.94308943089431 29.979674796747968,60.21341463414634 30.640243902439025,61.33130081300813 31.351626016260163,62.55081300813008 32.16463414634146,63.71951219512195 32.926829268292686,64.78658536585365 33.790650406504064,65.90447154471545 34.75609756097561,67.02235772357723 35.61991869918699,67.98780487804878 36.53455284552845,68.95325203252033 37.55081300813008,69.91869918699187 38.516260162601625,70.73170731707317 39.583333333333336,71.49390243902438 40.701219512195124,72.15447154471545 41.81910569105691,72.71341463414635" fill="none" stroke="black" stroke-width="0.6"></polyline><polyline points="41.81910569105691,72.71341463414635 43.03861788617886,73.0691056910569 44.30894308943089,73.32317073170732 45.579268292682926,73.42479674796748 46.90040650406504,73.47560975609755 48.27235772357724,73.47560975609755 49.59349593495935,73.32317073170732 50.96544715447154,73.119918699187 52.28658536585366,72.86585365853658 53.607723577235774,72.51016260162602 54.8780487804878,72.15447154471545 56.14837398373984,71.79878048780488 57.266260162601625,71.49390243902438 58.43495934959349,71.1890243902439 59.5020325203252,70.8841463414634 60.51829268292683,70.52845528455285 61.53455284552845,70.1219512195122 62.55081300813008,69.66463414634146 63.46544715447154,69.20731707317073 64.43089430894308,68.69918699186992 65.34552845528455,68.08943089430895 66.15853658536585,67.3780487804878 66.97154471544715,66.66666666666667 67.73373983739837,65.85365853658537 68.4451219512195,64.98983739837398 69.10569105691057,64.17682926829268 69.71544715447155,63.262195121951216 70.22357723577235,62.39837398373984 70.73170731707317,61.483739837398375 71.1890243902439,60.56910569105691 71.54471544715447,59.70528455284553 71.90040650406505,58.892276422764226 72.15447154471545,58.079268292682926 72.35772357723577,57.3170731707317 72.5609756097561,56.55487804878049 72.71341463414635,55.89430894308943 72.8150406504065,55.33536585365854 72.91666666666667,54.77642276422764 73.01829268292683,54.26829268292683 73.0691056910569,53.8109756097561 73.17073170731707,53.40447154471545 73.22154471544715,53.048780487804876 73.27235772357723,52.642276422764226 73.3739837398374,52.235772357723576 73.42479674796748,51.880081300813 73.52642276422765,51.52439024390244 73.67886178861788,51.11788617886179 73.78048780487805,50.8130081300813 73.9329268292683,50.45731707317073 74.08536585365853,50.10162601626016 74.23780487804878,49.89837398373984" fill="none" stroke="black" stroke-width="0.6"></polyline><polyline points="74.23780487804878,49.89837398373984 74.39024390243902,49.69512195121951 74.59349593495935,49.49186991869919 74.7459349593496,49.33943089430894 74.94918699186992,49.1869918699187 75.15243902439025,49.08536585365854 75.2540650406504,48.983739837398375 75.35569105691057,48.93292682926829 75.45731707317073,48.88211382113821 75.45731707317073,48.88211382113821 75.45731707317073,48.88211382113821 75.45731707317073,48.88211382113821 75.45731707317073,48.88211382113821 75.45731707317073,48.88211382113821 75.45731707317073,48.88211382113821 75.45731707317073,48.88211382113821 75.45731707317073,48.88211382113821 75.45731707317073,48.93292682926829 75.5081300813008,48.983739837398375 75.5589430894309,49.08536585365854 75.66056910569105,49.1869918699187 75.76219512195122,49.28861788617886 75.91463414634146,49.4410569105691 76.0670731707317,49.542682926829265 76.21951219512195,49.64430894308943 76.3719512195122,49.74593495934959 76.57520325203252,49.796747967479675 76.72764227642276,49.89837398373984 76.93089430894308,49.89837398373984 77.08333333333333,49.949186991869915 77.28658536585365,49.949186991869915 77.4390243902439,49.949186991869915 77.59146341463415,49.949186991869915 77.6930894308943,49.949186991869915 77.84552845528455,49.89837398373984 77.9979674796748,49.74593495934959 78.15040650406505,49.49186991869919" fill="none" stroke="black" stroke-width="0.6"></polyline></svg>