<svg height="100" width="100" preserveAspectRatio="xMidYMid meet"><polyline points="50.55894308943089,49.28861788617886 50.71138211382114,49.4410569105691" fill="none" stroke="black" stroke-width="0.6"></polyline><polyline points="50.609756097560975,49.28861788617886 50.762195121951216,49.4410569105691" fill="none" stroke="black" stroke-width="0.6"></polyline><polyline points="63.41463414634146,49.33943089430894 63.5670731707317,49.49186991869919" fill="none" stroke="black" stroke-width="0.6"></polyline><polyline points="63.46544715447154,49.33943089430894 63.61788617886179,49.49186991869919" fill="none" stroke="black" stroke-width="0.6"></polyline><polyline points="63.46544715447154,49.33943089430894 63.61788617886179,49.49186991869919" fill="none" stroke="black" stroke-width="0.6"></polyline><polyline points="63.46544715447154,49.33943089430894 63.61788617886179,49.49186991869919" fill="none" stroke="black" stroke-width="0.6"></polyline><polyline points="63.41463414634146,49.33943089430894 63.5670731707317,49.49186991869919" fill="none" stroke="black" stroke-width="0.6"></polyline><polyline points="63.41463414634146,49.33943089430894 63.5670731707317,49.49186991869919" fill="none" stroke="black" stroke-width="0.6"></polyline><polyline points="63.46544715447154,49.390243902439025 63.61788617886179,49.542682926829265" fill="none" stroke="black" stroke-width="0.6"></polyline><polyline points="63.41463414634146,49.390243902439025 63.5670731707317,49.542682926829265" fill="none" stroke="black" stroke-width="0.6"></polyline><polyline points="63.41463414634146,49.33943089430894 63.5670731707317,49.49186991869919" fill="none" stroke="black" stroke-width="0.6"></polyline><polyline points="63.41463414634146,49.33943089430894 63.5670731707317,49.49186991869919" fill="none" stroke="black" stroke-width="0.6"></polyline><polyline points="63.41463414634146,49.33943089430894 63.5670731707317,49.49186991869919" fill="none" stroke="black" stroke-width="0.6"></polyline><polyline points="70.17276422764228,50.55894308943089 70.32520325203252,50.71138211382114" fill="none" stroke="black" stroke-width="0.6"></polyline><polyline points="77.03252032520325,49.23780487804878 77.1849593495935,49.390243902439025" fill="none" stroke="black" stroke-width="0.6"></polyline></svg>