<svg height="100" width="100" preserveAspectRatio="xMidYMid meet"><polyline points="33.58739837398374,81.14837398373983 33.739837398373986,81.30081300813008" fill="none" stroke="black" stroke-width="0.6"></polyline><polyline points="18.445121951219512,74.23780487804878 18.597560975609756,74.39024390243902" fill="none" stroke="black" stroke-width="0.6"></polyline><polyline points="12.347560975609756,61.28048780487805 12.5,61.43292682926829" fill="none" stroke="black" stroke-width="0.6"></polyline><polyline points="10.670731707317072,48.729674796747965 10.823170731707316,48.88211382113821" fill="none" stroke="black" stroke-width="0.6"></polyline><polyline points="13.617886178861788,28.912601626016258 13.770325203252032,29.0650406504065" fill="none" stroke="black" stroke-width="0.6"></polyline><polyline points="26.117886178861788,13.567073170731707 26.270325203252032,13.71951219512195" fill="none" stroke="black" stroke-width="0.6"></polyline><polyline points="35.3150406504065,8.333333333333334 35.46747967479675,8.485772357723578" fill="none" stroke="black" stroke-width="0.6"></polyline><polyline points="50.10162601626016,9.40040650406504 50.2540650406504,9.552845528455284" fill="none" stroke="black" stroke-width="0.6"></polyline><polyline points="60.16260162601626,9.298780487804878 60.3150406504065,9.451219512195122" fill="none" stroke="black" stroke-width="0.6"></polyline><polyline points="73.22154471544715,7.113821138211382 73.3739837398374,7.266260162601625" fill="none" stroke="black" stroke-width="0.6"></polyline><polyline points="76.93089430894308,10.772357723577235 76.880081300813,11.788617886178862 76.880081300813,11.839430894308943 76.880081300813,11.890243902439025 76.82926829268293,11.890243902439025 76.82926829268293,11.941056910569106 76.77845528455285,11.941056910569106 76.77845528455285,11.991869918699187 76.72764227642276,11.991869918699187 76.67682926829268,11.991869918699187 76.6260162601626,11.991869918699187 76.6260162601626,12.042682926829269 76.57520325203252,12.042682926829269 76.57520325203252,12.09349593495935 76.52439024390243,12.09349593495935 76.52439024390243,12.144308943089431 76.47357723577235,12.195121951219512 76.42276422764228,12.195121951219512 76.42276422764228,12.245934959349594 76.3719512195122,12.245934959349594 76.3211382113821,12.245934959349594 76.3211382113821,12.296747967479675 76.27032520325203,12.296747967479675 76.27032520325203,12.347560975609756 76.21951219512195,12.398373983739837 76.11788617886178,12.449186991869919 76.0670731707317,12.550813008130081 76.01626016260163,12.652439024390244 75.91463414634146,12.754065040650406 75.8130081300813,12.957317073170731 75.71138211382113,13.109756097560975 75.5589430894309,13.3130081300813 75.45731707317073,13.465447154471544" fill="none" stroke="black" stroke-width="0.6"></polyline></svg>