<svg height="100" width="100" preserveAspectRatio="xMidYMid meet"><polyline points="17.225609756097562,10.518292682926829 17.225609756097562,10.518292682926829 17.225609756097562,10.518292682926829 17.225609756097562,10.518292682926829 17.225609756097562,10.518292682926829 17.225609756097562,10.518292682926829 17.225609756097562,10.518292682926829 17.225609756097562,10.518292682926829 17.225609756097562,10.518292682926829 17.225609756097562,10.518292682926829 17.225609756097562,10.518292682926829 17.225609756097562,10.518292682926829 17.225609756097562,10.518292682926829 17.225609756097562,10.518292682926829 17.225609756097562,10.518292682926829 17.225609756097562,10.518292682926829 17.225609756097562,10.518292682926829 17.17479674796748,10.467479674796747 17.17479674796748,10.467479674796747 17.17479674796748,10.467479674796747 17.17479674796748,10.467479674796747 17.1239837398374,10.467479674796747 17.1239837398374,10.416666666666666 17.073170731707318,10.416666666666666 16.971544715447155,10.365853658536585 16.971544715447155,10.365853658536585 16.920731707317074,10.365853658536585 16.76829268292683,10.315040650406504 16.71747967479675,10.315040650406504 16.666666666666668,10.315040650406504 16.615853658536587,10.264227642276422 16.41260162601626,10.264227642276422 16.36178861788618,10.264227642276422 16.260162601626014,10.264227642276422 16.05691056910569,10.264227642276422 15.802845528455284,10.264227642276422 15.59959349593496,10.315040650406504 15.345528455284553,10.467479674796747 15.24390243902439,10.56910569105691 15.142276422764228,10.619918699186991 15.091463414634147,10.721544715447154 15.040650406504065,10.772357723577235 14.888211382113822,11.077235772357723 14.786585365853659,11.331300813008129 14.735772357723578,11.585365853658537 14.684959349593496,11.737804878048781 14.684959349593496,12.042682926829269 14.684959349593496,12.195121951219512 14.684959349593496,12.550813008130081 14.786585365853659,12.957317073170731 14.888211382113822,13.211382113821138" fill="none" stroke="black" stroke-width="0.6"></polyline><polyline points="14.888211382113822,13.211382113821138 14.939024390243903,13.3130081300813 14.989837398373984,13.414634146341463 15.142276422764228,13.617886178861788 15.24390243902439,13.71951219512195 15.345528455284553,13.770325203252032 15.396341463414634,13.821138211382113 15.447154471544716,13.821138211382113 15.548780487804878,13.821138211382113 15.65040650406504,13.821138211382113 15.752032520325203,13.821138211382113 16.006097560975608,13.66869918699187 16.10772357723577,13.567073170731707 16.209349593495933,13.516260162601625 16.3109756097561,13.414634146341463 16.41260162601626,13.3130081300813 16.514227642276424,13.211382113821138 16.76829268292683,12.855691056910569 16.81910569105691,12.754065040650406 16.869918699186993,12.652439024390244 16.971544715447155,12.5 17.073170731707318,12.195121951219512 17.1239837398374,11.890243902439025 17.1239837398374,11.585365853658537 17.17479674796748,11.432926829268293 17.17479674796748,11.331300813008129 17.17479674796748,11.178861788617885 17.17479674796748,11.077235772357723 17.17479674796748,11.026422764227641 17.17479674796748,10.873983739837398 17.17479674796748,10.772357723577235 17.17479674796748,10.772357723577235 17.17479674796748,10.772357723577235 17.17479674796748,10.721544715447154 17.17479674796748,10.721544715447154 17.17479674796748,10.721544715447154 17.17479674796748,10.772357723577235 17.17479674796748,10.772357723577235 17.17479674796748,10.772357723577235 17.17479674796748,10.823170731707316 17.17479674796748,10.823170731707316 17.17479674796748,10.873983739837398 17.17479674796748,10.924796747967479 17.17479674796748,10.924796747967479 17.17479674796748,11.077235772357723 17.17479674796748,11.229674796747966 17.17479674796748,11.432926829268293 17.225609756097562,11.585365853658537 17.276422764227643,11.737804878048781 17.327235772357724,12.042682926829269 17.428861788617887,12.449186991869919" fill="none" stroke="black" stroke-width="0.6"></polyline><polyline points="17.428861788617887,12.449186991869919 17.53048780487805,12.804878048780488 17.632113821138212,13.109756097560975 17.784552845528456,13.363821138211382 17.9369918699187,13.516260162601625 18.089430894308943,13.617886178861788 18.241869918699187,13.66869918699187 18.445121951219512,13.66869918699187 18.648373983739837,13.66869918699187 18.75,13.66869918699187 18.902439024390244,13.617886178861788 19.004065040650406,13.567073170731707 19.15650406504065,13.516260162601625 19.308943089430894,13.465447154471544 19.410569105691057,13.414634146341463 19.461382113821138,13.363821138211382 19.461382113821138,13.363821138211382 19.51219512195122,13.363821138211382 19.51219512195122,13.3130081300813 19.5630081300813,13.3130081300813 19.5630081300813,13.3130081300813 19.5630081300813,13.3130081300813 19.5630081300813,13.3130081300813 19.5630081300813,13.3130081300813 19.5630081300813,13.3130081300813 19.5630081300813,13.3130081300813 19.51219512195122,13.3130081300813 19.51219512195122,13.3130081300813 19.51219512195122,13.3130081300813 19.51219512195122,13.262195121951219 19.51219512195122,13.262195121951219 19.51219512195122,13.262195121951219 19.51219512195122,13.262195121951219 19.51219512195122,13.262195121951219 19.51219512195122,13.262195121951219 19.51219512195122,13.262195121951219 19.51219512195122,13.262195121951219 19.461382113821138,13.262195121951219 19.461382113821138,13.211382113821138 19.461382113821138,13.211382113821138 19.461382113821138,13.211382113821138" fill="none" stroke="black" stroke-width="0.6"></polyline><polyline points="32.16463414634146,5.741869918699187 32.11382113821138,5.691056910569106 32.11382113821138,5.691056910569106 32.11382113821138,5.640243902439024 32.0630081300813,5.589430894308943 32.0630081300813,5.589430894308943 32.0630081300813,5.589430894308943 32.0630081300813,5.589430894308943 32.0630081300813,5.538617886178861 32.0630081300813,5.538617886178861 32.0630081300813,5.538617886178861 32.0630081300813,5.538617886178861 32.0630081300813,5.538617886178861 32.0630081300813,5.538617886178861 32.0630081300813,5.538617886178861 32.0630081300813,5.538617886178861 32.0630081300813,5.538617886178861 32.0630081300813,5.538617886178861 32.0630081300813,5.538617886178861 32.0630081300813,5.538617886178861 32.0630081300813,5.538617886178861 32.0630081300813,5.538617886178861 32.0630081300813,5.538617886178861 32.0630081300813,5.538617886178861 32.0630081300813,5.538617886178861 32.0630081300813,5.589430894308943 32.0630081300813,5.640243902439024 32.0630081300813,5.691056910569106 32.0630081300813,5.84349593495935 32.0630081300813,6.097560975609756 32.0630081300813,6.504065040650406 32.11382113821138,7.0630081300813 32.16463414634146,7.723577235772358 32.16463414634146,8.028455284552845 32.21544715447154,8.333333333333334 32.21544715447154,8.638211382113822 32.21544715447154,9.247967479674797 32.21544715447154,9.502032520325203 32.16463414634146,10.010162601626016 32.0630081300813,10.416666666666666 32.012195121951216,10.823170731707316 31.961382113821138,11.178861788617885 31.910569105691057,11.280487804878048 31.859756097560975,11.534552845528456 31.808943089430894,11.6869918699187 31.758130081300813,11.941056910569106 31.758130081300813,12.042682926829269 31.758130081300813,12.09349593495935 31.70731707317073,12.347560975609756 31.70731707317073,12.347560975609756 31.70731707317073,12.398373983739837" fill="none" stroke="black" stroke-width="0.6"></polyline><polyline points="31.70731707317073,12.398373983739837 31.70731707317073,12.398373983739837 31.65650406504065,12.398373983739837 31.65650406504065,12.398373983739837 31.65650406504065,12.347560975609756 31.65650406504065,12.296747967479675 31.65650406504065,12.245934959349594 31.65650406504065,12.195121951219512 31.65650406504065,11.991869918699187 31.65650406504065,11.788617886178862 31.65650406504065,11.534552845528456 31.758130081300813,11.229674796747966 31.808943089430894,11.077235772357723 31.859756097560975,10.924796747967479 31.961382113821138,10.823170731707316 32.012195121951216,10.721544715447154 32.16463414634146,10.467479674796747 32.36788617886179,10.264227642276422 32.72357723577236,10.111788617886178 32.82520325203252,10.111788617886178 32.926829268292686,10.111788617886178 33.02845528455285,10.111788617886178 33.18089430894309,10.213414634146341 33.38414634146341,10.365853658536585 33.63821138211382,10.721544715447154 33.790650406504064,10.97560975609756 33.84146341463415,11.077235772357723 33.892276422764226,11.331300813008129 33.94308943089431,11.585365853658537 33.94308943089431,11.890243902439025 33.94308943089431,11.991869918699187 33.84146341463415,12.09349593495935 33.790650406504064,12.245934959349594 33.6890243902439,12.347560975609756 33.333333333333336,12.5 33.23170731707317,12.550813008130081 33.079268292682926,12.601626016260163 32.926829268292686,12.601626016260163 32.672764227642276,12.652439024390244 32.418699186991866,12.652439024390244 32.11382113821138,12.601626016260163 32.012195121951216,12.550813008130081 31.910569105691057,12.449186991869919 31.859756097560975,12.347560975609756 31.808943089430894,12.245934959349594 31.758130081300813,12.144308943089431 31.70731707317073,11.991869918699187 31.70731707317073,11.839430894308943 31.70731707317073,11.788617886178862 31.70731707317073,11.788617886178862 31.70731707317073,11.737804878048781" fill="none" stroke="black" stroke-width="0.6"></polyline><polyline points="31.70731707317073,11.737804878048781 31.70731707317073,11.737804878048781 31.70731707317073,11.737804878048781 31.808943089430894,11.737804878048781" fill="none" stroke="black" stroke-width="0.6"></polyline><polyline points="49.74593495934959,10.467479674796747 49.796747967479675,10.416666666666666 49.89837398373984,10.365853658536585 49.949186991869915,10.315040650406504 50.05081300813008,10.264227642276422 50.05081300813008,10.264227642276422 50.05081300813008,10.264227642276422 50.05081300813008,10.264227642276422 50.05081300813008,10.264227642276422 50.05081300813008,10.264227642276422 50.05081300813008,10.315040650406504 50.05081300813008,10.315040650406504 50,10.416666666666666 50,10.416666666666666 50,10.518292682926829 50,10.56910569105691 50,10.619918699186991 50,10.772357723577235 50,10.772357723577235 50,10.823170731707316 50.05081300813008,10.873983739837398 50.05081300813008,10.924796747967479 50.05081300813008,10.97560975609756 50.05081300813008,10.97560975609756 50.05081300813008,10.97560975609756 50.10162601626016,10.97560975609756 50.10162601626016,10.924796747967479 50.10162601626016,10.721544715447154 50.10162601626016,10.619918699186991 50.05081300813008,10.518292682926829 50.05081300813008,10.365853658536585 49.949186991869915,10.060975609756097 49.89837398373984,9.959349593495935 49.89837398373984,9.80691056910569 49.84756097560975,9.705284552845528 49.69512195121951,9.502032520325203 49.59349593495935,9.34959349593496 49.49186991869919,9.34959349593496 49.33943089430894,9.34959349593496 49.03455284552845,9.451219512195122 48.983739837398375,9.552845528455284 48.88211382113821,9.603658536585366 48.83130081300813,9.705284552845528 48.67886178861789,9.959349593495935 48.577235772357724,10.213414634146341 48.52642276422764,10.518292682926829 48.47560975609756,10.670731707317072 48.47560975609756,10.823170731707316 48.42479674796748,11.229674796747966 48.42479674796748,11.6869918699187 48.42479674796748,12.144308943089431" fill="none" stroke="black" stroke-width="0.6"></polyline><polyline points="48.42479674796748,12.144308943089431 48.6280487804878,12.754065040650406 48.78048780487805,13.008130081300813 48.88211382113821,13.109756097560975 49.03455284552845,13.211382113821138 49.1869918699187,13.262195121951219 49.542682926829265,13.363821138211382 50,13.363821138211382 50.762195121951216,13.211382113821138 51.168699186991866,13.109756097560975 51.47357723577235,12.957317073170731 51.575203252032516,12.90650406504065 51.72764227642276,12.855691056910569 51.77845528455284,12.804878048780488 51.77845528455284,12.754065040650406 51.77845528455284,12.754065040650406 51.72764227642276,12.754065040650406 51.72764227642276,12.754065040650406 51.72764227642276,12.754065040650406 51.67682926829268,12.754065040650406 51.67682926829268,12.754065040650406 51.67682926829268,12.703252032520325 51.67682926829268,12.703252032520325 51.67682926829268,12.652439024390244 51.67682926829268,12.601626016260163" fill="none" stroke="black" stroke-width="0.6"></polyline><polyline points="66.76829268292683,11.128048780487804 66.76829268292683,11.128048780487804 66.76829268292683,11.077235772357723 66.76829268292683,11.077235772357723 66.71747967479675,11.026422764227641 66.71747967479675,11.026422764227641 66.71747967479675,10.97560975609756 66.66666666666667,10.97560975609756 66.66666666666667,10.924796747967479 66.66666666666667,10.873983739837398 66.61585365853658,10.873983739837398 66.61585365853658,10.873983739837398 66.5650406504065,10.823170731707316 66.5650406504065,10.823170731707316 66.5650406504065,10.772357723577235 66.46341463414635,10.772357723577235 66.36178861788618,10.721544715447154 66.3109756097561,10.721544715447154 66.20934959349593,10.721544715447154 65.95528455284553,10.670731707317072 65.80284552845528,10.670731707317072 65.65040650406505,10.670731707317072 65.44715447154472,10.772357723577235 65.29471544715447,10.924796747967479 65.1930894308943,11.026422764227641 65.04065040650406,11.331300813008129 64.88821138211382,11.6869918699187 64.83739837398373,11.941056910569106 64.73577235772358,12.550813008130081 64.6849593495935,12.804878048780488 64.6849593495935,13.058943089430894 64.6849593495935,13.465447154471544 64.73577235772358,13.770325203252032 64.88821138211382,13.973577235772357 64.9390243902439,14.024390243902438 64.98983739837398,14.07520325203252 65.14227642276423,14.1260162601626 65.29471544715447,14.1260162601626 65.44715447154472,14.1260162601626 65.65040650406505,13.973577235772357 66.0569105691057,13.66869918699187 66.36178861788618,13.3130081300813 66.51422764227642,13.109756097560975 66.76829268292683,12.652439024390244 66.97154471544715,12.042682926829269 67.07317073170732,11.6869918699187 67.27642276422765,10.467479674796747 67.32723577235772,9.603658536585366 67.32723577235772,8.790650406504065 67.22560975609755,8.231707317073171 66.97154471544715,7.520325203252033" fill="none" stroke="black" stroke-width="0.6"></polyline><polyline points="66.97154471544715,7.520325203252033 66.8191056910569,7.215447154471544 66.71747967479675,7.113821138211382 66.5650406504065,6.859756097560975 66.41260162601625,6.605691056910569 66.26016260162602,6.402439024390244 66.20934959349593,6.3516260162601625 66.15853658536585,6.25 66.0569105691057,6.1483739837398375 66.0569105691057,6.1483739837398375 66.0569105691057,6.1483739837398375 66.0569105691057,6.1483739837398375 66.0569105691057,6.1483739837398375 66.0569105691057,6.1483739837398375 66.10772357723577,6.199186991869919 66.20934959349593,6.554878048780488 66.3109756097561,6.758130081300813 66.41260162601625,7.012195121951219 66.5650406504065,7.571138211382114 66.869918699187,8.689024390243903 66.97154471544715,9.197154471544716 67.02235772357723,9.705284552845528 67.07317073170732,10.315040650406504 67.07317073170732,10.873983739837398 67.07317073170732,11.432926829268293 67.07317073170732,12.398373983739837 67.07317073170732,13.008130081300813 67.07317073170732,13.160569105691057 67.07317073170732,13.3130081300813 67.07317073170732,13.465447154471544 67.07317073170732,13.567073170731707 67.07317073170732,13.66869918699187 67.07317073170732,13.770325203252032 67.1239837398374,13.821138211382113 67.17479674796748,13.821138211382113 67.22560975609755,13.821138211382113 67.22560975609755,13.821138211382113 67.22560975609755,13.821138211382113 67.22560975609755,13.821138211382113 67.27642276422765,13.821138211382113 67.27642276422765,13.821138211382113 67.27642276422765,13.821138211382113 67.27642276422765,13.821138211382113 67.32723577235772,13.71951219512195 67.32723577235772,13.617886178861788 67.32723577235772,13.567073170731707" fill="none" stroke="black" stroke-width="0.6"></polyline><polyline points="80.74186991869918,12.804878048780488 80.74186991869918,12.804878048780488 80.74186991869918,12.804878048780488 80.74186991869918,12.804878048780488 80.74186991869918,12.804878048780488 80.74186991869918,12.804878048780488 80.74186991869918,12.855691056910569 80.74186991869918,12.855691056910569 80.74186991869918,12.855691056910569 80.74186991869918,12.855691056910569 80.79268292682927,12.855691056910569 80.79268292682927,12.855691056910569 80.79268292682927,12.855691056910569 80.79268292682927,12.855691056910569 80.79268292682927,12.855691056910569 80.79268292682927,12.855691056910569 80.79268292682927,12.855691056910569 80.79268292682927,12.855691056910569 80.84349593495935,12.855691056910569 80.84349593495935,12.855691056910569 80.84349593495935,12.855691056910569 80.9451219512195,12.855691056910569 81.09756097560975,12.855691056910569 81.19918699186992,12.804878048780488 81.35162601626016,12.804878048780488 81.65650406504065,12.703252032520325 81.96138211382113,12.550813008130081 82.16463414634146,12.449186991869919 82.3170731707317,12.347560975609756 82.5711382113821,12.144308943089431 82.77439024390243,11.890243902439025 82.8760162601626,11.737804878048781 82.92682926829268,11.585365853658537 82.97764227642276,11.331300813008129 82.97764227642276,11.128048780487804 82.97764227642276,11.026422764227641 82.92682926829268,10.97560975609756 82.82520325203252,10.873983739837398 82.67276422764228,10.772357723577235 82.46951219512195,10.721544715447154 82.26626016260163,10.721544715447154 82.11382113821138,10.670731707317072 81.96138211382113,10.670731707317072 81.85975609756098,10.670731707317072 81.7581300813008,10.670731707317072 81.65650406504065,10.670731707317072 81.60569105691057,10.670731707317072 81.55487804878048,10.772357723577235 81.40243902439025,10.97560975609756 81.30081300813008,11.178861788617885 81.14837398373983,11.432926829268293" fill="none" stroke="black" stroke-width="0.6"></polyline><polyline points="81.14837398373983,11.432926829268293 81.04674796747967,11.788617886178862 80.9451219512195,12.245934959349594 80.84349593495935,12.754065040650406 80.79268292682927,13.008130081300813 80.79268292682927,13.414634146341463 80.79268292682927,13.71951219512195 80.79268292682927,13.973577235772357 80.89430894308943,14.1260162601626 81.09756097560975,14.176829268292682 81.19918699186992,14.227642276422763 81.5040650406504,14.278455284552845 81.91056910569105,14.278455284552845 82.5711382113821,14.278455284552845 83.07926829268293,14.1260162601626 83.53658536585365,14.024390243902438 83.73983739837398,13.922764227642276 84.04471544715447,13.770325203252032 84.29878048780488,13.617886178861788 84.40040650406503,13.567073170731707 84.40040650406503,13.567073170731707 84.40040650406503,13.567073170731707 84.34959349593495,13.567073170731707 84.34959349593495,13.567073170731707 84.29878048780488,13.567073170731707 84.29878048780488,13.567073170731707 84.29878048780488,13.567073170731707 84.29878048780488,13.567073170731707 84.29878048780488,13.567073170731707 84.29878048780488,13.567073170731707 84.29878048780488,13.567073170731707 84.29878048780488,13.567073170731707 84.29878048780488,13.567073170731707 84.29878048780488,13.567073170731707 84.29878048780488,13.567073170731707 84.29878048780488,13.567073170731707 84.29878048780488,13.516260162601625" fill="none" stroke="black" stroke-width="0.6"></polyline><polyline points="16.920731707317074,23.577235772357724 16.920731707317074,23.577235772357724 16.920731707317074,23.577235772357724 16.920731707317074,23.577235772357724 16.920731707317074,23.577235772357724 16.920731707317074,23.577235772357724 16.920731707317074,23.577235772357724 16.920731707317074,23.577235772357724 16.920731707317074,23.577235772357724 16.920731707317074,23.577235772357724 16.920731707317074,23.577235772357724 16.920731707317074,23.577235772357724 16.920731707317074,23.577235772357724 16.920731707317074,23.577235772357724 16.920731707317074,23.577235772357724 16.920731707317074,23.577235772357724 16.920731707317074,23.577235772357724 16.920731707317074,23.526422764227643 16.920731707317074,23.526422764227643 16.920731707317074,23.526422764227643 16.920731707317074,23.475609756097562 16.920731707317074,23.42479674796748 16.920731707317074,23.323170731707318 16.920731707317074,23.272357723577237 16.920731707317074,23.170731707317074 16.920731707317074,23.06910569105691 16.869918699186993,22.865853658536587 16.869918699186993,22.560975609756095 16.76829268292683,22.052845528455283 16.666666666666668,21.90040650406504 16.514227642276424,21.59552845528455 16.41260162601626,21.443089430894307 16.10772357723577,21.13821138211382 15.955284552845528,21.036585365853657 15.752032520325203,21.036585365853657 15.701219512195122,21.036585365853657 15.65040650406504,21.036585365853657 15.548780487804878,21.08739837398374 15.447154471544716,21.1890243902439 15.345528455284553,21.341463414634145 15.19308943089431,21.59552845528455 15.19308943089431,21.747967479674795 15.091463414634147,22.052845528455283 15.040650406504065,22.510162601626014 14.989837398373984,23.119918699186993 14.989837398373984,24.1869918699187 14.989837398373984,24.54268292682927 14.989837398373984,25.254065040650406 14.989837398373984,25.609756097560975 14.989837398373984,25.914634146341463 14.989837398373984,26.473577235772357" fill="none" stroke="black" stroke-width="0.6"></polyline><polyline points="14.989837398373984,26.473577235772357 14.989837398373984,26.98170731707317 14.989837398373984,27.540650406504064 14.989837398373984,27.84552845528455 15.040650406504065,27.997967479674795 15.040650406504065,28.20121951219512 15.040650406504065,28.2520325203252 15.040650406504065,28.353658536585364 15.040650406504065,28.506097560975608 15.040650406504065,28.60772357723577 15.040650406504065,28.709349593495933 15.040650406504065,28.709349593495933 15.040650406504065,28.709349593495933 15.040650406504065,28.709349593495933 15.040650406504065,28.709349593495933 15.040650406504065,28.709349593495933 15.040650406504065,28.709349593495933 14.989837398373984,28.65853658536585 14.989837398373984,28.55691056910569 14.888211382113822,28.404471544715445 14.888211382113822,28.302845528455283" fill="none" stroke="black" stroke-width="0.6"></polyline><polyline points="13.617886178861788,25.711382113821138 13.617886178861788,25.660569105691057 13.617886178861788,25.660569105691057 13.617886178861788,25.609756097560975 13.617886178861788,25.609756097560975 13.567073170731707,25.609756097560975 13.567073170731707,25.609756097560975 13.567073170731707,25.558943089430894 13.567073170731707,25.558943089430894 13.567073170731707,25.558943089430894 13.617886178861788,25.558943089430894 13.66869918699187,25.558943089430894 13.71951219512195,25.609756097560975 13.922764227642276,25.660569105691057 14.176829268292682,25.711382113821138 14.786585365853659,25.8130081300813 15.19308943089431,25.86382113821138 15.447154471544716,25.86382113821138 15.65040650406504,25.86382113821138 15.853658536585366,25.86382113821138 16.209349593495933,25.76219512195122 16.565040650406505,25.660569105691057 16.869918699186993,25.45731707317073 17.276422764227643,25.152439024390244" fill="none" stroke="black" stroke-width="0.6"></polyline><polyline points="32.77439024390244,25.558943089430894 32.77439024390244,25.558943089430894 32.77439024390244,25.558943089430894 32.77439024390244,25.508130081300813 32.72357723577236,25.45731707317073 32.72357723577236,25.45731707317073 32.72357723577236,25.45731707317073 32.72357723577236,25.40650406504065 32.72357723577236,25.40650406504065 32.72357723577236,25.35569105691057 32.72357723577236,25.304878048780488 32.672764227642276,25.304878048780488 32.672764227642276,25.254065040650406 32.6219512195122,25.203252032520325 32.57113821138211,25.152439024390244 32.52032520325203,25.101626016260163 32.46951219512195,25.101626016260163 32.36788617886179,25.05081300813008 32.3170731707317,25 32.21544715447154,25 32.11382113821138,25 32.012195121951216,25 31.910569105691057,25.101626016260163 31.758130081300813,25.40650406504065 31.758130081300813,25.558943089430894 31.70731707317073,25.76219512195122 31.70731707317073,25.965447154471544 31.70731707317073,26.371951219512194 31.70731707317073,26.778455284552845 31.859756097560975,27.083333333333332 32.11382113821138,27.38821138211382 32.21544715447154,27.4390243902439 32.266260162601625,27.4390243902439 32.36788617886179,27.4390243902439 32.46951219512195,27.4390243902439 32.57113821138211,27.33739837398374 32.672764227642276,27.184959349593495 32.72357723577236,26.98170731707317 32.77439024390244,26.778455284552845 32.82520325203252,26.371951219512194 32.82520325203252,26.270325203252032 32.82520325203252,26.117886178861788 32.82520325203252,25.711382113821138 32.77439024390244,25.45731707317073 32.72357723577236,25.254065040650406 32.672764227642276,25.101626016260163 32.6219512195122,25.05081300813008 32.6219512195122,25.05081300813008 32.6219512195122,25.05081300813008 32.6219512195122,25.101626016260163 32.6219512195122,25.152439024390244" fill="none" stroke="black" stroke-width="0.6"></polyline><polyline points="32.6219512195122,25.152439024390244 32.6219512195122,25.254065040650406 32.6219512195122,25.304878048780488 32.672764227642276,25.45731707317073 32.77439024390244,25.76219512195122 32.82520325203252,25.965447154471544 32.926829268292686,26.16869918699187 33.13008130081301,26.6260162601626 33.38414634146341,27.235772357723576 33.58739837398374,27.84552845528455 33.790650406504064,28.506097560975608 33.99390243902439,29.420731707317074 33.99390243902439,29.928861788617887 33.99390243902439,30.182926829268293 33.99390243902439,30.4369918699187 33.892276422764226,30.79268292682927 33.739837398373986,31.25 33.53658536585366,31.554878048780488 33.28252032520325,31.808943089430894 33.02845528455285,32.012195121951216 32.672764227642276,32.21544715447154 32.418699186991866,32.3170731707317 32.266260162601625,32.3170731707317 32.16463414634146,32.3170731707317 31.910569105691057,32.266260162601625 31.758130081300813,32.0630081300813 31.554878048780488,31.758130081300813 31.504065040650406,31.60569105691057 31.351626016260163,31.25 31.30081300813008,31.148373983739837 31.19918699186992,30.995934959349594 31.148373983739837,30.89430894308943 31.148373983739837,30.79268292682927 31.097560975609756,30.741869918699187 31.097560975609756,30.691056910569106 31.097560975609756,30.691056910569106 31.097560975609756,30.640243902439025 31.097560975609756,30.640243902439025 31.097560975609756,30.640243902439025 31.097560975609756,30.691056910569106 31.097560975609756,30.741869918699187 31.148373983739837,30.84349593495935 31.19918699186992,30.84349593495935" fill="none" stroke="black" stroke-width="0.6"></polyline><polyline points="47.86585365853659,21.290650406504064 47.916666666666664,21.239837398373982 47.916666666666664,21.239837398373982 47.96747967479675,21.1890243902439 47.96747967479675,21.1890243902439 48.06910569105691,21.13821138211382 48.11991869918699,21.036585365853657 48.11991869918699,21.036585365853657 48.170731707317074,20.985772357723576 48.170731707317074,20.934959349593495 48.170731707317074,20.884146341463413 48.170731707317074,20.884146341463413 48.170731707317074,20.833333333333332 48.170731707317074,20.833333333333332 48.170731707317074,20.78252032520325 48.170731707317074,20.78252032520325 48.170731707317074,20.78252032520325 48.170731707317074,20.78252032520325 48.170731707317074,20.78252032520325 48.11991869918699,20.78252032520325 48.11991869918699,20.78252032520325 48.11991869918699,20.78252032520325 48.11991869918699,20.78252032520325 48.11991869918699,20.833333333333332 48.11991869918699,21.036585365853657 48.11991869918699,21.290650406504064 48.22154471544715,21.95121951219512 48.323170731707314,22.71341463414634 48.3739837398374,23.678861788617887 48.3739837398374,24.1869918699187 48.3739837398374,24.695121951219512 48.3739837398374,25.76219512195122 48.323170731707314,26.473577235772357 48.27235772357724,27.134146341463413 48.27235772357724,27.489837398373982 48.27235772357724,27.74390243902439 48.27235772357724,27.947154471544714 48.22154471544715,28.15040650406504 48.22154471544715,28.2520325203252 48.170731707317074,28.2520325203252 48.170731707317074,28.302845528455283 48.170731707317074,28.302845528455283 48.170731707317074,28.302845528455283 48.170731707317074,28.20121951219512 48.170731707317074,28.15040650406504 48.11991869918699,28.048780487804876 48.11991869918699,27.947154471544714 48.11991869918699,27.642276422764226 48.11991869918699,27.4390243902439 48.11991869918699,27.235772357723576 48.170731707317074,26.778455284552845" fill="none" stroke="black" stroke-width="0.6"></polyline><polyline points="48.170731707317074,26.778455284552845 48.3739837398374,26.117886178861788 48.6280487804878,25.711382113821138 48.729674796747965,25.508130081300813 48.88211382113821,25.35569105691057 48.983739837398375,25.254065040650406 49.28861788617886,25.05081300813008 49.542682926829265,24.94918699186992 49.74593495934959,24.94918699186992 49.796747967479675,24.94918699186992 49.89837398373984,24.94918699186992 50,24.94918699186992 50.15243902439024,25.101626016260163 50.2540650406504,25.254065040650406 50.355691056910565,25.45731707317073 50.50813008130081,25.76219512195122 50.55894308943089,25.914634146341463 50.609756097560975,26.270325203252032 50.66056910569105,26.422764227642276 50.66056910569105,26.57520325203252 50.71138211382114,26.727642276422763 50.71138211382114,26.93089430894309 50.762195121951216,27.4390243902439 50.762195121951216,27.74390243902439 50.762195121951216,27.896341463414632 50.762195121951216,28.048780487804876 50.762195121951216,28.20121951219512 50.762195121951216,28.302845528455283 50.762195121951216,28.353658536585364 50.762195121951216,28.353658536585364 50.762195121951216,28.353658536585364 50.762195121951216,28.353658536585364 50.762195121951216,28.353658536585364 50.762195121951216,28.302845528455283 50.762195121951216,28.2520325203252 50.762195121951216,28.20121951219512 50.762195121951216,28.099593495934958 50.762195121951216,27.896341463414632" fill="none" stroke="black" stroke-width="0.6"></polyline><polyline points="65.14227642276423,25.40650406504065 65.14227642276423,25.40650406504065 65.14227642276423,25.35569105691057 65.14227642276423,25.35569105691057 65.14227642276423,25.304878048780488 65.1930894308943,25.254065040650406 65.1930894308943,25.203252032520325 65.2439024390244,25.203252032520325 65.29471544715447,25.152439024390244 65.34552845528455,25.101626016260163 65.34552845528455,25.05081300813008 65.44715447154472,25 65.4979674796748,24.94918699186992 65.54878048780488,24.847560975609756 65.59959349593495,24.847560975609756 65.59959349593495,24.847560975609756 65.59959349593495,24.847560975609756 65.59959349593495,24.847560975609756 65.59959349593495,24.847560975609756 65.59959349593495,24.847560975609756 65.59959349593495,24.847560975609756 65.59959349593495,24.94918699186992 65.54878048780488,25.05081300813008 65.54878048780488,25.152439024390244 65.54878048780488,25.45731707317073 65.4979674796748,26.016260162601625 65.4979674796748,26.524390243902438 65.4979674796748,27.134146341463413 65.4979674796748,27.693089430894307 65.54878048780488,28.2520325203252 65.59959349593495,28.60772357723577 65.65040650406505,29.01422764227642 65.70121951219512,29.0650406504065 65.70121951219512,29.0650406504065 65.70121951219512,29.0650406504065 65.70121951219512,29.0650406504065 65.70121951219512,29.0650406504065 65.70121951219512,29.01422764227642 65.70121951219512,29.01422764227642 65.70121951219512,28.96341463414634 65.70121951219512,28.912601626016258 65.70121951219512,28.760162601626014 65.65040650406505,28.353658536585364 65.59959349593495,27.947154471544714 65.54878048780488,27.38821138211382" fill="none" stroke="black" stroke-width="0.6"></polyline><polyline points="65.7520325203252,21.95121951219512 65.7520325203252,21.747967479674795 65.70121951219512,21.443089430894307 65.70121951219512,21.341463414634145 65.70121951219512,21.290650406504064 65.70121951219512,21.290650406504064 65.70121951219512,21.290650406504064 65.70121951219512,21.290650406504064 65.70121951219512,21.290650406504064 65.70121951219512,21.290650406504064 65.70121951219512,21.341463414634145 65.70121951219512,21.341463414634145 65.70121951219512,21.341463414634145 65.70121951219512,21.392276422764226 65.70121951219512,21.392276422764226 65.70121951219512,21.392276422764226 65.70121951219512,21.392276422764226 65.70121951219512,21.392276422764226 65.70121951219512,21.392276422764226 65.70121951219512,21.392276422764226 65.70121951219512,21.392276422764226 65.70121951219512,21.392276422764226 65.70121951219512,21.392276422764226" fill="none" stroke="black" stroke-width="0.6"></polyline><polyline points="81.04674796747967,26.21951219512195 81.04674796747967,26.16869918699187 81.04674796747967,26.016260162601625 81.04674796747967,25.86382113821138 81.09756097560975,25.76219512195122 81.14837398373983,25.711382113821138 81.14837398373983,25.660569105691057 81.19918699186992,25.609756097560975 81.19918699186992,25.609756097560975 81.19918699186992,25.609756097560975 81.19918699186992,25.558943089430894 81.19918699186992,25.558943089430894 81.19918699186992,25.558943089430894 81.14837398373983,25.558943089430894 81.14837398373983,25.558943089430894 81.14837398373983,25.558943089430894 81.14837398373983,25.558943089430894 81.14837398373983,25.609756097560975 81.14837398373983,25.609756097560975 81.14837398373983,25.711382113821138 81.14837398373983,25.8130081300813 81.14837398373983,26.067073170731707 81.25,26.371951219512194 81.40243902439025,26.829268292682926 81.55487804878048,27.4390243902439 81.7581300813008,28.20121951219512 81.96138211382113,29.0650406504065 82.16463414634146,29.928861788617887 82.26626016260163,30.691056910569106 82.41869918699187,31.453252032520325 82.5711382113821,32.21544715447154 82.72357723577235,32.97764227642276 82.92682926829268,33.63821138211382 83.02845528455285,34.2479674796748 83.07926829268293,34.70528455284553 83.07926829268293,35.010162601626014 82.97764227642276,35.264227642276424 82.72357723577235,35.36585365853659 82.46951219512195,35.46747967479675 82.16463414634146,35.46747967479675 81.8089430894309,35.46747967479675 81.40243902439025,35.416666666666664 80.9959349593496,35.264227642276424 80.53861788617886,35.0609756097561 80.08130081300813,34.80691056910569 79.77642276422765,34.552845528455286 79.47154471544715,34.197154471544714 79.16666666666667,33.84146341463415 78.96341463414635,33.53658536585366 78.86178861788618,33.28252032520325 78.76016260162602,33.02845528455285" fill="none" stroke="black" stroke-width="0.6"></polyline><polyline points="78.76016260162602,33.02845528455285 78.70934959349593,32.8760162601626 78.70934959349593,32.77439024390244 78.76016260162602,32.72357723577236" fill="none" stroke="black" stroke-width="0.6"></polyline><polyline points="82.3170731707317,22.611788617886177 82.3170731707317,22.510162601626014 82.3170731707317,22.30691056910569 82.3170731707317,22.205284552845526 82.3170731707317,22.154471544715445 82.3170731707317,22.154471544715445 82.3170731707317,22.154471544715445 82.3170731707317,22.154471544715445 82.3170731707317,22.154471544715445 82.3170731707317,22.205284552845526 82.26626016260163,22.205284552845526 82.26626016260163,22.205284552845526 82.26626016260163,22.205284552845526 82.26626016260163,22.256097560975608 82.21544715447155,22.256097560975608 82.21544715447155,22.256097560975608 82.21544715447155,22.30691056910569 82.21544715447155,22.30691056910569 82.16463414634146,22.30691056910569 82.16463414634146,22.35772357723577 82.16463414634146,22.40853658536585" fill="none" stroke="black" stroke-width="0.6"></polyline><polyline points="14.278455284552845,39.53252032520325 14.176829268292682,39.48170731707317 14.1260162601626,39.38008130081301 14.1260162601626,39.38008130081301 14.1260162601626,39.27845528455285 14.1260162601626,39.22764227642276 14.1260162601626,39.22764227642276 14.1260162601626,39.176829268292686 14.1260162601626,39.176829268292686 14.1260162601626,39.1260162601626 14.1260162601626,39.1260162601626 14.1260162601626,39.1260162601626 14.1260162601626,39.1260162601626 14.1260162601626,39.1260162601626 14.1260162601626,39.1260162601626 14.1260162601626,39.07520325203252 14.07520325203252,39.07520325203252 14.07520325203252,39.07520325203252 14.07520325203252,39.07520325203252 14.07520325203252,39.07520325203252 14.07520325203252,39.07520325203252 14.07520325203252,39.07520325203252 14.07520325203252,39.07520325203252 14.07520325203252,39.07520325203252 14.07520325203252,39.07520325203252 14.07520325203252,39.07520325203252 14.07520325203252,39.07520325203252 14.07520325203252,39.07520325203252 14.07520325203252,39.07520325203252 14.07520325203252,39.07520325203252 14.07520325203252,39.07520325203252 14.024390243902438,39.1260162601626 14.024390243902438,39.176829268292686 14.024390243902438,39.22764227642276 13.973577235772357,39.43089430894309 13.922764227642276,39.78658536585366 13.871951219512194,40.29471544715447 13.821138211382113,40.65040650406504 13.770325203252032,41.36178861788618 13.770325203252032,42.17479674796748 13.770325203252032,42.9369918699187 13.770325203252032,43.292682926829265 13.770325203252032,43.59756097560975 13.770325203252032,44.15650406504065 13.770325203252032,44.86788617886179 13.821138211382113,45.07113821138211 13.821138211382113,45.27439024390244 13.871951219512194,45.3760162601626 13.871951219512194,45.52845528455285 13.922764227642276,45.63008130081301 13.922764227642276,45.73170731707317" fill="none" stroke="black" stroke-width="0.6"></polyline><polyline points="13.922764227642276,45.73170731707317 13.922764227642276,45.78252032520325 13.922764227642276,45.833333333333336 13.973577235772357,45.88414634146341 13.973577235772357,45.9349593495935 13.973577235772357,45.9349593495935 13.973577235772357,45.9349593495935 13.973577235772357,45.9349593495935 13.973577235772357,45.9349593495935 13.973577235772357,45.9349593495935 13.973577235772357,45.9349593495935 13.973577235772357,45.88414634146341 13.973577235772357,45.88414634146341 13.922764227642276,45.833333333333336 13.871951219512194,45.73170731707317 13.821138211382113,45.63008130081301 13.770325203252032,45.52845528455285 13.770325203252032,45.47764227642276 13.770325203252032,45.325203252032516 13.770325203252032,45.22357723577235 13.821138211382113,44.96951219512195 13.871951219512194,44.8170731707317" fill="none" stroke="black" stroke-width="0.6"></polyline><polyline points="16.05691056910569,42.27642276422764 16.05691056910569,42.22560975609756 16.05691056910569,42.22560975609756 16.05691056910569,42.17479674796748 16.10772357723577,42.1239837398374 16.10772357723577,42.1239837398374 16.10772357723577,42.073170731707314 16.10772357723577,42.073170731707314 16.10772357723577,42.073170731707314 16.10772357723577,42.073170731707314 16.10772357723577,42.073170731707314 16.10772357723577,42.073170731707314 16.10772357723577,42.073170731707314 16.10772357723577,42.073170731707314 16.10772357723577,42.073170731707314 16.10772357723577,42.073170731707314 16.10772357723577,42.1239837398374 16.05691056910569,42.1239837398374 16.006097560975608,42.17479674796748 16.006097560975608,42.17479674796748 15.955284552845528,42.22560975609756 15.853658536585366,42.27642276422764 15.65040650406504,42.3780487804878 15.548780487804878,42.479674796747965 15.396341463414634,42.58130081300813 15.24390243902439,42.68292682926829 14.939024390243903,42.83536585365854 14.634146341463413,43.03861788617886 14.53252032520325,43.140243902439025 14.329268292682926,43.292682926829265 14.227642276422763,43.34349593495935 14.176829268292682,43.39430894308943 14.07520325203252,43.44512195121951 14.07520325203252,43.44512195121951 14.024390243902438,43.49593495934959 14.024390243902438,43.49593495934959 14.024390243902438,43.49593495934959 13.973577235772357,43.546747967479675 13.973577235772357,43.546747967479675 13.973577235772357,43.546747967479675 13.973577235772357,43.546747967479675 13.973577235772357,43.546747967479675 13.973577235772357,43.546747967479675 13.973577235772357,43.59756097560975 13.973577235772357,43.59756097560975 14.024390243902438,43.59756097560975 14.024390243902438,43.59756097560975 14.07520325203252,43.64837398373984 14.176829268292682,43.699186991869915 14.278455284552845,43.80081300813008 14.329268292682926,43.85162601626016" fill="none" stroke="black" stroke-width="0.6"></polyline><polyline points="14.329268292682926,43.85162601626016 14.380081300813007,43.90243902439024 14.430894308943088,43.953252032520325 14.583333333333332,44.105691056910565 14.684959349593496,44.15650406504065 14.786585365853659,44.25813008130081 14.888211382113822,44.359756097560975 15.091463414634147,44.61382113821138 15.24390243902439,44.8170731707317 15.447154471544716,45.02032520325203 15.65040650406504,45.27439024390244 15.701219512195122,45.325203252032516 15.802845528455284,45.42682926829268 15.853658536585366,45.47764227642276 15.853658536585366,45.47764227642276 15.904471544715447,45.47764227642276 15.904471544715447,45.47764227642276 15.904471544715447,45.47764227642276 15.904471544715447,45.47764227642276 15.904471544715447,45.47764227642276 15.904471544715447,45.47764227642276 15.904471544715447,45.47764227642276 15.904471544715447,45.42682926829268 15.904471544715447,45.325203252032516 15.904471544715447,45.325203252032516 15.904471544715447,45.27439024390244 15.904471544715447,45.12195121951219 15.904471544715447,44.96951219512195" fill="none" stroke="black" stroke-width="0.6"></polyline><polyline points="32.97764227642276,38.668699186991866 32.97764227642276,38.668699186991866 32.97764227642276,38.668699186991866 32.97764227642276,38.668699186991866 32.97764227642276,38.668699186991866 32.97764227642276,38.668699186991866 32.97764227642276,38.61788617886179 32.97764227642276,38.61788617886179 32.97764227642276,38.61788617886179 32.97764227642276,38.61788617886179 32.97764227642276,38.5670731707317 32.97764227642276,38.5670731707317 32.97764227642276,38.5670731707317 32.926829268292686,38.5670731707317 32.926829268292686,38.5670731707317 32.926829268292686,38.5670731707317 32.926829268292686,38.5670731707317 32.926829268292686,38.5670731707317 32.926829268292686,38.5670731707317 32.926829268292686,38.5670731707317 32.926829268292686,38.5670731707317 32.926829268292686,38.5670731707317 32.926829268292686,38.5670731707317 32.926829268292686,38.5670731707317 32.926829268292686,38.5670731707317 32.926829268292686,38.5670731707317 32.926829268292686,38.71951219512195 32.926829268292686,38.77032520325203 32.926829268292686,38.87195121951219 32.926829268292686,39.176829268292686 32.926829268292686,39.43089430894309 32.926829268292686,39.6849593495935 32.926829268292686,40.7520325203252 32.8760162601626,41.5650406504065 32.82520325203252,41.920731707317074 32.82520325203252,42.27642276422764 32.77439024390244,42.886178861788615 32.72357723577236,43.1910569105691 32.72357723577236,43.49593495934959 32.72357723577236,43.699186991869915 32.72357723577236,44.05487804878049 32.72357723577236,44.20731707317073 32.77439024390244,44.359756097560975 32.77439024390244,44.46138211382114 32.82520325203252,44.66463414634146 32.82520325203252,44.8170731707317 32.82520325203252,44.86788617886179 32.8760162601626,44.86788617886179 32.8760162601626,44.86788617886179 32.8760162601626,44.86788617886179 32.8760162601626,44.86788617886179" fill="none" stroke="black" stroke-width="0.6"></polyline><polyline points="32.8760162601626,44.86788617886179 32.8760162601626,44.86788617886179 32.8760162601626,44.86788617886179 32.8760162601626,44.86788617886179 32.8760162601626,44.86788617886179 32.8760162601626,44.86788617886179 32.8760162601626,44.8170731707317 32.8760162601626,44.8170731707317 32.8760162601626,44.8170731707317 32.8760162601626,44.766260162601625 32.8760162601626,44.766260162601625 32.8760162601626,44.766260162601625 32.8760162601626,44.766260162601625 32.82520325203252,44.71544715447154 32.82520325203252,44.71544715447154" fill="none" stroke="black" stroke-width="0.6"></polyline><polyline points="48.27235772357724,42.17479674796748 48.27235772357724,42.17479674796748 48.323170731707314,42.17479674796748 48.3739837398374,42.1239837398374 48.42479674796748,42.073170731707314 48.42479674796748,42.02235772357724 48.47560975609756,41.97154471544715 48.47560975609756,41.97154471544715 48.52642276422764,41.920731707317074 48.577235772357724,41.920731707317074 48.577235772357724,41.920731707317074 48.577235772357724,41.86991869918699 48.577235772357724,41.86991869918699 48.6280487804878,41.86991869918699 48.6280487804878,41.86991869918699 48.6280487804878,41.86991869918699 48.6280487804878,41.86991869918699 48.67886178861789,41.920731707317074 48.67886178861789,41.97154471544715 48.67886178861789,42.073170731707314 48.67886178861789,42.327235772357724 48.729674796747965,42.479674796747965 48.78048780487805,43.24186991869919 48.78048780487805,43.80081300813008 48.78048780487805,44.46138211382114 48.78048780487805,45.02032520325203 48.729674796747965,45.3760162601626 48.67886178861789,45.52845528455285 48.6280487804878,45.68089430894309 48.577235772357724,45.68089430894309 48.577235772357724,45.68089430894309 48.577235772357724,45.68089430894309 48.577235772357724,45.63008130081301 48.577235772357724,45.52845528455285 48.577235772357724,45.325203252032516 48.577235772357724,45.07113821138211 48.729674796747965,44.61382113821138 48.983739837398375,44.105691056910565 49.23780487804878,43.546747967479675 49.64430894308943,42.9369918699187 50.10162601626016,42.3780487804878 50.45731707317073,42.02235772357724 50.86382113821138,41.86991869918699 50.96544715447154,41.97154471544715 50.96544715447154,42.27642276422764 50.96544715447154,42.68292682926829 50.96544715447154,43.1910569105691 50.86382113821138,43.699186991869915 50.8130081300813,43.953252032520325 50.71138211382114,44.359756097560975 50.66056910569105,44.71544715447154" fill="none" stroke="black" stroke-width="0.6"></polyline><polyline points="50.66056910569105,44.71544715447154 50.55894308943089,45.02032520325203 50.55894308943089,45.12195121951219 50.45731707317073,45.325203252032516 50.40650406504065,45.3760162601626 50.355691056910565,45.3760162601626 50.355691056910565,45.3760162601626 50.355691056910565,45.3760162601626 50.355691056910565,45.325203252032516 50.355691056910565,45.22357723577235 50.355691056910565,45.07113821138211 50.355691056910565,44.8170731707317 50.40650406504065,44.512195121951216 50.55894308943089,44.105691056910565 50.8130081300813,43.546747967479675 51.32113821138211,42.733739837398375 51.77845528455284,42.22560975609756 52.1849593495935,41.920731707317074 52.4390243902439,41.86991869918699 52.540650406504064,41.86991869918699 52.642276422764226,41.920731707317074 52.642276422764226,42.02235772357724 52.642276422764226,42.1239837398374 52.69308943089431,42.42886178861789 52.69308943089431,42.58130081300813 52.79471544715447,43.140243902439025 52.84552845528455,43.292682926829265 52.947154471544714,43.90243902439024 52.9979674796748,44.25813008130081 53.048780487804876,44.46138211382114 53.048780487804876,44.61382113821138 53.09959349593496,44.96951219512195 53.09959349593496,45.27439024390244 53.09959349593496,45.47764227642276 53.048780487804876,45.68089430894309 52.9979674796748,45.73170731707317 52.9979674796748,45.78252032520325 52.947154471544714,45.833333333333336 52.947154471544714,45.833333333333336 52.947154471544714,45.833333333333336 52.947154471544714,45.833333333333336 52.896341463414636,45.833333333333336 52.896341463414636,45.78252032520325" fill="none" stroke="black" stroke-width="0.6"></polyline><polyline points="65.14227642276423,42.78455284552845 65.14227642276423,42.733739837398375 65.09146341463415,42.63211382113821 65.09146341463415,42.58130081300813 65.04065040650406,42.53048780487805 65.04065040650406,42.53048780487805 65.04065040650406,42.53048780487805 65.04065040650406,42.53048780487805 65.04065040650406,42.53048780487805 65.04065040650406,42.53048780487805 65.04065040650406,42.53048780487805 65.04065040650406,42.53048780487805 65.04065040650406,42.53048780487805 65.04065040650406,42.53048780487805 65.04065040650406,42.58130081300813 65.04065040650406,42.63211382113821 65.04065040650406,42.733739837398375 65.04065040650406,42.83536585365854 65.04065040650406,42.9369918699187 65.04065040650406,43.08943089430894 65.04065040650406,43.44512195121951 65.04065040650406,43.64837398373984 65.09146341463415,43.85162601626016 65.09146341463415,44.359756097560975 65.09146341463415,44.61382113821138 65.09146341463415,44.86788617886179 65.09146341463415,45.325203252032516 65.09146341463415,45.52845528455285 65.04065040650406,45.63008130081301 65.04065040650406,45.78252032520325 65.04065040650406,45.88414634146341 64.98983739837398,45.9349593495935 64.98983739837398,45.9349593495935 64.9390243902439,45.88414634146341 64.9390243902439,45.833333333333336 64.9390243902439,45.78252032520325 64.88821138211382,45.63008130081301 64.88821138211382,45.42682926829268 64.88821138211382,45.07113821138211 64.98983739837398,44.66463414634146 65.14227642276423,44.105691056910565 65.29471544715447,43.85162601626016 65.44715447154472,43.546747967479675 65.90447154471545,42.83536585365854 66.15853658536585,42.479674796747965 66.41260162601625,42.22560975609756 66.8191056910569,41.97154471544715 67.1239837398374,41.86991869918699 67.22560975609755,41.86991869918699 67.27642276422765,42.02235772357724 67.32723577235772,42.17479674796748" fill="none" stroke="black" stroke-width="0.6"></polyline><polyline points="67.32723577235772,42.17479674796748 67.3780487804878,42.42886178861789 67.42886178861788,42.733739837398375 67.47967479674797,43.08943089430894 67.47967479674797,43.44512195121951 67.53048780487805,43.64837398373984 67.53048780487805,43.80081300813008 67.53048780487805,44.0040650406504 67.53048780487805,44.25813008130081 67.53048780487805,44.61382113821138 67.53048780487805,44.96951219512195 67.53048780487805,45.325203252032516 67.47967479674797,45.579268292682926 67.42886178861788,45.78252032520325 67.32723577235772,45.9349593495935 67.32723577235772,46.03658536585366 67.27642276422765,46.08739837398374 67.22560975609755,46.13821138211382 67.22560975609755,46.13821138211382 67.22560975609755,46.13821138211382 67.22560975609755,46.08739837398374 67.22560975609755,46.03658536585366 67.22560975609755,45.9349593495935" fill="none" stroke="black" stroke-width="0.6"></polyline><polyline points="81.19918699186992,43.59756097560975 81.19918699186992,43.59756097560975 81.19918699186992,43.59756097560975 81.19918699186992,43.59756097560975 81.19918699186992,43.546747967479675 81.19918699186992,43.546747967479675 81.19918699186992,43.546747967479675 81.19918699186992,43.546747967479675 81.19918699186992,43.546747967479675 81.19918699186992,43.546747967479675 81.19918699186992,43.49593495934959 81.19918699186992,43.49593495934959 81.19918699186992,43.49593495934959 81.19918699186992,43.49593495934959 81.19918699186992,43.49593495934959 81.19918699186992,43.546747967479675 81.19918699186992,43.699186991869915 81.19918699186992,44.0040650406504 81.14837398373983,44.359756097560975 81.14837398373983,44.8170731707317 81.14837398373983,45.22357723577235 81.19918699186992,45.63008130081301 81.30081300813008,45.985772357723576 81.5040650406504,46.1890243902439 81.70731707317073,46.290650406504064 81.85975609756098,46.290650406504064 82.01219512195122,46.34146341463415 82.16463414634146,46.34146341463415 82.46951219512195,46.290650406504064 82.82520325203252,46.239837398373986 83.130081300813,46.08739837398374 83.28252032520325,45.985772357723576 83.53658536585365,45.833333333333336 83.73983739837398,45.579268292682926 83.9430894308943,45.3760162601626 84.04471544715447,45.07113821138211 84.09552845528455,44.71544715447154 84.09552845528455,44.359756097560975 84.04471544715447,44.0040650406504 83.89227642276423,43.59756097560975 83.73983739837398,43.24186991869919 83.48577235772358,42.98780487804878 83.28252032520325,42.78455284552845 83.02845528455285,42.733739837398375 82.77439024390243,42.733739837398375 82.46951219512195,42.78455284552845 82.16463414634146,42.98780487804878 81.8089430894309,43.292682926829265 81.5040650406504,43.59756097560975 81.35162601626016,43.75" fill="none" stroke="black" stroke-width="0.6"></polyline><polyline points="13.66869918699187,58.536585365853654 13.71951219512195,58.536585365853654 13.71951219512195,58.536585365853654 13.71951219512195,58.485772357723576 13.71951219512195,58.485772357723576 13.71951219512195,58.43495934959349 13.71951219512195,58.43495934959349 13.71951219512195,58.43495934959349 13.71951219512195,58.43495934959349 13.71951219512195,58.43495934959349 13.71951219512195,58.38414634146341 13.71951219512195,58.38414634146341 13.71951219512195,58.38414634146341 13.71951219512195,58.38414634146341 13.71951219512195,58.38414634146341 13.71951219512195,58.38414634146341 13.71951219512195,58.38414634146341 13.71951219512195,58.38414634146341 13.71951219512195,58.43495934959349 13.71951219512195,58.43495934959349 13.71951219512195,58.485772357723576 13.71951219512195,58.6890243902439 13.71951219512195,58.790650406504064 13.71951219512195,58.94308943089431 13.71951219512195,59.40040650406504 13.66869918699187,60.0609756097561 13.66869918699187,60.46747967479675 13.617886178861788,60.8739837398374 13.567073170731707,61.6869918699187 13.516260162601625,62.55081300813008 13.465447154471544,63.36382113821138 13.414634146341463,63.97357723577235 13.363821138211382,64.22764227642276 13.3130081300813,64.83739837398373 13.262195121951219,65.2439024390244 13.211382113821138,65.85365853658537 13.160569105691057,66.15853658536585 13.160569105691057,66.41260162601625 13.109756097560975,66.66666666666667 13.109756097560975,66.869918699187 13.058943089430894,67.1239837398374 13.058943089430894,67.27642276422765 13.058943089430894,67.3780487804878 13.008130081300813,67.42886178861788 13.008130081300813,67.47967479674797 13.008130081300813,67.53048780487805 13.008130081300813,67.53048780487805 13.008130081300813,67.53048780487805 13.008130081300813,67.53048780487805 12.957317073170731,67.47967479674797 12.90650406504065,67.3780487804878" fill="none" stroke="black" stroke-width="0.6"></polyline><polyline points="12.90650406504065,67.3780487804878 12.855691056910569,67.22560975609755 12.804878048780488,66.97154471544715 12.754065040650406,66.76829268292683 12.754065040650406,66.61585365853658 12.703252032520325,66.15853658536585 12.652439024390244,65.54878048780488 12.601626016260163,64.83739837398373 12.601626016260163,63.922764227642276 12.652439024390244,62.90650406504065 12.754065040650406,61.9410569105691 12.90650406504065,61.1280487804878 13.008130081300813,60.46747967479675 13.058943089430894,60.11178861788618 13.109756097560975,59.90853658536585 13.160569105691057,59.65447154471545 13.262195121951219,59.2479674796748 13.363821138211382,58.892276422764226 13.363821138211382,58.790650406504064 13.414634146341463,58.58739837398374 13.465447154471544,58.536585365853654 13.465447154471544,58.485772357723576 13.567073170731707,58.43495934959349 13.617886178861788,58.38414634146341 13.617886178861788,58.38414634146341 13.66869918699187,58.38414634146341 13.71951219512195,58.38414634146341 13.871951219512194,58.38414634146341 14.07520325203252,58.485772357723576 14.278455284552845,58.63821138211382 14.430894308943088,58.739837398373986 14.583333333333332,58.892276422764226 14.83739837398374,59.146341463414636 14.989837398373984,59.298780487804876 15.091463414634147,59.40040650406504 15.294715447154472,59.70528455284553 15.396341463414634,59.80691056910569 15.497967479674797,59.959349593495936 15.59959349593496,60.0609756097561 15.65040650406504,60.16260162601626 15.701219512195122,60.264227642276424 15.701219512195122,60.3150406504065 15.752032520325203,60.51829268292683 15.752032520325203,60.56910569105691 15.701219512195122,60.56910569105691 15.65040650406504,60.61991869918699 15.59959349593496,60.670731707317074 15.548780487804878,60.72154471544715 15.447154471544716,60.77235772357724 15.24390243902439,60.92479674796748 14.939024390243903,61.1280487804878" fill="none" stroke="black" stroke-width="0.6"></polyline><polyline points="14.939024390243903,61.1280487804878 14.634146341463413,61.38211382113821 14.278455284552845,61.58536585365854 13.973577235772357,61.73780487804878 13.71951219512195,61.890243902439025 13.617886178861788,61.890243902439025 13.617886178861788,61.890243902439025 13.567073170731707,61.890243902439025 13.567073170731707,61.890243902439025 13.567073170731707,61.83943089430894 13.617886178861788,61.78861788617886" fill="none" stroke="black" stroke-width="0.6"></polyline><polyline points="32.36788617886179,59.70528455284553 32.36788617886179,59.70528455284553 32.36788617886179,59.70528455284553 32.36788617886179,59.70528455284553 32.36788617886179,59.70528455284553 32.36788617886179,59.70528455284553 32.36788617886179,59.70528455284553 32.36788617886179,59.70528455284553 32.36788617886179,59.70528455284553 32.36788617886179,59.70528455284553 32.36788617886179,59.70528455284553 32.36788617886179,59.70528455284553 32.36788617886179,59.70528455284553 32.36788617886179,59.70528455284553 32.36788617886179,59.70528455284553 32.36788617886179,59.70528455284553 32.36788617886179,59.70528455284553 32.36788617886179,59.65447154471545 32.36788617886179,59.603658536585364 32.36788617886179,59.5020325203252 32.36788617886179,59.40040650406504 32.3170731707317,59.197154471544714 32.21544715447154,58.99390243902439 32.11382113821138,58.739837398373986 31.961382113821138,58.536585365853654 31.808943089430894,58.38414634146341 31.60569105691057,58.28252032520325 31.453252032520325,58.231707317073166 31.30081300813008,58.18089430894309 31.148373983739837,58.18089430894309 30.995934959349594,58.18089430894309 30.84349593495935,58.231707317073166 30.741869918699187,58.28252032520325 30.640243902439025,58.33333333333333 30.589430894308943,58.38414634146341 30.589430894308943,58.43495934959349 30.538617886178862,58.485772357723576 30.48780487804878,58.63821138211382 30.4369918699187,58.84146341463415 30.38617886178862,59.146341463414636 30.335365853658537,59.5020325203252 30.335365853658537,59.959349593495936 30.335365853658537,60.46747967479675 30.335365853658537,60.97560975609756 30.4369918699187,61.38211382113821 30.538617886178862,61.636178861788615 30.640243902439025,61.78861788617886 30.79268292682927,61.83943089430894 30.945121951219512,61.890243902439025 31.097560975609756,61.890243902439025 31.25,61.78861788617886" fill="none" stroke="black" stroke-width="0.6"></polyline><polyline points="31.25,61.78861788617886 31.453252032520325,61.6869918699187 31.65650406504065,61.53455284552845 31.859756097560975,61.28048780487805 31.961382113821138,61.17886178861789 32.0630081300813,61.02642276422764 32.21544715447154,60.77235772357724 32.36788617886179,60.51829268292683 32.46951219512195,60.264227642276424 32.52032520325203,60.0609756097561 32.52032520325203,59.90853658536585 32.52032520325203,59.75609756097561 32.46951219512195,59.65447154471545 32.418699186991866,59.552845528455286 32.36788617886179,59.451219512195124 32.36788617886179,59.40040650406504 32.3170731707317,59.40040650406504 32.3170731707317,59.40040650406504 32.3170731707317,59.40040650406504 32.3170731707317,59.40040650406504 32.3170731707317,59.40040650406504 32.3170731707317,59.40040650406504 32.3170731707317,59.40040650406504 32.3170731707317,59.40040650406504 32.3170731707317,59.40040650406504 32.3170731707317,59.40040650406504 32.3170731707317,59.40040650406504 32.3170731707317,59.451219512195124 32.3170731707317,59.5020325203252 32.3170731707317,59.552845528455286 32.3170731707317,59.65447154471545 32.3170731707317,59.80691056910569 32.36788617886179,60.0609756097561 32.36788617886179,60.416666666666664 32.36788617886179,60.92479674796748 32.36788617886179,61.58536585365854 32.36788617886179,62.24593495934959 32.36788617886179,62.90650406504065 32.3170731707317,63.61788617886179 32.266260162601625,64.22764227642276 32.21544715447154,64.88821138211382 32.16463414634146,65.54878048780488 32.16463414634146,66.10772357723577 32.11382113821138,66.71747967479675 32.0630081300813,67.22560975609755 32.0630081300813,67.6321138211382 32.0630081300813,67.98780487804878 32.012195121951216,68.29268292682927 32.012195121951216,68.54674796747967 32.012195121951216,68.75 32.012195121951216,68.90243902439025" fill="none" stroke="black" stroke-width="0.6"></polyline><polyline points="32.012195121951216,68.90243902439025 32.012195121951216,68.90243902439025 32.012195121951216,68.90243902439025 32.012195121951216,68.90243902439025 32.012195121951216,68.90243902439025 32.012195121951216,68.90243902439025 32.012195121951216,68.85162601626016 32.012195121951216,68.80081300813008 32.012195121951216,68.80081300813008 32.012195121951216,68.69918699186992 32.012195121951216,68.64837398373983 32.0630081300813,68.59756097560975 32.11382113821138,68.4959349593496 32.266260162601625,68.29268292682927 32.36788617886179,68.14024390243902 32.52032520325203,68.03861788617886 32.672764227642276,67.88617886178862 33.02845528455285,67.47967479674797 33.38414634146341,67.1239837398374 33.739837398373986,66.76829268292683 34.146341463414636,66.36178861788618 34.40040650406504,66.0569105691057 34.603658536585364,65.85365853658537 34.65447154471545,65.7520325203252 34.70528455284553,65.7520325203252 34.70528455284553,65.7520325203252 34.70528455284553,65.7520325203252 34.65447154471545,65.7520325203252 34.65447154471545,65.7520325203252 34.65447154471545,65.7520325203252" fill="none" stroke="black" stroke-width="0.6"></polyline><polyline points="47.764227642276424,60.010162601626014 47.764227642276424,59.959349593495936 47.71341463414634,59.90853658536585 47.66260162601626,59.80691056910569 47.61178861788618,59.70528455284553 47.5609756097561,59.603658536585364 47.5609756097561,59.552845528455286 47.5609756097561,59.451219512195124 47.5609756097561,59.40040650406504 47.5609756097561,59.40040650406504 47.5609756097561,59.40040650406504 47.5609756097561,59.40040650406504 47.61178861788618,59.451219512195124 47.71341463414634,59.603658536585364 47.86585365853659,59.857723577235774 48.01829268292683,60.264227642276424 48.170731707317074,60.670731707317074 48.27235772357724,61.17886178861789 48.3739837398374,61.73780487804878 48.42479674796748,62.34756097560975 48.42479674796748,62.855691056910565 48.42479674796748,63.21138211382114 48.323170731707314,63.36382113821138 48.22154471544715,63.46544715447154 48.170731707317074,63.46544715447154 48.06910569105691,63.36382113821138 47.96747967479675,63.21138211382114 47.86585365853659,62.95731707317073 47.71341463414634,62.60162601626016 47.66260162601626,62.14430894308943 47.61178861788618,61.58536585365854 47.61178861788618,60.97560975609756 47.86585365853659,60.264227642276424 48.22154471544715,59.603658536585364 48.729674796747965,59.09552845528455 49.28861788617886,58.739837398373986 49.74593495934959,58.536585365853654 50.203252032520325,58.43495934959349 50.40650406504065,58.38414634146341 50.55894308943089,58.33333333333333 50.8130081300813,58.28252032520325 51.0670731707317,58.231707317073166 51.32113821138211,58.18089430894309 51.47357723577235,58.18089430894309 51.6260162601626,58.18089430894309 51.77845528455284,58.231707317073166 51.880081300813,58.28252032520325 51.93089430894309,58.33333333333333" fill="none" stroke="black" stroke-width="0.6"></polyline><polyline points="67.32723577235772,59.197154471544714 67.32723577235772,59.197154471544714 67.32723577235772,59.197154471544714 67.32723577235772,59.197154471544714 67.32723577235772,59.197154471544714 67.32723577235772,59.197154471544714 67.32723577235772,59.197154471544714 67.32723577235772,59.197154471544714 67.32723577235772,59.197154471544714 67.32723577235772,59.197154471544714 67.27642276422765,59.197154471544714 67.27642276422765,59.197154471544714 67.27642276422765,59.197154471544714 67.27642276422765,59.197154471544714 67.27642276422765,59.197154471544714 67.22560975609755,59.146341463414636 67.1239837398374,59.04471544715447 67.02235772357723,58.94308943089431 66.8191056910569,58.790650406504064 66.51422764227642,58.58739837398374 66.15853658536585,58.43495934959349 65.80284552845528,58.38414634146341 65.44715447154472,58.33333333333333 65.14227642276423,58.33333333333333 64.83739837398373,58.43495934959349 64.58333333333333,58.58739837398374 64.43089430894308,58.739837398373986 64.32926829268293,58.94308943089431 64.27845528455285,59.09552845528455 64.27845528455285,59.2479674796748 64.32926829268293,59.40040650406504 64.43089430894308,59.65447154471545 64.6341463414634,59.857723577235774 64.88821138211382,60.11178861788618 65.14227642276423,60.36585365853659 65.44715447154472,60.51829268292683 65.7520325203252,60.670731707317074 66.15853658536585,60.77235772357724 66.51422764227642,60.8739837398374 66.869918699187,60.97560975609756 67.17479674796748,61.077235772357724 67.3780487804878,61.17886178861789 67.53048780487805,61.33130081300813 67.58130081300813,61.53455284552845 67.58130081300813,61.6869918699187 67.58130081300813,61.890243902439025 67.47967479674797,62.042682926829265 67.3780487804878,62.19512195121951 67.22560975609755,62.34756097560975 67.02235772357723,62.449186991869915 66.8191056910569,62.55081300813008" fill="none" stroke="black" stroke-width="0.6"></polyline><polyline points="66.8191056910569,62.55081300813008 66.51422764227642,62.60162601626016 66.15853658536585,62.65243902439024 65.80284552845528,62.703252032520325 65.39634146341463,62.703252032520325 65.04065040650406,62.60162601626016 64.6849593495935,62.5 64.380081300813,62.296747967479675 64.22764227642276,62.14430894308943 64.1260162601626,61.99186991869919 64.1260162601626,61.9410569105691 64.1260162601626,61.9410569105691 64.17682926829268,61.9410569105691 64.380081300813,61.99186991869919" fill="none" stroke="black" stroke-width="0.6"></polyline><polyline points="81.85975609756098,55.08130081300813 81.8089430894309,54.979674796747965 81.7581300813008,54.8780487804878 81.70731707317073,54.77642276422764 81.65650406504065,54.72560975609756 81.60569105691057,54.6239837398374 81.60569105691057,54.52235772357724 81.55487804878048,54.420731707317074 81.5040650406504,54.36991869918699 81.5040650406504,54.31910569105691 81.5040650406504,54.31910569105691 81.5040650406504,54.31910569105691 81.5040650406504,54.31910569105691 81.5040650406504,54.31910569105691 81.5040650406504,54.31910569105691 81.5040650406504,54.31910569105691 81.5040650406504,54.36991869918699 81.5040650406504,54.36991869918699 81.5040650406504,54.420731707317074 81.55487804878048,54.420731707317074 81.55487804878048,54.52235772357724 81.55487804878048,54.6239837398374 81.60569105691057,54.77642276422764 81.60569105691057,54.979674796747965 81.65650406504065,55.233739837398375 81.65650406504065,55.58943089430894 81.65650406504065,56.09756097560975 81.65650406504065,56.75813008130081 81.70731707317073,57.52032520325203 81.70731707317073,58.33333333333333 81.7581300813008,59.04471544715447 81.8089430894309,59.70528455284553 81.91056910569105,60.3150406504065 82.01219512195122,60.77235772357724 82.11382113821138,61.229674796747965 82.11382113821138,61.58536585365854 82.16463414634146,61.78861788617886 82.16463414634146,61.9410569105691 82.16463414634146,62.042682926829265 82.16463414634146,62.042682926829265 82.16463414634146,62.042682926829265 82.16463414634146,62.042682926829265 82.16463414634146,62.042682926829265 82.16463414634146,62.042682926829265 82.16463414634146,62.042682926829265 82.16463414634146,62.042682926829265 82.16463414634146,62.042682926829265 82.16463414634146,62.042682926829265 82.16463414634146,62.042682926829265 82.16463414634146,62.042682926829265 82.16463414634146,62.042682926829265" fill="none" stroke="black" stroke-width="0.6"></polyline><polyline points="82.16463414634146,62.042682926829265 82.16463414634146,62.042682926829265 82.16463414634146,62.042682926829265 82.16463414634146,62.042682926829265" fill="none" stroke="black" stroke-width="0.6"></polyline><polyline points="79.77642276422765,57.57113821138211 79.77642276422765,57.57113821138211 79.72560975609755,57.52032520325203 79.67479674796748,57.46951219512195 79.67479674796748,57.46951219512195 79.67479674796748,57.46951219512195 79.6239837398374,57.418699186991866 79.6239837398374,57.418699186991866 79.6239837398374,57.418699186991866 79.6239837398374,57.418699186991866 79.6239837398374,57.418699186991866 79.6239837398374,57.418699186991866 79.6239837398374,57.418699186991866 79.6239837398374,57.418699186991866 79.67479674796748,57.418699186991866 79.92886178861788,57.46951219512195 80.08130081300813,57.46951219512195 80.23373983739837,57.52032520325203 80.6910569105691,57.57113821138211 81.19918699186992,57.62195121951219 81.55487804878048,57.62195121951219 81.91056910569105,57.62195121951219 82.52032520325203,57.62195121951219 82.8760162601626,57.62195121951219 83.18089430894308,57.62195121951219 83.73983739837398,57.52032520325203 84.09552845528455,57.418699186991866 84.29878048780488,57.36788617886179 84.45121951219512,57.3170731707317 84.5020325203252,57.3170731707317 84.5020325203252,57.266260162601625 84.60365853658537,57.266260162601625 84.65447154471545,57.21544715447154 84.8069105691057,57.16463414634146 84.90853658536585,57.11382113821138" fill="none" stroke="black" stroke-width="0.6"></polyline><polyline points="14.430894308943088,76.77845528455285 14.430894308943088,76.77845528455285 14.430894308943088,76.72764227642276 14.430894308943088,76.6260162601626 14.380081300813007,76.57520325203252 14.380081300813007,76.52439024390243 14.380081300813007,76.47357723577235 14.380081300813007,76.42276422764228 14.329268292682926,76.42276422764228 14.329268292682926,76.42276422764228 14.329268292682926,76.3719512195122 14.329268292682926,76.3719512195122 14.329268292682926,76.3719512195122 14.329268292682926,76.3719512195122 14.329268292682926,76.3719512195122 14.329268292682926,76.3719512195122 14.329268292682926,76.3719512195122 14.329268292682926,76.3719512195122 14.329268292682926,76.3719512195122 14.329268292682926,76.3719512195122 14.329268292682926,76.3719512195122 14.329268292682926,76.42276422764228 14.329268292682926,76.42276422764228 14.329268292682926,76.42276422764228 14.329268292682926,76.42276422764228 14.329268292682926,76.42276422764228 14.329268292682926,76.47357723577235 14.329268292682926,76.52439024390243 14.329268292682926,76.6260162601626 14.278455284552845,76.72764227642276 14.278455284552845,76.880081300813 14.278455284552845,77.1341463414634 14.278455284552845,77.38821138211382 14.278455284552845,77.74390243902438 14.329268292682926,78.15040650406505 14.430894308943088,78.60772357723577 14.53252032520325,79.0650406504065 14.634146341463413,79.42073170731707 14.786585365853659,79.77642276422765 14.888211382113822,80.03048780487805 14.989837398373984,80.1321138211382 15.040650406504065,80.23373983739837 15.091463414634147,80.33536585365853 15.19308943089431,80.38617886178862 15.24390243902439,80.4369918699187 15.345528455284553,80.48780487804878 15.447154471544716,80.48780487804878 15.65040650406504,80.48780487804878 15.752032520325203,80.48780487804878 15.904471544715447,80.38617886178862 16.10772357723577,80.1829268292683" fill="none" stroke="black" stroke-width="0.6"></polyline><polyline points="16.10772357723577,80.1829268292683 16.209349593495933,80.08130081300813 16.3109756097561,79.92886178861788 16.514227642276424,79.6239837398374 16.666666666666668,79.42073170731707 16.76829268292683,79.26829268292683 16.920731707317074,78.96341463414635 16.971544715447155,78.8109756097561 17.022357723577237,78.65853658536585 17.1239837398374,78.40447154471545 17.17479674796748,78.15040650406505 17.17479674796748,77.9471544715447 17.1239837398374,77.74390243902438 17.022357723577237,77.54065040650406 16.971544715447155,77.38821138211382 16.920731707317074,77.28658536585365 16.869918699186993,77.1849593495935 16.81910569105691,77.1341463414634 16.81910569105691,77.1341463414634 16.81910569105691,77.1341463414634 16.81910569105691,77.1341463414634 16.81910569105691,77.1341463414634 16.81910569105691,77.1341463414634 16.81910569105691,77.1341463414634 16.81910569105691,77.1341463414634 16.81910569105691,77.1849593495935 16.81910569105691,77.1849593495935 16.81910569105691,77.1849593495935 16.81910569105691,77.1849593495935 16.869918699186993,77.23577235772358 16.869918699186993,77.28658536585365 16.920731707317074,77.33739837398373" fill="none" stroke="black" stroke-width="0.6"></polyline><polyline points="30.89430894308943,77.03252032520325 30.89430894308943,77.03252032520325 30.89430894308943,76.98170731707317 30.89430894308943,76.98170731707317 30.89430894308943,76.98170731707317 30.89430894308943,76.98170731707317 30.89430894308943,76.98170731707317 30.89430894308943,76.93089430894308 30.89430894308943,76.93089430894308 30.89430894308943,76.93089430894308 30.89430894308943,76.93089430894308 30.89430894308943,76.880081300813 30.89430894308943,76.880081300813 30.89430894308943,76.880081300813 30.89430894308943,76.880081300813 30.89430894308943,76.880081300813 30.89430894308943,76.880081300813 30.89430894308943,76.880081300813 30.89430894308943,76.880081300813 30.89430894308943,76.880081300813 30.89430894308943,76.880081300813 30.89430894308943,76.880081300813 30.89430894308943,76.880081300813 30.89430894308943,76.880081300813 30.89430894308943,76.880081300813 30.89430894308943,76.880081300813 30.89430894308943,76.880081300813 30.89430894308943,76.880081300813 30.89430894308943,76.880081300813 30.89430894308943,76.880081300813 30.89430894308943,76.98170731707317 30.89430894308943,77.03252032520325 30.945121951219512,77.1341463414634 30.995934959349594,77.38821138211382 31.148373983739837,77.79471544715447 31.19918699186992,78.04878048780488 31.30081300813008,78.30284552845528 31.453252032520325,78.86178861788618 31.60569105691057,79.3191056910569 31.758130081300813,79.6239837398374 31.910569105691057,79.8780487804878 32.012195121951216,80.03048780487805 32.012195121951216,80.08130081300813 32.0630081300813,80.08130081300813 32.11382113821138,80.1321138211382 32.16463414634146,80.1321138211382 32.16463414634146,80.1321138211382 32.21544715447154,80.1321138211382 32.21544715447154,80.1321138211382 32.21544715447154,80.1321138211382 32.21544715447154,80.1321138211382" fill="none" stroke="black" stroke-width="0.6"></polyline><polyline points="32.21544715447154,80.1321138211382 32.21544715447154,80.1321138211382 32.266260162601625,80.1321138211382 32.266260162601625,80.1321138211382 32.266260162601625,80.08130081300813 32.266260162601625,80.08130081300813 32.3170731707317,80.03048780487805 32.36788617886179,79.97967479674797 32.36788617886179,79.82723577235772 32.46951219512195,79.67479674796748 32.52032520325203,79.52235772357723 32.77439024390244,79.01422764227642 33.02845528455285,78.40447154471545 33.18089430894309,78.09959349593495 33.28252032520325,77.79471544715447 33.38414634146341,77.54065040650406 33.485772357723576,77.28658536585365 33.58739837398374,77.03252032520325 33.6890243902439,76.72764227642276 33.6890243902439,76.67682926829268 33.739837398373986,76.6260162601626 33.739837398373986,76.57520325203252 33.739837398373986,76.57520325203252 33.739837398373986,76.57520325203252 33.739837398373986,76.6260162601626 33.739837398373986,76.6260162601626 33.739837398373986,76.67682926829268 33.739837398373986,76.67682926829268 33.739837398373986,76.67682926829268 33.739837398373986,76.67682926829268 33.739837398373986,76.67682926829268 33.739837398373986,76.67682926829268 33.739837398373986,76.72764227642276" fill="none" stroke="black" stroke-width="0.6"></polyline><polyline points="47.71341463414634,77.08333333333333 47.66260162601626,76.98170731707317 47.61178861788618,76.93089430894308 47.61178861788618,76.82926829268293 47.61178861788618,76.72764227642276 47.61178861788618,76.67682926829268 47.61178861788618,76.6260162601626 47.61178861788618,76.6260162601626 47.61178861788618,76.6260162601626 47.61178861788618,76.6260162601626 47.61178861788618,76.6260162601626 47.61178861788618,76.6260162601626 47.61178861788618,76.6260162601626 47.61178861788618,76.6260162601626 47.61178861788618,76.67682926829268 47.61178861788618,76.67682926829268 47.61178861788618,76.72764227642276 47.61178861788618,76.93089430894308 47.66260162601626,77.23577235772358 47.71341463414634,77.74390243902438 47.71341463414634,77.9979674796748 47.764227642276424,78.35365853658537 47.8150406504065,79.11585365853658 47.916666666666664,79.92886178861788 48.01829268292683,80.58943089430895 48.11991869918699,80.9959349593496 48.170731707317074,81.19918699186992 48.22154471544715,81.25 48.27235772357724,81.30081300813008 48.27235772357724,81.30081300813008 48.27235772357724,81.30081300813008 48.27235772357724,81.25 48.27235772357724,81.19918699186992 48.27235772357724,81.09756097560975 48.323170731707314,80.9451219512195 48.3739837398374,80.64024390243902 48.42479674796748,80.38617886178862 48.47560975609756,80.1829268292683 48.6280487804878,79.57317073170732 48.78048780487805,79.01422764227642 48.93292682926829,78.40447154471545 49.136178861788615,77.84552845528455 49.28861788617886,77.48983739837398 49.390243902439025,77.23577235772358 49.4410569105691,77.1341463414634 49.4410569105691,77.08333333333333 49.4410569105691,77.1341463414634 49.4410569105691,77.1341463414634 49.4410569105691,77.1849593495935 49.4410569105691,77.1849593495935 49.4410569105691,77.1849593495935" fill="none" stroke="black" stroke-width="0.6"></polyline><polyline points="49.4410569105691,77.1849593495935 49.4410569105691,77.1849593495935 49.4410569105691,77.23577235772358 49.4410569105691,77.28658536585365 49.542682926829265,77.54065040650406 49.69512195121951,77.89634146341463 49.84756097560975,78.30284552845528 50.05081300813008,78.8109756097561 50.2540650406504,79.3191056910569 50.45731707317073,79.82723577235772 50.609756097560975,80.23373983739837 50.762195121951216,80.53861788617886 50.91463414634146,80.6910569105691 51.016260162601625,80.74186991869918 51.0670731707317,80.79268292682927 51.11788617886179,80.74186991869918 51.11788617886179,80.6910569105691 51.168699186991866,80.58943089430895 51.21951219512195,80.48780487804878 51.32113821138211,80.28455284552845 51.422764227642276,79.97967479674797 51.47357723577235,79.82723577235772 51.52439024390244,79.47154471544715 51.575203252032516,79.01422764227642 51.6260162601626,78.5569105691057 51.6260162601626,78.04878048780488 51.67682926829268,77.84552845528455 51.67682926829268,77.33739837398373 51.67682926829268,77.03252032520325 51.72764227642276,76.880081300813 51.72764227642276,76.82926829268293 51.72764227642276,76.82926829268293 51.72764227642276,76.82926829268293 51.72764227642276,76.82926829268293 51.72764227642276,76.880081300813 51.72764227642276,76.880081300813 51.72764227642276,76.880081300813 51.72764227642276,76.93089430894308 51.72764227642276,76.93089430894308 51.72764227642276,76.93089430894308" fill="none" stroke="black" stroke-width="0.6"></polyline><polyline points="64.98983739837398,77.1849593495935 64.98983739837398,77.1341463414634 64.98983739837398,77.08333333333333 64.98983739837398,77.03252032520325 64.98983739837398,76.98170731707317 64.98983739837398,76.880081300813 64.98983739837398,76.77845528455285 64.98983739837398,76.67682926829268 64.9390243902439,76.57520325203252 64.9390243902439,76.47357723577235 64.9390243902439,76.47357723577235 64.88821138211382,76.42276422764228 64.88821138211382,76.3719512195122 64.88821138211382,76.3211382113821 64.88821138211382,76.3211382113821 64.88821138211382,76.3211382113821 64.83739837398373,76.3211382113821 64.83739837398373,76.3211382113821 64.83739837398373,76.3211382113821 64.83739837398373,76.3211382113821 64.83739837398373,76.3719512195122 64.83739837398373,76.3719512195122 64.83739837398373,76.47357723577235 64.88821138211382,76.6260162601626 64.9390243902439,76.77845528455285 65.09146341463415,77.1341463414634 65.34552845528455,77.64227642276423 65.65040650406505,78.2520325203252 66.0569105691057,78.91260162601625 66.41260162601625,79.47154471544715 66.76829268292683,79.92886178861788 67.02235772357723,80.28455284552845 67.07317073170732,80.38617886178862 67.17479674796748,80.4369918699187 67.27642276422765,80.48780487804878 67.3780487804878,80.58943089430895 67.42886178861788,80.58943089430895 67.47967479674797,80.58943089430895 67.53048780487805,80.58943089430895 67.53048780487805,80.58943089430895 67.53048780487805,80.58943089430895 67.53048780487805,80.58943089430895 67.53048780487805,80.58943089430895 67.53048780487805,80.58943089430895 67.53048780487805,80.58943089430895 67.53048780487805,80.58943089430895 67.53048780487805,80.58943089430895 67.53048780487805,80.53861788617886 67.53048780487805,80.53861788617886 67.53048780487805,80.48780487804878" fill="none" stroke="black" stroke-width="0.6"></polyline><polyline points="68.03861788617886,76.880081300813 68.03861788617886,76.880081300813 68.03861788617886,76.82926829268293 68.03861788617886,76.72764227642276 67.98780487804878,76.67682926829268 67.98780487804878,76.6260162601626 67.98780487804878,76.6260162601626 67.98780487804878,76.57520325203252 67.98780487804878,76.57520325203252 67.9369918699187,76.57520325203252 67.9369918699187,76.57520325203252 67.88617886178862,76.57520325203252 67.83536585365853,76.57520325203252 67.6321138211382,76.72764227642276 67.3780487804878,76.93089430894308 66.97154471544715,77.33739837398373 66.46341463414635,77.84552845528455 65.90447154471545,78.45528455284553 65.65040650406505,78.8109756097561 65.39634146341463,79.11585365853658 64.88821138211382,79.77642276422765 64.32926829268293,80.4369918699187 64.17682926829268,80.58943089430895 63.97357723577235,80.79268292682927 63.77032520325203,80.9959349593496 63.668699186991866,81.09756097560975 63.61788617886179,81.14837398373983 63.516260162601625,81.25 63.46544715447154,81.25 63.46544715447154,81.30081300813008 63.46544715447154,81.30081300813008 63.46544715447154,81.30081300813008 63.46544715447154,81.30081300813008 63.46544715447154,81.30081300813008 63.46544715447154,81.25 63.5670731707317,81.14837398373983" fill="none" stroke="black" stroke-width="0.6"></polyline><polyline points="82.0630081300813,77.08333333333333 82.01219512195122,77.08333333333333 81.91056910569105,76.93089430894308 81.85975609756098,76.880081300813 81.8089430894309,76.82926829268293 81.7581300813008,76.77845528455285 81.7581300813008,76.72764227642276 81.70731707317073,76.6260162601626 81.70731707317073,76.6260162601626 81.70731707317073,76.57520325203252 81.70731707317073,76.57520325203252 81.70731707317073,76.57520325203252 81.70731707317073,76.57520325203252 81.70731707317073,76.57520325203252 81.7581300813008,76.57520325203252 81.7581300813008,76.57520325203252 81.7581300813008,76.57520325203252 81.7581300813008,76.57520325203252 81.7581300813008,76.6260162601626 81.7581300813008,76.6260162601626 81.7581300813008,76.6260162601626 81.7581300813008,76.67682926829268 81.7581300813008,76.77845528455285 81.7581300813008,76.82926829268293 81.8089430894309,77.1341463414634 81.85975609756098,77.33739837398373 81.85975609756098,77.54065040650406 82.01219512195122,77.9979674796748 82.11382113821138,78.20121951219512 82.21544715447155,78.45528455284553 82.41869918699187,78.96341463414635 82.52032520325203,79.16666666666667 82.67276422764228,79.369918699187 82.8760162601626,79.67479674796748 82.97764227642276,79.77642276422765 83.02845528455285,79.8780487804878 83.07926829268293,79.92886178861788 83.130081300813,79.97967479674797 83.18089430894308,79.97967479674797 83.18089430894308,79.97967479674797 83.23170731707317,79.97967479674797 83.23170731707317,79.97967479674797 83.23170731707317,79.97967479674797 83.23170731707317,79.97967479674797 83.23170731707317,79.97967479674797 83.23170731707317,79.92886178861788 83.23170731707317,79.92886178861788 83.23170731707317,79.92886178861788 83.23170731707317,79.8780487804878 83.23170731707317,79.77642276422765 83.33333333333333,79.6239837398374" fill="none" stroke="black" stroke-width="0.6"></polyline><polyline points="83.33333333333333,79.6239837398374 83.3841463414634,79.47154471544715 83.4349593495935,79.369918699187" fill="none" stroke="black" stroke-width="0.6"></polyline><polyline points="84.65447154471545,76.98170731707317 84.65447154471545,76.98170731707317 84.65447154471545,76.98170731707317 84.65447154471545,76.98170731707317 84.65447154471545,76.98170731707317 84.60365853658537,76.93089430894308 84.60365853658537,76.93089430894308 84.60365853658537,76.93089430894308 84.60365853658537,76.93089430894308 84.60365853658537,76.93089430894308 84.60365853658537,76.93089430894308 84.60365853658537,76.93089430894308 84.60365853658537,76.93089430894308 84.55284552845528,76.93089430894308 84.55284552845528,76.93089430894308 84.5020325203252,77.1341463414634 84.1971544715447,77.84552845528455 84.04471544715447,78.2520325203252 83.84146341463415,78.70934959349593 83.3841463414634,79.77642276422765 83.130081300813,80.38617886178862 82.8760162601626,80.89430894308943 82.46951219512195,81.8089430894309 82.0630081300813,82.6219512195122 81.7581300813008,83.23170731707317 81.55487804878048,83.63821138211382 81.45325203252033,83.99390243902438 81.40243902439025,84.14634146341463 81.35162601626016,84.2479674796748 81.30081300813008,84.34959349593495 81.30081300813008,84.40040650406503 81.19918699186992,84.5020325203252 81.19918699186992,84.55284552845528 81.14837398373983,84.55284552845528 81.09756097560975,84.60365853658537 81.09756097560975,84.60365853658537 81.09756097560975,84.60365853658537 81.09756097560975,84.60365853658537 81.09756097560975,84.55284552845528" fill="none" stroke="black" stroke-width="0.6"></polyline><polyline points="13.71951219512195,91.92073170731707 13.71951219512195,91.92073170731707 13.66869918699187,91.97154471544715 13.66869918699187,91.97154471544715 13.617886178861788,91.97154471544715 13.567073170731707,91.97154471544715 13.567073170731707,91.97154471544715 13.567073170731707,91.97154471544715 13.567073170731707,91.97154471544715 13.567073170731707,91.97154471544715 13.567073170731707,91.97154471544715 13.567073170731707,91.97154471544715 13.567073170731707,91.97154471544715 13.567073170731707,91.97154471544715 13.567073170731707,91.97154471544715 13.567073170731707,91.97154471544715 13.567073170731707,91.97154471544715 13.567073170731707,91.97154471544715 13.617886178861788,92.02235772357723 13.66869918699187,92.02235772357723 13.821138211382113,92.07317073170732 14.07520325203252,92.1239837398374 14.430894308943088,92.22560975609755 14.888211382113822,92.32723577235772 15.447154471544716,92.42886178861788 15.955284552845528,92.53048780487805 16.36178861788618,92.58130081300813 16.71747967479675,92.6829268292683 16.971544715447155,92.78455284552845 17.1239837398374,92.83536585365853 17.225609756097562,92.88617886178862 17.276422764227643,92.9369918699187 17.276422764227643,92.9369918699187 17.276422764227643,92.9369918699187 17.276422764227643,92.9369918699187 17.276422764227643,92.9369918699187 17.276422764227643,92.9369918699187 17.225609756097562,92.9369918699187 17.225609756097562,92.9369918699187 17.225609756097562,92.9369918699187 17.225609756097562,92.9369918699187 17.225609756097562,92.9369918699187 17.225609756097562,92.9369918699187 17.225609756097562,92.9369918699187 17.17479674796748,92.9369918699187 17.1239837398374,92.98780487804878 17.022357723577237,93.14024390243902 16.76829268292683,93.34349593495935 16.41260162601626,93.69918699186992 16.006097560975608,94.15650406504065 15.447154471544716,94.71544715447155" fill="none" stroke="black" stroke-width="0.6"></polyline><polyline points="15.447154471544716,94.71544715447155 14.888211382113822,95.3760162601626 14.48170731707317,95.83333333333333 14.227642276422763,96.1890243902439 14.07520325203252,96.4430894308943 14.07520325203252,96.54471544715447 14.07520325203252,96.59552845528455 14.07520325203252,96.59552845528455 14.07520325203252,96.59552845528455 14.07520325203252,96.59552845528455 14.07520325203252,96.59552845528455 14.1260162601626,96.59552845528455 14.1260162601626,96.59552845528455 14.1260162601626,96.59552845528455 14.176829268292682,96.59552845528455 14.278455284552845,96.59552845528455 14.380081300813007,96.59552845528455 14.53252032520325,96.59552845528455 14.786585365853659,96.59552845528455 15.040650406504065,96.64634146341463 15.345528455284553,96.64634146341463 15.752032520325203,96.64634146341463 16.209349593495933,96.64634146341463 16.666666666666668,96.6971544715447 17.073170731707318,96.6971544715447 17.378048780487806,96.6971544715447 17.479674796747968,96.7479674796748 17.53048780487805,96.7479674796748 17.53048780487805,96.79878048780488 17.428861788617887,96.79878048780488 17.428861788617887,96.79878048780488 17.428861788617887,96.79878048780488 17.428861788617887,96.79878048780488 17.378048780487806,96.79878048780488 17.378048780487806,96.7479674796748" fill="none" stroke="black" stroke-width="0.6"></polyline></svg>