<svg height="100" width="100" preserveAspectRatio="xMidYMid meet"><polyline points="50,50.66056910569105 50,50.66056910569105 50,50.609756097560975 50.05081300813008,50.50813008130081 50.05081300813008,50.45731707317073 50.10162601626016,50.45731707317073 50.10162601626016,50.40650406504065 50.15243902439024,50.40650406504065 50.15243902439024,50.40650406504065 50.15243902439024,50.40650406504065 50.15243902439024,50.40650406504065 50.15243902439024,50.40650406504065 50.15243902439024,50.40650406504065 50.15243902439024,50.355691056910565 50.15243902439024,50.355691056910565 50.15243902439024,50.30487804878049 50.15243902439024,50.2540650406504 50.15243902439024,50.2540650406504 50.15243902439024,50.203252032520325 50.15243902439024,50.10162601626016 50.15243902439024,50.05081300813008 50.15243902439024,50 50.15243902439024,49.89837398373984 50.203252032520325,49.84756097560975 50.203252032520325,49.74593495934959 50.203252032520325,49.69512195121951 50.203252032520325,49.59349593495935 50.203252032520325,49.49186991869919 50.15243902439024,49.390243902439025 50.10162601626016,49.28861788617886 50.05081300813008,49.1869918699187 50,49.136178861788615 49.89837398373984,49.03455284552845 49.796747967479675,48.93292682926829 49.64430894308943,48.83130081300813 49.542682926829265,48.78048780487805 49.390243902439025,48.67886178861789 49.23780487804878,48.577235772357724 49.08536585365854,48.47560975609756 48.88211382113821,48.42479674796748 48.729674796747965,48.323170731707314 48.52642276422764,48.27235772357724 48.323170731707314,48.22154471544715 48.11991869918699,48.22154471544715 47.86585365853659,48.22154471544715 47.61178861788618,48.22154471544715 47.357723577235774,48.22154471544715 47.103658536585364,48.27235772357724 46.84959349593496,48.323170731707314 46.59552845528455,48.42479674796748 46.34146341463415,48.52642276422764" fill="none" stroke="black" stroke-width="0.6"></polyline><polyline points="46.34146341463415,48.52642276422764 46.03658536585366,48.6280487804878 45.78252032520325,48.78048780487805 45.52845528455285,48.88211382113821 45.325203252032516,49.03455284552845 45.12195121951219,49.1869918699187 44.918699186991866,49.33943089430894 44.71544715447154,49.49186991869919 44.5630081300813,49.64430894308943 44.46138211382114,49.84756097560975 44.359756097560975,50.05081300813008 44.25813008130081,50.2540650406504 44.20731707317073,50.45731707317073 44.15650406504065,50.66056910569105 44.105691056910565,50.8130081300813 44.05487804878049,51.016260162601625 44.05487804878049,51.21951219512195 44.05487804878049,51.422764227642276 44.05487804878049,51.6260162601626 44.05487804878049,51.829268292682926 44.05487804878049,52.03252032520325 44.105691056910565,52.28658536585366 44.15650406504065,52.489837398373986 44.25813008130081,52.69308943089431 44.359756097560975,52.896341463414636 44.46138211382114,53.09959349593496 44.61382113821138,53.302845528455286 44.766260162601625,53.45528455284553 44.96951219512195,53.607723577235774 45.12195121951219,53.760162601626014 45.325203252032516,53.86178861788618 45.579268292682926,54.014227642276424 45.78252032520325,54.166666666666664 46.03658536585366,54.26829268292683 46.290650406504064,54.420731707317074 46.59552845528455,54.52235772357724 46.84959349593496,54.6239837398374 47.15447154471545,54.72560975609756 47.40853658536585,54.827235772357724 47.66260162601626,54.8780487804878 47.96747967479675,54.979674796747965 48.22154471544715,54.979674796747965 48.52642276422764,54.979674796747965 48.78048780487805,54.979674796747965 49.03455284552845,54.979674796747965 49.28861788617886,54.979674796747965 49.542682926829265,54.92886178861789 49.74593495934959,54.8780487804878 50,54.77642276422764 50.203252032520325,54.67479674796748 50.40650406504065,54.52235772357724" fill="none" stroke="black" stroke-width="0.6"></polyline><polyline points="50.40650406504065,54.52235772357724 50.66056910569105,54.36991869918699 50.86382113821138,54.166666666666664 51.0670731707317,53.96341463414634 51.27032520325203,53.760162601626014 51.422764227642276,53.50609756097561 51.575203252032516,53.302845528455286 51.77845528455284,53.048780487804876 51.93089430894309,52.84552845528455 52.03252032520325,52.59146341463415 52.1849593495935,52.28658536585366 52.33739837398374,52.083333333333336 52.4390243902439,51.829268292682926 52.540650406504064,51.575203252032516 52.642276422764226,51.37195121951219 52.69308943089431,51.168699186991866 52.79471544715447,50.91463414634146 52.84552845528455,50.71138211382114 52.84552845528455,50.50813008130081 52.896341463414636,50.2540650406504 52.896341463414636,50 52.896341463414636,49.74593495934959 52.896341463414636,49.49186991869919 52.79471544715447,49.28861788617886 52.74390243902439,49.08536585365854 52.642276422764226,48.83130081300813 52.540650406504064,48.6280487804878 52.489837398373986,48.42479674796748 52.33739837398374,48.170731707317074 52.235772357723576,47.96747967479675 52.13414634146341,47.764227642276424 51.981707317073166,47.5609756097561 51.880081300813,47.357723577235774 51.72764227642276,47.20528455284553 51.52439024390244,47.052845528455286 51.37195121951219,46.90040650406504 51.168699186991866,46.7479674796748 50.96544715447154,46.646341463414636 50.762195121951216,46.49390243902439 50.50813008130081,46.392276422764226 50.2540650406504,46.290650406504064 50,46.1890243902439 49.74593495934959,46.08739837398374 49.4410569105691,45.985772357723576 49.136178861788615,45.88414634146341 48.78048780487805,45.833333333333336 48.42479674796748,45.78252032520325 48.11991869918699,45.73170731707317 47.764227642276424,45.73170731707317 47.40853658536585,45.73170731707317 47.103658536585364,45.73170731707317" fill="none" stroke="black" stroke-width="0.6"></polyline><polyline points="47.103658536585364,45.73170731707317 46.7479674796748,45.73170731707317 46.34146341463415,45.78252032520325 45.985772357723576,45.833333333333336 45.63008130081301,45.88414634146341 45.22357723577235,45.9349593495935 44.8170731707317,46.03658536585366 44.41056910569105,46.13821138211382 44.0040650406504,46.239837398373986 43.64837398373984,46.34146341463415 43.24186991869919,46.49390243902439 42.886178861788615,46.646341463414636 42.58130081300813,46.84959349593496 42.22560975609756,47.0020325203252 41.97154471544715,47.20528455284553 41.71747967479675,47.40853658536585 41.46341463414634,47.66260162601626 41.209349593495936,47.86585365853659 41.00609756097561,48.11991869918699 40.802845528455286,48.3739837398374 40.59959349593496,48.6280487804878 40.447154471544714,48.83130081300813 40.29471544715447,49.136178861788615 40.142276422764226,49.33943089430894 40.040650406504064,49.59349593495935 39.9390243902439,49.84756097560975 39.88821138211382,50.15243902439024 39.83739837398374,50.45731707317073 39.78658536585366,50.762195121951216 39.735772357723576,51.016260162601625 39.735772357723576,51.32113821138211 39.735772357723576,51.6260162601626 39.735772357723576,51.93089430894309 39.735772357723576,52.235772357723576 39.735772357723576,52.59146341463415 39.78658536585366,52.896341463414636 39.83739837398374,53.201219512195124 39.88821138211382,53.50609756097561 39.9390243902439,53.8109756097561 40.040650406504064,54.11585365853659 40.09146341463415,54.47154471544715 40.142276422764226,54.77642276422764 40.24390243902439,55.08130081300813 40.34552845528455,55.4369918699187 40.447154471544714,55.6910569105691 40.548780487804876,55.94512195121951 40.7520325203252,56.199186991869915 40.90447154471545,56.453252032520325 41.107723577235774,56.605691056910565 41.3109756097561,56.80894308943089 41.5650406504065,57.012195121951216" fill="none" stroke="black" stroke-width="0.6"></polyline><polyline points="41.5650406504065,57.012195121951216 41.76829268292683,57.16463414634146 42.02235772357724,57.3170731707317 42.27642276422764,57.46951219512195 42.58130081300813,57.62195121951219 42.886178861788615,57.72357723577235 43.140243902439025,57.825203252032516 43.39430894308943,57.97764227642276 43.75,58.079268292682926 44.05487804878049,58.130081300813 44.41056910569105,58.231707317073166 44.8170731707317,58.28252032520325 45.172764227642276,58.28252032520325 45.579268292682926,58.28252032520325 45.985772357723576,58.28252032520325 46.392276422764226,58.28252032520325 46.7479674796748,58.28252032520325 47.15447154471545,58.231707317073166 47.510162601626014,58.18089430894309 47.8150406504065,58.130081300813 48.170731707317074,58.02845528455284 48.52642276422764,57.97764227642276 48.93292682926829,57.825203252032516 49.33943089430894,57.672764227642276 49.74593495934959,57.52032520325203 50.15243902439024,57.36788617886179 50.609756097560975,57.11382113821138 50.96544715447154,56.91056910569105 51.32113821138211,56.70731707317073 51.67682926829268,56.5040650406504 52.03252032520325,56.30081300813008 52.33739837398374,56.09756097560975 52.642276422764226,55.84349593495935 52.896341463414636,55.58943089430894 53.201219512195124,55.33536585365854 53.45528455284553,55.08130081300813 53.65853658536585,54.827235772357724 53.86178861788618,54.52235772357724 54.0650406504065,54.21747967479675 54.21747967479675,53.91260162601626 54.36991869918699,53.607723577235774 54.52235772357724,53.353658536585364 54.67479674796748,53.048780487804876 54.827235772357724,52.74390243902439 54.979674796747965,52.4390243902439 55.08130081300813,52.13414634146341 55.18292682926829,51.829268292682926 55.28455284552845,51.52439024390244 55.33536585365854,51.21951219512195 55.386178861788615,50.91463414634146 55.4369918699187,50.66056910569105" fill="none" stroke="black" stroke-width="0.6"></polyline><polyline points="55.4369918699187,50.66056910569105 55.4369918699187,50.40650406504065 55.4369918699187,50.05081300813008 55.4369918699187,49.74593495934959 55.4369918699187,49.4410569105691 55.4369918699187,49.136178861788615 55.33536585365854,48.83130081300813 55.28455284552845,48.52642276422764 55.18292682926829,48.22154471544715 55.08130081300813,47.916666666666664 54.979674796747965,47.61178861788618 54.8780487804878,47.30691056910569 54.77642276422764,47.052845528455286 54.6239837398374,46.84959349593496 54.47154471544715,46.59552845528455 54.26829268292683,46.392276422764226 54.014227642276424,46.1890243902439 53.760162601626014,45.9349593495935 53.55691056910569,45.78252032520325 53.2520325203252,45.52845528455285 52.9979674796748,45.325203252032516 52.69308943089431,45.12195121951219 52.38821138211382,44.918699186991866 52.083333333333336,44.71544715447154 51.77845528455284,44.5630081300813 51.422764227642276,44.41056910569105 51.11788617886179,44.30894308943089 50.762195121951216,44.15650406504065 50.40650406504065,44.105691056910565 50.05081300813008,44.0040650406504 49.69512195121951,43.953252032520325 49.28861788617886,43.90243902439024 48.88211382113821,43.90243902439024 48.52642276422764,43.85162601626016 48.11991869918699,43.85162601626016 47.71341463414634,43.85162601626016 47.30691056910569,43.90243902439024 46.951219512195124,43.953252032520325 46.54471544715447,44.0040650406504 46.13821138211382,44.105691056910565 45.73170731707317,44.20731707317073 45.325203252032516,44.30894308943089 44.96951219512195,44.41056910569105 44.5630081300813,44.512195121951216 44.15650406504065,44.61382113821138 43.75,44.766260162601625 43.34349593495935,44.918699186991866 42.886178861788615,45.07113821138211 42.479674796747965,45.22357723577235 42.073170731707314,45.3760162601626 41.666666666666664,45.579268292682926" fill="none" stroke="black" stroke-width="0.6"></polyline><polyline points="41.666666666666664,45.579268292682926 41.3109756097561,45.78252032520325 40.90447154471545,45.985772357723576 40.548780487804876,46.1890243902439 40.19308943089431,46.392276422764226 39.78658536585366,46.646341463414636 39.48170731707317,46.90040650406504 39.176829268292686,47.103658536585364 38.87195121951219,47.357723577235774 38.5670731707317,47.61178861788618 38.262195121951216,47.86585365853659 37.95731707317073,48.11991869918699 37.703252032520325,48.3739837398374 37.449186991869915,48.67886178861789 37.14430894308943,48.93292682926829 36.9410569105691,49.1869918699187 36.6869918699187,49.4410569105691 36.43292682926829,49.74593495934959 36.229674796747965,50.05081300813008 36.02642276422764,50.40650406504065 35.8739837398374,50.71138211382114 35.72154471544715,51.016260162601625 35.56910569105691,51.27032520325203 35.416666666666664,51.6260162601626 35.3150406504065,51.880081300813 35.264227642276424,52.1849593495935 35.21341463414634,52.489837398373986 35.16260162601626,52.74390243902439 35.16260162601626,53.048780487804876 35.16260162601626,53.40447154471545 35.16260162601626,53.65853658536585 35.21341463414634,54.014227642276424 35.264227642276424,54.36991869918699 35.36585365853659,54.72560975609756 35.416666666666664,55.08130081300813 35.46747967479675,55.48780487804878 35.56910569105691,55.792682926829265 35.670731707317074,56.14837398373984 35.77235772357724,56.5040650406504 35.92479674796748,56.859756097560975 36.077235772357724,57.16463414634146 36.229674796747965,57.46951219512195 36.43292682926829,57.77439024390244 36.636178861788615,58.02845528455284 36.890243902439025,58.33333333333333 37.14430894308943,58.58739837398374 37.39837398373984,58.84146341463415 37.703252032520325,59.146341463414636 38.05894308943089,59.40040650406504 38.36382113821138,59.65447154471545 38.71951219512195,59.857723577235774" fill="none" stroke="black" stroke-width="0.6"></polyline><polyline points="38.71951219512195,59.857723577235774 39.1260162601626,60.11178861788618 39.48170731707317,60.264227642276424 39.88821138211382,60.46747967479675 40.29471544715447,60.61991869918699 40.701219512195124,60.77235772357724 41.15853658536585,60.92479674796748 41.61585365853659,61.02642276422764 42.073170731707314,61.17886178861789 42.58130081300813,61.229674796747965 43.08943089430894,61.33130081300813 43.546747967479675,61.38211382113821 44.05487804878049,61.43292682926829 44.512195121951216,61.43292682926829 45.02032520325203,61.483739837398375 45.52845528455285,61.483739837398375 46.03658536585366,61.483739837398375 46.49390243902439,61.483739837398375 47.052845528455286,61.38211382113821 47.5609756097561,61.33130081300813 48.06910569105691,61.229674796747965 48.6280487804878,61.077235772357724 49.136178861788615,60.92479674796748 49.69512195121951,60.77235772357724 50.15243902439024,60.56910569105691 50.66056910569105,60.36585365853659 51.21951219512195,60.16260162601626 51.67682926829268,59.959349593495936 52.13414634146341,59.70528455284553 52.642276422764226,59.451219512195124 53.09959349593496,59.197154471544714 53.55691056910569,58.892276422764226 54.0650406504065,58.58739837398374 54.47154471544715,58.28252032520325 54.92886178861789,57.97764227642276 55.386178861788615,57.672764227642276 55.792682926829265,57.36788617886179 56.14837398373984,57.012195121951216 56.55487804878049,56.65650406504065 56.859756097560975,56.30081300813008 57.16463414634146,55.94512195121951 57.52032520325203,55.58943089430894 57.77439024390244,55.233739837398375 58.02845528455284,54.8780487804878 58.28252032520325,54.47154471544715 58.485772357723576,54.0650406504065 58.6890243902439,53.65853658536585 58.84146341463415,53.201219512195124 58.99390243902439,52.79471544715447 59.09552845528455,52.38821138211382 59.146341463414636,51.880081300813" fill="none" stroke="black" stroke-width="0.6"></polyline><polyline points="59.146341463414636,51.880081300813 59.197154471544714,51.47357723577235 59.2479674796748,51.016260162601625 59.2479674796748,50.55894308943089 59.2479674796748,50.15243902439024 59.2479674796748,49.74593495934959 59.146341463414636,49.28861788617886 59.09552845528455,48.88211382113821 58.99390243902439,48.52642276422764 58.84146341463415,48.11991869918699 58.6890243902439,47.71341463414634 58.485772357723576,47.357723577235774 58.28252032520325,46.951219512195124 58.079268292682926,46.59552845528455 57.8760162601626,46.239837398373986 57.62195121951219,45.833333333333336 57.36788617886179,45.47764227642276 57.0630081300813,45.12195121951219 56.75813008130081,44.766260162601625 56.40243902439024,44.46138211382114 56.046747967479675,44.15650406504065 55.640243902439025,43.85162601626016 55.233739837398375,43.546747967479675 54.77642276422764,43.24186991869919 54.31910569105691,42.98780487804878 53.91260162601626,42.733739837398375 53.45528455284553,42.58130081300813 52.9979674796748,42.3780487804878 52.540650406504064,42.22560975609756 52.083333333333336,42.073170731707314 51.6260162601626,41.97154471544715 51.11788617886179,41.81910569105691 50.55894308943089,41.71747967479675 50,41.666666666666664 49.49186991869919,41.61585365853659 48.93292682926829,41.5650406504065 48.323170731707314,41.514227642276424 47.8150406504065,41.514227642276424 47.25609756097561,41.514227642276424 46.697154471544714,41.5650406504065 46.1890243902439,41.61585365853659 45.579268292682926,41.71747967479675 45.02032520325203,41.86991869918699 44.46138211382114,42.02235772357724 43.85162601626016,42.17479674796748 43.292682926829265,42.327235772357724 42.733739837398375,42.479674796747965 42.1239837398374,42.68292682926829 41.61585365853659,42.886178861788615 41.107723577235774,43.08943089430894 40.548780487804876,43.39430894308943" fill="none" stroke="black" stroke-width="0.6"></polyline><polyline points="40.548780487804876,43.39430894308943 40.040650406504064,43.64837398373984 39.53252032520325,43.90243902439024 39.02439024390244,44.20731707317073 38.61788617886179,44.46138211382114 38.16056910569105,44.71544715447154 37.703252032520325,45.02032520325203 37.296747967479675,45.325203252032516 36.890243902439025,45.63008130081301 36.483739837398375,45.9349593495935 36.1280487804878,46.239837398373986 35.77235772357724,46.54471544715447 35.416666666666664,46.90040650406504 35.11178861788618,47.20528455284553 34.80691056910569,47.510162601626014 34.5020325203252,47.916666666666664 34.2479674796748,48.22154471544715 34.04471544715447,48.577235772357724 33.84146341463415,48.93292682926829 33.63821138211382,49.28861788617886 33.485772357723576,49.59349593495935 33.28252032520325,50 33.18089430894309,50.355691056910565 33.02845528455285,50.66056910569105 32.8760162601626,51.016260162601625 32.77439024390244,51.37195121951219 32.672764227642276,51.72764227642276 32.57113821138211,52.083333333333336 32.46951219512195,52.489837398373986 32.418699186991866,52.84552845528455 32.36788617886179,53.2520325203252 32.3170731707317,53.607723577235774 32.3170731707317,53.91260162601626 32.266260162601625,54.26829268292683 32.266260162601625,54.573170731707314 32.3170731707317,54.8780487804878 32.36788617886179,55.233739837398375 32.46951219512195,55.53861788617886 32.52032520325203,55.84349593495935 32.6219512195122,56.14837398373984 32.72357723577236,56.453252032520325 32.8760162601626,56.75813008130081 32.97764227642276,57.0630081300813 33.13008130081301,57.36788617886179 33.28252032520325,57.62195121951219 33.4349593495935,57.92682926829268 33.58739837398374,58.18089430894309 33.739837398373986,58.43495934959349 33.94308943089431,58.6890243902439 34.09552845528455,58.94308943089431 34.298780487804876,59.197154471544714" fill="none" stroke="black" stroke-width="0.6"></polyline><polyline points="34.298780487804876,59.197154471544714 34.5020325203252,59.40040650406504 34.70528455284553,59.603658536585364 34.959349593495936,59.80691056910569 35.21341463414634,60.0609756097561 35.51829268292683,60.21341463414634 35.77235772357724,60.416666666666664 36.1280487804878,60.56910569105691 36.483739837398375,60.72154471544715 36.83943089430894,60.92479674796748 37.19512195121951,61.077235772357724 37.55081300813008,61.229674796747965 37.95731707317073,61.38211382113821 38.36382113821138,61.483739837398375 38.77032520325203,61.636178861788615 39.176829268292686,61.78861788617886 39.583333333333336,61.890243902439025 39.989837398373986,61.99186991869919 40.447154471544714,62.09349593495935 40.853658536585364,62.14430894308943 41.3109756097561,62.19512195121951 41.81910569105691,62.296747967479675 42.22560975609756,62.34756097560975 42.68292682926829,62.39837398373984 43.1910569105691,62.449186991869915 43.64837398373984,62.449186991869915 44.15650406504065,62.5 44.71544715447154,62.5 45.22357723577235,62.5 45.78252032520325,62.5 46.34146341463415,62.449186991869915 46.84959349593496,62.39837398373984 47.40853658536585,62.296747967479675 47.96747967479675,62.19512195121951 48.47560975609756,62.14430894308943 49.03455284552845,62.042682926829265 49.59349593495935,61.890243902439025 50.10162601626016,61.78861788617886 50.66056910569105,61.636178861788615 51.21951219512195,61.483739837398375 51.72764227642276,61.28048780487805 52.235772357723576,61.1280487804878 52.79471544715447,60.8739837398374 53.302845528455286,60.670731707317074 53.760162601626014,60.416666666666664 54.26829268292683,60.16260162601626 54.67479674796748,59.90853658536585 55.18292682926829,59.65447154471545 55.640243902439025,59.34959349593496 56.09756097560975,58.99390243902439 56.605691056910565,58.63821138211382" fill="none" stroke="black" stroke-width="0.6"></polyline><polyline points="56.605691056910565,58.63821138211382 57.11382113821138,58.28252032520325 57.57113821138211,57.8760162601626 58.02845528455284,57.52032520325203 58.485772357723576,57.11382113821138 58.892276422764226,56.70731707317073 59.2479674796748,56.25 59.65447154471545,55.792682926829265 59.959349593495936,55.386178861788615 60.264227642276424,54.92886178861789 60.51829268292683,54.420731707317074 60.77235772357724,53.96341463414634 60.97560975609756,53.45528455284553 61.17886178861789,52.9979674796748 61.33130081300813,52.489837398373986 61.483739837398375,51.93089430894309 61.58536585365854,51.37195121951219 61.6869918699187,50.86382113821138 61.6869918699187,50.355691056910565 61.6869918699187,49.796747967479675 61.636178861788615,49.28861788617886 61.483739837398375,48.78048780487805 61.33130081300813,48.22154471544715 61.077235772357724,47.764227642276424 60.823170731707314,47.25609756097561 60.51829268292683,46.798780487804876 60.16260162601626,46.34146341463415 59.80691056910569,45.9349593495935 59.34959349593496,45.42682926829268 58.892276422764226,45.02032520325203 58.33333333333333,44.61382113821138 57.77439024390244,44.25813008130081 57.16463414634146,43.85162601626016 56.453252032520325,43.49593495934959 55.792682926829265,43.1910569105691 55.08130081300813,42.886178861788615 54.26829268292683,42.58130081300813 53.50609756097561,42.327235772357724 52.74390243902439,42.1239837398374 51.880081300813,41.86991869918699 51.11788617886179,41.71747967479675 50.2540650406504,41.5650406504065 49.33943089430894,41.41260162601626 48.577235772357724,41.3109756097561 47.71341463414634,41.260162601626014 46.798780487804876,41.209349593495936 45.9349593495935,41.209349593495936 45.07113821138211,41.209349593495936 44.105691056910565,41.3109756097561 43.292682926829265,41.41260162601626 42.42886178861789,41.61585365853659" fill="none" stroke="black" stroke-width="0.6"></polyline><polyline points="42.42886178861789,41.61585365853659 41.46341463414634,41.76829268292683 40.65040650406504,41.97154471544715 39.78658536585366,42.22560975609756 38.87195121951219,42.479674796747965 38.109756097560975,42.733739837398375 37.296747967479675,42.98780487804878 36.43292682926829,43.34349593495935 35.72154471544715,43.699186991869915 35.010162601626014,44.05487804878049 34.298780487804876,44.512195121951216 33.6890243902439,44.918699186991866 33.02845528455285,45.3760162601626 32.418699186991866,45.88414634146341 31.859756097560975,46.392276422764226 31.30081300813008,46.951219512195124 30.741869918699187,47.510162601626014 30.182926829268293,48.11991869918699 29.67479674796748,48.78048780487805 29.217479674796746,49.390243902439025 28.760162601626014,50 28.353658536585364,50.66056910569105 28.048780487804876,51.27032520325203 27.74390243902439,51.880081300813 27.489837398373982,52.540650406504064 27.33739837398374,53.201219512195124 27.184959349593495,53.8109756097561 27.083333333333332,54.52235772357724 26.98170731707317,55.18292682926829 26.98170731707317,55.84349593495935 26.98170731707317,56.5040650406504 27.083333333333332,57.21544715447154 27.235772357723576,57.77439024390244 27.489837398373982,58.38414634146341 27.74390243902439,58.99390243902439 28.048780487804876,59.552845528455286 28.404471544715445,60.11178861788618 28.861788617886177,60.670731707317074 29.268292682926827,61.229674796747965 29.776422764227643,61.73780487804878 30.335365853658537,62.24593495934959 30.945121951219512,62.65243902439024 31.65650406504065,63.05894308943089 32.36788617886179,63.41463414634146 33.13008130081301,63.71951219512195 33.99390243902439,63.922764227642276 34.857723577235774,64.1260162601626 35.77235772357724,64.22764227642276 36.73780487804878,64.32926829268293 37.703252032520325,64.380081300813 38.77032520325203,64.380081300813" fill="none" stroke="black" stroke-width="0.6"></polyline><polyline points="38.77032520325203,64.380081300813 39.9390243902439,64.27845528455285 41.05691056910569,64.1260162601626 42.27642276422764,63.97357723577235 43.546747967479675,63.71951219512195 44.766260162601625,63.41463414634146 46.08739837398374,63.109756097560975 47.5609756097561,62.65243902439024 48.93292682926829,62.296747967479675 50.50813008130081,61.83943089430894 52.28658536585366,61.28048780487805 53.96341463414634,60.72154471544715 55.792682926829265,60.0609756097561 57.672764227642276,59.34959349593496 59.5020325203252,58.58739837398374 61.43292682926829,57.672764227642276 63.41463414634146,56.65650406504065 65.29471544715447,55.640243902439025 67.22560975609755,54.52235772357724 69.15650406504065,53.353658536585364 70.8841463414634,52.235772357723576 72.76422764227642,51.0670731707317 74.64430894308943,49.89837398373984 75.5081300813008,49.33943089430894" fill="none" stroke="black" stroke-width="0.6"></polyline></svg>