<svg height="100" width="100" preserveAspectRatio="xMidYMid meet"><polyline points="15.142276422764228,16.971544715447155 15.142276422764228,16.971544715447155 15.142276422764228,16.920731707317074 15.142276422764228,16.869918699186993 15.142276422764228,16.81910569105691 15.19308943089431,16.76829268292683 15.24390243902439,16.71747967479675 15.345528455284553,16.615853658536587 15.447154471544716,16.565040650406505 15.548780487804878,16.463414634146343 15.701219512195122,16.3109756097561 15.853658536585366,16.260162601626014 16.006097560975608,16.15853658536585 16.15853658536585,16.05691056910569 16.260162601626014,16.006097560975608 16.41260162601626,15.904471544715447 16.615853658536587,15.853658536585366 16.71747967479675,15.701219512195122 16.920731707317074,15.59959349593496 17.073170731707318,15.447154471544716 17.276422764227643,15.24390243902439 17.479674796747968,15.091463414634147 17.682926829268293,14.83739837398374 17.9369918699187,14.583333333333332 18.140243902439025,14.329268292682926 18.39430894308943,14.024390243902438 18.648373983739837,13.770325203252032 18.851626016260163,13.516260162601625 19.004065040650406,13.262195121951219 19.15650406504065,13.008130081300813 19.308943089430894,12.754065040650406 19.461382113821138,12.5 19.61382113821138,12.245934959349594 19.715447154471544,11.941056910569106 19.817073170731707,11.6869918699187 19.91869918699187,11.432926829268293 20.020325203252032,11.178861788617885 20.172764227642276,10.873983739837398 20.32520325203252,10.56910569105691 20.477642276422763,10.264227642276422 20.630081300813007,9.908536585365853 20.73170731707317,9.654471544715447 20.833333333333332,9.34959349593496 20.884146341463413,9.095528455284553 20.934959349593495,8.892276422764228 20.985772357723576,8.638211382113822 20.985772357723576,8.434959349593496 20.985772357723576,8.231707317073171 20.985772357723576,8.079268292682926 20.985772357723576,7.926829268292683 20.934959349593495,7.774390243902439" fill="none" stroke="black" stroke-width="0.6"></polyline><polyline points="20.934959349593495,7.774390243902439 20.884146341463413,7.621951219512195 20.833333333333332,7.520325203252033 20.78252032520325,7.41869918699187 20.73170731707317,7.317073170731707 20.68089430894309,7.266260162601625 20.68089430894309,7.215447154471544 20.630081300813007,7.164634146341463 20.579268292682926,7.164634146341463 20.528455284552845,7.164634146341463 20.477642276422763,7.164634146341463 20.3760162601626,7.164634146341463 20.32520325203252,7.164634146341463 20.274390243902438,7.266260162601625 20.223577235772357,7.317073170731707 20.121951219512194,7.41869918699187 20.020325203252032,7.520325203252033 19.96951219512195,7.6727642276422765 19.867886178861788,7.82520325203252 19.766260162601625,7.977642276422764 19.664634146341463,8.130081300813007 19.5630081300813,8.333333333333334 19.410569105691057,8.536585365853659 19.258130081300813,8.790650406504065 19.15650406504065,8.99390243902439 19.054878048780488,9.298780487804878 18.953252032520325,9.502032520325203 18.851626016260163,9.75609756097561 18.75,10.060975609756097 18.69918699186992,10.365853658536585 18.597560975609756,10.670731707317072 18.495934959349594,11.026422764227641 18.39430894308943,11.280487804878048 18.34349593495935,11.585365853658537 18.29268292682927,11.839430894308943 18.241869918699187,12.09349593495935 18.191056910569106,12.347560975609756 18.191056910569106,12.601626016260163 18.191056910569106,12.855691056910569 18.191056910569106,13.160569105691057 18.191056910569106,13.414634146341463 18.29268292682927,13.66869918699187 18.34349593495935,13.922764227642276 18.39430894308943,14.227642276422763 18.445121951219512,14.53252032520325 18.546747967479675,14.83739837398374 18.597560975609756,15.142276422764228 18.69918699186992,15.447154471544716 18.80081300813008,15.701219512195122 18.902439024390244,15.904471544715447 19.054878048780488,16.05691056910569" fill="none" stroke="black" stroke-width="0.6"></polyline><polyline points="19.054878048780488,16.05691056910569 19.258130081300813,16.15853658536585 19.461382113821138,16.260162601626014 19.715447154471544,16.3109756097561 19.96951219512195,16.3109756097561 20.223577235772357,16.36178861788618 20.528455284552845,16.36178861788618 20.78252032520325,16.36178861788618 21.036585365853657,16.36178861788618 21.290650406504064,16.36178861788618 21.54471544715447,16.36178861788618 21.798780487804876,16.3109756097561 22.0020325203252,16.260162601626014 22.256097560975608,16.15853658536585 22.459349593495933,16.05691056910569 22.71341463414634,15.955284552845528 22.96747967479675,15.853658536585366 23.170731707317074,15.701219512195122 23.3739837398374,15.548780487804878 23.526422764227643,15.447154471544716 23.678861788617887,15.294715447154472 23.78048780487805,15.142276422764228 23.882113821138212,14.989837398373984 23.983739837398375,14.83739837398374 24.034552845528456,14.684959349593496 24.085365853658537,14.48170731707317 24.13617886178862,14.278455284552845 24.13617886178862,14.1260162601626 24.13617886178862,13.973577235772357 24.13617886178862,13.821138211382113 24.13617886178862,13.71951219512195 24.034552845528456,13.617886178861788 23.983739837398375,13.516260162601625 23.882113821138212,13.414634146341463 23.78048780487805,13.363821138211382 23.678861788617887,13.3130081300813 23.577235772357724,13.3130081300813 23.475609756097562,13.3130081300813 23.323170731707318,13.3130081300813 23.221544715447155,13.363821138211382 23.06910569105691,13.414634146341463 22.865853658536587,13.567073170731707 22.71341463414634,13.66869918699187 22.560975609756095,13.871951219512194 22.40853658536585,14.024390243902438 22.256097560975608,14.176829268292682 22.154471544715445,14.380081300813007 22.103658536585364,14.583333333333332 22.103658536585364,14.735772357723578 22.154471544715445,14.939024390243903 22.30691056910569,15.091463414634147" fill="none" stroke="black" stroke-width="0.6"></polyline><polyline points="22.30691056910569,15.091463414634147 22.510162601626014,15.24390243902439 22.764227642276424,15.447154471544716 23.06910569105691,15.59959349593496 23.323170731707318,15.752032520325203 23.577235772357724,15.904471544715447 23.78048780487805,16.05691056910569 23.83130081300813,16.15853658536585" fill="none" stroke="black" stroke-width="0.6"></polyline><polyline points="13.871951219512194,36.636178861788615 13.922764227642276,36.483739837398375 14.024390243902438,36.28048780487805 14.176829268292682,36.077235772357724 14.380081300813007,35.8739837398374 14.634146341463413,35.72154471544715 14.888211382113822,35.51829268292683 15.142276422764228,35.264227642276424 15.396341463414634,35.0609756097561 15.701219512195122,34.80691056910569 15.955284552845528,34.552845528455286 16.260162601626014,34.34959349593496 16.514227642276424,34.09552845528455 16.71747967479675,33.84146341463415 16.920731707317074,33.58739837398374 17.17479674796748,33.333333333333336 17.378048780487806,33.079268292682926 17.58130081300813,32.77439024390244 17.784552845528456,32.46951219512195 17.9369918699187,32.16463414634146 18.089430894308943,31.859756097560975 18.241869918699187,31.554878048780488 18.39430894308943,31.30081300813008 18.495934959349594,31.046747967479675 18.648373983739837,30.79268292682927 18.75,30.538617886178862 18.851626016260163,30.284552845528456 18.902439024390244,30.03048780487805 18.953252032520325,29.776422764227643 18.953252032520325,29.573170731707318 18.953252032520325,29.31910569105691 18.953252032520325,29.166666666666664 18.902439024390244,29.01422764227642 18.80081300813008,28.861788617886177 18.75,28.709349593495933 18.648373983739837,28.55691056910569 18.597560975609756,28.455284552845526 18.495934959349594,28.353658536585364 18.39430894308943,28.302845528455283 18.241869918699187,28.302845528455283 18.140243902439025,28.302845528455283 17.9369918699187,28.353658536585364 17.733739837398375,28.404471544715445 17.53048780487805,28.55691056910569 17.327235772357724,28.65853658536585 17.1239837398374,28.861788617886177 16.920731707317074,29.0650406504065 16.71747967479675,29.268292682926827 16.514227642276424,29.522357723577237 16.36178861788618,29.776422764227643 16.209349593495933,30.03048780487805" fill="none" stroke="black" stroke-width="0.6"></polyline><polyline points="16.209349593495933,30.03048780487805 16.05691056910569,30.335365853658537 16.006097560975608,30.640243902439025 15.904471544715447,30.945121951219512 15.853658536585366,31.25 15.752032520325203,31.60569105691057 15.701219512195122,31.910569105691057 15.59959349593496,32.266260162601625 15.548780487804878,32.6219512195122 15.497967479674797,32.926829268292686 15.497967479674797,33.28252032520325 15.497967479674797,33.58739837398374 15.497967479674797,33.892276422764226 15.497967479674797,34.197154471544714 15.59959349593496,34.451219512195124 15.701219512195122,34.70528455284553 15.802845528455284,34.90853658536585 15.955284552845528,35.11178861788618 16.10772357723577,35.3150406504065 16.3109756097561,35.51829268292683 16.514227642276424,35.61991869918699 16.71747967479675,35.77235772357724 16.920731707317074,35.92479674796748 17.17479674796748,36.02642276422764 17.378048780487806,36.1280487804878 17.682926829268293,36.229674796747965 17.9369918699187,36.28048780487805 18.191056910569106,36.33130081300813 18.495934959349594,36.33130081300813 18.80081300813008,36.33130081300813 19.10569105691057,36.33130081300813 19.461382113821138,36.28048780487805 19.766260162601625,36.17886178861789 20.071138211382113,36.077235772357724 20.3760162601626,35.97560975609756 20.68089430894309,35.823170731707314 20.985772357723576,35.72154471544715 21.239837398373982,35.56910569105691 21.49390243902439,35.46747967479675 21.747967479674795,35.3150406504065 21.95121951219512,35.16260162601626 22.103658536585364,35.010162601626014 22.256097560975608,34.857723577235774 22.35772357723577,34.70528455284553 22.40853658536585,34.552845528455286 22.459349593495933,34.40040650406504 22.459349593495933,34.2479674796748 22.510162601626014,34.146341463414636 22.510162601626014,33.99390243902439 22.510162601626014,33.892276422764226 22.459349593495933,33.790650406504064" fill="none" stroke="black" stroke-width="0.6"></polyline><polyline points="22.459349593495933,33.790650406504064 22.40853658536585,33.6890243902439 22.35772357723577,33.63821138211382 22.256097560975608,33.53658536585366 22.154471544715445,33.485772357723576 22.052845528455283,33.4349593495935 21.90040650406504,33.4349593495935 21.798780487804876,33.38414634146341 21.646341463414632,33.38414634146341 21.49390243902439,33.38414634146341 21.290650406504064,33.4349593495935 21.13821138211382,33.485772357723576 20.934959349593495,33.58739837398374 20.73170731707317,33.739837398373986 20.579268292682926,33.84146341463415 20.426829268292682,33.99390243902439 20.274390243902438,34.146341463414636 20.223577235772357,34.298780487804876 20.172764227642276,34.451219512195124 20.121951219512194,34.603658536585364 20.121951219512194,34.70528455284553 20.172764227642276,34.857723577235774 20.223577235772357,35.010162601626014 20.32520325203252,35.16260162601626 20.426829268292682,35.264227642276424 20.579268292682926,35.416666666666664 20.78252032520325,35.56910569105691 20.985772357723576,35.670731707317074 21.239837398373982,35.77235772357724 21.54471544715447,35.823170731707314 21.849593495934958,35.8739837398374 22.205284552845526,35.92479674796748 22.560975609756095,35.92479674796748 22.865853658536587,35.97560975609756 23.170731707317074,36.02642276422764 23.42479674796748,36.077235772357724 23.628048780487806,36.1280487804878 23.882113821138212,36.17886178861789 24.085365853658537,36.229674796747965 24.288617886178862,36.28048780487805 24.59349593495935,36.28048780487805 24.847560975609756,36.229674796747965" fill="none" stroke="black" stroke-width="0.6"></polyline><polyline points="12.957317073170731,56.80894308943089 13.008130081300813,56.75813008130081 13.058943089430894,56.65650406504065 13.160569105691057,56.605691056910565 13.262195121951219,56.55487804878049 13.414634146341463,56.5040650406504 13.617886178861788,56.5040650406504 13.821138211382113,56.40243902439024 14.024390243902438,56.30081300813008 14.329268292682926,56.199186991869915 14.583333333333332,55.99593495934959 14.939024390243903,55.792682926829265 15.24390243902439,55.58943089430894 15.548780487804878,55.33536585365854 15.853658536585366,55.08130081300813 16.15853658536585,54.8780487804878 16.41260162601626,54.6239837398374 16.76829268292683,54.31910569105691 17.022357723577237,54.0650406504065 17.327235772357724,53.760162601626014 17.632113821138212,53.40447154471545 17.88617886178862,53.048780487804876 18.140243902439025,52.74390243902439 18.39430894308943,52.38821138211382 18.597560975609756,52.083333333333336 18.80081300813008,51.72764227642276 19.004065040650406,51.32113821138211 19.15650406504065,50.96544715447154 19.308943089430894,50.66056910569105 19.410569105691057,50.30487804878049 19.461382113821138,50.05081300813008 19.51219512195122,49.74593495934959 19.5630081300813,49.49186991869919 19.5630081300813,49.1869918699187 19.5630081300813,48.93292682926829 19.5630081300813,48.729674796747965 19.5630081300813,48.52642276422764 19.5630081300813,48.323170731707314 19.51219512195122,48.170731707317074 19.461382113821138,48.01829268292683 19.410569105691057,47.86585365853659 19.308943089430894,47.764227642276424 19.258130081300813,47.66260162601626 19.15650406504065,47.5609756097561 19.054878048780488,47.510162601626014 18.953252032520325,47.510162601626014 18.851626016260163,47.510162601626014 18.69918699186992,47.510162601626014 18.597560975609756,47.510162601626014 18.495934959349594,47.5609756097561 18.34349593495935,47.71341463414634" fill="none" stroke="black" stroke-width="0.6"></polyline><polyline points="18.34349593495935,47.71341463414634 18.191056910569106,47.8150406504065 18.038617886178862,47.96747967479675 17.88617886178862,48.170731707317074 17.733739837398375,48.3739837398374 17.53048780487805,48.577235772357724 17.378048780487806,48.83130081300813 17.17479674796748,49.136178861788615 17.022357723577237,49.4410569105691 16.81910569105691,49.84756097560975 16.71747967479675,50.203252032520325 16.615853658536587,50.609756097560975 16.514227642276424,50.96544715447154 16.41260162601626,51.32113821138211 16.36178861788618,51.72764227642276 16.3109756097561,52.083333333333336 16.260162601626014,52.38821138211382 16.260162601626014,52.69308943089431 16.260162601626014,52.896341463414636 16.36178861788618,53.09959349593496 16.463414634146343,53.302845528455286 16.615853658536587,53.45528455284553 16.76829268292683,53.607723577235774 16.971544715447155,53.8109756097561 17.17479674796748,53.96341463414634 17.327235772357724,54.11585365853659 17.58130081300813,54.26829268292683 17.733739837398375,54.420731707317074 17.9369918699187,54.52235772357724 18.191056910569106,54.6239837398374 18.39430894308943,54.72560975609756 18.648373983739837,54.77642276422764 18.902439024390244,54.77642276422764 19.20731707317073,54.827235772357724 19.51219512195122,54.827235772357724 19.817073170731707,54.827235772357724 20.121951219512194,54.77642276422764 20.3760162601626,54.72560975609756 20.630081300813007,54.72560975609756 20.884146341463413,54.72560975609756 21.036585365853657,54.72560975609756 21.239837398373982,54.67479674796748 21.392276422764226,54.67479674796748 21.54471544715447,54.6239837398374 21.697154471544714,54.6239837398374 21.798780487804876,54.573170731707314 21.95121951219512,54.52235772357724 22.052845528455283,54.420731707317074 22.154471544715445,54.36991869918699 22.205284552845526,54.26829268292683 22.30691056910569,54.21747967479675" fill="none" stroke="black" stroke-width="0.6"></polyline><polyline points="22.30691056910569,54.21747967479675 22.35772357723577,54.11585365853659 22.40853658536585,54.014227642276424 22.40853658536585,53.91260162601626 22.40853658536585,53.8109756097561 22.40853658536585,53.709349593495936 22.40853658536585,53.607723577235774 22.40853658536585,53.50609756097561 22.35772357723577,53.40447154471545 22.35772357723577,53.302845528455286 22.30691056910569,53.201219512195124 22.256097560975608,53.09959349593496 22.205284552845526,52.9979674796748 22.154471544715445,52.896341463414636 22.103658536585364,52.79471544715447 22.052845528455283,52.69308943089431 22.0020325203252,52.59146341463415 21.95121951219512,52.540650406504064 21.90040650406504,52.489837398373986 21.849593495934958,52.4390243902439 21.747967479674795,52.4390243902439 21.646341463414632,52.4390243902439 21.54471544715447,52.489837398373986 21.392276422764226,52.59146341463415 21.239837398373982,52.74390243902439 21.08739837398374,52.896341463414636 20.934959349593495,53.048780487804876 20.78252032520325,53.2520325203252 20.68089430894309,53.45528455284553 20.579268292682926,53.607723577235774 20.528455284552845,53.760162601626014 20.528455284552845,53.91260162601626 20.528455284552845,54.0650406504065 20.68089430894309,54.166666666666664 20.833333333333332,54.31910569105691 20.985772357723576,54.420731707317074 21.13821138211382,54.573170731707314 21.341463414634145,54.67479674796748 21.49390243902439,54.77642276422764 21.646341463414632,54.8780487804878 21.798780487804876,54.979674796747965 22.0020325203252,55.03048780487805 22.154471544715445,55.08130081300813 22.35772357723577,55.13211382113821 22.560975609756095,55.13211382113821 22.764227642276424,55.18292682926829 22.865853658536587,55.233739837398375" fill="none" stroke="black" stroke-width="0.6"></polyline><polyline points="12.347560975609756,75.76219512195122 12.296747967479675,75.8130081300813 12.245934959349594,75.86382113821138 12.195121951219512,75.91463414634146 12.195121951219512,75.91463414634146 12.195121951219512,75.96544715447155 12.195121951219512,75.96544715447155 12.245934959349594,75.96544715447155 12.347560975609756,75.96544715447155 12.398373983739837,75.96544715447155 12.5,75.96544715447155 12.601626016260163,75.91463414634146 12.754065040650406,75.86382113821138 12.855691056910569,75.8130081300813 13.008130081300813,75.71138211382113 13.160569105691057,75.66056910569105 13.3130081300813,75.5081300813008 13.516260162601625,75.40650406504065 13.71951219512195,75.2540650406504 13.973577235772357,75.05081300813008 14.227642276422763,74.89837398373983 14.48170731707317,74.6951219512195 14.735772357723578,74.49186991869918 14.939024390243903,74.23780487804878 15.19308943089431,74.03455284552845 15.447154471544716,73.72967479674797 15.701219512195122,73.47560975609755 15.955284552845528,73.17073170731707 16.209349593495933,72.86585365853658 16.41260162601626,72.61178861788618 16.615853658536587,72.3069105691057 16.81910569105691,72.05284552845528 16.971544715447155,71.79878048780488 17.1239837398374,71.54471544715447 17.276422764227643,71.29065040650406 17.378048780487806,71.08739837398373 17.428861788617887,70.83333333333333 17.53048780487805,70.57926829268293 17.632113821138212,70.3760162601626 17.632113821138212,70.17276422764228 17.682926829268293,69.96951219512195 17.682926829268293,69.76626016260163 17.682926829268293,69.5630081300813 17.682926829268293,69.35975609756098 17.682926829268293,69.20731707317073 17.682926829268293,69.0040650406504 17.632113821138212,68.85162601626016 17.58130081300813,68.69918699186992 17.53048780487805,68.54674796747967 17.479674796747968,68.4451219512195 17.428861788617887,68.39430894308943" fill="none" stroke="black" stroke-width="0.6"></polyline><polyline points="17.428861788617887,68.39430894308943 17.378048780487806,68.34349593495935 17.276422764227643,68.29268292682927 17.17479674796748,68.29268292682927 17.022357723577237,68.29268292682927 16.869918699186993,68.34349593495935 16.76829268292683,68.39430894308943 16.615853658536587,68.4959349593496 16.463414634146343,68.59756097560975 16.3109756097561,68.75 16.209349593495933,68.85162601626016 16.05691056910569,69.05487804878048 15.904471544715447,69.20731707317073 15.752032520325203,69.41056910569105 15.59959349593496,69.61382113821138 15.447154471544716,69.8170731707317 15.294715447154472,70.0711382113821 15.142276422764228,70.27439024390243 14.989837398373984,70.47764227642276 14.888211382113822,70.73170731707317 14.83739837398374,70.9349593495935 14.786585365853659,71.13821138211382 14.735772357723578,71.34146341463415 14.735772357723578,71.54471544715447 14.735772357723578,71.7479674796748 14.735772357723578,71.95121951219512 14.735772357723578,72.15447154471545 14.735772357723578,72.3069105691057 14.735772357723578,72.51016260162602 14.786585365853659,72.71341463414635 14.786585365853659,72.86585365853658 14.786585365853659,73.0691056910569 14.83739837398374,73.27235772357723 14.83739837398374,73.42479674796748 14.939024390243903,73.6280487804878 14.989837398373984,73.78048780487805 15.091463414634147,73.9329268292683 15.19308943089431,74.08536585365853 15.345528455284553,74.1869918699187 15.497967479674797,74.28861788617886 15.65040650406504,74.39024390243902 15.802845528455284,74.49186991869918 16.006097560975608,74.54268292682927 16.15853658536585,74.59349593495935 16.36178861788618,74.6951219512195 16.514227642276424,74.7459349593496 16.71747967479675,74.79674796747967 16.869918699186993,74.84756097560975 17.073170731707318,74.94918699186992 17.276422764227643,75 17.428861788617887,75" fill="none" stroke="black" stroke-width="0.6"></polyline><polyline points="17.428861788617887,75 17.632113821138212,75 17.835365853658537,75 18.038617886178862,74.94918699186992 18.241869918699187,74.84756097560975 18.495934959349594,74.7459349593496 18.69918699186992,74.59349593495935 18.902439024390244,74.49186991869918 19.10569105691057,74.33943089430895 19.258130081300813,74.23780487804878 19.410569105691057,74.13617886178862 19.5630081300813,73.98373983739837 19.715447154471544,73.8821138211382 19.817073170731707,73.72967479674797 19.91869918699187,73.6280487804878 20.020325203252032,73.52642276422765 20.071138211382113,73.42479674796748 20.121951219512194,73.32317073170732 20.121951219512194,73.27235772357723 20.121951219512194,73.22154471544715 20.121951219512194,73.17073170731707 20.121951219512194,73.119918699187 20.121951219512194,73.0691056910569 20.071138211382113,73.01829268292683 20.071138211382113,72.96747967479675 20.020325203252032,72.91666666666667 19.91869918699187,72.86585365853658 19.867886178861788,72.8150406504065 19.766260162601625,72.76422764227642 19.664634146341463,72.71341463414635 19.5630081300813,72.71341463414635 19.461382113821138,72.71341463414635 19.359756097560975,72.71341463414635 19.20731707317073,72.71341463414635 19.054878048780488,72.76422764227642 18.953252032520325,72.86585365853658 18.80081300813008,73.01829268292683 18.69918699186992,73.17073170731707 18.546747967479675,73.32317073170732 18.495934959349594,73.47560975609755 18.39430894308943,73.6280487804878 18.34349593495935,73.83130081300813 18.34349593495935,73.98373983739837 18.34349593495935,74.1869918699187 18.34349593495935,74.33943089430895 18.39430894308943,74.49186991869918 18.546747967479675,74.64430894308943 18.648373983739837,74.7459349593496 18.851626016260163,74.84756097560975 19.004065040650406,74.94918699186992 19.20731707317073,75" fill="none" stroke="black" stroke-width="0.6"></polyline><polyline points="19.20731707317073,75 19.359756097560975,75.10162601626016 19.5630081300813,75.2540650406504 19.664634146341463,75.35569105691057" fill="none" stroke="black" stroke-width="0.6"></polyline><polyline points="11.178861788617885,96.23983739837398 11.229674796747966,96.23983739837398 11.229674796747966,96.23983739837398 11.229674796747966,96.23983739837398 11.280487804878048,96.1890243902439 11.382113821138212,96.13821138211382 11.585365853658537,96.03658536585365 11.788617886178862,95.83333333333333 12.042682926829269,95.68089430894308 12.347560975609756,95.42682926829268 12.652439024390244,95.17276422764228 12.90650406504065,94.91869918699187 13.160569105691057,94.66463414634146 13.465447154471544,94.35975609756098 13.66869918699187,94.15650406504065 13.922764227642276,93.85162601626016 14.227642276422763,93.54674796747967 14.53252032520325,93.1910569105691 14.83739837398374,92.73373983739837 15.24390243902439,92.27642276422765 15.548780487804878,91.869918699187 15.904471544715447,91.46341463414635 16.209349593495933,91.0060975609756 16.514227642276424,90.59959349593495 16.81910569105691,90.14227642276423 17.1239837398374,89.73577235772358 17.378048780487806,89.32926829268293 17.632113821138212,88.8719512195122 17.88617886178862,88.41463414634146 18.089430894308943,88.0081300813008 18.34349593495935,87.55081300813008 18.597560975609756,87.09349593495935 18.75,86.6869918699187 18.902439024390244,86.33130081300813 19.004065040650406,85.92479674796748 19.054878048780488,85.619918699187 19.10569105691057,85.36585365853658 19.10569105691057,85.11178861788618 19.10569105691057,84.90853658536585 19.054878048780488,84.70528455284553 19.004065040650406,84.5020325203252 18.902439024390244,84.34959349593495 18.80081300813008,84.2479674796748 18.648373983739837,84.09552845528455 18.546747967479675,84.04471544715447 18.39430894308943,83.99390243902438 18.241869918699187,83.9430894308943 18.089430894308943,83.89227642276423 17.9369918699187,83.89227642276423 17.784552845528456,83.89227642276423 17.632113821138212,83.9430894308943" fill="none" stroke="black" stroke-width="0.6"></polyline><polyline points="17.632113821138212,83.9430894308943 17.53048780487805,83.99390243902438 17.378048780487806,84.09552845528455 17.225609756097562,84.2479674796748 17.073170731707318,84.40040650406503 16.920731707317074,84.55284552845528 16.76829268292683,84.7560975609756 16.666666666666668,84.95934959349593 16.514227642276424,85.21341463414635 16.41260162601626,85.41666666666667 16.260162601626014,85.67073170731707 16.10772357723577,85.97560975609755 15.955284552845528,86.28048780487805 15.802845528455284,86.63617886178862 15.65040650406504,86.99186991869918 15.497967479674797,87.34756097560975 15.294715447154472,87.7540650406504 15.142276422764228,88.10975609756098 14.989837398373984,88.46544715447155 14.888211382113822,88.8719512195122 14.735772357723578,89.22764227642276 14.684959349593496,89.58333333333333 14.583333333333332,89.9390243902439 14.583333333333332,90.1930894308943 14.583333333333332,90.4979674796748 14.53252032520325,90.80284552845528 14.53252032520325,91.0569105691057 14.53252032520325,91.36178861788618 14.53252032520325,91.66666666666667 14.583333333333332,91.869918699187 14.583333333333332,92.1239837398374 14.684959349593496,92.3780487804878 14.735772357723578,92.53048780487805 14.83739837398374,92.73373983739837 14.939024390243903,92.88617886178862 15.040650406504065,93.03861788617886 15.19308943089431,93.1910569105691 15.345528455284553,93.34349593495935 15.548780487804878,93.4451219512195 15.701219512195122,93.54674796747967 15.904471544715447,93.64837398373983 16.10772357723577,93.69918699186992 16.3109756097561,93.80081300813008 16.565040650406505,93.90243902439025 16.76829268292683,93.90243902439025 17.022357723577237,93.95325203252033 17.276422764227643,93.95325203252033 17.53048780487805,93.95325203252033 17.784552845528456,93.95325203252033 18.038617886178862,93.90243902439025 18.29268292682927,93.85162601626016" fill="none" stroke="black" stroke-width="0.6"></polyline><polyline points="18.29268292682927,93.85162601626016 18.546747967479675,93.80081300813008 18.80081300813008,93.69918699186992 19.054878048780488,93.59756097560975 19.308943089430894,93.54674796747967 19.5630081300813,93.39430894308943 19.817073170731707,93.29268292682927 20.020325203252032,93.1910569105691 20.274390243902438,93.08943089430895 20.477642276422763,92.9369918699187 20.68089430894309,92.83536585365853 20.833333333333332,92.73373983739837 20.934959349593495,92.6829268292683 20.985772357723576,92.6321138211382 21.036585365853657,92.58130081300813 21.036585365853657,92.53048780487805 21.036585365853657,92.47967479674797 21.036585365853657,92.42886178861788 21.036585365853657,92.3780487804878 21.036585365853657,92.32723577235772 21.036585365853657,92.22560975609755 20.985772357723576,92.17479674796748 20.934959349593495,92.1239837398374 20.884146341463413,92.02235772357723 20.833333333333332,91.97154471544715 20.78252032520325,91.92073170731707 20.68089430894309,91.869918699187 20.579268292682926,91.869918699187 20.426829268292682,91.8191056910569 20.32520325203252,91.8191056910569 20.172764227642276,91.8191056910569 20.020325203252032,91.8191056910569 19.817073170731707,91.869918699187 19.664634146341463,91.97154471544715 19.461382113821138,92.07317073170732 19.359756097560975,92.17479674796748 19.20731707317073,92.32723577235772 19.10569105691057,92.42886178861788 19.054878048780488,92.58130081300813 19.004065040650406,92.6829268292683 19.004065040650406,92.83536585365853 19.054878048780488,92.9369918699187 19.10569105691057,93.03861788617886 19.20731707317073,93.08943089430895 19.359756097560975,93.1910569105691 19.461382113821138,93.24186991869918 19.664634146341463,93.24186991869918 19.817073170731707,93.29268292682927 20.020325203252032,93.29268292682927 20.223577235772357,93.29268292682927 20.426829268292682,93.29268292682927" fill="none" stroke="black" stroke-width="0.6"></polyline><polyline points="20.426829268292682,93.29268292682927 20.630081300813007,93.29268292682927 20.73170731707317,93.34349593495935" fill="none" stroke="black" stroke-width="0.6"></polyline></svg>