<svg height="100" width="100" preserveAspectRatio="xMidYMid meet"><polyline points="49.84756097560975,50.30487804878049 49.796747967479675,50.30487804878049 49.69512195121951,50.203252032520325 49.64430894308943,50.15243902439024 49.64430894308943,50.15243902439024 49.59349593495935,50.15243902439024 49.59349593495935,50.15243902439024 49.542682926829265,50.15243902439024 49.542682926829265,50.15243902439024 49.542682926829265,50.15243902439024 49.542682926829265,50.203252032520325 49.542682926829265,50.203252032520325 49.542682926829265,50.203252032520325 49.59349593495935,50.203252032520325 49.64430894308943,50.15243902439024 49.74593495934959,50.10162601626016 49.796747967479675,50 49.89837398373984,49.89837398373984 49.949186991869915,49.796747967479675 50.05081300813008,49.69512195121951 50.10162601626016,49.59349593495935 50.15243902439024,49.4410569105691 50.203252032520325,49.33943089430894 50.203252032520325,49.1869918699187 50.203252032520325,49.08536585365854 50.203252032520325,48.983739837398375 50.203252032520325,48.83130081300813 50.15243902439024,48.729674796747965 50.10162601626016,48.6280487804878 50,48.577235772357724 49.949186991869915,48.47560975609756 49.84756097560975,48.42479674796748 49.74593495934959,48.42479674796748 49.59349593495935,48.42479674796748 49.390243902439025,48.42479674796748 49.1869918699187,48.42479674796748 48.93292682926829,48.47560975609756 48.729674796747965,48.52642276422764 48.47560975609756,48.577235772357724 48.22154471544715,48.67886178861789 47.96747967479675,48.78048780487805 47.71341463414634,48.83130081300813 47.510162601626014,48.93292682926829 47.30691056910569,49.03455284552845 47.103658536585364,49.08536585365854 46.951219512195124,49.1869918699187 46.798780487804876,49.23780487804878 46.646341463414636,49.33943089430894 46.54471544715447,49.4410569105691 46.44308943089431,49.542682926829265 46.34146341463415,49.69512195121951" fill="none" stroke="black" stroke-width="0.6"></polyline><polyline points="46.34146341463415,49.69512195121951 46.239837398373986,49.84756097560975 46.1890243902439,50 46.1890243902439,50.203252032520325 46.1890243902439,50.40650406504065 46.1890243902439,50.609756097560975 46.1890243902439,50.8130081300813 46.1890243902439,51.016260162601625 46.239837398373986,51.27032520325203 46.290650406504064,51.47357723577235 46.392276422764226,51.67682926829268 46.44308943089431,51.880081300813 46.54471544715447,52.13414634146341 46.646341463414636,52.38821138211382 46.7479674796748,52.59146341463415 46.90040650406504,52.79471544715447 47.052845528455286,52.9979674796748 47.20528455284553,53.15040650406504 47.357723577235774,53.353658536585364 47.510162601626014,53.50609756097561 47.71341463414634,53.607723577235774 47.916666666666664,53.760162601626014 48.06910569105691,53.86178861788618 48.22154471544715,53.96341463414634 48.42479674796748,54.0650406504065 48.577235772357724,54.166666666666664 48.729674796747965,54.26829268292683 48.93292682926829,54.31910569105691 49.08536585365854,54.420731707317074 49.28861788617886,54.47154471544715 49.49186991869919,54.573170731707314 49.69512195121951,54.6239837398374 49.89837398373984,54.67479674796748 50.10162601626016,54.72560975609756 50.2540650406504,54.77642276422764 50.50813008130081,54.77642276422764 50.71138211382114,54.827235772357724 50.96544715447154,54.8780487804878 51.168699186991866,54.92886178861789 51.422764227642276,54.92886178861789 51.6260162601626,54.979674796747965 51.829268292682926,54.979674796747965 52.03252032520325,54.979674796747965 52.235772357723576,54.979674796747965 52.489837398373986,54.979674796747965 52.74390243902439,54.92886178861789 52.9979674796748,54.8780487804878 53.302845528455286,54.77642276422764 53.607723577235774,54.67479674796748 53.91260162601626,54.6239837398374 54.166666666666664,54.47154471544715" fill="none" stroke="black" stroke-width="0.6"></polyline><polyline points="54.166666666666664,54.47154471544715 54.47154471544715,54.36991869918699 54.72560975609756,54.21747967479675 55.03048780487805,54.0650406504065 55.28455284552845,53.91260162601626 55.53861788617886,53.760162601626014 55.792682926829265,53.55691056910569 55.99593495934959,53.353658536585364 56.199186991869915,53.201219512195124 56.35162601626016,52.947154471544714 56.55487804878049,52.69308943089431 56.65650406504065,52.4390243902439 56.75813008130081,52.1849593495935 56.859756097560975,51.880081300813 56.91056910569105,51.575203252032516 56.96138211382114,51.32113821138211 56.96138211382114,51.0670731707317 56.96138211382114,50.8130081300813 56.96138211382114,50.609756097560975 56.96138211382114,50.40650406504065 56.91056910569105,50.203252032520325 56.859756097560975,50 56.80894308943089,49.796747967479675 56.75813008130081,49.59349593495935 56.70731707317073,49.390243902439025 56.605691056910565,49.1869918699187 56.5040650406504,48.983739837398375 56.40243902439024,48.78048780487805 56.30081300813008,48.577235772357724 56.199186991869915,48.323170731707314 56.046747967479675,48.06910569105691 55.94512195121951,47.8150406504065 55.84349593495935,47.510162601626014 55.74186991869919,47.20528455284553 55.640243902439025,46.951219512195124 55.53861788617886,46.7479674796748 55.4369918699187,46.44308943089431 55.386178861788615,46.239837398373986 55.28455284552845,45.985772357723576 55.18292682926829,45.68089430894309 55.08130081300813,45.3760162601626 55.03048780487805,45.12195121951219 54.92886178861789,44.86788617886179 54.8780487804878,44.66463414634146 54.77642276422764,44.46138211382114 54.72560975609756,44.25813008130081 54.6239837398374,44.05487804878049 54.573170731707314,43.85162601626016 54.47154471544715,43.64837398373984 54.420731707317074,43.49593495934959 54.36991869918699,43.292682926829265" fill="none" stroke="black" stroke-width="0.6"></polyline><polyline points="54.36991869918699,43.292682926829265 54.26829268292683,43.140243902439025 54.166666666666664,42.98780487804878 54.11585365853659,42.83536585365854 54.014227642276424,42.68292682926829 53.96341463414634,42.58130081300813 53.86178861788618,42.479674796747965 53.8109756097561,42.327235772357724 53.709349593495936,42.22560975609756 53.65853658536585,42.17479674796748 53.55691056910569,42.073170731707314 53.50609756097561,41.97154471544715 53.40447154471545,41.920731707317074 53.353658536585364,41.86991869918699 53.2520325203252,41.76829268292683 53.15040650406504,41.71747967479675 53.048780487804876,41.666666666666664 52.947154471544714,41.5650406504065 52.84552845528455,41.514227642276424 52.69308943089431,41.46341463414634 52.59146341463415,41.41260162601626 52.4390243902439,41.3109756097561 52.33739837398374,41.260162601626014 52.1849593495935,41.209349593495936 52.03252032520325,41.15853658536585 51.829268292682926,41.107723577235774 51.6260162601626,41.05691056910569 51.422764227642276,41.05691056910569 51.168699186991866,41.00609756097561 50.91463414634146,41.00609756097561 50.66056910569105,41.00609756097561 50.40650406504065,41.00609756097561 50.15243902439024,41.00609756097561 50,41.00609756097561 49.84756097560975,41.00609756097561 49.49186991869919,41.05691056910569 49.33943089430894,41.05691056910569 49.1869918699187,41.05691056910569 48.83130081300813,41.107723577235774 48.47560975609756,41.15853658536585 48.170731707317074,41.260162601626014 47.8150406504065,41.3109756097561 47.459349593495936,41.36178861788618 47.20528455284553,41.41260162601626 46.84959349593496,41.514227642276424 46.59552845528455,41.5650406504065 46.34146341463415,41.61585365853659 46.08739837398374,41.666666666666664 45.88414634146341,41.71747967479675 45.68089430894309,41.81910569105691 45.42682926829268,41.920731707317074" fill="none" stroke="black" stroke-width="0.6"></polyline><polyline points="45.42682926829268,41.920731707317074 45.22357723577235,42.02235772357724 45.02032520325203,42.1239837398374 44.8170731707317,42.22560975609756 44.66463414634146,42.327235772357724 44.512195121951216,42.42886178861789 44.30894308943089,42.53048780487805 44.20731707317073,42.63211382113821 44.05487804878049,42.78455284552845 43.90243902439024,42.9369918699187 43.75,43.08943089430894 43.59756097560975,43.24186991869919 43.44512195121951,43.44512195121951 43.34349593495935,43.64837398373984 43.1910569105691,43.85162601626016 43.03861788617886,44.105691056910565 42.886178861788615,44.359756097560975 42.68292682926829,44.5630081300813 42.53048780487805,44.86788617886179 42.3780487804878,45.07113821138211 42.22560975609756,45.325203252032516 42.02235772357724,45.63008130081301 41.920731707317074,45.88414634146341 41.76829268292683,46.1890243902439 41.666666666666664,46.44308943089431 41.61585365853659,46.59552845528455 41.514227642276424,46.7479674796748 41.36178861788618,47.0020325203252 41.260162601626014,47.30691056910569 41.107723577235774,47.5609756097561 41.00609756097561,47.86585365853659 40.90447154471545,48.170731707317074 40.802845528455286,48.42479674796748 40.701219512195124,48.729674796747965 40.65040650406504,48.983739837398375 40.59959349593496,49.23780487804878 40.548780487804876,49.49186991869919 40.4979674796748,49.796747967479675 40.447154471544714,50.10162601626016 40.396341463414636,50.45731707317073 40.34552845528455,50.762195121951216 40.29471544715447,51.11788617886179 40.24390243902439,51.422764227642276 40.24390243902439,51.77845528455284 40.24390243902439,52.083333333333336 40.24390243902439,52.4390243902439 40.24390243902439,52.74390243902439 40.24390243902439,53.09959349593496 40.24390243902439,53.45528455284553 40.29471544715447,53.8109756097561 40.34552845528455,54.11585365853659" fill="none" stroke="black" stroke-width="0.6"></polyline><polyline points="40.34552845528455,54.11585365853659 40.396341463414636,54.52235772357724 40.447154471544714,54.8780487804878 40.4979674796748,55.233739837398375 40.548780487804876,55.58943089430894 40.65040650406504,55.89430894308943 40.701219512195124,56.25 40.802845528455286,56.605691056910565 40.90447154471545,56.96138211382114 41.00609756097561,57.266260162601625 41.107723577235774,57.62195121951219 41.260162601626014,57.92682926829268 41.36178861788618,58.18089430894309 41.514227642276424,58.485772357723576 41.666666666666664,58.739837398373986 41.81910569105691,58.99390243902439 42.02235772357724,59.298780487804876 42.17479674796748,59.5020325203252 42.3780487804878,59.70528455284553 42.53048780487805,59.90853658536585 42.68292682926829,60.0609756097561 42.886178861788615,60.21341463414634 43.03861788617886,60.416666666666664 43.24186991869919,60.56910569105691 43.39430894308943,60.72154471544715 43.59756097560975,60.8739837398374 43.80081300813008,61.02642276422764 43.953252032520325,61.17886178861789 44.15650406504065,61.33130081300813 44.359756097560975,61.43292682926829 44.5630081300813,61.58536585365854 44.8170731707317,61.6869918699187 45.02032520325203,61.78861788617886 45.22357723577235,61.890243902439025 45.47764227642276,61.99186991869919 45.68089430894309,62.09349593495935 45.88414634146341,62.14430894308943 46.08739837398374,62.19512195121951 46.290650406504064,62.24593495934959 46.54471544715447,62.296747967479675 46.7479674796748,62.34756097560975 46.951219512195124,62.39837398373984 47.20528455284553,62.39837398373984 47.459349593495936,62.39837398373984 47.764227642276424,62.39837398373984 48.01829268292683,62.39837398373984 48.323170731707314,62.39837398373984 48.6280487804878,62.34756097560975 48.88211382113821,62.34756097560975 49.1869918699187,62.296747967479675 49.49186991869919,62.24593495934959" fill="none" stroke="black" stroke-width="0.6"></polyline><polyline points="49.49186991869919,62.24593495934959 49.74593495934959,62.24593495934959 50.05081300813008,62.19512195121951 50.30487804878049,62.14430894308943 50.609756097560975,62.09349593495935 50.91463414634146,62.042682926829265 51.27032520325203,61.9410569105691 51.6260162601626,61.890243902439025 51.93089430894309,61.78861788617886 52.235772357723576,61.6869918699187 52.540650406504064,61.58536585365854 52.896341463414636,61.483739837398375 53.201219512195124,61.38211382113821 53.50609756097561,61.28048780487805 53.8109756097561,61.1280487804878 54.166666666666664,60.97560975609756 54.47154471544715,60.823170731707314 54.77642276422764,60.670731707317074 55.03048780487805,60.56910569105691 55.33536585365854,60.416666666666664 55.640243902439025,60.3150406504065 55.89430894308943,60.16260162601626 56.25,60.0609756097561 56.55487804878049,59.857723577235774 56.859756097560975,59.70528455284553 57.16463414634146,59.5020325203252 57.46951219512195,59.298780487804876 57.825203252032516,59.09552845528455 58.18089430894309,58.892276422764226 58.485772357723576,58.63821138211382 58.739837398373986,58.43495934959349 58.99390243902439,58.231707317073166 59.197154471544714,58.079268292682926 59.40040650406504,57.92682926829268 59.603658536585364,57.825203252032516 59.75609756097561,57.672764227642276 59.90853658536585,57.52032520325203 60.0609756097561,57.3170731707317 60.21341463414634,57.16463414634146 60.3150406504065,57.012195121951216 60.416666666666664,56.80894308943089 60.51829268292683,56.605691056910565 60.61991869918699,56.35162601626016 60.670731707317074,56.14837398373984 60.77235772357724,55.94512195121951 60.823170731707314,55.6910569105691 60.8739837398374,55.48780487804878 60.92479674796748,55.33536585365854 60.97560975609756,55.13211382113821 61.02642276422764,54.8780487804878 61.077235772357724,54.67479674796748" fill="none" stroke="black" stroke-width="0.6"></polyline><polyline points="61.077235772357724,54.67479674796748 61.077235772357724,54.420731707317074 61.17886178861789,54.11585365853659 61.229674796747965,53.86178861788618 61.28048780487805,53.607723577235774 61.33130081300813,53.353658536585364 61.38211382113821,53.09959349593496 61.483739837398375,52.84552845528455 61.53455284552845,52.540650406504064 61.58536585365854,52.28658536585366 61.6869918699187,52.03252032520325 61.73780487804878,51.72764227642276 61.78861788617886,51.47357723577235 61.83943089430894,51.21951219512195 61.9410569105691,50.91463414634146 61.99186991869919,50.66056910569105 62.042682926829265,50.355691056910565 62.14430894308943,50.05081300813008 62.19512195121951,49.74593495934959 62.296747967479675,49.4410569105691 62.34756097560975,49.136178861788615 62.449186991869915,48.88211382113821 62.5,48.577235772357724 62.55081300813008,48.27235772357724 62.60162601626016,48.01829268292683 62.65243902439024,47.71341463414634 62.703252032520325,47.357723577235774 62.7540650406504,47.052845528455286 62.80487804878049,46.7479674796748 62.855691056910565,46.44308943089431 62.90650406504065,46.13821138211382 62.90650406504065,45.833333333333336 62.95731707317073,45.47764227642276 62.95731707317073,45.22357723577235 62.95731707317073,44.918699186991866 62.95731707317073,44.61382113821138 62.95731707317073,44.359756097560975 62.95731707317073,44.105691056910565 62.90650406504065,43.80081300813008 62.855691056910565,43.546747967479675 62.80487804878049,43.292682926829265 62.703252032520325,43.03861788617886 62.60162601626016,42.78455284552845 62.5,42.53048780487805 62.39837398373984,42.27642276422764 62.296747967479675,42.073170731707314 62.14430894308943,41.81910569105691 61.99186991869919,41.61585365853659 61.83943089430894,41.36178861788618 61.6869918699187,41.15853658536585 61.53455284552845,40.90447154471545" fill="none" stroke="black" stroke-width="0.6"></polyline><polyline points="61.53455284552845,40.90447154471545 61.38211382113821,40.701219512195124 61.17886178861789,40.447154471544714 61.02642276422764,40.29471544715447 60.823170731707314,40.142276422764226 60.61991869918699,39.9390243902439 60.416666666666664,39.78658536585366 60.16260162601626,39.583333333333336 59.959349593495936,39.38008130081301 59.70528455284553,39.22764227642276 59.5020325203252,39.02439024390244 59.197154471544714,38.87195121951219 58.94308943089431,38.668699186991866 58.6890243902439,38.516260162601625 58.43495934959349,38.36382113821138 58.130081300813,38.21138211382114 57.8760162601626,38.109756097560975 57.52032520325203,37.90650406504065 57.21544715447154,37.80487804878049 56.859756097560975,37.65243902439024 56.5040650406504,37.5 56.199186991869915,37.34756097560975 55.94512195121951,37.24593495934959 55.640243902439025,37.09349593495935 55.33536585365854,36.9410569105691 55.03048780487805,36.83943089430894 54.67479674796748,36.6869918699187 54.31910569105691,36.58536585365854 53.96341463414634,36.483739837398375 53.607723577235774,36.38211382113821 53.2520325203252,36.28048780487805 52.947154471544714,36.229674796747965 52.59146341463415,36.1280487804878 52.28658536585366,36.02642276422764 51.93089430894309,35.97560975609756 51.52439024390244,35.8739837398374 51.11788617886179,35.823170731707314 50.762195121951216,35.77235772357724 50.355691056910565,35.72154471544715 50.05081300813008,35.72154471544715 49.69512195121951,35.670731707317074 49.33943089430894,35.61991869918699 48.93292682926829,35.61991869918699 48.577235772357724,35.61991869918699 48.22154471544715,35.61991869918699 47.86585365853659,35.61991869918699 47.5609756097561,35.56910569105691 47.20528455284553,35.56910569105691 46.951219512195124,35.56910569105691 46.646341463414636,35.51829268292683 46.34146341463415,35.51829268292683" fill="none" stroke="black" stroke-width="0.6"></polyline><polyline points="46.34146341463415,35.51829268292683 46.03658536585366,35.51829268292683 45.73170731707317,35.56910569105691 45.42682926829268,35.56910569105691 45.12195121951219,35.61991869918699 44.8170731707317,35.72154471544715 44.512195121951216,35.77235772357724 44.15650406504065,35.8739837398374 43.85162601626016,35.97560975609756 43.49593495934959,36.1280487804878 43.24186991869919,36.229674796747965 42.98780487804878,36.33130081300813 42.68292682926829,36.43292682926829 42.42886178861789,36.53455284552845 42.1239837398374,36.73780487804878 41.81910569105691,36.890243902439025 41.5650406504065,36.99186991869919 41.3109756097561,37.14430894308943 41.107723577235774,37.296747967479675 40.802845528455286,37.449186991869915 40.548780487804876,37.65243902439024 40.29471544715447,37.80487804878049 40.040650406504064,37.95731707317073 39.735772357723576,38.109756097560975 39.48170731707317,38.3130081300813 39.176829268292686,38.516260162601625 38.87195121951219,38.71951219512195 38.61788617886179,38.922764227642276 38.36382113821138,39.176829268292686 38.05894308943089,39.43089430894309 37.80487804878049,39.6849593495935 37.60162601626016,39.88821138211382 37.34756097560975,40.142276422764226 37.19512195121951,40.34552845528455 37.042682926829265,40.4979674796748 36.890243902439025,40.65040650406504 36.73780487804878,40.802845528455286 36.58536585365854,41.00609756097561 36.43292682926829,41.209349593495936 36.33130081300813,41.36178861788618 36.229674796747965,41.5650406504065 36.077235772357724,41.76829268292683 36.02642276422764,41.920731707317074 35.92479674796748,42.073170731707314 35.823170731707314,42.27642276422764 35.77235772357724,42.42886178861789 35.72154471544715,42.63211382113821 35.61991869918699,42.78455284552845 35.56910569105691,42.98780487804878 35.51829268292683,43.1910569105691 35.416666666666664,43.39430894308943" fill="none" stroke="black" stroke-width="0.6"></polyline><polyline points="35.416666666666664,43.39430894308943 35.36585365853659,43.64837398373984 35.264227642276424,43.90243902439024 35.21341463414634,44.20731707317073 35.11178861788618,44.46138211382114 35.010162601626014,44.766260162601625 34.90853658536585,45.02032520325203 34.75609756097561,45.325203252032516 34.603658536585364,45.68089430894309 34.451219512195124,46.03658536585366 34.298780487804876,46.34146341463415 34.197154471544714,46.646341463414636 34.09552845528455,46.951219512195124 33.99390243902439,47.25609756097561 33.94308943089431,47.5609756097561 33.84146341463415,47.8150406504065 33.790650406504064,48.11991869918699 33.6890243902439,48.42479674796748 33.63821138211382,48.729674796747965 33.58739837398374,49.03455284552845 33.53658536585366,49.28861788617886 33.485772357723576,49.542682926829265 33.485772357723576,49.796747967479675 33.4349593495935,50 33.4349593495935,50.30487804878049 33.4349593495935,50.55894308943089 33.4349593495935,50.8130081300813 33.4349593495935,51.11788617886179 33.4349593495935,51.37195121951219 33.4349593495935,51.67682926829268 33.4349593495935,52.03252032520325 33.4349593495935,52.33739837398374 33.4349593495935,52.69308943089431 33.485772357723576,53.048780487804876 33.53658536585366,53.40447154471545 33.58739837398374,53.760162601626014 33.63821138211382,54.0650406504065 33.739837398373986,54.420731707317074 33.790650406504064,54.77642276422764 33.84146341463415,55.08130081300813 33.94308943089431,55.386178861788615 33.99390243902439,55.6910569105691 34.09552845528455,55.99593495934959 34.197154471544714,56.30081300813008 34.298780487804876,56.605691056910565 34.40040650406504,56.91056910569105 34.5020325203252,57.21544715447154 34.65447154471545,57.52032520325203 34.75609756097561,57.8760162601626 34.857723577235774,58.18089430894309 35.010162601626014,58.536585365853654" fill="none" stroke="black" stroke-width="0.6"></polyline><polyline points="35.010162601626014,58.536585365853654 35.11178861788618,58.892276422764226 35.264227642276424,59.197154471544714 35.416666666666664,59.5020325203252 35.51829268292683,59.80691056910569 35.670731707317074,60.11178861788618 35.823170731707314,60.46747967479675 35.97560975609756,60.72154471544715 36.1280487804878,61.077235772357724 36.28048780487805,61.43292682926829 36.43292682926829,61.6869918699187 36.58536585365854,61.99186991869919 36.78861788617886,62.296747967479675 36.9410569105691,62.60162601626016 37.14430894308943,62.855691056910565 37.34756097560975,63.16056910569105 37.55081300813008,63.41463414634146 37.703252032520325,63.668699186991866 37.90650406504065,63.922764227642276 38.109756097560975,64.1260162601626 38.3130081300813,64.380081300813 38.516260162601625,64.6341463414634 38.71951219512195,64.83739837398373 38.922764227642276,65.04065040650406 39.176829268292686,65.29471544715447 39.43089430894309,65.4979674796748 39.63414634146341,65.65040650406505 39.88821138211382,65.85365853658537 40.142276422764226,65.95528455284553 40.34552845528455,66.10772357723577 40.59959349593496,66.26016260162602 40.853658536585364,66.41260162601625 41.107723577235774,66.51422764227642 41.36178861788618,66.61585365853658 41.5650406504065,66.71747967479675 41.76829268292683,66.8191056910569 41.97154471544715,66.92073170731707 42.17479674796748,66.97154471544715 42.327235772357724,67.07317073170732 42.53048780487805,67.17479674796748 42.68292682926829,67.22560975609755 42.886178861788615,67.32723577235772 43.08943089430894,67.42886178861788 43.24186991869919,67.47967479674797 43.44512195121951,67.58130081300813 43.64837398373984,67.6321138211382 43.85162601626016,67.6829268292683 44.05487804878049,67.78455284552845 44.25813008130081,67.83536585365853 44.41056910569105,67.88617886178862 44.61382113821138,67.9369918699187" fill="none" stroke="black" stroke-width="0.6"></polyline><polyline points="44.61382113821138,67.9369918699187 44.8170731707317,67.98780487804878 44.96951219512195,67.98780487804878 45.172764227642276,68.03861788617886 45.3760162601626,68.08943089430895 45.579268292682926,68.08943089430895 45.833333333333336,68.14024390243902 46.03658536585366,68.1910569105691 46.290650406504064,68.1910569105691 46.54471544715447,68.24186991869918 46.798780487804876,68.29268292682927 47.103658536585364,68.34349593495935 47.40853658536585,68.34349593495935 47.66260162601626,68.39430894308943 47.96747967479675,68.39430894308943 48.27235772357724,68.4451219512195 48.52642276422764,68.4959349593496 48.78048780487805,68.4959349593496 49.08536585365854,68.54674796747967 49.390243902439025,68.59756097560975 49.64430894308943,68.59756097560975 49.949186991869915,68.64837398373983 50.203252032520325,68.64837398373983 50.45731707317073,68.69918699186992 50.762195121951216,68.69918699186992 50.96544715447154,68.75 51.21951219512195,68.75 51.52439024390244,68.80081300813008 51.72764227642276,68.80081300813008 51.981707317073166,68.80081300813008 52.28658536585366,68.85162601626016 52.540650406504064,68.85162601626016 52.74390243902439,68.85162601626016 53.048780487804876,68.85162601626016 53.302845528455286,68.85162601626016 53.55691056910569,68.85162601626016 53.8109756097561,68.80081300813008 54.0650406504065,68.75 54.36991869918699,68.69918699186992 54.6239837398374,68.64837398373983 54.8780487804878,68.59756097560975 55.18292682926829,68.54674796747967 55.48780487804878,68.4451219512195 55.792682926829265,68.34349593495935 56.09756097560975,68.24186991869918 56.453252032520325,68.14024390243902 56.70731707317073,67.98780487804878 57.012195121951216,67.88617886178862 57.266260162601625,67.73373983739837 57.52032520325203,67.6321138211382 57.77439024390244,67.47967479674797" fill="none" stroke="black" stroke-width="0.6"></polyline><polyline points="57.77439024390244,67.47967479674797 58.02845528455284,67.32723577235772 58.28252032520325,67.17479674796748 58.485772357723576,67.02235772357723 58.739837398373986,66.869918699187 58.99390243902439,66.71747967479675 59.298780487804876,66.51422764227642 59.552845528455286,66.36178861788618 59.80691056910569,66.15853658536585 60.11178861788618,65.95528455284553 60.36585365853659,65.7520325203252 60.61991869918699,65.54878048780488 60.823170731707314,65.34552845528455 61.077235772357724,65.14227642276423 61.28048780487805,64.9390243902439 61.483739837398375,64.73577235772358 61.6869918699187,64.58333333333333 61.83943089430894,64.43089430894308 62.042682926829265,64.27845528455285 62.19512195121951,64.1260162601626 62.34756097560975,64.02439024390243 62.5,63.87195121951219 62.60162601626016,63.77032520325203 62.7540650406504,63.668699186991866 62.90650406504065,63.5670731707317 63.00813008130081,63.46544715447154 63.109756097560975,63.36382113821138 63.21138211382114,63.262195121951216 63.262195121951216,63.16056910569105 63.36382113821138,63.05894308943089 63.46544715447154,62.95731707317073 63.516260162601625,62.90650406504065 63.61788617886179,62.80487804878049 63.71951219512195,62.703252032520325 63.77032520325203,62.60162601626016 63.87195121951219,62.5 63.97357723577235,62.39837398373984 64.07520325203252,62.296747967479675 64.17682926829268,62.19512195121951 64.27845528455285,62.042682926829265 64.43089430894308,61.890243902439025 64.53252032520325,61.78861788617886 64.6341463414634,61.636178861788615 64.78658536585365,61.53455284552845 64.88821138211382,61.38211382113821 64.98983739837398,61.229674796747965 65.14227642276423,61.1280487804878 65.2439024390244,60.97560975609756 65.34552845528455,60.823170731707314 65.4979674796748,60.670731707317074 65.59959349593495,60.56910569105691" fill="none" stroke="black" stroke-width="0.6"></polyline><polyline points="65.59959349593495,60.56910569105691 65.70121951219512,60.416666666666664 65.80284552845528,60.3150406504065 65.90447154471545,60.11178861788618 66.0060975609756,59.959349593495936 66.10772357723577,59.75609756097561 66.26016260162602,59.603658536585364 66.36178861788618,59.40040650406504 66.51422764227642,59.197154471544714 66.61585365853658,58.99390243902439 66.71747967479675,58.790650406504064 66.869918699187,58.58739837398374 66.92073170731707,58.38414634146341 67.02235772357723,58.18089430894309 67.07317073170732,58.02845528455284 67.17479674796748,57.8760162601626 67.22560975609755,57.62195121951219 67.32723577235772,57.36788617886179 67.42886178861788,57.11382113821138 67.53048780487805,56.80894308943089 67.6321138211382,56.453252032520325 67.73373983739837,56.09756097560975 67.83536585365853,55.792682926829265 67.88617886178862,55.48780487804878 67.9369918699187,55.13211382113821 67.98780487804878,54.827235772357724 68.08943089430895,54.52235772357724 68.14024390243902,54.21747967479675 68.1910569105691,53.8109756097561 68.29268292682927,53.45528455284553 68.34349593495935,53.048780487804876 68.4451219512195,52.642276422764226 68.54674796747967,52.28658536585366 68.59756097560975,51.880081300813 68.64837398373983,51.52439024390244 68.64837398373983,51.168699186991866 68.64837398373983,50.86382113821138 68.64837398373983,50.50813008130081 68.64837398373983,50.203252032520325 68.64837398373983,49.84756097560975 68.64837398373983,49.49186991869919 68.64837398373983,49.1869918699187 68.64837398373983,48.83130081300813 68.64837398373983,48.577235772357724 68.64837398373983,48.27235772357724 68.59756097560975,47.916666666666664 68.59756097560975,47.61178861788618 68.54674796747967,47.25609756097561 68.4959349593496,46.90040650406504 68.4959349593496,46.59552845528455 68.4451219512195,46.239837398373986" fill="none" stroke="black" stroke-width="0.6"></polyline><polyline points="68.4451219512195,46.239837398373986 68.39430894308943,45.88414634146341 68.34349593495935,45.579268292682926 68.29268292682927,45.22357723577235 68.24186991869918,44.918699186991866 68.1910569105691,44.61382113821138 68.14024390243902,44.359756097560975 68.08943089430895,44.05487804878049 67.98780487804878,43.75 67.9369918699187,43.44512195121951 67.88617886178862,43.08943089430894 67.83536585365853,42.83536585365854 67.78455284552845,42.53048780487805 67.73373983739837,42.22560975609756 67.6321138211382,41.920731707317074 67.58130081300813,41.666666666666664 67.47967479674797,41.3109756097561 67.42886178861788,41.00609756097561 67.32723577235772,40.701219512195124 67.22560975609755,40.396341463414636 67.17479674796748,40.142276422764226 67.07317073170732,39.83739837398374 66.97154471544715,39.53252032520325 66.869918699187,39.22764227642276 66.71747967479675,38.922764227642276 66.61585365853658,38.61788617886179 66.46341463414635,38.3130081300813 66.36178861788618,38.05894308943089 66.20934959349593,37.7540650406504 66.10772357723577,37.5 65.95528455284553,37.19512195121951 65.80284552845528,36.9410569105691 65.65040650406505,36.636178861788615 65.4979674796748,36.38211382113821 65.34552845528455,36.1280487804878 65.14227642276423,35.8739837398374 64.9390243902439,35.670731707317074 64.73577235772358,35.416666666666664 64.53252032520325,35.21341463414634 64.32926829268293,34.959349593495936 64.1260162601626,34.70528455284553 63.87195121951219,34.451219512195124 63.668699186991866,34.197154471544714 63.41463414634146,33.94308943089431 63.21138211382114,33.739837398373986 62.95731707317073,33.53658536585366 62.7540650406504,33.28252032520325 62.5,33.079268292682926 62.296747967479675,32.82520325203252 62.042682926829265,32.6219512195122 61.73780487804878,32.418699186991866" fill="none" stroke="black" stroke-width="0.6"></polyline><polyline points="61.73780487804878,32.418699186991866 61.483739837398375,32.21544715447154 61.229674796747965,32.012195121951216 60.97560975609756,31.910569105691057 60.670731707317074,31.758130081300813 60.36585365853659,31.60569105691057 60.11178861788618,31.504065040650406 59.80691056910569,31.402439024390244 59.552845528455286,31.30081300813008 59.298780487804876,31.19918699186992 59.04471544715447,31.097560975609756 58.790650406504064,30.995934959349594 58.58739837398374,30.84349593495935 58.33333333333333,30.741869918699187 58.079268292682926,30.640243902439025 57.8760162601626,30.48780487804878 57.62195121951219,30.335365853658537 57.418699186991866,30.233739837398375 57.21544715447154,30.08130081300813 57.012195121951216,29.979674796747968 56.80894308943089,29.827235772357724 56.55487804878049,29.725609756097562 56.35162601626016,29.573170731707318 56.09756097560975,29.471544715447155 55.89430894308943,29.369918699186993 55.640243902439025,29.268292682926827 55.386178861788615,29.166666666666664 55.13211382113821,29.0650406504065 54.827235772357724,28.96341463414634 54.573170731707314,28.912601626016258 54.31910569105691,28.861788617886177 54.014227642276424,28.760162601626014 53.760162601626014,28.709349593495933 53.45528455284553,28.65853658536585 53.15040650406504,28.60772357723577 52.896341463414636,28.55691056910569 52.642276422764226,28.55691056910569 52.33739837398374,28.506097560975608 52.083333333333336,28.455284552845526 51.77845528455284,28.455284552845526 51.47357723577235,28.455284552845526 51.168699186991866,28.455284552845526 50.86382113821138,28.455284552845526 50.50813008130081,28.455284552845526 50.203252032520325,28.455284552845526 49.84756097560975,28.455284552845526 49.49186991869919,28.455284552845526 49.1869918699187,28.455284552845526 48.83130081300813,28.455284552845526 48.47560975609756,28.455284552845526 48.170731707317074,28.455284552845526" fill="none" stroke="black" stroke-width="0.6"></polyline><polyline points="48.170731707317074,28.455284552845526 47.8150406504065,28.506097560975608 47.459349593495936,28.506097560975608 47.052845528455286,28.55691056910569 46.646341463414636,28.65853658536585 46.239837398373986,28.709349593495933 45.88414634146341,28.760162601626014 45.52845528455285,28.810975609756095 45.172764227642276,28.810975609756095 44.8170731707317,28.861788617886177 44.46138211382114,28.912601626016258 44.05487804878049,28.96341463414634 43.699186991869915,29.0650406504065 43.34349593495935,29.115853658536583 42.98780487804878,29.166666666666664 42.68292682926829,29.268292682926827 42.327235772357724,29.31910569105691 41.97154471544715,29.420731707317074 41.61585365853659,29.522357723577237 41.260162601626014,29.6239837398374 40.853658536585364,29.725609756097562 40.548780487804876,29.827235772357724 40.19308943089431,29.928861788617887 39.83739837398374,30.08130081300813 39.53252032520325,30.182926829268293 39.22764227642276,30.335365853658537 38.87195121951219,30.48780487804878 38.61788617886179,30.640243902439025 38.262195121951216,30.84349593495935 37.95731707317073,30.995934959349594 37.65243902439024,31.19918699186992 37.296747967479675,31.402439024390244 37.042682926829265,31.554878048780488 36.73780487804878,31.758130081300813 36.38211382113821,31.910569105691057 36.1280487804878,32.11382113821138 35.8739837398374,32.266260162601625 35.56910569105691,32.46951219512195 35.36585365853659,32.6219512195122 35.0609756097561,32.8760162601626 34.70528455284553,33.13008130081301 34.451219512195124,33.333333333333336 34.146341463414636,33.58739837398374 33.790650406504064,33.892276422764226 33.485772357723576,34.146341463414636 33.18089430894309,34.40040650406504 32.82520325203252,34.75609756097561 32.418699186991866,35.11178861788618 32.0630081300813,35.46747967479675 31.65650406504065,35.8739837398374 31.351626016260163,36.17886178861789" fill="none" stroke="black" stroke-width="0.6"></polyline><polyline points="31.351626016260163,36.17886178861789 30.995934959349594,36.483739837398375 30.640243902439025,36.890243902439025 30.284552845528456,37.34756097560975 29.878048780487806,37.7540650406504 29.522357723577237,38.21138211382114 29.369918699186993,38.36382113821138 29.01422764227642,38.82113821138211 28.861788617886177,39.02439024390244 28.760162601626014,39.22764227642276 28.455284552845526,39.63414634146341 28.20121951219512,40.040650406504064 27.947154471544714,40.4979674796748 27.74390243902439,40.853658536585364 27.540650406504064,41.260162601626014 27.38821138211382,41.666666666666664 27.235772357723576,42.02235772357724 27.083333333333332,42.42886178861789 26.93089430894309,42.886178861788615 26.778455284552845,43.24186991869919 26.676829268292682,43.64837398373984 26.6260162601626,44.05487804878049 26.57520325203252,44.46138211382114 26.473577235772357,44.86788617886179 26.422764227642276,45.27439024390244 26.371951219512194,45.68089430894309 26.371951219512194,46.03658536585366 26.321138211382113,46.44308943089431 26.321138211382113,46.84959349593496 26.270325203252032,47.20528455284553 26.270325203252032,47.5609756097561 26.270325203252032,47.916666666666664 26.270325203252032,48.27235772357724 26.321138211382113,48.67886178861789 26.371951219512194,49.08536585365854 26.422764227642276,49.49186991869919 26.473577235772357,49.89837398373984 26.57520325203252,50.2540650406504 26.676829268292682,50.66056910569105 26.727642276422763,51.11788617886179 26.829268292682926,51.47357723577235 26.880081300813007,51.880081300813 26.98170731707317,52.33739837398374 27.083333333333332,52.79471544715447 27.134146341463413,53.2520325203252 27.235772357723576,53.760162601626014 27.33739837398374,54.21747967479675 27.4390243902439,54.827235772357724 27.540650406504064,55.33536585365854 27.642276422764226,55.89430894308943 27.74390243902439,56.453252032520325" fill="none" stroke="black" stroke-width="0.6"></polyline><polyline points="27.74390243902439,56.453252032520325 27.84552845528455,56.91056910569105 27.997967479674795,57.3170731707317 28.099593495934958,57.825203252032516 28.20121951219512,58.38414634146341 28.302845528455283,58.94308943089431 28.404471544715445,59.552845528455286 28.506097560975608,60.010162601626014 28.60772357723577,60.46747967479675 28.760162601626014,60.92479674796748 28.861788617886177,61.33130081300813 29.0650406504065,61.78861788617886 29.217479674796746,62.24593495934959 29.420731707317074,62.60162601626016 29.573170731707318,63.00813008130081 29.776422764227643,63.36382113821138 29.928861788617887,63.71951219512195 30.132113821138212,64.02439024390243 30.335365853658537,64.380081300813 30.589430894308943,64.6341463414634 30.79268292682927,64.88821138211382 31.046747967479675,65.1930894308943 31.25,65.44715447154472 31.504065040650406,65.70121951219512 31.808943089430894,65.95528455284553 32.0630081300813,66.20934959349593 32.266260162601625,66.41260162601625 32.57113821138211,66.66666666666667 32.82520325203252,66.869918699187 33.079268292682926,67.1239837398374 33.333333333333336,67.32723577235772 33.58739837398374,67.53048780487805 33.84146341463415,67.78455284552845 34.146341463414636,67.98780487804878 34.40040650406504,68.24186991869918 34.65447154471545,68.4451219512195 34.90853658536585,68.69918699186992 35.16260162601626,68.90243902439025 35.46747967479675,69.10569105691057 35.72154471544715,69.35975609756098 36.02642276422764,69.5630081300813 36.28048780487805,69.76626016260163 36.58536585365854,69.96951219512195 36.83943089430894,70.1219512195122 37.09349593495935,70.32520325203252 37.34756097560975,70.47764227642276 37.60162601626016,70.630081300813 37.7540650406504,70.73170731707317 37.90650406504065,70.83333333333333 38.21138211382114,70.98577235772358 38.516260162601625,71.13821138211382" fill="none" stroke="black" stroke-width="0.6"></polyline><polyline points="38.516260162601625,71.13821138211382 38.82113821138211,71.29065040650406 39.07520325203252,71.4430894308943 39.38008130081301,71.59552845528455 39.63414634146341,71.7479674796748 39.9390243902439,71.84959349593495 40.19308943089431,72.0020325203252 40.396341463414636,72.10365853658537 40.65040650406504,72.20528455284553 40.90447154471545,72.3069105691057 41.15853658536585,72.40853658536585 41.41260162601626,72.51016260162602 41.61585365853659,72.61178861788618 41.86991869918699,72.71341463414635 42.1239837398374,72.86585365853658 42.3780487804878,72.96747967479675 42.68292682926829,73.0691056910569 42.9369918699187,73.17073170731707 43.24186991869919,73.27235772357723 43.546747967479675,73.3739837398374 43.80081300813008,73.42479674796748 44.105691056910565,73.52642276422765 44.41056910569105,73.57723577235772 44.66463414634146,73.67886178861788 44.96951219512195,73.72967479674797 45.325203252032516,73.83130081300813 45.63008130081301,73.8821138211382 45.985772357723576,73.9329268292683 46.34146341463415,74.03455284552845 46.697154471544714,74.08536585365853 47.052845528455286,74.13617886178862 47.459349593495936,74.13617886178862 47.8150406504065,74.1869918699187 48.170731707317074,74.23780487804878 48.577235772357724,74.23780487804878 48.93292682926829,74.23780487804878 49.28861788617886,74.28861788617886 49.69512195121951,74.28861788617886 50.05081300813008,74.28861788617886 50.40650406504065,74.28861788617886 50.8130081300813,74.28861788617886 51.168699186991866,74.28861788617886 51.52439024390244,74.28861788617886 51.93089430894309,74.28861788617886 52.28658536585366,74.23780487804878 52.642276422764226,74.23780487804878 53.048780487804876,74.23780487804878 53.40447154471545,74.23780487804878 53.709349593495936,74.23780487804878 54.0650406504065,74.1869918699187 54.31910569105691,74.1869918699187" fill="none" stroke="black" stroke-width="0.6"></polyline><polyline points="54.31910569105691,74.1869918699187 54.573170731707314,74.1869918699187 54.827235772357724,74.13617886178862 55.08130081300813,74.13617886178862 55.28455284552845,74.08536585365853 55.53861788617886,74.08536585365853 55.74186991869919,74.03455284552845 55.99593495934959,74.03455284552845 56.199186991869915,73.98373983739837 56.40243902439024,73.98373983739837 56.605691056910565,73.9329268292683 56.80894308943089,73.9329268292683 56.96138211382114,73.8821138211382 57.11382113821138,73.8821138211382 57.266260162601625,73.83130081300813 57.36788617886179,73.83130081300813 57.52032520325203,73.78048780487805 57.672764227642276,73.72967479674797 57.825203252032516,73.72967479674797 57.97764227642276,73.67886178861788 58.18089430894309,73.6280487804878 58.33333333333333,73.57723577235772 58.536585365853654,73.52642276422765 58.6890243902439,73.47560975609755 58.892276422764226,73.42479674796748 59.09552845528455,73.32317073170732 59.40040650406504,73.22154471544715 59.603658536585364,73.17073170731707 59.857723577235774,73.01829268292683 60.16260162601626,72.91666666666667 60.416666666666664,72.8150406504065 60.72154471544715,72.71341463414635 61.02642276422764,72.61178861788618 61.28048780487805,72.45934959349593 61.58536585365854,72.35772357723577 61.890243902439025,72.20528455284553 62.19512195121951,72.05284552845528 62.5,71.95121951219512 62.7540650406504,71.79878048780488 63.05894308943089,71.69715447154472 63.36382113821138,71.54471544715447 63.668699186991866,71.39227642276423 64.02439024390243,71.1890243902439 64.32926829268293,71.03658536585365 64.6341463414634,70.8841463414634 64.98983739837398,70.68089430894308 65.34552845528455,70.42682926829268 65.65040650406505,70.27439024390243 65.95528455284553,70.0711382113821 66.26016260162602,69.86788617886178 66.51422764227642,69.66463414634146" fill="none" stroke="black" stroke-width="0.6"></polyline><polyline points="66.51422764227642,69.66463414634146 66.76829268292683,69.51219512195122 67.02235772357723,69.3089430894309 67.22560975609755,69.10569105691057 67.47967479674797,68.90243902439025 67.73373983739837,68.64837398373983 67.98780487804878,68.4451219512195 68.1910569105691,68.1910569105691 68.4451219512195,67.88617886178862 68.64837398373983,67.6321138211382 68.85162601626016,67.32723577235772 69.10569105691057,67.02235772357723 69.3089430894309,66.71747967479675 69.51219512195122,66.46341463414635 69.71544715447155,66.15853658536585 69.91869918699187,65.90447154471545 70.0711382113821,65.65040650406505 70.32520325203252,65.29471544715447 70.52845528455285,64.98983739837398 70.73170731707317,64.6341463414634 70.98577235772358,64.27845528455285 71.1890243902439,63.87195121951219 71.39227642276423,63.46544715447154 71.64634146341463,63.00813008130081 71.84959349593495,62.55081300813008 72.05284552845528,62.14430894308943 72.2560975609756,61.6869918699187 72.45934959349593,61.229674796747965 72.66260162601625,60.72154471544715 72.86585365853658,60.21341463414634 73.0691056910569,59.80691056910569 73.27235772357723,59.298780487804876 73.52642276422765,58.790650406504064 73.72967479674797,58.28252032520325 73.98373983739837,57.72357723577235 74.1869918699187,57.21544715447154 74.4410569105691,56.70731707317073 74.64430894308943,56.09756097560975 74.89837398373983,55.53861788617886 75.10162601626016,55.03048780487805 75.30487804878048,54.47154471544715 75.5081300813008,53.91260162601626 75.71138211382113,53.353658536585364 75.96544715447155,52.84552845528455 76.16869918699187,52.235772357723576 76.3719512195122,51.72764227642276 76.6260162601626,51.168699186991866 76.77845528455285,50.71138211382114 76.93089430894308,50.2540650406504 77.03252032520325,49.89837398373984 77.03252032520325,49.69512195121951" fill="none" stroke="black" stroke-width="0.6"></polyline><polyline points="77.03252032520325,49.69512195121951 77.08333333333333,49.542682926829265 77.08333333333333,49.28861788617886 77.08333333333333,49.08536585365854 77.08333333333333,48.93292682926829 77.08333333333333,48.88211382113821 77.08333333333333,48.83130081300813 77.08333333333333,48.83130081300813 77.08333333333333,48.83130081300813 77.08333333333333,48.83130081300813 77.08333333333333,48.88211382113821 77.08333333333333,49.03455284552845 77.1341463414634,49.136178861788615" fill="none" stroke="black" stroke-width="0.6"></polyline></svg>