<svg height="100" width="100" preserveAspectRatio="xMidYMid meet"><polyline points="50.203252032520325,50.15243902439024 50.203252032520325,50.10162601626016 50.203252032520325,50.05081300813008 50.203252032520325,50 50.203252032520325,50 50.203252032520325,49.949186991869915 50.203252032520325,49.89837398373984 50.203252032520325,49.84756097560975 50.203252032520325,49.84756097560975 50.203252032520325,49.84756097560975 50.203252032520325,49.796747967479675 50.2540650406504,49.74593495934959 50.2540650406504,49.74593495934959 50.30487804878049,49.69512195121951 50.355691056910565,49.59349593495935 50.45731707317073,49.542682926829265 50.55894308943089,49.4410569105691 50.71138211382114,49.28861788617886 50.86382113821138,49.136178861788615 51.0670731707317,48.983739837398375 51.21951219512195,48.78048780487805 51.37195121951219,48.577235772357724 51.575203252032516,48.323170731707314 51.72764227642276,48.06910569105691 51.880081300813,47.8150406504065 52.03252032520325,47.61178861788618 52.13414634146341,47.40853658536585 52.235772357723576,47.15447154471545 52.33739837398374,46.951219512195124 52.4390243902439,46.7479674796748 52.489837398373986,46.49390243902439 52.59146341463415,46.239837398373986 52.642276422764226,45.985772357723576 52.642276422764226,45.78252032520325 52.69308943089431,45.579268292682926 52.69308943089431,45.3760162601626 52.69308943089431,45.172764227642276 52.69308943089431,45.02032520325203 52.642276422764226,44.8170731707317 52.59146341463415,44.66463414634146 52.540650406504064,44.46138211382114 52.489837398373986,44.25813008130081 52.4390243902439,44.105691056910565 52.33739837398374,43.90243902439024 52.28658536585366,43.699186991869915 52.235772357723576,43.546747967479675 52.13414634146341,43.39430894308943 52.03252032520325,43.24186991869919 51.93089430894309,43.08943089430894 51.829268292682926,42.9369918699187 51.72764227642276,42.733739837398375" fill="none" stroke="black" stroke-width="0.6"></polyline><polyline points="51.72764227642276,42.733739837398375 51.6260162601626,42.58130081300813 51.52439024390244,42.3780487804878 51.422764227642276,42.27642276422764 51.27032520325203,42.073170731707314 51.168699186991866,41.920731707317074 51.016260162601625,41.81910569105691 50.91463414634146,41.666666666666664 50.762195121951216,41.514227642276424 50.609756097560975,41.36178861788618 50.45731707317073,41.260162601626014 50.30487804878049,41.107723577235774 50.15243902439024,41.00609756097561 50,40.90447154471545 49.89837398373984,40.7520325203252 49.69512195121951,40.65040650406504 49.542682926829265,40.548780487804876 49.390243902439025,40.447154471544714 49.23780487804878,40.396341463414636 49.03455284552845,40.29471544715447 48.88211382113821,40.24390243902439 48.67886178861789,40.142276422764226 48.47560975609756,40.09146341463415 48.27235772357724,40.040650406504064 48.06910569105691,39.989837398373986 47.8150406504065,39.9390243902439 47.66260162601626,39.9390243902439 47.459349593495936,39.88821138211382 47.20528455284553,39.88821138211382 47.0020325203252,39.83739837398374 46.798780487804876,39.83739837398374 46.54471544715447,39.83739837398374 46.392276422764226,39.83739837398374 46.1890243902439,39.83739837398374 45.985772357723576,39.88821138211382 45.78252032520325,39.88821138211382 45.63008130081301,39.88821138211382 45.42682926829268,39.9390243902439 45.27439024390244,39.989837398373986 45.07113821138211,40.040650406504064 44.86788617886179,40.09146341463415 44.66463414634146,40.142276422764226 44.512195121951216,40.19308943089431 44.359756097560975,40.29471544715447 44.20731707317073,40.34552845528455 44.05487804878049,40.447154471544714 43.90243902439024,40.548780487804876 43.75,40.65040650406504 43.59756097560975,40.7520325203252 43.39430894308943,40.90447154471545 43.24186991869919,41.00609756097561" fill="none" stroke="black" stroke-width="0.6"></polyline><polyline points="43.24186991869919,41.00609756097561 43.03861788617886,41.15853658536585 42.83536585365854,41.3109756097561 42.68292682926829,41.46341463414634 42.53048780487805,41.61585365853659 42.327235772357724,41.81910569105691 42.22560975609756,41.86991869918699 41.920731707317074,42.17479674796748 41.76829268292683,42.3780487804878 41.5650406504065,42.58130081300813 41.41260162601626,42.78455284552845 41.209349593495936,43.03861788617886 41.00609756097561,43.24186991869919 40.802845528455286,43.49593495934959 40.59959349593496,43.80081300813008 40.447154471544714,44.0040650406504 40.29471544715447,44.30894308943089 40.09146341463415,44.5630081300813 39.9390243902439,44.8170731707317 39.78658536585366,45.07113821138211 39.63414634146341,45.3760162601626 39.48170731707317,45.63008130081301 39.329268292682926,45.88414634146341 39.22764227642276,46.13821138211382 39.1260162601626,46.49390243902439 38.97357723577235,46.798780487804876 38.922764227642276,47.15447154471545 38.82113821138211,47.510162601626014 38.71951219512195,47.86585365853659 38.61788617886179,48.11991869918699 38.5670731707317,48.42479674796748 38.5670731707317,48.78048780487805 38.516260162601625,49.08536585365854 38.516260162601625,49.390243902439025 38.516260162601625,49.69512195121951 38.516260162601625,49.949186991869915 38.516260162601625,50.203252032520325 38.516260162601625,50.50813008130081 38.5670731707317,50.8130081300813 38.61788617886179,51.11788617886179 38.71951219512195,51.47357723577235 38.77032520325203,51.77845528455284 38.87195121951219,52.083333333333336 38.97357723577235,52.4390243902439 39.07520325203252,52.74390243902439 39.176829268292686,53.048780487804876 39.27845528455285,53.40447154471545 39.38008130081301,53.709349593495936 39.48170731707317,54.0650406504065 39.63414634146341,54.36991869918699 39.735772357723576,54.6239837398374" fill="none" stroke="black" stroke-width="0.6"></polyline><polyline points="39.735772357723576,54.6239837398374 39.88821138211382,54.92886178861789 40.09146341463415,55.233739837398375 40.24390243902439,55.53861788617886 40.396341463414636,55.84349593495935 40.59959349593496,56.199186991869915 40.802845528455286,56.453252032520325 40.95528455284553,56.75813008130081 41.15853658536585,57.0630081300813 41.36178861788618,57.3170731707317 41.5650406504065,57.62195121951219 41.76829268292683,57.8760162601626 41.920731707317074,58.079268292682926 42.1239837398374,58.28252032520325 42.27642276422764,58.43495934959349 42.42886178861789,58.58739837398374 42.63211382113821,58.790650406504064 42.83536585365854,58.94308943089431 42.98780487804878,59.09552845528455 43.140243902439025,59.298780487804876 43.39430894308943,59.5020325203252 43.59756097560975,59.65447154471545 43.80081300813008,59.80691056910569 44.05487804878049,59.959349593495936 44.20731707317073,60.11178861788618 44.46138211382114,60.264227642276424 44.71544715447154,60.36585365853659 44.918699186991866,60.51829268292683 45.172764227642276,60.61991869918699 45.42682926829268,60.72154471544715 45.63008130081301,60.77235772357724 45.88414634146341,60.8739837398374 46.1890243902439,60.92479674796748 46.392276422764226,60.97560975609756 46.646341463414636,61.02642276422764 46.84959349593496,61.077235772357724 47.103658536585364,61.1280487804878 47.357723577235774,61.1280487804878 47.66260162601626,61.1280487804878 47.96747967479675,61.1280487804878 48.27235772357724,61.1280487804878 48.52642276422764,61.1280487804878 48.83130081300813,61.1280487804878 49.136178861788615,61.1280487804878 49.4410569105691,61.1280487804878 49.74593495934959,61.1280487804878 50.10162601626016,61.1280487804878 50.45731707317073,61.077235772357724 50.762195121951216,61.02642276422764 51.11788617886179,61.02642276422764 51.422764227642276,60.92479674796748" fill="none" stroke="black" stroke-width="0.6"></polyline><polyline points="51.422764227642276,60.92479674796748 51.67682926829268,60.8739837398374 52.03252032520325,60.823170731707314 52.33739837398374,60.72154471544715 52.59146341463415,60.670731707317074 52.896341463414636,60.61991869918699 53.201219512195124,60.51829268292683 53.55691056910569,60.416666666666664 53.91260162601626,60.264227642276424 54.21747967479675,60.16260162601626 54.573170731707314,60.0609756097561 54.92886178861789,59.90853658536585 55.18292682926829,59.75609756097561 55.48780487804878,59.603658536585364 55.84349593495935,59.451219512195124 56.09756097560975,59.298780487804876 56.30081300813008,59.146341463414636 56.55487804878049,58.94308943089431 56.75813008130081,58.790650406504064 56.91056910569105,58.63821138211382 57.16463414634146,58.43495934959349 57.36788617886179,58.231707317073166 57.62195121951219,57.97764227642276 57.92682926829268,57.672764227642276 58.18089430894309,57.36788617886179 58.485772357723576,57.0630081300813 58.739837398373986,56.70731707317073 58.94308943089431,56.453252032520325 59.146341463414636,56.14837398373984 59.34959349593496,55.89430894308943 59.451219512195124,55.6910569105691 59.603658536585364,55.386178861788615 59.75609756097561,55.08130081300813 59.90853658536585,54.72560975609756 60.010162601626014,54.420731707317074 60.16260162601626,54.0650406504065 60.21341463414634,53.760162601626014 60.3150406504065,53.45528455284553 60.36585365853659,53.09959349593496 60.46747967479675,52.69308943089431 60.51829268292683,52.235772357723576 60.61991869918699,51.829268292682926 60.61991869918699,51.422764227642276 60.670731707317074,51.016260162601625 60.72154471544715,50.55894308943089 60.72154471544715,50.203252032520325 60.72154471544715,49.84756097560975 60.72154471544715,49.542682926829265 60.72154471544715,49.1869918699187 60.72154471544715,48.83130081300813 60.670731707317074,48.42479674796748" fill="none" stroke="black" stroke-width="0.6"></polyline><polyline points="60.670731707317074,48.42479674796748 60.670731707317074,48.01829268292683 60.61991869918699,47.66260162601626 60.56910569105691,47.25609756097561 60.51829268292683,46.84959349593496 60.46747967479675,46.49390243902439 60.416666666666664,46.03658536585366 60.36585365853659,45.63008130081301 60.3150406504065,45.172764227642276 60.21341463414634,44.8170731707317 60.16260162601626,44.41056910569105 60.0609756097561,44.0040650406504 59.959349593495936,43.64837398373984 59.90853658536585,43.292682926829265 59.75609756097561,42.9369918699187 59.65447154471545,42.58130081300813 59.5020325203252,42.22560975609756 59.40040650406504,41.81910569105691 59.2479674796748,41.46341463414634 59.09552845528455,41.107723577235774 58.892276422764226,40.701219512195124 58.6890243902439,40.29471544715447 58.485772357723576,39.88821138211382 58.231707317073166,39.48170731707317 58.02845528455284,39.07520325203252 57.825203252032516,38.71951219512195 57.57113821138211,38.36382113821138 57.3170731707317,38.00813008130081 57.0630081300813,37.65243902439024 56.75813008130081,37.24593495934959 56.453252032520325,36.9410569105691 56.199186991869915,36.636178861788615 55.89430894308943,36.38211382113821 55.640243902439025,36.1280487804878 55.33536585365854,35.8739837398374 54.979674796747965,35.56910569105691 54.6239837398374,35.264227642276424 54.26829268292683,35.010162601626014 53.86178861788618,34.75609756097561 53.50609756097561,34.5020325203252 53.09959349593496,34.298780487804876 52.69308943089431,34.04471544715447 52.28658536585366,33.84146341463415 51.77845528455284,33.6890243902439 51.32113821138211,33.485772357723576 50.86382113821138,33.333333333333336 50.40650406504065,33.18089430894309 49.949186991869915,33.079268292682926 49.49186991869919,32.97764227642276 48.983739837398375,32.8760162601626 48.47560975609756,32.77439024390244" fill="none" stroke="black" stroke-width="0.6"></polyline><polyline points="48.47560975609756,32.77439024390244 47.96747967479675,32.72357723577236 47.510162601626014,32.672764227642276 47.052845528455286,32.6219512195122 46.59552845528455,32.57113821138211 46.08739837398374,32.57113821138211 45.579268292682926,32.52032520325203 45.172764227642276,32.52032520325203 44.66463414634146,32.52032520325203 44.20731707317073,32.52032520325203 43.699186991869915,32.57113821138211 43.1910569105691,32.672764227642276 42.68292682926829,32.72357723577236 42.22560975609756,32.77439024390244 41.81910569105691,32.82520325203252 41.36178861788618,32.926829268292686 40.90447154471545,33.02845528455285 40.396341463414636,33.23170731707317 39.83739837398374,33.38414634146341 39.38008130081301,33.58739837398374 38.922764227642276,33.739837398373986 38.46544715447154,33.94308943089431 38.00813008130081,34.146341463414636 37.5,34.40040650406504 37.042682926829265,34.65447154471545 36.6869918699187,34.857723577235774 36.229674796747965,35.16260162601626 35.8739837398374,35.416666666666664 35.46747967479675,35.72154471544715 35.0609756097561,36.077235772357724 34.75609756097561,36.33130081300813 34.40040650406504,36.58536585365854 34.09552845528455,36.890243902439025 33.739837398373986,37.19512195121951 33.38414634146341,37.60162601626016 33.13008130081301,37.95731707317073 32.926829268292686,38.21138211382114 32.77439024390244,38.46544715447154 32.57113821138211,38.77032520325203 32.418699186991866,39.07520325203252 32.16463414634146,39.43089430894309 31.961382113821138,39.83739837398374 31.758130081300813,40.19308943089431 31.60569105691057,40.59959349593496 31.453252032520325,41.00609756097561 31.30081300813008,41.36178861788618 31.25,41.5650406504065 31.148373983739837,41.76829268292683 30.995934959349594,42.17479674796748 30.945121951219512,42.3780487804878 30.89430894308943,42.58130081300813" fill="none" stroke="black" stroke-width="0.6"></polyline><polyline points="30.89430894308943,42.58130081300813 30.79268292682927,42.9369918699187 30.691056910569106,43.39430894308943 30.640243902439025,43.80081300813008 30.538617886178862,44.20731707317073 30.4369918699187,44.66463414634146 30.38617886178862,45.07113821138211 30.335365853658537,45.47764227642276 30.335365853658537,45.88414634146341 30.284552845528456,46.290650406504064 30.284552845528456,46.7479674796748 30.233739837398375,47.25609756097561 30.233739837398375,47.66260162601626 30.182926829268293,48.11991869918699 30.182926829268293,48.6280487804878 30.182926829268293,49.03455284552845 30.182926829268293,49.49186991869919 30.182926829268293,49.949186991869915 30.182926829268293,50.40650406504065 30.182926829268293,50.86382113821138 30.233739837398375,51.37195121951219 30.233739837398375,51.880081300813 30.284552845528456,52.28658536585366 30.335365853658537,52.79471544715447 30.4369918699187,53.2520325203252 30.48780487804878,53.8109756097561 30.589430894308943,54.31910569105691 30.691056910569106,54.827235772357724 30.79268292682927,55.386178861788615 30.89430894308943,55.94512195121951 31.046747967479675,56.40243902439024 31.148373983739837,56.96138211382114 31.30081300813008,57.46951219512195 31.453252032520325,57.97764227642276 31.60569105691057,58.43495934959349 31.808943089430894,58.94308943089431 32.012195121951216,59.451219512195124 32.21544715447154,60.010162601626014 32.46951219512195,60.56910569105691 32.672764227642276,61.077235772357724 32.926829268292686,61.6869918699187 33.18089430894309,62.24593495934959 33.38414634146341,62.703252032520325 33.63821138211382,63.109756097560975 33.892276422764226,63.516260162601625 34.146341463414636,63.922764227642276 34.40040650406504,64.32926829268293 34.70528455284553,64.78658536585365 34.959349593495936,65.14227642276423 35.264227642276424,65.4979674796748 35.51829268292683,65.85365853658537" fill="none" stroke="black" stroke-width="0.6"></polyline><polyline points="35.51829268292683,65.85365853658537 35.8739837398374,66.20934959349593 36.17886178861789,66.51422764227642 36.483739837398375,66.8191056910569 36.83943089430894,67.07317073170732 37.19512195121951,67.3780487804878 37.55081300813008,67.6321138211382 37.90650406504065,67.88617886178862 38.3130081300813,68.14024390243902 38.668699186991866,68.39430894308943 39.02439024390244,68.64837398373983 39.38008130081301,68.85162601626016 39.735772357723576,69.0040650406504 40.040650406504064,69.20731707317073 40.396341463414636,69.35975609756098 40.7520325203252,69.51219512195122 41.107723577235774,69.66463414634146 41.46341463414634,69.8170731707317 41.81910569105691,69.96951219512195 42.17479674796748,70.1219512195122 42.58130081300813,70.27439024390243 42.98780487804878,70.42682926829268 43.34349593495935,70.57926829268293 43.80081300813008,70.68089430894308 44.20731707317073,70.78252032520325 44.66463414634146,70.8841463414634 45.172764227642276,70.98577235772358 45.579268292682926,71.03658536585365 45.985772357723576,71.08739837398373 46.49390243902439,71.13821138211382 46.90040650406504,71.13821138211382 47.30691056910569,71.13821138211382 47.764227642276424,71.1890243902439 48.170731707317074,71.1890243902439 48.577235772357724,71.23983739837398 49.03455284552845,71.23983739837398 49.4410569105691,71.29065040650406 49.89837398373984,71.29065040650406 50.15243902439024,71.29065040650406 50.355691056910565,71.29065040650406 50.71138211382114,71.23983739837398 51.11788617886179,71.1890243902439 51.575203252032516,71.13821138211382 51.981707317073166,71.03658536585365 52.38821138211382,70.8841463414634 52.84552845528455,70.78252032520325 53.201219512195124,70.630081300813 53.55691056910569,70.47764227642276 53.91260162601626,70.27439024390243 54.26829268292683,70.1219512195122 54.573170731707314,69.96951219512195" fill="none" stroke="black" stroke-width="0.6"></polyline><polyline points="54.573170731707314,69.96951219512195 54.8780487804878,69.76626016260163 55.13211382113821,69.61382113821138 55.4369918699187,69.46138211382113 55.58943089430894,69.35975609756098 55.74186991869919,69.2581300813008 55.99593495934959,69.05487804878048 56.25,68.90243902439025 56.55487804878049,68.64837398373983 56.80894308943089,68.39430894308943 57.11382113821138,68.08943089430895 57.52032520325203,67.73373983739837 57.825203252032516,67.3780487804878 58.231707317073166,67.02235772357723 58.58739837398374,66.66666666666667 58.84146341463415,66.41260162601625 59.09552845528455,66.15853658536585 59.40040650406504,65.85365853658537 59.65447154471545,65.54878048780488 59.90853658536585,65.14227642276423 60.16260162601626,64.78658536585365 60.46747967479675,64.380081300813 60.77235772357724,63.97357723577235 61.02642276422764,63.5670731707317 61.33130081300813,63.16056910569105 61.636178861788615,62.703252032520325 61.9410569105691,62.296747967479675 62.19512195121951,61.890243902439025 62.449186991869915,61.53455284552845 62.65243902439024,61.17886178861789 62.855691056910565,60.77235772357724 63.05894308943089,60.36585365853659 63.262195121951216,59.959349593495936 63.46544715447154,59.552845528455286 63.668699186991866,59.04471544715447 63.87195121951219,58.63821138211382 64.1260162601626,58.130081300813 64.32926829268293,57.672764227642276 64.53252032520325,57.21544715447154 64.6849593495935,56.70731707317073 64.88821138211382,56.199186991869915 65.04065040650406,55.74186991869919 65.1930894308943,55.233739837398375 65.34552845528455,54.67479674796748 65.44715447154472,54.21747967479675 65.54878048780488,53.709349593495936 65.65040650406505,53.15040650406504 65.7520325203252,52.69308943089431 65.85365853658537,52.13414634146341 65.95528455284553,51.575203252032516 66.0060975609756,51.016260162601625" fill="none" stroke="black" stroke-width="0.6"></polyline><polyline points="66.0060975609756,51.016260162601625 66.10772357723577,50.45731707317073 66.20934959349593,49.84756097560975 66.26016260162602,49.33943089430894 66.3109756097561,48.78048780487805 66.41260162601625,48.22154471544715 66.46341463414635,47.66260162601626 66.51422764227642,47.052845528455286 66.51422764227642,46.49390243902439 66.5650406504065,45.985772357723576 66.5650406504065,45.42682926829268 66.5650406504065,44.86788617886179 66.61585365853658,44.359756097560975 66.61585365853658,43.80081300813008 66.66666666666667,43.1910569105691 66.66666666666667,42.68292682926829 66.66666666666667,42.17479674796748 66.66666666666667,41.666666666666664 66.66666666666667,41.260162601626014 66.5650406504065,40.802845528455286 66.46341463414635,40.34552845528455 66.41260162601625,39.88821138211382 66.3109756097561,39.38008130081301 66.15853658536585,38.87195121951219 66.0569105691057,38.41463414634146 65.95528455284553,37.95731707317073 65.85365853658537,37.5 65.7520325203252,37.042682926829265 65.59959349593495,36.58536585365854 65.44715447154472,36.17886178861789 65.34552845528455,35.72154471544715 65.1930894308943,35.3150406504065 64.98983739837398,34.857723577235774 64.83739837398373,34.451219512195124 64.6849593495935,34.09552845528455 64.48170731707317,33.6890243902439 64.27845528455285,33.28252032520325 64.07520325203252,32.8760162601626 63.82113821138211,32.46951219512195 63.61788617886179,32.11382113821138 63.36382113821138,31.70731707317073 63.109756097560975,31.402439024390244 62.855691056910565,31.046747967479675 62.55081300813008,30.640243902439025 62.24593495934959,30.335365853658537 61.9410569105691,29.979674796747968 61.58536585365854,29.67479674796748 61.28048780487805,29.31910569105691 60.92479674796748,29.01422764227642 60.46747967479675,28.60772357723577 60.11178861788618,28.302845528455283" fill="none" stroke="black" stroke-width="0.6"></polyline><polyline points="60.11178861788618,28.302845528455283 59.65447154471545,27.997967479674795 59.146341463414636,27.642276422764226 58.6890243902439,27.38821138211382 58.231707317073166,27.083333333333332 57.672764227642276,26.778455284552845 57.16463414634146,26.524390243902438 56.605691056910565,26.321138211382113 56.046747967479675,26.117886178861788 55.48780487804878,25.965447154471544 54.8780487804878,25.8130081300813 54.26829268292683,25.660569105691057 53.709349593495936,25.558943089430894 53.201219512195124,25.40650406504065 52.642276422764226,25.304878048780488 52.13414634146341,25.203252032520325 51.575203252032516,25.152439024390244 50.96544715447154,25.05081300813008 50.355691056910565,25 49.796747967479675,24.94918699186992 49.1869918699187,24.94918699186992 48.6280487804878,24.94918699186992 48.06910569105691,24.94918699186992 47.510162601626014,24.94918699186992 46.951219512195124,24.898373983739837 46.44308943089431,24.898373983739837 45.88414634146341,24.898373983739837 45.325203252032516,24.94918699186992 44.766260162601625,25 44.20731707317073,25.101626016260163 43.64837398373984,25.203252032520325 43.08943089430894,25.304878048780488 42.42886178861789,25.45731707317073 41.81910569105691,25.609756097560975 41.209349593495936,25.8130081300813 40.4979674796748,26.016260162601625 39.88821138211382,26.270325203252032 39.27845528455285,26.524390243902438 38.668699186991866,26.778455284552845 38.00813008130081,27.083333333333332 37.65243902439024,27.235772357723576 36.53455284552845,27.79471544715447 36.1280487804878,27.997967479674795 35.77235772357724,28.20121951219512 35.010162601626014,28.60772357723577 34.298780487804876,29.01422764227642 33.63821138211382,29.471544715447155 32.926829268292686,29.979674796747968 32.11382113821138,30.48780487804878 31.30081300813008,31.097560975609756 30.538617886178862,31.70731707317073" fill="none" stroke="black" stroke-width="0.6"></polyline><polyline points="30.538617886178862,31.70731707317073 29.827235772357724,32.3170731707317 29.166666666666664,32.8760162601626 28.455284552845526,33.53658536585366 27.84552845528455,34.146341463414636 27.235772357723576,34.75609756097561 26.676829268292682,35.36585365853659 26.117886178861788,36.077235772357724 25.558943089430894,36.6869918699187 25.05081300813008,37.34756097560975 24.59349593495935,38.05894308943089 24.085365853658537,38.82113821138211 23.678861788617887,39.48170731707317 23.323170731707318,40.19308943089431 22.96747967479675,40.90447154471545 22.662601626016258,41.5650406504065 22.459349593495933,42.17479674796748 22.256097560975608,42.83536585365854 22.052845528455283,43.546747967479675 21.849593495934958,44.25813008130081 21.697154471544714,45.02032520325203 21.54471544715447,45.88414634146341 21.392276422764226,46.697154471544714 21.290650406504064,47.510162601626014 21.239837398373982,48.323170731707314 21.1890243902439,49.08536585365854 21.1890243902439,49.949186991869915 21.1890243902439,50.91463414634146 21.1890243902439,51.829268292682926 21.1890243902439,52.79471544715447 21.1890243902439,53.86178861788618 21.239837398373982,54.827235772357724 21.341463414634145,55.84349593495935 21.49390243902439,56.859756097560975 21.646341463414632,57.672764227642276 21.798780487804876,58.536585365853654 22.052845528455283,59.34959349593496 22.30691056910569,60.16260162601626 22.560975609756095,60.92479674796748 22.916666666666668,61.78861788617886 23.221544715447155,62.55081300813008 23.577235772357724,63.3130081300813 23.983739837398375,64.1260162601626 24.339430894308943,64.9390243902439 24.745934959349594,65.70121951219512 25.203252032520325,66.46341463414635 25.609756097560975,67.17479674796748 26.067073170731707,67.9369918699187 26.524390243902438,68.64837398373983 26.98170731707317,69.41056910569105 27.4390243902439,70.0711382113821" fill="none" stroke="black" stroke-width="0.6"></polyline><polyline points="27.4390243902439,70.0711382113821 27.947154471544714,70.68089430894308 28.455284552845526,71.29065040650406 28.96341463414634,71.84959349593495 29.522357723577237,72.40853658536585 30.08130081300813,72.91666666666667 30.640243902439025,73.3739837398374 31.19918699186992,73.83130081300813 31.808943089430894,74.28861788617886 32.418699186991866,74.64430894308943 33.02845528455285,75.05081300813008 33.58739837398374,75.40650406504065 34.2479674796748,75.76219512195122 34.857723577235774,76.0670731707317 35.416666666666664,76.3211382113821 36.02642276422764,76.6260162601626 36.6869918699187,76.93089430894308 37.296747967479675,77.1849593495935 37.90650406504065,77.4390243902439 38.5670731707317,77.6930894308943 39.176829268292686,77.89634146341463 39.78658536585366,78.09959349593495 40.396341463414636,78.2520325203252 41.05691056910569,78.45528455284553 41.666666666666664,78.60772357723577 42.327235772357724,78.70934959349593 42.98780487804878,78.86178861788618 43.64837398373984,79.01422764227642 44.25813008130081,79.11585365853658 44.918699186991866,79.16666666666667 45.63008130081301,79.21747967479675 46.239837398373986,79.21747967479675 46.90040650406504,79.26829268292683 47.61178861788618,79.26829268292683 48.22154471544715,79.21747967479675 48.83130081300813,79.16666666666667 49.59349593495935,79.0650406504065 50.203252032520325,78.96341463414635 50.86382113821138,78.8109756097561 51.575203252032516,78.60772357723577 52.235772357723576,78.45528455284553 52.896341463414636,78.20121951219512 53.607723577235774,77.9471544715447 54.26829268292683,77.64227642276423 54.979674796747965,77.28658536585365 55.6910569105691,76.93089430894308 56.30081300813008,76.57520325203252 56.96138211382114,76.16869918699187 57.72357723577235,75.71138211382113 58.28252032520325,75.35569105691057 58.94308943089431,75" fill="none" stroke="black" stroke-width="0.6"></polyline><polyline points="58.94308943089431,75 59.552845528455286,74.64430894308943 60.16260162601626,74.28861788617886 60.72154471544715,73.9329268292683 61.33130081300813,73.57723577235772 61.83943089430894,73.22154471544715 62.34756097560975,72.8150406504065 62.90650406504065,72.35772357723577 63.41463414634146,71.95121951219512 63.87195121951219,71.54471544715447 64.380081300813,71.13821138211382 64.78658536585365,70.78252032520325 65.14227642276423,70.3760162601626 65.54878048780488,69.91869918699187 66.0060975609756,69.35975609756098 66.41260162601625,68.85162601626016 66.8191056910569,68.34349593495935 67.17479674796748,67.88617886178862 67.53048780487805,67.3780487804878 67.9369918699187,66.92073170731707 68.24186991869918,66.41260162601625 68.64837398373983,65.85365853658537 69.0040650406504,65.29471544715447 69.35975609756098,64.78658536585365 69.66463414634146,64.27845528455285 69.96951219512195,63.71951219512195 70.32520325203252,63.109756097560975 70.68089430894308,62.5 71.03658536585365,61.83943089430894 71.4430894308943,61.17886178861789 71.79878048780488,60.51829268292683 72.15447154471545,59.90853658536585 72.51016260162602,59.298780487804876 72.86585365853658,58.6890243902439 73.17073170731707,58.18089430894309 73.42479674796748,57.672764227642276 73.72967479674797,57.0630081300813 73.98373983739837,56.5040650406504 74.23780487804878,55.99593495934959 74.49186991869918,55.4369918699187 74.6951219512195,54.8780487804878 74.89837398373983,54.420731707317074 75.10162601626016,53.96341463414634 75.2540650406504,53.55691056910569 75.35569105691057,53.201219512195124 75.45731707317073,52.79471544715447 75.5589430894309,52.489837398373986 75.66056910569105,52.1849593495935 75.71138211382113,51.880081300813 75.76219512195122,51.67682926829268 75.8130081300813,51.47357723577235" fill="none" stroke="black" stroke-width="0.6"></polyline><polyline points="75.8130081300813,51.47357723577235 75.8130081300813,51.27032520325203 75.8130081300813,51.11788617886179 75.86382113821138,51.016260162601625 75.86382113821138,50.86382113821138 75.86382113821138,50.762195121951216 75.86382113821138,50.71138211382114 75.86382113821138,50.609756097560975 75.86382113821138,50.55894308943089 75.8130081300813,50.50813008130081 75.8130081300813,50.45731707317073 75.8130081300813,50.45731707317073 75.8130081300813,50.45731707317073 75.8130081300813,50.45731707317073 75.8130081300813,50.45731707317073 75.8130081300813,50.45731707317073 75.8130081300813,50.45731707317073 75.96544715447155,50.45731707317073 76.0670731707317,50.45731707317073" fill="none" stroke="black" stroke-width="0.6"></polyline></svg>