<svg height="100" width="100" preserveAspectRatio="xMidYMid meet"><polyline points="49.69512195121951,50.55894308943089 49.69512195121951,50.50813008130081 49.64430894308943,50.50813008130081 49.64430894308943,50.45731707317073 49.64430894308943,50.45731707317073 49.59349593495935,50.40650406504065 49.59349593495935,50.40650406504065 49.59349593495935,50.40650406504065 49.59349593495935,50.40650406504065 49.59349593495935,50.40650406504065 49.59349593495935,50.40650406504065 49.59349593495935,50.40650406504065 49.59349593495935,50.40650406504065 49.59349593495935,50.40650406504065 49.59349593495935,50.40650406504065 49.64430894308943,50.40650406504065 49.64430894308943,50.40650406504065 49.69512195121951,50.40650406504065 49.69512195121951,50.40650406504065 49.69512195121951,50.40650406504065 49.74593495934959,50.40650406504065 49.74593495934959,50.40650406504065 49.74593495934959,50.355691056910565 49.74593495934959,50.355691056910565 49.796747967479675,50.355691056910565 49.796747967479675,50.355691056910565 49.796747967479675,50.30487804878049 49.796747967479675,50.30487804878049 49.796747967479675,50.30487804878049 49.84756097560975,50.2540650406504 49.84756097560975,50.203252032520325 49.84756097560975,50.15243902439024 49.89837398373984,50.05081300813008 49.89837398373984,50 49.949186991869915,49.89837398373984 50,49.796747967479675 50.05081300813008,49.64430894308943 50.10162601626016,49.542682926829265 50.15243902439024,49.390243902439025 50.15243902439024,49.28861788617886 50.203252032520325,49.1869918699187 50.203252032520325,49.03455284552845 50.2540650406504,48.93292682926829 50.2540650406504,48.78048780487805 50.2540650406504,48.67886178861789 50.2540650406504,48.577235772357724 50.2540650406504,48.52642276422764 50.2540650406504,48.42479674796748 50.2540650406504,48.323170731707314 50.2540650406504,48.27235772357724 50.2540650406504,48.22154471544715" fill="none" stroke="black" stroke-width="0.6"></polyline><polyline points="50.2540650406504,48.22154471544715 50.2540650406504,48.11991869918699 50.203252032520325,48.06910569105691 50.203252032520325,48.01829268292683 50.15243902439024,47.96747967479675 50.10162601626016,47.86585365853659 50,47.8150406504065 49.949186991869915,47.764227642276424 49.84756097560975,47.71341463414634 49.796747967479675,47.66260162601626 49.69512195121951,47.61178861788618 49.59349593495935,47.61178861788618 49.49186991869919,47.61178861788618 49.4410569105691,47.61178861788618 49.33943089430894,47.61178861788618 49.23780487804878,47.61178861788618 49.136178861788615,47.61178861788618 49.03455284552845,47.61178861788618 48.93292682926829,47.61178861788618 48.88211382113821,47.66260162601626 48.78048780487805,47.66260162601626 48.67886178861789,47.71341463414634 48.6280487804878,47.764227642276424 48.47560975609756,47.8150406504065 48.42479674796748,47.8150406504065 48.323170731707314,47.86585365853659 48.22154471544715,47.916666666666664 48.170731707317074,47.96747967479675 48.06910569105691,47.96747967479675 48.01829268292683,48.01829268292683 47.96747967479675,48.06910569105691 47.916666666666664,48.11991869918699 47.86585365853659,48.170731707317074 47.8150406504065,48.22154471544715 47.764227642276424,48.323170731707314 47.66260162601626,48.47560975609756 47.61178861788618,48.577235772357724 47.510162601626014,48.67886178861789 47.459349593495936,48.83130081300813 47.357723577235774,48.93292682926829 47.30691056910569,49.08536585365854 47.20528455284553,49.1869918699187 47.103658536585364,49.28861788617886 47.0020325203252,49.390243902439025 46.951219512195124,49.49186991869919 46.84959349593496,49.59349593495935 46.798780487804876,49.64430894308943 46.7479674796748,49.74593495934959 46.697154471544714,49.84756097560975 46.697154471544714,49.89837398373984 46.646341463414636,50" fill="none" stroke="black" stroke-width="0.6"></polyline><polyline points="46.646341463414636,50 46.646341463414636,50.10162601626016 46.646341463414636,50.203252032520325 46.59552845528455,50.30487804878049 46.59552845528455,50.40650406504065 46.59552845528455,50.50813008130081 46.59552845528455,50.609756097560975 46.59552845528455,50.71138211382114 46.59552845528455,50.86382113821138 46.59552845528455,50.96544715447154 46.59552845528455,51.0670731707317 46.646341463414636,51.168699186991866 46.646341463414636,51.27032520325203 46.697154471544714,51.37195121951219 46.697154471544714,51.47357723577235 46.7479674796748,51.575203252032516 46.7479674796748,51.67682926829268 46.798780487804876,51.77845528455284 46.798780487804876,51.880081300813 46.84959349593496,51.93089430894309 46.90040650406504,52.03252032520325 46.951219512195124,52.13414634146341 46.951219512195124,52.235772357723576 47.052845528455286,52.33739837398374 47.103658536585364,52.4390243902439 47.15447154471545,52.489837398373986 47.20528455284553,52.59146341463415 47.25609756097561,52.642276422764226 47.357723577235774,52.74390243902439 47.40853658536585,52.79471544715447 47.40853658536585,52.84552845528455 47.459349593495936,52.896341463414636 47.510162601626014,52.9979674796748 47.510162601626014,53.048780487804876 47.5609756097561,53.09959349593496 47.5609756097561,53.15040650406504 47.61178861788618,53.201219512195124 47.61178861788618,53.302845528455286 47.66260162601626,53.353658536585364 47.66260162601626,53.40447154471545 47.71341463414634,53.45528455284553 47.764227642276424,53.50609756097561 47.764227642276424,53.55691056910569 47.8150406504065,53.607723577235774 47.86585365853659,53.709349593495936 47.916666666666664,53.760162601626014 47.96747967479675,53.8109756097561 48.01829268292683,53.86178861788618 48.06910569105691,53.91260162601626 48.11991869918699,53.96341463414634 48.170731707317074,54.014227642276424" fill="none" stroke="black" stroke-width="0.6"></polyline><polyline points="48.170731707317074,54.014227642276424 48.22154471544715,54.0650406504065 48.27235772357724,54.11585365853659 48.3739837398374,54.166666666666664 48.3739837398374,54.21747967479675 48.42479674796748,54.26829268292683 48.47560975609756,54.31910569105691 48.52642276422764,54.36991869918699 48.577235772357724,54.36991869918699 48.6280487804878,54.420731707317074 48.67886178861789,54.47154471544715 48.729674796747965,54.52235772357724 48.78048780487805,54.573170731707314 48.83130081300813,54.6239837398374 48.93292682926829,54.6239837398374 48.983739837398375,54.67479674796748 49.08536585365854,54.72560975609756 49.1869918699187,54.77642276422764 49.28861788617886,54.827235772357724 49.390243902439025,54.827235772357724 49.49186991869919,54.8780487804878 49.64430894308943,54.8780487804878 49.74593495934959,54.92886178861789 49.89837398373984,54.92886178861789 50.05081300813008,54.92886178861789 50.203252032520325,54.92886178861789 50.2540650406504,54.92886178861789 50.355691056910565,54.92886178861789 50.50813008130081,54.92886178861789 50.66056910569105,54.92886178861789 50.8130081300813,54.92886178861789 50.96544715447154,54.92886178861789 51.11788617886179,54.92886178861789 51.32113821138211,54.92886178861789 51.47357723577235,54.8780487804878 51.6260162601626,54.8780487804878 51.77845528455284,54.8780487804878 51.981707317073166,54.827235772357724 52.1849593495935,54.77642276422764 52.4390243902439,54.72560975609756 52.69308943089431,54.6239837398374 52.947154471544714,54.573170731707314 53.201219512195124,54.47154471544715 53.50609756097561,54.31910569105691 53.709349593495936,54.21747967479675 53.96341463414634,54.11585365853659 54.21747967479675,53.96341463414634 54.420731707317074,53.86178861788618 54.6239837398374,53.709349593495936 54.8780487804878,53.55691056910569 55.13211382113821,53.40447154471545" fill="none" stroke="black" stroke-width="0.6"></polyline><polyline points="55.13211382113821,53.40447154471545 55.386178861788615,53.201219512195124 55.640243902439025,52.9979674796748 55.84349593495935,52.79471544715447 56.046747967479675,52.59146341463415 56.25,52.4390243902439 56.35162601626016,52.235772357723576 56.5040650406504,52.03252032520325 56.605691056910565,51.880081300813 56.70731707317073,51.67682926829268 56.80894308943089,51.47357723577235 56.80894308943089,51.32113821138211 56.859756097560975,51.11788617886179 56.859756097560975,50.91463414634146 56.859756097560975,50.71138211382114 56.859756097560975,50.55894308943089 56.80894308943089,50.355691056910565 56.70731707317073,50.203252032520325 56.70731707317073,50.05081300813008 56.605691056910565,49.84756097560975 56.55487804878049,49.69512195121951 56.5040650406504,49.542682926829265 56.453252032520325,49.390243902439025 56.40243902439024,49.23780487804878 56.35162601626016,49.136178861788615 56.25,48.93292682926829 56.199186991869915,48.83130081300813 56.14837398373984,48.67886178861789 56.046747967479675,48.47560975609756 55.99593495934959,48.323170731707314 55.94512195121951,48.170731707317074 55.89430894308943,47.96747967479675 55.792682926829265,47.8150406504065 55.74186991869919,47.66260162601626 55.6910569105691,47.510162601626014 55.58943089430894,47.357723577235774 55.48780487804878,47.15447154471545 55.386178861788615,47.0020325203252 55.33536585365854,46.798780487804876 55.233739837398375,46.646341463414636 55.13211382113821,46.392276422764226 55.03048780487805,46.1890243902439 54.92886178861789,45.985772357723576 54.827235772357724,45.78252032520325 54.72560975609756,45.579268292682926 54.6239837398374,45.42682926829268 54.52235772357724,45.22357723577235 54.420731707317074,45.07113821138211 54.26829268292683,44.918699186991866 54.166666666666664,44.766260162601625 54.0650406504065,44.61382113821138" fill="none" stroke="black" stroke-width="0.6"></polyline><polyline points="54.0650406504065,44.61382113821138 53.91260162601626,44.46138211382114 53.760162601626014,44.30894308943089 53.65853658536585,44.105691056910565 53.50609756097561,43.953252032520325 53.40447154471545,43.80081300813008 53.302845528455286,43.64837398373984 53.15040650406504,43.49593495934959 53.048780487804876,43.34349593495935 52.947154471544714,43.24186991869919 52.84552845528455,43.08943089430894 52.74390243902439,42.98780487804878 52.642276422764226,42.83536585365854 52.540650406504064,42.733739837398375 52.4390243902439,42.58130081300813 52.33739837398374,42.479674796747965 52.28658536585366,42.3780487804878 52.1849593495935,42.22560975609756 52.083333333333336,42.1239837398374 51.93089430894309,41.97154471544715 51.829268292682926,41.81910569105691 51.72764227642276,41.71747967479675 51.575203252032516,41.61585365853659 51.422764227642276,41.514227642276424 51.32113821138211,41.41260162601626 51.168699186991866,41.36178861788618 51.016260162601625,41.260162601626014 50.8130081300813,41.209349593495936 50.55894308943089,41.15853658536585 50.355691056910565,41.107723577235774 50.10162601626016,41.05691056910569 49.796747967479675,41.00609756097561 49.49186991869919,40.95528455284553 49.1869918699187,40.95528455284553 48.83130081300813,40.90447154471545 48.52642276422764,40.90447154471545 48.170731707317074,40.90447154471545 47.86585365853659,40.90447154471545 47.61178861788618,40.90447154471545 47.357723577235774,40.90447154471545 47.052845528455286,40.90447154471545 46.7479674796748,40.90447154471545 46.44308943089431,41.00609756097561 46.08739837398374,41.05691056910569 45.78252032520325,41.15853658536585 45.47764227642276,41.209349593495936 45.172764227642276,41.36178861788618 44.86788617886179,41.46341463414634 44.61382113821138,41.5650406504065 44.25813008130081,41.71747967479675 43.953252032520325,41.86991869918699" fill="none" stroke="black" stroke-width="0.6"></polyline><polyline points="43.953252032520325,41.86991869918699 43.699186991869915,42.02235772357724 43.44512195121951,42.22560975609756 43.24186991869919,42.3780487804878 42.98780487804878,42.53048780487805 42.733739837398375,42.733739837398375 42.479674796747965,42.9369918699187 42.27642276422764,43.08943089430894 42.1239837398374,43.24186991869919 41.97154471544715,43.39430894308943 41.76829268292683,43.59756097560975 41.5650406504065,43.85162601626016 41.41260162601626,44.105691056910565 41.3109756097561,44.41056910569105 41.209349593495936,44.71544715447154 41.05691056910569,44.96951219512195 40.95528455284553,45.22357723577235 40.853658536585364,45.47764227642276 40.7520325203252,45.73170731707317 40.701219512195124,45.9349593495935 40.59959349593496,46.13821138211382 40.548780487804876,46.392276422764226 40.447154471544714,46.646341463414636 40.396341463414636,46.90040650406504 40.34552845528455,47.15447154471545 40.29471544715447,47.357723577235774 40.24390243902439,47.5609756097561 40.19308943089431,47.764227642276424 40.19308943089431,47.916666666666664 40.142276422764226,48.06910569105691 40.142276422764226,48.22154471544715 40.142276422764226,48.42479674796748 40.142276422764226,48.6280487804878 40.142276422764226,48.78048780487805 40.142276422764226,48.983739837398375 40.142276422764226,49.1869918699187 40.142276422764226,49.33943089430894 40.142276422764226,49.59349593495935 40.142276422764226,49.74593495934959 40.142276422764226,49.949186991869915 40.142276422764226,50.10162601626016 40.142276422764226,50.30487804878049 40.142276422764226,50.50813008130081 40.142276422764226,50.71138211382114 40.142276422764226,50.91463414634146 40.142276422764226,51.11788617886179 40.142276422764226,51.37195121951219 40.142276422764226,51.575203252032516 40.142276422764226,51.829268292682926 40.19308943089431,52.083333333333336 40.19308943089431,52.28658536585366" fill="none" stroke="black" stroke-width="0.6"></polyline><polyline points="40.19308943089431,52.28658536585366 40.19308943089431,52.540650406504064 40.19308943089431,52.79471544715447 40.19308943089431,53.09959349593496 40.19308943089431,53.353658536585364 40.19308943089431,53.65853658536585 40.19308943089431,53.91260162601626 40.19308943089431,54.11585365853659 40.24390243902439,54.36991869918699 40.29471544715447,54.573170731707314 40.29471544715447,54.827235772357724 40.34552845528455,55.08130081300813 40.34552845528455,55.33536585365854 40.396341463414636,55.58943089430894 40.447154471544714,55.84349593495935 40.447154471544714,56.046747967479675 40.4979674796748,56.25 40.548780487804876,56.453252032520325 40.59959349593496,56.605691056910565 40.65040650406504,56.75813008130081 40.701219512195124,56.96138211382114 40.7520325203252,57.11382113821138 40.853658536585364,57.3170731707317 40.95528455284553,57.52032520325203 41.05691056910569,57.672764227642276 41.209349593495936,57.8760162601626 41.36178861788618,58.079268292682926 41.46341463414634,58.18089430894309 41.61585365853659,58.28252032520325 41.71747967479675,58.38414634146341 41.81910569105691,58.485772357723576 41.920731707317074,58.536585365853654 42.02235772357724,58.58739837398374 42.1239837398374,58.6890243902439 42.22560975609756,58.739837398373986 42.3780487804878,58.84146341463415 42.53048780487805,58.94308943089431 42.63211382113821,59.04471544715447 42.78455284552845,59.146341463414636 42.886178861788615,59.197154471544714 43.03861788617886,59.298780487804876 43.1910569105691,59.40040650406504 43.34349593495935,59.451219512195124 43.49593495934959,59.552845528455286 43.64837398373984,59.70528455284553 43.80081300813008,59.80691056910569 43.953252032520325,59.90853658536585 44.15650406504065,60.010162601626014 44.30894308943089,60.11178861788618 44.5630081300813,60.264227642276424 44.8170731707317,60.416666666666664" fill="none" stroke="black" stroke-width="0.6"></polyline><polyline points="44.8170731707317,60.416666666666664 45.12195121951219,60.51829268292683 45.3760162601626,60.61991869918699 45.68089430894309,60.72154471544715 45.9349593495935,60.823170731707314 46.239837398373986,60.8739837398374 46.54471544715447,60.92479674796748 46.798780487804876,60.97560975609756 47.052845528455286,61.02642276422764 47.30691056910569,61.02642276422764 47.61178861788618,61.077235772357724 47.916666666666664,61.077235772357724 48.170731707317074,61.077235772357724 48.47560975609756,61.02642276422764 48.67886178861789,61.02642276422764 48.83130081300813,61.02642276422764 49.08536585365854,60.97560975609756 49.33943089430894,60.97560975609756 49.59349593495935,60.92479674796748 49.84756097560975,60.92479674796748 49.949186991869915,60.92479674796748 50.10162601626016,60.92479674796748 50.40650406504065,60.8739837398374 50.66056910569105,60.823170731707314 50.91463414634146,60.823170731707314 51.11788617886179,60.823170731707314 51.32113821138211,60.823170731707314 51.52439024390244,60.823170731707314 51.72764227642276,60.77235772357724 51.93089430894309,60.77235772357724 52.13414634146341,60.77235772357724 52.28658536585366,60.72154471544715 52.38821138211382,60.72154471544715 52.540650406504064,60.72154471544715 52.69308943089431,60.72154471544715 52.84552845528455,60.72154471544715 52.9979674796748,60.670731707317074 53.201219512195124,60.670731707317074 53.40447154471545,60.61991869918699 53.607723577235774,60.61991869918699 53.86178861788618,60.56910569105691 54.0650406504065,60.56910569105691 54.31910569105691,60.51829268292683 54.52235772357724,60.46747967479675 54.77642276422764,60.416666666666664 55.03048780487805,60.36585365853659 55.28455284552845,60.3150406504065 55.53861788617886,60.264227642276424 55.792682926829265,60.16260162601626 56.09756097560975,60.11178861788618 56.453252032520325,60.010162601626014" fill="none" stroke="black" stroke-width="0.6"></polyline><polyline points="56.453252032520325,60.010162601626014 56.80894308943089,59.857723577235774 57.11382113821138,59.70528455284553 57.418699186991866,59.603658536585364 57.62195121951219,59.5020325203252 57.8760162601626,59.34959349593496 58.079268292682926,59.2479674796748 58.231707317073166,59.146341463414636 58.485772357723576,58.99390243902439 58.6890243902439,58.84146341463415 58.892276422764226,58.63821138211382 59.146341463414636,58.43495934959349 59.34959349593496,58.231707317073166 59.552845528455286,57.97764227642276 59.75609756097561,57.72357723577235 59.90853658536585,57.46951219512195 60.11178861788618,57.16463414634146 60.264227642276424,56.80894308943089 60.46747967479675,56.453252032520325 60.670731707317074,56.09756097560975 60.8739837398374,55.6910569105691 61.02642276422764,55.386178861788615 61.1280487804878,55.03048780487805 61.229674796747965,54.67479674796748 61.33130081300813,54.36991869918699 61.38211382113821,54.0650406504065 61.43292682926829,53.760162601626014 61.53455284552845,53.40447154471545 61.58536585365854,53.048780487804876 61.6869918699187,52.69308943089431 61.73780487804878,52.33739837398374 61.78861788617886,51.93089430894309 61.83943089430894,51.67682926829268 61.890243902439025,51.37195121951219 61.9410569105691,51.0670731707317 61.9410569105691,50.762195121951216 61.9410569105691,50.40650406504065 61.99186991869919,50.05081300813008 62.042682926829265,49.74593495934959 62.042682926829265,49.49186991869919 62.09349593495935,49.1869918699187 62.09349593495935,48.93292682926829 62.09349593495935,48.67886178861789 62.09349593495935,48.3739837398374 62.09349593495935,48.11991869918699 62.09349593495935,47.86585365853659 62.09349593495935,47.61178861788618 62.09349593495935,47.357723577235774 62.09349593495935,47.15447154471545 62.09349593495935,46.90040650406504 62.09349593495935,46.646341463414636" fill="none" stroke="black" stroke-width="0.6"></polyline><polyline points="62.09349593495935,46.646341463414636 62.09349593495935,46.392276422764226 62.09349593495935,46.13821138211382 62.042682926829265,45.88414634146341 62.042682926829265,45.63008130081301 62.042682926829265,45.3760162601626 61.99186991869919,45.12195121951219 61.99186991869919,44.86788617886179 61.9410569105691,44.66463414634146 61.9410569105691,44.41056910569105 61.890243902439025,44.20731707317073 61.83943089430894,43.953252032520325 61.78861788617886,43.75 61.73780487804878,43.546747967479675 61.636178861788615,43.292682926829265 61.58536585365854,43.08943089430894 61.53455284552845,42.9369918699187 61.43292682926829,42.68292682926829 61.38211382113821,42.479674796747965 61.33130081300813,42.27642276422764 61.229674796747965,42.02235772357724 61.17886178861789,41.81910569105691 61.077235772357724,41.61585365853659 60.97560975609756,41.41260162601626 60.92479674796748,41.209349593495936 60.823170731707314,41.05691056910569 60.670731707317074,40.853658536585364 60.51829268292683,40.65040650406504 60.36585365853659,40.447154471544714 60.16260162601626,40.24390243902439 59.90853658536585,39.989837398373986 59.603658536585364,39.78658536585366 59.34959349593496,39.53252032520325 59.09552845528455,39.329268292682926 58.892276422764226,39.1260162601626 58.63821138211382,38.922764227642276 58.43495934959349,38.71951219512195 58.130081300813,38.5670731707317 57.8760162601626,38.36382113821138 57.57113821138211,38.21138211382114 57.266260162601625,38.00813008130081 56.91056910569105,37.855691056910565 56.605691056910565,37.703252032520325 56.199186991869915,37.55081300813008 55.792682926829265,37.39837398373984 55.4369918699187,37.296747967479675 55.03048780487805,37.14430894308943 54.72560975609756,36.99186991869919 54.36991869918699,36.890243902439025 54.0650406504065,36.73780487804878 53.8109756097561,36.636178861788615" fill="none" stroke="black" stroke-width="0.6"></polyline><polyline points="53.8109756097561,36.636178861788615 53.50609756097561,36.53455284552845 53.201219512195124,36.43292682926829 52.947154471544714,36.33130081300813 52.642276422764226,36.229674796747965 52.33739837398374,36.1280487804878 52.03252032520325,36.077235772357724 51.72764227642276,35.97560975609756 51.422764227642276,35.92479674796748 51.21951219512195,35.823170731707314 50.91463414634146,35.77235772357724 50.66056910569105,35.72154471544715 50.45731707317073,35.670731707317074 50.203252032520325,35.61991869918699 49.89837398373984,35.56910569105691 49.69512195121951,35.51829268292683 49.390243902439025,35.46747967479675 49.08536585365854,35.416666666666664 48.78048780487805,35.416666666666664 48.52642276422764,35.36585365853659 48.27235772357724,35.36585365853659 48.01829268292683,35.3150406504065 47.8150406504065,35.3150406504065 47.510162601626014,35.264227642276424 47.20528455284553,35.264227642276424 46.90040650406504,35.264227642276424 46.54471544715447,35.264227642276424 46.239837398373986,35.264227642276424 45.88414634146341,35.264227642276424 45.47764227642276,35.3150406504065 45.07113821138211,35.36585365853659 44.66463414634146,35.46747967479675 44.25813008130081,35.61991869918699 43.85162601626016,35.72154471544715 43.546747967479675,35.92479674796748 43.1910569105691,36.077235772357724 42.83536585365854,36.229674796747965 42.53048780487805,36.43292682926829 42.1239837398374,36.6869918699187 41.76829268292683,36.890243902439025 41.41260162601626,37.14430894308943 41.05691056910569,37.39837398373984 40.7520325203252,37.65243902439024 40.447154471544714,37.90650406504065 40.19308943089431,38.16056910569105 39.88821138211382,38.41463414634146 39.583333333333336,38.668699186991866 39.27845528455285,38.922764227642276 39.02439024390244,39.1260162601626 38.77032520325203,39.329268292682926 38.516260162601625,39.53252032520325" fill="none" stroke="black" stroke-width="0.6"></polyline><polyline points="38.516260162601625,39.53252032520325 38.3130081300813,39.735772357723576 38.16056910569105,39.9390243902439 37.95731707317073,40.142276422764226 37.855691056910565,40.29471544715447 37.7540650406504,40.4979674796748 37.60162601626016,40.701219512195124 37.5,40.90447154471545 37.39837398373984,41.107723577235774 37.296747967479675,41.3109756097561 37.19512195121951,41.46341463414634 37.09349593495935,41.666666666666664 36.99186991869919,41.86991869918699 36.9410569105691,42.02235772357724 36.83943089430894,42.22560975609756 36.6869918699187,42.42886178861789 36.58536585365854,42.58130081300813 36.483739837398375,42.78455284552845 36.43292682926829,42.9369918699187 36.33130081300813,43.08943089430894 36.229674796747965,43.24186991869919 36.17886178861789,43.39430894308943 36.077235772357724,43.546747967479675 35.97560975609756,43.75 35.823170731707314,43.953252032520325 35.72154471544715,44.25813008130081 35.56910569105691,44.512195121951216 35.46747967479675,44.766260162601625 35.36585365853659,45.07113821138211 35.264227642276424,45.3760162601626 35.21341463414634,45.63008130081301 35.11178861788618,45.9349593495935 35.0609756097561,46.290650406504064 35.010162601626014,46.646341463414636 34.959349593495936,47.0020325203252 34.90853658536585,47.357723577235774 34.857723577235774,47.71341463414634 34.80691056910569,48.01829268292683 34.75609756097561,48.3739837398374 34.70528455284553,48.729674796747965 34.70528455284553,49.136178861788615 34.65447154471545,49.49186991869919 34.603658536585364,49.796747967479675 34.603658536585364,50.10162601626016 34.603658536585364,50.40650406504065 34.603658536585364,50.66056910569105 34.603658536585364,51.016260162601625 34.603658536585364,51.37195121951219 34.603658536585364,51.77845528455284 34.603658536585364,52.1849593495935 34.603658536585364,52.59146341463415" fill="none" stroke="black" stroke-width="0.6"></polyline><polyline points="34.603658536585364,52.59146341463415 34.65447154471545,52.9979674796748 34.70528455284553,53.40447154471545 34.75609756097561,53.8109756097561 34.857723577235774,54.21747967479675 34.959349593495936,54.573170731707314 35.0609756097561,54.979674796747965 35.16260162601626,55.33536585365854 35.21341463414634,55.640243902439025 35.264227642276424,55.84349593495935 35.3150406504065,55.94512195121951 35.36585365853659,56.25 35.416666666666664,56.40243902439024 35.46747967479675,56.5040650406504 35.51829268292683,56.80894308943089 35.56910569105691,57.11382113821138 35.670731707317074,57.418699186991866 35.72154471544715,57.72357723577235 35.823170731707314,57.97764227642276 35.92479674796748,58.231707317073166 36.02642276422764,58.536585365853654 36.1280487804878,58.790650406504064 36.229674796747965,59.09552845528455 36.38211382113821,59.40040650406504 36.53455284552845,59.70528455284553 36.6869918699187,59.959349593495936 36.83943089430894,60.264227642276424 36.99186991869919,60.51829268292683 37.19512195121951,60.77235772357724 37.34756097560975,61.02642276422764 37.5,61.28048780487805 37.703252032520325,61.483739837398375 37.855691056910565,61.636178861788615 38.00813008130081,61.78861788617886 38.21138211382114,61.9410569105691 38.3130081300813,62.09349593495935 38.516260162601625,62.19512195121951 38.668699186991866,62.34756097560975 38.82113821138211,62.5 38.97357723577235,62.60162601626016 39.1260162601626,62.703252032520325 39.27845528455285,62.80487804878049 39.43089430894309,62.95731707317073 39.63414634146341,63.05894308943089 39.83739837398374,63.21138211382114 40.040650406504064,63.3130081300813 40.24390243902439,63.46544715447154 40.447154471544714,63.5670731707317 40.65040650406504,63.71951219512195 40.90447154471545,63.87195121951219 41.107723577235774,64.02439024390243" fill="none" stroke="black" stroke-width="0.6"></polyline><polyline points="41.107723577235774,64.02439024390243 41.3109756097561,64.1260162601626 41.46341463414634,64.27845528455285 41.666666666666664,64.380081300813 41.81910569105691,64.48170731707317 42.02235772357724,64.58333333333333 42.22560975609756,64.6849593495935 42.3780487804878,64.78658536585365 42.58130081300813,64.88821138211382 42.78455284552845,64.98983739837398 42.98780487804878,65.04065040650406 43.1910569105691,65.14227642276423 43.34349593495935,65.2439024390244 43.546747967479675,65.29471544715447 43.80081300813008,65.39634146341463 43.953252032520325,65.44715447154472 44.15650406504065,65.54878048780488 44.359756097560975,65.59959349593495 44.5630081300813,65.70121951219512 44.766260162601625,65.7520325203252 44.96951219512195,65.80284552845528 45.172764227642276,65.85365853658537 45.3760162601626,65.90447154471545 45.63008130081301,66.0060975609756 45.88414634146341,66.0569105691057 46.08739837398374,66.10772357723577 46.392276422764226,66.15853658536585 46.59552845528455,66.20934959349593 46.84959349593496,66.20934959349593 47.15447154471545,66.26016260162602 47.40853658536585,66.26016260162602 47.66260162601626,66.3109756097561 47.96747967479675,66.36178861788618 48.27235772357724,66.36178861788618 48.577235772357724,66.36178861788618 48.88211382113821,66.41260162601625 49.1869918699187,66.41260162601625 49.49186991869919,66.41260162601625 49.796747967479675,66.41260162601625 50.10162601626016,66.41260162601625 50.355691056910565,66.41260162601625 50.71138211382114,66.41260162601625 50.96544715447154,66.41260162601625 51.27032520325203,66.41260162601625 51.575203252032516,66.41260162601625 51.829268292682926,66.41260162601625 52.13414634146341,66.41260162601625 52.38821138211382,66.41260162601625 52.642276422764226,66.36178861788618 52.896341463414636,66.36178861788618 53.15040650406504,66.3109756097561" fill="none" stroke="black" stroke-width="0.6"></polyline><polyline points="53.15040650406504,66.3109756097561 53.40447154471545,66.3109756097561 53.709349593495936,66.26016260162602 53.96341463414634,66.26016260162602 54.166666666666664,66.20934959349593 54.420731707317074,66.20934959349593 54.67479674796748,66.20934959349593 54.8780487804878,66.20934959349593 55.13211382113821,66.20934959349593 55.33536585365854,66.15853658536585 55.53861788617886,66.15853658536585 55.74186991869919,66.15853658536585 55.89430894308943,66.10772357723577 56.046747967479675,66.10772357723577 56.25,66.0569105691057 56.453252032520325,66.0569105691057 56.605691056910565,66.0569105691057 56.80894308943089,66.0060975609756 57.012195121951216,66.0060975609756 57.21544715447154,65.95528455284553 57.46951219512195,65.95528455284553 57.672764227642276,65.90447154471545 57.92682926829268,65.85365853658537 58.18089430894309,65.80284552845528 58.43495934959349,65.80284552845528 58.63821138211382,65.7520325203252 58.94308943089431,65.65040650406505 59.197154471544714,65.59959349593495 59.451219512195124,65.54878048780488 59.80691056910569,65.44715447154472 60.0609756097561,65.34552845528455 60.36585365853659,65.2439024390244 60.670731707317074,65.09146341463415 60.92479674796748,64.98983739837398 61.17886178861789,64.88821138211382 61.43292682926829,64.83739837398373 61.6869918699187,64.73577235772358 61.9410569105691,64.6341463414634 62.19512195121951,64.48170731707317 62.39837398373984,64.380081300813 62.703252032520325,64.22764227642276 62.95731707317073,64.07520325203252 63.21138211382114,63.922764227642276 63.46544715447154,63.71951219512195 63.668699186991866,63.5670731707317 63.82113821138211,63.41463414634146 63.97357723577235,63.262195121951216 64.1260162601626,63.109756097560975 64.27845528455285,62.90650406504065 64.43089430894308,62.65243902439024 64.6341463414634,62.296747967479675" fill="none" stroke="black" stroke-width="0.6"></polyline><polyline points="64.6341463414634,62.296747967479675 64.88821138211382,61.9410569105691 65.09146341463415,61.58536585365854 65.2439024390244,61.229674796747965 65.39634146341463,60.97560975609756 65.4979674796748,60.72154471544715 65.59959349593495,60.56910569105691 65.65040650406505,60.416666666666664 65.80284552845528,60.0609756097561 66.0060975609756,59.65447154471545 66.20934959349593,59.197154471544714 66.41260162601625,58.739837398373986 66.61585365853658,58.33333333333333 66.8191056910569,57.8760162601626 67.02235772357723,57.46951219512195 67.17479674796748,57.16463414634146 67.32723577235772,56.859756097560975 67.42886178861788,56.55487804878049 67.53048780487805,56.30081300813008 67.6829268292683,55.94512195121951 67.88617886178862,55.53861788617886 68.08943089430895,55.13211382113821 68.29268292682927,54.72560975609756 68.4959349593496,54.31910569105691 68.75,53.86178861788618 68.95325203252033,53.45528455284553 69.15650406504065,52.947154471544714 69.35975609756098,52.4390243902439 69.51219512195122,51.981707317073166 69.66463414634146,51.575203252032516 69.8170731707317,51.11788617886179 69.86788617886178,50.66056910569105 69.96951219512195,50.203252032520325 70.0711382113821,49.69512195121951 70.17276422764228,49.28861788617886 70.22357723577235,48.88211382113821 70.27439024390243,48.47560975609756 70.32520325203252,48.11991869918699 70.3760162601626,47.764227642276424 70.3760162601626,47.459349593495936 70.3760162601626,47.103658536585364 70.3760162601626,46.798780487804876 70.27439024390243,46.392276422764226 70.22357723577235,46.03658536585366 70.1219512195122,45.68089430894309 70.02032520325203,45.325203252032516 69.91869918699187,45.02032520325203 69.8170731707317,44.71544715447154 69.66463414634146,44.359756097560975 69.5630081300813,44.05487804878049 69.41056910569105,43.699186991869915" fill="none" stroke="black" stroke-width="0.6"></polyline><polyline points="69.41056910569105,43.699186991869915 69.2581300813008,43.34349593495935 69.10569105691057,43.03861788617886 68.95325203252033,42.733739837398375 68.80081300813008,42.3780487804878 68.64837398373983,42.1239837398374 68.4959349593496,41.81910569105691 68.29268292682927,41.46341463414634 68.1910569105691,41.15853658536585 68.03861788617886,40.90447154471545 67.88617886178862,40.59959349593496 67.73373983739837,40.34552845528455 67.6321138211382,40.09146341463415 67.47967479674797,39.78658536585366 67.3780487804878,39.53252032520325 67.22560975609755,39.27845528455285 67.07317073170732,38.97357723577235 66.97154471544715,38.77032520325203 66.8191056910569,38.5670731707317 66.66666666666667,38.36382113821138 66.51422764227642,38.16056910569105 66.36178861788618,37.95731707317073 66.20934959349593,37.7540650406504 66.0569105691057,37.55081300813008 65.90447154471545,37.34756097560975 65.7520325203252,37.14430894308943 65.54878048780488,36.99186991869919 65.39634146341463,36.83943089430894 65.1930894308943,36.6869918699187 65.04065040650406,36.53455284552845 64.88821138211382,36.38211382113821 64.73577235772358,36.229674796747965 64.53252032520325,36.077235772357724 64.380081300813,35.92479674796748 64.17682926829268,35.77235772357724 63.97357723577235,35.61991869918699 63.77032520325203,35.46747967479675 63.5670731707317,35.264227642276424 63.36382113821138,35.11178861788618 63.16056910569105,34.959349593495936 62.95731707317073,34.80691056910569 62.7540650406504,34.65447154471545 62.5,34.451219512195124 62.24593495934959,34.34959349593496 61.99186991869919,34.146341463414636 61.6869918699187,33.99390243902439 61.43292682926829,33.892276422764226 61.1280487804878,33.739837398373986 60.8739837398374,33.58739837398374 60.61991869918699,33.485772357723576 60.36585365853659,33.333333333333336" fill="none" stroke="black" stroke-width="0.6"></polyline><polyline points="60.36585365853659,33.333333333333336 60.11178861788618,33.23170731707317 59.857723577235774,33.079268292682926 59.65447154471545,32.97764227642276 59.40040650406504,32.926829268292686 59.197154471544714,32.82520325203252 58.99390243902439,32.72357723577236 58.790650406504064,32.672764227642276 58.63821138211382,32.57113821138211 58.43495934959349,32.46951219512195 58.28252032520325,32.418699186991866 58.130081300813,32.3170731707317 57.97764227642276,32.266260162601625 57.825203252032516,32.16463414634146 57.72357723577235,32.11382113821138 57.62195121951219,32.012195121951216 57.46951219512195,31.961382113821138 57.418699186991866,31.859756097560975 57.3170731707317,31.808943089430894 57.21544715447154,31.758130081300813 57.16463414634146,31.65650406504065 57.0630081300813,31.60569105691057 57.012195121951216,31.504065040650406 56.91056910569105,31.453252032520325 56.859756097560975,31.402439024390244 56.75813008130081,31.30081300813008 56.70731707317073,31.25 56.605691056910565,31.148373983739837 56.55487804878049,31.097560975609756 56.453252032520325,30.995934959349594 56.40243902439024,30.945121951219512 56.30081300813008,30.84349593495935 56.199186991869915,30.741869918699187 56.09756097560975,30.640243902439025 55.99593495934959,30.538617886178862 55.89430894308943,30.48780487804878 55.792682926829265,30.38617886178862 55.640243902439025,30.284552845528456 55.48780487804878,30.233739837398375 55.33536585365854,30.132113821138212 55.18292682926829,30.08130081300813 55.03048780487805,30.03048780487805 54.8780487804878,29.979674796747968 54.72560975609756,29.878048780487806 54.52235772357724,29.827235772357724 54.31910569105691,29.827235772357724 54.11585365853659,29.776422764227643 53.91260162601626,29.725609756097562 53.709349593495936,29.67479674796748 53.45528455284553,29.6239837398374 53.2520325203252,29.573170731707318" fill="none" stroke="black" stroke-width="0.6"></polyline><polyline points="53.2520325203252,29.573170731707318 53.048780487804876,29.522357723577237 52.79471544715447,29.471544715447155 52.540650406504064,29.420731707317074 52.28658536585366,29.369918699186993 52.03252032520325,29.31910569105691 51.77845528455284,29.268292682926827 51.47357723577235,29.217479674796746 51.21951219512195,29.217479674796746 50.91463414634146,29.166666666666664 50.66056910569105,29.115853658536583 50.40650406504065,29.0650406504065 50.15243902439024,29.01422764227642 49.84756097560975,28.96341463414634 49.59349593495935,28.912601626016258 49.28861788617886,28.912601626016258 48.93292682926829,28.861788617886177 48.6280487804878,28.810975609756095 48.323170731707314,28.760162601626014 48.01829268292683,28.760162601626014 47.71341463414634,28.709349593495933 47.40853658536585,28.709349593495933 47.052845528455286,28.709349593495933 46.7479674796748,28.709349593495933 46.392276422764226,28.709349593495933 46.08739837398374,28.709349593495933 45.78252032520325,28.709349593495933 45.52845528455285,28.709349593495933 45.22357723577235,28.709349593495933 44.96951219512195,28.709349593495933 44.71544715447154,28.709349593495933 44.359756097560975,28.760162601626014 44.105691056910565,28.810975609756095 43.80081300813008,28.861788617886177 43.49593495934959,28.912601626016258 43.24186991869919,28.96341463414634 42.9369918699187,29.0650406504065 42.58130081300813,29.166666666666664 42.27642276422764,29.268292682926827 41.97154471544715,29.369918699186993 41.61585365853659,29.522357723577237 41.3109756097561,29.6239837398374 41.05691056910569,29.725609756097562 40.7520325203252,29.878048780487806 40.447154471544714,29.979674796747968 40.142276422764226,30.132113821138212 39.78658536585366,30.335365853658537 39.48170731707317,30.4369918699187 39.27845528455285,30.589430894308943 39.1260162601626,30.691056910569106 38.97357723577235,30.741869918699187" fill="none" stroke="black" stroke-width="0.6"></polyline><polyline points="38.97357723577235,30.741869918699187 38.71951219512195,30.89430894308943 38.46544715447154,31.046747967479675 38.16056910569105,31.25 37.90650406504065,31.453252032520325 37.65243902439024,31.60569105691057 37.55081300813008,31.70731707317073 37.39837398373984,31.808943089430894 37.296747967479675,31.961382113821138 37.09349593495935,32.11382113821138 36.890243902439025,32.266260162601625 36.6869918699187,32.46951219512195 36.483739837398375,32.6219512195122 36.28048780487805,32.77439024390244 36.077235772357724,32.97764227642276 35.8739837398374,33.18089430894309 35.670731707317074,33.333333333333336 35.416666666666664,33.58739837398374 35.21341463414634,33.739837398373986 35.010162601626014,33.94308943089431 34.75609756097561,34.146341463414636 34.552845528455286,34.34959349593496 34.2479674796748,34.603658536585364 33.892276422764226,34.857723577235774 33.63821138211382,35.0609756097561 33.38414634146341,35.264227642276424 33.18089430894309,35.46747967479675 32.97764227642276,35.72154471544715 32.672764227642276,36.02642276422764 32.418699186991866,36.229674796747965 32.21544715447154,36.43292682926829 32.012195121951216,36.636178861788615 31.808943089430894,36.78861788617886 31.60569105691057,37.042682926829265 31.30081300813008,37.296747967479675 31.097560975609756,37.55081300813008 30.89430894308943,37.7540650406504 30.741869918699187,38.00813008130081 30.589430894308943,38.21138211382114 30.48780487804878,38.46544715447154 30.335365853658537,38.71951219512195 30.182926829268293,38.922764227642276 30.08130081300813,39.176829268292686 29.878048780487806,39.48170731707317 29.776422764227643,39.735772357723576 29.6239837398374,40.09146341463415 29.522357723577237,40.447154471544714 29.420731707317074,40.7520325203252 29.31910569105691,41.00609756097561 29.217479674796746,41.260162601626014 29.217479674796746,41.46341463414634" fill="none" stroke="black" stroke-width="0.6"></polyline><polyline points="29.217479674796746,41.46341463414634 29.166666666666664,41.71747967479675 29.115853658536583,42.02235772357724 29.01422764227642,42.327235772357724 28.96341463414634,42.63211382113821 28.912601626016258,42.9369918699187 28.810975609756095,43.24186991869919 28.760162601626014,43.59756097560975 28.60772357723577,44.0040650406504 28.55691056910569,44.41056910569105 28.455284552845526,44.8170731707317 28.404471544715445,45.27439024390244 28.404471544715445,45.579268292682926 28.353658536585364,45.88414634146341 28.353658536585364,46.239837398373986 28.302845528455283,46.49390243902439 28.2520325203252,46.798780487804876 28.2520325203252,47.103658536585364 28.20121951219512,47.357723577235774 28.15040650406504,47.61178861788618 28.15040650406504,47.86585365853659 28.099593495934958,48.11991869918699 28.099593495934958,48.3739837398374 28.099593495934958,48.67886178861789 28.048780487804876,48.983739837398375 28.048780487804876,49.23780487804878 27.997967479674795,49.49186991869919 27.947154471544714,49.69512195121951 27.947154471544714,49.89837398373984 27.896341463414632,50.15243902439024 27.84552845528455,50.40650406504065 27.79471544715447,50.609756097560975 27.693089430894307,50.86382113821138 27.693089430894307,51.0670731707317 27.642276422764226,51.27032520325203 27.591463414634145,51.47357723577235 27.540650406504064,51.67682926829268 27.489837398373982,51.93089430894309 27.4390243902439,52.1849593495935 27.38821138211382,52.4390243902439 27.286585365853657,52.79471544715447 27.235772357723576,53.201219512195124 27.083333333333332,53.607723577235774 26.98170731707317,54.014227642276424 26.880081300813007,54.47154471544715 26.727642276422763,54.8780487804878 26.6260162601626,55.33536585365854 26.524390243902438,55.74186991869919 26.422764227642276,56.14837398373984 26.371951219512194,56.55487804878049 26.321138211382113,56.859756097560975" fill="none" stroke="black" stroke-width="0.6"></polyline><polyline points="26.321138211382113,56.859756097560975 26.270325203252032,57.21544715447154 26.270325203252032,57.672764227642276 26.21951219512195,58.079268292682926 26.21951219512195,58.485772357723576 26.21951219512195,58.790650406504064 26.21951219512195,59.09552845528455 26.270325203252032,59.34959349593496 26.371951219512194,59.70528455284553 26.473577235772357,59.959349593495936 26.524390243902438,60.21341463414634 26.6260162601626,60.51829268292683 26.727642276422763,60.72154471544715 26.829268292682926,60.92479674796748 26.98170731707317,61.1280487804878 27.134146341463413,61.38211382113821 27.235772357723576,61.636178861788615 27.4390243902439,61.9410569105691 27.540650406504064,62.14430894308943 27.693089430894307,62.39837398373984 27.896341463414632,62.65243902439024 28.048780487804876,62.855691056910565 28.2520325203252,63.109756097560975 28.455284552845526,63.36382113821138 28.60772357723577,63.5670731707317 28.760162601626014,63.82113821138211 28.96341463414634,64.07520325203252 29.166666666666664,64.32926829268293 29.31910569105691,64.53252032520325 29.573170731707318,64.78658536585365 29.776422764227643,64.98983739837398 29.979674796747968,65.1930894308943 30.182926829268293,65.39634146341463 30.38617886178862,65.59959349593495 30.589430894308943,65.80284552845528 30.84349593495935,66.0060975609756 31.046747967479675,66.15853658536585 31.25,66.3109756097561 31.453252032520325,66.46341463414635 31.65650406504065,66.61585365853658 31.859756097560975,66.76829268292683 32.0630081300813,66.869918699187 32.16463414634146,66.97154471544715 32.266260162601625,67.02235772357723 32.46951219512195,67.17479674796748 32.57113821138211,67.22560975609755 32.672764227642276,67.32723577235772 32.8760162601626,67.42886178861788 33.02845528455285,67.58130081300813 33.28252032520325,67.78455284552845 33.485772357723576,67.9369918699187" fill="none" stroke="black" stroke-width="0.6"></polyline><polyline points="33.485772357723576,67.9369918699187 33.6890243902439,68.08943089430895 33.94308943089431,68.29268292682927 34.146341463414636,68.4451219512195 34.40040650406504,68.54674796747967 34.65447154471545,68.69918699186992 34.90853658536585,68.90243902439025 35.16260162601626,69.05487804878048 35.416666666666664,69.2581300813008 35.670731707317074,69.41056910569105 35.92479674796748,69.61382113821138 36.229674796747965,69.76626016260163 36.43292682926829,69.91869918699187 36.6869918699187,70.0711382113821 36.9410569105691,70.22357723577235 37.14430894308943,70.3760162601626 37.296747967479675,70.47764227642276 37.55081300813008,70.57926829268293 37.703252032520325,70.68089430894308 37.95731707317073,70.78252032520325 38.16056910569105,70.8841463414634 38.36382113821138,70.9349593495935 38.516260162601625,70.98577235772358 38.61788617886179,71.03658536585365 38.77032520325203,71.08739837398373 38.87195121951219,71.13821138211382 38.97357723577235,71.1890243902439 39.02439024390244,71.23983739837398 39.1260162601626,71.23983739837398 39.176829268292686,71.29065040650406 39.22764227642276,71.34146341463415 39.27845528455285,71.34146341463415 39.329268292682926,71.39227642276423 39.38008130081301,71.4430894308943 39.48170731707317,71.49390243902438 39.53252032520325,71.54471544715447 39.63414634146341,71.59552845528455 39.735772357723576,71.64634146341463 39.83739837398374,71.69715447154472 39.9390243902439,71.7479674796748 40.040650406504064,71.84959349593495 40.19308943089431,71.95121951219512 40.34552845528455,72.0020325203252 40.4979674796748,72.10365853658537 40.59959349593496,72.15447154471545 40.701219512195124,72.20528455284553 40.853658536585364,72.3069105691057 41.05691056910569,72.40853658536585 41.260162601626014,72.51016260162602 41.41260162601626,72.61178861788618 41.61585365853659,72.71341463414635" fill="none" stroke="black" stroke-width="0.6"></polyline><polyline points="41.61585365853659,72.71341463414635 41.81910569105691,72.8150406504065 42.073170731707314,72.91666666666667 42.327235772357724,73.01829268292683 42.53048780487805,73.119918699187 42.78455284552845,73.17073170731707 43.08943089430894,73.27235772357723 43.34349593495935,73.3739837398374 43.64837398373984,73.42479674796748 44.0040650406504,73.52642276422765 44.30894308943089,73.57723577235772 44.66463414634146,73.6280487804878 45.02032520325203,73.67886178861788 45.325203252032516,73.72967479674797 45.63008130081301,73.78048780487805 45.985772357723576,73.83130081300813 46.239837398373986,73.83130081300813 46.54471544715447,73.8821138211382 46.84959349593496,73.9329268292683 47.103658536585364,73.98373983739837 47.40853658536585,73.98373983739837 47.66260162601626,74.03455284552845 47.916666666666664,74.03455284552845 48.170731707317074,74.08536585365853 48.3739837398374,74.13617886178862 48.577235772357724,74.13617886178862 48.83130081300813,74.1869918699187 49.03455284552845,74.23780487804878 49.23780487804878,74.23780487804878 49.4410569105691,74.28861788617886 49.64430894308943,74.28861788617886 49.796747967479675,74.33943089430895 50,74.33943089430895 50.203252032520325,74.39024390243902 50.40650406504065,74.39024390243902 50.609756097560975,74.4410569105691 50.86382113821138,74.4410569105691 51.0670731707317,74.4410569105691 51.32113821138211,74.49186991869918 51.52439024390244,74.49186991869918 51.72764227642276,74.49186991869918 51.93089430894309,74.49186991869918 52.13414634146341,74.49186991869918 52.33739837398374,74.49186991869918 52.59146341463415,74.49186991869918 52.79471544715447,74.49186991869918 52.9979674796748,74.49186991869918 53.2520325203252,74.49186991869918 53.45528455284553,74.49186991869918 53.65853658536585,74.49186991869918 53.91260162601626,74.49186991869918" fill="none" stroke="black" stroke-width="0.6"></polyline><polyline points="53.91260162601626,74.49186991869918 54.11585365853659,74.4410569105691 54.31910569105691,74.4410569105691 54.573170731707314,74.4410569105691 54.77642276422764,74.39024390243902 54.979674796747965,74.39024390243902 55.233739837398375,74.39024390243902 55.4369918699187,74.39024390243902 55.6910569105691,74.33943089430895 55.89430894308943,74.33943089430895 56.046747967479675,74.28861788617886 56.14837398373984,74.28861788617886 56.35162601626016,74.28861788617886 56.605691056910565,74.23780487804878 56.80894308943089,74.1869918699187 57.0630081300813,74.1869918699187 57.36788617886179,74.13617886178862 57.57113821138211,74.08536585365853 57.825203252032516,74.08536585365853 58.130081300813,74.03455284552845 58.33333333333333,73.98373983739837 58.58739837398374,73.9329268292683 58.892276422764226,73.8821138211382 59.146341463414636,73.78048780487805 59.40040650406504,73.67886178861788 59.65447154471545,73.57723577235772 59.857723577235774,73.52642276422765 60.0609756097561,73.42479674796748 60.3150406504065,73.32317073170732 60.51829268292683,73.27235772357723 60.72154471544715,73.17073170731707 60.92479674796748,73.0691056910569 61.1280487804878,72.96747967479675 61.33130081300813,72.86585365853658 61.53455284552845,72.76422764227642 61.73780487804878,72.61178861788618 61.9410569105691,72.51016260162602 62.14430894308943,72.40853658536585 62.296747967479675,72.3069105691057 62.449186991869915,72.20528455284553 62.65243902439024,72.10365853658537 62.80487804878049,72.05284552845528 63.00813008130081,71.95121951219512 63.16056910569105,71.79878048780488 63.36382113821138,71.69715447154472 63.516260162601625,71.59552845528455 63.668699186991866,71.49390243902438 63.82113821138211,71.39227642276423 63.97357723577235,71.29065040650406 64.1260162601626,71.1890243902439 64.22764227642276,71.08739837398373" fill="none" stroke="black" stroke-width="0.6"></polyline><polyline points="64.22764227642276,71.08739837398373 64.380081300813,70.98577235772358 64.48170731707317,70.8841463414634 64.58333333333333,70.83333333333333 64.6849593495935,70.73170731707317 64.78658536585365,70.630081300813 64.83739837398373,70.57926829268293 64.88821138211382,70.52845528455285 65.09146341463415,70.3760162601626 65.2439024390244,70.22357723577235 65.4979674796748,69.96951219512195 65.80284552845528,69.66463414634146 66.10772357723577,69.41056910569105 66.41260162601625,69.15650406504065 66.66666666666667,68.95325203252033 66.869918699187,68.85162601626016 67.07317073170732,68.75 67.32723577235772,68.59756097560975 67.47967479674797,68.4451219512195 67.6829268292683,68.29268292682927 67.9369918699187,68.08943089430895 68.08943089430895,67.9369918699187 68.34349593495935,67.73373983739837 68.59756097560975,67.47967479674797 68.80081300813008,67.27642276422765 69.0040650406504,67.07317073170732 69.20731707317073,66.869918699187 69.41056910569105,66.66666666666667 69.61382113821138,66.46341463414635 69.8170731707317,66.20934959349593 70.02032520325203,65.95528455284553 70.22357723577235,65.70121951219512 70.47764227642276,65.34552845528455 70.68089430894308,65.04065040650406 70.8841463414634,64.6849593495935 71.13821138211382,64.32926829268293 71.34146341463415,64.02439024390243 71.54471544715447,63.668699186991866 71.7479674796748,63.36382113821138 71.95121951219512,63.00813008130081 72.15447154471545,62.60162601626016 72.40853658536585,62.14430894308943 72.66260162601625,61.6869918699187 72.96747967479675,61.17886178861789 73.22154471544715,60.670731707317074 73.42479674796748,60.36585365853659 73.57723577235772,60.010162601626014 73.72967479674797,59.603658536585364 73.8821138211382,59.2479674796748 74.03455284552845,58.84146341463415 74.1869918699187,58.43495934959349" fill="none" stroke="black" stroke-width="0.6"></polyline><polyline points="74.1869918699187,58.43495934959349 74.33943089430895,58.02845528455284 74.49186991869918,57.672764227642276 74.64430894308943,57.3170731707317 74.79674796747967,56.91056910569105 74.94918699186992,56.5040650406504 75.10162601626016,56.14837398373984 75.20325203252033,55.792682926829265 75.30487804878048,55.4369918699187 75.40650406504065,55.08130081300813 75.45731707317073,54.67479674796748 75.5589430894309,54.26829268292683 75.71138211382113,53.86178861788618 75.8130081300813,53.45528455284553 75.91463414634146,53.048780487804876 76.01626016260163,52.642276422764226 76.11788617886178,52.28658536585366 76.21951219512195,51.93089430894309 76.3211382113821,51.6260162601626 76.42276422764228,51.32113821138211 76.52439024390243,51.016260162601625 76.67682926829268,50.66056910569105 76.82926829268293,50.40650406504065 77.03252032520325,50.10162601626016 77.1849593495935,49.84756097560975 77.38821138211382,49.64430894308943 77.48983739837398,49.4410569105691 77.59146341463415,49.33943089430894 77.64227642276423,49.23780487804878 77.6930894308943,49.1869918699187 77.6930894308943,49.136178861788615 77.6930894308943,49.136178861788615 77.6930894308943,49.136178861788615 77.6930894308943,49.136178861788615 77.6930894308943,49.136178861788615 77.6930894308943,49.136178861788615 77.6930894308943,49.136178861788615 77.6930894308943,49.136178861788615 77.6930894308943,49.136178861788615 77.6930894308943,49.136178861788615 77.6930894308943,49.136178861788615 77.64227642276423,49.136178861788615 77.64227642276423,49.1869918699187" fill="none" stroke="black" stroke-width="0.6"></polyline></svg>