<svg height="100" width="100" preserveAspectRatio="xMidYMid meet"><polyline points="25.711382113821138,55.6910569105691 25.711382113821138,55.640243902439025 25.660569105691057,55.53861788617886 25.609756097560975,55.48780487804878 25.558943089430894,55.386178861788615 25.558943089430894,55.386178861788615 25.558943089430894,55.386178861788615 25.558943089430894,55.386178861788615 25.558943089430894,55.386178861788615 25.558943089430894,55.48780487804878 25.558943089430894,55.53861788617886 25.609756097560975,55.6910569105691 25.609756097560975,55.89430894308943 25.660569105691057,56.09756097560975 25.711382113821138,56.35162601626016 25.711382113821138,56.65650406504065 25.76219512195122,57.012195121951216 25.8130081300813,57.36788617886179 25.8130081300813,57.8760162601626 25.8130081300813,58.38414634146341 25.8130081300813,58.892276422764226 25.8130081300813,59.34959349593496 25.8130081300813,59.75609756097561 25.8130081300813,60.11178861788618 25.8130081300813,60.416666666666664 25.8130081300813,60.77235772357724 25.8130081300813,61.077235772357724 25.8130081300813,61.43292682926829 25.8130081300813,61.73780487804878 25.8130081300813,62.09349593495935 25.8130081300813,62.5 25.8130081300813,62.95731707317073 25.8130081300813,63.36382113821138 25.8130081300813,63.77032520325203 25.8130081300813,64.1260162601626 25.8130081300813,64.380081300813 25.8130081300813,64.6849593495935 25.8130081300813,64.9390243902439 25.8130081300813,65.1930894308943 25.8130081300813,65.44715447154472 25.8130081300813,65.70121951219512 25.8130081300813,65.95528455284553 25.8130081300813,66.20934959349593 25.8130081300813,66.51422764227642 25.8130081300813,66.8191056910569 25.8130081300813,67.17479674796748 25.8130081300813,67.53048780487805 25.8130081300813,67.83536585365853 25.8130081300813,68.08943089430895 25.86382113821138,68.39430894308943 25.86382113821138,68.64837398373983" fill="none" stroke="black" stroke-width="0.6"></polyline><polyline points="25.86382113821138,68.64837398373983 25.914634146341463,69.0040650406504 25.914634146341463,69.3089430894309 25.914634146341463,69.66463414634146 25.965447154471544,70.0711382113821 25.965447154471544,70.42682926829268 25.965447154471544,70.78252032520325 25.965447154471544,71.23983739837398 25.965447154471544,71.64634146341463 25.965447154471544,72.05284552845528 25.965447154471544,72.51016260162602 25.965447154471544,72.86585365853658 25.965447154471544,73.22154471544715 25.965447154471544,73.57723577235772 25.965447154471544,73.83130081300813 25.965447154471544,74.13617886178862 25.914634146341463,74.4410569105691 25.914634146341463,74.6951219512195 25.86382113821138,74.94918699186992 25.86382113821138,75.20325203252033 25.8130081300813,75.5081300813008 25.8130081300813,75.76219512195122 25.8130081300813,76.01626016260163 25.76219512195122,76.11788617886178 25.76219512195122,76.3719512195122 25.76219512195122,76.52439024390243 25.76219512195122,76.6260162601626 25.711382113821138,76.72764227642276 25.711382113821138,76.82926829268293 25.711382113821138,76.93089430894308 25.711382113821138,76.98170731707317 25.711382113821138,77.08333333333333 25.711382113821138,77.1849593495935 25.711382113821138,77.28658536585365 25.711382113821138,77.38821138211382 25.711382113821138,77.4390243902439 25.76219512195122,77.54065040650406 25.76219512195122,77.64227642276423 25.8130081300813,77.6930894308943 25.86382113821138,77.79471544715447 25.914634146341463,77.84552845528455 25.965447154471544,77.89634146341463 26.016260162601625,77.9471544715447 26.117886178861788,78.04878048780488 26.21951219512195,78.09959349593495 26.321138211382113,78.15040650406505 26.473577235772357,78.2520325203252 26.6260162601626,78.30284552845528 26.829268292682926,78.40447154471545 27.03252032520325,78.5060975609756 27.286585365853657,78.5569105691057" fill="none" stroke="black" stroke-width="0.6"></polyline><polyline points="27.286585365853657,78.5569105691057 27.591463414634145,78.65853658536585 27.896341463414632,78.70934959349593 28.20121951219512,78.8109756097561 28.506097560975608,78.86178861788618 28.861788617886177,78.91260162601625 29.217479674796746,78.96341463414635 29.522357723577237,79.01422764227642 29.928861788617887,79.0650406504065 30.233739837398375,79.11585365853658 30.640243902439025,79.11585365853658 30.995934959349594,79.16666666666667 31.351626016260163,79.16666666666667 31.70731707317073,79.16666666666667 32.0630081300813,79.16666666666667 32.418699186991866,79.16666666666667 32.82520325203252,79.21747967479675 33.18089430894309,79.21747967479675 33.58739837398374,79.21747967479675 33.99390243902439,79.21747967479675 34.40040650406504,79.26829268292683 34.75609756097561,79.26829268292683 35.21341463414634,79.26829268292683 35.56910569105691,79.26829268292683 35.97560975609756,79.3191056910569 36.38211382113821,79.3191056910569 36.73780487804878,79.369918699187 37.09349593495935,79.369918699187 37.449186991869915,79.369918699187 37.855691056910565,79.42073170731707 38.262195121951216,79.47154471544715 38.82113821138211,79.52235772357723 39.22764227642276,79.52235772357723 39.735772357723576,79.57317073170732 40.24390243902439,79.57317073170732 40.701219512195124,79.57317073170732 41.15853658536585,79.6239837398374 41.5650406504065,79.6239837398374 41.97154471544715,79.6239837398374 42.3780487804878,79.67479674796748 42.886178861788615,79.67479674796748 43.292682926829265,79.72560975609755 43.80081300813008,79.72560975609755 44.30894308943089,79.72560975609755 44.8170731707317,79.77642276422765 45.325203252032516,79.77642276422765 45.88414634146341,79.77642276422765 46.392276422764226,79.77642276422765 46.90040650406504,79.72560975609755 47.510162601626014,79.72560975609755 48.01829268292683,79.72560975609755" fill="none" stroke="black" stroke-width="0.6"></polyline><polyline points="48.01829268292683,79.72560975609755 48.52642276422764,79.72560975609755 49.08536585365854,79.72560975609755 49.542682926829265,79.72560975609755 50.05081300813008,79.77642276422765 50.55894308943089,79.82723577235772 51.11788617886179,79.8780487804878 51.67682926829268,79.92886178861788 52.28658536585366,79.92886178861788 52.79471544715447,80.03048780487805 53.302845528455286,80.03048780487805 53.8109756097561,80.08130081300813 54.21747967479675,80.08130081300813 54.6239837398374,80.1321138211382 55.08130081300813,80.1829268292683 55.53861788617886,80.1829268292683 56.14837398373984,80.1829268292683 56.859756097560975,80.1829268292683 57.46951219512195,80.23373983739837 58.02845528455284,80.23373983739837 58.485772357723576,80.23373983739837 58.790650406504064,80.23373983739837 59.146341463414636,80.23373983739837 59.451219512195124,80.23373983739837 59.75609756097561,80.23373983739837 60.010162601626014,80.23373983739837 60.264227642276424,80.23373983739837 60.416666666666664,80.28455284552845 60.61991869918699,80.28455284552845 60.77235772357724,80.28455284552845 60.8739837398374,80.28455284552845 60.97560975609756,80.28455284552845 61.077235772357724,80.28455284552845 61.1280487804878,80.28455284552845 61.1280487804878,80.28455284552845 61.17886178861789,80.28455284552845 61.17886178861789,80.28455284552845 61.17886178861789,80.28455284552845 61.17886178861789,80.28455284552845 61.17886178861789,80.28455284552845 61.17886178861789,80.28455284552845 61.17886178861789,80.28455284552845 61.17886178861789,80.28455284552845 61.17886178861789,80.28455284552845 61.17886178861789,80.28455284552845 61.17886178861789,80.28455284552845 61.17886178861789,80.28455284552845 61.17886178861789,80.28455284552845 61.17886178861789,80.28455284552845 61.17886178861789,80.28455284552845 61.17886178861789,80.28455284552845" fill="none" stroke="black" stroke-width="0.6"></polyline><polyline points="61.17886178861789,80.28455284552845 61.17886178861789,80.28455284552845 61.17886178861789,80.28455284552845 61.229674796747965,80.28455284552845 61.229674796747965,80.23373983739837 61.28048780487805,80.23373983739837 61.28048780487805,80.23373983739837 61.33130081300813,80.23373983739837 61.38211382113821,80.1829268292683 61.38211382113821,80.1829268292683 61.43292682926829,80.1321138211382 61.483739837398375,80.08130081300813 61.53455284552845,80.03048780487805 61.58536585365854,79.97967479674797 61.636178861788615,79.8780487804878 61.73780487804878,79.72560975609755 61.78861788617886,79.57317073170732 61.890243902439025,79.3191056910569 61.9410569105691,79.11585365853658 61.99186991869919,78.86178861788618 62.042682926829265,78.5060975609756 62.042682926829265,78.09959349593495 62.042682926829265,77.4390243902439 61.99186991869919,76.72764227642276 61.9410569105691,75.96544715447155 61.83943089430894,75.20325203252033 61.78861788617886,74.49186991869918 61.73780487804878,73.78048780487805 61.6869918699187,73.01829268292683 61.636178861788615,72.2560975609756 61.58536585365854,71.54471544715447 61.58536585365854,70.83333333333333 61.53455284552845,70.22357723577235 61.483739837398375,69.61382113821138 61.483739837398375,68.95325203252033 61.483739837398375,68.29268292682927 61.43292682926829,67.6829268292683 61.38211382113821,67.1239837398374 61.38211382113821,66.51422764227642 61.33130081300813,66.0060975609756 61.33130081300813,65.44715447154472 61.28048780487805,64.78658536585365 61.28048780487805,64.27845528455285 61.229674796747965,63.82113821138211 61.17886178861789,63.46544715447154 61.17886178861789,63.109756097560975 61.17886178861789,62.703252032520325 61.1280487804878,62.24593495934959 61.1280487804878,61.73780487804878 61.077235772357724,61.33130081300813 61.077235772357724,60.8739837398374" fill="none" stroke="black" stroke-width="0.6"></polyline><polyline points="61.077235772357724,60.8739837398374 61.077235772357724,60.46747967479675 61.02642276422764,60.0609756097561 61.02642276422764,59.65447154471545 61.02642276422764,59.298780487804876 61.02642276422764,58.94308943089431 61.02642276422764,58.58739837398374 61.02642276422764,58.28252032520325 61.02642276422764,57.97764227642276 61.02642276422764,57.72357723577235 61.02642276422764,57.52032520325203 61.02642276422764,57.266260162601625 61.02642276422764,57.11382113821138 61.02642276422764,56.91056910569105 61.02642276422764,56.70731707317073 61.02642276422764,56.5040650406504 61.02642276422764,56.35162601626016 61.02642276422764,56.14837398373984 61.02642276422764,55.99593495934959 61.02642276422764,55.84349593495935 61.02642276422764,55.6910569105691 61.02642276422764,55.58943089430894 61.02642276422764,55.53861788617886 61.02642276422764,55.48780487804878 61.02642276422764,55.4369918699187 61.02642276422764,55.4369918699187 61.02642276422764,55.4369918699187 61.02642276422764,55.386178861788615 60.97560975609756,55.386178861788615 60.97560975609756,55.386178861788615 60.92479674796748,55.386178861788615 60.823170731707314,55.33536585365854 60.670731707317074,55.28455284552845 60.46747967479675,55.28455284552845 60.21341463414634,55.233739837398375 59.857723577235774,55.18292682926829 59.451219512195124,55.18292682926829 58.99390243902439,55.13211382113821 58.536585365853654,55.13211382113821 58.079268292682926,55.13211382113821 57.57113821138211,55.08130081300813 57.012195121951216,55.08130081300813 56.40243902439024,55.08130081300813 55.792682926829265,55.08130081300813 55.08130081300813,55.08130081300813 54.420731707317074,55.08130081300813 53.709349593495936,55.08130081300813 53.048780487804876,55.08130081300813 52.38821138211382,55.03048780487805 51.77845528455284,54.979674796747965 51.168699186991866,54.8780487804878" fill="none" stroke="black" stroke-width="0.6"></polyline><polyline points="51.168699186991866,54.8780487804878 50.55894308943089,54.77642276422764 49.949186991869915,54.67479674796748 49.28861788617886,54.52235772357724 48.67886178861789,54.36991869918699 47.916666666666664,54.26829268292683 47.052845528455286,54.11585365853659 46.239837398373986,54.014227642276424 45.833333333333336,53.96341463414634 45.42682926829268,53.86178861788618 44.66463414634146,53.760162601626014 44.0040650406504,53.65853658536585 43.34349593495935,53.55691056910569 42.886178861788615,53.50609756097561 42.53048780487805,53.40447154471545 42.1239837398374,53.302845528455286 41.61585365853659,53.2520325203252 41.209349593495936,53.201219512195124 40.7520325203252,53.15040650406504 40.29471544715447,53.09959349593496 39.83739837398374,53.048780487804876 39.43089430894309,52.9979674796748 39.07520325203252,52.896341463414636 38.71951219512195,52.84552845528455 38.36382113821138,52.79471544715447 37.90650406504065,52.74390243902439 37.449186991869915,52.69308943089431 36.9410569105691,52.69308943089431 36.58536585365854,52.642276422764226 36.28048780487805,52.642276422764226 35.92479674796748,52.59146341463415 35.51829268292683,52.59146341463415 35.0609756097561,52.59146341463415 34.5020325203252,52.59146341463415 34.09552845528455,52.642276422764226 33.63821138211382,52.642276422764226 33.18089430894309,52.69308943089431 32.77439024390244,52.79471544715447 32.418699186991866,52.84552845528455 32.012195121951216,52.896341463414636 31.70731707317073,52.896341463414636 31.30081300813008,52.947154471544714 30.84349593495935,53.048780487804876 30.4369918699187,53.09959349593496 30.08130081300813,53.15040650406504 29.67479674796748,53.201219512195124 29.268292682926827,53.2520325203252 28.861788617886177,53.302845528455286 28.506097560975608,53.353658536585364 28.20121951219512,53.353658536585364 27.896341463414632,53.40447154471545" fill="none" stroke="black" stroke-width="0.6"></polyline><polyline points="27.896341463414632,53.40447154471545 27.540650406504064,53.40447154471545 27.235772357723576,53.45528455284553 26.98170731707317,53.45528455284553 26.676829268292682,53.50609756097561 26.473577235772357,53.55691056910569 26.270325203252032,53.55691056910569 26.016260162601625,53.607723577235774 25.76219512195122,53.607723577235774 25.609756097560975,53.607723577235774 25.40650406504065,53.607723577235774 25.254065040650406,53.607723577235774 25.152439024390244,53.607723577235774 24.94918699186992,53.607723577235774 24.847560975609756,53.607723577235774 24.745934959349594,53.607723577235774 24.64430894308943,53.607723577235774 24.59349593495935,53.607723577235774 24.491869918699187,53.55691056910569 24.491869918699187,53.55691056910569 24.441056910569106,53.55691056910569 24.441056910569106,53.55691056910569 24.441056910569106,53.55691056910569 24.441056910569106,53.55691056910569 24.441056910569106,53.55691056910569 24.441056910569106,53.55691056910569 24.441056910569106,53.55691056910569 24.441056910569106,53.55691056910569 24.441056910569106,53.55691056910569 24.441056910569106,53.55691056910569 24.441056910569106,53.55691056910569 24.491869918699187,53.55691056910569 24.59349593495935,53.65853658536585 24.59349593495935,53.709349593495936" fill="none" stroke="black" stroke-width="0.6"></polyline><polyline points="24.64430894308943,54.31910569105691 24.64430894308943,54.31910569105691 24.64430894308943,54.31910569105691 24.64430894308943,54.31910569105691 24.64430894308943,54.31910569105691 24.64430894308943,54.31910569105691 24.64430894308943,54.31910569105691 24.64430894308943,54.31910569105691 24.64430894308943,54.31910569105691 24.64430894308943,54.26829268292683 24.59349593495935,54.26829268292683 24.59349593495935,54.21747967479675 24.54268292682927,54.21747967479675 24.491869918699187,54.166666666666664 24.441056910569106,54.166666666666664 24.390243902439025,54.11585365853659 24.390243902439025,54.0650406504065 24.339430894308943,54.014227642276424 24.288617886178862,54.014227642276424 24.23780487804878,53.91260162601626 24.1869918699187,53.86178861788618 24.085365853658537,53.760162601626014 24.034552845528456,53.65853658536585 23.983739837398375,53.50609756097561 23.932926829268293,53.353658536585364 23.882113821138212,53.201219512195124 23.83130081300813,52.9979674796748 23.78048780487805,52.79471544715447 23.729674796747968,52.642276422764226 23.678861788617887,52.38821138211382 23.628048780487806,52.1849593495935 23.577235772357724,51.93089430894309 23.526422764227643,51.67682926829268 23.526422764227643,51.422764227642276 23.475609756097562,51.11788617886179 23.475609756097562,50.86382113821138 23.42479674796748,50.609756097560975 23.42479674796748,50.40650406504065 23.42479674796748,50.15243902439024 23.3739837398374,49.89837398373984 23.3739837398374,49.69512195121951 23.323170731707318,49.4410569105691 23.323170731707318,49.1869918699187 23.323170731707318,48.93292682926829 23.272357723577237,48.67886178861789 23.272357723577237,48.42479674796748 23.272357723577237,48.22154471544715 23.272357723577237,48.01829268292683 23.272357723577237,47.8150406504065 23.221544715447155,47.66260162601626 23.221544715447155,47.510162601626014" fill="none" stroke="black" stroke-width="0.6"></polyline><polyline points="23.221544715447155,47.510162601626014 23.221544715447155,47.357723577235774 23.221544715447155,47.20528455284553 23.170731707317074,47.0020325203252 23.170731707317074,46.90040650406504 23.119918699186993,46.798780487804876 23.119918699186993,46.697154471544714 23.06910569105691,46.59552845528455 23.01829268292683,46.49390243902439 23.01829268292683,46.392276422764226 22.96747967479675,46.34146341463415 22.96747967479675,46.239837398373986 22.916666666666668,46.13821138211382 22.916666666666668,46.08739837398374 22.916666666666668,46.03658536585366 22.916666666666668,46.03658536585366 22.916666666666668,46.03658536585366 22.96747967479675,46.03658536585366 23.01829268292683,46.08739837398374" fill="none" stroke="black" stroke-width="0.6"></polyline><polyline points="21.697154471544714,49.136178861788615 21.646341463414632,49.136178861788615 21.59552845528455,49.136178861788615 21.49390243902439,49.08536585365854 21.392276422764226,48.983739837398375 21.290650406504064,48.93292682926829 21.239837398373982,48.88211382113821 21.239837398373982,48.88211382113821 21.239837398373982,48.83130081300813 21.239837398373982,48.83130081300813 21.392276422764226,48.83130081300813 21.646341463414632,48.83130081300813 22.0020325203252,48.83130081300813 22.459349593495933,48.83130081300813 22.96747967479675,48.83130081300813 23.475609756097562,48.83130081300813 24.034552845528456,48.83130081300813 24.59349593495935,48.83130081300813 25.05081300813008,48.83130081300813 25.45731707317073,48.78048780487805 25.86382113821138,48.729674796747965 26.16869918699187,48.67886178861789 26.473577235772357,48.6280487804878 26.676829268292682,48.6280487804878 26.880081300813007,48.6280487804878 27.134146341463413,48.6280487804878 27.33739837398374,48.6280487804878 27.489837398373982,48.729674796747965 27.591463414634145,48.83130081300813" fill="none" stroke="black" stroke-width="0.6"></polyline><polyline points="23.526422764227643,53.50609756097561 23.526422764227643,53.50609756097561 23.475609756097562,53.50609756097561 23.42479674796748,53.50609756097561 23.3739837398374,53.50609756097561 23.3739837398374,53.55691056910569 23.323170731707318,53.709349593495936 23.323170731707318,53.91260162601626 23.272357723577237,54.21747967479675 23.272357723577237,54.573170731707314 23.272357723577237,54.979674796747965 23.272357723577237,55.386178861788615 23.272357723577237,55.792682926829265 23.323170731707318,56.30081300813008 23.323170731707318,56.75813008130081 23.3739837398374,57.21544715447154 23.3739837398374,57.72357723577235 23.42479674796748,58.130081300813 23.42479674796748,58.58739837398374 23.475609756097562,59.09552845528455 23.475609756097562,59.451219512195124 23.526422764227643,59.80691056910569 23.526422764227643,60.11178861788618 23.526422764227643,60.36585365853659 23.475609756097562,60.56910569105691 23.42479674796748,60.72154471544715 23.42479674796748,60.823170731707314 23.42479674796748,60.8739837398374 23.3739837398374,60.92479674796748 23.3739837398374,60.92479674796748 23.3739837398374,60.92479674796748 23.3739837398374,60.92479674796748 23.3739837398374,60.92479674796748 23.3739837398374,60.8739837398374 23.42479674796748,60.823170731707314" fill="none" stroke="black" stroke-width="0.6"></polyline><polyline points="53.8109756097561,46.44308943089431 53.8109756097561,46.44308943089431 53.8109756097561,46.392276422764226 53.760162601626014,46.34146341463415 53.760162601626014,46.290650406504064 53.760162601626014,46.290650406504064 53.760162601626014,46.239837398373986 53.760162601626014,46.239837398373986 53.760162601626014,46.239837398373986 53.760162601626014,46.239837398373986 53.760162601626014,46.239837398373986 53.8109756097561,46.239837398373986 53.86178861788618,46.290650406504064 53.96341463414634,46.34146341463415 54.0650406504065,46.44308943089431 54.166666666666664,46.59552845528455 54.36991869918699,46.7479674796748 54.573170731707314,46.951219512195124 54.77642276422764,47.20528455284553 55.03048780487805,47.510162601626014 55.33536585365854,47.916666666666664 55.640243902439025,48.27235772357724 55.89430894308943,48.6280487804878 56.199186991869915,49.03455284552845 56.5040650406504,49.390243902439025 56.75813008130081,49.796747967479675 57.0630081300813,50.2540650406504 57.3170731707317,50.609756097560975 57.52032520325203,50.91463414634146 57.77439024390244,51.27032520325203 58.02845528455284,51.6260162601626 58.18089430894309,51.93089430894309 58.38414634146341,52.235772357723576 58.536585365853654,52.540650406504064 58.739837398373986,52.84552845528455 58.892276422764226,53.15040650406504 59.04471544715447,53.50609756097561 59.2479674796748,53.86178861788618 59.451219512195124,54.26829268292683 59.603658536585364,54.67479674796748 59.80691056910569,55.03048780487805 59.959349593495936,55.33536585365854 60.11178861788618,55.58943089430894 60.21341463414634,55.84349593495935 60.36585365853659,56.09756097560975 60.51829268292683,56.30081300813008 60.61991869918699,56.5040650406504 60.77235772357724,56.70731707317073 60.8739837398374,56.91056910569105 60.97560975609756,57.0630081300813 61.1280487804878,57.266260162601625" fill="none" stroke="black" stroke-width="0.6"></polyline><polyline points="61.1280487804878,57.266260162601625 61.229674796747965,57.418699186991866 61.38211382113821,57.62195121951219 61.53455284552845,57.825203252032516 61.6869918699187,58.02845528455284 61.83943089430894,58.28252032520325 61.99186991869919,58.485772357723576 62.14430894308943,58.6890243902439 62.34756097560975,58.84146341463415 62.5,59.04471544715447 62.65243902439024,59.2479674796748 62.80487804878049,59.40040650406504 63.00813008130081,59.552845528455286 63.16056910569105,59.75609756097561 63.3130081300813,59.90853658536585 63.516260162601625,60.11178861788618 63.71951219512195,60.3150406504065 63.922764227642276,60.56910569105691 64.1260162601626,60.77235772357724 64.32926829268293,61.02642276422764 64.53252032520325,61.28048780487805 64.6849593495935,61.483739837398375 64.83739837398373,61.636178861788615 64.98983739837398,61.83943089430894 65.14227642276423,62.042682926829265 65.29471544715447,62.19512195121951 65.44715447154472,62.39837398373984 65.59959349593495,62.60162601626016 65.80284552845528,62.80487804878049 66.0060975609756,63.00813008130081 66.20934959349593,63.21138211382114 66.36178861788618,63.36382113821138 66.5650406504065,63.5670731707317 66.66666666666667,63.668699186991866 66.8191056910569,63.82113821138211 66.97154471544715,63.97357723577235 67.1239837398374,64.1260162601626 67.27642276422765,64.27845528455285 67.42886178861788,64.48170731707317 67.6321138211382,64.73577235772358 67.83536585365853,64.9390243902439 68.03861788617886,65.1930894308943 68.1910569105691,65.44715447154472 68.39430894308943,65.65040650406505 68.59756097560975,65.90447154471545 68.80081300813008,66.0569105691057 68.95325203252033,66.20934959349593 69.15650406504065,66.41260162601625 69.35975609756098,66.5650406504065 69.5630081300813,66.76829268292683 69.71544715447155,66.97154471544715" fill="none" stroke="black" stroke-width="0.6"></polyline><polyline points="69.71544715447155,66.97154471544715 69.91869918699187,67.07317073170732 70.0711382113821,67.22560975609755 70.22357723577235,67.3780487804878 70.3760162601626,67.53048780487805 70.57926829268293,67.6321138211382 70.83333333333333,67.83536585365853 71.08739837398373,67.98780487804878 71.34146341463415,68.14024390243902 71.54471544715447,68.29268292682927 71.7479674796748,68.39430894308943 71.95121951219512,68.54674796747967 72.15447154471545,68.69918699186992 72.35772357723577,68.85162601626016 72.5609756097561,69.0040650406504 72.76422764227642,69.20731707317073 73.01829268292683,69.35975609756098 73.22154471544715,69.51219512195122 73.47560975609755,69.76626016260163 73.67886178861788,69.91869918699187 73.8821138211382,70.1219512195122 74.08536585365853,70.27439024390243 74.23780487804878,70.3760162601626 74.39024390243902,70.47764227642276 74.54268292682927,70.57926829268293 74.64430894308943,70.68089430894308 74.79674796747967,70.83333333333333 74.94918699186992,70.9349593495935 75.15243902439025,71.08739837398373 75.30487804878048,71.23983739837398 75.5081300813008,71.39227642276423 75.71138211382113,71.49390243902438 75.86382113821138,71.59552845528455 76.0670731707317,71.69715447154472 76.21951219512195,71.84959349593495 76.3719512195122,71.95121951219512 76.57520325203252,72.10365853658537 76.72764227642276,72.20528455284553 76.82926829268293,72.3069105691057 76.93089430894308,72.40853658536585 76.98170731707317,72.45934959349593 77.03252032520325,72.45934959349593 77.03252032520325,72.51016260162602 77.03252032520325,72.5609756097561 77.08333333333333,72.5609756097561 77.08333333333333,72.61178861788618 77.08333333333333,72.61178861788618 77.08333333333333,72.61178861788618 77.08333333333333,72.61178861788618 77.08333333333333,72.66260162601625 77.08333333333333,72.66260162601625" fill="none" stroke="black" stroke-width="0.6"></polyline><polyline points="77.08333333333333,72.66260162601625 77.08333333333333,72.66260162601625 77.03252032520325,72.71341463414635 77.03252032520325,72.71341463414635 76.93089430894308,72.76422764227642 76.82926829268293,72.8150406504065 76.67682926829268,72.91666666666667 76.42276422764228,73.01829268292683 76.16869918699187,73.119918699187 75.91463414634146,73.22154471544715 75.5589430894309,73.3739837398374 75.20325203252033,73.47560975609755 74.79674796747967,73.6280487804878 74.39024390243902,73.72967479674797 73.98373983739837,73.8821138211382 73.6280487804878,74.03455284552845 73.22154471544715,74.1869918699187 72.86585365853658,74.33943089430895 72.45934959349593,74.4410569105691 72.05284552845528,74.59349593495935 71.64634146341463,74.7459349593496 71.23983739837398,74.89837398373983 70.78252032520325,75.05081300813008 70.47764227642276,75.20325203252033 70.17276422764228,75.30487804878048 69.86788617886178,75.40650406504065 69.61382113821138,75.5081300813008 69.2581300813008,75.66056910569105 68.90243902439025,75.8130081300813 68.59756097560975,75.91463414634146 68.34349593495935,76.01626016260163 68.03861788617886,76.16869918699187 67.78455284552845,76.27032520325203 67.53048780487805,76.3719512195122 67.22560975609755,76.47357723577235 67.02235772357723,76.57520325203252 66.8191056910569,76.67682926829268 66.71747967479675,76.67682926829268 66.66666666666667,76.72764227642276 66.51422764227642,76.77845528455285 66.3109756097561,76.880081300813 66.10772357723577,76.93089430894308 65.85365853658537,77.03252032520325 65.70121951219512,77.08333333333333 65.54878048780488,77.1341463414634 65.2439024390244,77.28658536585365 65.04065040650406,77.38821138211382 64.78658536585365,77.48983739837398 64.58333333333333,77.59146341463415 64.43089430894308,77.64227642276423 64.27845528455285,77.74390243902438" fill="none" stroke="black" stroke-width="0.6"></polyline><polyline points="64.27845528455285,77.74390243902438 64.07520325203252,77.79471544715447 63.87195121951219,77.89634146341463 63.668699186991866,77.9979674796748 63.41463414634146,78.04878048780488 63.262195121951216,78.15040650406505 63.05894308943089,78.20121951219512 62.90650406504065,78.30284552845528 62.80487804878049,78.35365853658537 62.65243902439024,78.45528455284553 62.5,78.5060975609756 62.39837398373984,78.5569105691057 62.24593495934959,78.65853658536585 62.14430894308943,78.70934959349593 61.99186991869919,78.8109756097561 61.78861788617886,78.91260162601625 61.636178861788615,79.01422764227642 61.483739837398375,79.11585365853658 61.33130081300813,79.16666666666667 61.17886178861789,79.26829268292683 61.077235772357724,79.3191056910569 60.97560975609756,79.369918699187 60.92479674796748,79.42073170731707 60.823170731707314,79.47154471544715 60.77235772357724,79.52235772357723 60.670731707317074,79.57317073170732 60.61991869918699,79.6239837398374 60.51829268292683,79.67479674796748 60.416666666666664,79.77642276422765 60.264227642276424,79.8780487804878 60.11178861788618,79.97967479674797 59.959349593495936,80.03048780487805 59.80691056910569,80.1321138211382 59.70528455284553,80.1829268292683 59.603658536585364,80.23373983739837 59.552845528455286,80.28455284552845 59.5020325203252,80.28455284552845 59.5020325203252,80.28455284552845 59.5020325203252,80.23373983739837" fill="none" stroke="black" stroke-width="0.6"></polyline><polyline points="60.46747967479675,55.08130081300813 60.46747967479675,55.08130081300813 60.46747967479675,55.03048780487805 60.46747967479675,54.979674796747965 60.46747967479675,54.92886178861789 60.416666666666664,54.827235772357724 60.416666666666664,54.827235772357724 60.416666666666664,54.77642276422764 60.416666666666664,54.72560975609756 60.416666666666664,54.72560975609756 60.416666666666664,54.67479674796748 60.416666666666664,54.67479674796748 60.416666666666664,54.67479674796748 60.36585365853659,54.67479674796748 60.3150406504065,54.72560975609756 60.264227642276424,54.827235772357724 60.16260162601626,54.979674796747965 59.959349593495936,55.13211382113821 59.75609756097561,55.33536585365854 59.5020325203252,55.58943089430894 59.197154471544714,55.84349593495935 58.790650406504064,56.14837398373984 58.33333333333333,56.5040650406504 57.8760162601626,56.75813008130081 57.36788617886179,57.012195121951216 56.75813008130081,57.3170731707317 56.199186991869915,57.62195121951219 55.58943089430894,57.97764227642276 54.92886178861789,58.33333333333333 54.31910569105691,58.6890243902439 53.607723577235774,59.09552845528455 52.84552845528455,59.451219512195124 52.235772357723576,59.75609756097561 51.67682926829268,60.010162601626014 51.11788617886179,60.3150406504065 50.55894308943089,60.61991869918699 49.949186991869915,60.97560975609756 49.23780487804878,61.33130081300813 48.577235772357724,61.6869918699187 47.916666666666664,62.042682926829265 47.30691056910569,62.39837398373984 46.7479674796748,62.7540650406504 46.239837398373986,63.05894308943089 45.68089430894309,63.36382113821138 45.22357723577235,63.668699186991866 44.766260162601625,63.922764227642276 44.30894308943089,64.17682926829268 43.90243902439024,64.43089430894308 43.59756097560975,64.6341463414634 43.34349593495935,64.83739837398373 43.03861788617886,65.04065040650406" fill="none" stroke="black" stroke-width="0.6"></polyline><polyline points="43.03861788617886,65.04065040650406 42.63211382113821,65.29471544715447 42.17479674796748,65.59959349593495 41.76829268292683,65.90447154471545 41.36178861788618,66.15853658536585 40.95528455284553,66.46341463414635 40.59959349593496,66.71747967479675 40.24390243902439,66.97154471544715 39.88821138211382,67.22560975609755 39.583333333333336,67.42886178861788 39.329268292682926,67.6321138211382 38.97357723577235,67.83536585365853 38.61788617886179,68.08943089430895 38.262195121951216,68.34349593495935 37.855691056910565,68.59756097560975 37.5,68.85162601626016 37.14430894308943,69.15650406504065 36.78861788617886,69.41056910569105 36.483739837398375,69.61382113821138 36.1280487804878,69.86788617886178 35.77235772357724,70.1219512195122 35.46747967479675,70.32520325203252 35.0609756097561,70.630081300813 34.70528455284553,70.9349593495935 34.34959349593496,71.1890243902439 33.99390243902439,71.49390243902438 33.739837398373986,71.69715447154472 33.38414634146341,71.95121951219512 33.079268292682926,72.2560975609756 32.82520325203252,72.40853658536585 32.52032520325203,72.61178861788618 32.266260162601625,72.86585365853658 32.012195121951216,73.01829268292683 31.910569105691057,73.119918699187 31.758130081300813,73.22154471544715 31.554878048780488,73.42479674796748 31.30081300813008,73.6280487804878 31.097560975609756,73.83130081300813 30.995934959349594,73.9329268292683 30.640243902439025,74.1869918699187 30.4369918699187,74.33943089430895 30.284552845528456,74.49186991869918 30.08130081300813,74.59349593495935 29.928861788617887,74.7459349593496 29.776422764227643,74.84756097560975 29.6239837398374,74.94918699186992 29.522357723577237,75.05081300813008 29.369918699186993,75.15243902439025 29.217479674796746,75.30487804878048 29.115853658536583,75.40650406504065 28.912601626016258,75.5081300813008" fill="none" stroke="black" stroke-width="0.6"></polyline><polyline points="28.912601626016258,75.5081300813008 28.810975609756095,75.60975609756098 28.65853658536585,75.71138211382113 28.55691056910569,75.8130081300813 28.455284552845526,75.91463414634146 28.302845528455283,75.96544715447155 28.20121951219512,76.0670731707317 28.099593495934958,76.11788617886178 27.997967479674795,76.16869918699187 27.84552845528455,76.27032520325203 27.74390243902439,76.3211382113821 27.591463414634145,76.42276422764228 27.489837398373982,76.47357723577235 27.33739837398374,76.57520325203252 27.235772357723576,76.6260162601626 27.083333333333332,76.67682926829268 26.98170731707317,76.77845528455285 26.829268292682926,76.82926829268293 26.727642276422763,76.880081300813 26.6260162601626,76.98170731707317 26.473577235772357,77.03252032520325 26.371951219512194,77.1341463414634 26.270325203252032,77.1849593495935 26.21951219512195,77.23577235772358 26.16869918699187,77.28658536585365 26.067073170731707,77.28658536585365 26.067073170731707,77.33739837398373 26.016260162601625,77.33739837398373 26.016260162601625,77.33739837398373 26.016260162601625,77.33739837398373 26.016260162601625,77.33739837398373 26.016260162601625,77.33739837398373 26.016260162601625,77.33739837398373 26.067073170731707,77.33739837398373 26.117886178861788,77.28658536585365 26.21951219512195,77.23577235772358 26.270325203252032,77.1849593495935" fill="none" stroke="black" stroke-width="0.6"></polyline><polyline points="62.19512195121951,58.892276422764226 62.14430894308943,58.892276422764226 62.09349593495935,58.892276422764226 62.042682926829265,58.84146341463415 61.99186991869919,58.790650406504064 61.890243902439025,58.739837398373986 61.83943089430894,58.6890243902439 61.78861788617886,58.63821138211382 61.6869918699187,58.63821138211382 61.58536585365854,58.58739837398374 61.483739837398375,58.58739837398374 61.38211382113821,58.58739837398374 61.229674796747965,58.58739837398374 61.077235772357724,58.58739837398374 60.92479674796748,58.58739837398374 60.72154471544715,58.58739837398374 60.46747967479675,58.63821138211382 60.21341463414634,58.63821138211382 59.90853658536585,58.6890243902439 59.603658536585364,58.6890243902439 59.298780487804876,58.6890243902439 58.84146341463415,58.6890243902439 58.43495934959349,58.739837398373986 57.92682926829268,58.790650406504064 57.36788617886179,58.892276422764226 56.859756097560975,58.94308943089431 56.35162601626016,59.04471544715447 55.74186991869919,59.146341463414636 55.233739837398375,59.197154471544714 54.72560975609756,59.298780487804876 54.166666666666664,59.40040650406504 53.709349593495936,59.451219512195124 53.2520325203252,59.552845528455286 53.048780487804876,59.552845528455286 52.74390243902439,59.603658536585364 52.33739837398374,59.70528455284553 51.981707317073166,59.75609756097561 51.575203252032516,59.75609756097561 51.27032520325203,59.80691056910569 50.96544715447154,59.80691056910569 50.66056910569105,59.857723577235774 50.45731707317073,59.857723577235774 50.2540650406504,59.857723577235774 50,59.857723577235774 49.84756097560975,59.90853658536585 49.69512195121951,59.90853658536585 49.542682926829265,59.90853658536585 49.4410569105691,59.90853658536585 49.390243902439025,59.90853658536585 49.33943089430894,59.90853658536585 49.33943089430894,59.90853658536585" fill="none" stroke="black" stroke-width="0.6"></polyline><polyline points="49.33943089430894,59.90853658536585 49.28861788617886,59.90853658536585 49.23780487804878,59.90853658536585 49.23780487804878,59.90853658536585 49.1869918699187,59.857723577235774 49.1869918699187,59.857723577235774 49.136178861788615,59.857723577235774 49.136178861788615,59.857723577235774 49.136178861788615,59.857723577235774 49.136178861788615,59.857723577235774 49.136178861788615,59.857723577235774 49.136178861788615,59.857723577235774 49.136178861788615,59.857723577235774 49.136178861788615,59.857723577235774 49.136178861788615,59.857723577235774 49.136178861788615,59.857723577235774 49.136178861788615,59.959349593495936 49.136178861788615,60.11178861788618 49.136178861788615,60.36585365853659 49.136178861788615,60.72154471544715 49.136178861788615,61.1280487804878 49.136178861788615,61.6869918699187 49.136178861788615,62.296747967479675 49.136178861788615,63.00813008130081 49.08536585365854,63.71951219512195 49.08536585365854,64.32926829268293 49.08536585365854,64.9390243902439 49.08536585365854,65.59959349593495 49.08536585365854,66.15853658536585 49.08536585365854,66.76829268292683 49.08536585365854,67.32723577235772 49.03455284552845,67.88617886178862 49.03455284552845,68.4451219512195 49.03455284552845,68.90243902439025 49.03455284552845,69.41056910569105 49.03455284552845,69.86788617886178 49.03455284552845,70.22357723577235 49.03455284552845,70.57926829268293 49.03455284552845,70.9349593495935 49.03455284552845,71.13821138211382 49.03455284552845,71.34146341463415 49.03455284552845,71.54471544715447 49.03455284552845,71.64634146341463 49.03455284552845,71.79878048780488 49.03455284552845,72.0020325203252 49.03455284552845,72.15447154471545 49.03455284552845,72.3069105691057 49.08536585365854,72.51016260162602 49.08536585365854,72.66260162601625 49.136178861788615,72.8150406504065 49.136178861788615,73.01829268292683" fill="none" stroke="black" stroke-width="0.6"></polyline><polyline points="49.136178861788615,73.01829268292683 49.1869918699187,73.22154471544715 49.23780487804878,73.42479674796748 49.23780487804878,73.57723577235772 49.28861788617886,73.67886178861788 49.33943089430894,73.78048780487805 49.390243902439025,73.83130081300813 49.390243902439025,73.8821138211382 49.4410569105691,73.8821138211382 49.49186991869919,73.9329268292683 49.542682926829265,73.98373983739837 49.64430894308943,73.98373983739837 49.796747967479675,74.03455284552845 49.949186991869915,74.08536585365853 50.15243902439024,74.1869918699187 50.40650406504065,74.23780487804878 50.71138211382114,74.28861788617886 51.0670731707317,74.33943089430895 51.47357723577235,74.39024390243902 51.880081300813,74.4410569105691 52.28658536585366,74.49186991869918 52.79471544715447,74.54268292682927 53.302845528455286,74.59349593495935 53.760162601626014,74.64430894308943 54.26829268292683,74.6951219512195 54.67479674796748,74.7459349593496 55.08130081300813,74.79674796747967 55.48780487804878,74.79674796747967 55.84349593495935,74.84756097560975 56.199186991869915,74.89837398373983 56.55487804878049,74.94918699186992 56.91056910569105,74.94918699186992 57.266260162601625,75 57.62195121951219,75 57.97764227642276,75.05081300813008 58.38414634146341,75.05081300813008 58.790650406504064,75.05081300813008 59.09552845528455,75.05081300813008 59.451219512195124,75.05081300813008 59.75609756097561,75.05081300813008 60.0609756097561,75 60.3150406504065,75 60.56910569105691,75 60.77235772357724,75 60.97560975609756,75 61.17886178861789,75 61.38211382113821,75 61.58536585365854,75 61.73780487804878,75 61.9410569105691,75.05081300813008 62.09349593495935,75.05081300813008" fill="none" stroke="black" stroke-width="0.6"></polyline><polyline points="62.09349593495935,75.05081300813008 62.24593495934959,75.10162601626016 62.34756097560975,75.10162601626016 62.5,75.15243902439025 62.60162601626016,75.20325203252033 62.65243902439024,75.20325203252033 62.7540650406504,75.20325203252033 62.80487804878049,75.2540650406504 62.90650406504065,75.30487804878048 63.00813008130081,75.30487804878048 63.05894308943089,75.35569105691057 63.16056910569105,75.35569105691057 63.262195121951216,75.30487804878048" fill="none" stroke="black" stroke-width="0.6"></polyline><polyline points="61.229674796747965,58.94308943089431 61.077235772357724,58.94308943089431 60.97560975609756,58.94308943089431 60.823170731707314,58.94308943089431 60.670731707317074,58.99390243902439 60.46747967479675,59.146341463414636 60.264227642276424,59.40040650406504 60.010162601626014,59.70528455284553 59.75609756097561,60.11178861788618 59.40040650406504,60.56910569105691 59.09552845528455,61.02642276422764 58.790650406504064,61.43292682926829 58.38414634146341,61.890243902439025 58.02845528455284,62.296747967479675 57.62195121951219,62.80487804878049 57.11382113821138,63.36382113821138 56.605691056910565,63.82113821138211 56.199186991869915,64.22764227642276 55.74186991869919,64.6849593495935 55.33536585365854,65.09146341463415 54.92886178861789,65.59959349593495 54.52235772357724,66.0569105691057 54.166666666666664,66.5650406504065 53.760162601626014,67.07317073170732 53.353658536585364,67.6321138211382 52.947154471544714,68.03861788617886 52.59146341463415,68.4959349593496 52.1849593495935,68.95325203252033 51.829268292682926,69.41056910569105 51.47357723577235,69.86788617886178 51.11788617886179,70.22357723577235 50.86382113821138,70.52845528455285 50.66056910569105,70.83333333333333 50.45731707317073,71.1890243902439 50.2540650406504,71.49390243902438 50.05081300813008,71.84959349593495 49.84756097560975,72.15447154471545 49.64430894308943,72.35772357723577 49.49186991869919,72.5609756097561 49.390243902439025,72.71341463414635 49.33943089430894,72.86585365853658 49.23780487804878,72.96747967479675 49.23780487804878,73.01829268292683 49.1869918699187,73.0691056910569 49.1869918699187,73.119918699187 49.1869918699187,73.119918699187 49.136178861788615,73.17073170731707 49.136178861788615,73.22154471544715 49.136178861788615,73.27235772357723 49.08536585365854,73.32317073170732 49.08536585365854,73.3739837398374" fill="none" stroke="black" stroke-width="0.6"></polyline><polyline points="49.08536585365854,73.3739837398374 49.03455284552845,73.42479674796748 49.03455284552845,73.47560975609755 49.03455284552845,73.57723577235772" fill="none" stroke="black" stroke-width="0.6"></polyline><polyline points="56.199186991869915,67.53048780487805 56.09756097560975,67.53048780487805 55.99593495934959,67.47967479674797 55.74186991869919,67.42886178861788 55.48780487804878,67.42886178861788 55.28455284552845,67.42886178861788 55.08130081300813,67.58130081300813 54.8780487804878,67.78455284552845 54.72560975609756,67.98780487804878 54.6239837398374,68.24186991869918 54.52235772357724,68.59756097560975 54.47154471544715,69.10569105691057 54.420731707317074,69.66463414634146 54.420731707317074,70.17276422764228 54.52235772357724,70.73170731707317 54.67479674796748,71.23983739837398 54.8780487804878,71.7479674796748 55.13211382113821,72.15447154471545 55.4369918699187,72.45934959349593 55.84349593495935,72.71341463414635 56.199186991869915,72.91666666666667 56.605691056910565,73.0691056910569 57.0630081300813,73.22154471544715 57.418699186991866,73.27235772357723 57.825203252032516,73.27235772357723 58.18089430894309,73.27235772357723 58.43495934959349,73.27235772357723 58.6890243902439,73.17073170731707 58.892276422764226,73.0691056910569 59.09552845528455,72.91666666666667 59.298780487804876,72.76422764227642 59.5020325203252,72.5609756097561 59.70528455284553,72.3069105691057 59.959349593495936,71.95121951219512 60.16260162601626,71.54471544715447 60.36585365853659,71.08739837398373 60.56910569105691,70.630081300813 60.72154471544715,70.1219512195122 60.823170731707314,69.76626016260163 60.8739837398374,69.41056910569105 60.8739837398374,69.05487804878048 60.8739837398374,68.75 60.8739837398374,68.4959349593496 60.77235772357724,68.24186991869918 60.670731707317074,68.03861788617886 60.56910569105691,67.88617886178862 60.46747967479675,67.6321138211382 60.3150406504065,67.47967479674797 60.16260162601626,67.27642276422765 60.010162601626014,67.07317073170732 59.857723577235774,66.97154471544715" fill="none" stroke="black" stroke-width="0.6"></polyline><polyline points="59.857723577235774,66.97154471544715 59.65447154471545,66.869918699187 59.451219512195124,66.71747967479675 59.2479674796748,66.66666666666667 58.99390243902439,66.61585365853658 58.6890243902439,66.5650406504065 58.38414634146341,66.5650406504065 57.97764227642276,66.5650406504065 57.52032520325203,66.61585365853658 57.0630081300813,66.76829268292683 56.605691056910565,66.92073170731707 56.09756097560975,67.07317073170732 55.74186991869919,67.22560975609755 55.386178861788615,67.3780487804878 55.08130081300813,67.58130081300813 54.8780487804878,67.83536585365853 54.72560975609756,68.08943089430895 54.573170731707314,68.39430894308943 54.52235772357724,68.64837398373983 54.52235772357724,68.90243902439025 54.52235772357724,69.10569105691057 54.6239837398374,69.20731707317073" fill="none" stroke="black" stroke-width="0.6"></polyline><polyline points="56.70731707317073,69.46138211382113 56.65650406504065,69.46138211382113 56.55487804878049,69.41056910569105 56.453252032520325,69.35975609756098 56.40243902439024,69.35975609756098 56.40243902439024,69.35975609756098 56.40243902439024,69.35975609756098 56.40243902439024,69.41056910569105 56.40243902439024,69.51219512195122 56.5040650406504,69.5630081300813 56.605691056910565,69.5630081300813 56.70731707317073,69.61382113821138 56.75813008130081,69.61382113821138 56.859756097560975,69.61382113821138 56.91056910569105,69.5630081300813 56.96138211382114,69.51219512195122 56.96138211382114,69.46138211382113 57.012195121951216,69.41056910569105 57.012195121951216,69.41056910569105 57.012195121951216,69.35975609756098 57.012195121951216,69.3089430894309 57.012195121951216,69.2581300813008 56.96138211382114,69.2581300813008 56.91056910569105,69.2581300813008 56.859756097560975,69.2581300813008 56.859756097560975,69.35975609756098 56.80894308943089,69.41056910569105" fill="none" stroke="black" stroke-width="0.6"></polyline><polyline points="57.77439024390244,69.15650406504065 57.77439024390244,69.15650406504065 57.77439024390244,69.15650406504065 57.77439024390244,69.15650406504065 57.77439024390244,69.15650406504065 57.77439024390244,69.15650406504065 57.77439024390244,69.15650406504065 57.77439024390244,69.15650406504065 57.77439024390244,69.20731707317073 57.77439024390244,69.20731707317073 57.77439024390244,69.2581300813008 57.77439024390244,69.3089430894309 57.77439024390244,69.35975609756098 57.77439024390244,69.41056910569105 57.77439024390244,69.51219512195122 57.825203252032516,69.51219512195122 57.825203252032516,69.5630081300813 57.8760162601626,69.5630081300813 57.8760162601626,69.61382113821138 57.92682926829268,69.61382113821138 57.92682926829268,69.61382113821138 57.92682926829268,69.61382113821138 57.92682926829268,69.61382113821138 57.92682926829268,69.5630081300813 57.92682926829268,69.51219512195122 57.92682926829268,69.51219512195122 57.92682926829268,69.51219512195122 57.92682926829268,69.46138211382113 57.92682926829268,69.46138211382113 57.92682926829268,69.46138211382113 57.92682926829268,69.51219512195122 57.92682926829268,69.5630081300813 57.92682926829268,69.66463414634146" fill="none" stroke="black" stroke-width="0.6"></polyline><polyline points="57.012195121951216,71.4430894308943 57.012195121951216,71.4430894308943 56.96138211382114,71.39227642276423 56.91056910569105,71.39227642276423 56.859756097560975,71.34146341463415 56.80894308943089,71.34146341463415 56.80894308943089,71.34146341463415 56.80894308943089,71.34146341463415 56.859756097560975,71.39227642276423 56.96138211382114,71.49390243902438 57.11382113821138,71.54471544715447 57.3170731707317,71.59552845528455 57.46951219512195,71.59552845528455 57.57113821138211,71.59552845528455 57.72357723577235,71.59552845528455 57.77439024390244,71.59552845528455 57.825203252032516,71.49390243902438 57.8760162601626,71.4430894308943 57.8760162601626,71.39227642276423 57.825203252032516,71.29065040650406 57.672764227642276,71.23983739837398 57.57113821138211,71.1890243902439 57.418699186991866,71.1890243902439 57.3170731707317,71.1890243902439 57.21544715447154,71.1890243902439 57.11382113821138,71.23983739837398 57.0630081300813,71.34146341463415 57.012195121951216,71.4430894308943 57.012195121951216,71.4430894308943" fill="none" stroke="black" stroke-width="0.6"></polyline><polyline points="53.09959349593496,80.03048780487805 53.09959349593496,80.03048780487805 53.09959349593496,80.03048780487805 53.09959349593496,80.03048780487805 53.09959349593496,80.03048780487805 53.09959349593496,80.03048780487805" fill="none" stroke="black" stroke-width="0.6"></polyline><polyline points="53.40447154471545,80.08130081300813 53.40447154471545,80.08130081300813 53.40447154471545,80.08130081300813 53.353658536585364,80.08130081300813 53.302845528455286,80.08130081300813 53.2520325203252,80.08130081300813 53.201219512195124,80.08130081300813 53.15040650406504,80.08130081300813 53.09959349593496,80.08130081300813 53.09959349593496,80.08130081300813 53.048780487804876,80.1321138211382 53.048780487804876,80.23373983739837 53.048780487804876,80.33536585365853 53.048780487804876,80.48780487804878 53.048780487804876,80.64024390243902 53.048780487804876,80.89430894308943 53.09959349593496,81.14837398373983 53.15040650406504,81.5040650406504 53.201219512195124,81.85975609756098 53.2520325203252,82.21544715447155 53.302845528455286,82.46951219512195 53.353658536585364,82.72357723577235 53.40447154471545,82.8760162601626 53.45528455284553,83.02845528455285 53.50609756097561,83.130081300813 53.55691056910569,83.23170731707317 53.607723577235774,83.33333333333333 53.65853658536585,83.4349593495935 53.65853658536585,83.53658536585365 53.65853658536585,83.58739837398373 53.709349593495936,83.63821138211382 53.709349593495936,83.6890243902439 53.709349593495936,83.6890243902439 53.709349593495936,83.6890243902439 53.709349593495936,83.6890243902439 53.709349593495936,83.6890243902439 53.709349593495936,83.6890243902439 53.709349593495936,83.6890243902439 53.709349593495936,83.6890243902439 53.65853658536585,83.6890243902439 53.607723577235774,83.6890243902439 53.50609756097561,83.63821138211382 53.40447154471545,83.63821138211382 53.2520325203252,83.58739837398373 53.048780487804876,83.48577235772358 52.79471544715447,83.4349593495935 52.489837398373986,83.3841463414634 52.13414634146341,83.33333333333333 51.72764227642276,83.28252032520325 51.21951219512195,83.23170731707317 50.762195121951216,83.23170731707317" fill="none" stroke="black" stroke-width="0.6"></polyline><polyline points="50.762195121951216,83.23170731707317 50.203252032520325,83.23170731707317 49.74593495934959,83.28252032520325 49.33943089430894,83.3841463414634 48.88211382113821,83.4349593495935 48.47560975609756,83.53658536585365 48.06910569105691,83.58739837398373 47.61178861788618,83.6890243902439 47.25609756097561,83.73983739837398 46.90040650406504,83.79065040650406 46.44308943089431,83.89227642276423 46.08739837398374,83.9430894308943 45.78252032520325,83.9430894308943 45.47764227642276,83.99390243902438 45.22357723577235,83.99390243902438 44.918699186991866,84.04471544715447 44.66463414634146,84.04471544715447 44.41056910569105,84.04471544715447 44.15650406504065,84.04471544715447 43.85162601626016,84.04471544715447 43.64837398373984,84.04471544715447 43.44512195121951,84.04471544715447 43.24186991869919,84.04471544715447 43.140243902439025,84.04471544715447 43.03861788617886,84.04471544715447 42.98780487804878,84.04471544715447 42.9369918699187,84.04471544715447 42.9369918699187,83.99390243902438 42.98780487804878,83.9430894308943 43.03861788617886,83.79065040650406 43.1910569105691,83.63821138211382" fill="none" stroke="black" stroke-width="0.6"></polyline><polyline points="46.34146341463415,82.52032520325203 46.34146341463415,82.52032520325203 46.239837398373986,82.5711382113821 46.1890243902439,82.5711382113821 46.08739837398374,82.6219512195122 46.03658536585366,82.72357723577235 45.9349593495935,82.8760162601626 45.88414634146341,83.130081300813 45.78252032520325,83.48577235772358 45.73170731707317,83.89227642276423 45.73170731707317,84.34959349593495 45.73170731707317,84.7560975609756 45.833333333333336,85.11178861788618 45.985772357723576,85.36585365853658 46.08739837398374,85.41666666666667" fill="none" stroke="black" stroke-width="0.6"></polyline><polyline points="25.965447154471544,58.739837398373986 25.914634146341463,58.739837398373986 25.86382113821138,58.6890243902439 25.86382113821138,58.6890243902439 25.8130081300813,58.6890243902439 25.8130081300813,58.6890243902439 25.8130081300813,58.6890243902439 25.8130081300813,58.6890243902439 25.8130081300813,58.6890243902439 25.8130081300813,58.6890243902439 25.86382113821138,58.6890243902439 25.965447154471544,58.739837398373986 26.016260162601625,58.790650406504064 26.117886178861788,58.790650406504064 26.21951219512195,58.790650406504064 26.321138211382113,58.790650406504064 26.473577235772357,58.790650406504064 26.6260162601626,58.790650406504064 26.778455284552845,58.790650406504064 26.98170731707317,58.790650406504064 27.184959349593495,58.739837398373986 27.4390243902439,58.739837398373986 27.642276422764226,58.739837398373986 27.84552845528455,58.739837398373986 28.099593495934958,58.739837398373986 28.353658536585364,58.739837398373986 28.60772357723577,58.790650406504064 28.861788617886177,58.84146341463415 29.166666666666664,58.84146341463415 29.471544715447155,58.892276422764226 29.776422764227643,58.94308943089431 30.03048780487805,58.99390243902439 30.284552845528456,59.04471544715447 30.4369918699187,59.04471544715447 30.538617886178862,59.09552845528455 30.79268292682927,59.146341463414636 30.995934959349594,59.197154471544714 31.30081300813008,59.2479674796748 31.60569105691057,59.298780487804876 31.961382113821138,59.298780487804876 32.3170731707317,59.34959349593496 32.6219512195122,59.40040650406504 32.926829268292686,59.40040650406504 33.23170731707317,59.451219512195124 33.53658536585366,59.451219512195124 33.84146341463415,59.451219512195124 34.197154471544714,59.451219512195124 34.34959349593496,59.451219512195124 34.5020325203252,59.451219512195124 34.75609756097561,59.40040650406504 34.959349593495936,59.40040650406504" fill="none" stroke="black" stroke-width="0.6"></polyline><polyline points="34.959349593495936,59.40040650406504 35.0609756097561,59.40040650406504 35.3150406504065,59.34959349593496 35.56910569105691,59.34959349593496 35.823170731707314,59.34959349593496 36.077235772357724,59.298780487804876 36.33130081300813,59.298780487804876 36.53455284552845,59.298780487804876 36.73780487804878,59.298780487804876 36.9410569105691,59.298780487804876 37.14430894308943,59.298780487804876 37.296747967479675,59.298780487804876 37.39837398373984,59.298780487804876 37.55081300813008,59.34959349593496 37.703252032520325,59.34959349593496 37.80487804878049,59.40040650406504 37.90650406504065,59.40040650406504 38.00813008130081,59.40040650406504 38.05894308943089,59.451219512195124 38.05894308943089,59.451219512195124 38.109756097560975,59.451219512195124 38.109756097560975,59.451219512195124 38.109756097560975,59.451219512195124 38.109756097560975,59.451219512195124 38.109756097560975,59.451219512195124 38.109756097560975,59.451219512195124 38.109756097560975,59.451219512195124 38.109756097560975,59.451219512195124 38.109756097560975,59.451219512195124 38.109756097560975,59.451219512195124 38.109756097560975,59.451219512195124 38.109756097560975,59.451219512195124 38.109756097560975,59.5020325203252 38.109756097560975,59.603658536585364 38.16056910569105,59.70528455284553 38.21138211382114,59.857723577235774 38.21138211382114,60.11178861788618 38.262195121951216,60.416666666666664 38.3130081300813,60.823170731707314 38.41463414634146,61.28048780487805 38.46544715447154,61.78861788617886 38.5670731707317,62.34756097560975 38.668699186991866,62.90650406504065 38.77032520325203,63.36382113821138 38.87195121951219,63.77032520325203 38.922764227642276,64.17682926829268 38.97357723577235,64.43089430894308 39.02439024390244,64.6849593495935 39.07520325203252,64.98983739837398 39.07520325203252,65.1930894308943 39.1260162601626,65.39634146341463" fill="none" stroke="black" stroke-width="0.6"></polyline><polyline points="39.1260162601626,65.39634146341463 39.1260162601626,65.65040650406505 39.1260162601626,65.85365853658537 39.1260162601626,66.0060975609756 39.1260162601626,66.15853658536585 39.1260162601626,66.3109756097561 39.1260162601626,66.41260162601625 39.1260162601626,66.5650406504065 39.1260162601626,66.66666666666667 39.07520325203252,66.8191056910569 39.07520325203252,66.97154471544715 39.02439024390244,67.1239837398374 39.02439024390244,67.27642276422765 38.97357723577235,67.42886178861788 38.97357723577235,67.53048780487805 38.922764227642276,67.6829268292683 38.922764227642276,67.78455284552845 38.922764227642276,67.88617886178862 38.87195121951219,67.98780487804878 38.87195121951219,68.08943089430895 38.82113821138211,68.14024390243902 38.82113821138211,68.24186991869918 38.77032520325203,68.34349593495935 38.77032520325203,68.4959349593496 38.71951219512195,68.59756097560975 38.668699186991866,68.69918699186992 38.61788617886179,68.80081300813008 38.5670731707317,68.90243902439025 38.5670731707317,68.95325203252033 38.5670731707317,69.0040650406504 38.516260162601625,69.05487804878048 38.516260162601625,69.05487804878048 38.516260162601625,69.05487804878048 38.516260162601625,69.10569105691057 38.516260162601625,69.10569105691057 38.516260162601625,69.15650406504065 38.516260162601625,69.15650406504065 38.46544715447154,69.20731707317073 38.46544715447154,69.2581300813008 38.46544715447154,69.3089430894309 38.46544715447154,69.35975609756098 38.46544715447154,69.41056910569105 38.41463414634146,69.46138211382113 38.41463414634146,69.46138211382113 38.41463414634146,69.51219512195122 38.41463414634146,69.5630081300813 38.41463414634146,69.61382113821138 38.36382113821138,69.61382113821138 38.36382113821138,69.66463414634146 38.3130081300813,69.66463414634146 38.3130081300813,69.71544715447155" fill="none" stroke="black" stroke-width="0.6"></polyline><polyline points="38.3130081300813,69.71544715447155 38.262195121951216,69.71544715447155 38.16056910569105,69.76626016260163 38.05894308943089,69.76626016260163 37.90650406504065,69.8170731707317 37.65243902439024,69.86788617886178 37.39837398373984,69.86788617886178 36.99186991869919,69.91869918699187 36.53455284552845,70.02032520325203 36.077235772357724,70.0711382113821 35.56910569105691,70.1219512195122 35.0609756097561,70.22357723577235 34.552845528455286,70.27439024390243 34.04471544715447,70.3760162601626 33.58739837398374,70.42682926829268 33.13008130081301,70.47764227642276 32.672764227642276,70.52845528455285 32.21544715447154,70.57926829268293 31.859756097560975,70.630081300813 31.504065040650406,70.68089430894308 31.097560975609756,70.68089430894308 30.79268292682927,70.68089430894308 30.4369918699187,70.68089430894308 30.08130081300813,70.68089430894308 29.725609756097562,70.73170731707317 29.31910569105691,70.73170731707317 28.96341463414634,70.73170731707317 28.65853658536585,70.73170731707317 28.404471544715445,70.78252032520325 28.15040650406504,70.78252032520325 27.997967479674795,70.78252032520325 27.84552845528455,70.78252032520325 27.693089430894307,70.78252032520325 27.642276422764226,70.78252032520325 27.540650406504064,70.78252032520325 27.489837398373982,70.73170731707317 27.4390243902439,70.73170731707317 27.38821138211382,70.73170731707317 27.33739837398374,70.73170731707317 27.286585365853657,70.73170731707317 27.286585365853657,70.68089430894308 27.235772357723576,70.68089430894308 27.235772357723576,70.68089430894308 27.235772357723576,70.68089430894308 27.235772357723576,70.68089430894308 27.184959349593495,70.68089430894308 27.184959349593495,70.630081300813 27.134146341463413,70.630081300813 27.134146341463413,70.630081300813 27.083333333333332,70.630081300813 27.03252032520325,70.57926829268293" fill="none" stroke="black" stroke-width="0.6"></polyline><polyline points="27.03252032520325,70.57926829268293 26.98170731707317,70.57926829268293 26.93089430894309,70.52845528455285 26.880081300813007,70.52845528455285 26.829268292682926,70.52845528455285 26.727642276422763,70.47764227642276" fill="none" stroke="black" stroke-width="0.6"></polyline><polyline points="37.90650406504065,58.84146341463415 37.90650406504065,58.84146341463415 37.90650406504065,58.790650406504064 37.855691056910565,58.6890243902439 37.80487804878049,58.63821138211382 37.80487804878049,58.63821138211382 37.7540650406504,58.58739837398374 37.7540650406504,58.58739837398374 37.7540650406504,58.63821138211382 37.703252032520325,58.739837398373986 37.60162601626016,58.892276422764226 37.5,59.146341463414636 37.34756097560975,59.5020325203252 37.14430894308943,59.857723577235774 36.83943089430894,60.3150406504065 36.53455284552845,60.823170731707314 36.1280487804878,61.28048780487805 35.670731707317074,61.78861788617886 35.21341463414634,62.24593495934959 34.75609756097561,62.703252032520325 34.2479674796748,63.262195121951216 33.790650406504064,63.668699186991866 33.28252032520325,64.1260162601626 32.72357723577236,64.73577235772358 32.3170731707317,65.2439024390244 31.910569105691057,65.65040650406505 31.554878048780488,66.0060975609756 31.25,66.3109756097561 30.945121951219512,66.66666666666667 30.589430894308943,67.07317073170732 30.335365853658537,67.3780487804878 30.08130081300813,67.6829268292683 29.776422764227643,67.98780487804878 29.522357723577237,68.24186991869918 29.268292682926827,68.54674796747967 29.01422764227642,68.85162601626016 28.810975609756095,69.10569105691057 28.65853658536585,69.3089430894309 28.506097560975608,69.46138211382113 28.404471544715445,69.5630081300813 28.353658536585364,69.66463414634146 28.2520325203252,69.8170731707317 28.15040650406504,69.86788617886178 28.099593495934958,69.96951219512195 27.997967479674795,70.0711382113821 27.947154471544714,70.1219512195122 27.896341463414632,70.22357723577235 27.79471544715447,70.27439024390243 27.74390243902439,70.32520325203252 27.642276422764226,70.3760162601626 27.591463414634145,70.42682926829268" fill="none" stroke="black" stroke-width="0.6"></polyline><polyline points="27.591463414634145,70.42682926829268 27.540650406504064,70.47764227642276 27.4390243902439,70.57926829268293 27.33739837398374,70.630081300813 27.235772357723576,70.68089430894308 27.134146341463413,70.78252032520325 27.083333333333332,70.83333333333333 26.98170731707317,70.8841463414634 26.93089430894309,70.8841463414634 26.93089430894309,70.9349593495935 26.93089430894309,70.9349593495935 27.03252032520325,70.9349593495935" fill="none" stroke="black" stroke-width="0.6"></polyline><polyline points="24.847560975609756,61.483739837398375 24.745934959349594,61.38211382113821 24.695121951219512,61.229674796747965 24.64430894308943,61.1280487804878 24.64430894308943,61.02642276422764 24.64430894308943,60.97560975609756 24.847560975609756,60.92479674796748 25.101626016260163,60.8739837398374 25.40650406504065,60.823170731707314 25.86382113821138,60.77235772357724 26.473577235772357,60.77235772357724 27.184959349593495,60.77235772357724 27.997967479674795,60.823170731707314 28.861788617886177,60.92479674796748 29.67479674796748,61.1280487804878 30.48780487804878,61.229674796747965 31.30081300813008,61.33130081300813 32.012195121951216,61.38211382113821 32.77439024390244,61.38211382113821 33.58739837398374,61.38211382113821 34.2479674796748,61.38211382113821 34.857723577235774,61.38211382113821 35.416666666666664,61.43292682926829 35.8739837398374,61.483739837398375 36.28048780487805,61.483739837398375 36.6869918699187,61.53455284552845 36.9410569105691,61.53455284552845 37.19512195121951,61.58536585365854 37.34756097560975,61.636178861788615 37.39837398373984,61.6869918699187" fill="none" stroke="black" stroke-width="0.6"></polyline><polyline points="26.21951219512195,64.1260162601626 26.16869918699187,64.07520325203252 26.117886178861788,63.97357723577235 26.067073170731707,63.87195121951219 26.016260162601625,63.77032520325203 26.016260162601625,63.71951219512195 26.016260162601625,63.668699186991866 26.117886178861788,63.61788617886179 26.21951219512195,63.5670731707317 26.422764227642276,63.46544715447154 26.727642276422763,63.41463414634146 27.134146341463413,63.3130081300813 27.642276422764226,63.262195121951216 28.302845528455283,63.16056910569105 29.0650406504065,63.109756097560975 29.827235772357724,63.109756097560975 30.233739837398375,63.109756097560975 30.589430894308943,63.109756097560975 31.30081300813008,63.109756097560975 31.60569105691057,63.109756097560975 31.859756097560975,63.16056910569105 32.418699186991866,63.21138211382114 32.926829268292686,63.21138211382114 33.38414634146341,63.262195121951216 33.790650406504064,63.262195121951216 34.197154471544714,63.3130081300813 34.552845528455286,63.3130081300813 34.80691056910569,63.3130081300813 35.0609756097561,63.3130081300813" fill="none" stroke="black" stroke-width="0.6"></polyline><polyline points="26.117886178861788,65.80284552845528 26.067073170731707,65.80284552845528 26.016260162601625,65.80284552845528 25.86382113821138,65.65040650406505 25.76219512195122,65.54878048780488 25.711382113821138,65.4979674796748 25.711382113821138,65.44715447154472 25.76219512195122,65.39634146341463 25.914634146341463,65.34552845528455 26.21951219512195,65.29471544715447 26.6260162601626,65.1930894308943 27.134146341463413,65.14227642276423 27.79471544715447,65.09146341463415 28.506097560975608,65.09146341463415 29.217479674796746,65.09146341463415 29.928861788617887,65.09146341463415 30.48780487804878,65.14227642276423 30.945121951219512,65.1930894308943 31.402439024390244,65.1930894308943 31.70731707317073,65.1930894308943 31.961382113821138,65.1930894308943 32.0630081300813,65.1930894308943" fill="none" stroke="black" stroke-width="0.6"></polyline><polyline points="26.016260162601625,67.58130081300813 25.965447154471544,67.58130081300813 25.8130081300813,67.53048780487805 25.660569105691057,67.42886178861788 25.609756097560975,67.42886178861788 25.609756097560975,67.42886178861788 25.660569105691057,67.42886178861788 25.8130081300813,67.42886178861788 26.16869918699187,67.42886178861788 26.6260162601626,67.42886178861788 27.184959349593495,67.42886178861788 27.84552845528455,67.42886178861788 28.65853658536585,67.42886178861788 29.471544715447155,67.42886178861788" fill="none" stroke="black" stroke-width="0.6"></polyline><polyline points="52.235772357723576,68.14024390243902 52.1849593495935,68.14024390243902 52.1849593495935,68.14024390243902 52.13414634146341,68.14024390243902 52.083333333333336,68.14024390243902 52.03252032520325,68.14024390243902 51.981707317073166,68.14024390243902 51.93089430894309,68.14024390243902 51.880081300813,68.14024390243902 51.829268292682926,68.14024390243902 51.77845528455284,68.14024390243902 51.72764227642276,68.1910569105691 51.67682926829268,68.1910569105691 51.67682926829268,68.1910569105691 51.67682926829268,68.1910569105691 51.6260162601626,68.24186991869918 51.6260162601626,68.24186991869918 51.6260162601626,68.24186991869918 51.6260162601626,68.24186991869918 51.6260162601626,68.24186991869918 51.6260162601626,68.24186991869918 51.6260162601626,68.24186991869918 51.6260162601626,68.24186991869918 51.67682926829268,68.24186991869918 51.67682926829268,68.24186991869918 51.67682926829268,68.24186991869918 51.67682926829268,68.24186991869918 51.67682926829268,68.24186991869918 51.67682926829268,68.24186991869918 51.67682926829268,68.24186991869918 51.67682926829268,68.24186991869918 51.72764227642276,68.1910569105691 51.72764227642276,68.08943089430895 51.77845528455284,67.88617886178862 51.77845528455284,67.53048780487805 51.880081300813,67.02235772357723 51.93089430894309,66.41260162601625 51.93089430894309,65.7520325203252 51.93089430894309,64.98983739837398 51.93089430894309,64.32926829268293 51.829268292682926,63.61788617886179 51.72764227642276,62.855691056910565 51.6260162601626,62.14430894308943 51.47357723577235,61.43292682926829 51.32113821138211,60.77235772357724 51.27032520325203,60.264227642276424 51.168699186991866,59.857723577235774 51.11788617886179,59.451219512195124 51.11788617886179,59.2479674796748 51.11788617886179,59.09552845528455 51.11788617886179,59.04471544715447" fill="none" stroke="black" stroke-width="0.6"></polyline><polyline points="51.11788617886179,59.04471544715447 51.11788617886179,58.99390243902439 51.11788617886179,58.94308943089431 51.11788617886179,58.94308943089431 51.11788617886179,58.94308943089431 51.11788617886179,58.94308943089431 51.168699186991866,58.94308943089431 51.27032520325203,58.99390243902439 51.32113821138211,59.09552845528455 51.422764227642276,59.2479674796748 51.422764227642276,59.40040650406504 51.422764227642276,59.5020325203252" fill="none" stroke="black" stroke-width="0.6"></polyline><polyline points="50.609756097560975,62.855691056910565 50.609756097560975,62.7540650406504 50.55894308943089,62.60162601626016 50.50813008130081,62.5 50.50813008130081,62.5 50.50813008130081,62.449186991869915 50.55894308943089,62.449186991869915 50.66056910569105,62.39837398373984 50.86382113821138,62.39837398373984 51.168699186991866,62.39837398373984 51.47357723577235,62.39837398373984 51.829268292682926,62.39837398373984 52.1849593495935,62.39837398373984 52.489837398373986,62.449186991869915 52.74390243902439,62.5 52.947154471544714,62.60162601626016 53.09959349593496,62.7540650406504 53.15040650406504,62.80487804878049" fill="none" stroke="black" stroke-width="0.6"></polyline><polyline points="50.2540650406504,64.02439024390243 50.2540650406504,64.02439024390243 50.2540650406504,63.97357723577235 50.203252032520325,63.82113821138211 50.15243902439024,63.71951219512195 50.15243902439024,63.668699186991866 50.15243902439024,63.61788617886179 50.203252032520325,63.61788617886179 50.40650406504065,63.5670731707317 50.71138211382114,63.46544715447154 51.11788617886179,63.41463414634146 51.52439024390244,63.41463414634146 51.93089430894309,63.36382113821138 52.33739837398374,63.36382113821138 52.59146341463415,63.36382113821138 52.79471544715447,63.41463414634146 52.947154471544714,63.46544715447154 53.048780487804876,63.46544715447154" fill="none" stroke="black" stroke-width="0.6"></polyline><polyline points="50.609756097560975,65.2439024390244 50.609756097560975,65.2439024390244 50.609756097560975,65.1930894308943 50.609756097560975,65.09146341463415 50.609756097560975,65.04065040650406 50.609756097560975,64.98983739837398 50.66056910569105,64.98983739837398 50.8130081300813,64.9390243902439 51.0670731707317,64.88821138211382 51.37195121951219,64.83739837398373 51.77845528455284,64.83739837398373 52.235772357723576,64.78658536585365 52.642276422764226,64.78658536585365 52.9979674796748,64.83739837398373 53.15040650406504,64.88821138211382" fill="none" stroke="black" stroke-width="0.6"></polyline><polyline points="77.08333333333333,72.8150406504065 77.08333333333333,72.8150406504065 77.08333333333333,72.8150406504065 77.08333333333333,72.8150406504065 77.1341463414634,72.8150406504065 77.1341463414634,72.8150406504065 77.1341463414634,72.8150406504065 77.1341463414634,72.8150406504065 77.1341463414634,72.8150406504065 77.1341463414634,72.8150406504065 77.1341463414634,72.8150406504065 77.1341463414634,72.8150406504065 77.1341463414634,72.8150406504065 77.1341463414634,72.8150406504065 77.1341463414634,72.8150406504065 77.1341463414634,72.8150406504065 77.1341463414634,72.8150406504065 77.1341463414634,72.8150406504065 77.1341463414634,72.8150406504065 77.1341463414634,72.8150406504065 77.1341463414634,72.8150406504065 77.1341463414634,72.8150406504065 77.1341463414634,72.8150406504065 77.1341463414634,72.8150406504065 77.1341463414634,72.8150406504065 77.1341463414634,72.86585365853658 77.1341463414634,72.91666666666667 77.1849593495935,73.01829268292683 77.23577235772358,73.17073170731707 77.33739837398373,73.3739837398374 77.4390243902439,73.6280487804878 77.48983739837398,73.8821138211382 77.59146341463415,74.08536585365853 77.6930894308943,74.28861788617886 77.74390243902438,74.4410569105691 77.79471544715447,74.54268292682927 77.84552845528455,74.54268292682927 77.84552845528455,74.59349593495935 77.89634146341463,74.59349593495935 77.89634146341463,74.59349593495935 77.89634146341463,74.59349593495935 77.89634146341463,74.59349593495935 77.89634146341463,74.59349593495935 77.89634146341463,74.59349593495935 77.89634146341463,74.59349593495935 77.89634146341463,74.59349593495935 77.89634146341463,74.54268292682927 77.89634146341463,74.54268292682927 77.89634146341463,74.54268292682927 77.89634146341463,74.54268292682927 77.89634146341463,74.54268292682927" fill="none" stroke="black" stroke-width="0.6"></polyline><polyline points="77.89634146341463,74.54268292682927 77.89634146341463,74.54268292682927 77.89634146341463,74.54268292682927 77.89634146341463,74.54268292682927 77.89634146341463,74.54268292682927 77.89634146341463,74.54268292682927 77.89634146341463,74.54268292682927 77.84552845528455,74.54268292682927 77.84552845528455,74.54268292682927 77.84552845528455,74.54268292682927 77.79471544715447,74.54268292682927 77.74390243902438,74.59349593495935 77.6930894308943,74.59349593495935 77.59146341463415,74.6951219512195 77.48983739837398,74.7459349593496 77.38821138211382,74.84756097560975 77.23577235772358,75 77.03252032520325,75.15243902439025 76.880081300813,75.35569105691057 76.72764227642276,75.5589430894309 76.57520325203252,75.71138211382113 76.3719512195122,75.91463414634146 76.27032520325203,76.11788617886178 76.11788617886178,76.3211382113821 75.96544715447155,76.52439024390243 75.8130081300813,76.77845528455285 75.66056910569105,76.98170731707317 75.5589430894309,77.1849593495935 75.45731707317073,77.38821138211382 75.35569105691057,77.54065040650406 75.2540650406504,77.6930894308943 75.20325203252033,77.79471544715447 75.10162601626016,77.89634146341463 75.05081300813008,77.9979674796748 75,78.09959349593495 74.94918699186992,78.20121951219512 74.89837398373983,78.2520325203252 74.84756097560975,78.30284552845528 74.79674796747967,78.35365853658537 74.7459349593496,78.40447154471545 74.7459349593496,78.40447154471545 74.6951219512195,78.45528455284553 74.6951219512195,78.45528455284553 74.6951219512195,78.45528455284553 74.6951219512195,78.45528455284553 74.6951219512195,78.45528455284553 74.6951219512195,78.45528455284553 74.6951219512195,78.45528455284553 74.6951219512195,78.45528455284553 74.6951219512195,78.45528455284553 74.6951219512195,78.45528455284553" fill="none" stroke="black" stroke-width="0.6"></polyline><polyline points="74.6951219512195,78.45528455284553 74.6951219512195,78.45528455284553 74.6951219512195,78.45528455284553 74.6951219512195,78.45528455284553 74.6951219512195,78.45528455284553 74.6951219512195,78.45528455284553 74.6951219512195,78.45528455284553 74.6951219512195,78.45528455284553 74.6951219512195,78.45528455284553 74.6951219512195,78.45528455284553 74.6951219512195,78.45528455284553 74.6951219512195,78.45528455284553 74.6951219512195,78.45528455284553 74.6951219512195,78.45528455284553 74.6951219512195,78.45528455284553 74.6951219512195,78.45528455284553 74.6951219512195,78.45528455284553 74.6951219512195,78.45528455284553 74.6951219512195,78.45528455284553 74.6951219512195,78.45528455284553 74.6951219512195,78.45528455284553 74.6951219512195,78.45528455284553 74.6951219512195,78.45528455284553 74.6951219512195,78.45528455284553 74.6951219512195,78.45528455284553 74.7459349593496,78.45528455284553 74.7459349593496,78.5060975609756 74.84756097560975,78.60772357723577 74.94918699186992,78.76016260162602 75.05081300813008,79.01422764227642 75.20325203252033,79.26829268292683 75.35569105691057,79.52235772357723 75.5081300813008,79.77642276422765 75.60975609756098,80.08130081300813 75.76219512195122,80.38617886178862 75.86382113821138,80.64024390243902 75.96544715447155,80.84349593495935 76.0670731707317,81.04674796747967 76.11788617886178,81.14837398373983 76.16869918699187,81.30081300813008 76.27032520325203,81.40243902439025 76.27032520325203,81.55487804878048 76.3719512195122,81.70731707317073 76.42276422764228,81.85975609756098 76.47357723577235,82.01219512195122 76.52439024390243,82.16463414634146 76.57520325203252,82.3170731707317 76.6260162601626,82.41869918699187 76.67682926829268,82.52032520325203 76.67682926829268,82.6219512195122 76.72764227642276,82.67276422764228" fill="none" stroke="black" stroke-width="0.6"></polyline><polyline points="76.72764227642276,82.67276422764228 76.72764227642276,82.77439024390243 76.77845528455285,82.77439024390243 76.77845528455285,82.82520325203252 76.77845528455285,82.8760162601626 76.82926829268293,82.8760162601626 76.82926829268293,82.92682926829268 76.82926829268293,82.92682926829268 76.82926829268293,82.97764227642276 76.880081300813,83.02845528455285 76.880081300813,83.02845528455285 76.880081300813,83.07926829268293 76.880081300813,83.07926829268293 76.93089430894308,83.130081300813 76.93089430894308,83.130081300813 76.93089430894308,83.130081300813 76.93089430894308,83.130081300813 76.93089430894308,83.130081300813 76.93089430894308,83.130081300813 76.93089430894308,83.130081300813 76.93089430894308,83.130081300813 76.93089430894308,83.130081300813 76.93089430894308,83.130081300813 76.93089430894308,83.07926829268293 76.98170731707317,83.02845528455285 76.98170731707317,82.92682926829268 77.03252032520325,82.77439024390243 77.1341463414634,82.52032520325203 77.23577235772358,82.26626016260163 77.38821138211382,81.96138211382113 77.48983739837398,81.65650406504065 77.6930894308943,81.30081300813008 77.79471544715447,81.04674796747967 77.9471544715447,80.84349593495935 78.09959349593495,80.64024390243902 78.15040650406505,80.53861788617886 78.2520325203252,80.4369918699187 78.35365853658537,80.28455284552845 78.5060975609756,80.1829268292683 78.60772357723577,80.03048780487805 78.76016260162602,79.8780487804878 78.91260162601625,79.72560975609755 79.0650406504065,79.57317073170732 79.21747967479675,79.42073170731707 79.3191056910569,79.3191056910569 79.47154471544715,79.21747967479675 79.57317073170732,79.0650406504065 79.72560975609755,79.01422764227642 79.82723577235772,78.91260162601625 79.92886178861788,78.8109756097561 80.03048780487805,78.70934959349593" fill="none" stroke="black" stroke-width="0.6"></polyline><polyline points="80.03048780487805,78.70934959349593 80.1829268292683,78.5569105691057 80.33536585365853,78.40447154471545 80.4369918699187,78.2520325203252 80.58943089430895,78.04878048780488 80.74186991869918,77.89634146341463 80.84349593495935,77.74390243902438 80.9451219512195,77.59146341463415 80.9959349593496,77.48983739837398 81.04674796747967,77.4390243902439 81.04674796747967,77.38821138211382 81.04674796747967,77.38821138211382 81.04674796747967,77.38821138211382 81.04674796747967,77.38821138211382 81.04674796747967,77.33739837398373 80.9959349593496,77.33739837398373 80.9959349593496,77.33739837398373 80.9451219512195,77.28658536585365 80.9451219512195,77.23577235772358 80.89430894308943,77.1849593495935 80.84349593495935,77.1341463414634 80.74186991869918,77.03252032520325 80.6910569105691,76.93089430894308 80.58943089430895,76.82926829268293 80.48780487804878,76.72764227642276 80.33536585365853,76.6260162601626 80.23373983739837,76.52439024390243 80.1321138211382,76.42276422764228 79.97967479674797,76.21951219512195 79.77642276422765,76.01626016260163 79.57317073170732,75.8130081300813 79.3191056910569,75.5081300813008 79.11585365853658,75.2540650406504 78.96341463414635,75.05081300813008 78.8109756097561,74.84756097560975 78.65853658536585,74.7459349593496 78.5060975609756,74.59349593495935 78.35365853658537,74.4410569105691 78.20121951219512,74.33943089430895 78.09959349593495,74.23780487804878 77.9471544715447,74.08536585365853 77.79471544715447,74.03455284552845 77.6930894308943,73.98373983739837 77.59146341463415,73.8821138211382 77.48983739837398,73.83130081300813 77.4390243902439,73.83130081300813 77.38821138211382,73.78048780487805 77.33739837398373,73.78048780487805 77.28658536585365,73.72967479674797 77.28658536585365,73.72967479674797 77.23577235772358,73.72967479674797" fill="none" stroke="black" stroke-width="0.6"></polyline><polyline points="77.23577235772358,73.72967479674797 77.23577235772358,73.72967479674797 77.23577235772358,73.72967479674797 77.23577235772358,73.72967479674797 77.23577235772358,73.72967479674797 77.23577235772358,73.72967479674797 77.23577235772358,73.72967479674797 77.23577235772358,73.72967479674797 77.23577235772358,73.72967479674797 77.23577235772358,73.72967479674797 77.23577235772358,73.72967479674797 77.23577235772358,73.72967479674797 77.28658536585365,73.72967479674797 77.38821138211382,73.72967479674797" fill="none" stroke="black" stroke-width="0.6"></polyline></svg>