<svg height="100" width="100" preserveAspectRatio="xMidYMid meet"><polyline points="49.33943089430894,50.45731707317073 49.23780487804878,50.45731707317073 49.1869918699187,50.45731707317073 49.136178861788615,50.45731707317073 49.136178861788615,50.45731707317073 49.136178861788615,50.45731707317073 49.136178861788615,50.45731707317073 49.136178861788615,50.45731707317073 49.136178861788615,50.45731707317073 49.136178861788615,50.45731707317073 49.1869918699187,50.45731707317073 49.23780487804878,50.45731707317073 49.33943089430894,50.45731707317073 49.390243902439025,50.45731707317073 49.4410569105691,50.45731707317073 49.542682926829265,50.40650406504065 49.59349593495935,50.40650406504065 49.69512195121951,50.355691056910565 49.796747967479675,50.30487804878049 49.84756097560975,50.30487804878049 49.89837398373984,50.2540650406504 50,50.15243902439024 50.10162601626016,50.05081300813008 50.15243902439024,49.949186991869915 50.203252032520325,49.796747967479675 50.2540650406504,49.64430894308943 50.30487804878049,49.49186991869919 50.30487804878049,49.33943089430894 50.30487804878049,49.23780487804878 50.30487804878049,49.08536585365854 50.30487804878049,48.983739837398375 50.2540650406504,48.88211382113821 50.203252032520325,48.78048780487805 50.10162601626016,48.729674796747965 50,48.6280487804878 49.89837398373984,48.577235772357724 49.796747967479675,48.52642276422764 49.69512195121951,48.42479674796748 49.542682926829265,48.3739837398374 49.4410569105691,48.27235772357724 49.28861788617886,48.22154471544715 49.136178861788615,48.11991869918699 49.03455284552845,48.01829268292683 48.88211382113821,47.96747967479675 48.78048780487805,47.86585365853659 48.6280487804878,47.86585365853659 48.52642276422764,47.8150406504065 48.42479674796748,47.8150406504065 48.27235772357724,47.8150406504065 48.170731707317074,47.8150406504065 48.06910569105691,47.86585365853659" fill="none" stroke="black" stroke-width="0.6"></polyline><polyline points="48.06910569105691,47.86585365853659 47.96747967479675,47.96747967479675 47.8150406504065,48.06910569105691 47.71341463414634,48.11991869918699 47.61178861788618,48.22154471544715 47.510162601626014,48.323170731707314 47.459349593495936,48.42479674796748 47.357723577235774,48.52642276422764 47.25609756097561,48.67886178861789 47.15447154471545,48.78048780487805 47.103658536585364,48.93292682926829 47.0020325203252,49.136178861788615 46.951219512195124,49.28861788617886 46.90040650406504,49.4410569105691 46.84959349593496,49.64430894308943 46.84959349593496,49.796747967479675 46.798780487804876,50 46.798780487804876,50.203252032520325 46.798780487804876,50.40650406504065 46.7479674796748,50.609756097560975 46.7479674796748,50.8130081300813 46.697154471544714,51.016260162601625 46.697154471544714,51.168699186991866 46.646341463414636,51.37195121951219 46.646341463414636,51.52439024390244 46.646341463414636,51.72764227642276 46.59552845528455,51.880081300813 46.59552845528455,52.03252032520325 46.54471544715447,52.1849593495935 46.54471544715447,52.38821138211382 46.54471544715447,52.540650406504064 46.54471544715447,52.69308943089431 46.54471544715447,52.84552845528455 46.59552845528455,52.947154471544714 46.59552845528455,53.09959349593496 46.646341463414636,53.201219512195124 46.7479674796748,53.353658536585364 46.798780487804876,53.45528455284553 46.84959349593496,53.55691056910569 46.951219512195124,53.65853658536585 47.052845528455286,53.760162601626014 47.15447154471545,53.86178861788618 47.25609756097561,53.96341463414634 47.357723577235774,54.0650406504065 47.459349593495936,54.166666666666664 47.5609756097561,54.21747967479675 47.71341463414634,54.31910569105691 47.8150406504065,54.36991869918699 47.96747967479675,54.420731707317074 48.06910569105691,54.52235772357724 48.22154471544715,54.573170731707314" fill="none" stroke="black" stroke-width="0.6"></polyline><polyline points="48.22154471544715,54.573170731707314 48.323170731707314,54.6239837398374 48.47560975609756,54.67479674796748 48.577235772357724,54.72560975609756 48.729674796747965,54.77642276422764 48.88211382113821,54.77642276422764 48.983739837398375,54.827235772357724 49.136178861788615,54.8780487804878 49.28861788617886,54.8780487804878 49.4410569105691,54.92886178861789 49.49186991869919,54.92886178861789 49.542682926829265,54.92886178861789 49.69512195121951,54.92886178861789 49.84756097560975,54.92886178861789 50,54.979674796747965 50.15243902439024,54.979674796747965 50.30487804878049,54.979674796747965 50.45731707317073,54.979674796747965 50.609756097560975,54.979674796747965 50.762195121951216,54.979674796747965 50.91463414634146,54.92886178861789 51.0670731707317,54.92886178861789 51.21951219512195,54.8780487804878 51.422764227642276,54.8780487804878 51.575203252032516,54.827235772357724 51.72764227642276,54.77642276422764 51.880081300813,54.77642276422764 52.03252032520325,54.72560975609756 52.1849593495935,54.67479674796748 52.38821138211382,54.6239837398374 52.540650406504064,54.52235772357724 52.74390243902439,54.47154471544715 52.947154471544714,54.36991869918699 53.201219512195124,54.26829268292683 53.45528455284553,54.166666666666664 53.709349593495936,54.014227642276424 53.96341463414634,53.91260162601626 54.21747967479675,53.760162601626014 54.47154471544715,53.65853658536585 54.72560975609756,53.55691056910569 54.979674796747965,53.45528455284553 55.18292682926829,53.353658536585364 55.386178861788615,53.201219512195124 55.58943089430894,53.09959349593496 55.792682926829265,52.947154471544714 55.99593495934959,52.79471544715447 56.14837398373984,52.642276422764226 56.30081300813008,52.489837398373986 56.453252032520325,52.38821138211382 56.5040650406504,52.235772357723576 56.605691056910565,52.083333333333336" fill="none" stroke="black" stroke-width="0.6"></polyline><polyline points="56.605691056910565,52.083333333333336 56.65650406504065,51.981707317073166 56.70731707317073,51.829268292682926 56.75813008130081,51.72764227642276 56.80894308943089,51.575203252032516 56.859756097560975,51.47357723577235 56.859756097560975,51.32113821138211 56.91056910569105,51.21951219512195 56.91056910569105,51.0670731707317 56.91056910569105,50.96544715447154 56.91056910569105,50.8130081300813 56.91056910569105,50.66056910569105 56.91056910569105,50.50813008130081 56.91056910569105,50.355691056910565 56.91056910569105,50.203252032520325 56.91056910569105,50.05081300813008 56.859756097560975,49.89837398373984 56.859756097560975,49.74593495934959 56.80894308943089,49.542682926829265 56.80894308943089,49.390243902439025 56.75813008130081,49.23780487804878 56.70731707317073,49.03455284552845 56.70731707317073,48.88211382113821 56.65650406504065,48.67886178861789 56.605691056910565,48.52642276422764 56.605691056910565,48.323170731707314 56.55487804878049,48.170731707317074 56.5040650406504,47.96747967479675 56.5040650406504,47.764227642276424 56.453252032520325,47.5609756097561 56.40243902439024,47.357723577235774 56.35162601626016,47.103658536585364 56.30081300813008,46.90040650406504 56.25,46.697154471544714 56.199186991869915,46.49390243902439 56.14837398373984,46.290650406504064 56.09756097560975,46.03658536585366 55.99593495934959,45.833333333333336 55.94512195121951,45.579268292682926 55.84349593495935,45.325203252032516 55.792682926829265,45.12195121951219 55.74186991869919,44.918699186991866 55.640243902439025,44.66463414634146 55.53861788617886,44.46138211382114 55.48780487804878,44.25813008130081 55.386178861788615,44.105691056910565 55.33536585365854,44.0040650406504 55.28455284552845,43.90243902439024 55.18292682926829,43.699186991869915 55.03048780487805,43.546747967479675 54.92886178861789,43.34349593495935" fill="none" stroke="black" stroke-width="0.6"></polyline><polyline points="54.92886178861789,43.34349593495935 54.827235772357724,43.1910569105691 54.72560975609756,42.98780487804878 54.6239837398374,42.886178861788615 54.52235772357724,42.733739837398375 54.420731707317074,42.63211382113821 54.31910569105691,42.53048780487805 54.166666666666664,42.42886178861789 54.0650406504065,42.27642276422764 53.96341463414634,42.22560975609756 53.8109756097561,42.1239837398374 53.709349593495936,42.073170731707314 53.607723577235774,41.97154471544715 53.45528455284553,41.920731707317074 53.353658536585364,41.86991869918699 53.201219512195124,41.76829268292683 53.048780487804876,41.71747967479675 52.896341463414636,41.666666666666664 52.74390243902439,41.61585365853659 52.642276422764226,41.5650406504065 52.4390243902439,41.514227642276424 52.28658536585366,41.46341463414634 52.13414634146341,41.41260162601626 51.981707317073166,41.41260162601626 51.77845528455284,41.36178861788618 51.575203252032516,41.3109756097561 51.37195121951219,41.3109756097561 51.11788617886179,41.260162601626014 50.86382113821138,41.260162601626014 50.609756097560975,41.260162601626014 50.355691056910565,41.260162601626014 50.10162601626016,41.260162601626014 49.796747967479675,41.3109756097561 49.49186991869919,41.3109756097561 49.1869918699187,41.41260162601626 48.83130081300813,41.46341463414634 48.47560975609756,41.514227642276424 48.11991869918699,41.61585365853659 47.764227642276424,41.666666666666664 47.40853658536585,41.71747967479675 47.052845528455286,41.81910569105691 46.646341463414636,41.86991869918699 46.392276422764226,41.97154471544715 46.08739837398374,42.02235772357724 45.78252032520325,42.073170731707314 45.52845528455285,42.1239837398374 45.22357723577235,42.22560975609756 44.918699186991866,42.27642276422764 44.66463414634146,42.327235772357724 44.41056910569105,42.42886178861789 44.105691056910565,42.479674796747965" fill="none" stroke="black" stroke-width="0.6"></polyline><polyline points="44.105691056910565,42.479674796747965 43.90243902439024,42.53048780487805 43.75,42.58130081300813 43.546747967479675,42.63211382113821 43.44512195121951,42.733739837398375 43.292682926829265,42.78455284552845 43.140243902439025,42.886178861788615 42.98780487804878,43.03861788617886 42.9369918699187,43.08943089430894 42.83536585365854,43.140243902439025 42.733739837398375,43.292682926829265 42.58130081300813,43.44512195121951 42.479674796747965,43.64837398373984 42.3780487804878,43.75 42.17479674796748,44.05487804878049 42.02235772357724,44.25813008130081 41.920731707317074,44.46138211382114 41.76829268292683,44.61382113821138 41.666666666666664,44.8170731707317 41.5650406504065,44.96951219512195 41.46341463414634,45.12195121951219 41.36178861788618,45.325203252032516 41.260162601626014,45.52845528455285 41.15853658536585,45.73170731707317 41.00609756097561,45.9349593495935 40.95528455284553,46.13821138211382 40.853658536585364,46.34146341463415 40.7520325203252,46.54471544715447 40.65040650406504,46.7479674796748 40.548780487804876,46.951219512195124 40.447154471544714,47.15447154471545 40.34552845528455,47.357723577235774 40.24390243902439,47.5609756097561 40.142276422764226,47.764227642276424 40.09146341463415,48.01829268292683 39.989837398373986,48.27235772357724 39.88821138211382,48.577235772357724 39.83739837398374,48.78048780487805 39.78658536585366,49.03455284552845 39.735772357723576,49.28861788617886 39.6849593495935,49.49186991869919 39.63414634146341,49.74593495934959 39.583333333333336,50 39.583333333333336,50.203252032520325 39.53252032520325,50.45731707317073 39.53252032520325,50.66056910569105 39.53252032520325,50.8130081300813 39.53252032520325,51.016260162601625 39.53252032520325,51.27032520325203 39.53252032520325,51.47357723577235 39.53252032520325,51.67682926829268" fill="none" stroke="black" stroke-width="0.6"></polyline><polyline points="39.53252032520325,51.67682926829268 39.53252032520325,51.93089430894309 39.53252032520325,52.13414634146341 39.53252032520325,52.38821138211382 39.53252032520325,52.69308943089431 39.53252032520325,52.9979674796748 39.53252032520325,53.353658536585364 39.583333333333336,53.607723577235774 39.583333333333336,53.86178861788618 39.63414634146341,54.11585365853659 39.6849593495935,54.420731707317074 39.735772357723576,54.67479674796748 39.83739837398374,54.92886178861789 39.88821138211382,55.18292682926829 39.9390243902439,55.4369918699187 40.040650406504064,55.6910569105691 40.142276422764226,55.94512195121951 40.24390243902439,56.14837398373984 40.34552845528455,56.40243902439024 40.447154471544714,56.65650406504065 40.548780487804876,56.91056910569105 40.701219512195124,57.11382113821138 40.853658536585364,57.3170731707317 40.95528455284553,57.52032520325203 41.107723577235774,57.672764227642276 41.260162601626014,57.825203252032516 41.46341463414634,58.02845528455284 41.61585365853659,58.18089430894309 41.76829268292683,58.33333333333333 41.97154471544715,58.485772357723576 42.1239837398374,58.63821138211382 42.327235772357724,58.790650406504064 42.479674796747965,58.94308943089431 42.68292682926829,59.146341463414636 42.83536585365854,59.2479674796748 42.9369918699187,59.34959349593496 43.140243902439025,59.5020325203252 43.24186991869919,59.603658536585364 43.39430894308943,59.65447154471545 43.546747967479675,59.80691056910569 43.699186991869915,59.857723577235774 43.85162601626016,59.959349593495936 44.0040650406504,60.0609756097561 44.105691056910565,60.16260162601626 44.25813008130081,60.264227642276424 44.41056910569105,60.3150406504065 44.5630081300813,60.416666666666664 44.71544715447154,60.51829268292683 44.86788617886179,60.61991869918699 45.02032520325203,60.670731707317074 45.12195121951219,60.77235772357724" fill="none" stroke="black" stroke-width="0.6"></polyline><polyline points="45.12195121951219,60.77235772357724 45.27439024390244,60.8739837398374 45.42682926829268,60.92479674796748 45.579268292682926,61.02642276422764 45.73170731707317,61.1280487804878 45.88414634146341,61.17886178861789 46.03658536585366,61.229674796747965 46.239837398373986,61.33130081300813 46.392276422764226,61.38211382113821 46.54471544715447,61.483739837398375 46.697154471544714,61.53455284552845 46.90040650406504,61.58536585365854 47.052845528455286,61.636178861788615 47.25609756097561,61.636178861788615 47.40853658536585,61.6869918699187 47.61178861788618,61.73780487804878 47.8150406504065,61.73780487804878 47.96747967479675,61.78861788617886 48.170731707317074,61.78861788617886 48.42479674796748,61.78861788617886 48.6280487804878,61.78861788617886 48.83130081300813,61.78861788617886 49.08536585365854,61.78861788617886 49.28861788617886,61.78861788617886 49.542682926829265,61.78861788617886 49.796747967479675,61.73780487804878 50.05081300813008,61.73780487804878 50.30487804878049,61.6869918699187 50.55894308943089,61.636178861788615 50.8130081300813,61.58536585365854 51.0670731707317,61.53455284552845 51.37195121951219,61.483739837398375 51.6260162601626,61.43292682926829 51.880081300813,61.43292682926829 52.13414634146341,61.38211382113821 52.38821138211382,61.33130081300813 52.59146341463415,61.28048780487805 52.84552845528455,61.28048780487805 53.048780487804876,61.229674796747965 53.2520325203252,61.17886178861789 53.50609756097561,61.1280487804878 53.709349593495936,61.077235772357724 53.91260162601626,60.97560975609756 54.166666666666664,60.92479674796748 54.36991869918699,60.823170731707314 54.573170731707314,60.77235772357724 54.77642276422764,60.670731707317074 54.979674796747965,60.56910569105691 55.18292682926829,60.46747967479675 55.386178861788615,60.36585365853659 55.640243902439025,60.264227642276424" fill="none" stroke="black" stroke-width="0.6"></polyline><polyline points="55.640243902439025,60.264227642276424 55.89430894308943,60.11178861788618 56.14837398373984,60.010162601626014 56.40243902439024,59.857723577235774 56.65650406504065,59.70528455284553 56.91056910569105,59.552845528455286 57.16463414634146,59.40040650406504 57.418699186991866,59.197154471544714 57.72357723577235,59.04471544715447 57.97764227642276,58.84146341463415 58.28252032520325,58.63821138211382 58.485772357723576,58.485772357723576 58.739837398373986,58.33333333333333 58.99390243902439,58.130081300813 59.146341463414636,58.02845528455284 59.34959349593496,57.8760162601626 59.5020325203252,57.77439024390244 59.603658536585364,57.672764227642276 59.75609756097561,57.57113821138211 59.90853658536585,57.418699186991866 60.0609756097561,57.266260162601625 60.21341463414634,57.16463414634146 60.3150406504065,57.012195121951216 60.416666666666664,56.91056910569105 60.46747967479675,56.75813008130081 60.56910569105691,56.605691056910565 60.61991869918699,56.5040650406504 60.670731707317074,56.35162601626016 60.77235772357724,56.199186991869915 60.77235772357724,56.046747967479675 60.823170731707314,55.94512195121951 60.8739837398374,55.792682926829265 60.92479674796748,55.640243902439025 60.97560975609756,55.48780487804878 61.02642276422764,55.33536585365854 61.077235772357724,55.18292682926829 61.1280487804878,55.03048780487805 61.17886178861789,54.827235772357724 61.229674796747965,54.6239837398374 61.28048780487805,54.36991869918699 61.38211382113821,54.166666666666664 61.483739837398375,53.91260162601626 61.53455284552845,53.709349593495936 61.636178861788615,53.45528455284553 61.73780487804878,53.2520325203252 61.83943089430894,52.9979674796748 61.9410569105691,52.79471544715447 61.99186991869919,52.59146341463415 62.042682926829265,52.38821138211382 62.14430894308943,52.1849593495935 62.19512195121951,51.93089430894309" fill="none" stroke="black" stroke-width="0.6"></polyline><polyline points="62.19512195121951,51.93089430894309 62.24593495934959,51.67682926829268 62.34756097560975,51.422764227642276 62.39837398373984,51.168699186991866 62.5,50.91463414634146 62.55081300813008,50.66056910569105 62.65243902439024,50.40650406504065 62.703252032520325,50.10162601626016 62.80487804878049,49.84756097560975 62.855691056910565,49.59349593495935 62.90650406504065,49.28861788617886 63.00813008130081,49.03455284552845 63.05894308943089,48.78048780487805 63.109756097560975,48.47560975609756 63.16056910569105,48.170731707317074 63.21138211382114,47.86585365853659 63.21138211382114,47.510162601626014 63.262195121951216,47.25609756097561 63.262195121951216,47.0020325203252 63.262195121951216,46.697154471544714 63.262195121951216,46.44308943089431 63.262195121951216,46.1890243902439 63.262195121951216,45.833333333333336 63.262195121951216,45.579268292682926 63.21138211382114,45.22357723577235 63.21138211382114,44.918699186991866 63.16056910569105,44.66463414634146 63.109756097560975,44.41056910569105 63.00813008130081,44.105691056910565 62.95731707317073,43.85162601626016 62.855691056910565,43.59756097560975 62.80487804878049,43.292682926829265 62.703252032520325,43.03861788617886 62.60162601626016,42.78455284552845 62.449186991869915,42.53048780487805 62.34756097560975,42.327235772357724 62.19512195121951,42.1239837398374 62.042682926829265,41.920731707317074 61.890243902439025,41.71747967479675 61.6869918699187,41.514227642276424 61.483739837398375,41.260162601626014 61.33130081300813,41.05691056910569 61.1280487804878,40.853658536585364 60.8739837398374,40.65040650406504 60.670731707317074,40.447154471544714 60.46747967479675,40.29471544715447 60.21341463414634,40.09146341463415 60.010162601626014,39.9390243902439 59.857723577235774,39.83739837398374 59.75609756097561,39.735772357723576 59.5020325203252,39.583333333333336" fill="none" stroke="black" stroke-width="0.6"></polyline><polyline points="59.5020325203252,39.583333333333336 59.2479674796748,39.38008130081301 59.04471544715447,39.22764227642276 58.739837398373986,39.02439024390244 58.536585365853654,38.82113821138211 58.28252032520325,38.668699186991866 58.02845528455284,38.46544715447154 57.77439024390244,38.3130081300813 57.46951219512195,38.16056910569105 57.21544715447154,38.00813008130081 56.91056910569105,37.80487804878049 56.65650406504065,37.65243902439024 56.35162601626016,37.5 56.09756097560975,37.34756097560975 55.84349593495935,37.19512195121951 55.58943089430894,37.042682926829265 55.33536585365854,36.890243902439025 55.03048780487805,36.73780487804878 54.72560975609756,36.58536585365854 54.47154471544715,36.43292682926829 54.166666666666664,36.33130081300813 53.86178861788618,36.17886178861789 53.55691056910569,36.077235772357724 53.302845528455286,35.97560975609756 52.9979674796748,35.8739837398374 52.69308943089431,35.72154471544715 52.4390243902439,35.61991869918699 52.083333333333336,35.51829268292683 51.829268292682926,35.46747967479675 51.52439024390244,35.36585365853659 51.168699186991866,35.3150406504065 50.86382113821138,35.264227642276424 50.55894308943089,35.21341463414634 50.203252032520325,35.21341463414634 49.89837398373984,35.16260162601626 49.542682926829265,35.16260162601626 49.23780487804878,35.16260162601626 48.88211382113821,35.16260162601626 48.52642276422764,35.16260162601626 48.170731707317074,35.21341463414634 47.86585365853659,35.21341463414634 47.510162601626014,35.264227642276424 47.20528455284553,35.3150406504065 46.84959349593496,35.3150406504065 46.49390243902439,35.3150406504065 46.1890243902439,35.36585365853659 45.88414634146341,35.36585365853659 45.52845528455285,35.416666666666664 45.172764227642276,35.46747967479675 44.86788617886179,35.51829268292683 44.46138211382114,35.61991869918699" fill="none" stroke="black" stroke-width="0.6"></polyline><polyline points="44.46138211382114,35.61991869918699 44.105691056910565,35.670731707317074 43.699186991869915,35.77235772357724 43.292682926829265,35.92479674796748 42.9369918699187,36.02642276422764 42.58130081300813,36.1280487804878 42.17479674796748,36.28048780487805 41.81910569105691,36.43292682926829 41.46341463414634,36.58536585365854 41.00609756097561,36.83943089430894 40.65040650406504,37.042682926829265 40.29471544715447,37.24593495934959 39.88821138211382,37.5 39.53252032520325,37.7540650406504 39.176829268292686,38.00813008130081 38.82113821138211,38.262195121951216 38.516260162601625,38.46544715447154 38.16056910569105,38.71951219512195 37.855691056910565,38.97357723577235 37.60162601626016,39.22764227642276 37.34756097560975,39.48170731707317 37.09349593495935,39.735772357723576 36.890243902439025,39.989837398373986 36.636178861788615,40.24390243902439 36.43292682926829,40.4979674796748 36.28048780487805,40.701219512195124 36.1280487804878,40.90447154471545 35.92479674796748,41.209349593495936 35.77235772357724,41.46341463414634 35.61991869918699,41.71747967479675 35.51829268292683,41.97154471544715 35.416666666666664,42.22560975609756 35.3150406504065,42.479674796747965 35.21341463414634,42.733739837398375 35.11178861788618,42.98780487804878 35.010162601626014,43.24186991869919 34.959349593495936,43.546747967479675 34.857723577235774,43.85162601626016 34.80691056910569,44.15650406504065 34.70528455284553,44.46138211382114 34.603658536585364,44.766260162601625 34.552845528455286,45.07113821138211 34.451219512195124,45.3760162601626 34.298780487804876,45.73170731707317 34.197154471544714,46.08739837398374 34.09552845528455,46.49390243902439 34.04471544715447,46.7479674796748 33.94308943089431,47.052845528455286 33.892276422764226,47.357723577235774 33.84146341463415,47.61178861788618 33.790650406504064,47.96747967479675" fill="none" stroke="black" stroke-width="0.6"></polyline><polyline points="33.790650406504064,47.96747967479675 33.739837398373986,48.27235772357724 33.6890243902439,48.577235772357724 33.63821138211382,48.88211382113821 33.63821138211382,49.1869918699187 33.58739837398374,49.390243902439025 33.58739837398374,49.69512195121951 33.58739837398374,49.949186991869915 33.58739837398374,50.203252032520325 33.58739837398374,50.50813008130081 33.58739837398374,50.71138211382114 33.58739837398374,51.016260162601625 33.58739837398374,51.27032520325203 33.58739837398374,51.52439024390244 33.58739837398374,51.72764227642276 33.63821138211382,52.03252032520325 33.6890243902439,52.28658536585366 33.6890243902439,52.59146341463415 33.739837398373986,52.896341463414636 33.790650406504064,53.15040650406504 33.84146341463415,53.40447154471545 33.892276422764226,53.709349593495936 33.94308943089431,53.96341463414634 33.99390243902439,54.31910569105691 34.09552845528455,54.67479674796748 34.146341463414636,54.979674796747965 34.2479674796748,55.33536585365854 34.34959349593496,55.6910569105691 34.451219512195124,55.99593495934959 34.603658536585364,56.35162601626016 34.70528455284553,56.70731707317073 34.857723577235774,57.012195121951216 34.959349593495936,57.36788617886179 35.11178861788618,57.672764227642276 35.264227642276424,57.97764227642276 35.36585365853659,58.28252032520325 35.51829268292683,58.63821138211382 35.670731707317074,58.99390243902439 35.823170731707314,59.298780487804876 35.97560975609756,59.603658536585364 36.077235772357724,59.90853658536585 36.229674796747965,60.16260162601626 36.38211382113821,60.46747967479675 36.483739837398375,60.77235772357724 36.636178861788615,61.02642276422764 36.83943089430894,61.33130081300813 36.99186991869919,61.636178861788615 37.14430894308943,61.890243902439025 37.34756097560975,62.19512195121951 37.5,62.449186991869915 37.703252032520325,62.703252032520325" fill="none" stroke="black" stroke-width="0.6"></polyline><polyline points="37.703252032520325,62.703252032520325 37.90650406504065,63.00813008130081 38.05894308943089,63.21138211382114 38.21138211382114,63.41463414634146 38.41463414634146,63.61788617886179 38.5670731707317,63.77032520325203 38.77032520325203,63.922764227642276 38.97357723577235,64.1260162601626 39.176829268292686,64.27845528455285 39.38008130081301,64.43089430894308 39.583333333333336,64.58333333333333 39.78658536585366,64.78658536585365 40.040650406504064,64.9390243902439 40.29471544715447,65.14227642276423 40.4979674796748,65.34552845528455 40.802845528455286,65.54878048780488 41.05691056910569,65.70121951219512 41.260162601626014,65.85365853658537 41.514227642276424,65.95528455284553 41.76829268292683,66.10772357723577 42.02235772357724,66.20934959349593 42.27642276422764,66.3109756097561 42.53048780487805,66.41260162601625 42.78455284552845,66.51422764227642 43.03861788617886,66.61585365853658 43.24186991869919,66.66666666666667 43.44512195121951,66.76829268292683 43.699186991869915,66.8191056910569 43.90243902439024,66.869918699187 44.105691056910565,66.97154471544715 44.359756097560975,67.02235772357723 44.5630081300813,67.07317073170732 44.766260162601625,67.1239837398374 44.96951219512195,67.22560975609755 45.12195121951219,67.27642276422765 45.325203252032516,67.32723577235772 45.47764227642276,67.3780487804878 45.68089430894309,67.42886178861788 45.833333333333336,67.47967479674797 46.03658536585366,67.53048780487805 46.1890243902439,67.58130081300813 46.392276422764226,67.6321138211382 46.54471544715447,67.6829268292683 46.7479674796748,67.6829268292683 46.90040650406504,67.73373983739837 47.103658536585364,67.78455284552845 47.25609756097561,67.78455284552845 47.459349593495936,67.78455284552845 47.66260162601626,67.83536585365853 47.86585365853659,67.83536585365853 48.06910569105691,67.83536585365853" fill="none" stroke="black" stroke-width="0.6"></polyline><polyline points="48.06910569105691,67.83536585365853 48.3739837398374,67.83536585365853 48.577235772357724,67.88617886178862 48.83130081300813,67.88617886178862 49.08536585365854,67.88617886178862 49.33943089430894,67.88617886178862 49.59349593495935,67.9369918699187 49.89837398373984,67.9369918699187 50.15243902439024,67.9369918699187 50.45731707317073,67.9369918699187 50.762195121951216,67.9369918699187 51.0670731707317,67.88617886178862 51.422764227642276,67.83536585365853 51.77845528455284,67.78455284552845 52.083333333333336,67.73373983739837 52.4390243902439,67.6829268292683 52.79471544715447,67.6829268292683 53.09959349593496,67.6321138211382 53.40447154471545,67.58130081300813 53.760162601626014,67.53048780487805 54.0650406504065,67.47967479674797 54.420731707317074,67.42886178861788 54.72560975609756,67.3780487804878 55.03048780487805,67.32723577235772 55.33536585365854,67.27642276422765 55.6910569105691,67.22560975609755 55.99593495934959,67.17479674796748 56.30081300813008,67.1239837398374 56.605691056910565,67.02235772357723 56.859756097560975,66.97154471544715 57.16463414634146,66.92073170731707 57.418699186991866,66.8191056910569 57.672764227642276,66.71747967479675 57.92682926829268,66.66666666666667 58.18089430894309,66.5650406504065 58.38414634146341,66.46341463414635 58.58739837398374,66.41260162601625 58.790650406504064,66.3109756097561 58.99390243902439,66.20934959349593 59.09552845528455,66.10772357723577 59.34959349593496,66.0060975609756 59.40040650406504,65.95528455284553 59.603658536585364,65.90447154471545 59.70528455284553,65.85365853658537 59.80691056910569,65.7520325203252 59.959349593495936,65.65040650406505 60.0609756097561,65.59959349593495 60.16260162601626,65.54878048780488 60.36585365853659,65.44715447154472 60.56910569105691,65.29471544715447 60.77235772357724,65.14227642276423" fill="none" stroke="black" stroke-width="0.6"></polyline><polyline points="60.77235772357724,65.14227642276423 61.02642276422764,64.9390243902439 61.229674796747965,64.78658536585365 61.43292682926829,64.6341463414634 61.636178861788615,64.43089430894308 61.83943089430894,64.27845528455285 61.99186991869919,64.1260162601626 62.14430894308943,63.97357723577235 62.296747967479675,63.87195121951219 62.39837398373984,63.71951219512195 62.55081300813008,63.5670731707317 62.703252032520325,63.41463414634146 62.855691056910565,63.262195121951216 63.05894308943089,63.109756097560975 63.16056910569105,62.90650406504065 63.3130081300813,62.7540650406504 63.516260162601625,62.55081300813008 63.668699186991866,62.39837398373984 63.82113821138211,62.19512195121951 63.97357723577235,61.99186991869919 64.17682926829268,61.78861788617886 64.32926829268293,61.58536585365854 64.53252032520325,61.33130081300813 64.73577235772358,61.077235772357724 64.9390243902439,60.823170731707314 65.14227642276423,60.51829268292683 65.34552845528455,60.21341463414634 65.65040650406505,59.90853658536585 65.90447154471545,59.552845528455286 66.20934959349593,59.197154471544714 66.46341463414635,58.790650406504064 66.76829268292683,58.38414634146341 67.02235772357723,58.02845528455284 67.27642276422765,57.672764227642276 67.53048780487805,57.266260162601625 67.78455284552845,56.859756097560975 68.08943089430895,56.40243902439024 68.34349593495935,55.94512195121951 68.59756097560975,55.53861788617886 68.80081300813008,55.13211382113821 69.05487804878048,54.67479674796748 69.2581300813008,54.166666666666664 69.51219512195122,53.65853658536585 69.76626016260163,53.15040650406504 69.91869918699187,52.69308943089431 70.1219512195122,52.28658536585366 70.27439024390243,51.77845528455284 70.3760162601626,51.37195121951219 70.47764227642276,51.016260162601625 70.57926829268293,50.55894308943089 70.68089430894308,50.203252032520325" fill="none" stroke="black" stroke-width="0.6"></polyline><polyline points="70.68089430894308,50.203252032520325 70.73170731707317,49.74593495934959 70.83333333333333,49.33943089430894 70.83333333333333,48.93292682926829 70.8841463414634,48.52642276422764 70.8841463414634,48.11991869918699 70.8841463414634,47.764227642276424 70.8841463414634,47.357723577235774 70.83333333333333,46.951219512195124 70.78252032520325,46.59552845528455 70.73170731707317,46.239837398373986 70.630081300813,45.88414634146341 70.57926829268293,45.579268292682926 70.47764227642276,45.22357723577235 70.42682926829268,44.918699186991866 70.32520325203252,44.61382113821138 70.22357723577235,44.25813008130081 70.17276422764228,43.953252032520325 70.02032520325203,43.64837398373984 69.91869918699187,43.292682926829265 69.8170731707317,42.98780487804878 69.71544715447155,42.68292682926829 69.5630081300813,42.3780487804878 69.46138211382113,42.073170731707314 69.3089430894309,41.76829268292683 69.15650406504065,41.46341463414634 69.05487804878048,41.107723577235774 68.90243902439025,40.802845528455286 68.75,40.447154471544714 68.54674796747967,40.09146341463415 68.39430894308943,39.78658536585366 68.1910569105691,39.48170731707317 67.98780487804878,39.1260162601626 67.78455284552845,38.82113821138211 67.58130081300813,38.46544715447154 67.32723577235772,38.21138211382114 67.1239837398374,37.90650406504065 66.869918699187,37.55081300813008 66.61585365853658,37.24593495934959 66.3109756097561,36.9410569105691 66.0060975609756,36.58536585365854 65.7520325203252,36.28048780487805 65.44715447154472,35.97560975609756 65.14227642276423,35.670731707317074 64.78658536585365,35.416666666666664 64.48170731707317,35.11178861788618 64.1260162601626,34.75609756097561 63.77032520325203,34.5020325203252 63.41463414634146,34.197154471544714 63.05894308943089,33.94308943089431 62.703252032520325,33.6890243902439" fill="none" stroke="black" stroke-width="0.6"></polyline><polyline points="62.703252032520325,33.6890243902439 62.296747967479675,33.485772357723576 61.9410569105691,33.23170731707317 61.58536585365854,33.02845528455285 61.17886178861789,32.77439024390244 60.77235772357724,32.57113821138211 60.416666666666664,32.3170731707317 60.0609756097561,32.11382113821138 59.70528455284553,31.910569105691057 59.34959349593496,31.758130081300813 58.94308943089431,31.60569105691057 58.58739837398374,31.453252032520325 58.28252032520325,31.30081300813008 57.92682926829268,31.148373983739837 57.57113821138211,30.945121951219512 57.21544715447154,30.79268292682927 56.859756097560975,30.691056910569106 56.5040650406504,30.538617886178862 56.199186991869915,30.38617886178862 55.84349593495935,30.284552845528456 55.48780487804878,30.182926829268293 55.13211382113821,30.08130081300813 54.827235772357724,29.979674796747968 54.47154471544715,29.928861788617887 54.166666666666664,29.827235772357724 53.86178861788618,29.776422764227643 53.55691056910569,29.67479674796748 53.2520325203252,29.6239837398374 52.9979674796748,29.522357723577237 52.69308943089431,29.420731707317074 52.4390243902439,29.31910569105691 52.13414634146341,29.268292682926827 51.880081300813,29.166666666666664 51.6260162601626,29.0650406504065 51.32113821138211,28.96341463414634 51.0670731707317,28.912601626016258 50.762195121951216,28.861788617886177 50.50813008130081,28.760162601626014 50.203252032520325,28.709349593495933 49.949186991869915,28.709349593495933 49.69512195121951,28.65853658536585 49.4410569105691,28.60772357723577 49.1869918699187,28.55691056910569 48.88211382113821,28.55691056910569 48.577235772357724,28.506097560975608 48.323170731707314,28.506097560975608 48.01829268292683,28.506097560975608 47.764227642276424,28.455284552845526 47.459349593495936,28.455284552845526 47.15447154471545,28.455284552845526 46.84959349593496,28.455284552845526" fill="none" stroke="black" stroke-width="0.6"></polyline><polyline points="46.84959349593496,28.455284552845526 46.54471544715447,28.506097560975608 46.239837398373986,28.506097560975608 45.985772357723576,28.55691056910569 45.68089430894309,28.60772357723577 45.3760162601626,28.60772357723577 45.12195121951219,28.65853658536585 44.86788617886179,28.709349593495933 44.61382113821138,28.760162601626014 44.359756097560975,28.810975609756095 44.105691056910565,28.861788617886177 43.85162601626016,28.912601626016258 43.64837398373984,28.96341463414634 43.44512195121951,29.0650406504065 43.1910569105691,29.115853658536583 42.98780487804878,29.166666666666664 42.733739837398375,29.217479674796746 42.53048780487805,29.31910569105691 42.27642276422764,29.369918699186993 42.02235772357724,29.471544715447155 41.76829268292683,29.573170731707318 41.5650406504065,29.67479674796748 41.36178861788618,29.776422764227643 41.107723577235774,29.878048780487806 40.853658536585364,30.03048780487805 40.59959349593496,30.132113821138212 40.29471544715447,30.284552845528456 40.040650406504064,30.4369918699187 39.78658536585366,30.640243902439025 39.53252032520325,30.79268292682927 39.27845528455285,30.945121951219512 39.02439024390244,31.097560975609756 38.77032520325203,31.25 38.46544715447154,31.402439024390244 38.21138211382114,31.554878048780488 37.90650406504065,31.758130081300813 37.65243902439024,31.910569105691057 37.34756097560975,32.0630081300813 37.042682926829265,32.266260162601625 36.78861788617886,32.46951219512195 36.53455284552845,32.672764227642276 36.229674796747965,32.8760162601626 35.97560975609756,33.02845528455285 35.72154471544715,33.23170731707317 35.416666666666664,33.4349593495935 35.16260162601626,33.63821138211382 34.857723577235774,33.892276422764226 34.552845528455286,34.09552845528455 34.2479674796748,34.34959349593496 33.94308943089431,34.603658536585364 33.63821138211382,34.857723577235774" fill="none" stroke="black" stroke-width="0.6"></polyline><polyline points="33.63821138211382,34.857723577235774 33.333333333333336,35.11178861788618 33.02845528455285,35.416666666666664 32.72357723577236,35.670731707317074 32.418699186991866,35.97560975609756 32.16463414634146,36.28048780487805 31.910569105691057,36.53455284552845 31.65650406504065,36.78861788617886 31.402439024390244,37.09349593495935 31.19918699186992,37.39837398373984 30.945121951219512,37.703252032520325 30.691056910569106,38.00813008130081 30.538617886178862,38.21138211382114 30.4369918699187,38.3130081300813 30.38617886178862,38.46544715447154 30.182926829268293,38.71951219512195 30.03048780487805,38.97357723577235 29.878048780487806,39.22764227642276 29.776422764227643,39.53252032520325 29.6239837398374,39.78658536585366 29.522357723577237,40.09146341463415 29.31910569105691,40.447154471544714 29.217479674796746,40.7520325203252 29.0650406504065,41.05691056910569 28.912601626016258,41.46341463414634 28.760162601626014,41.81910569105691 28.65853658536585,42.17479674796748 28.506097560975608,42.53048780487805 28.404471544715445,42.83536585365854 28.2520325203252,43.24186991869919 28.099593495934958,43.699186991869915 27.997967479674795,44.05487804878049 27.896341463414632,44.41056910569105 27.84552845528455,44.8170731707317 27.74390243902439,45.12195121951219 27.693089430894307,45.47764227642276 27.642276422764226,45.833333333333336 27.591463414634145,46.1890243902439 27.591463414634145,46.54471544715447 27.591463414634145,46.90040650406504 27.540650406504064,47.25609756097561 27.540650406504064,47.61178861788618 27.540650406504064,48.06910569105691 27.540650406504064,48.42479674796748 27.489837398373982,48.83130081300813 27.489837398373982,49.23780487804878 27.489837398373982,49.59349593495935 27.489837398373982,49.949186991869915 27.489837398373982,50.355691056910565 27.489837398373982,50.762195121951216 27.489837398373982,51.168699186991866" fill="none" stroke="black" stroke-width="0.6"></polyline><polyline points="27.489837398373982,51.168699186991866 27.489837398373982,51.575203252032516 27.489837398373982,51.981707317073166 27.540650406504064,52.38821138211382 27.540650406504064,52.84552845528455 27.591463414634145,53.2520325203252 27.591463414634145,53.65853658536585 27.642276422764226,54.11585365853659 27.642276422764226,54.52235772357724 27.693089430894307,54.92886178861789 27.74390243902439,55.386178861788615 27.79471544715447,55.792682926829265 27.79471544715447,56.199186991869915 27.896341463414632,56.65650406504065 27.947154471544714,57.012195121951216 27.997967479674795,57.418699186991866 28.099593495934958,57.8760162601626 28.15040650406504,58.33333333333333 28.20121951219512,58.790650406504064 28.302845528455283,59.2479674796748 28.353658536585364,59.65447154471545 28.455284552845526,60.0609756097561 28.55691056910569,60.416666666666664 28.65853658536585,60.77235772357724 28.760162601626014,61.17886178861789 28.861788617886177,61.53455284552845 28.96341463414634,61.890243902439025 29.115853658536583,62.296747967479675 29.268292682926827,62.65243902439024 29.420731707317074,62.95731707317073 29.573170731707318,63.3130081300813 29.67479674796748,63.61788617886179 29.827235772357724,63.922764227642276 30.03048780487805,64.27845528455285 30.182926829268293,64.48170731707317 30.335365853658537,64.73577235772358 30.48780487804878,64.98983739837398 30.640243902439025,65.1930894308943 30.741869918699187,65.34552845528455 30.84349593495935,65.44715447154472 31.046747967479675,65.70121951219512 31.25,65.90447154471545 31.453252032520325,66.15853658536585 31.70731707317073,66.41260162601625 31.910569105691057,66.61585365853658 32.16463414634146,66.8191056910569 32.418699186991866,67.07317073170732 32.6219512195122,67.32723577235772 32.8760162601626,67.58130081300813 33.13008130081301,67.83536585365853 33.38414634146341,68.08943089430895" fill="none" stroke="black" stroke-width="0.6"></polyline><polyline points="33.38414634146341,68.08943089430895 33.63821138211382,68.34349593495935 33.892276422764226,68.64837398373983 34.146341463414636,68.90243902439025 34.451219512195124,69.15650406504065 34.75609756097561,69.46138211382113 35.010162601626014,69.71544715447155 35.3150406504065,69.96951219512195 35.61991869918699,70.27439024390243 35.92479674796748,70.57926829268293 36.28048780487805,70.83333333333333 36.636178861788615,71.13821138211382 36.9410569105691,71.39227642276423 37.24593495934959,71.64634146341463 37.60162601626016,71.95121951219512 37.90650406504065,72.20528455284553 38.262195121951216,72.45934959349593 38.61788617886179,72.71341463414635 38.87195121951219,72.91666666666667 39.22764227642276,73.119918699187 39.53252032520325,73.32317073170732 39.88821138211382,73.47560975609755 40.19308943089431,73.67886178861788 40.548780487804876,73.8821138211382 40.853658536585364,74.03455284552845 41.209349593495936,74.1869918699187 41.514227642276424,74.33943089430895 41.81910569105691,74.4410569105691 42.1239837398374,74.59349593495935 42.42886178861789,74.7459349593496 42.733739837398375,74.84756097560975 43.03861788617886,75 43.34349593495935,75.10162601626016 43.59756097560975,75.15243902439025 43.90243902439024,75.2540650406504 44.20731707317073,75.30487804878048 44.46138211382114,75.30487804878048 44.766260162601625,75.35569105691057 45.07113821138211,75.35569105691057 45.3760162601626,75.40650406504065 45.68089430894309,75.40650406504065 45.9349593495935,75.40650406504065 46.1890243902439,75.40650406504065 46.44308943089431,75.45731707317073 46.697154471544714,75.45731707317073 46.951219512195124,75.5081300813008 47.20528455284553,75.5081300813008 47.459349593495936,75.5081300813008 47.71341463414634,75.5589430894309 48.01829268292683,75.5589430894309 48.27235772357724,75.5589430894309" fill="none" stroke="black" stroke-width="0.6"></polyline><polyline points="48.27235772357724,75.5589430894309 48.52642276422764,75.5589430894309 48.78048780487805,75.5589430894309 49.08536585365854,75.5589430894309 49.33943089430894,75.5589430894309 49.64430894308943,75.5589430894309 49.949186991869915,75.5589430894309 50.2540650406504,75.5589430894309 50.55894308943089,75.5589430894309 50.86382113821138,75.5589430894309 51.21951219512195,75.5589430894309 51.6260162601626,75.5589430894309 51.981707317073166,75.5589430894309 52.33739837398374,75.5589430894309 52.74390243902439,75.5589430894309 53.15040650406504,75.5589430894309 53.55691056910569,75.5589430894309 53.96341463414634,75.5081300813008 54.36991869918699,75.45731707317073 54.77642276422764,75.40650406504065 55.233739837398375,75.30487804878048 55.640243902439025,75.2540650406504 56.09756097560975,75.15243902439025 56.55487804878049,75.05081300813008 56.96138211382114,74.94918699186992 57.418699186991866,74.84756097560975 57.8760162601626,74.7459349593496 58.28252032520325,74.6951219512195 58.63821138211382,74.59349593495935 59.04471544715447,74.49186991869918 59.40040650406504,74.33943089430895 59.80691056910569,74.23780487804878 60.21341463414634,74.13617886178862 60.51829268292683,74.03455284552845 60.8739837398374,73.8821138211382 61.229674796747965,73.78048780487805 61.53455284552845,73.67886178861788 61.890243902439025,73.52642276422765 62.24593495934959,73.3739837398374 62.55081300813008,73.22154471544715 62.855691056910565,73.0691056910569 63.21138211382114,72.91666666666667 63.46544715447154,72.71341463414635 63.77032520325203,72.51016260162602 64.07520325203252,72.3069105691057 64.380081300813,72.05284552845528 64.6849593495935,71.79878048780488 65.04065040650406,71.54471544715447 65.34552845528455,71.23983739837398 65.70121951219512,70.9349593495935 66.0569105691057,70.630081300813" fill="none" stroke="black" stroke-width="0.6"></polyline><polyline points="66.0569105691057,70.630081300813 66.41260162601625,70.32520325203252 66.76829268292683,69.96951219512195 67.1239837398374,69.66463414634146 67.42886178861788,69.35975609756098 67.73373983739837,69.05487804878048 68.03861788617886,68.75 68.34349593495935,68.4959349593496 68.64837398373983,68.1910569105691 68.95325203252033,67.88617886178862 69.20731707317073,67.58130081300813 69.51219512195122,67.22560975609755 69.76626016260163,66.869918699187 70.0711382113821,66.51422764227642 70.32520325203252,66.15853658536585 70.57926829268293,65.80284552845528 70.83333333333333,65.44715447154472 71.03658536585365,64.98983739837398 71.29065040650406,64.53252032520325 71.49390243902438,64.1260162601626 71.7479674796748,63.61788617886179 72.0020325203252,63.16056910569105 72.20528455284553,62.65243902439024 72.45934959349593,62.14430894308943 72.71341463414635,61.6869918699187 72.96747967479675,61.17886178861789 73.17073170731707,60.670731707317074 73.3739837398374,60.21341463414634 73.6280487804878,59.75609756097561 73.83130081300813,59.2479674796748 74.03455284552845,58.790650406504064 74.23780487804878,58.28252032520325 74.4410569105691,57.77439024390244 74.64430894308943,57.3170731707317 74.79674796747967,56.75813008130081 75,56.199186991869915 75.15243902439025,55.6910569105691 75.30487804878048,55.18292682926829 75.45731707317073,54.6239837398374 75.5589430894309,54.11585365853659 75.60975609756098,53.607723577235774 75.71138211382113,53.15040650406504 75.76219512195122,52.69308943089431 75.76219512195122,52.1849593495935 75.8130081300813,51.72764227642276 75.8130081300813,51.32113821138211 75.8130081300813,50.96544715447154 75.71138211382113,50.66056910569105 75.66056910569105,50.355691056910565 75.5589430894309,50.10162601626016 75.45731707317073,49.89837398373984" fill="none" stroke="black" stroke-width="0.6"></polyline><polyline points="75.45731707317073,49.89837398373984 75.40650406504065,49.69512195121951 75.35569105691057,49.59349593495935 75.35569105691057,49.49186991869919 75.30487804878048,49.4410569105691 75.30487804878048,49.4410569105691 75.30487804878048,49.4410569105691 75.30487804878048,49.4410569105691 75.35569105691057,49.49186991869919 75.45731707317073,49.542682926829265 75.60975609756098,49.64430894308943 75.86382113821138,49.796747967479675 76.16869918699187,49.949186991869915" fill="none" stroke="black" stroke-width="0.6"></polyline></svg>