<svg height="100" width="100" preserveAspectRatio="xMidYMid meet"><polyline points="22.865853658536587,16.41260162601626 22.865853658536587,16.36178861788618 22.916666666666668,16.3109756097561 23.01829268292683,16.209349593495933 23.119918699186993,16.10772357723577 23.526422764227643,15.853658536585366 23.678861788617887,15.701219512195122 24.13617886178862,15.396341463414634 24.695121951219512,14.939024390243903 25.35569105691057,14.380081300813007 25.965447154471544,13.821138211382113 26.57520325203252,13.160569105691057 27.286585365853657,12.449186991869919 27.947154471544714,11.6869918699187 28.55691056910569,10.97560975609756 29.166666666666664,10.213414634146341 29.6239837398374,9.502032520325203 30.08130081300813,8.841463414634147 30.538617886178862,8.079268292682926 30.945121951219512,7.317073170731707 31.30081300813008,6.65650406504065 31.65650406504065,5.945121951219512 31.859756097560975,5.335365853658536 32.0630081300813,4.776422764227642 32.16463414634146,4.319105691056911 32.21544715447154,3.9634146341463414 32.21544715447154,3.6585365853658534 32.16463414634146,3.4552845528455283 32.0630081300813,3.3028455284552845 31.910569105691057,3.201219512195122 31.758130081300813,3.1504065040650406 31.504065040650406,3.1504065040650406 31.148373983739837,3.3028455284552845 30.79268292682927,3.5060975609756095 30.4369918699187,3.7601626016260163 30.08130081300813,4.0650406504065035 29.827235772357724,4.420731707317073 29.522357723577237,4.8272357723577235 29.166666666666664,5.284552845528455 28.912601626016258,5.7926829268292686 28.60772357723577,6.3516260162601625 28.353658536585364,7.0630081300813 28.099593495934958,7.723577235772358 27.896341463414632,8.434959349593496 27.693089430894307,9.197154471544716 27.540650406504064,9.80691056910569 27.489837398373982,10.365853658536585 27.4390243902439,11.026422764227641 27.4390243902439,11.585365853658537 27.4390243902439,12.09349593495935 27.4390243902439,12.652439024390244" fill="none" stroke="black" stroke-width="0.6"></polyline><polyline points="27.4390243902439,12.652439024390244 27.540650406504064,13.109756097560975 27.642276422764226,13.465447154471544 27.84552845528455,13.871951219512194 27.997967479674795,14.1260162601626 28.2520325203252,14.430894308943088 28.455284552845526,14.684959349593496 28.709349593495933,14.888211382113822 29.01422764227642,15.040650406504065 29.31910569105691,15.19308943089431 29.6239837398374,15.24390243902439 29.928861788617887,15.24390243902439 30.284552845528456,15.24390243902439 30.589430894308943,15.24390243902439 30.945121951219512,15.19308943089431 31.30081300813008,15.040650406504065 31.65650406504065,14.888211382113822 31.961382113821138,14.634146341463413 32.3170731707317,14.380081300813007 32.6219512195122,14.1260162601626 32.926829268292686,13.821138211382113 33.18089430894309,13.516260162601625 33.4349593495935,13.211382113821138 33.63821138211382,12.90650406504065 33.84146341463415,12.5 33.94308943089431,12.195121951219512 33.99390243902439,11.890243902439025 34.04471544715447,11.636178861788618 34.04471544715447,11.432926829268293 33.94308943089431,11.331300813008129 33.84146341463415,11.178861788617885 33.739837398373986,11.128048780487804 33.63821138211382,11.077235772357723 33.485772357723576,11.077235772357723 33.333333333333336,11.077235772357723 33.079268292682926,11.178861788617885 32.82520325203252,11.382113821138212 32.57113821138211,11.585365853658537 32.3170731707317,11.839430894308943 32.0630081300813,12.144308943089431 31.758130081300813,12.550813008130081 31.554878048780488,12.957317073170731 31.30081300813008,13.414634146341463 31.148373983739837,13.871951219512194 30.995934959349594,14.329268292682926 30.945121951219512,14.786585365853659 30.945121951219512,15.19308943089431 30.945121951219512,15.548780487804878 30.995934959349594,15.853658536585366 31.097560975609756,16.05691056910569 31.30081300813008,16.260162601626014" fill="none" stroke="black" stroke-width="0.6"></polyline><polyline points="31.30081300813008,16.260162601626014 31.504065040650406,16.36178861788618 31.808943089430894,16.463414634146343 32.16463414634146,16.463414634146343 32.52032520325203,16.463414634146343 32.926829268292686,16.3109756097561 33.38414634146341,16.15853658536585 33.84146341463415,15.904471544715447 34.2479674796748,15.65040650406504 34.70528455284553,15.345528455284553 35.11178861788618,15.040650406504065 35.46747967479675,14.684959349593496 35.92479674796748,14.227642276422763 36.28048780487805,13.871951219512194 36.58536585365854,13.465447154471544 36.890243902439025,13.109756097560975 37.09349593495935,12.754065040650406 37.34756097560975,12.449186991869919 37.5,12.042682926829269 37.65243902439024,11.788617886178862 37.7540650406504,11.585365853658537 37.855691056910565,11.382113821138212 37.90650406504065,11.229674796747966 37.90650406504065,11.128048780487804 37.95731707317073,11.026422764227641 37.95731707317073,11.026422764227641 37.95731707317073,11.026422764227641 37.95731707317073,11.026422764227641 37.95731707317073,11.026422764227641 37.95731707317073,11.026422764227641 37.95731707317073,11.026422764227641 37.95731707317073,11.026422764227641 37.90650406504065,11.077235772357723 37.855691056910565,11.128048780487804 37.855691056910565,11.178861788617885 37.80487804878049,11.280487804878048 37.7540650406504,11.331300813008129 37.703252032520325,11.432926829268293 37.65243902439024,11.534552845528456 37.60162601626016,11.6869918699187 37.55081300813008,11.839430894308943 37.5,12.042682926829269 37.449186991869915,12.296747967479675 37.449186991869915,12.601626016260163 37.39837398373984,13.008130081300813 37.39837398373984,13.465447154471544 37.34756097560975,13.871951219512194 37.34756097560975,14.329268292682926 37.296747967479675,14.735772357723578 37.24593495934959,15.142276422764228 37.14430894308943,15.447154471544716" fill="none" stroke="black" stroke-width="0.6"></polyline><polyline points="37.14430894308943,15.447154471544716 36.99186991869919,15.752032520325203 36.83943089430894,16.006097560975608 36.636178861788615,16.209349593495933 36.43292682926829,16.463414634146343 36.229674796747965,16.565040650406505 36.02642276422764,16.71747967479675 35.8739837398374,16.81910569105691 35.670731707317074,16.869918699186993 35.51829268292683,16.869918699186993 35.36585365853659,16.869918699186993 35.21341463414634,16.81910569105691 35.0609756097561,16.71747967479675 34.90853658536585,16.565040650406505 34.80691056910569,16.41260162601626 34.70528455284553,16.260162601626014 34.65447154471545,16.10772357723577 34.65447154471545,15.955284552845528 34.65447154471545,15.853658536585366 34.65447154471545,15.752032520325203 34.65447154471545,15.701219512195122 34.65447154471545,15.701219512195122 34.65447154471545,15.65040650406504 34.70528455284553,15.59959349593496 34.70528455284553,15.59959349593496 34.80691056910569,15.59959349593496 34.90853658536585,15.65040650406504 35.010162601626014,15.701219512195122 35.16260162601626,15.802845528455284 35.3150406504065,15.853658536585366 35.46747967479675,15.904471544715447 35.72154471544715,16.006097560975608 36.02642276422764,16.05691056910569 36.43292682926829,16.10772357723577 36.9410569105691,16.10772357723577 37.449186991869915,16.10772357723577 38.05894308943089,16.006097560975608 38.71951219512195,15.853658536585366 39.27845528455285,15.65040650406504 39.83739837398374,15.447154471544716 40.447154471544714,15.19308943089431 40.853658536585364,14.989837398373984 41.209349593495936,14.83739837398374 41.514227642276424,14.684959349593496 41.76829268292683,14.583333333333332 42.02235772357724,14.53252032520325" fill="none" stroke="black" stroke-width="0.6"></polyline><polyline points="21.646341463414632,35.3150406504065 21.646341463414632,35.3150406504065 21.646341463414632,35.21341463414634 21.697154471544714,35.0609756097561 21.747967479674795,34.90853658536585 21.90040650406504,34.75609756097561 22.154471544715445,34.552845528455286 22.459349593495933,34.298780487804876 22.865853658536587,33.99390243902439 23.323170731707318,33.58739837398374 23.882113821138212,33.079268292682926 24.491869918699187,32.52032520325203 25.101626016260163,31.859756097560975 25.711382113821138,31.148373983739837 26.270325203252032,30.48780487804878 26.727642276422763,29.776422764227643 27.134146341463413,29.115853658536583 27.540650406504064,28.455284552845526 27.997967479674795,27.74390243902439 28.353658536585364,27.03252032520325 28.65853658536585,26.371951219512194 28.912601626016258,25.660569105691057 29.115853658536583,24.94918699186992 29.369918699186993,24.288617886178862 29.522357723577237,23.678861788617887 29.67479674796748,23.119918699186993 29.725609756097562,22.662601626016258 29.776422764227643,22.30691056910569 29.776422764227643,22.052845528455283 29.725609756097562,21.849593495934958 29.67479674796748,21.697154471544714 29.573170731707318,21.59552845528455 29.522357723577237,21.49390243902439 29.420731707317074,21.49390243902439 29.268292682926827,21.49390243902439 29.115853658536583,21.59552845528455 28.861788617886177,21.798780487804876 28.65853658536585,22.0020325203252 28.455284552845526,22.205284552845526 28.353658536585364,22.40853658536585 28.20121951219512,22.662601626016258 28.099593495934958,22.916666666666668 27.997967479674795,23.221544715447155 27.896341463414632,23.577235772357724 27.79471544715447,23.932926829268293 27.74390243902439,24.339430894308943 27.642276422764226,24.796747967479675 27.591463414634145,25.254065040650406 27.540650406504064,25.711382113821138 27.489837398373982,26.21951219512195 27.489837398373982,26.676829268292682" fill="none" stroke="black" stroke-width="0.6"></polyline><polyline points="27.489837398373982,26.676829268292682 27.489837398373982,27.083333333333332 27.4390243902439,27.540650406504064 27.4390243902439,27.896341463414632 27.4390243902439,28.302845528455283 27.38821138211382,28.709349593495933 27.38821138211382,29.0650406504065 27.38821138211382,29.369918699186993 27.38821138211382,29.67479674796748 27.38821138211382,30.03048780487805 27.33739837398374,30.335365853658537 27.33739837398374,30.640243902439025 27.33739837398374,30.89430894308943 27.33739837398374,31.19918699186992 27.33739837398374,31.504065040650406 27.33739837398374,31.758130081300813 27.33739837398374,32.012195121951216 27.33739837398374,32.3170731707317 27.33739837398374,32.52032520325203 27.38821138211382,32.672764227642276 27.4390243902439,32.8760162601626 27.489837398373982,33.02845528455285 27.540650406504064,33.18089430894309 27.591463414634145,33.333333333333336 27.591463414634145,33.485772357723576 27.642276422764226,33.63821138211382 27.693089430894307,33.790650406504064 27.693089430894307,33.892276422764226 27.74390243902439,34.04471544715447 27.74390243902439,34.197154471544714 27.79471544715447,34.34959349593496 27.79471544715447,34.5020325203252 27.84552845528455,34.603658536585364 27.84552845528455,34.70528455284553 27.84552845528455,34.80691056910569 27.84552845528455,34.90853658536585 27.84552845528455,34.959349593495936 27.84552845528455,35.010162601626014 27.84552845528455,35.010162601626014 27.84552845528455,35.11178861788618 27.896341463414632,35.11178861788618 27.896341463414632,35.16260162601626 27.896341463414632,35.21341463414634 27.947154471544714,35.264227642276424 27.947154471544714,35.264227642276424 27.997967479674795,35.3150406504065 28.048780487804876,35.36585365853659 28.099593495934958,35.36585365853659 28.15040650406504,35.416666666666664 28.20121951219512,35.416666666666664 28.2520325203252,35.46747967479675" fill="none" stroke="black" stroke-width="0.6"></polyline><polyline points="28.2520325203252,35.46747967479675 28.353658536585364,35.46747967479675 28.404471544715445,35.51829268292683 28.455284552845526,35.51829268292683 28.55691056910569,35.56910569105691 28.60772357723577,35.56910569105691 28.65853658536585,35.56910569105691 28.760162601626014,35.56910569105691 28.861788617886177,35.61991869918699 28.96341463414634,35.61991869918699 29.0650406504065,35.61991869918699 29.166666666666664,35.56910569105691 29.31910569105691,35.51829268292683 29.471544715447155,35.416666666666664 29.6239837398374,35.264227642276424 29.878048780487806,35.11178861788618 30.08130081300813,34.90853658536585 30.335365853658537,34.603658536585364 30.640243902439025,34.2479674796748 30.89430894308943,33.84146341463415 31.148373983739837,33.485772357723576 31.351626016260163,33.13008130081301 31.554878048780488,32.82520325203252 31.758130081300813,32.52032520325203 31.910569105691057,32.16463414634146 32.0630081300813,31.859756097560975 32.16463414634146,31.554878048780488 32.21544715447154,31.25 32.266260162601625,31.046747967479675 32.266260162601625,30.84349593495935 32.266260162601625,30.640243902439025 32.266260162601625,30.538617886178862 32.16463414634146,30.38617886178862 32.11382113821138,30.284552845528456 32.012195121951216,30.182926829268293 31.961382113821138,30.132113821138212 31.859756097560975,30.08130081300813 31.758130081300813,30.08130081300813 31.70731707317073,30.08130081300813 31.60569105691057,30.08130081300813 31.504065040650406,30.132113821138212 31.402439024390244,30.233739837398375 31.25,30.38617886178862 31.097560975609756,30.538617886178862 30.995934959349594,30.79268292682927 30.89430894308943,30.995934959349594 30.79268292682927,31.25 30.741869918699187,31.453252032520325 30.640243902439025,31.758130081300813 30.589430894308943,32.0630081300813 30.538617886178862,32.418699186991866" fill="none" stroke="black" stroke-width="0.6"></polyline><polyline points="30.538617886178862,32.418699186991866 30.538617886178862,32.77439024390244 30.48780487804878,33.13008130081301 30.48780487804878,33.4349593495935 30.48780487804878,33.739837398373986 30.538617886178862,34.04471544715447 30.589430894308943,34.34959349593496 30.691056910569106,34.70528455284553 30.84349593495935,35.010162601626014 30.995934959349594,35.264227642276424 31.19918699186992,35.51829268292683 31.453252032520325,35.72154471544715 31.758130081300813,35.8739837398374 32.0630081300813,36.02642276422764 32.36788617886179,36.077235772357724 32.77439024390244,36.077235772357724 33.18089430894309,36.077235772357724 33.53658536585366,35.97560975609756 33.94308943089431,35.8739837398374 34.34959349593496,35.670731707317074 34.75609756097561,35.416666666666664 35.11178861788618,35.16260162601626 35.51829268292683,34.80691056910569 35.8739837398374,34.40040650406504 36.28048780487805,33.892276422764226 36.636178861788615,33.38414634146341 36.9410569105691,32.8760162601626 37.24593495934959,32.3170731707317 37.5,31.808943089430894 37.703252032520325,31.351626016260163 37.90650406504065,30.89430894308943 38.05894308943089,30.640243902439025 38.21138211382114,30.38617886178862 38.36382113821138,30.182926829268293 38.41463414634146,30.08130081300813 38.516260162601625,30.03048780487805 38.5670731707317,30.03048780487805 38.61788617886179,30.03048780487805 38.668699186991866,30.182926829268293 38.77032520325203,30.335365853658537 38.82113821138211,30.589430894308943 38.87195121951219,30.84349593495935 38.87195121951219,31.19918699186992 38.82113821138211,31.504065040650406 38.71951219512195,31.859756097560975 38.5670731707317,32.21544715447154 38.36382113821138,32.57113821138211 38.05894308943089,32.8760162601626 37.80487804878049,33.23170731707317 37.55081300813008,33.4349593495935 37.296747967479675,33.63821138211382" fill="none" stroke="black" stroke-width="0.6"></polyline><polyline points="37.296747967479675,33.63821138211382 37.09349593495935,33.790650406504064 36.9410569105691,33.892276422764226 36.78861788617886,33.94308943089431 36.636178861788615,33.99390243902439 36.53455284552845,34.04471544715447 36.38211382113821,34.09552845528455 36.28048780487805,34.09552845528455 36.17886178861789,34.09552845528455 36.077235772357724,34.09552845528455 36.02642276422764,34.09552845528455 35.92479674796748,33.99390243902439 35.8739837398374,33.94308943089431 35.823170731707314,33.84146341463415 35.77235772357724,33.739837398373986 35.77235772357724,33.63821138211382 35.77235772357724,33.53658536585366 35.77235772357724,33.4349593495935 35.8739837398374,33.333333333333336 35.97560975609756,33.28252032520325 36.17886178861789,33.23170731707317 36.38211382113821,33.23170731707317 36.6869918699187,33.23170731707317 36.99186991869919,33.23170731707317 37.39837398373984,33.28252032520325 37.855691056910565,33.38414634146341 38.36382113821138,33.485772357723576 38.922764227642276,33.58739837398374 39.48170731707317,33.6890243902439 39.989837398373986,33.6890243902439 40.447154471544714,33.6890243902439 40.90447154471545,33.6890243902439 41.260162601626014,33.58739837398374 41.666666666666664,33.4349593495935" fill="none" stroke="black" stroke-width="0.6"></polyline><polyline points="20.477642276422763,56.80894308943089 20.477642276422763,56.75813008130081 20.477642276422763,56.65650406504065 20.426829268292682,56.55487804878049 20.426829268292682,56.40243902439024 20.528455284552845,56.199186991869915 20.78252032520325,55.89430894308943 21.13821138211382,55.48780487804878 21.59552845528455,54.979674796747965 22.154471544715445,54.31910569105691 22.764227642276424,53.50609756097561 23.06910569105691,53.09959349593496 23.323170731707318,52.74390243902439 23.983739837398375,51.93089430894309 24.64430894308943,50.91463414634146 25.254065040650406,50 25.8130081300813,49.08536585365854 26.371951219512194,48.11991869918699 26.778455284552845,47.30691056910569 27.235772357723576,46.392276422764226 27.591463414634145,45.47764227642276 27.84552845528455,44.71544715447154 28.048780487804876,43.90243902439024 28.302845528455283,43.140243902439025 28.455284552845526,42.479674796747965 28.55691056910569,41.920731707317074 28.55691056910569,41.41260162601626 28.60772357723577,41.05691056910569 28.60772357723577,40.7520325203252 28.55691056910569,40.4979674796748 28.455284552845526,40.396341463414636 28.353658536585364,40.34552845528455 28.302845528455283,40.29471544715447 28.20121951219512,40.29471544715447 28.048780487804876,40.396341463414636 27.79471544715447,40.548780487804876 27.591463414634145,40.802845528455286 27.33739837398374,41.15853658536585 27.083333333333332,41.514227642276424 26.880081300813007,41.86991869918699 26.676829268292682,42.27642276422764 26.422764227642276,42.733739837398375 26.270325203252032,43.24186991869919 26.067073170731707,43.75 25.914634146341463,44.41056910569105 25.76219512195122,45.02032520325203 25.609756097560975,45.68089430894309 25.508130081300813,46.34146341463415 25.304878048780488,46.951219512195124 25.152439024390244,47.61178861788618 25,48.27235772357724" fill="none" stroke="black" stroke-width="0.6"></polyline><polyline points="25,48.27235772357724 24.898373983739837,48.78048780487805 24.796747967479675,49.28861788617886 24.745934959349594,49.84756097560975 24.64430894308943,50.355691056910565 24.59349593495935,50.86382113821138 24.59349593495935,51.37195121951219 24.54268292682927,51.880081300813 24.54268292682927,52.38821138211382 24.54268292682927,52.896341463414636 24.54268292682927,53.353658536585364 24.59349593495935,53.760162601626014 24.695121951219512,54.166666666666664 24.796747967479675,54.52235772357724 24.94918699186992,54.827235772357724 25.05081300813008,55.03048780487805 25.203252032520325,55.233739837398375 25.40650406504065,55.4369918699187 25.558943089430894,55.58943089430894 25.76219512195122,55.74186991869919 26.016260162601625,55.89430894308943 26.21951219512195,55.99593495934959 26.473577235772357,56.09756097560975 26.778455284552845,56.14837398373984 27.03252032520325,56.14837398373984 27.33739837398374,56.14837398373984 27.693089430894307,56.09756097560975 28.099593495934958,55.94512195121951 28.455284552845526,55.74186991869919 28.810975609756095,55.53861788617886 29.115853658536583,55.28455284552845 29.420731707317074,54.979674796747965 29.776422764227643,54.573170731707314 30.08130081300813,54.166666666666664 30.335365853658537,53.760162601626014 30.538617886178862,53.2520325203252 30.741869918699187,52.79471544715447 30.89430894308943,52.38821138211382 31.046747967479675,51.93089430894309 31.097560975609756,51.52439024390244 31.19918699186992,51.168699186991866 31.25,50.762195121951216 31.30081300813008,50.50813008130081 31.30081300813008,50.2540650406504 31.30081300813008,50.05081300813008 31.25,49.949186991869915 31.19918699186992,49.84756097560975 31.097560975609756,49.796747967479675 31.046747967479675,49.796747967479675 30.995934959349594,49.796747967479675 30.945121951219512,49.796747967479675" fill="none" stroke="black" stroke-width="0.6"></polyline><polyline points="30.945121951219512,49.796747967479675 30.84349593495935,49.796747967479675 30.741869918699187,49.89837398373984 30.589430894308943,50.05081300813008 30.48780487804878,50.2540650406504 30.335365853658537,50.50813008130081 30.182926829268293,50.762195121951216 30.08130081300813,50.96544715447154 29.979674796747968,51.27032520325203 29.878048780487806,51.6260162601626 29.827235772357724,51.981707317073166 29.776422764227643,52.38821138211382 29.725609756097562,52.79471544715447 29.67479674796748,53.201219512195124 29.6239837398374,53.607723577235774 29.573170731707318,54.014227642276424 29.573170731707318,54.36991869918699 29.573170731707318,54.67479674796748 29.573170731707318,55.03048780487805 29.573170731707318,55.233739837398375 29.573170731707318,55.48780487804878 29.6239837398374,55.6910569105691 29.725609756097562,55.84349593495935 29.827235772357724,55.99593495934959 29.979674796747968,56.14837398373984 30.132113821138212,56.30081300813008 30.284552845528456,56.40243902439024 30.48780487804878,56.5040650406504 30.691056910569106,56.55487804878049 30.945121951219512,56.605691056910565 31.25,56.605691056910565 31.60569105691057,56.55487804878049 32.012195121951216,56.40243902439024 32.418699186991866,56.199186991869915 32.8760162601626,55.94512195121951 33.333333333333336,55.6910569105691 33.790650406504064,55.386178861788615 34.197154471544714,55.03048780487805 34.65447154471545,54.67479674796748 34.959349593495936,54.36991869918699 35.3150406504065,53.96341463414634 35.670731707317074,53.50609756097561 36.02642276422764,53.09959349593496 36.28048780487805,52.642276422764226 36.53455284552845,52.1849593495935 36.73780487804878,51.77845528455284 36.890243902439025,51.32113821138211 36.99186991869919,50.86382113821138 37.09349593495935,50.50813008130081 37.14430894308943,50.203252032520325 37.19512195121951,49.949186991869915" fill="none" stroke="black" stroke-width="0.6"></polyline><polyline points="37.19512195121951,49.949186991869915 37.19512195121951,49.796747967479675 37.19512195121951,49.69512195121951 37.19512195121951,49.69512195121951 37.19512195121951,49.69512195121951 37.19512195121951,49.69512195121951 37.19512195121951,49.69512195121951 37.19512195121951,49.796747967479675 37.24593495934959,50 37.24593495934959,50.203252032520325 37.24593495934959,50.50813008130081 37.24593495934959,50.8130081300813 37.296747967479675,51.21951219512195 37.296747967479675,51.6260162601626 37.296747967479675,52.083333333333336 37.296747967479675,52.642276422764226 37.296747967479675,53.15040650406504 37.14430894308943,53.65853658536585 36.99186991869919,54.21747967479675 36.73780487804878,54.67479674796748 36.53455284552845,55.08130081300813 36.229674796747965,55.4369918699187 35.92479674796748,55.74186991869919 35.670731707317074,56.046747967479675 35.36585365853659,56.25 35.11178861788618,56.40243902439024 34.90853658536585,56.453252032520325 34.65447154471545,56.453252032520325 34.40040650406504,56.453252032520325 34.197154471544714,56.35162601626016 33.99390243902439,56.14837398373984 33.84146341463415,55.94512195121951 33.739837398373986,55.640243902439025 33.6890243902439,55.386178861788615 33.63821138211382,55.08130081300813 33.6890243902439,54.827235772357724 33.739837398373986,54.573170731707314 33.892276422764226,54.36991869918699 34.146341463414636,54.166666666666664 34.451219512195124,54.0650406504065 34.75609756097561,53.96341463414634 35.16260162601626,53.96341463414634 35.56910569105691,53.96341463414634 36.02642276422764,54.0650406504065 36.53455284552845,54.21747967479675 37.042682926829265,54.36991869918699 37.55081300813008,54.573170731707314 38.109756097560975,54.67479674796748 38.71951219512195,54.827235772357724 39.27845528455285,54.8780487804878 39.78658536585366,54.92886178861789" fill="none" stroke="black" stroke-width="0.6"></polyline><polyline points="39.78658536585366,54.92886178861789 40.24390243902439,54.979674796747965 40.59959349593496,55.03048780487805 40.95528455284553,55.03048780487805 41.3109756097561,54.92886178861789 41.71747967479675,54.827235772357724 42.22560975609756,54.573170731707314 42.42886178861789,54.47154471544715" fill="none" stroke="black" stroke-width="0.6"></polyline><polyline points="21.1890243902439,76.01626016260163 21.13821138211382,76.01626016260163 21.036585365853657,75.91463414634146 20.934959349593495,75.8130081300813 20.884146341463413,75.76219512195122 20.884146341463413,75.76219512195122 20.884146341463413,75.76219512195122 20.884146341463413,75.76219512195122 20.934959349593495,75.71138211382113 21.08739837398374,75.66056910569105 21.290650406504064,75.5081300813008 21.59552845528455,75.30487804878048 21.95121951219512,75.05081300813008 22.35772357723577,74.64430894308943 22.916666666666668,74.03455284552845 23.475609756097562,73.27235772357723 24.085365853658537,72.45934959349593 24.64430894308943,71.59552845528455 25.101626016260163,70.83333333333333 25.508130081300813,70.02032520325203 25.965447154471544,69.10569105691057 26.321138211382113,68.29268292682927 26.676829268292682,67.47967479674797 26.98170731707317,66.61585365853658 27.286585365853657,65.7520325203252 27.540650406504064,64.88821138211382 27.74390243902439,64.02439024390243 27.84552845528455,63.3130081300813 27.896341463414632,62.65243902439024 27.947154471544714,62.09349593495935 27.947154471544714,61.636178861788615 27.896341463414632,61.28048780487805 27.79471544715447,60.97560975609756 27.693089430894307,60.72154471544715 27.591463414634145,60.61991869918699 27.489837398373982,60.51829268292683 27.38821138211382,60.51829268292683 27.286585365853657,60.51829268292683 27.083333333333332,60.61991869918699 26.93089430894309,60.8739837398374 26.676829268292682,61.17886178861789 26.473577235772357,61.483739837398375 26.321138211382113,61.83943089430894 26.16869918699187,62.19512195121951 26.016260162601625,62.65243902439024 25.86382113821138,63.109756097560975 25.711382113821138,63.516260162601625 25.558943089430894,64.02439024390243 25.45731707317073,64.48170731707317 25.35569105691057,64.9390243902439 25.254065040650406,65.44715447154472" fill="none" stroke="black" stroke-width="0.6"></polyline><polyline points="25.254065040650406,65.44715447154472 25.203252032520325,65.95528455284553 25.101626016260163,66.46341463414635 25.05081300813008,67.02235772357723 25,67.53048780487805 25,68.08943089430895 25,68.4959349593496 25,68.95325203252033 25,69.51219512195122 25,69.91869918699187 25,70.32520325203252 25,70.73170731707317 25,71.08739837398373 25.05081300813008,71.4430894308943 25.05081300813008,71.84959349593495 25.101626016260163,72.15447154471545 25.152439024390244,72.45934959349593 25.254065040650406,72.71341463414635 25.35569105691057,72.96747967479675 25.45731707317073,73.22154471544715 25.558943089430894,73.47560975609755 25.711382113821138,73.67886178861788 25.86382113821138,73.9329268292683 26.016260162601625,74.1869918699187 26.16869918699187,74.33943089430895 26.371951219512194,74.54268292682927 26.524390243902438,74.6951219512195 26.727642276422763,74.84756097560975 26.93089430894309,74.94918699186992 27.184959349593495,75.10162601626016 27.38821138211382,75.15243902439025 27.642276422764226,75.20325203252033 27.947154471544714,75.20325203252033 28.20121951219512,75.20325203252033 28.455284552845526,75.10162601626016 28.709349593495933,75 28.912601626016258,74.94918699186992 29.115853658536583,74.79674796747967 29.369918699186993,74.6951219512195 29.573170731707318,74.49186991869918 29.827235772357724,74.33943089430895 30.03048780487805,74.13617886178862 30.233739837398375,73.8821138211382 30.4369918699187,73.57723577235772 30.589430894308943,73.27235772357723 30.741869918699187,72.91666666666667 30.84349593495935,72.5609756097561 30.945121951219512,72.20528455284553 31.046747967479675,71.79878048780488 31.148373983739837,71.39227642276423 31.30081300813008,70.8841463414634" fill="none" stroke="black" stroke-width="0.6"></polyline><polyline points="31.30081300813008,70.8841463414634 31.351626016260163,70.52845528455285 31.402439024390244,70.17276422764228 31.402439024390244,69.8170731707317 31.402439024390244,69.5630081300813 31.402439024390244,69.41056910569105 31.402439024390244,69.2581300813008 31.351626016260163,69.20731707317073 31.30081300813008,69.20731707317073 31.30081300813008,69.15650406504065 31.30081300813008,69.15650406504065 31.30081300813008,69.15650406504065 31.30081300813008,69.20731707317073 31.25,69.20731707317073 31.25,69.3089430894309 31.19918699186992,69.41056910569105 31.097560975609756,69.5630081300813 31.046747967479675,69.8170731707317 30.945121951219512,70.0711382113821 30.84349593495935,70.32520325203252 30.79268292682927,70.57926829268293 30.691056910569106,70.8841463414634 30.640243902439025,71.23983739837398 30.640243902439025,71.64634146341463 30.589430894308943,72.10365853658537 30.538617886178862,72.51016260162602 30.538617886178862,72.91666666666667 30.538617886178862,73.27235772357723 30.538617886178862,73.57723577235772 30.538617886178862,73.9329268292683 30.538617886178862,74.23780487804878 30.589430894308943,74.49186991869918 30.640243902439025,74.79674796747967 30.741869918699187,75 30.89430894308943,75.20325203252033 30.995934959349594,75.40650406504065 31.19918699186992,75.5589430894309 31.351626016260163,75.71138211382113 31.60569105691057,75.8130081300813 31.859756097560975,75.86382113821138 32.11382113821138,75.91463414634146 32.46951219512195,75.91463414634146 32.77439024390244,75.91463414634146 33.13008130081301,75.8130081300813 33.53658536585366,75.66056910569105 33.892276422764226,75.5081300813008 34.2479674796748,75.30487804878048 34.65447154471545,75 35.0609756097561,74.64430894308943 35.416666666666664,74.28861788617886 35.823170731707314,73.83130081300813" fill="none" stroke="black" stroke-width="0.6"></polyline><polyline points="35.823170731707314,73.83130081300813 36.1280487804878,73.3739837398374 36.43292682926829,72.96747967479675 36.6869918699187,72.51016260162602 36.890243902439025,72.05284552845528 37.042682926829265,71.64634146341463 37.19512195121951,71.23983739837398 37.296747967479675,70.8841463414634 37.39837398373984,70.630081300813 37.449186991869915,70.42682926829268 37.5,70.27439024390243 37.55081300813008,70.17276422764228 37.55081300813008,70.1219512195122 37.55081300813008,70.1219512195122 37.55081300813008,70.1219512195122 37.55081300813008,70.1219512195122 37.60162601626016,70.17276422764228 37.65243902439024,70.27439024390243 37.703252032520325,70.42682926829268 37.80487804878049,70.68089430894308 37.90650406504065,71.03658536585365 38.00813008130081,71.4430894308943 38.109756097560975,71.90040650406505 38.16056910569105,72.35772357723577 38.16056910569105,72.86585365853658 38.16056910569105,73.32317073170732 38.109756097560975,73.78048780487805 37.95731707317073,74.1869918699187 37.80487804878049,74.54268292682927 37.65243902439024,74.79674796747967 37.449186991869915,74.94918699186992 37.296747967479675,75.10162601626016 37.09349593495935,75.15243902439025 36.890243902439025,75.20325203252033 36.73780487804878,75.20325203252033 36.483739837398375,75.15243902439025 36.229674796747965,75.10162601626016 35.97560975609756,75 35.77235772357724,74.89837398373983 35.61991869918699,74.79674796747967 35.51829268292683,74.7459349593496 35.416666666666664,74.64430894308943 35.36585365853659,74.59349593495935 35.36585365853659,74.54268292682927 35.36585365853659,74.54268292682927 35.36585365853659,74.54268292682927 35.46747967479675,74.54268292682927 35.61991869918699,74.49186991869918 35.8739837398374,74.4410569105691 36.229674796747965,74.39024390243902 36.6869918699187,74.33943089430895" fill="none" stroke="black" stroke-width="0.6"></polyline><polyline points="36.6869918699187,74.33943089430895 37.14430894308943,74.23780487804878 37.703252032520325,74.1869918699187 38.41463414634146,74.08536585365853 39.1260162601626,74.03455284552845 39.78658536585366,73.98373983739837 40.447154471544714,73.8821138211382 41.00609756097561,73.83130081300813 41.46341463414634,73.72967479674797 41.97154471544715,73.67886178861788 42.27642276422764,73.6280487804878" fill="none" stroke="black" stroke-width="0.6"></polyline><polyline points="22.205284552845526,95.98577235772358 22.205284552845526,95.98577235772358 22.154471544715445,95.9349593495935 22.103658536585364,95.83333333333333 22.103658536585364,95.83333333333333 22.103658536585364,95.83333333333333 22.103658536585364,95.78252032520325 22.205284552845526,95.73170731707317 22.35772357723577,95.630081300813 22.560975609756095,95.47764227642276 22.764227642276424,95.32520325203252 23.06910569105691,95.02032520325203 23.42479674796748,94.66463414634146 23.78048780487805,94.20731707317073 24.1869918699187,93.54674796747967 24.64430894308943,92.73373983739837 25.05081300813008,91.97154471544715 25.558943089430894,91.10772357723577 26.067073170731707,90.09146341463415 26.524390243902438,89.27845528455285 27.03252032520325,88.36382113821138 27.540650406504064,87.34756097560975 27.997967479674795,86.48373983739837 28.404471544715445,85.5691056910569 28.760162601626014,84.65447154471545 29.0650406504065,83.73983739837398 29.369918699186993,82.8760162601626 29.6239837398374,82.0630081300813 29.776422764227643,81.30081300813008 29.928861788617887,80.6910569105691 29.979674796747968,80.1829268292683 29.979674796747968,79.77642276422765 29.979674796747968,79.47154471544715 29.878048780487806,79.26829268292683 29.725609756097562,79.16666666666667 29.573170731707318,79.11585365853658 29.369918699186993,79.11585365853658 29.115853658536583,79.21747967479675 28.810975609756095,79.42073170731707 28.455284552845526,79.72560975609755 28.099593495934958,80.08130081300813 27.79471544715447,80.53861788617886 27.38821138211382,80.9959349593496 27.083333333333332,81.45325203252033 26.778455284552845,81.96138211382113 26.473577235772357,82.5711382113821 26.21951219512195,83.130081300813 25.965447154471544,83.73983739837398 25.8130081300813,84.45121951219512 25.660569105691057,85.11178861788618 25.558943089430894,85.77235772357723" fill="none" stroke="black" stroke-width="0.6"></polyline><polyline points="25.558943089430894,85.77235772357723 25.45731707317073,86.4329268292683 25.45731707317073,87.09349593495935 25.45731707317073,87.70325203252033 25.45731707317073,88.26219512195122 25.45731707317073,88.77032520325203 25.508130081300813,89.32926829268293 25.609756097560975,89.78658536585365 25.711382113821138,90.1930894308943 25.8130081300813,90.65040650406503 25.914634146341463,91.0060975609756 26.016260162601625,91.36178861788618 26.117886178861788,91.71747967479675 26.21951219512195,91.97154471544715 26.321138211382113,92.27642276422765 26.473577235772357,92.58130081300813 26.57520325203252,92.83536585365853 26.676829268292682,93.08943089430895 26.778455284552845,93.39430894308943 26.880081300813007,93.59756097560975 26.98170731707317,93.80081300813008 27.134146341463413,94.0040650406504 27.235772357723576,94.15650406504065 27.38821138211382,94.2581300813008 27.591463414634145,94.35975609756098 27.74390243902439,94.46138211382113 27.896341463414632,94.5630081300813 28.15040650406504,94.71544715447155 28.353658536585364,94.76626016260163 28.55691056910569,94.86788617886178 28.861788617886177,94.91869918699187 29.0650406504065,94.96951219512195 29.31910569105691,95.02032520325203 29.6239837398374,95.02032520325203 29.928861788617887,95.02032520325203 30.182926829268293,94.91869918699187 30.48780487804878,94.8170731707317 30.741869918699187,94.66463414634146 30.995934959349594,94.51219512195122 31.25,94.2581300813008 31.504065040650406,94.0040650406504 31.808943089430894,93.75 32.11382113821138,93.39430894308943 32.36788617886179,92.98780487804878 32.672764227642276,92.58130081300813 32.926829268292686,92.17479674796748 33.18089430894309,91.76829268292683 33.4349593495935,91.3109756097561 33.63821138211382,90.85365853658536 33.790650406504064,90.4471544715447 33.94308943089431,89.98983739837398" fill="none" stroke="black" stroke-width="0.6"></polyline><polyline points="33.94308943089431,89.98983739837398 33.99390243902439,89.78658536585365 34.04471544715447,89.58333333333333 34.04471544715447,89.22764227642276 34.04471544715447,88.92276422764228 34.04471544715447,88.66869918699187 34.04471544715447,88.46544715447155 33.94308943089431,88.3130081300813 33.892276422764226,88.26219512195122 33.84146341463415,88.26219512195122 33.790650406504064,88.26219512195122 33.739837398373986,88.26219512195122 33.63821138211382,88.36382113821138 33.485772357723576,88.5670731707317 33.28252032520325,88.8719512195122 33.13008130081301,89.17682926829268 32.926829268292686,89.48170731707317 32.77439024390244,89.83739837398373 32.6219512195122,90.14227642276423 32.418699186991866,90.54878048780488 32.266260162601625,90.95528455284553 32.16463414634146,91.41260162601625 32.0630081300813,91.869918699187 31.961382113821138,92.27642276422765 31.910569105691057,92.58130081300813 31.859756097560975,92.88617886178862 31.859756097560975,93.1910569105691 31.859756097560975,93.4451219512195 31.859756097560975,93.75 31.910569105691057,94.0040650406504 32.012195121951216,94.20731707317073 32.16463414634146,94.46138211382113 32.3170731707317,94.66463414634146 32.46951219512195,94.8170731707317 32.72357723577236,95.02032520325203 32.926829268292686,95.17276422764228 33.18089430894309,95.32520325203252 33.485772357723576,95.42682926829268 33.790650406504064,95.47764227642276 34.04471544715447,95.52845528455285 34.34959349593496,95.52845528455285 34.65447154471545,95.52845528455285 34.959349593495936,95.47764227642276 35.36585365853659,95.32520325203252 35.72154471544715,95.22357723577235 36.1280487804878,95.0711382113821 36.53455284552845,94.86788617886178 36.83943089430894,94.66463414634146 37.19512195121951,94.46138211382113 37.55081300813008,94.20731707317073 37.855691056910565,93.90243902439025" fill="none" stroke="black" stroke-width="0.6"></polyline><polyline points="37.855691056910565,93.90243902439025 38.21138211382114,93.54674796747967 38.5670731707317,93.08943089430895 38.87195121951219,92.6829268292683 39.176829268292686,92.22560975609755 39.43089430894309,91.76829268292683 39.63414634146341,91.36178861788618 39.83739837398374,90.95528455284553 40.040650406504064,90.4979674796748 40.142276422764226,90.14227642276423 40.24390243902439,89.83739837398373 40.29471544715447,89.53252032520325 40.29471544715447,89.32926829268293 40.29471544715447,89.1260162601626 40.29471544715447,88.97357723577235 40.29471544715447,88.8719512195122 40.29471544715447,88.8211382113821 40.29471544715447,88.8211382113821 40.24390243902439,88.8211382113821 40.24390243902439,88.8211382113821 40.24390243902439,88.8211382113821 40.24390243902439,88.8719512195122 40.24390243902439,88.92276422764228 40.24390243902439,88.97357723577235 40.24390243902439,89.07520325203252 40.24390243902439,89.22764227642276 40.29471544715447,89.43089430894308 40.29471544715447,89.53252032520325 40.29471544715447,89.6341463414634 40.396341463414636,89.88821138211382 40.447154471544714,90.14227642276423 40.4979674796748,90.4979674796748 40.548780487804876,90.85365853658536 40.65040650406504,91.3109756097561 40.701219512195124,91.869918699187 40.701219512195124,92.32723577235772 40.701219512195124,92.88617886178862 40.701219512195124,93.39430894308943 40.65040650406504,93.85162601626016 40.548780487804876,94.3089430894309 40.447154471544714,94.66463414634146 40.29471544715447,94.96951219512195 40.142276422764226,95.27439024390243 39.989837398373986,95.47764227642276 39.78658536585366,95.630081300813 39.53252032520325,95.73170731707317 39.27845528455285,95.83333333333333 39.02439024390244,95.83333333333333 38.71951219512195,95.78252032520325 38.41463414634146,95.68089430894308 38.109756097560975,95.52845528455285" fill="none" stroke="black" stroke-width="0.6"></polyline><polyline points="38.109756097560975,95.52845528455285 37.80487804878049,95.27439024390243 37.60162601626016,95.0711382113821 37.449186991869915,94.86788617886178 37.34756097560975,94.66463414634146 37.296747967479675,94.51219512195122 37.296747967479675,94.41056910569105 37.296747967479675,94.3089430894309 37.296747967479675,94.2581300813008 37.39837398373984,94.20731707317073 37.60162601626016,94.15650406504065 37.855691056910565,94.10569105691057 38.21138211382114,94.05487804878048 38.61788617886179,94.05487804878048 39.02439024390244,94.0040650406504 39.48170731707317,93.95325203252033 40.09146341463415,93.90243902439025 40.7520325203252,93.85162601626016 41.514227642276424,93.75 42.27642276422764,93.64837398373983 42.98780487804878,93.54674796747967 43.699186991869915,93.4959349593496 44.359756097560975,93.4959349593496 44.96951219512195,93.4451219512195 45.579268292682926,93.29268292682927 46.1890243902439,93.14024390243902 46.59552845528455,93.03861788617886 46.951219512195124,92.98780487804878 47.40853658536585,92.78455284552845" fill="none" stroke="black" stroke-width="0.6"></polyline></svg>