<svg height="100" width="100" preserveAspectRatio="xMidYMid meet"><polyline points="50.30487804878049,50.203252032520325 50.30487804878049,50.15243902439024 50.30487804878049,50.10162601626016 50.30487804878049,50.05081300813008 50.30487804878049,50 50.30487804878049,50 50.30487804878049,49.949186991869915 50.30487804878049,49.949186991869915 50.30487804878049,49.949186991869915 50.30487804878049,49.949186991869915 50.30487804878049,49.949186991869915 50.30487804878049,49.949186991869915 50.30487804878049,49.949186991869915 50.30487804878049,49.949186991869915 50.30487804878049,49.949186991869915 50.30487804878049,49.949186991869915 50.30487804878049,49.949186991869915 50.30487804878049,49.949186991869915 50.30487804878049,49.949186991869915 50.30487804878049,50 50.30487804878049,50 50.30487804878049,50 50.30487804878049,50 50.30487804878049,50 50.30487804878049,50 50.30487804878049,50 50.30487804878049,50 50.30487804878049,50 50.30487804878049,50 50.30487804878049,50 50.30487804878049,50 50.30487804878049,50 50.30487804878049,50 50.30487804878049,50 50.30487804878049,50 50.30487804878049,50 50.30487804878049,50 50.30487804878049,50.05081300813008 50.355691056910565,50.05081300813008 50.355691056910565,50.05081300813008 50.40650406504065,50.05081300813008 50.45731707317073,50.05081300813008 50.50813008130081,50.05081300813008 50.609756097560975,50 50.71138211382114,49.89837398373984 50.86382113821138,49.84756097560975 51.016260162601625,49.69512195121951 51.21951219512195,49.542682926829265 51.37195121951219,49.33943089430894 51.52439024390244,49.136178861788615 51.72764227642276,48.88211382113821" fill="none" stroke="black" stroke-width="0.6"></polyline><polyline points="51.72764227642276,48.88211382113821 51.880081300813,48.67886178861789 51.981707317073166,48.42479674796748 52.13414634146341,48.170731707317074 52.235772357723576,47.96747967479675 52.33739837398374,47.71341463414634 52.4390243902439,47.459349593495936 52.489837398373986,47.20528455284553 52.59146341463415,46.951219512195124 52.642276422764226,46.697154471544714 52.74390243902439,46.44308943089431 52.74390243902439,46.239837398373986 52.79471544715447,45.9349593495935 52.84552845528455,45.73170731707317 52.84552845528455,45.47764227642276 52.84552845528455,45.22357723577235 52.84552845528455,45.02032520325203 52.79471544715447,44.8170731707317 52.74390243902439,44.61382113821138 52.642276422764226,44.41056910569105 52.59146341463415,44.20731707317073 52.489837398373986,43.953252032520325 52.38821138211382,43.75 52.28658536585366,43.49593495934959 52.13414634146341,43.292682926829265 52.03252032520325,43.03861788617886 51.880081300813,42.78455284552845 51.67682926829268,42.63211382113821 51.52439024390244,42.42886178861789 51.32113821138211,42.17479674796748 51.168699186991866,41.97154471544715 50.96544715447154,41.76829268292683 50.71138211382114,41.5650406504065 50.50813008130081,41.41260162601626 50.2540650406504,41.209349593495936 50,41.00609756097561 49.74593495934959,40.853658536585364 49.49186991869919,40.701219512195124 49.1869918699187,40.59959349593496 48.93292682926829,40.447154471544714 48.6280487804878,40.396341463414636 48.323170731707314,40.29471544715447 48.01829268292683,40.24390243902439 47.764227642276424,40.19308943089431 47.40853658536585,40.142276422764226 47.103658536585364,40.142276422764226 46.798780487804876,40.142276422764226 46.44308943089431,40.142276422764226 46.1890243902439,40.142276422764226 45.9349593495935,40.142276422764226 45.68089430894309,40.142276422764226" fill="none" stroke="black" stroke-width="0.6"></polyline><polyline points="45.68089430894309,40.142276422764226 45.42682926829268,40.19308943089431 45.22357723577235,40.24390243902439 44.96951219512195,40.34552845528455 44.766260162601625,40.396341463414636 44.512195121951216,40.447154471544714 44.25813008130081,40.59959349593496 44.0040650406504,40.701219512195124 43.75,40.853658536585364 43.44512195121951,41.00609756097561 43.24186991869919,41.209349593495936 42.98780487804878,41.41260162601626 42.78455284552845,41.61585365853659 42.58130081300813,41.86991869918699 42.3780487804878,42.073170731707314 42.17479674796748,42.327235772357724 41.97154471544715,42.58130081300813 41.71747967479675,42.9369918699187 41.46341463414634,43.292682926829265 41.209349593495936,43.64837398373984 40.90447154471545,44.105691056910565 40.65040650406504,44.512195121951216 40.447154471544714,44.918699186991866 40.19308943089431,45.325203252032516 39.989837398373986,45.833333333333336 39.78658536585366,46.239837398373986 39.63414634146341,46.697154471544714 39.48170731707317,47.20528455284553 39.329268292682926,47.71341463414634 39.176829268292686,48.323170731707314 39.02439024390244,48.93292682926829 38.87195121951219,49.542682926829265 38.77032520325203,50.15243902439024 38.71951219512195,50.71138211382114 38.71951219512195,51.21951219512195 38.71951219512195,51.67682926829268 38.82113821138211,52.1849593495935 38.922764227642276,52.74390243902439 39.1260162601626,53.353658536585364 39.27845528455285,53.96341463414634 39.48170731707317,54.573170731707314 39.735772357723576,55.18292682926829 39.989837398373986,55.6910569105691 40.24390243902439,56.25 40.59959349593496,56.80894308943089 40.95528455284553,57.3170731707317 41.3109756097561,57.77439024390244 41.71747967479675,58.231707317073166 42.1239837398374,58.63821138211382 42.58130081300813,59.09552845528455 43.03861788617886,59.40040650406504" fill="none" stroke="black" stroke-width="0.6"></polyline><polyline points="43.03861788617886,59.40040650406504 43.39430894308943,59.65447154471545 43.80081300813008,59.90853658536585 44.25813008130081,60.21341463414634 44.71544715447154,60.416666666666664 45.27439024390244,60.670731707317074 45.833333333333336,60.8739837398374 46.34146341463415,61.02642276422764 46.84959349593496,61.1280487804878 47.459349593495936,61.229674796747965 48.06910569105691,61.229674796747965 48.67886178861789,61.28048780487805 49.33943089430894,61.229674796747965 49.949186991869915,61.17886178861789 50.55894308943089,61.02642276422764 51.168699186991866,60.8739837398374 51.72764227642276,60.72154471544715 52.28658536585366,60.51829268292683 52.947154471544714,60.3150406504065 53.50609756097561,60.0609756097561 54.11585365853659,59.857723577235774 54.72560975609756,59.552845528455286 55.33536585365854,59.197154471544714 56.046747967479675,58.790650406504064 56.75813008130081,58.231707317073166 57.3170731707317,57.77439024390244 57.8760162601626,57.3170731707317 58.33333333333333,56.91056910569105 58.6890243902439,56.453252032520325 59.04471544715447,55.99593495934959 59.34959349593496,55.48780487804878 59.65447154471545,54.979674796747965 59.90853658536585,54.420731707317074 60.16260162601626,53.760162601626014 60.416666666666664,53.09959349593496 60.61991869918699,52.38821138211382 60.823170731707314,51.575203252032516 60.97560975609756,50.91463414634146 61.077235772357724,50.203252032520325 61.1280487804878,49.4410569105691 61.17886178861789,48.729674796747965 61.17886178861789,48.42479674796748 61.17886178861789,47.459349593495936 61.077235772357724,46.84959349593496 60.97560975609756,46.239837398373986 60.8739837398374,45.579268292682926 60.77235772357724,44.918699186991866 60.670731707317074,44.25813008130081 60.51829268292683,43.546747967479675 60.3150406504065,42.886178861788615 60.11178861788618,42.27642276422764" fill="none" stroke="black" stroke-width="0.6"></polyline><polyline points="60.11178861788618,42.27642276422764 59.857723577235774,41.61585365853659 59.552845528455286,40.95528455284553 59.298780487804876,40.396341463414636 58.99390243902439,39.83739837398374 58.6890243902439,39.38008130081301 58.38414634146341,38.82113821138211 58.02845528455284,38.3130081300813 57.672764227642276,37.855691056910565 57.21544715447154,37.39837398373984 56.80894308943089,36.99186991869919 56.40243902439024,36.53455284552845 55.94512195121951,36.17886178861789 55.48780487804878,35.823170731707314 54.979674796747965,35.46747967479675 54.420731707317074,35.11178861788618 53.96341463414634,34.80691056910569 53.50609756097561,34.552845528455286 52.9979674796748,34.298780487804876 52.540650406504064,34.09552845528455 51.981707317073166,33.892276422764226 51.37195121951219,33.739837398373986 50.8130081300813,33.58739837398374 50.2540650406504,33.485772357723576 49.64430894308943,33.38414634146341 49.03455284552845,33.333333333333336 48.42479674796748,33.23170731707317 47.764227642276424,33.23170731707317 47.15447154471545,33.18089430894309 46.54471544715447,33.13008130081301 45.9349593495935,33.13008130081301 45.325203252032516,33.13008130081301 44.766260162601625,33.18089430894309 44.05487804878049,33.333333333333336 43.44512195121951,33.4349593495935 42.78455284552845,33.58739837398374 42.1239837398374,33.790650406504064 41.5650406504065,33.94308943089431 40.90447154471545,34.09552845528455 40.24390243902439,34.298780487804876 39.63414634146341,34.5020325203252 39.02439024390244,34.75609756097561 38.41463414634146,35.0609756097561 37.80487804878049,35.3150406504065 37.19512195121951,35.61991869918699 36.636178861788615,35.97560975609756 36.1280487804878,36.28048780487805 35.61991869918699,36.636178861788615 35.0609756097561,37.042682926829265 34.603658536585364,37.5 34.146341463414636,37.95731707317073" fill="none" stroke="black" stroke-width="0.6"></polyline><polyline points="34.146341463414636,37.95731707317073 33.790650406504064,38.41463414634146 33.4349593495935,38.87195121951219 33.13008130081301,39.38008130081301 32.82520325203252,39.9390243902439 32.6219512195122,40.447154471544714 32.418699186991866,41.05691056910569 32.16463414634146,41.76829268292683 32.012195121951216,42.42886178861789 31.859756097560975,43.140243902439025 31.758130081300813,43.85162601626016 31.65650406504065,44.5630081300813 31.60569105691057,45.27439024390244 31.554878048780488,46.08739837398374 31.554878048780488,46.90040650406504 31.554878048780488,47.66260162601626 31.554878048780488,48.52642276422764 31.60569105691057,49.23780487804878 31.758130081300813,50.05081300813008 31.859756097560975,50.8130081300813 32.012195121951216,51.575203252032516 32.21544715447154,52.38821138211382 32.418699186991866,53.2520325203252 32.57113821138211,54.0650406504065 32.82520325203252,54.92886178861789 33.079268292682926,55.792682926829265 33.333333333333336,56.55487804878049 33.63821138211382,57.3170731707317 33.99390243902439,58.130081300813 34.34959349593496,58.790650406504064 34.75609756097561,59.552845528455286 35.16260162601626,60.21341463414634 35.61991869918699,60.823170731707314 36.1280487804878,61.483739837398375 36.636178861788615,62.09349593495935 37.19512195121951,62.703252032520325 37.7540650406504,63.262195121951216 38.3130081300813,63.71951219512195 38.87195121951219,64.1260162601626 39.53252032520325,64.53252032520325 40.142276422764226,64.9390243902439 40.802845528455286,65.34552845528455 41.5650406504065,65.7520325203252 42.22560975609756,66.10772357723577 42.98780487804878,66.46341463414635 43.75,66.76829268292683 44.512195121951216,67.02235772357723 45.27439024390244,67.27642276422765 46.13821138211382,67.53048780487805 46.90040650406504,67.73373983739837 47.71341463414634,67.9369918699187" fill="none" stroke="black" stroke-width="0.6"></polyline><polyline points="47.71341463414634,67.9369918699187 48.577235772357724,68.08943089430895 49.390243902439025,68.1910569105691 50.203252032520325,68.24186991869918 51.016260162601625,68.29268292682927 51.77845528455284,68.29268292682927 52.540650406504064,68.24186991869918 53.353658536585364,68.14024390243902 54.0650406504065,68.03861788617886 54.77642276422764,67.88617886178862 55.53861788617886,67.6829268292683 56.14837398373984,67.42886178861788 56.80894308943089,67.17479674796748 57.418699186991866,66.869918699187 57.97764227642276,66.61585365853658 58.485772357723576,66.3109756097561 58.99390243902439,65.95528455284553 59.451219512195124,65.59959349593495 59.857723577235774,65.2439024390244 60.264227642276424,64.83739837398373 60.670731707317074,64.32926829268293 61.1280487804878,63.71951219512195 61.58536585365854,63.05894308943089 61.9410569105691,62.5 62.24593495934959,62.042682926829265 62.5,61.58536585365854 62.7540650406504,61.02642276422764 63.00813008130081,60.36585365853659 63.21138211382114,59.75609756097561 63.41463414634146,59.146341463414636 63.61788617886179,58.38414634146341 63.82113821138211,57.672764227642276 64.02439024390243,57.012195121951216 64.17682926829268,56.30081300813008 64.32926829268293,55.53861788617886 64.48170731707317,54.72560975609756 64.6341463414634,53.86178861788618 64.78658536585365,53.048780487804876 64.88821138211382,52.235772357723576 64.98983739837398,51.47357723577235 65.09146341463415,50.71138211382114 65.14227642276423,49.949186991869915 65.14227642276423,49.1869918699187 65.1930894308943,48.47560975609756 65.1930894308943,47.71341463414634 65.1930894308943,47.0020325203252 65.1930894308943,46.239837398373986 65.1930894308943,45.47764227642276 65.09146341463415,44.66463414634146 65.04065040650406,43.90243902439024 64.88821138211382,43.140243902439025" fill="none" stroke="black" stroke-width="0.6"></polyline><polyline points="64.88821138211382,43.140243902439025 64.73577235772358,42.3780487804878 64.53252032520325,41.666666666666664 64.380081300813,40.95528455284553 64.1260162601626,40.19308943089431 63.922764227642276,39.53252032520325 63.71951219512195,38.87195121951219 63.41463414634146,38.21138211382114 63.16056910569105,37.65243902439024 62.80487804878049,37.09349593495935 62.449186991869915,36.483739837398375 62.296747967479675,36.17886178861789 62.09349593495935,35.92479674796748 61.6869918699187,35.416666666666664 61.28048780487805,34.857723577235774 60.823170731707314,34.34959349593496 60.36585365853659,33.892276422764226 59.857723577235774,33.38414634146341 59.34959349593496,32.97764227642276 58.84146341463415,32.57113821138211 58.231707317073166,32.11382113821138 57.672764227642276,31.808943089430894 57.11382113821138,31.453252032520325 56.5040650406504,31.097560975609756 55.89430894308943,30.741869918699187 55.233739837398375,30.38617886178862 54.52235772357724,30.03048780487805 53.86178861788618,29.725609756097562 53.201219512195124,29.471544715447155 52.489837398373986,29.166666666666664 51.77845528455284,28.912601626016258 51.0670731707317,28.65853658536585 50.66056910569105,28.55691056910569 50.2540650406504,28.404471544715445 49.59349593495935,28.20121951219512 48.83130081300813,27.997967479674795 48.06910569105691,27.79471544715447 47.357723577235774,27.642276422764226 46.59552845528455,27.4390243902439 45.833333333333336,27.33739837398374 45.07113821138211,27.184959349593495 44.30894308943089,27.083333333333332 43.59756097560975,26.98170731707317 42.83536585365854,26.93089430894309 42.1239837398374,26.880081300813007 41.36178861788618,26.829268292682926 40.59959349593496,26.829268292682926 39.78658536585366,26.880081300813007 39.07520325203252,26.93089430894309 38.36382113821138,26.98170731707317 37.65243902439024,27.083333333333332" fill="none" stroke="black" stroke-width="0.6"></polyline><polyline points="37.65243902439024,27.083333333333332 36.890243902439025,27.235772357723576 36.1280487804878,27.4390243902439 35.416666666666664,27.642276422764226 34.70528455284553,27.84552845528455 34.04471544715447,28.099593495934958 33.333333333333336,28.353658536585364 32.672764227642276,28.60772357723577 32.012195121951216,28.912601626016258 31.351626016260163,29.268292682926827 30.640243902439025,29.6239837398374 30.03048780487805,30.03048780487805 29.420731707317074,30.48780487804878 28.810975609756095,30.945121951219512 28.2520325203252,31.453252032520325 27.693089430894307,31.961382113821138 27.134146341463413,32.52032520325203 26.57520325203252,33.13008130081301 26.016260162601625,33.790650406504064 25.508130081300813,34.40040650406504 25,35.16260162601626 24.491869918699187,35.97560975609756 24.034552845528456,36.6869918699187 23.577235772357724,37.449186991869915 23.119918699186993,38.3130081300813 22.764227642276424,39.02439024390244 22.459349593495933,39.78658536585366 22.103658536585364,40.59959349593496 22.0020325203252,40.95528455284553 21.849593495934958,41.36178861788618 21.59552845528455,42.22560975609756 21.290650406504064,43.08943089430894 21.13821138211382,43.80081300813008 20.985772357723576,44.512195121951216 20.884146341463413,45.27439024390244 20.833333333333332,46.03658536585366 20.73170731707317,46.84959349593496 20.68089430894309,47.8150406504065 20.630081300813007,48.67886178861789 20.630081300813007,49.542682926829265 20.630081300813007,50.45731707317073 20.630081300813007,51.37195121951219 20.68089430894309,52.33739837398374 20.78252032520325,53.353658536585364 20.884146341463413,54.21747967479675 21.036585365853657,55.18292682926829 21.239837398373982,56.14837398373984 21.392276422764226,57.11382113821138 21.646341463414632,58.079268292682926 21.849593495934958,59.09552845528455 22.103658536585364,59.959349593495936" fill="none" stroke="black" stroke-width="0.6"></polyline><polyline points="22.103658536585364,59.959349593495936 22.40853658536585,60.8739837398374 22.764227642276424,61.78861788617886 23.119918699186993,62.55081300813008 23.475609756097562,63.3130081300813 23.882113821138212,64.1260162601626 24.339430894308943,64.83739837398373 24.796747967479675,65.65040650406505 25.304878048780488,66.41260162601625 25.8130081300813,67.1239837398374 26.371951219512194,67.88617886178862 26.93089430894309,68.64837398373983 27.540650406504064,69.3089430894309 28.20121951219512,69.96951219512195 28.810975609756095,70.68089430894308 29.471544715447155,71.34146341463415 30.182926829268293,72.0020325203252 30.84349593495935,72.66260162601625 31.554878048780488,73.22154471544715 32.3170731707317,73.83130081300813 33.02845528455285,74.39024390243902 33.739837398373986,74.84756097560975 34.5020325203252,75.30487804878048 35.21341463414634,75.71138211382113 35.97560975609756,76.11788617886178 36.78861788617886,76.52439024390243 37.5,76.880081300813 38.262195121951216,77.1849593495935 39.07520325203252,77.54065040650406 39.83739837398374,77.84552845528455 40.65040650406504,78.15040650406505 41.41260162601626,78.35365853658537 42.17479674796748,78.5060975609756 42.886178861788615,78.65853658536585 43.64837398373984,78.76016260162602 44.359756097560975,78.91260162601625 45.12195121951219,78.96341463414635 45.88414634146341,79.0650406504065 46.59552845528455,79.0650406504065 47.30691056910569,79.11585365853658 48.01829268292683,79.11585365853658 48.6280487804878,79.11585365853658 49.33943089430894,79.11585365853658 50.05081300813008,79.0650406504065 50.66056910569105,79.01422764227642 51.32113821138211,78.96341463414635 51.981707317073166,78.91260162601625 52.59146341463415,78.8109756097561 53.201219512195124,78.76016260162602 53.86178861788618,78.65853658536585 54.420731707317074,78.60772357723577" fill="none" stroke="black" stroke-width="0.6"></polyline><polyline points="54.420731707317074,78.60772357723577 55.03048780487805,78.5569105691057 55.6910569105691,78.45528455284553 56.30081300813008,78.30284552845528 56.96138211382114,78.15040650406505 57.672764227642276,77.9471544715447 58.28252032520325,77.74390243902438 58.892276422764226,77.54065040650406 59.5020325203252,77.33739837398373 60.0609756097561,77.1849593495935 60.61991869918699,76.98170731707317 61.229674796747965,76.77845528455285 61.73780487804878,76.57520325203252 62.24593495934959,76.3719512195122 62.80487804878049,76.11788617886178 63.262195121951216,75.86382113821138 63.77032520325203,75.5589430894309 64.32926829268293,75.20325203252033 64.78658536585365,74.84756097560975 65.29471544715447,74.49186991869918 65.85365853658537,74.08536585365853 66.3109756097561,73.72967479674797 66.76829268292683,73.32317073170732 67.22560975609755,72.91666666666667 67.6321138211382,72.5609756097561 68.03861788617886,72.15447154471545 68.4451219512195,71.7479674796748 68.85162601626016,71.29065040650406 69.2581300813008,70.8841463414634 69.66463414634146,70.47764227642276 70.0711382113821,69.96951219512195 70.47764227642276,69.46138211382113 70.83333333333333,68.90243902439025 71.23983739837398,68.4451219512195 71.59552845528455,67.9369918699187 71.95121951219512,67.3780487804878 72.3069105691057,66.8191056910569 72.61178861788618,66.26016260162602 72.96747967479675,65.65040650406505 73.119918699187,65.34552845528455 73.27235772357723,64.98983739837398 73.57723577235772,64.380081300813 73.83130081300813,63.77032520325203 74.08536585365853,63.16056910569105 74.28861788617886,62.5 74.54268292682927,61.890243902439025 74.7459349593496,61.28048780487805 74.89837398373983,60.61991869918699 75.10162601626016,59.959349593495936 75.2540650406504,59.34959349593496 75.40650406504065,58.790650406504064" fill="none" stroke="black" stroke-width="0.6"></polyline><polyline points="75.40650406504065,58.790650406504064 75.5081300813008,58.18089430894309 75.60975609756098,57.62195121951219 75.71138211382113,57.11382113821138 75.76219512195122,56.55487804878049 75.8130081300813,56.046747967479675 75.86382113821138,55.53861788617886 75.91463414634146,55.03048780487805 75.91463414634146,54.6239837398374 75.96544715447155,54.166666666666664 75.96544715447155,53.760162601626014 75.96544715447155,53.353658536585364 75.91463414634146,52.947154471544714 75.86382113821138,52.59146341463415 75.8130081300813,52.235772357723576 75.76219512195122,51.829268292682926 75.71138211382113,51.52439024390244 75.66056910569105,51.21951219512195 75.5589430894309,50.96544715447154 75.5081300813008,50.71138211382114 75.45731707317073,50.55894308943089 75.35569105691057,50.355691056910565 75.30487804878048,50.203252032520325 75.30487804878048,50.10162601626016 75.2540650406504,50 75.2540650406504,49.89837398373984 75.2540650406504,49.84756097560975 75.2540650406504,49.796747967479675 75.2540650406504,49.74593495934959 75.2540650406504,49.74593495934959 75.2540650406504,49.74593495934959 75.2540650406504,49.74593495934959 75.2540650406504,49.74593495934959 75.2540650406504,49.74593495934959 75.2540650406504,49.74593495934959 75.2540650406504,49.74593495934959 75.30487804878048,49.74593495934959 75.35569105691057,49.69512195121951 75.45731707317073,49.64430894308943 75.60975609756098,49.59349593495935" fill="none" stroke="black" stroke-width="0.6"></polyline></svg>