<svg height="100" width="100" preserveAspectRatio="xMidYMid meet"><polyline points="50.10162601626016,50.05081300813008 50.10162601626016,50 50.10162601626016,49.89837398373984 50.10162601626016,49.84756097560975 50.10162601626016,49.796747967479675 50.10162601626016,49.796747967479675 50.10162601626016,49.796747967479675 50.10162601626016,49.796747967479675 50.10162601626016,49.796747967479675 50.15243902439024,49.796747967479675 50.203252032520325,49.796747967479675 50.203252032520325,49.84756097560975 50.2540650406504,49.84756097560975 50.30487804878049,49.84756097560975 50.355691056910565,49.796747967479675 50.355691056910565,49.74593495934959 50.40650406504065,49.59349593495935 50.40650406504065,49.49186991869919 50.40650406504065,49.28861788617886 50.40650406504065,49.136178861788615 50.40650406504065,48.93292682926829 50.30487804878049,48.729674796747965 50.203252032520325,48.577235772357724 50.10162601626016,48.3739837398374 50,48.22154471544715 49.89837398373984,48.11991869918699 49.74593495934959,48.01829268292683 49.59349593495935,47.916666666666664 49.390243902439025,47.86585365853659 49.1869918699187,47.86585365853659 48.983739837398375,47.86585365853659 48.729674796747965,47.86585365853659 48.52642276422764,47.86585365853659 48.27235772357724,47.96747967479675 48.06910569105691,48.01829268292683 47.86585365853659,48.11991869918699 47.61178861788618,48.22154471544715 47.357723577235774,48.3739837398374 47.15447154471545,48.47560975609756 46.951219512195124,48.6280487804878 46.7479674796748,48.78048780487805 46.59552845528455,48.93292682926829 46.392276422764226,49.136178861788615 46.290650406504064,49.28861788617886 46.1890243902439,49.4410569105691 46.13821138211382,49.64430894308943 46.08739837398374,49.796747967479675 46.08739837398374,50.05081300813008 46.08739837398374,50.30487804878049 46.08739837398374,50.50813008130081 46.13821138211382,50.762195121951216" fill="none" stroke="black" stroke-width="0.6"></polyline><polyline points="46.13821138211382,50.762195121951216 46.1890243902439,50.96544715447154 46.290650406504064,51.168699186991866 46.392276422764226,51.422764227642276 46.49390243902439,51.6260162601626 46.59552845528455,51.829268292682926 46.7479674796748,52.03252032520325 46.90040650406504,52.235772357723576 47.052845528455286,52.4390243902439 47.20528455284553,52.642276422764226 47.40853658536585,52.84552845528455 47.61178861788618,53.048780487804876 47.8150406504065,53.201219512195124 48.01829268292683,53.40447154471545 48.22154471544715,53.55691056910569 48.47560975609756,53.709349593495936 48.67886178861789,53.91260162601626 48.88211382113821,54.0650406504065 49.08536585365854,54.21747967479675 49.33943089430894,54.36991869918699 49.542682926829265,54.47154471544715 49.69512195121951,54.573170731707314 49.949186991869915,54.67479674796748 50.10162601626016,54.72560975609756 50.30487804878049,54.77642276422764 50.50813008130081,54.827235772357724 50.71138211382114,54.8780487804878 50.91463414634146,54.8780487804878 51.11788617886179,54.92886178861789 51.32113821138211,54.92886178861789 51.52439024390244,54.92886178861789 51.72764227642276,54.92886178861789 51.93089430894309,54.92886178861789 52.13414634146341,54.92886178861789 52.33739837398374,54.92886178861789 52.540650406504064,54.92886178861789 52.79471544715447,54.8780487804878 53.048780487804876,54.827235772357724 53.353658536585364,54.72560975609756 53.65853658536585,54.573170731707314 53.96341463414634,54.420731707317074 54.21747967479675,54.26829268292683 54.52235772357724,54.0650406504065 54.72560975609756,53.86178861788618 54.979674796747965,53.65853658536585 55.233739837398375,53.40447154471545 55.4369918699187,53.201219512195124 55.6910569105691,52.9979674796748 55.89430894308943,52.74390243902439 56.09756097560975,52.540650406504064 56.25,52.28658536585366" fill="none" stroke="black" stroke-width="0.6"></polyline><polyline points="56.25,52.28658536585366 56.40243902439024,52.03252032520325 56.5040650406504,51.77845528455284 56.605691056910565,51.575203252032516 56.65650406504065,51.32113821138211 56.70731707317073,51.11788617886179 56.75813008130081,50.86382113821138 56.75813008130081,50.66056910569105 56.75813008130081,50.45731707317073 56.75813008130081,50.203252032520325 56.75813008130081,50 56.75813008130081,49.796747967479675 56.70731707317073,49.59349593495935 56.65650406504065,49.33943089430894 56.605691056910565,49.1869918699187 56.55487804878049,49.03455284552845 56.453252032520325,48.83130081300813 56.40243902439024,48.67886178861789 56.30081300813008,48.47560975609756 56.199186991869915,48.27235772357724 56.09756097560975,48.06910569105691 56.046747967479675,47.86585365853659 55.94512195121951,47.61178861788618 55.84349593495935,47.40853658536585 55.792682926829265,47.15447154471545 55.6910569105691,46.951219512195124 55.58943089430894,46.697154471544714 55.48780487804878,46.49390243902439 55.386178861788615,46.239837398373986 55.33536585365854,46.03658536585366 55.233739837398375,45.78252032520325 55.13211382113821,45.52845528455285 55.03048780487805,45.27439024390244 54.92886178861789,45.02032520325203 54.827235772357724,44.766260162601625 54.72560975609756,44.5630081300813 54.6239837398374,44.359756097560975 54.52235772357724,44.105691056910565 54.420731707317074,43.90243902439024 54.31910569105691,43.699186991869915 54.21747967479675,43.49593495934959 54.11585365853659,43.34349593495935 53.96341463414634,43.140243902439025 53.86178861788618,42.98780487804878 53.760162601626014,42.83536585365854 53.607723577235774,42.68292682926829 53.45528455284553,42.53048780487805 53.353658536585364,42.42886178861789 53.201219512195124,42.327235772357724 52.9979674796748,42.17479674796748 52.896341463414636,42.073170731707314" fill="none" stroke="black" stroke-width="0.6"></polyline><polyline points="52.896341463414636,42.073170731707314 52.74390243902439,41.97154471544715 52.59146341463415,41.86991869918699 52.4390243902439,41.76829268292683 52.28658536585366,41.71747967479675 52.13414634146341,41.61585365853659 51.981707317073166,41.5650406504065 51.77845528455284,41.46341463414634 51.6260162601626,41.41260162601626 51.422764227642276,41.36178861788618 51.21951219512195,41.3109756097561 51.016260162601625,41.3109756097561 50.8130081300813,41.260162601626014 50.55894308943089,41.209349593495936 50.30487804878049,41.209349593495936 50.10162601626016,41.209349593495936 49.84756097560975,41.209349593495936 49.59349593495935,41.209349593495936 49.33943089430894,41.209349593495936 49.03455284552845,41.209349593495936 48.729674796747965,41.209349593495936 48.42479674796748,41.260162601626014 48.11991869918699,41.3109756097561 47.86585365853659,41.3109756097561 47.5609756097561,41.36178861788618 47.25609756097561,41.46341463414634 46.951219512195124,41.514227642276424 46.646341463414636,41.5650406504065 46.34146341463415,41.61585365853659 46.03658536585366,41.71747967479675 45.73170731707317,41.76829268292683 45.42682926829268,41.81910569105691 45.172764227642276,41.920731707317074 44.86788617886179,41.97154471544715 44.5630081300813,42.073170731707314 44.30894308943089,42.17479674796748 44.105691056910565,42.22560975609756 43.85162601626016,42.327235772357724 43.699186991869915,42.42886178861789 43.44512195121951,42.58130081300813 43.24186991869919,42.68292682926829 43.03861788617886,42.83536585365854 42.83536585365854,42.98780487804878 42.63211382113821,43.140243902439025 42.479674796747965,43.292682926829265 42.27642276422764,43.49593495934959 42.073170731707314,43.699186991869915 41.97154471544715,43.90243902439024 41.81910569105691,44.105691056910565 41.71747967479675,44.30894308943089 41.5650406504065,44.512195121951216" fill="none" stroke="black" stroke-width="0.6"></polyline><polyline points="41.5650406504065,44.512195121951216 41.46341463414634,44.71544715447154 41.36178861788618,44.918699186991866 41.260162601626014,45.12195121951219 41.15853658536585,45.3760162601626 41.107723577235774,45.63008130081301 41.00609756097561,45.833333333333336 40.90447154471545,46.13821138211382 40.853658536585364,46.392276422764226 40.7520325203252,46.646341463414636 40.65040650406504,46.951219512195124 40.548780487804876,47.25609756097561 40.4979674796748,47.510162601626014 40.396341463414636,47.86585365853659 40.29471544715447,48.22154471544715 40.19308943089431,48.577235772357724 40.09146341463415,48.88211382113821 40.040650406504064,49.23780487804878 39.9390243902439,49.49186991869919 39.88821138211382,49.796747967479675 39.83739837398374,50.15243902439024 39.735772357723576,50.45731707317073 39.6849593495935,50.762195121951216 39.63414634146341,51.0670731707317 39.583333333333336,51.37195121951219 39.583333333333336,51.67682926829268 39.53252032520325,52.03252032520325 39.53252032520325,52.33739837398374 39.53252032520325,52.74390243902439 39.53252032520325,53.09959349593496 39.53252032520325,53.50609756097561 39.53252032520325,53.91260162601626 39.53252032520325,54.21747967479675 39.63414634146341,54.573170731707314 39.6849593495935,54.979674796747965 39.78658536585366,55.28455284552845 39.88821138211382,55.58943089430894 39.989837398373986,55.94512195121951 40.142276422764226,56.25 40.24390243902439,56.55487804878049 40.447154471544714,56.91056910569105 40.59959349593496,57.16463414634146 40.7520325203252,57.46951219512195 40.95528455284553,57.72357723577235 41.107723577235774,57.97764227642276 41.3109756097561,58.231707317073166 41.5650406504065,58.485772357723576 41.71747967479675,58.6890243902439 41.920731707317074,58.94308943089431 42.1239837398374,59.197154471544714 42.327235772357724,59.40040650406504" fill="none" stroke="black" stroke-width="0.6"></polyline><polyline points="42.327235772357724,59.40040650406504 42.479674796747965,59.603658536585364 42.68292682926829,59.80691056910569 42.83536585365854,59.959349593495936 42.98780487804878,60.11178861788618 43.1910569105691,60.264227642276424 43.34349593495935,60.416666666666664 43.546747967479675,60.56910569105691 43.699186991869915,60.72154471544715 43.85162601626016,60.8739837398374 44.05487804878049,60.97560975609756 44.20731707317073,61.1280487804878 44.359756097560975,61.229674796747965 44.5630081300813,61.33130081300813 44.766260162601625,61.43292682926829 44.96951219512195,61.58536585365854 45.172764227642276,61.6869918699187 45.3760162601626,61.78861788617886 45.579268292682926,61.83943089430894 45.833333333333336,61.890243902439025 46.03658536585366,61.99186991869919 46.239837398373986,62.042682926829265 46.44308943089431,62.09349593495935 46.646341463414636,62.14430894308943 46.84959349593496,62.19512195121951 47.052845528455286,62.19512195121951 47.30691056910569,62.24593495934959 47.510162601626014,62.24593495934959 47.764227642276424,62.296747967479675 48.01829268292683,62.296747967479675 48.22154471544715,62.34756097560975 48.47560975609756,62.34756097560975 48.729674796747965,62.34756097560975 48.983739837398375,62.34756097560975 49.28861788617886,62.34756097560975 49.542682926829265,62.34756097560975 49.84756097560975,62.34756097560975 50.10162601626016,62.34756097560975 50.40650406504065,62.296747967479675 50.66056910569105,62.24593495934959 50.96544715447154,62.19512195121951 51.21951219512195,62.14430894308943 51.52439024390244,62.09349593495935 51.77845528455284,61.99186991869919 52.083333333333336,61.9410569105691 52.33739837398374,61.83943089430894 52.642276422764226,61.73780487804878 52.896341463414636,61.6869918699187 53.15040650406504,61.58536585365854 53.45528455284553,61.483739837398375 53.709349593495936,61.43292682926829" fill="none" stroke="black" stroke-width="0.6"></polyline><polyline points="53.709349593495936,61.43292682926829 54.014227642276424,61.33130081300813 54.31910569105691,61.229674796747965 54.6239837398374,61.1280487804878 54.92886178861789,60.97560975609756 55.233739837398375,60.8739837398374 55.48780487804878,60.77235772357724 55.792682926829265,60.61991869918699 56.14837398373984,60.51829268292683 56.40243902439024,60.36585365853659 56.70731707317073,60.264227642276424 57.012195121951216,60.16260162601626 57.266260162601625,60.0609756097561 57.57113821138211,59.90853658536585 57.8760162601626,59.75609756097561 58.130081300813,59.603658536585364 58.43495934959349,59.5020325203252 58.6890243902439,59.298780487804876 58.892276422764226,59.197154471544714 59.146341463414636,59.04471544715447 59.298780487804876,58.94308943089431 59.5020325203252,58.84146341463415 59.65447154471545,58.6890243902439 59.857723577235774,58.58739837398374 60.010162601626014,58.43495934959349 60.16260162601626,58.33333333333333 60.3150406504065,58.18089430894309 60.46747967479675,58.079268292682926 60.56910569105691,57.92682926829268 60.670731707317074,57.825203252032516 60.77235772357724,57.672764227642276 60.823170731707314,57.57113821138211 60.92479674796748,57.418699186991866 60.97560975609756,57.266260162601625 61.077235772357724,57.11382113821138 61.1280487804878,56.96138211382114 61.17886178861789,56.80894308943089 61.229674796747965,56.605691056910565 61.28048780487805,56.40243902439024 61.33130081300813,56.25 61.38211382113821,56.046747967479675 61.43292682926829,55.84349593495935 61.483739837398375,55.6910569105691 61.53455284552845,55.53861788617886 61.53455284552845,55.386178861788615 61.58536585365854,55.233739837398375 61.636178861788615,55.03048780487805 61.6869918699187,54.77642276422764 61.73780487804878,54.573170731707314 61.83943089430894,54.31910569105691 61.890243902439025,54.0650406504065" fill="none" stroke="black" stroke-width="0.6"></polyline><polyline points="61.890243902439025,54.0650406504065 61.9410569105691,53.86178861788618 61.99186991869919,53.607723577235774 62.042682926829265,53.353658536585364 62.14430894308943,53.09959349593496 62.19512195121951,52.896341463414636 62.24593495934959,52.642276422764226 62.296747967479675,52.38821138211382 62.34756097560975,52.13414634146341 62.39837398373984,51.880081300813 62.5,51.6260162601626 62.5,51.37195121951219 62.55081300813008,51.11788617886179 62.60162601626016,50.86382113821138 62.60162601626016,50.55894308943089 62.65243902439024,50.30487804878049 62.703252032520325,50.05081300813008 62.703252032520325,49.74593495934959 62.7540650406504,49.4410569105691 62.7540650406504,49.1869918699187 62.80487804878049,48.88211382113821 62.80487804878049,48.577235772357724 62.855691056910565,48.323170731707314 62.855691056910565,48.01829268292683 62.855691056910565,47.66260162601626 62.90650406504065,47.357723577235774 62.90650406504065,47.0020325203252 62.90650406504065,46.646341463414636 62.90650406504065,46.34146341463415 62.90650406504065,45.985772357723576 62.90650406504065,45.68089430894309 62.90650406504065,45.3760162601626 62.90650406504065,45.07113821138211 62.90650406504065,44.8170731707317 62.90650406504065,44.512195121951216 62.855691056910565,44.41056910569105 62.855691056910565,44.20731707317073 62.80487804878049,43.953252032520325 62.7540650406504,43.85162601626016 62.703252032520325,43.699186991869915 62.60162601626016,43.39430894308943 62.5,43.140243902439025 62.39837398373984,42.83536585365854 62.296747967479675,42.58130081300813 62.19512195121951,42.327235772357724 62.042682926829265,42.073170731707314 61.9410569105691,41.81910569105691 61.78861788617886,41.5650406504065 61.6869918699187,41.3109756097561 61.53455284552845,41.05691056910569 61.38211382113821,40.853658536585364" fill="none" stroke="black" stroke-width="0.6"></polyline><polyline points="61.38211382113821,40.853658536585364 61.229674796747965,40.59959349593496 61.077235772357724,40.396341463414636 60.92479674796748,40.19308943089431 60.77235772357724,39.989837398373986 60.56910569105691,39.78658536585366 60.36585365853659,39.583333333333336 60.21341463414634,39.38008130081301 59.959349593495936,39.22764227642276 59.75609756097561,39.02439024390244 59.552845528455286,38.87195121951219 59.298780487804876,38.668699186991866 58.99390243902439,38.516260162601625 58.739837398373986,38.36382113821138 58.43495934959349,38.21138211382114 58.18089430894309,38.109756097560975 57.8760162601626,37.95731707317073 57.57113821138211,37.80487804878049 57.266260162601625,37.703252032520325 56.91056910569105,37.55081300813008 56.55487804878049,37.449186991869915 56.25,37.296747967479675 55.89430894308943,37.19512195121951 55.58943089430894,37.09349593495935 55.28455284552845,36.9410569105691 54.92886178861789,36.83943089430894 54.573170731707314,36.73780487804878 54.21747967479675,36.636178861788615 53.86178861788618,36.483739837398375 53.50609756097561,36.38211382113821 53.15040650406504,36.28048780487805 52.84552845528455,36.17886178861789 52.540650406504064,36.1280487804878 52.1849593495935,36.02642276422764 51.77845528455284,35.92479674796748 51.422764227642276,35.8739837398374 51.016260162601625,35.823170731707314 50.609756097560975,35.77235772357724 50.2540650406504,35.77235772357724 49.89837398373984,35.72154471544715 49.49186991869919,35.72154471544715 49.1869918699187,35.670731707317074 48.83130081300813,35.670731707317074 48.47560975609756,35.61991869918699 48.170731707317074,35.61991869918699 47.86585365853659,35.56910569105691 47.5609756097561,35.51829268292683 47.30691056910569,35.51829268292683 47.0020325203252,35.46747967479675 46.7479674796748,35.416666666666664 46.49390243902439,35.36585365853659" fill="none" stroke="black" stroke-width="0.6"></polyline><polyline points="46.49390243902439,35.36585365853659 46.290650406504064,35.36585365853659 46.03658536585366,35.3150406504065 45.833333333333336,35.3150406504065 45.579268292682926,35.264227642276424 45.325203252032516,35.264227642276424 45.12195121951219,35.264227642276424 44.86788617886179,35.264227642276424 44.66463414634146,35.264227642276424 44.41056910569105,35.264227642276424 44.15650406504065,35.264227642276424 43.90243902439024,35.3150406504065 43.64837398373984,35.36585365853659 43.34349593495935,35.46747967479675 43.03861788617886,35.56910569105691 42.78455284552845,35.670731707317074 42.53048780487805,35.77235772357724 42.27642276422764,35.8739837398374 42.073170731707314,35.97560975609756 41.81910569105691,36.077235772357724 41.5650406504065,36.17886178861789 41.3109756097561,36.33130081300813 41.05691056910569,36.483739837398375 40.802845528455286,36.636178861788615 40.548780487804876,36.78861788617886 40.29471544715447,36.9410569105691 40.040650406504064,37.19512195121951 39.78658536585366,37.39837398373984 39.53252032520325,37.55081300813008 39.27845528455285,37.7540650406504 39.1260162601626,37.90650406504065 38.922764227642276,38.109756097560975 38.71951219512195,38.262195121951216 38.516260162601625,38.46544715447154 38.3130081300813,38.71951219512195 38.109756097560975,38.922764227642276 37.95731707317073,39.1260162601626 37.80487804878049,39.38008130081301 37.60162601626016,39.583333333333336 37.449186991869915,39.83739837398374 37.34756097560975,40.040650406504064 37.19512195121951,40.24390243902439 37.09349593495935,40.447154471544714 36.99186991869919,40.59959349593496 36.890243902439025,40.802845528455286 36.78861788617886,40.95528455284553 36.6869918699187,41.15853658536585 36.636178861788615,41.41260162601626 36.53455284552845,41.666666666666664 36.43292682926829,41.86991869918699 36.38211382113821,42.073170731707314" fill="none" stroke="black" stroke-width="0.6"></polyline><polyline points="36.38211382113821,42.073170731707314 36.33130081300813,42.327235772357724 36.28048780487805,42.53048780487805 36.229674796747965,42.733739837398375 36.17886178861789,42.98780487804878 36.1280487804878,43.24186991869919 36.077235772357724,43.49593495934959 36.02642276422764,43.75 35.97560975609756,44.05487804878049 35.92479674796748,44.25813008130081 35.8739837398374,44.512195121951216 35.77235772357724,44.766260162601625 35.72154471544715,44.96951219512195 35.670731707317074,45.22357723577235 35.61991869918699,45.42682926829268 35.51829268292683,45.68089430894309 35.46747967479675,45.9349593495935 35.36585365853659,46.1890243902439 35.3150406504065,46.392276422764226 35.264227642276424,46.59552845528455 35.21341463414634,46.798780487804876 35.16260162601626,47.0020325203252 35.11178861788618,47.15447154471545 35.0609756097561,47.30691056910569 35.010162601626014,47.459349593495936 34.959349593495936,47.66260162601626 34.90853658536585,47.8150406504065 34.90853658536585,47.96747967479675 34.857723577235774,48.11991869918699 34.857723577235774,48.323170731707314 34.80691056910569,48.47560975609756 34.75609756097561,48.6280487804878 34.75609756097561,48.78048780487805 34.70528455284553,48.93292682926829 34.70528455284553,49.08536585365854 34.65447154471545,49.1869918699187 34.65447154471545,49.28861788617886 34.65447154471545,49.4410569105691 34.65447154471545,49.542682926829265 34.603658536585364,49.64430894308943 34.603658536585364,49.796747967479675 34.603658536585364,49.949186991869915 34.603658536585364,50.10162601626016 34.603658536585364,50.2540650406504 34.603658536585364,50.40650406504065 34.603658536585364,50.55894308943089 34.603658536585364,50.71138211382114 34.603658536585364,50.86382113821138 34.603658536585364,51.0670731707317 34.603658536585364,51.21951219512195 34.603658536585364,51.422764227642276" fill="none" stroke="black" stroke-width="0.6"></polyline><polyline points="34.603658536585364,51.422764227642276 34.603658536585364,51.575203252032516 34.603658536585364,51.77845528455284 34.603658536585364,51.93089430894309 34.603658536585364,52.13414634146341 34.603658536585364,52.33739837398374 34.603658536585364,52.540650406504064 34.603658536585364,52.74390243902439 34.603658536585364,52.9979674796748 34.603658536585364,53.201219512195124 34.603658536585364,53.45528455284553 34.65447154471545,53.709349593495936 34.65447154471545,53.96341463414634 34.65447154471545,54.26829268292683 34.70528455284553,54.52235772357724 34.70528455284553,54.827235772357724 34.70528455284553,55.13211382113821 34.75609756097561,55.4369918699187 34.80691056910569,55.6910569105691 34.80691056910569,55.94512195121951 34.857723577235774,56.25 34.90853658536585,56.55487804878049 34.959349593495936,56.80894308943089 35.010162601626014,57.11382113821138 35.0609756097561,57.418699186991866 35.11178861788618,57.672764227642276 35.16260162601626,57.92682926829268 35.21341463414634,58.130081300813 35.3150406504065,58.33333333333333 35.36585365853659,58.58739837398374 35.46747967479675,58.84146341463415 35.56910569105691,59.09552845528455 35.670731707317074,59.34959349593496 35.77235772357724,59.552845528455286 35.8739837398374,59.80691056910569 35.97560975609756,60.0609756097561 36.077235772357724,60.264227642276424 36.17886178861789,60.51829268292683 36.33130081300813,60.77235772357724 36.43292682926829,61.02642276422764 36.53455284552845,61.229674796747965 36.6869918699187,61.483739837398375 36.78861788617886,61.6869918699187 36.9410569105691,61.890243902439025 37.09349593495935,62.09349593495935 37.24593495934959,62.296747967479675 37.39837398373984,62.5 37.55081300813008,62.703252032520325 37.7540650406504,62.90650406504065 37.90650406504065,63.109756097560975 38.109756097560975,63.262195121951216" fill="none" stroke="black" stroke-width="0.6"></polyline><polyline points="38.109756097560975,63.262195121951216 38.262195121951216,63.41463414634146 38.41463414634146,63.5670731707317 38.5670731707317,63.71951219512195 38.71951219512195,63.82113821138211 38.87195121951219,63.97357723577235 39.07520325203252,64.1260162601626 39.22764227642276,64.22764227642276 39.43089430894309,64.32926829268293 39.63414634146341,64.48170731707317 39.78658536585366,64.58333333333333 39.989837398373986,64.73577235772358 40.19308943089431,64.88821138211382 40.396341463414636,64.98983739837398 40.548780487804876,65.09146341463415 40.802845528455286,65.2439024390244 40.95528455284553,65.39634146341463 41.15853658536585,65.4979674796748 41.36178861788618,65.59959349593495 41.5650406504065,65.70121951219512 41.76829268292683,65.80284552845528 41.97154471544715,65.90447154471545 42.1239837398374,66.0060975609756 42.3780487804878,66.10772357723577 42.58130081300813,66.20934959349593 42.78455284552845,66.26016260162602 42.98780487804878,66.36178861788618 43.08943089430894,66.36178861788618 43.39430894308943,66.51422764227642 43.59756097560975,66.5650406504065 43.80081300813008,66.61585365853658 44.0040650406504,66.66666666666667 44.15650406504065,66.76829268292683 44.359756097560975,66.8191056910569 44.5630081300813,66.869918699187 44.766260162601625,66.92073170731707 45.02032520325203,66.97154471544715 45.22357723577235,67.02235772357723 45.47764227642276,67.07317073170732 45.68089430894309,67.1239837398374 45.9349593495935,67.1239837398374 46.1890243902439,67.17479674796748 46.44308943089431,67.22560975609755 46.697154471544714,67.27642276422765 47.0020325203252,67.27642276422765 47.25609756097561,67.32723577235772 47.5609756097561,67.3780487804878 47.86585365853659,67.3780487804878 48.170731707317074,67.42886178861788 48.47560975609756,67.42886178861788 48.88211382113821,67.47967479674797" fill="none" stroke="black" stroke-width="0.6"></polyline><polyline points="48.88211382113821,67.47967479674797 49.1869918699187,67.47967479674797 49.49186991869919,67.47967479674797 49.796747967479675,67.47967479674797 50.10162601626016,67.47967479674797 50.355691056910565,67.47967479674797 50.66056910569105,67.47967479674797 50.91463414634146,67.53048780487805 51.11788617886179,67.53048780487805 51.37195121951219,67.53048780487805 51.6260162601626,67.58130081300813 51.829268292682926,67.58130081300813 52.083333333333336,67.6321138211382 52.28658536585366,67.6829268292683 52.4390243902439,67.6829268292683 52.642276422764226,67.6829268292683 52.84552845528455,67.73373983739837 53.048780487804876,67.73373983739837 53.201219512195124,67.73373983739837 53.40447154471545,67.78455284552845 53.55691056910569,67.78455284552845 53.760162601626014,67.78455284552845 53.86178861788618,67.78455284552845 54.014227642276424,67.78455284552845 54.166666666666664,67.78455284552845 54.31910569105691,67.78455284552845 54.47154471544715,67.73373983739837 54.573170731707314,67.6829268292683 54.67479674796748,67.6829268292683 54.827235772357724,67.6321138211382 54.92886178861789,67.58130081300813 55.03048780487805,67.58130081300813 55.13211382113821,67.53048780487805 55.233739837398375,67.47967479674797 55.386178861788615,67.42886178861788 55.48780487804878,67.3780487804878 55.58943089430894,67.32723577235772 55.6910569105691,67.32723577235772 55.84349593495935,67.27642276422765 55.94512195121951,67.22560975609755 56.046747967479675,67.17479674796748 56.14837398373984,67.1239837398374 56.30081300813008,67.07317073170732 56.40243902439024,67.02235772357723 56.55487804878049,66.97154471544715 56.70731707317073,66.92073170731707 56.91056910569105,66.869918699187 57.0630081300813,66.76829268292683 57.266260162601625,66.71747967479675 57.418699186991866,66.61585365853658 57.62195121951219,66.5650406504065" fill="none" stroke="black" stroke-width="0.6"></polyline><polyline points="57.62195121951219,66.5650406504065 57.77439024390244,66.46341463414635 57.97764227642276,66.41260162601625 58.130081300813,66.3109756097561 58.33333333333333,66.26016260162602 58.485772357723576,66.15853658536585 58.6890243902439,66.10772357723577 58.892276422764226,66.0060975609756 59.04471544715447,65.95528455284553 59.2479674796748,65.85365853658537 59.451219512195124,65.80284552845528 59.603658536585364,65.7520325203252 59.75609756097561,65.65040650406505 59.959349593495936,65.59959349593495 60.11178861788618,65.54878048780488 60.264227642276424,65.44715447154472 60.416666666666664,65.34552845528455 60.61991869918699,65.2439024390244 60.823170731707314,65.14227642276423 60.97560975609756,65.04065040650406 61.17886178861789,64.9390243902439 61.33130081300813,64.78658536585365 61.53455284552845,64.6849593495935 61.6869918699187,64.58333333333333 61.83943089430894,64.48170731707317 61.99186991869919,64.380081300813 62.14430894308943,64.27845528455285 62.24593495934959,64.17682926829268 62.34756097560975,64.07520325203252 62.449186991869915,64.02439024390243 62.55081300813008,63.922764227642276 62.65243902439024,63.82113821138211 62.703252032520325,63.77032520325203 62.80487804878049,63.668699186991866 62.90650406504065,63.5670731707317 63.00813008130081,63.516260162601625 63.109756097560975,63.46544715447154 63.16056910569105,63.36382113821138 63.262195121951216,63.3130081300813 63.3130081300813,63.262195121951216 63.36382113821138,63.16056910569105 63.46544715447154,63.109756097560975 63.516260162601625,63.05894308943089 63.61788617886179,62.95731707317073 63.71951219512195,62.855691056910565 63.82113821138211,62.7540650406504 63.87195121951219,62.65243902439024 64.02439024390243,62.55081300813008 64.1260162601626,62.39837398373984 64.27845528455285,62.296747967479675 64.43089430894308,62.14430894308943" fill="none" stroke="black" stroke-width="0.6"></polyline><polyline points="64.43089430894308,62.14430894308943 64.58333333333333,61.9410569105691 64.78658536585365,61.78861788617886 64.98983739837398,61.636178861788615 65.14227642276423,61.43292682926829 65.34552845528455,61.28048780487805 65.4979674796748,61.1280487804878 65.70121951219512,60.97560975609756 65.85365853658537,60.823170731707314 66.0569105691057,60.61991869918699 66.26016260162602,60.416666666666664 66.41260162601625,60.264227642276424 66.61585365853658,60.0609756097561 66.76829268292683,59.857723577235774 66.92073170731707,59.70528455284553 67.07317073170732,59.5020325203252 67.22560975609755,59.298780487804876 67.3780487804878,59.09552845528455 67.47967479674797,58.892276422764226 67.58130081300813,58.6890243902439 67.6829268292683,58.485772357723576 67.78455284552845,58.28252032520325 67.88617886178862,58.02845528455284 67.98780487804878,57.77439024390244 68.08943089430895,57.52032520325203 68.1910569105691,57.21544715447154 68.34349593495935,56.96138211382114 68.4451219512195,56.605691056910565 68.54674796747967,56.30081300813008 68.64837398373983,55.99593495934959 68.75,55.640243902439025 68.80081300813008,55.33536585365854 68.85162601626016,55.08130081300813 68.90243902439025,54.72560975609756 69.0040650406504,54.420731707317074 69.05487804878048,54.0650406504065 69.15650406504065,53.607723577235774 69.20731707317073,53.2520325203252 69.3089430894309,52.896341463414636 69.35975609756098,52.540650406504064 69.41056910569105,52.1849593495935 69.46138211382113,51.829268292682926 69.51219512195122,51.422764227642276 69.51219512195122,51.11788617886179 69.51219512195122,50.8130081300813 69.51219512195122,50.50813008130081 69.51219512195122,50.2540650406504 69.51219512195122,50 69.46138211382113,49.64430894308943 69.46138211382113,49.390243902439025 69.41056910569105,49.08536585365854" fill="none" stroke="black" stroke-width="0.6"></polyline><polyline points="69.41056910569105,49.08536585365854 69.41056910569105,48.83130081300813 69.35975609756098,48.577235772357724 69.35975609756098,48.27235772357724 69.35975609756098,47.96747967479675 69.3089430894309,47.66260162601626 69.3089430894309,47.357723577235774 69.3089430894309,47.0020325203252 69.2581300813008,46.697154471544714 69.2581300813008,46.44308943089431 69.20731707317073,46.13821138211382 69.20731707317073,45.833333333333336 69.15650406504065,45.52845528455285 69.10569105691057,45.172764227642276 69.05487804878048,44.86788617886179 69.0040650406504,44.5630081300813 68.90243902439025,44.25813008130081 68.80081300813008,44.0040650406504 68.75,43.699186991869915 68.59756097560975,43.34349593495935 68.4959349593496,43.08943089430894 68.39430894308943,42.78455284552845 68.24186991869918,42.479674796747965 68.14024390243902,42.17479674796748 67.98780487804878,41.920731707317074 67.83536585365853,41.61585365853659 67.73373983739837,41.3109756097561 67.58130081300813,40.95528455284553 67.42886178861788,40.65040650406504 67.27642276422765,40.29471544715447 67.1239837398374,39.989837398373986 66.97154471544715,39.6849593495935 66.8191056910569,39.38008130081301 66.66666666666667,39.02439024390244 66.51422764227642,38.668699186991866 66.36178861788618,38.41463414634146 66.20934959349593,38.109756097560975 66.0060975609756,37.855691056910565 65.90447154471545,37.65243902439024 65.7520325203252,37.39837398373984 65.59959349593495,37.19512195121951 65.44715447154472,36.99186991869919 65.29471544715447,36.73780487804878 65.09146341463415,36.53455284552845 64.9390243902439,36.38211382113821 64.78658536585365,36.17886178861789 64.6341463414634,36.02642276422764 64.48170731707317,35.8739837398374 64.32926829268293,35.670731707317074 64.1260162601626,35.51829268292683 63.97357723577235,35.36585365853659" fill="none" stroke="black" stroke-width="0.6"></polyline><polyline points="63.97357723577235,35.36585365853659 63.82113821138211,35.21341463414634 63.668699186991866,35.0609756097561 63.516260162601625,34.90853658536585 63.36382113821138,34.70528455284553 63.21138211382114,34.552845528455286 63.05894308943089,34.40040650406504 62.90650406504065,34.197154471544714 62.80487804878049,34.04471544715447 62.65243902439024,33.892276422764226 62.5,33.739837398373986 62.34756097560975,33.58739837398374 62.14430894308943,33.4349593495935 61.99186991869919,33.23170731707317 61.78861788617886,33.079268292682926 61.636178861788615,32.926829268292686 61.38211382113821,32.72357723577236 61.17886178861789,32.52032520325203 60.97560975609756,32.3170731707317 60.8739837398374,32.21544715447154 60.72154471544715,32.11382113821138 60.51829268292683,31.910569105691057 60.21341463414634,31.70731707317073 59.90853658536585,31.453252032520325 59.65447154471545,31.25 59.34959349593496,31.046747967479675 59.04471544715447,30.79268292682927 58.790650406504064,30.589430894308943 58.485772357723576,30.335365853658537 58.18089430894309,30.08130081300813 57.8760162601626,29.878048780487806 57.57113821138211,29.67479674796748 57.21544715447154,29.522357723577237 56.91056910569105,29.369918699186993 56.605691056910565,29.217479674796746 56.25,29.115853658536583 55.89430894308943,28.96341463414634 55.53861788617886,28.861788617886177 55.18292682926829,28.760162601626014 54.827235772357724,28.65853658536585 54.52235772357724,28.55691056910569 54.166666666666664,28.506097560975608 53.8109756097561,28.404471544715445 53.50609756097561,28.353658536585364 53.15040650406504,28.302845528455283 52.84552845528455,28.20121951219512 52.540650406504064,28.15040650406504 52.1849593495935,28.048780487804876 51.880081300813,27.997967479674795 51.575203252032516,27.947154471544714 51.21951219512195,27.947154471544714" fill="none" stroke="black" stroke-width="0.6"></polyline><polyline points="51.21951219512195,27.947154471544714 50.86382113821138,27.896341463414632 50.55894308943089,27.896341463414632 50.2540650406504,27.896341463414632 49.949186991869915,27.84552845528455 49.64430894308943,27.84552845528455 49.28861788617886,27.84552845528455 48.983739837398375,27.84552845528455 48.67886178861789,27.84552845528455 48.3739837398374,27.84552845528455 48.06910569105691,27.896341463414632 47.764227642276424,27.896341463414632 47.40853658536585,27.947154471544714 47.052845528455286,27.997967479674795 46.697154471544714,28.099593495934958 46.392276422764226,28.15040650406504 45.985772357723576,28.2520325203252 45.63008130081301,28.353658536585364 45.325203252032516,28.404471544715445 44.96951219512195,28.506097560975608 44.66463414634146,28.55691056910569 44.30894308943089,28.65853658536585 43.953252032520325,28.709349593495933 43.59756097560975,28.810975609756095 43.24186991869919,28.912601626016258 42.886178861788615,29.01422764227642 42.53048780487805,29.115853658536583 42.22560975609756,29.217479674796746 41.86991869918699,29.31910569105691 41.514227642276424,29.471544715447155 41.15853658536585,29.573170731707318 40.853658536585364,29.67479674796748 40.4979674796748,29.827235772357724 40.142276422764226,29.928861788617887 39.83739837398374,30.03048780487805 39.48170731707317,30.182926829268293 39.176829268292686,30.335365853658537 38.82113821138211,30.48780487804878 38.46544715447154,30.691056910569106 38.16056910569105,30.84349593495935 37.855691056910565,30.995934959349594 37.5,31.19918699186992 37.19512195121951,31.351626016260163 36.890243902439025,31.504065040650406 36.58536585365854,31.70731707317073 36.33130081300813,31.859756097560975 36.02642276422764,32.012195121951216 35.72154471544715,32.21544715447154 35.46747967479675,32.36788617886179 35.21341463414634,32.57113821138211 34.90853658536585,32.77439024390244" fill="none" stroke="black" stroke-width="0.6"></polyline><polyline points="34.90853658536585,32.77439024390244 34.65447154471545,32.97764227642276 34.40040650406504,33.18089430894309 34.197154471544714,33.38414634146341 33.94308943089431,33.53658536585366 33.6890243902439,33.790650406504064 33.38414634146341,34.04471544715447 33.13008130081301,34.2479674796748 32.8760162601626,34.5020325203252 32.46951219512195,34.857723577235774 32.16463414634146,35.21341463414634 31.808943089430894,35.56910569105691 31.504065040650406,35.8739837398374 31.25,36.1280487804878 31.046747967479675,36.43292682926829 30.79268292682927,36.73780487804878 30.538617886178862,37.09349593495935 30.233739837398375,37.5 29.878048780487806,37.95731707317073 29.6239837398374,38.36382113821138 29.369918699186993,38.71951219512195 29.115853658536583,39.1260162601626 28.912601626016258,39.48170731707317 28.709349593495933,39.88821138211382 28.506097560975608,40.29471544715447 28.353658536585364,40.59959349593496 28.20121951219512,41.00609756097561 28.048780487804876,41.41260162601626 27.896341463414632,41.86991869918699 27.79471544715447,42.327235772357724 27.642276422764226,42.733739837398375 27.540650406504064,43.140243902439025 27.38821138211382,43.59756097560975 27.286585365853657,44.0040650406504 27.235772357723576,44.359756097560975 27.134146341463413,44.71544715447154 27.083333333333332,45.07113821138211 26.98170731707317,45.3760162601626 26.93089430894309,45.78252032520325 26.829268292682926,46.1890243902439 26.778455284552845,46.59552845528455 26.727642276422763,47.0020325203252 26.676829268292682,47.30691056910569 26.6260162601626,47.66260162601626 26.57520325203252,48.06910569105691 26.524390243902438,48.3739837398374 26.524390243902438,48.729674796747965 26.524390243902438,49.03455284552845 26.524390243902438,49.28861788617886 26.524390243902438,49.542682926829265 26.524390243902438,49.89837398373984" fill="none" stroke="black" stroke-width="0.6"></polyline><polyline points="26.524390243902438,49.89837398373984 26.524390243902438,50.15243902439024 26.524390243902438,50.45731707317073 26.57520325203252,50.8130081300813 26.57520325203252,51.168699186991866 26.6260162601626,51.47357723577235 26.676829268292682,51.829268292682926 26.727642276422763,52.083333333333336 26.778455284552845,52.38821138211382 26.880081300813007,52.74390243902439 26.93089430894309,53.048780487804876 26.98170731707317,53.40447154471545 27.083333333333332,53.760162601626014 27.134146341463413,54.11585365853659 27.184959349593495,54.47154471544715 27.286585365853657,54.8780487804878 27.33739837398374,55.33536585365854 27.4390243902439,55.792682926829265 27.489837398373982,56.199186991869915 27.591463414634145,56.605691056910565 27.693089430894307,56.96138211382114 27.79471544715447,57.3170731707317 27.896341463414632,57.62195121951219 28.048780487804876,57.92682926829268 28.15040650406504,58.33333333333333 28.302845528455283,58.6890243902439 28.404471544715445,59.04471544715447 28.55691056910569,59.40040650406504 28.709349593495933,59.75609756097561 28.861788617886177,60.010162601626014 29.01422764227642,60.3150406504065 29.166666666666664,60.56910569105691 29.31910569105691,60.823170731707314 29.471544715447155,61.1280487804878 29.67479674796748,61.38211382113821 29.827235772357724,61.6869918699187 30.03048780487805,61.99186991869919 30.182926829268293,62.24593495934959 30.38617886178862,62.55081300813008 30.538617886178862,62.855691056910565 30.741869918699187,63.16056910569105 30.89430894308943,63.46544715447154 31.046747967479675,63.71951219512195 31.19918699186992,63.97357723577235 31.351626016260163,64.17682926829268 31.504065040650406,64.43089430894308 31.65650406504065,64.6341463414634 31.808943089430894,64.88821138211382 31.961382113821138,65.1930894308943 32.11382113821138,65.44715447154472 32.266260162601625,65.70121951219512" fill="none" stroke="black" stroke-width="0.6"></polyline><polyline points="32.266260162601625,65.70121951219512 32.46951219512195,65.95528455284553 32.6219512195122,66.20934959349593 32.77439024390244,66.51422764227642 32.97764227642276,66.76829268292683 33.13008130081301,67.02235772357723 33.333333333333336,67.32723577235772 33.53658536585366,67.58130081300813 33.739837398373986,67.78455284552845 33.94308943089431,68.08943089430895 34.146341463414636,68.34349593495935 34.34959349593496,68.59756097560975 34.603658536585364,68.85162601626016 34.80691056910569,69.05487804878048 35.0609756097561,69.3089430894309 35.3150406504065,69.5630081300813 35.56910569105691,69.8170731707317 35.77235772357724,70.0711382113821 36.077235772357724,70.27439024390243 36.33130081300813,70.52845528455285 36.53455284552845,70.73170731707317 36.78861788617886,70.9349593495935 36.99186991869919,71.13821138211382 37.24593495934959,71.29065040650406 37.5,71.49390243902438 37.703252032520325,71.64634146341463 37.95731707317073,71.84959349593495 38.21138211382114,72.05284552845528 38.41463414634146,72.15447154471545 38.668699186991866,72.35772357723577 38.922764227642276,72.51016260162602 39.176829268292686,72.66260162601625 39.38008130081301,72.8150406504065 39.63414634146341,72.96747967479675 39.83739837398374,73.0691056910569 40.09146341463415,73.22154471544715 40.34552845528455,73.32317073170732 40.59959349593496,73.47560975609755 40.802845528455286,73.57723577235772 41.107723577235774,73.72967479674797 41.36178861788618,73.83130081300813 41.61585365853659,73.9329268292683 41.920731707317074,74.03455284552845 42.17479674796748,74.13617886178862 42.479674796747965,74.1869918699187 42.733739837398375,74.28861788617886 43.03861788617886,74.33943089430895 43.34349593495935,74.39024390243902 43.64837398373984,74.4410569105691 43.953252032520325,74.49186991869918 44.25813008130081,74.49186991869918" fill="none" stroke="black" stroke-width="0.6"></polyline><polyline points="44.25813008130081,74.49186991869918 44.61382113821138,74.49186991869918 44.96951219512195,74.49186991869918 45.325203252032516,74.49186991869918 45.73170731707317,74.49186991869918 46.08739837398374,74.49186991869918 46.44308943089431,74.49186991869918 46.798780487804876,74.4410569105691 46.951219512195124,74.4410569105691 47.459349593495936,74.39024390243902 47.66260162601626,74.39024390243902 47.86585365853659,74.39024390243902 48.170731707317074,74.39024390243902 48.52642276422764,74.39024390243902 48.88211382113821,74.33943089430895 49.23780487804878,74.33943089430895 49.542682926829265,74.33943089430895 49.89837398373984,74.33943089430895 50.203252032520325,74.33943089430895 50.50813008130081,74.33943089430895 50.8130081300813,74.28861788617886 51.11788617886179,74.28861788617886 51.422764227642276,74.28861788617886 51.72764227642276,74.28861788617886 51.981707317073166,74.28861788617886 52.28658536585366,74.28861788617886 52.59146341463415,74.28861788617886 52.896341463414636,74.23780487804878 53.2520325203252,74.23780487804878 53.55691056910569,74.1869918699187 53.86178861788618,74.13617886178862 54.166666666666664,74.13617886178862 54.420731707317074,74.08536585365853 54.67479674796748,74.03455284552845 54.979674796747965,73.98373983739837 55.18292682926829,73.9329268292683 55.4369918699187,73.9329268292683 55.74186991869919,73.8821138211382 55.99593495934959,73.83130081300813 56.25,73.78048780487805 56.5040650406504,73.72967479674797 56.70731707317073,73.72967479674797 56.96138211382114,73.67886178861788 57.16463414634146,73.6280487804878 57.36788617886179,73.57723577235772 57.57113821138211,73.52642276422765 57.77439024390244,73.52642276422765 57.92682926829268,73.47560975609755 58.130081300813,73.42479674796748 58.33333333333333,73.42479674796748 58.58739837398374,73.3739837398374" fill="none" stroke="black" stroke-width="0.6"></polyline><polyline points="58.58739837398374,73.3739837398374 58.790650406504064,73.32317073170732 58.99390243902439,73.27235772357723 59.197154471544714,73.22154471544715 59.40040650406504,73.17073170731707 59.65447154471545,73.119918699187 59.857723577235774,73.119918699187 60.11178861788618,73.0691056910569 60.36585365853659,73.01829268292683 60.61991869918699,72.91666666666667 60.8739837398374,72.86585365853658 61.17886178861789,72.76422764227642 61.483739837398375,72.66260162601625 61.73780487804878,72.5609756097561 62.09349593495935,72.40853658536585 62.34756097560975,72.3069105691057 62.65243902439024,72.20528455284553 62.95731707317073,72.10365853658537 63.262195121951216,71.95121951219512 63.5670731707317,71.84959349593495 63.87195121951219,71.69715447154472 64.17682926829268,71.59552845528455 64.48170731707317,71.4430894308943 64.83739837398373,71.29065040650406 65.1930894308943,71.13821138211382 65.59959349593495,70.9349593495935 66.0060975609756,70.78252032520325 66.41260162601625,70.57926829268293 66.76829268292683,70.42682926829268 67.07317073170732,70.27439024390243 67.3780487804878,70.1219512195122 67.6829268292683,69.91869918699187 67.98780487804878,69.76626016260163 68.29268292682927,69.5630081300813 68.59756097560975,69.3089430894309 68.95325203252033,69.05487804878048 69.2581300813008,68.80081300813008 69.61382113821138,68.54674796747967 69.86788617886178,68.29268292682927 70.1219512195122,68.08943089430895 70.32520325203252,67.83536585365853 70.52845528455285,67.6321138211382 70.73170731707317,67.3780487804878 70.9349593495935,67.02235772357723 71.13821138211382,66.71747967479675 71.34146341463415,66.41260162601625 71.54471544715447,66.0569105691057 71.7479674796748,65.70121951219512 71.95121951219512,65.29471544715447 72.15447154471545,64.88821138211382 72.35772357723577,64.48170731707317" fill="none" stroke="black" stroke-width="0.6"></polyline><polyline points="72.35772357723577,64.48170731707317 72.5609756097561,64.07520325203252 72.8150406504065,63.61788617886179 73.0691056910569,63.16056910569105 73.32317073170732,62.703252032520325 73.52642276422765,62.24593495934959 73.72967479674797,61.83943089430894 73.9329268292683,61.38211382113821 74.1869918699187,60.8739837398374 74.39024390243902,60.36585365853659 74.64430894308943,59.857723577235774 74.89837398373983,59.34959349593496 75.10162601626016,58.892276422764226 75.30487804878048,58.38414634146341 75.5081300813008,57.825203252032516 75.66056910569105,57.3170731707317 75.8130081300813,56.859756097560975 75.91463414634146,56.30081300813008 76.0670731707317,55.84349593495935 76.16869918699187,55.33536585365854 76.27032520325203,54.827235772357724 76.3211382113821,54.420731707317074 76.3719512195122,53.96341463414634 76.47357723577235,53.50609756097561 76.47357723577235,53.15040650406504 76.52439024390243,52.74390243902439 76.57520325203252,52.38821138211382 76.57520325203252,52.03252032520325 76.6260162601626,51.72764227642276 76.67682926829268,51.37195121951219 76.72764227642276,51.168699186991866 76.77845528455285,50.91463414634146 76.82926829268293,50.71138211382114 76.82926829268293,50.50813008130081 76.880081300813,50.30487804878049 76.93089430894308,50.10162601626016 76.98170731707317,50 76.98170731707317,49.89837398373984 77.03252032520325,49.796747967479675 77.03252032520325,49.74593495934959 77.03252032520325,49.74593495934959 77.03252032520325,49.74593495934959 77.03252032520325,49.74593495934959 77.03252032520325,49.74593495934959 77.03252032520325,49.74593495934959 77.03252032520325,49.74593495934959 77.08333333333333,49.796747967479675 77.1341463414634,49.89837398373984 77.1849593495935,50.05081300813008 77.1849593495935,50.355691056910565" fill="none" stroke="black" stroke-width="0.6"></polyline></svg>