<svg height="100" width="100" preserveAspectRatio="xMidYMid meet"><polyline points="23.06910569105691,16.81910569105691 23.06910569105691,16.76829268292683 23.06910569105691,16.76829268292683 23.01829268292683,16.71747967479675 23.01829268292683,16.71747967479675 23.01829268292683,16.666666666666668 23.119918699186993,16.615853658536587 23.272357723577237,16.514227642276424 23.526422764227643,16.36178861788618 23.932926829268293,16.15853658536585 24.441056910569106,15.853658536585366 25.101626016260163,15.447154471544716 25.76219512195122,14.939024390243903 26.371951219512194,14.430894308943088 26.98170731707317,13.922764227642276 27.540650406504064,13.465447154471544 28.048780487804876,12.957317073170731 28.55691056910569,12.449186991869919 29.01422764227642,11.890243902439025 29.420731707317074,11.382113821138212 29.878048780487806,10.823170731707316 30.284552845528456,10.16260162601626 30.640243902439025,9.552845528455284 31.046747967479675,8.99390243902439 31.30081300813008,8.485772357723578 31.554878048780488,7.926829268292683 31.758130081300813,7.367886178861789 31.910569105691057,6.961382113821138 32.012195121951216,6.605691056910569 32.11382113821138,6.199186991869919 32.11382113821138,5.84349593495935 32.11382113821138,5.589430894308943 32.0630081300813,5.335365853658536 31.961382113821138,5.182926829268292 31.808943089430894,5.030487804878049 31.60569105691057,4.878048780487805 31.402439024390244,4.776422764227642 31.148373983739837,4.776422764227642 30.79268292682927,4.776422764227642 30.4369918699187,4.8272357723577235 30.03048780487805,4.979674796747967 29.573170731707318,5.132113821138211 29.166666666666664,5.335365853658536 28.760162601626014,5.589430894308943 28.353658536585364,5.894308943089431 27.947154471544714,6.300813008130081 27.591463414634145,6.7073170731707314 27.184959349593495,7.113821138211382 26.880081300813007,7.520325203252033 26.6260162601626,8.028455284552845 26.321138211382113,8.689024390243903" fill="none" stroke="black" stroke-width="0.6"></polyline><polyline points="26.321138211382113,8.689024390243903 26.117886178861788,9.197154471544716 25.965447154471544,9.75609756097561 25.86382113821138,10.365853658536585 25.8130081300813,10.97560975609756 25.8130081300813,11.483739837398375 25.8130081300813,11.991869918699187 25.8130081300813,12.449186991869919 25.86382113821138,12.90650406504065 25.965447154471544,13.363821138211382 26.067073170731707,13.770325203252032 26.16869918699187,14.07520325203252 26.270325203252032,14.48170731707317 26.422764227642276,14.888211382113822 26.524390243902438,15.24390243902439 26.6260162601626,15.65040650406504 26.778455284552845,15.904471544715447 26.93089430894309,16.15853658536585 27.134146341463413,16.41260162601626 27.33739837398374,16.615853658536587 27.540650406504064,16.81910569105691 27.74390243902439,17.022357723577237 27.997967479674795,17.17479674796748 28.20121951219512,17.276422764227643 28.506097560975608,17.327235772357724 28.810975609756095,17.327235772357724 29.115853658536583,17.327235772357724 29.522357723577237,17.276422764227643 29.878048780487806,17.17479674796748 30.233739837398375,17.022357723577237 30.589430894308943,16.81910569105691 30.89430894308943,16.666666666666668 31.25,16.41260162601626 31.60569105691057,16.15853658536585 31.961382113821138,15.904471544715447 32.3170731707317,15.59959349593496 32.672764227642276,15.294715447154472 32.97764227642276,14.989837398373984 33.23170731707317,14.634146341463413 33.485772357723576,14.278455284552845 33.63821138211382,13.922764227642276 33.790650406504064,13.617886178861788 33.892276422764226,13.414634146341463 33.892276422764226,13.160569105691057 33.94308943089431,12.957317073170731 33.94308943089431,12.754065040650406 33.84146341463415,12.601626016260163 33.739837398373986,12.5 33.58739837398374,12.449186991869919 33.485772357723576,12.398373983739837 33.28252032520325,12.398373983739837" fill="none" stroke="black" stroke-width="0.6"></polyline><polyline points="33.28252032520325,12.398373983739837 33.079268292682926,12.398373983739837 32.82520325203252,12.550813008130081 32.57113821138211,12.703252032520325 32.3170731707317,12.90650406504065 32.012195121951216,13.109756097560975 31.758130081300813,13.414634146341463 31.504065040650406,13.66869918699187 31.30081300813008,13.973577235772357 31.097560975609756,14.278455284552845 30.995934959349594,14.53252032520325 30.995934959349594,14.83739837398374 30.995934959349594,15.142276422764228 30.995934959349594,15.447154471544716 31.148373983739837,15.65040650406504 31.351626016260163,15.904471544715447 31.60569105691057,16.10772357723577 31.961382113821138,16.260162601626014 32.36788617886179,16.463414634146343 32.77439024390244,16.565040650406505 33.23170731707317,16.666666666666668 33.790650406504064,16.71747967479675 34.298780487804876,16.666666666666668 34.857723577235774,16.514227642276424 35.46747967479675,16.3109756097561 35.97560975609756,16.05691056910569 36.43292682926829,15.853658536585366 36.83943089430894,15.59959349593496 37.14430894308943,15.345528455284553 37.449186991869915,15.091463414634147 37.7540650406504,14.786585365853659 37.95731707317073,14.53252032520325 38.16056910569105,14.380081300813007 38.3130081300813,14.176829268292682" fill="none" stroke="black" stroke-width="0.6"></polyline><polyline points="20.68089430894309,35.56910569105691 20.68089430894309,35.51829268292683 20.630081300813007,35.416666666666664 20.630081300813007,35.36585365853659 20.630081300813007,35.36585365853659 20.630081300813007,35.36585365853659 20.630081300813007,35.36585365853659 20.68089430894309,35.3150406504065 20.78252032520325,35.3150406504065 20.934959349593495,35.3150406504065 21.08739837398374,35.264227642276424 21.239837398373982,35.21341463414634 21.49390243902439,35.11178861788618 21.747967479674795,34.959349593495936 22.0020325203252,34.70528455284553 22.35772357723577,34.40040650406504 22.662601626016258,34.04471544715447 23.01829268292683,33.6890243902439 23.3739837398374,33.23170731707317 23.729674796747968,32.82520325203252 24.085365853658537,32.3170731707317 24.491869918699187,31.758130081300813 24.847560975609756,31.25 25.203252032520325,30.79268292682927 25.558943089430894,30.284552845528456 25.8130081300813,29.67479674796748 26.117886178861788,29.115853658536583 26.371951219512194,28.506097560975608 26.6260162601626,27.896341463414632 26.880081300813007,27.235772357723576 27.03252032520325,26.676829268292682 27.235772357723576,26.117886178861788 27.38821138211382,25.508130081300813 27.489837398373982,25.05081300813008 27.489837398373982,24.64430894308943 27.540650406504064,24.288617886178862 27.540650406504064,24.085365853658537 27.489837398373982,23.83130081300813 27.4390243902439,23.628048780487806 27.38821138211382,23.475609756097562 27.286585365853657,23.3739837398374 27.184959349593495,23.323170731707318 27.083333333333332,23.323170731707318 26.93089430894309,23.323170731707318 26.727642276422763,23.42479674796748 26.473577235772357,23.628048780487806 26.21951219512195,23.83130081300813 25.965447154471544,24.085365853658537 25.76219512195122,24.339430894308943 25.558943089430894,24.64430894308943 25.35569105691057,25" fill="none" stroke="black" stroke-width="0.6"></polyline><polyline points="25.35569105691057,25 25.152439024390244,25.35569105691057 24.94918699186992,25.8130081300813 24.745934959349594,26.371951219512194 24.59349593495935,26.98170731707317 24.491869918699187,27.591463414634145 24.339430894308943,28.353658536585364 24.1869918699187,28.96341463414634 24.13617886178862,29.573170731707318 24.085365853658537,30.233739837398375 24.034552845528456,30.79268292682927 23.983739837398375,31.351626016260163 23.983739837398375,31.910569105691057 23.983739837398375,32.418699186991866 23.983739837398375,32.926829268292686 23.983739837398375,33.38414634146341 23.983739837398375,33.6890243902439 24.034552845528456,34.04471544715447 24.085365853658537,34.34959349593496 24.13617886178862,34.65447154471545 24.1869918699187,34.959349593495936 24.288617886178862,35.21341463414634 24.339430894308943,35.46747967479675 24.441056910569106,35.670731707317074 24.59349593495935,35.823170731707314 24.745934959349594,35.97560975609756 24.898373983739837,36.077235772357724 25.05081300813008,36.1280487804878 25.254065040650406,36.17886178861789 25.508130081300813,36.17886178861789 25.76219512195122,36.077235772357724 26.117886178861788,35.92479674796748 26.473577235772357,35.72154471544715 26.880081300813007,35.46747967479675 27.286585365853657,35.16260162601626 27.74390243902439,34.80691056910569 28.15040650406504,34.451219512195124 28.506097560975608,34.04471544715447 28.810975609756095,33.63821138211382 29.0650406504065,33.23170731707317 29.268292682926827,32.8760162601626 29.471544715447155,32.52032520325203 29.573170731707318,32.11382113821138 29.67479674796748,31.758130081300813 29.725609756097562,31.453252032520325 29.776422764227643,31.148373983739837 29.776422764227643,30.945121951219512 29.776422764227643,30.691056910569106 29.725609756097562,30.538617886178862 29.6239837398374,30.4369918699187 29.522357723577237,30.38617886178862" fill="none" stroke="black" stroke-width="0.6"></polyline><polyline points="29.522357723577237,30.38617886178862 29.420731707317074,30.335365853658537 29.31910569105691,30.335365853658537 29.268292682926827,30.335365853658537 29.166666666666664,30.4369918699187 29.01422764227642,30.589430894308943 28.861788617886177,30.79268292682927 28.760162601626014,30.995934959349594 28.65853658536585,31.25 28.506097560975608,31.554878048780488 28.455284552845526,31.859756097560975 28.404471544715445,32.21544715447154 28.404471544715445,32.6219512195122 28.404471544715445,33.02845528455285 28.455284552845526,33.4349593495935 28.60772357723577,33.892276422764226 28.709349593495933,34.298780487804876 28.912601626016258,34.65447154471545 29.0650406504065,35.010162601626014 29.268292682926827,35.21341463414634 29.522357723577237,35.416666666666664 29.776422764227643,35.61991869918699 30.03048780487805,35.72154471544715 30.284552845528456,35.8739837398374 30.589430894308943,35.97560975609756 30.84349593495935,36.02642276422764 31.148373983739837,36.077235772357724 31.504065040650406,36.077235772357724 31.910569105691057,35.97560975609756 32.36788617886179,35.77235772357724 32.97764227642276,35.46747967479675 33.63821138211382,35.0609756097561 34.298780487804876,34.603658536585364 34.70528455284553,34.34959349593496" fill="none" stroke="black" stroke-width="0.6"></polyline><polyline points="19.054878048780488,56.30081300813008 19.054878048780488,56.25 19.004065040650406,56.14837398373984 18.953252032520325,56.046747967479675 18.953252032520325,55.94512195121951 18.953252032520325,55.84349593495935 19.004065040650406,55.74186991869919 19.15650406504065,55.58943089430894 19.410569105691057,55.386178861788615 19.715447154471544,55.18292682926829 20.121951219512194,54.92886178861789 20.579268292682926,54.573170731707314 21.13821138211382,54.21747967479675 21.747967479674795,53.709349593495936 22.30691056910569,53.15040650406504 22.815040650406505,52.69308943089431 23.323170731707318,52.13414634146341 23.83130081300813,51.52439024390244 24.288617886178862,50.91463414634146 24.695121951219512,50.30487804878049 25.101626016260163,49.64430894308943 25.45731707317073,49.03455284552845 25.8130081300813,48.42479674796748 26.067073170731707,47.8150406504065 26.270325203252032,47.15447154471545 26.422764227642276,46.59552845528455 26.473577235772357,46.03658536585366 26.524390243902438,45.579268292682926 26.524390243902438,45.172764227642276 26.422764227642276,44.8170731707317 26.321138211382113,44.5630081300813 26.21951219512195,44.30894308943089 26.067073170731707,44.20731707317073 25.965447154471544,44.15650406504065 25.8130081300813,44.15650406504065 25.660569105691057,44.15650406504065 25.40650406504065,44.30894308943089 25.101626016260163,44.61382113821138 24.796747967479675,44.96951219512195 24.491869918699187,45.42682926829268 24.13617886178862,45.88414634146341 23.882113821138212,46.34146341463415 23.628048780487806,46.84959349593496 23.3739837398374,47.510162601626014 23.170731707317074,48.06910569105691 23.01829268292683,48.67886178861789 22.815040650406505,49.390243902439025 22.662601626016258,50.05081300813008 22.510162601626014,50.71138211382114 22.35772357723577,51.32113821138211 22.30691056910569,51.880081300813" fill="none" stroke="black" stroke-width="0.6"></polyline><polyline points="22.30691056910569,51.880081300813 22.30691056910569,52.4390243902439 22.256097560975608,52.9979674796748 22.256097560975608,53.40447154471545 22.256097560975608,53.86178861788618 22.30691056910569,54.31910569105691 22.40853658536585,54.67479674796748 22.510162601626014,54.979674796747965 22.611788617886177,55.233739837398375 22.764227642276424,55.4369918699187 22.916666666666668,55.58943089430894 23.119918699186993,55.792682926829265 23.323170731707318,55.89430894308943 23.475609756097562,55.94512195121951 23.729674796747968,55.99593495934959 23.932926829268293,56.046747967479675 24.1869918699187,56.046747967479675 24.441056910569106,56.046747967479675 24.695121951219512,55.99593495934959 25.05081300813008,55.84349593495935 25.35569105691057,55.6910569105691 25.660569105691057,55.53861788617886 25.965447154471544,55.28455284552845 26.21951219512195,55.03048780487805 26.473577235772357,54.72560975609756 26.727642276422763,54.36991869918699 26.98170731707317,53.91260162601626 27.134146341463413,53.50609756097561 27.235772357723576,53.09959349593496 27.235772357723576,52.74390243902439 27.286585365853657,52.4390243902439 27.286585365853657,52.083333333333336 27.286585365853657,51.829268292682926 27.235772357723576,51.575203252032516 27.184959349593495,51.37195121951219 27.134146341463413,51.21951219512195 27.03252032520325,51.168699186991866 26.93089430894309,51.168699186991866 26.829268292682926,51.168699186991866 26.676829268292682,51.21951219512195 26.524390243902438,51.37195121951219 26.321138211382113,51.6260162601626 26.16869918699187,51.93089430894309 25.965447154471544,52.235772357723576 25.8130081300813,52.59146341463415 25.711382113821138,52.947154471544714 25.609756097560975,53.302845528455286 25.558943089430894,53.709349593495936 25.558943089430894,54.166666666666664 25.609756097560975,54.52235772357724 25.711382113821138,54.8780487804878" fill="none" stroke="black" stroke-width="0.6"></polyline><polyline points="25.711382113821138,54.8780487804878 25.86382113821138,55.08130081300813 26.067073170731707,55.28455284552845 26.21951219512195,55.386178861788615 26.473577235772357,55.48780487804878 26.727642276422763,55.58943089430894 27.03252032520325,55.58943089430894 27.4390243902439,55.58943089430894 27.896341463414632,55.58943089430894 28.353658536585364,55.4369918699187 28.810975609756095,55.28455284552845 29.369918699186993,55.03048780487805 29.827235772357724,54.827235772357724 30.335365853658537,54.52235772357724 30.79268292682927,54.26829268292683" fill="none" stroke="black" stroke-width="0.6"></polyline><polyline points="19.867886178861788,75.86382113821138 19.867886178861788,75.8130081300813 19.91869918699187,75.71138211382113 19.96951219512195,75.5589430894309 20.020325203252032,75.35569105691057 20.223577235772357,75.15243902439025 20.426829268292682,74.89837398373983 20.78252032520325,74.64430894308943 21.13821138211382,74.33943089430895 21.49390243902439,73.98373983739837 21.95121951219512,73.47560975609755 22.30691056910569,72.96747967479675 22.71341463414634,72.40853658536585 23.119918699186993,71.7479674796748 23.475609756097562,71.13821138211382 23.83130081300813,70.47764227642276 24.1869918699187,69.86788617886178 24.491869918699187,69.20731707317073 24.745934959349594,68.54674796747967 25,67.83536585365853 25.152439024390244,67.27642276422765 25.304878048780488,66.66666666666667 25.508130081300813,66.0569105691057 25.609756097560975,65.54878048780488 25.711382113821138,65.09146341463415 25.76219512195122,64.6849593495935 25.76219512195122,64.380081300813 25.76219512195122,64.17682926829268 25.76219512195122,64.07520325203252 25.76219512195122,64.02439024390243 25.76219512195122,64.02439024390243 25.711382113821138,64.02439024390243 25.660569105691057,64.07520325203252 25.508130081300813,64.32926829268293 25.304878048780488,64.6849593495935 25.05081300813008,65.09146341463415 24.796747967479675,65.4979674796748 24.54268292682927,65.95528455284553 24.339430894308943,66.41260162601625 24.13617886178862,66.92073170731707 23.882113821138212,67.53048780487805 23.678861788617887,68.1910569105691 23.526422764227643,68.90243902439025 23.323170731707318,69.61382113821138 23.170731707317074,70.22357723577235 23.01829268292683,70.83333333333333 22.916666666666668,71.39227642276423 22.815040650406505,71.90040650406505 22.764227642276424,72.35772357723577 22.71341463414634,72.61178861788618 22.71341463414634,72.76422764227642" fill="none" stroke="black" stroke-width="0.6"></polyline><polyline points="22.71341463414634,72.76422764227642 22.71341463414634,73.119918699187 22.71341463414634,73.42479674796748 22.764227642276424,73.78048780487805 22.865853658536587,74.08536585365853 23.01829268292683,74.33943089430895 23.119918699186993,74.54268292682927 23.272357723577237,74.64430894308943 23.42479674796748,74.7459349593496 23.577235772357724,74.7459349593496 23.78048780487805,74.7459349593496 23.983739837398375,74.7459349593496 24.1869918699187,74.7459349593496 24.390243902439025,74.7459349593496 24.64430894308943,74.6951219512195 24.898373983739837,74.6951219512195 25.152439024390244,74.59349593495935 25.45731707317073,74.54268292682927 25.711382113821138,74.39024390243902 26.016260162601625,74.28861788617886 26.270325203252032,74.08536585365853 26.524390243902438,73.83130081300813 26.778455284552845,73.57723577235772 26.98170731707317,73.22154471544715 27.134146341463413,72.91666666666667 27.286585365853657,72.5609756097561 27.38821138211382,72.15447154471545 27.38821138211382,71.84959349593495 27.38821138211382,71.54471544715447 27.38821138211382,71.1890243902439 27.33739837398374,70.98577235772358 27.286585365853657,70.78252032520325 27.184959349593495,70.68089430894308 27.134146341463413,70.630081300813 27.03252032520325,70.630081300813 26.98170731707317,70.630081300813 26.880081300813007,70.68089430894308 26.727642276422763,70.83333333333333 26.57520325203252,71.08739837398373 26.422764227642276,71.34146341463415 26.270325203252032,71.69715447154472 26.117886178861788,72.10365853658537 26.016260162601625,72.45934959349593 25.914634146341463,72.91666666666667 25.8130081300813,73.3739837398374 25.8130081300813,73.83130081300813 25.8130081300813,74.28861788617886 25.8130081300813,74.64430894308943 25.914634146341463,74.94918699186992 26.067073170731707,75.20325203252033 26.270325203252032,75.40650406504065" fill="none" stroke="black" stroke-width="0.6"></polyline><polyline points="26.270325203252032,75.40650406504065 26.524390243902438,75.5589430894309 26.829268292682926,75.71138211382113 27.235772357723576,75.8130081300813 27.642276422764226,75.8130081300813 28.15040650406504,75.8130081300813 28.760162601626014,75.8130081300813 29.268292682926827,75.76219512195122 29.827235772357724,75.71138211382113 30.132113821138212,75.66056910569105" fill="none" stroke="black" stroke-width="0.6"></polyline><polyline points="21.08739837398374,94.86788617886178 21.13821138211382,94.71544715447155 21.290650406504064,94.46138211382113 21.54471544715447,94.15650406504065 21.849593495934958,93.80081300813008 22.205284552845526,93.39430894308943 22.560975609756095,92.9369918699187 22.96747967479675,92.42886178861788 23.3739837398374,91.97154471544715 23.729674796747968,91.46341463414635 24.085365853658537,90.85365853658536 24.441056910569106,90.14227642276423 24.796747967479675,89.48170731707317 25.203252032520325,88.77032520325203 25.508130081300813,87.95731707317073 25.8130081300813,87.2459349593496 26.067073170731707,86.53455284552845 26.21951219512195,85.8739837398374 26.371951219512194,85.26422764227642 26.473577235772357,84.65447154471545 26.524390243902438,84.1971544715447 26.524390243902438,83.73983739837398 26.524390243902438,83.3841463414634 26.524390243902438,83.18089430894308 26.422764227642276,83.02845528455285 26.321138211382113,82.97764227642276 26.21951219512195,82.92682926829268 26.067073170731707,83.02845528455285 25.8130081300813,83.23170731707317 25.558943089430894,83.53658536585365 25.254065040650406,83.9430894308943 24.94918699186992,84.40040650406503 24.64430894308943,84.90853658536585 24.288617886178862,85.46747967479675 23.983739837398375,86.1280487804878 23.729674796747968,86.73780487804878 23.475609756097562,87.39837398373983 23.272357723577237,88.10975609756098 23.119918699186993,88.8211382113821 22.96747967479675,89.58333333333333 22.865853658536587,90.34552845528455 22.865853658536587,90.90447154471545 22.865853658536587,91.51422764227642 22.916666666666668,92.1239837398374 23.01829268292683,92.58130081300813 23.170731707317074,93.03861788617886 23.323170731707318,93.54674796747967 23.526422764227643,93.95325203252033 23.78048780487805,94.3089430894309 24.034552845528456,94.66463414634146 24.288617886178862,94.86788617886178" fill="none" stroke="black" stroke-width="0.6"></polyline><polyline points="24.288617886178862,94.86788617886178 24.54268292682927,95.0711382113821 24.847560975609756,95.17276422764228 25.152439024390244,95.27439024390243 25.40650406504065,95.27439024390243 25.711382113821138,95.27439024390243 26.016260162601625,95.22357723577235 26.321138211382113,95.0711382113821 26.6260162601626,94.91869918699187 26.880081300813007,94.76626016260163 27.134146341463413,94.5630081300813 27.4390243902439,94.3089430894309 27.693089430894307,94.0040650406504 27.997967479674795,93.64837398373983 28.2520325203252,93.24186991869918 28.506097560975608,92.83536585365853 28.709349593495933,92.3780487804878 28.912601626016258,91.97154471544715 29.0650406504065,91.61585365853658 29.166666666666664,91.26016260162602 29.217479674796746,90.90447154471545 29.268292682926827,90.59959349593495 29.268292682926827,90.34552845528455 29.217479674796746,90.09146341463415 29.115853658536583,89.98983739837398 29.01422764227642,89.88821138211382 28.912601626016258,89.88821138211382 28.810975609756095,89.88821138211382 28.65853658536585,89.88821138211382 28.455284552845526,89.98983739837398 28.2520325203252,90.1930894308943 28.048780487804876,90.4471544715447 27.84552845528455,90.7520325203252 27.642276422764226,91.10772357723577 27.4390243902439,91.51422764227642 27.33739837398374,91.92073170731707 27.235772357723576,92.32723577235772 27.134146341463413,92.83536585365853 27.134146341463413,93.29268292682927 27.184959349593495,93.75 27.33739837398374,94.20731707317073 27.489837398373982,94.5630081300813 27.693089430894307,94.8170731707317 27.997967479674795,95.0711382113821 28.302845528455283,95.22357723577235 28.709349593495933,95.32520325203252 29.217479674796746,95.3760162601626 29.725609756097562,95.3760162601626 30.284552845528456,95.22357723577235 30.995934959349594,94.96951219512195 31.60569105691057,94.66463414634146" fill="none" stroke="black" stroke-width="0.6"></polyline><polyline points="31.60569105691057,94.66463414634146 32.266260162601625,94.3089430894309 32.97764227642276,93.85162601626016 33.23170731707317,93.64837398373983 34.197154471544714,92.9369918699187 34.857723577235774,92.42886178861788" fill="none" stroke="black" stroke-width="0.6"></polyline></svg>