<svg height="100" width="100" preserveAspectRatio="xMidYMid meet"><polyline points="50.10162601626016,49.49186991869919 50.10162601626016,49.49186991869919 50.10162601626016,49.542682926829265 50.10162601626016,49.542682926829265 50.10162601626016,49.542682926829265 50.10162601626016,49.542682926829265 50.15243902439024,49.59349593495935 50.15243902439024,49.59349593495935 50.15243902439024,49.59349593495935 50.15243902439024,49.59349593495935 50.15243902439024,49.64430894308943 50.15243902439024,49.64430894308943 50.15243902439024,49.64430894308943 50.203252032520325,49.64430894308943 50.203252032520325,49.64430894308943 50.203252032520325,49.64430894308943 50.203252032520325,49.64430894308943 50.203252032520325,49.64430894308943 50.203252032520325,49.64430894308943 50.203252032520325,49.64430894308943 50.203252032520325,49.64430894308943 50.203252032520325,49.64430894308943 50.203252032520325,49.64430894308943 50.203252032520325,49.64430894308943 50.203252032520325,49.64430894308943 50.203252032520325,49.64430894308943 50.203252032520325,49.64430894308943 50.203252032520325,49.64430894308943 50.203252032520325,49.64430894308943 50.203252032520325,49.64430894308943 50.203252032520325,49.59349593495935 50.203252032520325,49.59349593495935 50.203252032520325,49.59349593495935 50.203252032520325,49.59349593495935 50.203252032520325,49.59349593495935 50.203252032520325,49.59349593495935 50.203252032520325,49.542682926829265 50.203252032520325,49.542682926829265 50.203252032520325,49.49186991869919 50.203252032520325,49.49186991869919 50.203252032520325,49.4410569105691 50.203252032520325,49.33943089430894 50.203252032520325,49.28861788617886 50.203252032520325,49.23780487804878 50.15243902439024,49.136178861788615 50.15243902439024,49.03455284552845 50.10162601626016,48.983739837398375 50.10162601626016,48.88211382113821 50.10162601626016,48.78048780487805 50.05081300813008,48.67886178861789 50.05081300813008,48.577235772357724" fill="none" stroke="black" stroke-width="0.6"></polyline><polyline points="50.05081300813008,48.577235772357724 50.05081300813008,48.52642276422764 50,48.42479674796748 50,48.323170731707314 49.949186991869915,48.27235772357724 49.949186991869915,48.170731707317074 49.89837398373984,48.11991869918699 49.84756097560975,48.06910569105691 49.796747967479675,48.01829268292683 49.796747967479675,47.96747967479675 49.74593495934959,47.916666666666664 49.69512195121951,47.86585365853659 49.64430894308943,47.8150406504065 49.59349593495935,47.8150406504065 49.542682926829265,47.764227642276424 49.49186991869919,47.764227642276424 49.4410569105691,47.764227642276424 49.33943089430894,47.71341463414634 49.28861788617886,47.71341463414634 49.23780487804878,47.71341463414634 49.1869918699187,47.71341463414634 49.136178861788615,47.71341463414634 49.03455284552845,47.71341463414634 48.983739837398375,47.71341463414634 48.88211382113821,47.764227642276424 48.83130081300813,47.764227642276424 48.729674796747965,47.8150406504065 48.67886178861789,47.86585365853659 48.577235772357724,47.916666666666664 48.47560975609756,47.96747967479675 48.42479674796748,47.96747967479675 48.3739837398374,48.01829268292683 48.27235772357724,48.06910569105691 48.22154471544715,48.11991869918699 48.11991869918699,48.170731707317074 48.06910569105691,48.22154471544715 48.01829268292683,48.27235772357724 47.916666666666664,48.323170731707314 47.86585365853659,48.3739837398374 47.8150406504065,48.42479674796748 47.764227642276424,48.47560975609756 47.71341463414634,48.52642276422764 47.66260162601626,48.52642276422764 47.61178861788618,48.577235772357724 47.510162601626014,48.67886178861789 47.459349593495936,48.729674796747965 47.40853658536585,48.78048780487805 47.357723577235774,48.83130081300813 47.30691056910569,48.93292682926829 47.25609756097561,48.983739837398375 47.15447154471545,49.03455284552845" fill="none" stroke="black" stroke-width="0.6"></polyline><polyline points="47.15447154471545,49.03455284552845 47.103658536585364,49.136178861788615 47.052845528455286,49.1869918699187 47.0020325203252,49.28861788617886 46.951219512195124,49.33943089430894 46.84959349593496,49.4410569105691 46.798780487804876,49.542682926829265 46.7479674796748,49.59349593495935 46.7479674796748,49.69512195121951 46.646341463414636,49.796747967479675 46.646341463414636,49.84756097560975 46.59552845528455,49.949186991869915 46.54471544715447,50.05081300813008 46.54471544715447,50.10162601626016 46.49390243902439,50.15243902439024 46.49390243902439,50.2540650406504 46.44308943089431,50.30487804878049 46.44308943089431,50.355691056910565 46.392276422764226,50.45731707317073 46.392276422764226,50.50813008130081 46.392276422764226,50.55894308943089 46.34146341463415,50.66056910569105 46.34146341463415,50.71138211382114 46.290650406504064,50.762195121951216 46.290650406504064,50.86382113821138 46.290650406504064,50.91463414634146 46.290650406504064,51.016260162601625 46.239837398373986,51.11788617886179 46.239837398373986,51.168699186991866 46.239837398373986,51.27032520325203 46.239837398373986,51.37195121951219 46.239837398373986,51.47357723577235 46.239837398373986,51.52439024390244 46.239837398373986,51.6260162601626 46.239837398373986,51.72764227642276 46.239837398373986,51.829268292682926 46.239837398373986,51.93089430894309 46.239837398373986,52.03252032520325 46.239837398373986,52.13414634146341 46.290650406504064,52.235772357723576 46.290650406504064,52.33739837398374 46.34146341463415,52.4390243902439 46.392276422764226,52.540650406504064 46.44308943089431,52.59146341463415 46.49390243902439,52.69308943089431 46.49390243902439,52.79471544715447 46.54471544715447,52.84552845528455 46.59552845528455,52.947154471544714 46.646341463414636,52.9979674796748 46.697154471544714,53.09959349593496 46.7479674796748,53.15040650406504" fill="none" stroke="black" stroke-width="0.6"></polyline><polyline points="46.7479674796748,53.15040650406504 46.798780487804876,53.201219512195124 46.90040650406504,53.302845528455286 46.951219512195124,53.353658536585364 47.0020325203252,53.40447154471545 47.052845528455286,53.45528455284553 47.103658536585364,53.50609756097561 47.103658536585364,53.55691056910569 47.15447154471545,53.607723577235774 47.20528455284553,53.65853658536585 47.25609756097561,53.709349593495936 47.25609756097561,53.760162601626014 47.30691056910569,53.86178861788618 47.357723577235774,53.91260162601626 47.40853658536585,53.96341463414634 47.459349593495936,54.014227642276424 47.510162601626014,54.0650406504065 47.510162601626014,54.11585365853659 47.5609756097561,54.166666666666664 47.61178861788618,54.21747967479675 47.61178861788618,54.26829268292683 47.66260162601626,54.31910569105691 47.71341463414634,54.36991869918699 47.764227642276424,54.420731707317074 47.8150406504065,54.47154471544715 47.8150406504065,54.52235772357724 47.86585365853659,54.573170731707314 47.916666666666664,54.6239837398374 47.96747967479675,54.6239837398374 48.01829268292683,54.67479674796748 48.06910569105691,54.72560975609756 48.11991869918699,54.77642276422764 48.170731707317074,54.827235772357724 48.22154471544715,54.827235772357724 48.27235772357724,54.8780487804878 48.3739837398374,54.8780487804878 48.42479674796748,54.92886178861789 48.52642276422764,54.92886178861789 48.577235772357724,54.979674796747965 48.67886178861789,54.979674796747965 48.78048780487805,54.979674796747965 48.83130081300813,55.03048780487805 48.93292682926829,55.03048780487805 48.983739837398375,55.08130081300813 49.08536585365854,55.08130081300813 49.136178861788615,55.13211382113821 49.23780487804878,55.13211382113821 49.28861788617886,55.13211382113821 49.390243902439025,55.18292682926829 49.4410569105691,55.18292682926829 49.49186991869919,55.18292682926829" fill="none" stroke="black" stroke-width="0.6"></polyline><polyline points="49.49186991869919,55.18292682926829 49.59349593495935,55.18292682926829 49.64430894308943,55.18292682926829 49.74593495934959,55.18292682926829 49.84756097560975,55.18292682926829 49.89837398373984,55.18292682926829 50,55.18292682926829 50.10162601626016,55.18292682926829 50.203252032520325,55.18292682926829 50.2540650406504,55.18292682926829 50.355691056910565,55.18292682926829 50.45731707317073,55.18292682926829 50.55894308943089,55.18292682926829 50.66056910569105,55.233739837398375 50.762195121951216,55.233739837398375 50.8130081300813,55.233739837398375 50.91463414634146,55.233739837398375 50.96544715447154,55.233739837398375 51.0670731707317,55.233739837398375 51.11788617886179,55.233739837398375 51.168699186991866,55.233739837398375 51.27032520325203,55.233739837398375 51.32113821138211,55.233739837398375 51.37195121951219,55.233739837398375 51.47357723577235,55.233739837398375 51.52439024390244,55.233739837398375 51.575203252032516,55.233739837398375 51.6260162601626,55.233739837398375 51.67682926829268,55.233739837398375 51.72764227642276,55.18292682926829 51.77845528455284,55.18292682926829 51.829268292682926,55.18292682926829 51.880081300813,55.18292682926829 51.981707317073166,55.13211382113821 52.03252032520325,55.13211382113821 52.083333333333336,55.13211382113821 52.13414634146341,55.08130081300813 52.1849593495935,55.08130081300813 52.235772357723576,55.03048780487805 52.33739837398374,54.979674796747965 52.38821138211382,54.979674796747965 52.4390243902439,54.92886178861789 52.489837398373986,54.8780487804878 52.59146341463415,54.827235772357724 52.642276422764226,54.77642276422764 52.74390243902439,54.72560975609756 52.84552845528455,54.67479674796748 52.896341463414636,54.6239837398374 52.9979674796748,54.573170731707314 53.09959349593496,54.52235772357724 53.201219512195124,54.47154471544715" fill="none" stroke="black" stroke-width="0.6"></polyline><polyline points="53.201219512195124,54.47154471544715 53.302845528455286,54.420731707317074 53.40447154471545,54.31910569105691 53.50609756097561,54.26829268292683 53.607723577235774,54.166666666666664 53.709349593495936,54.11585365853659 53.8109756097561,54.014227642276424 53.91260162601626,53.96341463414634 54.014227642276424,53.86178861788618 54.11585365853659,53.8109756097561 54.21747967479675,53.709349593495936 54.31910569105691,53.65853658536585 54.36991869918699,53.607723577235774 54.47154471544715,53.55691056910569 54.52235772357724,53.50609756097561 54.6239837398374,53.45528455284553 54.67479674796748,53.353658536585364 54.72560975609756,53.302845528455286 54.77642276422764,53.2520325203252 54.8780487804878,53.15040650406504 54.92886178861789,53.09959349593496 54.979674796747965,52.9979674796748 55.03048780487805,52.947154471544714 55.13211382113821,52.84552845528455 55.18292682926829,52.74390243902439 55.233739837398375,52.69308943089431 55.28455284552845,52.642276422764226 55.33536585365854,52.540650406504064 55.386178861788615,52.489837398373986 55.4369918699187,52.38821138211382 55.48780487804878,52.28658536585366 55.58943089430894,52.13414634146341 55.640243902439025,51.981707317073166 55.6910569105691,51.829268292682926 55.792682926829265,51.67682926829268 55.84349593495935,51.52439024390244 55.89430894308943,51.37195121951219 55.94512195121951,51.27032520325203 55.99593495934959,51.168699186991866 56.046747967479675,51.0670731707317 56.09756097560975,50.96544715447154 56.14837398373984,50.86382113821138 56.199186991869915,50.762195121951216 56.25,50.66056910569105 56.25,50.55894308943089 56.30081300813008,50.45731707317073 56.35162601626016,50.40650406504065 56.35162601626016,50.355691056910565 56.40243902439024,50.2540650406504 56.40243902439024,50.203252032520325 56.453252032520325,50.15243902439024" fill="none" stroke="black" stroke-width="0.6"></polyline><polyline points="56.453252032520325,50.15243902439024 56.453252032520325,50.05081300813008 56.453252032520325,49.949186991869915 56.5040650406504,49.796747967479675 56.5040650406504,49.64430894308943 56.55487804878049,49.542682926829265 56.55487804878049,49.390243902439025 56.55487804878049,49.28861788617886 56.55487804878049,49.136178861788615 56.55487804878049,49.03455284552845 56.55487804878049,48.88211382113821 56.55487804878049,48.78048780487805 56.55487804878049,48.6280487804878 56.55487804878049,48.47560975609756 56.55487804878049,48.323170731707314 56.55487804878049,48.170731707317074 56.55487804878049,48.01829268292683 56.5040650406504,47.86585365853659 56.5040650406504,47.764227642276424 56.453252032520325,47.61178861788618 56.40243902439024,47.510162601626014 56.35162601626016,47.40853658536585 56.35162601626016,47.30691056910569 56.30081300813008,47.20528455284553 56.25,47.103658536585364 56.199186991869915,47.0020325203252 56.14837398373984,46.90040650406504 56.09756097560975,46.798780487804876 56.09756097560975,46.697154471544714 56.046747967479675,46.59552845528455 56.046747967479675,46.49390243902439 55.99593495934959,46.392276422764226 55.99593495934959,46.34146341463415 55.94512195121951,46.239837398373986 55.94512195121951,46.13821138211382 55.89430894308943,46.03658536585366 55.89430894308943,45.9349593495935 55.84349593495935,45.78252032520325 55.84349593495935,45.68089430894309 55.792682926829265,45.579268292682926 55.74186991869919,45.47764227642276 55.6910569105691,45.325203252032516 55.6910569105691,45.22357723577235 55.640243902439025,45.12195121951219 55.58943089430894,45.02032520325203 55.53861788617886,44.86788617886179 55.48780487804878,44.8170731707317 55.4369918699187,44.71544715447154 55.386178861788615,44.61382113821138 55.33536585365854,44.5630081300813 55.28455284552845,44.512195121951216" fill="none" stroke="black" stroke-width="0.6"></polyline><polyline points="55.28455284552845,44.512195121951216 55.233739837398375,44.41056910569105 55.18292682926829,44.359756097560975 55.13211382113821,44.25813008130081 55.08130081300813,44.20731707317073 55.03048780487805,44.105691056910565 54.92886178861789,44.05487804878049 54.8780487804878,43.953252032520325 54.827235772357724,43.85162601626016 54.72560975609756,43.80081300813008 54.67479674796748,43.699186991869915 54.6239837398374,43.64837398373984 54.573170731707314,43.59756097560975 54.47154471544715,43.546747967479675 54.420731707317074,43.44512195121951 54.36991869918699,43.39430894308943 54.26829268292683,43.34349593495935 54.21747967479675,43.292682926829265 54.11585365853659,43.24186991869919 54.014227642276424,43.1910569105691 53.96341463414634,43.08943089430894 53.86178861788618,43.03861788617886 53.760162601626014,42.98780487804878 53.709349593495936,42.9369918699187 53.65853658536585,42.886178861788615 53.55691056910569,42.83536585365854 53.50609756097561,42.78455284552845 53.45528455284553,42.733739837398375 53.353658536585364,42.68292682926829 53.302845528455286,42.68292682926829 53.201219512195124,42.63211382113821 53.09959349593496,42.58130081300813 53.048780487804876,42.53048780487805 52.947154471544714,42.53048780487805 52.896341463414636,42.479674796747965 52.79471544715447,42.42886178861789 52.74390243902439,42.42886178861789 52.642276422764226,42.3780487804878 52.59146341463415,42.3780487804878 52.540650406504064,42.327235772357724 52.4390243902439,42.327235772357724 52.38821138211382,42.27642276422764 52.33739837398374,42.27642276422764 52.235772357723576,42.22560975609756 52.1849593495935,42.22560975609756 52.083333333333336,42.22560975609756 52.03252032520325,42.17479674796748 51.93089430894309,42.17479674796748 51.880081300813,42.1239837398374 51.77845528455284,42.1239837398374 51.67682926829268,42.1239837398374" fill="none" stroke="black" stroke-width="0.6"></polyline><polyline points="51.67682926829268,42.1239837398374 51.575203252032516,42.073170731707314 51.47357723577235,42.073170731707314 51.37195121951219,42.073170731707314 51.27032520325203,42.073170731707314 51.168699186991866,42.073170731707314 51.0670731707317,42.02235772357724 51.016260162601625,42.02235772357724 50.91463414634146,41.97154471544715 50.8130081300813,41.97154471544715 50.71138211382114,41.920731707317074 50.55894308943089,41.86991869918699 50.45731707317073,41.86991869918699 50.355691056910565,41.81910569105691 50.203252032520325,41.76829268292683 50.10162601626016,41.76829268292683 49.949186991869915,41.71747967479675 49.796747967479675,41.71747967479675 49.64430894308943,41.666666666666664 49.4410569105691,41.666666666666664 49.28861788617886,41.666666666666664 49.136178861788615,41.61585365853659 48.93292682926829,41.61585365853659 48.78048780487805,41.61585365853659 48.577235772357724,41.61585365853659 48.3739837398374,41.61585365853659 48.22154471544715,41.61585365853659 48.06910569105691,41.666666666666664 47.86585365853659,41.666666666666664 47.71341463414634,41.71747967479675 47.5609756097561,41.71747967479675 47.40853658536585,41.76829268292683 47.30691056910569,41.76829268292683 47.15447154471545,41.76829268292683 47.0020325203252,41.81910569105691 46.90040650406504,41.81910569105691 46.798780487804876,41.86991869918699 46.646341463414636,41.86991869918699 46.54471544715447,41.86991869918699 46.44308943089431,41.920731707317074 46.34146341463415,41.920731707317074 46.239837398373986,41.920731707317074 46.1890243902439,41.97154471544715 46.08739837398374,41.97154471544715 45.985772357723576,41.97154471544715 45.9349593495935,42.02235772357724 45.833333333333336,42.02235772357724 45.78252032520325,42.073170731707314 45.73170731707317,42.073170731707314 45.63008130081301,42.1239837398374 45.579268292682926,42.1239837398374" fill="none" stroke="black" stroke-width="0.6"></polyline><polyline points="45.579268292682926,42.1239837398374 45.47764227642276,42.17479674796748 45.42682926829268,42.17479674796748 45.3760162601626,42.22560975609756 45.325203252032516,42.22560975609756 45.22357723577235,42.27642276422764 45.172764227642276,42.327235772357724 45.12195121951219,42.327235772357724 45.07113821138211,42.3780487804878 45.02032520325203,42.42886178861789 44.918699186991866,42.479674796747965 44.86788617886179,42.53048780487805 44.8170731707317,42.58130081300813 44.71544715447154,42.63211382113821 44.66463414634146,42.68292682926829 44.61382113821138,42.733739837398375 44.512195121951216,42.83536585365854 44.46138211382114,42.886178861788615 44.359756097560975,42.9369918699187 44.30894308943089,43.03861788617886 44.20731707317073,43.08943089430894 44.105691056910565,43.1910569105691 44.05487804878049,43.24186991869919 43.953252032520325,43.292682926829265 43.85162601626016,43.34349593495935 43.80081300813008,43.39430894308943 43.699186991869915,43.44512195121951 43.64837398373984,43.49593495934959 43.546747967479675,43.546747967479675 43.44512195121951,43.59756097560975 43.39430894308943,43.699186991869915 43.292682926829265,43.75 43.24186991869919,43.80081300813008 43.140243902439025,43.90243902439024 43.08943089430894,43.953252032520325 42.98780487804878,44.0040650406504 42.9369918699187,44.105691056910565 42.83536585365854,44.15650406504065 42.78455284552845,44.20731707317073 42.733739837398375,44.30894308943089 42.68292682926829,44.359756097560975 42.63211382113821,44.41056910569105 42.58130081300813,44.46138211382114 42.53048780487805,44.5630081300813 42.479674796747965,44.61382113821138 42.42886178861789,44.66463414634146 42.3780487804878,44.71544715447154 42.327235772357724,44.766260162601625 42.27642276422764,44.86788617886179 42.22560975609756,44.918699186991866 42.17479674796748,45.02032520325203" fill="none" stroke="black" stroke-width="0.6"></polyline><polyline points="42.17479674796748,45.02032520325203 42.1239837398374,45.12195121951219 42.02235772357724,45.27439024390244 41.920731707317074,45.3760162601626 41.81910569105691,45.579268292682926 41.71747967479675,45.78252032520325 41.61585365853659,45.9349593495935 41.46341463414634,46.13821138211382 41.36178861788618,46.290650406504064 41.260162601626014,46.49390243902439 41.107723577235774,46.646341463414636 40.95528455284553,46.84959349593496 40.853658536585364,47.052845528455286 40.701219512195124,47.20528455284553 40.59959349593496,47.40853658536585 40.4979674796748,47.5609756097561 40.396341463414636,47.71341463414634 40.29471544715447,47.86585365853659 40.24390243902439,48.06910569105691 40.142276422764226,48.22154471544715 40.040650406504064,48.42479674796748 39.989837398373986,48.577235772357724 39.9390243902439,48.78048780487805 39.83739837398374,48.93292682926829 39.78658536585366,49.136178861788615 39.735772357723576,49.28861788617886 39.63414634146341,49.49186991869919 39.583333333333336,49.64430894308943 39.53252032520325,49.796747967479675 39.48170731707317,49.949186991869915 39.43089430894309,50.10162601626016 39.38008130081301,50.2540650406504 39.38008130081301,50.40650406504065 39.329268292682926,50.50813008130081 39.329268292682926,50.66056910569105 39.27845528455285,50.8130081300813 39.27845528455285,50.91463414634146 39.27845528455285,51.0670731707317 39.22764227642276,51.21951219512195 39.22764227642276,51.32113821138211 39.22764227642276,51.47357723577235 39.22764227642276,51.575203252032516 39.22764227642276,51.72764227642276 39.27845528455285,51.93089430894309 39.27845528455285,52.083333333333336 39.329268292682926,52.28658536585366 39.329268292682926,52.489837398373986 39.38008130081301,52.69308943089431 39.38008130081301,52.84552845528455 39.43089430894309,53.048780487804876 39.48170731707317,53.201219512195124" fill="none" stroke="black" stroke-width="0.6"></polyline><polyline points="39.48170731707317,53.201219512195124 39.53252032520325,53.353658536585364 39.53252032520325,53.50609756097561 39.583333333333336,53.607723577235774 39.63414634146341,53.760162601626014 39.6849593495935,53.91260162601626 39.6849593495935,54.0650406504065 39.735772357723576,54.166666666666664 39.78658536585366,54.31910569105691 39.83739837398374,54.47154471544715 39.88821138211382,54.6239837398374 39.989837398373986,54.77642276422764 40.040650406504064,54.92886178861789 40.09146341463415,55.08130081300813 40.19308943089431,55.233739837398375 40.29471544715447,55.33536585365854 40.34552845528455,55.48780487804878 40.447154471544714,55.640243902439025 40.4979674796748,55.74186991869919 40.59959349593496,55.84349593495935 40.701219512195124,55.99593495934959 40.7520325203252,56.09756097560975 40.853658536585364,56.199186991869915 40.95528455284553,56.30081300813008 41.00609756097561,56.453252032520325 41.107723577235774,56.55487804878049 41.15853658536585,56.65650406504065 41.260162601626014,56.75813008130081 41.36178861788618,56.859756097560975 41.46341463414634,56.96138211382114 41.5650406504065,57.0630081300813 41.61585365853659,57.16463414634146 41.71747967479675,57.266260162601625 41.81910569105691,57.36788617886179 41.86991869918699,57.52032520325203 41.97154471544715,57.62195121951219 42.02235772357724,57.72357723577235 42.1239837398374,57.825203252032516 42.22560975609756,57.92682926829268 42.327235772357724,57.97764227642276 42.3780487804878,58.079268292682926 42.479674796747965,58.130081300813 42.53048780487805,58.231707317073166 42.58130081300813,58.28252032520325 42.68292682926829,58.33333333333333 42.733739837398375,58.38414634146341 42.78455284552845,58.485772357723576 42.886178861788615,58.536585365853654 42.9369918699187,58.58739837398374 42.98780487804878,58.63821138211382 43.08943089430894,58.739837398373986" fill="none" stroke="black" stroke-width="0.6"></polyline><polyline points="43.08943089430894,58.739837398373986 43.140243902439025,58.790650406504064 43.24186991869919,58.84146341463415 43.292682926829265,58.94308943089431 43.39430894308943,58.99390243902439 43.49593495934959,59.09552845528455 43.546747967479675,59.197154471544714 43.64837398373984,59.2479674796748 43.75,59.34959349593496 43.85162601626016,59.40040650406504 43.953252032520325,59.5020325203252 44.05487804878049,59.552845528455286 44.15650406504065,59.65447154471545 44.30894308943089,59.70528455284553 44.41056910569105,59.75609756097561 44.5630081300813,59.857723577235774 44.66463414634146,59.90853658536585 44.8170731707317,59.959349593495936 44.918699186991866,59.959349593495936 45.02032520325203,60.010162601626014 45.12195121951219,60.0609756097561 45.22357723577235,60.0609756097561 45.325203252032516,60.11178861788618 45.42682926829268,60.16260162601626 45.47764227642276,60.16260162601626 45.579268292682926,60.21341463414634 45.68089430894309,60.264227642276424 45.73170731707317,60.3150406504065 45.833333333333336,60.3150406504065 45.9349593495935,60.36585365853659 45.985772357723576,60.416666666666664 46.08739837398374,60.46747967479675 46.1890243902439,60.51829268292683 46.290650406504064,60.56910569105691 46.392276422764226,60.56910569105691 46.49390243902439,60.61991869918699 46.54471544715447,60.670731707317074 46.646341463414636,60.670731707317074 46.7479674796748,60.72154471544715 46.84959349593496,60.77235772357724 46.951219512195124,60.77235772357724 47.052845528455286,60.823170731707314 47.15447154471545,60.8739837398374 47.25609756097561,60.92479674796748 47.357723577235774,60.92479674796748 47.459349593495936,60.97560975609756 47.5609756097561,61.02642276422764 47.66260162601626,61.077235772357724 47.764227642276424,61.077235772357724 47.86585365853659,61.1280487804878 47.96747967479675,61.17886178861789" fill="none" stroke="black" stroke-width="0.6"></polyline><polyline points="47.96747967479675,61.17886178861789 48.01829268292683,61.229674796747965 48.11991869918699,61.229674796747965 48.22154471544715,61.28048780487805 48.323170731707314,61.33130081300813 48.42479674796748,61.38211382113821 48.52642276422764,61.43292682926829 48.6280487804878,61.483739837398375 48.67886178861789,61.53455284552845 48.83130081300813,61.58536585365854 48.88211382113821,61.58536585365854 48.983739837398375,61.636178861788615 49.08536585365854,61.636178861788615 49.136178861788615,61.6869918699187 49.23780487804878,61.6869918699187 49.28861788617886,61.73780487804878 49.390243902439025,61.73780487804878 49.4410569105691,61.73780487804878 49.49186991869919,61.78861788617886 49.59349593495935,61.78861788617886 49.64430894308943,61.78861788617886 49.74593495934959,61.83943089430894 49.84756097560975,61.83943089430894 49.89837398373984,61.890243902439025 50,61.890243902439025 50.10162601626016,61.9410569105691 50.203252032520325,61.9410569105691 50.30487804878049,61.99186991869919 50.40650406504065,61.99186991869919 50.50813008130081,61.99186991869919 50.609756097560975,62.042682926829265 50.71138211382114,62.042682926829265 50.8130081300813,62.042682926829265 50.91463414634146,62.042682926829265 50.96544715447154,62.042682926829265 51.0670731707317,62.042682926829265 51.168699186991866,62.042682926829265 51.27032520325203,62.09349593495935 51.37195121951219,62.09349593495935 51.47357723577235,62.09349593495935 51.575203252032516,62.09349593495935 51.67682926829268,62.09349593495935 51.77845528455284,62.09349593495935 51.880081300813,62.09349593495935 52.03252032520325,62.09349593495935 52.13414634146341,62.09349593495935 52.235772357723576,62.042682926829265 52.33739837398374,62.042682926829265 52.4390243902439,62.042682926829265 52.540650406504064,62.042682926829265 52.642276422764226,61.99186991869919" fill="none" stroke="black" stroke-width="0.6"></polyline><polyline points="52.642276422764226,61.99186991869919 52.74390243902439,61.99186991869919 52.79471544715447,61.99186991869919 52.947154471544714,61.9410569105691 52.9979674796748,61.9410569105691 53.09959349593496,61.9410569105691 53.201219512195124,61.890243902439025 53.302845528455286,61.83943089430894 53.45528455284553,61.83943089430894 53.55691056910569,61.78861788617886 53.65853658536585,61.73780487804878 53.760162601626014,61.6869918699187 53.91260162601626,61.636178861788615 54.014227642276424,61.58536585365854 54.166666666666664,61.53455284552845 54.31910569105691,61.483739837398375 54.47154471544715,61.38211382113821 54.6239837398374,61.28048780487805 54.77642276422764,61.229674796747965 54.92886178861789,61.1280487804878 55.08130081300813,61.02642276422764 55.233739837398375,60.92479674796748 55.386178861788615,60.823170731707314 55.48780487804878,60.77235772357724 55.53861788617886,60.72154471544715 55.640243902439025,60.670731707317074 55.74186991869919,60.61991869918699 55.89430894308943,60.51829268292683 55.99593495934959,60.46747967479675 56.09756097560975,60.416666666666664 56.199186991869915,60.36585365853659 56.30081300813008,60.3150406504065 56.35162601626016,60.264227642276424 56.453252032520325,60.21341463414634 56.55487804878049,60.16260162601626 56.605691056910565,60.11178861788618 56.70731707317073,60.010162601626014 56.80894308943089,59.959349593495936 56.859756097560975,59.90853658536585 56.96138211382114,59.857723577235774 57.11382113821138,59.75609756097561 57.21544715447154,59.70528455284553 57.266260162601625,59.65447154471545 57.3170731707317,59.603658536585364 57.418699186991866,59.603658536585364 57.46951219512195,59.552845528455286 57.57113821138211,59.5020325203252 57.72357723577235,59.40040650406504 57.825203252032516,59.298780487804876 57.92682926829268,59.2479674796748 57.97764227642276,59.197154471544714" fill="none" stroke="black" stroke-width="0.6"></polyline><polyline points="57.97764227642276,59.197154471544714 58.079268292682926,59.197154471544714 58.130081300813,59.146341463414636 58.18089430894309,59.09552845528455 58.28252032520325,59.04471544715447 58.38414634146341,58.99390243902439 58.485772357723576,58.892276422764226 58.58739837398374,58.84146341463415 58.6890243902439,58.790650406504064 58.790650406504064,58.6890243902439 58.94308943089431,58.58739837398374 59.04471544715447,58.485772357723576 59.146341463414636,58.38414634146341 59.2479674796748,58.28252032520325 59.298780487804876,58.231707317073166 59.34959349593496,58.18089430894309 59.451219512195124,58.079268292682926 59.552845528455286,57.97764227642276 59.65447154471545,57.8760162601626 59.75609756097561,57.77439024390244 59.857723577235774,57.672764227642276 59.959349593495936,57.57113821138211 60.0609756097561,57.46951219512195 60.16260162601626,57.36788617886179 60.264227642276424,57.266260162601625 60.36585365853659,57.16463414634146 60.46747967479675,57.0630081300813 60.56910569105691,56.96138211382114 60.670731707317074,56.80894308943089 60.72154471544715,56.70731707317073 60.823170731707314,56.55487804878049 60.92479674796748,56.453252032520325 60.97560975609756,56.30081300813008 61.077235772357724,56.14837398373984 61.17886178861789,55.99593495934959 61.28048780487805,55.84349593495935 61.38211382113821,55.640243902439025 61.43292682926829,55.48780487804878 61.53455284552845,55.33536585365854 61.636178861788615,55.13211382113821 61.6869918699187,54.92886178861789 61.78861788617886,54.77642276422764 61.83943089430894,54.6239837398374 61.9410569105691,54.420731707317074 61.99186991869919,54.26829268292683 62.042682926829265,54.11585365853659 62.09349593495935,54.014227642276424 62.14430894308943,53.86178861788618 62.19512195121951,53.709349593495936 62.19512195121951,53.607723577235774 62.24593495934959,53.50609756097561" fill="none" stroke="black" stroke-width="0.6"></polyline><polyline points="62.24593495934959,53.50609756097561 62.296747967479675,53.353658536585364 62.34756097560975,53.201219512195124 62.39837398373984,53.09959349593496 62.449186991869915,52.947154471544714 62.449186991869915,52.84552845528455 62.5,52.74390243902439 62.55081300813008,52.642276422764226 62.55081300813008,52.540650406504064 62.60162601626016,52.4390243902439 62.65243902439024,52.28658536585366 62.65243902439024,52.1849593495935 62.703252032520325,52.083333333333336 62.7540650406504,51.981707317073166 62.7540650406504,51.93089430894309 62.80487804878049,51.829268292682926 62.80487804878049,51.72764227642276 62.855691056910565,51.6260162601626 62.90650406504065,51.52439024390244 62.90650406504065,51.422764227642276 62.95731707317073,51.32113821138211 63.00813008130081,51.21951219512195 63.00813008130081,51.0670731707317 63.05894308943089,50.96544715447154 63.05894308943089,50.91463414634146 63.109756097560975,50.762195121951216 63.109756097560975,50.71138211382114 63.16056910569105,50.55894308943089 63.16056910569105,50.45731707317073 63.21138211382114,50.355691056910565 63.21138211382114,50.2540650406504 63.21138211382114,50.10162601626016 63.262195121951216,49.949186991869915 63.262195121951216,49.84756097560975 63.262195121951216,49.69512195121951 63.3130081300813,49.59349593495935 63.3130081300813,49.4410569105691 63.3130081300813,49.28861788617886 63.36382113821138,49.1869918699187 63.36382113821138,49.03455284552845 63.36382113821138,48.93292682926829 63.36382113821138,48.78048780487805 63.36382113821138,48.577235772357724 63.41463414634146,48.42479674796748 63.41463414634146,48.323170731707314 63.41463414634146,48.11991869918699 63.41463414634146,48.01829268292683 63.41463414634146,47.86585365853659 63.36382113821138,47.71341463414634 63.36382113821138,47.5609756097561 63.3130081300813,47.40853658536585" fill="none" stroke="black" stroke-width="0.6"></polyline><polyline points="63.3130081300813,47.40853658536585 63.3130081300813,47.25609756097561 63.262195121951216,47.103658536585364 63.21138211382114,46.90040650406504 63.21138211382114,46.7479674796748 63.16056910569105,46.59552845528455 63.109756097560975,46.44308943089431 63.05894308943089,46.290650406504064 63.00813008130081,46.13821138211382 62.95731707317073,45.985772357723576 62.90650406504065,45.833333333333336 62.855691056910565,45.68089430894309 62.80487804878049,45.52845528455285 62.703252032520325,45.3760162601626 62.65243902439024,45.22357723577235 62.60162601626016,45.07113821138211 62.5,44.86788617886179 62.449186991869915,44.766260162601625 62.39837398373984,44.61382113821138 62.296747967479675,44.512195121951216 62.24593495934959,44.41056910569105 62.14430894308943,44.25813008130081 62.09349593495935,44.15650406504065 62.042682926829265,44.0040650406504 61.9410569105691,43.85162601626016 61.890243902439025,43.699186991869915 61.83943089430894,43.59756097560975 61.73780487804878,43.49593495934959 61.6869918699187,43.39430894308943 61.636178861788615,43.292682926829265 61.58536585365854,43.1910569105691 61.483739837398375,43.140243902439025 61.43292682926829,43.03861788617886 61.38211382113821,42.9369918699187 61.28048780487805,42.886178861788615 61.229674796747965,42.78455284552845 61.17886178861789,42.733739837398375 61.077235772357724,42.63211382113821 61.077235772357724,42.58130081300813 61.02642276422764,42.479674796747965 60.97560975609756,42.42886178861789 60.92479674796748,42.3780487804878 60.92479674796748,42.327235772357724 60.92479674796748,42.327235772357724 60.8739837398374,42.27642276422764 60.8739837398374,42.22560975609756 60.8739837398374,42.17479674796748 60.8739837398374,42.1239837398374 60.8739837398374,42.1239837398374 60.823170731707314,42.073170731707314 60.823170731707314,42.02235772357724" fill="none" stroke="black" stroke-width="0.6"></polyline><polyline points="60.823170731707314,42.02235772357724 60.823170731707314,41.97154471544715 60.823170731707314,41.920731707317074 60.823170731707314,41.86991869918699 60.823170731707314,41.81910569105691 60.77235772357724,41.76829268292683 60.77235772357724,41.666666666666664 60.77235772357724,41.61585365853659 60.72154471544715,41.5650406504065 60.72154471544715,41.514227642276424 60.72154471544715,41.41260162601626 60.670731707317074,41.36178861788618 60.670731707317074,41.260162601626014 60.61991869918699,41.209349593495936 60.61991869918699,41.107723577235774 60.61991869918699,41.00609756097561 60.56910569105691,40.90447154471545 60.56910569105691,40.802845528455286 60.51829268292683,40.701219512195124 60.51829268292683,40.59959349593496 60.51829268292683,40.548780487804876 60.46747967479675,40.4979674796748 60.46747967479675,40.396341463414636 60.46747967479675,40.29471544715447 60.46747967479675,40.24390243902439 60.46747967479675,40.142276422764226 60.46747967479675,40.09146341463415 60.416666666666664,39.989837398373986 60.416666666666664,39.88821138211382 60.416666666666664,39.83739837398374 60.416666666666664,39.78658536585366 60.36585365853659,39.6849593495935 60.36585365853659,39.63414634146341 60.36585365853659,39.63414634146341 60.3150406504065,39.583333333333336 60.3150406504065,39.53252032520325 60.3150406504065,39.48170731707317 60.264227642276424,39.43089430894309 60.264227642276424,39.38008130081301 60.21341463414634,39.38008130081301 60.16260162601626,39.329268292682926 60.16260162601626,39.27845528455285 60.11178861788618,39.22764227642276 60.0609756097561,39.176829268292686 60.010162601626014,39.176829268292686 59.959349593495936,39.1260162601626 59.90853658536585,39.1260162601626 59.90853658536585,39.07520325203252 59.857723577235774,39.02439024390244 59.80691056910569,38.97357723577235 59.75609756097561,38.97357723577235" fill="none" stroke="black" stroke-width="0.6"></polyline><polyline points="59.75609756097561,38.97357723577235 59.70528455284553,38.922764227642276 59.65447154471545,38.87195121951219 59.552845528455286,38.87195121951219 59.5020325203252,38.82113821138211 59.451219512195124,38.77032520325203 59.40040650406504,38.77032520325203 59.298780487804876,38.71951219512195 59.2479674796748,38.668699186991866 59.146341463414636,38.61788617886179 59.09552845528455,38.5670731707317 58.99390243902439,38.516260162601625 58.892276422764226,38.46544715447154 58.84146341463415,38.46544715447154 58.739837398373986,38.41463414634146 58.63821138211382,38.36382113821138 58.536585365853654,38.3130081300813 58.43495934959349,38.262195121951216 58.38414634146341,38.21138211382114 58.28252032520325,38.16056910569105 58.18089430894309,38.109756097560975 58.079268292682926,38.05894308943089 57.97764227642276,38.00813008130081 57.8760162601626,37.95731707317073 57.825203252032516,37.90650406504065 57.72357723577235,37.80487804878049 57.62195121951219,37.7540650406504 57.57113821138211,37.703252032520325 57.46951219512195,37.65243902439024 57.36788617886179,37.60162601626016 57.3170731707317,37.55081300813008 57.21544715447154,37.5 57.16463414634146,37.449186991869915 57.0630081300813,37.39837398373984 57.012195121951216,37.296747967479675 56.91056910569105,37.296747967479675 56.859756097560975,37.19512195121951 56.75813008130081,37.14430894308943 56.65650406504065,37.14430894308943 56.605691056910565,37.09349593495935 56.5040650406504,37.042682926829265 56.40243902439024,36.99186991869919 56.35162601626016,36.9410569105691 56.25,36.890243902439025 56.14837398373984,36.83943089430894 56.046747967479675,36.78861788617886 55.94512195121951,36.73780487804878 55.89430894308943,36.6869918699187 55.792682926829265,36.636178861788615 55.640243902439025,36.58536585365854 55.53861788617886,36.53455284552845" fill="none" stroke="black" stroke-width="0.6"></polyline><polyline points="55.53861788617886,36.53455284552845 55.4369918699187,36.53455284552845 55.33536585365854,36.43292682926829 55.233739837398375,36.43292682926829 55.13211382113821,36.38211382113821 55.03048780487805,36.33130081300813 54.92886178861789,36.28048780487805 54.827235772357724,36.229674796747965 54.67479674796748,36.17886178861789 54.573170731707314,36.1280487804878 54.47154471544715,36.077235772357724 54.36991869918699,36.077235772357724 54.21747967479675,36.02642276422764 54.11585365853659,36.02642276422764 53.96341463414634,35.97560975609756 53.86178861788618,35.97560975609756 53.760162601626014,35.97560975609756 53.607723577235774,35.92479674796748 53.45528455284553,35.92479674796748 53.353658536585364,35.8739837398374 53.201219512195124,35.8739837398374 53.048780487804876,35.823170731707314 52.947154471544714,35.823170731707314 52.79471544715447,35.77235772357724 52.69308943089431,35.77235772357724 52.540650406504064,35.72154471544715 52.38821138211382,35.670731707317074 52.28658536585366,35.670731707317074 52.1849593495935,35.670731707317074 52.03252032520325,35.61991869918699 51.93089430894309,35.56910569105691 51.77845528455284,35.56910569105691 51.67682926829268,35.51829268292683 51.52439024390244,35.46747967479675 51.422764227642276,35.46747967479675 51.27032520325203,35.416666666666664 51.168699186991866,35.416666666666664 51.016260162601625,35.416666666666664 50.86382113821138,35.36585365853659 50.762195121951216,35.36585365853659 50.66056910569105,35.36585365853659 50.50813008130081,35.3150406504065 50.355691056910565,35.3150406504065 50.2540650406504,35.3150406504065 50.10162601626016,35.264227642276424 50,35.264227642276424 49.84756097560975,35.264227642276424 49.69512195121951,35.21341463414634 49.59349593495935,35.21341463414634 49.4410569105691,35.21341463414634 49.33943089430894,35.21341463414634" fill="none" stroke="black" stroke-width="0.6"></polyline><polyline points="49.33943089430894,35.21341463414634 49.1869918699187,35.16260162601626 49.08536585365854,35.16260162601626 48.93292682926829,35.16260162601626 48.83130081300813,35.16260162601626 48.67886178861789,35.16260162601626 48.577235772357724,35.16260162601626 48.42479674796748,35.16260162601626 48.27235772357724,35.11178861788618 48.170731707317074,35.11178861788618 48.01829268292683,35.11178861788618 47.86585365853659,35.11178861788618 47.764227642276424,35.11178861788618 47.61178861788618,35.11178861788618 47.459349593495936,35.11178861788618 47.357723577235774,35.11178861788618 47.20528455284553,35.11178861788618 47.052845528455286,35.11178861788618 46.951219512195124,35.11178861788618 46.798780487804876,35.11178861788618 46.646341463414636,35.11178861788618 46.49390243902439,35.11178861788618 46.34146341463415,35.11178861788618 46.1890243902439,35.11178861788618 46.03658536585366,35.11178861788618 45.88414634146341,35.16260162601626 45.68089430894309,35.16260162601626 45.52845528455285,35.16260162601626 45.3760162601626,35.16260162601626 45.172764227642276,35.21341463414634 44.96951219512195,35.264227642276424 44.8170731707317,35.3150406504065 44.61382113821138,35.3150406504065 44.41056910569105,35.36585365853659 44.25813008130081,35.416666666666664 44.05487804878049,35.46747967479675 43.90243902439024,35.51829268292683 43.699186991869915,35.56910569105691 43.546747967479675,35.56910569105691 43.39430894308943,35.61991869918699 43.24186991869919,35.670731707317074 43.03861788617886,35.72154471544715 42.886178861788615,35.77235772357724 42.733739837398375,35.8739837398374 42.53048780487805,35.92479674796748 42.3780487804878,35.97560975609756 42.27642276422764,36.02642276422764 42.1239837398374,36.077235772357724 41.97154471544715,36.1280487804878 41.81910569105691,36.229674796747965 41.71747967479675,36.28048780487805" fill="none" stroke="black" stroke-width="0.6"></polyline><polyline points="41.71747967479675,36.28048780487805 41.5650406504065,36.38211382113821 41.46341463414634,36.43292682926829 41.3109756097561,36.53455284552845 41.209349593495936,36.58536585365854 41.05691056910569,36.6869918699187 40.95528455284553,36.78861788617886 40.853658536585364,36.890243902439025 40.7520325203252,36.99186991869919 40.65040650406504,37.09349593495935 40.548780487804876,37.14430894308943 40.447154471544714,37.24593495934959 40.29471544715447,37.34756097560975 40.24390243902439,37.449186991869915 40.09146341463415,37.55081300813008 39.989837398373986,37.65243902439024 39.88821138211382,37.7540650406504 39.78658536585366,37.855691056910565 39.6849593495935,37.95731707317073 39.63414634146341,38.05894308943089 39.53252032520325,38.16056910569105 39.43089430894309,38.21138211382114 39.38008130081301,38.3130081300813 39.27845528455285,38.36382113821138 39.176829268292686,38.46544715447154 39.07520325203252,38.5670731707317 38.97357723577235,38.668699186991866 38.922764227642276,38.71951219512195 38.82113821138211,38.87195121951219 38.71951219512195,38.97357723577235 38.5670731707317,39.07520325203252 38.46544715447154,39.22764227642276 38.36382113821138,39.38008130081301 38.262195121951216,39.48170731707317 38.16056910569105,39.63414634146341 38.00813008130081,39.78658536585366 37.90650406504065,39.88821138211382 37.7540650406504,40.040650406504064 37.65243902439024,40.19308943089431 37.5,40.29471544715447 37.39837398373984,40.447154471544714 37.24593495934959,40.59959349593496 37.14430894308943,40.701219512195124 36.99186991869919,40.802845528455286 36.890243902439025,40.90447154471545 36.83943089430894,41.00609756097561 36.73780487804878,41.107723577235774 36.636178861788615,41.260162601626014 36.58536585365854,41.3109756097561 36.483739837398375,41.41260162601626 36.43292682926829,41.514227642276424" fill="none" stroke="black" stroke-width="0.6"></polyline><polyline points="36.43292682926829,41.514227642276424 36.38211382113821,41.61585365853659 36.28048780487805,41.71747967479675 36.229674796747965,41.81910569105691 36.17886178861789,41.86991869918699 36.1280487804878,41.97154471544715 36.077235772357724,42.073170731707314 36.02642276422764,42.17479674796748 35.97560975609756,42.27642276422764 35.92479674796748,42.3780487804878 35.8739837398374,42.479674796747965 35.823170731707314,42.58130081300813 35.77235772357724,42.68292682926829 35.72154471544715,42.78455284552845 35.670731707317074,42.886178861788615 35.61991869918699,43.03861788617886 35.56910569105691,43.140243902439025 35.46747967479675,43.24186991869919 35.416666666666664,43.39430894308943 35.36585365853659,43.49593495934959 35.264227642276424,43.64837398373984 35.21341463414634,43.75 35.16260162601626,43.90243902439024 35.0609756097561,44.0040650406504 35.010162601626014,44.15650406504065 34.959349593495936,44.25813008130081 34.90853658536585,44.359756097560975 34.857723577235774,44.46138211382114 34.80691056910569,44.5630081300813 34.75609756097561,44.61382113821138 34.70528455284553,44.71544715447154 34.65447154471545,44.766260162601625 34.65447154471545,44.86788617886179 34.603658536585364,44.918699186991866 34.552845528455286,45.02032520325203 34.5020325203252,45.12195121951219 34.5020325203252,45.22357723577235 34.451219512195124,45.325203252032516 34.40040650406504,45.42682926829268 34.34959349593496,45.47764227642276 34.298780487804876,45.579268292682926 34.2479674796748,45.68089430894309 34.2479674796748,45.78252032520325 34.197154471544714,45.88414634146341 34.146341463414636,45.985772357723576 34.09552845528455,46.03658536585366 34.04471544715447,46.13821138211382 34.04471544715447,46.239837398373986 33.99390243902439,46.34146341463415 33.94308943089431,46.392276422764226 33.94308943089431,46.54471544715447" fill="none" stroke="black" stroke-width="0.6"></polyline><polyline points="33.94308943089431,46.54471544715447 33.892276422764226,46.646341463414636 33.84146341463415,46.798780487804876 33.790650406504064,46.951219512195124 33.739837398373986,47.103658536585364 33.6890243902439,47.25609756097561 33.63821138211382,47.40853658536585 33.58739837398374,47.61178861788618 33.53658536585366,47.764227642276424 33.485772357723576,47.96747967479675 33.485772357723576,48.170731707317074 33.4349593495935,48.323170731707314 33.38414634146341,48.577235772357724 33.333333333333336,48.78048780487805 33.28252032520325,48.983739837398375 33.18089430894309,49.23780487804878 33.13008130081301,49.49186991869919 33.079268292682926,49.74593495934959 33.02845528455285,50 32.97764227642276,50.203252032520325 32.97764227642276,50.40650406504065 32.926829268292686,50.609756097560975 32.926829268292686,50.8130081300813 32.926829268292686,50.96544715447154 32.8760162601626,51.168699186991866 32.8760162601626,51.32113821138211 32.8760162601626,51.52439024390244 32.8760162601626,51.72764227642276 32.8760162601626,51.93089430894309 32.8760162601626,52.13414634146341 32.926829268292686,52.33739837398374 32.97764227642276,52.489837398373986 33.02845528455285,52.69308943089431 33.02845528455285,52.896341463414636 33.079268292682926,53.09959349593496 33.13008130081301,53.302845528455286 33.18089430894309,53.50609756097561 33.18089430894309,53.65853658536585 33.23170731707317,53.86178861788618 33.28252032520325,54.014227642276424 33.28252032520325,54.166666666666664 33.333333333333336,54.36991869918699 33.38414634146341,54.52235772357724 33.4349593495935,54.67479674796748 33.485772357723576,54.8780487804878 33.53658536585366,55.08130081300813 33.58739837398374,55.28455284552845 33.63821138211382,55.48780487804878 33.6890243902439,55.6910569105691 33.790650406504064,55.89430894308943 33.84146341463415,56.09756097560975" fill="none" stroke="black" stroke-width="0.6"></polyline><polyline points="33.84146341463415,56.09756097560975 33.94308943089431,56.25 33.99390243902439,56.40243902439024 34.09552845528455,56.55487804878049 34.146341463414636,56.65650406504065 34.2479674796748,56.80894308943089 34.298780487804876,56.96138211382114 34.40040650406504,57.11382113821138 34.451219512195124,57.266260162601625 34.552845528455286,57.46951219512195 34.603658536585364,57.62195121951219 34.65447154471545,57.72357723577235 34.75609756097561,57.8760162601626 34.80691056910569,57.97764227642276 34.857723577235774,58.079268292682926 34.959349593495936,58.231707317073166 35.010162601626014,58.33333333333333 35.0609756097561,58.485772357723576 35.11178861788618,58.58739837398374 35.21341463414634,58.6890243902439 35.264227642276424,58.790650406504064 35.3150406504065,58.892276422764226 35.36585365853659,58.99390243902439 35.416666666666664,59.146341463414636 35.51829268292683,59.2479674796748 35.56910569105691,59.40040650406504 35.61991869918699,59.5020325203252 35.72154471544715,59.603658536585364 35.77235772357724,59.65447154471545 35.823170731707314,59.75609756097561 35.8739837398374,59.857723577235774 35.97560975609756,59.959349593495936 36.02642276422764,60.0609756097561 36.1280487804878,60.16260162601626 36.17886178861789,60.264227642276424 36.28048780487805,60.36585365853659 36.33130081300813,60.51829268292683 36.43292682926829,60.61991869918699 36.483739837398375,60.77235772357724 36.53455284552845,60.92479674796748 36.636178861788615,61.02642276422764 36.6869918699187,61.1280487804878 36.73780487804878,61.28048780487805 36.83943089430894,61.38211382113821 36.890243902439025,61.483739837398375 36.99186991869919,61.58536585365854 37.042682926829265,61.636178861788615 37.09349593495935,61.73780487804878 37.19512195121951,61.83943089430894 37.24593495934959,61.9410569105691 37.34756097560975,61.99186991869919" fill="none" stroke="black" stroke-width="0.6"></polyline><polyline points="37.34756097560975,61.99186991869919 37.449186991869915,62.14430894308943 37.5,62.24593495934959 37.60162601626016,62.34756097560975 37.703252032520325,62.449186991869915 37.7540650406504,62.55081300813008 37.855691056910565,62.65243902439024 37.95731707317073,62.7540650406504 38.05894308943089,62.855691056910565 38.16056910569105,62.95731707317073 38.262195121951216,63.05894308943089 38.36382113821138,63.16056910569105 38.46544715447154,63.262195121951216 38.5670731707317,63.41463414634146 38.668699186991866,63.516260162601625 38.77032520325203,63.61788617886179 38.87195121951219,63.71951219512195 38.97357723577235,63.82113821138211 39.07520325203252,63.922764227642276 39.176829268292686,64.02439024390243 39.22764227642276,64.1260162601626 39.329268292682926,64.22764227642276 39.43089430894309,64.27845528455285 39.48170731707317,64.380081300813 39.583333333333336,64.48170731707317 39.6849593495935,64.53252032520325 39.735772357723576,64.58333333333333 39.83739837398374,64.6341463414634 39.9390243902439,64.6849593495935 39.989837398373986,64.73577235772358 40.09146341463415,64.83739837398373 40.19308943089431,64.88821138211382 40.24390243902439,64.9390243902439 40.34552845528455,64.98983739837398 40.447154471544714,65.04065040650406 40.4979674796748,65.09146341463415 40.59959349593496,65.1930894308943 40.701219512195124,65.2439024390244 40.7520325203252,65.2439024390244 40.853658536585364,65.29471544715447 40.95528455284553,65.34552845528455 41.00609756097561,65.39634146341463 41.107723577235774,65.44715447154472 41.209349593495936,65.4979674796748 41.3109756097561,65.54878048780488 41.41260162601626,65.59959349593495 41.514227642276424,65.65040650406505 41.61585365853659,65.65040650406505 41.71747967479675,65.70121951219512 41.76829268292683,65.7520325203252 41.86991869918699,65.80284552845528" fill="none" stroke="black" stroke-width="0.6"></polyline><polyline points="41.86991869918699,65.80284552845528 41.97154471544715,65.85365853658537 42.073170731707314,65.85365853658537 42.1239837398374,65.90447154471545 42.17479674796748,65.90447154471545 42.327235772357724,65.95528455284553 42.42886178861789,66.0060975609756 42.58130081300813,66.0569105691057 42.68292682926829,66.10772357723577 42.83536585365854,66.15853658536585 42.9369918699187,66.20934959349593 43.03861788617886,66.26016260162602 43.140243902439025,66.3109756097561 43.24186991869919,66.36178861788618 43.39430894308943,66.41260162601625 43.49593495934959,66.46341463414635 43.59756097560975,66.51422764227642 43.699186991869915,66.5650406504065 43.80081300813008,66.61585365853658 43.90243902439024,66.66666666666667 44.0040650406504,66.71747967479675 44.105691056910565,66.76829268292683 44.20731707317073,66.8191056910569 44.359756097560975,66.92073170731707 44.46138211382114,66.97154471544715 44.5630081300813,67.02235772357723 44.66463414634146,67.07317073170732 44.766260162601625,67.1239837398374 44.86788617886179,67.17479674796748 44.918699186991866,67.22560975609755 45.02032520325203,67.22560975609755 45.07113821138211,67.27642276422765 45.172764227642276,67.27642276422765 45.22357723577235,67.32723577235772 45.325203252032516,67.3780487804878 45.42682926829268,67.42886178861788 45.47764227642276,67.47967479674797 45.579268292682926,67.53048780487805 45.68089430894309,67.58130081300813 45.78252032520325,67.6321138211382 45.88414634146341,67.73373983739837 45.985772357723576,67.78455284552845 46.08739837398374,67.83536585365853 46.1890243902439,67.88617886178862 46.290650406504064,67.88617886178862 46.392276422764226,67.9369918699187 46.49390243902439,67.98780487804878 46.59552845528455,67.98780487804878 46.646341463414636,68.03861788617886 46.7479674796748,68.03861788617886 46.84959349593496,68.08943089430895" fill="none" stroke="black" stroke-width="0.6"></polyline><polyline points="46.84959349593496,68.08943089430895 46.951219512195124,68.08943089430895 47.052845528455286,68.14024390243902 47.15447154471545,68.14024390243902 47.30691056910569,68.1910569105691 47.40853658536585,68.24186991869918 47.510162601626014,68.29268292682927 47.66260162601626,68.29268292682927 47.8150406504065,68.34349593495935 47.916666666666664,68.39430894308943 48.06910569105691,68.4451219512195 48.22154471544715,68.4451219512195 48.323170731707314,68.4959349593496 48.47560975609756,68.4959349593496 48.577235772357724,68.54674796747967 48.729674796747965,68.54674796747967 48.83130081300813,68.54674796747967 48.983739837398375,68.59756097560975 49.136178861788615,68.59756097560975 49.23780487804878,68.59756097560975 49.390243902439025,68.64837398373983 49.542682926829265,68.64837398373983 49.64430894308943,68.69918699186992 49.796747967479675,68.69918699186992 49.949186991869915,68.75 50.05081300813008,68.80081300813008 50.203252032520325,68.80081300813008 50.355691056910565,68.85162601626016 50.50813008130081,68.90243902439025 50.66056910569105,68.90243902439025 50.8130081300813,68.95325203252033 50.96544715447154,69.0040650406504 51.168699186991866,69.0040650406504 51.32113821138211,69.05487804878048 51.52439024390244,69.05487804878048 51.72764227642276,69.10569105691057 51.981707317073166,69.10569105691057 52.1849593495935,69.15650406504065 52.38821138211382,69.15650406504065 52.59146341463415,69.15650406504065 52.79471544715447,69.15650406504065 52.9979674796748,69.10569105691057 53.201219512195124,69.10569105691057 53.40447154471545,69.05487804878048 53.607723577235774,69.0040650406504 53.8109756097561,68.95325203252033 54.014227642276424,68.90243902439025 54.21747967479675,68.85162601626016 54.420731707317074,68.80081300813008 54.6239837398374,68.75 54.827235772357724,68.69918699186992" fill="none" stroke="black" stroke-width="0.6"></polyline><polyline points="54.827235772357724,68.69918699186992 54.979674796747965,68.64837398373983 55.18292682926829,68.59756097560975 55.386178861788615,68.4959349593496 55.58943089430894,68.4451219512195 55.792682926829265,68.39430894308943 55.99593495934959,68.34349593495935 56.14837398373984,68.29268292682927 56.40243902439024,68.1910569105691 56.55487804878049,68.14024390243902 56.75813008130081,68.03861788617886 56.96138211382114,67.98780487804878 57.11382113821138,67.88617886178862 57.3170731707317,67.83536585365853 57.52032520325203,67.73373983739837 57.672764227642276,67.6829268292683 57.8760162601626,67.58130081300813 58.079268292682926,67.47967479674797 58.231707317073166,67.42886178861788 58.38414634146341,67.32723577235772 58.58739837398374,67.22560975609755 58.739837398373986,67.1239837398374 58.892276422764226,67.07317073170732 59.04471544715447,66.97154471544715 59.146341463414636,66.869918699187 59.298780487804876,66.76829268292683 59.40040650406504,66.66666666666667 59.552845528455286,66.5650406504065 59.65447154471545,66.46341463414635 59.80691056910569,66.36178861788618 59.90853658536585,66.26016260162602 60.0609756097561,66.15853658536585 60.16260162601626,66.0569105691057 60.3150406504065,65.95528455284553 60.416666666666664,65.85365853658537 60.56910569105691,65.70121951219512 60.72154471544715,65.59959349593495 60.8739837398374,65.4979674796748 60.97560975609756,65.34552845528455 61.1280487804878,65.1930894308943 61.28048780487805,65.09146341463415 61.38211382113821,64.9390243902439 61.53455284552845,64.83739837398373 61.6869918699187,64.73577235772358 61.83943089430894,64.58333333333333 61.9410569105691,64.48170731707317 62.09349593495935,64.32926829268293 62.24593495934959,64.17682926829268 62.39837398373984,64.07520325203252 62.55081300813008,63.97357723577235 62.703252032520325,63.82113821138211" fill="none" stroke="black" stroke-width="0.6"></polyline><polyline points="62.703252032520325,63.82113821138211 62.855691056910565,63.71951219512195 63.00813008130081,63.5670731707317 63.16056910569105,63.46544715447154 63.3130081300813,63.3130081300813 63.46544715447154,63.16056910569105 63.61788617886179,63.00813008130081 63.77032520325203,62.855691056910565 63.87195121951219,62.7540650406504 64.02439024390243,62.60162601626016 64.17682926829268,62.5 64.27845528455285,62.34756097560975 64.43089430894308,62.24593495934959 64.53252032520325,62.14430894308943 64.6849593495935,62.042682926829265 64.78658536585365,61.9410569105691 64.88821138211382,61.83943089430894 64.98983739837398,61.73780487804878 65.09146341463415,61.636178861788615 65.1930894308943,61.53455284552845 65.29471544715447,61.43292682926829 65.39634146341463,61.33130081300813 65.4979674796748,61.28048780487805 65.59959349593495,61.17886178861789 65.70121951219512,61.077235772357724 65.80284552845528,60.97560975609756 65.90447154471545,60.8739837398374 66.0060975609756,60.77235772357724 66.10772357723577,60.670731707317074 66.20934959349593,60.56910569105691 66.3109756097561,60.46747967479675 66.41260162601625,60.36585365853659 66.51422764227642,60.21341463414634 66.61585365853658,60.11178861788618 66.71747967479675,59.959349593495936 66.8191056910569,59.80691056910569 66.92073170731707,59.65447154471545 67.02235772357723,59.5020325203252 67.1239837398374,59.34959349593496 67.22560975609755,59.197154471544714 67.32723577235772,59.04471544715447 67.47967479674797,58.84146341463415 67.58130081300813,58.6890243902439 67.6829268292683,58.485772357723576 67.78455284552845,58.231707317073166 67.88617886178862,58.02845528455284 67.98780487804878,57.77439024390244 68.08943089430895,57.57113821138211 68.1910569105691,57.36788617886179 68.29268292682927,57.11382113821138 68.34349593495935,56.91056910569105" fill="none" stroke="black" stroke-width="0.6"></polyline><polyline points="68.34349593495935,56.91056910569105 68.4451219512195,56.70731707317073 68.4959349593496,56.5040650406504 68.59756097560975,56.30081300813008 68.64837398373983,56.14837398373984 68.75,55.99593495934959 68.80081300813008,55.792682926829265 68.85162601626016,55.640243902439025 68.90243902439025,55.4369918699187 68.90243902439025,55.233739837398375 68.95325203252033,55.03048780487805 68.95325203252033,54.827235772357724 68.95325203252033,54.6239837398374 68.95325203252033,54.420731707317074 69.0040650406504,54.26829268292683 69.0040650406504,54.0650406504065 69.0040650406504,53.96341463414634 69.05487804878048,53.8109756097561 69.05487804878048,53.65853658536585 69.05487804878048,53.55691056910569 69.10569105691057,53.40447154471545 69.15650406504065,53.2520325203252 69.15650406504065,53.09959349593496 69.20731707317073,52.947154471544714 69.2581300813008,52.79471544715447 69.2581300813008,52.69308943089431 69.3089430894309,52.59146341463415 69.35975609756098,52.4390243902439 69.35975609756098,52.33739837398374 69.41056910569105,52.1849593495935 69.46138211382113,52.03252032520325 69.46138211382113,51.93089430894309 69.51219512195122,51.72764227642276 69.5630081300813,51.575203252032516 69.61382113821138,51.422764227642276 69.66463414634146,51.27032520325203 69.71544715447155,51.11788617886179 69.71544715447155,51.016260162601625 69.76626016260163,50.86382113821138 69.86788617886178,50.609756097560975 69.91869918699187,50.45731707317073 69.96951219512195,50.30487804878049 70.02032520325203,50.15243902439024 70.0711382113821,50.05081300813008 70.1219512195122,49.89837398373984 70.17276422764228,49.74593495934959 70.17276422764228,49.59349593495935 70.22357723577235,49.4410569105691 70.22357723577235,49.28861788617886 70.27439024390243,49.136178861788615 70.27439024390243,48.983739837398375" fill="none" stroke="black" stroke-width="0.6"></polyline><polyline points="70.27439024390243,48.983739837398375 70.27439024390243,48.83130081300813 70.27439024390243,48.67886178861789 70.32520325203252,48.577235772357724 70.32520325203252,48.42479674796748 70.32520325203252,48.323170731707314 70.32520325203252,48.170731707317074 70.32520325203252,48.01829268292683 70.32520325203252,47.8150406504065 70.32520325203252,47.61178861788618 70.32520325203252,47.40853658536585 70.32520325203252,47.20528455284553 70.32520325203252,47.052845528455286 70.32520325203252,46.90040650406504 70.32520325203252,46.697154471544714 70.32520325203252,46.59552845528455 70.32520325203252,46.44308943089431 70.32520325203252,46.239837398373986 70.32520325203252,46.08739837398374 70.32520325203252,45.88414634146341 70.32520325203252,45.63008130081301 70.32520325203252,45.42682926829268 70.27439024390243,45.22357723577235 70.27439024390243,44.96951219512195 70.22357723577235,44.8170731707317 70.17276422764228,44.61382113821138 70.17276422764228,44.46138211382114 70.1219512195122,44.30894308943089 70.0711382113821,44.15650406504065 70.02032520325203,43.953252032520325 69.96951219512195,43.75 69.91869918699187,43.49593495934959 69.8170731707317,43.24186991869919 69.76626016260163,42.98780487804878 69.66463414634146,42.733739837398375 69.5630081300813,42.479674796747965 69.46138211382113,42.27642276422764 69.41056910569105,42.17479674796748 69.3089430894309,42.02235772357724 69.2581300813008,41.920731707317074 69.15650406504065,41.76829268292683 69.10569105691057,41.5650406504065 69.05487804878048,41.41260162601626 69.0040650406504,41.209349593495936 68.95325203252033,41.00609756097561 68.90243902439025,40.853658536585364 68.85162601626016,40.701219512195124 68.75,40.4979674796748 68.69918699186992,40.396341463414636 68.59756097560975,40.24390243902439 68.4959349593496,40.09146341463415" fill="none" stroke="black" stroke-width="0.6"></polyline><polyline points="68.4959349593496,40.09146341463415 68.39430894308943,39.9390243902439 68.34349593495935,39.78658536585366 68.24186991869918,39.63414634146341 68.1910569105691,39.53252032520325 68.14024390243902,39.43089430894309 68.08943089430895,39.27845528455285 67.98780487804878,39.176829268292686 67.9369918699187,39.07520325203252 67.88617886178862,38.922764227642276 67.83536585365853,38.77032520325203 67.73373983739837,38.61788617886179 67.6829268292683,38.46544715447154 67.6321138211382,38.36382113821138 67.53048780487805,38.21138211382114 67.47967479674797,38.109756097560975 67.42886178861788,38.00813008130081 67.32723577235772,37.855691056910565 67.22560975609755,37.7540650406504 67.17479674796748,37.65243902439024 67.07317073170732,37.5 67.02235772357723,37.39837398373984 66.92073170731707,37.296747967479675 66.8191056910569,37.19512195121951 66.76829268292683,37.042682926829265 66.66666666666667,36.9410569105691 66.5650406504065,36.83943089430894 66.51422764227642,36.73780487804878 66.41260162601625,36.636178861788615 66.36178861788618,36.53455284552845 66.26016260162602,36.43292682926829 66.20934959349593,36.38211382113821 66.10772357723577,36.28048780487805 66.0060975609756,36.17886178861789 65.95528455284553,36.077235772357724 65.85365853658537,35.97560975609756 65.80284552845528,35.92479674796748 65.70121951219512,35.823170731707314 65.59959349593495,35.72154471544715 65.54878048780488,35.61991869918699 65.44715447154472,35.51829268292683 65.34552845528455,35.416666666666664 65.2439024390244,35.36585365853659 65.1930894308943,35.264227642276424 65.09146341463415,35.16260162601626 64.98983739837398,35.0609756097561 64.9390243902439,35.010162601626014 64.83739837398373,34.90853658536585 64.73577235772358,34.80691056910569 64.6341463414634,34.75609756097561 64.53252032520325,34.65447154471545" fill="none" stroke="black" stroke-width="0.6"></polyline><polyline points="64.53252032520325,34.65447154471545 64.48170731707317,34.552845528455286 64.380081300813,34.451219512195124 64.27845528455285,34.34959349593496 64.17682926829268,34.2479674796748 64.07520325203252,34.146341463414636 63.97357723577235,34.04471544715447 63.82113821138211,33.94308943089431 63.71951219512195,33.84146341463415 63.61788617886179,33.739837398373986 63.516260162601625,33.6890243902439 63.36382113821138,33.58739837398374 63.262195121951216,33.485772357723576 63.16056910569105,33.38414634146341 63.05894308943089,33.333333333333336 62.90650406504065,33.23170731707317 62.80487804878049,33.13008130081301 62.703252032520325,33.02845528455285 62.60162601626016,32.926829268292686 62.55081300813008,32.82520325203252 62.449186991869915,32.77439024390244 62.34756097560975,32.672764227642276 62.24593495934959,32.6219512195122 62.09349593495935,32.57113821138211 61.99186991869919,32.46951219512195 61.83943089430894,32.418699186991866 61.73780487804878,32.36788617886179 61.58536585365854,32.3170731707317 61.483739837398375,32.21544715447154 61.33130081300813,32.16463414634146 61.17886178861789,32.0630081300813 61.02642276422764,31.961382113821138 60.8739837398374,31.910569105691057 60.77235772357724,31.808943089430894 60.61991869918699,31.758130081300813 60.46747967479675,31.70731707317073 60.3150406504065,31.60569105691057 60.21341463414634,31.554878048780488 60.0609756097561,31.504065040650406 59.90853658536585,31.453252032520325 59.75609756097561,31.402439024390244 59.603658536585364,31.30081300813008 59.451219512195124,31.25 59.34959349593496,31.19918699186992 59.197154471544714,31.097560975609756 59.04471544715447,31.046747967479675 58.892276422764226,30.995934959349594 58.739837398373986,30.89430894308943 58.63821138211382,30.84349593495935 58.43495934959349,30.79268292682927 58.28252032520325,30.741869918699187" fill="none" stroke="black" stroke-width="0.6"></polyline><polyline points="58.28252032520325,30.741869918699187 58.130081300813,30.691056910569106 57.97764227642276,30.640243902439025 57.77439024390244,30.640243902439025 57.672764227642276,30.589430894308943 57.52032520325203,30.538617886178862 57.36788617886179,30.48780487804878 57.21544715447154,30.4369918699187 57.0630081300813,30.4369918699187 56.91056910569105,30.38617886178862 56.75813008130081,30.38617886178862 56.65650406504065,30.335365853658537 56.55487804878049,30.335365853658537 56.40243902439024,30.284552845528456 56.30081300813008,30.284552845528456 56.14837398373984,30.284552845528456 56.046747967479675,30.233739837398375 55.94512195121951,30.233739837398375 55.89430894308943,30.182926829268293 55.792682926829265,30.132113821138212 55.6910569105691,30.08130081300813 55.58943089430894,30.03048780487805 55.48780487804878,29.979674796747968 55.386178861788615,29.979674796747968 55.28455284552845,29.928861788617887 55.18292682926829,29.878048780487806 55.08130081300813,29.878048780487806 54.979674796747965,29.827235772357724 54.8780487804878,29.827235772357724 54.72560975609756,29.776422764227643 54.6239837398374,29.776422764227643 54.52235772357724,29.725609756097562 54.36991869918699,29.67479674796748 54.26829268292683,29.67479674796748 54.11585365853659,29.6239837398374 54.014227642276424,29.573170731707318 53.86178861788618,29.522357723577237 53.709349593495936,29.471544715447155 53.50609756097561,29.420731707317074 53.353658536585364,29.369918699186993 53.201219512195124,29.31910569105691 53.048780487804876,29.31910569105691 52.84552845528455,29.268292682926827 52.74390243902439,29.217479674796746 52.59146341463415,29.166666666666664 52.4390243902439,29.166666666666664 52.28658536585366,29.115853658536583 52.13414634146341,29.0650406504065 51.981707317073166,29.0650406504065 51.880081300813,29.01422764227642 51.72764227642276,29.01422764227642" fill="none" stroke="black" stroke-width="0.6"></polyline><polyline points="51.72764227642276,29.01422764227642 51.575203252032516,28.96341463414634 51.422764227642276,28.96341463414634 51.32113821138211,28.912601626016258 51.168699186991866,28.912601626016258 51.016260162601625,28.861788617886177 50.91463414634146,28.861788617886177 50.762195121951216,28.810975609756095 50.66056910569105,28.810975609756095 50.55894308943089,28.760162601626014 50.45731707317073,28.760162601626014 50.355691056910565,28.709349593495933 50.2540650406504,28.709349593495933 50.15243902439024,28.65853658536585 50.10162601626016,28.65853658536585 50,28.60772357723577 49.89837398373984,28.60772357723577 49.84756097560975,28.55691056910569 49.74593495934959,28.506097560975608 49.64430894308943,28.506097560975608 49.542682926829265,28.455284552845526 49.4410569105691,28.404471544715445 49.28861788617886,28.353658536585364 49.1869918699187,28.353658536585364 49.03455284552845,28.302845528455283 48.93292682926829,28.302845528455283 48.78048780487805,28.2520325203252 48.6280487804878,28.2520325203252 48.52642276422764,28.2520325203252 48.3739837398374,28.20121951219512 48.27235772357724,28.20121951219512 48.11991869918699,28.20121951219512 48.01829268292683,28.15040650406504 47.86585365853659,28.15040650406504 47.764227642276424,28.15040650406504 47.61178861788618,28.15040650406504 47.510162601626014,28.15040650406504 47.357723577235774,28.15040650406504 47.25609756097561,28.15040650406504 47.103658536585364,28.15040650406504 46.951219512195124,28.15040650406504 46.798780487804876,28.15040650406504 46.646341463414636,28.15040650406504 46.49390243902439,28.20121951219512 46.290650406504064,28.2520325203252 46.13821138211382,28.2520325203252 45.985772357723576,28.302845528455283 45.833333333333336,28.302845528455283 45.68089430894309,28.353658536585364 45.52845528455285,28.353658536585364 45.325203252032516,28.404471544715445" fill="none" stroke="black" stroke-width="0.6"></polyline><polyline points="45.325203252032516,28.404471544715445 45.172764227642276,28.404471544715445 45.02032520325203,28.455284552845526 44.8170731707317,28.506097560975608 44.66463414634146,28.506097560975608 44.512195121951216,28.55691056910569 44.359756097560975,28.60772357723577 44.20731707317073,28.60772357723577 44.05487804878049,28.65853658536585 43.90243902439024,28.709349593495933 43.75,28.709349593495933 43.59756097560975,28.760162601626014 43.44512195121951,28.810975609756095 43.292682926829265,28.861788617886177 43.140243902439025,28.861788617886177 42.98780487804878,28.912601626016258 42.83536585365854,28.96341463414634 42.68292682926829,28.96341463414634 42.53048780487805,29.01422764227642 42.3780487804878,29.01422764227642 42.27642276422764,29.01422764227642 42.1239837398374,29.0650406504065 42.02235772357724,29.0650406504065 41.86991869918699,29.115853658536583 41.76829268292683,29.115853658536583 41.666666666666664,29.166666666666664 41.5650406504065,29.166666666666664 41.46341463414634,29.217479674796746 41.36178861788618,29.217479674796746 41.3109756097561,29.268292682926827 41.209349593495936,29.31910569105691 41.107723577235774,29.31910569105691 41.00609756097561,29.369918699186993 40.90447154471545,29.420731707317074 40.7520325203252,29.420731707317074 40.65040650406504,29.471544715447155 40.4979674796748,29.522357723577237 40.396341463414636,29.573170731707318 40.24390243902439,29.6239837398374 40.142276422764226,29.67479674796748 40.040650406504064,29.725609756097562 39.989837398373986,29.725609756097562 39.83739837398374,29.827235772357724 39.6849593495935,29.878048780487806 39.53252032520325,29.979674796747968 39.38008130081301,30.08130081300813 39.176829268292686,30.182926829268293 39.02439024390244,30.284552845528456 38.87195121951219,30.38617886178862 38.668699186991866,30.48780487804878 38.46544715447154,30.589430894308943" fill="none" stroke="black" stroke-width="0.6"></polyline><polyline points="38.46544715447154,30.589430894308943 38.3130081300813,30.691056910569106 38.05894308943089,30.79268292682927 37.90650406504065,30.89430894308943 37.703252032520325,30.995934959349594 37.449186991869915,31.097560975609756 37.39837398373984,31.19918699186992 37.296747967479675,31.25 37.19512195121951,31.30081300813008 37.09349593495935,31.351626016260163 36.890243902439025,31.453252032520325 36.6869918699187,31.554878048780488 36.483739837398375,31.65650406504065 36.28048780487805,31.808943089430894 36.077235772357724,31.910569105691057 35.8739837398374,32.012195121951216 35.670731707317074,32.16463414634146 35.51829268292683,32.266260162601625 35.3150406504065,32.418699186991866 35.11178861788618,32.52032520325203 34.959349593495936,32.672764227642276 34.80691056910569,32.77439024390244 34.603658536585364,32.926829268292686 34.451219512195124,33.079268292682926 34.298780487804876,33.23170731707317 34.09552845528455,33.38414634146341 33.94308943089431,33.485772357723576 33.790650406504064,33.63821138211382 33.58739837398374,33.84146341463415 33.4349593495935,33.94308943089431 33.28252032520325,34.09552845528455 33.18089430894309,34.2479674796748 33.02845528455285,34.34959349593496 32.926829268292686,34.5020325203252 32.82520325203252,34.65447154471545 32.72357723577236,34.80691056910569 32.57113821138211,34.90853658536585 32.46951219512195,35.0609756097561 32.3170731707317,35.21341463414634 32.16463414634146,35.36585365853659 32.0630081300813,35.56910569105691 31.910569105691057,35.72154471544715 31.758130081300813,35.8739837398374 31.65650406504065,36.02642276422764 31.554878048780488,36.1280487804878 31.453252032520325,36.33130081300813 31.351626016260163,36.43292682926829 31.25,36.636178861788615 31.097560975609756,36.83943089430894 30.995934959349594,37.042682926829265 30.89430894308943,37.19512195121951" fill="none" stroke="black" stroke-width="0.6"></polyline><polyline points="30.89430894308943,37.19512195121951 30.79268292682927,37.449186991869915 30.691056910569106,37.65243902439024 30.589430894308943,37.80487804878049 30.48780487804878,38.00813008130081 30.4369918699187,38.109756097560975 30.38617886178862,38.21138211382114 30.284552845528456,38.36382113821138 30.233739837398375,38.46544715447154 30.182926829268293,38.516260162601625 30.08130081300813,38.668699186991866 29.979674796747968,38.82113821138211 29.878048780487806,39.02439024390244 29.776422764227643,39.22764227642276 29.6239837398374,39.38008130081301 29.522357723577237,39.583333333333336 29.420731707317074,39.78658536585366 29.31910569105691,39.989837398373986 29.166666666666664,40.19308943089431 29.0650406504065,40.396341463414636 28.912601626016258,40.59959349593496 28.810975609756095,40.802845528455286 28.709349593495933,40.95528455284553 28.60772357723577,41.107723577235774 28.506097560975608,41.3109756097561 28.404471544715445,41.46341463414634 28.302845528455283,41.61585365853659 28.20121951219512,41.81910569105691 28.099593495934958,41.97154471544715 27.997967479674795,42.17479674796748 27.896341463414632,42.327235772357724 27.79471544715447,42.53048780487805 27.693089430894307,42.68292682926829 27.591463414634145,42.886178861788615 27.540650406504064,43.03861788617886 27.4390243902439,43.1910569105691 27.33739837398374,43.44512195121951 27.286585365853657,43.59756097560975 27.184959349593495,43.80081300813008 27.134146341463413,44.0040650406504 27.083333333333332,44.15650406504065 27.03252032520325,44.30894308943089 26.98170731707317,44.46138211382114 26.93089430894309,44.5630081300813 26.880081300813007,44.71544715447154 26.829268292682926,44.86788617886179 26.829268292682926,45.02032520325203 26.778455284552845,45.172764227642276 26.727642276422763,45.325203252032516 26.727642276422763,45.47764227642276 26.676829268292682,45.68089430894309" fill="none" stroke="black" stroke-width="0.6"></polyline><polyline points="26.676829268292682,45.68089430894309 26.676829268292682,45.88414634146341 26.6260162601626,46.03658536585366 26.6260162601626,46.239837398373986 26.57520325203252,46.392276422764226 26.57520325203252,46.54471544715447 26.57520325203252,46.697154471544714 26.524390243902438,46.84959349593496 26.524390243902438,47.0020325203252 26.473577235772357,47.103658536585364 26.473577235772357,47.25609756097561 26.473577235772357,47.40853658536585 26.473577235772357,47.61178861788618 26.422764227642276,47.764227642276424 26.422764227642276,47.96747967479675 26.422764227642276,48.170731707317074 26.422764227642276,48.323170731707314 26.422764227642276,48.52642276422764 26.371951219512194,48.729674796747965 26.371951219512194,48.88211382113821 26.371951219512194,49.03455284552845 26.371951219512194,49.1869918699187 26.371951219512194,49.33943089430894 26.371951219512194,49.4410569105691 26.321138211382113,49.59349593495935 26.321138211382113,49.74593495934959 26.321138211382113,49.84756097560975 26.270325203252032,50 26.270325203252032,50.10162601626016 26.270325203252032,50.2540650406504 26.270325203252032,50.40650406504065 26.270325203252032,50.50813008130081 26.270325203252032,50.609756097560975 26.270325203252032,50.762195121951216 26.270325203252032,50.86382113821138 26.270325203252032,51.016260162601625 26.270325203252032,51.11788617886179 26.270325203252032,51.27032520325203 26.270325203252032,51.422764227642276 26.270325203252032,51.6260162601626 26.270325203252032,51.77845528455284 26.321138211382113,51.981707317073166 26.321138211382113,52.1849593495935 26.321138211382113,52.38821138211382 26.371951219512194,52.59146341463415 26.371951219512194,52.79471544715447 26.371951219512194,52.9979674796748 26.371951219512194,53.201219512195124 26.371951219512194,53.40447154471545 26.371951219512194,53.607723577235774 26.371951219512194,53.8109756097561" fill="none" stroke="black" stroke-width="0.6"></polyline><polyline points="26.371951219512194,53.8109756097561 26.422764227642276,54.014227642276424 26.422764227642276,54.166666666666664 26.422764227642276,54.36991869918699 26.422764227642276,54.52235772357724 26.473577235772357,54.67479674796748 26.473577235772357,54.8780487804878 26.473577235772357,55.03048780487805 26.524390243902438,55.18292682926829 26.57520325203252,55.386178861788615 26.57520325203252,55.53861788617886 26.6260162601626,55.6910569105691 26.676829268292682,55.84349593495935 26.727642276422763,55.99593495934959 26.778455284552845,56.14837398373984 26.829268292682926,56.30081300813008 26.93089430894309,56.453252032520325 26.93089430894309,56.55487804878049 27.03252032520325,56.70731707317073 27.083333333333332,56.859756097560975 27.134146341463413,57.012195121951216 27.235772357723576,57.21544715447154 27.286585365853657,57.418699186991866 27.38821138211382,57.62195121951219 27.489837398373982,57.825203252032516 27.591463414634145,58.130081300813 27.693089430894307,58.33333333333333 27.74390243902439,58.485772357723576 27.79471544715447,58.58739837398374 27.896341463414632,58.84146341463415 27.997967479674795,59.09552845528455 28.099593495934958,59.34959349593496 28.2520325203252,59.552845528455286 28.353658536585364,59.75609756097561 28.455284552845526,60.010162601626014 28.60772357723577,60.21341463414634 28.709349593495933,60.416666666666664 28.861788617886177,60.670731707317074 28.96341463414634,60.8739837398374 29.0650406504065,61.1280487804878 29.217479674796746,61.38211382113821 29.369918699186993,61.58536585365854 29.471544715447155,61.78861788617886 29.6239837398374,61.99186991869919 29.725609756097562,62.14430894308943 29.878048780487806,62.34756097560975 29.979674796747968,62.55081300813008 30.132113821138212,62.703252032520325 30.233739837398375,62.855691056910565 30.335365853658537,63.00813008130081 30.335365853658537,63.109756097560975" fill="none" stroke="black" stroke-width="0.6"></polyline><polyline points="30.335365853658537,63.109756097560975 30.38617886178862,63.16056910569105 30.4369918699187,63.262195121951216 30.538617886178862,63.41463414634146 30.640243902439025,63.5670731707317 30.691056910569106,63.668699186991866 30.741869918699187,63.77032520325203 30.84349593495935,63.87195121951219 30.89430894308943,63.97357723577235 30.945121951219512,64.02439024390243 30.945121951219512,64.07520325203252 31.046747967479675,64.17682926829268 31.046747967479675,64.22764227642276 31.097560975609756,64.27845528455285 31.097560975609756,64.32926829268293 31.148373983739837,64.380081300813 31.19918699186992,64.43089430894308 31.19918699186992,64.48170731707317 31.30081300813008,64.53252032520325 31.351626016260163,64.6341463414634 31.402439024390244,64.73577235772358 31.504065040650406,64.83739837398373 31.554878048780488,64.9390243902439 31.65650406504065,64.98983739837398 31.70731707317073,65.09146341463415 31.808943089430894,65.1930894308943 31.910569105691057,65.34552845528455 32.012195121951216,65.44715447154472 32.11382113821138,65.54878048780488 32.21544715447154,65.65040650406505 32.3170731707317,65.80284552845528 32.418699186991866,65.90447154471545 32.52032520325203,66.0569105691057 32.672764227642276,66.20934959349593 32.77439024390244,66.3109756097561 32.8760162601626,66.46341463414635 33.02845528455285,66.61585365853658 33.13008130081301,66.76829268292683 33.4349593495935,67.02235772357723 33.58739837398374,67.17479674796748 33.739837398373986,67.27642276422765 33.892276422764226,67.3780487804878 33.99390243902439,67.53048780487805 34.146341463414636,67.6321138211382 34.2479674796748,67.73373983739837 34.40040650406504,67.88617886178862 34.552845528455286,67.98780487804878 34.70528455284553,68.08943089430895 34.80691056910569,68.1910569105691 34.959349593495936,68.29268292682927 35.11178861788618,68.39430894308943" fill="none" stroke="black" stroke-width="0.6"></polyline><polyline points="35.11178861788618,68.39430894308943 35.264227642276424,68.54674796747967 35.416666666666664,68.64837398373983 35.56910569105691,68.75 35.72154471544715,68.85162601626016 35.823170731707314,68.95325203252033 35.97560975609756,69.05487804878048 36.077235772357724,69.15650406504065 36.17886178861789,69.2581300813008 36.28048780487805,69.35975609756098 36.38211382113821,69.46138211382113 36.53455284552845,69.5630081300813 36.636178861788615,69.66463414634146 36.73780487804878,69.76626016260163 36.83943089430894,69.86788617886178 36.9410569105691,69.96951219512195 37.042682926829265,70.02032520325203 37.14430894308943,70.1219512195122 37.296747967479675,70.22357723577235 37.39837398373984,70.27439024390243 37.5,70.3760162601626 37.60162601626016,70.47764227642276 37.703252032520325,70.57926829268293 37.855691056910565,70.68089430894308 37.95731707317073,70.78252032520325 38.05894308943089,70.83333333333333 38.16056910569105,70.9349593495935 38.3130081300813,71.03658536585365 38.41463414634146,71.08739837398373 38.516260162601625,71.1890243902439 38.61788617886179,71.23983739837398 38.71951219512195,71.34146341463415 38.82113821138211,71.39227642276423 38.922764227642276,71.49390243902438 39.02439024390244,71.54471544715447 39.1260162601626,71.59552845528455 39.22764227642276,71.69715447154472 39.329268292682926,71.7479674796748 39.43089430894309,71.79878048780488 39.53252032520325,71.84959349593495 39.6849593495935,71.95121951219512 39.78658536585366,72.0020325203252 39.9390243902439,72.10365853658537 40.040650406504064,72.15447154471545 40.142276422764226,72.2560975609756 40.29471544715447,72.3069105691057 40.396341463414636,72.35772357723577 40.548780487804876,72.40853658536585 40.65040650406504,72.51016260162602 40.802845528455286,72.5609756097561 40.90447154471545,72.61178861788618" fill="none" stroke="black" stroke-width="0.6"></polyline><polyline points="40.90447154471545,72.61178861788618 41.05691056910569,72.66260162601625 41.15853658536585,72.71341463414635 41.3109756097561,72.76422764227642 41.41260162601626,72.86585365853658 41.5650406504065,72.91666666666667 41.666666666666664,72.96747967479675 41.81910569105691,73.01829268292683 41.97154471544715,73.0691056910569 42.073170731707314,73.17073170731707 42.22560975609756,73.22154471544715 42.3780487804878,73.27235772357723 42.53048780487805,73.32317073170732 42.68292682926829,73.42479674796748 42.83536585365854,73.42479674796748 42.9369918699187,73.47560975609755 43.08943089430894,73.52642276422765 43.24186991869919,73.57723577235772 43.34349593495935,73.57723577235772 43.49593495934959,73.6280487804878 43.59756097560975,73.67886178861788 43.75,73.72967479674797 43.90243902439024,73.78048780487805 44.05487804878049,73.83130081300813 44.20731707317073,73.8821138211382 44.359756097560975,73.8821138211382 44.5630081300813,73.9329268292683 44.71544715447154,73.98373983739837 44.86788617886179,73.98373983739837 45.07113821138211,74.03455284552845 45.22357723577235,74.08536585365853 45.3760162601626,74.08536585365853 45.52845528455285,74.13617886178862 45.68089430894309,74.1869918699187 45.78252032520325,74.23780487804878 45.9349593495935,74.28861788617886 46.08739837398374,74.33943089430895 46.239837398373986,74.33943089430895 46.392276422764226,74.39024390243902 46.54471544715447,74.39024390243902 46.697154471544714,74.4410569105691 46.84959349593496,74.4410569105691 47.052845528455286,74.4410569105691 47.20528455284553,74.49186991869918 47.40853658536585,74.49186991869918 47.61178861788618,74.54268292682927 47.8150406504065,74.54268292682927 48.01829268292683,74.59349593495935 48.22154471544715,74.64430894308943 48.42479674796748,74.64430894308943 48.6280487804878,74.6951219512195" fill="none" stroke="black" stroke-width="0.6"></polyline><polyline points="48.6280487804878,74.6951219512195 48.83130081300813,74.6951219512195 49.03455284552845,74.6951219512195 49.23780487804878,74.7459349593496 49.4410569105691,74.7459349593496 49.59349593495935,74.7459349593496 49.796747967479675,74.7459349593496 49.949186991869915,74.79674796747967 50.15243902439024,74.79674796747967 50.30487804878049,74.79674796747967 50.50813008130081,74.79674796747967 50.66056910569105,74.84756097560975 50.8130081300813,74.84756097560975 50.96544715447154,74.84756097560975 51.11788617886179,74.84756097560975 51.32113821138211,74.84756097560975 51.47357723577235,74.84756097560975 51.6260162601626,74.84756097560975 51.77845528455284,74.84756097560975 51.981707317073166,74.84756097560975 52.13414634146341,74.84756097560975 52.28658536585366,74.84756097560975 52.489837398373986,74.84756097560975 52.642276422764226,74.84756097560975 52.84552845528455,74.84756097560975 53.048780487804876,74.84756097560975 53.201219512195124,74.79674796747967 53.40447154471545,74.79674796747967 53.607723577235774,74.79674796747967 53.8109756097561,74.79674796747967 54.0650406504065,74.7459349593496 54.26829268292683,74.7459349593496 54.52235772357724,74.7459349593496 54.72560975609756,74.6951219512195 54.979674796747965,74.64430894308943 55.18292682926829,74.59349593495935 55.4369918699187,74.54268292682927 55.74186991869919,74.49186991869918 55.99593495934959,74.39024390243902 56.25,74.33943089430895 56.5040650406504,74.23780487804878 56.75813008130081,74.1869918699187 57.0630081300813,74.08536585365853 57.3170731707317,73.98373983739837 57.57113821138211,73.9329268292683 57.8760162601626,73.83130081300813 58.130081300813,73.72967479674797 58.33333333333333,73.6280487804878 58.63821138211382,73.47560975609755 58.84146341463415,73.3739837398374 59.09552845528455,73.27235772357723" fill="none" stroke="black" stroke-width="0.6"></polyline><polyline points="59.09552845528455,73.27235772357723 59.298780487804876,73.17073170731707 59.5020325203252,73.01829268292683 59.75609756097561,72.96747967479675 59.959349593495936,72.8150406504065 60.16260162601626,72.76422764227642 60.36585365853659,72.66260162601625 60.56910569105691,72.5609756097561 60.77235772357724,72.45934959349593 60.92479674796748,72.40853658536585 61.1280487804878,72.3069105691057 61.33130081300813,72.20528455284553 61.483739837398375,72.10365853658537 61.6869918699187,72.0020325203252 61.890243902439025,71.90040650406505 62.042682926829265,71.79878048780488 62.24593495934959,71.69715447154472 62.39837398373984,71.59552845528455 62.60162601626016,71.54471544715447 62.80487804878049,71.4430894308943 62.95731707317073,71.34146341463415 63.16056910569105,71.23983739837398 63.36382113821138,71.13821138211382 63.5670731707317,71.03658536585365 63.71951219512195,70.9349593495935 63.97357723577235,70.78252032520325 64.17682926829268,70.68089430894308 64.380081300813,70.52845528455285 64.58333333333333,70.3760162601626 64.78658536585365,70.27439024390243 65.04065040650406,70.1219512195122 65.2439024390244,70.02032520325203 65.4979674796748,69.86788617886178 65.70121951219512,69.76626016260163 65.95528455284553,69.61382113821138 66.15853658536585,69.51219512195122 66.41260162601625,69.35975609756098 66.66666666666667,69.2581300813008 66.869918699187,69.10569105691057 67.07317073170732,68.95325203252033 67.27642276422765,68.80081300813008 67.47967479674797,68.69918699186992 67.6321138211382,68.54674796747967 67.83536585365853,68.39430894308943 67.98780487804878,68.29268292682927 68.14024390243902,68.14024390243902 68.29268292682927,68.03861788617886 68.4451219512195,67.88617886178862 68.54674796747967,67.78455284552845 68.69918699186992,67.6321138211382 68.80081300813008,67.47967479674797" fill="none" stroke="black" stroke-width="0.6"></polyline><polyline points="68.80081300813008,67.47967479674797 68.90243902439025,67.3780487804878 69.0040650406504,67.22560975609755 69.05487804878048,67.17479674796748 69.15650406504065,67.07317073170732 69.20731707317073,67.02235772357723 69.3089430894309,66.97154471544715 69.35975609756098,66.869918699187 69.41056910569105,66.8191056910569 69.46138211382113,66.76829268292683 69.51219512195122,66.71747967479675 69.5630081300813,66.66666666666667 69.5630081300813,66.61585365853658 69.61382113821138,66.5650406504065 69.66463414634146,66.51422764227642 69.71544715447155,66.46341463414635 69.76626016260163,66.41260162601625 69.8170731707317,66.3109756097561 69.86788617886178,66.26016260162602 69.96951219512195,66.20934959349593 70.02032520325203,66.10772357723577 70.0711382113821,66.0569105691057 70.1219512195122,65.95528455284553 70.17276422764228,65.90447154471545 70.27439024390243,65.85365853658537 70.32520325203252,65.7520325203252 70.3760162601626,65.70121951219512 70.47764227642276,65.65040650406505 70.52845528455285,65.54878048780488 70.630081300813,65.4979674796748 70.73170731707317,65.39634146341463 70.78252032520325,65.29471544715447 70.8841463414634,65.1930894308943 70.9349593495935,65.09146341463415 71.03658536585365,64.98983739837398 71.13821138211382,64.88821138211382 71.23983739837398,64.78658536585365 71.34146341463415,64.6849593495935 71.39227642276423,64.58333333333333 71.49390243902438,64.53252032520325 71.64634146341463,64.43089430894308 71.7479674796748,64.32926829268293 71.84959349593495,64.22764227642276 72.0020325203252,64.07520325203252 72.10365853658537,63.97357723577235 72.20528455284553,63.82113821138211 72.35772357723577,63.668699186991866 72.45934959349593,63.516260162601625 72.5609756097561,63.36382113821138 72.71341463414635,63.21138211382114 72.8150406504065,63.05894308943089" fill="none" stroke="black" stroke-width="0.6"></polyline><polyline points="72.8150406504065,63.05894308943089 72.91666666666667,62.90650406504065 73.01829268292683,62.7540650406504 73.119918699187,62.65243902439024 73.27235772357723,62.5 73.3739837398374,62.34756097560975 73.47560975609755,62.24593495934959 73.57723577235772,62.09349593495935 73.67886178861788,61.890243902439025 73.78048780487805,61.73780487804878 73.8821138211382,61.53455284552845 73.98373983739837,61.33130081300813 74.08536585365853,61.1280487804878 74.13617886178862,60.97560975609756 74.23780487804878,60.823170731707314 74.28861788617886,60.670731707317074 74.39024390243902,60.56910569105691 74.4410569105691,60.416666666666664 74.49186991869918,60.3150406504065 74.59349593495935,60.11178861788618 74.64430894308943,59.959349593495936 74.6951219512195,59.75609756097561 74.79674796747967,59.603658536585364 74.84756097560975,59.34959349593496 74.89837398373983,59.146341463414636 74.94918699186992,58.94308943089431 74.94918699186992,58.790650406504064 75,58.63821138211382 75.05081300813008,58.485772357723576 75.05081300813008,58.33333333333333 75.10162601626016,58.18089430894309 75.15243902439025,58.02845528455284 75.20325203252033,57.825203252032516 75.2540650406504,57.672764227642276 75.30487804878048,57.52032520325203 75.35569105691057,57.36788617886179 75.40650406504065,57.266260162601625 75.45731707317073,57.11382113821138 75.5081300813008,57.012195121951216 75.5081300813008,56.859756097560975 75.5589430894309,56.70731707317073 75.60975609756098,56.605691056910565 75.66056910569105,56.453252032520325 75.71138211382113,56.35162601626016 75.76219512195122,56.199186991869915 75.8130081300813,56.09756097560975 75.8130081300813,55.99593495934959 75.86382113821138,55.89430894308943 75.91463414634146,55.792682926829265 75.96544715447155,55.6910569105691 75.96544715447155,55.58943089430894" fill="none" stroke="black" stroke-width="0.6"></polyline><polyline points="75.96544715447155,55.58943089430894 76.01626016260163,55.48780487804878 76.0670731707317,55.33536585365854 76.11788617886178,55.233739837398375 76.11788617886178,55.08130081300813 76.16869918699187,54.979674796747965 76.21951219512195,54.827235772357724 76.21951219512195,54.67479674796748 76.27032520325203,54.47154471544715 76.27032520325203,54.31910569105691 76.3211382113821,54.166666666666664 76.3719512195122,53.96341463414634 76.3719512195122,53.8109756097561 76.42276422764228,53.65853658536585 76.42276422764228,53.50609756097561 76.47357723577235,53.40447154471545 76.47357723577235,53.2520325203252 76.52439024390243,53.09959349593496 76.57520325203252,52.9979674796748 76.57520325203252,52.84552845528455 76.6260162601626,52.69308943089431 76.67682926829268,52.59146341463415 76.67682926829268,52.4390243902439 76.72764227642276,52.28658536585366 76.72764227642276,52.13414634146341 76.72764227642276,51.981707317073166 76.72764227642276,51.829268292682926 76.72764227642276,51.67682926829268 76.72764227642276,51.575203252032516 76.72764227642276,51.422764227642276 76.72764227642276,51.32113821138211 76.72764227642276,51.21951219512195 76.72764227642276,51.11788617886179 76.72764227642276,51.016260162601625 76.72764227642276,50.96544715447154 76.72764227642276,50.86382113821138 76.77845528455285,50.762195121951216 76.77845528455285,50.71138211382114 76.77845528455285,50.66056910569105 76.77845528455285,50.66056910569105 76.77845528455285,50.609756097560975 76.77845528455285,50.609756097560975 76.77845528455285,50.609756097560975 76.77845528455285,50.609756097560975 76.77845528455285,50.609756097560975 76.77845528455285,50.609756097560975 76.77845528455285,50.609756097560975 76.77845528455285,50.609756097560975 76.77845528455285,50.609756097560975 76.77845528455285,50.55894308943089 76.82926829268293,50.55894308943089" fill="none" stroke="black" stroke-width="0.6"></polyline><polyline points="76.82926829268293,50.55894308943089 76.82926829268293,50.50813008130081 76.82926829268293,50.50813008130081 76.82926829268293,50.45731707317073 76.82926829268293,50.45731707317073 76.880081300813,50.40650406504065 76.93089430894308,50.355691056910565 76.98170731707317,50.2540650406504 77.08333333333333,50.10162601626016 77.28658536585365,49.84756097560975" fill="none" stroke="black" stroke-width="0.6"></polyline></svg>