<svg height="100" width="100" preserveAspectRatio="xMidYMid meet"><polyline points="35.264227642276424,16.36178861788618 35.264227642276424,16.36178861788618 35.264227642276424,16.36178861788618 35.264227642276424,16.36178861788618 35.264227642276424,16.36178861788618 35.264227642276424,16.36178861788618 35.3150406504065,16.36178861788618 35.36585365853659,16.36178861788618 35.416666666666664,16.36178861788618 35.51829268292683,16.36178861788618 35.61991869918699,16.36178861788618 35.72154471544715,16.41260162601626 35.8739837398374,16.41260162601626 36.077235772357724,16.463414634146343 36.33130081300813,16.463414634146343 36.58536585365854,16.514227642276424 36.890243902439025,16.514227642276424 37.296747967479675,16.463414634146343 37.7540650406504,16.3109756097561 38.262195121951216,16.05691056910569 38.77032520325203,15.752032520325203 39.27845528455285,15.294715447154472 39.78658536585366,14.786585365853659 40.29471544715447,14.176829268292682 40.7520325203252,13.617886178861788 41.260162601626014,13.058943089430894 41.76829268292683,12.398373983739837 42.1239837398374,11.890243902439025 42.479674796747965,11.382113821138212 42.83536585365854,10.823170731707316 43.140243902439025,10.213414634146341 43.49593495934959,9.502032520325203 43.75,8.892276422764228 43.953252032520325,8.384146341463415 44.105691056910565,7.876016260162602 44.15650406504065,7.469512195121951 44.15650406504065,7.113821138211382 44.15650406504065,6.7073170731707314 44.05487804878049,6.3516260162601625 43.953252032520325,5.945121951219512 43.85162601626016,5.48780487804878 43.75,5.08130081300813 43.64837398373984,4.725609756097561 43.59756097560975,4.471544715447155 43.49593495934959,4.2682926829268295 43.44512195121951,4.166666666666667 43.39430894308943,4.0650406504065035 43.292682926829265,4.014227642276422 43.24186991869919,4.014227642276422 43.140243902439025,4.014227642276422 43.08943089430894,4.014227642276422" fill="none" stroke="black" stroke-width="0.6"></polyline><polyline points="43.08943089430894,4.014227642276422 43.03861788617886,4.0650406504065035 42.9369918699187,4.166666666666667 42.78455284552845,4.369918699186992 42.63211382113821,4.725609756097561 42.42886178861789,5.233739837398374 42.17479674796748,5.7926829268292686 41.97154471544715,6.402439024390244 41.76829268292683,7.0630081300813 41.5650406504065,7.82520325203252 41.41260162601626,8.536585365853659 41.260162601626014,9.298780487804878 41.107723577235774,9.908536585365853 41.05691056910569,10.467479674796747 41.00609756097561,11.128048780487804 40.95528455284553,11.636178861788618 40.90447154471545,12.195121951219512 40.90447154471545,12.804878048780488 40.90447154471545,13.363821138211382 41.00609756097561,13.871951219512194 41.15853658536585,14.329268292682926 41.3109756097561,14.634146341463413 41.46341463414634,14.939024390243903 41.61585365853659,15.19308943089431 41.81910569105691,15.396341463414634 42.02235772357724,15.548780487804878 42.27642276422764,15.701219512195122 42.58130081300813,15.853658536585366 42.9369918699187,16.006097560975608 43.34349593495935,16.10772357723577 43.699186991869915,16.260162601626014 44.05487804878049,16.41260162601626 44.46138211382114,16.514227642276424 44.8170731707317,16.615853658536587 45.172764227642276,16.666666666666668 45.52845528455285,16.666666666666668 45.833333333333336,16.615853658536587 46.08739837398374,16.41260162601626 46.392276422764226,16.15853658536585 46.697154471544714,15.802845528455284 46.951219512195124,15.447154471544716 47.15447154471545,15.040650406504065 47.30691056910569,14.634146341463413 47.459349593495936,14.227642276422763 47.5609756097561,13.71951219512195 47.61178861788618,13.3130081300813 47.66260162601626,12.855691056910569 47.71341463414634,12.398373983739837 47.71341463414634,12.042682926829269 47.71341463414634,11.6869918699187 47.71341463414634,11.432926829268293" fill="none" stroke="black" stroke-width="0.6"></polyline><polyline points="47.71341463414634,11.432926829268293 47.71341463414634,11.280487804878048 47.66260162601626,11.128048780487804 47.61178861788618,10.97560975609756 47.5609756097561,10.823170731707316 47.510162601626014,10.721544715447154 47.40853658536585,10.619918699186991 47.30691056910569,10.56910569105691 47.20528455284553,10.518292682926829 47.052845528455286,10.467479674796747 46.951219512195124,10.467479674796747 46.798780487804876,10.467479674796747 46.697154471544714,10.518292682926829 46.59552845528455,10.721544715447154 46.44308943089431,11.026422764227641 46.290650406504064,11.534552845528456 46.13821138211382,12.195121951219512 46.03658536585366,12.855691056910569 45.985772357723576,13.617886178861788 46.03658536585366,14.329268292682926 46.1890243902439,14.939024390243903 46.44308943089431,15.447154471544716 46.697154471544714,15.752032520325203 47.0020325203252,16.006097560975608 47.40853658536585,16.209349593495933 47.86585365853659,16.260162601626014 48.3739837398374,16.260162601626014 48.983739837398375,16.15853658536585 49.69512195121951,15.955284552845528 50.355691056910565,15.65040650406504 50.96544715447154,15.345528455284553 51.52439024390244,14.989837398373984 51.981707317073166,14.684959349593496 52.33739837398374,14.48170731707317 52.59146341463415,14.329268292682926 52.74390243902439,14.278455284552845 52.84552845528455,14.227642276422763 52.896341463414636,14.227642276422763 52.947154471544714,14.227642276422763 53.09959349593496,14.227642276422763 53.15040650406504,14.329268292682926" fill="none" stroke="black" stroke-width="0.6"></polyline><polyline points="38.109756097560975,34.70528455284553 37.95731707317073,34.75609756097561 37.855691056910565,34.75609756097561 37.7540650406504,34.80691056910569 37.60162601626016,34.80691056910569 37.5,34.80691056910569 37.39837398373984,34.80691056910569 37.34756097560975,34.80691056910569 37.296747967479675,34.75609756097561 37.296747967479675,34.70528455284553 37.24593495934959,34.65447154471545 37.24593495934959,34.603658536585364 37.24593495934959,34.552845528455286 37.24593495934959,34.5020325203252 37.24593495934959,34.451219512195124 37.24593495934959,34.451219512195124 37.24593495934959,34.40040650406504 37.296747967479675,34.40040650406504 37.296747967479675,34.40040650406504 37.296747967479675,34.40040650406504 37.296747967479675,34.40040650406504 37.39837398373984,34.552845528455286 37.5,34.80691056910569 37.65243902439024,35.11178861788618 37.90650406504065,35.51829268292683 38.21138211382114,35.8739837398374 38.5670731707317,36.17886178861789 39.02439024390244,36.483739837398375 39.48170731707317,36.636178861788615 39.88821138211382,36.73780487804878 40.396341463414636,36.73780487804878 40.853658536585364,36.73780487804878 41.36178861788618,36.58536585365854 41.86991869918699,36.38211382113821 42.327235772357724,36.229674796747965 42.78455284552845,35.97560975609756 43.292682926829265,35.670731707317074 43.64837398373984,35.36585365853659 44.0040650406504,34.90853658536585 44.359756097560975,34.298780487804876 44.66463414634146,33.63821138211382 44.96951219512195,32.8760162601626 45.27439024390244,31.961382113821138 45.52845528455285,31.148373983739837 45.73170731707317,30.38617886178862 45.9349593495935,29.573170731707318 46.03658536585366,28.912601626016258 46.13821138211382,28.20121951219512 46.1890243902439,27.540650406504064 46.239837398373986,26.98170731707317 46.239837398373986,26.371951219512194" fill="none" stroke="black" stroke-width="0.6"></polyline><polyline points="46.239837398373986,26.371951219512194 46.239837398373986,25.76219512195122 46.239837398373986,25.203252032520325 46.1890243902439,24.745934959349594 46.08739837398374,24.441056910569106 45.985772357723576,24.288617886178862 45.833333333333336,24.1869918699187 45.68089430894309,24.085365853658537 45.52845528455285,24.085365853658537 45.325203252032516,24.085365853658537 45.12195121951219,24.085365853658537 44.96951219512195,24.1869918699187 44.766260162601625,24.441056910569106 44.5630081300813,24.796747967479675 44.41056910569105,25.101626016260163 44.25813008130081,25.508130081300813 44.105691056910565,26.016260162601625 43.953252032520325,26.473577235772357 43.80081300813008,27.03252032520325 43.64837398373984,27.693089430894307 43.49593495934959,28.455284552845526 43.39430894308943,29.268292682926827 43.34349593495935,30.233739837398375 43.292682926829265,31.19918699186992 43.292682926829265,32.012195121951216 43.292682926829265,32.72357723577236 43.292682926829265,33.28252032520325 43.34349593495935,33.739837398373986 43.44512195121951,34.197154471544714 43.546747967479675,34.552845528455286 43.699186991869915,34.959349593495936 43.85162601626016,35.3150406504065 44.05487804878049,35.61991869918699 44.25813008130081,35.8739837398374 44.512195121951216,36.077235772357724 44.766260162601625,36.229674796747965 45.12195121951219,36.38211382113821 45.47764227642276,36.483739837398375 45.833333333333336,36.58536585365854 46.290650406504064,36.58536585365854 46.646341463414636,36.636178861788615 47.0020325203252,36.636178861788615 47.40853658536585,36.636178861788615 47.764227642276424,36.53455284552845 48.11991869918699,36.38211382113821 48.47560975609756,36.17886178861789 48.78048780487805,35.92479674796748 49.08536585365854,35.56910569105691 49.390243902439025,35.11178861788618 49.64430894308943,34.65447154471545 49.89837398373984,34.197154471544714" fill="none" stroke="black" stroke-width="0.6"></polyline><polyline points="49.89837398373984,34.197154471544714 50.10162601626016,33.739837398373986 50.2540650406504,33.333333333333336 50.355691056910565,32.8760162601626 50.45731707317073,32.46951219512195 50.50813008130081,32.11382113821138 50.50813008130081,31.808943089430894 50.50813008130081,31.554878048780488 50.40650406504065,31.351626016260163 50.30487804878049,31.148373983739837 50.15243902439024,31.046747967479675 50,30.945121951219512 49.84756097560975,30.84349593495935 49.64430894308943,30.84349593495935 49.49186991869919,30.84349593495935 49.33943089430894,30.89430894308943 49.136178861788615,31.046747967479675 48.983739837398375,31.25 48.78048780487805,31.65650406504065 48.6280487804878,32.21544715447154 48.52642276422764,32.82520325203252 48.52642276422764,33.485772357723576 48.52642276422764,34.197154471544714 48.729674796747965,34.80691056910569 49.03455284552845,35.3150406504065 49.4410569105691,35.670731707317074 49.74593495934959,35.8739837398374 50.10162601626016,35.92479674796748 50.45731707317073,35.97560975609756 50.8130081300813,35.97560975609756 51.168699186991866,35.97560975609756 51.575203252032516,35.97560975609756 51.93089430894309,35.8739837398374 52.28658536585366,35.77235772357724 52.642276422764226,35.670731707317074 52.84552845528455,35.61991869918699 52.9979674796748,35.56910569105691 53.09959349593496,35.51829268292683 53.201219512195124,35.51829268292683 53.353658536585364,35.51829268292683" fill="none" stroke="black" stroke-width="0.6"></polyline><polyline points="36.077235772357724,54.36991869918699 36.077235772357724,54.36991869918699 36.02642276422764,54.31910569105691 35.97560975609756,54.21747967479675 35.8739837398374,54.166666666666664 35.823170731707314,54.11585365853659 35.77235772357724,54.0650406504065 35.72154471544715,54.014227642276424 35.670731707317074,54.014227642276424 35.61991869918699,54.014227642276424 35.61991869918699,54.014227642276424 35.61991869918699,54.014227642276424 35.61991869918699,54.014227642276424 35.670731707317074,54.11585365853659 35.77235772357724,54.31910569105691 35.97560975609756,54.573170731707314 36.17886178861789,54.92886178861789 36.43292682926829,55.33536585365854 36.78861788617886,55.792682926829265 37.19512195121951,56.25 37.65243902439024,56.605691056910565 38.16056910569105,56.859756097560975 38.61788617886179,56.96138211382114 39.07520325203252,57.012195121951216 39.53252032520325,57.012195121951216 39.989837398373986,56.96138211382114 40.4979674796748,56.80894308943089 41.05691056910569,56.605691056910565 41.5650406504065,56.30081300813008 42.073170731707314,55.89430894308943 42.58130081300813,55.28455284552845 43.08943089430894,54.67479674796748 43.59756097560975,53.86178861788618 44.05487804878049,53.048780487804876 44.41056910569105,52.38821138211382 44.766260162601625,51.67682926829268 45.07113821138211,50.96544715447154 45.325203252032516,50.2540650406504 45.52845528455285,49.59349593495935 45.68089430894309,48.88211382113821 45.73170731707317,48.27235772357724 45.73170731707317,47.61178861788618 45.73170731707317,46.90040650406504 45.68089430894309,46.290650406504064 45.52845528455285,45.73170731707317 45.3760162601626,45.12195121951219 45.22357723577235,44.71544715447154 45.12195121951219,44.359756097560975 44.96951219512195,44.05487804878049 44.8170731707317,43.85162601626016 44.66463414634146,43.699186991869915" fill="none" stroke="black" stroke-width="0.6"></polyline><polyline points="44.66463414634146,43.699186991869915 44.512195121951216,43.546747967479675 44.30894308943089,43.44512195121951 44.105691056910565,43.34349593495935 43.90243902439024,43.24186991869919 43.75,43.1910569105691 43.546747967479675,43.1910569105691 43.39430894308943,43.1910569105691 43.292682926829265,43.24186991869919 43.140243902439025,43.34349593495935 42.98780487804878,43.546747967479675 42.78455284552845,43.90243902439024 42.58130081300813,44.359756097560975 42.3780487804878,45.07113821138211 42.17479674796748,45.88414634146341 41.97154471544715,46.798780487804876 41.81910569105691,47.86585365853659 41.71747967479675,48.83130081300813 41.666666666666664,49.74593495934959 41.666666666666664,50.55894308943089 41.61585365853659,51.422764227642276 41.61585365853659,52.33739837398374 41.666666666666664,53.201219512195124 41.76829268292683,53.91260162601626 41.920731707317074,54.67479674796748 42.1239837398374,55.386178861788615 42.3780487804878,55.89430894308943 42.63211382113821,56.35162601626016 42.98780487804878,56.75813008130081 43.34349593495935,57.012195121951216 43.64837398373984,57.11382113821138 44.05487804878049,57.16463414634146 44.41056910569105,57.16463414634146 44.8170731707317,57.0630081300813 45.22357723577235,56.96138211382114 45.52845528455285,56.75813008130081 45.833333333333336,56.605691056910565 46.13821138211382,56.40243902439024 46.392276422764226,56.199186991869915 46.646341463414636,55.99593495934959 46.90040650406504,55.74186991869919 47.15447154471545,55.4369918699187 47.40853658536585,55.13211382113821 47.61178861788618,54.8780487804878 47.764227642276424,54.52235772357724 47.86585365853659,54.21747967479675 47.916666666666664,53.96341463414634 47.96747967479675,53.607723577235774 47.96747967479675,53.201219512195124 47.96747967479675,52.896341463414636 47.96747967479675,52.642276422764226" fill="none" stroke="black" stroke-width="0.6"></polyline><polyline points="47.96747967479675,52.642276422764226 47.916666666666664,52.4390243902439 47.86585365853659,52.28658536585366 47.8150406504065,52.1849593495935 47.71341463414634,52.083333333333336 47.61178861788618,52.03252032520325 47.5609756097561,51.93089430894309 47.40853658536585,51.880081300813 47.357723577235774,51.829268292682926 47.25609756097561,51.77845528455284 47.103658536585364,51.72764227642276 47.052845528455286,51.72764227642276 46.951219512195124,51.72764227642276 46.90040650406504,51.72764227642276 46.84959349593496,51.72764227642276 46.84959349593496,51.72764227642276 46.798780487804876,51.829268292682926 46.7479674796748,51.981707317073166 46.7479674796748,52.33739837398374 46.697154471544714,52.84552845528455 46.697154471544714,53.353658536585364 46.7479674796748,53.91260162601626 46.90040650406504,54.47154471544715 47.15447154471545,54.92886178861789 47.459349593495936,55.28455284552845 47.8150406504065,55.53861788617886 48.170731707317074,55.6910569105691 48.577235772357724,55.792682926829265 49.03455284552845,55.84349593495935 49.49186991869919,55.84349593495935 50,55.792682926829265 50.55894308943089,55.640243902439025 51.016260162601625,55.48780487804878 51.422764227642276,55.28455284552845 51.77845528455284,55.08130081300813 52.03252032520325,54.92886178861789 52.1849593495935,54.827235772357724 52.33739837398374,54.72560975609756 52.38821138211382,54.67479674796748 52.4390243902439,54.6239837398374 52.489837398373986,54.573170731707314 52.540650406504064,54.573170731707314" fill="none" stroke="black" stroke-width="0.6"></polyline><polyline points="36.890243902439025,74.1869918699187 36.83943089430894,74.1869918699187 36.83943089430894,74.13617886178862 36.78861788617886,74.08536585365853 36.78861788617886,74.08536585365853 36.78861788617886,74.03455284552845 36.73780487804878,74.03455284552845 36.73780487804878,73.98373983739837 36.73780487804878,73.98373983739837 36.73780487804878,73.98373983739837 36.73780487804878,73.98373983739837 36.73780487804878,74.08536585365853 36.83943089430894,74.33943089430895 37.042682926829265,74.64430894308943 37.296747967479675,75.10162601626016 37.65243902439024,75.5589430894309 38.16056910569105,76.0670731707317 38.668699186991866,76.42276422764228 39.176829268292686,76.57520325203252 39.6849593495935,76.6260162601626 40.142276422764226,76.52439024390243 40.548780487804876,76.27032520325203 40.95528455284553,76.01626016260163 41.36178861788618,75.66056910569105 41.76829268292683,75.20325203252033 42.1239837398374,74.7459349593496 42.479674796747965,74.1869918699187 42.78455284552845,73.47560975609755 43.08943089430894,72.76422764227642 43.292682926829265,71.95121951219512 43.546747967479675,71.03658536585365 43.699186991869915,70.17276422764228 43.80081300813008,69.35975609756098 43.85162601626016,68.4959349593496 43.85162601626016,67.83536585365853 43.85162601626016,67.17479674796748 43.80081300813008,66.61585365853658 43.699186991869915,66.20934959349593 43.59756097560975,65.7520325203252 43.44512195121951,65.34552845528455 43.24186991869919,65.04065040650406 43.08943089430894,64.83739837398373 42.886178861788615,64.6849593495935 42.68292682926829,64.58333333333333 42.53048780487805,64.53252032520325 42.327235772357724,64.53252032520325 42.17479674796748,64.53252032520325 42.02235772357724,64.6341463414634 41.86991869918699,64.73577235772358 41.76829268292683,64.9390243902439 41.666666666666664,65.14227642276423" fill="none" stroke="black" stroke-width="0.6"></polyline><polyline points="41.666666666666664,65.14227642276423 41.61585365853659,65.44715447154472 41.514227642276424,65.7520325203252 41.46341463414634,66.0569105691057 41.41260162601626,66.51422764227642 41.36178861788618,66.92073170731707 41.260162601626014,67.3780487804878 41.209349593495936,67.98780487804878 41.15853658536585,68.59756097560975 41.15853658536585,69.2581300813008 41.107723577235774,69.96951219512195 41.15853658536585,70.78252032520325 41.260162601626014,71.59552845528455 41.41260162601626,72.45934959349593 41.61585365853659,73.119918699187 41.920731707317074,73.6280487804878 42.22560975609756,74.03455284552845 42.53048780487805,74.28861788617886 42.886178861788615,74.49186991869918 43.292682926829265,74.64430894308943 43.699186991869915,74.7459349593496 44.105691056910565,74.84756097560975 44.512195121951216,74.94918699186992 44.918699186991866,75 45.3760162601626,75.05081300813008 45.78252032520325,75.10162601626016 46.13821138211382,75.10162601626016 46.49390243902439,75 46.798780487804876,74.79674796747967 47.103658536585364,74.54268292682927 47.357723577235774,74.23780487804878 47.510162601626014,73.83130081300813 47.66260162601626,73.42479674796748 47.764227642276424,73.01829268292683 47.8150406504065,72.5609756097561 47.8150406504065,72.10365853658537 47.8150406504065,71.59552845528455 47.8150406504065,71.08739837398373 47.71341463414634,70.78252032520325 47.61178861788618,70.57926829268293 47.510162601626014,70.42682926829268 47.357723577235774,70.42682926829268 47.20528455284553,70.42682926829268 47.103658536585364,70.47764227642276 46.951219512195124,70.630081300813 46.84959349593496,70.9349593495935 46.7479674796748,71.4430894308943 46.697154471544714,72.05284552845528 46.697154471544714,72.76422764227642 46.7479674796748,73.3739837398374 46.951219512195124,73.98373983739837" fill="none" stroke="black" stroke-width="0.6"></polyline><polyline points="46.951219512195124,73.98373983739837 47.25609756097561,74.54268292682927 47.5609756097561,74.79674796747967 47.86585365853659,74.94918699186992 48.22154471544715,75 48.52642276422764,75 48.78048780487805,74.94918699186992 49.08536585365854,74.89837398373983 49.23780487804878,74.79674796747967 49.390243902439025,74.7459349593496 49.542682926829265,74.6951219512195 49.69512195121951,74.64430894308943 49.796747967479675,74.59349593495935 49.949186991869915,74.54268292682927 50.10162601626016,74.4410569105691 50.2540650406504,74.39024390243902 50.50813008130081,74.39024390243902 50.66056910569105,74.39024390243902" fill="none" stroke="black" stroke-width="0.6"></polyline><polyline points="38.3130081300813,92.9369918699187 38.3130081300813,92.9369918699187 38.3130081300813,92.9369918699187 38.3130081300813,92.9369918699187 38.3130081300813,92.98780487804878 38.3130081300813,93.03861788617886 38.3130081300813,93.24186991869918 38.46544715447154,93.59756097560975 38.668699186991866,94.10569105691057 39.02439024390244,94.71544715447155 39.43089430894309,95.22357723577235 39.88821138211382,95.68089430894308 40.4979674796748,96.03658536585365 41.05691056910569,96.13821138211382 41.666666666666664,96.1890243902439 42.22560975609756,96.03658536585365 42.78455284552845,95.8841463414634 43.292682926829265,95.630081300813 43.80081300813008,95.3760162601626 44.25813008130081,95.1219512195122 44.71544715447154,94.8170731707317 45.12195121951219,94.41056910569105 45.47764227642276,93.95325203252033 45.78252032520325,93.39430894308943 45.985772357723576,92.73373983739837 46.13821138211382,92.07317073170732 46.290650406504064,91.36178861788618 46.34146341463415,90.54878048780488 46.34146341463415,89.73577235772358 46.34146341463415,88.8719512195122 46.1890243902439,87.95731707317073 46.03658536585366,87.04268292682927 45.833333333333336,86.22967479674797 45.63008130081301,85.51829268292683 45.42682926829268,85.01016260162602 45.27439024390244,84.5020325203252 45.07113821138211,84.09552845528455 44.86788617886179,83.89227642276423 44.71544715447154,83.73983739837398 44.512195121951216,83.63821138211382 44.359756097560975,83.58739837398373 44.15650406504065,83.58739837398373 43.953252032520325,83.58739837398373 43.80081300813008,83.6890243902439 43.59756097560975,83.89227642276423 43.44512195121951,84.29878048780488 43.292682926829265,84.7560975609756 43.140243902439025,85.3150406504065 43.03861788617886,85.97560975609755 42.9369918699187,86.58536585365853 42.886178861788615,87.29674796747967" fill="none" stroke="black" stroke-width="0.6"></polyline><polyline points="42.886178861788615,87.29674796747967 42.886178861788615,88.10975609756098 42.9369918699187,88.92276422764228 43.03861788617886,89.73577235772358 43.24186991869919,90.59959349593495 43.44512195121951,91.46341463414635 43.699186991869915,92.42886178861788 43.953252032520325,93.29268292682927 44.25813008130081,94.10569105691057 44.61382113821138,94.91869918699187 44.96951219512195,95.52845528455285 45.325203252032516,95.98577235772358 45.73170731707317,96.23983739837398 46.08739837398374,96.34146341463415 46.49390243902439,96.34146341463415 47.0020325203252,96.34146341463415 47.510162601626014,96.23983739837398 48.01829268292683,96.03658536585365 48.577235772357724,95.73170731707317 49.136178861788615,95.32520325203252 49.59349593495935,94.91869918699187 50.05081300813008,94.35975609756098 50.30487804878049,93.90243902439025 50.50813008130081,93.34349593495935 50.66056910569105,92.78455284552845 50.71138211382114,92.27642276422765 50.71138211382114,91.76829268292683 50.66056910569105,91.26016260162602 50.50813008130081,90.85365853658536 50.355691056910565,90.4979674796748 50.15243902439024,90.29471544715447 49.949186991869915,90.14227642276423 49.69512195121951,90.04065040650406 49.4410569105691,89.98983739837398 49.23780487804878,89.98983739837398 48.983739837398375,89.98983739837398 48.78048780487805,90.04065040650406 48.577235772357724,90.14227642276423 48.47560975609756,90.4471544715447 48.3739837398374,90.95528455284553 48.3739837398374,91.66666666666667 48.3739837398374,92.42886178861788 48.52642276422764,93.29268292682927 48.78048780487805,94.10569105691057 49.136178861788615,94.76626016260163 49.64430894308943,95.22357723577235 50.203252032520325,95.42682926829268 50.762195121951216,95.47764227642276 51.37195121951219,95.42682926829268 51.880081300813,95.32520325203252 52.33739837398374,95.22357723577235" fill="none" stroke="black" stroke-width="0.6"></polyline><polyline points="52.33739837398374,95.22357723577235 52.69308943089431,95.1219512195122 53.048780487804876,95.02032520325203 53.302845528455286,94.91869918699187 53.55691056910569,94.8170731707317 53.760162601626014,94.76626016260163 53.91260162601626,94.71544715447155 54.11585365853659,94.61382113821138 54.26829268292683,94.5630081300813 54.420731707317074,94.51219512195122 54.52235772357724,94.46138211382113" fill="none" stroke="black" stroke-width="0.6"></polyline></svg>