<svg height="100" width="100" preserveAspectRatio="xMidYMid meet"><polyline points="92.58130081300813,43.90243902439024 92.73373983739837,44.05487804878049" fill="none" stroke="black" stroke-width="0.6"></polyline><polyline points="32.16463414634146,15.24390243902439 32.11382113821138,15.24390243902439 32.0630081300813,15.24390243902439 31.961382113821138,15.24390243902439 31.910569105691057,15.24390243902439 31.859756097560975,15.24390243902439 31.859756097560975,15.24390243902439 31.808943089430894,15.24390243902439 31.808943089430894,15.24390243902439 31.808943089430894,15.24390243902439 31.808943089430894,15.24390243902439 31.808943089430894,15.294715447154472 31.859756097560975,15.294715447154472 31.961382113821138,15.294715447154472 32.0630081300813,15.345528455284553 32.16463414634146,15.447154471544716 32.36788617886179,15.497967479674797 32.57113821138211,15.59959349593496 32.82520325203252,15.65040650406504 33.18089430894309,15.701219512195122 33.53658536585366,15.701219512195122 33.94308943089431,15.701219512195122 34.298780487804876,15.59959349593496 34.70528455284553,15.447154471544716 35.010162601626014,15.24390243902439 35.264227642276424,14.989837398373984 35.56910569105691,14.634146341463413 35.8739837398374,14.176829268292682 36.28048780487805,13.617886178861788 36.6869918699187,12.957317073170731 37.042682926829265,12.296747967479675 37.39837398373984,11.6869918699187 37.703252032520325,11.178861788617885 37.90650406504065,10.670731707317072 38.16056910569105,10.111788617886178 38.3130081300813,9.552845528455284 38.46544715447154,8.99390243902439 38.61788617886179,8.434959349593496 38.71951219512195,7.82520325203252 38.87195121951219,7.215447154471544 38.97357723577235,6.7073170731707314 39.02439024390244,6.199186991869919 39.07520325203252,5.741869918699187 39.1260162601626,5.284552845528455 39.1260162601626,4.928861788617886 39.07520325203252,4.67479674796748 39.02439024390244,4.369918699186992 38.922764227642276,4.115853658536586 38.82113821138211,3.9634146341463414 38.71951219512195,3.8109756097560976 38.5670731707317,3.709349593495935" fill="none" stroke="black" stroke-width="0.6"></polyline><polyline points="38.5670731707317,3.709349593495935 38.46544715447154,3.6585365853658534 38.3130081300813,3.556910569105691 38.21138211382114,3.556910569105691 38.109756097560975,3.5060975609756095 38.00813008130081,3.5060975609756095 37.95731707317073,3.5060975609756095 37.90650406504065,3.5060975609756095 37.855691056910565,3.5060975609756095 37.855691056910565,3.607723577235772 37.80487804878049,3.8109756097560976 37.7540650406504,4.115853658536586 37.65243902439024,4.522357723577236 37.55081300813008,4.979674796747967 37.449186991869915,5.589430894308943 37.34756097560975,6.1483739837398375 37.296747967479675,6.7073170731707314 37.19512195121951,7.367886178861789 37.14430894308943,7.82520325203252 37.09349593495935,8.333333333333334 37.042682926829265,8.841463414634147 36.99186991869919,9.34959349593496 36.9410569105691,9.857723577235772 36.890243902439025,10.365853658536585 36.83943089430894,10.823170731707316 36.83943089430894,11.229674796747966 36.83943089430894,11.6869918699187 36.9410569105691,12.09349593495935 37.042682926829265,12.5 37.14430894308943,13.008130081300813 37.296747967479675,13.414634146341463 37.5,13.770325203252032 37.703252032520325,14.1260162601626 37.855691056910565,14.380081300813007 38.109756097560975,14.583333333333332 38.36382113821138,14.83739837398374 38.61788617886179,15.040650406504065 38.87195121951219,15.24390243902439 39.176829268292686,15.447154471544716 39.48170731707317,15.59959349593496 39.735772357723576,15.701219512195122 40.040650406504064,15.802845528455284 40.396341463414636,15.802845528455284 40.7520325203252,15.802845528455284 41.107723577235774,15.701219512195122 41.46341463414634,15.548780487804878 41.81910569105691,15.396341463414634 42.1239837398374,15.19308943089431 42.42886178861789,14.939024390243903 42.78455284552845,14.583333333333332 43.140243902439025,14.227642276422763" fill="none" stroke="black" stroke-width="0.6"></polyline><polyline points="43.140243902439025,14.227642276422763 43.39430894308943,13.821138211382113 43.64837398373984,13.363821138211382 43.90243902439024,12.804878048780488 44.105691056910565,12.195121951219512 44.30894308943089,11.585365853658537 44.46138211382114,10.873983739837398 44.5630081300813,10.213414634146341 44.71544715447154,9.603658536585366 44.8170731707317,8.99390243902439 44.86788617886179,8.434959349593496 44.96951219512195,7.876016260162602 44.96951219512195,7.317073170731707 44.96951219512195,6.808943089430894 44.96951219512195,6.300813008130081 44.96951219512195,5.741869918699187 44.96951219512195,5.233739837398374 44.96951219512195,4.776422764227642 44.918699186991866,4.420731707317073 44.86788617886179,4.115853658536586 44.8170731707317,3.861788617886179 44.766260162601625,3.709349593495935 44.66463414634146,3.607723577235772 44.61382113821138,3.5060975609756095 44.5630081300813,3.4552845528455283 44.46138211382114,3.404471544715447 44.41056910569105,3.404471544715447 44.359756097560975,3.404471544715447 44.30894308943089,3.404471544715447 44.20731707317073,3.404471544715447 44.105691056910565,3.607723577235772 43.953252032520325,3.9634146341463414 43.75,4.471544715447155 43.546747967479675,5.030487804878049 43.39430894308943,5.640243902439024 43.1910569105691,6.300813008130081 42.98780487804878,6.9105691056910565 42.83536585365854,7.520325203252033 42.68292682926829,8.231707317073171 42.58130081300813,8.790650406504065 42.479674796747965,9.298780487804878 42.42886178861789,9.857723577235772 42.3780487804878,10.365853658536585 42.327235772357724,10.924796747967479 42.327235772357724,11.534552845528456 42.3780487804878,12.042682926829269 42.42886178861789,12.5 42.53048780487805,13.008130081300813 42.68292682926829,13.414634146341463 42.83536585365854,13.821138211382113 42.98780487804878,14.1260162601626" fill="none" stroke="black" stroke-width="0.6"></polyline><polyline points="42.98780487804878,14.1260162601626 43.140243902439025,14.48170731707317 43.292682926829265,14.786585365853659 43.49593495934959,15.142276422764228 43.64837398373984,15.447154471544716 43.90243902439024,15.752032520325203 44.105691056910565,16.006097560975608 44.359756097560975,16.15853658536585 44.66463414634146,16.3109756097561 44.918699186991866,16.514227642276424 45.22357723577235,16.615853658536587 45.52845528455285,16.71747967479675 45.833333333333336,16.76829268292683 46.08739837398374,16.76829268292683 46.392276422764226,16.76829268292683 46.7479674796748,16.666666666666668 47.052845528455286,16.463414634146343 47.40853658536585,16.260162601626014 47.71341463414634,15.955284552845528 48.01829268292683,15.59959349593496 48.27235772357724,15.19308943089431 48.52642276422764,14.684959349593496 48.729674796747965,14.07520325203252 48.93292682926829,13.414634146341463 49.136178861788615,12.703252032520325 49.33943089430894,12.042682926829269 49.4410569105691,11.382113821138212 49.542682926829265,10.873983739837398 49.542682926829265,10.467479674796747 49.59349593495935,10.060975609756097 49.59349593495935,9.603658536585366 49.64430894308943,9.095528455284553 49.74593495934959,8.536585365853659 49.84756097560975,7.876016260162602 49.949186991869915,7.215447154471544 50,6.504065040650406 50,5.995934959349594 49.949186991869915,5.589430894308943 49.84756097560975,5.3861788617886175 49.74593495934959,5.233739837398374 49.59349593495935,5.182926829268292 49.49186991869919,5.132113821138211 49.390243902439025,5.08130081300813 49.23780487804878,5.030487804878049 49.136178861788615,4.979674796747967 49.03455284552845,4.928861788617886 48.88211382113821,4.928861788617886 48.729674796747965,4.979674796747967 48.577235772357724,5.132113821138211 48.3739837398374,5.3861788617886175 48.06910569105691,5.84349593495935" fill="none" stroke="black" stroke-width="0.6"></polyline><polyline points="48.06910569105691,5.84349593495935 47.86585365853659,6.3516260162601625 47.61178861788618,6.961382113821138 47.40853658536585,7.571138211382114 47.25609756097561,8.130081300813007 47.15447154471545,8.689024390243903 47.052845528455286,9.247967479674797 47.0020325203252,9.705284552845528 46.951219512195124,10.213414634146341 46.951219512195124,10.772357723577235 46.951219512195124,11.280487804878048 47.0020325203252,11.839430894308943 47.20528455284553,12.398373983739837 47.40853658536585,12.855691056910569 47.71341463414634,13.3130081300813 48.01829268292683,13.71951219512195 48.323170731707314,14.07520325203252 48.6280487804878,14.329268292682926 48.983739837398375,14.583333333333332 49.28861788617886,14.735772357723578 49.59349593495935,14.888211382113822 49.84756097560975,14.989837398373984 50.10162601626016,15.040650406504065 50.30487804878049,15.091463414634147 50.50813008130081,15.091463414634147 50.66056910569105,15.091463414634147 50.8130081300813,15.142276422764228 50.91463414634146,15.142276422764228 50.96544715447154,15.19308943089431 51.016260162601625,15.19308943089431 51.0670731707317,15.19308943089431 51.11788617886179,15.24390243902439 51.168699186991866,15.294715447154472 51.27032520325203,15.396341463414634 51.47357723577235,15.59959349593496 51.575203252032516,15.701219512195122" fill="none" stroke="black" stroke-width="0.6"></polyline><polyline points="32.97764227642276,35.56910569105691 32.97764227642276,35.56910569105691 32.926829268292686,35.56910569105691 32.8760162601626,35.56910569105691 32.8760162601626,35.56910569105691 32.8760162601626,35.61991869918699 32.926829268292686,35.61991869918699 33.02845528455285,35.670731707317074 33.13008130081301,35.77235772357724 33.333333333333336,35.823170731707314 33.53658536585366,35.92479674796748 33.790650406504064,36.077235772357724 34.09552845528455,36.17886178861789 34.451219512195124,36.28048780487805 34.857723577235774,36.33130081300813 35.264227642276424,36.33130081300813 35.72154471544715,36.17886178861789 36.17886178861789,35.8739837398374 36.636178861788615,35.46747967479675 37.14430894308943,34.857723577235774 37.60162601626016,34.146341463414636 38.00813008130081,33.38414634146341 38.516260162601625,32.57113821138211 38.87195121951219,31.859756097560975 39.176829268292686,31.25 39.48170731707317,30.589430894308943 39.735772357723576,29.827235772357724 39.989837398373986,29.01422764227642 40.19308943089431,28.20121951219512 40.34552845528455,27.540650406504064 40.396341463414636,26.98170731707317 40.396341463414636,26.473577235772357 40.396341463414636,26.117886178861788 40.34552845528455,25.8130081300813 40.24390243902439,25.508130081300813 40.09146341463415,25.254065040650406 39.9390243902439,25.101626016260163 39.78658536585366,24.94918699186992 39.63414634146341,24.898373983739837 39.48170731707317,24.847560975609756 39.329268292682926,24.796747967479675 39.176829268292686,24.796747967479675 39.02439024390244,24.796747967479675 38.87195121951219,24.898373983739837 38.71951219512195,25.05081300813008 38.5670731707317,25.254065040650406 38.41463414634146,25.660569105691057 38.262195121951216,26.117886178861788 38.16056910569105,26.6260162601626 38.05894308943089,27.235772357723576 37.95731707317073,27.79471544715447" fill="none" stroke="black" stroke-width="0.6"></polyline><polyline points="37.95731707317073,27.79471544715447 37.90650406504065,28.506097560975608 37.80487804878049,29.31910569105691 37.7540650406504,30.182926829268293 37.703252032520325,31.148373983739837 37.65243902439024,32.11382113821138 37.65243902439024,33.02845528455285 37.65243902439024,33.99390243902439 37.703252032520325,34.90853658536585 37.7540650406504,35.72154471544715 37.855691056910565,36.33130081300813 37.95731707317073,36.78861788617886 38.05894308943089,37.042682926829265 38.21138211382114,37.19512195121951 38.36382113821138,37.34756097560975 38.5670731707317,37.39837398373984 38.82113821138211,37.449186991869915 39.1260162601626,37.449186991869915 39.48170731707317,37.449186991869915 39.88821138211382,37.296747967479675 40.29471544715447,37.09349593495935 40.701219512195124,36.83943089430894 41.107723577235774,36.483739837398375 41.46341463414634,36.077235772357724 41.76829268292683,35.61991869918699 42.1239837398374,35.11178861788618 42.3780487804878,34.552845528455286 42.68292682926829,33.892276422764226 42.9369918699187,33.18089430894309 43.140243902439025,32.52032520325203 43.34349593495935,31.859756097560975 43.546747967479675,31.19918699186992 43.59756097560975,30.741869918699187 43.64837398373984,30.284552845528456 43.699186991869915,29.725609756097562 43.699186991869915,29.217479674796746 43.699186991869915,28.760162601626014 43.699186991869915,28.353658536585364 43.699186991869915,27.947154471544714 43.699186991869915,27.540650406504064 43.699186991869915,27.083333333333332 43.699186991869915,26.727642276422763 43.699186991869915,26.422764227642276 43.699186991869915,26.067073170731707 43.64837398373984,25.8130081300813 43.59756097560975,25.609756097560975 43.49593495934959,25.40650406504065 43.39430894308943,25.254065040650406 43.292682926829265,25.05081300813008 43.1910569105691,24.898373983739837 43.08943089430894,24.847560975609756" fill="none" stroke="black" stroke-width="0.6"></polyline><polyline points="43.08943089430894,24.847560975609756 43.03861788617886,24.796747967479675 42.9369918699187,24.745934959349594 42.886178861788615,24.745934959349594 42.83536585365854,24.796747967479675 42.733739837398375,24.94918699186992 42.58130081300813,25.254065040650406 42.3780487804878,25.76219512195122 42.1239837398374,26.422764227642276 41.920731707317074,27.134146341463413 41.71747967479675,27.947154471544714 41.5650406504065,28.861788617886177 41.46341463414634,29.776422764227643 41.36178861788618,30.589430894308943 41.36178861788618,31.351626016260163 41.3109756097561,31.961382113821138 41.3109756097561,32.46951219512195 41.36178861788618,32.97764227642276 41.514227642276424,33.38414634146341 41.71747967479675,33.790650406504064 41.97154471544715,34.146341463414636 42.27642276422764,34.5020325203252 42.68292682926829,34.857723577235774 43.140243902439025,35.16260162601626 43.59756097560975,35.416666666666664 44.0040650406504,35.61991869918699 44.512195121951216,35.823170731707314 44.96951219512195,35.92479674796748 45.42682926829268,35.97560975609756 45.9349593495935,36.02642276422764 46.392276422764226,35.97560975609756 46.84959349593496,35.8739837398374 47.25609756097561,35.670731707317074 47.61178861788618,35.46747967479675 47.96747967479675,35.16260162601626 48.22154471544715,34.80691056910569 48.47560975609756,34.34959349593496 48.67886178861789,33.84146341463415 48.88211382113821,33.23170731707317 49.08536585365854,32.672764227642276 49.1869918699187,32.0630081300813 49.33943089430894,31.402439024390244 49.390243902439025,30.84349593495935 49.4410569105691,30.233739837398375 49.49186991869919,29.67479674796748 49.542682926829265,29.166666666666664 49.542682926829265,28.60772357723577 49.59349593495935,28.20121951219512 49.59349593495935,27.693089430894307 49.59349593495935,27.134146341463413 49.59349593495935,26.57520325203252" fill="none" stroke="black" stroke-width="0.6"></polyline><polyline points="49.59349593495935,26.57520325203252 49.542682926829265,25.965447154471544 49.4410569105691,25.35569105691057 49.33943089430894,25 49.1869918699187,24.695121951219512 48.983739837398375,24.54268292682927 48.83130081300813,24.491869918699187 48.67886178861789,24.491869918699187 48.577235772357724,24.491869918699187 48.42479674796748,24.54268292682927 48.323170731707314,24.695121951219512 48.11991869918699,25 47.916666666666664,25.40650406504065 47.66260162601626,26.067073170731707 47.357723577235774,26.93089430894309 47.103658536585364,27.79471544715447 46.90040650406504,28.810975609756095 46.798780487804876,30.08130081300813 46.798780487804876,31.19918699186992 46.84959349593496,32.266260162601625 46.951219512195124,33.23170731707317 47.103658536585364,33.790650406504064 47.30691056910569,34.34959349593496 47.5609756097561,34.80691056910569 47.8150406504065,35.21341463414634 48.170731707317074,35.51829268292683 48.52642276422764,35.823170731707314 48.93292682926829,35.97560975609756 49.33943089430894,36.077235772357724 49.74593495934959,36.17886178861789 50.10162601626016,36.17886178861789 50.40650406504065,36.17886178861789 50.71138211382114,36.02642276422764 51.016260162601625,35.8739837398374 51.32113821138211,35.72154471544715 51.6260162601626,35.61991869918699" fill="none" stroke="black" stroke-width="0.6"></polyline><polyline points="34.298780487804876,55.28455284552845 34.2479674796748,55.233739837398375 34.197154471544714,55.18292682926829 34.146341463414636,55.13211382113821 34.09552845528455,55.08130081300813 34.04471544715447,55.08130081300813 34.04471544715447,55.03048780487805 34.04471544715447,55.03048780487805 34.04471544715447,54.979674796747965 34.04471544715447,54.979674796747965 34.04471544715447,54.979674796747965 34.04471544715447,54.979674796747965 34.04471544715447,54.979674796747965 34.04471544715447,54.979674796747965 34.09552845528455,55.08130081300813 34.2479674796748,55.28455284552845 34.451219512195124,55.53861788617886 34.70528455284553,55.89430894308943 35.010162601626014,56.199186991869915 35.416666666666664,56.55487804878049 35.8739837398374,56.75813008130081 36.38211382113821,56.80894308943089 36.83943089430894,56.80894308943089 37.296747967479675,56.605691056910565 37.7540650406504,56.30081300813008 38.109756097560975,55.94512195121951 38.41463414634146,55.58943089430894 38.77032520325203,55.08130081300813 39.02439024390244,54.573170731707314 39.27845528455285,53.96341463414634 39.583333333333336,53.2520325203252 39.78658536585366,52.59146341463415 39.989837398373986,51.93089430894309 40.142276422764226,51.21951219512195 40.24390243902439,50.609756097560975 40.29471544715447,49.949186991869915 40.29471544715447,49.28861788617886 40.34552845528455,48.729674796747965 40.34552845528455,48.170731707317074 40.29471544715447,47.5609756097561 40.24390243902439,47.0020325203252 40.19308943089431,46.49390243902439 40.142276422764226,46.08739837398374 40.09146341463415,45.833333333333336 39.989837398373986,45.63008130081301 39.88821138211382,45.42682926829268 39.735772357723576,45.325203252032516 39.63414634146341,45.27439024390244 39.48170731707317,45.22357723577235 39.38008130081301,45.172764227642276 39.27845528455285,45.12195121951219" fill="none" stroke="black" stroke-width="0.6"></polyline><polyline points="39.27845528455285,45.12195121951219 39.1260162601626,45.12195121951219 39.02439024390244,45.172764227642276 38.922764227642276,45.22357723577235 38.77032520325203,45.3760162601626 38.668699186991866,45.579268292682926 38.5670731707317,45.833333333333336 38.46544715447154,46.239837398373986 38.36382113821138,46.7479674796748 38.262195121951216,47.30691056910569 38.21138211382114,47.916666666666664 38.16056910569105,48.52642276422764 38.16056910569105,49.1869918699187 38.16056910569105,49.89837398373984 38.16056910569105,50.609756097560975 38.16056910569105,51.32113821138211 38.21138211382114,52.083333333333336 38.3130081300813,52.74390243902439 38.46544715447154,53.40447154471545 38.71951219512195,54.0650406504065 38.97357723577235,54.6239837398374 39.329268292682926,55.233739837398375 39.63414634146341,55.84349593495935 39.989837398373986,56.35162601626016 40.34552845528455,56.65650406504065 40.701219512195124,56.859756097560975 41.05691056910569,56.96138211382114 41.46341463414634,57.012195121951216 41.81910569105691,57.012195121951216 42.22560975609756,56.96138211382114 42.63211382113821,56.80894308943089 42.98780487804878,56.605691056910565 43.292682926829265,56.30081300813008 43.59756097560975,55.99593495934959 43.90243902439024,55.58943089430894 44.15650406504065,55.13211382113821 44.41056910569105,54.573170731707314 44.66463414634146,53.91260162601626 44.8170731707317,53.2520325203252 44.96951219512195,52.540650406504064 45.02032520325203,51.93089430894309 45.07113821138211,51.27032520325203 45.07113821138211,50.66056910569105 45.07113821138211,50.15243902439024 45.07113821138211,49.64430894308943 45.02032520325203,49.03455284552845 44.96951219512195,48.52642276422764 44.86788617886179,48.06910569105691 44.71544715447154,47.5609756097561 44.5630081300813,47.15447154471545 44.41056910569105,46.84959349593496" fill="none" stroke="black" stroke-width="0.6"></polyline><polyline points="44.41056910569105,46.84959349593496 44.20731707317073,46.646341463414636 44.05487804878049,46.54471544715447 43.90243902439024,46.54471544715447 43.75,46.49390243902439 43.64837398373984,46.49390243902439 43.546747967479675,46.44308943089431 43.39430894308943,46.44308943089431 43.34349593495935,46.392276422764226 43.24186991869919,46.392276422764226 43.1910569105691,46.392276422764226 43.140243902439025,46.44308943089431 43.08943089430894,46.49390243902439 42.98780487804878,46.59552845528455 42.886178861788615,46.798780487804876 42.83536585365854,47.103658536585364 42.68292682926829,47.61178861788618 42.58130081300813,48.170731707317074 42.53048780487805,48.78048780487805 42.479674796747965,49.59349593495935 42.479674796747965,50.45731707317073 42.53048780487805,51.32113821138211 42.63211382113821,52.28658536585366 42.733739837398375,53.09959349593496 42.886178861788615,53.8109756097561 43.03861788617886,54.47154471544715 43.1910569105691,55.03048780487805 43.39430894308943,55.58943089430894 43.64837398373984,55.99593495934959 43.90243902439024,56.30081300813008 44.20731707317073,56.5040650406504 44.512195121951216,56.70731707317073 44.86788617886179,56.80894308943089 45.22357723577235,56.859756097560975 45.63008130081301,56.859756097560975 46.03658536585366,56.80894308943089 46.44308943089431,56.65650406504065 46.90040650406504,56.40243902439024 47.30691056910569,56.09756097560975 47.71341463414634,55.6910569105691 48.06910569105691,55.233739837398375 48.3739837398374,54.72560975609756 48.577235772357724,54.166666666666664 48.83130081300813,53.55691056910569 48.983739837398375,52.896341463414636 49.08536585365854,52.13414634146341 49.1869918699187,51.37195121951219 49.28861788617886,50.71138211382114 49.33943089430894,50.05081300813008 49.390243902439025,49.33943089430894 49.4410569105691,48.67886178861789" fill="none" stroke="black" stroke-width="0.6"></polyline><polyline points="49.4410569105691,48.67886178861789 49.49186991869919,48.06910569105691 49.49186991869919,47.510162601626014 49.49186991869919,47.0020325203252 49.4410569105691,46.59552845528455 49.33943089430894,46.1890243902439 49.1869918699187,45.9349593495935 48.983739837398375,45.63008130081301 48.83130081300813,45.3760162601626 48.6280487804878,45.12195121951219 48.47560975609756,44.96951219512195 48.27235772357724,44.86788617886179 48.11991869918699,44.86788617886179 47.96747967479675,44.918699186991866 47.8150406504065,45.12195121951219 47.61178861788618,45.47764227642276 47.357723577235774,46.03658536585366 47.15447154471545,46.697154471544714 46.951219512195124,47.459349593495936 46.798780487804876,48.42479674796748 46.7479674796748,49.4410569105691 46.7479674796748,50.66056910569105 46.84959349593496,51.93089430894309 47.052845528455286,52.947154471544714 47.357723577235774,53.86178861788618 47.66260162601626,54.6239837398374 47.96747967479675,55.08130081300813 48.323170731707314,55.4369918699187 48.67886178861789,55.74186991869919 49.03455284552845,55.94512195121951 49.390243902439025,56.046747967479675 49.796747967479675,56.14837398373984 50.10162601626016,56.14837398373984 50.40650406504065,56.14837398373984 50.762195121951216,56.14837398373984 51.0670731707317,56.046747967479675 51.32113821138211,56.046747967479675" fill="none" stroke="black" stroke-width="0.6"></polyline><polyline points="34.552845528455286,74.7459349593496 34.552845528455286,74.7459349593496 34.40040650406504,74.7459349593496 34.34959349593496,74.7459349593496 34.298780487804876,74.7459349593496 34.2479674796748,74.7459349593496 34.2479674796748,74.7459349593496 34.2479674796748,74.7459349593496 34.298780487804876,74.7459349593496 34.40040650406504,74.84756097560975 34.552845528455286,75 34.75609756097561,75.30487804878048 35.0609756097561,75.71138211382113 35.416666666666664,76.16869918699187 35.823170731707314,76.52439024390243 36.229674796747965,76.72764227642276 36.6869918699187,76.77845528455285 37.14430894308943,76.77845528455285 37.60162601626016,76.6260162601626 38.05894308943089,76.42276422764228 38.5670731707317,76.21951219512195 39.07520325203252,75.96544715447155 39.53252032520325,75.66056910569105 40.040650406504064,75.30487804878048 40.447154471544714,74.84756097560975 40.853658536585364,74.23780487804878 41.260162601626014,73.47560975609755 41.514227642276424,72.71341463414635 41.71747967479675,72.0020325203252 41.920731707317074,71.1890243902439 42.02235772357724,70.42682926829268 42.073170731707314,69.71544715447155 42.1239837398374,68.85162601626016 42.073170731707314,68.03861788617886 41.920731707317074,67.17479674796748 41.76829268292683,66.36178861788618 41.61585365853659,65.80284552845528 41.41260162601626,65.34552845528455 41.260162601626014,64.9390243902439 41.107723577235774,64.6849593495935 40.90447154471545,64.43089430894308 40.7520325203252,64.27845528455285 40.59959349593496,64.17682926829268 40.396341463414636,64.1260162601626 40.24390243902439,64.07520325203252 40.09146341463415,64.07520325203252 39.9390243902439,64.17682926829268 39.83739837398374,64.32926829268293 39.6849593495935,64.53252032520325 39.53252032520325,64.83739837398373 39.48170731707317,65.1930894308943" fill="none" stroke="black" stroke-width="0.6"></polyline><polyline points="39.48170731707317,65.1930894308943 39.43089430894309,65.59959349593495 39.43089430894309,66.15853658536585 39.43089430894309,66.8191056910569 39.48170731707317,67.6321138211382 39.583333333333336,68.64837398373983 39.78658536585366,69.61382113821138 40.040650406504064,70.57926829268293 40.24390243902439,71.39227642276423 40.447154471544714,72.05284552845528 40.701219512195124,72.66260162601625 40.90447154471545,73.32317073170732 41.15853658536585,73.9329268292683 41.46341463414634,74.49186991869918 41.81910569105691,75 42.17479674796748,75.35569105691057 42.63211382113821,75.60975609756098 43.08943089430894,75.76219512195122 43.546747967479675,75.8130081300813 43.953252032520325,75.8130081300813 44.46138211382114,75.71138211382113 44.918699186991866,75.45731707317073 45.3760162601626,75.15243902439025 45.833333333333336,74.6951219512195 46.1890243902439,74.1869918699187 46.59552845528455,73.52642276422765 46.951219512195124,72.76422764227642 47.25609756097561,71.95121951219512 47.459349593495936,71.03658536585365 47.66260162601626,70.02032520325203 47.8150406504065,69.10569105691057 47.86585365853659,68.1910569105691 47.86585365853659,67.3780487804878 47.8150406504065,66.61585365853658 47.71341463414634,65.90447154471545 47.61178861788618,65.34552845528455 47.459349593495936,64.83739837398373 47.30691056910569,64.380081300813 47.15447154471545,64.02439024390243 46.951219512195124,63.71951219512195 46.798780487804876,63.516260162601625 46.59552845528455,63.36382113821138 46.44308943089431,63.3130081300813 46.34146341463415,63.3130081300813 46.239837398373986,63.3130081300813 46.13821138211382,63.36382113821138 46.03658536585366,63.516260162601625 45.88414634146341,63.82113821138211 45.78252032520325,64.22764227642276 45.68089430894309,64.73577235772358 45.579268292682926,65.34552845528455" fill="none" stroke="black" stroke-width="0.6"></polyline><polyline points="45.579268292682926,65.34552845528455 45.52845528455285,66.0060975609756 45.47764227642276,66.71747967479675 45.42682926829268,67.53048780487805 45.42682926829268,68.29268292682927 45.42682926829268,69.15650406504065 45.52845528455285,70.0711382113821 45.579268292682926,70.8841463414634 45.73170731707317,71.7479674796748 45.833333333333336,72.45934959349593 45.985772357723576,73.119918699187 46.1890243902439,73.72967479674797 46.44308943089431,74.23780487804878 46.697154471544714,74.64430894308943 47.052845528455286,75 47.357723577235774,75.2540650406504 47.71341463414634,75.45731707317073 48.06910569105691,75.71138211382113 48.42479674796748,75.86382113821138 48.83130081300813,75.96544715447155 49.1869918699187,76.01626016260163 49.542682926829265,76.01626016260163 49.84756097560975,75.96544715447155 50.15243902439024,75.8130081300813 50.45731707317073,75.5589430894309 50.71138211382114,75.2540650406504 51.016260162601625,74.79674796747967 51.21951219512195,74.28861788617886 51.47357723577235,73.72967479674797 51.67682926829268,72.96747967479675 51.880081300813,72.35772357723577 52.083333333333336,71.69715447154472 52.28658536585366,70.98577235772358 52.4390243902439,70.42682926829268 52.59146341463415,69.86788617886178 52.74390243902439,69.2581300813008 52.84552845528455,68.69918699186992 52.896341463414636,68.14024390243902 52.896341463414636,67.53048780487805 52.84552845528455,66.97154471544715 52.69308943089431,66.41260162601625 52.540650406504064,65.85365853658537 52.33739837398374,65.44715447154472 52.083333333333336,65.09146341463415 51.880081300813,64.78658536585365 51.67682926829268,64.58333333333333 51.47357723577235,64.53252032520325 51.27032520325203,64.48170731707317 51.11788617886179,64.48170731707317 50.91463414634146,64.48170731707317 50.762195121951216,64.58333333333333" fill="none" stroke="black" stroke-width="0.6"></polyline><polyline points="50.762195121951216,64.58333333333333 50.55894308943089,64.73577235772358 50.40650406504065,64.98983739837398 50.2540650406504,65.34552845528455 50.10162601626016,65.80284552845528 50,66.36178861788618 49.89837398373984,67.07317073170732 49.89837398373984,67.78455284552845 49.89837398373984,68.69918699186992 49.949186991869915,69.71544715447155 50.05081300813008,70.73170731707317 50.2540650406504,71.69715447154472 50.45731707317073,72.61178861788618 50.71138211382114,73.27235772357723 51.016260162601625,73.78048780487805 51.37195121951219,74.1869918699187 51.77845528455284,74.4410569105691 52.1849593495935,74.64430894308943 52.540650406504064,74.79674796747967 52.896341463414636,74.89837398373983 53.2520325203252,74.94918699186992 53.607723577235774,75 53.91260162601626,75 54.21747967479675,75.10162601626016 54.573170731707314,75.15243902439025 54.72560975609756,75.20325203252033" fill="none" stroke="black" stroke-width="0.6"></polyline><polyline points="36.02642276422764,93.75 35.97560975609756,93.75 35.8739837398374,93.75 35.823170731707314,93.69918699186992 35.72154471544715,93.69918699186992 35.670731707317074,93.69918699186992 35.670731707317074,93.64837398373983 35.61991869918699,93.59756097560975 35.61991869918699,93.59756097560975 35.56910569105691,93.59756097560975 35.56910569105691,93.59756097560975 35.56910569105691,93.59756097560975 35.56910569105691,93.59756097560975 35.670731707317074,93.64837398373983 35.77235772357724,93.85162601626016 35.97560975609756,94.15650406504065 36.28048780487805,94.5630081300813 36.636178861788615,95.02032520325203 36.99186991869919,95.47764227642276 37.5,95.8841463414634 38.00813008130081,96.13821138211382 38.516260162601625,96.23983739837398 39.02439024390244,96.23983739837398 39.48170731707317,96.13821138211382 39.9390243902439,95.98577235772358 40.396341463414636,95.78252032520325 40.802845528455286,95.52845528455285 41.209349593495936,95.27439024390243 41.61585365853659,95.02032520325203 41.920731707317074,94.71544715447155 42.17479674796748,94.3089430894309 42.42886178861789,93.85162601626016 42.63211382113821,93.24186991869918 42.78455284552845,92.53048780487805 42.9369918699187,91.76829268292683 43.03861788617886,91.0060975609756 43.03861788617886,90.1930894308943 43.03861788617886,89.380081300813 42.98780487804878,88.61788617886178 42.83536585365854,87.85569105691057 42.63211382113821,87.1951219512195 42.479674796747965,86.63617886178862 42.327235772357724,86.22967479674797 42.17479674796748,85.92479674796748 42.02235772357724,85.77235772357723 41.920731707317074,85.619918699187 41.76829268292683,85.51829268292683 41.666666666666664,85.41666666666667 41.5650406504065,85.36585365853658 41.41260162601626,85.3150406504065 41.260162601626014,85.3150406504065" fill="none" stroke="black" stroke-width="0.6"></polyline><polyline points="41.260162601626014,85.3150406504065 41.15853658536585,85.41666666666667 41.00609756097561,85.5691056910569 40.90447154471545,85.8739837398374 40.802845528455286,86.28048780487805 40.7520325203252,86.83943089430895 40.7520325203252,87.44918699186992 40.7520325203252,88.10975609756098 40.802845528455286,88.92276422764228 40.95528455284553,89.73577235772358 41.15853658536585,90.65040650406503 41.36178861788618,91.51422764227642 41.666666666666664,92.3780487804878 41.97154471544715,93.24186991869918 42.327235772357724,93.90243902439025 42.733739837398375,94.41056910569105 43.140243902439025,94.71544715447155 43.49593495934959,94.86788617886178 43.90243902439024,95.02032520325203 44.359756097560975,95.0711382113821 44.8170731707317,95.1219512195122 45.27439024390244,95.1219512195122 45.78252032520325,95.0711382113821 46.1890243902439,94.91869918699187 46.59552845528455,94.76626016260163 47.0020325203252,94.51219512195122 47.357723577235774,94.20731707317073 47.66260162601626,93.80081300813008 47.916666666666664,93.24186991869918 48.06910569105691,92.6321138211382 48.170731707317074,91.869918699187 48.22154471544715,90.95528455284553 48.27235772357724,90.04065040650406 48.27235772357724,89.02439024390243 48.22154471544715,87.90650406504065 48.11991869918699,87.04268292682927 48.01829268292683,86.17886178861788 47.8150406504065,85.46747967479675 47.66260162601626,85.01016260162602 47.459349593495936,84.65447154471545 47.25609756097561,84.40040650406503 47.052845528455286,84.2479674796748 46.90040650406504,84.09552845528455 46.697154471544714,84.04471544715447 46.49390243902439,84.04471544715447 46.290650406504064,84.04471544715447 46.08739837398374,84.29878048780488 45.88414634146341,84.7560975609756 45.73170731707317,85.41666666666667 45.52845528455285,86.33130081300813 45.3760162601626,87.39837398373983" fill="none" stroke="black" stroke-width="0.6"></polyline><polyline points="45.3760162601626,87.39837398373983 45.27439024390244,88.61788617886178 45.27439024390244,90.04065040650406 45.42682926829268,91.46341463414635 45.73170731707317,92.6829268292683 46.08739837398374,93.69918699186992 46.49390243902439,94.46138211382113 47.0020325203252,95.1219512195122 47.5609756097561,95.57926829268293 48.06910569105691,95.8841463414634 48.52642276422764,96.13821138211382 49.03455284552845,96.23983739837398 49.4410569105691,96.29065040650406 49.89837398373984,96.29065040650406 50.355691056910565,96.23983739837398 50.762195121951216,96.08739837398373 51.11788617886179,95.83333333333333 51.47357723577235,95.47764227642276 51.77845528455284,95.02032520325203 52.083333333333336,94.41056910569105 52.33739837398374,93.69918699186992 52.540650406504064,92.9369918699187 52.74390243902439,92.1239837398374 52.947154471544714,91.26016260162602 53.048780487804876,90.4979674796748 53.15040650406504,89.6849593495935 53.201219512195124,88.92276422764228 53.201219512195124,88.26219512195122 53.201219512195124,87.65243902439025 53.09959349593496,87.09349593495935 52.9979674796748,86.53455284552845 52.84552845528455,85.92479674796748 52.642276422764226,85.46747967479675 52.4390243902439,85.0609756097561 52.1849593495935,84.7560975609756 51.981707317073166,84.65447154471545 51.77845528455284,84.55284552845528 51.575203252032516,84.55284552845528 51.37195121951219,84.55284552845528 51.168699186991866,84.60365853658537 50.91463414634146,84.7560975609756 50.71138211382114,85.01016260162602 50.55894308943089,85.46747967479675 50.355691056910565,86.17886178861788 50.203252032520325,86.99186991869918 50.10162601626016,87.90650406504065 50,89.02439024390243 50,90.09146341463415 50.10162601626016,91.10772357723577 50.30487804878049,92.02235772357723 50.609756097560975,92.73373983739837" fill="none" stroke="black" stroke-width="0.6"></polyline><polyline points="50.609756097560975,92.73373983739837 50.91463414634146,93.39430894308943 51.37195121951219,94.0040650406504 51.829268292682926,94.46138211382113 52.4390243902439,94.91869918699187 53.09959349593496,95.3760162601626 53.65853658536585,95.630081300813 54.26829268292683,95.78252032520325 54.8780487804878,95.83333333333333 55.386178861788615,95.8841463414634 55.94512195121951,95.83333333333333 56.453252032520325,95.68089430894308 56.859756097560975,95.52845528455285 57.3170731707317,95.22357723577235 57.77439024390244,94.91869918699187 57.97764227642276,94.76626016260163" fill="none" stroke="black" stroke-width="0.6"></polyline></svg>