<svg height="100" width="100" preserveAspectRatio="xMidYMid meet"><polyline points="50.2540650406504,50.30487804878049 50.2540650406504,50.30487804878049 50.2540650406504,50.30487804878049 50.2540650406504,50.30487804878049 50.203252032520325,50.30487804878049 50.203252032520325,50.30487804878049 50.203252032520325,50.30487804878049 50.203252032520325,50.30487804878049 50.203252032520325,50.30487804878049 50.203252032520325,50.30487804878049 50.203252032520325,50.30487804878049 50.203252032520325,50.30487804878049 50.15243902439024,50.30487804878049 50.15243902439024,50.30487804878049 50.15243902439024,50.30487804878049 50.15243902439024,50.30487804878049 50.15243902439024,50.30487804878049 50.15243902439024,50.30487804878049 50.203252032520325,50.30487804878049 50.2540650406504,50.30487804878049 50.30487804878049,50.30487804878049 50.355691056910565,50.30487804878049 50.45731707317073,50.30487804878049 50.609756097560975,50.30487804878049 50.71138211382114,50.30487804878049 50.86382113821138,50.2540650406504 51.016260162601625,50.2540650406504 51.168699186991866,50.203252032520325 51.32113821138211,50.15243902439024 51.422764227642276,50.10162601626016 51.52439024390244,50.05081300813008 51.67682926829268,50 51.77845528455284,49.949186991869915 51.880081300813,49.89837398373984 51.981707317073166,49.796747967479675 52.083333333333336,49.74593495934959 52.1849593495935,49.64430894308943 52.235772357723576,49.542682926829265 52.28658536585366,49.4410569105691 52.33739837398374,49.33943089430894 52.38821138211382,49.23780487804878 52.4390243902439,49.136178861788615 52.489837398373986,49.03455284552845 52.540650406504064,48.88211382113821 52.642276422764226,48.78048780487805 52.74390243902439,48.6280487804878 52.79471544715447,48.52642276422764 52.84552845528455,48.42479674796748 52.896341463414636,48.3739837398374 52.947154471544714,48.27235772357724 52.947154471544714,48.22154471544715" fill="none" stroke="black" stroke-width="0.6"></polyline><polyline points="52.947154471544714,48.22154471544715 52.9979674796748,48.11991869918699 53.048780487804876,48.01829268292683 53.048780487804876,47.86585365853659 53.09959349593496,47.764227642276424 53.15040650406504,47.61178861788618 53.15040650406504,47.459349593495936 53.201219512195124,47.30691056910569 53.2520325203252,47.20528455284553 53.302845528455286,47.103658536585364 53.302845528455286,47.0020325203252 53.353658536585364,46.951219512195124 53.40447154471545,46.84959349593496 53.40447154471545,46.798780487804876 53.45528455284553,46.697154471544714 53.50609756097561,46.54471544715447 53.50609756097561,46.392276422764226 53.55691056910569,46.1890243902439 53.607723577235774,45.985772357723576 53.65853658536585,45.73170731707317 53.709349593495936,45.52845528455285 53.760162601626014,45.325203252032516 53.760162601626014,45.172764227642276 53.8109756097561,45.02032520325203 53.8109756097561,44.86788617886179 53.8109756097561,44.766260162601625 53.8109756097561,44.61382113821138 53.8109756097561,44.46138211382114 53.8109756097561,44.30894308943089 53.8109756097561,44.15650406504065 53.760162601626014,43.953252032520325 53.760162601626014,43.80081300813008 53.709349593495936,43.64837398373984 53.65853658536585,43.49593495934959 53.607723577235774,43.39430894308943 53.50609756097561,43.24186991869919 53.45528455284553,43.140243902439025 53.353658536585364,43.03861788617886 53.302845528455286,42.9369918699187 53.15040650406504,42.83536585365854 53.048780487804876,42.733739837398375 52.947154471544714,42.63211382113821 52.79471544715447,42.58130081300813 52.642276422764226,42.479674796747965 52.489837398373986,42.42886178861789 52.33739837398374,42.327235772357724 52.1849593495935,42.27642276422764 52.03252032520325,42.27642276422764 51.880081300813,42.22560975609756 51.67682926829268,42.22560975609756 51.47357723577235,42.22560975609756" fill="none" stroke="black" stroke-width="0.6"></polyline><polyline points="51.47357723577235,42.22560975609756 51.27032520325203,42.22560975609756 51.0670731707317,42.22560975609756 50.86382113821138,42.27642276422764 50.66056910569105,42.327235772357724 50.45731707317073,42.3780487804878 50.30487804878049,42.42886178861789 50.10162601626016,42.53048780487805 49.89837398373984,42.63211382113821 49.74593495934959,42.733739837398375 49.542682926829265,42.83536585365854 49.33943089430894,42.9369918699187 49.136178861788615,43.03861788617886 48.983739837398375,43.140243902439025 48.78048780487805,43.292682926829265 48.6280487804878,43.39430894308943 48.42479674796748,43.546747967479675 48.27235772357724,43.699186991869915 48.11991869918699,43.90243902439024 47.96747967479675,44.05487804878049 47.8150406504065,44.25813008130081 47.66260162601626,44.41056910569105 47.510162601626014,44.61382113821138 47.357723577235774,44.8170731707317 47.15447154471545,45.02032520325203 47.0020325203252,45.27439024390244 46.84959349593496,45.47764227642276 46.697154471544714,45.68089430894309 46.59552845528455,45.9349593495935 46.49390243902439,46.13821138211382 46.34146341463415,46.34146341463415 46.239837398373986,46.59552845528455 46.13821138211382,46.798780487804876 46.03658536585366,47.052845528455286 45.9349593495935,47.30691056910569 45.833333333333336,47.5609756097561 45.73170731707317,47.86585365853659 45.63008130081301,48.11991869918699 45.52845528455285,48.42479674796748 45.42682926829268,48.729674796747965 45.3760162601626,48.983739837398375 45.27439024390244,49.23780487804878 45.172764227642276,49.542682926829265 45.12195121951219,49.89837398373984 45.02032520325203,50.2540650406504 44.96951219512195,50.609756097560975 44.86788617886179,50.96544715447154 44.86788617886179,51.27032520325203 44.8170731707317,51.6260162601626 44.8170731707317,51.880081300813 44.8170731707317,52.1849593495935" fill="none" stroke="black" stroke-width="0.6"></polyline><polyline points="44.8170731707317,52.1849593495935 44.8170731707317,52.489837398373986 44.86788617886179,52.79471544715447 44.918699186991866,53.09959349593496 44.96951219512195,53.45528455284553 45.07113821138211,53.760162601626014 45.172764227642276,54.0650406504065 45.27439024390244,54.420731707317074 45.3760162601626,54.67479674796748 45.47764227642276,54.92886178861789 45.63008130081301,55.13211382113821 45.78252032520325,55.33536585365854 45.9349593495935,55.53861788617886 46.13821138211382,55.74186991869919 46.34146341463415,55.94512195121951 46.54471544715447,56.14837398373984 46.7479674796748,56.35162601626016 47.0020325203252,56.5040650406504 47.20528455284553,56.65650406504065 47.459349593495936,56.80894308943089 47.71341463414634,56.91056910569105 48.01829268292683,57.0630081300813 48.323170731707314,57.16463414634146 48.577235772357724,57.266260162601625 48.88211382113821,57.36788617886179 49.1869918699187,57.418699186991866 49.49186991869919,57.46951219512195 49.796747967479675,57.52032520325203 50.10162601626016,57.57113821138211 50.40650406504065,57.57113821138211 50.71138211382114,57.57113821138211 51.0670731707317,57.57113821138211 51.37195121951219,57.52032520325203 51.67682926829268,57.46951219512195 52.03252032520325,57.36788617886179 52.33739837398374,57.266260162601625 52.642276422764226,57.11382113821138 52.947154471544714,57.012195121951216 53.2520325203252,56.859756097560975 53.55691056910569,56.65650406504065 53.86178861788618,56.5040650406504 54.11585365853659,56.30081300813008 54.420731707317074,56.09756097560975 54.72560975609756,55.792682926829265 54.979674796747965,55.58943089430894 55.233739837398375,55.33536585365854 55.48780487804878,55.08130081300813 55.74186991869919,54.8780487804878 55.99593495934959,54.573170731707314 56.25,54.36991869918699 56.453252032520325,54.11585365853659" fill="none" stroke="black" stroke-width="0.6"></polyline><polyline points="56.453252032520325,54.11585365853659 56.70731707317073,53.86178861788618 56.91056910569105,53.607723577235774 57.11382113821138,53.353658536585364 57.36788617886179,53.048780487804876 57.57113821138211,52.79471544715447 57.77439024390244,52.489837398373986 57.92682926829268,52.1849593495935 58.130081300813,51.93089430894309 58.28252032520325,51.67682926829268 58.43495934959349,51.37195121951219 58.58739837398374,51.11788617886179 58.739837398373986,50.86382113821138 58.84146341463415,50.55894308943089 58.94308943089431,50.30487804878049 59.04471544715447,50 59.09552845528455,49.64430894308943 59.146341463414636,49.28861788617886 59.197154471544714,48.93292682926829 59.2479674796748,48.52642276422764 59.2479674796748,48.170731707317074 59.2479674796748,47.8150406504065 59.298780487804876,47.459349593495936 59.298780487804876,47.15447154471545 59.298780487804876,46.90040650406504 59.2479674796748,46.646341463414636 59.197154471544714,46.392276422764226 59.09552845528455,46.08739837398374 59.04471544715447,45.78252032520325 58.94308943089431,45.47764227642276 58.84146341463415,45.172764227642276 58.739837398373986,44.86788617886179 58.58739837398374,44.5630081300813 58.43495934959349,44.30894308943089 58.28252032520325,44.0040650406504 58.130081300813,43.80081300813008 58.02845528455284,43.546747967479675 57.8760162601626,43.292682926829265 57.72357723577235,43.03861788617886 57.57113821138211,42.78455284552845 57.46951219512195,42.53048780487805 57.3170731707317,42.327235772357724 57.16463414634146,42.1239837398374 56.96138211382114,41.86991869918699 56.75813008130081,41.71747967479675 56.55487804878049,41.514227642276424 56.35162601626016,41.3109756097561 56.14837398373984,41.15853658536585 55.89430894308943,41.05691056910569 55.640243902439025,40.90447154471545 55.4369918699187,40.7520325203252" fill="none" stroke="black" stroke-width="0.6"></polyline><polyline points="55.4369918699187,40.7520325203252 55.18292682926829,40.65040650406504 54.92886178861789,40.4979674796748 54.67479674796748,40.396341463414636 54.47154471544715,40.29471544715447 54.21747967479675,40.142276422764226 54.014227642276424,40.040650406504064 53.8109756097561,39.9390243902439 53.607723577235774,39.83739837398374 53.40447154471545,39.78658536585366 53.201219512195124,39.6849593495935 52.9979674796748,39.583333333333336 52.74390243902439,39.53252032520325 52.540650406504064,39.43089430894309 52.33739837398374,39.38008130081301 52.13414634146341,39.329268292682926 51.880081300813,39.27845528455285 51.67682926829268,39.22764227642276 51.47357723577235,39.22764227642276 51.21951219512195,39.176829268292686 50.96544715447154,39.176829268292686 50.71138211382114,39.176829268292686 50.45731707317073,39.1260162601626 50.203252032520325,39.1260162601626 49.949186991869915,39.1260162601626 49.69512195121951,39.1260162601626 49.4410569105691,39.176829268292686 49.136178861788615,39.22764227642276 48.83130081300813,39.27845528455285 48.577235772357724,39.329268292682926 48.323170731707314,39.43089430894309 48.01829268292683,39.48170731707317 47.764227642276424,39.583333333333336 47.459349593495936,39.6849593495935 47.15447154471545,39.83739837398374 46.84959349593496,39.989837398373986 46.49390243902439,40.142276422764226 46.13821138211382,40.34552845528455 45.833333333333336,40.548780487804876 45.47764227642276,40.7520325203252 45.12195121951219,40.95528455284553 44.766260162601625,41.15853658536585 44.41056910569105,41.41260162601626 44.05487804878049,41.71747967479675 43.75,41.920731707317074 43.44512195121951,42.22560975609756 43.08943089430894,42.479674796747965 42.78455284552845,42.733739837398375 42.53048780487805,42.98780487804878 42.22560975609756,43.24186991869919 41.97154471544715,43.546747967479675" fill="none" stroke="black" stroke-width="0.6"></polyline><polyline points="41.97154471544715,43.546747967479675 41.71747967479675,43.90243902439024 41.46341463414634,44.25813008130081 41.209349593495936,44.61382113821138 41.00609756097561,45.02032520325203 40.802845528455286,45.42682926829268 40.59959349593496,45.88414634146341 40.396341463414636,46.392276422764226 40.19308943089431,46.90040650406504 40.040650406504064,47.40853658536585 39.9390243902439,47.86585365853659 39.78658536585366,48.323170731707314 39.6849593495935,48.78048780487805 39.583333333333336,49.23780487804878 39.53252032520325,49.74593495934959 39.43089430894309,50.203252032520325 39.38008130081301,50.71138211382114 39.38008130081301,51.21951219512195 39.38008130081301,51.67682926829268 39.38008130081301,52.1849593495935 39.38008130081301,52.69308943089431 39.38008130081301,53.201219512195124 39.48170731707317,53.709349593495936 39.53252032520325,54.21747967479675 39.63414634146341,54.67479674796748 39.735772357723576,55.13211382113821 39.83739837398374,55.58943089430894 39.989837398373986,56.046747967479675 40.142276422764226,56.5040650406504 40.29471544715447,56.96138211382114 40.4979674796748,57.46951219512195 40.701219512195124,57.92682926829268 40.90447154471545,58.43495934959349 41.107723577235774,58.790650406504064 41.3109756097561,59.197154471544714 41.5650406504065,59.552845528455286 41.81910569105691,59.857723577235774 42.1239837398374,60.21341463414634 42.42886178861789,60.56910569105691 42.733739837398375,60.92479674796748 43.08943089430894,61.229674796747965 43.39430894308943,61.53455284552845 43.75,61.83943089430894 44.105691056910565,62.14430894308943 44.41056910569105,62.39837398373984 44.766260162601625,62.65243902439024 45.172764227642276,62.90650406504065 45.579268292682926,63.109756097560975 45.985772357723576,63.262195121951216 46.44308943089431,63.46544715447154 46.90040650406504,63.61788617886179" fill="none" stroke="black" stroke-width="0.6"></polyline><polyline points="46.90040650406504,63.61788617886179 47.357723577235774,63.77032520325203 47.86585365853659,63.87195121951219 48.323170731707314,63.97357723577235 48.78048780487805,64.07520325203252 49.28861788617886,64.17682926829268 49.74593495934959,64.27845528455285 50.2540650406504,64.380081300813 50.8130081300813,64.43089430894308 51.32113821138211,64.43089430894308 51.880081300813,64.43089430894308 52.4390243902439,64.43089430894308 52.947154471544714,64.43089430894308 53.45528455284553,64.380081300813 53.96341463414634,64.32926829268293 54.47154471544715,64.27845528455285 54.979674796747965,64.17682926829268 55.53861788617886,64.07520325203252 56.046747967479675,63.922764227642276 56.55487804878049,63.77032520325203 57.0630081300813,63.516260162601625 57.57113821138211,63.21138211382114 58.02845528455284,62.90650406504065 58.536585365853654,62.60162601626016 58.99390243902439,62.296747967479675 59.40040650406504,61.99186991869919 59.857723577235774,61.636178861788615 60.264227642276424,61.33130081300813 60.72154471544715,60.97560975609756 61.077235772357724,60.56910569105691 61.483739837398375,60.21341463414634 61.83943089430894,59.80691056910569 62.19512195121951,59.451219512195124 62.5,59.04471544715447 62.80487804878049,58.6890243902439 63.109756097560975,58.28252032520325 63.36382113821138,57.92682926829268 63.61788617886179,57.62195121951219 63.87195121951219,57.266260162601625 64.07520325203252,56.91056910569105 64.32926829268293,56.55487804878049 64.53252032520325,56.199186991869915 64.73577235772358,55.84349593495935 64.88821138211382,55.4369918699187 65.09146341463415,55.03048780487805 65.1930894308943,54.6239837398374 65.34552845528455,54.11585365853659 65.39634146341463,53.607723577235774 65.44715447154472,53.09959349593496 65.54878048780488,52.59146341463415 65.59959349593495,52.13414634146341" fill="none" stroke="black" stroke-width="0.6"></polyline><polyline points="65.59959349593495,52.13414634146341 65.59959349593495,51.67682926829268 65.65040650406505,51.168699186991866 65.65040650406505,50.762195121951216 65.65040650406505,50.2540650406504 65.65040650406505,49.69512195121951 65.65040650406505,49.1869918699187 65.65040650406505,48.6280487804878 65.65040650406505,48.01829268292683 65.59959349593495,47.459349593495936 65.54878048780488,46.951219512195124 65.4979674796748,46.34146341463415 65.39634146341463,45.833333333333336 65.29471544715447,45.325203252032516 65.1930894308943,44.766260162601625 65.04065040650406,44.30894308943089 64.9390243902439,43.80081300813008 64.73577235772358,43.292682926829265 64.58333333333333,42.886178861788615 64.380081300813,42.42886178861789 64.17682926829268,42.02235772357724 63.922764227642276,41.61585365853659 63.668699186991866,41.260162601626014 63.41463414634146,40.90447154471545 63.16056910569105,40.59959349593496 62.90650406504065,40.24390243902439 62.60162601626016,39.88821138211382 62.34756097560975,39.583333333333336 62.09349593495935,39.27845528455285 61.78861788617886,38.922764227642276 61.53455284552845,38.668699186991866 61.229674796747965,38.36382113821138 60.8739837398374,38.05894308943089 60.56910569105691,37.7540650406504 60.21341463414634,37.449186991869915 59.90853658536585,37.09349593495935 59.552845528455286,36.83943089430894 59.2479674796748,36.53455284552845 58.892276422764226,36.28048780487805 58.536585365853654,36.077235772357724 58.231707317073166,35.8739837398374 57.8760162601626,35.670731707317074 57.52032520325203,35.51829268292683 57.11382113821138,35.3150406504065 56.70731707317073,35.11178861788618 56.30081300813008,34.90853658536585 55.89430894308943,34.70528455284553 55.386178861788615,34.5020325203252 54.979674796747965,34.34959349593496 54.52235772357724,34.2479674796748 54.0650406504065,34.09552845528455" fill="none" stroke="black" stroke-width="0.6"></polyline><polyline points="54.0650406504065,34.09552845528455 53.607723577235774,33.99390243902439 53.15040650406504,33.94308943089431 52.69308943089431,33.84146341463415 52.28658536585366,33.84146341463415 51.829268292682926,33.790650406504064 51.32113821138211,33.790650406504064 50.86382113821138,33.790650406504064 50.40650406504065,33.790650406504064 49.89837398373984,33.790650406504064 49.390243902439025,33.84146341463415 48.88211382113821,33.892276422764226 48.3739837398374,33.94308943089431 47.86585365853659,34.04471544715447 47.40853658536585,34.09552845528455 46.84959349593496,34.2479674796748 46.392276422764226,34.34959349593496 45.88414634146341,34.451219512195124 45.3760162601626,34.603658536585364 44.918699186991866,34.80691056910569 44.359756097560975,34.959349593495936 43.90243902439024,35.16260162601626 43.39430894308943,35.36585365853659 42.886178861788615,35.61991869918699 42.3780487804878,35.823170731707314 41.86991869918699,36.077235772357724 41.36178861788618,36.38211382113821 40.90447154471545,36.636178861788615 40.396341463414636,36.890243902439025 39.88821138211382,37.24593495934959 39.43089430894309,37.60162601626016 38.922764227642276,37.95731707317073 38.41463414634146,38.36382113821138 38.00813008130081,38.71951219512195 37.55081300813008,39.1260162601626 37.09349593495935,39.63414634146341 36.6869918699187,40.09146341463415 36.33130081300813,40.548780487804876 35.92479674796748,41.05691056910569 35.61991869918699,41.46341463414634 35.264227642276424,41.97154471544715 34.959349593495936,42.53048780487805 34.70528455284553,43.03861788617886 34.451219512195124,43.546747967479675 34.197154471544714,44.105691056910565 33.94308943089431,44.5630081300813 33.739837398373986,45.07113821138211 33.53658536585366,45.579268292682926 33.38414634146341,46.13821138211382 33.18089430894309,46.7479674796748 33.02845528455285,47.357723577235774" fill="none" stroke="black" stroke-width="0.6"></polyline><polyline points="33.02845528455285,47.357723577235774 32.926829268292686,47.916666666666664 32.82520325203252,48.52642276422764 32.72357723577236,49.23780487804878 32.672764227642276,49.796747967479675 32.6219512195122,50.40650406504065 32.6219512195122,51.016260162601625 32.6219512195122,51.52439024390244 32.6219512195122,52.083333333333336 32.72357723577236,52.642276422764226 32.77439024390244,53.201219512195124 32.926829268292686,53.760162601626014 33.02845528455285,54.36991869918699 33.18089430894309,54.92886178861789 33.333333333333336,55.53861788617886 33.53658536585366,56.14837398373984 33.6890243902439,56.70731707317073 33.94308943089431,57.266260162601625 34.146341463414636,57.825203252032516 34.40040650406504,58.38414634146341 34.65447154471545,58.94308943089431 34.959349593495936,59.5020325203252 35.21341463414634,60.0609756097561 35.51829268292683,60.56910569105691 35.8739837398374,61.1280487804878 36.229674796747965,61.636178861788615 36.58536585365854,62.09349593495935 36.9410569105691,62.449186991869915 37.296747967479675,62.855691056910565 37.65243902439024,63.262195121951216 38.05894308943089,63.61788617886179 38.46544715447154,63.97357723577235 38.87195121951219,64.32926829268293 39.329268292682926,64.6849593495935 39.6849593495935,65.04065040650406 40.09146341463415,65.39634146341463 40.548780487804876,65.70121951219512 40.95528455284553,65.95528455284553 41.36178861788618,66.20934959349593 41.81910569105691,66.46341463414635 42.27642276422764,66.71747967479675 42.733739837398375,66.97154471544715 43.140243902439025,67.22560975609755 43.59756097560975,67.42886178861788 44.05487804878049,67.6829268292683 44.512195121951216,67.88617886178862 44.96951219512195,68.08943089430895 45.47764227642276,68.24186991869918 45.9349593495935,68.34349593495935 46.392276422764226,68.4451219512195 46.84959349593496,68.54674796747967" fill="none" stroke="black" stroke-width="0.6"></polyline><polyline points="46.84959349593496,68.54674796747967 47.30691056910569,68.64837398373983 47.8150406504065,68.75 48.323170731707314,68.85162601626016 48.78048780487805,68.90243902439025 49.28861788617886,69.0040650406504 49.84756097560975,69.05487804878048 50.30487804878049,69.05487804878048 50.8130081300813,69.05487804878048 51.37195121951219,69.10569105691057 51.829268292682926,69.10569105691057 52.28658536585366,69.10569105691057 52.74390243902439,69.10569105691057 53.201219512195124,69.05487804878048 53.607723577235774,69.0040650406504 54.11585365853659,68.95325203252033 54.52235772357724,68.90243902439025 54.92886178861789,68.85162601626016 55.33536585365854,68.75 55.6910569105691,68.64837398373983 56.09756097560975,68.59756097560975 56.5040650406504,68.4959349593496 56.859756097560975,68.4451219512195 57.21544715447154,68.34349593495935 57.62195121951219,68.24186991869918 57.97764227642276,68.14024390243902 58.33333333333333,67.98780487804878 58.739837398373986,67.83536585365853 59.09552845528455,67.6829268292683 59.451219512195124,67.53048780487805 59.80691056910569,67.32723577235772 60.16260162601626,67.17479674796748 60.51829268292683,66.97154471544715 60.823170731707314,66.8191056910569 61.1280487804878,66.61585365853658 61.483739837398375,66.41260162601625 61.78861788617886,66.15853658536585 62.09349593495935,65.90447154471545 62.39837398373984,65.70121951219512 62.7540650406504,65.39634146341463 63.00813008130081,65.14227642276423 63.3130081300813,64.88821138211382 63.61788617886179,64.58333333333333 63.87195121951219,64.32926829268293 64.1260162601626,64.07520325203252 64.43089430894308,63.77032520325203 64.6849593495935,63.516260162601625 64.98983739837398,63.21138211382114 65.2439024390244,62.90650406504065 65.44715447154472,62.55081300813008 65.70121951219512,62.24593495934959" fill="none" stroke="black" stroke-width="0.6"></polyline><polyline points="65.70121951219512,62.24593495934959 65.95528455284553,61.9410569105691 66.15853658536585,61.6869918699187 66.36178861788618,61.38211382113821 66.5650406504065,61.1280487804878 66.76829268292683,60.823170731707314 66.97154471544715,60.56910569105691 67.17479674796748,60.264227642276424 67.32723577235772,59.959349593495936 67.47967479674797,59.65447154471545 67.6321138211382,59.40040650406504 67.78455284552845,59.146341463414636 67.98780487804878,58.84146341463415 68.08943089430895,58.63821138211382 68.29268292682927,58.38414634146341 68.4451219512195,58.18089430894309 68.59756097560975,57.92682926829268 68.75,57.72357723577235 68.90243902439025,57.418699186991866 69.0040650406504,57.16463414634146 69.15650406504065,56.91056910569105 69.2581300813008,56.55487804878049 69.35975609756098,56.25 69.46138211382113,55.99593495934959 69.5630081300813,55.6910569105691 69.61382113821138,55.4369918699187 69.71544715447155,55.18292682926829 69.8170731707317,54.92886178861789 69.91869918699187,54.67479674796748 70.02032520325203,54.36991869918699 70.1219512195122,54.014227642276424 70.22357723577235,53.709349593495936 70.3760162601626,53.353658536585364 70.52845528455285,52.947154471544714 70.68089430894308,52.59146341463415 70.83333333333333,52.1849593495935 71.03658536585365,51.72764227642276 71.1890243902439,51.32113821138211 71.34146341463415,50.8130081300813 71.54471544715447,50.2540650406504 71.7479674796748,49.69512195121951 71.90040650406505,49.03455284552845 72.10365853658537,48.42479674796748 72.2560975609756,47.8150406504065 72.40853658536585,47.20528455284553 72.51016260162602,46.59552845528455 72.66260162601625,45.985772357723576 72.71341463414635,45.325203252032516 72.8150406504065,44.66463414634146 72.86585365853658,44.0040650406504 72.91666666666667,43.292682926829265" fill="none" stroke="black" stroke-width="0.6"></polyline><polyline points="72.91666666666667,43.292682926829265 72.96747967479675,42.63211382113821 72.96747967479675,42.073170731707314 72.96747967479675,41.514227642276424 72.96747967479675,40.95528455284553 72.91666666666667,40.447154471544714 72.86585365853658,39.9390243902439 72.76422764227642,39.43089430894309 72.66260162601625,38.922764227642276 72.51016260162602,38.36382113821138 72.35772357723577,37.80487804878049 72.20528455284553,37.296747967479675 72.0020325203252,36.78861788617886 71.7479674796748,36.28048780487805 71.54471544715447,35.823170731707314 71.29065040650406,35.416666666666664 70.98577235772358,35.0609756097561 70.73170731707317,34.70528455284553 70.42682926829268,34.298780487804876 70.0711382113821,33.94308943089431 69.71544715447155,33.58739837398374 69.35975609756098,33.23170731707317 68.95325203252033,32.8760162601626 68.54674796747967,32.52032520325203 68.08943089430895,32.16463414634146 67.6321138211382,31.808943089430894 67.17479674796748,31.504065040650406 66.66666666666667,31.19918699186992 66.15853658536585,30.89430894308943 65.65040650406505,30.640243902439025 65.14227642276423,30.335365853658537 64.6341463414634,30.08130081300813 64.07520325203252,29.776422764227643 63.46544715447154,29.522357723577237 62.95731707317073,29.268292682926827 62.39837398373984,29.0650406504065 61.78861788617886,28.810975609756095 61.28048780487805,28.60772357723577 60.72154471544715,28.404471544715445 60.0609756097561,28.20121951219512 59.5020325203252,28.048780487804876 58.892276422764226,27.896341463414632 58.28252032520325,27.74390243902439 57.72357723577235,27.642276422764226 57.11382113821138,27.489837398373982 56.453252032520325,27.38821138211382 55.84349593495935,27.286585365853657 55.233739837398375,27.184959349593495 54.573170731707314,27.134146341463413 53.96341463414634,27.083333333333332 53.353658536585364,27.083333333333332" fill="none" stroke="black" stroke-width="0.6"></polyline><polyline points="53.353658536585364,27.083333333333332 52.642276422764226,27.083333333333332 52.083333333333336,27.083333333333332 51.47357723577235,27.083333333333332 50.762195121951216,27.134146341463413 50.15243902439024,27.184959349593495 49.49186991869919,27.235772357723576 48.78048780487805,27.286585365853657 48.11991869918699,27.38821138211382 47.459349593495936,27.540650406504064 46.7479674796748,27.693089430894307 46.08739837398374,27.896341463414632 45.42682926829268,28.048780487804876 44.71544715447154,28.2520325203252 44.05487804878049,28.455284552845526 43.34349593495935,28.65853658536585 42.63211382113821,28.861788617886177 42.02235772357724,29.115853658536583 41.3109756097561,29.31910569105691 40.65040650406504,29.6239837398374 39.989837398373986,29.878048780487806 39.329268292682926,30.182926829268293 38.668699186991866,30.48780487804878 38.05894308943089,30.79268292682927 37.39837398373984,31.097560975609756 36.73780487804878,31.453252032520325 36.1280487804878,31.808943089430894 35.416666666666664,32.16463414634146 34.75609756097561,32.6219512195122 34.09552845528455,33.079268292682926 33.4349593495935,33.63821138211382 32.77439024390244,34.197154471544714 32.21544715447154,34.75609756097561 31.60569105691057,35.36585365853659 31.046747967479675,35.92479674796748 30.538617886178862,36.53455284552845 29.979674796747968,37.14430894308943 29.471544715447155,37.7540650406504 29.01422764227642,38.36382113821138 28.60772357723577,39.02439024390244 28.20121951219512,39.63414634146341 27.79471544715447,40.24390243902439 27.4390243902439,40.90447154471545 27.083333333333332,41.5650406504065 26.778455284552845,42.22560975609756 26.473577235772357,42.9369918699187 26.21951219512195,43.59756097560975 25.965447154471544,44.25813008130081 25.711382113821138,45.02032520325203 25.558943089430894,45.68089430894309 25.40650406504065,46.392276422764226" fill="none" stroke="black" stroke-width="0.6"></polyline><polyline points="25.40650406504065,46.392276422764226 25.254065040650406,47.15447154471545 25.203252032520325,47.8150406504065 25.152439024390244,48.577235772357724 25.101626016260163,49.390243902439025 25.101626016260163,50.10162601626016 25.101626016260163,50.8130081300813 25.101626016260163,51.67682926829268 25.152439024390244,52.4390243902439 25.254065040650406,53.302845528455286 25.35569105691057,54.26829268292683 25.508130081300813,55.13211382113821 25.609756097560975,56.046747967479675 25.8130081300813,56.96138211382114 25.965447154471544,57.72357723577235 26.21951219512195,58.536585365853654 26.473577235772357,59.40040650406504 26.778455284552845,60.11178861788618 27.134146341463413,60.92479674796748 27.489837398373982,61.78861788617886 27.896341463414632,62.5 28.353658536585364,63.3130081300813 28.861788617886177,64.1260162601626 29.31910569105691,64.83739837398373 29.776422764227643,65.54878048780488 30.335365853658537,66.3109756097561 30.84349593495935,66.97154471544715 31.351626016260163,67.6321138211382 31.961382113821138,68.34349593495935 32.46951219512195,68.85162601626016 33.13008130081301,69.46138211382113 33.790650406504064,70.0711382113821 34.451219512195124,70.57926829268293 35.11178861788618,70.98577235772358 35.8739837398374,71.4430894308943 36.58536585365854,71.84959349593495 37.296747967479675,72.20528455284553 38.109756097560975,72.61178861788618 38.922764227642276,72.96747967479675 39.735772357723576,73.32317073170732 40.59959349593496,73.57723577235772 41.41260162601626,73.83130081300813 42.22560975609756,74.03455284552845 43.08943089430894,74.23780487804878 43.85162601626016,74.4410569105691 44.66463414634146,74.59349593495935 45.47764227642276,74.79674796747967 46.290650406504064,74.89837398373983 47.052845528455286,75.05081300813008 47.916666666666664,75.15243902439025 48.729674796747965,75.20325203252033" fill="none" stroke="black" stroke-width="0.6"></polyline><polyline points="48.729674796747965,75.20325203252033 49.542682926829265,75.20325203252033 50.355691056910565,75.20325203252033 51.168699186991866,75.15243902439025 52.03252032520325,75.10162601626016 52.84552845528455,75 53.607723577235774,74.94918699186992 54.420731707317074,74.89837398373983 55.18292682926829,74.84756097560975 55.94512195121951,74.7459349593496 56.70731707317073,74.64430894308943 57.418699186991866,74.49186991869918 58.130081300813,74.28861788617886 58.84146341463415,74.08536585365853 59.552845528455286,73.83130081300813 60.21341463414634,73.57723577235772 60.97560975609756,73.27235772357723 61.58536585365854,73.01829268292683 62.24593495934959,72.71341463414635 62.95731707317073,72.40853658536585 63.5670731707317,72.10365853658537 64.17682926829268,71.7479674796748 64.83739837398373,71.39227642276423 65.39634146341463,71.03658536585365 66.0060975609756,70.68089430894308 66.61585365853658,70.32520325203252 67.1239837398374,69.96951219512195 67.6829268292683,69.5630081300813 68.24186991869918,69.20731707317073 68.69918699186992,68.85162601626016 69.20731707317073,68.4959349593496 69.71544715447155,68.14024390243902 70.17276422764228,67.78455284552845 70.57926829268293,67.42886178861788 71.08739837398373,67.02235772357723 71.49390243902438,66.66666666666667 71.90040650406505,66.3109756097561 72.3069105691057,65.85365853658537 72.66260162601625,65.4979674796748 73.01829268292683,65.09146341463415 73.3739837398374,64.6341463414634 73.67886178861788,64.27845528455285 73.98373983739837,63.97357723577235 74.33943089430895,63.5670731707317 74.59349593495935,63.21138211382114 74.84756097560975,62.855691056910565 75.10162601626016,62.449186991869915 75.30487804878048,62.042682926829265 75.5589430894309,61.636178861788615 75.76219512195122,61.17886178861789 75.96544715447155,60.77235772357724" fill="none" stroke="black" stroke-width="0.6"></polyline><polyline points="75.96544715447155,60.77235772357724 76.16869918699187,60.36585365853659 76.3719512195122,60.010162601626014 76.57520325203252,59.65447154471545 76.72764227642276,59.298780487804876 76.93089430894308,58.892276422764226 77.03252032520325,58.536585365853654 77.1849593495935,58.079268292682926 77.28658536585365,57.62195121951219 77.33739837398373,57.16463414634146 77.38821138211382,56.70731707317073 77.48983739837398,56.25 77.54065040650406,55.89430894308943 77.59146341463415,55.53861788617886 77.59146341463415,55.18292682926829 77.64227642276423,54.8780487804878 77.64227642276423,54.52235772357724 77.6930894308943,54.21747967479675 77.6930894308943,53.86178861788618 77.64227642276423,53.45528455284553 77.64227642276423,53.048780487804876 77.59146341463415,52.69308943089431 77.54065040650406,52.33739837398374 77.48983739837398,52.03252032520325 77.48983739837398,51.77845528455284 77.4390243902439,51.575203252032516 77.38821138211382,51.32113821138211 77.33739837398373,51.11788617886179 77.28658536585365,50.86382113821138 77.28658536585365,50.55894308943089 77.23577235772358,50.355691056910565 77.23577235772358,50.10162601626016 77.23577235772358,49.89837398373984 77.23577235772358,49.796747967479675 77.23577235772358,49.69512195121951 77.23577235772358,49.64430894308943 77.1849593495935,49.64430894308943 77.1849593495935,49.64430894308943 77.1849593495935,49.64430894308943 77.1849593495935,49.64430894308943 77.1849593495935,49.64430894308943 77.1849593495935,49.64430894308943 77.1849593495935,49.64430894308943 77.1849593495935,49.64430894308943 77.1849593495935,49.64430894308943 77.1849593495935,49.69512195121951 77.1849593495935,49.69512195121951 77.1849593495935,49.69512195121951 77.1849593495935,49.69512195121951 77.1849593495935,49.69512195121951 77.28658536585365,49.69512195121951" fill="none" stroke="black" stroke-width="0.6"></polyline><polyline points="77.28658536585365,49.69512195121951" fill="none" stroke="black" stroke-width="0.6"></polyline></svg>