<svg height="100" width="100" preserveAspectRatio="xMidYMid meet"><polyline points="49.28861788617886,50.10162601626016 49.28861788617886,50.10162601626016 49.28861788617886,50.05081300813008 49.28861788617886,50.05081300813008 49.28861788617886,50.05081300813008 49.28861788617886,50.05081300813008 49.28861788617886,50 49.28861788617886,50 49.28861788617886,50 49.28861788617886,50 49.28861788617886,50 49.28861788617886,49.949186991869915 49.28861788617886,49.949186991869915 49.28861788617886,49.949186991869915 49.28861788617886,49.949186991869915 49.33943089430894,49.949186991869915 49.33943089430894,49.949186991869915 49.33943089430894,49.949186991869915 49.33943089430894,49.949186991869915 49.33943089430894,49.949186991869915 49.390243902439025,49.949186991869915 49.390243902439025,49.949186991869915 49.4410569105691,50 49.542682926829265,50.05081300813008 49.59349593495935,50.10162601626016 49.69512195121951,50.15243902439024 49.796747967479675,50.203252032520325 49.89837398373984,50.2540650406504 50,50.30487804878049 50.10162601626016,50.355691056910565 50.2540650406504,50.355691056910565 50.355691056910565,50.40650406504065 50.45731707317073,50.45731707317073 50.55894308943089,50.45731707317073 50.66056910569105,50.45731707317073 50.762195121951216,50.50813008130081 50.86382113821138,50.50813008130081 50.96544715447154,50.50813008130081 51.11788617886179,50.50813008130081 51.27032520325203,50.45731707317073 51.37195121951219,50.40650406504065 51.575203252032516,50.355691056910565 51.72764227642276,50.30487804878049 51.93089430894309,50.2540650406504 52.13414634146341,50.15243902439024 52.33739837398374,50.05081300813008 52.59146341463415,49.949186991869915 52.79471544715447,49.84756097560975 53.048780487804876,49.69512195121951 53.201219512195124,49.59349593495935 53.40447154471545,49.49186991869919" fill="none" stroke="black" stroke-width="0.6"></polyline><polyline points="53.40447154471545,49.49186991869919 53.607723577235774,49.33943089430894 53.760162601626014,49.23780487804878 53.96341463414634,49.136178861788615 54.166666666666664,48.983739837398375 54.31910569105691,48.83130081300813 54.47154471544715,48.67886178861789 54.67479674796748,48.47560975609756 54.827235772357724,48.27235772357724 55.03048780487805,48.06910569105691 55.18292682926829,47.8150406504065 55.33536585365854,47.5609756097561 55.53861788617886,47.30691056910569 55.6910569105691,47.052845528455286 55.792682926829265,46.798780487804876 55.89430894308943,46.59552845528455 55.94512195121951,46.34146341463415 55.99593495934959,46.13821138211382 56.046747967479675,45.9349593495935 56.046747967479675,45.73170731707317 56.046747967479675,45.47764227642276 56.09756097560975,45.27439024390244 56.09756097560975,45.02032520325203 56.09756097560975,44.8170731707317 56.09756097560975,44.61382113821138 56.09756097560975,44.359756097560975 56.09756097560975,44.105691056910565 56.09756097560975,43.85162601626016 56.046747967479675,43.546747967479675 56.046747967479675,43.292682926829265 56.046747967479675,43.03861788617886 55.99593495934959,42.78455284552845 55.99593495934959,42.58130081300813 55.94512195121951,42.3780487804878 55.89430894308943,42.17479674796748 55.84349593495935,41.97154471544715 55.74186991869919,41.76829268292683 55.640243902439025,41.5650406504065 55.58943089430894,41.41260162601626 55.4369918699187,41.209349593495936 55.33536585365854,41.00609756097561 55.18292682926829,40.853658536585364 55.03048780487805,40.701219512195124 54.8780487804878,40.548780487804876 54.67479674796748,40.447154471544714 54.47154471544715,40.29471544715447 54.31910569105691,40.19308943089431 54.11585365853659,40.040650406504064 53.86178861788618,39.9390243902439 53.65853658536585,39.83739837398374 53.40447154471545,39.78658536585366" fill="none" stroke="black" stroke-width="0.6"></polyline><polyline points="53.40447154471545,39.78658536585366 53.15040650406504,39.735772357723576 52.896341463414636,39.6849593495935 52.642276422764226,39.63414634146341 52.38821138211382,39.63414634146341 52.1849593495935,39.63414634146341 51.93089430894309,39.63414634146341 51.67682926829268,39.63414634146341 51.47357723577235,39.63414634146341 51.21951219512195,39.6849593495935 50.86382113821138,39.735772357723576 50.55894308943089,39.83739837398374 50.2540650406504,39.88821138211382 49.89837398373984,39.989837398373986 49.59349593495935,40.040650406504064 49.28861788617886,40.142276422764226 48.983739837398375,40.24390243902439 48.729674796747965,40.29471544715447 48.47560975609756,40.396341463414636 48.22154471544715,40.4979674796748 48.01829268292683,40.59959349593496 47.8150406504065,40.701219512195124 47.61178861788618,40.802845528455286 47.459349593495936,40.90447154471545 47.30691056910569,41.05691056910569 47.15447154471545,41.15853658536585 47.0020325203252,41.260162601626014 46.90040650406504,41.41260162601626 46.7479674796748,41.514227642276424 46.646341463414636,41.61585365853659 46.54471544715447,41.71747967479675 46.44308943089431,41.81910569105691 46.290650406504064,41.97154471544715 46.1890243902439,42.1239837398374 46.03658536585366,42.27642276422764 45.9349593495935,42.42886178861789 45.833333333333336,42.58130081300813 45.78252032520325,42.68292682926829 45.73170731707317,42.83536585365854 45.68089430894309,42.98780487804878 45.579268292682926,43.1910569105691 45.52845528455285,43.34349593495935 45.42682926829268,43.546747967479675 45.3760162601626,43.699186991869915 45.27439024390244,43.90243902439024 45.172764227642276,44.05487804878049 45.07113821138211,44.25813008130081 44.96951219512195,44.46138211382114 44.86788617886179,44.66463414634146 44.71544715447154,44.918699186991866 44.5630081300813,45.12195121951219" fill="none" stroke="black" stroke-width="0.6"></polyline><polyline points="44.5630081300813,45.12195121951219 44.46138211382114,45.325203252032516 44.30894308943089,45.579268292682926 44.20731707317073,45.78252032520325 44.15650406504065,45.985772357723576 44.05487804878049,46.239837398373986 44.0040650406504,46.44308943089431 43.90243902439024,46.697154471544714 43.80081300813008,46.951219512195124 43.75,47.15447154471545 43.699186991869915,47.40853658536585 43.59756097560975,47.71341463414634 43.546747967479675,48.01829268292683 43.44512195121951,48.323170731707314 43.39430894308943,48.6280487804878 43.34349593495935,48.93292682926829 43.292682926829265,49.28861788617886 43.292682926829265,49.59349593495935 43.24186991869919,49.949186991869915 43.24186991869919,50.30487804878049 43.24186991869919,50.609756097560975 43.24186991869919,50.91463414634146 43.24186991869919,51.27032520325203 43.292682926829265,51.52439024390244 43.39430894308943,51.829268292682926 43.44512195121951,52.1849593495935 43.546747967479675,52.489837398373986 43.64837398373984,52.74390243902439 43.80081300813008,53.09959349593496 43.90243902439024,53.353658536585364 44.05487804878049,53.607723577235774 44.25813008130081,53.86178861788618 44.46138211382114,54.11585365853659 44.71544715447154,54.31910569105691 44.96951219512195,54.573170731707314 45.22357723577235,54.77642276422764 45.47764227642276,54.979674796747965 45.78252032520325,55.18292682926829 45.985772357723576,55.33536585365854 46.239837398373986,55.53861788617886 46.54471544715447,55.6910569105691 46.798780487804876,55.84349593495935 47.052845528455286,55.99593495934959 47.357723577235774,56.14837398373984 47.66260162601626,56.25 47.96747967479675,56.40243902439024 48.27235772357724,56.5040650406504 48.6280487804878,56.605691056910565 48.983739837398375,56.70731707317073 49.33943089430894,56.75813008130081 49.74593495934959,56.80894308943089" fill="none" stroke="black" stroke-width="0.6"></polyline><polyline points="49.74593495934959,56.80894308943089 50.15243902439024,56.80894308943089 50.55894308943089,56.859756097560975 50.91463414634146,56.859756097560975 51.27032520325203,56.859756097560975 51.575203252032516,56.859756097560975 51.880081300813,56.91056910569105 52.13414634146341,56.91056910569105 52.4390243902439,56.91056910569105 52.69308943089431,56.859756097560975 52.947154471544714,56.80894308943089 53.2520325203252,56.75813008130081 53.50609756097561,56.65650406504065 53.8109756097561,56.55487804878049 54.0650406504065,56.453252032520325 54.31910569105691,56.30081300813008 54.573170731707314,56.199186991869915 54.8780487804878,56.046747967479675 55.13211382113821,55.89430894308943 55.386178861788615,55.74186991869919 55.6910569105691,55.53861788617886 55.94512195121951,55.33536585365854 56.25,55.08130081300813 56.5040650406504,54.8780487804878 56.75813008130081,54.67479674796748 56.96138211382114,54.47154471544715 57.21544715447154,54.26829268292683 57.36788617886179,54.0650406504065 57.57113821138211,53.86178861788618 57.825203252032516,53.65853658536585 58.02845528455284,53.40447154471545 58.28252032520325,53.15040650406504 58.485772357723576,52.896341463414636 58.6890243902439,52.642276422764226 58.892276422764226,52.4390243902439 58.99390243902439,52.1849593495935 59.146341463414636,51.981707317073166 59.298780487804876,51.72764227642276 59.451219512195124,51.47357723577235 59.552845528455286,51.21951219512195 59.70528455284553,50.91463414634146 59.857723577235774,50.66056910569105 59.959349593495936,50.355691056910565 60.11178861788618,50 60.21341463414634,49.69512195121951 60.36585365853659,49.33943089430894 60.51829268292683,48.983739837398375 60.61991869918699,48.6280487804878 60.72154471544715,48.323170731707314 60.823170731707314,47.96747967479675 60.8739837398374,47.66260162601626" fill="none" stroke="black" stroke-width="0.6"></polyline><polyline points="60.8739837398374,47.66260162601626 60.92479674796748,47.357723577235774 61.02642276422764,47.052845528455286 61.077235772357724,46.697154471544714 61.1280487804878,46.392276422764226 61.17886178861789,45.985772357723576 61.28048780487805,45.63008130081301 61.33130081300813,45.27439024390244 61.38211382113821,44.86788617886179 61.38211382113821,44.512195121951216 61.38211382113821,44.105691056910565 61.43292682926829,43.699186991869915 61.43292682926829,43.34349593495935 61.43292682926829,42.98780487804878 61.43292682926829,42.58130081300813 61.43292682926829,42.22560975609756 61.38211382113821,41.81910569105691 61.33130081300813,41.46341463414634 61.28048780487805,41.107723577235774 61.229674796747965,40.701219512195124 61.17886178861789,40.24390243902439 61.1280487804878,39.83739837398374 61.077235772357724,39.43089430894309 60.97560975609756,39.02439024390244 60.92479674796748,38.61788617886179 60.823170731707314,38.262195121951216 60.72154471544715,37.95731707317073 60.61991869918699,37.65243902439024 60.51829268292683,37.34756097560975 60.36585365853659,36.99186991869919 60.21341463414634,36.6869918699187 60.010162601626014,36.43292682926829 59.857723577235774,36.1280487804878 59.65447154471545,35.8739837398374 59.40040650406504,35.61991869918699 59.197154471544714,35.416666666666664 58.94308943089431,35.16260162601626 58.739837398373986,34.959349593495936 58.485772357723576,34.70528455284553 58.18089430894309,34.552845528455286 57.92682926829268,34.34959349593496 57.62195121951219,34.197154471544714 57.36788617886179,34.04471544715447 57.0630081300813,33.892276422764226 56.80894308943089,33.790650406504064 56.55487804878049,33.6890243902439 56.30081300813008,33.58739837398374 56.046747967479675,33.4349593495935 55.792682926829265,33.38414634146341 55.53861788617886,33.28252032520325 55.233739837398375,33.18089430894309" fill="none" stroke="black" stroke-width="0.6"></polyline><polyline points="55.233739837398375,33.18089430894309 54.979674796747965,33.13008130081301 54.67479674796748,33.02845528455285 54.36991869918699,32.97764227642276 54.11585365853659,32.926829268292686 53.8109756097561,32.82520325203252 53.55691056910569,32.77439024390244 53.302845528455286,32.72357723577236 52.9979674796748,32.672764227642276 52.79471544715447,32.6219512195122 52.540650406504064,32.57113821138211 52.33739837398374,32.52032520325203 52.13414634146341,32.52032520325203 51.93089430894309,32.52032520325203 51.67682926829268,32.52032520325203 51.52439024390244,32.52032520325203 51.32113821138211,32.52032520325203 51.0670731707317,32.52032520325203 50.86382113821138,32.52032520325203 50.71138211382114,32.52032520325203 50.45731707317073,32.52032520325203 50.30487804878049,32.52032520325203 50.10162601626016,32.52032520325203 49.949186991869915,32.52032520325203 49.796747967479675,32.52032520325203 49.59349593495935,32.52032520325203 49.4410569105691,32.57113821138211 49.28861788617886,32.57113821138211 49.08536585365854,32.6219512195122 48.88211382113821,32.672764227642276 48.729674796747965,32.72357723577236 48.52642276422764,32.77439024390244 48.323170731707314,32.8760162601626 48.11991869918699,32.926829268292686 47.916666666666664,32.97764227642276 47.66260162601626,33.079268292682926 47.40853658536585,33.18089430894309 47.15447154471545,33.28252032520325 46.90040650406504,33.38414634146341 46.646341463414636,33.485772357723576 46.44308943089431,33.63821138211382 46.1890243902439,33.739837398373986 45.985772357723576,33.84146341463415 45.78252032520325,33.94308943089431 45.579268292682926,34.04471544715447 45.3760162601626,34.146341463414636 45.12195121951219,34.2479674796748 44.86788617886179,34.40040650406504 44.5630081300813,34.603658536585364 44.25813008130081,34.80691056910569 43.953252032520325,35.0609756097561" fill="none" stroke="black" stroke-width="0.6"></polyline><polyline points="43.953252032520325,35.0609756097561 43.75,35.21341463414634 43.546747967479675,35.3150406504065 43.44512195121951,35.416666666666664 43.292682926829265,35.56910569105691 43.140243902439025,35.670731707317074 42.98780487804878,35.8739837398374 42.83536585365854,36.02642276422764 42.63211382113821,36.17886178861789 42.479674796747965,36.33130081300813 42.327235772357724,36.483739837398375 42.17479674796748,36.6869918699187 41.920731707317074,36.99186991869919 41.61585365853659,37.296747967479675 41.3109756097561,37.60162601626016 40.95528455284553,37.90650406504065 40.65040650406504,38.16056910569105 40.34552845528455,38.41463414634146 40.09146341463415,38.71951219512195 39.78658536585366,39.02439024390244 39.53252032520325,39.27845528455285 39.329268292682926,39.53252032520325 39.1260162601626,39.735772357723576 38.922764227642276,39.989837398373986 38.71951219512195,40.24390243902439 38.516260162601625,40.4979674796748 38.3130081300813,40.802845528455286 38.05894308943089,41.107723577235774 37.80487804878049,41.46341463414634 37.55081300813008,41.81910569105691 37.39837398373984,42.1239837398374 37.19512195121951,42.479674796747965 36.99186991869919,42.83536585365854 36.83943089430894,43.1910569105691 36.636178861788615,43.546747967479675 36.483739837398375,43.953252032520325 36.33130081300813,44.30894308943089 36.229674796747965,44.66463414634146 36.1280487804878,45.07113821138211 36.02642276422764,45.42682926829268 35.92479674796748,45.833333333333336 35.823170731707314,46.34146341463415 35.72154471544715,46.7479674796748 35.670731707317074,47.15447154471545 35.61991869918699,47.66260162601626 35.61991869918699,48.06910569105691 35.56910569105691,48.47560975609756 35.56910569105691,48.983739837398375 35.56910569105691,49.390243902439025 35.56910569105691,49.796747967479675 35.61991869918699,50.30487804878049" fill="none" stroke="black" stroke-width="0.6"></polyline><polyline points="35.61991869918699,50.30487804878049 35.670731707317074,50.71138211382114 35.77235772357724,51.11788617886179 35.8739837398374,51.52439024390244 35.97560975609756,51.880081300813 36.1280487804878,52.28658536585366 36.28048780487805,52.69308943089431 36.483739837398375,53.09959349593496 36.636178861788615,53.45528455284553 36.83943089430894,53.86178861788618 37.09349593495935,54.21747967479675 37.296747967479675,54.573170731707314 37.5,54.979674796747965 37.703252032520325,55.28455284552845 37.95731707317073,55.640243902439025 38.21138211382114,55.99593495934959 38.46544715447154,56.30081300813008 38.71951219512195,56.65650406504065 38.97357723577235,56.96138211382114 39.22764227642276,57.3170731707317 39.48170731707317,57.62195121951219 39.735772357723576,57.92682926829268 39.989837398373986,58.231707317073166 40.29471544715447,58.536585365853654 40.548780487804876,58.790650406504064 40.853658536585364,59.04471544715447 41.107723577235774,59.34959349593496 41.41260162601626,59.603658536585364 41.71747967479675,59.857723577235774 42.02235772357724,60.0609756097561 42.3780487804878,60.264227642276424 42.733739837398375,60.46747967479675 43.08943089430894,60.670731707317074 43.44512195121951,60.92479674796748 43.80081300813008,61.077235772357724 44.20731707317073,61.28048780487805 44.5630081300813,61.483739837398375 44.918699186991866,61.636178861788615 45.325203252032516,61.83943089430894 45.63008130081301,61.99186991869919 45.985772357723576,62.14430894308943 46.392276422764226,62.296747967479675 46.7479674796748,62.449186991869915 47.103658536585364,62.55081300813008 47.510162601626014,62.703252032520325 47.86585365853659,62.7540650406504 48.22154471544715,62.855691056910565 48.6280487804878,62.95731707317073 48.983739837398375,63.05894308943089 49.390243902439025,63.16056910569105 49.796747967479675,63.21138211382114" fill="none" stroke="black" stroke-width="0.6"></polyline><polyline points="49.796747967479675,63.21138211382114 50.203252032520325,63.3130081300813 50.609756097560975,63.36382113821138 51.11788617886179,63.41463414634146 51.52439024390244,63.41463414634146 51.93089430894309,63.46544715447154 52.33739837398374,63.46544715447154 52.74390243902439,63.46544715447154 53.09959349593496,63.46544715447154 53.50609756097561,63.46544715447154 53.86178861788618,63.46544715447154 54.21747967479675,63.41463414634146 54.573170731707314,63.36382113821138 54.8780487804878,63.3130081300813 55.18292682926829,63.262195121951216 55.48780487804878,63.262195121951216 55.74186991869919,63.21138211382114 56.046747967479675,63.16056910569105 56.40243902439024,63.05894308943089 56.70731707317073,62.95731707317073 57.0630081300813,62.855691056910565 57.46951219512195,62.703252032520325 57.8760162601626,62.55081300813008 58.231707317073166,62.34756097560975 58.6890243902439,62.19512195121951 59.09552845528455,61.99186991869919 59.5020325203252,61.78861788617886 59.90853658536585,61.58536585365854 60.264227642276424,61.38211382113821 60.56910569105691,61.17886178861789 60.92479674796748,60.97560975609756 61.17886178861789,60.77235772357724 61.483739837398375,60.56910569105691 61.78861788617886,60.3150406504065 62.042682926829265,60.11178861788618 62.24593495934959,59.857723577235774 62.5,59.603658536585364 62.7540650406504,59.298780487804876 62.95731707317073,58.99390243902439 63.21138211382114,58.63821138211382 63.46544715447154,58.33333333333333 63.668699186991866,57.97764227642276 63.922764227642276,57.62195121951219 64.17682926829268,57.21544715447154 64.43089430894308,56.80894308943089 64.73577235772358,56.35162601626016 64.98983739837398,55.89430894308943 65.29471544715447,55.48780487804878 65.54878048780488,55.03048780487805 65.80284552845528,54.6239837398374 66.0060975609756,54.21747967479675" fill="none" stroke="black" stroke-width="0.6"></polyline><polyline points="66.0060975609756,54.21747967479675 66.26016260162602,53.760162601626014 66.41260162601625,53.40447154471545 66.5650406504065,52.9979674796748 66.76829268292683,52.540650406504064 66.92073170731707,52.083333333333336 67.07317073170732,51.67682926829268 67.17479674796748,51.21951219512195 67.32723577235772,50.8130081300813 67.42886178861788,50.355691056910565 67.53048780487805,49.949186991869915 67.6321138211382,49.49186991869919 67.73373983739837,48.983739837398375 67.78455284552845,48.52642276422764 67.88617886178862,48.01829268292683 67.98780487804878,47.510162601626014 68.08943089430895,47.0020325203252 68.14024390243902,46.54471544715447 68.1910569105691,46.03658536585366 68.24186991869918,45.579268292682926 68.29268292682927,45.12195121951219 68.29268292682927,44.61382113821138 68.29268292682927,44.20731707317073 68.29268292682927,43.75 68.29268292682927,43.24186991869919 68.24186991869918,42.83536585365854 68.1910569105691,42.3780487804878 68.14024390243902,41.86991869918699 68.03861788617886,41.46341463414634 67.98780487804878,41.00609756097561 67.88617886178862,40.548780487804876 67.78455284552845,40.142276422764226 67.6321138211382,39.735772357723576 67.53048780487805,39.329268292682926 67.3780487804878,38.97357723577235 67.22560975609755,38.5670731707317 67.02235772357723,38.21138211382114 66.8191056910569,37.90650406504065 66.61585365853658,37.55081300813008 66.41260162601625,37.19512195121951 66.20934959349593,36.890243902439025 65.95528455284553,36.53455284552845 65.7520325203252,36.229674796747965 65.4979674796748,35.92479674796748 65.29471544715447,35.61991869918699 65.04065040650406,35.3150406504065 64.78658536585365,35.0609756097561 64.53252032520325,34.80691056910569 64.27845528455285,34.5020325203252 63.97357723577235,34.2479674796748 63.71951219512195,33.99390243902439" fill="none" stroke="black" stroke-width="0.6"></polyline><polyline points="63.71951219512195,33.99390243902439 63.41463414634146,33.739837398373986 63.109756097560975,33.485772357723576 62.80487804878049,33.23170731707317 62.449186991869915,32.97764227642276 62.09349593495935,32.77439024390244 61.6869918699187,32.52032520325203 61.28048780487805,32.266260162601625 60.8739837398374,32.0630081300813 60.51829268292683,31.859756097560975 60.0609756097561,31.65650406504065 59.65447154471545,31.453252032520325 59.2479674796748,31.25 58.84146341463415,31.097560975609756 58.485772357723576,30.89430894308943 58.130081300813,30.741869918699187 57.825203252032516,30.640243902439025 57.52032520325203,30.48780487804878 57.21544715447154,30.335365853658537 56.859756097560975,30.182926829268293 56.5040650406504,30.08130081300813 56.14837398373984,29.979674796747968 55.792682926829265,29.827235772357724 55.4369918699187,29.725609756097562 55.03048780487805,29.6239837398374 54.6239837398374,29.522357723577237 54.26829268292683,29.420731707317074 53.8109756097561,29.31910569105691 53.40447154471545,29.217479674796746 52.947154471544714,29.115853658536583 52.540650406504064,29.0650406504065 52.1849593495935,28.96341463414634 51.829268292682926,28.912601626016258 51.47357723577235,28.861788617886177 51.11788617886179,28.810975609756095 50.762195121951216,28.709349593495933 50.355691056910565,28.709349593495933 50,28.65853658536585 49.59349593495935,28.60772357723577 49.1869918699187,28.60772357723577 48.78048780487805,28.55691056910569 48.3739837398374,28.55691056910569 47.86585365853659,28.55691056910569 47.40853658536585,28.55691056910569 46.84959349593496,28.60772357723577 46.239837398373986,28.65853658536585 45.68089430894309,28.709349593495933 45.12195121951219,28.760162601626014 44.5630081300813,28.810975609756095 44.05487804878049,28.861788617886177 43.59756097560975,28.861788617886177" fill="none" stroke="black" stroke-width="0.6"></polyline><polyline points="43.59756097560975,28.861788617886177 43.140243902439025,28.912601626016258 42.78455284552845,28.912601626016258 42.3780487804878,28.912601626016258 41.97154471544715,28.912601626016258 41.5650406504065,28.96341463414634 41.05691056910569,29.01422764227642 40.4979674796748,29.115853658536583 39.989837398373986,29.217479674796746 39.48170731707317,29.31910569105691 38.97357723577235,29.420731707317074 38.516260162601625,29.522357723577237 38.05894308943089,29.6239837398374 37.55081300813008,29.776422764227643 37.09349593495935,29.878048780487806 36.636178861788615,30.08130081300813 36.077235772357724,30.233739837398375 35.56910569105691,30.4369918699187 35.11178861788618,30.640243902439025 34.552845528455286,30.84349593495935 34.04471544715447,31.148373983739837 33.485772357723576,31.402439024390244 32.97764227642276,31.70731707317073 32.46951219512195,32.012195121951216 32.0630081300813,32.3170731707317 31.65650406504065,32.6219512195122 31.25,32.926829268292686 30.89430894308943,33.23170731707317 30.48780487804878,33.58739837398374 30.132113821138212,33.892276422764226 29.725609756097562,34.298780487804876 29.31910569105691,34.70528455284553 28.912601626016258,35.21341463414634 28.455284552845526,35.72154471544715 28.048780487804876,36.229674796747965 27.693089430894307,36.636178861788615 27.33739837398374,37.09349593495935 27.03252032520325,37.55081300813008 26.778455284552845,38.00813008130081 26.57520325203252,38.36382113821138 26.422764227642276,38.77032520325203 26.270325203252032,39.176829268292686 26.16869918699187,39.583333333333336 26.016260162601625,39.9390243902439 25.965447154471544,40.34552845528455 25.86382113821138,40.7520325203252 25.8130081300813,41.15853658536585 25.711382113821138,41.666666666666664 25.609756097560975,42.22560975609756 25.558943089430894,42.68292682926829 25.508130081300813,43.140243902439025" fill="none" stroke="black" stroke-width="0.6"></polyline><polyline points="25.508130081300813,43.140243902439025 25.508130081300813,43.64837398373984 25.508130081300813,44.105691056910565 25.45731707317073,44.5630081300813 25.45731707317073,45.12195121951219 25.45731707317073,45.579268292682926 25.45731707317073,46.08739837398374 25.508130081300813,46.59552845528455 25.558943089430894,47.103658536585364 25.660569105691057,47.5609756097561 25.711382113821138,48.06910569105691 25.8130081300813,48.52642276422764 25.965447154471544,48.983739837398375 26.067073170731707,49.49186991869919 26.21951219512195,49.949186991869915 26.371951219512194,50.40650406504065 26.524390243902438,50.86382113821138 26.676829268292682,51.32113821138211 26.829268292682926,51.829268292682926 26.98170731707317,52.33739837398374 27.134146341463413,52.79471544715447 27.33739837398374,53.2520325203252 27.540650406504064,53.760162601626014 27.74390243902439,54.21747967479675 27.896341463414632,54.72560975609756 28.15040650406504,55.233739837398375 28.353658536585364,55.6910569105691 28.55691056910569,56.199186991869915 28.760162601626014,56.75813008130081 28.96341463414634,57.21544715447154 29.166666666666664,57.72357723577235 29.369918699186993,58.231707317073166 29.573170731707318,58.63821138211382 29.776422764227643,59.146341463414636 29.979674796747968,59.70528455284553 30.182926829268293,60.16260162601626 30.4369918699187,60.670731707317074 30.691056910569106,61.17886178861789 30.945121951219512,61.6869918699187 31.19918699186992,62.24593495934959 31.554878048780488,62.7540650406504 31.910569105691057,63.21138211382114 32.266260162601625,63.71951219512195 32.672764227642276,64.17682926829268 33.13008130081301,64.6341463414634 33.58739837398374,65.09146341463415 34.09552845528455,65.54878048780488 34.552845528455286,65.95528455284553 35.0609756097561,66.36178861788618 35.56910569105691,66.76829268292683 36.02642276422764,67.17479674796748" fill="none" stroke="black" stroke-width="0.6"></polyline><polyline points="36.02642276422764,67.17479674796748 36.58536585365854,67.58130081300813 37.09349593495935,67.98780487804878 37.65243902439024,68.34349593495935 38.21138211382114,68.69918699186992 38.77032520325203,69.05487804878048 39.329268292682926,69.35975609756098 39.9390243902439,69.66463414634146 40.548780487804876,69.91869918699187 41.15853658536585,70.17276422764228 41.76829268292683,70.42682926829268 42.3780487804878,70.630081300813 42.98780487804878,70.83333333333333 43.699186991869915,71.03658536585365 44.30894308943089,71.1890243902439 44.96951219512195,71.29065040650406 45.68089430894309,71.39227642276423 46.34146341463415,71.49390243902438 47.0020325203252,71.54471544715447 47.71341463414634,71.54471544715447 48.323170731707314,71.59552845528455 48.983739837398375,71.59552845528455 49.69512195121951,71.59552845528455 50.355691056910565,71.59552845528455 51.0670731707317,71.49390243902438 51.829268292682926,71.39227642276423 52.489837398373986,71.29065040650406 53.201219512195124,71.1890243902439 53.91260162601626,71.08739837398373 54.47154471544715,70.98577235772358 55.08130081300813,70.83333333333333 55.74186991869919,70.73170731707317 56.25,70.57926829268293 56.80894308943089,70.42682926829268 57.36788617886179,70.27439024390243 57.8760162601626,70.1219512195122 58.33333333333333,69.91869918699187 58.892276422764226,69.76626016260163 59.34959349593496,69.5630081300813 59.857723577235774,69.35975609756098 60.36585365853659,69.10569105691057 60.8739837398374,68.85162601626016 61.38211382113821,68.59756097560975 61.9410569105691,68.34349593495935 62.39837398373984,68.03861788617886 62.90650406504065,67.78455284552845 63.36382113821138,67.47967479674797 63.71951219512195,67.27642276422765 64.07520325203252,67.07317073170732 64.380081300813,66.8191056910569 64.6849593495935,66.61585365853658" fill="none" stroke="black" stroke-width="0.6"></polyline><polyline points="64.6849593495935,66.61585365853658 64.9390243902439,66.36178861788618 65.2439024390244,66.10772357723577 65.54878048780488,65.85365853658537 65.80284552845528,65.54878048780488 66.10772357723577,65.2439024390244 66.36178861788618,64.9390243902439 66.61585365853658,64.6341463414634 66.869918699187,64.32926829268293 67.1239837398374,64.07520325203252 67.32723577235772,63.71951219512195 67.53048780487805,63.41463414634146 67.73373983739837,63.109756097560975 67.9369918699187,62.7540650406504 68.14024390243902,62.449186991869915 68.34349593495935,62.14430894308943 68.4959349593496,61.78861788617886 68.64837398373983,61.43292682926829 68.80081300813008,61.1280487804878 68.95325203252033,60.77235772357724 69.05487804878048,60.416666666666664 69.20731707317073,60.0609756097561 69.35975609756098,59.65447154471545 69.51219512195122,59.298780487804876 69.66463414634146,58.94308943089431 69.8170731707317,58.536585365853654 70.02032520325203,58.130081300813 70.1219512195122,57.77439024390244 70.27439024390243,57.36788617886179 70.47764227642276,56.96138211382114 70.57926829268293,56.605691056910565 70.73170731707317,56.199186991869915 70.83333333333333,55.74186991869919 70.9349593495935,55.33536585365854 71.08739837398373,54.8780487804878 71.1890243902439,54.47154471544715 71.34146341463415,54.014227642276424 71.4430894308943,53.45528455284553 71.59552845528455,52.947154471544714 71.69715447154472,52.4390243902439 71.84959349593495,51.829268292682926 71.95121951219512,51.32113821138211 72.10365853658537,50.762195121951216 72.20528455284553,50.203252032520325 72.3069105691057,49.64430894308943 72.40853658536585,49.136178861788615 72.45934959349593,48.52642276422764 72.51016260162602,48.01829268292683 72.51016260162602,47.510162601626014 72.51016260162602,46.90040650406504 72.51016260162602,46.34146341463415" fill="none" stroke="black" stroke-width="0.6"></polyline><polyline points="72.51016260162602,46.34146341463415 72.51016260162602,45.78252032520325 72.5609756097561,45.07113821138211 72.5609756097561,44.512195121951216 72.5609756097561,43.85162601626016 72.5609756097561,43.1910569105691 72.51016260162602,42.58130081300813 72.45934959349593,41.97154471544715 72.40853658536585,41.3109756097561 72.3069105691057,40.701219512195124 72.2560975609756,40.09146341463415 72.15447154471545,39.43089430894309 72.10365853658537,38.82113821138211 72.10365853658537,38.16056910569105 72.05284552845528,37.5 72.0020325203252,36.890243902439025 71.95121951219512,36.28048780487805 71.90040650406505,35.61991869918699 71.79878048780488,35.010162601626014 71.64634146341463,34.34959349593496 71.49390243902438,33.6890243902439 71.34146341463415,33.079268292682926 71.13821138211382,32.46951219512195 70.9349593495935,31.859756097560975 70.78252032520325,31.25 70.57926829268293,30.640243902439025 70.32520325203252,30.03048780487805 70.1219512195122,29.420731707317074 69.86788617886178,28.861788617886177 69.66463414634146,28.2520325203252 69.41056910569105,27.693089430894307 69.15650406504065,27.134146341463413 68.85162601626016,26.57520325203252 68.59756097560975,26.016260162601625 68.29268292682927,25.45731707317073 67.98780487804878,24.898373983739837 67.6321138211382,24.390243902439025 67.27642276422765,23.83130081300813 66.869918699187,23.272357723577237 66.51422764227642,22.764227642276424 66.0569105691057,22.256097560975608 65.59959349593495,21.697154471544714 65.14227642276423,21.1890243902439 64.6341463414634,20.73170731707317 64.1260162601626,20.223577235772357 63.668699186991866,19.766260162601625 63.21138211382114,19.258130081300813 62.7540650406504,18.851626016260163 62.34756097560975,18.445121951219512 61.890243902439025,18.089430894308943 61.483739837398375,17.682926829268293" fill="none" stroke="black" stroke-width="0.6"></polyline><polyline points="61.483739837398375,17.682926829268293 61.02642276422764,17.327235772357724 60.46747967479675,16.971544715447155 60.010162601626014,16.615853658536587 59.451219512195124,16.3109756097561 58.84146341463415,16.006097560975608 58.33333333333333,15.701219512195122 57.77439024390244,15.447154471544716 57.0630081300813,15.142276422764228 56.453252032520325,14.888211382113822 55.74186991869919,14.634146341463413 55.03048780487805,14.430894308943088 54.47154471544715,14.227642276422763 53.86178861788618,14.024390243902438 53.15040650406504,13.821138211382113 52.540650406504064,13.66869918699187 51.93089430894309,13.516260162601625 51.27032520325203,13.363821138211382 50.762195121951216,13.211382113821138 50.15243902439024,13.109756097560975 49.49186991869919,13.008130081300813 48.83130081300813,12.90650406504065 48.170731707317074,12.855691056910569 47.510162601626014,12.804878048780488 46.90040650406504,12.703252032520325 46.1890243902439,12.652439024390244 45.52845528455285,12.601626016260163 44.8170731707317,12.601626016260163 44.05487804878049,12.601626016260163 43.1910569105691,12.601626016260163 42.3780487804878,12.652439024390244 41.514227642276424,12.703252032520325 40.59959349593496,12.804878048780488 39.78658536585366,12.90650406504065 38.97357723577235,13.058943089430894 38.109756097560975,13.160569105691057 37.34756097560975,13.3130081300813 36.58536585365854,13.414634146341463 35.823170731707314,13.516260162601625 35.0609756097561,13.66869918699187 34.34959349593496,13.821138211382113 33.53658536585366,13.973577235772357 32.82520325203252,14.1260162601626 32.012195121951216,14.329268292682926 31.19918699186992,14.583333333333332 30.4369918699187,14.786585365853659 29.6239837398374,15.040650406504065 28.912601626016258,15.345528455284553 28.20121951219512,15.59959349593496 27.540650406504064,15.904471544715447 26.880081300813007,16.209349593495933" fill="none" stroke="black" stroke-width="0.6"></polyline><polyline points="26.880081300813007,16.209349593495933 26.321138211382113,16.463414634146343 25.76219512195122,16.81910569105691 25.254065040650406,17.17479674796748 24.745934959349594,17.58130081300813 24.23780487804878,17.98780487804878 23.78048780487805,18.445121951219512 23.323170731707318,18.902439024390244 22.916666666666668,19.461382113821138 22.40853658536585,20.020325203252032 22.0020325203252,20.579268292682926 21.54471544715447,21.13821138211382 21.13821138211382,21.798780487804876 20.73170731707317,22.40853658536585 20.32520325203252,23.06910569105691 19.96951219512195,23.628048780487806 19.61382113821138,24.23780487804878 19.258130081300813,24.847560975609756 18.902439024390244,25.45731707317073 18.597560975609756,26.067073170731707 18.241869918699187,26.676829268292682 17.98780487804878,27.286585365853657 17.632113821138212,27.997967479674795 17.327235772357724,28.65853658536585 17.022357723577237,29.31910569105691 16.71747967479675,29.928861788617887 16.41260162601626,30.741869918699187 16.10772357723577,31.453252032520325 15.752032520325203,32.21544715447154 15.447154471544716,33.02845528455285 15.142276422764228,33.84146341463415 14.83739837398374,34.552845528455286 14.583333333333332,35.3150406504065 14.380081300813007,36.02642276422764 14.176829268292682,36.6869918699187 13.973577235772357,37.449186991869915 13.770325203252032,38.21138211382114 13.567073170731707,38.97357723577235 13.363821138211382,39.78658536585366 13.262195121951219,40.4979674796748 13.160569105691057,41.209349593495936 13.058943089430894,42.1239837398374 12.957317073170731,42.9369918699187 12.855691056910569,43.75 12.754065040650406,44.66463414634146 12.652439024390244,45.42682926829268 12.550813008130081,46.290650406504064 12.5,47.15447154471545 12.449186991869919,47.96747967479675 12.398373983739837,48.83130081300813 12.347560975609756,49.69512195121951" fill="none" stroke="black" stroke-width="0.6"></polyline><polyline points="12.347560975609756,49.69512195121951 12.347560975609756,50.45731707317073 12.398373983739837,51.27032520325203 12.449186991869919,52.13414634146341 12.550813008130081,52.947154471544714 12.652439024390244,53.760162601626014 12.804878048780488,54.573170731707314 12.90650406504065,55.386178861788615 13.109756097560975,56.14837398373984 13.262195121951219,56.96138211382114 13.465447154471544,57.77439024390244 13.71951219512195,58.58739837398374 13.973577235772357,59.34959349593496 14.227642276422763,60.16260162601626 14.53252032520325,60.8739837398374 14.83739837398374,61.636178861788615 15.19308943089431,62.39837398373984 15.548780487804878,63.109756097560975 15.904471544715447,63.87195121951219 16.3109756097561,64.6341463414634 16.71747967479675,65.34552845528455 17.1239837398374,66.0569105691057 17.53048780487805,66.76829268292683 18.038617886178862,67.42886178861788 18.495934959349594,68.08943089430895 19.004065040650406,68.75 19.51219512195122,69.41056910569105 20.071138211382113,70.0711382113821 20.579268292682926,70.68089430894308 21.13821138211382,71.29065040650406 21.747967479674795,71.95121951219512 22.35772357723577,72.5609756097561 22.96747967479675,73.17073170731707 23.628048780487806,73.78048780487805 24.288617886178862,74.33943089430895 24.94918699186992,74.94918699186992 25.609756097560975,75.5081300813008 26.321138211382113,76.0670731707317 27.03252032520325,76.6260162601626 27.79471544715447,77.1341463414634 28.55691056910569,77.59146341463415 29.369918699186993,78.09959349593495 30.182926829268293,78.5060975609756 30.995934959349594,78.91260162601625 31.910569105691057,79.369918699187 32.72357723577236,79.67479674796748 33.58739837398374,80.03048780487805 34.451219512195124,80.38617886178862 35.264227642276424,80.6910569105691 36.1280487804878,80.9451219512195 37.042682926829265,81.25" fill="none" stroke="black" stroke-width="0.6"></polyline><polyline points="37.042682926829265,81.25 37.855691056910565,81.45325203252033 38.77032520325203,81.65650406504065 39.78658536585366,81.85975609756098 40.65040650406504,82.01219512195122 41.5650406504065,82.16463414634146 42.58130081300813,82.26626016260163 43.44512195121951,82.3170731707317 44.41056910569105,82.36788617886178 45.3760162601626,82.41869918699187 46.290650406504064,82.41869918699187 47.25609756097561,82.41869918699187 48.27235772357724,82.41869918699187 49.1869918699187,82.36788617886178 50.203252032520325,82.26626016260163 51.21951219512195,82.11382113821138 52.1849593495935,81.91056910569105 53.15040650406504,81.7581300813008 54.166666666666664,81.5040650406504 55.08130081300813,81.25 56.046747967479675,80.9451219512195 57.012195121951216,80.58943089430895 57.92682926829268,80.23373983739837 58.84146341463415,79.77642276422765 59.75609756097561,79.3191056910569 60.61991869918699,78.86178861788618 61.483739837398375,78.35365853658537 62.34756097560975,77.79471544715447 63.109756097560975,77.23577235772358 63.922764227642276,76.67682926829268 64.6849593495935,76.0670731707317 65.44715447154472,75.40650406504065 66.20934959349593,74.79674796747967 66.97154471544715,74.13617886178862 67.6829268292683,73.47560975609755 68.39430894308943,72.76422764227642 69.05487804878048,72.10365853658537 69.66463414634146,71.39227642276423 70.27439024390243,70.73170731707317 70.78252032520325,70.0711382113821 71.23983739837398,69.46138211382113 71.69715447154472,68.80081300813008 72.15447154471545,68.14024390243902 72.5609756097561,67.47967479674797 72.91666666666667,66.8191056910569 73.27235772357723,66.15853658536585 73.52642276422765,65.54878048780488 73.83130081300813,64.9390243902439 74.03455284552845,64.32926829268293 74.23780487804878,63.82113821138211 74.39024390243902,63.262195121951216" fill="none" stroke="black" stroke-width="0.6"></polyline><polyline points="74.39024390243902,63.262195121951216 74.59349593495935,62.703252032520325 74.7459349593496,62.14430894308943 74.94918699186992,61.58536585365854 75.15243902439025,60.97560975609756 75.30487804878048,60.416666666666664 75.5081300813008,59.857723577235774 75.66056910569105,59.298780487804876 75.8130081300813,58.739837398373986 75.91463414634146,58.18089430894309 76.01626016260163,57.672764227642276 76.11788617886178,57.16463414634146 76.21951219512195,56.65650406504065 76.27032520325203,56.14837398373984 76.3211382113821,55.6910569105691 76.3719512195122,55.233739837398375 76.42276422764228,54.827235772357724 76.42276422764228,54.420731707317074 76.42276422764228,53.96341463414634 76.47357723577235,53.65853658536585 76.47357723577235,53.302845528455286 76.47357723577235,52.947154471544714 76.47357723577235,52.540650406504064 76.52439024390243,52.1849593495935 76.57520325203252,51.829268292682926 76.6260162601626,51.575203252032516 76.6260162601626,51.27032520325203 76.6260162601626,51.016260162601625 76.67682926829268,50.762195121951216 76.67682926829268,50.55894308943089 76.67682926829268,50.30487804878049 76.67682926829268,50.10162601626016 76.67682926829268,49.89837398373984 76.67682926829268,49.69512195121951 76.67682926829268,49.542682926829265 76.67682926829268,49.390243902439025 76.67682926829268,49.23780487804878 76.67682926829268,49.1869918699187 76.67682926829268,49.08536585365854 76.67682926829268,49.03455284552845 76.67682926829268,49.03455284552845 76.67682926829268,49.03455284552845 76.67682926829268,49.03455284552845 76.67682926829268,49.03455284552845 76.67682926829268,49.03455284552845 76.67682926829268,49.03455284552845 76.67682926829268,49.03455284552845 76.67682926829268,49.03455284552845 76.67682926829268,49.03455284552845 76.67682926829268,49.03455284552845 76.67682926829268,49.03455284552845" fill="none" stroke="black" stroke-width="0.6"></polyline><polyline points="76.67682926829268,49.03455284552845 76.67682926829268,49.03455284552845 76.67682926829268,49.03455284552845 76.67682926829268,49.03455284552845 76.67682926829268,49.03455284552845 76.67682926829268,49.03455284552845 76.67682926829268,49.03455284552845 76.67682926829268,49.08536585365854 76.67682926829268,49.08536585365854 76.67682926829268,49.08536585365854 76.67682926829268,49.08536585365854 76.67682926829268,49.08536585365854 76.67682926829268,49.08536585365854" fill="none" stroke="black" stroke-width="0.6"></polyline></svg>