<svg height="100" width="100" preserveAspectRatio="xMidYMid meet"><polyline points="50.50813008130081,49.796747967479675 50.50813008130081,49.796747967479675 50.50813008130081,49.796747967479675 50.45731707317073,49.74593495934959 50.45731707317073,49.74593495934959 50.45731707317073,49.74593495934959 50.40650406504065,49.69512195121951 50.40650406504065,49.64430894308943 50.40650406504065,49.59349593495935 50.45731707317073,49.542682926829265 50.45731707317073,49.49186991869919 50.50813008130081,49.390243902439025 50.55894308943089,49.33943089430894 50.609756097560975,49.23780487804878 50.66056910569105,49.136178861788615 50.71138211382114,49.03455284552845 50.71138211382114,48.88211382113821 50.762195121951216,48.78048780487805 50.762195121951216,48.6280487804878 50.762195121951216,48.42479674796748 50.762195121951216,48.22154471544715 50.762195121951216,47.96747967479675 50.762195121951216,47.71341463414634 50.762195121951216,47.459349593495936 50.71138211382114,47.25609756097561 50.66056910569105,47.052845528455286 50.609756097560975,46.84959349593496 50.55894308943089,46.646341463414636 50.45731707317073,46.44308943089431 50.40650406504065,46.239837398373986 50.355691056910565,46.03658536585366 50.2540650406504,45.88414634146341 50.15243902439024,45.73170731707317 50.05081300813008,45.579268292682926 49.949186991869915,45.47764227642276 49.84756097560975,45.42682926829268 49.74593495934959,45.3760162601626 49.64430894308943,45.325203252032516 49.49186991869919,45.27439024390244 49.49186991869919,45.27439024390244 49.390243902439025,45.22357723577235 49.33943089430894,45.172764227642276 49.23780487804878,45.12195121951219 49.136178861788615,45.07113821138211 49.03455284552845,45.02032520325203 48.93292682926829,44.96951219512195 48.83130081300813,44.918699186991866 48.729674796747965,44.86788617886179 48.6280487804878,44.86788617886179 48.52642276422764,44.8170731707317 48.42479674796748,44.8170731707317" fill="none" stroke="black" stroke-width="0.6"></polyline><polyline points="48.42479674796748,44.8170731707317 48.323170731707314,44.766260162601625 48.170731707317074,44.766260162601625 48.11991869918699,44.766260162601625 48.01829268292683,44.71544715447154 47.916666666666664,44.71544715447154 47.86585365853659,44.71544715447154 47.764227642276424,44.71544715447154 47.66260162601626,44.71544715447154 47.61178861788618,44.71544715447154 47.510162601626014,44.71544715447154 47.40853658536585,44.71544715447154 47.30691056910569,44.71544715447154 47.20528455284553,44.71544715447154 47.103658536585364,44.71544715447154 47.0020325203252,44.71544715447154 46.90040650406504,44.71544715447154 46.798780487804876,44.71544715447154 46.646341463414636,44.71544715447154 46.54471544715447,44.766260162601625 46.392276422764226,44.8170731707317 46.290650406504064,44.8170731707317 46.1890243902439,44.86788617886179 46.03658536585366,44.918699186991866 45.9349593495935,44.96951219512195 45.833333333333336,45.02032520325203 45.73170731707317,45.07113821138211 45.63008130081301,45.12195121951219 45.52845528455285,45.172764227642276 45.3760162601626,45.27439024390244 45.27439024390244,45.3760162601626 45.172764227642276,45.47764227642276 45.07113821138211,45.579268292682926 44.96951219512195,45.73170731707317 44.918699186991866,45.833333333333336 44.86788617886179,45.9349593495935 44.8170731707317,45.985772357723576 44.71544715447154,46.13821138211382 44.61382113821138,46.239837398373986 44.512195121951216,46.44308943089431 44.41056910569105,46.59552845528455 44.25813008130081,46.7479674796748 44.15650406504065,46.84959349593496 44.05487804878049,47.0020325203252 43.953252032520325,47.103658536585364 43.85162601626016,47.20528455284553 43.80081300813008,47.30691056910569 43.75,47.40853658536585 43.64837398373984,47.510162601626014 43.59756097560975,47.61178861788618 43.546747967479675,47.764227642276424" fill="none" stroke="black" stroke-width="0.6"></polyline><polyline points="43.546747967479675,47.764227642276424 43.44512195121951,47.86585365853659 43.39430894308943,48.01829268292683 43.34349593495935,48.170731707317074 43.24186991869919,48.323170731707314 43.1910569105691,48.47560975609756 43.140243902439025,48.6280487804878 43.03861788617886,48.78048780487805 42.98780487804878,48.93292682926829 42.9369918699187,49.136178861788615 42.886178861788615,49.28861788617886 42.83536585365854,49.4410569105691 42.78455284552845,49.64430894308943 42.78455284552845,49.796747967479675 42.733739837398375,50 42.733739837398375,50.15243902439024 42.68292682926829,50.2540650406504 42.68292682926829,50.30487804878049 42.68292682926829,50.45731707317073 42.68292682926829,50.55894308943089 42.68292682926829,50.66056910569105 42.68292682926829,50.8130081300813 42.68292682926829,50.96544715447154 42.68292682926829,51.11788617886179 42.63211382113821,51.27032520325203 42.63211382113821,51.47357723577235 42.63211382113821,51.6260162601626 42.63211382113821,51.829268292682926 42.63211382113821,51.981707317073166 42.63211382113821,52.1849593495935 42.63211382113821,52.33739837398374 42.68292682926829,52.540650406504064 42.68292682926829,52.642276422764226 42.733739837398375,52.896341463414636 42.78455284552845,53.09959349593496 42.83536585365854,53.302845528455286 42.886178861788615,53.45528455284553 42.886178861788615,53.65853658536585 42.9369918699187,53.760162601626014 43.03861788617886,53.91260162601626 43.08943089430894,54.11585365853659 43.140243902439025,54.21747967479675 43.1910569105691,54.36991869918699 43.292682926829265,54.573170731707314 43.34349593495935,54.72560975609756 43.44512195121951,54.8780487804878 43.49593495934959,54.979674796747965 43.546747967479675,55.13211382113821 43.64837398373984,55.233739837398375 43.75,55.33536585365854 43.80081300813008,55.386178861788615" fill="none" stroke="black" stroke-width="0.6"></polyline><polyline points="43.80081300813008,55.386178861788615 43.90243902439024,55.4369918699187 43.953252032520325,55.48780487804878 44.0040650406504,55.53861788617886 44.05487804878049,55.53861788617886 44.15650406504065,55.58943089430894 44.20731707317073,55.640243902439025 44.30894308943089,55.6910569105691 44.41056910569105,55.792682926829265 44.512195121951216,55.84349593495935 44.61382113821138,55.94512195121951 44.766260162601625,55.99593495934959 44.86788617886179,56.046747967479675 44.96951219512195,56.09756097560975 45.12195121951219,56.199186991869915 45.22357723577235,56.25 45.3760162601626,56.30081300813008 45.52845528455285,56.40243902439024 45.63008130081301,56.453252032520325 45.78252032520325,56.453252032520325 45.9349593495935,56.5040650406504 46.03658536585366,56.55487804878049 46.1890243902439,56.55487804878049 46.290650406504064,56.55487804878049 46.44308943089431,56.605691056910565 46.54471544715447,56.605691056910565 46.697154471544714,56.65650406504065 46.798780487804876,56.65650406504065 46.84959349593496,56.70731707317073 46.90040650406504,56.70731707317073 47.052845528455286,56.70731707317073 47.15447154471545,56.75813008130081 47.30691056910569,56.75813008130081 47.459349593495936,56.75813008130081 47.5609756097561,56.75813008130081 47.71341463414634,56.75813008130081 47.8150406504065,56.75813008130081 47.96747967479675,56.80894308943089 48.06910569105691,56.80894308943089 48.22154471544715,56.80894308943089 48.3739837398374,56.859756097560975 48.52642276422764,56.859756097560975 48.67886178861789,56.859756097560975 48.83130081300813,56.859756097560975 48.983739837398375,56.859756097560975 49.1869918699187,56.859756097560975 49.33943089430894,56.859756097560975 49.49186991869919,56.859756097560975 49.69512195121951,56.859756097560975 49.89837398373984,56.859756097560975 50.05081300813008,56.859756097560975" fill="none" stroke="black" stroke-width="0.6"></polyline><polyline points="50.05081300813008,56.859756097560975 50.2540650406504,56.859756097560975 50.45731707317073,56.859756097560975 50.66056910569105,56.80894308943089 50.762195121951216,56.80894308943089 51.016260162601625,56.80894308943089 51.21951219512195,56.75813008130081 51.32113821138211,56.75813008130081 51.37195121951219,56.75813008130081 51.52439024390244,56.75813008130081 51.67682926829268,56.70731707317073 51.880081300813,56.70731707317073 52.03252032520325,56.65650406504065 52.13414634146341,56.605691056910565 52.28658536585366,56.55487804878049 52.4390243902439,56.5040650406504 52.540650406504064,56.453252032520325 52.69308943089431,56.40243902439024 52.79471544715447,56.35162601626016 52.896341463414636,56.30081300813008 52.9979674796748,56.25 53.09959349593496,56.25 53.201219512195124,56.199186991869915 53.302845528455286,56.14837398373984 53.40447154471545,56.09756097560975 53.50609756097561,56.046747967479675 53.607723577235774,55.99593495934959 53.709349593495936,55.94512195121951 53.8109756097561,55.89430894308943 53.91260162601626,55.84349593495935 53.96341463414634,55.84349593495935 54.014227642276424,55.792682926829265 54.11585365853659,55.74186991869919 54.166666666666664,55.6910569105691 54.26829268292683,55.640243902439025 54.420731707317074,55.58943089430894 54.47154471544715,55.53861788617886 54.573170731707314,55.48780487804878 54.72560975609756,55.4369918699187 54.77642276422764,55.386178861788615 54.8780487804878,55.33536585365854 55.03048780487805,55.233739837398375 55.08130081300813,55.18292682926829 55.18292682926829,55.13211382113821 55.33536585365854,55.08130081300813 55.4369918699187,54.979674796747965 55.53861788617886,54.92886178861789 55.640243902439025,54.8780487804878 55.74186991869919,54.77642276422764 55.84349593495935,54.72560975609756 55.94512195121951,54.6239837398374" fill="none" stroke="black" stroke-width="0.6"></polyline><polyline points="55.94512195121951,54.6239837398374 56.046747967479675,54.573170731707314 56.14837398373984,54.47154471544715 56.25,54.420731707317074 56.35162601626016,54.31910569105691 56.453252032520325,54.21747967479675 56.55487804878049,54.11585365853659 56.605691056910565,54.0650406504065 56.70731707317073,53.96341463414634 56.75813008130081,53.86178861788618 56.859756097560975,53.8109756097561 56.91056910569105,53.709349593495936 57.012195121951216,53.607723577235774 57.11382113821138,53.50609756097561 57.21544715447154,53.353658536585364 57.3170731707317,53.2520325203252 57.36788617886179,53.09959349593496 57.46951219512195,52.9979674796748 57.57113821138211,52.896341463414636 57.62195121951219,52.74390243902439 57.672764227642276,52.59146341463415 57.77439024390244,52.4390243902439 57.8760162601626,52.28658536585366 57.92682926829268,52.13414634146341 58.02845528455284,51.981707317073166 58.079268292682926,51.829268292682926 58.130081300813,51.67682926829268 58.231707317073166,51.52439024390244 58.28252032520325,51.37195121951219 58.33333333333333,51.27032520325203 58.38414634146341,51.11788617886179 58.43495934959349,50.96544715447154 58.43495934959349,50.8130081300813 58.485772357723576,50.609756097560975 58.536585365853654,50.45731707317073 58.536585365853654,50.30487804878049 58.58739837398374,50.15243902439024 58.58739837398374,50.05081300813008 58.58739837398374,49.89837398373984 58.58739837398374,49.796747967479675 58.58739837398374,49.69512195121951 58.58739837398374,49.64430894308943 58.58739837398374,49.59349593495935 58.58739837398374,49.4410569105691 58.58739837398374,49.28861788617886 58.58739837398374,49.136178861788615 58.58739837398374,48.93292682926829 58.58739837398374,48.729674796747965 58.58739837398374,48.47560975609756 58.58739837398374,48.22154471544715 58.58739837398374,47.916666666666664" fill="none" stroke="black" stroke-width="0.6"></polyline><polyline points="58.58739837398374,47.916666666666664 58.536585365853654,47.61178861788618 58.536585365853654,47.357723577235774 58.536585365853654,47.15447154471545 58.485772357723576,47.0020325203252 58.485772357723576,46.84959349593496 58.43495934959349,46.7479674796748 58.38414634146341,46.54471544715447 58.38414634146341,46.392276422764226 58.33333333333333,46.239837398373986 58.28252032520325,46.03658536585366 58.231707317073166,45.88414634146341 58.18089430894309,45.73170731707317 58.079268292682926,45.52845528455285 58.02845528455284,45.3760162601626 57.97764227642276,45.22357723577235 57.8760162601626,45.02032520325203 57.825203252032516,44.86788617886179 57.77439024390244,44.71544715447154 57.672764227642276,44.5630081300813 57.62195121951219,44.46138211382114 57.57113821138211,44.30894308943089 57.52032520325203,44.15650406504065 57.46951219512195,44.05487804878049 57.36788617886179,43.953252032520325 57.3170731707317,43.80081300813008 57.266260162601625,43.75 57.21544715447154,43.64837398373984 57.11382113821138,43.49593495934959 57.012195121951216,43.39430894308943 56.96138211382114,43.24186991869919 56.859756097560975,43.08943089430894 56.75813008130081,42.98780487804878 56.65650406504065,42.886178861788615 56.55487804878049,42.733739837398375 56.453252032520325,42.68292682926829 56.35162601626016,42.58130081300813 56.25,42.53048780487805 56.09756097560975,42.42886178861789 55.99593495934959,42.3780487804878 55.89430894308943,42.27642276422764 55.792682926829265,42.22560975609756 55.640243902439025,42.1239837398374 55.48780487804878,42.02235772357724 55.386178861788615,41.920731707317074 55.18292682926829,41.86991869918699 55.03048780487805,41.76829268292683 54.979674796747965,41.71747967479675 54.8780487804878,41.71747967479675 54.72560975609756,41.666666666666664 54.52235772357724,41.5650406504065" fill="none" stroke="black" stroke-width="0.6"></polyline><polyline points="54.52235772357724,41.5650406504065 54.36991869918699,41.514227642276424 54.21747967479675,41.46341463414634 54.0650406504065,41.41260162601626 53.86178861788618,41.36178861788618 53.709349593495936,41.3109756097561 53.50609756097561,41.209349593495936 53.302845528455286,41.15853658536585 53.09959349593496,41.107723577235774 52.896341463414636,41.00609756097561 52.69308943089431,40.95528455284553 52.4390243902439,40.90447154471545 52.235772357723576,40.802845528455286 52.03252032520325,40.7520325203252 51.77845528455284,40.7520325203252 51.52439024390244,40.701219512195124 51.21951219512195,40.701219512195124 50.96544715447154,40.701219512195124 50.8130081300813,40.701219512195124 50.66056910569105,40.701219512195124 50.40650406504065,40.701219512195124 50.15243902439024,40.701219512195124 49.89837398373984,40.701219512195124 49.69512195121951,40.701219512195124 49.4410569105691,40.701219512195124 49.23780487804878,40.701219512195124 49.03455284552845,40.701219512195124 48.78048780487805,40.701219512195124 48.6280487804878,40.701219512195124 48.42479674796748,40.7520325203252 48.22154471544715,40.7520325203252 48.11991869918699,40.7520325203252 47.96747967479675,40.7520325203252 47.8150406504065,40.7520325203252 47.71341463414634,40.802845528455286 47.5609756097561,40.802845528455286 47.40853658536585,40.802845528455286 47.30691056910569,40.802845528455286 47.15447154471545,40.853658536585364 47.103658536585364,40.853658536585364 47.052845528455286,40.853658536585364 46.90040650406504,40.853658536585364 46.798780487804876,40.853658536585364 46.646341463414636,40.90447154471545 46.49390243902439,40.90447154471545 46.392276422764226,40.95528455284553 46.239837398373986,40.95528455284553 46.08739837398374,41.00609756097561 45.985772357723576,41.05691056910569 45.833333333333336,41.05691056910569 45.73170731707317,41.107723577235774" fill="none" stroke="black" stroke-width="0.6"></polyline><polyline points="45.73170731707317,41.107723577235774 45.579268292682926,41.107723577235774 45.47764227642276,41.15853658536585 45.325203252032516,41.15853658536585 45.172764227642276,41.209349593495936 45.02032520325203,41.260162601626014 44.86788617886179,41.3109756097561 44.66463414634146,41.3109756097561 44.512195121951216,41.36178861788618 44.30894308943089,41.41260162601626 44.105691056910565,41.514227642276424 43.953252032520325,41.5650406504065 43.75,41.61585365853659 43.59756097560975,41.666666666666664 43.44512195121951,41.71747967479675 43.292682926829265,41.76829268292683 43.140243902439025,41.86991869918699 42.9369918699187,41.920731707317074 42.78455284552845,41.97154471544715 42.68292682926829,42.02235772357724 42.53048780487805,42.073170731707314 42.3780487804878,42.1239837398374 42.27642276422764,42.17479674796748 42.1239837398374,42.22560975609756 42.02235772357724,42.27642276422764 41.920731707317074,42.327235772357724 41.76829268292683,42.327235772357724 41.71747967479675,42.3780487804878 41.61585365853659,42.42886178861789 41.514227642276424,42.479674796747965 41.41260162601626,42.53048780487805 41.3109756097561,42.63211382113821 41.209349593495936,42.68292682926829 41.107723577235774,42.733739837398375 41.00609756097561,42.83536585365854 40.853658536585364,42.9369918699187 40.7520325203252,43.03861788617886 40.59959349593496,43.140243902439025 40.447154471544714,43.24186991869919 40.34552845528455,43.34349593495935 40.24390243902439,43.39430894308943 40.19308943089431,43.44512195121951 40.040650406504064,43.59756097560975 39.88821138211382,43.699186991869915 39.735772357723576,43.85162601626016 39.583333333333336,44.0040650406504 39.43089430894309,44.15650406504065 39.27845528455285,44.30894308943089 39.176829268292686,44.46138211382114 39.07520325203252,44.61382113821138 38.922764227642276,44.766260162601625" fill="none" stroke="black" stroke-width="0.6"></polyline><polyline points="38.922764227642276,44.766260162601625 38.82113821138211,44.918699186991866 38.77032520325203,44.96951219512195 38.71951219512195,45.07113821138211 38.5670731707317,45.27439024390244 38.46544715447154,45.42682926829268 38.3130081300813,45.63008130081301 38.262195121951216,45.78252032520325 38.109756097560975,46.08739837398374 38.00813008130081,46.290650406504064 37.90650406504065,46.49390243902439 37.80487804878049,46.646341463414636 37.7540650406504,46.84959349593496 37.65243902439024,47.052845528455286 37.60162601626016,47.25609756097561 37.5,47.459349593495936 37.449186991869915,47.71341463414634 37.39837398373984,47.96747967479675 37.296747967479675,48.27235772357724 37.24593495934959,48.577235772357724 37.19512195121951,48.78048780487805 37.09349593495935,48.983739837398375 37.042682926829265,49.1869918699187 36.99186991869919,49.390243902439025 36.890243902439025,49.59349593495935 36.83943089430894,49.84756097560975 36.78861788617886,50.05081300813008 36.73780487804878,50.30487804878049 36.6869918699187,50.50813008130081 36.636178861788615,50.66056910569105 36.636178861788615,50.86382113821138 36.636178861788615,51.016260162601625 36.636178861788615,51.168699186991866 36.636178861788615,51.32113821138211 36.636178861788615,51.575203252032516 36.636178861788615,51.77845528455284 36.636178861788615,52.03252032520325 36.636178861788615,52.28658536585366 36.636178861788615,52.540650406504064 36.6869918699187,52.74390243902439 36.6869918699187,52.9979674796748 36.73780487804878,53.15040650406504 36.78861788617886,53.353658536585364 36.78861788617886,53.55691056910569 36.83943089430894,53.760162601626014 36.890243902439025,54.014227642276424 36.890243902439025,54.26829268292683 36.9410569105691,54.573170731707314 36.9410569105691,54.8780487804878 36.99186991869919,55.18292682926829 37.042682926829265,55.386178861788615" fill="none" stroke="black" stroke-width="0.6"></polyline><polyline points="37.042682926829265,55.386178861788615 37.09349593495935,55.640243902439025 37.09349593495935,55.74186991869919 37.14430894308943,55.84349593495935 37.19512195121951,56.046747967479675 37.24593495934959,56.25 37.296747967479675,56.453252032520325 37.34756097560975,56.70731707317073 37.39837398373984,56.96138211382114 37.449186991869915,57.266260162601625 37.5,57.46951219512195 37.55081300813008,57.672764227642276 37.65243902439024,57.8760162601626 37.703252032520325,58.02845528455284 37.80487804878049,58.130081300813 37.90650406504065,58.33333333333333 37.95731707317073,58.485772357723576 38.05894308943089,58.739837398373986 38.16056910569105,58.94308943089431 38.262195121951216,59.197154471544714 38.36382113821138,59.451219512195124 38.46544715447154,59.65447154471545 38.5670731707317,59.857723577235774 38.71951219512195,60.0609756097561 38.82113821138211,60.21341463414634 38.922764227642276,60.416666666666664 39.07520325203252,60.56910569105691 39.176829268292686,60.77235772357724 39.329268292682926,60.92479674796748 39.43089430894309,61.1280487804878 39.53252032520325,61.33130081300813 39.63414634146341,61.53455284552845 39.78658536585366,61.73780487804878 39.83739837398374,61.83943089430894 39.9390243902439,61.890243902439025 40.040650406504064,62.042682926829265 40.19308943089431,62.19512195121951 40.34552845528455,62.34756097560975 40.4979674796748,62.449186991869915 40.65040650406504,62.55081300813008 40.802845528455286,62.703252032520325 40.90447154471545,62.855691056910565 41.05691056910569,63.00813008130081 41.209349593495936,63.16056910569105 41.36178861788618,63.3130081300813 41.514227642276424,63.46544715447154 41.666666666666664,63.61788617886179 41.81910569105691,63.71951219512195 41.97154471544715,63.82113821138211 42.1239837398374,63.922764227642276 42.327235772357724,64.02439024390243" fill="none" stroke="black" stroke-width="0.6"></polyline><polyline points="42.327235772357724,64.02439024390243 42.53048780487805,64.1260162601626 42.68292682926829,64.17682926829268 42.886178861788615,64.27845528455285 43.03861788617886,64.380081300813 43.1910569105691,64.48170731707317 43.39430894308943,64.58333333333333 43.59756097560975,64.6849593495935 43.75,64.78658536585365 43.953252032520325,64.88821138211382 44.15650406504065,64.98983739837398 44.41056910569105,65.09146341463415 44.66463414634146,65.2439024390244 44.96951219512195,65.39634146341463 45.27439024390244,65.54878048780488 45.63008130081301,65.70121951219512 45.985772357723576,65.85365853658537 46.290650406504064,66.0060975609756 46.59552845528455,66.10772357723577 46.951219512195124,66.20934959349593 47.25609756097561,66.3109756097561 47.5609756097561,66.36178861788618 47.86585365853659,66.46341463414635 48.11991869918699,66.51422764227642 48.42479674796748,66.51422764227642 48.67886178861789,66.51422764227642 48.983739837398375,66.51422764227642 49.28861788617886,66.51422764227642 49.59349593495935,66.51422764227642 49.89837398373984,66.51422764227642 50.15243902439024,66.51422764227642 50.45731707317073,66.51422764227642 50.71138211382114,66.51422764227642 51.016260162601625,66.51422764227642 51.32113821138211,66.51422764227642 51.575203252032516,66.46341463414635 51.829268292682926,66.46341463414635 52.083333333333336,66.41260162601625 52.33739837398374,66.36178861788618 52.59146341463415,66.36178861788618 52.79471544715447,66.3109756097561 52.9979674796748,66.3109756097561 53.302845528455286,66.26016260162602 53.50609756097561,66.26016260162602 53.760162601626014,66.20934959349593 53.96341463414634,66.15853658536585 54.21747967479675,66.10772357723577 54.420731707317074,66.10772357723577 54.67479674796748,66.0060975609756 54.8780487804878,65.95528455284553 55.08130081300813,65.90447154471545" fill="none" stroke="black" stroke-width="0.6"></polyline><polyline points="55.08130081300813,65.90447154471545 55.28455284552845,65.90447154471545 55.48780487804878,65.85365853658537 55.6910569105691,65.80284552845528 55.89430894308943,65.7520325203252 56.09756097560975,65.65040650406505 56.30081300813008,65.59959349593495 56.5040650406504,65.4979674796748 56.65650406504065,65.39634146341463 56.80894308943089,65.34552845528455 57.012195121951216,65.2439024390244 57.16463414634146,65.14227642276423 57.36788617886179,65.04065040650406 57.57113821138211,64.98983739837398 57.77439024390244,64.88821138211382 57.97764227642276,64.78658536585365 58.18089430894309,64.6849593495935 58.33333333333333,64.58333333333333 58.536585365853654,64.48170731707317 58.63821138211382,64.43089430894308 58.739837398373986,64.380081300813 58.94308943089431,64.27845528455285 59.146341463414636,64.17682926829268 59.34959349593496,64.07520325203252 59.5020325203252,63.97357723577235 59.75609756097561,63.87195121951219 59.959349593495936,63.71951219512195 60.16260162601626,63.61788617886179 60.36585365853659,63.46544715447154 60.56910569105691,63.262195121951216 60.77235772357724,63.109756097560975 60.92479674796748,62.95731707317073 61.1280487804878,62.7540650406504 61.33130081300813,62.60162601626016 61.483739837398375,62.39837398373984 61.6869918699187,62.19512195121951 61.83943089430894,62.042682926829265 62.042682926829265,61.83943089430894 62.24593495934959,61.6869918699187 62.39837398373984,61.483739837398375 62.60162601626016,61.33130081300813 62.7540650406504,61.077235772357724 62.90650406504065,60.8739837398374 63.05894308943089,60.670731707317074 63.21138211382114,60.416666666666664 63.3130081300813,60.3150406504065 63.36382113821138,60.21341463414634 63.516260162601625,60.010162601626014 63.668699186991866,59.80691056910569 63.77032520325203,59.603658536585364 63.922764227642276,59.40040650406504" fill="none" stroke="black" stroke-width="0.6"></polyline><polyline points="63.922764227642276,59.40040650406504 64.1260162601626,59.197154471544714 64.22764227642276,59.04471544715447 64.380081300813,58.84146341463415 64.53252032520325,58.58739837398374 64.6341463414634,58.33333333333333 64.73577235772358,58.079268292682926 64.83739837398373,57.825203252032516 64.9390243902439,57.57113821138211 65.04065040650406,57.3170731707317 65.14227642276423,57.11382113821138 65.2439024390244,56.91056910569105 65.29471544715447,56.70731707317073 65.39634146341463,56.5040650406504 65.44715447154472,56.35162601626016 65.4979674796748,56.14837398373984 65.54878048780488,56.09756097560975 65.54878048780488,55.99593495934959 65.59959349593495,55.792682926829265 65.65040650406505,55.58943089430894 65.70121951219512,55.386178861788615 65.7520325203252,55.18292682926829 65.80284552845528,54.92886178861789 65.80284552845528,54.72560975609756 65.85365853658537,54.573170731707314 65.90447154471545,54.36991869918699 65.90447154471545,54.21747967479675 65.95528455284553,54.014227642276424 66.0060975609756,53.8109756097561 66.0060975609756,53.607723577235774 66.0569105691057,53.353658536585364 66.0569105691057,53.09959349593496 66.10772357723577,52.84552845528455 66.10772357723577,52.642276422764226 66.15853658536585,52.38821138211382 66.15853658536585,52.235772357723576 66.20934959349593,52.13414634146341 66.20934959349593,51.981707317073166 66.20934959349593,51.93089430894309 66.20934959349593,51.77845528455284 66.26016260162602,51.67682926829268 66.26016260162602,51.52439024390244 66.26016260162602,51.32113821138211 66.3109756097561,51.0670731707317 66.3109756097561,50.8130081300813 66.36178861788618,50.55894308943089 66.41260162601625,50.30487804878049 66.41260162601625,50.10162601626016 66.41260162601625,49.89837398373984 66.41260162601625,49.69512195121951 66.41260162601625,49.542682926829265" fill="none" stroke="black" stroke-width="0.6"></polyline><polyline points="66.41260162601625,49.542682926829265 66.41260162601625,49.33943089430894 66.41260162601625,49.1869918699187 66.41260162601625,48.983739837398375 66.41260162601625,48.729674796747965 66.41260162601625,48.47560975609756 66.41260162601625,48.170731707317074 66.41260162601625,47.86585365853659 66.41260162601625,47.5609756097561 66.41260162601625,47.30691056910569 66.41260162601625,47.052845528455286 66.36178861788618,46.798780487804876 66.3109756097561,46.59552845528455 66.26016260162602,46.392276422764226 66.20934959349593,46.1890243902439 66.15853658536585,45.985772357723576 66.10772357723577,45.73170731707317 66.0569105691057,45.47764227642276 66.0060975609756,45.22357723577235 65.95528455284553,44.96951219512195 65.90447154471545,44.66463414634146 65.85365853658537,44.46138211382114 65.85365853658537,44.25813008130081 65.80284552845528,44.05487804878049 65.7520325203252,43.953252032520325 65.70121951219512,43.80081300813008 65.65040650406505,43.699186991869915 65.59959349593495,43.546747967479675 65.54878048780488,43.44512195121951 65.44715447154472,43.292682926829265 65.44715447154472,43.08943089430894 65.34552845528455,42.886178861788615 65.34552845528455,42.68292682926829 65.2439024390244,42.479674796747965 65.1930894308943,42.22560975609756 65.14227642276423,42.073170731707314 65.09146341463415,41.86991869918699 64.98983739837398,41.666666666666664 64.88821138211382,41.514227642276424 64.83739837398373,41.36178861788618 64.73577235772358,41.209349593495936 64.6849593495935,41.00609756097561 64.6341463414634,40.853658536585364 64.53252032520325,40.59959349593496 64.48170731707317,40.396341463414636 64.43089430894308,40.142276422764226 64.380081300813,39.88821138211382 64.27845528455285,39.6849593495935 64.17682926829268,39.48170731707317 64.07520325203252,39.22764227642276 63.922764227642276,39.02439024390244" fill="none" stroke="black" stroke-width="0.6"></polyline><polyline points="63.922764227642276,39.02439024390244 63.82113821138211,38.82113821138211 63.668699186991866,38.61788617886179 63.5670731707317,38.41463414634146 63.46544715447154,38.21138211382114 63.3130081300813,37.95731707317073 63.262195121951216,37.80487804878049 63.16056910569105,37.55081300813008 63.00813008130081,37.34756097560975 62.90650406504065,37.19512195121951 62.7540650406504,37.042682926829265 62.60162601626016,36.890243902439025 62.449186991869915,36.78861788617886 62.296747967479675,36.6869918699187 62.14430894308943,36.58536585365854 62.042682926829265,36.53455284552845 61.9410569105691,36.43292682926829 61.83943089430894,36.38211382113821 61.83943089430894,36.33130081300813 61.73780487804878,36.28048780487805 61.636178861788615,36.17886178861789 61.53455284552845,36.1280487804878 61.43292682926829,36.02642276422764 61.33130081300813,35.97560975609756 61.229674796747965,35.8739837398374 61.077235772357724,35.77235772357724 60.97560975609756,35.72154471544715 60.823170731707314,35.61991869918699 60.72154471544715,35.56910569105691 60.56910569105691,35.46747967479675 60.416666666666664,35.36585365853659 60.3150406504065,35.3150406504065 60.21341463414634,35.21341463414634 60.0609756097561,35.11178861788618 59.90853658536585,35.0609756097561 59.75609756097561,34.959349593495936 59.552845528455286,34.857723577235774 59.40040650406504,34.75609756097561 59.197154471544714,34.65447154471545 58.99390243902439,34.552845528455286 58.790650406504064,34.451219512195124 58.63821138211382,34.298780487804876 58.43495934959349,34.197154471544714 58.231707317073166,34.04471544715447 58.02845528455284,33.94308943089431 57.825203252032516,33.790650406504064 57.62195121951219,33.6890243902439 57.418699186991866,33.58739837398374 57.21544715447154,33.485772357723576 56.96138211382114,33.4349593495935 56.75813008130081,33.333333333333336" fill="none" stroke="black" stroke-width="0.6"></polyline><polyline points="56.75813008130081,33.333333333333336 56.55487804878049,33.28252032520325 56.35162601626016,33.23170731707317 56.14837398373984,33.13008130081301 55.99593495934959,33.079268292682926 55.792682926829265,32.97764227642276 55.640243902439025,32.926829268292686 55.4369918699187,32.8760162601626 55.233739837398375,32.77439024390244 55.03048780487805,32.72357723577236 54.827235772357724,32.672764227642276 54.6239837398374,32.6219512195122 54.420731707317074,32.6219512195122 54.21747967479675,32.57113821138211 54.0650406504065,32.52032520325203 53.86178861788618,32.52032520325203 53.65853658536585,32.46951219512195 53.50609756097561,32.418699186991866 53.302845528455286,32.418699186991866 53.09959349593496,32.36788617886179 52.947154471544714,32.36788617886179 52.69308943089431,32.3170731707317 52.540650406504064,32.3170731707317 52.33739837398374,32.3170731707317 52.13414634146341,32.3170731707317 51.93089430894309,32.266260162601625 51.77845528455284,32.266260162601625 51.575203252032516,32.266260162601625 51.37195121951219,32.21544715447154 51.168699186991866,32.21544715447154 50.96544715447154,32.16463414634146 50.8130081300813,32.16463414634146 50.609756097560975,32.11382113821138 50.45731707317073,32.11382113821138 50.2540650406504,32.11382113821138 50.10162601626016,32.11382113821138 49.949186991869915,32.11382113821138 49.796747967479675,32.11382113821138 49.64430894308943,32.11382113821138 49.49186991869919,32.11382113821138 49.33943089430894,32.11382113821138 49.136178861788615,32.11382113821138 48.983739837398375,32.11382113821138 48.78048780487805,32.11382113821138 48.6280487804878,32.11382113821138 48.42479674796748,32.11382113821138 48.27235772357724,32.11382113821138 48.06910569105691,32.11382113821138 48.01829268292683,32.11382113821138 47.916666666666664,32.11382113821138 47.764227642276424,32.11382113821138" fill="none" stroke="black" stroke-width="0.6"></polyline><polyline points="47.764227642276424,32.11382113821138 47.61178861788618,32.11382113821138 47.40853658536585,32.11382113821138 47.25609756097561,32.11382113821138 47.103658536585364,32.11382113821138 46.90040650406504,32.11382113821138 46.697154471544714,32.11382113821138 46.49390243902439,32.11382113821138 46.290650406504064,32.11382113821138 46.08739837398374,32.11382113821138 45.88414634146341,32.16463414634146 45.68089430894309,32.16463414634146 45.47764227642276,32.21544715447154 45.27439024390244,32.21544715447154 45.07113821138211,32.266260162601625 44.86788617886179,32.3170731707317 44.66463414634146,32.3170731707317 44.46138211382114,32.36788617886179 44.30894308943089,32.36788617886179 44.105691056910565,32.418699186991866 43.90243902439024,32.46951219512195 43.75,32.52032520325203 43.546747967479675,32.57113821138211 43.34349593495935,32.6219512195122 43.1910569105691,32.72357723577236 42.98780487804878,32.77439024390244 42.78455284552845,32.8760162601626 42.63211382113821,32.926829268292686 42.42886178861789,33.02845528455285 42.22560975609756,33.079268292682926 42.073170731707314,33.13008130081301 41.86991869918699,33.23170731707317 41.71747967479675,33.28252032520325 41.514227642276424,33.38414634146341 41.36178861788618,33.485772357723576 41.209349593495936,33.53658536585366 41.00609756097561,33.63821138211382 40.853658536585364,33.739837398373986 40.65040650406504,33.790650406504064 40.4979674796748,33.892276422764226 40.29471544715447,33.99390243902439 40.142276422764226,34.04471544715447 39.989837398373986,34.146341463414636 39.78658536585366,34.2479674796748 39.63414634146341,34.298780487804876 39.48170731707317,34.40040650406504 39.27845528455285,34.5020325203252 39.1260162601626,34.603658536585364 38.97357723577235,34.70528455284553 38.87195121951219,34.75609756097561 38.77032520325203,34.80691056910569" fill="none" stroke="black" stroke-width="0.6"></polyline><polyline points="38.77032520325203,34.80691056910569 38.61788617886179,34.959349593495936 38.46544715447154,35.0609756097561 38.3130081300813,35.16260162601626 38.109756097560975,35.3150406504065 37.95731707317073,35.416666666666664 37.80487804878049,35.51829268292683 37.65243902439024,35.670731707317074 37.5,35.77235772357724 37.296747967479675,35.8739837398374 37.14430894308943,35.97560975609756 36.99186991869919,36.1280487804878 36.83943089430894,36.28048780487805 36.636178861788615,36.43292682926829 36.483739837398375,36.636178861788615 36.28048780487805,36.78861788617886 36.1280487804878,36.9410569105691 35.92479674796748,37.14430894308943 35.77235772357724,37.296747967479675 35.61991869918699,37.449186991869915 35.46747967479675,37.65243902439024 35.3150406504065,37.80487804878049 35.16260162601626,37.95731707317073 35.010162601626014,38.109756097560975 34.857723577235774,38.262195121951216 34.75609756097561,38.46544715447154 34.603658536585364,38.61788617886179 34.451219512195124,38.82113821138211 34.298780487804876,39.02439024390244 34.146341463414636,39.176829268292686 33.99390243902439,39.38008130081301 33.892276422764226,39.53252032520325 33.790650406504064,39.63414634146341 33.6890243902439,39.83739837398374 33.53658536585366,39.9390243902439 33.4349593495935,40.142276422764226 33.333333333333336,40.29471544715447 33.18089430894309,40.447154471544714 33.02845528455285,40.65040650406504 32.926829268292686,40.802845528455286 32.82520325203252,41.00609756097561 32.77439024390244,41.05691056910569 32.72357723577236,41.15853658536585 32.6219512195122,41.3109756097561 32.57113821138211,41.41260162601626 32.46951219512195,41.5650406504065 32.418699186991866,41.666666666666664 32.3170731707317,41.86991869918699 32.21544715447154,42.02235772357724 32.11382113821138,42.17479674796748 32.0630081300813,42.3780487804878" fill="none" stroke="black" stroke-width="0.6"></polyline><polyline points="32.0630081300813,42.3780487804878 31.910569105691057,42.58130081300813 31.808943089430894,42.78455284552845 31.70731707317073,42.98780487804878 31.554878048780488,43.24186991869919 31.453252032520325,43.44512195121951 31.30081300813008,43.64837398373984 31.19918699186992,43.90243902439024 31.097560975609756,44.15650406504065 30.945121951219512,44.359756097560975 30.84349593495935,44.66463414634146 30.691056910569106,44.918699186991866 30.589430894308943,45.22357723577235 30.4369918699187,45.52845528455285 30.284552845528456,45.78252032520325 30.182926829268293,46.03658536585366 30.03048780487805,46.290650406504064 29.928861788617887,46.49390243902439 29.827235772357724,46.697154471544714 29.776422764227643,46.84959349593496 29.725609756097562,47.0020325203252 29.6239837398374,47.20528455284553 29.522357723577237,47.510162601626014 29.471544715447155,47.8150406504065 29.369918699186993,48.11991869918699 29.268292682926827,48.52642276422764 29.166666666666664,48.983739837398375 29.0650406504065,49.542682926829265 28.912601626016258,50.05081300813008 28.810975609756095,50.45731707317073 28.709349593495933,50.86382113821138 28.60772357723577,51.21951219512195 28.455284552845526,51.575203252032516 28.353658536585364,51.93089430894309 28.20121951219512,52.38821138211382 27.997967479674795,52.84552845528455 27.84552845528455,53.353658536585364 27.693089430894307,53.8109756097561 27.540650406504064,54.21747967479675 27.4390243902439,54.47154471544715 27.33739837398374,54.77642276422764 27.286585365853657,54.92886178861789 27.235772357723576,55.08130081300813 27.184959349593495,55.386178861788615 27.134146341463413,55.6910569105691 27.03252032520325,55.99593495934959 26.98170731707317,56.35162601626016 26.93089430894309,56.5040650406504 26.93089430894309,56.65650406504065 26.880081300813007,56.96138211382114 26.829268292682926,57.21544715447154" fill="none" stroke="black" stroke-width="0.6"></polyline><polyline points="26.829268292682926,57.21544715447154 26.829268292682926,57.418699186991866 26.829268292682926,57.57113821138211 26.829268292682926,57.77439024390244 26.880081300813007,57.92682926829268 26.93089430894309,58.130081300813 27.03252032520325,58.28252032520325 27.134146341463413,58.536585365853654 27.184959349593495,58.84146341463415 27.286585365853657,59.197154471544714 27.33739837398374,59.5020325203252 27.4390243902439,59.80691056910569 27.489837398373982,60.0609756097561 27.540650406504064,60.264227642276424 27.591463414634145,60.46747967479675 27.693089430894307,60.61991869918699 27.74390243902439,60.77235772357724 27.79471544715447,60.97560975609756 27.896341463414632,61.17886178861789 28.048780487804876,61.483739837398375 28.15040650406504,61.890243902439025 28.302845528455283,62.449186991869915 28.455284552845526,62.855691056910565 28.55691056910569,63.262195121951216 28.60772357723577,63.61788617886179 28.65853658536585,63.82113821138211 28.709349593495933,64.07520325203252 28.810975609756095,64.27845528455285 28.861788617886177,64.48170731707317 28.912601626016258,64.6849593495935 28.96341463414634,64.9390243902439 29.0650406504065,65.14227642276423 29.166666666666664,65.44715447154472 29.268292682926827,65.70121951219512 29.31910569105691,65.95528455284553 29.420731707317074,66.10772357723577 29.522357723577237,66.3109756097561 29.573170731707318,66.46341463414635 29.67479674796748,66.61585365853658 29.776422764227643,66.71747967479675 29.827235772357724,66.8191056910569 29.878048780487806,66.92073170731707 29.979674796747968,67.07317073170732 30.03048780487805,67.1239837398374 30.03048780487805,67.17479674796748 30.132113821138212,67.32723577235772 30.284552845528456,67.58130081300813 30.4369918699187,67.88617886178862 30.640243902439025,68.24186991869918 30.79268292682927,68.54674796747967 30.89430894308943,68.75" fill="none" stroke="black" stroke-width="0.6"></polyline><polyline points="30.89430894308943,68.75 31.046747967479675,69.0040650406504 31.19918699186992,69.3089430894309 31.351626016260163,69.51219512195122 31.504065040650406,69.71544715447155 31.65650406504065,69.91869918699187 31.808943089430894,70.0711382113821 31.961382113821138,70.22357723577235 32.11382113821138,70.3760162601626 32.266260162601625,70.52845528455285 32.46951219512195,70.68089430894308 32.6219512195122,70.83333333333333 32.82520325203252,71.03658536585365 33.02845528455285,71.23983739837398 33.18089430894309,71.39227642276423 33.38414634146341,71.49390243902438 33.53658536585366,71.59552845528455 33.739837398373986,71.69715447154472 33.892276422764226,71.79878048780488 34.04471544715447,71.84959349593495 34.197154471544714,72.0020325203252 34.34959349593496,72.10365853658537 34.5020325203252,72.20528455284553 34.70528455284553,72.35772357723577 34.857723577235774,72.45934959349593 35.010162601626014,72.61178861788618 35.16260162601626,72.71341463414635 35.36585365853659,72.8150406504065 35.56910569105691,72.96747967479675 35.72154471544715,73.0691056910569 35.97560975609756,73.17073170731707 36.17886178861789,73.3739837398374 36.43292682926829,73.57723577235772 36.6869918699187,73.78048780487805 36.9410569105691,74.03455284552845 37.14430894308943,74.23780487804878 37.34756097560975,74.39024390243902 37.55081300813008,74.54268292682927 37.7540650406504,74.64430894308943 37.95731707317073,74.79674796747967 38.16056910569105,74.94918699186992 38.41463414634146,75.05081300813008 38.61788617886179,75.20325203252033 38.82113821138211,75.35569105691057 39.07520325203252,75.5081300813008 39.27845528455285,75.66056910569105 39.53252032520325,75.86382113821138 39.78658536585366,76.01626016260163 40.040650406504064,76.21951219512195 40.34552845528455,76.42276422764228 40.59959349593496,76.57520325203252" fill="none" stroke="black" stroke-width="0.6"></polyline><polyline points="40.59959349593496,76.57520325203252 40.90447154471545,76.72764227642276 41.209349593495936,76.880081300813 41.46341463414634,76.98170731707317 41.71747967479675,77.1341463414634 41.97154471544715,77.23577235772358 42.17479674796748,77.38821138211382 42.42886178861789,77.48983739837398 42.68292682926829,77.64227642276423 42.886178861788615,77.74390243902438 43.08943089430894,77.84552845528455 43.292682926829265,77.89634146341463 43.44512195121951,77.9471544715447 43.64837398373984,77.9979674796748 43.85162601626016,78.09959349593495 44.0040650406504,78.15040650406505 44.20731707317073,78.20121951219512 44.41056910569105,78.2520325203252 44.5630081300813,78.35365853658537 44.71544715447154,78.40447154471545 44.918699186991866,78.45528455284553 45.07113821138211,78.5569105691057 45.22357723577235,78.60772357723577 45.42682926829268,78.65853658536585 45.63008130081301,78.70934959349593 45.78252032520325,78.70934959349593 45.985772357723576,78.76016260162602 46.13821138211382,78.8109756097561 46.290650406504064,78.8109756097561 46.44308943089431,78.86178861788618 46.646341463414636,78.86178861788618 46.84959349593496,78.91260162601625 47.052845528455286,78.96341463414635 47.25609756097561,79.01422764227642 47.459349593495936,79.01422764227642 47.66260162601626,79.0650406504065 47.8150406504065,79.0650406504065 48.01829268292683,79.11585365853658 48.22154471544715,79.11585365853658 48.3739837398374,79.11585365853658 48.577235772357724,79.11585365853658 48.78048780487805,79.11585365853658 48.983739837398375,79.11585365853658 49.1869918699187,79.0650406504065 49.390243902439025,79.0650406504065 49.542682926829265,79.01422764227642 49.796747967479675,79.01422764227642 49.949186991869915,79.01422764227642 50.15243902439024,78.96341463414635 50.40650406504065,78.91260162601625 50.55894308943089,78.91260162601625" fill="none" stroke="black" stroke-width="0.6"></polyline><polyline points="50.55894308943089,78.91260162601625 50.8130081300813,78.86178861788618 51.016260162601625,78.8109756097561 51.27032520325203,78.76016260162602 51.52439024390244,78.70934959349593 51.829268292682926,78.65853658536585 52.083333333333336,78.5569105691057 52.28658536585366,78.5060975609756 52.59146341463415,78.45528455284553 52.79471544715447,78.35365853658537 53.048780487804876,78.30284552845528 53.302845528455286,78.20121951219512 53.55691056910569,78.09959349593495 54.36991869918699,77.84552845528455 54.6239837398374,77.79471544715447 54.92886178861789,77.74390243902438 55.4369918699187,77.59146341463415 55.792682926829265,77.54065040650406 56.046747967479675,77.48983739837398 56.35162601626016,77.38821138211382 56.65650406504065,77.33739837398373 56.91056910569105,77.23577235772358 57.21544715447154,77.1849593495935 57.52032520325203,77.08333333333333 57.77439024390244,76.98170731707317 58.079268292682926,76.93089430894308 58.33333333333333,76.82926829268293 58.63821138211382,76.72764227642276 58.892276422764226,76.6260162601626 59.146341463414636,76.52439024390243 59.34959349593496,76.3719512195122 59.603658536585364,76.27032520325203 59.857723577235774,76.11788617886178 60.11178861788618,76.01626016260163 60.3150406504065,75.91463414634146 60.56910569105691,75.76219512195122 60.823170731707314,75.66056910569105 61.02642276422764,75.5589430894309 61.229674796747965,75.45731707317073 61.43292682926829,75.35569105691057 61.636178861788615,75.2540650406504 61.890243902439025,75.15243902439025 62.042682926829265,75.10162601626016 62.24593495934959,75 62.449186991869915,74.89837398373983 62.65243902439024,74.79674796747967 62.855691056910565,74.6951219512195 63.05894308943089,74.59349593495935 63.21138211382114,74.49186991869918 63.36382113821138,74.39024390243902 63.5670731707317,74.28861788617886" fill="none" stroke="black" stroke-width="0.6"></polyline><polyline points="63.5670731707317,74.28861788617886 63.71951219512195,74.1869918699187 63.922764227642276,74.03455284552845 64.07520325203252,73.9329268292683 64.27845528455285,73.78048780487805 64.43089430894308,73.67886178861788 64.6341463414634,73.57723577235772 64.78658536585365,73.47560975609755 64.98983739837398,73.32317073170732 65.1930894308943,73.22154471544715 65.39634146341463,73.119918699187 65.54878048780488,73.01829268292683 65.70121951219512,72.86585365853658 65.85365853658537,72.71341463414635 66.0569105691057,72.5609756097561 66.20934959349593,72.45934959349593 66.41260162601625,72.3069105691057 66.61585365853658,72.10365853658537 66.76829268292683,71.95121951219512 66.97154471544715,71.7479674796748 67.17479674796748,71.59552845528455 67.32723577235772,71.39227642276423 67.53048780487805,71.1890243902439 67.73373983739837,70.98577235772358 67.88617886178862,70.83333333333333 68.08943089430895,70.630081300813 68.29268292682927,70.3760162601626 68.4451219512195,70.17276422764228 68.64837398373983,69.96951219512195 68.85162601626016,69.71544715447155 69.05487804878048,69.51219512195122 69.2581300813008,69.3089430894309 69.46138211382113,69.05487804878048 69.66463414634146,68.85162601626016 69.86788617886178,68.64837398373983 70.0711382113821,68.4451219512195 70.22357723577235,68.24186991869918 70.3760162601626,67.98780487804878 70.57926829268293,67.73373983739837 70.78252032520325,67.53048780487805 70.98577235772358,67.27642276422765 71.03658536585365,67.17479674796748 71.1890243902439,67.02235772357723 71.34146341463415,66.8191056910569 71.54471544715447,66.61585365853658 71.69715447154472,66.41260162601625 71.84959349593495,66.20934959349593 71.95121951219512,66.10772357723577 72.05284552845528,66.0060975609756 72.20528455284553,65.80284552845528 72.35772357723577,65.59959349593495" fill="none" stroke="black" stroke-width="0.6"></polyline><polyline points="72.35772357723577,65.59959349593495 72.51016260162602,65.34552845528455 72.66260162601625,65.09146341463415 72.8150406504065,64.88821138211382 72.96747967479675,64.6849593495935 73.119918699187,64.48170731707317 73.27235772357723,64.27845528455285 73.42479674796748,64.02439024390243 73.52642276422765,63.82113821138211 73.67886178861788,63.61788617886179 73.78048780487805,63.41463414634146 73.8821138211382,63.16056910569105 73.98373983739837,62.95731707317073 74.13617886178862,62.703252032520325 74.23780487804878,62.39837398373984 74.33943089430895,62.14430894308943 74.4410569105691,61.890243902439025 74.54268292682927,61.636178861788615 74.64430894308943,61.43292682926829 74.7459349593496,61.229674796747965 74.84756097560975,61.02642276422764 74.94918699186992,60.823170731707314 75.05081300813008,60.56910569105691 75.15243902439025,60.3150406504065 75.20325203252033,60.0609756097561 75.30487804878048,59.80691056910569 75.40650406504065,59.552845528455286 75.5081300813008,59.34959349593496 75.60975609756098,59.146341463414636 75.71138211382113,58.892276422764226 75.76219512195122,58.6890243902439 75.86382113821138,58.485772357723576 75.91463414634146,58.28252032520325 75.96544715447155,58.130081300813 75.96544715447155,58.02845528455284 76.0670731707317,57.825203252032516 76.11788617886178,57.62195121951219 76.16869918699187,57.418699186991866 76.21951219512195,57.21544715447154 76.27032520325203,57.012195121951216 76.3211382113821,56.80894308943089 76.3719512195122,56.605691056910565 76.42276422764228,56.35162601626016 76.47357723577235,56.14837398373984 76.52439024390243,55.94512195121951 76.57520325203252,55.74186991869919 76.6260162601626,55.53861788617886 76.67682926829268,55.33536585365854 76.67682926829268,55.08130081300813 76.72764227642276,54.8780487804878 76.77845528455285,54.6239837398374" fill="none" stroke="black" stroke-width="0.6"></polyline><polyline points="76.77845528455285,54.6239837398374 76.82926829268293,54.36991869918699 76.82926829268293,54.0650406504065 76.880081300813,53.760162601626014 76.93089430894308,53.50609756097561 76.98170731707317,53.201219512195124 76.98170731707317,52.896341463414636 77.03252032520325,52.59146341463415 77.08333333333333,52.33739837398374 77.08333333333333,52.1849593495935 77.08333333333333,52.03252032520325 77.1341463414634,51.77845528455284 77.1341463414634,51.575203252032516 77.1849593495935,51.32113821138211 77.1849593495935,51.21951219512195 77.1849593495935,51.11788617886179 77.1849593495935,51.016260162601625 77.1849593495935,51.016260162601625 77.1849593495935,51.016260162601625 77.1849593495935,51.016260162601625 77.1849593495935,51.016260162601625 77.1849593495935,51.016260162601625 77.1849593495935,51.016260162601625 77.23577235772358,51.016260162601625 77.23577235772358,51.016260162601625 77.28658536585365,50.91463414634146 77.33739837398373,50.8130081300813 77.38821138211382,50.762195121951216" fill="none" stroke="black" stroke-width="0.6"></polyline></svg>