<svg height="100" width="100" preserveAspectRatio="xMidYMid meet"><polyline points="50.15243902439024,50.40650406504065 50.15243902439024,50.40650406504065 50.10162601626016,50.40650406504065 50.05081300813008,50.40650406504065 50,50.40650406504065 49.949186991869915,50.40650406504065 49.949186991869915,50.355691056910565 49.89837398373984,50.355691056910565 49.89837398373984,50.355691056910565 49.89837398373984,50.355691056910565 49.89837398373984,50.30487804878049 49.89837398373984,50.30487804878049 49.89837398373984,50.2540650406504 49.949186991869915,50.203252032520325 49.949186991869915,50.203252032520325 50,50.15243902439024 50,50.15243902439024 50,50.15243902439024 50.05081300813008,50.15243902439024 50.05081300813008,50.15243902439024 50.05081300813008,50.10162601626016 50.10162601626016,50.10162601626016 50.10162601626016,50.10162601626016 50.10162601626016,50.10162601626016 50.10162601626016,50.05081300813008 50.10162601626016,50 50.15243902439024,49.949186991869915 50.15243902439024,49.89837398373984 50.15243902439024,49.796747967479675 50.15243902439024,49.64430894308943 50.15243902439024,49.49186991869919 50.15243902439024,49.33943089430894 50.15243902439024,49.1869918699187 50.15243902439024,49.03455284552845 50.15243902439024,48.88211382113821 50.10162601626016,48.78048780487805 50.10162601626016,48.67886178861789 50.05081300813008,48.577235772357724 49.949186991869915,48.47560975609756 49.89837398373984,48.3739837398374 49.89837398373984,48.3739837398374 49.84756097560975,48.323170731707314 49.796747967479675,48.27235772357724 49.74593495934959,48.22154471544715 49.64430894308943,48.170731707317074 49.59349593495935,48.11991869918699 49.49186991869919,48.11991869918699 49.390243902439025,48.06910569105691 49.28861788617886,48.06910569105691 49.1869918699187,48.06910569105691 49.08536585365854,48.06910569105691" fill="none" stroke="black" stroke-width="0.6"></polyline><polyline points="49.08536585365854,48.06910569105691 48.93292682926829,48.06910569105691 48.83130081300813,48.06910569105691 48.78048780487805,48.06910569105691 48.67886178861789,48.06910569105691 48.577235772357724,48.06910569105691 48.52642276422764,48.06910569105691 48.52642276422764,48.06910569105691 48.42479674796748,48.11991869918699 48.3739837398374,48.11991869918699 48.27235772357724,48.170731707317074 48.170731707317074,48.22154471544715 48.11991869918699,48.22154471544715 48.01829268292683,48.323170731707314 47.96747967479675,48.3739837398374 47.86585365853659,48.42479674796748 47.764227642276424,48.52642276422764 47.66260162601626,48.577235772357724 47.5609756097561,48.6280487804878 47.510162601626014,48.67886178861789 47.40853658536585,48.729674796747965 47.30691056910569,48.78048780487805 47.25609756097561,48.83130081300813 47.15447154471545,48.88211382113821 47.103658536585364,48.93292682926829 47.052845528455286,48.983739837398375 47.0020325203252,49.03455284552845 46.951219512195124,49.136178861788615 46.90040650406504,49.1869918699187 46.90040650406504,49.28861788617886 46.84959349593496,49.390243902439025 46.798780487804876,49.4410569105691 46.798780487804876,49.542682926829265 46.798780487804876,49.59349593495935 46.798780487804876,49.69512195121951 46.798780487804876,49.796747967479675 46.798780487804876,49.89837398373984 46.798780487804876,50.05081300813008 46.798780487804876,50.203252032520325 46.798780487804876,50.40650406504065 46.798780487804876,50.66056910569105 46.798780487804876,50.86382113821138 46.798780487804876,51.0670731707317 46.798780487804876,51.21951219512195 46.798780487804876,51.37195121951219 46.798780487804876,51.47357723577235 46.84959349593496,51.6260162601626 46.84959349593496,51.72764227642276 46.84959349593496,51.829268292682926 46.84959349593496,51.981707317073166 46.84959349593496,52.083333333333336" fill="none" stroke="black" stroke-width="0.6"></polyline><polyline points="46.84959349593496,52.083333333333336 46.84959349593496,52.235772357723576 46.84959349593496,52.33739837398374 46.84959349593496,52.489837398373986 46.84959349593496,52.59146341463415 46.90040650406504,52.74390243902439 46.90040650406504,52.896341463414636 46.90040650406504,52.9979674796748 46.90040650406504,53.15040650406504 46.951219512195124,53.302845528455286 46.951219512195124,53.40447154471545 47.0020325203252,53.50609756097561 47.0020325203252,53.55691056910569 47.0020325203252,53.55691056910569 47.052845528455286,53.65853658536585 47.103658536585364,53.760162601626014 47.15447154471545,53.8109756097561 47.20528455284553,53.91260162601626 47.30691056910569,54.014227642276424 47.357723577235774,54.11585365853659 47.40853658536585,54.21747967479675 47.510162601626014,54.31910569105691 47.5609756097561,54.36991869918699 47.66260162601626,54.47154471544715 47.764227642276424,54.52235772357724 47.86585365853659,54.6239837398374 47.916666666666664,54.67479674796748 48.01829268292683,54.72560975609756 48.11991869918699,54.77642276422764 48.22154471544715,54.827235772357724 48.323170731707314,54.8780487804878 48.42479674796748,54.92886178861789 48.52642276422764,54.979674796747965 48.67886178861789,55.03048780487805 48.78048780487805,55.08130081300813 48.88211382113821,55.08130081300813 49.03455284552845,55.13211382113821 49.1869918699187,55.18292682926829 49.33943089430894,55.233739837398375 49.49186991869919,55.233739837398375 49.59349593495935,55.28455284552845 49.796747967479675,55.28455284552845 49.89837398373984,55.28455284552845 50.05081300813008,55.33536585365854 50.203252032520325,55.33536585365854 50.355691056910565,55.33536585365854 50.50813008130081,55.33536585365854 50.66056910569105,55.33536585365854 50.8130081300813,55.33536585365854 50.96544715447154,55.28455284552845 51.168699186991866,55.233739837398375" fill="none" stroke="black" stroke-width="0.6"></polyline><polyline points="51.168699186991866,55.233739837398375 51.32113821138211,55.18292682926829 51.47357723577235,55.18292682926829 51.67682926829268,55.13211382113821 51.829268292682926,55.08130081300813 51.981707317073166,55.03048780487805 52.13414634146341,54.979674796747965 52.28658536585366,54.92886178861789 52.4390243902439,54.8780487804878 52.59146341463415,54.77642276422764 52.74390243902439,54.72560975609756 52.896341463414636,54.67479674796748 53.048780487804876,54.573170731707314 53.201219512195124,54.52235772357724 53.353658536585364,54.47154471544715 53.50609756097561,54.36991869918699 53.65853658536585,54.31910569105691 53.760162601626014,54.26829268292683 53.91260162601626,54.21747967479675 54.0650406504065,54.166666666666664 54.166666666666664,54.0650406504065 54.31910569105691,53.96341463414634 54.420731707317074,53.91260162601626 54.52235772357724,53.8109756097561 54.6239837398374,53.760162601626014 54.72560975609756,53.65853658536585 54.827235772357724,53.607723577235774 54.92886178861789,53.55691056910569 54.979674796747965,53.45528455284553 55.08130081300813,53.40447154471545 55.13211382113821,53.302845528455286 55.18292682926829,53.201219512195124 55.28455284552845,53.09959349593496 55.386178861788615,52.947154471544714 55.4369918699187,52.84552845528455 55.48780487804878,52.74390243902439 55.58943089430894,52.59146341463415 55.640243902439025,52.489837398373986 55.6910569105691,52.38821138211382 55.792682926829265,52.28658536585366 55.84349593495935,52.1849593495935 55.89430894308943,52.13414634146341 55.94512195121951,52.03252032520325 55.99593495934959,51.981707317073166 56.046747967479675,51.880081300813 56.09756097560975,51.77845528455284 56.14837398373984,51.6260162601626 56.199186991869915,51.52439024390244 56.25,51.37195121951219 56.30081300813008,51.27032520325203 56.30081300813008,51.11788617886179" fill="none" stroke="black" stroke-width="0.6"></polyline><polyline points="56.30081300813008,51.11788617886179 56.35162601626016,51.016260162601625 56.35162601626016,50.86382113821138 56.35162601626016,50.762195121951216 56.40243902439024,50.609756097560975 56.40243902439024,50.45731707317073 56.40243902439024,50.2540650406504 56.453252032520325,50.10162601626016 56.453252032520325,49.89837398373984 56.453252032520325,49.64430894308943 56.453252032520325,49.49186991869919 56.453252032520325,49.28861788617886 56.453252032520325,49.08536585365854 56.453252032520325,48.93292682926829 56.453252032520325,48.78048780487805 56.453252032520325,48.577235772357724 56.40243902439024,48.3739837398374 56.35162601626016,48.170731707317074 56.35162601626016,48.06910569105691 56.35162601626016,47.916666666666664 56.30081300813008,47.66260162601626 56.25,47.357723577235774 56.25,47.0020325203252 56.199186991869915,46.697154471544714 56.199186991869915,46.392276422764226 56.14837398373984,46.08739837398374 56.09756097560975,45.833333333333336 56.046747967479675,45.63008130081301 55.99593495934959,45.42682926829268 55.94512195121951,45.325203252032516 55.89430894308943,45.22357723577235 55.792682926829265,45.07113821138211 55.74186991869919,44.96951219512195 55.6910569105691,44.86788617886179 55.58943089430894,44.71544715447154 55.53861788617886,44.61382113821138 55.53861788617886,44.5630081300813 55.4369918699187,44.41056910569105 55.4369918699187,44.359756097560975 55.28455284552845,44.105691056910565 55.233739837398375,44.05487804878049 55.13211382113821,43.90243902439024 55.08130081300813,43.80081300813008 54.979674796747965,43.75 54.8780487804878,43.64837398373984 54.827235772357724,43.59756097560975 54.72560975609756,43.49593495934959 54.67479674796748,43.39430894308943 54.573170731707314,43.34349593495935 54.47154471544715,43.24186991869919 54.420731707317074,43.1910569105691" fill="none" stroke="black" stroke-width="0.6"></polyline><polyline points="54.420731707317074,43.1910569105691 54.31910569105691,43.08943089430894 54.21747967479675,43.03861788617886 54.11585365853659,42.98780487804878 54.014227642276424,42.886178861788615 53.91260162601626,42.886178861788615 53.760162601626014,42.83536585365854 53.709349593495936,42.78455284552845 53.65853658536585,42.78455284552845 53.55691056910569,42.78455284552845 53.40447154471545,42.733739837398375 53.302845528455286,42.733739837398375 53.15040650406504,42.733739837398375 53.048780487804876,42.68292682926829 52.947154471544714,42.68292682926829 52.79471544715447,42.63211382113821 52.69308943089431,42.58130081300813 52.540650406504064,42.53048780487805 52.4390243902439,42.53048780487805 52.28658536585366,42.479674796747965 52.1849593495935,42.42886178861789 52.03252032520325,42.3780487804878 51.880081300813,42.3780487804878 51.72764227642276,42.327235772357724 51.575203252032516,42.327235772357724 51.37195121951219,42.327235772357724 51.21951219512195,42.327235772357724 51.0670731707317,42.327235772357724 50.96544715447154,42.27642276422764 50.8130081300813,42.27642276422764 50.66056910569105,42.27642276422764 50.50813008130081,42.22560975609756 50.40650406504065,42.22560975609756 50.2540650406504,42.22560975609756 50.15243902439024,42.17479674796748 50,42.17479674796748 49.89837398373984,42.17479674796748 49.74593495934959,42.1239837398374 49.64430894308943,42.1239837398374 49.49186991869919,42.1239837398374 49.390243902439025,42.073170731707314 49.28861788617886,42.073170731707314 49.136178861788615,42.073170731707314 48.983739837398375,42.073170731707314 48.88211382113821,42.02235772357724 48.729674796747965,42.02235772357724 48.577235772357724,42.02235772357724 48.47560975609756,42.02235772357724 48.323170731707314,42.02235772357724 48.22154471544715,41.97154471544715 48.11991869918699,41.97154471544715" fill="none" stroke="black" stroke-width="0.6"></polyline><polyline points="48.11991869918699,41.97154471544715 47.96747967479675,41.97154471544715 47.86585365853659,41.97154471544715 47.71341463414634,41.97154471544715 47.5609756097561,41.97154471544715 47.40853658536585,41.97154471544715 47.25609756097561,42.02235772357724 47.103658536585364,42.02235772357724 46.951219512195124,42.073170731707314 46.798780487804876,42.073170731707314 46.697154471544714,42.1239837398374 46.54471544715447,42.1239837398374 46.44308943089431,42.1239837398374 46.290650406504064,42.1239837398374 46.1890243902439,42.17479674796748 46.08739837398374,42.17479674796748 46.03658536585366,42.17479674796748 45.985772357723576,42.17479674796748 45.88414634146341,42.22560975609756 45.78252032520325,42.22560975609756 45.68089430894309,42.27642276422764 45.63008130081301,42.27642276422764 45.579268292682926,42.327235772357724 45.52845528455285,42.327235772357724 45.47764227642276,42.327235772357724 45.42682926829268,42.3780487804878 45.325203252032516,42.3780487804878 45.325203252032516,42.3780487804878 45.27439024390244,42.42886178861789 45.172764227642276,42.42886178861789 45.12195121951219,42.42886178861789 45.07113821138211,42.479674796747965 45.02032520325203,42.53048780487805 44.918699186991866,42.58130081300813 44.86788617886179,42.63211382113821 44.766260162601625,42.68292682926829 44.66463414634146,42.733739837398375 44.5630081300813,42.78455284552845 44.46138211382114,42.83536585365854 44.359756097560975,42.9369918699187 44.25813008130081,42.98780487804878 44.105691056910565,43.08943089430894 44.0040650406504,43.140243902439025 43.85162601626016,43.24186991869919 43.75,43.34349593495935 43.59756097560975,43.44512195121951 43.44512195121951,43.546747967479675 43.34349593495935,43.64837398373984 43.1910569105691,43.75 43.08943089430894,43.85162601626016 42.98780487804878,43.953252032520325" fill="none" stroke="black" stroke-width="0.6"></polyline><polyline points="42.98780487804878,43.953252032520325 42.83536585365854,44.05487804878049 42.733739837398375,44.15650406504065 42.63211382113821,44.20731707317073 42.53048780487805,44.30894308943089 42.479674796747965,44.359756097560975 42.42886178861789,44.41056910569105 42.327235772357724,44.512195121951216 42.22560975609756,44.61382113821138 42.1239837398374,44.71544715447154 42.02235772357724,44.8170731707317 41.920731707317074,44.918699186991866 41.81910569105691,45.07113821138211 41.76829268292683,45.172764227642276 41.666666666666664,45.27439024390244 41.5650406504065,45.42682926829268 41.514227642276424,45.52845528455285 41.46341463414634,45.63008130081301 41.46341463414634,45.68089430894309 41.36178861788618,45.833333333333336 41.260162601626014,45.985772357723576 41.209349593495936,46.13821138211382 41.107723577235774,46.290650406504064 41.00609756097561,46.44308943089431 40.90447154471545,46.646341463414636 40.802845528455286,46.84959349593496 40.701219512195124,47.0020325203252 40.65040650406504,47.20528455284553 40.59959349593496,47.30691056910569 40.548780487804876,47.40853658536585 40.447154471544714,47.5609756097561 40.34552845528455,47.764227642276424 40.29471544715447,47.96747967479675 40.19308943089431,48.170731707317074 40.142276422764226,48.42479674796748 40.040650406504064,48.6280487804878 39.989837398373986,48.88211382113821 39.9390243902439,49.08536585365854 39.83739837398374,49.33943089430894 39.78658536585366,49.49186991869919 39.735772357723576,49.69512195121951 39.6849593495935,49.89837398373984 39.63414634146341,50.05081300813008 39.583333333333336,50.2540650406504 39.53252032520325,50.50813008130081 39.53252032520325,50.762195121951216 39.48170731707317,50.96544715447154 39.48170731707317,51.21951219512195 39.43089430894309,51.422764227642276 39.43089430894309,51.6260162601626 39.43089430894309,51.829268292682926" fill="none" stroke="black" stroke-width="0.6"></polyline><polyline points="39.43089430894309,51.829268292682926 39.43089430894309,52.03252032520325 39.43089430894309,52.28658536585366 39.43089430894309,52.489837398373986 39.43089430894309,52.69308943089431 39.43089430894309,52.84552845528455 39.43089430894309,52.947154471544714 39.48170731707317,53.201219512195124 39.48170731707317,53.50609756097561 39.53252032520325,53.709349593495936 39.53252032520325,54.014227642276424 39.583333333333336,54.21747967479675 39.63414634146341,54.420731707317074 39.63414634146341,54.6239837398374 39.6849593495935,54.827235772357724 39.735772357723576,55.03048780487805 39.83739837398374,55.233739837398375 39.88821138211382,55.386178861788615 39.9390243902439,55.58943089430894 40.040650406504064,55.792682926829265 40.142276422764226,56.046747967479675 40.24390243902439,56.25 40.34552845528455,56.453252032520325 40.447154471544714,56.605691056910565 40.548780487804876,56.75813008130081 40.701219512195124,56.859756097560975 40.802845528455286,56.96138211382114 40.95528455284553,57.11382113821138 41.05691056910569,57.266260162601625 41.209349593495936,57.36788617886179 41.36178861788618,57.57113821138211 41.46341463414634,57.672764227642276 41.61585365853659,57.825203252032516 41.76829268292683,57.97764227642276 41.920731707317074,58.130081300813 42.073170731707314,58.28252032520325 42.27642276422764,58.43495934959349 42.42886178861789,58.58739837398374 42.58130081300813,58.739837398373986 42.733739837398375,58.892276422764226 42.886178861788615,59.04471544715447 42.98780487804878,59.146341463414636 43.140243902439025,59.298780487804876 43.292682926829265,59.40040650406504 43.39430894308943,59.451219512195124 43.546747967479675,59.552845528455286 43.699186991869915,59.65447154471545 43.85162601626016,59.70528455284553 44.0040650406504,59.80691056910569 44.105691056910565,59.90853658536585 44.25813008130081,60.010162601626014" fill="none" stroke="black" stroke-width="0.6"></polyline><polyline points="44.25813008130081,60.010162601626014 44.41056910569105,60.11178861788618 44.512195121951216,60.16260162601626 44.66463414634146,60.21341463414634 44.8170731707317,60.3150406504065 44.96951219512195,60.36585365853659 45.02032520325203,60.36585365853659 45.07113821138211,60.416666666666664 45.22357723577235,60.46747967479675 45.325203252032516,60.51829268292683 45.47764227642276,60.56910569105691 45.63008130081301,60.61991869918699 45.73170731707317,60.670731707317074 45.833333333333336,60.72154471544715 45.985772357723576,60.77235772357724 46.08739837398374,60.823170731707314 46.239837398373986,60.8739837398374 46.34146341463415,60.8739837398374 46.49390243902439,60.92479674796748 46.59552845528455,60.97560975609756 46.7479674796748,60.97560975609756 46.84959349593496,61.02642276422764 46.951219512195124,61.077235772357724 47.103658536585364,61.1280487804878 47.25609756097561,61.229674796747965 47.357723577235774,61.28048780487805 47.510162601626014,61.33130081300813 47.61178861788618,61.38211382113821 47.764227642276424,61.43292682926829 47.916666666666664,61.483739837398375 48.01829268292683,61.53455284552845 48.11991869918699,61.58536585365854 48.22154471544715,61.58536585365854 48.27235772357724,61.636178861788615 48.3739837398374,61.6869918699187 48.47560975609756,61.6869918699187 48.6280487804878,61.73780487804878 48.729674796747965,61.78861788617886 48.88211382113821,61.78861788617886 49.03455284552845,61.78861788617886 49.136178861788615,61.83943089430894 49.28861788617886,61.83943089430894 49.4410569105691,61.83943089430894 49.542682926829265,61.83943089430894 49.69512195121951,61.83943089430894 49.84756097560975,61.83943089430894 50,61.83943089430894 50.15243902439024,61.83943089430894 50.2540650406504,61.83943089430894 50.40650406504065,61.83943089430894 50.609756097560975,61.83943089430894" fill="none" stroke="black" stroke-width="0.6"></polyline><polyline points="50.609756097560975,61.83943089430894 50.762195121951216,61.83943089430894 50.96544715447154,61.83943089430894 51.168699186991866,61.83943089430894 51.32113821138211,61.78861788617886 51.52439024390244,61.78861788617886 51.72764227642276,61.78861788617886 51.93089430894309,61.73780487804878 52.13414634146341,61.73780487804878 52.33739837398374,61.6869918699187 52.540650406504064,61.636178861788615 52.74390243902439,61.58536585365854 52.947154471544714,61.483739837398375 53.15040650406504,61.43292682926829 53.353658536585364,61.38211382113821 53.55691056910569,61.28048780487805 53.760162601626014,61.229674796747965 53.96341463414634,61.17886178861789 54.166666666666664,61.077235772357724 54.31910569105691,61.02642276422764 54.52235772357724,60.97560975609756 54.72560975609756,60.8739837398374 54.8780487804878,60.8739837398374 55.08130081300813,60.823170731707314 55.28455284552845,60.77235772357724 55.4369918699187,60.72154471544715 55.640243902439025,60.670731707317074 55.89430894308943,60.56910569105691 55.94512195121951,60.56910569105691 56.046747967479675,60.51829268292683 56.25,60.416666666666664 56.453252032520325,60.3150406504065 56.605691056910565,60.21341463414634 56.80894308943089,60.16260162601626 56.96138211382114,60.0609756097561 57.11382113821138,59.959349593495936 57.3170731707317,59.857723577235774 57.46951219512195,59.75609756097561 57.672764227642276,59.65447154471545 57.825203252032516,59.552845528455286 58.02845528455284,59.451219512195124 58.18089430894309,59.298780487804876 58.33333333333333,59.197154471544714 58.485772357723576,59.09552845528455 58.63821138211382,58.99390243902439 58.739837398373986,58.892276422764226 58.892276422764226,58.790650406504064 58.99390243902439,58.6890243902439 59.146341463414636,58.58739837398374 59.2479674796748,58.485772357723576 59.40040650406504,58.38414634146341" fill="none" stroke="black" stroke-width="0.6"></polyline><polyline points="59.40040650406504,58.38414634146341 59.5020325203252,58.28252032520325 59.603658536585364,58.231707317073166 59.70528455284553,58.130081300813 59.75609756097561,58.079268292682926 59.80691056910569,58.02845528455284 59.959349593495936,57.92682926829268 60.010162601626014,57.825203252032516 60.11178861788618,57.72357723577235 60.21341463414634,57.62195121951219 60.3150406504065,57.52032520325203 60.416666666666664,57.418699186991866 60.46747967479675,57.3170731707317 60.56910569105691,57.266260162601625 60.61991869918699,57.16463414634146 60.72154471544715,57.0630081300813 60.823170731707314,57.012195121951216 60.8739837398374,56.91056910569105 60.97560975609756,56.859756097560975 61.02642276422764,56.75813008130081 61.1280487804878,56.65650406504065 61.17886178861789,56.605691056910565 61.229674796747965,56.5040650406504 61.33130081300813,56.40243902439024 61.38211382113821,56.30081300813008 61.43292682926829,56.199186991869915 61.53455284552845,56.09756097560975 61.58536585365854,56.046747967479675 61.636178861788615,55.94512195121951 61.73780487804878,55.84349593495935 61.78861788617886,55.792682926829265 61.83943089430894,55.6910569105691 61.890243902439025,55.640243902439025 61.9410569105691,55.58943089430894 61.99186991869919,55.48780487804878 62.09349593495935,55.386178861788615 62.14430894308943,55.28455284552845 62.19512195121951,55.18292682926829 62.296747967479675,55.08130081300813 62.34756097560975,54.979674796747965 62.39837398373984,54.92886178861789 62.39837398373984,54.8780487804878 62.5,54.72560975609756 62.5,54.67479674796748 62.55081300813008,54.573170731707314 62.60162601626016,54.52235772357724 62.65243902439024,54.47154471544715 62.65243902439024,54.420731707317074 62.703252032520325,54.31910569105691 62.703252032520325,54.26829268292683 62.7540650406504,54.166666666666664" fill="none" stroke="black" stroke-width="0.6"></polyline><polyline points="62.7540650406504,54.166666666666664 62.80487804878049,54.0650406504065 62.80487804878049,53.96341463414634 62.855691056910565,53.8109756097561 62.90650406504065,53.709349593495936 62.95731707317073,53.607723577235774 62.95731707317073,53.50609756097561 63.00813008130081,53.40447154471545 63.00813008130081,53.302845528455286 63.05894308943089,53.201219512195124 63.05894308943089,53.09959349593496 63.109756097560975,52.9979674796748 63.16056910569105,52.896341463414636 63.16056910569105,52.74390243902439 63.21138211382114,52.59146341463415 63.21138211382114,52.489837398373986 63.262195121951216,52.28658536585366 63.262195121951216,52.13414634146341 63.262195121951216,52.03252032520325 63.3130081300813,51.880081300813 63.3130081300813,51.77845528455284 63.3130081300813,51.72764227642276 63.3130081300813,51.72764227642276 63.3130081300813,51.6260162601626 63.3130081300813,51.575203252032516 63.3130081300813,51.47357723577235 63.3130081300813,51.37195121951219 63.3130081300813,51.21951219512195 63.3130081300813,51.016260162601625 63.3130081300813,50.8130081300813 63.3130081300813,50.66056910569105 63.3130081300813,50.50813008130081 63.3130081300813,50.30487804878049 63.3130081300813,50.203252032520325 63.3130081300813,50.05081300813008 63.3130081300813,50 63.3130081300813,49.89837398373984 63.3130081300813,49.84756097560975 63.3130081300813,49.74593495934959 63.262195121951216,49.64430894308943 63.262195121951216,49.49186991869919 63.262195121951216,49.33943089430894 63.262195121951216,49.1869918699187 63.21138211382114,49.03455284552845 63.21138211382114,48.88211382113821 63.21138211382114,48.78048780487805 63.16056910569105,48.6280487804878 63.16056910569105,48.577235772357724 63.16056910569105,48.577235772357724 63.16056910569105,48.47560975609756 63.109756097560975,48.42479674796748" fill="none" stroke="black" stroke-width="0.6"></polyline><polyline points="63.109756097560975,48.42479674796748 63.109756097560975,48.323170731707314 63.05894308943089,48.170731707317074 63.05894308943089,48.01829268292683 63.00813008130081,47.86585365853659 63.00813008130081,47.66260162601626 63.00813008130081,47.510162601626014 62.95731707317073,47.40853658536585 62.95731707317073,47.30691056910569 62.90650406504065,47.20528455284553 62.90650406504065,47.103658536585364 62.855691056910565,47.052845528455286 62.855691056910565,46.951219512195124 62.80487804878049,46.84959349593496 62.7540650406504,46.798780487804876 62.7540650406504,46.697154471544714 62.703252032520325,46.59552845528455 62.703252032520325,46.44308943089431 62.703252032520325,46.392276422764226 62.65243902439024,46.34146341463415 62.65243902439024,46.1890243902439 62.60162601626016,46.03658536585366 62.60162601626016,45.88414634146341 62.55081300813008,45.73170731707317 62.55081300813008,45.68089430894309 62.5,45.63008130081301 62.5,45.52845528455285 62.449186991869915,45.47764227642276 62.39837398373984,45.42682926829268 62.39837398373984,45.325203252032516 62.39837398373984,45.27439024390244 62.34756097560975,45.172764227642276 62.34756097560975,45.07113821138211 62.296747967479675,44.96951219512195 62.296747967479675,44.86788617886179 62.296747967479675,44.766260162601625 62.24593495934959,44.66463414634146 62.19512195121951,44.5630081300813 62.14430894308943,44.46138211382114 62.14430894308943,44.41056910569105 62.09349593495935,44.30894308943089 62.042682926829265,44.20731707317073 62.042682926829265,44.15650406504065 61.99186991869919,44.05487804878049 61.99186991869919,43.90243902439024 61.9410569105691,43.80081300813008 61.9410569105691,43.699186991869915 61.9410569105691,43.59756097560975 61.890243902439025,43.44512195121951 61.83943089430894,43.34349593495935 61.83943089430894,43.24186991869919" fill="none" stroke="black" stroke-width="0.6"></polyline><polyline points="61.83943089430894,43.24186991869919 61.78861788617886,43.140243902439025 61.73780487804878,43.03861788617886 61.6869918699187,42.9369918699187 61.636178861788615,42.83536585365854 61.636178861788615,42.68292682926829 61.58536585365854,42.58130081300813 61.53455284552845,42.42886178861789 61.483739837398375,42.27642276422764 61.483739837398375,42.1239837398374 61.43292682926829,42.02235772357724 61.38211382113821,41.86991869918699 61.33130081300813,41.71747967479675 61.33130081300813,41.61585365853659 61.28048780487805,41.514227642276424 61.229674796747965,41.41260162601626 61.229674796747965,41.36178861788618 61.17886178861789,41.260162601626014 61.1280487804878,41.107723577235774 61.077235772357724,40.95528455284553 61.02642276422764,40.802845528455286 60.97560975609756,40.59959349593496 60.97560975609756,40.4979674796748 60.92479674796748,40.34552845528455 60.8739837398374,40.19308943089431 60.823170731707314,40.09146341463415 60.77235772357724,39.989837398373986 60.72154471544715,39.88821138211382 60.61991869918699,39.735772357723576 60.61991869918699,39.583333333333336 60.56910569105691,39.43089430894309 60.51829268292683,39.27845528455285 60.46747967479675,39.176829268292686 60.416666666666664,38.97357723577235 60.36585365853659,38.87195121951219 60.3150406504065,38.77032520325203 60.264227642276424,38.71951219512195 60.16260162601626,38.5670731707317 60.0609756097561,38.41463414634146 59.959349593495936,38.262195121951216 59.90853658536585,38.109756097560975 59.80691056910569,37.90650406504065 59.65447154471545,37.703252032520325 59.552845528455286,37.55081300813008 59.451219512195124,37.39837398373984 59.298780487804876,37.296747967479675 59.197154471544714,37.24593495934959 59.09552845528455,37.19512195121951 58.94308943089431,37.09349593495935 58.84146341463415,37.042682926829265 58.739837398373986,36.9410569105691" fill="none" stroke="black" stroke-width="0.6"></polyline><polyline points="58.739837398373986,36.9410569105691 58.58739837398374,36.83943089430894 58.485772357723576,36.73780487804878 58.33333333333333,36.636178861788615 58.18089430894309,36.53455284552845 58.02845528455284,36.483739837398375 57.8760162601626,36.38211382113821 57.72357723577235,36.28048780487805 57.57113821138211,36.17886178861789 57.36788617886179,36.077235772357724 57.21544715447154,36.02642276422764 57.0630081300813,35.97560975609756 56.91056910569105,35.8739837398374 56.70731707317073,35.823170731707314 56.605691056910565,35.77235772357724 56.453252032520325,35.670731707317074 56.25,35.61991869918699 56.14837398373984,35.56910569105691 55.99593495934959,35.51829268292683 55.84349593495935,35.416666666666664 55.6910569105691,35.36585365853659 55.53861788617886,35.3150406504065 55.4369918699187,35.21341463414634 55.28455284552845,35.21341463414634 55.13211382113821,35.16260162601626 55.03048780487805,35.0609756097561 54.8780487804878,35.0609756097561 54.77642276422764,34.959349593495936 54.6239837398374,34.90853658536585 54.52235772357724,34.857723577235774 54.420731707317074,34.80691056910569 54.31910569105691,34.75609756097561 54.21747967479675,34.75609756097561 54.11585365853659,34.70528455284553 54.014227642276424,34.65447154471545 53.96341463414634,34.603658536585364 53.86178861788618,34.552845528455286 53.760162601626014,34.552845528455286 53.709349593495936,34.5020325203252 53.607723577235774,34.451219512195124 53.55691056910569,34.40040650406504 53.45528455284553,34.40040650406504 53.353658536585364,34.34959349593496 53.302845528455286,34.298780487804876 53.201219512195124,34.298780487804876 53.09959349593496,34.2479674796748 52.9979674796748,34.2479674796748 52.896341463414636,34.2479674796748 52.79471544715447,34.197154471544714 52.69308943089431,34.197154471544714 52.59146341463415,34.146341463414636" fill="none" stroke="black" stroke-width="0.6"></polyline><polyline points="52.59146341463415,34.146341463414636 52.489837398373986,34.146341463414636 52.38821138211382,34.146341463414636 52.28658536585366,34.09552845528455 52.1849593495935,34.09552845528455 52.03252032520325,34.09552845528455 51.880081300813,34.09552845528455 51.72764227642276,34.04471544715447 51.575203252032516,34.04471544715447 51.422764227642276,34.04471544715447 51.27032520325203,34.04471544715447 51.11788617886179,34.04471544715447 50.91463414634146,34.09552845528455 50.762195121951216,34.09552845528455 50.55894308943089,34.09552845528455 50.40650406504065,34.146341463414636 50.203252032520325,34.146341463414636 50.05081300813008,34.197154471544714 49.84756097560975,34.197154471544714 49.69512195121951,34.2479674796748 49.49186991869919,34.2479674796748 49.33943089430894,34.298780487804876 49.136178861788615,34.34959349593496 48.93292682926829,34.40040650406504 48.729674796747965,34.40040650406504 48.577235772357724,34.451219512195124 48.3739837398374,34.5020325203252 48.22154471544715,34.5020325203252 48.01829268292683,34.552845528455286 47.86585365853659,34.552845528455286 47.71341463414634,34.603658536585364 47.510162601626014,34.65447154471545 47.30691056910569,34.70528455284553 47.15447154471545,34.75609756097561 46.951219512195124,34.80691056910569 46.798780487804876,34.80691056910569 46.646341463414636,34.857723577235774 46.49390243902439,34.90853658536585 46.290650406504064,34.90853658536585 46.13821138211382,34.959349593495936 45.985772357723576,35.010162601626014 45.833333333333336,35.010162601626014 45.68089430894309,35.0609756097561 45.52845528455285,35.11178861788618 45.3760162601626,35.11178861788618 45.172764227642276,35.16260162601626 45.02032520325203,35.21341463414634 44.86788617886179,35.264227642276424 44.66463414634146,35.3150406504065 44.512195121951216,35.36585365853659 44.359756097560975,35.416666666666664" fill="none" stroke="black" stroke-width="0.6"></polyline><polyline points="44.359756097560975,35.416666666666664 44.15650406504065,35.46747967479675 44.0040650406504,35.51829268292683 43.85162601626016,35.56910569105691 43.64837398373984,35.670731707317074 43.49593495934959,35.72154471544715 43.34349593495935,35.77235772357724 43.140243902439025,35.8739837398374 42.98780487804878,35.92479674796748 42.83536585365854,35.97560975609756 42.63211382113821,36.077235772357724 42.479674796747965,36.1280487804878 42.327235772357724,36.17886178861789 42.1239837398374,36.229674796747965 41.97154471544715,36.28048780487805 41.81910569105691,36.33130081300813 41.61585365853659,36.43292682926829 41.46341463414634,36.53455284552845 41.3109756097561,36.636178861788615 41.107723577235774,36.73780487804878 40.95528455284553,36.83943089430894 40.7520325203252,36.9410569105691 40.548780487804876,37.09349593495935 40.396341463414636,37.19512195121951 40.19308943089431,37.296747967479675 39.989837398373986,37.449186991869915 39.78658536585366,37.55081300813008 39.63414634146341,37.703252032520325 39.43089430894309,37.80487804878049 39.27845528455285,37.95731707317073 39.07520325203252,38.05894308943089 38.87195121951219,38.21138211382114 38.71951219512195,38.36382113821138 38.516260162601625,38.516260162601625 38.3130081300813,38.668699186991866 38.109756097560975,38.87195121951219 37.90650406504065,39.02439024390244 37.703252032520325,39.176829268292686 37.5,39.329268292682926 37.34756097560975,39.48170731707317 37.14430894308943,39.6849593495935 36.99186991869919,39.83739837398374 36.83943089430894,39.989837398373986 36.636178861788615,40.19308943089431 36.483739837398375,40.34552845528455 36.33130081300813,40.548780487804876 36.17886178861789,40.701219512195124 36.077235772357724,40.853658536585364 35.97560975609756,41.00609756097561 35.8739837398374,41.15853658536585 35.77235772357724,41.260162601626014" fill="none" stroke="black" stroke-width="0.6"></polyline><polyline points="35.77235772357724,41.260162601626014 35.72154471544715,41.41260162601626 35.61991869918699,41.5650406504065 35.51829268292683,41.71747967479675 35.46747967479675,41.86991869918699 35.36585365853659,42.073170731707314 35.264227642276424,42.27642276422764 35.16260162601626,42.479674796747965 35.0609756097561,42.733739837398375 35.010162601626014,42.9369918699187 34.90853658536585,43.08943089430894 34.857723577235774,43.292682926829265 34.80691056910569,43.44512195121951 34.75609756097561,43.64837398373984 34.70528455284553,43.80081300813008 34.65447154471545,44.0040650406504 34.603658536585364,44.25813008130081 34.552845528455286,44.46138211382114 34.451219512195124,44.71544715447154 34.40040650406504,44.918699186991866 34.34959349593496,45.12195121951219 34.298780487804876,45.27439024390244 34.2479674796748,45.47764227642276 34.197154471544714,45.68089430894309 34.146341463414636,45.88414634146341 34.09552845528455,46.08739837398374 34.04471544715447,46.290650406504064 33.99390243902439,46.54471544715447 33.94308943089431,46.798780487804876 33.892276422764226,47.0020325203252 33.84146341463415,47.20528455284553 33.790650406504064,47.459349593495936 33.739837398373986,47.61178861788618 33.6890243902439,47.8150406504065 33.63821138211382,48.01829268292683 33.63821138211382,48.170731707317074 33.58739837398374,48.3739837398374 33.53658536585366,48.6280487804878 33.53658536585366,48.83130081300813 33.485772357723576,49.03455284552845 33.4349593495935,49.28861788617886 33.38414634146341,49.59349593495935 33.38414634146341,50.05081300813008 33.28252032520325,50.66056910569105 33.23170731707317,51.0670731707317 33.18089430894309,51.422764227642276 33.13008130081301,51.575203252032516 33.13008130081301,51.67682926829268 33.079268292682926,51.93089430894309 32.97764227642276,52.1849593495935 32.926829268292686,52.4390243902439" fill="none" stroke="black" stroke-width="0.6"></polyline><polyline points="32.926829268292686,52.4390243902439 32.8760162601626,52.69308943089431 32.82520325203252,52.947154471544714 32.72357723577236,53.201219512195124 32.72357723577236,53.45528455284553 32.672764227642276,53.709349593495936 32.6219512195122,53.96341463414634 32.6219512195122,54.166666666666664 32.6219512195122,54.36991869918699 32.6219512195122,54.573170731707314 32.6219512195122,54.77642276422764 32.6219512195122,54.979674796747965 32.6219512195122,55.08130081300813 32.6219512195122,55.18292682926829 32.672764227642276,55.386178861788615 32.72357723577236,55.58943089430894 32.72357723577236,55.792682926829265 32.77439024390244,55.99593495934959 32.82520325203252,56.199186991869915 32.8760162601626,56.40243902439024 32.926829268292686,56.605691056910565 32.97764227642276,56.80894308943089 33.079268292682926,57.012195121951216 33.13008130081301,57.16463414634146 33.18089430894309,57.266260162601625 33.28252032520325,57.46951219512195 33.38414634146341,57.672764227642276 33.485772357723576,57.8760162601626 33.63821138211382,58.02845528455284 33.739837398373986,58.231707317073166 33.84146341463415,58.38414634146341 33.94308943089431,58.536585365853654 34.04471544715447,58.6890243902439 34.146341463414636,58.84146341463415 34.197154471544714,58.892276422764226 34.2479674796748,58.99390243902439 34.40040650406504,59.146341463414636 34.5020325203252,59.298780487804876 34.603658536585364,59.451219512195124 34.70528455284553,59.552845528455286 34.857723577235774,59.70528455284553 34.959349593495936,59.90853658536585 35.0609756097561,60.0609756097561 35.16260162601626,60.264227642276424 35.264227642276424,60.416666666666664 35.36585365853659,60.61991869918699 35.46747967479675,60.77235772357724 35.61991869918699,60.97560975609756 35.72154471544715,61.077235772357724 35.823170731707314,61.229674796747965 35.97560975609756,61.38211382113821" fill="none" stroke="black" stroke-width="0.6"></polyline><polyline points="35.97560975609756,61.38211382113821 36.077235772357724,61.53455284552845 36.229674796747965,61.636178861788615 36.33130081300813,61.83943089430894 36.483739837398375,61.99186991869919 36.636178861788615,62.14430894308943 36.73780487804878,62.34756097560975 36.890243902439025,62.5 37.042682926829265,62.65243902439024 37.65243902439024,63.21138211382114 37.80487804878049,63.3130081300813 37.95731707317073,63.41463414634146 38.109756097560975,63.5670731707317 38.3130081300813,63.668699186991866 38.46544715447154,63.82113821138211 38.668699186991866,63.97357723577235 38.82113821138211,64.17682926829268 39.02439024390244,64.32926829268293 39.176829268292686,64.48170731707317 39.38008130081301,64.58333333333333 39.53252032520325,64.6849593495935 39.735772357723576,64.83739837398373 39.9390243902439,64.88821138211382 40.09146341463415,64.98983739837398 40.29471544715447,65.09146341463415 40.447154471544714,65.1930894308943 40.548780487804876,65.1930894308943 40.65040650406504,65.2439024390244 40.802845528455286,65.39634146341463 40.95528455284553,65.44715447154472 41.107723577235774,65.54878048780488 41.3109756097561,65.59959349593495 41.46341463414634,65.65040650406505 41.61585365853659,65.7520325203252 41.76829268292683,65.80284552845528 41.920731707317074,65.85365853658537 42.1239837398374,65.95528455284553 42.327235772357724,66.0060975609756 42.479674796747965,66.10772357723577 42.68292682926829,66.15853658536585 42.83536585365854,66.20934959349593 42.98780487804878,66.26016260162602 43.140243902439025,66.3109756097561 43.34349593495935,66.3109756097561 43.49593495934959,66.36178861788618 43.64837398373984,66.41260162601625 43.80081300813008,66.41260162601625 43.90243902439024,66.46341463414635 44.05487804878049,66.51422764227642 44.20731707317073,66.61585365853658 44.359756097560975,66.66666666666667" fill="none" stroke="black" stroke-width="0.6"></polyline><polyline points="44.359756097560975,66.66666666666667 44.512195121951216,66.71747967479675 44.71544715447154,66.76829268292683 44.8170731707317,66.8191056910569 44.86788617886179,66.869918699187 45.12195121951219,66.92073170731707 45.325203252032516,67.02235772357723 45.52845528455285,67.1239837398374 45.78252032520325,67.22560975609755 45.985772357723576,67.3780487804878 46.239837398373986,67.47967479674797 46.49390243902439,67.6321138211382 46.697154471544714,67.6829268292683 46.90040650406504,67.73373983739837 47.103658536585364,67.78455284552845 47.30691056910569,67.78455284552845 47.459349593495936,67.78455284552845 47.66260162601626,67.83536585365853 47.86585365853659,67.88617886178862 48.06910569105691,67.88617886178862 48.27235772357724,67.9369918699187 48.47560975609756,67.98780487804878 48.67886178861789,68.03861788617886 48.88211382113821,68.03861788617886 49.08536585365854,68.08943089430895 49.23780487804878,68.08943089430895 49.4410569105691,68.14024390243902 49.64430894308943,68.14024390243902 49.796747967479675,68.1910569105691 50,68.1910569105691 50.203252032520325,68.1910569105691 50.40650406504065,68.1910569105691 50.55894308943089,68.1910569105691 50.762195121951216,68.1910569105691 50.91463414634146,68.1910569105691 51.11788617886179,68.1910569105691 51.32113821138211,68.1910569105691 51.52439024390244,68.24186991869918 51.72764227642276,68.24186991869918 51.93089430894309,68.24186991869918 52.13414634146341,68.24186991869918 52.33739837398374,68.24186991869918 52.540650406504064,68.24186991869918 52.74390243902439,68.24186991869918 52.947154471544714,68.24186991869918 53.15040650406504,68.24186991869918 53.353658536585364,68.24186991869918 53.55691056910569,68.24186991869918 53.760162601626014,68.1910569105691 53.86178861788618,68.1910569105691 53.96341463414634,68.1910569105691" fill="none" stroke="black" stroke-width="0.6"></polyline><polyline points="53.96341463414634,68.1910569105691 54.166666666666664,68.14024390243902 54.36991869918699,68.14024390243902 54.573170731707314,68.14024390243902 54.72560975609756,68.08943089430895 54.92886178861789,68.08943089430895 55.08130081300813,68.03861788617886 55.28455284552845,67.98780487804878 55.48780487804878,67.9369918699187 55.640243902439025,67.88617886178862 55.84349593495935,67.83536585365853 55.99593495934959,67.78455284552845 56.199186991869915,67.73373983739837 56.35162601626016,67.6829268292683 56.55487804878049,67.6321138211382 56.70731707317073,67.58130081300813 56.859756097560975,67.53048780487805 57.012195121951216,67.47967479674797 57.16463414634146,67.42886178861788 57.3170731707317,67.3780487804878 57.418699186991866,67.32723577235772 57.57113821138211,67.22560975609755 57.72357723577235,67.17479674796748 57.8760162601626,67.1239837398374 58.02845528455284,67.07317073170732 58.130081300813,67.02235772357723 58.28252032520325,66.97154471544715 58.43495934959349,66.869918699187 58.58739837398374,66.8191056910569 58.739837398373986,66.76829268292683 58.892276422764226,66.66666666666667 59.04471544715447,66.61585365853658 59.197154471544714,66.51422764227642 59.34959349593496,66.46341463414635 59.5020325203252,66.36178861788618 59.65447154471545,66.3109756097561 59.857723577235774,66.20934959349593 60.010162601626014,66.10772357723577 60.16260162601626,66.0060975609756 60.36585365853659,65.90447154471545 60.51829268292683,65.80284552845528 60.670731707317074,65.70121951219512 60.8739837398374,65.59959349593495 61.02642276422764,65.4979674796748 61.17886178861789,65.39634146341463 61.33130081300813,65.29471544715447 61.483739837398375,65.1930894308943 61.6869918699187,65.09146341463415 61.83943089430894,64.98983739837398 62.042682926829265,64.88821138211382 62.19512195121951,64.78658536585365" fill="none" stroke="black" stroke-width="0.6"></polyline><polyline points="62.19512195121951,64.78658536585365 62.39837398373984,64.6849593495935 62.55081300813008,64.58333333333333 62.703252032520325,64.43089430894308 62.90650406504065,64.32926829268293 63.05894308943089,64.22764227642276 63.21138211382114,64.17682926829268 63.41463414634146,64.07520325203252 63.5670731707317,63.97357723577235 63.71951219512195,63.87195121951219 63.87195121951219,63.77032520325203 64.02439024390243,63.668699186991866 64.17682926829268,63.5670731707317 64.380081300813,63.46544715447154 64.53252032520325,63.36382113821138 64.6849593495935,63.21138211382114 64.83739837398373,63.05894308943089 64.98983739837398,62.95731707317073 65.14227642276423,62.80487804878049 65.29471544715447,62.65243902439024 65.44715447154472,62.55081300813008 65.54878048780488,62.39837398373984 65.70121951219512,62.19512195121951 65.85365853658537,62.042682926829265 65.95528455284553,61.890243902439025 66.10772357723577,61.6869918699187 66.26016260162602,61.483739837398375 66.41260162601625,61.33130081300813 66.51422764227642,61.077235772357724 66.66666666666667,60.8739837398374 66.76829268292683,60.670731707317074 66.92073170731707,60.51829268292683 67.02235772357723,60.3150406504065 67.17479674796748,60.16260162601626 67.27642276422765,59.959349593495936 67.3780487804878,59.80691056910569 67.47967479674797,59.65447154471545 67.6321138211382,59.451219512195124 67.6829268292683,59.298780487804876 67.78455284552845,59.09552845528455 67.88617886178862,58.94308943089431 67.98780487804878,58.739837398373986 68.08943089430895,58.58739837398374 68.14024390243902,58.43495934959349 68.1910569105691,58.28252032520325 68.29268292682927,58.18089430894309 68.34349593495935,58.02845528455284 68.4451219512195,57.92682926829268 68.4959349593496,57.77439024390244 68.54674796747967,57.672764227642276 68.59756097560975,57.57113821138211" fill="none" stroke="black" stroke-width="0.6"></polyline><polyline points="68.59756097560975,57.57113821138211 68.69918699186992,57.418699186991866 68.75,57.266260162601625 68.80081300813008,57.0630081300813 68.85162601626016,56.859756097560975 68.90243902439025,56.65650406504065 68.95325203252033,56.453252032520325 69.05487804878048,56.199186991869915 69.10569105691057,56.046747967479675 69.15650406504065,55.89430894308943 69.20731707317073,55.74186991869919 69.2581300813008,55.58943089430894 69.3089430894309,55.48780487804878 69.35975609756098,55.33536585365854 69.41056910569105,55.18292682926829 69.41056910569105,55.08130081300813 69.51219512195122,54.92886178861789 69.51219512195122,54.827235772357724 69.5630081300813,54.6239837398374 69.61382113821138,54.52235772357724 69.66463414634146,54.420731707317074 69.71544715447155,54.21747967479675 69.71544715447155,54.11585365853659 69.76626016260163,54.014227642276424 69.8170731707317,53.8109756097561 69.86788617886178,53.607723577235774 69.91869918699187,53.45528455284553 69.91869918699187,53.2520325203252 69.96951219512195,53.048780487804876 69.96951219512195,52.84552845528455 70.02032520325203,52.59146341463415 70.0711382113821,52.33739837398374 70.1219512195122,52.03252032520325 70.17276422764228,51.77845528455284 70.22357723577235,51.47357723577235 70.27439024390243,51.27032520325203 70.32520325203252,51.11788617886179 70.3760162601626,50.96544715447154 70.3760162601626,50.86382113821138 70.3760162601626,50.762195121951216 70.42682926829268,50.609756097560975 70.42682926829268,50.45731707317073 70.42682926829268,50.2540650406504 70.42682926829268,50 70.42682926829268,49.74593495934959 70.42682926829268,49.49186991869919 70.42682926829268,49.23780487804878 70.3760162601626,49.03455284552845 70.32520325203252,48.88211382113821 70.32520325203252,48.729674796747965 70.27439024390243,48.577235772357724" fill="none" stroke="black" stroke-width="0.6"></polyline><polyline points="70.27439024390243,48.577235772357724 70.22357723577235,48.47560975609756 70.17276422764228,48.323170731707314 70.1219512195122,48.22154471544715 70.1219512195122,48.06910569105691 70.0711382113821,47.86585365853659 70.0711382113821,47.66260162601626 70.02032520325203,47.510162601626014 70.02032520325203,47.30691056910569 69.96951219512195,47.103658536585364 69.96951219512195,46.84959349593496 69.91869918699187,46.646341463414636 69.86788617886178,46.392276422764226 69.8170731707317,46.13821138211382 69.71544715447155,45.88414634146341 69.71544715447155,45.68089430894309 69.61382113821138,45.42682926829268 69.61382113821138,45.27439024390244 69.5630081300813,45.12195121951219 69.51219512195122,44.96951219512195 69.51219512195122,44.86788617886179 69.46138211382113,44.766260162601625 69.46138211382113,44.66463414634146 69.41056910569105,44.5630081300813 69.41056910569105,44.46138211382114 69.35975609756098,44.30894308943089 69.35975609756098,44.15650406504065 69.3089430894309,44.0040650406504 69.2581300813008,43.85162601626016 69.2581300813008,43.699186991869915 69.20731707317073,43.546747967479675 69.15650406504065,43.39430894308943 69.15650406504065,43.24186991869919 69.10569105691057,43.140243902439025 69.10569105691057,43.08943089430894 69.05487804878048,42.886178861788615 69.05487804878048,42.733739837398375 69.0040650406504,42.58130081300813 68.95325203252033,42.3780487804878 68.95325203252033,42.22560975609756 68.90243902439025,42.073170731707314 68.85162601626016,41.86991869918699 68.80081300813008,41.71747967479675 68.75,41.5650406504065 68.69918699186992,41.41260162601626 68.64837398373983,41.209349593495936 68.59756097560975,41.05691056910569 68.54674796747967,40.90447154471545 68.4959349593496,40.7520325203252 68.4451219512195,40.59959349593496 68.39430894308943,40.447154471544714" fill="none" stroke="black" stroke-width="0.6"></polyline><polyline points="68.39430894308943,40.447154471544714 68.34349593495935,40.34552845528455 68.29268292682927,40.24390243902439 68.1910569105691,40.142276422764226 68.14024390243902,40.040650406504064 68.08943089430895,39.9390243902439 68.03861788617886,39.78658536585366 67.98780487804878,39.63414634146341 67.9369918699187,39.48170731707317 67.83536585365853,39.27845528455285 67.78455284552845,39.07520325203252 67.73373983739837,38.922764227642276 67.6829268292683,38.71951219512195 67.58130081300813,38.5670731707317 67.53048780487805,38.46544715447154 67.42886178861788,38.3130081300813 67.32723577235772,38.16056910569105 67.22560975609755,38.05894308943089 67.1239837398374,37.855691056910565 67.07317073170732,37.80487804878049 67.02235772357723,37.703252032520325 66.869918699187,37.55081300813008 66.76829268292683,37.34756097560975 66.61585365853658,37.19512195121951 66.51422764227642,37.042682926829265 66.36178861788618,36.890243902439025 66.20934959349593,36.78861788617886 66.0569105691057,36.6869918699187 65.90447154471545,36.53455284552845 65.7520325203252,36.43292682926829 65.65040650406505,36.38211382113821 65.59959349593495,36.33130081300813 65.44715447154472,36.17886178861789 65.34552845528455,36.077235772357724 65.1930894308943,35.92479674796748 65.04065040650406,35.823170731707314 64.98983739837398,35.72154471544715 64.9390243902439,35.670731707317074 64.78658536585365,35.51829268292683 64.6341463414634,35.36585365853659 64.53252032520325,35.264227642276424 64.380081300813,35.11178861788618 64.22764227642276,34.959349593495936 64.07520325203252,34.857723577235774 63.922764227642276,34.75609756097561 63.77032520325203,34.603658536585364 63.61788617886179,34.5020325203252 63.41463414634146,34.40040650406504 63.3130081300813,34.298780487804876 63.16056910569105,34.197154471544714 63.00813008130081,34.04471544715447" fill="none" stroke="black" stroke-width="0.6"></polyline><polyline points="63.00813008130081,34.04471544715447 62.90650406504065,33.94308943089431 62.7540650406504,33.84146341463415 62.60162601626016,33.739837398373986 62.5,33.63821138211382 62.34756097560975,33.485772357723576 62.24593495934959,33.38414634146341 62.09349593495935,33.28252032520325 61.9410569105691,33.18089430894309 61.78861788617886,33.079268292682926 61.636178861788615,32.97764227642276 61.483739837398375,32.8760162601626 61.33130081300813,32.72357723577236 61.17886178861789,32.57113821138211 61.02642276422764,32.46951219512195 60.823170731707314,32.3170731707317 60.670731707317074,32.21544715447154 60.51829268292683,32.11382113821138 60.3150406504065,32.012195121951216 60.16260162601626,31.910569105691057 60.010162601626014,31.859756097560975 59.857723577235774,31.808943089430894 59.70528455284553,31.758130081300813 59.603658536585364,31.65650406504065 59.451219512195124,31.60569105691057 59.298780487804876,31.554878048780488 59.197154471544714,31.504065040650406 59.04471544715447,31.453252032520325 58.94308943089431,31.402439024390244 58.84146341463415,31.351626016260163 58.739837398373986,31.30081300813008 58.63821138211382,31.25 58.485772357723576,31.19918699186992 58.38414634146341,31.148373983739837 58.231707317073166,31.097560975609756 58.079268292682926,31.046747967479675 57.97764227642276,30.995934959349594 57.8760162601626,30.945121951219512 57.825203252032516,30.945121951219512 57.72357723577235,30.89430894308943 57.57113821138211,30.79268292682927 57.46951219512195,30.741869918699187 57.36788617886179,30.691056910569106 57.21544715447154,30.589430894308943 57.11382113821138,30.538617886178862 57.012195121951216,30.48780487804878 56.859756097560975,30.4369918699187 56.70731707317073,30.38617886178862 56.605691056910565,30.335365853658537 56.453252032520325,30.284552845528456 56.35162601626016,30.233739837398375" fill="none" stroke="black" stroke-width="0.6"></polyline><polyline points="56.35162601626016,30.233739837398375 56.25,30.182926829268293 56.14837398373984,30.132113821138212 56.09756097560975,30.132113821138212 56.046747967479675,30.08130081300813 55.94512195121951,30.03048780487805 55.792682926829265,29.979674796747968 55.6910569105691,29.928861788617887 55.53861788617886,29.878048780487806 55.4369918699187,29.776422764227643 55.28455284552845,29.725609756097562 55.08130081300813,29.67479674796748 54.92886178861789,29.6239837398374 54.77642276422764,29.573170731707318 54.6239837398374,29.522357723577237 54.52235772357724,29.471544715447155 54.420731707317074,29.420731707317074 54.26829268292683,29.369918699186993 54.11585365853659,29.31910569105691 53.96341463414634,29.268292682926827 53.760162601626014,29.217479674796746 53.607723577235774,29.166666666666664 53.40447154471545,29.115853658536583 53.201219512195124,29.0650406504065 52.9979674796748,29.01422764227642 52.84552845528455,28.96341463414634 52.642276422764226,28.912601626016258 52.489837398373986,28.912601626016258 52.33739837398374,28.861788617886177 52.13414634146341,28.810975609756095 52.03252032520325,28.760162601626014 51.880081300813,28.709349593495933 51.67682926829268,28.709349593495933 51.52439024390244,28.65853658536585 51.47357723577235,28.60772357723577 51.37195121951219,28.60772357723577 51.21951219512195,28.55691056910569 51.016260162601625,28.506097560975608 50.86382113821138,28.506097560975608 50.71138211382114,28.455284552845526 50.50813008130081,28.404471544715445 50.355691056910565,28.404471544715445 50.203252032520325,28.353658536585364 50.05081300813008,28.353658536585364 49.89837398373984,28.302845528455283 49.69512195121951,28.302845528455283 49.542682926829265,28.2520325203252 49.390243902439025,28.20121951219512 49.23780487804878,28.20121951219512 49.136178861788615,28.15040650406504 48.983739837398375,28.15040650406504" fill="none" stroke="black" stroke-width="0.6"></polyline><polyline points="48.983739837398375,28.15040650406504 48.83130081300813,28.15040650406504 48.67886178861789,28.15040650406504 48.52642276422764,28.15040650406504 48.3739837398374,28.15040650406504 48.22154471544715,28.15040650406504 48.06910569105691,28.15040650406504 47.86585365853659,28.15040650406504 47.71341463414634,28.15040650406504 47.5609756097561,28.15040650406504 47.40853658536585,28.15040650406504 47.25609756097561,28.20121951219512 47.103658536585364,28.20121951219512 46.90040650406504,28.2520325203252 46.7479674796748,28.2520325203252 46.59552845528455,28.302845528455283 46.49390243902439,28.302845528455283 46.44308943089431,28.302845528455283 46.290650406504064,28.353658536585364 46.08739837398374,28.353658536585364 45.9349593495935,28.404471544715445 45.88414634146341,28.404471544715445 45.63008130081301,28.455284552845526 45.42682926829268,28.506097560975608 45.27439024390244,28.55691056910569 45.07113821138211,28.60772357723577 44.86788617886179,28.65853658536585 44.66463414634146,28.709349593495933 44.41056910569105,28.760162601626014 44.20731707317073,28.861788617886177 44.0040650406504,28.912601626016258 43.80081300813008,28.96341463414634 43.64837398373984,29.01422764227642 43.44512195121951,29.115853658536583 43.1910569105691,29.166666666666664 43.03861788617886,29.217479674796746 42.83536585365854,29.31910569105691 42.63211382113821,29.369918699186993 42.42886178861789,29.420731707317074 42.22560975609756,29.471544715447155 42.02235772357724,29.573170731707318 41.86991869918699,29.573170731707318 41.666666666666664,29.6239837398374 41.46341463414634,29.67479674796748 41.260162601626014,29.725609756097562 41.05691056910569,29.776422764227643 40.853658536585364,29.827235772357724 40.65040650406504,29.878048780487806 40.447154471544714,29.928861788617887 40.19308943089431,30.03048780487805 39.9390243902439,30.132113821138212" fill="none" stroke="black" stroke-width="0.6"></polyline><polyline points="39.9390243902439,30.132113821138212 39.6849593495935,30.233739837398375 39.48170731707317,30.335365853658537 39.27845528455285,30.38617886178862 39.02439024390244,30.48780487804878 38.77032520325203,30.640243902439025 38.516260162601625,30.741869918699187 38.3130081300813,30.84349593495935 38.05894308943089,30.945121951219512 37.80487804878049,31.046747967479675 37.60162601626016,31.148373983739837 37.39837398373984,31.25 37.19512195121951,31.351626016260163 36.99186991869919,31.453252032520325 36.78861788617886,31.554878048780488 36.636178861788615,31.65650406504065 36.43292682926829,31.758130081300813 36.229674796747965,31.910569105691057 36.02642276422764,32.012195121951216 35.8739837398374,32.11382113821138 35.670731707317074,32.21544715447154 35.46747967479675,32.3170731707317 35.3150406504065,32.46951219512195 35.11178861788618,32.57113821138211 34.959349593495936,32.72357723577236 34.80691056910569,32.8760162601626 34.603658536585364,33.02845528455285 34.451219512195124,33.13008130081301 34.298780487804876,33.28252032520325 34.146341463414636,33.4349593495935 33.99390243902439,33.53658536585366 33.84146341463415,33.6890243902439 33.739837398373986,33.84146341463415 33.58739837398374,33.94308943089431 33.4349593495935,34.09552845528455 33.28252032520325,34.2479674796748 33.18089430894309,34.40040650406504 33.079268292682926,34.552845528455286 32.926829268292686,34.65447154471545 32.8760162601626,34.75609756097561 32.77439024390244,34.90853658536585 32.72357723577236,35.010162601626014 32.6219512195122,35.11178861788618 32.57113821138211,35.16260162601626 32.46951219512195,35.3150406504065 32.36788617886179,35.416666666666664 32.36788617886179,35.46747967479675 32.266260162601625,35.51829268292683 32.16463414634146,35.670731707317074 32.0630081300813,35.823170731707314 31.961382113821138,35.97560975609756" fill="none" stroke="black" stroke-width="0.6"></polyline><polyline points="31.961382113821138,35.97560975609756 31.859756097560975,36.077235772357724 31.758130081300813,36.229674796747965 31.65650406504065,36.38211382113821 31.60569105691057,36.483739837398375 31.504065040650406,36.636178861788615 31.402439024390244,36.73780487804878 31.30081300813008,36.890243902439025 31.19918699186992,36.99186991869919 31.097560975609756,37.19512195121951 30.995934959349594,37.34756097560975 30.89430894308943,37.5 30.79268292682927,37.703252032520325 30.691056910569106,37.90650406504065 30.589430894308943,38.05894308943089 30.4369918699187,38.21138211382114 30.38617886178862,38.262195121951216 30.335365853658537,38.3130081300813 30.284552845528456,38.36382113821138 30.233739837398375,38.41463414634146 30.182926829268293,38.46544715447154 30.08130081300813,38.5670731707317 30.03048780487805,38.668699186991866 29.979674796747968,38.77032520325203 29.878048780487806,38.87195121951219 29.776422764227643,39.02439024390244 29.67479674796748,39.176829268292686 29.573170731707318,39.329268292682926 29.471544715447155,39.53252032520325 29.369918699186993,39.6849593495935 29.268292682926827,39.83739837398374 29.217479674796746,39.989837398373986 29.115853658536583,40.142276422764226 29.0650406504065,40.24390243902439 28.96341463414634,40.34552845528455 28.912601626016258,40.4979674796748 28.861788617886177,40.65040650406504 28.760162601626014,40.802845528455286 28.65853658536585,41.05691056910569 28.60772357723577,41.3109756097561 28.506097560975608,41.61585365853659 28.404471544715445,41.920731707317074 28.302845528455283,42.1239837398374 28.2520325203252,42.27642276422764 28.20121951219512,42.327235772357724 28.15040650406504,42.58130081300813 28.048780487804876,42.83536585365854 27.896341463414632,43.140243902439025 27.74390243902439,43.44512195121951 27.591463414634145,43.80081300813008 27.489837398373982,44.0040650406504" fill="none" stroke="black" stroke-width="0.6"></polyline><polyline points="27.489837398373982,44.0040650406504 27.38821138211382,44.15650406504065 27.33739837398374,44.25813008130081 27.235772357723576,44.30894308943089 27.235772357723576,44.41056910569105 27.184959349593495,44.46138211382114 27.184959349593495,44.5630081300813 27.134146341463413,44.66463414634146 27.134146341463413,44.766260162601625 27.083333333333332,44.918699186991866 27.03252032520325,45.07113821138211 27.03252032520325,45.27439024390244 26.98170731707317,45.52845528455285 26.93089430894309,45.73170731707317 26.93089430894309,45.9349593495935 26.93089430894309,46.13821138211382 26.880081300813007,46.290650406504064 26.880081300813007,46.49390243902439 26.880081300813007,46.646341463414636 26.880081300813007,46.798780487804876 26.880081300813007,46.951219512195124 26.880081300813007,47.15447154471545 26.880081300813007,47.30691056910569 26.880081300813007,47.5609756097561 26.880081300813007,47.764227642276424 26.880081300813007,48.01829268292683 26.880081300813007,48.27235772357724 26.880081300813007,48.52642276422764 26.880081300813007,48.78048780487805 26.880081300813007,49.03455284552845 26.880081300813007,49.23780487804878 26.880081300813007,49.390243902439025 26.880081300813007,49.542682926829265 26.880081300813007,49.69512195121951 26.880081300813007,49.796747967479675 26.829268292682926,49.84756097560975 26.829268292682926,50.05081300813008 26.829268292682926,50.30487804878049 26.778455284552845,50.66056910569105 26.727642276422763,51.0670731707317 26.727642276422763,51.37195121951219 26.727642276422763,51.67682926829268 26.676829268292682,51.981707317073166 26.676829268292682,52.1849593495935 26.676829268292682,52.4390243902439 26.6260162601626,52.642276422764226 26.6260162601626,52.84552845528455 26.6260162601626,53.048780487804876 26.57520325203252,53.2520325203252 26.57520325203252,53.45528455284553 26.57520325203252,53.607723577235774" fill="none" stroke="black" stroke-width="0.6"></polyline><polyline points="26.57520325203252,53.607723577235774 26.524390243902438,53.709349593495936 26.524390243902438,53.709349593495936 26.524390243902438,53.760162601626014 26.524390243902438,53.8109756097561 26.524390243902438,53.86178861788618 26.524390243902438,53.96341463414634 26.524390243902438,54.014227642276424 26.57520325203252,54.11585365853659 26.57520325203252,54.26829268292683 26.6260162601626,54.420731707317074 26.676829268292682,54.573170731707314 26.676829268292682,54.72560975609756 26.727642276422763,54.92886178861789 26.778455284552845,55.08130081300813 26.829268292682926,55.28455284552845 26.880081300813007,55.48780487804878 26.93089430894309,55.74186991869919 26.93089430894309,55.99593495934959 27.03252032520325,56.30081300813008 27.083333333333332,56.65650406504065 27.184959349593495,57.0630081300813 27.235772357723576,57.46951219512195 27.33739837398374,57.72357723577235 27.33739837398374,57.8760162601626 27.38821138211382,57.97764227642276 27.4390243902439,58.02845528455284 27.4390243902439,58.079268292682926 27.489837398373982,58.130081300813 27.489837398373982,58.231707317073166 27.540650406504064,58.28252032520325 27.591463414634145,58.43495934959349 27.642276422764226,58.58739837398374 27.74390243902439,58.739837398373986 27.79471544715447,58.94308943089431 27.84552845528455,59.04471544715447 27.896341463414632,59.197154471544714 27.947154471544714,59.40040650406504 28.048780487804876,59.70528455284553 28.15040650406504,60.010162601626014 28.2520325203252,60.416666666666664 28.353658536585364,60.72154471544715 28.455284552845526,60.97560975609756 28.55691056910569,61.28048780487805 28.60772357723577,61.483739837398375 28.65853658536585,61.73780487804878 28.709349593495933,61.9410569105691 28.760162601626014,62.14430894308943 28.861788617886177,62.296747967479675 28.912601626016258,62.5 29.01422764227642,62.703252032520325" fill="none" stroke="black" stroke-width="0.6"></polyline><polyline points="29.01422764227642,62.703252032520325 29.0650406504065,62.90650406504065 29.166666666666664,63.109756097560975 29.268292682926827,63.262195121951216 29.369918699186993,63.46544715447154 29.471544715447155,63.668699186991866 29.471544715447155,63.71951219512195 29.522357723577237,63.77032520325203 29.573170731707318,63.87195121951219 29.6239837398374,63.97357723577235 29.67479674796748,64.02439024390243 29.725609756097562,64.07520325203252 29.725609756097562,64.07520325203252 29.776422764227643,64.1260162601626 29.776422764227643,64.17682926829268 29.827235772357724,64.22764227642276 29.878048780487806,64.27845528455285 29.928861788617887,64.32926829268293 29.979674796747968,64.380081300813 30.03048780487805,64.48170731707317 30.08130081300813,64.58333333333333 30.182926829268293,64.73577235772358 30.284552845528456,64.88821138211382 30.38617886178862,65.04065040650406 30.48780487804878,65.14227642276423 30.589430894308943,65.2439024390244 30.691056910569106,65.39634146341463 30.79268292682927,65.4979674796748 30.945121951219512,65.65040650406505 31.097560975609756,65.85365853658537 31.25,66.0569105691057 31.402439024390244,66.20934959349593 31.504065040650406,66.36178861788618 31.65650406504065,66.46341463414635 31.758130081300813,66.51422764227642 31.859756097560975,66.61585365853658 31.961382113821138,66.66666666666667 32.012195121951216,66.71747967479675 32.0630081300813,66.76829268292683 32.21544715447154,66.92073170731707 32.36788617886179,67.02235772357723 32.46951219512195,67.17479674796748 32.6219512195122,67.3780487804878 32.77439024390244,67.53048780487805 32.926829268292686,67.6321138211382 33.02845528455285,67.78455284552845 33.18089430894309,67.88617886178862 33.28252032520325,67.9369918699187 33.4349593495935,68.03861788617886 33.53658536585366,68.08943089430895 33.6890243902439,68.14024390243902" fill="none" stroke="black" stroke-width="0.6"></polyline><polyline points="33.6890243902439,68.14024390243902 33.790650406504064,68.1910569105691 33.892276422764226,68.29268292682927 34.04471544715447,68.39430894308943 34.146341463414636,68.54674796747967 34.298780487804876,68.64837398373983 34.40040650406504,68.75 34.552845528455286,68.85162601626016 34.65447154471545,68.90243902439025 34.75609756097561,69.0040650406504 34.857723577235774,69.05487804878048 34.959349593495936,69.15650406504065 35.11178861788618,69.2581300813008 35.21341463414634,69.35975609756098 35.3150406504065,69.51219512195122 35.46747967479675,69.66463414634146 35.61991869918699,69.76626016260163 35.77235772357724,69.96951219512195 35.97560975609756,70.1219512195122 36.1280487804878,70.32520325203252 36.33130081300813,70.52845528455285 36.58536585365854,70.73170731707317 36.78861788617886,70.8841463414634 36.9410569105691,71.03658536585365 37.14430894308943,71.23983739837398 37.296747967479675,71.39227642276423 37.449186991869915,71.49390243902438 37.65243902439024,71.64634146341463 37.80487804878049,71.69715447154472 38.00813008130081,71.79878048780488 38.21138211382114,71.90040650406505 38.36382113821138,71.95121951219512 38.516260162601625,72.10365853658537 38.71951219512195,72.2560975609756 38.922764227642276,72.40853658536585 39.1260162601626,72.5609756097561 39.329268292682926,72.71341463414635 39.48170731707317,72.8150406504065 39.63414634146341,72.86585365853658 39.78658536585366,72.96747967479675 39.88821138211382,72.96747967479675 40.040650406504064,73.01829268292683 40.19308943089431,73.0691056910569 40.29471544715447,73.17073170731707 40.447154471544714,73.22154471544715 40.59959349593496,73.32317073170732 40.701219512195124,73.3739837398374 40.90447154471545,73.47560975609755 41.05691056910569,73.57723577235772 41.209349593495936,73.67886178861788 41.41260162601626,73.72967479674797" fill="none" stroke="black" stroke-width="0.6"></polyline><polyline points="41.41260162601626,73.72967479674797 41.5650406504065,73.78048780487805 41.71747967479675,73.8821138211382 41.86991869918699,73.9329268292683 42.073170731707314,73.98373983739837 42.22560975609756,74.03455284552845 42.42886178861789,74.13617886178862 42.63211382113821,74.1869918699187 42.83536585365854,74.23780487804878 43.03861788617886,74.28861788617886 43.24186991869919,74.33943089430895 43.44512195121951,74.39024390243902 43.64837398373984,74.39024390243902 43.80081300813008,74.39024390243902 44.0040650406504,74.39024390243902 44.20731707317073,74.4410569105691 44.46138211382114,74.4410569105691 44.66463414634146,74.4410569105691 44.86788617886179,74.49186991869918 45.07113821138211,74.49186991869918 45.27439024390244,74.49186991869918 45.47764227642276,74.49186991869918 45.73170731707317,74.49186991869918 45.9349593495935,74.49186991869918 46.08739837398374,74.49186991869918 46.34146341463415,74.49186991869918 46.59552845528455,74.49186991869918 46.798780487804876,74.49186991869918 47.052845528455286,74.49186991869918 47.30691056910569,74.49186991869918 47.5609756097561,74.49186991869918 47.764227642276424,74.49186991869918 48.01829268292683,74.49186991869918 48.27235772357724,74.49186991869918 48.47560975609756,74.49186991869918 48.729674796747965,74.4410569105691 48.983739837398375,74.4410569105691 49.1869918699187,74.4410569105691 49.4410569105691,74.4410569105691 49.69512195121951,74.4410569105691 49.949186991869915,74.4410569105691 50.15243902439024,74.4410569105691 50.40650406504065,74.4410569105691 50.609756097560975,74.4410569105691 50.8130081300813,74.4410569105691 51.0670731707317,74.39024390243902 51.27032520325203,74.39024390243902 51.47357723577235,74.39024390243902 51.72764227642276,74.33943089430895 51.93089430894309,74.33943089430895 52.13414634146341,74.33943089430895" fill="none" stroke="black" stroke-width="0.6"></polyline><polyline points="52.13414634146341,74.33943089430895 52.38821138211382,74.28861788617886 52.59146341463415,74.28861788617886 52.79471544715447,74.23780487804878 53.048780487804876,74.23780487804878 53.15040650406504,74.1869918699187 53.2520325203252,74.1869918699187 53.45528455284553,74.1869918699187 53.709349593495936,74.13617886178862 53.91260162601626,74.13617886178862 54.11585365853659,74.08536585365853 54.31910569105691,74.08536585365853 54.52235772357724,74.03455284552845 54.72560975609756,74.03455284552845 54.92886178861789,74.03455284552845 55.13211382113821,74.03455284552845 55.33536585365854,73.98373983739837 55.53861788617886,73.98373983739837 55.74186991869919,73.9329268292683 55.94512195121951,73.9329268292683 56.14837398373984,73.8821138211382 56.199186991869915,73.8821138211382 56.5040650406504,73.83130081300813 56.65650406504065,73.83130081300813 56.80894308943089,73.78048780487805 57.012195121951216,73.78048780487805 57.0630081300813,73.72967479674797 57.16463414634146,73.72967479674797 57.3170731707317,73.67886178861788 57.46951219512195,73.67886178861788 57.62195121951219,73.6280487804878 57.77439024390244,73.57723577235772 57.92682926829268,73.52642276422765 58.079268292682926,73.47560975609755 58.231707317073166,73.42479674796748 58.38414634146341,73.3739837398374 58.536585365853654,73.32317073170732 58.63821138211382,73.32317073170732 58.790650406504064,73.27235772357723 58.94308943089431,73.22154471544715 59.04471544715447,73.17073170731707 59.197154471544714,73.119918699187 59.2479674796748,73.119918699187 59.34959349593496,73.119918699187 59.451219512195124,73.0691056910569 59.603658536585364,73.01829268292683 59.80691056910569,72.96747967479675 59.959349593495936,72.91666666666667 60.11178861788618,72.86585365853658 60.3150406504065,72.76422764227642 60.46747967479675,72.71341463414635" fill="none" stroke="black" stroke-width="0.6"></polyline><polyline points="60.46747967479675,72.71341463414635 60.61991869918699,72.66260162601625 60.823170731707314,72.61178861788618 60.97560975609756,72.5609756097561 61.17886178861789,72.45934959349593 61.33130081300813,72.40853658536585 61.483739837398375,72.3069105691057 61.6869918699187,72.20528455284553 61.83943089430894,72.10365853658537 61.99186991869919,71.95121951219512 62.19512195121951,71.84959349593495 62.34756097560975,71.69715447154472 62.5,71.54471544715447 62.703252032520325,71.39227642276423 62.90650406504065,71.23983739837398 63.05894308943089,71.08739837398373 63.262195121951216,70.9349593495935 63.46544715447154,70.78252032520325 63.61788617886179,70.68089430894308 63.82113821138211,70.52845528455285 64.02439024390243,70.42682926829268 64.22764227642276,70.32520325203252 64.48170731707317,70.17276422764228 64.6341463414634,70.02032520325203 64.83739837398373,69.91869918699187 65.09146341463415,69.76626016260163 65.2439024390244,69.61382113821138 65.44715447154472,69.51219512195122 65.65040650406505,69.35975609756098 65.80284552845528,69.2581300813008 66.0060975609756,69.10569105691057 66.20934959349593,69.0040650406504 66.41260162601625,68.90243902439025 66.5650406504065,68.75 66.76829268292683,68.64837398373983 66.97154471544715,68.54674796747967 67.1239837398374,68.39430894308943 67.32723577235772,68.29268292682927 67.47967479674797,68.14024390243902 67.6321138211382,68.03861788617886 67.78455284552845,67.9369918699187 67.9369918699187,67.83536585365853 68.08943089430895,67.6829268292683 68.1910569105691,67.6321138211382 68.29268292682927,67.58130081300813 68.4451219512195,67.42886178861788 68.59756097560975,67.27642276422765 68.75,67.1239837398374 68.90243902439025,66.97154471544715 69.05487804878048,66.8191056910569 69.20731707317073,66.66666666666667" fill="none" stroke="black" stroke-width="0.6"></polyline><polyline points="69.20731707317073,66.66666666666667 69.35975609756098,66.51422764227642 69.51219512195122,66.36178861788618 69.66463414634146,66.26016260162602 69.76626016260163,66.10772357723577 69.91869918699187,66.0060975609756 70.0711382113821,65.90447154471545 70.17276422764228,65.80284552845528 70.32520325203252,65.70121951219512 70.42682926829268,65.59959349593495 70.47764227642276,65.54878048780488 70.57926829268293,65.4979674796748 70.68089430894308,65.39634146341463 70.83333333333333,65.2439024390244 70.9349593495935,65.14227642276423 70.98577235772358,65.09146341463415 71.1890243902439,64.88821138211382 71.29065040650406,64.73577235772358 71.4430894308943,64.6341463414634 71.54471544715447,64.48170731707317 71.64634146341463,64.380081300813 71.7479674796748,64.27845528455285 71.90040650406505,64.1260162601626 72.0020325203252,64.02439024390243 72.10365853658537,63.922764227642276 72.20528455284553,63.82113821138211 72.3069105691057,63.668699186991866 72.40853658536585,63.516260162601625 72.51016260162602,63.36382113821138 72.61178861788618,63.16056910569105 72.76422764227642,62.95731707317073 72.86585365853658,62.7540650406504 72.96747967479675,62.5 73.0691056910569,62.296747967479675 73.17073170731707,62.09349593495935 73.27235772357723,61.9410569105691 73.3739837398374,61.73780487804878 73.47560975609755,61.58536585365854 73.57723577235772,61.38211382113821 73.6280487804878,61.1280487804878 73.72967479674797,60.92479674796748 73.83130081300813,60.670731707317074 73.8821138211382,60.36585365853659 73.98373983739837,60.11178861788618 74.03455284552845,59.857723577235774 74.08536585365853,59.65447154471545 74.1869918699187,59.451219512195124 74.23780487804878,59.298780487804876 74.28861788617886,59.146341463414636 74.39024390243902,58.99390243902439 74.4410569105691,58.84146341463415" fill="none" stroke="black" stroke-width="0.6"></polyline><polyline points="74.4410569105691,58.84146341463415 74.49186991869918,58.6890243902439 74.54268292682927,58.536585365853654 74.59349593495935,58.38414634146341 74.6951219512195,58.231707317073166 74.7459349593496,58.079268292682926 74.79674796747967,57.92682926829268 74.89837398373983,57.72357723577235 74.94918699186992,57.57113821138211 75,57.418699186991866 75.10162601626016,57.266260162601625 75.15243902439025,57.16463414634146 75.20325203252033,57.012195121951216 75.2540650406504,56.859756097560975 75.30487804878048,56.75813008130081 75.35569105691057,56.605691056910565 75.40650406504065,56.453252032520325 75.40650406504065,56.35162601626016 75.45731707317073,56.14837398373984 75.5081300813008,55.99593495934959 75.5589430894309,55.792682926829265 75.60975609756098,55.640243902439025 75.66056910569105,55.4369918699187 75.76219512195122,55.28455284552845 75.8130081300813,55.13211382113821 75.86382113821138,54.979674796747965 75.91463414634146,54.827235772357724 75.96544715447155,54.67479674796748 76.01626016260163,54.52235772357724 76.0670731707317,54.36991869918699 76.0670731707317,54.21747967479675 76.11788617886178,54.0650406504065 76.16869918699187,53.86178861788618 76.16869918699187,53.709349593495936 76.21951219512195,53.45528455284553 76.27032520325203,53.201219512195124 76.3211382113821,52.947154471544714 76.42276422764228,52.69308943089431 76.47357723577235,52.489837398373986 76.52439024390243,52.235772357723576 76.6260162601626,52.03252032520325 76.67682926829268,51.880081300813 76.72764227642276,51.67682926829268 76.77845528455285,51.52439024390244 76.82926829268293,51.37195121951219 76.880081300813,51.21951219512195 76.93089430894308,51.11788617886179 76.93089430894308,50.96544715447154 76.98170731707317,50.86382113821138 77.03252032520325,50.762195121951216 77.03252032520325,50.66056910569105" fill="none" stroke="black" stroke-width="0.6"></polyline><polyline points="77.03252032520325,50.66056910569105 77.08333333333333,50.55894308943089 77.08333333333333,50.50813008130081 77.08333333333333,50.45731707317073 77.08333333333333,50.45731707317073 77.08333333333333,50.45731707317073 77.08333333333333,50.45731707317073 77.08333333333333,50.45731707317073 77.08333333333333,50.45731707317073 77.08333333333333,50.50813008130081" fill="none" stroke="black" stroke-width="0.6"></polyline></svg>