<svg height="100" width="100" preserveAspectRatio="xMidYMid meet"><polyline points="15.497967479674797,7.571138211382114 15.447154471544716,7.571138211382114 15.447154471544716,7.571138211382114 15.294715447154472,7.571138211382114 15.294715447154472,7.571138211382114 15.294715447154472,7.571138211382114 15.24390243902439,7.571138211382114 15.24390243902439,7.571138211382114 15.24390243902439,7.571138211382114 15.24390243902439,7.571138211382114 15.294715447154472,7.571138211382114 15.447154471544716,7.571138211382114 15.752032520325203,7.571138211382114 16.10772357723577,7.571138211382114 16.615853658536587,7.571138211382114 17.17479674796748,7.571138211382114 17.784552845528456,7.520325203252033 18.495934959349594,7.41869918699187 19.10569105691057,7.367886178861789 19.51219512195122,7.317073170731707 19.766260162601625,7.317073170731707 19.867886178861788,7.317073170731707 19.867886178861788,7.317073170731707 19.867886178861788,7.317073170731707 19.817073170731707,7.367886178861789 19.664634146341463,7.520325203252033 19.461382113821138,7.82520325203252 19.10569105691057,8.231707317073171 18.597560975609756,8.790650406504065 18.038617886178862,9.40040650406504 17.378048780487806,10.111788617886178 16.615853658536587,10.924796747967479 15.853658536585366,11.6869918699187 15.294715447154472,12.296747967479675 14.888211382113822,12.652439024390244 14.583333333333332,12.957317073170731 14.329268292682926,13.211382113821138 14.1260162601626,13.414634146341463 14.024390243902438,13.567073170731707 13.973577235772357,13.617886178861788 13.973577235772357,13.66869918699187 14.024390243902438,13.71951219512195 14.227642276422763,13.821138211382113 14.53252032520325,13.871951219512194 14.888211382113822,13.871951219512194 15.345528455284553,13.871951219512194 15.802845528455284,13.821138211382113 16.260162601626014,13.770325203252032 16.565040650406505,13.71951219512195 16.81910569105691,13.617886178861788 17.378048780487806,13.516260162601625" fill="none" stroke="black" stroke-width="0.6"></polyline><polyline points="17.378048780487806,13.516260162601625 17.9369918699187,13.414634146341463 18.495934959349594,13.3130081300813 19.004065040650406,13.211382113821138 19.410569105691057,13.160569105691057 19.61382113821138,13.160569105691057 19.766260162601625,13.160569105691057 19.867886178861788,13.160569105691057 19.96951219512195,13.160569105691057 20.121951219512194,13.211382113821138 20.274390243902438,13.262195121951219 20.3760162601626,13.363821138211382 20.528455284552845,13.516260162601625 20.579268292682926,13.567073170731707" fill="none" stroke="black" stroke-width="0.6"></polyline><polyline points="32.418699186991866,7.41869918699187 32.418699186991866,7.41869918699187 32.418699186991866,7.41869918699187 32.418699186991866,7.41869918699187 32.36788617886179,7.41869918699187 32.36788617886179,7.41869918699187 32.3170731707317,7.469512195121951 32.3170731707317,7.571138211382114 32.266260162601625,7.6727642276422765 32.266260162601625,7.876016260162602 32.21544715447154,8.333333333333334 32.21544715447154,8.94308943089431 32.21544715447154,9.451219512195122 32.3170731707317,9.857723577235772 32.46951219512195,10.16260162601626 32.672764227642276,10.416666666666666 32.8760162601626,10.619918699186991 33.13008130081301,10.823170731707316 33.333333333333336,10.97560975609756 33.485772357723576,11.077235772357723 33.58739837398374,11.128048780487804" fill="none" stroke="black" stroke-width="0.6"></polyline><polyline points="35.8739837398374,6.961382113821138 35.823170731707314,6.961382113821138 35.72154471544715,6.9105691056910565 35.61991869918699,6.859756097560975 35.56910569105691,6.808943089430894 35.51829268292683,6.808943089430894 35.416666666666664,6.859756097560975 35.264227642276424,7.113821138211382 35.11178861788618,7.41869918699187 34.65447154471545,8.333333333333334 34.09552845528455,9.705284552845528 33.790650406504064,10.467479674796747 33.4349593495935,11.331300813008129 33.18089430894309,11.991869918699187 32.57113821138211,13.363821138211382 32.3170731707317,14.024390243902438 32.012195121951216,14.634146341463413 31.504065040650406,15.802845528455284 31.25,16.260162601626014 31.097560975609756,16.615853658536587 30.945121951219512,16.920731707317074 30.84349593495935,17.225609756097562 30.741869918699187,17.58130081300813 30.691056910569106,17.682926829268293 30.691056910569106,17.784552845528456 30.691056910569106,17.835365853658537 30.79268292682927,17.88617886178862 30.84349593495935,17.88617886178862 31.097560975609756,17.682926829268293 31.25,17.479674796747968" fill="none" stroke="black" stroke-width="0.6"></polyline><polyline points="47.5609756097561,7.469512195121951 47.459349593495936,7.41869918699187 47.357723577235774,7.266260162601625 47.30691056910569,7.215447154471544 47.20528455284553,7.164634146341463 47.20528455284553,7.164634146341463 47.20528455284553,7.164634146341463 47.20528455284553,7.164634146341463 47.25609756097561,7.317073170731707 47.40853658536585,7.621951219512195 47.61178861788618,8.130081300813007 47.86585365853659,8.739837398373984 48.27235772357724,9.552845528455284 48.83130081300813,10.467479674796747 49.4410569105691,11.331300813008129 50,12.042682926829269 50.30487804878049,12.296747967479675 50.55894308943089,12.601626016260163 50.762195121951216,12.804878048780488 51.168699186991866,13.211382113821138 51.37195121951219,13.363821138211382 51.67682926829268,13.617886178861788 51.880081300813,13.71951219512195 51.981707317073166,13.821138211382113 52.03252032520325,13.821138211382113 52.03252032520325,13.871951219512194 52.03252032520325,13.871951219512194 52.03252032520325,13.871951219512194 52.03252032520325,13.821138211382113 52.083333333333336,13.617886178861788 52.13414634146341,13.363821138211382" fill="none" stroke="black" stroke-width="0.6"></polyline><polyline points="52.84552845528455,6.3516260162601625 52.74390243902439,6.300813008130081 52.642276422764226,6.25 52.540650406504064,6.25 52.4390243902439,6.25 52.13414634146341,6.3516260162601625 51.981707317073166,6.504065040650406 51.422764227642276,7.012195121951219 50.66056910569105,7.977642276422764 49.69512195121951,9.247967479674797 49.136178861788615,9.959349593495935 48.729674796747965,10.56910569105691 47.916666666666664,11.737804878048781 47.15447154471545,12.703252032520325 46.44308943089431,13.66869918699187 45.9349593495935,14.329268292682926 45.579268292682926,14.786585365853659 45.47764227642276,15.040650406504065 45.52845528455285,15.142276422764228 45.73170731707317,15.19308943089431 45.88414634146341,15.19308943089431" fill="none" stroke="black" stroke-width="0.6"></polyline><polyline points="64.02439024390243,7.469512195121951 64.02439024390243,7.469512195121951 63.97357723577235,7.41869918699187 63.922764227642276,7.41869918699187 63.922764227642276,7.41869918699187 63.87195121951219,7.367886178861789 63.82113821138211,7.367886178861789 63.82113821138211,7.367886178861789 63.82113821138211,7.317073170731707 63.77032520325203,7.317073170731707 63.77032520325203,7.317073170731707 63.77032520325203,7.317073170731707 63.77032520325203,7.317073170731707 63.71951219512195,7.469512195121951 63.5670731707317,7.876016260162602 63.36382113821138,8.689024390243903 63.05894308943089,9.908536585365853 62.80487804878049,11.331300813008129 62.703252032520325,12.449186991869919 62.65243902439024,13.160569105691057 62.703252032520325,13.617886178861788 62.80487804878049,14.024390243902438 62.90650406504065,14.380081300813007 63.00813008130081,14.786585365853659 63.16056910569105,15.091463414634147 63.262195121951216,15.345528455284553 63.41463414634146,15.447154471544716 63.61788617886179,15.497967479674797 63.82113821138211,15.497967479674797 64.1260162601626,15.294715447154472 64.43089430894308,15.040650406504065 64.6849593495935,14.684959349593496 64.9390243902439,14.278455284552845 65.1930894308943,13.871951219512194 65.39634146341463,13.414634146341463 65.59959349593495,12.855691056910569 65.85365853658537,12.195121951219512 66.0060975609756,11.534552845528456 66.20934959349593,10.823170731707316 66.36178861788618,10.264227642276422 66.41260162601625,9.705284552845528 66.46341463414635,9.247967479674797 66.46341463414635,8.841463414634147 66.46341463414635,8.485772357723578 66.46341463414635,8.18089430894309 66.46341463414635,7.926829268292683 66.41260162601625,7.723577235772358 66.36178861788618,7.6727642276422765 66.36178861788618,7.6727642276422765 66.3109756097561,7.723577235772358 66.3109756097561,7.82520325203252" fill="none" stroke="black" stroke-width="0.6"></polyline><polyline points="66.3109756097561,7.82520325203252 66.20934959349593,8.18089430894309 66.15853658536585,8.485772357723578 66.10772357723577,8.841463414634147 66.0060975609756,9.552845528455284 65.95528455284553,9.959349593495935 65.95528455284553,10.924796747967479 65.95528455284553,11.534552845528456 66.0569105691057,12.144308943089431 66.20934959349593,12.601626016260163 66.41260162601625,12.957317073170731 66.5650406504065,13.262195121951219 66.71747967479675,13.414634146341463 66.8191056910569,13.567073170731707 66.97154471544715,13.71951219512195 67.02235772357723,13.770325203252032 67.07317073170732,13.871951219512194 67.1239837398374,13.922764227642276 67.17479674796748,14.024390243902438 67.22560975609755,14.07520325203252 67.27642276422765,14.1260162601626 67.32723577235772,14.1260162601626 67.32723577235772,14.1260162601626" fill="none" stroke="black" stroke-width="0.6"></polyline><polyline points="78.76016260162602,7.82520325203252 78.70934959349593,7.774390243902439 78.65853658536585,7.621951219512195 78.60772357723577,7.571138211382114 78.60772357723577,7.571138211382114 78.60772357723577,7.571138211382114 78.60772357723577,7.621951219512195 78.60772357723577,7.774390243902439 78.65853658536585,7.977642276422764 78.70934959349593,8.282520325203253 78.8109756097561,8.58739837398374 78.86178861788618,9.044715447154472 78.86178861788618,9.654471544715447 78.86178861788618,10.670731707317072 78.76016260162602,12.09349593495935 78.70934959349593,13.363821138211382 78.76016260162602,14.278455284552845 78.91260162601625,14.888211382113822 79.11585365853658,15.19308943089431 79.3191056910569,15.396341463414634 79.52235772357723,15.548780487804878 79.57317073170732,15.59959349593496 79.6239837398374,15.59959349593496 79.67479674796748,15.548780487804878 79.72560975609755,15.447154471544716 79.82723577235772,15.19308943089431 79.97967479674797,14.735772357723578 80.1829268292683,14.1260162601626 80.38617886178862,13.414634146341463 80.6910569105691,12.5 80.9959349593496,11.483739837398375 81.14837398373983,10.873983739837398 81.35162601626016,10.264227642276422 81.7581300813008,9.044715447154472 82.0630081300813,8.231707317073171 82.26626016260163,7.82520325203252 82.3170731707317,7.774390243902439 82.3170731707317,7.82520325203252 82.3170731707317,7.876016260162602 82.26626016260163,7.876016260162602 82.26626016260163,7.926829268292683 82.26626016260163,7.926829268292683 82.26626016260163,7.926829268292683 82.26626016260163,7.926829268292683 82.26626016260163,7.926829268292683 82.26626016260163,7.926829268292683 82.26626016260163,7.926829268292683 82.26626016260163,7.926829268292683 82.26626016260163,7.926829268292683 82.21544715447155,7.977642276422764 82.16463414634146,8.079268292682926" fill="none" stroke="black" stroke-width="0.6"></polyline><polyline points="82.16463414634146,8.079268292682926 82.11382113821138,8.130081300813007" fill="none" stroke="black" stroke-width="0.6"></polyline><polyline points="15.497967479674797,24.23780487804878 15.497967479674797,24.288617886178862 15.447154471544716,24.390243902439025 15.396341463414634,24.695121951219512 15.294715447154472,25.76219512195122 15.294715447154472,26.371951219512194 15.24390243902439,27.642276422764226 15.24390243902439,28.912601626016258 15.24390243902439,29.979674796747968 15.24390243902439,30.79268292682927 15.24390243902439,31.402439024390244 15.294715447154472,31.859756097560975 15.447154471544716,32.012195121951216 15.59959349593496,32.11382113821138 15.65040650406504,32.16463414634146 15.802845528455284,32.16463414634146 16.006097560975608,32.16463414634146 16.209349593495933,32.012195121951216 16.463414634146343,31.65650406504065 16.71747967479675,31.19918699186992 16.869918699186993,30.589430894308943 17.073170731707318,29.827235772357724 17.17479674796748,29.0650406504065 17.276422764227643,28.20121951219512 17.378048780487806,27.184959349593495 17.428861788617887,26.371951219512194 17.479674796747968,25.660569105691057 17.479674796747968,25.35569105691057 17.479674796747968,25.40650406504065 17.479674796747968,25.558943089430894 17.479674796747968,25.76219512195122 17.479674796747968,26.16869918699187 17.53048780487805,26.778455284552845 17.58130081300813,27.489837398373982 17.632113821138212,28.302845528455283 17.682926829268293,28.709349593495933 17.733739837398375,29.115853658536583 17.835365853658537,29.878048780487806 17.98780487804878,30.48780487804878 18.191056910569106,30.995934959349594 18.39430894308943,31.30081300813008 18.648373983739837,31.402439024390244 18.902439024390244,31.402439024390244 19.054878048780488,31.402439024390244 19.20731707317073,31.351626016260163 19.410569105691057,31.25 19.61382113821138,31.046747967479675 19.766260162601625,30.741869918699187 19.91869918699187,30.284552845528456 20.071138211382113,29.725609756097562 20.172764227642276,29.01422764227642" fill="none" stroke="black" stroke-width="0.6"></polyline><polyline points="20.172764227642276,29.01422764227642 20.274390243902438,28.099593495934958 20.274390243902438,27.03252032520325 20.274390243902438,25.8130081300813 20.274390243902438,24.745934959349594 20.274390243902438,24.288617886178862 20.223577235772357,23.932926829268293 20.121951219512194,23.577235772357724 20.071138211382113,23.577235772357724 20.020325203252032,23.628048780487806 20.020325203252032,23.678861788617887 20.020325203252032,23.729674796747968 20.020325203252032,23.78048780487805 20.020325203252032,24.034552845528456 20.020325203252032,24.339430894308943" fill="none" stroke="black" stroke-width="0.6"></polyline><polyline points="33.4349593495935,20.3760162601626 33.4349593495935,20.3760162601626 33.4349593495935,20.32520325203252 33.4349593495935,20.32520325203252 33.4349593495935,20.32520325203252 33.4349593495935,20.32520325203252 33.4349593495935,20.32520325203252 33.4349593495935,20.3760162601626 33.38414634146341,20.579268292682926 33.23170731707317,21.443089430894307 33.079268292682926,22.205284552845526 32.97764227642276,23.06910569105691 32.72357723577236,25.05081300813008 32.57113821138211,26.57520325203252 32.52032520325203,27.184959349593495 32.52032520325203,27.591463414634145 32.46951219512195,28.353658536585364 32.418699186991866,29.01422764227642 32.36788617886179,29.522357723577237 32.36788617886179,29.878048780487806 32.36788617886179,30.08130081300813 32.36788617886179,30.182926829268293 32.36788617886179,30.233739837398375 32.418699186991866,30.284552845528456 32.418699186991866,30.284552845528456 32.46951219512195,30.233739837398375 32.52032520325203,30.08130081300813 32.52032520325203,29.878048780487806" fill="none" stroke="black" stroke-width="0.6"></polyline><polyline points="30.89430894308943,25.914634146341463 30.79268292682927,25.914634146341463 30.741869918699187,25.965447154471544 30.640243902439025,25.965447154471544 30.589430894308943,26.016260162601625 30.589430894308943,26.016260162601625 30.640243902439025,26.067073170731707 30.79268292682927,26.117886178861788 31.148373983739837,26.16869918699187 31.554878048780488,26.16869918699187 32.11382113821138,26.16869918699187 32.82520325203252,26.016260162601625 33.53658536585366,25.86382113821138 34.298780487804876,25.660569105691057 35.0609756097561,25.508130081300813 35.72154471544715,25.40650406504065 36.38211382113821,25.304878048780488" fill="none" stroke="black" stroke-width="0.6"></polyline><polyline points="49.89837398373984,25.304878048780488 49.949186991869915,25.203252032520325 50,25.101626016260163 50.10162601626016,25 50.10162601626016,24.847560975609756 50.15243902439024,24.695121951219512 50.15243902439024,24.54268292682927 50.10162601626016,24.339430894308943 50,24.288617886178862 49.949186991869915,24.1869918699187 49.69512195121951,23.983739837398375 49.390243902439025,23.83130081300813 49.1869918699187,23.78048780487805 48.93292682926829,23.78048780487805 48.3739837398374,23.78048780487805 47.8150406504065,23.882113821138212 47.30691056910569,24.085365853658537 46.7479674796748,24.390243902439025 46.44308943089431,24.64430894308943 46.290650406504064,24.847560975609756 46.290650406504064,25 46.392276422764226,25.152439024390244 46.646341463414636,25.40650406504065 47.0020325203252,25.76219512195122 47.459349593495936,26.21951219512195 47.96747967479675,26.727642276422763 48.577235772357724,27.286585365853657 49.136178861788615,27.896341463414632 49.4410569105691,28.2520325203252 49.69512195121951,28.60772357723577 50.203252032520325,29.420731707317074 50.50813008130081,30.08130081300813 50.609756097560975,30.38617886178862 50.66056910569105,30.589430894308943 50.71138211382114,30.945121951219512 50.66056910569105,31.046747967479675 50.55894308943089,31.148373983739837 50.30487804878049,31.402439024390244 49.949186991869915,31.60569105691057 49.49186991869919,31.758130081300813 48.983739837398375,31.859756097560975 48.42479674796748,31.859756097560975 47.916666666666664,31.758130081300813 47.30691056910569,31.453252032520325 46.646341463414636,30.945121951219512 46.13821138211382,30.38617886178862 45.68089430894309,29.979674796747968 45.47764227642276,29.827235772357724 45.3760162601626,29.776422764227643 45.325203252032516,29.725609756097562 45.325203252032516,29.725609756097562" fill="none" stroke="black" stroke-width="0.6"></polyline><polyline points="45.325203252032516,29.725609756097562 45.325203252032516,29.725609756097562 45.42682926829268,29.878048780487806 45.68089430894309,30.182926829268293" fill="none" stroke="black" stroke-width="0.6"></polyline><polyline points="62.24593495934959,25.965447154471544 62.19512195121951,25.965447154471544 62.09349593495935,26.067073170731707 62.09349593495935,26.117886178861788 62.042682926829265,26.21951219512195 62.042682926829265,26.321138211382113 62.042682926829265,26.524390243902438 62.09349593495935,27.184959349593495 62.14430894308943,27.74390243902439 62.24593495934959,28.404471544715445 62.39837398373984,29.6239837398374 62.5,30.284552845528456 62.55081300813008,30.84349593495935 62.65243902439024,31.30081300813008 62.703252032520325,31.65650406504065 62.80487804878049,31.961382113821138 62.80487804878049,32.0630081300813 62.855691056910565,32.16463414634146 62.855691056910565,32.266260162601625 62.855691056910565,32.266260162601625 62.855691056910565,32.266260162601625 62.855691056910565,32.266260162601625 62.855691056910565,32.21544715447154 62.855691056910565,32.16463414634146 62.855691056910565,32.0630081300813 62.855691056910565,31.910569105691057 62.80487804878049,31.504065040650406 62.7540650406504,30.89430894308943 62.703252032520325,30.182926829268293 62.60162601626016,29.369918699186993 62.60162601626016,28.55691056910569 62.60162601626016,27.693089430894307 62.65243902439024,27.235772357723576 62.7540650406504,26.727642276422763 63.00813008130081,26.016260162601625 63.16056910569105,25.711382113821138 63.3130081300813,25.40650406504065 63.668699186991866,25.05081300813008 64.07520325203252,24.847560975609756 64.58333333333333,24.695121951219512 65.2439024390244,24.491869918699187 65.85365853658537,24.339430894308943 66.46341463414635,24.1869918699187 66.71747967479675,24.13617886178862 66.92073170731707,24.13617886178862 67.17479674796748,24.13617886178862 67.32723577235772,24.1869918699187 67.42886178861788,24.23780487804878 67.47967479674797,24.288617886178862 67.47967479674797,24.339430894308943 67.47967479674797,24.339430894308943" fill="none" stroke="black" stroke-width="0.6"></polyline><polyline points="67.47967479674797,24.339430894308943 67.47967479674797,24.390243902439025 67.47967479674797,24.390243902439025 67.47967479674797,24.390243902439025 67.47967479674797,24.441056910569106 67.47967479674797,24.441056910569106 67.47967479674797,24.441056910569106 67.47967479674797,24.491869918699187 67.42886178861788,24.64430894308943 67.42886178861788,24.695121951219512" fill="none" stroke="black" stroke-width="0.6"></polyline><polyline points="83.63821138211382,27.235772357723576 83.63821138211382,27.235772357723576 83.63821138211382,27.184959349593495 83.63821138211382,27.134146341463413 83.63821138211382,27.083333333333332 83.63821138211382,26.93089430894309 83.63821138211382,26.727642276422763 83.58739837398373,26.422764227642276 83.4349593495935,26.067073170731707 83.33333333333333,25.8130081300813 83.23170731707317,25.558943089430894 82.97764227642276,25.152439024390244 82.72357723577235,24.745934959349594 82.41869918699187,24.390243902439025 82.21544715447155,24.1869918699187 81.96138211382113,24.085365853658537 81.70731707317073,24.085365853658537 81.40243902439025,24.288617886178862 81.04674796747967,24.695121951219512 80.58943089430895,25.304878048780488 80.1829268292683,25.965447154471544 79.8780487804878,26.676829268292682 79.57317073170732,27.33739837398374 79.52235772357723,27.74390243902439 79.52235772357723,28.15040650406504 79.57317073170732,28.55691056910569 79.72560975609755,28.912601626016258 79.92886178861788,29.268292682926827 80.08130081300813,29.369918699186993 80.1829268292683,29.471544715447155 80.4369918699187,29.6239837398374 80.58943089430895,29.6239837398374 80.74186991869918,29.6239837398374 80.9959349593496,29.6239837398374 81.25,29.522357723577237 81.5040650406504,29.31910569105691 81.70731707317073,29.115853658536583 81.91056910569105,28.810975609756095 82.0630081300813,28.55691056910569 82.16463414634146,28.302845528455283 82.21544715447155,28.048780487804876 82.26626016260163,27.84552845528455 82.3170731707317,27.642276422764226 82.3170731707317,27.489837398373982 82.3170731707317,27.38821138211382 82.26626016260163,27.286585365853657 82.26626016260163,27.286585365853657 82.21544715447155,27.286585365853657 82.21544715447155,27.286585365853657 82.16463414634146,27.38821138211382 82.16463414634146,27.591463414634145" fill="none" stroke="black" stroke-width="0.6"></polyline><polyline points="82.16463414634146,27.591463414634145 82.0630081300813,27.997967479674795 81.96138211382113,28.709349593495933 81.85975609756098,29.725609756097562 81.7581300813008,31.097560975609756 81.60569105691057,32.52032520325203 81.40243902439025,33.892276422764226 81.19918699186992,35.010162601626014 80.9959349593496,35.670731707317074 80.89430894308943,36.077235772357724 80.79268292682927,36.33130081300813 80.6910569105691,36.53455284552845 80.64024390243902,36.636178861788615 80.64024390243902,36.6869918699187 80.64024390243902,36.6869918699187 80.64024390243902,36.6869918699187 80.64024390243902,36.6869918699187 80.64024390243902,36.6869918699187 80.64024390243902,36.6869918699187 80.64024390243902,36.636178861788615 80.64024390243902,36.53455284552845 80.74186991869918,36.33130081300813 80.79268292682927,36.229674796747965 80.84349593495935,36.077235772357724 80.9451219512195,35.92479674796748 81.09756097560975,35.72154471544715 81.35162601626016,35.416666666666664 81.65650406504065,35.0609756097561 81.96138211382113,34.70528455284553 82.26626016260163,34.40040650406504 82.5711382113821,34.197154471544714 82.8760162601626,34.04471544715447 83.07926829268293,33.94308943089431 83.28252032520325,33.892276422764226 83.4349593495935,33.790650406504064 83.53658536585365,33.790650406504064 83.58739837398373,33.739837398373986 83.6890243902439,33.6890243902439 83.73983739837398,33.63821138211382 83.73983739837398,33.58739837398374 83.73983739837398,33.58739837398374 83.73983739837398,33.58739837398374 83.73983739837398,33.53658536585366" fill="none" stroke="black" stroke-width="0.6"></polyline><polyline points="17.225609756097562,45.27439024390244 17.17479674796748,45.47764227642276 17.073170731707318,45.73170731707317 17.073170731707318,46.1890243902439 17.073170731707318,47.103658536585364 17.073170731707318,48.577235772357724 17.1239837398374,50.2540650406504 17.225609756097562,51.880081300813 17.276422764227643,53.09959349593496 17.276422764227643,54.0650406504065 17.225609756097562,54.827235772357724 17.1239837398374,55.233739837398375 17.073170731707318,55.640243902439025 17.022357723577237,55.94512195121951 17.022357723577237,55.99593495934959 17.022357723577237,55.94512195121951 17.022357723577237,55.74186991869919 16.971544715447155,55.386178861788615 16.869918699186993,54.77642276422764 16.71747967479675,54.014227642276424 16.615853658536587,53.201219512195124 16.463414634146343,52.1849593495935 16.260162601626014,50.91463414634146 16.10772357723577,49.64430894308943 15.955284552845528,48.27235772357724 15.955284552845528,46.90040650406504 15.955284552845528,46.03658536585366 16.15853658536585,45.3760162601626 16.41260162601626,44.8170731707317 16.76829268292683,44.41056910569105 17.17479674796748,44.05487804878049 17.632113821138212,43.699186991869915 18.140243902439025,43.49593495934959 18.597560975609756,43.49593495934959 19.054878048780488,43.64837398373984 19.410569105691057,44.0040650406504 19.766260162601625,44.46138211382114 20.071138211382113,45.02032520325203 20.274390243902438,45.63008130081301 20.426829268292682,46.290650406504064 20.426829268292682,46.90040650406504 20.426829268292682,47.459349593495936 20.274390243902438,47.916666666666664 20.020325203252032,48.323170731707314 19.766260162601625,48.52642276422764 19.61382113821138,48.6280487804878 19.51219512195122,48.67886178861789 19.15650406504065,48.78048780487805 18.80081300813008,48.83130081300813 18.445121951219512,48.83130081300813 18.038617886178862,48.83130081300813" fill="none" stroke="black" stroke-width="0.6"></polyline><polyline points="18.038617886178862,48.83130081300813 17.632113821138212,48.78048780487805 17.327235772357724,48.729674796747965 17.17479674796748,48.729674796747965 17.17479674796748,48.729674796747965 17.276422764227643,48.729674796747965 17.632113821138212,48.67886178861789" fill="none" stroke="black" stroke-width="0.6"></polyline><polyline points="33.99390243902439,41.209349593495936 33.99390243902439,41.15853658536585 33.94308943089431,41.107723577235774 33.892276422764226,41.05691056910569 33.6890243902439,40.853658536585364 33.63821138211382,40.802845528455286 33.53658536585366,40.7520325203252 33.333333333333336,40.65040650406504 33.079268292682926,40.59959349593496 32.72357723577236,40.59959349593496 32.3170731707317,40.65040650406504 31.859756097560975,41.00609756097561 31.351626016260163,41.61585365853659 31.148373983739837,42.02235772357724 30.945121951219512,42.53048780487805 30.589430894308943,43.699186991869915 30.538617886178862,45.02032520325203 30.640243902439025,46.239837398373986 31.046747967479675,47.103658536585364 31.554878048780488,47.61178861788618 32.16463414634146,47.916666666666664 32.926829268292686,48.11991869918699 33.790650406504064,48.170731707317074 34.5020325203252,47.96747967479675 35.11178861788618,47.61178861788618 35.61991869918699,47.052845528455286 36.02642276422764,46.54471544715447 36.43292682926829,45.9349593495935 36.78861788617886,45.27439024390244 37.042682926829265,44.66463414634146 37.19512195121951,44.0040650406504 37.19512195121951,43.39430894308943 37.042682926829265,42.63211382113821 36.73780487804878,41.86991869918699 36.28048780487805,41.260162601626014 35.77235772357724,40.7520325203252 35.11178861788618,40.34552845528455 34.857723577235774,40.29471544715447 34.552845528455286,40.24390243902439 34.298780487804876,40.19308943089431 33.790650406504064,40.24390243902439 33.485772357723576,40.34552845528455 33.28252032520325,40.396341463414636 33.079268292682926,40.4979674796748 32.77439024390244,40.701219512195124 32.57113821138211,40.90447154471545 32.46951219512195,41.00609756097561 32.46951219512195,41.05691056910569 32.46951219512195,41.05691056910569 32.6219512195122,41.107723577235774 32.926829268292686,41.107723577235774" fill="none" stroke="black" stroke-width="0.6"></polyline><polyline points="32.926829268292686,41.107723577235774 33.38414634146341,41.15853658536585" fill="none" stroke="black" stroke-width="0.6"></polyline><polyline points="46.84959349593496,42.733739837398375 46.84959349593496,42.733739837398375 46.84959349593496,42.68292682926829 46.798780487804876,42.63211382113821 46.7479674796748,42.63211382113821 46.7479674796748,42.63211382113821 46.7479674796748,42.63211382113821 46.7479674796748,42.63211382113821 46.7479674796748,42.886178861788615 46.7479674796748,43.08943089430894 46.7479674796748,43.39430894308943 46.7479674796748,44.30894308943089 46.7479674796748,45.42682926829268 46.7479674796748,46.54471544715447 46.59552845528455,47.40853658536585 46.49390243902439,47.916666666666664 46.34146341463415,48.27235772357724 46.239837398373986,48.47560975609756 46.239837398373986,48.47560975609756 46.239837398373986,48.42479674796748 46.34146341463415,48.22154471544715 46.49390243902439,47.8150406504065 46.697154471544714,47.15447154471545 46.90040650406504,46.44308943089431 47.103658536585364,45.73170731707317 47.25609756097561,45.02032520325203 47.40853658536585,44.20731707317073 47.510162601626014,43.85162601626016 47.61178861788618,43.44512195121951 47.96747967479675,42.63211382113821 48.3739837398374,41.97154471544715 48.78048780487805,41.666666666666664 49.23780487804878,41.5650406504065 49.59349593495935,41.5650406504065 50,41.71747967479675 50.355691056910565,42.073170731707314 50.71138211382114,42.53048780487805 50.96544715447154,43.08943089430894 51.168699186991866,43.75 51.21951219512195,44.46138211382114 51.21951219512195,45.07113821138211 51.168699186991866,45.63008130081301 51.0670731707317,46.1890243902439 50.96544715447154,46.646341463414636 50.91463414634146,47.0020325203252 50.86382113821138,47.25609756097561 50.86382113821138,47.40853658536585 50.91463414634146,47.510162601626014 51.0670731707317,47.61178861788618 51.27032520325203,47.66260162601626" fill="none" stroke="black" stroke-width="0.6"></polyline><polyline points="62.449186991869915,43.75 62.39837398373984,43.699186991869915 62.34756097560975,43.59756097560975 62.296747967479675,43.49593495934959 62.296747967479675,43.44512195121951 62.296747967479675,43.44512195121951 62.296747967479675,43.44512195121951 62.296747967479675,43.59756097560975 62.296747967479675,44.0040650406504 62.34756097560975,44.766260162601625 62.34756097560975,45.68089430894309 62.39837398373984,46.239837398373986 62.39837398373984,46.7479674796748 62.39837398373984,47.71341463414634 62.34756097560975,48.42479674796748 62.24593495934959,48.83130081300813 62.19512195121951,48.983739837398375 62.19512195121951,48.983739837398375 62.14430894308943,48.983739837398375 62.14430894308943,48.88211382113821 62.19512195121951,48.6280487804878 62.296747967479675,48.22154471544715 62.449186991869915,47.66260162601626 62.65243902439024,46.951219512195124 62.80487804878049,46.239837398373986 63.05894308943089,45.42682926829268 63.3130081300813,44.512195121951216 63.61788617886179,43.64837398373984 64.02439024390243,42.886178861788615 64.48170731707317,42.42886178861789 64.88821138211382,42.3780487804878 65.29471544715447,42.58130081300813 65.59959349593495,43.08943089430894 65.90447154471545,43.75 66.15853658536585,44.5630081300813 66.26016260162602,44.918699186991866 66.36178861788618,45.27439024390244 66.41260162601625,45.985772357723576 66.36178861788618,46.59552845528455 66.15853658536585,47.0020325203252 65.90447154471545,47.30691056910569 65.70121951219512,47.5609756097561 65.65040650406505,47.5609756097561 65.65040650406505,47.510162601626014 65.70121951219512,47.25609756097561 65.85365853658537,46.84959349593496 66.10772357723577,46.290650406504064 66.41260162601625,45.579268292682926 66.71747967479675,44.8170731707317 67.1239837398374,43.953252032520325 67.6321138211382,42.886178861788615" fill="none" stroke="black" stroke-width="0.6"></polyline><polyline points="67.6321138211382,42.886178861788615 68.14024390243902,42.1239837398374 68.69918699186992,41.71747967479675 69.15650406504065,41.5650406504065 69.3089430894309,41.5650406504065 69.66463414634146,41.920731707317074 69.91869918699187,42.42886178861789 70.02032520325203,43.03861788617886 70.1219512195122,43.90243902439024 70.1219512195122,44.918699186991866 70.0711382113821,45.833333333333336 69.91869918699187,46.7479674796748 69.76626016260163,47.510162601626014 69.61382113821138,48.01829268292683 69.5630081300813,48.3739837398374 69.5630081300813,48.6280487804878 69.5630081300813,48.67886178861789 69.71544715447155,48.729674796747965 69.86788617886178,48.729674796747965 70.02032520325203,48.67886178861789" fill="none" stroke="black" stroke-width="0.6"></polyline><polyline points="82.72357723577235,36.077235772357724 82.67276422764228,36.17886178861789 82.5711382113821,36.33130081300813 82.52032520325203,36.43292682926829 82.46951219512195,36.73780487804878 82.36788617886178,37.449186991869915 82.26626016260163,38.82113821138211 82.16463414634146,40.701219512195124 82.0630081300813,42.733739837398375 81.96138211382113,44.61382113821138 81.85975609756098,46.03658536585366 81.7581300813008,47.103658536585364 81.70731707317073,47.916666666666664 81.65650406504065,48.52642276422764 81.65650406504065,49.03455284552845 81.65650406504065,49.390243902439025 81.65650406504065,49.49186991869919 81.65650406504065,49.59349593495935 81.70731707317073,49.69512195121951 81.7581300813008,49.74593495934959 81.8089430894309,49.796747967479675 81.85975609756098,49.796747967479675 81.85975609756098,49.796747967479675 81.85975609756098,49.796747967479675 81.91056910569105,49.69512195121951 81.96138211382113,49.49186991869919 81.96138211382113,49.136178861788615" fill="none" stroke="black" stroke-width="0.6"></polyline><polyline points="17.1239837398374,55.48780487804878 17.022357723577237,55.84349593495935 16.76829268292683,56.605691056910565 16.666666666666668,57.16463414634146 16.463414634146343,58.33333333333333 16.260162601626014,59.70528455284553 16.05691056910569,61.1280487804878 15.853658536585366,62.39837398373984 15.802845528455284,62.95731707317073 15.701219512195122,64.1260162601626 15.59959349593496,65.2439024390244 15.59959349593496,66.0569105691057 15.548780487804878,66.46341463414635 15.548780487804878,66.61585365853658 15.59959349593496,66.61585365853658 15.65040650406504,66.61585365853658 15.752032520325203,66.51422764227642 15.853658536585366,66.26016260162602 16.006097560975608,65.80284552845528 16.15853658536585,65.14227642276423" fill="none" stroke="black" stroke-width="0.6"></polyline><polyline points="19.20731707317073,57.672764227642276 19.20731707317073,57.672764227642276 19.20731707317073,57.672764227642276 19.20731707317073,57.672764227642276 19.20731707317073,57.672764227642276 19.15650406504065,57.672764227642276 19.10569105691057,57.672764227642276 18.953252032520325,57.825203252032516 18.69918699186992,58.18089430894309 18.34349593495935,58.790650406504064 17.88617886178862,59.552845528455286 17.479674796747968,60.21341463414634 17.1239837398374,60.670731707317074 16.920731707317074,60.97560975609756 16.71747967479675,61.229674796747965 16.565040650406505,61.53455284552845 16.514227642276424,61.78861788617886 16.514227642276424,62.042682926829265 16.71747967479675,62.296747967479675 17.022357723577237,62.65243902439024 17.479674796747968,63.05894308943089 17.98780487804878,63.41463414634146 18.597560975609756,63.77032520325203 19.258130081300813,64.1260162601626 19.817073170731707,64.43089430894308 20.274390243902438,64.78658536585365 20.68089430894309,65.14227642276423 20.985772357723576,65.39634146341463 21.1890243902439,65.70121951219512 21.341463414634145,65.95528455284553 21.443089430894307,66.15853658536585 21.54471544715447,66.3109756097561 21.697154471544714,66.46341463414635 21.747967479674795,66.51422764227642" fill="none" stroke="black" stroke-width="0.6"></polyline><polyline points="35.010162601626014,61.229674796747965 35.010162601626014,61.229674796747965 35.010162601626014,61.229674796747965 34.959349593495936,61.17886178861789 34.959349593495936,61.1280487804878 34.90853658536585,61.02642276422764 34.90853658536585,60.97560975609756 34.90853658536585,60.8739837398374 34.90853658536585,60.670731707317074 34.90853658536585,60.51829268292683 34.90853658536585,60.36585365853659 34.90853658536585,60.16260162601626 34.90853658536585,59.959349593495936 34.90853658536585,59.5020325203252 34.857723577235774,59.09552845528455 34.75609756097561,58.6890243902439 34.65447154471545,58.536585365853654 34.552845528455286,58.38414634146341 34.2479674796748,58.231707317073166 34.09552845528455,58.231707317073166 33.6890243902439,58.38414634146341 33.18089430894309,58.84146341463415 32.97764227642276,59.09552845528455 32.72357723577236,59.451219512195124 32.57113821138211,59.80691056910569 32.16463414634146,60.56910569105691 32.0630081300813,60.8739837398374 32.012195121951216,61.229674796747965 31.961382113821138,61.78861788617886 31.961382113821138,62.042682926829265 32.0630081300813,62.24593495934959 32.266260162601625,62.39837398373984 32.46951219512195,62.5 32.82520325203252,62.55081300813008 33.18089430894309,62.60162601626016 33.58739837398374,62.55081300813008 33.94308943089431,62.34756097560975 34.298780487804876,62.14430894308943 34.552845528455286,61.83943089430894 34.75609756097561,61.53455284552845 34.857723577235774,61.17886178861789 34.90853658536585,60.92479674796748 34.90853658536585,60.77235772357724 34.90853658536585,60.670731707317074 34.80691056910569,60.670731707317074 34.65447154471545,60.72154471544715 34.5020325203252,60.92479674796748 34.34959349593496,61.28048780487805 34.2479674796748,61.83943089430894 34.2479674796748,62.60162601626016 34.2479674796748,63.61788617886179" fill="none" stroke="black" stroke-width="0.6"></polyline><polyline points="34.2479674796748,63.61788617886179 34.5020325203252,65.04065040650406 34.80691056910569,66.5650406504065 35.0609756097561,68.08943089430895 35.21341463414634,69.46138211382113 35.264227642276424,70.42682926829268 35.11178861788618,71.13821138211382 34.90853658536585,71.79878048780488 34.603658536585364,72.2560975609756 34.2479674796748,72.66260162601625 33.892276422764226,72.91666666666667 33.53658536585366,73.01829268292683 33.13008130081301,73.01829268292683 32.77439024390244,72.96747967479675 32.46951219512195,72.76422764227642 32.11382113821138,72.40853658536585 31.758130081300813,71.90040650406505 31.60569105691057,71.39227642276423 31.504065040650406,70.83333333333333 31.453252032520325,70.32520325203252 31.504065040650406,70.02032520325203 31.60569105691057,69.8170731707317 31.70731707317073,69.66463414634146 31.859756097560975,69.5630081300813 32.012195121951216,69.5630081300813 32.16463414634146,69.51219512195122 32.266260162601625,69.51219512195122" fill="none" stroke="black" stroke-width="0.6"></polyline><polyline points="49.4410569105691,53.50609756097561 49.390243902439025,53.50609756097561 49.33943089430894,53.45528455284553 49.23780487804878,53.45528455284553 49.23780487804878,53.45528455284553 49.1869918699187,53.45528455284553 49.136178861788615,53.45528455284553 49.136178861788615,53.45528455284553 49.08536585365854,53.45528455284553 49.08536585365854,53.45528455284553 49.03455284552845,53.45528455284553 49.03455284552845,53.50609756097561 49.03455284552845,53.55691056910569 49.03455284552845,53.607723577235774 49.03455284552845,53.65853658536585 49.03455284552845,53.709349593495936 49.03455284552845,53.760162601626014 49.03455284552845,53.8109756097561 49.03455284552845,53.8109756097561 49.08536585365854,53.86178861788618" fill="none" stroke="black" stroke-width="0.6"></polyline><polyline points="48.170731707317074,55.28455284552845 48.06910569105691,55.233739837398375 48.01829268292683,55.18292682926829 47.96747967479675,55.08130081300813 47.96747967479675,54.979674796747965 47.96747967479675,54.77642276422764 47.96747967479675,54.52235772357724 48.01829268292683,54.21747967479675 48.06910569105691,53.96341463414634 48.170731707317074,53.709349593495936 48.27235772357724,53.45528455284553 48.42479674796748,53.2520325203252 48.52642276422764,53.09959349593496 48.6280487804878,52.947154471544714 48.729674796747965,52.896341463414636 48.83130081300813,52.896341463414636 48.88211382113821,52.947154471544714 48.983739837398375,53.09959349593496 49.08536585365854,53.353658536585364 49.1869918699187,53.8109756097561 49.23780487804878,54.420731707317074 49.23780487804878,55.28455284552845 49.1869918699187,56.40243902439024 49.08536585365854,57.672764227642276 48.983739837398375,59.04471544715447 48.83130081300813,60.11178861788618 48.729674796747965,61.077235772357724 48.577235772357724,61.9410569105691 48.52642276422764,62.5 48.52642276422764,62.95731707317073 48.52642276422764,63.3130081300813 48.52642276422764,63.516260162601625 48.52642276422764,63.668699186991866 48.52642276422764,63.77032520325203 48.52642276422764,63.77032520325203 48.52642276422764,63.77032520325203 48.52642276422764,63.71951219512195 48.52642276422764,63.516260162601625 48.52642276422764,63.16056910569105 48.52642276422764,62.60162601626016 48.52642276422764,61.99186991869919 48.52642276422764,61.38211382113821 48.577235772357724,60.77235772357724 48.729674796747965,60.21341463414634 48.983739837398375,59.70528455284553 49.4410569105691,59.197154471544714 49.949186991869915,58.892276422764226 50.45731707317073,58.739837398373986 50.96544715447154,58.6890243902439 51.27032520325203,58.892276422764226 51.47357723577235,59.146341463414636" fill="none" stroke="black" stroke-width="0.6"></polyline><polyline points="51.47357723577235,59.146341463414636 51.6260162601626,59.603658536585364 51.72764227642276,60.11178861788618 51.72764227642276,60.72154471544715 51.72764227642276,61.43292682926829 51.72764227642276,62.042682926829265 51.67682926829268,62.55081300813008 51.6260162601626,63.109756097560975 51.575203252032516,63.46544715447154 51.52439024390244,63.71951219512195 51.52439024390244,63.87195121951219 51.52439024390244,63.97357723577235 51.575203252032516,63.97357723577235 51.6260162601626,63.97357723577235 51.67682926829268,63.97357723577235 51.72764227642276,63.97357723577235" fill="none" stroke="black" stroke-width="0.6"></polyline><polyline points="64.78658536585365,59.959349593495936 64.73577235772358,60.010162601626014 64.73577235772358,60.11178861788618 64.6849593495935,60.36585365853659 64.6849593495935,60.8739837398374 64.6849593495935,61.636178861788615 64.6849593495935,62.5 64.6849593495935,63.41463414634146 64.6849593495935,64.07520325203252 64.6341463414634,64.48170731707317 64.58333333333333,64.73577235772358 64.58333333333333,64.83739837398373 64.6341463414634,64.83739837398373 64.73577235772358,64.83739837398373 64.83739837398373,64.78658536585365" fill="none" stroke="black" stroke-width="0.6"></polyline><polyline points="64.6341463414634,55.89430894308943 64.48170731707317,55.94512195121951 64.22764227642276,56.09756097560975 64.1260162601626,56.14837398373984 63.97357723577235,56.25 63.922764227642276,56.35162601626016 63.922764227642276,56.5040650406504 63.922764227642276,56.70731707317073 63.922764227642276,56.96138211382114 63.97357723577235,57.21544715447154" fill="none" stroke="black" stroke-width="0.6"></polyline><polyline points="82.8760162601626,60.670731707317074 82.82520325203252,60.72154471544715 82.77439024390243,60.77235772357724 82.67276422764228,60.8739837398374 82.6219512195122,61.077235772357724 82.5711382113821,61.43292682926829 82.5711382113821,61.9410569105691 82.72357723577235,62.7540650406504 82.97764227642276,63.82113821138211 83.33333333333333,64.88821138211382 83.79065040650406,66.0060975609756 84.29878048780488,67.07317073170732 84.70528455284553,67.9369918699187 84.90853658536585,68.64837398373983 84.95934959349593,69.41056910569105 84.90853658536585,69.96951219512195 84.85772357723577,70.27439024390243 84.7560975609756,70.52845528455285 84.5020325203252,70.9349593495935 84.2479674796748,71.23983739837398 83.9430894308943,71.4430894308943 83.63821138211382,71.54471544715447 83.33333333333333,71.54471544715447 82.97764227642276,71.54471544715447 82.5711382113821,71.34146341463415 82.16463414634146,71.08739837398373 81.65650406504065,70.73170731707317 81.19918699186992,70.32520325203252 80.89430894308943,69.96951219512195 80.74186991869918,69.66463414634146 80.6910569105691,69.3089430894309 80.6910569105691,69.15650406504065" fill="none" stroke="black" stroke-width="0.6"></polyline><polyline points="83.53658536585365,53.45528455284553 83.53658536585365,53.45528455284553 83.48577235772358,53.55691056910569 83.4349593495935,53.607723577235774 83.3841463414634,53.709349593495936 83.33333333333333,53.91260162601626 83.28252032520325,54.11585365853659 83.07926829268293,54.77642276422764 82.8760162601626,55.58943089430894 82.72357723577235,56.35162601626016 82.72357723577235,56.55487804878049 82.72357723577235,56.75813008130081 82.72357723577235,56.80894308943089 82.77439024390243,56.75813008130081 82.92682926829268,56.55487804878049" fill="none" stroke="black" stroke-width="0.6"></polyline><polyline points="19.410569105691057,71.79878048780488 19.308943089430894,71.69715447154472 19.20731707317073,71.54471544715447 19.15650406504065,71.34146341463415 19.054878048780488,71.13821138211382 19.004065040650406,70.9349593495935 18.902439024390244,70.68089430894308 18.75,70.3760162601626 18.69918699186992,70.27439024390243 18.546747967479675,70.02032520325203 18.39430894308943,69.8170731707317 18.191056910569106,69.61382113821138 18.089430894308943,69.51219512195122 17.88617886178862,69.35975609756098 17.784552845528456,69.2581300813008 17.479674796747968,69.15650406504065 17.378048780487806,69.15650406504065 17.225609756097562,69.15650406504065 16.920731707317074,69.20731707317073 16.76829268292683,69.2581300813008 16.565040650406505,69.41056910569105 16.260162601626014,69.71544715447155 16.10772357723577,69.86788617886178 15.955284552845528,70.0711382113821 15.752032520325203,70.3760162601626 15.65040650406504,70.57926829268293 15.497967479674797,70.9349593495935 15.447154471544716,71.34146341463415 15.447154471544716,71.7479674796748 15.497967479674797,72.20528455284553 15.65040650406504,72.71341463414635 15.802845528455284,73.17073170731707 16.006097560975608,73.72967479674797 16.260162601626014,74.28861788617886 16.463414634146343,74.84756097560975 16.615853658536587,75.40650406504065 16.76829268292683,75.96544715447155 16.81910569105691,76.47357723577235 16.869918699186993,77.03252032520325 16.920731707317074,77.48983739837398 16.920731707317074,77.89634146341463 16.920731707317074,78.30284552845528 16.920731707317074,78.70934959349593 16.920731707317074,78.96341463414635 16.920731707317074,79.26829268292683 16.920731707317074,79.47154471544715 16.869918699186993,79.57317073170732 16.869918699186993,79.6239837398374 16.869918699186993,79.6239837398374 16.869918699186993,79.6239837398374 16.869918699186993,79.52235772357723" fill="none" stroke="black" stroke-width="0.6"></polyline><polyline points="16.869918699186993,79.52235772357723" fill="none" stroke="black" stroke-width="0.6"></polyline><polyline points="15.19308943089431,76.6260162601626 15.19308943089431,76.6260162601626 15.091463414634147,76.57520325203252 15.091463414634147,76.57520325203252 15.091463414634147,76.57520325203252 15.142276422764228,76.52439024390243 15.294715447154472,76.52439024390243 15.59959349593496,76.47357723577235 16.006097560975608,76.42276422764228 16.514227642276424,76.3211382113821 17.022357723577237,76.3211382113821 17.632113821138212,76.27032520325203 18.089430894308943,76.21951219512195 18.597560975609756,76.21951219512195 19.10569105691057,76.16869918699187 19.5630081300813,76.16869918699187 19.96951219512195,76.16869918699187" fill="none" stroke="black" stroke-width="0.6"></polyline><polyline points="31.25,77.9471544715447 31.25,77.9471544715447 31.19918699186992,77.9471544715447 31.19918699186992,77.9471544715447 31.148373983739837,77.9979674796748 31.148373983739837,77.9979674796748 31.19918699186992,77.9979674796748 31.25,77.9979674796748 31.30081300813008,77.9979674796748 31.453252032520325,77.9979674796748 31.70731707317073,77.9979674796748 31.808943089430894,78.04878048780488 31.961382113821138,78.04878048780488 32.3170731707317,78.04878048780488 32.52032520325203,78.04878048780488 32.926829268292686,77.9979674796748 33.4349593495935,77.79471544715447 33.892276422764226,77.48983739837398 34.09552845528455,77.28658536585365 34.451219512195124,76.93089430894308 34.70528455284553,76.52439024390243 34.857723577235774,76.27032520325203 34.959349593495936,76.01626016260163 35.010162601626014,75.86382113821138 35.010162601626014,75.71138211382113 35.010162601626014,75.60975609756098 35.010162601626014,75.45731707317073 34.90853658536585,75.35569105691057 34.75609756097561,75.20325203252033 34.552845528455286,75 34.298780487804876,74.89837398373983 33.99390243902439,74.79674796747967 33.63821138211382,74.6951219512195 33.485772357723576,74.6951219512195 33.28252032520325,74.6951219512195 32.926829268292686,74.7459349593496 32.52032520325203,74.94918699186992 32.16463414634146,75.30487804878048 32.012195121951216,75.5081300813008 31.859756097560975,75.76219512195122 31.60569105691057,76.3719512195122 31.402439024390244,77.03252032520325 31.351626016260163,77.79471544715447 31.30081300813008,78.5060975609756 31.351626016260163,79.16666666666667 31.504065040650406,79.6239837398374 31.70731707317073,79.97967479674797 31.961382113821138,80.23373983739837 32.3170731707317,80.48780487804878 32.72357723577236,80.74186991869918 33.13008130081301,80.89430894308943" fill="none" stroke="black" stroke-width="0.6"></polyline><polyline points="33.13008130081301,80.89430894308943 33.58739837398374,81.04674796747967 34.04471544715447,81.04674796747967 34.451219512195124,81.04674796747967 34.857723577235774,80.89430894308943 35.11178861788618,80.6910569105691 35.36585365853659,80.48780487804878 35.61991869918699,80.23373983739837 35.77235772357724,80.03048780487805 35.8739837398374,79.8780487804878 35.92479674796748,79.82723577235772 35.92479674796748,79.77642276422765 35.97560975609756,79.72560975609755 35.97560975609756,79.72560975609755 35.97560975609756,79.72560975609755" fill="none" stroke="black" stroke-width="0.6"></polyline><polyline points="50.71138211382114,70.0711382113821 50.71138211382114,70.17276422764228 50.71138211382114,70.22357723577235 50.762195121951216,70.47764227642276 50.86382113821138,70.78252032520325 51.016260162601625,71.49390243902438 51.168699186991866,72.61178861788618 51.21951219512195,74.03455284552845 51.27032520325203,75.5589430894309 51.37195121951219,76.93089430894308 51.422764227642276,78.09959349593495 51.52439024390244,79.11585365853658 51.6260162601626,79.82723577235772 51.72764227642276,80.38617886178862 51.880081300813,80.79268292682927 52.03252032520325,81.09756097560975 52.13414634146341,81.19918699186992 52.1849593495935,81.25 52.235772357723576,81.25 52.235772357723576,81.09756097560975 52.28658536585366,80.84349593495935 52.28658536585366,80.38617886178862 52.235772357723576,79.82723577235772 52.13414634146341,79.16666666666667 52.03252032520325,78.5569105691057 51.880081300813,77.9979674796748 51.67682926829268,77.38821138211382 51.52439024390244,76.880081300813 51.47357723577235,76.72764227642276 51.32113821138211,76.57520325203252 51.0670731707317,76.42276422764228 50.762195121951216,76.42276422764228 50.355691056910565,76.57520325203252 49.949186991869915,76.77845528455285 49.796747967479675,76.93089430894308 49.59349593495935,77.08333333333333 49.1869918699187,77.4390243902439 48.83130081300813,77.9471544715447 48.6280487804878,78.5060975609756 48.47560975609756,79.11585365853658 48.47560975609756,79.72560975609755 48.52642276422764,80.1321138211382 48.78048780487805,80.48780487804878 49.136178861788615,80.74186991869918 49.542682926829265,80.9451219512195 50,81.04674796747967 50.50813008130081,81.09756097560975 50.91463414634146,81.09756097560975 51.32113821138211,80.9451219512195 51.67682926829268,80.74186991869918 51.981707317073166,80.53861788617886" fill="none" stroke="black" stroke-width="0.6"></polyline><polyline points="51.981707317073166,80.53861788617886 52.1849593495935,80.28455284552845 52.38821138211382,80.03048780487805 52.489837398373986,79.92886178861788" fill="none" stroke="black" stroke-width="0.6"></polyline><polyline points="67.83536585365853,75.20325203252033 67.78455284552845,75.15243902439025 67.6829268292683,75.05081300813008 67.58130081300813,75 67.42886178861788,74.84756097560975 67.27642276422765,74.7459349593496 67.02235772357723,74.64430894308943 66.61585365853658,74.64430894308943 66.36178861788618,74.64430894308943 65.90447154471545,74.79674796747967 65.39634146341463,75.15243902439025 64.88821138211382,75.76219512195122 64.43089430894308,76.6260162601626 64.07520325203252,77.64227642276423 63.87195121951219,78.70934959349593 63.87195121951219,79.57317073170732 64.02439024390243,80.1321138211382 64.32926829268293,80.53861788617886 64.83739837398373,80.74186991869918 65.39634146341463,80.84349593495935 65.7520325203252,80.89430894308943 66.0569105691057,80.89430894308943 66.41260162601625,80.89430894308943 67.1239837398374,80.74186991869918 67.53048780487805,80.64024390243902 67.83536585365853,80.48780487804878 68.54674796747967,80.1321138211382 69.15650406504065,79.77642276422765 69.76626016260163,79.47154471544715" fill="none" stroke="black" stroke-width="0.6"></polyline><polyline points="80.4369918699187,72.05284552845528 80.38617886178862,71.84959349593495 80.33536585365853,71.49390243902438 80.28455284552845,71.29065040650406 80.28455284552845,71.1890243902439 80.28455284552845,71.1890243902439 80.28455284552845,71.1890243902439 80.33536585365853,71.29065040650406 80.4369918699187,71.59552845528455 80.48780487804878,72.15447154471545 80.58943089430895,73.0691056910569 80.64024390243902,74.23780487804878 80.64024390243902,75.76219512195122 80.6910569105691,77.54065040650406 80.6910569105691,78.86178861788618 80.6910569105691,79.77642276422765 80.64024390243902,80.38617886178862 80.58943089430895,80.6910569105691 80.58943089430895,80.74186991869918 80.58943089430895,80.74186991869918 80.58943089430895,80.74186991869918 80.58943089430895,80.64024390243902 80.64024390243902,80.4369918699187 80.74186991869918,80.1321138211382 80.84349593495935,79.72560975609755 80.9959349593496,79.21747967479675 81.19918699186992,78.76016260162602 81.5040650406504,78.30284552845528 81.85975609756098,77.79471544715447 82.26626016260163,77.48983739837398 82.67276422764228,77.33739837398373 83.07926829268293,77.38821138211382 83.3841463414634,77.79471544715447 83.58739837398373,78.30284552845528 83.79065040650406,79.01422764227642 83.84146341463415,79.72560975609755 83.84146341463415,80.38617886178862 83.73983739837398,81.04674796747967 83.53658536585365,81.40243902439025 83.28252032520325,81.70731707317073 82.92682926829268,81.91056910569105 82.6219512195122,81.96138211382113 82.26626016260163,81.96138211382113 81.7581300813008,81.85975609756098 81.30081300813008,81.65650406504065 80.84349593495935,81.45325203252033 80.48780487804878,81.25 80.23373983739837,81.09756097560975 80.1321138211382,80.9451219512195 80.08130081300813,80.84349593495935" fill="none" stroke="black" stroke-width="0.6"></polyline><polyline points="20.071138211382113,91.3109756097561 19.91869918699187,91.3109756097561 19.766260162601625,91.3109756097561 19.51219512195122,91.3109756097561 19.308943089430894,91.3109756097561 19.20731707317073,91.3109756097561 19.10569105691057,91.20934959349593 19.10569105691057,91.0569105691057 19.10569105691057,90.95528455284553 19.10569105691057,90.85365853658536 19.10569105691057,90.65040650406503 19.15650406504065,90.4471544715447 19.20731707317073,90.34552845528455 19.258130081300813,90.24390243902438 19.308943089430894,90.04065040650406 19.308943089430894,89.88821138211382 19.308943089430894,89.73577235772358 19.258130081300813,89.6849593495935 19.258130081300813,89.58333333333333 19.054878048780488,89.53252032520325 18.953252032520325,89.48170731707317 18.851626016260163,89.48170731707317 18.546747967479675,89.53252032520325 18.34349593495935,89.58333333333333 17.98780487804878,89.88821138211382 17.53048780487805,90.29471544715447 17.327235772357724,90.59959349593495 16.869918699186993,91.26016260162602 16.463414634146343,92.02235772357723 16.3109756097561,92.42886178861788 16.15853658536585,92.88617886178862 15.904471544715447,93.75 15.853658536585366,94.15650406504065 15.853658536585366,94.76626016260163 15.955284552845528,95.22357723577235 16.05691056910569,95.3760162601626 16.209349593495933,95.57926829268293 16.36178861788618,95.68089430894308 16.76829268292683,95.9349593495935 17.1239837398374,95.98577235772358 17.53048780487805,95.98577235772358 17.733739837398375,95.8841463414634 17.98780487804878,95.73170731707317 18.39430894308943,95.32520325203252 18.597560975609756,95.0711382113821 18.80081300813008,94.76626016260163 19.258130081300813,94.15650406504065 19.410569105691057,93.80081300813008 19.61382113821138,93.4959349593496 19.715447154471544,93.1910569105691 19.867886178861788,92.88617886178862" fill="none" stroke="black" stroke-width="0.6"></polyline><polyline points="19.867886178861788,92.88617886178862 20.121951219512194,92.27642276422765 20.223577235772357,91.869918699187 20.223577235772357,91.5650406504065 20.223577235772357,91.46341463414635 20.223577235772357,91.36178861788618 20.172764227642276,91.3109756097561 20.071138211382113,91.3109756097561 19.96951219512195,91.3109756097561 19.817073170731707,91.36178861788618 19.817073170731707,91.46341463414635 19.715447154471544,91.66666666666667 19.715447154471544,92.07317073170732 19.715447154471544,92.27642276422765 19.715447154471544,92.47967479674797 19.817073170731707,92.98780487804878 19.867886178861788,93.29268292682927 19.96951219512195,93.59756097560975 20.274390243902438,94.2581300813008 20.477642276422763,94.61382113821138 20.68089430894309,94.96951219512195 21.1890243902439,95.57926829268293 21.443089430894307,95.78252032520325 21.90040650406504,96.08739837398373 22.30691056910569,96.23983739837398 22.510162601626014,96.29065040650406 22.71341463414634,96.29065040650406" fill="none" stroke="black" stroke-width="0.6"></polyline></svg>