<svg height="100" width="100" preserveAspectRatio="xMidYMid meet"><polyline points="93.03861788617886,93.59756097560975 93.1910569105691,92.88617886178862 93.4451219512195,91.76829268292683" fill="none" stroke="black" stroke-width="0.6"></polyline><polyline points="6.402439024390244,15.701219512195122 6.402439024390244,15.701219512195122 6.402439024390244,15.701219512195122 6.402439024390244,15.701219512195122 6.402439024390244,15.701219512195122 6.402439024390244,15.701219512195122 6.402439024390244,15.701219512195122 6.402439024390244,15.701219512195122 6.402439024390244,15.65040650406504 6.402439024390244,15.65040650406504 6.402439024390244,15.65040650406504 6.402439024390244,15.65040650406504 6.402439024390244,15.65040650406504 6.402439024390244,15.65040650406504 6.402439024390244,15.65040650406504 6.402439024390244,15.65040650406504 6.402439024390244,15.65040650406504 6.402439024390244,15.65040650406504 6.402439024390244,15.65040650406504 6.402439024390244,15.65040650406504 6.402439024390244,15.65040650406504 6.453252032520325,15.701219512195122 6.504065040650406,15.701219512195122 6.554878048780488,15.701219512195122 6.605691056910569,15.752032520325203 6.7073170731707314,15.752032520325203 6.859756097560975,15.802845528455284 6.9105691056910565,15.802845528455284 6.961382113821138,15.802845528455284 7.012195121951219,15.802845528455284 7.164634146341463,15.853658536585366 7.367886178861789,15.853658536585366 7.520325203252033,15.853658536585366 7.723577235772358,15.853658536585366 7.977642276422764,15.802845528455284 8.079268292682926,15.752032520325203 8.18089430894309,15.752032520325203 8.333333333333334,15.701219512195122 8.536585365853659,15.65040650406504 8.739837398373984,15.548780487804878 8.99390243902439,15.447154471544716 9.34959349593496,15.294715447154472 9.603658536585366,15.19308943089431 9.75609756097561,15.142276422764228 10.010162601626016,15.040650406504065 10.264227642276422,14.939024390243903 10.365853658536585,14.83739837398374 10.670731707317072,14.735772357723578 10.772357723577235,14.634146341463413 10.924796747967479,14.53252032520325 11.077235772357723,14.48170731707317" fill="none" stroke="black" stroke-width="0.6"></polyline><polyline points="11.077235772357723,14.48170731707317 11.382113821138212,14.278455284552845 11.585365853658537,14.1260162601626 11.839430894308943,13.973577235772357 12.296747967479675,13.66869918699187 12.601626016260163,13.465447154471544 12.754065040650406,13.3130081300813 13.058943089430894,13.058943089430894 13.3130081300813,12.855691056910569 13.617886178861788,12.550813008130081 13.973577235772357,12.195121951219512 14.07520325203252,12.09349593495935 14.278455284552845,11.839430894308943 14.53252032520325,11.636178861788618 14.735772357723578,11.382113821138212 15.142276422764228,10.97560975609756 15.24390243902439,10.823170731707316 15.345528455284553,10.670731707317072 15.447154471544716,10.518292682926829 15.65040650406504,10.264227642276422 15.853658536585366,9.908536585365853 16.15853658536585,9.552845528455284 16.3109756097561,9.247967479674797 16.41260162601626,9.146341463414634 16.514227642276424,8.99390243902439 16.76829268292683,8.58739837398374 16.869918699186993,8.384146341463415 16.920731707317074,8.282520325203253 17.022357723577237,8.079268292682926 17.17479674796748,7.82520325203252 17.378048780487806,7.520325203252033 17.428861788617887,7.41869918699187 17.479674796747968,7.317073170731707 17.53048780487805,7.215447154471544 17.632113821138212,7.012195121951219 17.733739837398375,6.808943089430894 17.784552845528456,6.504065040650406 17.835365853658537,6.402439024390244 17.835365853658537,6.199186991869919 17.835365853658537,6.097560975609756 17.835365853658537,5.995934959349594 17.835365853658537,5.84349593495935 17.835365853658537,5.741869918699187 17.784552845528456,5.589430894308943 17.784552845528456,5.538617886178861 17.733739837398375,5.48780487804878 17.682926829268293,5.48780487804878 17.632113821138212,5.436991869918699 17.58130081300813,5.3861788617886175 17.53048780487805,5.3861788617886175 17.53048780487805,5.3861788617886175" fill="none" stroke="black" stroke-width="0.6"></polyline><polyline points="17.53048780487805,5.3861788617886175 17.479674796747968,5.335365853658536 17.428861788617887,5.335365853658536 17.327235772357724,5.335365853658536 17.225609756097562,5.335365853658536 17.17479674796748,5.3861788617886175 17.073170731707318,5.3861788617886175 17.022357723577237,5.3861788617886175 16.971544715447155,5.436991869918699 16.76829268292683,5.538617886178861 16.71747967479675,5.589430894308943 16.615853658536587,5.640243902439024 16.463414634146343,5.741869918699187 16.41260162601626,5.7926829268292686 16.260162601626014,5.894308943089431 16.10772357723577,6.046747967479675 15.955284552845528,6.1483739837398375 15.853658536585366,6.300813008130081 15.752032520325203,6.402439024390244 15.701219512195122,6.453252032520325 15.65040650406504,6.504065040650406 15.59959349593496,6.605691056910569 15.548780487804878,6.65650406504065 15.447154471544716,6.758130081300813 15.345528455284553,7.012195121951219 15.24390243902439,7.164634146341463 15.19308943089431,7.266260162601625 15.091463414634147,7.469512195121951 14.989837398373984,7.621951219512195 14.939024390243903,7.6727642276422765 14.83739837398374,7.82520325203252 14.786585365853659,7.926829268292683 14.786585365853659,7.977642276422764 14.735772357723578,8.079268292682926 14.684959349593496,8.18089430894309 14.583333333333332,8.282520325203253 14.48170731707317,8.434959349593496 14.380081300813007,8.638211382113822 14.227642276422763,8.892276422764228 14.1260162601626,8.99390243902439 14.024390243902438,9.197154471544716 13.922764227642276,9.298780487804878 13.821138211382113,9.502032520325203 13.71951219512195,9.654471544715447 13.617886178861788,9.80691056910569 13.516260162601625,10.060975609756097 13.465447154471544,10.213414634146341 13.465447154471544,10.264227642276422 13.414634146341463,10.365853658536585 13.414634146341463,10.416666666666666 13.363821138211382,10.56910569105691" fill="none" stroke="black" stroke-width="0.6"></polyline><polyline points="13.363821138211382,10.56910569105691 13.3130081300813,10.772357723577235 13.262195121951219,11.026422764227641 13.262195121951219,11.077235772357723 13.211382113821138,11.229674796747966 13.160569105691057,11.382113821138212 13.109756097560975,11.534552845528456 13.058943089430894,11.788617886178862 13.058943089430894,11.941056910569106 13.008130081300813,11.991869918699187 13.008130081300813,12.09349593495935 13.008130081300813,12.144308943089431 13.008130081300813,12.347560975609756 13.008130081300813,12.601626016260163 13.008130081300813,12.652439024390244 13.008130081300813,12.855691056910569 13.008130081300813,13.008130081300813 13.008130081300813,13.160569105691057 13.008130081300813,13.414634146341463 13.008130081300813,13.567073170731707 13.008130081300813,13.617886178861788 13.008130081300813,13.770325203252032 13.058943089430894,13.871951219512194 13.109756097560975,14.07520325203252 13.109756097560975,14.1260162601626 13.109756097560975,14.1260162601626 13.160569105691057,14.176829268292682 13.160569105691057,14.278455284552845 13.262195121951219,14.380081300813007 13.3130081300813,14.430894308943088 13.363821138211382,14.48170731707317 13.363821138211382,14.53252032520325 13.465447154471544,14.583333333333332 13.567073170731707,14.684959349593496 13.66869918699187,14.735772357723578 13.821138211382113,14.83739837398374 13.871951219512194,14.888211382113822 13.922764227642276,14.939024390243903 14.1260162601626,15.040650406504065 14.227642276422763,15.091463414634147 14.430894308943088,15.19308943089431 14.583333333333332,15.294715447154472 14.634146341463413,15.294715447154472 14.684959349593496,15.345528455284553 14.786585365853659,15.396341463414634 14.83739837398374,15.396341463414634 14.989837398373984,15.447154471544716 15.040650406504065,15.497967479674797 15.091463414634147,15.497967479674797 15.19308943089431,15.548780487804878 15.294715447154472,15.59959349593496" fill="none" stroke="black" stroke-width="0.6"></polyline><polyline points="15.294715447154472,15.59959349593496 15.345528455284553,15.59959349593496 15.396341463414634,15.65040650406504 15.447154471544716,15.65040650406504 15.548780487804878,15.701219512195122 15.65040650406504,15.701219512195122 15.802845528455284,15.752032520325203 15.955284552845528,15.752032520325203 16.05691056910569,15.752032520325203 16.10772357723577,15.752032520325203 16.260162601626014,15.752032520325203 16.36178861788618,15.752032520325203 16.565040650406505,15.701219512195122 16.76829268292683,15.65040650406504 17.022357723577237,15.548780487804878 17.276422764227643,15.497967479674797 17.53048780487805,15.345528455284553 17.733739837398375,15.24390243902439 17.98780487804878,15.091463414634147 18.241869918699187,14.939024390243903 18.546747967479675,14.684959349593496 18.75,14.48170731707317 18.902439024390244,14.380081300813007 19.004065040650406,14.278455284552845 19.10569105691057,14.176829268292682 19.359756097560975,13.973577235772357 19.664634146341463,13.770325203252032 19.91869918699187,13.567073170731707 20.020325203252032,13.465447154471544 20.172764227642276,13.363821138211382 20.274390243902438,13.262195121951219 20.579268292682926,13.008130081300813 20.68089430894309,12.90650406504065 20.833333333333332,12.804878048780488 21.08739837398374,12.601626016260163 21.239837398373982,12.449186991869919 21.54471544715447,12.195121951219512 21.849593495934958,11.941056910569106 22.154471544715445,11.636178861788618 22.40853658536585,11.382113821138212 22.510162601626014,11.280487804878048 22.662601626016258,11.077235772357723 22.71341463414634,10.97560975609756 22.815040650406505,10.873983739837398 22.96747967479675,10.670731707317072 23.06910569105691,10.416666666666666 23.221544715447155,10.111788617886178 23.272357723577237,10.010162601626016 23.3739837398374,9.857723577235772 23.42479674796748,9.705284552845528 23.475609756097562,9.603658536585366" fill="none" stroke="black" stroke-width="0.6"></polyline><polyline points="23.475609756097562,9.603658536585366 23.577235772357724,9.40040650406504 23.678861788617887,9.197154471544716 23.729674796747968,8.99390243902439 23.729674796747968,8.892276422764228 23.78048780487805,8.790650406504065 23.78048780487805,8.58739837398374 23.83130081300813,8.384146341463415 23.83130081300813,8.130081300813007 23.83130081300813,7.723577235772358 23.83130081300813,7.469512195121951 23.83130081300813,7.367886178861789 23.83130081300813,7.266260162601625 23.83130081300813,7.164634146341463 23.83130081300813,6.961382113821138 23.78048780487805,6.808943089430894 23.729674796747968,6.65650406504065 23.729674796747968,6.605691056910569 23.678861788617887,6.554878048780488 23.628048780487806,6.504065040650406 23.526422764227643,6.453252032520325 23.475609756097562,6.402439024390244 23.3739837398374,6.3516260162601625 23.323170731707318,6.3516260162601625 23.221544715447155,6.3516260162601625 23.119918699186993,6.3516260162601625 22.96747967479675,6.3516260162601625 22.865853658536587,6.453252032520325 22.71341463414634,6.504065040650406 22.662601626016258,6.554878048780488 22.560975609756095,6.605691056910569 22.40853658536585,6.7073170731707314 22.256097560975608,6.808943089430894 22.103658536585364,6.9105691056910565 21.90040650406504,7.113821138211382 21.849593495934958,7.164634146341463 21.697154471544714,7.317073170731707 21.54471544715447,7.469512195121951 21.443089430894307,7.621951219512195 21.290650406504064,7.926829268292683 21.1890243902439,8.130081300813007 21.13821138211382,8.231707317073171 21.13821138211382,8.333333333333334 21.08739837398374,8.434959349593496 20.985772357723576,8.638211382113822 20.934959349593495,8.841463414634147 20.833333333333332,9.146341463414634 20.833333333333332,9.247967479674797 20.73170731707317,9.40040650406504 20.68089430894309,9.603658536585366 20.579268292682926,9.80691056910569" fill="none" stroke="black" stroke-width="0.6"></polyline><polyline points="20.579268292682926,9.80691056910569 20.477642276422763,10.060975609756097 20.426829268292682,10.213414634146341 20.3760162601626,10.315040650406504 20.274390243902438,10.56910569105691 20.172764227642276,10.823170731707316 20.121951219512194,11.026422764227641 20.071138211382113,11.178861788617885 20.020325203252032,11.280487804878048 20.020325203252032,11.331300813008129 19.96951219512195,11.432926829268293 19.96951219512195,11.534552845528456 19.91869918699187,11.585365853658537 19.91869918699187,11.6869918699187 19.91869918699187,11.737804878048781 19.91869918699187,11.890243902439025 19.867886178861788,11.941056910569106 19.867886178861788,12.09349593495935 19.817073170731707,12.245934959349594 19.817073170731707,12.398373983739837 19.766260162601625,12.703252032520325 19.766260162601625,12.855691056910569 19.766260162601625,12.957317073170731 19.715447154471544,13.109756097560975 19.715447154471544,13.262195121951219 19.715447154471544,13.363821138211382 19.715447154471544,13.516260162601625 19.715447154471544,13.66869918699187 19.715447154471544,13.770325203252032 19.715447154471544,13.821138211382113 19.766260162601625,13.922764227642276 19.766260162601625,13.973577235772357 19.817073170731707,14.176829268292682 19.867886178861788,14.278455284552845 19.91869918699187,14.329268292682926 19.96951219512195,14.430894308943088 20.020325203252032,14.53252032520325 20.071138211382113,14.634146341463413 20.121951219512194,14.735772357723578 20.172764227642276,14.786585365853659 20.172764227642276,14.83739837398374 20.223577235772357,14.888211382113822 20.274390243902438,14.939024390243903 20.32520325203252,15.040650406504065 20.3760162601626,15.091463414634147 20.426829268292682,15.142276422764228 20.477642276422763,15.19308943089431 20.528455284552845,15.24390243902439 20.579268292682926,15.24390243902439 20.68089430894309,15.345528455284553 20.78252032520325,15.396341463414634" fill="none" stroke="black" stroke-width="0.6"></polyline><polyline points="20.78252032520325,15.396341463414634 20.833333333333332,15.447154471544716 20.934959349593495,15.497967479674797 21.036585365853657,15.548780487804878 21.1890243902439,15.59959349593496 21.290650406504064,15.65040650406504 21.49390243902439,15.752032520325203 21.59552845528455,15.802845528455284 21.697154471544714,15.802845528455284 21.798780487804876,15.853658536585366 21.95121951219512,15.904471544715447 22.103658536585364,15.955284552845528 22.256097560975608,16.006097560975608 22.40853658536585,16.05691056910569 22.662601626016258,16.05691056910569 22.764227642276424,16.05691056910569 22.96747967479675,16.05691056910569 23.06910569105691,16.05691056910569 23.170731707317074,16.05691056910569 23.3739837398374,16.05691056910569 23.628048780487806,16.05691056910569 23.83130081300813,16.05691056910569 24.1869918699187,16.006097560975608 24.339430894308943,15.955284552845528 24.59349593495935,15.904471544715447 24.847560975609756,15.904471544715447 24.94918699186992,15.853658536585366 25.05081300813008,15.853658536585366 25.304878048780488,15.802845528455284 25.609756097560975,15.701219512195122 25.86382113821138,15.65040650406504 26.16869918699187,15.497967479674797 26.6260162601626,15.294715447154472 26.93089430894309,15.142276422764228 27.235772357723576,14.939024390243903 27.4390243902439,14.83739837398374 27.693089430894307,14.634146341463413 27.997967479674795,14.430894308943088 28.302845528455283,14.227642276422763 28.455284552845526,14.07520325203252 28.65853658536585,13.922764227642276 28.96341463414634,13.617886178861788 29.0650406504065,13.516260162601625 29.31910569105691,13.3130081300813 29.420731707317074,13.160569105691057 29.522357723577237,13.058943089430894 29.776422764227643,12.804878048780488 30.08130081300813,12.5 30.38617886178862,12.144308943089431 30.640243902439025,11.890243902439025 30.89430894308943,11.636178861788618" fill="none" stroke="black" stroke-width="0.6"></polyline><polyline points="30.89430894308943,11.636178861788618 31.046747967479675,11.483739837398375 31.148373983739837,11.382113821138212 31.19918699186992,11.280487804878048 31.351626016260163,11.026422764227641 31.504065040650406,10.772357723577235 31.65650406504065,10.416666666666666 31.70731707317073,10.315040650406504 31.808943089430894,10.010162601626016 31.859756097560975,9.75609756097561 31.910569105691057,9.451219512195122 31.961382113821138,9.095528455284553 32.012195121951216,8.99390243902439 32.012195121951216,8.892276422764228 32.012195121951216,8.739837398373984 32.0630081300813,8.638211382113822 32.0630081300813,8.485772357723578 32.11382113821138,8.282520325203253 32.11382113821138,8.028455284552845 32.16463414634146,7.774390243902439 32.16463414634146,7.6727642276422765 32.16463414634146,7.520325203252033 32.16463414634146,7.41869918699187 32.16463414634146,7.215447154471544 32.11382113821138,7.012195121951219 32.0630081300813,6.9105691056910565 32.012195121951216,6.859756097560975 31.961382113821138,6.65650406504065 31.910569105691057,6.605691056910569 31.859756097560975,6.504065040650406 31.859756097560975,6.453252032520325 31.808943089430894,6.402439024390244 31.70731707317073,6.25 31.60569105691057,6.1483739837398375 31.554878048780488,6.1483739837398375 31.504065040650406,6.097560975609756 31.402439024390244,6.046747967479675 31.30081300813008,5.995934959349594 31.19918699186992,5.945121951219512 31.046747967479675,5.894308943089431 30.945121951219512,5.894308943089431 30.89430894308943,5.894308943089431 30.79268292682927,5.894308943089431 30.640243902439025,5.894308943089431 30.538617886178862,5.945121951219512 30.48780487804878,5.995934959349594 30.38617886178862,6.046747967479675 30.335365853658537,6.046747967479675 30.284552845528456,6.097560975609756 30.182926829268293,6.1483739837398375 30.132113821138212,6.199186991869919" fill="none" stroke="black" stroke-width="0.6"></polyline><polyline points="30.132113821138212,6.199186991869919 30.03048780487805,6.25 29.928861788617887,6.3516260162601625 29.827235772357724,6.453252032520325 29.725609756097562,6.554878048780488 29.67479674796748,6.605691056910569 29.6239837398374,6.65650406504065 29.573170731707318,6.758130081300813 29.471544715447155,6.9105691056910565 29.369918699186993,7.0630081300813 29.31910569105691,7.164634146341463 29.217479674796746,7.367886178861789 28.96341463414634,7.774390243902439 28.810975609756095,8.079268292682926 28.60772357723577,8.384146341463415 28.353658536585364,8.841463414634147 28.2520325203252,9.044715447154472 28.15040650406504,9.197154471544716 28.099593495934958,9.298780487804878 28.099593495934958,9.34959349593496 28.048780487804876,9.40040650406504 28.048780487804876,9.451219512195122 28.048780487804876,9.502032520325203 27.997967479674795,9.654471544715447 27.997967479674795,9.80691056910569 27.947154471544714,9.908536585365853 27.947154471544714,10.010162601626016 27.947154471544714,10.111788617886178 27.896341463414632,10.264227642276422 27.896341463414632,10.56910569105691 27.84552845528455,10.619918699186991 27.84552845528455,10.721544715447154 27.79471544715447,10.823170731707316 27.79471544715447,11.026422764227641 27.74390243902439,11.178861788617885 27.693089430894307,11.483739837398375 27.642276422764226,11.585365853658537 27.642276422764226,11.636178861788618 27.642276422764226,11.737804878048781 27.591463414634145,11.890243902439025 27.591463414634145,12.042682926829269 27.591463414634145,12.195121951219512 27.591463414634145,12.296747967479675 27.591463414634145,12.398373983739837 27.591463414634145,12.550813008130081 27.591463414634145,12.754065040650406 27.591463414634145,13.008130081300813 27.642276422764226,13.211382113821138 27.642276422764226,13.3130081300813 27.693089430894307,13.363821138211382 27.79471544715447,13.66869918699187" fill="none" stroke="black" stroke-width="0.6"></polyline><polyline points="27.79471544715447,13.66869918699187 27.896341463414632,13.871951219512194 27.947154471544714,13.973577235772357 27.997967479674795,14.1260162601626 28.099593495934958,14.278455284552845 28.20121951219512,14.430894308943088 28.353658536585364,14.634146341463413 28.404471544715445,14.735772357723578 28.455284552845526,14.786585365853659 28.506097560975608,14.888211382113822 28.60772357723577,15.040650406504065 28.65853658536585,15.091463414634147 28.709349593495933,15.19308943089431 28.760162601626014,15.24390243902439 28.810975609756095,15.294715447154472 28.912601626016258,15.447154471544716 29.01422764227642,15.497967479674797 29.0650406504065,15.548780487804878 29.166666666666664,15.65040650406504 29.31910569105691,15.802845528455284 29.471544715447155,15.904471544715447 29.522357723577237,15.904471544715447 29.6239837398374,16.006097560975608 29.725609756097562,16.006097560975608 29.827235772357724,16.05691056910569 29.979674796747968,16.15853658536585 30.182926829268293,16.209349593495933 30.4369918699187,16.260162601626014 30.538617886178862,16.3109756097561 30.741869918699187,16.3109756097561 31.097560975609756,16.41260162601626 31.25,16.41260162601626 31.554878048780488,16.41260162601626 31.910569105691057,16.463414634146343 32.21544715447154,16.463414634146343 32.36788617886179,16.463414634146343 32.57113821138211,16.41260162601626 32.77439024390244,16.41260162601626 33.13008130081301,16.3109756097561 33.63821138211382,16.15853658536585 34.197154471544714,15.955284552845528 34.75609756097561,15.701219512195122 35.36585365853659,15.396341463414634 36.33130081300813,14.83739837398374 36.890243902439025,14.430894308943088 37.14430894308943,14.227642276422763 37.449186991869915,13.973577235772357 37.855691056910565,13.617886178861788 38.00813008130081,13.465447154471544 38.262195121951216,13.211382113821138 38.41463414634146,13.008130081300813" fill="none" stroke="black" stroke-width="0.6"></polyline><polyline points="38.41463414634146,13.008130081300813 38.61788617886179,12.703252032520325" fill="none" stroke="black" stroke-width="0.6"></polyline><polyline points="5.436991869918699,36.077235772357724 5.436991869918699,36.077235772357724 5.436991869918699,36.077235772357724 5.436991869918699,36.077235772357724 5.436991869918699,36.077235772357724 5.436991869918699,36.077235772357724 5.436991869918699,36.077235772357724 5.436991869918699,36.077235772357724 5.436991869918699,36.077235772357724 5.436991869918699,36.077235772357724 5.436991869918699,36.077235772357724 5.436991869918699,36.077235772357724 5.436991869918699,36.077235772357724 5.436991869918699,36.077235772357724 5.436991869918699,36.077235772357724 5.48780487804878,36.077235772357724 5.538617886178861,36.077235772357724 5.538617886178861,36.077235772357724 5.640243902439024,36.077235772357724 5.7926829268292686,36.077235772357724 5.995934959349594,36.077235772357724 6.046747967479675,36.077235772357724 6.199186991869919,36.077235772357724 6.300813008130081,36.077235772357724 6.453252032520325,36.077235772357724 6.7073170731707314,36.02642276422764 6.9105691056910565,35.97560975609756 7.215447154471544,35.92479674796748 7.41869918699187,35.8739837398374 7.520325203252033,35.823170731707314 7.723577235772358,35.77235772357724 7.926829268292683,35.670731707317074 8.18089430894309,35.56910569105691 8.384146341463415,35.46747967479675 8.739837398373984,35.3150406504065 8.94308943089431,35.16260162601626 9.197154471544716,35.010162601626014 9.298780487804878,34.959349593495936 9.40040650406504,34.857723577235774 9.552845528455284,34.75609756097561 9.654471544715447,34.70528455284553 9.908536585365853,34.451219512195124 10.060975609756097,34.34959349593496 10.264227642276422,34.197154471544714 10.56910569105691,33.892276422764226 10.721544715447154,33.739837398373986 10.924796747967479,33.53658536585366 11.331300813008129,33.18089430894309 11.534552845528456,33.02845528455285 11.6869918699187,32.8760162601626 11.890243902439025,32.72357723577236" fill="none" stroke="black" stroke-width="0.6"></polyline><polyline points="11.890243902439025,32.72357723577236 12.042682926829269,32.57113821138211 12.195121951219512,32.418699186991866 12.5,32.11382113821138 12.754065040650406,31.808943089430894 13.058943089430894,31.351626016260163 13.160569105691057,31.25 13.211382113821138,31.097560975609756 13.3130081300813,30.84349593495935 13.363821138211382,30.741869918699187 13.465447154471544,30.48780487804878 13.516260162601625,30.233739837398375 13.567073170731707,29.878048780487806 13.617886178861788,29.725609756097562 13.617886178861788,29.6239837398374 13.617886178861788,29.471544715447155 13.617886178861788,29.31910569105691 13.617886178861788,29.0650406504065 13.617886178861788,28.861788617886177 13.617886178861788,28.810975609756095 13.567073170731707,28.65853658536585 13.567073170731707,28.55691056910569 13.567073170731707,28.506097560975608 13.567073170731707,28.302845528455283 13.516260162601625,28.099593495934958 13.516260162601625,27.896341463414632 13.516260162601625,27.79471544715447 13.465447154471544,27.591463414634145 13.414634146341463,27.38821138211382 13.363821138211382,27.235772357723576 13.3130081300813,27.134146341463413 13.262195121951219,27.083333333333332 13.211382113821138,27.03252032520325 13.109756097560975,26.98170731707317 13.058943089430894,26.93089430894309 12.957317073170731,26.93089430894309 12.90650406504065,26.93089430894309 12.90650406504065,26.93089430894309 12.855691056910569,26.93089430894309 12.855691056910569,26.93089430894309 12.804878048780488,26.93089430894309 12.804878048780488,26.93089430894309 12.754065040650406,26.98170731707317 12.703252032520325,27.03252032520325 12.601626016260163,27.083333333333332 12.601626016260163,27.083333333333332 12.550813008130081,27.134146341463413 12.5,27.184959349593495 12.449186991869919,27.235772357723576 12.347560975609756,27.33739837398374 12.296747967479675,27.4390243902439" fill="none" stroke="black" stroke-width="0.6"></polyline><polyline points="12.296747967479675,27.4390243902439 12.144308943089431,27.540650406504064 11.991869918699187,27.74390243902439 11.890243902439025,27.896341463414632 11.839430894308943,27.997967479674795 11.6869918699187,28.15040650406504 11.585365853658537,28.302845528455283 11.483739837398375,28.60772357723577 11.432926829268293,28.760162601626014 11.382113821138212,28.810975609756095 11.331300813008129,29.01422764227642 11.331300813008129,29.115853658536583 11.280487804878048,29.268292682926827 11.229674796747966,29.471544715447155 11.229674796747966,29.573170731707318 11.178861788617885,29.67479674796748 11.128048780487804,29.776422764227643 11.077235772357723,29.928861788617887 10.97560975609756,30.233739837398375 10.873983739837398,30.538617886178862 10.772357723577235,30.84349593495935 10.721544715447154,31.046747967479675 10.670731707317072,31.148373983739837 10.619918699186991,31.25 10.619918699186991,31.351626016260163 10.56910569105691,31.453252032520325 10.518292682926829,31.65650406504065 10.467479674796747,31.808943089430894 10.365853658536585,32.16463414634146 10.315040650406504,32.21544715447154 10.315040650406504,32.3170731707317 10.264227642276422,32.418699186991866 10.264227642276422,32.6219512195122 10.16260162601626,32.8760162601626 10.16260162601626,33.079268292682926 10.111788617886178,33.28252032520325 10.060975609756097,33.58739837398374 10.060975609756097,33.6890243902439 10.060975609756097,33.892276422764226 10.060975609756097,34.09552845528455 10.060975609756097,34.2479674796748 10.060975609756097,34.40040650406504 10.111788617886178,34.65447154471545 10.16260162601626,34.70528455284553 10.213414634146341,34.80691056910569 10.264227642276422,34.959349593495936 10.365853658536585,35.11178861788618 10.518292682926829,35.3150406504065 10.56910569105691,35.36585365853659 10.619918699186991,35.416666666666664 10.670731707317072,35.46747967479675" fill="none" stroke="black" stroke-width="0.6"></polyline><polyline points="10.670731707317072,35.46747967479675 10.772357723577235,35.51829268292683 10.823170731707316,35.56910569105691 11.026422764227641,35.670731707317074 11.178861788617885,35.72154471544715 11.229674796747966,35.77235772357724 11.331300813008129,35.77235772357724 11.483739837398375,35.823170731707314 11.636178861788618,35.823170731707314 11.737804878048781,35.823170731707314 11.839430894308943,35.823170731707314 11.941056910569106,35.8739837398374 12.042682926829269,35.8739837398374 12.245934959349594,35.8739837398374 12.449186991869919,35.8739837398374 12.804878048780488,35.8739837398374 12.90650406504065,35.823170731707314 13.160569105691057,35.823170731707314 13.363821138211382,35.77235772357724 13.617886178861788,35.72154471544715 13.770325203252032,35.670731707317074 13.922764227642276,35.61991869918699 14.380081300813007,35.51829268292683 14.634146341463413,35.416666666666664 14.83739837398374,35.36585365853659 15.091463414634147,35.21341463414634 15.396341463414634,35.0609756097561 15.701219512195122,34.90853658536585 16.15853658536585,34.603658536585364 16.463414634146343,34.298780487804876 16.666666666666668,34.197154471544714 16.971544715447155,33.94308943089431 17.276422764227643,33.6890243902439 17.58130081300813,33.4349593495935 17.9369918699187,33.02845528455285 18.089430894308943,32.926829268292686 18.39430894308943,32.57113821138211 18.495934959349594,32.418699186991866 18.648373983739837,32.266260162601625 18.851626016260163,31.910569105691057 19.10569105691057,31.554878048780488 19.20731707317073,31.402439024390244 19.410569105691057,31.097560975609756 19.664634146341463,30.741869918699187 19.766260162601625,30.538617886178862 19.96951219512195,30.132113821138212 20.172764227642276,29.776422764227643 20.3760162601626,29.369918699186993 20.477642276422763,29.01422764227642 20.73170731707317,28.404471544715445 20.78252032520325,28.20121951219512" fill="none" stroke="black" stroke-width="0.6"></polyline><polyline points="20.78252032520325,28.20121951219512 20.833333333333332,27.997967479674795 20.884146341463413,27.79471544715447 20.884146341463413,27.4390243902439 20.934959349593495,27.134146341463413 20.934959349593495,26.778455284552845 20.934959349593495,26.676829268292682 20.884146341463413,26.473577235772357 20.833333333333332,26.422764227642276 20.78252032520325,26.270325203252032 20.73170731707317,26.21951219512195 20.630081300813007,26.117886178861788 20.477642276422763,26.067073170731707 20.426829268292682,26.067073170731707 20.3760162601626,26.067073170731707 20.32520325203252,26.067073170731707 20.274390243902438,26.067073170731707 20.121951219512194,26.067073170731707 20.020325203252032,26.117886178861788 19.817073170731707,26.16869918699187 19.766260162601625,26.21951219512195 19.664634146341463,26.270325203252032 19.5630081300813,26.321138211382113 19.359756097560975,26.524390243902438 19.20731707317073,26.676829268292682 19.054878048780488,26.829268292682926 18.902439024390244,26.98170731707317 18.851626016260163,27.03252032520325 18.75,27.134146341463413 18.648373983739837,27.286585365853657 18.546747967479675,27.489837398373982 18.445121951219512,27.693089430894307 18.39430894308943,27.79471544715447 18.34349593495935,27.896341463414632 18.29268292682927,27.997967479674795 18.191056910569106,28.353658536585364 18.089430894308943,28.55691056910569 17.9369918699187,28.96341463414634 17.835365853658537,29.217479674796746 17.784552845528456,29.31910569105691 17.733739837398375,29.573170731707318 17.682926829268293,29.725609756097562 17.632113821138212,29.878048780487806 17.58130081300813,30.08130081300813 17.53048780487805,30.233739837398375 17.53048780487805,30.284552845528456 17.479674796747968,30.38617886178862 17.428861788617887,30.538617886178862 17.378048780487806,30.741869918699187 17.327235772357724,30.945121951219512 17.276422764227643,31.046747967479675" fill="none" stroke="black" stroke-width="0.6"></polyline><polyline points="17.276422764227643,31.046747967479675 17.225609756097562,31.30081300813008 17.17479674796748,31.402439024390244 17.073170731707318,31.65650406504065 17.022357723577237,31.910569105691057 16.971544715447155,32.266260162601625 16.920731707317074,32.52032520325203 16.920731707317074,32.672764227642276 16.869918699186993,32.77439024390244 16.869918699186993,32.926829268292686 16.869918699186993,33.18089430894309 16.869918699186993,33.53658536585366 16.869918699186993,33.739837398373986 16.869918699186993,33.84146341463415 16.869918699186993,33.94308943089431 16.869918699186993,33.99390243902439 16.971544715447155,34.197154471544714 17.073170731707318,34.40040650406504 17.17479674796748,34.603658536585364 17.327235772357724,34.70528455284553 17.378048780487806,34.80691056910569 17.53048780487805,34.90853658536585 17.58130081300813,35.010162601626014 17.733739837398375,35.11178861788618 17.784552845528456,35.16260162601626 18.038617886178862,35.36585365853659 18.089430894308943,35.36585365853659 18.241869918699187,35.46747967479675 18.34349593495935,35.51829268292683 18.445121951219512,35.56910569105691 18.597560975609756,35.61991869918699 18.75,35.72154471544715 19.004065040650406,35.77235772357724 19.054878048780488,35.823170731707314 19.20731707317073,35.8739837398374 19.308943089430894,35.8739837398374 19.359756097560975,35.92479674796748 19.51219512195122,35.92479674796748 19.715447154471544,35.97560975609756 19.96951219512195,35.97560975609756 20.172764227642276,35.97560975609756 20.223577235772357,35.97560975609756 20.426829268292682,35.97560975609756 20.68089430894309,35.92479674796748 20.78252032520325,35.92479674796748 20.934959349593495,35.8739837398374 21.1890243902439,35.823170731707314 21.49390243902439,35.72154471544715 22.0020325203252,35.51829268292683 22.154471544715445,35.46747967479675 22.35772357723577,35.36585365853659" fill="none" stroke="black" stroke-width="0.6"></polyline><polyline points="22.35772357723577,35.36585365853659 22.560975609756095,35.3150406504065 22.96747967479675,35.11178861788618 23.3739837398374,34.90853658536585 23.83130081300813,34.65447154471545 24.59349593495935,34.2479674796748 24.796747967479675,34.09552845528455 25.05081300813008,33.99390243902439 25.304878048780488,33.84146341463415 25.8130081300813,33.53658536585366 26.270325203252032,33.28252032520325 26.727642276422763,32.97764227642276 27.235772357723576,32.672764227642276 27.896341463414632,32.16463414634146 28.15040650406504,31.961382113821138 28.353658536585364,31.758130081300813 28.912601626016258,31.25 29.115853658536583,31.046747967479675 29.268292682926827,30.89430894308943 29.471544715447155,30.691056910569106 29.573170731707318,30.48780487804878 29.725609756097562,30.335365853658537 30.03048780487805,29.928861788617887 30.132113821138212,29.776422764227643 30.284552845528456,29.522357723577237 30.38617886178862,29.369918699186993 30.48780487804878,29.217479674796746 30.589430894308943,29.01422764227642 30.741869918699187,28.65853658536585 30.89430894308943,28.353658536585364 30.995934959349594,27.997967479674795 31.097560975609756,27.540650406504064 31.148373983739837,27.235772357723576 31.148373983739837,27.083333333333332 31.19918699186992,26.727642276422763 31.19918699186992,26.473577235772357 31.19918699186992,26.21951219512195 31.19918699186992,25.965447154471544 31.097560975609756,25.660569105691057 31.097560975609756,25.558943089430894 31.046747967479675,25.45731707317073 30.995934959349594,25.35569105691057 30.945121951219512,25.203252032520325 30.84349593495935,25.05081300813008 30.741869918699187,24.94918699186992 30.640243902439025,24.898373983739837 30.538617886178862,24.796747967479675 30.4369918699187,24.796747967479675 30.38617886178862,24.796747967479675 30.284552845528456,24.745934959349594 30.08130081300813,24.745934959349594" fill="none" stroke="black" stroke-width="0.6"></polyline><polyline points="30.08130081300813,24.745934959349594 30.03048780487805,24.745934959349594 29.928861788617887,24.745934959349594 29.878048780487806,24.745934959349594 29.776422764227643,24.847560975609756 29.573170731707318,24.94918699186992 29.471544715447155,25.05081300813008 29.31910569105691,25.203252032520325 29.217479674796746,25.254065040650406 29.115853658536583,25.35569105691057 29.01422764227642,25.45731707317073 28.96341463414634,25.508130081300813 28.810975609756095,25.711382113821138 28.60772357723577,25.914634146341463 28.353658536585364,26.16869918699187 28.302845528455283,26.270325203252032 28.20121951219512,26.371951219512194 28.15040650406504,26.473577235772357 28.048780487804876,26.57520325203252 27.997967479674795,26.6260162601626 27.947154471544714,26.727642276422763 27.896341463414632,26.829268292682926 27.74390243902439,27.03252032520325 27.591463414634145,27.286585365853657 27.540650406504064,27.38821138211382 27.4390243902439,27.591463414634145 27.33739837398374,27.84552845528455 27.235772357723576,28.048780487804876 27.184959349593495,28.15040650406504 27.083333333333332,28.404471544715445 27.03252032520325,28.506097560975608 26.98170731707317,28.60772357723577 26.880081300813007,28.861788617886177 26.829268292682926,28.96341463414634 26.727642276422763,29.217479674796746 26.6260162601626,29.573170731707318 26.57520325203252,29.67479674796748 26.524390243902438,29.928861788617887 26.473577235772357,30.08130081300813 26.473577235772357,30.182926829268293 26.422764227642276,30.48780487804878 26.371951219512194,30.741869918699187 26.321138211382113,31.19918699186992 26.321138211382113,31.351626016260163 26.270325203252032,31.60569105691057 26.270325203252032,31.910569105691057 26.270325203252032,32.266260162601625 26.270325203252032,32.57113821138211 26.321138211382113,33.02845528455285 26.371951219512194,33.18089430894309 26.422764227642276,33.28252032520325" fill="none" stroke="black" stroke-width="0.6"></polyline><polyline points="26.422764227642276,33.28252032520325 26.473577235772357,33.4349593495935 26.57520325203252,33.6890243902439 26.676829268292682,33.99390243902439 26.880081300813007,34.40040650406504 26.98170731707317,34.5020325203252 27.03252032520325,34.65447154471545 27.134146341463413,34.75609756097561 27.33739837398374,34.959349593495936 27.489837398373982,35.16260162601626 27.84552845528455,35.416666666666664 27.947154471544714,35.46747967479675 28.2520325203252,35.61991869918699 28.506097560975608,35.72154471544715 28.760162601626014,35.77235772357724 29.217479674796746,35.8739837398374 29.522357723577237,35.8739837398374 29.67479674796748,35.92479674796748 29.878048780487806,35.92479674796748 30.08130081300813,35.92479674796748 30.38617886178862,35.92479674796748 30.79268292682927,35.92479674796748 31.30081300813008,35.823170731707314 31.758130081300813,35.670731707317074 32.012195121951216,35.61991869918699 32.266260162601625,35.51829268292683 32.8760162601626,35.3150406504065 33.485772357723576,35.0609756097561 34.451219512195124,34.5020325203252 35.21341463414634,34.04471544715447 35.8739837398374,33.53658536585366 36.229674796747965,33.23170731707317 36.9410569105691,32.57113821138211 37.449186991869915,31.961382113821138 37.90650406504065,31.351626016260163 38.262195121951216,30.79268292682927 38.41463414634146,30.4369918699187 38.516260162601625,30.233739837398375 38.5670731707317,30.08130081300813 38.5670731707317,29.979674796747968" fill="none" stroke="black" stroke-width="0.6"></polyline><polyline points="3.9634146341463414,56.30081300813008 3.9634146341463414,56.30081300813008 3.9634146341463414,56.30081300813008 3.9634146341463414,56.25 3.9634146341463414,56.199186991869915 3.9634146341463414,56.199186991869915 3.9634146341463414,56.14837398373984 3.9634146341463414,56.14837398373984 3.9634146341463414,56.09756097560975 3.9634146341463414,56.09756097560975 3.9634146341463414,56.09756097560975 3.9634146341463414,56.046747967479675 3.9634146341463414,56.046747967479675 3.9634146341463414,56.046747967479675 3.9634146341463414,56.046747967479675 3.9634146341463414,56.046747967479675 4.014227642276422,55.99593495934959 4.014227642276422,55.99593495934959 4.014227642276422,55.99593495934959 4.0650406504065035,55.99593495934959 4.0650406504065035,55.99593495934959 4.0650406504065035,55.99593495934959 4.0650406504065035,55.99593495934959 4.0650406504065035,55.99593495934959 4.115853658536586,55.99593495934959 4.115853658536586,55.99593495934959 4.115853658536586,55.99593495934959 4.166666666666667,55.99593495934959 4.166666666666667,55.94512195121951 4.217479674796748,55.94512195121951 4.217479674796748,55.94512195121951 4.2682926829268295,55.94512195121951 4.319105691056911,55.94512195121951 4.369918699186992,55.94512195121951 4.471544715447155,55.94512195121951 4.522357723577236,55.89430894308943 4.623983739837398,55.89430894308943 4.776422764227642,55.84349593495935 4.928861788617886,55.792682926829265 5.132113821138211,55.6910569105691 5.3861788617886175,55.53861788617886 5.691056910569106,55.386178861788615 6.046747967479675,55.13211382113821 6.3516260162601625,54.92886178861789 6.7073170731707314,54.67479674796748 7.0630081300813,54.420731707317074 7.367886178861789,54.166666666666664 7.6727642276422765,53.86178861788618 8.028455284552845,53.50609756097561 8.333333333333334,53.201219512195124 8.689024390243903,52.896341463414636" fill="none" stroke="black" stroke-width="0.6"></polyline><polyline points="8.689024390243903,52.896341463414636 9.095528455284553,52.489837398373986 9.451219512195122,52.083333333333336 9.80691056910569,51.67682926829268 10.213414634146341,51.168699186991866 10.56910569105691,50.71138211382114 10.924796747967479,50.2540650406504 11.280487804878048,49.74593495934959 11.636178861788618,49.28861788617886 11.991869918699187,48.78048780487805 12.296747967479675,48.323170731707314 12.550813008130081,47.916666666666664 12.855691056910569,47.40853658536585 13.109756097560975,46.90040650406504 13.363821138211382,46.392276422764226 13.66869918699187,45.9349593495935 13.871951219512194,45.3760162601626 14.07520325203252,44.86788617886179 14.278455284552845,44.359756097560975 14.48170731707317,43.90243902439024 14.583333333333332,43.49593495934959 14.684959349593496,43.08943089430894 14.786585365853659,42.68292682926829 14.83739837398374,42.327235772357724 14.83739837398374,42.073170731707314 14.83739837398374,41.76829268292683 14.83739837398374,41.5650406504065 14.786585365853659,41.36178861788618 14.684959349593496,41.15853658536585 14.634146341463413,41.00609756097561 14.53252032520325,40.90447154471545 14.430894308943088,40.802845528455286 14.380081300813007,40.7520325203252 14.278455284552845,40.701219512195124 14.227642276422763,40.701219512195124 14.176829268292682,40.701219512195124 14.1260162601626,40.701219512195124 14.024390243902438,40.7520325203252 13.973577235772357,40.802845528455286 13.871951219512194,40.95528455284553 13.770325203252032,41.05691056910569 13.66869918699187,41.209349593495936 13.567073170731707,41.36178861788618 13.465447154471544,41.514227642276424 13.363821138211382,41.666666666666664 13.262195121951219,41.86991869918699 13.160569105691057,42.02235772357724 13.058943089430894,42.17479674796748 12.957317073170731,42.327235772357724 12.90650406504065,42.479674796747965 12.804878048780488,42.63211382113821" fill="none" stroke="black" stroke-width="0.6"></polyline><polyline points="12.804878048780488,42.63211382113821 12.703252032520325,42.78455284552845 12.652439024390244,42.9369918699187 12.601626016260163,43.140243902439025 12.550813008130081,43.292682926829265 12.5,43.39430894308943 12.5,43.546747967479675 12.449186991869919,43.699186991869915 12.398373983739837,43.85162601626016 12.347560975609756,44.0040650406504 12.296747967479675,44.15650406504065 12.245934959349594,44.30894308943089 12.144308943089431,44.512195121951216 12.09349593495935,44.71544715447154 11.991869918699187,44.86788617886179 11.890243902439025,45.12195121951219 11.839430894308943,45.3760162601626 11.737804878048781,45.63008130081301 11.6869918699187,45.88414634146341 11.585365853658537,46.13821138211382 11.534552845528456,46.392276422764226 11.483739837398375,46.59552845528455 11.432926829268293,46.84959349593496 11.382113821138212,47.103658536585364 11.331300813008129,47.40853658536585 11.280487804878048,47.71341463414634 11.229674796747966,48.01829268292683 11.178861788617885,48.323170731707314 11.077235772357723,48.67886178861789 11.026422764227641,48.983739837398375 10.97560975609756,49.28861788617886 10.924796747967479,49.59349593495935 10.873983739837398,49.89837398373984 10.823170731707316,50.203252032520325 10.823170731707316,50.50813008130081 10.772357723577235,50.8130081300813 10.772357723577235,51.0670731707317 10.721544715447154,51.32113821138211 10.721544715447154,51.575203252032516 10.721544715447154,51.880081300813 10.721544715447154,52.13414634146341 10.721544715447154,52.38821138211382 10.721544715447154,52.59146341463415 10.772357723577235,52.79471544715447 10.823170731707316,52.9979674796748 10.873983739837398,53.15040650406504 10.924796747967479,53.353658536585364 10.97560975609756,53.50609756097561 11.026422764227641,53.709349593495936 11.128048780487804,53.86178861788618 11.229674796747966,54.0650406504065" fill="none" stroke="black" stroke-width="0.6"></polyline><polyline points="11.229674796747966,54.0650406504065 11.331300813008129,54.21747967479675 11.432926829268293,54.36991869918699 11.534552845528456,54.573170731707314 11.636178861788618,54.72560975609756 11.737804878048781,54.8780487804878 11.890243902439025,55.03048780487805 11.991869918699187,55.18292682926829 12.144308943089431,55.28455284552845 12.245934959349594,55.4369918699187 12.398373983739837,55.53861788617886 12.550813008130081,55.640243902439025 12.703252032520325,55.6910569105691 12.90650406504065,55.74186991869919 13.109756097560975,55.792682926829265 13.363821138211382,55.792682926829265 13.617886178861788,55.792682926829265 13.871951219512194,55.792682926829265 14.1260162601626,55.74186991869919 14.48170731707317,55.640243902439025 14.83739837398374,55.48780487804878 15.19308943089431,55.33536585365854 15.59959349593496,55.13211382113821 15.955284552845528,54.979674796747965 16.36178861788618,54.72560975609756 16.81910569105691,54.47154471544715 17.225609756097562,54.166666666666664 17.682926829268293,53.86178861788618 18.140243902439025,53.50609756097561 18.495934959349594,53.15040650406504 18.80081300813008,52.84552845528455 19.15650406504065,52.489837398373986 19.461382113821138,52.13414634146341 19.817073170731707,51.72764227642276 20.121951219512194,51.27032520325203 20.3760162601626,50.86382113821138 20.630081300813007,50.45731707317073 20.884146341463413,50.05081300813008 21.036585365853657,49.74593495934959 21.239837398373982,49.33943089430894 21.341463414634145,48.93292682926829 21.49390243902439,48.52642276422764 21.646341463414632,48.11991869918699 21.798780487804876,47.66260162601626 21.95121951219512,47.20528455284553 22.052845528455283,46.7479674796748 22.205284552845526,46.34146341463415 22.35772357723577,45.9349593495935 22.459349593495933,45.52845528455285 22.510162601626014,45.12195121951219 22.560975609756095,44.71544715447154" fill="none" stroke="black" stroke-width="0.6"></polyline><polyline points="22.560975609756095,44.71544715447154 22.611788617886177,44.30894308943089 22.662601626016258,43.953252032520325 22.662601626016258,43.59756097560975 22.662601626016258,43.292682926829265 22.611788617886177,42.9369918699187 22.560975609756095,42.63211382113821 22.459349593495933,42.3780487804878 22.40853658536585,42.1239837398374 22.30691056910569,41.97154471544715 22.205284552845526,41.81910569105691 22.052845528455283,41.666666666666664 21.90040650406504,41.61585365853659 21.798780487804876,41.5650406504065 21.646341463414632,41.514227642276424 21.54471544715447,41.514227642276424 21.443089430894307,41.5650406504065 21.341463414634145,41.666666666666664 21.239837398373982,41.76829268292683 21.13821138211382,41.920731707317074 21.08739837398374,42.073170731707314 20.985772357723576,42.22560975609756 20.884146341463413,42.3780487804878 20.833333333333332,42.58130081300813 20.73170731707317,42.78455284552845 20.68089430894309,42.98780487804878 20.630081300813007,43.1910569105691 20.579268292682926,43.39430894308943 20.528455284552845,43.59756097560975 20.477642276422763,43.80081300813008 20.477642276422763,44.0040650406504 20.426829268292682,44.25813008130081 20.3760162601626,44.46138211382114 20.3760162601626,44.66463414634146 20.32520325203252,44.86788617886179 20.274390243902438,45.07113821138211 20.223577235772357,45.325203252032516 20.172764227642276,45.52845528455285 20.121951219512194,45.73170731707317 20.071138211382113,45.985772357723576 20.020325203252032,46.1890243902439 19.96951219512195,46.44308943089431 19.91869918699187,46.646341463414636 19.867886178861788,46.90040650406504 19.817073170731707,47.15447154471545 19.766260162601625,47.40853658536585 19.715447154471544,47.71341463414634 19.715447154471544,48.01829268292683 19.664634146341463,48.323170731707314 19.664634146341463,48.67886178861789 19.664634146341463,48.983739837398375" fill="none" stroke="black" stroke-width="0.6"></polyline><polyline points="19.664634146341463,48.983739837398375 19.61382113821138,49.28861788617886 19.61382113821138,49.69512195121951 19.61382113821138,50 19.61382113821138,50.30487804878049 19.61382113821138,50.71138211382114 19.664634146341463,51.016260162601625 19.664634146341463,51.32113821138211 19.715447154471544,51.67682926829268 19.766260162601625,51.981707317073166 19.766260162601625,52.33739837398374 19.817073170731707,52.642276422764226 19.91869918699187,52.896341463414636 19.96951219512195,53.09959349593496 20.071138211382113,53.353658536585364 20.121951219512194,53.607723577235774 20.223577235772357,53.8109756097561 20.32520325203252,54.0650406504065 20.426829268292682,54.31910569105691 20.528455284552845,54.52235772357724 20.630081300813007,54.77642276422764 20.73170731707317,54.92886178861789 20.884146341463413,55.13211382113821 21.036585365853657,55.28455284552845 21.13821138211382,55.4369918699187 21.290650406504064,55.58943089430894 21.49390243902439,55.74186991869919 21.697154471544714,55.84349593495935 21.90040650406504,55.89430894308943 22.154471544715445,55.94512195121951 22.40853658536585,55.99593495934959 22.71341463414634,55.99593495934959 23.01829268292683,55.99593495934959 23.272357723577237,55.89430894308943 23.577235772357724,55.792682926829265 23.882113821138212,55.640243902439025 24.13617886178862,55.48780487804878 24.441056910569106,55.28455284552845 24.796747967479675,55.08130081300813 25.101626016260163,54.827235772357724 25.45731707317073,54.47154471544715 25.86382113821138,54.11585365853659 26.321138211382113,53.65853658536585 26.727642276422763,53.2520325203252 27.083333333333332,52.84552845528455 27.4390243902439,52.489837398373986 27.84552845528455,52.03252032520325 28.15040650406504,51.6260162601626 28.455284552845526,51.21951219512195 28.810975609756095,50.71138211382114 29.115853658536583,50.30487804878049" fill="none" stroke="black" stroke-width="0.6"></polyline><polyline points="29.115853658536583,50.30487804878049 29.369918699186993,49.89837398373984 29.67479674796748,49.390243902439025 29.928861788617887,48.93292682926829 30.132113821138212,48.47560975609756 30.38617886178862,48.01829268292683 30.589430894308943,47.5609756097561 30.741869918699187,47.103658536585364 30.945121951219512,46.59552845528455 31.097560975609756,46.1890243902439 31.25,45.73170731707317 31.453252032520325,45.27439024390244 31.554878048780488,44.86788617886179 31.70731707317073,44.41056910569105 31.808943089430894,43.953252032520325 31.910569105691057,43.59756097560975 32.012195121951216,43.1910569105691 32.0630081300813,42.733739837398375 32.11382113821138,42.3780487804878 32.11382113821138,42.073170731707314 32.11382113821138,41.71747967479675 32.11382113821138,41.46341463414634 32.0630081300813,41.209349593495936 32.012195121951216,40.95528455284553 31.910569105691057,40.802845528455286 31.808943089430894,40.701219512195124 31.70731707317073,40.59959349593496 31.60569105691057,40.548780487804876 31.504065040650406,40.548780487804876 31.351626016260163,40.548780487804876 31.25,40.548780487804876 31.148373983739837,40.65040650406504 31.046747967479675,40.802845528455286 30.945121951219512,41.00609756097561 30.84349593495935,41.209349593495936 30.741869918699187,41.41260162601626 30.640243902439025,41.61585365853659 30.538617886178862,41.81910569105691 30.38617886178862,42.02235772357724 30.284552845528456,42.22560975609756 30.182926829268293,42.42886178861789 30.08130081300813,42.63211382113821 30.03048780487805,42.83536585365854 29.928861788617887,42.98780487804878 29.827235772357724,43.24186991869919 29.776422764227643,43.39430894308943 29.725609756097562,43.59756097560975 29.6239837398374,43.80081300813008 29.573170731707318,43.953252032520325 29.522357723577237,44.15650406504065 29.420731707317074,44.359756097560975" fill="none" stroke="black" stroke-width="0.6"></polyline><polyline points="29.420731707317074,44.359756097560975 29.369918699186993,44.512195121951216 29.268292682926827,44.71544715447154 29.217479674796746,44.96951219512195 29.115853658536583,45.22357723577235 29.01422764227642,45.52845528455285 28.96341463414634,45.833333333333336 28.861788617886177,46.13821138211382 28.810975609756095,46.44308943089431 28.709349593495933,46.798780487804876 28.65853658536585,47.15447154471545 28.60772357723577,47.61178861788618 28.55691056910569,48.01829268292683 28.55691056910569,48.42479674796748 28.506097560975608,48.88211382113821 28.506097560975608,49.33943089430894 28.506097560975608,49.796747967479675 28.506097560975608,50.30487804878049 28.55691056910569,50.762195121951216 28.60772357723577,51.21951219512195 28.709349593495933,51.67682926829268 28.760162601626014,52.13414634146341 28.912601626016258,52.642276422764226 29.01422764227642,53.15040650406504 29.166666666666664,53.55691056910569 29.31910569105691,53.96341463414634 29.522357723577237,54.36991869918699 29.725609756097562,54.67479674796748 29.979674796747968,55.03048780487805 30.284552845528456,55.28455284552845 30.538617886178862,55.53861788617886 30.84349593495935,55.6910569105691 31.25,55.84349593495935 31.65650406504065,55.89430894308943 32.16463414634146,55.89430894308943 32.77439024390244,55.84349593495935 33.333333333333336,55.6910569105691 33.99390243902439,55.48780487804878 34.75609756097561,55.18292682926829 35.416666666666664,54.8780487804878 36.17886178861789,54.47154471544715 37.042682926829265,53.91260162601626 37.7540650406504,53.353658536585364 38.41463414634146,52.79471544715447 39.02439024390244,52.1849593495935 39.48170731707317,51.67682926829268 39.78658536585366,51.27032520325203 40.040650406504064,50.91463414634146 40.142276422764226,50.71138211382114 40.19308943089431,50.609756097560975" fill="none" stroke="black" stroke-width="0.6"></polyline><polyline points="4.522357723577236,75.60975609756098 4.522357723577236,75.60975609756098 4.522357723577236,75.60975609756098 4.522357723577236,75.60975609756098 4.471544715447155,75.60975609756098 4.471544715447155,75.60975609756098 4.471544715447155,75.60975609756098 4.471544715447155,75.60975609756098 4.471544715447155,75.60975609756098 4.471544715447155,75.60975609756098 4.522357723577236,75.5589430894309 4.623983739837398,75.5589430894309 4.725609756097561,75.5081300813008 4.878048780487805,75.45731707317073 5.030487804878049,75.40650406504065 5.233739837398374,75.30487804878048 5.48780487804878,75.20325203252033 5.741869918699187,75.05081300813008 6.046747967479675,74.89837398373983 6.402439024390244,74.64430894308943 6.758130081300813,74.39024390243902 7.164634146341463,74.08536585365853 7.571138211382114,73.72967479674797 7.977642276422764,73.42479674796748 8.333333333333334,73.0691056910569 8.689024390243903,72.71341463414635 9.044715447154472,72.35772357723577 9.40040650406504,71.95121951219512 9.80691056910569,71.54471544715447 10.16260162601626,71.13821138211382 10.518292682926829,70.68089430894308 10.873983739837398,70.22357723577235 11.178861788617885,69.86788617886178 11.483739837398375,69.46138211382113 11.737804878048781,69.05487804878048 12.042682926829269,68.64837398373983 12.245934959349594,68.24186991869918 12.5,67.83536585365853 12.703252032520325,67.42886178861788 12.855691056910569,67.07317073170732 13.008130081300813,66.66666666666667 13.160569105691057,66.26016260162602 13.262195121951219,65.90447154471545 13.3130081300813,65.65040650406505 13.363821138211382,65.39634146341463 13.363821138211382,65.1930894308943 13.363821138211382,64.98983739837398 13.363821138211382,64.83739837398373 13.3130081300813,64.6849593495935 13.262195121951219,64.53252032520325 13.211382113821138,64.48170731707317" fill="none" stroke="black" stroke-width="0.6"></polyline><polyline points="13.211382113821138,64.48170731707317 13.160569105691057,64.43089430894308 13.058943089430894,64.380081300813 13.008130081300813,64.32926829268293 12.90650406504065,64.32926829268293 12.855691056910569,64.32926829268293 12.754065040650406,64.32926829268293 12.703252032520325,64.32926829268293 12.601626016260163,64.32926829268293 12.5,64.32926829268293 12.449186991869919,64.380081300813 12.347560975609756,64.43089430894308 12.245934959349594,64.53252032520325 12.144308943089431,64.6849593495935 11.991869918699187,64.83739837398373 11.839430894308943,65.04065040650406 11.737804878048781,65.2439024390244 11.585365853658537,65.4979674796748 11.483739837398375,65.65040650406505 11.331300813008129,65.90447154471545 11.229674796747966,66.10772357723577 11.128048780487804,66.36178861788618 11.026422764227641,66.61585365853658 10.924796747967479,66.869918699187 10.823170731707316,67.1239837398374 10.721544715447154,67.42886178861788 10.619918699186991,67.6321138211382 10.518292682926829,67.9369918699187 10.416666666666666,68.1910569105691 10.315040650406504,68.4451219512195 10.213414634146341,68.69918699186992 10.060975609756097,69.0040650406504 9.959349593495935,69.2581300813008 9.857723577235772,69.51219512195122 9.75609756097561,69.8170731707317 9.654471544715447,70.0711382113821 9.603658536585366,70.32520325203252 9.502032520325203,70.57926829268293 9.502032520325203,70.73170731707317 9.451219512195122,70.9349593495935 9.40040650406504,71.13821138211382 9.34959349593496,71.34146341463415 9.34959349593496,71.54471544715447 9.298780487804878,71.79878048780488 9.298780487804878,72.0020325203252 9.298780487804878,72.20528455284553 9.298780487804878,72.40853658536585 9.298780487804878,72.61178861788618 9.298780487804878,72.8150406504065 9.298780487804878,73.01829268292683 9.298780487804878,73.22154471544715" fill="none" stroke="black" stroke-width="0.6"></polyline><polyline points="9.298780487804878,73.22154471544715 9.34959349593496,73.42479674796748 9.40040650406504,73.6280487804878 9.451219512195122,73.83130081300813 9.502032520325203,74.08536585365853 9.552845528455284,74.28861788617886 9.654471544715447,74.4410569105691 9.75609756097561,74.59349593495935 9.857723577235772,74.7459349593496 9.959349593495935,74.89837398373983 10.111788617886178,75 10.264227642276422,75.15243902439025 10.416666666666666,75.2540650406504 10.619918699186991,75.35569105691057 10.823170731707316,75.45731707317073 11.026422764227641,75.5589430894309 11.178861788617885,75.60975609756098 11.432926829268293,75.66056910569105 11.636178861788618,75.71138211382113 11.890243902439025,75.71138211382113 12.144308943089431,75.71138211382113 12.398373983739837,75.71138211382113 12.703252032520325,75.60975609756098 13.008130081300813,75.5081300813008 13.262195121951219,75.35569105691057 13.567073170731707,75.20325203252033 13.871951219512194,75.05081300813008 14.1260162601626,74.79674796747967 14.430894308943088,74.59349593495935 14.684959349593496,74.28861788617886 14.989837398373984,73.98373983739837 15.24390243902439,73.6280487804878 15.497967479674797,73.22154471544715 15.802845528455284,72.86585365853658 16.10772357723577,72.45934959349593 16.36178861788618,72.05284552845528 16.666666666666668,71.69715447154472 16.920731707317074,71.29065040650406 17.17479674796748,70.83333333333333 17.428861788617887,70.3760162601626 17.733739837398375,69.86788617886178 17.98780487804878,69.41056910569105 18.191056910569106,68.95325203252033 18.445121951219512,68.4959349593496 18.597560975609756,68.08943089430895 18.80081300813008,67.73373983739837 18.953252032520325,67.32723577235772 19.10569105691057,66.92073170731707 19.20731707317073,66.51422764227642 19.359756097560975,66.10772357723577 19.461382113821138,65.80284552845528" fill="none" stroke="black" stroke-width="0.6"></polyline><polyline points="19.461382113821138,65.80284552845528 19.51219512195122,65.54878048780488 19.51219512195122,65.34552845528455 19.5630081300813,65.14227642276423 19.5630081300813,65.04065040650406 19.51219512195122,64.9390243902439 19.461382113821138,64.83739837398373 19.410569105691057,64.78658536585365 19.359756097560975,64.78658536585365 19.308943089430894,64.73577235772358 19.258130081300813,64.73577235772358 19.20731707317073,64.73577235772358 19.10569105691057,64.73577235772358 19.054878048780488,64.78658536585365 18.902439024390244,64.83739837398373 18.80081300813008,64.88821138211382 18.69918699186992,64.98983739837398 18.546747967479675,65.09146341463415 18.39430894308943,65.2439024390244 18.241869918699187,65.34552845528455 18.089430894308943,65.4979674796748 17.9369918699187,65.59959349593495 17.784552845528456,65.7520325203252 17.632113821138212,65.90447154471545 17.53048780487805,66.0569105691057 17.428861788617887,66.15853658536585 17.276422764227643,66.36178861788618 17.225609756097562,66.51422764227642 17.1239837398374,66.66666666666667 17.022357723577237,66.869918699187 16.920731707317074,67.02235772357723 16.81910569105691,67.22560975609755 16.71747967479675,67.47967479674797 16.615853658536587,67.6321138211382 16.565040650406505,67.83536585365853 16.41260162601626,68.08943089430895 16.36178861788618,68.24186991869918 16.260162601626014,68.4451219512195 16.10772357723577,68.69918699186992 16.006097560975608,68.90243902439025 15.955284552845528,69.10569105691057 15.853658536585366,69.35975609756098 15.752032520325203,69.5630081300813 15.701219512195122,69.76626016260163 15.65040650406504,69.96951219512195 15.59959349593496,70.17276422764228 15.548780487804878,70.32520325203252 15.548780487804878,70.52845528455285 15.497967479674797,70.73170731707317 15.447154471544716,70.9349593495935 15.447154471544716,71.13821138211382" fill="none" stroke="black" stroke-width="0.6"></polyline><polyline points="15.447154471544716,71.13821138211382 15.396341463414634,71.34146341463415 15.345528455284553,71.59552845528455 15.345528455284553,71.84959349593495 15.345528455284553,72.05284552845528 15.345528455284553,72.2560975609756 15.345528455284553,72.45934959349593 15.345528455284553,72.66260162601625 15.345528455284553,72.86585365853658 15.345528455284553,73.0691056910569 15.396341463414634,73.27235772357723 15.447154471544716,73.47560975609755 15.548780487804878,73.67886178861788 15.59959349593496,73.8821138211382 15.65040650406504,74.13617886178862 15.752032520325203,74.33943089430895 15.853658536585366,74.49186991869918 15.955284552845528,74.6951219512195 16.10772357723577,74.84756097560975 16.209349593495933,75 16.3109756097561,75.10162601626016 16.41260162601626,75.20325203252033 16.565040650406505,75.2540650406504 16.666666666666668,75.30487804878048 16.81910569105691,75.35569105691057 16.920731707317074,75.35569105691057 17.1239837398374,75.40650406504065 17.276422764227643,75.40650406504065 17.479674796747968,75.40650406504065 17.733739837398375,75.40650406504065 17.9369918699187,75.40650406504065 18.191056910569106,75.35569105691057 18.445121951219512,75.30487804878048 18.69918699186992,75.2540650406504 18.902439024390244,75.20325203252033 19.15650406504065,75.10162601626016 19.359756097560975,75 19.5630081300813,74.89837398373983 19.766260162601625,74.79674796747967 19.96951219512195,74.6951219512195 20.172764227642276,74.59349593495935 20.426829268292682,74.39024390243902 20.630081300813007,74.23780487804878 20.884146341463413,73.98373983739837 21.1890243902439,73.67886178861788 21.49390243902439,73.32317073170732 21.798780487804876,72.91666666666667 22.154471544715445,72.51016260162602 22.459349593495933,72.15447154471545 22.764227642276424,71.7479674796748 23.06910569105691,71.34146341463415" fill="none" stroke="black" stroke-width="0.6"></polyline><polyline points="23.06910569105691,71.34146341463415 23.323170731707318,70.98577235772358 23.577235772357724,70.630081300813 23.83130081300813,70.22357723577235 24.034552845528456,69.86788617886178 24.23780487804878,69.46138211382113 24.390243902439025,69.05487804878048 24.59349593495935,68.64837398373983 24.745934959349594,68.1910569105691 24.898373983739837,67.78455284552845 25,67.42886178861788 25.101626016260163,67.02235772357723 25.203252032520325,66.66666666666667 25.254065040650406,66.36178861788618 25.304878048780488,66.10772357723577 25.304878048780488,65.80284552845528 25.35569105691057,65.54878048780488 25.35569105691057,65.2439024390244 25.35569105691057,64.9390243902439 25.35569105691057,64.6341463414634 25.35569105691057,64.380081300813 25.35569105691057,64.22764227642276 25.35569105691057,64.07520325203252 25.304878048780488,63.97357723577235 25.254065040650406,63.87195121951219 25.152439024390244,63.77032520325203 25.101626016260163,63.71951219512195 25.05081300813008,63.668699186991866 24.94918699186992,63.668699186991866 24.898373983739837,63.668699186991866 24.847560975609756,63.668699186991866 24.745934959349594,63.668699186991866 24.695121951219512,63.71951219512195 24.54268292682927,63.82113821138211 24.441056910569106,63.922764227642276 24.23780487804878,64.07520325203252 24.034552845528456,64.27845528455285 23.882113821138212,64.48170731707317 23.628048780487806,64.73577235772358 23.475609756097562,64.98983739837398 23.272357723577237,65.2439024390244 23.119918699186993,65.4979674796748 22.96747967479675,65.70121951219512 22.865853658536587,65.90447154471545 22.71341463414634,66.15853658536585 22.662601626016258,66.3109756097561 22.560975609756095,66.46341463414635 22.459349593495933,66.66666666666667 22.40853658536585,66.869918699187 22.30691056910569,67.07317073170732 22.205284552845526,67.32723577235772" fill="none" stroke="black" stroke-width="0.6"></polyline><polyline points="22.205284552845526,67.32723577235772 22.103658536585364,67.53048780487805 22.0020325203252,67.78455284552845 21.90040650406504,68.03861788617886 21.798780487804876,68.24186991869918 21.747967479674795,68.4451219512195 21.646341463414632,68.69918699186992 21.54471544715447,68.90243902439025 21.49390243902439,69.15650406504065 21.392276422764226,69.41056910569105 21.341463414634145,69.61382113821138 21.239837398373982,69.8170731707317 21.1890243902439,70.0711382113821 21.13821138211382,70.27439024390243 21.08739837398374,70.47764227642276 21.036585365853657,70.68089430894308 21.036585365853657,70.83333333333333 20.985772357723576,71.03658536585365 20.985772357723576,71.23983739837398 20.934959349593495,71.4430894308943 20.934959349593495,71.64634146341463 20.934959349593495,71.84959349593495 20.934959349593495,72.05284552845528 20.934959349593495,72.2560975609756 20.934959349593495,72.45934959349593 20.934959349593495,72.61178861788618 20.934959349593495,72.8150406504065 20.934959349593495,72.96747967479675 20.934959349593495,73.119918699187 20.985772357723576,73.32317073170732 20.985772357723576,73.52642276422765 21.08739837398374,73.72967479674797 21.13821138211382,73.8821138211382 21.1890243902439,74.08536585365853 21.290650406504064,74.28861788617886 21.392276422764226,74.4410569105691 21.54471544715447,74.64430894308943 21.646341463414632,74.79674796747967 21.798780487804876,74.94918699186992 21.95121951219512,75.10162601626016 22.103658536585364,75.20325203252033 22.256097560975608,75.30487804878048 22.459349593495933,75.40650406504065 22.611788617886177,75.45731707317073 22.815040650406505,75.5081300813008 23.01829268292683,75.5589430894309 23.221544715447155,75.5589430894309 23.526422764227643,75.60975609756098 23.78048780487805,75.60975609756098 24.034552845528456,75.5589430894309 24.390243902439025,75.40650406504065" fill="none" stroke="black" stroke-width="0.6"></polyline><polyline points="24.390243902439025,75.40650406504065 24.745934959349594,75.2540650406504 25.152439024390244,75 25.711382113821138,74.64430894308943 26.21951219512195,74.23780487804878 26.778455284552845,73.72967479674797 27.4390243902439,73.0691056910569 27.997967479674795,72.35772357723577 28.60772357723577,71.64634146341463 29.166666666666664,70.78252032520325 29.522357723577237,70.0711382113821 29.878048780487806,69.35975609756098 30.132113821138212,68.64837398373983 30.284552845528456,68.08943089430895" fill="none" stroke="black" stroke-width="0.6"></polyline><polyline points="4.979674796747967,95.57926829268293 4.979674796747967,95.57926829268293 4.979674796747967,95.57926829268293 4.979674796747967,95.57926829268293 4.979674796747967,95.57926829268293 4.979674796747967,95.57926829268293 4.928861788617886,95.57926829268293 4.928861788617886,95.57926829268293 4.928861788617886,95.57926829268293 4.928861788617886,95.57926829268293 4.928861788617886,95.57926829268293 4.928861788617886,95.52845528455285 4.928861788617886,95.52845528455285 4.928861788617886,95.52845528455285 4.979674796747967,95.52845528455285 5.132113821138211,95.47764227642276 5.284552845528455,95.42682926829268 5.48780487804878,95.32520325203252 5.84349593495935,95.22357723577235 6.199186991869919,95.0711382113821 6.605691056910569,94.91869918699187 7.012195121951219,94.76626016260163 7.41869918699187,94.5630081300813 7.774390243902439,94.35975609756098 8.18089430894309,94.15650406504065 8.58739837398374,93.90243902439025 8.892276422764228,93.69918699186992 9.197154471544716,93.4451219512195 9.552845528455284,93.14024390243902 9.857723577235772,92.88617886178862 10.16260162601626,92.58130081300813 10.518292682926829,92.22560975609755 10.823170731707316,91.869918699187 11.178861788617885,91.51422764227642 11.534552845528456,91.0569105691057 11.839430894308943,90.59959349593495 12.195121951219512,90.14227642276423 12.550813008130081,89.6341463414634 12.855691056910569,89.17682926829268 13.160569105691057,88.66869918699187 13.465447154471544,88.10975609756098 13.71951219512195,87.65243902439025 13.922764227642276,87.1951219512195 14.1260162601626,86.6869918699187 14.278455284552845,86.22967479674797 14.430894308943088,85.72154471544715 14.53252032520325,85.26422764227642 14.583333333333332,84.85772357723577 14.684959349593496,84.45121951219512 14.684959349593496,84.04471544715447 14.684959349593496,83.6890243902439" fill="none" stroke="black" stroke-width="0.6"></polyline><polyline points="14.684959349593496,83.6890243902439 14.684959349593496,83.3841463414634 14.583333333333332,83.07926829268293 14.53252032520325,82.82520325203252 14.430894308943088,82.6219512195122 14.329268292682926,82.41869918699187 14.227642276422763,82.26626016260163 14.07520325203252,82.16463414634146 13.922764227642276,82.01219512195122 13.770325203252032,81.96138211382113 13.66869918699187,81.91056910569105 13.465447154471544,81.91056910569105 13.262195121951219,81.91056910569105 13.058943089430894,81.96138211382113 12.804878048780488,82.0630081300813 12.601626016260163,82.21544715447155 12.398373983739837,82.36788617886178 12.195121951219512,82.5711382113821 12.042682926829269,82.82520325203252 11.839430894308943,83.130081300813 11.6869918699187,83.4349593495935 11.534552845528456,83.79065040650406 11.382113821138212,84.1971544715447 11.331300813008129,84.60365853658537 11.229674796747966,85.01016260162602 11.128048780487804,85.46747967479675 11.077235772357723,85.8739837398374 11.026422764227641,86.22967479674797 10.97560975609756,86.63617886178862 10.924796747967479,87.04268292682927 10.823170731707316,87.5 10.772357723577235,87.95731707317073 10.721544715447154,88.41463414634146 10.670731707317072,88.8211382113821 10.619918699186991,89.32926829268293 10.56910569105691,89.6849593495935 10.56910569105691,90.09146341463415 10.56910569105691,90.4979674796748 10.56910569105691,90.80284552845528 10.56910569105691,91.15853658536585 10.56910569105691,91.51422764227642 10.56910569105691,91.869918699187 10.619918699186991,92.17479674796748 10.670731707317072,92.47967479674797 10.721544715447154,92.78455284552845 10.772357723577235,93.14024390243902 10.873983739837398,93.4451219512195 10.924796747967479,93.75 11.026422764227641,94.05487804878048 11.128048780487804,94.3089430894309 11.280487804878048,94.51219512195122" fill="none" stroke="black" stroke-width="0.6"></polyline><polyline points="11.280487804878048,94.51219512195122 11.382113821138212,94.71544715447155 11.534552845528456,94.91869918699187 11.6869918699187,95.0711382113821 11.890243902439025,95.22357723577235 12.09349593495935,95.3760162601626 12.347560975609756,95.47764227642276 12.550813008130081,95.57926829268293 12.804878048780488,95.68089430894308 12.957317073170731,95.73170731707317 13.160569105691057,95.73170731707317 13.414634146341463,95.78252032520325 13.66869918699187,95.78252032520325 13.871951219512194,95.73170731707317 14.176829268292682,95.630081300813 14.430894308943088,95.47764227642276 14.684959349593496,95.32520325203252 14.989837398373984,95.1219512195122 15.24390243902439,94.91869918699187 15.548780487804878,94.71544715447155 15.853658536585366,94.46138211382113 16.10772357723577,94.20731707317073 16.41260162601626,93.90243902439025 16.71747967479675,93.59756097560975 16.920731707317074,93.34349593495935 17.1239837398374,93.03861788617886 17.378048780487806,92.6829268292683 17.58130081300813,92.27642276422765 17.784552845528456,91.92073170731707 17.98780487804878,91.51422764227642 18.191056910569106,91.10772357723577 18.39430894308943,90.65040650406503 18.648373983739837,90.24390243902438 18.80081300813008,89.88821138211382 18.953252032520325,89.48170731707317 19.054878048780488,89.1260162601626 19.20731707317073,88.71951219512195 19.359756097560975,88.21138211382113 19.461382113821138,87.7540650406504 19.61382113821138,87.2459349593496 19.766260162601625,86.73780487804878 19.867886178861788,86.28048780487805 19.96951219512195,85.82317073170732 20.071138211382113,85.36585365853658 20.121951219512194,85.0609756097561 20.121951219512194,84.7560975609756 20.172764227642276,84.40040650406503 20.172764227642276,84.04471544715447 20.172764227642276,83.73983739837398 20.121951219512194,83.3841463414634 20.071138211382113,83.130081300813" fill="none" stroke="black" stroke-width="0.6"></polyline><polyline points="20.071138211382113,83.130081300813 19.96951219512195,82.8760162601626 19.867886178861788,82.6219512195122 19.817073170731707,82.46951219512195 19.715447154471544,82.36788617886178 19.61382113821138,82.3170731707317 19.51219512195122,82.26626016260163 19.461382113821138,82.21544715447155 19.359756097560975,82.21544715447155 19.258130081300813,82.21544715447155 19.15650406504065,82.21544715447155 19.10569105691057,82.26626016260163 19.004065040650406,82.3170731707317 18.902439024390244,82.46951219512195 18.80081300813008,82.72357723577235 18.648373983739837,82.92682926829268 18.445121951219512,83.23170731707317 18.241869918699187,83.58739837398373 18.089430894308943,83.89227642276423 17.88617886178862,84.1971544715447 17.733739837398375,84.60365853658537 17.58130081300813,84.90853658536585 17.428861788617887,85.3150406504065 17.327235772357724,85.67073170731707 17.225609756097562,86.02642276422765 17.1239837398374,86.3821138211382 17.073170731707318,86.73780487804878 17.022357723577237,87.09349593495935 16.971544715447155,87.39837398373983 16.920731707317074,87.7540650406504 16.920731707317074,88.0589430894309 16.869918699186993,88.36382113821138 16.869918699186993,88.71951219512195 16.81910569105691,89.07520325203252 16.81910569105691,89.380081300813 16.81910569105691,89.78658536585365 16.76829268292683,90.09146341463415 16.76829268292683,90.4471544715447 16.76829268292683,90.80284552845528 16.76829268292683,91.15853658536585 16.76829268292683,91.5650406504065 16.81910569105691,91.97154471544715 16.920731707317074,92.27642276422765 16.971544715447155,92.6321138211382 17.1239837398374,92.9369918699187 17.225609756097562,93.24186991869918 17.378048780487806,93.4959349593496 17.53048780487805,93.80081300813008 17.733739837398375,94.05487804878048 17.88617886178862,94.2581300813008 18.038617886178862,94.46138211382113" fill="none" stroke="black" stroke-width="0.6"></polyline><polyline points="18.038617886178862,94.46138211382113 18.241869918699187,94.66463414634146 18.445121951219512,94.8170731707317 18.648373983739837,95.02032520325203 18.851626016260163,95.1219512195122 19.10569105691057,95.22357723577235 19.308943089430894,95.32520325203252 19.5630081300813,95.3760162601626 19.817073170731707,95.42682926829268 20.020325203252032,95.42682926829268 20.223577235772357,95.42682926829268 20.477642276422763,95.3760162601626 20.68089430894309,95.32520325203252 20.833333333333332,95.27439024390243 21.036585365853657,95.17276422764228 21.1890243902439,95.1219512195122 21.392276422764226,95.02032520325203 21.646341463414632,94.91869918699187 21.849593495934958,94.76626016260163 22.052845528455283,94.66463414634146 22.30691056910569,94.51219512195122 22.510162601626014,94.35975609756098 22.764227642276424,94.20731707317073 23.01829268292683,93.95325203252033 23.272357723577237,93.75 23.577235772357724,93.4959349593496 23.83130081300813,93.24186991869918 24.085365853658537,92.9369918699187 24.339430894308943,92.6321138211382 24.59349593495935,92.27642276422765 24.847560975609756,91.97154471544715 25.101626016260163,91.66666666666667 25.35569105691057,91.3109756097561 25.508130081300813,91.0569105691057 25.711382113821138,90.70121951219512 25.914634146341463,90.29471544715447 26.067073170731707,89.88821138211382 26.270325203252032,89.43089430894308 26.422764227642276,88.92276422764228 26.57520325203252,88.41463414634146 26.727642276422763,87.85569105691057 26.880081300813007,87.29674796747967 27.03252032520325,86.83943089430895 27.134146341463413,86.33130081300813 27.235772357723576,85.82317073170732 27.286585365853657,85.36585365853658 27.286585365853657,84.90853658536585 27.286585365853657,84.45121951219512 27.286585365853657,83.99390243902438 27.286585365853657,83.53658536585365 27.235772357723576,83.130081300813" fill="none" stroke="black" stroke-width="0.6"></polyline><polyline points="27.235772357723576,83.130081300813 27.184959349593495,82.77439024390243 27.083333333333332,82.41869918699187 26.93089430894309,82.11382113821138 26.829268292682926,81.91056910569105 26.676829268292682,81.7581300813008 26.57520325203252,81.65650406504065 26.473577235772357,81.65650406504065 26.422764227642276,81.65650406504065 26.321138211382113,81.65650406504065 26.21951219512195,81.65650406504065 26.117886178861788,81.70731707317073 26.016260162601625,81.8089430894309 25.86382113821138,82.01219512195122 25.660569105691057,82.3170731707317 25.40650406504065,82.67276422764228 25.203252032520325,83.02845528455285 25,83.4349593495935 24.796747967479675,83.84146341463415 24.59349593495935,84.2479674796748 24.390243902439025,84.70528455284553 24.23780487804878,85.11178861788618 24.085365853658537,85.51829268292683 23.983739837398375,85.97560975609755 23.882113821138212,86.3821138211382 23.78048780487805,86.83943089430895 23.678861788617887,87.29674796747967 23.577235772357724,87.70325203252033 23.526422764227643,88.0589430894309 23.42479674796748,88.51626016260163 23.42479674796748,88.92276422764228 23.3739837398374,89.32926829268293 23.3739837398374,89.78658536585365 23.3739837398374,90.1930894308943 23.3739837398374,90.59959349593495 23.3739837398374,91.0569105691057 23.3739837398374,91.41260162601625 23.42479674796748,91.8191056910569 23.42479674796748,92.17479674796748 23.475609756097562,92.53048780487805 23.526422764227643,92.83536585365853 23.577235772357724,93.1910569105691 23.678861788617887,93.4451219512195 23.729674796747968,93.69918699186992 23.882113821138212,93.95325203252033 23.983739837398375,94.15650406504065 24.13617886178862,94.41056910569105 24.339430894308943,94.61382113821138 24.491869918699187,94.8170731707317 24.64430894308943,94.91869918699187 24.847560975609756,95.0711382113821" fill="none" stroke="black" stroke-width="0.6"></polyline><polyline points="24.847560975609756,95.0711382113821 25,95.17276422764228 25.203252032520325,95.27439024390243 25.40650406504065,95.3760162601626 25.711382113821138,95.47764227642276 26.067073170731707,95.57926829268293 26.422764227642276,95.630081300813 26.727642276422763,95.630081300813 27.134146341463413,95.630081300813 27.540650406504064,95.630081300813 27.896341463414632,95.630081300813 28.302845528455283,95.52845528455285 28.760162601626014,95.3760162601626 29.217479674796746,95.17276422764228 29.6239837398374,94.91869918699187 30.08130081300813,94.5630081300813 30.48780487804878,94.15650406504065 30.945121951219512,93.59756097560975 31.453252032520325,92.88617886178862 31.910569105691057,92.02235772357723 32.36788617886179,91.0060975609756 32.82520325203252,89.98983739837398 33.18089430894309,89.02439024390243 33.485772357723576,88.10975609756098 33.790650406504064,87.34756097560975 33.94308943089431,87.09349593495935" fill="none" stroke="black" stroke-width="0.6"></polyline></svg>