<svg height="100" width="100" preserveAspectRatio="xMidYMid meet"><polyline points="7.723577235772358,16.209349593495933 7.6727642276422765,16.209349593495933 7.6727642276422765,16.209349593495933 7.6727642276422765,16.209349593495933 7.621951219512195,16.209349593495933 7.621951219512195,16.209349593495933 7.621951219512195,16.209349593495933 7.621951219512195,16.15853658536585 7.621951219512195,16.15853658536585 7.621951219512195,16.15853658536585 7.621951219512195,16.15853658536585 7.621951219512195,16.15853658536585 7.621951219512195,16.10772357723577 7.621951219512195,16.10772357723577 7.6727642276422765,16.10772357723577 7.723577235772358,16.10772357723577 7.82520325203252,16.10772357723577 7.876016260162602,16.10772357723577 7.926829268292683,16.10772357723577 8.079268292682926,16.05691056910569 8.231707317073171,16.05691056910569 8.333333333333334,16.006097560975608 8.434959349593496,16.006097560975608 8.638211382113822,15.955284552845528 8.739837398373984,15.904471544715447 8.94308943089431,15.802845528455284 9.197154471544716,15.701219512195122 9.451219512195122,15.59959349593496 9.603658536585366,15.548780487804878 10.060975609756097,15.24390243902439 10.619918699186991,14.939024390243903 10.772357723577235,14.83739837398374 11.178861788617885,14.53252032520325 11.534552845528456,14.278455284552845 12.042682926829269,13.871951219512194 12.245934959349594,13.71951219512195 12.5,13.516260162601625 13.109756097560975,13.058943089430894 13.567073170731707,12.652439024390244 13.821138211382113,12.449186991869919 14.024390243902438,12.245934959349594 14.176829268292682,12.09349593495935 14.329268292682926,11.941056910569106 14.634146341463413,11.6869918699187 15.040650406504065,11.280487804878048 15.19308943089431,11.128048780487804 15.345528455284553,10.97560975609756 15.701219512195122,10.518292682926829 16.006097560975608,10.060975609756097 16.10772357723577,9.908536585365853 16.15853658536585,9.75609756097561" fill="none" stroke="black" stroke-width="0.6"></polyline><polyline points="16.15853658536585,9.75609756097561 16.209349593495933,9.654471544715447 16.36178861788618,9.40040650406504 16.514227642276424,9.044715447154472 16.565040650406505,8.94308943089431 16.615853658536587,8.790650406504065 16.615853658536587,8.689024390243903 16.666666666666668,8.434959349593496 16.71747967479675,8.18089430894309 16.71747967479675,8.079268292682926 16.71747967479675,7.977642276422764 16.71747967479675,7.876016260162602 16.76829268292683,7.6727642276422765 16.76829268292683,7.571138211382114 16.76829268292683,7.41869918699187 16.76829268292683,7.367886178861789 16.76829268292683,7.266260162601625 16.71747967479675,7.215447154471544 16.615853658536587,7.0630081300813 16.615853658536587,7.0630081300813 16.514227642276424,6.961382113821138 16.463414634146343,6.961382113821138 16.41260162601626,6.961382113821138 16.36178861788618,6.9105691056910565 16.3109756097561,6.9105691056910565 16.209349593495933,6.9105691056910565 16.05691056910569,6.9105691056910565 16.006097560975608,6.9105691056910565 15.904471544715447,7.012195121951219 15.853658536585366,7.0630081300813 15.752032520325203,7.0630081300813 15.701219512195122,7.164634146341463 15.59959349593496,7.266260162601625 15.396341463414634,7.469512195121951 15.24390243902439,7.723577235772358 15.091463414634147,7.876016260162602 15.040650406504065,7.977642276422764 14.939024390243903,8.18089430894309 14.83739837398374,8.485772357723578 14.786585365853659,8.58739837398374 14.735772357723578,8.689024390243903 14.684959349593496,8.790650406504065 14.583333333333332,9.044715447154472 14.48170731707317,9.34959349593496 14.430894308943088,9.451219512195122 14.380081300813007,9.552845528455284 14.329268292682926,9.654471544715447 14.227642276422763,9.80691056910569 14.227642276422763,9.908536585365853 14.176829268292682,10.010162601626016 14.1260162601626,10.111788617886178" fill="none" stroke="black" stroke-width="0.6"></polyline><polyline points="14.1260162601626,10.111788617886178 14.07520325203252,10.16260162601626 13.973577235772357,10.416666666666666 13.871951219512194,10.619918699186991 13.770325203252032,10.823170731707316 13.66869918699187,11.026422764227641 13.567073170731707,11.229674796747966 13.465447154471544,11.432926829268293 13.414634146341463,11.636178861788618 13.363821138211382,11.788617886178862 13.262195121951219,11.941056910569106 13.211382113821138,12.245934959349594 13.160569105691057,12.296747967479675 13.160569105691057,12.398373983739837 13.058943089430894,12.703252032520325 13.008130081300813,13.008130081300813 12.957317073170731,13.109756097560975 12.90650406504065,13.3130081300813 12.855691056910569,13.465447154471544 12.804878048780488,13.71951219512195 12.804878048780488,13.821138211382113 12.804878048780488,13.871951219512194 12.804878048780488,13.973577235772357 12.804878048780488,14.07520325203252 12.804878048780488,14.329268292682926 12.804878048780488,14.380081300813007 12.804878048780488,14.48170731707317 12.804878048780488,14.53252032520325 12.855691056910569,14.634146341463413 12.90650406504065,14.83739837398374 12.957317073170731,14.939024390243903 13.008130081300813,15.091463414634147 13.109756097560975,15.24390243902439 13.160569105691057,15.294715447154472 13.211382113821138,15.345528455284553 13.262195121951219,15.396341463414634 13.363821138211382,15.497967479674797 13.567073170731707,15.59959349593496 13.617886178861788,15.65040650406504 13.770325203252032,15.701219512195122 13.973577235772357,15.752032520325203 14.1260162601626,15.752032520325203 14.227642276422763,15.802845528455284 14.48170731707317,15.802845528455284 14.735772357723578,15.802845528455284 15.040650406504065,15.802845528455284 15.091463414634147,15.802845528455284 15.294715447154472,15.802845528455284 15.497967479674797,15.752032520325203 15.701219512195122,15.701219512195122 16.05691056910569,15.548780487804878" fill="none" stroke="black" stroke-width="0.6"></polyline><polyline points="16.05691056910569,15.548780487804878 16.209349593495933,15.497967479674797 16.463414634146343,15.345528455284553 16.71747967479675,15.19308943089431 17.022357723577237,14.989837398373984 17.276422764227643,14.83739837398374 17.53048780487805,14.634146341463413 17.784552845528456,14.380081300813007 18.038617886178862,14.176829268292682 18.241869918699187,13.973577235772357 18.34349593495935,13.821138211382113 18.546747967479675,13.617886178861788 18.75,13.3130081300813 18.902439024390244,13.058943089430894 18.953252032520325,12.90650406504065 19.054878048780488,12.703252032520325 19.10569105691057,12.550813008130081 19.15650406504065,12.296747967479675 19.20731707317073,12.09349593495935 19.20731707317073,11.991869918699187 19.20731707317073,11.890243902439025 19.20731707317073,11.6869918699187 19.20731707317073,11.534552845528456 19.20731707317073,11.331300813008129 19.20731707317073,11.331300813008129 19.20731707317073,11.280487804878048 19.20731707317073,11.229674796747966 19.15650406504065,11.229674796747966 19.10569105691057,11.178861788617885 19.054878048780488,11.178861788617885 19.054878048780488,11.178861788617885 19.004065040650406,11.178861788617885 18.953252032520325,11.178861788617885 18.851626016260163,11.178861788617885 18.80081300813008,11.229674796747966 18.648373983739837,11.280487804878048 18.546747967479675,11.382113821138212 18.39430894308943,11.534552845528456 18.34349593495935,11.585365853658537 18.29268292682927,11.636178861788618 18.140243902439025,11.788617886178862 18.038617886178862,11.941056910569106 17.88617886178862,12.144308943089431 17.835365853658537,12.245934959349594 17.784552845528456,12.347560975609756 17.632113821138212,12.550813008130081 17.53048780487805,12.804878048780488 17.428861788617887,13.008130081300813 17.378048780487806,13.109756097560975 17.327235772357724,13.211382113821138 17.276422764227643,13.3130081300813" fill="none" stroke="black" stroke-width="0.6"></polyline><polyline points="17.276422764227643,13.3130081300813 17.276422764227643,13.414634146341463 17.225609756097562,13.567073170731707 17.1239837398374,13.821138211382113 17.1239837398374,13.973577235772357 17.073170731707318,14.176829268292682 17.022357723577237,14.380081300813007 17.022357723577237,14.430894308943088 17.022357723577237,14.583333333333332 17.022357723577237,14.735772357723578 17.073170731707318,14.939024390243903 17.1239837398374,14.989837398373984 17.1239837398374,15.091463414634147 17.225609756097562,15.24390243902439 17.276422764227643,15.345528455284553 17.327235772357724,15.396341463414634 17.378048780487806,15.447154471544716 17.428861788617887,15.497967479674797 17.479674796747968,15.548780487804878 17.58130081300813,15.59959349593496 17.733739837398375,15.65040650406504 17.88617886178862,15.701219512195122 18.140243902439025,15.701219512195122 18.445121951219512,15.701219512195122 18.546747967479675,15.701219512195122 18.75,15.65040650406504 18.953252032520325,15.59959349593496 19.359756097560975,15.447154471544716 19.461382113821138,15.447154471544716 19.61382113821138,15.345528455284553 20.020325203252032,15.19308943089431 20.3760162601626,14.939024390243903 20.528455284552845,14.83739837398374 20.884146341463413,14.634146341463413 21.1890243902439,14.380081300813007 21.646341463414632,14.07520325203252 21.798780487804876,13.922764227642276 22.103658536585364,13.71951219512195 22.35772357723577,13.516260162601625 22.71341463414634,13.109756097560975 22.815040650406505,13.008130081300813 22.96747967479675,12.754065040650406 23.119918699186993,12.449186991869919 23.272357723577237,12.042682926829269 23.323170731707318,11.890243902439025 23.3739837398374,11.737804878048781 23.3739837398374,11.636178861788618 23.42479674796748,11.432926829268293 23.526422764227643,11.229674796747966 23.526422764227643,11.178861788617885 23.526422764227643,11.128048780487804" fill="none" stroke="black" stroke-width="0.6"></polyline><polyline points="23.526422764227643,11.128048780487804 23.526422764227643,11.077235772357723 23.526422764227643,11.077235772357723 23.526422764227643,11.077235772357723 23.526422764227643,11.077235772357723 23.526422764227643,11.077235772357723 23.526422764227643,11.128048780487804 23.526422764227643,11.128048780487804 23.526422764227643,11.128048780487804 23.526422764227643,11.229674796747966 23.526422764227643,11.331300813008129 23.526422764227643,11.432926829268293 23.526422764227643,11.483739837398375 23.526422764227643,11.636178861788618 23.526422764227643,11.6869918699187 23.526422764227643,11.839430894308943 23.526422764227643,11.941056910569106 23.577235772357724,12.09349593495935 23.678861788617887,12.398373983739837 23.78048780487805,12.703252032520325 23.83130081300813,12.957317073170731 23.882113821138212,13.058943089430894 23.983739837398375,13.3130081300813 24.034552845528456,13.516260162601625 24.085365853658537,13.71951219512195 24.1869918699187,13.922764227642276 24.23780487804878,14.07520325203252 24.288617886178862,14.278455284552845 24.288617886178862,14.430894308943088 24.339430894308943,14.583333333333332 24.339430894308943,14.634146341463413 24.339430894308943,14.684959349593496 24.339430894308943,14.735772357723578 24.339430894308943,14.786585365853659 24.288617886178862,14.83739837398374 24.1869918699187,14.939024390243903 24.13617886178862,14.989837398373984 24.085365853658537,15.040650406504065 23.83130081300813,15.24390243902439 23.577235772357724,15.396341463414634 23.475609756097562,15.447154471544716 23.272357723577237,15.548780487804878 23.06910569105691,15.65040650406504 22.865853658536587,15.701219512195122 22.662601626016258,15.752032520325203 22.560975609756095,15.802845528455284 22.459349593495933,15.802845528455284 22.35772357723577,15.802845528455284 22.154471544715445,15.802845528455284 22.0020325203252,15.802845528455284 21.95121951219512,15.752032520325203" fill="none" stroke="black" stroke-width="0.6"></polyline><polyline points="21.95121951219512,15.752032520325203 21.849593495934958,15.65040650406504 21.747967479674795,15.548780487804878 21.646341463414632,15.447154471544716 21.49390243902439,15.19308943089431 21.443089430894307,15.142276422764228 21.392276422764226,15.091463414634147 21.341463414634145,14.989837398373984 21.1890243902439,14.83739837398374 21.08739837398374,14.583333333333332 21.036585365853657,14.53252032520325 20.934959349593495,14.380081300813007 20.884146341463413,14.278455284552845 20.833333333333332,14.176829268292682 20.78252032520325,14.024390243902438 20.78252032520325,14.024390243902438 20.73170731707317,13.922764227642276 20.73170731707317,13.871951219512194 20.73170731707317,13.821138211382113 20.73170731707317,13.821138211382113 20.73170731707317,13.821138211382113 20.73170731707317,13.821138211382113 20.73170731707317,13.821138211382113 20.73170731707317,13.821138211382113 20.73170731707317,13.821138211382113 20.73170731707317,13.871951219512194 20.73170731707317,13.871951219512194 20.73170731707317,13.871951219512194 20.73170731707317,13.922764227642276 20.78252032520325,13.973577235772357 20.78252032520325,14.024390243902438 20.78252032520325,14.07520325203252 20.833333333333332,14.1260162601626 20.934959349593495,14.278455284552845 20.934959349593495,14.329268292682926 20.985772357723576,14.380081300813007 21.036585365853657,14.430894308943088 21.13821138211382,14.583333333333332 21.290650406504064,14.786585365853659 21.341463414634145,14.83739837398374 21.49390243902439,14.989837398373984 21.646341463414632,15.142276422764228 21.798780487804876,15.294715447154472 22.052845528455283,15.497967479674797 22.103658536585364,15.548780487804878 22.205284552845526,15.59959349593496 22.40853658536585,15.701219512195122 22.459349593495933,15.752032520325203 22.560975609756095,15.752032520325203 22.662601626016258,15.802845528455284 22.764227642276424,15.802845528455284" fill="none" stroke="black" stroke-width="0.6"></polyline><polyline points="22.764227642276424,15.802845528455284 23.06910569105691,15.802845528455284 23.170731707317074,15.802845528455284 23.475609756097562,15.802845528455284 23.83130081300813,15.752032520325203 24.23780487804878,15.65040650406504 24.441056910569106,15.548780487804878 24.64430894308943,15.497967479674797 24.847560975609756,15.396341463414634 25.558943089430894,15.142276422764228 25.965447154471544,14.888211382113822 26.473577235772357,14.583333333333332 26.676829268292682,14.380081300813007 26.880081300813007,14.227642276422763 27.134146341463413,14.024390243902438 27.33739837398374,13.770325203252032 27.79471544715447,13.3130081300813 28.099593495934958,12.855691056910569 28.404471544715445,12.347560975609756 28.55691056910569,12.09349593495935 28.709349593495933,11.788617886178862" fill="none" stroke="black" stroke-width="0.6"></polyline><polyline points="4.166666666666667,36.33130081300813 4.166666666666667,36.33130081300813 4.166666666666667,36.33130081300813 4.115853658536586,36.33130081300813 4.115853658536586,36.33130081300813 4.115853658536586,36.33130081300813 4.115853658536586,36.28048780487805 4.115853658536586,36.28048780487805 4.115853658536586,36.28048780487805 4.115853658536586,36.28048780487805 4.217479674796748,36.28048780487805 4.2682926829268295,36.229674796747965 4.319105691056911,36.229674796747965 4.420731707317073,36.229674796747965 4.522357723577236,36.17886178861789 4.725609756097561,36.077235772357724 4.979674796747967,35.97560975609756 5.284552845528455,35.8739837398374 5.84349593495935,35.61991869918699 5.995934959349594,35.51829268292683 6.453252032520325,35.3150406504065 6.65650406504065,35.21341463414634 7.317073170731707,34.80691056910569 7.774390243902439,34.451219512195124 8.282520325203253,34.04471544715447 8.739837398373984,33.63821138211382 9.552845528455284,32.97764227642276 10.16260162601626,32.418699186991866 10.467479674796747,32.11382113821138 10.823170731707316,31.808943089430894 11.128048780487804,31.504065040650406 11.483739837398375,31.19918699186992 12.042682926829269,30.691056910569106 12.245934959349594,30.4369918699187 12.5,30.233739837398375 12.855691056910569,29.878048780487806 13.008130081300813,29.67479674796748 13.211382113821138,29.31910569105691 13.3130081300813,29.166666666666664 13.363821138211382,29.01422764227642 13.567073170731707,28.709349593495933 13.66869918699187,28.353658536585364 13.71951219512195,28.048780487804876 13.770325203252032,27.74390243902439 13.821138211382113,27.591463414634145 13.821138211382113,27.38821138211382 13.821138211382113,27.134146341463413 13.770325203252032,27.03252032520325 13.71951219512195,26.98170731707317 13.66869918699187,26.880081300813007 13.516260162601625,26.778455284552845" fill="none" stroke="black" stroke-width="0.6"></polyline><polyline points="13.516260162601625,26.778455284552845 13.414634146341463,26.676829268292682 13.3130081300813,26.6260162601626 13.211382113821138,26.57520325203252 13.160569105691057,26.57520325203252 13.058943089430894,26.57520325203252 12.957317073170731,26.57520325203252 12.804878048780488,26.6260162601626 12.754065040650406,26.6260162601626 12.703252032520325,26.676829268292682 12.5,26.778455284552845 12.449186991869919,26.880081300813007 12.245934959349594,27.03252032520325 12.042682926829269,27.286585365853657 11.788617886178862,27.642276422764226 11.432926829268293,28.099593495934958 11.331300813008129,28.2520325203252 11.229674796747966,28.455284552845526 11.128048780487804,28.60772357723577 10.924796747967479,28.96341463414634 10.619918699186991,29.522357723577237 10.518292682926829,29.67479674796748 10.365853658536585,30.03048780487805 10.16260162601626,30.335365853658537 10.111788617886178,30.48780487804878 10.060975609756097,30.640243902439025 9.959349593495935,30.79268292682927 9.75609756097561,31.30081300813008 9.654471544715447,31.60569105691057 9.603658536585366,31.70731707317073 9.603658536585366,31.859756097560975 9.502032520325203,32.11382113821138 9.502032520325203,32.266260162601625 9.40040650406504,32.6219512195122 9.34959349593496,32.97764227642276 9.298780487804878,33.079268292682926 9.298780487804878,33.28252032520325 9.298780487804878,33.38414634146341 9.298780487804878,33.4349593495935 9.298780487804878,33.58739837398374 9.34959349593496,33.790650406504064 9.40040650406504,33.94308943089431 9.451219512195122,34.04471544715447 9.552845528455284,34.197154471544714 9.654471544715447,34.34959349593496 9.705284552845528,34.40040650406504 9.75609756097561,34.5020325203252 9.857723577235772,34.552845528455286 9.908536585365853,34.603658536585364 10.010162601626016,34.65447154471545 10.060975609756097,34.70528455284553" fill="none" stroke="black" stroke-width="0.6"></polyline><polyline points="10.060975609756097,34.70528455284553 10.264227642276422,34.80691056910569 10.467479674796747,34.90853658536585 10.721544715447154,34.959349593495936 11.077235772357723,35.010162601626014 11.229674796747966,35.010162601626014 11.483739837398375,35.010162601626014 11.737804878048781,35.010162601626014 12.042682926829269,35.010162601626014 12.296747967479675,35.010162601626014 12.601626016260163,34.959349593495936 12.754065040650406,34.959349593495936 12.90650406504065,34.90853658536585 13.211382113821138,34.857723577235774 13.363821138211382,34.857723577235774 13.871951219512194,34.70528455284553 14.1260162601626,34.552845528455286 14.380081300813007,34.451219512195124 14.48170731707317,34.34959349593496 14.786585365853659,34.146341463414636 14.939024390243903,34.04471544715447 15.091463414634147,33.892276422764226 15.396341463414634,33.63821138211382 15.548780487804878,33.4349593495935 15.853658536585366,33.13008130081301 16.10772357723577,32.82520325203252 16.260162601626014,32.672764227642276 16.41260162601626,32.46951219512195 16.514227642276424,32.3170731707317 16.666666666666668,32.012195121951216 16.71747967479675,31.859756097560975 16.869918699186993,31.554878048780488 16.920731707317074,31.30081300813008 16.971544715447155,31.097560975609756 17.022357723577237,30.84349593495935 17.022357723577237,30.741869918699187 17.022357723577237,30.691056910569106 16.971544715447155,30.48780487804878 16.971544715447155,30.48780487804878 16.920731707317074,30.4369918699187 16.81910569105691,30.335365853658537 16.76829268292683,30.284552845528456 16.76829268292683,30.284552845528456 16.666666666666668,30.284552845528456 16.615853658536587,30.284552845528456 16.565040650406505,30.284552845528456 16.514227642276424,30.284552845528456 16.463414634146343,30.284552845528456 16.41260162601626,30.284552845528456 16.260162601626014,30.38617886178862 16.209349593495933,30.4369918699187" fill="none" stroke="black" stroke-width="0.6"></polyline><polyline points="16.209349593495933,30.4369918699187 16.05691056910569,30.538617886178862 16.006097560975608,30.589430894308943 15.904471544715447,30.691056910569106 15.853658536585366,30.741869918699187 15.65040650406504,30.945121951219512 15.59959349593496,30.995934959349594 15.447154471544716,31.19918699186992 15.345528455284553,31.30081300813008 15.24390243902439,31.402439024390244 15.19308943089431,31.504065040650406 14.989837398373984,31.758130081300813 14.786585365853659,32.012195121951216 14.583333333333332,32.418699186991866 14.380081300813007,32.77439024390244 14.278455284552845,32.926829268292686 14.227642276422763,33.13008130081301 14.176829268292682,33.38414634146341 14.1260162601626,33.485772357723576 14.1260162601626,33.53658536585366 14.07520325203252,33.63821138211382 14.07520325203252,33.6890243902439 14.07520325203252,33.790650406504064 14.024390243902438,33.84146341463415 14.024390243902438,33.99390243902439 14.024390243902438,34.09552845528455 13.973577235772357,34.197154471544714 13.973577235772357,34.34959349593496 13.973577235772357,34.40040650406504 13.973577235772357,34.451219512195124 13.973577235772357,34.65447154471545 13.973577235772357,34.70528455284553 13.973577235772357,34.75609756097561 13.973577235772357,34.80691056910569 13.973577235772357,34.857723577235774 14.024390243902438,35.010162601626014 14.024390243902438,35.0609756097561 14.07520325203252,35.11178861788618 14.1260162601626,35.264227642276424 14.176829268292682,35.3150406504065 14.227642276422763,35.36585365853659 14.278455284552845,35.416666666666664 14.329268292682926,35.46747967479675 14.380081300813007,35.51829268292683 14.430894308943088,35.56910569105691 14.48170731707317,35.56910569105691 14.684959349593496,35.61991869918699 14.786585365853659,35.670731707317074 14.989837398373984,35.670731707317074 15.24390243902439,35.670731707317074 15.396341463414634,35.670731707317074" fill="none" stroke="black" stroke-width="0.6"></polyline><polyline points="15.396341463414634,35.670731707317074 15.497967479674797,35.670731707317074 15.59959349593496,35.670731707317074 15.904471544715447,35.61991869918699 16.006097560975608,35.61991869918699 16.15853658536585,35.56910569105691 16.514227642276424,35.46747967479675 16.76829268292683,35.36585365853659 16.971544715447155,35.264227642276424 17.378048780487806,35.0609756097561 17.682926829268293,34.857723577235774 17.98780487804878,34.65447154471545 18.191056910569106,34.552845528455286 18.546747967479675,34.2479674796748 18.69918699186992,34.09552845528455 18.902439024390244,33.94308943089431 19.410569105691057,33.485772357723576 19.5630081300813,33.38414634146341 19.867886178861788,33.13008130081301 20.020325203252032,32.97764227642276 20.172764227642276,32.82520325203252 20.477642276422763,32.52032520325203 20.73170731707317,32.16463414634146 20.833333333333332,32.012195121951216 20.985772357723576,31.808943089430894 21.08739837398374,31.60569105691057 21.290650406504064,31.30081300813008 21.54471544715447,30.945121951219512 21.646341463414632,30.79268292682927 21.849593495934958,30.4369918699187 21.95121951219512,30.284552845528456 22.0020325203252,30.182926829268293 22.205284552845526,29.878048780487806 22.30691056910569,29.776422764227643 22.459349593495933,29.573170731707318 22.560975609756095,29.471544715447155 22.662601626016258,29.31910569105691 22.764227642276424,29.217479674796746 22.815040650406505,29.166666666666664 22.865853658536587,29.0650406504065 22.865853658536587,29.01422764227642 22.916666666666668,29.01422764227642 22.916666666666668,29.01422764227642 22.916666666666668,29.01422764227642 22.916666666666668,29.01422764227642 22.916666666666668,29.01422764227642 22.916666666666668,29.01422764227642 22.916666666666668,29.01422764227642 22.916666666666668,29.01422764227642 22.916666666666668,29.01422764227642 22.916666666666668,29.01422764227642" fill="none" stroke="black" stroke-width="0.6"></polyline><polyline points="22.916666666666668,29.01422764227642 22.916666666666668,29.01422764227642 22.916666666666668,29.01422764227642 22.916666666666668,29.01422764227642 22.916666666666668,29.01422764227642 22.916666666666668,29.01422764227642 22.916666666666668,29.0650406504065 22.865853658536587,29.0650406504065 22.865853658536587,29.0650406504065 22.865853658536587,29.115853658536583 22.865853658536587,29.166666666666664 22.865853658536587,29.268292682926827 22.865853658536587,29.369918699186993 22.815040650406505,29.573170731707318 22.815040650406505,29.6239837398374 22.815040650406505,29.725609756097562 22.815040650406505,29.776422764227643 22.815040650406505,29.928861788617887 22.815040650406505,30.233739837398375 22.815040650406505,30.335365853658537 22.815040650406505,30.4369918699187 22.815040650406505,30.538617886178862 22.815040650406505,30.640243902439025 22.815040650406505,30.741869918699187 22.815040650406505,30.84349593495935 22.815040650406505,30.945121951219512 22.865853658536587,31.046747967479675 22.865853658536587,31.25 22.865853658536587,31.30081300813008 22.865853658536587,31.402439024390244 22.865853658536587,31.504065040650406 22.865853658536587,31.70731707317073 22.865853658536587,31.859756097560975 22.865853658536587,32.0630081300813 22.865853658536587,32.16463414634146 22.916666666666668,32.21544715447154 22.916666666666668,32.3170731707317 22.916666666666668,32.52032520325203 22.916666666666668,32.672764227642276 22.916666666666668,32.77439024390244 22.916666666666668,32.926829268292686 22.916666666666668,33.02845528455285 22.916666666666668,33.13008130081301 22.916666666666668,33.18089430894309 22.916666666666668,33.333333333333336 22.916666666666668,33.38414634146341 22.916666666666668,33.485772357723576 22.916666666666668,33.63821138211382 22.916666666666668,33.6890243902439 22.916666666666668,33.84146341463415 22.865853658536587,33.94308943089431" fill="none" stroke="black" stroke-width="0.6"></polyline><polyline points="22.865853658536587,33.94308943089431 22.865853658536587,33.99390243902439 22.865853658536587,34.197154471544714 22.815040650406505,34.298780487804876 22.815040650406505,34.34959349593496 22.815040650406505,34.451219512195124 22.764227642276424,34.5020325203252 22.71341463414634,34.70528455284553 22.662601626016258,34.75609756097561 22.662601626016258,34.857723577235774 22.611788617886177,34.90853658536585 22.560975609756095,34.959349593495936 22.40853658536585,35.16260162601626 22.35772357723577,35.21341463414634 22.30691056910569,35.264227642276424 22.154471544715445,35.36585365853659 22.052845528455283,35.416666666666664 21.90040650406504,35.51829268292683 21.798780487804876,35.56910569105691 21.697154471544714,35.56910569105691 21.646341463414632,35.61991869918699 21.54471544715447,35.670731707317074 21.443089430894307,35.72154471544715 21.290650406504064,35.72154471544715 21.239837398373982,35.77235772357724 21.13821138211382,35.77235772357724 21.08739837398374,35.823170731707314 20.985772357723576,35.823170731707314 20.884146341463413,35.8739837398374 20.68089430894309,35.8739837398374 20.579268292682926,35.8739837398374 20.528455284552845,35.8739837398374 20.477642276422763,35.8739837398374 20.426829268292682,35.8739837398374 20.3760162601626,35.8739837398374 20.32520325203252,35.823170731707314 20.274390243902438,35.72154471544715 20.223577235772357,35.56910569105691 20.223577235772357,35.51829268292683 20.223577235772357,35.46747967479675 20.223577235772357,35.36585365853659 20.223577235772357,35.3150406504065 20.223577235772357,35.11178861788618 20.223577235772357,35.010162601626014 20.223577235772357,34.90853658536585 20.32520325203252,34.75609756097561 20.477642276422763,34.451219512195124 20.579268292682926,34.298780487804876 20.630081300813007,34.197154471544714 20.73170731707317,34.09552845528455 20.934959349593495,33.892276422764226" fill="none" stroke="black" stroke-width="0.6"></polyline><polyline points="20.934959349593495,33.892276422764226 21.13821138211382,33.6890243902439 21.239837398373982,33.58739837398374 21.443089430894307,33.4349593495935 21.697154471544714,33.28252032520325 21.90040650406504,33.18089430894309 22.052845528455283,33.079268292682926 22.205284552845526,33.02845528455285 22.30691056910569,33.02845528455285 22.459349593495933,32.97764227642276 22.560975609756095,32.926829268292686 22.662601626016258,32.926829268292686 22.764227642276424,32.926829268292686 22.865853658536587,32.926829268292686 22.96747967479675,32.926829268292686 23.01829268292683,32.926829268292686 23.06910569105691,32.926829268292686 23.170731707317074,32.926829268292686 23.323170731707318,32.926829268292686 23.577235772357724,32.926829268292686 23.628048780487806,32.926829268292686 23.882113821138212,32.926829268292686 23.983739837398375,32.926829268292686 24.085365853658537,32.8760162601626 24.390243902439025,32.77439024390244 24.54268292682927,32.672764227642276 24.745934959349594,32.6219512195122 24.94918699186992,32.52032520325203 25.152439024390244,32.418699186991866 25.304878048780488,32.266260162601625 25.508130081300813,32.11382113821138 25.711382113821138,32.012195121951216 26.16869918699187,31.65650406504065 26.6260162601626,31.148373983739837 26.880081300813007,30.79268292682927 27.03252032520325,30.48780487804878 27.235772357723576,30.08130081300813 27.235772357723576,29.928861788617887 27.33739837398374,29.67479674796748 27.33739837398374,29.522357723577237 27.33739837398374,29.369918699186993" fill="none" stroke="black" stroke-width="0.6"></polyline><polyline points="3.7601626016260163,56.14837398373984 3.7601626016260163,56.14837398373984 3.7601626016260163,56.14837398373984 3.7601626016260163,56.14837398373984 3.709349593495935,56.14837398373984 3.709349593495935,56.14837398373984 3.709349593495935,56.14837398373984 3.709349593495935,56.14837398373984 3.709349593495935,56.14837398373984 3.709349593495935,56.14837398373984 3.709349593495935,56.14837398373984 3.709349593495935,56.14837398373984 3.709349593495935,56.14837398373984 3.7601626016260163,56.14837398373984 3.91260162601626,56.14837398373984 4.014227642276422,56.14837398373984 4.166666666666667,56.09756097560975 4.217479674796748,56.09756097560975 4.369918699186992,56.046747967479675 4.573170731707317,55.94512195121951 4.8272357723577235,55.84349593495935 5.233739837398374,55.640243902439025 5.538617886178861,55.4369918699187 5.691056910569106,55.33536585365854 5.995934959349594,55.13211382113821 6.300813008130081,54.8780487804878 6.605691056910569,54.6239837398374 6.9105691056910565,54.31910569105691 7.41869918699187,53.86178861788618 7.571138211382114,53.65853658536585 7.774390243902439,53.50609756097561 8.282520325203253,52.947154471544714 8.689024390243903,52.540650406504064 9.146341463414634,52.083333333333336 9.603658536585366,51.575203252032516 9.80691056910569,51.32113821138211 10.010162601626016,51.11788617886179 10.264227642276422,50.8130081300813 10.467479674796747,50.609756097560975 10.873983739837398,50.10162601626016 11.077235772357723,49.84756097560975 11.331300813008129,49.542682926829265 11.534552845528456,49.28861788617886 11.737804878048781,48.983739837398375 11.941056910569106,48.67886178861789 12.398373983739837,48.11991869918699 12.601626016260163,47.8150406504065 12.957317073170731,47.25609756097561 13.262195121951219,46.7479674796748 13.567073170731707,46.239837398373986 13.770325203252032,45.78252032520325" fill="none" stroke="black" stroke-width="0.6"></polyline><polyline points="13.770325203252032,45.78252032520325 13.973577235772357,45.172764227642276 14.024390243902438,44.96951219512195 14.07520325203252,44.8170731707317 14.176829268292682,44.30894308943089 14.176829268292682,43.90243902439024 14.176829268292682,43.80081300813008 14.1260162601626,43.59756097560975 14.024390243902438,43.49593495934959 13.973577235772357,43.39430894308943 13.821138211382113,43.39430894308943 13.71951219512195,43.39430894308943 13.66869918699187,43.39430894308943 13.617886178861788,43.39430894308943 13.465447154471544,43.44512195121951 13.363821138211382,43.49593495934959 13.262195121951219,43.59756097560975 13.160569105691057,43.64837398373984 12.957317073170731,43.80081300813008 12.855691056910569,43.90243902439024 12.601626016260163,44.105691056910565 12.347560975609756,44.359756097560975 11.991869918699187,44.71544715447154 11.890243902439025,44.918699186991866 11.788617886178862,45.02032520325203 11.6869918699187,45.22357723577235 11.432926829268293,45.52845528455285 11.229674796747966,45.9349593495935 11.026422764227641,46.290650406504064 10.924796747967479,46.49390243902439 10.823170731707316,46.697154471544714 10.619918699186991,47.103658536585364 10.518292682926829,47.30691056910569 10.416666666666666,47.510162601626014 10.264227642276422,47.916666666666664 10.16260162601626,48.11991869918699 10.060975609756097,48.323170731707314 9.959349593495935,48.52642276422764 9.75609756097561,49.03455284552845 9.603658536585366,49.390243902439025 9.502032520325203,49.69512195121951 9.451219512195122,49.84756097560975 9.451219512195122,50 9.40040650406504,50.15243902439024 9.34959349593496,50.30487804878049 9.298780487804878,50.45731707317073 9.247967479674797,50.762195121951216 9.146341463414634,51.0670731707317 9.146341463414634,51.21951219512195 9.095528455284553,51.32113821138211 9.095528455284553,51.47357723577235" fill="none" stroke="black" stroke-width="0.6"></polyline><polyline points="9.095528455284553,51.47357723577235 9.044715447154472,51.6260162601626 9.044715447154472,51.72764227642276 9.044715447154472,51.880081300813 8.99390243902439,52.03252032520325 8.99390243902439,52.13414634146341 8.99390243902439,52.38821138211382 8.99390243902439,52.540650406504064 8.94308943089431,52.74390243902439 8.94308943089431,52.84552845528455 8.94308943089431,52.947154471544714 8.94308943089431,53.15040650406504 8.94308943089431,53.353658536585364 8.99390243902439,53.607723577235774 9.044715447154472,53.709349593495936 9.044715447154472,53.86178861788618 9.095528455284553,53.91260162601626 9.197154471544716,54.11585365853659 9.298780487804878,54.26829268292683 9.451219512195122,54.47154471544715 9.552845528455284,54.573170731707314 9.75609756097561,54.77642276422764 9.857723577235772,54.827235772357724 9.908536585365853,54.8780487804878 10.060975609756097,54.979674796747965 10.315040650406504,55.13211382113821 10.467479674796747,55.18292682926829 10.721544715447154,55.233739837398375 10.924796747967479,55.233739837398375 11.128048780487804,55.233739837398375 11.382113821138212,55.233739837398375 11.737804878048781,55.18292682926829 11.991869918699187,55.13211382113821 12.245934959349594,55.08130081300813 12.347560975609756,55.03048780487805 12.601626016260163,54.92886178861789 12.703252032520325,54.8780487804878 12.855691056910569,54.77642276422764 13.160569105691057,54.6239837398374 13.414634146341463,54.420731707317074 13.71951219512195,54.11585365853659 13.973577235772357,53.86178861788618 14.227642276422763,53.55691056910569 14.48170731707317,53.2520325203252 14.735772357723578,52.79471544715447 14.888211382113822,52.489837398373986 14.939024390243903,52.33739837398374 14.989837398373984,52.083333333333336 15.040650406504065,51.93089430894309 15.091463414634147,51.52439024390244 15.091463414634147,51.37195121951219" fill="none" stroke="black" stroke-width="0.6"></polyline><polyline points="15.091463414634147,51.37195121951219 15.091463414634147,51.11788617886179 15.091463414634147,50.96544715447154 15.040650406504065,50.91463414634146 15.040650406504065,50.86382113821138 14.989837398373984,50.86382113821138 14.939024390243903,50.762195121951216 14.888211382113822,50.762195121951216 14.735772357723578,50.71138211382114 14.634146341463413,50.71138211382114 14.583333333333332,50.71138211382114 14.53252032520325,50.71138211382114 14.380081300813007,50.762195121951216 14.176829268292682,50.91463414634146 14.024390243902438,51.0670731707317 13.973577235772357,51.11788617886179 13.770325203252032,51.27032520325203 13.617886178861788,51.47357723577235 13.363821138211382,51.77845528455284 13.3130081300813,51.880081300813 13.211382113821138,51.981707317073166 13.109756097560975,52.235772357723576 12.90650406504065,52.59146341463415 12.754065040650406,52.947154471544714 12.703252032520325,53.048780487804876 12.652439024390244,53.2520325203252 12.601626016260163,53.55691056910569 12.550813008130081,53.709349593495936 12.550813008130081,53.91260162601626 12.550813008130081,54.0650406504065 12.550813008130081,54.21747967479675 12.550813008130081,54.36991869918699 12.550813008130081,54.52235772357724 12.550813008130081,54.6239837398374 12.601626016260163,54.77642276422764 12.652439024390244,54.8780487804878 12.652439024390244,54.92886178861789 12.703252032520325,54.979674796747965 12.754065040650406,55.03048780487805 12.804878048780488,55.13211382113821 12.855691056910569,55.18292682926829 12.957317073170731,55.233739837398375 13.058943089430894,55.28455284552845 13.211382113821138,55.33536585365854 13.363821138211382,55.33536585365854 13.567073170731707,55.33536585365854 13.821138211382113,55.33536585365854 14.024390243902438,55.33536585365854 14.278455284552845,55.28455284552845 14.583333333333332,55.233739837398375 14.888211382113822,55.13211382113821" fill="none" stroke="black" stroke-width="0.6"></polyline><polyline points="14.888211382113822,55.13211382113821 15.294715447154472,54.979674796747965 15.65040650406504,54.827235772357724 16.006097560975608,54.6239837398374 16.41260162601626,54.36991869918699 16.869918699186993,54.0650406504065 17.276422764227643,53.760162601626014 17.682926829268293,53.45528455284553 18.038617886178862,53.15040650406504 18.34349593495935,52.84552845528455 18.597560975609756,52.59146341463415 18.851626016260163,52.28658536585366 19.004065040650406,51.981707317073166 19.15650406504065,51.67682926829268 19.308943089430894,51.32113821138211 19.410569105691057,51.0670731707317 19.51219512195122,50.8130081300813 19.61382113821138,50.50813008130081 19.766260162601625,50.355691056910565 19.817073170731707,50.2540650406504 19.867886178861788,50.203252032520325 19.867886178861788,50.203252032520325 19.867886178861788,50.203252032520325 19.867886178861788,50.203252032520325 19.867886178861788,50.203252032520325 19.867886178861788,50.203252032520325 19.867886178861788,50.203252032520325 19.867886178861788,50.203252032520325 19.867886178861788,50.2540650406504 19.867886178861788,50.30487804878049 19.867886178861788,50.45731707317073 19.91869918699187,50.55894308943089 19.91869918699187,50.762195121951216 19.91869918699187,50.91463414634146 19.96951219512195,51.11788617886179 20.020325203252032,51.27032520325203 20.020325203252032,51.47357723577235 20.071138211382113,51.72764227642276 20.071138211382113,51.981707317073166 20.121951219512194,52.1849593495935 20.121951219512194,52.4390243902439 20.172764227642276,52.69308943089431 20.172764227642276,52.896341463414636 20.172764227642276,53.09959349593496 20.172764227642276,53.302845528455286 20.172764227642276,53.45528455284553 20.172764227642276,53.607723577235774 20.172764227642276,53.760162601626014 20.172764227642276,53.91260162601626 20.121951219512194,54.11585365853659 20.071138211382113,54.26829268292683" fill="none" stroke="black" stroke-width="0.6"></polyline><polyline points="20.071138211382113,54.26829268292683 19.96951219512195,54.420731707317074 19.867886178861788,54.6239837398374 19.715447154471544,54.77642276422764 19.51219512195122,54.979674796747965 19.258130081300813,55.18292682926829 19.004065040650406,55.386178861788615 18.80081300813008,55.53861788617886 18.546747967479675,55.6910569105691 18.34349593495935,55.792682926829265 18.140243902439025,55.89430894308943 17.98780487804878,55.99593495934959 17.835365853658537,56.046747967479675 17.682926829268293,56.046747967479675 17.53048780487805,56.046747967479675 17.479674796747968,55.99593495934959 17.428861788617887,55.89430894308943 17.378048780487806,55.792682926829265 17.378048780487806,55.640243902439025 17.378048780487806,55.4369918699187 17.479674796747968,55.18292682926829 17.53048780487805,54.979674796747965 17.682926829268293,54.72560975609756 17.835365853658537,54.47154471544715 17.98780487804878,54.26829268292683 18.191056910569106,54.014227642276424 18.39430894308943,53.760162601626014 18.597560975609756,53.55691056910569 18.851626016260163,53.353658536585364 19.054878048780488,53.15040650406504 19.308943089430894,52.947154471544714 19.51219512195122,52.79471544715447 19.766260162601625,52.59146341463415 19.96951219512195,52.4390243902439 20.121951219512194,52.33739837398374 20.274390243902438,52.28658536585366 20.426829268292682,52.235772357723576 20.579268292682926,52.1849593495935 20.833333333333332,52.13414634146341 21.036585365853657,52.083333333333336 21.341463414634145,51.981707317073166 21.646341463414632,51.880081300813 22.0020325203252,51.72764227642276 22.40853658536585,51.575203252032516 22.815040650406505,51.32113821138211 23.221544715447155,51.0670731707317 23.577235772357724,50.8130081300813 23.983739837398375,50.45731707317073 24.288617886178862,50.15243902439024 24.59349593495935,49.74593495934959 24.847560975609756,49.28861788617886" fill="none" stroke="black" stroke-width="0.6"></polyline><polyline points="24.847560975609756,49.28861788617886 25.05081300813008,48.88211382113821 25.152439024390244,48.47560975609756 25.203252032520325,48.22154471544715 25.254065040650406,47.916666666666664 25.254065040650406,47.66260162601626" fill="none" stroke="black" stroke-width="0.6"></polyline><polyline points="5.08130081300813,75.10162601626016 5.08130081300813,75.10162601626016 5.030487804878049,75.15243902439025 5.030487804878049,75.20325203252033 4.979674796747967,75.20325203252033 4.979674796747967,75.20325203252033 4.979674796747967,75.2540650406504 4.979674796747967,75.2540650406504 4.928861788617886,75.2540650406504 4.928861788617886,75.2540650406504 4.928861788617886,75.2540650406504 4.928861788617886,75.2540650406504 4.928861788617886,75.2540650406504 4.928861788617886,75.2540650406504 4.928861788617886,75.2540650406504 4.928861788617886,75.2540650406504 4.928861788617886,75.2540650406504 4.928861788617886,75.2540650406504 4.928861788617886,75.2540650406504 4.928861788617886,75.2540650406504 4.928861788617886,75.2540650406504 4.928861788617886,75.2540650406504 4.928861788617886,75.2540650406504 4.928861788617886,75.2540650406504 4.928861788617886,75.2540650406504 4.928861788617886,75.2540650406504 4.928861788617886,75.2540650406504 4.928861788617886,75.2540650406504 4.928861788617886,75.2540650406504 4.928861788617886,75.2540650406504 4.928861788617886,75.2540650406504 4.928861788617886,75.30487804878048 4.928861788617886,75.30487804878048 4.928861788617886,75.30487804878048 4.979674796747967,75.30487804878048 5.030487804878049,75.30487804878048 5.08130081300813,75.30487804878048 5.182926829268292,75.2540650406504 5.335365853658536,75.20325203252033 5.538617886178861,75.05081300813008 5.7926829268292686,74.84756097560975 6.097560975609756,74.59349593495935 6.402439024390244,74.28861788617886 6.758130081300813,73.83130081300813 7.164634146341463,73.3739837398374 7.469512195121951,72.91666666666667 7.82520325203252,72.45934959349593 8.18089430894309,71.95121951219512 8.485772357723578,71.4430894308943 8.841463414634147,70.9349593495935 9.146341463414634,70.3760162601626" fill="none" stroke="black" stroke-width="0.6"></polyline><polyline points="9.146341463414634,70.3760162601626 9.451219512195122,69.91869918699187 9.705284552845528,69.41056910569105 9.959349593495935,68.90243902439025 10.16260162601626,68.39430894308943 10.365853658536585,67.88617886178862 10.619918699186991,67.32723577235772 10.772357723577235,66.8191056910569 10.924796747967479,66.36178861788618 11.026422764227641,65.90447154471545 11.128048780487804,65.54878048780488 11.178861788617885,65.2439024390244 11.229674796747966,64.98983739837398 11.229674796747966,64.83739837398373 11.229674796747966,64.6849593495935 11.178861788617885,64.58333333333333 11.128048780487804,64.53252032520325 11.077235772357723,64.48170731707317 11.026422764227641,64.43089430894308 10.924796747967479,64.43089430894308 10.873983739837398,64.43089430894308 10.772357723577235,64.43089430894308 10.670731707317072,64.43089430894308 10.56910569105691,64.53252032520325 10.416666666666666,64.6849593495935 10.264227642276422,64.83739837398373 10.060975609756097,65.09146341463415 9.857723577235772,65.39634146341463 9.654471544715447,65.70121951219512 9.40040650406504,66.0569105691057 9.247967479674797,66.36178861788618 9.095528455284553,66.71747967479675 8.94308943089431,67.1239837398374 8.841463414634147,67.47967479674797 8.790650406504065,67.83536585365853 8.689024390243903,68.1910569105691 8.638211382113822,68.4959349593496 8.58739837398374,68.80081300813008 8.536585365853659,69.15650406504065 8.485772357723578,69.41056910569105 8.434959349593496,69.71544715447155 8.384146341463415,70.02032520325203 8.333333333333334,70.32520325203252 8.333333333333334,70.630081300813 8.231707317073171,70.98577235772358 8.231707317073171,71.29065040650406 8.18089430894309,71.59552845528455 8.130081300813007,71.95121951219512 8.130081300813007,72.20528455284553 8.130081300813007,72.51016260162602 8.130081300813007,72.8150406504065" fill="none" stroke="black" stroke-width="0.6"></polyline><polyline points="8.130081300813007,72.8150406504065 8.130081300813007,73.0691056910569 8.130081300813007,73.32317073170732 8.18089430894309,73.6280487804878 8.282520325203253,73.8821138211382 8.384146341463415,74.13617886178862 8.485772357723578,74.39024390243902 8.536585365853659,74.49186991869918 8.58739837398374,74.59349593495935 8.739837398373984,74.79674796747967 8.94308943089431,75 9.146341463414634,75.15243902439025 9.34959349593496,75.2540650406504 9.603658536585366,75.35569105691057 9.857723577235772,75.40650406504065 10.16260162601626,75.40650406504065 10.518292682926829,75.40650406504065 10.823170731707316,75.30487804878048 11.128048780487804,75.15243902439025 11.534552845528456,74.94918699186992 11.839430894308943,74.7459349593496 12.195121951219512,74.49186991869918 12.550813008130081,74.1869918699187 12.90650406504065,73.8821138211382 13.211382113821138,73.57723577235772 13.516260162601625,73.22154471544715 13.770325203252032,72.91666666666667 13.922764227642276,72.5609756097561 14.1260162601626,72.20528455284553 14.227642276422763,71.84959349593495 14.329268292682926,71.49390243902438 14.430894308943088,71.13821138211382 14.430894308943088,70.83333333333333 14.430894308943088,70.630081300813 14.430894308943088,70.47764227642276 14.380081300813007,70.42682926829268 14.329268292682926,70.3760162601626 14.278455284552845,70.3760162601626 14.227642276422763,70.32520325203252 14.1260162601626,70.32520325203252 14.024390243902438,70.32520325203252 13.922764227642276,70.3760162601626 13.770325203252032,70.47764227642276 13.617886178861788,70.57926829268293 13.465447154471544,70.73170731707317 13.262195121951219,70.9349593495935 13.109756097560975,71.13821138211382 12.90650406504065,71.34146341463415 12.754065040650406,71.64634146341463 12.601626016260163,71.95121951219512 12.449186991869919,72.2560975609756" fill="none" stroke="black" stroke-width="0.6"></polyline><polyline points="12.449186991869919,72.2560975609756 12.296747967479675,72.5609756097561 12.195121951219512,72.86585365853658 12.144308943089431,73.17073170731707 12.09349593495935,73.47560975609755 12.042682926829269,73.72967479674797 11.991869918699187,73.9329268292683 11.991869918699187,74.1869918699187 11.991869918699187,74.33943089430895 11.991869918699187,74.49186991869918 12.042682926829269,74.59349593495935 12.09349593495935,74.64430894308943 12.144308943089431,74.79674796747967 12.245934959349594,74.89837398373983 12.398373983739837,75.05081300813008 12.5,75.15243902439025 12.703252032520325,75.2540650406504 12.855691056910569,75.35569105691057 13.109756097560975,75.45731707317073 13.3130081300813,75.5081300813008 13.617886178861788,75.5589430894309 13.922764227642276,75.5589430894309 14.329268292682926,75.5589430894309 14.735772357723578,75.5589430894309 15.142276422764228,75.40650406504065 15.59959349593496,75.2540650406504 16.10772357723577,75.05081300813008 16.565040650406505,74.84756097560975 17.022357723577237,74.59349593495935 17.479674796747968,74.33943089430895 17.88617886178862,73.98373983739837 18.29268292682927,73.6280487804878 18.69918699186992,73.17073170731707 19.054878048780488,72.71341463414635 19.410569105691057,72.20528455284553 19.664634146341463,71.7479674796748 19.867886178861788,71.34146341463415 20.020325203252032,70.8841463414634 20.172764227642276,70.47764227642276 20.274390243902438,70.1219512195122 20.3760162601626,69.8170731707317 20.528455284552845,69.51219512195122 20.579268292682926,69.2581300813008 20.68089430894309,69.10569105691057 20.78252032520325,68.95325203252033 20.78252032520325,68.90243902439025 20.833333333333332,68.90243902439025 20.833333333333332,68.90243902439025 20.833333333333332,68.90243902439025 20.833333333333332,68.90243902439025 20.833333333333332,68.90243902439025" fill="none" stroke="black" stroke-width="0.6"></polyline><polyline points="20.833333333333332,68.90243902439025 20.833333333333332,68.90243902439025 20.833333333333332,68.90243902439025 20.833333333333332,68.90243902439025 20.833333333333332,68.90243902439025 20.833333333333332,69.0040650406504 20.833333333333332,69.10569105691057 20.833333333333332,69.2581300813008 20.884146341463413,69.41056910569105 20.884146341463413,69.61382113821138 20.934959349593495,69.8170731707317 20.985772357723576,70.0711382113821 21.036585365853657,70.27439024390243 21.13821138211382,70.52845528455285 21.1890243902439,70.68089430894308 21.239837398373982,70.83333333333333 21.341463414634145,71.08739837398373 21.443089430894307,71.34146341463415 21.59552845528455,71.64634146341463 21.646341463414632,71.84959349593495 21.747967479674795,72.05284552845528 21.798780487804876,72.2560975609756 21.849593495934958,72.40853658536585 21.90040650406504,72.5609756097561 21.95121951219512,72.76422764227642 21.95121951219512,72.86585365853658 21.95121951219512,73.01829268292683 21.95121951219512,73.17073170731707 21.90040650406504,73.32317073170732 21.849593495934958,73.47560975609755 21.747967479674795,73.67886178861788 21.646341463414632,73.83130081300813 21.54471544715447,73.98373983739837 21.341463414634145,74.1869918699187 21.1890243902439,74.33943089430895 20.985772357723576,74.49186991869918 20.73170731707317,74.64430894308943 20.528455284552845,74.7459349593496 20.274390243902438,74.84756097560975 20.071138211382113,74.89837398373983 19.867886178861788,74.94918699186992 19.715447154471544,74.94918699186992 19.61382113821138,74.94918699186992 19.5630081300813,74.94918699186992 19.51219512195122,74.89837398373983 19.461382113821138,74.84756097560975 19.461382113821138,74.7459349593496 19.410569105691057,74.6951219512195 19.410569105691057,74.59349593495935 19.359756097560975,74.4410569105691 19.359756097560975,74.28861788617886" fill="none" stroke="black" stroke-width="0.6"></polyline><polyline points="19.359756097560975,74.28861788617886 19.359756097560975,74.03455284552845 19.410569105691057,73.83130081300813 19.51219512195122,73.52642276422765 19.664634146341463,73.22154471544715 19.867886178861788,72.91666666666667 20.121951219512194,72.61178861788618 20.3760162601626,72.3069105691057 20.68089430894309,72.05284552845528 20.985772357723576,71.7479674796748 21.341463414634145,71.49390243902438 21.646341463414632,71.29065040650406 22.0020325203252,71.03658536585365 22.40853658536585,70.73170731707317 22.865853658536587,70.42682926829268 23.323170731707318,70.1219512195122 23.83130081300813,69.76626016260163 24.339430894308943,69.41056910569105 24.796747967479675,68.95325203252033 25.254065040650406,68.54674796747967 25.558943089430894,68.1910569105691 25.8130081300813,67.88617886178862 26.016260162601625,67.58130081300813 26.16869918699187,67.3780487804878 26.321138211382113,67.17479674796748" fill="none" stroke="black" stroke-width="0.6"></polyline><polyline points="6.3516260162601625,95.8841463414634 6.3516260162601625,95.83333333333333 6.300813008130081,95.83333333333333 6.300813008130081,95.78252032520325 6.300813008130081,95.73170731707317 6.300813008130081,95.73170731707317 6.300813008130081,95.68089430894308 6.300813008130081,95.68089430894308 6.300813008130081,95.630081300813 6.402439024390244,95.57926829268293 6.504065040650406,95.47764227642276 6.65650406504065,95.3760162601626 6.859756097560975,95.27439024390243 7.113821138211382,95.1219512195122 7.520325203252033,94.86788617886178 7.926829268292683,94.51219512195122 8.434959349593496,94.15650406504065 8.94308943089431,93.69918699186992 9.451219512195122,93.1910569105691 10.010162601626016,92.6829268292683 10.518292682926829,92.17479674796748 10.924796747967479,91.71747967479675 11.331300813008129,91.26016260162602 11.788617886178862,90.70121951219512 12.195121951219512,90.14227642276423 12.601626016260163,89.58333333333333 12.90650406504065,88.97357723577235 13.211382113821138,88.3130081300813 13.465447154471544,87.55081300813008 13.71951219512195,86.89024390243902 13.973577235772357,86.22967479674797 14.1260162601626,85.51829268292683 14.227642276422763,85.01016260162602 14.329268292682926,84.5020325203252 14.329268292682926,83.9430894308943 14.329268292682926,83.48577235772358 14.329268292682926,83.07926829268293 14.227642276422763,82.72357723577235 14.1260162601626,82.41869918699187 14.07520325203252,82.21544715447155 13.922764227642276,82.0630081300813 13.871951219512194,81.96138211382113 13.770325203252032,81.91056910569105 13.66869918699187,81.91056910569105 13.567073170731707,81.91056910569105 13.414634146341463,81.91056910569105 13.262195121951219,81.96138211382113 13.160569105691057,82.0630081300813 13.008130081300813,82.21544715447155 12.804878048780488,82.52032520325203 12.601626016260163,82.8760162601626" fill="none" stroke="black" stroke-width="0.6"></polyline><polyline points="12.601626016260163,82.8760162601626 12.347560975609756,83.28252032520325 12.042682926829269,83.79065040650406 11.788617886178862,84.29878048780488 11.534552845528456,84.85772357723577 11.229674796747966,85.5691056910569 10.97560975609756,86.1280487804878 10.772357723577235,86.6869918699187 10.619918699186991,87.2459349593496 10.467479674796747,87.7540650406504 10.416666666666666,88.26219512195122 10.315040650406504,88.8211382113821 10.264227642276422,89.32926829268293 10.264227642276422,89.78658536585365 10.264227642276422,90.24390243902438 10.264227642276422,90.65040650406503 10.315040650406504,91.10772357723577 10.365853658536585,91.5650406504065 10.416666666666666,91.92073170731707 10.467479674796747,92.32723577235772 10.518292682926829,92.6829268292683 10.619918699186991,93.08943089430895 10.721544715447154,93.4451219512195 10.823170731707316,93.80081300813008 10.97560975609756,94.05487804878048 11.077235772357723,94.2581300813008 11.280487804878048,94.46138211382113 11.483739837398375,94.61382113821138 11.6869918699187,94.76626016260163 11.941056910569106,94.91869918699187 12.144308943089431,94.96951219512195 12.398373983739837,95.02032520325203 12.652439024390244,95.02032520325203 12.90650406504065,94.96951219512195 13.160569105691057,94.86788617886178 13.465447154471544,94.66463414634146 13.770325203252032,94.46138211382113 14.07520325203252,94.20731707317073 14.430894308943088,93.90243902439025 14.735772357723578,93.64837398373983 15.040650406504065,93.34349593495935 15.345528455284553,93.03861788617886 15.59959349593496,92.6829268292683 15.904471544715447,92.32723577235772 16.10772357723577,91.97154471544715 16.36178861788618,91.61585365853658 16.565040650406505,91.15853658536585 16.71747967479675,90.70121951219512 16.81910569105691,90.1930894308943 16.920731707317074,89.6849593495935 16.971544715447155,89.32926829268293" fill="none" stroke="black" stroke-width="0.6"></polyline><polyline points="16.971544715447155,89.32926829268293 16.971544715447155,88.97357723577235 16.920731707317074,88.66869918699187 16.81910569105691,88.51626016260163 16.71747967479675,88.46544715447155 16.565040650406505,88.41463414634146 16.41260162601626,88.41463414634146 16.209349593495933,88.46544715447155 15.955284552845528,88.5670731707317 15.701219512195122,88.77032520325203 15.447154471544716,89.02439024390243 15.19308943089431,89.32926829268293 14.939024390243903,89.6849593495935 14.735772357723578,90.09146341463415 14.48170731707317,90.4979674796748 14.329268292682926,90.95528455284553 14.227642276422763,91.36178861788618 14.176829268292682,91.8191056910569 14.176829268292682,92.22560975609755 14.176829268292682,92.58130081300813 14.176829268292682,92.9369918699187 14.227642276422763,93.1910569105691 14.329268292682926,93.4451219512195 14.430894308943088,93.69918699186992 14.53252032520325,93.90243902439025 14.684959349593496,94.05487804878048 14.888211382113822,94.2581300813008 15.091463414634147,94.41056910569105 15.345528455284553,94.51219512195122 15.65040650406504,94.61382113821138 15.955284552845528,94.71544715447155 16.36178861788618,94.71544715447155 16.76829268292683,94.71544715447155 17.17479674796748,94.61382113821138 17.632113821138212,94.46138211382113 18.140243902439025,94.2581300813008 18.648373983739837,94.0040650406504 19.15650406504065,93.69918699186992 19.664634146341463,93.34349593495935 20.071138211382113,92.98780487804878 20.528455284552845,92.53048780487805 20.985772357723576,92.02235772357723 21.443089430894307,91.51422764227642 21.798780487804876,90.90447154471545 22.154471544715445,90.29471544715447 22.40853658536585,89.6341463414634 22.662601626016258,88.97357723577235 22.865853658536587,88.26219512195122 22.96747967479675,87.70325203252033 23.01829268292683,87.1951219512195 23.06910569105691,86.73780487804878" fill="none" stroke="black" stroke-width="0.6"></polyline><polyline points="23.06910569105691,86.73780487804878 23.06910569105691,86.4329268292683 23.119918699186993,86.22967479674797 23.119918699186993,86.17886178861788 23.119918699186993,86.17886178861788 23.119918699186993,86.17886178861788 23.119918699186993,86.17886178861788 23.119918699186993,86.17886178861788 23.119918699186993,86.17886178861788 23.119918699186993,86.33130081300813 23.170731707317074,86.48373983739837 23.221544715447155,86.73780487804878 23.323170731707318,87.04268292682927 23.475609756097562,87.34756097560975 23.628048780487806,87.70325203252033 23.78048780487805,88.0589430894309 23.932926829268293,88.41463414634146 24.13617886178862,88.8719512195122 24.288617886178862,89.32926829268293 24.491869918699187,89.78658536585365 24.64430894308943,90.24390243902438 24.745934959349594,90.65040650406503 24.847560975609756,91.10772357723577 24.94918699186992,91.5650406504065 25,91.97154471544715 25,92.32723577235772 25,92.73373983739837 24.94918699186992,93.03861788617886 24.847560975609756,93.39430894308943 24.64430894308943,93.69918699186992 24.491869918699187,94.0040650406504 24.288617886178862,94.2581300813008 24.034552845528456,94.51219512195122 23.882113821138212,94.61382113821138 23.678861788617887,94.71544715447155 23.42479674796748,94.8170731707317 23.221544715447155,94.8170731707317 23.01829268292683,94.8170731707317 22.764227642276424,94.8170731707317 22.611788617886177,94.71544715447155 22.459349593495933,94.5630081300813 22.35772357723577,94.35975609756098 22.256097560975608,94.10569105691057 22.205284552845526,93.80081300813008 22.205284552845526,93.39430894308943 22.205284552845526,93.03861788617886 22.205284552845526,92.6321138211382 22.256097560975608,92.1239837398374 22.35772357723577,91.61585365853658 22.560975609756095,91.10772357723577 22.764227642276424,90.65040650406503" fill="none" stroke="black" stroke-width="0.6"></polyline><polyline points="22.764227642276424,90.65040650406503 23.01829268292683,90.29471544715447 23.221544715447155,89.9390243902439 23.475609756097562,89.6341463414634 23.729674796747968,89.380081300813 23.983739837398375,89.17682926829268 24.23780487804878,88.97357723577235 24.491869918699187,88.8211382113821 24.847560975609756,88.61788617886178 25.203252032520325,88.41463414634146 25.558943089430894,88.21138211382113 25.965447154471544,87.90650406504065 26.371951219512194,87.60162601626016 26.727642276422763,87.2459349593496 27.083333333333332,86.83943089430895 27.38821138211382,86.28048780487805 27.591463414634145,85.72154471544715 27.693089430894307,85.0609756097561 27.74390243902439,84.40040650406503 27.74390243902439,83.84146341463415 27.74390243902439,83.3841463414634 27.693089430894307,83.07926829268293 27.591463414634145,82.92682926829268 27.4390243902439,82.82520325203252 27.134146341463413,82.82520325203252" fill="none" stroke="black" stroke-width="0.6"></polyline></svg>