<svg height="100" width="100" preserveAspectRatio="xMidYMid meet"><polyline points="50.203252032520325,50.203252032520325 50.203252032520325,50.203252032520325 50.203252032520325,50.203252032520325 50.203252032520325,50.203252032520325 50.203252032520325,50.203252032520325 50.203252032520325,50.203252032520325 50.203252032520325,50.203252032520325 50.203252032520325,50.203252032520325 50.203252032520325,50.203252032520325 50.203252032520325,50.203252032520325 50.203252032520325,50.203252032520325 50.203252032520325,50.203252032520325 50.203252032520325,50.203252032520325 50.2540650406504,50.203252032520325 50.30487804878049,50.203252032520325 50.355691056910565,50.15243902439024 50.45731707317073,50.10162601626016 50.55894308943089,50.05081300813008 50.66056910569105,50 50.71138211382114,50 50.86382113821138,49.89837398373984 51.016260162601625,49.796747967479675 51.168699186991866,49.69512195121951 51.32113821138211,49.59349593495935 51.47357723577235,49.49186991869919 51.6260162601626,49.390243902439025 51.72764227642276,49.28861788617886 51.829268292682926,49.1869918699187 51.880081300813,49.136178861788615 51.93089430894309,49.03455284552845 52.03252032520325,48.93292682926829 52.083333333333336,48.83130081300813 52.13414634146341,48.729674796747965 52.1849593495935,48.67886178861789 52.1849593495935,48.577235772357724 52.235772357723576,48.47560975609756 52.28658536585366,48.3739837398374 52.28658536585366,48.27235772357724 52.33739837398374,48.170731707317074 52.33739837398374,48.01829268292683 52.38821138211382,47.916666666666664 52.38821138211382,47.8150406504065 52.38821138211382,47.66260162601626 52.38821138211382,47.5609756097561 52.38821138211382,47.459349593495936 52.38821138211382,47.357723577235774 52.38821138211382,47.25609756097561 52.38821138211382,47.20528455284553 52.33739837398374,47.103658536585364 52.28658536585366,47.052845528455286 52.235772357723576,46.951219512195124" fill="none" stroke="black" stroke-width="0.6"></polyline><polyline points="52.235772357723576,46.951219512195124 52.1849593495935,46.90040650406504 52.03252032520325,46.798780487804876 51.981707317073166,46.697154471544714 51.880081300813,46.646341463414636 51.77845528455284,46.59552845528455 51.67682926829268,46.54471544715447 51.67682926829268,46.49390243902439 51.575203252032516,46.44308943089431 51.52439024390244,46.44308943089431 51.47357723577235,46.392276422764226 51.37195121951219,46.34146341463415 51.32113821138211,46.290650406504064 51.11788617886179,46.239837398373986 51.016260162601625,46.1890243902439 50.91463414634146,46.13821138211382 50.762195121951216,46.08739837398374 50.66056910569105,46.03658536585366 50.50813008130081,46.03658536585366 50.40650406504065,45.985772357723576 50.2540650406504,45.985772357723576 50.15243902439024,45.9349593495935 49.949186991869915,45.9349593495935 49.796747967479675,45.9349593495935 49.69512195121951,45.9349593495935 49.542682926829265,45.9349593495935 49.4410569105691,45.9349593495935 49.390243902439025,45.985772357723576 49.1869918699187,45.985772357723576 48.983739837398375,46.08739837398374 48.83130081300813,46.13821138211382 48.52642276422764,46.239837398373986 48.323170731707314,46.290650406504064 48.170731707317074,46.392276422764226 48.06910569105691,46.44308943089431 48.01829268292683,46.44308943089431 47.96747967479675,46.49390243902439 47.8150406504065,46.54471544715447 47.71341463414634,46.646341463414636 47.66260162601626,46.697154471544714 47.5609756097561,46.798780487804876 47.40853658536585,46.951219512195124 47.357723577235774,47.052845528455286 47.25609756097561,47.15447154471545 47.20528455284553,47.20528455284553 47.052845528455286,47.30691056910569 47.0020325203252,47.459349593495936 46.90040650406504,47.5609756097561 46.7479674796748,47.71341463414634 46.646341463414636,47.86585365853659 46.49390243902439,48.06910569105691" fill="none" stroke="black" stroke-width="0.6"></polyline><polyline points="46.49390243902439,48.06910569105691 46.44308943089431,48.170731707317074 46.34146341463415,48.27235772357724 46.290650406504064,48.323170731707314 46.239837398373986,48.42479674796748 46.13821138211382,48.52642276422764 46.08739837398374,48.6280487804878 46.03658536585366,48.729674796747965 45.985772357723576,48.88211382113821 45.9349593495935,49.03455284552845 45.88414634146341,49.136178861788615 45.833333333333336,49.1869918699187 45.833333333333336,49.28861788617886 45.833333333333336,49.33943089430894 45.78252032520325,49.49186991869919 45.78252032520325,49.542682926829265 45.73170731707317,49.64430894308943 45.73170731707317,49.796747967479675 45.68089430894309,49.949186991869915 45.68089430894309,50.05081300813008 45.68089430894309,50.203252032520325 45.68089430894309,50.355691056910565 45.68089430894309,50.45731707317073 45.68089430894309,50.609756097560975 45.68089430894309,50.71138211382114 45.68089430894309,50.71138211382114 45.68089430894309,50.8130081300813 45.68089430894309,50.91463414634146 45.68089430894309,50.91463414634146 45.68089430894309,51.016260162601625 45.68089430894309,51.0670731707317 45.68089430894309,51.11788617886179 45.73170731707317,51.27032520325203 45.73170731707317,51.32113821138211 45.73170731707317,51.422764227642276 45.73170731707317,51.47357723577235 45.73170731707317,51.52439024390244 45.78252032520325,51.6260162601626 45.78252032520325,51.67682926829268 45.78252032520325,51.72764227642276 45.833333333333336,51.829268292682926 45.833333333333336,51.93089430894309 45.88414634146341,52.03252032520325 45.88414634146341,52.13414634146341 45.9349593495935,52.235772357723576 45.985772357723576,52.33739837398374 46.03658536585366,52.4390243902439 46.08739837398374,52.540650406504064 46.13821138211382,52.59146341463415 46.1890243902439,52.69308943089431 46.239837398373986,52.79471544715447" fill="none" stroke="black" stroke-width="0.6"></polyline><polyline points="46.239837398373986,52.79471544715447 46.290650406504064,52.84552845528455 46.34146341463415,52.896341463414636 46.392276422764226,52.9979674796748 46.44308943089431,53.048780487804876 46.49390243902439,53.048780487804876 46.54471544715447,53.09959349593496 46.646341463414636,53.15040650406504 46.697154471544714,53.201219512195124 46.798780487804876,53.2520325203252 46.90040650406504,53.302845528455286 46.90040650406504,53.353658536585364 46.951219512195124,53.353658536585364 47.0020325203252,53.40447154471545 47.103658536585364,53.45528455284553 47.25609756097561,53.55691056910569 47.357723577235774,53.55691056910569 47.459349593495936,53.607723577235774 47.5609756097561,53.709349593495936 47.71341463414634,53.760162601626014 47.8150406504065,53.8109756097561 47.96747967479675,53.86178861788618 48.11991869918699,53.91260162601626 48.22154471544715,53.96341463414634 48.323170731707314,54.014227642276424 48.42479674796748,54.0650406504065 48.52642276422764,54.0650406504065 48.577235772357724,54.11585365853659 48.729674796747965,54.11585365853659 48.78048780487805,54.166666666666664 48.83130081300813,54.166666666666664 48.93292682926829,54.166666666666664 48.983739837398375,54.21747967479675 49.08536585365854,54.21747967479675 49.1869918699187,54.21747967479675 49.33943089430894,54.26829268292683 49.4410569105691,54.26829268292683 49.59349593495935,54.26829268292683 49.796747967479675,54.31910569105691 49.949186991869915,54.31910569105691 50.05081300813008,54.31910569105691 50.2540650406504,54.31910569105691 50.40650406504065,54.36991869918699 50.55894308943089,54.36991869918699 50.762195121951216,54.36991869918699 50.96544715447154,54.36991869918699 51.11788617886179,54.36991869918699 51.32113821138211,54.36991869918699 51.47357723577235,54.36991869918699 51.52439024390244,54.36991869918699 51.67682926829268,54.31910569105691" fill="none" stroke="black" stroke-width="0.6"></polyline><polyline points="51.67682926829268,54.31910569105691 51.829268292682926,54.31910569105691 51.981707317073166,54.31910569105691 52.13414634146341,54.26829268292683 52.28658536585366,54.21747967479675 52.4390243902439,54.21747967479675 52.59146341463415,54.166666666666664 52.74390243902439,54.11585365853659 52.84552845528455,54.0650406504065 52.9979674796748,54.014227642276424 53.09959349593496,53.96341463414634 53.201219512195124,53.86178861788618 53.353658536585364,53.8109756097561 53.45528455284553,53.709349593495936 53.55691056910569,53.607723577235774 53.709349593495936,53.50609756097561 53.8109756097561,53.353658536585364 53.91260162601626,53.2520325203252 54.0650406504065,53.048780487804876 54.21747967479675,52.896341463414636 54.36991869918699,52.74390243902439 54.52235772357724,52.59146341463415 54.6239837398374,52.489837398373986 54.72560975609756,52.38821138211382 54.77642276422764,52.28658536585366 54.827235772357724,52.1849593495935 54.8780487804878,52.13414634146341 54.92886178861789,52.03252032520325 54.979674796747965,51.93089430894309 55.03048780487805,51.880081300813 55.03048780487805,51.829268292682926 55.13211382113821,51.67682926829268 55.13211382113821,51.6260162601626 55.18292682926829,51.575203252032516 55.233739837398375,51.52439024390244 55.233739837398375,51.422764227642276 55.28455284552845,51.37195121951219 55.386178861788615,51.21951219512195 55.386178861788615,51.168699186991866 55.53861788617886,50.91463414634146 55.58943089430894,50.8130081300813 55.6910569105691,50.66056910569105 55.74186991869919,50.55894308943089 55.792682926829265,50.40650406504065 55.89430894308943,50.2540650406504 55.89430894308943,50.15243902439024 55.94512195121951,50 55.99593495934959,49.84756097560975 56.046747967479675,49.74593495934959 56.046747967479675,49.64430894308943 56.09756097560975,49.4410569105691" fill="none" stroke="black" stroke-width="0.6"></polyline><polyline points="56.09756097560975,49.4410569105691 56.14837398373984,49.33943089430894 56.14837398373984,49.23780487804878 56.14837398373984,49.1869918699187 56.14837398373984,49.03455284552845 56.199186991869915,48.88211382113821 56.199186991869915,48.78048780487805 56.199186991869915,48.6280487804878 56.199186991869915,48.47560975609756 56.199186991869915,48.3739837398374 56.199186991869915,48.22154471544715 56.199186991869915,48.06910569105691 56.199186991869915,47.916666666666664 56.199186991869915,47.764227642276424 56.199186991869915,47.61178861788618 56.199186991869915,47.510162601626014 56.199186991869915,47.40853658536585 56.14837398373984,47.25609756097561 56.14837398373984,47.20528455284553 56.14837398373984,47.103658536585364 56.09756097560975,46.90040650406504 56.09756097560975,46.7479674796748 56.046747967479675,46.59552845528455 55.99593495934959,46.49390243902439 55.99593495934959,46.34146341463415 55.94512195121951,46.239837398373986 55.89430894308943,46.08739837398374 55.792682926829265,45.985772357723576 55.792682926829265,45.9349593495935 55.74186991869919,45.88414634146341 55.6910569105691,45.78252032520325 55.640243902439025,45.68089430894309 55.58943089430894,45.579268292682926 55.53861788617886,45.52845528455285 55.48780487804878,45.47764227642276 55.48780487804878,45.42682926829268 55.386178861788615,45.325203252032516 55.386178861788615,45.27439024390244 55.33536585365854,45.22357723577235 55.28455284552845,45.172764227642276 55.18292682926829,45.12195121951219 55.13211382113821,45.07113821138211 55.03048780487805,44.96951219512195 54.92886178861789,44.86788617886179 54.827235772357724,44.766260162601625 54.72560975609756,44.66463414634146 54.52235772357724,44.512195121951216 54.47154471544715,44.46138211382114 54.36991869918699,44.46138211382114 54.31910569105691,44.41056910569105 54.166666666666664,44.30894308943089" fill="none" stroke="black" stroke-width="0.6"></polyline><polyline points="54.166666666666664,44.30894308943089 54.0650406504065,44.20731707317073 53.91260162601626,44.105691056910565 53.8109756097561,44.05487804878049 53.65853658536585,43.953252032520325 53.40447154471545,43.85162601626016 53.2520325203252,43.75 53.201219512195124,43.75 53.09959349593496,43.699186991869915 52.9979674796748,43.64837398373984 52.79471544715447,43.59756097560975 52.69308943089431,43.546747967479675 52.59146341463415,43.546747967479675 52.33739837398374,43.49593495934959 52.083333333333336,43.44512195121951 51.829268292682926,43.39430894308943 51.575203252032516,43.34349593495935 51.32113821138211,43.34349593495935 51.11788617886179,43.292682926829265 50.86382113821138,43.292682926829265 50.66056910569105,43.24186991869919 50.50813008130081,43.24186991869919 50.355691056910565,43.1910569105691 50.2540650406504,43.1910569105691 50.15243902439024,43.1910569105691 50.05081300813008,43.1910569105691 49.84756097560975,43.140243902439025 49.74593495934959,43.140243902439025 49.64430894308943,43.140243902439025 49.542682926829265,43.140243902439025 49.4410569105691,43.140243902439025 49.33943089430894,43.140243902439025 49.1869918699187,43.140243902439025 49.136178861788615,43.140243902439025 49.08536585365854,43.1910569105691 48.93292682926829,43.1910569105691 48.78048780487805,43.24186991869919 48.577235772357724,43.292682926829265 48.42479674796748,43.34349593495935 48.22154471544715,43.39430894308943 48.06910569105691,43.44512195121951 47.8150406504065,43.546747967479675 47.61178861788618,43.64837398373984 47.5609756097561,43.64837398373984 47.40853658536585,43.75 47.30691056910569,43.80081300813008 47.15447154471545,43.85162601626016 47.052845528455286,43.85162601626016 46.90040650406504,43.90243902439024 46.7479674796748,44.0040650406504 46.646341463414636,44.05487804878049" fill="none" stroke="black" stroke-width="0.6"></polyline><polyline points="46.646341463414636,44.05487804878049 46.59552845528455,44.105691056910565 46.49390243902439,44.105691056910565 46.44308943089431,44.15650406504065 46.392276422764226,44.15650406504065 46.34146341463415,44.20731707317073 46.239837398373986,44.25813008130081 46.1890243902439,44.30894308943089 46.08739837398374,44.30894308943089 45.985772357723576,44.41056910569105 45.88414634146341,44.46138211382114 45.78252032520325,44.5630081300813 45.73170731707317,44.5630081300813 45.579268292682926,44.66463414634146 45.47764227642276,44.766260162601625 45.42682926829268,44.8170731707317 45.27439024390244,44.918699186991866 45.172764227642276,45.02032520325203 45.07113821138211,45.12195121951219 44.96951219512195,45.22357723577235 44.86788617886179,45.27439024390244 44.71544715447154,45.42682926829268 44.61382113821138,45.52845528455285 44.5630081300813,45.579268292682926 44.512195121951216,45.63008130081301 44.46138211382114,45.68089430894309 44.41056910569105,45.73170731707317 44.359756097560975,45.78252032520325 44.30894308943089,45.833333333333336 44.25813008130081,45.9349593495935 44.105691056910565,46.03658536585366 44.0040650406504,46.1890243902439 43.90243902439024,46.34146341463415 43.75,46.49390243902439 43.59756097560975,46.697154471544714 43.49593495934959,46.84959349593496 43.39430894308943,46.951219512195124 43.34349593495935,47.0020325203252 43.292682926829265,47.15447154471545 43.1910569105691,47.25609756097561 43.140243902439025,47.357723577235774 43.08943089430894,47.459349593495936 43.03861788617886,47.5609756097561 42.98780487804878,47.66260162601626 42.9369918699187,47.764227642276424 42.886178861788615,47.86585365853659 42.83536585365854,48.01829268292683 42.78455284552845,48.11991869918699 42.78455284552845,48.170731707317074 42.78455284552845,48.22154471544715 42.733739837398375,48.27235772357724" fill="none" stroke="black" stroke-width="0.6"></polyline><polyline points="42.733739837398375,48.27235772357724 42.733739837398375,48.323170731707314 42.68292682926829,48.42479674796748 42.68292682926829,48.52642276422764 42.63211382113821,48.6280487804878 42.63211382113821,48.78048780487805 42.63211382113821,48.83130081300813 42.58130081300813,48.93292682926829 42.58130081300813,49.03455284552845 42.58130081300813,49.08536585365854 42.58130081300813,49.136178861788615 42.53048780487805,49.23780487804878 42.53048780487805,49.33943089430894 42.53048780487805,49.49186991869919 42.479674796747965,49.64430894308943 42.479674796747965,49.74593495934959 42.479674796747965,49.796747967479675 42.479674796747965,49.949186991869915 42.479674796747965,50 42.479674796747965,50.05081300813008 42.479674796747965,50.15243902439024 42.479674796747965,50.2540650406504 42.479674796747965,50.355691056910565 42.479674796747965,50.45731707317073 42.479674796747965,50.609756097560975 42.479674796747965,50.71138211382114 42.479674796747965,50.762195121951216 42.479674796747965,50.91463414634146 42.479674796747965,51.016260162601625 42.479674796747965,51.0670731707317 42.479674796747965,51.168699186991866 42.53048780487805,51.27032520325203 42.53048780487805,51.32113821138211 42.53048780487805,51.37195121951219 42.53048780487805,51.47357723577235 42.58130081300813,51.575203252032516 42.63211382113821,51.72764227642276 42.63211382113821,51.880081300813 42.63211382113821,51.93089430894309 42.68292682926829,51.981707317073166 42.68292682926829,52.03252032520325 42.733739837398375,52.1849593495935 42.733739837398375,52.28658536585366 42.733739837398375,52.33739837398374 42.78455284552845,52.38821138211382 42.78455284552845,52.489837398373986 42.83536585365854,52.642276422764226 42.886178861788615,52.79471544715447 42.9369918699187,52.947154471544714 42.98780487804878,53.15040650406504 42.98780487804878,53.302845528455286" fill="none" stroke="black" stroke-width="0.6"></polyline><polyline points="42.98780487804878,53.302845528455286 43.08943089430894,53.607723577235774 43.08943089430894,53.760162601626014 43.140243902439025,53.86178861788618 43.140243902439025,53.91260162601626 43.1910569105691,54.11585365853659 43.24186991869919,54.166666666666664 43.292682926829265,54.31910569105691 43.292682926829265,54.36991869918699 43.34349593495935,54.47154471544715 43.34349593495935,54.52235772357724 43.44512195121951,54.77642276422764 43.49593495934959,54.827235772357724 43.546747967479675,54.92886178861789 43.59756097560975,54.979674796747965 43.64837398373984,55.13211382113821 43.699186991869915,55.233739837398375 43.75,55.28455284552845 43.80081300813008,55.386178861788615 43.80081300813008,55.48780487804878 43.90243902439024,55.58943089430894 44.0040650406504,55.74186991869919 44.105691056910565,55.89430894308943 44.15650406504065,55.99593495934959 44.20731707317073,56.046747967479675 44.30894308943089,56.199186991869915 44.359756097560975,56.25 44.512195121951216,56.40243902439024 44.61382113821138,56.5040650406504 44.71544715447154,56.605691056910565 44.8170731707317,56.70731707317073 44.86788617886179,56.75813008130081 44.918699186991866,56.80894308943089 45.02032520325203,56.91056910569105 45.07113821138211,56.96138211382114 45.12195121951219,56.96138211382114 45.172764227642276,57.012195121951216 45.325203252032516,57.11382113821138 45.42682926829268,57.21544715447154 45.52845528455285,57.3170731707317 45.68089430894309,57.418699186991866 45.833333333333336,57.46951219512195 45.9349593495935,57.57113821138211 46.08739837398374,57.672764227642276 46.290650406504064,57.77439024390244 46.44308943089431,57.8760162601626 46.59552845528455,57.97764227642276 46.7479674796748,58.079268292682926 47.0020325203252,58.231707317073166 47.20528455284553,58.28252032520325 47.357723577235774,58.38414634146341" fill="none" stroke="black" stroke-width="0.6"></polyline><polyline points="47.357723577235774,58.38414634146341 47.5609756097561,58.485772357723576 47.764227642276424,58.536585365853654 47.86585365853659,58.58739837398374 47.96747967479675,58.58739837398374 48.170731707317074,58.6890243902439 48.3739837398374,58.6890243902439 48.52642276422764,58.739837398373986 48.78048780487805,58.790650406504064 48.83130081300813,58.790650406504064 48.93292682926829,58.790650406504064 49.136178861788615,58.790650406504064 49.28861788617886,58.84146341463415 49.49186991869919,58.84146341463415 49.69512195121951,58.84146341463415 49.89837398373984,58.84146341463415 50.10162601626016,58.84146341463415 50.203252032520325,58.84146341463415 50.30487804878049,58.84146341463415 50.45731707317073,58.84146341463415 50.71138211382114,58.84146341463415 50.8130081300813,58.84146341463415 50.91463414634146,58.84146341463415 51.0670731707317,58.84146341463415 51.21951219512195,58.84146341463415 51.422764227642276,58.84146341463415 51.52439024390244,58.84146341463415 51.67682926829268,58.84146341463415 51.93089430894309,58.790650406504064 52.03252032520325,58.739837398373986 52.13414634146341,58.739837398373986 52.28658536585366,58.739837398373986 52.38821138211382,58.6890243902439 52.642276422764226,58.63821138211382 52.74390243902439,58.63821138211382 52.84552845528455,58.63821138211382 53.048780487804876,58.58739837398374 53.2520325203252,58.485772357723576 53.50609756097561,58.43495934959349 53.709349593495936,58.33333333333333 53.96341463414634,58.28252032520325 54.166666666666664,58.18089430894309 54.420731707317074,58.02845528455284 54.67479674796748,57.92682926829268 54.8780487804878,57.77439024390244 54.979674796747965,57.72357723577235 55.08130081300813,57.672764227642276 55.233739837398375,57.57113821138211 55.386178861788615,57.46951219512195 55.48780487804878,57.36788617886179 55.58943089430894,57.3170731707317" fill="none" stroke="black" stroke-width="0.6"></polyline><polyline points="55.58943089430894,57.3170731707317 55.74186991869919,57.16463414634146 55.84349593495935,57.0630081300813 55.89430894308943,57.012195121951216 56.046747967479675,56.859756097560975 56.14837398373984,56.80894308943089 56.25,56.65650406504065 56.35162601626016,56.605691056910565 56.40243902439024,56.55487804878049 56.55487804878049,56.35162601626016 56.70731707317073,56.199186991869915 56.80894308943089,56.09756097560975 56.96138211382114,55.89430894308943 57.11382113821138,55.74186991869919 57.21544715447154,55.58943089430894 57.266260162601625,55.53861788617886 57.3170731707317,55.4369918699187 57.46951219512195,55.28455284552845 57.52032520325203,55.18292682926829 57.57113821138211,55.08130081300813 57.672764227642276,54.979674796747965 57.72357723577235,54.8780487804878 57.825203252032516,54.77642276422764 57.97764227642276,54.573170731707314 58.02845528455284,54.420731707317074 58.130081300813,54.31910569105691 58.28252032520325,54.014227642276424 58.43495934959349,53.760162601626014 58.63821138211382,53.50609756097561 58.790650406504064,53.201219512195124 58.94308943089431,52.896341463414636 59.09552845528455,52.59146341463415 59.2479674796748,52.28658536585366 59.34959349593496,52.03252032520325 59.5020325203252,51.575203252032516 59.603658536585364,51.27032520325203 59.65447154471545,51.016260162601625 59.75609756097561,50.71138211382114 59.80691056910569,50.40650406504065 59.857723577235774,50.10162601626016 59.959349593495936,49.69512195121951 60.010162601626014,49.390243902439025 60.0609756097561,49.03455284552845 60.16260162601626,48.67886178861789 60.16260162601626,48.3739837398374 60.21341463414634,48.06910569105691 60.21341463414634,47.764227642276424 60.264227642276424,47.459349593495936 60.264227642276424,47.30691056910569 60.264227642276424,47.15447154471545 60.264227642276424,46.84959349593496" fill="none" stroke="black" stroke-width="0.6"></polyline><polyline points="60.264227642276424,46.84959349593496 60.21341463414634,46.59552845528455 60.16260162601626,46.290650406504064 60.11178861788618,45.985772357723576 60.0609756097561,45.73170731707317 60.010162601626014,45.47764227642276 59.959349593495936,45.22357723577235 59.857723577235774,45.02032520325203 59.80691056910569,44.766260162601625 59.70528455284553,44.5630081300813 59.65447154471545,44.359756097560975 59.603658536585364,44.25813008130081 59.552845528455286,44.05487804878049 59.451219512195124,43.80081300813008 59.34959349593496,43.64837398373984 59.298780487804876,43.44512195121951 59.2479674796748,43.292682926829265 59.197154471544714,43.24186991869919 59.09552845528455,43.03861788617886 59.09552845528455,42.98780487804878 59.04471544715447,42.9369918699187 58.94308943089431,42.78455284552845 58.892276422764226,42.63211382113821 58.790650406504064,42.479674796747965 58.6890243902439,42.3780487804878 58.63821138211382,42.327235772357724 58.58739837398374,42.17479674796748 58.485772357723576,42.073170731707314 58.38414634146341,41.920731707317074 58.33333333333333,41.81910569105691 58.231707317073166,41.71747967479675 58.130081300813,41.61585365853659 58.02845528455284,41.514227642276424 57.92682926829268,41.41260162601626 57.825203252032516,41.3109756097561 57.672764227642276,41.15853658536585 57.57113821138211,41.107723577235774 57.46951219512195,41.00609756097561 57.36788617886179,40.90447154471545 57.3170731707317,40.853658536585364 57.266260162601625,40.802845528455286 57.21544715447154,40.802845528455286 57.11382113821138,40.701219512195124 57.012195121951216,40.59959349593496 56.859756097560975,40.548780487804876 56.75813008130081,40.447154471544714 56.605691056910565,40.34552845528455 56.40243902439024,40.24390243902439 56.25,40.142276422764226 56.14837398373984,40.09146341463415 55.99593495934959,39.989837398373986" fill="none" stroke="black" stroke-width="0.6"></polyline><polyline points="55.99593495934959,39.989837398373986 55.94512195121951,39.9390243902439 55.84349593495935,39.9390243902439 55.640243902439025,39.83739837398374 55.386178861788615,39.735772357723576 55.18292682926829,39.63414634146341 54.92886178861789,39.583333333333336 54.52235772357724,39.48170731707317 54.26829268292683,39.43089430894309 54.166666666666664,39.38008130081301 53.91260162601626,39.329268292682926 53.8109756097561,39.27845528455285 53.709349593495936,39.27845528455285 53.50609756097561,39.176829268292686 53.2520325203252,39.1260162601626 53.048780487804876,39.07520325203252 52.84552845528455,39.02439024390244 52.540650406504064,38.97357723577235 52.28658536585366,38.97357723577235 52.1849593495935,38.922764227642276 51.981707317073166,38.922764227642276 51.829268292682926,38.922764227642276 51.6260162601626,38.922764227642276 51.21951219512195,38.922764227642276 50.91463414634146,38.922764227642276 50.66056910569105,38.922764227642276 50.203252032520325,38.922764227642276 49.949186991869915,38.922764227642276 49.796747967479675,38.97357723577235 49.59349593495935,38.97357723577235 49.1869918699187,39.02439024390244 48.88211382113821,39.07520325203252 48.577235772357724,39.1260162601626 48.27235772357724,39.176829268292686 47.96747967479675,39.22764227642276 47.764227642276424,39.27845528455285 47.66260162601626,39.329268292682926 47.40853658536585,39.38008130081301 47.25609756097561,39.38008130081301 47.0020325203252,39.43089430894309 46.798780487804876,39.48170731707317 46.697154471544714,39.53252032520325 46.59552845528455,39.53252032520325 46.49390243902439,39.583333333333336 46.392276422764226,39.583333333333336 46.290650406504064,39.63414634146341 46.1890243902439,39.6849593495935 45.985772357723576,39.735772357723576 45.78252032520325,39.83739837398374 45.68089430894309,39.88821138211382 45.52845528455285,39.9390243902439" fill="none" stroke="black" stroke-width="0.6"></polyline><polyline points="45.52845528455285,39.9390243902439 45.325203252032516,40.040650406504064 45.172764227642276,40.142276422764226 44.96951219512195,40.19308943089431 44.8170731707317,40.29471544715447 44.5630081300813,40.396341463414636 44.41056910569105,40.4979674796748 44.25813008130081,40.59959349593496 44.15650406504065,40.65040650406504 44.0040650406504,40.7520325203252 43.85162601626016,40.853658536585364 43.699186991869915,40.90447154471545 43.59756097560975,41.00609756097561 43.39430894308943,41.209349593495936 43.24186991869919,41.3109756097561 43.1910569105691,41.36178861788618 43.140243902439025,41.41260162601626 43.08943089430894,41.514227642276424 42.98780487804878,41.61585365853659 42.9369918699187,41.61585365853659 42.886178861788615,41.666666666666664 42.78455284552845,41.76829268292683 42.733739837398375,41.81910569105691 42.58130081300813,41.97154471544715 42.53048780487805,42.02235772357724 42.42886178861789,42.1239837398374 42.3780487804878,42.17479674796748 42.327235772357724,42.27642276422764 42.27642276422764,42.327235772357724 42.22560975609756,42.3780487804878 42.1239837398374,42.479674796747965 41.97154471544715,42.63211382113821 41.86991869918699,42.78455284552845 41.71747967479675,42.98780487804878 41.514227642276424,43.24186991869919 41.260162601626014,43.546747967479675 41.15853658536585,43.699186991869915 41.00609756097561,43.90243902439024 40.95528455284553,43.953252032520325 40.853658536585364,44.105691056910565 40.802845528455286,44.15650406504065 40.7520325203252,44.20731707317073 40.65040650406504,44.359756097560975 40.548780487804876,44.512195121951216 40.447154471544714,44.66463414634146 40.34552845528455,44.8170731707317 40.19308943089431,45.02032520325203 39.989837398373986,45.3760162601626 39.83739837398374,45.579268292682926 39.63414634146341,45.88414634146341 39.583333333333336,45.985772357723576" fill="none" stroke="black" stroke-width="0.6"></polyline><polyline points="39.583333333333336,45.985772357723576 39.53252032520325,46.13821138211382 39.329268292682926,46.49390243902439 39.176829268292686,46.7479674796748 39.07520325203252,47.0020325203252 38.922764227642276,47.25609756097561 38.77032520325203,47.66260162601626 38.61788617886179,47.916666666666664 38.516260162601625,48.22154471544715 38.46544715447154,48.3739837398374 38.41463414634146,48.52642276422764 38.3130081300813,48.78048780487805 38.16056910569105,49.1869918699187 38.05894308943089,49.4410569105691 37.95731707317073,49.69512195121951 37.855691056910565,50.10162601626016 37.80487804878049,50.355691056910565 37.7540650406504,50.609756097560975 37.703252032520325,50.762195121951216 37.703252032520325,50.86382113821138 37.65243902439024,51.168699186991866 37.65243902439024,51.422764227642276 37.65243902439024,51.6260162601626 37.65243902439024,51.880081300813 37.60162601626016,52.235772357723576 37.60162601626016,52.38821138211382 37.60162601626016,52.59146341463415 37.60162601626016,52.79471544715447 37.60162601626016,52.896341463414636 37.65243902439024,53.201219512195124 37.703252032520325,53.40447154471545 37.7540650406504,53.607723577235774 37.80487804878049,53.760162601626014 37.855691056910565,54.0650406504065 37.90650406504065,54.21747967479675 37.95731707317073,54.420731707317074 38.00813008130081,54.52235772357724 38.00813008130081,54.6239837398374 38.109756097560975,54.827235772357724 38.21138211382114,55.08130081300813 38.262195121951216,55.28455284552845 38.3130081300813,55.48780487804878 38.36382113821138,55.58943089430894 38.41463414634146,55.640243902439025 38.46544715447154,55.84349593495935 38.516260162601625,55.99593495934959 38.61788617886179,56.199186991869915 38.71951219512195,56.5040650406504 38.82113821138211,56.70731707317073 38.87195121951219,56.80894308943089 38.922764227642276,57.012195121951216" fill="none" stroke="black" stroke-width="0.6"></polyline><polyline points="38.922764227642276,57.012195121951216 39.02439024390244,57.266260162601625 39.1260162601626,57.46951219512195 39.1260162601626,57.57113821138211 39.176829268292686,57.672764227642276 39.27845528455285,57.8760162601626 39.38008130081301,58.079268292682926 39.48170731707317,58.28252032520325 39.583333333333336,58.485772357723576 39.6849593495935,58.739837398373986 39.83739837398374,59.04471544715447 39.9390243902439,59.298780487804876 40.040650406504064,59.5020325203252 40.09146341463415,59.65447154471545 40.19308943089431,59.75609756097561 40.29471544715447,59.959349593495936 40.34552845528455,60.0609756097561 40.396341463414636,60.16260162601626 40.4979674796748,60.21341463414634 40.59959349593496,60.416666666666664 40.7520325203252,60.56910569105691 40.802845528455286,60.670731707317074 40.95528455284553,60.8739837398374 41.05691056910569,60.92479674796748 41.107723577235774,61.02642276422764 41.209349593495936,61.077235772357724 41.36178861788618,61.229674796747965 41.46341463414634,61.33130081300813 41.5650406504065,61.38211382113821 41.61585365853659,61.483739837398375 41.81910569105691,61.58536585365854 41.920731707317074,61.636178861788615 42.02235772357724,61.73780487804878 42.17479674796748,61.83943089430894 42.3780487804878,61.9410569105691 42.63211382113821,62.042682926829265 42.83536585365854,62.14430894308943 42.98780487804878,62.19512195121951 43.08943089430894,62.24593495934959 43.24186991869919,62.34756097560975 43.34349593495935,62.39837398373984 43.546747967479675,62.5 43.75,62.60162601626016 43.90243902439024,62.65243902439024 44.05487804878049,62.7540650406504 44.25813008130081,62.80487804878049 44.41056910569105,62.90650406504065 44.5630081300813,62.95731707317073 44.86788617886179,63.05894308943089 45.07113821138211,63.109756097560975 45.12195121951219,63.16056910569105" fill="none" stroke="black" stroke-width="0.6"></polyline><polyline points="45.12195121951219,63.16056910569105 45.325203252032516,63.21138211382114 45.52845528455285,63.262195121951216 45.68089430894309,63.3130081300813 45.78252032520325,63.3130081300813 45.985772357723576,63.36382113821138 46.13821138211382,63.41463414634146 46.239837398373986,63.41463414634146 46.54471544715447,63.46544715447154 46.798780487804876,63.46544715447154 47.052845528455286,63.516260162601625 47.357723577235774,63.516260162601625 47.61178861788618,63.5670731707317 47.86585365853659,63.5670731707317 48.170731707317074,63.61788617886179 48.42479674796748,63.61788617886179 48.67886178861789,63.61788617886179 48.93292682926829,63.61788617886179 49.1869918699187,63.668699186991866 49.4410569105691,63.668699186991866 49.74593495934959,63.668699186991866 50,63.668699186991866 50.15243902439024,63.668699186991866 50.30487804878049,63.61788617886179 50.45731707317073,63.61788617886179 50.762195121951216,63.5670731707317 50.91463414634146,63.5670731707317 51.21951219512195,63.516260162601625 51.52439024390244,63.46544715447154 51.829268292682926,63.41463414634146 51.981707317073166,63.36382113821138 52.13414634146341,63.36382113821138 52.489837398373986,63.262195121951216 52.79471544715447,63.21138211382114 53.15040650406504,63.109756097560975 53.50609756097561,63.00813008130081 53.86178861788618,62.90650406504065 54.166666666666664,62.7540650406504 54.36991869918699,62.703252032520325 54.573170731707314,62.65243902439024 54.8780487804878,62.5 55.233739837398375,62.39837398373984 55.58943089430894,62.24593495934959 55.84349593495935,62.14430894308943 56.14837398373984,62.042682926829265 56.5040650406504,61.890243902439025 56.75813008130081,61.6869918699187 57.0630081300813,61.53455284552845 57.36788617886179,61.33130081300813 57.72357723577235,61.1280487804878 58.079268292682926,60.92479674796748" fill="none" stroke="black" stroke-width="0.6"></polyline><polyline points="58.079268292682926,60.92479674796748 58.43495934959349,60.670731707317074 58.790650406504064,60.416666666666664 59.09552845528455,60.16260162601626 59.298780487804876,60.0609756097561 59.40040650406504,59.959349593495936 59.552845528455286,59.857723577235774 59.70528455284553,59.75609756097561 59.959349593495936,59.552845528455286 60.264227642276424,59.298780487804876 60.51829268292683,59.04471544715447 60.8739837398374,58.6890243902439 61.1280487804878,58.38414634146341 61.38211382113821,58.130081300813 61.483739837398375,57.97764227642276 61.58536585365854,57.825203252032516 61.78861788617886,57.57113821138211 61.890243902439025,57.418699186991866 62.09349593495935,57.16463414634146 62.24593495934959,56.859756097560975 62.449186991869915,56.55487804878049 62.5,56.40243902439024 62.60162601626016,56.25 62.7540650406504,55.94512195121951 62.90650406504065,55.640243902439025 63.05894308943089,55.386178861788615 63.16056910569105,55.08130081300813 63.3130081300813,54.77642276422764 63.36382113821138,54.6239837398374 63.46544715447154,54.47154471544715 63.516260162601625,54.26829268292683 63.5670731707317,54.166666666666664 63.71951219512195,53.86178861788618 63.82113821138211,53.55691056910569 63.922764227642276,53.2520325203252 64.02439024390243,52.947154471544714 64.02439024390243,52.79471544715447 64.1260162601626,52.540650406504064 64.17682926829268,52.235772357723576 64.22764227642276,51.93089430894309 64.27845528455285,51.6260162601626 64.32926829268293,51.32113821138211 64.380081300813,51.016260162601625 64.43089430894308,50.66056910569105 64.48170731707317,50.355691056910565 64.53252032520325,50.05081300813008 64.53252032520325,49.69512195121951 64.58333333333333,49.390243902439025 64.58333333333333,49.08536585365854 64.58333333333333,48.78048780487805 64.58333333333333,48.47560975609756" fill="none" stroke="black" stroke-width="0.6"></polyline><polyline points="64.58333333333333,48.47560975609756 64.58333333333333,48.11991869918699 64.58333333333333,47.8150406504065 64.58333333333333,47.510162601626014 64.53252032520325,47.15447154471545 64.48170731707317,46.84959349593496 64.48170731707317,46.49390243902439 64.43089430894308,46.13821138211382 64.380081300813,45.78252032520325 64.32926829268293,45.42682926829268 64.27845528455285,45.12195121951219 64.22764227642276,44.766260162601625 64.17682926829268,44.512195121951216 64.07520325203252,44.20731707317073 63.97357723577235,43.90243902439024 63.922764227642276,43.59756097560975 63.82113821138211,43.292682926829265 63.71951219512195,42.98780487804878 63.61788617886179,42.68292682926829 63.516260162601625,42.42886178861789 63.41463414634146,42.1239837398374 63.3130081300813,41.86991869918699 63.16056910569105,41.61585365853659 63.05894308943089,41.36178861788618 62.95731707317073,41.107723577235774 62.855691056910565,41.00609756097561 62.80487804878049,40.853658536585364 62.703252032520325,40.65040650406504 62.55081300813008,40.447154471544714 62.39837398373984,40.19308943089431 62.296747967479675,39.989837398373986 62.14430894308943,39.78658536585366 61.99186991869919,39.53252032520325 61.83943089430894,39.329268292682926 61.6869918699187,39.1260162601626 61.53455284552845,38.87195121951219 61.38211382113821,38.668699186991866 61.17886178861789,38.46544715447154 60.97560975609756,38.262195121951216 60.823170731707314,38.05894308943089 60.61991869918699,37.855691056910565 60.51829268292683,37.7540650406504 60.21341463414634,37.5 60.0609756097561,37.34756097560975 59.857723577235774,37.14430894308943 59.65447154471545,36.99186991869919 59.40040650406504,36.83943089430894 59.197154471544714,36.636178861788615 59.09552845528455,36.58536585365854 58.99390243902439,36.53455284552845 58.790650406504064,36.38211382113821" fill="none" stroke="black" stroke-width="0.6"></polyline><polyline points="58.790650406504064,36.38211382113821 58.58739837398374,36.229674796747965 58.38414634146341,36.1280487804878 58.231707317073166,36.02642276422764 57.97764227642276,35.92479674796748 57.77439024390244,35.823170731707314 57.62195121951219,35.72154471544715 57.418699186991866,35.61991869918699 57.21544715447154,35.56910569105691 57.012195121951216,35.46747967479675 56.80894308943089,35.416666666666664 56.65650406504065,35.36585365853659 56.40243902439024,35.3150406504065 56.14837398373984,35.21341463414634 55.94512195121951,35.21341463414634 55.74186991869919,35.16260162601626 55.640243902439025,35.11178861788618 55.53861788617886,35.11178861788618 55.4369918699187,35.0609756097561 55.28455284552845,35.0609756097561 55.08130081300813,35.010162601626014 54.827235772357724,34.959349593495936 54.72560975609756,34.90853658536585 54.6239837398374,34.90853658536585 54.47154471544715,34.857723577235774 54.26829268292683,34.857723577235774 54.11585365853659,34.80691056910569 53.91260162601626,34.75609756097561 53.86178861788618,34.75609756097561 53.760162601626014,34.75609756097561 53.607723577235774,34.75609756097561 53.50609756097561,34.75609756097561 53.302845528455286,34.75609756097561 53.09959349593496,34.75609756097561 52.947154471544714,34.75609756097561 52.79471544715447,34.75609756097561 52.642276422764226,34.75609756097561 52.540650406504064,34.75609756097561 52.4390243902439,34.75609756097561 52.235772357723576,34.75609756097561 52.03252032520325,34.80691056910569 51.829268292682926,34.80691056910569 51.6260162601626,34.857723577235774 51.47357723577235,34.90853658536585 51.21951219512195,34.90853658536585 51.0670731707317,34.959349593495936 50.91463414634146,34.959349593495936 50.8130081300813,35.010162601626014 50.55894308943089,35.010162601626014 50.45731707317073,35.0609756097561 50.355691056910565,35.11178861788618" fill="none" stroke="black" stroke-width="0.6"></polyline><polyline points="50.355691056910565,35.11178861788618 50.203252032520325,35.11178861788618 50.10162601626016,35.16260162601626 49.796747967479675,35.264227642276424 49.49186991869919,35.3150406504065 49.23780487804878,35.416666666666664 48.983739837398375,35.46747967479675 48.6280487804878,35.56910569105691 48.3739837398374,35.670731707317074 48.27235772357724,35.670731707317074 48.11991869918699,35.72154471544715 47.916666666666664,35.823170731707314 47.764227642276424,35.8739837398374 47.66260162601626,35.92479674796748 47.5609756097561,35.97560975609756 47.357723577235774,36.02642276422764 47.15447154471545,36.077235772357724 46.951219512195124,36.17886178861789 46.798780487804876,36.28048780487805 46.59552845528455,36.33130081300813 46.34146341463415,36.483739837398375 46.13821138211382,36.58536585365854 46.03658536585366,36.636178861788615 45.833333333333336,36.73780487804878 45.63008130081301,36.890243902439025 45.52845528455285,36.9410569105691 45.42682926829268,36.99186991869919 45.22357723577235,37.14430894308943 45.02032520325203,37.24593495934959 44.8170731707317,37.39837398373984 44.5630081300813,37.5 44.359756097560975,37.65243902439024 44.05487804878049,37.855691056910565 43.85162601626016,37.95731707317073 43.75,38.00813008130081 43.546747967479675,38.16056910569105 43.34349593495935,38.262195121951216 43.140243902439025,38.41463414634146 42.9369918699187,38.516260162601625 42.733739837398375,38.668699186991866 42.53048780487805,38.77032520325203 42.327235772357724,38.922764227642276 41.97154471544715,39.176829268292686 41.81910569105691,39.27845528455285 41.71747967479675,39.38008130081301 41.46341463414634,39.583333333333336 41.3109756097561,39.6849593495935 41.05691056910569,39.88821138211382 40.90447154471545,39.9390243902439 40.4979674796748,40.29471544715447 40.24390243902439,40.447154471544714" fill="none" stroke="black" stroke-width="0.6"></polyline><polyline points="40.24390243902439,40.447154471544714 39.9390243902439,40.701219512195124 39.735772357723576,40.853658536585364 39.43089430894309,41.107723577235774 39.176829268292686,41.3109756097561 39.07520325203252,41.41260162601626 38.87195121951219,41.61585365853659 38.77032520325203,41.71747967479675 38.668699186991866,41.81910569105691 38.5670731707317,41.920731707317074 38.46544715447154,42.073170731707314 38.21138211382114,42.327235772357724 38.109756097560975,42.479674796747965 38.00813008130081,42.63211382113821 37.855691056910565,42.78455284552845 37.7540650406504,42.9369918699187 37.60162601626016,43.140243902439025 37.5,43.34349593495935 37.39837398373984,43.39430894308943 37.34756097560975,43.49593495934959 37.24593495934959,43.699186991869915 37.042682926829265,44.0040650406504 36.890243902439025,44.20731707317073 36.73780487804878,44.41056910569105 36.636178861788615,44.61382113821138 36.483739837398375,44.8170731707317 36.28048780487805,45.172764227642276 36.1280487804878,45.42682926829268 36.02642276422764,45.52845528455285 35.97560975609756,45.68089430894309 35.8739837398374,45.833333333333336 35.77235772357724,46.08739837398374 35.61991869918699,46.34146341463415 35.51829268292683,46.59552845528455 35.416666666666664,46.798780487804876 35.3150406504065,47.0020325203252 35.264227642276424,47.20528455284553 35.16260162601626,47.459349593495936 35.11178861788618,47.71341463414634 35.0609756097561,47.8150406504065 35.010162601626014,48.01829268292683 34.959349593495936,48.170731707317074 34.959349593495936,48.27235772357724 34.90853658536585,48.52642276422764 34.857723577235774,48.729674796747965 34.80691056910569,48.93292682926829 34.80691056910569,49.1869918699187 34.75609756097561,49.49186991869919 34.70528455284553,49.74593495934959 34.70528455284553,49.949186991869915 34.70528455284553,50.05081300813008" fill="none" stroke="black" stroke-width="0.6"></polyline><polyline points="34.70528455284553,50.05081300813008 34.65447154471545,50.203252032520325 34.65447154471545,50.30487804878049 34.603658536585364,50.609756097560975 34.552845528455286,50.91463414634146 34.5020325203252,51.168699186991866 34.451219512195124,51.47357723577235 34.40040650406504,51.72764227642276 34.34959349593496,51.981707317073166 34.298780487804876,52.4390243902439 34.298780487804876,52.69308943089431 34.298780487804876,52.84552845528455 34.298780487804876,52.947154471544714 34.2479674796748,53.201219512195124 34.2479674796748,53.302845528455286 34.2479674796748,53.607723577235774 34.2479674796748,53.8109756097561 34.2479674796748,54.0650406504065 34.2479674796748,54.31910569105691 34.2479674796748,54.573170731707314 34.2479674796748,54.92886178861789 34.298780487804876,55.18292682926829 34.298780487804876,55.4369918699187 34.298780487804876,55.53861788617886 34.298780487804876,55.792682926829265 34.34959349593496,55.89430894308943 34.34959349593496,56.09756097560975 34.34959349593496,56.199186991869915 34.34959349593496,56.30081300813008 34.40040650406504,56.5040650406504 34.451219512195124,56.70731707317073 34.5020325203252,56.859756097560975 34.5020325203252,56.96138211382114 34.552845528455286,57.266260162601625 34.603658536585364,57.46951219512195 34.65447154471545,57.672764227642276 34.70528455284553,57.77439024390244 34.70528455284553,57.825203252032516 34.75609756097561,57.92682926829268 34.80691056910569,58.18089430894309 34.80691056910569,58.28252032520325 34.857723577235774,58.485772357723576 34.90853658536585,58.58739837398374 34.959349593495936,58.892276422764226 35.010162601626014,59.09552845528455 35.11178861788618,59.34959349593496 35.16260162601626,59.65447154471545 35.21341463414634,59.90853658536585 35.36585365853659,60.3150406504065 35.416666666666664,60.61991869918699 35.46747967479675,60.77235772357724" fill="none" stroke="black" stroke-width="0.6"></polyline><polyline points="35.46747967479675,60.77235772357724 35.51829268292683,60.92479674796748 35.61991869918699,61.229674796747965 35.670731707317074,61.38211382113821 35.72154471544715,61.483739837398375 35.77235772357724,61.636178861788615 35.823170731707314,61.78861788617886 35.8739837398374,61.890243902439025 35.97560975609756,62.042682926829265 36.02642276422764,62.19512195121951 36.077235772357724,62.296747967479675 36.229674796747965,62.55081300813008 36.28048780487805,62.65243902439024 36.38211382113821,62.80487804878049 36.53455284552845,63.00813008130081 36.58536585365854,63.16056910569105 36.636178861788615,63.262195121951216 36.73780487804878,63.36382113821138 36.83943089430894,63.516260162601625 36.99186991869919,63.71951219512195 37.14430894308943,63.97357723577235 37.24593495934959,64.07520325203252 37.449186991869915,64.27845528455285 37.55081300813008,64.380081300813 37.7540650406504,64.58333333333333 38.05894308943089,64.88821138211382 38.262195121951216,65.09146341463415 38.46544715447154,65.29471544715447 38.668699186991866,65.54878048780488 38.87195121951219,65.7520325203252 39.07520325203252,65.90447154471545 39.43089430894309,66.20934959349593 39.53252032520325,66.3109756097561 39.63414634146341,66.36178861788618 39.78658536585366,66.46341463414635 39.88821138211382,66.5650406504065 40.142276422764226,66.71747967479675 40.24390243902439,66.76829268292683 40.34552845528455,66.869918699187 40.447154471544714,66.92073170731707 40.701219512195124,67.1239837398374 40.95528455284553,67.22560975609755 41.15853658536585,67.3780487804878 41.41260162601626,67.53048780487805 41.666666666666664,67.6829268292683 41.920731707317074,67.78455284552845 42.327235772357724,67.9369918699187 42.58130081300813,68.03861788617886 42.886178861788615,68.14024390243902 42.98780487804878,68.1910569105691 43.292682926829265,68.29268292682927" fill="none" stroke="black" stroke-width="0.6"></polyline><polyline points="43.292682926829265,68.29268292682927 43.59756097560975,68.34349593495935 43.85162601626016,68.4451219512195 44.0040650406504,68.4451219512195 44.30894308943089,68.54674796747967 44.71544715447154,68.64837398373983 44.86788617886179,68.64837398373983 44.96951219512195,68.69918699186992 45.12195121951219,68.75 45.42682926829268,68.80081300813008 45.579268292682926,68.80081300813008 45.833333333333336,68.85162601626016 46.13821138211382,68.90243902439025 46.44308943089431,68.95325203252033 46.90040650406504,68.95325203252033 47.25609756097561,69.0040650406504 47.5609756097561,69.0040650406504 47.764227642276424,69.0040650406504 48.11991869918699,69.0040650406504 48.27235772357724,69.0040650406504 48.47560975609756,69.0040650406504 48.78048780487805,68.95325203252033 49.136178861788615,68.90243902439025 49.33943089430894,68.90243902439025 49.49186991869919,68.90243902439025 49.796747967479675,68.85162601626016 50.15243902439024,68.85162601626016 50.45731707317073,68.80081300813008 50.609756097560975,68.80081300813008 50.762195121951216,68.75 50.91463414634146,68.69918699186992 51.27032520325203,68.64837398373983 51.47357723577235,68.64837398373983 51.6260162601626,68.59756097560975 51.77845528455284,68.54674796747967 52.13414634146341,68.4959349593496 52.28658536585366,68.4451219512195 52.4390243902439,68.39430894308943 52.642276422764226,68.34349593495935 52.9979674796748,68.24186991869918 53.15040650406504,68.1910569105691 53.302845528455286,68.14024390243902 53.65853658536585,68.03861788617886 54.014227642276424,67.88617886178862 54.36991869918699,67.78455284552845 54.67479674796748,67.6829268292683 55.03048780487805,67.53048780487805 55.386178861788615,67.3780487804878 55.6910569105691,67.22560975609755 56.046747967479675,67.07317073170732 56.35162601626016,66.92073170731707" fill="none" stroke="black" stroke-width="0.6"></polyline><polyline points="56.35162601626016,66.92073170731707 56.65650406504065,66.76829268292683 56.80894308943089,66.66666666666667 56.96138211382114,66.5650406504065 57.266260162601625,66.41260162601625 57.57113821138211,66.20934959349593 57.92682926829268,65.95528455284553 58.28252032520325,65.7520325203252 58.63821138211382,65.4979674796748 58.99390243902439,65.2439024390244 59.298780487804876,65.04065040650406 59.603658536585364,64.78658536585365 59.959349593495936,64.53252032520325 60.264227642276424,64.27845528455285 60.56910569105691,64.02439024390243 60.92479674796748,63.71951219512195 61.229674796747965,63.46544715447154 61.53455284552845,63.21138211382114 61.83943089430894,62.90650406504065 62.14430894308943,62.65243902439024 62.39837398373984,62.34756097560975 62.703252032520325,62.042682926829265 63.00813008130081,61.78861788617886 63.262195121951216,61.483739837398375 63.5670731707317,61.17886178861789 63.82113821138211,60.8739837398374 64.1260162601626,60.51829268292683 64.380081300813,60.21341463414634 64.6341463414634,59.90853658536585 64.88821138211382,59.603658536585364 65.14227642276423,59.2479674796748 65.39634146341463,58.94308943089431 65.65040650406505,58.58739837398374 65.85365853658537,58.231707317073166 66.10772357723577,57.92682926829268 66.3109756097561,57.62195121951219 66.51422764227642,57.266260162601625 66.71747967479675,56.96138211382114 66.869918699187,56.605691056910565 67.07317073170732,56.25 67.17479674796748,55.94512195121951 67.32723577235772,55.640243902439025 67.47967479674797,55.28455284552845 67.6321138211382,54.979674796747965 67.78455284552845,54.6239837398374 67.9369918699187,54.21747967479675 68.08943089430895,53.86178861788618 68.24186991869918,53.45528455284553 68.39430894308943,53.048780487804876 68.54674796747967,52.69308943089431 68.69918699186992,52.28658536585366" fill="none" stroke="black" stroke-width="0.6"></polyline><polyline points="68.69918699186992,52.28658536585366 68.80081300813008,51.880081300813 68.90243902439025,51.47357723577235 69.0040650406504,51.0670731707317 69.05487804878048,50.609756097560975 69.15650406504065,50.203252032520325 69.2581300813008,49.74593495934959 69.3089430894309,49.28861788617886 69.35975609756098,48.83130081300813 69.35975609756098,48.323170731707314 69.41056910569105,47.86585365853659 69.46138211382113,47.40853658536585 69.46138211382113,46.90040650406504 69.46138211382113,46.44308943089431 69.46138211382113,45.9349593495935 69.41056910569105,45.42682926829268 69.35975609756098,44.96951219512195 69.3089430894309,44.512195121951216 69.2581300813008,43.953252032520325 69.15650406504065,43.49593495934959 69.05487804878048,42.98780487804878 69.0040650406504,42.42886178861789 68.90243902439025,41.920731707317074 68.75,41.41260162601626 68.64837398373983,40.853658536585364 68.4959349593496,40.34552845528455 68.34349593495935,39.83739837398374 68.1910569105691,39.27845528455285 67.98780487804878,38.77032520325203 67.83536585365853,38.262195121951216 67.6321138211382,37.703252032520325 67.47967479674797,37.24593495934959 67.27642276422765,36.73780487804878 67.02235772357723,36.1280487804878 66.76829268292683,35.670731707317074 66.5650406504065,35.16260162601626 66.26016260162602,34.65447154471545 66.0060975609756,34.197154471544714 65.70121951219512,33.739837398373986 65.39634146341463,33.28252032520325 65.14227642276423,32.8760162601626 64.78658536585365,32.418699186991866 64.48170731707317,31.961382113821138 64.17682926829268,31.554878048780488 63.82113821138211,31.19918699186992 63.46544715447154,30.79268292682927 63.16056910569105,30.4369918699187 62.80487804878049,30.08130081300813 62.449186991869915,29.67479674796748 62.09349593495935,29.369918699186993 61.636178861788615,29.01422764227642" fill="none" stroke="black" stroke-width="0.6"></polyline><polyline points="61.636178861788615,29.01422764227642 61.17886178861789,28.65853658536585 60.72154471544715,28.353658536585364 60.264227642276424,28.048780487804876 59.80691056910569,27.79471544715447 59.40040650406504,27.540650406504064 58.892276422764226,27.33739837398374 58.43495934959349,27.134146341463413 58.02845528455284,26.93089430894309 57.57113821138211,26.727642276422763 57.11382113821138,26.57520325203252 56.70731707317073,26.371951219512194 56.30081300813008,26.21951219512195 55.84349593495935,26.067073170731707 55.4369918699187,25.965447154471544 55.03048780487805,25.86382113821138 54.6239837398374,25.76219512195122 54.21747967479675,25.660569105691057 53.8109756097561,25.558943089430894 53.40447154471545,25.508130081300813 52.9979674796748,25.45731707317073 52.59146341463415,25.40650406504065 52.1849593495935,25.40650406504065 51.829268292682926,25.40650406504065 51.422764227642276,25.35569105691057 51.016260162601625,25.35569105691057 50.66056910569105,25.35569105691057 50.2540650406504,25.40650406504065 49.84756097560975,25.45731707317073 49.49186991869919,25.508130081300813 49.08536585365854,25.558943089430894 48.729674796747965,25.609756097560975 48.323170731707314,25.711382113821138 47.86585365853659,25.8130081300813 47.510162601626014,25.914634146341463 47.052845528455286,26.016260162601625 46.59552845528455,26.117886178861788 46.1890243902439,26.270325203252032 45.73170731707317,26.422764227642276 45.22357723577235,26.57520325203252 44.766260162601625,26.727642276422763 44.25813008130081,26.93089430894309 43.699186991869915,27.134146341463413 43.24186991869919,27.33739837398374 42.733739837398375,27.591463414634145 42.17479674796748,27.79471544715447 41.71747967479675,28.048780487804876 41.209349593495936,28.302845528455283 40.701219512195124,28.60772357723577 40.24390243902439,28.861788617886177 39.735772357723576,29.115853658536583" fill="none" stroke="black" stroke-width="0.6"></polyline><polyline points="39.735772357723576,29.115853658536583 39.22764227642276,29.420731707317074 38.77032520325203,29.725609756097562 38.21138211382114,30.08130081300813 37.703252032520325,30.4369918699187 37.19512195121951,30.79268292682927 36.6869918699187,31.19918699186992 36.077235772357724,31.65650406504065 35.51829268292683,32.0630081300813 35.010162601626014,32.46951219512195 34.451219512195124,32.926829268292686 33.99390243902439,33.38414634146341 33.485772357723576,33.84146341463415 32.97764227642276,34.298780487804876 32.46951219512195,34.80691056910569 32.012195121951216,35.3150406504065 31.554878048780488,35.823170731707314 31.097560975609756,36.33130081300813 30.640243902439025,36.890243902439025 30.233739837398375,37.449186991869915 29.827235772357724,38.00813008130081 29.420731707317074,38.516260162601625 29.0650406504065,39.07520325203252 28.709349593495933,39.6849593495935 28.353658536585364,40.29471544715447 28.048780487804876,40.90447154471545 27.79471544715447,41.5650406504065 27.540650406504064,42.22560975609756 27.286585365853657,42.886178861788615 27.03252032520325,43.49593495934959 26.829268292682926,44.15650406504065 26.676829268292682,44.8170731707317 26.524390243902438,45.47764227642276 26.371951219512194,46.13821138211382 26.270325203252032,46.798780487804876 26.16869918699187,47.459349593495936 26.067073170731707,48.11991869918699 26.016260162601625,48.88211382113821 25.965447154471544,49.59349593495935 25.914634146341463,50.30487804878049 25.914634146341463,51.016260162601625 25.914634146341463,51.67682926829268 25.914634146341463,52.4390243902439 25.914634146341463,53.15040650406504 25.965447154471544,53.86178861788618 26.067073170731707,54.573170731707314 26.16869918699187,55.28455284552845 26.321138211382113,55.94512195121951 26.473577235772357,56.65650406504065 26.676829268292682,57.3170731707317 26.880081300813007,58.02845528455284" fill="none" stroke="black" stroke-width="0.6"></polyline><polyline points="26.880081300813007,58.02845528455284 27.134146341463413,58.790650406504064 27.33739837398374,59.5020325203252 27.591463414634145,60.264227642276424 27.896341463414632,61.1280487804878 28.15040650406504,61.890243902439025 28.455284552845526,62.65243902439024 28.810975609756095,63.41463414634146 29.115853658536583,64.07520325203252 29.471544715447155,64.78658536585365 29.878048780487806,65.4979674796748 30.284552845528456,66.15853658536585 30.691056910569106,66.76829268292683 31.19918699186992,67.42886178861788 31.65650406504065,67.98780487804878 32.16463414634146,68.59756097560975 32.672764227642276,69.20731707317073 33.18089430894309,69.71544715447155 33.739837398373986,70.27439024390243 34.34959349593496,70.78252032520325 34.857723577235774,71.1890243902439 35.46747967479675,71.64634146341463 36.077235772357724,72.10365853658537 36.6869918699187,72.51016260162602 37.296747967479675,72.86585365853658 37.90650406504065,73.22154471544715 38.46544715447154,73.52642276422765 39.1260162601626,73.83130081300813 39.735772357723576,74.13617886178862 40.34552845528455,74.39024390243902 40.95528455284553,74.59349593495935 41.920731707317074,74.94918699186992 42.58130081300813,75.15243902439025 43.24186991869919,75.35569105691057 43.85162601626016,75.5081300813008 44.15650406504065,75.60975609756098 44.8170731707317,75.71138211382113 45.47764227642276,75.86382113821138 46.13821138211382,76.01626016260163 46.798780487804876,76.16869918699187 47.459349593495936,76.27032520325203 48.11991869918699,76.3211382113821 48.83130081300813,76.3719512195122 49.23780487804878,76.3719512195122 49.542682926829265,76.3719512195122 50.2540650406504,76.3719512195122 50.96544715447154,76.3719512195122 51.67682926829268,76.3211382113821 52.38821138211382,76.27032520325203 53.09959349593496,76.16869918699187 53.86178861788618,76.0670731707317" fill="none" stroke="black" stroke-width="0.6"></polyline><polyline points="53.86178861788618,76.0670731707317 54.573170731707314,75.96544715447155 55.33536585365854,75.8130081300813 56.046747967479675,75.66056910569105 56.75813008130081,75.5081300813008 57.46951219512195,75.30487804878048 58.231707317073166,75.05081300813008 58.892276422764226,74.84756097560975 59.552845528455286,74.59349593495935 60.264227642276424,74.28861788617886 60.8739837398374,73.98373983739837 61.53455284552845,73.67886178861788 62.19512195121951,73.32317073170732 62.7540650406504,73.01829268292683 63.36382113821138,72.66260162601625 63.922764227642276,72.3069105691057 64.48170731707317,71.95121951219512 65.04065040650406,71.54471544715447 65.4979674796748,71.1890243902439 66.0060975609756,70.83333333333333 66.46341463414635,70.3760162601626 66.869918699187,70.02032520325203 67.32723577235772,69.61382113821138 67.73373983739837,69.10569105691057 68.14024390243902,68.69918699186992 68.54674796747967,68.24186991869918 69.0040650406504,67.78455284552845 69.41056910569105,67.32723577235772 69.8170731707317,66.869918699187 70.22357723577235,66.36178861788618 70.57926829268293,65.90447154471545 70.98577235772358,65.44715447154472 71.39227642276423,64.9390243902439 71.69715447154472,64.53252032520325 72.05284552845528,64.07520325203252 72.40853658536585,63.61788617886179 72.71341463414635,63.16056910569105 73.01829268292683,62.703252032520325 73.3739837398374,62.24593495934959 73.6280487804878,61.83943089430894 73.8821138211382,61.43292682926829 74.1869918699187,60.97560975609756 74.39024390243902,60.56910569105691 74.64430894308943,60.11178861788618 74.89837398373983,59.65447154471545 75.10162601626016,59.298780487804876 75.30487804878048,58.94308943089431 75.45731707317073,58.58739837398374 75.60975609756098,58.231707317073166 75.76219512195122,57.825203252032516 75.91463414634146,57.52032520325203" fill="none" stroke="black" stroke-width="0.6"></polyline><polyline points="75.91463414634146,57.52032520325203 76.01626016260163,57.16463414634146 76.16869918699187,56.859756097560975 76.27032520325203,56.5040650406504 76.3719512195122,56.199186991869915 76.42276422764228,55.89430894308943 76.52439024390243,55.640243902439025 76.57520325203252,55.33536585365854 76.6260162601626,55.08130081300813 76.72764227642276,54.827235772357724 76.77845528455285,54.52235772357724 76.82926829268293,54.26829268292683 76.880081300813,53.96341463414634 76.93089430894308,53.709349593495936 77.03252032520325,53.50609756097561 77.08333333333333,53.2520325203252 77.1341463414634,52.9979674796748 77.1849593495935,52.79471544715447 77.23577235772358,52.540650406504064 77.28658536585365,52.33739837398374 77.33739837398373,52.13414634146341 77.33739837398373,51.880081300813 77.38821138211382,51.67682926829268 77.38821138211382,51.47357723577235 77.38821138211382,51.27032520325203 77.38821138211382,51.11788617886179 77.38821138211382,50.91463414634146 77.38821138211382,50.762195121951216 77.38821138211382,50.609756097560975 77.38821138211382,50.45731707317073 77.38821138211382,50.2540650406504 77.38821138211382,50.15243902439024 77.38821138211382,50 77.38821138211382,49.84756097560975 77.38821138211382,49.74593495934959 77.38821138211382,49.64430894308943 77.38821138211382,49.542682926829265 77.38821138211382,49.49186991869919 77.38821138211382,49.4410569105691 77.38821138211382,49.390243902439025 77.38821138211382,49.390243902439025 77.38821138211382,49.390243902439025 77.38821138211382,49.390243902439025 77.38821138211382,49.390243902439025 77.33739837398373,49.4410569105691" fill="none" stroke="black" stroke-width="0.6"></polyline></svg>