<svg height="100" width="100" preserveAspectRatio="xMidYMid meet"><polyline points="50.203252032520325,49.89837398373984 50.203252032520325,49.89837398373984 50.203252032520325,49.89837398373984 50.203252032520325,49.89837398373984 50.203252032520325,49.89837398373984 50.203252032520325,49.89837398373984 50.203252032520325,49.89837398373984 50.203252032520325,49.89837398373984 50.203252032520325,49.89837398373984 50.203252032520325,49.89837398373984 50.203252032520325,49.89837398373984 50.203252032520325,49.89837398373984 50.203252032520325,49.89837398373984 50.203252032520325,49.89837398373984 50.203252032520325,49.89837398373984 50.203252032520325,49.89837398373984 50.203252032520325,49.89837398373984 50.203252032520325,49.89837398373984 50.203252032520325,49.89837398373984 50.203252032520325,49.89837398373984 50.203252032520325,49.89837398373984 50.203252032520325,49.89837398373984 50.203252032520325,49.89837398373984 50.203252032520325,49.89837398373984 50.203252032520325,49.89837398373984 50.203252032520325,49.89837398373984 50.203252032520325,49.89837398373984 50.203252032520325,49.84756097560975 50.203252032520325,49.84756097560975 50.203252032520325,49.84756097560975 50.203252032520325,49.84756097560975 50.203252032520325,49.84756097560975 50.203252032520325,49.84756097560975 50.203252032520325,49.84756097560975 50.203252032520325,49.84756097560975 50.203252032520325,49.84756097560975 50.203252032520325,49.84756097560975 50.203252032520325,49.84756097560975 50.203252032520325,49.84756097560975 50.203252032520325,49.84756097560975 50.203252032520325,49.84756097560975 50.203252032520325,49.84756097560975 50.203252032520325,49.84756097560975 50.203252032520325,49.84756097560975 50.203252032520325,49.84756097560975 50.203252032520325,49.84756097560975 50.203252032520325,49.84756097560975 50.203252032520325,49.84756097560975 50.203252032520325,49.84756097560975 50.203252032520325,49.84756097560975 50.203252032520325,49.84756097560975" fill="none" stroke="black" stroke-width="0.6"></polyline><polyline points="50.203252032520325,49.84756097560975 50.203252032520325,49.84756097560975 50.203252032520325,49.84756097560975 50.203252032520325,49.84756097560975 50.203252032520325,49.84756097560975 50.203252032520325,49.84756097560975 50.203252032520325,49.84756097560975 50.203252032520325,49.84756097560975 50.203252032520325,49.84756097560975 50.203252032520325,49.84756097560975 50.203252032520325,49.84756097560975 50.203252032520325,49.84756097560975 50.203252032520325,49.84756097560975 50.203252032520325,49.84756097560975 50.203252032520325,49.84756097560975 50.203252032520325,49.84756097560975 50.203252032520325,49.84756097560975 50.203252032520325,49.84756097560975 50.203252032520325,49.84756097560975" fill="none" stroke="black" stroke-width="0.6"></polyline><polyline points="49.84756097560975,49.33943089430894 49.84756097560975,49.33943089430894 49.84756097560975,49.33943089430894 49.84756097560975,49.33943089430894 49.84756097560975,49.33943089430894 49.84756097560975,49.33943089430894 49.84756097560975,49.33943089430894 49.84756097560975,49.33943089430894 49.84756097560975,49.33943089430894 49.84756097560975,49.33943089430894 49.84756097560975,49.33943089430894 49.84756097560975,49.33943089430894 49.84756097560975,49.33943089430894 49.84756097560975,49.33943089430894 49.84756097560975,49.33943089430894 49.84756097560975,49.33943089430894 49.84756097560975,49.33943089430894 49.84756097560975,49.33943089430894 49.84756097560975,49.33943089430894 49.84756097560975,49.33943089430894 49.84756097560975,49.33943089430894 49.84756097560975,49.33943089430894 49.84756097560975,49.33943089430894 49.84756097560975,49.33943089430894 49.84756097560975,49.33943089430894 49.84756097560975,49.33943089430894 49.84756097560975,49.33943089430894 49.84756097560975,49.33943089430894 49.84756097560975,49.33943089430894 49.84756097560975,49.33943089430894 49.84756097560975,49.33943089430894 49.89837398373984,49.28861788617886 49.89837398373984,49.28861788617886 49.89837398373984,49.28861788617886 50,49.28861788617886 50.10162601626016,49.23780487804878 50.2540650406504,49.1869918699187 50.30487804878049,49.1869918699187 50.355691056910565,49.1869918699187 50.40650406504065,49.136178861788615 50.45731707317073,49.136178861788615 50.609756097560975,49.08536585365854 50.71138211382114,49.03455284552845 50.762195121951216,49.03455284552845 50.8130081300813,49.03455284552845 50.96544715447154,48.93292682926829 51.016260162601625,48.88211382113821 51.11788617886179,48.83130081300813 51.21951219512195,48.78048780487805 51.32113821138211,48.729674796747965 51.422764227642276,48.67886178861789" fill="none" stroke="black" stroke-width="0.6"></polyline><polyline points="51.422764227642276,48.67886178861789 51.575203252032516,48.52642276422764 51.6260162601626,48.47560975609756 51.67682926829268,48.42479674796748 51.829268292682926,48.27235772357724 51.880081300813,48.170731707317074 52.083333333333336,47.96747967479675 52.13414634146341,47.916666666666664 52.235772357723576,47.764227642276424 52.28658536585366,47.61178861788618 52.38821138211382,47.510162601626014 52.4390243902439,47.40853658536585 52.540650406504064,47.20528455284553 52.59146341463415,47.103658536585364 52.642276422764226,47.052845528455286 52.642276422764226,47.0020325203252 52.69308943089431,46.90040650406504 52.74390243902439,46.798780487804876 52.79471544715447,46.59552845528455 52.84552845528455,46.49390243902439 52.84552845528455,46.44308943089431 52.84552845528455,46.392276422764226 52.896341463414636,46.34146341463415 52.896341463414636,46.239837398373986 52.896341463414636,46.13821138211382 52.947154471544714,45.985772357723576 52.947154471544714,45.9349593495935 52.947154471544714,45.833333333333336 52.947154471544714,45.73170731707317 52.947154471544714,45.579268292682926 52.947154471544714,45.52845528455285 52.947154471544714,45.47764227642276 52.896341463414636,45.3760162601626 52.896341463414636,45.325203252032516 52.896341463414636,45.27439024390244 52.84552845528455,45.22357723577235 52.84552845528455,45.12195121951219 52.84552845528455,45.07113821138211 52.79471544715447,44.96951219512195 52.74390243902439,44.8170731707317 52.74390243902439,44.71544715447154 52.69308943089431,44.66463414634146 52.642276422764226,44.5630081300813 52.59146341463415,44.41056910569105 52.540650406504064,44.30894308943089 52.540650406504064,44.25813008130081 52.489837398373986,44.15650406504065 52.4390243902439,44.0040650406504 52.38821138211382,43.953252032520325 52.38821138211382,43.90243902439024 52.33739837398374,43.85162601626016" fill="none" stroke="black" stroke-width="0.6"></polyline><polyline points="52.33739837398374,43.85162601626016 52.33739837398374,43.80081300813008 52.28658536585366,43.75 52.235772357723576,43.64837398373984 52.13414634146341,43.546747967479675 52.13414634146341,43.49593495934959 52.03252032520325,43.39430894308943 51.93089430894309,43.24186991869919 51.880081300813,43.1910569105691 51.829268292682926,43.08943089430894 51.77845528455284,43.03861788617886 51.72764227642276,43.03861788617886 51.67682926829268,42.9369918699187 51.575203252032516,42.83536585365854 51.52439024390244,42.78455284552845 51.422764227642276,42.733739837398375 51.32113821138211,42.63211382113821 51.27032520325203,42.58130081300813 51.21951219512195,42.58130081300813 51.21951219512195,42.53048780487805 51.21951219512195,42.53048780487805 51.11788617886179,42.479674796747965 51.11788617886179,42.42886178861789 51.0670731707317,42.42886178861789 51.016260162601625,42.327235772357724 50.91463414634146,42.27642276422764 50.91463414634146,42.27642276422764 50.86382113821138,42.27642276422764 50.86382113821138,42.22560975609756 50.8130081300813,42.22560975609756 50.762195121951216,42.17479674796748 50.762195121951216,42.17479674796748 50.71138211382114,42.1239837398374 50.609756097560975,42.073170731707314 50.55894308943089,42.02235772357724 50.50813008130081,42.02235772357724 50.40650406504065,41.97154471544715 50.30487804878049,41.920731707317074 50.2540650406504,41.86991869918699 50.203252032520325,41.86991869918699 50.10162601626016,41.81910569105691 50,41.81910569105691 49.89837398373984,41.81910569105691 49.796747967479675,41.76829268292683 49.74593495934959,41.76829268292683 49.69512195121951,41.76829268292683 49.542682926829265,41.76829268292683 49.49186991869919,41.76829268292683 49.390243902439025,41.76829268292683 49.28861788617886,41.76829268292683 49.136178861788615,41.76829268292683" fill="none" stroke="black" stroke-width="0.6"></polyline><polyline points="49.136178861788615,41.76829268292683 49.08536585365854,41.76829268292683 48.983739837398375,41.76829268292683 48.93292682926829,41.76829268292683 48.88211382113821,41.76829268292683 48.78048780487805,41.76829268292683 48.729674796747965,41.76829268292683 48.6280487804878,41.81910569105691 48.52642276422764,41.81910569105691 48.42479674796748,41.81910569105691 48.27235772357724,41.86991869918699 48.170731707317074,41.86991869918699 48.06910569105691,41.920731707317074 47.96747967479675,41.920731707317074 47.916666666666664,41.920731707317074 47.8150406504065,41.97154471544715 47.61178861788618,42.02235772357724 47.510162601626014,42.02235772357724 47.459349593495936,42.073170731707314 47.30691056910569,42.1239837398374 47.20528455284553,42.17479674796748 47.103658536585364,42.17479674796748 47.0020325203252,42.22560975609756 46.90040650406504,42.22560975609756 46.90040650406504,42.27642276422764 46.84959349593496,42.27642276422764 46.798780487804876,42.327235772357724 46.697154471544714,42.3780487804878 46.59552845528455,42.42886178861789 46.49390243902439,42.479674796747965 46.44308943089431,42.53048780487805 46.392276422764226,42.53048780487805 46.392276422764226,42.58130081300813 46.34146341463415,42.58130081300813 46.239837398373986,42.63211382113821 46.1890243902439,42.68292682926829 46.13821138211382,42.733739837398375 46.08739837398374,42.733739837398375 45.985772357723576,42.83536585365854 45.9349593495935,42.886178861788615 45.833333333333336,42.9369918699187 45.78252032520325,42.98780487804878 45.68089430894309,43.08943089430894 45.63008130081301,43.08943089430894 45.52845528455285,43.1910569105691 45.47764227642276,43.24186991869919 45.325203252032516,43.34349593495935 45.27439024390244,43.39430894308943 45.22357723577235,43.49593495934959 45.172764227642276,43.546747967479675 45.07113821138211,43.64837398373984" fill="none" stroke="black" stroke-width="0.6"></polyline><polyline points="45.07113821138211,43.64837398373984 44.96951219512195,43.75 44.918699186991866,43.80081300813008 44.86788617886179,43.90243902439024 44.766260162601625,44.05487804878049 44.71544715447154,44.105691056910565 44.66463414634146,44.15650406504065 44.5630081300813,44.30894308943089 44.512195121951216,44.41056910569105 44.512195121951216,44.46138211382114 44.41056910569105,44.61382113821138 44.359756097560975,44.71544715447154 44.359756097560975,44.766260162601625 44.30894308943089,44.8170731707317 44.25813008130081,44.918699186991866 44.20731707317073,45.12195121951219 44.15650406504065,45.172764227642276 44.105691056910565,45.27439024390244 44.05487804878049,45.42682926829268 44.05487804878049,45.47764227642276 44.0040650406504,45.52845528455285 43.953252032520325,45.68089430894309 43.90243902439024,45.78252032520325 43.90243902439024,45.88414634146341 43.85162601626016,45.985772357723576 43.80081300813008,46.08739837398374 43.80081300813008,46.13821138211382 43.80081300813008,46.1890243902439 43.75,46.34146341463415 43.699186991869915,46.49390243902439 43.64837398373984,46.697154471544714 43.59756097560975,46.84959349593496 43.59756097560975,46.90040650406504 43.546747967479675,46.951219512195124 43.546747967479675,47.0020325203252 43.49593495934959,47.103658536585364 43.49593495934959,47.20528455284553 43.44512195121951,47.25609756097561 43.44512195121951,47.40853658536585 43.39430894308943,47.61178861788618 43.39430894308943,47.66260162601626 43.34349593495935,47.66260162601626 43.34349593495935,47.764227642276424 43.34349593495935,47.8150406504065 43.34349593495935,47.916666666666664 43.34349593495935,48.01829268292683 43.292682926829265,48.01829268292683 43.292682926829265,48.11991869918699 43.292682926829265,48.323170731707314 43.292682926829265,48.3739837398374 43.292682926829265,48.42479674796748" fill="none" stroke="black" stroke-width="0.6"></polyline><polyline points="43.292682926829265,48.42479674796748 43.292682926829265,48.577235772357724 43.292682926829265,48.67886178861789 43.292682926829265,48.729674796747965 43.292682926829265,48.93292682926829 43.292682926829265,48.983739837398375 43.292682926829265,49.08536585365854 43.292682926829265,49.23780487804878 43.34349593495935,49.33943089430894 43.39430894308943,49.542682926829265 43.39430894308943,49.59349593495935 43.44512195121951,49.64430894308943 43.44512195121951,49.796747967479675 43.49593495934959,49.89837398373984 43.49593495934959,49.949186991869915 43.546747967479675,50.10162601626016 43.64837398373984,50.355691056910565 43.75,50.55894308943089 43.75,50.66056910569105 43.80081300813008,50.71138211382114 43.90243902439024,50.91463414634146 43.953252032520325,51.0670731707317 44.05487804878049,51.21951219512195 44.105691056910565,51.37195121951219 44.20731707317073,51.52439024390244 44.30894308943089,51.67682926829268 44.30894308943089,51.72764227642276 44.359756097560975,51.77845528455284 44.41056910569105,51.880081300813 44.512195121951216,52.03252032520325 44.66463414634146,52.235772357723576 44.71544715447154,52.33739837398374 44.766260162601625,52.38821138211382 44.86788617886179,52.489837398373986 44.96951219512195,52.69308943089431 44.96951219512195,52.74390243902439 45.02032520325203,52.79471544715447 45.07113821138211,52.84552845528455 45.12195121951219,52.947154471544714 45.22357723577235,53.09959349593496 45.27439024390244,53.201219512195124 45.3760162601626,53.353658536585364 45.47764227642276,53.45528455284553 45.47764227642276,53.50609756097561 45.579268292682926,53.55691056910569 45.63008130081301,53.607723577235774 45.68089430894309,53.709349593495936 45.78252032520325,53.8109756097561 45.833333333333336,53.8109756097561 45.88414634146341,53.91260162601626 45.985772357723576,53.96341463414634" fill="none" stroke="black" stroke-width="0.6"></polyline><polyline points="45.985772357723576,53.96341463414634 46.08739837398374,54.014227642276424 46.13821138211382,54.0650406504065 46.1890243902439,54.11585365853659 46.1890243902439,54.166666666666664 46.239837398373986,54.166666666666664 46.34146341463415,54.21747967479675 46.392276422764226,54.26829268292683 46.44308943089431,54.31910569105691 46.49390243902439,54.31910569105691 46.59552845528455,54.420731707317074 46.646341463414636,54.420731707317074 46.7479674796748,54.47154471544715 46.798780487804876,54.52235772357724 46.84959349593496,54.573170731707314 46.90040650406504,54.573170731707314 47.0020325203252,54.6239837398374 47.103658536585364,54.72560975609756 47.20528455284553,54.77642276422764 47.25609756097561,54.77642276422764 47.357723577235774,54.827235772357724 47.5609756097561,54.92886178861789 47.66260162601626,54.979674796747965 47.71341463414634,54.979674796747965 47.8150406504065,55.03048780487805 47.86585365853659,55.03048780487805 47.916666666666664,55.08130081300813 48.06910569105691,55.08130081300813 48.22154471544715,55.18292682926829 48.27235772357724,55.18292682926829 48.3739837398374,55.233739837398375 48.52642276422764,55.28455284552845 48.67886178861789,55.33536585365854 48.78048780487805,55.386178861788615 48.88211382113821,55.386178861788615 48.983739837398375,55.4369918699187 49.08536585365854,55.48780487804878 49.1869918699187,55.48780487804878 49.23780487804878,55.48780487804878 49.28861788617886,55.53861788617886 49.4410569105691,55.53861788617886 49.542682926829265,55.53861788617886 49.69512195121951,55.58943089430894 49.796747967479675,55.58943089430894 49.84756097560975,55.58943089430894 50,55.640243902439025 50.10162601626016,55.640243902439025 50.15243902439024,55.640243902439025 50.355691056910565,55.6910569105691 50.45731707317073,55.6910569105691 50.50813008130081,55.6910569105691" fill="none" stroke="black" stroke-width="0.6"></polyline><polyline points="50.50813008130081,55.6910569105691 50.55894308943089,55.6910569105691 50.66056910569105,55.6910569105691 50.8130081300813,55.6910569105691 50.91463414634146,55.74186991869919 50.96544715447154,55.74186991869919 51.016260162601625,55.74186991869919 51.11788617886179,55.74186991869919 51.32113821138211,55.74186991869919 51.37195121951219,55.74186991869919 51.422764227642276,55.74186991869919 51.47357723577235,55.74186991869919 51.575203252032516,55.74186991869919 51.6260162601626,55.74186991869919 51.67682926829268,55.6910569105691 51.829268292682926,55.6910569105691 51.981707317073166,55.640243902439025 52.03252032520325,55.640243902439025 52.1849593495935,55.640243902439025 52.28658536585366,55.58943089430894 52.33739837398374,55.58943089430894 52.59146341463415,55.53861788617886 52.642276422764226,55.48780487804878 52.74390243902439,55.48780487804878 52.79471544715447,55.4369918699187 52.947154471544714,55.386178861788615 53.09959349593496,55.33536585365854 53.2520325203252,55.28455284552845 53.353658536585364,55.28455284552845 53.40447154471545,55.233739837398375 53.50609756097561,55.18292682926829 53.55691056910569,55.13211382113821 53.709349593495936,55.08130081300813 53.96341463414634,54.979674796747965 54.0650406504065,54.92886178861789 54.11585365853659,54.8780487804878 54.21747967479675,54.827235772357724 54.36991869918699,54.77642276422764 54.47154471544715,54.67479674796748 54.67479674796748,54.573170731707314 54.77642276422764,54.52235772357724 54.827235772357724,54.47154471544715 54.92886178861789,54.420731707317074 55.03048780487805,54.31910569105691 55.13211382113821,54.26829268292683 55.18292682926829,54.21747967479675 55.233739837398375,54.166666666666664 55.28455284552845,54.11585365853659 55.386178861788615,54.0650406504065 55.48780487804878,54.014227642276424 55.58943089430894,53.91260162601626" fill="none" stroke="black" stroke-width="0.6"></polyline><polyline points="55.58943089430894,53.91260162601626 55.792682926829265,53.760162601626014 55.84349593495935,53.709349593495936 55.89430894308943,53.65853658536585 55.94512195121951,53.607723577235774 56.09756097560975,53.50609756097561 56.199186991869915,53.40447154471545 56.30081300813008,53.2520325203252 56.453252032520325,53.15040650406504 56.55487804878049,53.048780487804876 56.70731707317073,52.896341463414636 56.859756097560975,52.74390243902439 56.91056910569105,52.69308943089431 57.0630081300813,52.540650406504064 57.16463414634146,52.4390243902439 57.266260162601625,52.28658536585366 57.36788617886179,52.1849593495935 57.418699186991866,52.13414634146341 57.46951219512195,52.083333333333336 57.46951219512195,52.03252032520325 57.52032520325203,51.981707317073166 57.57113821138211,51.93089430894309 57.62195121951219,51.880081300813 57.672764227642276,51.829268292682926 57.72357723577235,51.67682926829268 57.77439024390244,51.6260162601626 57.825203252032516,51.575203252032516 57.825203252032516,51.52439024390244 57.8760162601626,51.47357723577235 57.92682926829268,51.422764227642276 57.97764227642276,51.32113821138211 58.02845528455284,51.21951219512195 58.02845528455284,51.21951219512195 58.079268292682926,51.168699186991866 58.130081300813,51.0670731707317 58.18089430894309,51.016260162601625 58.231707317073166,50.86382113821138 58.28252032520325,50.8130081300813 58.28252032520325,50.762195121951216 58.33333333333333,50.762195121951216 58.38414634146341,50.609756097560975 58.43495934959349,50.50813008130081 58.536585365853654,50.30487804878049 58.58739837398374,50.2540650406504 58.6890243902439,50.10162601626016 58.739837398373986,50 58.84146341463415,49.84756097560975 58.94308943089431,49.64430894308943 58.99390243902439,49.49186991869919 59.04471544715447,49.390243902439025 59.09552845528455,49.33943089430894" fill="none" stroke="black" stroke-width="0.6"></polyline><polyline points="59.09552845528455,49.33943089430894 59.09552845528455,49.28861788617886 59.146341463414636,49.136178861788615 59.197154471544714,48.983739837398375 59.298780487804876,48.78048780487805 59.34959349593496,48.67886178861789 59.40040650406504,48.47560975609756 59.451219512195124,48.323170731707314 59.5020325203252,48.11991869918699 59.603658536585364,47.86585365853659 59.65447154471545,47.66260162601626 59.70528455284553,47.61178861788618 59.75609756097561,47.510162601626014 59.857723577235774,47.25609756097561 59.90853658536585,46.951219512195124 59.959349593495936,46.798780487804876 59.959349593495936,46.697154471544714 60.010162601626014,46.49390243902439 60.0609756097561,46.290650406504064 60.11178861788618,45.985772357723576 60.11178861788618,45.88414634146341 60.11178861788618,45.78252032520325 60.16260162601626,45.579268292682926 60.16260162601626,45.325203252032516 60.21341463414634,45.172764227642276 60.21341463414634,44.96951219512195 60.21341463414634,44.918699186991866 60.21341463414634,44.8170731707317 60.21341463414634,44.766260162601625 60.21341463414634,44.66463414634146 60.21341463414634,44.512195121951216 60.21341463414634,44.359756097560975 60.21341463414634,44.15650406504065 60.21341463414634,44.05487804878049 60.21341463414634,44.0040650406504 60.21341463414634,43.90243902439024 60.16260162601626,43.80081300813008 60.16260162601626,43.59756097560975 60.16260162601626,43.546747967479675 60.16260162601626,43.44512195121951 60.16260162601626,43.292682926829265 60.11178861788618,43.140243902439025 60.11178861788618,43.03861788617886 60.11178861788618,42.98780487804878 60.11178861788618,42.9369918699187 60.0609756097561,42.78455284552845 60.0609756097561,42.68292682926829 60.0609756097561,42.63211382113821 60.010162601626014,42.479674796747965 60.010162601626014,42.42886178861789 60.010162601626014,42.3780487804878" fill="none" stroke="black" stroke-width="0.6"></polyline><polyline points="60.010162601626014,42.3780487804878 59.959349593495936,42.22560975609756 59.90853658536585,42.073170731707314 59.857723577235774,41.920731707317074 59.857723577235774,41.86991869918699 59.857723577235774,41.81910569105691 59.80691056910569,41.71747967479675 59.75609756097561,41.61585365853659 59.75609756097561,41.514227642276424 59.70528455284553,41.46341463414634 59.65447154471545,41.36178861788618 59.65447154471545,41.260162601626014 59.603658536585364,41.209349593495936 59.552845528455286,41.107723577235774 59.5020325203252,41.00609756097561 59.451219512195124,40.90447154471545 59.34959349593496,40.7520325203252 59.298780487804876,40.701219512195124 59.2479674796748,40.65040650406504 59.197154471544714,40.59959349593496 59.09552845528455,40.447154471544714 59.09552845528455,40.396341463414636 59.04471544715447,40.34552845528455 58.892276422764226,40.142276422764226 58.790650406504064,39.989837398373986 58.739837398373986,39.9390243902439 58.6890243902439,39.83739837398374 58.63821138211382,39.78658536585366 58.485772357723576,39.583333333333336 58.33333333333333,39.329268292682926 58.28252032520325,39.27845528455285 58.231707317073166,39.176829268292686 58.18089430894309,39.07520325203252 58.079268292682926,38.922764227642276 57.92682926829268,38.77032520325203 57.72357723577235,38.516260162601625 57.62195121951219,38.41463414634146 57.46951219512195,38.21138211382114 57.3170731707317,38.05894308943089 57.16463414634146,37.855691056910565 57.0630081300813,37.7540650406504 57.012195121951216,37.65243902439024 56.91056910569105,37.55081300813008 56.75813008130081,37.34756097560975 56.5040650406504,37.09349593495935 56.199186991869915,36.83943089430894 56.09756097560975,36.73780487804878 55.84349593495935,36.53455284552845 55.53861788617886,36.28048780487805 55.18292682926829,36.1280487804878 54.77642276422764,35.823170731707314" fill="none" stroke="black" stroke-width="0.6"></polyline><polyline points="54.77642276422764,35.823170731707314 54.67479674796748,35.77235772357724 54.47154471544715,35.61991869918699 54.31910569105691,35.46747967479675 54.21747967479675,35.416666666666664 54.11585365853659,35.3150406504065 53.96341463414634,35.16260162601626 53.86178861788618,35.11178861788618 53.709349593495936,35.010162601626014 53.607723577235774,34.959349593495936 53.55691056910569,34.90853658536585 53.353658536585364,34.80691056910569 53.09959349593496,34.65447154471545 53.048780487804876,34.603658536585364 52.896341463414636,34.552845528455286 52.74390243902439,34.5020325203252 52.59146341463415,34.451219512195124 52.489837398373986,34.40040650406504 52.33739837398374,34.34959349593496 52.28658536585366,34.34959349593496 52.083333333333336,34.298780487804876 51.880081300813,34.2479674796748 51.829268292682926,34.2479674796748 51.77845528455284,34.2479674796748 51.6260162601626,34.197154471544714 51.575203252032516,34.197154471544714 51.422764227642276,34.197154471544714 51.21951219512195,34.197154471544714 51.0670731707317,34.197154471544714 51.016260162601625,34.197154471544714 50.86382113821138,34.2479674796748 50.609756097560975,34.2479674796748 50.50813008130081,34.2479674796748 50.40650406504065,34.298780487804876 50.2540650406504,34.298780487804876 50,34.34959349593496 49.542682926829265,34.451219512195124 49.390243902439025,34.451219512195124 49.23780487804878,34.5020325203252 49.136178861788615,34.5020325203252 48.88211382113821,34.552845528455286 48.6280487804878,34.603658536585364 48.47560975609756,34.603658536585364 48.27235772357724,34.65447154471545 48.170731707317074,34.65447154471545 48.01829268292683,34.70528455284553 47.8150406504065,34.70528455284553 47.764227642276424,34.75609756097561 47.71341463414634,34.75609756097561 47.61178861788618,34.75609756097561 47.40853658536585,34.80691056910569" fill="none" stroke="black" stroke-width="0.6"></polyline><polyline points="47.40853658536585,34.80691056910569 47.357723577235774,34.80691056910569 47.30691056910569,34.857723577235774 47.103658536585364,34.90853658536585 46.951219512195124,34.959349593495936 46.90040650406504,35.010162601626014 46.798780487804876,35.010162601626014 46.646341463414636,35.11178861788618 46.49390243902439,35.16260162601626 46.239837398373986,35.264227642276424 46.03658536585366,35.36585365853659 45.78252032520325,35.46747967479675 45.3760162601626,35.670731707317074 45.22357723577235,35.72154471544715 44.96951219512195,35.823170731707314 44.66463414634146,35.92479674796748 44.30894308943089,36.077235772357724 44.20731707317073,36.1280487804878 44.0040650406504,36.229674796747965 43.699186991869915,36.33130081300813 43.59756097560975,36.38211382113821 43.49593495934959,36.43292682926829 43.1910569105691,36.58536585365854 42.886178861788615,36.73780487804878 42.78455284552845,36.78861788617886 42.53048780487805,36.890243902439025 42.327235772357724,37.042682926829265 42.22560975609756,37.09349593495935 41.97154471544715,37.19512195121951 41.666666666666664,37.39837398373984 41.41260162601626,37.55081300813008 41.260162601626014,37.60162601626016 40.90447154471545,37.855691056910565 40.4979674796748,38.109756097560975 40.396341463414636,38.16056910569105 40.142276422764226,38.36382113821138 39.88821138211382,38.516260162601625 39.735772357723576,38.668699186991866 39.63414634146341,38.77032520325203 39.53252032520325,38.82113821138211 39.43089430894309,38.97357723577235 39.27845528455285,39.1260162601626 39.22764227642276,39.176829268292686 39.176829268292686,39.22764227642276 39.1260162601626,39.27845528455285 39.07520325203252,39.38008130081301 38.97357723577235,39.48170731707317 38.922764227642276,39.583333333333336 38.87195121951219,39.6849593495935 38.77032520325203,39.83739837398374 38.77032520325203,39.88821138211382" fill="none" stroke="black" stroke-width="0.6"></polyline><polyline points="38.77032520325203,39.88821138211382 38.71951219512195,39.9390243902439 38.71951219512195,39.989837398373986 38.668699186991866,40.09146341463415 38.61788617886179,40.19308943089431 38.61788617886179,40.24390243902439 38.5670731707317,40.24390243902439 38.5670731707317,40.34552845528455 38.46544715447154,40.4979674796748 38.46544715447154,40.548780487804876 38.41463414634146,40.59959349593496 38.41463414634146,40.701219512195124 38.36382113821138,40.802845528455286 38.3130081300813,40.90447154471545 38.262195121951216,41.00609756097561 38.262195121951216,41.05691056910569 38.16056910569105,41.15853658536585 38.109756097560975,41.3109756097561 38.05894308943089,41.41260162601626 38.05894308943089,41.514227642276424 38.00813008130081,41.5650406504065 37.95731707317073,41.71747967479675 37.855691056910565,41.920731707317074 37.855691056910565,41.97154471544715 37.80487804878049,42.1239837398374 37.7540650406504,42.27642276422764 37.7540650406504,42.3780487804878 37.703252032520325,42.53048780487805 37.60162601626016,42.733739837398375 37.55081300813008,42.9369918699187 37.5,43.03861788617886 37.5,43.08943089430894 37.449186991869915,43.1910569105691 37.39837398373984,43.39430894308943 37.34756097560975,43.59756097560975 37.296747967479675,43.699186991869915 37.19512195121951,43.953252032520325 37.09349593495935,44.25813008130081 37.09349593495935,44.359756097560975 37.042682926829265,44.46138211382114 37.042682926829265,44.61382113821138 36.99186991869919,44.8170731707317 36.9410569105691,44.96951219512195 36.9410569105691,45.07113821138211 36.890243902439025,45.172764227642276 36.890243902439025,45.3760162601626 36.83943089430894,45.63008130081301 36.83943089430894,45.73170731707317 36.83943089430894,45.78252032520325 36.83943089430894,45.88414634146341 36.78861788617886,46.03658536585366" fill="none" stroke="black" stroke-width="0.6"></polyline><polyline points="36.78861788617886,46.03658536585366 36.78861788617886,46.239837398373986 36.78861788617886,46.290650406504064 36.78861788617886,46.392276422764226 36.78861788617886,46.54471544715447 36.78861788617886,46.84959349593496 36.78861788617886,46.90040650406504 36.78861788617886,47.103658536585364 36.78861788617886,47.25609756097561 36.78861788617886,47.40853658536585 36.78861788617886,47.510162601626014 36.78861788617886,47.5609756097561 36.78861788617886,47.764227642276424 36.78861788617886,47.86585365853659 36.78861788617886,48.01829268292683 36.78861788617886,48.11991869918699 36.78861788617886,48.22154471544715 36.78861788617886,48.3739837398374 36.73780487804878,48.47560975609756 36.73780487804878,48.577235772357724 36.73780487804878,48.67886178861789 36.73780487804878,48.78048780487805 36.73780487804878,48.93292682926829 36.73780487804878,49.136178861788615 36.73780487804878,49.28861788617886 36.73780487804878,49.390243902439025 36.73780487804878,49.49186991869919 36.73780487804878,49.64430894308943 36.78861788617886,49.89837398373984 36.78861788617886,49.949186991869915 36.78861788617886,50.10162601626016 36.78861788617886,50.30487804878049 36.83943089430894,50.50813008130081 36.83943089430894,50.609756097560975 36.83943089430894,50.762195121951216 36.890243902439025,50.91463414634146 36.890243902439025,51.0670731707317 36.890243902439025,51.168699186991866 36.890243902439025,51.21951219512195 36.9410569105691,51.37195121951219 36.99186991869919,51.6260162601626 36.99186991869919,51.67682926829268 36.99186991869919,51.829268292682926 37.042682926829265,51.981707317073166 37.042682926829265,52.13414634146341 37.09349593495935,52.1849593495935 37.09349593495935,52.235772357723576 37.09349593495935,52.38821138211382 37.14430894308943,52.540650406504064 37.19512195121951,52.69308943089431 37.19512195121951,52.79471544715447" fill="none" stroke="black" stroke-width="0.6"></polyline><polyline points="37.19512195121951,52.79471544715447 37.24593495934959,53.048780487804876 37.34756097560975,53.302845528455286 37.34756097560975,53.40447154471545 37.39837398373984,53.607723577235774 37.449186991869915,53.8109756097561 37.5,53.96341463414634 37.55081300813008,54.11585365853659 37.65243902439024,54.36991869918699 37.7540650406504,54.6239837398374 37.7540650406504,54.72560975609756 37.80487804878049,54.827235772357724 37.80487804878049,54.8780487804878 37.855691056910565,55.03048780487805 37.95731707317073,55.33536585365854 38.00813008130081,55.4369918699187 38.00813008130081,55.48780487804878 38.05894308943089,55.58943089430894 38.109756097560975,55.74186991869919 38.16056910569105,55.94512195121951 38.21138211382114,55.99593495934959 38.3130081300813,56.25 38.41463414634146,56.40243902439024 38.46544715447154,56.605691056910565 38.516260162601625,56.65650406504065 38.5670731707317,56.75813008130081 38.61788617886179,56.80894308943089 38.61788617886179,56.91056910569105 38.71951219512195,57.0630081300813 38.77032520325203,57.21544715447154 38.82113821138211,57.266260162601625 38.87195121951219,57.3170731707317 38.97357723577235,57.52032520325203 39.02439024390244,57.62195121951219 39.1260162601626,57.77439024390244 39.176829268292686,57.8760162601626 39.22764227642276,57.92682926829268 39.27845528455285,58.079268292682926 39.43089430894309,58.33333333333333 39.53252032520325,58.38414634146341 39.63414634146341,58.536585365853654 39.735772357723576,58.6890243902439 39.83739837398374,58.84146341463415 39.88821138211382,58.94308943089431 39.989837398373986,58.99390243902439 40.09146341463415,59.146341463414636 40.24390243902439,59.34959349593496 40.396341463414636,59.5020325203252 40.447154471544714,59.552845528455286 40.4979674796748,59.65447154471545 40.701219512195124,59.80691056910569" fill="none" stroke="black" stroke-width="0.6"></polyline><polyline points="40.701219512195124,59.80691056910569 40.853658536585364,59.959349593495936 40.90447154471545,60.010162601626014 41.00609756097561,60.0609756097561 41.15853658536585,60.264227642276424 41.36178861788618,60.36585365853659 41.5650406504065,60.51829268292683 41.76829268292683,60.670731707317074 41.86991869918699,60.72154471544715 41.97154471544715,60.77235772357724 42.17479674796748,60.92479674796748 42.3780487804878,61.02642276422764 42.479674796747965,61.077235772357724 42.63211382113821,61.17886178861789 42.733739837398375,61.28048780487805 42.886178861788615,61.33130081300813 42.9369918699187,61.38211382113821 43.140243902439025,61.483739837398375 43.24186991869919,61.53455284552845 43.39430894308943,61.58536585365854 43.64837398373984,61.73780487804878 43.699186991869915,61.78861788617886 43.90243902439024,61.83943089430894 44.05487804878049,61.890243902439025 44.15650406504065,61.9410569105691 44.20731707317073,61.9410569105691 44.30894308943089,61.99186991869919 44.41056910569105,61.99186991869919 44.61382113821138,62.042682926829265 44.8170731707317,62.09349593495935 45.02032520325203,62.09349593495935 45.22357723577235,62.14430894308943 45.27439024390244,62.14430894308943 45.3760162601626,62.14430894308943 45.52845528455285,62.19512195121951 45.579268292682926,62.19512195121951 45.68089430894309,62.19512195121951 45.88414634146341,62.24593495934959 46.08739837398374,62.24593495934959 46.1890243902439,62.24593495934959 46.392276422764226,62.296747967479675 46.44308943089431,62.296747967479675 46.54471544715447,62.296747967479675 46.7479674796748,62.34756097560975 46.90040650406504,62.34756097560975 46.951219512195124,62.39837398373984 47.052845528455286,62.39837398373984 47.25609756097561,62.39837398373984 47.40853658536585,62.449186991869915 47.5609756097561,62.449186991869915 47.8150406504065,62.5" fill="none" stroke="black" stroke-width="0.6"></polyline><polyline points="47.8150406504065,62.5 47.86585365853659,62.5 47.96747967479675,62.5 48.170731707317074,62.5 48.323170731707314,62.55081300813008 48.47560975609756,62.55081300813008 48.577235772357724,62.55081300813008 48.67886178861789,62.55081300813008 48.83130081300813,62.60162601626016 48.983739837398375,62.60162601626016 49.1869918699187,62.60162601626016 49.28861788617886,62.60162601626016 49.33943089430894,62.60162601626016 49.4410569105691,62.60162601626016 49.542682926829265,62.60162601626016 49.74593495934959,62.60162601626016 49.84756097560975,62.60162601626016 49.949186991869915,62.60162601626016 50.2540650406504,62.60162601626016 50.355691056910565,62.60162601626016 50.45731707317073,62.55081300813008 50.71138211382114,62.55081300813008 50.91463414634146,62.5 51.016260162601625,62.5 51.11788617886179,62.5 51.168699186991866,62.5 51.27032520325203,62.449186991869915 51.32113821138211,62.449186991869915 51.422764227642276,62.449186991869915 51.575203252032516,62.39837398373984 51.67682926829268,62.39837398373984 51.72764227642276,62.39837398373984 51.93089430894309,62.39837398373984 52.083333333333336,62.34756097560975 52.13414634146341,62.34756097560975 52.4390243902439,62.296747967479675 52.59146341463415,62.24593495934959 52.84552845528455,62.24593495934959 52.9979674796748,62.19512195121951 53.09959349593496,62.19512195121951 53.2520325203252,62.14430894308943 53.40447154471545,62.14430894308943 53.50609756097561,62.14430894308943 53.65853658536585,62.09349593495935 53.8109756097561,62.09349593495935 53.91260162601626,62.042682926829265 53.96341463414634,62.042682926829265 54.0650406504065,62.042682926829265 54.11585365853659,61.99186991869919 54.21747967479675,61.99186991869919 54.26829268292683,61.99186991869919" fill="none" stroke="black" stroke-width="0.6"></polyline><polyline points="54.26829268292683,61.99186991869919 54.36991869918699,61.9410569105691 54.47154471544715,61.9410569105691 54.6239837398374,61.890243902439025 54.827235772357724,61.83943089430894 54.979674796747965,61.78861788617886 55.08130081300813,61.78861788617886 55.18292682926829,61.73780487804878 55.4369918699187,61.6869918699187 55.640243902439025,61.636178861788615 55.792682926829265,61.58536585365854 55.99593495934959,61.53455284552845 56.199186991869915,61.483739837398375 56.25,61.43292682926829 56.453252032520325,61.38211382113821 56.55487804878049,61.38211382113821 56.65650406504065,61.33130081300813 56.96138211382114,61.28048780487805 57.16463414634146,61.229674796747965 57.266260162601625,61.17886178861789 57.36788617886179,61.17886178861789 57.46951219512195,61.1280487804878 57.52032520325203,61.077235772357724 57.825203252032516,60.97560975609756 57.92682926829268,60.92479674796748 58.02845528455284,60.8739837398374 58.231707317073166,60.823170731707314 58.536585365853654,60.670731707317074 58.739837398373986,60.61991869918699 58.84146341463415,60.56910569105691 58.94308943089431,60.51829268292683 59.04471544715447,60.46747967479675 59.2479674796748,60.36585365853659 59.34959349593496,60.3150406504065 59.603658536585364,60.21341463414634 59.70528455284553,60.16260162601626 59.80691056910569,60.11178861788618 59.90853658536585,60.0609756097561 60.0609756097561,60.010162601626014 60.16260162601626,59.959349593495936 60.264227642276424,59.90853658536585 60.46747967479675,59.75609756097561 60.670731707317074,59.65447154471545 60.8739837398374,59.552845528455286 61.02642276422764,59.451219512195124 61.28048780487805,59.2479674796748 61.43292682926829,59.09552845528455 61.53455284552845,59.04471544715447 61.6869918699187,58.892276422764226 61.78861788617886,58.84146341463415 61.9410569105691,58.6890243902439" fill="none" stroke="black" stroke-width="0.6"></polyline><polyline points="61.9410569105691,58.6890243902439 62.14430894308943,58.485772357723576 62.296747967479675,58.38414634146341 62.449186991869915,58.231707317073166 62.55081300813008,58.079268292682926 62.65243902439024,57.97764227642276 62.80487804878049,57.77439024390244 62.95731707317073,57.62195121951219 63.00813008130081,57.57113821138211 63.05894308943089,57.418699186991866 63.16056910569105,57.3170731707317 63.262195121951216,57.16463414634146 63.3130081300813,57.0630081300813 63.46544715447154,56.859756097560975 63.516260162601625,56.80894308943089 63.61788617886179,56.70731707317073 63.668699186991866,56.605691056910565 63.71951219512195,56.5040650406504 63.922764227642276,56.25 64.07520325203252,56.046747967479675 64.1260162601626,55.94512195121951 64.27845528455285,55.74186991869919 64.32926829268293,55.6910569105691 64.48170731707317,55.4369918699187 64.6849593495935,55.13211382113821 64.73577235772358,55.03048780487805 64.83739837398373,54.8780487804878 64.88821138211382,54.77642276422764 64.9390243902439,54.67479674796748 65.09146341463415,54.420731707317074 65.29471544715447,54.014227642276424 65.39634146341463,53.760162601626014 65.4979674796748,53.607723577235774 65.54878048780488,53.45528455284553 65.65040650406505,53.302845528455286 65.80284552845528,52.9979674796748 65.85365853658537,52.84552845528455 65.95528455284553,52.69308943089431 66.10772357723577,52.33739837398374 66.26016260162602,52.03252032520325 66.41260162601625,51.72764227642276 66.51422764227642,51.575203252032516 66.5650406504065,51.422764227642276 66.61585365853658,51.27032520325203 66.76829268292683,50.96544715447154 66.8191056910569,50.762195121951216 66.869918699187,50.55894308943089 66.97154471544715,50.2540650406504 67.07317073170732,49.949186991869915 67.27642276422765,49.4410569105691 67.27642276422765,49.28861788617886" fill="none" stroke="black" stroke-width="0.6"></polyline><polyline points="67.27642276422765,49.28861788617886 67.3780487804878,49.03455284552845 67.47967479674797,48.67886178861789 67.53048780487805,48.3739837398374 67.58130081300813,48.06910569105691 67.6829268292683,47.764227642276424 67.73373983739837,47.459349593495936 67.78455284552845,47.15447154471545 67.83536585365853,46.84959349593496 67.88617886178862,46.59552845528455 67.9369918699187,46.290650406504064 67.9369918699187,46.13821138211382 67.9369918699187,45.9349593495935 67.98780487804878,45.68089430894309 68.03861788617886,45.3760162601626 68.03861788617886,45.07113821138211 68.08943089430895,44.766260162601625 68.08943089430895,44.46138211382114 68.14024390243902,44.15650406504065 68.14024390243902,43.85162601626016 68.14024390243902,43.546747967479675 68.14024390243902,43.24186991869919 68.14024390243902,42.9369918699187 68.08943089430895,42.63211382113821 68.08943089430895,42.327235772357724 68.03861788617886,42.02235772357724 67.98780487804878,41.71747967479675 67.9369918699187,41.41260162601626 67.83536585365853,41.15853658536585 67.78455284552845,40.853658536585364 67.73373983739837,40.548780487804876 67.6321138211382,40.29471544715447 67.58130081300813,39.989837398373986 67.47967479674797,39.735772357723576 67.42886178861788,39.43089430894309 67.32723577235772,39.176829268292686 67.22560975609755,38.87195121951219 67.17479674796748,38.668699186991866 67.02235772357723,38.41463414634146 66.92073170731707,38.16056910569105 66.8191056910569,37.90650406504065 66.71747967479675,37.60162601626016 66.5650406504065,37.34756097560975 66.46341463414635,37.09349593495935 66.36178861788618,36.83943089430894 66.20934959349593,36.58536585365854 66.10772357723577,36.38211382113821 66.0060975609756,36.17886178861789 65.85365853658537,35.92479674796748 65.7520325203252,35.72154471544715 65.59959349593495,35.46747967479675" fill="none" stroke="black" stroke-width="0.6"></polyline><polyline points="65.59959349593495,35.46747967479675 65.4979674796748,35.264227642276424 65.39634146341463,35.0609756097561 65.2439024390244,34.857723577235774 65.14227642276423,34.65447154471545 64.98983739837398,34.5020325203252 64.88821138211382,34.298780487804876 64.73577235772358,34.09552845528455 64.58333333333333,33.94308943089431 64.43089430894308,33.739837398373986 64.27845528455285,33.58739837398374 64.1260162601626,33.38414634146341 63.922764227642276,33.18089430894309 63.77032520325203,32.97764227642276 63.61788617886179,32.82520325203252 63.46544715447154,32.6219512195122 63.262195121951216,32.46951219512195 63.109756097560975,32.3170731707317 62.95731707317073,32.16463414634146 62.80487804878049,32.012195121951216 62.65243902439024,31.859756097560975 62.5,31.70731707317073 62.34756097560975,31.554878048780488 62.19512195121951,31.402439024390244 61.99186991869919,31.25 61.83943089430894,31.046747967479675 61.6869918699187,30.89430894308943 61.53455284552845,30.741869918699187 61.38211382113821,30.589430894308943 61.229674796747965,30.48780487804878 61.077235772357724,30.335365853658537 60.92479674796748,30.233739837398375 60.72154471544715,30.08130081300813 60.56910569105691,29.979674796747968 60.36585365853659,29.827235772357724 60.21341463414634,29.725609756097562 60.010162601626014,29.573170731707318 59.857723577235774,29.471544715447155 59.70528455284553,29.369918699186993 59.5020325203252,29.217479674796746 59.298780487804876,29.115853658536583 59.146341463414636,29.01422764227642 58.84146341463415,28.810975609756095 58.536585365853654,28.65853658536585 58.130081300813,28.506097560975608 57.77439024390244,28.404471544715445 57.46951219512195,28.302845528455283 57.266260162601625,28.2520325203252 56.96138211382114,28.15040650406504 56.65650406504065,28.048780487804876 56.30081300813008,27.947154471544714" fill="none" stroke="black" stroke-width="0.6"></polyline><polyline points="56.30081300813008,27.947154471544714 55.89430894308943,27.84552845528455 55.53861788617886,27.74390243902439 55.18292682926829,27.693089430894307 54.827235772357724,27.591463414634145 54.52235772357724,27.489837398373982 54.166666666666664,27.4390243902439 53.760162601626014,27.38821138211382 53.40447154471545,27.286585365853657 53.048780487804876,27.235772357723576 52.69308943089431,27.184959349593495 52.4390243902439,27.184959349593495 52.235772357723576,27.134146341463413 51.981707317073166,27.083333333333332 51.72764227642276,27.03252032520325 51.52439024390244,27.03252032520325 51.32113821138211,26.98170731707317 51.11788617886179,26.98170731707317 50.91463414634146,26.93089430894309 50.762195121951216,26.93089430894309 50.609756097560975,26.93089430894309 50.45731707317073,26.93089430894309 50.2540650406504,26.93089430894309 50.10162601626016,26.93089430894309 49.949186991869915,26.93089430894309 49.796747967479675,26.93089430894309 49.64430894308943,26.98170731707317 49.4410569105691,26.98170731707317 49.28861788617886,27.03252032520325 49.1869918699187,27.03252032520325 49.03455284552845,27.083333333333332 48.93292682926829,27.134146341463413 48.78048780487805,27.134146341463413 48.6280487804878,27.184959349593495 48.52642276422764,27.235772357723576 48.42479674796748,27.235772357723576 48.323170731707314,27.286585365853657 48.22154471544715,27.33739837398374 48.06910569105691,27.33739837398374 47.916666666666664,27.38821138211382 47.8150406504065,27.4390243902439 47.66260162601626,27.489837398373982 47.510162601626014,27.540650406504064 47.357723577235774,27.591463414634145 47.20528455284553,27.642276422764226 47.052845528455286,27.642276422764226 46.90040650406504,27.693089430894307 46.7479674796748,27.74390243902439 46.59552845528455,27.79471544715447 46.44308943089431,27.84552845528455 46.34146341463415,27.896341463414632" fill="none" stroke="black" stroke-width="0.6"></polyline><polyline points="46.34146341463415,27.896341463414632 46.13821138211382,27.947154471544714 45.985772357723576,27.997967479674795 45.833333333333336,28.048780487804876 45.63008130081301,28.099593495934958 45.47764227642276,28.15040650406504 45.27439024390244,28.20121951219512 45.02032520325203,28.302845528455283 44.766260162601625,28.353658536585364 44.512195121951216,28.455284552845526 44.25813008130081,28.55691056910569 44.05487804878049,28.65853658536585 43.80081300813008,28.760162601626014 43.59756097560975,28.810975609756095 43.44512195121951,28.912601626016258 43.24186991869919,29.01422764227642 43.03861788617886,29.115853658536583 42.886178861788615,29.166666666666664 42.733739837398375,29.268292682926827 42.53048780487805,29.369918699186993 42.3780487804878,29.420731707317074 42.22560975609756,29.522357723577237 42.02235772357724,29.6239837398374 41.81910569105691,29.725609756097562 41.61585365853659,29.776422764227643 41.36178861788618,29.928861788617887 41.15853658536585,30.03048780487805 40.95528455284553,30.132113821138212 40.701219512195124,30.233739837398375 40.447154471544714,30.38617886178862 40.24390243902439,30.48780487804878 39.989837398373986,30.640243902439025 39.735772357723576,30.79268292682927 39.48170731707317,30.945121951219512 39.176829268292686,31.148373983739837 38.87195121951219,31.351626016260163 38.5670731707317,31.504065040650406 38.3130081300813,31.70731707317073 38.05894308943089,31.910569105691057 37.7540650406504,32.11382113821138 37.449186991869915,32.3170731707317 37.14430894308943,32.52032520325203 36.83943089430894,32.72357723577236 36.53455284552845,32.97764227642276 36.229674796747965,33.23170731707317 35.92479674796748,33.53658536585366 35.61991869918699,33.790650406504064 35.36585365853659,33.99390243902439 35.11178861788618,34.2479674796748 34.857723577235774,34.5020325203252 34.603658536585364,34.70528455284553" fill="none" stroke="black" stroke-width="0.6"></polyline><polyline points="34.603658536585364,34.70528455284553 34.40040650406504,34.959349593495936 34.197154471544714,35.16260162601626 33.99390243902439,35.36585365853659 33.790650406504064,35.61991869918699 33.58739837398374,35.823170731707314 33.4349593495935,36.02642276422764 33.28252032520325,36.28048780487805 33.18089430894309,36.43292682926829 33.02845528455285,36.636178861788615 32.8760162601626,36.83943089430894 32.77439024390244,36.99186991869919 32.672764227642276,37.14430894308943 32.52032520325203,37.34756097560975 32.418699186991866,37.5 32.3170731707317,37.65243902439024 32.21544715447154,37.855691056910565 32.11382113821138,38.05894308943089 32.012195121951216,38.21138211382114 31.910569105691057,38.41463414634146 31.808943089430894,38.61788617886179 31.70731707317073,38.82113821138211 31.60569105691057,39.02439024390244 31.453252032520325,39.22764227642276 31.351626016260163,39.48170731707317 31.25,39.735772357723576 31.097560975609756,40.040650406504064 30.995934959349594,40.34552845528455 30.84349593495935,40.65040650406504 30.741869918699187,40.95528455284553 30.589430894308943,41.260162601626014 30.48780487804878,41.5650406504065 30.38617886178862,41.86991869918699 30.284552845528456,42.22560975609756 30.182926829268293,42.53048780487805 30.08130081300813,42.886178861788615 29.979674796747968,43.1910569105691 29.878048780487806,43.49593495934959 29.776422764227643,43.80081300813008 29.67479674796748,44.105691056910565 29.6239837398374,44.46138211382114 29.522357723577237,44.766260162601625 29.471544715447155,45.07113821138211 29.369918699186993,45.3760162601626 29.31910569105691,45.63008130081301 29.268292682926827,45.9349593495935 29.166666666666664,46.239837398373986 29.115853658536583,46.54471544715447 29.0650406504065,46.90040650406504 28.96341463414634,47.25609756097561 28.912601626016258,47.5609756097561" fill="none" stroke="black" stroke-width="0.6"></polyline><polyline points="28.912601626016258,47.5609756097561 28.810975609756095,47.916666666666664 28.760162601626014,48.27235772357724 28.65853658536585,48.6280487804878 28.60772357723577,48.983739837398375 28.506097560975608,49.390243902439025 28.455284552845526,49.74593495934959 28.353658536585364,50.05081300813008 28.302845528455283,50.45731707317073 28.2520325203252,50.8130081300813 28.15040650406504,51.168699186991866 28.099593495934958,51.575203252032516 28.048780487804876,51.93089430894309 27.997967479674795,52.235772357723576 27.947154471544714,52.59146341463415 27.896341463414632,52.947154471544714 27.84552845528455,53.302845528455286 27.84552845528455,53.607723577235774 27.79471544715447,53.96341463414634 27.79471544715447,54.26829268292683 27.74390243902439,54.573170731707314 27.74390243902439,54.8780487804878 27.74390243902439,55.18292682926829 27.74390243902439,55.48780487804878 27.74390243902439,55.74186991869919 27.74390243902439,56.046747967479675 27.74390243902439,56.30081300813008 27.74390243902439,56.55487804878049 27.74390243902439,56.80894308943089 27.79471544715447,57.0630081300813 27.84552845528455,57.3170731707317 27.896341463414632,57.62195121951219 27.896341463414632,57.8760162601626 27.947154471544714,58.231707317073166 27.997967479674795,58.58739837398374 28.048780487804876,58.892276422764226 28.099593495934958,59.197154471544714 28.15040650406504,59.603658536585364 28.15040650406504,59.90853658536585 28.20121951219512,60.264227642276424 28.2520325203252,60.61991869918699 28.302845528455283,60.92479674796748 28.353658536585364,61.229674796747965 28.404471544715445,61.58536585365854 28.506097560975608,61.9410569105691 28.55691056910569,62.24593495934959 28.65853658536585,62.60162601626016 28.760162601626014,62.90650406504065 28.861788617886177,63.16056910569105 28.96341463414634,63.46544715447154 29.0650406504065,63.71951219512195" fill="none" stroke="black" stroke-width="0.6"></polyline><polyline points="29.0650406504065,63.71951219512195 29.166666666666664,64.02439024390243 29.31910569105691,64.27845528455285 29.420731707317074,64.48170731707317 29.522357723577237,64.73577235772358 29.67479674796748,64.98983739837398 29.776422764227643,65.14227642276423 29.878048780487806,65.34552845528455 30.03048780487805,65.54878048780488 30.182926829268293,65.70121951219512 30.284552845528456,65.90447154471545 30.4369918699187,66.10772357723577 30.589430894308943,66.26016260162602 30.741869918699187,66.41260162601625 30.89430894308943,66.61585365853658 31.046747967479675,66.76829268292683 31.19918699186992,66.92073170731707 31.402439024390244,67.07317073170732 31.504065040650406,67.22560975609755 31.70731707317073,67.3780487804878 31.859756097560975,67.53048780487805 32.012195121951216,67.6321138211382 32.16463414634146,67.83536585365853 32.36788617886179,67.98780487804878 32.57113821138211,68.14024390243902 32.72357723577236,68.29268292682927 32.97764227642276,68.4451219512195 33.18089430894309,68.59756097560975 33.38414634146341,68.75 33.58739837398374,68.90243902439025 33.790650406504064,69.0040650406504 34.04471544715447,69.15650406504065 34.2479674796748,69.3089430894309 34.451219512195124,69.46138211382113 34.70528455284553,69.61382113821138 34.959349593495936,69.71544715447155 35.16260162601626,69.8170731707317 35.416666666666664,69.96951219512195 35.670731707317074,70.0711382113821 35.92479674796748,70.17276422764228 36.17886178861789,70.32520325203252 36.43292682926829,70.42682926829268 36.73780487804878,70.52845528455285 37.042682926829265,70.630081300813 37.34756097560975,70.68089430894308 37.60162601626016,70.73170731707317 37.90650406504065,70.83333333333333 38.21138211382114,70.8841463414634 38.46544715447154,70.9349593495935 38.82113821138211,70.98577235772358 39.07520325203252,70.98577235772358" fill="none" stroke="black" stroke-width="0.6"></polyline><polyline points="39.07520325203252,70.98577235772358 39.329268292682926,71.03658536585365 39.63414634146341,71.08739837398373 39.88821138211382,71.13821138211382 40.142276422764226,71.13821138211382 40.447154471544714,71.1890243902439 40.701219512195124,71.23983739837398 40.95528455284553,71.23983739837398 41.3109756097561,71.29065040650406 41.61585365853659,71.29065040650406 41.920731707317074,71.34146341463415 42.22560975609756,71.34146341463415 42.479674796747965,71.34146341463415 42.78455284552845,71.39227642276423 43.08943089430894,71.39227642276423 43.39430894308943,71.4430894308943 43.75,71.4430894308943 44.105691056910565,71.4430894308943 44.41056910569105,71.49390243902438 44.766260162601625,71.49390243902438 45.172764227642276,71.49390243902438 45.52845528455285,71.49390243902438 45.88414634146341,71.49390243902438 46.290650406504064,71.49390243902438 46.646341463414636,71.49390243902438 47.0020325203252,71.4430894308943 47.40853658536585,71.4430894308943 47.8150406504065,71.39227642276423 48.22154471544715,71.34146341463415 48.6280487804878,71.29065040650406 49.03455284552845,71.23983739837398 49.4410569105691,71.1890243902439 49.84756097560975,71.13821138211382 50.2540650406504,71.03658536585365 50.66056910569105,70.98577235772358 51.0670731707317,70.8841463414634 51.47357723577235,70.78252032520325 51.880081300813,70.68089430894308 52.28658536585366,70.57926829268293 52.642276422764226,70.47764227642276 52.9979674796748,70.32520325203252 53.40447154471545,70.22357723577235 53.8109756097561,70.1219512195122 54.166666666666664,69.96951219512195 54.573170731707314,69.86788617886178 54.979674796747965,69.71544715447155 55.386178861788615,69.5630081300813 55.792682926829265,69.41056910569105 56.199186991869915,69.2581300813008 56.605691056910565,69.10569105691057 57.012195121951216,68.95325203252033" fill="none" stroke="black" stroke-width="0.6"></polyline><polyline points="57.012195121951216,68.95325203252033 57.36788617886179,68.75 57.72357723577235,68.59756097560975 58.079268292682926,68.39430894308943 58.43495934959349,68.1910569105691 58.84146341463415,67.98780487804878 59.146341463414636,67.78455284552845 59.5020325203252,67.53048780487805 59.857723577235774,67.32723577235772 60.21341463414634,67.07317073170732 60.56910569105691,66.869918699187 60.92479674796748,66.61585365853658 61.229674796747965,66.36178861788618 61.53455284552845,66.15853658536585 61.890243902439025,65.85365853658537 62.19512195121951,65.59959349593495 62.449186991869915,65.39634146341463 62.7540650406504,65.14227642276423 62.95731707317073,64.9390243902439 63.21138211382114,64.73577235772358 63.41463414634146,64.48170731707317 63.61788617886179,64.27845528455285 63.77032520325203,64.07520325203252 63.97357723577235,63.87195121951219 64.1260162601626,63.668699186991866 64.27845528455285,63.46544715447154 64.48170731707317,63.21138211382114 64.6849593495935,63.00813008130081 64.83739837398373,62.80487804878049 65.04065040650406,62.60162601626016 65.1930894308943,62.39837398373984 65.39634146341463,62.19512195121951 65.54878048780488,61.9410569105691 65.70121951219512,61.73780487804878 65.85365853658537,61.53455284552845 66.0569105691057,61.28048780487805 66.20934959349593,61.02642276422764 66.36178861788618,60.823170731707314 66.51422764227642,60.56910569105691 66.66666666666667,60.36585365853659 66.8191056910569,60.11178861788618 66.97154471544715,59.857723577235774 67.1239837398374,59.603658536585364 67.27642276422765,59.34959349593496 67.3780487804878,59.09552845528455 67.53048780487805,58.84146341463415 67.6829268292683,58.58739837398374 67.83536585365853,58.38414634146341 67.9369918699187,58.130081300813 68.08943089430895,57.8760162601626 68.24186991869918,57.62195121951219" fill="none" stroke="black" stroke-width="0.6"></polyline><polyline points="68.24186991869918,57.62195121951219 68.34349593495935,57.418699186991866 68.4959349593496,57.16463414634146 68.64837398373983,56.91056910569105 68.75,56.65650406504065 68.85162601626016,56.453252032520325 69.0040650406504,56.199186991869915 69.10569105691057,55.99593495934959 69.20731707317073,55.792682926829265 69.3089430894309,55.53861788617886 69.41056910569105,55.28455284552845 69.5630081300813,55.08130081300813 69.66463414634146,54.827235772357724 69.76626016260163,54.573170731707314 69.86788617886178,54.31910569105691 70.02032520325203,54.11585365853659 70.1219512195122,53.86178861788618 70.22357723577235,53.607723577235774 70.32520325203252,53.353658536585364 70.42682926829268,53.15040650406504 70.52845528455285,52.896341463414636 70.630081300813,52.59146341463415 70.73170731707317,52.33739837398374 70.83333333333333,52.083333333333336 70.8841463414634,51.829268292682926 70.98577235772358,51.575203252032516 71.08739837398373,51.32113821138211 71.1890243902439,51.0670731707317 71.23983739837398,50.762195121951216 71.34146341463415,50.50813008130081 71.4430894308943,50.203252032520325 71.54471544715447,49.949186991869915 71.59552845528455,49.64430894308943 71.69715447154472,49.33943089430894 71.7479674796748,49.03455284552845 71.84959349593495,48.729674796747965 71.90040650406505,48.3739837398374 72.0020325203252,48.01829268292683 72.05284552845528,47.66260162601626 72.10365853658537,47.30691056910569 72.20528455284553,46.951219512195124 72.2560975609756,46.54471544715447 72.3069105691057,46.13821138211382 72.35772357723577,45.73170731707317 72.40853658536585,45.325203252032516 72.45934959349593,44.96951219512195 72.51016260162602,44.5630081300813 72.5609756097561,44.15650406504065 72.5609756097561,43.75 72.61178861788618,43.34349593495935 72.61178861788618,42.886178861788615" fill="none" stroke="black" stroke-width="0.6"></polyline><polyline points="72.61178861788618,42.886178861788615 72.66260162601625,42.53048780487805 72.66260162601625,42.1239837398374 72.66260162601625,41.666666666666664 72.66260162601625,41.260162601626014 72.66260162601625,40.853658536585364 72.66260162601625,40.447154471544714 72.66260162601625,40.09146341463415 72.66260162601625,39.6849593495935 72.66260162601625,39.22764227642276 72.61178861788618,38.87195121951219 72.61178861788618,38.516260162601625 72.5609756097561,38.109756097560975 72.51016260162602,37.7540650406504 72.45934959349593,37.39837398373984 72.40853658536585,37.042682926829265 72.35772357723577,36.6869918699187 72.3069105691057,36.33130081300813 72.2560975609756,35.92479674796748 72.20528455284553,35.56910569105691 72.15447154471545,35.21341463414634 72.05284552845528,34.80691056910569 72.0020325203252,34.5020325203252 71.90040650406505,34.146341463414636 71.84959349593495,33.790650406504064 71.7479674796748,33.4349593495935 71.64634146341463,33.079268292682926 71.54471544715447,32.72357723577236 71.4430894308943,32.418699186991866 71.29065040650406,32.0630081300813 71.13821138211382,31.70731707317073 71.03658536585365,31.402439024390244 70.8841463414634,31.046747967479675 70.73170731707317,30.691056910569106 70.57926829268293,30.335365853658537 70.42682926829268,30.03048780487805 70.27439024390243,29.67479674796748 70.1219512195122,29.31910569105691 69.91869918699187,28.96341463414634 69.71544715447155,28.60772357723577 69.5630081300813,28.2520325203252 69.35975609756098,27.896341463414632 69.15650406504065,27.591463414634145 68.95325203252033,27.286585365853657 68.75,26.98170731707317 68.54674796747967,26.6260162601626 68.34349593495935,26.321138211382113 68.08943089430895,26.016260162601625 67.83536585365853,25.711382113821138 67.58130081300813,25.40650406504065 67.32723577235772,25.152439024390244" fill="none" stroke="black" stroke-width="0.6"></polyline><polyline points="67.32723577235772,25.152439024390244 67.07317073170732,24.898373983739837 66.8191056910569,24.59349593495935 66.51422764227642,24.339430894308943 66.20934959349593,24.085365853658537 65.90447154471545,23.83130081300813 65.54878048780488,23.577235772357724 65.2439024390244,23.3739837398374 64.88821138211382,23.170731707317074 64.48170731707317,22.96747967479675 64.17682926829268,22.764227642276424 63.87195121951219,22.560975609756095 63.516260162601625,22.35772357723577 63.21138211382114,22.154471544715445 62.855691056910565,21.95121951219512 62.5,21.747967479674795 62.19512195121951,21.59552845528455 61.83943089430894,21.392276422764226 61.483739837398375,21.239837398373982 61.17886178861789,21.08739837398374 60.823170731707314,20.934959349593495 60.46747967479675,20.73170731707317 60.21341463414634,20.630081300813007 59.90853658536585,20.528455284552845 59.552845528455286,20.3760162601626 59.2479674796748,20.274390243902438 58.892276422764226,20.121951219512194 58.536585365853654,20.020325203252032 58.231707317073166,19.867886178861788 57.8760162601626,19.817073170731707 57.52032520325203,19.715447154471544 57.21544715447154,19.61382113821138 56.859756097560975,19.51219512195122 56.55487804878049,19.410569105691057 56.199186991869915,19.308943089430894 55.84349593495935,19.20731707317073 55.4369918699187,19.10569105691057 55.08130081300813,19.054878048780488 54.72560975609756,18.953252032520325 54.31910569105691,18.851626016260163 53.91260162601626,18.80081300813008 53.50609756097561,18.75 53.09959349593496,18.69918699186992 52.69308943089431,18.648373983739837 52.28658536585366,18.597560975609756 51.880081300813,18.597560975609756 51.47357723577235,18.546747967479675 51.11788617886179,18.546747967479675 50.66056910569105,18.546747967479675 50.30487804878049,18.495934959349594 49.89837398373984,18.495934959349594" fill="none" stroke="black" stroke-width="0.6"></polyline><polyline points="49.89837398373984,18.495934959349594 49.4410569105691,18.495934959349594 48.983739837398375,18.495934959349594 48.52642276422764,18.495934959349594 48.01829268292683,18.495934959349594 47.61178861788618,18.546747967479675 47.15447154471545,18.546747967479675 46.697154471544714,18.597560975609756 46.290650406504064,18.648373983739837 45.833333333333336,18.69918699186992 45.42682926829268,18.75 44.96951219512195,18.80081300813008 44.512195121951216,18.851626016260163 44.105691056910565,18.953252032520325 43.64837398373984,19.004065040650406 43.140243902439025,19.10569105691057 42.733739837398375,19.20731707317073 42.27642276422764,19.308943089430894 41.76829268292683,19.461382113821138 41.36178861788618,19.5630081300813 40.853658536585364,19.715447154471544 40.34552845528455,19.867886178861788 39.88821138211382,20.020325203252032 39.43089430894309,20.223577235772357 38.87195121951219,20.426829268292682 38.41463414634146,20.630081300813007 37.95731707317073,20.78252032520325 37.39837398373984,21.036585365853657 36.890243902439025,21.239837398373982 36.38211382113821,21.49390243902439 35.77235772357724,21.798780487804876 35.11178861788618,22.103658536585364 34.552845528455286,22.40853658536585 34.09552845528455,22.71341463414634 33.739837398373986,22.96747967479675 33.28252032520325,23.272357723577237 32.77439024390244,23.577235772357724 32.3170731707317,23.83130081300813 31.910569105691057,24.13617886178862 31.504065040650406,24.390243902439025 31.148373983739837,24.695121951219512 30.84349593495935,24.94918699186992 30.48780487804878,25.254065040650406 30.182926829268293,25.508130081300813 29.878048780487806,25.76219512195122 29.522357723577237,26.067073170731707 29.217479674796746,26.371951219512194 28.912601626016258,26.727642276422763 28.60772357723577,27.083333333333332 28.302845528455283,27.4390243902439 27.947154471544714,27.79471544715447" fill="none" stroke="black" stroke-width="0.6"></polyline><polyline points="27.947154471544714,27.79471544715447 27.591463414634145,28.15040650406504 27.286585365853657,28.55691056910569 26.93089430894309,28.96341463414634 26.6260162601626,29.369918699186993 26.321138211382113,29.776422764227643 26.016260162601625,30.182926829268293 25.711382113821138,30.589430894308943 25.40650406504065,31.046747967479675 25.152439024390244,31.453252032520325 24.847560975609756,31.910569105691057 24.64430894308943,32.3170731707317 24.390243902439025,32.72357723577236 24.1869918699187,33.079268292682926 23.983739837398375,33.53658536585366 23.729674796747968,33.99390243902439 23.475609756097562,34.451219512195124 23.221544715447155,34.90853658536585 23.06910569105691,35.36585365853659 22.815040650406505,35.823170731707314 22.662601626016258,36.28048780487805 22.459349593495933,36.73780487804878 22.30691056910569,37.24593495934959 22.154471544715445,37.65243902439024 22.052845528455283,38.109756097560975 21.90040650406504,38.5670731707317 21.798780487804876,39.02439024390244 21.697154471544714,39.48170731707317 21.646341463414632,39.989837398373986 21.54471544715447,40.447154471544714 21.443089430894307,40.95528455284553 21.392276422764226,41.41260162601626 21.341463414634145,41.86991869918699 21.290650406504064,42.3780487804878 21.239837398373982,42.83536585365854 21.239837398373982,43.34349593495935 21.1890243902439,43.85162601626016 21.13821138211382,44.359756097560975 21.13821138211382,44.86788617886179 21.08739837398374,45.42682926829268 21.08739837398374,45.9349593495935 21.036585365853657,46.49390243902439 20.985772357723576,47.103658536585364 20.985772357723576,47.66260162601626 20.985772357723576,48.22154471544715 20.985772357723576,48.83130081300813 20.985772357723576,49.33943089430894 20.985772357723576,49.89837398373984 20.985772357723576,50.45731707317073 20.985772357723576,50.96544715447154 21.036585365853657,51.52439024390244" fill="none" stroke="black" stroke-width="0.6"></polyline><polyline points="21.036585365853657,51.52439024390244 21.036585365853657,52.083333333333336 21.08739837398374,52.59146341463415 21.08739837398374,53.09959349593496 21.13821138211382,53.709349593495936 21.1890243902439,54.21747967479675 21.239837398373982,54.72560975609756 21.290650406504064,55.28455284552845 21.341463414634145,55.792682926829265 21.392276422764226,56.30081300813008 21.49390243902439,56.80894308943089 21.54471544715447,57.3170731707317 21.646341463414632,57.8760162601626 21.747967479674795,58.38414634146341 21.798780487804876,58.892276422764226 21.90040650406504,59.451219512195124 22.0020325203252,60.010162601626014 22.052845528455283,60.51829268292683 22.154471544715445,61.02642276422764 22.256097560975608,61.53455284552845 22.35772357723577,62.042682926829265 22.510162601626014,62.5 22.611788617886177,63.00813008130081 22.764227642276424,63.46544715447154 22.916666666666668,63.922764227642276 23.06910569105691,64.380081300813 23.272357723577237,64.78658536585365 23.42479674796748,65.1930894308943 23.628048780487806,65.59959349593495 23.83130081300813,66.0060975609756 24.034552845528456,66.36178861788618 24.23780487804878,66.71747967479675 24.441056910569106,67.07317073170732 24.64430894308943,67.42886178861788 24.847560975609756,67.73373983739837 25.05081300813008,68.03861788617886 25.254065040650406,68.39430894308943 25.45731707317073,68.75 25.660569105691057,69.05487804878048 25.914634146341463,69.35975609756098 26.117886178861788,69.66463414634146 26.371951219512194,69.96951219512195 26.6260162601626,70.32520325203252 26.880081300813007,70.630081300813 27.083333333333332,70.9349593495935 27.33739837398374,71.23983739837398 27.591463414634145,71.54471544715447 27.79471544715447,71.79878048780488 28.099593495934958,72.10365853658537 28.302845528455283,72.35772357723577 28.55691056910569,72.66260162601625" fill="none" stroke="black" stroke-width="0.6"></polyline><polyline points="28.55691056910569,72.66260162601625 28.861788617886177,72.96747967479675 29.115853658536583,73.22154471544715 29.369918699186993,73.47560975609755 29.67479674796748,73.78048780487805 29.979674796747968,74.03455284552845 30.284552845528456,74.28861788617886 30.640243902439025,74.59349593495935 30.945121951219512,74.89837398373983 31.25,75.15243902439025 31.60569105691057,75.45731707317073 31.910569105691057,75.66056910569105 32.266260162601625,75.91463414634146 32.672764227642276,76.16869918699187 33.02845528455285,76.3719512195122 33.38414634146341,76.57520325203252 33.790650406504064,76.82926829268293 34.146341463414636,77.03252032520325 34.552845528455286,77.23577235772358 35.010162601626014,77.4390243902439 35.416666666666664,77.64227642276423 35.823170731707314,77.79471544715447 36.33130081300813,77.9979674796748 36.73780487804878,78.15040650406505 37.14430894308943,78.30284552845528 37.65243902439024,78.40447154471545 38.05894308943089,78.5060975609756 38.46544715447154,78.60772357723577 38.922764227642276,78.70934959349593 39.38008130081301,78.8109756097561 39.83739837398374,78.86178861788618 40.24390243902439,78.91260162601625 40.701219512195124,78.96341463414635 41.15853658536585,78.96341463414635 41.666666666666664,78.96341463414635 42.17479674796748,78.96341463414635 42.68292682926829,78.96341463414635 43.1910569105691,78.96341463414635 43.64837398373984,78.91260162601625 44.15650406504065,78.91260162601625 44.66463414634146,78.8109756097561 45.172764227642276,78.76016260162602 45.73170731707317,78.65853658536585 46.290650406504064,78.5569105691057 46.798780487804876,78.45528455284553 47.357723577235774,78.30284552845528 47.96747967479675,78.20121951219512 48.577235772357724,77.9979674796748 49.1869918699187,77.84552845528455 49.796747967479675,77.6930894308943 50.355691056910565,77.48983739837398" fill="none" stroke="black" stroke-width="0.6"></polyline><polyline points="50.355691056910565,77.48983739837398 50.96544715447154,77.33739837398373 51.52439024390244,77.1849593495935 52.083333333333336,76.98170731707317 52.69308943089431,76.82926829268293 53.2520325203252,76.6260162601626 53.760162601626014,76.42276422764228 54.31910569105691,76.21951219512195 54.827235772357724,76.0670731707317 55.33536585365854,75.86382113821138 55.84349593495935,75.66056910569105 56.40243902439024,75.40650406504065 56.859756097560975,75.15243902439025 57.36788617886179,74.94918699186992 57.92682926829268,74.64430894308943 58.43495934959349,74.39024390243902 58.99390243902439,74.08536585365853 59.451219512195124,73.8821138211382 59.90853658536585,73.6280487804878 60.416666666666664,73.32317073170732 60.8739837398374,73.0691056910569 61.33130081300813,72.8150406504065 61.83943089430894,72.45934959349593 62.24593495934959,72.20528455284553 62.65243902439024,71.90040650406505 63.109756097560975,71.59552845528455 63.516260162601625,71.29065040650406 63.922764227642276,70.98577235772358 64.380081300813,70.630081300813 64.73577235772358,70.32520325203252 65.09146341463415,69.96951219512195 65.54878048780488,69.5630081300813 65.90447154471545,69.2581300813008 66.26016260162602,68.90243902439025 66.66666666666667,68.54674796747967 66.97154471544715,68.1910569105691 67.32723577235772,67.83536585365853 67.6829268292683,67.42886178861788 67.98780487804878,67.1239837398374 68.39430894308943,66.76829268292683 68.75,66.36178861788618 69.05487804878048,66.0060975609756 69.41056910569105,65.65040650406505 69.76626016260163,65.2439024390244 70.0711382113821,64.88821138211382 70.3760162601626,64.53252032520325 70.68089430894308,64.17682926829268 70.98577235772358,63.82113821138211 71.23983739837398,63.41463414634146 71.54471544715447,63.00813008130081 71.79878048780488,62.65243902439024" fill="none" stroke="black" stroke-width="0.6"></polyline><polyline points="71.79878048780488,62.65243902439024 72.10365853658537,62.296747967479675 72.35772357723577,61.890243902439025 72.66260162601625,61.53455284552845 72.91666666666667,61.1280487804878 73.119918699187,60.72154471544715 73.3739837398374,60.416666666666664 73.57723577235772,60.0609756097561 73.72967479674797,59.70528455284553 73.9329268292683,59.34959349593496 74.08536585365853,58.99390243902439 74.23780487804878,58.63821138211382 74.39024390243902,58.38414634146341 74.49186991869918,58.079268292682926 74.64430894308943,57.77439024390244 74.7459349593496,57.52032520325203 74.79674796747967,57.266260162601625 74.89837398373983,57.012195121951216 75,56.75813008130081 75.05081300813008,56.55487804878049 75.15243902439025,56.35162601626016 75.20325203252033,56.14837398373984 75.2540650406504,55.99593495934959 75.30487804878048,55.792682926829265 75.35569105691057,55.640243902439025 75.40650406504065,55.48780487804878 75.45731707317073,55.33536585365854 75.5081300813008,55.18292682926829 75.60975609756098,54.979674796747965 75.66056910569105,54.827235772357724 75.71138211382113,54.6239837398374 75.8130081300813,54.47154471544715 75.86382113821138,54.31910569105691 75.91463414634146,54.166666666666664 76.01626016260163,54.014227642276424 76.0670731707317,53.8109756097561 76.16869918699187,53.65853658536585 76.21951219512195,53.50609756097561 76.3211382113821,53.353658536585364 76.3719512195122,53.201219512195124 76.42276422764228,52.9979674796748 76.47357723577235,52.896341463414636 76.47357723577235,52.74390243902439 76.52439024390243,52.59146341463415 76.57520325203252,52.4390243902439 76.57520325203252,52.33739837398374 76.6260162601626,52.1849593495935 76.6260162601626,52.083333333333336 76.67682926829268,51.981707317073166 76.67682926829268,51.880081300813 76.72764227642276,51.77845528455284" fill="none" stroke="black" stroke-width="0.6"></polyline><polyline points="76.72764227642276,51.77845528455284 76.72764227642276,51.67682926829268 76.72764227642276,51.575203252032516 76.77845528455285,51.52439024390244 76.77845528455285,51.422764227642276 76.77845528455285,51.37195121951219 76.77845528455285,51.27032520325203 76.82926829268293,51.21951219512195 76.82926829268293,51.11788617886179 76.82926829268293,51.0670731707317 76.82926829268293,51.016260162601625 76.82926829268293,50.91463414634146 76.82926829268293,50.86382113821138 76.82926829268293,50.86382113821138 76.82926829268293,50.762195121951216 76.82926829268293,50.762195121951216 76.82926829268293,50.71138211382114 76.82926829268293,50.66056910569105 76.82926829268293,50.609756097560975 76.82926829268293,50.55894308943089 76.82926829268293,50.50813008130081 76.82926829268293,50.50813008130081 76.82926829268293,50.45731707317073 76.82926829268293,50.45731707317073 76.82926829268293,50.40650406504065 76.82926829268293,50.40650406504065 76.82926829268293,50.355691056910565 76.82926829268293,50.30487804878049 76.82926829268293,50.30487804878049 76.82926829268293,50.2540650406504 76.82926829268293,50.203252032520325 76.880081300813,50.203252032520325 76.880081300813,50.15243902439024 76.880081300813,50.15243902439024 76.880081300813,50.10162601626016 76.880081300813,50.10162601626016 76.880081300813,50.05081300813008 76.93089430894308,50.05081300813008 76.93089430894308,50.05081300813008" fill="none" stroke="black" stroke-width="0.6"></polyline></svg>