<svg height="100" width="100" preserveAspectRatio="xMidYMid meet"><polyline points="4.369918699186992,17.1239837398374 4.369918699186992,17.1239837398374 4.319105691056911,17.1239837398374 4.2682926829268295,17.1239837398374 4.217479674796748,17.073170731707318 4.166666666666667,17.073170731707318 4.166666666666667,17.022357723577237 4.115853658536586,16.971544715447155 4.115853658536586,16.971544715447155 4.115853658536586,16.920731707317074 4.166666666666667,16.81910569105691 4.2682926829268295,16.76829268292683 4.420731707317073,16.666666666666668 4.623983739837398,16.565040650406505 4.8272357723577235,16.463414634146343 5.08130081300813,16.36178861788618 5.335365853658536,16.260162601626014 5.640243902439024,16.260162601626014 5.945121951219512,16.260162601626014 6.25,16.3109756097561 6.504065040650406,16.463414634146343 6.7073170731707314,16.666666666666668 6.859756097560975,16.971544715447155 6.961382113821138,17.276422764227643 7.012195121951219,17.682926829268293 7.0630081300813,18.089430894308943 7.0630081300813,18.495934959349594 6.961382113821138,18.902439024390244 6.9105691056910565,19.308943089430894 6.758130081300813,19.715447154471544 6.65650406504065,20.071138211382113 6.504065040650406,20.426829268292682 6.300813008130081,20.73170731707317 6.097560975609756,20.985772357723576 5.84349593495935,21.239837398373982 5.589430894308943,21.392276422764226 5.335365853658536,21.49390243902439 5.030487804878049,21.54471544715447 4.776422764227642,21.54471544715447 4.522357723577236,21.49390243902439 4.2682926829268295,21.341463414634145 4.115853658536586,21.239837398373982 3.9634146341463414,21.08739837398374 3.861788617886179,20.884146341463413 3.8109756097560976,20.73170731707317 3.8109756097560976,20.579268292682926 3.8109756097560976,20.426829268292682 3.8109756097560976,20.274390243902438 3.91260162601626,20.071138211382113 4.0650406504065035,19.96951219512195 4.217479674796748,19.867886178861788" fill="none" stroke="black" stroke-width="0.6"></polyline><polyline points="4.217479674796748,19.867886178861788 4.471544715447155,19.867886178861788 4.725609756097561,19.867886178861788 4.979674796747967,19.867886178861788 5.284552845528455,19.96951219512195 5.538617886178861,20.071138211382113 5.84349593495935,20.172764227642276 6.1483739837398375,20.274390243902438 6.402439024390244,20.3760162601626 6.65650406504065,20.426829268292682 6.859756097560975,20.579268292682926 7.0630081300813,20.68089430894309 7.215447154471544,20.833333333333332 7.41869918699187,21.036585365853657 7.571138211382114,21.239837398373982 7.6727642276422765,21.443089430894307 7.774390243902439,21.646341463414632 7.876016260162602,21.798780487804876 7.926829268292683,21.90040650406504 8.028455284552845,22.052845528455283 8.079268292682926,22.154471544715445 8.079268292682926,22.205284552845526 8.130081300813007,22.256097560975608 8.130081300813007,22.256097560975608 8.130081300813007,22.30691056910569 8.130081300813007,22.30691056910569 8.18089430894309,22.30691056910569" fill="none" stroke="black" stroke-width="0.6"></polyline><polyline points="19.61382113821138,17.53048780487805 19.61382113821138,17.479674796747968 19.61382113821138,17.428861788617887 19.61382113821138,17.378048780487806 19.61382113821138,17.327235772357724 19.61382113821138,17.276422764227643 19.61382113821138,17.225609756097562 19.61382113821138,17.17479674796748 19.61382113821138,17.073170731707318 19.5630081300813,16.971544715447155 19.461382113821138,16.81910569105691 19.308943089430894,16.666666666666668 19.054878048780488,16.41260162601626 18.75,16.209349593495933 18.34349593495935,16.006097560975608 17.98780487804878,15.904471544715447 17.632113821138212,15.904471544715447 17.276422764227643,15.904471544715447 16.971544715447155,16.05691056910569 16.666666666666668,16.3109756097561 16.41260162601626,16.615853658536587 16.209349593495933,16.920731707317074 16.05691056910569,17.276422764227643 16.006097560975608,17.632113821138212 15.955284552845528,17.88617886178862 15.955284552845528,18.140243902439025 16.05691056910569,18.34349593495935 16.15853658536585,18.495934959349594 16.3109756097561,18.597560975609756 16.514227642276424,18.648373983739837 16.666666666666668,18.69918699186992 16.81910569105691,18.69918699186992 16.971544715447155,18.69918699186992 17.1239837398374,18.597560975609756 17.276422764227643,18.495934959349594 17.428861788617887,18.34349593495935 17.53048780487805,18.191056910569106 17.682926829268293,18.038617886178862 17.784552845528456,17.88617886178862 17.835365853658537,17.733739837398375 17.9369918699187,17.58130081300813 17.98780487804878,17.479674796747968 17.98780487804878,17.378048780487806 17.98780487804878,17.327235772357724 18.038617886178862,17.276422764227643 18.038617886178862,17.276422764227643 18.038617886178862,17.276422764227643 17.98780487804878,17.276422764227643 17.98780487804878,17.327235772357724 17.98780487804878,17.479674796747968 18.038617886178862,17.682926829268293" fill="none" stroke="black" stroke-width="0.6"></polyline><polyline points="18.038617886178862,17.682926829268293 18.038617886178862,17.98780487804878 18.089430894308943,18.39430894308943 18.140243902439025,18.851626016260163 18.140243902439025,19.461382113821138 18.140243902439025,20.071138211382113 18.191056910569106,20.630081300813007 18.191056910569106,21.1890243902439 18.191056910569106,21.697154471544714 18.191056910569106,22.052845528455283 18.191056910569106,22.35772357723577 18.191056910569106,22.662601626016258 18.191056910569106,22.865853658536587 18.191056910569106,23.06910569105691 18.191056910569106,23.272357723577237 18.241869918699187,23.3739837398374 18.241869918699187,23.475609756097562 18.241869918699187,23.475609756097562 18.241869918699187,23.475609756097562 18.241869918699187,23.475609756097562 18.241869918699187,23.475609756097562 18.241869918699187,23.42479674796748" fill="none" stroke="black" stroke-width="0.6"></polyline><polyline points="26.676829268292682,19.61382113821138 26.676829268292682,19.61382113821138 26.6260162601626,19.5630081300813 26.57520325203252,19.51219512195122 26.57520325203252,19.461382113821138 26.57520325203252,19.410569105691057 26.57520325203252,19.308943089430894 26.727642276422763,19.15650406504065 26.98170731707317,18.851626016260163 27.235772357723576,18.495934959349594 27.591463414634145,18.089430894308943 27.896341463414632,17.632113821138212 28.20121951219512,17.225609756097562 28.455284552845526,16.869918699186993 28.65853658536585,16.565040650406505 28.760162601626014,16.463414634146343 28.810975609756095,16.36178861788618 28.861788617886177,16.36178861788618 28.861788617886177,16.36178861788618 28.861788617886177,16.463414634146343 28.912601626016258,16.615853658536587 28.96341463414634,16.920731707317074 28.96341463414634,17.276422764227643 28.96341463414634,17.733739837398375 28.96341463414634,18.140243902439025 28.96341463414634,18.597560975609756 28.912601626016258,19.10569105691057 28.861788617886177,19.61382113821138 28.810975609756095,20.071138211382113 28.760162601626014,20.528455284552845 28.709349593495933,20.884146341463413 28.65853658536585,21.239837398373982 28.60772357723577,21.54471544715447 28.60772357723577,21.798780487804876 28.55691056910569,22.0020325203252 28.506097560975608,22.205284552845526 28.506097560975608,22.30691056910569 28.455284552845526,22.40853658536585 28.404471544715445,22.40853658536585 28.404471544715445,22.459349593495933 28.353658536585364,22.459349593495933" fill="none" stroke="black" stroke-width="0.6"></polyline><polyline points="26.321138211382113,22.865853658536587 26.321138211382113,22.865853658536587 26.270325203252032,22.865853658536587 26.270325203252032,22.865853658536587 26.270325203252032,22.815040650406505 26.270325203252032,22.815040650406505 26.270325203252032,22.764227642276424 26.422764227642276,22.71341463414634 26.676829268292682,22.662601626016258 26.98170731707317,22.560975609756095 27.38821138211382,22.510162601626014 27.79471544715447,22.40853658536585 28.302845528455283,22.256097560975608 28.760162601626014,22.154471544715445 29.217479674796746,22.052845528455283 29.6239837398374,21.95121951219512 29.928861788617887,21.849593495934958 30.284552845528456,21.747967479674795 30.538617886178862,21.697154471544714 30.79268292682927,21.646341463414632 30.995934959349594,21.59552845528455 31.148373983739837,21.54471544715447 31.25,21.54471544715447 31.351626016260163,21.54471544715447 31.402439024390244,21.54471544715447 31.453252032520325,21.54471544715447 31.453252032520325,21.54471544715447 31.453252032520325,21.59552845528455 31.453252032520325,21.59552845528455 31.453252032520325,21.59552845528455 31.453252032520325,21.646341463414632 31.453252032520325,21.697154471544714 31.453252032520325,21.747967479674795" fill="none" stroke="black" stroke-width="0.6"></polyline><polyline points="41.71747967479675,16.76829268292683 41.71747967479675,16.666666666666668 41.71747967479675,16.565040650406505 41.666666666666664,16.463414634146343 41.5650406504065,16.3109756097561 41.41260162601626,16.15853658536585 41.260162601626014,16.006097560975608 41.00609756097561,15.904471544715447 40.65040650406504,15.752032520325203 40.29471544715447,15.701219512195122 39.88821138211382,15.701219512195122 39.48170731707317,15.701219512195122 39.1260162601626,15.802845528455284 38.87195121951219,15.955284552845528 38.61788617886179,16.209349593495933 38.41463414634146,16.463414634146343 38.262195121951216,16.76829268292683 38.16056910569105,17.073170731707318 38.16056910569105,17.327235772357724 38.16056910569105,17.53048780487805 38.21138211382114,17.733739837398375 38.36382113821138,17.835365853658537 38.516260162601625,17.835365853658537 38.668699186991866,17.88617886178862 38.82113821138211,17.88617886178862 39.02439024390244,17.835365853658537 39.176829268292686,17.682926829268293 39.329268292682926,17.58130081300813 39.48170731707317,17.428861788617887 39.63414634146341,17.225609756097562 39.735772357723576,17.073170731707318 39.83739837398374,16.869918699186993 39.88821138211382,16.666666666666668 39.9390243902439,16.514227642276424 39.9390243902439,16.36178861788618 39.989837398373986,16.3109756097561 39.989837398373986,16.3109756097561 40.040650406504064,16.36178861788618 40.142276422764226,16.565040650406505 40.24390243902439,16.869918699186993 40.34552845528455,17.225609756097562 40.447154471544714,17.682926829268293 40.548780487804876,18.140243902439025 40.59959349593496,18.648373983739837 40.65040650406504,19.20731707317073 40.701219512195124,19.664634146341463 40.701219512195124,20.071138211382113 40.701219512195124,20.477642276422763 40.701219512195124,20.833333333333332 40.701219512195124,21.1890243902439 40.701219512195124,21.54471544715447" fill="none" stroke="black" stroke-width="0.6"></polyline><polyline points="40.701219512195124,21.54471544715447 40.701219512195124,21.798780487804876 40.701219512195124,22.052845528455283 40.701219512195124,22.205284552845526 40.7520325203252,22.35772357723577 40.7520325203252,22.459349593495933 40.7520325203252,22.510162601626014 40.802845528455286,22.510162601626014 40.802845528455286,22.510162601626014 40.802845528455286,22.510162601626014 40.853658536585364,22.459349593495933 40.95528455284553,22.30691056910569" fill="none" stroke="black" stroke-width="0.6"></polyline><polyline points="49.84756097560975,16.006097560975608 49.796747967479675,15.955284552845528 49.64430894308943,15.802845528455284 49.542682926829265,15.752032520325203 49.49186991869919,15.701219512195122 49.49186991869919,15.701219512195122 49.4410569105691,15.701219512195122 49.4410569105691,15.701219512195122 49.4410569105691,15.752032520325203 49.4410569105691,15.853658536585366 49.4410569105691,16.006097560975608 49.4410569105691,16.260162601626014 49.390243902439025,16.565040650406505 49.390243902439025,16.920731707317074 49.390243902439025,17.225609756097562 49.390243902439025,17.58130081300813 49.390243902439025,17.88617886178862 49.390243902439025,18.191056910569106 49.390243902439025,18.445121951219512 49.4410569105691,18.597560975609756 49.542682926829265,18.75 49.64430894308943,18.851626016260163 49.796747967479675,18.902439024390244 49.949186991869915,18.902439024390244 50.203252032520325,18.902439024390244 50.45731707317073,18.80081300813008 50.71138211382114,18.648373983739837 51.016260162601625,18.39430894308943 51.27032520325203,18.140243902439025 51.37195121951219,18.038617886178862" fill="none" stroke="black" stroke-width="0.6"></polyline><polyline points="51.77845528455284,16.05691056910569 51.77845528455284,16.05691056910569 51.77845528455284,16.05691056910569 51.72764227642276,16.05691056910569 51.72764227642276,16.05691056910569 51.67682926829268,16.10772357723577 51.67682926829268,16.3109756097561 51.67682926829268,16.76829268292683 51.67682926829268,17.378048780487806 51.67682926829268,18.089430894308943 51.6260162601626,18.902439024390244 51.575203252032516,19.5630081300813 51.52439024390244,20.121951219512194 51.52439024390244,20.630081300813007 51.47357723577235,21.036585365853657 51.47357723577235,21.443089430894307 51.47357723577235,21.849593495934958 51.52439024390244,22.154471544715445 51.52439024390244,22.40853658536585 51.575203252032516,22.560975609756095 51.6260162601626,22.662601626016258 51.67682926829268,22.71341463414634 51.72764227642276,22.71341463414634" fill="none" stroke="black" stroke-width="0.6"></polyline><polyline points="61.6869918699187,17.022357723577237 61.73780487804878,17.022357723577237 61.73780487804878,16.920731707317074 61.73780487804878,16.869918699186993 61.78861788617886,16.81910569105691 61.78861788617886,16.71747967479675 61.78861788617886,16.666666666666668 61.73780487804878,16.514227642276424 61.636178861788615,16.41260162601626 61.43292682926829,16.3109756097561 61.17886178861789,16.209349593495933 60.823170731707314,16.10772357723577 60.46747967479675,16.05691056910569 60.0609756097561,16.006097560975608 59.65447154471545,16.05691056910569 59.34959349593496,16.209349593495933 59.04471544715447,16.41260162601626 58.790650406504064,16.71747967479675 58.63821138211382,17.022357723577237 58.536585365853654,17.378048780487806 58.536585365853654,17.682926829268293 58.536585365853654,17.9369918699187 58.63821138211382,18.140243902439025 58.739837398373986,18.29268292682927 58.94308943089431,18.39430894308943 59.146341463414636,18.445121951219512 59.40040650406504,18.445121951219512 59.70528455284553,18.39430894308943 59.959349593495936,18.29268292682927 60.264227642276424,18.140243902439025 60.56910569105691,17.9369918699187 60.8739837398374,17.682926829268293 61.17886178861789,17.428861788617887 61.38211382113821,17.1239837398374 61.58536585365854,16.81910569105691 61.73780487804878,16.615853658536587 61.78861788617886,16.514227642276424 61.83943089430894,16.463414634146343 61.83943089430894,16.514227642276424 61.83943089430894,16.71747967479675 61.890243902439025,16.971544715447155 61.890243902439025,17.378048780487806 61.890243902439025,17.88617886178862 61.890243902439025,18.39430894308943 61.890243902439025,19.004065040650406 61.890243902439025,19.664634146341463 61.890243902439025,20.223577235772357 61.83943089430894,20.78252032520325 61.83943089430894,21.341463414634145 61.78861788617886,21.747967479674795 61.78861788617886,22.103658536585364" fill="none" stroke="black" stroke-width="0.6"></polyline><polyline points="61.78861788617886,22.103658536585364 61.78861788617886,22.40853658536585 61.78861788617886,22.560975609756095 61.78861788617886,22.764227642276424 61.83943089430894,22.916666666666668 61.83943089430894,22.96747967479675 61.890243902439025,23.01829268292683 61.890243902439025,23.01829268292683 61.890243902439025,23.01829268292683 61.9410569105691,22.96747967479675 61.9410569105691,22.916666666666668" fill="none" stroke="black" stroke-width="0.6"></polyline><polyline points="71.34146341463415,16.81910569105691 71.29065040650406,16.81910569105691 71.29065040650406,16.76829268292683 71.23983739837398,16.71747967479675 71.23983739837398,16.666666666666668 71.23983739837398,16.666666666666668 71.23983739837398,16.666666666666668 71.1890243902439,16.666666666666668 71.1890243902439,16.869918699186993 71.13821138211382,17.073170731707318 71.08739837398373,17.378048780487806 71.08739837398373,17.632113821138212 71.03658536585365,17.88617886178862 71.03658536585365,18.140243902439025 71.03658536585365,18.34349593495935 71.03658536585365,18.495934959349594 71.13821138211382,18.69918699186992 71.23983739837398,18.80081300813008 71.34146341463415,18.851626016260163 71.49390243902438,18.902439024390244 71.69715447154472,18.902439024390244 71.90040650406505,18.902439024390244 72.15447154471545,18.80081300813008 72.35772357723577,18.69918699186992 72.61178861788618,18.546747967479675 72.91666666666667,18.39430894308943 73.17073170731707,18.241869918699187 73.42479674796748,18.089430894308943 73.67886178861788,17.9369918699187 73.8821138211382,17.784552845528456" fill="none" stroke="black" stroke-width="0.6"></polyline><polyline points="73.9329268292683,16.869918699186993 73.9329268292683,16.869918699186993 73.8821138211382,16.869918699186993 73.8821138211382,16.920731707317074 73.8821138211382,16.971544715447155 73.83130081300813,17.1239837398374 73.78048780487805,17.378048780487806 73.78048780487805,17.784552845528456 73.67886178861788,18.29268292682927 73.67886178861788,18.902439024390244 73.6280487804878,19.51219512195122 73.57723577235772,20.121951219512194 73.57723577235772,20.579268292682926 73.57723577235772,20.934959349593495 73.52642276422765,21.341463414634145 73.52642276422765,21.646341463414632 73.52642276422765,21.90040650406504 73.52642276422765,22.103658536585364 73.52642276422765,22.256097560975608 73.52642276422765,22.35772357723577 73.52642276422765,22.40853658536585 73.52642276422765,22.40853658536585 73.52642276422765,22.40853658536585 73.52642276422765,22.30691056910569" fill="none" stroke="black" stroke-width="0.6"></polyline><polyline points="82.97764227642276,17.327235772357724 82.97764227642276,17.327235772357724 82.97764227642276,17.327235772357724 82.97764227642276,17.327235772357724 82.97764227642276,17.327235772357724 82.97764227642276,17.276422764227643 82.97764227642276,17.276422764227643 82.97764227642276,17.276422764227643 82.97764227642276,17.225609756097562 82.92682926829268,17.225609756097562 82.92682926829268,17.17479674796748 82.92682926829268,17.1239837398374 82.8760162601626,17.022357723577237 82.77439024390243,16.869918699186993 82.6219512195122,16.71747967479675 82.41869918699187,16.565040650406505 82.11382113821138,16.463414634146343 81.7581300813008,16.41260162601626 81.40243902439025,16.41260162601626 81.04674796747967,16.565040650406505 80.6910569105691,16.81910569105691 80.48780487804878,17.073170731707318 80.28455284552845,17.327235772357724 80.1829268292683,17.632113821138212 80.1321138211382,17.835365853658537 80.1321138211382,18.089430894308943 80.23373983739837,18.241869918699187 80.38617886178862,18.39430894308943 80.53861788617886,18.495934959349594 80.74186991869918,18.495934959349594 80.9959349593496,18.495934959349594 81.25,18.495934959349594 81.5040650406504,18.39430894308943 81.7581300813008,18.241869918699187 82.01219512195122,18.089430894308943 82.21544715447155,17.9369918699187 82.3170731707317,17.733739837398375 82.41869918699187,17.53048780487805 82.52032520325203,17.378048780487806 82.52032520325203,17.225609756097562 82.52032520325203,17.1239837398374 82.52032520325203,17.073170731707318 82.52032520325203,17.073170731707318 82.52032520325203,17.073170731707318 82.46951219512195,17.1239837398374 82.46951219512195,17.327235772357724 82.41869918699187,17.58130081300813 82.41869918699187,17.88617886178862 82.41869918699187,18.29268292682927 82.36788617886178,18.75 82.3170731707317,19.258130081300813" fill="none" stroke="black" stroke-width="0.6"></polyline><polyline points="82.3170731707317,19.258130081300813 82.26626016260163,19.817073170731707 82.26626016260163,20.274390243902438 82.21544715447155,20.73170731707317 82.16463414634146,21.08739837398374 82.11382113821138,21.392276422764226 82.11382113821138,21.646341463414632 82.11382113821138,21.798780487804876 82.11382113821138,21.95121951219512 82.11382113821138,22.052845528455283 82.11382113821138,22.103658536585364 82.11382113821138,22.103658536585364 82.11382113821138,22.103658536585364 82.11382113821138,22.103658536585364" fill="none" stroke="black" stroke-width="0.6"></polyline><polyline points="91.5650406504065,17.53048780487805 91.5650406504065,17.53048780487805 91.5650406504065,17.53048780487805 91.5650406504065,17.479674796747968 91.5650406504065,17.479674796747968 91.5650406504065,17.428861788617887 91.5650406504065,17.428861788617887 91.5650406504065,17.428861788617887 91.5650406504065,17.428861788617887 91.5650406504065,17.428861788617887 91.5650406504065,17.428861788617887 91.5650406504065,17.428861788617887 91.5650406504065,17.428861788617887 91.5650406504065,17.428861788617887 91.5650406504065,17.428861788617887 91.61585365853658,17.428861788617887 91.61585365853658,17.428861788617887 91.66666666666667,17.428861788617887 91.71747967479675,17.378048780487806 91.8191056910569,17.327235772357724 91.97154471544715,17.276422764227643 92.22560975609755,17.1239837398374 92.47967479674797,16.971544715447155 92.78455284552845,16.81910569105691 93.08943089430895,16.615853658536587 93.34349593495935,16.463414634146343 93.54674796747967,16.36178861788618 93.64837398373983,16.260162601626014 93.69918699186992,16.260162601626014 93.69918699186992,16.260162601626014 93.69918699186992,16.260162601626014 93.69918699186992,16.3109756097561 93.64837398373983,16.463414634146343 93.59756097560975,16.76829268292683 93.4959349593496,17.073170731707318 93.39430894308943,17.479674796747968 93.24186991869918,18.038617886178862 93.14024390243902,18.648373983739837 92.9369918699187,19.308943089430894 92.78455284552845,19.91869918699187 92.6321138211382,20.426829268292682 92.53048780487805,20.833333333333332 92.47967479674797,21.1890243902439 92.42886178861788,21.443089430894307 92.3780487804878,21.697154471544714 92.3780487804878,21.90040650406504 92.3780487804878,22.052845528455283 92.32723577235772,22.205284552845526 92.32723577235772,22.30691056910569 92.32723577235772,22.35772357723577 92.27642276422765,22.35772357723577" fill="none" stroke="black" stroke-width="0.6"></polyline><polyline points="92.27642276422765,22.35772357723577 92.22560975609755,22.35772357723577 92.22560975609755,22.35772357723577" fill="none" stroke="black" stroke-width="0.6"></polyline><polyline points="90.04065040650406,22.30691056910569 89.98983739837398,22.30691056910569 89.98983739837398,22.30691056910569 89.9390243902439,22.30691056910569 89.88821138211382,22.256097560975608 89.88821138211382,22.256097560975608 89.88821138211382,22.256097560975608 89.98983739837398,22.256097560975608 90.24390243902438,22.256097560975608 90.59959349593495,22.205284552845526 91.0569105691057,22.154471544715445 91.51422764227642,22.052845528455283 92.02235772357723,22.0020325203252 92.47967479674797,21.95121951219512 92.88617886178862,21.90040650406504 93.24186991869918,21.849593495934958 93.4959349593496,21.798780487804876 93.69918699186992,21.798780487804876 93.85162601626016,21.798780487804876 93.95325203252033,21.798780487804876 94.05487804878048,21.798780487804876 94.10569105691057,21.798780487804876 94.15650406504065,21.798780487804876" fill="none" stroke="black" stroke-width="0.6"></polyline><polyline points="9.40040650406504,43.85162601626016 9.40040650406504,43.80081300813008 9.34959349593496,43.75 9.298780487804878,43.64837398373984 9.247967479674797,43.59756097560975 9.197154471544716,43.546747967479675 9.197154471544716,43.49593495934959 9.146341463414634,43.39430894308943 9.095528455284553,43.34349593495935 8.99390243902439,43.292682926829265 8.94308943089431,43.1910569105691 8.841463414634147,43.140243902439025 8.638211382113822,43.03861788617886 8.434959349593496,42.98780487804878 8.18089430894309,42.98780487804878 7.876016260162602,42.98780487804878 7.571138211382114,43.03861788617886 7.215447154471544,43.140243902439025 6.961382113821138,43.292682926829265 6.758130081300813,43.44512195121951 6.605691056910569,43.59756097560975 6.504065040650406,43.699186991869915 6.453252032520325,43.80081300813008 6.453252032520325,43.953252032520325 6.554878048780488,44.105691056910565 6.758130081300813,44.20731707317073 7.113821138211382,44.41056910569105 7.469512195121951,44.61382113821138 7.876016260162602,44.8170731707317 8.333333333333334,45.12195121951219 8.739837398373984,45.3760162601626 9.095528455284553,45.68089430894309 9.40040650406504,45.9349593495935 9.603658536585366,46.1890243902439 9.654471544715447,46.392276422764226 9.654471544715447,46.646341463414636 9.654471544715447,46.798780487804876 9.502032520325203,47.0020325203252 9.34959349593496,47.15447154471545 9.095528455284553,47.25609756097561 8.892276422764228,47.357723577235774 8.58739837398374,47.357723577235774 8.384146341463415,47.357723577235774 8.130081300813007,47.30691056910569 7.926829268292683,47.15447154471545 7.82520325203252,47.0020325203252 7.774390243902439,46.798780487804876 7.774390243902439,46.49390243902439 7.82520325203252,46.13821138211382 8.028455284552845,45.73170731707317 8.333333333333334,45.27439024390244" fill="none" stroke="black" stroke-width="0.6"></polyline><polyline points="8.333333333333334,45.27439024390244 8.689024390243903,44.766260162601625 9.044715447154472,44.30894308943089 9.502032520325203,43.90243902439024 9.908536585365853,43.546747967479675" fill="none" stroke="black" stroke-width="0.6"></polyline><polyline points="19.91869918699187,42.073170731707314 19.867886178861788,42.02235772357724 19.817073170731707,41.920731707317074 19.715447154471544,41.86991869918699 19.61382113821138,41.76829268292683 19.51219512195122,41.666666666666664 19.359756097560975,41.5650406504065 19.10569105691057,41.514227642276424 18.80081300813008,41.41260162601626 18.34349593495935,41.3109756097561 17.88617886178862,41.3109756097561 17.327235772357724,41.3109756097561 16.81910569105691,41.46341463414634 16.3109756097561,41.76829268292683 15.904471544715447,42.1239837398374 15.59959349593496,42.53048780487805 15.447154471544716,42.98780487804878 15.396341463414634,43.44512195121951 15.396341463414634,43.80081300813008 15.497967479674797,44.05487804878049 15.65040650406504,44.25813008130081 15.853658536585366,44.359756097560975 16.05691056910569,44.41056910569105 16.3109756097561,44.41056910569105 16.615853658536587,44.359756097560975 16.920731707317074,44.15650406504065 17.225609756097562,43.90243902439024 17.53048780487805,43.64837398373984 17.835365853658537,43.292682926829265 18.089430894308943,42.9369918699187 18.29268292682927,42.63211382113821 18.495934959349594,42.42886178861789 18.648373983739837,42.22560975609756 18.69918699186992,42.22560975609756 18.75,42.22560975609756 18.80081300813008,42.327235772357724 18.80081300813008,42.58130081300813 18.80081300813008,42.9369918699187 18.80081300813008,43.34349593495935 18.80081300813008,43.75 18.75,44.25813008130081 18.69918699186992,44.8170731707317 18.597560975609756,45.42682926829268 18.546747967479675,45.9349593495935 18.546747967479675,46.44308943089431 18.495934959349594,46.84959349593496 18.495934959349594,47.15447154471545 18.495934959349594,47.459349593495936 18.495934959349594,47.66260162601626 18.445121951219512,47.8150406504065 18.445121951219512,47.916666666666664" fill="none" stroke="black" stroke-width="0.6"></polyline><polyline points="18.445121951219512,47.916666666666664 18.445121951219512,47.916666666666664 18.445121951219512,47.916666666666664 18.445121951219512,47.8150406504065 18.445121951219512,47.71341463414634" fill="none" stroke="black" stroke-width="0.6"></polyline><polyline points="26.371951219512194,41.61585365853659 26.371951219512194,41.61585365853659 26.371951219512194,41.61585365853659 26.371951219512194,41.5650406504065 26.371951219512194,41.514227642276424 26.371951219512194,41.41260162601626 26.422764227642276,41.36178861788618 26.524390243902438,41.260162601626014 26.676829268292682,41.209349593495936 26.98170731707317,41.15853658536585 27.33739837398374,41.05691056910569 27.693089430894307,41.05691056910569 28.048780487804876,41.05691056910569 28.455284552845526,41.05691056910569 28.760162601626014,41.107723577235774 29.01422764227642,41.15853658536585 29.217479674796746,41.209349593495936 29.369918699186993,41.260162601626014 29.522357723577237,41.36178861788618 29.573170731707318,41.46341463414634 29.6239837398374,41.61585365853659 29.6239837398374,41.76829268292683 29.573170731707318,41.97154471544715 29.420731707317074,42.27642276422764 29.166666666666664,42.58130081300813 28.912601626016258,42.886178861788615 28.60772357723577,43.140243902439025 28.302845528455283,43.39430894308943 28.048780487804876,43.59756097560975 27.79471544715447,43.699186991869915 27.642276422764226,43.80081300813008 27.540650406504064,43.85162601626016 27.540650406504064,43.85162601626016 27.540650406504064,43.85162601626016 27.642276422764226,43.85162601626016 27.84552845528455,43.90243902439024 28.099593495934958,44.0040650406504 28.404471544715445,44.05487804878049 28.760162601626014,44.20731707317073 29.0650406504065,44.359756097560975 29.420731707317074,44.5630081300813 29.67479674796748,44.86788617886179 29.878048780487806,45.12195121951219 30.03048780487805,45.3760162601626 30.08130081300813,45.52845528455285 30.08130081300813,45.63008130081301 30.08130081300813,45.78252032520325 29.979674796747968,45.88414634146341 29.827235772357724,46.03658536585366 29.6239837398374,46.1890243902439 29.369918699186993,46.34146341463415" fill="none" stroke="black" stroke-width="0.6"></polyline><polyline points="29.369918699186993,46.34146341463415 29.01422764227642,46.44308943089431 28.65853658536585,46.49390243902439 28.302845528455283,46.54471544715447 27.896341463414632,46.59552845528455 27.591463414634145,46.646341463414636 27.33739837398374,46.646341463414636 27.134146341463413,46.646341463414636 27.03252032520325,46.646341463414636 26.98170731707317,46.646341463414636 26.93089430894309,46.646341463414636 26.93089430894309,46.646341463414636 26.93089430894309,46.646341463414636 26.93089430894309,46.646341463414636 27.03252032520325,46.59552845528455 27.184959349593495,46.54471544715447" fill="none" stroke="black" stroke-width="0.6"></polyline><polyline points="39.989837398373986,41.97154471544715 39.989837398373986,41.920731707317074 39.9390243902439,41.86991869918699 39.9390243902439,41.81910569105691 39.88821138211382,41.81910569105691 39.88821138211382,41.76829268292683 39.88821138211382,41.76829268292683 39.88821138211382,41.76829268292683 39.88821138211382,41.76829268292683 39.88821138211382,41.81910569105691 39.9390243902439,42.02235772357724 39.9390243902439,42.27642276422764 39.989837398373986,42.733739837398375 40.040650406504064,43.24186991869919 40.040650406504064,43.85162601626016 40.040650406504064,44.61382113821138 40.040650406504064,45.3760162601626 39.989837398373986,46.08739837398374 39.9390243902439,46.646341463414636 39.88821138211382,47.15447154471545 39.88821138211382,47.459349593495936 39.88821138211382,47.71341463414634 39.88821138211382,47.8150406504065 39.88821138211382,47.86585365853659 39.88821138211382,47.86585365853659 39.9390243902439,47.86585365853659 40.09146341463415,47.8150406504065 40.142276422764226,47.71341463414634" fill="none" stroke="black" stroke-width="0.6"></polyline><polyline points="48.3739837398374,43.49593495934959 48.3739837398374,43.44512195121951 48.323170731707314,43.39430894308943 48.323170731707314,43.34349593495935 48.27235772357724,43.292682926829265 48.27235772357724,43.292682926829265 48.323170731707314,43.24186991869919 48.47560975609756,43.1910569105691 48.729674796747965,43.1910569105691 49.03455284552845,43.08943089430894 49.33943089430894,43.03861788617886 49.69512195121951,42.98780487804878 50.10162601626016,42.9369918699187 50.45731707317073,42.886178861788615 50.762195121951216,42.83536585365854 51.11788617886179,42.83536585365854 51.37195121951219,42.83536585365854 51.6260162601626,42.83536585365854 51.77845528455284,42.886178861788615 51.93089430894309,42.98780487804878 52.03252032520325,43.140243902439025 52.13414634146341,43.39430894308943 52.13414634146341,43.64837398373984 52.1849593495935,44.05487804878049 52.13414634146341,44.512195121951216 52.03252032520325,45.02032520325203 51.880081300813,45.579268292682926 51.72764227642276,46.08739837398374 51.6260162601626,46.49390243902439 51.47357723577235,46.90040650406504 51.37195121951219,47.25609756097561 51.32113821138211,47.5609756097561 51.27032520325203,47.8150406504065 51.27032520325203,48.01829268292683 51.27032520325203,48.11991869918699 51.27032520325203,48.170731707317074 51.27032520325203,48.170731707317074 51.37195121951219,48.170731707317074 51.47357723577235,48.170731707317074 51.6260162601626,48.06910569105691 51.72764227642276,48.01829268292683" fill="none" stroke="black" stroke-width="0.6"></polyline><polyline points="59.65447154471545,42.073170731707314 59.65447154471545,42.073170731707314 59.65447154471545,42.073170731707314 59.603658536585364,42.02235772357724 59.603658536585364,41.97154471544715 59.603658536585364,41.920731707317074 59.552845528455286,41.86991869918699 59.603658536585364,41.81910569105691 59.70528455284553,41.71747967479675 59.857723577235774,41.61585365853659 60.11178861788618,41.5650406504065 60.416666666666664,41.5650406504065 60.77235772357724,41.5650406504065 61.1280487804878,41.76829268292683 61.53455284552845,42.02235772357724 61.83943089430894,42.327235772357724 62.042682926829265,42.733739837398375 62.19512195121951,43.292682926829265 62.19512195121951,43.80081300813008 62.09349593495935,44.30894308943089 61.9410569105691,44.8170731707317 61.73780487804878,45.172764227642276 61.483739837398375,45.52845528455285 61.17886178861789,45.9349593495935 60.92479674796748,46.1890243902439 60.61991869918699,46.392276422764226 60.264227642276424,46.54471544715447 60.010162601626014,46.59552845528455 59.75609756097561,46.59552845528455 59.5020325203252,46.44308943089431 59.34959349593496,46.290650406504064 59.298780487804876,46.08739837398374 59.2479674796748,45.9349593495935 59.2479674796748,45.78252032520325 59.40040650406504,45.68089430894309 59.603658536585364,45.63008130081301 59.857723577235774,45.579268292682926 60.16260162601626,45.579268292682926 60.46747967479675,45.68089430894309 60.77235772357724,45.78252032520325 61.02642276422764,45.9349593495935 61.28048780487805,46.13821138211382 61.483739837398375,46.290650406504064 61.636178861788615,46.44308943089431 61.78861788617886,46.59552845528455 61.890243902439025,46.697154471544714 61.890243902439025,46.697154471544714" fill="none" stroke="black" stroke-width="0.6"></polyline><polyline points="69.2581300813008,42.327235772357724 69.2581300813008,42.327235772357724 69.2581300813008,42.327235772357724 69.20731707317073,42.327235772357724 69.20731707317073,42.27642276422764 69.20731707317073,42.27642276422764 69.20731707317073,42.27642276422764 69.2581300813008,42.22560975609756 69.35975609756098,42.1239837398374 69.5630081300813,42.073170731707314 69.8170731707317,41.97154471544715 70.1219512195122,41.920731707317074 70.42682926829268,41.920731707317074 70.73170731707317,41.920731707317074 71.03658536585365,41.920731707317074 71.23983739837398,42.02235772357724 71.4430894308943,42.1239837398374 71.54471544715447,42.27642276422764 71.64634146341463,42.42886178861789 71.69715447154472,42.58130081300813 71.69715447154472,42.78455284552845 71.69715447154472,42.98780487804878 71.54471544715447,43.1910569105691 71.39227642276423,43.44512195121951 71.23983739837398,43.64837398373984 71.03658536585365,43.80081300813008 70.78252032520325,43.953252032520325 70.57926829268293,44.105691056910565 70.32520325203252,44.20731707317073 70.1219512195122,44.30894308943089 70.02032520325203,44.30894308943089 69.96951219512195,44.359756097560975 69.91869918699187,44.359756097560975 69.91869918699187,44.359756097560975 70.02032520325203,44.41056910569105 70.27439024390243,44.41056910569105 70.52845528455285,44.46138211382114 70.9349593495935,44.5630081300813 71.29065040650406,44.61382113821138 71.64634146341463,44.766260162601625 72.05284552845528,44.96951219512195 72.35772357723577,45.172764227642276 72.66260162601625,45.42682926829268 72.86585365853658,45.73170731707317 72.96747967479675,46.03658536585366 72.96747967479675,46.34146341463415 72.96747967479675,46.59552845528455 72.86585365853658,46.798780487804876 72.66260162601625,47.052845528455286 72.40853658536585,47.25609756097561 72.15447154471545,47.459349593495936" fill="none" stroke="black" stroke-width="0.6"></polyline><polyline points="72.15447154471545,47.459349593495936 71.84959349593495,47.61178861788618 71.49390243902438,47.764227642276424 71.13821138211382,47.8150406504065 70.78252032520325,47.8150406504065 70.42682926829268,47.8150406504065 70.1219512195122,47.8150406504065 69.91869918699187,47.71341463414634 69.71544715447155,47.61178861788618 69.61382113821138,47.510162601626014 69.61382113821138,47.40853658536585 69.61382113821138,47.30691056910569 69.71544715447155,47.15447154471545 69.8170731707317,47.103658536585364" fill="none" stroke="black" stroke-width="0.6"></polyline><polyline points="78.96341463414635,42.3780487804878 78.96341463414635,42.3780487804878 78.96341463414635,42.3780487804878 78.91260162601625,42.3780487804878 78.91260162601625,42.3780487804878 78.91260162601625,42.3780487804878 78.86178861788618,42.3780487804878 78.86178861788618,42.3780487804878 78.86178861788618,42.3780487804878 78.86178861788618,42.3780487804878 78.91260162601625,42.3780487804878 79.01422764227642,42.3780487804878 79.21747967479675,42.327235772357724 79.42073170731707,42.327235772357724 79.67479674796748,42.27642276422764 79.97967479674797,42.22560975609756 80.28455284552845,42.1239837398374 80.64024390243902,42.073170731707314 80.9451219512195,42.02235772357724 81.25,41.97154471544715 81.5040650406504,41.97154471544715 81.70731707317073,41.97154471544715 81.85975609756098,41.920731707317074 81.96138211382113,41.920731707317074 82.0630081300813,41.920731707317074 82.11382113821138,41.920731707317074 82.11382113821138,41.920731707317074 82.11382113821138,41.920731707317074 82.11382113821138,41.920731707317074 82.11382113821138,41.920731707317074 82.11382113821138,41.920731707317074 82.11382113821138,41.920731707317074 82.11382113821138,41.920731707317074 82.11382113821138,41.920731707317074 82.11382113821138,41.920731707317074 82.0630081300813,41.920731707317074 82.0630081300813,41.920731707317074 82.0630081300813,41.97154471544715 82.0630081300813,42.02235772357724 82.0630081300813,42.1239837398374 82.0630081300813,42.327235772357724 82.01219512195122,42.68292682926829 81.96138211382113,43.140243902439025 81.85975609756098,43.699186991869915 81.7581300813008,44.25813008130081 81.65650406504065,44.86788617886179 81.55487804878048,45.3760162601626 81.45325203252033,45.833333333333336 81.30081300813008,46.1890243902439 81.25,46.49390243902439 81.14837398373983,46.697154471544714" fill="none" stroke="black" stroke-width="0.6"></polyline><polyline points="81.14837398373983,46.697154471544714 81.09756097560975,46.90040650406504 81.09756097560975,47.052845528455286 81.04674796747967,47.15447154471545 81.04674796747967,47.25609756097561 81.04674796747967,47.30691056910569 81.04674796747967,47.30691056910569 81.04674796747967,47.30691056910569 81.04674796747967,47.30691056910569 81.09756097560975,47.30691056910569 81.09756097560975,47.30691056910569" fill="none" stroke="black" stroke-width="0.6"></polyline><polyline points="91.3109756097561,41.41260162601626 91.3109756097561,41.36178861788618 91.3109756097561,41.36178861788618 91.3109756097561,41.3109756097561 91.3109756097561,41.260162601626014 91.3109756097561,41.260162601626014 91.26016260162602,41.209349593495936 91.26016260162602,41.209349593495936 91.26016260162602,41.260162601626014 91.20934959349593,41.46341463414634 91.15853658536585,41.71747967479675 91.15853658536585,42.02235772357724 91.15853658536585,42.327235772357724 91.10772357723577,42.63211382113821 91.10772357723577,42.9369918699187 91.15853658536585,43.140243902439025 91.20934959349593,43.39430894308943 91.26016260162602,43.49593495934959 91.36178861788618,43.59756097560975 91.51422764227642,43.699186991869915 91.66666666666667,43.75 91.869918699187,43.75 92.07317073170732,43.80081300813008 92.32723577235772,43.80081300813008 92.6321138211382,43.80081300813008 92.83536585365853,43.75 93.08943089430895,43.699186991869915 93.29268292682927,43.64837398373984 93.4959349593496,43.546747967479675 93.69918699186992,43.44512195121951 93.90243902439025,43.24186991869919 94.0040650406504,43.1910569105691" fill="none" stroke="black" stroke-width="0.6"></polyline><polyline points="94.20731707317073,41.81910569105691 94.20731707317073,41.81910569105691 94.20731707317073,41.76829268292683 94.20731707317073,41.71747967479675 94.20731707317073,41.71747967479675 94.20731707317073,41.71747967479675 94.20731707317073,41.71747967479675 94.20731707317073,41.71747967479675 94.20731707317073,41.920731707317074 94.15650406504065,42.3780487804878 94.05487804878048,42.98780487804878 94.0040650406504,43.699186991869915 93.90243902439025,44.512195121951216 93.90243902439025,45.22357723577235 93.85162601626016,45.88414634146341 93.85162601626016,46.49390243902439 93.80081300813008,46.90040650406504 93.80081300813008,47.30691056910569 93.80081300813008,47.66260162601626 93.80081300813008,47.916666666666664 93.80081300813008,48.170731707317074 93.80081300813008,48.323170731707314 93.80081300813008,48.42479674796748 93.80081300813008,48.47560975609756 93.80081300813008,48.47560975609756 93.80081300813008,48.47560975609756 93.80081300813008,48.47560975609756" fill="none" stroke="black" stroke-width="0.6"></polyline><polyline points="8.638211382113822,65.29471544715447 8.638211382113822,65.29471544715447 8.689024390243903,65.29471544715447 8.689024390243903,65.2439024390244 8.689024390243903,65.2439024390244 8.689024390243903,65.1930894308943 8.638211382113822,65.1930894308943 8.536585365853659,65.14227642276423 8.384146341463415,65.14227642276423 8.18089430894309,65.14227642276423 7.926829268292683,65.14227642276423 7.571138211382114,65.1930894308943 7.215447154471544,65.29471544715447 6.9105691056910565,65.44715447154472 6.605691056910569,65.59959349593495 6.402439024390244,65.7520325203252 6.3516260162601625,65.95528455284553 6.3516260162601625,66.20934959349593 6.402439024390244,66.51422764227642 6.605691056910569,66.869918699187 6.9105691056910565,67.22560975609755 7.317073170731707,67.58130081300813 7.723577235772358,67.88617886178862 8.130081300813007,68.1910569105691 8.536585365853659,68.4959349593496 8.841463414634147,68.80081300813008 9.095528455284553,69.10569105691057 9.298780487804878,69.46138211382113 9.34959349593496,69.8170731707317 9.34959349593496,70.17276422764228 9.34959349593496,70.42682926829268 9.34959349593496,70.630081300813 9.247967479674797,70.83333333333333 9.146341463414634,70.9349593495935 8.99390243902439,71.03658536585365 8.790650406504065,71.08739837398373 8.58739837398374,71.08739837398373 8.384146341463415,71.03658536585365 8.130081300813007,70.83333333333333 7.926829268292683,70.57926829268293 7.82520325203252,70.27439024390243 7.774390243902439,69.91869918699187 7.774390243902439,69.51219512195122 7.876016260162602,69.05487804878048 8.028455284552845,68.54674796747967 8.282520325203253,67.98780487804878 8.638211382113822,67.47967479674797 8.99390243902439,66.97154471544715 9.247967479674797,66.66666666666667 9.451219512195122,66.41260162601625 9.654471544715447,66.20934959349593" fill="none" stroke="black" stroke-width="0.6"></polyline><polyline points="9.654471544715447,66.20934959349593 9.80691056910569,66.10772357723577 9.908536585365853,66.0060975609756 9.959349593495935,65.95528455284553" fill="none" stroke="black" stroke-width="0.6"></polyline><polyline points="16.463414634146343,66.61585365853658 16.41260162601626,66.61585365853658 16.36178861788618,66.5650406504065 16.3109756097561,66.51422764227642 16.3109756097561,66.51422764227642 16.260162601626014,66.46341463414635 16.260162601626014,66.41260162601625 16.36178861788618,66.36178861788618 16.615853658536587,66.26016260162602 16.971544715447155,66.15853658536585 17.378048780487806,66.0060975609756 17.88617886178862,65.90447154471545 18.39430894308943,65.85365853658537 18.953252032520325,65.80284552845528 19.359756097560975,65.80284552845528 19.715447154471544,65.85365853658537 19.96951219512195,65.95528455284553 20.121951219512194,66.10772357723577 20.223577235772357,66.26016260162602 20.223577235772357,66.51422764227642 20.223577235772357,66.76829268292683 20.071138211382113,67.07317073170732 19.817073170731707,67.47967479674797 19.5630081300813,67.78455284552845 19.20731707317073,68.14024390243902 18.851626016260163,68.4451219512195 18.546747967479675,68.64837398373983 18.29268292682927,68.80081300813008 18.038617886178862,68.90243902439025 17.9369918699187,68.95325203252033 17.9369918699187,69.0040650406504 17.9369918699187,69.0040650406504 18.038617886178862,69.0040650406504 18.191056910569106,69.10569105691057 18.445121951219512,69.20731707317073 18.75,69.3089430894309 19.10569105691057,69.41056910569105 19.51219512195122,69.5630081300813 19.867886178861788,69.76626016260163 20.223577235772357,69.96951219512195 20.477642276422763,70.1219512195122 20.630081300813007,70.32520325203252 20.73170731707317,70.47764227642276 20.73170731707317,70.68089430894308 20.68089430894309,70.8841463414634 20.579268292682926,71.1890243902439 20.32520325203252,71.49390243902438 20.121951219512194,71.7479674796748 19.817073170731707,71.95121951219512 19.461382113821138,72.15447154471545 19.054878048780488,72.2560975609756" fill="none" stroke="black" stroke-width="0.6"></polyline><polyline points="19.054878048780488,72.2560975609756 18.648373983739837,72.3069105691057 18.241869918699187,72.3069105691057 17.9369918699187,72.3069105691057 17.682926829268293,72.3069105691057 17.479674796747968,72.2560975609756 17.378048780487806,72.15447154471545 17.327235772357724,72.05284552845528 17.327235772357724,71.90040650406505 17.327235772357724,71.84959349593495" fill="none" stroke="black" stroke-width="0.6"></polyline><polyline points="29.776422764227643,65.39634146341463 29.776422764227643,65.39634146341463 29.776422764227643,65.39634146341463 29.776422764227643,65.39634146341463 29.776422764227643,65.39634146341463 29.776422764227643,65.39634146341463 29.827235772357724,65.59959349593495 29.928861788617887,66.0569105691057 29.979674796747968,66.71747967479675 30.08130081300813,67.47967479674797 30.132113821138212,68.29268292682927 30.132113821138212,69.0040650406504 30.132113821138212,69.5630081300813 30.132113821138212,70.1219512195122 30.132113821138212,70.52845528455285 30.08130081300813,70.9349593495935 30.03048780487805,71.29065040650406 29.979674796747968,71.49390243902438 29.979674796747968,71.59552845528455 29.979674796747968,71.64634146341463 29.979674796747968,71.64634146341463 29.979674796747968,71.59552845528455 29.979674796747968,71.4430894308943 29.979674796747968,71.29065040650406 30.132113821138212,71.08739837398373 30.233739837398375,70.9349593495935" fill="none" stroke="black" stroke-width="0.6"></polyline><polyline points="36.99186991869919,65.85365853658537 36.99186991869919,65.90447154471545 36.99186991869919,65.90447154471545 36.99186991869919,65.90447154471545 36.99186991869919,65.90447154471545 36.99186991869919,65.90447154471545 36.99186991869919,65.90447154471545 36.99186991869919,65.90447154471545 36.99186991869919,65.90447154471545 36.99186991869919,65.90447154471545 36.99186991869919,65.90447154471545 37.042682926829265,65.90447154471545 37.14430894308943,65.85365853658537 37.296747967479675,65.85365853658537 37.55081300813008,65.80284552845528 37.90650406504065,65.80284552845528 38.3130081300813,65.7520325203252 38.71951219512195,65.7520325203252 39.07520325203252,65.70121951219512 39.38008130081301,65.70121951219512 39.6849593495935,65.70121951219512 39.83739837398374,65.70121951219512 39.989837398373986,65.70121951219512 40.142276422764226,65.70121951219512 40.142276422764226,65.70121951219512 40.19308943089431,65.70121951219512 40.19308943089431,65.70121951219512 40.19308943089431,65.70121951219512 40.19308943089431,65.7520325203252 40.19308943089431,65.80284552845528 40.19308943089431,65.90447154471545 40.19308943089431,66.10772357723577 40.142276422764226,66.41260162601625 40.040650406504064,66.8191056910569 39.9390243902439,67.32723577235772 39.83739837398374,67.9369918699187 39.735772357723576,68.54674796747967 39.583333333333336,69.2581300813008 39.43089430894309,69.8170731707317 39.329268292682926,70.32520325203252 39.22764227642276,70.78252032520325 39.07520325203252,71.13821138211382 38.97357723577235,71.4430894308943 38.87195121951219,71.79878048780488 38.82113821138211,72.0020325203252 38.77032520325203,72.15447154471545 38.71951219512195,72.2560975609756 38.71951219512195,72.2560975609756 38.71951219512195,72.2560975609756 38.71951219512195,72.2560975609756 38.71951219512195,72.2560975609756" fill="none" stroke="black" stroke-width="0.6"></polyline><polyline points="38.71951219512195,72.2560975609756 38.71951219512195,72.2560975609756 38.77032520325203,72.2560975609756 38.87195121951219,72.20528455284553 39.07520325203252,72.15447154471545" fill="none" stroke="black" stroke-width="0.6"></polyline><polyline points="50.40650406504065,66.15853658536585 50.40650406504065,66.15853658536585 50.40650406504065,66.10772357723577 50.40650406504065,66.0569105691057 50.355691056910565,66.0060975609756 50.30487804878049,65.95528455284553 50.2540650406504,65.90447154471545 50.15243902439024,65.85365853658537 49.949186991869915,65.80284552845528 49.69512195121951,65.80284552845528 49.33943089430894,65.80284552845528 48.93292682926829,65.85365853658537 48.52642276422764,66.0060975609756 48.170731707317074,66.20934959349593 47.916666666666664,66.46341463414635 47.71341463414634,66.76829268292683 47.66260162601626,67.07317073170732 47.66260162601626,67.42886178861788 47.8150406504065,67.83536585365853 48.06910569105691,68.24186991869918 48.3739837398374,68.64837398373983 48.729674796747965,69.05487804878048 49.03455284552845,69.41056910569105 49.33943089430894,69.76626016260163 49.59349593495935,70.1219512195122 49.74593495934959,70.3760162601626 49.84756097560975,70.630081300813 49.89837398373984,70.9349593495935 49.84756097560975,71.1890243902439 49.74593495934959,71.4430894308943 49.64430894308943,71.69715447154472 49.4410569105691,71.95121951219512 49.23780487804878,72.10365853658537 48.93292682926829,72.20528455284553 48.67886178861789,72.2560975609756 48.47560975609756,72.2560975609756 48.27235772357724,72.15447154471545 48.11991869918699,71.95121951219512 48.01829268292683,71.69715447154472 47.96747967479675,71.34146341463415 47.96747967479675,70.8841463414634 48.11991869918699,70.42682926829268 48.323170731707314,69.86788617886178 48.67886178861789,69.3089430894309 49.136178861788615,68.69918699186992 49.59349593495935,68.08943089430895 50,67.6829268292683 50.355691056910565,67.3780487804878 50.609756097560975,67.17479674796748 50.762195121951216,66.97154471544715 50.91463414634146,66.869918699187" fill="none" stroke="black" stroke-width="0.6"></polyline><polyline points="50.91463414634146,66.869918699187 50.91463414634146,66.8191056910569 50.96544715447154,66.76829268292683 51.016260162601625,66.76829268292683 51.016260162601625,66.76829268292683" fill="none" stroke="black" stroke-width="0.6"></polyline><polyline points="58.485772357723576,66.10772357723577 58.485772357723576,66.10772357723577 58.43495934959349,66.10772357723577 58.43495934959349,66.10772357723577 58.43495934959349,66.10772357723577 58.43495934959349,66.0569105691057 58.43495934959349,66.0569105691057 58.43495934959349,66.0060975609756 58.43495934959349,65.95528455284553 58.536585365853654,65.95528455284553 58.739837398373986,65.90447154471545 58.99390243902439,65.90447154471545 59.40040650406504,65.90447154471545 59.857723577235774,66.0569105691057 60.3150406504065,66.3109756097561 60.670731707317074,66.71747967479675 60.97560975609756,67.17479674796748 61.1280487804878,67.73373983739837 61.17886178861789,68.29268292682927 61.077235772357724,68.95325203252033 60.8739837398374,69.5630081300813 60.61991869918699,70.0711382113821 60.36585365853659,70.47764227642276 60.0609756097561,70.9349593495935 59.75609756097561,71.34146341463415 59.40040650406504,71.59552845528455 59.04471544715447,71.79878048780488 58.790650406504064,71.84959349593495 58.58739837398374,71.79878048780488 58.38414634146341,71.59552845528455 58.33333333333333,71.39227642276423 58.33333333333333,71.13821138211382 58.43495934959349,70.8841463414634 58.6890243902439,70.68089430894308 58.99390243902439,70.52845528455285 59.40040650406504,70.42682926829268 59.80691056910569,70.42682926829268 60.16260162601626,70.42682926829268 60.61991869918699,70.57926829268293 60.97560975609756,70.83333333333333 61.229674796747965,71.03658536585365 61.483739837398375,71.29065040650406 61.58536585365854,71.4430894308943 61.636178861788615,71.59552845528455 61.6869918699187,71.69715447154472 61.6869918699187,71.69715447154472 61.6869918699187,71.7479674796748 61.73780487804878,71.69715447154472" fill="none" stroke="black" stroke-width="0.6"></polyline><polyline points="71.64634146341463,67.32723577235772 71.69715447154472,67.27642276422765 71.7479674796748,67.22560975609755 71.79878048780488,67.22560975609755 71.84959349593495,67.17479674796748 71.84959349593495,67.17479674796748 71.84959349593495,67.17479674796748 71.90040650406505,67.1239837398374 71.90040650406505,67.1239837398374 71.90040650406505,67.1239837398374 71.84959349593495,67.07317073170732 71.7479674796748,67.07317073170732 71.64634146341463,67.02235772357723 71.49390243902438,66.97154471544715 71.34146341463415,66.92073170731707 71.13821138211382,66.869918699187 70.8841463414634,66.869918699187 70.57926829268293,66.869918699187 70.22357723577235,66.8191056910569 69.91869918699187,66.8191056910569 69.5630081300813,66.8191056910569 69.2581300813008,66.869918699187 69.0040650406504,66.869918699187 68.75,66.92073170731707 68.54674796747967,66.97154471544715 68.4451219512195,66.97154471544715 68.29268292682927,67.02235772357723 68.1910569105691,67.07317073170732 68.08943089430895,67.1239837398374 68.03861788617886,67.17479674796748 67.9369918699187,67.22560975609755 67.9369918699187,67.32723577235772 67.83536585365853,67.47967479674797 67.78455284552845,67.6829268292683 67.73373983739837,67.9369918699187 67.73373983739837,68.1910569105691 67.6829268292683,68.4959349593496 67.6829268292683,68.75 67.6829268292683,69.0040650406504 67.6829268292683,69.15650406504065 67.6829268292683,69.2581300813008 67.6829268292683,69.3089430894309 67.73373983739837,69.35975609756098 67.83536585365853,69.35975609756098 68.03861788617886,69.41056910569105 68.24186991869918,69.41056910569105 68.54674796747967,69.41056910569105 68.90243902439025,69.46138211382113 69.3089430894309,69.51219512195122 69.71544715447155,69.66463414634146 70.22357723577235,69.86788617886178" fill="none" stroke="black" stroke-width="0.6"></polyline><polyline points="70.22357723577235,69.86788617886178 70.630081300813,70.0711382113821 71.03658536585365,70.32520325203252 71.34146341463415,70.630081300813 71.49390243902438,70.83333333333333 71.59552845528455,71.08739837398373 71.59552845528455,71.34146341463415 71.59552845528455,71.54471544715447 71.4430894308943,71.7479674796748 71.1890243902439,72.0020325203252 70.9349593495935,72.20528455284553 70.68089430894308,72.3069105691057 70.27439024390243,72.40853658536585 69.91869918699187,72.45934959349593 69.51219512195122,72.45934959349593 69.10569105691057,72.45934959349593 68.75,72.45934959349593 68.4959349593496,72.40853658536585 68.29268292682927,72.35772357723577 68.24186991869918,72.2560975609756 68.24186991869918,72.15447154471545 68.34349593495935,72.0020325203252" fill="none" stroke="black" stroke-width="0.6"></polyline><polyline points="79.77642276422765,66.26016260162602 79.77642276422765,66.26016260162602 79.72560975609755,66.15853658536585 79.72560975609755,66.0569105691057 79.67479674796748,66.0569105691057 79.67479674796748,66.0060975609756 79.67479674796748,66.0060975609756 79.67479674796748,66.10772357723577 79.67479674796748,66.26016260162602 79.67479674796748,66.51422764227642 79.67479674796748,66.76829268292683 79.67479674796748,67.07317073170732 79.6239837398374,67.3780487804878 79.6239837398374,67.6321138211382 79.57317073170732,67.9369918699187 79.57317073170732,68.1910569105691 79.57317073170732,68.39430894308943 79.57317073170732,68.59756097560975 79.6239837398374,68.69918699186992 79.72560975609755,68.80081300813008 79.82723577235772,68.90243902439025 79.92886178861788,68.95325203252033 80.08130081300813,68.95325203252033 80.23373983739837,68.95325203252033 80.4369918699187,68.95325203252033 80.6910569105691,68.85162601626016 80.9959349593496,68.75 81.25,68.59756097560975 81.55487804878048,68.4959349593496 81.8089430894309,68.34349593495935 82.01219512195122,68.1910569105691 82.21544715447155,68.08943089430895 82.41869918699187,67.98780487804878 82.52032520325203,67.88617886178862 82.6219512195122,67.78455284552845 82.72357723577235,67.6321138211382 82.72357723577235,67.53048780487805 82.77439024390243,67.3780487804878 82.77439024390243,67.22560975609755 82.77439024390243,67.02235772357723 82.77439024390243,66.92073170731707 82.72357723577235,66.8191056910569 82.72357723577235,66.76829268292683 82.72357723577235,66.76829268292683 82.72357723577235,66.76829268292683 82.72357723577235,66.76829268292683 82.72357723577235,66.8191056910569 82.72357723577235,66.92073170731707 82.72357723577235,67.1239837398374 82.72357723577235,67.42886178861788 82.67276422764228,67.78455284552845" fill="none" stroke="black" stroke-width="0.6"></polyline><polyline points="82.67276422764228,67.78455284552845 82.67276422764228,68.24186991869918 82.67276422764228,68.85162601626016 82.67276422764228,69.51219512195122 82.67276422764228,70.1219512195122 82.67276422764228,70.73170731707317 82.67276422764228,71.23983739837398 82.67276422764228,71.69715447154472 82.67276422764228,72.05284552845528 82.67276422764228,72.35772357723577 82.72357723577235,72.51016260162602 82.72357723577235,72.71341463414635 82.72357723577235,72.76422764227642 82.77439024390243,72.8150406504065 82.77439024390243,72.8150406504065 82.77439024390243,72.8150406504065 82.82520325203252,72.71341463414635 82.8760162601626,72.66260162601625" fill="none" stroke="black" stroke-width="0.6"></polyline><polyline points="90.39634146341463,67.47967479674797 90.39634146341463,67.47967479674797 90.39634146341463,67.47967479674797 90.39634146341463,67.47967479674797 90.39634146341463,67.47967479674797 90.39634146341463,67.47967479674797 90.34552845528455,67.47967479674797 90.34552845528455,67.47967479674797 90.34552845528455,67.42886178861788 90.34552845528455,67.42886178861788 90.34552845528455,67.42886178861788 90.39634146341463,67.3780487804878 90.4979674796748,67.3780487804878 90.70121951219512,67.3780487804878 90.90447154471545,67.32723577235772 91.15853658536585,67.32723577235772 91.46341463414635,67.32723577235772 91.76829268292683,67.32723577235772 92.1239837398374,67.32723577235772 92.42886178861788,67.3780487804878 92.6829268292683,67.42886178861788 92.9369918699187,67.42886178861788 93.08943089430895,67.42886178861788 93.24186991869918,67.42886178861788 93.34349593495935,67.42886178861788 93.34349593495935,67.42886178861788 93.34349593495935,67.42886178861788 93.34349593495935,67.47967479674797 93.34349593495935,67.47967479674797 93.34349593495935,67.47967479674797 93.29268292682927,67.58130081300813 93.24186991869918,67.6829268292683 93.1910569105691,67.88617886178862 93.08943089430895,68.1910569105691 92.98780487804878,68.59756097560975 92.88617886178862,69.10569105691057 92.73373983739837,69.66463414634146 92.6321138211382,70.27439024390243 92.53048780487805,70.78252032520325 92.42886178861788,71.23983739837398 92.3780487804878,71.69715447154472 92.32723577235772,72.0020325203252 92.27642276422765,72.2560975609756 92.22560975609755,72.45934959349593 92.22560975609755,72.5609756097561 92.22560975609755,72.61178861788618 92.22560975609755,72.66260162601625 92.22560975609755,72.66260162601625 92.22560975609755,72.66260162601625 92.22560975609755,72.66260162601625 92.22560975609755,72.61178861788618" fill="none" stroke="black" stroke-width="0.6"></polyline><polyline points="92.22560975609755,72.61178861788618" fill="none" stroke="black" stroke-width="0.6"></polyline><polyline points="6.65650406504065,89.22764227642276 6.65650406504065,89.22764227642276 6.605691056910569,89.17682926829268 6.554878048780488,89.1260162601626 6.554878048780488,89.1260162601626 6.554878048780488,89.1260162601626 6.504065040650406,89.1260162601626 6.504065040650406,89.1260162601626 6.504065040650406,89.1260162601626 6.504065040650406,89.1260162601626 6.504065040650406,89.1260162601626 6.504065040650406,89.1260162601626 6.504065040650406,89.1260162601626 6.554878048780488,89.1260162601626 6.554878048780488,89.1260162601626 6.554878048780488,89.1260162601626 6.554878048780488,89.1260162601626 6.554878048780488,89.1260162601626 6.554878048780488,89.1260162601626 6.554878048780488,89.1260162601626 6.554878048780488,89.1260162601626 6.554878048780488,89.1260162601626 6.554878048780488,89.1260162601626 6.554878048780488,89.1260162601626 6.554878048780488,89.1260162601626 6.554878048780488,89.1260162601626 6.554878048780488,89.1260162601626 6.554878048780488,89.1260162601626 6.554878048780488,89.1260162601626 6.554878048780488,89.1260162601626 6.554878048780488,89.1260162601626 6.554878048780488,89.1260162601626 6.554878048780488,89.1260162601626 6.554878048780488,89.1260162601626 6.554878048780488,89.1260162601626 6.554878048780488,89.1260162601626 6.554878048780488,89.1260162601626 6.554878048780488,89.1260162601626 6.554878048780488,89.1260162601626 6.554878048780488,89.17682926829268 6.605691056910569,89.17682926829268 6.605691056910569,89.17682926829268 6.605691056910569,89.17682926829268 6.605691056910569,89.22764227642276 6.605691056910569,89.22764227642276 6.605691056910569,89.27845528455285 6.65650406504065,89.27845528455285 6.7073170731707314,89.32926829268293 6.758130081300813,89.32926829268293 6.9105691056910565,89.27845528455285 7.113821138211382,89.17682926829268" fill="none" stroke="black" stroke-width="0.6"></polyline><polyline points="7.113821138211382,89.17682926829268 7.41869918699187,88.97357723577235 7.774390243902439,88.61788617886178 8.18089430894309,88.26219512195122 8.536585365853659,87.95731707317073 8.892276422764228,87.65243902439025 9.095528455284553,87.55081300813008 9.247967479674797,87.55081300813008 9.34959349593496,87.65243902439025 9.40040650406504,87.90650406504065 9.451219512195122,88.36382113821138 9.451219512195122,88.97357723577235 9.40040650406504,89.6849593495935 9.298780487804878,90.54878048780488 9.146341463414634,91.5650406504065 9.044715447154472,92.42886178861788 8.892276422764228,93.1910569105691 8.790650406504065,93.85162601626016 8.689024390243903,94.2581300813008 8.58739837398374,94.5630081300813 8.536585365853659,94.86788617886178 8.536585365853659,95.02032520325203 8.536585365853659,95.0711382113821 8.536585365853659,95.0711382113821" fill="none" stroke="black" stroke-width="0.6"></polyline><polyline points="6.961382113821138,94.8170731707317 6.961382113821138,94.86788617886178 6.9105691056910565,94.91869918699187 6.859756097560975,94.91869918699187 6.808943089430894,94.91869918699187 6.808943089430894,94.91869918699187 6.859756097560975,94.96951219512195 7.0630081300813,94.96951219512195 7.41869918699187,94.96951219512195 7.876016260162602,94.91869918699187 8.384146341463415,94.8170731707317 8.94308943089431,94.71544715447155 9.502032520325203,94.5630081300813 9.959349593495935,94.41056910569105 10.416666666666666,94.2581300813008 10.873983739837398,94.10569105691057 11.229674796747966,93.95325203252033 11.534552845528456,93.85162601626016 11.890243902439025,93.75 12.042682926829269,93.69918699186992" fill="none" stroke="black" stroke-width="0.6"></polyline><polyline points="16.15853658536585,89.73577235772358 16.10772357723577,89.73577235772358 16.05691056910569,89.73577235772358 16.006097560975608,89.73577235772358 15.904471544715447,89.73577235772358 15.904471544715447,89.73577235772358 15.904471544715447,89.73577235772358 16.10772357723577,89.73577235772358 16.41260162601626,89.73577235772358 16.76829268292683,89.73577235772358 17.225609756097562,89.73577235772358 17.632113821138212,89.73577235772358 18.140243902439025,89.6849593495935 18.648373983739837,89.6849593495935 19.054878048780488,89.6341463414634 19.410569105691057,89.6341463414634 19.715447154471544,89.6341463414634 19.867886178861788,89.6849593495935 20.020325203252032,89.83739837398373 20.172764227642276,90.09146341463415 20.172764227642276,90.4979674796748 20.121951219512194,91.0569105691057 20.020325203252032,91.71747967479675 19.817073170731707,92.3780487804878 19.61382113821138,92.98780487804878 19.461382113821138,93.59756097560975 19.308943089430894,94.10569105691057 19.10569105691057,94.61382113821138 18.953252032520325,95.0711382113821 18.80081300813008,95.42682926829268 18.75,95.73170731707317 18.69918699186992,95.8841463414634 18.69918699186992,95.8841463414634 18.69918699186992,95.8841463414634 18.75,95.73170731707317 18.902439024390244,95.47764227642276 19.10569105691057,95.1219512195122" fill="none" stroke="black" stroke-width="0.6"></polyline><polyline points="28.96341463414634,89.48170731707317 28.96341463414634,89.48170731707317 28.96341463414634,89.43089430894308 29.01422764227642,89.43089430894308 29.01422764227642,89.380081300813 29.01422764227642,89.380081300813 29.01422764227642,89.380081300813 29.01422764227642,89.380081300813 29.01422764227642,89.380081300813 29.01422764227642,89.380081300813 29.01422764227642,89.380081300813 28.96341463414634,89.380081300813 28.861788617886177,89.380081300813 28.760162601626014,89.380081300813 28.60772357723577,89.380081300813 28.404471544715445,89.380081300813 28.099593495934958,89.380081300813 27.79471544715447,89.380081300813 27.489837398373982,89.380081300813 27.134146341463413,89.32926829268293 26.829268292682926,89.32926829268293 26.6260162601626,89.32926829268293 26.473577235772357,89.32926829268293 26.270325203252032,89.380081300813 26.16869918699187,89.43089430894308 26.067073170731707,89.48170731707317 25.914634146341463,89.58333333333333 25.8130081300813,89.6849593495935 25.711382113821138,89.83739837398373 25.609756097560975,89.98983739837398 25.508130081300813,90.14227642276423 25.40650406504065,90.34552845528455 25.35569105691057,90.59959349593495 25.304878048780488,90.90447154471545 25.304878048780488,91.15853658536585 25.304878048780488,91.46341463414635 25.304878048780488,91.66666666666667 25.304878048780488,91.869918699187 25.35569105691057,91.97154471544715 25.45731707317073,92.07317073170732 25.609756097560975,92.07317073170732 25.8130081300813,92.07317073170732 26.067073170731707,92.02235772357723 26.422764227642276,91.97154471544715 26.778455284552845,91.869918699187 27.235772357723576,91.869918699187 27.693089430894307,91.869918699187 28.15040650406504,91.97154471544715 28.506097560975608,92.17479674796748 28.810975609756095,92.3780487804878 29.0650406504065,92.53048780487805" fill="none" stroke="black" stroke-width="0.6"></polyline><polyline points="29.0650406504065,92.53048780487805 29.166666666666664,92.73373983739837 29.166666666666664,92.9369918699187 29.166666666666664,93.1910569105691 29.0650406504065,93.4451219512195 28.861788617886177,93.69918699186992 28.60772357723577,94.0040650406504 28.353658536585364,94.20731707317073 28.048780487804876,94.41056910569105 27.693089430894307,94.5630081300813 27.38821138211382,94.66463414634146 27.03252032520325,94.71544715447155 26.676829268292682,94.71544715447155 26.371951219512194,94.66463414634146 26.117886178861788,94.5630081300813 25.965447154471544,94.46138211382113 25.914634146341463,94.3089430894309 25.914634146341463,94.20731707317073 25.914634146341463,94.15650406504065" fill="none" stroke="black" stroke-width="0.6"></polyline><polyline points="39.83739837398374,88.46544715447155 39.83739837398374,88.46544715447155 39.83739837398374,88.46544715447155 39.83739837398374,88.46544715447155 39.83739837398374,88.46544715447155 39.83739837398374,88.41463414634146 39.83739837398374,88.41463414634146 39.735772357723576,88.36382113821138 39.63414634146341,88.36382113821138 39.38008130081301,88.36382113821138 39.02439024390244,88.36382113821138 38.61788617886179,88.46544715447155 38.109756097560975,88.5670731707317 37.65243902439024,88.66869918699187 37.24593495934959,88.8211382113821 36.890243902439025,89.02439024390243 36.73780487804878,89.17682926829268 36.73780487804878,89.380081300813 36.73780487804878,89.58333333333333 36.890243902439025,89.83739837398373 37.09349593495935,90.14227642276423 37.39837398373984,90.4471544715447 37.703252032520325,90.80284552845528 38.05894308943089,91.15853658536585 38.41463414634146,91.51422764227642 38.668699186991866,91.869918699187 38.87195121951219,92.17479674796748 38.97357723577235,92.53048780487805 39.02439024390244,92.83536585365853 39.02439024390244,93.14024390243902 38.922764227642276,93.39430894308943 38.77032520325203,93.59756097560975 38.5670731707317,93.75 38.3130081300813,93.90243902439025 38.05894308943089,93.95325203252033 37.7540650406504,93.95325203252033 37.449186991869915,93.90243902439025 37.19512195121951,93.80081300813008 36.99186991869919,93.59756097560975 36.83943089430894,93.4451219512195 36.73780487804878,93.24186991869918 36.73780487804878,92.98780487804878 36.73780487804878,92.6829268292683 36.890243902439025,92.32723577235772 37.09349593495935,91.92073170731707 37.449186991869915,91.46341463414635 37.90650406504065,90.95528455284553 38.41463414634146,90.4979674796748 38.922764227642276,89.98983739837398 39.38008130081301,89.6849593495935 39.735772357723576,89.380081300813" fill="none" stroke="black" stroke-width="0.6"></polyline><polyline points="39.735772357723576,89.380081300813 40.09146341463415,89.1260162601626 40.34552845528455,88.92276422764228 40.59959349593496,88.71951219512195 40.853658536585364,88.5670731707317 40.95528455284553,88.46544715447155" fill="none" stroke="black" stroke-width="0.6"></polyline><polyline points="48.06910569105691,88.51626016260163 48.06910569105691,88.51626016260163 47.96747967479675,88.51626016260163 47.916666666666664,88.51626016260163 47.86585365853659,88.61788617886178 47.764227642276424,88.92276422764228 47.71341463414634,89.27845528455285 47.71341463414634,89.6849593495935 47.71341463414634,90.09146341463415 47.71341463414634,90.4471544715447 47.71341463414634,90.70121951219512 47.764227642276424,90.95528455284553 47.86585365853659,91.10772357723577 47.96747967479675,91.15853658536585 48.11991869918699,91.20934959349593 48.323170731707314,91.20934959349593 48.577235772357724,91.20934959349593 48.88211382113821,91.15853658536585 49.1869918699187,91.0569105691057 49.542682926829265,90.95528455284553 49.89837398373984,90.80284552845528 50.203252032520325,90.59959349593495 50.355691056910565,90.4979674796748" fill="none" stroke="black" stroke-width="0.6"></polyline><polyline points="51.21951219512195,88.71951219512195 51.21951219512195,88.71951219512195 51.21951219512195,88.71951219512195 51.168699186991866,88.71951219512195 51.168699186991866,88.8211382113821 51.168699186991866,89.07520325203252 51.168699186991866,89.53252032520325 51.168699186991866,90.14227642276423 51.168699186991866,90.90447154471545 51.168699186991866,91.61585365853658 51.168699186991866,92.27642276422765 51.168699186991866,92.88617886178862 51.21951219512195,93.34349593495935 51.27032520325203,93.80081300813008 51.27032520325203,94.15650406504065 51.27032520325203,94.41056910569105 51.32113821138211,94.5630081300813 51.37195121951219,94.66463414634146 51.422764227642276,94.66463414634146 51.422764227642276,94.66463414634146" fill="none" stroke="black" stroke-width="0.6"></polyline><polyline points="58.94308943089431,90.34552845528455 58.892276422764226,90.34552845528455 58.790650406504064,90.39634146341463 58.739837398373986,90.4471544715447 58.63821138211382,90.4979674796748 58.58739837398374,90.54878048780488 58.536585365853654,90.54878048780488 58.485772357723576,90.54878048780488 58.485772357723576,90.59959349593495 58.485772357723576,90.59959349593495 58.485772357723576,90.59959349593495 58.485772357723576,90.59959349593495 58.58739837398374,90.4979674796748 58.6890243902439,90.39634146341463 58.84146341463415,90.29471544715447 58.99390243902439,90.09146341463415 59.197154471544714,89.88821138211382 59.40040650406504,89.6849593495935 59.552845528455286,89.48170731707317 59.75609756097561,89.32926829268293 59.857723577235774,89.17682926829268 59.959349593495936,89.07520325203252 60.010162601626014,89.07520325203252 60.0609756097561,89.07520325203252 60.11178861788618,89.22764227642276 60.11178861788618,89.58333333333333 60.11178861788618,90.04065040650406 60.11178861788618,90.59959349593495 60.11178861788618,91.26016260162602 60.11178861788618,91.8191056910569 60.11178861788618,92.27642276422765 60.11178861788618,92.6829268292683 60.11178861788618,92.98780487804878 60.11178861788618,93.1910569105691 60.11178861788618,93.39430894308943 60.0609756097561,93.54674796747967" fill="none" stroke="black" stroke-width="0.6"></polyline><polyline points="58.63821138211382,94.41056910569105 58.63821138211382,94.41056910569105 58.63821138211382,94.41056910569105 58.63821138211382,94.41056910569105 58.63821138211382,94.41056910569105 58.63821138211382,94.41056910569105 58.790650406504064,94.41056910569105 59.04471544715447,94.41056910569105 59.5020325203252,94.3089430894309 60.010162601626014,94.20731707317073 60.51829268292683,94.10569105691057 61.077235772357724,94.0040650406504 61.53455284552845,93.95325203252033 61.890243902439025,93.95325203252033 62.296747967479675,93.95325203252033 62.55081300813008,93.95325203252033 62.80487804878049,93.95325203252033 63.00813008130081,93.95325203252033" fill="none" stroke="black" stroke-width="0.6"></polyline><polyline points="72.15447154471545,88.66869918699187 72.15447154471545,88.66869918699187 72.15447154471545,88.66869918699187 72.15447154471545,88.66869918699187 72.15447154471545,88.66869918699187 72.15447154471545,88.66869918699187 72.15447154471545,88.66869918699187 72.15447154471545,88.66869918699187 72.15447154471545,88.66869918699187 72.15447154471545,88.66869918699187 72.15447154471545,88.71951219512195 72.15447154471545,88.71951219512195 72.15447154471545,88.71951219512195 72.15447154471545,88.71951219512195 72.15447154471545,88.71951219512195 72.15447154471545,88.71951219512195 72.15447154471545,88.71951219512195 72.15447154471545,88.71951219512195 72.15447154471545,88.71951219512195 72.15447154471545,88.71951219512195 72.15447154471545,88.77032520325203 72.15447154471545,88.77032520325203 72.15447154471545,88.77032520325203 72.10365853658537,88.77032520325203 72.10365853658537,88.77032520325203 72.05284552845528,88.77032520325203 72.05284552845528,88.77032520325203 72.0020325203252,88.77032520325203 71.95121951219512,88.77032520325203 71.90040650406505,88.8211382113821 71.84959349593495,88.8211382113821 71.7479674796748,88.8211382113821 71.64634146341463,88.8211382113821 71.59552845528455,88.8719512195122 71.49390243902438,88.8719512195122 71.34146341463415,88.92276422764228 71.23983739837398,88.92276422764228 71.13821138211382,88.97357723577235 70.98577235772358,88.97357723577235 70.83333333333333,89.02439024390243 70.630081300813,89.02439024390243 70.42682926829268,89.02439024390243 70.22357723577235,89.02439024390243 70.02032520325203,89.02439024390243 69.76626016260163,88.97357723577235 69.5630081300813,88.92276422764228 69.35975609756098,88.92276422764228 69.15650406504065,88.8719512195122 68.95325203252033,88.8719512195122 68.75,88.8719512195122 68.59756097560975,88.92276422764228" fill="none" stroke="black" stroke-width="0.6"></polyline><polyline points="68.59756097560975,88.92276422764228 68.4959349593496,89.02439024390243 68.34349593495935,89.17682926829268 68.24186991869918,89.380081300813 68.14024390243902,89.58333333333333 68.08943089430895,89.83739837398373 68.03861788617886,90.14227642276423 68.03861788617886,90.34552845528455 67.98780487804878,90.54878048780488 67.98780487804878,90.70121951219512 67.98780487804878,90.80284552845528 67.98780487804878,90.85365853658536 68.03861788617886,90.85365853658536 68.08943089430895,90.85365853658536 68.1910569105691,90.85365853658536 68.34349593495935,90.80284552845528 68.54674796747967,90.80284552845528 68.80081300813008,90.80284552845528 69.10569105691057,90.80284552845528 69.41056910569105,90.90447154471545 69.8170731707317,91.0569105691057 70.22357723577235,91.3109756097561 70.57926829268293,91.51422764227642 70.8841463414634,91.76829268292683 71.08739837398373,91.97154471544715 71.23983739837398,92.17479674796748 71.29065040650406,92.3780487804878 71.29065040650406,92.6321138211382 71.1890243902439,92.83536585365853 71.08739837398373,93.08943089430895 70.9349593495935,93.29268292682927 70.68089430894308,93.4451219512195 70.42682926829268,93.59756097560975 70.1219512195122,93.69918699186992 69.8170731707317,93.75 69.46138211382113,93.75 69.10569105691057,93.75 68.80081300813008,93.75 68.59756097560975,93.69918699186992 68.39430894308943,93.59756097560975 68.34349593495935,93.4959349593496 68.29268292682927,93.39430894308943 68.29268292682927,93.34349593495935" fill="none" stroke="black" stroke-width="0.6"></polyline><polyline points="78.8109756097561,89.58333333333333 78.8109756097561,89.58333333333333 78.8109756097561,89.58333333333333 78.8109756097561,89.58333333333333 78.8109756097561,89.58333333333333 78.8109756097561,89.58333333333333 78.8109756097561,89.48170731707317 78.91260162601625,89.380081300813 79.0650406504065,89.27845528455285 79.3191056910569,89.07520325203252 79.6239837398374,88.92276422764228 79.97967479674797,88.8211382113821 80.28455284552845,88.77032520325203 80.58943089430895,88.77032520325203 80.9451219512195,89.02439024390243 81.25,89.32926829268293 81.5040650406504,89.73577235772358 81.70731707317073,90.14227642276423 81.7581300813008,90.59959349593495 81.7581300813008,91.0569105691057 81.7581300813008,91.46341463414635 81.65650406504065,91.8191056910569 81.5040650406504,92.1239837398374 81.35162601626016,92.3780487804878 81.14837398373983,92.58130081300813 80.89430894308943,92.73373983739837 80.64024390243902,92.88617886178862 80.33536585365853,92.9369918699187 80.08130081300813,92.9369918699187 79.82723577235772,92.83536585365853 79.67479674796748,92.6829268292683 79.57317073170732,92.58130081300813 79.57317073170732,92.53048780487805 79.57317073170732,92.47967479674797 79.6239837398374,92.47967479674797 79.77642276422765,92.47967479674797 80.03048780487805,92.47967479674797 80.38617886178862,92.47967479674797 80.74186991869918,92.47967479674797 81.09756097560975,92.58130081300813 81.45325203252033,92.6321138211382 81.8089430894309,92.73373983739837 82.11382113821138,92.78455284552845 82.41869918699187,92.88617886178862" fill="none" stroke="black" stroke-width="0.6"></polyline><polyline points="89.9390243902439,89.9390243902439 89.9390243902439,89.98983739837398 89.9390243902439,90.04065040650406 89.83739837398373,90.1930894308943 89.73577235772358,90.4471544715447 89.58333333333333,90.90447154471545 89.43089430894308,91.46341463414635 89.32926829268293,91.97154471544715 89.32926829268293,92.47967479674797 89.32926829268293,92.98780487804878 89.380081300813,93.39430894308943 89.53252032520325,93.69918699186992 89.73577235772358,93.95325203252033 89.98983739837398,94.15650406504065 90.29471544715447,94.3089430894309 90.70121951219512,94.3089430894309 91.15853658536585,94.35975609756098 91.5650406504065,94.2581300813008 92.02235772357723,94.10569105691057 92.47967479674797,93.85162601626016 92.9369918699187,93.59756097560975 93.29268292682927,93.29268292682927 93.59756097560975,92.98780487804878 93.75,92.6829268292683 93.85162601626016,92.3780487804878 93.85162601626016,92.17479674796748 93.85162601626016,92.07317073170732 93.75,92.07317073170732 93.64837398373983,92.07317073170732 93.4959349593496,92.1239837398374 93.29268292682927,92.27642276422765 93.08943089430895,92.47967479674797 92.88617886178862,92.83536585365853 92.73373983739837,93.1910569105691 92.53048780487805,93.54674796747967 92.42886178861788,93.90243902439025 92.32723577235772,94.2581300813008 92.32723577235772,94.51219512195122 92.32723577235772,94.71544715447155 92.3780487804878,94.91869918699187 92.47967479674797,95.02032520325203 92.53048780487805,95.02032520325203" fill="none" stroke="black" stroke-width="0.6"></polyline></svg>