<svg height="100" width="100" preserveAspectRatio="xMidYMid meet"><polyline points="49.796747967479675,50.355691056910565 49.64430894308943,50.30487804878049 49.49186991869919,50.2540650406504 49.390243902439025,50.2540650406504 49.33943089430894,50.203252032520325 49.23780487804878,50.203252032520325 49.23780487804878,50.15243902439024 49.23780487804878,50.15243902439024 49.1869918699187,50.15243902439024 49.1869918699187,50.15243902439024 49.1869918699187,50.15243902439024 49.1869918699187,50.15243902439024 49.23780487804878,50.15243902439024 49.33943089430894,50.10162601626016 49.4410569105691,50.05081300813008 49.542682926829265,49.949186991869915 49.74593495934959,49.84756097560975 49.89837398373984,49.74593495934959 50.10162601626016,49.64430894308943 50.355691056910565,49.542682926829265 50.55894308943089,49.390243902439025 50.86382113821138,49.23780487804878 51.11788617886179,49.03455284552845 51.422764227642276,48.78048780487805 51.72764227642276,48.52642276422764 51.981707317073166,48.22154471544715 52.235772357723576,47.96747967479675 52.38821138211382,47.66260162601626 52.59146341463415,47.357723577235774 52.642276422764226,47.103658536585364 52.74390243902439,46.90040650406504 52.74390243902439,46.646341463414636 52.74390243902439,46.44308943089431 52.74390243902439,46.239837398373986 52.642276422764226,45.985772357723576 52.540650406504064,45.73170731707317 52.38821138211382,45.52845528455285 52.235772357723576,45.27439024390244 52.083333333333336,45.02032520325203 51.880081300813,44.86788617886179 51.6260162601626,44.61382113821138 51.37195121951219,44.46138211382114 51.0670731707317,44.359756097560975 50.762195121951216,44.20731707317073 50.45731707317073,44.105691056910565 50.15243902439024,44.0040650406504 49.796747967479675,43.90243902439024 49.49186991869919,43.90243902439024 49.1869918699187,43.85162601626016 48.83130081300813,43.85162601626016 48.52642276422764,43.85162601626016" fill="none" stroke="black" stroke-width="0.6"></polyline><polyline points="48.52642276422764,43.85162601626016 48.22154471544715,43.85162601626016 47.916666666666664,43.85162601626016 47.66260162601626,43.90243902439024 47.40853658536585,43.953252032520325 47.103658536585364,44.05487804878049 46.84959349593496,44.20731707317073 46.54471544715447,44.359756097560975 46.239837398373986,44.5630081300813 45.985772357723576,44.766260162601625 45.73170731707317,45.07113821138211 45.47764227642276,45.3760162601626 45.22357723577235,45.68089430894309 45.02032520325203,46.08739837398374 44.8170731707317,46.49390243902439 44.61382113821138,46.84959349593496 44.46138211382114,47.15447154471545 44.359756097560975,47.459349593495936 44.25813008130081,47.764227642276424 44.15650406504065,48.170731707317074 44.105691056910565,48.577235772357724 44.105691056910565,48.93292682926829 44.05487804878049,49.28861788617886 44.05487804878049,49.69512195121951 44.105691056910565,50.10162601626016 44.15650406504065,50.50813008130081 44.25813008130081,50.91463414634146 44.359756097560975,51.27032520325203 44.46138211382114,51.6260162601626 44.61382113821138,52.03252032520325 44.766260162601625,52.33739837398374 44.918699186991866,52.69308943089431 45.07113821138211,53.048780487804876 45.27439024390244,53.353658536585364 45.47764227642276,53.65853658536585 45.68089430894309,53.96341463414634 45.9349593495935,54.31910569105691 46.1890243902439,54.6239837398374 46.49390243902439,54.8780487804878 46.7479674796748,55.13211382113821 47.052845528455286,55.33536585365854 47.357723577235774,55.53861788617886 47.66260162601626,55.6910569105691 47.96747967479675,55.84349593495935 48.27235772357724,55.99593495934959 48.6280487804878,56.14837398373984 48.983739837398375,56.30081300813008 49.28861788617886,56.40243902439024 49.64430894308943,56.5040650406504 50.05081300813008,56.605691056910565 50.355691056910565,56.605691056910565" fill="none" stroke="black" stroke-width="0.6"></polyline><polyline points="50.355691056910565,56.605691056910565 50.71138211382114,56.65650406504065 51.11788617886179,56.65650406504065 51.47357723577235,56.65650406504065 51.829268292682926,56.65650406504065 52.235772357723576,56.55487804878049 52.59146341463415,56.453252032520325 52.9979674796748,56.30081300813008 53.40447154471545,56.14837398373984 53.760162601626014,55.94512195121951 54.11585365853659,55.74186991869919 54.52235772357724,55.48780487804878 54.827235772357724,55.233739837398375 55.13211382113821,54.979674796747965 55.48780487804878,54.6239837398374 55.74186991869919,54.31910569105691 56.046747967479675,53.96341463414634 56.35162601626016,53.55691056910569 56.65650406504065,53.201219512195124 56.91056910569105,52.896341463414636 57.16463414634146,52.540650406504064 57.36788617886179,52.235772357723576 57.57113821138211,51.880081300813 57.77439024390244,51.52439024390244 57.97764227642276,51.168699186991866 58.079268292682926,50.762195121951216 58.231707317073166,50.30487804878049 58.33333333333333,49.84756097560975 58.43495934959349,49.33943089430894 58.485772357723576,48.83130081300813 58.485772357723576,48.323170731707314 58.485772357723576,47.86585365853659 58.485772357723576,47.40853658536585 58.38414634146341,47.0020325203252 58.28252032520325,46.646341463414636 58.130081300813,46.239837398373986 57.97764227642276,45.833333333333336 57.77439024390244,45.42682926829268 57.46951219512195,44.96951219512195 57.21544715447154,44.5630081300813 56.91056910569105,44.105691056910565 56.55487804878049,43.64837398373984 56.199186991869915,43.24186991869919 55.792682926829265,42.886178861788615 55.386178861788615,42.58130081300813 54.979674796747965,42.327235772357724 54.52235772357724,42.073170731707314 54.0650406504065,41.81910569105691 53.607723577235774,41.61585365853659 53.09959349593496,41.36178861788618 52.59146341463415,41.15853658536585" fill="none" stroke="black" stroke-width="0.6"></polyline><polyline points="52.59146341463415,41.15853658536585 52.083333333333336,40.95528455284553 51.575203252032516,40.802845528455286 51.016260162601625,40.65040650406504 50.50813008130081,40.59959349593496 49.949186991869915,40.548780487804876 49.4410569105691,40.4979674796748 48.88211382113821,40.4979674796748 48.3739837398374,40.548780487804876 47.8150406504065,40.65040650406504 47.30691056910569,40.7520325203252 46.798780487804876,40.853658536585364 46.34146341463415,41.00609756097561 45.88414634146341,41.107723577235774 45.42682926829268,41.3109756097561 45.02032520325203,41.514227642276424 44.5630081300813,41.71747967479675 44.105691056910565,41.97154471544715 43.75,42.22560975609756 43.39430894308943,42.479674796747965 43.03861788617886,42.78455284552845 42.733739837398375,43.140243902439025 42.3780487804878,43.49593495934959 42.073170731707314,43.953252032520325 41.81910569105691,44.359756097560975 41.5650406504065,44.766260162601625 41.3109756097561,45.172764227642276 41.15853658536585,45.52845528455285 41.00609756097561,45.9349593495935 40.853658536585364,46.34146341463415 40.701219512195124,46.7479674796748 40.59959349593496,47.20528455284553 40.447154471544714,47.764227642276424 40.34552845528455,48.27235772357724 40.24390243902439,48.78048780487805 40.142276422764226,49.28861788617886 40.040650406504064,49.74593495934959 39.989837398373986,50.2540650406504 39.989837398373986,50.762195121951216 39.989837398373986,51.21951219512195 39.989837398373986,51.67682926829268 39.989837398373986,52.13414634146341 40.040650406504064,52.540650406504064 40.142276422764226,52.9979674796748 40.24390243902439,53.45528455284553 40.396341463414636,53.8109756097561 40.548780487804876,54.166666666666664 40.701219512195124,54.573170731707314 40.90447154471545,54.979674796747965 41.05691056910569,55.33536585365854 41.260162601626014,55.6910569105691" fill="none" stroke="black" stroke-width="0.6"></polyline><polyline points="41.260162601626014,55.6910569105691 41.46341463414634,56.046747967479675 41.61585365853659,56.40243902439024 41.86991869918699,56.75813008130081 42.073170731707314,57.0630081300813 42.327235772357724,57.418699186991866 42.58130081300813,57.77439024390244 42.83536585365854,58.079268292682926 43.140243902439025,58.38414634146341 43.39430894308943,58.6890243902439 43.699186991869915,58.94308943089431 44.0040650406504,59.197154471544714 44.30894308943089,59.451219512195124 44.61382113821138,59.65447154471545 44.96951219512195,59.857723577235774 45.325203252032516,60.0609756097561 45.63008130081301,60.21341463414634 45.985772357723576,60.416666666666664 46.392276422764226,60.56910569105691 46.7479674796748,60.72154471544715 47.15447154471545,60.823170731707314 47.5609756097561,60.97560975609756 47.96747967479675,61.02642276422764 48.3739837398374,61.1280487804878 48.78048780487805,61.17886178861789 49.23780487804878,61.17886178861789 49.64430894308943,61.17886178861789 50.10162601626016,61.229674796747965 50.55894308943089,61.229674796747965 50.96544715447154,61.229674796747965 51.47357723577235,61.17886178861789 51.880081300813,61.1280487804878 52.38821138211382,61.077235772357724 52.84552845528455,61.02642276422764 53.353658536585364,60.92479674796748 53.91260162601626,60.77235772357724 54.36991869918699,60.670731707317074 54.827235772357724,60.51829268292683 55.28455284552845,60.36585365853659 55.74186991869919,60.21341463414634 56.199186991869915,60.0609756097561 56.70731707317073,59.857723577235774 57.11382113821138,59.70528455284553 57.57113821138211,59.5020325203252 58.02845528455284,59.298780487804876 58.43495934959349,59.04471544715447 58.892276422764226,58.739837398373986 59.298780487804876,58.33333333333333 59.70528455284553,57.97764227642276 60.11178861788618,57.62195121951219 60.51829268292683,57.266260162601625" fill="none" stroke="black" stroke-width="0.6"></polyline><polyline points="60.51829268292683,57.266260162601625 60.823170731707314,56.91056910569105 61.1280487804878,56.55487804878049 61.483739837398375,56.14837398373984 61.73780487804878,55.74186991869919 62.042682926829265,55.28455284552845 62.34756097560975,54.77642276422764 62.55081300813008,54.31910569105691 62.80487804878049,53.86178861788618 63.00813008130081,53.302845528455286 63.16056910569105,52.84552845528455 63.262195121951216,52.33739837398374 63.41463414634146,51.67682926829268 63.46544715447154,51.0670731707317 63.516260162601625,50.45731707317073 63.516260162601625,49.796747967479675 63.516260162601625,49.136178861788615 63.41463414634146,48.577235772357724 63.3130081300813,47.96747967479675 63.109756097560975,47.40853658536585 62.95731707317073,46.798780487804876 62.703252032520325,46.290650406504064 62.5,45.833333333333336 62.24593495934959,45.325203252032516 61.9410569105691,44.8170731707317 61.636178861788615,44.359756097560975 61.33130081300813,43.90243902439024 60.97560975609756,43.39430894308943 60.61991869918699,42.886178861788615 60.264227642276424,42.479674796747965 59.80691056910569,42.073170731707314 59.40040650406504,41.666666666666664 58.99390243902439,41.209349593495936 58.536585365853654,40.802845528455286 58.079268292682926,40.447154471544714 57.62195121951219,40.09146341463415 57.16463414634146,39.78658536585366 56.70731707317073,39.53252032520325 56.199186991869915,39.22764227642276 55.640243902439025,38.922764227642276 55.13211382113821,38.71951219512195 54.52235772357724,38.516260162601625 54.014227642276424,38.36382113821138 53.45528455284553,38.21138211382114 52.896341463414636,38.109756097560975 52.33739837398374,37.95731707317073 51.72764227642276,37.855691056910565 51.11788617886179,37.80487804878049 50.45731707317073,37.703252032520325 49.84756097560975,37.65243902439024 49.1869918699187,37.65243902439024" fill="none" stroke="black" stroke-width="0.6"></polyline><polyline points="49.1869918699187,37.65243902439024 48.6280487804878,37.60162601626016 48.06910569105691,37.60162601626016 47.459349593495936,37.60162601626016 46.951219512195124,37.60162601626016 46.392276422764226,37.60162601626016 45.78252032520325,37.60162601626016 45.27439024390244,37.65243902439024 44.71544715447154,37.7540650406504 44.105691056910565,37.90650406504065 43.59756097560975,38.00813008130081 43.03861788617886,38.21138211382114 42.479674796747965,38.41463414634146 41.920731707317074,38.668699186991866 41.36178861788618,38.922764227642276 40.802845528455286,39.27845528455285 40.29471544715447,39.583333333333336 39.78658536585366,39.9390243902439 39.27845528455285,40.24390243902439 38.82113821138211,40.548780487804876 38.41463414634146,40.90447154471545 37.95731707317073,41.3109756097561 37.60162601626016,41.666666666666664 37.24593495934959,42.073170731707314 36.890243902439025,42.53048780487805 36.58536585365854,42.886178861788615 36.28048780487805,43.34349593495935 35.97560975609756,43.85162601626016 35.77235772357724,44.30894308943089 35.51829268292683,44.8170731707317 35.264227642276424,45.3760162601626 35.11178861788618,45.9349593495935 34.959349593495936,46.49390243902439 34.80691056910569,47.052845528455286 34.70528455284553,47.5609756097561 34.603658536585364,48.11991869918699 34.552845528455286,48.729674796747965 34.5020325203252,49.28861788617886 34.451219512195124,49.89837398373984 34.451219512195124,50.55894308943089 34.451219512195124,51.21951219512195 34.5020325203252,51.880081300813 34.552845528455286,52.540650406504064 34.65447154471545,53.201219512195124 34.75609756097561,53.8109756097561 34.90853658536585,54.47154471544715 35.0609756097561,54.979674796747965 35.21341463414634,55.4369918699187 35.416666666666664,55.89430894308943 35.61991869918699,56.40243902439024 35.8739837398374,56.96138211382114" fill="none" stroke="black" stroke-width="0.6"></polyline><polyline points="35.8739837398374,56.96138211382114 36.17886178861789,57.57113821138211 36.483739837398375,58.18089430894309 36.83943089430894,58.790650406504064 37.19512195121951,59.34959349593496 37.55081300813008,59.80691056910569 37.95731707317073,60.3150406504065 38.41463414634146,60.8739837398374 38.922764227642276,61.38211382113821 39.43089430894309,61.9410569105691 39.989837398373986,62.449186991869915 40.548780487804876,62.90650406504065 41.15853658536585,63.36382113821138 41.76829268292683,63.77032520325203 42.3780487804878,64.17682926829268 43.03861788617886,64.53252032520325 43.699186991869915,64.9390243902439 44.359756097560975,65.2439024390244 45.07113821138211,65.59959349593495 45.78252032520325,65.85365853658537 46.49390243902439,66.10772357723577 47.30691056910569,66.36178861788618 48.06910569105691,66.5650406504065 48.83130081300813,66.76829268292683 49.74593495934959,66.97154471544715 50.609756097560975,67.1239837398374 51.47357723577235,67.27642276422765 52.38821138211382,67.3780487804878 53.201219512195124,67.3780487804878 54.11585365853659,67.3780487804878 55.03048780487805,67.3780487804878 55.84349593495935,67.32723577235772 56.65650406504065,67.17479674796748 57.46951219512195,66.97154471544715 58.28252032520325,66.76829268292683 59.09552845528455,66.61585365853658 59.90853658536585,66.36178861788618 60.61991869918699,66.10772357723577 61.33130081300813,65.80284552845528 61.99186991869919,65.39634146341463 62.60162601626016,64.98983739837398 63.16056910569105,64.53252032520325 63.71951219512195,64.02439024390243 64.22764227642276,63.5670731707317 64.73577235772358,63.05894308943089 65.2439024390244,62.449186991869915 65.70121951219512,61.890243902439025 66.10772357723577,61.33130081300813 66.5650406504065,60.670731707317074 66.869918699187,60.11178861788618 67.22560975609755,59.552845528455286" fill="none" stroke="black" stroke-width="0.6"></polyline><polyline points="67.22560975609755,59.552845528455286 67.58130081300813,58.99390243902439 67.83536585365853,58.485772357723576 68.03861788617886,57.97764227642276 68.29268292682927,57.418699186991866 68.4959349593496,56.91056910569105 68.64837398373983,56.30081300813008 68.80081300813008,55.6910569105691 68.90243902439025,55.08130081300813 69.05487804878048,54.420731707317074 69.15650406504065,53.709349593495936 69.20731707317073,53.09959349593496 69.3089430894309,52.4390243902439 69.35975609756098,51.77845528455284 69.35975609756098,51.168699186991866 69.41056910569105,50.55894308943089 69.41056910569105,49.84756097560975 69.35975609756098,49.1869918699187 69.2581300813008,48.52642276422764 69.15650406504065,47.86585365853659 69.0040650406504,47.15447154471545 68.80081300813008,46.44308943089431 68.59756097560975,45.73170731707317 68.34349593495935,45.07113821138211 68.08943089430895,44.359756097560975 67.83536585365853,43.59756097560975 67.53048780487805,42.886178861788615 67.27642276422765,42.17479674796748 66.92073170731707,41.46341463414634 66.61585365853658,40.802845528455286 66.26016260162602,40.142276422764226 65.85365853658537,39.48170731707317 65.44715447154472,38.82113821138211 64.98983739837398,38.16056910569105 64.53252032520325,37.5 64.02439024390243,36.83943089430894 63.516260162601625,36.229674796747965 62.95731707317073,35.61991869918699 62.39837398373984,35.11178861788618 61.83943089430894,34.552845528455286 61.28048780487805,34.146341463414636 60.72154471544715,33.739837398373986 60.11178861788618,33.333333333333336 59.5020325203252,33.02845528455285 58.892276422764226,32.72357723577236 58.28252032520325,32.418699186991866 57.672764227642276,32.16463414634146 57.012195121951216,31.910569105691057 56.35162601626016,31.65650406504065 55.792682926829265,31.504065040650406 55.18292682926829,31.351626016260163" fill="none" stroke="black" stroke-width="0.6"></polyline><polyline points="55.18292682926829,31.351626016260163 54.52235772357724,31.148373983739837 53.86178861788618,30.995934959349594 53.15040650406504,30.89430894308943 52.38821138211382,30.79268292682927 51.72764227642276,30.691056910569106 51.016260162601625,30.640243902439025 50.355691056910565,30.640243902439025 49.74593495934959,30.589430894308943 49.136178861788615,30.589430894308943 48.42479674796748,30.589430894308943 47.8150406504065,30.589430894308943 47.15447154471545,30.691056910569106 46.44308943089431,30.79268292682927 45.73170731707317,30.945121951219512 45.02032520325203,31.148373983739837 44.25813008130081,31.402439024390244 43.59756097560975,31.60569105691057 42.9369918699187,31.859756097560975 42.22560975609756,32.11382113821138 41.61585365853659,32.36788617886179 41.05691056910569,32.672764227642276 40.396341463414636,32.97764227642276 39.78658536585366,33.333333333333336 39.1260162601626,33.790650406504064 38.46544715447154,34.2479674796748 37.80487804878049,34.80691056910569 37.14430894308943,35.36585365853659 36.53455284552845,35.92479674796748 35.92479674796748,36.483739837398375 35.36585365853659,37.042682926829265 34.857723577235774,37.55081300813008 34.40040650406504,38.05894308943089 33.94308943089431,38.61788617886179 33.53658536585366,39.176829268292686 33.13008130081301,39.78658536585366 32.72357723577236,40.396341463414636 32.36788617886179,41.00609756097561 32.0630081300813,41.61585365853659 31.758130081300813,42.27642276422764 31.453252032520325,42.98780487804878 31.148373983739837,43.64837398373984 30.89430894308943,44.41056910569105 30.640243902439025,45.12195121951219 30.48780487804878,45.78252032520325 30.284552845528456,46.44308943089431 30.182926829268293,47.052845528455286 30.08130081300813,47.66260162601626 29.979674796747968,48.323170731707314 29.878048780487806,48.93292682926829 29.878048780487806,49.49186991869919" fill="none" stroke="black" stroke-width="0.6"></polyline><polyline points="29.878048780487806,49.49186991869919 29.878048780487806,50.15243902439024 29.878048780487806,50.86382113821138 29.878048780487806,51.47357723577235 29.878048780487806,52.1849593495935 29.979674796747968,52.896341463414636 30.03048780487805,53.607723577235774 30.132113821138212,54.36991869918699 30.284552845528456,55.08130081300813 30.38617886178862,55.74186991869919 30.538617886178862,56.453252032520325 30.640243902439025,57.11382113821138 30.84349593495935,57.825203252032516 30.995934959349594,58.58739837398374 31.19918699186992,59.298780487804876 31.453252032520325,60.0609756097561 31.70731707317073,60.8739837398374 32.012195121951216,61.636178861788615 32.266260162601625,62.39837398373984 32.6219512195122,63.262195121951216 32.97764227642276,64.07520325203252 33.333333333333336,64.88821138211382 33.739837398373986,65.7520325203252 34.146341463414636,66.46341463414635 34.552845528455286,67.1239837398374 34.959349593495936,67.83536585365853 35.36585365853659,68.4451219512195 35.8739837398374,69.05487804878048 36.38211382113821,69.71544715447155 36.83943089430894,70.27439024390243 37.34756097560975,70.78252032520325 37.855691056910565,71.34146341463415 38.41463414634146,71.84959349593495 38.97357723577235,72.40853658536585 39.583333333333336,72.91666666666667 40.19308943089431,73.3739837398374 40.853658536585364,73.83130081300813 41.5650406504065,74.28861788617886 42.22560975609756,74.64430894308943 42.9369918699187,75 43.64837398373984,75.30487804878048 44.30894308943089,75.5589430894309 45.07113821138211,75.86382113821138 45.833333333333336,76.0670731707317 46.59552845528455,76.3211382113821 47.357723577235774,76.47357723577235 48.11991869918699,76.67682926829268 48.88211382113821,76.77845528455285 49.69512195121951,76.880081300813 50.55894308943089,76.98170731707317 51.37195121951219,76.98170731707317" fill="none" stroke="black" stroke-width="0.6"></polyline><polyline points="51.37195121951219,76.98170731707317 52.1849593495935,76.98170731707317 52.9979674796748,76.98170731707317 53.8109756097561,76.93089430894308 54.573170731707314,76.82926829268293 55.386178861788615,76.67682926829268 56.14837398373984,76.52439024390243 56.91056910569105,76.3211382113821 57.672764227642276,76.0670731707317 58.43495934959349,75.8130081300813 59.146341463414636,75.5589430894309 59.90853658536585,75.2540650406504 60.61991869918699,75 61.28048780487805,74.7459349593496 61.99186991869919,74.39024390243902 62.60162601626016,74.03455284552845 63.21138211382114,73.67886178861788 63.77032520325203,73.22154471544715 64.32926829268293,72.8150406504065 64.88821138211382,72.40853658536585 65.44715447154472,72.0020325203252 65.90447154471545,71.59552845528455 66.41260162601625,71.13821138211382 66.92073170731707,70.73170731707317 67.3780487804878,70.32520325203252 67.88617886178862,69.86788617886178 68.29268292682927,69.41056910569105 68.80081300813008,68.90243902439025 69.2581300813008,68.34349593495935 69.66463414634146,67.83536585365853 70.1219512195122,67.27642276422765 70.57926829268293,66.71747967479675 70.9349593495935,66.20934959349593 71.39227642276423,65.70121951219512 71.79878048780488,65.09146341463415 72.20528455284553,64.58333333333333 72.5609756097561,64.02439024390243 73.01829268292683,63.46544715447154 73.3739837398374,62.95731707317073 73.72967479674797,62.34756097560975 74.08536585365853,61.78861788617886 74.39024390243902,61.229674796747965 74.64430894308943,60.670731707317074 74.94918699186992,60.16260162601626 75.15243902439025,59.70528455284553 75.30487804878048,59.298780487804876 75.5081300813008,58.84146341463415 75.60975609756098,58.38414634146341 75.71138211382113,57.92682926829268 75.8130081300813,57.418699186991866 75.86382113821138,56.91056910569105" fill="none" stroke="black" stroke-width="0.6"></polyline><polyline points="75.86382113821138,56.91056910569105 75.91463414634146,56.40243902439024 75.96544715447155,55.84349593495935 76.01626016260163,55.386178861788615 76.0670731707317,54.92886178861789 76.0670731707317,54.52235772357724 76.11788617886178,54.11585365853659 76.11788617886178,53.709349593495936 76.11788617886178,53.353658536585364 76.16869918699187,53.09959349593496 76.16869918699187,52.79471544715447 76.16869918699187,52.4390243902439 76.16869918699187,52.13414634146341 76.16869918699187,51.829268292682926 76.16869918699187,51.575203252032516 76.16869918699187,51.37195121951219 76.11788617886178,51.168699186991866 76.11788617886178,51.016260162601625 76.0670731707317,50.91463414634146 76.01626016260163,50.8130081300813 76.01626016260163,50.762195121951216 76.01626016260163,50.71138211382114 75.96544715447155,50.66056910569105 75.96544715447155,50.609756097560975 75.96544715447155,50.609756097560975 75.96544715447155,50.55894308943089 75.96544715447155,50.55894308943089 75.96544715447155,50.55894308943089 75.96544715447155,50.55894308943089 76.01626016260163,50.50813008130081 76.11788617886178,50.50813008130081" fill="none" stroke="black" stroke-width="0.6"></polyline></svg>