<svg height="100" width="100" preserveAspectRatio="xMidYMid meet"><polyline points="30.284552845528456,13.973577235772357 30.284552845528456,13.973577235772357 30.284552845528456,13.973577235772357 30.284552845528456,13.973577235772357 30.284552845528456,13.973577235772357 30.284552845528456,13.973577235772357 30.284552845528456,14.024390243902438 30.335365853658537,14.024390243902438 30.38617886178862,14.024390243902438 30.4369918699187,14.024390243902438 30.538617886178862,14.024390243902438 30.741869918699187,13.922764227642276 30.945121951219512,13.770325203252032 31.25,13.567073170731707 31.60569105691057,13.211382113821138 32.0630081300813,12.754065040650406 32.52032520325203,12.245934959349594 32.926829268292686,11.788617886178862 33.38414634146341,11.280487804878048 33.739837398373986,10.823170731707316 34.146341463414636,10.264227642276422 34.451219512195124,9.75609756097561 34.75609756097561,9.247967479674797 35.0609756097561,8.739837398373984 35.264227642276424,8.282520325203253 35.46747967479675,7.774390243902439 35.56910569105691,7.317073170731707 35.670731707317074,6.961382113821138 35.670731707317074,6.65650406504065 35.670731707317074,6.300813008130081 35.670731707317074,5.995934959349594 35.61991869918699,5.741869918699187 35.51829268292683,5.48780487804878 35.416666666666664,5.335365853658536 35.264227642276424,5.182926829268292 35.11178861788618,5.030487804878049 34.90853658536585,4.979674796747967 34.75609756097561,4.928861788617886 34.552845528455286,4.928861788617886 34.40040650406504,4.928861788617886 34.2479674796748,4.979674796747967 34.09552845528455,5.08130081300813 33.99390243902439,5.233739837398374 33.892276422764226,5.436991869918699 33.790650406504064,5.691056910569106 33.6890243902439,6.046747967479675 33.58739837398374,6.453252032520325 33.485772357723576,6.9105691056910565 33.4349593495935,7.367886178861789 33.333333333333336,7.876016260162602 33.23170731707317,8.485772357723578" fill="none" stroke="black" stroke-width="0.6"></polyline><polyline points="33.23170731707317,8.485772357723578 33.18089430894309,9.095528455284553 33.13008130081301,9.603658536585366 33.13008130081301,10.111788617886178 33.13008130081301,10.619918699186991 33.13008130081301,11.128048780487804 33.13008130081301,11.636178861788618 33.18089430894309,12.042682926829269 33.28252032520325,12.449186991869919 33.4349593495935,12.855691056910569 33.58739837398374,13.211382113821138 33.790650406504064,13.516260162601625 34.04471544715447,13.770325203252032 34.2479674796748,13.973577235772357 34.5020325203252,14.176829268292682 34.75609756097561,14.329268292682926 35.010162601626014,14.48170731707317 35.264227642276424,14.583333333333332 35.56910569105691,14.634146341463413 35.823170731707314,14.634146341463413 36.1280487804878,14.634146341463413 36.43292682926829,14.583333333333332 36.73780487804878,14.430894308943088 37.042682926829265,14.227642276422763 37.39837398373984,13.973577235772357 37.65243902439024,13.71951219512195 37.90650406504065,13.414634146341463 38.16056910569105,13.109756097560975 38.36382113821138,12.804878048780488 38.516260162601625,12.449186991869919 38.61788617886179,12.042682926829269 38.668699186991866,11.737804878048781 38.71951219512195,11.432926829268293 38.71951219512195,11.128048780487804 38.668699186991866,10.823170731707316 38.5670731707317,10.619918699186991 38.46544715447154,10.365853658536585 38.36382113821138,10.213414634146341 38.21138211382114,10.060975609756097 38.05894308943089,10.010162601626016 37.90650406504065,9.959349593495935 37.703252032520325,9.959349593495935 37.5,9.959349593495935 37.296747967479675,10.010162601626016 37.042682926829265,10.16260162601626 36.890243902439025,10.365853658536585 36.73780487804878,10.619918699186991 36.58536585365854,10.97560975609756 36.483739837398375,11.331300813008129 36.38211382113821,11.737804878048781 36.33130081300813,12.195121951219512" fill="none" stroke="black" stroke-width="0.6"></polyline><polyline points="36.33130081300813,12.195121951219512 36.33130081300813,12.652439024390244 36.38211382113821,13.058943089430894 36.53455284552845,13.465447154471544 36.73780487804878,13.770325203252032 36.99186991869919,14.024390243902438 37.24593495934959,14.227642276422763 37.449186991869915,14.430894308943088 37.7540650406504,14.583333333333332 38.109756097560975,14.786585365853659 38.516260162601625,14.888211382113822" fill="none" stroke="black" stroke-width="0.6"></polyline><polyline points="29.0650406504065,32.97764227642276 29.166666666666664,32.97764227642276 29.217479674796746,32.926829268292686 29.31910569105691,32.8760162601626 29.471544715447155,32.77439024390244 29.67479674796748,32.57113821138211 29.928861788617887,32.3170731707317 30.284552845528456,31.961382113821138 30.640243902439025,31.60569105691057 30.945121951219512,31.25 31.30081300813008,30.84349593495935 31.70731707317073,30.4369918699187 32.012195121951216,29.979674796747968 32.3170731707317,29.471544715447155 32.6219512195122,28.96341463414634 32.926829268292686,28.506097560975608 33.13008130081301,28.048780487804876 33.333333333333336,27.540650406504064 33.485772357723576,27.083333333333332 33.63821138211382,26.676829268292682 33.6890243902439,26.321138211382113 33.6890243902439,26.016260162601625 33.6890243902439,25.711382113821138 33.58739837398374,25.45731707317073 33.4349593495935,25.254065040650406 33.23170731707317,25.101626016260163 33.02845528455285,25 32.82520325203252,24.94918699186992 32.6219512195122,24.94918699186992 32.3170731707317,24.94918699186992 32.0630081300813,25.05081300813008 31.808943089430894,25.254065040650406 31.504065040650406,25.508130081300813 31.25,25.8130081300813 30.995934959349594,26.16869918699187 30.741869918699187,26.57520325203252 30.589430894308943,26.98170731707317 30.4369918699187,27.38821138211382 30.335365853658537,27.896341463414632 30.335365853658537,28.404471544715445 30.335365853658537,28.912601626016258 30.38617886178862,29.471544715447155 30.538617886178862,30.03048780487805 30.691056910569106,30.538617886178862 30.945121951219512,31.046747967479675 31.19918699186992,31.453252032520325 31.504065040650406,31.808943089430894 31.859756097560975,32.16463414634146 32.16463414634146,32.46951219512195 32.6219512195122,32.72357723577236 32.97764227642276,32.926829268292686" fill="none" stroke="black" stroke-width="0.6"></polyline><polyline points="32.97764227642276,32.926829268292686 33.38414634146341,33.079268292682926 33.84146341463415,33.23170731707317 34.2479674796748,33.28252032520325 34.70528455284553,33.333333333333336 35.16260162601626,33.333333333333336 35.61991869918699,33.18089430894309 36.077235772357724,32.97764227642276 36.53455284552845,32.672764227642276 36.9410569105691,32.36788617886179 37.34756097560975,31.961382113821138 37.7540650406504,31.504065040650406 38.05894308943089,31.046747967479675 38.36382113821138,30.640243902439025 38.61788617886179,30.132113821138212 38.77032520325203,29.725609756097562 38.82113821138211,29.369918699186993 38.82113821138211,29.01422764227642 38.77032520325203,28.810975609756095 38.61788617886179,28.65853658536585 38.41463414634146,28.55691056910569 38.21138211382114,28.55691056910569 37.90650406504065,28.55691056910569 37.55081300813008,28.60772357723577 37.24593495934959,28.810975609756095 36.9410569105691,29.0650406504065 36.636178861788615,29.369918699186993 36.33130081300813,29.725609756097562 36.1280487804878,30.132113821138212 35.8739837398374,30.640243902439025 35.77235772357724,31.097560975609756 35.670731707317074,31.554878048780488 35.670731707317074,31.961382113821138 35.77235772357724,32.266260162601625 35.92479674796748,32.57113821138211 36.1280487804878,32.77439024390244 36.43292682926829,32.97764227642276 36.73780487804878,33.13008130081301 37.09349593495935,33.28252032520325 37.449186991869915,33.38414634146341 37.90650406504065,33.53658536585366" fill="none" stroke="black" stroke-width="0.6"></polyline><polyline points="28.709349593495933,53.607723577235774 28.709349593495933,53.607723577235774 28.709349593495933,53.607723577235774 28.709349593495933,53.607723577235774 28.810975609756095,53.607723577235774 29.01422764227642,53.55691056910569 29.369918699186993,53.40447154471545 29.827235772357724,53.09959349593496 30.38617886178862,52.69308943089431 30.945121951219512,52.1849593495935 31.453252032520325,51.6260162601626 31.859756097560975,51.0670731707317 32.3170731707317,50.40650406504065 32.72357723577236,49.74593495934959 33.079268292682926,49.08536585365854 33.38414634146341,48.52642276422764 33.63821138211382,47.96747967479675 33.790650406504064,47.459349593495936 33.892276422764226,47.0020325203252 33.892276422764226,46.54471544715447 33.892276422764226,46.239837398373986 33.739837398373986,45.9349593495935 33.53658536585366,45.78252032520325 33.333333333333336,45.68089430894309 33.079268292682926,45.63008130081301 32.77439024390244,45.63008130081301 32.46951219512195,45.68089430894309 32.16463414634146,45.833333333333336 31.808943089430894,46.03658536585366 31.504065040650406,46.34146341463415 31.148373983739837,46.646341463414636 30.79268292682927,47.052845528455286 30.538617886178862,47.510162601626014 30.233739837398375,48.06910569105691 30.03048780487805,48.6280487804878 29.878048780487806,49.1869918699187 29.776422764227643,49.84756097560975 29.776422764227643,50.40650406504065 29.776422764227643,50.96544715447154 29.878048780487806,51.47357723577235 29.979674796747968,51.981707317073166 30.182926829268293,52.38821138211382 30.4369918699187,52.84552845528455 30.691056910569106,53.09959349593496 31.046747967479675,53.353658536585364 31.453252032520325,53.55691056910569 31.859756097560975,53.709349593495936 32.3170731707317,53.8109756097561 32.82520325203252,53.86178861788618 33.28252032520325,53.86178861788618 33.790650406504064,53.709349593495936" fill="none" stroke="black" stroke-width="0.6"></polyline><polyline points="33.790650406504064,53.709349593495936 34.34959349593496,53.50609756097561 34.857723577235774,53.201219512195124 35.3150406504065,52.896341463414636 35.823170731707314,52.489837398373986 36.229674796747965,52.083333333333336 36.636178861788615,51.6260162601626 36.99186991869919,51.11788617886179 37.24593495934959,50.66056910569105 37.39837398373984,50.30487804878049 37.5,49.949186991869915 37.5,49.74593495934959 37.449186991869915,49.59349593495935 37.34756097560975,49.49186991869919 37.14430894308943,49.4410569105691 36.9410569105691,49.4410569105691 36.6869918699187,49.49186991869919 36.43292682926829,49.69512195121951 36.1280487804878,49.949186991869915 35.823170731707314,50.2540650406504 35.51829268292683,50.609756097560975 35.21341463414634,50.96544715447154 34.959349593495936,51.422764227642276 34.75609756097561,51.880081300813 34.603658536585364,52.38821138211382 34.552845528455286,52.84552845528455 34.552845528455286,53.201219512195124 34.65447154471545,53.45528455284553 34.80691056910569,53.65853658536585 35.0609756097561,53.8109756097561 35.36585365853659,53.91260162601626" fill="none" stroke="black" stroke-width="0.6"></polyline><polyline points="28.404471544715445,74.33943089430895 28.455284552845526,74.33943089430895 28.455284552845526,74.33943089430895 28.506097560975608,74.28861788617886 28.65853658536585,74.1869918699187 28.912601626016258,73.98373983739837 29.31910569105691,73.6280487804878 29.878048780487806,73.0691056910569 30.48780487804878,72.35772357723577 31.097560975609756,71.54471544715447 31.65650406504065,70.68089430894308 32.266260162601625,69.8170731707317 32.77439024390244,69.0040650406504 33.23170731707317,68.1910569105691 33.6890243902439,67.47967479674797 34.04471544715447,66.71747967479675 34.298780487804876,66.10772357723577 34.451219512195124,65.54878048780488 34.552845528455286,65.09146341463415 34.552845528455286,64.6849593495935 34.552845528455286,64.380081300813 34.40040650406504,64.17682926829268 34.2479674796748,64.02439024390243 34.04471544715447,63.97357723577235 33.84146341463415,63.97357723577235 33.58739837398374,63.97357723577235 33.28252032520325,64.02439024390243 33.02845528455285,64.22764227642276 32.77439024390244,64.53252032520325 32.418699186991866,64.88821138211382 32.16463414634146,65.34552845528455 31.859756097560975,65.85365853658537 31.554878048780488,66.46341463414635 31.30081300813008,67.02235772357723 31.046747967479675,67.6829268292683 30.84349593495935,68.39430894308943 30.741869918699187,69.05487804878048 30.691056910569106,69.76626016260163 30.691056910569106,70.47764227642276 30.691056910569106,71.03658536585365 30.79268292682927,71.54471544715447 30.89430894308943,72.10365853658537 31.046747967479675,72.51016260162602 31.25,72.91666666666667 31.453252032520325,73.22154471544715 31.70731707317073,73.52642276422765 31.961382113821138,73.78048780487805 32.266260162601625,74.03455284552845 32.57113821138211,74.1869918699187 32.8760162601626,74.28861788617886 33.23170731707317,74.33943089430895" fill="none" stroke="black" stroke-width="0.6"></polyline><polyline points="33.23170731707317,74.33943089430895 33.58739837398374,74.33943089430895 33.94308943089431,74.33943089430895 34.34959349593496,74.1869918699187 34.70528455284553,73.98373983739837 35.0609756097561,73.72967479674797 35.416666666666664,73.3739837398374 35.77235772357724,73.01829268292683 36.1280487804878,72.66260162601625 36.483739837398375,72.2560975609756 36.78861788617886,71.84959349593495 37.042682926829265,71.4430894308943 37.296747967479675,70.98577235772358 37.449186991869915,70.57926829268293 37.60162601626016,70.17276422764228 37.65243902439024,69.8170731707317 37.703252032520325,69.51219512195122 37.703252032520325,69.20731707317073 37.703252032520325,68.95325203252033 37.60162601626016,68.75 37.5,68.64837398373983 37.34756097560975,68.54674796747967 37.19512195121951,68.54674796747967 37.042682926829265,68.54674796747967 36.890243902439025,68.59756097560975 36.73780487804878,68.69918699186992 36.58536585365854,68.90243902439025 36.38211382113821,69.15650406504065 36.229674796747965,69.46138211382113 36.02642276422764,69.8170731707317 35.8739837398374,70.27439024390243 35.72154471544715,70.68089430894308 35.61991869918699,71.1890243902439 35.51829268292683,71.7479674796748 35.46747967479675,72.2560975609756 35.46747967479675,72.71341463414635 35.51829268292683,73.0691056910569 35.61991869918699,73.3739837398374 35.823170731707314,73.57723577235772 36.077235772357724,73.72967479674797 36.43292682926829,73.83130081300813 36.78861788617886,73.8821138211382 37.042682926829265,73.8821138211382" fill="none" stroke="black" stroke-width="0.6"></polyline><polyline points="30.335365853658537,93.69918699186992 30.335365853658537,93.75 30.284552845528456,93.90243902439025 30.233739837398375,94.0040650406504 30.233739837398375,94.10569105691057 30.233739837398375,94.20731707317073 30.284552845528456,94.20731707317073 30.4369918699187,94.20731707317073 30.589430894308943,94.15650406504065 30.79268292682927,94.0040650406504 31.046747967479675,93.80081300813008 31.351626016260163,93.4959349593496 31.70731707317073,93.14024390243902 32.11382113821138,92.6321138211382 32.57113821138211,92.07317073170732 33.079268292682926,91.46341463414635 33.58739837398374,90.70121951219512 34.146341463414636,89.98983739837398 34.603658536585364,89.32926829268293 34.959349593495936,88.71951219512195 35.3150406504065,88.10975609756098 35.61991869918699,87.5 35.92479674796748,86.9410569105691 36.1280487804878,86.33130081300813 36.33130081300813,85.82317073170732 36.483739837398375,85.3150406504065 36.58536585365854,84.8069105691057 36.636178861788615,84.40040650406503 36.6869918699187,84.14634146341463 36.636178861788615,83.9430894308943 36.53455284552845,83.84146341463415 36.43292682926829,83.73983739837398 36.33130081300813,83.6890243902439 36.17886178861789,83.6890243902439 35.97560975609756,83.6890243902439 35.823170731707314,83.73983739837398 35.61991869918699,83.89227642276423 35.36585365853659,84.14634146341463 35.16260162601626,84.45121951219512 34.959349593495936,84.85772357723577 34.70528455284553,85.3150406504065 34.5020325203252,85.72154471544715 34.298780487804876,86.17886178861788 34.04471544715447,86.73780487804878 33.892276422764226,87.2459349593496 33.790650406504064,87.7540650406504 33.63821138211382,88.36382113821138 33.58739837398374,88.92276422764228 33.53658536585366,89.53252032520325 33.485772357723576,90.09146341463415 33.485772357723576,90.54878048780488" fill="none" stroke="black" stroke-width="0.6"></polyline><polyline points="33.485772357723576,90.54878048780488 33.53658536585366,91.0060975609756 33.63821138211382,91.41260162601625 33.790650406504064,91.71747967479675 33.94308943089431,92.02235772357723 34.146341463414636,92.32723577235772 34.34959349593496,92.53048780487805 34.552845528455286,92.6829268292683 34.80691056910569,92.88617886178862 35.0609756097561,93.03861788617886 35.3150406504065,93.08943089430895 35.61991869918699,93.08943089430895 35.92479674796748,93.08943089430895 36.28048780487805,92.98780487804878 36.58536585365854,92.83536585365853 36.890243902439025,92.6321138211382 37.24593495934959,92.42886178861788 37.55081300813008,92.1239837398374 37.90650406504065,91.8191056910569 38.21138211382114,91.41260162601625 38.5670731707317,90.95528455284553 38.87195121951219,90.4979674796748 39.1260162601626,89.98983739837398 39.38008130081301,89.43089430894308 39.53252032520325,88.92276422764228 39.6849593495935,88.46544715447155 39.735772357723576,88.0589430894309 39.735772357723576,87.80487804878048 39.735772357723576,87.65243902439025 39.63414634146341,87.60162601626016 39.53252032520325,87.60162601626016 39.329268292682926,87.60162601626016 39.1260162601626,87.7540650406504 38.87195121951219,87.95731707317073 38.61788617886179,88.3130081300813 38.36382113821138,88.71951219512195 38.109756097560975,89.1260162601626 37.855691056910565,89.58333333333333 37.60162601626016,90.09146341463415 37.39837398373984,90.59959349593495 37.296747967479675,91.15853658536585 37.24593495934959,91.5650406504065 37.296747967479675,91.92073170731707 37.5,92.1239837398374 37.80487804878049,92.32723577235772 38.21138211382114,92.3780487804878 38.77032520325203,92.3780487804878" fill="none" stroke="black" stroke-width="0.6"></polyline></svg>