<svg height="100" width="100" preserveAspectRatio="xMidYMid meet"><polyline points="29.878048780487806,13.160569105691057 29.827235772357724,13.160569105691057 29.827235772357724,13.160569105691057 29.776422764227643,13.160569105691057 29.725609756097562,13.109756097560975 29.725609756097562,13.109756097560975 29.67479674796748,13.109756097560975 29.67479674796748,13.109756097560975 29.6239837398374,13.160569105691057" fill="none" stroke="black" stroke-width="0.6"></polyline><polyline points="29.01422764227642,13.973577235772357 28.96341463414634,14.024390243902438 28.912601626016258,14.07520325203252 28.861788617886177,14.1260162601626 28.810975609756095,14.176829268292682 28.760162601626014,14.227642276422763 28.760162601626014,14.227642276422763 28.760162601626014,14.278455284552845 28.760162601626014,14.278455284552845 28.760162601626014,14.278455284552845 28.810975609756095,14.278455284552845 28.912601626016258,14.278455284552845 29.0650406504065,14.278455284552845 29.217479674796746,14.227642276422763 29.420731707317074,14.176829268292682 29.6239837398374,14.07520325203252 29.928861788617887,13.922764227642276 30.233739837398375,13.770325203252032 30.640243902439025,13.465447154471544 31.097560975609756,13.109756097560975 31.554878048780488,12.703252032520325 31.961382113821138,12.296747967479675 32.36788617886179,11.839430894308943 32.72357723577236,11.432926829268293 33.02845528455285,10.97560975609756 33.38414634146341,10.467479674796747 33.63821138211382,9.959349593495935 33.84146341463415,9.451219512195122 34.04471544715447,8.99390243902439 34.197154471544714,8.58739837398374 34.298780487804876,8.079268292682926 34.34959349593496,7.571138211382114 34.34959349593496,7.215447154471544 34.34959349593496,6.808943089430894 34.34959349593496,6.453252032520325 34.2479674796748,6.097560975609756 34.09552845528455,5.741869918699187 33.94308943089431,5.48780487804878 33.790650406504064,5.284552845528455 33.58739837398374,5.132113821138211 33.38414634146341,5.030487804878049 33.18089430894309,4.979674796747967 32.926829268292686,4.928861788617886 32.77439024390244,4.928861788617886 32.57113821138211,4.979674796747967 32.36788617886179,5.08130081300813 32.16463414634146,5.233739837398374 31.961382113821138,5.436991869918699 31.758130081300813,5.741869918699187 31.554878048780488,6.097560975609756 31.351626016260163,6.504065040650406" fill="none" stroke="black" stroke-width="0.6"></polyline><polyline points="31.351626016260163,6.504065040650406 31.148373983739837,6.961382113821138 30.995934959349594,7.41869918699187 30.89430894308943,7.926829268292683 30.741869918699187,8.536585365853659 30.691056910569106,9.095528455284553 30.640243902439025,9.603658536585366 30.589430894308943,10.16260162601626 30.589430894308943,10.670731707317072 30.589430894308943,11.128048780487804 30.589430894308943,11.636178861788618 30.691056910569106,11.991869918699187 30.84349593495935,12.347560975609756 30.995934959349594,12.804878048780488 31.148373983739837,13.160569105691057 31.402439024390244,13.465447154471544 31.65650406504065,13.71951219512195 31.961382113821138,13.871951219512194 32.266260162601625,14.024390243902438 32.6219512195122,14.176829268292682 33.02845528455285,14.278455284552845 33.4349593495935,14.380081300813007 33.892276422764226,14.380081300813007 34.34959349593496,14.380081300813007 34.857723577235774,14.329268292682926 35.36585365853659,14.227642276422763 35.823170731707314,14.024390243902438 36.38211382113821,13.770325203252032 36.890243902439025,13.516260162601625 37.34756097560975,13.262195121951219 37.80487804878049,12.90650406504065 38.3130081300813,12.449186991869919 38.77032520325203,11.941056910569106 39.22764227642276,11.432926829268293 39.63414634146341,10.924796747967479 39.989837398373986,10.365853658536585 40.29471544715447,9.75609756097561 40.59959349593496,9.146341463414634 40.802845528455286,8.58739837398374 40.95528455284553,7.977642276422764 41.05691056910569,7.41869918699187 41.107723577235774,6.9105691056910565 41.107723577235774,6.453252032520325 41.107723577235774,5.945121951219512 41.05691056910569,5.48780487804878 40.90447154471545,5.08130081300813 40.7520325203252,4.776422764227642 40.548780487804876,4.522357723577236 40.34552845528455,4.2682926829268295 40.09146341463415,4.115853658536586 39.83739837398374,4.014227642276422" fill="none" stroke="black" stroke-width="0.6"></polyline><polyline points="39.83739837398374,4.014227642276422 39.583333333333336,3.9634146341463414 39.27845528455285,3.9634146341463414 39.02439024390244,4.014227642276422 38.71951219512195,4.217479674796748 38.41463414634146,4.471544715447155 38.16056910569105,4.776422764227642 37.855691056910565,5.182926829268292 37.55081300813008,5.640243902439024 37.296747967479675,6.199186991869919 37.09349593495935,6.808943089430894 36.890243902439025,7.367886178861789 36.78861788617886,8.028455284552845 36.6869918699187,8.739837398373984 36.636178861788615,9.40040650406504 36.636178861788615,10.010162601626016 36.636178861788615,10.670731707317072 36.636178861788615,11.229674796747966 36.6869918699187,11.788617886178862 36.78861788617886,12.347560975609756 36.9410569105691,12.804878048780488 37.19512195121951,13.211382113821138 37.5,13.617886178861788 37.80487804878049,13.871951219512194 38.21138211382114,14.07520325203252 38.71951219512195,14.278455284552845 39.176829268292686,14.329268292682926 39.735772357723576,14.380081300813007 40.34552845528455,14.380081300813007 40.95528455284553,14.278455284552845 41.61585365853659,14.07520325203252 42.327235772357724,13.871951219512194 42.98780487804878,13.567073170731707 43.64837398373984,13.211382113821138 44.359756097560975,12.804878048780488 44.96951219512195,12.296747967479675 45.579268292682926,11.737804878048781 46.13821138211382,11.178861788617885 46.646341463414636,10.619918699186991 47.052845528455286,9.959349593495935 47.40853658536585,9.40040650406504 47.66260162601626,8.841463414634147 47.86585365853659,8.231707317073171 47.96747967479675,7.571138211382114 48.06910569105691,7.012195121951219 48.11991869918699,6.402439024390244 48.11991869918699,5.84349593495935 48.11991869918699,5.3861788617886175 48.06910569105691,5.030487804878049 47.96747967479675,4.776422764227642 47.8150406504065,4.623983739837398" fill="none" stroke="black" stroke-width="0.6"></polyline><polyline points="47.8150406504065,4.623983739837398 47.66260162601626,4.420731707317073 47.40853658536585,4.319105691056911 47.20528455284553,4.217479674796748 46.951219512195124,4.217479674796748 46.697154471544714,4.217479674796748 46.44308943089431,4.2682926829268295 46.1890243902439,4.471544715447155 45.88414634146341,4.67479674796748 45.63008130081301,5.030487804878049 45.325203252032516,5.436991869918699 44.96951219512195,5.945121951219512 44.71544715447154,6.504065040650406 44.46138211382114,7.0630081300813 44.25813008130081,7.723577235772358 44.105691056910565,8.384146341463415 43.953252032520325,9.095528455284553 43.85162601626016,9.75609756097561 43.80081300813008,10.365853658536585 43.80081300813008,11.026422764227641 43.80081300813008,11.585365853658537 43.85162601626016,12.09349593495935 43.953252032520325,12.601626016260163 44.105691056910565,13.058943089430894 44.359756097560975,13.465447154471544 44.61382113821138,13.871951219512194 44.86788617886179,14.07520325203252 45.172764227642276,14.329268292682926 45.47764227642276,14.53252032520325 45.78252032520325,14.684959349593496 46.08739837398374,14.83739837398374 46.392276422764226,15.040650406504065 46.697154471544714,15.142276422764228 46.951219512195124,15.294715447154472 47.25609756097561,15.447154471544716 47.357723577235774,15.548780487804878" fill="none" stroke="black" stroke-width="0.6"></polyline><polyline points="27.591463414634145,33.739837398373986 27.591463414634145,33.739837398373986 27.591463414634145,33.739837398373986 27.642276422764226,33.6890243902439 27.693089430894307,33.63821138211382 27.79471544715447,33.58739837398374 27.997967479674795,33.485772357723576 28.2520325203252,33.333333333333336 28.60772357723577,33.079268292682926 29.01422764227642,32.72357723577236 29.471544715447155,32.3170731707317 29.928861788617887,31.808943089430894 30.38617886178862,31.19918699186992 30.79268292682927,30.640243902439025 31.148373983739837,30.03048780487805 31.554878048780488,29.31910569105691 31.859756097560975,28.709349593495933 32.11382113821138,28.099593495934958 32.3170731707317,27.4390243902439 32.418699186991866,26.880081300813007 32.52032520325203,26.321138211382113 32.52032520325203,25.76219512195122 32.46951219512195,25.304878048780488 32.36788617886179,24.898373983739837 32.16463414634146,24.59349593495935 31.961382113821138,24.441056910569106 31.70731707317073,24.288617886178862 31.453252032520325,24.23780487804878 31.148373983739837,24.23780487804878 30.89430894308943,24.288617886178862 30.589430894308943,24.441056910569106 30.284552845528456,24.64430894308943 29.979674796747968,25 29.67479674796748,25.40650406504065 29.369918699186993,25.914634146341463 29.166666666666664,26.473577235772357 28.912601626016258,27.083333333333332 28.810975609756095,27.693089430894307 28.760162601626014,28.353658536585364 28.709349593495933,29.115853658536583 28.709349593495933,29.776422764227643 28.810975609756095,30.48780487804878 28.96341463414634,31.148373983739837 29.115853658536583,31.65650406504065 29.31910569105691,32.16463414634146 29.573170731707318,32.672764227642276 29.827235772357724,33.02845528455285 30.08130081300813,33.38414634146341 30.4369918699187,33.63821138211382 30.741869918699187,33.84146341463415 31.097560975609756,33.99390243902439" fill="none" stroke="black" stroke-width="0.6"></polyline><polyline points="31.097560975609756,33.99390243902439 31.554878048780488,34.04471544715447 31.961382113821138,34.04471544715447 32.36788617886179,33.99390243902439 32.8760162601626,33.790650406504064 33.333333333333336,33.53658536585366 33.84146341463415,33.23170731707317 34.40040650406504,32.77439024390244 34.90853658536585,32.266260162601625 35.46747967479675,31.65650406504065 36.02642276422764,31.046747967479675 36.58536585365854,30.38617886178862 37.14430894308943,29.6239837398374 37.65243902439024,28.861788617886177 38.109756097560975,28.099593495934958 38.5670731707317,27.33739837398374 38.922764227642276,26.57520325203252 39.22764227642276,25.914634146341463 39.43089430894309,25.304878048780488 39.53252032520325,24.796747967479675 39.583333333333336,24.390243902439025 39.583333333333336,24.034552845528456 39.53252032520325,23.729674796747968 39.43089430894309,23.475609756097562 39.22764227642276,23.323170731707318 39.02439024390244,23.221544715447155 38.82113821138211,23.170731707317074 38.516260162601625,23.170731707317074 38.21138211382114,23.221544715447155 37.90650406504065,23.42479674796748 37.55081300813008,23.678861788617887 37.19512195121951,24.034552845528456 36.83943089430894,24.390243902439025 36.43292682926829,24.898373983739837 36.1280487804878,25.35569105691057 35.77235772357724,25.86382113821138 35.46747967479675,26.524390243902438 35.264227642276424,27.083333333333332 35.11178861788618,27.693089430894307 34.959349593495936,28.404471544715445 34.90853658536585,29.01422764227642 34.90853658536585,29.6239837398374 34.959349593495936,30.284552845528456 35.0609756097561,30.84349593495935 35.264227642276424,31.351626016260163 35.51829268292683,31.808943089430894 35.77235772357724,32.21544715447154 36.1280487804878,32.57113821138211 36.483739837398375,32.926829268292686 36.890243902439025,33.18089430894309 37.296747967479675,33.333333333333336" fill="none" stroke="black" stroke-width="0.6"></polyline><polyline points="37.296747967479675,33.333333333333336 37.7540650406504,33.485772357723576 38.21138211382114,33.53658536585366 38.71951219512195,33.53658536585366 39.27845528455285,33.485772357723576 39.83739837398374,33.333333333333336 40.396341463414636,33.079268292682926 40.95528455284553,32.82520325203252 41.514227642276424,32.46951219512195 42.073170731707314,32.012195121951216 42.58130081300813,31.504065040650406 43.08943089430894,31.046747967479675 43.59756097560975,30.48780487804878 44.05487804878049,29.827235772357724 44.46138211382114,29.166666666666664 44.8170731707317,28.55691056910569 45.12195121951219,27.896341463414632 45.325203252032516,27.286585365853657 45.47764227642276,26.676829268292682 45.579268292682926,26.117886178861788 45.63008130081301,25.609756097560975 45.63008130081301,25.152439024390244 45.52845528455285,24.796747967479675 45.3760162601626,24.59349593495935 45.22357723577235,24.441056910569106 45.02032520325203,24.288617886178862 44.766260162601625,24.1869918699187 44.512195121951216,24.1869918699187 44.20731707317073,24.1869918699187 43.90243902439024,24.1869918699187 43.59756097560975,24.339430894308943 43.292682926829265,24.491869918699187 42.98780487804878,24.745934959349594 42.68292682926829,25.101626016260163 42.327235772357724,25.508130081300813 42.073170731707314,26.016260162601625 41.81910569105691,26.524390243902438 41.5650406504065,27.083333333333332 41.41260162601626,27.693089430894307 41.260162601626014,28.404471544715445 41.15853658536585,29.217479674796746 41.05691056910569,29.979674796747968 41.05691056910569,30.79268292682927 41.05691056910569,31.453252032520325 41.15853658536585,32.0630081300813 41.3109756097561,32.672764227642276 41.514227642276424,33.13008130081301 41.71747967479675,33.53658536585366 41.97154471544715,33.94308943089431 42.22560975609756,34.197154471544714 42.58130081300813,34.451219512195124" fill="none" stroke="black" stroke-width="0.6"></polyline><polyline points="42.58130081300813,34.451219512195124 42.9369918699187,34.70528455284553 43.34349593495935,34.857723577235774" fill="none" stroke="black" stroke-width="0.6"></polyline><polyline points="28.506097560975608,53.048780487804876 28.60772357723577,52.947154471544714 28.810975609756095,52.79471544715447 29.115853658536583,52.540650406504064 29.471544715447155,52.235772357723576 29.827235772357724,51.880081300813 30.233739837398375,51.37195121951219 30.589430894308943,50.91463414634146 30.945121951219512,50.40650406504065 31.351626016260163,49.796747967479675 31.65650406504065,49.136178861788615 32.012195121951216,48.42479674796748 32.36788617886179,47.71341463414634 32.6219512195122,47.0020325203252 32.82520325203252,46.34146341463415 32.97764227642276,45.63008130081301 33.13008130081301,45.02032520325203 33.18089430894309,44.46138211382114 33.18089430894309,43.953252032520325 33.18089430894309,43.546747967479675 33.079268292682926,43.1910569105691 32.926829268292686,42.886178861788615 32.77439024390244,42.733739837398375 32.6219512195122,42.63211382113821 32.418699186991866,42.53048780487805 32.21544715447154,42.53048780487805 31.961382113821138,42.58130081300813 31.70731707317073,42.733739837398375 31.453252032520325,42.98780487804878 31.148373983739837,43.34349593495935 30.89430894308943,43.80081300813008 30.640243902439025,44.25813008130081 30.38617886178862,44.8170731707317 30.182926829268293,45.42682926829268 30.03048780487805,46.08739837398374 29.878048780487806,46.798780487804876 29.827235772357724,47.66260162601626 29.776422764227643,48.52642276422764 29.827235772357724,49.28861788617886 29.928861788617887,50.10162601626016 30.08130081300813,50.71138211382114 30.284552845528456,51.21951219512195 30.48780487804878,51.67682926829268 30.741869918699187,52.083333333333336 31.046747967479675,52.4390243902439 31.351626016260163,52.69308943089431 31.70731707317073,52.84552845528455 32.11382113821138,52.947154471544714 32.6219512195122,52.947154471544714 33.079268292682926,52.947154471544714 33.58739837398374,52.84552845528455" fill="none" stroke="black" stroke-width="0.6"></polyline><polyline points="33.58739837398374,52.84552845528455 34.146341463414636,52.642276422764226 34.65447154471545,52.4390243902439 35.21341463414634,52.083333333333336 35.77235772357724,51.72764227642276 36.33130081300813,51.27032520325203 36.83943089430894,50.762195121951216 37.39837398373984,50.2540650406504 37.90650406504065,49.69512195121951 38.36382113821138,49.08536585365854 38.82113821138211,48.42479674796748 39.22764227642276,47.8150406504065 39.583333333333336,47.103658536585364 39.88821138211382,46.44308943089431 40.142276422764226,45.78252032520325 40.396341463414636,45.07113821138211 40.548780487804876,44.46138211382114 40.701219512195124,43.90243902439024 40.802845528455286,43.292682926829265 40.853658536585364,42.78455284552845 40.853658536585364,42.27642276422764 40.853658536585364,41.86991869918699 40.853658536585364,41.5650406504065 40.7520325203252,41.3109756097561 40.59959349593496,41.107723577235774 40.4979674796748,41.00609756097561 40.29471544715447,40.95528455284553 40.09146341463415,40.95528455284553 39.88821138211382,41.00609756097561 39.6849593495935,41.15853658536585 39.38008130081301,41.46341463414634 39.1260162601626,41.76829268292683 38.87195121951219,42.17479674796748 38.5670731707317,42.68292682926829 38.3130081300813,43.1910569105691 38.05894308943089,43.80081300813008 37.80487804878049,44.46138211382114 37.60162601626016,45.172764227642276 37.449186991869915,45.88414634146341 37.296747967479675,46.646341463414636 37.24593495934959,47.25609756097561 37.19512195121951,47.916666666666664 37.19512195121951,48.577235772357724 37.19512195121951,49.03455284552845 37.296747967479675,49.542682926829265 37.449186991869915,50.05081300813008 37.60162601626016,50.50813008130081 37.80487804878049,50.86382113821138 38.109756097560975,51.27032520325203 38.36382113821138,51.52439024390244 38.668699186991866,51.829268292682926" fill="none" stroke="black" stroke-width="0.6"></polyline><polyline points="38.668699186991866,51.829268292682926 39.02439024390244,52.083333333333336 39.38008130081301,52.235772357723576 39.735772357723576,52.4390243902439 40.142276422764226,52.59146341463415 40.548780487804876,52.74390243902439 40.95528455284553,52.79471544715447 41.36178861788618,52.84552845528455 41.76829268292683,52.896341463414636 42.22560975609756,52.84552845528455 42.68292682926829,52.74390243902439 43.140243902439025,52.540650406504064 43.546747967479675,52.28658536585366 44.0040650406504,51.981707317073166 44.41056910569105,51.6260162601626 44.86788617886179,51.168699186991866 45.325203252032516,50.66056910569105 45.73170731707317,50.15243902439024 46.13821138211382,49.59349593495935 46.54471544715447,48.93292682926829 46.90040650406504,48.27235772357724 47.25609756097561,47.5609756097561 47.5609756097561,46.84959349593496 47.8150406504065,46.290650406504064 48.01829268292683,45.73170731707317 48.11991869918699,45.172764227642276 48.22154471544715,44.61382113821138 48.27235772357724,44.105691056910565 48.323170731707314,43.699186991869915 48.323170731707314,43.34349593495935 48.27235772357724,42.98780487804878 48.11991869918699,42.68292682926829 48.01829268292683,42.479674796747965 47.8150406504065,42.327235772357724 47.61178861788618,42.17479674796748 47.40853658536585,42.1239837398374 47.20528455284553,42.1239837398374 47.0020325203252,42.1239837398374 46.798780487804876,42.1239837398374 46.54471544715447,42.27642276422764 46.34146341463415,42.479674796747965 46.08739837398374,42.78455284552845 45.833333333333336,43.1910569105691 45.63008130081301,43.64837398373984 45.3760162601626,44.105691056910565 45.172764227642276,44.66463414634146 44.96951219512195,45.22357723577235 44.8170731707317,45.833333333333336 44.71544715447154,46.54471544715447 44.61382113821138,47.20528455284553 44.61382113821138,47.916666666666664" fill="none" stroke="black" stroke-width="0.6"></polyline><polyline points="44.61382113821138,47.916666666666664 44.61382113821138,48.577235772357724 44.61382113821138,49.08536585365854 44.71544715447154,49.59349593495935 44.86788617886179,50.10162601626016 45.07113821138211,50.50813008130081 45.325203252032516,50.8130081300813 45.63008130081301,51.168699186991866 45.9349593495935,51.37195121951219 46.290650406504064,51.6260162601626 46.646341463414636,51.829268292682926 46.951219512195124,52.03252032520325 47.30691056910569,52.1849593495935 47.66260162601626,52.38821138211382" fill="none" stroke="black" stroke-width="0.6"></polyline><polyline points="28.60772357723577,73.22154471544715 28.65853658536585,73.22154471544715 28.810975609756095,73.17073170731707 28.96341463414634,73.01829268292683 29.31910569105691,72.76422764227642 29.67479674796748,72.40853658536585 30.132113821138212,71.95121951219512 30.589430894308943,71.39227642276423 30.995934959349594,70.78252032520325 31.402439024390244,70.17276422764228 31.859756097560975,69.46138211382113 32.21544715447154,68.69918699186992 32.57113821138211,67.9369918699187 32.8760162601626,67.17479674796748 33.13008130081301,66.46341463414635 33.28252032520325,65.80284552845528 33.4349593495935,65.1930894308943 33.485772357723576,64.6849593495935 33.485772357723576,64.22764227642276 33.4349593495935,63.87195121951219 33.28252032520325,63.668699186991866 33.079268292682926,63.516260162601625 32.8760162601626,63.41463414634146 32.672764227642276,63.41463414634146 32.46951219512195,63.41463414634146 32.21544715447154,63.516260162601625 31.961382113821138,63.77032520325203 31.65650406504065,64.07520325203252 31.351626016260163,64.53252032520325 31.097560975609756,65.04065040650406 30.84349593495935,65.65040650406505 30.589430894308943,66.26016260162602 30.4369918699187,66.869918699187 30.284552845528456,67.53048780487805 30.182926829268293,68.24186991869918 30.132113821138212,68.85162601626016 30.08130081300813,69.51219512195122 30.08130081300813,70.17276422764228 30.132113821138212,70.68089430894308 30.233739837398375,71.13821138211382 30.4369918699187,71.54471544715447 30.640243902439025,71.84959349593495 30.89430894308943,72.15447154471545 31.19918699186992,72.40853658536585 31.504065040650406,72.51016260162602 31.910569105691057,72.61178861788618 32.36788617886179,72.61178861788618 32.77439024390244,72.61178861788618 33.28252032520325,72.45934959349593 33.790650406504064,72.3069105691057 34.298780487804876,71.95121951219512" fill="none" stroke="black" stroke-width="0.6"></polyline><polyline points="34.298780487804876,71.95121951219512 34.90853658536585,71.54471544715447 35.46747967479675,70.98577235772358 36.077235772357724,70.3760162601626 36.73780487804878,69.66463414634146 37.24593495934959,68.90243902439025 37.80487804878049,68.03861788617886 38.36382113821138,67.1239837398374 38.82113821138211,66.3109756097561 39.176829268292686,65.54878048780488 39.53252032520325,64.78658536585365 39.6849593495935,64.17682926829268 39.83739837398374,63.668699186991866 39.9390243902439,63.21138211382114 39.9390243902439,62.90650406504065 39.88821138211382,62.703252032520325 39.735772357723576,62.55081300813008 39.583333333333336,62.5 39.38008130081301,62.449186991869915 39.07520325203252,62.55081300813008 38.82113821138211,62.7540650406504 38.46544715447154,63.109756097560975 38.109756097560975,63.516260162601625 37.80487804878049,63.922764227642276 37.5,64.43089430894308 37.14430894308943,65.04065040650406 36.78861788617886,65.59959349593495 36.483739837398375,66.3109756097561 36.17886178861789,67.1239837398374 35.97560975609756,67.88617886178862 35.77235772357724,68.59756097560975 35.56910569105691,69.35975609756098 35.51829268292683,69.96951219512195 35.51829268292683,70.57926829268293 35.51829268292683,71.1890243902439 35.56910569105691,71.69715447154472 35.77235772357724,72.15447154471545 36.02642276422764,72.45934959349593 36.33130081300813,72.71341463414635 36.6869918699187,72.91666666666667 37.09349593495935,73.01829268292683 37.55081300813008,73.0691056910569 38.05894308943089,73.0691056910569 38.61788617886179,72.86585365853658 39.22764227642276,72.61178861788618 39.83739837398374,72.2560975609756 40.447154471544714,71.84959349593495 41.05691056910569,71.39227642276423 41.666666666666664,70.83333333333333 42.22560975609756,70.27439024390243 42.78455284552845,69.76626016260163" fill="none" stroke="black" stroke-width="0.6"></polyline><polyline points="42.78455284552845,69.76626016260163 43.292682926829265,69.10569105691057 43.75,68.4451219512195 44.15650406504065,67.83536585365853 44.512195121951216,67.17479674796748 44.8170731707317,66.46341463414635 45.02032520325203,65.80284552845528 45.172764227642276,65.1930894308943 45.27439024390244,64.58333333333333 45.325203252032516,64.02439024390243 45.325203252032516,63.5670731707317 45.27439024390244,63.262195121951216 45.12195121951219,63.00813008130081 44.86788617886179,62.855691056910565 44.66463414634146,62.703252032520325 44.41056910569105,62.65243902439024 44.105691056910565,62.65243902439024 43.80081300813008,62.703252032520325 43.546747967479675,62.855691056910565 43.24186991869919,63.16056910569105 42.98780487804878,63.516260162601625 42.68292682926829,63.922764227642276 42.327235772357724,64.48170731707317 42.073170731707314,65.04065040650406 41.81910569105691,65.65040650406505 41.5650406504065,66.41260162601625 41.41260162601626,67.1239837398374 41.3109756097561,67.88617886178862 41.260162601626014,68.69918699186992 41.260162601626014,69.35975609756098 41.260162601626014,69.96951219512195 41.41260162601626,70.52845528455285 41.5650406504065,70.9349593495935 41.81910569105691,71.29065040650406 42.1239837398374,71.64634146341463 42.42886178861789,71.84959349593495 42.83536585365854,72.05284552845528 43.292682926829265,72.20528455284553 43.75,72.3069105691057 44.25813008130081,72.35772357723577" fill="none" stroke="black" stroke-width="0.6"></polyline><polyline points="27.947154471544714,92.98780487804878 27.947154471544714,92.98780487804878 27.947154471544714,92.98780487804878 27.947154471544714,92.98780487804878 27.997967479674795,92.98780487804878 28.048780487804876,93.03861788617886 28.20121951219512,93.03861788617886 28.455284552845526,93.03861788617886 28.760162601626014,92.88617886178862 29.166666666666664,92.6829268292683 29.6239837398374,92.27642276422765 30.182926829268293,91.66666666666667 30.640243902439025,90.95528455284553 31.148373983739837,90.14227642276423 31.60569105691057,89.22764227642276 32.012195121951216,88.36382113821138 32.418699186991866,87.39837398373983 32.77439024390244,86.3821138211382 33.079268292682926,85.46747967479675 33.333333333333336,84.60365853658537 33.53658536585366,83.79065040650406 33.58739837398374,83.23170731707317 33.58739837398374,82.82520325203252 33.53658536585366,82.46951219512195 33.38414634146341,82.3170731707317 33.13008130081301,82.26626016260163 32.926829268292686,82.26626016260163 32.6219512195122,82.46951219512195 32.3170731707317,82.77439024390243 31.961382113821138,83.23170731707317 31.60569105691057,83.79065040650406 31.19918699186992,84.45121951219512 30.84349593495935,85.21341463414635 30.589430894308943,85.92479674796748 30.284552845528456,86.73780487804878 30.08130081300813,87.65243902439025 29.979674796747968,88.41463414634146 29.928861788617887,89.22764227642276 29.928861788617887,89.98983739837398 30.03048780487805,90.65040650406503 30.182926829268293,91.26016260162602 30.38617886178862,91.8191056910569 30.640243902439025,92.22560975609755 30.995934959349594,92.47967479674797 31.402439024390244,92.73373983739837 31.808943089430894,92.83536585365853 32.36788617886179,92.88617886178862 32.926829268292686,92.88617886178862 33.4349593495935,92.78455284552845 34.04471544715447,92.6321138211382 34.70528455284553,92.32723577235772" fill="none" stroke="black" stroke-width="0.6"></polyline><polyline points="34.70528455284553,92.32723577235772 35.3150406504065,91.92073170731707 35.92479674796748,91.46341463414635 36.636178861788615,90.80284552845528 37.24593495934959,90.14227642276423 37.855691056910565,89.32926829268293 38.516260162601625,88.46544715447155 39.07520325203252,87.55081300813008 39.6849593495935,86.58536585365853 40.142276422764226,85.72154471544715 40.65040650406504,84.8069105691057 41.05691056910569,83.9430894308943 41.260162601626014,83.28252032520325 41.41260162601626,82.77439024390243 41.46341463414634,82.3170731707317 41.46341463414634,82.0630081300813 41.36178861788618,81.91056910569105 41.15853658536585,81.8089430894309 40.853658536585364,81.8089430894309 40.4979674796748,81.91056910569105 40.040650406504064,82.21544715447155 39.583333333333336,82.5711382113821 39.07520325203252,83.02845528455285 38.5670731707317,83.58739837398373 38.109756097560975,84.14634146341463 37.65243902439024,84.8069105691057 37.19512195121951,85.619918699187 36.83943089430894,86.3821138211382 36.53455284552845,87.1951219512195 36.28048780487805,88.0081300813008 36.1280487804878,88.71951219512195 36.077235772357724,89.43089430894308 36.077235772357724,90.14227642276423 36.1280487804878,90.70121951219512 36.229674796747965,91.26016260162602 36.43292682926829,91.8191056910569 36.6869918699187,92.17479674796748 36.99186991869919,92.42886178861788 37.34756097560975,92.6829268292683 37.7540650406504,92.83536585365853 38.21138211382114,92.88617886178862 38.77032520325203,92.88617886178862 39.329268292682926,92.73373983739837 39.9390243902439,92.53048780487805 40.59959349593496,92.22560975609755 41.209349593495936,91.8191056910569 41.86991869918699,91.26016260162602 42.58130081300813,90.54878048780488 43.24186991869919,89.78658536585365 43.85162601626016,88.92276422764228 44.512195121951216,88.0081300813008" fill="none" stroke="black" stroke-width="0.6"></polyline><polyline points="44.512195121951216,88.0081300813008 45.07113821138211,87.09349593495935 45.579268292682926,86.1280487804878 45.985772357723576,85.26422764227642 46.290650406504064,84.55284552845528 46.54471544715447,83.84146341463415 46.697154471544714,83.18089430894308 46.697154471544714,82.67276422764228 46.697154471544714,82.21544715447155 46.59552845528455,81.8089430894309 46.392276422764226,81.5040650406504 46.13821138211382,81.30081300813008 45.88414634146341,81.14837398373983 45.579268292682926,81.09756097560975 45.27439024390244,81.09756097560975 44.96951219512195,81.25 44.61382113821138,81.55487804878048 44.25813008130081,81.96138211382113 43.90243902439024,82.5711382113821 43.59756097560975,83.18089430894308 43.34349593495935,83.84146341463415 43.08943089430894,84.60365853658537 42.9369918699187,85.41666666666667 42.83536585365854,86.28048780487805 42.78455284552845,87.1951219512195 42.78455284552845,88.0081300813008 42.78455284552845,88.77032520325203 42.9369918699187,89.43089430894308 43.08943089430894,90.04065040650406 43.34349593495935,90.65040650406503 43.59756097560975,91.10772357723577 43.90243902439024,91.46341463414635 44.359756097560975,91.76829268292683 44.918699186991866,91.869918699187 45.63008130081301,91.869918699187" fill="none" stroke="black" stroke-width="0.6"></polyline></svg>