<svg height="100" width="100" preserveAspectRatio="xMidYMid meet"><polyline points="15.19308943089431,10.467479674796747 15.142276422764228,10.467479674796747 15.091463414634147,10.315040650406504 15.040650406504065,10.213414634146341 15.040650406504065,10.16260162601626 15.040650406504065,10.060975609756097 15.142276422764228,9.959349593495935 15.396341463414634,9.857723577235772 15.752032520325203,9.80691056910569 16.209349593495933,9.705284552845528 16.71747967479675,9.603658536585366 17.17479674796748,9.552845528455284 17.58130081300813,9.552845528455284 17.835365853658537,9.552845528455284 18.038617886178862,9.552845528455284 18.140243902439025,9.603658536585366 18.191056910569106,9.654471544715447 18.191056910569106,9.75609756097561 18.191056910569106,9.908536585365853 18.191056910569106,10.060975609756097 18.089430894308943,10.264227642276422 17.9369918699187,10.56910569105691 17.733739837398375,10.924796747967479 17.428861788617887,11.331300813008129 17.073170731707318,11.737804878048781 16.76829268292683,12.144308943089431 16.514227642276424,12.550813008130081 16.36178861788618,12.804878048780488 16.3109756097561,13.058943089430894 16.3109756097561,13.262195121951219 16.3109756097561,13.363821138211382 16.463414634146343,13.414634146341463 16.615853658536587,13.516260162601625 16.76829268292683,13.567073170731707 16.971544715447155,13.617886178861788 17.276422764227643,13.71951219512195 17.53048780487805,13.770325203252032 17.835365853658537,13.770325203252032 18.241869918699187,13.821138211382113 18.69918699186992,13.871951219512194 19.258130081300813,13.871951219512194" fill="none" stroke="black" stroke-width="0.6"></polyline><polyline points="31.30081300813008,10.823170731707316 31.25,10.823170731707316 31.19918699186992,10.823170731707316 31.19918699186992,10.823170731707316 31.148373983739837,10.823170731707316 31.097560975609756,10.873983739837398 31.097560975609756,10.97560975609756 31.097560975609756,11.229674796747966 31.25,11.534552845528456 31.504065040650406,11.890243902439025 31.758130081300813,12.195121951219512 32.012195121951216,12.5 32.3170731707317,12.652439024390244 32.57113821138211,12.754065040650406 32.82520325203252,12.754065040650406 33.02845528455285,12.652439024390244 33.23170731707317,12.5 33.38414634146341,12.296747967479675 33.53658536585366,12.042682926829269 33.6890243902439,11.839430894308943 33.790650406504064,11.636178861788618 33.84146341463415,11.483739837398375 33.94308943089431,11.382113821138212 33.99390243902439,11.382113821138212 34.09552845528455,11.534552845528456 34.2479674796748,11.839430894308943 34.451219512195124,12.347560975609756 34.65447154471545,13.109756097560975 34.90853658536585,13.871951219512194 35.11178861788618,14.786585365853659 35.3150406504065,15.802845528455284 35.46747967479675,16.565040650406505 35.56910569105691,17.327235772357724 35.61991869918699,18.038617886178862 35.61991869918699,18.546747967479675 35.61991869918699,19.004065040650406 35.56910569105691,19.410569105691057 35.46747967479675,19.715447154471544 35.3150406504065,19.867886178861788 35.16260162601626,19.96951219512195 34.959349593495936,19.96951219512195 34.75609756097561,19.96951219512195 34.552845528455286,19.817073170731707 34.34959349593496,19.5630081300813 34.2479674796748,19.20731707317073 34.146341463414636,18.69918699186992 34.09552845528455,18.241869918699187 34.146341463414636,17.682926829268293 34.34959349593496,17.022357723577237 34.603658536585364,16.41260162601626 35.11178861788618,15.752032520325203" fill="none" stroke="black" stroke-width="0.6"></polyline><polyline points="35.11178861788618,15.752032520325203 35.823170731707314,15.091463414634147 36.636178861788615,14.53252032520325 36.99186991869919,14.329268292682926" fill="none" stroke="black" stroke-width="0.6"></polyline><polyline points="47.15447154471545,11.229674796747966 47.20528455284553,11.178861788617885 47.20528455284553,11.128048780487804 47.25609756097561,11.128048780487804 47.357723577235774,11.128048780487804 47.510162601626014,11.178861788617885 47.86585365853659,11.432926829268293 48.3739837398374,11.839430894308943 48.983739837398375,12.398373983739837 49.64430894308943,13.058943089430894 50.203252032520325,13.66869918699187 50.609756097560975,14.1260162601626 50.96544715447154,14.430894308943088 51.27032520325203,14.634146341463413 51.575203252032516,14.786585365853659 51.829268292682926,14.939024390243903 52.03252032520325,14.989837398373984 52.1849593495935,14.989837398373984 52.33739837398374,14.939024390243903 52.4390243902439,14.684959349593496" fill="none" stroke="black" stroke-width="0.6"></polyline><polyline points="51.880081300813,11.178861788617885 51.829268292682926,10.924796747967479 51.77845528455284,10.772357723577235 51.72764227642276,10.721544715447154 51.72764227642276,10.670731707317072 51.67682926829268,10.670731707317072 51.6260162601626,10.823170731707316 51.52439024390244,11.077235772357723 51.21951219512195,11.585365853658537 50.86382113821138,12.245934959349594 50.40650406504065,13.008130081300813 49.84756097560975,13.821138211382113 49.390243902439025,14.48170731707317 48.983739837398375,14.989837398373984 48.577235772357724,15.497967479674797 48.323170731707314,15.853658536585366 48.11991869918699,16.15853658536585 47.916666666666664,16.41260162601626 47.8150406504065,16.565040650406505 47.8150406504065,16.565040650406505" fill="none" stroke="black" stroke-width="0.6"></polyline><polyline points="62.296747967479675,12.601626016260163 62.296747967479675,12.601626016260163 62.296747967479675,12.601626016260163 62.296747967479675,12.601626016260163 62.34756097560975,12.703252032520325 62.39837398373984,12.90650406504065 62.449186991869915,13.3130081300813 62.55081300813008,13.821138211382113 62.60162601626016,14.278455284552845 62.703252032520325,14.684959349593496 62.7540650406504,14.989837398373984 62.855691056910565,15.091463414634147 62.90650406504065,15.091463414634147 63.00813008130081,14.989837398373984 63.16056910569105,14.786585365853659 63.3130081300813,14.48170731707317 63.516260162601625,14.1260162601626 63.71951219512195,13.770325203252032 63.922764227642276,13.414634146341463 64.07520325203252,13.160569105691057 64.22764227642276,12.957317073170731 64.32926829268293,12.957317073170731 64.43089430894308,13.008130081300813 64.58333333333333,13.3130081300813 64.73577235772358,13.71951219512195 64.9390243902439,14.1260162601626 65.14227642276423,14.48170731707317 65.39634146341463,14.83739837398374 65.70121951219512,15.091463414634147 66.0060975609756,15.294715447154472 66.36178861788618,15.396341463414634 66.61585365853658,15.396341463414634 66.92073170731707,15.345528455284553 67.22560975609755,15.142276422764228 67.47967479674797,14.83739837398374 67.73373983739837,14.48170731707317 68.03861788617886,14.07520325203252 68.24186991869918,13.66869918699187 68.39430894308943,13.211382113821138 68.4959349593496,12.652439024390244 68.54674796747967,12.144308943089431 68.54674796747967,11.788617886178862 68.64837398373983,11.585365853658537 68.69918699186992,11.585365853658537" fill="none" stroke="black" stroke-width="0.6"></polyline><polyline points="77.54065040650406,12.398373983739837 77.54065040650406,12.398373983739837 77.54065040650406,12.449186991869919 77.59146341463415,12.601626016260163 77.79471544715447,12.957317073170731 78.09959349593495,13.414634146341463 78.40447154471545,13.922764227642276 78.76016260162602,14.329268292682926 79.0650406504065,14.684959349593496 79.369918699187,14.939024390243903 79.67479674796748,15.091463414634147 79.8780487804878,15.142276422764228 80.03048780487805,15.142276422764228 80.1829268292683,15.040650406504065 80.33536585365853,14.888211382113822 80.53861788617886,14.634146341463413 80.74186991869918,14.329268292682926 80.9451219512195,13.973577235772357 81.14837398373983,13.617886178861788 81.40243902439025,13.109756097560975 81.70731707317073,12.601626016260163 82.01219512195122,12.195121951219512 82.3170731707317,11.788617886178862 82.5711382113821,11.585365853658537 82.82520325203252,11.483739837398375 83.07926829268293,11.382113821138212 83.33333333333333,11.280487804878048" fill="none" stroke="black" stroke-width="0.6"></polyline><polyline points="16.260162601626014,29.471544715447155 16.260162601626014,29.369918699186993 16.209349593495933,29.31910569105691 16.209349593495933,29.31910569105691 16.209349593495933,29.369918699186993 16.36178861788618,29.573170731707318 16.565040650406505,29.928861788617887 16.869918699186993,30.335365853658537 17.225609756097562,30.79268292682927 17.58130081300813,31.19918699186992 17.98780487804878,31.504065040650406 18.29268292682927,31.65650406504065 18.597560975609756,31.65650406504065 18.902439024390244,31.60569105691057 19.10569105691057,31.504065040650406 19.308943089430894,31.30081300813008 19.51219512195122,31.046747967479675 19.715447154471544,30.691056910569106 19.867886178861788,30.233739837398375 20.020325203252032,29.776422764227643 20.071138211382113,29.31910569105691 20.071138211382113,28.861788617886177 20.020325203252032,28.455284552845526 20.020325203252032,28.099593495934958 19.96951219512195,27.896341463414632 20.020325203252032,27.79471544715447" fill="none" stroke="black" stroke-width="0.6"></polyline><polyline points="32.52032520325203,24.745934959349594 32.52032520325203,24.745934959349594 32.52032520325203,24.745934959349594 32.52032520325203,24.745934959349594 32.52032520325203,24.898373983739837 32.57113821138211,25.40650406504065 32.6219512195122,26.321138211382113 32.6219512195122,27.4390243902439 32.6219512195122,28.506097560975608 32.6219512195122,29.420731707317074 32.6219512195122,30.08130081300813 32.57113821138211,30.640243902439025 32.52032520325203,31.148373983739837 32.418699186991866,31.504065040650406 32.3170731707317,31.70731707317073 32.16463414634146,31.859756097560975 32.0630081300813,31.859756097560975" fill="none" stroke="black" stroke-width="0.6"></polyline><polyline points="30.284552845528456,29.827235772357724 30.284552845528456,29.725609756097562 30.233739837398375,29.6239837398374 30.233739837398375,29.573170731707318 30.233739837398375,29.522357723577237 30.335365853658537,29.522357723577237 30.640243902439025,29.471544715447155 31.097560975609756,29.471544715447155 31.808943089430894,29.420731707317074 32.52032520325203,29.369918699186993 33.28252032520325,29.31910569105691 34.09552845528455,29.268292682926827 34.451219512195124,29.217479674796746" fill="none" stroke="black" stroke-width="0.6"></polyline><polyline points="51.6260162601626,27.591463414634145 51.575203252032516,27.540650406504064 51.52439024390244,27.540650406504064 51.47357723577235,27.489837398373982 51.47357723577235,27.489837398373982 51.47357723577235,27.489837398373982 51.47357723577235,27.489837398373982 51.47357723577235,27.489837398373982 51.47357723577235,27.489837398373982 51.47357723577235,27.489837398373982 51.47357723577235,27.489837398373982 51.47357723577235,27.489837398373982 51.47357723577235,27.489837398373982 51.47357723577235,27.489837398373982 51.47357723577235,27.489837398373982 51.47357723577235,27.489837398373982 51.47357723577235,27.4390243902439 51.47357723577235,27.4390243902439 51.47357723577235,27.4390243902439 51.47357723577235,27.4390243902439 51.47357723577235,27.4390243902439 51.47357723577235,27.4390243902439 51.47357723577235,27.4390243902439 51.47357723577235,27.4390243902439 51.47357723577235,27.4390243902439 51.47357723577235,27.4390243902439 51.52439024390244,27.4390243902439 51.52439024390244,27.4390243902439 51.52439024390244,27.4390243902439 51.52439024390244,27.4390243902439 51.52439024390244,27.4390243902439 51.52439024390244,27.4390243902439 51.52439024390244,27.4390243902439 51.52439024390244,27.4390243902439 51.52439024390244,27.4390243902439 51.52439024390244,27.4390243902439 51.52439024390244,27.4390243902439 51.52439024390244,27.4390243902439 51.52439024390244,27.4390243902439 51.52439024390244,27.4390243902439 51.52439024390244,27.4390243902439 51.52439024390244,27.4390243902439 51.52439024390244,27.4390243902439 51.52439024390244,27.4390243902439 51.52439024390244,27.4390243902439 51.52439024390244,27.4390243902439 51.52439024390244,27.4390243902439 51.52439024390244,27.4390243902439 51.52439024390244,27.4390243902439 51.52439024390244,27.4390243902439 51.52439024390244,27.4390243902439" fill="none" stroke="black" stroke-width="0.6"></polyline><polyline points="51.52439024390244,27.4390243902439 51.52439024390244,27.4390243902439 51.52439024390244,27.4390243902439 51.52439024390244,27.4390243902439 51.52439024390244,27.4390243902439 51.52439024390244,27.4390243902439 51.52439024390244,27.4390243902439 51.52439024390244,27.4390243902439 51.52439024390244,27.4390243902439 51.52439024390244,27.4390243902439 51.52439024390244,27.4390243902439 51.52439024390244,27.4390243902439 51.52439024390244,27.4390243902439 51.52439024390244,27.4390243902439 51.52439024390244,27.4390243902439 51.47357723577235,27.4390243902439 51.37195121951219,27.38821138211382 51.21951219512195,27.33739837398374 50.96544715447154,27.286585365853657 50.609756097560975,27.235772357723576 50.203252032520325,27.235772357723576 49.69512195121951,27.33739837398374 49.1869918699187,27.540650406504064 48.729674796747965,27.74390243902439 48.3739837398374,28.048780487804876 48.11991869918699,28.353658536585364 47.916666666666664,28.60772357723577 47.86585365853659,28.810975609756095 47.86585365853659,29.01422764227642 48.06910569105691,29.166666666666664 48.3739837398374,29.268292682926827 48.83130081300813,29.420731707317074 49.390243902439025,29.573170731707318 49.89837398373984,29.725609756097562 50.355691056910565,29.979674796747968 50.91463414634146,30.233739837398375 51.27032520325203,30.589430894308943 51.575203252032516,30.89430894308943 51.77845528455284,31.25 51.77845528455284,31.554878048780488 51.72764227642276,31.859756097560975 51.52439024390244,32.16463414634146 51.21951219512195,32.46951219512195 50.8130081300813,32.72357723577236 50.355691056910565,32.926829268292686 49.89837398373984,33.02845528455285 49.390243902439025,33.079268292682926 48.88211382113821,33.079268292682926 48.47560975609756,33.02845528455285 48.22154471544715,32.926829268292686 48.06910569105691,32.77439024390244" fill="none" stroke="black" stroke-width="0.6"></polyline><polyline points="48.06910569105691,32.77439024390244 48.06910569105691,32.6219512195122 48.22154471544715,32.46951219512195" fill="none" stroke="black" stroke-width="0.6"></polyline><polyline points="63.5670731707317,29.827235772357724 63.71951219512195,29.878048780487806 63.82113821138211,30.03048780487805 64.02439024390243,30.335365853658537 64.22764227642276,30.741869918699187 64.43089430894308,31.19918699186992 64.58333333333333,31.60569105691057 64.6849593495935,32.012195121951216 64.73577235772358,32.3170731707317 64.73577235772358,32.6219512195122 64.73577235772358,32.72357723577236 64.73577235772358,32.77439024390244 64.6849593495935,32.77439024390244 64.6341463414634,32.72357723577236 64.58333333333333,32.52032520325203 64.48170731707317,32.266260162601625 64.380081300813,31.961382113821138 64.32926829268293,31.554878048780488 64.32926829268293,31.046747967479675 64.380081300813,30.538617886178862 64.53252032520325,30.03048780487805 64.9390243902439,29.471544715447155 65.54878048780488,29.0650406504065 66.3109756097561,28.810975609756095 67.02235772357723,28.760162601626014 67.83536585365853,28.760162601626014 68.69918699186992,28.760162601626014 69.10569105691057,28.810975609756095" fill="none" stroke="black" stroke-width="0.6"></polyline><polyline points="82.77439024390243,29.522357723577237 82.77439024390243,29.522357723577237 82.77439024390243,29.369918699186993 82.67276422764228,29.268292682926827 82.5711382113821,29.166666666666664 82.41869918699187,29.115853658536583 82.26626016260163,29.0650406504065 81.96138211382113,29.115853658536583 81.60569105691057,29.217479674796746 81.19918699186992,29.471544715447155 80.84349593495935,29.725609756097562 80.48780487804878,29.979674796747968 80.23373983739837,30.284552845528456 80.03048780487805,30.538617886178862 79.92886178861788,30.741869918699187 79.92886178861788,30.945121951219512 80.08130081300813,31.046747967479675 80.28455284552845,31.148373983739837 80.53861788617886,31.19918699186992 80.89430894308943,31.19918699186992 81.30081300813008,31.097560975609756 81.7581300813008,30.89430894308943 82.16463414634146,30.691056910569106 82.67276422764228,30.38617886178862 83.02845528455285,30.08130081300813 83.33333333333333,29.827235772357724 83.58739837398373,29.67479674796748 83.63821138211382,29.67479674796748 83.63821138211382,29.67479674796748 83.63821138211382,29.878048780487806 83.63821138211382,30.284552845528456 83.63821138211382,30.84349593495935 83.53658536585365,31.554878048780488 83.3841463414634,32.3170731707317 83.23170731707317,33.13008130081301 83.07926829268293,33.94308943089431 82.97764227642276,34.65447154471545 82.92682926829268,35.264227642276424 82.82520325203252,35.8739837398374 82.72357723577235,36.28048780487805 82.6219512195122,36.6869918699187 82.6219512195122,36.890243902439025 82.5711382113821,37.042682926829265 82.46951219512195,37.19512195121951 82.36788617886178,37.19512195121951" fill="none" stroke="black" stroke-width="0.6"></polyline><polyline points="16.209349593495933,45.73170731707317 16.15853658536585,45.833333333333336 16.05691056910569,46.03658536585366 16.006097560975608,46.34146341463415 16.006097560975608,46.798780487804876 16.006097560975608,47.459349593495936 16.006097560975608,48.22154471544715 16.10772357723577,48.93292682926829 16.209349593495933,49.64430894308943 16.209349593495933,50.15243902439024 16.209349593495933,50.609756097560975 16.209349593495933,51.016260162601625 16.209349593495933,51.27032520325203 16.209349593495933,51.47357723577235 16.15853658536585,51.6260162601626 16.15853658536585,51.67682926829268 16.15853658536585,51.67682926829268 16.10772357723577,51.67682926829268 16.10772357723577,51.575203252032516 16.006097560975608,51.422764227642276 15.904471544715447,51.0670731707317 15.802845528455284,50.609756097560975 15.65040650406504,50 15.548780487804878,49.23780487804878 15.447154471544716,48.52642276422764 15.447154471544716,47.71341463414634 15.548780487804878,46.84959349593496 15.853658536585366,46.13821138211382 16.209349593495933,45.579268292682926 16.71747967479675,45.07113821138211 17.1239837398374,44.766260162601625 17.58130081300813,44.61382113821138 17.9369918699187,44.61382113821138 18.191056910569106,44.766260162601625 18.445121951219512,45.02032520325203 18.597560975609756,45.3760162601626 18.648373983739837,45.78252032520325 18.69918699186992,46.1890243902439 18.648373983739837,46.646341463414636 18.546747967479675,47.052845528455286 18.34349593495935,47.459349593495936 18.089430894308943,47.86585365853659 17.784552845528456,48.11991869918699 17.428861788617887,48.3739837398374 17.073170731707318,48.52642276422764 16.76829268292683,48.577235772357724 16.463414634146343,48.577235772357724 16.15853658536585,48.47560975609756 16.006097560975608,48.323170731707314 15.853658536585366,48.170731707317074 15.802845528455284,48.06910569105691" fill="none" stroke="black" stroke-width="0.6"></polyline><polyline points="15.802845528455284,48.06910569105691 15.853658536585366,47.96747967479675 15.955284552845528,47.86585365853659 16.260162601626014,47.71341463414634" fill="none" stroke="black" stroke-width="0.6"></polyline><polyline points="33.892276422764226,44.61382113821138 33.84146341463415,44.61382113821138 33.6890243902439,44.61382113821138 33.58739837398374,44.61382113821138 33.38414634146341,44.61382113821138 33.18089430894309,44.71544715447154 32.97764227642276,44.96951219512195 32.672764227642276,45.3760162601626 32.418699186991866,45.9349593495935 32.16463414634146,46.54471544715447 32.0630081300813,47.15447154471545 32.0630081300813,47.61178861788618 32.11382113821138,48.01829268292683 32.266260162601625,48.323170731707314 32.46951219512195,48.47560975609756 32.77439024390244,48.52642276422764 33.13008130081301,48.577235772357724 33.53658536585366,48.3739837398374 33.94308943089431,48.01829268292683 34.40040650406504,47.510162601626014 34.80691056910569,47.0020325203252 35.11178861788618,46.49390243902439 35.416666666666664,45.985772357723576 35.51829268292683,45.63008130081301 35.51829268292683,45.325203252032516 35.46747967479675,45.07113821138211 35.21341463414634,44.918699186991866 34.90853658536585,44.8170731707317 34.603658536585364,44.766260162601625 34.298780487804876,44.766260162601625 34.04471544715447,44.86788617886179 33.84146341463415,45.07113821138211 33.739837398373986,45.27439024390244 33.6890243902439,45.42682926829268" fill="none" stroke="black" stroke-width="0.6"></polyline><polyline points="47.052845528455286,44.766260162601625 47.052845528455286,44.766260162601625 47.052845528455286,44.766260162601625 47.0020325203252,44.766260162601625 47.0020325203252,44.766260162601625 47.0020325203252,44.766260162601625 46.951219512195124,44.766260162601625 46.951219512195124,44.8170731707317 47.0020325203252,44.918699186991866 47.052845528455286,45.12195121951219 47.103658536585364,45.42682926829268 47.15447154471545,45.833333333333336 47.25609756097561,46.34146341463415 47.30691056910569,46.84959349593496 47.357723577235774,47.40853658536585 47.40853658536585,47.96747967479675 47.40853658536585,48.323170731707314 47.459349593495936,48.577235772357724 47.459349593495936,48.6280487804878 47.459349593495936,48.6280487804878 47.510162601626014,48.52642276422764 47.5609756097561,48.323170731707314 47.66260162601626,48.01829268292683 47.764227642276424,47.5609756097561 47.916666666666664,47.052845528455286 48.11991869918699,46.59552845528455 48.3739837398374,46.03658536585366 48.6280487804878,45.579268292682926 48.983739837398375,45.12195121951219 49.33943089430894,44.766260162601625 49.59349593495935,44.66463414634146 49.796747967479675,44.66463414634146 50,44.8170731707317 50.15243902439024,45.07113821138211 50.2540650406504,45.42682926829268 50.30487804878049,45.833333333333336 50.355691056910565,46.1890243902439 50.355691056910565,46.54471544715447 50.355691056910565,46.90040650406504 50.30487804878049,47.20528455284553 50.2540650406504,47.510162601626014 50.203252032520325,47.764227642276424 50.15243902439024,47.86585365853659 50.15243902439024,47.916666666666664 50.15243902439024,47.916666666666664 50.15243902439024,47.764227642276424 50.203252032520325,47.459349593495936 50.355691056910565,47.052845528455286 50.55894308943089,46.59552845528455 50.8130081300813,46.08739837398374 51.168699186991866,45.52845528455285" fill="none" stroke="black" stroke-width="0.6"></polyline><polyline points="51.168699186991866,45.52845528455285 51.6260162601626,45.02032520325203 52.1849593495935,44.61382113821138 52.69308943089431,44.359756097560975 53.09959349593496,44.30894308943089 53.40447154471545,44.359756097560975 53.607723577235774,44.5630081300813 53.760162601626014,44.766260162601625 53.8109756097561,45.07113821138211 53.8109756097561,45.47764227642276 53.8109756097561,45.833333333333336 53.760162601626014,46.1890243902439 53.709349593495936,46.59552845528455 53.607723577235774,46.951219512195124 53.50609756097561,47.25609756097561 53.50609756097561,47.5609756097561 53.45528455284553,47.764227642276424 53.45528455284553,47.916666666666664 53.50609756097561,47.96747967479675" fill="none" stroke="black" stroke-width="0.6"></polyline><polyline points="64.27845528455285,44.918699186991866 64.22764227642276,44.918699186991866 64.17682926829268,44.96951219512195 64.07520325203252,45.12195121951219 64.02439024390243,45.42682926829268 63.922764227642276,45.88414634146341 63.87195121951219,46.392276422764226 63.82113821138211,46.84959349593496 63.77032520325203,47.20528455284553 63.71951219512195,47.5609756097561 63.668699186991866,47.71341463414634 63.61788617886179,47.8150406504065 63.5670731707317,47.86585365853659 63.5670731707317,47.86585365853659 63.5670731707317,47.8150406504065 63.61788617886179,47.71341463414634 63.668699186991866,47.459349593495936 63.87195121951219,47.103658536585364 64.17682926829268,46.59552845528455 64.53252032520325,46.13821138211382 64.9390243902439,45.63008130081301 65.4979674796748,45.07113821138211 66.0569105691057,44.66463414634146 66.66666666666667,44.41056910569105 67.1239837398374,44.359756097560975 67.47967479674797,44.512195121951216 67.73373983739837,44.766260162601625 67.9369918699187,45.12195121951219 67.98780487804878,45.52845528455285 68.03861788617886,46.03658536585366 68.03861788617886,46.54471544715447 67.98780487804878,47.0020325203252 67.88617886178862,47.40853658536585 67.83536585365853,47.916666666666664 67.73373983739837,48.27235772357724 67.73373983739837,48.52642276422764 67.73373983739837,48.729674796747965 67.78455284552845,48.78048780487805" fill="none" stroke="black" stroke-width="0.6"></polyline><polyline points="80.89430894308943,41.61585365853659 80.89430894308943,41.666666666666664 80.89430894308943,41.81910569105691 80.89430894308943,42.1239837398374 80.84349593495935,42.83536585365854 80.79268292682927,43.85162601626016 80.74186991869918,44.8170731707317 80.64024390243902,45.73170731707317 80.58943089430895,46.49390243902439 80.53861788617886,47.0020325203252 80.48780487804878,47.357723577235774 80.4369918699187,47.66260162601626 80.4369918699187,47.916666666666664 80.4369918699187,48.01829268292683 80.38617886178862,48.06910569105691 80.38617886178862,48.06910569105691" fill="none" stroke="black" stroke-width="0.6"></polyline><polyline points="16.260162601626014,58.28252032520325 16.209349593495933,58.43495934959349 16.10772357723577,58.739837398373986 16.006097560975608,59.2479674796748 15.955284552845528,59.857723577235774 15.904471544715447,60.51829268292683 15.853658536585366,61.28048780487805 15.853658536585366,61.99186991869919 15.802845528455284,62.449186991869915 15.802845528455284,62.90650406504065 15.752032520325203,63.3130081300813 15.701219512195122,63.516260162601625 15.701219512195122,63.668699186991866 15.701219512195122,63.77032520325203 15.701219512195122,63.77032520325203" fill="none" stroke="black" stroke-width="0.6"></polyline><polyline points="19.15650406504065,59.5020325203252 19.15650406504065,59.5020325203252 19.054878048780488,59.5020325203252 19.004065040650406,59.552845528455286 18.851626016260163,59.603658536585364 18.648373983739837,59.65447154471545 18.34349593495935,59.80691056910569 17.98780487804878,60.010162601626014 17.53048780487805,60.264227642276424 16.971544715447155,60.51829268292683 16.463414634146343,60.77235772357724 15.955284552845528,60.97560975609756 15.548780487804878,61.17886178861789 15.24390243902439,61.28048780487805 15.091463414634147,61.33130081300813 14.989837398373984,61.38211382113821 14.989837398373984,61.38211382113821 15.091463414634147,61.483739837398375 15.294715447154472,61.636178861788615 15.59959349593496,61.83943089430894 16.006097560975608,62.042682926829265 16.463414634146343,62.24593495934959 16.971544715447155,62.5 17.53048780487805,62.7540650406504 18.089430894308943,63.109756097560975 18.597560975609756,63.46544715447154 19.054878048780488,63.77032520325203 19.51219512195122,64.07520325203252 19.867886178861788,64.27845528455285 20.172764227642276,64.43089430894308 20.528455284552845,64.48170731707317 20.833333333333332,64.48170731707317" fill="none" stroke="black" stroke-width="0.6"></polyline><polyline points="31.60569105691057,62.09349593495935 31.60569105691057,62.09349593495935 31.60569105691057,62.09349593495935 31.60569105691057,62.09349593495935 31.60569105691057,62.09349593495935 31.60569105691057,62.09349593495935 31.70731707317073,62.19512195121951 31.859756097560975,62.5 32.21544715447154,63.05894308943089 32.672764227642276,63.87195121951219 33.13008130081301,64.9390243902439 33.485772357723576,65.90447154471545 33.6890243902439,66.76829268292683 33.739837398373986,67.53048780487805 33.6890243902439,68.08943089430895 33.485772357723576,68.54674796747967 33.23170731707317,69.05487804878048 32.97764227642276,69.5630081300813 32.6219512195122,70.0711382113821 32.266260162601625,70.47764227642276 31.859756097560975,70.68089430894308 31.351626016260163,70.83333333333333 30.84349593495935,70.8841463414634 30.284552845528456,70.73170731707317" fill="none" stroke="black" stroke-width="0.6"></polyline><polyline points="32.6219512195122,59.90853658536585 32.6219512195122,59.857723577235774 32.6219512195122,59.80691056910569 32.6219512195122,59.80691056910569 32.57113821138211,59.80691056910569 32.57113821138211,59.857723577235774 32.672764227642276,60.0609756097561 32.77439024390244,60.21341463414634" fill="none" stroke="black" stroke-width="0.6"></polyline><polyline points="48.83130081300813,61.83943089430894 48.83130081300813,61.83943089430894 48.729674796747965,61.890243902439025 48.67886178861789,61.99186991869919 48.67886178861789,62.24593495934959 48.67886178861789,62.60162601626016 48.67886178861789,63.109756097560975 48.67886178861789,63.5670731707317 48.67886178861789,63.97357723577235 48.67886178861789,64.27845528455285 48.67886178861789,64.48170731707317 48.67886178861789,64.6341463414634" fill="none" stroke="black" stroke-width="0.6"></polyline><polyline points="50.10162601626016,59.70528455284553 50.10162601626016,59.603658536585364 50,59.5020325203252 50,59.451219512195124 50,59.451219512195124 50,59.451219512195124 50,59.5020325203252 50.05081300813008,59.552845528455286" fill="none" stroke="black" stroke-width="0.6"></polyline><polyline points="63.00813008130081,58.6890243902439 63.00813008130081,58.6890243902439 62.95731707317073,58.6890243902439 62.95731707317073,58.6890243902439 62.90650406504065,58.790650406504064 62.90650406504065,59.146341463414636 62.90650406504065,59.857723577235774 62.90650406504065,60.77235772357724 62.90650406504065,61.636178861788615 62.95731707317073,62.39837398373984 62.95731707317073,62.90650406504065 62.95731707317073,63.3130081300813 62.95731707317073,63.5670731707317 63.00813008130081,63.71951219512195 63.05894308943089,63.82113821138211 63.05894308943089,63.82113821138211 63.109756097560975,63.82113821138211 63.16056910569105,63.77032520325203 63.262195121951216,63.5670731707317 63.41463414634146,63.3130081300813 63.668699186991866,62.855691056910565 63.922764227642276,62.39837398373984 64.27845528455285,61.890243902439025 64.6341463414634,61.43292682926829 64.98983739837398,61.17886178861789 65.29471544715447,61.077235772357724 65.65040650406505,61.077235772357724 65.90447154471545,61.28048780487805 66.20934959349593,61.58536585365854 66.46341463414635,61.9410569105691 66.61585365853658,62.296747967479675 66.71747967479675,62.65243902439024 66.8191056910569,63.109756097560975 66.8191056910569,63.46544715447154 66.869918699187,63.87195121951219 66.92073170731707,64.22764227642276 66.97154471544715,64.43089430894308 67.1239837398374,64.6341463414634 67.27642276422765,64.78658536585365 67.47967479674797,64.83739837398373" fill="none" stroke="black" stroke-width="0.6"></polyline><polyline points="83.28252032520325,61.636178861788615 83.33333333333333,61.53455284552845 83.33333333333333,61.43292682926829 83.33333333333333,61.28048780487805 83.33333333333333,61.1280487804878 83.33333333333333,61.02642276422764 83.23170731707317,60.92479674796748 82.92682926829268,60.823170731707314 82.52032520325203,60.823170731707314 81.91056910569105,60.8739837398374 81.19918699186992,61.077235772357724 80.64024390243902,61.38211382113821 80.1829268292683,61.73780487804878 79.82723577235772,62.09349593495935 79.67479674796748,62.5 79.6239837398374,62.95731707317073 79.72560975609755,63.3130081300813 80.03048780487805,63.5670731707317 80.4369918699187,63.71951219512195 80.9451219512195,63.71951219512195 81.5040650406504,63.5670731707317 82.11382113821138,63.3130081300813 82.72357723577235,62.90650406504065 83.23170731707317,62.55081300813008 83.63821138211382,62.19512195121951 83.99390243902438,61.83943089430894 84.1971544715447,61.58536585365854 84.29878048780488,61.43292682926829 84.29878048780488,61.33130081300813 84.29878048780488,61.33130081300813 84.29878048780488,61.33130081300813 84.2479674796748,61.38211382113821 84.2479674796748,61.58536585365854 84.2479674796748,61.890243902439025 84.2479674796748,62.39837398373984 84.2479674796748,63.00813008130081 84.34959349593495,63.77032520325203 84.55284552845528,64.6849593495935 84.7560975609756,65.59959349593495 85.01016260162602,66.51422764227642 85.16260162601625,67.47967479674797 85.21341463414635,68.34349593495935 85.21341463414635,69.10569105691057 85.11178861788618,69.8170731707317 84.90853658536585,70.32520325203252 84.70528455284553,70.73170731707317 84.45121951219512,71.03658536585365 84.09552845528455,71.23983739837398 83.63821138211382,71.34146341463415 83.130081300813,71.39227642276423 82.52032520325203,71.29065040650406" fill="none" stroke="black" stroke-width="0.6"></polyline><polyline points="82.52032520325203,71.29065040650406 81.91056910569105,71.13821138211382 81.30081300813008,70.9349593495935 80.79268292682927,70.83333333333333 80.33536585365853,70.73170731707317 79.82723577235772,70.630081300813 79.369918699187,70.57926829268293 78.86178861788618,70.47764227642276" fill="none" stroke="black" stroke-width="0.6"></polyline><polyline points="16.05691056910569,80.1321138211382 16.006097560975608,79.92886178861788 15.802845528455284,79.67479674796748 15.701219512195122,79.369918699187 15.59959349593496,79.01422764227642 15.548780487804878,78.5569105691057 15.548780487804878,77.9471544715447 15.548780487804878,77.23577235772358 15.65040650406504,76.47357723577235 15.802845528455284,75.71138211382113 16.006097560975608,75 16.36178861788618,74.28861788617886 16.71747967479675,73.72967479674797 17.17479674796748,73.17073170731707 17.58130081300813,72.91666666666667 17.9369918699187,72.76422764227642 18.241869918699187,72.66260162601625 18.495934959349594,72.66260162601625 18.69918699186992,72.8150406504065" fill="none" stroke="black" stroke-width="0.6"></polyline><polyline points="13.973577235772357,78.65853658536585 13.973577235772357,78.60772357723577 13.973577235772357,78.5569105691057 13.973577235772357,78.5060975609756 14.07520325203252,78.40447154471545 14.430894308943088,78.2520325203252 14.989837398373984,78.04878048780488 15.752032520325203,77.84552845528455 16.666666666666668,77.64227642276423 17.479674796747968,77.54065040650406 18.241869918699187,77.4390243902439" fill="none" stroke="black" stroke-width="0.6"></polyline><polyline points="30.945121951219512,79.57317073170732 31.097560975609756,79.57317073170732 31.19918699186992,79.6239837398374 31.30081300813008,79.6239837398374 31.402439024390244,79.6239837398374 31.60569105691057,79.6239837398374 31.808943089430894,79.57317073170732 32.11382113821138,79.47154471544715 32.36788617886179,79.3191056910569 32.672764227642276,79.16666666666667 33.079268292682926,78.86178861788618 33.38414634146341,78.5060975609756 33.739837398373986,78.15040650406505 33.99390243902439,77.74390243902438 34.146341463414636,77.38821138211382 34.2479674796748,77.1341463414634 34.298780487804876,76.880081300813 34.298780487804876,76.77845528455285 34.146341463414636,76.72764227642276 33.99390243902439,76.67682926829268 33.790650406504064,76.67682926829268 33.485772357723576,76.82926829268293 33.18089430894309,77.03252032520325 32.8760162601626,77.33739837398373 32.6219512195122,77.74390243902438 32.36788617886179,78.30284552845528 32.266260162601625,78.96341463414635 32.21544715447154,79.67479674796748 32.266260162601625,80.48780487804878 32.46951219512195,81.09756097560975 32.72357723577236,81.55487804878048 33.02845528455285,81.91056910569105 33.333333333333336,82.01219512195122 33.739837398373986,82.0630081300813 34.298780487804876,82.0630081300813 34.90853658536585,81.8089430894309 35.56910569105691,81.5040650406504 36.33130081300813,81.09756097560975" fill="none" stroke="black" stroke-width="0.6"></polyline><polyline points="47.40853658536585,74.23780487804878 47.510162601626014,74.13617886178862 47.5609756097561,74.08536585365853 47.61178861788618,74.08536585365853 47.71341463414634,74.08536585365853 47.86585365853659,74.33943089430895 48.01829268292683,74.6951219512195 48.170731707317074,75.30487804878048 48.27235772357724,76.0670731707317 48.323170731707314,76.880081300813 48.323170731707314,77.64227642276423 48.3739837398374,78.35365853658537 48.3739837398374,78.96341463414635 48.42479674796748,79.42073170731707 48.47560975609756,79.77642276422765 48.52642276422764,80.03048780487805 48.6280487804878,80.23373983739837 48.67886178861789,80.28455284552845 48.67886178861789,80.28455284552845 48.67886178861789,80.28455284552845 48.67886178861789,80.1321138211382 48.67886178861789,79.92886178861788 48.6280487804878,79.6239837398374 48.47560975609756,79.3191056910569 48.22154471544715,78.96341463414635 47.916666666666664,78.60772357723577 47.5609756097561,78.30284552845528 47.20528455284553,78.04878048780488 46.798780487804876,77.9471544715447 46.44308943089431,77.9471544715447 46.13821138211382,78.20121951219512 45.833333333333336,78.60772357723577 45.579268292682926,79.11585365853658 45.3760162601626,79.67479674796748 45.27439024390244,80.23373983739837 45.27439024390244,80.6910569105691 45.42682926829268,80.9959349593496 45.68089430894309,81.30081300813008 45.985772357723576,81.40243902439025 46.392276422764226,81.45325203252033 46.90040650406504,81.45325203252033 47.459349593495936,81.30081300813008 48.11991869918699,80.9959349593496 48.47560975609756,80.84349593495935" fill="none" stroke="black" stroke-width="0.6"></polyline><polyline points="65.70121951219512,76.72764227642276 65.85365853658537,76.67682926829268 66.0060975609756,76.47357723577235 66.10772357723577,76.3719512195122 66.15853658536585,76.3719512195122 66.15853658536585,76.3719512195122 66.10772357723577,76.3719512195122 65.95528455284553,76.42276422764228 65.65040650406505,76.57520325203252 65.34552845528455,76.82926829268293 65.04065040650406,77.1341463414634 64.78658536585365,77.48983739837398 64.48170731707317,77.89634146341463 64.27845528455285,78.40447154471545 64.22764227642276,78.86178861788618 64.17682926829268,79.26829268292683 64.27845528455285,79.57317073170732 64.48170731707317,79.77642276422765 64.73577235772358,79.8780487804878 65.09146341463415,79.92886178861788 65.44715447154472,79.92886178861788 65.90447154471545,79.8780487804878 66.41260162601625,79.67479674796748 66.97154471544715,79.47154471544715 67.32723577235772,79.3191056910569" fill="none" stroke="black" stroke-width="0.6"></polyline><polyline points="78.09959349593495,73.52642276422765 78.09959349593495,73.52642276422765 78.09959349593495,73.52642276422765 78.09959349593495,73.52642276422765 78.09959349593495,73.52642276422765 78.09959349593495,73.57723577235772 78.15040650406505,73.78048780487805 78.2520325203252,74.13617886178862 78.35365853658537,74.6951219512195 78.5060975609756,75.40650406504065 78.60772357723577,76.16869918699187 78.70934959349593,76.880081300813 78.8109756097561,77.38821138211382 78.8109756097561,77.84552845528455 78.86178861788618,78.20121951219512 78.91260162601625,78.45528455284553 78.96341463414635,78.60772357723577 78.96341463414635,78.70934959349593 79.01422764227642,78.76016260162602 79.01422764227642,78.76016260162602 79.01422764227642,78.8109756097561 79.01422764227642,78.8109756097561 79.01422764227642,78.76016260162602 79.01422764227642,78.70934959349593 79.0650406504065,78.5569105691057 79.16666666666667,78.30284552845528 79.3191056910569,77.9979674796748 79.57317073170732,77.6930894308943 79.82723577235772,77.48983739837398 80.23373983739837,77.28658536585365 80.64024390243902,77.1849593495935 81.09756097560975,77.1849593495935 81.60569105691057,77.28658536585365 82.11382113821138,77.48983739837398 82.52032520325203,77.74390243902438 82.77439024390243,77.9979674796748 82.92682926829268,78.30284552845528 82.92682926829268,78.5569105691057 82.92682926829268,78.76016260162602 82.77439024390243,78.96341463414635 82.52032520325203,79.21747967479675 82.26626016260163,79.369918699187 81.85975609756098,79.52235772357723 81.40243902439025,79.6239837398374 80.9451219512195,79.67479674796748 80.53861788617886,79.72560975609755 80.03048780487805,79.72560975609755 79.67479674796748,79.72560975609755 79.369918699187,79.67479674796748 79.0650406504065,79.57317073170732 78.91260162601625,79.52235772357723" fill="none" stroke="black" stroke-width="0.6"></polyline><polyline points="78.91260162601625,79.52235772357723" fill="none" stroke="black" stroke-width="0.6"></polyline><polyline points="17.1239837398374,92.27642276422765 17.1239837398374,92.22560975609755 17.022357723577237,92.1239837398374 16.869918699186993,92.02235772357723 16.81910569105691,91.869918699187 16.71747967479675,91.66666666666667 16.666666666666668,91.51422764227642 16.565040650406505,91.3109756097561 16.463414634146343,91.15853658536585 16.3109756097561,91.0060975609756 16.05691056910569,90.95528455284553 15.752032520325203,91.0060975609756 15.396341463414634,91.15853658536585 15.040650406504065,91.51422764227642 14.634146341463413,91.97154471544715 14.380081300813007,92.47967479674797 14.176829268292682,93.03861788617886 14.07520325203252,93.64837398373983 14.07520325203252,94.15650406504065 14.227642276422763,94.46138211382113 14.430894308943088,94.66463414634146 14.634146341463413,94.66463414634146 14.939024390243903,94.66463414634146 15.24390243902439,94.46138211382113 15.548780487804878,94.10569105691057 15.853658536585366,93.69918699186992 16.209349593495933,93.14024390243902 16.463414634146343,92.53048780487805 16.71747967479675,91.92073170731707 16.869918699186993,91.36178861788618 16.920731707317074,91.0060975609756 16.971544715447155,90.85365853658536 16.971544715447155,90.85365853658536 16.971544715447155,90.85365853658536 16.971544715447155,91.10772357723577 16.971544715447155,91.5650406504065 17.073170731707318,92.22560975609755 17.17479674796748,92.98780487804878 17.378048780487806,93.75 17.58130081300813,94.46138211382113 17.88617886178862,95.0711382113821 18.241869918699187,95.52845528455285 18.69918699186992,95.83333333333333 19.258130081300813,96.03658536585365 19.91869918699187,96.13821138211382 20.274390243902438,96.13821138211382" fill="none" stroke="black" stroke-width="0.6"></polyline></svg>