<svg height="100" width="100" preserveAspectRatio="xMidYMid meet"><polyline points="50,50.203252032520325 49.949186991869915,50.203252032520325 49.89837398373984,50.203252032520325 49.89837398373984,50.203252032520325 49.84756097560975,50.203252032520325 49.84756097560975,50.203252032520325 49.84756097560975,50.203252032520325 49.796747967479675,50.203252032520325 49.796747967479675,50.2540650406504 49.796747967479675,50.2540650406504 49.796747967479675,50.2540650406504 49.796747967479675,50.2540650406504 49.796747967479675,50.30487804878049 49.796747967479675,50.30487804878049 49.84756097560975,50.30487804878049 49.84756097560975,50.30487804878049 49.89837398373984,50.30487804878049 49.949186991869915,50.30487804878049 50.05081300813008,50.30487804878049 50.10162601626016,50.2540650406504 50.203252032520325,50.15243902439024 50.30487804878049,50.05081300813008 50.45731707317073,49.949186991869915 50.55894308943089,49.796747967479675 50.66056910569105,49.69512195121951 50.8130081300813,49.49186991869919 50.86382113821138,49.33943089430894 50.96544715447154,49.1869918699187 51.016260162601625,49.03455284552845 51.016260162601625,48.88211382113821 51.016260162601625,48.78048780487805 51.016260162601625,48.67886178861789 51.016260162601625,48.577235772357724 50.91463414634146,48.47560975609756 50.86382113821138,48.3739837398374 50.762195121951216,48.323170731707314 50.609756097560975,48.27235772357724 50.50813008130081,48.170731707317074 50.355691056910565,48.11991869918699 50.2540650406504,48.11991869918699 50.10162601626016,48.06910569105691 49.949186991869915,48.01829268292683 49.796747967479675,48.01829268292683 49.59349593495935,47.96747967479675 49.4410569105691,47.96747967479675 49.23780487804878,47.96747967479675 49.08536585365854,47.96747967479675 48.88211382113821,48.01829268292683 48.729674796747965,48.06910569105691 48.52642276422764,48.11991869918699 48.3739837398374,48.170731707317074" fill="none" stroke="black" stroke-width="0.6"></polyline><polyline points="48.3739837398374,48.170731707317074 48.22154471544715,48.22154471544715 48.06910569105691,48.323170731707314 47.96747967479675,48.3739837398374 47.8150406504065,48.47560975609756 47.66260162601626,48.52642276422764 47.510162601626014,48.67886178861789 47.357723577235774,48.78048780487805 47.25609756097561,48.93292682926829 47.103658536585364,49.03455284552845 47.0020325203252,49.1869918699187 46.90040650406504,49.33943089430894 46.798780487804876,49.49186991869919 46.697154471544714,49.64430894308943 46.646341463414636,49.796747967479675 46.59552845528455,49.949186991869915 46.49390243902439,50.15243902439024 46.49390243902439,50.30487804878049 46.44308943089431,50.40650406504065 46.44308943089431,50.609756097560975 46.44308943089431,50.71138211382114 46.44308943089431,50.86382113821138 46.44308943089431,51.016260162601625 46.44308943089431,51.168699186991866 46.49390243902439,51.32113821138211 46.54471544715447,51.52439024390244 46.59552845528455,51.72764227642276 46.646341463414636,51.93089430894309 46.697154471544714,52.13414634146341 46.798780487804876,52.33739837398374 46.84959349593496,52.540650406504064 46.951219512195124,52.74390243902439 47.0020325203252,52.947154471544714 47.103658536585364,53.15040650406504 47.20528455284553,53.302845528455286 47.25609756097561,53.50609756097561 47.357723577235774,53.65853658536585 47.459349593495936,53.8109756097561 47.5609756097561,53.91260162601626 47.66260162601626,54.014227642276424 47.764227642276424,54.11585365853659 47.86585365853659,54.21747967479675 48.01829268292683,54.31910569105691 48.11991869918699,54.420731707317074 48.27235772357724,54.47154471544715 48.42479674796748,54.573170731707314 48.577235772357724,54.6239837398374 48.729674796747965,54.67479674796748 48.88211382113821,54.72560975609756 49.03455284552845,54.77642276422764 49.1869918699187,54.77642276422764" fill="none" stroke="black" stroke-width="0.6"></polyline><polyline points="49.1869918699187,54.77642276422764 49.390243902439025,54.827235772357724 49.59349593495935,54.827235772357724 49.796747967479675,54.827235772357724 50,54.827235772357724 50.203252032520325,54.827235772357724 50.40650406504065,54.77642276422764 50.66056910569105,54.72560975609756 50.91463414634146,54.67479674796748 51.168699186991866,54.6239837398374 51.422764227642276,54.573170731707314 51.72764227642276,54.47154471544715 52.03252032520325,54.36991869918699 52.33739837398374,54.26829268292683 52.642276422764226,54.166666666666664 52.896341463414636,54.0650406504065 53.15040650406504,53.96341463414634 53.45528455284553,53.8109756097561 53.760162601626014,53.709349593495936 54.014227642276424,53.607723577235774 54.31910569105691,53.50609756097561 54.573170731707314,53.40447154471545 54.8780487804878,53.2520325203252 55.08130081300813,53.15040650406504 55.33536585365854,53.048780487804876 55.58943089430894,52.896341463414636 55.792682926829265,52.79471544715447 55.94512195121951,52.69308943089431 56.14837398373984,52.59146341463415 56.25,52.489837398373986 56.40243902439024,52.38821138211382 56.55487804878049,52.235772357723576 56.65650406504065,52.13414634146341 56.75813008130081,51.981707317073166 56.859756097560975,51.829268292682926 56.91056910569105,51.67682926829268 56.96138211382114,51.52439024390244 57.012195121951216,51.37195121951219 57.012195121951216,51.21951219512195 57.0630081300813,51.0670731707317 57.0630081300813,50.91463414634146 57.11382113821138,50.71138211382114 57.11382113821138,50.55894308943089 57.16463414634146,50.30487804878049 57.16463414634146,50.10162601626016 57.21544715447154,49.84756097560975 57.21544715447154,49.542682926829265 57.21544715447154,49.33943089430894 57.21544715447154,49.08536585365854 57.16463414634146,48.83130081300813 57.11382113821138,48.6280487804878" fill="none" stroke="black" stroke-width="0.6"></polyline><polyline points="57.11382113821138,48.6280487804878 57.0630081300813,48.3739837398374 57.012195121951216,48.11991869918699 56.91056910569105,47.86585365853659 56.859756097560975,47.61178861788618 56.75813008130081,47.357723577235774 56.70731707317073,47.103658536585364 56.605691056910565,46.84959349593496 56.5040650406504,46.646341463414636 56.40243902439024,46.44308943089431 56.30081300813008,46.239837398373986 56.199186991869915,46.03658536585366 56.046747967479675,45.88414634146341 55.94512195121951,45.73170731707317 55.792682926829265,45.579268292682926 55.6910569105691,45.3760162601626 55.53861788617886,45.172764227642276 55.386178861788615,44.96951219512195 55.233739837398375,44.766260162601625 55.03048780487805,44.61382113821138 54.8780487804878,44.41056910569105 54.72560975609756,44.25813008130081 54.52235772357724,44.105691056910565 54.36991869918699,43.953252032520325 54.21747967479675,43.85162601626016 54.0650406504065,43.699186991869915 53.86178861788618,43.546747967479675 53.709349593495936,43.39430894308943 53.50609756097561,43.24186991869919 53.302845528455286,43.03861788617886 53.048780487804876,42.886178861788615 52.84552845528455,42.78455284552845 52.59146341463415,42.63211382113821 52.33739837398374,42.479674796747965 52.13414634146341,42.3780487804878 51.880081300813,42.27642276422764 51.6260162601626,42.17479674796748 51.37195121951219,42.073170731707314 51.11788617886179,41.97154471544715 50.86382113821138,41.920731707317074 50.609756097560975,41.81910569105691 50.355691056910565,41.76829268292683 50.10162601626016,41.71747967479675 49.796747967479675,41.71747967479675 49.542682926829265,41.666666666666664 49.28861788617886,41.666666666666664 48.983739837398375,41.666666666666664 48.729674796747965,41.666666666666664 48.42479674796748,41.666666666666664 48.11991869918699,41.666666666666664 47.8150406504065,41.71747967479675" fill="none" stroke="black" stroke-width="0.6"></polyline><polyline points="47.8150406504065,41.71747967479675 47.510162601626014,41.76829268292683 47.20528455284553,41.81910569105691 46.90040650406504,41.86991869918699 46.59552845528455,41.97154471544715 46.290650406504064,42.073170731707314 45.985772357723576,42.1239837398374 45.68089430894309,42.27642276422764 45.3760162601626,42.3780487804878 45.07113821138211,42.53048780487805 44.8170731707317,42.63211382113821 44.512195121951216,42.78455284552845 44.25813008130081,42.9369918699187 44.05487804878049,43.03861788617886 43.80081300813008,43.1910569105691 43.64837398373984,43.292682926829265 43.44512195121951,43.39430894308943 43.24186991869919,43.546747967479675 43.08943089430894,43.699186991869915 42.886178861788615,43.85162601626016 42.68292682926829,44.0040650406504 42.479674796747965,44.15650406504065 42.327235772357724,44.359756097560975 42.17479674796748,44.5630081300813 42.02235772357724,44.71544715447154 41.86991869918699,44.86788617886179 41.71747967479675,45.07113821138211 41.61585365853659,45.27439024390244 41.46341463414634,45.47764227642276 41.3109756097561,45.73170731707317 41.209349593495936,45.985772357723576 41.107723577235774,46.1890243902439 41.00609756097561,46.44308943089431 40.90447154471545,46.646341463414636 40.853658536585364,46.90040650406504 40.7520325203252,47.15447154471545 40.701219512195124,47.459349593495936 40.59959349593496,47.764227642276424 40.4979674796748,48.06910569105691 40.447154471544714,48.323170731707314 40.396341463414636,48.577235772357724 40.34552845528455,48.88211382113821 40.29471544715447,49.08536585365854 40.29471544715447,49.33943089430894 40.24390243902439,49.64430894308943 40.24390243902439,49.89837398373984 40.24390243902439,50.203252032520325 40.24390243902439,50.45731707317073 40.24390243902439,50.71138211382114 40.24390243902439,51.016260162601625 40.24390243902439,51.27032520325203" fill="none" stroke="black" stroke-width="0.6"></polyline><polyline points="40.24390243902439,51.27032520325203 40.24390243902439,51.52439024390244 40.24390243902439,51.72764227642276 40.24390243902439,52.03252032520325 40.29471544715447,52.235772357723576 40.29471544715447,52.489837398373986 40.34552845528455,52.69308943089431 40.396341463414636,52.896341463414636 40.447154471544714,53.15040650406504 40.4979674796748,53.302845528455286 40.548780487804876,53.50609756097561 40.59959349593496,53.709349593495936 40.65040650406504,53.91260162601626 40.701219512195124,54.11585365853659 40.7520325203252,54.36991869918699 40.802845528455286,54.573170731707314 40.853658536585364,54.77642276422764 40.90447154471545,55.03048780487805 41.00609756097561,55.28455284552845 41.05691056910569,55.48780487804878 41.15853658536585,55.74186991869919 41.209349593495936,55.94512195121951 41.3109756097561,56.09756097560975 41.41260162601626,56.35162601626016 41.514227642276424,56.55487804878049 41.61585365853659,56.75813008130081 41.71747967479675,56.96138211382114 41.81910569105691,57.16463414634146 41.97154471544715,57.418699186991866 42.1239837398374,57.62195121951219 42.27642276422764,57.825203252032516 42.479674796747965,58.02845528455284 42.68292682926829,58.231707317073166 42.83536585365854,58.38414634146341 42.98780487804878,58.536585365853654 43.1910569105691,58.739837398373986 43.34349593495935,58.892276422764226 43.546747967479675,59.04471544715447 43.699186991869915,59.197154471544714 43.85162601626016,59.34959349593496 44.05487804878049,59.5020325203252 44.25813008130081,59.65447154471545 44.46138211382114,59.80691056910569 44.66463414634146,59.90853658536585 44.86788617886179,60.0609756097561 45.07113821138211,60.16260162601626 45.27439024390244,60.21341463414634 45.52845528455285,60.3150406504065 45.73170731707317,60.416666666666664 45.9349593495935,60.51829268292683 46.13821138211382,60.56910569105691" fill="none" stroke="black" stroke-width="0.6"></polyline><polyline points="46.13821138211382,60.56910569105691 46.34146341463415,60.670731707317074 46.54471544715447,60.72154471544715 46.798780487804876,60.823170731707314 47.0020325203252,60.8739837398374 47.20528455284553,60.97560975609756 47.40853658536585,61.02642276422764 47.61178861788618,61.077235772357724 47.8150406504065,61.17886178861789 48.06910569105691,61.229674796747965 48.22154471544715,61.28048780487805 48.42479674796748,61.38211382113821 48.67886178861789,61.43292682926829 48.88211382113821,61.483739837398375 49.08536585365854,61.483739837398375 49.33943089430894,61.53455284552845 49.59349593495935,61.53455284552845 49.796747967479675,61.53455284552845 50.10162601626016,61.53455284552845 50.30487804878049,61.53455284552845 50.55894308943089,61.483739837398375 50.8130081300813,61.483739837398375 51.0670731707317,61.43292682926829 51.32113821138211,61.38211382113821 51.575203252032516,61.33130081300813 51.829268292682926,61.33130081300813 52.083333333333336,61.28048780487805 52.33739837398374,61.229674796747965 52.59146341463415,61.17886178861789 52.84552845528455,61.17886178861789 53.09959349593496,61.1280487804878 53.302845528455286,61.077235772357724 53.607723577235774,61.02642276422764 53.86178861788618,60.97560975609756 54.0650406504065,60.8739837398374 54.36991869918699,60.77235772357724 54.6239837398374,60.670731707317074 54.8780487804878,60.51829268292683 55.18292682926829,60.36585365853659 55.4369918699187,60.264227642276424 55.6910569105691,60.11178861788618 55.99593495934959,59.959349593495936 56.30081300813008,59.857723577235774 56.55487804878049,59.75609756097561 56.80894308943089,59.603658536585364 57.0630081300813,59.5020325203252 57.3170731707317,59.34959349593496 57.57113821138211,59.197154471544714 57.825203252032516,59.04471544715447 58.02845528455284,58.892276422764226 58.28252032520325,58.739837398373986" fill="none" stroke="black" stroke-width="0.6"></polyline><polyline points="58.28252032520325,58.739837398373986 58.43495934959349,58.63821138211382 58.63821138211382,58.485772357723576 58.84146341463415,58.33333333333333 58.99390243902439,58.18089430894309 59.197154471544714,58.02845528455284 59.40040650406504,57.8760162601626 59.552845528455286,57.72357723577235 59.75609756097561,57.57113821138211 59.959349593495936,57.418699186991866 60.11178861788618,57.266260162601625 60.264227642276424,57.11382113821138 60.46747967479675,56.91056910569105 60.61991869918699,56.70731707317073 60.823170731707314,56.5040650406504 60.97560975609756,56.30081300813008 61.17886178861789,56.046747967479675 61.33130081300813,55.84349593495935 61.483739837398375,55.58943089430894 61.636178861788615,55.386178861788615 61.83943089430894,55.13211382113821 61.99186991869919,54.92886178861789 62.14430894308943,54.67479674796748 62.296747967479675,54.47154471544715 62.449186991869915,54.166666666666664 62.55081300813008,53.96341463414634 62.703252032520325,53.709349593495936 62.80487804878049,53.45528455284553 62.90650406504065,53.302845528455286 63.00813008130081,53.09959349593496 63.05894308943089,52.947154471544714 63.05894308943089,52.74390243902439 63.109756097560975,52.540650406504064 63.16056910569105,52.38821138211382 63.16056910569105,52.1849593495935 63.16056910569105,51.93089430894309 63.16056910569105,51.72764227642276 63.21138211382114,51.47357723577235 63.21138211382114,51.27032520325203 63.21138211382114,51.016260162601625 63.21138211382114,50.8130081300813 63.21138211382114,50.55894308943089 63.21138211382114,50.30487804878049 63.16056910569105,50.10162601626016 63.16056910569105,49.796747967479675 63.16056910569105,49.542682926829265 63.109756097560975,49.28861788617886 63.05894308943089,49.03455284552845 63.05894308943089,48.78048780487805 63.00813008130081,48.577235772357724 62.95731707317073,48.27235772357724" fill="none" stroke="black" stroke-width="0.6"></polyline><polyline points="62.95731707317073,48.27235772357724 62.90650406504065,48.01829268292683 62.855691056910565,47.71341463414634 62.80487804878049,47.40853658536585 62.7540650406504,47.15447154471545 62.7540650406504,46.90040650406504 62.703252032520325,46.646341463414636 62.703252032520325,46.44308943089431 62.65243902439024,46.239837398373986 62.60162601626016,45.985772357723576 62.55081300813008,45.73170731707317 62.449186991869915,45.47764227642276 62.34756097560975,45.22357723577235 62.296747967479675,44.96951219512195 62.14430894308943,44.66463414634146 62.042682926829265,44.359756097560975 61.890243902439025,44.05487804878049 61.73780487804878,43.75 61.58536585365854,43.44512195121951 61.483739837398375,43.1910569105691 61.33130081300813,42.886178861788615 61.17886178861789,42.63211382113821 61.02642276422764,42.42886178861789 60.8739837398374,42.17479674796748 60.72154471544715,41.86991869918699 60.56910569105691,41.61585365853659 60.36585365853659,41.3109756097561 60.21341463414634,41.00609756097561 60.0609756097561,40.701219512195124 59.90853658536585,40.447154471544714 59.70528455284553,40.19308943089431 59.552845528455286,39.989837398373986 59.40040650406504,39.78658536585366 59.197154471544714,39.583333333333336 59.04471544715447,39.38008130081301 58.84146341463415,39.176829268292686 58.63821138211382,38.97357723577235 58.38414634146341,38.77032520325203 58.18089430894309,38.5670731707317 57.92682926829268,38.36382113821138 57.72357723577235,38.21138211382114 57.46951219512195,38.00813008130081 57.21544715447154,37.855691056910565 57.012195121951216,37.703252032520325 56.75813008130081,37.55081300813008 56.55487804878049,37.39837398373984 56.30081300813008,37.24593495934959 56.046747967479675,37.09349593495935 55.792682926829265,36.9410569105691 55.48780487804878,36.83943089430894 55.233739837398375,36.6869918699187" fill="none" stroke="black" stroke-width="0.6"></polyline><polyline points="55.233739837398375,36.6869918699187 54.92886178861789,36.53455284552845 54.67479674796748,36.43292682926829 54.420731707317074,36.33130081300813 54.11585365853659,36.17886178861789 53.86178861788618,36.1280487804878 53.607723577235774,36.02642276422764 53.302845528455286,35.92479674796748 52.9979674796748,35.8739837398374 52.74390243902439,35.77235772357724 52.4390243902439,35.72154471544715 52.1849593495935,35.61991869918699 51.880081300813,35.56910569105691 51.6260162601626,35.51829268292683 51.32113821138211,35.416666666666664 51.016260162601625,35.36585365853659 50.71138211382114,35.3150406504065 50.40650406504065,35.264227642276424 50.05081300813008,35.264227642276424 49.74593495934959,35.21341463414634 49.4410569105691,35.21341463414634 49.136178861788615,35.21341463414634 48.83130081300813,35.21341463414634 48.577235772357724,35.21341463414634 48.27235772357724,35.21341463414634 47.96747967479675,35.21341463414634 47.71341463414634,35.21341463414634 47.40853658536585,35.21341463414634 47.103658536585364,35.21341463414634 46.798780487804876,35.264227642276424 46.49390243902439,35.3150406504065 46.1890243902439,35.36585365853659 45.88414634146341,35.416666666666664 45.579268292682926,35.46747967479675 45.325203252032516,35.51829268292683 45.02032520325203,35.56910569105691 44.71544715447154,35.61991869918699 44.41056910569105,35.72154471544715 44.05487804878049,35.823170731707314 43.75,35.92479674796748 43.39430894308943,36.02642276422764 43.08943089430894,36.1280487804878 42.78455284552845,36.28048780487805 42.479674796747965,36.38211382113821 42.17479674796748,36.483739837398375 41.81910569105691,36.636178861788615 41.514227642276424,36.78861788617886 41.209349593495936,36.99186991869919 40.802845528455286,37.19512195121951 40.4979674796748,37.39837398373984 40.142276422764226,37.60162601626016" fill="none" stroke="black" stroke-width="0.6"></polyline><polyline points="40.142276422764226,37.60162601626016 39.735772357723576,37.80487804878049 39.43089430894309,38.05894308943089 39.07520325203252,38.262195121951216 38.77032520325203,38.46544715447154 38.46544715447154,38.668699186991866 38.21138211382114,38.87195121951219 37.90650406504065,39.07520325203252 37.65243902439024,39.27845528455285 37.449186991869915,39.48170731707317 37.296747967479675,39.735772357723576 37.09349593495935,39.9390243902439 36.9410569105691,40.142276422764226 36.78861788617886,40.396341463414636 36.6869918699187,40.59959349593496 36.53455284552845,40.853658536585364 36.38211382113821,41.15853658536585 36.28048780487805,41.41260162601626 36.1280487804878,41.71747967479675 36.02642276422764,41.97154471544715 35.92479674796748,42.27642276422764 35.77235772357724,42.53048780487805 35.670731707317074,42.83536585365854 35.56910569105691,43.08943089430894 35.46747967479675,43.44512195121951 35.36585365853659,43.75 35.3150406504065,44.105691056910565 35.21341463414634,44.41056910569105 35.11178861788618,44.766260162601625 35.010162601626014,45.07113821138211 34.959349593495936,45.3760162601626 34.90853658536585,45.68089430894309 34.80691056910569,46.03658536585366 34.75609756097561,46.34146341463415 34.70528455284553,46.697154471544714 34.65447154471545,47.052845528455286 34.552845528455286,47.40853658536585 34.5020325203252,47.71341463414634 34.451219512195124,48.01829268292683 34.40040650406504,48.42479674796748 34.34959349593496,48.729674796747965 34.34959349593496,49.03455284552845 34.298780487804876,49.390243902439025 34.298780487804876,49.69512195121951 34.2479674796748,50.05081300813008 34.2479674796748,50.40650406504065 34.2479674796748,50.762195121951216 34.2479674796748,51.11788617886179 34.2479674796748,51.47357723577235 34.2479674796748,51.77845528455284 34.2479674796748,52.083333333333336" fill="none" stroke="black" stroke-width="0.6"></polyline><polyline points="34.2479674796748,52.083333333333336 34.2479674796748,52.4390243902439 34.298780487804876,52.74390243902439 34.34959349593496,53.09959349593496 34.40040650406504,53.50609756097561 34.451219512195124,53.86178861788618 34.451219512195124,54.21747967479675 34.552845528455286,54.573170731707314 34.603658536585364,54.827235772357724 34.65447154471545,55.13211382113821 34.75609756097561,55.48780487804878 34.857723577235774,55.792682926829265 34.959349593495936,56.046747967479675 35.11178861788618,56.40243902439024 35.264227642276424,56.70731707317073 35.416666666666664,57.012195121951216 35.56910569105691,57.36788617886179 35.72154471544715,57.672764227642276 35.8739837398374,58.02845528455284 36.077235772357724,58.33333333333333 36.229674796747965,58.63821138211382 36.38211382113821,58.94308943089431 36.58536585365854,59.298780487804876 36.73780487804878,59.552845528455286 36.890243902439025,59.857723577235774 37.09349593495935,60.16260162601626 37.24593495934959,60.46747967479675 37.449186991869915,60.77235772357724 37.65243902439024,61.077235772357724 37.80487804878049,61.38211382113821 38.00813008130081,61.6869918699187 38.21138211382114,61.9410569105691 38.46544715447154,62.19512195121951 38.668699186991866,62.449186991869915 38.87195121951219,62.7540650406504 39.07520325203252,63.00813008130081 39.27845528455285,63.262195121951216 39.48170731707317,63.516260162601625 39.6849593495935,63.77032520325203 39.88821138211382,63.97357723577235 40.09146341463415,64.22764227642276 40.29471544715447,64.43089430894308 40.548780487804876,64.6341463414634 40.802845528455286,64.83739837398373 41.00609756097561,65.04065040650406 41.209349593495936,65.2439024390244 41.46341463414634,65.4979674796748 41.666666666666664,65.70121951219512 41.920731707317074,65.90447154471545 42.17479674796748,66.10772357723577 42.42886178861789,66.3109756097561" fill="none" stroke="black" stroke-width="0.6"></polyline><polyline points="42.42886178861789,66.3109756097561 42.68292682926829,66.46341463414635 42.9369918699187,66.61585365853658 43.140243902439025,66.76829268292683 43.44512195121951,66.92073170731707 43.699186991869915,67.07317073170732 43.953252032520325,67.17479674796748 44.25813008130081,67.32723577235772 44.5630081300813,67.42886178861788 44.86788617886179,67.58130081300813 45.22357723577235,67.6321138211382 45.52845528455285,67.73373983739837 45.833333333333336,67.78455284552845 46.1890243902439,67.88617886178862 46.49390243902439,67.9369918699187 46.84959349593496,67.98780487804878 47.25609756097561,68.03861788617886 47.5609756097561,68.08943089430895 47.96747967479675,68.14024390243902 48.323170731707314,68.14024390243902 48.67886178861789,68.1910569105691 49.08536585365854,68.1910569105691 49.49186991869919,68.24186991869918 49.796747967479675,68.24186991869918 50.15243902439024,68.29268292682927 50.50813008130081,68.34349593495935 50.86382113821138,68.34349593495935 51.168699186991866,68.34349593495935 51.52439024390244,68.39430894308943 51.880081300813,68.39430894308943 52.1849593495935,68.39430894308943 52.489837398373986,68.39430894308943 52.79471544715447,68.39430894308943 53.09959349593496,68.39430894308943 53.50609756097561,68.34349593495935 53.8109756097561,68.29268292682927 54.11585365853659,68.24186991869918 54.47154471544715,68.14024390243902 54.827235772357724,68.03861788617886 55.13211382113821,67.9369918699187 55.53861788617886,67.78455284552845 55.84349593495935,67.6321138211382 56.199186991869915,67.47967479674797 56.605691056910565,67.27642276422765 56.91056910569105,67.1239837398374 57.266260162601625,66.92073170731707 57.57113821138211,66.76829268292683 57.92682926829268,66.61585365853658 58.231707317073166,66.46341463414635 58.58739837398374,66.26016260162602 58.94308943089431,66.10772357723577" fill="none" stroke="black" stroke-width="0.6"></polyline><polyline points="58.94308943089431,66.10772357723577 59.2479674796748,65.90447154471545 59.603658536585364,65.65040650406505 59.959349593495936,65.44715447154472 60.264227642276424,65.2439024390244 60.61991869918699,64.98983739837398 60.97560975609756,64.73577235772358 61.28048780487805,64.48170731707317 61.636178861788615,64.27845528455285 61.9410569105691,64.02439024390243 62.296747967479675,63.77032520325203 62.60162601626016,63.46544715447154 62.90650406504065,63.16056910569105 63.21138211382114,62.90650406504065 63.5670731707317,62.60162601626016 63.82113821138211,62.296747967479675 64.17682926829268,61.99186991869919 64.48170731707317,61.73780487804878 64.73577235772358,61.43292682926829 65.04065040650406,61.1280487804878 65.29471544715447,60.77235772357724 65.54878048780488,60.46747967479675 65.85365853658537,60.11178861788618 66.10772357723577,59.80691056910569 66.36178861788618,59.451219512195124 66.61585365853658,59.04471544715447 66.869918699187,58.6890243902439 67.07317073170732,58.33333333333333 67.32723577235772,57.92682926829268 67.53048780487805,57.57113821138211 67.73373983739837,57.21544715447154 67.98780487804878,56.75813008130081 68.1910569105691,56.35162601626016 68.4451219512195,55.84349593495935 68.69918699186992,55.33536585365854 68.90243902439025,54.8780487804878 69.15650406504065,54.36991869918699 69.35975609756098,53.86178861788618 69.51219512195122,53.45528455284553 69.61382113821138,53.048780487804876 69.76626016260163,52.642276422764226 69.8170731707317,52.235772357723576 69.91869918699187,51.829268292682926 69.96951219512195,51.37195121951219 70.02032520325203,51.0670731707317 70.02032520325203,50.66056910569105 70.0711382113821,50.2540650406504 70.0711382113821,49.89837398373984 70.0711382113821,49.49186991869919 70.0711382113821,49.08536585365854 70.0711382113821,48.67886178861789" fill="none" stroke="black" stroke-width="0.6"></polyline><polyline points="70.0711382113821,48.67886178861789 70.02032520325203,48.323170731707314 69.91869918699187,47.916666666666664 69.86788617886178,47.5609756097561 69.8170731707317,47.15447154471545 69.71544715447155,46.697154471544714 69.61382113821138,46.290650406504064 69.5630081300813,45.88414634146341 69.46138211382113,45.3760162601626 69.35975609756098,44.96951219512195 69.20731707317073,44.512195121951216 69.05487804878048,44.05487804878049 68.90243902439025,43.59756097560975 68.69918699186992,43.03861788617886 68.4451219512195,42.53048780487805 68.1910569105691,42.073170731707314 67.88617886178862,41.61585365853659 67.6321138211382,41.15853658536585 67.3780487804878,40.701219512195124 67.17479674796748,40.29471544715447 66.869918699187,39.9390243902439 66.61585365853658,39.53252032520325 66.36178861788618,39.1260162601626 66.0569105691057,38.71951219512195 65.7520325203252,38.3130081300813 65.44715447154472,37.95731707317073 65.14227642276423,37.55081300813008 64.83739837398373,37.14430894308943 64.48170731707317,36.73780487804878 64.17682926829268,36.33130081300813 63.82113821138211,35.97560975609756 63.516260162601625,35.670731707317074 63.21138211382114,35.3150406504065 62.95731707317073,35.010162601626014 62.703252032520325,34.65447154471545 62.39837398373984,34.298780487804876 62.14430894308943,33.99390243902439 61.83943089430894,33.6890243902439 61.53455284552845,33.333333333333336 61.229674796747965,33.02845528455285 60.92479674796748,32.672764227642276 60.61991869918699,32.36788617886179 60.264227642276424,32.0630081300813 59.90853658536585,31.758130081300813 59.603658536585364,31.554878048780488 59.2479674796748,31.30081300813008 58.892276422764226,31.046747967479675 58.58739837398374,30.84349593495935 58.231707317073166,30.589430894308943 57.825203252032516,30.335365853658537 57.418699186991866,30.132113821138212" fill="none" stroke="black" stroke-width="0.6"></polyline><polyline points="57.418699186991866,30.132113821138212 57.0630081300813,29.979674796747968 56.70731707317073,29.776422764227643 56.35162601626016,29.67479674796748 55.99593495934959,29.573170731707318 55.53861788617886,29.420731707317074 55.13211382113821,29.369918699186993 54.67479674796748,29.268292682926827 54.26829268292683,29.217479674796746 53.8109756097561,29.166666666666664 53.40447154471545,29.115853658536583 52.896341463414636,29.0650406504065 52.489837398373986,29.0650406504065 52.083333333333336,29.01422764227642 51.67682926829268,29.01422764227642 51.27032520325203,28.96341463414634 50.8130081300813,28.96341463414634 50.355691056910565,28.912601626016258 49.949186991869915,28.912601626016258 49.542682926829265,28.912601626016258 49.03455284552845,28.861788617886177 48.6280487804878,28.861788617886177 48.11991869918699,28.861788617886177 47.61178861788618,28.912601626016258 47.15447154471545,28.96341463414634 46.646341463414636,29.0650406504065 46.08739837398374,29.166666666666664 45.52845528455285,29.31910569105691 44.96951219512195,29.471544715447155 44.359756097560975,29.6239837398374 43.85162601626016,29.776422764227643 43.292682926829265,29.979674796747968 42.733739837398375,30.132113821138212 42.22560975609756,30.335365853658537 41.666666666666664,30.538617886178862 41.107723577235774,30.79268292682927 40.59959349593496,31.046747967479675 40.040650406504064,31.30081300813008 39.53252032520325,31.554878048780488 39.02439024390244,31.859756097560975 38.5670731707317,32.11382113821138 38.05894308943089,32.418699186991866 37.60162601626016,32.72357723577236 37.14430894308943,33.02845528455285 36.6869918699187,33.38414634146341 36.28048780487805,33.6890243902439 35.77235772357724,34.04471544715447 35.3150406504065,34.451219512195124 34.857723577235774,34.857723577235774 34.451219512195124,35.264227642276424 33.99390243902439,35.670731707317074" fill="none" stroke="black" stroke-width="0.6"></polyline><polyline points="33.99390243902439,35.670731707317074 33.53658536585366,36.02642276422764 33.13008130081301,36.43292682926829 32.72357723577236,36.78861788617886 32.36788617886179,37.19512195121951 32.012195121951216,37.55081300813008 31.65650406504065,37.95731707317073 31.351626016260163,38.3130081300813 30.995934959349594,38.668699186991866 30.691056910569106,39.07520325203252 30.4369918699187,39.43089430894309 30.132113821138212,39.88821138211382 29.878048780487806,40.24390243902439 29.6239837398374,40.701219512195124 29.31910569105691,41.209349593495936 29.0650406504065,41.71747967479675 28.861788617886177,42.22560975609756 28.60772357723577,42.733739837398375 28.404471544715445,43.1910569105691 28.20121951219512,43.75 27.947154471544714,44.30894308943089 27.79471544715447,44.8170731707317 27.591463414634145,45.325203252032516 27.4390243902439,45.833333333333336 27.33739837398374,46.34146341463415 27.184959349593495,46.84959349593496 27.03252032520325,47.357723577235774 26.93089430894309,47.86585365853659 26.829268292682926,48.3739837398374 26.778455284552845,48.88211382113821 26.676829268292682,49.28861788617886 26.6260162601626,49.796747967479675 26.57520325203252,50.30487804878049 26.524390243902438,50.8130081300813 26.524390243902438,51.27032520325203 26.473577235772357,51.77845528455284 26.473577235772357,52.235772357723576 26.422764227642276,52.69308943089431 26.422764227642276,53.201219512195124 26.422764227642276,53.65853658536585 26.473577235772357,54.0650406504065 26.524390243902438,54.573170731707314 26.57520325203252,54.979674796747965 26.6260162601626,55.386178861788615 26.727642276422763,55.84349593495935 26.829268292682926,56.25 26.93089430894309,56.70731707317073 27.03252032520325,57.21544715447154 27.184959349593495,57.62195121951219 27.33739837398374,58.02845528455284 27.489837398373982,58.485772357723576" fill="none" stroke="black" stroke-width="0.6"></polyline><polyline points="27.489837398373982,58.485772357723576 27.642276422764226,58.892276422764226 27.84552845528455,59.34959349593496 28.048780487804876,59.80691056910569 28.2520325203252,60.21341463414634 28.455284552845526,60.61991869918699 28.65853658536585,61.077235772357724 28.912601626016258,61.53455284552845 29.115853658536583,61.9410569105691 29.420731707317074,62.34756097560975 29.6239837398374,62.703252032520325 29.928861788617887,63.05894308943089 30.182926829268293,63.46544715447154 30.48780487804878,63.87195121951219 30.741869918699187,64.22764227642276 31.097560975609756,64.58333333333333 31.402439024390244,64.88821138211382 31.758130081300813,65.2439024390244 32.0630081300813,65.59959349593495 32.418699186991866,65.95528455284553 32.72357723577236,66.26016260162602 33.079268292682926,66.5650406504065 33.38414634146341,66.8191056910569 33.739837398373986,67.1239837398374 34.09552845528455,67.3780487804878 34.40040650406504,67.58130081300813 34.75609756097561,67.83536585365853 35.11178861788618,68.08943089430895 35.46747967479675,68.29268292682927 35.823170731707314,68.4959349593496 36.17886178861789,68.69918699186992 36.53455284552845,68.90243902439025 36.9410569105691,69.10569105691057 37.24593495934959,69.2581300813008 37.60162601626016,69.46138211382113 37.95731707317073,69.66463414634146 38.3130081300813,69.86788617886178 38.668699186991866,70.0711382113821 39.02439024390244,70.27439024390243 39.38008130081301,70.42682926829268 39.6849593495935,70.630081300813 40.09146341463415,70.83333333333333 40.396341463414636,70.98577235772358 40.7520325203252,71.13821138211382 41.15853658536585,71.34146341463415 41.46341463414634,71.54471544715447 41.81910569105691,71.7479674796748 42.22560975609756,71.95121951219512 42.58130081300813,72.10365853658537 42.9369918699187,72.3069105691057 43.292682926829265,72.45934959349593" fill="none" stroke="black" stroke-width="0.6"></polyline><polyline points="43.292682926829265,72.45934959349593 43.64837398373984,72.61178861788618 44.0040650406504,72.71341463414635 44.359756097560975,72.86585365853658 44.66463414634146,72.96747967479675 45.02032520325203,73.0691056910569 45.3760162601626,73.17073170731707 45.68089430894309,73.27235772357723 45.985772357723576,73.3739837398374 46.392276422764226,73.47560975609755 46.697154471544714,73.57723577235772 47.103658536585364,73.6280487804878 47.459349593495936,73.67886178861788 47.764227642276424,73.78048780487805 48.11991869918699,73.83130081300813 48.47560975609756,73.8821138211382 48.78048780487805,73.8821138211382 49.136178861788615,73.9329268292683 49.49186991869919,73.98373983739837 49.84756097560975,74.03455284552845 50.203252032520325,74.08536585365853 50.55894308943089,74.13617886178862 50.86382113821138,74.1869918699187 51.21951219512195,74.23780487804878 51.6260162601626,74.28861788617886 51.981707317073166,74.33943089430895 52.33739837398374,74.33943089430895 52.69308943089431,74.33943089430895 53.048780487804876,74.39024390243902 53.40447154471545,74.39024390243902 53.8109756097561,74.39024390243902 54.21747967479675,74.33943089430895 54.6239837398374,74.28861788617886 55.03048780487805,74.23780487804878 55.386178861788615,74.1869918699187 55.792682926829265,74.13617886178862 56.199186991869915,74.08536585365853 56.605691056910565,73.98373983739837 57.012195121951216,73.9329268292683 57.418699186991866,73.8821138211382 57.8760162601626,73.78048780487805 58.33333333333333,73.72967479674797 58.790650406504064,73.6280487804878 59.197154471544714,73.47560975609755 59.603658536585364,73.3739837398374 60.0609756097561,73.27235772357723 60.46747967479675,73.17073170731707 60.8739837398374,73.0691056910569 61.28048780487805,72.96747967479675 61.636178861788615,72.8150406504065 62.09349593495935,72.66260162601625" fill="none" stroke="black" stroke-width="0.6"></polyline><polyline points="62.09349593495935,72.66260162601625 62.449186991869915,72.51016260162602 62.855691056910565,72.3069105691057 63.262195121951216,72.10365853658537 63.5670731707317,71.95121951219512 63.922764227642276,71.7479674796748 64.32926829268293,71.49390243902438 64.6849593495935,71.29065040650406 64.98983739837398,71.08739837398373 65.34552845528455,70.83333333333333 65.70121951219512,70.630081300813 66.0060975609756,70.42682926829268 66.36178861788618,70.17276422764228 66.66666666666667,69.91869918699187 66.97154471544715,69.66463414634146 67.32723577235772,69.41056910569105 67.6321138211382,69.10569105691057 67.9369918699187,68.80081300813008 68.29268292682927,68.4959349593496 68.54674796747967,68.24186991869918 68.85162601626016,67.9369918699187 69.15650406504065,67.58130081300813 69.41056910569105,67.32723577235772 69.71544715447155,66.97154471544715 69.96951219512195,66.66666666666667 70.22357723577235,66.36178861788618 70.47764227642276,66.0569105691057 70.78252032520325,65.70121951219512 71.03658536585365,65.39634146341463 71.29065040650406,64.98983739837398 71.59552845528455,64.6341463414634 71.84959349593495,64.27845528455285 72.10365853658537,63.97357723577235 72.35772357723577,63.61788617886179 72.5609756097561,63.262195121951216 72.8150406504065,62.90650406504065 73.01829268292683,62.5 73.27235772357723,62.19512195121951 73.42479674796748,61.83943089430894 73.6280487804878,61.53455284552845 73.78048780487805,61.229674796747965 73.8821138211382,60.92479674796748 74.03455284552845,60.56910569105691 74.13617886178862,60.21341463414634 74.28861788617886,59.90853658536585 74.39024390243902,59.603658536585364 74.49186991869918,59.298780487804876 74.64430894308943,58.94308943089431 74.7459349593496,58.58739837398374 74.89837398373983,58.18089430894309 75.05081300813008,57.8760162601626" fill="none" stroke="black" stroke-width="0.6"></polyline><polyline points="75.05081300813008,57.8760162601626 75.15243902439025,57.57113821138211 75.2540650406504,57.3170731707317 75.35569105691057,57.012195121951216 75.45731707317073,56.70731707317073 75.5589430894309,56.35162601626016 75.66056910569105,56.046747967479675 75.76219512195122,55.6910569105691 75.86382113821138,55.386178861788615 75.96544715447155,55.03048780487805 76.0670731707317,54.6239837398374 76.16869918699187,54.26829268292683 76.27032520325203,53.91260162601626 76.3719512195122,53.607723577235774 76.42276422764228,53.353658536585364 76.47357723577235,53.048780487804876 76.52439024390243,52.79471544715447 76.57520325203252,52.489837398373986 76.6260162601626,52.1849593495935 76.67682926829268,51.93089430894309 76.67682926829268,51.6260162601626 76.67682926829268,51.37195121951219 76.72764227642276,51.11788617886179 76.72764227642276,50.91463414634146 76.72764227642276,50.71138211382114 76.72764227642276,50.609756097560975 76.72764227642276,50.45731707317073 76.72764227642276,50.30487804878049 76.72764227642276,50.203252032520325 76.72764227642276,50.10162601626016 76.72764227642276,50 76.72764227642276,49.949186991869915 76.72764227642276,49.84756097560975 76.72764227642276,49.74593495934959 76.72764227642276,49.69512195121951 76.72764227642276,49.64430894308943 76.72764227642276,49.64430894308943 76.72764227642276,49.64430894308943 76.72764227642276,49.64430894308943 76.72764227642276,49.64430894308943 76.72764227642276,49.64430894308943 76.72764227642276,49.64430894308943 76.72764227642276,49.64430894308943 76.77845528455285,49.64430894308943 76.77845528455285,49.69512195121951" fill="none" stroke="black" stroke-width="0.6"></polyline></svg>