<svg height="100" width="100" preserveAspectRatio="xMidYMid meet"><polyline points="50.30487804878049,49.74593495934959 50.30487804878049,49.74593495934959 50.2540650406504,49.74593495934959 50.203252032520325,49.69512195121951 50.15243902439024,49.64430894308943 50.10162601626016,49.64430894308943 50.05081300813008,49.59349593495935 50.05081300813008,49.59349593495935 50.05081300813008,49.542682926829265 50.05081300813008,49.49186991869919 50.10162601626016,49.49186991869919 50.15243902439024,49.4410569105691 50.203252032520325,49.390243902439025 50.2540650406504,49.33943089430894 50.30487804878049,49.23780487804878 50.355691056910565,49.1869918699187 50.355691056910565,49.136178861788615 50.40650406504065,49.03455284552845 50.40650406504065,48.983739837398375 50.40650406504065,48.88211382113821 50.40650406504065,48.83130081300813 50.40650406504065,48.729674796747965 50.355691056910565,48.6280487804878 50.2540650406504,48.47560975609756 50.15243902439024,48.323170731707314 50,48.170731707317074 49.84756097560975,48.06910569105691 49.64430894308943,47.86585365853659 49.49186991869919,47.764227642276424 49.33943089430894,47.71341463414634 49.136178861788615,47.66260162601626 48.983739837398375,47.66260162601626 48.83130081300813,47.66260162601626 48.6280487804878,47.66260162601626 48.47560975609756,47.71341463414634 48.323170731707314,47.764227642276424 48.170731707317074,47.86585365853659 48.06910569105691,47.916666666666664 47.916666666666664,48.01829268292683 47.8150406504065,48.11991869918699 47.71341463414634,48.22154471544715 47.66260162601626,48.323170731707314 47.5609756097561,48.47560975609756 47.459349593495936,48.6280487804878 47.40853658536585,48.83130081300813 47.30691056910569,49.03455284552845 47.20528455284553,49.1869918699187 47.15447154471545,49.390243902439025 47.052845528455286,49.542682926829265 47.0020325203252,49.69512195121951 46.951219512195124,49.796747967479675" fill="none" stroke="black" stroke-width="0.6"></polyline><polyline points="46.951219512195124,49.796747967479675 46.90040650406504,49.949186991869915 46.84959349593496,50.10162601626016 46.798780487804876,50.30487804878049 46.7479674796748,50.45731707317073 46.697154471544714,50.609756097560975 46.697154471544714,50.762195121951216 46.697154471544714,50.91463414634146 46.697154471544714,51.0670731707317 46.697154471544714,51.168699186991866 46.697154471544714,51.27032520325203 46.697154471544714,51.422764227642276 46.697154471544714,51.575203252032516 46.697154471544714,51.72764227642276 46.697154471544714,51.880081300813 46.7479674796748,52.083333333333336 46.7479674796748,52.235772357723576 46.798780487804876,52.38821138211382 46.84959349593496,52.540650406504064 46.90040650406504,52.74390243902439 47.0020325203252,52.896341463414636 47.052845528455286,53.048780487804876 47.15447154471545,53.201219512195124 47.25609756097561,53.353658536585364 47.357723577235774,53.50609756097561 47.459349593495936,53.65853658536585 47.5609756097561,53.760162601626014 47.71341463414634,53.91260162601626 47.8150406504065,54.014227642276424 47.96747967479675,54.11585365853659 48.11991869918699,54.21747967479675 48.22154471544715,54.31910569105691 48.3739837398374,54.36991869918699 48.577235772357724,54.47154471544715 48.729674796747965,54.52235772357724 48.88211382113821,54.6239837398374 49.03455284552845,54.67479674796748 49.23780487804878,54.72560975609756 49.390243902439025,54.77642276422764 49.59349593495935,54.8780487804878 49.74593495934959,54.92886178861789 49.949186991869915,54.92886178861789 50.15243902439024,54.979674796747965 50.30487804878049,54.979674796747965 50.45731707317073,54.979674796747965 50.66056910569105,54.979674796747965 50.86382113821138,54.979674796747965 51.0670731707317,54.979674796747965 51.27032520325203,54.92886178861789 51.47357723577235,54.8780487804878 51.67682926829268,54.827235772357724" fill="none" stroke="black" stroke-width="0.6"></polyline><polyline points="51.67682926829268,54.827235772357724 51.93089430894309,54.77642276422764 52.1849593495935,54.67479674796748 52.4390243902439,54.6239837398374 52.69308943089431,54.47154471544715 52.896341463414636,54.36991869918699 53.09959349593496,54.26829268292683 53.353658536585364,54.166666666666664 53.55691056910569,54.0650406504065 53.760162601626014,53.91260162601626 53.96341463414634,53.8109756097561 54.11585365853659,53.709349593495936 54.26829268292683,53.65853658536585 54.420731707317074,53.50609756097561 54.573170731707314,53.45528455284553 54.77642276422764,53.353658536585364 54.92886178861789,53.2520325203252 55.08130081300813,53.15040650406504 55.28455284552845,53.048780487804876 55.4369918699187,52.896341463414636 55.58943089430894,52.79471544715447 55.74186991869919,52.642276422764226 55.89430894308943,52.489837398373986 56.046747967479675,52.33739837398374 56.199186991869915,52.1849593495935 56.30081300813008,51.981707317073166 56.40243902439024,51.829268292682926 56.5040650406504,51.6260162601626 56.605691056910565,51.422764227642276 56.70731707317073,51.27032520325203 56.80894308943089,51.0670731707317 56.859756097560975,50.86382113821138 56.91056910569105,50.66056910569105 56.96138211382114,50.40650406504065 57.012195121951216,50.15243902439024 57.0630081300813,49.89837398373984 57.0630081300813,49.59349593495935 57.0630081300813,49.33943089430894 57.0630081300813,49.08536585365854 57.0630081300813,48.83130081300813 57.0630081300813,48.577235772357724 57.012195121951216,48.323170731707314 56.96138211382114,48.06910569105691 56.91056910569105,47.764227642276424 56.859756097560975,47.510162601626014 56.75813008130081,47.20528455284553 56.65650406504065,46.951219512195124 56.55487804878049,46.7479674796748 56.453252032520325,46.49390243902439 56.35162601626016,46.290650406504064 56.25,46.08739837398374" fill="none" stroke="black" stroke-width="0.6"></polyline><polyline points="56.25,46.08739837398374 56.14837398373984,45.88414634146341 55.99593495934959,45.68089430894309 55.89430894308943,45.42682926829268 55.74186991869919,45.172764227642276 55.58943089430894,44.96951219512195 55.4369918699187,44.766260162601625 55.233739837398375,44.5630081300813 55.08130081300813,44.359756097560975 54.92886178861789,44.20731707317073 54.72560975609756,44.05487804878049 54.573170731707314,43.90243902439024 54.420731707317074,43.699186991869915 54.21747967479675,43.546747967479675 54.014227642276424,43.39430894308943 53.86178861788618,43.1910569105691 53.607723577235774,43.03861788617886 53.40447154471545,42.886178861788615 53.201219512195124,42.78455284552845 52.9979674796748,42.63211382113821 52.79471544715447,42.53048780487805 52.540650406504064,42.42886178861789 52.33739837398374,42.327235772357724 51.880081300813,42.17479674796748 51.575203252032516,42.02235772357724 51.32113821138211,41.920731707317074 51.0670731707317,41.81910569105691 50.762195121951216,41.71747967479675 50.50813008130081,41.666666666666664 50.2540650406504,41.61585365853659 50,41.5650406504065 49.74593495934959,41.514227642276424 49.49186991869919,41.514227642276424 49.23780487804878,41.46341463414634 48.93292682926829,41.46341463414634 48.67886178861789,41.46341463414634 48.3739837398374,41.46341463414634 48.06910569105691,41.46341463414634 47.8150406504065,41.46341463414634 47.510162601626014,41.514227642276424 47.25609756097561,41.514227642276424 47.0020325203252,41.5650406504065 46.7479674796748,41.5650406504065 46.49390243902439,41.61585365853659 46.239837398373986,41.666666666666664 45.985772357723576,41.71747967479675 45.833333333333336,41.76829268292683 45.579268292682926,41.86991869918699 45.3760162601626,41.97154471544715 45.172764227642276,42.1239837398374 44.96951219512195,42.22560975609756" fill="none" stroke="black" stroke-width="0.6"></polyline><polyline points="44.96951219512195,42.22560975609756 44.8170731707317,42.327235772357724 44.66463414634146,42.42886178861789 44.512195121951216,42.53048780487805 44.41056910569105,42.63211382113821 44.25813008130081,42.733739837398375 44.105691056910565,42.83536585365854 44.0040650406504,42.9369918699187 43.90243902439024,43.08943089430894 43.75,43.1910569105691 43.64837398373984,43.292682926829265 43.49593495934959,43.44512195121951 43.34349593495935,43.64837398373984 43.24186991869919,43.85162601626016 43.08943089430894,44.0040650406504 42.886178861788615,44.25813008130081 42.78455284552845,44.46138211382114 42.58130081300813,44.66463414634146 42.42886178861789,44.918699186991866 42.27642276422764,45.12195121951219 42.1239837398374,45.3760162601626 41.97154471544715,45.63008130081301 41.81910569105691,45.833333333333336 41.71747967479675,46.08739837398374 41.5650406504065,46.290650406504064 41.46341463414634,46.54471544715447 41.36178861788618,46.7479674796748 41.209349593495936,46.951219512195124 41.107723577235774,47.15447154471545 41.00609756097561,47.40853658536585 40.853658536585364,47.66260162601626 40.7520325203252,47.86585365853659 40.701219512195124,48.11991869918699 40.59959349593496,48.42479674796748 40.4979674796748,48.67886178861789 40.396341463414636,48.93292682926829 40.34552845528455,49.1869918699187 40.24390243902439,49.4410569105691 40.19308943089431,49.69512195121951 40.142276422764226,49.949186991869915 40.040650406504064,50.2540650406504 39.989837398373986,50.55894308943089 39.9390243902439,50.86382113821138 39.88821138211382,51.11788617886179 39.88821138211382,51.37195121951219 39.88821138211382,51.6260162601626 39.88821138211382,51.829268292682926 39.88821138211382,52.083333333333336 39.88821138211382,52.38821138211382 39.9390243902439,52.642276422764226 39.989837398373986,52.896341463414636" fill="none" stroke="black" stroke-width="0.6"></polyline><polyline points="39.989837398373986,52.896341463414636 40.040650406504064,53.15040650406504 40.142276422764226,53.353658536585364 40.24390243902439,53.607723577235774 40.34552845528455,53.8109756097561 40.447154471544714,54.014227642276424 40.59959349593496,54.21747967479675 40.701219512195124,54.47154471544715 40.853658536585364,54.67479674796748 41.00609756097561,54.8780487804878 41.209349593495936,55.13211382113821 41.36178861788618,55.33536585365854 41.514227642276424,55.53861788617886 41.71747967479675,55.792682926829265 41.86991869918699,55.99593495934959 42.073170731707314,56.25 42.27642276422764,56.5040650406504 42.479674796747965,56.75813008130081 42.68292682926829,57.012195121951216 42.886178861788615,57.266260162601625 43.08943089430894,57.46951219512195 43.292682926829265,57.72357723577235 43.49593495934959,57.92682926829268 43.75,58.130081300813 43.953252032520325,58.33333333333333 44.15650406504065,58.485772357723576 44.41056910569105,58.6890243902439 44.66463414634146,58.84146341463415 44.86788617886179,58.99390243902439 45.12195121951219,59.09552845528455 45.42682926829268,59.2479674796748 45.63008130081301,59.40040650406504 45.88414634146341,59.552845528455286 46.13821138211382,59.65447154471545 46.34146341463415,59.80691056910569 46.59552845528455,59.959349593495936 46.84959349593496,60.0609756097561 47.103658536585364,60.16260162601626 47.30691056910569,60.264227642276424 47.61178861788618,60.416666666666664 47.8150406504065,60.51829268292683 48.06910569105691,60.56910569105691 48.323170731707314,60.670731707317074 48.577235772357724,60.77235772357724 48.83130081300813,60.823170731707314 49.136178861788615,60.92479674796748 49.390243902439025,60.97560975609756 49.69512195121951,61.02642276422764 50,61.077235772357724 50.30487804878049,61.1280487804878 50.55894308943089,61.17886178861789" fill="none" stroke="black" stroke-width="0.6"></polyline><polyline points="50.55894308943089,61.17886178861789 50.91463414634146,61.229674796747965 51.168699186991866,61.28048780487805 51.52439024390244,61.33130081300813 51.829268292682926,61.33130081300813 52.13414634146341,61.33130081300813 52.4390243902439,61.33130081300813 52.74390243902439,61.33130081300813 53.048780487804876,61.28048780487805 53.40447154471545,61.17886178861789 53.709349593495936,61.1280487804878 54.014227642276424,61.02642276422764 54.31910569105691,60.97560975609756 54.6239837398374,60.8739837398374 54.92886178861789,60.77235772357724 55.233739837398375,60.670731707317074 55.53861788617886,60.51829268292683 55.84349593495935,60.416666666666664 56.09756097560975,60.21341463414634 56.40243902439024,60.0609756097561 56.65650406504065,59.90853658536585 56.91056910569105,59.70528455284553 57.16463414634146,59.552845528455286 57.36788617886179,59.40040650406504 57.57113821138211,59.197154471544714 57.825203252032516,59.04471544715447 58.02845528455284,58.892276422764226 58.231707317073166,58.739837398373986 58.43495934959349,58.536585365853654 58.63821138211382,58.38414634146341 58.892276422764226,58.18089430894309 59.09552845528455,57.97764227642276 59.34959349593496,57.77439024390244 59.603658536585364,57.52032520325203 59.857723577235774,57.266260162601625 60.11178861788618,57.012195121951216 60.36585365853659,56.70731707317073 60.56910569105691,56.40243902439024 60.823170731707314,56.09756097560975 61.077235772357724,55.6910569105691 61.28048780487805,55.386178861788615 61.53455284552845,55.03048780487805 61.78861788617886,54.6239837398374 61.99186991869919,54.21747967479675 62.19512195121951,53.86178861788618 62.34756097560975,53.45528455284553 62.449186991869915,53.09959349593496 62.60162601626016,52.79471544715447 62.703252032520325,52.4390243902439 62.7540650406504,52.13414634146341 62.80487804878049,51.829268292682926" fill="none" stroke="black" stroke-width="0.6"></polyline><polyline points="62.80487804878049,51.829268292682926 62.855691056910565,51.47357723577235 62.90650406504065,51.21951219512195 62.90650406504065,50.91463414634146 62.95731707317073,50.50813008130081 62.95731707317073,50.203252032520325 62.95731707317073,49.84756097560975 62.95731707317073,49.49186991869919 62.95731707317073,49.136178861788615 62.90650406504065,48.83130081300813 62.855691056910565,48.52642276422764 62.80487804878049,48.170731707317074 62.7540650406504,47.86585365853659 62.703252032520325,47.459349593495936 62.65243902439024,47.15447154471545 62.60162601626016,46.798780487804876 62.55081300813008,46.44308943089431 62.5,46.1890243902439 62.449186991869915,45.88414634146341 62.39837398373984,45.52845528455285 62.296747967479675,45.27439024390244 62.19512195121951,44.96951219512195 62.09349593495935,44.66463414634146 61.99186991869919,44.359756097560975 61.890243902439025,44.05487804878049 61.73780487804878,43.699186991869915 61.58536585365854,43.39430894308943 61.43292682926829,43.03861788617886 61.229674796747965,42.68292682926829 61.077235772357724,42.3780487804878 60.92479674796748,42.073170731707314 60.72154471544715,41.71747967479675 60.51829268292683,41.41260162601626 60.3150406504065,41.107723577235774 60.0609756097561,40.802845528455286 59.857723577235774,40.4979674796748 59.552845528455286,40.19308943089431 59.298780487804876,39.83739837398374 58.99390243902439,39.53252032520325 58.6890243902439,39.22764227642276 58.38414634146341,38.922764227642276 58.079268292682926,38.61788617886179 57.77439024390244,38.36382113821138 57.46951219512195,38.109756097560975 57.21544715447154,37.90650406504065 56.91056910569105,37.703252032520325 56.55487804878049,37.5 56.25,37.296747967479675 55.94512195121951,37.09349593495935 55.53861788617886,36.890243902439025 55.18292682926829,36.6869918699187" fill="none" stroke="black" stroke-width="0.6"></polyline><polyline points="55.18292682926829,36.6869918699187 54.827235772357724,36.483739837398375 54.47154471544715,36.33130081300813 54.166666666666664,36.17886178861789 53.8109756097561,36.077235772357724 53.45528455284553,35.92479674796748 53.15040650406504,35.823170731707314 52.74390243902439,35.670731707317074 52.4390243902439,35.61991869918699 52.13414634146341,35.51829268292683 51.72764227642276,35.416666666666664 51.422764227642276,35.36585365853659 51.0670731707317,35.3150406504065 50.66056910569105,35.21341463414634 50.30487804878049,35.16260162601626 49.949186991869915,35.16260162601626 49.542682926829265,35.11178861788618 49.23780487804878,35.0609756097561 48.88211382113821,35.0609756097561 48.47560975609756,35.0609756097561 48.170731707317074,35.0609756097561 47.8150406504065,35.11178861788618 47.459349593495936,35.11178861788618 47.15447154471545,35.16260162601626 46.84959349593496,35.21341463414634 46.49390243902439,35.264227642276424 46.1890243902439,35.3150406504065 45.88414634146341,35.36585365853659 45.52845528455285,35.416666666666664 45.22357723577235,35.46747967479675 44.918699186991866,35.51829268292683 44.61382113821138,35.61991869918699 44.30894308943089,35.670731707317074 43.953252032520325,35.77235772357724 43.59756097560975,35.8739837398374 43.292682926829265,36.02642276422764 42.98780487804878,36.1280487804878 42.63211382113821,36.28048780487805 42.327235772357724,36.43292682926829 41.97154471544715,36.58536585365854 41.61585365853659,36.78861788617886 41.260162601626014,36.99186991869919 40.853658536585364,37.19512195121951 40.447154471544714,37.449186991869915 40.040650406504064,37.703252032520325 39.583333333333336,38.00813008130081 39.176829268292686,38.262195121951216 38.82113821138211,38.516260162601625 38.46544715447154,38.77032520325203 38.109756097560975,39.02439024390244 37.80487804878049,39.22764227642276" fill="none" stroke="black" stroke-width="0.6"></polyline><polyline points="37.80487804878049,39.22764227642276 37.5,39.48170731707317 37.19512195121951,39.735772357723576 36.99186991869919,39.989837398373986 36.73780487804878,40.19308943089431 36.53455284552845,40.447154471544714 36.33130081300813,40.65040650406504 36.1280487804878,40.90447154471545 35.92479674796748,41.15853658536585 35.77235772357724,41.41260162601626 35.61991869918699,41.71747967479675 35.46747967479675,41.97154471544715 35.36585365853659,42.27642276422764 35.21341463414634,42.58130081300813 35.11178861788618,42.83536585365854 35.010162601626014,43.140243902439025 34.90853658536585,43.44512195121951 34.75609756097561,43.80081300813008 34.65447154471545,44.15650406504065 34.552845528455286,44.46138211382114 34.451219512195124,44.8170731707317 34.34959349593496,45.12195121951219 34.2479674796748,45.47764227642276 34.09552845528455,45.833333333333336 33.99390243902439,46.1890243902439 33.892276422764226,46.59552845528455 33.790650406504064,46.90040650406504 33.6890243902439,47.20528455284553 33.58739837398374,47.5609756097561 33.53658536585366,47.916666666666664 33.485772357723576,48.22154471544715 33.38414634146341,48.6280487804878 33.333333333333336,48.93292682926829 33.28252032520325,49.28861788617886 33.18089430894309,49.64430894308943 33.18089430894309,50 33.13008130081301,50.40650406504065 33.079268292682926,50.8130081300813 33.02845528455285,51.21951219512195 32.97764227642276,51.6260162601626 32.926829268292686,52.083333333333336 32.8760162601626,52.38821138211382 32.8760162601626,52.74390243902439 32.8760162601626,53.09959349593496 32.8760162601626,53.45528455284553 32.8760162601626,53.86178861788618 32.8760162601626,54.26829268292683 32.926829268292686,54.573170731707314 32.97764227642276,54.92886178861789 33.02845528455285,55.233739837398375 33.079268292682926,55.53861788617886" fill="none" stroke="black" stroke-width="0.6"></polyline><polyline points="33.079268292682926,55.53861788617886 33.13008130081301,55.792682926829265 33.18089430894309,56.09756097560975 33.28252032520325,56.40243902439024 33.38414634146341,56.70731707317073 33.485772357723576,57.012195121951216 33.58739837398374,57.3170731707317 33.739837398373986,57.57113821138211 33.892276422764226,57.8760162601626 34.04471544715447,58.130081300813 34.197154471544714,58.43495934959349 34.40040650406504,58.739837398373986 34.603658536585364,58.99390243902439 34.75609756097561,59.298780487804876 35.010162601626014,59.603658536585364 35.16260162601626,59.90853658536585 35.36585365853659,60.16260162601626 35.61991869918699,60.416666666666664 35.8739837398374,60.72154471544715 36.077235772357724,61.02642276422764 36.33130081300813,61.28048780487805 36.58536585365854,61.58536585365854 36.83943089430894,61.83943089430894 37.09349593495935,62.09349593495935 37.34756097560975,62.34756097560975 37.60162601626016,62.60162601626016 37.855691056910565,62.855691056910565 38.109756097560975,63.109756097560975 38.41463414634146,63.36382113821138 38.668699186991866,63.61788617886179 38.922764227642276,63.87195121951219 39.22764227642276,64.07520325203252 39.48170731707317,64.32926829268293 39.735772357723576,64.53252032520325 40.040650406504064,64.73577235772358 40.29471544715447,64.98983739837398 40.59959349593496,65.1930894308943 40.853658536585364,65.39634146341463 41.15853658536585,65.59959349593495 41.41260162601626,65.80284552845528 41.666666666666664,65.95528455284553 41.97154471544715,66.15853658536585 42.22560975609756,66.3109756097561 42.53048780487805,66.46341463414635 42.78455284552845,66.61585365853658 43.08943089430894,66.76829268292683 43.39430894308943,66.92073170731707 43.699186991869915,67.07317073170732 44.0040650406504,67.17479674796748 44.359756097560975,67.32723577235772 44.66463414634146,67.42886178861788" fill="none" stroke="black" stroke-width="0.6"></polyline><polyline points="44.66463414634146,67.42886178861788 45.02032520325203,67.53048780487805 45.42682926829268,67.6321138211382 45.73170731707317,67.6829268292683 46.13821138211382,67.78455284552845 46.54471544715447,67.88617886178862 46.90040650406504,67.9369918699187 47.30691056910569,67.98780487804878 47.71341463414634,68.08943089430895 48.11991869918699,68.14024390243902 48.52642276422764,68.1910569105691 48.93292682926829,68.1910569105691 49.33943089430894,68.24186991869918 49.74593495934959,68.24186991869918 50.203252032520325,68.24186991869918 50.55894308943089,68.24186991869918 50.96544715447154,68.24186991869918 51.422764227642276,68.24186991869918 51.77845528455284,68.24186991869918 52.1849593495935,68.24186991869918 52.59146341463415,68.24186991869918 52.947154471544714,68.24186991869918 53.302845528455286,68.24186991869918 53.709349593495936,68.1910569105691 54.0650406504065,68.1910569105691 54.36991869918699,68.14024390243902 54.72560975609756,68.14024390243902 55.03048780487805,68.14024390243902 55.33536585365854,68.08943089430895 55.640243902439025,68.03861788617886 55.94512195121951,67.9369918699187 56.25,67.83536585365853 56.55487804878049,67.6829268292683 56.859756097560975,67.58130081300813 57.11382113821138,67.42886178861788 57.418699186991866,67.32723577235772 57.72357723577235,67.17479674796748 57.97764227642276,67.07317073170732 58.28252032520325,66.92073170731707 58.58739837398374,66.76829268292683 58.84146341463415,66.61585365853658 59.146341463414636,66.46341463414635 59.451219512195124,66.26016260162602 59.75609756097561,66.0569105691057 60.0609756097561,65.85365853658537 60.36585365853659,65.59959349593495 60.670731707317074,65.39634146341463 60.97560975609756,65.14227642276423 61.28048780487805,64.88821138211382 61.58536585365854,64.6341463414634 61.890243902439025,64.380081300813" fill="none" stroke="black" stroke-width="0.6"></polyline><polyline points="61.890243902439025,64.380081300813 62.19512195121951,64.1260162601626 62.5,63.82113821138211 62.80487804878049,63.5670731707317 63.109756097560975,63.262195121951216 63.41463414634146,63.00813008130081 63.668699186991866,62.65243902439024 63.97357723577235,62.34756097560975 64.22764227642276,62.09349593495935 64.48170731707317,61.78861788617886 64.73577235772358,61.53455284552845 64.9390243902439,61.28048780487805 65.14227642276423,60.97560975609756 65.34552845528455,60.72154471544715 65.4979674796748,60.46747967479675 65.65040650406505,60.21341463414634 65.85365853658537,59.90853658536585 66.0060975609756,59.603658536585364 66.15853658536585,59.34959349593496 66.36178861788618,59.04471544715447 66.5650406504065,58.6890243902439 66.71747967479675,58.38414634146341 66.869918699187,58.02845528455284 67.07317073170732,57.72357723577235 67.22560975609755,57.418699186991866 67.3780487804878,57.0630081300813 67.53048780487805,56.65650406504065 67.6829268292683,56.25 67.83536585365853,55.84349593495935 68.03861788617886,55.4369918699187 68.1910569105691,54.979674796747965 68.34349593495935,54.52235772357724 68.4959349593496,54.0650406504065 68.64837398373983,53.607723577235774 68.75,53.201219512195124 68.85162601626016,52.79471544715447 68.95325203252033,52.38821138211382 69.05487804878048,51.981707317073166 69.10569105691057,51.52439024390244 69.15650406504065,51.11788617886179 69.15650406504065,50.762195121951216 69.20731707317073,50.30487804878049 69.2581300813008,49.89837398373984 69.2581300813008,49.4410569105691 69.2581300813008,48.983739837398375 69.2581300813008,48.6280487804878 69.2581300813008,48.22154471544715 69.2581300813008,47.8150406504065 69.20731707317073,47.459349593495936 69.15650406504065,47.052845528455286 69.05487804878048,46.697154471544714" fill="none" stroke="black" stroke-width="0.6"></polyline><polyline points="69.05487804878048,46.697154471544714 69.0040650406504,46.34146341463415 68.90243902439025,45.9349593495935 68.80081300813008,45.52845528455285 68.69918699186992,45.12195121951219 68.59756097560975,44.766260162601625 68.4451219512195,44.359756097560975 68.29268292682927,44.0040650406504 68.14024390243902,43.59756097560975 67.98780487804878,43.24186991869919 67.83536585365853,42.886178861788615 67.6829268292683,42.53048780487805 67.53048780487805,42.22560975609756 67.32723577235772,41.86991869918699 67.17479674796748,41.5650406504065 66.97154471544715,41.209349593495936 66.76829268292683,40.853658536585364 66.5650406504065,40.447154471544714 66.36178861788618,40.09146341463415 66.15853658536585,39.735772357723576 65.95528455284553,39.38008130081301 65.70121951219512,38.97357723577235 65.4979674796748,38.668699186991866 65.29471544715447,38.3130081300813 65.04065040650406,38.00813008130081 64.83739837398373,37.703252032520325 64.6341463414634,37.39837398373984 64.43089430894308,37.09349593495935 64.17682926829268,36.78861788617886 63.97357723577235,36.483739837398375 63.71951219512195,36.1280487804878 63.46544715447154,35.823170731707314 63.21138211382114,35.51829268292683 63.00813008130081,35.21341463414634 62.7540650406504,34.90853658536585 62.5,34.552845528455286 62.24593495934959,34.2479674796748 61.99186991869919,33.94308943089431 61.73780487804878,33.63821138211382 61.483739837398375,33.38414634146341 61.17886178861789,33.079268292682926 60.8739837398374,32.77439024390244 60.61991869918699,32.52032520325203 60.36585365853659,32.266260162601625 60.0609756097561,31.961382113821138 59.75609756097561,31.70731707317073 59.40040650406504,31.453252032520325 59.09552845528455,31.19918699186992 58.790650406504064,30.945121951219512 58.43495934959349,30.741869918699187 58.02845528455284,30.48780487804878" fill="none" stroke="black" stroke-width="0.6"></polyline><polyline points="58.02845528455284,30.48780487804878 57.672764227642276,30.284552845528456 57.3170731707317,30.03048780487805 56.91056910569105,29.827235772357724 56.5040650406504,29.67479674796748 56.09756097560975,29.522357723577237 55.640243902439025,29.369918699186993 55.18292682926829,29.217479674796746 54.67479674796748,29.115853658536583 54.166666666666664,28.96341463414634 53.709349593495936,28.861788617886177 53.201219512195124,28.760162601626014 52.69308943089431,28.60772357723577 52.235772357723576,28.506097560975608 51.77845528455284,28.404471544715445 51.32113821138211,28.353658536585364 50.86382113821138,28.2520325203252 50.40650406504065,28.20121951219512 49.89837398373984,28.15040650406504 49.4410569105691,28.15040650406504 48.93292682926829,28.15040650406504 48.3739837398374,28.15040650406504 47.916666666666664,28.15040650406504 47.40853658536585,28.15040650406504 46.84959349593496,28.15040650406504 46.34146341463415,28.15040650406504 45.833333333333336,28.2520325203252 45.27439024390244,28.302845528455283 44.766260162601625,28.404471544715445 44.30894308943089,28.455284552845526 43.80081300813008,28.55691056910569 43.292682926829265,28.65853658536585 42.83536585365854,28.760162601626014 42.327235772357724,28.861788617886177 41.86991869918699,29.01422764227642 41.41260162601626,29.115853658536583 40.95528455284553,29.268292682926827 40.4979674796748,29.369918699186993 40.09146341463415,29.522357723577237 39.63414634146341,29.67479674796748 39.22764227642276,29.827235772357724 38.82113821138211,30.03048780487805 38.36382113821138,30.284552845528456 38.00813008130081,30.48780487804878 37.65243902439024,30.691056910569106 37.24593495934959,30.945121951219512 36.890243902439025,31.19918699186992 36.483739837398375,31.453252032520325 36.1280487804878,31.758130081300813 35.77235772357724,32.012195121951216 35.36585365853659,32.36788617886179" fill="none" stroke="black" stroke-width="0.6"></polyline><polyline points="35.36585365853659,32.36788617886179 35.010162601626014,32.672764227642276 34.65447154471545,32.97764227642276 34.298780487804876,33.333333333333336 33.99390243902439,33.63821138211382 33.6890243902439,33.99390243902439 33.333333333333336,34.34959349593496 33.02845528455285,34.75609756097561 32.72357723577236,35.11178861788618 32.418699186991866,35.56910569105691 32.16463414634146,35.92479674796748 31.859756097560975,36.28048780487805 31.554878048780488,36.6869918699187 31.30081300813008,37.09349593495935 30.995934959349594,37.449186991869915 30.741869918699187,37.855691056910565 30.538617886178862,38.16056910569105 30.284552845528456,38.46544715447154 30.03048780487805,38.87195121951219 29.827235772357724,39.22764227642276 29.573170731707318,39.583333333333336 29.369918699186993,39.989837398373986 29.166666666666664,40.29471544715447 28.96341463414634,40.59959349593496 28.810975609756095,41.00609756097561 28.60772357723577,41.3109756097561 28.455284552845526,41.71747967479675 28.302845528455283,42.1239837398374 28.15040650406504,42.42886178861789 27.997967479674795,42.78455284552845 27.84552845528455,43.140243902439025 27.693089430894307,43.49593495934959 27.591463414634145,43.90243902439024 27.4390243902439,44.359756097560975 27.33739837398374,44.71544715447154 27.235772357723576,45.12195121951219 27.083333333333332,45.579268292682926 26.98170731707317,46.03658536585366 26.93089430894309,46.44308943089431 26.829268292682926,46.90040650406504 26.778455284552845,47.30691056910569 26.727642276422763,47.71341463414634 26.676829268292682,48.170731707317074 26.6260162601626,48.6280487804878 26.6260162601626,49.08536585365854 26.6260162601626,49.59349593495935 26.6260162601626,50.10162601626016 26.6260162601626,50.55894308943089 26.6260162601626,51.016260162601625 26.6260162601626,51.422764227642276 26.6260162601626,51.880081300813" fill="none" stroke="black" stroke-width="0.6"></polyline><polyline points="26.6260162601626,51.880081300813 26.6260162601626,52.33739837398374 26.676829268292682,52.74390243902439 26.727642276422763,53.201219512195124 26.778455284552845,53.607723577235774 26.829268292682926,54.014227642276424 26.93089430894309,54.420731707317074 27.03252032520325,54.8780487804878 27.184959349593495,55.233739837398375 27.33739837398374,55.6910569105691 27.489837398373982,56.09756097560975 27.642276422764226,56.55487804878049 27.84552845528455,56.96138211382114 28.048780487804876,57.418699186991866 28.20121951219512,57.825203252032516 28.404471544715445,58.231707317073166 28.60772357723577,58.63821138211382 28.810975609756095,59.04471544715447 29.0650406504065,59.451219512195124 29.268292682926827,59.857723577235774 29.522357723577237,60.21341463414634 29.776422764227643,60.670731707317074 30.03048780487805,61.02642276422764 30.284552845528456,61.43292682926829 30.538617886178862,61.890243902439025 30.79268292682927,62.24593495934959 30.995934959349594,62.60162601626016 31.25,63.05894308943089 31.504065040650406,63.46544715447154 31.758130081300813,63.87195121951219 32.0630081300813,64.27845528455285 32.3170731707317,64.6341463414634 32.57113821138211,64.98983739837398 32.8760162601626,65.39634146341463 33.13008130081301,65.7520325203252 33.38414634146341,66.10772357723577 33.739837398373986,66.46341463414635 33.99390243902439,66.76829268292683 34.298780487804876,67.1239837398374 34.603658536585364,67.42886178861788 34.90853658536585,67.73373983739837 35.21341463414634,68.03861788617886 35.51829268292683,68.34349593495935 35.8739837398374,68.64837398373983 36.17886178861789,68.95325203252033 36.58536585365854,69.2581300813008 36.890243902439025,69.5630081300813 37.24593495934959,69.86788617886178 37.60162601626016,70.17276422764228 37.90650406504065,70.42682926829268 38.262195121951216,70.73170731707317" fill="none" stroke="black" stroke-width="0.6"></polyline><polyline points="38.262195121951216,70.73170731707317 38.668699186991866,71.03658536585365 39.02439024390244,71.23983739837398 39.38008130081301,71.49390243902438 39.735772357723576,71.7479674796748 40.142276422764226,72.0020325203252 40.548780487804876,72.20528455284553 40.95528455284553,72.40853658536585 41.36178861788618,72.61178861788618 41.71747967479675,72.76422764227642 42.17479674796748,72.96747967479675 42.58130081300813,73.119918699187 43.03861788617886,73.27235772357723 43.49593495934959,73.42479674796748 43.90243902439024,73.57723577235772 44.41056910569105,73.72967479674797 44.86788617886179,73.83130081300813 45.325203252032516,73.9329268292683 45.833333333333336,73.98373983739837 46.34146341463415,74.03455284552845 46.798780487804876,74.13617886178862 47.357723577235774,74.13617886178862 47.86585365853659,74.1869918699187 48.3739837398374,74.23780487804878 48.88211382113821,74.28861788617886 49.4410569105691,74.39024390243902 50,74.4410569105691 50.55894308943089,74.49186991869918 51.168699186991866,74.49186991869918 51.72764227642276,74.54268292682927 52.28658536585366,74.54268292682927 52.84552845528455,74.54268292682927 53.40447154471545,74.54268292682927 54.014227642276424,74.54268292682927 54.6239837398374,74.54268292682927 55.13211382113821,74.49186991869918 55.74186991869919,74.4410569105691 56.30081300813008,74.33943089430895 56.859756097560975,74.23780487804878 57.46951219512195,74.08536585365853 58.02845528455284,73.98373983739837 58.63821138211382,73.78048780487805 59.2479674796748,73.6280487804878 59.75609756097561,73.47560975609755 60.3150406504065,73.27235772357723 60.92479674796748,73.0691056910569 61.483739837398375,72.91666666666667 62.042682926829265,72.66260162601625 62.65243902439024,72.40853658536585 63.16056910569105,72.20528455284553 63.668699186991866,71.95121951219512" fill="none" stroke="black" stroke-width="0.6"></polyline><polyline points="63.668699186991866,71.95121951219512 64.22764227642276,71.64634146341463 64.73577235772358,71.34146341463415 65.2439024390244,71.03658536585365 65.80284552845528,70.73170731707317 66.3109756097561,70.3760162601626 66.8191056910569,70.02032520325203 67.32723577235772,69.61382113821138 67.78455284552845,69.15650406504065 68.29268292682927,68.75 68.85162601626016,68.29268292682927 69.3089430894309,67.88617886178862 69.8170731707317,67.42886178861788 70.27439024390243,66.92073170731707 70.73170731707317,66.46341463414635 71.23983739837398,66.0060975609756 71.7479674796748,65.44715447154472 72.15447154471545,64.88821138211382 72.61178861788618,64.380081300813 73.0691056910569,63.82113821138211 73.42479674796748,63.3130081300813 73.83130081300813,62.7540650406504 74.1869918699187,62.24593495934959 74.54268292682927,61.73780487804878 74.84756097560975,61.229674796747965 75.15243902439025,60.72154471544715 75.35569105691057,60.21341463414634 75.60975609756098,59.70528455284553 75.86382113821138,59.197154471544714 76.0670731707317,58.6890243902439 76.21951219512195,58.231707317073166 76.3719512195122,57.77439024390244 76.47357723577235,57.418699186991866 76.57520325203252,57.012195121951216 76.67682926829268,56.55487804878049 76.77845528455285,56.14837398373984 76.880081300813,55.6910569105691 76.98170731707317,55.28455284552845 77.08333333333333,54.8780487804878 77.1341463414634,54.420731707317074 77.1849593495935,54.014227642276424 77.23577235772358,53.607723577235774 77.23577235772358,53.302845528455286 77.23577235772358,52.947154471544714 77.23577235772358,52.69308943089431 77.23577235772358,52.38821138211382 77.23577235772358,52.083333333333336 77.23577235772358,51.77845528455284 77.23577235772358,51.47357723577235 77.23577235772358,51.21951219512195 77.1849593495935,50.96544715447154" fill="none" stroke="black" stroke-width="0.6"></polyline><polyline points="77.1849593495935,50.96544715447154 77.1341463414634,50.71138211382114 77.08333333333333,50.45731707317073 77.03252032520325,50.2540650406504 76.93089430894308,50 76.880081300813,49.796747967479675 76.82926829268293,49.64430894308943 76.72764227642276,49.49186991869919 76.67682926829268,49.390243902439025 76.6260162601626,49.33943089430894 76.6260162601626,49.28861788617886 76.6260162601626,49.28861788617886 76.57520325203252,49.28861788617886 76.57520325203252,49.28861788617886 76.57520325203252,49.28861788617886 76.57520325203252,49.28861788617886 76.57520325203252,49.28861788617886 76.6260162601626,49.28861788617886" fill="none" stroke="black" stroke-width="0.6"></polyline></svg>