<svg height="100" width="100" preserveAspectRatio="xMidYMid meet"><polyline points="49.4410569105691,50.203252032520325 49.4410569105691,50.203252032520325 49.4410569105691,50.203252032520325 49.4410569105691,50.203252032520325 49.4410569105691,50.203252032520325 49.4410569105691,50.203252032520325 49.49186991869919,50.203252032520325 49.49186991869919,50.203252032520325 49.542682926829265,50.203252032520325 49.542682926829265,50.203252032520325 49.59349593495935,50.203252032520325 49.64430894308943,50.15243902439024 49.69512195121951,50.15243902439024 49.74593495934959,50.10162601626016 49.796747967479675,50.10162601626016 49.796747967479675,50.05081300813008 49.89837398373984,50.05081300813008 49.949186991869915,50 50,50 50.05081300813008,49.949186991869915 50.10162601626016,49.89837398373984 50.15243902439024,49.84756097560975 50.203252032520325,49.84756097560975 50.2540650406504,49.796747967479675 50.2540650406504,49.74593495934959 50.30487804878049,49.74593495934959 50.30487804878049,49.69512195121951 50.30487804878049,49.69512195121951 50.355691056910565,49.64430894308943 50.355691056910565,49.59349593495935 50.355691056910565,49.59349593495935 50.355691056910565,49.542682926829265 50.355691056910565,49.49186991869919 50.355691056910565,49.4410569105691 50.355691056910565,49.4410569105691 50.355691056910565,49.390243902439025 50.355691056910565,49.33943089430894 50.355691056910565,49.33943089430894 50.355691056910565,49.28861788617886 50.30487804878049,49.23780487804878 50.30487804878049,49.23780487804878 50.2540650406504,49.1869918699187 50.2540650406504,49.136178861788615 50.2540650406504,49.08536585365854 50.203252032520325,49.03455284552845 50.203252032520325,48.983739837398375 50.203252032520325,48.93292682926829 50.15243902439024,48.88211382113821 50.15243902439024,48.83130081300813 50.15243902439024,48.78048780487805 50.10162601626016,48.729674796747965" fill="none" stroke="black" stroke-width="0.6"></polyline><polyline points="50.10162601626016,48.729674796747965 50.10162601626016,48.729674796747965 50.05081300813008,48.67886178861789 50.05081300813008,48.6280487804878 50.05081300813008,48.577235772357724 50,48.52642276422764 50,48.47560975609756 49.949186991869915,48.47560975609756 49.949186991869915,48.42479674796748 49.89837398373984,48.3739837398374 49.89837398373984,48.3739837398374 49.84756097560975,48.323170731707314 49.84756097560975,48.323170731707314 49.796747967479675,48.27235772357724 49.796747967479675,48.27235772357724 49.74593495934959,48.27235772357724 49.69512195121951,48.27235772357724 49.64430894308943,48.22154471544715 49.64430894308943,48.22154471544715 49.59349593495935,48.22154471544715 49.49186991869919,48.22154471544715 49.4410569105691,48.22154471544715 49.390243902439025,48.22154471544715 49.33943089430894,48.170731707317074 49.28861788617886,48.170731707317074 49.23780487804878,48.170731707317074 49.1869918699187,48.170731707317074 49.08536585365854,48.170731707317074 49.03455284552845,48.170731707317074 48.983739837398375,48.170731707317074 48.93292682926829,48.170731707317074 48.83130081300813,48.170731707317074 48.78048780487805,48.170731707317074 48.729674796747965,48.170731707317074 48.67886178861789,48.170731707317074 48.577235772357724,48.170731707317074 48.52642276422764,48.170731707317074 48.47560975609756,48.170731707317074 48.42479674796748,48.170731707317074 48.3739837398374,48.170731707317074 48.27235772357724,48.22154471544715 48.22154471544715,48.22154471544715 48.170731707317074,48.22154471544715 48.11991869918699,48.27235772357724 48.01829268292683,48.27235772357724 47.96747967479675,48.27235772357724 47.916666666666664,48.323170731707314 47.86585365853659,48.3739837398374 47.8150406504065,48.3739837398374 47.71341463414634,48.42479674796748 47.66260162601626,48.47560975609756" fill="none" stroke="black" stroke-width="0.6"></polyline><polyline points="47.66260162601626,48.47560975609756 47.61178861788618,48.47560975609756 47.510162601626014,48.52642276422764 47.459349593495936,48.577235772357724 47.40853658536585,48.577235772357724 47.357723577235774,48.6280487804878 47.30691056910569,48.67886178861789 47.30691056910569,48.67886178861789 47.25609756097561,48.729674796747965 47.20528455284553,48.78048780487805 47.15447154471545,48.83130081300813 47.103658536585364,48.88211382113821 47.103658536585364,48.93292682926829 47.052845528455286,48.93292682926829 47.0020325203252,48.983739837398375 47.0020325203252,49.03455284552845 46.951219512195124,49.08536585365854 46.951219512195124,49.136178861788615 46.90040650406504,49.136178861788615 46.84959349593496,49.1869918699187 46.798780487804876,49.23780487804878 46.798780487804876,49.28861788617886 46.7479674796748,49.33943089430894 46.7479674796748,49.390243902439025 46.697154471544714,49.4410569105691 46.697154471544714,49.49186991869919 46.646341463414636,49.542682926829265 46.646341463414636,49.59349593495935 46.59552845528455,49.59349593495935 46.59552845528455,49.64430894308943 46.59552845528455,49.69512195121951 46.54471544715447,49.74593495934959 46.54471544715447,49.796747967479675 46.54471544715447,49.84756097560975 46.49390243902439,49.89837398373984 46.49390243902439,49.949186991869915 46.49390243902439,50 46.44308943089431,50.05081300813008 46.44308943089431,50.10162601626016 46.44308943089431,50.15243902439024 46.392276422764226,50.203252032520325 46.392276422764226,50.30487804878049 46.392276422764226,50.355691056910565 46.392276422764226,50.40650406504065 46.392276422764226,50.50813008130081 46.34146341463415,50.55894308943089 46.34146341463415,50.609756097560975 46.34146341463415,50.71138211382114 46.34146341463415,50.762195121951216 46.34146341463415,50.86382113821138 46.34146341463415,50.91463414634146" fill="none" stroke="black" stroke-width="0.6"></polyline><polyline points="46.34146341463415,50.91463414634146 46.34146341463415,50.96544715447154 46.290650406504064,51.016260162601625 46.290650406504064,51.11788617886179 46.290650406504064,51.168699186991866 46.290650406504064,51.21951219512195 46.290650406504064,51.27032520325203 46.290650406504064,51.32113821138211 46.290650406504064,51.37195121951219 46.290650406504064,51.422764227642276 46.290650406504064,51.47357723577235 46.290650406504064,51.52439024390244 46.290650406504064,51.575203252032516 46.290650406504064,51.6260162601626 46.290650406504064,51.67682926829268 46.290650406504064,51.72764227642276 46.290650406504064,51.72764227642276 46.290650406504064,51.77845528455284 46.290650406504064,51.829268292682926 46.290650406504064,51.880081300813 46.290650406504064,51.93089430894309 46.290650406504064,51.981707317073166 46.34146341463415,52.03252032520325 46.34146341463415,52.083333333333336 46.34146341463415,52.13414634146341 46.34146341463415,52.1849593495935 46.34146341463415,52.28658536585366 46.34146341463415,52.33739837398374 46.34146341463415,52.38821138211382 46.34146341463415,52.489837398373986 46.34146341463415,52.540650406504064 46.392276422764226,52.642276422764226 46.392276422764226,52.74390243902439 46.392276422764226,52.79471544715447 46.392276422764226,52.896341463414636 46.392276422764226,52.9979674796748 46.44308943089431,53.048780487804876 46.44308943089431,53.15040650406504 46.49390243902439,53.201219512195124 46.49390243902439,53.302845528455286 46.49390243902439,53.353658536585364 46.54471544715447,53.45528455284553 46.59552845528455,53.50609756097561 46.59552845528455,53.55691056910569 46.646341463414636,53.607723577235774 46.697154471544714,53.65853658536585 46.7479674796748,53.709349593495936 46.7479674796748,53.760162601626014 46.798780487804876,53.760162601626014 46.84959349593496,53.8109756097561 46.90040650406504,53.86178861788618" fill="none" stroke="black" stroke-width="0.6"></polyline><polyline points="46.90040650406504,53.86178861788618 46.951219512195124,53.86178861788618 47.0020325203252,53.91260162601626 47.052845528455286,53.96341463414634 47.103658536585364,53.96341463414634 47.15447154471545,54.014227642276424 47.20528455284553,54.0650406504065 47.25609756097561,54.0650406504065 47.30691056910569,54.11585365853659 47.357723577235774,54.166666666666664 47.40853658536585,54.166666666666664 47.459349593495936,54.21747967479675 47.459349593495936,54.21747967479675 47.510162601626014,54.26829268292683 47.5609756097561,54.26829268292683 47.61178861788618,54.31910569105691 47.66260162601626,54.31910569105691 47.71341463414634,54.36991869918699 47.764227642276424,54.36991869918699 47.8150406504065,54.420731707317074 47.86585365853659,54.420731707317074 47.86585365853659,54.47154471544715 47.916666666666664,54.47154471544715 47.96747967479675,54.47154471544715 48.01829268292683,54.47154471544715 48.06910569105691,54.52235772357724 48.11991869918699,54.52235772357724 48.170731707317074,54.52235772357724 48.22154471544715,54.573170731707314 48.27235772357724,54.573170731707314 48.323170731707314,54.6239837398374 48.42479674796748,54.6239837398374 48.47560975609756,54.67479674796748 48.52642276422764,54.67479674796748 48.6280487804878,54.67479674796748 48.67886178861789,54.72560975609756 48.78048780487805,54.72560975609756 48.83130081300813,54.72560975609756 48.93292682926829,54.77642276422764 48.983739837398375,54.77642276422764 49.08536585365854,54.77642276422764 49.1869918699187,54.827235772357724 49.28861788617886,54.827235772357724 49.390243902439025,54.827235772357724 49.49186991869919,54.827235772357724 49.59349593495935,54.8780487804878 49.69512195121951,54.8780487804878 49.796747967479675,54.8780487804878 49.89837398373984,54.8780487804878 50.05081300813008,54.8780487804878 50.15243902439024,54.8780487804878" fill="none" stroke="black" stroke-width="0.6"></polyline><polyline points="50.15243902439024,54.8780487804878 50.30487804878049,54.827235772357724 50.40650406504065,54.827235772357724 50.55894308943089,54.77642276422764 50.71138211382114,54.77642276422764 50.8130081300813,54.72560975609756 50.96544715447154,54.72560975609756 51.11788617886179,54.72560975609756 51.21951219512195,54.67479674796748 51.37195121951219,54.67479674796748 51.47357723577235,54.67479674796748 51.6260162601626,54.6239837398374 51.72764227642276,54.6239837398374 51.829268292682926,54.6239837398374 51.93089430894309,54.6239837398374 52.083333333333336,54.6239837398374 52.1849593495935,54.573170731707314 52.28658536585366,54.573170731707314 52.38821138211382,54.573170731707314 52.489837398373986,54.573170731707314 52.540650406504064,54.573170731707314 52.642276422764226,54.52235772357724 52.74390243902439,54.52235772357724 52.84552845528455,54.52235772357724 52.947154471544714,54.47154471544715 52.9979674796748,54.47154471544715 53.09959349593496,54.420731707317074 53.201219512195124,54.420731707317074 53.353658536585364,54.36991869918699 53.45528455284553,54.31910569105691 53.55691056910569,54.31910569105691 53.65853658536585,54.26829268292683 53.760162601626014,54.26829268292683 53.86178861788618,54.21747967479675 53.96341463414634,54.21747967479675 54.0650406504065,54.166666666666664 54.166666666666664,54.166666666666664 54.31910569105691,54.11585365853659 54.420731707317074,54.11585365853659 54.52235772357724,54.0650406504065 54.6239837398374,54.0650406504065 54.72560975609756,54.014227642276424 54.827235772357724,53.96341463414634 54.92886178861789,53.96341463414634 55.03048780487805,53.91260162601626 55.13211382113821,53.86178861788618 55.18292682926829,53.8109756097561 55.28455284552845,53.760162601626014 55.386178861788615,53.709349593495936 55.48780487804878,53.65853658536585 55.58943089430894,53.607723577235774" fill="none" stroke="black" stroke-width="0.6"></polyline><polyline points="55.58943089430894,53.607723577235774 55.6910569105691,53.50609756097561 55.792682926829265,53.45528455284553 55.89430894308943,53.353658536585364 55.94512195121951,53.2520325203252 56.046747967479675,53.201219512195124 56.14837398373984,53.09959349593496 56.199186991869915,53.048780487804876 56.30081300813008,52.947154471544714 56.35162601626016,52.84552845528455 56.453252032520325,52.79471544715447 56.5040650406504,52.69308943089431 56.605691056910565,52.59146341463415 56.65650406504065,52.489837398373986 56.70731707317073,52.4390243902439 56.75813008130081,52.33739837398374 56.80894308943089,52.235772357723576 56.859756097560975,52.13414634146341 56.91056910569105,52.03252032520325 56.96138211382114,51.981707317073166 56.96138211382114,51.880081300813 57.012195121951216,51.77845528455284 57.0630081300813,51.72764227642276 57.11382113821138,51.6260162601626 57.11382113821138,51.575203252032516 57.16463414634146,51.47357723577235 57.16463414634146,51.422764227642276 57.21544715447154,51.37195121951219 57.21544715447154,51.32113821138211 57.21544715447154,51.21951219512195 57.21544715447154,51.168699186991866 57.21544715447154,51.11788617886179 57.266260162601625,51.0670731707317 57.266260162601625,51.016260162601625 57.266260162601625,50.96544715447154 57.266260162601625,50.91463414634146 57.266260162601625,50.86382113821138 57.266260162601625,50.762195121951216 57.266260162601625,50.71138211382114 57.266260162601625,50.66056910569105 57.266260162601625,50.609756097560975 57.266260162601625,50.55894308943089 57.266260162601625,50.45731707317073 57.266260162601625,50.40650406504065 57.266260162601625,50.355691056910565 57.266260162601625,50.2540650406504 57.266260162601625,50.203252032520325 57.3170731707317,50.10162601626016 57.3170731707317,50.05081300813008 57.3170731707317,49.949186991869915 57.3170731707317,49.84756097560975" fill="none" stroke="black" stroke-width="0.6"></polyline><polyline points="57.3170731707317,49.84756097560975 57.36788617886179,49.796747967479675 57.36788617886179,49.69512195121951 57.36788617886179,49.59349593495935 57.36788617886179,49.49186991869919 57.36788617886179,49.4410569105691 57.418699186991866,49.28861788617886 57.418699186991866,49.1869918699187 57.418699186991866,49.08536585365854 57.418699186991866,48.983739837398375 57.418699186991866,48.88211382113821 57.418699186991866,48.78048780487805 57.418699186991866,48.6280487804878 57.418699186991866,48.52642276422764 57.418699186991866,48.42479674796748 57.418699186991866,48.27235772357724 57.418699186991866,48.170731707317074 57.36788617886179,48.06910569105691 57.36788617886179,47.96747967479675 57.3170731707317,47.86585365853659 57.3170731707317,47.764227642276424 57.266260162601625,47.66260162601626 57.266260162601625,47.5609756097561 57.21544715447154,47.459349593495936 57.21544715447154,47.357723577235774 57.16463414634146,47.25609756097561 57.16463414634146,47.15447154471545 57.11382113821138,47.052845528455286 57.0630081300813,46.951219512195124 57.012195121951216,46.798780487804876 56.96138211382114,46.697154471544714 56.91056910569105,46.59552845528455 56.91056910569105,46.44308943089431 56.80894308943089,46.290650406504064 56.80894308943089,46.13821138211382 56.70731707317073,46.03658536585366 56.65650406504065,45.88414634146341 56.605691056910565,45.73170731707317 56.55487804878049,45.63008130081301 56.5040650406504,45.52845528455285 56.453252032520325,45.3760162601626 56.35162601626016,45.27439024390244 56.30081300813008,45.172764227642276 56.199186991869915,45.07113821138211 56.14837398373984,45.02032520325203 56.046747967479675,44.918699186991866 55.99593495934959,44.86788617886179 55.89430894308943,44.766260162601625 55.792682926829265,44.66463414634146 55.74186991869919,44.61382113821138 55.6910569105691,44.512195121951216" fill="none" stroke="black" stroke-width="0.6"></polyline><polyline points="55.6910569105691,44.512195121951216 55.58943089430894,44.46138211382114 55.48780487804878,44.41056910569105 55.4369918699187,44.30894308943089 55.33536585365854,44.25813008130081 55.28455284552845,44.15650406504065 55.233739837398375,44.105691056910565 55.13211382113821,44.0040650406504 55.08130081300813,43.953252032520325 55.03048780487805,43.85162601626016 54.92886178861789,43.80081300813008 54.8780487804878,43.75 54.77642276422764,43.699186991869915 54.72560975609756,43.59756097560975 54.67479674796748,43.546747967479675 54.6239837398374,43.49593495934959 54.52235772357724,43.39430894308943 54.47154471544715,43.34349593495935 54.420731707317074,43.292682926829265 54.31910569105691,43.24186991869919 54.26829268292683,43.1910569105691 54.21747967479675,43.140243902439025 54.11585365853659,43.140243902439025 54.0650406504065,43.08943089430894 53.96341463414634,43.03861788617886 53.91260162601626,42.98780487804878 53.8109756097561,42.9369918699187 53.760162601626014,42.886178861788615 53.65853658536585,42.83536585365854 53.55691056910569,42.83536585365854 53.50609756097561,42.78455284552845 53.40447154471545,42.733739837398375 53.302845528455286,42.68292682926829 53.201219512195124,42.63211382113821 53.09959349593496,42.58130081300813 52.9979674796748,42.53048780487805 52.896341463414636,42.479674796747965 52.79471544715447,42.42886178861789 52.69308943089431,42.3780487804878 52.59146341463415,42.3780487804878 52.489837398373986,42.327235772357724 52.38821138211382,42.27642276422764 52.28658536585366,42.22560975609756 52.13414634146341,42.17479674796748 52.03252032520325,42.1239837398374 51.880081300813,42.073170731707314 51.77845528455284,42.073170731707314 51.6260162601626,42.02235772357724 51.47357723577235,41.97154471544715 51.37195121951219,41.920731707317074 51.21951219512195,41.920731707317074" fill="none" stroke="black" stroke-width="0.6"></polyline><polyline points="51.21951219512195,41.920731707317074 51.0670731707317,41.86991869918699 50.96544715447154,41.86991869918699 50.8130081300813,41.81910569105691 50.71138211382114,41.81910569105691 50.609756097560975,41.76829268292683 50.50813008130081,41.76829268292683 50.355691056910565,41.71747967479675 50.30487804878049,41.666666666666664 50.203252032520325,41.666666666666664 50.10162601626016,41.61585365853659 50,41.61585365853659 49.949186991869915,41.5650406504065 49.84756097560975,41.5650406504065 49.796747967479675,41.5650406504065 49.69512195121951,41.514227642276424 49.59349593495935,41.514227642276424 49.542682926829265,41.514227642276424 49.4410569105691,41.514227642276424 49.33943089430894,41.514227642276424 49.28861788617886,41.514227642276424 49.1869918699187,41.514227642276424 49.136178861788615,41.514227642276424 49.03455284552845,41.514227642276424 48.93292682926829,41.514227642276424 48.88211382113821,41.514227642276424 48.78048780487805,41.514227642276424 48.67886178861789,41.514227642276424 48.6280487804878,41.514227642276424 48.52642276422764,41.514227642276424 48.47560975609756,41.514227642276424 48.3739837398374,41.514227642276424 48.323170731707314,41.514227642276424 48.27235772357724,41.514227642276424 48.170731707317074,41.514227642276424 48.11991869918699,41.514227642276424 48.06910569105691,41.514227642276424 47.96747967479675,41.514227642276424 47.916666666666664,41.514227642276424 47.86585365853659,41.514227642276424 47.764227642276424,41.5650406504065 47.71341463414634,41.5650406504065 47.66260162601626,41.5650406504065 47.5609756097561,41.5650406504065 47.510162601626014,41.5650406504065 47.459349593495936,41.5650406504065 47.357723577235774,41.61585365853659 47.30691056910569,41.61585365853659 47.25609756097561,41.61585365853659 47.15447154471545,41.666666666666664 47.103658536585364,41.666666666666664" fill="none" stroke="black" stroke-width="0.6"></polyline><polyline points="47.103658536585364,41.666666666666664 47.0020325203252,41.666666666666664 46.951219512195124,41.71747967479675 46.84959349593496,41.71747967479675 46.798780487804876,41.71747967479675 46.697154471544714,41.76829268292683 46.646341463414636,41.76829268292683 46.54471544715447,41.81910569105691 46.49390243902439,41.81910569105691 46.44308943089431,41.81910569105691 46.34146341463415,41.86991869918699 46.290650406504064,41.86991869918699 46.1890243902439,41.920731707317074 46.13821138211382,41.920731707317074 46.03658536585366,41.97154471544715 45.985772357723576,41.97154471544715 45.88414634146341,42.02235772357724 45.833333333333336,42.073170731707314 45.73170731707317,42.073170731707314 45.63008130081301,42.1239837398374 45.579268292682926,42.17479674796748 45.47764227642276,42.22560975609756 45.3760162601626,42.27642276422764 45.325203252032516,42.327235772357724 45.22357723577235,42.3780487804878 45.12195121951219,42.42886178861789 45.07113821138211,42.479674796747965 45.02032520325203,42.479674796747965 44.918699186991866,42.53048780487805 44.86788617886179,42.58130081300813 44.8170731707317,42.63211382113821 44.71544715447154,42.63211382113821 44.66463414634146,42.68292682926829 44.61382113821138,42.733739837398375 44.512195121951216,42.78455284552845 44.46138211382114,42.83536585365854 44.359756097560975,42.886178861788615 44.30894308943089,42.9369918699187 44.20731707317073,42.98780487804878 44.105691056910565,43.03861788617886 44.05487804878049,43.08943089430894 43.953252032520325,43.140243902439025 43.90243902439024,43.1910569105691 43.85162601626016,43.1910569105691 43.80081300813008,43.24186991869919 43.75,43.292682926829265 43.64837398373984,43.292682926829265 43.59756097560975,43.34349593495935 43.546747967479675,43.39430894308943 43.49593495934959,43.39430894308943 43.44512195121951,43.44512195121951" fill="none" stroke="black" stroke-width="0.6"></polyline><polyline points="43.44512195121951,43.44512195121951 43.39430894308943,43.49593495934959 43.34349593495935,43.49593495934959 43.24186991869919,43.546747967479675 43.1910569105691,43.59756097560975 43.140243902439025,43.64837398373984 43.03861788617886,43.699186991869915 42.9369918699187,43.80081300813008 42.83536585365854,43.85162601626016 42.78455284552845,43.953252032520325 42.68292682926829,44.05487804878049 42.58130081300813,44.105691056910565 42.479674796747965,44.20731707317073 42.3780487804878,44.25813008130081 42.327235772357724,44.359756097560975 42.27642276422764,44.41056910569105 42.17479674796748,44.512195121951216 42.1239837398374,44.5630081300813 42.02235772357724,44.61382113821138 41.97154471544715,44.71544715447154 41.86991869918699,44.8170731707317 41.81910569105691,44.86788617886179 41.76829268292683,44.96951219512195 41.71747967479675,45.07113821138211 41.666666666666664,45.12195121951219 41.61585365853659,45.22357723577235 41.5650406504065,45.325203252032516 41.514227642276424,45.3760162601626 41.46341463414634,45.47764227642276 41.41260162601626,45.579268292682926 41.41260162601626,45.68089430894309 41.36178861788618,45.78252032520325 41.3109756097561,45.833333333333336 41.260162601626014,45.9349593495935 41.209349593495936,46.03658536585366 41.15853658536585,46.13821138211382 41.107723577235774,46.239837398373986 41.05691056910569,46.392276422764226 41.00609756097561,46.49390243902439 40.95528455284553,46.646341463414636 40.90447154471545,46.798780487804876 40.853658536585364,46.90040650406504 40.802845528455286,47.052845528455286 40.7520325203252,47.25609756097561 40.701219512195124,47.357723577235774 40.65040650406504,47.510162601626014 40.548780487804876,47.66260162601626 40.4979674796748,47.8150406504065 40.447154471544714,47.96747967479675 40.396341463414636,48.11991869918699 40.396341463414636,48.27235772357724" fill="none" stroke="black" stroke-width="0.6"></polyline><polyline points="40.396341463414636,48.27235772357724 40.34552845528455,48.3739837398374 40.29471544715447,48.52642276422764 40.29471544715447,48.67886178861789 40.24390243902439,48.78048780487805 40.24390243902439,48.93292682926829 40.19308943089431,49.03455284552845 40.19308943089431,49.136178861788615 40.19308943089431,49.23780487804878 40.19308943089431,49.33943089430894 40.19308943089431,49.390243902439025 40.19308943089431,49.49186991869919 40.19308943089431,49.542682926829265 40.19308943089431,49.64430894308943 40.142276422764226,49.69512195121951 40.142276422764226,49.74593495934959 40.142276422764226,49.84756097560975 40.142276422764226,49.89837398373984 40.142276422764226,49.949186991869915 40.142276422764226,50.05081300813008 40.142276422764226,50.10162601626016 40.142276422764226,50.15243902439024 40.142276422764226,50.2540650406504 40.142276422764226,50.30487804878049 40.142276422764226,50.355691056910565 40.142276422764226,50.45731707317073 40.142276422764226,50.50813008130081 40.142276422764226,50.609756097560975 40.142276422764226,50.66056910569105 40.142276422764226,50.762195121951216 40.142276422764226,50.8130081300813 40.142276422764226,50.91463414634146 40.142276422764226,51.016260162601625 40.142276422764226,51.11788617886179 40.142276422764226,51.21951219512195 40.142276422764226,51.32113821138211 40.142276422764226,51.422764227642276 40.142276422764226,51.52439024390244 40.142276422764226,51.6260162601626 40.142276422764226,51.72764227642276 40.142276422764226,51.829268292682926 40.19308943089431,51.93089430894309 40.19308943089431,52.03252032520325 40.19308943089431,52.13414634146341 40.19308943089431,52.1849593495935 40.19308943089431,52.28658536585366 40.19308943089431,52.38821138211382 40.24390243902439,52.489837398373986 40.24390243902439,52.59146341463415 40.24390243902439,52.69308943089431 40.24390243902439,52.79471544715447" fill="none" stroke="black" stroke-width="0.6"></polyline><polyline points="40.24390243902439,52.79471544715447 40.24390243902439,52.896341463414636 40.24390243902439,52.9979674796748 40.29471544715447,53.09959349593496 40.29471544715447,53.201219512195124 40.29471544715447,53.302845528455286 40.29471544715447,53.40447154471545 40.29471544715447,53.50609756097561 40.34552845528455,53.607723577235774 40.34552845528455,53.709349593495936 40.34552845528455,53.760162601626014 40.34552845528455,53.86178861788618 40.396341463414636,53.96341463414634 40.396341463414636,54.0650406504065 40.447154471544714,54.11585365853659 40.447154471544714,54.21747967479675 40.4979674796748,54.26829268292683 40.4979674796748,54.36991869918699 40.548780487804876,54.47154471544715 40.59959349593496,54.573170731707314 40.59959349593496,54.67479674796748 40.65040650406504,54.77642276422764 40.701219512195124,54.827235772357724 40.701219512195124,54.979674796747965 40.7520325203252,55.08130081300813 40.802845528455286,55.18292682926829 40.853658536585364,55.28455284552845 40.90447154471545,55.386178861788615 40.90447154471545,55.48780487804878 40.95528455284553,55.58943089430894 41.00609756097561,55.6910569105691 41.05691056910569,55.792682926829265 41.05691056910569,55.89430894308943 41.107723577235774,55.99593495934959 41.15853658536585,56.09756097560975 41.209349593495936,56.199186991869915 41.260162601626014,56.25 41.3109756097561,56.35162601626016 41.36178861788618,56.40243902439024 41.41260162601626,56.5040650406504 41.46341463414634,56.55487804878049 41.514227642276424,56.605691056910565 41.5650406504065,56.70731707317073 41.61585365853659,56.75813008130081 41.61585365853659,56.80894308943089 41.666666666666664,56.859756097560975 41.71747967479675,56.96138211382114 41.76829268292683,57.012195121951216 41.81910569105691,57.0630081300813 41.86991869918699,57.11382113821138 41.920731707317074,57.21544715447154" fill="none" stroke="black" stroke-width="0.6"></polyline><polyline points="41.920731707317074,57.21544715447154 41.97154471544715,57.266260162601625 42.02235772357724,57.3170731707317 42.073170731707314,57.418699186991866 42.1239837398374,57.46951219512195 42.17479674796748,57.52032520325203 42.22560975609756,57.62195121951219 42.327235772357724,57.672764227642276 42.42886178861789,57.77439024390244 42.53048780487805,57.825203252032516 42.58130081300813,57.8760162601626 42.68292682926829,57.97764227642276 42.78455284552845,58.02845528455284 42.886178861788615,58.130081300813 42.9369918699187,58.18089430894309 42.98780487804878,58.28252032520325 43.08943089430894,58.33333333333333 43.140243902439025,58.38414634146341 43.1910569105691,58.43495934959349 43.24186991869919,58.536585365853654 43.34349593495935,58.58739837398374 43.39430894308943,58.63821138211382 43.44512195121951,58.6890243902439 43.49593495934959,58.739837398373986 43.546747967479675,58.790650406504064 43.59756097560975,58.84146341463415 43.64837398373984,58.84146341463415 43.699186991869915,58.892276422764226 43.75,58.94308943089431 43.80081300813008,58.99390243902439 43.85162601626016,59.04471544715447 43.90243902439024,59.04471544715447 43.953252032520325,59.09552845528455 44.0040650406504,59.146341463414636 44.05487804878049,59.146341463414636 44.105691056910565,59.197154471544714 44.15650406504065,59.2479674796748 44.20731707317073,59.298780487804876 44.25813008130081,59.34959349593496 44.30894308943089,59.40040650406504 44.359756097560975,59.451219512195124 44.46138211382114,59.5020325203252 44.512195121951216,59.603658536585364 44.5630081300813,59.65447154471545 44.66463414634146,59.70528455284553 44.766260162601625,59.75609756097561 44.86788617886179,59.80691056910569 44.96951219512195,59.90853658536585 45.07113821138211,59.959349593495936 45.172764227642276,60.010162601626014 45.27439024390244,60.0609756097561" fill="none" stroke="black" stroke-width="0.6"></polyline><polyline points="45.27439024390244,60.0609756097561 45.3760162601626,60.11178861788618 45.47764227642276,60.16260162601626 45.579268292682926,60.21341463414634 45.68089430894309,60.264227642276424 45.78252032520325,60.264227642276424 45.88414634146341,60.3150406504065 45.985772357723576,60.36585365853659 46.08739837398374,60.36585365853659 46.1890243902439,60.416666666666664 46.290650406504064,60.416666666666664 46.392276422764226,60.416666666666664 46.49390243902439,60.46747967479675 46.59552845528455,60.46747967479675 46.7479674796748,60.51829268292683 46.84959349593496,60.51829268292683 46.951219512195124,60.56910569105691 47.052845528455286,60.56910569105691 47.20528455284553,60.56910569105691 47.30691056910569,60.61991869918699 47.40853658536585,60.61991869918699 47.5609756097561,60.61991869918699 47.66260162601626,60.670731707317074 47.8150406504065,60.670731707317074 47.916666666666664,60.72154471544715 48.01829268292683,60.72154471544715 48.11991869918699,60.77235772357724 48.22154471544715,60.823170731707314 48.323170731707314,60.823170731707314 48.42479674796748,60.8739837398374 48.52642276422764,60.92479674796748 48.6280487804878,60.97560975609756 48.78048780487805,60.97560975609756 48.93292682926829,61.02642276422764 49.03455284552845,61.077235772357724 49.1869918699187,61.077235772357724 49.33943089430894,61.077235772357724 49.4410569105691,61.1280487804878 49.59349593495935,61.1280487804878 49.74593495934959,61.1280487804878 49.89837398373984,61.1280487804878 50,61.1280487804878 50.15243902439024,61.077235772357724 50.2540650406504,61.077235772357724 50.355691056910565,61.077235772357724 50.45731707317073,61.077235772357724 50.55894308943089,61.02642276422764 50.71138211382114,61.02642276422764 50.8130081300813,61.02642276422764 50.91463414634146,61.02642276422764 51.016260162601625,61.02642276422764" fill="none" stroke="black" stroke-width="0.6"></polyline><polyline points="51.016260162601625,61.02642276422764 51.168699186991866,61.02642276422764 51.27032520325203,61.02642276422764 51.37195121951219,61.02642276422764 51.52439024390244,61.02642276422764 51.6260162601626,61.02642276422764 51.72764227642276,61.02642276422764 51.880081300813,61.02642276422764 51.981707317073166,61.02642276422764 52.083333333333336,61.02642276422764 52.235772357723576,61.02642276422764 52.33739837398374,61.02642276422764 52.4390243902439,61.02642276422764 52.540650406504064,61.02642276422764 52.69308943089431,61.02642276422764 52.84552845528455,61.02642276422764 52.947154471544714,61.077235772357724 53.09959349593496,61.077235772357724 53.201219512195124,61.077235772357724 53.353658536585364,61.077235772357724 53.50609756097561,61.1280487804878 53.65853658536585,61.1280487804878 53.8109756097561,61.1280487804878 53.91260162601626,61.1280487804878 54.0650406504065,61.1280487804878 54.166666666666664,61.077235772357724 54.31910569105691,61.077235772357724 54.420731707317074,61.02642276422764 54.573170731707314,60.97560975609756 54.67479674796748,60.97560975609756 54.77642276422764,60.92479674796748 54.8780487804878,60.8739837398374 54.979674796747965,60.823170731707314 55.08130081300813,60.77235772357724 55.18292682926829,60.72154471544715 55.33536585365854,60.72154471544715 55.4369918699187,60.670731707317074 55.48780487804878,60.670731707317074 55.640243902439025,60.61991869918699 55.6910569105691,60.56910569105691 55.792682926829265,60.56910569105691 55.89430894308943,60.51829268292683 55.99593495934959,60.51829268292683 56.09756097560975,60.46747967479675 56.199186991869915,60.416666666666664 56.30081300813008,60.416666666666664 56.40243902439024,60.36585365853659 56.5040650406504,60.36585365853659 56.605691056910565,60.3150406504065 56.70731707317073,60.264227642276424 56.80894308943089,60.21341463414634" fill="none" stroke="black" stroke-width="0.6"></polyline><polyline points="56.80894308943089,60.21341463414634 56.859756097560975,60.16260162601626 56.96138211382114,60.11178861788618 57.0630081300813,60.0609756097561 57.16463414634146,60.010162601626014 57.266260162601625,59.959349593495936 57.36788617886179,59.90853658536585 57.46951219512195,59.857723577235774 57.57113821138211,59.80691056910569 57.72357723577235,59.70528455284553 57.825203252032516,59.65447154471545 57.92682926829268,59.603658536585364 58.079268292682926,59.5020325203252 58.18089430894309,59.451219512195124 58.28252032520325,59.34959349593496 58.43495934959349,59.2479674796748 58.536585365853654,59.146341463414636 58.6890243902439,59.04471544715447 58.790650406504064,58.94308943089431 58.94308943089431,58.84146341463415 59.09552845528455,58.739837398373986 59.197154471544714,58.63821138211382 59.298780487804876,58.536585365853654 59.451219512195124,58.43495934959349 59.552845528455286,58.38414634146341 59.65447154471545,58.28252032520325 59.75609756097561,58.18089430894309 59.857723577235774,58.130081300813 59.959349593495936,58.02845528455284 60.0609756097561,57.97764227642276 60.16260162601626,57.8760162601626 60.21341463414634,57.77439024390244 60.264227642276424,57.72357723577235 60.3150406504065,57.62195121951219 60.36585365853659,57.57113821138211 60.416666666666664,57.52032520325203 60.51829268292683,57.418699186991866 60.56910569105691,57.36788617886179 60.670731707317074,57.266260162601625 60.72154471544715,57.16463414634146 60.823170731707314,57.11382113821138 60.8739837398374,57.012195121951216 60.92479674796748,56.96138211382114 61.02642276422764,56.859756097560975 61.077235772357724,56.75813008130081 61.17886178861789,56.65650406504065 61.229674796747965,56.605691056910565 61.33130081300813,56.5040650406504 61.38211382113821,56.40243902439024 61.483739837398375,56.35162601626016 61.53455284552845,56.25" fill="none" stroke="black" stroke-width="0.6"></polyline><polyline points="61.53455284552845,56.25 61.58536585365854,56.199186991869915 61.636178861788615,56.09756097560975 61.6869918699187,56.046747967479675 61.73780487804878,55.99593495934959 61.78861788617886,55.94512195121951 61.83943089430894,55.84349593495935 61.890243902439025,55.792682926829265 61.9410569105691,55.74186991869919 61.99186991869919,55.640243902439025 62.042682926829265,55.58943089430894 62.09349593495935,55.48780487804878 62.14430894308943,55.386178861788615 62.14430894308943,55.28455284552845 62.19512195121951,55.233739837398375 62.24593495934959,55.13211382113821 62.24593495934959,55.03048780487805 62.296747967479675,54.92886178861789 62.34756097560975,54.827235772357724 62.39837398373984,54.72560975609756 62.449186991869915,54.6239837398374 62.5,54.47154471544715 62.55081300813008,54.36991869918699 62.60162601626016,54.26829268292683 62.65243902439024,54.11585365853659 62.703252032520325,54.014227642276424 62.7540650406504,53.96341463414634 62.80487804878049,53.86178861788618 62.80487804878049,53.760162601626014 62.855691056910565,53.65853658536585 62.855691056910565,53.55691056910569 62.90650406504065,53.45528455284553 62.90650406504065,53.302845528455286 62.95731707317073,53.15040650406504 62.95731707317073,53.048780487804876 63.00813008130081,52.896341463414636 63.00813008130081,52.79471544715447 63.05894308943089,52.642276422764226 63.05894308943089,52.489837398373986 63.05894308943089,52.33739837398374 63.109756097560975,52.235772357723576 63.109756097560975,52.083333333333336 63.109756097560975,51.981707317073166 63.16056910569105,51.880081300813 63.16056910569105,51.77845528455284 63.21138211382114,51.6260162601626 63.262195121951216,51.52439024390244 63.262195121951216,51.422764227642276 63.3130081300813,51.27032520325203 63.36382113821138,51.168699186991866 63.36382113821138,51.0670731707317" fill="none" stroke="black" stroke-width="0.6"></polyline><polyline points="63.36382113821138,51.0670731707317 63.41463414634146,50.96544715447154 63.41463414634146,50.86382113821138 63.41463414634146,50.762195121951216 63.46544715447154,50.609756097560975 63.46544715447154,50.50813008130081 63.46544715447154,50.40650406504065 63.46544715447154,50.2540650406504 63.46544715447154,50.15243902439024 63.516260162601625,50.05081300813008 63.516260162601625,49.949186991869915 63.516260162601625,49.84756097560975 63.516260162601625,49.74593495934959 63.516260162601625,49.64430894308943 63.516260162601625,49.542682926829265 63.5670731707317,49.4410569105691 63.5670731707317,49.28861788617886 63.5670731707317,49.1869918699187 63.5670731707317,49.08536585365854 63.5670731707317,48.983739837398375 63.61788617886179,48.88211382113821 63.61788617886179,48.78048780487805 63.61788617886179,48.67886178861789 63.61788617886179,48.577235772357724 63.61788617886179,48.47560975609756 63.61788617886179,48.3739837398374 63.61788617886179,48.27235772357724 63.668699186991866,48.170731707317074 63.668699186991866,48.01829268292683 63.668699186991866,47.916666666666664 63.668699186991866,47.8150406504065 63.668699186991866,47.71341463414634 63.668699186991866,47.61178861788618 63.668699186991866,47.510162601626014 63.668699186991866,47.40853658536585 63.668699186991866,47.30691056910569 63.668699186991866,47.20528455284553 63.668699186991866,47.103658536585364 63.61788617886179,47.0020325203252 63.61788617886179,46.951219512195124 63.5670731707317,46.84959349593496 63.5670731707317,46.7479674796748 63.516260162601625,46.646341463414636 63.516260162601625,46.54471544715447 63.46544715447154,46.44308943089431 63.46544715447154,46.290650406504064 63.41463414634146,46.1890243902439 63.36382113821138,46.08739837398374 63.36382113821138,45.985772357723576 63.3130081300813,45.88414634146341 63.262195121951216,45.833333333333336" fill="none" stroke="black" stroke-width="0.6"></polyline><polyline points="63.262195121951216,45.833333333333336 63.21138211382114,45.78252032520325 63.16056910569105,45.73170731707317 63.16056910569105,45.68089430894309 63.109756097560975,45.63008130081301 63.05894308943089,45.579268292682926 63.00813008130081,45.52845528455285 63.00813008130081,45.47764227642276 62.95731707317073,45.42682926829268 62.90650406504065,45.3760162601626 62.90650406504065,45.27439024390244 62.90650406504065,45.22357723577235 62.855691056910565,45.172764227642276 62.855691056910565,45.12195121951219 62.80487804878049,45.07113821138211 62.80487804878049,45.02032520325203 62.80487804878049,44.918699186991866 62.7540650406504,44.86788617886179 62.7540650406504,44.8170731707317 62.703252032520325,44.766260162601625 62.703252032520325,44.71544715447154 62.65243902439024,44.61382113821138 62.60162601626016,44.5630081300813 62.60162601626016,44.512195121951216 62.55081300813008,44.41056910569105 62.5,44.359756097560975 62.5,44.25813008130081 62.449186991869915,44.20731707317073 62.39837398373984,44.105691056910565 62.39837398373984,44.05487804878049 62.34756097560975,43.953252032520325 62.296747967479675,43.90243902439024 62.296747967479675,43.80081300813008 62.24593495934959,43.75 62.19512195121951,43.64837398373984 62.19512195121951,43.59756097560975 62.14430894308943,43.49593495934959 62.09349593495935,43.39430894308943 62.042682926829265,43.34349593495935 62.042682926829265,43.24186991869919 61.99186991869919,43.1910569105691 61.9410569105691,43.08943089430894 61.890243902439025,43.03861788617886 61.83943089430894,42.98780487804878 61.78861788617886,42.886178861788615 61.73780487804878,42.83536585365854 61.6869918699187,42.78455284552845 61.636178861788615,42.733739837398375 61.58536585365854,42.63211382113821 61.53455284552845,42.58130081300813 61.483739837398375,42.479674796747965" fill="none" stroke="black" stroke-width="0.6"></polyline><polyline points="61.483739837398375,42.479674796747965 61.43292682926829,42.42886178861789 61.38211382113821,42.3780487804878 61.38211382113821,42.27642276422764 61.33130081300813,42.17479674796748 61.28048780487805,42.1239837398374 61.229674796747965,42.02235772357724 61.229674796747965,41.920731707317074 61.17886178861789,41.86991869918699 61.1280487804878,41.76829268292683 61.077235772357724,41.666666666666664 61.077235772357724,41.5650406504065 61.02642276422764,41.46341463414634 60.97560975609756,41.36178861788618 60.97560975609756,41.260162601626014 60.92479674796748,41.15853658536585 60.8739837398374,41.05691056910569 60.8739837398374,40.95528455284553 60.823170731707314,40.853658536585364 60.77235772357724,40.802845528455286 60.72154471544715,40.701219512195124 60.670731707317074,40.65040650406504 60.61991869918699,40.548780487804876 60.61991869918699,40.4979674796748 60.56910569105691,40.396341463414636 60.51829268292683,40.34552845528455 60.46747967479675,40.24390243902439 60.416666666666664,40.19308943089431 60.36585365853659,40.142276422764226 60.3150406504065,40.040650406504064 60.21341463414634,39.989837398373986 60.16260162601626,39.9390243902439 60.11178861788618,39.88821138211382 60.0609756097561,39.78658536585366 60.010162601626014,39.735772357723576 59.959349593495936,39.6849593495935 59.90853658536585,39.63414634146341 59.857723577235774,39.583333333333336 59.75609756097561,39.53252032520325 59.70528455284553,39.43089430894309 59.65447154471545,39.38008130081301 59.603658536585364,39.329268292682926 59.5020325203252,39.27845528455285 59.451219512195124,39.176829268292686 59.34959349593496,39.176829268292686 59.298780487804876,39.07520325203252 59.2479674796748,39.07520325203252 59.146341463414636,39.02439024390244 59.09552845528455,38.97357723577235 59.04471544715447,38.922764227642276 58.99390243902439,38.87195121951219" fill="none" stroke="black" stroke-width="0.6"></polyline><polyline points="58.99390243902439,38.87195121951219 58.892276422764226,38.87195121951219 58.84146341463415,38.82113821138211 58.790650406504064,38.77032520325203 58.739837398373986,38.77032520325203 58.63821138211382,38.71951219512195 58.58739837398374,38.668699186991866 58.536585365853654,38.668699186991866 58.43495934959349,38.61788617886179 58.38414634146341,38.5670731707317 58.28252032520325,38.516260162601625 58.231707317073166,38.46544715447154 58.130081300813,38.41463414634146 58.02845528455284,38.36382113821138 57.97764227642276,38.3130081300813 57.8760162601626,38.262195121951216 57.77439024390244,38.16056910569105 57.72357723577235,38.109756097560975 57.62195121951219,38.05894308943089 57.57113821138211,38.00813008130081 57.46951219512195,37.95731707317073 57.418699186991866,37.90650406504065 57.3170731707317,37.855691056910565 57.266260162601625,37.80487804878049 57.16463414634146,37.7540650406504 57.11382113821138,37.703252032520325 57.012195121951216,37.65243902439024 56.96138211382114,37.60162601626016 56.91056910569105,37.55081300813008 56.80894308943089,37.5 56.75813008130081,37.449186991869915 56.65650406504065,37.34756097560975 56.605691056910565,37.296747967479675 56.55487804878049,37.24593495934959 56.453252032520325,37.19512195121951 56.40243902439024,37.14430894308943 56.35162601626016,37.09349593495935 56.25,37.042682926829265 56.14837398373984,37.042682926829265 56.09756097560975,36.99186991869919 55.99593495934959,36.9410569105691 55.94512195121951,36.9410569105691 55.84349593495935,36.890243902439025 55.792682926829265,36.83943089430894 55.6910569105691,36.83943089430894 55.640243902439025,36.78861788617886 55.53861788617886,36.73780487804878 55.4369918699187,36.73780487804878 55.386178861788615,36.6869918699187 55.28455284552845,36.636178861788615 55.18292682926829,36.636178861788615" fill="none" stroke="black" stroke-width="0.6"></polyline><polyline points="55.18292682926829,36.636178861788615 55.13211382113821,36.58536585365854 55.03048780487805,36.53455284552845 54.92886178861789,36.53455284552845 54.8780487804878,36.483739837398375 54.77642276422764,36.43292682926829 54.67479674796748,36.38211382113821 54.573170731707314,36.33130081300813 54.47154471544715,36.28048780487805 54.36991869918699,36.28048780487805 54.31910569105691,36.229674796747965 54.21747967479675,36.17886178861789 54.11585365853659,36.17886178861789 54.0650406504065,36.1280487804878 53.96341463414634,36.1280487804878 53.86178861788618,36.077235772357724 53.760162601626014,36.02642276422764 53.709349593495936,36.02642276422764 53.607723577235774,35.97560975609756 53.50609756097561,35.97560975609756 53.45528455284553,35.92479674796748 53.353658536585364,35.92479674796748 53.302845528455286,35.8739837398374 53.201219512195124,35.823170731707314 53.09959349593496,35.823170731707314 53.048780487804876,35.77235772357724 52.947154471544714,35.77235772357724 52.896341463414636,35.72154471544715 52.79471544715447,35.670731707317074 52.69308943089431,35.670731707317074 52.642276422764226,35.61991869918699 52.540650406504064,35.61991869918699 52.4390243902439,35.56910569105691 52.33739837398374,35.51829268292683 52.28658536585366,35.51829268292683 52.1849593495935,35.46747967479675 52.083333333333336,35.416666666666664 51.981707317073166,35.416666666666664 51.829268292682926,35.36585365853659 51.72764227642276,35.36585365853659 51.6260162601626,35.3150406504065 51.47357723577235,35.3150406504065 51.37195121951219,35.264227642276424 51.21951219512195,35.264227642276424 51.11788617886179,35.264227642276424 50.96544715447154,35.21341463414634 50.8130081300813,35.21341463414634 50.71138211382114,35.21341463414634 50.55894308943089,35.21341463414634 50.40650406504065,35.21341463414634 50.2540650406504,35.21341463414634" fill="none" stroke="black" stroke-width="0.6"></polyline><polyline points="50.2540650406504,35.21341463414634 50.15243902439024,35.16260162601626 49.949186991869915,35.16260162601626 49.84756097560975,35.16260162601626 49.69512195121951,35.16260162601626 49.542682926829265,35.16260162601626 49.390243902439025,35.16260162601626 49.23780487804878,35.16260162601626 49.136178861788615,35.16260162601626 48.983739837398375,35.16260162601626 48.88211382113821,35.16260162601626 48.78048780487805,35.16260162601626 48.6280487804878,35.16260162601626 48.52642276422764,35.16260162601626 48.42479674796748,35.16260162601626 48.323170731707314,35.16260162601626 48.27235772357724,35.16260162601626 48.170731707317074,35.16260162601626 48.06910569105691,35.16260162601626 47.96747967479675,35.11178861788618 47.916666666666664,35.11178861788618 47.8150406504065,35.11178861788618 47.71341463414634,35.11178861788618 47.61178861788618,35.11178861788618 47.5609756097561,35.11178861788618 47.459349593495936,35.11178861788618 47.357723577235774,35.11178861788618 47.30691056910569,35.11178861788618 47.20528455284553,35.11178861788618 47.15447154471545,35.11178861788618 47.052845528455286,35.11178861788618 46.951219512195124,35.11178861788618 46.84959349593496,35.11178861788618 46.798780487804876,35.11178861788618 46.697154471544714,35.11178861788618 46.59552845528455,35.11178861788618 46.49390243902439,35.11178861788618 46.392276422764226,35.11178861788618 46.290650406504064,35.11178861788618 46.13821138211382,35.11178861788618 46.03658536585366,35.11178861788618 45.9349593495935,35.16260162601626 45.78252032520325,35.16260162601626 45.68089430894309,35.21341463414634 45.52845528455285,35.21341463414634 45.3760162601626,35.264227642276424 45.22357723577235,35.3150406504065 45.07113821138211,35.36585365853659 44.918699186991866,35.416666666666664 44.766260162601625,35.46747967479675 44.5630081300813,35.56910569105691" fill="none" stroke="black" stroke-width="0.6"></polyline><polyline points="44.5630081300813,35.56910569105691 44.41056910569105,35.61991869918699 44.25813008130081,35.670731707317074 44.105691056910565,35.72154471544715 43.90243902439024,35.77235772357724 43.75,35.823170731707314 43.64837398373984,35.823170731707314 43.49593495934959,35.8739837398374 43.34349593495935,35.92479674796748 43.1910569105691,35.97560975609756 43.03861788617886,36.02642276422764 42.886178861788615,36.02642276422764 42.733739837398375,36.077235772357724 42.58130081300813,36.1280487804878 42.42886178861789,36.229674796747965 42.27642276422764,36.28048780487805 42.1239837398374,36.33130081300813 41.920731707317074,36.43292682926829 41.76829268292683,36.483739837398375 41.61585365853659,36.58536585365854 41.41260162601626,36.6869918699187 41.209349593495936,36.78861788617886 41.05691056910569,36.890243902439025 40.853658536585364,36.99186991869919 40.65040650406504,37.14430894308943 40.447154471544714,37.24593495934959 40.24390243902439,37.39837398373984 40.040650406504064,37.5 39.88821138211382,37.60162601626016 39.6849593495935,37.703252032520325 39.53252032520325,37.855691056910565 39.43089430894309,37.95731707317073 39.27845528455285,38.05894308943089 39.176829268292686,38.109756097560975 39.07520325203252,38.21138211382114 38.97357723577235,38.36382113821138 38.87195121951219,38.41463414634146 38.77032520325203,38.516260162601625 38.71951219512195,38.5670731707317 38.61788617886179,38.668699186991866 38.5670731707317,38.77032520325203 38.46544715447154,38.87195121951219 38.41463414634146,38.97357723577235 38.3130081300813,39.07520325203252 38.262195121951216,39.176829268292686 38.16056910569105,39.27845528455285 38.109756097560975,39.43089430894309 38.00813008130081,39.583333333333336 37.90650406504065,39.6849593495935 37.855691056910565,39.83739837398374 37.7540650406504,39.989837398373986" fill="none" stroke="black" stroke-width="0.6"></polyline><polyline points="37.7540650406504,39.989837398373986 37.65243902439024,40.09146341463415 37.55081300813008,40.24390243902439 37.449186991869915,40.396341463414636 37.34756097560975,40.548780487804876 37.24593495934959,40.65040650406504 37.14430894308943,40.802845528455286 37.042682926829265,40.90447154471545 36.9410569105691,41.05691056910569 36.83943089430894,41.15853658536585 36.73780487804878,41.260162601626014 36.6869918699187,41.36178861788618 36.58536585365854,41.514227642276424 36.483739837398375,41.61585365853659 36.38211382113821,41.71747967479675 36.28048780487805,41.86991869918699 36.17886178861789,41.97154471544715 36.077235772357724,42.1239837398374 36.02642276422764,42.27642276422764 35.92479674796748,42.42886178861789 35.823170731707314,42.58130081300813 35.77235772357724,42.68292682926829 35.670731707317074,42.83536585365854 35.56910569105691,42.9369918699187 35.51829268292683,43.08943089430894 35.416666666666664,43.24186991869919 35.36585365853659,43.34349593495935 35.264227642276424,43.49593495934959 35.21341463414634,43.59756097560975 35.11178861788618,43.75 35.0609756097561,43.90243902439024 34.959349593495936,44.05487804878049 34.90853658536585,44.20731707317073 34.80691056910569,44.359756097560975 34.75609756097561,44.5630081300813 34.65447154471545,44.766260162601625 34.552845528455286,44.918699186991866 34.451219512195124,45.12195121951219 34.34959349593496,45.325203252032516 34.298780487804876,45.47764227642276 34.197154471544714,45.63008130081301 34.146341463414636,45.78252032520325 34.09552845528455,45.88414634146341 34.04471544715447,46.03658536585366 33.99390243902439,46.239837398373986 33.94308943089431,46.392276422764226 33.892276422764226,46.54471544715447 33.84146341463415,46.7479674796748 33.84146341463415,46.90040650406504 33.790650406504064,47.052845528455286 33.790650406504064,47.25609756097561" fill="none" stroke="black" stroke-width="0.6"></polyline><polyline points="33.790650406504064,47.25609756097561 33.739837398373986,47.40853658536585 33.739837398373986,47.5609756097561 33.6890243902439,47.764227642276424 33.6890243902439,47.916666666666664 33.63821138211382,48.06910569105691 33.63821138211382,48.22154471544715 33.63821138211382,48.42479674796748 33.58739837398374,48.577235772357724 33.58739837398374,48.78048780487805 33.53658536585366,48.983739837398375 33.53658536585366,49.136178861788615 33.485772357723576,49.33943089430894 33.485772357723576,49.542682926829265 33.4349593495935,49.69512195121951 33.4349593495935,49.949186991869915 33.4349593495935,50.10162601626016 33.38414634146341,50.30487804878049 33.38414634146341,50.50813008130081 33.38414634146341,50.71138211382114 33.333333333333336,50.86382113821138 33.333333333333336,51.0670731707317 33.333333333333336,51.21951219512195 33.333333333333336,51.37195121951219 33.333333333333336,51.575203252032516 33.333333333333336,51.72764227642276 33.333333333333336,51.93089430894309 33.333333333333336,52.083333333333336 33.333333333333336,52.235772357723576 33.333333333333336,52.4390243902439 33.333333333333336,52.642276422764226 33.38414634146341,52.79471544715447 33.38414634146341,52.947154471544714 33.4349593495935,53.15040650406504 33.485772357723576,53.302845528455286 33.485772357723576,53.45528455284553 33.53658536585366,53.607723577235774 33.58739837398374,53.709349593495936 33.63821138211382,53.91260162601626 33.6890243902439,54.014227642276424 33.739837398373986,54.166666666666664 33.790650406504064,54.31910569105691 33.84146341463415,54.47154471544715 33.892276422764226,54.6239837398374 33.94308943089431,54.827235772357724 33.99390243902439,54.979674796747965 34.04471544715447,55.13211382113821 34.09552845528455,55.28455284552845 34.146341463414636,55.386178861788615 34.197154471544714,55.53861788617886 34.197154471544714,55.640243902439025" fill="none" stroke="black" stroke-width="0.6"></polyline><polyline points="34.197154471544714,55.640243902439025 34.2479674796748,55.74186991869919 34.298780487804876,55.89430894308943 34.298780487804876,55.99593495934959 34.34959349593496,56.14837398373984 34.34959349593496,56.25 34.40040650406504,56.40243902439024 34.451219512195124,56.5040650406504 34.451219512195124,56.65650406504065 34.5020325203252,56.75813008130081 34.5020325203252,56.91056910569105 34.552845528455286,57.0630081300813 34.603658536585364,57.16463414634146 34.603658536585364,57.3170731707317 34.65447154471545,57.46951219512195 34.65447154471545,57.62195121951219 34.70528455284553,57.77439024390244 34.70528455284553,57.92682926829268 34.75609756097561,58.079268292682926 34.80691056910569,58.231707317073166 34.80691056910569,58.43495934959349 34.857723577235774,58.58739837398374 34.90853658536585,58.739837398373986 34.90853658536585,58.892276422764226 34.959349593495936,59.09552845528455 35.010162601626014,59.2479674796748 35.0609756097561,59.40040650406504 35.11178861788618,59.603658536585364 35.16260162601626,59.75609756097561 35.21341463414634,59.90853658536585 35.3150406504065,60.11178861788618 35.36585365853659,60.264227642276424 35.46747967479675,60.416666666666664 35.51829268292683,60.56910569105691 35.61991869918699,60.670731707317074 35.72154471544715,60.823170731707314 35.823170731707314,60.92479674796748 35.92479674796748,61.077235772357724 36.02642276422764,61.229674796747965 36.1280487804878,61.38211382113821 36.229674796747965,61.483739837398375 36.38211382113821,61.636178861788615 36.53455284552845,61.78861788617886 36.636178861788615,61.890243902439025 36.78861788617886,62.042682926829265 36.9410569105691,62.14430894308943 37.09349593495935,62.24593495934959 37.24593495934959,62.34756097560975 37.39837398373984,62.5 37.55081300813008,62.60162601626016 37.703252032520325,62.703252032520325" fill="none" stroke="black" stroke-width="0.6"></polyline><polyline points="37.703252032520325,62.703252032520325 37.855691056910565,62.80487804878049 38.00813008130081,62.855691056910565 38.16056910569105,62.95731707317073 38.36382113821138,63.05894308943089 38.516260162601625,63.16056910569105 38.71951219512195,63.21138211382114 38.87195121951219,63.3130081300813 39.02439024390244,63.36382113821138 39.176829268292686,63.46544715447154 39.329268292682926,63.5670731707317 39.48170731707317,63.61788617886179 39.6849593495935,63.71951219512195 39.83739837398374,63.82113821138211 39.989837398373986,63.87195121951219 40.142276422764226,63.97357723577235 40.29471544715447,64.02439024390243 40.447154471544714,64.1260162601626 40.59959349593496,64.22764227642276 40.7520325203252,64.27845528455285 40.90447154471545,64.32926829268293 41.00609756097561,64.43089430894308 41.15853658536585,64.48170731707317 41.260162601626014,64.58333333333333 41.36178861788618,64.6341463414634 41.46341463414634,64.6849593495935 41.5650406504065,64.78658536585365 41.666666666666664,64.83739837398373 41.76829268292683,64.88821138211382 41.86991869918699,64.9390243902439 41.97154471544715,64.98983739837398 42.02235772357724,64.98983739837398 42.1239837398374,65.04065040650406 42.22560975609756,65.09146341463415 42.327235772357724,65.14227642276423 42.42886178861789,65.1930894308943 42.53048780487805,65.29471544715447 42.63211382113821,65.34552845528455 42.733739837398375,65.39634146341463 42.886178861788615,65.4979674796748 42.9369918699187,65.54878048780488 43.03861788617886,65.65040650406505 43.140243902439025,65.70121951219512 43.24186991869919,65.80284552845528 43.34349593495935,65.85365853658537 43.44512195121951,65.95528455284553 43.546747967479675,66.0569105691057 43.64837398373984,66.10772357723577 43.75,66.20934959349593 43.80081300813008,66.26016260162602 43.90243902439024,66.3109756097561" fill="none" stroke="black" stroke-width="0.6"></polyline><polyline points="43.90243902439024,66.3109756097561 44.0040650406504,66.36178861788618 44.105691056910565,66.41260162601625 44.15650406504065,66.46341463414635 44.25813008130081,66.51422764227642 44.359756097560975,66.5650406504065 44.46138211382114,66.61585365853658 44.5630081300813,66.66666666666667 44.66463414634146,66.66666666666667 44.766260162601625,66.71747967479675 44.86788617886179,66.76829268292683 44.96951219512195,66.76829268292683 45.07113821138211,66.8191056910569 45.172764227642276,66.869918699187 45.27439024390244,66.92073170731707 45.3760162601626,66.92073170731707 45.52845528455285,66.97154471544715 45.63008130081301,66.97154471544715 45.73170731707317,67.02235772357723 45.88414634146341,67.07317073170732 46.03658536585366,67.07317073170732 46.1890243902439,67.1239837398374 46.34146341463415,67.17479674796748 46.49390243902439,67.17479674796748 46.646341463414636,67.22560975609755 46.798780487804876,67.22560975609755 47.0020325203252,67.27642276422765 47.20528455284553,67.32723577235772 47.40853658536585,67.3780487804878 47.5609756097561,67.3780487804878 47.764227642276424,67.42886178861788 47.916666666666664,67.47967479674797 48.11991869918699,67.47967479674797 48.27235772357724,67.53048780487805 48.47560975609756,67.53048780487805 48.6280487804878,67.58130081300813 48.83130081300813,67.6321138211382 48.983739837398375,67.6321138211382 49.1869918699187,67.6829268292683 49.390243902439025,67.6829268292683 49.59349593495935,67.73373983739837 49.74593495934959,67.73373983739837 50,67.78455284552845 50.15243902439024,67.78455284552845 50.355691056910565,67.78455284552845 50.55894308943089,67.83536585365853 50.71138211382114,67.83536585365853 50.91463414634146,67.83536585365853 51.11788617886179,67.83536585365853 51.32113821138211,67.78455284552845 51.47357723577235,67.78455284552845" fill="none" stroke="black" stroke-width="0.6"></polyline><polyline points="51.47357723577235,67.78455284552845 51.72764227642276,67.78455284552845 51.880081300813,67.73373983739837 52.083333333333336,67.73373983739837 52.28658536585366,67.73373983739837 52.489837398373986,67.73373983739837 52.642276422764226,67.73373983739837 52.84552845528455,67.73373983739837 52.9979674796748,67.73373983739837 53.201219512195124,67.73373983739837 53.353658536585364,67.73373983739837 53.55691056910569,67.73373983739837 53.709349593495936,67.73373983739837 53.91260162601626,67.6829268292683 54.0650406504065,67.6829268292683 54.21747967479675,67.6321138211382 54.36991869918699,67.6321138211382 54.52235772357724,67.58130081300813 54.67479674796748,67.58130081300813 54.827235772357724,67.58130081300813 54.92886178861789,67.53048780487805 55.08130081300813,67.53048780487805 55.233739837398375,67.53048780487805 55.386178861788615,67.53048780487805 55.53861788617886,67.47967479674797 55.6910569105691,67.42886178861788 55.792682926829265,67.42886178861788 55.94512195121951,67.3780487804878 56.09756097560975,67.32723577235772 56.25,67.27642276422765 56.453252032520325,67.17479674796748 56.605691056910565,67.1239837398374 56.75813008130081,67.07317073170732 56.96138211382114,67.02235772357723 57.16463414634146,66.97154471544715 57.3170731707317,66.92073170731707 57.52032520325203,66.8191056910569 57.72357723577235,66.76829268292683 57.92682926829268,66.66666666666667 58.130081300813,66.61585365853658 58.33333333333333,66.51422764227642 58.536585365853654,66.41260162601625 58.739837398373986,66.36178861788618 58.94308943089431,66.26016260162602 59.146341463414636,66.15853658536585 59.34959349593496,66.0569105691057 59.552845528455286,65.95528455284553 59.75609756097561,65.80284552845528 60.010162601626014,65.70121951219512 60.264227642276424,65.59959349593495 60.46747967479675,65.4979674796748" fill="none" stroke="black" stroke-width="0.6"></polyline><polyline points="60.46747967479675,65.4979674796748 60.670731707317074,65.34552845528455 60.8739837398374,65.2439024390244 61.077235772357724,65.14227642276423 61.28048780487805,64.98983739837398 61.483739837398375,64.88821138211382 61.636178861788615,64.78658536585365 61.890243902439025,64.6849593495935 62.09349593495935,64.58333333333333 62.296747967479675,64.43089430894308 62.55081300813008,64.27845528455285 62.7540650406504,64.17682926829268 63.00813008130081,64.02439024390243 63.21138211382114,63.82113821138211 63.41463414634146,63.668699186991866 63.61788617886179,63.516260162601625 63.77032520325203,63.3130081300813 63.922764227642276,63.16056910569105 64.02439024390243,63.00813008130081 64.17682926829268,62.855691056910565 64.27845528455285,62.703252032520325 64.43089430894308,62.55081300813008 64.53252032520325,62.39837398373984 64.6849593495935,62.24593495934959 64.78658536585365,62.09349593495935 64.9390243902439,61.890243902439025 65.04065040650406,61.6869918699187 65.14227642276423,61.483739837398375 65.29471544715447,61.28048780487805 65.39634146341463,61.1280487804878 65.4979674796748,60.92479674796748 65.65040650406505,60.670731707317074 65.7520325203252,60.51829268292683 65.90447154471545,60.3150406504065 66.0569105691057,60.0609756097561 66.20934959349593,59.857723577235774 66.36178861788618,59.603658536585364 66.5650406504065,59.298780487804876 66.71747967479675,59.04471544715447 66.869918699187,58.790650406504064 67.02235772357723,58.536585365853654 67.17479674796748,58.33333333333333 67.32723577235772,58.079268292682926 67.47967479674797,57.8760162601626 67.58130081300813,57.62195121951219 67.73373983739837,57.418699186991866 67.88617886178862,57.16463414634146 67.98780487804878,56.91056910569105 68.14024390243902,56.65650406504065 68.29268292682927,56.453252032520325 68.39430894308943,56.25" fill="none" stroke="black" stroke-width="0.6"></polyline><polyline points="68.39430894308943,56.25 68.4959349593496,56.046747967479675 68.59756097560975,55.89430894308943 68.64837398373983,55.6910569105691 68.75,55.48780487804878 68.85162601626016,55.28455284552845 68.90243902439025,55.08130081300813 69.0040650406504,54.8780487804878 69.05487804878048,54.67479674796748 69.15650406504065,54.47154471544715 69.2581300813008,54.26829268292683 69.3089430894309,54.11585365853659 69.35975609756098,53.96341463414634 69.41056910569105,53.8109756097561 69.46138211382113,53.607723577235774 69.51219512195122,53.45528455284553 69.61382113821138,53.2520325203252 69.66463414634146,53.09959349593496 69.71544715447155,52.896341463414636 69.8170731707317,52.69308943089431 69.86788617886178,52.540650406504064 69.91869918699187,52.33739837398374 69.96951219512195,52.13414634146341 69.96951219512195,51.981707317073166 70.02032520325203,51.829268292682926 70.0711382113821,51.67682926829268 70.0711382113821,51.47357723577235 70.1219512195122,51.27032520325203 70.17276422764228,51.0670731707317 70.17276422764228,50.86382113821138 70.22357723577235,50.609756097560975 70.27439024390243,50.30487804878049 70.27439024390243,50.10162601626016 70.27439024390243,49.89837398373984 70.32520325203252,49.69512195121951 70.32520325203252,49.49186991869919 70.32520325203252,49.33943089430894 70.27439024390243,49.136178861788615 70.27439024390243,48.93292682926829 70.22357723577235,48.729674796747965 70.17276422764228,48.52642276422764 70.1219512195122,48.323170731707314 70.0711382113821,48.11991869918699 70.0711382113821,47.86585365853659 70.02032520325203,47.66260162601626 70.02032520325203,47.459349593495936 69.96951219512195,47.20528455284553 69.96951219512195,47.052845528455286 69.91869918699187,46.90040650406504 69.86788617886178,46.697154471544714 69.86788617886178,46.54471544715447" fill="none" stroke="black" stroke-width="0.6"></polyline><polyline points="69.86788617886178,46.54471544715447 69.8170731707317,46.392276422764226 69.76626016260163,46.1890243902439 69.71544715447155,46.03658536585366 69.66463414634146,45.833333333333336 69.61382113821138,45.63008130081301 69.61382113821138,45.42682926829268 69.5630081300813,45.22357723577235 69.51219512195122,44.96951219512195 69.46138211382113,44.766260162601625 69.46138211382113,44.5630081300813 69.41056910569105,44.30894308943089 69.35975609756098,44.105691056910565 69.3089430894309,43.90243902439024 69.2581300813008,43.699186991869915 69.20731707317073,43.49593495934959 69.15650406504065,43.34349593495935 69.10569105691057,43.08943089430894 69.05487804878048,42.9369918699187 69.0040650406504,42.733739837398375 68.90243902439025,42.58130081300813 68.85162601626016,42.3780487804878 68.80081300813008,42.17479674796748 68.69918699186992,42.02235772357724 68.59756097560975,41.81910569105691 68.4959349593496,41.61585365853659 68.4451219512195,41.46341463414634 68.34349593495935,41.3109756097561 68.24186991869918,41.107723577235774 68.1910569105691,41.00609756097561 68.08943089430895,40.853658536585364 68.03861788617886,40.701219512195124 67.98780487804878,40.548780487804876 67.88617886178862,40.34552845528455 67.83536585365853,40.19308943089431 67.78455284552845,40.040650406504064 67.6829268292683,39.88821138211382 67.6321138211382,39.6849593495935 67.53048780487805,39.53252032520325 67.47967479674797,39.43089430894309 67.42886178861788,39.27845528455285 67.32723577235772,39.1260162601626 67.27642276422765,39.02439024390244 67.17479674796748,38.87195121951219 67.07317073170732,38.71951219512195 66.97154471544715,38.5670731707317 66.869918699187,38.41463414634146 66.76829268292683,38.21138211382114 66.66666666666667,38.05894308943089 66.5650406504065,37.90650406504065 66.46341463414635,37.703252032520325" fill="none" stroke="black" stroke-width="0.6"></polyline><polyline points="66.46341463414635,37.703252032520325 66.36178861788618,37.55081300813008 66.26016260162602,37.34756097560975 66.15853658536585,37.19512195121951 66.0569105691057,37.042682926829265 65.95528455284553,36.83943089430894 65.85365853658537,36.6869918699187 65.7520325203252,36.53455284552845 65.65040650406505,36.38211382113821 65.54878048780488,36.229674796747965 65.4979674796748,36.077235772357724 65.39634146341463,35.92479674796748 65.29471544715447,35.77235772357724 65.14227642276423,35.56910569105691 65.04065040650406,35.36585365853659 64.9390243902439,35.16260162601626 64.83739837398373,35.010162601626014 64.6849593495935,34.857723577235774 64.58333333333333,34.70528455284553 64.48170731707317,34.552845528455286 64.380081300813,34.451219512195124 64.27845528455285,34.34959349593496 64.17682926829268,34.197154471544714 64.07520325203252,34.09552845528455 63.97357723577235,33.99390243902439 63.82113821138211,33.892276422764226 63.668699186991866,33.739837398373986 63.5670731707317,33.63821138211382 63.41463414634146,33.485772357723576 63.262195121951216,33.333333333333336 63.16056910569105,33.23170731707317 63.00813008130081,33.13008130081301 62.855691056910565,33.02845528455285 62.7540650406504,32.926829268292686 62.60162601626016,32.8760162601626 62.449186991869915,32.77439024390244 62.34756097560975,32.72357723577236 62.24593495934959,32.6219512195122 62.09349593495935,32.57113821138211 61.99186991869919,32.46951219512195 61.83943089430894,32.418699186991866 61.73780487804878,32.36788617886179 61.58536585365854,32.266260162601625 61.483739837398375,32.21544715447154 61.33130081300813,32.16463414634146 61.229674796747965,32.0630081300813 61.077235772357724,32.012195121951216 60.92479674796748,31.910569105691057 60.77235772357724,31.808943089430894 60.61991869918699,31.70731707317073 60.46747967479675,31.60569105691057" fill="none" stroke="black" stroke-width="0.6"></polyline><polyline points="60.46747967479675,31.60569105691057 60.3150406504065,31.554878048780488 60.16260162601626,31.453252032520325 60.010162601626014,31.351626016260163 59.857723577235774,31.30081300813008 59.70528455284553,31.19918699186992 59.552845528455286,31.097560975609756 59.40040650406504,30.995934959349594 59.197154471544714,30.89430894308943 59.04471544715447,30.84349593495935 58.892276422764226,30.741869918699187 58.6890243902439,30.640243902439025 58.536585365853654,30.589430894308943 58.38414634146341,30.48780487804878 58.18089430894309,30.4369918699187 58.02845528455284,30.38617886178862 57.825203252032516,30.335365853658537 57.62195121951219,30.284552845528456 57.418699186991866,30.233739837398375 57.21544715447154,30.182926829268293 57.012195121951216,30.132113821138212 56.859756097560975,30.08130081300813 56.70731707317073,29.979674796747968 56.5040650406504,29.928861788617887 56.35162601626016,29.827235772357724 56.199186991869915,29.776422764227643 56.046747967479675,29.67479674796748 55.89430894308943,29.573170731707318 55.74186991869919,29.522357723577237 55.58943089430894,29.420731707317074 55.4369918699187,29.369918699186993 55.28455284552845,29.268292682926827 55.08130081300813,29.217479674796746 54.92886178861789,29.115853658536583 54.72560975609756,29.01422764227642 54.573170731707314,28.96341463414634 54.36991869918699,28.912601626016258 54.166666666666664,28.861788617886177 53.96341463414634,28.810975609756095 53.8109756097561,28.760162601626014 53.607723577235774,28.709349593495933 53.40447154471545,28.65853658536585 53.201219512195124,28.60772357723577 52.9979674796748,28.55691056910569 52.79471544715447,28.55691056910569 52.642276422764226,28.506097560975608 52.4390243902439,28.506097560975608 52.28658536585366,28.455284552845526 52.13414634146341,28.455284552845526 51.93089430894309,28.404471544715445 51.77845528455284,28.404471544715445" fill="none" stroke="black" stroke-width="0.6"></polyline><polyline points="51.77845528455284,28.404471544715445 51.6260162601626,28.353658536585364 51.47357723577235,28.353658536585364 51.32113821138211,28.302845528455283 51.168699186991866,28.302845528455283 51.016260162601625,28.302845528455283 50.86382113821138,28.2520325203252 50.71138211382114,28.2520325203252 50.55894308943089,28.20121951219512 50.40650406504065,28.20121951219512 50.2540650406504,28.20121951219512 50.10162601626016,28.15040650406504 49.949186991869915,28.15040650406504 49.796747967479675,28.15040650406504 49.59349593495935,28.099593495934958 49.4410569105691,28.099593495934958 49.28861788617886,28.099593495934958 49.08536585365854,28.099593495934958 48.88211382113821,28.099593495934958 48.729674796747965,28.099593495934958 48.52642276422764,28.099593495934958 48.323170731707314,28.048780487804876 48.11991869918699,28.048780487804876 47.916666666666664,28.048780487804876 47.764227642276424,28.048780487804876 47.61178861788618,28.048780487804876 47.40853658536585,28.048780487804876 47.25609756097561,28.048780487804876 47.052845528455286,28.048780487804876 46.90040650406504,28.048780487804876 46.697154471544714,28.048780487804876 46.54471544715447,28.099593495934958 46.34146341463415,28.099593495934958 46.1890243902439,28.099593495934958 45.985772357723576,28.15040650406504 45.833333333333336,28.15040650406504 45.68089430894309,28.15040650406504 45.52845528455285,28.20121951219512 45.325203252032516,28.20121951219512 45.172764227642276,28.2520325203252 44.96951219512195,28.2520325203252 44.766260162601625,28.302845528455283 44.61382113821138,28.302845528455283 44.41056910569105,28.353658536585364 44.20731707317073,28.404471544715445 44.05487804878049,28.404471544715445 43.90243902439024,28.455284552845526 43.699186991869915,28.506097560975608 43.546747967479675,28.55691056910569 43.39430894308943,28.55691056910569 43.24186991869919,28.60772357723577" fill="none" stroke="black" stroke-width="0.6"></polyline><polyline points="43.24186991869919,28.60772357723577 43.03861788617886,28.65853658536585 42.886178861788615,28.709349593495933 42.68292682926829,28.760162601626014 42.479674796747965,28.861788617886177 42.27642276422764,28.912601626016258 42.073170731707314,29.01422764227642 41.86991869918699,29.0650406504065 41.666666666666664,29.115853658536583 41.46341463414634,29.217479674796746 41.260162601626014,29.268292682926827 41.05691056910569,29.31910569105691 40.853658536585364,29.420731707317074 40.65040650406504,29.522357723577237 40.396341463414636,29.6239837398374 40.19308943089431,29.725609756097562 39.989837398373986,29.827235772357724 39.735772357723576,29.979674796747968 39.48170731707317,30.132113821138212 39.22764227642276,30.284552845528456 38.97357723577235,30.4369918699187 38.71951219512195,30.589430894308943 38.46544715447154,30.691056910569106 38.21138211382114,30.89430894308943 37.95731707317073,31.046747967479675 37.703252032520325,31.25 37.449186991869915,31.402439024390244 37.19512195121951,31.60569105691057 36.99186991869919,31.70731707317073 36.78861788617886,31.859756097560975 36.53455284552845,32.012195121951216 36.33130081300813,32.16463414634146 36.1280487804878,32.3170731707317 35.92479674796748,32.418699186991866 35.72154471544715,32.52032520325203 35.51829268292683,32.672764227642276 35.3150406504065,32.82520325203252 35.11178861788618,32.97764227642276 34.90853658536585,33.13008130081301 34.75609756097561,33.28252032520325 34.552845528455286,33.4349593495935 34.34959349593496,33.58739837398374 34.197154471544714,33.739837398373986 33.99390243902439,33.892276422764226 33.790650406504064,34.09552845528455 33.58739837398374,34.2479674796748 33.4349593495935,34.40040650406504 33.23170731707317,34.603658536585364 33.079268292682926,34.75609756097561 32.926829268292686,34.90853658536585 32.77439024390244,35.0609756097561" fill="none" stroke="black" stroke-width="0.6"></polyline><polyline points="32.77439024390244,35.0609756097561 32.6219512195122,35.264227642276424 32.46951219512195,35.416666666666664 32.3170731707317,35.670731707317074 32.16463414634146,35.823170731707314 32.0630081300813,36.02642276422764 31.859756097560975,36.229674796747965 31.758130081300813,36.38211382113821 31.554878048780488,36.58536585365854 31.402439024390244,36.78861788617886 31.25,36.99186991869919 31.046747967479675,37.19512195121951 30.84349593495935,37.449186991869915 30.691056910569106,37.65243902439024 30.538617886178862,37.90650406504065 30.335365853658537,38.21138211382114 30.132113821138212,38.41463414634146 29.979674796747968,38.668699186991866 29.776422764227643,38.87195121951219 29.573170731707318,39.07520325203252 29.420731707317074,39.329268292682926 29.268292682926827,39.53252032520325 29.115853658536583,39.735772357723576 28.96341463414634,39.9390243902439 28.810975609756095,40.19308943089431 28.709349593495933,40.396341463414636 28.55691056910569,40.59959349593496 28.404471544715445,40.853658536585364 28.2520325203252,41.05691056910569 28.15040650406504,41.260162601626014 27.997967479674795,41.46341463414634 27.896341463414632,41.666666666666664 27.74390243902439,41.920731707317074 27.591463414634145,42.17479674796748 27.489837398373982,42.42886178861789 27.4390243902439,42.63211382113821 27.33739837398374,42.83536585365854 27.286585365853657,43.03861788617886 27.235772357723576,43.24186991869919 27.184959349593495,43.49593495934959 27.134146341463413,43.699186991869915 27.083333333333332,43.953252032520325 27.03252032520325,44.20731707317073 26.98170731707317,44.46138211382114 26.93089430894309,44.71544715447154 26.880081300813007,44.96951219512195 26.880081300813007,45.22357723577235 26.829268292682926,45.47764227642276 26.778455284552845,45.73170731707317 26.778455284552845,45.985772357723576 26.727642276422763,46.239837398373986" fill="none" stroke="black" stroke-width="0.6"></polyline><polyline points="26.727642276422763,46.239837398373986 26.676829268292682,46.49390243902439 26.676829268292682,46.798780487804876 26.6260162601626,47.103658536585364 26.6260162601626,47.357723577235774 26.57520325203252,47.61178861788618 26.57520325203252,47.916666666666664 26.57520325203252,48.11991869918699 26.524390243902438,48.3739837398374 26.524390243902438,48.67886178861789 26.524390243902438,48.93292682926829 26.524390243902438,49.1869918699187 26.524390243902438,49.49186991869919 26.473577235772357,49.69512195121951 26.473577235772357,49.949186991869915 26.473577235772357,50.203252032520325 26.473577235772357,50.45731707317073 26.473577235772357,50.66056910569105 26.473577235772357,50.96544715447154 26.473577235772357,51.168699186991866 26.473577235772357,51.422764227642276 26.473577235772357,51.67682926829268 26.473577235772357,51.880081300813 26.473577235772357,52.13414634146341 26.473577235772357,52.38821138211382 26.473577235772357,52.59146341463415 26.524390243902438,52.79471544715447 26.524390243902438,53.048780487804876 26.57520325203252,53.2520325203252 26.57520325203252,53.45528455284553 26.57520325203252,53.709349593495936 26.6260162601626,53.91260162601626 26.6260162601626,54.11585365853659 26.676829268292682,54.36991869918699 26.727642276422763,54.573170731707314 26.727642276422763,54.827235772357724 26.778455284552845,55.08130081300813 26.829268292682926,55.28455284552845 26.880081300813007,55.53861788617886 26.880081300813007,55.74186991869919 26.93089430894309,55.99593495934959 26.98170731707317,56.199186991869915 27.03252032520325,56.40243902439024 27.083333333333332,56.605691056910565 27.134146341463413,56.80894308943089 27.184959349593495,57.012195121951216 27.235772357723576,57.21544715447154 27.235772357723576,57.418699186991866 27.286585365853657,57.672764227642276 27.33739837398374,57.8760162601626 27.4390243902439,58.079268292682926" fill="none" stroke="black" stroke-width="0.6"></polyline><polyline points="27.4390243902439,58.079268292682926 27.489837398373982,58.28252032520325 27.540650406504064,58.43495934959349 27.591463414634145,58.63821138211382 27.693089430894307,58.84146341463415 27.74390243902439,59.04471544715447 27.79471544715447,59.298780487804876 27.896341463414632,59.552845528455286 27.947154471544714,59.80691056910569 28.048780487804876,60.0609756097561 28.099593495934958,60.3150406504065 28.15040650406504,60.51829268292683 28.20121951219512,60.72154471544715 28.2520325203252,60.92479674796748 28.353658536585364,61.1280487804878 28.404471544715445,61.28048780487805 28.455284552845526,61.483739837398375 28.55691056910569,61.6869918699187 28.60772357723577,61.83943089430894 28.709349593495933,62.042682926829265 28.810975609756095,62.19512195121951 28.912601626016258,62.34756097560975 29.01422764227642,62.5 29.115853658536583,62.65243902439024 29.217479674796746,62.80487804878049 29.369918699186993,62.90650406504065 29.471544715447155,63.05894308943089 29.573170731707318,63.21138211382114 29.725609756097562,63.3130081300813 29.878048780487806,63.46544715447154 29.979674796747968,63.61788617886179 30.132113821138212,63.71951219512195 30.233739837398375,63.87195121951219 30.38617886178862,64.02439024390243 30.48780487804878,64.17682926829268 30.640243902439025,64.32926829268293 30.741869918699187,64.43089430894308 30.89430894308943,64.58333333333333 30.995934959349594,64.6849593495935 31.148373983739837,64.83739837398373 31.25,64.98983739837398 31.402439024390244,65.09146341463415 31.554878048780488,65.1930894308943 31.70731707317073,65.34552845528455 31.859756097560975,65.44715447154472 32.012195121951216,65.54878048780488 32.11382113821138,65.65040650406505 32.266260162601625,65.80284552845528 32.418699186991866,65.95528455284553 32.57113821138211,66.0569105691057 32.672764227642276,66.15853658536585" fill="none" stroke="black" stroke-width="0.6"></polyline><polyline points="32.672764227642276,66.15853658536585 32.82520325203252,66.3109756097561 32.97764227642276,66.46341463414635 33.13008130081301,66.5650406504065 33.23170731707317,66.71747967479675 33.38414634146341,66.8191056910569 33.485772357723576,66.97154471544715 33.63821138211382,67.07317073170732 33.790650406504064,67.22560975609755 33.892276422764226,67.32723577235772 34.04471544715447,67.47967479674797 34.146341463414636,67.58130081300813 34.2479674796748,67.6829268292683 34.34959349593496,67.83536585365853 34.451219512195124,67.9369918699187 34.552845528455286,68.08943089430895 34.65447154471545,68.24186991869918 34.75609756097561,68.34349593495935 34.857723577235774,68.4451219512195 34.959349593495936,68.54674796747967 35.0609756097561,68.64837398373983 35.16260162601626,68.75 35.3150406504065,68.90243902439025 35.416666666666664,68.95325203252033 35.51829268292683,69.05487804878048 35.670731707317074,69.20731707317073 35.77235772357724,69.3089430894309 35.92479674796748,69.41056910569105 36.077235772357724,69.51219512195122 36.229674796747965,69.61382113821138 36.33130081300813,69.71544715447155 36.483739837398375,69.8170731707317 36.636178861788615,69.91869918699187 36.78861788617886,70.02032520325203 36.99186991869919,70.17276422764228 37.14430894308943,70.27439024390243 37.296747967479675,70.3760162601626 37.5,70.52845528455285 37.65243902439024,70.57926829268293 37.855691056910565,70.73170731707317 38.05894308943089,70.83333333333333 38.262195121951216,70.9349593495935 38.46544715447154,71.03658536585365 38.668699186991866,71.13821138211382 38.87195121951219,71.23983739837398 39.1260162601626,71.34146341463415 39.329268292682926,71.4430894308943 39.53252032520325,71.49390243902438 39.78658536585366,71.59552845528455 40.040650406504064,71.64634146341463 40.24390243902439,71.69715447154472" fill="none" stroke="black" stroke-width="0.6"></polyline><polyline points="40.24390243902439,71.69715447154472 40.548780487804876,71.79878048780488 40.802845528455286,71.90040650406505 41.05691056910569,71.95121951219512 41.3109756097561,72.10365853658537 41.5650406504065,72.20528455284553 41.81910569105691,72.3069105691057 42.073170731707314,72.40853658536585 42.327235772357724,72.51016260162602 42.58130081300813,72.61178861788618 42.83536585365854,72.71341463414635 43.08943089430894,72.8150406504065 43.34349593495935,72.91666666666667 43.59756097560975,73.01829268292683 43.85162601626016,73.0691056910569 44.105691056910565,73.17073170731707 44.359756097560975,73.27235772357723 44.61382113821138,73.32317073170732 44.86788617886179,73.42479674796748 45.172764227642276,73.47560975609755 45.42682926829268,73.52642276422765 45.68089430894309,73.6280487804878 45.9349593495935,73.67886178861788 46.1890243902439,73.72967479674797 46.392276422764226,73.78048780487805 46.646341463414636,73.83130081300813 46.90040650406504,73.9329268292683 47.15447154471545,74.03455284552845 47.40853658536585,74.13617886178862 47.66260162601626,74.1869918699187 47.916666666666664,74.28861788617886 48.170731707317074,74.39024390243902 48.42479674796748,74.49186991869918 48.729674796747965,74.54268292682927 48.983739837398375,74.64430894308943 49.28861788617886,74.6951219512195 49.542682926829265,74.7459349593496 49.84756097560975,74.79674796747967 50.15243902439024,74.79674796747967 50.45731707317073,74.84756097560975 50.762195121951216,74.84756097560975 51.0670731707317,74.84756097560975 51.37195121951219,74.84756097560975 51.67682926829268,74.84756097560975 51.981707317073166,74.84756097560975 52.28658536585366,74.84756097560975 52.59146341463415,74.84756097560975 52.84552845528455,74.84756097560975 53.15040650406504,74.84756097560975 53.40447154471545,74.79674796747967 53.709349593495936,74.7459349593496" fill="none" stroke="black" stroke-width="0.6"></polyline><polyline points="53.709349593495936,74.7459349593496 53.96341463414634,74.7459349593496 54.26829268292683,74.6951219512195 54.47154471544715,74.6951219512195 54.72560975609756,74.64430894308943 54.979674796747965,74.64430894308943 55.233739837398375,74.59349593495935 55.48780487804878,74.59349593495935 55.74186991869919,74.54268292682927 55.99593495934959,74.49186991869918 56.25,74.49186991869918 56.5040650406504,74.4410569105691 56.70731707317073,74.39024390243902 56.96138211382114,74.33943089430895 57.21544715447154,74.28861788617886 57.46951219512195,74.23780487804878 57.72357723577235,74.1869918699187 57.97764227642276,74.13617886178862 58.18089430894309,74.08536585365853 58.485772357723576,73.98373983739837 58.6890243902439,73.9329268292683 58.94308943089431,73.8821138211382 59.197154471544714,73.83130081300813 59.451219512195124,73.72967479674797 59.65447154471545,73.67886178861788 59.959349593495936,73.6280487804878 60.16260162601626,73.57723577235772 60.416666666666664,73.47560975609755 60.72154471544715,73.42479674796748 60.92479674796748,73.32317073170732 61.17886178861789,73.22154471544715 61.43292682926829,73.119918699187 61.636178861788615,73.01829268292683 61.890243902439025,72.91666666666667 62.14430894308943,72.8150406504065 62.34756097560975,72.66260162601625 62.55081300813008,72.5609756097561 62.80487804878049,72.40853658536585 63.00813008130081,72.2560975609756 63.21138211382114,72.05284552845528 63.46544715447154,71.90040650406505 63.668699186991866,71.7479674796748 63.922764227642276,71.54471544715447 64.17682926829268,71.39227642276423 64.380081300813,71.23983739837398 64.6341463414634,71.08739837398373 64.88821138211382,70.8841463414634 65.14227642276423,70.68089430894308 65.39634146341463,70.52845528455285 65.65040650406505,70.32520325203252 65.90447154471545,70.1219512195122" fill="none" stroke="black" stroke-width="0.6"></polyline><polyline points="65.90447154471545,70.1219512195122 66.15853658536585,69.91869918699187 66.41260162601625,69.71544715447155 66.66666666666667,69.51219512195122 66.869918699187,69.35975609756098 67.07317073170732,69.20731707317073 67.27642276422765,69.05487804878048 67.47967479674797,68.85162601626016 67.6829268292683,68.69918699186992 67.83536585365853,68.54674796747967 67.98780487804878,68.34349593495935 68.1910569105691,68.1910569105691 68.34349593495935,68.03861788617886 68.4959349593496,67.83536585365853 68.69918699186992,67.6829268292683 68.85162601626016,67.47967479674797 69.0040650406504,67.32723577235772 69.20731707317073,67.17479674796748 69.35975609756098,67.02235772357723 69.51219512195122,66.869918699187 69.66463414634146,66.66666666666667 69.8170731707317,66.46341463414635 69.96951219512195,66.3109756097561 70.1219512195122,66.0569105691057 70.27439024390243,65.90447154471545 70.42682926829268,65.65040650406505 70.57926829268293,65.44715447154472 70.73170731707317,65.2439024390244 70.8841463414634,65.04065040650406 71.03658536585365,64.88821138211382 71.23983739837398,64.6849593495935 71.39227642276423,64.43089430894308 71.54471544715447,64.22764227642276 71.69715447154472,63.97357723577235 71.90040650406505,63.71951219512195 72.05284552845528,63.46544715447154 72.20528455284553,63.262195121951216 72.35772357723577,63.00813008130081 72.45934959349593,62.80487804878049 72.61178861788618,62.60162601626016 72.76422764227642,62.39837398373984 72.91666666666667,62.19512195121951 73.01829268292683,61.9410569105691 73.17073170731707,61.73780487804878 73.32317073170732,61.483739837398375 73.42479674796748,61.229674796747965 73.57723577235772,60.97560975609756 73.67886178861788,60.77235772357724 73.78048780487805,60.61991869918699 73.8821138211382,60.416666666666664 73.98373983739837,60.21341463414634" fill="none" stroke="black" stroke-width="0.6"></polyline><polyline points="73.98373983739837,60.21341463414634 74.08536585365853,60.010162601626014 74.13617886178862,59.75609756097561 74.23780487804878,59.552845528455286 74.33943089430895,59.34959349593496 74.39024390243902,59.146341463414636 74.49186991869918,58.94308943089431 74.54268292682927,58.739837398373986 74.64430894308943,58.536585365853654 74.6951219512195,58.33333333333333 74.7459349593496,58.130081300813 74.79674796747967,57.97764227642276 74.84756097560975,57.825203252032516 74.89837398373983,57.62195121951219 74.94918699186992,57.46951219512195 75,57.266260162601625 75.05081300813008,57.0630081300813 75.15243902439025,56.859756097560975 75.20325203252033,56.65650406504065 75.2540650406504,56.5040650406504 75.30487804878048,56.30081300813008 75.35569105691057,56.199186991869915 75.40650406504065,55.99593495934959 75.45731707317073,55.84349593495935 75.5081300813008,55.6910569105691 75.5589430894309,55.53861788617886 75.5589430894309,55.386178861788615 75.60975609756098,55.18292682926829 75.66056910569105,55.03048780487805 75.71138211382113,54.827235772357724 75.76219512195122,54.6239837398374 75.8130081300813,54.47154471544715 75.86382113821138,54.31910569105691 75.86382113821138,54.166666666666664 75.91463414634146,54.014227642276424 75.96544715447155,53.86178861788618 76.01626016260163,53.709349593495936 76.0670731707317,53.55691056910569 76.16869918699187,53.40447154471545 76.21951219512195,53.201219512195124 76.27032520325203,53.048780487804876 76.3211382113821,52.896341463414636 76.3719512195122,52.69308943089431 76.42276422764228,52.59146341463415 76.47357723577235,52.4390243902439 76.52439024390243,52.33739837398374 76.57520325203252,52.235772357723576 76.6260162601626,52.083333333333336 76.67682926829268,51.981707317073166 76.72764227642276,51.880081300813 76.77845528455285,51.77845528455284" fill="none" stroke="black" stroke-width="0.6"></polyline><polyline points="76.77845528455285,51.77845528455284 76.77845528455285,51.67682926829268 76.82926829268293,51.6260162601626 76.880081300813,51.52439024390244 76.880081300813,51.47357723577235 76.880081300813,51.37195121951219 76.93089430894308,51.32113821138211 76.93089430894308,51.27032520325203 76.93089430894308,51.168699186991866 76.93089430894308,51.11788617886179 76.98170731707317,51.0670731707317 76.98170731707317,51.016260162601625 76.98170731707317,50.91463414634146 77.03252032520325,50.86382113821138 77.03252032520325,50.762195121951216 77.03252032520325,50.71138211382114 77.03252032520325,50.66056910569105 77.03252032520325,50.55894308943089 77.03252032520325,50.50813008130081 77.03252032520325,50.45731707317073 77.08333333333333,50.40650406504065 77.08333333333333,50.355691056910565 77.08333333333333,50.30487804878049 77.08333333333333,50.2540650406504 77.08333333333333,50.203252032520325 77.08333333333333,50.15243902439024 77.08333333333333,50.15243902439024 77.08333333333333,50.10162601626016 77.08333333333333,50.10162601626016 77.08333333333333,50.05081300813008 77.08333333333333,50.05081300813008 77.08333333333333,50.05081300813008 77.08333333333333,50 77.08333333333333,50 77.08333333333333,50 77.08333333333333,50 77.08333333333333,49.949186991869915 77.08333333333333,49.949186991869915 77.08333333333333,49.949186991869915 77.08333333333333,49.949186991869915 77.08333333333333,49.949186991869915 77.08333333333333,49.949186991869915 77.08333333333333,49.949186991869915 77.08333333333333,49.949186991869915 77.08333333333333,49.949186991869915 77.08333333333333,49.949186991869915 77.08333333333333,49.949186991869915 77.08333333333333,49.949186991869915 77.08333333333333,49.949186991869915 77.08333333333333,49.949186991869915 77.08333333333333,49.949186991869915" fill="none" stroke="black" stroke-width="0.6"></polyline><polyline points="77.08333333333333,49.949186991869915 77.08333333333333,49.949186991869915" fill="none" stroke="black" stroke-width="0.6"></polyline></svg>