<svg height="100" width="100" preserveAspectRatio="xMidYMid meet"><polyline points="9.908536585365853,17.733739837398375 9.908536585365853,17.733739837398375 9.857723577235772,17.632113821138212 9.75609756097561,17.53048780487805 9.654471544715447,17.428861788617887 9.603658536585366,17.276422764227643 9.502032520325203,17.1239837398374 9.34959349593496,16.971544715447155 9.197154471544716,16.76829268292683 8.99390243902439,16.565040650406505 8.739837398373984,16.36178861788618 8.384146341463415,16.15853658536585 7.977642276422764,16.006097560975608 7.520325203252033,15.955284552845528 7.0630081300813,15.904471544715447 6.605691056910569,15.904471544715447 6.25,16.006097560975608 5.995934959349594,16.15853658536585 5.691056910569106,16.41260162601626 5.538617886178861,16.71747967479675 5.436991869918699,17.073170731707318 5.436991869918699,17.479674796747968 5.48780487804878,17.784552845528456 5.640243902439024,18.038617886178862 5.894308943089431,18.241869918699187 6.1483739837398375,18.34349593495935 6.453252032520325,18.39430894308943 6.808943089430894,18.39430894308943 7.0630081300813,18.34349593495935 7.317073170731707,18.241869918699187 7.571138211382114,18.038617886178862 7.82520325203252,17.784552845528456 8.028455284552845,17.53048780487805 8.18089430894309,17.225609756097562 8.282520325203253,17.022357723577237 8.282520325203253,16.869918699186993 8.282520325203253,16.81910569105691 8.231707317073171,16.81910569105691 8.18089430894309,16.920731707317074 8.18089430894309,17.17479674796748 8.130081300813007,17.632113821138212 8.130081300813007,18.29268292682927 8.028455284552845,19.10569105691057 7.977642276422764,19.91869918699187 7.876016260162602,20.68089430894309 7.82520325203252,21.392276422764226 7.774390243902439,21.95121951219512 7.723577235772358,22.40853658536585 7.723577235772358,22.764227642276424 7.723577235772358,23.01829268292683 7.723577235772358,23.221544715447155" fill="none" stroke="black" stroke-width="0.6"></polyline><polyline points="7.723577235772358,23.221544715447155 7.82520325203252,23.272357723577237 7.926829268292683,23.221544715447155 8.079268292682926,23.119918699186993" fill="none" stroke="black" stroke-width="0.6"></polyline><polyline points="17.58130081300813,17.225609756097562 17.632113821138212,17.17479674796748 17.632113821138212,17.073170731707318 17.682926829268293,16.971544715447155 17.682926829268293,16.869918699186993 17.682926829268293,16.76829268292683 17.682926829268293,16.666666666666668 17.682926829268293,16.514227642276424 17.53048780487805,16.36178861788618 17.327235772357724,16.209349593495933 17.073170731707318,16.10772357723577 16.71747967479675,16.006097560975608 16.260162601626014,15.955284552845528 15.904471544715447,15.955284552845528 15.548780487804878,16.10772357723577 15.19308943089431,16.36178861788618 15.040650406504065,16.71747967479675 14.888211382113822,17.073170731707318 14.83739837398374,17.479674796747968 14.83739837398374,17.835365853658537 14.939024390243903,18.089430894308943 15.091463414634147,18.241869918699187 15.24390243902439,18.34349593495935 15.447154471544716,18.39430894308943 15.65040650406504,18.39430894308943 15.853658536585366,18.34349593495935 16.05691056910569,18.191056910569106 16.260162601626014,17.98780487804878 16.41260162601626,17.784552845528456 16.615853658536587,17.479674796747968 16.81910569105691,17.1239837398374 16.920731707317074,16.869918699186993 17.022357723577237,16.71747967479675 17.022357723577237,16.666666666666668 17.022357723577237,16.666666666666668 17.022357723577237,16.869918699186993 17.022357723577237,17.225609756097562 17.073170731707318,17.784552845528456 17.073170731707318,18.39430894308943 17.073170731707318,19.20731707317073 16.971544715447155,19.96951219512195 16.920731707317074,20.73170731707317 16.920731707317074,21.392276422764226 16.869918699186993,21.90040650406504 16.869918699186993,22.256097560975608 16.869918699186993,22.560975609756095 16.920731707317074,22.71341463414634 16.971544715447155,22.815040650406505 17.022357723577237,22.815040650406505 17.17479674796748,22.71341463414634" fill="none" stroke="black" stroke-width="0.6"></polyline><polyline points="28.455284552845526,16.15853658536585 28.455284552845526,16.15853658536585 28.455284552845526,16.15853658536585 28.455284552845526,16.10772357723577 28.455284552845526,16.10772357723577 28.455284552845526,16.10772357723577 28.455284552845526,16.05691056910569 28.455284552845526,16.05691056910569 28.455284552845526,16.05691056910569 28.455284552845526,16.05691056910569 28.455284552845526,16.05691056910569 28.455284552845526,16.05691056910569 28.455284552845526,16.05691056910569 28.404471544715445,16.05691056910569 28.353658536585364,16.05691056910569 28.2520325203252,16.05691056910569 28.15040650406504,16.05691056910569 27.947154471544714,16.05691056910569 27.74390243902439,16.006097560975608 27.4390243902439,15.955284552845528 27.134146341463413,15.955284552845528 26.829268292682926,15.904471544715447 26.524390243902438,15.904471544715447 26.270325203252032,16.006097560975608 25.965447154471544,16.209349593495933 25.711382113821138,16.463414634146343 25.508130081300813,16.76829268292683 25.304878048780488,17.1239837398374 25.152439024390244,17.479674796747968 25.05081300813008,17.835365853658537 25.05081300813008,18.089430894308943 25.05081300813008,18.241869918699187 25.152439024390244,18.34349593495935 25.35569105691057,18.445121951219512 25.711382113821138,18.495934959349594 26.067073170731707,18.597560975609756 26.57520325203252,18.75 27.134146341463413,18.953252032520325 27.693089430894307,19.258130081300813 28.2520325203252,19.61382113821138 28.65853658536585,20.020325203252032 28.96341463414634,20.3760162601626 29.115853658536583,20.73170731707317 29.217479674796746,21.036585365853657 29.217479674796746,21.290650406504064 29.0650406504065,21.59552845528455 28.810975609756095,21.90040650406504 28.455284552845526,22.205284552845526 28.048780487804876,22.40853658536585 27.642276422764226,22.611788617886177 27.184959349593495,22.764227642276424" fill="none" stroke="black" stroke-width="0.6"></polyline><polyline points="27.184959349593495,22.764227642276424 26.727642276422763,22.815040650406505 26.21951219512195,22.865853658536587 25.711382113821138,22.815040650406505 25.40650406504065,22.71341463414634 25.203252032520325,22.611788617886177 25.152439024390244,22.510162601626014 25.304878048780488,22.30691056910569" fill="none" stroke="black" stroke-width="0.6"></polyline><polyline points="37.19512195121951,16.15853658536585 37.19512195121951,16.15853658536585 37.19512195121951,16.15853658536585 37.19512195121951,16.15853658536585 37.14430894308943,16.209349593495933 37.042682926829265,16.463414634146343 36.83943089430894,16.971544715447155 36.58536585365854,17.784552845528456 36.33130081300813,18.69918699186992 36.1280487804878,19.61382113821138 36.077235772357724,20.32520325203252 36.077235772357724,20.884146341463413 36.1280487804878,21.443089430894307 36.28048780487805,21.849593495934958 36.483739837398375,22.154471544715445 36.73780487804878,22.30691056910569 37.042682926829265,22.35772357723577 37.449186991869915,22.35772357723577 37.855691056910565,22.205284552845526 38.3130081300813,21.95121951219512 38.71951219512195,21.59552845528455 39.1260162601626,21.13821138211382 39.48170731707317,20.68089430894309 39.6849593495935,20.274390243902438 39.83739837398374,19.817073170731707 39.83739837398374,19.51219512195122 39.735772357723576,19.308943089430894 39.583333333333336,19.15650406504065 39.38008130081301,19.15650406504065 39.1260162601626,19.308943089430894 38.82113821138211,19.61382113821138 38.516260162601625,20.071138211382113 38.21138211382114,20.579268292682926 37.95731707317073,21.13821138211382 37.80487804878049,21.697154471544714 37.7540650406504,22.205284552845526 37.703252032520325,22.611788617886177 37.80487804878049,22.916666666666668 37.90650406504065,23.01829268292683" fill="none" stroke="black" stroke-width="0.6"></polyline><polyline points="47.0020325203252,17.632113821138212 46.951219512195124,17.632113821138212 46.951219512195124,17.58130081300813 46.90040650406504,17.53048780487805 46.90040650406504,17.53048780487805 47.0020325203252,17.53048780487805 47.25609756097561,17.53048780487805 47.61178861788618,17.53048780487805 48.11991869918699,17.53048780487805 48.67886178861789,17.53048780487805 49.1869918699187,17.53048780487805 49.64430894308943,17.53048780487805 49.949186991869915,17.53048780487805 50.2540650406504,17.53048780487805 50.45731707317073,17.682926829268293 50.609756097560975,17.88617886178862 50.762195121951216,18.241869918699187 50.762195121951216,18.69918699186992 50.762195121951216,19.258130081300813 50.66056910569105,19.867886178861788 50.45731707317073,20.426829268292682 50.30487804878049,20.934959349593495 50.15243902439024,21.392276422764226 50.05081300813008,21.697154471544714 50,21.95121951219512 49.89837398373984,22.154471544715445 49.89837398373984,22.256097560975608 49.89837398373984,22.30691056910569 49.949186991869915,22.30691056910569" fill="none" stroke="black" stroke-width="0.6"></polyline><polyline points="60.16260162601626,16.006097560975608 60.16260162601626,16.006097560975608 60.0609756097561,16.006097560975608 59.90853658536585,16.006097560975608 59.75609756097561,16.15853658536585 59.5020325203252,16.615853658536587 59.146341463414636,17.276422764227643 58.892276422764226,18.038617886178862 58.63821138211382,18.851626016260163 58.43495934959349,19.664634146341463 58.33333333333333,20.223577235772357 58.33333333333333,20.73170731707317 58.33333333333333,21.1890243902439 58.485772357723576,21.54471544715447 58.739837398373986,21.798780487804876 59.04471544715447,22.0020325203252 59.40040650406504,22.103658536585364 59.857723577235774,22.154471544715445 60.46747967479675,22.103658536585364 61.02642276422764,21.90040650406504 61.58536585365854,21.59552845528455 62.19512195121951,21.239837398373982 62.60162601626016,20.884146341463413 63.00813008130081,20.528455284552845 63.262195121951216,20.172764227642276 63.36382113821138,19.867886178861788 63.41463414634146,19.664634146341463 63.262195121951216,19.51219512195122 63.00813008130081,19.461382113821138 62.703252032520325,19.461382113821138 62.34756097560975,19.5630081300813 61.9410569105691,19.766260162601625 61.58536585365854,20.121951219512194 61.17886178861789,20.477642276422763 60.823170731707314,20.934959349593495 60.56910569105691,21.392276422764226 60.3150406504065,21.90040650406504 60.264227642276424,22.256097560975608 60.264227642276424,22.459349593495933 60.36585365853659,22.510162601626014" fill="none" stroke="black" stroke-width="0.6"></polyline><polyline points="71.1890243902439,18.241869918699187 71.1890243902439,18.140243902439025 71.1890243902439,17.98780487804878 71.23983739837398,17.835365853658537 71.39227642276423,17.682926829268293 71.64634146341463,17.53048780487805 72.0020325203252,17.428861788617887 72.40853658536585,17.378048780487806 72.86585365853658,17.378048780487806 73.27235772357723,17.58130081300813 73.57723577235772,17.9369918699187 73.78048780487805,18.29268292682927 73.8821138211382,18.75 73.8821138211382,19.258130081300813 73.78048780487805,19.715447154471544 73.52642276422765,20.172764227642276 73.32317073170732,20.528455284552845 73.01829268292683,20.884146341463413 72.71341463414635,21.1890243902439 72.40853658536585,21.392276422764226 72.10365853658537,21.54471544715447 71.79878048780488,21.59552845528455 71.59552845528455,21.54471544715447 71.49390243902438,21.392276422764226 71.4430894308943,21.13821138211382 71.4430894308943,20.78252032520325 71.54471544715447,20.426829268292682 71.7479674796748,20.223577235772357 72.05284552845528,20.020325203252032 72.40853658536585,19.91869918699187 72.86585365853658,19.91869918699187 73.3739837398374,20.071138211382113 73.8821138211382,20.3760162601626 74.28861788617886,20.68089430894309 74.54268292682927,21.036585365853657 74.79674796747967,21.341463414634145 74.94918699186992,21.54471544715447 75.05081300813008,21.747967479674795 75.05081300813008,21.798780487804876" fill="none" stroke="black" stroke-width="0.6"></polyline><polyline points="82.01219512195122,16.666666666666668 82.01219512195122,16.666666666666668 82.01219512195122,16.565040650406505 82.01219512195122,16.514227642276424 82.01219512195122,16.463414634146343 82.01219512195122,16.41260162601626 82.01219512195122,16.36178861788618 82.01219512195122,16.3109756097561 81.96138211382113,16.209349593495933 81.85975609756098,16.15853658536585 81.70731707317073,16.05691056910569 81.55487804878048,16.006097560975608 81.25,15.955284552845528 80.9451219512195,15.904471544715447 80.58943089430895,15.904471544715447 80.28455284552845,16.006097560975608 79.97967479674797,16.209349593495933 79.77642276422765,16.463414634146343 79.67479674796748,16.81910569105691 79.6239837398374,17.1239837398374 79.6239837398374,17.378048780487806 79.72560975609755,17.58130081300813 79.8780487804878,17.733739837398375 80.08130081300813,17.784552845528456 80.38617886178862,17.784552845528456 80.6910569105691,17.733739837398375 80.9959349593496,17.632113821138212 81.35162601626016,17.479674796747968 81.70731707317073,17.225609756097562 82.01219512195122,17.022357723577237 82.26626016260163,16.76829268292683 82.41869918699187,16.565040650406505 82.46951219512195,16.463414634146343 82.46951219512195,16.463414634146343 82.46951219512195,16.41260162601626 82.41869918699187,16.514227642276424 82.3170731707317,16.76829268292683 82.21544715447155,17.17479674796748 82.0630081300813,17.682926829268293 81.85975609756098,18.29268292682927 81.70731707317073,19.054878048780488 81.5040650406504,19.715447154471544 81.35162601626016,20.3760162601626 81.19918699186992,20.884146341463413 81.09756097560975,21.341463414634145 81.04674796747967,21.747967479674795 80.9959349593496,22.0020325203252 80.9959349593496,22.154471544715445 80.9959349593496,22.256097560975608 80.9959349593496,22.256097560975608 81.04674796747967,22.256097560975608" fill="none" stroke="black" stroke-width="0.6"></polyline><polyline points="81.04674796747967,22.256097560975608" fill="none" stroke="black" stroke-width="0.6"></polyline><polyline points="89.17682926829268,16.81910569105691 89.17682926829268,16.81910569105691 89.17682926829268,16.81910569105691 89.17682926829268,16.81910569105691 89.1260162601626,16.81910569105691 89.1260162601626,16.971544715447155 89.07520325203252,17.225609756097562 89.02439024390243,17.53048780487805 89.02439024390243,17.835365853658537 89.07520325203252,18.140243902439025 89.1260162601626,18.39430894308943 89.27845528455285,18.546747967479675 89.43089430894308,18.597560975609756 89.6341463414634,18.648373983739837 89.83739837398373,18.648373983739837 90.14227642276423,18.597560975609756 90.4979674796748,18.495934959349594 90.85365853658536,18.34349593495935 91.20934959349593,18.140243902439025" fill="none" stroke="black" stroke-width="0.6"></polyline><polyline points="92.1239837398374,16.41260162601626 92.1239837398374,16.41260162601626 92.1239837398374,16.41260162601626 92.1239837398374,16.41260162601626 92.1239837398374,16.41260162601626 92.1239837398374,16.463414634146343 92.1239837398374,16.666666666666668 92.07317073170732,17.073170731707318 91.97154471544715,17.733739837398375 91.869918699187,18.546747967479675 91.76829268292683,19.359756097560975 91.71747967479675,20.071138211382113 91.61585365853658,20.68089430894309 91.5650406504065,21.08739837398374 91.51422764227642,21.49390243902439 91.41260162601625,21.849593495934958 91.36178861788618,22.052845528455283 91.36178861788618,22.256097560975608 91.36178861788618,22.35772357723577 91.36178861788618,22.35772357723577 91.36178861788618,22.40853658536585 91.36178861788618,22.40853658536585 91.36178861788618,22.30691056910569" fill="none" stroke="black" stroke-width="0.6"></polyline><polyline points="9.146341463414634,43.03861788617886 9.146341463414634,42.98780487804878 8.99390243902439,42.78455284552845 8.841463414634147,42.58130081300813 8.689024390243903,42.479674796747965 8.485772357723578,42.3780487804878 8.282520325203253,42.327235772357724 8.028455284552845,42.327235772357724 7.723577235772358,42.327235772357724 7.469512195121951,42.3780487804878 7.266260162601625,42.42886178861789 7.0630081300813,42.479674796747965 6.9105691056910565,42.58130081300813 6.808943089430894,42.63211382113821 6.808943089430894,42.78455284552845 6.758130081300813,42.9369918699187 6.808943089430894,43.1910569105691 6.9105691056910565,43.44512195121951 7.164634146341463,43.80081300813008 7.41869918699187,44.20731707317073 7.774390243902439,44.5630081300813 8.079268292682926,45.02032520325203 8.384146341463415,45.42682926829268 8.58739837398374,45.833333333333336 8.739837398373984,46.290650406504064 8.790650406504065,46.697154471544714 8.790650406504065,47.20528455284553 8.638211382113822,47.61178861788618 8.485772357723578,48.01829268292683 8.282520325203253,48.3739837398374 8.079268292682926,48.577235772357724 7.926829268292683,48.67886178861789 7.723577235772358,48.729674796747965 7.520325203252033,48.67886178861789 7.367886178861789,48.52642276422764 7.164634146341463,48.22154471544715 7.113821138211382,47.8150406504065 7.0630081300813,47.30691056910569 7.164634146341463,46.646341463414636 7.367886178861789,46.08739837398374 7.6727642276422765,45.47764227642276 8.130081300813007,44.766260162601625 8.58739837398374,44.20731707317073 9.044715447154472,43.75 9.451219512195122,43.34349593495935 9.75609756097561,43.08943089430894 10.010162601626016,42.83536585365854 10.213414634146341,42.63211382113821 10.315040650406504,42.479674796747965 10.416666666666666,42.42886178861789" fill="none" stroke="black" stroke-width="0.6"></polyline><polyline points="14.939024390243903,42.83536585365854 14.83739837398374,42.83536585365854 14.735772357723578,42.78455284552845 14.735772357723578,42.733739837398375 14.735772357723578,42.733739837398375 14.786585365853659,42.78455284552845 14.989837398373984,42.83536585365854 15.294715447154472,42.83536585365854 15.701219512195122,42.83536585365854 16.10772357723577,42.78455284552845 16.565040650406505,42.63211382113821 17.022357723577237,42.479674796747965 17.428861788617887,42.3780487804878 17.784552845528456,42.27642276422764 18.089430894308943,42.27642276422764 18.29268292682927,42.3780487804878 18.495934959349594,42.58130081300813 18.648373983739837,42.98780487804878 18.69918699186992,43.44512195121951 18.69918699186992,44.05487804878049 18.69918699186992,44.61382113821138 18.546747967479675,45.22357723577235 18.39430894308943,45.78252032520325 18.191056910569106,46.290650406504064 18.038617886178862,46.697154471544714 17.88617886178862,47.052845528455286 17.835365853658537,47.30691056910569 17.784552845528456,47.459349593495936 17.784552845528456,47.61178861788618 17.784552845528456,47.61178861788618 17.835365853658537,47.5609756097561 17.98780487804878,47.40853658536585 18.089430894308943,47.30691056910569" fill="none" stroke="black" stroke-width="0.6"></polyline><polyline points="26.371951219512194,43.39430894308943 26.371951219512194,43.39430894308943 26.371951219512194,43.39430894308943 26.321138211382113,43.34349593495935 26.270325203252032,43.292682926829265 26.270325203252032,43.24186991869919 26.270325203252032,43.1910569105691 26.321138211382113,43.08943089430894 26.473577235772357,42.9369918699187 26.778455284552845,42.733739837398375 27.134146341463413,42.53048780487805 27.489837398373982,42.42886178861789 27.947154471544714,42.42886178861789 28.353658536585364,42.63211382113821 28.709349593495933,42.98780487804878 28.96341463414634,43.44512195121951 29.115853658536583,43.953252032520325 29.166666666666664,44.512195121951216 29.0650406504065,45.07113821138211 28.861788617886177,45.68089430894309 28.65853658536585,46.13821138211382 28.353658536585364,46.49390243902439 28.099593495934958,46.7479674796748 27.79471544715447,46.951219512195124 27.489837398373982,47.052845528455286 27.235772357723576,47.052845528455286 27.03252032520325,47.0020325203252 26.880081300813007,46.798780487804876 26.778455284552845,46.59552845528455 26.778455284552845,46.34146341463415 26.829268292682926,46.13821138211382 27.03252032520325,45.9349593495935 27.38821138211382,45.833333333333336 27.79471544715447,45.73170731707317 28.2520325203252,45.73170731707317 28.709349593495933,45.73170731707317 29.268292682926827,45.833333333333336 29.776422764227643,45.985772357723576 30.182926829268293,46.13821138211382 30.589430894308943,46.290650406504064 30.84349593495935,46.34146341463415 31.097560975609756,46.392276422764226" fill="none" stroke="black" stroke-width="0.6"></polyline><polyline points="40.29471544715447,41.514227642276424 40.29471544715447,41.46341463414634 40.29471544715447,41.36178861788618 40.24390243902439,41.260162601626014 40.19308943089431,41.209349593495936 40.142276422764226,41.107723577235774 40.09146341463415,41.00609756097561 39.989837398373986,40.95528455284553 39.78658536585366,40.90447154471545 39.53252032520325,40.853658536585364 39.27845528455285,40.853658536585364 38.922764227642276,40.853658536585364 38.5670731707317,40.95528455284553 38.3130081300813,41.05691056910569 38.109756097560975,41.15853658536585 37.95731707317073,41.36178861788618 37.95731707317073,41.5650406504065 37.95731707317073,41.81910569105691 38.05894308943089,42.073170731707314 38.262195121951216,42.3780487804878 38.5670731707317,42.733739837398375 38.922764227642276,43.140243902439025 39.176829268292686,43.546747967479675 39.48170731707317,43.953252032520325 39.6849593495935,44.359756097560975 39.83739837398374,44.66463414634146 39.88821138211382,45.02032520325203 39.88821138211382,45.3760162601626 39.88821138211382,45.68089430894309 39.78658536585366,45.9349593495935 39.63414634146341,46.1890243902439 39.43089430894309,46.34146341463415 39.22764227642276,46.44308943089431 39.02439024390244,46.44308943089431 38.82113821138211,46.44308943089431 38.5670731707317,46.290650406504064 38.41463414634146,46.08739837398374 38.262195121951216,45.78252032520325 38.21138211382114,45.42682926829268 38.21138211382114,45.02032520325203 38.262195121951216,44.5630081300813 38.41463414634146,44.105691056910565 38.61788617886179,43.64837398373984 38.922764227642276,43.140243902439025 39.27845528455285,42.68292682926829 39.63414634146341,42.27642276422764 39.9390243902439,42.02235772357724 40.19308943089431,41.81910569105691 40.447154471544714,41.61585365853659 40.59959349593496,41.5650406504065" fill="none" stroke="black" stroke-width="0.6"></polyline><polyline points="47.71341463414634,41.3109756097561 47.71341463414634,41.209349593495936 47.71341463414634,41.107723577235774 47.764227642276424,41.05691056910569 47.8150406504065,41.00609756097561 47.86585365853659,41.00609756097561 47.916666666666664,41.05691056910569 47.916666666666664,41.3109756097561 47.916666666666664,41.666666666666664 47.8150406504065,42.17479674796748 47.66260162601626,42.78455284552845 47.510162601626014,43.49593495934959 47.40853658536585,44.20731707317073 47.357723577235774,44.96951219512195 47.357723577235774,45.63008130081301 47.459349593495936,46.1890243902439 47.66260162601626,46.59552845528455 47.916666666666664,46.84959349593496 48.170731707317074,47.0020325203252 48.52642276422764,47.103658536585364 48.88211382113821,47.103658536585364 49.28861788617886,46.90040650406504 49.69512195121951,46.697154471544714 50.05081300813008,46.392276422764226 50.30487804878049,46.03658536585366 50.50813008130081,45.73170731707317 50.55894308943089,45.47764227642276 50.609756097560975,45.22357723577235 50.50813008130081,44.918699186991866 50.30487804878049,44.71544715447154 50.10162601626016,44.61382113821138 49.84756097560975,44.5630081300813 49.59349593495935,44.66463414634146 49.33943089430894,44.86788617886179 49.08536585365854,45.172764227642276 48.93292682926829,45.52845528455285 48.78048780487805,45.88414634146341 48.729674796747965,46.290650406504064 48.729674796747965,46.646341463414636 48.88211382113821,46.84959349593496 48.983739837398375,46.951219512195124" fill="none" stroke="black" stroke-width="0.6"></polyline><polyline points="62.39837398373984,41.41260162601626 62.39837398373984,41.260162601626014 62.34756097560975,41.15853658536585 62.296747967479675,41.107723577235774 62.24593495934959,41.00609756097561 62.09349593495935,40.95528455284553 61.78861788617886,40.95528455284553 61.38211382113821,40.95528455284553 60.8739837398374,41.00609756097561 60.3150406504065,41.107723577235774 59.80691056910569,41.209349593495936 59.34959349593496,41.36178861788618 59.09552845528455,41.514227642276424 58.94308943089431,41.666666666666664 58.94308943089431,41.86991869918699 59.04471544715447,42.1239837398374 59.298780487804876,42.479674796747965 59.65447154471545,42.9369918699187 60.11178861788618,43.39430894308943 60.51829268292683,43.85162601626016 60.8739837398374,44.20731707317073 61.17886178861789,44.5630081300813 61.43292682926829,44.86788617886179 61.58536585365854,45.172764227642276 61.58536585365854,45.42682926829268 61.58536585365854,45.68089430894309 61.483739837398375,45.88414634146341 61.28048780487805,46.08739837398374 61.02642276422764,46.239837398373986 60.823170731707314,46.290650406504064 60.56910569105691,46.290650406504064 60.264227642276424,46.239837398373986 60.0609756097561,46.03658536585366 59.857723577235774,45.833333333333336 59.70528455284553,45.579268292682926 59.65447154471545,45.325203252032516 59.65447154471545,45.07113821138211 59.70528455284553,44.766260162601625 59.959349593495936,44.41056910569105 60.3150406504065,44.0040650406504 60.823170731707314,43.546747967479675 61.38211382113821,43.08943089430894 62.14430894308943,42.53048780487805 62.7540650406504,42.1239837398374 63.36382113821138,41.76829268292683" fill="none" stroke="black" stroke-width="0.6"></polyline><polyline points="72.0020325203252,39.9390243902439 72.0020325203252,39.9390243902439 72.0020325203252,39.9390243902439 72.0020325203252,39.9390243902439 71.90040650406505,40.09146341463415 71.69715447154472,40.396341463414636 71.39227642276423,41.00609756097561 71.08739837398373,41.71747967479675 70.83333333333333,42.42886178861789 70.630081300813,43.1910569105691 70.47764227642276,43.90243902439024 70.3760162601626,44.41056910569105 70.3760162601626,44.918699186991866 70.3760162601626,45.3760162601626 70.52845528455285,45.68089430894309 70.73170731707317,45.9349593495935 70.9349593495935,46.13821138211382 71.23983739837398,46.239837398373986 71.59552845528455,46.239837398373986 72.05284552845528,46.239837398373986 72.45934959349593,46.03658536585366 72.91666666666667,45.73170731707317 73.42479674796748,45.325203252032516 73.78048780487805,44.918699186991866 73.98373983739837,44.512195121951216 74.13617886178862,44.15650406504065 74.13617886178862,43.85162601626016 74.08536585365853,43.546747967479675 73.9329268292683,43.39430894308943 73.67886178861788,43.39430894308943 73.42479674796748,43.44512195121951 73.119918699187,43.699186991869915 72.8150406504065,44.0040650406504 72.51016260162602,44.41056910569105 72.2560975609756,44.86788617886179 72.05284552845528,45.3760162601626 71.95121951219512,45.88414634146341 71.90040650406505,46.290650406504064 71.95121951219512,46.54471544715447 72.10365853658537,46.646341463414636 72.3069105691057,46.697154471544714 72.45934959349593,46.646341463414636" fill="none" stroke="black" stroke-width="0.6"></polyline><polyline points="80.64024390243902,42.53048780487805 80.64024390243902,42.53048780487805 80.64024390243902,42.479674796747965 80.64024390243902,42.42886178861789 80.58943089430895,42.42886178861789 80.58943089430895,42.3780487804878 80.58943089430895,42.327235772357724 80.6910569105691,42.27642276422764 80.84349593495935,42.17479674796748 81.09756097560975,42.1239837398374 81.45325203252033,42.02235772357724 81.85975609756098,42.02235772357724 82.3170731707317,42.17479674796748 82.72357723577235,42.53048780487805 83.02845528455285,43.03861788617886 83.18089430894308,43.546747967479675 83.18089430894308,44.15650406504065 83.02845528455285,44.71544715447154 82.72357723577235,45.27439024390244 82.41869918699187,45.73170731707317 82.01219512195122,46.13821138211382 81.65650406504065,46.44308943089431 81.30081300813008,46.646341463414636 80.9959349593496,46.697154471544714 80.79268292682927,46.697154471544714 80.58943089430895,46.646341463414636 80.4369918699187,46.49390243902439 80.38617886178862,46.290650406504064 80.38617886178862,46.03658536585366 80.4369918699187,45.833333333333336 80.58943089430895,45.68089430894309 80.79268292682927,45.63008130081301 81.04674796747967,45.63008130081301 81.35162601626016,45.68089430894309 81.65650406504065,45.78252032520325 81.96138211382113,45.985772357723576 82.21544715447155,46.1890243902439 82.46951219512195,46.44308943089431 82.67276422764228,46.646341463414636 82.8760162601626,46.7479674796748 82.97764227642276,46.798780487804876" fill="none" stroke="black" stroke-width="0.6"></polyline><polyline points="93.75,40.701219512195124 93.75,40.701219512195124 93.75,40.65040650406504 93.75,40.548780487804876 93.69918699186992,40.4979674796748 93.64837398373983,40.447154471544714 93.54674796747967,40.34552845528455 93.4451219512195,40.29471544715447 93.24186991869918,40.24390243902439 92.98780487804878,40.19308943089431 92.73373983739837,40.19308943089431 92.42886178861788,40.19308943089431 92.1239837398374,40.29471544715447 91.92073170731707,40.396341463414636 91.8191056910569,40.548780487804876 91.71747967479675,40.7520325203252 91.71747967479675,41.05691056910569 91.71747967479675,41.36178861788618 91.869918699187,41.81910569105691 92.1239837398374,42.17479674796748 92.3780487804878,42.58130081300813 92.6829268292683,42.98780487804878 92.9369918699187,43.34349593495935 93.14024390243902,43.699186991869915 93.29268292682927,44.05487804878049 93.34349593495935,44.359756097560975 93.34349593495935,44.66463414634146 93.24186991869918,44.96951219512195 93.08943089430895,45.27439024390244 92.9369918699187,45.47764227642276 92.73373983739837,45.68089430894309 92.53048780487805,45.78252032520325 92.32723577235772,45.833333333333336 92.1239837398374,45.833333333333336 91.92073170731707,45.68089430894309 91.76829268292683,45.52845528455285 91.61585365853658,45.27439024390244 91.5650406504065,44.96951219512195 91.5650406504065,44.61382113821138 91.61585365853658,44.20731707317073 91.8191056910569,43.85162601626016 92.02235772357723,43.49593495934959 92.3780487804878,43.140243902439025 92.83536585365853,42.78455284552845 93.24186991869918,42.42886178861789 93.69918699186992,42.1239837398374 94.10569105691057,41.86991869918699 94.3089430894309,41.71747967479675 94.51219512195122,41.5650406504065 94.5630081300813,41.514227642276424 94.61382113821138,41.46341463414634" fill="none" stroke="black" stroke-width="0.6"></polyline><polyline points="94.61382113821138,41.46341463414634 94.61382113821138,41.46341463414634 94.61382113821138,41.46341463414634" fill="none" stroke="black" stroke-width="0.6"></polyline><polyline points="6.65650406504065,67.53048780487805 6.554878048780488,67.32723577235772 6.453252032520325,67.17479674796748 6.402439024390244,67.02235772357723 6.504065040650406,66.869918699187 6.7073170731707314,66.71747967479675 7.0630081300813,66.5650406504065 7.469512195121951,66.51422764227642 7.977642276422764,66.46341463414635 8.434959349593496,66.51422764227642 8.841463414634147,66.61585365853658 9.146341463414634,66.8191056910569 9.451219512195122,67.07317073170732 9.654471544715447,67.32723577235772 9.705284552845528,67.6829268292683 9.705284552845528,68.08943089430895 9.552845528455284,68.4451219512195 9.298780487804878,68.85162601626016 8.99390243902439,69.35975609756098 8.638211382113822,69.76626016260163 8.282520325203253,70.1219512195122 7.876016260162602,70.42682926829268 7.571138211382114,70.57926829268293 7.317073170731707,70.630081300813 7.0630081300813,70.630081300813 6.961382113821138,70.52845528455285 6.9105691056910565,70.3760162601626 6.9105691056910565,70.27439024390243 6.961382113821138,70.1219512195122 7.215447154471544,69.96951219512195 7.520325203252033,69.8170731707317 7.876016260162602,69.76626016260163 8.231707317073171,69.76626016260163 8.58739837398374,69.76626016260163 8.892276422764228,69.76626016260163 9.197154471544716,69.91869918699187 9.451219512195122,70.0711382113821 9.654471544715447,70.22357723577235 9.80691056910569,70.3760162601626 9.959349593495935,70.52845528455285 10.060975609756097,70.57926829268293" fill="none" stroke="black" stroke-width="0.6"></polyline><polyline points="16.209349593495933,67.07317073170732 16.209349593495933,67.07317073170732 16.209349593495933,67.02235772357723 16.15853658536585,67.02235772357723 16.15853658536585,66.97154471544715 16.15853658536585,66.97154471544715 16.15853658536585,66.97154471544715 16.15853658536585,66.97154471544715 16.15853658536585,66.97154471544715 16.15853658536585,66.97154471544715 16.15853658536585,66.97154471544715 16.15853658536585,66.97154471544715 16.15853658536585,66.97154471544715 16.15853658536585,66.97154471544715 16.15853658536585,66.97154471544715 16.15853658536585,66.97154471544715 16.15853658536585,66.97154471544715 16.15853658536585,66.97154471544715 16.15853658536585,66.97154471544715 16.15853658536585,66.97154471544715 16.15853658536585,66.97154471544715 16.15853658536585,66.97154471544715 16.15853658536585,66.97154471544715 16.15853658536585,66.97154471544715 16.15853658536585,66.97154471544715 16.15853658536585,66.97154471544715 16.15853658536585,66.97154471544715 16.15853658536585,66.97154471544715 16.15853658536585,66.92073170731707 16.15853658536585,66.869918699187 16.15853658536585,66.8191056910569 16.10772357723577,66.71747967479675 16.05691056910569,66.61585365853658 16.006097560975608,66.51422764227642 15.904471544715447,66.36178861788618 15.752032520325203,66.26016260162602 15.59959349593496,66.10772357723577 15.447154471544716,66.0060975609756 15.294715447154472,65.95528455284553 15.091463414634147,65.95528455284553 14.888211382113822,66.0569105691057 14.684959349593496,66.26016260162602 14.53252032520325,66.51422764227642 14.329268292682926,66.8191056910569 14.227642276422763,67.1239837398374 14.1260162601626,67.47967479674797 14.07520325203252,67.78455284552845 14.07520325203252,68.03861788617886 14.1260162601626,68.29268292682927 14.278455284552845,68.54674796747967 14.430894308943088,68.69918699186992" fill="none" stroke="black" stroke-width="0.6"></polyline><polyline points="14.430894308943088,68.69918699186992 14.684959349593496,68.75 14.939024390243903,68.80081300813008 15.24390243902439,68.80081300813008 15.548780487804878,68.69918699186992 15.853658536585366,68.4959349593496 16.15853658536585,68.24186991869918 16.463414634146343,67.9369918699187 16.76829268292683,67.6321138211382 16.971544715447155,67.32723577235772 17.17479674796748,67.07317073170732 17.327235772357724,66.8191056910569 17.378048780487806,66.66666666666667 17.378048780487806,66.5650406504065 17.378048780487806,66.5650406504065 17.378048780487806,66.5650406504065 17.378048780487806,66.5650406504065 17.378048780487806,66.61585365853658 17.378048780487806,66.76829268292683 17.378048780487806,67.07317073170732 17.378048780487806,67.53048780487805 17.378048780487806,67.98780487804878 17.378048780487806,68.4451219512195 17.378048780487806,69.05487804878048 17.428861788617887,69.5630081300813 17.428861788617887,70.02032520325203 17.479674796747968,70.47764227642276 17.479674796747968,70.83333333333333 17.479674796747968,71.08739837398373 17.479674796747968,71.39227642276423 17.428861788617887,71.54471544715447 17.428861788617887,71.69715447154472 17.428861788617887,71.7479674796748 17.479674796747968,71.7479674796748 17.53048780487805,71.7479674796748 17.632113821138212,71.59552845528455" fill="none" stroke="black" stroke-width="0.6"></polyline><polyline points="24.847560975609756,65.04065040650406 24.847560975609756,65.04065040650406 24.745934959349594,65.04065040650406 24.695121951219512,65.04065040650406 24.64430894308943,65.04065040650406 24.64430894308943,65.2439024390244 24.64430894308943,65.4979674796748 24.64430894308943,65.80284552845528 24.695121951219512,66.20934959349593 24.847560975609756,66.51422764227642 24.94918699186992,66.76829268292683 25.101626016260163,66.97154471544715 25.254065040650406,67.07317073170732 25.45731707317073,67.1239837398374 25.660569105691057,67.17479674796748 25.86382113821138,67.17479674796748 26.117886178861788,67.1239837398374 26.371951219512194,67.02235772357723 26.6260162601626,66.869918699187 26.880081300813007,66.71747967479675 27.134146341463413,66.51422764227642 27.38821138211382,66.3109756097561 27.642276422764226,66.10772357723577 27.84552845528455,65.85365853658537 27.997967479674795,65.65040650406505 28.099593495934958,65.44715447154472 28.15040650406504,65.2439024390244 28.20121951219512,65.14227642276423" fill="none" stroke="black" stroke-width="0.6"></polyline><polyline points="28.048780487804876,64.6849593495935 27.997967479674795,64.6341463414634 27.947154471544714,64.58333333333333 27.896341463414632,64.53252032520325 27.896341463414632,64.53252032520325 27.84552845528455,64.53252032520325 27.79471544715447,64.6341463414634 27.74390243902439,64.88821138211382 27.74390243902439,65.29471544715447 27.693089430894307,65.80284552845528 27.693089430894307,66.51422764227642 27.642276422764226,67.27642276422765 27.591463414634145,68.03861788617886 27.591463414634145,68.75 27.489837398373982,69.41056910569105 27.4390243902439,69.91869918699187 27.33739837398374,70.32520325203252 27.286585365853657,70.630081300813 27.286585365853657,70.83333333333333 27.286585365853657,70.9349593495935 27.286585365853657,70.98577235772358 27.33739837398374,70.9349593495935" fill="none" stroke="black" stroke-width="0.6"></polyline><polyline points="36.58536585365854,65.1930894308943 36.483739837398375,65.1930894308943 36.38211382113821,65.1930894308943 36.33130081300813,65.14227642276423 36.28048780487805,65.14227642276423 36.28048780487805,65.14227642276423 36.28048780487805,65.14227642276423 36.43292682926829,65.2439024390244 36.6869918699187,65.29471544715447 36.99186991869919,65.39634146341463 37.39837398373984,65.39634146341463 37.80487804878049,65.39634146341463 38.262195121951216,65.39634146341463 38.71951219512195,65.34552845528455 39.1260162601626,65.2439024390244 39.53252032520325,65.1930894308943 39.78658536585366,65.1930894308943 40.040650406504064,65.2439024390244 40.24390243902439,65.34552845528455 40.34552845528455,65.59959349593495 40.396341463414636,65.95528455284553 40.396341463414636,66.41260162601625 40.34552845528455,66.97154471544715 40.19308943089431,67.6829268292683 40.040650406504064,68.24186991869918 39.88821138211382,68.85162601626016 39.6849593495935,69.5630081300813 39.53252032520325,70.0711382113821 39.38008130081301,70.47764227642276 39.27845528455285,70.9349593495935 39.22764227642276,71.1890243902439 39.22764227642276,71.49390243902438 39.27845528455285,71.54471544715447 39.329268292682926,71.49390243902438" fill="none" stroke="black" stroke-width="0.6"></polyline><polyline points="48.52642276422764,65.65040650406505 48.52642276422764,65.65040650406505 48.52642276422764,65.65040650406505 48.52642276422764,65.59959349593495 48.52642276422764,65.59959349593495 48.52642276422764,65.59959349593495 48.52642276422764,65.70121951219512 48.52642276422764,65.90447154471545 48.52642276422764,66.20934959349593 48.52642276422764,66.51422764227642 48.52642276422764,66.869918699187 48.577235772357724,67.1239837398374 48.6280487804878,67.3780487804878 48.67886178861789,67.53048780487805 48.78048780487805,67.6321138211382 48.88211382113821,67.78455284552845 49.03455284552845,67.78455284552845 49.23780487804878,67.83536585365853 49.49186991869919,67.83536585365853 49.74593495934959,67.73373983739837 50,67.6321138211382 50.30487804878049,67.47967479674797 50.55894308943089,67.32723577235772 50.8130081300813,67.1239837398374 51.0670731707317,66.92073170731707 51.27032520325203,66.71747967479675 51.47357723577235,66.46341463414635 51.6260162601626,66.20934959349593 51.72764227642276,66.0060975609756 51.77845528455284,65.80284552845528 51.77845528455284,65.59959349593495 51.77845528455284,65.4979674796748 51.77845528455284,65.4979674796748 51.77845528455284,65.4979674796748 51.77845528455284,65.4979674796748 51.72764227642276,65.59959349593495 51.72764227642276,65.80284552845528 51.72764227642276,66.20934959349593 51.72764227642276,66.71747967479675 51.72764227642276,67.27642276422765 51.67682926829268,67.88617886178862 51.67682926829268,68.4959349593496 51.6260162601626,69.20731707317073 51.575203252032516,69.8170731707317 51.52439024390244,70.32520325203252 51.47357723577235,70.73170731707317 51.422764227642276,70.98577235772358 51.422764227642276,71.1890243902439 51.422764227642276,71.29065040650406 51.422764227642276,71.34146341463415 51.47357723577235,71.34146341463415" fill="none" stroke="black" stroke-width="0.6"></polyline><polyline points="51.47357723577235,71.34146341463415 51.52439024390244,71.29065040650406 51.6260162601626,71.08739837398373" fill="none" stroke="black" stroke-width="0.6"></polyline><polyline points="62.042682926829265,66.15853658536585 62.042682926829265,66.15853658536585 62.042682926829265,66.15853658536585 62.042682926829265,66.15853658536585 62.042682926829265,66.15853658536585 62.042682926829265,66.15853658536585 62.042682926829265,66.15853658536585 62.042682926829265,66.15853658536585 62.042682926829265,66.15853658536585 62.042682926829265,66.15853658536585 62.042682926829265,66.10772357723577 61.99186991869919,66.0060975609756 61.890243902439025,65.95528455284553 61.78861788617886,65.85365853658537 61.6869918699187,65.7520325203252 61.53455284552845,65.70121951219512 61.38211382113821,65.59959349593495 61.17886178861789,65.54878048780488 60.97560975609756,65.4979674796748 60.77235772357724,65.4979674796748 60.56910569105691,65.4979674796748 60.3150406504065,65.4979674796748 60.11178861788618,65.4979674796748 59.959349593495936,65.59959349593495 59.80691056910569,65.65040650406505 59.603658536585364,65.70121951219512 59.5020325203252,65.80284552845528 59.40040650406504,65.85365853658537 59.34959349593496,65.90447154471545 59.34959349593496,65.95528455284553 59.34959349593496,66.0060975609756 59.34959349593496,66.0060975609756 59.40040650406504,66.0569105691057 59.5020325203252,66.15853658536585 59.65447154471545,66.26016260162602 59.80691056910569,66.36178861788618 60.0609756097561,66.51422764227642 60.264227642276424,66.71747967479675 60.51829268292683,66.97154471544715 60.72154471544715,67.22560975609755 60.97560975609756,67.53048780487805 61.17886178861789,67.9369918699187 61.38211382113821,68.34349593495935 61.483739837398375,68.69918699186992 61.58536585365854,69.10569105691057 61.636178861788615,69.5630081300813 61.636178861788615,69.96951219512195 61.53455284552845,70.32520325203252 61.38211382113821,70.68089430894308 61.229674796747965,70.98577235772358 61.02642276422764,71.29065040650406" fill="none" stroke="black" stroke-width="0.6"></polyline><polyline points="61.02642276422764,71.29065040650406 60.77235772357724,71.54471544715447 60.56910569105691,71.64634146341463 60.36585365853659,71.69715447154472 60.16260162601626,71.69715447154472 60.0609756097561,71.54471544715447 59.959349593495936,71.29065040650406 59.90853658536585,70.9349593495935 59.90853658536585,70.52845528455285 59.959349593495936,70.1219512195122 60.0609756097561,69.66463414634146 60.264227642276424,69.20731707317073 60.46747967479675,68.69918699186992 60.823170731707314,68.14024390243902 61.1280487804878,67.6829268292683 61.38211382113821,67.27642276422765 61.636178861788615,66.92073170731707 61.78861788617886,66.76829268292683 61.890243902439025,66.61585365853658 61.9410569105691,66.46341463414635 61.9410569105691,66.41260162601625 61.9410569105691,66.3109756097561 61.99186991869919,66.20934959349593 62.042682926829265,66.15853658536585" fill="none" stroke="black" stroke-width="0.6"></polyline><polyline points="71.13821138211382,65.95528455284553 71.13821138211382,65.95528455284553 71.08739837398373,65.85365853658537 71.08739837398373,65.80284552845528 71.03658536585365,65.7520325203252 70.98577235772358,65.70121951219512 70.8841463414634,65.70121951219512 70.83333333333333,65.70121951219512 70.73170731707317,65.70121951219512 70.630081300813,65.7520325203252 70.42682926829268,65.95528455284553 70.27439024390243,66.3109756097561 70.02032520325203,66.8191056910569 69.8170731707317,67.47967479674797 69.61382113821138,68.14024390243902 69.46138211382113,68.95325203252033 69.35975609756098,69.71544715447155 69.35975609756098,70.27439024390243 69.41056910569105,70.73170731707317 69.51219512195122,71.13821138211382 69.71544715447155,71.39227642276423 69.96951219512195,71.59552845528455 70.27439024390243,71.69715447154472 70.68089430894308,71.69715447154472 71.08739837398373,71.64634146341463 71.59552845528455,71.39227642276423 72.0020325203252,71.13821138211382 72.40853658536585,70.78252032520325 72.71341463414635,70.47764227642276 72.91666666666667,70.22357723577235 73.01829268292683,69.96951219512195 73.0691056910569,69.71544715447155 72.96747967479675,69.5630081300813 72.76422764227642,69.41056910569105 72.51016260162602,69.41056910569105 72.20528455284553,69.41056910569105 71.84959349593495,69.61382113821138 71.49390243902438,69.91869918699187 71.1890243902439,70.22357723577235 70.8841463414634,70.630081300813 70.630081300813,71.08739837398373 70.47764227642276,71.49390243902438 70.42682926829268,71.84959349593495 70.42682926829268,72.05284552845528 70.57926829268293,72.10365853658537" fill="none" stroke="black" stroke-width="0.6"></polyline><polyline points="80.03048780487805,66.20934959349593 80.03048780487805,66.20934959349593 80.03048780487805,66.20934959349593 80.03048780487805,66.20934959349593 80.03048780487805,66.20934959349593 80.03048780487805,66.20934959349593 80.08130081300813,66.20934959349593 80.23373983739837,66.20934959349593 80.53861788617886,66.20934959349593 80.9451219512195,66.20934959349593 81.55487804878048,66.20934959349593 82.16463414634146,66.15853658536585 82.67276422764228,66.0569105691057 83.07926829268293,66.0569105691057 83.48577235772358,66.0569105691057 83.6890243902439,66.15853658536585 83.89227642276423,66.41260162601625 84.04471544715447,66.8191056910569 84.04471544715447,67.27642276422765 83.99390243902438,67.83536585365853 83.84146341463415,68.4451219512195 83.63821138211382,69.0040650406504 83.4349593495935,69.61382113821138 83.18089430894308,70.1219512195122 83.02845528455285,70.47764227642276 82.92682926829268,70.78252032520325 82.77439024390243,71.03658536585365 82.72357723577235,71.23983739837398 82.72357723577235,71.29065040650406 82.72357723577235,71.34146341463415 82.77439024390243,71.29065040650406 82.8760162601626,71.1890243902439" fill="none" stroke="black" stroke-width="0.6"></polyline><polyline points="89.78658536585365,66.71747967479675 89.78658536585365,66.66666666666667 89.78658536585365,66.61585365853658 89.78658536585365,66.5650406504065 89.83739837398373,66.46341463414635 90.04065040650406,66.3109756097561 90.39634146341463,66.15853658536585 90.90447154471545,66.0060975609756 91.46341463414635,65.85365853658537 91.97154471544715,65.80284552845528 92.47967479674797,65.80284552845528 92.88617886178862,65.85365853658537 93.1910569105691,66.0060975609756 93.4451219512195,66.15853658536585 93.59756097560975,66.36178861788618 93.69918699186992,66.51422764227642 93.75,66.76829268292683 93.75,66.97154471544715 93.64837398373983,67.17479674796748 93.39430894308943,67.42886178861788 93.14024390243902,67.6321138211382 92.78455284552845,67.83536585365853 92.42886178861788,67.98780487804878 92.1239837398374,68.08943089430895 91.869918699187,68.1910569105691 91.61585365853658,68.24186991869918 91.51422764227642,68.24186991869918 91.46341463414635,68.24186991869918 91.46341463414635,68.24186991869918 91.51422764227642,68.24186991869918 91.71747967479675,68.29268292682927 91.92073170731707,68.4451219512195 92.22560975609755,68.54674796747967 92.53048780487805,68.75 92.88617886178862,68.95325203252033 93.14024390243902,69.20731707317073 93.39430894308943,69.51219512195122 93.59756097560975,69.8170731707317 93.64837398373983,70.1219512195122 93.64837398373983,70.3760162601626 93.64837398373983,70.68089430894308 93.4959349593496,70.9349593495935 93.29268292682927,71.13821138211382 93.08943089430895,71.39227642276423 92.83536585365853,71.54471544715447 92.47967479674797,71.69715447154472 92.1239837398374,71.7479674796748 91.71747967479675,71.79878048780488 91.36178861788618,71.79878048780488 90.95528455284553,71.69715447154472 90.65040650406503,71.59552845528455" fill="none" stroke="black" stroke-width="0.6"></polyline><polyline points="90.65040650406503,71.59552845528455 90.39634146341463,71.54471544715447 90.1930894308943,71.4430894308943 90.09146341463415,71.4430894308943 90.04065040650406,71.39227642276423 89.98983739837398,71.34146341463415" fill="none" stroke="black" stroke-width="0.6"></polyline><polyline points="5.84349593495935,89.22764227642276 5.7926829268292686,89.22764227642276 5.691056910569106,89.17682926829268 5.640243902439024,89.17682926829268 5.640243902439024,89.1260162601626 5.589430894308943,89.1260162601626 5.589430894308943,89.07520325203252 5.589430894308943,89.02439024390243 5.691056910569106,88.92276422764228 5.84349593495935,88.71951219512195 6.097560975609756,88.46544715447155 6.3516260162601625,88.21138211382113 6.554878048780488,87.90650406504065 6.808943089430894,87.70325203252033 7.0630081300813,87.44918699186992 7.266260162601625,87.29674796747967 7.469512195121951,87.1951219512195 7.621951219512195,87.14430894308943 7.774390243902439,87.1951219512195 7.876016260162602,87.34756097560975 8.028455284552845,87.70325203252033 8.079268292682926,88.16056910569105 8.18089430894309,88.77032520325203 8.231707317073171,89.48170731707317 8.231707317073171,90.14227642276423 8.231707317073171,90.7520325203252 8.231707317073171,91.36178861788618 8.18089430894309,91.76829268292683 8.130081300813007,92.02235772357723 8.079268292682926,92.22560975609755 8.079268292682926,92.3780487804878 8.028455284552845,92.47967479674797" fill="none" stroke="black" stroke-width="0.6"></polyline><polyline points="6.7073170731707314,92.98780487804878 6.7073170731707314,93.03861788617886 6.65650406504065,93.03861788617886 6.65650406504065,93.08943089430895 6.605691056910569,93.08943089430895 6.605691056910569,93.08943089430895 6.65650406504065,93.14024390243902 6.808943089430894,93.14024390243902 7.0630081300813,93.1910569105691 7.367886178861789,93.1910569105691 7.723577235772358,93.14024390243902 8.18089430894309,93.03861788617886 8.689024390243903,92.88617886178862 9.197154471544716,92.6829268292683" fill="none" stroke="black" stroke-width="0.6"></polyline><polyline points="15.802845528455284,88.92276422764228 15.802845528455284,88.92276422764228 15.752032520325203,88.97357723577235 15.701219512195122,89.07520325203252 15.65040650406504,89.43089430894308 15.548780487804878,90.04065040650406 15.396341463414634,90.80284552845528 15.345528455284553,91.61585365853658 15.345528455284553,92.27642276422765 15.345528455284553,92.83536585365853 15.396341463414634,93.39430894308943 15.548780487804878,93.75 15.701219512195122,94.0040650406504 15.955284552845528,94.20731707317073 16.15853658536585,94.2581300813008 16.463414634146343,94.2581300813008 16.81910569105691,94.15650406504065 17.17479674796748,93.90243902439025 17.479674796747968,93.59756097560975 17.835365853658537,93.1910569105691 18.191056910569106,92.73373983739837 18.445121951219512,92.27642276422765 18.648373983739837,91.869918699187 18.75,91.51422764227642 18.75,91.20934959349593 18.69918699186992,91.0060975609756 18.546747967479675,90.95528455284553 18.29268292682927,90.95528455284553 18.089430894308943,91.15853658536585 17.835365853658537,91.51422764227642 17.632113821138212,91.92073170731707 17.428861788617887,92.3780487804878 17.276422764227643,92.88617886178862 17.17479674796748,93.34349593495935 17.1239837398374,93.85162601626016 17.1239837398374,94.20731707317073 17.327235772357724,94.41056910569105 17.428861788617887,94.46138211382113" fill="none" stroke="black" stroke-width="0.6"></polyline><polyline points="27.693089430894307,90.14227642276423 27.693089430894307,90.14227642276423 27.693089430894307,90.14227642276423 27.74390243902439,90.09146341463415 27.84552845528455,90.04065040650406 27.997967479674795,89.98983739837398 28.20121951219512,89.98983739837398 28.455284552845526,90.09146341463415 28.760162601626014,90.34552845528455 29.01422764227642,90.70121951219512 29.217479674796746,91.15853658536585 29.369918699186993,91.66666666666667 29.420731707317074,92.1239837398374 29.420731707317074,92.58130081300813 29.31910569105691,93.08943089430895 29.166666666666664,93.4451219512195 29.01422764227642,93.80081300813008 28.810975609756095,94.10569105691057 28.65853658536585,94.2581300813008 28.506097560975608,94.35975609756098 28.302845528455283,94.41056910569105 28.20121951219512,94.46138211382113 28.048780487804876,94.41056910569105 27.997967479674795,94.35975609756098 27.997967479674795,94.2581300813008 27.997967479674795,94.20731707317073 28.048780487804876,94.15650406504065 28.2520325203252,94.10569105691057 28.506097560975608,94.05487804878048 28.810975609756095,94.0040650406504 29.166666666666664,94.0040650406504 29.522357723577237,94.05487804878048 29.928861788617887,94.10569105691057 30.335365853658537,94.15650406504065 30.79268292682927,94.20731707317073" fill="none" stroke="black" stroke-width="0.6"></polyline><polyline points="38.668699186991866,90.85365853658536 38.668699186991866,90.85365853658536 38.668699186991866,90.7520325203252 38.668699186991866,90.70121951219512 38.71951219512195,90.54878048780488 38.82113821138211,90.34552845528455 39.02439024390244,90.09146341463415 39.27845528455285,89.73577235772358 39.53252032520325,89.43089430894308 39.83739837398374,89.1260162601626 40.040650406504064,88.92276422764228 40.19308943089431,88.8211382113821 40.24390243902439,88.8211382113821 40.29471544715447,88.8719512195122 40.34552845528455,89.1260162601626 40.34552845528455,89.53252032520325 40.34552845528455,90.04065040650406 40.34552845528455,90.59959349593495 40.34552845528455,91.10772357723577 40.34552845528455,91.61585365853658 40.34552845528455,92.07317073170732 40.29471544715447,92.3780487804878 40.29471544715447,92.6829268292683 40.24390243902439,92.88617886178862 40.24390243902439,93.03861788617886 40.24390243902439,93.03861788617886" fill="none" stroke="black" stroke-width="0.6"></polyline><polyline points="38.262195121951216,94.35975609756098 38.262195121951216,94.35975609756098 38.21138211382114,94.35975609756098 38.21138211382114,94.35975609756098 38.21138211382114,94.35975609756098 38.36382113821138,94.3089430894309 38.71951219512195,94.20731707317073 39.329268292682926,94.0040650406504 40.09146341463415,93.69918699186992" fill="none" stroke="black" stroke-width="0.6"></polyline><polyline points="50.762195121951216,89.98983739837398 50.762195121951216,89.98983739837398 50.8130081300813,89.98983739837398 50.8130081300813,89.98983739837398 50.86382113821138,89.98983739837398 50.86382113821138,89.98983739837398 50.86382113821138,89.98983739837398 50.91463414634146,89.98983739837398 50.91463414634146,89.98983739837398 50.91463414634146,89.98983739837398 50.91463414634146,89.98983739837398 50.86382113821138,89.98983739837398 50.8130081300813,89.9390243902439 50.66056910569105,89.9390243902439 50.45731707317073,89.88821138211382 50.203252032520325,89.88821138211382 49.89837398373984,89.88821138211382 49.49186991869919,89.9390243902439 49.136178861788615,90.04065040650406 48.83130081300813,90.1930894308943 48.52642276422764,90.34552845528455 48.42479674796748,90.54878048780488 48.3739837398374,90.80284552845528 48.47560975609756,91.10772357723577 48.729674796747965,91.41260162601625 49.08536585365854,91.71747967479675 49.49186991869919,92.02235772357723 49.796747967479675,92.27642276422765 50.15243902439024,92.53048780487805 50.45731707317073,92.78455284552845 50.66056910569105,93.03861788617886 50.762195121951216,93.29268292682927 50.86382113821138,93.59756097560975 50.86382113821138,93.80081300813008 50.762195121951216,94.05487804878048 50.66056910569105,94.2581300813008 50.50813008130081,94.35975609756098 50.30487804878049,94.46138211382113 50.05081300813008,94.51219512195122 49.84756097560975,94.51219512195122 49.59349593495935,94.35975609756098 49.4410569105691,94.15650406504065 49.28861788617886,93.90243902439025 49.23780487804878,93.54674796747967 49.23780487804878,93.1910569105691 49.390243902439025,92.83536585365853 49.59349593495935,92.42886178861788 49.949186991869915,91.92073170731707 50.355691056910565,91.51422764227642 50.86382113821138,91.0569105691057 51.27032520325203,90.70121951219512" fill="none" stroke="black" stroke-width="0.6"></polyline><polyline points="51.27032520325203,90.70121951219512 51.575203252032516,90.4471544715447 51.829268292682926,90.29471544715447 51.981707317073166,90.1930894308943 52.083333333333336,90.1930894308943 52.1849593495935,90.1930894308943 52.28658536585366,90.1930894308943" fill="none" stroke="black" stroke-width="0.6"></polyline><polyline points="59.04471544715447,89.73577235772358 58.94308943089431,89.73577235772358 58.6890243902439,89.6341463414634 58.536585365853654,89.6341463414634 58.485772357723576,89.6341463414634 58.43495934959349,89.6849593495935 58.43495934959349,89.6849593495935 58.485772357723576,89.6849593495935 58.63821138211382,89.6849593495935 58.892276422764226,89.6849593495935 59.2479674796748,89.6341463414634 59.65447154471545,89.53252032520325 60.11178861788618,89.48170731707317 60.51829268292683,89.43089430894308 60.97560975609756,89.43089430894308 61.43292682926829,89.43089430894308 61.78861788617886,89.53252032520325 62.14430894308943,89.6849593495935 62.34756097560975,89.98983739837398 62.5,90.39634146341463 62.5,90.95528455284553 62.449186991869915,91.51422764227642 62.296747967479675,92.07317073170732 62.14430894308943,92.6321138211382 61.9410569105691,93.08943089430895 61.78861788617886,93.54674796747967 61.636178861788615,93.90243902439025 61.58536585365854,94.20731707317073 61.53455284552845,94.35975609756098 61.483739837398375,94.51219512195122 61.53455284552845,94.51219512195122 61.636178861788615,94.46138211382113" fill="none" stroke="black" stroke-width="0.6"></polyline><polyline points="68.4451219512195,89.27845528455285 68.4451219512195,89.22764227642276 68.4451219512195,89.22764227642276 68.4451219512195,89.17682926829268 68.39430894308943,89.17682926829268 68.39430894308943,89.17682926829268 68.34349593495935,89.22764227642276 68.29268292682927,89.43089430894308 68.1910569105691,89.6849593495935 68.08943089430895,89.98983739837398 67.98780487804878,90.29471544715447 67.88617886178862,90.65040650406503 67.83536585365853,90.90447154471545 67.83536585365853,91.15853658536585 67.83536585365853,91.3109756097561 67.83536585365853,91.41260162601625 67.9369918699187,91.46341463414635 68.14024390243902,91.51422764227642 68.34349593495935,91.51422764227642 68.69918699186992,91.46341463414635 69.05487804878048,91.36178861788618 69.41056910569105,91.15853658536585 69.8170731707317,90.95528455284553 70.17276422764228,90.7520325203252 70.47764227642276,90.54878048780488 70.78252032520325,90.34552845528455 71.03658536585365,90.14227642276423 71.23983739837398,89.98983739837398 71.4430894308943,89.78658536585365 71.49390243902438,89.6341463414634" fill="none" stroke="black" stroke-width="0.6"></polyline><polyline points="71.49390243902438,89.1260162601626 71.49390243902438,89.07520325203252 71.49390243902438,89.07520325203252 71.4430894308943,89.07520325203252 71.4430894308943,89.02439024390243 71.4430894308943,89.02439024390243 71.39227642276423,89.1260162601626 71.34146341463415,89.380081300813 71.29065040650406,89.78658536585365 71.23983739837398,90.34552845528455 71.13821138211382,91.0569105691057 71.08739837398373,91.66666666666667 70.98577235772358,92.22560975609755 70.9349593495935,92.6829268292683 70.9349593495935,92.98780487804878 70.8841463414634,93.1910569105691 70.8841463414634,93.39430894308943 70.8841463414634,93.4959349593496 70.9349593495935,93.54674796747967 70.98577235772358,93.59756097560975 71.03658536585365,93.59756097560975 71.1890243902439,93.4959349593496 71.39227642276423,93.34349593495935" fill="none" stroke="black" stroke-width="0.6"></polyline><polyline points="79.57317073170732,88.46544715447155 79.57317073170732,88.46544715447155 79.57317073170732,88.46544715447155 79.52235772357723,88.41463414634146 79.52235772357723,88.36382113821138 79.52235772357723,88.3130081300813 79.52235772357723,88.26219512195122 79.57317073170732,88.21138211382113 79.77642276422765,88.10975609756098 79.97967479674797,88.0081300813008 80.28455284552845,87.85569105691057 80.58943089430895,87.7540650406504 80.9451219512195,87.70325203252033 81.25,87.70325203252033 81.55487804878048,87.80487804878048 81.8089430894309,88.0081300813008 82.01219512195122,88.21138211382113 82.16463414634146,88.46544715447155 82.21544715447155,88.66869918699187 82.21544715447155,88.8719512195122 82.16463414634146,89.07520325203252 82.01219512195122,89.27845528455285 81.8089430894309,89.48170731707317 81.55487804878048,89.6341463414634 81.30081300813008,89.83739837398373 81.04674796747967,89.9390243902439 80.79268292682927,90.04065040650406 80.58943089430895,90.14227642276423 80.4369918699187,90.14227642276423 80.38617886178862,90.1930894308943 80.38617886178862,90.1930894308943 80.4369918699187,90.24390243902438 80.53861788617886,90.34552845528455 80.74186991869918,90.4471544715447 80.9451219512195,90.65040650406503 81.19918699186992,90.85365853658536 81.55487804878048,91.0569105691057 81.8089430894309,91.26016260162602 82.0630081300813,91.46341463414635 82.26626016260163,91.71747967479675 82.41869918699187,91.869918699187 82.46951219512195,92.02235772357723 82.52032520325203,92.17479674796748 82.52032520325203,92.27642276422765 82.41869918699187,92.3780487804878 82.3170731707317,92.53048780487805 82.16463414634146,92.58130081300813 82.01219512195122,92.6829268292683 81.7581300813008,92.73373983739837 81.5040650406504,92.78455284552845 81.19918699186992,92.83536585365853" fill="none" stroke="black" stroke-width="0.6"></polyline><polyline points="81.19918699186992,92.83536585365853 80.89430894308943,92.83536585365853 80.58943089430895,92.83536585365853 80.38617886178862,92.83536585365853 80.1321138211382,92.83536585365853 80.03048780487805,92.78455284552845 79.97967479674797,92.78455284552845 79.92886178861788,92.78455284552845 79.92886178861788,92.78455284552845 79.97967479674797,92.78455284552845 80.08130081300813,92.73373983739837" fill="none" stroke="black" stroke-width="0.6"></polyline><polyline points="89.78658536585365,89.88821138211382 89.78658536585365,89.88821138211382 89.78658536585365,89.88821138211382 89.78658536585365,89.88821138211382 89.78658536585365,89.88821138211382 89.78658536585365,89.88821138211382 89.88821138211382,89.88821138211382 90.04065040650406,89.78658536585365 90.34552845528455,89.58333333333333 90.7520325203252,89.32926829268293 91.20934959349593,88.97357723577235 91.71747967479675,88.5670731707317 92.1239837398374,88.21138211382113 92.42886178861788,88.0081300813008 92.58130081300813,87.90650406504065 92.6321138211382,87.85569105691057 92.6829268292683,87.85569105691057 92.6829268292683,87.95731707317073 92.6829268292683,88.16056910569105 92.6829268292683,88.5670731707317 92.6321138211382,89.02439024390243 92.58130081300813,89.53252032520325 92.47967479674797,90.04065040650406 92.42886178861788,90.54878048780488 92.32723577235772,91.0569105691057 92.27642276422765,91.41260162601625 92.27642276422765,91.76829268292683 92.22560975609755,92.02235772357723 92.22560975609755,92.17479674796748 92.22560975609755,92.27642276422765 92.17479674796748,92.3780487804878 92.1239837398374,92.3780487804878 92.02235772357723,92.3780487804878" fill="none" stroke="black" stroke-width="0.6"></polyline><polyline points="91.46341463414635,92.27642276422765 91.36178861788618,92.27642276422765 91.15853658536585,92.27642276422765 90.95528455284553,92.27642276422765 90.7520325203252,92.27642276422765 90.65040650406503,92.27642276422765 90.54878048780488,92.32723577235772 90.4979674796748,92.3780487804878 90.4979674796748,92.42886178861788 90.59959349593495,92.53048780487805 90.80284552845528,92.6321138211382 91.10772357723577,92.73373983739837 91.61585365853658,92.78455284552845 92.17479674796748,92.83536585365853 92.78455284552845,92.83536585365853 93.39430894308943,92.83536585365853 94.0040650406504,92.83536585365853 94.5630081300813,92.88617886178862" fill="none" stroke="black" stroke-width="0.6"></polyline></svg>