<svg height="100" width="100" preserveAspectRatio="xMidYMid meet"><polyline points="40.040650406504064,34.552845528455286 39.88821138211382,34.552845528455286 39.6849593495935,34.5020325203252 39.53252032520325,34.451219512195124 39.38008130081301,34.451219512195124 39.176829268292686,34.40040650406504 38.97357723577235,34.34959349593496 38.77032520325203,34.298780487804876 38.5670731707317,34.2479674796748 38.36382113821138,34.197154471544714 38.16056910569105,34.146341463414636 37.95731707317073,34.146341463414636 37.80487804878049,34.197154471544714 37.60162601626016,34.298780487804876 37.5,34.5020325203252 37.39837398373984,34.75609756097561 37.296747967479675,34.959349593495936 37.296747967479675,35.16260162601626 37.296747967479675,35.36585365853659 37.39837398373984,35.46747967479675 37.55081300813008,35.51829268292683 37.7540650406504,35.51829268292683 38.05894308943089,35.46747967479675 38.41463414634146,35.16260162601626 38.922764227642276,34.65447154471545 39.53252032520325,33.892276422764226 40.34552845528455,32.926829268292686 41.3109756097561,31.60569105691057 42.3780487804878,30.182926829268293 43.24186991869919,29.01422764227642 44.0040650406504,27.896341463414632 44.86788617886179,26.676829268292682 45.579268292682926,25.660569105691057 46.239837398373986,24.745934959349594 46.7479674796748,24.085365853658537 47.0020325203252,23.577235772357724 47.103658536585364,23.170731707317074 47.103658536585364,22.916666666666668 47.052845528455286,22.764227642276424 46.951219512195124,22.71341463414634 46.7479674796748,22.71341463414634 46.49390243902439,22.71341463414634 46.08739837398374,23.01829268292683 45.42682926829268,23.577235772357724 44.766260162601625,24.288617886178862 44.05487804878049,25 43.39430894308943,25.8130081300813 42.78455284552845,26.57520325203252 42.327235772357724,27.33739837398374 41.86991869918699,28.099593495934958 41.514227642276424,28.861788617886177" fill="none" stroke="black" stroke-width="0.6"></polyline><polyline points="41.514227642276424,28.861788617886177 41.107723577235774,29.6239837398374 40.701219512195124,30.4369918699187 40.34552845528455,31.19918699186992 40.09146341463415,31.859756097560975 39.88821138211382,32.57113821138211 39.735772357723576,33.23170731707317 39.63414634146341,33.84146341463415 39.63414634146341,34.40040650406504 39.6849593495935,34.90853658536585 39.83739837398374,35.3150406504065 39.989837398373986,35.670731707317074 40.19308943089431,35.97560975609756 40.447154471544714,36.28048780487805 40.701219512195124,36.483739837398375 41.05691056910569,36.58536585365854 41.41260162601626,36.58536585365854 41.81910569105691,36.53455284552845 42.27642276422764,36.28048780487805 42.83536585365854,35.8739837398374 43.39430894308943,35.46747967479675 43.85162601626016,35.11178861788618 44.20731707317073,34.857723577235774 44.41056910569105,34.70528455284553 44.46138211382114,34.65447154471545 44.512195121951216,34.603658536585364 44.512195121951216,34.603658536585364 44.512195121951216,34.603658536585364 44.46138211382114,34.65447154471545 44.46138211382114,34.65447154471545 44.41056910569105,34.65447154471545 44.41056910569105,34.70528455284553 44.41056910569105,34.70528455284553 44.41056910569105,34.70528455284553 44.41056910569105,34.70528455284553 44.41056910569105,34.70528455284553 44.41056910569105,34.70528455284553 44.41056910569105,34.70528455284553 44.41056910569105,34.75609756097561 44.46138211382114,34.75609756097561 44.46138211382114,34.75609756097561 44.46138211382114,34.75609756097561 44.46138211382114,34.75609756097561 44.46138211382114,34.75609756097561 44.46138211382114,34.75609756097561 44.46138211382114,34.75609756097561 44.46138211382114,34.75609756097561 44.46138211382114,34.75609756097561 44.46138211382114,34.75609756097561 44.46138211382114,34.75609756097561 44.46138211382114,34.75609756097561" fill="none" stroke="black" stroke-width="0.6"></polyline><polyline points="44.46138211382114,34.75609756097561 44.46138211382114,34.75609756097561 44.46138211382114,34.75609756097561 44.46138211382114,34.75609756097561 44.46138211382114,34.75609756097561 44.46138211382114,34.75609756097561 44.46138211382114,34.75609756097561 44.46138211382114,34.75609756097561 44.46138211382114,34.75609756097561 44.46138211382114,34.75609756097561 44.46138211382114,34.75609756097561 44.46138211382114,34.75609756097561 44.46138211382114,34.75609756097561 44.46138211382114,34.75609756097561 44.46138211382114,34.75609756097561 44.46138211382114,34.75609756097561 44.46138211382114,34.75609756097561 44.46138211382114,34.75609756097561 44.46138211382114,34.75609756097561 44.46138211382114,34.75609756097561 44.46138211382114,34.75609756097561 44.46138211382114,34.75609756097561 44.46138211382114,34.75609756097561 44.46138211382114,34.75609756097561 44.46138211382114,34.75609756097561 44.46138211382114,34.75609756097561 44.46138211382114,34.75609756097561 44.46138211382114,34.75609756097561 44.46138211382114,34.75609756097561 44.46138211382114,34.75609756097561 44.46138211382114,34.75609756097561 44.512195121951216,34.75609756097561 44.61382113821138,34.70528455284553 44.86788617886179,34.603658536585364 45.27439024390244,34.34959349593496 45.78252032520325,33.94308943089431 46.44308943089431,33.485772357723576 47.052845528455286,32.97764227642276 47.66260162601626,32.418699186991866 48.11991869918699,31.910569105691057 48.52642276422764,31.402439024390244 48.78048780487805,30.945121951219512 48.88211382113821,30.640243902439025 48.983739837398375,30.38617886178862 48.983739837398375,30.182926829268293 48.983739837398375,29.979674796747968 48.93292682926829,29.827235772357724 48.83130081300813,29.776422764227643 48.6280487804878,29.776422764227643 48.3739837398374,29.776422764227643 48.06910569105691,29.928861788617887" fill="none" stroke="black" stroke-width="0.6"></polyline><polyline points="48.06910569105691,29.928861788617887 47.66260162601626,30.233739837398375 47.15447154471545,30.589430894308943 46.646341463414636,30.995934959349594 46.1890243902439,31.453252032520325 45.73170731707317,31.910569105691057 45.42682926829268,32.36788617886179 45.172764227642276,32.77439024390244 45.02032520325203,33.18089430894309 44.918699186991866,33.485772357723576 44.86788617886179,33.790650406504064 44.8170731707317,34.09552845528455 44.8170731707317,34.40040650406504 44.86788617886179,34.65447154471545 45.02032520325203,34.90853658536585 45.22357723577235,35.11178861788618 45.47764227642276,35.21341463414634 45.833333333333336,35.36585365853659 46.1890243902439,35.416666666666664 46.59552845528455,35.416666666666664 47.103658536585364,35.416666666666664 47.5609756097561,35.36585365853659 48.06910569105691,35.21341463414634 48.577235772357724,35.0609756097561 48.983739837398375,34.90853658536585 49.33943089430894,34.75609756097561 49.59349593495935,34.65447154471545 49.796747967479675,34.603658536585364 49.89837398373984,34.552845528455286 49.949186991869915,34.552845528455286 50,34.552845528455286 50,34.552845528455286 50,34.552845528455286 49.949186991869915,34.552845528455286 49.949186991869915,34.552845528455286 49.949186991869915,34.552845528455286 49.89837398373984,34.552845528455286 49.89837398373984,34.552845528455286 49.89837398373984,34.552845528455286 49.89837398373984,34.552845528455286 49.89837398373984,34.552845528455286 49.89837398373984,34.552845528455286 49.89837398373984,34.552845528455286 49.89837398373984,34.552845528455286 49.89837398373984,34.552845528455286 49.89837398373984,34.552845528455286 49.89837398373984,34.552845528455286 49.89837398373984,34.552845528455286 49.89837398373984,34.552845528455286 49.89837398373984,34.552845528455286 49.89837398373984,34.552845528455286" fill="none" stroke="black" stroke-width="0.6"></polyline><polyline points="49.89837398373984,34.552845528455286 49.89837398373984,34.552845528455286 49.89837398373984,34.552845528455286 49.89837398373984,34.552845528455286 49.89837398373984,34.552845528455286 49.89837398373984,34.552845528455286 49.89837398373984,34.552845528455286 49.89837398373984,34.552845528455286 49.89837398373984,34.552845528455286 49.89837398373984,34.552845528455286 49.89837398373984,34.552845528455286 49.89837398373984,34.552845528455286 49.89837398373984,34.552845528455286 49.89837398373984,34.552845528455286 49.89837398373984,34.552845528455286 49.89837398373984,34.552845528455286 49.89837398373984,34.552845528455286 49.89837398373984,34.552845528455286 49.89837398373984,34.552845528455286 49.89837398373984,34.552845528455286 49.89837398373984,34.552845528455286 49.89837398373984,34.552845528455286 49.89837398373984,34.552845528455286 49.89837398373984,34.552845528455286 49.89837398373984,34.552845528455286 49.89837398373984,34.552845528455286 49.89837398373984,34.552845528455286 49.89837398373984,34.552845528455286 49.89837398373984,34.552845528455286 49.89837398373984,34.552845528455286 49.89837398373984,34.552845528455286 49.89837398373984,34.552845528455286 49.89837398373984,34.552845528455286 49.89837398373984,34.552845528455286 49.89837398373984,34.552845528455286 49.89837398373984,34.552845528455286 49.89837398373984,34.552845528455286 49.89837398373984,34.552845528455286 49.89837398373984,34.552845528455286 49.89837398373984,34.552845528455286 49.89837398373984,34.552845528455286 49.89837398373984,34.552845528455286 49.89837398373984,34.552845528455286 49.89837398373984,34.552845528455286 49.89837398373984,34.552845528455286 49.89837398373984,34.552845528455286 49.89837398373984,34.552845528455286 49.89837398373984,34.552845528455286 49.89837398373984,34.552845528455286 49.89837398373984,34.552845528455286 49.89837398373984,34.552845528455286" fill="none" stroke="black" stroke-width="0.6"></polyline><polyline points="49.89837398373984,34.552845528455286 49.89837398373984,34.552845528455286" fill="none" stroke="black" stroke-width="0.6"></polyline><polyline points="31.859756097560975,54.979674796747965 31.859756097560975,54.979674796747965 31.758130081300813,54.979674796747965 31.70731707317073,54.979674796747965 31.70731707317073,54.92886178861789 31.70731707317073,54.92886178861789 31.70731707317073,54.92886178861789 31.859756097560975,54.979674796747965 32.0630081300813,54.979674796747965 32.3170731707317,54.92886178861789 32.672764227642276,54.827235772357724 33.079268292682926,54.573170731707314 33.6890243902439,54.11585365853659 34.34959349593496,53.50609756097561 35.0609756097561,52.69308943089431 35.8739837398374,51.77845528455284 36.58536585365854,50.86382113821138 37.34756097560975,49.89837398373984 38.109756097560975,48.78048780487805 38.87195121951219,47.71341463414634 39.6849593495935,46.54471544715447 40.34552845528455,45.52845528455285 40.95528455284553,44.512195121951216 41.514227642276424,43.59756097560975 41.81910569105691,42.98780487804878 41.920731707317074,42.53048780487805 41.920731707317074,42.27642276422764 41.86991869918699,42.17479674796748 41.61585365853659,42.17479674796748 41.209349593495936,42.27642276422764 40.59959349593496,42.63211382113821 39.83739837398374,43.1910569105691 39.07520325203252,43.85162601626016 38.41463414634146,44.41056910569105 37.855691056910565,45.07113821138211 37.19512195121951,45.833333333333336 36.73780487804878,46.54471544715447 36.33130081300813,47.20528455284553 35.97560975609756,47.916666666666664 35.72154471544715,48.47560975609756 35.56910569105691,49.08536585365854 35.36585365853659,49.74593495934959 35.264227642276424,50.30487804878049 35.264227642276424,50.86382113821138 35.21341463414634,51.422764227642276 35.264227642276424,51.981707317073166 35.36585365853659,52.540650406504064 35.51829268292683,53.2520325203252 35.670731707317074,53.760162601626014 35.92479674796748,54.26829268292683 36.17886178861789,54.72560975609756" fill="none" stroke="black" stroke-width="0.6"></polyline><polyline points="36.17886178861789,54.72560975609756 36.483739837398375,54.979674796747965 36.83943089430894,55.13211382113821 37.19512195121951,55.233739837398375 37.55081300813008,55.233739837398375 37.95731707317073,55.233739837398375 38.46544715447154,55.03048780487805 39.02439024390244,54.6239837398374 39.63414634146341,54.0650406504065 40.34552845528455,53.353658536585364 41.05691056910569,52.69308943089431 41.81910569105691,51.981707317073166 42.58130081300813,51.21951219512195 43.292682926829265,50.50813008130081 43.953252032520325,49.84756097560975 44.5630081300813,49.23780487804878 44.96951219512195,48.78048780487805 45.27439024390244,48.47560975609756 45.47764227642276,48.22154471544715 45.579268292682926,47.96747967479675 45.63008130081301,47.71341463414634 45.63008130081301,47.510162601626014 45.63008130081301,47.357723577235774 45.52845528455285,47.20528455284553 45.42682926829268,47.103658536585364 45.27439024390244,47.052845528455286 45.12195121951219,47.0020325203252 44.86788617886179,47.0020325203252 44.61382113821138,47.0020325203252 44.30894308943089,47.15447154471545 43.90243902439024,47.357723577235774 43.59756097560975,47.5609756097561 43.24186991869919,47.86585365853659 42.886178861788615,48.170731707317074 42.53048780487805,48.52642276422764 42.22560975609756,48.93292682926829 41.86991869918699,49.4410569105691 41.61585365853659,50.10162601626016 41.3109756097561,50.8130081300813 41.05691056910569,51.52439024390244 40.853658536585364,52.13414634146341 40.7520325203252,52.69308943089431 40.701219512195124,53.048780487804876 40.701219512195124,53.353658536585364 40.7520325203252,53.65853658536585 40.90447154471545,53.8109756097561 41.107723577235774,53.96341463414634 41.41260162601626,54.0650406504065 41.71747967479675,54.11585365853659 42.1239837398374,54.11585365853659 42.58130081300813,54.014227642276424" fill="none" stroke="black" stroke-width="0.6"></polyline><polyline points="42.58130081300813,54.014227642276424 43.08943089430894,53.8109756097561 43.699186991869915,53.55691056910569 44.41056910569105,53.2520325203252 45.02032520325203,52.947154471544714 45.68089430894309,52.69308943089431 46.392276422764226,52.38821138211382 46.951219512195124,52.13414634146341 47.510162601626014,51.93089430894309 48.01829268292683,51.77845528455284 48.42479674796748,51.6260162601626 48.78048780487805,51.575203252032516 49.136178861788615,51.47357723577235 49.390243902439025,51.47357723577235 49.59349593495935,51.422764227642276 49.796747967479675,51.37195121951219 49.949186991869915,51.37195121951219 50,51.32113821138211 50.05081300813008,51.32113821138211 50.05081300813008,51.32113821138211 50.05081300813008,51.32113821138211 50.05081300813008,51.32113821138211 50.05081300813008,51.32113821138211 50.05081300813008,51.32113821138211 50.05081300813008,51.32113821138211 50.05081300813008,51.32113821138211 50.05081300813008,51.32113821138211 50.05081300813008,51.422764227642276 50.05081300813008,51.47357723577235" fill="none" stroke="black" stroke-width="0.6"></polyline><polyline points="38.71951219512195,16.971544715447155 38.668699186991866,16.971544715447155 38.516260162601625,16.971544715447155 38.46544715447154,16.971544715447155 38.41463414634146,16.971544715447155 38.41463414634146,16.971544715447155 38.41463414634146,16.971544715447155 38.516260162601625,16.920731707317074 38.77032520325203,16.71747967479675 39.176829268292686,16.36178861788618 39.78658536585366,15.752032520325203 40.447154471544714,15.040650406504065 41.15853658536585,14.176829268292682 41.97154471544715,13.262195121951219 42.78455284552845,12.195121951219512 43.59756097560975,11.229674796747966 44.41056910569105,10.111788617886178 45.22357723577235,9.044715447154472 45.985772357723576,7.977642276422764 46.697154471544714,7.012195121951219 47.30691056910569,6.199186991869919 47.71341463414634,5.538617886178861 48.06910569105691,4.928861788617886 48.27235772357724,4.420731707317073 48.3739837398374,4.014227642276422 48.42479674796748,3.709349593495935 48.3739837398374,3.4552845528455283 48.22154471544715,3.3028455284552845 48.01829268292683,3.1504065040650406 47.71341463414634,3.0995934959349594 47.357723577235774,3.0995934959349594 46.84959349593496,3.252032520325203 46.34146341463415,3.5060975609756095 45.833333333333336,3.861788617886179 45.325203252032516,4.319105691056911 44.766260162601625,4.8272357723577235 44.25813008130081,5.335365853658536 43.80081300813008,5.945121951219512 43.34349593495935,6.65650406504065 42.98780487804878,7.367886178861789 42.58130081300813,8.079268292682926 42.27642276422764,8.841463414634147 41.920731707317074,9.603658536585366 41.5650406504065,10.365853658536585 41.260162601626014,11.026422764227641 41.05691056910569,11.6869918699187 40.802845528455286,12.347560975609756 40.701219512195124,12.90650406504065 40.65040650406504,13.414634146341463 40.65040650406504,13.973577235772357 40.65040650406504,14.380081300813007" fill="none" stroke="black" stroke-width="0.6"></polyline><polyline points="40.65040650406504,14.380081300813007 40.701219512195124,14.786585365853659 40.802845528455286,15.19308943089431 41.00609756097561,15.447154471544716 41.260162601626014,15.65040650406504 41.5650406504065,15.802845528455284 41.920731707317074,15.853658536585366 42.3780487804878,15.853658536585366 42.98780487804878,15.701219512195122 43.64837398373984,15.447154471544716 44.41056910569105,15.040650406504065 45.22357723577235,14.53252032520325 45.985772357723576,14.024390243902438 46.697154471544714,13.617886178861788 47.40853658536585,13.160569105691057 47.916666666666664,12.754065040650406 48.3739837398374,12.347560975609756 48.78048780487805,11.941056910569106 49.1869918699187,11.585365853658537 49.59349593495935,11.229674796747966 50.05081300813008,10.823170731707316 50.30487804878049,10.518292682926829 50.50813008130081,10.264227642276422 50.66056910569105,10.010162601626016 50.71138211382114,9.857723577235772 50.762195121951216,9.75609756097561 50.762195121951216,9.654471544715447 50.762195121951216,9.552845528455284 50.71138211382114,9.451219512195122 50.66056910569105,9.40040650406504 50.55894308943089,9.34959349593496 50.45731707317073,9.247967479674797 50.30487804878049,9.197154471544716 50.10162601626016,9.197154471544716 49.84756097560975,9.197154471544716 49.49186991869919,9.247967479674797 49.136178861788615,9.40040650406504 48.729674796747965,9.552845528455284 48.323170731707314,9.80691056910569 48.01829268292683,10.060975609756097 47.66260162601626,10.416666666666666 47.30691056910569,10.772357723577235 47.052845528455286,11.178861788617885 46.798780487804876,11.585365853658537 46.54471544715447,11.991869918699187 46.290650406504064,12.449186991869919 46.03658536585366,12.90650406504065 45.78252032520325,13.363821138211382 45.52845528455285,13.770325203252032 45.27439024390244,14.176829268292682 45.07113821138211,14.53252032520325" fill="none" stroke="black" stroke-width="0.6"></polyline><polyline points="45.07113821138211,14.53252032520325 44.918699186991866,14.83739837398374 44.86788617886179,15.142276422764228 44.8170731707317,15.447154471544716 44.8170731707317,15.65040650406504 44.918699186991866,15.802845528455284 45.172764227642276,15.955284552845528 45.47764227642276,16.006097560975608 45.985772357723576,16.05691056910569 46.646341463414636,16.006097560975608 47.40853658536585,15.802845528455284 48.3739837398374,15.497967479674797 49.23780487804878,15.19308943089431 50,14.939024390243903 50.762195121951216,14.684959349593496 51.21951219512195,14.53252032520325 51.575203252032516,14.48170731707317 51.880081300813,14.430894308943088 51.981707317073166,14.430894308943088 52.083333333333336,14.430894308943088 52.13414634146341,14.430894308943088 52.13414634146341,14.430894308943088 52.13414634146341,14.430894308943088 52.13414634146341,14.430894308943088 52.13414634146341,14.430894308943088 52.083333333333336,14.430894308943088 52.083333333333336,14.430894308943088 52.083333333333336,14.430894308943088 52.083333333333336,14.430894308943088 52.083333333333336,14.430894308943088 52.083333333333336,14.430894308943088 52.13414634146341,14.53252032520325" fill="none" stroke="black" stroke-width="0.6"></polyline><polyline points="35.11178861788618,75.10162601626016 34.90853658536585,75.05081300813008 34.70528455284553,75 34.5020325203252,75 34.40040650406504,74.94918699186992 34.298780487804876,74.94918699186992 34.298780487804876,74.94918699186992 34.2479674796748,74.94918699186992 34.2479674796748,74.94918699186992 34.2479674796748,74.94918699186992 34.2479674796748,74.94918699186992 34.298780487804876,75 34.34959349593496,75.05081300813008 34.451219512195124,75.10162601626016 34.603658536585364,75.20325203252033 34.857723577235774,75.20325203252033 35.16260162601626,75.20325203252033 35.56910569105691,75.05081300813008 36.1280487804878,74.6951219512195 36.83943089430894,73.98373983739837 37.703252032520325,73.01829268292683 38.5670731707317,71.84959349593495 39.43089430894309,70.73170731707317 40.142276422764226,69.71544715447155 40.802845528455286,68.64837398373983 41.46341463414634,67.58130081300813 41.97154471544715,66.5650406504065 42.42886178861789,65.65040650406505 42.733739837398375,64.98983739837398 42.886178861788615,64.43089430894308 42.9369918699187,64.1260162601626 42.9369918699187,63.97357723577235 42.83536585365854,63.87195121951219 42.68292682926829,63.77032520325203 42.42886178861789,63.77032520325203 42.1239837398374,63.77032520325203 41.666666666666664,63.922764227642276 41.107723577235774,64.22764227642276 40.4979674796748,64.73577235772358 39.83739837398374,65.29471544715447 39.22764227642276,65.90447154471545 38.668699186991866,66.51422764227642 38.05894308943089,67.27642276422765 37.5,67.98780487804878 36.99186991869919,68.75 36.483739837398375,69.5630081300813 36.077235772357724,70.27439024390243 35.72154471544715,70.9349593495935 35.416666666666664,71.59552845528455 35.21341463414634,72.20528455284553 35.0609756097561,72.76422764227642" fill="none" stroke="black" stroke-width="0.6"></polyline><polyline points="35.0609756097561,72.76422764227642 35.010162601626014,73.27235772357723 35.010162601626014,73.72967479674797 35.11178861788618,74.13617886178862 35.3150406504065,74.49186991869918 35.51829268292683,74.7459349593496 35.77235772357724,74.89837398373983 36.077235772357724,75.10162601626016 36.43292682926829,75.15243902439025 36.78861788617886,75.20325203252033 37.296747967479675,75.20325203252033 37.703252032520325,75.20325203252033 38.262195121951216,75 38.922764227642276,74.79674796747967 39.48170731707317,74.59349593495935 40.09146341463415,74.33943089430895 40.7520325203252,74.03455284552845 41.3109756097561,73.78048780487805 41.86991869918699,73.47560975609755 42.479674796747965,73.119918699187 42.98780487804878,72.76422764227642 43.49593495934959,72.35772357723577 44.05487804878049,71.90040650406505 44.512195121951216,71.39227642276423 44.96951219512195,70.8841463414634 45.42682926829268,70.32520325203252 45.833333333333336,69.76626016260163 46.1890243902439,69.20731707317073 46.54471544715447,68.59756097560975 46.798780487804876,68.14024390243902 47.0020325203252,67.78455284552845 47.052845528455286,67.58130081300813 47.103658536585364,67.42886178861788 47.103658536585364,67.3780487804878 47.103658536585364,67.32723577235772 47.052845528455286,67.32723577235772 47.0020325203252,67.32723577235772 46.951219512195124,67.27642276422765 46.84959349593496,67.27642276422765 46.697154471544714,67.32723577235772 46.392276422764226,67.53048780487805 45.9349593495935,67.88617886178862 45.42682926829268,68.34349593495935 44.918699186991866,68.75 44.46138211382114,69.20731707317073 44.0040650406504,69.61382113821138 43.49593495934959,70.1219512195122 43.08943089430894,70.52845528455285 42.78455284552845,70.9349593495935 42.42886178861789,71.39227642276423 42.17479674796748,71.84959349593495" fill="none" stroke="black" stroke-width="0.6"></polyline><polyline points="42.17479674796748,71.84959349593495 41.920731707317074,72.2560975609756 41.666666666666664,72.66260162601625 41.5650406504065,72.96747967479675 41.514227642276424,73.22154471544715 41.46341463414634,73.52642276422765 41.46341463414634,73.8821138211382 41.514227642276424,74.1869918699187 41.666666666666664,74.39024390243902 41.81910569105691,74.59349593495935 42.02235772357724,74.79674796747967 42.27642276422764,74.94918699186992 42.53048780487805,75.10162601626016 42.886178861788615,75.2540650406504 43.1910569105691,75.35569105691057 43.59756097560975,75.40650406504065 44.05487804878049,75.45731707317073 44.5630081300813,75.45731707317073 45.12195121951219,75.40650406504065 45.73170731707317,75.30487804878048 46.290650406504064,75.2540650406504 46.84959349593496,75.15243902439025 47.459349593495936,75.05081300813008 47.916666666666664,75 48.323170731707314,74.89837398373983 48.78048780487805,74.84756097560975 49.136178861788615,74.7459349593496 49.4410569105691,74.64430894308943 49.74593495934959,74.54268292682927 49.949186991869915,74.49186991869918 50.15243902439024,74.4410569105691 50.30487804878049,74.39024390243902 50.45731707317073,74.33943089430895 50.50813008130081,74.33943089430895 50.55894308943089,74.33943089430895 50.55894308943089,74.33943089430895 50.609756097560975,74.4410569105691" fill="none" stroke="black" stroke-width="0.6"></polyline><polyline points="34.451219512195124,95.57926829268293 34.34959349593496,95.47764227642276 34.2479674796748,95.42682926829268 34.146341463414636,95.3760162601626 34.09552845528455,95.32520325203252 34.09552845528455,95.32520325203252 34.09552845528455,95.32520325203252 34.09552845528455,95.32520325203252 34.09552845528455,95.32520325203252 34.09552845528455,95.32520325203252 34.146341463414636,95.32520325203252 34.2479674796748,95.27439024390243 34.451219512195124,95.17276422764228 34.70528455284553,95.02032520325203 35.0609756097561,94.71544715447155 35.56910569105691,94.2581300813008 36.229674796747965,93.4959349593496 36.99186991869919,92.47967479674797 37.855691056910565,91.3109756097561 38.61788617886179,90.09146341463415 39.43089430894309,88.8719512195122 40.19308943089431,87.55081300813008 40.90447154471545,86.28048780487805 41.5650406504065,85.11178861788618 42.02235772357724,84.09552845528455 42.27642276422764,83.33333333333333 42.42886178861789,82.72357723577235 42.479674796747965,82.26626016260163 42.42886178861789,81.96138211382113 42.22560975609756,81.8089430894309 42.02235772357724,81.70731707317073 41.666666666666664,81.70731707317073 41.209349593495936,81.91056910569105 40.59959349593496,82.36788617886178 39.88821138211382,82.92682926829268 39.1260162601626,83.63821138211382 38.41463414634146,84.40040650406503 37.703252032520325,85.16260162601625 37.042682926829265,86.02642276422765 36.33130081300813,86.89024390243902 35.77235772357724,87.7540650406504 35.3150406504065,88.41463414634146 35.010162601626014,89.02439024390243 34.80691056910569,89.6341463414634 34.603658536585364,90.29471544715447 34.451219512195124,90.95528455284553 34.34959349593496,91.5650406504065 34.34959349593496,92.1239837398374 34.40040650406504,92.6321138211382 34.603658536585364,93.14024390243902 34.857723577235774,93.69918699186992" fill="none" stroke="black" stroke-width="0.6"></polyline><polyline points="34.857723577235774,93.69918699186992 35.264227642276424,94.10569105691057 35.72154471544715,94.41056910569105 36.28048780487805,94.61382113821138 36.78861788617886,94.66463414634146 37.39837398373984,94.66463414634146 38.00813008130081,94.66463414634146 38.5670731707317,94.51219512195122 39.1260162601626,94.35975609756098 39.735772357723576,94.10569105691057 40.24390243902439,93.90243902439025 40.802845528455286,93.64837398373983 41.3109756097561,93.39430894308943 41.76829268292683,93.1910569105691 42.17479674796748,92.98780487804878 42.68292682926829,92.78455284552845 43.08943089430894,92.6321138211382 43.49593495934959,92.42886178861788 43.90243902439024,92.22560975609755 44.25813008130081,91.97154471544715 44.61382113821138,91.71747967479675 44.96951219512195,91.36178861788618 45.27439024390244,90.95528455284553 45.579268292682926,90.4979674796748 45.88414634146341,89.98983739837398 46.08739837398374,89.58333333333333 46.239837398373986,89.1260162601626 46.34146341463415,88.66869918699187 46.392276422764226,88.3130081300813 46.392276422764226,88.0081300813008 46.392276422764226,87.7540650406504 46.290650406504064,87.55081300813008 46.13821138211382,87.39837398373983 45.985772357723576,87.2459349593496 45.833333333333336,87.14430894308943 45.63008130081301,87.09349593495935 45.3760162601626,87.09349593495935 45.12195121951219,87.14430894308943 44.766260162601625,87.34756097560975 44.41056910569105,87.55081300813008 44.0040650406504,87.90650406504065 43.59756097560975,88.36382113821138 43.140243902439025,88.92276422764228 42.733739837398375,89.43089430894308 42.27642276422764,90.04065040650406 41.86991869918699,90.65040650406503 41.5650406504065,91.15853658536585 41.3109756097561,91.61585365853658 41.107723577235774,92.07317073170732 40.95528455284553,92.42886178861788 40.90447154471545,92.78455284552845" fill="none" stroke="black" stroke-width="0.6"></polyline><polyline points="40.90447154471545,92.78455284552845 40.853658536585364,93.1910569105691 40.853658536585364,93.54674796747967 40.853658536585364,93.85162601626016 40.95528455284553,94.20731707317073 41.15853658536585,94.51219512195122 41.41260162601626,94.76626016260163 41.71747967479675,94.96951219512195 42.1239837398374,95.1219512195122 42.58130081300813,95.17276422764228 43.1910569105691,95.17276422764228 43.80081300813008,95.02032520325203 44.5630081300813,94.71544715447155 45.3760162601626,94.3089430894309 46.290650406504064,93.75 47.357723577235774,93.08943089430895 48.27235772357724,92.53048780487805 49.23780487804878,91.97154471544715 50.10162601626016,91.51422764227642 50.8130081300813,91.15853658536585 51.47357723577235,90.85365853658536 52.083333333333336,90.54878048780488 52.540650406504064,90.34552845528455 52.947154471544714,90.14227642276423 53.40447154471545,89.9390243902439 53.8109756097561,89.73577235772358 54.166666666666664,89.53252032520325 54.52235772357724,89.32926829268293 54.72560975609756,89.17682926829268 54.8780487804878,89.07520325203252 54.92886178861789,89.02439024390243 54.92886178861789,89.02439024390243 54.92886178861789,89.02439024390243 54.92886178861789,89.02439024390243 54.8780487804878,89.02439024390243 54.77642276422764,88.97357723577235 54.6239837398374,88.97357723577235 54.52235772357724,88.97357723577235 54.47154471544715,89.02439024390243 54.36991869918699,89.02439024390243 54.36991869918699,89.02439024390243 54.36991869918699,89.02439024390243 54.420731707317074,89.02439024390243 54.77642276422764,88.8211382113821" fill="none" stroke="black" stroke-width="0.6"></polyline></svg>