<svg height="100" width="100" preserveAspectRatio="xMidYMid meet"><polyline points="49.69512195121951,50.71138211382114 49.69512195121951,50.71138211382114 49.69512195121951,50.66056910569105 49.69512195121951,50.66056910569105 49.69512195121951,50.609756097560975 49.74593495934959,50.609756097560975 49.74593495934959,50.55894308943089 49.796747967479675,50.55894308943089 49.796747967479675,50.55894308943089 49.84756097560975,50.55894308943089 49.84756097560975,50.55894308943089 49.84756097560975,50.55894308943089 49.89837398373984,50.55894308943089 49.89837398373984,50.55894308943089" fill="none" stroke="black" stroke-width="0.6"></polyline><polyline points="50,50.15243902439024 50,50.15243902439024 49.949186991869915,50.10162601626016 49.949186991869915,50.10162601626016 49.89837398373984,50.05081300813008 49.84756097560975,50.05081300813008 49.84756097560975,50 49.796747967479675,50 49.796747967479675,50 49.796747967479675,50 49.796747967479675,50 49.74593495934959,50 49.74593495934959,50.10162601626016 49.74593495934959,50.203252032520325 49.74593495934959,50.40650406504065 49.74593495934959,50.609756097560975 49.74593495934959,50.86382113821138 49.74593495934959,51.11788617886179 49.84756097560975,51.37195121951219 49.89837398373984,51.575203252032516 50,51.77845528455284 50.10162601626016,51.93089430894309 50.2540650406504,52.03252032520325 50.355691056910565,52.13414634146341 50.45731707317073,52.13414634146341 50.609756097560975,52.1849593495935 50.762195121951216,52.1849593495935 50.91463414634146,52.13414634146341 51.0670731707317,52.03252032520325 51.32113821138211,51.880081300813 51.52439024390244,51.72764227642276 51.77845528455284,51.52439024390244 51.981707317073166,51.37195121951219 52.1849593495935,51.27032520325203 52.33739837398374,51.11788617886179 52.540650406504064,51.016260162601625 52.642276422764226,50.91463414634146 52.79471544715447,50.762195121951216 52.896341463414636,50.66056910569105 52.9979674796748,50.50813008130081 53.09959349593496,50.30487804878049 53.201219512195124,50.10162601626016 53.302845528455286,49.89837398373984 53.40447154471545,49.64430894308943 53.50609756097561,49.4410569105691 53.55691056910569,49.23780487804878 53.607723577235774,49.03455284552845 53.607723577235774,48.93292682926829 53.607723577235774,48.78048780487805 53.607723577235774,48.67886178861789 53.607723577235774,48.52642276422764" fill="none" stroke="black" stroke-width="0.6"></polyline><polyline points="53.607723577235774,48.52642276422764 53.55691056910569,48.42479674796748 53.50609756097561,48.27235772357724 53.45528455284553,48.170731707317074 53.353658536585364,48.06910569105691 53.201219512195124,47.96747967479675 53.09959349593496,47.86585365853659 52.947154471544714,47.8150406504065 52.79471544715447,47.71341463414634 52.59146341463415,47.61178861788618 52.4390243902439,47.5609756097561 52.235772357723576,47.510162601626014 52.03252032520325,47.459349593495936 51.829268292682926,47.40853658536585 51.575203252032516,47.357723577235774 51.37195121951219,47.30691056910569 51.11788617886179,47.30691056910569 50.8130081300813,47.30691056910569 50.50813008130081,47.30691056910569 50.203252032520325,47.40853658536585 49.89837398373984,47.459349593495936 49.59349593495935,47.5609756097561 49.28861788617886,47.71341463414634 48.93292682926829,47.86585365853659 48.67886178861789,48.01829268292683 48.42479674796748,48.170731707317074 48.170731707317074,48.323170731707314 47.96747967479675,48.47560975609756 47.8150406504065,48.67886178861789 47.61178861788618,48.83130081300813 47.459349593495936,48.983739837398375 47.30691056910569,49.1869918699187 47.15447154471545,49.390243902439025 47.0020325203252,49.59349593495935 46.90040650406504,49.796747967479675 46.798780487804876,50 46.7479674796748,50.203252032520325 46.7479674796748,50.40650406504065 46.697154471544714,50.66056910569105 46.697154471544714,50.86382113821138 46.697154471544714,51.11788617886179 46.697154471544714,51.32113821138211 46.7479674796748,51.52439024390244 46.84959349593496,51.72764227642276 46.90040650406504,51.93089430894309 46.951219512195124,52.083333333333336 47.052845528455286,52.235772357723576 47.15447154471545,52.38821138211382 47.20528455284553,52.489837398373986 47.25609756097561,52.642276422764226 47.357723577235774,52.69308943089431" fill="none" stroke="black" stroke-width="0.6"></polyline><polyline points="47.357723577235774,52.69308943089431 47.40853658536585,52.79471544715447 47.459349593495936,52.896341463414636 47.510162601626014,52.947154471544714 47.5609756097561,52.9979674796748 47.61178861788618,53.048780487804876 47.61178861788618,53.09959349593496 47.66260162601626,53.201219512195124 47.71341463414634,53.2520325203252 47.764227642276424,53.302845528455286 47.8150406504065,53.353658536585364 47.8150406504065,53.40447154471545 47.86585365853659,53.45528455284553 47.916666666666664,53.50609756097561 48.01829268292683,53.55691056910569 48.06910569105691,53.607723577235774 48.11991869918699,53.65853658536585 48.170731707317074,53.709349593495936 48.27235772357724,53.760162601626014 48.323170731707314,53.760162601626014 48.42479674796748,53.86178861788618 48.52642276422764,53.91260162601626 48.6280487804878,53.96341463414634 48.729674796747965,54.014227642276424 48.83130081300813,54.11585365853659 48.983739837398375,54.166666666666664 49.136178861788615,54.26829268292683 49.28861788617886,54.31910569105691 49.4410569105691,54.31910569105691 49.64430894308943,54.36991869918699 49.89837398373984,54.36991869918699 50.15243902439024,54.36991869918699 50.45731707317073,54.36991869918699 50.762195121951216,54.31910569105691 51.11788617886179,54.26829268292683 51.47357723577235,54.166666666666664 51.77845528455284,54.0650406504065 52.13414634146341,53.96341463414634 52.489837398373986,53.86178861788618 52.84552845528455,53.709349593495936 53.15040650406504,53.607723577235774 53.50609756097561,53.40447154471545 53.86178861788618,53.2520325203252 54.166666666666664,53.09959349593496 54.47154471544715,52.947154471544714 54.72560975609756,52.74390243902439 54.979674796747965,52.540650406504064 55.233739837398375,52.235772357723576 55.53861788617886,51.981707317073166 55.74186991869919,51.72764227642276 55.94512195121951,51.422764227642276" fill="none" stroke="black" stroke-width="0.6"></polyline><polyline points="55.94512195121951,51.422764227642276 56.14837398373984,51.168699186991866 56.30081300813008,50.86382113821138 56.5040650406504,50.55894308943089 56.65650406504065,50.30487804878049 56.75813008130081,50 56.80894308943089,49.69512195121951 56.859756097560975,49.49186991869919 56.91056910569105,49.23780487804878 56.91056910569105,49.03455284552845 56.91056910569105,48.88211382113821 56.859756097560975,48.67886178861789 56.70731707317073,48.42479674796748 56.5040650406504,48.22154471544715 56.25,48.01829268292683 55.94512195121951,47.8150406504065 55.58943089430894,47.66260162601626 55.233739837398375,47.459349593495936 54.92886178861789,47.30691056910569 54.6239837398374,47.15447154471545 54.31910569105691,47.0020325203252 54.014227642276424,46.84959349593496 53.709349593495936,46.646341463414636 53.40447154471545,46.392276422764226 53.09959349593496,46.1890243902439 52.84552845528455,45.985772357723576 52.59146341463415,45.78252032520325 52.38821138211382,45.579268292682926 52.13414634146341,45.3760162601626 51.829268292682926,45.22357723577235 51.575203252032516,45.12195121951219 51.32113821138211,45.07113821138211 51.0670731707317,44.96951219512195 50.86382113821138,44.96951219512195 50.55894308943089,44.918699186991866 50.2540650406504,44.918699186991866 50,44.918699186991866 49.69512195121951,44.96951219512195 49.33943089430894,45.07113821138211 49.03455284552845,45.12195121951219 48.78048780487805,45.22357723577235 48.42479674796748,45.3760162601626 48.06910569105691,45.579268292682926 47.71341463414634,45.833333333333336 47.357723577235774,46.08739837398374 47.103658536585364,46.290650406504064 46.90040650406504,46.49390243902439 46.646341463414636,46.697154471544714 46.44308943089431,46.951219512195124 46.239837398373986,47.20528455284553 46.08739837398374,47.510162601626014" fill="none" stroke="black" stroke-width="0.6"></polyline><polyline points="46.08739837398374,47.510162601626014 45.9349593495935,47.86585365853659 45.78252032520325,48.22154471544715 45.68089430894309,48.577235772357724 45.579268292682926,48.983739837398375 45.42682926829268,49.390243902439025 45.27439024390244,49.84756097560975 45.12195121951219,50.30487804878049 45.02032520325203,50.71138211382114 44.86788617886179,51.168699186991866 44.766260162601625,51.575203252032516 44.71544715447154,51.93089430894309 44.66463414634146,52.28658536585366 44.66463414634146,52.59146341463415 44.66463414634146,52.947154471544714 44.66463414634146,53.302845528455286 44.66463414634146,53.65853658536585 44.66463414634146,54.014227642276424 44.66463414634146,54.36991869918699 44.71544715447154,54.67479674796748 44.766260162601625,54.979674796747965 44.86788617886179,55.33536585365854 44.918699186991866,55.58943089430894 45.02032520325203,55.84349593495935 45.12195121951219,56.09756097560975 45.27439024390244,56.35162601626016 45.3760162601626,56.55487804878049 45.579268292682926,56.80894308943089 45.73170731707317,57.0630081300813 45.88414634146341,57.21544715447154 46.08739837398374,57.418699186991866 46.290650406504064,57.57113821138211 46.54471544715447,57.72357723577235 46.798780487804876,57.8760162601626 47.052845528455286,57.97764227642276 47.357723577235774,58.079268292682926 47.71341463414634,58.18089430894309 48.06910569105691,58.231707317073166 48.42479674796748,58.28252032520325 48.78048780487805,58.28252032520325 49.136178861788615,58.33333333333333 49.59349593495935,58.33333333333333 50,58.28252032520325 50.45731707317073,58.231707317073166 50.96544715447154,58.130081300813 51.47357723577235,57.97764227642276 51.981707317073166,57.825203252032516 52.540650406504064,57.62195121951219 53.048780487804876,57.418699186991866 53.50609756097561,57.21544715447154 54.0650406504065,56.96138211382114" fill="none" stroke="black" stroke-width="0.6"></polyline><polyline points="54.0650406504065,56.96138211382114 54.573170731707314,56.70731707317073 55.08130081300813,56.453252032520325 55.640243902439025,56.14837398373984 56.14837398373984,55.89430894308943 56.65650406504065,55.58943089430894 57.21544715447154,55.233739837398375 57.77439024390244,54.8780487804878 58.28252032520325,54.47154471544715 58.739837398373986,54.11585365853659 59.09552845528455,53.8109756097561 59.40040650406504,53.50609756097561 59.75609756097561,53.09959349593496 60.0609756097561,52.74390243902439 60.3150406504065,52.38821138211382 60.51829268292683,52.03252032520325 60.670731707317074,51.72764227642276 60.77235772357724,51.37195121951219 60.8739837398374,51.016260162601625 60.92479674796748,50.71138211382114 60.92479674796748,50.355691056910565 60.92479674796748,50 60.8739837398374,49.69512195121951 60.77235772357724,49.390243902439025 60.56910569105691,49.136178861788615 60.3150406504065,48.88211382113821 60.0609756097561,48.6280487804878 59.70528455284553,48.42479674796748 59.40040650406504,48.22154471544715 59.09552845528455,48.01829268292683 58.84146341463415,47.764227642276424 58.58739837398374,47.5609756097561 58.38414634146341,47.30691056910569 58.18089430894309,47.052845528455286 57.97764227642276,46.7479674796748 57.77439024390244,46.49390243902439 57.52032520325203,46.13821138211382 57.3170731707317,45.833333333333336 57.11382113821138,45.52845528455285 56.91056910569105,45.27439024390244 56.65650406504065,45.02032520325203 56.453252032520325,44.766260162601625 56.199186991869915,44.5630081300813 55.94512195121951,44.359756097560975 55.6910569105691,44.15650406504065 55.386178861788615,43.953252032520325 55.13211382113821,43.75 54.8780487804878,43.546747967479675 54.6239837398374,43.39430894308943 54.36991869918699,43.24186991869919 54.166666666666664,43.140243902439025" fill="none" stroke="black" stroke-width="0.6"></polyline><polyline points="54.166666666666664,43.140243902439025 53.91260162601626,43.03861788617886 53.709349593495936,42.9369918699187 53.45528455284553,42.886178861788615 53.15040650406504,42.78455284552845 52.84552845528455,42.78455284552845 52.540650406504064,42.733739837398375 52.235772357723576,42.733739837398375 51.829268292682926,42.733739837398375 51.37195121951219,42.733739837398375 50.91463414634146,42.83536585365854 50.40650406504065,42.9369918699187 50,43.03861788617886 49.64430894308943,43.140243902439025 49.23780487804878,43.24186991869919 48.78048780487805,43.39430894308943 48.3739837398374,43.59756097560975 47.916666666666664,43.85162601626016 47.40853658536585,44.105691056910565 47.103658536585364,44.30894308943089 46.798780487804876,44.512195121951216 46.49390243902439,44.66463414634146 46.1890243902439,44.86788617886179 45.88414634146341,45.02032520325203 45.579268292682926,45.22357723577235 45.3760162601626,45.42682926829268 45.172764227642276,45.63008130081301 44.918699186991866,45.88414634146341 44.66463414634146,46.13821138211382 44.41056910569105,46.49390243902439 44.05487804878049,46.84959349593496 43.80081300813008,47.20528455284553 43.546747967479675,47.5609756097561 43.24186991869919,48.01829268292683 42.9369918699187,48.52642276422764 42.63211382113821,48.983739837398375 42.327235772357724,49.4410569105691 42.073170731707314,49.84756097560975 41.81910569105691,50.30487804878049 41.61585365853659,50.8130081300813 41.41260162601626,51.21951219512195 41.209349593495936,51.6260162601626 41.05691056910569,52.03252032520325 40.90447154471545,52.4390243902439 40.802845528455286,52.84552845528455 40.701219512195124,53.2520325203252 40.65040650406504,53.607723577235774 40.59959349593496,53.96341463414634 40.548780487804876,54.420731707317074 40.548780487804876,54.827235772357724 40.548780487804876,55.28455284552845" fill="none" stroke="black" stroke-width="0.6"></polyline><polyline points="40.548780487804876,55.28455284552845 40.548780487804876,55.6910569105691 40.59959349593496,56.046747967479675 40.701219512195124,56.453252032520325 40.802845528455286,56.859756097560975 40.95528455284553,57.3170731707317 41.05691056910569,57.77439024390244 41.260162601626014,58.18089430894309 41.46341463414634,58.536585365853654 41.666666666666664,58.892276422764226 41.97154471544715,59.2479674796748 42.27642276422764,59.603658536585364 42.63211382113821,59.90853658536585 43.03861788617886,60.21341463414634 43.44512195121951,60.56910569105691 43.90243902439024,60.8739837398374 44.359756097560975,61.17886178861789 44.8170731707317,61.43292682926829 45.325203252032516,61.6869918699187 45.833333333333336,61.890243902439025 46.34146341463415,62.042682926829265 46.90040650406504,62.14430894308943 47.459349593495936,62.24593495934959 48.01829268292683,62.24593495934959 48.729674796747965,62.19512195121951 49.33943089430894,62.042682926829265 50,61.890243902439025 50.71138211382114,61.636178861788615 51.37195121951219,61.38211382113821 52.1849593495935,61.02642276422764 52.9979674796748,60.670731707317074 53.709349593495936,60.3150406504065 54.420731707317074,60.010162601626014 55.03048780487805,59.75609756097561 55.58943089430894,59.451219512195124 56.199186991869915,59.146341463414636 56.80894308943089,58.739837398373986 57.418699186991866,58.28252032520325 58.02845528455284,57.825203252032516 58.63821138211382,57.36788617886179 59.09552845528455,56.91056910569105 59.552845528455286,56.40243902439024 60.0609756097561,55.84349593495935 60.46747967479675,55.386178861788615 60.92479674796748,54.827235772357724 61.33130081300813,54.21747967479675 61.636178861788615,53.709349593495936 61.83943089430894,53.302845528455286 62.042682926829265,52.84552845528455 62.09349593495935,52.489837398373986 62.14430894308943,52.13414634146341" fill="none" stroke="black" stroke-width="0.6"></polyline><polyline points="62.14430894308943,52.13414634146341 62.14430894308943,51.77845528455284 62.14430894308943,51.37195121951219 62.14430894308943,51.016260162601625 62.09349593495935,50.66056910569105 61.9410569105691,50.2540650406504 61.83943089430894,49.84756097560975 61.636178861788615,49.390243902439025 61.483739837398375,48.983739837398375 61.38211382113821,48.52642276422764 61.229674796747965,48.01829268292683 61.1280487804878,47.459349593495936 61.077235772357724,46.951219512195124 61.02642276422764,46.44308943089431 60.97560975609756,45.985772357723576 60.92479674796748,45.52845528455285 60.823170731707314,45.12195121951219 60.77235772357724,44.71544715447154 60.670731707317074,44.359756097560975 60.51829268292683,43.953252032520325 60.36585365853659,43.59756097560975 60.21341463414634,43.24186991869919 60.010162601626014,42.886178861788615 59.80691056910569,42.63211382113821 59.603658536585364,42.3780487804878 59.34959349593496,42.1239837398374 59.09552845528455,41.920731707317074 58.84146341463415,41.666666666666664 58.536585365853654,41.46341463414634 58.231707317073166,41.260162601626014 57.92682926829268,41.05691056910569 57.57113821138211,40.90447154471545 57.21544715447154,40.7520325203252 56.859756097560975,40.65040650406504 56.453252032520325,40.548780487804876 55.99593495934959,40.447154471544714 55.53861788617886,40.34552845528455 55.03048780487805,40.29471544715447 54.52235772357724,40.19308943089431 53.91260162601626,40.09146341463415 53.302845528455286,40.040650406504064 52.74390243902439,39.989837398373986 52.13414634146341,39.989837398373986 51.52439024390244,39.989837398373986 50.91463414634146,39.989837398373986 50.2540650406504,39.989837398373986 49.64430894308943,40.040650406504064 49.03455284552845,40.142276422764226 48.3739837398374,40.24390243902439 47.764227642276424,40.396341463414636 47.103658536585364,40.548780487804876" fill="none" stroke="black" stroke-width="0.6"></polyline><polyline points="47.103658536585364,40.548780487804876 46.392276422764226,40.701219512195124 45.833333333333336,40.90447154471545 45.172764227642276,41.15853658536585 44.41056910569105,41.46341463414634 43.80081300813008,41.71747967479675 43.140243902439025,42.02235772357724 42.479674796747965,42.327235772357724 41.920731707317074,42.63211382113821 41.36178861788618,42.886178861788615 40.853658536585364,43.1910569105691 40.396341463414636,43.49593495934959 39.989837398373986,43.80081300813008 39.583333333333336,44.105691056910565 39.27845528455285,44.41056910569105 38.922764227642276,44.766260162601625 38.5670731707317,45.07113821138211 38.262195121951216,45.3760162601626 37.95731707317073,45.73170731707317 37.65243902439024,46.13821138211382 37.39837398373984,46.44308943089431 37.14430894308943,46.7479674796748 36.890243902439025,47.103658536585364 36.636178861788615,47.510162601626014 36.38211382113821,47.916666666666664 36.229674796747965,48.22154471544715 36.1280487804878,48.52642276422764 35.97560975609756,48.88211382113821 35.8739837398374,49.23780487804878 35.72154471544715,49.64430894308943 35.56910569105691,50.05081300813008 35.46747967479675,50.55894308943089 35.3150406504065,50.96544715447154 35.21341463414634,51.37195121951219 35.16260162601626,51.77845528455284 35.0609756097561,52.13414634146341 35.010162601626014,52.540650406504064 35.010162601626014,52.947154471544714 35.010162601626014,53.302845528455286 34.959349593495936,53.709349593495936 34.959349593495936,54.166666666666664 34.959349593495936,54.573170731707314 34.959349593495936,55.03048780487805 35.010162601626014,55.53861788617886 35.11178861788618,55.99593495934959 35.21341463414634,56.453252032520325 35.3150406504065,56.96138211382114 35.46747967479675,57.46951219512195 35.61991869918699,57.92682926829268 35.823170731707314,58.38414634146341 36.02642276422764,58.84146341463415" fill="none" stroke="black" stroke-width="0.6"></polyline><polyline points="36.02642276422764,58.84146341463415 36.28048780487805,59.298780487804876 36.53455284552845,59.75609756097561 36.83943089430894,60.16260162601626 37.19512195121951,60.56910569105691 37.55081300813008,61.02642276422764 37.90650406504065,61.43292682926829 38.36382113821138,61.890243902439025 38.82113821138211,62.296747967479675 39.329268292682926,62.703252032520325 39.88821138211382,63.109756097560975 40.4979674796748,63.516260162601625 41.15853658536585,63.82113821138211 41.920731707317074,64.1260162601626 42.63211382113821,64.380081300813 43.44512195121951,64.53252032520325 44.359756097560975,64.6341463414634 45.22357723577235,64.6849593495935 46.239837398373986,64.6849593495935 47.30691056910569,64.58333333333333 48.323170731707314,64.48170731707317 49.33943089430894,64.32926829268293 50.45731707317073,64.07520325203252 51.47357723577235,63.82113821138211 52.540650406504064,63.516260162601625 53.709349593495936,63.109756097560975 54.72560975609756,62.7540650406504 55.74186991869919,62.34756097560975 56.80894308943089,61.9410569105691 57.77439024390244,61.53455284552845 58.739837398373986,61.02642276422764 59.75609756097561,60.51829268292683 60.670731707317074,60.010162601626014 61.53455284552845,59.451219512195124 62.24593495934959,58.94308943089431 62.7540650406504,58.485772357723576 63.21138211382114,58.02845528455284 63.61788617886179,57.52032520325203 63.97357723577235,56.96138211382114 64.32926829268293,56.40243902439024 64.6341463414634,55.792682926829265 64.9390243902439,55.13211382113821 65.14227642276423,54.52235772357724 65.34552845528455,53.86178861788618 65.54878048780488,53.201219512195124 65.70121951219512,52.489837398373986 65.85365853658537,51.77845528455284 65.95528455284553,51.11788617886179 66.0060975609756,50.45731707317073 66.0569105691057,49.74593495934959 66.0569105691057,49.136178861788615" fill="none" stroke="black" stroke-width="0.6"></polyline><polyline points="66.0569105691057,49.136178861788615 66.0569105691057,48.47560975609756 66.0060975609756,47.764227642276424 65.95528455284553,47.15447154471545 65.85365853658537,46.49390243902439 65.7520325203252,45.833333333333336 65.59959349593495,45.172764227642276 65.44715447154472,44.512195121951216 65.29471544715447,43.80081300813008 65.14227642276423,43.140243902439025 64.9390243902439,42.479674796747965 64.73577235772358,41.81910569105691 64.48170731707317,41.209349593495936 64.17682926829268,40.59959349593496 63.87195121951219,39.989837398373986 63.516260162601625,39.48170731707317 63.05894308943089,38.97357723577235 62.60162601626016,38.5670731707317 62.042682926829265,38.16056910569105 61.43292682926829,37.855691056910565 60.72154471544715,37.55081300813008 60.0609756097561,37.296747967479675 59.298780487804876,37.09349593495935 58.536585365853654,36.9410569105691 57.77439024390244,36.78861788617886 56.96138211382114,36.6869918699187 56.09756097560975,36.636178861788615 55.233739837398375,36.58536585365854 54.26829268292683,36.58536585365854 53.302845528455286,36.58536585365854 52.38821138211382,36.636178861788615 51.37195121951219,36.78861788617886 50.40650406504065,36.9410569105691 49.390243902439025,37.19512195121951 48.323170731707314,37.5 47.40853658536585,37.80487804878049 46.44308943089431,38.109756097560975 45.3760162601626,38.516260162601625 44.46138211382114,38.922764227642276 43.49593495934959,39.43089430894309 42.479674796747965,39.989837398373986 41.666666666666664,40.4979674796748 40.802845528455286,41.05691056910569 39.9390243902439,41.666666666666664 39.27845528455285,42.22560975609756 38.61788617886179,42.78455284552845 37.95731707317073,43.34349593495935 37.39837398373984,43.90243902439024 36.83943089430894,44.512195121951216 36.229674796747965,45.07113821138211 35.77235772357724,45.52845528455285" fill="none" stroke="black" stroke-width="0.6"></polyline><polyline points="35.77235772357724,45.52845528455285 35.3150406504065,46.08739837398374 34.90853658536585,46.646341463414636 34.552845528455286,47.103658536585364 34.197154471544714,47.61178861788618 33.892276422764226,48.11991869918699 33.63821138211382,48.67886178861789 33.4349593495935,49.136178861788615 33.28252032520325,49.64430894308943 33.13008130081301,50.10162601626016 33.02845528455285,50.609756097560975 32.8760162601626,51.11788617886179 32.82520325203252,51.6260162601626 32.77439024390244,52.083333333333336 32.72357723577236,52.540650406504064 32.72357723577236,53.048780487804876 32.72357723577236,53.50609756097561 32.77439024390244,54.0650406504065 32.77439024390244,54.573170731707314 32.82520325203252,55.08130081300813 32.926829268292686,55.640243902439025 32.97764227642276,56.09756097560975 33.079268292682926,56.605691056910565 33.18089430894309,57.16463414634146 33.28252032520325,57.72357723577235 33.38414634146341,58.231707317073166 33.53658536585366,58.790650406504064 33.6890243902439,59.298780487804876 33.892276422764226,59.857723577235774 34.09552845528455,60.36585365853659 34.34959349593496,60.823170731707314 34.603658536585364,61.33130081300813 34.857723577235774,61.78861788617886 35.16260162601626,62.24593495934959 35.46747967479675,62.703252032520325 35.77235772357724,63.21138211382114 36.1280487804878,63.668699186991866 36.53455284552845,64.1260162601626 36.890243902439025,64.58333333333333 37.296747967479675,64.9390243902439 37.7540650406504,65.34552845528455 38.21138211382114,65.7520325203252 38.668699186991866,66.10772357723577 39.176829268292686,66.41260162601625 39.735772357723576,66.71747967479675 40.24390243902439,66.97154471544715 40.853658536585364,67.22560975609755 41.46341463414634,67.47967479674797 42.073170731707314,67.6829268292683 42.78455284552845,67.83536585365853 43.44512195121951,67.98780487804878" fill="none" stroke="black" stroke-width="0.6"></polyline><polyline points="43.44512195121951,67.98780487804878 44.15650406504065,68.08943089430895 44.96951219512195,68.14024390243902 45.68089430894309,68.1910569105691 46.49390243902439,68.24186991869918 47.357723577235774,68.24186991869918 48.11991869918699,68.24186991869918 48.983739837398375,68.1910569105691 49.89837398373984,68.08943089430895 50.762195121951216,67.98780487804878 51.67682926829268,67.83536585365853 52.69308943089431,67.6321138211382 53.55691056910569,67.42886178861788 54.47154471544715,67.22560975609755 55.4369918699187,66.97154471544715 56.25,66.76829268292683 57.11382113821138,66.46341463414635 58.079268292682926,66.10772357723577 58.94308943089431,65.7520325203252 59.857723577235774,65.39634146341463 60.823170731707314,64.9390243902439 61.6869918699187,64.53252032520325 62.60162601626016,64.07520325203252 63.5670731707317,63.5670731707317 64.380081300813,63.109756097560975 65.1930894308943,62.55081300813008 66.0569105691057,61.99186991869919 66.71747967479675,61.53455284552845 67.42886178861788,60.97560975609756 68.08943089430895,60.416666666666664 68.59756097560975,59.959349593495936 69.10569105691057,59.5020325203252 69.5630081300813,58.99390243902439 69.91869918699187,58.58739837398374 70.22357723577235,58.18089430894309 70.57926829268293,57.77439024390244 70.83333333333333,57.3170731707317 71.1890243902439,56.859756097560975 71.49390243902438,56.40243902439024 71.7479674796748,55.94512195121951 72.10365853658537,55.4369918699187 72.35772357723577,54.979674796747965 72.5609756097561,54.6239837398374 72.76422764227642,54.11585365853659 73.01829268292683,53.607723577235774 73.32317073170732,53.15040650406504 73.52642276422765,52.74390243902439 73.72967479674797,52.28658536585366 73.8821138211382,51.880081300813 73.98373983739837,51.52439024390244 74.08536585365853,51.21951219512195" fill="none" stroke="black" stroke-width="0.6"></polyline><polyline points="74.08536585365853,51.21951219512195 74.13617886178862,50.96544715447154 74.1869918699187,50.66056910569105 74.1869918699187,50.40650406504065 74.23780487804878,50.15243902439024 74.23780487804878,49.949186991869915 74.28861788617886,49.74593495934959 74.28861788617886,49.542682926829265 74.28861788617886,49.390243902439025 74.33943089430895,49.28861788617886 74.39024390243902,49.136178861788615 74.39024390243902,49.03455284552845 74.4410569105691,48.88211382113821 74.49186991869918,48.78048780487805 74.54268292682927,48.67886178861789 74.59349593495935,48.6280487804878 74.64430894308943,48.52642276422764 74.6951219512195,48.47560975609756 74.6951219512195,48.47560975609756 74.6951219512195,48.42479674796748 74.6951219512195,48.42479674796748 74.6951219512195,48.42479674796748 74.6951219512195,48.42479674796748 74.6951219512195,48.42479674796748 74.6951219512195,48.42479674796748 74.6951219512195,48.42479674796748 74.6951219512195,48.42479674796748 74.6951219512195,48.42479674796748 74.6951219512195,48.42479674796748 74.6951219512195,48.42479674796748 74.6951219512195,48.42479674796748 74.6951219512195,48.42479674796748 74.6951219512195,48.42479674796748 74.6951219512195,48.42479674796748 74.6951219512195,48.42479674796748 74.6951219512195,48.42479674796748 74.6951219512195,48.42479674796748 74.6951219512195,48.42479674796748 74.6951219512195,48.42479674796748 74.6951219512195,48.42479674796748 74.6951219512195,48.42479674796748 74.6951219512195,48.42479674796748 74.6951219512195,48.42479674796748 74.6951219512195,48.42479674796748 74.6951219512195,48.42479674796748 74.6951219512195,48.42479674796748 74.6951219512195,48.42479674796748 74.6951219512195,48.42479674796748 74.6951219512195,48.42479674796748 74.6951219512195,48.42479674796748 74.6951219512195,48.42479674796748" fill="none" stroke="black" stroke-width="0.6"></polyline><polyline points="74.6951219512195,48.42479674796748 74.6951219512195,48.42479674796748 74.6951219512195,48.42479674796748 74.6951219512195,48.42479674796748 74.6951219512195,48.42479674796748 74.7459349593496,48.42479674796748 74.7459349593496,48.42479674796748 74.84756097560975,48.47560975609756 74.94918699186992,48.47560975609756 75.15243902439025,48.47560975609756 75.40650406504065,48.52642276422764 75.66056910569105,48.52642276422764 75.96544715447155,48.577235772357724 76.21951219512195,48.6280487804878 76.42276422764228,48.6280487804878 76.57520325203252,48.67886178861789 76.67682926829268,48.729674796747965 76.77845528455285,48.729674796747965 76.82926829268293,48.729674796747965 76.880081300813,48.78048780487805 76.880081300813,48.78048780487805 76.880081300813,48.78048780487805 76.880081300813,48.78048780487805 76.880081300813,48.78048780487805 76.880081300813,48.78048780487805 76.880081300813,48.78048780487805 76.880081300813,48.78048780487805 76.880081300813,48.78048780487805 76.880081300813,48.78048780487805 76.880081300813,48.78048780487805 76.880081300813,48.78048780487805 76.880081300813,48.78048780487805 76.880081300813,48.78048780487805 76.880081300813,48.78048780487805 76.880081300813,48.78048780487805 76.880081300813,48.78048780487805 76.880081300813,48.78048780487805 76.880081300813,48.78048780487805 76.82926829268293,48.78048780487805 76.82926829268293,48.78048780487805 76.82926829268293,48.78048780487805 76.82926829268293,48.78048780487805 76.82926829268293,48.78048780487805 76.82926829268293,48.78048780487805 76.82926829268293,48.78048780487805 76.82926829268293,48.78048780487805 76.82926829268293,48.78048780487805 76.82926829268293,48.78048780487805 76.82926829268293,48.78048780487805 76.82926829268293,48.78048780487805 76.77845528455285,48.78048780487805" fill="none" stroke="black" stroke-width="0.6"></polyline><polyline points="76.77845528455285,48.78048780487805 76.77845528455285,48.78048780487805 76.77845528455285,48.78048780487805 76.77845528455285,48.729674796747965 76.77845528455285,48.729674796747965 76.77845528455285,48.729674796747965 76.77845528455285,48.729674796747965 76.77845528455285,48.729674796747965 76.77845528455285,48.729674796747965 76.77845528455285,48.729674796747965 76.77845528455285,48.729674796747965 76.72764227642276,48.729674796747965 76.72764227642276,48.729674796747965 76.72764227642276,48.729674796747965 76.72764227642276,48.67886178861789 76.72764227642276,48.67886178861789 76.72764227642276,48.67886178861789 76.72764227642276,48.67886178861789" fill="none" stroke="black" stroke-width="0.6"></polyline></svg>