<svg height="100" width="100" preserveAspectRatio="xMidYMid meet"><polyline points="49.949186991869915,50.762195121951216 49.949186991869915,50.762195121951216 49.949186991869915,50.762195121951216 49.949186991869915,50.762195121951216 49.949186991869915,50.762195121951216 49.949186991869915,50.762195121951216 49.949186991869915,50.762195121951216 49.949186991869915,50.762195121951216 49.949186991869915,50.762195121951216 49.949186991869915,50.762195121951216 49.949186991869915,50.71138211382114 49.949186991869915,50.71138211382114 49.949186991869915,50.66056910569105 49.949186991869915,50.609756097560975 50,50.55894308943089 50,50.45731707317073 50.05081300813008,50.40650406504065 50.10162601626016,50.30487804878049 50.10162601626016,50.203252032520325 50.15243902439024,50.10162601626016 50.203252032520325,50 50.203252032520325,49.89837398373984 50.2540650406504,49.796747967479675 50.2540650406504,49.69512195121951 50.2540650406504,49.64430894308943 50.2540650406504,49.542682926829265 50.2540650406504,49.49186991869919 50.2540650406504,49.390243902439025 50.2540650406504,49.33943089430894 50.2540650406504,49.23780487804878 50.2540650406504,49.1869918699187 50.2540650406504,49.136178861788615 50.2540650406504,49.03455284552845 50.203252032520325,48.93292682926829 50.203252032520325,48.88211382113821 50.203252032520325,48.78048780487805 50.15243902439024,48.729674796747965 50.10162601626016,48.6280487804878 50.05081300813008,48.577235772357724 50,48.47560975609756 49.89837398373984,48.3739837398374 49.84756097560975,48.323170731707314 49.74593495934959,48.22154471544715 49.64430894308943,48.170731707317074 49.59349593495935,48.11991869918699 49.49186991869919,48.06910569105691 49.4410569105691,48.01829268292683 49.33943089430894,48.01829268292683 49.28861788617886,48.01829268292683 49.1869918699187,48.01829268292683 49.136178861788615,47.96747967479675" fill="none" stroke="black" stroke-width="0.6"></polyline><polyline points="49.136178861788615,47.96747967479675 49.08536585365854,47.96747967479675 48.983739837398375,47.96747967479675 48.93292682926829,47.96747967479675 48.88211382113821,47.96747967479675 48.83130081300813,48.01829268292683 48.78048780487805,48.01829268292683 48.729674796747965,48.01829268292683 48.67886178861789,48.06910569105691 48.6280487804878,48.11991869918699 48.577235772357724,48.170731707317074 48.47560975609756,48.22154471544715 48.3739837398374,48.323170731707314 48.27235772357724,48.42479674796748 48.22154471544715,48.52642276422764 48.170731707317074,48.577235772357724 48.11991869918699,48.67886178861789 48.01829268292683,48.83130081300813 47.916666666666664,48.983739837398375 47.8150406504065,49.136178861788615 47.66260162601626,49.33943089430894 47.5609756097561,49.49186991869919 47.459349593495936,49.64430894308943 47.357723577235774,49.84756097560975 47.25609756097561,50 47.15447154471545,50.15243902439024 47.052845528455286,50.30487804878049 46.951219512195124,50.45731707317073 46.90040650406504,50.609756097560975 46.84959349593496,50.8130081300813 46.798780487804876,50.86382113821138 46.7479674796748,50.96544715447154 46.697154471544714,51.11788617886179 46.646341463414636,51.37195121951219 46.59552845528455,51.52439024390244 46.59552845528455,51.72764227642276 46.54471544715447,51.981707317073166 46.54471544715447,52.1849593495935 46.49390243902439,52.33739837398374 46.44308943089431,52.84552845528455 46.44308943089431,53.09959349593496 46.44308943089431,53.353658536585364 46.44308943089431,53.607723577235774 46.49390243902439,53.8109756097561 46.59552845528455,54.014227642276424 46.646341463414636,54.166666666666664 46.7479674796748,54.31910569105691 46.84959349593496,54.420731707317074 47.0020325203252,54.52235772357724 47.103658536585364,54.573170731707314 47.20528455284553,54.67479674796748" fill="none" stroke="black" stroke-width="0.6"></polyline><polyline points="47.20528455284553,54.67479674796748 47.30691056910569,54.77642276422764 47.40853658536585,54.8780487804878 47.5609756097561,54.92886178861789 47.66260162601626,55.03048780487805 47.8150406504065,55.08130081300813 47.916666666666664,55.13211382113821 47.96747967479675,55.18292682926829 48.11991869918699,55.233739837398375 48.27235772357724,55.28455284552845 48.47560975609756,55.33536585365854 48.67886178861789,55.386178861788615 48.88211382113821,55.386178861788615 49.08536585365854,55.4369918699187 49.28861788617886,55.4369918699187 49.49186991869919,55.4369918699187 49.74593495934959,55.4369918699187 50.05081300813008,55.4369918699187 50.355691056910565,55.386178861788615 50.609756097560975,55.33536585365854 50.86382113821138,55.28455284552845 51.0670731707317,55.28455284552845 51.21951219512195,55.28455284552845 51.37195121951219,55.233739837398375 51.52439024390244,55.233739837398375 51.67682926829268,55.18292682926829 51.880081300813,55.13211382113821 52.03252032520325,55.08130081300813 52.1849593495935,55.03048780487805 52.28658536585366,54.92886178861789 52.4390243902439,54.8780487804878 52.540650406504064,54.77642276422764 52.642276422764226,54.67479674796748 52.74390243902439,54.6239837398374 52.84552845528455,54.52235772357724 52.947154471544714,54.420731707317074 53.048780487804876,54.31910569105691 53.15040650406504,54.21747967479675 53.2520325203252,54.0650406504065 53.353658536585364,53.96341463414634 53.50609756097561,53.8109756097561 53.607723577235774,53.709349593495936 53.65853658536585,53.607723577235774 53.760162601626014,53.45528455284553 53.8109756097561,53.353658536585364 53.91260162601626,53.201219512195124 53.96341463414634,53.09959349593496 54.0650406504065,52.947154471544714 54.11585365853659,52.79471544715447 54.21747967479675,52.642276422764226 54.26829268292683,52.540650406504064" fill="none" stroke="black" stroke-width="0.6"></polyline><polyline points="54.26829268292683,52.540650406504064 54.36991869918699,52.38821138211382 54.47154471544715,52.235772357723576 54.52235772357724,52.13414634146341 54.6239837398374,51.981707317073166 54.72560975609756,51.880081300813 54.77642276422764,51.72764227642276 54.8780487804878,51.6260162601626 54.979674796747965,51.47357723577235 55.03048780487805,51.37195121951219 55.13211382113821,51.21951219512195 55.18292682926829,51.11788617886179 55.28455284552845,50.96544715447154 55.33536585365854,50.86382113821138 55.386178861788615,50.762195121951216 55.4369918699187,50.609756097560975 55.48780487804878,50.50813008130081 55.53861788617886,50.355691056910565 55.58943089430894,50.2540650406504 55.640243902439025,50.10162601626016 55.6910569105691,50 55.74186991869919,49.84756097560975 55.792682926829265,49.74593495934959 55.792682926829265,49.64430894308943 55.84349593495935,49.542682926829265 55.84349593495935,49.4410569105691 55.84349593495935,49.28861788617886 55.89430894308943,49.28861788617886 55.89430894308943,49.1869918699187 55.89430894308943,49.08536585365854 55.89430894308943,48.983739837398375 55.94512195121951,48.83130081300813 55.94512195121951,48.729674796747965 55.94512195121951,48.6280487804878 55.94512195121951,48.577235772357724 55.99593495934959,48.42479674796748 55.99593495934959,48.323170731707314 56.046747967479675,48.170731707317074 56.046747967479675,48.06910569105691 56.046747967479675,47.916666666666664 56.046747967479675,47.8150406504065 56.046747967479675,47.66260162601626 56.046747967479675,47.5609756097561 56.046747967479675,47.40853658536585 56.046747967479675,47.30691056910569 55.99593495934959,47.15447154471545 55.99593495934959,47.052845528455286 55.99593495934959,46.90040650406504 55.94512195121951,46.798780487804876 55.94512195121951,46.697154471544714 55.94512195121951,46.646341463414636" fill="none" stroke="black" stroke-width="0.6"></polyline><polyline points="55.94512195121951,46.646341463414636 55.89430894308943,46.49390243902439 55.84349593495935,46.34146341463415 55.792682926829265,46.1890243902439 55.74186991869919,46.03658536585366 55.6910569105691,45.9349593495935 55.640243902439025,45.78252032520325 55.58943089430894,45.63008130081301 55.58943089430894,45.52845528455285 55.53861788617886,45.3760162601626 55.48780487804878,45.22357723577235 55.386178861788615,45.02032520325203 55.33536585365854,44.86788617886179 55.233739837398375,44.66463414634146 55.13211382113821,44.46138211382114 55.03048780487805,44.30894308943089 54.92886178861789,44.105691056910565 54.827235772357724,43.953252032520325 54.72560975609756,43.80081300813008 54.6239837398374,43.64837398373984 54.47154471544715,43.49593495934959 54.36991869918699,43.34349593495935 54.21747967479675,43.24186991869919 54.0650406504065,43.08943089430894 53.86178861788618,42.98780487804878 53.709349593495936,42.886178861788615 53.55691056910569,42.78455284552845 53.45528455284553,42.733739837398375 53.353658536585364,42.63211382113821 53.201219512195124,42.53048780487805 53.09959349593496,42.479674796747965 52.9979674796748,42.3780487804878 52.896341463414636,42.27642276422764 52.79471544715447,42.22560975609756 52.74390243902439,42.17479674796748 52.642276422764226,42.1239837398374 52.540650406504064,42.02235772357724 52.4390243902439,41.97154471544715 52.38821138211382,41.920731707317074 52.28658536585366,41.86991869918699 52.235772357723576,41.86991869918699 52.13414634146341,41.81910569105691 52.083333333333336,41.76829268292683 52.03252032520325,41.76829268292683 51.981707317073166,41.71747967479675 51.93089430894309,41.71747967479675 51.93089430894309,41.71747967479675 51.880081300813,41.71747967479675 51.77845528455284,41.666666666666664 51.72764227642276,41.666666666666664 51.67682926829268,41.666666666666664" fill="none" stroke="black" stroke-width="0.6"></polyline><polyline points="51.67682926829268,41.666666666666664 51.6260162601626,41.61585365853659 51.575203252032516,41.61585365853659 51.47357723577235,41.61585365853659 51.422764227642276,41.5650406504065 51.37195121951219,41.5650406504065 51.27032520325203,41.5650406504065 51.168699186991866,41.5650406504065 51.0670731707317,41.514227642276424 50.96544715447154,41.514227642276424 50.8130081300813,41.514227642276424 50.609756097560975,41.514227642276424 50.40650406504065,41.514227642276424 50.203252032520325,41.514227642276424 49.949186991869915,41.5650406504065 49.74593495934959,41.5650406504065 49.49186991869919,41.61585365853659 49.23780487804878,41.61585365853659 49.03455284552845,41.61585365853659 48.78048780487805,41.666666666666664 48.577235772357724,41.666666666666664 48.3739837398374,41.666666666666664 48.170731707317074,41.71747967479675 47.96747967479675,41.71747967479675 47.764227642276424,41.71747967479675 47.459349593495936,41.81910569105691 47.15447154471545,41.920731707317074 46.7479674796748,42.02235772357724 46.392276422764226,42.17479674796748 46.03658536585366,42.27642276422764 45.63008130081301,42.42886178861789 45.22357723577235,42.58130081300813 44.86788617886179,42.68292682926829 44.512195121951216,42.83536585365854 44.15650406504065,42.9369918699187 43.85162601626016,43.08943089430894 43.49593495934959,43.24186991869919 43.1910569105691,43.34349593495935 42.886178861788615,43.49593495934959 42.53048780487805,43.64837398373984 42.327235772357724,43.75 42.27642276422764,43.80081300813008 42.22560975609756,43.80081300813008 42.1239837398374,43.85162601626016 42.073170731707314,43.90243902439024 42.02235772357724,44.0040650406504 41.97154471544715,44.05487804878049 41.920731707317074,44.20731707317073 41.86991869918699,44.30894308943089 41.81910569105691,44.512195121951216 41.76829268292683,44.66463414634146" fill="none" stroke="black" stroke-width="0.6"></polyline><polyline points="41.76829268292683,44.66463414634146 41.71747967479675,44.86788617886179 41.666666666666664,44.96951219512195 41.61585365853659,45.12195121951219 41.5650406504065,45.325203252032516 41.5650406504065,45.579268292682926 41.46341463414634,45.9349593495935 41.36178861788618,46.239837398373986 41.3109756097561,46.59552845528455 41.209349593495936,46.90040650406504 41.15853658536585,47.15447154471545 41.107723577235774,47.40853658536585 41.05691056910569,47.66260162601626 41.05691056910569,47.8150406504065 41.00609756097561,48.01829268292683 41.00609756097561,48.22154471544715 40.95528455284553,48.42479674796748 40.95528455284553,48.67886178861789 40.90447154471545,48.93292682926829 40.853658536585364,49.136178861788615 40.853658536585364,49.390243902439025 40.802845528455286,49.59349593495935 40.802845528455286,49.74593495934959 40.802845528455286,49.796747967479675 40.802845528455286,49.84756097560975 40.802845528455286,50.05081300813008 40.7520325203252,50.15243902439024 40.7520325203252,50.30487804878049 40.7520325203252,50.40650406504065 40.7520325203252,50.55894308943089 40.7520325203252,50.71138211382114 40.7520325203252,50.86382113821138 40.7520325203252,51.016260162601625 40.7520325203252,51.168699186991866 40.701219512195124,51.32113821138211 40.701219512195124,51.422764227642276 40.701219512195124,51.575203252032516 40.701219512195124,51.67682926829268 40.701219512195124,51.829268292682926 40.701219512195124,51.93089430894309 40.701219512195124,52.083333333333336 40.701219512195124,52.235772357723576 40.701219512195124,52.33739837398374 40.701219512195124,52.489837398373986 40.65040650406504,52.642276422764226 40.65040650406504,52.79471544715447 40.65040650406504,53.048780487804876 40.59959349593496,53.302845528455286 40.548780487804876,53.55691056910569 40.4979674796748,53.86178861788618 40.447154471544714,54.11585365853659" fill="none" stroke="black" stroke-width="0.6"></polyline><polyline points="40.447154471544714,54.11585365853659 40.396341463414636,54.420731707317074 40.396341463414636,54.6239837398374 40.34552845528455,54.77642276422764 40.34552845528455,54.979674796747965 40.34552845528455,55.08130081300813 40.34552845528455,55.18292682926829 40.34552845528455,55.28455284552845 40.34552845528455,55.386178861788615 40.396341463414636,55.48780487804878 40.447154471544714,55.640243902439025 40.4979674796748,55.792682926829265 40.548780487804876,55.99593495934959 40.59959349593496,56.199186991869915 40.701219512195124,56.35162601626016 40.7520325203252,56.453252032520325 40.802845528455286,56.55487804878049 40.853658536585364,56.65650406504065 40.95528455284553,56.75813008130081 41.00609756097561,56.91056910569105 41.05691056910569,57.012195121951216 41.15853658536585,57.16463414634146 41.209349593495936,57.266260162601625 41.260162601626014,57.36788617886179 41.3109756097561,57.46951219512195 41.41260162601626,57.57113821138211 41.46341463414634,57.672764227642276 41.514227642276424,57.77439024390244 41.61585365853659,57.8760162601626 41.666666666666664,57.97764227642276 41.76829268292683,58.079268292682926 41.86991869918699,58.18089430894309 41.920731707317074,58.28252032520325 42.02235772357724,58.38414634146341 42.1239837398374,58.485772357723576 42.22560975609756,58.536585365853654 42.27642276422764,58.63821138211382 42.42886178861789,58.790650406504064 42.53048780487805,58.892276422764226 42.68292682926829,59.04471544715447 42.886178861788615,59.197154471544714 42.98780487804878,59.298780487804876 43.140243902439025,59.40040650406504 43.24186991869919,59.5020325203252 43.34349593495935,59.552845528455286 43.44512195121951,59.603658536585364 43.546747967479675,59.70528455284553 43.64837398373984,59.70528455284553 43.699186991869915,59.80691056910569 43.80081300813008,59.857723577235774 43.80081300813008,59.857723577235774" fill="none" stroke="black" stroke-width="0.6"></polyline><polyline points="43.80081300813008,59.857723577235774 43.85162601626016,59.90853658536585 43.953252032520325,59.959349593495936 44.0040650406504,60.010162601626014 44.105691056910565,60.0609756097561 44.15650406504065,60.11178861788618 44.25813008130081,60.16260162601626 44.30894308943089,60.21341463414634 44.41056910569105,60.264227642276424 44.512195121951216,60.36585365853659 44.61382113821138,60.416666666666664 44.766260162601625,60.46747967479675 44.86788617886179,60.56910569105691 45.02032520325203,60.61991869918699 45.172764227642276,60.72154471544715 45.325203252032516,60.77235772357724 45.42682926829268,60.823170731707314 45.579268292682926,60.92479674796748 45.73170731707317,60.97560975609756 45.88414634146341,61.02642276422764 46.03658536585366,61.077235772357724 46.13821138211382,61.1280487804878 46.239837398373986,61.229674796747965 46.392276422764226,61.28048780487805 46.54471544715447,61.33130081300813 46.697154471544714,61.38211382113821 46.90040650406504,61.43292682926829 47.103658536585364,61.483739837398375 47.30691056910569,61.53455284552845 47.510162601626014,61.53455284552845 47.71341463414634,61.58536585365854 47.916666666666664,61.58536585365854 48.06910569105691,61.636178861788615 48.27235772357724,61.636178861788615 48.42479674796748,61.6869918699187 48.6280487804878,61.6869918699187 48.78048780487805,61.6869918699187 48.93292682926829,61.73780487804878 49.136178861788615,61.73780487804878 49.28861788617886,61.73780487804878 49.4410569105691,61.73780487804878 49.59349593495935,61.73780487804878 49.74593495934959,61.73780487804878 49.89837398373984,61.73780487804878 50.10162601626016,61.6869918699187 50.203252032520325,61.6869918699187 50.355691056910565,61.6869918699187 50.50813008130081,61.636178861788615 50.609756097560975,61.636178861788615 50.71138211382114,61.636178861788615 50.8130081300813,61.636178861788615" fill="none" stroke="black" stroke-width="0.6"></polyline><polyline points="50.8130081300813,61.636178861788615 50.86382113821138,61.636178861788615 50.91463414634146,61.636178861788615 50.96544715447154,61.6869918699187 51.016260162601625,61.6869918699187 51.0670731707317,61.6869918699187 51.11788617886179,61.73780487804878 51.168699186991866,61.73780487804878 51.21951219512195,61.73780487804878 51.27032520325203,61.73780487804878 51.32113821138211,61.73780487804878 51.37195121951219,61.73780487804878 51.422764227642276,61.73780487804878 51.47357723577235,61.78861788617886 51.52439024390244,61.78861788617886 51.575203252032516,61.78861788617886 51.6260162601626,61.78861788617886 51.72764227642276,61.78861788617886 51.77845528455284,61.78861788617886 51.880081300813,61.78861788617886 51.981707317073166,61.78861788617886 52.083333333333336,61.78861788617886 52.1849593495935,61.78861788617886 52.28658536585366,61.78861788617886 52.4390243902439,61.78861788617886 52.540650406504064,61.78861788617886 52.642276422764226,61.78861788617886 52.74390243902439,61.78861788617886 52.84552845528455,61.73780487804878 52.947154471544714,61.73780487804878 53.048780487804876,61.73780487804878 53.15040650406504,61.73780487804878 53.2520325203252,61.6869918699187 53.353658536585364,61.6869918699187 53.45528455284553,61.6869918699187 53.55691056910569,61.636178861788615 53.607723577235774,61.636178861788615 53.709349593495936,61.636178861788615 53.760162601626014,61.58536585365854 53.86178861788618,61.58536585365854 53.91260162601626,61.58536585365854 53.96341463414634,61.53455284552845 54.014227642276424,61.53455284552845 54.11585365853659,61.53455284552845 54.166666666666664,61.483739837398375 54.21747967479675,61.483739837398375 54.31910569105691,61.483739837398375 54.36991869918699,61.43292682926829 54.420731707317074,61.43292682926829 54.47154471544715,61.43292682926829 54.573170731707314,61.38211382113821" fill="none" stroke="black" stroke-width="0.6"></polyline><polyline points="54.573170731707314,61.38211382113821 54.6239837398374,61.38211382113821 54.72560975609756,61.38211382113821 54.827235772357724,61.33130081300813 54.92886178861789,61.28048780487805 55.03048780487805,61.229674796747965 55.13211382113821,61.17886178861789 55.233739837398375,61.1280487804878 55.386178861788615,61.077235772357724 55.53861788617886,61.02642276422764 55.6910569105691,60.92479674796748 55.84349593495935,60.8739837398374 55.99593495934959,60.77235772357724 56.199186991869915,60.670731707317074 56.35162601626016,60.61991869918699 56.5040650406504,60.56910569105691 56.65650406504065,60.46747967479675 56.80894308943089,60.416666666666664 56.91056910569105,60.36585365853659 57.0630081300813,60.3150406504065 57.16463414634146,60.21341463414634 57.3170731707317,60.16260162601626 57.418699186991866,60.11178861788618 57.52032520325203,60.010162601626014 57.672764227642276,59.90853658536585 57.825203252032516,59.80691056910569 57.92682926829268,59.70528455284553 58.079268292682926,59.603658536585364 58.231707317073166,59.5020325203252 58.38414634146341,59.40040650406504 58.485772357723576,59.34959349593496 58.536585365853654,59.2479674796748 58.6890243902439,59.146341463414636 58.84146341463415,58.99390243902439 58.99390243902439,58.892276422764226 59.146341463414636,58.739837398373986 59.2479674796748,58.63821138211382 59.40040650406504,58.485772357723576 59.552845528455286,58.38414634146341 59.70528455284553,58.231707317073166 59.90853658536585,58.079268292682926 60.0609756097561,57.92682926829268 60.21341463414634,57.77439024390244 60.416666666666664,57.62195121951219 60.56910569105691,57.46951219512195 60.77235772357724,57.266260162601625 60.92479674796748,57.11382113821138 61.077235772357724,57.012195121951216 61.17886178861789,56.859756097560975 61.33130081300813,56.70731707317073 61.483739837398375,56.605691056910565" fill="none" stroke="black" stroke-width="0.6"></polyline><polyline points="61.483739837398375,56.605691056910565 61.58536585365854,56.453252032520325 61.6869918699187,56.35162601626016 61.83943089430894,56.25 61.9410569105691,56.09756097560975 62.042682926829265,55.94512195121951 62.09349593495935,55.89430894308943 62.14430894308943,55.84349593495935 62.24593495934959,55.640243902439025 62.296747967479675,55.48780487804878 62.39837398373984,55.33536585365854 62.449186991869915,55.18292682926829 62.5,55.03048780487805 62.55081300813008,54.8780487804878 62.65243902439024,54.67479674796748 62.703252032520325,54.52235772357724 62.80487804878049,54.36991869918699 62.855691056910565,54.21747967479675 62.95731707317073,54.0650406504065 63.00813008130081,53.91260162601626 63.05894308943089,53.760162601626014 63.16056910569105,53.607723577235774 63.21138211382114,53.45528455284553 63.262195121951216,53.2520325203252 63.36382113821138,53.09959349593496 63.36382113821138,52.947154471544714 63.46544715447154,52.79471544715447 63.46544715447154,52.642276422764226 63.516260162601625,52.489837398373986 63.5670731707317,52.28658536585366 63.5670731707317,52.13414634146341 63.61788617886179,51.981707317073166 63.668699186991866,51.829268292682926 63.668699186991866,51.67682926829268 63.668699186991866,51.52439024390244 63.668699186991866,51.32113821138211 63.71951219512195,51.168699186991866 63.71951219512195,50.96544715447154 63.71951219512195,50.762195121951216 63.71951219512195,50.55894308943089 63.77032520325203,50.355691056910565 63.77032520325203,50.15243902439024 63.77032520325203,49.949186991869915 63.77032520325203,49.74593495934959 63.77032520325203,49.542682926829265 63.77032520325203,49.390243902439025 63.82113821138211,49.1869918699187 63.82113821138211,48.93292682926829 63.82113821138211,48.729674796747965 63.82113821138211,48.52642276422764 63.82113821138211,48.27235772357724" fill="none" stroke="black" stroke-width="0.6"></polyline><polyline points="63.82113821138211,48.27235772357724 63.82113821138211,48.06910569105691 63.82113821138211,47.86585365853659 63.82113821138211,47.66260162601626 63.82113821138211,47.459349593495936 63.82113821138211,47.25609756097561 63.77032520325203,47.103658536585364 63.71951219512195,46.90040650406504 63.71951219512195,46.697154471544714 63.668699186991866,46.54471544715447 63.61788617886179,46.34146341463415 63.61788617886179,46.1890243902439 63.5670731707317,45.985772357723576 63.516260162601625,45.833333333333336 63.516260162601625,45.68089430894309 63.46544715447154,45.52845528455285 63.41463414634146,45.325203252032516 63.41463414634146,45.172764227642276 63.36382113821138,44.96951219512195 63.36382113821138,44.86788617886179 63.3130081300813,44.766260162601625 63.3130081300813,44.61382113821138 63.262195121951216,44.46138211382114 63.21138211382114,44.30894308943089 63.16056910569105,44.15650406504065 63.109756097560975,43.953252032520325 63.00813008130081,43.80081300813008 62.95731707317073,43.59756097560975 62.855691056910565,43.44512195121951 62.80487804878049,43.24186991869919 62.703252032520325,43.08943089430894 62.60162601626016,42.886178861788615 62.55081300813008,42.733739837398375 62.449186991869915,42.53048780487805 62.34756097560975,42.3780487804878 62.296747967479675,42.22560975609756 62.19512195121951,42.02235772357724 62.09349593495935,41.86991869918699 61.9410569105691,41.666666666666664 61.83943089430894,41.46341463414634 61.73780487804878,41.3109756097561 61.636178861788615,41.15853658536585 61.483739837398375,41.00609756097561 61.38211382113821,40.853658536585364 61.28048780487805,40.7520325203252 61.17886178861789,40.59959349593496 61.077235772357724,40.447154471544714 60.92479674796748,40.34552845528455 60.823170731707314,40.19308943089431 60.670731707317074,40.040650406504064 60.56910569105691,39.9390243902439" fill="none" stroke="black" stroke-width="0.6"></polyline><polyline points="60.56910569105691,39.9390243902439 60.416666666666664,39.78658536585366 60.3150406504065,39.6849593495935 60.16260162601626,39.583333333333336 60.010162601626014,39.43089430894309 59.90853658536585,39.329268292682926 59.75609756097561,39.22764227642276 59.603658536585364,39.1260162601626 59.451219512195124,39.02439024390244 59.298780487804876,38.87195121951219 59.146341463414636,38.77032520325203 58.99390243902439,38.668699186991866 58.84146341463415,38.5670731707317 58.739837398373986,38.516260162601625 58.63821138211382,38.46544715447154 58.485772357723576,38.36382113821138 58.33333333333333,38.21138211382114 58.130081300813,38.109756097560975 57.97764227642276,37.95731707317073 57.77439024390244,37.855691056910565 57.52032520325203,37.703252032520325 57.3170731707317,37.55081300813008 57.0630081300813,37.449186991869915 56.859756097560975,37.296747967479675 56.605691056910565,37.19512195121951 56.40243902439024,37.09349593495935 56.14837398373984,36.9410569105691 55.89430894308943,36.83943089430894 55.640243902439025,36.73780487804878 55.386178861788615,36.636178861788615 55.08130081300813,36.53455284552845 54.827235772357724,36.43292682926829 54.52235772357724,36.33130081300813 54.26829268292683,36.229674796747965 54.0650406504065,36.1280487804878 53.8109756097561,36.02642276422764 53.607723577235774,35.92479674796748 53.353658536585364,35.8739837398374 53.15040650406504,35.77235772357724 52.947154471544714,35.72154471544715 52.74390243902439,35.61991869918699 52.540650406504064,35.56910569105691 52.38821138211382,35.51829268292683 52.1849593495935,35.416666666666664 52.03252032520325,35.36585365853659 51.829268292682926,35.3150406504065 51.67682926829268,35.21341463414634 51.52439024390244,35.16260162601626 51.37195121951219,35.11178861788618 51.168699186991866,35.010162601626014 51.016260162601625,35.010162601626014" fill="none" stroke="black" stroke-width="0.6"></polyline><polyline points="51.016260162601625,35.010162601626014 50.91463414634146,34.959349593495936 50.762195121951216,34.90853658536585 50.609756097560975,34.857723577235774 50.45731707317073,34.857723577235774 50.30487804878049,34.80691056910569 50.15243902439024,34.75609756097561 50,34.75609756097561 49.84756097560975,34.70528455284553 49.69512195121951,34.70528455284553 49.542682926829265,34.65447154471545 49.33943089430894,34.65447154471545 49.136178861788615,34.65447154471545 48.88211382113821,34.65447154471545 48.78048780487805,34.65447154471545 48.6280487804878,34.65447154471545 48.3739837398374,34.65447154471545 48.170731707317074,34.65447154471545 48.01829268292683,34.65447154471545 47.86585365853659,34.65447154471545 47.66260162601626,34.65447154471545 47.510162601626014,34.65447154471545 47.357723577235774,34.65447154471545 47.15447154471545,34.65447154471545 46.951219512195124,34.65447154471545 46.7479674796748,34.70528455284553 46.54471544715447,34.75609756097561 46.34146341463415,34.80691056910569 46.1890243902439,34.857723577235774 45.985772357723576,34.857723577235774 45.9349593495935,34.90853658536585 45.833333333333336,34.90853658536585 45.63008130081301,34.959349593495936 45.47764227642276,35.010162601626014 45.325203252032516,35.0609756097561 45.12195121951219,35.11178861788618 44.96951219512195,35.21341463414634 44.8170731707317,35.264227642276424 44.66463414634146,35.3150406504065 44.46138211382114,35.36585365853659 44.30894308943089,35.416666666666664 44.15650406504065,35.46747967479675 44.0040650406504,35.56910569105691 43.80081300813008,35.61991869918699 43.64837398373984,35.670731707317074 43.49593495934959,35.72154471544715 43.34349593495935,35.77235772357724 43.1910569105691,35.823170731707314 43.03861788617886,35.92479674796748 42.9369918699187,35.92479674796748 42.83536585365854,35.97560975609756" fill="none" stroke="black" stroke-width="0.6"></polyline><polyline points="42.83536585365854,35.97560975609756 42.68292682926829,36.077235772357724 42.479674796747965,36.17886178861789 42.27642276422764,36.28048780487805 42.073170731707314,36.38211382113821 41.920731707317074,36.43292682926829 41.666666666666664,36.53455284552845 41.46341463414634,36.6869918699187 41.107723577235774,36.83943089430894 40.65040650406504,37.09349593495935 40.24390243902439,37.34756097560975 39.83739837398374,37.55081300813008 39.43089430894309,37.7540650406504 39.07520325203252,37.95731707317073 38.77032520325203,38.109756097560975 38.41463414634146,38.3130081300813 38.109756097560975,38.516260162601625 37.7540650406504,38.668699186991866 37.449186991869915,38.87195121951219 37.19512195121951,39.02439024390244 36.9410569105691,39.176829268292686 36.78861788617886,39.27845528455285 36.6869918699187,39.329268292682926 36.53455284552845,39.48170731707317 36.38211382113821,39.63414634146341 36.229674796747965,39.88821138211382 36.02642276422764,40.19308943089431 35.92479674796748,40.34552845528455 35.61991869918699,40.802845528455286 35.46747967479675,41.05691056910569 35.416666666666664,41.209349593495936 35.36585365853659,41.36178861788618 35.3150406504065,41.5650406504065 35.21341463414634,41.81910569105691 35.16260162601626,42.02235772357724 35.11178861788618,42.27642276422764 35.010162601626014,42.53048780487805 34.959349593495936,42.733739837398375 34.90853658536585,42.98780487804878 34.857723577235774,43.1910569105691 34.80691056910569,43.39430894308943 34.80691056910569,43.59756097560975 34.75609756097561,43.85162601626016 34.70528455284553,44.105691056910565 34.65447154471545,44.41056910569105 34.603658536585364,44.61382113821138 34.552845528455286,44.86788617886179 34.552845528455286,45.172764227642276 34.5020325203252,45.3760162601626 34.451219512195124,45.579268292682926 34.40040650406504,45.78252032520325" fill="none" stroke="black" stroke-width="0.6"></polyline><polyline points="34.40040650406504,45.78252032520325 34.34959349593496,45.985772357723576 34.298780487804876,46.1890243902439 34.2479674796748,46.392276422764226 34.2479674796748,46.59552845528455 34.197154471544714,46.84959349593496 34.146341463414636,47.052845528455286 34.04471544715447,47.30691056910569 33.99390243902439,47.510162601626014 33.94308943089431,47.71341463414634 33.892276422764226,47.916666666666664 33.84146341463415,48.11991869918699 33.790650406504064,48.3739837398374 33.790650406504064,48.6280487804878 33.739837398373986,48.83130081300813 33.6890243902439,49.08536585365854 33.63821138211382,49.33943089430894 33.58739837398374,49.542682926829265 33.58739837398374,49.796747967479675 33.53658536585366,50.05081300813008 33.53658536585366,50.15243902439024 33.53658536585366,50.2540650406504 33.485772357723576,50.55894308943089 33.485772357723576,50.71138211382114 33.4349593495935,51.168699186991866 33.4349593495935,51.52439024390244 33.38414634146341,51.880081300813 33.38414634146341,52.13414634146341 33.38414634146341,52.4390243902439 33.38414634146341,52.69308943089431 33.38414634146341,52.9979674796748 33.38414634146341,53.302845528455286 33.38414634146341,53.55691056910569 33.38414634146341,53.8109756097561 33.38414634146341,54.11585365853659 33.4349593495935,54.36991869918699 33.4349593495935,54.573170731707314 33.485772357723576,54.827235772357724 33.53658536585366,55.03048780487805 33.58739837398374,55.28455284552845 33.58739837398374,55.386178861788615 33.63821138211382,55.48780487804878 33.63821138211382,55.6910569105691 33.6890243902439,55.99593495934959 33.739837398373986,56.30081300813008 33.790650406504064,56.55487804878049 33.84146341463415,56.859756097560975 33.892276422764226,57.16463414634146 33.94308943089431,57.418699186991866 33.94308943089431,57.77439024390244 34.04471544715447,58.02845528455284" fill="none" stroke="black" stroke-width="0.6"></polyline><polyline points="34.04471544715447,58.02845528455284 34.09552845528455,58.33333333333333 34.146341463414636,58.58739837398374 34.197154471544714,58.790650406504064 34.298780487804876,59.04471544715447 34.34959349593496,59.298780487804876 34.451219512195124,59.603658536585364 34.5020325203252,59.90853658536585 34.603658536585364,60.16260162601626 34.65447154471545,60.36585365853659 34.75609756097561,60.51829268292683 34.857723577235774,60.670731707317074 34.959349593495936,60.77235772357724 35.0609756097561,60.92479674796748 35.21341463414634,61.077235772357724 35.3150406504065,61.229674796747965 35.416666666666664,61.33130081300813 35.51829268292683,61.483739837398375 35.670731707317074,61.636178861788615 35.77235772357724,61.73780487804878 35.8739837398374,61.890243902439025 36.02642276422764,61.99186991869919 36.1280487804878,62.09349593495935 36.229674796747965,62.24593495934959 36.28048780487805,62.296747967479675 36.38211382113821,62.34756097560975 36.483739837398375,62.449186991869915 36.58536585365854,62.55081300813008 36.73780487804878,62.65243902439024 36.83943089430894,62.7540650406504 36.9410569105691,62.855691056910565 37.09349593495935,62.95731707317073 37.19512195121951,63.05894308943089 37.296747967479675,63.21138211382114 37.449186991869915,63.3130081300813 37.55081300813008,63.41463414634146 37.703252032520325,63.5670731707317 37.80487804878049,63.71951219512195 37.95731707317073,63.82113821138211 38.109756097560975,63.97357723577235 38.262195121951216,64.07520325203252 38.36382113821138,64.17682926829268 38.516260162601625,64.32926829268293 38.668699186991866,64.48170731707317 38.82113821138211,64.58333333333333 38.97357723577235,64.73577235772358 39.176829268292686,64.88821138211382 39.329268292682926,65.04065040650406 39.53252032520325,65.1930894308943 39.735772357723576,65.34552845528455 39.9390243902439,65.54878048780488" fill="none" stroke="black" stroke-width="0.6"></polyline><polyline points="39.9390243902439,65.54878048780488 40.142276422764226,65.70121951219512 40.396341463414636,65.90447154471545 40.701219512195124,66.10772357723577 40.95528455284553,66.3109756097561 41.209349593495936,66.51422764227642 41.514227642276424,66.66666666666667 41.81910569105691,66.869918699187 42.1239837398374,66.97154471544715 42.42886178861789,67.1239837398374 42.78455284552845,67.22560975609755 43.03861788617886,67.32723577235772 43.292682926829265,67.42886178861788 43.49593495934959,67.53048780487805 43.75,67.58130081300813 43.953252032520325,67.6829268292683 44.15650406504065,67.78455284552845 44.359756097560975,67.88617886178862 44.5630081300813,67.9369918699187 44.66463414634146,68.03861788617886 44.766260162601625,68.03861788617886 44.86788617886179,68.08943089430895 44.96951219512195,68.14024390243902 45.12195121951219,68.1910569105691 45.22357723577235,68.24186991869918 45.325203252032516,68.29268292682927 45.42682926829268,68.34349593495935 45.52845528455285,68.39430894308943 45.579268292682926,68.39430894308943 45.68089430894309,68.4451219512195 45.73170731707317,68.4451219512195 45.78252032520325,68.4959349593496 45.833333333333336,68.54674796747967 45.88414634146341,68.54674796747967 45.9349593495935,68.59756097560975 45.985772357723576,68.59756097560975 46.03658536585366,68.64837398373983 46.13821138211382,68.64837398373983 46.1890243902439,68.69918699186992 46.239837398373986,68.69918699186992 46.290650406504064,68.75 46.34146341463415,68.75 46.392276422764226,68.75 46.44308943089431,68.75 46.49390243902439,68.80081300813008 46.54471544715447,68.80081300813008 46.646341463414636,68.80081300813008 46.697154471544714,68.80081300813008 46.7479674796748,68.85162601626016 46.798780487804876,68.85162601626016 46.84959349593496,68.85162601626016" fill="none" stroke="black" stroke-width="0.6"></polyline><polyline points="46.84959349593496,68.85162601626016 46.90040650406504,68.85162601626016 46.951219512195124,68.85162601626016 47.0020325203252,68.85162601626016 47.052845528455286,68.85162601626016 47.15447154471545,68.85162601626016 47.20528455284553,68.85162601626016 47.25609756097561,68.85162601626016 47.30691056910569,68.85162601626016 47.357723577235774,68.85162601626016 47.459349593495936,68.85162601626016 47.510162601626014,68.85162601626016 47.61178861788618,68.90243902439025 47.66260162601626,68.90243902439025 47.764227642276424,68.90243902439025 47.86585365853659,68.90243902439025 47.916666666666664,68.90243902439025 47.96747967479675,68.90243902439025 48.06910569105691,68.90243902439025 48.22154471544715,68.90243902439025 48.323170731707314,68.95325203252033 48.47560975609756,68.95325203252033 48.577235772357724,68.95325203252033 48.729674796747965,68.95325203252033 48.93292682926829,69.0040650406504 49.08536585365854,69.0040650406504 49.23780487804878,69.0040650406504 49.390243902439025,69.05487804878048 49.542682926829265,69.05487804878048 49.74593495934959,69.05487804878048 49.89837398373984,69.10569105691057 50.10162601626016,69.10569105691057 50.2540650406504,69.10569105691057 50.45731707317073,69.10569105691057 50.609756097560975,69.10569105691057 50.8130081300813,69.10569105691057 51.016260162601625,69.10569105691057 51.0670731707317,69.10569105691057 51.168699186991866,69.10569105691057 51.37195121951219,69.10569105691057 51.575203252032516,69.10569105691057 51.829268292682926,69.05487804878048 52.13414634146341,69.0040650406504 52.4390243902439,68.90243902439025 52.79471544715447,68.85162601626016 53.15040650406504,68.75 53.50609756097561,68.64837398373983 53.86178861788618,68.54674796747967 54.21747967479675,68.4451219512195 54.47154471544715,68.34349593495935 54.72560975609756,68.29268292682927" fill="none" stroke="black" stroke-width="0.6"></polyline><polyline points="54.72560975609756,68.29268292682927 54.979674796747965,68.24186991869918 55.18292682926829,68.1910569105691 55.386178861788615,68.14024390243902 55.640243902439025,68.08943089430895 55.792682926829265,68.03861788617886 56.046747967479675,67.98780487804878 56.25,67.88617886178862 56.453252032520325,67.78455284552845 56.65650406504065,67.73373983739837 56.859756097560975,67.6321138211382 57.012195121951216,67.58130081300813 57.16463414634146,67.53048780487805 57.3170731707317,67.47967479674797 57.418699186991866,67.47967479674797 57.52032520325203,67.42886178861788 57.62195121951219,67.42886178861788 57.72357723577235,67.3780487804878 57.8760162601626,67.3780487804878 57.97764227642276,67.32723577235772 58.079268292682926,67.27642276422765 58.18089430894309,67.22560975609755 58.28252032520325,67.17479674796748 58.38414634146341,67.17479674796748 58.536585365853654,67.1239837398374 58.63821138211382,67.07317073170732 58.84146341463415,66.97154471544715 59.04471544715447,66.869918699187 59.298780487804876,66.76829268292683 59.552845528455286,66.66666666666667 59.80691056910569,66.51422764227642 60.0609756097561,66.41260162601625 60.21341463414634,66.3109756097561 60.416666666666664,66.20934959349593 60.61991869918699,66.15853658536585 60.823170731707314,66.0569105691057 60.97560975609756,65.90447154471545 61.17886178861789,65.80284552845528 61.38211382113821,65.65040650406505 61.58536585365854,65.4979674796748 61.78861788617886,65.29471544715447 61.99186991869919,65.14227642276423 62.19512195121951,65.04065040650406 62.39837398373984,64.88821138211382 62.55081300813008,64.73577235772358 62.703252032520325,64.6341463414634 62.90650406504065,64.48170731707317 63.05894308943089,64.32926829268293 63.21138211382114,64.22764227642276 63.36382113821138,64.07520325203252 63.516260162601625,63.97357723577235" fill="none" stroke="black" stroke-width="0.6"></polyline><polyline points="63.516260162601625,63.97357723577235 63.668699186991866,63.82113821138211 63.77032520325203,63.71951219512195 63.922764227642276,63.61788617886179 64.02439024390243,63.46544715447154 64.17682926829268,63.36382113821138 64.27845528455285,63.21138211382114 64.43089430894308,63.05894308943089 64.53252032520325,62.90650406504065 64.6849593495935,62.80487804878049 64.78658536585365,62.60162601626016 64.9390243902439,62.5 65.04065040650406,62.34756097560975 65.1930894308943,62.14430894308943 65.29471544715447,61.99186991869919 65.39634146341463,61.78861788617886 65.54878048780488,61.58536585365854 65.70121951219512,61.38211382113821 65.80284552845528,61.229674796747965 65.95528455284553,61.02642276422764 66.0060975609756,60.97560975609756 66.0569105691057,60.8739837398374 66.15853658536585,60.670731707317074 66.3109756097561,60.46747967479675 66.46341463414635,60.3150406504065 66.5650406504065,60.11178861788618 66.76829268292683,59.90853658536585 66.869918699187,59.70528455284553 67.02235772357723,59.5020325203252 67.1239837398374,59.298780487804876 67.27642276422765,59.146341463414636 67.3780487804878,58.94308943089431 67.53048780487805,58.6890243902439 67.6321138211382,58.536585365853654 67.78455284552845,58.33333333333333 67.88617886178862,58.130081300813 67.98780487804878,57.92682926829268 68.08943089430895,57.77439024390244 68.1910569105691,57.57113821138211 68.29268292682927,57.36788617886179 68.34349593495935,57.16463414634146 68.4451219512195,56.91056910569105 68.54674796747967,56.70731707317073 68.59756097560975,56.5040650406504 68.69918699186992,56.30081300813008 68.75,56.09756097560975 68.85162601626016,55.84349593495935 68.90243902439025,55.58943089430894 69.0040650406504,55.386178861788615 69.05487804878048,55.13211382113821 69.10569105691057,54.8780487804878" fill="none" stroke="black" stroke-width="0.6"></polyline><polyline points="69.10569105691057,54.8780487804878 69.20731707317073,54.67479674796748 69.2581300813008,54.420731707317074 69.3089430894309,54.166666666666664 69.35975609756098,53.96341463414634 69.35975609756098,53.709349593495936 69.41056910569105,53.40447154471545 69.41056910569105,53.15040650406504 69.46138211382113,52.896341463414636 69.51219512195122,52.642276422764226 69.51219512195122,52.38821138211382 69.5630081300813,52.083333333333336 69.61382113821138,51.829268292682926 69.66463414634146,51.575203252032516 69.66463414634146,51.32113821138211 69.71544715447155,51.0670731707317 69.71544715447155,50.8130081300813 69.76626016260163,50.55894308943089 69.76626016260163,50.30487804878049 69.76626016260163,50.05081300813008 69.8170731707317,49.796747967479675 69.8170731707317,49.59349593495935 69.8170731707317,49.33943089430894 69.8170731707317,49.08536585365854 69.8170731707317,48.88211382113821 69.8170731707317,48.67886178861789 69.8170731707317,48.42479674796748 69.8170731707317,48.170731707317074 69.86788617886178,47.916666666666664 69.86788617886178,47.66260162601626 69.86788617886178,47.459349593495936 69.91869918699187,47.25609756097561 69.91869918699187,47.052845528455286 69.91869918699187,46.84959349593496 69.91869918699187,46.646341463414636 69.91869918699187,46.44308943089431 69.91869918699187,46.239837398373986 69.91869918699187,46.03658536585366 69.86788617886178,45.88414634146341 69.86788617886178,45.68089430894309 69.86788617886178,45.52845528455285 69.8170731707317,45.325203252032516 69.8170731707317,45.172764227642276 69.8170731707317,44.96951219512195 69.76626016260163,44.766260162601625 69.76626016260163,44.61382113821138 69.76626016260163,44.41056910569105 69.71544715447155,44.25813008130081 69.71544715447155,44.105691056910565 69.66463414634146,43.90243902439024 69.61382113821138,43.699186991869915" fill="none" stroke="black" stroke-width="0.6"></polyline><polyline points="69.61382113821138,43.699186991869915 69.5630081300813,43.546747967479675 69.51219512195122,43.39430894308943 69.46138211382113,43.1910569105691 69.41056910569105,42.98780487804878 69.35975609756098,42.78455284552845 69.3089430894309,42.63211382113821 69.2581300813008,42.479674796747965 69.20731707317073,42.327235772357724 69.15650406504065,42.1239837398374 69.10569105691057,42.02235772357724 69.05487804878048,41.81910569105691 68.95325203252033,41.666666666666664 68.90243902439025,41.46341463414634 68.85162601626016,41.3109756097561 68.75,41.107723577235774 68.64837398373983,40.95528455284553 68.54674796747967,40.802845528455286 68.4959349593496,40.65040650406504 68.39430894308943,40.4979674796748 68.29268292682927,40.29471544715447 68.1910569105691,40.142276422764226 68.08943089430895,39.9390243902439 67.98780487804878,39.78658536585366 67.9369918699187,39.63414634146341 67.88617886178862,39.583333333333336 67.78455284552845,39.38008130081301 67.6321138211382,39.176829268292686 67.53048780487805,38.97357723577235 67.3780487804878,38.77032520325203 67.27642276422765,38.5670731707317 67.1239837398374,38.41463414634146 66.97154471544715,38.21138211382114 66.869918699187,38.00813008130081 66.71747967479675,37.80487804878049 66.5650406504065,37.60162601626016 66.41260162601625,37.39837398373984 66.26016260162602,37.19512195121951 66.10772357723577,36.99186991869919 65.95528455284553,36.78861788617886 65.7520325203252,36.58536585365854 65.65040650406505,36.43292682926829 65.44715447154472,36.229674796747965 65.34552845528455,36.077235772357724 65.1930894308943,35.92479674796748 65.04065040650406,35.72154471544715 64.9390243902439,35.56910569105691 64.78658536585365,35.416666666666664 64.6341463414634,35.264227642276424 64.53252032520325,35.11178861788618 64.380081300813,35.010162601626014" fill="none" stroke="black" stroke-width="0.6"></polyline><polyline points="64.380081300813,35.010162601626014 64.22764227642276,34.857723577235774 64.1260162601626,34.70528455284553 63.97357723577235,34.603658536585364 63.82113821138211,34.5020325203252 63.71951219512195,34.40040650406504 63.5670731707317,34.298780487804876 63.46544715447154,34.146341463414636 63.36382113821138,34.04471544715447 63.262195121951216,33.94308943089431 63.109756097560975,33.84146341463415 63.00813008130081,33.6890243902439 62.855691056910565,33.58739837398374 62.703252032520325,33.4349593495935 62.55081300813008,33.333333333333336 62.39837398373984,33.18089430894309 62.24593495934959,33.079268292682926 62.09349593495935,32.926829268292686 61.9410569105691,32.77439024390244 61.78861788617886,32.6219512195122 61.636178861788615,32.52032520325203 61.43292682926829,32.36788617886179 61.28048780487805,32.21544715447154 61.1280487804878,32.11382113821138 60.92479674796748,31.961382113821138 60.77235772357724,31.859756097560975 60.61991869918699,31.70731707317073 60.416666666666664,31.554878048780488 60.21341463414634,31.402439024390244 60.010162601626014,31.30081300813008 59.857723577235774,31.19918699186992 59.65447154471545,31.046747967479675 59.451219512195124,30.945121951219512 59.2479674796748,30.79268292682927 59.04471544715447,30.640243902439025 58.84146341463415,30.538617886178862 58.63821138211382,30.4369918699187 58.43495934959349,30.284552845528456 58.231707317073166,30.182926829268293 58.02845528455284,30.08130081300813 57.77439024390244,29.979674796747968 57.57113821138211,29.878048780487806 57.36788617886179,29.776422764227643 57.11382113821138,29.67479674796748 56.91056910569105,29.6239837398374 56.65650406504065,29.522357723577237 56.40243902439024,29.420731707317074 56.14837398373984,29.369918699186993 55.89430894308943,29.268292682926827 55.58943089430894,29.217479674796746 55.386178861788615,29.115853658536583" fill="none" stroke="black" stroke-width="0.6"></polyline><polyline points="55.386178861788615,29.115853658536583 55.13211382113821,29.0650406504065 54.8780487804878,28.96341463414634 54.67479674796748,28.912601626016258 54.420731707317074,28.810975609756095 54.166666666666664,28.760162601626014 53.96341463414634,28.65853658536585 53.709349593495936,28.60772357723577 53.45528455284553,28.55691056910569 53.15040650406504,28.455284552845526 52.84552845528455,28.404471544715445 52.540650406504064,28.353658536585364 52.1849593495935,28.302845528455283 51.829268292682926,28.2520325203252 51.52439024390244,28.2520325203252 51.27032520325203,28.20121951219512 50.91463414634146,28.15040650406504 50.609756097560975,28.15040650406504 50.30487804878049,28.099593495934958 50,28.099593495934958 49.69512195121951,28.099593495934958 49.33943089430894,28.099593495934958 48.983739837398375,28.099593495934958 48.67886178861789,28.099593495934958 48.323170731707314,28.099593495934958 47.916666666666664,28.099593495934958 47.61178861788618,28.099593495934958 47.25609756097561,28.15040650406504 46.90040650406504,28.20121951219512 46.54471544715447,28.20121951219512 46.239837398373986,28.2520325203252 45.88414634146341,28.2520325203252 45.579268292682926,28.302845528455283 45.27439024390244,28.353658536585364 44.96951219512195,28.404471544715445 44.66463414634146,28.455284552845526 44.359756097560975,28.506097560975608 44.05487804878049,28.506097560975608 43.80081300813008,28.55691056910569 43.59756097560975,28.55691056910569 43.44512195121951,28.60772357723577 43.34349593495935,28.60772357723577 43.08943089430894,28.65853658536585 42.83536585365854,28.65853658536585 42.58130081300813,28.709349593495933 42.327235772357724,28.760162601626014 42.073170731707314,28.810975609756095 41.81910569105691,28.861788617886177 41.61585365853659,28.96341463414634 41.36178861788618,29.01422764227642 41.107723577235774,29.0650406504065" fill="none" stroke="black" stroke-width="0.6"></polyline><polyline points="41.107723577235774,29.0650406504065 40.90447154471545,29.166666666666664 40.65040650406504,29.217479674796746 40.447154471544714,29.268292682926827 40.19308943089431,29.369918699186993 39.9390243902439,29.471544715447155 39.6849593495935,29.573170731707318 39.43089430894309,29.725609756097562 39.176829268292686,29.827235772357724 38.87195121951219,29.979674796747968 38.61788617886179,30.132113821138212 38.46544715447154,30.233739837398375 37.95731707317073,30.538617886178862 37.855691056910565,30.640243902439025 37.703252032520325,30.741869918699187 37.39837398373984,30.89430894308943 37.14430894308943,31.097560975609756 36.99186991869919,31.19918699186992 36.890243902439025,31.25 36.6869918699187,31.402439024390244 36.483739837398375,31.554878048780488 36.28048780487805,31.70731707317073 36.077235772357724,31.859756097560975 35.823170731707314,32.0630081300813 35.61991869918699,32.266260162601625 35.36585365853659,32.46951219512195 35.11178861788618,32.672764227642276 34.959349593495936,32.82520325203252 34.75609756097561,33.02845528455285 34.603658536585364,33.18089430894309 34.451219512195124,33.38414634146341 34.298780487804876,33.58739837398374 34.146341463414636,33.739837398373986 33.94308943089431,33.99390243902439 33.739837398373986,34.197154471544714 33.58739837398374,34.40040650406504 33.38414634146341,34.603658536585364 33.23170731707317,34.857723577235774 33.079268292682926,35.0609756097561 32.8760162601626,35.264227642276424 32.72357723577236,35.51829268292683 32.57113821138211,35.670731707317074 32.46951219512195,35.823170731707314 32.3170731707317,36.02642276422764 32.21544715447154,36.229674796747965 32.0630081300813,36.43292682926829 31.910569105691057,36.6869918699187 31.808943089430894,36.83943089430894 31.65650406504065,37.042682926829265 31.554878048780488,37.24593495934959 31.402439024390244,37.449186991869915" fill="none" stroke="black" stroke-width="0.6"></polyline><polyline points="31.402439024390244,37.449186991869915 31.30081300813008,37.60162601626016 31.19918699186992,37.80487804878049 31.097560975609756,38.00813008130081 30.995934959349594,38.21138211382114 30.89430894308943,38.46544715447154 30.79268292682927,38.668699186991866 30.691056910569106,38.87195121951219 30.538617886178862,39.1260162601626 30.38617886178862,39.48170731707317 30.182926829268293,39.78658536585366 30.03048780487805,39.989837398373986 29.979674796747968,40.09146341463415 29.928861788617887,40.142276422764226 29.878048780487806,40.19308943089431 29.827235772357724,40.34552845528455 29.725609756097562,40.4979674796748 29.67479674796748,40.65040650406504 29.573170731707318,40.853658536585364 29.522357723577237,41.05691056910569 29.420731707317074,41.260162601626014 29.369918699186993,41.46341463414634 29.268292682926827,41.666666666666664 29.217479674796746,41.86991869918699 29.115853658536583,42.073170731707314 29.0650406504065,42.27642276422764 28.96341463414634,42.53048780487805 28.861788617886177,42.78455284552845 28.810975609756095,42.98780487804878 28.709349593495933,43.24186991869919 28.60772357723577,43.44512195121951 28.55691056910569,43.64837398373984 28.455284552845526,43.90243902439024 28.353658536585364,44.105691056910565 28.2520325203252,44.359756097560975 28.15040650406504,44.5630081300813 28.048780487804876,44.766260162601625 27.947154471544714,45.02032520325203 27.84552845528455,45.27439024390244 27.74390243902439,45.52845528455285 27.642276422764226,45.73170731707317 27.591463414634145,45.985772357723576 27.489837398373982,46.239837398373986 27.38821138211382,46.49390243902439 27.33739837398374,46.798780487804876 27.235772357723576,47.052845528455286 27.184959349593495,47.30691056910569 27.083333333333332,47.5609756097561 27.03252032520325,47.8150406504065 26.98170731707317,48.06910569105691 26.880081300813007,48.323170731707314" fill="none" stroke="black" stroke-width="0.6"></polyline><polyline points="26.880081300813007,48.323170731707314 26.829268292682926,48.577235772357724 26.778455284552845,48.83130081300813 26.727642276422763,49.1869918699187 26.676829268292682,49.49186991869919 26.6260162601626,49.74593495934959 26.57520325203252,50.15243902439024 26.524390243902438,50.50813008130081 26.473577235772357,50.8130081300813 26.473577235772357,51.11788617886179 26.473577235772357,51.422764227642276 26.473577235772357,51.77845528455284 26.473577235772357,52.083333333333336 26.473577235772357,52.4390243902439 26.473577235772357,52.74390243902439 26.473577235772357,53.09959349593496 26.473577235772357,53.40447154471545 26.524390243902438,53.8109756097561 26.57520325203252,54.26829268292683 26.57520325203252,54.72560975609756 26.6260162601626,55.18292682926829 26.6260162601626,55.640243902439025 26.676829268292682,55.99593495934959 26.727642276422763,56.30081300813008 26.778455284552845,56.55487804878049 26.880081300813007,56.80894308943089 26.93089430894309,57.16463414634146 27.03252032520325,57.57113821138211 27.134146341463413,57.92682926829268 27.286585365853657,58.28252032520325 27.38821138211382,58.58739837398374 27.489837398373982,58.790650406504064 27.591463414634145,58.94308943089431 27.693089430894307,59.146341463414636 27.79471544715447,59.34959349593496 27.896341463414632,59.603658536585364 28.048780487804876,59.80691056910569 28.15040650406504,60.010162601626014 28.2520325203252,60.21341463414634 28.353658536585364,60.416666666666664 28.455284552845526,60.56910569105691 28.60772357723577,60.77235772357724 28.709349593495933,60.97560975609756 28.810975609756095,61.1280487804878 28.912601626016258,61.33130081300813 29.01422764227642,61.53455284552845 29.115853658536583,61.6869918699187 29.217479674796746,61.890243902439025 29.369918699186993,62.09349593495935 29.471544715447155,62.296747967479675 29.573170731707318,62.5" fill="none" stroke="black" stroke-width="0.6"></polyline><polyline points="29.573170731707318,62.5 29.725609756097562,62.7540650406504 29.827235772357724,62.95731707317073 29.928861788617887,63.16056910569105 30.08130081300813,63.36382113821138 30.182926829268293,63.61788617886179 30.335365853658537,63.82113821138211 30.4369918699187,64.02439024390243 30.589430894308943,64.22764227642276 30.741869918699187,64.43089430894308 30.84349593495935,64.6341463414634 30.995934959349594,64.83739837398373 31.148373983739837,64.98983739837398 31.30081300813008,65.1930894308943 31.402439024390244,65.34552845528455 31.554878048780488,65.54878048780488 31.70731707317073,65.80284552845528 31.859756097560975,66.0060975609756 32.0630081300813,66.20934959349593 32.21544715447154,66.41260162601625 32.36788617886179,66.61585365853658 32.57113821138211,66.8191056910569 32.72357723577236,66.97154471544715 32.926829268292686,67.17479674796748 32.97764227642276,67.27642276422765 33.13008130081301,67.3780487804878 33.28252032520325,67.53048780487805 33.485772357723576,67.78455284552845 33.6890243902439,67.98780487804878 33.892276422764226,68.1910569105691 34.146341463414636,68.39430894308943 34.34959349593496,68.64837398373983 34.552845528455286,68.85162601626016 34.80691056910569,69.05487804878048 35.010162601626014,69.2581300813008 35.21341463414634,69.46138211382113 35.46747967479675,69.66463414634146 35.72154471544715,69.91869918699187 35.92479674796748,70.1219512195122 36.17886178861789,70.32520325203252 36.43292682926829,70.52845528455285 36.636178861788615,70.73170731707317 36.83943089430894,70.8841463414634 37.09349593495935,71.08739837398373 37.296747967479675,71.23983739837398 37.5,71.39227642276423 37.7540650406504,71.54471544715447 37.95731707317073,71.69715447154472 38.21138211382114,71.84959349593495 38.41463414634146,72.0020325203252 38.668699186991866,72.10365853658537" fill="none" stroke="black" stroke-width="0.6"></polyline><polyline points="38.668699186991866,72.10365853658537 38.87195121951219,72.2560975609756 39.1260162601626,72.35772357723577 39.329268292682926,72.51016260162602 39.53252032520325,72.61178861788618 39.78658536585366,72.76422764227642 40.040650406504064,72.86585365853658 40.24390243902439,72.96747967479675 40.4979674796748,73.0691056910569 40.7520325203252,73.17073170731707 40.95528455284553,73.27235772357723 41.209349593495936,73.32317073170732 41.41260162601626,73.42479674796748 41.666666666666664,73.47560975609755 41.86991869918699,73.57723577235772 42.073170731707314,73.6280487804878 42.27642276422764,73.67886178861788 42.53048780487805,73.72967479674797 42.68292682926829,73.78048780487805 42.886178861788615,73.83130081300813 43.08943089430894,73.8821138211382 43.24186991869919,73.9329268292683 43.39430894308943,73.98373983739837 43.59756097560975,74.03455284552845 43.75,74.08536585365853 43.85162601626016,74.13617886178862 43.953252032520325,74.13617886178862 44.105691056910565,74.1869918699187 44.30894308943089,74.23780487804878 44.46138211382114,74.28861788617886 44.66463414634146,74.33943089430895 44.86788617886179,74.39024390243902 45.07113821138211,74.49186991869918 45.27439024390244,74.54268292682927 45.47764227642276,74.59349593495935 45.68089430894309,74.64430894308943 45.88414634146341,74.6951219512195 46.13821138211382,74.79674796747967 46.392276422764226,74.84756097560975 46.646341463414636,74.89837398373983 46.90040650406504,75 47.20528455284553,75.05081300813008 47.510162601626014,75.10162601626016 47.764227642276424,75.15243902439025 48.06910569105691,75.20325203252033 48.3739837398374,75.2540650406504 48.52642276422764,75.2540650406504 48.6280487804878,75.30487804878048 48.983739837398375,75.35569105691057 49.23780487804878,75.35569105691057 49.542682926829265,75.40650406504065" fill="none" stroke="black" stroke-width="0.6"></polyline><polyline points="49.542682926829265,75.40650406504065 49.84756097560975,75.45731707317073 50.10162601626016,75.45731707317073 50.355691056910565,75.45731707317073 50.66056910569105,75.5081300813008 50.91463414634146,75.5081300813008 51.21951219512195,75.5589430894309 51.47357723577235,75.5589430894309 51.72764227642276,75.5589430894309 51.981707317073166,75.5589430894309 52.28658536585366,75.60975609756098 52.540650406504064,75.60975609756098 52.79471544715447,75.60975609756098 53.09959349593496,75.66056910569105 53.353658536585364,75.66056910569105 53.607723577235774,75.66056910569105 53.96341463414634,75.66056910569105 54.26829268292683,75.66056910569105 54.52235772357724,75.66056910569105 54.827235772357724,75.66056910569105 55.13211382113821,75.66056910569105 55.4369918699187,75.60975609756098 55.74186991869919,75.5589430894309 55.99593495934959,75.5589430894309 56.25,75.5081300813008 56.55487804878049,75.45731707317073 56.80894308943089,75.45731707317073 57.0630081300813,75.40650406504065 57.36788617886179,75.35569105691057 57.62195121951219,75.30487804878048 57.8760162601626,75.20325203252033 58.18089430894309,75.15243902439025 58.43495934959349,75.05081300813008 58.63821138211382,75 58.94308943089431,74.89837398373983 59.146341463414636,74.84756097560975 59.40040650406504,74.7459349593496 59.552845528455286,74.6951219512195 59.65447154471545,74.64430894308943 59.90853658536585,74.54268292682927 60.16260162601626,74.49186991869918 60.416666666666664,74.39024390243902 60.670731707317074,74.28861788617886 60.8739837398374,74.1869918699187 61.17886178861789,74.03455284552845 61.38211382113821,73.9329268292683 61.636178861788615,73.83130081300813 61.83943089430894,73.72967479674797 62.09349593495935,73.6280487804878 62.34756097560975,73.47560975609755 62.60162601626016,73.3739837398374" fill="none" stroke="black" stroke-width="0.6"></polyline><polyline points="62.60162601626016,73.3739837398374 62.80487804878049,73.27235772357723 63.05894308943089,73.119918699187 63.3130081300813,72.96747967479675 63.516260162601625,72.86585365853658 63.77032520325203,72.71341463414635 64.02439024390243,72.5609756097561 64.22764227642276,72.40853658536585 64.48170731707317,72.2560975609756 64.73577235772358,72.10365853658537 64.98983739837398,71.95121951219512 65.2439024390244,71.7479674796748 65.4979674796748,71.59552845528455 65.70121951219512,71.4430894308943 66.0060975609756,71.23983739837398 66.20934959349593,71.03658536585365 66.46341463414635,70.83333333333333 66.71747967479675,70.57926829268293 66.97154471544715,70.3760162601626 67.22560975609755,70.17276422764228 67.47967479674797,69.96951219512195 67.73373983739837,69.76626016260163 67.9369918699187,69.51219512195122 68.1910569105691,69.3089430894309 68.39430894308943,69.10569105691057 68.59756097560975,68.90243902439025 68.80081300813008,68.69918699186992 69.0040650406504,68.4959349593496 69.20731707317073,68.34349593495935 69.41056910569105,68.08943089430895 69.5630081300813,67.88617886178862 69.76626016260163,67.6829268292683 69.96951219512195,67.47967479674797 70.1219512195122,67.27642276422765 70.32520325203252,67.02235772357723 70.52845528455285,66.76829268292683 70.68089430894308,66.5650406504065 70.8841463414634,66.3109756097561 70.98577235772358,66.20934959349593 71.08739837398373,66.0569105691057 71.23983739837398,65.85365853658537 71.39227642276423,65.65040650406505 71.59552845528455,65.44715447154472 71.79878048780488,65.2439024390244 71.95121951219512,64.98983739837398 72.15447154471545,64.78658536585365 72.35772357723577,64.53252032520325 72.51016260162602,64.32926829268293 72.71341463414635,64.02439024390243 72.91666666666667,63.77032520325203 73.119918699187,63.516260162601625" fill="none" stroke="black" stroke-width="0.6"></polyline><polyline points="73.119918699187,63.516260162601625 73.27235772357723,63.262195121951216 73.47560975609755,63.00813008130081 73.6280487804878,62.7540650406504 73.83130081300813,62.5 74.03455284552845,62.24593495934959 74.1869918699187,61.9410569105691 74.39024390243902,61.6869918699187 74.54268292682927,61.38211382113821 74.6951219512195,61.1280487804878 74.84756097560975,60.823170731707314 75.05081300813008,60.51829268292683 75.2540650406504,60.16260162601626 75.5081300813008,59.80691056910569 75.71138211382113,59.5020325203252 75.86382113821138,59.2479674796748 76.01626016260163,58.94308943089431 76.16869918699187,58.6890243902439 76.3211382113821,58.38414634146341 76.42276422764228,58.130081300813 76.52439024390243,57.825203252032516 76.6260162601626,57.57113821138211 76.72764227642276,57.3170731707317 76.77845528455285,57.0630081300813 76.82926829268293,56.80894308943089 76.880081300813,56.55487804878049 76.93089430894308,56.30081300813008 76.98170731707317,56.046747967479675 77.03252032520325,55.792682926829265 77.08333333333333,55.58943089430894 77.1341463414634,55.28455284552845 77.1849593495935,55.03048780487805 77.23577235772358,54.77642276422764 77.28658536585365,54.52235772357724 77.28658536585365,54.31910569105691 77.33739837398373,54.11585365853659 77.33739837398373,53.91260162601626 77.33739837398373,53.709349593495936 77.38821138211382,53.50609756097561 77.38821138211382,53.2520325203252 77.38821138211382,53.048780487804876 77.4390243902439,52.84552845528455 77.4390243902439,52.59146341463415 77.4390243902439,52.4390243902439 77.4390243902439,52.235772357723576 77.4390243902439,52.03252032520325 77.4390243902439,51.93089430894309 77.4390243902439,51.77845528455284 77.4390243902439,51.575203252032516 77.4390243902439,51.422764227642276 77.4390243902439,51.27032520325203" fill="none" stroke="black" stroke-width="0.6"></polyline><polyline points="77.4390243902439,51.27032520325203 77.38821138211382,51.11788617886179 77.38821138211382,50.96544715447154 77.38821138211382,50.8130081300813 77.33739837398373,50.609756097560975 77.28658536585365,50.50813008130081 77.28658536585365,50.355691056910565 77.23577235772358,50.203252032520325 77.1849593495935,50.05081300813008 77.1849593495935,49.949186991869915 77.1341463414634,49.84756097560975 77.08333333333333,49.74593495934959 77.03252032520325,49.64430894308943 76.98170731707317,49.542682926829265 76.93089430894308,49.49186991869919 76.93089430894308,49.390243902439025 76.880081300813,49.33943089430894 76.82926829268293,49.23780487804878 76.82926829268293,49.1869918699187 76.77845528455285,49.136178861788615 76.77845528455285,49.136178861788615 76.72764227642276,49.08536585365854 76.72764227642276,49.03455284552845 76.72764227642276,49.03455284552845 76.72764227642276,49.03455284552845 76.72764227642276,48.983739837398375 76.72764227642276,48.983739837398375 76.72764227642276,48.983739837398375 76.72764227642276,48.983739837398375 76.72764227642276,48.983739837398375 76.72764227642276,48.983739837398375 76.72764227642276,48.983739837398375 76.72764227642276,48.983739837398375 76.72764227642276,48.983739837398375 76.72764227642276,48.983739837398375 76.72764227642276,48.983739837398375 76.72764227642276,48.983739837398375 76.72764227642276,48.983739837398375 76.72764227642276,48.983739837398375 76.72764227642276,49.03455284552845" fill="none" stroke="black" stroke-width="0.6"></polyline></svg>