<svg height="100" width="100" preserveAspectRatio="xMidYMid meet"><polyline points="43.80081300813008,16.15853658536585 43.75,16.10772357723577 43.699186991869915,16.05691056910569 43.699186991869915,16.006097560975608 43.64837398373984,15.955284552845528 43.59756097560975,15.955284552845528 43.546747967479675,15.904471544715447 43.49593495934959,15.853658536585366 43.44512195121951,15.853658536585366 43.44512195121951,15.802845528455284 43.39430894308943,15.802845528455284 43.34349593495935,15.752032520325203 43.292682926829265,15.752032520325203 43.24186991869919,15.752032520325203 43.24186991869919,15.701219512195122 43.1910569105691,15.701219512195122 43.1910569105691,15.701219512195122 43.1910569105691,15.701219512195122 43.1910569105691,15.701219512195122 43.1910569105691,15.701219512195122 43.1910569105691,15.701219512195122 43.1910569105691,15.701219512195122 43.1910569105691,15.752032520325203 43.1910569105691,15.752032520325203 43.1910569105691,15.802845528455284 43.24186991869919,15.802845528455284 43.292682926829265,15.853658536585366 43.34349593495935,15.904471544715447 43.39430894308943,15.955284552845528 43.49593495934959,15.955284552845528 43.59756097560975,16.006097560975608 43.699186991869915,16.006097560975608 43.85162601626016,16.05691056910569 44.0040650406504,16.05691056910569 44.20731707317073,16.05691056910569 44.41056910569105,16.006097560975608 44.66463414634146,15.904471544715447 44.918699186991866,15.802845528455284 45.172764227642276,15.701219512195122 45.3760162601626,15.548780487804878 45.579268292682926,15.396341463414634 45.833333333333336,15.24390243902439 46.03658536585366,15.091463414634147 46.239837398373986,14.888211382113822 46.44308943089431,14.684959349593496 46.697154471544714,14.430894308943088 46.90040650406504,14.176829268292682 47.15447154471545,13.922764227642276 47.357723577235774,13.66869918699187 47.5609756097561,13.414634146341463 47.8150406504065,13.160569105691057" fill="none" stroke="black" stroke-width="0.6"></polyline><polyline points="47.8150406504065,13.160569105691057 47.96747967479675,12.90650406504065 48.170731707317074,12.601626016260163 48.323170731707314,12.296747967479675 48.52642276422764,11.991869918699187 48.67886178861789,11.636178861788618 48.83130081300813,11.331300813008129 49.03455284552845,10.97560975609756 49.1869918699187,10.670731707317072 49.33943089430894,10.365853658536585 49.4410569105691,10.060975609756097 49.542682926829265,9.75609756097561 49.64430894308943,9.451219512195122 49.69512195121951,9.197154471544716 49.796747967479675,8.99390243902439 49.84756097560975,8.689024390243903 49.89837398373984,8.485772357723578 49.89837398373984,8.282520325203253 49.89837398373984,8.079268292682926 49.89837398373984,7.926829268292683 49.89837398373984,7.774390243902439 49.89837398373984,7.621951219512195 49.89837398373984,7.520325203252033 49.89837398373984,7.469512195121951 49.84756097560975,7.367886178861789 49.796747967479675,7.317073170731707 49.796747967479675,7.266260162601625 49.74593495934959,7.215447154471544 49.69512195121951,7.164634146341463 49.69512195121951,7.164634146341463 49.64430894308943,7.113821138211382 49.64430894308943,7.113821138211382 49.59349593495935,7.113821138211382 49.59349593495935,7.113821138211382 49.542682926829265,7.113821138211382 49.542682926829265,7.113821138211382 49.542682926829265,7.113821138211382 49.49186991869919,7.113821138211382 49.49186991869919,7.113821138211382 49.4410569105691,7.113821138211382 49.390243902439025,7.164634146341463 49.33943089430894,7.266260162601625 49.23780487804878,7.367886178861789 49.136178861788615,7.571138211382114 48.983739837398375,7.774390243902439 48.83130081300813,8.028455284552845 48.6280487804878,8.333333333333334 48.42479674796748,8.638211382113822 48.27235772357724,8.94308943089431 48.06910569105691,9.247967479674797 47.916666666666664,9.552845528455284" fill="none" stroke="black" stroke-width="0.6"></polyline><polyline points="47.916666666666664,9.552845528455284 47.764227642276424,9.80691056910569 47.61178861788618,10.111788617886178 47.510162601626014,10.365853658536585 47.357723577235774,10.670731707317072 47.25609756097561,10.924796747967479 47.20528455284553,11.178861788617885 47.103658536585364,11.432926829268293 47.052845528455286,11.6869918699187 47.0020325203252,11.941056910569106 46.951219512195124,12.144308943089431 46.90040650406504,12.347560975609756 46.90040650406504,12.601626016260163 46.84959349593496,12.754065040650406 46.84959349593496,12.855691056910569 46.84959349593496,12.957317073170731 46.84959349593496,13.160569105691057 46.84959349593496,13.363821138211382 46.84959349593496,13.567073170731707 46.84959349593496,13.71951219512195 46.90040650406504,13.871951219512194 46.90040650406504,14.024390243902438 46.951219512195124,14.227642276422763 47.0020325203252,14.329268292682926 47.052845528455286,14.48170731707317 47.103658536585364,14.634146341463413 47.15447154471545,14.735772357723578 47.20528455284553,14.83739837398374 47.25609756097561,14.939024390243903 47.30691056910569,15.040650406504065 47.30691056910569,15.091463414634147 47.357723577235774,15.091463414634147 47.40853658536585,15.19308943089431 47.459349593495936,15.24390243902439 47.510162601626014,15.294715447154472 47.5609756097561,15.345528455284553 47.61178861788618,15.396341463414634 47.66260162601626,15.447154471544716 47.71341463414634,15.447154471544716 47.764227642276424,15.497967479674797 47.8150406504065,15.497967479674797 47.916666666666664,15.497967479674797 47.96747967479675,15.548780487804878 48.01829268292683,15.548780487804878 48.06910569105691,15.548780487804878 48.170731707317074,15.548780487804878 48.22154471544715,15.548780487804878 48.323170731707314,15.548780487804878 48.3739837398374,15.548780487804878 48.47560975609756,15.548780487804878 48.52642276422764,15.548780487804878" fill="none" stroke="black" stroke-width="0.6"></polyline><polyline points="48.52642276422764,15.548780487804878 48.6280487804878,15.548780487804878 48.67886178861789,15.548780487804878 48.78048780487805,15.548780487804878 48.88211382113821,15.497967479674797 48.983739837398375,15.497967479674797 49.136178861788615,15.447154471544716 49.23780487804878,15.345528455284553 49.390243902439025,15.294715447154472 49.59349593495935,15.19308943089431 49.74593495934959,15.091463414634147 49.949186991869915,14.939024390243903 50.203252032520325,14.786585365853659 50.40650406504065,14.583333333333332 50.66056910569105,14.329268292682926 50.91463414634146,14.1260162601626 51.21951219512195,13.871951219512194 51.47357723577235,13.617886178861788 51.72764227642276,13.363821138211382 51.981707317073166,13.160569105691057 52.1849593495935,12.90650406504065 52.38821138211382,12.652439024390244 52.59146341463415,12.398373983739837 52.84552845528455,12.09349593495935 53.048780487804876,11.788617886178862 53.2520325203252,11.534552845528456 53.353658536585364,11.432926829268293 53.40447154471545,11.280487804878048 53.607723577235774,11.077235772357723 53.709349593495936,10.823170731707316 53.8109756097561,10.56910569105691 53.91260162601626,10.365853658536585 53.96341463414634,10.111788617886178 54.0650406504065,9.857723577235772 54.11585365853659,9.603658536585366 54.21747967479675,9.40040650406504 54.26829268292683,9.146341463414634 54.26829268292683,8.99390243902439 54.31910569105691,8.790650406504065 54.31910569105691,8.58739837398374 54.36991869918699,8.384146341463415 54.36991869918699,8.231707317073171 54.36991869918699,8.028455284552845 54.36991869918699,7.82520325203252 54.36991869918699,7.6727642276422765 54.36991869918699,7.520325203252033 54.31910569105691,7.469512195121951 54.26829268292683,7.367886178861789 54.21747967479675,7.317073170731707 54.166666666666664,7.266260162601625 54.166666666666664,7.266260162601625" fill="none" stroke="black" stroke-width="0.6"></polyline><polyline points="54.166666666666664,7.266260162601625 54.11585365853659,7.215447154471544 54.0650406504065,7.215447154471544 54.0650406504065,7.215447154471544 54.014227642276424,7.215447154471544 53.96341463414634,7.215447154471544 53.96341463414634,7.215447154471544 53.91260162601626,7.215447154471544 53.86178861788618,7.266260162601625 53.8109756097561,7.367886178861789 53.709349593495936,7.520325203252033 53.55691056910569,7.774390243902439 53.40447154471545,8.079268292682926 53.2520325203252,8.384146341463415 53.09959349593496,8.739837398373984 52.947154471544714,9.095528455284553 52.74390243902439,9.502032520325203 52.59146341463415,9.908536585365853 52.4390243902439,10.315040650406504 52.33739837398374,10.670731707317072 52.235772357723576,11.026422764227641 52.13414634146341,11.382113821138212 52.03252032520325,11.6869918699187 51.981707317073166,11.991869918699187 51.880081300813,12.296747967479675 51.829268292682926,12.601626016260163 51.829268292682926,12.90650406504065 51.77845528455284,13.058943089430894 51.77845528455284,13.211382113821138 51.72764227642276,13.516260162601625 51.72764227642276,13.770325203252032 51.72764227642276,14.024390243902438 51.72764227642276,14.227642276422763 51.72764227642276,14.48170731707317 51.72764227642276,14.684959349593496 51.72764227642276,14.888211382113822 51.72764227642276,15.091463414634147 51.77845528455284,15.24390243902439 51.77845528455284,15.447154471544716 51.829268292682926,15.59959349593496 51.880081300813,15.701219512195122 51.93089430894309,15.802845528455284 51.981707317073166,15.904471544715447 52.03252032520325,16.006097560975608 52.13414634146341,16.05691056910569 52.1849593495935,16.10772357723577 52.235772357723576,16.10772357723577 52.28658536585366,16.15853658536585 52.38821138211382,16.15853658536585 52.4390243902439,16.209349593495933 52.489837398373986,16.209349593495933" fill="none" stroke="black" stroke-width="0.6"></polyline><polyline points="52.489837398373986,16.209349593495933 52.540650406504064,16.209349593495933 52.59146341463415,16.209349593495933 52.642276422764226,16.209349593495933 52.69308943089431,16.209349593495933 52.74390243902439,16.209349593495933 52.84552845528455,16.209349593495933 52.896341463414636,16.209349593495933 52.947154471544714,16.209349593495933 52.9979674796748,16.209349593495933 53.09959349593496,16.15853658536585 53.15040650406504,16.10772357723577 53.2520325203252,16.10772357723577 53.353658536585364,16.05691056910569 53.45528455284553,16.006097560975608 53.55691056910569,15.955284552845528 53.65853658536585,15.904471544715447 53.8109756097561,15.802845528455284 53.96341463414634,15.752032520325203 54.0650406504065,15.65040650406504 54.26829268292683,15.548780487804878 54.420731707317074,15.396341463414634 54.573170731707314,15.24390243902439 54.827235772357724,15.091463414634147 54.979674796747965,14.888211382113822 55.18292682926829,14.684959349593496 55.4369918699187,14.48170731707317 55.6910569105691,14.227642276422763 55.792682926829265,14.07520325203252 55.89430894308943,13.922764227642276 56.14837398373984,13.617886178861788 56.40243902439024,13.363821138211382 56.605691056910565,13.109756097560975 56.80894308943089,12.804878048780488 57.012195121951216,12.5 57.21544715447154,12.195121951219512 57.418699186991866,11.890243902439025 57.62195121951219,11.585365853658537 57.825203252032516,11.229674796747966 58.02845528455284,10.924796747967479 58.18089430894309,10.619918699186991 58.28252032520325,10.365853658536585 58.43495934959349,10.060975609756097 58.536585365853654,9.80691056910569 58.58739837398374,9.705284552845528 58.63821138211382,9.552845528455284 58.739837398373986,9.298780487804878 58.790650406504064,9.095528455284553 58.892276422764226,8.841463414634147 58.892276422764226,8.58739837398374 58.94308943089431,8.434959349593496" fill="none" stroke="black" stroke-width="0.6"></polyline><polyline points="58.94308943089431,8.434959349593496 58.94308943089431,8.231707317073171 58.94308943089431,8.079268292682926 58.94308943089431,7.977642276422764 58.94308943089431,7.876016260162602 58.94308943089431,7.82520325203252 58.94308943089431,7.774390243902439 58.892276422764226,7.6727642276422765 58.84146341463415,7.621951219512195 58.84146341463415,7.571138211382114 58.790650406504064,7.520325203252033 58.739837398373986,7.520325203252033 58.739837398373986,7.469512195121951 58.6890243902439,7.469512195121951 58.6890243902439,7.41869918699187 58.63821138211382,7.41869918699187 58.63821138211382,7.41869918699187 58.63821138211382,7.41869918699187 58.63821138211382,7.41869918699187 58.58739837398374,7.41869918699187 58.58739837398374,7.41869918699187 58.58739837398374,7.41869918699187 58.58739837398374,7.41869918699187 58.536585365853654,7.41869918699187 58.536585365853654,7.41869918699187 58.536585365853654,7.469512195121951 58.485772357723576,7.469512195121951 58.485772357723576,7.520325203252033 58.43495934959349,7.571138211382114 58.38414634146341,7.6727642276422765 58.28252032520325,7.82520325203252 58.130081300813,7.977642276422764 58.02845528455284,8.18089430894309 57.8760162601626,8.384146341463415 57.72357723577235,8.58739837398374 57.57113821138211,8.841463414634147 57.418699186991866,9.044715447154472 57.266260162601625,9.247967479674797 57.11382113821138,9.451219512195122 57.012195121951216,9.654471544715447 56.859756097560975,9.857723577235772 56.75813008130081,10.010162601626016 56.65650406504065,10.213414634146341 56.55487804878049,10.416666666666666 56.453252032520325,10.619918699186991 56.35162601626016,10.823170731707316 56.25,11.026422764227641 56.199186991869915,11.229674796747966 56.09756097560975,11.432926829268293 56.046747967479675,11.6869918699187 55.99593495934959,11.890243902439025" fill="none" stroke="black" stroke-width="0.6"></polyline><polyline points="55.99593495934959,11.890243902439025 55.94512195121951,12.09349593495935 55.89430894308943,12.347560975609756 55.84349593495935,12.550813008130081 55.792682926829265,12.804878048780488 55.74186991869919,13.058943089430894 55.74186991869919,13.262195121951219 55.6910569105691,13.465447154471544 55.6910569105691,13.71951219512195 55.6910569105691,13.871951219512194 55.6910569105691,14.07520325203252 55.6910569105691,14.278455284552845 55.6910569105691,14.430894308943088 55.74186991869919,14.583333333333332 55.792682926829265,14.786585365853659 55.84349593495935,14.939024390243903 55.89430894308943,15.091463414634147 55.99593495934959,15.24390243902439 56.046747967479675,15.294715447154472 56.14837398373984,15.497967479674797 56.30081300813008,15.65040650406504 56.40243902439024,15.752032520325203 56.55487804878049,15.853658536585366 56.65650406504065,15.955284552845528 56.75813008130081,16.006097560975608 56.91056910569105,16.05691056910569 57.11382113821138,16.15853658536585 57.36788617886179,16.209349593495933 57.62195121951219,16.260162601626014 57.97764227642276,16.3109756097561 58.33333333333333,16.3109756097561 58.63821138211382,16.260162601626014 58.99390243902439,16.209349593495933 59.40040650406504,16.10772357723577 59.80691056910569,16.006097560975608 60.16260162601626,15.853658536585366 60.56910569105691,15.701219512195122 60.97560975609756,15.548780487804878 61.38211382113821,15.345528455284553 61.78861788617886,15.142276422764228 62.19512195121951,14.939024390243903" fill="none" stroke="black" stroke-width="0.6"></polyline><polyline points="40.90447154471545,35.72154471544715 40.90447154471545,35.72154471544715 40.90447154471545,35.72154471544715 40.853658536585364,35.72154471544715 40.853658536585364,35.72154471544715 40.853658536585364,35.670731707317074 40.802845528455286,35.670731707317074 40.802845528455286,35.670731707317074 40.802845528455286,35.61991869918699 40.802845528455286,35.61991869918699 40.802845528455286,35.61991869918699 40.853658536585364,35.61991869918699 40.853658536585364,35.56910569105691 40.853658536585364,35.56910569105691 40.90447154471545,35.56910569105691 40.90447154471545,35.56910569105691 40.95528455284553,35.56910569105691 40.95528455284553,35.56910569105691 41.00609756097561,35.56910569105691 41.05691056910569,35.56910569105691 41.107723577235774,35.56910569105691 41.15853658536585,35.61991869918699 41.260162601626014,35.61991869918699 41.41260162601626,35.61991869918699 41.5650406504065,35.61991869918699 41.81910569105691,35.61991869918699 42.073170731707314,35.51829268292683 42.42886178861789,35.3150406504065 42.83536585365854,35.0609756097561 43.34349593495935,34.70528455284553 43.80081300813008,34.34959349593496 44.25813008130081,33.94308943089431 44.512195121951216,33.739837398373986 44.71544715447154,33.53658536585366 45.12195121951219,33.23170731707317 45.52845528455285,32.8760162601626 45.9349593495935,32.46951219512195 46.34146341463415,32.11382113821138 46.697154471544714,31.758130081300813 47.052845528455286,31.351626016260163 47.357723577235774,30.995934959349594 47.66260162601626,30.640243902439025 47.96747967479675,30.284552845528456 48.22154471544715,29.928861788617887 48.47560975609756,29.471544715447155 48.729674796747965,29.0650406504065 48.88211382113821,28.709349593495933 48.983739837398375,28.506097560975608 49.08536585365854,28.302845528455283 49.08536585365854,28.099593495934958 49.136178861788615,27.896341463414632" fill="none" stroke="black" stroke-width="0.6"></polyline><polyline points="49.136178861788615,27.896341463414632 49.136178861788615,27.693089430894307 49.136178861788615,27.540650406504064 49.136178861788615,27.38821138211382 49.08536585365854,27.235772357723576 48.983739837398375,27.134146341463413 48.93292682926829,27.03252032520325 48.83130081300813,26.880081300813007 48.78048780487805,26.829268292682926 48.729674796747965,26.829268292682926 48.577235772357724,26.727642276422763 48.47560975609756,26.676829268292682 48.323170731707314,26.6260162601626 48.170731707317074,26.57520325203252 48.06910569105691,26.524390243902438 47.916666666666664,26.524390243902438 47.764227642276424,26.524390243902438 47.66260162601626,26.524390243902438 47.510162601626014,26.57520325203252 47.357723577235774,26.676829268292682 47.20528455284553,26.829268292682926 47.052845528455286,27.03252032520325 46.84959349593496,27.286585365853657 46.697154471544714,27.591463414634145 46.49390243902439,27.947154471544714 46.34146341463415,28.353658536585364 46.1890243902439,28.709349593495933 46.08739837398374,29.01422764227642 45.9349593495935,29.369918699186993 45.833333333333336,29.725609756097562 45.73170731707317,30.08130081300813 45.63008130081301,30.538617886178862 45.47764227642276,30.945121951219512 45.3760162601626,31.30081300813008 45.325203252032516,31.60569105691057 45.27439024390244,31.859756097560975 45.22357723577235,32.16463414634146 45.172764227642276,32.52032520325203 45.12195121951219,32.82520325203252 45.12195121951219,33.13008130081301 45.12195121951219,33.4349593495935 45.12195121951219,33.63821138211382 45.12195121951219,33.892276422764226 45.12195121951219,34.197154471544714 45.172764227642276,34.451219512195124 45.22357723577235,34.65447154471545 45.22357723577235,34.857723577235774 45.27439024390244,35.0609756097561 45.3760162601626,35.21341463414634 45.42682926829268,35.36585365853659 45.52845528455285,35.46747967479675" fill="none" stroke="black" stroke-width="0.6"></polyline><polyline points="45.52845528455285,35.46747967479675 45.63008130081301,35.51829268292683 45.68089430894309,35.61991869918699 45.833333333333336,35.61991869918699 45.88414634146341,35.670731707317074 45.9349593495935,35.670731707317074 46.03658536585366,35.72154471544715 46.1890243902439,35.72154471544715 46.290650406504064,35.72154471544715 46.44308943089431,35.77235772357724 46.54471544715447,35.77235772357724 46.59552845528455,35.77235772357724 46.798780487804876,35.77235772357724 46.951219512195124,35.77235772357724 47.15447154471545,35.77235772357724 47.40853658536585,35.72154471544715 47.61178861788618,35.670731707317074 47.86585365853659,35.56910569105691 48.11991869918699,35.46747967479675 48.42479674796748,35.3150406504065 48.729674796747965,35.16260162601626 49.03455284552845,34.959349593495936 49.4410569105691,34.70528455284553 49.84756097560975,34.451219512195124 50.203252032520325,34.197154471544714 50.609756097560975,33.892276422764226 51.016260162601625,33.58739837398374 51.47357723577235,33.23170731707317 51.880081300813,32.926829268292686 52.28658536585366,32.57113821138211 52.69308943089431,32.21544715447154 52.84552845528455,32.0630081300813 53.048780487804876,31.859756097560975 53.40447154471545,31.504065040650406 53.760162601626014,31.097560975609756 54.014227642276424,30.741869918699187 54.26829268292683,30.4369918699187 54.47154471544715,30.08130081300813 54.67479674796748,29.725609756097562 54.827235772357724,29.420731707317074 54.92886178861789,29.166666666666664 55.03048780487805,28.96341463414634 55.08130081300813,28.810975609756095 55.08130081300813,28.709349593495933 55.13211382113821,28.60772357723577 55.13211382113821,28.455284552845526 55.13211382113821,28.404471544715445 55.13211382113821,28.302845528455283 55.13211382113821,28.15040650406504 55.13211382113821,28.099593495934958 55.08130081300813,27.896341463414632" fill="none" stroke="black" stroke-width="0.6"></polyline><polyline points="55.08130081300813,27.896341463414632 55.03048780487805,27.79471544715447 54.979674796747965,27.693089430894307 54.8780487804878,27.540650406504064 54.8780487804878,27.489837398373982 54.827235772357724,27.4390243902439 54.72560975609756,27.33739837398374 54.6239837398374,27.235772357723576 54.52235772357724,27.134146341463413 54.420731707317074,27.083333333333332 54.36991869918699,27.03252032520325 54.26829268292683,26.98170731707317 54.166666666666664,26.98170731707317 54.0650406504065,26.98170731707317 53.96341463414634,26.98170731707317 53.86178861788618,26.98170731707317 53.760162601626014,26.98170731707317 53.65853658536585,27.083333333333332 53.55691056910569,27.134146341463413 53.45528455284553,27.184959349593495 53.353658536585364,27.286585365853657 53.201219512195124,27.4390243902439 53.09959349593496,27.642276422764226 52.947154471544714,27.896341463414632 52.79471544715447,28.15040650406504 52.642276422764226,28.455284552845526 52.489837398373986,28.810975609756095 52.33739837398374,29.115853658536583 52.1849593495935,29.471544715447155 52.03252032520325,29.878048780487806 51.981707317073166,30.03048780487805 51.93089430894309,30.233739837398375 51.77845528455284,30.640243902439025 51.6260162601626,31.046747967479675 51.52439024390244,31.402439024390244 51.37195121951219,31.70731707317073 51.27032520325203,32.0630081300813 51.21951219512195,32.36788617886179 51.168699186991866,32.672764227642276 51.11788617886179,32.97764227642276 51.0670731707317,33.28252032520325 51.0670731707317,33.58739837398374 51.0670731707317,33.892276422764226 51.016260162601625,34.197154471544714 51.016260162601625,34.451219512195124 51.0670731707317,34.65447154471545 51.11788617886179,34.75609756097561 51.168699186991866,34.90853658536585 51.21951219512195,35.11178861788618 51.32113821138211,35.264227642276424 51.422764227642276,35.36585365853659" fill="none" stroke="black" stroke-width="0.6"></polyline><polyline points="51.422764227642276,35.36585365853659 51.52439024390244,35.51829268292683 51.6260162601626,35.61991869918699 51.72764227642276,35.72154471544715 51.829268292682926,35.823170731707314 51.981707317073166,35.8739837398374 52.13414634146341,35.92479674796748 52.28658536585366,35.97560975609756 52.489837398373986,35.97560975609756 52.69308943089431,35.97560975609756 52.896341463414636,35.97560975609756 53.15040650406504,35.97560975609756 53.353658536585364,35.92479674796748 53.607723577235774,35.8739837398374 53.8109756097561,35.823170731707314 54.0650406504065,35.77235772357724 54.31910569105691,35.72154471544715 54.52235772357724,35.61991869918699 54.77642276422764,35.51829268292683 55.03048780487805,35.46747967479675 55.28455284552845,35.3150406504065 55.386178861788615,35.264227642276424 55.53861788617886,35.16260162601626 55.792682926829265,35.010162601626014 56.09756097560975,34.75609756097561 56.40243902439024,34.5020325203252 56.70731707317073,34.197154471544714 57.012195121951216,33.84146341463415 57.36788617886179,33.4349593495935 57.672764227642276,33.02845528455285 57.97764227642276,32.672764227642276 58.33333333333333,32.266260162601625 58.58739837398374,31.859756097560975 58.84146341463415,31.453252032520325 59.09552845528455,31.046747967479675 59.298780487804876,30.741869918699187 59.5020325203252,30.38617886178862 59.65447154471545,30.03048780487805 59.80691056910569,29.67479674796748 59.90853658536585,29.369918699186993 60.010162601626014,29.0650406504065 60.0609756097561,28.861788617886177 60.0609756097561,28.65853658536585 60.11178861788618,28.455284552845526 60.11178861788618,28.2520325203252 60.11178861788618,28.099593495934958 60.0609756097561,27.947154471544714 59.959349593495936,27.84552845528455 59.90853658536585,27.74390243902439 59.857723577235774,27.642276422764226 59.75609756097561,27.540650406504064" fill="none" stroke="black" stroke-width="0.6"></polyline><polyline points="59.75609756097561,27.540650406504064 59.65447154471545,27.4390243902439 59.552845528455286,27.33739837398374 59.451219512195124,27.286585365853657 59.298780487804876,27.235772357723576 59.197154471544714,27.184959349593495 59.09552845528455,27.184959349593495 58.99390243902439,27.184959349593495 58.892276422764226,27.184959349593495 58.790650406504064,27.235772357723576 58.739837398373986,27.286585365853657 58.58739837398374,27.38821138211382 58.485772357723576,27.540650406504064 58.38414634146341,27.693089430894307 58.231707317073166,27.896341463414632 58.130081300813,28.099593495934958 57.97764227642276,28.302845528455283 57.825203252032516,28.55691056910569 57.72357723577235,28.760162601626014 57.57113821138211,29.01422764227642 57.46951219512195,29.31910569105691 57.36788617886179,29.573170731707318 57.266260162601625,29.827235772357724 57.16463414634146,30.182926829268293 57.11382113821138,30.4369918699187 57.0630081300813,30.741869918699187 57.012195121951216,31.046747967479675 56.96138211382114,31.30081300813008 56.96138211382114,31.65650406504065 56.91056910569105,31.910569105691057 56.91056910569105,32.16463414634146 56.91056910569105,32.46951219512195 56.91056910569105,32.672764227642276 56.91056910569105,32.926829268292686 56.91056910569105,33.18089430894309 56.91056910569105,33.4349593495935 56.91056910569105,33.63821138211382 56.96138211382114,33.84146341463415 56.96138211382114,34.04471544715447 57.012195121951216,34.2479674796748 57.11382113821138,34.451219512195124 57.16463414634146,34.603658536585364 57.21544715447154,34.75609756097561 57.3170731707317,34.857723577235774 57.418699186991866,35.010162601626014 57.52032520325203,35.11178861788618 57.62195121951219,35.16260162601626 57.77439024390244,35.264227642276424 57.8760162601626,35.3150406504065 57.97764227642276,35.36585365853659 58.130081300813,35.416666666666664" fill="none" stroke="black" stroke-width="0.6"></polyline><polyline points="58.130081300813,35.416666666666664 58.231707317073166,35.46747967479675 58.33333333333333,35.51829268292683 58.38414634146341,35.51829268292683 58.43495934959349,35.51829268292683 58.58739837398374,35.56910569105691 58.63821138211382,35.56910569105691 58.84146341463415,35.61991869918699 58.99390243902439,35.61991869918699 59.146341463414636,35.61991869918699 59.34959349593496,35.61991869918699 59.552845528455286,35.61991869918699 59.75609756097561,35.61991869918699 59.959349593495936,35.61991869918699 60.0609756097561,35.61991869918699 60.16260162601626,35.61991869918699 60.36585365853659,35.61991869918699 60.61991869918699,35.61991869918699 60.8739837398374,35.56910569105691 61.1280487804878,35.51829268292683 61.43292682926829,35.416666666666664 61.73780487804878,35.3150406504065 62.042682926829265,35.16260162601626 62.34756097560975,35.0609756097561 62.65243902439024,34.857723577235774 62.80487804878049,34.80691056910569 62.95731707317073,34.70528455284553 63.3130081300813,34.451219512195124 63.61788617886179,34.2479674796748 63.97357723577235,33.99390243902439 64.27845528455285,33.739837398373986 64.48170731707317,33.58739837398374 64.6849593495935,33.4349593495935 64.88821138211382,33.28252032520325 65.04065040650406,33.18089430894309 65.14227642276423,33.13008130081301 65.1930894308943,33.079268292682926 65.1930894308943,33.02845528455285 65.1930894308943,33.02845528455285 65.14227642276423,33.02845528455285" fill="none" stroke="black" stroke-width="0.6"></polyline><polyline points="38.61788617886179,56.199186991869915 38.41463414634146,56.14837398373984 38.21138211382114,56.09756097560975 38.109756097560975,56.046747967479675 37.95731707317073,56.046747967479675 37.90650406504065,55.99593495934959 37.855691056910565,55.99593495934959 37.80487804878049,55.94512195121951 37.80487804878049,55.94512195121951 37.80487804878049,55.94512195121951 37.80487804878049,55.94512195121951 37.80487804878049,55.94512195121951 37.80487804878049,55.94512195121951 37.80487804878049,55.94512195121951 37.80487804878049,55.94512195121951 37.80487804878049,55.94512195121951 37.80487804878049,55.94512195121951 37.855691056910565,55.94512195121951 37.855691056910565,55.94512195121951 37.95731707317073,55.94512195121951 38.00813008130081,55.99593495934959 38.109756097560975,55.99593495934959 38.21138211382114,56.046747967479675 38.36382113821138,56.046747967479675 38.5670731707317,56.09756097560975 38.77032520325203,56.09756097560975 39.02439024390244,56.09756097560975 39.329268292682926,55.99593495934959 39.6849593495935,55.84349593495935 40.040650406504064,55.640243902439025 40.4979674796748,55.386178861788615 40.95528455284553,55.03048780487805 41.46341463414634,54.573170731707314 41.97154471544715,54.014227642276424 42.53048780487805,53.50609756097561 42.98780487804878,53.048780487804876 43.39430894308943,52.69308943089431 43.75,52.33739837398374 44.105691056910565,51.981707317073166 44.41056910569105,51.6260162601626 44.71544715447154,51.21951219512195 45.02032520325203,50.86382113821138 45.27439024390244,50.45731707317073 45.47764227642276,50.10162601626016 45.63008130081301,49.796747967479675 45.73170731707317,49.49186991869919 45.833333333333336,49.1869918699187 45.9349593495935,48.88211382113821 45.985772357723576,48.577235772357724 46.03658536585366,48.27235772357724 46.13821138211382,47.8150406504065" fill="none" stroke="black" stroke-width="0.6"></polyline><polyline points="46.13821138211382,47.8150406504065 46.239837398373986,47.30691056910569 46.290650406504064,46.951219512195124 46.290650406504064,46.7479674796748 46.290650406504064,46.54471544715447 46.239837398373986,46.392276422764226 46.1890243902439,46.290650406504064 46.13821138211382,46.1890243902439 46.08739837398374,46.08739837398374 46.03658536585366,46.03658536585366 45.985772357723576,45.985772357723576 45.88414634146341,45.9349593495935 45.833333333333336,45.88414634146341 45.78252032520325,45.88414634146341 45.68089430894309,45.88414634146341 45.579268292682926,45.88414634146341 45.42682926829268,45.9349593495935 45.22357723577235,46.08739837398374 45.02032520325203,46.239837398373986 44.8170731707317,46.49390243902439 44.5630081300813,46.7479674796748 44.359756097560975,47.0020325203252 44.15650406504065,47.25609756097561 43.953252032520325,47.510162601626014 43.75,47.916666666666664 43.49593495934959,48.323170731707314 43.292682926829265,48.729674796747965 43.140243902439025,49.136178861788615 42.9369918699187,49.59349593495935 42.83536585365854,49.949186991869915 42.733739837398375,50.2540650406504 42.68292682926829,50.55894308943089 42.63211382113821,50.762195121951216 42.58130081300813,51.0670731707317 42.58130081300813,51.422764227642276 42.53048780487805,51.67682926829268 42.53048780487805,51.93089430894309 42.53048780487805,52.235772357723576 42.53048780487805,52.4390243902439 42.53048780487805,52.69308943089431 42.58130081300813,52.9979674796748 42.58130081300813,53.302845528455286 42.58130081300813,53.50609756097561 42.58130081300813,53.709349593495936 42.58130081300813,54.0650406504065 42.58130081300813,54.26829268292683 42.63211382113821,54.420731707317074 42.68292682926829,54.6239837398374 42.733739837398375,54.77642276422764 42.78455284552845,55.03048780487805 42.83536585365854,55.233739837398375" fill="none" stroke="black" stroke-width="0.6"></polyline><polyline points="42.83536585365854,55.233739837398375 42.9369918699187,55.386178861788615 43.03861788617886,55.53861788617886 43.140243902439025,55.6910569105691 43.292682926829265,55.792682926829265 43.44512195121951,55.84349593495935 43.64837398373984,55.89430894308943 43.80081300813008,55.94512195121951 43.953252032520325,55.99593495934959 44.15650406504065,55.99593495934959 44.30894308943089,56.046747967479675 44.512195121951216,56.046747967479675 44.71544715447154,56.046747967479675 44.918699186991866,56.046747967479675 45.12195121951219,56.046747967479675 45.325203252032516,56.046747967479675 45.52845528455285,55.94512195121951 45.78252032520325,55.84349593495935 46.08739837398374,55.6910569105691 46.34146341463415,55.58943089430894 46.646341463414636,55.386178861788615 47.052845528455286,55.08130081300813 47.40853658536585,54.827235772357724 47.764227642276424,54.573170731707314 48.11991869918699,54.36991869918699 48.3739837398374,54.166666666666664 48.67886178861789,53.91260162601626 48.983739837398375,53.607723577235774 49.28861788617886,53.2520325203252 49.542682926829265,52.947154471544714 49.84756097560975,52.59146341463415 50.10162601626016,52.235772357723576 50.355691056910565,51.880081300813 50.45731707317073,51.6260162601626 50.609756097560975,51.47357723577235 50.8130081300813,51.11788617886179 51.016260162601625,50.8130081300813 51.21951219512195,50.45731707317073 51.47357723577235,50.05081300813008 51.67682926829268,49.64430894308943 51.93089430894309,49.28861788617886 52.083333333333336,49.08536585365854 52.1849593495935,48.83130081300813 52.28658536585366,48.6280487804878 52.4390243902439,48.3739837398374 52.540650406504064,48.06910569105691 52.642276422764226,47.8150406504065 52.69308943089431,47.61178861788618 52.74390243902439,47.357723577235774 52.74390243902439,47.20528455284553 52.74390243902439,47.052845528455286" fill="none" stroke="black" stroke-width="0.6"></polyline><polyline points="52.74390243902439,47.052845528455286 52.74390243902439,46.90040650406504 52.74390243902439,46.798780487804876 52.74390243902439,46.697154471544714 52.69308943089431,46.59552845528455 52.642276422764226,46.54471544715447 52.59146341463415,46.44308943089431 52.540650406504064,46.34146341463415 52.489837398373986,46.290650406504064 52.4390243902439,46.239837398373986 52.33739837398374,46.239837398373986 52.28658536585366,46.1890243902439 52.235772357723576,46.1890243902439 52.1849593495935,46.13821138211382 52.13414634146341,46.13821138211382 52.083333333333336,46.13821138211382 52.03252032520325,46.13821138211382 52.03252032520325,46.13821138211382 51.981707317073166,46.13821138211382 51.981707317073166,46.13821138211382 51.93089430894309,46.13821138211382 51.880081300813,46.1890243902439 51.880081300813,46.1890243902439 51.829268292682926,46.239837398373986 51.77845528455284,46.290650406504064 51.72764227642276,46.392276422764226 51.67682926829268,46.49390243902439 51.575203252032516,46.59552845528455 51.47357723577235,46.7479674796748 51.37195121951219,46.951219512195124 51.27032520325203,47.15447154471545 51.11788617886179,47.357723577235774 50.96544715447154,47.61178861788618 50.8130081300813,47.916666666666664 50.71138211382114,48.06910569105691 50.66056910569105,48.22154471544715 50.50813008130081,48.52642276422764 50.30487804878049,48.83130081300813 50.10162601626016,49.28861788617886 49.89837398373984,49.74593495934959 49.64430894308943,50.203252032520325 49.4410569105691,50.609756097560975 49.28861788617886,50.86382113821138 49.1869918699187,51.11788617886179 49.03455284552845,51.37195121951219 48.93292682926829,51.52439024390244 48.88211382113821,51.72764227642276 48.83130081300813,51.981707317073166 48.729674796747965,52.1849593495935 48.67886178861789,52.4390243902439 48.67886178861789,52.642276422764226" fill="none" stroke="black" stroke-width="0.6"></polyline><polyline points="48.67886178861789,52.642276422764226 48.6280487804878,52.84552845528455 48.6280487804878,53.048780487804876 48.6280487804878,53.2520325203252 48.6280487804878,53.353658536585364 48.6280487804878,53.50609756097561 48.6280487804878,53.709349593495936 48.6280487804878,53.86178861788618 48.6280487804878,54.0650406504065 48.6280487804878,54.21747967479675 48.6280487804878,54.36991869918699 48.6280487804878,54.52235772357724 48.67886178861789,54.67479674796748 48.67886178861789,54.77642276422764 48.67886178861789,54.92886178861789 48.729674796747965,55.03048780487805 48.729674796747965,55.13211382113821 48.78048780487805,55.233739837398375 48.78048780487805,55.33536585365854 48.83130081300813,55.4369918699187 48.88211382113821,55.58943089430894 48.93292682926829,55.6910569105691 48.93292682926829,55.84349593495935 48.983739837398375,55.94512195121951 49.03455284552845,56.09756097560975 49.08536585365854,56.14837398373984 49.1869918699187,56.30081300813008 49.28861788617886,56.40243902439024 49.33943089430894,56.453252032520325 49.4410569105691,56.55487804878049 49.542682926829265,56.605691056910565 49.64430894308943,56.65650406504065 49.796747967479675,56.70731707317073 49.89837398373984,56.70731707317073 50.05081300813008,56.70731707317073 50.2540650406504,56.70731707317073 50.40650406504065,56.70731707317073 50.609756097560975,56.605691056910565 50.8130081300813,56.55487804878049 51.016260162601625,56.5040650406504 51.21951219512195,56.40243902439024 51.422764227642276,56.30081300813008 51.6260162601626,56.199186991869915 51.880081300813,56.09756097560975 52.13414634146341,55.94512195121951 52.33739837398374,55.792682926829265 52.642276422764226,55.58943089430894 52.896341463414636,55.386178861788615 53.15040650406504,55.18292682926829 53.45528455284553,54.979674796747965 53.709349593495936,54.72560975609756" fill="none" stroke="black" stroke-width="0.6"></polyline><polyline points="53.709349593495936,54.72560975609756 53.96341463414634,54.47154471544715 54.21747967479675,54.21747967479675 54.52235772357724,53.91260162601626 54.77642276422764,53.607723577235774 55.08130081300813,53.2520325203252 55.4369918699187,52.84552845528455 55.74186991869919,52.489837398373986 56.09756097560975,52.083333333333336 56.40243902439024,51.72764227642276 56.65650406504065,51.37195121951219 56.91056910569105,51.0670731707317 57.16463414634146,50.762195121951216 57.418699186991866,50.45731707317073 57.62195121951219,50.15243902439024 57.8760162601626,49.84756097560975 58.079268292682926,49.49186991869919 58.28252032520325,49.136178861788615 58.536585365853654,48.729674796747965 58.6890243902439,48.3739837398374 58.84146341463415,48.11991869918699 58.94308943089431,47.86585365853659 59.04471544715447,47.61178861788618 59.09552845528455,47.357723577235774 59.146341463414636,47.15447154471545 59.146341463414636,46.951219512195124 59.146341463414636,46.798780487804876 59.146341463414636,46.646341463414636 59.09552845528455,46.49390243902439 59.04471544715447,46.44308943089431 58.94308943089431,46.34146341463415 58.84146341463415,46.290650406504064 58.739837398373986,46.239837398373986 58.58739837398374,46.239837398373986 58.43495934959349,46.239837398373986 58.231707317073166,46.239837398373986 58.02845528455284,46.290650406504064 57.825203252032516,46.392276422764226 57.62195121951219,46.49390243902439 57.36788617886179,46.646341463414636 57.266260162601625,46.7479674796748 57.16463414634146,46.84959349593496 56.91056910569105,47.052845528455286 56.65650406504065,47.25609756097561 56.453252032520325,47.510162601626014 56.199186991869915,47.764227642276424 55.99593495934959,48.01829268292683 55.792682926829265,48.323170731707314 55.58943089430894,48.67886178861789 55.4369918699187,48.93292682926829 55.233739837398375,49.28861788617886" fill="none" stroke="black" stroke-width="0.6"></polyline><polyline points="55.233739837398375,49.28861788617886 55.18292682926829,49.4410569105691 55.08130081300813,49.64430894308943 54.92886178861789,50 54.827235772357724,50.30487804878049 54.72560975609756,50.66056910569105 54.6239837398374,50.96544715447154 54.52235772357724,51.27032520325203 54.47154471544715,51.6260162601626 54.420731707317074,51.93089430894309 54.36991869918699,52.235772357723576 54.36991869918699,52.540650406504064 54.31910569105691,52.79471544715447 54.31910569105691,53.09959349593496 54.31910569105691,53.40447154471545 54.31910569105691,53.65853658536585 54.31910569105691,53.91260162601626 54.36991869918699,54.166666666666664 54.36991869918699,54.36991869918699 54.420731707317074,54.573170731707314 54.47154471544715,54.827235772357724 54.573170731707314,55.03048780487805 54.6239837398374,55.18292682926829 54.72560975609756,55.28455284552845 54.72560975609756,55.386178861788615 54.77642276422764,55.4369918699187 54.8780487804878,55.53861788617886 54.979674796747965,55.640243902439025 55.08130081300813,55.6910569105691 55.18292682926829,55.792682926829265 55.28455284552845,55.84349593495935 55.386178861788615,55.89430894308943 55.53861788617886,55.94512195121951 55.6910569105691,55.99593495934959 55.792682926829265,55.99593495934959 55.94512195121951,56.046747967479675 56.046747967479675,56.046747967479675 56.199186991869915,56.046747967479675 56.30081300813008,56.046747967479675 56.453252032520325,56.046747967479675 56.55487804878049,56.046747967479675 56.70731707317073,56.046747967479675 56.859756097560975,56.046747967479675 56.91056910569105,56.046747967479675 56.96138211382114,56.046747967479675 57.11382113821138,56.046747967479675 57.266260162601625,56.046747967479675 57.418699186991866,55.99593495934959 57.57113821138211,55.94512195121951 57.72357723577235,55.89430894308943 57.8760162601626,55.84349593495935" fill="none" stroke="black" stroke-width="0.6"></polyline><polyline points="57.8760162601626,55.84349593495935 58.079268292682926,55.74186991869919 58.28252032520325,55.640243902439025 58.485772357723576,55.48780487804878 58.739837398373986,55.386178861788615 58.94308943089431,55.233739837398375 59.146341463414636,55.08130081300813 59.40040650406504,54.92886178861789 59.603658536585364,54.72560975609756 59.857723577235774,54.573170731707314 60.11178861788618,54.36991869918699 60.3150406504065,54.166666666666664 60.51829268292683,54.014227642276424 60.72154471544715,53.8109756097561 60.8739837398374,53.65853658536585 61.02642276422764,53.50609756097561 61.229674796747965,53.40447154471545 61.33130081300813,53.2520325203252 61.43292682926829,53.201219512195124 61.58536585365854,53.09959349593496 61.636178861788615,53.09959349593496 61.6869918699187,53.09959349593496" fill="none" stroke="black" stroke-width="0.6"></polyline><polyline points="38.262195121951216,76.42276422764228 38.109756097560975,76.42276422764228 38.00813008130081,76.42276422764228 37.855691056910565,76.42276422764228 37.7540650406504,76.3719512195122 37.703252032520325,76.3719512195122 37.60162601626016,76.3211382113821 37.55081300813008,76.27032520325203 37.55081300813008,76.27032520325203 37.5,76.21951219512195 37.449186991869915,76.16869918699187 37.39837398373984,76.11788617886178 37.39837398373984,76.11788617886178 37.34756097560975,76.0670731707317 37.34756097560975,76.0670731707317 37.296747967479675,76.01626016260163 37.296747967479675,76.01626016260163 37.296747967479675,76.01626016260163 37.296747967479675,76.01626016260163 37.296747967479675,76.01626016260163 37.296747967479675,76.01626016260163 37.296747967479675,76.01626016260163 37.296747967479675,76.01626016260163 37.296747967479675,76.01626016260163 37.34756097560975,76.01626016260163 37.39837398373984,76.01626016260163 37.449186991869915,76.01626016260163 37.55081300813008,76.01626016260163 37.703252032520325,76.01626016260163 37.855691056910565,75.96544715447155 38.05894308943089,75.86382113821138 38.262195121951216,75.76219512195122 38.516260162601625,75.60975609756098 38.87195121951219,75.35569105691057 39.27845528455285,75.05081300813008 39.63414634146341,74.6951219512195 40.040650406504064,74.33943089430895 40.447154471544714,73.9329268292683 40.802845528455286,73.57723577235772 41.15853658536585,73.119918699187 41.514227642276424,72.76422764227642 41.86991869918699,72.35772357723577 42.22560975609756,71.95121951219512 42.58130081300813,71.54471544715447 42.9369918699187,71.03658536585365 43.292682926829265,70.57926829268293 43.64837398373984,70.17276422764228 44.0040650406504,69.8170731707317 44.20731707317073,69.51219512195122 44.46138211382114,69.15650406504065 44.766260162601625,68.75" fill="none" stroke="black" stroke-width="0.6"></polyline><polyline points="44.766260162601625,68.75 44.96951219512195,68.39430894308943 45.22357723577235,68.08943089430895 45.42682926829268,67.73373983739837 45.579268292682926,67.42886178861788 45.73170731707317,67.1239837398374 45.88414634146341,66.8191056910569 45.985772357723576,66.5650406504065 46.03658536585366,66.3109756097561 46.13821138211382,66.10772357723577 46.13821138211382,65.90447154471545 46.1890243902439,65.70121951219512 46.1890243902439,65.54878048780488 46.1890243902439,65.44715447154472 46.1890243902439,65.34552845528455 46.13821138211382,65.2439024390244 46.08739837398374,65.1930894308943 46.08739837398374,65.14227642276423 45.985772357723576,65.04065040650406 45.985772357723576,65.04065040650406 45.9349593495935,64.98983739837398 45.88414634146341,64.98983739837398 45.833333333333336,64.9390243902439 45.78252032520325,64.9390243902439 45.73170731707317,64.9390243902439 45.63008130081301,64.9390243902439 45.579268292682926,64.9390243902439 45.52845528455285,64.9390243902439 45.47764227642276,64.98983739837398 45.42682926829268,64.98983739837398 45.325203252032516,65.09146341463415 45.22357723577235,65.1930894308943 45.07113821138211,65.34552845528455 44.918699186991866,65.54878048780488 44.766260162601625,65.80284552845528 44.5630081300813,66.0569105691057 44.359756097560975,66.3109756097561 44.15650406504065,66.66666666666667 43.953252032520325,66.97154471544715 43.75,67.3780487804878 43.546747967479675,67.73373983739837 43.34349593495935,68.08943089430895 43.140243902439025,68.4451219512195 42.98780487804878,68.75 42.83536585365854,69.10569105691057 42.63211382113821,69.46138211382113 42.42886178861789,69.86788617886178 42.27642276422764,70.27439024390243 42.073170731707314,70.630081300813 41.97154471544715,70.9349593495935 41.81910569105691,71.29065040650406" fill="none" stroke="black" stroke-width="0.6"></polyline><polyline points="41.81910569105691,71.29065040650406 41.666666666666664,71.64634146341463 41.5650406504065,71.90040650406505 41.514227642276424,72.15447154471545 41.46341463414634,72.40853658536585 41.46341463414634,72.61178861788618 41.46341463414634,72.8150406504065 41.46341463414634,73.0691056910569 41.46341463414634,73.22154471544715 41.46341463414634,73.42479674796748 41.514227642276424,73.57723577235772 41.61585365853659,73.72967479674797 41.71747967479675,73.83130081300813 41.81910569105691,73.98373983739837 41.920731707317074,74.08536585365853 42.073170731707314,74.1869918699187 42.22560975609756,74.23780487804878 42.3780487804878,74.33943089430895 42.53048780487805,74.39024390243902 42.68292682926829,74.4410569105691 42.886178861788615,74.49186991869918 43.03861788617886,74.54268292682927 43.24186991869919,74.54268292682927 43.39430894308943,74.59349593495935 43.59756097560975,74.59349593495935 43.80081300813008,74.59349593495935 43.953252032520325,74.59349593495935 44.20731707317073,74.59349593495935 44.41056910569105,74.59349593495935 44.66463414634146,74.59349593495935 44.918699186991866,74.54268292682927 45.172764227642276,74.49186991869918 45.42682926829268,74.4410569105691 45.73170731707317,74.33943089430895 46.03658536585366,74.23780487804878 46.290650406504064,74.08536585365853 46.646341463414636,73.9329268292683 46.951219512195124,73.78048780487805 47.25609756097561,73.57723577235772 47.61178861788618,73.32317073170732 47.96747967479675,73.0691056910569 48.27235772357724,72.8150406504065 48.6280487804878,72.45934959349593 48.983739837398375,72.15447154471545 49.28861788617886,71.84959349593495 49.59349593495935,71.49390243902438 49.89837398373984,71.13821138211382 50.203252032520325,70.78252032520325 50.50813008130081,70.3760162601626 50.8130081300813,69.96951219512195 51.0670731707317,69.61382113821138" fill="none" stroke="black" stroke-width="0.6"></polyline><polyline points="51.0670731707317,69.61382113821138 51.32113821138211,69.2581300813008 51.575203252032516,68.85162601626016 51.829268292682926,68.4451219512195 52.03252032520325,68.03861788617886 52.235772357723576,67.73373983739837 52.33739837398374,67.42886178861788 52.489837398373986,67.1239837398374 52.59146341463415,66.8191056910569 52.642276422764226,66.51422764227642 52.69308943089431,66.3109756097561 52.69308943089431,66.15853658536585 52.69308943089431,66.10772357723577 52.69308943089431,66.0569105691057 52.642276422764226,66.0060975609756 52.642276422764226,66.0060975609756 52.59146341463415,65.95528455284553 52.540650406504064,65.95528455284553 52.489837398373986,65.95528455284553 52.4390243902439,65.95528455284553 52.38821138211382,65.95528455284553 52.33739837398374,65.95528455284553 52.28658536585366,65.95528455284553 52.235772357723576,65.95528455284553 52.13414634146341,66.0060975609756 52.083333333333336,66.0569105691057 51.981707317073166,66.15853658536585 51.93089430894309,66.26016260162602 51.829268292682926,66.41260162601625 51.72764227642276,66.5650406504065 51.575203252032516,66.76829268292683 51.47357723577235,66.97154471544715 51.32113821138211,67.27642276422765 51.11788617886179,67.53048780487805 50.96544715447154,67.78455284552845 50.8130081300813,68.03861788617886 50.66056910569105,68.29268292682927 50.50813008130081,68.54674796747967 50.355691056910565,68.75 50.2540650406504,68.95325203252033 50.10162601626016,69.20731707317073 50.05081300813008,69.41056910569105 49.949186991869915,69.61382113821138 49.84756097560975,69.8170731707317 49.796747967479675,70.02032520325203 49.69512195121951,70.22357723577235 49.64430894308943,70.42682926829268 49.542682926829265,70.57926829268293 49.49186991869919,70.78252032520325 49.4410569105691,70.8841463414634 49.4410569105691,70.98577235772358" fill="none" stroke="black" stroke-width="0.6"></polyline><polyline points="49.4410569105691,70.98577235772358 49.390243902439025,71.1890243902439 49.33943089430894,71.34146341463415 49.28861788617886,71.54471544715447 49.23780487804878,71.7479674796748 49.1869918699187,71.90040650406505 49.1869918699187,72.10365853658537 49.136178861788615,72.2560975609756 49.136178861788615,72.40853658536585 49.136178861788615,72.5609756097561 49.136178861788615,72.71341463414635 49.136178861788615,72.91666666666667 49.136178861788615,73.0691056910569 49.1869918699187,73.27235772357723 49.23780487804878,73.42479674796748 49.23780487804878,73.57723577235772 49.28861788617886,73.72967479674797 49.33943089430894,73.8821138211382 49.390243902439025,74.03455284552845 49.4410569105691,74.13617886178862 49.49186991869919,74.23780487804878 49.542682926829265,74.39024390243902 49.64430894308943,74.49186991869918 49.69512195121951,74.54268292682927 49.796747967479675,74.64430894308943 49.84756097560975,74.7459349593496 49.949186991869915,74.79674796747967 50.05081300813008,74.84756097560975 50.15243902439024,74.89837398373983 50.2540650406504,74.94918699186992 50.355691056910565,75 50.45731707317073,75 50.50813008130081,75.05081300813008 50.609756097560975,75.05081300813008 50.762195121951216,75.05081300813008 50.91463414634146,75.05081300813008 51.0670731707317,75.05081300813008 51.21951219512195,75.05081300813008 51.422764227642276,75 51.575203252032516,74.89837398373983 51.77845528455284,74.84756097560975 52.03252032520325,74.7459349593496 52.235772357723576,74.59349593495935 52.489837398373986,74.4410569105691 52.74390243902439,74.23780487804878 52.9979674796748,74.03455284552845 53.302845528455286,73.83130081300813 53.55691056910569,73.57723577235772 53.86178861788618,73.27235772357723 54.166666666666664,72.96747967479675 54.47154471544715,72.71341463414635" fill="none" stroke="black" stroke-width="0.6"></polyline><polyline points="54.47154471544715,72.71341463414635 54.77642276422764,72.45934959349593 55.13211382113821,72.15447154471545 55.4369918699187,71.84959349593495 55.792682926829265,71.49390243902438 56.14837398373984,71.1890243902439 56.453252032520325,70.83333333333333 56.80894308943089,70.47764227642276 57.0630081300813,70.1219512195122 57.36788617886179,69.76626016260163 57.62195121951219,69.41056910569105 57.72357723577235,69.20731707317073 58.079268292682926,68.69918699186992 58.28252032520325,68.34349593495935 58.33333333333333,68.1910569105691 58.38414634146341,68.03861788617886 58.536585365853654,67.78455284552845 58.63821138211382,67.47967479674797 58.6890243902439,67.27642276422765 58.739837398373986,67.1239837398374 58.739837398373986,67.02235772357723 58.790650406504064,66.92073170731707 58.790650406504064,66.869918699187 58.790650406504064,66.76829268292683 58.739837398373986,66.71747967479675 58.6890243902439,66.61585365853658 58.58739837398374,66.5650406504065 58.536585365853654,66.51422764227642 58.43495934959349,66.46341463414635 58.33333333333333,66.41260162601625 58.231707317073166,66.41260162601625 58.130081300813,66.41260162601625 58.02845528455284,66.41260162601625 57.97764227642276,66.41260162601625 57.825203252032516,66.41260162601625 57.72357723577235,66.41260162601625 57.62195121951219,66.41260162601625 57.46951219512195,66.46341463414635 57.3170731707317,66.5650406504065 57.16463414634146,66.66666666666667 57.012195121951216,66.76829268292683 56.80894308943089,66.92073170731707 56.605691056910565,67.07317073170732 56.40243902439024,67.27642276422765 56.199186991869915,67.53048780487805 55.94512195121951,67.78455284552845 55.6910569105691,68.08943089430895 55.4369918699187,68.39430894308943 55.233739837398375,68.69918699186992 55.03048780487805,69.05487804878048 54.77642276422764,69.41056910569105" fill="none" stroke="black" stroke-width="0.6"></polyline><polyline points="54.77642276422764,69.41056910569105 54.6239837398374,69.76626016260163 54.47154471544715,70.0711382113821 54.31910569105691,70.42682926829268 54.21747967479675,70.73170731707317 54.0650406504065,71.08739837398373 53.96341463414634,71.4430894308943 53.96341463414634,71.59552845528455 53.91260162601626,71.7479674796748 53.8109756097561,72.10365853658537 53.760162601626014,72.40853658536585 53.709349593495936,72.66260162601625 53.709349593495936,72.91666666666667 53.709349593495936,73.22154471544715 53.709349593495936,73.42479674796748 53.709349593495936,73.67886178861788 53.760162601626014,73.8821138211382 53.8109756097561,74.08536585365853 53.86178861788618,74.28861788617886 53.96341463414634,74.4410569105691 54.0650406504065,74.64430894308943 54.166666666666664,74.7459349593496 54.26829268292683,74.89837398373983 54.420731707317074,75 54.52235772357724,75.10162601626016 54.72560975609756,75.20325203252033 54.8780487804878,75.2540650406504 55.03048780487805,75.30487804878048 55.233739837398375,75.30487804878048 55.386178861788615,75.30487804878048 55.640243902439025,75.30487804878048 55.84349593495935,75.30487804878048 56.046747967479675,75.30487804878048 56.14837398373984,75.30487804878048 56.25,75.30487804878048 56.453252032520325,75.2540650406504 56.70731707317073,75.15243902439025 56.96138211382114,75.05081300813008 57.16463414634146,75 57.36788617886179,74.89837398373983 57.672764227642276,74.79674796747967 57.8760162601626,74.6951219512195 58.079268292682926,74.54268292682927 58.33333333333333,74.4410569105691 58.58739837398374,74.28861788617886 58.84146341463415,74.08536585365853 59.09552845528455,73.83130081300813 59.298780487804876,73.6280487804878 59.552845528455286,73.42479674796748 59.75609756097561,73.17073170731707 59.90853658536585,73.01829268292683" fill="none" stroke="black" stroke-width="0.6"></polyline><polyline points="59.90853658536585,73.01829268292683 60.0609756097561,72.8150406504065 60.21341463414634,72.66260162601625 60.3150406504065,72.5609756097561 60.36585365853659,72.51016260162602 60.416666666666664,72.45934959349593 60.416666666666664,72.40853658536585 60.46747967479675,72.40853658536585 60.46747967479675,72.40853658536585 60.46747967479675,72.40853658536585 60.46747967479675,72.40853658536585" fill="none" stroke="black" stroke-width="0.6"></polyline><polyline points="34.959349593495936,95.9349593495935 34.857723577235774,95.9349593495935 34.80691056910569,95.9349593495935 34.65447154471545,95.9349593495935 34.603658536585364,95.9349593495935 34.552845528455286,95.9349593495935 34.5020325203252,95.9349593495935 34.451219512195124,95.9349593495935 34.451219512195124,95.9349593495935 34.451219512195124,95.9349593495935 34.451219512195124,95.9349593495935 34.451219512195124,95.9349593495935 34.451219512195124,95.9349593495935 34.5020325203252,95.9349593495935 34.5020325203252,95.9349593495935 34.5020325203252,95.9349593495935 34.5020325203252,95.9349593495935 34.5020325203252,95.9349593495935 34.552845528455286,95.9349593495935 34.552845528455286,95.8841463414634 34.603658536585364,95.8841463414634 34.603658536585364,95.8841463414634 34.70528455284553,95.8841463414634 34.75609756097561,95.8841463414634 34.857723577235774,95.8841463414634 35.010162601626014,95.8841463414634 35.16260162601626,95.83333333333333 35.36585365853659,95.83333333333333 35.61991869918699,95.78252032520325 35.97560975609756,95.68089430894308 36.33130081300813,95.57926829268293 36.73780487804878,95.42682926829268 36.9410569105691,95.32520325203252 37.14430894308943,95.22357723577235 37.55081300813008,95.02032520325203 37.95731707317073,94.76626016260163 38.36382113821138,94.51219512195122 38.77032520325203,94.2581300813008 39.07520325203252,94.0040650406504 39.48170731707317,93.69918699186992 39.88821138211382,93.34349593495935 40.24390243902439,92.98780487804878 40.65040650406504,92.58130081300813 41.05691056910569,92.1239837398374 41.41260162601626,91.71747967479675 41.76829268292683,91.3109756097561 42.1239837398374,90.90447154471545 42.42886178861789,90.54878048780488 42.733739837398375,90.14227642276423 43.03861788617886,89.6849593495935 43.292682926829265,89.27845528455285" fill="none" stroke="black" stroke-width="0.6"></polyline><polyline points="43.292682926829265,89.27845528455285 43.546747967479675,88.8719512195122 43.80081300813008,88.41463414634146 44.0040650406504,88.0081300813008 44.20731707317073,87.65243902439025 44.359756097560975,87.2459349593496 44.512195121951216,86.9410569105691 44.61382113821138,86.63617886178862 44.71544715447154,86.22967479674797 44.766260162601625,85.92479674796748 44.8170731707317,85.619918699187 44.8170731707317,85.3150406504065 44.8170731707317,85.0609756097561 44.8170731707317,84.8069105691057 44.8170731707317,84.65447154471545 44.766260162601625,84.55284552845528 44.71544715447154,84.45121951219512 44.61382113821138,84.34959349593495 44.5630081300813,84.29878048780488 44.512195121951216,84.29878048780488 44.512195121951216,84.29878048780488 44.41056910569105,84.2479674796748 44.359756097560975,84.1971544715447 44.30894308943089,84.1971544715447 44.20731707317073,84.1971544715447 44.105691056910565,84.1971544715447 43.953252032520325,84.1971544715447 43.80081300813008,84.34959349593495 43.59756097560975,84.5020325203252 43.39430894308943,84.7560975609756 43.1910569105691,85.0609756097561 42.98780487804878,85.3150406504065 42.78455284552845,85.619918699187 42.58130081300813,85.92479674796748 42.327235772357724,86.28048780487805 42.22560975609756,86.48373983739837 42.073170731707314,86.6869918699187 41.81910569105691,87.14430894308943 41.5650406504065,87.65243902439025 41.36178861788618,88.16056910569105 41.15853658536585,88.5670731707317 41.00609756097561,88.92276422764228 40.90447154471545,89.27845528455285 40.7520325203252,89.6849593495935 40.65040650406504,90.04065040650406 40.4979674796748,90.39634146341463 40.447154471544714,90.7520325203252 40.34552845528455,91.10772357723577 40.24390243902439,91.41260162601625 40.142276422764226,91.76829268292683 40.09146341463415,92.02235772357723" fill="none" stroke="black" stroke-width="0.6"></polyline><polyline points="40.09146341463415,92.02235772357723 40.09146341463415,92.1239837398374 40.040650406504064,92.22560975609755 40.040650406504064,92.53048780487805 39.989837398373986,92.73373983739837 39.989837398373986,92.9369918699187 39.989837398373986,93.1910569105691 39.989837398373986,93.39430894308943 39.989837398373986,93.59756097560975 40.040650406504064,93.80081300813008 40.09146341463415,94.0040650406504 40.142276422764226,94.20731707317073 40.24390243902439,94.3089430894309 40.34552845528455,94.41056910569105 40.447154471544714,94.51219512195122 40.59959349593496,94.5630081300813 40.701219512195124,94.61382113821138 40.90447154471545,94.66463414634146 41.05691056910569,94.71544715447155 41.260162601626014,94.76626016260163 41.41260162601626,94.8170731707317 41.61585365853659,94.8170731707317 41.81910569105691,94.8170731707317 42.02235772357724,94.8170731707317 42.27642276422764,94.76626016260163 42.53048780487805,94.71544715447155 42.78455284552845,94.61382113821138 43.03861788617886,94.5630081300813 43.292682926829265,94.46138211382113 43.546747967479675,94.35975609756098 43.80081300813008,94.3089430894309 44.05487804878049,94.20731707317073 44.359756097560975,94.10569105691057 44.66463414634146,94.0040650406504 44.918699186991866,93.90243902439025 45.172764227642276,93.75 45.47764227642276,93.59756097560975 45.78252032520325,93.4451219512195 46.08739837398374,93.24186991869918 46.392276422764226,93.03861788617886 46.646341463414636,92.83536585365853 47.0020325203252,92.58130081300813 47.30691056910569,92.27642276422765 47.61178861788618,92.02235772357723 47.96747967479675,91.71747967479675 48.27235772357724,91.41260162601625 48.577235772357724,91.0569105691057 48.83130081300813,90.70121951219512 49.136178861788615,90.34552845528455 49.390243902439025,90.04065040650406 49.69512195121951,89.58333333333333" fill="none" stroke="black" stroke-width="0.6"></polyline><polyline points="49.69512195121951,89.58333333333333 50,89.1260162601626 50.203252032520325,88.77032520325203 50.355691056910565,88.46544715447155 50.55894308943089,88.16056910569105 50.71138211382114,87.80487804878048 50.8130081300813,87.55081300813008 50.91463414634146,87.29674796747967 50.96544715447154,87.04268292682927 51.016260162601625,86.83943089430895 51.016260162601625,86.58536585365853 51.016260162601625,86.4329268292683 51.016260162601625,86.28048780487805 50.91463414634146,86.1280487804878 50.86382113821138,86.02642276422765 50.762195121951216,85.92479674796748 50.66056910569105,85.8739837398374 50.55894308943089,85.82317073170732 50.45731707317073,85.77235772357723 50.30487804878049,85.77235772357723 50.203252032520325,85.72154471544715 50.10162601626016,85.72154471544715 50,85.72154471544715 49.89837398373984,85.72154471544715 49.796747967479675,85.72154471544715 49.69512195121951,85.82317073170732 49.59349593495935,85.92479674796748 49.49186991869919,86.07723577235772 49.33943089430894,86.22967479674797 49.1869918699187,86.48373983739837 49.03455284552845,86.73780487804878 48.88211382113821,86.99186991869918 48.729674796747965,87.29674796747967 48.52642276422764,87.60162601626016 48.3739837398374,87.95731707317073 48.170731707317074,88.26219512195122 47.96747967479675,88.66869918699187 47.8150406504065,89.02439024390243 47.61178861788618,89.48170731707317 47.40853658536585,89.9390243902439 47.25609756097561,90.34552845528455 47.103658536585364,90.70121951219512 47.052845528455286,90.85365853658536 46.951219512195124,91.0569105691057 46.84959349593496,91.3109756097561 46.7479674796748,91.5650406504065 46.646341463414636,91.869918699187 46.54471544715447,92.07317073170732 46.49390243902439,92.27642276422765 46.44308943089431,92.53048780487805 46.44308943089431,92.73373983739837" fill="none" stroke="black" stroke-width="0.6"></polyline><polyline points="46.44308943089431,92.73373983739837 46.44308943089431,92.9369918699187 46.44308943089431,93.1910569105691 46.44308943089431,93.34349593495935 46.44308943089431,93.54674796747967 46.44308943089431,93.75 46.49390243902439,93.90243902439025 46.49390243902439,94.05487804878048 46.59552845528455,94.20731707317073 46.646341463414636,94.35975609756098 46.7479674796748,94.51219512195122 46.84959349593496,94.66463414634146 46.951219512195124,94.76626016260163 47.052845528455286,94.86788617886178 47.20528455284553,94.96951219512195 47.357723577235774,95.0711382113821 47.510162601626014,95.1219512195122 47.71341463414634,95.17276422764228 47.916666666666664,95.22357723577235 48.11991869918699,95.22357723577235 48.323170731707314,95.27439024390243 48.52642276422764,95.27439024390243 48.78048780487805,95.27439024390243 49.03455284552845,95.22357723577235 49.23780487804878,95.17276422764228 49.49186991869919,95.0711382113821 49.796747967479675,94.96951219512195 50.05081300813008,94.86788617886178 50.30487804878049,94.71544715447155 50.609756097560975,94.5630081300813 50.91463414634146,94.41056910569105 51.168699186991866,94.2581300813008 51.47357723577235,94.05487804878048 51.72764227642276,93.85162601626016 52.03252032520325,93.64837398373983 52.28658536585366,93.39430894308943 52.59146341463415,93.14024390243902 52.84552845528455,92.83536585365853 52.9979674796748,92.6321138211382 53.15040650406504,92.47967479674797 53.45528455284553,92.17479674796748 53.760162601626014,91.76829268292683 54.014227642276424,91.46341463414635 54.26829268292683,91.10772357723577 54.52235772357724,90.70121951219512 54.72560975609756,90.34552845528455 54.979674796747965,89.9390243902439 55.233739837398375,89.58333333333333 55.4369918699187,89.17682926829268 55.640243902439025,88.8211382113821 55.84349593495935,88.41463414634146" fill="none" stroke="black" stroke-width="0.6"></polyline><polyline points="55.84349593495935,88.41463414634146 55.99593495934959,88.0589430894309 56.199186991869915,87.65243902439025 56.35162601626016,87.29674796747967 56.453252032520325,86.99186991869918 56.55487804878049,86.73780487804878 56.65650406504065,86.48373983739837 56.70731707317073,86.28048780487805 56.70731707317073,86.1280487804878 56.75813008130081,85.97560975609755 56.75813008130081,85.82317073170732 56.75813008130081,85.72154471544715 56.70731707317073,85.67073170731707 56.65650406504065,85.619918699187 56.605691056910565,85.5691056910569 56.55487804878049,85.51829268292683 56.5040650406504,85.46747967479675 56.453252032520325,85.46747967479675 56.40243902439024,85.46747967479675 56.35162601626016,85.46747967479675 56.25,85.46747967479675 56.199186991869915,85.46747967479675 56.14837398373984,85.46747967479675 56.046747967479675,85.46747967479675 55.94512195121951,85.51829268292683 55.84349593495935,85.619918699187 55.74186991869919,85.72154471544715 55.640243902439025,85.82317073170732 55.48780487804878,85.97560975609755 55.33536585365854,86.1280487804878 55.18292682926829,86.33130081300813 54.979674796747965,86.53455284552845 54.827235772357724,86.73780487804878 54.6239837398374,86.99186991869918 54.420731707317074,87.2459349593496 54.21747967479675,87.5 54.014227642276424,87.7540650406504 53.8109756097561,87.95731707317073 53.65853658536585,88.21138211382113 53.55691056910569,88.36382113821138 53.45528455284553,88.51626016260163 53.2520325203252,88.8211382113821 53.048780487804876,89.17682926829268 52.896341463414636,89.48170731707317 52.74390243902439,89.73577235772358 52.59146341463415,89.98983739837398 52.489837398373986,90.24390243902438 52.38821138211382,90.4979674796748 52.28658536585366,90.7520325203252 52.1849593495935,91.0569105691057 52.083333333333336,91.3109756097561" fill="none" stroke="black" stroke-width="0.6"></polyline><polyline points="52.083333333333336,91.3109756097561 52.03252032520325,91.5650406504065 51.981707317073166,91.8191056910569 51.93089430894309,92.02235772357723 51.93089430894309,92.27642276422765 51.93089430894309,92.53048780487805 51.93089430894309,92.73373983739837 51.93089430894309,92.98780487804878 51.93089430894309,93.1910569105691 51.981707317073166,93.39430894308943 52.03252032520325,93.59756097560975 52.083333333333336,93.75 52.13414634146341,93.90243902439025 52.235772357723576,94.05487804878048 52.33739837398374,94.20731707317073 52.38821138211382,94.2581300813008 52.4390243902439,94.35975609756098 52.540650406504064,94.46138211382113 52.642276422764226,94.5630081300813 52.79471544715447,94.66463414634146 52.947154471544714,94.76626016260163 53.048780487804876,94.76626016260163 53.09959349593496,94.8170731707317 53.302845528455286,94.86788617886178 53.45528455284553,94.91869918699187 53.65853658536585,94.91869918699187 53.8109756097561,94.91869918699187 54.0650406504065,94.91869918699187 54.26829268292683,94.91869918699187 54.47154471544715,94.86788617886178 54.72560975609756,94.8170731707317 54.92886178861789,94.71544715447155 55.18292682926829,94.61382113821138 55.4369918699187,94.46138211382113 55.640243902439025,94.35975609756098 55.84349593495935,94.2581300813008 56.09756097560975,94.15650406504065 56.30081300813008,94.05487804878048 56.5040650406504,93.95325203252033 56.70731707317073,93.80081300813008 56.91056910569105,93.64837398373983 57.11382113821138,93.4959349593496 57.36788617886179,93.29268292682927 57.57113821138211,93.08943089430895 57.77439024390244,92.88617886178862 57.97764227642276,92.6321138211382 58.130081300813,92.47967479674797 58.33333333333333,92.27642276422765 58.485772357723576,92.1239837398374 58.63821138211382,91.97154471544715 58.739837398373986,91.8191056910569" fill="none" stroke="black" stroke-width="0.6"></polyline><polyline points="58.739837398373986,91.8191056910569 58.892276422764226,91.61585365853658 58.99390243902439,91.41260162601625 59.146341463414636,91.20934959349593" fill="none" stroke="black" stroke-width="0.6"></polyline></svg>