<svg height="100" width="100" preserveAspectRatio="xMidYMid meet"><polyline points="50.203252032520325,50 50.203252032520325,50 50.203252032520325,50 50.203252032520325,50.05081300813008 50.203252032520325,50.05081300813008 50.203252032520325,50.05081300813008 50.203252032520325,50.05081300813008 50.203252032520325,50.05081300813008 50.203252032520325,50.05081300813008 50.203252032520325,50.05081300813008 50.203252032520325,50.05081300813008 50.203252032520325,50.05081300813008 50.203252032520325,50.05081300813008 50.203252032520325,50.05081300813008 50.203252032520325,50.05081300813008 50.203252032520325,50.05081300813008 50.203252032520325,50.05081300813008 50.203252032520325,50.05081300813008 50.203252032520325,50.05081300813008 50.203252032520325,50.05081300813008 50.203252032520325,50.05081300813008 50.203252032520325,50.05081300813008 50.203252032520325,50.05081300813008 50.203252032520325,50.05081300813008 50.203252032520325,50.05081300813008 50.203252032520325,50.05081300813008 50.203252032520325,50.05081300813008 50.203252032520325,50.05081300813008 50.203252032520325,50.05081300813008 50.203252032520325,50.05081300813008 50.203252032520325,50.05081300813008 50.203252032520325,50.05081300813008 50.203252032520325,50.05081300813008 50.203252032520325,50.05081300813008 50.203252032520325,50.05081300813008 50.203252032520325,50.05081300813008 50.203252032520325,50.05081300813008 50.203252032520325,50.05081300813008 50.203252032520325,50.05081300813008 50.203252032520325,50.05081300813008 50.203252032520325,50.05081300813008 50.203252032520325,50.05081300813008 50.203252032520325,50.05081300813008 50.203252032520325,50.05081300813008 50.203252032520325,50.05081300813008 50.203252032520325,50.05081300813008 50.203252032520325,50.05081300813008 50.203252032520325,50.05081300813008 50.203252032520325,50.05081300813008 50.203252032520325,50.05081300813008 50.203252032520325,50.05081300813008" fill="none" stroke="black" stroke-width="0.6"></polyline><polyline points="50.203252032520325,50.05081300813008 50.203252032520325,50.05081300813008 50.203252032520325,50.05081300813008 50.203252032520325,50.05081300813008 50.203252032520325,50.05081300813008 50.203252032520325,50.05081300813008 50.203252032520325,50.05081300813008 50.203252032520325,50.05081300813008 50.203252032520325,50.05081300813008 50.203252032520325,50.05081300813008 50.203252032520325,50.05081300813008 50.203252032520325,50.05081300813008 50.203252032520325,50.05081300813008 50.203252032520325,50.05081300813008 50.203252032520325,50.05081300813008 50.203252032520325,50.05081300813008 50.203252032520325,50.05081300813008 50.203252032520325,50.05081300813008 50.203252032520325,50.05081300813008 50.203252032520325,50.05081300813008 50.203252032520325,50.05081300813008 50.203252032520325,50.05081300813008 50.203252032520325,50.05081300813008 50.203252032520325,50.05081300813008 50.203252032520325,50.05081300813008 50.203252032520325,50.05081300813008 50.203252032520325,50.05081300813008 50.203252032520325,50.05081300813008 50.203252032520325,50.05081300813008 50.203252032520325,50.05081300813008 50.203252032520325,50.05081300813008 50.203252032520325,50.05081300813008 50.203252032520325,50.05081300813008 50.203252032520325,50.05081300813008 50.203252032520325,50.05081300813008 50.203252032520325,50.05081300813008 50.203252032520325,50.05081300813008 50.203252032520325,50.05081300813008 50.203252032520325,50.05081300813008 50.203252032520325,50.05081300813008 50.203252032520325,50.05081300813008 50.203252032520325,50.05081300813008 50.203252032520325,50.05081300813008 50.203252032520325,50.05081300813008 50.203252032520325,50.05081300813008 50.203252032520325,50.05081300813008 50.203252032520325,50.05081300813008 50.203252032520325,50.05081300813008 50.203252032520325,50.05081300813008 50.203252032520325,50.05081300813008 50.203252032520325,50.05081300813008" fill="none" stroke="black" stroke-width="0.6"></polyline><polyline points="50.203252032520325,50.05081300813008 50.203252032520325,50.05081300813008 50.203252032520325,50.05081300813008 50.203252032520325,50.05081300813008 50.203252032520325,50.05081300813008 50.203252032520325,50.05081300813008 50.203252032520325,50.05081300813008 50.203252032520325,50.05081300813008 50.203252032520325,50.05081300813008 50.203252032520325,50.05081300813008 50.203252032520325,50.05081300813008 50.203252032520325,50.05081300813008 50.203252032520325,50.05081300813008 50.203252032520325,50.05081300813008 50.203252032520325,50.05081300813008 50.203252032520325,50.05081300813008 50.203252032520325,50.05081300813008 50.203252032520325,50.05081300813008 50.203252032520325,50.05081300813008 50.203252032520325,50.05081300813008 50.203252032520325,50.05081300813008 50.203252032520325,50.05081300813008 50.203252032520325,50.05081300813008 50.203252032520325,50.05081300813008 50.203252032520325,50.05081300813008 50.203252032520325,50.05081300813008 50.203252032520325,50.05081300813008 50.203252032520325,50.05081300813008 50.203252032520325,50.05081300813008 50.203252032520325,50.05081300813008 50.203252032520325,50.05081300813008 50.203252032520325,50.05081300813008 50.203252032520325,50.05081300813008 50.203252032520325,50.05081300813008 50.203252032520325,50.05081300813008 50.203252032520325,50.05081300813008 50.203252032520325,50.05081300813008 50.203252032520325,50.05081300813008 50.203252032520325,50.05081300813008 50.203252032520325,50.05081300813008 50.203252032520325,50.05081300813008 50.203252032520325,50.05081300813008 50.203252032520325,50.05081300813008 50.203252032520325,50.05081300813008 50.203252032520325,50.05081300813008 50.203252032520325,50.05081300813008 50.203252032520325,50.05081300813008 50.203252032520325,50.05081300813008 50.203252032520325,50.05081300813008 50.203252032520325,50.05081300813008 50.203252032520325,50.05081300813008" fill="none" stroke="black" stroke-width="0.6"></polyline><polyline points="50.203252032520325,50.05081300813008 50.203252032520325,50.05081300813008 50.203252032520325,50.05081300813008 50.203252032520325,50.05081300813008 50.203252032520325,50.05081300813008 50.203252032520325,50.05081300813008 50.203252032520325,50.05081300813008 50.203252032520325,50.05081300813008 50.203252032520325,50.05081300813008 50.203252032520325,50.05081300813008 50.203252032520325,50.05081300813008 50.203252032520325,50.05081300813008 50.203252032520325,50.05081300813008 50.203252032520325,50.05081300813008 50.203252032520325,50.05081300813008 50.203252032520325,50.05081300813008 50.203252032520325,50.05081300813008 50.203252032520325,50.05081300813008 50.203252032520325,50.05081300813008 50.203252032520325,50.05081300813008 50.203252032520325,50.05081300813008 50.203252032520325,50.05081300813008 50.203252032520325,50.05081300813008 50.203252032520325,50.05081300813008 50.203252032520325,50.05081300813008 50.203252032520325,50.05081300813008 50.203252032520325,50.05081300813008 50.203252032520325,50.05081300813008 50.203252032520325,50.05081300813008 50.203252032520325,50.05081300813008 50.203252032520325,50.05081300813008 50.203252032520325,50.05081300813008 50.203252032520325,50.05081300813008 50.203252032520325,50.05081300813008 50.203252032520325,50.05081300813008 50.203252032520325,50.05081300813008 50.203252032520325,50.05081300813008 50.203252032520325,50.05081300813008 50.203252032520325,50.05081300813008 50.203252032520325,50.05081300813008 50.203252032520325,50.05081300813008 50.203252032520325,50.05081300813008 50.203252032520325,50.05081300813008 50.203252032520325,50.05081300813008 50.203252032520325,50.05081300813008 50.203252032520325,50.05081300813008 50.203252032520325,50.05081300813008 50.203252032520325,50.05081300813008 50.203252032520325,50.05081300813008 50.203252032520325,50.05081300813008 50.203252032520325,50.05081300813008" fill="none" stroke="black" stroke-width="0.6"></polyline><polyline points="50.203252032520325,50.05081300813008 50.203252032520325,50.05081300813008 50.203252032520325,50.05081300813008 50.203252032520325,50.05081300813008 50.203252032520325,50.05081300813008 50.203252032520325,50.05081300813008 50.203252032520325,50.05081300813008 50.203252032520325,50.05081300813008 50.203252032520325,50.05081300813008" fill="none" stroke="black" stroke-width="0.6"></polyline><polyline points="56.91056910569105,49.69512195121951 56.91056910569105,49.69512195121951 56.91056910569105,49.69512195121951 56.91056910569105,49.69512195121951 56.91056910569105,49.74593495934959 56.91056910569105,49.74593495934959 56.91056910569105,49.74593495934959 56.91056910569105,49.74593495934959 56.91056910569105,49.74593495934959 56.91056910569105,49.74593495934959 56.91056910569105,49.74593495934959 56.91056910569105,49.74593495934959 56.91056910569105,49.74593495934959 56.91056910569105,49.74593495934959 56.91056910569105,49.74593495934959 56.91056910569105,49.74593495934959 56.91056910569105,49.74593495934959 56.91056910569105,49.74593495934959 56.91056910569105,49.74593495934959 56.91056910569105,49.74593495934959 56.91056910569105,49.74593495934959 56.859756097560975,49.74593495934959 56.859756097560975,49.74593495934959 56.80894308943089,49.796747967479675 56.80894308943089,49.796747967479675 56.80894308943089,49.796747967479675 56.75813008130081,49.796747967479675 56.75813008130081,49.796747967479675 56.75813008130081,49.796747967479675 56.75813008130081,49.796747967479675 56.70731707317073,49.796747967479675 56.70731707317073,49.796747967479675 56.70731707317073,49.796747967479675 56.70731707317073,49.796747967479675 56.70731707317073,49.796747967479675 56.70731707317073,49.796747967479675 56.70731707317073,49.796747967479675 56.70731707317073,49.796747967479675 56.65650406504065,49.796747967479675 56.65650406504065,49.796747967479675 56.65650406504065,49.796747967479675 56.65650406504065,49.796747967479675 56.65650406504065,49.796747967479675 56.65650406504065,49.796747967479675 56.65650406504065,49.796747967479675 56.65650406504065,49.796747967479675 56.65650406504065,49.796747967479675 56.65650406504065,49.796747967479675 56.65650406504065,49.796747967479675 56.65650406504065,49.796747967479675 56.65650406504065,49.796747967479675" fill="none" stroke="black" stroke-width="0.6"></polyline><polyline points="56.65650406504065,49.796747967479675 56.65650406504065,49.796747967479675 56.65650406504065,49.796747967479675 56.65650406504065,49.796747967479675 56.65650406504065,49.796747967479675 56.65650406504065,49.796747967479675 56.65650406504065,49.796747967479675 56.65650406504065,49.796747967479675 56.65650406504065,49.796747967479675 56.65650406504065,49.796747967479675 56.65650406504065,49.796747967479675 56.65650406504065,49.796747967479675 56.65650406504065,49.796747967479675 56.65650406504065,49.796747967479675 56.65650406504065,49.796747967479675 56.65650406504065,49.796747967479675 56.65650406504065,49.796747967479675 56.65650406504065,49.796747967479675 56.65650406504065,49.796747967479675 56.65650406504065,49.796747967479675 56.65650406504065,49.796747967479675 56.65650406504065,49.796747967479675 56.65650406504065,49.796747967479675 56.65650406504065,49.796747967479675 56.65650406504065,49.796747967479675 56.65650406504065,49.796747967479675 56.65650406504065,49.796747967479675 56.65650406504065,49.796747967479675 56.65650406504065,49.796747967479675 56.65650406504065,49.796747967479675 56.65650406504065,49.796747967479675 56.65650406504065,49.796747967479675 56.65650406504065,49.796747967479675 56.65650406504065,49.796747967479675 56.65650406504065,49.796747967479675 56.65650406504065,49.796747967479675 56.65650406504065,49.796747967479675 56.65650406504065,49.796747967479675 56.65650406504065,49.796747967479675 56.65650406504065,49.796747967479675 56.65650406504065,49.796747967479675 56.65650406504065,49.796747967479675 56.65650406504065,49.796747967479675 56.65650406504065,49.796747967479675 56.65650406504065,49.796747967479675 56.65650406504065,49.796747967479675 56.65650406504065,49.796747967479675 56.65650406504065,49.796747967479675 56.65650406504065,49.796747967479675 56.65650406504065,49.796747967479675 56.65650406504065,49.796747967479675" fill="none" stroke="black" stroke-width="0.6"></polyline><polyline points="56.65650406504065,49.796747967479675 56.65650406504065,49.796747967479675 56.65650406504065,49.796747967479675 56.65650406504065,49.796747967479675 56.65650406504065,49.796747967479675 56.65650406504065,49.796747967479675 56.65650406504065,49.796747967479675 56.65650406504065,49.796747967479675 56.65650406504065,49.796747967479675 56.65650406504065,49.796747967479675 56.65650406504065,49.796747967479675 56.65650406504065,49.796747967479675 56.65650406504065,49.796747967479675 56.65650406504065,49.796747967479675 56.65650406504065,49.796747967479675 56.65650406504065,49.796747967479675 56.65650406504065,49.796747967479675 56.65650406504065,49.796747967479675 56.65650406504065,49.796747967479675 56.65650406504065,49.796747967479675 56.65650406504065,49.796747967479675 56.65650406504065,49.796747967479675 56.65650406504065,49.796747967479675 56.65650406504065,49.796747967479675 56.65650406504065,49.796747967479675 56.65650406504065,49.796747967479675 56.65650406504065,49.796747967479675 56.65650406504065,49.796747967479675 56.65650406504065,49.796747967479675 56.65650406504065,49.796747967479675 56.65650406504065,49.796747967479675 56.65650406504065,49.796747967479675 56.65650406504065,49.796747967479675 56.65650406504065,49.796747967479675 56.65650406504065,49.796747967479675 56.65650406504065,49.796747967479675 56.65650406504065,49.796747967479675 56.65650406504065,49.796747967479675 56.65650406504065,49.796747967479675 56.65650406504065,49.796747967479675 56.65650406504065,49.796747967479675 56.65650406504065,49.796747967479675 56.65650406504065,49.796747967479675 56.65650406504065,49.796747967479675 56.65650406504065,49.796747967479675 56.65650406504065,49.796747967479675 56.65650406504065,49.796747967479675 56.65650406504065,49.796747967479675 56.65650406504065,49.796747967479675 56.65650406504065,49.796747967479675 56.65650406504065,49.796747967479675" fill="none" stroke="black" stroke-width="0.6"></polyline><polyline points="56.65650406504065,49.796747967479675 56.65650406504065,49.796747967479675 56.65650406504065,49.796747967479675 56.65650406504065,49.796747967479675 56.65650406504065,49.796747967479675 56.65650406504065,49.796747967479675 56.65650406504065,49.796747967479675" fill="none" stroke="black" stroke-width="0.6"></polyline><polyline points="63.5670731707317,49.49186991869919 63.5670731707317,49.49186991869919 63.5670731707317,49.49186991869919 63.5670731707317,49.49186991869919 63.5670731707317,49.49186991869919 63.5670731707317,49.542682926829265 63.5670731707317,49.542682926829265 63.5670731707317,49.542682926829265 63.5670731707317,49.542682926829265 63.5670731707317,49.542682926829265 63.5670731707317,49.542682926829265 63.5670731707317,49.542682926829265 63.5670731707317,49.542682926829265 63.5670731707317,49.542682926829265 63.5670731707317,49.542682926829265 63.5670731707317,49.542682926829265 63.5670731707317,49.542682926829265 63.5670731707317,49.542682926829265 63.5670731707317,49.542682926829265 63.5670731707317,49.542682926829265 63.5670731707317,49.542682926829265 63.5670731707317,49.542682926829265 63.5670731707317,49.542682926829265 63.5670731707317,49.542682926829265 63.5670731707317,49.542682926829265 63.5670731707317,49.542682926829265 63.5670731707317,49.542682926829265 63.5670731707317,49.542682926829265 63.5670731707317,49.542682926829265 63.5670731707317,49.542682926829265 63.5670731707317,49.542682926829265 63.5670731707317,49.542682926829265 63.5670731707317,49.542682926829265 63.5670731707317,49.542682926829265 63.5670731707317,49.542682926829265 63.5670731707317,49.542682926829265 63.5670731707317,49.542682926829265 63.5670731707317,49.542682926829265 63.5670731707317,49.542682926829265 63.5670731707317,49.542682926829265 63.5670731707317,49.542682926829265 63.5670731707317,49.542682926829265 63.5670731707317,49.542682926829265 63.5670731707317,49.542682926829265 63.5670731707317,49.542682926829265 63.5670731707317,49.542682926829265 63.5670731707317,49.542682926829265 63.5670731707317,49.542682926829265 63.5670731707317,49.542682926829265 63.5670731707317,49.542682926829265 63.5670731707317,49.542682926829265" fill="none" stroke="black" stroke-width="0.6"></polyline><polyline points="63.5670731707317,49.542682926829265 63.5670731707317,49.542682926829265 63.5670731707317,49.542682926829265 63.5670731707317,49.542682926829265 63.5670731707317,49.542682926829265 63.5670731707317,49.542682926829265 63.5670731707317,49.542682926829265 63.5670731707317,49.542682926829265 63.5670731707317,49.542682926829265 63.5670731707317,49.542682926829265 63.5670731707317,49.542682926829265 63.5670731707317,49.542682926829265 63.5670731707317,49.542682926829265 63.5670731707317,49.542682926829265 63.5670731707317,49.542682926829265 63.5670731707317,49.542682926829265 63.5670731707317,49.542682926829265 63.5670731707317,49.542682926829265 63.5670731707317,49.542682926829265 63.5670731707317,49.542682926829265 63.5670731707317,49.542682926829265 63.5670731707317,49.542682926829265 63.5670731707317,49.542682926829265 63.5670731707317,49.542682926829265 63.5670731707317,49.542682926829265 63.5670731707317,49.542682926829265 63.5670731707317,49.542682926829265 63.5670731707317,49.542682926829265 63.5670731707317,49.542682926829265 63.5670731707317,49.542682926829265 63.5670731707317,49.542682926829265 63.5670731707317,49.542682926829265 63.5670731707317,49.542682926829265 63.5670731707317,49.542682926829265 63.5670731707317,49.542682926829265 63.5670731707317,49.542682926829265 63.5670731707317,49.542682926829265 63.5670731707317,49.542682926829265 63.5670731707317,49.542682926829265 63.5670731707317,49.542682926829265 63.5670731707317,49.542682926829265 63.5670731707317,49.542682926829265 63.5670731707317,49.542682926829265 63.5670731707317,49.542682926829265 63.5670731707317,49.542682926829265 63.5670731707317,49.542682926829265 63.5670731707317,49.542682926829265 63.5670731707317,49.542682926829265 63.5670731707317,49.542682926829265 63.5670731707317,49.542682926829265 63.5670731707317,49.542682926829265" fill="none" stroke="black" stroke-width="0.6"></polyline><polyline points="63.5670731707317,49.542682926829265 63.5670731707317,49.542682926829265 63.5670731707317,49.542682926829265 63.5670731707317,49.542682926829265 63.5670731707317,49.542682926829265 63.5670731707317,49.542682926829265 63.5670731707317,49.542682926829265 63.5670731707317,49.542682926829265 63.5670731707317,49.542682926829265 63.5670731707317,49.542682926829265 63.5670731707317,49.542682926829265 63.5670731707317,49.542682926829265 63.5670731707317,49.542682926829265 63.5670731707317,49.542682926829265 63.5670731707317,49.542682926829265 63.5670731707317,49.542682926829265 63.5670731707317,49.542682926829265 63.5670731707317,49.542682926829265 63.5670731707317,49.542682926829265 63.5670731707317,49.542682926829265 63.5670731707317,49.542682926829265 63.5670731707317,49.542682926829265 63.5670731707317,49.542682926829265" fill="none" stroke="black" stroke-width="0.6"></polyline><polyline points="70.27439024390243,50.355691056910565 70.27439024390243,50.355691056910565 70.27439024390243,50.355691056910565 70.27439024390243,50.355691056910565 70.27439024390243,50.355691056910565 70.27439024390243,50.355691056910565 70.27439024390243,50.355691056910565 70.27439024390243,50.355691056910565 70.27439024390243,50.355691056910565 70.27439024390243,50.355691056910565 70.27439024390243,50.355691056910565 70.27439024390243,50.355691056910565 70.27439024390243,50.355691056910565 70.27439024390243,50.355691056910565 70.27439024390243,50.355691056910565 70.27439024390243,50.355691056910565 70.27439024390243,50.355691056910565 70.27439024390243,50.355691056910565 70.27439024390243,50.355691056910565 70.27439024390243,50.355691056910565 70.27439024390243,50.355691056910565 70.27439024390243,50.355691056910565 70.27439024390243,50.355691056910565 70.27439024390243,50.355691056910565 70.27439024390243,50.355691056910565 70.27439024390243,50.355691056910565 70.27439024390243,50.355691056910565 70.27439024390243,50.355691056910565 70.27439024390243,50.355691056910565 70.27439024390243,50.355691056910565 70.27439024390243,50.355691056910565 70.27439024390243,50.355691056910565 70.27439024390243,50.355691056910565 70.27439024390243,50.355691056910565 70.27439024390243,50.355691056910565 70.27439024390243,50.355691056910565 70.27439024390243,50.355691056910565 70.27439024390243,50.355691056910565 70.27439024390243,50.355691056910565 70.27439024390243,50.355691056910565 70.27439024390243,50.355691056910565 70.27439024390243,50.355691056910565 70.27439024390243,50.355691056910565 70.27439024390243,50.355691056910565 70.27439024390243,50.355691056910565 70.27439024390243,50.355691056910565 70.27439024390243,50.355691056910565 70.27439024390243,50.355691056910565 70.27439024390243,50.355691056910565 70.27439024390243,50.355691056910565 70.27439024390243,50.355691056910565" fill="none" stroke="black" stroke-width="0.6"></polyline><polyline points="70.27439024390243,50.355691056910565 70.27439024390243,50.355691056910565 70.27439024390243,50.355691056910565 70.27439024390243,50.355691056910565 70.27439024390243,50.355691056910565 70.27439024390243,50.355691056910565 70.27439024390243,50.355691056910565 70.27439024390243,50.355691056910565 70.27439024390243,50.355691056910565 70.27439024390243,50.355691056910565 70.27439024390243,50.355691056910565 70.27439024390243,50.355691056910565 70.27439024390243,50.355691056910565 70.27439024390243,50.355691056910565 70.27439024390243,50.355691056910565 70.27439024390243,50.355691056910565 70.27439024390243,50.355691056910565 70.27439024390243,50.355691056910565 70.27439024390243,50.355691056910565 70.27439024390243,50.355691056910565 70.27439024390243,50.355691056910565 70.27439024390243,50.355691056910565 70.27439024390243,50.355691056910565 70.27439024390243,50.355691056910565 70.27439024390243,50.355691056910565 70.27439024390243,50.355691056910565 70.27439024390243,50.355691056910565 70.27439024390243,50.355691056910565 70.27439024390243,50.355691056910565 70.27439024390243,50.355691056910565 70.27439024390243,50.355691056910565 70.27439024390243,50.355691056910565 70.27439024390243,50.355691056910565 70.27439024390243,50.355691056910565 70.27439024390243,50.355691056910565 70.27439024390243,50.355691056910565 70.27439024390243,50.355691056910565 70.27439024390243,50.355691056910565 70.27439024390243,50.355691056910565 70.27439024390243,50.355691056910565 70.27439024390243,50.355691056910565 70.27439024390243,50.355691056910565 70.27439024390243,50.355691056910565 70.27439024390243,50.355691056910565 70.27439024390243,50.355691056910565 70.27439024390243,50.355691056910565 70.27439024390243,50.355691056910565 70.27439024390243,50.355691056910565 70.27439024390243,50.355691056910565 70.27439024390243,50.355691056910565 70.27439024390243,50.355691056910565" fill="none" stroke="black" stroke-width="0.6"></polyline><polyline points="70.27439024390243,50.355691056910565 70.27439024390243,50.355691056910565 70.27439024390243,50.355691056910565 70.27439024390243,50.355691056910565 70.27439024390243,50.355691056910565 70.27439024390243,50.355691056910565 70.27439024390243,50.355691056910565 70.27439024390243,50.355691056910565 70.27439024390243,50.355691056910565 70.27439024390243,50.355691056910565 70.27439024390243,50.355691056910565 70.27439024390243,50.355691056910565 70.27439024390243,50.355691056910565 70.27439024390243,50.355691056910565 70.27439024390243,50.355691056910565 70.27439024390243,50.355691056910565 70.27439024390243,50.355691056910565 70.27439024390243,50.355691056910565 70.27439024390243,50.355691056910565 70.27439024390243,50.355691056910565 70.27439024390243,50.355691056910565 70.27439024390243,50.355691056910565 70.27439024390243,50.355691056910565 70.27439024390243,50.355691056910565 70.27439024390243,50.355691056910565 70.27439024390243,50.355691056910565 70.27439024390243,50.355691056910565 70.27439024390243,50.355691056910565 70.27439024390243,50.355691056910565 70.27439024390243,50.355691056910565 70.27439024390243,50.355691056910565 70.27439024390243,50.355691056910565 70.27439024390243,50.355691056910565 70.27439024390243,50.355691056910565 70.27439024390243,50.355691056910565 70.27439024390243,50.355691056910565 70.27439024390243,50.355691056910565 70.27439024390243,50.355691056910565 70.27439024390243,50.355691056910565 70.27439024390243,50.355691056910565 70.27439024390243,50.355691056910565 70.27439024390243,50.355691056910565 70.27439024390243,50.355691056910565 70.27439024390243,50.355691056910565 70.27439024390243,50.355691056910565 70.27439024390243,50.355691056910565 70.27439024390243,50.355691056910565 70.27439024390243,50.355691056910565 70.27439024390243,50.355691056910565 70.27439024390243,50.355691056910565 70.27439024390243,50.355691056910565" fill="none" stroke="black" stroke-width="0.6"></polyline><polyline points="70.27439024390243,50.355691056910565 70.27439024390243,50.355691056910565 70.27439024390243,50.355691056910565 70.27439024390243,50.355691056910565 70.27439024390243,50.355691056910565 70.27439024390243,50.355691056910565 70.27439024390243,50.355691056910565 70.27439024390243,50.355691056910565 70.27439024390243,50.355691056910565 70.27439024390243,50.355691056910565 70.27439024390243,50.355691056910565 70.27439024390243,50.355691056910565 70.27439024390243,50.355691056910565 70.27439024390243,50.355691056910565 70.27439024390243,50.355691056910565 70.27439024390243,50.355691056910565 70.27439024390243,50.355691056910565 70.27439024390243,50.355691056910565 70.27439024390243,50.355691056910565 70.27439024390243,50.355691056910565 70.27439024390243,50.355691056910565 70.27439024390243,50.355691056910565 70.27439024390243,50.355691056910565 70.27439024390243,50.355691056910565 70.27439024390243,50.355691056910565 70.27439024390243,50.355691056910565 70.27439024390243,50.355691056910565 70.27439024390243,50.355691056910565 70.27439024390243,50.355691056910565 70.27439024390243,50.355691056910565 70.27439024390243,50.355691056910565 70.27439024390243,50.355691056910565 70.27439024390243,50.355691056910565 70.27439024390243,50.355691056910565 70.27439024390243,50.355691056910565 70.27439024390243,50.355691056910565 70.27439024390243,50.355691056910565 70.27439024390243,50.355691056910565 70.27439024390243,50.355691056910565 70.27439024390243,50.355691056910565 70.27439024390243,50.355691056910565 70.27439024390243,50.355691056910565 70.27439024390243,50.355691056910565 70.27439024390243,50.355691056910565 70.27439024390243,50.355691056910565 70.27439024390243,50.355691056910565 70.27439024390243,50.355691056910565 70.27439024390243,50.355691056910565" fill="none" stroke="black" stroke-width="0.6"></polyline><polyline points="77.1849593495935,50.05081300813008 77.1849593495935,50.05081300813008 77.1849593495935,50.05081300813008 77.23577235772358,50.05081300813008 77.23577235772358,50.05081300813008 77.23577235772358,50.05081300813008 77.23577235772358,50.05081300813008 77.28658536585365,50.05081300813008 77.28658536585365,50.05081300813008 77.28658536585365,50.05081300813008 77.28658536585365,50.05081300813008 77.28658536585365,50.05081300813008 77.28658536585365,50.05081300813008 77.28658536585365,50.05081300813008 77.28658536585365,50.05081300813008 77.28658536585365,50.05081300813008 77.28658536585365,50.05081300813008 77.28658536585365,50.05081300813008 77.28658536585365,50.05081300813008 77.28658536585365,50.05081300813008 77.28658536585365,50.05081300813008 77.28658536585365,50.05081300813008 77.28658536585365,50.05081300813008 77.28658536585365,50.05081300813008 77.28658536585365,50.05081300813008 77.28658536585365,50.05081300813008 77.28658536585365,50.05081300813008 77.28658536585365,50.05081300813008 77.28658536585365,50.05081300813008 77.28658536585365,50.05081300813008 77.28658536585365,50.05081300813008 77.28658536585365,50.05081300813008 77.28658536585365,50.05081300813008 77.28658536585365,50.05081300813008 77.28658536585365,50.05081300813008 77.28658536585365,50.05081300813008 77.28658536585365,50.05081300813008 77.28658536585365,50.05081300813008 77.28658536585365,50.05081300813008 77.28658536585365,50.05081300813008 77.28658536585365,50.05081300813008 77.28658536585365,50.05081300813008 77.28658536585365,50.05081300813008 77.28658536585365,50.05081300813008 77.23577235772358,50.05081300813008 77.23577235772358,50.05081300813008 77.23577235772358,50.05081300813008 77.23577235772358,50.05081300813008 77.23577235772358,50.05081300813008 77.23577235772358,50.05081300813008 77.23577235772358,50.05081300813008" fill="none" stroke="black" stroke-width="0.6"></polyline><polyline points="77.23577235772358,50.05081300813008 77.23577235772358,50.05081300813008 77.23577235772358,50.05081300813008 77.23577235772358,50.05081300813008 77.23577235772358,50.05081300813008 77.23577235772358,50.05081300813008 77.23577235772358,50.05081300813008 77.23577235772358,50.05081300813008 77.23577235772358,50.05081300813008 77.23577235772358,50.05081300813008 77.23577235772358,50.05081300813008 77.23577235772358,50.05081300813008 77.23577235772358,50.05081300813008 77.23577235772358,50.05081300813008 77.23577235772358,50.05081300813008 77.23577235772358,50.05081300813008 77.23577235772358,50.05081300813008 77.23577235772358,50.05081300813008 77.23577235772358,50.05081300813008 77.23577235772358,50.05081300813008 77.23577235772358,50.05081300813008 77.23577235772358,50.05081300813008 77.23577235772358,50.05081300813008 77.23577235772358,50.05081300813008 77.23577235772358,50.05081300813008 77.23577235772358,50.05081300813008 77.23577235772358,50.05081300813008 77.23577235772358,50.05081300813008 77.23577235772358,50.05081300813008 77.23577235772358,50.05081300813008 77.23577235772358,50.05081300813008 77.23577235772358,50.05081300813008 77.23577235772358,50.05081300813008 77.23577235772358,50.05081300813008 77.23577235772358,50.05081300813008 77.23577235772358,50.05081300813008 77.23577235772358,50.05081300813008 77.23577235772358,50.05081300813008 77.23577235772358,50.05081300813008 77.23577235772358,50.05081300813008 77.23577235772358,50.05081300813008 77.23577235772358,50.05081300813008 77.23577235772358,50.05081300813008 77.23577235772358,50.05081300813008 77.23577235772358,50.05081300813008 77.23577235772358,50.05081300813008 77.23577235772358,50.05081300813008 77.23577235772358,50.05081300813008 77.23577235772358,50.05081300813008 77.23577235772358,50.05081300813008 77.23577235772358,50.05081300813008" fill="none" stroke="black" stroke-width="0.6"></polyline><polyline points="77.23577235772358,50.05081300813008 77.23577235772358,50.05081300813008 77.23577235772358,50.05081300813008 77.23577235772358,50.05081300813008 77.23577235772358,50.05081300813008 77.23577235772358,50.05081300813008 77.23577235772358,50.05081300813008 77.23577235772358,50.05081300813008 77.23577235772358,50.05081300813008 77.23577235772358,50.05081300813008 77.23577235772358,50.05081300813008 77.23577235772358,50.05081300813008 77.23577235772358,50.05081300813008 77.23577235772358,50.05081300813008 77.23577235772358,50.05081300813008 77.23577235772358,50.05081300813008 77.23577235772358,50.05081300813008 77.23577235772358,50.05081300813008 77.23577235772358,50.05081300813008 77.23577235772358,50.05081300813008 77.23577235772358,50.05081300813008 77.23577235772358,50.05081300813008 77.23577235772358,50.05081300813008 77.23577235772358,50.05081300813008 77.23577235772358,50.05081300813008 77.23577235772358,50.05081300813008 77.23577235772358,50.05081300813008 77.23577235772358,50.05081300813008 77.23577235772358,50.05081300813008 77.23577235772358,50.05081300813008 77.23577235772358,50.05081300813008 77.23577235772358,50.05081300813008 77.23577235772358,50.05081300813008 77.23577235772358,50.05081300813008 77.23577235772358,50.05081300813008 77.23577235772358,50.05081300813008 77.23577235772358,50.05081300813008 77.23577235772358,50.05081300813008 77.23577235772358,50.05081300813008 77.23577235772358,50.05081300813008 77.23577235772358,50.05081300813008 77.23577235772358,50.05081300813008 77.23577235772358,50.05081300813008 77.23577235772358,50.05081300813008 77.23577235772358,50.05081300813008 77.23577235772358,50.05081300813008 77.23577235772358,50.05081300813008 77.23577235772358,50.05081300813008 77.23577235772358,50.05081300813008 77.23577235772358,50.05081300813008 77.23577235772358,50.05081300813008" fill="none" stroke="black" stroke-width="0.6"></polyline><polyline points="77.23577235772358,50.05081300813008 77.23577235772358,50.05081300813008 77.23577235772358,50.05081300813008 77.23577235772358,50.05081300813008 77.23577235772358,50.05081300813008 77.23577235772358,50.05081300813008 77.23577235772358,50.05081300813008 77.23577235772358,50.05081300813008 77.23577235772358,50.05081300813008 77.23577235772358,50.05081300813008 77.23577235772358,50.05081300813008 77.23577235772358,50.05081300813008 77.23577235772358,50.05081300813008 77.23577235772358,50.05081300813008 77.23577235772358,50.05081300813008 77.23577235772358,50.05081300813008 77.23577235772358,50.05081300813008 77.23577235772358,50.05081300813008 77.23577235772358,50.05081300813008 77.23577235772358,50.05081300813008 77.23577235772358,50.05081300813008 77.23577235772358,50.05081300813008 77.23577235772358,50.05081300813008 77.23577235772358,50.05081300813008 77.23577235772358,50.05081300813008 77.23577235772358,50.05081300813008 77.23577235772358,50.05081300813008 77.23577235772358,50.05081300813008 77.23577235772358,50.05081300813008 77.23577235772358,50.05081300813008 77.23577235772358,50.05081300813008" fill="none" stroke="black" stroke-width="0.6"></polyline></svg>