<svg height="100" width="100" preserveAspectRatio="xMidYMid meet"><polyline points="50.10162601626016,49.59349593495935 49.84756097560975,48.22154471544715 49.69512195121951,48.11991869918699 49.542682926829265,47.916666666666664 49.33943089430894,47.764227642276424 49.136178861788615,47.66260162601626 48.88211382113821,47.510162601626014 48.67886178861789,47.40853658536585 48.47560975609756,47.357723577235774 48.27235772357724,47.357723577235774 48.01829268292683,47.357723577235774 47.8150406504065,47.357723577235774 47.61178861788618,47.357723577235774 47.40853658536585,47.61178861788618 47.15447154471545,48.06910569105691 46.90040650406504,48.6280487804878 46.646341463414636,49.23780487804878 46.49390243902439,49.949186991869915 46.290650406504064,50.66056910569105 46.13821138211382,51.27032520325203 46.03658536585366,51.77845528455284 45.985772357723576,52.235772357723576 45.985772357723576,52.69308943089431 45.985772357723576,53.048780487804876 46.08739837398374,53.40447154471545 46.392276422764226,53.607723577235774 46.84959349593496,53.760162601626014 47.357723577235774,53.86178861788618 47.916666666666664,53.91260162601626 48.577235772357724,53.91260162601626 49.28861788617886,53.91260162601626 49.89837398373984,53.8109756097561 50.50813008130081,53.65853658536585 51.11788617886179,53.45528455284553 51.6260162601626,53.2520325203252 52.083333333333336,52.9979674796748 52.59146341463415,52.69308943089431 52.947154471544714,52.38821138211382 53.302845528455286,52.03252032520325 53.709349593495936,51.575203252032516 54.0650406504065,51.21951219512195 54.420731707317074,50.8130081300813 54.827235772357724,50.2540650406504 55.03048780487805,49.74593495934959 55.28455284552845,49.23780487804878 55.4369918699187,48.83130081300813 55.48780487804878,48.47560975609756 55.48780487804878,48.11991869918699 55.48780487804878,47.71341463414634 55.48780487804878,47.357723577235774 55.4369918699187,47.052845528455286" fill="none" stroke="black" stroke-width="0.6"></polyline><polyline points="55.4369918699187,47.052845528455286 55.233739837398375,46.697154471544714 54.979674796747965,46.392276422764226 54.67479674796748,46.03658536585366 54.31910569105691,45.579268292682926 54.014227642276424,45.22357723577235 53.65853658536585,44.8170731707317 53.2520325203252,44.46138211382114 52.84552845528455,44.15650406504065 52.33739837398374,43.90243902439024 51.72764227642276,43.64837398373984 51.11788617886179,43.49593495934959 50.45731707317073,43.44512195121951 49.69512195121951,43.44512195121951 48.983739837398375,43.44512195121951 48.22154471544715,43.44512195121951 47.40853658536585,43.49593495934959 46.697154471544714,43.75 46.03658536585366,44.05487804878049 45.42682926829268,44.41056910569105 45.02032520325203,44.66463414634146 44.66463414634146,44.96951219512195 44.30894308943089,45.52845528455285 43.953252032520325,46.392276422764226 43.64837398373984,47.40853658536585 43.34349593495935,48.6280487804878 43.1910569105691,49.59349593495935 42.98780487804878,50.71138211382114 42.9369918699187,51.67682926829268 42.83536585365854,52.642276422764226 42.83536585365854,53.50609756097561 42.83536585365854,54.47154471544715 42.83536585365854,55.33536585365854 42.83536585365854,56.09756097560975 42.98780487804878,56.80894308943089 43.39430894308943,57.46951219512195 43.85162601626016,57.97764227642276 44.41056910569105,58.38414634146341 45.172764227642276,58.6890243902439 46.08739837398374,58.892276422764226 47.0020325203252,58.94308943089431 48.06910569105691,58.94308943089431 49.136178861788615,58.94308943089431 50.2540650406504,58.6890243902439 51.32113821138211,58.28252032520325 52.38821138211382,57.8760162601626 53.40447154471545,57.418699186991866 54.420731707317074,56.70731707317073 55.4369918699187,55.94512195121951 56.25,55.18292682926829 56.96138211382114,54.26829268292683" fill="none" stroke="black" stroke-width="0.6"></polyline><polyline points="56.96138211382114,54.26829268292683 57.52032520325203,53.353658536585364 57.8760162601626,52.489837398373986 58.18089430894309,51.47357723577235 58.33333333333333,50.50813008130081 58.43495934959349,49.542682926829265 58.43495934959349,48.67886178861789 58.43495934959349,47.764227642276424 58.38414634146341,46.951219512195124 58.079268292682926,46.1890243902439 57.72357723577235,45.27439024390244 57.266260162601625,44.512195121951216 56.75813008130081,43.75 56.199186991869915,42.78455284552845 55.53861788617886,42.073170731707314 54.92886178861789,41.3109756097561 54.11585365853659,40.4979674796748 53.302845528455286,39.989837398373986 52.33739837398374,39.583333333333336 51.21951219512195,39.27845528455285 50.10162601626016,39.176829268292686 48.83130081300813,39.176829268292686 47.40853658536585,39.27845528455285 46.13821138211382,39.63414634146341 44.918699186991866,39.989837398373986 43.90243902439024,40.4979674796748 42.9369918699187,41.15853658536585 41.97154471544715,41.920731707317074 40.95528455284553,42.733739837398375 40.19308943089431,43.49593495934959 39.53252032520325,44.20731707317073 39.07520325203252,44.96951219512195 38.77032520325203,45.88414634146341 38.516260162601625,46.951219512195124 38.3130081300813,48.323170731707314 38.21138211382114,49.59349593495935 38.21138211382114,50.91463414634146 38.21138211382114,52.235772357723576 38.21138211382114,53.302845528455286 38.262195121951216,54.31910569105691 38.516260162601625,55.28455284552845 38.82113821138211,56.199186991869915 39.22764227642276,57.0630081300813 39.78658536585366,57.92682926829268 40.447154471544714,58.84146341463415 41.209349593495936,59.603658536585364 42.1239837398374,60.416666666666664 43.03861788617886,61.077235772357724 44.15650406504065,61.58536585365854 45.42682926829268,62.09349593495935 46.90040650406504,62.39837398373984" fill="none" stroke="black" stroke-width="0.6"></polyline><polyline points="46.90040650406504,62.39837398373984 48.577235772357724,62.449186991869915 50.2540650406504,62.34756097560975 51.880081300813,61.6869918699187 53.55691056910569,60.823170731707314 55.13211382113821,59.80691056910569 56.65650406504065,58.58739837398374 58.079268292682926,57.21544715447154 60.51829268292683,54.52235772357724 62.449186991869915,51.72764227642276 63.46544715447154,49.1869918699187 63.516260162601625,48.11991869918699 63.516260162601625,47.0020325203252 63.516260162601625,45.833333333333336 63.36382113821138,44.766260162601625 62.95731707317073,43.59756097560975 62.449186991869915,42.3780487804878 61.73780487804878,41.15853658536585 60.92479674796748,40.040650406504064 59.857723577235774,38.87195121951219 58.739837398373986,37.95731707317073 57.36788617886179,37.042682926829265 55.792682926829265,36.17886178861789 54.26829268292683,35.51829268292683 52.540650406504064,34.959349593495936 50.609756097560975,34.552845528455286 48.729674796747965,34.34959349593496 46.697154471544714,34.34959349593496 44.66463414634146,34.34959349593496 42.9369918699187,34.5020325203252 41.260162601626014,35.0609756097561 39.43089430894309,35.92479674796748 37.60162601626016,36.99186991869919 35.8739837398374,38.16056910569105 34.34959349593496,39.38008130081301 33.28252032520325,40.447154471544714 32.418699186991866,41.46341463414634 31.808943089430894,42.53048780487805 31.554878048780488,43.80081300813008 31.402439024390244,45.12195121951219 31.351626016260163,46.59552845528455 31.351626016260163,47.916666666666664 31.351626016260163,49.33943089430894 31.453252032520325,51.016260162601625 31.808943089430894,52.74390243902439 32.21544715447154,54.47154471544715 32.77439024390244,56.199186991869915 33.333333333333336,57.77439024390244 34.04471544715447,59.34959349593496 34.80691056910569,60.8739837398374 35.61991869918699,62.14430894308943" fill="none" stroke="black" stroke-width="0.6"></polyline><polyline points="35.61991869918699,62.14430894308943 36.636178861788615,63.36382113821138 37.7540650406504,64.48170731707317 38.97357723577235,65.34552845528455" fill="none" stroke="black" stroke-width="0.6"></polyline><polyline points="48.22154471544715,65.1930894308943 50.50813008130081,64.1260162601626 52.79471544715447,62.703252032520325 55.33536585365854,61.17886178861789 57.72357723577235,59.552845528455286 60.0609756097561,57.672764227642276 62.39837398373984,55.6910569105691 64.6849593495935,53.709349593495936 66.869918699187,51.52439024390244 68.4451219512195,49.49186991869919 69.96951219512195,47.459349593495936 71.03658536585365,45.52845528455285 71.7479674796748,44.0040650406504 72.10365853658537,42.27642276422764 72.2560975609756,40.4979674796748 72.2560975609756,38.922764227642276 72.10365853658537,37.55081300813008 71.4430894308943,36.077235772357724 70.68089430894308,34.75609756097561 69.66463414634146,33.53658536585366 68.54674796747967,32.36788617886179 67.3780487804878,31.402439024390244 66.0569105691057,30.538617886178862 64.48170731707317,29.573170731707318 62.95731707317073,28.760162601626014 61.28048780487805,27.84552845528455 59.298780487804876,27.134146341463413 57.266260162601625,26.676829268292682 54.979674796747965,26.473577235772357 52.38821138211382,26.473577235772357 50.10162601626016,26.524390243902438 47.86585365853659,27.03252032520325 45.52845528455285,27.84552845528455 43.1910569105691,28.912601626016258 40.701219512195124,30.03048780487805 38.41463414634146,31.30081300813008 36.58536585365854,32.57113821138211 35.0609756097561,33.94308943089431 33.739837398373986,35.416666666666664 32.82520325203252,36.890243902439025 31.910569105691057,38.46544715447154 31.097560975609756,40.19308943089431 30.589430894308943,41.920731707317074 30.08130081300813,44.61382113821138 29.573170731707318,47.15447154471545 29.115853658536583,48.93292682926829 28.810975609756095,50.55894308943089 28.709349593495933,52.03252032520325 28.709349593495933,53.40447154471545 28.65853658536585,55.08130081300813 28.65853658536585,57.0630081300813" fill="none" stroke="black" stroke-width="0.6"></polyline><polyline points="28.65853658536585,57.0630081300813 28.709349593495933,59.40040650406504 29.01422764227642,61.78861788617886 29.369918699186993,63.516260162601625 29.878048780487806,64.73577235772358 30.48780487804878,66.26016260162602 31.402439024390244,68.03861788617886 32.57113821138211,69.61382113821138 33.84146341463415,71.03658536585365 35.416666666666664,72.3069105691057 36.99186991869919,73.3739837398374 38.668699186991866,74.1869918699187 40.4979674796748,74.94918699186992 42.42886178861789,75.5081300813008 44.512195121951216,75.76219512195122 46.646341463414636,75.76219512195122 48.6280487804878,75.71138211382113 50.609756097560975,75.2540650406504 52.59146341463415,74.49186991869918 54.420731707317074,73.67886178861788 56.25,72.86585365853658 58.02845528455284,71.69715447154472 59.70528455284553,70.68089430894308 61.33130081300813,69.41056910569105 63.00813008130081,68.29268292682927 64.6849593495935,66.92073170731707 66.3109756097561,65.70121951219512 67.73373983739837,64.32926829268293 69.10569105691057,62.7540650406504 70.630081300813,61.483739837398375 71.84959349593495,60.0609756097561 73.0691056910569,58.63821138211382 74.28861788617886,57.16463414634146 75.30487804878048,55.6910569105691 76.16869918699187,53.96341463414634 76.98170731707317,52.4390243902439 77.64227642276423,51.0670731707317 78.20121951219512,49.59349593495935 78.5569105691057,48.52642276422764 78.65853658536585,47.66260162601626 78.65853658536585,47.0020325203252 78.65853658536585,46.59552845528455 78.65853658536585,46.290650406504064 78.40447154471545,45.985772357723576 78.04878048780488,45.63008130081301 77.64227642276423,45.27439024390244" fill="none" stroke="black" stroke-width="0.6"></polyline></svg>