<svg height="100" width="100" preserveAspectRatio="xMidYMid meet"><polyline points="50.762195121951216,50 50.762195121951216,50 50.71138211382114,50 50.71138211382114,49.949186991869915 50.71138211382114,49.949186991869915 50.71138211382114,49.949186991869915 50.71138211382114,49.949186991869915 50.71138211382114,49.949186991869915 50.66056910569105,49.949186991869915 50.66056910569105,49.949186991869915 50.66056910569105,49.949186991869915 50.66056910569105,49.949186991869915 50.66056910569105,49.89837398373984 50.66056910569105,49.89837398373984 50.66056910569105,49.89837398373984 50.66056910569105,49.89837398373984 50.66056910569105,49.89837398373984 50.66056910569105,49.89837398373984 50.66056910569105,49.84756097560975 50.609756097560975,49.84756097560975 50.609756097560975,49.796747967479675 50.609756097560975,49.796747967479675 50.609756097560975,49.74593495934959 50.609756097560975,49.74593495934959 50.55894308943089,49.69512195121951 50.55894308943089,49.64430894308943 50.55894308943089,49.59349593495935 50.55894308943089,49.542682926829265 50.55894308943089,49.49186991869919 50.50813008130081,49.4410569105691 50.50813008130081,49.390243902439025 50.45731707317073,49.33943089430894 50.45731707317073,49.28861788617886 50.45731707317073,49.23780487804878 50.40650406504065,49.136178861788615 50.355691056910565,49.08536585365854 50.355691056910565,49.03455284552845 50.30487804878049,48.983739837398375 50.30487804878049,48.93292682926829 50.2540650406504,48.88211382113821 50.203252032520325,48.83130081300813 50.203252032520325,48.78048780487805 50.15243902439024,48.729674796747965 50.10162601626016,48.67886178861789 50.05081300813008,48.6280487804878 50,48.6280487804878 49.949186991869915,48.577235772357724 49.89837398373984,48.52642276422764 49.89837398373984,48.47560975609756 49.796747967479675,48.42479674796748 49.796747967479675,48.3739837398374" fill="none" stroke="black" stroke-width="0.6"></polyline><polyline points="49.796747967479675,48.3739837398374 49.74593495934959,48.323170731707314 49.64430894308943,48.27235772357724 49.59349593495935,48.22154471544715 49.542682926829265,48.170731707317074 49.49186991869919,48.11991869918699 49.4410569105691,48.06910569105691 49.390243902439025,48.01829268292683 49.33943089430894,48.01829268292683 49.28861788617886,47.96747967479675 49.23780487804878,47.96747967479675 49.136178861788615,47.916666666666664 49.08536585365854,47.916666666666664 49.03455284552845,47.86585365853659 48.93292682926829,47.86585365853659 48.88211382113821,47.86585365853659 48.83130081300813,47.86585365853659 48.729674796747965,47.86585365853659 48.67886178861789,47.86585365853659 48.577235772357724,47.86585365853659 48.52642276422764,47.86585365853659 48.42479674796748,47.916666666666664 48.3739837398374,47.96747967479675 48.27235772357724,48.01829268292683 48.170731707317074,48.06910569105691 48.11991869918699,48.06910569105691 48.06910569105691,48.11991869918699 48.01829268292683,48.170731707317074 47.96747967479675,48.22154471544715 47.916666666666664,48.323170731707314 47.86585365853659,48.3739837398374 47.8150406504065,48.47560975609756 47.764227642276424,48.577235772357724 47.764227642276424,48.67886178861789 47.71341463414634,48.78048780487805 47.71341463414634,48.88211382113821 47.66260162601626,48.983739837398375 47.61178861788618,49.08536585365854 47.61178861788618,49.136178861788615 47.5609756097561,49.23780487804878 47.510162601626014,49.33943089430894 47.510162601626014,49.4410569105691 47.459349593495936,49.542682926829265 47.40853658536585,49.64430894308943 47.40853658536585,49.74593495934959 47.357723577235774,49.84756097560975 47.30691056910569,49.949186991869915 47.30691056910569,50.05081300813008 47.30691056910569,50.15243902439024 47.30691056910569,50.2540650406504 47.30691056910569,50.355691056910565" fill="none" stroke="black" stroke-width="0.6"></polyline><polyline points="47.30691056910569,50.355691056910565 47.30691056910569,50.40650406504065 47.30691056910569,50.50813008130081 47.30691056910569,50.609756097560975 47.30691056910569,50.71138211382114 47.30691056910569,50.762195121951216 47.30691056910569,50.86382113821138 47.30691056910569,50.96544715447154 47.30691056910569,51.016260162601625 47.30691056910569,51.11788617886179 47.357723577235774,51.21951219512195 47.357723577235774,51.32113821138211 47.40853658536585,51.422764227642276 47.40853658536585,51.52439024390244 47.459349593495936,51.6260162601626 47.459349593495936,51.72764227642276 47.510162601626014,51.829268292682926 47.5609756097561,51.981707317073166 47.61178861788618,52.083333333333336 47.66260162601626,52.1849593495935 47.71341463414634,52.28658536585366 47.764227642276424,52.38821138211382 47.86585365853659,52.489837398373986 47.916666666666664,52.59146341463415 48.01829268292683,52.69308943089431 48.11991869918699,52.79471544715447 48.22154471544715,52.896341463414636 48.323170731707314,52.9979674796748 48.47560975609756,53.09959349593496 48.577235772357724,53.201219512195124 48.729674796747965,53.302845528455286 48.88211382113821,53.40447154471545 49.03455284552845,53.50609756097561 49.1869918699187,53.55691056910569 49.33943089430894,53.65853658536585 49.49186991869919,53.709349593495936 49.64430894308943,53.760162601626014 49.796747967479675,53.760162601626014 49.949186991869915,53.8109756097561 50.10162601626016,53.8109756097561 50.203252032520325,53.86178861788618 50.355691056910565,53.86178861788618 50.50813008130081,53.86178861788618 50.71138211382114,53.86178861788618 50.86382113821138,53.86178861788618 51.0670731707317,53.86178861788618 51.27032520325203,53.8109756097561 51.52439024390244,53.760162601626014 51.72764227642276,53.709349593495936 51.981707317073166,53.65853658536585 52.28658536585366,53.607723577235774" fill="none" stroke="black" stroke-width="0.6"></polyline><polyline points="52.28658536585366,53.607723577235774 52.540650406504064,53.50609756097561 52.79471544715447,53.45528455284553 53.09959349593496,53.353658536585364 53.353658536585364,53.302845528455286 53.607723577235774,53.201219512195124 53.86178861788618,53.09959349593496 54.0650406504065,52.947154471544714 54.26829268292683,52.84552845528455 54.47154471544715,52.74390243902439 54.6239837398374,52.59146341463415 54.77642276422764,52.4390243902439 54.92886178861789,52.28658536585366 55.08130081300813,52.13414634146341 55.28455284552845,51.93089430894309 55.4369918699187,51.72764227642276 55.640243902439025,51.52439024390244 55.89430894308943,51.32113821138211 56.046747967479675,51.168699186991866 56.25,50.96544715447154 56.453252032520325,50.71138211382114 56.605691056910565,50.50813008130081 56.75813008130081,50.30487804878049 56.91056910569105,50.05081300813008 57.012195121951216,49.84756097560975 57.11382113821138,49.59349593495935 57.16463414634146,49.390243902439025 57.21544715447154,49.1869918699187 57.266260162601625,48.983739837398375 57.3170731707317,48.78048780487805 57.3170731707317,48.577235772357724 57.3170731707317,48.3739837398374 57.3170731707317,48.11991869918699 57.3170731707317,47.916666666666664 57.3170731707317,47.71341463414634 57.21544715447154,47.459349593495936 57.16463414634146,47.25609756097561 57.0630081300813,47.052845528455286 56.96138211382114,46.798780487804876 56.859756097560975,46.646341463414636 56.70731707317073,46.44308943089431 56.605691056910565,46.1890243902439 56.453252032520325,45.985772357723576 56.30081300813008,45.78252032520325 56.14837398373984,45.52845528455285 55.99593495934959,45.325203252032516 55.84349593495935,45.12195121951219 55.640243902439025,44.918699186991866 55.48780487804878,44.71544715447154 55.33536585365854,44.512195121951216 55.18292682926829,44.30894308943089" fill="none" stroke="black" stroke-width="0.6"></polyline><polyline points="55.18292682926829,44.30894308943089 55.03048780487805,44.105691056910565 54.8780487804878,43.90243902439024 54.72560975609756,43.64837398373984 54.573170731707314,43.44512195121951 54.36991869918699,43.1910569105691 54.21747967479675,42.98780487804878 54.0650406504065,42.78455284552845 53.86178861788618,42.63211382113821 53.65853658536585,42.479674796747965 53.45528455284553,42.327235772357724 53.2520325203252,42.17479674796748 52.9979674796748,42.02235772357724 52.74390243902439,41.920731707317074 52.540650406504064,41.76829268292683 52.28658536585366,41.666666666666664 52.03252032520325,41.5650406504065 51.72764227642276,41.46341463414634 51.422764227642276,41.36178861788618 51.11788617886179,41.3109756097561 50.8130081300813,41.260162601626014 50.45731707317073,41.260162601626014 50.15243902439024,41.209349593495936 49.796747967479675,41.209349593495936 49.49186991869919,41.209349593495936 49.1869918699187,41.260162601626014 48.78048780487805,41.3109756097561 48.42479674796748,41.36178861788618 48.11991869918699,41.46341463414634 47.764227642276424,41.5650406504065 47.459349593495936,41.61585365853659 47.15447154471545,41.71747967479675 46.798780487804876,41.86991869918699 46.49390243902439,41.97154471544715 46.239837398373986,42.1239837398374 45.9349593495935,42.27642276422764 45.63008130081301,42.42886178861789 45.3760162601626,42.63211382113821 45.12195121951219,42.78455284552845 44.86788617886179,42.98780487804878 44.61382113821138,43.1910569105691 44.359756097560975,43.44512195121951 44.15650406504065,43.699186991869915 43.953252032520325,43.953252032520325 43.75,44.20731707317073 43.59756097560975,44.41056910569105 43.44512195121951,44.61382113821138 43.24186991869919,44.86788617886179 43.08943089430894,45.07113821138211 42.9369918699187,45.325203252032516 42.78455284552845,45.579268292682926" fill="none" stroke="black" stroke-width="0.6"></polyline><polyline points="42.78455284552845,45.579268292682926 42.68292682926829,45.833333333333336 42.53048780487805,46.08739837398374 42.42886178861789,46.392276422764226 42.3780487804878,46.59552845528455 42.27642276422764,46.84959349593496 42.22560975609756,47.052845528455286 42.22560975609756,47.25609756097561 42.17479674796748,47.510162601626014 42.17479674796748,47.764227642276424 42.1239837398374,48.01829268292683 42.1239837398374,48.27235772357724 42.1239837398374,48.577235772357724 42.1239837398374,48.78048780487805 42.1239837398374,49.03455284552845 42.1239837398374,49.33943089430894 42.1239837398374,49.542682926829265 42.1239837398374,49.796747967479675 42.1239837398374,50.10162601626016 42.17479674796748,50.40650406504065 42.22560975609756,50.71138211382114 42.22560975609756,51.0670731707317 42.27642276422764,51.37195121951219 42.3780487804878,51.67682926829268 42.42886178861789,52.03252032520325 42.479674796747965,52.33739837398374 42.58130081300813,52.69308943089431 42.68292682926829,52.9979674796748 42.78455284552845,53.2520325203252 42.886178861788615,53.50609756097561 43.03861788617886,53.760162601626014 43.140243902439025,54.014227642276424 43.292682926829265,54.26829268292683 43.44512195121951,54.573170731707314 43.59756097560975,54.827235772357724 43.75,55.08130081300813 43.90243902439024,55.386178861788615 44.05487804878049,55.58943089430894 44.20731707317073,55.84349593495935 44.41056910569105,56.09756097560975 44.5630081300813,56.35162601626016 44.766260162601625,56.65650406504065 44.918699186991866,56.91056910569105 45.07113821138211,57.21544715447154 45.27439024390244,57.46951219512195 45.47764227642276,57.72357723577235 45.63008130081301,57.8760162601626 45.88414634146341,58.079268292682926 46.08739837398374,58.28252032520325 46.290650406504064,58.43495934959349 46.59552845528455,58.58739837398374" fill="none" stroke="black" stroke-width="0.6"></polyline><polyline points="46.59552845528455,58.58739837398374 46.84959349593496,58.739837398373986 47.15447154471545,58.892276422764226 47.459349593495936,59.04471544715447 47.764227642276424,59.146341463414636 48.06910569105691,59.2479674796748 48.42479674796748,59.34959349593496 48.78048780487805,59.40040650406504 49.136178861788615,59.5020325203252 49.59349593495935,59.603658536585364 49.949186991869915,59.65447154471545 50.355691056910565,59.65447154471545 50.762195121951216,59.70528455284553 51.168699186991866,59.70528455284553 51.6260162601626,59.70528455284553 52.083333333333336,59.70528455284553 52.4390243902439,59.70528455284553 52.84552845528455,59.65447154471545 53.302845528455286,59.552845528455286 53.709349593495936,59.5020325203252 54.166666666666664,59.40040650406504 54.6239837398374,59.2479674796748 55.03048780487805,59.146341463414636 55.4369918699187,58.99390243902439 55.89430894308943,58.84146341463415 56.30081300813008,58.63821138211382 56.70731707317073,58.43495934959349 57.11382113821138,58.18089430894309 57.52032520325203,57.97764227642276 57.92682926829268,57.77439024390244 58.33333333333333,57.57113821138211 58.6890243902439,57.3170731707317 59.04471544715447,57.0630081300813 59.40040650406504,56.80894308943089 59.70528455284553,56.5040650406504 60.010162601626014,56.199186991869915 60.36585365853659,55.89430894308943 60.61991869918699,55.640243902439025 60.92479674796748,55.386178861788615 61.17886178861789,55.08130081300813 61.38211382113821,54.77642276422764 61.58536585365854,54.47154471544715 61.78861788617886,54.166666666666664 61.9410569105691,53.8109756097561 62.14430894308943,53.50609756097561 62.296747967479675,53.201219512195124 62.39837398373984,52.947154471544714 62.5,52.642276422764226 62.55081300813008,52.28658536585366 62.60162601626016,51.93089430894309 62.65243902439024,51.575203252032516" fill="none" stroke="black" stroke-width="0.6"></polyline><polyline points="62.65243902439024,51.575203252032516 62.703252032520325,51.27032520325203 62.7540650406504,50.96544715447154 62.7540650406504,50.66056910569105 62.80487804878049,50.30487804878049 62.80487804878049,49.949186991869915 62.80487804878049,49.542682926829265 62.855691056910565,49.1869918699187 62.855691056910565,48.88211382113821 62.855691056910565,48.52642276422764 62.90650406504065,48.11991869918699 62.90650406504065,47.71341463414634 62.90650406504065,47.25609756097561 62.95731707317073,46.84959349593496 62.95731707317073,46.49390243902439 62.95731707317073,46.03658536585366 62.95731707317073,45.579268292682926 62.95731707317073,45.12195121951219 62.90650406504065,44.66463414634146 62.855691056910565,44.25813008130081 62.80487804878049,43.85162601626016 62.703252032520325,43.34349593495935 62.60162601626016,42.9369918699187 62.5,42.53048780487805 62.39837398373984,42.073170731707314 62.296747967479675,41.666666666666664 62.14430894308943,41.260162601626014 61.99186991869919,40.7520325203252 61.83943089430894,40.396341463414636 61.636178861788615,40.040650406504064 61.43292682926829,39.583333333333336 61.28048780487805,39.22764227642276 61.077235772357724,38.82113821138211 60.823170731707314,38.41463414634146 60.56910569105691,38.109756097560975 60.3150406504065,37.80487804878049 60.010162601626014,37.5 59.70528455284553,37.24593495934959 59.40040650406504,36.9410569105691 59.04471544715447,36.58536585365854 58.6890243902439,36.33130081300813 58.33333333333333,36.077235772357724 57.92682926829268,35.823170731707314 57.57113821138211,35.56910569105691 57.11382113821138,35.36585365853659 56.70731707317073,35.11178861788618 56.25,34.90853658536585 55.792682926829265,34.65447154471545 55.33536585365854,34.451219512195124 54.8780487804878,34.298780487804876 54.420731707317074,34.146341463414636" fill="none" stroke="black" stroke-width="0.6"></polyline><polyline points="54.420731707317074,34.146341463414636 53.91260162601626,34.04471544715447 53.45528455284553,33.94308943089431 52.947154471544714,33.84146341463415 52.4390243902439,33.790650406504064 52.03252032520325,33.739837398373986 51.52439024390244,33.6890243902439 51.016260162601625,33.6890243902439 50.55894308943089,33.6890243902439 50.15243902439024,33.6890243902439 49.64430894308943,33.6890243902439 49.1869918699187,33.739837398373986 48.729674796747965,33.790650406504064 48.27235772357724,33.892276422764226 47.86585365853659,33.94308943089431 47.459349593495936,34.04471544715447 47.0020325203252,34.197154471544714 46.59552845528455,34.34959349593496 46.1890243902439,34.5020325203252 45.78252032520325,34.65447154471545 45.3760162601626,34.857723577235774 44.96951219512195,35.11178861788618 44.512195121951216,35.36585365853659 44.105691056910565,35.61991869918699 43.64837398373984,35.8739837398374 43.1910569105691,36.17886178861789 42.78455284552845,36.43292682926829 42.327235772357724,36.73780487804878 41.86991869918699,37.09349593495935 41.514227642276424,37.449186991869915 41.15853658536585,37.80487804878049 40.802845528455286,38.109756097560975 40.447154471544714,38.41463414634146 40.09146341463415,38.77032520325203 39.78658536585366,39.07520325203252 39.48170731707317,39.43089430894309 39.22764227642276,39.83739837398374 38.97357723577235,40.142276422764226 38.71951219512195,40.447154471544714 38.46544715447154,40.802845528455286 38.262195121951216,41.107723577235774 38.05894308943089,41.514227642276424 37.855691056910565,41.97154471544715 37.703252032520325,42.3780487804878 37.5,42.78455284552845 37.34756097560975,43.24186991869919 37.19512195121951,43.699186991869915 37.042682926829265,44.20731707317073 36.83943089430894,44.71544715447154 36.6869918699187,45.12195121951219 36.483739837398375,45.63008130081301" fill="none" stroke="black" stroke-width="0.6"></polyline><polyline points="36.483739837398375,45.63008130081301 36.33130081300813,46.1890243902439 36.17886178861789,46.646341463414636 36.02642276422764,47.103658536585364 35.823170731707314,47.5609756097561 35.72154471544715,48.06910569105691 35.56910569105691,48.577235772357724 35.46747967479675,49.08536585365854 35.416666666666664,49.49186991869919 35.36585365853659,49.949186991869915 35.36585365853659,50.50813008130081 35.36585365853659,50.96544715447154 35.36585365853659,51.37195121951219 35.36585365853659,51.829268292682926 35.416666666666664,52.28658536585366 35.46747967479675,52.74390243902439 35.56910569105691,53.2520325203252 35.61991869918699,53.65853658536585 35.670731707317074,54.0650406504065 35.77235772357724,54.52235772357724 35.8739837398374,54.979674796747965 35.97560975609756,55.4369918699187 36.1280487804878,55.84349593495935 36.229674796747965,56.25 36.38211382113821,56.70731707317073 36.53455284552845,57.21544715447154 36.6869918699187,57.62195121951219 36.890243902439025,58.02845528455284 37.09349593495935,58.43495934959349 37.24593495934959,58.84146341463415 37.449186991869915,59.298780487804876 37.703252032520325,59.70528455284553 37.90650406504065,60.0609756097561 38.16056910569105,60.416666666666664 38.46544715447154,60.823170731707314 38.71951219512195,61.229674796747965 38.97357723577235,61.58536585365854 39.27845528455285,61.9410569105691 39.53252032520325,62.296747967479675 39.83739837398374,62.60162601626016 40.142276422764226,62.95731707317073 40.447154471544714,63.262195121951216 40.7520325203252,63.61788617886179 41.05691056910569,63.922764227642276 41.36178861788618,64.22764227642276 41.71747967479675,64.48170731707317 42.02235772357724,64.73577235772358 42.3780487804878,64.9390243902439 42.733739837398375,65.2439024390244 43.08943089430894,65.4979674796748 43.44512195121951,65.7520325203252" fill="none" stroke="black" stroke-width="0.6"></polyline><polyline points="43.44512195121951,65.7520325203252 43.85162601626016,66.0060975609756 44.20731707317073,66.26016260162602 44.61382113821138,66.46341463414635 45.07113821138211,66.66666666666667 45.47764227642276,66.8191056910569 45.9349593495935,66.97154471544715 46.392276422764226,67.17479674796748 46.798780487804876,67.32723577235772 47.25609756097561,67.47967479674797 47.71341463414634,67.6321138211382 48.11991869918699,67.73373983739837 48.577235772357724,67.83536585365853 49.03455284552845,67.9369918699187 49.4410569105691,67.98780487804878 49.89837398373984,68.03861788617886 50.30487804878049,68.08943089430895 50.71138211382114,68.14024390243902 51.11788617886179,68.1910569105691 51.575203252032516,68.1910569105691 51.981707317073166,68.24186991869918 52.38821138211382,68.24186991869918 52.84552845528455,68.24186991869918 53.201219512195124,68.1910569105691 53.65853658536585,68.14024390243902 54.11585365853659,68.08943089430895 54.52235772357724,67.98780487804878 54.979674796747965,67.88617886178862 55.4369918699187,67.78455284552845 55.94512195121951,67.6321138211382 56.453252032520325,67.42886178861788 56.96138211382114,67.22560975609755 57.418699186991866,67.02235772357723 57.92682926829268,66.8191056910569 58.43495934959349,66.61585365853658 58.892276422764226,66.46341463414635 59.298780487804876,66.26016260162602 59.70528455284553,66.0060975609756 60.16260162601626,65.7520325203252 60.61991869918699,65.44715447154472 61.02642276422764,65.14227642276423 61.43292682926829,64.83739837398373 61.78861788617886,64.53252032520325 62.19512195121951,64.22764227642276 62.60162601626016,63.97357723577235 62.95731707317073,63.61788617886179 63.36382113821138,63.262195121951216 63.71951219512195,62.90650406504065 64.07520325203252,62.5 64.48170731707317,62.14430894308943 64.83739837398373,61.78861788617886" fill="none" stroke="black" stroke-width="0.6"></polyline><polyline points="64.83739837398373,61.78861788617886 65.2439024390244,61.43292682926829 65.59959349593495,61.02642276422764 65.95528455284553,60.61991869918699 66.26016260162602,60.21341463414634 66.61585365853658,59.80691056910569 66.97154471544715,59.451219512195124 67.27642276422765,59.04471544715447 67.58130081300813,58.58739837398374 67.78455284552845,58.130081300813 67.98780487804878,57.77439024390244 68.1910569105691,57.36788617886179 68.39430894308943,56.96138211382114 68.59756097560975,56.5040650406504 68.75,56.046747967479675 68.90243902439025,55.58943089430894 69.05487804878048,55.18292682926829 69.15650406504065,54.77642276422764 69.2581300813008,54.31910569105691 69.35975609756098,53.760162601626014 69.41056910569105,53.40447154471545 69.46138211382113,52.9979674796748 69.51219512195122,52.540650406504064 69.51219512195122,52.083333333333336 69.51219512195122,51.6260162601626 69.51219512195122,51.168699186991866 69.51219512195122,50.762195121951216 69.51219512195122,50.30487804878049 69.46138211382113,49.74593495934959 69.41056910569105,49.28861788617886 69.41056910569105,48.83130081300813 69.35975609756098,48.3739837398374 69.3089430894309,47.916666666666664 69.20731707317073,47.40853658536585 69.15650406504065,46.951219512195124 69.05487804878048,46.54471544715447 69.0040650406504,46.08739837398374 68.90243902439025,45.579268292682926 68.80081300813008,45.12195121951219 68.69918699186992,44.71544715447154 68.54674796747967,44.25813008130081 68.39430894308943,43.80081300813008 68.24186991869918,43.34349593495935 68.08943089430895,42.83536585365854 67.9369918699187,42.42886178861789 67.78455284552845,42.02235772357724 67.58130081300813,41.5650406504065 67.42886178861788,41.107723577235774 67.22560975609755,40.701219512195124 67.02235772357723,40.29471544715447 66.76829268292683,39.88821138211382" fill="none" stroke="black" stroke-width="0.6"></polyline><polyline points="66.76829268292683,39.88821138211382 66.5650406504065,39.48170731707317 66.3109756097561,39.02439024390244 66.10772357723577,38.61788617886179 65.85365853658537,38.21138211382114 65.59959349593495,37.855691056910565 65.39634146341463,37.5 65.14227642276423,37.14430894308943 64.88821138211382,36.6869918699187 64.58333333333333,36.33130081300813 64.27845528455285,35.97560975609756 63.97357723577235,35.670731707317074 63.61788617886179,35.3150406504065 63.3130081300813,34.959349593495936 62.95731707317073,34.603658536585364 62.60162601626016,34.2479674796748 62.24593495934959,33.94308943089431 61.83943089430894,33.63821138211382 61.483739837398375,33.333333333333336 61.1280487804878,33.02845528455285 60.72154471544715,32.72357723577236 60.3150406504065,32.418699186991866 59.90853658536585,32.16463414634146 59.5020325203252,31.910569105691057 59.09552845528455,31.65650406504065 58.63821138211382,31.453252032520325 58.18089430894309,31.25 57.72357723577235,30.995934959349594 57.266260162601625,30.79268292682927 56.80894308943089,30.538617886178862 56.40243902439024,30.335365853658537 55.94512195121951,30.132113821138212 55.48780487804878,29.928861788617887 55.03048780487805,29.776422764227643 54.573170731707314,29.6239837398374 54.0650406504065,29.522357723577237 53.607723577235774,29.420731707317074 53.09959349593496,29.31910569105691 52.642276422764226,29.217479674796746 52.1849593495935,29.115853658536583 51.67682926829268,29.01422764227642 51.21951219512195,28.96341463414634 50.71138211382114,28.861788617886177 50.203252032520325,28.810975609756095 49.796747967479675,28.760162601626014 49.28861788617886,28.709349593495933 48.78048780487805,28.709349593495933 48.323170731707314,28.709349593495933 47.86585365853659,28.709349593495933 47.357723577235774,28.709349593495933 46.90040650406504,28.760162601626014" fill="none" stroke="black" stroke-width="0.6"></polyline><polyline points="46.90040650406504,28.760162601626014 46.44308943089431,28.810975609756095 45.9349593495935,28.912601626016258 45.47764227642276,29.01422764227642 45.02032520325203,29.0650406504065 44.5630081300813,29.217479674796746 44.105691056910565,29.31910569105691 43.64837398373984,29.420731707317074 43.1910569105691,29.573170731707318 42.78455284552845,29.67479674796748 42.327235772357724,29.827235772357724 41.81910569105691,30.03048780487805 41.41260162601626,30.233739837398375 40.95528455284553,30.4369918699187 40.4979674796748,30.691056910569106 40.09146341463415,30.945121951219512 39.63414634146341,31.19918699186992 39.22764227642276,31.453252032520325 38.82113821138211,31.65650406504065 38.41463414634146,31.910569105691057 38.00813008130081,32.16463414634146 37.60162601626016,32.46951219512195 37.19512195121951,32.77439024390244 36.78861788617886,33.13008130081301 36.38211382113821,33.4349593495935 35.97560975609756,33.739837398373986 35.56910569105691,34.04471544715447 35.264227642276424,34.298780487804876 34.959349593495936,34.65447154471545 34.603658536585364,34.959349593495936 34.34959349593496,35.3150406504065 34.04471544715447,35.670731707317074 33.739837398373986,35.97560975609756 33.4349593495935,36.28048780487805 33.23170731707317,36.58536585365854 32.97764227642276,36.890243902439025 32.77439024390244,37.24593495934959 32.57113821138211,37.65243902439024 32.36788617886179,38.00813008130081 32.11382113821138,38.3130081300813 31.910569105691057,38.668699186991866 31.70731707317073,39.02439024390244 31.453252032520325,39.48170731707317 31.25,39.88821138211382 30.995934959349594,40.29471544715447 30.79268292682927,40.65040650406504 30.589430894308943,41.05691056910569 30.335365853658537,41.514227642276424 30.132113821138212,41.920731707317074 29.878048780487806,42.3780487804878 29.67479674796748,42.733739837398375" fill="none" stroke="black" stroke-width="0.6"></polyline><polyline points="29.67479674796748,42.733739837398375 29.471544715447155,43.08943089430894 29.268292682926827,43.546747967479675 29.0650406504065,44.0040650406504 28.912601626016258,44.41056910569105 28.760162601626014,44.8170731707317 28.65853658536585,45.12195121951219 28.60772357723577,45.52845528455285 28.506097560975608,45.9349593495935 28.455284552845526,46.34146341463415 28.404471544715445,46.697154471544714 28.353658536585364,47.103658536585364 28.302845528455283,47.459349593495936 28.302845528455283,47.8150406504065 28.2520325203252,48.27235772357724 28.20121951219512,48.67886178861789 28.15040650406504,49.08536585365854 28.048780487804876,49.49186991869919 27.997967479674795,49.89837398373984 27.896341463414632,50.40650406504065 27.79471544715447,50.91463414634146 27.693089430894307,51.37195121951219 27.642276422764226,51.829268292682926 27.540650406504064,52.33739837398374 27.4390243902439,52.84552845528455 27.38821138211382,53.353658536585364 27.33739837398374,53.8109756097561 27.33739837398374,54.26829268292683 27.33739837398374,54.72560975609756 27.33739837398374,55.233739837398375 27.38821138211382,55.640243902439025 27.489837398373982,56.046747967479675 27.591463414634145,56.5040650406504 27.693089430894307,56.91056910569105 27.79471544715447,57.36788617886179 27.947154471544714,57.77439024390244 28.048780487804876,58.130081300813 28.20121951219512,58.536585365853654 28.302845528455283,58.94308943089431 28.455284552845526,59.34959349593496 28.60772357723577,59.75609756097561 28.760162601626014,60.16260162601626 28.912601626016258,60.51829268292683 29.0650406504065,60.92479674796748 29.217479674796746,61.38211382113821 29.369918699186993,61.83943089430894 29.573170731707318,62.24593495934959 29.725609756097562,62.65243902439024 29.878048780487806,63.05894308943089 30.08130081300813,63.516260162601625 30.284552845528456,63.922764227642276" fill="none" stroke="black" stroke-width="0.6"></polyline><polyline points="30.284552845528456,63.922764227642276 30.48780487804878,64.32926829268293 30.640243902439025,64.6849593495935 30.89430894308943,65.04065040650406 31.097560975609756,65.44715447154472 31.30081300813008,65.85365853658537 31.60569105691057,66.20934959349593 31.859756097560975,66.51422764227642 32.16463414634146,66.76829268292683 32.418699186991866,67.07317073170732 32.72357723577236,67.3780487804878 32.97764227642276,67.73373983739837 33.28252032520325,68.03861788617886 33.58739837398374,68.29268292682927 33.892276422764226,68.54674796747967 34.197154471544714,68.80081300813008 34.5020325203252,69.05487804878048 34.857723577235774,69.3089430894309 35.16260162601626,69.61382113821138 35.46747967479675,69.91869918699187 35.823170731707314,70.17276422764228 36.17886178861789,70.47764227642276 36.53455284552845,70.73170731707317 36.9410569105691,70.98577235772358 37.296747967479675,71.1890243902439 37.60162601626016,71.4430894308943 38.00813008130081,71.69715447154472 38.41463414634146,71.95121951219512 38.77032520325203,72.15447154471545 39.22764227642276,72.40853658536585 39.583333333333336,72.61178861788618 39.989837398373986,72.76422764227642 40.396341463414636,72.96747967479675 40.802845528455286,73.119918699187 41.260162601626014,73.27235772357723 41.666666666666664,73.42479674796748 42.073170731707314,73.6280487804878 42.479674796747965,73.78048780487805 42.98780487804878,73.9329268292683 43.39430894308943,74.13617886178862 43.80081300813008,74.28861788617886 44.20731707317073,74.4410569105691 44.5630081300813,74.54268292682927 45.02032520325203,74.64430894308943 45.42682926829268,74.79674796747967 45.833333333333336,74.84756097560975 46.1890243902439,74.94918699186992 46.59552845528455,75.05081300813008 47.0020325203252,75.15243902439025 47.40853658536585,75.20325203252033 47.86585365853659,75.2540650406504" fill="none" stroke="black" stroke-width="0.6"></polyline><polyline points="47.86585365853659,75.2540650406504 48.22154471544715,75.30487804878048 48.6280487804878,75.30487804878048 49.03455284552845,75.35569105691057 49.4410569105691,75.35569105691057 49.84756097560975,75.35569105691057 50.2540650406504,75.35569105691057 50.66056910569105,75.35569105691057 51.0670731707317,75.35569105691057 51.52439024390244,75.30487804878048 51.93089430894309,75.2540650406504 52.33739837398374,75.15243902439025 52.79471544715447,75.10162601626016 53.201219512195124,75.05081300813008 53.65853658536585,74.94918699186992 54.11585365853659,74.84756097560975 54.573170731707314,74.7459349593496 55.03048780487805,74.64430894308943 55.48780487804878,74.49186991869918 55.99593495934959,74.33943089430895 56.453252032520325,74.23780487804878 56.96138211382114,74.03455284552845 57.36788617886179,73.8821138211382 57.825203252032516,73.72967479674797 58.33333333333333,73.52642276422765 58.790650406504064,73.3739837398374 59.197154471544714,73.22154471544715 59.65447154471545,73.01829268292683 60.0609756097561,72.86585365853658 60.46747967479675,72.71341463414635 60.8739837398374,72.5609756097561 61.28048780487805,72.35772357723577 61.6869918699187,72.15447154471545 62.09349593495935,71.90040650406505 62.5,71.69715447154472 62.95731707317073,71.4430894308943 63.36382113821138,71.1890243902439 63.77032520325203,70.98577235772358 64.17682926829268,70.78252032520325 64.58333333333333,70.52845528455285 64.98983739837398,70.32520325203252 65.44715447154472,70.02032520325203 65.80284552845528,69.76626016260163 66.15853658536585,69.51219512195122 66.5650406504065,69.20731707317073 66.869918699187,68.95325203252033 67.22560975609755,68.75 67.53048780487805,68.4959349593496 67.83536585365853,68.29268292682927 68.08943089430895,68.03861788617886 68.39430894308943,67.78455284552845" fill="none" stroke="black" stroke-width="0.6"></polyline><polyline points="68.39430894308943,67.78455284552845 68.64837398373983,67.53048780487805 68.95325203252033,67.22560975609755 69.2581300813008,66.92073170731707 69.46138211382113,66.71747967479675 69.71544715447155,66.46341463414635 69.96951219512195,66.20934959349593 70.17276422764228,66.0060975609756 70.3760162601626,65.7520325203252 70.630081300813,65.44715447154472 70.8841463414634,65.14227642276423 71.08739837398373,64.88821138211382 71.34146341463415,64.58333333333333 71.54471544715447,64.32926829268293 71.79878048780488,64.1260162601626 72.0020325203252,63.82113821138211 72.15447154471545,63.5670731707317 72.35772357723577,63.262195121951216 72.51016260162602,62.95731707317073 72.66260162601625,62.65243902439024 72.86585365853658,62.34756097560975 73.01829268292683,62.09349593495935 73.17073170731707,61.83943089430894 73.32317073170732,61.53455284552845 73.52642276422765,61.229674796747965 73.67886178861788,60.92479674796748 73.8821138211382,60.56910569105691 74.08536585365853,60.264227642276424 74.23780487804878,59.959349593495936 74.39024390243902,59.65447154471545 74.54268292682927,59.34959349593496 74.6951219512195,59.04471544715447 74.84756097560975,58.6890243902439 75,58.33333333333333 75.15243902439025,58.02845528455284 75.2540650406504,57.672764227642276 75.40650406504065,57.36788617886179 75.5081300813008,57.0630081300813 75.60975609756098,56.75813008130081 75.71138211382113,56.40243902439024 75.76219512195122,56.09756097560975 75.8130081300813,55.74186991869919 75.91463414634146,55.48780487804878 75.96544715447155,55.233739837398375 76.01626016260163,54.92886178861789 76.0670731707317,54.6239837398374 76.11788617886178,54.31910569105691 76.16869918699187,54.014227642276424 76.21951219512195,53.709349593495936 76.27032520325203,53.45528455284553 76.27032520325203,53.201219512195124" fill="none" stroke="black" stroke-width="0.6"></polyline><polyline points="76.27032520325203,53.201219512195124 76.3211382113821,52.947154471544714 76.3211382113821,52.74390243902439 76.3719512195122,52.489837398373986 76.3719512195122,52.235772357723576 76.3719512195122,52.083333333333336 76.42276422764228,51.829268292682926 76.42276422764228,51.72764227642276 76.47357723577235,51.575203252032516 76.47357723577235,51.37195121951219 76.52439024390243,51.27032520325203 76.57520325203252,51.0670731707317 76.6260162601626,50.86382113821138 76.67682926829268,50.66056910569105 76.77845528455285,50.45731707317073 76.82926829268293,50.2540650406504 76.880081300813,50.05081300813008 76.93089430894308,49.84756097560975 76.93089430894308,49.69512195121951 76.93089430894308,49.542682926829265 76.98170731707317,49.4410569105691 76.98170731707317,49.33943089430894 76.98170731707317,49.28861788617886 76.98170731707317,49.28861788617886 76.98170731707317,49.28861788617886 76.98170731707317,49.28861788617886 76.98170731707317,49.28861788617886 77.03252032520325,49.390243902439025 77.08333333333333,49.49186991869919 77.1849593495935,49.64430894308943 77.28658536585365,49.796747967479675 77.4390243902439,49.949186991869915 77.64227642276423,50.15243902439024 77.89634146341463,50.30487804878049 78.20121951219512,50.50813008130081 78.60772357723577,50.71138211382114 79.01422764227642,50.91463414634146 79.47154471544715,51.168699186991866 80.08130081300813,51.422764227642276 80.6910569105691,51.67682926829268 81.30081300813008,51.981707317073166 81.91056910569105,52.4390243902439 82.52032520325203,52.84552845528455 83.130081300813,53.353658536585364 83.84146341463415,53.86178861788618 84.60365853658537,54.420731707317074" fill="none" stroke="black" stroke-width="0.6"></polyline></svg>