<svg height="100" width="100" preserveAspectRatio="xMidYMid meet"><polyline points="50.30487804878049,50.2540650406504 50.30487804878049,50.2540650406504 50.30487804878049,50.2540650406504 50.355691056910565,50.203252032520325 50.355691056910565,50.203252032520325 50.355691056910565,50.203252032520325 50.355691056910565,50.203252032520325 50.355691056910565,50.15243902439024 50.355691056910565,50.15243902439024 50.355691056910565,50.15243902439024 50.355691056910565,50.15243902439024 50.355691056910565,50.15243902439024 50.355691056910565,50.15243902439024 50.355691056910565,50.15243902439024 50.355691056910565,50.15243902439024 50.355691056910565,50.15243902439024 50.355691056910565,50.15243902439024 50.355691056910565,50.15243902439024 50.355691056910565,50.15243902439024 50.355691056910565,50.15243902439024 50.355691056910565,50.15243902439024 50.30487804878049,50.15243902439024 50.30487804878049,50.15243902439024 50.30487804878049,50.15243902439024 50.30487804878049,50.10162601626016 50.30487804878049,50.10162601626016 50.2540650406504,50.10162601626016 50.2540650406504,50.10162601626016 50.2540650406504,50.10162601626016 50.2540650406504,50.10162601626016 50.2540650406504,50.10162601626016 50.2540650406504,50.10162601626016 50.2540650406504,50.10162601626016 50.2540650406504,50.10162601626016 50.2540650406504,50.10162601626016 50.2540650406504,50.10162601626016 50.2540650406504,50.10162601626016 50.2540650406504,50.10162601626016 50.2540650406504,50.10162601626016" fill="none" stroke="black" stroke-width="0.6"></polyline><polyline points="56.80894308943089,49.949186991869915 56.80894308943089,49.949186991869915 56.80894308943089,49.949186991869915 56.80894308943089,49.949186991869915 56.859756097560975,49.949186991869915 56.859756097560975,49.949186991869915 56.859756097560975,49.949186991869915 56.859756097560975,49.949186991869915 56.859756097560975,49.949186991869915 56.859756097560975,49.949186991869915 56.859756097560975,49.949186991869915 56.859756097560975,49.89837398373984 56.859756097560975,49.89837398373984 56.859756097560975,49.89837398373984 56.859756097560975,49.89837398373984 56.859756097560975,49.89837398373984 56.859756097560975,49.89837398373984 56.859756097560975,49.89837398373984 56.859756097560975,49.89837398373984 56.859756097560975,49.89837398373984 56.859756097560975,49.89837398373984 56.859756097560975,49.89837398373984 56.859756097560975,49.89837398373984 56.859756097560975,49.89837398373984 56.859756097560975,49.89837398373984 56.859756097560975,49.89837398373984 56.859756097560975,49.89837398373984 56.859756097560975,49.89837398373984 56.859756097560975,49.84756097560975" fill="none" stroke="black" stroke-width="0.6"></polyline><polyline points="63.3130081300813,50.40650406504065 63.3130081300813,50.40650406504065 63.3130081300813,50.40650406504065 63.3130081300813,50.40650406504065 63.3130081300813,50.355691056910565 63.3130081300813,50.355691056910565 63.3130081300813,50.355691056910565 63.3130081300813,50.355691056910565 63.3130081300813,50.355691056910565 63.3130081300813,50.355691056910565 63.3130081300813,50.355691056910565 63.3130081300813,50.355691056910565 63.3130081300813,50.355691056910565 63.3130081300813,50.355691056910565 63.3130081300813,50.355691056910565 63.3130081300813,50.355691056910565 63.3130081300813,50.355691056910565 63.3130081300813,50.355691056910565 63.3130081300813,50.355691056910565 63.3130081300813,50.355691056910565 63.3130081300813,50.355691056910565 63.3130081300813,50.355691056910565 63.3130081300813,50.355691056910565 63.3130081300813,50.355691056910565 63.3130081300813,50.355691056910565 63.3130081300813,50.355691056910565 63.3130081300813,50.355691056910565 63.3130081300813,50.355691056910565 63.262195121951216,50.355691056910565 63.262195121951216,50.355691056910565 63.262195121951216,50.355691056910565 63.262195121951216,50.355691056910565 63.262195121951216,50.355691056910565" fill="none" stroke="black" stroke-width="0.6"></polyline><polyline points="69.96951219512195,50.762195121951216 69.96951219512195,50.762195121951216 69.96951219512195,50.762195121951216 69.96951219512195,50.762195121951216 69.96951219512195,50.762195121951216 69.91869918699187,50.71138211382114 69.91869918699187,50.71138211382114 69.91869918699187,50.71138211382114 69.91869918699187,50.71138211382114 69.91869918699187,50.71138211382114 69.91869918699187,50.71138211382114 69.91869918699187,50.71138211382114 69.91869918699187,50.71138211382114 69.91869918699187,50.71138211382114 69.91869918699187,50.71138211382114 69.91869918699187,50.71138211382114 69.91869918699187,50.71138211382114 69.91869918699187,50.71138211382114 69.91869918699187,50.71138211382114 69.91869918699187,50.71138211382114 69.91869918699187,50.71138211382114 69.91869918699187,50.71138211382114 69.91869918699187,50.71138211382114 69.91869918699187,50.71138211382114 69.91869918699187,50.71138211382114 69.91869918699187,50.71138211382114 69.96951219512195,50.71138211382114 69.96951219512195,50.71138211382114 69.96951219512195,50.71138211382114 69.96951219512195,50.71138211382114" fill="none" stroke="black" stroke-width="0.6"></polyline><polyline points="76.67682926829268,50.66056910569105 76.67682926829268,50.609756097560975 76.72764227642276,50.609756097560975 76.72764227642276,50.609756097560975 76.72764227642276,50.609756097560975 76.72764227642276,50.609756097560975 76.72764227642276,50.609756097560975 76.72764227642276,50.609756097560975 76.72764227642276,50.609756097560975 76.72764227642276,50.609756097560975 76.72764227642276,50.609756097560975 76.72764227642276,50.609756097560975 76.72764227642276,50.609756097560975 76.72764227642276,50.609756097560975 76.72764227642276,50.609756097560975 76.72764227642276,50.609756097560975 76.72764227642276,50.609756097560975 76.72764227642276,50.609756097560975 76.72764227642276,50.609756097560975 76.67682926829268,50.609756097560975 76.67682926829268,50.609756097560975 76.67682926829268,50.609756097560975 76.67682926829268,50.609756097560975 76.67682926829268,50.609756097560975 76.67682926829268,50.609756097560975 76.67682926829268,50.609756097560975 76.67682926829268,50.609756097560975 76.6260162601626,50.609756097560975 76.6260162601626,50.609756097560975 76.6260162601626,50.609756097560975 76.6260162601626,50.609756097560975 76.6260162601626,50.609756097560975" fill="none" stroke="black" stroke-width="0.6"></polyline></svg>