<svg height="100" width="100" preserveAspectRatio="xMidYMid meet"><polyline points="50.30487804878049,49.64430894308943 50.609756097560975,48.729674796747965 50.609756097560975,48.67886178861789 50.609756097560975,48.577235772357724 50.55894308943089,48.47560975609756 50.45731707317073,48.42479674796748 50.355691056910565,48.3739837398374 50.2540650406504,48.27235772357724 50.10162601626016,48.22154471544715 50.05081300813008,48.170731707317074 49.89837398373984,48.11991869918699 49.796747967479675,48.01829268292683 49.64430894308943,47.96747967479675 49.542682926829265,47.916666666666664 49.390243902439025,47.916666666666664 49.28861788617886,47.86585365853659 49.136178861788615,47.8150406504065 48.983739837398375,47.8150406504065 48.88211382113821,47.764227642276424 48.67886178861789,47.764227642276424 48.52642276422764,47.764227642276424 48.3739837398374,47.764227642276424 48.170731707317074,47.764227642276424 48.06910569105691,47.764227642276424 47.916666666666664,47.764227642276424 47.8150406504065,47.764227642276424 47.764227642276424,47.764227642276424 47.66260162601626,47.8150406504065 47.66260162601626,47.916666666666664 47.66260162601626,47.96747967479675 47.61178861788618,48.11991869918699 47.5609756097561,48.170731707317074 47.5609756097561,48.27235772357724 47.510162601626014,48.42479674796748 47.459349593495936,48.52642276422764 47.40853658536585,48.67886178861789 47.40853658536585,48.83130081300813 47.357723577235774,49.03455284552845 47.25609756097561,49.28861788617886 47.20528455284553,49.542682926829265 47.15447154471545,49.796747967479675 47.0020325203252,50.30487804878049 46.90040650406504,50.762195121951216 46.798780487804876,51.168699186991866 46.798780487804876,51.422764227642276 46.798780487804876,51.67682926829268 46.798780487804876,51.880081300813 46.798780487804876,52.083333333333336 46.798780487804876,52.33739837398374 46.798780487804876,52.489837398373986 46.798780487804876,52.642276422764226" fill="none" stroke="black" stroke-width="0.6"></polyline><polyline points="46.798780487804876,52.642276422764226 46.84959349593496,52.79471544715447 46.90040650406504,52.947154471544714 47.0020325203252,53.048780487804876 47.15447154471545,53.201219512195124 47.30691056910569,53.302845528455286 47.40853658536585,53.353658536585364 47.61178861788618,53.40447154471545 47.8150406504065,53.50609756097561 47.96747967479675,53.55691056910569 48.170731707317074,53.55691056910569 48.3739837398374,53.607723577235774 48.6280487804878,53.65853658536585 48.83130081300813,53.709349593495936 49.03455284552845,53.709349593495936 49.28861788617886,53.709349593495936 49.542682926829265,53.709349593495936 49.84756097560975,53.709349593495936 50.10162601626016,53.709349593495936 50.50813008130081,53.65853658536585 50.86382113821138,53.50609756097561 51.32113821138211,53.302845528455286 51.829268292682926,53.048780487804876 52.33739837398374,52.84552845528455 52.84552845528455,52.642276422764226 53.353658536585364,52.4390243902439 53.8109756097561,52.235772357723576 54.26829268292683,52.03252032520325 54.72560975609756,51.77845528455284 55.03048780487805,51.52439024390244 55.28455284552845,51.27032520325203 55.58943089430894,51.016260162601625 55.792682926829265,50.8130081300813 56.046747967479675,50.609756097560975 56.199186991869915,50.40650406504065 56.35162601626016,50.2540650406504 56.55487804878049,49.949186991869915 56.75813008130081,49.64430894308943 56.859756097560975,49.33943089430894 57.012195121951216,48.93292682926829 57.11382113821138,48.67886178861789 57.21544715447154,48.42479674796748 57.266260162601625,48.22154471544715 57.3170731707317,48.06910569105691 57.36788617886179,47.916666666666664 57.36788617886179,47.71341463414634 57.36788617886179,47.459349593495936 57.36788617886179,47.15447154471545 57.36788617886179,46.84959349593496 57.36788617886179,46.54471544715447 57.36788617886179,46.239837398373986" fill="none" stroke="black" stroke-width="0.6"></polyline><polyline points="57.36788617886179,46.239837398373986 57.266260162601625,45.985772357723576 57.11382113821138,45.78252032520325 57.012195121951216,45.579268292682926 56.75813008130081,45.27439024390244 56.605691056910565,45.07113821138211 56.35162601626016,44.8170731707317 56.09756097560975,44.512195121951216 55.84349593495935,44.25813008130081 55.58943089430894,44.05487804878049 55.28455284552845,43.80081300813008 54.979674796747965,43.546747967479675 54.573170731707314,43.292682926829265 54.166666666666664,43.08943089430894 53.760162601626014,42.83536585365854 53.302845528455286,42.68292682926829 52.84552845528455,42.479674796747965 52.4390243902439,42.327235772357724 51.981707317073166,42.22560975609756 51.52439024390244,42.073170731707314 51.11788617886179,42.02235772357724 50.66056910569105,41.97154471544715 50.203252032520325,41.920731707317074 49.84756097560975,41.86991869918699 49.390243902439025,41.86991869918699 48.983739837398375,41.86991869918699 48.6280487804878,41.86991869918699 48.22154471544715,41.86991869918699 47.8150406504065,41.86991869918699 47.510162601626014,41.920731707317074 47.15447154471545,41.97154471544715 46.90040650406504,42.073170731707314 46.646341463414636,42.22560975609756 46.392276422764226,42.3780487804878 46.13821138211382,42.58130081300813 45.833333333333336,42.78455284552845 45.52845528455285,43.03861788617886 45.172764227642276,43.292682926829265 44.918699186991866,43.546747967479675 44.61382113821138,43.75 44.30894308943089,43.953252032520325 44.05487804878049,44.15650406504065 43.85162601626016,44.30894308943089 43.59756097560975,44.512195121951216 43.39430894308943,44.766260162601625 43.140243902439025,45.02032520325203 42.9369918699187,45.27439024390244 42.68292682926829,45.52845528455285 42.479674796747965,45.78252032520325 42.27642276422764,46.08739837398374 42.1239837398374,46.290650406504064" fill="none" stroke="black" stroke-width="0.6"></polyline><polyline points="42.1239837398374,46.290650406504064 41.920731707317074,46.59552845528455 41.76829268292683,46.84959349593496 41.61585365853659,47.103658536585364 41.46341463414634,47.459349593495936 41.36178861788618,47.764227642276424 41.209349593495936,48.06910569105691 41.107723577235774,48.42479674796748 41.00609756097561,48.729674796747965 40.90447154471545,49.08536585365854 40.802845528455286,49.49186991869919 40.7520325203252,49.89837398373984 40.701219512195124,50.30487804878049 40.701219512195124,50.66056910569105 40.701219512195124,51.016260162601625 40.701219512195124,51.37195121951219 40.701219512195124,51.77845528455284 40.701219512195124,52.083333333333336 40.701219512195124,52.4390243902439 40.701219512195124,52.79471544715447 40.701219512195124,53.09959349593496 40.802845528455286,53.40447154471545 40.95528455284553,53.8109756097561 41.05691056910569,54.11585365853659 41.209349593495936,54.47154471544715 41.41260162601626,54.77642276422764 41.61585365853659,55.03048780487805 41.81910569105691,55.33536585365854 42.073170731707314,55.640243902439025 42.327235772357724,55.94512195121951 42.58130081300813,56.25 42.9369918699187,56.605691056910565 43.1910569105691,56.859756097560975 43.546747967479675,57.11382113821138 43.90243902439024,57.36788617886179 44.20731707317073,57.52032520325203 44.5630081300813,57.72357723577235 44.918699186991866,57.97764227642276 45.3760162601626,58.18089430894309 45.73170731707317,58.33333333333333 46.1890243902439,58.485772357723576 46.646341463414636,58.63821138211382 47.052845528455286,58.739837398373986 47.510162601626014,58.84146341463415 47.96747967479675,58.94308943089431 48.42479674796748,58.94308943089431 48.88211382113821,58.99390243902439 49.390243902439025,59.04471544715447 49.796747967479675,59.09552845528455 50.2540650406504,59.146341463414636 50.71138211382114,59.146341463414636" fill="none" stroke="black" stroke-width="0.6"></polyline><polyline points="50.71138211382114,59.146341463414636 51.11788617886179,59.146341463414636 51.575203252032516,59.146341463414636 51.981707317073166,59.146341463414636 52.38821138211382,59.146341463414636 52.84552845528455,59.146341463414636 53.2520325203252,59.146341463414636 53.65853658536585,59.09552845528455 54.0650406504065,58.94308943089431 54.52235772357724,58.790650406504064 54.92886178861789,58.58739837398374 55.33536585365854,58.33333333333333 55.792682926829265,58.02845528455284 56.30081300813008,57.72357723577235 56.75813008130081,57.418699186991866 57.21544715447154,57.0630081300813 57.62195121951219,56.70731707317073 58.079268292682926,56.40243902439024 58.485772357723576,55.99593495934959 58.892276422764226,55.640243902439025 59.298780487804876,55.233739837398375 59.65447154471545,54.827235772357724 60.010162601626014,54.36991869918699 60.264227642276424,53.96341463414634 60.51829268292683,53.50609756097561 60.77235772357724,52.9979674796748 60.97560975609756,52.540650406504064 61.17886178861789,52.083333333333336 61.38211382113821,51.52439024390244 61.53455284552845,51.016260162601625 61.6869918699187,50.50813008130081 61.78861788617886,50 61.9410569105691,49.49186991869919 61.9410569105691,48.93292682926829 62.042682926829265,48.42479674796748 62.09349593495935,47.916666666666664 62.09349593495935,47.459349593495936 62.09349593495935,46.951219512195124 62.09349593495935,46.49390243902439 62.09349593495935,46.03658536585366 62.09349593495935,45.63008130081301 62.042682926829265,45.22357723577235 61.9410569105691,44.766260162601625 61.83943089430894,44.25813008130081 61.73780487804878,43.90243902439024 61.58536585365854,43.49593495934959 61.43292682926829,43.03861788617886 61.229674796747965,42.63211382113821 60.97560975609756,42.27642276422764 60.72154471544715,41.81910569105691 60.51829268292683,41.514227642276424" fill="none" stroke="black" stroke-width="0.6"></polyline><polyline points="60.51829268292683,41.514227642276424 60.21341463414634,41.15853658536585 60.010162601626014,40.853658536585364 59.75609756097561,40.4979674796748 59.451219512195124,40.142276422764226 59.09552845528455,39.83739837398374 58.739837398373986,39.53252032520325 58.43495934959349,39.27845528455285 58.02845528455284,38.97357723577235 57.672764227642276,38.71951219512195 57.3170731707317,38.41463414634146 56.91056910569105,38.16056910569105 56.5040650406504,37.90650406504065 56.046747967479675,37.703252032520325 55.58943089430894,37.449186991869915 55.18292682926829,37.296747967479675 54.77642276422764,37.19512195121951 54.26829268292683,36.99186991869919 53.8109756097561,36.890243902439025 53.302845528455286,36.73780487804878 52.84552845528455,36.636178861788615 52.4390243902439,36.53455284552845 52.03252032520325,36.483739837398375 51.575203252032516,36.38211382113821 51.168699186991866,36.38211382113821 50.8130081300813,36.38211382113821 50.40650406504065,36.33130081300813 50.05081300813008,36.33130081300813 49.64430894308943,36.33130081300813 49.23780487804878,36.28048780487805 48.88211382113821,36.28048780487805 48.47560975609756,36.28048780487805 48.06910569105691,36.28048780487805 47.66260162601626,36.28048780487805 47.25609756097561,36.28048780487805 46.84959349593496,36.33130081300813 46.49390243902439,36.483739837398375 46.13821138211382,36.636178861788615 45.68089430894309,36.78861788617886 45.3760162601626,36.99186991869919 44.918699186991866,37.24593495934959 44.46138211382114,37.5 44.05487804878049,37.7540650406504 43.546747967479675,38.05894308943089 43.08943089430894,38.41463414634146 42.58130081300813,38.668699186991866 42.02235772357724,38.97357723577235 41.61585365853659,39.22764227642276 41.209349593495936,39.43089430894309 40.802845528455286,39.63414634146341 40.447154471544714,39.83739837398374" fill="none" stroke="black" stroke-width="0.6"></polyline><polyline points="40.447154471544714,39.83739837398374 40.09146341463415,40.040650406504064 39.735772357723576,40.29471544715447 39.48170731707317,40.4979674796748 39.176829268292686,40.7520325203252 38.77032520325203,41.05691056910569 38.516260162601625,41.3109756097561 38.16056910569105,41.61585365853659 37.80487804878049,41.86991869918699 37.5,42.1239837398374 37.19512195121951,42.479674796747965 36.83943089430894,42.886178861788615 36.58536585365854,43.292682926829265 36.28048780487805,43.699186991869915 35.97560975609756,44.15650406504065 35.72154471544715,44.5630081300813 35.46747967479675,45.02032520325203 35.21341463414634,45.579268292682926 35.010162601626014,45.985772357723576 34.80691056910569,46.44308943089431 34.552845528455286,46.90040650406504 34.40040650406504,47.357723577235774 34.2479674796748,47.8150406504065 34.146341463414636,48.27235772357724 34.04471544715447,48.67886178861789 33.99390243902439,49.08536585365854 33.94308943089431,49.59349593495935 33.94308943089431,50.05081300813008 33.892276422764226,50.50813008130081 33.892276422764226,50.96544715447154 33.892276422764226,51.422764227642276 33.892276422764226,51.93089430894309 33.892276422764226,52.4390243902439 33.892276422764226,52.896341463414636 33.94308943089431,53.353658536585364 34.04471544715447,53.91260162601626 34.146341463414636,54.420731707317074 34.298780487804876,54.92886178861789 34.5020325203252,55.48780487804878 34.70528455284553,55.99593495934959 34.857723577235774,56.5040650406504 35.11178861788618,57.11382113821138 35.36585365853659,57.57113821138211 35.61991869918699,58.079268292682926 35.92479674796748,58.63821138211382 36.28048780487805,59.09552845528455 36.58536585365854,59.552845528455286 36.99186991869919,59.959349593495936 37.296747967479675,60.416666666666664 37.703252032520325,60.8739837398374 38.109756097560975,61.28048780487805" fill="none" stroke="black" stroke-width="0.6"></polyline><polyline points="38.109756097560975,61.28048780487805 38.516260162601625,61.58536585365854 38.922764227642276,61.890243902439025 39.38008130081301,62.19512195121951 39.78658536585366,62.55081300813008 40.24390243902439,62.855691056910565 40.701219512195124,63.16056910569105 41.209349593495936,63.41463414634146 41.71747967479675,63.61788617886179 42.68292682926829,64.02439024390243 43.75,64.380081300813 44.918699186991866,64.73577235772358 45.47764227642276,64.83739837398373 46.08739837398374,64.98983739837398 46.697154471544714,65.04065040650406 47.30691056910569,65.09146341463415 47.86585365853659,65.1930894308943 48.577235772357724,65.2439024390244 49.1869918699187,65.2439024390244 49.84756097560975,65.29471544715447 50.55894308943089,65.29471544715447 51.168699186991866,65.29471544715447 51.880081300813,65.29471544715447 52.59146341463415,65.29471544715447 53.302845528455286,65.2439024390244 54.0650406504065,65.14227642276423 54.827235772357724,64.9390243902439 55.58943089430894,64.6849593495935 56.40243902439024,64.380081300813 57.21544715447154,64.07520325203252 57.97764227642276,63.82113821138211 58.6890243902439,63.516260162601625 59.5020325203252,63.21138211382114 60.16260162601626,62.90650406504065 60.8739837398374,62.60162601626016 61.53455284552845,62.09349593495935 62.19512195121951,61.73780487804878 62.7540650406504,61.33130081300813 63.41463414634146,60.92479674796748 63.922764227642276,60.56910569105691 64.48170731707317,60.0609756097561 64.98983739837398,59.603658536585364 65.44715447154472,59.146341463414636 65.85365853658537,58.63821138211382 66.26016260162602,58.079268292682926 66.5650406504065,57.52032520325203 66.869918699187,56.96138211382114 67.17479674796748,56.35162601626016 67.3780487804878,55.792682926829265 67.6321138211382,55.13211382113821 67.88617886178862,54.47154471544715" fill="none" stroke="black" stroke-width="0.6"></polyline><polyline points="67.88617886178862,54.47154471544715 68.14024390243902,53.86178861788618 68.29268292682927,53.2520325203252 68.4959349593496,52.540650406504064 68.64837398373983,51.880081300813 68.75,51.27032520325203 68.85162601626016,50.609756097560975 68.90243902439025,50.05081300813008 68.90243902439025,49.4410569105691 68.90243902439025,48.83130081300813 68.90243902439025,48.170731707317074 68.90243902439025,47.61178861788618 68.90243902439025,47.0020325203252 68.90243902439025,46.49390243902439 68.85162601626016,45.985772357723576 68.69918699186992,45.47764227642276 68.54674796747967,44.96951219512195 68.39430894308943,44.41056910569105 68.24186991869918,43.85162601626016 68.08943089430895,43.292682926829265 67.88617886178862,42.83536585365854 67.6829268292683,42.327235772357724 67.47967479674797,41.81910569105691 67.22560975609755,41.36178861788618 66.97154471544715,40.95528455284553 66.66666666666667,40.4979674796748 66.41260162601625,40.040650406504064 66.15853658536585,39.63414634146341 65.90447154471545,39.22764227642276 65.65040650406505,38.82113821138211 65.34552845528455,38.41463414634146 65.09146341463415,38.05894308943089 64.73577235772358,37.703252032520325 64.43089430894308,37.39837398373984 64.17682926829268,37.09349593495935 63.87195121951219,36.73780487804878 63.61788617886179,36.38211382113821 63.262195121951216,36.077235772357724 62.855691056910565,35.72154471544715 62.5,35.46747967479675 62.14430894308943,35.264227642276424 61.73780487804878,34.959349593495936 61.43292682926829,34.70528455284553 61.077235772357724,34.40040650406504 60.670731707317074,34.09552845528455 60.21341463414634,33.84146341463415 59.857723577235774,33.53658536585366 59.34959349593496,33.28252032520325 58.892276422764226,33.079268292682926 58.33333333333333,32.82520325203252 57.77439024390244,32.57113821138211" fill="none" stroke="black" stroke-width="0.6"></polyline><polyline points="57.77439024390244,32.57113821138211 57.3170731707317,32.36788617886179 56.80894308943089,32.21544715447154 56.30081300813008,32.012195121951216 55.792682926829265,31.808943089430894 55.233739837398375,31.60569105691057 54.72560975609756,31.351626016260163 54.166666666666664,31.097560975609756 53.55691056910569,30.945121951219512 52.84552845528455,30.84349593495935 52.1849593495935,30.691056910569106 51.52439024390244,30.640243902439025 50.86382113821138,30.589430894308943 50.203252032520325,30.589430894308943 49.59349593495935,30.589430894308943 48.88211382113821,30.589430894308943 48.323170731707314,30.589430894308943 47.66260162601626,30.589430894308943 46.90040650406504,30.589430894308943 46.1890243902439,30.589430894308943 45.47764227642276,30.589430894308943 44.71544715447154,30.741869918699187 44.0040650406504,30.89430894308943 43.24186991869919,31.097560975609756 42.479674796747965,31.402439024390244 41.76829268292683,31.65650406504065 41.05691056910569,31.961382113821138 40.29471544715447,32.266260162601625 39.6849593495935,32.57113821138211 39.02439024390244,32.8760162601626 38.41463414634146,33.18089430894309 37.95731707317073,33.53658536585366 37.5,33.790650406504064 37.14430894308943,34.197154471544714 36.78861788617886,34.5020325203252 36.53455284552845,34.75609756097561 36.28048780487805,35.010162601626014 36.02642276422764,35.264227642276424 35.77235772357724,35.56910569105691 35.56910569105691,35.97560975609756 35.416666666666664,36.38211382113821 35.21341463414634,36.83943089430894 35.010162601626014,37.24593495934959 34.80691056910569,37.60162601626016 34.552845528455286,37.95731707317073 34.34959349593496,38.36382113821138 34.146341463414636,38.71951219512195 33.94308943089431,39.176829268292686 33.790650406504064,39.63414634146341 33.53658536585366,40.09146341463415 33.333333333333336,40.59959349593496" fill="none" stroke="black" stroke-width="0.6"></polyline><polyline points="33.333333333333336,40.59959349593496 33.079268292682926,41.107723577235774 32.8760162601626,41.666666666666664 32.6219512195122,42.327235772357724 32.46951219512195,42.886178861788615 32.266260162601625,43.546747967479675 32.0630081300813,44.15650406504065 31.859756097560975,44.71544715447154 31.758130081300813,45.27439024390244 31.60569105691057,45.833333333333336 31.453252032520325,46.34146341463415 31.351626016260163,46.84959349593496 31.25,47.459349593495936 31.19918699186992,48.01829268292683 31.148373983739837,48.6280487804878 31.097560975609756,49.33943089430894 31.046747967479675,49.949186991869915 31.046747967479675,50.609756097560975 31.046747967479675,51.37195121951219 31.046747967479675,52.083333333333336 31.046747967479675,52.74390243902439 31.046747967479675,53.50609756097561 31.046747967479675,54.166666666666664 31.046747967479675,54.8780487804878 31.097560975609756,55.640243902439025 31.30081300813008,56.35162601626016 31.504065040650406,57.0630081300813 31.758130081300813,57.8760162601626 32.0630081300813,58.58739837398374 32.36788617886179,59.298780487804876 32.77439024390244,60.0609756097561 33.13008130081301,60.670731707317074 33.53658536585366,61.33130081300813 33.99390243902439,61.99186991869919 34.40040650406504,62.60162601626016 34.857723577235774,63.109756097560975 35.36585365853659,63.668699186991866 35.8739837398374,64.1260162601626 36.38211382113821,64.6341463414634 36.9410569105691,65.09146341463415 37.5,65.4979674796748 38.00813008130081,65.95528455284553 38.61788617886179,66.41260162601625 39.176829268292686,66.76829268292683 39.735772357723576,67.17479674796748 40.29471544715447,67.58130081300813 40.802845528455286,67.9369918699187 41.3109756097561,68.1910569105691 41.86991869918699,68.59756097560975 42.3780487804878,68.90243902439025 42.83536585365854,69.15650406504065" fill="none" stroke="black" stroke-width="0.6"></polyline><polyline points="42.83536585365854,69.15650406504065 43.34349593495935,69.46138211382113 43.80081300813008,69.76626016260163 44.25813008130081,69.96951219512195 44.8170731707317,70.22357723577235 45.325203252032516,70.47764227642276 45.833333333333336,70.68089430894308 46.392276422764226,70.8841463414634 46.90040650406504,71.08739837398373 47.40853658536585,71.1890243902439 47.86585365853659,71.39227642276423 48.3739837398374,71.4430894308943 48.93292682926829,71.59552845528455 49.4410569105691,71.64634146341463 50,71.69715447154472 50.609756097560975,71.7479674796748 51.168699186991866,71.79878048780488 51.829268292682926,71.84959349593495 52.489837398373986,71.84959349593495 53.09959349593496,71.84959349593495 53.709349593495936,71.84959349593495 54.31910569105691,71.84959349593495 54.8780487804878,71.84959349593495 55.4369918699187,71.84959349593495 55.99593495934959,71.84959349593495 56.453252032520325,71.84959349593495 56.96138211382114,71.84959349593495 57.52032520325203,71.7479674796748 57.97764227642276,71.64634146341463 58.485772357723576,71.54471544715447 59.09552845528455,71.39227642276423 59.603658536585364,71.23983739837398 60.21341463414634,71.08739837398373 60.92479674796748,70.83333333333333 61.53455284552845,70.57926829268293 62.19512195121951,70.27439024390243 62.95731707317073,69.96951219512195 63.71951219512195,69.66463414634146 64.43089430894308,69.3089430894309 65.29471544715447,68.90243902439025 66.0060975609756,68.4451219512195 66.66666666666667,68.08943089430895 67.3780487804878,67.73373983739837 67.9369918699187,67.32723577235772 68.54674796747967,66.97154471544715 69.10569105691057,66.51422764227642 69.66463414634146,66.0569105691057 70.22357723577235,65.70121951219512 70.78252032520325,65.2439024390244 71.1890243902439,64.83739837398373 71.64634146341463,64.32926829268293" fill="none" stroke="black" stroke-width="0.6"></polyline><polyline points="71.64634146341463,64.32926829268293 72.10365853658537,63.87195121951219 72.5609756097561,63.46544715447154 72.86585365853658,62.95731707317073 73.27235772357723,62.39837398373984 73.6280487804878,61.83943089430894 74.03455284552845,61.38211382113821 74.39024390243902,60.823170731707314 74.7459349593496,60.21341463414634 75.05081300813008,59.65447154471545 75.5081300813008,59.04471544715447 75.86382113821138,58.43495934959349 76.27032520325203,57.72357723577235 76.6260162601626,57.0630081300813 76.98170731707317,56.453252032520325 77.28658536585365,55.74186991869919 77.54065040650406,55.08130081300813 77.79471544715447,54.52235772357724 77.9979674796748,53.8109756097561 78.15040650406505,53.201219512195124 78.2520325203252,52.69308943089431 78.2520325203252,52.235772357723576 78.2520325203252,51.6260162601626 78.2520325203252,51.11788617886179 78.2520325203252,50.71138211382114 78.2520325203252,50.30487804878049 78.2520325203252,49.89837398373984 78.2520325203252,49.542682926829265 78.15040650406505,49.1869918699187 78.04878048780488,48.88211382113821 77.9979674796748,48.67886178861789 77.89634146341463,48.47560975609756 77.89634146341463,48.42479674796748 77.84552845528455,48.323170731707314 77.84552845528455,48.3739837398374 77.84552845528455,48.577235772357724 77.84552845528455,48.78048780487805" fill="none" stroke="black" stroke-width="0.6"></polyline></svg>