<svg height="100" width="100" preserveAspectRatio="xMidYMid meet"><polyline points="49.949186991869915,49.542682926829265 50.86382113821138,49.03455284552845 51.11788617886179,48.78048780487805 51.32113821138211,48.47560975609756 51.47357723577235,48.170731707317074 51.6260162601626,47.916666666666664 51.77845528455284,47.61178861788618 51.829268292682926,47.20528455284553 51.93089430894309,46.7479674796748 51.981707317073166,46.392276422764226 51.981707317073166,45.985772357723576 51.981707317073166,45.579268292682926 51.981707317073166,45.12195121951219 51.981707317073166,44.66463414634146 51.981707317073166,44.15650406504065 51.981707317073166,43.80081300813008 51.880081300813,43.49593495934959 51.67682926829268,43.1910569105691 51.37195121951219,42.98780487804878 50.96544715447154,42.83536585365854 50.45731707317073,42.68292682926829 49.84756097560975,42.68292682926829 49.136178861788615,42.68292682926829 48.323170731707314,42.733739837398375 47.5609756097561,43.03861788617886 46.84959349593496,43.44512195121951 46.13821138211382,43.85162601626016 45.68089430894309,44.25813008130081 45.3760162601626,44.66463414634146 45.12195121951219,45.172764227642276 44.918699186991866,45.68089430894309 44.8170731707317,46.1890243902439 44.66463414634146,46.90040650406504 44.512195121951216,47.71341463414634 44.359756097560975,48.52642276422764 44.20731707317073,49.542682926829265 44.15650406504065,50.40650406504065 44.15650406504065,51.168699186991866 44.15650406504065,52.083333333333336 44.15650406504065,52.642276422764226 44.41056910569105,53.15040650406504 44.86788617886179,53.65853658536585 45.3760162601626,54.0650406504065 45.985772357723576,54.36991869918699 46.798780487804876,54.573170731707314 47.66260162601626,54.6239837398374 48.729674796747965,54.6239837398374 50,54.6239837398374 51.27032520325203,54.420731707317074 52.642276422764226,53.86178861788618 54.11585365853659,53.15040650406504" fill="none" stroke="black" stroke-width="0.6"></polyline><polyline points="54.11585365853659,53.15040650406504 55.48780487804878,52.489837398373986 56.75813008130081,51.6260162601626 58.02845528455284,50.66056910569105 58.99390243902439,49.84756097560975 59.75609756097561,48.93292682926829 60.3150406504065,48.06910569105691 60.670731707317074,47.20528455284553 60.823170731707314,46.392276422764226 60.8739837398374,45.63008130081301 60.8739837398374,44.86788617886179 60.8739837398374,44.105691056910565 60.72154471544715,43.39430894308943 60.264227642276424,42.78455284552845 59.80691056910569,42.1239837398374 59.197154471544714,41.46341463414634 58.485772357723576,40.853658536585364 57.72357723577235,40.19308943089431 56.75813008130081,39.583333333333336 55.792682926829265,39.02439024390244 54.72560975609756,38.61788617886179 53.55691056910569,38.21138211382114 52.38821138211382,38.05894308943089 51.11788617886179,38.00813008130081 49.796747967479675,38.00813008130081 48.3739837398374,38.05894308943089 47.103658536585364,38.21138211382114 45.985772357723576,38.5670731707317 44.86788617886179,39.176829268292686 43.546747967479675,39.9390243902439 42.22560975609756,40.853658536585364 40.95528455284553,41.86991869918699 39.88821138211382,42.9369918699187 39.1260162601626,43.90243902439024 38.5670731707317,44.8170731707317 38.262195121951216,45.9349593495935 38.109756097560975,46.84959349593496 38.05894308943089,47.96747967479675 38.05894308943089,49.08536585365854 38.05894308943089,50.203252032520325 38.109756097560975,51.32113821138211 38.36382113821138,52.4390243902439 38.61788617886179,53.353658536585364 38.87195121951219,54.26829268292683 39.22764227642276,55.13211382113821 39.53252032520325,55.94512195121951 39.989837398373986,56.70731707317073 40.701219512195124,57.52032520325203 41.514227642276424,58.18089430894309 42.63211382113821,58.63821138211382 43.953252032520325,58.892276422764226" fill="none" stroke="black" stroke-width="0.6"></polyline><polyline points="43.953252032520325,58.892276422764226 45.42682926829268,58.94308943089431 47.20528455284553,58.94308943089431 49.1869918699187,58.58739837398374 51.21951219512195,57.72357723577235 53.353658536585364,56.65650406504065 55.640243902439025,55.28455284552845 57.77439024390244,53.91260162601626 59.857723577235774,52.489837398373986 61.83943089430894,51.016260162601625 63.46544715447154,49.74593495934959 64.9390243902439,48.42479674796748 66.15853658536585,47.052845528455286 67.02235772357723,45.88414634146341 67.6321138211382,44.61382113821138 68.14024390243902,43.292682926829265 68.39430894308943,42.1239837398374 68.4959349593496,40.853658536585364 68.54674796747967,39.583333333333336 68.54674796747967,38.46544715447154 68.54674796747967,37.449186991869915 68.03861788617886,36.43292682926829 67.3780487804878,35.61991869918699 66.46341463414635,34.90853658536585 65.39634146341463,34.146341463414636 64.1260162601626,33.38414634146341 62.703252032520325,32.72357723577236 61.02642276422764,32.16463414634146 59.34959349593496,31.859756097560975 57.52032520325203,31.60569105691057 55.53861788617886,31.453252032520325 53.760162601626014,31.402439024390244 51.93089430894309,31.402439024390244 50.10162601626016,31.453252032520325 48.3739837398374,31.758130081300813 46.697154471544714,32.21544715447154 44.918699186991866,32.82520325203252 43.1910569105691,33.739837398373986 41.46341463414634,34.75609756097561 39.735772357723576,36.17886178861789 38.262195121951216,37.60162601626016 36.78861788617886,39.22764227642276 35.51829268292683,40.853658536585364 34.5020325203252,42.53048780487805 33.58739837398374,44.105691056910565 32.97764227642276,45.52845528455285 32.52032520325203,46.7479674796748 32.266260162601625,47.96747967479675 32.0630081300813,49.136178861788615 32.012195121951216,50.40650406504065 32.012195121951216,51.880081300813" fill="none" stroke="black" stroke-width="0.6"></polyline><polyline points="32.012195121951216,51.880081300813 32.012195121951216,53.2520325203252 32.0630081300813,54.52235772357724 32.3170731707317,55.99593495934959 32.72357723577236,57.46951219512195 33.23170731707317,58.739837398373986 33.790650406504064,60.16260162601626 34.552845528455286,61.38211382113821 35.56910569105691,62.60162601626016 36.9410569105691,63.5670731707317 38.36382113821138,64.380081300813 39.989837398373986,64.98983739837398 41.86991869918699,65.44715447154472 43.85162601626016,65.54878048780488 46.239837398373986,65.54878048780488 48.78048780487805,65.2439024390244 51.27032520325203,64.32926829268293 53.86178861788618,63.109756097560975 56.75813008130081,61.636178861788615 59.451219512195124,60.11178861788618 62.14430894308943,58.43495934959349 65.14227642276423,56.55487804878049 67.53048780487805,54.72560975609756 69.61382113821138,52.79471544715447 71.54471544715447,51.016260162601625 72.8150406504065,49.64430894308943 73.78048780487805,48.27235772357724 74.4410569105691,46.951219512195124 74.7459349593496,45.73170731707317 74.84756097560975,44.41056910569105 74.89837398373983,43.08943089430894 74.89837398373983,41.76829268292683 74.89837398373983,40.29471544715447 74.54268292682927,38.82113821138211 74.08536585365853,37.34756097560975 73.57723577235772,35.72154471544715 72.96747967479675,34.197154471544714 72.15447154471545,32.82520325203252 71.34146341463415,31.554878048780488 70.32520325203252,30.284552845528456 68.24186991869918,28.048780487804876 65.70121951219512,26.321138211382113 62.5,25 60.61991869918699,24.54268292682927 58.485772357723576,24.288617886178862 56.25,24.23780487804878 54.0650406504065,24.23780487804878 51.6260162601626,24.288617886178862 49.08536585365854,24.94918699186992 46.646341463414636,25.660569105691057 44.25813008130081,26.473577235772357" fill="none" stroke="black" stroke-width="0.6"></polyline><polyline points="44.25813008130081,26.473577235772357 41.97154471544715,27.540650406504064 39.9390243902439,28.55691056910569 37.90650406504065,29.827235772357724 35.8739837398374,31.25 34.146341463414636,32.72357723577236 32.46951219512195,34.34959349593496 31.046747967479675,36.077235772357724 29.369918699186993,38.77032520325203 27.642276422764226,41.36178861788618 26.270325203252032,43.49593495934959 25.304878048780488,45.52845528455285 24.59349593495935,47.5609756097561 24.1869918699187,49.390243902439025 23.932926829268293,50.91463414634146 23.932926829268293,52.4390243902439 23.932926829268293,53.760162601626014 24.1869918699187,55.233739837398375 24.695121951219512,56.91056910569105 25.40650406504065,58.38414634146341 26.270325203252032,59.90853658536585 27.184959349593495,61.38211382113821 28.20121951219512,62.855691056910565 29.268292682926827,64.17682926829268 30.335365853658537,65.34552845528455 31.351626016260163,66.3109756097561 32.77439024390244,67.73373983739837 34.34959349593496,68.90243902439025 36.077235772357724,69.71544715447155 37.855691056910565,70.27439024390243 39.78658536585366,70.73170731707317 41.666666666666664,71.03658536585365 43.699186991869915,71.13821138211382" fill="none" stroke="black" stroke-width="0.6"></polyline><polyline points="57.266260162601625,68.03861788617886 59.65447154471545,67.17479674796748 61.73780487804878,66.0060975609756 63.922764227642276,65.04065040650406 66.26016260162602,63.668699186991866 67.98780487804878,62.60162601626016 69.5630081300813,61.43292682926829 71.08739837398373,60.51829268292683 72.10365853658537,59.603658536585364 73.01829268292683,58.84146341463415 73.67886178861788,57.97764227642276 74.13617886178862,57.21544715447154 74.54268292682927,56.5040650406504 74.79674796747967,55.58943089430894 75,54.827235772357724 75.05081300813008,54.21747967479675 75.10162601626016,53.50609756097561 75.10162601626016,52.896341463414636 75.10162601626016,52.38821138211382 75.10162601626016,51.93089430894309 75.10162601626016,51.37195121951219 75.05081300813008,50.96544715447154 74.94918699186992,50.55894308943089 74.84756097560975,50.30487804878049 74.79674796747967,50.05081300813008 74.7459349593496,49.796747967479675 74.7459349593496,49.64430894308943 74.7459349593496,49.4410569105691 74.7459349593496,49.33943089430894 74.7459349593496,49.28861788617886 74.84756097560975,49.23780487804878 75.20325203252033,49.08536585365854" fill="none" stroke="black" stroke-width="0.6"></polyline></svg>