<svg height="100" width="100" preserveAspectRatio="xMidYMid meet"><polyline points="49.64430894308943,50 49.64430894308943,50 49.64430894308943,50 49.64430894308943,50 49.64430894308943,50 49.64430894308943,50 49.64430894308943,50 49.64430894308943,50 49.64430894308943,50 49.64430894308943,49.89837398373984 49.69512195121951,49.84756097560975 49.69512195121951,49.74593495934959 49.69512195121951,49.59349593495935 49.74593495934959,49.4410569105691 49.74593495934959,49.28861788617886 49.74593495934959,49.136178861788615 49.74593495934959,48.93292682926829 49.69512195121951,48.729674796747965 49.64430894308943,48.47560975609756 49.542682926829265,48.170731707317074 49.49186991869919,47.86585365853659 49.390243902439025,47.510162601626014 49.28861788617886,47.20528455284553 49.1869918699187,46.951219512195124 49.03455284552845,46.697154471544714 48.83130081300813,46.49390243902439 48.67886178861789,46.34146341463415 48.47560975609756,46.239837398373986 48.22154471544715,46.1890243902439 48.01829268292683,46.13821138211382 47.764227642276424,46.13821138211382 47.459349593495936,46.239837398373986 47.20528455284553,46.392276422764226 46.84959349593496,46.59552845528455 46.49390243902439,46.84959349593496 46.1890243902439,47.20528455284553 45.833333333333336,47.61178861788618 45.52845528455285,48.11991869918699 45.325203252032516,48.6280487804878 45.172764227642276,49.1869918699187 45.12195121951219,49.74593495934959 45.12195121951219,50.355691056910565 45.172764227642276,51.016260162601625 45.3760162601626,51.575203252032516 45.63008130081301,52.13414634146341 46.03658536585366,52.69308943089431 46.49390243902439,53.09959349593496 47.052845528455286,53.40447154471545 47.71341463414634,53.65853658536585 48.3739837398374,53.760162601626014 49.136178861788615,53.760162601626014" fill="none" stroke="black" stroke-width="0.6"></polyline><polyline points="49.136178861788615,53.760162601626014 50,53.709349593495936 50.762195121951216,53.50609756097561 51.6260162601626,53.15040650406504 52.540650406504064,52.642276422764226 53.353658536585364,51.981707317073166 54.11585365853659,51.27032520325203 54.8780487804878,50.40650406504065 55.4369918699187,49.542682926829265 55.89430894308943,48.67886178861789 56.25,47.764227642276424 56.35162601626016,46.951219512195124 56.40243902439024,46.13821138211382 56.35162601626016,45.22357723577235 56.14837398373984,44.46138211382114 55.792682926829265,43.64837398373984 55.386178861788615,42.886178861788615 54.92886178861789,42.327235772357724 54.36991869918699,41.76829268292683 53.709349593495936,41.260162601626014 53.048780487804876,40.802845528455286 52.28658536585366,40.396341463414636 51.422764227642276,40.040650406504064 50.55894308943089,39.78658536585366 49.64430894308943,39.63414634146341 48.6280487804878,39.583333333333336 47.61178861788618,39.78658536585366 46.54471544715447,40.24390243902439 45.3760162601626,40.853658536585364 44.20731707317073,41.666666666666664 42.98780487804878,42.58130081300813 41.81910569105691,43.64837398373984 40.802845528455286,44.766260162601625 39.88821138211382,45.9349593495935 39.176829268292686,47.103658536585364 38.71951219512195,48.323170731707314 38.41463414634146,49.59349593495935 38.36382113821138,50.91463414634146 38.41463414634146,52.1849593495935 38.71951219512195,53.45528455284553 39.176829268292686,54.6239837398374 39.735772357723576,55.74186991869919 40.396341463414636,56.75813008130081 41.15853658536585,57.62195121951219 41.97154471544715,58.33333333333333 42.886178861788615,58.94308943089431 43.85162601626016,59.40040650406504 44.918699186991866,59.65447154471545 46.08739837398374,59.70528455284553 47.357723577235774,59.65447154471545 48.67886178861789,59.2479674796748" fill="none" stroke="black" stroke-width="0.6"></polyline><polyline points="48.67886178861789,59.2479674796748 50.15243902439024,58.536585365853654 51.67682926829268,57.62195121951219 53.201219512195124,56.5040650406504 54.72560975609756,55.28455284552845 56.25,53.91260162601626 57.57113821138211,52.59146341463415 58.84146341463415,51.168699186991866 59.959349593495936,49.74593495934959 60.8739837398374,48.42479674796748 61.636178861788615,46.951219512195124 62.14430894308943,45.68089430894309 62.5,44.30894308943089 62.703252032520325,42.78455284552845 62.703252032520325,41.41260162601626 62.60162601626016,39.88821138211382 62.296747967479675,38.262195121951216 61.83943089430894,36.890243902439025 61.229674796747965,35.416666666666664 60.51829268292683,34.09552845528455 59.75609756097561,33.13008130081301 58.892276422764226,32.11382113821138 57.8760162601626,31.19918699186992 56.80894308943089,30.538617886178862 55.58943089430894,29.928861788617887 54.21747967479675,29.471544715447155 52.84552845528455,29.268292682926827 51.27032520325203,29.217479674796746 49.59349593495935,29.31910569105691 48.01829268292683,29.67479674796748 46.290650406504064,30.284552845528456 44.512195121951216,31.097560975609756 42.9369918699187,32.012195121951216 41.260162601626014,33.13008130081301 39.583333333333336,34.451219512195124 38.16056910569105,35.77235772357724 36.83943089430894,37.39837398373984 35.56910569105691,39.22764227642276 34.603658536585364,41.15853658536585 33.739837398373986,43.34349593495935 33.079268292682926,45.73170731707317 32.6219512195122,47.916666666666664 32.36788617886179,50.2540650406504 32.266260162601625,52.489837398373986 32.266260162601625,54.6239837398374 32.418699186991866,56.70731707317073 32.77439024390244,58.6890243902439 33.28252032520325,60.670731707317074 33.99390243902439,62.65243902439024 34.80691056910569,64.48170731707317 35.77235772357724,66.20934959349593" fill="none" stroke="black" stroke-width="0.6"></polyline><polyline points="35.77235772357724,66.20934959349593 36.9410569105691,67.83536585365853 38.262195121951216,69.3089430894309 39.735772357723576,70.52845528455285 41.46341463414634,71.49390243902438 43.24186991869919,72.10365853658537 45.172764227642276,72.40853658536585 47.20528455284553,72.45934959349593 49.33943089430894,72.20528455284553 51.52439024390244,71.7479674796748 53.709349593495936,71.03658536585365 55.89430894308943,70.1219512195122 57.92682926829268,69.05487804878048 59.857723577235774,67.83536585365853 61.636178861788615,66.46341463414635 63.21138211382114,64.9390243902439 64.6849593495935,63.3130081300813 65.95528455284553,61.58536585365854 67.07317073170732,59.75609756097561 67.98780487804878,57.77439024390244 68.85162601626016,55.74186991869919 69.66463414634146,53.65853658536585 70.3760162601626,51.47357723577235 71.03658536585365,49.33943089430894 71.64634146341463,47.103658536585364 72.20528455284553,44.86788617886179 72.66260162601625,42.68292682926829 72.96747967479675,40.4979674796748 73.17073170731707,38.262195121951216 73.22154471544715,36.229674796747965 73.0691056910569,34.146341463414636 72.66260162601625,32.012195121951216 72.05284552845528,30.182926829268293 71.23983739837398,28.353658536585364 70.17276422764228,26.6260162601626 69.0040650406504,25.203252032520325 67.6321138211382,23.932926829268293 65.95528455284553,22.815040650406505 64.32926829268293,22.052845528455283 62.39837398373984,21.341463414634145 60.3150406504065,20.833333333333332 58.231707317073166,20.630081300813007 55.94512195121951,20.579268292682926 53.55691056910569,20.68089430894309 51.27032520325203,21.036585365853657 48.83130081300813,21.59552845528455 46.34146341463415,22.35772357723577 44.105691056910565,23.221544715447155 41.76829268292683,24.288617886178862 39.48170731707317,25.558943089430894 37.449186991869915,26.93089430894309" fill="none" stroke="black" stroke-width="0.6"></polyline><polyline points="37.449186991869915,26.93089430894309 35.46747967479675,28.60772357723577 33.53658536585366,30.4369918699187 31.961382113821138,32.418699186991866 30.38617886178862,34.552845528455286 28.96341463414634,36.99186991869919 27.84552845528455,39.38008130081301 26.880081300813007,41.97154471544715 26.16869918699187,44.71544715447154 25.76219512195122,47.357723577235774 25.558943089430894,50.15243902439024 25.558943089430894,52.84552845528455 25.711382113821138,55.4369918699187 26.117886178861788,57.97764227642276 26.676829268292682,60.416666666666664 27.4390243902439,62.80487804878049 28.404471544715445,65.09146341463415 29.522357723577237,67.17479674796748 30.741869918699187,69.05487804878048 32.21544715447154,70.83333333333333 33.84146341463415,72.35772357723577 35.670731707317074,73.57723577235772 37.55081300813008,74.64430894308943 39.63414634146341,75.40650406504065 41.86991869918699,76.01626016260163 44.105691056910565,76.42276422764228 46.44308943089431,76.52439024390243 48.83130081300813,76.57520325203252 51.21951219512195,76.42276422764228 53.50609756097561,76.0670731707317 55.74186991869919,75.5589430894309 57.8760162601626,74.94918699186992 59.857723577235774,74.13617886178862 61.6869918699187,73.27235772357723 63.46544715447154,72.3069105691057 65.14227642276423,71.1890243902439 66.71747967479675,69.96951219512195 68.29268292682927,68.64837398373983 69.8170731707317,67.17479674796748 71.23983739837398,65.54878048780488 72.61178861788618,63.82113821138211 73.9329268292683,62.042682926829265 75.10162601626016,60.21341463414634 76.16869918699187,58.38414634146341 76.98170731707317,56.65650406504065 77.64227642276423,55.03048780487805 78.04878048780488,53.45528455284553 78.20121951219512,52.235772357723576 78.2520325203252,51.11788617886179 78.15040650406505,50.05081300813008 77.89634146341463,49.1869918699187" fill="none" stroke="black" stroke-width="0.6"></polyline><polyline points="77.89634146341463,49.1869918699187 77.59146341463415,48.42479674796748 77.23577235772358,47.71341463414634 76.880081300813,47.052845528455286 76.57520325203252,46.392276422764226 76.3211382113821,45.78252032520325 76.16869918699187,45.172764227642276 76.11788617886178,44.8170731707317" fill="none" stroke="black" stroke-width="0.6"></polyline><polyline points="77.9979674796748,49.542682926829265 78.04878048780488,49.542682926829265 78.04878048780488,49.542682926829265 78.04878048780488,49.542682926829265 78.04878048780488,49.542682926829265 78.04878048780488,49.542682926829265 78.04878048780488,49.542682926829265 78.04878048780488,49.542682926829265 78.04878048780488,49.49186991869919 78.04878048780488,49.49186991869919 78.04878048780488,49.49186991869919 78.04878048780488,49.49186991869919 78.04878048780488,49.49186991869919 78.04878048780488,49.49186991869919 78.04878048780488,49.49186991869919 78.04878048780488,49.49186991869919 78.04878048780488,49.49186991869919 78.04878048780488,49.49186991869919 78.04878048780488,49.49186991869919 78.04878048780488,49.49186991869919 78.04878048780488,49.542682926829265 78.04878048780488,49.542682926829265 77.9979674796748,49.59349593495935 77.9979674796748,49.64430894308943 77.9471544715447,49.69512195121951 77.84552845528455,49.796747967479675 77.74390243902438,49.89837398373984 77.64227642276423,50 77.4390243902439,50.10162601626016 77.23577235772358,50.2540650406504 77.03252032520325,50.40650406504065 76.82926829268293,50.50813008130081 76.67682926829268,50.609756097560975 76.57520325203252,50.66056910569105 76.52439024390243,50.71138211382114" fill="none" stroke="black" stroke-width="0.6"></polyline></svg>