<svg height="100" width="100" preserveAspectRatio="xMidYMid meet"><polyline points="50.10162601626016,50.15243902439024 50.30487804878049,48.52642276422764 50.30487804878049,48.3739837398374 50.203252032520325,48.170731707317074 50.10162601626016,47.96747967479675 49.89837398373984,47.8150406504065 49.74593495934959,47.5609756097561 49.59349593495935,47.357723577235774 49.390243902439025,47.103658536585364 49.1869918699187,46.90040650406504 48.983739837398375,46.7479674796748 48.83130081300813,46.59552845528455 48.6280487804878,46.49390243902439 48.52642276422764,46.49390243902439 48.3739837398374,46.49390243902439 48.27235772357724,46.49390243902439 48.170731707317074,46.49390243902439 48.06910569105691,46.49390243902439 47.96747967479675,46.49390243902439 47.86585365853659,46.646341463414636 47.8150406504065,46.798780487804876 47.71341463414634,46.951219512195124 47.66260162601626,47.15447154471545 47.5609756097561,47.30691056910569 47.459349593495936,47.459349593495936 47.40853658536585,47.66260162601626 47.25609756097561,47.86585365853659 47.20528455284553,48.06910569105691 47.103658536585364,48.27235772357724 47.0020325203252,48.577235772357724 46.951219512195124,48.83130081300813 46.90040650406504,49.136178861788615 46.90040650406504,49.4410569105691 46.84959349593496,49.796747967479675 46.84959349593496,50.10162601626016 46.84959349593496,50.40650406504065 46.84959349593496,50.609756097560975 46.84959349593496,50.86382113821138 46.90040650406504,51.11788617886179 46.951219512195124,51.27032520325203 47.103658536585364,51.47357723577235 47.20528455284553,51.6260162601626 47.357723577235774,51.829268292682926 47.459349593495936,52.03252032520325 47.66260162601626,52.235772357723576 47.764227642276424,52.38821138211382 47.86585365853659,52.59146341463415 48.06910569105691,52.74390243902439 48.170731707317074,52.84552845528455 48.3739837398374,52.947154471544714 48.52642276422764,53.048780487804876" fill="none" stroke="black" stroke-width="0.6"></polyline><polyline points="48.52642276422764,53.048780487804876 48.67886178861789,53.09959349593496 48.93292682926829,53.15040650406504 49.1869918699187,53.201219512195124 49.542682926829265,53.201219512195124 49.84756097560975,53.201219512195124 50.2540650406504,53.201219512195124 50.609756097560975,53.15040650406504 51.016260162601625,52.9979674796748 51.422764227642276,52.79471544715447 51.829268292682926,52.540650406504064 52.13414634146341,52.1849593495935 52.540650406504064,51.829268292682926 52.84552845528455,51.47357723577235 53.09959349593496,51.11788617886179 53.353658536585364,50.8130081300813 53.55691056910569,50.45731707317073 53.709349593495936,50.05081300813008 53.86178861788618,49.4410569105691 54.014227642276424,48.983739837398375 54.11585365853659,48.577235772357724 54.26829268292683,48.06910569105691 54.31910569105691,47.5609756097561 54.420731707317074,47.0020325203252 54.47154471544715,46.54471544715447 54.52235772357724,46.239837398373986 54.52235772357724,45.88414634146341 54.52235772357724,45.52845528455285 54.52235772357724,45.12195121951219 54.47154471544715,44.766260162601625 54.26829268292683,44.46138211382114 54.0650406504065,44.20731707317073 53.760162601626014,43.953252032520325 53.45528455284553,43.75 53.09959349593496,43.44512195121951 52.74390243902439,43.1910569105691 52.33739837398374,42.9369918699187 51.93089430894309,42.78455284552845 51.422764227642276,42.58130081300813 50.96544715447154,42.53048780487805 50.55894308943089,42.479674796747965 50.05081300813008,42.42886178861789 49.59349593495935,42.42886178861789 49.136178861788615,42.42886178861789 48.577235772357724,42.42886178861789 48.06910569105691,42.479674796747965 47.510162601626014,42.68292682926829 46.90040650406504,43.08943089430894 46.1890243902439,43.64837398373984 45.47764227642276,44.25813008130081 44.71544715447154,45.12195121951219" fill="none" stroke="black" stroke-width="0.6"></polyline><polyline points="44.71544715447154,45.12195121951219 44.0040650406504,45.9349593495935 43.292682926829265,46.798780487804876 42.63211382113821,47.71341463414634 42.073170731707314,48.52642276422764 41.666666666666664,49.390243902439025 41.209349593495936,50.2540650406504 40.853658536585364,51.0670731707317 40.548780487804876,51.93089430894309 40.34552845528455,52.947154471544714 40.24390243902439,53.8109756097561 40.24390243902439,54.72560975609756 40.24390243902439,55.53861788617886 40.29471544715447,56.30081300813008 40.548780487804876,56.96138211382114 40.95528455284553,57.52032520325203 41.46341463414634,57.97764227642276 41.97154471544715,58.43495934959349 42.479674796747965,58.790650406504064 43.03861788617886,58.99390243902439 43.699186991869915,59.146341463414636 44.41056910569105,59.197154471544714 45.172764227642276,59.197154471544714 45.9349593495935,59.197154471544714 46.646341463414636,58.94308943089431 47.40853658536585,58.485772357723576 48.11991869918699,57.97764227642276 48.88211382113821,57.52032520325203 49.59349593495935,57.16463414634146 50.355691056910565,56.605691056910565 51.0670731707317,55.94512195121951 51.67682926829268,55.386178861788615 52.28658536585366,54.77642276422764 52.896341463414636,54.0650406504065 53.40447154471545,53.302845528455286 53.86178861788618,52.642276422764226 54.31910569105691,51.72764227642276 54.6239837398374,50.96544715447154 54.827235772357724,50.2540650406504 55.03048780487805,49.33943089430894 55.13211382113821,48.577235772357724 55.18292682926829,47.71341463414634 55.18292682926829,46.84959349593496 55.18292682926829,46.239837398373986 55.18292682926829,45.68089430894309 55.03048780487805,45.02032520325203 54.72560975609756,44.46138211382114 54.420731707317074,44.05487804878049 54.014227642276424,43.546747967479675 53.607723577235774,42.98780487804878 53.15040650406504,42.42886178861789" fill="none" stroke="black" stroke-width="0.6"></polyline><polyline points="53.15040650406504,42.42886178861789 52.59146341463415,41.97154471544715 52.03252032520325,41.61585365853659 51.32113821138211,41.260162601626014 50.66056910569105,40.853658536585364 49.89837398373984,40.548780487804876 49.08536585365854,40.29471544715447 48.3739837398374,40.142276422764226 47.61178861788618,40.09146341463415 46.798780487804876,40.09146341463415 46.08739837398374,40.09146341463415 45.22357723577235,40.29471544715447 44.25813008130081,40.853658536585364 43.1910569105691,41.61585365853659 42.073170731707314,42.53048780487805 40.90447154471545,43.546747967479675 39.88821138211382,44.71544715447154 38.87195121951219,45.833333333333336 38.00813008130081,47.103658536585364 37.34756097560975,48.170731707317074 36.78861788617886,49.33943089430894 36.28048780487805,50.40650406504065 35.97560975609756,51.37195121951219 35.670731707317074,52.33739837398374 35.46747967479675,53.40447154471545 35.3150406504065,54.420731707317074 35.264227642276424,55.4369918699187 35.264227642276424,56.453252032520325 35.3150406504065,57.3170731707317 35.670731707317074,58.130081300813 36.1280487804878,58.94308943089431 36.73780487804878,59.552845528455286 37.449186991869915,60.264227642276424 38.262195121951216,61.077235772357724 39.176829268292686,61.58536585365854 40.24390243902439,61.99186991869919 41.3109756097561,62.296747967479675 42.42886178861789,62.449186991869915 43.59756097560975,62.55081300813008 44.86788617886179,62.55081300813008 46.03658536585366,62.55081300813008 47.30691056910569,62.34756097560975 48.6280487804878,61.9410569105691 49.84756097560975,61.53455284552845 51.11788617886179,60.8739837398374 52.38821138211382,60.0609756097561 53.55691056910569,59.34959349593496 54.77642276422764,58.43495934959349 55.94512195121951,57.46951219512195 56.96138211382114,56.453252032520325 57.77439024390244,55.28455284552845" fill="none" stroke="black" stroke-width="0.6"></polyline><polyline points="57.77439024390244,55.28455284552845 58.63821138211382,54.11585365853659 59.298780487804876,52.947154471544714 59.80691056910569,51.6260162601626 60.21341463414634,50.40650406504065 60.46747967479675,49.1869918699187 60.61991869918699,48.06910569105691 60.670731707317074,46.84959349593496 60.670731707317074,45.9349593495935 60.670731707317074,44.96951219512195 60.36585365853659,44.05487804878049 60.0609756097561,43.08943089430894 59.70528455284553,42.17479674796748 59.2479674796748,41.107723577235774 58.6890243902439,40.142276422764226 58.02845528455284,39.27845528455285 57.266260162601625,38.3130081300813 56.453252032520325,37.55081300813008 55.53861788617886,36.9410569105691 54.47154471544715,36.28048780487805 53.45528455284553,35.92479674796748 52.38821138211382,35.61991869918699 51.32113821138211,35.51829268292683 50.10162601626016,35.51829268292683 48.6280487804878,35.51829268292683 47.0020325203252,35.92479674796748 45.27439024390244,36.58536585365854 43.49593495934959,37.449186991869915 41.86991869918699,38.262195121951216 40.24390243902439,39.176829268292686 38.61788617886179,40.19308943089431 37.296747967479675,41.260162601626014 36.077235772357724,42.327235772357724 34.959349593495936,43.59756097560975 34.04471544715447,44.766260162601625 33.23170731707317,45.985772357723576 32.57113821138211,47.103658536585364 32.0630081300813,48.170731707317074 31.60569105691057,49.4410569105691 31.25,50.8130081300813 30.995934959349594,52.1849593495935 30.691056910569106,55.03048780487805 30.691056910569106,57.62195121951219 31.351626016260163,59.90853658536585 32.012195121951216,60.77235772357724 32.72357723577236,61.78861788617886 33.4349593495935,62.7540650406504 34.34959349593496,63.71951219512195 35.416666666666664,64.6341463414634 36.53455284552845,65.44715447154472 37.80487804878049,66.0060975609756" fill="none" stroke="black" stroke-width="0.6"></polyline><polyline points="37.80487804878049,66.0060975609756 39.329268292682926,66.41260162601625 40.90447154471545,66.5650406504065 42.53048780487805,66.5650406504065 44.30894308943089,66.5650406504065 46.03658536585366,66.26016260162602 47.86585365853659,65.85365853658537 49.69512195121951,65.14227642276423 51.37195121951219,64.22764227642276 53.09959349593496,63.3130081300813 54.827235772357724,62.24593495934959 56.30081300813008,61.229674796747965 57.77439024390244,60.010162601626014 59.09552845528455,58.790650406504064 60.21341463414634,57.52032520325203 61.28048780487805,56.199186991869915 62.24593495934959,54.827235772357724 63.16056910569105,53.302845528455286 63.922764227642276,51.67682926829268 64.6849593495935,50.15243902439024 65.34552845528455,48.577235772357724 65.80284552845528,46.951219512195124 66.15853658536585,45.579268292682926 66.3109756097561,44.25813008130081 66.36178861788618,43.03861788617886 66.36178861788618,41.81910569105691 66.36178861788618,40.548780487804876 66.0569105691057,39.43089430894309 65.59959349593495,38.16056910569105 65.04065040650406,37.14430894308943 64.32926829268293,35.97560975609756 63.516260162601625,34.959349593495936 62.703252032520325,33.892276422764226 61.73780487804878,33.079268292682926 60.670731707317074,32.21544715447154 59.65447154471545,31.554878048780488 58.485772357723576,30.995934959349594 57.418699186991866,30.640243902439025 56.30081300813008,30.38617886178862 54.92886178861789,30.284552845528456 53.40447154471545,30.284552845528456 51.6260162601626,30.284552845528456 49.64430894308943,30.589430894308943 47.71341463414634,31.25 45.68089430894309,32.0630081300813 43.44512195121951,33.079268292682926 41.46341463414634,34.09552845528455 39.48170731707317,35.21341463414634 37.65243902439024,36.43292682926829 36.229674796747965,37.5 34.90853658536585,38.668699186991866" fill="none" stroke="black" stroke-width="0.6"></polyline><polyline points="34.90853658536585,38.668699186991866 33.790650406504064,39.88821138211382 32.97764227642276,40.95528455284553 32.11382113821138,42.073170731707314 31.402439024390244,43.49593495934959 30.79268292682927,44.918699186991866 30.182926829268293,46.697154471544714 29.6239837398374,48.78048780487805 29.268292682926827,50.609756097560975 29.0650406504065,52.33739837398374 28.96341463414634,54.0650406504065 28.96341463414634,55.58943089430894 29.0650406504065,57.11382113821138 29.420731707317074,58.536585365853654 29.928861788617887,59.75609756097561 30.48780487804878,60.97560975609756 31.19918699186992,62.14430894308943 31.961382113821138,63.36382113821138 32.77439024390244,64.6341463414634 33.790650406504064,66.0060975609756 34.80691056910569,67.17479674796748 36.02642276422764,68.24186991869918 37.296747967479675,69.35975609756098 38.61788617886179,70.17276422764228 40.142276422764226,71.08739837398373 41.76829268292683,71.79878048780488 43.44512195121951,72.35772357723577 45.22357723577235,72.71341463414635 47.15447154471545,72.8150406504065 48.93292682926829,72.8150406504065 50.762195121951216,72.8150406504065 52.59146341463415,72.71341463414635 54.31910569105691,72.45934959349593 56.046747967479675,72.05284552845528 57.77439024390244,71.39227642276423 59.2479674796748,70.83333333333333 60.77235772357724,70.3760162601626 62.19512195121951,69.66463414634146 63.61788617886179,68.80081300813008 65.04065040650406,67.98780487804878 66.46341463414635,66.8191056910569 67.6321138211382,65.7520325203252 68.85162601626016,64.43089430894308 70.0711382113821,63.21138211382114 71.03658536585365,61.99186991869919 71.90040650406505,60.8739837398374 72.71341463414635,59.75609756097561 73.32317073170732,58.84146341463415 73.83130081300813,57.77439024390244 74.28861788617886,56.91056910569105 74.59349593495935,55.84349593495935" fill="none" stroke="black" stroke-width="0.6"></polyline><polyline points="74.59349593495935,55.84349593495935 74.84756097560975,54.92886178861789 75.05081300813008,53.86178861788618 75.10162601626016,53.048780487804876 75.15243902439025,52.33739837398374 75.15243902439025,51.67682926829268 75.15243902439025,51.168699186991866 75,50.86382113821138 74.79674796747967,50.66056910569105 74.64430894308943,50.55894308943089 74.49186991869918,50.45731707317073 74.33943089430895,50.40650406504065 74.13617886178862,50.30487804878049" fill="none" stroke="black" stroke-width="0.6"></polyline></svg>