<svg height="100" width="100" preserveAspectRatio="xMidYMid meet"><polyline points="61.165650406504064,52.84552845528455 60.55589430894309,52.642276422764226 59.74288617886179,52.642276422764226 58.72662601626016,52.642276422764226 57.354674796747965,53.15040650406504 55.677845528455286,53.86178861788618 53.89939024390244,54.92886178861789 51.917682926829265,56.09756097560975 49.78353658536585,57.52032520325203 47.7510162601626,58.790650406504064 45.76930894308943,60.21341463414634 43.78760162601626,61.636178861788615 42.21239837398374,62.7540650406504 40.99288617886179,63.61788617886179 40.28150406504065,64.17682926829268 40.28150406504065,64.22764227642276 40.484756097560975,64.22764227642276 41.60264227642276,63.61788617886179 43.38109756097561,62.60162601626016 45.71849593495935,61.229674796747965 48.3099593495935,59.80691056910569 50.7489837398374,58.485772357723576 53.28963414634146,57.11382113821138 55.88109756097561,55.74186991869919 58.11686991869919,54.573170731707314 59.94613821138211,53.607723577235774 61.47052845528455,52.896341463414636 62.334349593495936,52.59146341463415 62.74085365853659,52.489837398373986 62.791666666666664,52.489837398373986 62.28353658536585,52.896341463414636 60.91158536585366,53.86178861788618 58.828252032520325,55.08130081300813 56.135162601626014,56.605691056910565 53.23882113821138,58.33333333333333 50.291666666666664,60.010162601626014 47.395325203252035,61.6869918699187 44.80386178861789,63.109756097560975 43.02540650406504,64.1260162601626 42.0599593495935,64.58333333333333 41.90752032520325,64.58333333333333 42.61890243902439,64.48170731707317 44.24491869918699,63.71951219512195 46.68394308943089,62.65243902439024 49.478658536585364,61.33130081300813 52.67987804878049,59.90853658536585 55.77947154471545,58.58739837398374 58.72662601626016,57.418699186991866 61.267276422764226,56.40243902439024 62.84247967479675,55.84349593495935 63.75711382113821,55.58943089430894" fill="none" stroke="black" stroke-width="0.6"></polyline><polyline points="63.75711382113821,55.58943089430894 64.01117886178862,55.58943089430894 63.80792682926829,55.792682926829265 62.6900406504065,56.70731707317073 60.60670731707317,58.079268292682926 57.86280487804878,59.857723577235774 54.76321138211382,62.042682926829265 51.71443089430894,64.22764227642276 48.767276422764226,66.3109756097561 46.53150406504065,68.03861788617886 45.36280487804878,69.0040650406504 44.854674796747965,69.51219512195122 44.854674796747965,69.71544715447155 44.95630081300813,69.91869918699187 45.87093495934959,70.02032520325203 47.59857723577236,70.02032520325203 49.9359756097561,69.8170731707317 52.93394308943089,69.35975609756098" fill="none" stroke="black" stroke-width="0.6"></polyline></svg>