<svg height="100" width="100" preserveAspectRatio="xMidYMid meet"><polyline points="49.870129870129865,49.28571428571428 49.93506493506493,48.57142857142857 49.93506493506493,48.18181818181818 49.93506493506493,47.662337662337656 49.93506493506493,47.14285714285714 49.870129870129865,46.62337662337662 49.41558441558441,46.16883116883116 48.89610389610389,45.77922077922077 48.37662337662337,45.58441558441558 47.857142857142854,45.58441558441558 47.077922077922075,45.58441558441558 46.038961038961034,45.90909090909091 45.12987012987013,46.62337662337662 44.41558441558441,47.59740259740259 43.57142857142857,48.831168831168824 42.79220779220779,49.99999999999999 42.53246753246753,51.298701298701296 42.53246753246753,52.467532467532465 43.31168831168831,53.31168831168831 44.285714285714285,53.89610389610389 45.71428571428571,54.220779220779214 47.077922077922075,54.35064935064935 48.441558441558435,54.35064935064935 49.99999999999999,53.831168831168824 51.038961038961034,53.051948051948045 51.81818181818181,51.94805194805194 52.467532467532465,50.649350649350644 52.857142857142854,49.090909090909086 53.051948051948045,47.72727272727272 53.051948051948045,46.42857142857142 53.051948051948045,45.32467532467532 52.59740259740259,44.41558441558441 52.14285714285714,43.7012987012987 51.49350649350649,42.98701298701298 50.649350649350644,42.33766233766234 49.35064935064935,41.81818181818181 48.18181818181818,41.55844155844156 46.42857142857142,41.55844155844156 44.870129870129865,41.94805194805195 42.79220779220779,43.37662337662337 41.1038961038961,45.32467532467532 39.6103896103896,47.467532467532465 38.63636363636363,49.28571428571428 38.116883116883116,50.90909090909091 38.051948051948045,52.467532467532465 38.051948051948045,54.220779220779214 38.7012987012987,55.97402597402597 39.8051948051948,57.72727272727272 40.71428571428571,59.090909090909086 42.01298701298701,60.32467532467532 43.506493506493506,61.1038961038961" fill="none" stroke="black" stroke-width="0.6"></polyline><polyline points="43.506493506493506,61.1038961038961 45.19480519480519,61.42857142857142 47.14285714285714,61.49350649350649 49.220779220779214,60.844155844155836 51.038961038961034,59.67532467532467 53.051948051948045,57.72727272727272 54.67532467532467,55.38961038961038 56.16883116883116,52.53246753246753 57.467532467532465,49.6103896103896 58.11688311688311,47.01298701298701 58.441558441558435,44.480519480519476 58.441558441558435,42.2077922077922 58.051948051948045,39.93506493506493 56.623376623376615,37.98701298701298 55.12987012987013,36.49350649350649 52.72727272727272,35.51948051948052 50.19480519480519,35.259740259740255 47.857142857142854,35.259740259740255 44.870129870129865,35.51948051948052 42.01298701298701,36.42857142857142 39.675324675324674,37.662337662337656 37.467532467532465,39.285714285714285 35.12987012987013,42.01298701298701 33.57142857142857,45.51948051948052 32.33766233766234,49.67532467532467 31.49350649350649,53.96103896103896 31.36363636363636,57.467532467532465 31.818181818181817,60.32467532467532 32.92207792207792,62.467532467532465 34.090909090909086,64.28571428571428 36.038961038961034,65.9090909090909 38.116883116883116,67.14285714285714 40.45454545454545,67.79220779220779 43.57142857142857,67.98701298701297 46.42857142857142,67.98701298701297 49.35064935064935,67.2077922077922 52.2077922077922,65.9090909090909 54.8051948051948,64.15584415584415 57.467532467532465,61.75324675324675 59.67532467532467,58.7012987012987 61.688311688311686,55.19480519480519 63.31168831168831,51.42857142857142 64.74025974025973,47.662337662337656 65.38961038961038,44.480519480519476 65.38961038961038,41.55844155844156 65.32467532467531,38.896103896103895 64.15584415584415,36.42857142857142 62.53246753246753,34.090909090909086 60.51948051948052,31.75324675324675 58.441558441558435,29.935064935064933 55.649350649350644,28.506493506493502" fill="none" stroke="black" stroke-width="0.6"></polyline><polyline points="55.649350649350644,28.506493506493502 52.467532467532465,27.727272727272723 49.28571428571428,27.467532467532465 46.1038961038961,27.467532467532465 42.92207792207792,28.311688311688307 39.74025974025974,29.740259740259738 36.49350649350649,31.623376623376622 33.246753246753244,34.22077922077922 30.25974025974026,37.467532467532465 27.14285714285714,41.49350649350649 24.610389610389607,45.71428571428571 23.246753246753244,49.74025974025974 22.077922077922075,54.35064935064935 21.753246753246753,58.441558441558435 21.948051948051948,62.59740259740259 23.05194805194805,66.23376623376623 24.610389610389607,69.09090909090908 26.818181818181817,71.55844155844156 29.8051948051948,73.8961038961039 32.98701298701298,75.64935064935064 36.1038961038961,76.88311688311687 39.15584415584415,77.46753246753246 42.33766233766234,77.59740259740259 45.45454545454545,77.46753246753246 48.63636363636363,76.23376623376623 51.49350649350649,74.67532467532467 54.6103896103896,72.72727272727272 57.33766233766233,70.58441558441558 59.67532467532467,68.11688311688312 61.88311688311688,65.25974025974025 64.09090909090908,61.88311688311688 65.9090909090909,58.11688311688311 67.59740259740259,53.76623376623376 68.8961038961039,49.35064935064935 69.4155844155844,45.259740259740255 69.48051948051948,41.1038961038961 69.4155844155844,37.33766233766234 68.5064935064935,33.76623376623376 66.68831168831169,30.519480519480517 64.8051948051948,27.53246753246753 62.53246753246753,25.064935064935064 59.41558441558441,22.857142857142854 55.97402597402597,21.428571428571427 52.14285714285714,20.77922077922078 47.92207792207792,20.71428571428571 43.051948051948045,21.233766233766232 38.63636363636363,22.467532467532465 34.54545454545454,24.415584415584412 30.779220779220775,26.948051948051944 27.337662337662334,29.999999999999996 23.96103896103896,34.090909090909086" fill="none" stroke="black" stroke-width="0.6"></polyline><polyline points="23.96103896103896,34.090909090909086 21.363636363636363,38.7012987012987 19.675324675324674,43.63636363636363 18.7012987012987,48.7012987012987 18.246753246753244,53.96103896103896 18.246753246753244,58.7012987012987 19.025974025974023,62.72727272727272 20.064935064935064,66.55844155844156 22.142857142857142,70.25974025974025 24.220779220779217,73.5064935064935 26.88311688311688,76.75324675324674 29.999999999999996,79.35064935064935 33.37662337662337,81.10389610389609 36.75324675324675,82.07792207792207 40.259740259740255,82.53246753246752 43.896103896103895,82.85714285714285 47.53246753246753,82.98701298701297 50.97402597402597,83.05194805194805 54.35064935064935,82.92207792207792 57.402597402597394,81.88311688311687 60.06493506493506,80.38961038961038 62.467532467532465,78.8961038961039 64.93506493506493,77.2077922077922 67.01298701298701,75.45454545454545 68.96103896103895,73.5064935064935 70.77922077922078,71.23376623376623 72.33766233766234,68.37662337662337 73.44155844155843,65.38961038961038 74.48051948051948,62.72727272727272 75.19480519480518,60.19480519480519 75.51948051948051,58.18181818181817 75.64935064935064,56.49350649350649 75.77922077922078,54.74025974025974 75.84415584415584,53.37662337662337 76.03896103896103,52.14285714285714 76.23376623376623,51.23376623376623 76.42857142857142,50.51948051948052 76.42857142857142,49.93506493506493" fill="none" stroke="black" stroke-width="0.6"></polyline></svg>