<svg height="100" width="100" preserveAspectRatio="xMidYMid meet"><polyline points="50.97402597402597,48.441558441558435 49.74025974025974,48.11688311688311 49.480519480519476,48.11688311688311 49.35064935064935,48.18181818181818 49.15584415584415,48.31168831168831 48.7012987012987,48.7012987012987 48.246753246753244,49.220779220779214 47.72727272727272,49.8051948051948 47.4025974025974,50.45454545454545 47.272727272727266,51.038961038961034 47.272727272727266,51.55844155844155 47.272727272727266,51.88311688311688 47.272727272727266,52.272727272727266 47.33766233766233,52.72727272727272 47.662337662337656,53.18181818181818 48.11688311688311,53.63636363636363 48.63636363636363,53.96103896103896 49.220779220779214,54.090909090909086 49.67532467532467,54.220779220779214 50.19480519480519,54.28571428571428 50.84415584415584,54.28571428571428 51.55844155844155,53.96103896103896 52.4025974025974,53.441558441558435 53.051948051948045,52.92207792207792 53.7012987012987,52.4025974025974 54.28571428571428,51.88311688311688 54.870129870129865,51.23376623376623 55.32467532467532,50.58441558441558 55.71428571428571,49.67532467532467 55.90909090909091,48.76623376623376 55.90909090909091,47.857142857142854 55.90909090909091,47.01298701298701 55.90909090909091,46.23376623376623 55.51948051948052,45.45454545454545 55.06493506493506,44.675324675324674 54.67532467532467,43.96103896103896 54.28571428571428,43.116883116883116 53.89610389610389,42.33766233766234 53.441558441558435,41.55844155844156 52.92207792207792,40.649350649350644 52.33766233766233,39.93506493506493 51.49350649350649,39.35064935064935 50.649350649350644,39.02597402597402 49.74025974025974,38.96103896103896 48.63636363636363,39.090909090909086 47.4025974025974,39.870129870129865 46.16883116883116,40.71428571428571 45.064935064935064,41.62337662337662 43.96103896103896,42.467532467532465 43.116883116883116,43.441558441558435 42.467532467532465,44.41558441558441" fill="none" stroke="black" stroke-width="0.6"></polyline><polyline points="42.467532467532465,44.41558441558441 41.88311688311688,45.649350649350644 41.36363636363636,47.33766233766233 41.1038961038961,49.220779220779214 41.1038961038961,51.1038961038961 41.1038961038961,52.79220779220779 41.298701298701296,54.220779220779214 41.688311688311686,55.51948051948052 42.077922077922075,56.49350649350649 42.53246753246753,57.33766233766233 43.116883116883116,58.11688311688311 43.831168831168824,58.7012987012987 44.675324675324674,59.28571428571428 45.649350649350644,59.8051948051948 46.75324675324675,60.19480519480519 48.051948051948045,60.38961038961038 49.35064935064935,60.454545454545446 50.71428571428571,60.454545454545446 52.077922077922075,60.32467532467532 53.18181818181818,59.8051948051948 54.35064935064935,59.090909090909086 55.58441558441558,57.92207792207792 56.55844155844155,56.75324675324675 57.59740259740259,55.51948051948052 58.76623376623376,54.15584415584415 59.6103896103896,52.98701298701298 60.38961038961038,51.49350649350649 60.97402597402597,49.8051948051948 61.233766233766225,48.051948051948045 61.298701298701296,46.23376623376623 61.298701298701296,44.480519480519476 60.71428571428571,43.116883116883116 59.99999999999999,42.01298701298701 58.831168831168824,40.90909090909091 57.79220779220778,39.99999999999999 56.688311688311686,39.02597402597402 55.32467532467532,38.051948051948045 54.02597402597402,37.14285714285714 52.53246753246753,36.23376623376623 50.90909090909091,35.58441558441558 49.54545454545454,35.12987012987013 47.662337662337656,35 46.1038961038961,35 44.41558441558441,35.58441558441558 42.92207792207792,36.55844155844156 41.36363636363636,37.72727272727273 39.8051948051948,38.896103896103895 38.441558441558435,40.259740259740255 37.01298701298701,41.75324675324675 35.84415584415584,43.31168831168831 34.870129870129865,44.99999999999999" fill="none" stroke="black" stroke-width="0.6"></polyline><polyline points="34.870129870129865,44.99999999999999 34.090909090909086,47.077922077922075 33.7012987012987,49.41558441558441 33.63636363636363,52.077922077922075 33.7012987012987,54.74025974025974 34.41558441558441,57.012987012987004 35.32467532467532,59.090909090909086 36.23376623376623,60.71428571428571 37.272727272727266,62.14285714285714 38.31168831168831,63.441558441558435 39.220779220779214,64.6103896103896 40.51948051948052,65.77922077922078 42.01298701298701,66.62337662337661 43.63636363636363,67.01298701298701 45.45454545454545,67.2077922077922 47.4025974025974,67.2077922077922 49.15584415584415,67.2077922077922 50.97402597402597,67.2077922077922 52.72727272727272,67.2077922077922 54.220779220779214,67.2077922077922 55.90909090909091,66.62337662337661 57.467532467532465,65.77922077922078 59.15584415584415,64.6103896103896 60.649350649350644,63.18181818181817 62.272727272727266,61.623376623376615 63.57142857142856,60.06493506493506 64.8051948051948,58.11688311688311 65.97402597402596,55.97402597402597 66.75324675324674,53.441558441558435 67.2077922077922,50.71428571428571 67.27272727272727,48.5064935064935 67.2077922077922,46.55844155844155 66.49350649350649,44.93506493506493 65.51948051948051,43.31168831168831 64.74025974025973,41.88311688311688 63.831168831168824,40.259740259740255 62.857142857142854,38.7012987012987 61.75324675324675,36.94805194805195 60.51948051948052,35.32467532467532 58.89610389610389,33.506493506493506 57.2077922077922,32.01298701298701 55.259740259740255,30.779220779220775 53.37662337662337,29.935064935064933 50.90909090909091,29.285714285714285 48.57142857142857,28.831168831168828 46.16883116883116,28.701298701298697 43.31168831168831,28.701298701298697 40.649350649350644,28.89610389610389 37.98701298701298,29.999999999999996 35.51948051948052,31.49350649350649 33.18181818181818,33.37662337662337" fill="none" stroke="black" stroke-width="0.6"></polyline><polyline points="33.18181818181818,33.37662337662337 31.233766233766232,35.51948051948052 29.675324675324674,38.116883116883116 28.57142857142857,41.038961038961034 28.116883116883113,43.76623376623376 27.987012987012985,46.49350649350649 27.987012987012985,49.28571428571428 28.44155844155844,51.88311688311688 29.025974025974023,54.28571428571428 29.87012987012987,56.75324675324675 30.779220779220775,59.28571428571428 31.623376623376622,61.623376623376615 32.467532467532465,63.57142857142856 33.506493506493506,65.45454545454545 34.8051948051948,67.14285714285714 36.23376623376623,68.57142857142857 37.98701298701298,69.87012987012986 39.8051948051948,70.84415584415584 41.81818181818181,71.68831168831169 43.831168831168824,72.33766233766234 45.84415584415584,72.85714285714285 47.98701298701298,73.11688311688312 49.8051948051948,73.24675324675324 51.688311688311686,73.37662337662337 53.31168831168831,73.44155844155843 55.12987012987013,73.5064935064935 56.688311688311686,73.5064935064935 58.441558441558435,73.5064935064935 59.870129870129865,73.44155844155843 61.49350649350649,73.05194805194805 62.98701298701298,72.53246753246752 64.54545454545453,71.68831168831169 66.16883116883116,70.71428571428571 67.66233766233766,69.22077922077922 69.28571428571428,67.4025974025974 70.64935064935064,65.32467532467531 71.94805194805194,62.98701298701298 73.24675324675324,60.32467532467532 74.2207792207792,57.79220779220778 74.87012987012986,55.97402597402597 75.38961038961038,54.54545454545454 75.84415584415584,53.5064935064935 76.10389610389609,52.662337662337656 76.36363636363636,51.88311688311688 76.68831168831169,50.90909090909091 77.14285714285714,49.870129870129865" fill="none" stroke="black" stroke-width="0.6"></polyline></svg>