<svg height="100" width="100" preserveAspectRatio="xMidYMid meet"><polyline points="57.79220779220778,40.12987012987013 56.42857142857142,40.649350649350644 55.649350649350644,41.23376623376623 54.67532467532467,42.2077922077922 54.15584415584415,42.72727272727273 52.92207792207792,44.15584415584415 51.298701298701296,45.77922077922077 49.74025974025974,47.467532467532465 47.79220779220779,49.41558441558441 46.16883116883116,51.23376623376623 44.480519480519476,52.98701298701298 43.37662337662337,54.220779220779214 42.662337662337656,55.06493506493506 42.53246753246753,55.38961038961038 42.662337662337656,55.19480519480519 43.76623376623376,53.37662337662337 45.51948051948052,50.90909090909091 47.72727272727272,47.98701298701298 50.51948051948052,44.93506493506493 53.18181818181818,42.33766233766234 55.38961038961038,40.51948051948052 56.81818181818181,39.41558441558441 57.59740259740259,39.02597402597402 57.467532467532465,39.54545454545454 56.55844155844155,40.51948051948052 53.76623376623376,43.37662337662337 50.51948051948052,46.688311688311686 46.49350649350649,50.38961038961038 42.72727272727273,53.96103896103896 39.99999999999999,56.55844155844155 38.76623376623376,57.79220779220778 38.441558441558435,58.18181818181817 38.57142857142857,58.246753246753244 40.71428571428571,56.623376623376615 44.090909090909086,52.98701298701298 47.98701298701298,48.831168831168824 52.14285714285714,44.6103896103896 55.58441558441558,41.038961038961034 57.467532467532465,39.220779220779214 58.441558441558435,38.57142857142857 58.441558441558435,38.7012987012987 57.53246753246753,39.6103896103896 54.6103896103896,42.72727272727273 51.16883116883116,45.84415584415584 47.4025974025974,49.02597402597402 43.63636363636363,52.01298701298701 40.71428571428571,54.480519480519476 39.15584415584415,55.90909090909091 38.7012987012987,56.36363636363636 38.76623376623376,56.42857142857142 40.90909090909091,54.870129870129865" fill="none" stroke="black" stroke-width="0.6"></polyline><polyline points="40.90909090909091,54.870129870129865 44.480519480519476,51.038961038961034 48.96103896103896,46.55844155844155 53.76623376623376,42.077922077922075 57.402597402597394,38.96103896103896 59.67532467532467,37.467532467532465 60.259740259740255,37.272727272727266 59.74025974025974,37.857142857142854 56.88311688311688,40.649350649350644 52.72727272727272,44.6103896103896 48.63636363636363,48.7012987012987 44.6103896103896,52.467532467532465 41.36363636363636,55.51948051948052 39.41558441558441,57.272727272727266 38.506493506493506,57.92207792207792 38.831168831168824,57.59740259740259 39.870129870129865,56.49350649350649 43.246753246753244,52.72727272727272 48.31168831168831,47.857142857142854 53.18181818181818,43.76623376623376 57.012987012987004,40.84415584415584 59.41558441558441,39.41558441558441 60.06493506493506,39.02597402597402 59.74025974025974,39.220779220779214 56.94805194805194,41.49350649350649 52.98701298701298,44.99999999999999 48.96103896103896,48.76623376623376 44.870129870129865,52.077922077922075 41.688311688311686,54.54545454545454 39.54545454545454,56.233766233766225 38.76623376623376,56.81818181818181 38.96103896103896,56.688311688311686 40.064935064935064,55.649350649350644 43.506493506493506,52.14285714285714 48.18181818181818,47.79220779220779 53.246753246753244,43.37662337662337 56.94805194805194,40.19480519480519 59.090909090909086,38.57142857142857 59.6103896103896,38.31168831168831 58.831168831168824,38.63636363636363 55.844155844155836,41.23376623376623 51.75324675324675,44.870129870129865 47.79220779220779,48.37662337662337 43.831168831168824,51.55844155844155 40.51948051948052,54.35064935064935 38.31168831168831,56.233766233766225 37.33766233766234,57.077922077922075 37.662337662337656,57.077922077922075 38.831168831168824,55.97402597402597 42.33766233766234,52.33766233766233 47.33766233766233,47.59740259740259" fill="none" stroke="black" stroke-width="0.6"></polyline><polyline points="47.33766233766233,47.59740259740259 52.467532467532465,43.31168831168831 56.038961038961034,40.32467532467532 58.441558441558435,38.57142857142857 59.41558441558441,38.051948051948045 58.31168831168831,38.76623376623376 56.88311688311688,40.064935064935064 53.051948051948045,43.57142857142857 49.220779220779214,47.2077922077922 45.32467532467532,50.58441558441558 42.01298701298701,53.37662337662337 39.54545454545454,55.454545454545446 38.506493506493506,56.36363636363636 38.57142857142857,56.42857142857142 39.480519480519476,55.51948051948052 42.98701298701298,52.01298701298701 47.59740259740259,47.857142857142854 52.467532467532465,43.896103896103895 56.49350649350649,40.649350649350644 58.57142857142857,39.090909090909086 59.35064935064935,38.63636363636363 59.090909090909086,38.63636363636363 56.49350649350649,40.649350649350644 52.53246753246753,44.090909090909086 48.5064935064935,47.92207792207792 44.480519480519476,51.42857142857142 41.16883116883116,54.15584415584415 38.96103896103896,56.038961038961034 37.98701298701298,56.81818181818181 38.051948051948045,56.94805194805194 39.090909090909086,56.038961038961034 42.662337662337656,52.72727272727272 47.14285714285714,48.7012987012987 52.14285714285714,44.8051948051948 55.97402597402597,41.75324675324675 58.441558441558435,39.93506493506493 59.41558441558441,39.35064935064935 58.96103896103896,39.41558441558441 57.79220779220778,40.12987012987013 54.74025974025974,42.467532467532465 50.97402597402597,45.90909090909091 47.272727272727266,49.28571428571428 43.96103896103896,52.14285714285714 41.42857142857142,54.220779220779214 39.99999999999999,55.259740259740255 39.480519480519476,55.58441558441558 40.12987012987013,55.32467532467532 41.298701298701296,54.480519480519476 44.285714285714285,51.75324675324675 48.63636363636363,47.98701298701298 53.441558441558435,44.090909090909086" fill="none" stroke="black" stroke-width="0.6"></polyline><polyline points="53.441558441558435,44.090909090909086 57.33766233766233,40.84415584415584 59.93506493506493,38.96103896103896 60.649350649350644,38.506493506493506 60.32467532467532,38.63636363636363 57.077922077922075,41.16883116883116 52.92207792207792,44.8051948051948 48.57142857142857,48.89610389610389 44.220779220779214,52.72727272727272 40.58441558441558,55.844155844155836 38.246753246753244,57.857142857142854 37.077922077922075,58.89610389610389 36.88311688311688,59.090909090909086 37.857142857142854,58.63636363636363 41.1038961038961,55.58441558441558 45.84415584415584,50.90909090909091 50.84415584415584,46.49350649350649 55.649350649350644,42.4025974025974 58.76623376623376,39.870129870129865 59.99999999999999,38.96103896103896 59.93506493506493,38.896103896103895 58.5064935064935,39.870129870129865 54.8051948051948,43.051948051948045 50.84415584415584,46.94805194805194 46.75324675324675,50.77922077922077 43.18181818181818,53.7012987012987 40.45454545454545,55.71428571428571 38.896103896103895,56.81818181818181 38.441558441558435,57.14285714285714 39.02597402597402,56.81818181818181 40.12987012987013,55.90909090909091 43.7012987012987,52.72727272727272 48.246753246753244,49.02597402597402 53.051948051948045,45.19480519480519 57.077922077922075,41.88311688311688 59.35064935064935,40.19480519480519 59.93506493506493,39.6103896103896 59.41558441558441,39.6103896103896 56.36363636363636,41.36363636363636 52.077922077922075,44.74025974025974 47.857142857142854,48.57142857142857 43.63636363636363,51.94805194805194 40.32467532467532,54.74025974025974 38.18181818181818,56.623376623376615 37.272727272727266,57.33766233766233 37.857142857142854,57.272727272727266 39.15584415584415,56.233766233766225 42.92207792207792,52.79220779220779 47.857142857142854,48.37662337662337 53.37662337662337,43.76623376623376 57.467532467532465,40.259740259740255" fill="none" stroke="black" stroke-width="0.6"></polyline><polyline points="57.467532467532465,40.259740259740255 59.99999999999999,38.31168831168831 60.77922077922077,37.72727272727273 59.480519480519476,38.63636363636363 57.79220779220778,40.12987012987013 53.96103896103896,43.63636363636363 49.93506493506493,47.72727272727272 45.90909090909091,51.36363636363636 42.4025974025974,54.28571428571428 39.675324675324674,56.55844155844155 38.18181818181818,57.662337662337656 37.72727272727273,57.92207792207792 37.98701298701298,57.92207792207792 40.45454545454545,55.71428571428571 44.480519480519476,51.81818181818181 48.96103896103896,47.79220779220779 53.63636363636363,43.96103896103896 57.012987012987004,41.038961038961034 58.831168831168824,39.6103896103896 59.35064935064935,39.285714285714285 58.831168831168824,39.285714285714285 56.16883116883116,41.23376623376623 52.2077922077922,44.675324675324674 48.18181818181818,48.441558441558435 44.220779220779214,51.75324675324675 41.1038961038961,54.15584415584415 39.285714285714285,55.58441558441558 38.506493506493506,56.16883116883116 39.15584415584415,55.844155844155836 40.51948051948052,54.74025974025974 44.6103896103896,51.23376623376623 49.35064935064935,47.53246753246753 54.28571428571428,43.96103896103896 57.92207792207792,41.1038961038961 60.38961038961038,39.090909090909086 61.298701298701296,38.37662337662337 60.71428571428571,38.57142857142857 59.090909090909086,39.675324675324674 54.93506493506493,42.98701298701298 50.51948051948052,46.75324675324675 46.1038961038961,50.259740259740255 42.272727272727266,53.051948051948045 39.35064935064935,54.99999999999999 37.72727272727273,56.1038961038961 37.272727272727266,56.42857142857142 37.53246753246753,56.42857142857142 39.8051948051948,54.74025974025974 43.63636363636363,51.49350649350649 48.18181818181818,48.051948051948045 52.72727272727272,44.6103896103896 56.1038961038961,41.88311688311688" fill="none" stroke="black" stroke-width="0.6"></polyline><polyline points="56.1038961038961,41.88311688311688 57.98701298701298,40.51948051948052 58.5064935064935,40.064935064935064 58.051948051948045,40.19480519480519 54.870129870129865,42.53246753246753 51.16883116883116,45.90909090909091 47.2077922077922,49.6103896103896 43.37662337662337,52.79220779220779 40.45454545454545,55.259740259740255 38.831168831168824,56.688311688311686 38.18181818181818,57.14285714285714 38.831168831168824,57.077922077922075 39.93506493506493,56.233766233766225 43.7012987012987,52.79220779220779 48.246753246753244,48.831168831168824 52.857142857142854,44.93506493506493 56.42857142857142,41.88311688311688 58.57142857142857,40.19480519480519 59.41558441558441,39.54545454545454 58.5064935064935,39.8051948051948 57.402597402597394,40.71428571428571 53.63636363636363,43.96103896103896 49.8051948051948,47.662337662337656 45.71428571428571,51.1038961038961 42.077922077922075,53.96103896103896 39.285714285714285,55.97402597402597 37.857142857142854,57.012987012987004 37.53246753246753,57.33766233766233 37.98701298701298,57.33766233766233 40.51948051948052,55.38961038961038 44.675324675324674,51.81818181818181 49.35064935064935,47.92207792207792 54.220779220779214,44.090909090909086 57.72727272727272,41.16883116883116 59.67532467532467,39.870129870129865 60.06493506493506,39.54545454545454 59.41558441558441,39.74025974025974 56.233766233766225,42.14285714285714 52.4025974025974,45.51948051948052 48.246753246753244,49.02597402597402 44.220779220779214,52.2077922077922 40.90909090909091,54.74025974025974 38.896103896103895,56.42857142857142 37.98701298701298,57.14285714285714 37.857142857142854,57.272727272727266 39.15584415584415,56.688311688311686 42.662337662337656,53.7012987012987 47.14285714285714,49.67532467532467 52.53246753246753,45.259740259740255 56.81818181818181,41.688311688311686 59.6103896103896,39.6103896103896" fill="none" stroke="black" stroke-width="0.6"></polyline><polyline points="59.6103896103896,39.6103896103896 60.71428571428571,38.76623376623376 60.19480519480519,39.15584415584415 58.76623376623376,40.259740259740255 54.8051948051948,43.7012987012987 50.77922077922077,47.53246753246753 46.62337662337662,50.97402597402597 43.116883116883116,53.7012987012987 40.38961038961038,55.51948051948052 38.96103896103896,56.49350649350649 38.506493506493506,56.75324675324675 39.090909090909086,56.55844155844155 40.12987012987013,55.649350649350644 43.441558441558435,52.59740259740259 47.662337662337656,49.02597402597402 52.33766233766233,45.38961038961038 56.16883116883116,42.4025974025974 58.18181818181817,40.84415584415584 58.96103896103896,40.32467532467532 58.76623376623376,40.32467532467532 56.42857142857142,41.88311688311688 52.79220779220779,44.870129870129865 49.090909090909086,48.18181818181818 45.51948051948052,51.16883116883116 42.33766233766234,53.831168831168824 40.12987012987013,55.649350649350644 39.285714285714285,56.55844155844155 39.15584415584415,56.75324675324675 39.8051948051948,56.233766233766225 42.53246753246753,53.7012987012987 46.42857142857142,49.870129870129865 51.16883116883116,45.84415584415584 55.77922077922077,41.94805194805195 58.89610389610389,39.480519480519476 60.259740259740255,38.63636363636363 60.06493506493506,38.896103896103895 58.63636363636363,40.12987012987013 55.06493506493506,43.37662337662337 51.298701298701296,47.01298701298701 47.467532467532465,50.45454545454545 44.02597402597402,53.246753246753244 41.1038961038961,55.454545454545446 39.54545454545454,56.623376623376615 38.896103896103895,57.077922077922075 38.96103896103896,57.14285714285714 39.54545454545454,56.55844155844155 42.01298701298701,54.28571428571428 45.58441558441558,50.97402597402597 49.6103896103896,47.467532467532465 53.441558441558435,44.285714285714285 56.623376623376615,41.75324675324675" fill="none" stroke="black" stroke-width="0.6"></polyline><polyline points="56.623376623376615,41.75324675324675 57.857142857142854,40.77922077922077 57.79220779220778,40.649350649350644 56.88311688311688,41.23376623376623 53.96103896103896,43.7012987012987 50.32467532467532,47.33766233766233 46.688311688311686,50.97402597402597 43.37662337662337,54.02597402597402 40.71428571428571,56.49350649350649 39.15584415584415,57.92207792207792 38.7012987012987,58.37662337662337 39.285714285714285,57.98701298701298 40.71428571428571,56.81818181818181 44.480519480519476,52.98701298701298 49.480519480519476,48.246753246753244 54.99999999999999,43.7012987012987 59.220779220779214,40.259740259740255 61.688311688311686,38.441558441558435 62.59740259740259,38.051948051948045 62.272727272727266,38.31168831168831 59.090909090909086,41.16883116883116 55.06493506493506,44.8051948051948 50.84415584415584,48.57142857142857 46.55844155844155,51.81818181818181 42.92207792207792,54.35064935064935 40.12987012987013,56.233766233766225 38.831168831168824,56.94805194805194 38.506493506493506,57.14285714285714 38.831168831168824,56.623376623376615 41.81818181818181,53.441558441558435 46.1038961038961,49.28571428571428 51.49350649350649,45.064935064935064 56.233766233766225,41.36363636363636 59.480519480519476,39.285714285714285 60.97402597402597,38.57142857142857 60.97402597402597,38.76623376623376 59.67532467532467,39.93506493506493 55.90909090909091,43.31168831168831 51.75324675324675,47.14285714285714 47.467532467532465,50.71428571428571 43.831168831168824,53.7012987012987 40.77922077922077,56.16883116883116 39.285714285714285,57.467532467532465 38.831168831168824,57.79220779220778 41.038961038961034,55.90909090909091 44.870129870129865,52.272727272727266 49.28571428571428,48.31168831168831 54.02597402597402,44.480519480519476 57.402597402597394,41.75324675324675 59.35064935064935,40.45454545454545 59.8051948051948,40.12987012987013" fill="none" stroke="black" stroke-width="0.6"></polyline><polyline points="59.8051948051948,40.12987012987013 59.28571428571428,40.259740259740255 56.55844155844155,42.467532467532465 53.18181818181818,45.38961038961038 49.41558441558441,48.7012987012987 45.97402597402597,51.36363636363636 43.116883116883116,53.7012987012987 41.1038961038961,55.19480519480519 40.45454545454545,55.71428571428571 41.23376623376623,55.259740259740255 42.4025974025974,54.28571428571428 46.1038961038961,50.90909090909091 51.1038961038961,46.75324675324675 56.1038961038961,42.72727272727273 59.93506493506493,39.870129870129865 61.88311688311688,38.506493506493506 62.402597402597394,38.246753246753244 61.16883116883116,39.285714285714285 57.72727272727272,42.467532467532465 53.7012987012987,46.1038961038961 49.480519480519476,49.67532467532467 45.58441558441558,52.53246753246753 42.467532467532465,54.67532467532467 40.45454545454545,55.844155844155836 39.8051948051948,56.1038961038961 39.93506493506493,55.90909090909091 42.33766233766234,53.63636363636363 46.42857142857142,49.93506493506493 51.688311688311686,45.84415584415584 56.233766233766225,42.272727272727266 59.74025974025974,39.675324675324674 61.623376623376615,38.506493506493506 62.012987012987004,38.31168831168831 61.038961038961034,38.831168831168824 57.467532467532465,41.55844155844156 53.11688311688311,44.93506493506493 48.63636363636363,48.63636363636363 44.41558441558441,51.94805194805194 41.23376623376623,54.480519480519476 39.480519480519476,55.90909090909091 38.831168831168824,56.49350649350649 39.220779220779214,56.298701298701296 40.19480519480519,55.58441558441558 43.441558441558435,52.79220779220779 47.53246753246753,49.54545454545454 52.467532467532465,45.84415584415584 57.2077922077922,42.2077922077922 60.71428571428571,39.480519480519476 62.72727272727272,38.051948051948045 63.246753246753244,37.662337662337656 62.53246753246753,37.72727272727273" fill="none" stroke="black" stroke-width="0.6"></polyline><polyline points="62.53246753246753,37.72727272727273 59.67532467532467,39.675324675324674 55.51948051948052,42.79220779220779 51.42857142857142,46.36363636363636 47.33766233766233,49.99999999999999 43.57142857142857,53.246753246753244 41.1038961038961,55.51948051948052 39.8051948051948,56.55844155844155 39.54545454545454,56.81818181818181 39.93506493506493,56.55844155844155 42.272727272727266,54.220779220779214 46.038961038961034,50.58441558441558 50.84415584415584,46.49350649350649 55.649350649350644,42.662337662337656 59.15584415584415,39.93506493506493 60.90909090909091,38.63636363636363 61.233766233766225,38.37662337662337 60.19480519480519,38.96103896103896 56.688311688311686,41.75324675324675 52.662337662337656,45.064935064935064 48.37662337662337,48.96103896103896 44.220779220779214,52.467532467532465 40.97402597402597,55.259740259740255 39.090909090909086,56.94805194805194 38.31168831168831,57.53246753246753 38.96103896103896,56.94805194805194 40.12987012987013,55.649350649350644 43.76623376623376,51.94805194805194 48.18181818181818,48.051948051948045 53.051948051948045,44.220779220779214 57.2077922077922,40.84415584415584 59.99999999999999,39.15584415584415 61.16883116883116,38.506493506493506 60.649350649350644,39.090909090909086 59.28571428571428,40.259740259740255 55.32467532467532,43.7012987012987 51.1038961038961,47.4025974025974 46.62337662337662,50.97402597402597 42.467532467532465,54.090909090909086 39.480519480519476,56.42857142857142 37.79220779220779,57.59740259740259 37.2077922077922,57.92207792207792 37.4025974025974,57.79220779220778 39.74025974025974,55.58441558441558 43.57142857142857,51.88311688311688 48.18181818181818,48.11688311688311 52.98701298701298,44.480519480519476 56.623376623376615,41.688311688311686 58.831168831168824,40.259740259740255 59.6103896103896,39.870129870129865 59.15584415584415,39.93506493506493" fill="none" stroke="black" stroke-width="0.6"></polyline><polyline points="59.15584415584415,39.93506493506493 56.298701298701296,41.94805194805195 52.272727272727266,45.19480519480519 48.051948051948045,48.89610389610389 43.96103896103896,52.272727272727266 40.77922077922077,54.870129870129865 38.831168831168824,56.623376623376615 37.92207792207792,57.402597402597394 37.98701298701298,57.467532467532465 38.831168831168824,56.75324675324675 41.88311688311688,53.7012987012987 45.77922077922077,49.93506493506493 50.649350649350644,45.84415584415584 55.454545454545446,42.077922077922075 58.96103896103896,39.285714285714285 60.844155844155836,37.79220779220779 61.233766233766225,37.4025974025974 60.12987012987013,37.72727272727273 56.36363636363636,40.38961038961038 51.81818181818181,43.831168831168824 47.467532467532465,47.72727272727272 43.31168831168831,51.23376623376623 39.870129870129865,54.15584415584415 37.33766233766234,56.42857142857142 36.1038961038961,57.59740259740259 35.90909090909091,57.98701298701298 36.75324675324675,57.72727272727272 39.93506493506493,54.99999999999999 44.220779220779214,50.90909090909091 49.41558441558441,46.36363636363636 54.02597402597402,42.53246753246753 57.467532467532465,39.480519480519476 59.67532467532467,37.662337662337656 60.259740259740255,37.077922077922075 60.06493506493506,37.077922077922075 57.2077922077922,39.090909090909086 53.11688311688311,42.662337662337656 49.090909090909086,46.49350649350649 45.12987012987013,50.19480519480519 41.81818181818181,53.051948051948045 39.41558441558441,55.12987012987013 38.31168831168831,56.16883116883116 38.18181818181818,56.36363636363636 38.831168831168824,55.844155844155836 41.88311688311688,52.857142857142854 45.90909090909091,49.090909090909086 50.97402597402597,45.12987012987013 55.454545454545446,41.62337662337662 58.37662337662337,39.54545454545454 59.67532467532467,38.63636363636363 59.41558441558441,38.831168831168824" fill="none" stroke="black" stroke-width="0.6"></polyline><polyline points="59.41558441558441,38.831168831168824 58.051948051948045,39.93506493506493 54.41558441558441,43.051948051948045 50.45454545454545,46.81818181818181 46.16883116883116,50.58441558441558 42.14285714285714,53.96103896103896 39.15584415584415,56.55844155844155 37.272727272727266,57.98701298701298 36.62337662337662,58.37662337662337 36.94805194805195,58.246753246753244 39.54545454545454,55.649350649350644 43.831168831168824,51.55844155844155 49.02597402597402,47.14285714285714 53.7012987012987,43.441558441558435 57.2077922077922,40.77922077922077 59.41558441558441,39.54545454545454 60.06493506493506,39.285714285714285 59.870129870129865,39.480519480519476 57.14285714285714,41.81818181818181 53.37662337662337,45.19480519480519 49.28571428571428,48.831168831168824 44.99999999999999,52.14285714285714 41.49350649350649,54.74025974025974 39.15584415584415,56.42857142857142 38.116883116883116,57.077922077922075 37.92207792207792,57.14285714285714 38.76623376623376,56.49350649350649 41.88311688311688,53.63636363636363 45.90909090909091,49.99999999999999 50.649350649350644,46.16883116883116 54.99999999999999,42.662337662337656 57.662337662337656,40.45454545454545 59.15584415584415,39.35064935064935 59.41558441558441,39.15584415584415 58.246753246753244,39.6103896103896 54.99999999999999,42.077922077922075 51.23376623376623,45.58441558441558 47.33766233766233,49.54545454545454 43.31168831168831,53.246753246753244 40.12987012987013,56.1038961038961 38.051948051948045,58.051948051948045 37.2077922077922,58.7012987012987 37.53246753246753,58.76623376623376 38.506493506493506,57.98701298701298 42.077922077922075,54.6103896103896 46.688311688311686,50.32467532467532 52.59740259740259,45.38961038961038 57.402597402597394,41.36363636363636 60.77922077922077,38.7012987012987 62.402597402597394,37.59740259740259 62.402597402597394,37.53246753246753" fill="none" stroke="black" stroke-width="0.6"></polyline><polyline points="62.402597402597394,37.53246753246753 61.298701298701296,38.37662337662337 57.59740259740259,41.55844155844156 53.441558441558435,45.259740259740255 49.090909090909086,49.02597402597402 44.74025974025974,52.33766233766233 41.23376623376623,54.93506493506493 38.896103896103895,56.81818181818181 37.79220779220779,57.59740259740259 37.662337662337656,57.79220779220778 38.7012987012987,57.077922077922075 42.077922077922075,53.76623376623376 46.62337662337662,49.6103896103896 51.88311688311688,45.38961038961038 56.55844155844155,41.49350649350649 59.74025974025974,39.02597402597402 61.298701298701296,37.92207792207792 61.623376623376615,37.72727272727273 60.844155844155836,38.051948051948045 57.53246753246753,40.649350649350644 53.5064935064935,44.15584415584415 49.35064935064935,48.11688311688311 45.12987012987013,51.62337662337662 41.75324675324675,54.41558441558441 39.41558441558441,56.42857142857142 38.246753246753244,57.272727272727266 38.051948051948045,57.467532467532465 38.31168831168831,57.33766233766233 40.71428571428571,54.99999999999999 44.6103896103896,51.23376623376623 49.41558441558441,47.01298701298701 54.74025974025974,42.79220779220779 58.96103896103896,39.6103896103896 61.298701298701296,37.98701298701298 62.077922077922075,37.4025974025974 61.81818181818181,37.467532467532465 58.96103896103896,39.8051948051948 54.67532467532467,43.37662337662337 50.51948051948052,47.272727272727266 46.36363636363636,50.84415584415584 42.79220779220779,53.63636363636363 40.064935064935064,55.71428571428571 38.7012987012987,56.75324675324675 38.37662337662337,56.94805194805194 38.96103896103896,56.42857142857142 41.75324675324675,53.7012987012987 46.038961038961034,49.8051948051948 50.97402597402597,45.97402597402597 55.454545454545446,42.59740259740259 58.57142857142857,40.45454545454545 60.259740259740255,39.41558441558441" fill="none" stroke="black" stroke-width="0.6"></polyline><polyline points="60.259740259740255,39.41558441558441 60.58441558441558,39.220779220779214 59.99999999999999,39.480519480519476 56.94805194805194,41.62337662337662 52.72727272727272,44.8051948051948 48.31168831168831,48.37662337662337 44.02597402597402,51.81818181818181 40.259740259740255,54.870129870129865 37.98701298701298,56.94805194805194 36.81818181818181,58.051948051948045 36.62337662337662,58.246753246753244 37.72727272727273,57.857142857142854 40.51948051948052,55.454545454545446 44.6103896103896,51.688311688311686 49.15584415584415,47.72727272727272 53.76623376623376,44.090909090909086 57.14285714285714,41.49350649350649 59.090909090909086,40.12987012987013 59.6103896103896,39.8051948051948 59.28571428571428,39.8051948051948 56.688311688311686,41.688311688311686 52.79220779220779,44.99999999999999 48.63636363636363,48.89610389610389 44.35064935064935,52.467532467532465 40.97402597402597,55.38961038961038 38.506493506493506,57.467532467532465 37.272727272727266,58.31168831168831 37.01298701298701,58.441558441558435 37.857142857142854,57.662337662337656 40.77922077922077,54.480519480519476 44.870129870129865,50.51948051948052 49.6103896103896,46.23376623376623 53.76623376623376,42.92207792207792 56.75324675324675,40.71428571428571 58.37662337662337,39.8051948051948 58.76623376623376,39.6103896103896 57.79220779220778,40.32467532467532 54.6103896103896,43.246753246753244 50.97402597402597,46.55844155844155 47.077922077922075,49.8051948051948 43.37662337662337,52.72727272727272 40.71428571428571,54.74025974025974 39.02597402597402,56.038961038961034 38.31168831168831,56.55844155844155 38.76623376623376,56.298701298701296 39.675324675324674,55.454545454545446 42.98701298701298,52.4025974025974 47.077922077922075,48.89610389610389 51.688311688311686,45.45454545454545 55.58441558441558,42.467532467532465 57.92207792207792,40.58441558441558" fill="none" stroke="black" stroke-width="0.6"></polyline><polyline points="57.92207792207792,40.58441558441558 59.090909090909086,39.870129870129865 58.76623376623376,39.74025974025974 57.72727272727272,40.12987012987013 54.41558441558441,42.467532467532465 50.649350649350644,45.58441558441558 46.75324675324675,49.28571428571428 42.857142857142854,52.98701298701298 39.99999999999999,55.649350649350644 38.506493506493506,57.2077922077922 37.92207792207792,57.662337662337656 38.57142857142857,57.272727272727266 39.6103896103896,56.233766233766225 42.92207792207792,52.79220779220779 47.01298701298701,48.831168831168824 51.75324675324675,44.870129870129865 55.77922077922077,41.42857142857142 58.37662337662337,39.41558441558441 59.74025974025974,38.506493506493506 59.480519480519476,38.7012987012987 58.18181818181817,39.870129870129865 54.6103896103896,43.246753246753244 50.649350649350644,46.94805194805194 46.688311688311686,50.259740259740255 43.18181818181818,52.98701298701298 40.259740259740255,55.06493506493506 38.76623376623376,56.233766233766225 38.18181818181818,56.623376623376615 38.96103896103896,56.1038961038961 40.19480519480519,54.93506493506493 44.02597402597402,51.36363636363636 48.57142857142857,47.53246753246753 53.18181818181818,43.896103896103895 56.688311688311686,41.1038961038961 58.76623376623376,39.6103896103896 59.41558441558441,39.220779220779214 59.35064935064935,39.220779220779214 56.88311688311688,40.84415584415584 53.37662337662337,43.7012987012987 49.28571428571428,47.59740259740259 45.259740259740255,51.298701298701296 41.81818181818181,54.35064935064935 39.35064935064935,56.55844155844155 37.98701298701298,57.662337662337656 37.59740259740259,57.98701298701298 37.857142857142854,57.98701298701298 40.12987012987013,55.97402597402597 43.63636363636363,52.4025974025974 48.441558441558435,48.051948051948045 53.051948051948045,44.15584415584415 57.272727272727266,40.77922077922077" fill="none" stroke="black" stroke-width="0.6"></polyline><polyline points="57.272727272727266,40.77922077922077 59.74025974025974,39.02597402597402 60.649350649350644,38.506493506493506 59.870129870129865,39.285714285714285 58.441558441558435,40.51948051948052 54.8051948051948,43.831168831168824 51.1038961038961,47.467532467532465 47.14285714285714,50.71428571428571 43.76623376623376,53.37662337662337 41.1038961038961,55.19480519480519 39.8051948051948,55.97402597402597 39.54545454545454,55.97402597402597 40.58441558441558,54.99999999999999 43.896103896103895,51.55844155844155 48.37662337662337,47.662337662337656 53.11688311688311,43.896103896103895 56.81818181818181,41.1038961038961 59.41558441558441,39.54545454545454 60.32467532467532,39.090909090909086 60.38961038961038,39.285714285714285 57.98701298701298,41.688311688311686 54.28571428571428,45.12987012987013 50.45454545454545,48.63636363636363 46.62337662337662,51.36363636363636 42.98701298701298,53.831168831168824 40.45454545454545,55.38961038961038 39.220779220779214,56.1038961038961 39.8051948051948,55.454545454545446 42.92207792207792,52.467532467532465 46.75324675324675,49.02597402597402 51.16883116883116,45.649350649350644 54.99999999999999,42.72727272727273 57.402597402597394,40.84415584415584 58.831168831168824,39.8051948051948 59.220779220779214,39.54545454545454 58.63636363636363,39.54545454545454 56.038961038961034,41.16883116883116 52.14285714285714,44.41558441558441 48.051948051948045,48.31168831168831 44.220779220779214,51.88311688311688 41.298701298701296,54.6103896103896 39.54545454545454,56.298701298701296 38.831168831168824,57.012987012987004 38.831168831168824,57.14285714285714 39.480519480519476,56.81818181818181 41.75324675324675,54.8051948051948 44.93506493506493,51.49350649350649 49.090909090909086,47.467532467532465 53.831168831168824,43.37662337662337 57.272727272727266,40.51948051948052 59.35064935064935,39.285714285714285" fill="none" stroke="black" stroke-width="0.6"></polyline><polyline points="59.35064935064935,39.285714285714285 59.93506493506493,38.896103896103895 59.54545454545454,38.96103896103896 56.88311688311688,41.16883116883116 53.37662337662337,44.35064935064935 49.480519480519476,48.051948051948045 45.71428571428571,50.90909090909091 42.92207792207792,53.051948051948045 41.36363636363636,54.090909090909086 41.81818181818181,53.831168831168824 43.57142857142857,52.2077922077922 45.97402597402597,50.51948051948052" fill="none" stroke="black" stroke-width="0.6"></polyline></svg>