<svg height="100" width="100" preserveAspectRatio="xMidYMid meet"><polyline points="82.85714285714285,20.909090909090907 81.68831168831169,21.428571428571427 81.62337662337661,21.428571428571427 81.49350649350649,21.428571428571427 81.29870129870129,21.49350649350649 81.16883116883116,21.558441558441558 81.03896103896103,21.688311688311686 80.9090909090909,21.753246753246753 80.77922077922076,21.818181818181817 80.64935064935064,21.88311688311688 80.58441558441558,21.948051948051948 80.45454545454545,22.077922077922075 80.38961038961038,22.142857142857142 80.25974025974025,22.142857142857142 80.25974025974025,22.207792207792206 80.12987012987013,22.337662337662337 80.06493506493506,22.4025974025974 79.99999999999999,22.467532467532465 79.93506493506493,22.532467532467532 79.8051948051948,22.66233766233766 79.67532467532467,22.727272727272727 79.6103896103896,22.79220779220779 79.48051948051948,22.92207792207792 79.35064935064935,22.987012987012985 79.28571428571428,23.05194805194805 79.15584415584415,23.18181818181818 79.02597402597402,23.31168831168831 78.96103896103895,23.376623376623375 78.83116883116882,23.44155844155844 78.76623376623375,23.57142857142857 78.7012987012987,23.7012987012987 78.57142857142857,23.766233766233764 78.44155844155843,23.896103896103895 78.37662337662337,24.025974025974023 78.3116883116883,24.09090909090909 78.18181818181817,24.220779220779217 78.05194805194805,24.285714285714285 78.05194805194805,24.35064935064935 77.92207792207792,24.48051948051948 77.85714285714285,24.545454545454543 77.72727272727272,24.675324675324674 77.66233766233765,24.740259740259738 77.59740259740259,24.87012987012987 77.53246753246752,24.935064935064933 77.4025974025974,24.999999999999996 77.4025974025974,25.064935064935064 77.27272727272727,25.19480519480519 77.2077922077922,25.25974025974026 77.14285714285714,25.25974025974026 77.07792207792207,25.324675324675322 77.01298701298701,25.454545454545453" fill="none" stroke="black" stroke-width="0.6"></polyline><polyline points="77.01298701298701,25.454545454545453 76.88311688311687,25.519480519480517 76.75324675324674,25.58441558441558 76.75324675324674,25.649350649350648 76.68831168831169,25.71428571428571 76.62337662337661,25.779220779220775 76.55844155844156,25.844155844155843 76.49350649350649,25.909090909090907 76.42857142857142,25.909090909090907 76.42857142857142,25.97402597402597 76.36363636363636,26.038961038961038 76.23376623376623,26.1038961038961 76.23376623376623,26.168831168831165 76.16883116883116,26.233766233766232 76.10389610389609,26.233766233766232 76.10389610389609,26.298701298701296 76.03896103896103,26.36363636363636 75.9090909090909,26.49350649350649 75.84415584415584,26.49350649350649 75.84415584415584,26.558441558441555 75.77922077922078,26.623376623376622 75.71428571428571,26.688311688311686 75.64935064935064,26.75324675324675 75.58441558441558,26.818181818181817 75.51948051948051,26.818181818181817 75.45454545454545,26.88311688311688 75.32467532467531,27.01298701298701 75.32467532467531,27.077922077922075 75.25974025974025,27.14285714285714 75.19480519480518,27.14285714285714 75.12987012987013,27.27272727272727 75.06493506493506,27.337662337662334 74.93506493506493,27.4025974025974 74.87012987012986,27.467532467532465 74.87012987012986,27.53246753246753 74.8051948051948,27.597402597402596 74.74025974025973,27.66233766233766 74.6103896103896,27.79220779220779 74.54545454545453,27.79220779220779 74.54545454545453,27.857142857142854 74.4155844155844,27.987012987012985 74.35064935064935,28.05194805194805 74.28571428571428,28.116883116883113 74.2207792207792,28.116883116883113 74.15584415584415,28.246753246753244 74.09090909090908,28.311688311688307 73.96103896103895,28.376623376623375 73.8961038961039,28.44155844155844 73.83116883116882,28.506493506493502 73.7012987012987,28.57142857142857 73.63636363636363,28.701298701298697" fill="none" stroke="black" stroke-width="0.6"></polyline><polyline points="73.63636363636363,28.701298701298697 73.57142857142857,28.701298701298697 73.44155844155843,28.831168831168828 73.37662337662337,28.89610389610389 73.3116883116883,29.025974025974023 73.18181818181817,29.025974025974023 73.05194805194805,29.155844155844154 72.98701298701297,29.220779220779217 72.92207792207792,29.285714285714285 72.85714285714285,29.35064935064935 72.72727272727272,29.415584415584412 72.66233766233765,29.545454545454543 72.59740259740259,29.610389610389607 72.53246753246752,29.675324675324674 72.4025974025974,29.740259740259738 72.33766233766234,29.87012987012987 72.33766233766234,29.935064935064933 72.2077922077922,29.999999999999996 72.14285714285714,30.064935064935064 72.01298701298701,30.19480519480519 72.01298701298701,30.25974025974026 71.94805194805194,30.324675324675322 71.88311688311687,30.389610389610386 71.81818181818181,30.454545454545453 71.75324675324674,30.58441558441558 71.68831168831169,30.58441558441558 71.68831168831169,30.649350649350648 71.55844155844156,30.779220779220775 71.49350649350649,30.844155844155843 71.42857142857142,30.909090909090907 71.42857142857142,30.97402597402597 71.36363636363636,31.038961038961038 71.29870129870129,31.168831168831165 71.29870129870129,31.233766233766232 71.16883116883116,31.298701298701296 71.10389610389609,31.36363636363636 71.10389610389609,31.428571428571427 71.03896103896103,31.49350649350649 70.97402597402596,31.558441558441555 70.84415584415584,31.623376623376622 70.77922077922078,31.75324675324675 70.77922077922078,31.818181818181817 70.71428571428571,31.88311688311688 70.58441558441558,31.948051948051944 70.51948051948051,32.077922077922075 70.45454545454545,32.14285714285714 70.38961038961038,32.272727272727266 70.25974025974025,32.4025974025974 70.12987012987013,32.467532467532465 70.06493506493506,32.53246753246753 70,32.662337662337656" fill="none" stroke="black" stroke-width="0.6"></polyline><polyline points="70,32.662337662337656 69.8051948051948,32.79220779220779 69.74025974025973,32.857142857142854 69.54545454545453,33.051948051948045 69.48051948051948,33.116883116883116 69.35064935064935,33.31168831168831 69.15584415584415,33.44155844155844 69.02597402597402,33.506493506493506 68.8961038961039,33.7012987012987 68.76623376623375,33.76623376623376 68.63636363636363,33.896103896103895 68.5064935064935,34.02597402597402 68.37662337662337,34.090909090909086 68.24675324675324,34.22077922077922 68.18181818181817,34.35064935064935 68.05194805194805,34.480519480519476 67.92207792207792,34.61038961038961 67.85714285714285,34.675324675324674 67.72727272727272,34.8051948051948 67.59740259740259,34.93506493506493 67.46753246753246,35 67.33766233766234,35.12987012987013 67.27272727272727,35.259740259740255 67.14285714285714,35.32467532467532 67.01298701298701,35.45454545454545 66.88311688311688,35.58441558441558 66.75324675324674,35.649350649350644 66.62337662337661,35.77922077922078 66.49350649350649,35.90909090909091 66.36363636363636,36.038961038961034 66.16883116883116,36.23376623376623 66.03896103896103,36.298701298701296 65.84415584415584,36.49350649350649 65.71428571428571,36.62337662337662 65.51948051948051,36.75324675324675 65.38961038961038,36.88311688311688 65.25974025974025,37.01298701298701 65.12987012987013,37.14285714285714 65,37.272727272727266 64.8051948051948,37.467532467532465 64.74025974025973,37.53246753246753 64.54545454545453,37.72727272727273 64.48051948051948,37.79220779220779 64.35064935064935,37.92207792207792 64.22077922077922,38.051948051948045 64.15584415584415,38.116883116883116 64.02597402597402,38.246753246753244 63.96103896103895,38.37662337662337 63.831168831168824,38.506493506493506 63.76623376623376,38.63636363636363 63.57142857142856,38.76623376623376" fill="none" stroke="black" stroke-width="0.6"></polyline><polyline points="63.57142857142856,38.76623376623376 63.5064935064935,38.896103896103895 63.31168831168831,39.02597402597402 63.18181818181817,39.15584415584415 62.98701298701298,39.285714285714285 62.79220779220778,39.41558441558441 62.59740259740259,39.54545454545454 62.467532467532465,39.675324675324674 62.272727272727266,39.8051948051948 62.14285714285714,39.93506493506493 61.94805194805194,39.99999999999999 61.88311688311688,40.12987012987013 61.75324675324675,40.259740259740255 61.623376623376615,40.32467532467532 61.49350649350649,40.45454545454545 61.36363636363636,40.58441558441558 61.298701298701296,40.649350649350644 61.233766233766225,40.77922077922077 61.1038961038961,40.90909090909091 60.97402597402597,40.97402597402597 60.97402597402597,41.038961038961034 60.844155844155836,41.1038961038961 60.77922077922077,41.23376623376623 60.649350649350644,41.298701298701296 60.649350649350644,41.36363636363636 60.58441558441558,41.42857142857142 60.51948051948052,41.55844155844156 60.38961038961038,41.55844155844156 60.32467532467532,41.62337662337662 60.32467532467532,41.75324675324675 60.259740259740255,41.81818181818181 60.19480519480519,41.88311688311688 60.12987012987013,41.94805194805195 60.06493506493506,42.01298701298701 59.99999999999999,42.077922077922075 59.99999999999999,42.14285714285714 59.93506493506493,42.2077922077922 59.93506493506493,42.272727272727266 59.870129870129865,42.272727272727266 59.8051948051948,42.33766233766234 59.74025974025974,42.4025974025974 59.67532467532467,42.467532467532465 59.6103896103896,42.59740259740259 59.54545454545454,42.662337662337656 59.480519480519476,42.72727272727273 59.41558441558441,42.79220779220779 59.41558441558441,42.857142857142854 59.35064935064935,42.92207792207792 59.220779220779214,43.051948051948045 59.15584415584415,43.116883116883116 59.090909090909086,43.116883116883116" fill="none" stroke="black" stroke-width="0.6"></polyline><polyline points="59.090909090909086,43.116883116883116 59.090909090909086,43.18181818181818 59.02597402597402,43.31168831168831 58.89610389610389,43.441558441558435 58.831168831168824,43.441558441558435 58.76623376623376,43.57142857142857 58.76623376623376,43.63636363636363 58.63636363636363,43.76623376623376 58.57142857142857,43.76623376623376 58.5064935064935,43.76623376623376 58.5064935064935,43.896103896103895 58.441558441558435,43.96103896103896 58.37662337662337,44.090909090909086 58.31168831168831,44.090909090909086 58.246753246753244,44.15584415584415 58.11688311688311,44.220779220779214 58.11688311688311,44.35064935064935 57.98701298701298,44.41558441558441 57.92207792207792,44.41558441558441 57.79220779220778,44.54545454545454 57.72727272727272,44.675324675324674 57.662337662337656,44.675324675324674 57.59740259740259,44.74025974025974 57.467532467532465,44.870129870129865 57.402597402597394,44.93506493506493 57.272727272727266,44.99999999999999 57.14285714285714,45.064935064935064 57.077922077922075,45.19480519480519 56.94805194805194,45.32467532467532 56.88311688311688,45.38961038961038 56.688311688311686,45.51948051948052 56.55844155844155,45.649350649350644 56.42857142857142,45.71428571428571 56.233766233766225,45.90909090909091 56.038961038961034,45.97402597402597 55.844155844155836,46.16883116883116 55.58441558441558,46.36363636363636 55.38961038961038,46.55844155844155 55.19480519480519,46.688311688311686 54.93506493506493,46.88311688311688 54.74025974025974,47.077922077922075 54.54545454545454,47.272727272727266 54.35064935064935,47.467532467532465 54.15584415584415,47.662337662337656 54.02597402597402,47.79220779220779 53.831168831168824,47.98701298701298 53.7012987012987,48.18181818181818 53.57142857142857,48.37662337662337 53.37662337662337,48.441558441558435 53.31168831168831,48.63636363636363 53.18181818181818,48.76623376623376" fill="none" stroke="black" stroke-width="0.6"></polyline><polyline points="53.18181818181818,48.76623376623376 53.051948051948045,48.89610389610389 52.92207792207792,49.090909090909086 52.72727272727272,49.15584415584415 52.662337662337656,49.35064935064935 52.467532467532465,49.41558441558441 52.4025974025974,49.6103896103896 52.2077922077922,49.67532467532467 52.077922077922075,49.870129870129865 51.88311688311688,49.99999999999999 51.688311688311686,50.12987012987013 51.49350649350649,50.32467532467532 51.36363636363636,50.45454545454545 51.23376623376623,50.649350649350644 51.1038961038961,50.77922077922077 50.97402597402597,50.97402597402597 50.84415584415584,51.1038961038961 50.71428571428571,51.23376623376623 50.58441558441558,51.36363636363636 50.45454545454545,51.55844155844155 50.32467532467532,51.688311688311686 50.19480519480519,51.88311688311688 50.12987012987013,51.94805194805194 50.064935064935064,52.14285714285714 49.93506493506493,52.272727272727266 49.870129870129865,52.4025974025974 49.8051948051948,52.53246753246753 49.67532467532467,52.72727272727272 49.6103896103896,52.857142857142854 49.480519480519476,52.98701298701298 49.35064935064935,53.18181818181818 49.28571428571428,53.31168831168831 49.090909090909086,53.441558441558435 48.96103896103896,53.57142857142857 48.89610389610389,53.76623376623376 48.7012987012987,53.831168831168824 48.63636363636363,54.02597402597402 48.57142857142857,54.15584415584415 48.37662337662337,54.28571428571428 48.31168831168831,54.41558441558441 48.18181818181818,54.6103896103896 48.051948051948045,54.74025974025974 47.98701298701298,54.93506493506493 47.857142857142854,54.99999999999999 47.662337662337656,55.259740259740255 47.59740259740259,55.32467532467532 47.4025974025974,55.51948051948052 47.272727272727266,55.649350649350644 47.077922077922075,55.90909090909091 46.94805194805194,56.038961038961034 46.75324675324675,56.233766233766225" fill="none" stroke="black" stroke-width="0.6"></polyline><polyline points="46.75324675324675,56.233766233766225 46.688311688311686,56.36363636363636 46.49350649350649,56.55844155844155 46.36363636363636,56.688311688311686 46.23376623376623,56.88311688311688 46.1038961038961,56.94805194805194 45.97402597402597,57.14285714285714 45.84415584415584,57.272727272727266 45.71428571428571,57.402597402597394 45.58441558441558,57.53246753246753 45.45454545454545,57.72727272727272 45.259740259740255,57.857142857142854 45.12987012987013,58.051948051948045 44.870129870129865,58.18181818181817 44.74025974025974,58.37662337662337 44.54545454545454,58.5064935064935 44.220779220779214,58.76623376623376 44.02597402597402,58.96103896103896 43.76623376623376,59.15584415584415 43.57142857142857,59.41558441558441 43.37662337662337,59.54545454545454 43.18181818181818,59.74025974025974 42.92207792207792,59.93506493506493 42.79220779220779,60.12987012987013 42.59740259740259,60.32467532467532 42.4025974025974,60.454545454545446 42.2077922077922,60.649350649350644 42.01298701298701,60.844155844155836 41.75324675324675,61.038961038961034 41.55844155844156,61.298701298701296 41.36363636363636,61.49350649350649 41.1038961038961,61.623376623376615 40.84415584415584,61.88311688311688 40.649350649350644,62.077922077922075 40.45454545454545,62.2077922077922 40.259740259740255,62.467532467532465 40.064935064935064,62.662337662337656 39.870129870129865,62.857142857142854 39.74025974025974,63.051948051948045 39.54545454545454,63.18181818181817 39.41558441558441,63.37662337662337 39.220779220779214,63.5064935064935 39.090909090909086,63.7012987012987 38.96103896103896,63.89610389610389 38.831168831168824,64.09090909090908 38.57142857142857,64.22077922077922 38.37662337662337,64.4155844155844 38.18181818181818,64.67532467532467 37.98701298701298,64.87012987012986 37.79220779220779,65.06493506493506 37.59740259740259,65.25974025974025" fill="none" stroke="black" stroke-width="0.6"></polyline><polyline points="37.59740259740259,65.25974025974025 37.4025974025974,65.45454545454545 37.272727272727266,65.64935064935064 37.01298701298701,65.97402597402596 36.81818181818181,66.16883116883116 36.62337662337662,66.36363636363636 36.49350649350649,66.62337662337661 36.298701298701296,66.81818181818181 36.16883116883117,67.07792207792207 35.97402597402597,67.27272727272727 35.77922077922078,67.53246753246752 35.649350649350644,67.79220779220779 35.38961038961039,68.05194805194805 35.259740259740255,68.24675324675324 35.064935064935064,68.5064935064935 34.93506493506493,68.7012987012987 34.74025974025974,68.8961038961039 34.61038961038961,69.09090909090908 34.41558441558441,69.4155844155844 34.285714285714285,69.54545454545453 34.090909090909086,69.74025974025973 33.96103896103896,70 33.76623376623376,70.19480519480518 33.57142857142857,70.38961038961038 33.44155844155844,70.51948051948051 33.246753246753244,70.71428571428571 33.116883116883116,70.9090909090909 32.92207792207792,71.10389610389609 32.79220779220779,71.29870129870129 32.59740259740259,71.55844155844156 32.467532467532465,71.75324675324674 32.272727272727266,71.94805194805194 32.077922077922075,72.2077922077922 31.88311688311688,72.4025974025974 31.688311688311686,72.59740259740259 31.49350649350649,72.85714285714285 31.298701298701296,72.98701298701297 31.1038961038961,73.18181818181817 30.909090909090907,73.3116883116883 30.71428571428571,73.5064935064935 30.58441558441558,73.63636363636363 30.324675324675322,73.83116883116882 30.19480519480519,73.96103896103895 29.999999999999996,74.15584415584415 29.8051948051948,74.28571428571428 29.675324675324674,74.4155844155844 29.48051948051948,74.67532467532467 29.35064935064935,74.8051948051948 29.090909090909086,75.06493506493506 28.96103896103896,75.25974025974025 28.766233766233764,75.45454545454545" fill="none" stroke="black" stroke-width="0.6"></polyline><polyline points="28.766233766233764,75.45454545454545 28.57142857142857,75.71428571428571 28.376623376623375,75.97402597402596 28.116883116883113,76.16883116883116 27.922077922077918,76.36363636363636 27.79220779220779,76.55844155844156 27.597402597402596,76.68831168831169 27.467532467532465,76.94805194805194 27.207792207792206,77.07792207792207 27.01298701298701,77.27272727272727 26.818181818181817,77.4025974025974 26.558441558441555,77.59740259740259 26.36363636363636,77.72727272727272 26.168831168831165,77.92207792207792 26.038961038961038,78.05194805194805 25.844155844155843,78.18181818181817 25.71428571428571,78.37662337662337 25.58441558441558,78.5064935064935 25.454545454545453,78.7012987012987 25.25974025974026,78.83116883116882 25.19480519480519,79.09090909090908 24.999999999999996,79.2207792207792 24.87012987012987,79.4155844155844 24.675324675324674,79.54545454545453 24.545454545454543,79.67532467532467 24.35064935064935,79.8051948051948 24.220779220779217,79.99999999999999 24.025974025974023,80.06493506493506 23.896103896103895,80.25974025974025 23.7012987012987,80.38961038961038 23.506493506493506,80.51948051948051 23.376623376623375,80.71428571428571 23.116883116883116,80.84415584415584 22.92207792207792,81.03896103896103 22.727272727272727,81.23376623376623 22.467532467532465,81.36363636363636 22.27272727272727,81.62337662337661 22.077922077922075,81.81818181818181 21.88311688311688,81.94805194805194 21.753246753246753,82.2077922077922 21.558441558441558,82.33766233766232 21.363636363636363,82.59740259740259 21.16883116883117,82.79220779220779 20.909090909090907,82.98701298701297 20.649350649350648,83.24675324675324 20.454545454545453,83.5064935064935 20.19480519480519,83.76623376623375 19.87012987012987,83.96103896103895 19.610389610389607,84.2207792207792 19.415584415584412,84.48051948051948 19.220779220779217,84.74025974025973" fill="none" stroke="black" stroke-width="0.6"></polyline><polyline points="19.220779220779217,84.74025974025973 19.155844155844154,84.99999999999999 19.09090909090909,85.12987012987013 19.09090909090909,85.32467532467531 19.155844155844154,85.38961038961038" fill="none" stroke="black" stroke-width="0.6"></polyline></svg>