<svg height="100" width="100" preserveAspectRatio="xMidYMid meet"><polyline points="54.74025974025974,46.55844155844155 53.246753246753244,47.4025974025974 52.14285714285714,47.92207792207792 50.90909090909091,48.63636363636363 49.54545454545454,49.54545454545454 47.857142857142854,50.649350649350644 46.298701298701296,51.62337662337662 44.74025974025974,52.59740259740259 43.57142857142857,53.37662337662337 42.92207792207792,53.831168831168824 42.79220779220779,53.96103896103896 42.92207792207792,54.02597402597402 44.02597402597402,53.441558441558435 45.71428571428571,52.077922077922075 47.662337662337656,50.45454545454545 49.6103896103896,49.090909090909086 51.42857142857142,47.98701298701298 52.662337662337656,47.33766233766233 53.31168831168831,47.14285714285714 52.72727272727272,47.53246753246753 50.84415584415584,48.831168831168824 48.246753246753244,50.51948051948052 45.51948051948052,52.14285714285714 42.98701298701298,53.57142857142857 41.1038961038961,54.67532467532467 40.32467532467532,55.12987012987013 40.19480519480519,55.259740259740255 41.75324675324675,54.870129870129865 44.54545454545454,53.051948051948045 47.92207792207792,50.649350649350644 51.23376623376623,48.441558441558435 53.76623376623376,46.88311688311688 55.259740259740255,46.1038961038961 55.77922077922077,45.90909090909091 54.99999999999999,46.038961038961034 54.02597402597402,46.688311688311686 51.1038961038961,48.63636363636363 47.662337662337656,50.45454545454545 44.285714285714285,52.077922077922075 42.01298701298701,53.11688311688311 40.71428571428571,53.57142857142857 40.51948051948052,53.76623376623376 41.55844155844156,53.76623376623376 44.54545454545454,52.33766233766233 48.63636363636363,49.99999999999999 52.72727272727272,47.857142857142854 55.71428571428571,46.36363636363636 57.53246753246753,45.51948051948052 58.31168831168831,45.19480519480519 58.051948051948045,45.19480519480519 55.454545454545446,46.75324675324675" fill="none" stroke="black" stroke-width="0.6"></polyline><polyline points="55.454545454545446,46.75324675324675 51.62337662337662,49.090909090909086 47.4025974025974,51.42857142857142 43.7012987012987,53.441558441558435 40.84415584415584,54.870129870129865 39.6103896103896,55.51948051948052 40.12987012987013,55.649350649350644 41.688311688311686,54.8051948051948 45.77922077922077,52.14285714285714 50.32467532467532,49.220779220779214 54.28571428571428,46.88311688311688 56.88311688311688,45.45454545454545 58.051948051948045,44.99999999999999 57.857142857142854,44.99999999999999 56.88311688311688,45.649350649350644 53.7012987012987,47.92207792207792 49.480519480519476,50.51948051948052 45.259740259740255,52.72727272727272 41.688311688311686,54.41558441558441 39.8051948051948,55.32467532467532 39.480519480519476,55.454545454545446 40.45454545454545,55.32467532467532 43.57142857142857,53.37662337662337 47.98701298701298,50.71428571428571 51.94805194805194,48.37662337662337 54.6103896103896,46.94805194805194 56.038961038961034,46.36363636363636 56.36363636363636,46.23376623376623 55.38961038961038,46.62337662337662 52.662337662337656,48.5064935064935 48.96103896103896,50.58441558441558 45.064935064935064,52.4025974025974 42.33766233766234,53.63636363636363 40.84415584415584,54.15584415584415 40.58441558441558,54.28571428571428 42.01298701298701,53.96103896103896 45.58441558441558,51.81818181818181 49.480519480519476,49.54545454545454 53.37662337662337,47.53246753246753 55.77922077922077,46.49350649350649 56.75324675324675,46.16883116883116 56.1038961038961,46.42857142857142 54.67532467532467,47.33766233766233 51.16883116883116,49.480519480519476 47.01298701298701,51.688311688311686 43.506493506493506,53.246753246753244 41.23376623376623,54.15584415584415 40.259740259740255,54.480519480519476 41.298701298701296,54.41558441558441 42.467532467532465,53.7012987012987 46.42857142857142,51.23376623376623" fill="none" stroke="black" stroke-width="0.6"></polyline><polyline points="46.42857142857142,51.23376623376623 50.51948051948052,48.89610389610389 53.7012987012987,47.33766233766233 55.90909090909091,46.42857142857142 56.623376623376615,46.23376623376623 56.55844155844155,46.23376623376623 54.02597402597402,47.79220779220779 50.649350649350644,49.67532467532467 46.94805194805194,51.49350649350649 43.441558441558435,52.98701298701298 41.298701298701296,53.89610389610389 40.38961038961038,54.28571428571428 41.298701298701296,54.15584415584415 42.467532467532465,53.5064935064935 46.49350649350649,51.1038961038961 50.45454545454545,48.96103896103896 53.76623376623376,47.272727272727266 55.97402597402597,46.42857142857142 56.75324675324675,46.23376623376623 55.71428571428571,46.62337662337662 54.35064935064935,47.467532467532465 50.97402597402597,49.41558441558441 47.2077922077922,51.298701298701296 43.831168831168824,52.98701298701298 42.01298701298701,53.831168831168824 41.298701298701296,54.090909090909086 41.49350649350649,54.15584415584415 44.090909090909086,53.18181818181818 47.59740259740259,51.16883116883116 51.55844155844155,48.96103896103896 54.480519480519476,47.33766233766233 56.233766233766225,46.55844155844155 56.688311688311686,46.36363636363636 56.233766233766225,46.36363636363636 53.7012987012987,47.79220779220779 49.99999999999999,49.93506493506493 46.1038961038961,51.88311688311688 42.72727272727273,53.37662337662337 40.71428571428571,54.15584415584415 40.12987012987013,54.41558441558441 40.84415584415584,54.35064935064935 44.35064935064935,52.4025974025974 48.96103896103896,49.74025974025974 53.5064935064935,47.33766233766233 56.55844155844155,45.77922077922077 57.98701298701298,45.19480519480519 57.79220779220778,45.19480519480519 56.623376623376615,45.84415584415584 53.051948051948045,48.051948051948045 48.5064935064935,50.649350649350644 44.220779220779214,52.72727272727272" fill="none" stroke="black" stroke-width="0.6"></polyline><polyline points="44.220779220779214,52.72727272727272 41.62337662337662,53.89610389610389 40.45454545454545,54.35064935064935 41.55844155844156,54.090909090909086 43.116883116883116,53.18181818181818 47.467532467532465,50.649350649350644 51.88311688311688,48.11688311688311 55.259740259740255,46.298701298701296 56.88311688311688,45.649350649350644 57.14285714285714,45.51948051948052 56.233766233766225,45.90909090909091 53.18181818181818,47.92207792207792 48.96103896103896,50.38961038961038 44.8051948051948,52.467532467532465 41.23376623376623,54.090909090909086 39.480519480519476,54.8051948051948 39.15584415584415,54.99999999999999 40.32467532467532,54.6103896103896 44.15584415584415,52.2077922077922 48.57142857142857,49.67532467532467 52.662337662337656,47.272727272727266 55.19480519480519,45.97402597402597 56.36363636363636,45.51948051948052 55.97402597402597,45.58441558441558 54.74025974025974,46.23376623376623 51.038961038961034,48.7012987012987 47.01298701298701,51.038961038961034 43.246753246753244,52.92207792207792 40.259740259740255,54.28571428571428 39.15584415584415,54.8051948051948 39.8051948051948,54.67532467532467 41.36363636363636,53.831168831168824 45.45454545454545,51.36363636363636 49.54545454545454,49.090909090909086 53.37662337662337,47.14285714285714 55.58441558441558,46.1038961038961 56.36363636363636,45.84415584415584 56.038961038961034,45.90909090909091 53.246753246753244,47.53246753246753 49.480519480519476,49.8051948051948 44.93506493506493,52.2077922077922 41.42857142857142,53.76623376623376 39.480519480519476,54.67532467532467 38.96103896103896,54.8051948051948 39.8051948051948,54.74025974025974 42.98701298701298,52.857142857142854 47.467532467532465,50.19480519480519 51.55844155844155,47.98701298701298 54.220779220779214,46.55844155844155 55.71428571428571,46.038961038961034 55.844155844155836,45.90909090909091" fill="none" stroke="black" stroke-width="0.6"></polyline><polyline points="55.844155844155836,45.90909090909091 54.67532467532467,46.55844155844155 51.23376623376623,48.76623376623376 47.272727272727266,51.038961038961034 43.506493506493506,52.857142857142854 40.45454545454545,54.15584415584415 39.15584415584415,54.74025974025974 39.54545454545454,54.8051948051948 41.298701298701296,53.96103896103896 45.45454545454545,51.55844155844155 49.870129870129865,49.090909090909086 53.76623376623376,47.2077922077922 56.36363636363636,45.97402597402597 57.272727272727266,45.649350649350644 56.55844155844155,45.90909090909091 55.06493506493506,46.81818181818181 51.16883116883116,49.28571428571428 46.81818181818181,51.55844155844155 43.051948051948045,53.37662337662337 40.38961038961038,54.54545454545454 39.54545454545454,54.870129870129865 39.54545454545454,54.93506493506493 42.272727272727266,53.76623376623376 46.298701298701296,51.23376623376623 50.32467532467532,48.89610389610389 54.02597402597402,46.81818181818181 56.16883116883116,45.84415584415584 56.88311688311688,45.649350649350644 56.49350649350649,45.71428571428571 53.63636363636363,47.59740259740259 49.67532467532467,49.99999999999999 45.12987012987013,52.33766233766233 41.62337662337662,53.96103896103896 39.74025974025974,54.74025974025974 39.35064935064935,54.99999999999999 40.71428571428571,54.54545454545454 44.870129870129865,52.077922077922075 49.41558441558441,49.41558441558441 53.63636363636363,47.14285714285714 56.55844155844155,45.649350649350644 57.857142857142854,45.19480519480519 57.59740259740259,45.32467532467532 56.233766233766225,46.1038961038961 52.857142857142854,48.246753246753244 48.7012987012987,50.32467532467532 44.8051948051948,52.14285714285714 42.33766233766234,53.18181818181818 41.16883116883116,53.5064935064935 41.16883116883116,53.57142857142857 43.76623376623376,52.33766233766233 47.98701298701298,49.67532467532467" fill="none" stroke="black" stroke-width="0.6"></polyline><polyline points="47.98701298701298,49.67532467532467 52.33766233766233,47.33766233766233 55.58441558441558,45.649350649350644 57.33766233766233,44.870129870129865 57.79220779220778,44.74025974025974 57.2077922077922,44.99999999999999 54.15584415584415,46.88311688311688 50.19480519480519,49.15584415584415 46.298701298701296,51.1038961038961 42.59740259740259,52.92207792207792 39.99999999999999,54.15584415584415 39.15584415584415,54.6103896103896 40.064935064935064,54.54545454545454 41.49350649350649,53.831168831168824 45.32467532467532,51.62337662337662 49.480519480519476,49.35064935064935 53.11688311688311,47.467532467532465 55.90909090909091,46.16883116883116 56.94805194805194,45.77922077922077 56.49350649350649,45.84415584415584 55.19480519480519,46.55844155844155 51.49350649350649,48.7012987012987 47.59740259740259,50.97402597402597 43.896103896103895,52.857142857142854 41.038961038961034,54.28571428571428 39.8051948051948,54.870129870129865 39.54545454545454,54.99999999999999 41.49350649350649,54.41558441558441 45.45454545454545,52.14285714285714 49.870129870129865,49.480519480519476 53.76623376623376,47.4025974025974 56.42857142857142,46.1038961038961 57.272727272727266,45.71428571428571 56.55844155844155,45.90909090909091 54.99999999999999,46.75324675324675 51.55844155844155,48.831168831168824 47.2077922077922,51.23376623376623 43.441558441558435,52.98701298701298 40.58441558441558,54.220779220779214 39.480519480519476,54.74025974025974 40.19480519480519,54.74025974025974 41.688311688311686,53.89610389610389 45.84415584415584,51.49350649350649 50.51948051948052,48.96103896103896 54.6103896103896,46.88311688311688 57.14285714285714,45.71428571428571 58.051948051948045,45.38961038961038 57.98701298701298,45.38961038961038 55.259740259740255,46.81818181818181 51.16883116883116,49.220779220779214 46.81818181818181,51.55844155844155" fill="none" stroke="black" stroke-width="0.6"></polyline><polyline points="46.81818181818181,51.55844155844155 42.857142857142854,53.37662337662337 39.93506493506493,54.6103896103896 38.896103896103895,54.99999999999999 39.8051948051948,54.8051948051948 41.36363636363636,53.89610389610389 45.77922077922077,51.298701298701296 50.51948051948052,48.76623376623376 54.35064935064935,46.81818181818181 56.88311688311688,45.649350649350644 57.662337662337656,45.38961038961038 54.99999999999999,46.688311688311686 51.1038961038961,49.090909090909086 46.81818181818181,51.298701298701296 42.98701298701298,53.18181818181818 40.19480519480519,54.41558441558441 39.285714285714285,54.8051948051948 40.12987012987013,54.8051948051948 41.688311688311686,54.02597402597402 45.32467532467532,51.88311688311688 49.67532467532467,49.41558441558441 53.051948051948045,47.662337662337656 55.32467532467532,46.55844155844155 56.36363636363636,46.23376623376623 55.97402597402597,46.23376623376623 54.8051948051948,46.75324675324675 51.36363636363636,48.76623376623376 47.467532467532465,50.97402597402597 43.896103896103895,52.857142857142854 40.90909090909091,54.28571428571428 39.6103896103896,54.93506493506493 39.41558441558441,55.06493506493506 41.16883116883116,54.67532467532467 45.064935064935064,52.53246753246753 49.54545454545454,49.93506493506493 53.831168831168824,47.53246753246753 56.623376623376615,46.1038961038961 57.92207792207792,45.51948051948052 57.98701298701298,45.45454545454545 56.88311688311688,45.84415584415584 53.7012987012987,47.857142857142854 49.28571428571428,50.45454545454545 44.8051948051948,52.857142857142854 41.36363636363636,54.6103896103896 39.675324675324674,55.454545454545446 39.35064935064935,55.649350649350644 40.77922077922077,55.259740259740255 44.74025974025974,52.98701298701298 49.220779220779214,50.38961038961038 53.31168831168831,48.18181818181818 56.298701298701296,46.688311688311686" fill="none" stroke="black" stroke-width="0.6"></polyline><polyline points="56.298701298701296,46.688311688311686 57.79220779220778,45.97402597402597 58.11688311688311,45.84415584415584 57.402597402597394,45.90909090909091 54.35064935064935,47.53246753246753 50.19480519480519,49.93506493506493 45.84415584415584,52.14285714285714 42.33766233766234,53.76623376623376 40.19480519480519,54.67532467532467 39.675324675324674,54.870129870129865 40.51948051948052,54.8051948051948 44.15584415584415,52.857142857142854 48.5064935064935,50.259740259740255 52.72727272727272,47.79220779220779 55.90909090909091,46.16883116883116 57.272727272727266,45.45454545454545 57.53246753246753,45.32467532467532 56.81818181818181,45.45454545454545 53.63636363636363,47.272727272727266 49.28571428571428,49.8051948051948 44.8051948051948,51.94805194805194 41.16883116883116,53.7012987012987 39.15584415584415,54.6103896103896 38.57142857142857,54.870129870129865 39.090909090909086,54.870129870129865 42.14285714285714,53.37662337662337 46.55844155844155,50.84415584415584 50.84415584415584,48.63636363636363 54.6103896103896,46.55844155844155 56.688311688311686,45.45454545454545 57.402597402597394,45.064935064935064 57.33766233766233,45.064935064935064 54.6103896103896,46.23376623376623 50.90909090909091,48.31168831168831 46.42857142857142,50.84415584415584 42.53246753246753,52.857142857142854 39.6103896103896,54.35064935064935 38.506493506493506,54.870129870129865 38.896103896103895,54.99999999999999 40.45454545454545,54.220779220779214 44.54545454545454,51.81818181818181 49.090909090909086,49.090909090909086 52.98701298701298,46.88311688311688 55.71428571428571,45.51948051948052 56.75324675324675,45.064935064935064 56.42857142857142,45.12987012987013 54.93506493506493,45.90909090909091 51.62337662337662,48.11688311688311 47.272727272727266,50.71428571428571 43.116883116883116,52.857142857142854 40.12987012987013,54.15584415584415" fill="none" stroke="black" stroke-width="0.6"></polyline><polyline points="40.12987012987013,54.15584415584415 38.831168831168824,54.74025974025974 38.57142857142857,54.93506493506493 39.93506493506493,54.41558441558441 44.02597402597402,51.94805194805194 48.57142857142857,49.35064935064935 52.53246753246753,47.077922077922075 55.51948051948052,45.649350649350644 56.75324675324675,44.99999999999999 56.42857142857142,44.99999999999999 54.93506493506493,45.84415584415584 51.1038961038961,48.18181818181818 46.81818181818181,50.71428571428571 42.467532467532465,52.98701298701298 39.480519480519476,54.41558441558441 38.051948051948045,55.06493506493506 38.37662337662337,55.19480519480519 39.8051948051948,54.41558441558441 43.96103896103896,51.88311688311688 48.57142857142857,49.220779220779214 52.79220779220779,46.88311688311688 55.51948051948052,45.649350649350644 56.75324675324675,45.12987012987013 56.75324675324675,45.064935064935064 55.38961038961038,45.77922077922077 51.94805194805194,47.92207792207792 48.246753246753244,50.064935064935064 44.02597402597402,52.2077922077922 41.038961038961034,53.76623376623376 39.480519480519476,54.480519480519476 39.220779220779214,54.67532467532467 40.19480519480519,54.41558441558441 43.441558441558435,52.4025974025974 47.98701298701298,49.67532467532467 52.33766233766233,47.2077922077922 55.32467532467532,45.71428571428571 56.88311688311688,44.99999999999999 57.272727272727266,44.99999999999999 56.1038961038961,45.649350649350644 52.72727272727272,47.79220779220779 48.37662337662337,50.45454545454545 44.02597402597402,52.857142857142854 40.58441558441558,54.67532467532467 38.896103896103895,55.58441558441558 38.57142857142857,55.77922077922077 39.8051948051948,55.38961038961038 43.831168831168824,52.92207792207792 48.441558441558435,50.12987012987013 52.79220779220779,47.59740259740259 55.844155844155836,46.038961038961034 57.33766233766233,45.32467532467532" fill="none" stroke="black" stroke-width="0.6"></polyline><polyline points="57.33766233766233,45.32467532467532 57.72727272727272,45.259740259740255 56.688311688311686,45.649350649350644 53.5064935064935,47.662337662337656 49.28571428571428,50.12987012987013 44.870129870129865,52.33766233766233 41.298701298701296,54.02597402597402 39.35064935064935,54.870129870129865 38.831168831168824,55.06493506493506 39.675324675324674,54.8051948051948 43.506493506493506,52.53246753246753 48.18181818181818,49.67532467532467 52.72727272727272,47.2077922077922 55.97402597402597,45.649350649350644 57.59740259740259,44.99999999999999 57.92207792207792,44.870129870129865 57.077922077922075,45.259740259740255 53.89610389610389,47.2077922077922 49.6103896103896,49.74025974025974 45.45454545454545,51.94805194805194 42.272727272727266,53.441558441558435 40.064935064935064,54.480519480519476 39.480519480519476,54.8051948051948 39.870129870129865,54.8051948051948 42.92207792207792,53.051948051948045 47.272727272727266,50.38961038961038 51.688311688311686,47.98701298701298 55.19480519480519,46.038961038961034 57.077922077922075,45.064935064935064 57.59740259740259,44.870129870129865 57.14285714285714,44.99999999999999 54.090909090909086,46.88311688311688 50.19480519480519,49.220779220779214 45.77922077922077,51.62337662337662 42.33766233766234,53.441558441558435 40.12987012987013,54.41558441558441 39.480519480519476,54.74025974025974 39.99999999999999,54.74025974025974 42.98701298701298,52.98701298701298 47.4025974025974,50.259740259740255 51.81818181818181,47.79220779220779 55.259740259740255,45.97402597402597 57.14285714285714,45.064935064935064 57.72727272727272,44.870129870129865 57.2077922077922,44.99999999999999 54.15584415584415,46.88311688311688 50.19480519480519,49.220779220779214 45.58441558441558,51.75324675324675 41.75324675324675,53.76623376623376 39.285714285714285,54.99999999999999 38.506493506493506,55.32467532467532" fill="none" stroke="black" stroke-width="0.6"></polyline><polyline points="38.506493506493506,55.32467532467532 38.7012987012987,55.38961038961038 41.62337662337662,53.831168831168824 46.1038961038961,50.97402597402597 50.97402597402597,48.37662337662337 54.93506493506493,46.23376623376623 57.33766233766233,44.99999999999999 58.441558441558435,44.6103896103896 57.402597402597394,44.99999999999999 55.90909090909091,45.90909090909091 51.94805194805194,48.246753246753244 47.662337662337656,50.71428571428571 43.441558441558435,52.857142857142854 40.51948051948052,54.220779220779214 39.15584415584415,54.93506493506493 38.96103896103896,55.06493506493506 40.71428571428571,54.480519480519476 44.74025974025974,52.2077922077922 49.28571428571428,49.480519480519476 53.89610389610389,47.14285714285714 56.88311688311688,45.58441558441558 58.5064935064935,44.99999999999999 58.5064935064935,44.93506493506493 57.402597402597394,45.51948051948052 53.96103896103896,47.53246753246753 49.74025974025974,49.8051948051948 44.99999999999999,52.2077922077922 41.36363636363636,54.02597402597402 39.35064935064935,54.99999999999999 38.76623376623376,55.32467532467532 39.285714285714285,55.32467532467532 42.467532467532465,53.5064935064935 47.077922077922075,50.71428571428571 51.75324675324675,48.246753246753244 55.32467532467532,46.298701298701296 57.467532467532465,45.259740259740255 58.37662337662337,44.93506493506493 58.31168831168831,44.93506493506493 55.71428571428571,46.038961038961034 51.81818181818181,48.37662337662337 47.662337662337656,50.71428571428571 43.57142857142857,52.857142857142854 40.84415584415584,54.35064935064935 39.675324675324674,54.93506493506493 39.480519480519476,54.99999999999999 41.55844155844156,54.220779220779214 45.45454545454545,51.75324675324675 49.93506493506493,49.090909090909086 54.35064935064935,46.688311688311686 57.14285714285714,45.19480519480519 58.7012987012987,44.6103896103896" fill="none" stroke="black" stroke-width="0.6"></polyline><polyline points="58.7012987012987,44.6103896103896 58.441558441558435,44.675324675324674 57.2077922077922,45.32467532467532 53.76623376623376,47.53246753246753 49.6103896103896,49.870129870129865 44.99999999999999,52.272727272727266 41.62337662337662,53.96103896103896 39.8051948051948,54.870129870129865 39.285714285714285,55.12987012987013 39.8051948051948,55.12987012987013 42.857142857142854,53.441558441558435 47.33766233766233,50.649350649350644 51.94805194805194,48.051948051948045 55.71428571428571,45.97402597402597 57.92207792207792,44.870129870129865 58.831168831168824,44.54545454545454 58.76623376623376,44.54545454545454 56.1038961038961,45.649350649350644 52.14285714285714,47.857142857142854 47.92207792207792,50.32467532467532 43.76623376623376,52.59740259740259 40.58441558441558,54.35064935064935 39.090909090909086,55.259740259740255 38.76623376623376,55.454545454545446 39.480519480519476,55.38961038961038 42.72727272727273,53.63636363636363 47.4025974025974,50.97402597402597 52.077922077922075,48.441558441558435 55.90909090909091,46.55844155844155 58.37662337662337,45.32467532467532 59.28571428571428,45.064935064935064 59.15584415584415,45.064935064935064 56.36363636363636,46.36363636363636 52.33766233766233,48.76623376623376 47.857142857142854,51.16883116883116 43.57142857142857,53.31168831168831 40.71428571428571,54.74025974025974 39.35064935064935,55.32467532467532 39.480519480519476,55.454545454545446 40.90909090909091,54.74025974025974 44.93506493506493,52.272727272727266 49.6103896103896,49.41558441558441 54.02597402597402,47.01298701298701 57.33766233766233,45.32467532467532 59.090909090909086,44.675324675324674 59.220779220779214,44.6103896103896 58.11688311688311,45.064935064935064 54.54545454545454,47.2077922077922 50.38961038961038,49.6103896103896 45.97402597402597,51.88311688311688 42.14285714285714,53.76623376623376" fill="none" stroke="black" stroke-width="0.6"></polyline><polyline points="42.14285714285714,53.76623376623376 39.6103896103896,54.99999999999999 38.831168831168824,55.32467532467532 38.831168831168824,55.38961038961038 41.75324675324675,53.96103896103896 45.90909090909091,51.49350649350649 50.12987012987013,49.15584415584415 53.63636363636363,47.467532467532465 55.844155844155836,46.55844155844155 56.55844155844155,46.23376623376623 54.02597402597402,47.2077922077922 50.58441558441558,49.090909090909086 46.75324675324675,51.038961038961034 43.051948051948045,52.79220779220779 40.77922077922077,53.76623376623376 39.8051948051948,54.15584415584415 40.71428571428571,54.220779220779214 41.88311688311688,53.7012987012987 45.51948051948052,51.55844155844155 49.28571428571428,49.6103896103896 52.98701298701298,47.79220779220779 55.51948051948052,46.55844155844155 56.55844155844155,46.038961038961034 56.49350649350649,45.97402597402597 55.259740259740255,46.36363636363636 52.2077922077922,48.11688311688311 48.441558441558435,50.12987012987013 44.35064935064935,52.272727272727266 41.1038961038961,53.89610389610389 39.15584415584415,54.870129870129865 38.506493506493506,55.19480519480519 38.57142857142857,55.259740259740255 41.23376623376623,54.02597402597402 45.259740259740255,51.688311688311686 49.480519480519476,49.220779220779214 53.18181818181818,47.2077922077922 55.90909090909091,45.84415584415584 57.077922077922075,45.32467532467532 56.88311688311688,45.32467532467532 55.71428571428571,45.77922077922077 52.4025974025974,47.79220779220779 48.11688311688311,50.32467532467532 43.896103896103895,52.53246753246753 40.58441558441558,54.15584415584415 38.76623376623376,55.06493506493506 38.18181818181818,55.32467532467532 38.831168831168824,55.32467532467532 42.01298701298701,53.441558441558435 46.298701298701296,50.71428571428571 50.259740259740255,48.57142857142857 53.441558441558435,46.88311688311688" fill="none" stroke="black" stroke-width="0.6"></polyline><polyline points="53.441558441558435,46.88311688311688 55.32467532467532,46.038961038961034 55.97402597402597,45.84415584415584 55.649350649350644,45.84415584415584 53.18181818181818,47.14285714285714 49.870129870129865,49.090909090909086 46.1038961038961,51.16883116883116 43.051948051948045,52.662337662337656 41.1038961038961,53.57142857142857 40.58441558441558,53.831168831168824 41.038961038961034,53.831168831168824 43.896103896103895,52.53246753246753 47.92207792207792,50.259740259740255 52.01298701298701,48.11688311688311 55.38961038961038,46.23376623376623 57.467532467532465,45.19480519480519 58.31168831168831,44.8051948051948 57.33766233766233,44.99999999999999 55.97402597402597,45.71428571428571 52.14285714285714,47.92207792207792 48.051948051948045,50.12987012987013 43.896103896103895,52.272727272727266 40.71428571428571,53.89610389610389 39.15584415584415,54.74025974025974 38.831168831168824,54.93506493506493 39.870129870129865,54.74025974025974 43.246753246753244,52.79220779220779 47.79220779220779,50.12987012987013 52.14285714285714,47.79220779220779 55.58441558441558,46.038961038961034 57.467532467532465,45.19480519480519 58.11688311688311,44.93506493506493 57.662337662337656,44.99999999999999 54.67532467532467,46.55844155844155 50.84415584415584,48.831168831168824 46.298701298701296,51.23376623376623 42.467532467532465,53.31168831168831 39.8051948051948,54.6103896103896 38.96103896103896,54.99999999999999 39.02597402597402,55.06493506493506 41.88311688311688,53.441558441558435 46.038961038961034,50.649350649350644 50.259740259740255,48.246753246753244 53.57142857142857,46.42857142857142 55.51948051948052,45.58441558441558 56.16883116883116,45.32467532467532 55.77922077922077,45.38961038961038 53.051948051948045,47.01298701298701 49.15584415584415,49.41558441558441 45.064935064935064,51.55844155844155 41.1038961038961,53.57142857142857" fill="none" stroke="black" stroke-width="0.6"></polyline><polyline points="41.1038961038961,53.57142857142857 38.506493506493506,54.870129870129865 37.467532467532465,55.32467532467532 38.051948051948045,55.259740259740255 39.480519480519476,54.28571428571428 43.18181818181818,51.88311688311688 47.72727272727272,49.220779220779214 51.36363636363636,47.272727272727266 53.57142857142857,46.1038961038961 54.67532467532467,45.649350649350644 54.35064935064935,45.649350649350644 53.31168831168831,46.16883116883116 50.12987012987013,48.18181818181818 46.36363636363636,50.51948051948052 42.467532467532465,52.72727272727272 39.54545454545454,54.41558441558441 38.18181818181818,55.12987012987013 37.92207792207792,55.32467532467532 39.35064935064935,54.870129870129865 42.857142857142854,52.79220779220779 47.59740259740259,49.99999999999999 51.94805194805194,47.662337662337656 55.259740259740255,45.90909090909091 57.14285714285714,44.93506493506493 57.72727272727272,44.675324675324674 57.33766233766233,44.675324675324674 54.35064935064935,46.42857142857142 50.38961038961038,48.831168831168824 46.42857142857142,50.97402597402597 42.53246753246753,52.857142857142854 39.99999999999999,53.89610389610389 39.090909090909086,54.28571428571428 40.12987012987013,53.831168831168824 41.75324675324675,52.857142857142854 45.649350649350644,50.38961038961038 50.12987012987013,47.857142857142854 53.5064935064935,46.16883116883116 55.649350649350644,45.32467532467532 56.42857142857142,45.064935064935064 56.233766233766225,45.12987012987013 53.5064935064935,46.88311688311688 49.870129870129865,49.090909090909086 45.38961038961038,51.55844155844155 41.55844155844156,53.441558441558435 38.831168831168824,54.8051948051948 37.857142857142854,55.259740259740255 38.506493506493506,54.99999999999999 40.12987012987013,54.090909090909086 43.96103896103896,51.75324675324675 48.441558441558435,49.220779220779214 51.94805194805194,47.4025974025974" fill="none" stroke="black" stroke-width="0.6"></polyline><polyline points="51.94805194805194,47.4025974025974 54.15584415584415,46.23376623376623 55.38961038961038,45.77922077922077 54.93506493506493,45.77922077922077 53.76623376623376,46.42857142857142 50.38961038961038,48.57142857142857 46.16883116883116,50.97402597402597 42.33766233766234,53.051948051948045 39.220779220779214,54.67532467532467 37.662337662337656,55.454545454545446 37.33766233766234,55.649350649350644 38.441558441558435,55.38961038961038 41.88311688311688,53.246753246753244 46.038961038961034,50.649350649350644 50.19480519480519,48.18181818181818 53.246753246753244,46.55844155844155 55.19480519480519,45.77922077922077 55.649350649350644,45.649350649350644 55.06493506493506,45.649350649350644 52.272727272727266,47.33766233766233 48.31168831168831,49.67532467532467 44.220779220779214,51.94805194805194 40.71428571428571,53.76623376623376 38.57142857142857,54.870129870129865 37.72727272727273,55.259740259740255 37.857142857142854,55.259740259740255 40.51948051948052,53.76623376623376 44.6103896103896,51.16883116883116 48.831168831168824,48.7012987012987 52.14285714285714,46.88311688311688 54.02597402597402,45.97402597402597 54.8051948051948,45.71428571428571 54.74025974025974,45.71428571428571 52.53246753246753,46.94805194805194 49.090909090909086,49.15584415584415 44.99999999999999,51.42857142857142 41.688311688311686,53.246753246753244 39.220779220779214,54.480519480519476 38.246753246753244,54.99999999999999 38.76623376623376,54.99999999999999 40.12987012987013,54.15584415584415 43.896103896103895,51.88311688311688 47.72727272727272,49.54545454545454 51.55844155844155,47.467532467532465 54.15584415584415,46.16883116883116 55.454545454545446,45.649350649350644 55.38961038961038,45.58441558441558 54.28571428571428,45.97402597402597 51.1038961038961,47.857142857142854 47.14285714285714,50.32467532467532 43.57142857142857,52.272727272727266" fill="none" stroke="black" stroke-width="0.6"></polyline><polyline points="43.57142857142857,52.272727272727266 40.45454545454545,53.89610389610389 38.831168831168824,54.8051948051948 38.441558441558435,54.99999999999999 39.02597402597402,54.99999999999999 42.272727272727266,53.11688311688311 46.62337662337662,50.32467532467532 50.649350649350644,48.051948051948045 53.76623376623376,46.298701298701296 55.844155844155836,45.45454545454545 56.298701298701296,45.259740259740255 55.97402597402597,45.259740259740255 53.7012987012987,46.42857142857142 50.19480519480519,48.5064935064935 46.55844155844155,50.649350649350644 43.441558441558435,52.33766233766233 41.23376623376623,53.37662337662337 40.38961038961038,53.76623376623376 41.038961038961034,53.7012987012987 42.2077922077922,52.98701298701298 45.77922077922077,50.649350649350644 49.67532467532467,48.37662337662337 53.76623376623376,46.1038961038961 56.688311688311686,44.675324675324674 58.11688311688311,44.090909090909086 58.18181818181817,44.02597402597402 57.14285714285714,44.54545454545454 53.831168831168824,46.49350649350649 49.6103896103896,49.02597402597402 45.12987012987013,51.36363636363636 41.36363636363636,53.31168831168831 38.831168831168824,54.6103896103896 37.92207792207792,54.99999999999999 38.96103896103896,54.67532467532467 40.58441558441558,53.76623376623376 44.74025974025974,51.23376623376623 49.02597402597402,48.76623376623376 52.72727272727272,46.81818181818181 55.58441558441558,45.45454545454545 56.688311688311686,44.99999999999999 56.55844155844155,44.99999999999999 55.259740259740255,45.51948051948052 51.688311688311686,47.72727272727272 47.662337662337656,50.064935064935064 43.63636363636363,52.2077922077922 39.93506493506493,54.090909090909086 37.92207792207792,55.06493506493506 37.33766233766234,55.32467532467532 38.051948051948045,55.19480519480519 41.298701298701296,53.18181818181818 45.32467532467532,50.71428571428571" fill="none" stroke="black" stroke-width="0.6"></polyline><polyline points="45.32467532467532,50.71428571428571 49.41558441558441,48.37662337662337 52.72727272727272,46.75324675324675 54.6103896103896,45.90909090909091 55.259740259740255,45.77922077922077 54.93506493506493,45.84415584415584 52.33766233766233,47.33766233766233 48.57142857142857,49.67532467532467 44.41558441558441,51.88311688311688 40.90909090909091,53.76623376623376 38.831168831168824,54.8051948051948 38.116883116883116,55.12987012987013 38.246753246753244,55.19480519480519 41.038961038961034,53.831168831168824 45.12987012987013,51.36363636363636 48.89610389610389,49.15584415584415 52.33766233766233,47.33766233766233 54.220779220779214,46.49350649350649 54.93506493506493,46.23376623376623 52.98701298701298,47.01298701298701 49.6103896103896,49.02597402597402 45.77922077922077,51.1038961038961 42.2077922077922,52.98701298701298 39.675324675324674,54.15584415584415 38.831168831168824,54.67532467532467 39.35064935064935,54.74025974025974 40.84415584415584,54.02597402597402 44.74025974025974,51.88311688311688 48.831168831168824,49.54545454545454 52.467532467532465,47.662337662337656 55.19480519480519,46.42857142857142 56.42857142857142,45.90909090909091 56.36363636363636,45.90909090909091 55.12987012987013,46.298701298701296 51.88311688311688,48.11688311688311 47.72727272727272,50.45454545454545 43.63636363636363,52.53246753246753 40.58441558441558,53.96103896103896 38.831168831168824,54.8051948051948 38.37662337662337,55.06493506493506 38.896103896103895,55.06493506493506 42.01298701298701,53.37662337662337 46.36363636363636,50.84415584415584 50.38961038961038,48.63636363636363 53.96103896103896,46.88311688311688 56.038961038961034,46.038961038961034 56.688311688311686,45.84415584415584 55.649350649350644,46.038961038961034 54.28571428571428,46.81818181818181 50.97402597402597,48.7012987012987 46.94805194805194,50.84415584415584" fill="none" stroke="black" stroke-width="0.6"></polyline><polyline points="46.94805194805194,50.84415584415584 43.506493506493506,52.53246753246753 40.71428571428571,53.89610389610389 39.285714285714285,54.67532467532467 38.896103896103895,54.870129870129865 39.41558441558441,54.870129870129865 42.14285714285714,53.246753246753244 45.77922077922077,51.038961038961034 49.870129870129865,48.76623376623376 53.441558441558435,46.88311688311688 55.649350649350644,45.90909090909091 56.55844155844155,45.58441558441558 56.1038961038961,45.649350649350644 54.870129870129865,46.23376623376623 51.62337662337662,48.11688311688311 47.662337662337656,50.51948051948052 44.090909090909086,52.4025974025974 40.77922077922077,54.15584415584415 39.090909090909086,55.06493506493506 38.506493506493506,55.32467532467532 38.7012987012987,55.38961038961038 41.42857142857142,53.89610389610389 45.51948051948052,51.298701298701296 49.870129870129865,48.76623376623376 53.5064935064935,46.88311688311688 55.90909090909091,45.71428571428571 56.688311688311686,45.45454545454545 55.58441558441558,45.90909090909091 54.220779220779214,46.81818181818181 50.51948051948052,49.15584415584415 46.42857142857142,51.49350649350649 42.59740259740259,53.441558441558435 39.74025974025974,54.74025974025974 38.76623376623376,55.12987012987013 39.675324675324674,54.67532467532467 41.36363636363636,53.63636363636363 45.58441558441558,50.90909090909091 49.28571428571428,48.7012987012987 52.01298701298701,47.33766233766233 53.11688311688311,46.88311688311688 53.18181818181818,46.94805194805194 52.077922077922075,47.72727272727272 49.090909090909086,49.8051948051948 45.064935064935064,52.2077922077922 41.55844155844156,53.89610389610389 39.220779220779214,54.93506493506493 38.37662337662337,55.32467532467532 39.15584415584415,54.93506493506493 43.37662337662337,52.4025974025974" fill="none" stroke="black" stroke-width="0.6"></polyline></svg>