<svg height="100" width="100" preserveAspectRatio="xMidYMid meet"><polyline points="53.18181818181818,43.37662337662337 52.467532467532465,43.96103896103896 52.467532467532465,44.285714285714285 52.01298701298701,45.32467532467532 51.23376623376623,46.94805194805194 49.74025974025974,48.89610389610389 48.051948051948045,50.90909090909091 45.71428571428571,53.246753246753244 43.506493506493506,55.58441558441558 41.36363636363636,57.79220779220778 39.675324675324674,59.6103896103896 38.896103896103895,60.38961038961038 39.285714285714285,60.58441558441558 40.19480519480519,59.74025974025974 43.116883116883116,56.81818181818181 46.49350649350649,53.11688311688311 50.12987012987013,49.28571428571428 53.441558441558435,46.1038961038961 55.259740259740255,44.285714285714285 56.038961038961034,43.441558441558435 56.1038961038961,43.37662337662337 52.4025974025974,47.4025974025974 48.831168831168824,51.16883116883116 45.064935064935064,54.93506493506493 41.62337662337662,58.37662337662337 39.35064935064935,60.38961038961038 38.441558441558435,61.233766233766225 39.02597402597402,60.51948051948052 40.12987012987013,59.15584415584415 43.506493506493506,55.19480519480519 47.92207792207792,50.12987012987013 52.72727272727272,45.58441558441558 56.688311688311686,41.94805194805195 58.5064935064935,40.45454545454545 58.96103896103896,40.12987012987013 57.92207792207792,41.1038961038961 54.35064935064935,44.6103896103896 49.74025974025974,49.6103896103896 44.220779220779214,55.259740259740255 39.6103896103896,59.54545454545454 36.55844155844156,62.2077922077922 35.32467532467532,63.11688311688311 35.45454545454545,62.72727272727272 37.857142857142854,59.67532467532467 42.01298701298701,55.19480519480519 47.272727272727266,50.19480519480519 52.33766233766233,45.97402597402597 56.623376623376615,42.79220779220779 58.76623376623376,41.49350649350649 59.41558441558441,41.23376623376623 58.246753246753244,42.53246753246753" fill="none" stroke="black" stroke-width="0.6"></polyline><polyline points="58.246753246753244,42.53246753246753 54.67532467532467,46.038961038961034 50.259740259740255,50.19480519480519 45.77922077922077,54.090909090909086 42.272727272727266,57.077922077922075 40.12987012987013,58.7012987012987 39.090909090909086,59.35064935064935 39.15584415584415,59.35064935064935 40.064935064935064,58.5064935064935 42.33766233766234,56.233766233766225 45.77922077922077,52.857142857142854 49.67532467532467,49.220779220779214 53.831168831168824,45.90909090909091 56.55844155844155,43.96103896103896 57.857142857142854,43.31168831168831 56.94805194805194,43.76623376623376 55.77922077922077,44.74025974025974 52.14285714285714,47.98701298701298 47.98701298701298,51.62337662337662 43.896103896103895,55.38961038961038 40.71428571428571,58.5064935064935 38.831168831168824,60.259740259740255 38.18181818181818,60.90909090909091 38.831168831168824,60.58441558441558 41.688311688311686,57.467532467532465 45.90909090909091,52.92207792207792 51.49350649350649,47.53246753246753 57.402597402597394,43.051948051948045 60.90909090909091,40.51948051948052 62.53246753246753,39.6103896103896 62.2077922077922,40.259740259740255 60.649350649350644,41.49350649350649 56.36363636363636,45.38961038961038 51.81818181818181,49.870129870129865 47.01298701298701,53.76623376623376 42.92207792207792,56.81818181818181 40.45454545454545,58.57142857142857 39.02597402597402,59.41558441558441 38.63636363636363,59.54545454545454 39.15584415584415,59.15584415584415 41.62337662337662,56.94805194805194 45.51948051948052,53.37662337662337 50.19480519480519,49.15584415584415 55.12987012987013,45.259740259740255 58.76623376623376,42.467532467532465 60.51948051948052,41.23376623376623 60.259740259740255,41.038961038961034 59.15584415584415,41.62337662337662 55.71428571428571,44.02597402597402 51.55844155844155,47.53246753246753 47.33766233766233,51.038961038961034" fill="none" stroke="black" stroke-width="0.6"></polyline><polyline points="47.33766233766233,51.038961038961034 43.57142857142857,54.090909090909086 40.649350649350644,56.81818181818181 38.896103896103895,58.37662337662337 38.18181818181818,59.090909090909086 38.896103896103895,59.220779220779214 39.93506493506493,58.5064935064935 42.662337662337656,56.038961038961034 46.42857142857142,52.467532467532465 50.51948051948052,48.63636363636363 54.74025974025974,45.259740259740255 57.857142857142854,42.98701298701298 59.28571428571428,41.81818181818181 59.54545454545454,41.62337662337662 58.57142857142857,42.14285714285714 55.19480519480519,44.870129870129865 51.298701298701296,48.5064935064935 46.88311688311688,52.4025974025974 42.662337662337656,56.233766233766225 39.675324675324674,59.220779220779214 37.857142857142854,60.90909090909091 37.272727272727266,61.55844155844155 37.662337662337656,61.36363636363636 40.71428571428571,58.31168831168831 44.8051948051948,54.090909090909086 50.19480519480519,49.15584415584415 55.12987012987013,45.12987012987013 58.89610389610389,42.2077922077922 60.90909090909091,40.90909090909091 61.298701298701296,40.649350649350644 60.12987012987013,41.16883116883116 56.81818181818181,43.76623376623376 52.79220779220779,47.33766233766233 48.441558441558435,50.97402597402597 44.090909090909086,54.41558441558441 40.649350649350644,57.2077922077922 38.116883116883116,59.15584415584415 37.14285714285714,59.99999999999999 37.077922077922075,60.19480519480519 38.051948051948045,59.54545454545454 40.90909090909091,57.077922077922075 45.19480519480519,53.31168831168831 49.99999999999999,49.28571428571428 54.67532467532467,45.71428571428571 58.246753246753244,43.051948051948045 59.99999999999999,41.81818181818181 59.93506493506493,41.62337662337662 58.89610389610389,42.2077922077922 55.58441558441558,44.74025974025974 51.36363636363636,48.57142857142857 47.01298701298701,52.662337662337656" fill="none" stroke="black" stroke-width="0.6"></polyline><polyline points="47.01298701298701,52.662337662337656 42.857142857142854,56.55844155844155 39.99999999999999,59.220779220779214 38.31168831168831,60.649350649350644 37.92207792207792,60.97402597402597 38.7012987012987,60.58441558441558 41.36363636363636,57.92207792207792 45.51948051948052,53.76623376623376 50.71428571428571,49.02597402597402 55.58441558441558,45.259740259740255 59.41558441558441,42.467532467532465 61.42857142857142,41.23376623376623 61.36363636363636,41.1038961038961 59.870129870129865,42.077922077922075 56.038961038961034,45.12987012987013 51.81818181818181,49.15584415584415 47.077922077922075,53.11688311688311 42.98701298701298,56.42857142857142 40.38961038961038,58.441558441558435 38.831168831168824,59.54545454545454 38.441558441558435,59.74025974025974 39.15584415584415,59.35064935064935 41.55844155844156,57.14285714285714 45.32467532467532,53.57142857142857 49.870129870129865,49.6103896103896 54.6103896103896,45.84415584415584 58.441558441558435,42.92207792207792 61.038961038961034,41.16883116883116 61.81818181818181,40.71428571428571 61.49350649350649,40.71428571428571 58.63636363636363,42.59740259740259 54.67532467532467,46.038961038961034 50.259740259740255,50.064935064935064 45.71428571428571,54.35064935064935 41.81818181818181,57.92207792207792 39.54545454545454,60.12987012987013 38.506493506493506,61.038961038961034 39.15584415584415,60.649350649350644 40.38961038961038,59.54545454545454 43.896103896103895,55.844155844155836 48.441558441558435,51.36363636363636 53.76623376623376,46.75324675324675 58.5064935064935,43.051948051948045 61.298701298701296,41.23376623376623 62.14285714285714,40.71428571428571 61.688311688311686,41.1038961038961 58.76623376623376,43.63636363636363 54.74025974025974,47.662337662337656 50.32467532467532,51.298701298701296 46.23376623376623,54.41558441558441 43.18181818181818,56.81818181818181" fill="none" stroke="black" stroke-width="0.6"></polyline><polyline points="43.18181818181818,56.81818181818181 41.23376623376623,58.31168831168831 40.32467532467532,58.96103896103896 40.38961038961038,59.02597402597402 41.16883116883116,58.37662337662337 43.96103896103896,55.97402597402597 47.98701298701298,52.272727272727266 52.467532467532465,48.37662337662337 57.012987012987004,44.870129870129865 60.06493506493506,42.4025974025974 61.49350649350649,41.42857142857142 60.58441558441558,41.62337662337662 59.15584415584415,42.59740259740259 55.38961038961038,45.77922077922077 51.23376623376623,49.480519480519476 46.75324675324675,53.246753246753244 42.79220779220779,56.81818181818181 40.19480519480519,59.28571428571428 38.506493506493506,60.77922077922077 38.051948051948045,61.1038961038961 38.831168831168824,60.51948051948052 41.75324675324675,57.33766233766233 46.36363636363636,52.79220779220779 51.49350649350649,48.051948051948045 56.81818181818181,44.090909090909086 60.454545454545446,41.49350649350649 62.012987012987004,40.58441558441558 61.1038961038961,41.298701298701296 59.41558441558441,42.59740259740259 55.259740259740255,46.298701298701296 50.84415584415584,50.259740259740255 46.298701298701296,53.89610389610389 42.857142857142854,56.688311688311686 40.649350649350644,58.5064935064935 39.675324675324674,59.220779220779214 39.93506493506493,59.28571428571428 40.77922077922077,58.5064935064935 43.896103896103895,55.77922077922077 47.79220779220779,52.14285714285714 52.53246753246753,48.051948051948045 57.402597402597394,44.285714285714285 60.649350649350644,41.81818181818181 61.88311688311688,40.90909090909091 61.038961038961034,41.36363636363636 59.54545454545454,42.467532467532465 55.71428571428571,45.77922077922077 51.62337662337662,49.67532467532467 47.272727272727266,53.441558441558435 43.76623376623376,56.36363636363636 41.298701298701296,58.37662337662337 40.12987012987013,59.35064935064935" fill="none" stroke="black" stroke-width="0.6"></polyline><polyline points="40.12987012987013,59.35064935064935 39.8051948051948,59.6103896103896 40.51948051948052,59.090909090909086 43.63636363636363,56.038961038961034 47.72727272727272,51.88311688311688 53.051948051948045,47.2077922077922 58.11688311688311,43.246753246753244 61.298701298701296,40.84415584415584 62.402597402597394,40.064935064935064 61.42857142857142,40.58441558441558 59.8051948051948,41.81818181818181 55.90909090909091,45.259740259740255 51.75324675324675,49.220779220779214 47.4025974025974,52.857142857142854 43.896103896103895,55.71428571428571 41.36363636363636,57.53246753246753 40.45454545454545,58.18181818181817 40.51948051948052,57.92207792207792 41.42857142857142,57.077922077922075 44.54545454545454,54.02597402597402 48.57142857142857,50.45454545454545 53.37662337662337,46.49350649350649 57.79220779220778,43.18181818181818 60.32467532467532,41.36363636363636 61.298701298701296,40.84415584415584 60.51948051948052,41.16883116883116 57.402597402597394,43.63636363636363 53.246753246753244,47.4025974025974 48.96103896103896,51.1038961038961 44.870129870129865,54.6103896103896 41.49350649350649,57.53246753246753 39.15584415584415,59.67532467532467 38.051948051948045,60.649350649350644 37.857142857142854,60.90909090909091 38.831168831168824,60.38961038961038 41.49350649350649,57.857142857142854 45.71428571428571,53.96103896103896 50.51948051948052,49.480519480519476 55.71428571428571,45.32467532467532 59.6103896103896,42.4025974025974 61.88311688311688,40.77922077922077 62.33766233766233,40.38961038961038 61.75324675324675,40.51948051948052 58.831168831168824,42.53246753246753 54.93506493506493,46.038961038961034 50.84415584415584,49.93506493506493 46.62337662337662,53.831168831168824 43.051948051948045,57.14285714285714 40.84415584415584,59.28571428571428 39.8051948051948,60.259740259740255 39.99999999999999,60.259740259740255" fill="none" stroke="black" stroke-width="0.6"></polyline><polyline points="39.99999999999999,60.259740259740255 40.84415584415584,59.28571428571428 44.15584415584415,55.77922077922077 48.5064935064935,51.23376623376623 54.090909090909086,46.23376623376623 58.441558441558435,42.72727272727273 61.233766233766225,40.71428571428571 62.077922077922075,40.12987012987013 61.81818181818181,40.19480519480519 58.831168831168824,42.4025974025974 54.67532467532467,46.1038961038961 50.32467532467532,49.93506493506493 45.90909090909091,53.7012987012987 42.33766233766234,56.55844155844155 39.93506493506493,58.5064935064935 38.57142857142857,59.480519480519476 38.31168831168831,59.67532467532467 39.02597402597402,59.28571428571428 41.49350649350649,56.94805194805194 45.649350649350644,53.11688311688311 50.649350649350644,48.76623376623376 55.454545454545446,45.259740259740255 59.41558441558441,42.272727272727266 61.88311688311688,40.51948051948052 62.467532467532465,40.064935064935064 62.077922077922075,40.12987012987013 59.090909090909086,42.14285714285714 54.93506493506493,45.45454545454545 50.51948051948052,49.35064935064935 45.97402597402597,53.31168831168831 42.01298701298701,56.81818181818181 39.480519480519476,59.02597402597402 37.98701298701298,60.454545454545446 37.72727272727273,60.77922077922077 38.441558441558435,60.259740259740255 41.42857142857142,57.14285714285714 45.649350649350644,52.857142857142854 50.97402597402597,47.98701298701298 55.71428571428571,44.15584415584415 58.96103896103896,41.55844155844156 60.51948051948052,40.58441558441558 60.06493506493506,40.649350649350644 59.090909090909086,41.49350649350649 55.58441558441558,44.285714285714285 51.75324675324675,47.857142857142854 47.662337662337656,51.55844155844155 44.090909090909086,54.6103896103896 41.1038961038961,57.14285714285714 39.220779220779214,58.831168831168824 38.18181818181818,59.8051948051948 37.98701298701298,59.99999999999999" fill="none" stroke="black" stroke-width="0.6"></polyline><polyline points="37.98701298701298,59.99999999999999 38.76623376623376,59.74025974025974 41.038961038961034,57.467532467532465 44.35064935064935,54.02597402597402 48.37662337662337,50.064935064935064 53.051948051948045,46.038961038961034 57.14285714285714,42.79220779220779 59.28571428571428,41.038961038961034 60.12987012987013,40.45454545454545 60.06493506493506,40.45454545454545 58.11688311688311,41.94805194805195 54.93506493506493,44.8051948051948 51.1038961038961,48.5064935064935 47.077922077922075,52.14285714285714 43.18181818181818,55.58441558441558 40.259740259740255,58.37662337662337 38.246753246753244,60.259740259740255 37.59740259740259,60.90909090909091 38.31168831168831,60.454545454545446 39.54545454545454,59.28571428571428 42.92207792207792,55.71428571428571 47.14285714285714,51.55844155844155 51.94805194805194,47.2077922077922 56.88311688311688,43.37662337662337 60.259740259740255,40.71428571428571 61.94805194805194,39.54545454545454 62.272727272727266,39.35064935064935 61.1038961038961,39.93506493506493 57.92207792207792,42.33766233766234 53.96103896103896,45.84415584415584 49.870129870129865,49.480519480519476 45.77922077922077,52.98701298701298 42.53246753246753,55.90909090909091 40.45454545454545,57.92207792207792 39.220779220779214,59.02597402597402 38.896103896103895,59.35064935064935 39.41558441558441,59.090909090909086 41.42857142857142,56.88311688311688 44.870129870129865,53.18181818181818 49.15584415584415,49.02597402597402 53.96103896103896,44.99999999999999 57.92207792207792,41.88311688311688 59.99999999999999,40.45454545454545 60.649350649350644,40.064935064935064 59.870129870129865,40.58441558441558 56.88311688311688,43.18181818181818 53.051948051948045,47.01298701298701 48.96103896103896,50.84415584415584 44.99999999999999,54.35064935064935 41.75324675324675,57.14285714285714 39.6103896103896,59.090909090909086" fill="none" stroke="black" stroke-width="0.6"></polyline><polyline points="39.6103896103896,59.090909090909086 38.506493506493506,59.99999999999999 38.506493506493506,60.19480519480519 39.6103896103896,59.35064935064935 42.33766233766234,56.49350649350649 46.42857142857142,52.33766233766233 50.84415584415584,48.051948051948045 55.51948051948052,44.285714285714285 58.76623376623376,41.75324675324675 60.71428571428571,40.45454545454545 61.233766233766225,40.19480519480519 60.32467532467532,40.51948051948052 57.53246753246753,42.59740259740259 53.831168831168824,45.90909090909091 49.67532467532467,49.74025974025974 45.51948051948052,53.37662337662337 42.01298701298701,56.42857142857142 39.870129870129865,58.441558441558435 38.506493506493506,59.67532467532467 38.18181818181818,60.12987012987013 38.63636363636363,60.12987012987013 41.1038961038961,57.857142857142854 45.12987012987013,53.89610389610389 50.19480519480519,49.15584415584415 54.99999999999999,45.064935064935064 58.89610389610389,41.81818181818181 61.1038961038961,40.259740259740255 61.623376623376615,39.93506493506493 60.06493506493506,40.71428571428571 56.75324675324675,43.37662337662337 52.857142857142854,47.14285714285714 48.76623376623376,51.1038961038961 44.8051948051948,54.74025974025974 41.688311688311686,57.467532467532465 40.064935064935064,59.02597402597402 39.480519480519476,59.480519480519476 39.8051948051948,59.41558441558441 42.14285714285714,57.077922077922075 45.97402597402597,53.18181818181818 50.77922077922077,48.7012987012987 55.259740259740255,45.19480519480519 58.76623376623376,42.467532467532465 60.844155844155836,41.038961038961034 61.42857142857142,40.649350649350644 60.58441558441558,40.84415584415584 57.402597402597394,43.18181818181818 53.37662337662337,46.81818181818181 48.89610389610389,50.71428571428571 44.6103896103896,54.35064935064935 41.16883116883116,57.272727272727266 38.7012987012987,59.35064935064935" fill="none" stroke="black" stroke-width="0.6"></polyline><polyline points="38.7012987012987,59.35064935064935 37.72727272727273,60.259740259740255 37.98701298701298,60.32467532467532 39.15584415584415,59.480519480519476 42.662337662337656,56.16883116883116 47.4025974025974,51.81818181818181 52.272727272727266,47.72727272727272 57.402597402597394,43.76623376623376 60.90909090909091,41.038961038961034 62.53246753246753,39.675324675324674 62.98701298701298,39.285714285714285 62.662337662337656,39.35064935064935 59.67532467532467,41.42857142857142 55.649350649350644,44.93506493506493 51.49350649350649,49.090909090909086 47.077922077922075,53.051948051948045 43.116883116883116,56.688311688311686 40.19480519480519,59.41558441558441 38.506493506493506,61.038961038961034 37.98701298701298,61.49350649350649 38.7012987012987,61.038961038961034 41.55844155844156,58.051948051948045 45.77922077922077,53.7012987012987 51.16883116883116,48.5064935064935 57.012987012987004,43.896103896103895 60.90909090909091,40.84415584415584 62.59740259740259,39.6103896103896 62.857142857142854,39.41558441558441 61.42857142857142,40.45454545454545 57.662337662337656,43.37662337662337 53.5064935064935,47.467532467532465 49.02597402597402,51.55844155844155 44.870129870129865,55.259740259740255 41.62337662337662,58.051948051948045 39.6103896103896,59.67532467532467 38.831168831168824,60.32467532467532 39.480519480519476,60.06493506493506 40.45454545454545,59.220779220779214 43.76623376623376,56.038961038961034 47.662337662337656,52.2077922077922 52.272727272727266,48.051948051948045 57.012987012987004,44.285714285714285 60.19480519480519,41.62337662337662 61.81818181818181,40.32467532467532 62.14285714285714,40.064935064935064 61.1038961038961,40.51948051948052 58.11688311688311,42.72727272727273 53.96103896103896,46.49350649350649 49.15584415584415,51.1038961038961 44.99999999999999,55.12987012987013 41.298701298701296,58.57142857142857" fill="none" stroke="black" stroke-width="0.6"></polyline><polyline points="41.298701298701296,58.57142857142857 38.441558441558435,61.1038961038961 37.4025974025974,62.14285714285714 37.59740259740259,61.88311688311688 39.02597402597402,60.51948051948052 42.857142857142854,56.55844155844155 47.92207792207792,51.42857142857142 53.76623376623376,46.55844155844155 58.246753246753244,43.051948051948045 61.038961038961034,41.1038961038961 61.94805194805194,40.51948051948052 61.298701298701296,40.90909090909091 58.18181818181817,43.31168831168831 54.02597402597402,47.14285714285714 49.41558441558441,51.23376623376623 44.99999999999999,54.93506493506493 41.49350649350649,57.857142857142854 39.02597402597402,59.74025974025974 38.116883116883116,60.38961038961038 38.116883116883116,60.454545454545446 40.32467532467532,58.37662337662337 44.090909090909086,54.74025974025974 48.89610389610389,50.51948051948052 54.090909090909086,46.23376623376623 58.441558441558435,42.98701298701298 60.844155844155836,41.36363636363636 61.49350649350649,40.90909090909091 60.649350649350644,41.16883116883116 57.72727272727272,43.246753246753244 53.63636363636363,46.75324675324675 49.220779220779214,50.84415584415584 44.93506493506493,54.6103896103896 41.55844155844156,57.467532467532465 39.15584415584415,59.35064935064935 38.18181818181818,60.259740259740255 38.57142857142857,59.99999999999999 39.870129870129865,58.89610389610389 43.246753246753244,55.58441558441558 47.59740259740259,51.62337662337662 52.662337662337656,47.467532467532465 57.402597402597394,43.96103896103896 60.259740259740255,41.88311688311688 61.36363636363636,41.1038961038961 61.36363636363636,40.97402597402597 58.76623376623376,42.272727272727266 54.870129870129865,45.259740259740255 50.649350649350644,49.02597402597402 46.1038961038961,53.051948051948045 42.2077922077922,56.49350649350649 39.8051948051948,58.57142857142857 38.31168831168831,59.67532467532467" fill="none" stroke="black" stroke-width="0.6"></polyline><polyline points="38.31168831168831,59.67532467532467 37.92207792207792,59.99999999999999 38.506493506493506,59.480519480519476 41.038961038961034,56.81818181818181 45.12987012987013,52.79220779220779 50.51948051948052,48.051948051948045 55.58441558441558,44.15584415584415 59.8051948051948,40.84415584415584 61.88311688311688,39.41558441558441 61.94805194805194,39.15584415584415 60.32467532467532,40.064935064935064 56.16883116883116,43.051948051948045 51.81818181818181,47.077922077922075 47.14285714285714,51.42857142857142 42.662337662337656,55.38961038961038 39.220779220779214,58.63636363636363 37.4025974025974,60.454545454545446 36.94805194805195,60.97402597402597 37.272727272727266,60.649350649350644 40.064935064935064,57.79220779220778 44.15584415584415,53.5064935064935 49.28571428571428,48.831168831168824 54.090909090909086,44.99999999999999 57.857142857142854,42.14285714285714 59.870129870129865,40.71428571428571 60.38961038961038,40.38961038961038 59.35064935064935,41.1038961038961 55.844155844155836,43.831168831168824 51.94805194805194,47.467532467532465 47.53246753246753,51.49350649350649 43.31168831168831,55.19480519480519 40.19480519480519,57.98701298701298 38.31168831168831,59.54545454545454 37.72727272727273,60.06493506493506 38.116883116883116,59.870129870129865 40.649350649350644,57.402597402597394 44.6103896103896,53.63636363636363 49.6103896103896,49.35064935064935 55.19480519480519,45.064935064935064 59.480519480519476,41.81818181818181 62.012987012987004,40.064935064935064 62.79220779220778,39.54545454545454 62.272727272727266,39.74025974025974 59.090909090909086,42.14285714285714 54.8051948051948,45.84415584415584 50.32467532467532,49.93506493506493 45.77922077922077,53.96103896103896 42.01298701298701,57.2077922077922 39.8051948051948,59.220779220779214 38.7012987012987,60.06493506493506 39.220779220779214,59.93506493506493" fill="none" stroke="black" stroke-width="0.6"></polyline><polyline points="39.220779220779214,59.93506493506493 40.19480519480519,58.96103896103896 43.831168831168824,55.454545454545446 48.11688311688311,51.23376623376623 53.31168831168831,46.88311688311688 57.92207792207792,43.37662337662337 60.90909090909091,41.23376623376623 61.94805194805194,40.51948051948052 62.012987012987004,40.51948051948052 59.220779220779214,42.72727272727273 55.32467532467532,46.49350649350649 51.16883116883116,50.32467532467532 47.077922077922075,53.7012987012987 43.896103896103895,56.298701298701296 41.62337662337662,57.98701298701298 40.77922077922077,58.7012987012987 41.038961038961034,58.5064935064935 42.272727272727266,57.467532467532465 45.71428571428571,54.15584415584415 50.19480519480519,49.93506493506493 55.649350649350644,45.58441558441558 60.12987012987013,42.2077922077922 62.59740259740259,40.38961038961038 63.441558441558435,39.93506493506493 62.59740259740259,40.38961038961038 59.090909090909086,43.051948051948045 54.54545454545454,46.88311688311688 49.67532467532467,50.77922077922077 45.19480519480519,54.35064935064935 41.81818181818181,57.012987012987004 39.870129870129865,58.7012987012987 38.896103896103895,59.54545454545454 39.090909090909086,59.67532467532467 39.93506493506493,59.28571428571428 42.92207792207792,56.688311688311686 46.94805194805194,52.98701298701298 51.55844155844155,48.7012987012987 56.88311688311688,44.54545454545454 60.97402597402597,41.36363636363636 62.72727272727272,39.93506493506493 63.051948051948045,39.6103896103896 62.272727272727266,39.93506493506493 59.02597402597402,42.33766233766234 54.74025974025974,46.038961038961034 50.32467532467532,50.064935064935064 46.038961038961034,53.89610389610389 42.53246753246753,57.2077922077922 40.45454545454545,59.220779220779214 39.41558441558441,60.12987012987013 39.74025974025974,59.93506493506493 40.77922077922077,58.7012987012987" fill="none" stroke="black" stroke-width="0.6"></polyline><polyline points="40.77922077922077,58.7012987012987 44.220779220779214,55.06493506493506 48.96103896103896,50.58441558441558 54.67532467532467,45.77922077922077 59.28571428571428,42.14285714285714 62.2077922077922,39.93506493506493 63.18181818181817,39.41558441558441 62.857142857142854,39.6103896103896 59.220779220779214,42.59740259740259 54.99999999999999,46.42857142857142 50.32467532467532,50.38961038961038 45.77922077922077,54.02597402597402 42.33766233766234,56.81818181818181 40.12987012987013,58.63636363636363 39.15584415584415,59.35064935064935 39.54545454545454,59.15584415584415 40.45454545454545,58.246753246753244 43.63636363636363,55.32467532467532 47.4025974025974,51.81818181818181 51.688311688311686,48.11688311688311 56.233766233766225,44.8051948051948 59.54545454545454,42.272727272727266 61.75324675324675,40.77922077922077 62.272727272727266,40.32467532467532 62.2077922077922,40.32467532467532 59.35064935064935,42.077922077922075 55.454545454545446,45.19480519480519 51.16883116883116,49.090909090909086 46.688311688311686,53.051948051948045 42.857142857142854,56.55844155844155 40.45454545454545,58.96103896103896 38.76623376623376,60.454545454545446 38.31168831168831,60.90909090909091 38.831168831168824,60.71428571428571 41.23376623376623,58.18181818181817 45.32467532467532,54.02597402597402 50.77922077922077,48.89610389610389 56.55844155844155,44.285714285714285 60.97402597402597,40.71428571428571 63.5064935064935,38.896103896103895 64.48051948051948,38.31168831168831 63.63636363636363,38.7012987012987 60.12987012987013,41.42857142857142 55.844155844155836,45.064935064935064 51.49350649350649,49.15584415584415 46.88311688311688,52.79220779220779 43.116883116883116,55.844155844155836 40.77922077922077,57.79220779220778 39.6103896103896,58.7012987012987 39.8051948051948,58.76623376623376 40.649350649350644,57.857142857142854" fill="none" stroke="black" stroke-width="0.6"></polyline><polyline points="40.649350649350644,57.857142857142854 44.02597402597402,54.54545454545454 48.441558441558435,50.45454545454545 53.831168831168824,46.038961038961034 58.76623376623376,42.4025974025974 61.75324675324675,40.38961038961038 62.92207792207792,39.74025974025974 62.72727272727272,39.93506493506493 59.090909090909086,42.53246753246753 54.93506493506493,46.16883116883116 50.19480519480519,50.12987012987013 45.58441558441558,53.76623376623376 42.01298701298701,56.55844155844155 39.8051948051948,58.31168831168831 38.76623376623376,59.02597402597402 39.480519480519476,58.57142857142857 40.649350649350644,57.467532467532465 44.220779220779214,54.090909090909086 49.02597402597402,50.19480519480519 54.6103896103896,45.90909090909091 58.76623376623376,42.72727272727273 61.49350649350649,40.90909090909091 62.272727272727266,40.32467532467532 61.75324675324675,40.51948051948052 58.7012987012987,42.72727272727273 54.54545454545454,46.298701298701296 50.12987012987013,50.32467532467532 45.84415584415584,54.02597402597402 42.72727272727273,56.688311688311686 40.77922077922077,58.441558441558435 39.8051948051948,59.35064935064935 40.12987012987013,59.35064935064935 40.71428571428571,58.63636363636363 43.896103896103895,55.58441558441558 47.92207792207792,51.62337662337662 52.79220779220779,47.33766233766233 57.53246753246753,43.7012987012987 60.58441558441558,41.42857142857142 61.81818181818181,40.51948051948052 61.298701298701296,40.58441558441558 59.8051948051948,41.49350649350649 56.36363636363636,44.285714285714285 52.53246753246753,47.857142857142854 48.441558441558435,51.49350649350649 44.74025974025974,54.6103896103896 41.55844155844156,57.33766233766233 39.870129870129865,58.831168831168824 39.285714285714285,59.41558441558441 39.6103896103896,59.41558441558441 42.01298701298701,57.14285714285714 45.97402597402597,53.31168831168831" fill="none" stroke="black" stroke-width="0.6"></polyline><polyline points="45.97402597402597,53.31168831168831 50.84415584415584,48.89610389610389 55.649350649350644,45.19480519480519 59.480519480519476,42.14285714285714 61.81818181818181,40.45454545454545 62.272727272727266,39.93506493506493 61.233766233766225,40.32467532467532 57.467532467532465,42.92207792207792 53.31168831168831,46.62337662337662 48.76623376623376,50.84415584415584 44.480519480519476,54.41558441558441 41.038961038961034,57.2077922077922 38.76623376623376,59.090909090909086 37.857142857142854,59.93506493506493 38.18181818181818,59.8051948051948 39.480519480519476,58.7012987012987 42.79220779220779,55.32467532467532 47.077922077922075,51.23376623376623 52.14285714285714,46.81818181818181 57.14285714285714,43.116883116883116 60.454545454545446,40.71428571428571 61.88311688311688,39.8051948051948 61.36363636363636,39.99999999999999 59.870129870129865,41.038961038961034 55.97402597402597,44.15584415584415 51.94805194805194,47.98701298701298 47.4025974025974,51.81818181818181 43.37662337662337,55.12987012987013 40.45454545454545,57.59740259740259 38.76623376623376,58.96103896103896 38.246753246753244,59.35064935064935 38.896103896103895,58.831168831168824 41.55844155844156,56.1038961038961 45.97402597402597,51.75324675324675 51.298701298701296,46.88311688311688 56.233766233766225,43.18181818181818 59.67532467532467,40.77922077922077 61.42857142857142,39.8051948051948 61.038961038961034,40.259740259740255 59.54545454545454,41.42857142857142 55.649350649350644,44.74025974025974 51.49350649350649,48.831168831168824 46.94805194805194,52.72727272727272 42.79220779220779,55.90909090909091 39.8051948051948,58.37662337662337 38.116883116883116,59.67532467532467 37.59740259740259,59.99999999999999 37.98701298701298,59.93506493506493 40.45454545454545,57.59740259740259 44.41558441558441,53.76623376623376 49.67532467532467,49.090909090909086" fill="none" stroke="black" stroke-width="0.6"></polyline><polyline points="49.67532467532467,49.090909090909086 55.06493506493506,44.8051948051948 59.220779220779214,41.55844155844156 62.077922077922075,39.675324675324674 62.92207792207792,39.220779220779214 62.59740259740259,39.285714285714285 59.28571428571428,41.688311688311686 55.259740259740255,44.99999999999999 50.649350649350644,49.15584415584415 45.90909090909091,53.246753246753244 41.81818181818181,56.81818181818181 39.35064935064935,59.02597402597402 38.051948051948045,60.259740259740255 37.857142857142854,60.454545454545446 38.831168831168824,59.67532467532467 41.688311688311686,56.55844155844155 45.649350649350644,52.59740259740259 50.38961038961038,48.18181818181818 55.12987012987013,44.285714285714285 58.63636363636363,41.49350649350649 60.649350649350644,40.19480519480519 60.97402597402597,39.870129870129865 59.67532467532467,40.45454545454545 56.16883116883116,43.116883116883116 52.2077922077922,46.81818181818181 48.051948051948045,51.038961038961034 43.96103896103896,54.8051948051948 40.97402597402597,57.53246753246753 39.15584415584415,59.15584415584415 38.506493506493506,59.67532467532467 38.831168831168824,59.74025974025974 41.23376623376623,57.53246753246753 45.32467532467532,53.57142857142857 50.649350649350644,48.76623376623376 55.844155844155836,44.675324675324674 60.38961038961038,41.298701298701296 62.79220779220778,39.6103896103896 63.57142857142856,39.15584415584415 63.11688311688311,39.35064935064935 59.74025974025974,41.94805194805195 55.77922077922077,45.45454545454545 51.42857142857142,49.480519480519476 46.81818181818181,53.051948051948045 42.857142857142854,56.233766233766225 40.38961038961038,58.31168831168831 38.896103896103895,59.35064935064935 38.63636363636363,59.54545454545454 40.12987012987013,58.37662337662337 43.31168831168831,55.12987012987013 47.467532467532465,51.1038961038961 52.59740259740259,46.81818181818181" fill="none" stroke="black" stroke-width="0.6"></polyline><polyline points="52.59740259740259,46.81818181818181 57.467532467532465,43.116883116883116 60.90909090909091,40.51948051948052 62.467532467532465,39.480519480519476 60.844155844155836,40.58441558441558 56.75324675324675,43.76623376623376 52.467532467532465,47.467532467532465 48.051948051948045,51.23376623376623 43.831168831168824,54.480519480519476 40.71428571428571,57.2077922077922 38.57142857142857,59.02597402597402 37.857142857142854,59.8051948051948 37.92207792207792,59.870129870129865 40.19480519480519,58.37662337662337 43.76623376623376,55.06493506493506 47.98701298701298,51.1038961038961 53.051948051948045,46.88311688311688 57.662337662337656,43.441558441558435 60.259740259740255,41.55844155844156 61.298701298701296,40.97402597402597 60.844155844155836,41.1038961038961 58.11688311688311,43.051948051948045 54.35064935064935,46.49350649350649 49.99999999999999,50.38961038961038 45.649350649350644,54.35064935064935 41.88311688311688,57.59740259740259 39.480519480519476,59.8051948051948 38.18181818181818,60.844155844155836 38.441558441558435,60.649350649350644 39.8051948051948,59.35064935064935 43.441558441558435,55.454545454545446 48.11688311688311,50.58441558441558 54.02597402597402,45.84415584415584 58.57142857142857,42.14285714285714 61.88311688311688,39.93506493506493 63.18181818181817,39.220779220779214 63.18181818181817,39.285714285714285 60.38961038961038,41.49350649350649 56.49350649350649,44.93506493506493 52.272727272727266,48.89610389610389 47.72727272727272,52.79220779220779 43.896103896103895,55.844155844155836 41.038961038961034,58.051948051948045 39.54545454545454,59.090909090909086 39.220779220779214,59.35064935064935 40.32467532467532,58.7012987012987 43.37662337662337,55.90909090909091 47.272727272727266,52.4025974025974 51.688311688311686,48.5064935064935 56.233766233766225,44.99999999999999 59.35064935064935,42.662337662337656" fill="none" stroke="black" stroke-width="0.6"></polyline><polyline points="59.35064935064935,42.662337662337656 61.16883116883116,41.42857142857142 61.55844155844155,41.16883116883116 60.19480519480519,41.62337662337662 56.88311688311688,44.02597402597402 53.051948051948045,47.467532467532465 48.831168831168824,51.23376623376623 44.675324675324674,54.93506493506493 41.36363636363636,58.051948051948045 39.15584415584415,59.99999999999999 38.441558441558435,60.649350649350644 38.441558441558435,60.71428571428571 40.45454545454545,59.02597402597402 44.090909090909086,55.32467532467532 48.441558441558435,51.16883116883116 53.63636363636363,46.75324675324675 58.11688311688311,43.18181818181818 60.844155844155836,41.16883116883116 61.81818181818181,40.51948051948052 61.298701298701296,40.71428571428571 58.441558441558435,42.79220779220779 54.54545454545454,46.16883116883116 50.32467532467532,49.93506493506493 45.97402597402597,53.57142857142857 42.272727272727266,56.688311688311686 39.8051948051948,58.89610389610389 38.441558441558435,59.99999999999999 38.506493506493506,59.99999999999999 39.8051948051948,58.7012987012987 43.31168831168831,55.12987012987013 47.72727272727272,50.90909090909091 53.7012987012987,46.038961038961034 58.441558441558435,42.467532467532465 61.88311688311688,39.99999999999999 63.441558441558435,39.090909090909086 62.857142857142854,39.54545454545454 61.42857142857142,40.58441558441558 57.272727272727266,43.76623376623376 52.79220779220779,47.72727272727272 48.18181818181818,51.75324675324675 43.63636363636363,55.259740259740255 40.45454545454545,57.857142857142854 38.506493506493506,59.35064935064935 37.857142857142854,59.74025974025974 38.18181818181818,59.6103896103896 40.58441558441558,57.14285714285714 44.35064935064935,53.37662337662337 49.090909090909086,49.35064935064935 54.02597402597402,45.58441558441558 58.18181818181817,42.59740259740259 60.649350649350644,40.97402597402597" fill="none" stroke="black" stroke-width="0.6"></polyline><polyline points="60.649350649350644,40.97402597402597 61.623376623376615,40.45454545454545 60.90909090909091,40.71428571428571 57.857142857142854,42.79220779220779 53.7012987012987,46.298701298701296 49.28571428571428,50.259740259740255 44.870129870129865,54.15584415584415 41.36363636363636,57.14285714285714 38.831168831168824,59.02597402597402 37.92207792207792,59.74025974025974 40.38961038961038,57.272727272727266 44.285714285714285,53.246753246753244 49.6103896103896,48.57142857142857 54.54545454545454,44.8051948051948 58.5064935064935,41.88311688311688 61.233766233766225,40.32467532467532 61.88311688311688,39.99999999999999 60.844155844155836,40.649350649350644 57.467532467532465,43.116883116883116 53.246753246753244,46.688311688311686 48.63636363636363,50.58441558441558 44.220779220779214,54.090909090909086 40.77922077922077,56.88311688311688 38.506493506493506,58.7012987012987 37.79220779220779,59.28571428571428 37.857142857142854,59.35064935064935 40.259740259740255,57.2077922077922 43.896103896103895,53.63636363636363 48.31168831168831,49.6103896103896 53.051948051948045,45.649350649350644 56.94805194805194,42.662337662337656 59.090909090909086,40.97402597402597 59.99999999999999,40.38961038961038 59.99999999999999,40.32467532467532 57.79220779220778,42.14285714285714 54.15584415584415,45.38961038961038 49.99999999999999,49.41558441558441 45.32467532467532,54.090909090909086 41.49350649350649,57.857142857142854 38.63636363636363,60.454545454545446 37.272727272727266,61.81818181818181 37.077922077922075,62.077922077922075 37.79220779220779,61.233766233766225 40.77922077922077,58.051948051948045 44.99999999999999,53.89610389610389 50.38961038961038,49.02597402597402 55.259740259740255,44.93506493506493 59.54545454545454,41.49350649350649 61.88311688311688,39.74025974025974 62.467532467532465,39.220779220779214 61.94805194805194,39.35064935064935" fill="none" stroke="black" stroke-width="0.6"></polyline><polyline points="61.94805194805194,39.35064935064935 58.76623376623376,41.81818181818181 54.6103896103896,45.58441558441558 50.12987012987013,49.6103896103896 45.45454545454545,53.7012987012987 41.42857142857142,57.2077922077922 38.63636363636363,59.67532467532467 37.4025974025974,60.844155844155836 37.272727272727266,60.97402597402597 38.506493506493506,59.8051948051948 41.88311688311688,56.298701298701296 46.62337662337662,51.81818181818181 51.49350649350649,47.467532467532465 56.1038961038961,44.02597402597402 59.28571428571428,41.75324675324675 60.97402597402597,40.649350649350644 60.844155844155836,40.51948051948052 59.41558441558441,41.49350649350649 55.90909090909091,44.35064935064935 51.88311688311688,48.11688311688311 47.4025974025974,52.14285714285714 43.506493506493506,55.51948051948052 40.45454545454545,58.11688311688311 38.831168831168824,59.41558441558441 38.441558441558435,59.74025974025974 39.35064935064935,59.28571428571428 42.33766233766234,56.298701298701296 46.75324675324675,52.2077922077922 52.2077922077922,47.4025974025974 57.857142857142854,43.246753246753244 61.49350649350649,40.58441558441558 63.441558441558435,39.35064935064935 63.18181818181817,39.54545454545454 62.14285714285714,40.51948051948052 57.98701298701298,43.896103896103895 53.63636363636363,47.857142857142854 48.96103896103896,51.81818181818181 44.675324675324674,55.38961038961038 41.42857142857142,57.98701298701298 39.74025974025974,59.35064935064935 39.220779220779214,59.6103896103896 40.12987012987013,58.7012987012987 43.37662337662337,55.38961038961038 47.53246753246753,51.23376623376623 52.72727272727272,46.88311688311688 57.467532467532465,43.246753246753244 60.649350649350644,40.90909090909091 62.012987012987004,39.99999999999999 61.49350649350649,40.259740259740255 59.93506493506493,41.298701298701296 56.1038961038961,44.285714285714285" fill="none" stroke="black" stroke-width="0.6"></polyline><polyline points="56.1038961038961,44.285714285714285 52.14285714285714,47.72727272727272 47.72727272727272,51.49350649350649 43.896103896103895,54.74025974025974 40.84415584415584,57.467532467532465 39.15584415584415,59.02597402597402 38.76623376623376,59.480519480519476 39.220779220779214,59.41558441558441 41.42857142857142,57.402597402597394 44.675324675324674,54.28571428571428 49.090909090909086,50.259740259740255 54.15584415584415,46.038961038961034 57.98701298701298,42.98701298701298 60.844155844155836,40.90909090909091 61.88311688311688,40.19480519480519 60.97402597402597,40.58441558441558 59.54545454545454,41.688311688311686 55.90909090909091,44.8051948051948 52.01298701298701,48.63636363636363 47.857142857142854,52.467532467532465 44.090909090909086,55.90909090909091 41.36363636363636,58.37662337662337 39.870129870129865,59.74025974025974 39.480519480519476,60.19480519480519 39.74025974025974,60.12987012987013 41.88311688311688,57.79220779220778 45.58441558441558,54.02597402597402 50.45454545454545,49.28571428571428 55.259740259740255,45.259740259740255 59.41558441558441,41.88311688311688 61.88311688311688,40.19480519480519 62.467532467532465,39.8051948051948 61.623376623376615,40.38961038961038 58.5064935064935,42.857142857142854 54.480519480519476,46.49350649350649 50.064935064935064,50.32467532467532 45.649350649350644,54.02597402597402 41.94805194805195,57.33766233766233 39.8051948051948,59.15584415584415 38.96103896103896,59.870129870129865 39.15584415584415,59.870129870129865 41.55844155844156,57.33766233766233 45.51948051948052,53.37662337662337 50.51948051948052,48.89610389610389 54.99999999999999,45.259740259740255 58.57142857142857,42.59740259740259 60.58441558441558,41.298701298701296 60.97402597402597,41.1038961038961 59.28571428571428,42.272727272727266 55.649350649350644,45.38961038961038 51.49350649350649,49.220779220779214" fill="none" stroke="black" stroke-width="0.6"></polyline><polyline points="51.49350649350649,49.220779220779214 46.88311688311688,52.98701298701298 42.98701298701298,56.1038961038961 40.71428571428571,57.92207792207792 39.8051948051948,58.57142857142857 39.93506493506493,58.63636363636363 42.857142857142854,56.038961038961034 47.662337662337656,51.75324675324675 54.54545454545454,46.81818181818181" fill="none" stroke="black" stroke-width="0.6"></polyline></svg>