<svg height="100" width="100" preserveAspectRatio="xMidYMid meet"><polyline points="50.71428571428571,49.54545454545454 50.32467532467532,48.89610389610389 50.32467532467532,48.441558441558435 50.32467532467532,47.92207792207792 50.32467532467532,47.59740259740259 50.32467532467532,47.33766233766233 50.32467532467532,47.2077922077922 50.32467532467532,47.14285714285714 50.32467532467532,47.077922077922075 50.259740259740255,47.077922077922075 50.19480519480519,47.01298701298701 50.12987012987013,47.01298701298701 50.064935064935064,47.01298701298701 49.99999999999999,47.01298701298701 49.93506493506493,47.01298701298701 49.870129870129865,47.01298701298701 49.74025974025974,47.01298701298701 49.6103896103896,47.01298701298701 49.41558441558441,47.01298701298701 49.15584415584415,47.01298701298701 48.76623376623376,47.14285714285714 48.31168831168831,47.33766233766233 47.857142857142854,47.53246753246753 47.467532467532465,47.79220779220779 47.077922077922075,48.11688311688311 46.81818181818181,48.37662337662337 46.62337662337662,48.57142857142857 46.42857142857142,48.76623376623376 46.36363636363636,48.89610389610389 46.298701298701296,49.02597402597402 46.23376623376623,49.090909090909086 46.16883116883116,49.15584415584415 46.1038961038961,49.220779220779214 46.1038961038961,49.28571428571428 46.038961038961034,49.28571428571428 46.038961038961034,49.35064935064935 46.038961038961034,49.41558441558441 46.038961038961034,49.54545454545454 46.038961038961034,49.74025974025974 46.038961038961034,50.12987012987013 46.1038961038961,50.649350649350644 46.16883116883116,51.23376623376623 46.42857142857142,51.88311688311688 46.688311688311686,52.467532467532465 46.94805194805194,52.98701298701298 47.2077922077922,53.441558441558435 47.467532467532465,53.89610389610389 47.79220779220779,54.220779220779214 47.98701298701298,54.41558441558441 48.246753246753244,54.67532467532467 48.37662337662337,54.74025974025974" fill="none" stroke="black" stroke-width="0.6"></polyline><polyline points="48.37662337662337,54.74025974025974 48.5064935064935,54.870129870129865 48.63636363636363,54.99999999999999 48.7012987012987,54.99999999999999 48.76623376623376,54.99999999999999 48.89610389610389,54.99999999999999 48.96103896103896,54.99999999999999 49.090909090909086,55.06493506493506 49.28571428571428,55.06493506493506 49.41558441558441,55.06493506493506 49.6103896103896,55.06493506493506 49.870129870129865,55.06493506493506 50.19480519480519,55.06493506493506 50.649350649350644,55.06493506493506 51.16883116883116,54.99999999999999 51.81818181818181,54.870129870129865 52.467532467532465,54.6103896103896 52.92207792207792,54.41558441558441 53.31168831168831,54.28571428571428 53.57142857142857,54.220779220779214 53.7012987012987,54.15584415584415 53.7012987012987,54.090909090909086 53.7012987012987,54.02597402597402 53.7012987012987,53.96103896103896 53.7012987012987,53.89610389610389 53.76623376623376,53.76623376623376 53.89610389610389,53.63636363636363 54.02597402597402,53.246753246753244 54.35064935064935,52.72727272727272 54.67532467532467,52.077922077922075 55.12987012987013,51.36363636363636 55.58441558441558,50.58441558441558 55.90909090909091,49.93506493506493 56.16883116883116,49.480519480519476 56.233766233766225,49.28571428571428 56.298701298701296,49.15584415584415 56.298701298701296,49.090909090909086 56.298701298701296,49.02597402597402 56.298701298701296,48.96103896103896 56.298701298701296,48.89610389610389 56.298701298701296,48.831168831168824 56.298701298701296,48.76623376623376 56.298701298701296,48.57142857142857 56.298701298701296,48.37662337662337 56.298701298701296,48.051948051948045 56.298701298701296,47.53246753246753 56.298701298701296,47.077922077922075 56.233766233766225,46.55844155844155 56.038961038961034,46.23376623376623 55.90909090909091,45.90909090909091 55.71428571428571,45.649350649350644" fill="none" stroke="black" stroke-width="0.6"></polyline><polyline points="55.71428571428571,45.649350649350644 55.58441558441558,45.45454545454545 55.454545454545446,45.32467532467532 55.32467532467532,45.19480519480519 55.259740259740255,45.12987012987013 55.259740259740255,45.064935064935064 55.259740259740255,44.99999999999999 55.259740259740255,44.93506493506493 55.19480519480519,44.93506493506493 55.19480519480519,44.870129870129865 55.12987012987013,44.870129870129865 55.12987012987013,44.8051948051948 55.06493506493506,44.8051948051948 55.06493506493506,44.74025974025974 55.06493506493506,44.675324675324674 54.99999999999999,44.675324675324674 54.93506493506493,44.6103896103896 54.93506493506493,44.480519480519476 54.93506493506493,44.41558441558441 54.870129870129865,44.285714285714285 54.74025974025974,44.090909090909086 54.6103896103896,43.896103896103895 54.35064935064935,43.63636363636363 54.090909090909086,43.37662337662337 53.89610389610389,43.116883116883116 53.63636363636363,42.857142857142854 53.37662337662337,42.72727272727273 53.18181818181818,42.53246753246753 53.051948051948045,42.4025974025974 52.857142857142854,42.272727272727266 52.72727272727272,42.2077922077922 52.662337662337656,42.077922077922075 52.59740259740259,42.01298701298701 52.59740259740259,41.94805194805195 52.53246753246753,41.94805194805195 52.53246753246753,41.88311688311688 52.467532467532465,41.88311688311688 52.467532467532465,41.81818181818181 52.4025974025974,41.81818181818181 52.33766233766233,41.75324675324675 52.272727272727266,41.75324675324675 52.2077922077922,41.75324675324675 52.14285714285714,41.688311688311686 52.14285714285714,41.62337662337662 51.94805194805194,41.62337662337662 51.75324675324675,41.55844155844156 51.49350649350649,41.55844155844156 51.1038961038961,41.55844155844156 50.71428571428571,41.49350649350649 50.259740259740255,41.49350649350649 49.870129870129865,41.49350649350649" fill="none" stroke="black" stroke-width="0.6"></polyline><polyline points="49.870129870129865,41.49350649350649 49.28571428571428,41.42857142857142 48.831168831168824,41.42857142857142 48.31168831168831,41.36363636363636 47.92207792207792,41.36363636363636 47.662337662337656,41.298701298701296 47.467532467532465,41.298701298701296 47.4025974025974,41.298701298701296 47.4025974025974,41.23376623376623 47.33766233766233,41.23376623376623 47.272727272727266,41.23376623376623 47.2077922077922,41.23376623376623 47.14285714285714,41.23376623376623 47.077922077922075,41.23376623376623 46.94805194805194,41.23376623376623 46.75324675324675,41.23376623376623 46.42857142857142,41.23376623376623 46.1038961038961,41.23376623376623 45.649350649350644,41.49350649350649 45.12987012987013,41.75324675324675 44.54545454545454,42.077922077922075 43.96103896103896,42.33766233766234 43.57142857142857,42.59740259740259 43.246753246753244,42.79220779220779 43.051948051948045,42.92207792207792 42.92207792207792,43.051948051948045 42.79220779220779,43.116883116883116 42.72727272727273,43.116883116883116 42.662337662337656,43.116883116883116 42.662337662337656,43.18181818181818 42.59740259740259,43.18181818181818 42.59740259740259,43.246753246753244 42.53246753246753,43.246753246753244 42.53246753246753,43.31168831168831 42.53246753246753,43.37662337662337 42.53246753246753,43.441558441558435 42.53246753246753,43.57142857142857 42.53246753246753,43.7012987012987 42.467532467532465,43.831168831168824 42.4025974025974,44.15584415584415 42.272727272727266,44.675324675324674 42.01298701298701,45.259740259740255 41.75324675324675,45.90909090909091 41.42857142857142,46.55844155844155 41.16883116883116,47.14285714285714 40.90909090909091,47.59740259740259 40.71428571428571,47.92207792207792 40.51948051948052,48.11688311688311 40.45454545454545,48.31168831168831 40.38961038961038,48.441558441558435 40.32467532467532,48.5064935064935" fill="none" stroke="black" stroke-width="0.6"></polyline><polyline points="40.32467532467532,48.5064935064935 40.32467532467532,48.63636363636363 40.259740259740255,48.7012987012987 40.19480519480519,48.7012987012987 40.19480519480519,48.76623376623376 40.12987012987013,48.831168831168824 40.12987012987013,48.89610389610389 40.12987012987013,48.96103896103896 40.064935064935064,49.02597402597402 40.064935064935064,49.090909090909086 40.064935064935064,49.15584415584415 40.064935064935064,49.220779220779214 40.064935064935064,49.28571428571428 40.064935064935064,49.35064935064935 40.064935064935064,49.41558441558441 40.064935064935064,49.54545454545454 40.064935064935064,49.67532467532467 40.064935064935064,49.74025974025974 40.064935064935064,49.99999999999999 40.064935064935064,50.32467532467532 40.064935064935064,50.649350649350644 40.064935064935064,51.16883116883116 40.12987012987013,51.688311688311686 40.259740259740255,52.272727272727266 40.38961038961038,52.857142857142854 40.45454545454545,53.37662337662337 40.45454545454545,53.76623376623376 40.51948051948052,54.15584415584415 40.51948051948052,54.480519480519476 40.51948051948052,54.74025974025974 40.51948051948052,54.8051948051948 40.58441558441558,54.99999999999999 40.58441558441558,55.06493506493506 40.58441558441558,55.12987012987013 40.58441558441558,55.19480519480519 40.58441558441558,55.259740259740255 40.58441558441558,55.32467532467532 40.649350649350644,55.38961038961038 40.649350649350644,55.454545454545446 40.71428571428571,55.51948051948052 40.71428571428571,55.649350649350644 40.77922077922077,55.649350649350644 40.84415584415584,55.71428571428571 40.97402597402597,55.844155844155836 41.038961038961034,55.90909090909091 41.16883116883116,55.97402597402597 41.298701298701296,56.1038961038961 41.42857142857142,56.298701298701296 41.688311688311686,56.49350649350649 41.94805194805195,56.75324675324675 42.2077922077922,57.077922077922075" fill="none" stroke="black" stroke-width="0.6"></polyline><polyline points="42.2077922077922,57.077922077922075 42.53246753246753,57.467532467532465 42.79220779220779,57.857142857142854 43.051948051948045,58.18181818181817 43.246753246753244,58.5064935064935 43.506493506493506,58.76623376623376 43.7012987012987,58.96103896103896 43.896103896103895,59.090909090909086 43.96103896103896,59.220779220779214 44.090909090909086,59.35064935064935 44.15584415584415,59.41558441558441 44.220779220779214,59.41558441558441 44.285714285714285,59.480519480519476 44.35064935064935,59.480519480519476 44.480519480519476,59.54545454545454 44.54545454545454,59.6103896103896 44.74025974025974,59.67532467532467 44.99999999999999,59.74025974025974 45.259740259740255,59.74025974025974 45.649350649350644,59.870129870129865 46.038961038961034,59.99999999999999 46.49350649350649,60.06493506493506 47.077922077922075,60.19480519480519 47.857142857142854,60.32467532467532 48.57142857142857,60.38961038961038 49.15584415584415,60.51948051948052 49.6103896103896,60.649350649350644 49.870129870129865,60.71428571428571 49.99999999999999,60.77922077922077 50.12987012987013,60.844155844155836 50.12987012987013,60.90909090909091 50.19480519480519,60.90909090909091 50.259740259740255,60.97402597402597 50.38961038961038,60.97402597402597 50.51948051948052,60.97402597402597 50.58441558441558,60.97402597402597 50.71428571428571,60.97402597402597 50.77922077922077,60.97402597402597 50.84415584415584,60.97402597402597 50.90909090909091,60.97402597402597 51.038961038961034,60.97402597402597 51.16883116883116,60.97402597402597 51.49350649350649,60.97402597402597 51.94805194805194,60.97402597402597 52.467532467532465,60.97402597402597 52.98701298701298,60.90909090909091 53.5064935064935,60.649350649350644 54.02597402597402,60.454545454545446 54.67532467532467,60.32467532467532 55.32467532467532,60.06493506493506 55.844155844155836,59.93506493506493" fill="none" stroke="black" stroke-width="0.6"></polyline><polyline points="55.844155844155836,59.93506493506493 56.233766233766225,59.8051948051948 56.42857142857142,59.74025974025974 56.55844155844155,59.74025974025974 56.623376623376615,59.74025974025974 56.688311688311686,59.74025974025974 56.75324675324675,59.67532467532467 56.81818181818181,59.67532467532467 56.88311688311688,59.6103896103896 56.94805194805194,59.6103896103896 56.94805194805194,59.54545454545454 57.077922077922075,59.54545454545454 57.14285714285714,59.480519480519476 57.14285714285714,59.41558441558441 57.2077922077922,59.41558441558441 57.272727272727266,59.35064935064935 57.33766233766233,59.28571428571428 57.402597402597394,59.220779220779214 57.467532467532465,59.090909090909086 57.59740259740259,58.89610389610389 57.79220779220778,58.57142857142857 58.18181818181817,58.18181818181817 58.7012987012987,57.662337662337656 59.220779220779214,57.077922077922075 59.67532467532467,56.55844155844155 59.99999999999999,56.233766233766225 60.32467532467532,55.97402597402597 60.454545454545446,55.71428571428571 60.58441558441558,55.649350649350644 60.649350649350644,55.649350649350644 60.649350649350644,55.58441558441558 60.71428571428571,55.58441558441558 60.71428571428571,55.51948051948052 60.77922077922077,55.454545454545446 60.844155844155836,55.38961038961038 60.844155844155836,55.32467532467532 60.90909090909091,55.32467532467532 60.97402597402597,55.32467532467532 60.97402597402597,55.259740259740255 61.038961038961034,55.12987012987013 61.16883116883116,54.99999999999999 61.298701298701296,54.8051948051948 61.36363636363636,54.54545454545454 61.623376623376615,54.15584415584415 61.88311688311688,53.76623376623376 62.2077922077922,53.246753246753244 62.467532467532465,52.662337662337656 62.662337662337656,52.14285714285714 62.857142857142854,51.62337662337662 62.92207792207792,51.23376623376623 63.051948051948045,50.90909090909091" fill="none" stroke="black" stroke-width="0.6"></polyline><polyline points="63.051948051948045,50.90909090909091 63.051948051948045,50.649350649350644 63.051948051948045,50.45454545454545 63.051948051948045,50.32467532467532 63.051948051948045,50.19480519480519 63.051948051948045,50.064935064935064 63.051948051948045,49.99999999999999 63.11688311688311,49.99999999999999 63.11688311688311,49.93506493506493 63.11688311688311,49.870129870129865 63.18181818181817,49.8051948051948 63.18181818181817,49.74025974025974 63.18181818181817,49.67532467532467 63.18181818181817,49.54545454545454 63.18181818181817,49.41558441558441 63.18181818181817,49.35064935064935 63.18181818181817,49.220779220779214 63.18181818181817,49.090909090909086 63.18181818181817,49.02597402597402 63.18181818181817,48.76623376623376 63.18181818181817,48.57142857142857 63.18181818181817,48.37662337662337 63.18181818181817,48.051948051948045 63.18181818181817,47.662337662337656 63.18181818181817,47.2077922077922 63.18181818181817,46.75324675324675 63.18181818181817,46.23376623376623 63.051948051948045,45.77922077922077 62.92207792207792,45.38961038961038 62.857142857142854,44.99999999999999 62.79220779220778,44.8051948051948 62.72727272727272,44.6103896103896 62.72727272727272,44.480519480519476 62.72727272727272,44.41558441558441 62.72727272727272,44.35064935064935 62.72727272727272,44.285714285714285 62.72727272727272,44.220779220779214 62.72727272727272,44.15584415584415 62.72727272727272,44.090909090909086 62.72727272727272,44.02597402597402 62.72727272727272,43.96103896103896 62.662337662337656,43.896103896103895 62.662337662337656,43.76623376623376 62.59740259740259,43.76623376623376 62.53246753246753,43.63636363636363 62.53246753246753,43.506493506493506 62.467532467532465,43.441558441558435 62.402597402597394,43.37662337662337 62.272727272727266,43.18181818181818 62.2077922077922,43.051948051948045 62.077922077922075,42.857142857142854" fill="none" stroke="black" stroke-width="0.6"></polyline><polyline points="62.077922077922075,42.857142857142854 61.88311688311688,42.59740259740259 61.688311688311686,42.33766233766234 61.49350649350649,42.077922077922075 61.298701298701296,41.75324675324675 61.038961038961034,41.42857142857142 60.77922077922077,41.1038961038961 60.58441558441558,40.84415584415584 60.32467532467532,40.58441558441558 60.19480519480519,40.38961038961038 59.99999999999999,40.259740259740255 59.870129870129865,40.064935064935064 59.74025974025974,39.99999999999999 59.67532467532467,39.93506493506493 59.67532467532467,39.870129870129865 59.6103896103896,39.870129870129865 59.6103896103896,39.8051948051948 59.54545454545454,39.8051948051948 59.54545454545454,39.74025974025974 59.480519480519476,39.675324675324674 59.41558441558441,39.675324675324674 59.41558441558441,39.6103896103896 59.28571428571428,39.54545454545454 59.15584415584415,39.41558441558441 59.090909090909086,39.35064935064935 58.89610389610389,39.220779220779214 58.76623376623376,39.02597402597402 58.63636363636363,38.96103896103896 58.441558441558435,38.76623376623376 58.246753246753244,38.57142857142857 58.11688311688311,38.441558441558435 57.92207792207792,38.18181818181818 57.79220779220778,38.051948051948045 57.59740259740259,37.92207792207792 57.467532467532465,37.79220779220779 57.467532467532465,37.72727272727273 57.33766233766233,37.662337662337656 57.272727272727266,37.53246753246753 57.14285714285714,37.467532467532465 57.077922077922075,37.4025974025974 57.077922077922075,37.33766233766234 57.012987012987004,37.33766233766234 56.94805194805194,37.33766233766234 56.94805194805194,37.272727272727266 56.88311688311688,37.272727272727266 56.88311688311688,37.2077922077922 56.88311688311688,37.14285714285714 56.81818181818181,37.14285714285714 56.75324675324675,37.14285714285714 56.75324675324675,37.077922077922075 56.688311688311686,37.01298701298701" fill="none" stroke="black" stroke-width="0.6"></polyline><polyline points="56.688311688311686,37.01298701298701 56.623376623376615,36.94805194805195 56.55844155844155,36.88311688311688 56.42857142857142,36.81818181818181 56.298701298701296,36.62337662337662 56.1038961038961,36.55844155844156 55.844155844155836,36.298701298701296 55.51948051948052,36.16883116883117 55.12987012987013,35.97402597402597 54.74025974025974,35.84415584415584 54.35064935064935,35.649350649350644 54.02597402597402,35.58441558441558 53.76623376623376,35.45454545454545 53.57142857142857,35.32467532467532 53.37662337662337,35.32467532467532 53.246753246753244,35.259740259740255 53.11688311688311,35.259740259740255 53.051948051948045,35.19480519480519 53.051948051948045,35.12987012987013 52.98701298701298,35.12987012987013 52.92207792207792,35.12987012987013 52.857142857142854,35.064935064935064 52.79220779220779,35.064935064935064 52.72727272727272,35.064935064935064 52.72727272727272,35 52.662337662337656,35 52.59740259740259,35 52.53246753246753,35 52.467532467532465,35 52.33766233766233,34.93506493506493 52.272727272727266,34.93506493506493 52.14285714285714,34.870129870129865 52.01298701298701,34.8051948051948 51.75324675324675,34.8051948051948 51.36363636363636,34.74025974025974 50.97402597402597,34.675324675324674 50.51948051948052,34.675324675324674 50.064935064935064,34.675324675324674 49.6103896103896,34.675324675324674 49.02597402597402,34.675324675324674 48.63636363636363,34.61038961038961 48.051948051948045,34.54545454545454 47.662337662337656,34.480519480519476 47.272727272727266,34.480519480519476 47.077922077922075,34.480519480519476 46.88311688311688,34.480519480519476 46.75324675324675,34.41558441558441 46.688311688311686,34.41558441558441 46.62337662337662,34.41558441558441 46.55844155844155,34.41558441558441 46.49350649350649,34.41558441558441" fill="none" stroke="black" stroke-width="0.6"></polyline><polyline points="46.49350649350649,34.41558441558441 46.42857142857142,34.41558441558441 46.36363636363636,34.41558441558441 46.298701298701296,34.41558441558441 46.23376623376623,34.41558441558441 46.16883116883116,34.41558441558441 46.1038961038961,34.41558441558441 46.038961038961034,34.41558441558441 45.90909090909091,34.41558441558441 45.77922077922077,34.41558441558441 45.51948051948052,34.41558441558441 45.259740259740255,34.41558441558441 44.93506493506493,34.41558441558441 44.54545454545454,34.480519480519476 43.96103896103896,34.61038961038961 43.506493506493506,34.8051948051948 43.051948051948045,35 42.59740259740259,35.259740259740255 42.14285714285714,35.45454545454545 41.688311688311686,35.649350649350644 41.298701298701296,35.77922077922078 40.97402597402597,35.90909090909091 40.71428571428571,36.038961038961034 40.649350649350644,36.1038961038961 40.58441558441558,36.16883116883117 40.51948051948052,36.16883116883117 40.51948051948052,36.23376623376623 40.45454545454545,36.23376623376623 40.45454545454545,36.298701298701296 40.38961038961038,36.298701298701296 40.32467532467532,36.298701298701296 40.259740259740255,36.36363636363636 40.259740259740255,36.42857142857142 40.19480519480519,36.42857142857142 40.12987012987013,36.49350649350649 40.12987012987013,36.55844155844156 40.064935064935064,36.62337662337662 39.93506493506493,36.75324675324675 39.8051948051948,36.88311688311688 39.6103896103896,37.077922077922075 39.41558441558441,37.272727272727266 39.15584415584415,37.467532467532465 38.831168831168824,37.79220779220779 38.506493506493506,38.051948051948045 38.18181818181818,38.246753246753244 37.857142857142854,38.441558441558435 37.662337662337656,38.7012987012987 37.467532467532465,38.76623376623376 37.33766233766234,38.96103896103896 37.272727272727266,39.02597402597402 37.14285714285714,39.15584415584415" fill="none" stroke="black" stroke-width="0.6"></polyline><polyline points="37.14285714285714,39.15584415584415 37.077922077922075,39.220779220779214 36.94805194805195,39.285714285714285 36.94805194805195,39.35064935064935 36.88311688311688,39.41558441558441 36.81818181818181,39.41558441558441 36.75324675324675,39.480519480519476 36.75324675324675,39.54545454545454 36.688311688311686,39.54545454545454 36.688311688311686,39.675324675324674 36.62337662337662,39.675324675324674 36.62337662337662,39.74025974025974 36.62337662337662,39.8051948051948 36.55844155844156,39.870129870129865 36.49350649350649,39.93506493506493 36.49350649350649,39.99999999999999 36.42857142857142,40.064935064935064 36.36363636363636,40.19480519480519 36.36363636363636,40.259740259740255 36.298701298701296,40.38961038961038 36.298701298701296,40.58441558441558 36.16883116883117,40.84415584415584 36.1038961038961,41.16883116883116 35.97402597402597,41.55844155844156 35.77922077922078,42.077922077922075 35.58441558441558,42.59740259740259 35.38961038961039,43.116883116883116 35.12987012987013,43.7012987012987 34.93506493506493,44.15584415584415 34.74025974025974,44.54545454545454 34.61038961038961,44.870129870129865 34.480519480519476,45.064935064935064 34.41558441558441,45.19480519480519 34.41558441558441,45.32467532467532 34.35064935064935,45.38961038961038 34.285714285714285,45.38961038961038 34.285714285714285,45.45454545454545 34.285714285714285,45.51948051948052 34.285714285714285,45.58441558441558 34.22077922077922,45.58441558441558 34.22077922077922,45.649350649350644 34.22077922077922,45.71428571428571 34.15584415584415,45.77922077922077 34.15584415584415,45.90909090909091 34.090909090909086,45.90909090909091 34.090909090909086,46.038961038961034 34.090909090909086,46.1038961038961 34.090909090909086,46.23376623376623 34.02597402597402,46.298701298701296 34.02597402597402,46.42857142857142 33.96103896103896,46.55844155844155" fill="none" stroke="black" stroke-width="0.6"></polyline><polyline points="33.96103896103896,46.55844155844155 33.96103896103896,46.688311688311686 33.96103896103896,46.88311688311688 33.96103896103896,47.14285714285714 33.96103896103896,47.4025974025974 33.896103896103895,47.72727272727272 33.896103896103895,48.051948051948045 33.83116883116883,48.441558441558435 33.76623376623376,48.76623376623376 33.76623376623376,49.090909090909086 33.76623376623376,49.28571428571428 33.76623376623376,49.41558441558441 33.76623376623376,49.6103896103896 33.76623376623376,49.67532467532467 33.76623376623376,49.8051948051948 33.76623376623376,49.93506493506493 33.76623376623376,49.99999999999999 33.7012987012987,49.99999999999999 33.7012987012987,50.12987012987013 33.63636363636363,50.19480519480519 33.57142857142857,50.259740259740255 33.57142857142857,50.32467532467532 33.57142857142857,50.38961038961038 33.57142857142857,50.45454545454545 33.506493506493506,50.51948051948052 33.506493506493506,50.58441558441558 33.506493506493506,50.649350649350644 33.506493506493506,50.71428571428571 33.506493506493506,50.84415584415584 33.506493506493506,50.97402597402597 33.506493506493506,51.23376623376623 33.506493506493506,51.55844155844155 33.506493506493506,51.88311688311688 33.506493506493506,52.2077922077922 33.506493506493506,52.53246753246753 33.506493506493506,52.98701298701298 33.506493506493506,53.37662337662337 33.506493506493506,53.7012987012987 33.63636363636363,54.090909090909086 33.7012987012987,54.35064935064935 33.76623376623376,54.6103896103896 33.83116883116883,54.8051948051948 33.896103896103895,54.99999999999999 33.96103896103896,55.12987012987013 33.96103896103896,55.259740259740255 34.02597402597402,55.32467532467532 34.02597402597402,55.454545454545446 34.02597402597402,55.51948051948052 34.02597402597402,55.58441558441558 34.02597402597402,55.649350649350644 34.02597402597402,55.71428571428571" fill="none" stroke="black" stroke-width="0.6"></polyline><polyline points="34.02597402597402,55.71428571428571 34.02597402597402,55.77922077922077 34.02597402597402,55.844155844155836 34.02597402597402,55.90909090909091 34.02597402597402,55.97402597402597 34.02597402597402,56.038961038961034 34.02597402597402,56.1038961038961 34.02597402597402,56.16883116883116 34.090909090909086,56.233766233766225 34.090909090909086,56.298701298701296 34.15584415584415,56.36363636363636 34.22077922077922,56.49350649350649 34.285714285714285,56.55844155844155 34.41558441558441,56.75324675324675 34.480519480519476,57.012987012987004 34.61038961038961,57.272727272727266 34.74025974025974,57.662337662337656 34.8051948051948,58.051948051948045 35.58441558441558,59.6103896103896 35.649350649350644,59.74025974025974 35.71428571428571,59.870129870129865 35.77922077922078,59.99999999999999 35.77922077922078,60.06493506493506 35.77922077922078,60.12987012987013 35.84415584415584,60.19480519480519 35.90909090909091,60.259740259740255 35.97402597402597,60.32467532467532 36.038961038961034,60.38961038961038 36.16883116883117,60.51948051948052 36.298701298701296,60.649350649350644 36.36363636363636,60.71428571428571 36.55844155844156,60.844155844155836 36.688311688311686,60.97402597402597 36.94805194805195,61.16883116883116 37.2077922077922,61.42857142857142 37.467532467532465,61.623376623376615 37.79220779220779,61.94805194805194 38.051948051948045,62.2077922077922 38.31168831168831,62.53246753246753 38.506493506493506,62.79220779220778 38.76623376623376,62.98701298701298 38.896103896103895,63.18181818181817 39.02597402597402,63.31168831168831 39.15584415584415,63.441558441558435 39.285714285714285,63.5064935064935 39.41558441558441,63.63636363636363 39.480519480519476,63.7012987012987 39.480519480519476,63.76623376623376 39.480519480519476,63.831168831168824 39.54545454545454,63.831168831168824 39.6103896103896,63.831168831168824" fill="none" stroke="black" stroke-width="0.6"></polyline><polyline points="39.6103896103896,63.831168831168824 39.6103896103896,63.89610389610389 39.675324675324674,63.89610389610389 39.74025974025974,63.96103896103895 39.8051948051948,64.09090909090908 39.870129870129865,64.09090909090908 39.99999999999999,64.09090909090908 40.12987012987013,64.22077922077922 40.19480519480519,64.35064935064935 40.32467532467532,64.4155844155844 40.45454545454545,64.48051948051948 40.649350649350644,64.6103896103896 40.84415584415584,64.74025974025973 41.038961038961034,65 41.36363636363636,65.12987012987013 41.62337662337662,65.32467532467531 41.94805194805195,65.51948051948051 42.2077922077922,65.71428571428571 42.467532467532465,65.97402597402596 42.72727272727273,66.10389610389609 42.98701298701298,66.29870129870129 43.246753246753244,66.36363636363636 43.506493506493506,66.55844155844156 43.76623376623376,66.62337662337661 43.96103896103896,66.75324675324674 44.15584415584415,66.88311688311688 44.285714285714285,66.94805194805194 44.41558441558441,66.94805194805194 44.54545454545454,66.94805194805194 44.6103896103896,66.94805194805194 44.6103896103896,67.01298701298701 44.675324675324674,67.01298701298701 44.74025974025974,67.01298701298701 44.8051948051948,67.01298701298701 44.870129870129865,67.01298701298701 44.870129870129865,67.07792207792207 44.93506493506493,67.07792207792207 44.99999999999999,67.07792207792207 45.12987012987013,67.14285714285714 45.19480519480519,67.2077922077922 45.32467532467532,67.2077922077922 45.45454545454545,67.27272727272727 45.51948051948052,67.27272727272727 45.71428571428571,67.27272727272727 45.97402597402597,67.33766233766234 46.23376623376623,67.4025974025974 46.55844155844155,67.46753246753246 47.01298701298701,67.53246753246752 47.467532467532465,67.53246753246752 47.98701298701298,67.53246753246752 48.5064935064935,67.59740259740259" fill="none" stroke="black" stroke-width="0.6"></polyline><polyline points="48.5064935064935,67.59740259740259 48.89610389610389,67.66233766233766 49.220779220779214,67.72727272727272 49.41558441558441,67.79220779220779 49.54545454545454,67.85714285714285 49.6103896103896,67.85714285714285 49.74025974025974,67.85714285714285 49.8051948051948,67.92207792207792 49.870129870129865,67.92207792207792 49.93506493506493,67.92207792207792 49.99999999999999,67.98701298701297 50.12987012987013,67.98701298701297 50.19480519480519,67.98701298701297 50.259740259740255,67.98701298701297 50.32467532467532,68.05194805194805 50.45454545454545,68.05194805194805 50.58441558441558,68.11688311688312 50.84415584415584,68.11688311688312 51.038961038961034,68.11688311688312 51.298701298701296,68.18181818181817 51.62337662337662,68.18181818181817 52.01298701298701,68.18181818181817 52.4025974025974,68.18181818181817 52.79220779220779,68.18181818181817 53.18181818181818,68.18181818181817 53.57142857142857,68.18181818181817 53.96103896103896,68.18181818181817 54.35064935064935,68.18181818181817 54.6103896103896,68.18181818181817 54.870129870129865,68.18181818181817 54.99999999999999,68.18181818181817 55.19480519480519,68.18181818181817 55.259740259740255,68.18181818181817 55.38961038961038,68.18181818181817 55.454545454545446,68.18181818181817 55.51948051948052,68.18181818181817 55.58441558441558,68.18181818181817 55.649350649350644,68.18181818181817 55.71428571428571,68.18181818181817 55.77922077922077,68.18181818181817 55.844155844155836,68.18181818181817 55.90909090909091,68.18181818181817 56.038961038961034,68.18181818181817 56.16883116883116,68.18181818181817 56.233766233766225,68.18181818181817 56.42857142857142,68.11688311688312 56.623376623376615,68.05194805194805 56.88311688311688,67.92207792207792 57.2077922077922,67.79220779220779 57.59740259740259,67.59740259740259 58.11688311688311,67.4025974025974" fill="none" stroke="black" stroke-width="0.6"></polyline><polyline points="58.11688311688311,67.4025974025974 58.63636363636363,67.2077922077922 59.15584415584415,66.94805194805194 59.67532467532467,66.75324675324674 60.06493506493506,66.55844155844156 60.454545454545446,66.29870129870129 60.77922077922077,66.23376623376623 60.97402597402597,66.10389610389609 61.16883116883116,65.97402597402596 61.298701298701296,65.97402597402596 61.36363636363636,65.97402597402596 61.36363636363636,65.9090909090909 61.42857142857142,65.9090909090909 61.49350649350649,65.9090909090909 61.49350649350649,65.84415584415584 61.55844155844155,65.84415584415584 61.623376623376615,65.84415584415584 61.623376623376615,65.77922077922078 61.688311688311686,65.77922077922078 61.75324675324675,65.71428571428571 61.88311688311688,65.64935064935064 61.88311688311688,65.58441558441558 62.012987012987004,65.51948051948051 62.14285714285714,65.38961038961038 62.272727272727266,65.25974025974025 62.53246753246753,65.06493506493506 62.79220779220778,64.74025974025973 63.051948051948045,64.4155844155844 63.31168831168831,64.09090909090908 63.63636363636363,63.7012987012987 63.96103896103895,63.246753246753244 64.35064935064935,62.79220779220778 64.67532467532467,62.402597402597394 64.93506493506493,62.14285714285714 65.19480519480518,61.94805194805194 65.38961038961038,61.75324675324675 65.51948051948051,61.623376623376615 65.64935064935064,61.623376623376615 65.71428571428571,61.55844155844155 65.77922077922078,61.55844155844155 65.77922077922078,61.49350649350649 65.84415584415584,61.49350649350649 65.84415584415584,61.42857142857142 65.9090909090909,61.42857142857142 65.9090909090909,61.36363636363636 65.97402597402596,61.36363636363636 66.03896103896103,61.298701298701296 66.03896103896103,61.233766233766225 66.03896103896103,61.16883116883116 66.10389610389609,61.038961038961034 66.23376623376623,60.90909090909091" fill="none" stroke="black" stroke-width="0.6"></polyline><polyline points="66.23376623376623,60.90909090909091 66.29870129870129,60.71428571428571 66.36363636363636,60.51948051948052 66.49350649350649,60.32467532467532 66.62337662337661,59.99999999999999 66.68831168831169,59.74025974025974 66.81818181818181,59.35064935064935 66.94805194805194,59.02597402597402 67.01298701298701,58.63636363636363 67.14285714285714,58.31168831168831 67.27272727272727,57.98701298701298 67.33766233766234,57.662337662337656 67.46753246753246,57.467532467532465 67.59740259740259,57.2077922077922 67.66233766233766,57.077922077922075 67.72727272727272,56.94805194805194 67.79220779220779,56.88311688311688 67.79220779220779,56.75324675324675 67.85714285714285,56.623376623376615 67.92207792207792,56.55844155844155 67.92207792207792,56.49350649350649 67.92207792207792,56.42857142857142 67.98701298701297,56.36363636363636 67.98701298701297,56.298701298701296 68.05194805194805,56.298701298701296 68.05194805194805,56.233766233766225 68.11688311688312,56.16883116883116 68.11688311688312,56.038961038961034 68.18181818181817,55.97402597402597 68.24675324675324,55.844155844155836 68.24675324675324,55.71428571428571 68.24675324675324,55.649350649350644 68.24675324675324,55.51948051948052 68.3116883116883,55.38961038961038 68.37662337662337,55.32467532467532 68.44155844155844,55.12987012987013 68.5064935064935,54.99999999999999 68.57142857142857,54.8051948051948 68.57142857142857,54.6103896103896 68.63636363636363,54.35064935064935 68.76623376623375,54.02597402597402 68.8961038961039,53.63636363636363 68.96103896103895,53.18181818181818 69.15584415584415,52.857142857142854 69.28571428571428,52.4025974025974 69.48051948051948,52.01298701298701 69.54545454545453,51.62337662337662 69.67532467532467,51.298701298701296 69.8051948051948,51.038961038961034 69.87012987012986,50.84415584415584 69.93506493506493,50.649350649350644" fill="none" stroke="black" stroke-width="0.6"></polyline><polyline points="69.93506493506493,50.649350649350644 69.93506493506493,50.45454545454545 70,50.32467532467532 70.06493506493506,50.32467532467532 70.06493506493506,50.19480519480519 70.12987012987013,50.12987012987013 70.12987012987013,49.99999999999999 70.19480519480518,49.93506493506493 70.19480519480518,49.870129870129865 70.25974025974025,49.8051948051948 70.25974025974025,49.67532467532467 70.32467532467531,49.6103896103896 70.32467532467531,49.480519480519476 70.38961038961038,49.41558441558441 70.38961038961038,49.220779220779214 70.38961038961038,49.090909090909086 70.38961038961038,48.96103896103896 70.45454545454545,48.76623376623376 70.45454545454545,48.63636363636363 70.45454545454545,48.441558441558435 70.45454545454545,48.18181818181818 70.45454545454545,47.92207792207792 70.45454545454545,47.53246753246753 70.45454545454545,47.2077922077922 70.45454545454545,46.88311688311688 70.45454545454545,46.42857142857142 70.45454545454545,46.038961038961034 70.45454545454545,45.58441558441558 70.45454545454545,45.064935064935064 70.45454545454545,44.675324675324674 70.38961038961038,44.35064935064935 70.38961038961038,44.02597402597402 70.32467532467531,43.76623376623376 70.25974025974025,43.57142857142857 70.25974025974025,43.441558441558435 70.19480519480518,43.31168831168831 70.19480519480518,43.18181818181818 70.19480519480518,43.116883116883116 70.19480519480518,42.98701298701298 70.19480519480518,42.92207792207792 70.19480519480518,42.857142857142854 70.19480519480518,42.79220779220779 70.19480519480518,42.662337662337656 70.19480519480518,42.59740259740259 70.19480519480518,42.53246753246753 70.19480519480518,42.467532467532465 70.19480519480518,42.33766233766234 70.19480519480518,42.272727272727266 70.19480519480518,42.2077922077922 70.19480519480518,42.14285714285714 70.19480519480518,42.01298701298701" fill="none" stroke="black" stroke-width="0.6"></polyline><polyline points="70.19480519480518,42.01298701298701 70.19480519480518,41.88311688311688 70.12987012987013,41.81818181818181 70.12987012987013,41.62337662337662 70,41.42857142857142 69.87012987012986,41.23376623376623 69.8051948051948,40.97402597402597 69.6103896103896,40.71428571428571 69.48051948051948,40.51948051948052 69.35064935064935,40.32467532467532 69.22077922077922,39.99999999999999 69.09090909090908,39.870129870129865 68.8961038961039,39.675324675324674 68.83116883116882,39.480519480519476 68.7012987012987,39.35064935064935 68.63636363636363,39.285714285714285 68.57142857142857,39.15584415584415 68.57142857142857,39.090909090909086 68.57142857142857,39.02597402597402 68.57142857142857,38.96103896103896 68.5064935064935,38.96103896103896 68.5064935064935,38.896103896103895 68.44155844155844,38.76623376623376 68.37662337662337,38.76623376623376 68.37662337662337,38.63636363636363 68.3116883116883,38.63636363636363 68.3116883116883,38.57142857142857 68.24675324675324,38.57142857142857 68.24675324675324,38.441558441558435 68.11688311688312,38.246753246753244 68.05194805194805,38.18181818181818 67.92207792207792,38.051948051948045 67.85714285714285,37.79220779220779 67.66233766233766,37.53246753246753 67.46753246753246,37.2077922077922 67.27272727272727,36.88311688311688 66.94805194805194,36.55844155844156 66.68831168831169,36.23376623376623 66.36363636363636,35.90909090909091 66.03896103896103,35.649350649350644 65.77922077922078,35.45454545454545 65.64935064935064,35.32467532467532 65.45454545454545,35.19480519480519 65.38961038961038,35.064935064935064 65.38961038961038,35 65.32467532467531,35 65.32467532467531,34.93506493506493 65.25974025974025,34.93506493506493 65.25974025974025,34.870129870129865 65.19480519480518,34.8051948051948 65.12987012987013,34.8051948051948" fill="none" stroke="black" stroke-width="0.6"></polyline><polyline points="65.12987012987013,34.8051948051948 65.06493506493506,34.74025974025974 65.06493506493506,34.675324675324674 65,34.675324675324674 64.93506493506493,34.54545454545454 64.87012987012986,34.480519480519476 64.8051948051948,34.41558441558441 64.74025974025973,34.35064935064935 64.54545454545453,34.22077922077922 64.4155844155844,34.02597402597402 64.15584415584415,33.83116883116883 63.96103896103895,33.57142857142857 63.76623376623376,33.37662337662337 63.5064935064935,33.116883116883116 63.18181818181817,32.857142857142854 62.857142857142854,32.72727272727273 62.53246753246753,32.467532467532465 62.2077922077922,32.272727272727266 61.88311688311688,32.14285714285714 61.623376623376615,31.948051948051944 61.49350649350649,31.818181818181817 61.36363636363636,31.818181818181817 61.298701298701296,31.75324675324675 61.298701298701296,31.688311688311686 61.298701298701296,31.623376623376622 61.233766233766225,31.623376623376622 61.16883116883116,31.558441558441555 61.1038961038961,31.558441558441555 61.038961038961034,31.558441558441555 60.97402597402597,31.49350649350649 60.97402597402597,31.428571428571427 60.844155844155836,31.36363636363636 60.77922077922077,31.298701298701296 60.649350649350644,31.233766233766232 60.58441558441558,31.168831168831165 60.51948051948052,31.168831168831165 60.38961038961038,31.038961038961038 60.32467532467532,30.97402597402597 60.19480519480519,30.909090909090907 60.06493506493506,30.909090909090907 59.870129870129865,30.779220779220775 59.67532467532467,30.58441558441558 59.35064935064935,30.454545454545453 58.831168831168824,30.25974025974026 58.246753246753244,30.129870129870127 57.59740259740259,29.935064935064933 57.012987012987004,29.740259740259738 56.36363636363636,29.610389610389607 55.71428571428571,29.48051948051948 55.12987012987013,29.35064935064935 54.6103896103896,29.285714285714285" fill="none" stroke="black" stroke-width="0.6"></polyline><polyline points="54.6103896103896,29.285714285714285 54.28571428571428,29.220779220779217 54.02597402597402,29.155844155844154 53.96103896103896,29.090909090909086 53.831168831168824,29.090909090909086 53.76623376623376,29.090909090909086 53.76623376623376,29.025974025974023 53.7012987012987,29.025974025974023 53.63636363636363,29.025974025974023 53.57142857142857,29.025974025974023 53.5064935064935,29.025974025974023 53.37662337662337,29.025974025974023 53.31168831168831,28.96103896103896 53.18181818181818,28.89610389610389 53.051948051948045,28.831168831168828 52.79220779220779,28.766233766233764 52.59740259740259,28.701298701298697 52.272727272727266,28.701298701298697 51.81818181818181,28.636363636363633 51.42857142857142,28.57142857142857 50.97402597402597,28.506493506493502 50.649350649350644,28.376623376623375 50.32467532467532,28.376623376623375 50.064935064935064,28.311688311688307 49.870129870129865,28.246753246753244 49.6103896103896,28.18181818181818 49.41558441558441,28.18181818181818 49.28571428571428,28.116883116883113 49.090909090909086,28.116883116883113 48.96103896103896,28.116883116883113 48.89610389610389,28.116883116883113 48.831168831168824,28.116883116883113 48.7012987012987,28.116883116883113 48.63636363636363,28.116883116883113 48.57142857142857,28.05194805194805 48.441558441558435,28.05194805194805 48.37662337662337,28.05194805194805 48.31168831168831,28.05194805194805 48.246753246753244,28.05194805194805 48.11688311688311,28.05194805194805 48.051948051948045,27.987012987012985 47.98701298701298,27.987012987012985 47.857142857142854,27.987012987012985 47.72727272727272,27.987012987012985 47.662337662337656,27.987012987012985 47.467532467532465,27.987012987012985 47.4025974025974,27.987012987012985 47.2077922077922,27.987012987012985 47.077922077922075,27.987012987012985 46.88311688311688,27.987012987012985 46.688311688311686,27.987012987012985" fill="none" stroke="black" stroke-width="0.6"></polyline><polyline points="46.688311688311686,27.987012987012985 46.42857142857142,27.987012987012985 46.1038961038961,27.987012987012985 45.77922077922077,27.987012987012985 45.38961038961038,27.987012987012985 44.870129870129865,27.987012987012985 44.41558441558441,28.116883116883113 43.896103896103895,28.116883116883113 43.506493506493506,28.246753246753244 43.18181818181818,28.311688311688307 42.92207792207792,28.376623376623375 42.662337662337656,28.44155844155844 42.467532467532465,28.44155844155844 42.33766233766234,28.506493506493502 42.2077922077922,28.506493506493502 42.077922077922075,28.57142857142857 42.01298701298701,28.57142857142857 41.94805194805195,28.636363636363633 41.88311688311688,28.636363636363633 41.81818181818181,28.636363636363633 41.75324675324675,28.636363636363633 41.688311688311686,28.701298701298697 41.62337662337662,28.701298701298697 41.49350649350649,28.701298701298697 41.36363636363636,28.701298701298697 41.298701298701296,28.701298701298697 41.16883116883116,28.701298701298697 41.038961038961034,28.766233766233764 40.84415584415584,28.766233766233764 40.71428571428571,28.831168831168828 40.58441558441558,28.89610389610389 40.45454545454545,28.89610389610389 40.32467532467532,28.96103896103896 40.19480519480519,29.025974025974023 40.064935064935064,29.025974025974023 39.93506493506493,29.025974025974023 39.8051948051948,29.155844155844154 39.6103896103896,29.220779220779217 39.41558441558441,29.35064935064935 39.15584415584415,29.415584415584412 38.896103896103895,29.610389610389607 38.57142857142857,29.8051948051948 38.246753246753244,29.999999999999996 37.857142857142854,30.25974025974026 37.59740259740259,30.519480519480517 37.272727272727266,30.71428571428571 36.94805194805195,30.97402597402597 36.62337662337662,31.168831168831165 36.42857142857142,31.298701298701296 36.298701298701296,31.49350649350649 36.1038961038961,31.558441558441555" fill="none" stroke="black" stroke-width="0.6"></polyline><polyline points="36.1038961038961,31.558441558441555 35.97402597402597,31.688311688311686 35.90909090909091,31.818181818181817 35.84415584415584,31.818181818181817 35.77922077922078,31.818181818181817 35.77922077922078,31.88311688311688 35.71428571428571,31.88311688311688 35.649350649350644,31.948051948051944 35.649350649350644,32.01298701298701 35.58441558441558,32.077922077922075 35.51948051948052,32.077922077922075 35.45454545454545,32.14285714285714 35.38961038961039,32.14285714285714 35.38961038961039,32.2077922077922 35.32467532467532,32.272727272727266 35.259740259740255,32.33766233766234 35.19480519480519,32.4025974025974 35.12987012987013,32.467532467532465 35.064935064935064,32.467532467532465 35,32.59740259740259 34.870129870129865,32.662337662337656 34.74025974025974,32.79220779220779 34.54545454545454,32.857142857142854 34.35064935064935,33.051948051948045 34.090909090909086,33.246753246753244 33.76623376623376,33.506493506493506 33.37662337662337,33.83116883116883 32.98701298701298,34.22077922077922 32.662337662337656,34.61038961038961 32.33766233766234,34.93506493506493 32.077922077922075,35.259740259740255 31.818181818181817,35.51948051948052 31.558441558441555,35.77922077922078 31.428571428571427,35.90909090909091 31.233766233766232,36.1038961038961 31.233766233766232,36.23376623376623 31.1038961038961,36.298701298701296 31.038961038961038,36.36363636363636 31.038961038961038,36.49350649350649 30.97402597402597,36.49350649350649 30.97402597402597,36.55844155844156 30.909090909090907,36.55844155844156 30.909090909090907,36.62337662337662 30.909090909090907,36.688311688311686 30.844155844155843,36.688311688311686 30.844155844155843,36.75324675324675 30.844155844155843,36.81818181818181 30.779220779220775,36.88311688311688 30.779220779220775,36.94805194805195 30.779220779220775,37.01298701298701 30.779220779220775,37.077922077922075" fill="none" stroke="black" stroke-width="0.6"></polyline><polyline points="30.779220779220775,37.077922077922075 30.71428571428571,37.14285714285714 30.649350649350648,37.2077922077922 30.649350649350648,37.272727272727266 30.649350649350648,37.33766233766234 30.649350649350648,37.4025974025974 30.649350649350648,37.467532467532465 30.649350649350648,37.53246753246753 30.58441558441558,37.59740259740259 30.58441558441558,37.72727272727273 30.519480519480517,37.79220779220779 30.454545454545453,37.857142857142854 30.389610389610386,38.051948051948045 30.324675324675322,38.246753246753244 30.129870129870127,38.506493506493506 29.999999999999996,38.831168831168824 29.8051948051948,39.15584415584415 29.675324675324674,39.480519480519476 29.415584415584412,39.870129870129865 29.220779220779217,40.19480519480519 29.025974025974023,40.51948051948052 28.831168831168828,40.77922077922077 28.701298701298697,41.038961038961034 28.636363636363633,41.23376623376623 28.506493506493502,41.298701298701296 28.44155844155844,41.42857142857142 28.44155844155844,41.55844155844156 28.44155844155844,41.62337662337662 28.376623376623375,41.75324675324675 28.376623376623375,41.81818181818181 28.311688311688307,41.88311688311688 28.246753246753244,41.88311688311688 28.246753246753244,42.01298701298701 28.18181818181818,42.01298701298701 28.18181818181818,42.077922077922075 28.18181818181818,42.14285714285714 28.18181818181818,42.2077922077922 28.116883116883113,42.2077922077922 28.116883116883113,42.272727272727266 28.116883116883113,42.33766233766234 28.116883116883113,42.4025974025974 28.116883116883113,42.467532467532465 28.116883116883113,42.53246753246753 28.116883116883113,42.59740259740259 28.116883116883113,42.72727272727273 28.116883116883113,42.79220779220779 28.116883116883113,42.92207792207792 28.116883116883113,43.116883116883116 28.116883116883113,43.31168831168831 28.116883116883113,43.57142857142857 28.116883116883113,43.896103896103895" fill="none" stroke="black" stroke-width="0.6"></polyline><polyline points="28.116883116883113,43.896103896103895 28.05194805194805,44.15584415584415 27.987012987012985,44.54545454545454 27.857142857142854,44.99999999999999 27.79220779220779,45.38961038961038 27.66233766233766,45.84415584415584 27.467532467532465,46.23376623376623 27.4025974025974,46.55844155844155 27.27272727272727,46.81818181818181 27.207792207792206,47.01298701298701 27.14285714285714,47.2077922077922 27.14285714285714,47.272727272727266 27.14285714285714,47.4025974025974 27.14285714285714,47.467532467532465 27.14285714285714,47.53246753246753 27.077922077922075,47.53246753246753 27.01298701298701,47.53246753246753 27.01298701298701,47.59740259740259 27.01298701298701,47.662337662337656 27.01298701298701,47.72727272727272 26.948051948051944,47.79220779220779 26.948051948051944,47.857142857142854 26.948051948051944,47.92207792207792 26.948051948051944,47.98701298701298 26.948051948051944,48.051948051948045 26.948051948051944,48.11688311688311 26.948051948051944,48.18181818181818 26.948051948051944,48.246753246753244 26.948051948051944,48.31168831168831 26.948051948051944,48.37662337662337 26.948051948051944,48.441558441558435 26.948051948051944,48.5064935064935 26.948051948051944,48.76623376623376 26.948051948051944,49.090909090909086 26.948051948051944,49.480519480519476 26.948051948051944,49.93506493506493 26.948051948051944,50.32467532467532 26.948051948051944,50.77922077922077 26.948051948051944,51.16883116883116 26.948051948051944,51.55844155844155 26.948051948051944,51.88311688311688 26.948051948051944,52.2077922077922 26.948051948051944,52.4025974025974 26.948051948051944,52.53246753246753 26.948051948051944,52.662337662337656 26.948051948051944,52.79220779220779 26.948051948051944,52.857142857142854 26.948051948051944,52.92207792207792 26.948051948051944,52.98701298701298 26.948051948051944,53.051948051948045 26.948051948051944,53.11688311688311" fill="none" stroke="black" stroke-width="0.6"></polyline><polyline points="26.948051948051944,53.11688311688311 26.948051948051944,53.18181818181818 26.948051948051944,53.246753246753244 26.948051948051944,53.31168831168831 26.948051948051944,53.37662337662337 26.948051948051944,53.441558441558435 26.948051948051944,53.5064935064935 26.948051948051944,53.57142857142857 26.948051948051944,53.63636363636363 26.948051948051944,53.7012987012987 26.948051948051944,53.76623376623376 26.948051948051944,53.831168831168824 26.948051948051944,53.89610389610389 26.948051948051944,54.02597402597402 26.948051948051944,54.090909090909086 26.948051948051944,54.28571428571428 26.948051948051944,54.6103896103896 26.948051948051944,54.99999999999999 26.948051948051944,55.454545454545446 26.948051948051944,55.90909090909091 26.948051948051944,56.298701298701296 26.948051948051944,56.55844155844155 26.948051948051944,56.88311688311688 26.948051948051944,57.077922077922075 26.948051948051944,57.2077922077922 27.01298701298701,57.402597402597394 27.01298701298701,57.53246753246753 27.01298701298701,57.59740259740259 27.01298701298701,57.662337662337656 27.01298701298701,57.72727272727272 27.01298701298701,57.79220779220778 27.01298701298701,57.857142857142854 27.01298701298701,57.92207792207792 27.01298701298701,57.98701298701298 27.01298701298701,58.051948051948045 27.01298701298701,58.11688311688311 27.01298701298701,58.18181818181817 27.01298701298701,58.246753246753244 27.01298701298701,58.31168831168831 27.077922077922075,58.441558441558435 27.077922077922075,58.5064935064935 27.14285714285714,58.57142857142857 27.14285714285714,58.7012987012987 27.27272727272727,58.831168831168824 27.4025974025974,59.02597402597402 27.467532467532465,59.220779220779214 27.597402597402596,59.41558441558441 27.727272727272723,59.74025974025974 27.857142857142854,59.99999999999999 28.05194805194805,60.38961038961038 28.18181818181818,60.71428571428571" fill="none" stroke="black" stroke-width="0.6"></polyline><polyline points="28.18181818181818,60.71428571428571 28.376623376623375,61.038961038961034 28.57142857142857,61.36363636363636 28.701298701298697,61.688311688311686 28.89610389610389,61.94805194805194 29.025974025974023,62.14285714285714 29.155844155844154,62.272727272727266 29.285714285714285,62.402597402597394 29.35064935064935,62.53246753246753 29.35064935064935,62.59740259740259 29.35064935064935,62.662337662337656 29.35064935064935,62.72727272727272 29.415584415584412,62.72727272727272 29.415584415584412,62.79220779220778 29.415584415584412,62.857142857142854 29.415584415584412,62.92207792207792 29.48051948051948,62.92207792207792 29.545454545454543,63.051948051948045 29.545454545454543,63.11688311688311 29.610389610389607,63.18181818181817 29.675324675324674,63.246753246753244 29.740259740259738,63.37662337662337 29.87012987012987,63.5064935064935 29.999999999999996,63.57142857142856 29.999999999999996,63.76623376623376 30.129870129870127,63.96103896103895 30.324675324675322,64.22077922077922 30.519480519480517,64.48051948051948 30.779220779220775,64.8051948051948 30.97402597402597,65.12987012987013 31.233766233766232,65.45454545454545 31.558441558441555,65.71428571428571 31.75324675324675,65.97402597402596 31.948051948051944,66.29870129870129 32.14285714285714,66.49350649350649 32.272727272727266,66.62337662337661 32.4025974025974,66.75324675324674 32.53246753246753,66.88311688311688 32.59740259740259,66.94805194805194 32.662337662337656,67.07792207792207 32.72727272727273,67.07792207792207 32.72727272727273,67.14285714285714 32.79220779220779,67.14285714285714 32.79220779220779,67.2077922077922 32.857142857142854,67.2077922077922 32.857142857142854,67.27272727272727 32.92207792207792,67.27272727272727 32.98701298701298,67.27272727272727 33.051948051948045,67.33766233766234 33.116883116883116,67.46753246753246 33.18181818181818,67.46753246753246" fill="none" stroke="black" stroke-width="0.6"></polyline><polyline points="33.18181818181818,67.46753246753246 33.31168831168831,67.53246753246752 33.44155844155844,67.59740259740259 33.506493506493506,67.72727272727272 33.63636363636363,67.85714285714285 33.76623376623376,67.92207792207792 33.96103896103896,68.05194805194805 34.22077922077922,68.18181818181817 34.480519480519476,68.44155844155844 34.74025974025974,68.63636363636363 35.064935064935064,68.8961038961039 35.38961038961039,69.15584415584415 35.58441558441558,69.4155844155844 35.77922077922078,69.74025974025973 35.97402597402597,69.93506493506493 36.16883116883117,70.06493506493506 36.298701298701296,70.25974025974025 36.49350649350649,70.38961038961038 36.62337662337662,70.51948051948051 36.688311688311686,70.64935064935064 36.81818181818181,70.71428571428571 36.94805194805195,70.71428571428571 37.01298701298701,70.77922077922078 37.01298701298701,70.84415584415584 37.14285714285714,70.84415584415584 37.2077922077922,70.9090909090909 37.272727272727266,70.9090909090909 37.272727272727266,70.97402597402596 37.33766233766234,70.97402597402596 37.4025974025974,70.97402597402596 37.467532467532465,70.97402597402596 37.59740259740259,71.03896103896103 37.662337662337656,71.03896103896103 37.72727272727273,71.10389610389609 37.857142857142854,71.10389610389609 37.92207792207792,71.16883116883116 38.051948051948045,71.23376623376623 38.18181818181818,71.29870129870129 38.37662337662337,71.36363636363636 38.506493506493506,71.49350649350649 38.7012987012987,71.62337662337661 38.896103896103895,71.68831168831169 39.15584415584415,71.81818181818181 39.41558441558441,71.94805194805194 39.675324675324674,72.07792207792207 40.064935064935064,72.27272727272727 40.45454545454545,72.33766233766234 40.77922077922077,72.53246753246752 41.23376623376623,72.66233766233765 41.55844155844156,72.85714285714285 41.81818181818181,72.92207792207792" fill="none" stroke="black" stroke-width="0.6"></polyline><polyline points="41.81818181818181,72.92207792207792 42.01298701298701,73.05194805194805 42.14285714285714,73.18181818181817 42.272727272727266,73.24675324675324 42.33766233766234,73.3116883116883 42.4025974025974,73.3116883116883 42.4025974025974,73.37662337662337 42.467532467532465,73.37662337662337 42.53246753246753,73.37662337662337 42.59740259740259,73.37662337662337 42.662337662337656,73.44155844155843 42.79220779220779,73.5064935064935 42.92207792207792,73.5064935064935 42.98701298701298,73.5064935064935 43.116883116883116,73.57142857142857 43.31168831168831,73.57142857142857 43.57142857142857,73.63636363636363 43.896103896103895,73.76623376623375 44.41558441558441,73.83116883116882 44.870129870129865,73.8961038961039 45.45454545454545,73.96103896103895 45.90909090909091,74.02597402597402 46.42857142857142,74.09090909090908 46.88311688311688,74.15584415584415 47.33766233766233,74.15584415584415 47.72727272727272,74.2207792207792 48.051948051948045,74.28571428571428 48.31168831168831,74.28571428571428 48.441558441558435,74.35064935064935 48.5064935064935,74.4155844155844 48.57142857142857,74.4155844155844 48.63636363636363,74.4155844155844 48.76623376623376,74.4155844155844 48.89610389610389,74.4155844155844 49.090909090909086,74.48051948051948 49.28571428571428,74.6103896103896 49.6103896103896,74.67532467532467 49.870129870129865,74.74025974025973 50.12987012987013,74.74025974025973 50.51948051948052,74.8051948051948 50.97402597402597,74.93506493506493 51.49350649350649,75 52.14285714285714,75 52.662337662337656,75.06493506493506 53.11688311688311,75.06493506493506 53.63636363636363,75.06493506493506 54.090909090909086,75.06493506493506 54.6103896103896,75.06493506493506 54.99999999999999,75.06493506493506 55.38961038961038,75.06493506493506 55.71428571428571,75.06493506493506" fill="none" stroke="black" stroke-width="0.6"></polyline><polyline points="55.71428571428571,75.06493506493506 55.90909090909091,75.06493506493506 56.038961038961034,75.06493506493506 56.16883116883116,75.06493506493506 56.233766233766225,75.06493506493506 56.36363636363636,75.06493506493506 56.42857142857142,75.06493506493506 56.49350649350649,75.06493506493506 56.55844155844155,75.06493506493506 56.623376623376615,75.06493506493506 56.688311688311686,75.06493506493506 56.75324675324675,75.06493506493506 56.81818181818181,75.06493506493506 56.88311688311688,75.06493506493506 56.94805194805194,75.06493506493506 57.012987012987004,75.06493506493506 57.077922077922075,75.06493506493506 57.14285714285714,75.06493506493506 57.272727272727266,75.06493506493506 57.467532467532465,75.06493506493506 57.79220779220778,74.93506493506493 58.246753246753244,74.74025974025973 58.76623376623376,74.6103896103896 59.28571428571428,74.4155844155844 59.74025974025974,74.15584415584415 60.19480519480519,74.02597402597402 60.51948051948052,73.83116883116882 60.844155844155836,73.7012987012987 61.038961038961034,73.57142857142857 61.298701298701296,73.5064935064935 61.36363636363636,73.5064935064935 61.49350649350649,73.44155844155843 61.623376623376615,73.44155844155843 61.688311688311686,73.44155844155843 61.75324675324675,73.44155844155843 61.75324675324675,73.37662337662337 61.81818181818181,73.37662337662337 61.88311688311688,73.37662337662337 61.88311688311688,73.3116883116883 61.94805194805194,73.3116883116883 62.077922077922075,73.24675324675324 62.2077922077922,73.18181818181817 62.272727272727266,73.18181818181817 62.467532467532465,73.18181818181817 62.53246753246753,73.05194805194805 62.72727272727272,72.98701298701297 62.857142857142854,72.92207792207792 62.98701298701298,72.85714285714285 63.11688311688311,72.79220779220779 63.246753246753244,72.72727272727272 63.37662337662337,72.59740259740259" fill="none" stroke="black" stroke-width="0.6"></polyline><polyline points="63.37662337662337,72.59740259740259 63.5064935064935,72.59740259740259 63.63636363636363,72.46753246753246 63.89610389610389,72.27272727272727 64.22077922077922,72.01298701298701 64.74025974025973,71.62337662337661 65.38961038961038,71.23376623376623 66.16883116883116,70.71428571428571 66.94805194805194,70.25974025974025 67.59740259740259,69.74025974025973 68.11688311688312,69.35064935064935 68.5064935064935,69.09090909090908 68.76623376623375,68.96103896103895 68.8961038961039,68.83116883116882 68.8961038961039,68.76623376623375 68.8961038961039,68.7012987012987 68.8961038961039,68.63636363636363 68.8961038961039,68.57142857142857 68.8961038961039,68.5064935064935 69.02597402597402,68.3116883116883 69.15584415584415,68.11688311688312 69.22077922077922,67.85714285714285 69.48051948051948,67.53246753246752 69.8051948051948,67.14285714285714 70.06493506493506,66.75324675324674 70.32467532467531,66.29870129870129 70.58441558441558,65.97402597402596 70.77922077922078,65.51948051948051 71.10389610389609,65.12987012987013 71.23376623376623,64.87012987012986 71.42857142857142,64.6103896103896 71.62337662337661,64.4155844155844 71.68831168831169,64.35064935064935 71.81818181818181,64.28571428571428 71.88311688311687,64.22077922077922 71.88311688311687,64.15584415584415 71.94805194805194,64.15584415584415 71.94805194805194,64.09090909090908 72.01298701298701,64.09090909090908 72.01298701298701,64.02597402597402 72.07792207792207,64.02597402597402 72.07792207792207,63.96103896103895 72.2077922077922,63.89610389610389 72.2077922077922,63.831168831168824 72.27272727272727,63.831168831168824 72.33766233766234,63.76623376623376 72.33766233766234,63.7012987012987 72.4025974025974,63.63636363636363 72.46753246753246,63.57142857142856 72.53246753246752,63.5064935064935 72.66233766233765,63.37662337662337" fill="none" stroke="black" stroke-width="0.6"></polyline><polyline points="72.66233766233765,63.37662337662337 72.72727272727272,63.18181818181817 72.85714285714285,62.98701298701298 73.05194805194805,62.662337662337656 73.3116883116883,62.2077922077922 73.5064935064935,61.75324675324675 73.76623376623375,61.16883116883116 74.02597402597402,60.649350649350644 74.2207792207792,60.19480519480519 74.48051948051948,59.74025974025974 74.67532467532467,59.41558441558441 74.87012987012986,59.15584415584415 74.93506493506493,58.96103896103896 75.06493506493506,58.831168831168824 75.12987012987013,58.76623376623376 75.12987012987013,58.7012987012987 75.19480519480518,58.63636363636363 75.19480519480518,58.57142857142857 75.19480519480518,58.5064935064935 75.19480519480518,58.441558441558435 75.25974025974025,58.441558441558435 75.25974025974025,58.37662337662337 75.25974025974025,58.246753246753244 75.25974025974025,58.18181818181817 75.32467532467531,58.18181818181817 75.32467532467531,58.11688311688311 75.32467532467531,57.98701298701298 75.38961038961038,57.857142857142854 75.38961038961038,57.79220779220778 75.45454545454545,57.59740259740259 75.51948051948051,57.33766233766233 75.58441558441558,57.012987012987004 75.71428571428571,56.55844155844155 75.84415584415584,56.038961038961034 75.9090909090909,55.51948051948052 75.97402597402596,54.99999999999999 76.10389610389609,54.54545454545454 76.16883116883116,54.15584415584415 76.16883116883116,53.831168831168824 76.16883116883116,53.63636363636363 76.16883116883116,53.441558441558435 76.23376623376623,53.37662337662337 76.23376623376623,53.246753246753244 76.23376623376623,53.18181818181818 76.29870129870129,53.18181818181818 76.29870129870129,53.11688311688311 76.36363636363636,53.051948051948045 76.36363636363636,52.98701298701298 76.36363636363636,52.92207792207792 76.42857142857142,52.857142857142854 76.42857142857142,52.72727272727272" fill="none" stroke="black" stroke-width="0.6"></polyline><polyline points="76.42857142857142,52.72727272727272 76.42857142857142,52.59740259740259 76.49350649350649,52.53246753246753 76.49350649350649,52.4025974025974 76.55844155844156,52.2077922077922 76.55844155844156,52.01298701298701 76.62337662337661,51.88311688311688 76.68831168831169,51.62337662337662 76.68831168831169,51.42857142857142 76.75324675324674,51.16883116883116 76.75324675324674,50.77922077922077 76.75324675324674,50.45454545454545 76.88311688311687,49.99999999999999 76.88311688311687,49.6103896103896 76.94805194805194,49.220779220779214 76.94805194805194,48.96103896103896 76.94805194805194,48.76623376623376 76.94805194805194,48.63636363636363 76.94805194805194,48.5064935064935 77.01298701298701,48.5064935064935 77.33766233766234,48.5064935064935 77.98701298701297,48.5064935064935" fill="none" stroke="black" stroke-width="0.6"></polyline></svg>