<svg height="100" width="100" preserveAspectRatio="xMidYMid meet"><polyline points="50.51948051948052,50.51948051948052 50.064935064935064,49.35064935064935 50.064935064935064,48.96103896103896 50.064935064935064,48.57142857142857 50.12987012987013,48.246753246753244 50.19480519480519,47.98701298701298 50.259740259740255,47.857142857142854 50.259740259740255,47.79220779220779 50.259740259740255,47.72727272727272 50.259740259740255,47.662337662337656 50.19480519480519,47.662337662337656 50.12987012987013,47.662337662337656 50.064935064935064,47.662337662337656 49.99999999999999,47.662337662337656 49.870129870129865,47.662337662337656 49.67532467532467,47.662337662337656 49.480519480519476,47.662337662337656 49.15584415584415,47.662337662337656 48.76623376623376,47.662337662337656 48.31168831168831,47.662337662337656 47.98701298701298,47.79220779220779 47.59740259740259,47.857142857142854 47.33766233766233,47.98701298701298 47.077922077922075,48.11688311688311 47.01298701298701,48.11688311688311 46.94805194805194,48.11688311688311 46.94805194805194,48.18181818181818 46.94805194805194,48.246753246753244 46.94805194805194,48.31168831168831 46.94805194805194,48.37662337662337 46.94805194805194,48.441558441558435 46.94805194805194,48.5064935064935 46.94805194805194,48.7012987012987 46.88311688311688,48.96103896103896 46.81818181818181,49.220779220779214 46.81818181818181,49.480519480519476 46.75324675324675,49.74025974025974 46.75324675324675,49.99999999999999 46.75324675324675,50.259740259740255 46.75324675324675,50.45454545454545 46.75324675324675,50.649350649350644 46.75324675324675,50.77922077922077 46.75324675324675,50.90909090909091 46.75324675324675,50.97402597402597 46.688311688311686,50.97402597402597 46.62337662337662,50.97402597402597 46.62337662337662,51.038961038961034 46.55844155844155,51.1038961038961 46.55844155844155,51.16883116883116 46.55844155844155,51.23376623376623 46.55844155844155,51.36363636363636" fill="none" stroke="black" stroke-width="0.6"></polyline><polyline points="46.55844155844155,51.36363636363636 46.55844155844155,51.49350649350649 46.55844155844155,51.688311688311686 46.55844155844155,51.94805194805194 46.688311688311686,52.2077922077922 46.75324675324675,52.4025974025974 46.94805194805194,52.59740259740259 47.077922077922075,52.857142857142854 47.2077922077922,52.98701298701298 47.33766233766233,53.18181818181818 47.4025974025974,53.246753246753244 47.53246753246753,53.37662337662337 47.662337662337656,53.441558441558435 47.72727272727272,53.441558441558435 47.79220779220779,53.441558441558435 47.857142857142854,53.441558441558435 47.857142857142854,53.5064935064935 47.92207792207792,53.5064935064935 47.92207792207792,53.57142857142857 47.98701298701298,53.57142857142857 47.98701298701298,53.63636363636363 47.98701298701298,53.7012987012987 48.051948051948045,53.7012987012987 48.11688311688311,53.76623376623376 48.18181818181818,53.76623376623376 48.31168831168831,53.76623376623376 48.441558441558435,53.89610389610389 48.7012987012987,53.96103896103896 48.96103896103896,54.090909090909086 49.28571428571428,54.15584415584415 49.6103896103896,54.220779220779214 49.870129870129865,54.35064935064935 50.19480519480519,54.35064935064935 50.51948051948052,54.35064935064935 50.77922077922077,54.35064935064935 51.038961038961034,54.35064935064935 51.16883116883116,54.35064935064935 51.298701298701296,54.35064935064935 51.42857142857142,54.35064935064935 51.49350649350649,54.35064935064935 51.55844155844155,54.35064935064935 51.62337662337662,54.35064935064935 51.688311688311686,54.35064935064935 51.75324675324675,54.35064935064935 51.81818181818181,54.35064935064935 51.94805194805194,54.35064935064935 52.2077922077922,54.35064935064935 52.53246753246753,54.220779220779214 52.857142857142854,54.090909090909086 53.18181818181818,53.76623376623376 53.5064935064935,53.57142857142857" fill="none" stroke="black" stroke-width="0.6"></polyline><polyline points="53.5064935064935,53.57142857142857 53.831168831168824,53.31168831168831 54.15584415584415,53.051948051948045 54.41558441558441,52.857142857142854 54.67532467532467,52.72727272727272 54.8051948051948,52.662337662337656 54.93506493506493,52.59740259740259 54.93506493506493,52.53246753246753 54.93506493506493,52.467532467532465 54.99999999999999,52.467532467532465 54.99999999999999,52.4025974025974 54.99999999999999,52.33766233766233 54.99999999999999,52.272727272727266 54.99999999999999,52.2077922077922 55.06493506493506,52.14285714285714 55.06493506493506,51.94805194805194 55.12987012987013,51.81818181818181 55.19480519480519,51.55844155844155 55.259740259740255,51.298701298701296 55.38961038961038,50.97402597402597 55.58441558441558,50.38961038961038 55.77922077922077,49.93506493506493 55.90909090909091,49.41558441558441 56.038961038961034,48.96103896103896 56.16883116883116,48.57142857142857 56.233766233766225,48.31168831168831 56.233766233766225,48.051948051948045 56.298701298701296,47.79220779220779 56.42857142857142,47.53246753246753 56.49350649350649,47.4025974025974 56.55844155844155,47.2077922077922 56.55844155844155,47.14285714285714 56.55844155844155,47.01298701298701 56.623376623376615,47.01298701298701 56.623376623376615,46.94805194805194 56.623376623376615,46.88311688311688 56.623376623376615,46.81818181818181 56.623376623376615,46.75324675324675 56.623376623376615,46.688311688311686 56.623376623376615,46.55844155844155 56.623376623376615,46.42857142857142 56.55844155844155,46.23376623376623 56.49350649350649,46.038961038961034 56.298701298701296,45.84415584415584 56.16883116883116,45.58441558441558 55.97402597402597,45.32467532467532 55.77922077922077,44.99999999999999 55.58441558441558,44.675324675324674 55.259740259740255,44.480519480519476 55.06493506493506,44.285714285714285 54.93506493506493,44.090909090909086" fill="none" stroke="black" stroke-width="0.6"></polyline><polyline points="54.93506493506493,44.090909090909086 54.74025974025974,43.96103896103896 54.67532467532467,43.831168831168824 54.54545454545454,43.7012987012987 54.54545454545454,43.63636363636363 54.480519480519476,43.63636363636363 54.480519480519476,43.57142857142857 54.41558441558441,43.57142857142857 54.41558441558441,43.506493506493506 54.35064935064935,43.506493506493506 54.35064935064935,43.441558441558435 54.28571428571428,43.441558441558435 54.220779220779214,43.441558441558435 54.15584415584415,43.441558441558435 54.15584415584415,43.37662337662337 54.090909090909086,43.37662337662337 54.090909090909086,43.31168831168831 54.02597402597402,43.246753246753244 53.96103896103896,43.18181818181818 53.831168831168824,43.116883116883116 53.7012987012987,43.051948051948045 53.5064935064935,42.857142857142854 53.31168831168831,42.72727272727273 53.051948051948045,42.53246753246753 52.72727272727272,42.4025974025974 52.4025974025974,42.2077922077922 52.01298701298701,42.077922077922075 51.62337662337662,41.88311688311688 51.298701298701296,41.81818181818181 50.97402597402597,41.688311688311686 50.77922077922077,41.62337662337662 50.58441558441558,41.55844155844156 50.51948051948052,41.55844155844156 50.45454545454545,41.49350649350649 50.38961038961038,41.49350649350649 50.32467532467532,41.49350649350649 50.32467532467532,41.42857142857142 50.259740259740255,41.42857142857142 50.19480519480519,41.42857142857142 50.19480519480519,41.36363636363636 50.12987012987013,41.36363636363636 50.064935064935064,41.36363636363636 49.99999999999999,41.36363636363636 49.93506493506493,41.36363636363636 49.870129870129865,41.36363636363636 49.8051948051948,41.36363636363636 49.6103896103896,41.36363636363636 49.480519480519476,41.36363636363636 49.220779220779214,41.36363636363636 48.96103896103896,41.36363636363636 48.57142857142857,41.36363636363636" fill="none" stroke="black" stroke-width="0.6"></polyline><polyline points="48.57142857142857,41.36363636363636 48.246753246753244,41.36363636363636 47.857142857142854,41.36363636363636 47.467532467532465,41.36363636363636 47.14285714285714,41.49350649350649 46.81818181818181,41.55844155844156 46.55844155844155,41.688311688311686 46.36363636363636,41.81818181818181 46.1038961038961,41.88311688311688 45.84415584415584,41.94805194805195 45.71428571428571,42.01298701298701 45.51948051948052,42.077922077922075 45.38961038961038,42.14285714285714 45.259740259740255,42.14285714285714 45.12987012987013,42.2077922077922 45.064935064935064,42.2077922077922 44.99999999999999,42.2077922077922 44.93506493506493,42.2077922077922 44.870129870129865,42.2077922077922 44.870129870129865,42.272727272727266 44.8051948051948,42.33766233766234 44.74025974025974,42.4025974025974 44.6103896103896,42.467532467532465 44.41558441558441,42.662337662337656 44.15584415584415,42.92207792207792 43.896103896103895,43.31168831168831 43.57142857142857,43.76623376623376 43.18181818181818,44.220779220779214 42.857142857142854,44.675324675324674 42.467532467532465,45.19480519480519 42.14285714285714,45.58441558441558 41.81818181818181,45.90909090909091 41.55844155844156,46.23376623376623 41.36363636363636,46.36363636363636 41.298701298701296,46.55844155844155 41.23376623376623,46.62337662337662 41.23376623376623,46.688311688311686 41.16883116883116,46.688311688311686 41.16883116883116,46.75324675324675 41.16883116883116,46.88311688311688 41.1038961038961,46.94805194805194 41.038961038961034,47.2077922077922 40.97402597402597,47.53246753246753 40.84415584415584,47.92207792207792 40.71428571428571,48.37662337662337 40.45454545454545,48.831168831168824 40.32467532467532,49.220779220779214 40.19480519480519,49.6103896103896 40.12987012987013,49.870129870129865 40.12987012987013,49.99999999999999 40.12987012987013,50.19480519480519" fill="none" stroke="black" stroke-width="0.6"></polyline><polyline points="40.12987012987013,50.19480519480519 40.12987012987013,50.32467532467532 40.12987012987013,50.38961038961038 40.12987012987013,50.45454545454545 40.064935064935064,50.45454545454545 40.064935064935064,50.51948051948052 40.064935064935064,50.58441558441558 40.064935064935064,50.649350649350644 39.99999999999999,50.71428571428571 39.99999999999999,50.97402597402597 39.99999999999999,51.16883116883116 39.99999999999999,51.55844155844155 39.99999999999999,51.88311688311688 39.99999999999999,52.2077922077922 39.99999999999999,52.59740259740259 39.99999999999999,52.98701298701298 39.99999999999999,53.31168831168831 40.064935064935064,53.57142857142857 40.12987012987013,53.76623376623376 40.12987012987013,53.96103896103896 40.19480519480519,54.090909090909086 40.19480519480519,54.28571428571428 40.259740259740255,54.41558441558441 40.32467532467532,54.480519480519476 40.32467532467532,54.54545454545454 40.32467532467532,54.6103896103896 40.32467532467532,54.67532467532467 40.38961038961038,54.67532467532467 40.38961038961038,54.74025974025974 40.38961038961038,54.8051948051948 40.45454545454545,54.8051948051948 40.45454545454545,54.870129870129865 40.45454545454545,54.93506493506493 40.45454545454545,54.99999999999999 40.51948051948052,54.99999999999999 40.58441558441558,55.06493506493506 40.58441558441558,55.12987012987013 40.649350649350644,55.19480519480519 40.71428571428571,55.32467532467532 40.84415584415584,55.38961038961038 40.97402597402597,55.649350649350644 41.038961038961034,55.844155844155836 41.23376623376623,56.038961038961034 41.42857142857142,56.298701298701296 41.62337662337662,56.49350649350649 41.75324675324675,56.623376623376615 41.88311688311688,56.81818181818181 42.01298701298701,56.88311688311688 42.14285714285714,57.077922077922075 42.272727272727266,57.2077922077922 42.33766233766234,57.2077922077922" fill="none" stroke="black" stroke-width="0.6"></polyline><polyline points="42.33766233766234,57.2077922077922 42.4025974025974,57.2077922077922 42.4025974025974,57.272727272727266 42.467532467532465,57.272727272727266 42.53246753246753,57.33766233766233 42.59740259740259,57.33766233766233 42.59740259740259,57.402597402597394 42.662337662337656,57.402597402597394 42.662337662337656,57.467532467532465 42.72727272727273,57.467532467532465 42.72727272727273,57.53246753246753 42.79220779220779,57.53246753246753 42.857142857142854,57.53246753246753 42.92207792207792,57.59740259740259 42.92207792207792,57.662337662337656 43.051948051948045,57.79220779220778 43.18181818181818,57.857142857142854 43.31168831168831,57.98701298701298 43.57142857142857,58.18181818181817 43.831168831168824,58.37662337662337 44.15584415584415,58.63636363636363 44.54545454545454,58.89610389610389 44.99999999999999,59.220779220779214 45.45454545454545,59.480519480519476 45.90909090909091,59.74025974025974 46.36363636363636,59.99999999999999 46.75324675324675,60.12987012987013 47.272727272727266,60.32467532467532 47.72727272727272,60.38961038961038 48.11688311688311,60.51948051948052 48.441558441558435,60.51948051948052 48.63636363636363,60.51948051948052 48.7012987012987,60.51948051948052 48.76623376623376,60.51948051948052 48.831168831168824,60.51948051948052 48.96103896103896,60.51948051948052 49.02597402597402,60.58441558441558 49.28571428571428,60.58441558441558 49.480519480519476,60.649350649350644 49.8051948051948,60.649350649350644 50.19480519480519,60.649350649350644 50.649350649350644,60.649350649350644 51.298701298701296,60.649350649350644 52.01298701298701,60.649350649350644 52.72727272727272,60.649350649350644 53.37662337662337,60.649350649350644 54.02597402597402,60.454545454545446 54.67532467532467,60.32467532467532 55.259740259740255,60.32467532467532 55.71428571428571,60.259740259740255 56.038961038961034,60.259740259740255" fill="none" stroke="black" stroke-width="0.6"></polyline><polyline points="56.038961038961034,60.259740259740255 56.16883116883116,60.259740259740255 56.233766233766225,60.259740259740255 56.233766233766225,60.19480519480519 56.298701298701296,60.19480519480519 56.298701298701296,60.12987012987013 56.42857142857142,60.12987012987013 56.42857142857142,60.06493506493506 56.55844155844155,60.06493506493506 56.623376623376615,59.99999999999999 56.81818181818181,59.870129870129865 57.012987012987004,59.74025974025974 57.33766233766233,59.480519480519476 57.72727272727272,59.15584415584415 58.11688311688311,58.76623376623376 58.7012987012987,58.37662337662337 59.15584415584415,57.857142857142854 59.6103896103896,57.53246753246753 59.93506493506493,57.14285714285714 60.19480519480519,56.88311688311688 60.32467532467532,56.688311688311686 60.454545454545446,56.55844155844155 60.58441558441558,56.55844155844155 60.58441558441558,56.49350649350649 60.58441558441558,56.42857142857142 60.58441558441558,56.36363636363636 60.58441558441558,56.298701298701296 60.649350649350644,56.233766233766225 60.649350649350644,56.16883116883116 60.649350649350644,56.038961038961034 60.649350649350644,55.97402597402597 60.71428571428571,55.77922077922077 60.844155844155836,55.58441558441558 60.97402597402597,55.19480519480519 61.038961038961034,54.74025974025974 61.233766233766225,54.220779220779214 61.42857142857142,53.63636363636363 61.75324675324675,53.051948051948045 62.077922077922075,52.4025974025974 62.402597402597394,51.81818181818181 62.59740259740259,51.298701298701296 62.79220779220778,50.97402597402597 62.92207792207792,50.649350649350644 63.051948051948045,50.38961038961038 63.18181818181817,50.259740259740255 63.18181818181817,50.12987012987013 63.246753246753244,50.064935064935064 63.31168831168831,49.99999999999999 63.37662337662337,49.99999999999999 63.37662337662337,49.93506493506493 63.37662337662337,49.870129870129865" fill="none" stroke="black" stroke-width="0.6"></polyline><polyline points="63.37662337662337,49.870129870129865 63.37662337662337,49.8051948051948 63.37662337662337,49.74025974025974 63.37662337662337,49.67532467532467 63.37662337662337,49.6103896103896 63.37662337662337,49.54545454545454 63.37662337662337,49.480519480519476 63.37662337662337,49.41558441558441 63.37662337662337,49.28571428571428 63.37662337662337,49.220779220779214 63.37662337662337,49.090909090909086 63.37662337662337,49.02597402597402 63.37662337662337,48.89610389610389 63.37662337662337,48.7012987012987 63.37662337662337,48.441558441558435 63.37662337662337,48.246753246753244 63.37662337662337,47.92207792207792 63.37662337662337,47.53246753246753 63.246753246753244,47.077922077922075 63.18181818181817,46.55844155844155 63.051948051948045,46.1038961038961 62.92207792207792,45.649350649350644 62.79220779220778,45.19480519480519 62.59740259740259,44.74025974025974 62.53246753246753,44.41558441558441 62.33766233766233,44.090909090909086 62.272727272727266,43.831168831168824 62.2077922077922,43.63636363636363 62.14285714285714,43.441558441558435 62.14285714285714,43.31168831168831 62.14285714285714,43.246753246753244 62.14285714285714,43.18181818181818 62.14285714285714,43.116883116883116 62.14285714285714,43.051948051948045 62.14285714285714,42.98701298701298 62.14285714285714,42.92207792207792 62.14285714285714,42.857142857142854 62.077922077922075,42.857142857142854 62.077922077922075,42.79220779220779 62.012987012987004,42.79220779220779 61.94805194805194,42.72727272727273 61.88311688311688,42.59740259740259 61.88311688311688,42.467532467532465 61.688311688311686,42.33766233766234 61.55844155844155,42.2077922077922 61.36363636363636,41.88311688311688 61.1038961038961,41.62337662337662 60.90909090909091,41.23376623376623 60.58441558441558,40.90909090909091 60.259740259740255,40.45454545454545 59.8051948051948,39.99999999999999" fill="none" stroke="black" stroke-width="0.6"></polyline><polyline points="59.8051948051948,39.99999999999999 59.41558441558441,39.675324675324674 59.02597402597402,39.285714285714285 58.7012987012987,39.02597402597402 58.37662337662337,38.76623376623376 58.11688311688311,38.57142857142857 57.92207792207792,38.441558441558435 57.79220779220778,38.31168831168831 57.79220779220778,38.246753246753244 57.79220779220778,38.18181818181818 57.79220779220778,38.116883116883116 57.72727272727272,38.116883116883116 57.662337662337656,38.116883116883116 57.662337662337656,38.051948051948045 57.662337662337656,37.98701298701298 57.59740259740259,37.98701298701298 57.53246753246753,37.92207792207792 57.467532467532465,37.857142857142854 57.467532467532465,37.79220779220779 57.402597402597394,37.79220779220779 57.33766233766233,37.72727272727273 57.272727272727266,37.662337662337656 57.14285714285714,37.53246753246753 57.012987012987004,37.4025974025974 56.81818181818181,37.14285714285714 56.49350649350649,36.94805194805195 56.1038961038961,36.688311688311686 55.58441558441558,36.49350649350649 55.06493506493506,36.23376623376623 54.54545454545454,36.038961038961034 54.02597402597402,35.90909090909091 53.5064935064935,35.71428571428571 53.11688311688311,35.58441558441558 52.72727272727272,35.45454545454545 52.4025974025974,35.32467532467532 52.14285714285714,35.32467532467532 51.81818181818181,35.259740259740255 51.688311688311686,35.19480519480519 51.55844155844155,35.12987012987013 51.49350649350649,35.12987012987013 51.49350649350649,35.064935064935064 51.42857142857142,35.064935064935064 51.36363636363636,35.064935064935064 51.298701298701296,35 51.23376623376623,35 51.16883116883116,35 51.1038961038961,35 51.038961038961034,35 50.97402597402597,35 50.90909090909091,35 50.84415584415584,35" fill="none" stroke="black" stroke-width="0.6"></polyline><polyline points="50.84415584415584,35 50.77922077922077,35 50.649350649350644,35 50.58441558441558,35 50.51948051948052,35 50.38961038961038,35 50.259740259740255,35 50.064935064935064,35 49.74025974025974,35 49.35064935064935,35 48.76623376623376,35 48.051948051948045,35 47.33766233766233,35 46.688311688311686,35 46.1038961038961,35.12987012987013 45.45454545454545,35.259740259740255 44.870129870129865,35.32467532467532 44.220779220779214,35.45454545454545 43.76623376623376,35.51948051948052 43.441558441558435,35.58441558441558 43.18181818181818,35.58441558441558 43.051948051948045,35.649350649350644 42.92207792207792,35.649350649350644 42.857142857142854,35.649350649350644 42.857142857142854,35.71428571428571 42.79220779220779,35.71428571428571 42.72727272727273,35.71428571428571 42.662337662337656,35.71428571428571 42.662337662337656,35.77922077922078 42.59740259740259,35.77922077922078 42.53246753246753,35.77922077922078 42.53246753246753,35.84415584415584 42.467532467532465,35.84415584415584 42.4025974025974,35.84415584415584 42.33766233766234,35.84415584415584 42.33766233766234,35.90909090909091 42.272727272727266,35.90909090909091 42.2077922077922,35.90909090909091 42.14285714285714,35.97402597402597 42.077922077922075,35.97402597402597 42.01298701298701,36.1038961038961 42.01298701298701,36.16883116883117 41.88311688311688,36.298701298701296 41.688311688311686,36.55844155844156 41.42857142857142,36.94805194805195 41.038961038961034,37.33766233766234 40.71428571428571,37.79220779220779 40.259740259740255,38.31168831168831 39.870129870129865,38.76623376623376 39.480519480519476,39.220779220779214 39.15584415584415,39.6103896103896" fill="none" stroke="black" stroke-width="0.6"></polyline><polyline points="39.15584415584415,39.6103896103896 38.831168831168824,39.93506493506493 38.57142857142857,40.064935064935064 38.441558441558435,40.259740259740255 38.31168831168831,40.32467532467532 38.246753246753244,40.32467532467532 38.246753246753244,40.38961038961038 38.18181818181818,40.38961038961038 38.18181818181818,40.45454545454545 38.18181818181818,40.51948051948052 38.116883116883116,40.51948051948052 38.051948051948045,40.51948051948052 38.051948051948045,40.58441558441558 37.98701298701298,40.58441558441558 37.92207792207792,40.58441558441558 37.92207792207792,40.649350649350644 37.857142857142854,40.649350649350644 37.857142857142854,40.77922077922077 37.857142857142854,40.84415584415584 37.72727272727273,40.90909090909091 37.59740259740259,41.038961038961034 37.467532467532465,41.298701298701296 37.272727272727266,41.62337662337662 36.94805194805195,42.01298701298701 36.62337662337662,42.4025974025974 36.298701298701296,42.79220779220779 36.038961038961034,43.246753246753244 35.77922077922078,43.7012987012987 35.58441558441558,44.090909090909086 35.38961038961039,44.285714285714285 35.32467532467532,44.480519480519476 35.259740259740255,44.6103896103896 35.259740259740255,44.675324675324674 35.259740259740255,44.74025974025974 35.259740259740255,44.8051948051948 35.259740259740255,44.870129870129865 35.19480519480519,44.870129870129865 35.19480519480519,44.99999999999999 35.12987012987013,45.12987012987013 35.064935064935064,45.259740259740255 35.064935064935064,45.38961038961038 34.93506493506493,45.649350649350644 34.8051948051948,45.90909090909091 34.675324675324674,46.36363636363636 34.41558441558441,46.81818181818181 34.285714285714285,47.33766233766233 34.090909090909086,47.79220779220779 33.896103896103895,48.37662337662337 33.76623376623376,48.89610389610389 33.63636363636363,49.28571428571428 33.57142857142857,49.6103896103896" fill="none" stroke="black" stroke-width="0.6"></polyline><polyline points="33.57142857142857,49.6103896103896 33.57142857142857,49.8051948051948 33.57142857142857,49.93506493506493 33.57142857142857,49.99999999999999 33.57142857142857,50.12987012987013 33.57142857142857,50.19480519480519 33.57142857142857,50.259740259740255 33.57142857142857,50.32467532467532 33.57142857142857,50.38961038961038 33.57142857142857,50.45454545454545 33.57142857142857,50.51948051948052 33.57142857142857,50.649350649350644 33.57142857142857,50.77922077922077 33.57142857142857,50.97402597402597 33.57142857142857,51.23376623376623 33.57142857142857,51.55844155844155 33.57142857142857,51.94805194805194 33.506493506493506,52.33766233766233 33.506493506493506,52.72727272727272 33.506493506493506,53.11688311688311 33.506493506493506,53.441558441558435 33.506493506493506,53.7012987012987 33.506493506493506,53.89610389610389 33.506493506493506,54.090909090909086 33.506493506493506,54.28571428571428 33.506493506493506,54.41558441558441 33.506493506493506,54.54545454545454 33.506493506493506,54.67532467532467 33.506493506493506,54.74025974025974 33.506493506493506,54.8051948051948 33.506493506493506,54.870129870129865 33.506493506493506,54.93506493506493 33.506493506493506,54.99999999999999 33.506493506493506,55.06493506493506 33.506493506493506,55.12987012987013 33.506493506493506,55.19480519480519 33.57142857142857,55.19480519480519 33.63636363636363,55.259740259740255 33.63636363636363,55.32467532467532 33.7012987012987,55.32467532467532 33.7012987012987,55.38961038961038 33.76623376623376,55.454545454545446 33.76623376623376,55.58441558441558 33.896103896103895,55.649350649350644 33.96103896103896,55.71428571428571 34.090909090909086,55.90909090909091 34.090909090909086,56.038961038961034 34.22077922077922,56.298701298701296 34.35064935064935,56.55844155844155 34.41558441558441,57.012987012987004 34.54545454545454,57.53246753246753" fill="none" stroke="black" stroke-width="0.6"></polyline><polyline points="34.54545454545454,57.53246753246753 34.74025974025974,58.18181818181817 34.8051948051948,58.76623376623376 35,59.41558441558441 35.064935064935064,59.870129870129865 35.259740259740255,60.32467532467532 35.38961038961039,60.649350649350644 35.58441558441558,60.90909090909091 35.71428571428571,61.038961038961034 35.84415584415584,61.16883116883116 35.97402597402597,61.298701298701296 35.97402597402597,61.36363636363636 36.038961038961034,61.42857142857142 36.1038961038961,61.49350649350649 36.16883116883117,61.55844155844155 36.23376623376623,61.623376623376615 36.298701298701296,61.688311688311686 36.298701298701296,61.75324675324675 36.36363636363636,61.75324675324675 36.36363636363636,61.81818181818181 36.42857142857142,61.88311688311688 36.49350649350649,61.94805194805194 36.55844155844156,61.94805194805194 36.62337662337662,62.012987012987004 36.688311688311686,62.14285714285714 36.81818181818181,62.2077922077922 36.94805194805195,62.33766233766233 37.077922077922075,62.467532467532465 37.272727272727266,62.59740259740259 37.53246753246753,62.857142857142854 37.79220779220779,63.11688311688311 38.051948051948045,63.37662337662337 38.246753246753244,63.63636363636363 38.506493506493506,63.831168831168824 38.63636363636363,64.09090909090908 38.831168831168824,64.28571428571428 38.896103896103895,64.48051948051948 39.02597402597402,64.6103896103896 39.15584415584415,64.74025974025973 39.220779220779214,64.8051948051948 39.35064935064935,64.93506493506493 39.41558441558441,65 39.41558441558441,65.06493506493506 39.480519480519476,65.06493506493506 39.54545454545454,65.06493506493506 39.54545454545454,65.12987012987013 39.6103896103896,65.12987012987013 39.675324675324674,65.12987012987013 39.74025974025974,65.19480519480518 39.8051948051948,65.25974025974025 39.870129870129865,65.32467532467531" fill="none" stroke="black" stroke-width="0.6"></polyline><polyline points="39.870129870129865,65.32467532467531 39.93506493506493,65.32467532467531 39.99999999999999,65.32467532467531 40.12987012987013,65.32467532467531 40.19480519480519,65.38961038961038 40.38961038961038,65.51948051948051 40.51948051948052,65.58441558441558 40.77922077922077,65.64935064935064 41.038961038961034,65.77922077922078 41.36363636363636,65.97402597402596 41.688311688311686,66.10389610389609 42.01298701298701,66.29870129870129 42.272727272727266,66.42857142857142 42.59740259740259,66.62337662337661 42.79220779220779,66.68831168831169 43.051948051948045,66.81818181818181 43.246753246753244,66.94805194805194 43.37662337662337,67.01298701298701 43.57142857142857,67.01298701298701 43.63636363636363,67.07792207792207 43.7012987012987,67.07792207792207 43.76623376623376,67.07792207792207 43.831168831168824,67.07792207792207 43.831168831168824,67.14285714285714 43.896103896103895,67.14285714285714 43.96103896103896,67.14285714285714 44.090909090909086,67.2077922077922 44.220779220779214,67.2077922077922 44.285714285714285,67.27272727272727 44.480519480519476,67.27272727272727 44.6103896103896,67.27272727272727 44.870129870129865,67.27272727272727 45.064935064935064,67.33766233766234 45.32467532467532,67.4025974025974 45.51948051948052,67.53246753246752 45.77922077922077,67.53246753246752 46.1038961038961,67.66233766233766 46.36363636363636,67.72727272727272 46.688311688311686,67.85714285714285 47.077922077922075,67.85714285714285 47.4025974025974,67.92207792207792 47.79220779220779,67.98701298701297 48.11688311688311,67.98701298701297 48.441558441558435,67.98701298701297 48.76623376623376,67.98701298701297 48.96103896103896,67.98701298701297 49.090909090909086,67.98701298701297 49.220779220779214,67.98701298701297 49.28571428571428,67.98701298701297 49.35064935064935,67.98701298701297 49.480519480519476,68.05194805194805" fill="none" stroke="black" stroke-width="0.6"></polyline><polyline points="49.480519480519476,68.05194805194805 49.6103896103896,68.05194805194805 49.74025974025974,68.11688311688312 49.93506493506493,68.11688311688312 50.259740259740255,68.11688311688312 50.51948051948052,68.18181818181817 50.90909090909091,68.18181818181817 51.298701298701296,68.18181818181817 51.688311688311686,68.18181818181817 52.077922077922075,68.18181818181817 52.4025974025974,68.18181818181817 52.662337662337656,68.18181818181817 52.857142857142854,68.18181818181817 53.051948051948045,68.18181818181817 53.18181818181818,68.18181818181817 53.31168831168831,68.18181818181817 53.37662337662337,68.18181818181817 53.441558441558435,68.18181818181817 53.5064935064935,68.18181818181817 53.57142857142857,68.18181818181817 53.63636363636363,68.18181818181817 53.7012987012987,68.18181818181817 53.76623376623376,68.18181818181817 53.831168831168824,68.18181818181817 53.89610389610389,68.18181818181817 53.96103896103896,68.18181818181817 54.02597402597402,68.18181818181817 54.090909090909086,68.18181818181817 54.220779220779214,68.18181818181817 54.480519480519476,68.18181818181817 54.8051948051948,68.18181818181817 55.32467532467532,68.05194805194805 55.90909090909091,67.85714285714285 56.55844155844155,67.53246753246752 57.14285714285714,67.27272727272727 57.92207792207792,66.94805194805194 58.63636363636363,66.68831168831169 59.28571428571428,66.55844155844156 59.74025974025974,66.36363636363636 59.99999999999999,66.23376623376623 60.19480519480519,66.16883116883116 60.32467532467532,66.16883116883116 60.32467532467532,66.10389610389609 60.32467532467532,66.03896103896103 60.38961038961038,65.97402597402596 60.51948051948052,65.97402597402596 60.58441558441558,65.97402597402596 60.649350649350644,65.84415584415584 60.844155844155836,65.71428571428571 61.038961038961034,65.64935064935064 61.298701298701296,65.51948051948051" fill="none" stroke="black" stroke-width="0.6"></polyline><polyline points="61.298701298701296,65.51948051948051 61.55844155844155,65.32467532467531 61.88311688311688,65.06493506493506 62.2077922077922,64.74025974025973 62.662337662337656,64.4155844155844 63.11688311688311,64.09090909090908 63.57142857142856,63.76623376623376 64.09090909090908,63.37662337662337 64.54545454545453,62.92207792207792 65.12987012987013,62.53246753246753 65.71428571428571,62.14285714285714 66.10389610389609,61.88311688311688 66.36363636363636,61.623376623376615 66.55844155844156,61.623376623376615 66.68831168831169,61.55844155844155 66.68831168831169,61.49350649350649 66.68831168831169,61.42857142857142 66.68831168831169,61.36363636363636 66.68831168831169,61.298701298701296 66.68831168831169,61.233766233766225 66.68831168831169,61.16883116883116 66.68831168831169,60.97402597402597 66.75324675324674,60.844155844155836 66.81818181818181,60.649350649350644 66.88311688311688,60.454545454545446 66.94805194805194,60.19480519480519 67.01298701298701,59.870129870129865 67.14285714285714,59.41558441558441 67.27272727272727,59.090909090909086 67.46753246753246,58.63636363636363 67.59740259740259,58.18181818181817 67.79220779220779,57.79220779220778 67.92207792207792,57.402597402597394 68.05194805194805,57.077922077922075 68.24675324675324,56.81818181818181 68.3116883116883,56.55844155844155 68.44155844155844,56.42857142857142 68.5064935064935,56.298701298701296 68.57142857142857,56.16883116883116 68.57142857142857,56.038961038961034 68.63636363636363,55.97402597402597 68.63636363636363,55.90909090909091 68.7012987012987,55.90909090909091 68.7012987012987,55.844155844155836 68.7012987012987,55.77922077922077 68.7012987012987,55.71428571428571 68.7012987012987,55.649350649350644 68.7012987012987,55.58441558441558 68.7012987012987,55.51948051948052 68.7012987012987,55.454545454545446 68.7012987012987,55.38961038961038" fill="none" stroke="black" stroke-width="0.6"></polyline><polyline points="68.7012987012987,55.38961038961038 68.7012987012987,55.32467532467532 68.7012987012987,55.259740259740255 68.7012987012987,55.19480519480519 68.7012987012987,55.12987012987013 68.7012987012987,55.06493506493506 68.7012987012987,54.93506493506493 68.76623376623375,54.74025974025974 68.8961038961039,54.35064935064935 68.96103896103895,53.89610389610389 69.09090909090908,53.441558441558435 69.15584415584415,52.92207792207792 69.22077922077922,52.53246753246753 69.28571428571428,52.077922077922075 69.35064935064935,51.688311688311686 69.4155844155844,51.298701298701296 69.48051948051948,50.97402597402597 69.48051948051948,50.71428571428571 69.54545454545453,50.51948051948052 69.54545454545453,50.38961038961038 69.54545454545453,50.32467532467532 69.54545454545453,50.259740259740255 69.6103896103896,50.19480519480519 69.6103896103896,50.12987012987013 69.6103896103896,50.064935064935064 69.6103896103896,49.99999999999999 69.6103896103896,49.93506493506493 69.6103896103896,49.870129870129865 69.6103896103896,49.8051948051948 69.6103896103896,49.67532467532467 69.6103896103896,49.480519480519476 69.6103896103896,49.35064935064935 69.6103896103896,49.090909090909086 69.6103896103896,48.76623376623376 69.6103896103896,48.31168831168831 69.6103896103896,47.79220779220779 69.6103896103896,47.2077922077922 69.6103896103896,46.55844155844155 69.6103896103896,45.97402597402597 69.6103896103896,45.45454545454545 69.6103896103896,44.93506493506493 69.54545454545453,44.480519480519476 69.54545454545453,44.090909090909086 69.54545454545453,43.7012987012987 69.54545454545453,43.37662337662337 69.54545454545453,43.18181818181818 69.54545454545453,43.051948051948045 69.54545454545453,42.92207792207792 69.48051948051948,42.92207792207792 69.48051948051948,42.857142857142854 69.48051948051948,42.79220779220779" fill="none" stroke="black" stroke-width="0.6"></polyline><polyline points="69.48051948051948,42.79220779220779 69.48051948051948,42.72727272727273 69.48051948051948,42.662337662337656 69.48051948051948,42.59740259740259 69.4155844155844,42.59740259740259 69.4155844155844,42.53246753246753 69.35064935064935,42.53246753246753 69.35064935064935,42.467532467532465 69.28571428571428,42.4025974025974 69.22077922077922,42.33766233766234 69.22077922077922,42.272727272727266 69.15584415584415,42.2077922077922 69.15584415584415,42.14285714285714 69.09090909090908,42.01298701298701 69.02597402597402,41.88311688311688 68.8961038961039,41.688311688311686 68.83116883116882,41.49350649350649 68.63636363636363,41.23376623376623 68.44155844155844,40.90909090909091 68.18181818181817,40.58441558441558 67.92207792207792,40.12987012987013 67.59740259740259,39.675324675324674 67.27272727272727,39.285714285714285 67.01298701298701,38.896103896103895 66.75324675324674,38.506493506493506 66.49350649350649,38.18181818181818 66.29870129870129,37.92207792207792 66.03896103896103,37.79220779220779 65.97402597402596,37.59740259740259 65.84415584415584,37.467532467532465 65.71428571428571,37.467532467532465 65.71428571428571,37.4025974025974 65.71428571428571,37.33766233766234 65.71428571428571,37.272727272727266 65.64935064935064,37.272727272727266 65.64935064935064,37.2077922077922 65.58441558441558,37.2077922077922 65.58441558441558,37.14285714285714 65.51948051948051,37.077922077922075 65.45454545454545,37.01298701298701 65.45454545454545,36.94805194805195 65.38961038961038,36.88311688311688 65.38961038961038,36.81818181818181 65.25974025974025,36.688311688311686 65.19480519480518,36.55844155844156 65.06493506493506,36.36363636363636 64.87012987012986,36.16883116883117 64.67532467532467,35.90909090909091 64.48051948051948,35.58441558441558 64.15584415584415,35.32467532467532 63.831168831168824,35" fill="none" stroke="black" stroke-width="0.6"></polyline><polyline points="63.831168831168824,35 63.5064935064935,34.675324675324674 63.11688311688311,34.35064935064935 62.72727272727272,34.02597402597402 62.272727272727266,33.7012987012987 61.88311688311688,33.506493506493506 61.55844155844155,33.31168831168831 61.298701298701296,33.116883116883116 61.16883116883116,32.98701298701298 60.97402597402597,32.857142857142854 60.97402597402597,32.79220779220779 60.90909090909091,32.72727272727273 60.844155844155836,32.72727272727273 60.844155844155836,32.662337662337656 60.77922077922077,32.662337662337656 60.77922077922077,32.59740259740259 60.71428571428571,32.59740259740259 60.71428571428571,32.53246753246753 60.649350649350644,32.53246753246753 60.649350649350644,32.467532467532465 60.58441558441558,32.467532467532465 60.454545454545446,32.4025974025974 60.32467532467532,32.272727272727266 60.12987012987013,32.14285714285714 59.870129870129865,32.01298701298701 59.480519480519476,31.818181818181817 59.02597402597402,31.558441558441555 58.441558441558435,31.36363636363636 57.79220779220778,31.1038961038961 57.14285714285714,30.844155844155843 56.623376623376615,30.58441558441558 55.97402597402597,30.389610389610386 55.38961038961038,30.19480519480519 54.8051948051948,29.999999999999996 54.35064935064935,29.87012987012987 54.02597402597402,29.740259740259738 53.7012987012987,29.675324675324674 53.5064935064935,29.675324675324674 53.37662337662337,29.610389610389607 53.31168831168831,29.610389610389607 53.31168831168831,29.545454545454543 53.246753246753244,29.545454545454543 53.18181818181818,29.545454545454543 53.11688311688311,29.545454545454543 53.11688311688311,29.48051948051948 53.051948051948045,29.48051948051948 52.98701298701298,29.48051948051948 52.92207792207792,29.48051948051948 52.92207792207792,29.415584415584412 52.79220779220779,29.415584415584412 52.72727272727272,29.35064935064935" fill="none" stroke="black" stroke-width="0.6"></polyline><polyline points="52.72727272727272,29.35064935064935 52.662337662337656,29.35064935064935 52.53246753246753,29.285714285714285 52.4025974025974,29.220779220779217 52.14285714285714,29.090909090909086 51.75324675324675,29.025974025974023 51.16883116883116,28.89610389610389 50.649350649350644,28.766233766233764 49.99999999999999,28.701298701298697 49.35064935064935,28.57142857142857 48.57142857142857,28.506493506493502 47.72727272727272,28.44155844155844 47.077922077922075,28.44155844155844 46.49350649350649,28.44155844155844 46.1038961038961,28.44155844155844 45.77922077922077,28.44155844155844 45.45454545454545,28.44155844155844 45.32467532467532,28.44155844155844 45.12987012987013,28.44155844155844 45.064935064935064,28.44155844155844 44.99999999999999,28.44155844155844 44.93506493506493,28.44155844155844 44.870129870129865,28.44155844155844 44.8051948051948,28.44155844155844 44.74025974025974,28.44155844155844 44.675324675324674,28.44155844155844 44.6103896103896,28.44155844155844 44.54545454545454,28.44155844155844 44.35064935064935,28.44155844155844 44.220779220779214,28.44155844155844 44.090909090909086,28.44155844155844 43.896103896103895,28.44155844155844 43.76623376623376,28.44155844155844 43.57142857142857,28.44155844155844 43.246753246753244,28.44155844155844 42.92207792207792,28.506493506493502 42.4025974025974,28.636363636363633 41.88311688311688,28.766233766233764 41.16883116883116,29.025974025974023 40.45454545454545,29.220779220779217 39.870129870129865,29.415584415584412 39.41558441558441,29.675324675324674 38.96103896103896,29.87012987012987 38.57142857142857,29.999999999999996 38.31168831168831,30.129870129870127 38.18181818181818,30.25974025974026 38.051948051948045,30.25974025974026 37.98701298701298,30.25974025974026 37.98701298701298,30.324675324675322 37.92207792207792,30.324675324675322 37.857142857142854,30.389610389610386" fill="none" stroke="black" stroke-width="0.6"></polyline><polyline points="37.857142857142854,30.389610389610386 37.857142857142854,30.454545454545453 37.79220779220779,30.519480519480517 37.72727272727273,30.58441558441558 37.59740259740259,30.58441558441558 37.467532467532465,30.71428571428571 37.272727272727266,30.844155844155843 36.94805194805195,30.97402597402597 36.62337662337662,31.233766233766232 36.298701298701296,31.49350649350649 35.97402597402597,31.818181818181817 35.51948051948052,32.14285714285714 35.12987012987013,32.467532467532465 34.74025974025974,32.72727272727273 34.41558441558441,32.98701298701298 34.090909090909086,33.246753246753244 33.76623376623376,33.44155844155844 33.63636363636363,33.506493506493506 33.506493506493506,33.63636363636363 33.44155844155844,33.7012987012987 33.44155844155844,33.76623376623376 33.37662337662337,33.76623376623376 33.37662337662337,33.83116883116883 33.37662337662337,33.896103896103895 33.31168831168831,33.896103896103895 33.31168831168831,33.96103896103896 33.246753246753244,33.96103896103896 33.246753246753244,34.02597402597402 33.18181818181818,34.02597402597402 33.18181818181818,34.090909090909086 33.116883116883116,34.15584415584415 33.116883116883116,34.22077922077922 33.116883116883116,34.35064935064935 33.051948051948045,34.35064935064935 32.98701298701298,34.480519480519476 32.92207792207792,34.675324675324674 32.857142857142854,34.870129870129865 32.72727272727273,35.064935064935064 32.53246753246753,35.32467532467532 32.467532467532465,35.51948051948052 32.272727272727266,35.77922077922078 32.14285714285714,35.97402597402597 31.948051948051944,36.16883116883117 31.88311688311688,36.36363636363636 31.75324675324675,36.55844155844156 31.623376623376622,36.688311688311686 31.558441558441555,36.81818181818181 31.49350649350649,36.88311688311688 31.428571428571427,37.01298701298701 31.428571428571427,37.077922077922075 31.36363636363636,37.14285714285714" fill="none" stroke="black" stroke-width="0.6"></polyline><polyline points="31.36363636363636,37.14285714285714 31.298701298701296,37.14285714285714 31.298701298701296,37.2077922077922 31.233766233766232,37.2077922077922 31.233766233766232,37.272727272727266 31.233766233766232,37.33766233766234 31.168831168831165,37.33766233766234 31.168831168831165,37.4025974025974 31.1038961038961,37.4025974025974 31.1038961038961,37.467532467532465 31.038961038961038,37.467532467532465 30.97402597402597,37.467532467532465 30.97402597402597,37.53246753246753 30.97402597402597,37.59740259740259 30.909090909090907,37.59740259740259 30.909090909090907,37.662337662337656 30.909090909090907,37.72727272727273 30.909090909090907,37.79220779220779 30.844155844155843,37.79220779220779 30.779220779220775,37.92207792207792 30.649350649350648,38.116883116883116 30.519480519480517,38.37662337662337 30.25974025974026,38.63636363636363 29.999999999999996,39.02597402597402 29.740259740259738,39.35064935064935 29.48051948051948,39.675324675324674 29.220779220779217,40.064935064935064 28.96103896103896,40.51948051948052 28.701298701298697,40.90909090909091 28.506493506493502,41.16883116883116 28.376623376623375,41.36363636363636 28.311688311688307,41.49350649350649 28.246753246753244,41.55844155844156 28.246753246753244,41.62337662337662 28.18181818181818,41.688311688311686 28.116883116883113,41.75324675324675 28.116883116883113,41.81818181818181 28.116883116883113,41.88311688311688 28.05194805194805,41.88311688311688 28.05194805194805,41.94805194805195 28.05194805194805,42.01298701298701 27.987012987012985,42.077922077922075 27.987012987012985,42.14285714285714 27.987012987012985,42.2077922077922 27.987012987012985,42.272727272727266 27.987012987012985,42.4025974025974 27.987012987012985,42.53246753246753 27.987012987012985,42.79220779220779 27.922077922077918,43.051948051948045 27.857142857142854,43.37662337662337 27.79220779220779,43.76623376623376" fill="none" stroke="black" stroke-width="0.6"></polyline><polyline points="27.79220779220779,43.76623376623376 27.79220779220779,44.15584415584415 27.66233766233766,44.6103896103896 27.597402597402596,44.99999999999999 27.467532467532465,45.32467532467532 27.337662337662334,45.58441558441558 27.27272727272727,45.77922077922077 27.207792207792206,45.97402597402597 27.207792207792206,46.1038961038961 27.207792207792206,46.16883116883116 27.207792207792206,46.23376623376623 27.14285714285714,46.23376623376623 27.14285714285714,46.298701298701296 27.14285714285714,46.36363636363636 27.14285714285714,46.42857142857142 27.14285714285714,46.49350649350649 27.14285714285714,46.55844155844155 27.14285714285714,46.62337662337662 27.14285714285714,46.688311688311686 27.14285714285714,46.75324675324675 27.14285714285714,46.88311688311688 27.14285714285714,47.01298701298701 27.077922077922075,47.2077922077922 27.01298701298701,47.467532467532465 26.948051948051944,47.72727272727272 26.88311688311688,48.051948051948045 26.88311688311688,48.37662337662337 26.818181818181817,48.76623376623376 26.818181818181817,49.090909090909086 26.818181818181817,49.41558441558441 26.818181818181817,49.67532467532467 26.818181818181817,49.99999999999999 26.818181818181817,50.259740259740255 26.818181818181817,50.45454545454545 26.818181818181817,50.649350649350644 26.818181818181817,50.71428571428571 26.818181818181817,50.84415584415584 26.818181818181817,50.97402597402597 26.818181818181817,51.038961038961034 26.818181818181817,51.1038961038961 26.818181818181817,51.16883116883116 26.818181818181817,51.23376623376623 26.818181818181817,51.298701298701296 26.818181818181817,51.36363636363636 26.818181818181817,51.42857142857142 26.818181818181817,51.49350649350649 26.818181818181817,51.55844155844155 26.818181818181817,51.62337662337662 26.818181818181817,51.75324675324675 26.818181818181817,51.88311688311688 26.818181818181817,51.94805194805194" fill="none" stroke="black" stroke-width="0.6"></polyline><polyline points="26.818181818181817,51.94805194805194 26.818181818181817,52.077922077922075 26.818181818181817,52.272727272727266 26.818181818181817,52.53246753246753 26.818181818181817,52.79220779220779 26.818181818181817,53.051948051948045 26.818181818181817,53.37662337662337 26.818181818181817,53.7012987012987 26.818181818181817,54.02597402597402 26.818181818181817,54.35064935064935 26.818181818181817,54.67532467532467 26.75324675324675,54.93506493506493 26.75324675324675,55.19480519480519 26.688311688311686,55.38961038961038 26.688311688311686,55.58441558441558 26.688311688311686,55.649350649350644 26.688311688311686,55.77922077922077 26.688311688311686,55.844155844155836 26.623376623376622,55.844155844155836 26.623376623376622,55.90909090909091 26.623376623376622,55.97402597402597 26.623376623376622,56.038961038961034 26.623376623376622,56.1038961038961 26.623376623376622,56.16883116883116 26.623376623376622,56.233766233766225 26.623376623376622,56.298701298701296 26.623376623376622,56.36363636363636 26.623376623376622,56.42857142857142 26.623376623376622,56.49350649350649 26.623376623376622,56.55844155844155 26.623376623376622,56.623376623376615 26.623376623376622,56.688311688311686 26.623376623376622,56.75324675324675 26.623376623376622,56.88311688311688 26.688311688311686,57.012987012987004 26.688311688311686,57.14285714285714 26.75324675324675,57.33766233766233 26.818181818181817,57.59740259740259 26.818181818181817,57.857142857142854 26.948051948051944,58.18181818181817 27.01298701298701,58.5064935064935 27.14285714285714,58.76623376623376 27.207792207792206,59.15584415584415 27.27272727272727,59.480519480519476 27.4025974025974,59.74025974025974 27.467532467532465,59.99999999999999 27.597402597402596,60.259740259740255 27.727272727272723,60.38961038961038 27.79220779220779,60.51948051948052 27.79220779220779,60.649350649350644 27.857142857142854,60.649350649350644" fill="none" stroke="black" stroke-width="0.6"></polyline><polyline points="27.857142857142854,60.649350649350644 27.857142857142854,60.71428571428571 27.857142857142854,60.77922077922077 27.857142857142854,60.844155844155836 27.857142857142854,60.90909090909091 27.857142857142854,60.97402597402597 27.922077922077918,60.97402597402597 27.922077922077918,61.038961038961034 27.987012987012985,61.038961038961034 28.05194805194805,61.1038961038961 28.116883116883113,61.16883116883116 28.116883116883113,61.298701298701296 28.18181818181818,61.298701298701296 28.246753246753244,61.42857142857142 28.376623376623375,61.55844155844155 28.44155844155844,61.623376623376615 28.506493506493502,61.81818181818181 28.636363636363633,61.94805194805194 28.831168831168828,62.2077922077922 29.025974025974023,62.53246753246753 29.220779220779217,62.79220779220778 29.48051948051948,63.051948051948045 29.675324675324674,63.31168831168831 29.935064935064933,63.57142857142856 30.129870129870127,63.831168831168824 30.25974025974026,64.02597402597402 30.324675324675322,64.09090909090908 30.389610389610386,64.22077922077922 30.389610389610386,64.35064935064935 30.389610389610386,64.4155844155844 30.389610389610386,64.48051948051948 30.454545454545453,64.48051948051948 30.454545454545453,64.54545454545453 30.519480519480517,64.54545454545453 30.519480519480517,64.6103896103896 30.58441558441558,64.6103896103896 30.58441558441558,64.67532467532467 30.649350649350648,64.67532467532467 30.649350649350648,64.74025974025973 30.71428571428571,64.74025974025973 30.779220779220775,64.74025974025973 30.844155844155843,64.87012987012986 30.909090909090907,64.93506493506493 30.97402597402597,65 31.1038961038961,65.06493506493506 31.233766233766232,65.19480519480518 31.428571428571427,65.32467532467531 31.623376623376622,65.58441558441558 31.88311688311688,65.84415584415584 32.14285714285714,66.10389610389609 32.33766233766234,66.42857142857142" fill="none" stroke="black" stroke-width="0.6"></polyline><polyline points="32.33766233766234,66.42857142857142 32.59740259740259,66.75324675324674 32.857142857142854,67.07792207792207 33.051948051948045,67.4025974025974 33.18181818181818,67.66233766233766 33.37662337662337,67.85714285714285 33.506493506493506,68.05194805194805 33.63636363636363,68.18181818181817 33.76623376623376,68.24675324675324 33.76623376623376,68.3116883116883 33.76623376623376,68.37662337662337 33.76623376623376,68.44155844155844 33.83116883116883,68.44155844155844 33.896103896103895,68.44155844155844 33.96103896103896,68.5064935064935 34.02597402597402,68.5064935064935 34.02597402597402,68.57142857142857 34.090909090909086,68.57142857142857 34.15584415584415,68.63636363636363 34.22077922077922,68.7012987012987 34.35064935064935,68.76623376623375 34.41558441558441,68.83116883116882 34.54545454545454,68.8961038961039 34.675324675324674,69.02597402597402 34.8051948051948,69.09090909090908 35.064935064935064,69.35064935064935 35.259740259740255,69.54545454545453 35.45454545454545,69.74025974025973 35.71428571428571,70.06493506493506 35.97402597402597,70.38961038961038 36.298701298701296,70.64935064935064 36.55844155844156,70.9090909090909 36.81818181818181,71.10389610389609 37.01298701298701,71.29870129870129 37.272727272727266,71.55844155844156 37.33766233766234,71.62337662337661 37.467532467532465,71.75324675324674 37.59740259740259,71.88311688311687 37.59740259740259,71.94805194805194 37.662337662337656,72.01298701298701 37.72727272727273,72.01298701298701 37.79220779220779,72.07792207792207 37.857142857142854,72.14285714285714 37.92207792207792,72.2077922077922 38.051948051948045,72.27272727272727 38.116883116883116,72.27272727272727 38.18181818181818,72.27272727272727 38.31168831168831,72.4025974025974 38.506493506493506,72.46753246753246 38.7012987012987,72.59740259740259 38.96103896103896,72.66233766233765" fill="none" stroke="black" stroke-width="0.6"></polyline><polyline points="38.96103896103896,72.66233766233765 39.220779220779214,72.79220779220779 39.54545454545454,72.92207792207792 39.99999999999999,73.11688311688312 40.45454545454545,73.24675324675324 40.97402597402597,73.37662337662337 41.42857142857142,73.5064935064935 41.88311688311688,73.7012987012987 42.272727272727266,73.83116883116882 42.53246753246753,73.8961038961039 42.79220779220779,74.02597402597402 42.92207792207792,74.15584415584415 43.116883116883116,74.15584415584415 43.246753246753244,74.15584415584415 43.31168831168831,74.15584415584415 43.37662337662337,74.15584415584415 43.441558441558435,74.15584415584415 43.506493506493506,74.15584415584415 43.57142857142857,74.15584415584415 43.831168831168824,74.2207792207792 44.02597402597402,74.2207792207792 44.35064935064935,74.28571428571428 44.675324675324674,74.4155844155844 45.12987012987013,74.4155844155844 45.45454545454545,74.54545454545453 45.97402597402597,74.67532467532467 46.42857142857142,74.74025974025973 47.077922077922075,74.87012987012986 47.662337662337656,75 48.37662337662337,75.06493506493506 49.02597402597402,75.19480519480518 49.6103896103896,75.32467532467531 50.064935064935064,75.38961038961038 50.45454545454545,75.38961038961038 50.71428571428571,75.38961038961038 50.84415584415584,75.38961038961038 50.97402597402597,75.45454545454545 50.90909090909091,75.45454545454545 50.84415584415584,75.45454545454545 50.71428571428571,75.45454545454545 50.649350649350644,75.45454545454545 50.58441558441558,75.45454545454545 50.649350649350644,75.51948051948051 50.71428571428571,75.51948051948051 50.77922077922077,75.51948051948051 50.84415584415584,75.51948051948051 50.84415584415584,75.58441558441558 50.97402597402597,75.58441558441558 51.1038961038961,75.58441558441558 51.16883116883116,75.64935064935064 51.298701298701296,75.64935064935064" fill="none" stroke="black" stroke-width="0.6"></polyline><polyline points="51.298701298701296,75.64935064935064 51.49350649350649,75.64935064935064 51.75324675324675,75.64935064935064 52.14285714285714,75.64935064935064 52.53246753246753,75.64935064935064 52.98701298701298,75.64935064935064 53.5064935064935,75.64935064935064 54.02597402597402,75.64935064935064 54.67532467532467,75.45454545454545 55.32467532467532,75.38961038961038 55.97402597402597,75.25974025974025 56.49350649350649,75.06493506493506 56.81818181818181,75.06493506493506 57.077922077922075,75 57.2077922077922,74.93506493506493 57.33766233766233,74.93506493506493 57.402597402597394,74.93506493506493 57.467532467532465,74.93506493506493 57.53246753246753,74.93506493506493 57.59740259740259,74.93506493506493 57.662337662337656,74.93506493506493 57.72727272727272,74.93506493506493 57.79220779220778,74.93506493506493 57.92207792207792,74.93506493506493 58.18181818181817,74.93506493506493 58.57142857142857,74.87012987012986 59.090909090909086,74.67532467532467 59.54545454545454,74.4155844155844 60.06493506493506,74.15584415584415 60.649350649350644,73.83116883116882 61.298701298701296,73.5064935064935 62.012987012987004,73.11688311688312 62.72727272727272,72.72727272727272 63.31168831168831,72.4025974025974 63.831168831168824,72.14285714285714 64.15584415584415,71.94805194805194 64.35064935064935,71.81818181818181 64.48051948051948,71.75324675324674 64.54545454545453,71.75324675324674 64.54545454545453,71.68831168831169 64.54545454545453,71.62337662337661 64.6103896103896,71.62337662337661 64.67532467532467,71.62337662337661 64.74025974025973,71.62337662337661 64.74025974025973,71.55844155844156 64.87012987012986,71.49350649350649 64.93506493506493,71.42857142857142 65.06493506493506,71.29870129870129 65.25974025974025,71.23376623376623 65.51948051948051,71.03896103896103 65.9090909090909,70.84415584415584" fill="none" stroke="black" stroke-width="0.6"></polyline><polyline points="65.9090909090909,70.84415584415584 66.23376623376623,70.58441558441558 66.62337662337661,70.32467532467531 66.94805194805194,69.93506493506493 67.4025974025974,69.54545454545453 67.92207792207792,69.09090909090908 68.37662337662337,68.7012987012987 68.8961038961039,68.3116883116883 69.35064935064935,67.98701298701297 69.74025974025973,67.72727272727272 70.06493506493506,67.53246753246752 70.25974025974025,67.33766233766234 70.38961038961038,67.27272727272727 70.45454545454545,67.14285714285714 70.58441558441558,67.14285714285714 70.58441558441558,67.07792207792207 70.58441558441558,67.01298701298701 70.58441558441558,66.94805194805194 70.58441558441558,66.88311688311688 70.58441558441558,66.81818181818181 70.58441558441558,66.75324675324674 70.64935064935064,66.68831168831169 70.77922077922078,66.62337662337661 70.77922077922078,66.42857142857142 70.84415584415584,66.29870129870129 70.97402597402596,66.10389610389609 71.10389610389609,65.84415584415584 71.23376623376623,65.51948051948051 71.42857142857142,65.12987012987013 71.68831168831169,64.74025974025973 71.88311688311687,64.4155844155844 72.2077922077922,64.09090909090908 72.53246753246752,63.76623376623376 72.85714285714285,63.441558441558435 73.11688311688312,63.18181818181817 73.37662337662337,62.857142857142854 73.57142857142857,62.59740259740259 73.76623376623375,62.402597402597394 73.8961038961039,62.2077922077922 74.02597402597402,62.012987012987004 74.15584415584415,61.94805194805194 74.2207792207792,61.88311688311688 74.2207792207792,61.81818181818181 74.2207792207792,61.75324675324675 74.2207792207792,61.688311688311686 74.2207792207792,61.623376623376615 74.2207792207792,61.55844155844155 74.2207792207792,61.49350649350649 74.2207792207792,61.42857142857142 74.2207792207792,61.36363636363636 74.28571428571428,61.298701298701296" fill="none" stroke="black" stroke-width="0.6"></polyline><polyline points="74.28571428571428,61.298701298701296 74.28571428571428,61.233766233766225 74.35064935064935,61.16883116883116 74.35064935064935,61.038961038961034 74.4155844155844,60.97402597402597 74.48051948051948,60.77922077922077 74.48051948051948,60.649350649350644 74.54545454545453,60.454545454545446 74.54545454545453,60.32467532467532 74.67532467532467,59.99999999999999 74.74025974025973,59.74025974025974 74.8051948051948,59.480519480519476 74.87012987012986,59.090909090909086 75,58.76623376623376 75.19480519480518,58.31168831168831 75.32467532467531,57.857142857142854 75.51948051948051,57.402597402597394 75.84415584415584,56.88311688311688 76.03896103896103,56.55844155844155 76.23376623376623,56.233766233766225 76.42857142857142,55.90909090909091 76.55844155844156,55.649350649350644 76.68831168831169,55.51948051948052 76.75324675324674,55.38961038961038 76.75324675324674,55.32467532467532 76.75324675324674,55.19480519480519 76.75324675324674,55.12987012987013 76.75324675324674,55.06493506493506 76.75324675324674,54.99999999999999 76.75324675324674,54.93506493506493 76.75324675324674,54.870129870129865 76.75324675324674,54.8051948051948 76.75324675324674,54.74025974025974 76.75324675324674,54.67532467532467 76.75324675324674,54.6103896103896 76.75324675324674,54.480519480519476 76.75324675324674,54.41558441558441 76.75324675324674,54.28571428571428 76.75324675324674,54.090909090909086 76.75324675324674,53.96103896103896 76.75324675324674,53.7012987012987 76.75324675324674,53.37662337662337 76.75324675324674,53.051948051948045 76.75324675324674,52.662337662337656 76.68831168831169,52.33766233766233 76.68831168831169,52.01298701298701 76.68831168831169,51.688311688311686 76.68831168831169,51.42857142857142 76.68831168831169,51.23376623376623 76.68831168831169,50.97402597402597 76.68831168831169,50.84415584415584" fill="none" stroke="black" stroke-width="0.6"></polyline><polyline points="76.68831168831169,50.84415584415584 76.68831168831169,50.71428571428571 76.68831168831169,50.649350649350644 76.68831168831169,50.58441558441558 76.68831168831169,50.51948051948052 76.68831168831169,50.45454545454545 76.68831168831169,50.38961038961038 76.68831168831169,50.32467532467532 76.68831168831169,50.259740259740255 76.68831168831169,50.19480519480519 76.68831168831169,50.12987012987013 76.68831168831169,50.064935064935064 76.68831168831169,49.99999999999999 76.62337662337661,49.93506493506493 76.62337662337661,49.870129870129865 76.62337662337661,49.74025974025974 76.62337662337661,49.67532467532467 76.62337662337661,49.6103896103896 76.62337662337661,49.54545454545454 76.62337662337661,49.480519480519476 76.62337662337661,49.41558441558441 76.62337662337661,49.220779220779214 76.62337662337661,49.090909090909086 76.62337662337661,48.831168831168824 76.55844155844156,48.63636363636363 76.55844155844156,48.441558441558435 76.49350649350649,48.31168831168831 76.49350649350649,48.18181818181818 76.42857142857142,48.11688311688311 76.42857142857142,48.18181818181818 76.49350649350649,48.31168831168831" fill="none" stroke="black" stroke-width="0.6"></polyline></svg>