<svg height="100" width="100" preserveAspectRatio="xMidYMid meet"><polyline points="77.92207792207792,16.49350649350649 77.4025974025974,16.623376623376622 77.07792207792207,17.207792207792206 76.55844155844156,17.857142857142854 75.9090909090909,18.44155844155844 75.25974025974025,18.96103896103896 74.74025974025973,19.48051948051948 74.2207792207792,19.87012987012987 73.8961038961039,20.19480519480519 73.5064935064935,20.519480519480517 73.3116883116883,20.71428571428571 73.11688311688312,20.844155844155843 73.05194805194805,20.909090909090907 73.05194805194805,21.038961038961038 72.98701298701297,21.038961038961038 72.98701298701297,21.1038961038961 72.92207792207792,21.1038961038961 72.85714285714285,21.1038961038961 72.72727272727272,21.16883116883117 72.66233766233765,21.16883116883117 72.46753246753246,21.298701298701296 72.33766233766234,21.363636363636363 72.14285714285714,21.428571428571427 72.01298701298701,21.428571428571427 71.88311688311687,21.49350649350649 71.75324675324674,21.623376623376622 71.62337662337661,21.753246753246753 71.42857142857142,21.88311688311688 71.10389610389609,22.337662337662337 70.71428571428571,22.857142857142854 70,23.636363636363633 69.02597402597402,24.545454545454543 67.98701298701297,25.519480519480517 67.01298701298701,26.298701298701296 66.16883116883116,27.01298701298701 65.51948051948051,27.467532467532465 65.19480519480518,27.727272727272723 65.06493506493506,27.857142857142854 65.06493506493506,27.922077922077918 64.93506493506493,27.987012987012985 64.74025974025973,28.05194805194805 64.54545454545453,28.116883116883113 64.48051948051948,28.18181818181818 64.35064935064935,28.311688311688307 64.22077922077922,28.311688311688307 64.22077922077922,28.376623376623375 64.15584415584415,28.376623376623375 64.15584415584415,28.44155844155844 64.15584415584415,28.506493506493502 64.09090909090908,28.506493506493502 64.09090909090908,28.57142857142857" fill="none" stroke="black" stroke-width="0.6"></polyline><polyline points="64.09090909090908,28.57142857142857 63.96103896103895,28.636363636363633 63.831168831168824,28.766233766233764 63.57142857142856,29.025974025974023 63.18181818181817,29.610389610389607 62.53246753246753,30.25974025974026 61.623376623376615,31.168831168831165 60.58441558441558,32.14285714285714 59.41558441558441,33.051948051948045 58.31168831168831,33.96103896103896 57.467532467532465,34.61038961038961 56.94805194805194,35.064935064935064 56.81818181818181,35.259740259740255 56.75324675324675,35.38961038961039 56.75324675324675,35.45454545454545 56.688311688311686,35.45454545454545 56.55844155844155,35.51948051948052 56.42857142857142,35.649350649350644 56.233766233766225,35.71428571428571 56.1038961038961,35.84415584415584 55.97402597402597,35.90909090909091 55.90909090909091,35.97402597402597 55.90909090909091,36.038961038961034 55.844155844155836,36.038961038961034 55.844155844155836,36.1038961038961 55.844155844155836,36.16883116883117 55.77922077922077,36.16883116883117 55.649350649350644,36.23376623376623 55.58441558441558,36.36363636363636 55.454545454545446,36.49350649350649 55.19480519480519,36.75324675324675 54.74025974025974,37.14285714285714 54.220779220779214,37.72727272727273 53.5064935064935,38.63636363636363 52.59740259740259,39.6103896103896 51.298701298701296,40.71428571428571 50.064935064935064,41.81818181818181 49.02597402597402,42.72727272727273 48.18181818181818,43.37662337662337 47.662337662337656,43.76623376623376 47.4025974025974,43.96103896103896 47.4025974025974,44.090909090909086 47.33766233766233,44.090909090909086 47.2077922077922,44.15584415584415 47.14285714285714,44.220779220779214 47.077922077922075,44.285714285714285 47.01298701298701,44.285714285714285 47.01298701298701,44.35064935064935 47.01298701298701,44.41558441558441 46.94805194805194,44.41558441558441 46.94805194805194,44.54545454545454" fill="none" stroke="black" stroke-width="0.6"></polyline><polyline points="46.94805194805194,44.54545454545454 46.94805194805194,44.6103896103896 46.88311688311688,44.6103896103896 46.81818181818181,44.675324675324674 46.62337662337662,44.93506493506493 46.298701298701296,45.51948051948052 45.77922077922077,46.23376623376623 44.870129870129865,47.14285714285714 43.896103896103895,48.18181818181818 42.857142857142854,49.35064935064935 41.81818181818181,50.51948051948052 40.90909090909091,51.49350649350649 40.19480519480519,52.14285714285714 39.870129870129865,52.662337662337656 39.8051948051948,52.92207792207792 39.8051948051948,53.051948051948045 39.8051948051948,53.18181818181818 39.8051948051948,53.246753246753244 39.8051948051948,53.31168831168831 39.8051948051948,53.37662337662337 39.8051948051948,53.441558441558435 39.8051948051948,53.5064935064935 39.8051948051948,53.57142857142857 39.8051948051948,53.63636363636363 39.74025974025974,53.7012987012987 39.675324675324674,53.76623376623376 39.6103896103896,53.831168831168824 39.6103896103896,53.89610389610389 39.54545454545454,53.96103896103896 39.480519480519476,54.02597402597402 39.41558441558441,54.15584415584415 39.220779220779214,54.35064935064935 39.02597402597402,54.67532467532467 38.7012987012987,55.259740259740255 38.051948051948045,55.97402597402597 37.2077922077922,57.012987012987004 36.23376623376623,58.18181818181817 35.064935064935064,59.480519480519476 33.83116883116883,60.844155844155836 32.79220779220779,61.88311688311688 31.948051948051944,62.857142857142854 31.558441558441555,63.441558441558435 31.36363636363636,63.7012987012987 31.36363636363636,63.76623376623376 31.428571428571427,63.76623376623376 31.49350649350649,63.76623376623376 31.49350649350649,63.831168831168824 31.49350649350649,63.96103896103895 31.49350649350649,64.02597402597402 31.49350649350649,64.09090909090908 31.49350649350649,64.15584415584415" fill="none" stroke="black" stroke-width="0.6"></polyline><polyline points="31.49350649350649,64.15584415584415 31.428571428571427,64.28571428571428 31.298701298701296,64.35064935064935 31.233766233766232,64.35064935064935 31.233766233766232,64.4155844155844 31.168831168831165,64.48051948051948 31.1038961038961,64.48051948051948 31.1038961038961,64.54545454545453 31.038961038961038,64.6103896103896 30.97402597402597,64.67532467532467 30.844155844155843,64.87012987012986 30.454545454545453,65.25974025974025 29.87012987012987,65.84415584415584 29.155844155844154,66.75324675324674 28.246753246753244,67.79220779220779 27.01298701298701,69.09090909090908 25.779220779220775,70.38961038961038 24.8051948051948,71.55844155844156 23.96103896103896,72.46753246753246 23.31168831168831,73.11688311688312 22.987012987012985,73.5064935064935 22.857142857142854,73.63636363636363 22.857142857142854,73.76623376623375 22.857142857142854,73.83116883116882 22.857142857142854,73.8961038961039 22.857142857142854,73.96103896103895 22.857142857142854,74.02597402597402 22.857142857142854,74.09090909090908 22.857142857142854,74.15584415584415 22.857142857142854,74.2207792207792 22.857142857142854,74.28571428571428 22.857142857142854,74.35064935064935 22.79220779220779,74.35064935064935 22.727272727272727,74.4155844155844 22.727272727272727,74.54545454545453 22.66233766233766,74.67532467532467 22.4025974025974,75 22.077922077922075,75.45454545454545 21.688311688311686,76.10389610389609 20.909090909090907,77.01298701298701 19.935064935064933,78.18181818181817 18.7012987012987,79.54545454545453 17.66233766233766,80.77922077922076 16.688311688311686,81.88311688311687 15.779220779220777,82.79220779220779 15.194805194805193,83.44155844155843 14.999999999999998,83.76623376623375 14.935064935064934,83.8961038961039 14.935064935064934,83.96103896103895 14.935064935064934,84.02597402597402 14.999999999999998,84.09090909090908" fill="none" stroke="black" stroke-width="0.6"></polyline><polyline points="14.999999999999998,84.09090909090908 15.194805194805193,84.09090909090908 15.389610389610388,84.15584415584415" fill="none" stroke="black" stroke-width="0.6"></polyline></svg>