<svg height="100" width="100" preserveAspectRatio="xMidYMid meet"><polyline points="51.55844155844155,49.090909090909086 49.15584415584415,50.97402597402597 46.75324675324675,52.857142857142854 45.45454545454545,54.090909090909086 44.8051948051948,54.67532467532467 43.76623376623376,55.51948051948052 43.18181818181818,56.038961038961034 42.98701298701298,56.233766233766225 42.98701298701298,56.298701298701296 44.35064935064935,54.870129870129865 45.90909090909091,53.18181818181818 48.246753246753244,50.97402597402597 50.51948051948052,48.831168831168824 52.72727272727272,47.077922077922075 54.090909090909086,45.97402597402597 54.99999999999999,45.45454545454545 55.259740259740255,45.38961038961038 54.8051948051948,45.649350649350644 53.18181818181818,47.2077922077922 50.77922077922077,49.090909090909086 47.79220779220779,51.36363636363636 44.870129870129865,53.57142857142857 42.33766233766234,55.259740259740255 40.71428571428571,56.298701298701296 40.19480519480519,56.55844155844155 40.259740259740255,56.623376623376615 42.2077922077922,55.97402597402597 45.51948051948052,53.441558441558435 48.96103896103896,50.71428571428571 52.72727272727272,48.11688311688311 55.58441558441558,45.90909090909091 57.14285714285714,44.675324675324674 57.72727272727272,44.220779220779214 57.662337662337656,44.220779220779214 55.38961038961038,45.71428571428571 51.88311688311688,48.76623376623376 47.92207792207792,51.688311688311686 43.896103896103895,54.480519480519476 40.84415584415584,56.623376623376615 39.220779220779214,57.662337662337656 38.831168831168824,57.92207792207792 39.6103896103896,57.59740259740259 42.72727272727273,55.12987012987013 47.2077922077922,51.36363636363636 51.81818181818181,47.79220779220779 55.259740259740255,45.32467532467532 57.077922077922075,44.090909090909086 57.662337662337656,43.76623376623376 57.33766233766233,44.090909090909086 54.28571428571428,46.688311688311686 50.45454545454545,49.93506493506493" fill="none" stroke="black" stroke-width="0.6"></polyline><polyline points="50.45454545454545,49.93506493506493 46.038961038961034,52.92207792207792 42.2077922077922,55.32467532467532 39.54545454545454,56.75324675324675 38.7012987012987,57.2077922077922 39.675324675324674,56.94805194805194 41.62337662337662,55.649350649350644 45.97402597402597,52.2077922077922 51.1038961038961,48.441558441558435 55.38961038961038,45.32467532467532 57.72727272727272,43.63636363636363 58.7012987012987,43.116883116883116 57.72727272727272,43.76623376623376 56.233766233766225,44.93506493506493 52.272727272727266,48.051948051948045 47.98701298701298,50.90909090909091 43.896103896103895,53.18181818181818 41.038961038961034,54.8051948051948 39.6103896103896,55.58441558441558 39.41558441558441,55.71428571428571 40.84415584415584,55.06493506493506 44.6103896103896,52.33766233766233 49.02597402597402,49.090909090909086 53.246753246753244,46.23376623376623 55.97402597402597,44.41558441558441 57.33766233766233,43.57142857142857 56.233766233766225,44.480519480519476 52.467532467532465,47.53246753246753 48.37662337662337,50.51948051948052 44.54545454545454,53.051948051948045 41.298701298701296,55.06493506493506 39.6103896103896,56.038961038961034 39.220779220779214,56.298701298701296 39.8051948051948,56.298701298701296 42.92207792207792,54.15584415584415 47.14285714285714,50.97402597402597 51.36363636363636,48.051948051948045 54.41558441558441,45.90909090909091 56.16883116883116,44.93506493506493 56.55844155844155,44.74025974025974 55.90909090909091,45.259740259740255 53.051948051948045,47.53246753246753 49.28571428571428,50.45454545454545 45.77922077922077,52.79220779220779 42.857142857142854,54.54545454545454 41.038961038961034,55.51948051948052 40.45454545454545,55.844155844155836 41.16883116883116,55.58441558441558 44.54545454545454,52.92207792207792 48.76623376623376,49.6103896103896 52.857142857142854,46.62337662337662" fill="none" stroke="black" stroke-width="0.6"></polyline><polyline points="52.857142857142854,46.62337662337662 55.58441558441558,44.870129870129865 56.88311688311688,44.220779220779214 56.88311688311688,44.41558441558441 55.58441558441558,45.38961038961038 52.467532467532465,48.37662337662337 48.246753246753244,51.62337662337662 44.220779220779214,54.35064935064935 41.49350649350649,56.038961038961034 39.99999999999999,56.81818181818181 39.870129870129865,56.88311688311688 41.23376623376623,56.038961038961034 44.99999999999999,52.857142857142854 49.35064935064935,49.35064935064935 53.18181818181818,46.55844155844155 55.649350649350644,45.12987012987013 56.49350649350649,44.8051948051948 56.55844155844155,44.870129870129865 54.090909090909086,46.75324675324675 50.649350649350644,49.480519480519476 47.14285714285714,51.75324675324675 43.7012987012987,53.831168831168824 41.55844155844156,55.19480519480519 40.45454545454545,55.649350649350644 40.45454545454545,55.71428571428571 42.92207792207792,54.35064935064935 46.88311688311688,51.1038961038961 51.1038961038961,48.11688311688311 54.02597402597402,46.038961038961034 55.77922077922077,45.12987012987013 56.16883116883116,44.99999999999999 55.259740259740255,45.58441558441558 52.2077922077922,48.18181818181818 48.5064935064935,51.1038961038961 44.8051948051948,53.5064935064935 41.55844155844156,55.51948051948052 39.93506493506493,56.36363636363636 39.6103896103896,56.55844155844155 40.90909090909091,55.97402597402597 44.35064935064935,53.441558441558435 48.37662337662337,50.259740259740255 51.81818181818181,47.79220779220779 53.76623376623376,46.55844155844155 54.67532467532467,46.1038961038961 54.15584415584415,46.49350649350649 53.18181818181818,47.467532467532465 50.19480519480519,49.99999999999999 46.75324675324675,52.272727272727266 43.57142857142857,54.090909090909086 41.688311688311686,55.12987012987013 40.77922077922077,55.51948051948052" fill="none" stroke="black" stroke-width="0.6"></polyline><polyline points="40.77922077922077,55.51948051948052 41.49350649350649,55.32467532467532 42.662337662337656,54.41558441558441 46.298701298701296,51.42857142857142 50.19480519480519,48.63636363636363 53.051948051948045,46.75324675324675 54.74025974025974,45.84415584415584 55.32467532467532,45.649350649350644 54.8051948051948,45.90909090909091 52.272727272727266,48.051948051948045 49.02597402597402,50.51948051948052 45.51948051948052,52.857142857142854 42.79220779220779,54.6103896103896 41.1038961038961,55.51948051948052 40.649350649350644,55.844155844155836 41.23376623376623,55.77922077922077 44.15584415584415,53.7012987012987 48.246753246753244,50.649350649350644 52.2077922077922,47.79220779220779 54.870129870129865,45.97402597402597 56.233766233766225,45.19480519480519 56.623376623376615,44.99999999999999 55.58441558441558,45.649350649350644 52.79220779220779,47.98701298701298 49.35064935064935,50.51948051948052 45.84415584415584,52.79220779220779 42.98701298701298,54.41558441558441 41.36363636363636,55.259740259740255 40.90909090909091,55.454545454545446 41.42857142857142,55.32467532467532 44.220779220779214,53.31168831168831 48.246753246753244,50.19480519480519 52.14285714285714,47.4025974025974 54.74025974025974,45.649350649350644 56.233766233766225,44.8051948051948 56.55844155844155,44.675324675324674 55.32467532467532,45.32467532467532 52.272727272727266,47.79220779220779 48.441558441558435,50.58441558441558 44.99999999999999,52.857142857142854 42.14285714285714,54.6103896103896 40.45454545454545,55.58441558441558 39.870129870129865,55.90909090909091 40.45454545454545,55.844155844155836 43.116883116883116,53.76623376623376 47.077922077922075,50.649350649350644 51.1038961038961,47.79220779220779 54.02597402597402,45.71428571428571 55.77922077922077,44.675324675324674 56.298701298701296,44.41558441558441 55.90909090909091,44.6103896103896" fill="none" stroke="black" stroke-width="0.6"></polyline><polyline points="55.90909090909091,44.6103896103896 53.18181818181818,46.88311688311688 49.8051948051948,49.74025974025974 46.1038961038961,52.467532467532465 43.051948051948045,54.54545454545454 40.90909090909091,55.97402597402597 40.12987012987013,56.42857142857142 41.038961038961034,56.233766233766225 42.33766233766234,55.19480519480519 46.1038961038961,52.2077922077922 49.870129870129865,49.15584415584415 53.5064935064935,46.49350649350649 55.71428571428571,44.99999999999999 56.55844155844155,44.54545454545454 55.58441558441558,44.99999999999999 54.220779220779214,46.038961038961034 50.90909090909091,48.63636363636363 47.2077922077922,51.298701298701296 44.090909090909086,53.37662337662337 42.01298701298701,54.74025974025974 41.038961038961034,55.32467532467532 41.62337662337662,55.32467532467532 42.857142857142854,54.41558441558441 46.42857142857142,51.55844155844155 50.45454545454545,48.441558441558435 53.831168831168824,45.97402597402597 55.844155844155836,44.74025974025974 56.49350649350649,44.480519480519476 56.16883116883116,44.8051948051948 53.5064935064935,47.14285714285714 50.12987012987013,49.99999999999999 46.36363636363636,52.72727272727272 42.92207792207792,54.8051948051948 40.97402597402597,55.90909090909091 40.32467532467532,56.233766233766225 40.71428571428571,56.233766233766225 43.57142857142857,54.220779220779214 47.857142857142854,51.038961038961034 52.01298701298701,48.11688311688311 54.67532467532467,46.298701298701296 56.233766233766225,45.32467532467532 56.623376623376615,45.12987012987013 56.42857142857142,45.12987012987013 53.89610389610389,46.88311688311688 50.71428571428571,49.35064935064935 47.4025974025974,51.688311688311686 44.41558441558441,53.63636363636363 42.662337662337656,54.74025974025974 42.01298701298701,55.259740259740255 42.53246753246753,55.19480519480519 43.76623376623376,54.28571428571428" fill="none" stroke="black" stroke-width="0.6"></polyline><polyline points="43.76623376623376,54.28571428571428 46.94805194805194,51.81818181818181 50.84415584415584,48.831168831168824 53.89610389610389,46.62337662337662 55.71428571428571,45.58441558441558 56.298701298701296,45.32467532467532 55.97402597402597,45.45454545454545 53.441558441558435,47.59740259740259 50.19480519480519,50.32467532467532 46.49350649350649,52.72727272727272 43.31168831168831,54.74025974025974 41.62337662337662,55.71428571428571 41.038961038961034,56.038961038961034 41.36363636363636,56.038961038961034 44.02597402597402,54.090909090909086 48.18181818181818,50.90909090909091 52.467532467532465,47.79220779220779 55.90909090909091,45.38961038961038 57.59740259740259,44.15584415584415 58.11688311688311,43.896103896103895 57.53246753246753,44.220779220779214 54.67532467532467,46.55844155844155 50.71428571428571,49.67532467532467 46.688311688311686,52.467532467532465 43.051948051948045,54.8051948051948 40.45454545454545,56.36363636363636 39.480519480519476,56.88311688311688 39.870129870129865,56.88311688311688 41.298701298701296,56.038961038961034 44.93506493506493,52.98701298701298 49.15584415584415,49.67532467532467 52.857142857142854,47.01298701298701 55.38961038961038,45.45454545454545 56.36363636363636,44.99999999999999 55.649350649350644,45.45454545454545 54.35064935064935,46.42857142857142 51.038961038961034,49.15584415584415 47.4025974025974,51.81818181818181 44.090909090909086,53.96103896103896 41.688311688311686,55.58441558441558 40.51948051948052,56.233766233766225 40.32467532467532,56.36363636363636 41.688311688311686,55.77922077922077 45.12987012987013,53.18181818181818 49.02597402597402,50.19480519480519 52.53246753246753,47.662337662337656 55.06493506493506,46.1038961038961 56.1038961038961,45.649350649350644 55.90909090909091,45.58441558441558 54.8051948051948,46.23376623376623 51.75324675324675,48.57142857142857" fill="none" stroke="black" stroke-width="0.6"></polyline><polyline points="51.75324675324675,48.57142857142857 48.051948051948045,51.23376623376623 44.99999999999999,53.246753246753244 42.92207792207792,54.67532467532467 41.75324675324675,55.32467532467532 41.62337662337662,55.51948051948052 42.662337662337656,54.99999999999999 45.77922077922077,52.59740259740259 49.870129870129865,49.480519480519476 53.37662337662337,46.88311688311688 55.90909090909091,45.259740259740255 56.81818181818181,44.675324675324674 56.16883116883116,44.99999999999999 54.8051948051948,45.84415584415584 51.81818181818181,48.18181818181818 48.37662337662337,50.649350649350644 45.19480519480519,52.857142857142854 42.98701298701298,54.15584415584415 41.81818181818181,54.93506493506493 41.688311688311686,55.06493506493506 42.33766233766234,54.74025974025974 45.19480519480519,52.59740259740259 48.96103896103896,49.67532467532467 52.2077922077922,47.2077922077922 54.54545454545454,45.649350649350644 55.58441558441558,45.064935064935064 55.58441558441558,44.99999999999999 54.480519480519476,45.77922077922077 51.298701298701296,48.441558441558435 47.92207792207792,51.038961038961034 44.090909090909086,53.5064935064935 41.298701298701296,55.32467532467532 39.8051948051948,56.298701298701296 39.41558441558441,56.55844155844155 40.12987012987013,56.36363636363636 43.246753246753244,54.090909090909086 47.857142857142854,50.649350649350644 52.33766233766233,47.53246753246753 55.58441558441558,45.259740259740255 57.272727272727266,44.090909090909086 57.79220779220778,43.831168831168824 57.272727272727266,44.02597402597402 54.35064935064935,46.1038961038961 50.45454545454545,49.090909090909086 46.75324675324675,51.81818181818181 43.116883116883116,54.15584415584415 40.58441558441558,55.77922077922077 39.74025974025974,56.298701298701296 40.12987012987013,56.36363636363636 41.55844155844156,55.454545454545446 45.064935064935064,52.662337662337656" fill="none" stroke="black" stroke-width="0.6"></polyline><polyline points="45.064935064935064,52.662337662337656 49.15584415584415,49.54545454545454 52.98701298701298,46.81818181818181 55.97402597402597,44.74025974025974 57.272727272727266,43.96103896103896 57.14285714285714,43.896103896103895 55.77922077922077,44.870129870129865 52.14285714285714,47.79220779220779 48.18181818181818,50.77922077922077 44.220779220779214,53.441558441558435 41.36363636363636,55.51948051948052 39.870129870129865,56.49350649350649 39.6103896103896,56.688311688311686 40.58441558441558,56.36363636363636 43.7012987012987,54.090909090909086 47.92207792207792,50.77922077922077 52.01298701298701,47.79220779220779 54.93506493506493,45.71428571428571 56.42857142857142,44.8051948051948 56.55844155844155,44.74025974025974 55.38961038961038,45.649350649350644 51.88311688311688,48.57142857142857 47.98701298701298,51.49350649350649 43.896103896103895,54.220779220779214 40.71428571428571,56.233766233766225 39.15584415584415,57.2077922077922 38.7012987012987,57.402597402597394 39.480519480519476,57.077922077922075 42.92207792207792,54.41558441558441 47.077922077922075,51.1038961038961 51.36363636363636,48.051948051948045 54.220779220779214,46.038961038961034 55.90909090909091,45.12987012987013 56.233766233766225,44.99999999999999 55.259740259740255,45.32467532467532 52.4025974025974,47.59740259740259 48.63636363636363,50.32467532467532 45.259740259740255,52.467532467532465 42.53246753246753,54.15584415584415 40.90909090909091,55.12987012987013 40.45454545454545,55.454545454545446 41.038961038961034,55.32467532467532 43.831168831168824,53.18181818181818 47.92207792207792,49.93506493506493 52.077922077922075,47.077922077922075 55.259740259740255,44.99999999999999 57.077922077922075,43.896103896103895 57.59740259740259,43.7012987012987 57.14285714285714,44.090909090909086 54.28571428571428,46.298701298701296 50.51948051948052,49.15584415584415" fill="none" stroke="black" stroke-width="0.6"></polyline><polyline points="50.51948051948052,49.15584415584415 46.75324675324675,51.75324675324675 43.37662337662337,53.96103896103896 41.038961038961034,55.51948051948052 40.12987012987013,56.038961038961034 40.90909090909091,55.97402597402597 42.14285714285714,54.99999999999999 45.77922077922077,52.077922077922075 49.870129870129865,48.831168831168824 53.57142857142857,46.16883116883116 56.038961038961034,44.480519480519476 56.88311688311688,44.02597402597402 55.844155844155836,44.74025974025974 54.28571428571428,45.84415584415584 50.51948051948052,48.7012987012987 46.62337662337662,51.42857142857142 42.92207792207792,53.76623376623376 40.12987012987013,55.51948051948052 38.896103896103895,56.298701298701296 39.090909090909086,56.42857142857142 40.38961038961038,55.649350649350644 44.090909090909086,52.857142857142854 48.37662337662337,49.67532467532467 52.59740259740259,46.88311688311688 55.71428571428571,44.74025974025974 57.272727272727266,43.76623376623376 57.59740259740259,43.63636363636363 56.688311688311686,44.220779220779214 53.57142857142857,46.62337662337662 49.67532467532467,49.74025974025974 45.77922077922077,52.59740259740259 42.59740259740259,54.93506493506493 40.51948051948052,56.298701298701296 39.8051948051948,56.81818181818181 40.45454545454545,56.688311688311686 41.688311688311686,55.77922077922077 45.12987012987013,52.857142857142854 49.220779220779214,49.67532467532467 53.11688311688311,46.75324675324675 55.844155844155836,44.8051948051948 57.14285714285714,43.96103896103896 57.14285714285714,43.76623376623376 55.77922077922077,44.675324675324674 52.467532467532465,47.33766233766233 48.31168831168831,50.649350649350644 44.220779220779214,53.5064935064935 40.90909090909091,55.90909090909091 39.15584415584415,57.012987012987004 38.7012987012987,57.33766233766233 39.41558441558441,57.077922077922075 42.857142857142854,54.41558441558441" fill="none" stroke="black" stroke-width="0.6"></polyline><polyline points="42.857142857142854,54.41558441558441 47.467532467532465,50.71428571428571 52.33766233766233,47.077922077922075 55.90909090909091,44.41558441558441 57.467532467532465,43.37662337662337 57.857142857142854,43.18181818181818 56.55844155844155,44.285714285714285 53.246753246753244,47.077922077922075 48.831168831168824,50.58441558441558 44.480519480519476,53.441558441558435 41.038961038961034,55.71428571428571 39.15584415584415,56.88311688311688 38.57142857142857,57.2077922077922 39.02597402597402,57.14285714285714 42.33766233766234,54.54545454545454 46.688311688311686,51.1038961038961 51.49350649350649,47.662337662337656 55.51948051948052,44.74025974025974 57.662337662337656,43.31168831168831 58.441558441558435,42.857142857142854 58.246753246753244,42.92207792207792 55.259740259740255,45.19480519480519 51.42857142857142,48.18181818181818 47.4025974025974,51.1038961038961 43.831168831168824,53.441558441558435 41.1038961038961,55.19480519480519 39.93506493506493,55.97402597402597 39.99999999999999,56.1038961038961 41.23376623376623,55.32467532467532 44.54545454545454,52.53246753246753 48.63636363636363,49.35064935064935 52.72727272727272,46.42857142857142 55.649350649350644,44.35064935064935 57.2077922077922,43.441558441558435 57.53246753246753,43.37662337662337 56.49350649350649,44.220779220779214 53.11688311688311,46.94805194805194 48.96103896103896,50.32467532467532 44.675324675324674,53.31168831168831 41.23376623376623,55.649350649350644 39.15584415584415,57.012987012987004 38.441558441558435,57.53246753246753 38.506493506493506,57.53246753246753 41.42857142857142,55.38961038961038 45.45454545454545,52.01298701298701 50.064935064935064,48.441558441558435 53.96103896103896,45.649350649350644 56.55844155844155,44.02597402597402 57.53246753246753,43.506493506493506 56.75324675324675,44.15584415584415 55.19480519480519,45.259740259740255" fill="none" stroke="black" stroke-width="0.6"></polyline><polyline points="55.19480519480519,45.259740259740255 51.36363636363636,48.31168831168831 47.2077922077922,51.23376623376623 43.18181818181818,53.89610389610389 40.32467532467532,55.71428571428571 38.96103896103896,56.623376623376615 38.76623376623376,56.88311688311688 39.74025974025974,56.36363636363636 43.246753246753244,53.57142857142857 47.59740259740259,50.064935064935064 51.88311688311688,46.88311688311688 54.6103896103896,44.93506493506493 55.97402597402597,44.090909090909086 55.77922077922077,44.090909090909086 54.41558441558441,44.99999999999999 51.16883116883116,47.53246753246753 47.14285714285714,50.58441558441558 43.31168831168831,53.18181818181818 40.51948051948052,55.12987012987013 39.15584415584415,56.16883116883116 38.831168831168824,56.49350649350649 39.54545454545454,56.36363636363636 42.662337662337656,54.15584415584415 46.81818181818181,50.90909090909091 50.84415584415584,48.051948051948045 54.090909090909086,45.649350649350644 55.77922077922077,44.675324675324674 56.233766233766225,44.480519480519476 55.32467532467532,44.8051948051948 52.467532467532465,47.077922077922075 48.76623376623376,49.99999999999999 44.6103896103896,52.79220779220779 41.49350649350649,54.8051948051948 39.675324675324674,55.97402597402597 39.090909090909086,56.298701298701296 39.41558441558441,56.36363636363636 42.14285714285714,54.41558441558441 46.36363636363636,50.97402597402597 50.84415584415584,47.79220779220779 54.220779220779214,45.32467532467532 56.233766233766225,44.02597402597402 56.88311688311688,43.63636363636363 56.55844155844155,43.831168831168824 53.5064935064935,46.16883116883116 49.6103896103896,49.28571428571428 45.19480519480519,52.33766233766233 41.55844155844156,54.74025974025974 39.15584415584415,56.298701298701296 38.441558441558435,56.81818181818181 39.285714285714285,56.49350649350649 40.77922077922077,55.38961038961038" fill="none" stroke="black" stroke-width="0.6"></polyline><polyline points="40.77922077922077,55.38961038961038 44.74025974025974,52.33766233766233 48.96103896103896,49.090909090909086 52.467532467532465,46.55844155844155 54.67532467532467,45.12987012987013 55.71428571428571,44.675324675324674 54.74025974025974,45.32467532467532 53.37662337662337,46.49350649350649 49.67532467532467,49.67532467532467 45.84415584415584,52.4025974025974 41.94805194805195,54.99999999999999 39.285714285714285,56.688311688311686 38.246753246753244,57.33766233766233 38.76623376623376,57.33766233766233 40.19480519480519,56.298701298701296 43.96103896103896,53.246753246753244 48.051948051948045,50.064935064935064 51.55844155844155,47.53246753246753 53.7012987012987,45.97402597402597 54.74025974025974,45.38961038961038 54.41558441558441,45.45454545454545 53.37662337662337,46.23376623376623 50.32467532467532,48.7012987012987 46.81818181818181,51.23376623376623 43.37662337662337,53.63636363636363 40.77922077922077,55.32467532467532 39.6103896103896,56.16883116883116 39.41558441558441,56.36363636363636 39.99999999999999,56.298701298701296 42.72727272727273,54.15584415584415 46.55844155844155,50.97402597402597 50.51948051948052,48.11688311688311 53.57142857142857,45.90909090909091 55.38961038961038,44.870129870129865 55.97402597402597,44.675324675324674 55.58441558441558,44.675324675324674 52.857142857142854,46.688311688311686 49.15584415584415,49.67532467532467 45.51948051948052,52.2077922077922 42.01298701298701,54.6103896103896 39.480519480519476,56.298701298701296 38.246753246753244,57.2077922077922 38.051948051948045,57.402597402597394 38.896103896103895,57.012987012987004 41.88311688311688,54.54545454545454 46.1038961038961,50.90909090909091 50.51948051948052,47.59740259740259 53.7012987012987,45.38961038961038 55.38961038961038,44.54545454545454 55.71428571428571,44.41558441558441 54.35064935064935,45.51948051948052" fill="none" stroke="black" stroke-width="0.6"></polyline><polyline points="54.35064935064935,45.51948051948052 50.84415584415584,48.5064935064935 46.94805194805194,51.55844155844155 43.18181818181818,54.41558441558441 39.8051948051948,56.688311688311686 38.18181818181818,57.857142857142854 37.79220779220779,58.18181818181817 38.7012987012987,57.79220779220778 42.272727272727266,54.99999999999999 46.688311688311686,51.36363636363636 51.36363636363636,47.857142857142854 54.67532467532467,45.38961038961038 56.36363636363636,44.41558441558441 56.81818181818181,44.220779220779214 56.16883116883116,44.6103896103896 53.18181818181818,46.94805194805194 49.35064935064935,49.99999999999999 45.77922077922077,52.33766233766233 42.857142857142854,54.220779220779214 41.038961038961034,55.259740259740255 40.45454545454545,55.649350649350644 40.77922077922077,55.649350649350644 43.441558441558435,53.76623376623376 47.467532467532465,50.51948051948052 51.62337662337662,47.53246753246753 54.6103896103896,45.38961038961038 56.16883116883116,44.41558441558441 56.49350649350649,44.35064935064935 55.454545454545446,44.870129870129865 52.467532467532465,47.14285714285714 48.57142857142857,50.064935064935064 44.6103896103896,52.72727272727272 41.36363636363636,54.870129870129865 39.41558441558441,56.233766233766225 38.63636363636363,56.75324675324675 39.54545454545454,56.55844155844155 41.038961038961034,55.58441558441558 44.93506493506493,52.53246753246753 49.15584415584415,49.35064935064935 52.857142857142854,46.81818181818181 55.51948051948052,45.259740259740255 56.49350649350649,44.74025974025974 55.844155844155836,45.064935064935064 54.480519480519476,46.038961038961034 51.038961038961034,48.76623376623376 47.272727272727266,51.55844155844155 43.896103896103895,53.831168831168824 41.36363636363636,55.58441558441558 40.12987012987013,56.298701298701296 40.064935064935064,56.49350649350649 41.298701298701296,55.77922077922077" fill="none" stroke="black" stroke-width="0.6"></polyline><polyline points="41.298701298701296,55.77922077922077 44.54545454545454,53.051948051948045 48.5064935064935,49.93506493506493 52.467532467532465,46.88311688311688 54.93506493506493,45.064935064935064 56.233766233766225,44.35064935064935 56.038961038961034,44.35064935064935 54.67532467532467,45.259740259740255 51.36363636363636,47.72727272727272 47.33766233766233,50.649350649350644 43.37662337662337,53.18181818181818 40.12987012987013,55.32467532467532 38.506493506493506,56.49350649350649 37.857142857142854,56.88311688311688 38.31168831168831,56.88311688311688 41.36363636363636,54.67532467532467 45.259740259740255,51.62337662337662 49.15584415584415,48.831168831168824 52.72727272727272,46.49350649350649 54.74025974025974,45.32467532467532 55.58441558441558,44.99999999999999 55.454545454545446,44.99999999999999 53.051948051948045,46.75324675324675 49.41558441558441,49.8051948051948 45.45454545454545,52.662337662337656 42.077922077922075,55.06493506493506 39.74025974025974,56.75324675324675 38.831168831168824,57.33766233766233 39.54545454545454,57.2077922077922 41.038961038961034,56.298701298701296 44.8051948051948,53.246753246753244 48.63636363636363,50.12987012987013 52.077922077922075,47.59740259740259 54.15584415584415,46.038961038961034 55.19480519480519,45.45454545454545 54.67532467532467,45.38961038961038 53.7012987012987,45.90909090909091 50.77922077922077,47.857142857142854 47.467532467532465,50.12987012987013 44.220779220779214,52.272727272727266 41.88311688311688,54.02597402597402 40.51948051948052,54.870129870129865 40.19480519480519,55.12987012987013 41.038961038961034,54.99999999999999 43.7012987012987,53.051948051948045 47.077922077922075,50.51948051948052 50.45454545454545,48.051948051948045 52.98701298701298,46.23376623376623 54.090909090909086,45.45454545454545 54.28571428571428,45.32467532467532 53.31168831168831,45.90909090909091" fill="none" stroke="black" stroke-width="0.6"></polyline><polyline points="53.31168831168831,45.90909090909091 50.38961038961038,48.37662337662337 46.688311688311686,51.23376623376623 43.246753246753244,53.441558441558435 40.32467532467532,55.38961038961038 38.7012987012987,56.55844155844155 38.051948051948045,56.94805194805194 38.57142857142857,56.88311688311688 42.077922077922075,54.15584415584415 44.35064935064935,52.72727272727272" fill="none" stroke="black" stroke-width="0.6"></polyline></svg>